<svg xmlns="http://www.w3.org/2000/svg" width="1200" height="820" viewBox="0 0 1200 820">
<rect width="100%" height="100%" fill="white"/>
<text x="600.0" y="36" text-anchor="middle" font-family="Arial" font-size="24" fill="black">Umag profile along x-centerline</text>
<line x1="115.00" y1="75" x2="115.00" y2="705" stroke="#dddddd" stroke-width="1"/>
<text x="115.00" y="737" text-anchor="middle" font-family="Arial" font-size="16" fill="black">-0.560</text>
<line x1="372.50" y1="75" x2="372.50" y2="705" stroke="#dddddd" stroke-width="1"/>
<text x="372.50" y="737" text-anchor="middle" font-family="Arial" font-size="16" fill="black">1.470</text>
<line x1="630.00" y1="75" x2="630.00" y2="705" stroke="#dddddd" stroke-width="1"/>
<text x="630.00" y="737" text-anchor="middle" font-family="Arial" font-size="16" fill="black">3.500</text>
<line x1="887.50" y1="75" x2="887.50" y2="705" stroke="#dddddd" stroke-width="1"/>
<text x="887.50" y="737" text-anchor="middle" font-family="Arial" font-size="16" fill="black">5.530</text>
<line x1="1145.00" y1="75" x2="1145.00" y2="705" stroke="#dddddd" stroke-width="1"/>
<text x="1145.00" y="737" text-anchor="middle" font-family="Arial" font-size="16" fill="black">7.560</text>
<line x1="115" y1="705.00" x2="1145" y2="705.00" stroke="#dddddd" stroke-width="1"/>
<text x="99" y="710.00" text-anchor="end" font-family="Arial" font-size="16" fill="black">0.005</text>
<line x1="115" y1="547.50" x2="1145" y2="547.50" stroke="#dddddd" stroke-width="1"/>
<text x="99" y="552.50" text-anchor="end" font-family="Arial" font-size="16" fill="black">0.107</text>
<line x1="115" y1="390.00" x2="1145" y2="390.00" stroke="#dddddd" stroke-width="1"/>
<text x="99" y="395.00" text-anchor="end" font-family="Arial" font-size="16" fill="black">0.209</text>
<line x1="115" y1="232.50" x2="1145" y2="232.50" stroke="#dddddd" stroke-width="1"/>
<text x="99" y="237.50" text-anchor="end" font-family="Arial" font-size="16" fill="black">0.311</text>
<line x1="115" y1="75.00" x2="1145" y2="75.00" stroke="#dddddd" stroke-width="1"/>
<text x="99" y="80.00" text-anchor="end" font-family="Arial" font-size="16" fill="black">0.412</text>
<rect x="115" y="75" width="1030" height="630" fill="none" stroke="black" stroke-width="2"/>
<text x="630.0" y="785" text-anchor="middle" font-family="Arial" font-size="20" fill="black">x coordinate [m]</text>
<text x="34" y="390.0" transform="rotate(-90 34 390.0)" text-anchor="middle" font-family="Arial" font-size="20" fill="black">Umag [m/s]</text>
<polyline points="186.03,118.45 188.99,132.78 191.95,147.10 194.91,161.43 197.87,175.76 200.83,200.73 203.79,229.93 206.75,259.14 209.71,288.35 212.67,317.55 215.63,346.73 218.59,375.91 221.55,405.08 224.51,433.58 227.47,457.98 230.43,482.38 233.39,506.77 236.35,531.17 239.31,540.88 242.27,548.17 245.23,555.44 248.19,562.73 251.15,558.09 254.11,544.52 257.07,530.97 260.03,517.40 262.99,502.57 265.95,484.59 268.91,466.63 271.87,448.65 274.83,430.69 277.79,415.48 280.75,400.25 283.71,385.04 286.67,369.83 289.63,357.07 292.59,345.29 295.55,333.52 298.51,321.74 301.47,310.57 304.42,300.19 307.39,289.81 310.34,279.44 313.30,268.98 316.27,258.07 319.22,247.17 322.18,236.26 325.15,225.35 328.10,214.84 331.06,204.38 334.03,193.94 336.98,183.50 339.94,175.50 342.91,169.34 345.86,163.16 348.82,157.01 351.79,152.92 354.74,154.02 357.70,155.13 360.67,156.25 363.62,157.35 366.58,165.36 369.54,173.38 372.50,181.38 375.46,189.39 378.42,200.30 381.38,212.38 384.33,224.45 387.30,236.52 390.26,248.91 393.21,261.73 396.18,274.54 399.14,287.35 402.09,299.97 405.06,311.44 408.02,322.90 410.97,334.37 413.94,345.84 416.90,355.89 419.85,365.72 422.82,375.54 425.78,385.38 428.73,394.57 431.70,403.27 434.66,411.98 437.61,420.69 440.58,429.19 443.53,437.11 446.49,445.03 449.46,452.97 452.41,460.89 455.37,468.16 458.34,475.42 461.29,482.69 464.25,489.96 467.22,496.82 470.17,503.50 473.13,510.20 476.10,516.89 479.05,523.42 482.01,529.73 484.98,536.04 487.93,542.35 490.89,548.64 493.85,554.79 496.81,560.96 499.77,567.12 502.73,573.28 505.69,579.42 508.65,585.56 511.61,591.70 514.57,597.84 517.52,603.94 520.49,610.00 523.45,616.06 526.40,622.12 529.37,628.01 532.33,633.47 535.28,638.93 538.25,644.38 541.21,649.84 544.16,652.77 547.13,655.70 550.09,658.63 553.04,661.55 556.01,660.67 558.97,658.25 561.92,655.84 564.89,653.43 567.84,649.31 570.80,642.93 573.77,636.55 576.72,630.17 579.68,623.60 582.65,615.89 585.60,608.18 588.56,600.47 591.53,592.76 594.48,585.29 597.44,577.86 600.41,570.43 603.36,563.00 606.32,556.53 609.29,550.76 612.24,544.98 615.20,539.23 618.17,534.31 621.12,531.49 624.08,528.69 627.04,525.89 630.00,523.09 632.96,524.11 635.92,525.15 638.88,526.17 641.83,527.21 644.80,531.00 647.76,535.90 650.71,540.82 653.68,545.73 656.64,551.85 659.59,559.63 662.56,567.40 665.52,575.18 668.47,583.06 671.44,591.63 674.40,600.19 677.35,608.76 680.32,617.32 683.28,623.45 686.23,629.17 689.20,634.90 692.16,640.62 695.11,642.44 698.08,641.33 701.03,640.22 703.99,639.10 706.96,636.63 709.91,630.76 712.87,624.89 715.84,619.01 718.79,613.14 721.75,606.23 724.72,599.31 727.67,592.39 730.63,585.48 733.60,578.88 736.55,572.41 739.51,565.94 742.48,559.47 745.43,553.42 748.39,547.94 751.35,542.46 754.31,536.99 757.27,531.69 760.23,527.49 763.19,523.29 766.15,519.10 769.11,514.89 772.07,511.97 775.02,509.26 777.99,506.55 780.95,503.83 783.90,502.05 786.87,500.96 789.83,499.87 792.78,498.78 795.75,498.15 798.71,498.71 801.66,499.25 804.63,499.79 807.59,500.35 810.54,502.34 813.51,504.34 816.47,506.33 819.42,508.31 822.39,511.02 825.34,514.01 828.30,516.98 831.27,519.97 834.22,523.12 837.18,526.53 840.15,529.93 843.10,533.33 846.06,536.75 849.03,540.27 851.98,543.78 854.94,547.29 857.91,550.82 860.86,554.61 863.82,558.45 866.79,562.29 869.74,566.13 872.70,570.42 875.67,575.03 878.62,579.65 881.58,584.26 884.54,589.10 887.50,594.52 890.46,599.93 893.42,605.35 896.38,610.77 899.33,615.91 902.30,621.05 905.26,626.20 908.21,631.34 911.18,634.20 914.14,636.15 917.09,638.10 920.06,640.04 923.02,639.61 925.97,636.00 928.94,632.38 931.90,628.77 934.85,624.69 937.82,617.82 940.78,610.94 943.73,604.07 946.70,597.19 949.66,590.02 952.61,582.79 955.58,575.56 958.53,568.33 961.49,561.72 964.46,555.58 967.41,549.44 970.37,543.30 973.34,537.60 976.29,533.06 979.25,528.51 982.22,523.96 985.17,519.41 988.13,516.47 991.10,513.51 994.05,510.57 997.01,507.62 999.98,505.70 1002.93,504.20 1005.89,502.70 1008.85,501.20 1011.81,500.30 1014.77,500.19 1017.73,500.10 1020.69,500.01 1023.65,500.14 1026.61,501.75 1029.57,503.38 1032.52,504.99 1035.49,506.60 1038.45,510.40 1041.40,514.57 1044.37,518.74 1047.33,522.92 1050.28,529.60 1053.25,538.18 1056.21,546.73 1059.16,555.31 1062.13,563.05 1065.09,568.71 1068.04,574.38 1071.01,580.04 1073.97,585.71" fill="none" stroke="#111111" stroke-width="3"/>
<line x1="137" y1="100" x2="173" y2="100" stroke="#111111" stroke-width="4"/>
<text x="183" y="105" font-family="Arial" font-size="18" fill="black">Umag</text>
</svg>