<svg xmlns="http://www.w3.org/2000/svg" width="1200" height="820" viewBox="0 0 1200 820">
<rect width="100%" height="100%" fill="white"/>
<text x="600.0" y="36" text-anchor="middle" font-family="Arial" font-size="24" fill="black">Uz profile along z-centerline</text>
<line x1="115.00" y1="75" x2="115.00" y2="705" stroke="#dddddd" stroke-width="1"/>
<text x="115.00" y="737" text-anchor="middle" font-family="Arial" font-size="16" fill="black">-0.240</text>
<line x1="372.50" y1="75" x2="372.50" y2="705" stroke="#dddddd" stroke-width="1"/>
<text x="372.50" y="737" text-anchor="middle" font-family="Arial" font-size="16" fill="black">0.630</text>
<line x1="630.00" y1="75" x2="630.00" y2="705" stroke="#dddddd" stroke-width="1"/>
<text x="630.00" y="737" text-anchor="middle" font-family="Arial" font-size="16" fill="black">1.500</text>
<line x1="887.50" y1="75" x2="887.50" y2="705" stroke="#dddddd" stroke-width="1"/>
<text x="887.50" y="737" text-anchor="middle" font-family="Arial" font-size="16" fill="black">2.370</text>
<line x1="1145.00" y1="75" x2="1145.00" y2="705" stroke="#dddddd" stroke-width="1"/>
<text x="1145.00" y="737" text-anchor="middle" font-family="Arial" font-size="16" fill="black">3.240</text>
<line x1="115" y1="705.00" x2="1145" y2="705.00" stroke="#dddddd" stroke-width="1"/>
<text x="99" y="710.00" text-anchor="end" font-family="Arial" font-size="16" fill="black">-0.062</text>
<line x1="115" y1="547.50" x2="1145" y2="547.50" stroke="#dddddd" stroke-width="1"/>
<text x="99" y="552.50" text-anchor="end" font-family="Arial" font-size="16" fill="black">0.085</text>
<line x1="115" y1="390.00" x2="1145" y2="390.00" stroke="#dddddd" stroke-width="1"/>
<text x="99" y="395.00" text-anchor="end" font-family="Arial" font-size="16" fill="black">0.232</text>
<line x1="115" y1="232.50" x2="1145" y2="232.50" stroke="#dddddd" stroke-width="1"/>
<text x="99" y="237.50" text-anchor="end" font-family="Arial" font-size="16" fill="black">0.379</text>
<line x1="115" y1="75.00" x2="1145" y2="75.00" stroke="#dddddd" stroke-width="1"/>
<text x="99" y="80.00" text-anchor="end" font-family="Arial" font-size="16" fill="black">0.526</text>
<rect x="115" y="75" width="1030" height="630" fill="none" stroke="black" stroke-width="2"/>
<text x="630.0" y="785" text-anchor="middle" font-family="Arial" font-size="20" fill="black">z coordinate [m]</text>
<text x="34" y="390.0" transform="rotate(-90 34 390.0)" text-anchor="middle" font-family="Arial" font-size="20" fill="black">Uz [m/s]</text>
<polyline points="186.03,118.45 188.99,121.15 191.95,123.84 194.91,126.53 197.87,129.22 200.83,131.91 203.79,134.61 206.75,137.29 209.71,139.98 212.67,142.67 215.63,145.36 218.59,152.40 221.55,159.44 224.51,166.47 227.47,173.51 230.43,180.55 233.39,187.58 236.35,194.62 239.31,201.64 242.27,208.68 245.23,215.72 248.19,225.28 251.15,234.84 254.11,244.39 257.07,253.95 260.03,263.51 262.99,273.07 265.95,282.62 268.91,292.19 271.87,301.75 274.83,311.31 277.79,322.41 280.75,333.51 283.71,344.62 286.67,355.72 289.63,366.82 292.59,377.92 295.55,389.03 298.51,400.13 301.47,411.23 304.43,422.34 307.39,434.40 310.34,446.48 313.30,458.55 316.26,470.63 319.22,482.70 322.18,494.78 325.14,506.85 328.10,518.92 331.06,530.99 334.02,543.07 336.98,551.94 339.94,560.81 342.90,569.69 345.86,578.56 348.82,587.44 351.78,596.31 354.74,605.18 357.70,614.06 360.66,622.93 363.62,631.80 366.58,634.78 369.54,637.75 372.50,640.73 375.46,643.70 378.42,646.68 381.38,649.65 384.34,652.63 387.30,655.60 390.26,658.58 393.22,661.55 396.18,661.45 399.14,661.34 402.10,661.23 405.06,661.13 408.02,661.02 410.98,660.91 413.94,660.81 416.90,660.70 419.86,660.59 422.82,660.49 425.78,659.19 428.74,657.89 431.70,656.59 434.66,655.30 437.61,654.00 440.57,652.70 443.53,651.40 446.49,650.11 449.45,648.81 452.41,647.51 455.37,645.55 458.33,643.59 461.29,641.63 464.25,639.67 467.21,637.71 470.17,635.74 473.13,633.78 476.09,631.82 479.05,629.86 482.01,627.90 484.97,625.79 487.93,623.68 490.89,621.57 493.85,619.46 496.81,617.35 499.77,615.24 502.73,613.13 505.69,611.02 508.65,608.91 511.61,606.80 514.57,604.76 517.53,602.73 520.49,600.69 523.45,598.65 526.41,596.62 529.37,594.58 532.33,592.54 535.29,590.50 538.25,588.47 541.21,586.43 544.17,584.58 547.13,582.72 550.09,580.87 553.05,579.02 556.01,577.16 558.97,575.31 561.93,573.46 564.89,571.61 567.84,569.75 570.80,567.90 573.76,566.30 576.72,564.69 579.68,563.09 582.64,561.48 585.60,559.88 588.56,558.28 591.52,556.67 594.48,555.07 597.44,553.47 600.40,551.86 603.36,550.53 606.32,549.21 609.28,547.88 612.24,546.55 615.20,545.22 618.16,543.89 621.12,542.57 624.08,541.24 627.04,539.91 630.00,538.58 632.96,537.53 635.92,536.47 638.88,535.42 641.84,534.37 644.80,533.31 647.76,532.26 650.72,531.21 653.68,530.16 656.64,529.10 659.60,528.05 662.56,527.26 665.52,526.48 668.48,525.69 671.44,524.91 674.40,524.12 677.36,523.34 680.32,522.56 683.28,521.77 686.24,520.98 689.20,520.20 692.16,519.69 695.11,519.17 698.07,518.67 701.03,518.16 703.99,517.64 706.95,517.13 709.91,516.61 712.87,516.11 715.83,515.60 718.79,515.08 721.75,514.85 724.71,514.62 727.67,514.38 730.63,514.15 733.59,513.92 736.55,513.69 739.51,513.45 742.47,513.23 745.43,512.99 748.39,512.76 751.35,512.82 754.31,512.87 757.27,512.94 760.23,512.99 763.19,513.06 766.15,513.11 769.11,513.17 772.07,513.23 775.03,513.29 777.99,513.35 780.95,513.71 783.91,514.06 786.87,514.43 789.83,514.79 792.79,515.15 795.75,515.51 798.71,515.86 801.67,516.23 804.63,516.58 807.59,516.95 810.55,517.61 813.51,518.27 816.47,518.94 819.43,519.60 822.39,520.27 825.34,520.93 828.30,521.60 831.26,522.26 834.22,522.92 837.18,523.59 840.14,524.55 843.10,525.52 846.06,526.48 849.02,527.45 851.98,528.42 854.94,529.38 857.90,530.35 860.86,531.31 863.82,532.28 866.78,533.24 869.74,534.49 872.70,535.74 875.66,536.99 878.62,538.24 881.58,539.49 884.54,540.74 887.50,541.99 890.46,543.24 893.42,544.49 896.38,545.74 899.34,547.23 902.30,548.72 905.26,550.21 908.22,551.70 911.18,553.19 914.14,554.68 917.10,556.17 920.06,557.66 923.02,559.15 925.98,560.63 928.94,562.28 931.90,563.92 934.86,565.56 937.82,567.21 940.78,568.85 943.74,570.49 946.70,572.13 949.66,573.78 952.61,575.42 955.57,577.06 958.53,578.70 961.49,580.34 964.45,581.98 967.41,583.62 970.37,585.26 973.33,586.90 976.29,588.54 979.25,590.18 982.21,591.82 985.17,593.46 988.13,595.08 991.09,596.69 994.05,598.31 997.01,599.93 999.97,601.55 1002.93,603.17 1005.89,604.79 1008.85,606.41 1011.81,608.03 1014.77,609.64 1017.73,610.52 1020.69,611.40 1023.65,612.28 1026.61,613.16 1029.57,614.05 1032.53,614.93 1035.49,615.81 1038.45,616.69 1041.41,617.57 1044.37,618.45 1047.33,618.50 1050.29,618.56 1053.25,618.61 1056.21,618.67 1059.17,618.73 1062.13,618.78 1065.09,618.84 1068.05,618.89 1071.01,618.95 1073.97,619.00" fill="none" stroke="#2ca02c" stroke-width="3"/>
<line x1="137" y1="100" x2="173" y2="100" stroke="#2ca02c" stroke-width="4"/>
<text x="183" y="105" font-family="Arial" font-size="18" fill="black">Uz</text>
</svg>