<svg xmlns="http://www.w3.org/2000/svg" width="1200" height="820" viewBox="0 0 1200 820">
<rect width="100%" height="100%" fill="white"/>
<text x="600.0" y="36" text-anchor="middle" font-family="Arial" font-size="24" fill="black">Velocity components along x-centerline</text>
<line x1="115.00" y1="75" x2="115.00" y2="705" stroke="#dddddd" stroke-width="1"/>
<text x="115.00" y="737" text-anchor="middle" font-family="Arial" font-size="16" fill="black">-0.560</text>
<line x1="372.50" y1="75" x2="372.50" y2="705" stroke="#dddddd" stroke-width="1"/>
<text x="372.50" y="737" text-anchor="middle" font-family="Arial" font-size="16" fill="black">1.470</text>
<line x1="630.00" y1="75" x2="630.00" y2="705" stroke="#dddddd" stroke-width="1"/>
<text x="630.00" y="737" text-anchor="middle" font-family="Arial" font-size="16" fill="black">3.500</text>
<line x1="887.50" y1="75" x2="887.50" y2="705" stroke="#dddddd" stroke-width="1"/>
<text x="887.50" y="737" text-anchor="middle" font-family="Arial" font-size="16" fill="black">5.530</text>
<line x1="1145.00" y1="75" x2="1145.00" y2="705" stroke="#dddddd" stroke-width="1"/>
<text x="1145.00" y="737" text-anchor="middle" font-family="Arial" font-size="16" fill="black">7.560</text>
<line x1="115" y1="705.00" x2="1145" y2="705.00" stroke="#dddddd" stroke-width="1"/>
<text x="99" y="710.00" text-anchor="end" font-family="Arial" font-size="16" fill="black">-0.444</text>
<line x1="115" y1="547.50" x2="1145" y2="547.50" stroke="#dddddd" stroke-width="1"/>
<text x="99" y="552.50" text-anchor="end" font-family="Arial" font-size="16" fill="black">-0.222</text>
<line x1="115" y1="390.00" x2="1145" y2="390.00" stroke="#dddddd" stroke-width="1"/>
<text x="99" y="395.00" text-anchor="end" font-family="Arial" font-size="16" fill="black">6.55e-04</text>
<line x1="115" y1="232.50" x2="1145" y2="232.50" stroke="#dddddd" stroke-width="1"/>
<text x="99" y="237.50" text-anchor="end" font-family="Arial" font-size="16" fill="black">0.223</text>
<line x1="115" y1="75.00" x2="1145" y2="75.00" stroke="#dddddd" stroke-width="1"/>
<text x="99" y="80.00" text-anchor="end" font-family="Arial" font-size="16" fill="black">0.446</text>
<rect x="115" y="75" width="1030" height="630" fill="none" stroke="black" stroke-width="2"/>
<text x="630.0" y="785" text-anchor="middle" font-family="Arial" font-size="20" fill="black">x coordinate [m]</text>
<text x="34" y="390.0" transform="rotate(-90 34 390.0)" text-anchor="middle" font-family="Arial" font-size="20" fill="black">velocity [m/s]</text>
<polyline points="186.03,389.83 188.99,388.73 191.95,387.62 194.91,386.51 197.87,385.41 200.83,383.58 203.79,381.47 206.75,379.35 209.71,377.24 212.67,375.01 215.63,372.64 218.59,370.26 221.55,367.89 224.51,365.47 227.47,362.74 230.43,360.01 233.39,357.28 236.35,354.55 239.31,351.88 242.27,349.21 245.23,346.54 248.19,343.88 251.15,341.48 254.11,339.28 257.07,337.08 260.03,334.88 262.99,332.95 265.95,331.67 268.91,330.39 271.87,329.11 274.83,327.84 277.79,327.73 280.75,327.62 283.71,327.52 286.67,327.41 289.63,328.25 292.59,329.47 295.55,330.69 298.51,331.90 301.47,333.63 304.42,336.05 307.39,338.46 310.34,340.87 313.30,343.39 316.27,346.57 319.22,349.75 322.18,352.93 325.15,356.11 328.10,359.42 331.06,362.75 334.03,366.08 336.98,369.42 339.94,372.51 342.91,375.42 345.86,378.33 348.82,381.24 351.79,383.94 354.74,386.13 357.70,388.32 360.67,390.51 363.62,392.70 366.58,394.18 369.54,395.67 372.50,397.15 375.46,398.63 378.42,399.71 381.38,400.62 384.33,401.54 387.30,402.46 390.26,403.22 393.21,403.76 396.18,404.31 399.14,404.86 402.09,405.38 405.06,405.75 408.02,406.11 410.97,406.48 413.94,406.85 416.90,407.14 419.85,407.42 422.82,407.70 425.78,407.98 428.73,408.18 431.70,408.31 434.66,408.45 437.61,408.58 440.58,408.65 443.53,408.54 446.49,408.43 449.46,408.32 452.41,408.21 455.37,407.79 458.34,407.37 461.29,406.95 464.25,406.53 467.22,405.87 470.17,405.11 473.13,404.35 476.10,403.60 479.05,402.70 482.01,401.63 484.98,400.56 487.93,399.48 490.89,398.37 493.85,397.05 496.81,395.72 499.77,394.39 502.73,393.06 505.69,391.60 508.65,390.11 511.61,388.63 514.57,387.14 517.52,385.65 520.49,384.14 523.45,382.64 526.40,381.14 529.37,379.67 532.33,378.30 535.28,376.92 538.25,375.55 541.21,374.18 544.16,373.06 547.13,371.94 550.09,370.82 553.04,369.71 556.01,368.85 558.97,368.09 561.92,367.34 564.89,366.59 567.84,366.01 570.80,365.68 573.77,365.34 576.72,365.00 579.68,364.73 582.65,364.80 585.60,364.87 588.56,364.94 591.53,365.01 594.48,365.40 597.44,365.84 600.41,366.29 603.36,366.73 606.32,367.36 609.29,368.14 612.24,368.92 615.20,369.69 618.17,370.55 621.12,371.62 624.08,372.69 627.04,373.76 630.00,374.82 632.96,376.14 635.92,377.46 638.88,378.78 641.83,380.10 644.80,381.56 647.76,383.07 650.71,384.58 653.68,386.09 656.64,387.64 659.59,389.25 662.56,390.86 665.52,392.46 668.47,394.07 671.44,395.65 674.40,397.23 677.35,398.81 680.32,400.39 683.28,401.85 686.23,403.29 689.20,404.74 692.16,406.18 695.11,407.48 698.08,408.66 701.03,409.84 703.99,411.03 706.96,412.12 709.91,412.99 712.87,413.87 715.84,414.74 718.79,415.62 721.75,416.21 724.72,416.81 727.67,417.41 730.63,418.01 733.60,418.42 736.55,418.76 739.51,419.10 742.48,419.43 745.43,419.65 748.39,419.72 751.35,419.78 754.31,419.84 757.27,419.85 760.23,419.61 763.19,419.37 766.15,419.12 769.11,418.88 772.07,418.35 775.02,417.78 777.99,417.21 780.95,416.64 783.90,415.89 786.87,415.00 789.83,414.11 792.78,413.22 795.75,412.25 798.71,411.10 801.66,409.94 804.63,408.78 807.59,407.62 810.54,406.30 813.51,404.98 816.47,403.66 819.42,402.35 822.39,401.04 825.34,399.73 828.30,398.43 831.27,397.13 834.22,395.92 837.18,394.85 840.15,393.79 843.10,392.72 846.06,391.71 849.03,391.08 851.98,390.45 854.94,389.82 857.91,389.19 860.86,389.06 863.82,389.01 866.79,388.95 869.74,388.90 872.70,389.19 875.67,389.74 878.62,390.29 881.58,390.84 884.54,391.53 887.50,392.58 890.46,393.63 893.42,394.69 896.38,395.74 899.33,397.10 902.30,398.47 905.26,399.83 908.21,401.20 911.18,402.61 914.14,404.05 917.09,405.48 920.06,406.92 923.02,408.27 925.97,409.52 928.94,410.77 931.90,412.02 934.85,413.21 937.82,414.06 940.78,414.91 943.73,415.76 946.70,416.61 949.66,417.06 952.61,417.44 955.58,417.83 958.53,418.21 961.49,418.38 964.46,418.38 967.41,418.39 970.37,418.40 973.34,418.34 976.29,418.13 979.25,417.91 982.22,417.70 985.17,417.48 988.13,417.18 991.10,416.87 994.05,416.56 997.01,416.26 999.98,415.92 1002.93,415.56 1005.89,415.21 1008.85,414.86 1011.81,414.47 1014.77,414.04 1017.73,413.60 1020.69,413.17 1023.65,412.71 1026.61,412.10 1029.57,411.48 1032.52,410.86 1035.49,410.24 1038.45,409.34 1041.40,408.39 1044.37,407.43 1047.33,406.48 1050.28,405.35 1053.25,404.08 1056.21,402.80 1059.16,401.53 1062.13,400.42 1065.09,399.73 1068.04,399.04 1071.01,398.35 1073.97,397.66" fill="none" stroke="#1f77b4" stroke-width="3"/>
<line x1="137" y1="100" x2="173" y2="100" stroke="#1f77b4" stroke-width="4"/>
<text x="183" y="105" font-family="Arial" font-size="18" fill="black">Ux</text>
<polyline points="186.03,412.96 188.99,411.28 191.95,409.60 194.91,407.92 197.87,406.24 200.83,403.41 203.79,400.11 206.75,396.81 209.71,393.52 212.67,390.20 215.63,386.87 218.59,383.53 221.55,380.19 224.51,376.82 227.47,373.19 230.43,369.57 233.39,365.95 236.35,362.32 239.31,358.34 242.27,354.29 245.23,350.24 248.19,346.20 251.15,341.91 254.11,337.44 257.07,332.96 260.03,328.49 262.99,323.96 265.95,319.27 268.91,314.58 271.87,309.90 274.83,305.21 277.79,300.56 280.75,295.90 283.71,291.25 286.67,286.60 289.63,281.92 292.59,277.23 295.55,272.55 298.51,267.86 301.47,262.99 304.42,257.87 307.39,252.76 310.34,247.65 313.30,242.45 316.27,236.79 319.22,231.12 322.18,225.46 325.15,219.80 328.10,214.50 331.06,209.27 334.03,204.03 336.98,198.79 339.94,194.83 342.91,191.82 345.86,188.82 348.82,185.81 351.79,183.72 354.74,183.93 357.70,184.12 360.67,184.33 363.62,184.53 366.58,187.09 369.54,189.64 372.50,192.20 375.46,194.76 378.42,197.77 381.38,200.96 384.33,204.14 387.30,207.33 390.26,210.36 393.21,213.17 396.18,215.98 399.14,218.79 402.09,221.57 405.06,224.21 408.02,226.85 410.97,229.49 413.94,232.13 416.90,235.12 419.85,238.15 422.82,241.20 425.78,244.24 428.73,247.58 431.70,251.16 434.66,254.73 437.61,258.30 440.58,261.96 443.53,265.82 446.49,269.67 449.46,273.53 452.41,277.39 455.37,281.25 458.34,285.10 461.29,288.95 464.25,292.81 467.22,296.52 470.17,300.17 473.13,303.83 476.10,307.48 479.05,311.03 482.01,314.44 484.98,317.85 487.93,321.26 490.89,324.64 493.85,327.86 496.81,331.08 499.77,334.29 502.73,337.50 505.69,340.62 508.65,343.73 511.61,346.83 514.57,349.93 517.52,353.01 520.49,356.08 523.45,359.14 526.40,362.21 529.37,365.28 532.33,368.37 535.28,371.45 538.25,374.53 541.21,377.62 544.16,380.71 547.13,383.81 550.09,386.90 553.04,389.99 556.01,393.02 558.97,396.02 561.92,399.01 564.89,402.01 567.84,404.91 570.80,407.68 573.77,410.45 576.72,413.22 579.68,415.95 582.65,418.39 585.60,420.84 588.56,423.29 591.53,425.74 594.48,427.83 597.44,429.86 600.41,431.89 603.36,433.93 606.32,435.66 609.29,437.17 612.24,438.68 615.20,440.18 618.17,441.51 621.12,442.39 624.08,443.26 627.04,444.14 630.00,445.01 632.96,445.15 635.92,445.30 638.88,445.44 641.83,445.59 644.80,445.17 647.76,444.53 650.71,443.89 653.68,443.25 656.64,442.28 659.59,440.89 662.56,439.49 665.52,438.10 668.47,436.61 671.44,434.60 674.40,432.58 677.35,430.56 680.32,428.55 683.28,426.19 686.23,423.78 689.20,421.36 692.16,418.95 695.11,416.46 698.08,413.91 701.03,411.35 703.99,408.80 706.96,406.27 709.91,403.80 712.87,401.33 715.84,398.86 718.79,396.38 721.75,394.16 724.72,391.93 727.67,389.71 730.63,387.48 733.60,385.50 736.55,383.61 739.51,381.73 742.48,379.84 745.43,378.11 748.39,376.57 751.35,375.03 754.31,373.49 757.27,371.99 760.23,370.72 763.19,369.45 766.15,368.19 769.11,366.92 772.07,365.79 775.02,364.68 777.99,363.58 780.95,362.47 783.90,361.38 786.87,360.31 789.83,359.24 792.78,358.16 795.75,357.07 798.71,355.93 801.66,354.80 804.63,353.66 807.59,352.53 810.54,351.31 813.51,350.09 816.47,348.88 819.42,347.66 822.39,346.44 825.34,345.21 828.30,343.99 831.27,342.76 834.22,341.63 837.18,340.61 840.15,339.60 843.10,338.58 846.06,337.64 849.03,337.14 851.98,336.64 854.94,336.14 857.91,335.64 860.86,335.83 863.82,336.14 866.79,336.46 869.74,336.77 872.70,337.65 875.67,338.97 878.62,340.28 881.58,341.60 884.54,343.21 887.50,345.55 890.46,347.90 893.42,350.25 896.38,352.59 899.33,355.84 902.30,359.09 905.26,362.34 908.21,365.58 911.18,369.28 914.14,373.16 917.09,377.04 920.06,380.92 923.02,384.90 925.97,389.02 928.94,393.13 931.90,397.25 934.85,401.34 937.82,405.22 940.78,409.11 943.73,413.00 946.70,416.89 949.66,420.21 952.61,423.43 955.58,426.66 958.53,429.88 961.49,432.56 964.46,434.84 967.41,437.11 970.37,439.39 973.34,441.37 976.29,442.61 979.25,443.86 982.22,445.10 985.17,446.35 988.13,446.65 991.10,446.96 994.05,447.27 997.01,447.58 999.98,447.35 1002.93,446.90 1005.89,446.45 1008.85,446.00 1011.81,445.31 1014.77,444.29 1017.73,443.27 1020.69,442.25 1023.65,441.16 1026.61,439.70 1029.57,438.24 1032.52,436.78 1035.49,435.32 1038.45,433.49 1041.40,431.59 1044.37,429.70 1047.33,427.81 1050.28,425.55 1053.25,423.02 1056.21,420.49 1059.16,417.95 1062.13,415.72 1065.09,414.25 1068.04,412.78 1071.01,411.31 1073.97,409.83" fill="none" stroke="#d62728" stroke-width="3"/>
<line x1="137" y1="128" x2="173" y2="128" stroke="#d62728" stroke-width="4"/>
<text x="183" y="133" font-family="Arial" font-size="18" fill="black">Uy</text>
<polyline points="186.03,661.55 188.99,655.08 191.95,648.62 194.91,642.16 197.87,635.69 200.83,624.30 203.79,610.93 206.75,597.55 209.71,584.19 212.67,570.58 215.63,556.65 218.59,542.73 221.55,528.80 224.51,514.89 227.47,501.09 230.43,487.28 233.39,473.47 236.35,459.67 239.31,446.62 242.27,433.69 245.23,420.76 248.19,407.84 251.15,395.89 254.11,384.68 257.07,373.48 260.03,362.27 262.99,351.73 265.95,342.88 268.91,334.03 271.87,325.19 274.83,316.34 277.79,310.02 280.75,303.72 283.71,297.41 286.67,291.09 289.63,286.35 292.59,282.24 295.55,278.13 298.51,274.01 301.47,270.48 304.42,267.74 307.39,264.98 310.34,262.24 313.30,259.57 316.27,257.42 319.22,255.27 322.18,253.12 325.15,250.97 328.10,249.16 331.06,247.41 334.03,245.66 336.98,243.92 339.94,242.63 342.91,241.67 345.86,240.72 348.82,239.76 351.79,239.23 354.74,239.78 357.70,240.33 360.67,240.87 363.62,241.42 366.58,244.21 369.54,246.99 372.50,249.77 375.46,252.55 378.42,257.10 381.38,262.36 384.33,267.62 387.30,272.89 390.26,278.91 393.21,285.96 396.18,293.00 399.14,300.05 402.09,307.15 405.06,314.60 408.02,322.05 410.97,329.51 413.94,336.96 416.90,343.68 419.85,350.29 422.82,356.89 425.78,363.50 428.73,369.30 431.70,374.50 434.66,379.69 437.61,384.89 440.58,389.68 443.53,393.47 446.49,397.25 449.46,401.03 452.41,404.81 455.37,407.39 458.34,409.96 461.29,412.53 464.25,415.11 467.22,416.98 470.17,418.57 473.13,420.16 476.10,421.74 479.05,422.98 482.01,423.75 484.98,424.51 487.93,425.28 490.89,425.95 493.85,426.00 496.81,426.05 499.77,426.11 502.73,426.16 505.69,425.66 508.65,425.06 511.61,424.46 514.57,423.87 517.52,422.92 520.49,421.71 523.45,420.50 526.40,419.28 529.37,417.90 532.33,416.07 535.28,414.25 538.25,412.42 541.21,410.60 544.16,408.14 547.13,405.69 550.09,403.23 553.04,400.78 556.01,397.90 558.97,394.86 561.92,391.81 564.89,388.77 567.84,385.53 570.80,382.04 573.77,378.55 576.72,375.06 579.68,371.54 582.65,367.86 585.60,364.19 588.56,360.51 591.53,356.83 594.48,353.35 597.44,349.91 600.41,346.46 603.36,343.02 606.32,340.02 609.29,337.37 612.24,334.71 615.20,332.05 618.17,329.79 621.12,328.51 624.08,327.22 627.04,325.93 630.00,324.65 632.96,325.13 635.92,325.62 638.88,326.11 641.83,326.59 644.80,328.37 647.76,330.67 650.71,332.96 653.68,335.26 656.64,338.17 659.59,341.91 662.56,345.65 665.52,349.38 668.47,353.24 671.44,357.79 674.40,362.34 677.35,366.90 680.32,371.45 683.28,376.16 686.23,380.90 689.20,385.63 692.16,390.37 695.11,394.93 698.08,399.36 701.03,403.79 703.99,408.22 706.96,412.50 709.91,416.42 712.87,420.33 715.84,424.24 718.79,428.16 721.75,431.55 724.72,434.95 727.67,438.35 730.63,441.74 733.60,444.79 736.55,447.70 739.51,450.61 742.48,453.52 745.43,456.22 748.39,458.64 751.35,461.05 754.31,463.47 757.27,465.81 760.23,467.67 763.19,469.53 766.15,471.39 769.11,473.25 772.07,474.55 775.02,475.75 777.99,476.95 780.95,478.15 783.90,478.90 786.87,479.31 789.83,479.72 792.78,480.14 795.75,480.30 798.71,479.83 801.66,479.36 804.63,478.88 807.59,478.41 810.54,477.03 813.51,475.65 816.47,474.26 819.42,472.88 822.39,470.93 825.34,468.76 828.30,466.59 831.27,464.42 834.22,462.04 837.18,459.37 840.15,456.70 843.10,454.04 846.06,451.36 849.03,448.63 851.98,445.90 854.94,443.16 857.91,440.43 860.86,437.98 863.82,435.59 866.79,433.19 869.74,430.79 872.70,428.73 875.67,426.93 878.62,425.14 881.58,423.34 884.54,421.75 887.50,420.67 890.46,419.59 893.42,418.51 896.38,417.43 899.33,417.08 902.30,416.74 905.26,416.39 908.21,416.05 911.18,416.20 914.14,416.56 917.09,416.91 920.06,417.26 923.02,417.89 925.97,418.89 928.94,419.89 931.90,420.89 934.85,421.97 937.82,423.52 940.78,425.07 943.73,426.62 946.70,428.17 949.66,430.03 952.61,431.95 955.58,433.86 958.53,435.78 961.49,437.76 964.46,439.80 967.41,441.84 970.37,443.87 973.34,445.88 976.29,447.83 979.25,449.77 982.22,451.71 985.17,453.66 988.13,455.36 991.10,457.07 994.05,458.77 997.01,460.48 999.98,461.94 1002.93,463.30 1005.89,464.66 1008.85,466.03 1011.81,467.18 1014.77,468.05 1017.73,468.93 1020.69,469.81 1023.65,470.58 1026.61,470.73 1029.57,470.88 1032.52,471.03 1035.49,471.18 1038.45,470.35 1041.40,469.35 1044.37,468.34 1047.33,467.34 1050.28,465.21 1053.25,462.21 1056.21,459.22 1059.16,456.22 1062.13,453.48 1065.09,451.34 1068.04,449.20 1071.01,447.06 1073.97,444.93" fill="none" stroke="#2ca02c" stroke-width="3"/>
<line x1="137" y1="156" x2="173" y2="156" stroke="#2ca02c" stroke-width="4"/>
<text x="183" y="161" font-family="Arial" font-size="18" fill="black">Uz</text>
<polyline points="186.03,118.45 188.99,125.00 191.95,131.56 194.91,138.11 197.87,144.67 200.83,156.09 203.79,169.45 206.75,182.81 209.71,196.18 212.67,209.54 215.63,222.89 218.59,236.24 221.55,249.58 224.51,262.62 227.47,273.78 230.43,284.94 233.39,296.10 236.35,307.26 239.31,311.71 242.27,315.04 245.23,318.37 248.19,321.70 251.15,319.58 254.11,313.37 257.07,307.17 260.03,300.96 262.99,294.18 265.95,285.96 268.91,277.74 271.87,269.51 274.83,261.29 277.79,254.34 280.75,247.37 283.71,240.41 286.67,233.45 289.63,227.61 292.59,222.23 295.55,216.84 298.51,211.45 301.47,206.34 304.42,201.59 307.39,196.84 310.34,192.10 313.30,187.32 316.27,182.33 319.22,177.33 322.18,172.34 325.15,167.35 328.10,162.55 331.06,157.76 334.03,152.98 336.98,148.21 339.94,144.55 342.91,141.73 345.86,138.91 348.82,136.09 351.79,134.22 354.74,134.72 357.70,135.23 360.67,135.74 363.62,136.24 366.58,139.91 369.54,143.58 372.50,147.24 375.46,150.90 378.42,155.89 381.38,161.42 384.33,166.94 387.30,172.46 390.26,178.13 393.21,184.00 396.18,189.86 399.14,195.72 402.09,201.49 405.06,206.74 408.02,211.98 410.97,217.23 413.94,222.47 416.90,227.08 419.85,231.57 422.82,236.07 425.78,240.57 428.73,244.77 431.70,248.75 434.66,252.74 437.61,256.72 440.58,260.61 443.53,264.23 446.49,267.86 449.46,271.49 452.41,275.11 455.37,278.44 458.34,281.76 461.29,285.08 464.25,288.41 467.22,291.55 470.17,294.61 473.13,297.67 476.10,300.73 479.05,303.72 482.01,306.60 484.98,309.49 487.93,312.38 490.89,315.25 493.85,318.07 496.81,320.89 499.77,323.71 502.73,326.53 505.69,329.34 508.65,332.15 511.61,334.96 514.57,337.77 517.52,340.55 520.49,343.33 523.45,346.10 526.40,348.87 529.37,351.57 532.33,354.06 535.28,356.56 538.25,359.06 541.21,361.55 544.16,362.89 547.13,364.23 550.09,365.57 553.04,366.91 556.01,366.51 558.97,365.40 561.92,364.30 564.89,363.19 567.84,361.31 570.80,358.39 573.77,355.47 576.72,352.55 579.68,349.55 582.65,346.02 585.60,342.49 588.56,338.97 591.53,335.44 594.48,332.02 597.44,328.62 600.41,325.22 603.36,321.83 606.32,318.86 609.29,316.22 612.24,313.58 615.20,310.95 618.17,308.70 621.12,307.41 624.08,306.13 627.04,304.85 630.00,303.57 632.96,304.03 635.92,304.51 638.88,304.98 641.83,305.45 644.80,307.18 647.76,309.43 650.71,311.68 653.68,313.92 656.64,316.73 659.59,320.28 662.56,323.84 665.52,327.39 668.47,331.00 671.44,334.92 674.40,338.84 677.35,342.76 680.32,346.68 683.28,349.48 686.23,352.10 689.20,354.72 692.16,357.34 695.11,358.17 698.08,357.66 701.03,357.15 703.99,356.64 706.96,355.51 709.91,352.82 712.87,350.14 715.84,347.45 718.79,344.76 721.75,341.60 724.72,338.44 727.67,335.27 730.63,332.11 733.60,329.09 736.55,326.13 739.51,323.17 742.48,320.21 745.43,317.44 748.39,314.94 751.35,312.43 754.31,309.92 757.27,307.50 760.23,305.58 763.19,303.66 766.15,301.74 769.11,299.82 772.07,298.48 775.02,297.24 777.99,296.00 780.95,294.75 783.90,293.94 786.87,293.44 789.83,292.94 792.78,292.45 795.75,292.16 798.71,292.41 801.66,292.66 804.63,292.91 807.59,293.16 810.54,294.07 813.51,294.99 816.47,295.90 819.42,296.81 822.39,298.05 825.34,299.41 828.30,300.77 831.27,302.14 834.22,303.58 837.18,305.14 840.15,306.70 843.10,308.25 846.06,309.82 849.03,311.42 851.98,313.03 854.94,314.64 857.91,316.25 860.86,317.99 863.82,319.74 866.79,321.50 869.74,323.26 872.70,325.22 875.67,327.33 878.62,329.44 881.58,331.55 884.54,333.77 887.50,336.24 890.46,338.72 893.42,341.20 896.38,343.68 899.33,346.03 902.30,348.38 905.26,350.74 908.21,353.09 911.18,354.40 914.14,355.29 917.09,356.18 920.06,357.07 923.02,356.87 925.97,355.22 928.94,353.57 931.90,351.92 934.85,350.05 937.82,346.90 940.78,343.76 943.73,340.61 946.70,337.47 949.66,334.18 952.61,330.88 955.58,327.57 958.53,324.26 961.49,321.24 964.46,318.43 967.41,315.62 970.37,312.81 973.34,310.21 976.29,308.13 979.25,306.04 982.22,303.96 985.17,301.88 988.13,300.54 991.10,299.19 994.05,297.84 997.01,296.49 999.98,295.61 1002.93,294.92 1005.89,294.24 1008.85,293.55 1011.81,293.14 1014.77,293.09 1017.73,293.05 1020.69,293.01 1023.65,293.07 1026.61,293.81 1029.57,294.55 1032.52,295.29 1035.49,296.02 1038.45,297.76 1041.40,299.67 1044.37,301.58 1047.33,303.49 1050.28,306.55 1053.25,310.47 1056.21,314.38 1059.16,318.30 1062.13,321.85 1065.09,324.44 1068.04,327.03 1071.01,329.62 1073.97,332.21" fill="none" stroke="#111111" stroke-width="3"/>
<line x1="137" y1="184" x2="173" y2="184" stroke="#111111" stroke-width="4"/>
<text x="183" y="189" font-family="Arial" font-size="18" fill="black">Umag</text>
</svg>