<svg xmlns="http://www.w3.org/2000/svg" width="1200" height="820" viewBox="0 0 1200 820">
<rect width="100%" height="100%" fill="white"/>
<text x="600.0" y="36" text-anchor="middle" font-family="Arial" font-size="24" fill="black">Velocity components along z-centerline</text>
<line x1="115.00" y1="75" x2="115.00" y2="705" stroke="#dddddd" stroke-width="1"/>
<text x="115.00" y="737" text-anchor="middle" font-family="Arial" font-size="16" fill="black">-0.240</text>
<line x1="372.50" y1="75" x2="372.50" y2="705" stroke="#dddddd" stroke-width="1"/>
<text x="372.50" y="737" text-anchor="middle" font-family="Arial" font-size="16" fill="black">0.630</text>
<line x1="630.00" y1="75" x2="630.00" y2="705" stroke="#dddddd" stroke-width="1"/>
<text x="630.00" y="737" text-anchor="middle" font-family="Arial" font-size="16" fill="black">1.500</text>
<line x1="887.50" y1="75" x2="887.50" y2="705" stroke="#dddddd" stroke-width="1"/>
<text x="887.50" y="737" text-anchor="middle" font-family="Arial" font-size="16" fill="black">2.370</text>
<line x1="1145.00" y1="75" x2="1145.00" y2="705" stroke="#dddddd" stroke-width="1"/>
<text x="1145.00" y="737" text-anchor="middle" font-family="Arial" font-size="16" fill="black">3.240</text>
<line x1="115" y1="705.00" x2="1145" y2="705.00" stroke="#dddddd" stroke-width="1"/>
<text x="99" y="710.00" text-anchor="end" font-family="Arial" font-size="16" fill="black">-0.219</text>
<line x1="115" y1="547.50" x2="1145" y2="547.50" stroke="#dddddd" stroke-width="1"/>
<text x="99" y="552.50" text-anchor="end" font-family="Arial" font-size="16" fill="black">-0.030</text>
<line x1="115" y1="390.00" x2="1145" y2="390.00" stroke="#dddddd" stroke-width="1"/>
<text x="99" y="395.00" text-anchor="end" font-family="Arial" font-size="16" fill="black">0.159</text>
<line x1="115" y1="232.50" x2="1145" y2="232.50" stroke="#dddddd" stroke-width="1"/>
<text x="99" y="237.50" text-anchor="end" font-family="Arial" font-size="16" fill="black">0.348</text>
<line x1="115" y1="75.00" x2="1145" y2="75.00" stroke="#dddddd" stroke-width="1"/>
<text x="99" y="80.00" text-anchor="end" font-family="Arial" font-size="16" fill="black">0.537</text>
<rect x="115" y="75" width="1030" height="630" fill="none" stroke="black" stroke-width="2"/>
<text x="630.0" y="785" text-anchor="middle" font-family="Arial" font-size="20" fill="black">z coordinate [m]</text>
<text x="34" y="390.0" transform="rotate(-90 34 390.0)" text-anchor="middle" font-family="Arial" font-size="20" fill="black">velocity [m/s]</text>
<polyline points="186.03,517.66 188.99,517.49 191.95,517.32 194.91,517.15 197.87,516.98 200.83,516.81 203.79,516.64 206.75,516.47 209.71,516.30 212.67,516.13 215.63,515.97 218.59,515.73 221.55,515.50 224.51,515.27 227.47,515.04 230.43,514.81 233.39,514.58 236.35,514.35 239.31,514.12 242.27,513.89 245.23,513.66 248.19,513.59 251.15,513.52 254.11,513.45 257.07,513.38 260.03,513.31 262.99,513.24 265.95,513.17 268.91,513.10 271.87,513.03 274.83,512.96 277.79,513.01 280.75,513.06 283.71,513.11 286.67,513.16 289.63,513.21 292.59,513.26 295.55,513.31 298.51,513.36 301.47,513.41 304.43,513.46 307.39,514.48 310.34,515.50 313.30,516.52 316.26,517.53 319.22,518.55 322.18,519.57 325.14,520.59 328.10,521.61 331.06,522.63 334.02,523.65 336.98,526.50 339.94,529.35 342.90,532.20 345.86,535.05 348.82,537.90 351.78,540.75 354.74,543.60 357.70,546.45 360.66,549.30 363.62,552.15 366.58,554.87 369.54,557.60 372.50,560.32 375.46,563.05 378.42,565.77 381.38,568.50 384.34,571.22 387.30,573.94 390.26,576.67 393.22,579.39 396.18,580.22 399.14,581.04 402.10,581.86 405.06,582.68 408.02,583.50 410.98,584.33 413.94,585.15 416.90,585.97 419.86,586.79 422.82,587.62 425.78,587.14 428.74,586.67 431.70,586.20 434.66,585.73 437.61,585.26 440.57,584.79 443.53,584.31 446.49,583.84 449.45,583.37 452.41,582.90 455.37,581.78 458.33,580.66 461.29,579.54 464.25,578.42 467.21,577.30 470.17,576.18 473.13,575.06 476.09,573.94 479.05,572.82 482.01,571.70 484.97,570.31 487.93,568.92 490.89,567.54 493.85,566.15 496.81,564.76 499.77,563.37 502.73,561.98 505.69,560.60 508.65,559.21 511.61,557.82 514.57,556.37 517.53,554.92 520.49,553.46 523.45,552.01 526.41,550.56 529.37,549.11 532.33,547.65 535.29,546.20 538.25,544.75 541.21,543.29 544.17,541.88 547.13,540.46 550.09,539.04 553.05,537.62 556.01,536.20 558.97,534.79 561.93,533.37 564.89,531.95 567.84,530.53 570.80,529.12 573.76,527.79 576.72,526.47 579.68,525.15 582.64,523.83 585.60,522.50 588.56,521.18 591.52,519.86 594.48,518.54 597.44,517.21 600.40,515.89 603.36,514.71 606.32,513.52 609.28,512.33 612.24,511.15 615.20,509.96 618.16,508.78 621.12,507.59 624.08,506.40 627.04,505.22 630.00,504.03 632.96,503.00 635.92,501.97 638.88,500.94 641.84,499.91 644.80,498.88 647.76,497.85 650.72,496.82 653.68,495.79 656.64,494.76 659.60,493.73 662.56,492.86 665.52,491.99 668.48,491.13 671.44,490.26 674.40,489.39 677.36,488.52 680.32,487.66 683.28,486.79 686.24,485.92 689.20,485.06 692.16,484.36 695.11,483.66 698.07,482.96 701.03,482.26 703.99,481.56 706.95,480.86 709.91,480.16 712.87,479.46 715.83,478.76 718.79,478.06 721.75,477.53 724.71,477.00 727.67,476.47 730.63,475.94 733.59,475.41 736.55,474.88 739.51,474.35 742.47,473.82 745.43,473.29 748.39,472.76 751.35,472.39 754.31,472.03 757.27,471.66 760.23,471.30 763.19,470.93 766.15,470.56 769.11,470.20 772.07,469.83 775.03,469.47 777.99,469.10 780.95,468.90 783.91,468.70 786.87,468.49 789.83,468.29 792.79,468.08 795.75,467.88 798.71,467.68 801.67,467.47 804.63,467.27 807.59,467.07 810.55,467.02 813.51,466.98 816.47,466.94 819.43,466.89 822.39,466.85 825.34,466.81 828.30,466.76 831.26,466.72 834.22,466.68 837.18,466.63 840.14,466.75 843.10,466.88 846.06,467.00 849.02,467.12 851.98,467.25 854.94,467.37 857.90,467.49 860.86,467.62 863.82,467.74 866.78,467.86 869.74,468.17 872.70,468.47 875.66,468.78 878.62,469.09 881.58,469.39 884.54,469.70 887.50,470.00 890.46,470.31 893.42,470.62 896.38,470.92 899.34,471.44 902.30,471.96 905.26,472.48 908.22,472.99 911.18,473.51 914.14,474.03 917.10,474.55 920.06,475.06 923.02,475.58 925.98,476.10 928.94,476.87 931.90,477.64 934.86,478.41 937.82,479.18 940.78,479.94 943.74,480.71 946.70,481.48 949.66,482.25 952.61,483.02 955.57,483.79 958.53,484.86 961.49,485.92 964.45,486.99 967.41,488.06 970.37,489.12 973.33,490.19 976.29,491.26 979.25,492.32 982.21,493.39 985.17,494.46 988.13,495.90 991.09,497.34 994.05,498.78 997.01,500.23 999.97,501.67 1002.93,503.11 1005.89,504.55 1008.85,506.00 1011.81,507.44 1014.77,508.88 1017.73,510.95 1020.69,513.02 1023.65,515.10 1026.61,517.17 1029.57,519.24 1032.53,521.31 1035.49,523.38 1038.45,525.45 1041.41,527.53 1044.37,529.60 1047.33,530.84 1050.29,532.08 1053.25,533.33 1056.21,534.57 1059.17,535.82 1062.13,537.06 1065.09,538.30 1068.05,539.55 1071.01,540.79 1073.97,542.03" fill="none" stroke="#1f77b4" stroke-width="3"/>
<line x1="137" y1="100" x2="173" y2="100" stroke="#1f77b4" stroke-width="4"/>
<text x="183" y="105" font-family="Arial" font-size="18" fill="black">Ux</text>
<polyline points="186.03,528.91 188.99,529.19 191.95,529.46 194.91,529.74 197.87,530.02 200.83,530.29 203.79,530.57 206.75,530.85 209.71,531.12 212.67,531.40 215.63,531.68 218.59,532.17 221.55,532.65 224.51,533.14 227.47,533.63 230.43,534.12 233.39,534.61 236.35,535.10 239.31,535.59 242.27,536.07 245.23,536.56 248.19,536.92 251.15,537.28 254.11,537.64 257.07,538.00 260.03,538.36 262.99,538.71 265.95,539.07 268.91,539.43 271.87,539.79 274.83,540.15 277.79,540.42 280.75,540.70 283.71,540.98 286.67,541.25 289.63,541.53 292.59,541.81 295.55,542.08 298.51,542.36 301.47,542.64 304.43,542.91 307.39,543.65 310.34,544.38 313.30,545.12 316.26,545.85 319.22,546.58 322.18,547.32 325.14,548.05 328.10,548.79 331.06,549.52 334.02,550.25 336.98,551.99 339.94,553.73 342.90,555.47 345.86,557.21 348.82,558.94 351.78,560.68 354.74,562.42 357.70,564.16 360.66,565.90 363.62,567.64 366.58,569.41 369.54,571.19 372.50,572.96 375.46,574.74 378.42,576.51 381.38,578.29 384.34,580.06 387.30,581.84 390.26,583.61 393.22,585.39 396.18,586.32 399.14,587.25 402.10,588.18 405.06,589.11 408.02,590.04 410.98,590.97 413.94,591.90 416.90,592.83 419.86,593.76 422.82,594.69 425.78,595.08 428.74,595.46 431.70,595.85 434.66,596.23 437.61,596.62 440.57,597.00 443.53,597.39 446.49,597.77 449.45,598.16 452.41,598.54 455.37,598.62 458.33,598.69 461.29,598.76 464.25,598.83 467.21,598.90 470.17,598.97 473.13,599.04 476.09,599.11 479.05,599.18 482.01,599.25 484.97,599.13 487.93,599.01 490.89,598.89 493.85,598.78 496.81,598.66 499.77,598.54 502.73,598.42 505.69,598.30 508.65,598.18 511.61,598.06 514.57,597.84 517.53,597.61 520.49,597.39 523.45,597.16 526.41,596.93 529.37,596.71 532.33,596.48 535.29,596.26 538.25,596.03 541.21,595.81 544.17,595.53 547.13,595.24 550.09,594.96 553.05,594.68 556.01,594.40 558.97,594.12 561.93,593.84 564.89,593.56 567.84,593.27 570.80,592.99 573.76,592.68 576.72,592.37 579.68,592.06 582.64,591.75 585.60,591.44 588.56,591.13 591.52,590.82 594.48,590.51 597.44,590.20 600.40,589.89 603.36,589.56 606.32,589.23 609.28,588.90 612.24,588.57 615.20,588.24 618.16,587.91 621.12,587.58 624.08,587.25 627.04,586.92 630.00,586.59 632.96,586.24 635.92,585.88 638.88,585.53 641.84,585.17 644.80,584.82 647.76,584.46 650.72,584.11 653.68,583.75 656.64,583.40 659.60,583.05 662.56,582.66 665.52,582.27 668.48,581.88 671.44,581.49 674.40,581.10 677.36,580.71 680.32,580.32 683.28,579.93 686.24,579.54 689.20,579.15 692.16,578.71 695.11,578.27 698.07,577.83 701.03,577.40 703.99,576.96 706.95,576.52 709.91,576.09 712.87,575.65 715.83,575.21 718.79,574.77 721.75,574.28 724.71,573.79 727.67,573.31 730.63,572.82 733.59,572.33 736.55,571.84 739.51,571.35 742.47,570.86 745.43,570.37 748.39,569.88 751.35,569.34 754.31,568.81 757.27,568.28 760.23,567.74 763.19,567.21 766.15,566.67 769.11,566.14 772.07,565.60 775.03,565.07 777.99,564.53 780.95,563.98 783.91,563.42 786.87,562.86 789.83,562.31 792.79,561.75 795.75,561.19 798.71,560.63 801.67,560.08 804.63,559.52 807.59,558.96 810.55,558.42 813.51,557.88 816.47,557.34 819.43,556.80 822.39,556.26 825.34,555.73 828.30,555.19 831.26,554.65 834.22,554.11 837.18,553.57 840.14,553.10 843.10,552.64 846.06,552.17 849.02,551.71 851.98,551.24 854.94,550.78 857.90,550.31 860.86,549.85 863.82,549.38 866.78,548.91 869.74,548.60 872.70,548.29 875.66,547.98 878.62,547.66 881.58,547.35 884.54,547.04 887.50,546.72 890.46,546.41 893.42,546.10 896.38,545.78 899.34,545.73 902.30,545.67 905.26,545.61 908.22,545.55 911.18,545.49 914.14,545.44 917.10,545.38 920.06,545.32 923.02,545.26 925.98,545.21 928.94,545.56 931.90,545.91 934.86,546.26 937.82,546.62 940.78,546.97 943.74,547.32 946.70,547.67 949.66,548.03 952.61,548.38 955.57,548.73 958.53,549.77 961.49,550.80 964.45,551.84 967.41,552.87 970.37,553.91 973.33,554.95 976.29,555.98 979.25,557.02 982.21,558.05 985.17,559.09 988.13,561.36 991.09,563.62 994.05,565.89 997.01,568.16 999.97,570.42 1002.93,572.69 1005.89,574.96 1008.85,577.22 1011.81,579.49 1014.77,581.76 1017.73,586.51 1020.69,591.27 1023.65,596.03 1026.61,600.78 1029.57,605.54 1032.53,610.30 1035.49,615.05 1038.45,619.80 1041.41,624.56 1044.37,629.32 1047.33,632.54 1050.29,635.77 1053.25,638.99 1056.21,642.21 1059.17,645.43 1062.13,648.65 1065.09,651.88 1068.05,655.11 1071.01,658.33 1073.97,661.55" fill="none" stroke="#d62728" stroke-width="3"/>
<line x1="137" y1="128" x2="173" y2="128" stroke="#d62728" stroke-width="4"/>
<text x="183" y="133" font-family="Arial" font-size="18" fill="black">Uy</text>
<polyline points="186.03,118.52 188.99,120.62 191.95,122.71 194.91,124.80 197.87,126.89 200.83,128.98 203.79,131.08 206.75,133.17 209.71,135.26 212.67,137.35 215.63,139.44 218.59,144.91 221.55,150.38 224.51,155.84 227.47,161.31 230.43,166.78 233.39,172.24 236.35,177.71 239.31,183.18 242.27,188.65 245.23,194.12 248.19,201.54 251.15,208.97 254.11,216.40 257.07,223.83 260.03,231.25 262.99,238.68 265.95,246.11 268.91,253.54 271.87,260.97 274.83,268.40 277.79,277.02 280.75,285.65 283.71,294.28 286.67,302.91 289.63,311.53 292.59,320.16 295.55,328.79 298.51,337.42 301.47,346.05 304.43,354.68 307.39,364.06 310.34,373.44 313.30,382.82 316.26,392.21 319.22,401.59 322.18,410.97 325.14,420.36 328.10,429.73 331.06,439.12 334.02,448.50 336.98,455.40 339.94,462.29 342.90,469.19 345.86,476.08 348.82,482.98 351.78,489.88 354.74,496.77 357.70,503.67 360.66,510.56 363.62,517.46 366.58,519.77 369.54,522.08 372.50,524.39 375.46,526.71 378.42,529.02 381.38,531.33 384.34,533.64 387.30,535.95 390.26,538.27 393.22,540.58 396.18,540.49 399.14,540.41 402.10,540.33 405.06,540.25 408.02,540.16 410.98,540.08 413.94,540.00 416.90,539.91 419.86,539.83 422.82,539.75 425.78,538.74 428.74,537.73 431.70,536.72 434.66,535.72 437.61,534.71 440.57,533.70 443.53,532.69 446.49,531.68 449.45,530.67 452.41,529.67 455.37,528.14 458.33,526.62 461.29,525.09 464.25,523.57 467.21,522.05 470.17,520.52 473.13,519.00 476.09,517.47 479.05,515.95 482.01,514.43 484.97,512.79 487.93,511.15 490.89,509.51 493.85,507.87 496.81,506.23 499.77,504.59 502.73,502.95 505.69,501.31 508.65,499.67 511.61,498.03 514.57,496.45 517.53,494.86 520.49,493.28 523.45,491.70 526.41,490.11 529.37,488.53 532.33,486.95 535.29,485.36 538.25,483.78 541.21,482.20 544.17,480.76 547.13,479.32 550.09,477.88 553.05,476.44 556.01,475.00 558.97,473.56 561.93,472.12 564.89,470.68 567.84,469.24 570.80,467.80 573.76,466.55 576.72,465.30 579.68,464.06 582.64,462.81 585.60,461.57 588.56,460.32 591.52,459.07 594.48,457.83 597.44,456.58 600.40,455.34 603.36,454.30 606.32,453.27 609.28,452.24 612.24,451.21 615.20,450.17 618.16,449.14 621.12,448.11 624.08,447.08 627.04,446.05 630.00,445.01 632.96,444.19 635.92,443.38 638.88,442.56 641.84,441.74 644.80,440.92 647.76,440.10 650.72,439.28 653.68,438.47 656.64,437.64 659.60,436.83 662.56,436.22 665.52,435.61 668.48,434.99 671.44,434.39 674.40,433.78 677.36,433.17 680.32,432.56 683.28,431.95 686.24,431.34 689.20,430.73 692.16,430.33 695.11,429.93 698.07,429.54 701.03,429.14 703.99,428.74 706.95,428.34 709.91,427.94 712.87,427.55 715.83,427.15 718.79,426.75 721.75,426.57 724.71,426.39 727.67,426.21 730.63,426.03 733.59,425.85 736.55,425.67 739.51,425.49 742.47,425.31 745.43,425.13 748.39,424.95 751.35,425.00 754.31,425.04 757.27,425.09 760.23,425.13 763.19,425.18 766.15,425.22 769.11,425.27 772.07,425.31 775.03,425.36 777.99,425.40 780.95,425.69 783.91,425.96 786.87,426.24 789.83,426.53 792.79,426.80 795.75,427.09 798.71,427.36 801.67,427.64 804.63,427.92 807.59,428.20 810.55,428.72 813.51,429.23 816.47,429.75 819.43,430.27 822.39,430.78 825.34,431.30 828.30,431.81 831.26,432.33 834.22,432.85 837.18,433.36 840.14,434.11 843.10,434.86 846.06,435.61 849.02,436.36 851.98,437.12 854.94,437.87 857.90,438.62 860.86,439.37 863.82,440.12 866.78,440.87 869.74,441.84 872.70,442.81 875.66,443.78 878.62,444.75 881.58,445.72 884.54,446.69 887.50,447.66 890.46,448.64 893.42,449.61 896.38,450.58 899.34,451.74 902.30,452.89 905.26,454.05 908.22,455.21 911.18,456.37 914.14,457.52 917.10,458.68 920.06,459.84 923.02,461.00 925.98,462.15 928.94,463.43 931.90,464.71 934.86,465.98 937.82,467.26 940.78,468.54 943.74,469.81 946.70,471.09 949.66,472.36 952.61,473.64 955.57,474.92 958.53,476.19 961.49,477.47 964.45,478.74 967.41,480.01 970.37,481.29 973.33,482.56 976.29,483.84 979.25,485.11 982.21,486.39 985.17,487.66 988.13,488.92 991.09,490.18 994.05,491.43 997.01,492.69 999.97,493.95 1002.93,495.21 1005.89,496.46 1008.85,497.72 1011.81,498.98 1014.77,500.24 1017.73,500.92 1020.69,501.61 1023.65,502.29 1026.61,502.97 1029.57,503.66 1032.53,504.34 1035.49,505.03 1038.45,505.71 1041.41,506.39 1044.37,507.08 1047.33,507.12 1050.29,507.17 1053.25,507.21 1056.21,507.25 1059.17,507.30 1062.13,507.34 1065.09,507.38 1068.05,507.43 1071.01,507.47 1073.97,507.51" fill="none" stroke="#2ca02c" stroke-width="3"/>
<line x1="137" y1="156" x2="173" y2="156" stroke="#2ca02c" stroke-width="4"/>
<text x="183" y="161" font-family="Arial" font-size="18" fill="black">Uz</text>
<polyline points="186.03,118.45 188.99,120.53 191.95,122.61 194.91,124.69 197.87,126.78 200.83,128.86 203.79,130.95 206.75,133.03 209.71,135.11 212.67,137.19 215.63,139.27 218.59,144.72 221.55,150.16 224.51,155.60 227.47,161.05 230.43,166.48 233.39,171.93 236.35,177.36 239.31,182.81 242.27,188.26 245.23,193.69 248.19,201.09 251.15,208.47 254.11,215.87 257.07,223.26 260.03,230.64 262.99,238.04 265.95,245.43 268.91,252.82 271.87,260.21 274.83,267.60 277.79,276.16 280.75,284.71 283.71,293.27 286.67,301.83 289.63,310.39 292.59,318.95 295.55,327.51 298.51,336.07 301.47,344.63 304.43,353.19 307.39,362.22 310.34,371.24 313.30,380.27 316.26,389.28 319.22,398.31 322.18,407.34 325.14,416.36 328.10,425.38 331.06,434.40 334.02,443.43 336.98,445.90 339.94,448.36 342.90,450.83 345.86,453.30 348.82,455.76 351.78,458.23 354.74,460.70 357.70,463.17 360.66,465.63 363.62,468.10 366.58,464.85 369.54,461.60 372.50,458.35 375.46,455.10 378.42,451.85 381.38,448.60 384.34,445.35 387.30,442.10 390.26,438.86 393.22,435.60 396.18,434.40 399.14,433.20 402.10,432.00 405.06,430.79 408.02,429.59 410.98,428.39 413.94,427.18 416.90,425.99 419.86,424.78 422.82,423.58 425.78,423.71 428.74,423.85 431.70,423.99 434.66,424.13 437.61,424.26 440.57,424.40 443.53,424.54 446.49,424.67 449.45,424.81 452.41,424.95 455.37,425.54 458.33,426.12 461.29,426.71 464.25,427.29 467.21,427.88 470.17,428.47 473.13,429.05 476.09,429.64 479.05,430.22 482.01,430.82 484.97,431.27 487.93,431.74 490.89,432.20 493.85,432.66 496.81,433.12 499.77,433.59 502.73,434.05 505.69,434.51 508.65,434.97 511.61,435.44 514.57,435.51 517.53,435.59 520.49,435.66 523.45,435.74 526.41,435.81 529.37,435.89 532.33,435.96 535.29,436.04 538.25,436.11 541.21,436.19 544.17,435.86 547.13,435.54 550.09,435.21 553.05,434.89 556.01,434.56 558.97,434.24 561.93,433.91 564.89,433.59 567.84,433.26 570.80,432.94 573.76,432.35 576.72,431.76 579.68,431.17 582.64,430.59 585.60,430.00 588.56,429.41 591.52,428.83 594.48,428.23 597.44,427.65 600.40,427.06 603.36,426.38 606.32,425.69 609.28,425.00 612.24,424.32 615.20,423.64 618.16,422.96 621.12,422.26 624.08,421.58 627.04,420.90 630.00,420.22 632.96,419.56 635.92,418.91 638.88,418.25 641.84,417.60 644.80,416.94 647.76,416.29 650.72,415.64 653.68,414.99 656.64,414.34 659.60,413.68 662.56,413.15 665.52,412.61 668.48,412.07 671.44,411.53 674.40,411.00 677.36,410.47 680.32,409.92 683.28,409.39 686.24,408.85 689.20,408.32 692.16,407.95 695.11,407.59 698.07,407.23 701.03,406.87 703.99,406.50 706.95,406.14 709.91,405.78 712.87,405.41 715.83,405.05 718.79,404.69 721.75,404.54 724.71,404.39 727.67,404.24 730.63,404.09 733.59,403.93 736.55,403.78 739.51,403.63 742.47,403.48 745.43,403.33 748.39,403.17 751.35,403.26 754.31,403.34 757.27,403.41 760.23,403.50 763.19,403.58 766.15,403.66 769.11,403.74 772.07,403.82 775.03,403.90 777.99,403.98 780.95,404.30 783.91,404.62 786.87,404.95 789.83,405.26 792.79,405.59 795.75,405.91 798.71,406.23 801.67,406.55 804.63,406.87 807.59,407.19 810.55,407.75 813.51,408.32 816.47,408.88 819.43,409.44 822.39,410.00 825.34,410.57 828.30,411.12 831.26,411.69 834.22,412.25 837.18,412.81 840.14,413.61 843.10,414.40 846.06,415.20 849.02,416.00 851.98,416.80 854.94,417.59 857.90,418.39 860.86,419.19 863.82,419.99 866.78,420.78 869.74,421.81 872.70,422.83 875.66,423.85 878.62,424.87 881.58,425.89 884.54,426.91 887.50,427.93 890.46,428.95 893.42,429.97 896.38,430.99 899.34,432.20 902.30,433.40 905.26,434.61 908.22,435.82 911.18,437.03 914.14,438.23 917.10,439.44 920.06,440.65 923.02,441.86 925.98,443.07 928.94,444.34 931.90,445.61 934.86,446.88 937.82,448.15 940.78,449.42 943.74,450.69 946.70,451.97 949.66,453.24 952.61,454.51 955.57,455.78 958.53,456.67 961.49,457.56 964.45,458.45 967.41,459.34 970.37,460.23 973.33,461.12 976.29,462.01 979.25,462.90 982.21,463.79 985.17,464.68 988.13,463.97 991.09,463.27 994.05,462.57 997.01,461.87 999.97,461.17 1002.93,460.46 1005.89,459.76 1008.85,459.06 1011.81,458.36 1014.77,457.65 1017.73,453.31 1020.69,448.96 1023.65,444.62 1026.61,440.27 1029.57,435.93 1032.53,431.58 1035.49,427.24 1038.45,422.90 1041.41,418.55 1044.37,414.20 1047.33,410.90 1050.29,407.59 1053.25,404.29 1056.21,400.98 1059.17,397.68 1062.13,394.37 1065.09,391.07 1068.05,387.75 1071.01,384.45 1073.97,381.14" fill="none" stroke="#111111" stroke-width="3"/>
<line x1="137" y1="184" x2="173" y2="184" stroke="#111111" stroke-width="4"/>
<text x="183" y="189" font-family="Arial" font-size="18" fill="black">Umag</text>
</svg>