<svg xmlns="http://www.w3.org/2000/svg" width="1200" height="820" viewBox="0 0 1200 820">
<rect width="100%" height="100%" fill="white"/>
<text x="600.0" y="36" text-anchor="middle" font-family="Arial" font-size="24" fill="black">Umag profile along y-centerline</text>
<line x1="115.00" y1="75" x2="115.00" y2="705" stroke="#dddddd" stroke-width="1"/>
<text x="115.00" y="737" text-anchor="middle" font-family="Arial" font-size="16" fill="black">-0.400</text>
<line x1="372.50" y1="75" x2="372.50" y2="705" stroke="#dddddd" stroke-width="1"/>
<text x="372.50" y="737" text-anchor="middle" font-family="Arial" font-size="16" fill="black">1.050</text>
<line x1="630.00" y1="75" x2="630.00" y2="705" stroke="#dddddd" stroke-width="1"/>
<text x="630.00" y="737" text-anchor="middle" font-family="Arial" font-size="16" fill="black">2.500</text>
<line x1="887.50" y1="75" x2="887.50" y2="705" stroke="#dddddd" stroke-width="1"/>
<text x="887.50" y="737" text-anchor="middle" font-family="Arial" font-size="16" fill="black">3.950</text>
<line x1="1145.00" y1="75" x2="1145.00" y2="705" stroke="#dddddd" stroke-width="1"/>
<text x="1145.00" y="737" text-anchor="middle" font-family="Arial" font-size="16" fill="black">5.400</text>
<line x1="115" y1="705.00" x2="1145" y2="705.00" stroke="#dddddd" stroke-width="1"/>
<text x="99" y="710.00" text-anchor="end" font-family="Arial" font-size="16" fill="black">0.034</text>
<line x1="115" y1="547.50" x2="1145" y2="547.50" stroke="#dddddd" stroke-width="1"/>
<text x="99" y="552.50" text-anchor="end" font-family="Arial" font-size="16" fill="black">0.160</text>
<line x1="115" y1="390.00" x2="1145" y2="390.00" stroke="#dddddd" stroke-width="1"/>
<text x="99" y="395.00" text-anchor="end" font-family="Arial" font-size="16" fill="black">0.285</text>
<line x1="115" y1="232.50" x2="1145" y2="232.50" stroke="#dddddd" stroke-width="1"/>
<text x="99" y="237.50" text-anchor="end" font-family="Arial" font-size="16" fill="black">0.410</text>
<line x1="115" y1="75.00" x2="1145" y2="75.00" stroke="#dddddd" stroke-width="1"/>
<text x="99" y="80.00" text-anchor="end" font-family="Arial" font-size="16" fill="black">0.535</text>
<rect x="115" y="75" width="1030" height="630" fill="none" stroke="black" stroke-width="2"/>
<text x="630.0" y="785" text-anchor="middle" font-family="Arial" font-size="20" fill="black">y coordinate [m]</text>
<text x="34" y="390.0" transform="rotate(-90 34 390.0)" text-anchor="middle" font-family="Arial" font-size="20" fill="black">Umag [m/s]</text>
<polyline points="186.03,118.45 188.99,120.75 191.95,123.04 194.91,125.33 197.87,127.64 200.83,129.93 203.79,132.22 206.75,138.47 209.71,144.72 212.67,150.98 215.63,157.23 218.59,163.50 221.55,169.76 224.51,178.57 227.47,187.39 230.43,196.20 233.39,205.02 236.35,213.83 239.31,222.65 242.27,233.26 245.23,243.88 248.19,254.49 251.15,265.10 254.11,275.72 257.07,286.33 260.03,298.97 262.99,311.62 265.95,324.26 268.91,336.90 271.87,349.54 274.83,362.19 277.79,376.76 280.75,391.33 283.71,405.91 286.67,420.48 289.63,435.05 292.59,449.63 295.55,464.94 298.51,480.26 301.47,495.57 304.43,510.89 307.38,526.20 310.34,541.52 313.31,553.11 316.26,564.70 319.22,576.29 322.18,587.89 325.14,599.48 328.10,611.07 331.06,608.70 334.02,606.30 336.98,603.91 339.94,601.53 342.90,599.14 345.86,596.75 348.82,583.30 351.78,569.83 354.74,556.37 357.70,542.90 360.66,529.44 363.62,515.97 366.59,502.02 369.53,488.06 372.50,474.10 375.47,460.16 378.41,446.20 381.38,432.25 384.35,422.17 387.29,412.07 390.26,401.99 393.22,391.91 396.17,381.82 399.14,371.74 402.10,366.20 405.05,360.68 408.02,355.14 410.98,349.62 413.93,344.08 416.90,338.55 419.86,336.90 422.81,335.27 425.78,333.63 428.74,331.98 431.69,330.35 434.66,328.70 437.62,330.03 440.57,331.36 443.53,332.69 446.50,334.01 449.45,335.34 452.41,336.67 455.38,340.34 458.33,344.02 461.29,347.69 464.26,351.38 467.21,355.05 470.17,358.73 473.14,364.69 476.09,370.66 479.05,376.61 482.02,382.57 484.97,388.54 487.93,394.50 490.90,403.25 493.84,412.01 496.81,420.76 499.78,429.50 502.72,438.25 505.69,447.01 508.66,459.18 511.60,471.36 514.57,483.53 517.53,495.71 520.48,507.88 523.45,520.06 526.41,534.89 529.36,549.71 532.33,564.54 535.29,579.37 538.24,594.20 541.21,609.02 544.17,617.78 547.12,626.53 550.09,635.29 553.05,644.04 556.00,652.80 558.97,661.55 561.93,652.59 564.88,643.63 567.84,634.67 570.81,625.71 573.76,616.75 576.72,607.79 579.69,596.68 582.64,585.55 585.60,574.43 588.57,563.30 591.52,552.19 594.48,541.07 597.45,534.58 600.40,528.09 603.36,521.61 606.33,515.12 609.28,508.63 612.24,502.14 615.21,501.01 618.15,499.88 621.12,498.74 624.09,497.61 627.03,496.48 630.00,495.35 632.97,498.72 635.91,502.08 638.88,505.44 641.84,508.80 644.79,512.17 647.76,515.53 650.72,521.95 653.67,528.35 656.64,534.77 659.60,541.18 662.55,547.60 665.52,554.00 668.48,561.70 671.43,569.41 674.40,577.10 677.36,584.80 680.31,592.50 683.28,600.20 686.24,606.34 689.19,612.48 692.16,618.64 695.12,624.78 698.07,630.92 701.03,637.07 704.00,636.63 706.95,636.19 709.91,635.75 712.88,635.31 715.83,634.88 718.79,634.44 721.76,627.47 724.71,620.50 727.67,613.53 730.64,606.56 733.59,599.60 736.55,592.62 739.52,584.19 742.47,575.77 745.43,567.34 748.40,558.92 751.34,550.49 754.31,542.06 757.28,534.37 760.22,526.68 763.19,518.99 766.16,511.30 769.10,503.61 772.07,495.92 775.03,489.56 777.98,483.19 780.95,476.83 783.91,470.47 786.86,464.10 789.83,457.73 792.79,452.82 795.74,447.93 798.71,443.02 801.67,438.11 804.62,433.21 807.59,428.31 810.55,424.91 813.50,421.51 816.47,418.13 819.43,414.73 822.38,411.33 825.34,407.95 828.31,406.16 831.26,404.38 834.22,402.60 837.19,400.82 840.14,399.04 843.10,397.26 846.07,397.32 849.02,397.37 851.98,397.44 854.95,397.50 857.90,397.56 860.86,397.63 863.83,399.77 866.78,401.90 869.74,404.06 872.71,406.20 875.66,408.34 878.62,410.47 881.59,414.46 884.53,418.45 887.50,422.44 890.47,426.42 893.41,430.41 896.38,434.40 899.34,438.69 902.29,442.98 905.26,447.27 908.22,451.56 911.17,455.85 914.14,460.15 917.10,463.39 920.05,466.65 923.02,469.90 925.98,473.16 928.93,476.41 931.90,479.66 934.86,481.87 937.81,484.08 940.78,486.28 943.74,488.50 946.69,490.70 949.66,492.92 952.62,494.26 955.57,495.62 958.53,496.97 961.50,498.32 964.45,499.67 967.41,501.02 970.38,501.59 973.33,502.14 976.29,502.71 979.26,503.27 982.21,503.83 985.17,504.39 988.14,504.13 991.09,503.88 994.05,503.61 997.02,503.35 999.97,503.10 1002.93,502.83 1005.90,501.79 1008.84,500.76 1011.81,499.72 1014.78,498.68 1017.72,497.65 1020.69,496.60 1023.66,495.22 1026.60,493.84 1029.57,492.45 1032.53,491.07 1035.48,489.68 1038.45,488.30 1041.41,488.40 1044.36,488.49 1047.33,488.59 1050.29,488.69 1053.24,488.79 1056.21,488.89 1059.17,489.68 1062.12,490.46 1065.09,491.26 1068.05,492.04 1071.00,492.83 1073.97,493.61" fill="none" stroke="#111111" stroke-width="3"/>
<line x1="137" y1="100" x2="173" y2="100" stroke="#111111" stroke-width="4"/>
<text x="183" y="105" font-family="Arial" font-size="18" fill="black">Umag</text>
</svg>