<svg xmlns="http://www.w3.org/2000/svg" width="1200" height="820" viewBox="0 0 1200 820">
<rect width="100%" height="100%" fill="white"/>
<text x="600.0" y="36" text-anchor="middle" font-family="Arial" font-size="24" fill="black">Uz profile along z-centerline</text>
<line x1="115.00" y1="75" x2="115.00" y2="705" stroke="#dddddd" stroke-width="1"/>
<text x="115.00" y="737" text-anchor="middle" font-family="Arial" font-size="16" fill="black">-0.240</text>
<line x1="372.50" y1="75" x2="372.50" y2="705" stroke="#dddddd" stroke-width="1"/>
<text x="372.50" y="737" text-anchor="middle" font-family="Arial" font-size="16" fill="black">0.630</text>
<line x1="630.00" y1="75" x2="630.00" y2="705" stroke="#dddddd" stroke-width="1"/>
<text x="630.00" y="737" text-anchor="middle" font-family="Arial" font-size="16" fill="black">1.500</text>
<line x1="887.50" y1="75" x2="887.50" y2="705" stroke="#dddddd" stroke-width="1"/>
<text x="887.50" y="737" text-anchor="middle" font-family="Arial" font-size="16" fill="black">2.370</text>
<line x1="1145.00" y1="75" x2="1145.00" y2="705" stroke="#dddddd" stroke-width="1"/>
<text x="1145.00" y="737" text-anchor="middle" font-family="Arial" font-size="16" fill="black">3.240</text>
<line x1="115" y1="705.00" x2="1145" y2="705.00" stroke="#dddddd" stroke-width="1"/>
<text x="99" y="710.00" text-anchor="end" font-family="Arial" font-size="16" fill="black">-0.255</text>
<line x1="115" y1="547.50" x2="1145" y2="547.50" stroke="#dddddd" stroke-width="1"/>
<text x="99" y="552.50" text-anchor="end" font-family="Arial" font-size="16" fill="black">0.013</text>
<line x1="115" y1="390.00" x2="1145" y2="390.00" stroke="#dddddd" stroke-width="1"/>
<text x="99" y="395.00" text-anchor="end" font-family="Arial" font-size="16" fill="black">0.281</text>
<line x1="115" y1="232.50" x2="1145" y2="232.50" stroke="#dddddd" stroke-width="1"/>
<text x="99" y="237.50" text-anchor="end" font-family="Arial" font-size="16" fill="black">0.549</text>
<line x1="115" y1="75.00" x2="1145" y2="75.00" stroke="#dddddd" stroke-width="1"/>
<text x="99" y="80.00" text-anchor="end" font-family="Arial" font-size="16" fill="black">0.817</text>
<rect x="115" y="75" width="1030" height="630" fill="none" stroke="black" stroke-width="2"/>
<text x="630.0" y="785" text-anchor="middle" font-family="Arial" font-size="20" fill="black">z coordinate [m]</text>
<text x="34" y="390.0" transform="rotate(-90 34 390.0)" text-anchor="middle" font-family="Arial" font-size="20" fill="black">Uz [m/s]</text>
<polyline points="186.03,118.45 188.99,119.18 191.95,119.92 194.91,120.66 197.87,121.39 200.83,122.13 203.79,122.87 206.75,123.60 209.71,124.34 212.67,125.08 215.63,125.81 218.59,127.79 221.55,129.76 224.51,131.72 227.47,133.69 230.43,135.66 233.39,137.64 236.35,139.61 239.31,141.57 242.27,143.54 245.23,145.51 248.19,148.36 251.15,151.20 254.11,154.04 257.07,156.88 260.03,159.73 262.99,162.57 265.95,165.41 268.91,168.26 271.87,171.09 274.83,173.94 277.79,177.51 280.75,181.07 283.71,184.64 286.67,188.20 289.63,191.77 292.59,195.33 295.55,198.90 298.51,202.47 301.47,206.03 304.43,209.60 307.39,213.86 310.34,218.12 313.30,222.38 316.26,226.64 319.22,230.89 322.18,235.15 325.14,239.42 328.10,243.68 331.06,247.94 334.02,252.20 336.98,257.08 339.94,261.97 342.90,266.86 345.86,271.75 348.82,276.64 351.78,281.52 354.74,286.41 357.70,291.30 360.66,296.19 363.62,301.08 366.58,306.41 369.54,311.74 372.50,317.08 375.46,322.41 378.42,327.74 381.38,333.07 384.34,338.41 387.30,343.74 390.26,349.07 393.22,354.41 396.18,360.03 399.14,365.65 402.10,371.28 405.06,376.91 408.02,382.53 410.98,388.16 413.94,393.78 416.90,399.41 419.86,405.04 422.82,410.66 425.78,416.49 428.74,422.32 431.70,428.16 434.66,433.99 437.61,439.82 440.57,445.65 443.53,451.48 446.49,457.31 449.45,463.14 452.41,468.97 455.37,474.36 458.33,479.75 461.29,485.15 464.25,490.54 467.21,495.93 470.17,501.32 473.13,506.71 476.09,512.10 479.05,517.49 482.01,522.89 484.97,526.92 487.93,530.95 490.89,534.98 493.85,539.01 496.81,543.05 499.77,547.08 502.73,551.11 505.69,555.14 508.65,559.18 511.61,563.21 514.57,565.90 517.53,568.59 520.49,571.29 523.45,573.98 526.41,576.67 529.37,579.36 532.33,582.06 535.29,584.75 538.25,587.44 541.21,590.13 544.17,592.07 547.13,594.01 550.09,595.94 553.05,597.88 556.01,599.82 558.97,601.76 561.93,603.69 564.89,605.63 567.84,607.57 570.80,609.50 573.76,611.01 576.72,612.51 579.68,614.02 582.64,615.52 585.60,617.03 588.56,618.53 591.52,620.04 594.48,621.54 597.44,623.04 600.40,624.54 603.36,625.76 606.32,626.98 609.28,628.19 612.24,629.41 615.20,630.63 618.16,631.84 621.12,633.06 624.08,634.27 627.04,635.49 630.00,636.70 632.96,637.70 635.92,638.68 638.88,639.68 641.84,640.66 644.80,641.66 647.76,642.65 650.72,643.64 653.68,644.63 656.64,645.62 659.60,646.61 662.56,647.38 665.52,648.14 668.48,648.90 671.44,649.67 674.40,650.43 677.36,651.20 680.32,651.96 683.28,652.72 686.24,653.49 689.20,654.25 692.16,654.76 695.11,655.28 698.07,655.79 701.03,656.29 703.99,656.80 706.95,657.31 709.91,657.83 712.87,658.34 715.83,658.84 718.79,659.35 721.75,659.58 724.71,659.79 727.67,660.01 730.63,660.24 733.59,660.45 736.55,660.68 739.51,660.89 742.47,661.12 745.43,661.33 748.39,661.55 751.35,661.46 754.31,661.37 757.27,661.28 760.23,661.18 763.19,661.09 766.15,661.00 769.11,660.91 772.07,660.81 775.03,660.72 777.99,660.63 780.95,660.24 783.91,659.85 786.87,659.47 789.83,659.08 792.79,658.68 795.75,658.30 798.71,657.91 801.67,657.52 804.63,657.13 807.59,656.74 810.55,656.10 813.51,655.45 816.47,654.80 819.43,654.16 822.39,653.51 825.34,652.87 828.30,652.22 831.26,651.57 834.22,650.93 837.18,650.28 840.14,649.42 843.10,648.55 846.06,647.68 849.02,646.82 851.98,645.95 854.94,645.08 857.90,644.22 860.86,643.35 863.82,642.49 866.78,641.62 869.74,640.59 872.70,639.55 875.66,638.53 878.62,637.49 881.58,636.46 884.54,635.43 887.50,634.39 890.46,633.36 893.42,632.33 896.38,631.30 899.34,630.17 902.30,629.03 905.26,627.91 908.22,626.78 911.18,625.64 914.14,624.51 917.10,623.38 920.06,622.25 923.02,621.12 925.98,619.99 928.94,618.84 931.90,617.69 934.86,616.53 937.82,615.38 940.78,614.23 943.74,613.08 946.70,611.92 949.66,610.77 952.61,609.62 955.57,608.47 958.53,607.35 961.49,606.23 964.45,605.11 967.41,603.99 970.37,602.87 973.33,601.75 976.29,600.63 979.25,599.51 982.21,598.39 985.17,597.28 988.13,596.20 991.09,595.12 994.05,594.04 997.01,592.97 999.97,591.89 1002.93,590.81 1005.89,589.74 1008.85,588.66 1011.81,587.58 1014.77,586.50 1017.73,585.27 1020.69,584.03 1023.65,582.79 1026.61,581.55 1029.57,580.31 1032.53,579.07 1035.49,577.83 1038.45,576.59 1041.41,575.35 1044.37,574.12 1047.33,573.41 1050.29,572.70 1053.25,571.99 1056.21,571.28 1059.17,570.57 1062.13,569.86 1065.09,569.15 1068.05,568.45 1071.01,567.74 1073.97,567.03" fill="none" stroke="#2ca02c" stroke-width="3"/>
<line x1="137" y1="100" x2="173" y2="100" stroke="#2ca02c" stroke-width="4"/>
<text x="183" y="105" font-family="Arial" font-size="18" fill="black">Uz</text>
</svg>