<svg xmlns="http://www.w3.org/2000/svg" width="1200" height="820" viewBox="0 0 1200 820">
<rect width="100%" height="100%" fill="white"/>
<text x="600.0" y="36" text-anchor="middle" font-family="Arial" font-size="24" fill="black">Velocity components along y-centerline</text>
<line x1="115.00" y1="75" x2="115.00" y2="705" stroke="#dddddd" stroke-width="1"/>
<text x="115.00" y="737" text-anchor="middle" font-family="Arial" font-size="16" fill="black">-0.400</text>
<line x1="372.50" y1="75" x2="372.50" y2="705" stroke="#dddddd" stroke-width="1"/>
<text x="372.50" y="737" text-anchor="middle" font-family="Arial" font-size="16" fill="black">1.050</text>
<line x1="630.00" y1="75" x2="630.00" y2="705" stroke="#dddddd" stroke-width="1"/>
<text x="630.00" y="737" text-anchor="middle" font-family="Arial" font-size="16" fill="black">2.500</text>
<line x1="887.50" y1="75" x2="887.50" y2="705" stroke="#dddddd" stroke-width="1"/>
<text x="887.50" y="737" text-anchor="middle" font-family="Arial" font-size="16" fill="black">3.950</text>
<line x1="1145.00" y1="75" x2="1145.00" y2="705" stroke="#dddddd" stroke-width="1"/>
<text x="1145.00" y="737" text-anchor="middle" font-family="Arial" font-size="16" fill="black">5.400</text>
<line x1="115" y1="705.00" x2="1145" y2="705.00" stroke="#dddddd" stroke-width="1"/>
<text x="99" y="710.00" text-anchor="end" font-family="Arial" font-size="16" fill="black">-0.490</text>
<line x1="115" y1="547.50" x2="1145" y2="547.50" stroke="#dddddd" stroke-width="1"/>
<text x="99" y="552.50" text-anchor="end" font-family="Arial" font-size="16" fill="black">-0.224</text>
<line x1="115" y1="390.00" x2="1145" y2="390.00" stroke="#dddddd" stroke-width="1"/>
<text x="99" y="395.00" text-anchor="end" font-family="Arial" font-size="16" fill="black">0.042</text>
<line x1="115" y1="232.50" x2="1145" y2="232.50" stroke="#dddddd" stroke-width="1"/>
<text x="99" y="237.50" text-anchor="end" font-family="Arial" font-size="16" fill="black">0.308</text>
<line x1="115" y1="75.00" x2="1145" y2="75.00" stroke="#dddddd" stroke-width="1"/>
<text x="99" y="80.00" text-anchor="end" font-family="Arial" font-size="16" fill="black">0.574</text>
<rect x="115" y="75" width="1030" height="630" fill="none" stroke="black" stroke-width="2"/>
<text x="630.0" y="785" text-anchor="middle" font-family="Arial" font-size="20" fill="black">y coordinate [m]</text>
<text x="34" y="390.0" transform="rotate(-90 34 390.0)" text-anchor="middle" font-family="Arial" font-size="20" fill="black">velocity [m/s]</text>
<polyline points="186.03,578.80 188.99,578.80 191.95,578.80 194.91,578.80 197.87,578.80 200.83,578.80 203.79,578.80 206.75,577.78 209.71,576.76 212.67,575.74 215.63,574.72 218.59,573.70 221.55,572.68 224.51,570.30 227.47,567.92 230.43,565.53 233.39,563.14 236.35,560.76 239.31,558.38 242.27,555.46 245.23,552.54 248.19,549.62 251.15,546.70 254.11,543.79 257.07,540.87 260.03,537.66 262.99,534.45 265.95,531.24 268.91,528.03 271.87,524.82 274.83,521.60 277.79,518.26 280.75,514.92 283.71,511.58 286.67,508.24 289.63,504.90 292.59,501.55 295.55,498.15 298.51,494.75 301.47,491.35 304.43,487.95 307.38,484.54 310.34,481.15 313.31,477.62 316.26,474.10 319.22,470.58 322.18,467.06 325.14,463.53 328.10,460.01 331.06,456.36 334.02,452.70 336.98,449.05 339.94,445.39 342.90,441.73 345.86,438.08 348.82,434.51 351.78,430.93 354.74,427.36 357.70,423.79 360.66,420.22 363.62,416.65 366.59,413.50 369.53,410.35 372.50,407.21 375.47,404.06 378.41,400.92 381.38,397.77 384.35,395.29 387.29,392.81 390.26,390.33 393.22,387.84 396.17,385.36 399.14,382.88 402.10,381.11 405.05,379.34 408.02,377.56 410.98,375.79 413.93,374.01 416.90,372.24 419.86,371.14 422.81,370.03 425.78,368.92 428.74,367.82 431.69,366.71 434.66,365.61 437.62,365.16 440.57,364.72 443.53,364.27 446.50,363.83 449.45,363.38 452.41,362.94 455.38,363.22 458.33,363.50 461.29,363.79 464.26,364.07 467.21,364.35 470.17,364.63 473.14,365.77 476.09,366.91 479.05,368.05 482.02,369.18 484.97,370.32 487.93,371.46 490.90,373.58 493.84,375.70 496.81,377.82 499.78,379.94 502.72,382.07 505.69,384.19 508.66,387.32 511.60,390.45 514.57,393.58 517.53,396.71 520.48,399.84 523.45,402.98 526.41,406.88 529.36,410.78 532.33,414.68 535.29,418.58 538.24,422.49 541.21,426.39 544.17,430.47 547.12,434.55 550.09,438.63 553.05,442.72 556.00,446.80 558.97,450.88 561.93,454.33 564.88,457.77 567.84,461.21 570.81,464.66 573.76,468.10 576.72,471.54 579.69,473.80 582.64,476.06 585.60,478.32 588.57,480.57 591.52,482.83 594.48,485.09 597.45,486.08 600.40,487.08 603.36,488.07 606.33,489.07 609.28,490.07 612.24,491.06 615.21,490.91 618.15,490.75 621.12,490.59 624.09,490.44 627.03,490.29 630.00,490.13 632.97,489.00 635.91,487.87 638.88,486.74 641.84,485.60 644.79,484.47 647.76,483.34 650.72,481.41 653.67,479.49 656.64,477.57 659.60,475.65 662.55,473.72 665.52,471.80 668.48,469.26 671.43,466.73 674.40,464.19 677.36,461.66 680.31,459.12 683.28,456.58 686.24,453.60 689.19,450.61 692.16,447.63 695.12,444.64 698.07,441.66 701.03,438.67 704.00,435.43 706.95,432.19 709.91,428.95 712.88,425.70 715.83,422.46 718.79,419.22 721.76,415.99 724.71,412.76 727.67,409.52 730.64,406.29 733.59,403.06 736.55,399.83 739.52,396.93 742.47,394.03 745.43,391.12 748.40,388.22 751.34,385.32 754.31,382.41 757.28,380.13 760.22,377.86 763.19,375.58 766.16,373.30 769.10,371.02 772.07,368.74 775.03,367.30 777.98,365.86 780.95,364.42 783.91,362.98 786.86,361.54 789.83,360.10 792.79,359.57 795.74,359.04 798.71,358.51 801.67,357.98 804.62,357.45 807.59,356.92 810.55,357.22 813.50,357.52 816.47,357.82 819.43,358.12 822.38,358.42 825.34,358.72 828.31,359.65 831.26,360.58 834.22,361.52 837.19,362.45 840.14,363.39 843.10,364.32 846.07,365.63 849.02,366.94 851.98,368.24 854.95,369.55 857.90,370.86 860.86,372.16 863.83,373.56 866.78,374.96 869.74,376.36 872.71,377.76 875.66,379.17 878.62,380.57 881.59,381.82 884.53,383.08 887.50,384.33 890.47,385.59 893.41,386.84 896.38,388.10 899.34,389.08 902.29,390.06 905.26,391.04 908.22,392.01 911.17,392.99 914.14,393.97 917.10,394.67 920.05,395.36 923.02,396.05 925.98,396.75 928.93,397.44 931.90,398.14 934.86,398.61 937.81,399.09 940.78,399.56 943.74,400.04 946.69,400.51 949.66,400.99 952.62,401.32 955.57,401.65 958.53,401.99 961.50,402.32 964.45,402.65 967.41,402.99 970.38,403.25 973.33,403.51 976.29,403.77 979.26,404.03 982.21,404.29 985.17,404.55 988.14,404.80 991.09,405.04 994.05,405.28 997.02,405.52 999.97,405.76 1002.93,406.00 1005.90,406.24 1008.84,406.48 1011.81,406.72 1014.78,406.96 1017.72,407.20 1020.69,407.44 1023.66,407.66 1026.60,407.87 1029.57,408.08 1032.53,408.29 1035.48,408.50 1038.45,408.72 1041.41,408.82 1044.36,408.93 1047.33,409.04 1050.29,409.15 1053.24,409.26 1056.21,409.37 1059.17,409.38 1062.12,409.40 1065.09,409.41 1068.05,409.43 1071.00,409.44 1073.97,409.46" fill="none" stroke="#1f77b4" stroke-width="3"/>
<line x1="137" y1="100" x2="173" y2="100" stroke="#1f77b4" stroke-width="4"/>
<text x="183" y="105" font-family="Arial" font-size="18" fill="black">Ux</text>
<polyline points="186.03,413.33 188.99,413.00 191.95,412.68 194.91,412.35 197.87,412.02 200.83,411.70 203.79,411.37 206.75,410.75 209.71,410.13 212.67,409.51 215.63,408.89 218.59,408.27 221.55,407.64 224.51,406.98 227.47,406.32 230.43,405.66 233.39,405.01 236.35,404.35 239.31,403.69 242.27,402.90 245.23,402.12 248.19,401.34 251.15,400.56 254.11,399.78 257.07,399.00 260.03,398.07 262.99,397.13 265.95,396.20 268.91,395.27 271.87,394.33 274.83,393.40 277.79,392.25 280.75,391.10 283.71,389.95 286.67,388.80 289.63,387.65 292.59,386.50 295.55,385.15 298.51,383.79 301.47,382.44 304.43,381.09 307.38,379.73 310.34,378.38 313.31,376.96 316.26,375.53 319.22,374.11 322.18,372.69 325.14,371.26 328.10,369.84 331.06,368.60 334.02,367.35 336.98,366.11 339.94,364.87 342.90,363.62 345.86,362.38 348.82,361.50 351.78,360.62 354.74,359.75 357.70,358.87 360.66,357.99 363.62,357.12 366.59,356.67 369.53,356.22 372.50,355.77 375.47,355.32 378.41,354.87 381.38,354.42 384.35,354.40 387.29,354.38 390.26,354.35 393.22,354.33 396.17,354.31 399.14,354.28 402.10,354.65 405.05,355.03 408.02,355.41 410.98,355.79 413.93,356.16 416.90,356.54 419.86,357.30 422.81,358.06 425.78,358.82 428.74,359.58 431.69,360.35 434.66,361.11 437.62,362.22 440.57,363.34 443.53,364.46 446.50,365.57 449.45,366.69 452.41,367.81 455.38,369.20 458.33,370.60 461.29,371.99 464.26,373.39 467.21,374.78 470.17,376.18 473.14,377.72 476.09,379.26 479.05,380.80 482.02,382.34 484.97,383.87 487.93,385.41 490.90,386.89 493.84,388.37 496.81,389.86 499.78,391.34 502.72,392.82 505.69,394.30 508.66,395.46 511.60,396.63 514.57,397.80 517.53,398.97 520.48,400.13 523.45,401.30 526.41,401.88 529.36,402.46 532.33,403.04 535.29,403.62 538.24,404.20 541.21,404.77 544.17,404.57 547.12,404.36 550.09,404.16 553.05,403.95 556.00,403.74 558.97,403.54 561.93,402.61 564.88,401.69 567.84,400.76 570.81,399.83 573.76,398.91 576.72,397.98 579.69,396.64 582.64,395.29 585.60,393.95 588.57,392.61 591.52,391.27 594.48,389.92 597.45,388.48 600.40,387.05 603.36,385.61 606.33,384.17 609.28,382.73 612.24,381.29 615.21,380.01 618.15,378.72 621.12,377.44 624.09,376.16 627.03,374.87 630.00,373.59 632.97,372.64 635.91,371.69 638.88,370.75 641.84,369.80 644.79,368.85 647.76,367.90 650.72,367.41 653.67,366.92 656.64,366.43 659.60,365.94 662.55,365.45 665.52,364.95 668.48,364.97 671.43,364.99 674.40,365.01 677.36,365.02 680.31,365.04 683.28,365.06 686.24,365.61 689.19,366.17 692.16,366.72 695.12,367.27 698.07,367.82 701.03,368.38 704.00,369.43 706.95,370.49 709.91,371.54 712.88,372.59 715.83,373.65 718.79,374.70 721.76,376.15 724.71,377.61 727.67,379.06 730.64,380.51 733.59,381.96 736.55,383.42 739.52,385.11 742.47,386.80 745.43,388.50 748.40,390.19 751.34,391.89 754.31,393.58 757.28,395.36 760.22,397.13 763.19,398.90 766.16,400.67 769.10,402.44 772.07,404.21 775.03,405.95 777.98,407.68 780.95,409.41 783.91,411.15 786.86,412.88 789.83,414.61 792.79,416.22 795.74,417.83 798.71,419.45 801.67,421.06 804.62,422.67 807.59,424.28 810.55,425.69 813.50,427.11 816.47,428.52 819.43,429.93 822.38,431.35 825.34,432.76 828.31,433.90 831.26,435.04 834.22,436.18 837.19,437.31 840.14,438.45 843.10,439.59 846.07,440.39 849.02,441.18 851.98,441.97 854.95,442.77 857.90,443.56 860.86,444.35 863.83,444.76 866.78,445.16 869.74,445.56 872.71,445.96 875.66,446.37 878.62,446.77 881.59,446.81 884.53,446.85 887.50,446.88 890.47,446.92 893.41,446.96 896.38,447.00 899.34,446.75 902.29,446.50 905.26,446.24 908.22,445.99 911.17,445.74 914.14,445.49 917.10,444.99 920.05,444.50 923.02,444.01 925.98,443.51 928.93,443.02 931.90,442.53 934.86,441.83 937.81,441.13 940.78,440.43 943.74,439.73 946.69,439.03 949.66,438.33 952.62,437.47 955.57,436.60 958.53,435.74 961.50,434.88 964.45,434.02 967.41,433.16 970.38,432.20 973.33,431.24 976.29,430.29 979.26,429.33 982.21,428.37 985.17,427.42 988.14,426.46 991.09,425.51 994.05,424.55 997.02,423.59 999.97,422.64 1002.93,421.68 1005.90,420.84 1008.84,420.01 1011.81,419.17 1014.78,418.33 1017.72,417.49 1020.69,416.65 1023.66,416.11 1026.60,415.56 1029.57,415.02 1032.53,414.47 1035.48,413.92 1038.45,413.38 1041.41,413.21 1044.36,413.05 1047.33,412.89 1050.29,412.73 1053.24,412.56 1056.21,412.40 1059.17,412.41 1062.12,412.42 1065.09,412.43 1068.05,412.44 1071.00,412.45 1073.97,412.46" fill="none" stroke="#d62728" stroke-width="3"/>
<line x1="137" y1="128" x2="173" y2="128" stroke="#d62728" stroke-width="4"/>
<text x="183" y="133" font-family="Arial" font-size="18" fill="black">Uy</text>
<polyline points="186.03,661.55 188.99,660.24 191.95,658.94 194.91,657.63 197.87,656.33 200.83,655.02 203.79,653.71 206.75,650.82 209.71,647.93 212.67,645.04 215.63,642.15 218.59,639.25 221.55,636.36 224.51,632.93 227.47,629.51 230.43,626.09 233.39,622.66 236.35,619.24 239.31,615.81 242.27,611.69 245.23,607.57 248.19,603.45 251.15,599.34 254.11,595.22 257.07,591.10 260.03,585.94 262.99,580.78 265.95,575.62 268.91,570.46 271.87,565.30 274.83,560.14 277.79,553.73 280.75,547.31 283.71,540.89 286.67,534.47 289.63,528.06 292.59,521.64 295.55,514.02 298.51,506.40 301.47,498.78 304.43,491.16 307.38,483.54 310.34,475.92 313.31,467.44 316.26,458.97 319.22,450.49 322.18,442.02 325.14,433.54 328.10,425.07 331.06,416.28 334.02,407.50 336.98,398.72 339.94,389.93 342.90,381.15 345.86,372.37 348.82,363.96 351.78,355.54 354.74,347.14 357.70,338.72 360.66,330.31 363.62,321.91 366.59,314.91 369.53,307.91 372.50,300.91 375.47,293.92 378.41,286.92 381.38,279.93 384.35,275.16 387.29,270.40 390.26,265.63 393.22,260.86 396.17,256.09 399.14,251.33 402.10,248.77 405.05,246.21 408.02,243.66 410.98,241.10 413.93,238.54 416.90,235.98 419.86,235.20 422.81,234.41 425.78,233.62 428.74,232.83 431.69,232.05 434.66,231.26 437.62,231.74 440.57,232.23 443.53,232.72 446.50,233.20 449.45,233.69 452.41,234.17 455.38,235.60 458.33,237.03 461.29,238.46 464.26,239.88 467.21,241.32 470.17,242.74 473.14,245.08 476.09,247.41 479.05,249.75 482.02,252.08 484.97,254.41 487.93,256.75 490.90,260.27 493.84,263.79 496.81,267.31 499.78,270.83 502.72,274.34 505.69,277.87 508.66,283.04 511.60,288.20 514.57,293.37 517.53,298.54 520.48,303.71 523.45,308.87 526.41,315.90 529.36,322.93 532.33,329.96 535.29,336.98 538.24,344.01 541.21,351.04 544.17,359.09 547.12,367.14 550.09,375.19 553.05,383.25 556.00,391.30 558.97,399.35 561.93,406.83 564.88,414.31 567.84,421.79 570.81,429.27 573.76,436.76 576.72,444.24 579.69,449.80 582.64,455.36 585.60,460.92 588.57,466.48 591.52,472.04 594.48,477.61 597.45,480.54 600.40,483.49 603.36,486.42 606.33,489.36 609.28,492.31 612.24,495.24 615.21,495.57 618.15,495.89 621.12,496.21 624.09,496.54 627.03,496.86 630.00,497.18 632.97,495.35 635.91,493.52 638.88,491.68 641.84,489.85 644.79,488.02 647.76,486.18 650.72,482.82 653.67,479.46 656.64,476.10 659.60,472.74 662.55,469.37 665.52,466.01 668.48,461.69 671.43,457.36 674.40,453.03 677.36,448.70 680.31,444.38 683.28,440.05 686.24,435.14 689.19,430.22 692.16,425.31 695.12,420.39 698.07,415.48 701.03,410.56 704.00,405.38 706.95,400.19 709.91,395.01 712.88,389.82 715.83,384.64 718.79,379.46 721.76,374.59 724.71,369.72 727.67,364.86 730.64,359.99 733.59,355.13 736.55,350.26 739.52,346.18 742.47,342.10 745.43,338.01 748.40,333.93 751.34,329.84 754.31,325.77 757.28,322.44 760.22,319.11 763.19,315.79 766.16,312.46 769.10,309.14 772.07,305.82 775.03,303.09 777.98,300.36 780.95,297.63 783.91,294.91 786.86,292.18 789.83,289.46 792.79,287.23 795.74,285.00 798.71,282.77 801.67,280.55 804.62,278.32 807.59,276.09 810.55,274.39 813.50,272.68 816.47,270.97 819.43,269.26 822.38,267.55 825.34,265.84 828.31,264.78 831.26,263.72 834.22,262.65 837.19,261.59 840.14,260.53 843.10,259.47 846.07,259.25 849.02,259.02 851.98,258.80 854.95,258.59 857.90,258.36 860.86,258.14 863.83,258.93 866.78,259.72 869.74,260.51 872.71,261.30 875.66,262.09 878.62,262.88 881.59,264.59 884.53,266.29 887.50,268.00 890.47,269.71 893.41,271.41 896.38,273.13 899.34,275.00 902.29,276.87 905.26,278.74 908.22,280.61 911.17,282.49 914.14,284.36 917.10,285.73 920.05,287.10 923.02,288.47 925.98,289.84 928.93,291.21 931.90,292.58 934.86,293.44 937.81,294.30 940.78,295.16 943.74,296.02 946.69,296.88 949.66,297.74 952.62,298.20 955.57,298.66 958.53,299.11 961.50,299.57 964.45,300.03 967.41,300.48 970.38,300.59 973.33,300.71 976.29,300.82 979.26,300.93 982.21,301.04 985.17,301.16 988.14,300.93 991.09,300.71 994.05,300.48 997.02,300.26 999.97,300.03 1002.93,299.81 1005.90,299.27 1008.84,298.73 1011.81,298.20 1014.78,297.66 1017.72,297.12 1020.69,296.58 1023.66,295.92 1026.60,295.25 1029.57,294.58 1032.53,293.92 1035.48,293.25 1038.45,292.58 1041.41,292.63 1044.36,292.67 1047.33,292.72 1050.29,292.76 1053.24,292.81 1056.21,292.85 1059.17,293.22 1062.12,293.59 1065.09,293.96 1068.05,294.33 1071.00,294.70 1073.97,295.07" fill="none" stroke="#2ca02c" stroke-width="3"/>
<line x1="137" y1="156" x2="173" y2="156" stroke="#2ca02c" stroke-width="4"/>
<text x="183" y="161" font-family="Arial" font-size="18" fill="black">Uz</text>
<polyline points="186.03,118.45 188.99,119.53 191.95,120.61 194.91,121.69 197.87,122.77 200.83,123.85 203.79,124.92 206.75,127.87 209.71,130.81 212.67,133.75 215.63,136.69 218.59,139.64 221.55,142.58 224.51,146.73 227.47,150.88 230.43,155.02 233.39,159.17 236.35,163.32 239.31,167.47 242.27,172.46 245.23,177.45 248.19,182.44 251.15,187.43 254.11,192.43 257.07,197.42 260.03,203.37 262.99,209.32 265.95,215.26 268.91,221.21 271.87,227.16 274.83,233.11 277.79,239.96 280.75,246.82 283.71,253.67 286.67,260.53 289.63,267.38 292.59,274.24 295.55,281.44 298.51,288.65 301.47,295.85 304.43,303.06 307.38,310.26 310.34,317.47 313.31,322.92 316.26,328.37 319.22,333.82 322.18,339.28 325.14,344.73 328.10,350.19 331.06,349.07 334.02,347.94 336.98,346.82 339.94,345.70 342.90,344.57 345.86,343.45 348.82,337.12 351.78,330.79 354.74,324.45 357.70,318.12 360.66,311.78 363.62,305.45 366.59,298.88 369.53,292.32 372.50,285.75 375.47,279.19 378.41,272.63 381.38,266.06 384.35,261.32 387.29,256.57 390.26,251.83 393.22,247.09 396.17,242.34 399.14,237.60 402.10,234.99 405.05,232.40 408.02,229.79 410.98,227.19 413.93,224.59 416.90,221.99 419.86,221.21 422.81,220.44 425.78,219.67 428.74,218.90 431.69,218.13 434.66,217.35 437.62,217.98 440.57,218.60 443.53,219.23 446.50,219.85 449.45,220.48 452.41,221.10 455.38,222.83 458.33,224.56 461.29,226.29 464.26,228.02 467.21,229.75 470.17,231.48 473.14,234.28 476.09,237.09 479.05,239.89 482.02,242.70 484.97,245.50 487.93,248.31 490.90,252.42 493.84,256.54 496.81,260.66 499.78,264.77 502.72,268.89 505.69,273.01 508.66,278.73 511.60,284.46 514.57,290.19 517.53,295.92 520.48,301.64 523.45,307.37 526.41,314.35 529.36,321.32 532.33,328.29 535.29,335.27 538.24,342.25 541.21,349.22 544.17,353.34 547.12,357.46 550.09,361.58 553.05,365.69 556.00,369.81 558.97,373.93 561.93,369.72 564.88,365.50 567.84,361.29 570.81,357.07 573.76,352.86 576.72,348.64 579.69,343.41 582.64,338.18 585.60,332.95 588.57,327.71 591.52,322.49 594.48,317.25 597.45,314.20 600.40,311.15 603.36,308.10 606.33,305.05 609.28,302.00 612.24,298.94 615.21,298.41 618.15,297.88 621.12,297.34 624.09,296.81 627.03,296.28 630.00,295.75 632.97,297.33 635.91,298.91 638.88,300.49 641.84,302.07 644.79,303.66 647.76,305.24 650.72,308.26 653.67,311.27 656.64,314.29 659.60,317.31 662.55,320.32 665.52,323.34 668.48,326.96 671.43,330.58 674.40,334.20 677.36,337.82 680.31,341.45 683.28,345.07 686.24,347.96 689.19,350.85 692.16,353.74 695.12,356.63 698.07,359.52 701.03,362.41 704.00,362.21 706.95,362.00 709.91,361.79 712.88,361.59 715.83,361.38 718.79,361.18 721.76,357.90 724.71,354.62 727.67,351.34 730.64,348.06 733.59,344.79 736.55,341.51 739.52,337.54 742.47,333.58 745.43,329.61 748.40,325.65 751.34,321.69 754.31,317.72 757.28,314.10 760.22,310.49 763.19,306.87 766.16,303.25 769.10,299.63 772.07,296.02 775.03,293.02 777.98,290.03 780.95,287.04 783.91,284.04 786.86,281.05 789.83,278.05 792.79,275.74 795.74,273.44 798.71,271.13 801.67,268.82 804.62,266.52 807.59,264.21 810.55,262.61 813.50,261.01 816.47,259.42 819.43,257.82 822.38,256.22 825.34,254.63 828.31,253.79 831.26,252.96 834.22,252.12 837.19,251.28 840.14,250.44 843.10,249.61 846.07,249.63 849.02,249.66 851.98,249.69 854.95,249.72 857.90,249.75 860.86,249.78 863.83,250.78 866.78,251.79 869.74,252.80 872.71,253.81 875.66,254.81 878.62,255.82 881.59,257.70 884.53,259.57 887.50,261.45 890.47,263.32 893.41,265.20 896.38,267.07 899.34,269.09 902.29,271.11 905.26,273.13 908.22,275.15 911.17,277.17 914.14,279.19 917.10,280.71 920.05,282.25 923.02,283.78 925.98,285.31 928.93,286.84 931.90,288.37 934.86,289.41 937.81,290.45 940.78,291.48 943.74,292.52 946.69,293.56 949.66,294.60 952.62,295.24 955.57,295.88 958.53,296.51 961.50,297.14 964.45,297.78 967.41,298.42 970.38,298.68 973.33,298.94 976.29,299.21 979.26,299.47 982.21,299.74 985.17,300.00 988.14,299.88 991.09,299.76 994.05,299.63 997.02,299.51 999.97,299.39 1002.93,299.27 1005.90,298.78 1008.84,298.29 1011.81,297.81 1014.78,297.31 1017.72,296.83 1020.69,296.34 1023.66,295.69 1026.60,295.03 1029.57,294.38 1032.53,293.73 1035.48,293.08 1038.45,292.43 1041.41,292.48 1044.36,292.52 1047.33,292.57 1050.29,292.61 1053.24,292.66 1056.21,292.71 1059.17,293.08 1062.12,293.45 1065.09,293.82 1068.05,294.19 1071.00,294.56 1073.97,294.93" fill="none" stroke="#111111" stroke-width="3"/>
<line x1="137" y1="184" x2="173" y2="184" stroke="#111111" stroke-width="4"/>
<text x="183" y="189" font-family="Arial" font-size="18" fill="black">Umag</text>
</svg>