<svg xmlns="http://www.w3.org/2000/svg" width="1200" height="820" viewBox="0 0 1200 820">
<rect width="100%" height="100%" fill="white"/>
<text x="600.0" y="36" text-anchor="middle" font-family="Arial" font-size="24" fill="black">profile_near_floor_x: vorticity:2</text>
<line x1="120.00" y1="75" x2="120.00" y2="705" stroke="#dddddd" stroke-width="1"/>
<text x="120.00" y="737" text-anchor="middle" font-family="Arial" font-size="16" fill="black">-0.560</text>
<line x1="376.25" y1="75" x2="376.25" y2="705" stroke="#dddddd" stroke-width="1"/>
<text x="376.25" y="737" text-anchor="middle" font-family="Arial" font-size="16" fill="black">1.470</text>
<line x1="632.50" y1="75" x2="632.50" y2="705" stroke="#dddddd" stroke-width="1"/>
<text x="632.50" y="737" text-anchor="middle" font-family="Arial" font-size="16" fill="black">3.500</text>
<line x1="888.75" y1="75" x2="888.75" y2="705" stroke="#dddddd" stroke-width="1"/>
<text x="888.75" y="737" text-anchor="middle" font-family="Arial" font-size="16" fill="black">5.530</text>
<line x1="1145.00" y1="75" x2="1145.00" y2="705" stroke="#dddddd" stroke-width="1"/>
<text x="1145.00" y="737" text-anchor="middle" font-family="Arial" font-size="16" fill="black">7.560</text>
<line x1="120" y1="705.00" x2="1145" y2="705.00" stroke="#dddddd" stroke-width="1"/>
<text x="104" y="710.00" text-anchor="end" font-family="Arial" font-size="16" fill="black">-1.294</text>
<line x1="120" y1="547.50" x2="1145" y2="547.50" stroke="#dddddd" stroke-width="1"/>
<text x="104" y="552.50" text-anchor="end" font-family="Arial" font-size="16" fill="black">-0.128</text>
<line x1="120" y1="390.00" x2="1145" y2="390.00" stroke="#dddddd" stroke-width="1"/>
<text x="104" y="395.00" text-anchor="end" font-family="Arial" font-size="16" fill="black">1.038</text>
<line x1="120" y1="232.50" x2="1145" y2="232.50" stroke="#dddddd" stroke-width="1"/>
<text x="104" y="237.50" text-anchor="end" font-family="Arial" font-size="16" fill="black">2.205</text>
<line x1="120" y1="75.00" x2="1145" y2="75.00" stroke="#dddddd" stroke-width="1"/>
<text x="104" y="80.00" text-anchor="end" font-family="Arial" font-size="16" fill="black">3.371</text>
<rect x="120" y="75" width="1025" height="630" fill="none" stroke="black" stroke-width="2"/>
<text x="632.5" y="785" text-anchor="middle" font-family="Arial" font-size="20" fill="black">x coordinate [m]</text>
<text x="34" y="390.0" transform="rotate(-90 34 390.0)" text-anchor="middle" font-family="Arial" font-size="20" fill="black">vorticity:2 [SI]</text>
<polyline points="190.69,118.45 193.64,170.36 196.58,222.29 199.53,274.20 202.47,326.11 205.42,378.12 208.36,430.16 211.31,482.20 214.25,534.24 217.20,563.69 220.14,563.03 223.09,562.37 226.03,561.71 228.98,560.92 231.93,559.40 234.87,557.88 237.82,556.35 240.76,554.83 243.71,553.74 246.65,552.74 249.60,551.73 252.54,550.72 255.49,550.56 258.43,551.03 261.38,551.50 264.32,551.98 267.27,553.45 270.22,557.45 273.16,561.44 276.11,565.44 279.05,569.44 282.00,583.08 284.94,596.72 287.89,610.36 290.83,624.01 293.78,634.37 296.72,643.43 299.67,652.49 302.62,661.55 305.56,660.73 308.51,646.74 311.45,632.74 314.40,618.75 317.34,604.59 320.29,589.45 323.23,574.31 326.17,559.16 329.13,544.02 332.07,539.64 335.01,537.06 337.96,534.48 340.91,531.89 343.85,530.72 346.80,530.61 349.74,530.49 352.68,530.38 355.64,530.29 358.58,530.28 361.52,530.27 364.47,530.26 367.41,530.24 370.35,530.24 373.31,530.24 376.25,530.24 379.19,530.24 382.15,530.27 385.09,530.30 388.03,530.33 390.98,530.35 393.92,530.67 396.86,531.36 399.82,532.06 402.76,532.75 405.70,533.21 408.65,532.22 411.59,531.24 414.54,530.25 417.49,529.27 420.43,527.95 423.37,526.58 426.33,525.21 429.27,523.84 432.21,524.04 435.16,525.41 438.10,526.79 441.04,528.16 444.00,529.34 446.94,530.02 449.88,530.70 452.83,531.39 455.78,532.07 458.72,530.42 461.67,528.77 464.61,527.12 467.55,525.47 470.51,523.85 473.45,522.25 476.39,520.65 479.34,519.05 482.28,517.95 485.23,517.53 488.18,517.11 491.12,516.69 494.06,516.35 497.02,516.54 499.96,516.72 502.90,516.90 505.85,517.09 508.79,517.71 511.73,518.41 514.69,519.11 517.63,519.80 520.57,520.64 523.52,521.60 526.47,522.55 529.41,523.50 532.36,524.31 535.30,524.80 538.24,525.28 541.20,525.76 544.14,526.24 547.08,525.75 550.03,525.27 552.97,524.79 555.92,524.30 558.87,525.25 561.81,526.76 564.75,528.28 567.71,529.80 570.65,531.63 573.59,533.89 576.54,536.16 579.48,538.42 582.42,540.21 585.38,539.19 588.32,538.18 591.26,537.17 594.21,536.15 597.16,534.88 600.10,533.56 603.05,532.24 605.99,530.92 608.93,530.34 611.89,530.32 614.83,530.29 617.77,530.27 620.72,530.25 623.66,530.26 626.60,530.26 629.56,530.27 632.50,530.27 635.44,530.28 638.40,530.28 641.34,530.28 644.28,530.28 647.23,530.17 650.17,530.02 653.11,529.86 656.07,529.71 659.01,526.62 661.95,519.63 664.90,512.64 667.84,505.65 670.79,499.06 673.74,494.86 676.68,490.66 679.62,486.46 682.58,482.26 685.52,489.92 688.46,499.55 691.41,509.18 694.35,518.81 697.29,526.88 700.25,533.78 703.19,540.68 706.13,547.58 709.08,552.18 712.03,551.03 714.97,549.88 717.92,548.73 720.86,547.58 723.80,545.01 726.76,542.44 729.70,539.87 732.64,537.30 735.59,534.26 738.53,531.03 741.48,527.80 744.43,524.57 747.37,521.53 750.31,518.76 753.27,515.98 756.21,513.20 759.15,510.65 762.10,509.51 765.04,508.37 767.98,507.23 770.94,506.09 773.88,506.54 776.82,507.27 779.77,507.99 782.72,508.71 785.66,510.04 788.61,511.83 791.55,513.62 794.49,515.40 797.45,516.79 800.39,517.18 803.33,517.58 806.28,517.97 809.22,518.36 812.17,516.98 815.12,515.60 818.06,514.22 821.00,512.84 823.96,519.59 826.90,529.58 829.84,539.57 832.79,549.56 835.73,560.97 838.67,574.28 841.63,587.58 844.57,600.89 847.51,611.16 850.46,603.16 853.41,595.17 856.35,587.18 859.30,579.19 862.24,568.75 865.18,557.91 868.14,547.07 871.08,536.22 874.02,531.40 876.97,531.08 879.91,530.76 882.85,530.44 885.81,530.21 888.75,530.21 891.69,530.20 894.65,530.20 897.59,530.20 900.53,530.21 903.48,530.21 906.42,530.22 909.36,530.22 912.32,530.30 915.26,530.40 918.20,530.50 921.15,530.60 924.09,532.22 927.04,535.87 929.99,539.51 932.93,543.16 935.87,547.02 938.83,552.12 941.77,557.23 944.71,562.33 947.66,567.44 950.60,568.22 953.54,568.29 956.50,568.35 959.44,568.42 962.38,565.85 965.33,561.32 968.28,556.78 971.22,552.25 974.17,547.58 977.11,542.57 980.05,537.56 983.01,532.56 985.95,527.55 988.89,524.80 991.84,522.05 994.78,519.30 997.73,516.55 1000.68,514.93 1003.62,513.78 1006.56,512.62 1009.52,511.46 1012.46,510.50 1015.40,509.81 1018.35,509.12 1021.29,508.43 1024.23,507.74 1027.19,507.03 1030.13,506.31 1033.07,505.60 1036.02,504.89 1038.97,503.80 1041.91,502.63 1044.86,501.47 1047.80,500.31 1050.74,492.91 1053.70,480.83 1056.64,468.75 1059.58,456.67 1062.53,444.81 1065.47,433.50 1068.42,422.20 1071.37,410.89 1074.31,399.58" fill="none" stroke="#000000" stroke-width="3"/>
<line x1="142" y1="100" x2="178" y2="100" stroke="#000000" stroke-width="4"/>
<text x="188" y="105" font-family="Arial" font-size="18" fill="black">vorticity:2</text>
</svg>