<svg xmlns="http://www.w3.org/2000/svg" width="1200" height="820" viewBox="0 0 1200 820">
<rect width="100%" height="100%" fill="white"/>
<text x="600.0" y="36" text-anchor="middle" font-family="Arial" font-size="24" fill="black">profile_center_z: alphat</text>
<line x1="120.00" y1="75" x2="120.00" y2="705" stroke="#dddddd" stroke-width="1"/>
<text x="120.00" y="737" text-anchor="middle" font-family="Arial" font-size="16" fill="black">-0.240</text>
<line x1="376.25" y1="75" x2="376.25" y2="705" stroke="#dddddd" stroke-width="1"/>
<text x="376.25" y="737" text-anchor="middle" font-family="Arial" font-size="16" fill="black">0.630</text>
<line x1="632.50" y1="75" x2="632.50" y2="705" stroke="#dddddd" stroke-width="1"/>
<text x="632.50" y="737" text-anchor="middle" font-family="Arial" font-size="16" fill="black">1.500</text>
<line x1="888.75" y1="75" x2="888.75" y2="705" stroke="#dddddd" stroke-width="1"/>
<text x="888.75" y="737" text-anchor="middle" font-family="Arial" font-size="16" fill="black">2.370</text>
<line x1="1145.00" y1="75" x2="1145.00" y2="705" stroke="#dddddd" stroke-width="1"/>
<text x="1145.00" y="737" text-anchor="middle" font-family="Arial" font-size="16" fill="black">3.240</text>
<line x1="120" y1="705.00" x2="1145" y2="705.00" stroke="#dddddd" stroke-width="1"/>
<text x="104" y="710.00" text-anchor="end" font-family="Arial" font-size="16" fill="black">-4.14e-04</text>
<line x1="120" y1="547.50" x2="1145" y2="547.50" stroke="#dddddd" stroke-width="1"/>
<text x="104" y="552.50" text-anchor="end" font-family="Arial" font-size="16" fill="black">0.004</text>
<line x1="120" y1="390.00" x2="1145" y2="390.00" stroke="#dddddd" stroke-width="1"/>
<text x="104" y="395.00" text-anchor="end" font-family="Arial" font-size="16" fill="black">0.009</text>
<line x1="120" y1="232.50" x2="1145" y2="232.50" stroke="#dddddd" stroke-width="1"/>
<text x="104" y="237.50" text-anchor="end" font-family="Arial" font-size="16" fill="black">0.014</text>
<line x1="120" y1="75.00" x2="1145" y2="75.00" stroke="#dddddd" stroke-width="1"/>
<text x="104" y="80.00" text-anchor="end" font-family="Arial" font-size="16" fill="black">0.019</text>
<rect x="120" y="75" width="1025" height="630" fill="none" stroke="black" stroke-width="2"/>
<text x="632.5" y="785" text-anchor="middle" font-family="Arial" font-size="20" fill="black">z coordinate [m]</text>
<text x="34" y="390.0" transform="rotate(-90 34 390.0)" text-anchor="middle" font-family="Arial" font-size="20" fill="black">alphat [SI]</text>
<polyline points="190.69,659.40 193.64,659.46 196.58,659.52 199.53,659.58 202.47,659.63 205.42,659.69 208.36,659.75 211.31,659.81 214.25,659.87 217.20,659.92 220.14,659.98 223.09,660.08 226.03,660.18 228.98,660.28 231.93,660.38 234.87,660.48 237.82,660.58 240.76,660.68 243.71,660.78 246.65,660.88 249.60,660.98 252.54,661.03 255.49,661.09 258.43,661.15 261.38,661.21 264.32,661.26 267.27,661.32 270.22,661.38 273.16,661.44 276.11,661.49 279.05,661.55 282.00,661.54 284.94,661.53 287.89,661.52 290.83,661.52 293.78,661.51 296.72,661.50 299.67,661.49 302.61,661.48 305.56,661.47 308.51,661.46 311.45,661.35 314.40,661.23 317.34,661.12 320.29,661.01 323.23,660.90 326.18,660.78 329.12,660.67 332.07,660.56 335.01,660.44 337.96,660.33 340.91,660.08 343.85,659.83 346.80,659.59 349.74,659.34 352.69,659.09 355.63,658.84 358.58,658.60 361.52,658.35 364.47,658.10 367.41,657.85 370.36,657.41 373.30,656.97 376.25,656.52 379.20,656.08 382.14,655.64 385.09,655.19 388.03,654.75 390.98,654.31 393.92,653.86 396.87,653.42 399.81,651.86 402.76,650.31 405.70,648.75 408.65,647.19 411.59,645.63 414.54,644.08 417.49,642.52 420.43,640.96 423.38,639.41 426.32,637.85 429.27,630.89 432.21,623.92 435.16,616.96 438.10,610.00 441.05,603.04 443.99,596.07 446.94,589.11 449.89,582.15 452.83,575.18 455.78,568.22 458.72,556.27 461.67,544.32 464.61,532.37 467.56,520.41 470.50,508.46 473.45,496.51 476.39,484.56 479.34,472.61 482.28,460.66 485.23,448.70 488.18,437.57 491.12,426.44 494.07,415.30 497.01,404.17 499.96,393.03 502.90,381.90 505.85,370.77 508.79,359.64 511.74,348.51 514.68,337.37 517.63,329.46 520.57,321.58 523.52,313.70 526.47,305.79 529.41,297.91 532.36,290.00 535.30,282.12 538.25,274.24 541.19,266.33 544.14,258.45 547.08,253.70 550.03,248.98 552.97,244.22 555.92,239.50 558.86,234.75 561.81,230.03 564.76,225.27 567.70,220.55 570.65,215.80 573.59,211.05 576.54,208.54 579.48,206.03 582.43,203.49 585.37,200.98 588.32,198.44 591.26,195.94 594.21,193.40 597.16,190.89 600.10,188.38 603.05,185.84 605.99,184.64 608.94,183.44 611.88,182.20 614.83,180.99 617.77,179.79 620.72,178.58 623.66,177.35 626.61,176.14 629.55,174.94 632.50,173.73 635.45,172.92 638.39,172.14 641.34,171.36 644.28,170.54 647.23,169.76 650.17,168.95 653.12,168.17 656.06,167.38 659.01,166.57 661.95,165.79 664.90,164.94 667.84,164.10 670.79,163.25 673.74,162.40 676.68,161.56 679.63,160.71 682.57,159.86 685.52,159.02 688.46,158.17 691.41,157.32 694.35,156.35 697.30,155.37 700.24,154.43 703.19,153.45 706.14,152.47 709.08,151.53 712.03,150.55 714.97,149.57 717.92,148.63 720.86,147.65 723.81,146.68 726.75,145.73 729.70,144.76 732.64,143.78 735.59,142.80 738.53,141.86 741.48,140.88 744.43,139.90 747.37,138.93 750.32,137.98 753.26,137.10 756.21,136.23 759.15,135.38 762.10,134.50 765.04,133.65 767.99,132.77 770.93,131.90 773.88,131.05 776.82,130.17 779.77,129.29 782.72,128.61 785.66,127.89 788.61,127.21 791.55,126.49 794.50,125.77 797.44,125.09 800.39,124.37 803.33,123.69 806.28,122.97 809.22,122.26 812.17,121.90 815.11,121.51 818.06,121.12 821.01,120.76 823.95,120.37 826.90,119.98 829.84,119.59 832.79,119.23 835.73,118.84 838.68,118.45 841.62,118.71 844.57,118.94 847.51,119.20 850.46,119.43 853.41,119.69 856.35,119.91 859.30,120.17 862.24,120.43 865.19,120.66 868.13,120.92 871.08,122.19 874.02,123.46 876.97,124.73 879.91,126.03 882.86,127.30 885.80,128.57 888.75,129.84 891.70,131.15 894.64,132.42 897.59,133.69 900.53,136.49 903.48,139.29 906.42,142.09 909.37,144.89 912.31,147.69 915.26,150.45 918.20,153.25 921.15,156.05 924.09,158.85 927.04,161.65 929.99,166.60 932.93,171.55 935.88,176.53 938.82,181.48 941.77,186.43 944.71,191.41 947.66,196.36 950.60,201.31 953.55,206.29 956.49,211.24 959.44,219.28 962.39,227.32 965.33,235.37 968.28,243.41 971.22,251.48 974.17,259.52 977.11,267.57 980.06,275.61 983.00,283.65 985.95,291.69 988.89,304.00 991.84,316.31 994.78,328.65 997.73,340.95 1000.68,353.26 1003.62,365.57 1006.57,377.88 1009.51,390.19 1012.46,402.50 1015.40,414.81 1018.35,430.59 1021.29,446.37 1024.24,462.16 1027.18,477.94 1030.13,493.73 1033.07,509.51 1036.02,525.29 1038.97,541.08 1041.91,556.86 1044.86,572.64 1047.80,581.05 1050.75,589.45 1053.69,597.85 1056.64,606.26 1059.58,614.66 1062.53,623.06 1065.47,631.47 1068.42,639.87 1071.36,648.27 1074.31,656.68" fill="none" stroke="#000000" stroke-width="3"/>
<line x1="142" y1="100" x2="178" y2="100" stroke="#000000" stroke-width="4"/>
<text x="188" y="105" font-family="Arial" font-size="18" fill="black">alphat</text>
</svg>