<svg xmlns="http://www.w3.org/2000/svg" width="1200" height="820" viewBox="0 0 1200 820">
<rect width="100%" height="100%" fill="white"/>
<text x="600.0" y="36" text-anchor="middle" font-family="Arial" font-size="24" fill="black">profile_diagonal_supply_return: k</text>
<line x1="120.00" y1="75" x2="120.00" y2="705" stroke="#dddddd" stroke-width="1"/>
<text x="120.00" y="737" text-anchor="middle" font-family="Arial" font-size="16" fill="black">-0.729</text>
<line x1="376.25" y1="75" x2="376.25" y2="705" stroke="#dddddd" stroke-width="1"/>
<text x="376.25" y="737" text-anchor="middle" font-family="Arial" font-size="16" fill="black">1.913</text>
<line x1="632.50" y1="75" x2="632.50" y2="705" stroke="#dddddd" stroke-width="1"/>
<text x="632.50" y="737" text-anchor="middle" font-family="Arial" font-size="16" fill="black">4.555</text>
<line x1="888.75" y1="75" x2="888.75" y2="705" stroke="#dddddd" stroke-width="1"/>
<text x="888.75" y="737" text-anchor="middle" font-family="Arial" font-size="16" fill="black">7.197</text>
<line x1="1145.00" y1="75" x2="1145.00" y2="705" stroke="#dddddd" stroke-width="1"/>
<text x="1145.00" y="737" text-anchor="middle" font-family="Arial" font-size="16" fill="black">9.839</text>
<line x1="120" y1="705.00" x2="1145" y2="705.00" stroke="#dddddd" stroke-width="1"/>
<text x="104" y="710.00" text-anchor="end" font-family="Arial" font-size="16" fill="black">-3.90e-04</text>
<line x1="120" y1="547.50" x2="1145" y2="547.50" stroke="#dddddd" stroke-width="1"/>
<text x="104" y="552.50" text-anchor="end" font-family="Arial" font-size="16" fill="black">0.006</text>
<line x1="120" y1="390.00" x2="1145" y2="390.00" stroke="#dddddd" stroke-width="1"/>
<text x="104" y="395.00" text-anchor="end" font-family="Arial" font-size="16" fill="black">0.012</text>
<line x1="120" y1="232.50" x2="1145" y2="232.50" stroke="#dddddd" stroke-width="1"/>
<text x="104" y="237.50" text-anchor="end" font-family="Arial" font-size="16" fill="black">0.019</text>
<line x1="120" y1="75.00" x2="1145" y2="75.00" stroke="#dddddd" stroke-width="1"/>
<text x="104" y="80.00" text-anchor="end" font-family="Arial" font-size="16" fill="black">0.025</text>
<rect x="120" y="75" width="1025" height="630" fill="none" stroke="black" stroke-width="2"/>
<text x="632.5" y="785" text-anchor="middle" font-family="Arial" font-size="20" fill="black">distance along sample line [m]</text>
<text x="34" y="390.0" transform="rotate(-90 34 390.0)" text-anchor="middle" font-family="Arial" font-size="20" fill="black">k [m2/s2]</text>
<polyline points="190.69,647.99 193.64,646.39 196.58,644.58 199.53,642.54 202.47,640.23 205.42,636.91 208.36,632.80 211.31,626.74 214.25,619.75 217.20,612.15 220.14,604.18 223.09,594.92 226.03,584.82 228.98,575.33 231.93,566.29 234.87,556.67 237.82,546.46 240.76,535.64 243.71,525.42 246.65,516.19 249.60,506.48 252.54,499.46 255.49,493.12 258.43,487.26 261.38,481.24 264.32,476.15 267.27,471.23 270.22,467.00 273.16,462.59 276.11,457.99 279.05,453.19 282.00,450.52 284.94,447.68 287.88,444.65 290.83,441.44 293.78,438.53 296.73,435.64 299.67,433.48 302.62,431.14 305.57,428.80 308.50,426.58 311.45,423.62 314.40,420.44 317.34,417.97 320.29,415.61 323.24,412.99 326.18,410.11 329.12,406.94 332.07,403.71 335.01,401.19 337.96,398.43 340.91,394.55 343.85,390.42 346.80,386.08 349.74,381.48 352.68,377.50 355.63,373.24 358.58,368.83 361.53,364.20 364.47,359.38 367.42,354.32 370.36,349.17 373.30,343.89 376.25,338.47 379.20,332.94 382.14,327.36 385.09,321.76 388.04,316.49 390.97,311.21 393.92,306.08 396.87,301.23 399.81,296.37 402.76,291.79 405.71,287.61 408.65,284.20 411.59,281.24 414.54,278.70 417.48,276.61 420.43,275.49 423.38,275.14 426.32,275.52 429.27,277.11 432.21,279.87 435.16,283.75 438.10,288.51 441.05,295.08 444.00,302.42 446.94,310.51 449.89,318.90 452.84,327.54 455.77,336.35 458.72,341.83 461.67,345.83 464.61,348.35 467.56,349.32 470.51,347.88 473.45,344.52 476.39,333.41 479.34,321.22 482.28,307.85 485.23,293.79 488.18,279.75 491.12,265.66 494.07,256.50 497.01,248.96 499.96,242.41 502.90,236.88 505.85,232.33 508.80,229.12 511.74,231.68 514.69,234.42 517.63,236.96 520.57,239.32 523.52,241.51 526.47,243.68 529.41,246.32 532.36,248.68 535.31,250.55 538.24,252.47 541.19,254.43 544.14,256.42 547.08,257.15 550.03,257.97 552.98,258.86 555.92,259.81 558.86,260.16 561.81,260.21 564.76,260.36 567.70,260.53 570.65,260.06 573.60,258.59 576.54,255.60 579.49,252.19 582.43,248.46 585.37,242.61 588.32,236.34 591.27,229.61 594.21,222.42 597.16,213.31 600.11,204.28 603.04,195.02 605.99,184.93 608.94,174.90 611.88,165.24 614.83,155.94 617.78,147.17 620.72,139.43 623.66,133.81 626.61,128.75 629.55,124.27 632.50,120.34 635.45,119.34 638.40,118.72 641.34,118.45 644.28,118.57 647.23,120.49 650.17,123.35 653.12,124.90 656.07,127.06 659.01,130.52 661.96,135.60 664.90,141.75 667.84,148.27 670.79,155.74 673.74,163.68 676.68,171.72 679.63,179.78 682.58,187.77 685.51,194.17 688.46,200.82 691.41,206.64 694.35,211.17 697.30,214.06 700.25,215.53 703.20,216.20 706.14,215.87 709.08,214.68 712.03,212.89 714.97,210.50 717.92,207.51 720.87,203.98 723.81,201.26 726.76,198.40 729.70,195.39 732.64,192.30 735.59,189.44 738.54,186.65 741.48,183.84 744.43,181.05 747.38,178.34 750.31,175.60 753.26,174.48 756.21,173.38 759.15,172.21 762.10,170.62 765.05,168.88 767.99,167.01 770.93,165.02 773.88,162.58 776.83,159.64 779.77,156.46 782.72,154.27 785.67,151.80 788.61,149.07 791.55,146.00 794.50,142.64 797.44,139.26 800.39,136.20 803.34,132.91 806.28,129.38 809.23,125.57 812.17,125.54 815.11,125.52 818.06,125.44 821.01,125.37 823.95,127.63 826.90,130.89 829.85,135.95 832.79,141.03 835.73,147.72 838.68,156.51 841.63,165.79 844.57,175.03 847.52,185.36 850.47,196.96 853.41,208.06 856.35,218.71 859.30,229.02 862.24,238.48 865.19,246.91 868.14,254.81 871.08,261.55 874.03,266.73 876.97,270.84 879.91,274.77 882.86,278.85 885.81,282.19 888.75,284.00 891.70,285.90 894.65,287.86 897.58,289.95 900.53,289.31 903.48,288.86 906.43,288.58 909.37,288.56 912.32,286.92 915.27,285.02 918.20,283.08 921.15,281.46 924.10,279.37 927.04,276.74 929.99,273.60 932.94,271.18 935.88,268.05 938.82,265.36 941.77,263.32 944.71,261.87 947.66,260.98 950.61,261.58 953.55,260.78 956.50,260.26 959.44,260.16 962.38,261.48 965.33,263.74 968.28,266.16 971.22,266.45 974.17,267.38 977.12,269.77 980.06,272.08 983.00,274.32 985.95,276.39 988.90,281.24 991.84,286.09 994.79,290.90 997.74,295.73 1000.68,304.71 1003.62,316.39 1006.57,330.25 1009.51,345.93 1012.46,364.23 1015.41,385.11 1018.35,412.54 1021.30,441.29 1024.24,472.23 1027.18,495.30 1030.13,517.34 1033.08,538.37 1036.02,558.39 1038.97,573.87 1041.92,589.79 1044.86,603.99 1047.80,615.50 1050.75,625.21 1053.70,633.51 1056.64,640.91 1059.59,646.42 1062.54,650.90 1065.47,653.94 1068.42,656.71 1071.37,659.24 1074.31,661.55" fill="none" stroke="#000000" stroke-width="3"/>
<line x1="142" y1="100" x2="178" y2="100" stroke="#000000" stroke-width="4"/>
<text x="188" y="105" font-family="Arial" font-size="18" fill="black">k</text>
</svg>