<svg xmlns="http://www.w3.org/2000/svg" width="1200" height="820" viewBox="0 0 1200 820">
<rect width="100%" height="100%" fill="white"/>
<text x="600.0" y="36" text-anchor="middle" font-family="Arial" font-size="24" fill="black">profile_near_floor_x: p</text>
<line x1="120.00" y1="75" x2="120.00" y2="705" stroke="#dddddd" stroke-width="1"/>
<text x="120.00" y="737" text-anchor="middle" font-family="Arial" font-size="16" fill="black">-0.560</text>
<line x1="376.25" y1="75" x2="376.25" y2="705" stroke="#dddddd" stroke-width="1"/>
<text x="376.25" y="737" text-anchor="middle" font-family="Arial" font-size="16" fill="black">1.470</text>
<line x1="632.50" y1="75" x2="632.50" y2="705" stroke="#dddddd" stroke-width="1"/>
<text x="632.50" y="737" text-anchor="middle" font-family="Arial" font-size="16" fill="black">3.500</text>
<line x1="888.75" y1="75" x2="888.75" y2="705" stroke="#dddddd" stroke-width="1"/>
<text x="888.75" y="737" text-anchor="middle" font-family="Arial" font-size="16" fill="black">5.530</text>
<line x1="1145.00" y1="75" x2="1145.00" y2="705" stroke="#dddddd" stroke-width="1"/>
<text x="1145.00" y="737" text-anchor="middle" font-family="Arial" font-size="16" fill="black">7.560</text>
<line x1="120" y1="705.00" x2="1145" y2="705.00" stroke="#dddddd" stroke-width="1"/>
<text x="104" y="710.00" text-anchor="end" font-family="Arial" font-size="16" fill="black">-1.234</text>
<line x1="120" y1="547.50" x2="1145" y2="547.50" stroke="#dddddd" stroke-width="1"/>
<text x="104" y="552.50" text-anchor="end" font-family="Arial" font-size="16" fill="black">-1.205</text>
<line x1="120" y1="390.00" x2="1145" y2="390.00" stroke="#dddddd" stroke-width="1"/>
<text x="104" y="395.00" text-anchor="end" font-family="Arial" font-size="16" fill="black">-1.176</text>
<line x1="120" y1="232.50" x2="1145" y2="232.50" stroke="#dddddd" stroke-width="1"/>
<text x="104" y="237.50" text-anchor="end" font-family="Arial" font-size="16" fill="black">-1.147</text>
<line x1="120" y1="75.00" x2="1145" y2="75.00" stroke="#dddddd" stroke-width="1"/>
<text x="104" y="80.00" text-anchor="end" font-family="Arial" font-size="16" fill="black">-1.119</text>
<rect x="120" y="75" width="1025" height="630" fill="none" stroke="black" stroke-width="2"/>
<text x="632.5" y="785" text-anchor="middle" font-family="Arial" font-size="20" fill="black">x coordinate [m]</text>
<text x="34" y="390.0" transform="rotate(-90 34 390.0)" text-anchor="middle" font-family="Arial" font-size="20" fill="black">p [Pa]</text>
<polyline points="190.69,622.76 193.64,626.04 196.58,629.32 199.53,632.59 202.47,635.33 205.42,639.70 208.36,643.52 211.31,647.89 214.25,652.26 217.20,655.54 220.14,657.18 223.09,658.82 226.03,660.46 228.98,661.55 231.93,661.01 234.87,661.01 237.82,660.46 240.76,660.46 243.71,658.27 246.65,655.54 249.60,653.36 252.54,650.62 255.49,647.89 258.43,645.16 261.38,641.88 264.32,639.15 267.27,636.96 270.22,635.87 273.16,634.78 276.11,633.69 279.05,632.59 282.00,633.14 284.94,634.23 287.89,634.78 290.83,635.33 293.78,636.42 296.72,637.51 299.67,638.60 302.62,639.70 305.56,629.32 308.51,603.64 311.45,577.96 314.40,552.28 317.34,523.86 320.29,479.06 323.23,434.80 326.17,390.00 329.13,345.74 332.07,315.69 335.01,287.83 337.96,259.96 340.91,232.64 343.85,211.88 346.80,196.03 349.74,180.74 352.68,164.89 355.64,151.78 358.58,144.13 361.52,136.48 364.47,129.38 367.41,121.73 370.35,120.63 373.31,120.09 376.25,119.54 379.19,118.45 382.15,122.82 385.09,128.83 388.03,134.84 390.98,140.85 393.92,148.50 396.86,158.33 399.82,167.62 402.76,177.46 405.70,189.48 408.65,214.61 411.59,239.75 414.54,265.42 417.49,290.56 420.43,309.68 423.37,328.26 426.33,346.29 429.27,364.32 432.21,367.60 435.16,359.95 438.10,351.75 441.04,344.10 444.00,335.36 446.94,324.43 449.88,312.96 452.83,302.03 455.78,291.10 458.72,282.91 461.67,275.26 464.61,267.61 467.55,259.96 470.51,256.68 473.45,255.04 476.39,253.40 479.34,252.31 482.28,252.31 485.23,253.95 488.18,256.14 491.12,257.78 494.06,259.41 497.02,260.51 499.96,261.60 502.90,262.15 505.85,263.24 508.79,262.15 511.73,260.51 514.69,258.87 517.63,257.23 520.57,255.59 523.52,253.95 526.47,252.31 529.41,250.67 532.36,249.58 535.30,249.58 538.24,249.58 541.20,249.58 544.14,249.58 547.08,250.67 550.03,252.31 552.97,253.40 555.92,255.04 558.87,257.78 561.81,261.60 564.75,265.42 567.71,268.70 570.65,267.06 573.59,257.78 576.54,248.49 579.48,239.20 582.42,229.91 585.38,218.44 588.32,206.96 591.26,195.49 594.21,184.01 597.16,180.74 600.10,178.55 603.05,176.91 605.99,174.73 608.93,172.54 611.89,169.26 614.83,165.98 617.77,163.25 620.72,161.07 623.66,161.07 626.60,161.07 629.56,161.07 632.50,161.07 635.44,164.89 638.40,168.17 641.34,171.45 644.28,174.73 647.23,182.37 650.17,191.12 653.11,199.86 656.07,209.15 659.01,218.44 661.95,228.82 664.90,239.75 667.84,250.13 670.79,262.69 673.74,288.37 676.68,314.60 679.62,340.83 682.58,366.51 685.52,389.45 688.46,411.31 691.41,433.16 694.35,455.02 697.29,463.76 700.25,462.67 703.19,461.03 706.13,459.94 709.08,456.66 712.03,448.46 714.97,440.27 717.92,432.07 720.86,423.88 723.80,410.22 726.76,397.10 729.70,383.44 732.64,370.33 735.59,358.86 738.53,347.93 741.48,337.00 744.43,326.07 747.37,317.33 750.31,310.77 753.27,304.22 756.21,298.21 759.15,292.20 762.10,288.37 765.04,284.55 767.98,280.72 770.94,276.90 773.88,274.17 776.82,270.89 779.77,268.16 782.72,265.42 785.66,262.69 788.61,259.41 791.55,256.68 794.49,253.95 797.45,251.22 800.39,249.03 803.33,246.85 806.28,244.12 809.22,241.93 812.17,241.38 815.12,240.84 818.06,240.29 821.00,239.75 823.96,242.48 826.90,246.30 829.84,250.67 832.79,254.50 835.73,252.31 838.67,241.93 841.63,232.10 844.57,221.71 847.51,210.79 850.46,197.67 853.41,184.56 856.35,171.45 859.30,158.33 862.24,155.60 865.18,154.51 868.14,153.96 871.08,152.87 874.02,151.23 876.97,149.05 879.91,147.41 882.85,145.22 885.81,144.13 888.75,144.67 891.69,145.77 894.65,146.31 897.59,147.41 900.53,150.14 903.48,152.87 906.42,155.60 909.36,158.33 912.32,163.25 915.26,169.26 918.20,175.27 921.15,181.83 924.09,189.48 927.04,198.77 929.99,208.60 932.93,217.89 935.87,229.36 938.83,254.50 941.77,279.08 944.71,303.67 947.66,328.26 950.60,345.74 953.54,361.59 956.50,377.98 959.44,393.82 962.38,397.10 965.33,391.09 968.28,385.08 971.22,379.07 974.17,373.61 977.11,369.78 980.05,365.41 983.01,361.59 985.95,357.76 988.89,357.22 991.84,356.67 994.78,356.12 997.73,356.12 1000.68,357.22 1003.62,359.40 1006.56,361.04 1009.52,363.23 1012.46,365.41 1015.40,367.60 1018.35,370.33 1021.29,372.52 1024.23,375.25 1027.19,377.43 1030.13,379.62 1033.07,381.80 1036.02,383.99 1038.97,385.63 1041.91,387.27 1044.86,388.91 1047.80,391.09 1050.74,392.19 1053.70,392.73 1056.64,393.82 1059.58,394.37 1062.53,394.92 1065.47,394.92 1068.42,395.46 1071.37,395.46 1074.31,395.46" fill="none" stroke="#000000" stroke-width="3"/>
<line x1="142" y1="100" x2="178" y2="100" stroke="#000000" stroke-width="4"/>
<text x="188" y="105" font-family="Arial" font-size="18" fill="black">p</text>
</svg>