<svg xmlns="http://www.w3.org/2000/svg" width="1200" height="820" viewBox="0 0 1200 820">
<rect width="100%" height="100%" fill="white"/>
<text x="600.0" y="36" text-anchor="middle" font-family="Arial" font-size="24" fill="black">profile_center_z: vorticity:0</text>
<line x1="120.00" y1="75" x2="120.00" y2="705" stroke="#dddddd" stroke-width="1"/>
<text x="120.00" y="737" text-anchor="middle" font-family="Arial" font-size="16" fill="black">-0.240</text>
<line x1="376.25" y1="75" x2="376.25" y2="705" stroke="#dddddd" stroke-width="1"/>
<text x="376.25" y="737" text-anchor="middle" font-family="Arial" font-size="16" fill="black">0.630</text>
<line x1="632.50" y1="75" x2="632.50" y2="705" stroke="#dddddd" stroke-width="1"/>
<text x="632.50" y="737" text-anchor="middle" font-family="Arial" font-size="16" fill="black">1.500</text>
<line x1="888.75" y1="75" x2="888.75" y2="705" stroke="#dddddd" stroke-width="1"/>
<text x="888.75" y="737" text-anchor="middle" font-family="Arial" font-size="16" fill="black">2.370</text>
<line x1="1145.00" y1="75" x2="1145.00" y2="705" stroke="#dddddd" stroke-width="1"/>
<text x="1145.00" y="737" text-anchor="middle" font-family="Arial" font-size="16" fill="black">3.240</text>
<line x1="120" y1="705.00" x2="1145" y2="705.00" stroke="#dddddd" stroke-width="1"/>
<text x="104" y="710.00" text-anchor="end" font-family="Arial" font-size="16" fill="black">-0.579</text>
<line x1="120" y1="547.50" x2="1145" y2="547.50" stroke="#dddddd" stroke-width="1"/>
<text x="104" y="552.50" text-anchor="end" font-family="Arial" font-size="16" fill="black">-0.113</text>
<line x1="120" y1="390.00" x2="1145" y2="390.00" stroke="#dddddd" stroke-width="1"/>
<text x="104" y="395.00" text-anchor="end" font-family="Arial" font-size="16" fill="black">0.354</text>
<line x1="120" y1="232.50" x2="1145" y2="232.50" stroke="#dddddd" stroke-width="1"/>
<text x="104" y="237.50" text-anchor="end" font-family="Arial" font-size="16" fill="black">0.820</text>
<line x1="120" y1="75.00" x2="1145" y2="75.00" stroke="#dddddd" stroke-width="1"/>
<text x="104" y="80.00" text-anchor="end" font-family="Arial" font-size="16" fill="black">1.286</text>
<rect x="120" y="75" width="1025" height="630" fill="none" stroke="black" stroke-width="2"/>
<text x="632.5" y="785" text-anchor="middle" font-family="Arial" font-size="20" fill="black">z coordinate [m]</text>
<text x="34" y="390.0" transform="rotate(-90 34 390.0)" text-anchor="middle" font-family="Arial" font-size="20" fill="black">vorticity:0 [SI]</text>
<polyline points="190.69,536.07 193.64,535.61 196.58,535.15 199.53,534.69 202.47,534.22 205.42,533.76 208.36,533.30 211.31,532.84 214.25,532.37 217.20,531.91 220.14,531.45 223.09,530.97 226.03,530.49 228.98,530.01 231.93,529.53 234.87,529.05 237.82,528.57 240.76,528.09 243.71,527.61 246.65,527.13 249.60,526.66 252.54,526.63 255.49,526.60 258.43,526.58 261.38,526.55 264.32,526.52 267.27,526.50 270.22,526.47 273.16,526.45 276.11,526.42 279.05,526.39 282.00,526.39 284.94,526.38 287.89,526.37 290.83,526.37 293.78,526.36 296.72,526.35 299.67,526.35 302.61,526.34 305.56,526.33 308.51,526.33 311.45,526.35 314.40,526.38 317.34,526.41 320.29,526.44 323.23,526.46 326.18,526.49 329.12,526.52 332.07,526.54 335.01,526.57 337.96,526.60 340.91,526.64 343.85,526.69 346.80,526.74 349.74,526.78 352.69,526.83 355.63,526.87 358.58,526.92 361.52,526.96 364.47,527.01 367.41,527.05 370.36,526.78 373.30,526.51 376.25,526.23 379.20,525.96 382.14,525.69 385.09,525.42 388.03,525.14 390.98,524.87 393.92,524.60 396.87,524.33 399.81,522.56 402.76,520.80 405.70,519.03 408.65,517.27 411.59,515.51 414.54,513.74 417.49,511.98 420.43,510.21 423.38,508.45 426.32,506.68 429.27,504.20 432.21,501.72 435.16,499.25 438.10,496.77 441.05,494.29 443.99,491.81 446.94,489.33 449.89,486.85 452.83,484.37 455.78,481.89 458.72,481.89 461.67,481.89 464.61,481.89 467.56,481.89 470.50,481.89 473.45,481.89 476.39,481.89 479.34,481.89 482.28,481.89 485.23,481.89 488.18,483.48 491.12,485.08 494.07,486.67 497.01,488.27 499.96,489.86 502.90,491.45 505.85,493.05 508.79,494.64 511.74,496.24 514.68,497.83 517.63,498.37 520.57,498.91 523.52,499.45 526.47,500.00 529.41,500.54 532.36,501.08 535.30,501.62 538.25,502.16 541.19,502.70 544.14,503.24 547.08,502.80 550.03,502.36 552.97,501.91 555.92,501.47 558.86,501.02 561.81,500.58 564.76,500.13 567.70,499.69 570.65,499.25 573.59,498.80 576.54,497.84 579.48,496.88 582.43,495.91 585.37,494.95 588.32,493.99 591.26,493.02 594.21,492.06 597.16,491.10 600.10,490.13 603.05,489.17 605.99,488.10 608.94,487.03 611.88,485.96 614.83,484.89 617.77,483.82 620.72,482.74 623.66,481.67 626.61,480.60 629.55,479.53 632.50,478.46 635.45,477.67 638.39,476.87 641.34,476.08 644.28,475.28 647.23,474.49 650.17,473.69 653.12,472.90 656.06,472.10 659.01,471.31 661.95,470.51 664.90,470.24 667.84,469.97 670.79,469.69 673.74,469.42 676.68,469.15 679.63,468.87 682.57,468.60 685.52,468.33 688.46,468.05 691.41,467.78 694.35,468.15 697.30,468.52 700.24,468.90 703.19,469.27 706.14,469.64 709.08,470.01 712.03,470.39 714.97,470.76 717.92,471.14 720.86,471.51 723.81,472.57 726.75,473.63 729.70,474.69 732.64,475.75 735.59,476.81 738.53,477.87 741.48,478.93 744.43,479.99 747.37,481.05 750.32,482.11 753.26,483.85 756.21,485.60 759.15,487.35 762.10,489.10 765.04,490.84 767.99,492.59 770.93,494.34 773.88,496.08 776.82,497.83 779.77,499.58 782.72,502.00 785.66,504.42 788.61,506.84 791.55,509.26 794.50,511.69 797.44,514.11 800.39,516.53 803.33,518.95 806.28,521.37 809.22,523.79 812.17,526.78 815.11,529.76 818.06,532.75 821.01,535.73 823.95,538.71 826.90,541.70 829.84,544.69 832.79,547.67 835.73,550.65 838.68,553.64 841.62,556.95 844.57,560.26 847.51,563.57 850.46,566.89 853.41,570.20 856.35,573.51 859.30,576.82 862.24,580.14 865.19,583.45 868.13,586.76 871.08,590.13 874.02,593.49 876.97,596.85 879.91,600.22 882.86,603.58 885.80,606.95 888.75,610.31 891.70,613.68 894.64,617.04 897.59,620.41 900.53,623.20 903.48,625.99 906.42,628.78 909.37,631.57 912.31,634.36 915.26,637.15 918.20,639.94 921.15,642.73 924.09,645.52 927.04,648.31 929.99,649.64 932.93,650.96 935.88,652.28 938.82,653.61 941.77,654.93 944.71,656.26 947.66,657.58 950.60,658.90 953.55,660.23 956.49,661.55 959.44,661.06 962.39,660.57 965.33,660.07 968.28,659.58 971.22,659.09 974.17,658.59 977.11,658.10 980.06,657.61 983.00,657.11 985.95,656.62 988.89,654.43 991.84,652.24 994.78,650.05 997.73,647.85 1000.68,645.66 1003.62,643.47 1006.57,641.28 1009.51,639.09 1012.46,636.89 1015.40,634.70 1018.35,608.14 1021.29,581.57 1024.24,555.01 1027.18,528.44 1030.13,501.88 1033.07,475.32 1036.02,448.75 1038.97,422.19 1041.91,395.62 1044.86,369.05 1047.80,344.00 1050.75,318.94 1053.69,293.87 1056.64,268.81 1059.58,243.75 1062.53,218.69 1065.47,193.63 1068.42,168.57 1071.36,143.51 1074.31,118.45" fill="none" stroke="#000000" stroke-width="3"/>
<line x1="142" y1="100" x2="178" y2="100" stroke="#000000" stroke-width="4"/>
<text x="188" y="105" font-family="Arial" font-size="18" fill="black">vorticity:0</text>
</svg>