<svg xmlns="http://www.w3.org/2000/svg" width="1200" height="820" viewBox="0 0 1200 820">
<rect width="100%" height="100%" fill="white"/>
<text x="600.0" y="36" text-anchor="middle" font-family="Arial" font-size="24" fill="black">profile_center_z: velocity magnitude</text>
<line x1="120.00" y1="75" x2="120.00" y2="705" stroke="#dddddd" stroke-width="1"/>
<text x="120.00" y="737" text-anchor="middle" font-family="Arial" font-size="16" fill="black">-0.240</text>
<line x1="376.25" y1="75" x2="376.25" y2="705" stroke="#dddddd" stroke-width="1"/>
<text x="376.25" y="737" text-anchor="middle" font-family="Arial" font-size="16" fill="black">0.630</text>
<line x1="632.50" y1="75" x2="632.50" y2="705" stroke="#dddddd" stroke-width="1"/>
<text x="632.50" y="737" text-anchor="middle" font-family="Arial" font-size="16" fill="black">1.500</text>
<line x1="888.75" y1="75" x2="888.75" y2="705" stroke="#dddddd" stroke-width="1"/>
<text x="888.75" y="737" text-anchor="middle" font-family="Arial" font-size="16" fill="black">2.370</text>
<line x1="1145.00" y1="75" x2="1145.00" y2="705" stroke="#dddddd" stroke-width="1"/>
<text x="1145.00" y="737" text-anchor="middle" font-family="Arial" font-size="16" fill="black">3.240</text>
<line x1="120" y1="705.00" x2="1145" y2="705.00" stroke="#dddddd" stroke-width="1"/>
<text x="104" y="710.00" text-anchor="end" font-family="Arial" font-size="16" fill="black">-0.025</text>
<line x1="120" y1="547.50" x2="1145" y2="547.50" stroke="#dddddd" stroke-width="1"/>
<text x="104" y="552.50" text-anchor="end" font-family="Arial" font-size="16" fill="black">0.181</text>
<line x1="120" y1="390.00" x2="1145" y2="390.00" stroke="#dddddd" stroke-width="1"/>
<text x="104" y="395.00" text-anchor="end" font-family="Arial" font-size="16" fill="black">0.387</text>
<line x1="120" y1="232.50" x2="1145" y2="232.50" stroke="#dddddd" stroke-width="1"/>
<text x="104" y="237.50" text-anchor="end" font-family="Arial" font-size="16" fill="black">0.594</text>
<line x1="120" y1="75.00" x2="1145" y2="75.00" stroke="#dddddd" stroke-width="1"/>
<text x="104" y="80.00" text-anchor="end" font-family="Arial" font-size="16" fill="black">0.800</text>
<rect x="120" y="75" width="1025" height="630" fill="none" stroke="black" stroke-width="2"/>
<text x="632.5" y="785" text-anchor="middle" font-family="Arial" font-size="20" fill="black">z coordinate [m]</text>
<text x="34" y="390.0" transform="rotate(-90 34 390.0)" text-anchor="middle" font-family="Arial" font-size="20" fill="black">|U| [m/s]</text>
<polyline points="190.69,118.45 193.64,119.37 196.58,120.29 199.53,121.21 202.47,122.13 205.42,123.05 208.36,123.97 211.31,124.88 214.25,125.81 217.20,126.72 220.14,127.64 223.09,130.11 226.03,132.58 228.98,135.04 231.93,137.51 234.87,139.98 237.82,142.45 240.76,144.92 243.71,147.38 246.65,149.84 249.60,152.31 252.54,155.95 255.49,159.58 258.43,163.21 261.38,166.85 264.32,170.48 267.27,174.10 270.22,177.74 273.16,181.37 276.11,185.00 279.05,188.64 282.00,193.38 284.94,198.12 287.89,202.87 290.83,207.61 293.78,212.35 296.72,217.09 299.67,221.84 302.61,226.58 305.56,231.32 308.51,236.07 311.45,242.03 314.40,247.99 317.34,253.95 320.29,259.92 323.23,265.88 326.18,271.85 329.12,277.81 332.07,283.77 335.01,289.74 337.96,295.70 340.91,302.95 343.85,310.20 346.80,317.45 349.74,324.71 352.69,331.96 355.63,339.21 358.58,346.46 361.52,353.71 364.47,360.96 367.41,368.22 370.36,376.65 373.30,385.09 376.25,393.51 379.20,401.95 382.14,410.39 385.09,418.82 388.03,427.26 390.98,435.69 393.92,444.13 396.87,452.56 399.81,462.16 402.76,471.77 405.70,481.36 408.65,490.97 411.59,500.57 414.54,510.17 417.49,519.77 420.43,529.37 423.38,538.98 426.32,548.58 429.27,559.87 432.21,571.17 435.16,582.47 438.10,593.77 441.05,605.06 443.99,616.36 446.94,627.66 449.89,638.96 452.83,650.25 455.78,661.55 458.72,657.37 461.67,653.19 464.61,649.01 467.56,644.83 470.50,640.65 473.45,636.47 476.39,632.28 479.34,628.10 482.28,623.92 485.23,619.74 488.18,615.37 491.12,611.00 494.07,606.64 497.01,602.26 499.96,597.90 502.90,593.53 505.85,589.16 508.79,584.79 511.74,580.43 514.68,576.06 517.63,574.04 520.57,572.02 523.52,570.00 526.47,567.99 529.41,565.97 532.36,563.95 535.30,561.94 538.25,559.93 541.19,557.91 544.14,555.89 547.08,555.69 550.03,555.48 552.97,555.27 555.92,555.07 558.86,554.85 561.81,554.65 564.76,554.44 567.70,554.23 570.65,554.03 573.59,553.82 576.54,554.91 579.48,556.01 582.43,557.10 585.37,558.20 588.32,559.29 591.26,560.38 594.21,561.48 597.16,562.57 600.10,563.67 603.05,564.76 605.99,566.54 608.94,568.33 611.88,570.11 614.83,571.89 617.77,573.68 620.72,575.46 623.66,577.25 626.61,579.03 629.55,580.82 632.50,582.60 635.45,584.46 638.39,586.33 641.34,588.20 644.28,590.06 647.23,591.93 650.17,593.80 653.12,595.66 656.06,597.54 659.01,599.40 661.95,601.26 664.90,602.55 667.84,603.83 670.79,605.11 673.74,606.39 676.68,607.67 679.63,608.96 682.57,610.24 685.52,611.52 688.46,612.80 691.41,614.08 694.35,614.29 697.30,614.49 700.24,614.69 703.19,614.90 706.14,615.10 709.08,615.30 712.03,615.51 714.97,615.71 717.92,615.91 720.86,616.11 723.81,615.39 726.75,614.67 729.70,613.95 732.64,613.23 735.59,612.50 738.53,611.78 741.48,611.06 744.43,610.34 747.37,609.62 750.32,608.89 753.26,607.80 756.21,606.70 759.15,605.62 762.10,604.53 765.04,603.43 767.99,602.34 770.93,601.25 773.88,600.16 776.82,599.06 779.77,597.97 782.72,596.90 785.66,595.83 788.61,594.76 791.55,593.68 794.50,592.61 797.44,591.54 800.39,590.47 803.33,589.40 806.28,588.33 809.22,587.26 812.17,586.34 815.11,585.42 818.06,584.51 821.01,583.59 823.95,582.67 826.90,581.76 829.84,580.84 832.79,579.92 835.73,579.01 838.68,578.10 841.62,577.29 844.57,576.49 847.51,575.69 850.46,574.89 853.41,574.09 856.35,573.28 859.30,572.48 862.24,571.68 865.19,570.88 868.13,570.07 871.08,569.23 874.02,568.38 876.97,567.54 879.91,566.70 882.86,565.86 885.80,565.02 888.75,564.17 891.70,563.33 894.64,562.49 897.59,561.65 900.53,560.54 903.48,559.44 906.42,558.33 909.37,557.23 912.31,556.12 915.26,555.02 918.20,553.91 921.15,552.81 924.09,551.70 927.04,550.60 929.99,549.01 932.93,547.41 935.88,545.82 938.82,544.22 941.77,542.63 944.71,541.03 947.66,539.44 950.60,537.84 953.55,536.25 956.49,534.66 959.44,532.47 962.39,530.29 965.33,528.09 968.28,525.91 971.22,523.72 974.17,521.54 977.11,519.35 980.06,517.17 983.00,514.98 985.95,512.80 988.89,510.05 991.84,507.30 994.78,504.54 997.73,501.79 1000.68,499.04 1003.62,496.29 1006.57,493.53 1009.51,490.78 1012.46,488.03 1015.40,485.27 1018.35,481.93 1021.29,478.57 1024.24,475.22 1027.18,471.86 1030.13,468.52 1033.07,465.16 1036.02,461.81 1038.97,458.45 1041.91,455.10 1044.86,451.75 1047.80,449.91 1050.75,448.07 1053.69,446.23 1056.64,444.40 1059.58,442.55 1062.53,440.71 1065.47,438.87 1068.42,437.04 1071.36,435.20 1074.31,433.35" fill="none" stroke="#000000" stroke-width="3"/>
<line x1="142" y1="100" x2="178" y2="100" stroke="#000000" stroke-width="4"/>
<text x="188" y="105" font-family="Arial" font-size="18" fill="black">|U|</text>
</svg>