<svg xmlns="http://www.w3.org/2000/svg" width="1200" height="820" viewBox="0 0 1200 820">
<rect width="100%" height="100%" fill="white"/>
<text x="600.0" y="36" text-anchor="middle" font-family="Arial" font-size="24" fill="black">profile_center_z: k</text>
<line x1="120.00" y1="75" x2="120.00" y2="705" stroke="#dddddd" stroke-width="1"/>
<text x="120.00" y="737" text-anchor="middle" font-family="Arial" font-size="16" fill="black">-0.240</text>
<line x1="376.25" y1="75" x2="376.25" y2="705" stroke="#dddddd" stroke-width="1"/>
<text x="376.25" y="737" text-anchor="middle" font-family="Arial" font-size="16" fill="black">0.630</text>
<line x1="632.50" y1="75" x2="632.50" y2="705" stroke="#dddddd" stroke-width="1"/>
<text x="632.50" y="737" text-anchor="middle" font-family="Arial" font-size="16" fill="black">1.500</text>
<line x1="888.75" y1="75" x2="888.75" y2="705" stroke="#dddddd" stroke-width="1"/>
<text x="888.75" y="737" text-anchor="middle" font-family="Arial" font-size="16" fill="black">2.370</text>
<line x1="1145.00" y1="75" x2="1145.00" y2="705" stroke="#dddddd" stroke-width="1"/>
<text x="1145.00" y="737" text-anchor="middle" font-family="Arial" font-size="16" fill="black">3.240</text>
<line x1="120" y1="705.00" x2="1145" y2="705.00" stroke="#dddddd" stroke-width="1"/>
<text x="104" y="710.00" text-anchor="end" font-family="Arial" font-size="16" fill="black">0.004</text>
<line x1="120" y1="547.50" x2="1145" y2="547.50" stroke="#dddddd" stroke-width="1"/>
<text x="104" y="552.50" text-anchor="end" font-family="Arial" font-size="16" fill="black">0.010</text>
<line x1="120" y1="390.00" x2="1145" y2="390.00" stroke="#dddddd" stroke-width="1"/>
<text x="104" y="395.00" text-anchor="end" font-family="Arial" font-size="16" fill="black">0.015</text>
<line x1="120" y1="232.50" x2="1145" y2="232.50" stroke="#dddddd" stroke-width="1"/>
<text x="104" y="237.50" text-anchor="end" font-family="Arial" font-size="16" fill="black">0.020</text>
<line x1="120" y1="75.00" x2="1145" y2="75.00" stroke="#dddddd" stroke-width="1"/>
<text x="104" y="80.00" text-anchor="end" font-family="Arial" font-size="16" fill="black">0.025</text>
<rect x="120" y="75" width="1025" height="630" fill="none" stroke="black" stroke-width="2"/>
<text x="632.5" y="785" text-anchor="middle" font-family="Arial" font-size="20" fill="black">z coordinate [m]</text>
<text x="34" y="390.0" transform="rotate(-90 34 390.0)" text-anchor="middle" font-family="Arial" font-size="20" fill="black">k [m2/s2]</text>
<polyline points="190.69,571.05 193.64,572.42 196.58,573.79 199.53,575.16 202.47,576.53 205.42,577.89 208.36,579.26 211.31,580.63 214.25,582.00 217.20,583.37 220.14,584.74 223.09,587.25 226.03,589.76 228.98,592.27 231.93,594.79 234.87,597.30 237.82,599.81 240.76,602.32 243.71,604.83 246.65,607.34 249.60,609.85 252.54,611.92 255.49,613.99 258.43,616.07 261.38,618.13 264.32,620.21 267.27,622.28 270.22,624.35 273.16,626.42 276.11,628.49 279.05,630.56 282.00,632.19 284.94,633.82 287.89,635.46 290.83,637.08 293.78,638.71 296.72,640.35 299.67,641.97 302.61,643.61 305.56,645.24 308.51,646.86 311.45,647.97 314.40,649.07 317.34,650.17 320.29,651.27 323.23,652.38 326.18,653.48 329.12,654.58 332.07,655.68 335.01,656.78 337.96,657.88 340.91,658.25 343.85,658.62 346.80,658.98 349.74,659.35 352.69,659.72 355.63,660.09 358.58,660.45 361.52,660.82 364.47,661.18 367.41,661.55 370.36,660.46 373.30,659.37 376.25,658.28 379.20,657.20 382.14,656.11 385.09,655.01 388.03,653.93 390.98,652.84 393.92,651.75 396.87,650.66 399.81,642.92 402.76,635.18 405.70,627.43 408.65,619.69 411.59,611.95 414.54,604.20 417.49,596.46 420.43,588.72 423.38,580.98 426.32,573.24 429.27,550.73 432.21,528.24 435.16,505.74 438.10,483.24 441.05,460.73 443.99,438.23 446.94,415.73 449.89,393.22 452.83,370.72 455.78,348.22 458.72,332.59 461.67,316.97 464.61,301.37 467.56,285.74 470.50,270.12 473.45,254.49 476.39,238.87 479.34,223.24 482.28,207.62 485.23,191.99 488.18,193.77 491.12,195.58 494.07,197.36 497.01,199.17 499.96,200.95 502.90,202.76 505.85,204.54 508.79,206.32 511.74,208.13 514.68,209.91 517.63,211.42 520.57,212.90 523.52,214.40 526.47,215.88 529.41,217.39 532.36,218.87 535.30,220.35 538.25,221.85 541.19,223.33 544.14,224.84 547.08,223.21 550.03,221.61 552.97,220.01 555.92,218.39 558.86,216.79 561.81,215.19 564.76,213.56 567.70,211.96 570.65,210.33 573.59,208.73 576.54,205.41 579.48,202.10 582.43,198.78 585.37,195.46 588.32,192.14 591.26,188.82 594.21,185.51 597.16,182.19 600.10,178.87 603.05,175.55 605.99,172.35 608.94,169.16 611.88,165.96 614.83,162.76 617.77,159.53 620.72,156.34 623.66,153.14 626.61,149.94 629.55,146.74 632.50,143.52 635.45,141.52 638.39,139.53 641.34,137.54 644.28,135.55 647.23,133.56 650.17,131.57 653.12,129.58 656.06,127.59 659.01,125.60 661.95,123.61 664.90,123.09 667.84,122.58 670.79,122.04 673.74,121.53 676.68,121.01 679.63,120.50 682.57,119.99 685.52,119.47 688.46,118.96 691.41,118.45 694.35,119.05 697.30,119.65 700.24,120.26 703.19,120.86 706.14,121.46 709.08,122.10 712.03,122.70 714.97,123.30 717.92,123.91 720.86,124.51 723.81,125.57 726.75,126.62 729.70,127.71 732.64,128.76 735.59,129.82 738.53,130.91 741.48,131.96 744.43,133.02 747.37,134.10 750.32,135.16 753.26,136.06 756.21,136.97 759.15,137.87 762.10,138.78 765.04,139.68 767.99,140.59 770.93,141.49 773.88,142.40 776.82,143.30 779.77,144.21 782.72,144.66 785.66,145.08 788.61,145.54 791.55,145.96 794.50,146.38 797.44,146.83 800.39,147.26 803.33,147.68 806.28,148.13 809.22,148.55 812.17,148.61 815.11,148.67 818.06,148.73 821.01,148.79 823.95,148.85 826.90,148.92 829.84,148.98 832.79,149.04 835.73,149.10 838.68,149.16 841.62,149.25 844.57,149.34 847.51,149.43 850.46,149.52 853.41,149.61 856.35,149.70 859.30,149.79 862.24,149.88 865.19,149.97 868.13,150.06 871.08,150.79 874.02,151.51 876.97,152.23 879.91,152.93 882.86,153.65 885.80,154.38 888.75,155.10 891.70,155.79 894.64,156.52 897.59,157.24 900.53,159.17 903.48,161.10 906.42,163.03 909.37,164.96 912.31,166.89 915.26,168.82 918.20,170.75 921.15,172.69 924.09,174.65 927.04,176.58 929.99,180.08 932.93,183.61 935.88,187.10 938.82,190.63 941.77,194.13 944.71,197.63 947.66,201.16 950.60,204.66 953.55,208.19 956.49,211.69 959.44,217.18 962.39,222.67 965.33,228.16 968.28,233.65 971.22,239.11 974.17,244.60 977.11,250.09 980.06,255.58 983.00,261.04 985.95,266.53 988.89,275.04 991.84,283.54 994.78,292.02 997.73,300.53 1000.68,309.03 1003.62,317.54 1006.57,326.02 1009.51,334.52 1012.46,343.03 1015.40,351.53 1018.35,366.35 1021.29,381.16 1024.24,396.00 1027.18,410.81 1030.13,425.65 1033.07,440.46 1036.02,455.30 1038.97,470.11 1041.91,484.93 1044.86,499.77 1047.80,509.39 1050.75,519.01 1053.69,528.63 1056.64,538.29 1059.58,547.90 1062.53,557.53 1065.47,567.16 1068.42,576.79 1071.36,586.42 1074.31,596.04" fill="none" stroke="#000000" stroke-width="3"/>
<line x1="142" y1="100" x2="178" y2="100" stroke="#000000" stroke-width="4"/>
<text x="188" y="105" font-family="Arial" font-size="18" fill="black">k</text>
</svg>