<svg xmlns="http://www.w3.org/2000/svg" width="1200" height="820" viewBox="0 0 1200 820">
<rect width="100%" height="100%" fill="white"/>
<text x="600.0" y="36" text-anchor="middle" font-family="Arial" font-size="24" fill="black">profile_diagonal_supply_return: Q</text>
<line x1="120.00" y1="75" x2="120.00" y2="705" stroke="#dddddd" stroke-width="1"/>
<text x="120.00" y="737" text-anchor="middle" font-family="Arial" font-size="16" fill="black">-0.729</text>
<line x1="376.25" y1="75" x2="376.25" y2="705" stroke="#dddddd" stroke-width="1"/>
<text x="376.25" y="737" text-anchor="middle" font-family="Arial" font-size="16" fill="black">1.913</text>
<line x1="632.50" y1="75" x2="632.50" y2="705" stroke="#dddddd" stroke-width="1"/>
<text x="632.50" y="737" text-anchor="middle" font-family="Arial" font-size="16" fill="black">4.555</text>
<line x1="888.75" y1="75" x2="888.75" y2="705" stroke="#dddddd" stroke-width="1"/>
<text x="888.75" y="737" text-anchor="middle" font-family="Arial" font-size="16" fill="black">7.197</text>
<line x1="1145.00" y1="75" x2="1145.00" y2="705" stroke="#dddddd" stroke-width="1"/>
<text x="1145.00" y="737" text-anchor="middle" font-family="Arial" font-size="16" fill="black">9.839</text>
<line x1="120" y1="705.00" x2="1145" y2="705.00" stroke="#dddddd" stroke-width="1"/>
<text x="104" y="710.00" text-anchor="end" font-family="Arial" font-size="16" fill="black">-0.598</text>
<line x1="120" y1="547.50" x2="1145" y2="547.50" stroke="#dddddd" stroke-width="1"/>
<text x="104" y="552.50" text-anchor="end" font-family="Arial" font-size="16" fill="black">-0.342</text>
<line x1="120" y1="390.00" x2="1145" y2="390.00" stroke="#dddddd" stroke-width="1"/>
<text x="104" y="395.00" text-anchor="end" font-family="Arial" font-size="16" fill="black">-0.085</text>
<line x1="120" y1="232.50" x2="1145" y2="232.50" stroke="#dddddd" stroke-width="1"/>
<text x="104" y="237.50" text-anchor="end" font-family="Arial" font-size="16" fill="black">0.171</text>
<line x1="120" y1="75.00" x2="1145" y2="75.00" stroke="#dddddd" stroke-width="1"/>
<text x="104" y="80.00" text-anchor="end" font-family="Arial" font-size="16" fill="black">0.427</text>
<rect x="120" y="75" width="1025" height="630" fill="none" stroke="black" stroke-width="2"/>
<text x="632.5" y="785" text-anchor="middle" font-family="Arial" font-size="20" fill="black">distance along sample line [m]</text>
<text x="34" y="390.0" transform="rotate(-90 34 390.0)" text-anchor="middle" font-family="Arial" font-size="20" fill="black">Q [SI]</text>
<polyline points="190.69,661.55 193.64,635.86 196.58,607.39 199.53,575.71 202.47,540.36 205.42,505.33 208.36,469.16 211.31,430.13 214.25,386.39 217.20,363.74 220.14,375.57 223.09,387.25 226.03,400.39 228.98,413.62 231.93,428.00 234.87,442.79 237.82,458.00 240.76,473.60 243.71,478.04 246.65,478.94 249.60,479.26 252.54,485.62 255.49,487.06 258.43,485.04 261.38,482.75 264.32,480.32 267.27,476.63 270.22,470.39 273.16,464.07 276.11,457.65 279.05,451.13 282.00,443.74 284.94,436.37 287.88,429.01 290.83,421.67 293.78,413.35 296.73,404.68 299.67,396.15 302.62,387.66 305.57,378.64 308.50,368.96 311.45,361.46 314.40,354.00 317.34,346.65 320.29,338.63 323.24,330.71 326.18,322.88 329.12,315.16 332.07,307.28 335.01,299.76 337.96,292.45 340.91,286.29 343.85,280.31 346.80,274.55 349.74,268.95 352.68,264.44 355.63,260.29 358.58,256.59 361.53,253.15 364.47,249.97 367.42,247.04 370.36,246.50 373.30,246.15 376.25,246.00 379.20,246.03 382.14,246.32 385.09,246.81 388.04,249.45 390.97,252.41 393.92,255.73 396.87,259.39 399.81,262.65 402.76,266.15 405.71,270.77 408.65,275.40 411.59,280.21 414.54,285.24 417.48,290.50 420.43,295.70 423.38,301.06 426.32,306.65 429.27,311.67 432.21,316.85 435.16,322.22 438.10,327.86 441.05,331.87 444.00,335.86 446.94,339.93 449.89,343.84 452.84,347.54 455.77,351.02 458.72,350.23 461.67,349.28 464.61,348.10 467.56,346.63 470.51,345.31 473.45,343.78 476.39,340.05 479.34,335.95 482.28,331.36 485.23,326.11 488.18,321.11 491.12,315.77 494.07,311.25 497.01,306.53 499.96,302.42 502.90,298.92 505.85,296.04 508.80,293.33 511.74,292.83 514.69,292.89 517.63,293.71 520.57,294.44 523.52,295.14 526.47,296.18 529.41,297.70 532.36,298.97 535.31,299.24 538.24,299.77 541.19,300.58 544.14,301.72 547.08,301.22 550.03,301.15 552.98,301.51 555.92,302.30 558.86,303.12 561.81,304.34 564.76,305.74 567.70,307.69 570.65,310.17 573.60,313.20 576.54,315.94 579.49,319.13 582.43,321.81 585.37,325.50 588.32,329.65 591.27,334.25 594.21,339.29 597.16,345.45 600.11,350.96 603.04,356.65 605.99,361.84 608.94,367.03 611.88,372.07 614.83,376.98 617.78,380.48 620.72,383.31 623.66,384.82 626.61,385.90 629.55,386.53 632.50,386.72 635.45,382.76 638.40,378.60 641.34,374.29 644.28,369.91 647.23,365.57 650.17,361.56 653.12,357.69 656.07,354.58 659.01,353.06 661.96,353.65 664.90,354.29 667.84,355.94 670.79,360.34 673.74,366.57 676.68,373.27 679.63,380.40 682.58,387.91 685.51,394.51 688.46,400.47 691.41,405.72 694.35,409.28 697.30,410.96 700.25,411.10 703.20,410.64 706.14,407.29 709.08,403.15 712.03,398.28 714.97,393.46 717.92,388.74 720.87,384.18 723.81,378.58 726.76,373.66 729.70,369.44 732.64,365.93 735.59,363.13 738.54,360.94 741.48,359.02 744.43,357.74 747.38,356.86 750.31,356.13 753.26,355.17 756.21,354.48 759.15,354.05 762.10,353.44 765.05,352.92 767.99,352.49 770.93,352.10 773.88,351.81 776.83,351.72 779.77,351.65 782.72,350.76 785.67,350.12 788.61,349.66 791.55,349.10 794.50,348.57 797.44,348.14 800.39,348.17 803.34,348.19 806.28,348.19 809.23,348.17 812.17,347.28 815.11,346.31 818.06,345.24 821.01,344.10 823.95,342.92 826.90,341.79 829.85,338.30 832.79,334.61 835.73,330.72 838.68,326.63 841.63,322.27 844.57,317.65 847.52,308.91 850.47,299.97 853.41,290.45 856.35,280.29 859.30,269.37 862.24,258.64 865.19,245.62 868.14,231.53 871.08,218.13 874.03,204.94 876.97,191.73 879.91,177.72 882.86,168.68 885.81,159.24 888.75,150.13 891.70,140.28 894.65,129.72 897.58,118.45 900.53,120.30 903.48,121.30 906.43,121.50 909.37,120.96 912.32,120.40 915.27,119.62 918.20,124.86 921.15,129.42 924.10,133.67 927.04,137.81 929.99,143.03 932.94,147.67 935.88,154.91 938.82,162.62 941.77,169.86 944.71,176.70 947.66,183.18 950.61,190.75 953.55,199.84 956.50,208.80 959.44,218.99 962.38,229.96 965.33,241.54 968.28,253.13 971.22,267.21 974.17,282.08 977.12,298.14 980.06,314.69 983.00,331.80 985.95,349.52 988.90,376.47 991.84,406.69 994.79,440.53 997.74,478.36 1000.68,508.68 1003.62,533.01 1006.57,557.58 1009.51,577.49 1012.46,588.15 1015.41,586.92 1018.35,558.14 1021.30,520.44 1024.24,482.21 1027.18,479.62 1030.13,480.50 1033.08,484.65 1036.02,491.81 1038.97,495.59 1041.92,496.74 1044.86,496.54 1047.80,494.72 1050.75,493.86 1053.70,493.07 1056.64,490.66 1059.59,482.68 1062.54,473.81 1065.47,465.22 1068.42,455.11 1071.37,443.55 1074.31,430.59" fill="none" stroke="#000000" stroke-width="3"/>
<line x1="142" y1="100" x2="178" y2="100" stroke="#000000" stroke-width="4"/>
<text x="188" y="105" font-family="Arial" font-size="18" fill="black">Q</text>
</svg>