<svg xmlns="http://www.w3.org/2000/svg" width="1200" height="820" viewBox="0 0 1200 820">
<rect width="100%" height="100%" fill="white"/>
<text x="600.0" y="36" text-anchor="middle" font-family="Arial" font-size="24" fill="black">profile_center_z: U:1</text>
<line x1="120.00" y1="75" x2="120.00" y2="705" stroke="#dddddd" stroke-width="1"/>
<text x="120.00" y="737" text-anchor="middle" font-family="Arial" font-size="16" fill="black">-0.240</text>
<line x1="376.25" y1="75" x2="376.25" y2="705" stroke="#dddddd" stroke-width="1"/>
<text x="376.25" y="737" text-anchor="middle" font-family="Arial" font-size="16" fill="black">0.630</text>
<line x1="632.50" y1="75" x2="632.50" y2="705" stroke="#dddddd" stroke-width="1"/>
<text x="632.50" y="737" text-anchor="middle" font-family="Arial" font-size="16" fill="black">1.500</text>
<line x1="888.75" y1="75" x2="888.75" y2="705" stroke="#dddddd" stroke-width="1"/>
<text x="888.75" y="737" text-anchor="middle" font-family="Arial" font-size="16" fill="black">2.370</text>
<line x1="1145.00" y1="75" x2="1145.00" y2="705" stroke="#dddddd" stroke-width="1"/>
<text x="1145.00" y="737" text-anchor="middle" font-family="Arial" font-size="16" fill="black">3.240</text>
<line x1="120" y1="705.00" x2="1145" y2="705.00" stroke="#dddddd" stroke-width="1"/>
<text x="104" y="710.00" text-anchor="end" font-family="Arial" font-size="16" fill="black">-0.059</text>
<line x1="120" y1="547.50" x2="1145" y2="547.50" stroke="#dddddd" stroke-width="1"/>
<text x="104" y="552.50" text-anchor="end" font-family="Arial" font-size="16" fill="black">-0.009</text>
<line x1="120" y1="390.00" x2="1145" y2="390.00" stroke="#dddddd" stroke-width="1"/>
<text x="104" y="395.00" text-anchor="end" font-family="Arial" font-size="16" fill="black">0.042</text>
<line x1="120" y1="232.50" x2="1145" y2="232.50" stroke="#dddddd" stroke-width="1"/>
<text x="104" y="237.50" text-anchor="end" font-family="Arial" font-size="16" fill="black">0.093</text>
<line x1="120" y1="75.00" x2="1145" y2="75.00" stroke="#dddddd" stroke-width="1"/>
<text x="104" y="80.00" text-anchor="end" font-family="Arial" font-size="16" fill="black">0.143</text>
<rect x="120" y="75" width="1025" height="630" fill="none" stroke="black" stroke-width="2"/>
<text x="632.5" y="785" text-anchor="middle" font-family="Arial" font-size="20" fill="black">z coordinate [m]</text>
<text x="34" y="390.0" transform="rotate(-90 34 390.0)" text-anchor="middle" font-family="Arial" font-size="20" fill="black">U:1 [SI]</text>
<polyline points="190.69,504.32 193.64,503.66 196.58,503.00 199.53,502.34 202.47,501.67 205.42,501.01 208.36,500.35 211.31,499.69 214.25,499.02 217.20,498.36 220.14,497.70 223.09,496.63 226.03,495.56 228.98,494.49 231.93,493.42 234.87,492.35 237.82,491.28 240.76,490.21 243.71,489.14 246.65,488.07 249.60,487.00 252.54,486.41 255.49,485.83 258.43,485.25 261.38,484.67 264.32,484.08 267.27,483.50 270.22,482.91 273.16,482.33 276.11,481.75 279.05,481.16 282.00,481.00 284.94,480.83 287.89,480.67 290.83,480.50 293.78,480.34 296.72,480.18 299.67,480.01 302.61,479.85 305.56,479.68 308.51,479.52 311.45,479.64 314.40,479.77 317.34,479.90 320.29,480.03 323.23,480.16 326.18,480.29 329.12,480.42 332.07,480.55 335.01,480.68 337.96,480.81 340.91,481.03 343.85,481.25 346.80,481.47 349.74,481.69 352.69,481.91 355.63,482.13 358.58,482.36 361.52,482.58 364.47,482.80 367.41,483.02 370.36,483.12 373.30,483.22 376.25,483.32 379.20,483.42 382.14,483.51 385.09,483.61 388.03,483.71 390.98,483.81 393.92,483.90 396.87,484.00 399.81,484.29 402.76,484.58 405.70,484.87 408.65,485.16 411.59,485.45 414.54,485.74 417.49,486.03 420.43,486.32 423.38,486.61 426.32,486.90 429.27,489.07 432.21,491.24 435.16,493.42 438.10,495.59 441.05,497.76 443.99,499.94 446.94,502.11 449.89,504.28 452.83,506.46 455.78,508.63 458.72,511.59 461.67,514.54 464.61,517.50 467.56,520.46 470.50,523.41 473.45,526.37 476.39,529.33 479.34,532.29 482.28,535.24 485.23,538.20 488.18,539.39 491.12,540.57 494.07,541.76 497.01,542.94 499.96,544.13 502.90,545.31 505.85,546.50 508.79,547.68 511.74,548.87 514.68,550.06 517.63,550.13 520.57,550.21 523.52,550.28 526.47,550.36 529.41,550.44 532.36,550.51 535.30,550.59 538.25,550.66 541.19,550.74 544.14,550.82 547.08,550.93 550.03,551.04 552.97,551.15 555.92,551.26 558.86,551.37 561.81,551.48 564.76,551.60 567.70,551.71 570.65,551.82 573.59,551.93 576.54,552.56 579.48,553.18 582.43,553.81 585.37,554.44 588.32,555.06 591.26,555.69 594.21,556.32 597.16,556.94 600.10,557.57 603.05,558.20 605.99,559.52 608.94,560.84 611.88,562.16 614.83,563.48 617.77,564.81 620.72,566.13 623.66,567.45 626.61,568.77 629.55,570.09 632.50,571.41 635.45,573.30 638.39,575.19 641.34,577.08 644.28,578.97 647.23,580.86 650.17,582.75 653.12,584.64 656.06,586.53 659.01,588.42 661.95,590.31 664.90,592.46 667.84,594.62 670.79,596.77 673.74,598.92 676.68,601.07 679.63,603.22 682.57,605.38 685.52,607.53 688.46,609.68 691.41,611.83 694.35,613.92 697.30,616.01 700.24,618.10 703.19,620.19 706.14,622.27 709.08,624.36 712.03,626.45 714.97,628.53 717.92,630.62 720.86,632.71 723.81,634.42 726.75,636.14 729.70,637.85 732.64,639.57 735.59,641.28 738.53,643.00 741.48,644.71 744.43,646.43 747.37,648.14 750.32,649.86 753.26,650.91 756.21,651.97 759.15,653.03 762.10,654.09 765.04,655.14 767.99,656.20 770.93,657.25 773.88,658.31 776.82,659.37 779.77,660.43 782.72,660.54 785.66,660.65 788.61,660.76 791.55,660.88 794.50,660.99 797.44,661.10 800.39,661.21 803.33,661.32 806.28,661.44 809.22,661.55 812.17,660.35 815.11,659.15 818.06,657.95 821.01,656.75 823.95,655.56 826.90,654.36 829.84,653.16 832.79,651.96 835.73,650.76 838.68,649.56 841.62,646.74 844.57,643.92 847.51,641.10 850.46,638.27 853.41,635.45 856.35,632.63 859.30,629.81 862.24,626.99 865.19,624.17 868.13,621.34 871.08,616.66 874.02,611.98 876.97,607.29 879.91,602.61 882.86,597.92 885.80,593.23 888.75,588.55 891.70,583.86 894.64,579.18 897.59,574.49 900.53,567.71 903.48,560.92 906.42,554.14 909.37,547.36 912.31,540.57 915.26,533.79 918.20,527.01 921.15,520.22 924.09,513.44 927.04,506.65 929.99,498.10 932.93,489.54 935.88,480.98 938.82,472.43 941.77,463.87 944.71,455.31 947.66,446.75 950.60,438.20 953.55,429.64 956.49,421.09 959.44,411.68 962.39,402.28 965.33,392.88 968.28,383.47 971.22,374.07 974.17,364.67 977.11,355.26 980.06,345.86 983.00,336.46 985.95,327.05 988.89,317.80 991.84,308.55 994.78,299.30 997.73,290.04 1000.68,280.79 1003.62,271.53 1006.57,262.28 1009.51,253.03 1012.46,243.77 1015.40,234.52 1018.35,226.48 1021.29,218.45 1024.24,210.41 1027.18,202.38 1030.13,194.33 1033.07,186.30 1036.02,178.25 1038.97,170.23 1041.91,162.17 1044.86,154.15 1047.80,150.57 1050.75,147.00 1053.69,143.45 1056.64,139.87 1059.58,136.30 1062.53,132.72 1065.47,129.18 1068.42,125.60 1071.36,122.02 1074.31,118.45" fill="none" stroke="#000000" stroke-width="3"/>
<line x1="142" y1="100" x2="178" y2="100" stroke="#000000" stroke-width="4"/>
<text x="188" y="105" font-family="Arial" font-size="18" fill="black">U:1</text>
</svg>