<svg xmlns="http://www.w3.org/2000/svg" width="1200" height="820" viewBox="0 0 1200 820">
<rect width="100%" height="100%" fill="white"/>
<text x="600.0" y="36" text-anchor="middle" font-family="Arial" font-size="24" fill="black">profile_near_ceiling_x: vorticity:2</text>
<line x1="120.00" y1="75" x2="120.00" y2="705" stroke="#dddddd" stroke-width="1"/>
<text x="120.00" y="737" text-anchor="middle" font-family="Arial" font-size="16" fill="black">-0.560</text>
<line x1="376.25" y1="75" x2="376.25" y2="705" stroke="#dddddd" stroke-width="1"/>
<text x="376.25" y="737" text-anchor="middle" font-family="Arial" font-size="16" fill="black">1.470</text>
<line x1="632.50" y1="75" x2="632.50" y2="705" stroke="#dddddd" stroke-width="1"/>
<text x="632.50" y="737" text-anchor="middle" font-family="Arial" font-size="16" fill="black">3.500</text>
<line x1="888.75" y1="75" x2="888.75" y2="705" stroke="#dddddd" stroke-width="1"/>
<text x="888.75" y="737" text-anchor="middle" font-family="Arial" font-size="16" fill="black">5.530</text>
<line x1="1145.00" y1="75" x2="1145.00" y2="705" stroke="#dddddd" stroke-width="1"/>
<text x="1145.00" y="737" text-anchor="middle" font-family="Arial" font-size="16" fill="black">7.560</text>
<line x1="120" y1="705.00" x2="1145" y2="705.00" stroke="#dddddd" stroke-width="1"/>
<text x="104" y="710.00" text-anchor="end" font-family="Arial" font-size="16" fill="black">-3.217</text>
<line x1="120" y1="547.50" x2="1145" y2="547.50" stroke="#dddddd" stroke-width="1"/>
<text x="104" y="552.50" text-anchor="end" font-family="Arial" font-size="16" fill="black">-2.292</text>
<line x1="120" y1="390.00" x2="1145" y2="390.00" stroke="#dddddd" stroke-width="1"/>
<text x="104" y="395.00" text-anchor="end" font-family="Arial" font-size="16" fill="black">-1.366</text>
<line x1="120" y1="232.50" x2="1145" y2="232.50" stroke="#dddddd" stroke-width="1"/>
<text x="104" y="237.50" text-anchor="end" font-family="Arial" font-size="16" fill="black">-0.441</text>
<line x1="120" y1="75.00" x2="1145" y2="75.00" stroke="#dddddd" stroke-width="1"/>
<text x="104" y="80.00" text-anchor="end" font-family="Arial" font-size="16" fill="black">0.484</text>
<rect x="120" y="75" width="1025" height="630" fill="none" stroke="black" stroke-width="2"/>
<text x="632.5" y="785" text-anchor="middle" font-family="Arial" font-size="20" fill="black">x coordinate [m]</text>
<text x="34" y="390.0" transform="rotate(-90 34 390.0)" text-anchor="middle" font-family="Arial" font-size="20" fill="black">vorticity:2 [SI]</text>
<polyline points="190.69,365.40 193.64,345.70 196.58,326.01 199.53,306.31 202.47,286.61 205.42,266.65 208.36,246.58 211.31,226.51 214.25,206.45 217.20,194.79 220.14,194.35 223.09,193.91 226.03,193.46 228.98,193.07 231.93,192.97 234.87,192.87 237.82,192.76 240.76,192.66 243.71,192.85 246.65,193.08 249.60,193.31 252.54,193.54 255.49,193.78 258.43,194.03 261.38,194.28 264.32,194.53 267.27,194.12 270.22,192.04 273.16,189.97 276.11,187.89 279.05,185.82 282.00,181.30 284.94,176.80 287.89,172.28 290.83,167.77 293.78,164.45 296.72,161.59 299.67,158.73 302.62,155.88 305.56,154.39 308.51,154.74 311.45,155.09 314.40,155.44 317.34,155.99 320.29,157.72 323.23,159.45 326.17,161.18 329.13,162.92 332.07,164.72 335.01,166.53 337.96,168.34 340.91,170.15 343.85,171.64 346.80,172.89 349.74,174.14 352.68,175.39 355.64,176.23 358.58,176.04 361.52,175.85 364.47,175.67 367.41,175.48 370.35,172.89 373.31,170.31 376.25,167.72 379.19,165.14 382.15,161.09 385.09,156.45 388.03,151.82 390.98,147.18 393.92,142.67 396.86,138.33 399.82,133.99 402.76,129.65 405.70,125.68 408.65,123.87 411.59,122.06 414.54,120.26 417.49,118.45 420.43,118.53 423.37,118.92 426.33,119.31 429.27,119.71 432.21,120.42 435.16,121.36 438.10,122.31 441.04,123.26 444.00,124.14 446.94,124.84 449.88,125.55 452.83,126.26 455.78,126.96 458.72,127.39 461.67,127.83 464.61,128.26 467.55,128.69 470.51,129.01 473.45,129.28 476.39,129.55 479.34,129.83 482.28,130.06 485.23,130.25 488.18,130.44 491.12,130.63 494.06,130.80 497.02,130.94 499.96,131.07 502.90,131.21 505.85,131.34 508.79,131.45 511.73,131.55 514.69,131.66 517.63,131.76 520.57,131.85 523.52,131.93 526.47,132.02 529.41,132.10 532.36,132.18 535.30,132.25 538.24,132.32 541.20,132.38 544.14,132.45 547.08,132.51 550.03,132.58 552.97,132.64 555.92,132.70 558.87,132.77 561.81,132.84 564.75,132.91 567.71,132.98 570.65,133.07 573.59,133.17 576.54,133.27 579.48,133.36 582.42,133.47 585.38,133.60 588.32,133.74 591.26,133.88 594.21,134.02 597.16,134.20 600.10,134.40 603.05,134.59 605.99,134.79 608.93,135.03 611.89,135.30 614.83,135.57 617.77,135.84 620.72,136.13 623.66,136.48 626.60,136.83 629.56,137.18 632.50,137.53 635.44,137.94 638.40,138.36 641.34,138.78 644.28,139.19 647.23,139.64 650.17,140.10 653.11,140.56 656.07,141.02 659.01,141.49 661.95,141.96 664.90,142.44 667.84,142.91 670.79,143.38 673.74,143.83 676.68,144.28 679.62,144.72 682.58,145.17 685.52,145.56 688.46,145.94 691.41,146.32 694.35,146.70 697.29,147.03 700.25,147.31 703.19,147.60 706.13,147.88 709.08,148.13 712.03,148.31 714.97,148.48 717.92,148.65 720.86,148.82 723.80,148.88 726.76,148.93 729.70,148.99 732.64,149.04 735.59,149.01 738.53,148.95 741.48,148.89 744.43,148.82 747.37,148.71 750.31,148.53 753.27,148.35 756.21,148.17 759.15,147.98 762.10,147.70 765.04,147.41 767.98,147.13 770.94,146.84 773.88,146.48 776.82,146.11 779.77,145.74 782.72,145.36 785.66,144.96 788.61,144.52 791.55,144.08 794.49,143.64 797.45,143.20 800.39,142.72 803.33,142.25 806.28,141.78 809.22,141.30 812.17,140.83 815.12,140.35 818.06,139.87 821.00,139.39 823.96,138.93 826.90,138.48 829.84,138.03 832.79,137.58 835.73,137.15 838.67,136.75 841.63,136.35 844.57,135.95 847.51,135.56 850.46,135.22 853.41,134.89 856.35,134.56 859.30,134.23 862.24,133.96 865.18,133.70 868.14,133.44 871.08,133.18 874.02,132.93 876.97,132.69 879.91,132.46 882.85,132.22 885.81,131.94 888.75,131.56 891.69,131.18 894.65,130.80 897.59,130.42 900.53,130.23 903.48,130.04 906.42,129.85 909.36,129.67 912.32,130.24 915.26,131.12 918.20,131.99 921.15,132.87 924.09,134.22 927.04,136.18 929.99,138.15 932.93,140.11 935.87,142.14 938.83,144.53 941.77,146.92 944.71,149.31 947.66,151.70 950.60,154.04 953.54,156.38 956.50,158.71 959.44,161.05 962.38,163.12 965.33,165.01 968.28,166.90 971.22,168.78 974.17,170.46 977.11,171.61 980.05,172.77 983.01,173.92 985.95,175.07 988.89,175.44 991.84,175.80 994.78,176.17 997.73,176.54 1000.68,176.47 1003.62,176.23 1006.56,176.00 1009.52,175.76 1012.46,175.51 1015.40,175.23 1018.35,174.95 1021.29,174.67 1024.23,174.47 1027.19,174.70 1030.13,174.93 1033.07,175.16 1036.02,175.40 1038.97,175.84 1041.91,176.31 1044.86,176.78 1047.80,177.26 1050.74,209.79 1053.70,266.37 1056.64,322.94 1059.58,379.53 1062.53,436.04 1065.47,492.41 1068.42,548.79 1071.37,605.16 1074.31,661.55" fill="none" stroke="#000000" stroke-width="3"/>
<line x1="142" y1="100" x2="178" y2="100" stroke="#000000" stroke-width="4"/>
<text x="188" y="105" font-family="Arial" font-size="18" fill="black">vorticity:2</text>
</svg>