<svg xmlns="http://www.w3.org/2000/svg" width="1200" height="820" viewBox="0 0 1200 820">
<rect width="100%" height="100%" fill="white"/>
<text x="600.0" y="36" text-anchor="middle" font-family="Arial" font-size="24" fill="black">profile_center_y: U:1</text>
<line x1="120.00" y1="75" x2="120.00" y2="705" stroke="#dddddd" stroke-width="1"/>
<text x="120.00" y="737" text-anchor="middle" font-family="Arial" font-size="16" fill="black">-0.400</text>
<line x1="376.25" y1="75" x2="376.25" y2="705" stroke="#dddddd" stroke-width="1"/>
<text x="376.25" y="737" text-anchor="middle" font-family="Arial" font-size="16" fill="black">1.050</text>
<line x1="632.50" y1="75" x2="632.50" y2="705" stroke="#dddddd" stroke-width="1"/>
<text x="632.50" y="737" text-anchor="middle" font-family="Arial" font-size="16" fill="black">2.500</text>
<line x1="888.75" y1="75" x2="888.75" y2="705" stroke="#dddddd" stroke-width="1"/>
<text x="888.75" y="737" text-anchor="middle" font-family="Arial" font-size="16" fill="black">3.950</text>
<line x1="1145.00" y1="75" x2="1145.00" y2="705" stroke="#dddddd" stroke-width="1"/>
<text x="1145.00" y="737" text-anchor="middle" font-family="Arial" font-size="16" fill="black">5.400</text>
<line x1="120" y1="705.00" x2="1145" y2="705.00" stroke="#dddddd" stroke-width="1"/>
<text x="104" y="710.00" text-anchor="end" font-family="Arial" font-size="16" fill="black">-0.241</text>
<line x1="120" y1="547.50" x2="1145" y2="547.50" stroke="#dddddd" stroke-width="1"/>
<text x="104" y="552.50" text-anchor="end" font-family="Arial" font-size="16" fill="black">-0.166</text>
<line x1="120" y1="390.00" x2="1145" y2="390.00" stroke="#dddddd" stroke-width="1"/>
<text x="104" y="395.00" text-anchor="end" font-family="Arial" font-size="16" fill="black">-0.091</text>
<line x1="120" y1="232.50" x2="1145" y2="232.50" stroke="#dddddd" stroke-width="1"/>
<text x="104" y="237.50" text-anchor="end" font-family="Arial" font-size="16" fill="black">-0.017</text>
<line x1="120" y1="75.00" x2="1145" y2="75.00" stroke="#dddddd" stroke-width="1"/>
<text x="104" y="80.00" text-anchor="end" font-family="Arial" font-size="16" fill="black">0.058</text>
<rect x="120" y="75" width="1025" height="630" fill="none" stroke="black" stroke-width="2"/>
<text x="632.5" y="785" text-anchor="middle" font-family="Arial" font-size="20" fill="black">y coordinate [m]</text>
<text x="34" y="390.0" transform="rotate(-90 34 390.0)" text-anchor="middle" font-family="Arial" font-size="20" fill="black">U:1 [SI]</text>
<polyline points="190.69,168.21 193.64,168.41 196.58,168.60 199.53,168.79 202.47,168.99 205.42,169.18 208.36,169.38 211.31,171.37 214.25,173.36 217.20,175.36 220.14,177.35 223.09,179.35 226.03,181.34 228.98,185.92 231.92,190.50 234.87,195.08 237.82,199.66 240.76,204.24 243.71,208.82 246.65,214.29 249.60,219.76 252.54,225.24 255.49,230.71 258.43,236.18 261.38,241.65 264.33,246.23 267.27,250.80 270.22,255.37 273.16,259.94 276.11,264.51 279.05,269.08 282.00,271.60 284.94,274.12 287.89,276.64 290.83,279.16 293.78,281.68 296.72,284.20 299.67,284.13 302.61,284.05 305.56,283.98 308.51,283.91 311.45,283.84 314.40,283.77 317.34,281.13 320.29,278.50 323.23,275.87 326.18,273.23 329.12,270.60 332.07,267.96 335.01,263.34 337.96,258.72 340.91,254.09 343.85,249.47 346.80,244.84 349.74,240.22 352.69,234.58 355.63,228.94 358.58,223.30 361.52,217.66 364.47,212.02 367.41,206.38 370.37,200.91 373.30,195.44 376.25,189.97 379.20,184.50 382.13,179.03 385.09,173.55 388.04,169.14 390.97,164.72 393.92,160.30 396.87,155.89 399.81,151.47 402.76,147.05 405.71,144.08 408.64,141.11 411.59,138.14 414.55,135.16 417.48,132.19 420.43,129.22 423.38,127.69 426.32,126.16 429.27,124.63 432.22,123.10 435.15,121.57 438.10,120.04 441.05,119.78 443.99,119.51 446.94,119.25 449.89,118.98 452.82,118.71 455.78,118.45 458.73,119.33 461.66,120.20 464.61,121.08 467.56,121.96 470.50,122.84 473.45,123.71 476.40,125.60 479.33,127.48 482.28,129.37 485.24,131.25 488.17,133.14 491.12,135.02 494.07,137.72 497.01,140.41 499.96,143.11 502.91,145.80 505.84,148.50 508.79,151.19 511.74,154.45 514.68,157.70 517.63,160.96 520.58,164.21 523.51,167.46 526.47,170.72 529.42,174.09 532.35,177.46 535.30,180.83 538.25,184.20 541.19,187.57 544.14,190.94 547.09,193.53 550.02,196.13 552.97,198.73 555.93,201.33 558.86,203.93 561.81,206.53 564.76,207.90 567.70,209.27 570.65,210.65 573.60,212.02 576.53,213.39 579.48,214.77 582.43,215.44 585.37,216.12 588.32,216.79 591.27,217.47 594.20,218.14 597.16,218.82 600.11,219.57 603.04,220.32 605.99,221.08 608.94,221.83 611.88,222.58 614.83,223.33 617.78,224.70 620.71,226.08 623.66,227.45 626.62,228.82 629.55,230.19 632.50,231.56 635.45,233.78 638.38,236.00 641.34,238.23 644.29,240.45 647.22,242.67 650.17,244.89 653.12,248.18 656.06,251.47 659.01,254.76 661.96,258.05 664.89,261.34 667.84,264.63 670.80,269.42 673.73,274.21 676.68,279.00 679.63,283.79 682.57,288.57 685.52,293.36 688.47,299.93 691.40,306.49 694.35,313.06 697.30,319.63 700.24,326.19 703.19,332.76 706.14,340.29 709.07,347.83 712.03,355.37 714.98,362.90 717.91,370.44 720.86,377.98 723.81,385.59 726.75,393.21 729.70,400.83 732.65,408.45 735.58,416.06 738.53,423.68 741.49,431.35 744.42,439.05 747.37,446.73 750.32,454.40 753.26,462.08 756.21,469.78 759.16,477.62 762.09,485.49 765.04,493.34 767.99,501.20 770.93,509.05 773.88,516.92 776.83,524.80 779.76,532.71 782.72,540.60 785.67,548.51 788.60,556.40 791.55,564.30 794.50,571.52 797.44,578.75 800.39,585.99 803.34,593.20 806.27,600.43 809.22,607.65 812.18,613.15 815.11,618.63 818.06,624.14 821.01,629.62 823.95,635.13 826.90,640.61 829.85,643.65 832.78,646.68 835.73,649.70 838.68,652.74 841.62,655.77 844.57,658.81 847.52,659.25 850.45,659.72 853.41,660.18 856.36,660.64 859.29,661.09 862.24,661.55 865.19,659.82 868.13,658.09 871.08,656.34 874.03,654.61 876.96,652.88 879.91,651.15 882.87,647.80 885.80,644.45 888.75,641.09 891.70,637.74 894.63,634.39 897.59,631.03 900.54,626.52 903.47,622.01 906.42,617.49 909.37,612.98 912.31,608.47 915.26,603.95 918.21,598.47 921.14,592.99 924.09,587.50 927.05,582.04 929.98,576.56 932.93,571.07 935.88,564.71 938.82,558.34 941.77,551.95 944.72,545.58 947.65,539.21 950.60,532.84 953.55,525.65 956.49,518.48 959.44,511.28 962.39,504.09 965.32,496.92 968.28,489.73 971.23,481.86 974.16,473.98 977.11,466.09 980.06,458.20 983.00,450.33 985.95,442.45 988.90,434.01 991.83,425.57 994.78,417.14 997.74,408.70 1000.67,400.26 1003.62,391.83 1006.57,383.09 1009.51,374.36 1012.46,365.63 1015.41,356.89 1018.34,348.16 1021.29,339.42 1024.24,330.65 1027.18,321.87 1030.13,313.09 1033.08,304.32 1036.01,295.54 1038.97,286.76 1041.92,279.05 1044.85,271.33 1047.80,263.61 1050.75,255.89 1053.69,248.17 1056.64,240.45 1059.59,237.11 1062.52,233.77 1065.47,230.42 1068.43,227.08 1071.36,223.74 1074.31,220.40" fill="none" stroke="#000000" stroke-width="3"/>
<line x1="142" y1="100" x2="178" y2="100" stroke="#000000" stroke-width="4"/>
<text x="188" y="105" font-family="Arial" font-size="18" fill="black">U:1</text>
</svg>