<svg xmlns="http://www.w3.org/2000/svg" width="1200" height="820" viewBox="0 0 1200 820">
<rect width="100%" height="100%" fill="white"/>
<text x="600.0" y="36" text-anchor="middle" font-family="Arial" font-size="24" fill="black">profile_near_ceiling_x: vorticity:1</text>
<line x1="120.00" y1="75" x2="120.00" y2="705" stroke="#dddddd" stroke-width="1"/>
<text x="120.00" y="737" text-anchor="middle" font-family="Arial" font-size="16" fill="black">-0.560</text>
<line x1="376.25" y1="75" x2="376.25" y2="705" stroke="#dddddd" stroke-width="1"/>
<text x="376.25" y="737" text-anchor="middle" font-family="Arial" font-size="16" fill="black">1.470</text>
<line x1="632.50" y1="75" x2="632.50" y2="705" stroke="#dddddd" stroke-width="1"/>
<text x="632.50" y="737" text-anchor="middle" font-family="Arial" font-size="16" fill="black">3.500</text>
<line x1="888.75" y1="75" x2="888.75" y2="705" stroke="#dddddd" stroke-width="1"/>
<text x="888.75" y="737" text-anchor="middle" font-family="Arial" font-size="16" fill="black">5.530</text>
<line x1="1145.00" y1="75" x2="1145.00" y2="705" stroke="#dddddd" stroke-width="1"/>
<text x="1145.00" y="737" text-anchor="middle" font-family="Arial" font-size="16" fill="black">7.560</text>
<line x1="120" y1="705.00" x2="1145" y2="705.00" stroke="#dddddd" stroke-width="1"/>
<text x="104" y="710.00" text-anchor="end" font-family="Arial" font-size="16" fill="black">-0.545</text>
<line x1="120" y1="547.50" x2="1145" y2="547.50" stroke="#dddddd" stroke-width="1"/>
<text x="104" y="552.50" text-anchor="end" font-family="Arial" font-size="16" fill="black">-0.210</text>
<line x1="120" y1="390.00" x2="1145" y2="390.00" stroke="#dddddd" stroke-width="1"/>
<text x="104" y="395.00" text-anchor="end" font-family="Arial" font-size="16" fill="black">0.125</text>
<line x1="120" y1="232.50" x2="1145" y2="232.50" stroke="#dddddd" stroke-width="1"/>
<text x="104" y="237.50" text-anchor="end" font-family="Arial" font-size="16" fill="black">0.460</text>
<line x1="120" y1="75.00" x2="1145" y2="75.00" stroke="#dddddd" stroke-width="1"/>
<text x="104" y="80.00" text-anchor="end" font-family="Arial" font-size="16" fill="black">0.794</text>
<rect x="120" y="75" width="1025" height="630" fill="none" stroke="black" stroke-width="2"/>
<text x="632.5" y="785" text-anchor="middle" font-family="Arial" font-size="20" fill="black">x coordinate [m]</text>
<text x="34" y="390.0" transform="rotate(-90 34 390.0)" text-anchor="middle" font-family="Arial" font-size="20" fill="black">vorticity:1 [SI]</text>
<polyline points="190.69,430.79 193.64,429.19 196.58,427.60 199.53,426.00 202.47,424.41 205.42,418.21 208.36,410.16 211.31,402.12 214.25,394.08 217.20,384.04 220.14,371.36 223.09,358.68 226.03,346.00 228.98,333.51 231.93,322.23 234.87,310.96 237.82,299.68 240.76,288.39 243.71,281.02 246.65,274.29 249.60,267.56 252.54,260.84 255.49,260.66 258.43,265.39 261.38,270.13 264.32,274.86 267.27,283.77 270.22,303.11 273.16,322.45 276.11,341.79 279.05,361.13 282.00,382.86 284.94,404.59 287.89,426.33 290.83,448.06 293.78,461.30 296.72,471.15 299.67,481.00 302.62,490.84 305.56,495.58 308.51,493.51 311.45,491.45 314.40,489.38 317.34,486.46 320.29,478.45 323.23,470.44 326.17,462.44 329.13,454.43 332.07,444.14 335.01,433.47 337.96,422.79 340.91,412.12 343.85,400.79 346.80,388.96 349.74,377.13 352.68,365.30 355.64,353.70 358.58,342.67 361.52,331.64 364.47,320.60 367.41,309.57 370.35,303.51 373.31,297.46 376.25,291.41 379.19,285.35 382.15,285.31 385.09,287.68 388.03,290.06 390.98,292.43 393.92,296.56 396.86,303.03 399.82,309.51 402.76,315.99 405.70,321.82 408.65,323.81 411.59,325.81 414.54,327.80 417.49,329.80 420.43,326.31 423.37,321.92 426.33,317.52 429.27,313.12 432.21,307.20 435.16,300.14 438.10,293.08 441.04,286.02 444.00,278.92 446.94,271.73 449.88,264.53 452.83,257.33 455.78,250.13 458.72,243.27 461.67,236.41 464.61,229.55 467.55,222.69 470.51,216.00 473.45,209.38 476.39,202.77 479.34,196.15 482.28,189.72 485.23,183.57 488.18,177.41 491.12,171.25 494.06,165.25 497.02,160.19 499.96,155.13 502.90,150.07 505.85,145.01 508.79,141.25 511.73,137.71 514.69,134.16 517.63,130.61 520.57,127.96 523.52,125.96 526.47,123.96 529.41,121.97 532.36,120.40 535.30,119.91 538.24,119.42 541.20,118.93 544.14,118.45 547.08,119.41 550.03,120.38 552.97,121.35 555.92,122.31 558.87,124.24 561.81,126.56 564.75,128.88 567.71,131.20 570.65,134.04 573.59,137.58 576.54,141.12 579.48,144.66 582.42,148.34 585.38,152.93 588.32,157.52 591.26,162.10 594.21,166.69 597.16,171.98 600.10,177.40 603.05,182.82 605.99,188.23 608.93,193.99 611.89,199.99 614.83,206.00 617.77,212.01 620.72,218.11 623.66,224.42 626.60,230.75 629.56,237.06 632.50,243.39 635.44,249.71 638.40,256.05 641.34,262.37 644.28,268.70 647.23,274.78 650.17,280.74 653.11,286.71 656.07,292.68 659.01,298.30 661.95,303.47 664.90,308.64 667.84,313.81 670.79,318.80 673.74,322.76 676.68,326.72 679.62,330.68 682.58,334.64 685.52,337.36 688.46,339.87 691.41,342.38 694.35,344.89 697.29,346.58 700.25,347.65 703.19,348.71 706.13,349.78 709.08,350.50 712.03,350.35 714.97,350.20 717.92,350.05 720.86,349.89 723.80,348.86 726.76,347.83 729.70,346.80 732.64,345.76 735.59,344.37 738.53,342.84 741.48,341.30 744.43,339.76 747.37,338.16 750.31,336.46 753.27,334.77 756.21,333.07 759.15,331.39 762.10,329.83 765.04,328.26 767.98,326.69 770.94,325.13 773.88,323.87 776.82,322.67 779.77,321.47 782.72,320.27 785.66,319.39 788.61,318.75 791.55,318.10 794.49,317.46 797.45,317.02 800.39,317.09 803.33,317.15 806.28,317.21 809.22,317.27 812.17,318.14 815.12,319.01 818.06,319.88 821.00,320.75 823.96,322.25 826.90,324.01 829.84,325.76 832.79,327.52 835.73,329.66 838.67,332.32 841.63,334.98 844.57,337.64 847.51,340.41 850.46,343.90 853.41,347.38 856.35,350.86 859.30,354.35 862.24,358.44 865.18,362.64 868.14,366.84 871.08,371.03 874.02,375.52 876.97,380.22 879.91,384.92 882.85,389.62 885.81,394.06 888.75,397.83 891.69,401.60 894.65,405.37 897.59,409.14 900.53,409.80 903.48,410.47 906.42,411.13 909.36,411.80 912.32,411.28 915.26,410.30 918.20,409.31 921.15,408.32 924.09,407.38 927.04,406.51 929.99,405.63 932.93,404.76 935.87,403.79 938.83,402.29 941.77,400.79 944.71,399.28 947.66,397.78 950.60,395.65 953.54,393.42 956.50,391.18 959.44,388.95 962.38,385.90 965.33,382.24 968.28,378.58 971.22,374.92 974.17,370.47 977.11,364.02 980.05,357.58 983.01,351.13 985.95,344.69 988.89,336.52 991.84,328.35 994.78,320.19 997.73,312.02 1000.68,304.97 1003.62,298.37 1006.56,291.77 1009.52,285.17 1012.46,281.10 1015.40,280.40 1018.35,279.69 1021.29,278.99 1024.23,279.85 1027.19,290.10 1030.13,300.35 1033.07,310.60 1036.02,320.85 1038.97,340.35 1041.91,361.40 1044.86,382.45 1047.80,403.50 1050.74,432.72 1053.70,468.07 1056.64,503.43 1059.58,538.78 1062.53,570.54 1065.47,593.29 1068.42,616.04 1071.37,638.80 1074.31,661.55" fill="none" stroke="#000000" stroke-width="3"/>
<line x1="142" y1="100" x2="178" y2="100" stroke="#000000" stroke-width="4"/>
<text x="188" y="105" font-family="Arial" font-size="18" fill="black">vorticity:1</text>
</svg>