<svg xmlns="http://www.w3.org/2000/svg" width="1200" height="820" viewBox="0 0 1200 820">
<rect width="100%" height="100%" fill="white"/>
<text x="600.0" y="36" text-anchor="middle" font-family="Arial" font-size="24" fill="black">profile_rack_height_x: alphat</text>
<line x1="120.00" y1="75" x2="120.00" y2="705" stroke="#dddddd" stroke-width="1"/>
<text x="120.00" y="737" text-anchor="middle" font-family="Arial" font-size="16" fill="black">-0.560</text>
<line x1="376.25" y1="75" x2="376.25" y2="705" stroke="#dddddd" stroke-width="1"/>
<text x="376.25" y="737" text-anchor="middle" font-family="Arial" font-size="16" fill="black">1.470</text>
<line x1="632.50" y1="75" x2="632.50" y2="705" stroke="#dddddd" stroke-width="1"/>
<text x="632.50" y="737" text-anchor="middle" font-family="Arial" font-size="16" fill="black">3.500</text>
<line x1="888.75" y1="75" x2="888.75" y2="705" stroke="#dddddd" stroke-width="1"/>
<text x="888.75" y="737" text-anchor="middle" font-family="Arial" font-size="16" fill="black">5.530</text>
<line x1="1145.00" y1="75" x2="1145.00" y2="705" stroke="#dddddd" stroke-width="1"/>
<text x="1145.00" y="737" text-anchor="middle" font-family="Arial" font-size="16" fill="black">7.560</text>
<line x1="120" y1="705.00" x2="1145" y2="705.00" stroke="#dddddd" stroke-width="1"/>
<text x="104" y="710.00" text-anchor="end" font-family="Arial" font-size="16" fill="black">-6.24e-04</text>
<line x1="120" y1="547.50" x2="1145" y2="547.50" stroke="#dddddd" stroke-width="1"/>
<text x="104" y="552.50" text-anchor="end" font-family="Arial" font-size="16" fill="black">0.004</text>
<line x1="120" y1="390.00" x2="1145" y2="390.00" stroke="#dddddd" stroke-width="1"/>
<text x="104" y="395.00" text-anchor="end" font-family="Arial" font-size="16" fill="black">0.009</text>
<line x1="120" y1="232.50" x2="1145" y2="232.50" stroke="#dddddd" stroke-width="1"/>
<text x="104" y="237.50" text-anchor="end" font-family="Arial" font-size="16" fill="black">0.014</text>
<line x1="120" y1="75.00" x2="1145" y2="75.00" stroke="#dddddd" stroke-width="1"/>
<text x="104" y="80.00" text-anchor="end" font-family="Arial" font-size="16" fill="black">0.019</text>
<rect x="120" y="75" width="1025" height="630" fill="none" stroke="black" stroke-width="2"/>
<text x="632.5" y="785" text-anchor="middle" font-family="Arial" font-size="20" fill="black">x coordinate [m]</text>
<text x="34" y="390.0" transform="rotate(-90 34 390.0)" text-anchor="middle" font-family="Arial" font-size="20" fill="black">alphat [SI]</text>
<polyline points="190.69,661.55 193.64,650.87 196.58,640.18 199.53,629.50 202.47,618.81 205.42,603.46 208.36,586.25 211.31,569.03 214.25,551.82 217.20,537.17 220.14,525.95 223.09,514.73 226.03,503.51 228.98,492.70 231.93,484.31 234.87,475.92 237.82,467.54 240.76,459.15 243.71,452.09 246.65,445.25 249.60,438.41 252.54,431.57 255.49,425.16 258.43,419.07 261.38,412.98 264.32,406.89 267.27,400.81 270.22,394.75 273.16,388.69 276.11,382.63 279.05,376.57 282.00,369.86 284.94,363.16 287.89,356.46 290.83,349.77 293.78,342.32 296.72,334.57 299.67,326.86 302.62,319.11 305.56,311.03 308.51,302.46 311.45,293.90 314.40,285.33 317.34,276.76 320.29,268.12 323.23,259.52 326.17,250.89 329.13,242.25 332.07,234.44 335.01,226.79 337.96,219.11 340.91,211.42 343.85,204.79 346.80,198.95 349.74,193.11 352.68,187.26 355.64,182.11 358.58,178.69 361.52,175.28 364.47,171.86 367.41,168.45 370.35,167.60 373.31,166.74 376.25,165.89 379.19,165.00 382.15,165.59 385.09,166.77 388.03,167.92 390.98,169.11 393.92,170.78 396.86,173.14 399.82,175.54 402.76,177.90 405.70,180.37 408.65,183.26 411.59,186.18 414.54,189.07 417.49,191.99 420.43,194.68 423.37,197.34 426.33,200.00 429.27,202.66 432.21,204.56 435.16,205.88 438.10,207.22 441.04,208.54 444.00,209.22 446.94,208.27 449.88,207.35 452.83,206.43 455.78,205.48 458.72,202.46 461.67,199.41 464.61,196.36 467.55,193.33 470.51,189.53 473.45,185.39 476.39,181.29 479.34,177.15 482.28,173.01 485.23,168.84 488.18,164.67 491.12,160.50 494.06,156.40 497.02,152.76 499.96,149.14 502.90,145.50 505.85,141.86 508.79,138.97 511.73,136.18 514.69,133.39 517.63,130.60 520.57,128.36 523.52,126.56 526.47,124.78 529.41,122.98 532.36,121.50 535.30,120.71 538.24,119.96 541.20,119.20 544.14,118.45 547.08,118.61 550.03,118.81 552.97,118.97 555.92,119.17 558.87,119.86 561.81,120.78 564.75,121.70 567.71,122.62 570.65,123.77 573.59,125.18 576.54,126.62 579.48,128.03 582.42,129.51 585.38,131.19 588.32,132.89 591.26,134.60 594.21,136.31 597.16,138.08 600.10,139.85 603.05,141.63 605.99,143.40 608.93,145.27 611.89,147.14 614.83,149.05 617.77,150.95 620.72,152.95 623.66,155.32 626.60,157.68 629.56,160.04 632.50,162.41 635.44,165.63 638.40,168.84 641.34,172.06 644.28,175.31 647.23,179.18 650.17,183.35 653.11,187.49 656.07,191.66 659.01,196.09 661.95,200.95 664.90,205.78 667.84,210.64 670.79,215.56 673.74,220.85 676.68,226.13 679.62,231.45 682.58,236.74 685.52,242.29 688.46,247.90 691.41,253.48 694.35,259.09 697.29,264.77 700.25,270.52 703.19,276.23 706.13,281.98 709.08,287.69 712.03,293.30 714.97,298.92 717.92,304.53 720.86,310.18 723.80,315.50 726.76,320.82 729.70,326.13 732.64,331.45 735.59,336.48 738.53,341.40 741.48,346.36 744.43,351.28 747.37,355.94 750.31,360.30 753.27,364.65 756.21,369.00 759.15,373.27 762.10,377.06 765.04,380.84 767.98,384.62 770.94,388.41 773.88,392.04 776.82,395.65 779.77,399.26 782.72,402.87 785.66,406.40 788.61,409.87 791.55,413.34 794.49,416.81 797.45,420.05 800.39,422.73 803.33,425.40 806.28,428.08 809.22,430.76 812.17,432.15 815.12,433.55 818.06,434.94 821.00,436.34 823.96,437.04 826.90,437.47 829.84,437.90 832.79,438.33 835.73,438.68 838.67,438.94 841.63,439.20 844.57,439.46 847.51,439.80 850.46,440.61 853.41,441.41 856.35,442.21 859.30,443.01 862.24,444.64 865.18,446.42 868.14,448.19 871.08,449.97 874.02,452.15 876.97,454.64 879.91,457.13 882.85,459.62 885.81,461.82 888.75,463.33 891.69,464.83 894.65,466.33 897.59,467.83 900.53,465.94 903.48,464.04 906.42,462.14 909.36,460.24 912.32,455.44 915.26,449.47 918.20,443.49 921.15,437.52 924.09,430.74 927.04,422.88 929.99,415.03 932.93,407.17 935.87,399.50 938.83,392.98 941.77,386.45 944.71,379.93 947.66,373.41 950.60,369.58 953.54,366.20 956.50,362.82 959.44,359.43 962.38,357.85 965.33,357.61 968.28,357.38 971.22,357.14 974.17,357.58 977.11,359.70 980.05,361.82 983.01,363.95 985.95,366.08 988.89,369.78 991.84,373.49 994.78,377.20 997.73,380.90 1000.68,385.27 1003.62,389.90 1006.56,394.53 1009.52,399.16 1012.46,404.04 1015.40,409.27 1018.35,414.49 1021.29,419.71 1024.23,425.17 1027.19,431.98 1030.13,438.80 1033.07,445.61 1036.02,452.43 1038.97,463.76 1041.91,475.85 1044.86,487.94 1047.80,500.03 1050.74,517.59 1053.70,539.26 1056.64,560.93 1059.58,582.60 1062.53,601.97 1065.47,615.61 1068.42,629.24 1071.37,642.88 1074.31,656.52" fill="none" stroke="#000000" stroke-width="3"/>
<line x1="142" y1="100" x2="178" y2="100" stroke="#000000" stroke-width="4"/>
<text x="188" y="105" font-family="Arial" font-size="18" fill="black">alphat</text>
</svg>