<svg xmlns="http://www.w3.org/2000/svg" width="1200" height="820" viewBox="0 0 1200 820">
<rect width="100%" height="100%" fill="white"/>
<text x="600.0" y="36" text-anchor="middle" font-family="Arial" font-size="24" fill="black">profile_center_z: U:0</text>
<line x1="120.00" y1="75" x2="120.00" y2="705" stroke="#dddddd" stroke-width="1"/>
<text x="120.00" y="737" text-anchor="middle" font-family="Arial" font-size="16" fill="black">-0.240</text>
<line x1="376.25" y1="75" x2="376.25" y2="705" stroke="#dddddd" stroke-width="1"/>
<text x="376.25" y="737" text-anchor="middle" font-family="Arial" font-size="16" fill="black">0.630</text>
<line x1="632.50" y1="75" x2="632.50" y2="705" stroke="#dddddd" stroke-width="1"/>
<text x="632.50" y="737" text-anchor="middle" font-family="Arial" font-size="16" fill="black">1.500</text>
<line x1="888.75" y1="75" x2="888.75" y2="705" stroke="#dddddd" stroke-width="1"/>
<text x="888.75" y="737" text-anchor="middle" font-family="Arial" font-size="16" fill="black">2.370</text>
<line x1="1145.00" y1="75" x2="1145.00" y2="705" stroke="#dddddd" stroke-width="1"/>
<text x="1145.00" y="737" text-anchor="middle" font-family="Arial" font-size="16" fill="black">3.240</text>
<line x1="120" y1="705.00" x2="1145" y2="705.00" stroke="#dddddd" stroke-width="1"/>
<text x="104" y="710.00" text-anchor="end" font-family="Arial" font-size="16" fill="black">-0.332</text>
<line x1="120" y1="547.50" x2="1145" y2="547.50" stroke="#dddddd" stroke-width="1"/>
<text x="104" y="552.50" text-anchor="end" font-family="Arial" font-size="16" fill="black">-0.232</text>
<line x1="120" y1="390.00" x2="1145" y2="390.00" stroke="#dddddd" stroke-width="1"/>
<text x="104" y="395.00" text-anchor="end" font-family="Arial" font-size="16" fill="black">-0.133</text>
<line x1="120" y1="232.50" x2="1145" y2="232.50" stroke="#dddddd" stroke-width="1"/>
<text x="104" y="237.50" text-anchor="end" font-family="Arial" font-size="16" fill="black">-0.033</text>
<line x1="120" y1="75.00" x2="1145" y2="75.00" stroke="#dddddd" stroke-width="1"/>
<text x="104" y="80.00" text-anchor="end" font-family="Arial" font-size="16" fill="black">0.067</text>
<rect x="120" y="75" width="1025" height="630" fill="none" stroke="black" stroke-width="2"/>
<text x="632.5" y="785" text-anchor="middle" font-family="Arial" font-size="20" fill="black">z coordinate [m]</text>
<text x="34" y="390.0" transform="rotate(-90 34 390.0)" text-anchor="middle" font-family="Arial" font-size="20" fill="black">U:0 [SI]</text>
<polyline points="190.69,179.89 193.64,179.78 196.58,179.67 199.53,179.56 202.47,179.45 205.42,179.34 208.36,179.23 211.31,179.12 214.25,179.00 217.20,178.89 220.14,178.78 223.09,178.46 226.03,178.15 228.98,177.83 231.93,177.51 234.87,177.19 237.82,176.87 240.76,176.55 243.71,176.23 246.65,175.92 249.60,175.60 252.54,175.17 255.49,174.73 258.43,174.30 261.38,173.87 264.32,173.44 267.27,173.01 270.22,172.58 273.16,172.14 276.11,171.71 279.05,171.28 282.00,170.91 284.94,170.54 287.89,170.17 290.83,169.80 293.78,169.43 296.72,169.06 299.67,168.69 302.61,168.32 305.56,167.95 308.51,167.58 311.45,167.45 314.40,167.32 317.34,167.19 320.29,167.05 323.23,166.92 326.18,166.79 329.12,166.66 332.07,166.52 335.01,166.39 337.96,166.26 340.91,166.52 343.85,166.78 346.80,167.04 349.74,167.30 352.69,167.56 355.63,167.82 358.58,168.08 361.52,168.35 364.47,168.61 367.41,168.87 370.36,169.67 373.30,170.46 376.25,171.26 379.20,172.06 382.14,172.86 385.09,173.66 388.03,174.45 390.98,175.25 393.92,176.05 396.87,176.85 399.81,177.98 402.76,179.12 405.70,180.25 408.65,181.39 411.59,182.52 414.54,183.66 417.49,184.79 420.43,185.92 423.38,187.06 426.32,188.19 429.27,187.44 432.21,186.69 435.16,185.94 438.10,185.19 441.05,184.44 443.99,183.69 446.94,182.94 449.89,182.19 452.83,181.44 455.78,180.69 458.72,177.39 461.67,174.09 464.61,170.80 467.56,167.50 470.50,164.20 473.45,160.90 476.39,157.60 479.34,154.31 482.28,151.01 485.23,147.71 488.18,145.23 491.12,142.75 494.07,140.27 497.01,137.79 499.96,135.32 502.90,132.84 505.85,130.36 508.79,127.88 511.74,125.40 514.68,122.92 517.63,122.47 520.57,122.03 523.52,121.58 526.47,121.13 529.41,120.68 532.36,120.24 535.30,119.79 538.25,119.34 541.19,118.90 544.14,118.45 547.08,119.22 550.03,119.99 552.97,120.76 555.92,121.53 558.86,122.30 561.81,123.07 564.76,123.84 567.70,124.61 570.65,125.38 573.59,126.15 576.54,128.12 579.48,130.09 582.43,132.06 585.37,134.03 588.32,135.99 591.26,137.96 594.21,139.93 597.16,141.90 600.10,143.87 603.05,145.84 605.99,148.77 608.94,151.70 611.88,154.64 614.83,157.57 617.77,160.50 620.72,163.44 623.66,166.37 626.61,169.30 629.55,172.24 632.50,175.17 635.45,178.69 638.39,182.22 641.34,185.74 644.28,189.26 647.23,192.79 650.17,196.31 653.12,199.83 656.06,203.36 659.01,206.88 661.95,210.40 664.90,214.13 667.84,217.85 670.79,221.57 673.74,225.29 676.68,229.02 679.63,232.74 682.57,236.46 685.52,240.18 688.46,243.91 691.41,247.63 694.35,251.25 697.30,254.88 700.24,258.50 703.19,262.12 706.14,265.74 709.08,269.37 712.03,272.99 714.97,276.61 717.92,280.24 720.86,283.86 723.81,287.19 726.75,290.52 729.70,293.85 732.64,297.17 735.59,300.50 738.53,303.83 741.48,307.16 744.43,310.49 747.37,313.82 750.32,317.15 753.26,320.08 756.21,323.01 759.15,325.95 762.10,328.88 765.04,331.81 767.99,334.74 770.93,337.68 773.88,340.61 776.82,343.55 779.77,346.47 782.72,349.02 785.66,351.54 788.61,354.09 791.55,356.62 794.50,359.16 797.44,361.69 800.39,364.23 803.33,366.76 806.28,369.30 809.22,371.83 812.17,374.06 815.11,376.29 818.06,378.51 821.01,380.74 823.95,382.97 826.90,385.20 829.84,387.42 832.79,389.65 835.73,391.88 838.68,394.11 841.62,396.18 844.57,398.26 847.51,400.35 850.46,402.42 853.41,404.50 856.35,406.59 859.30,408.67 862.24,410.74 865.19,412.83 868.13,414.91 871.08,417.05 874.02,419.20 876.97,421.33 879.91,423.48 882.86,425.61 885.80,427.76 888.75,429.89 891.70,432.04 894.64,434.17 897.59,436.32 900.53,438.72 903.48,441.14 906.42,443.56 909.37,445.97 912.31,448.39 915.26,450.79 918.20,453.21 921.15,455.63 924.09,458.05 927.04,460.46 929.99,463.35 932.93,466.24 935.88,469.14 938.82,472.03 941.77,474.92 944.71,477.83 947.66,480.72 950.60,483.61 953.55,486.50 956.49,489.39 959.44,492.95 962.39,496.52 965.33,500.07 968.28,503.63 971.22,507.18 974.17,510.73 977.11,514.31 980.06,517.86 983.00,521.41 985.95,524.97 988.89,529.43 991.84,533.86 994.78,538.32 997.73,542.76 1000.68,547.21 1003.62,551.65 1006.57,556.11 1009.51,560.55 1012.46,565.00 1015.40,569.44 1018.35,575.29 1021.29,581.14 1024.24,586.98 1027.18,592.83 1030.13,598.67 1033.07,604.52 1036.02,610.36 1038.97,616.21 1041.91,622.05 1044.86,627.90 1047.80,631.27 1050.75,634.63 1053.69,638.00 1056.64,641.36 1059.58,644.73 1062.53,648.09 1065.47,651.46 1068.42,654.82 1071.36,658.19 1074.31,661.55" fill="none" stroke="#000000" stroke-width="3"/>
<line x1="142" y1="100" x2="178" y2="100" stroke="#000000" stroke-width="4"/>
<text x="188" y="105" font-family="Arial" font-size="18" fill="black">U:0</text>
</svg>