<svg xmlns="http://www.w3.org/2000/svg" width="1200" height="820" viewBox="0 0 1200 820">
<rect width="100%" height="100%" fill="white"/>
<text x="600.0" y="36" text-anchor="middle" font-family="Arial" font-size="24" fill="black">profile_center_y: vorticity:2</text>
<line x1="120.00" y1="75" x2="120.00" y2="705" stroke="#dddddd" stroke-width="1"/>
<text x="120.00" y="737" text-anchor="middle" font-family="Arial" font-size="16" fill="black">-0.400</text>
<line x1="376.25" y1="75" x2="376.25" y2="705" stroke="#dddddd" stroke-width="1"/>
<text x="376.25" y="737" text-anchor="middle" font-family="Arial" font-size="16" fill="black">1.050</text>
<line x1="632.50" y1="75" x2="632.50" y2="705" stroke="#dddddd" stroke-width="1"/>
<text x="632.50" y="737" text-anchor="middle" font-family="Arial" font-size="16" fill="black">2.500</text>
<line x1="888.75" y1="75" x2="888.75" y2="705" stroke="#dddddd" stroke-width="1"/>
<text x="888.75" y="737" text-anchor="middle" font-family="Arial" font-size="16" fill="black">3.950</text>
<line x1="1145.00" y1="75" x2="1145.00" y2="705" stroke="#dddddd" stroke-width="1"/>
<text x="1145.00" y="737" text-anchor="middle" font-family="Arial" font-size="16" fill="black">5.400</text>
<line x1="120" y1="705.00" x2="1145" y2="705.00" stroke="#dddddd" stroke-width="1"/>
<text x="104" y="710.00" text-anchor="end" font-family="Arial" font-size="16" fill="black">-1.201</text>
<line x1="120" y1="547.50" x2="1145" y2="547.50" stroke="#dddddd" stroke-width="1"/>
<text x="104" y="552.50" text-anchor="end" font-family="Arial" font-size="16" fill="black">-0.500</text>
<line x1="120" y1="390.00" x2="1145" y2="390.00" stroke="#dddddd" stroke-width="1"/>
<text x="104" y="395.00" text-anchor="end" font-family="Arial" font-size="16" fill="black">0.200</text>
<line x1="120" y1="232.50" x2="1145" y2="232.50" stroke="#dddddd" stroke-width="1"/>
<text x="104" y="237.50" text-anchor="end" font-family="Arial" font-size="16" fill="black">0.900</text>
<line x1="120" y1="75.00" x2="1145" y2="75.00" stroke="#dddddd" stroke-width="1"/>
<text x="104" y="80.00" text-anchor="end" font-family="Arial" font-size="16" fill="black">1.600</text>
<rect x="120" y="75" width="1025" height="630" fill="none" stroke="black" stroke-width="2"/>
<text x="632.5" y="785" text-anchor="middle" font-family="Arial" font-size="20" fill="black">y coordinate [m]</text>
<text x="34" y="390.0" transform="rotate(-90 34 390.0)" text-anchor="middle" font-family="Arial" font-size="20" fill="black">vorticity:2 [SI]</text>
<polyline points="190.69,118.45 193.64,154.10 196.58,189.74 199.53,225.40 202.47,261.04 205.42,296.69 208.36,332.34 211.31,367.64 214.25,402.95 217.20,438.25 220.14,473.56 223.09,508.86 226.03,544.17 228.98,543.24 231.92,542.32 234.87,541.39 237.82,540.47 240.76,539.54 243.71,538.62 246.65,537.10 249.60,535.58 252.54,534.05 255.49,532.53 258.43,531.01 261.38,529.49 264.33,527.53 267.27,525.57 270.22,523.61 273.16,521.65 276.11,519.69 279.05,517.73 282.00,515.80 284.94,513.88 287.89,511.95 290.83,510.02 293.78,508.10 296.72,506.17 299.67,504.41 302.61,502.64 305.56,500.87 308.51,499.11 311.45,497.34 314.40,495.57 317.34,493.80 320.29,492.03 323.23,490.26 326.18,488.49 329.12,486.72 332.07,484.95 335.01,482.97 337.96,481.00 340.91,479.02 343.85,477.05 346.80,475.07 349.74,473.10 352.69,470.79 355.63,468.49 358.58,466.18 361.52,463.88 364.47,461.58 367.41,459.27 370.37,456.74 373.30,454.21 376.25,451.67 379.20,449.14 382.13,446.60 385.09,444.07 388.04,441.48 390.97,438.89 393.92,436.31 396.87,433.72 399.81,431.13 402.76,428.54 405.71,426.06 408.64,423.57 411.59,421.08 414.55,418.60 417.48,416.11 420.43,413.62 423.38,411.33 426.32,409.04 429.27,406.74 432.22,404.45 435.15,402.16 438.10,399.87 441.05,397.85 443.99,395.84 446.94,393.83 449.89,391.81 452.82,389.80 455.78,387.78 458.73,386.14 461.66,384.49 464.61,382.85 467.56,381.20 470.50,379.56 473.45,377.91 476.40,376.54 479.33,375.17 482.28,373.79 485.24,372.42 488.17,371.05 491.12,369.68 494.07,368.36 497.01,367.05 499.96,365.73 502.91,364.42 505.84,363.11 508.79,361.79 511.74,360.54 514.68,359.29 517.63,358.03 520.58,356.78 523.51,355.53 526.47,354.28 529.42,353.53 532.35,352.78 535.30,352.03 538.25,351.28 541.19,350.53 544.14,349.78 547.09,350.32 550.02,350.88 552.97,351.42 555.93,351.98 558.86,352.52 561.81,353.07 564.76,355.50 567.70,357.93 570.65,360.36 573.60,362.79 576.53,365.22 579.48,367.64 582.43,371.69 585.37,375.75 588.32,379.80 591.27,383.85 594.20,387.90 597.16,391.95 600.11,396.82 603.04,401.69 605.99,406.56 608.94,411.42 611.88,416.29 614.83,421.16 617.78,426.15 620.71,431.14 623.66,436.12 626.62,441.11 629.55,446.10 632.50,451.08 635.45,455.72 638.38,460.35 641.34,464.99 644.29,469.62 647.22,474.26 650.17,478.89 653.12,482.36 656.06,485.82 659.01,489.29 661.96,492.76 664.89,496.23 667.84,499.69 670.80,500.56 673.73,501.43 676.68,502.30 679.63,503.17 682.57,504.04 685.52,504.91 688.47,502.50 691.40,500.08 694.35,497.67 697.30,495.25 700.24,492.84 703.19,490.42 706.14,485.71 709.07,481.00 712.03,476.28 714.98,471.57 717.91,466.85 720.86,462.14 723.81,457.22 726.75,452.31 729.70,447.39 732.65,442.47 735.58,437.56 738.53,432.64 741.49,429.78 744.42,426.91 747.37,424.05 750.32,421.18 753.26,418.32 756.21,415.45 759.16,415.52 762.09,415.60 765.04,415.67 767.99,415.74 770.93,415.81 773.88,415.89 776.83,417.81 779.76,419.74 782.72,421.66 785.67,423.58 788.60,425.51 791.55,427.43 794.50,429.36 797.44,431.29 800.39,433.22 803.34,435.15 806.27,437.08 809.22,439.00 812.18,439.85 815.11,440.70 818.06,441.55 821.01,442.40 823.95,443.24 826.90,444.09 829.85,443.82 832.78,443.54 835.73,443.27 838.68,442.99 841.62,442.72 844.57,442.45 847.52,441.47 850.45,440.50 853.41,439.53 856.36,438.56 859.29,437.59 862.24,436.62 865.19,435.38 868.13,434.15 871.08,432.92 874.03,431.68 876.96,430.45 879.91,429.22 882.87,428.00 885.80,426.79 888.75,425.58 891.70,424.36 894.63,423.15 897.59,421.94 900.54,420.96 903.47,419.98 906.42,418.99 909.37,418.01 912.31,417.03 915.26,416.05 918.21,415.48 921.14,414.90 924.09,414.33 927.05,413.76 929.98,413.18 932.93,412.61 935.88,412.60 938.82,412.59 941.77,412.57 944.72,412.56 947.65,412.55 950.60,412.54 953.55,413.22 956.49,413.91 959.44,414.60 962.39,415.29 965.32,415.97 968.28,416.66 971.23,418.09 974.16,419.52 977.11,420.95 980.06,422.39 983.00,423.82 985.95,425.25 988.90,427.30 991.83,429.35 994.78,431.40 997.74,433.45 1000.67,435.50 1003.62,437.55 1006.57,440.01 1009.51,442.46 1012.46,444.92 1015.41,447.37 1018.34,449.83 1021.29,452.28 1024.24,455.10 1027.18,457.92 1030.13,460.74 1033.08,463.56 1036.01,466.38 1038.97,469.20 1041.92,485.98 1044.85,502.77 1047.80,519.56 1050.75,536.35 1053.69,553.14 1056.64,569.92 1059.59,585.20 1062.52,600.47 1065.47,615.74 1068.43,631.01 1071.36,646.28 1074.31,661.55" fill="none" stroke="#000000" stroke-width="3"/>
<line x1="142" y1="100" x2="178" y2="100" stroke="#000000" stroke-width="4"/>
<text x="188" y="105" font-family="Arial" font-size="18" fill="black">vorticity:2</text>
</svg>