<svg xmlns="http://www.w3.org/2000/svg" width="1200" height="820" viewBox="0 0 1200 820">
<rect width="100%" height="100%" fill="white"/>
<text x="600.0" y="36" text-anchor="middle" font-family="Arial" font-size="24" fill="black">profile_center_x: p</text>
<line x1="120.00" y1="75" x2="120.00" y2="705" stroke="#dddddd" stroke-width="1"/>
<text x="120.00" y="737" text-anchor="middle" font-family="Arial" font-size="16" fill="black">-0.560</text>
<line x1="376.25" y1="75" x2="376.25" y2="705" stroke="#dddddd" stroke-width="1"/>
<text x="376.25" y="737" text-anchor="middle" font-family="Arial" font-size="16" fill="black">1.470</text>
<line x1="632.50" y1="75" x2="632.50" y2="705" stroke="#dddddd" stroke-width="1"/>
<text x="632.50" y="737" text-anchor="middle" font-family="Arial" font-size="16" fill="black">3.500</text>
<line x1="888.75" y1="75" x2="888.75" y2="705" stroke="#dddddd" stroke-width="1"/>
<text x="888.75" y="737" text-anchor="middle" font-family="Arial" font-size="16" fill="black">5.530</text>
<line x1="1145.00" y1="75" x2="1145.00" y2="705" stroke="#dddddd" stroke-width="1"/>
<text x="1145.00" y="737" text-anchor="middle" font-family="Arial" font-size="16" fill="black">7.560</text>
<line x1="120" y1="705.00" x2="1145" y2="705.00" stroke="#dddddd" stroke-width="1"/>
<text x="104" y="710.00" text-anchor="end" font-family="Arial" font-size="16" fill="black">-16.71</text>
<line x1="120" y1="547.50" x2="1145" y2="547.50" stroke="#dddddd" stroke-width="1"/>
<text x="104" y="552.50" text-anchor="end" font-family="Arial" font-size="16" fill="black">-16.69</text>
<line x1="120" y1="390.00" x2="1145" y2="390.00" stroke="#dddddd" stroke-width="1"/>
<text x="104" y="395.00" text-anchor="end" font-family="Arial" font-size="16" fill="black">-16.67</text>
<line x1="120" y1="232.50" x2="1145" y2="232.50" stroke="#dddddd" stroke-width="1"/>
<text x="104" y="237.50" text-anchor="end" font-family="Arial" font-size="16" fill="black">-16.64</text>
<line x1="120" y1="75.00" x2="1145" y2="75.00" stroke="#dddddd" stroke-width="1"/>
<text x="104" y="80.00" text-anchor="end" font-family="Arial" font-size="16" fill="black">-16.62</text>
<rect x="120" y="75" width="1025" height="630" fill="none" stroke="black" stroke-width="2"/>
<text x="632.5" y="785" text-anchor="middle" font-family="Arial" font-size="20" fill="black">x coordinate [m]</text>
<text x="34" y="390.0" transform="rotate(-90 34 390.0)" text-anchor="middle" font-family="Arial" font-size="20" fill="black">p [Pa]</text>
<polyline points="190.69,118.45 193.64,118.45 196.58,118.45 199.53,118.45 202.47,118.45 205.42,118.45 208.36,118.45 211.31,118.45 214.25,118.45 217.20,118.45 220.14,118.45 223.09,118.45 226.03,118.45 228.98,118.45 231.93,118.45 234.87,124.99 237.82,124.99 240.76,124.99 243.71,131.54 246.65,138.08 249.60,138.08 252.54,144.62 255.49,151.17 258.43,151.17 261.38,157.71 264.32,164.25 267.27,170.80 270.22,177.34 273.16,183.88 276.11,190.43 279.05,196.97 282.00,203.51 284.94,210.06 287.89,216.60 290.83,229.69 293.78,236.23 296.72,242.77 299.67,249.32 302.62,255.86 305.56,262.40 308.51,275.49 311.45,282.03 314.40,288.58 317.34,295.12 320.29,301.66 323.23,308.21 326.17,314.75 329.13,314.75 332.07,321.29 335.01,327.84 337.96,334.38 340.91,334.38 343.85,340.92 346.80,340.92 349.74,347.47 352.68,347.47 355.64,354.01 358.58,354.01 361.52,354.01 364.47,354.01 367.41,360.55 370.35,360.55 373.31,360.55 376.25,360.55 379.19,360.55 382.15,360.55 385.09,360.55 388.03,360.55 390.98,367.10 393.92,367.10 396.86,367.10 399.82,367.10 402.76,367.10 405.70,367.10 408.65,360.55 411.59,360.55 414.54,360.55 417.49,360.55 420.43,360.55 423.37,360.55 426.33,367.10 429.27,367.10 432.21,367.10 435.16,367.10 438.10,367.10 441.04,367.10 444.00,367.10 446.94,367.10 449.88,367.10 452.83,367.10 455.78,373.64 458.72,373.64 461.67,373.64 464.61,373.64 467.55,373.64 470.51,380.18 473.45,380.18 476.39,380.18 479.34,386.73 482.28,386.73 485.23,386.73 488.18,386.73 491.12,393.27 494.06,393.27 497.02,399.82 499.96,399.82 502.90,399.82 505.85,406.36 508.79,406.36 511.73,412.90 514.69,412.90 517.63,419.45 520.57,419.45 523.52,419.45 526.47,425.99 529.41,425.99 532.36,432.53 535.30,432.53 538.24,439.08 541.20,439.08 544.14,445.62 547.08,445.62 550.03,452.16 552.97,452.16 555.92,458.71 558.87,458.71 561.81,465.25 564.75,465.25 567.71,471.79 570.65,471.79 573.59,478.34 576.54,478.34 579.48,484.88 582.42,484.88 585.38,491.42 588.32,491.42 591.26,491.42 594.21,497.97 597.16,497.97 600.10,497.97 603.05,504.51 605.99,504.51 608.93,504.51 611.89,511.05 614.83,511.05 617.77,511.05 620.72,511.05 623.66,511.05 626.60,517.60 629.56,517.60 632.50,517.60 635.44,517.60 638.40,517.60 641.34,517.60 644.28,524.14 647.23,524.14 650.17,524.14 653.11,524.14 656.07,524.14 659.01,524.14 661.95,524.14 664.90,517.60 667.84,517.60 670.79,517.60 673.74,517.60 676.68,511.05 679.62,511.05 682.58,511.05 685.52,504.51 688.46,504.51 691.41,497.97 694.35,491.42 697.29,491.42 700.25,484.88 703.19,478.34 706.13,471.79 709.08,471.79 712.03,465.25 714.97,458.71 717.92,452.16 720.86,445.62 723.80,445.62 726.76,439.08 729.70,432.53 732.64,425.99 735.59,425.99 738.53,419.45 741.48,412.90 744.43,412.90 747.37,406.36 750.31,406.36 753.27,399.82 756.21,399.82 759.15,393.27 762.10,393.27 765.04,393.27 767.98,386.73 770.94,386.73 773.88,386.73 776.82,386.73 779.77,393.27 782.72,393.27 785.66,393.27 788.61,393.27 791.55,399.82 794.49,399.82 797.45,406.36 800.39,412.90 803.33,412.90 806.28,419.45 809.22,425.99 812.17,432.53 815.12,439.08 818.06,439.08 821.00,445.62 823.96,452.16 826.90,458.71 829.84,458.71 832.79,465.25 835.73,471.79 838.67,471.79 841.63,478.34 844.57,478.34 847.51,484.88 850.46,484.88 853.41,491.42 856.35,491.42 859.30,491.42 862.24,491.42 865.18,491.42 868.14,491.42 871.08,497.97 874.02,497.97 876.97,497.97 879.91,497.97 882.85,497.97 885.81,497.97 888.75,497.97 891.69,497.97 894.65,497.97 897.59,497.97 900.53,497.97 903.48,497.97 906.42,504.51 909.36,504.51 912.32,504.51 915.26,511.05 918.20,511.05 921.15,517.60 924.09,524.14 927.04,530.68 929.99,530.68 932.93,537.23 935.87,543.77 938.83,550.31 941.77,556.86 944.71,569.94 947.66,576.49 950.60,583.03 953.54,589.57 956.50,596.12 959.44,602.66 962.38,609.20 965.33,615.75 968.28,622.29 971.22,628.83 974.17,635.38 977.11,635.38 980.05,641.92 983.01,648.46 985.95,655.01 988.89,655.01 991.84,655.01 994.78,655.01 997.73,661.55 1000.68,661.55 1003.62,661.55 1006.56,661.55 1009.52,661.55 1012.46,655.01 1015.40,655.01 1018.35,648.46 1021.29,648.46 1024.23,648.46 1027.19,641.92 1030.13,635.38 1033.07,635.38 1036.02,628.83 1038.97,622.29 1041.91,615.75 1044.86,609.20 1047.80,609.20 1050.74,602.66 1053.70,596.12 1056.64,589.57 1059.58,583.03 1062.53,576.49 1065.47,576.49 1068.42,569.94 1071.37,569.94 1074.31,563.40" fill="none" stroke="#000000" stroke-width="3"/>
<line x1="142" y1="100" x2="178" y2="100" stroke="#000000" stroke-width="4"/>
<text x="188" y="105" font-family="Arial" font-size="18" fill="black">p</text>
</svg>