<svg xmlns="http://www.w3.org/2000/svg" width="1200" height="820" viewBox="0 0 1200 820">
<rect width="100%" height="100%" fill="white"/>
<text x="600.0" y="36" text-anchor="middle" font-family="Arial" font-size="24" fill="black">profile_center_y: velocity magnitude</text>
<line x1="120.00" y1="75" x2="120.00" y2="705" stroke="#dddddd" stroke-width="1"/>
<text x="120.00" y="737" text-anchor="middle" font-family="Arial" font-size="16" fill="black">-0.400</text>
<line x1="376.25" y1="75" x2="376.25" y2="705" stroke="#dddddd" stroke-width="1"/>
<text x="376.25" y="737" text-anchor="middle" font-family="Arial" font-size="16" fill="black">1.050</text>
<line x1="632.50" y1="75" x2="632.50" y2="705" stroke="#dddddd" stroke-width="1"/>
<text x="632.50" y="737" text-anchor="middle" font-family="Arial" font-size="16" fill="black">2.500</text>
<line x1="888.75" y1="75" x2="888.75" y2="705" stroke="#dddddd" stroke-width="1"/>
<text x="888.75" y="737" text-anchor="middle" font-family="Arial" font-size="16" fill="black">3.950</text>
<line x1="1145.00" y1="75" x2="1145.00" y2="705" stroke="#dddddd" stroke-width="1"/>
<text x="1145.00" y="737" text-anchor="middle" font-family="Arial" font-size="16" fill="black">5.400</text>
<line x1="120" y1="705.00" x2="1145" y2="705.00" stroke="#dddddd" stroke-width="1"/>
<text x="104" y="710.00" text-anchor="end" font-family="Arial" font-size="16" fill="black">0.028</text>
<line x1="120" y1="547.50" x2="1145" y2="547.50" stroke="#dddddd" stroke-width="1"/>
<text x="104" y="552.50" text-anchor="end" font-family="Arial" font-size="16" fill="black">0.142</text>
<line x1="120" y1="390.00" x2="1145" y2="390.00" stroke="#dddddd" stroke-width="1"/>
<text x="104" y="395.00" text-anchor="end" font-family="Arial" font-size="16" fill="black">0.256</text>
<line x1="120" y1="232.50" x2="1145" y2="232.50" stroke="#dddddd" stroke-width="1"/>
<text x="104" y="237.50" text-anchor="end" font-family="Arial" font-size="16" fill="black">0.370</text>
<line x1="120" y1="75.00" x2="1145" y2="75.00" stroke="#dddddd" stroke-width="1"/>
<text x="104" y="80.00" text-anchor="end" font-family="Arial" font-size="16" fill="black">0.484</text>
<rect x="120" y="75" width="1025" height="630" fill="none" stroke="black" stroke-width="2"/>
<text x="632.5" y="785" text-anchor="middle" font-family="Arial" font-size="20" fill="black">y coordinate [m]</text>
<text x="34" y="390.0" transform="rotate(-90 34 390.0)" text-anchor="middle" font-family="Arial" font-size="20" fill="black">|U| [m/s]</text>
<polyline points="190.69,512.55 193.64,518.59 196.58,524.64 199.53,530.68 202.47,536.74 205.42,542.78 208.36,548.83 211.31,560.25 214.25,571.66 217.20,583.08 220.14,594.49 223.09,605.91 226.03,617.33 228.98,624.70 231.92,632.07 234.87,639.44 237.82,646.81 240.76,654.18 243.71,661.55 246.65,657.56 249.60,653.57 252.54,649.58 255.49,645.58 258.43,641.59 261.38,637.60 264.33,627.08 267.27,616.56 270.22,606.04 273.16,595.52 276.11,584.99 279.05,574.48 282.00,562.81 284.94,551.14 287.89,539.47 290.83,527.81 293.78,516.14 296.72,504.47 299.67,492.61 302.61,480.74 305.56,468.86 308.51,456.99 311.45,445.12 314.40,433.26 317.34,421.24 320.29,409.23 323.23,397.23 326.18,385.21 329.12,373.20 332.07,361.19 335.01,349.11 337.96,337.02 340.91,324.92 343.85,312.83 346.80,300.74 349.74,288.65 352.69,276.99 355.63,265.34 358.58,253.68 361.52,242.02 364.47,230.38 367.41,218.72 370.37,210.09 373.30,201.47 376.25,192.84 379.20,184.22 382.13,175.59 385.09,166.97 388.04,163.53 390.97,160.11 393.92,156.69 396.87,153.26 399.81,149.84 402.76,146.41 405.71,147.66 408.64,148.92 411.59,150.16 414.55,151.42 417.48,152.67 420.43,153.91 423.38,158.81 426.32,163.71 429.27,168.61 432.22,173.51 435.15,178.41 438.10,183.31 441.05,190.84 443.99,198.37 446.94,205.91 449.89,213.44 452.82,220.98 455.78,228.50 458.73,237.79 461.66,247.06 464.61,256.35 467.56,265.62 470.50,274.91 473.45,284.18 476.40,294.57 479.33,304.96 482.28,315.35 485.24,325.74 488.17,336.14 491.12,346.51 494.07,357.66 497.01,368.81 499.96,379.96 502.91,391.11 505.84,402.26 508.79,413.40 511.74,424.98 514.68,436.54 517.63,448.10 520.58,459.67 523.51,471.25 526.47,482.81 529.42,493.33 532.35,503.85 535.30,514.37 538.25,524.88 541.19,535.40 544.14,545.93 547.09,552.12 550.02,558.33 552.97,564.54 555.93,570.74 558.86,576.95 561.81,583.16 564.76,583.82 567.70,584.50 570.65,585.17 573.60,585.84 576.53,586.51 579.48,587.19 582.43,584.82 585.37,582.43 588.32,580.05 591.27,577.68 594.20,575.29 597.16,572.92 600.11,570.64 603.04,568.35 605.99,566.06 608.94,563.79 611.88,561.49 614.83,559.22 617.78,558.73 620.71,558.25 623.66,557.77 626.62,557.30 629.55,556.82 632.50,556.33 635.45,558.46 638.38,560.58 641.34,562.71 644.29,564.83 647.22,566.97 650.17,569.10 653.12,574.11 656.06,579.13 659.01,584.15 661.96,589.18 664.89,594.20 667.84,599.21 670.80,605.88 673.73,612.54 676.68,619.21 679.63,625.87 682.57,632.54 685.52,639.20 688.47,639.89 691.40,640.57 694.35,641.26 697.30,641.95 700.24,642.64 703.19,643.32 706.14,631.43 709.07,619.55 712.03,607.66 714.98,595.77 717.91,583.88 720.86,572.00 723.81,555.48 726.75,538.96 729.70,522.44 732.65,505.91 735.58,489.39 738.53,472.87 741.49,455.89 744.42,438.90 747.37,421.91 750.32,404.93 753.26,387.94 756.21,370.95 759.16,354.76 762.09,338.58 765.04,322.40 767.99,306.22 770.93,290.03 773.88,273.86 776.83,260.21 779.76,246.58 782.72,232.94 785.67,219.31 788.60,205.67 791.55,192.03 794.50,182.97 797.44,173.92 800.39,164.86 803.34,155.80 806.27,146.75 809.22,137.70 812.18,134.48 815.11,131.28 818.06,128.07 821.01,124.87 823.95,121.65 826.90,118.45 829.85,121.00 832.78,123.57 835.73,126.13 838.68,128.70 841.62,131.27 844.57,133.83 847.52,140.98 850.45,148.12 853.41,155.27 856.36,162.41 859.29,169.56 862.24,176.71 865.19,186.60 868.13,196.51 871.08,206.41 874.03,216.31 876.96,226.21 879.91,236.12 882.87,246.62 885.80,257.13 888.75,267.65 891.70,278.15 894.63,288.66 897.59,299.18 900.54,308.12 903.47,317.05 906.42,325.99 909.37,334.93 912.31,343.88 915.26,352.82 918.21,359.41 921.14,366.00 924.09,372.58 927.05,379.18 929.98,385.76 932.93,392.35 935.88,396.98 938.82,401.61 941.77,406.24 944.72,410.87 947.65,415.50 950.60,420.13 953.55,423.02 956.49,425.90 959.44,428.77 962.39,431.66 965.32,434.54 968.28,437.42 971.23,438.62 974.16,439.81 977.11,441.01 980.06,442.21 983.00,443.40 985.95,444.60 988.90,444.24 991.83,443.88 994.78,443.51 997.74,443.15 1000.67,442.79 1003.62,442.42 1006.57,440.87 1009.51,439.34 1012.46,437.80 1015.41,436.25 1018.34,434.70 1021.29,433.16 1024.24,431.20 1027.18,429.25 1030.13,427.29 1033.08,425.33 1036.01,423.39 1038.97,421.43 1041.92,420.17 1044.85,418.93 1047.80,417.68 1050.75,416.42 1053.69,415.18 1056.64,413.92 1059.59,413.52 1062.52,413.11 1065.47,412.71 1068.43,412.29 1071.36,411.89 1074.31,411.49" fill="none" stroke="#000000" stroke-width="3"/>
<line x1="142" y1="100" x2="178" y2="100" stroke="#000000" stroke-width="4"/>
<text x="188" y="105" font-family="Arial" font-size="18" fill="black">|U|</text>
</svg>