<svg xmlns="http://www.w3.org/2000/svg" width="1200" height="820" viewBox="0 0 1200 820">
<rect width="100%" height="100%" fill="white"/>
<text x="600.0" y="36" text-anchor="middle" font-family="Arial" font-size="24" fill="black">profile_near_ceiling_x: Q</text>
<line x1="120.00" y1="75" x2="120.00" y2="705" stroke="#dddddd" stroke-width="1"/>
<text x="120.00" y="737" text-anchor="middle" font-family="Arial" font-size="16" fill="black">-0.560</text>
<line x1="376.25" y1="75" x2="376.25" y2="705" stroke="#dddddd" stroke-width="1"/>
<text x="376.25" y="737" text-anchor="middle" font-family="Arial" font-size="16" fill="black">1.470</text>
<line x1="632.50" y1="75" x2="632.50" y2="705" stroke="#dddddd" stroke-width="1"/>
<text x="632.50" y="737" text-anchor="middle" font-family="Arial" font-size="16" fill="black">3.500</text>
<line x1="888.75" y1="75" x2="888.75" y2="705" stroke="#dddddd" stroke-width="1"/>
<text x="888.75" y="737" text-anchor="middle" font-family="Arial" font-size="16" fill="black">5.530</text>
<line x1="1145.00" y1="75" x2="1145.00" y2="705" stroke="#dddddd" stroke-width="1"/>
<text x="1145.00" y="737" text-anchor="middle" font-family="Arial" font-size="16" fill="black">7.560</text>
<line x1="120" y1="705.00" x2="1145" y2="705.00" stroke="#dddddd" stroke-width="1"/>
<text x="104" y="710.00" text-anchor="end" font-family="Arial" font-size="16" fill="black">-0.133</text>
<line x1="120" y1="547.50" x2="1145" y2="547.50" stroke="#dddddd" stroke-width="1"/>
<text x="104" y="552.50" text-anchor="end" font-family="Arial" font-size="16" fill="black">-0.075</text>
<line x1="120" y1="390.00" x2="1145" y2="390.00" stroke="#dddddd" stroke-width="1"/>
<text x="104" y="395.00" text-anchor="end" font-family="Arial" font-size="16" fill="black">-0.017</text>
<line x1="120" y1="232.50" x2="1145" y2="232.50" stroke="#dddddd" stroke-width="1"/>
<text x="104" y="237.50" text-anchor="end" font-family="Arial" font-size="16" fill="black">0.041</text>
<line x1="120" y1="75.00" x2="1145" y2="75.00" stroke="#dddddd" stroke-width="1"/>
<text x="104" y="80.00" text-anchor="end" font-family="Arial" font-size="16" fill="black">0.099</text>
<rect x="120" y="75" width="1025" height="630" fill="none" stroke="black" stroke-width="2"/>
<text x="632.5" y="785" text-anchor="middle" font-family="Arial" font-size="20" fill="black">x coordinate [m]</text>
<text x="34" y="390.0" transform="rotate(-90 34 390.0)" text-anchor="middle" font-family="Arial" font-size="20" fill="black">Q [SI]</text>
<polyline points="190.69,197.99 193.64,199.76 196.58,201.54 199.53,203.31 202.47,205.09 205.42,205.53 208.36,205.44 211.31,205.35 214.25,205.25 217.20,203.92 220.14,200.93 223.09,197.93 226.03,194.94 228.98,192.90 231.93,196.63 234.87,200.36 237.82,204.09 240.76,207.82 243.71,228.29 246.65,251.54 249.60,274.80 252.54,298.05 255.49,334.64 258.43,381.22 261.38,427.81 264.32,474.40 267.27,517.93 270.22,553.84 273.16,589.75 276.11,625.65 279.05,661.55 282.00,638.92 284.94,616.27 287.89,593.63 290.83,570.99 293.78,529.45 296.72,480.34 299.67,431.24 302.62,382.14 305.56,344.42 308.51,321.89 311.45,299.36 314.40,276.83 317.34,257.37 320.29,256.33 323.23,255.29 326.17,254.25 329.13,253.20 332.07,257.64 335.01,262.98 337.96,268.33 340.91,273.67 343.85,278.94 346.80,284.16 349.74,289.37 352.68,294.59 355.64,300.77 358.58,309.38 361.52,318.00 364.47,326.61 367.41,335.22 370.35,354.79 373.31,374.37 376.25,393.94 379.19,413.52 382.15,439.83 385.09,468.85 388.03,497.86 390.98,526.87 393.92,551.60 396.86,570.61 399.82,589.62 402.76,608.63 405.70,624.79 408.65,623.89 411.59,623.00 414.54,622.10 417.49,621.20 420.43,611.97 423.37,601.34 426.33,590.71 429.27,580.08 432.21,568.62 435.16,556.54 438.10,544.46 441.04,532.37 444.00,520.31 446.94,508.28 449.88,496.26 452.83,484.23 455.78,472.20 458.72,460.33 461.67,448.45 464.61,436.58 467.55,424.70 470.51,413.89 473.45,403.49 476.39,393.10 479.34,382.70 482.28,373.27 485.23,365.12 488.18,356.97 491.12,348.83 494.06,340.94 497.02,334.64 499.96,328.33 502.90,322.03 505.85,315.73 508.79,310.73 511.73,305.95 514.69,301.16 517.63,296.38 520.57,292.59 523.52,289.54 526.47,286.49 529.41,283.44 532.36,280.96 535.30,279.90 538.24,278.84 541.20,277.78 544.14,276.71 547.08,277.55 550.03,278.39 552.97,279.22 555.92,280.05 558.87,282.05 561.81,284.50 564.75,286.95 567.71,289.40 570.65,292.34 573.59,295.93 576.54,299.52 579.48,303.11 582.42,306.75 585.38,310.68 588.32,314.61 591.26,318.54 594.21,322.48 597.16,325.96 600.10,329.37 603.05,332.77 605.99,336.18 608.93,338.86 611.89,341.00 614.83,343.13 617.77,345.27 620.72,346.92 623.66,347.35 626.60,347.78 629.56,348.22 632.50,348.65 635.44,347.45 638.40,346.25 641.34,345.04 644.28,343.84 647.23,341.77 650.17,339.35 653.11,336.94 656.07,334.53 659.01,331.94 661.95,329.12 664.90,326.30 667.84,323.48 670.79,320.73 673.74,318.41 676.68,316.09 679.62,313.77 682.58,311.45 685.52,310.00 688.46,308.70 691.41,307.39 694.35,306.09 697.29,305.44 700.25,305.29 703.19,305.13 706.13,304.98 709.08,305.10 712.03,305.89 714.97,306.67 717.92,307.46 720.86,308.25 723.80,309.61 726.76,310.97 729.70,312.32 732.64,313.68 735.59,315.16 738.53,316.68 741.48,318.20 744.43,319.73 747.37,321.15 750.31,322.45 753.27,323.75 756.21,325.04 759.15,326.26 762.10,326.96 765.04,327.67 767.98,328.37 770.94,329.08 773.88,329.02 776.82,328.82 779.77,328.63 782.72,328.44 785.66,327.72 788.61,326.60 791.55,325.49 794.49,324.37 797.45,323.04 800.39,321.18 803.33,319.32 806.28,317.46 809.22,315.60 812.17,313.30 815.12,311.00 818.06,308.70 821.00,306.40 823.96,304.21 826.90,302.08 829.84,299.94 832.79,297.81 835.73,296.13 838.67,295.08 841.63,294.02 844.57,292.96 847.51,292.24 850.46,293.54 853.41,294.84 856.35,296.14 859.30,297.44 862.24,302.58 865.18,308.36 868.14,314.14 871.08,319.92 874.02,328.41 876.97,338.93 879.91,349.45 882.85,359.97 885.81,370.88 888.75,382.75 891.69,394.63 894.65,406.51 897.59,418.39 900.53,428.48 903.48,438.57 906.42,448.67 909.36,458.76 912.32,464.75 915.26,469.10 918.20,473.45 921.15,477.80 924.09,476.35 927.04,467.16 929.99,457.97 932.93,448.79 935.87,437.68 938.83,415.09 941.77,392.51 944.71,369.92 947.66,347.33 950.60,322.70 953.54,297.73 956.50,272.77 959.44,247.80 962.38,226.69 965.33,208.47 968.28,190.25 971.22,172.03 974.17,156.31 977.11,146.84 980.05,137.38 983.01,127.91 985.95,118.45 988.89,119.14 991.84,119.83 994.78,120.52 997.73,121.22 1000.68,131.99 1003.62,146.79 1006.56,161.59 1009.52,176.39 1012.46,200.64 1015.40,237.50 1018.35,274.35 1021.29,311.21 1024.23,349.96 1027.19,400.14 1030.13,450.32 1033.07,500.49 1036.02,550.67 1038.97,575.91 1041.91,596.99 1044.86,618.06 1047.80,639.14 1050.74,631.57 1053.70,602.47 1056.64,573.37 1059.58,544.28 1062.53,516.20 1065.47,490.69 1068.42,465.16 1071.37,439.64 1074.31,414.12" fill="none" stroke="#000000" stroke-width="3"/>
<line x1="142" y1="100" x2="178" y2="100" stroke="#000000" stroke-width="4"/>
<text x="188" y="105" font-family="Arial" font-size="18" fill="black">Q</text>
</svg>