<svg xmlns="http://www.w3.org/2000/svg" width="1200" height="820" viewBox="0 0 1200 820">
<rect width="100%" height="100%" fill="white"/>
<text x="600.0" y="36" text-anchor="middle" font-family="Arial" font-size="24" fill="black">profile_center_x: velocity magnitude</text>
<line x1="120.00" y1="75" x2="120.00" y2="705" stroke="#dddddd" stroke-width="1"/>
<text x="120.00" y="737" text-anchor="middle" font-family="Arial" font-size="16" fill="black">-0.560</text>
<line x1="376.25" y1="75" x2="376.25" y2="705" stroke="#dddddd" stroke-width="1"/>
<text x="376.25" y="737" text-anchor="middle" font-family="Arial" font-size="16" fill="black">1.470</text>
<line x1="632.50" y1="75" x2="632.50" y2="705" stroke="#dddddd" stroke-width="1"/>
<text x="632.50" y="737" text-anchor="middle" font-family="Arial" font-size="16" fill="black">3.500</text>
<line x1="888.75" y1="75" x2="888.75" y2="705" stroke="#dddddd" stroke-width="1"/>
<text x="888.75" y="737" text-anchor="middle" font-family="Arial" font-size="16" fill="black">5.530</text>
<line x1="1145.00" y1="75" x2="1145.00" y2="705" stroke="#dddddd" stroke-width="1"/>
<text x="1145.00" y="737" text-anchor="middle" font-family="Arial" font-size="16" fill="black">7.560</text>
<line x1="120" y1="705.00" x2="1145" y2="705.00" stroke="#dddddd" stroke-width="1"/>
<text x="104" y="710.00" text-anchor="end" font-family="Arial" font-size="16" fill="black">0.032</text>
<line x1="120" y1="547.50" x2="1145" y2="547.50" stroke="#dddddd" stroke-width="1"/>
<text x="104" y="552.50" text-anchor="end" font-family="Arial" font-size="16" fill="black">0.102</text>
<line x1="120" y1="390.00" x2="1145" y2="390.00" stroke="#dddddd" stroke-width="1"/>
<text x="104" y="395.00" text-anchor="end" font-family="Arial" font-size="16" fill="black">0.173</text>
<line x1="120" y1="232.50" x2="1145" y2="232.50" stroke="#dddddd" stroke-width="1"/>
<text x="104" y="237.50" text-anchor="end" font-family="Arial" font-size="16" fill="black">0.243</text>
<line x1="120" y1="75.00" x2="1145" y2="75.00" stroke="#dddddd" stroke-width="1"/>
<text x="104" y="80.00" text-anchor="end" font-family="Arial" font-size="16" fill="black">0.314</text>
<rect x="120" y="75" width="1025" height="630" fill="none" stroke="black" stroke-width="2"/>
<text x="632.5" y="785" text-anchor="middle" font-family="Arial" font-size="20" fill="black">x coordinate [m]</text>
<text x="34" y="390.0" transform="rotate(-90 34 390.0)" text-anchor="middle" font-family="Arial" font-size="20" fill="black">|U| [m/s]</text>
<polyline points="190.69,228.92 193.64,228.50 196.58,228.05 199.53,227.61 202.47,227.18 205.42,227.85 208.36,228.97 211.31,230.09 214.25,231.20 217.20,233.97 220.14,238.95 223.09,243.96 226.03,248.94 228.98,254.34 231.93,262.25 234.87,270.16 237.82,278.06 240.76,285.97 243.71,295.26 246.65,304.80 249.60,314.32 252.54,323.85 255.49,333.75 258.43,343.89 261.38,354.05 264.32,364.19 267.27,374.40 270.22,384.76 273.16,395.11 276.11,405.47 279.05,415.81 282.00,426.18 284.94,436.52 287.89,446.86 290.83,457.20 293.78,467.34 296.72,477.42 299.67,487.49 302.62,497.56 305.56,507.41 308.51,516.93 311.45,526.47 314.40,536.00 317.34,545.41 320.29,554.02 323.23,562.62 326.17,571.22 329.13,579.82 332.07,586.64 335.01,593.15 337.96,599.66 340.91,606.17 343.85,610.18 346.80,612.32 349.74,614.45 352.68,616.58 355.64,616.99 358.58,613.08 361.52,609.16 364.47,605.25 367.41,601.34 370.35,592.43 373.31,583.52 376.25,574.61 379.19,565.69 382.15,554.95 385.09,543.49 388.03,532.01 390.98,520.52 393.92,508.82 396.86,496.78 399.82,484.76 402.76,472.72 405.70,460.84 408.65,449.79 411.59,438.75 414.54,427.72 417.49,416.68 420.43,407.93 423.37,399.53 426.33,391.15 429.27,382.75 432.21,376.83 435.16,372.77 438.10,368.70 441.04,364.64 444.00,362.09 446.94,363.28 449.88,364.46 452.83,365.64 455.78,366.83 458.72,372.70 461.67,378.58 464.61,384.45 467.55,390.33 470.51,398.28 473.45,407.08 476.39,415.88 479.34,424.68 482.28,433.86 485.23,443.55 488.18,453.25 491.12,462.94 494.06,472.52 497.02,481.37 499.96,490.21 502.90,499.06 505.85,507.90 508.79,514.96 511.73,521.73 514.69,528.50 517.63,535.24 520.57,540.54 523.52,544.69 526.47,548.85 529.41,553.02 532.36,556.54 535.30,558.46 538.24,560.37 541.20,562.29 544.14,564.20 547.08,564.73 550.03,565.25 552.97,565.78 555.92,566.30 558.87,566.34 561.81,566.18 564.75,566.02 567.71,565.86 570.65,565.43 573.59,564.63 576.54,563.84 579.48,563.04 582.42,562.05 585.38,559.88 588.32,557.71 591.26,555.55 594.21,553.38 597.16,549.27 600.10,544.83 603.05,540.40 605.99,535.96 608.93,530.26 611.89,523.63 614.83,516.97 617.77,510.32 620.72,503.44 623.66,496.02 626.60,488.58 629.56,481.15 632.50,473.71 635.44,467.57 638.40,461.44 641.34,455.30 644.28,449.16 647.23,445.07 650.17,441.79 653.11,438.53 656.07,435.24 659.01,433.32 661.95,433.17 664.90,433.03 667.84,432.90 670.79,433.10 673.74,435.22 676.68,437.37 679.62,439.49 682.58,441.63 685.52,444.38 688.46,447.24 691.41,450.12 694.35,452.98 697.29,455.28 700.25,457.18 703.19,459.08 706.13,461.00 709.08,462.23 712.03,461.80 714.97,461.36 717.92,460.93 720.86,460.51 723.80,457.09 726.76,453.67 729.70,450.25 732.64,446.84 735.59,441.50 738.53,435.40 741.48,429.30 744.43,423.18 747.37,416.62 750.31,409.40 753.27,402.19 756.21,394.97 759.15,388.00 762.10,382.40 765.04,376.79 767.98,371.18 770.94,365.58 773.88,363.19 776.82,361.36 779.77,359.55 782.72,357.72 785.66,358.74 788.61,361.94 791.55,365.13 794.49,368.32 797.45,372.99 800.39,381.30 803.33,389.61 806.28,397.92 809.22,406.21 812.17,418.31 815.12,430.40 818.06,442.48 821.00,454.57 823.96,468.06 826.90,482.08 829.84,496.13 832.79,510.16 835.73,524.08 838.67,537.86 841.63,551.66 844.57,565.44 847.51,578.83 850.46,589.85 853.41,600.88 856.35,611.91 859.30,622.94 862.24,630.18 865.18,636.79 868.14,643.41 871.08,650.02 874.02,654.11 876.97,656.32 879.91,658.52 882.85,660.73 885.81,661.55 888.75,658.94 891.69,656.32 894.65,653.71 897.59,651.09 900.53,643.49 903.48,635.88 906.42,628.28 909.36,620.67 912.32,611.13 915.26,600.82 918.20,590.51 921.15,580.20 924.09,569.56 927.04,558.48 929.99,547.40 932.93,536.32 935.87,525.30 938.83,514.72 941.77,504.13 944.71,493.52 947.66,482.93 950.60,473.44 953.54,464.15 956.50,454.86 959.44,445.56 962.38,436.94 965.33,428.81 968.28,420.68 971.22,412.57 974.17,404.55 977.11,396.80 980.05,389.08 983.01,381.32 985.95,373.57 988.89,365.56 991.84,357.51 994.78,349.47 997.73,341.45 1000.68,333.41 1003.62,325.35 1006.56,317.31 1009.52,309.27 1012.46,301.58 1015.40,294.39 1018.35,287.20 1021.29,280.01 1024.23,272.93 1027.19,266.56 1030.13,260.22 1033.07,253.85 1036.02,247.49 1038.97,240.14 1041.91,232.63 1044.86,225.10 1047.80,217.58 1050.74,206.77 1053.70,193.48 1056.64,180.19 1059.58,166.90 1062.53,154.81 1065.47,145.72 1068.42,136.63 1071.37,127.54 1074.31,118.45" fill="none" stroke="#000000" stroke-width="3"/>
<line x1="142" y1="100" x2="178" y2="100" stroke="#000000" stroke-width="4"/>
<text x="188" y="105" font-family="Arial" font-size="18" fill="black">|U|</text>
</svg>