<svg xmlns="http://www.w3.org/2000/svg" width="1200" height="820" viewBox="0 0 1200 820">
<rect width="100%" height="100%" fill="white"/>
<text x="600.0" y="36" text-anchor="middle" font-family="Arial" font-size="24" fill="black">profile_diagonal_supply_return: U:1</text>
<line x1="120.00" y1="75" x2="120.00" y2="705" stroke="#dddddd" stroke-width="1"/>
<text x="120.00" y="737" text-anchor="middle" font-family="Arial" font-size="16" fill="black">-0.729</text>
<line x1="376.25" y1="75" x2="376.25" y2="705" stroke="#dddddd" stroke-width="1"/>
<text x="376.25" y="737" text-anchor="middle" font-family="Arial" font-size="16" fill="black">1.913</text>
<line x1="632.50" y1="75" x2="632.50" y2="705" stroke="#dddddd" stroke-width="1"/>
<text x="632.50" y="737" text-anchor="middle" font-family="Arial" font-size="16" fill="black">4.555</text>
<line x1="888.75" y1="75" x2="888.75" y2="705" stroke="#dddddd" stroke-width="1"/>
<text x="888.75" y="737" text-anchor="middle" font-family="Arial" font-size="16" fill="black">7.197</text>
<line x1="1145.00" y1="75" x2="1145.00" y2="705" stroke="#dddddd" stroke-width="1"/>
<text x="1145.00" y="737" text-anchor="middle" font-family="Arial" font-size="16" fill="black">9.839</text>
<line x1="120" y1="705.00" x2="1145" y2="705.00" stroke="#dddddd" stroke-width="1"/>
<text x="104" y="710.00" text-anchor="end" font-family="Arial" font-size="16" fill="black">-0.175</text>
<line x1="120" y1="547.50" x2="1145" y2="547.50" stroke="#dddddd" stroke-width="1"/>
<text x="104" y="552.50" text-anchor="end" font-family="Arial" font-size="16" fill="black">-0.052</text>
<line x1="120" y1="390.00" x2="1145" y2="390.00" stroke="#dddddd" stroke-width="1"/>
<text x="104" y="395.00" text-anchor="end" font-family="Arial" font-size="16" fill="black">0.070</text>
<line x1="120" y1="232.50" x2="1145" y2="232.50" stroke="#dddddd" stroke-width="1"/>
<text x="104" y="237.50" text-anchor="end" font-family="Arial" font-size="16" fill="black">0.193</text>
<line x1="120" y1="75.00" x2="1145" y2="75.00" stroke="#dddddd" stroke-width="1"/>
<text x="104" y="80.00" text-anchor="end" font-family="Arial" font-size="16" fill="black">0.316</text>
<rect x="120" y="75" width="1025" height="630" fill="none" stroke="black" stroke-width="2"/>
<text x="632.5" y="785" text-anchor="middle" font-family="Arial" font-size="20" fill="black">distance along sample line [m]</text>
<text x="34" y="390.0" transform="rotate(-90 34 390.0)" text-anchor="middle" font-family="Arial" font-size="20" fill="black">U:1 [SI]</text>
<polyline points="190.69,435.96 193.64,431.28 196.58,426.47 199.53,421.53 202.47,416.46 205.42,411.59 208.36,406.72 211.31,395.96 214.25,385.13 217.20,374.63 220.14,364.66 223.09,355.25 226.03,345.97 228.98,336.32 231.93,326.60 234.87,317.07 237.82,307.75 240.76,298.67 243.71,289.69 246.65,281.79 249.60,274.16 252.54,267.28 255.49,260.50 258.43,253.86 261.38,247.45 264.32,242.14 267.27,237.03 270.22,232.02 273.16,227.25 276.11,222.74 279.05,218.49 282.00,214.85 284.94,211.40 287.88,208.11 290.83,205.00 293.78,201.93 296.73,198.94 299.67,197.03 302.62,195.29 305.57,193.64 308.50,192.09 311.45,190.21 314.40,188.43 317.34,187.80 320.29,187.25 323.24,186.78 326.18,186.42 329.12,186.14 332.07,185.99 335.01,187.19 337.96,188.49 340.91,189.38 343.85,190.42 346.80,191.61 349.74,192.86 352.68,195.69 355.63,198.70 358.58,202.02 361.53,205.45 364.47,208.98 367.42,212.63 370.36,218.05 373.30,223.65 376.25,229.40 379.20,235.31 382.14,241.73 385.09,248.44 388.04,257.15 390.97,266.09 393.92,275.47 396.87,285.36 399.81,295.28 402.76,305.38 405.71,317.26 408.65,329.76 411.59,342.40 414.54,355.17 417.48,368.06 420.43,381.44 423.38,395.84 426.32,410.25 429.27,424.42 432.21,438.62 435.16,452.74 438.10,466.67 441.05,480.14 444.00,493.06 446.94,505.17 449.89,516.62 452.84,527.41 455.77,537.51 458.72,544.05 461.67,549.76 464.61,554.64 467.56,558.71 470.51,561.74 473.45,563.97 476.39,564.68 479.34,564.95 482.28,564.89 485.23,564.65 488.18,563.47 491.12,562.02 494.07,560.87 497.01,560.24 499.96,559.49 502.90,558.64 505.85,557.68 508.80,557.20 511.74,557.16 514.69,556.92 517.63,555.94 520.57,554.99 523.52,553.96 526.47,552.70 529.41,550.87 532.36,548.85 535.31,546.80 538.24,544.48 541.19,541.90 544.14,539.08 547.08,535.59 550.03,532.05 552.98,528.45 555.92,524.81 558.86,521.63 561.81,518.62 564.76,515.19 567.70,511.74 570.65,508.56 573.60,505.70 576.54,503.46 579.49,501.35 582.43,498.93 585.37,496.89 588.32,494.92 591.27,493.04 594.21,491.27 597.16,489.73 600.11,488.08 603.04,486.61 605.99,486.04 608.94,485.74 611.88,485.77 614.83,486.12 617.78,487.01 620.72,488.43 623.66,490.72 626.61,493.63 629.55,497.20 632.50,501.45 635.45,507.97 638.40,515.17 641.34,523.04 644.28,531.58 647.23,541.22 650.17,551.63 653.12,562.90 656.07,574.60 659.01,586.52 661.96,598.40 664.90,609.37 667.84,620.16 670.79,629.91 673.74,637.85 676.68,645.06 679.63,651.52 682.58,657.22 685.51,660.55 688.46,661.55 691.41,661.54 694.35,660.09 697.30,656.95 700.25,652.35 703.20,646.88 706.14,639.40 709.08,631.01 712.03,621.85 714.97,612.05 717.92,601.60 720.87,590.52 723.81,579.69 726.76,568.54 729.70,557.10 732.64,545.37 735.59,534.65 738.54,524.31 741.48,513.71 744.43,503.06 747.38,493.19 750.31,484.45 753.26,476.23 756.21,468.13 759.15,460.58 762.10,454.70 765.05,449.04 767.99,443.60 770.93,438.38 773.88,434.66 776.83,431.73 779.77,429.07 782.72,427.22 785.67,426.30 788.61,426.17 791.55,426.32 794.50,426.97 797.44,428.07 800.39,429.99 803.34,432.16 806.28,434.59 809.23,437.26 812.17,440.80 815.11,444.50 818.06,448.33 821.01,452.29 823.95,455.73 826.90,459.05 829.85,462.38 832.79,465.80 835.73,468.39 838.68,469.91 841.63,471.65 844.57,473.41 847.52,474.80 850.47,473.67 853.41,472.67 856.35,471.77 859.30,470.95 862.24,467.61 865.19,464.66 868.14,461.87 871.08,458.97 874.03,454.71 876.97,449.36 879.91,443.94 882.86,439.53 885.81,434.49 888.75,427.89 891.70,421.04 894.65,413.92 897.58,406.56 900.53,397.86 903.48,388.76 906.43,379.28 909.37,369.44 912.32,357.95 915.27,345.63 918.20,333.82 921.15,321.87 924.10,309.17 927.04,295.62 929.99,281.86 932.94,268.14 935.88,255.22 938.82,242.06 941.77,229.26 944.71,216.81 947.66,204.68 950.61,193.19 953.55,183.29 956.50,173.86 959.44,164.43 962.38,155.90 965.33,148.10 968.28,140.61 971.22,135.19 974.17,130.50 977.12,127.03 980.06,123.88 983.00,121.03 985.95,118.45 988.90,119.35 991.84,120.63 994.79,122.30 997.74,124.38 1000.68,128.38 1003.62,133.56 1006.57,142.70 1009.51,152.36 1012.46,162.84 1015.41,174.15 1018.35,185.51 1021.30,197.39 1024.24,213.12 1027.18,229.04 1030.13,245.28 1033.08,261.77 1036.02,278.42 1038.97,294.24 1041.92,310.54 1044.86,326.64 1047.80,342.58 1050.75,358.17 1053.70,373.52 1056.64,388.54 1059.59,396.71 1062.54,404.53 1065.47,411.80 1068.42,418.98 1071.37,426.06 1074.31,433.05" fill="none" stroke="#000000" stroke-width="3"/>
<line x1="142" y1="100" x2="178" y2="100" stroke="#000000" stroke-width="4"/>
<text x="188" y="105" font-family="Arial" font-size="18" fill="black">U:1</text>
</svg>