<svg xmlns="http://www.w3.org/2000/svg" width="1200" height="820" viewBox="0 0 1200 820">
<rect width="100%" height="100%" fill="white"/>
<text x="600.0" y="36" text-anchor="middle" font-family="Arial" font-size="24" fill="black">profile_center_z: epsilon</text>
<line x1="120.00" y1="75" x2="120.00" y2="705" stroke="#dddddd" stroke-width="1"/>
<text x="120.00" y="737" text-anchor="middle" font-family="Arial" font-size="16" fill="black">-0.240</text>
<line x1="376.25" y1="75" x2="376.25" y2="705" stroke="#dddddd" stroke-width="1"/>
<text x="376.25" y="737" text-anchor="middle" font-family="Arial" font-size="16" fill="black">0.630</text>
<line x1="632.50" y1="75" x2="632.50" y2="705" stroke="#dddddd" stroke-width="1"/>
<text x="632.50" y="737" text-anchor="middle" font-family="Arial" font-size="16" fill="black">1.500</text>
<line x1="888.75" y1="75" x2="888.75" y2="705" stroke="#dddddd" stroke-width="1"/>
<text x="888.75" y="737" text-anchor="middle" font-family="Arial" font-size="16" fill="black">2.370</text>
<line x1="1145.00" y1="75" x2="1145.00" y2="705" stroke="#dddddd" stroke-width="1"/>
<text x="1145.00" y="737" text-anchor="middle" font-family="Arial" font-size="16" fill="black">3.240</text>
<line x1="120" y1="705.00" x2="1145" y2="705.00" stroke="#dddddd" stroke-width="1"/>
<text x="104" y="710.00" text-anchor="end" font-family="Arial" font-size="16" fill="black">0.002</text>
<line x1="120" y1="547.50" x2="1145" y2="547.50" stroke="#dddddd" stroke-width="1"/>
<text x="104" y="552.50" text-anchor="end" font-family="Arial" font-size="16" fill="black">0.004</text>
<line x1="120" y1="390.00" x2="1145" y2="390.00" stroke="#dddddd" stroke-width="1"/>
<text x="104" y="395.00" text-anchor="end" font-family="Arial" font-size="16" fill="black">0.006</text>
<line x1="120" y1="232.50" x2="1145" y2="232.50" stroke="#dddddd" stroke-width="1"/>
<text x="104" y="237.50" text-anchor="end" font-family="Arial" font-size="16" fill="black">0.007</text>
<line x1="120" y1="75.00" x2="1145" y2="75.00" stroke="#dddddd" stroke-width="1"/>
<text x="104" y="80.00" text-anchor="end" font-family="Arial" font-size="16" fill="black">0.009</text>
<rect x="120" y="75" width="1025" height="630" fill="none" stroke="black" stroke-width="2"/>
<text x="632.5" y="785" text-anchor="middle" font-family="Arial" font-size="20" fill="black">z coordinate [m]</text>
<text x="34" y="390.0" transform="rotate(-90 34 390.0)" text-anchor="middle" font-family="Arial" font-size="20" fill="black">epsilon [m2/s3]</text>
<polyline points="190.69,118.45 193.64,125.20 196.58,131.95 199.53,138.69 202.47,145.44 205.42,152.19 208.36,158.94 211.31,165.68 214.25,172.43 217.20,179.18 220.14,185.93 223.09,198.14 226.03,210.35 228.98,222.56 231.93,234.76 234.87,246.97 237.82,259.18 240.76,271.39 243.71,283.61 246.65,295.82 249.60,308.03 252.54,317.99 255.49,327.96 258.43,337.91 261.38,347.88 264.32,357.84 267.27,367.81 270.22,377.78 273.16,387.74 276.11,397.71 279.05,407.66 282.00,415.88 284.94,424.09 287.89,432.31 290.83,440.52 293.78,448.72 296.72,456.94 299.67,465.15 302.61,473.37 305.56,481.58 308.51,489.79 311.45,496.35 314.40,502.92 317.34,509.48 320.29,516.05 323.23,522.61 326.18,529.18 329.12,535.75 332.07,542.31 335.01,548.88 337.96,555.44 340.91,559.84 343.85,564.24 346.80,568.64 349.74,573.03 352.69,577.44 355.63,581.83 358.58,586.23 361.52,590.63 364.47,595.03 367.41,599.43 370.36,599.81 373.30,600.19 376.25,600.56 379.20,600.94 382.14,601.32 385.09,601.70 388.03,602.08 390.98,602.47 393.92,602.85 396.87,603.23 399.81,590.36 402.76,577.49 405.70,564.62 408.65,551.75 411.59,538.88 414.54,526.00 417.49,513.13 420.43,500.26 423.38,487.39 426.32,474.52 429.27,451.60 432.21,428.67 435.16,405.74 438.10,382.81 441.05,359.88 443.99,336.95 446.94,314.02 449.89,291.09 452.83,268.17 455.78,245.24 458.72,250.63 461.67,256.01 464.61,261.41 467.56,266.80 470.50,272.19 473.45,277.59 476.39,282.98 479.34,288.37 482.28,293.76 485.23,299.16 488.18,323.37 491.12,347.58 494.07,371.79 497.01,396.00 499.96,420.21 502.90,444.43 505.85,468.64 508.79,492.85 511.74,517.07 514.68,541.28 517.63,550.95 520.57,560.62 523.52,570.29 526.47,579.96 529.41,589.63 532.36,599.31 535.30,608.98 538.25,618.65 541.19,628.32 544.14,637.99 547.08,639.76 550.03,641.54 552.97,643.32 555.92,645.10 558.86,646.88 561.81,648.66 564.76,650.44 567.70,652.22 570.65,654.00 573.59,655.78 576.54,654.33 579.48,652.89 582.43,651.44 585.37,650.00 588.32,648.55 591.26,647.11 594.21,645.66 597.16,644.22 600.10,642.77 603.05,641.33 605.99,639.17 608.94,637.03 611.88,634.88 614.83,632.73 617.77,630.58 620.72,628.43 623.66,626.28 626.61,624.13 629.55,621.98 632.50,619.83 635.45,618.53 638.39,617.22 641.34,615.92 644.28,614.61 647.23,613.30 650.17,612.00 653.12,610.70 656.06,609.40 659.01,608.09 661.95,606.78 664.90,606.87 667.84,606.97 670.79,607.07 673.74,607.16 676.68,607.26 679.63,607.36 682.57,607.45 685.52,607.55 688.46,607.65 691.41,607.74 694.35,608.92 697.30,610.09 700.24,611.26 703.19,612.44 706.14,613.61 709.08,614.78 712.03,615.96 714.97,617.13 717.92,618.30 720.86,619.47 723.81,621.00 726.75,622.54 729.70,624.06 732.64,625.59 735.59,627.12 738.53,628.65 741.48,630.17 744.43,631.71 747.37,633.23 750.32,634.77 753.26,636.03 756.21,637.30 759.15,638.57 762.10,639.84 765.04,641.11 767.99,642.38 770.93,643.65 773.88,644.91 776.82,646.19 779.77,647.46 782.72,648.19 785.66,648.93 788.61,649.67 791.55,650.41 794.50,651.14 797.44,651.88 800.39,652.62 803.33,653.36 806.28,654.10 809.22,654.82 812.17,655.07 815.11,655.31 818.06,655.56 821.01,655.80 823.95,656.05 826.90,656.29 829.84,656.54 832.79,656.78 835.73,657.03 838.68,657.27 841.62,657.23 844.57,657.18 847.51,657.14 850.46,657.09 853.41,657.05 856.35,657.00 859.30,656.95 862.24,656.91 865.19,656.86 868.13,656.82 871.08,656.77 874.02,656.73 876.97,656.69 879.91,656.65 882.86,656.60 885.80,656.56 888.75,656.52 891.70,656.48 894.64,656.43 897.59,656.39 900.53,656.59 903.48,656.78 906.42,656.98 909.37,657.18 912.31,657.36 915.26,657.56 918.20,657.76 921.15,657.95 924.09,658.15 927.04,658.34 929.99,658.67 932.93,658.99 935.88,659.31 938.82,659.63 941.77,659.95 944.71,660.27 947.66,660.58 950.60,660.90 953.55,661.22 956.49,661.55 959.44,661.46 962.39,661.37 965.33,661.28 968.28,661.19 971.22,661.11 974.17,661.02 977.11,660.93 980.06,660.84 983.00,660.75 985.95,660.66 988.89,658.58 991.84,656.50 994.78,654.40 997.73,652.32 1000.68,650.23 1003.62,648.14 1006.57,646.05 1009.51,643.97 1012.46,641.88 1015.40,639.79 1018.35,624.47 1021.29,609.14 1024.24,593.81 1027.18,578.48 1030.13,563.15 1033.07,547.83 1036.02,532.50 1038.97,517.18 1041.91,501.85 1044.86,486.51 1047.80,473.05 1050.75,459.57 1053.69,446.09 1056.64,432.63 1059.58,419.15 1062.53,405.68 1065.47,392.20 1068.42,378.73 1071.36,365.26 1074.31,351.78" fill="none" stroke="#000000" stroke-width="3"/>
<line x1="142" y1="100" x2="178" y2="100" stroke="#000000" stroke-width="4"/>
<text x="188" y="105" font-family="Arial" font-size="18" fill="black">epsilon</text>
</svg>