<svg xmlns="http://www.w3.org/2000/svg" width="1200" height="820" viewBox="0 0 1200 820">
<rect width="100%" height="100%" fill="white"/>
<text x="600.0" y="36" text-anchor="middle" font-family="Arial" font-size="24" fill="black">profile_center_x: vorticity:1</text>
<line x1="120.00" y1="75" x2="120.00" y2="705" stroke="#dddddd" stroke-width="1"/>
<text x="120.00" y="737" text-anchor="middle" font-family="Arial" font-size="16" fill="black">-0.560</text>
<line x1="376.25" y1="75" x2="376.25" y2="705" stroke="#dddddd" stroke-width="1"/>
<text x="376.25" y="737" text-anchor="middle" font-family="Arial" font-size="16" fill="black">1.470</text>
<line x1="632.50" y1="75" x2="632.50" y2="705" stroke="#dddddd" stroke-width="1"/>
<text x="632.50" y="737" text-anchor="middle" font-family="Arial" font-size="16" fill="black">3.500</text>
<line x1="888.75" y1="75" x2="888.75" y2="705" stroke="#dddddd" stroke-width="1"/>
<text x="888.75" y="737" text-anchor="middle" font-family="Arial" font-size="16" fill="black">5.530</text>
<line x1="1145.00" y1="75" x2="1145.00" y2="705" stroke="#dddddd" stroke-width="1"/>
<text x="1145.00" y="737" text-anchor="middle" font-family="Arial" font-size="16" fill="black">7.560</text>
<line x1="120" y1="705.00" x2="1145" y2="705.00" stroke="#dddddd" stroke-width="1"/>
<text x="104" y="710.00" text-anchor="end" font-family="Arial" font-size="16" fill="black">-2.377</text>
<line x1="120" y1="547.50" x2="1145" y2="547.50" stroke="#dddddd" stroke-width="1"/>
<text x="104" y="552.50" text-anchor="end" font-family="Arial" font-size="16" fill="black">-1.584</text>
<line x1="120" y1="390.00" x2="1145" y2="390.00" stroke="#dddddd" stroke-width="1"/>
<text x="104" y="395.00" text-anchor="end" font-family="Arial" font-size="16" fill="black">-0.790</text>
<line x1="120" y1="232.50" x2="1145" y2="232.50" stroke="#dddddd" stroke-width="1"/>
<text x="104" y="237.50" text-anchor="end" font-family="Arial" font-size="16" fill="black">0.004</text>
<line x1="120" y1="75.00" x2="1145" y2="75.00" stroke="#dddddd" stroke-width="1"/>
<text x="104" y="80.00" text-anchor="end" font-family="Arial" font-size="16" fill="black">0.797</text>
<rect x="120" y="75" width="1025" height="630" fill="none" stroke="black" stroke-width="2"/>
<text x="632.5" y="785" text-anchor="middle" font-family="Arial" font-size="20" fill="black">x coordinate [m]</text>
<text x="34" y="390.0" transform="rotate(-90 34 390.0)" text-anchor="middle" font-family="Arial" font-size="20" fill="black">vorticity:1 [SI]</text>
<polyline points="190.69,653.53 193.64,604.44 196.58,555.34 199.53,506.24 202.47,457.14 205.42,406.04 208.36,354.13 211.31,302.22 214.25,250.31 217.20,218.37 220.14,213.07 223.09,207.77 226.03,202.48 228.98,197.32 231.93,193.01 234.87,188.71 237.82,184.40 240.76,180.10 243.71,176.88 246.65,173.84 249.60,170.80 252.54,167.76 255.49,165.30 258.43,163.28 261.38,161.26 264.32,159.23 267.27,157.48 270.22,156.38 273.16,155.28 276.11,154.18 279.05,153.09 282.00,153.16 284.94,153.24 287.89,153.32 290.83,153.40 293.78,154.37 296.72,155.69 299.67,157.01 302.62,158.34 305.56,160.03 308.51,162.19 311.45,164.35 314.40,166.52 317.34,168.70 320.29,170.96 323.23,173.23 326.17,175.49 329.13,177.76 332.07,179.48 335.01,181.13 337.96,182.77 340.91,184.41 343.85,185.50 346.80,186.17 349.74,186.84 352.68,187.52 355.64,187.94 358.58,187.72 361.52,187.50 364.47,187.29 367.41,187.07 370.35,186.41 373.31,185.76 376.25,185.10 379.19,184.45 382.15,183.95 385.09,183.51 388.03,183.07 390.98,182.63 393.92,182.55 396.86,182.93 399.82,183.32 402.76,183.71 405.70,184.28 408.65,185.98 411.59,187.68 414.54,189.38 417.49,191.07 420.43,194.09 423.37,197.33 426.33,200.57 429.27,203.80 432.21,207.78 435.16,212.32 438.10,216.86 441.04,221.39 444.00,226.05 446.94,230.99 449.88,235.94 452.83,240.88 455.78,245.83 458.72,250.08 461.67,254.34 464.61,258.61 467.55,262.86 470.51,266.23 473.45,269.24 476.39,272.25 479.34,275.25 482.28,277.73 485.23,279.49 488.18,281.26 491.12,283.03 494.06,284.65 497.02,285.41 499.96,286.16 502.90,286.92 505.85,287.68 508.79,287.74 511.73,287.69 514.69,287.64 517.63,287.58 520.57,287.15 523.52,286.43 526.47,285.71 529.41,284.99 532.36,284.10 535.30,282.82 538.24,281.53 541.20,280.24 544.14,278.96 547.08,277.18 550.03,275.41 552.97,273.64 555.92,271.87 558.87,269.82 561.81,267.66 564.75,265.51 567.71,263.35 570.65,261.12 573.59,258.79 576.54,256.47 579.48,254.14 582.42,251.86 585.38,249.80 588.32,247.75 591.26,245.70 594.21,243.65 597.16,242.40 600.10,241.29 603.05,240.18 605.99,239.06 608.93,238.81 611.89,239.21 614.83,239.61 617.77,240.01 620.72,240.90 623.66,243.03 626.60,245.16 629.56,247.29 632.50,249.42 635.44,252.91 638.40,256.40 641.34,259.89 644.28,263.38 647.23,267.19 650.17,271.14 653.11,275.08 656.07,279.03 659.01,282.74 661.95,286.14 664.90,289.55 667.84,292.95 670.79,296.18 673.74,298.35 676.68,300.52 679.62,302.69 682.58,304.86 685.52,305.88 688.46,306.70 691.41,307.52 694.35,308.35 697.29,308.63 700.25,308.49 703.19,308.35 706.13,308.22 709.08,307.94 712.03,307.30 714.97,306.66 717.92,306.02 720.86,305.38 723.80,304.52 726.76,303.65 729.70,302.79 732.64,301.92 735.59,300.66 738.53,299.23 741.48,297.80 744.43,296.38 747.37,294.32 750.31,291.42 753.27,288.52 756.21,285.62 759.15,282.45 762.10,277.72 765.04,272.99 767.98,268.26 770.94,263.53 773.88,257.45 776.82,251.14 779.77,244.84 782.72,238.53 785.66,231.62 788.61,224.26 791.55,216.90 794.49,209.54 797.45,202.18 800.39,194.82 803.33,187.46 806.28,180.10 809.22,172.74 812.17,166.46 815.12,160.18 818.06,153.90 821.00,147.61 823.96,142.56 826.90,137.99 829.84,133.42 832.79,128.86 835.73,125.44 838.67,123.55 841.63,121.67 844.57,119.78 847.51,118.45 850.46,120.45 853.41,122.45 856.35,124.45 859.30,126.45 862.24,131.70 865.18,137.48 868.14,143.26 871.08,149.05 874.02,155.76 876.97,163.16 879.91,170.57 882.85,177.98 885.81,184.76 888.75,189.99 891.69,195.22 894.65,200.45 897.59,205.67 900.53,206.31 903.48,206.94 906.42,207.58 909.36,208.21 912.32,206.58 915.26,204.04 918.20,201.49 921.15,198.95 924.09,196.35 927.04,193.67 929.99,190.99 932.93,188.31 935.87,185.85 938.83,184.70 941.77,183.55 944.71,182.41 947.66,181.26 950.60,181.57 953.54,182.12 956.50,182.68 959.44,183.23 962.38,184.59 965.33,186.54 968.28,188.49 971.22,190.44 974.17,192.60 977.11,195.25 980.05,197.90 983.01,200.56 985.95,203.21 988.89,205.63 991.84,208.06 994.78,210.48 997.73,212.90 1000.68,214.54 1003.62,215.86 1006.56,217.18 1009.52,218.50 1012.46,219.04 1015.40,218.55 1018.35,218.06 1021.29,217.56 1024.23,216.74 1027.19,213.95 1030.13,211.16 1033.07,208.38 1036.02,205.59 1038.97,200.29 1041.91,194.57 1044.86,188.86 1047.80,183.14 1050.74,211.69 1053.70,265.94 1056.64,320.19 1059.58,374.43 1062.53,429.74 1065.47,487.68 1068.42,545.65 1071.37,603.60 1074.31,661.55" fill="none" stroke="#000000" stroke-width="3"/>
<line x1="142" y1="100" x2="178" y2="100" stroke="#000000" stroke-width="4"/>
<text x="188" y="105" font-family="Arial" font-size="18" fill="black">vorticity:1</text>
</svg>