<svg xmlns="http://www.w3.org/2000/svg" width="1200" height="820" viewBox="0 0 1200 820">
<rect width="100%" height="100%" fill="white"/>
<text x="600.0" y="36" text-anchor="middle" font-family="Arial" font-size="24" fill="black">profile_near_ceiling_x: U, V, W components</text>
<line x1="120.00" y1="75" x2="120.00" y2="705" stroke="#dddddd" stroke-width="1"/>
<text x="120.00" y="737" text-anchor="middle" font-family="Arial" font-size="16" fill="black">-0.560</text>
<line x1="376.25" y1="75" x2="376.25" y2="705" stroke="#dddddd" stroke-width="1"/>
<text x="376.25" y="737" text-anchor="middle" font-family="Arial" font-size="16" fill="black">1.470</text>
<line x1="632.50" y1="75" x2="632.50" y2="705" stroke="#dddddd" stroke-width="1"/>
<text x="632.50" y="737" text-anchor="middle" font-family="Arial" font-size="16" fill="black">3.500</text>
<line x1="888.75" y1="75" x2="888.75" y2="705" stroke="#dddddd" stroke-width="1"/>
<text x="888.75" y="737" text-anchor="middle" font-family="Arial" font-size="16" fill="black">5.530</text>
<line x1="1145.00" y1="75" x2="1145.00" y2="705" stroke="#dddddd" stroke-width="1"/>
<text x="1145.00" y="737" text-anchor="middle" font-family="Arial" font-size="16" fill="black">7.560</text>
<line x1="120" y1="705.00" x2="1145" y2="705.00" stroke="#dddddd" stroke-width="1"/>
<text x="104" y="710.00" text-anchor="end" font-family="Arial" font-size="16" fill="black">-0.419</text>
<line x1="120" y1="547.50" x2="1145" y2="547.50" stroke="#dddddd" stroke-width="1"/>
<text x="104" y="552.50" text-anchor="end" font-family="Arial" font-size="16" fill="black">-0.223</text>
<line x1="120" y1="390.00" x2="1145" y2="390.00" stroke="#dddddd" stroke-width="1"/>
<text x="104" y="395.00" text-anchor="end" font-family="Arial" font-size="16" fill="black">-0.027</text>
<line x1="120" y1="232.50" x2="1145" y2="232.50" stroke="#dddddd" stroke-width="1"/>
<text x="104" y="237.50" text-anchor="end" font-family="Arial" font-size="16" fill="black">0.169</text>
<line x1="120" y1="75.00" x2="1145" y2="75.00" stroke="#dddddd" stroke-width="1"/>
<text x="104" y="80.00" text-anchor="end" font-family="Arial" font-size="16" fill="black">0.365</text>
<rect x="120" y="75" width="1025" height="630" fill="none" stroke="black" stroke-width="2"/>
<text x="632.5" y="785" text-anchor="middle" font-family="Arial" font-size="20" fill="black">x coordinate [m]</text>
<text x="34" y="390.0" transform="rotate(-90 34 390.0)" text-anchor="middle" font-family="Arial" font-size="20" fill="black">velocity component [m/s]</text>
<polyline points="190.69,366.49 193.64,366.32 196.58,366.15 199.53,365.98 202.47,365.81 205.42,365.52 208.36,365.18 211.31,364.85 214.25,364.51 217.20,364.38 220.14,364.53 223.09,364.68 226.03,364.83 228.98,365.14 231.93,366.40 234.87,367.65 237.82,368.91 240.76,370.17 243.71,372.65 246.65,375.33 249.60,378.02 252.54,380.70 255.49,384.38 258.43,388.80 261.38,393.22 264.32,397.64 267.27,402.45 270.22,408.24 273.16,414.02 276.11,419.81 279.05,425.59 282.00,430.91 284.94,436.22 287.89,441.53 290.83,446.85 293.78,450.75 296.72,454.07 299.67,457.39 302.62,460.72 305.56,463.25 308.51,464.74 311.45,466.22 314.40,467.70 317.34,468.99 320.29,469.11 323.23,469.24 326.17,469.37 329.13,469.50 332.07,468.90 335.01,468.18 337.96,467.46 340.91,466.74 343.85,465.96 346.80,465.14 349.74,464.32 352.68,463.50 355.64,462.84 358.58,462.59 361.52,462.35 364.47,462.11 367.41,461.87 370.35,462.67 373.31,463.46 376.25,464.26 379.19,465.06 382.15,466.80 385.09,468.92 388.03,471.04 390.98,473.17 393.92,475.89 396.86,479.42 399.82,482.95 402.76,486.49 405.70,490.19 408.65,494.90 411.59,499.61 414.54,504.32 417.49,509.02 420.43,514.34 423.37,519.77 426.33,525.20 429.27,530.62 432.21,536.17 435.16,541.82 438.10,547.47 441.04,553.13 444.00,558.74 446.94,564.24 449.88,569.73 452.83,575.23 455.78,580.72 458.72,585.80 461.67,590.88 464.61,595.95 467.55,601.02 470.51,605.65 473.45,610.11 476.39,614.56 479.34,619.02 482.28,623.14 485.23,626.82 488.18,630.50 491.12,634.19 494.06,637.75 497.02,640.57 499.96,643.38 502.90,646.20 505.85,649.02 508.79,651.04 511.73,652.93 514.69,654.83 517.63,656.72 520.57,658.07 523.52,659.01 526.47,659.95 529.41,660.88 532.36,661.55 535.30,661.54 538.24,661.53 541.20,661.51 544.14,661.50 547.08,660.55 550.03,659.61 552.97,658.67 555.92,657.73 558.87,656.18 561.81,654.39 564.75,652.60 567.71,650.80 570.65,648.69 573.59,646.16 576.54,643.62 579.48,641.08 582.42,638.46 585.38,635.36 588.32,632.25 591.26,629.14 594.21,626.03 597.16,622.62 600.10,619.14 603.05,615.68 605.99,612.21 608.93,608.69 611.89,605.12 614.83,601.54 617.77,597.97 620.72,594.44 623.66,591.02 626.60,587.61 629.56,584.19 632.50,580.77 635.44,577.76 638.40,574.75 641.34,571.74 644.28,568.73 647.23,566.15 650.17,563.75 653.11,561.34 656.07,558.94 659.01,556.84 661.95,555.15 664.90,553.46 667.84,551.77 670.79,550.18 673.74,549.20 676.68,548.23 679.62,547.26 682.58,546.28 685.52,545.82 688.46,545.45 691.41,545.07 694.35,544.70 697.29,544.56 700.25,544.61 703.19,544.65 706.13,544.70 709.08,544.80 712.03,545.05 714.97,545.30 717.92,545.54 720.86,545.79 723.80,546.04 726.76,546.29 729.70,546.54 732.64,546.79 735.59,546.92 738.53,547.01 741.48,547.10 744.43,547.18 747.37,547.14 750.31,546.94 753.27,546.74 756.21,546.54 759.15,546.29 762.10,545.72 765.04,545.15 767.98,544.58 770.94,544.01 773.88,543.07 776.82,542.06 779.77,541.07 782.72,540.07 785.66,538.80 788.61,537.33 791.55,535.86 794.49,534.39 797.45,532.78 800.39,530.81 803.33,528.84 806.28,526.87 809.22,524.90 812.17,522.41 815.12,519.92 818.06,517.42 821.00,514.93 823.96,512.04 826.90,509.01 829.84,505.97 832.79,502.93 835.73,499.65 838.67,496.04 841.63,492.43 844.57,488.82 847.51,485.13 850.46,480.94 853.41,476.74 856.35,472.56 859.30,468.36 862.24,463.65 865.18,458.86 868.14,454.07 871.08,449.27 874.02,444.13 876.97,438.74 879.91,433.34 882.85,427.95 885.81,422.41 888.75,416.50 891.69,410.59 894.65,404.68 897.59,398.77 900.53,392.23 903.48,385.68 906.42,379.14 909.36,372.60 912.32,365.83 915.26,358.99 918.20,352.14 921.15,345.29 924.09,338.57 927.04,332.02 929.99,325.47 932.93,318.93 935.87,312.49 938.83,306.69 941.77,300.90 944.71,295.11 947.66,289.31 950.60,284.76 953.54,280.41 956.50,276.05 959.44,271.70 962.38,268.45 965.33,266.02 968.28,263.58 971.22,261.15 974.17,259.34 977.11,259.07 980.05,258.81 983.01,258.54 985.95,258.28 988.89,260.17 991.84,262.07 994.78,263.97 997.73,265.87 1000.68,269.06 1003.62,272.76 1006.56,276.47 1009.52,280.18 1012.46,284.43 1015.40,289.40 1018.35,294.38 1021.29,299.36 1024.23,304.42 1027.19,310.02 1030.13,315.63 1033.07,321.23 1036.02,326.83 1038.97,332.19 1041.91,337.50 1044.86,342.82 1047.80,348.13 1050.74,352.42 1053.70,355.93 1056.64,359.45 1059.58,362.96 1062.53,365.78 1065.47,366.85 1068.42,367.92 1071.37,368.98 1074.31,370.05" fill="none" stroke="#000000" stroke-width="3"/>
<line x1="142" y1="100" x2="178" y2="100" stroke="#000000" stroke-width="4"/>
<text x="188" y="105" font-family="Arial" font-size="18" fill="black">Ux / u</text>
<polyline points="190.69,456.35 193.64,458.45 196.58,460.55 199.53,462.65 202.47,464.75 205.42,467.84 208.36,471.33 211.31,474.82 214.25,478.31 217.20,481.29 220.14,483.59 223.09,485.88 226.03,488.18 228.98,490.35 231.93,491.70 234.87,493.04 237.82,494.38 240.76,495.72 243.71,496.36 246.65,496.88 249.60,497.41 252.54,497.92 255.49,498.20 258.43,498.30 261.38,498.39 264.32,498.48 267.27,498.48 270.22,498.24 273.16,498.01 276.11,497.77 279.05,497.53 282.00,496.22 284.94,494.93 287.89,493.63 290.83,492.32 293.78,490.28 296.72,487.93 299.67,485.59 302.62,483.24 305.56,481.01 308.51,478.94 311.45,476.87 314.40,474.81 317.34,472.89 320.29,471.86 323.23,470.85 326.17,469.83 329.13,468.81 332.07,468.52 335.01,468.34 337.96,468.17 340.91,468.00 343.85,468.07 346.80,468.33 349.74,468.58 352.68,468.84 355.64,469.07 358.58,469.24 361.52,469.40 364.47,469.57 367.41,469.74 370.35,468.99 373.31,468.22 376.25,467.47 379.19,466.71 382.15,464.55 385.09,461.82 388.03,459.10 390.98,456.37 393.92,452.71 396.86,447.78 399.82,442.85 402.76,437.93 405.70,432.87 408.65,427.01 411.59,421.15 414.54,415.29 417.49,409.43 420.43,404.10 423.37,398.85 426.33,393.61 429.27,388.36 432.21,383.79 435.16,379.72 438.10,375.64 441.04,371.57 444.00,367.80 446.94,364.76 449.88,361.72 452.83,358.68 455.78,355.64 458.72,353.39 461.67,351.14 464.61,348.89 467.55,346.64 470.51,344.81 473.45,343.16 476.39,341.50 479.34,339.85 482.28,338.38 485.23,337.16 488.18,335.94 491.12,334.72 494.06,333.54 497.02,332.62 499.96,331.69 502.90,330.77 505.85,329.85 508.79,329.08 511.73,328.34 514.69,327.59 517.63,326.85 520.57,326.15 523.52,325.48 526.47,324.81 529.41,324.15 532.36,323.47 535.30,322.79 538.24,322.11 541.20,321.43 544.14,320.75 547.08,319.99 550.03,319.22 552.97,318.45 555.92,317.69 558.87,316.82 561.81,315.91 564.75,315.00 567.71,314.09 570.65,313.10 573.59,312.02 576.54,310.93 579.48,309.84 582.42,308.73 585.38,307.46 588.32,306.19 591.26,304.92 594.21,303.65 597.16,302.23 600.10,300.80 603.05,299.36 605.99,297.92 608.93,296.41 611.89,294.85 614.83,293.29 617.77,291.73 620.72,290.16 623.66,288.54 626.60,286.91 629.56,285.30 632.50,283.67 635.44,282.06 638.40,280.45 641.34,278.83 644.28,277.22 647.23,275.66 650.17,274.11 653.11,272.58 656.07,271.03 659.01,269.54 661.95,268.11 664.90,266.69 667.84,265.25 670.79,263.85 673.74,262.56 676.68,261.27 679.62,259.98 682.58,258.69 685.52,257.52 688.46,256.36 691.41,255.21 694.35,254.06 697.29,252.96 700.25,251.92 703.19,250.89 706.13,249.84 709.08,248.83 712.03,247.87 714.97,246.92 717.92,245.95 720.86,245.00 723.80,244.09 726.76,243.18 729.70,242.27 732.64,241.36 735.59,240.45 738.53,239.56 741.48,238.66 744.43,237.76 747.37,236.85 750.31,235.92 753.27,234.99 756.21,234.07 759.15,233.14 762.10,232.14 765.04,231.15 767.98,230.16 770.94,229.17 773.88,228.09 776.82,227.00 779.77,225.91 782.72,224.82 785.66,223.65 788.61,222.42 791.55,221.20 794.49,219.98 797.45,218.71 800.39,217.32 803.33,215.95 806.28,214.57 809.22,213.18 812.17,211.63 815.12,210.07 818.06,208.52 821.00,206.96 823.96,205.28 826.90,203.54 829.84,201.80 832.79,200.06 835.73,198.25 838.67,196.33 841.63,194.40 844.57,192.47 847.51,190.53 850.46,188.43 853.41,186.33 856.35,184.23 859.30,182.13 862.24,179.90 865.18,177.64 868.14,175.38 871.08,173.12 874.02,170.80 876.97,168.41 879.91,166.03 882.85,163.65 885.81,161.23 888.75,158.72 891.69,156.20 894.65,153.69 897.59,151.18 900.53,148.46 903.48,145.73 906.42,143.01 909.36,140.28 912.32,137.67 915.26,135.10 918.20,132.53 921.15,129.95 924.09,127.73 927.04,126.00 929.99,124.25 932.93,122.51 935.87,120.92 938.83,120.31 941.77,119.69 944.71,119.07 947.66,118.45 950.60,118.72 953.54,119.15 956.50,119.57 959.44,119.99 962.38,120.83 965.33,121.98 968.28,123.12 971.22,124.27 974.17,125.47 977.11,126.86 980.05,128.23 983.01,129.61 985.95,130.99 988.89,132.08 991.84,133.18 994.78,134.27 997.73,135.36 1000.68,135.97 1003.62,136.37 1006.56,136.78 1009.52,137.18 1012.46,137.24 1015.40,136.85 1018.35,136.46 1021.29,136.07 1024.23,135.63 1027.19,134.89 1030.13,134.14 1033.07,133.39 1036.02,132.65 1038.97,132.10 1041.91,131.58 1044.86,131.07 1047.80,130.55 1050.74,130.59 1053.70,131.05 1056.64,131.50 1059.58,131.97 1062.53,132.47 1065.47,133.09 1068.42,133.70 1071.37,134.32 1074.31,134.93" fill="none" stroke="#555555" stroke-width="3" stroke-dasharray="9 5"/>
<line x1="142" y1="128" x2="178" y2="128" stroke="#555555" stroke-width="4" stroke-dasharray="9 5"/>
<text x="188" y="133" font-family="Arial" font-size="18" fill="black">Uy / v</text>
<polyline points="190.69,370.18 193.64,369.93 196.58,369.67 199.53,369.42 202.47,369.17 205.42,369.18 208.36,369.29 211.31,369.41 214.25,369.53 217.20,370.20 220.14,371.61 223.09,373.02 226.03,374.43 228.98,376.02 231.93,378.69 234.87,381.36 237.82,384.03 240.76,386.70 243.71,390.22 246.65,393.89 249.60,397.56 252.54,401.22 255.49,404.97 258.43,408.78 261.38,412.59 264.32,416.40 267.27,419.65 270.22,421.50 273.16,423.36 276.11,425.21 279.05,427.06 282.00,425.33 284.94,423.60 287.89,421.87 290.83,420.14 293.78,416.75 296.72,412.70 299.67,408.65 302.62,404.60 305.56,400.56 308.51,396.53 311.45,392.51 314.40,388.48 317.34,384.63 320.29,381.78 323.23,378.93 326.17,376.09 329.13,373.24 332.07,371.75 335.01,370.47 337.96,369.20 340.91,367.93 343.85,367.65 346.80,368.10 349.74,368.56 352.68,369.01 355.64,369.96 358.58,372.11 361.52,374.27 364.47,376.43 367.41,378.59 370.35,382.00 373.31,385.42 376.25,388.83 379.19,392.24 382.15,395.63 385.09,399.00 388.03,402.38 390.98,405.75 393.92,408.46 396.86,410.30 399.82,412.14 402.76,413.98 405.70,415.58 408.65,415.75 411.59,415.92 414.54,416.09 417.49,416.26 420.43,415.80 423.37,415.23 426.33,414.67 429.27,414.11 432.21,413.44 435.16,412.70 438.10,411.96 441.04,411.22 444.00,410.45 446.94,409.60 449.88,408.75 452.83,407.90 455.78,407.05 458.72,406.10 461.67,405.14 464.61,404.18 467.55,403.22 470.51,402.23 473.45,401.22 476.39,400.21 479.34,399.20 482.28,398.21 485.23,397.26 488.18,396.30 491.12,395.35 494.06,394.41 497.02,393.56 499.96,392.71 502.90,391.86 505.85,391.01 508.79,390.22 511.73,389.44 514.69,388.66 517.63,387.88 520.57,387.12 523.52,386.38 526.47,385.64 529.41,384.90 532.36,384.16 535.30,383.45 538.24,382.73 541.20,382.02 544.14,381.31 547.08,380.61 550.03,379.92 552.97,379.23 555.92,378.54 558.87,377.86 561.81,377.20 564.75,376.53 567.71,375.87 570.65,375.22 573.59,374.59 576.54,373.97 579.48,373.34 582.42,372.73 585.38,372.16 588.32,371.59 591.26,371.02 594.21,370.45 597.16,369.95 600.10,369.45 603.05,368.96 605.99,368.46 608.93,368.02 611.89,367.61 614.83,367.20 617.77,366.79 620.72,366.41 623.66,366.08 626.60,365.75 629.56,365.42 632.50,365.09 635.44,364.82 638.40,364.55 641.34,364.28 644.28,364.01 647.23,363.75 650.17,363.49 653.11,363.23 656.07,362.97 659.01,362.69 661.95,362.38 664.90,362.08 667.84,361.77 670.79,361.46 673.74,361.07 676.68,360.67 679.62,360.28 682.58,359.89 685.52,359.40 688.46,358.91 691.41,358.41 694.35,357.91 697.29,357.35 700.25,356.75 703.19,356.16 706.13,355.56 709.08,354.94 712.03,354.28 714.97,353.61 717.92,352.95 720.86,352.28 723.80,351.60 726.76,350.91 729.70,350.22 732.64,349.53 735.59,348.86 738.53,348.19 741.48,347.52 744.43,346.86 747.37,346.22 750.31,345.61 753.27,345.01 756.21,344.40 759.15,343.81 762.10,343.29 765.04,342.78 767.98,342.27 770.94,341.75 773.88,341.33 776.82,340.92 779.77,340.52 782.72,340.11 785.66,339.77 788.61,339.47 791.55,339.17 794.49,338.88 797.45,338.61 800.39,338.40 803.33,338.20 806.28,338.00 809.22,337.80 812.17,337.66 815.12,337.53 818.06,337.39 821.00,337.25 823.96,337.14 826.90,337.02 829.84,336.91 832.79,336.80 835.73,336.68 838.67,336.53 841.63,336.39 844.57,336.25 847.51,336.09 850.46,335.85 853.41,335.62 856.35,335.38 859.30,335.14 862.24,334.77 865.18,334.39 868.14,334.00 871.08,333.61 874.02,333.10 876.97,332.49 879.91,331.89 882.85,331.29 885.81,330.62 888.75,329.77 891.69,328.92 894.65,328.07 897.59,327.22 900.53,326.47 903.48,325.72 906.42,324.97 909.36,324.22 912.32,323.92 915.26,323.80 918.20,323.68 921.15,323.56 924.09,323.75 927.04,324.36 929.99,324.96 932.93,325.56 935.87,326.27 938.83,327.60 941.77,328.93 944.71,330.26 947.66,331.59 950.60,333.53 953.54,335.56 956.50,337.59 959.44,339.62 962.38,341.91 965.33,344.39 968.28,346.87 971.22,349.35 974.17,351.92 977.11,354.72 980.05,357.51 983.01,360.31 985.95,363.10 988.89,366.24 991.84,369.38 994.78,372.51 997.73,375.65 1000.68,378.98 1003.62,382.39 1006.56,385.80 1009.52,389.21 1012.46,392.60 1015.40,395.97 1018.35,399.34 1021.29,402.71 1024.23,405.95 1027.19,408.44 1030.13,410.93 1033.07,413.42 1036.02,415.90 1038.97,416.47 1041.91,416.72 1044.86,416.97 1047.80,417.22 1050.74,415.83 1053.70,413.23 1056.64,410.62 1059.58,408.02 1062.53,405.59 1065.47,403.61 1068.42,401.63 1071.37,399.65 1074.31,397.67" fill="none" stroke="#999999" stroke-width="3" stroke-dasharray="3 4"/>
<line x1="142" y1="156" x2="178" y2="156" stroke="#999999" stroke-width="4" stroke-dasharray="3 4"/>
<text x="188" y="161" font-family="Arial" font-size="18" fill="black">Uz / w</text>
</svg>