<svg xmlns="http://www.w3.org/2000/svg" width="1200" height="820" viewBox="0 0 1200 820">
<rect width="100%" height="100%" fill="white"/>
<text x="600.0" y="36" text-anchor="middle" font-family="Arial" font-size="24" fill="black">profile_center_x: vorticity:0</text>
<line x1="120.00" y1="75" x2="120.00" y2="705" stroke="#dddddd" stroke-width="1"/>
<text x="120.00" y="737" text-anchor="middle" font-family="Arial" font-size="16" fill="black">-0.560</text>
<line x1="376.25" y1="75" x2="376.25" y2="705" stroke="#dddddd" stroke-width="1"/>
<text x="376.25" y="737" text-anchor="middle" font-family="Arial" font-size="16" fill="black">1.470</text>
<line x1="632.50" y1="75" x2="632.50" y2="705" stroke="#dddddd" stroke-width="1"/>
<text x="632.50" y="737" text-anchor="middle" font-family="Arial" font-size="16" fill="black">3.500</text>
<line x1="888.75" y1="75" x2="888.75" y2="705" stroke="#dddddd" stroke-width="1"/>
<text x="888.75" y="737" text-anchor="middle" font-family="Arial" font-size="16" fill="black">5.530</text>
<line x1="1145.00" y1="75" x2="1145.00" y2="705" stroke="#dddddd" stroke-width="1"/>
<text x="1145.00" y="737" text-anchor="middle" font-family="Arial" font-size="16" fill="black">7.560</text>
<line x1="120" y1="705.00" x2="1145" y2="705.00" stroke="#dddddd" stroke-width="1"/>
<text x="104" y="710.00" text-anchor="end" font-family="Arial" font-size="16" fill="black">-0.878</text>
<line x1="120" y1="547.50" x2="1145" y2="547.50" stroke="#dddddd" stroke-width="1"/>
<text x="104" y="552.50" text-anchor="end" font-family="Arial" font-size="16" fill="black">-0.400</text>
<line x1="120" y1="390.00" x2="1145" y2="390.00" stroke="#dddddd" stroke-width="1"/>
<text x="104" y="395.00" text-anchor="end" font-family="Arial" font-size="16" fill="black">0.077</text>
<line x1="120" y1="232.50" x2="1145" y2="232.50" stroke="#dddddd" stroke-width="1"/>
<text x="104" y="237.50" text-anchor="end" font-family="Arial" font-size="16" fill="black">0.555</text>
<line x1="120" y1="75.00" x2="1145" y2="75.00" stroke="#dddddd" stroke-width="1"/>
<text x="104" y="80.00" text-anchor="end" font-family="Arial" font-size="16" fill="black">1.033</text>
<rect x="120" y="75" width="1025" height="630" fill="none" stroke="black" stroke-width="2"/>
<text x="632.5" y="785" text-anchor="middle" font-family="Arial" font-size="20" fill="black">x coordinate [m]</text>
<text x="34" y="390.0" transform="rotate(-90 34 390.0)" text-anchor="middle" font-family="Arial" font-size="20" fill="black">vorticity:0 [SI]</text>
<polyline points="190.69,118.45 193.64,123.46 196.58,128.46 199.53,133.47 202.47,138.48 205.42,147.62 208.36,158.41 211.31,169.20 214.25,179.99 217.20,190.95 220.14,202.13 223.09,213.30 226.03,224.48 228.98,235.49 231.93,245.50 234.87,255.51 237.82,265.51 240.76,275.52 243.71,284.28 246.65,292.83 249.60,301.38 252.54,309.93 255.49,317.85 258.43,325.29 261.38,332.73 264.32,340.17 267.27,347.38 270.22,354.03 273.16,360.68 276.11,367.33 279.05,373.97 282.00,379.76 284.94,385.55 287.89,391.33 290.83,397.12 293.78,402.14 296.72,406.85 299.67,411.56 302.62,416.28 305.56,420.44 308.51,423.88 311.45,427.32 314.40,430.76 317.34,434.02 320.29,436.14 323.23,438.27 326.17,440.40 329.13,442.53 332.07,443.82 335.01,444.96 337.96,446.11 340.91,447.25 343.85,448.06 346.80,448.61 349.74,449.15 352.68,449.70 355.64,450.14 358.58,450.31 361.52,450.49 364.47,450.66 367.41,450.83 370.35,450.47 373.31,450.11 376.25,449.76 379.19,449.40 382.15,448.48 385.09,447.32 388.03,446.17 390.98,445.02 393.92,443.59 396.86,441.78 399.82,439.98 402.76,438.18 405.70,436.35 408.65,434.37 411.59,432.39 414.54,430.41 417.49,428.43 420.43,426.81 423.37,425.25 426.33,423.69 429.27,422.13 432.21,421.04 435.16,420.30 438.10,419.57 441.04,418.83 444.00,418.28 446.94,418.19 449.88,418.10 452.83,418.01 455.78,417.92 458.72,417.89 461.67,417.85 464.61,417.82 467.55,417.79 470.51,417.53 473.45,417.19 476.39,416.84 479.34,416.49 482.28,416.02 485.23,415.39 488.18,414.76 491.12,414.12 494.06,413.47 497.02,412.68 499.96,411.90 502.90,411.11 505.85,410.32 508.79,409.52 511.73,408.71 514.69,407.91 517.63,407.10 520.57,406.34 523.52,405.63 526.47,404.91 529.41,404.19 532.36,403.52 535.30,402.97 538.24,402.42 541.20,401.86 544.14,401.31 547.08,400.97 550.03,400.63 552.97,400.29 555.92,399.94 558.87,399.75 561.81,399.62 564.75,399.48 567.71,399.35 570.65,399.27 573.59,399.27 576.54,399.27 579.48,399.27 582.42,399.26 585.38,399.22 588.32,399.17 591.26,399.13 594.21,399.09 597.16,398.77 600.10,398.40 603.05,398.03 605.99,397.66 608.93,396.94 611.89,395.96 614.83,394.97 617.77,393.99 620.72,392.76 623.66,390.89 626.60,389.03 629.56,387.17 632.50,385.30 635.44,382.39 638.40,379.47 641.34,376.55 644.28,373.63 647.23,370.08 650.17,366.27 653.11,362.46 656.07,358.65 659.01,354.77 661.95,350.79 664.90,346.81 667.84,342.84 670.79,339.00 673.74,336.04 676.68,333.07 679.62,330.10 682.58,327.14 685.52,325.86 688.46,324.87 691.41,323.87 694.35,322.88 697.29,323.14 700.25,324.35 703.19,325.56 706.13,326.77 709.08,328.45 712.03,331.33 714.97,334.21 717.92,337.09 720.86,339.97 723.80,343.41 726.76,346.86 729.70,350.30 732.64,353.74 735.59,356.74 738.53,359.56 741.48,362.38 744.43,365.20 747.37,367.60 750.31,369.44 753.27,371.28 756.21,373.11 759.15,374.75 762.10,375.17 765.04,375.60 767.98,376.03 770.94,376.46 773.88,375.35 776.82,373.99 779.77,372.62 782.72,371.26 785.66,369.21 788.61,366.65 791.55,364.09 794.49,361.53 797.45,358.82 800.39,355.75 803.33,352.68 806.28,349.61 809.22,346.54 812.17,343.47 815.12,340.40 818.06,337.32 821.00,334.25 823.96,331.33 826.90,328.48 829.84,325.62 832.79,322.77 835.73,320.40 838.67,318.68 841.63,316.96 844.57,315.24 847.51,313.82 850.46,314.24 853.41,314.66 856.35,315.07 859.30,315.49 862.24,317.32 865.18,319.39 868.14,321.46 871.08,323.53 874.02,326.13 876.97,329.14 879.91,332.15 882.85,335.16 885.81,338.51 888.75,342.69 891.69,346.87 894.65,351.06 897.59,355.24 900.53,361.00 903.48,366.75 906.42,372.50 909.36,378.25 912.32,384.91 915.26,391.93 918.20,398.95 921.15,405.98 924.09,413.49 927.04,421.64 929.99,429.80 932.93,437.95 935.87,446.31 938.83,455.92 941.77,465.53 944.71,475.14 947.66,484.75 950.60,495.39 953.54,506.20 956.50,517.02 959.44,527.83 962.38,538.63 965.33,549.42 968.28,560.22 971.22,571.01 974.17,581.34 977.11,590.50 980.05,599.66 983.01,608.82 985.95,617.98 988.89,624.37 991.84,630.76 994.78,637.16 997.73,643.55 1000.68,647.73 1003.62,651.01 1006.56,654.30 1009.52,657.59 1012.46,659.70 1015.40,660.24 1018.35,660.77 1021.29,661.31 1024.23,661.55 1027.19,660.07 1030.13,658.59 1033.07,657.11 1036.02,655.63 1038.97,652.93 1041.91,650.04 1044.86,647.14 1047.80,644.25 1050.74,640.21 1053.70,635.31 1056.64,630.42 1059.58,625.52 1062.53,621.13 1065.47,617.99 1068.42,614.85 1071.37,611.71 1074.31,608.57" fill="none" stroke="#000000" stroke-width="3"/>
<line x1="142" y1="100" x2="178" y2="100" stroke="#000000" stroke-width="4"/>
<text x="188" y="105" font-family="Arial" font-size="18" fill="black">vorticity:0</text>
</svg>