<svg xmlns="http://www.w3.org/2000/svg" width="1200" height="820" viewBox="0 0 1200 820">
<rect width="100%" height="100%" fill="white"/>
<text x="600.0" y="36" text-anchor="middle" font-family="Arial" font-size="24" fill="black">profile_center_y: U:0</text>
<line x1="120.00" y1="75" x2="120.00" y2="705" stroke="#dddddd" stroke-width="1"/>
<text x="120.00" y="737" text-anchor="middle" font-family="Arial" font-size="16" fill="black">-0.400</text>
<line x1="376.25" y1="75" x2="376.25" y2="705" stroke="#dddddd" stroke-width="1"/>
<text x="376.25" y="737" text-anchor="middle" font-family="Arial" font-size="16" fill="black">1.050</text>
<line x1="632.50" y1="75" x2="632.50" y2="705" stroke="#dddddd" stroke-width="1"/>
<text x="632.50" y="737" text-anchor="middle" font-family="Arial" font-size="16" fill="black">2.500</text>
<line x1="888.75" y1="75" x2="888.75" y2="705" stroke="#dddddd" stroke-width="1"/>
<text x="888.75" y="737" text-anchor="middle" font-family="Arial" font-size="16" fill="black">3.950</text>
<line x1="1145.00" y1="75" x2="1145.00" y2="705" stroke="#dddddd" stroke-width="1"/>
<text x="1145.00" y="737" text-anchor="middle" font-family="Arial" font-size="16" fill="black">5.400</text>
<line x1="120" y1="705.00" x2="1145" y2="705.00" stroke="#dddddd" stroke-width="1"/>
<text x="104" y="710.00" text-anchor="end" font-family="Arial" font-size="16" fill="black">-0.203</text>
<line x1="120" y1="547.50" x2="1145" y2="547.50" stroke="#dddddd" stroke-width="1"/>
<text x="104" y="552.50" text-anchor="end" font-family="Arial" font-size="16" fill="black">-0.064</text>
<line x1="120" y1="390.00" x2="1145" y2="390.00" stroke="#dddddd" stroke-width="1"/>
<text x="104" y="395.00" text-anchor="end" font-family="Arial" font-size="16" fill="black">0.075</text>
<line x1="120" y1="232.50" x2="1145" y2="232.50" stroke="#dddddd" stroke-width="1"/>
<text x="104" y="237.50" text-anchor="end" font-family="Arial" font-size="16" fill="black">0.214</text>
<line x1="120" y1="75.00" x2="1145" y2="75.00" stroke="#dddddd" stroke-width="1"/>
<text x="104" y="80.00" text-anchor="end" font-family="Arial" font-size="16" fill="black">0.353</text>
<rect x="120" y="75" width="1025" height="630" fill="none" stroke="black" stroke-width="2"/>
<text x="632.5" y="785" text-anchor="middle" font-family="Arial" font-size="20" fill="black">y coordinate [m]</text>
<text x="34" y="390.0" transform="rotate(-90 34 390.0)" text-anchor="middle" font-family="Arial" font-size="20" fill="black">U:0 [SI]</text>
<polyline points="190.69,661.55 193.64,656.40 196.58,651.25 199.53,646.10 202.47,640.95 205.42,635.80 208.36,630.65 211.31,620.35 214.25,610.05 217.20,599.77 220.14,589.47 223.09,579.18 226.03,568.88 228.98,558.59 231.92,548.31 234.87,538.02 237.82,527.73 240.76,517.45 243.71,507.16 246.65,497.13 249.60,487.09 252.54,477.06 255.49,467.02 258.43,456.99 261.38,446.96 264.33,437.53 267.27,428.11 270.22,418.69 273.16,409.26 276.11,399.84 279.05,390.42 282.00,381.65 284.94,372.88 287.89,364.11 290.83,355.34 293.78,346.57 296.72,337.79 299.67,329.59 302.61,321.38 305.56,313.18 308.51,304.97 311.45,296.77 314.40,288.56 317.34,280.95 320.29,273.34 323.23,265.73 326.18,258.11 329.12,250.51 332.07,242.90 335.01,236.06 337.96,229.22 340.91,222.37 343.85,215.54 346.80,208.69 349.74,201.85 352.69,196.08 355.63,190.30 358.58,184.52 361.52,178.75 364.47,172.97 367.41,167.20 370.37,162.82 373.30,158.44 376.25,154.06 379.20,149.68 382.13,145.30 385.09,140.91 388.04,138.16 390.97,135.43 393.92,132.68 396.87,129.94 399.81,127.19 402.76,124.45 405.71,123.44 408.64,122.44 411.59,121.45 414.55,120.45 417.48,119.46 420.43,118.45 423.38,119.21 426.32,119.98 429.27,120.73 432.22,121.49 435.15,122.25 438.10,123.01 441.05,125.42 443.99,127.83 446.94,130.25 449.89,132.66 452.82,135.07 455.78,137.49 458.73,141.32 461.66,145.16 464.61,149.00 467.56,152.83 470.50,156.67 473.45,160.51 476.40,165.50 479.33,170.50 482.28,175.50 485.24,180.49 488.17,185.50 491.12,190.49 494.07,196.46 497.01,202.44 499.96,208.42 502.91,214.39 505.84,220.37 508.79,226.34 511.74,233.23 514.68,240.11 517.63,246.99 520.58,253.86 523.51,260.74 526.47,267.62 529.42,275.25 532.35,282.89 535.30,290.52 538.25,298.16 541.19,305.80 544.14,313.43 547.09,321.29 550.02,329.16 552.97,337.01 555.93,344.88 558.86,352.75 561.81,360.60 564.76,367.79 567.70,374.96 570.65,382.14 573.60,389.32 576.53,396.50 579.48,403.68 582.43,409.34 585.37,414.99 588.32,420.65 591.27,426.30 594.20,431.96 597.16,437.61 600.11,441.35 603.04,445.09 605.99,448.83 608.94,452.56 611.88,456.30 614.83,460.04 617.78,461.87 620.71,463.69 623.66,465.52 626.62,467.34 629.55,469.17 632.50,470.99 635.45,471.04 638.38,471.09 641.34,471.13 644.29,471.18 647.22,471.23 650.17,471.28 653.12,469.79 656.06,468.31 659.01,466.83 661.96,465.34 664.89,463.86 667.84,462.38 670.80,460.08 673.73,457.78 676.68,455.48 679.63,453.18 682.57,450.89 685.52,448.59 688.47,446.84 691.40,445.10 694.35,443.36 697.30,441.62 700.24,439.87 703.19,438.13 706.14,438.13 709.07,438.13 712.03,438.13 714.98,438.13 717.91,438.13 720.86,438.12 723.81,440.22 726.75,442.31 729.70,444.40 732.65,446.49 735.58,448.58 738.53,450.67 741.49,454.25 744.42,457.82 747.37,461.40 750.32,464.97 753.26,468.54 756.21,472.12 759.16,475.82 762.09,479.53 765.04,483.23 767.99,486.94 770.93,490.64 773.88,494.35 776.83,497.02 779.76,499.70 782.72,502.37 785.67,505.05 788.60,507.72 791.55,510.39 794.50,511.71 797.44,513.02 800.39,514.34 803.34,515.65 806.27,516.96 809.22,518.28 812.18,518.62 815.11,518.96 818.06,519.31 821.01,519.65 823.95,519.99 826.90,520.34 829.85,520.29 832.78,520.25 835.73,520.21 838.68,520.17 841.62,520.12 844.57,520.08 847.52,520.13 850.45,520.17 853.41,520.22 856.36,520.26 859.29,520.31 862.24,520.35 865.19,520.78 868.13,521.20 871.08,521.62 874.03,522.05 876.96,522.47 879.91,522.89 882.87,523.85 885.80,524.80 888.75,525.75 891.70,526.71 894.63,527.66 897.59,528.61 900.54,530.14 903.47,531.67 906.42,533.20 909.37,534.73 912.31,536.26 915.26,537.80 918.21,539.85 921.14,541.90 924.09,543.95 927.05,546.00 929.98,548.05 932.93,550.11 935.88,552.55 938.82,554.98 941.77,557.42 944.72,559.86 947.65,562.30 950.60,564.74 953.55,567.33 956.49,569.93 959.44,572.52 962.39,575.12 965.32,577.71 968.28,580.31 971.23,582.71 974.16,585.11 977.11,587.51 980.06,589.91 983.00,592.31 985.95,594.72 988.90,596.49 991.83,598.27 994.78,600.05 997.74,601.83 1000.67,603.60 1003.62,605.38 1006.57,606.09 1009.51,606.81 1012.46,607.52 1015.41,608.23 1018.34,608.94 1021.29,609.66 1024.24,608.87 1027.18,608.07 1030.13,607.28 1033.08,606.49 1036.01,605.70 1038.97,604.89 1041.92,602.06 1044.85,599.23 1047.80,596.40 1050.75,593.57 1053.69,590.75 1056.64,587.92 1059.59,585.91 1062.52,583.91 1065.47,581.91 1068.43,579.91 1071.36,577.91 1074.31,575.90" fill="none" stroke="#000000" stroke-width="3"/>
<line x1="142" y1="100" x2="178" y2="100" stroke="#000000" stroke-width="4"/>
<text x="188" y="105" font-family="Arial" font-size="18" fill="black">U:0</text>
</svg>