<svg xmlns="http://www.w3.org/2000/svg" width="1200" height="820" viewBox="0 0 1200 820">
<rect width="100%" height="100%" fill="white"/>
<text x="600.0" y="36" text-anchor="middle" font-family="Arial" font-size="24" fill="black">profile_center_y: vorticity:1</text>
<line x1="120.00" y1="75" x2="120.00" y2="705" stroke="#dddddd" stroke-width="1"/>
<text x="120.00" y="737" text-anchor="middle" font-family="Arial" font-size="16" fill="black">-0.400</text>
<line x1="376.25" y1="75" x2="376.25" y2="705" stroke="#dddddd" stroke-width="1"/>
<text x="376.25" y="737" text-anchor="middle" font-family="Arial" font-size="16" fill="black">1.050</text>
<line x1="632.50" y1="75" x2="632.50" y2="705" stroke="#dddddd" stroke-width="1"/>
<text x="632.50" y="737" text-anchor="middle" font-family="Arial" font-size="16" fill="black">2.500</text>
<line x1="888.75" y1="75" x2="888.75" y2="705" stroke="#dddddd" stroke-width="1"/>
<text x="888.75" y="737" text-anchor="middle" font-family="Arial" font-size="16" fill="black">3.950</text>
<line x1="1145.00" y1="75" x2="1145.00" y2="705" stroke="#dddddd" stroke-width="1"/>
<text x="1145.00" y="737" text-anchor="middle" font-family="Arial" font-size="16" fill="black">5.400</text>
<line x1="120" y1="705.00" x2="1145" y2="705.00" stroke="#dddddd" stroke-width="1"/>
<text x="104" y="710.00" text-anchor="end" font-family="Arial" font-size="16" fill="black">-0.532</text>
<line x1="120" y1="547.50" x2="1145" y2="547.50" stroke="#dddddd" stroke-width="1"/>
<text x="104" y="552.50" text-anchor="end" font-family="Arial" font-size="16" fill="black">-0.390</text>
<line x1="120" y1="390.00" x2="1145" y2="390.00" stroke="#dddddd" stroke-width="1"/>
<text x="104" y="395.00" text-anchor="end" font-family="Arial" font-size="16" fill="black">-0.247</text>
<line x1="120" y1="232.50" x2="1145" y2="232.50" stroke="#dddddd" stroke-width="1"/>
<text x="104" y="237.50" text-anchor="end" font-family="Arial" font-size="16" fill="black">-0.105</text>
<line x1="120" y1="75.00" x2="1145" y2="75.00" stroke="#dddddd" stroke-width="1"/>
<text x="104" y="80.00" text-anchor="end" font-family="Arial" font-size="16" fill="black">0.038</text>
<rect x="120" y="75" width="1025" height="630" fill="none" stroke="black" stroke-width="2"/>
<text x="632.5" y="785" text-anchor="middle" font-family="Arial" font-size="20" fill="black">y coordinate [m]</text>
<text x="34" y="390.0" transform="rotate(-90 34 390.0)" text-anchor="middle" font-family="Arial" font-size="20" fill="black">vorticity:1 [SI]</text>
<polyline points="190.69,619.23 193.64,621.69 196.58,624.14 199.53,626.60 202.47,629.05 205.42,631.51 208.36,633.96 211.31,637.21 214.25,640.46 217.20,643.73 220.14,646.98 223.09,650.24 226.03,653.49 228.98,654.84 231.92,656.18 234.87,657.52 237.82,658.86 240.76,660.20 243.71,661.55 246.65,661.33 249.60,661.12 252.54,660.91 255.49,660.69 258.43,660.48 261.38,660.26 264.33,657.92 267.27,655.59 270.22,653.25 273.16,650.91 276.11,648.58 279.05,646.24 282.00,642.52 284.94,638.81 287.89,635.08 290.83,631.36 293.78,627.64 296.72,623.92 299.67,618.44 302.61,612.95 305.56,607.47 308.51,601.97 311.45,596.49 314.40,591.00 317.34,583.03 320.29,575.05 323.23,567.08 326.18,559.11 329.12,551.14 332.07,543.16 335.01,533.19 337.96,523.23 340.91,513.26 343.85,503.30 346.80,493.34 349.74,483.36 352.69,472.48 355.63,461.59 358.58,450.70 361.52,439.80 364.47,428.91 367.41,418.02 370.37,405.96 373.30,393.91 376.25,381.86 379.20,369.79 382.13,357.74 385.09,345.69 388.04,333.37 390.97,321.05 393.92,308.73 396.87,296.42 399.81,284.10 402.76,271.79 405.71,261.93 408.64,252.07 411.59,242.20 414.55,232.35 417.48,222.49 420.43,212.63 423.38,206.53 426.32,200.44 429.27,194.35 432.22,188.26 435.15,182.16 438.10,176.07 441.05,173.65 443.99,171.22 446.94,168.79 449.89,166.37 452.82,163.94 455.78,161.52 458.73,161.53 461.66,161.54 464.61,161.56 467.56,161.57 470.50,161.58 473.45,161.59 476.40,162.29 479.33,162.99 482.28,163.69 485.24,164.39 488.17,165.08 491.12,165.78 494.07,165.58 497.01,165.38 499.96,165.18 502.91,164.98 505.84,164.79 508.79,164.59 511.74,162.17 514.68,159.75 517.63,157.33 520.58,154.91 523.51,152.49 526.47,150.08 529.42,146.45 532.35,142.82 535.30,139.19 538.25,135.57 541.19,131.94 544.14,128.31 547.09,126.67 550.02,125.02 552.97,123.38 555.93,121.74 558.86,120.09 561.81,118.45 564.76,120.03 567.70,121.62 570.65,123.20 573.60,124.78 576.53,126.37 579.48,127.95 582.43,131.66 585.37,135.37 588.32,139.08 591.27,142.79 594.20,146.50 597.16,150.21 600.11,154.74 603.04,159.27 605.99,163.80 608.94,168.34 611.88,172.87 614.83,177.40 617.78,182.31 620.71,187.22 623.66,192.13 626.62,197.04 629.55,201.95 632.50,206.86 635.45,212.30 638.38,217.73 641.34,223.17 644.29,228.60 647.22,234.04 650.17,239.47 653.12,245.28 656.06,251.07 659.01,256.88 661.96,262.67 664.89,268.48 667.84,274.27 670.80,280.16 673.73,286.03 676.68,291.91 679.63,297.79 682.57,303.67 685.52,309.55 688.47,314.51 691.40,319.48 694.35,324.44 697.30,329.41 700.24,334.37 703.19,339.34 706.14,342.47 709.07,345.59 712.03,348.71 714.98,351.82 717.91,354.94 720.86,358.07 723.81,360.78 726.75,363.50 729.70,366.22 732.65,368.94 735.58,371.65 738.53,374.37 741.49,376.66 744.42,378.95 747.37,381.24 750.32,383.53 753.26,385.81 756.21,388.09 759.16,386.65 762.09,385.19 765.04,383.74 767.99,382.28 770.93,380.83 773.88,379.37 776.83,372.30 779.76,365.24 782.72,358.17 785.67,351.09 788.60,344.03 791.55,336.96 794.50,326.06 797.44,315.16 800.39,304.25 803.34,293.35 806.27,282.45 809.22,271.54 812.18,260.83 815.11,250.12 818.06,239.41 821.01,228.70 823.95,217.99 826.90,207.28 829.85,200.36 832.78,193.43 835.73,186.50 838.68,179.58 841.62,172.65 844.57,165.73 847.52,164.12 850.45,162.51 853.41,160.90 856.36,159.29 859.29,157.68 862.24,156.07 865.19,159.38 868.13,162.70 871.08,166.01 874.03,169.32 876.96,172.63 879.91,175.94 882.87,182.82 885.80,189.70 888.75,196.59 891.70,203.47 894.63,210.35 897.59,217.24 900.54,225.94 903.47,234.64 906.42,243.35 909.37,252.06 912.31,260.76 915.26,269.46 918.21,278.49 921.14,287.51 924.09,296.52 927.05,305.55 929.98,314.56 932.93,323.58 935.88,332.18 938.82,340.78 941.77,349.38 944.72,357.97 947.65,366.58 950.60,375.17 953.55,383.09 956.49,391.00 959.44,398.92 962.39,406.84 965.32,414.75 968.28,422.66 971.23,429.61 974.16,436.56 977.11,443.51 980.06,450.45 983.00,457.41 985.95,464.35 988.90,469.88 991.83,475.41 994.78,480.94 997.74,486.47 1000.67,492.00 1003.62,497.52 1006.57,501.50 1009.51,505.47 1012.46,509.44 1015.41,513.42 1018.34,517.39 1021.29,521.36 1024.24,524.91 1027.18,528.44 1030.13,531.98 1033.08,535.53 1036.01,539.07 1038.97,542.62 1041.92,548.10 1044.85,553.58 1047.80,559.05 1050.75,564.54 1053.69,570.02 1056.64,575.50 1059.59,579.07 1062.52,582.63 1065.47,586.20 1068.43,589.76 1071.36,593.33 1074.31,596.89" fill="none" stroke="#000000" stroke-width="3"/>
<line x1="142" y1="100" x2="178" y2="100" stroke="#000000" stroke-width="4"/>
<text x="188" y="105" font-family="Arial" font-size="18" fill="black">vorticity:1</text>
</svg>