<svg xmlns="http://www.w3.org/2000/svg" width="1200" height="820" viewBox="0 0 1200 820">
<rect width="100%" height="100%" fill="white"/>
<text x="600.0" y="36" text-anchor="middle" font-family="Arial" font-size="24" fill="black">profile_diagonal_supply_return: U:0</text>
<line x1="120.00" y1="75" x2="120.00" y2="705" stroke="#dddddd" stroke-width="1"/>
<text x="120.00" y="737" text-anchor="middle" font-family="Arial" font-size="16" fill="black">-0.729</text>
<line x1="376.25" y1="75" x2="376.25" y2="705" stroke="#dddddd" stroke-width="1"/>
<text x="376.25" y="737" text-anchor="middle" font-family="Arial" font-size="16" fill="black">1.913</text>
<line x1="632.50" y1="75" x2="632.50" y2="705" stroke="#dddddd" stroke-width="1"/>
<text x="632.50" y="737" text-anchor="middle" font-family="Arial" font-size="16" fill="black">4.555</text>
<line x1="888.75" y1="75" x2="888.75" y2="705" stroke="#dddddd" stroke-width="1"/>
<text x="888.75" y="737" text-anchor="middle" font-family="Arial" font-size="16" fill="black">7.197</text>
<line x1="1145.00" y1="75" x2="1145.00" y2="705" stroke="#dddddd" stroke-width="1"/>
<text x="1145.00" y="737" text-anchor="middle" font-family="Arial" font-size="16" fill="black">9.839</text>
<line x1="120" y1="705.00" x2="1145" y2="705.00" stroke="#dddddd" stroke-width="1"/>
<text x="104" y="710.00" text-anchor="end" font-family="Arial" font-size="16" fill="black">-0.204</text>
<line x1="120" y1="547.50" x2="1145" y2="547.50" stroke="#dddddd" stroke-width="1"/>
<text x="104" y="552.50" text-anchor="end" font-family="Arial" font-size="16" fill="black">-0.084</text>
<line x1="120" y1="390.00" x2="1145" y2="390.00" stroke="#dddddd" stroke-width="1"/>
<text x="104" y="395.00" text-anchor="end" font-family="Arial" font-size="16" fill="black">0.036</text>
<line x1="120" y1="232.50" x2="1145" y2="232.50" stroke="#dddddd" stroke-width="1"/>
<text x="104" y="237.50" text-anchor="end" font-family="Arial" font-size="16" fill="black">0.156</text>
<line x1="120" y1="75.00" x2="1145" y2="75.00" stroke="#dddddd" stroke-width="1"/>
<text x="104" y="80.00" text-anchor="end" font-family="Arial" font-size="16" fill="black">0.276</text>
<rect x="120" y="75" width="1025" height="630" fill="none" stroke="black" stroke-width="2"/>
<text x="632.5" y="785" text-anchor="middle" font-family="Arial" font-size="20" fill="black">distance along sample line [m]</text>
<text x="34" y="390.0" transform="rotate(-90 34 390.0)" text-anchor="middle" font-family="Arial" font-size="20" fill="black">U:0 [SI]</text>
<polyline points="190.69,624.27 193.64,628.52 196.58,632.44 199.53,636.02 202.47,639.25 205.42,644.56 208.36,650.42 211.31,655.55 214.25,660.33 217.20,661.55 220.14,658.40 223.09,652.07 226.03,645.66 228.98,637.92 231.93,624.51 234.87,611.54 237.82,599.02 240.76,586.94 243.71,573.06 246.65,559.30 249.60,546.20 252.54,535.05 255.49,523.59 258.43,512.07 261.38,501.14 264.32,490.57 267.27,480.28 270.22,469.87 273.16,460.01 276.11,450.69 279.05,441.92 282.00,433.42 284.94,425.32 287.88,417.60 290.83,410.26 293.78,403.02 296.73,396.03 299.67,389.16 302.62,382.60 305.57,376.31 308.50,370.25 311.45,364.57 314.40,359.10 317.34,353.62 320.29,348.46 323.24,343.43 326.18,338.53 329.12,333.75 332.07,329.40 335.01,324.95 337.96,320.51 340.91,315.81 343.85,311.32 346.80,306.96 349.74,302.50 352.68,297.87 355.63,293.23 358.58,288.75 361.53,284.08 364.47,279.20 367.42,274.14 370.36,269.12 373.30,263.81 376.25,258.22 379.20,252.35 382.14,246.35 385.09,240.12 388.04,234.55 390.97,228.64 393.92,222.41 396.87,215.87 399.81,208.48 402.76,200.75 405.71,194.53 408.65,188.00 411.59,181.18 414.54,174.07 417.48,166.68 420.43,158.93 423.38,154.00 426.32,148.92 429.27,143.52 432.21,138.01 435.16,132.43 438.10,126.80 441.05,125.35 444.00,123.93 446.94,122.58 449.89,121.23 452.84,119.85 455.77,118.45 458.72,120.22 461.67,121.78 464.61,123.14 467.56,124.32 470.51,125.54 473.45,126.68 476.39,129.06 479.34,131.65 482.28,134.73 485.23,138.46 488.18,142.65 491.12,147.14 494.07,154.97 497.01,163.54 499.96,172.28 502.90,181.09 505.85,189.95 508.80,198.73 511.74,207.74 514.69,216.05 517.63,223.33 520.57,229.77 523.52,235.32 526.47,240.16 529.41,242.84 532.36,244.83 535.31,246.13 538.24,246.80 541.19,246.86 544.14,246.31 547.08,245.76 550.03,245.23 552.98,244.69 555.92,244.16 558.86,244.52 561.81,245.29 564.76,245.87 567.70,246.58 570.65,248.06 573.60,250.58 576.54,255.03 579.49,259.86 582.43,264.72 585.37,271.44 588.32,278.47 591.27,285.81 594.21,293.48 597.16,303.05 600.11,311.82 603.04,320.78 605.99,331.40 608.94,343.03 611.88,355.39 614.83,367.84 617.78,378.25 620.72,388.82 623.66,399.85 626.61,410.81 629.55,421.71 632.50,432.56 635.45,441.70 638.40,450.74 641.34,459.68 644.28,468.53 647.23,476.80 650.17,484.80 653.12,491.60 656.07,498.52 659.01,504.87 661.96,510.29 664.90,515.00 667.84,519.48 670.79,522.95 673.74,523.99 676.68,524.66 679.63,524.96 682.58,524.87 685.51,522.35 688.46,519.02 691.41,515.40 694.35,511.24 697.30,506.10 700.25,500.29 703.20,494.43 706.14,488.84 709.08,483.21 712.03,477.46 714.97,471.86 717.92,466.39 720.87,461.05 723.81,456.68 726.76,452.52 729.70,448.55 732.64,444.76 735.59,441.34 738.54,438.16 741.48,435.82 744.43,433.56 747.38,431.52 750.31,429.76 753.26,428.59 756.21,427.55 759.15,427.17 762.10,427.08 765.05,427.06 767.99,427.11 770.93,427.20 773.88,427.40 776.83,428.00 779.77,428.64 782.72,430.33 785.67,431.98 788.61,433.58 791.55,435.19 794.50,437.09 797.44,438.89 800.39,440.43 803.34,441.96 806.28,443.46 809.23,444.93 812.17,447.25 815.11,449.52 818.06,451.73 821.01,453.88 823.95,455.48 826.90,456.83 829.85,458.06 832.79,459.24 835.73,459.93 838.68,460.03 841.63,461.02 844.57,461.89 847.52,461.91 850.47,460.69 853.41,459.38 856.35,458.00 859.30,456.56 862.24,453.90 865.19,450.22 868.14,446.64 871.08,443.73 874.03,440.21 876.97,436.31 879.91,432.55 882.86,428.51 885.81,424.65 888.75,420.83 891.70,417.43 894.65,414.46 897.58,411.91 900.53,409.93 903.48,408.30 906.43,407.01 909.37,406.05 912.32,405.73 915.27,405.75 918.20,406.10 921.15,406.64 924.10,407.48 927.04,408.56 929.99,409.03 932.94,409.47 935.88,409.97 938.82,410.49 941.77,410.92 944.71,411.29 947.66,411.59 950.61,411.93 953.55,412.53 956.50,413.13 959.44,413.07 962.38,413.25 965.33,413.68 968.28,414.20 971.22,415.53 974.17,417.25 977.12,419.84 980.06,422.80 983.00,426.15 985.95,429.94 988.90,435.87 991.84,442.74 994.79,450.68 997.74,459.81 1000.68,469.54 1003.62,480.21 1006.57,493.03 1009.51,506.73 1012.46,517.95 1015.41,524.62 1018.35,532.12 1021.30,538.62 1024.24,542.38 1027.18,541.48 1030.13,538.91 1033.08,534.57 1036.02,528.38 1038.97,525.45 1041.92,520.19 1044.86,514.26 1047.80,507.75 1050.75,501.46 1053.70,495.26 1056.64,488.49 1059.59,479.87 1062.54,472.60 1065.47,469.05 1068.42,465.46 1071.37,461.83 1074.31,458.16" fill="none" stroke="#000000" stroke-width="3"/>
<line x1="142" y1="100" x2="178" y2="100" stroke="#000000" stroke-width="4"/>
<text x="188" y="105" font-family="Arial" font-size="18" fill="black">U:0</text>
</svg>