<svg xmlns="http://www.w3.org/2000/svg" width="1200" height="820" viewBox="0 0 1200 820">
<rect width="100%" height="100%" fill="white"/>
<text x="600.0" y="36" text-anchor="middle" font-family="Arial" font-size="24" fill="black">profile_near_ceiling_x: epsilon</text>
<line x1="120.00" y1="75" x2="120.00" y2="705" stroke="#dddddd" stroke-width="1"/>
<text x="120.00" y="737" text-anchor="middle" font-family="Arial" font-size="16" fill="black">-0.560</text>
<line x1="376.25" y1="75" x2="376.25" y2="705" stroke="#dddddd" stroke-width="1"/>
<text x="376.25" y="737" text-anchor="middle" font-family="Arial" font-size="16" fill="black">1.470</text>
<line x1="632.50" y1="75" x2="632.50" y2="705" stroke="#dddddd" stroke-width="1"/>
<text x="632.50" y="737" text-anchor="middle" font-family="Arial" font-size="16" fill="black">3.500</text>
<line x1="888.75" y1="75" x2="888.75" y2="705" stroke="#dddddd" stroke-width="1"/>
<text x="888.75" y="737" text-anchor="middle" font-family="Arial" font-size="16" fill="black">5.530</text>
<line x1="1145.00" y1="75" x2="1145.00" y2="705" stroke="#dddddd" stroke-width="1"/>
<text x="1145.00" y="737" text-anchor="middle" font-family="Arial" font-size="16" fill="black">7.560</text>
<line x1="120" y1="705.00" x2="1145" y2="705.00" stroke="#dddddd" stroke-width="1"/>
<text x="104" y="710.00" text-anchor="end" font-family="Arial" font-size="16" fill="black">4.49e-04</text>
<line x1="120" y1="547.50" x2="1145" y2="547.50" stroke="#dddddd" stroke-width="1"/>
<text x="104" y="552.50" text-anchor="end" font-family="Arial" font-size="16" fill="black">0.002</text>
<line x1="120" y1="390.00" x2="1145" y2="390.00" stroke="#dddddd" stroke-width="1"/>
<text x="104" y="395.00" text-anchor="end" font-family="Arial" font-size="16" fill="black">0.003</text>
<line x1="120" y1="232.50" x2="1145" y2="232.50" stroke="#dddddd" stroke-width="1"/>
<text x="104" y="237.50" text-anchor="end" font-family="Arial" font-size="16" fill="black">0.004</text>
<line x1="120" y1="75.00" x2="1145" y2="75.00" stroke="#dddddd" stroke-width="1"/>
<text x="104" y="80.00" text-anchor="end" font-family="Arial" font-size="16" fill="black">0.005</text>
<rect x="120" y="75" width="1025" height="630" fill="none" stroke="black" stroke-width="2"/>
<text x="632.5" y="785" text-anchor="middle" font-family="Arial" font-size="20" fill="black">x coordinate [m]</text>
<text x="34" y="390.0" transform="rotate(-90 34 390.0)" text-anchor="middle" font-family="Arial" font-size="20" fill="black">epsilon [m2/s3]</text>
<polyline points="190.69,661.55 193.64,659.56 196.58,657.58 199.53,655.59 202.47,653.60 205.42,649.76 208.36,645.19 211.31,640.61 214.25,636.03 217.20,631.52 220.14,627.09 223.09,622.67 226.03,618.25 228.98,614.02 231.93,611.00 234.87,607.98 237.82,604.96 240.76,601.95 243.71,599.99 246.65,598.22 249.60,596.46 252.54,594.69 255.49,592.99 258.43,591.32 261.38,589.67 264.32,588.02 267.27,585.23 270.22,579.62 273.16,574.02 276.11,568.41 279.05,562.82 282.00,551.47 284.94,540.13 287.89,528.77 290.83,517.43 293.78,505.40 296.72,493.11 299.67,480.82 302.62,468.53 305.56,457.48 308.51,448.06 311.45,438.65 314.40,429.25 317.34,420.19 320.29,413.31 323.23,406.41 326.17,399.52 329.13,392.64 332.07,388.01 335.01,383.77 337.96,379.53 340.91,375.29 343.85,373.31 346.80,373.02 349.74,372.73 352.68,372.44 355.64,373.45 358.58,377.69 361.52,381.93 364.47,386.18 367.41,390.42 370.35,398.33 373.31,406.24 376.25,414.16 379.19,422.06 382.15,430.18 385.09,438.39 388.03,446.60 390.98,454.80 393.92,460.94 396.86,464.32 399.82,467.68 402.76,471.06 405.70,473.50 408.65,470.36 411.59,467.22 414.54,464.07 417.49,460.93 420.43,454.76 423.37,448.09 426.33,441.41 429.27,434.74 432.21,427.70 435.16,420.36 438.10,413.05 441.04,405.73 444.00,398.53 446.94,391.60 449.88,384.68 452.83,377.75 455.78,370.82 458.72,364.48 461.67,358.14 464.61,351.79 467.55,345.45 470.51,339.50 473.45,333.71 476.39,327.93 479.34,322.14 482.28,316.54 485.23,311.24 488.18,305.92 491.12,300.60 494.06,295.34 497.02,290.43 499.96,285.51 502.90,280.60 505.85,275.68 508.79,271.11 511.73,266.58 514.69,262.07 517.63,257.56 520.57,253.32 523.52,249.26 526.47,245.21 529.41,241.16 532.36,237.27 535.30,233.77 538.24,230.27 541.20,226.78 544.14,223.27 547.08,220.44 550.03,217.60 552.97,214.77 555.92,211.93 558.87,209.65 561.81,207.58 564.75,205.52 567.71,203.45 570.65,201.77 573.59,200.58 576.54,199.40 579.48,198.21 582.42,197.14 585.38,196.90 588.32,196.64 591.26,196.40 594.21,196.14 597.16,196.74 600.10,197.47 603.05,198.22 605.99,198.95 608.93,200.22 611.89,201.89 614.83,203.54 617.77,205.21 620.72,207.02 623.66,209.26 626.60,211.49 629.56,213.72 632.50,215.94 635.44,218.29 638.40,220.62 641.34,222.96 644.28,225.29 647.23,227.36 650.17,229.30 653.11,231.25 656.07,233.21 659.01,234.82 661.95,235.95 664.90,237.10 667.84,238.25 670.79,239.24 673.74,239.37 676.68,239.52 679.62,239.65 682.58,239.78 685.52,239.06 688.46,238.19 691.41,237.35 694.35,236.48 697.29,235.16 700.25,233.48 703.19,231.81 706.13,230.15 709.08,228.31 712.03,226.05 714.97,223.79 717.92,221.54 720.86,219.28 723.80,216.65 726.76,214.03 729.70,211.40 732.64,208.79 735.59,206.03 738.53,203.21 741.48,200.41 744.43,197.59 747.37,194.76 750.31,191.91 753.27,189.07 756.21,186.21 759.15,183.37 762.10,180.60 765.04,177.84 767.98,175.07 770.94,172.29 773.88,169.69 776.82,167.10 779.77,164.52 782.72,161.93 785.66,159.48 788.61,157.16 791.55,154.83 794.49,152.50 797.45,150.26 800.39,148.22 803.33,146.19 806.28,144.15 809.22,142.12 812.17,140.41 815.12,138.69 818.06,136.98 821.00,135.27 823.96,133.77 826.90,132.38 829.84,130.98 832.79,129.59 835.73,128.32 838.67,127.24 841.63,126.17 844.57,125.09 847.51,124.05 850.46,123.28 853.41,122.52 856.35,121.74 859.30,120.98 862.24,120.47 865.18,120.03 868.14,119.57 871.08,119.11 874.02,118.85 876.97,118.72 879.91,118.61 882.85,118.48 885.81,118.45 888.75,118.65 891.69,118.85 894.65,119.07 897.59,119.27 900.53,120.66 903.48,122.06 906.42,123.45 909.36,124.84 912.32,128.22 915.26,132.39 918.20,136.56 921.15,140.73 924.09,146.19 927.04,153.36 929.99,160.53 932.93,167.71 935.87,175.15 938.83,184.26 941.77,193.38 944.71,202.49 947.66,211.59 950.60,221.32 953.54,231.17 956.50,241.00 959.44,250.83 962.38,260.47 965.33,269.96 968.28,279.45 971.22,288.93 974.17,298.18 977.11,306.83 980.05,315.47 983.01,324.11 985.95,332.74 988.89,340.61 991.84,348.45 994.78,356.32 997.73,364.18 1000.68,372.82 1003.62,381.76 1006.56,390.70 1009.52,399.65 1012.46,410.40 1015.40,423.57 1018.35,436.74 1021.29,449.90 1024.23,463.67 1027.19,481.12 1030.13,498.57 1033.07,516.02 1036.02,533.46 1038.97,550.56 1041.91,567.59 1044.86,584.63 1047.80,601.64 1050.74,613.80 1053.70,622.28 1056.64,630.78 1059.58,639.27 1062.53,645.59 1065.47,646.50 1068.42,647.41 1071.37,648.33 1074.31,649.24" fill="none" stroke="#000000" stroke-width="3"/>
<line x1="142" y1="100" x2="178" y2="100" stroke="#000000" stroke-width="4"/>
<text x="188" y="105" font-family="Arial" font-size="18" fill="black">epsilon</text>
</svg>