<svg xmlns="http://www.w3.org/2000/svg" width="1200" height="820" viewBox="0 0 1200 820">
<rect width="100%" height="100%" fill="white"/>
<text x="600.0" y="36" text-anchor="middle" font-family="Arial" font-size="24" fill="black">profile_center_z: U:2</text>
<line x1="120.00" y1="75" x2="120.00" y2="705" stroke="#dddddd" stroke-width="1"/>
<text x="120.00" y="737" text-anchor="middle" font-family="Arial" font-size="16" fill="black">-0.240</text>
<line x1="376.25" y1="75" x2="376.25" y2="705" stroke="#dddddd" stroke-width="1"/>
<text x="376.25" y="737" text-anchor="middle" font-family="Arial" font-size="16" fill="black">0.630</text>
<line x1="632.50" y1="75" x2="632.50" y2="705" stroke="#dddddd" stroke-width="1"/>
<text x="632.50" y="737" text-anchor="middle" font-family="Arial" font-size="16" fill="black">1.500</text>
<line x1="888.75" y1="75" x2="888.75" y2="705" stroke="#dddddd" stroke-width="1"/>
<text x="888.75" y="737" text-anchor="middle" font-family="Arial" font-size="16" fill="black">2.370</text>
<line x1="1145.00" y1="75" x2="1145.00" y2="705" stroke="#dddddd" stroke-width="1"/>
<text x="1145.00" y="737" text-anchor="middle" font-family="Arial" font-size="16" fill="black">3.240</text>
<line x1="120" y1="705.00" x2="1145" y2="705.00" stroke="#dddddd" stroke-width="1"/>
<text x="104" y="710.00" text-anchor="end" font-family="Arial" font-size="16" fill="black">-0.242</text>
<line x1="120" y1="547.50" x2="1145" y2="547.50" stroke="#dddddd" stroke-width="1"/>
<text x="104" y="552.50" text-anchor="end" font-family="Arial" font-size="16" fill="black">0.022</text>
<line x1="120" y1="390.00" x2="1145" y2="390.00" stroke="#dddddd" stroke-width="1"/>
<text x="104" y="395.00" text-anchor="end" font-family="Arial" font-size="16" fill="black">0.287</text>
<line x1="120" y1="232.50" x2="1145" y2="232.50" stroke="#dddddd" stroke-width="1"/>
<text x="104" y="237.50" text-anchor="end" font-family="Arial" font-size="16" fill="black">0.551</text>
<line x1="120" y1="75.00" x2="1145" y2="75.00" stroke="#dddddd" stroke-width="1"/>
<text x="104" y="80.00" text-anchor="end" font-family="Arial" font-size="16" fill="black">0.816</text>
<rect x="120" y="75" width="1025" height="630" fill="none" stroke="black" stroke-width="2"/>
<text x="632.5" y="785" text-anchor="middle" font-family="Arial" font-size="20" fill="black">z coordinate [m]</text>
<text x="34" y="390.0" transform="rotate(-90 34 390.0)" text-anchor="middle" font-family="Arial" font-size="20" fill="black">U:2 [SI]</text>
<polyline points="190.69,118.45 193.64,119.17 196.58,119.88 199.53,120.60 202.47,121.32 205.42,122.04 208.36,122.75 211.31,123.47 214.25,124.19 217.20,124.91 220.14,125.62 223.09,127.55 226.03,129.48 228.98,131.40 231.93,133.33 234.87,135.25 237.82,137.18 240.76,139.10 243.71,141.03 246.65,142.96 249.60,144.88 252.54,147.71 255.49,150.55 258.43,153.38 261.38,156.21 264.32,159.05 267.27,161.88 270.22,164.72 273.16,167.55 276.11,170.39 279.05,173.22 282.00,176.92 284.94,180.61 287.89,184.32 290.83,188.02 293.78,191.71 296.72,195.42 299.67,199.11 302.61,202.81 305.56,206.51 308.51,210.21 311.45,214.86 314.40,219.51 317.34,224.16 320.29,228.81 323.23,233.46 326.18,238.11 329.12,242.75 332.07,247.40 335.01,252.05 337.96,256.70 340.91,262.35 343.85,268.00 346.80,273.65 349.74,279.30 352.69,284.95 355.63,290.60 358.58,296.25 361.52,301.90 364.47,307.55 367.41,313.20 370.36,319.78 373.30,326.35 376.25,332.92 379.20,339.49 382.14,346.07 385.09,352.64 388.03,359.21 390.98,365.78 393.92,372.35 396.87,378.93 399.81,386.42 402.76,393.91 405.70,401.40 408.65,408.89 411.59,416.38 414.54,423.87 417.49,431.36 420.43,438.86 423.38,446.35 426.32,453.84 429.27,462.63 432.21,471.43 435.16,480.22 438.10,489.02 441.05,497.81 443.99,506.60 446.94,515.40 449.89,524.19 452.83,532.99 455.78,541.78 458.72,548.68 461.67,555.59 464.61,562.49 467.56,569.39 470.50,576.29 473.45,583.20 476.39,590.10 479.34,597.00 482.28,603.90 485.23,610.81 488.18,614.07 491.12,617.34 494.07,620.61 497.01,623.87 499.96,627.14 502.90,630.41 505.85,633.67 508.79,636.94 511.74,640.21 514.68,643.48 517.63,645.05 520.57,646.64 523.52,648.21 526.47,649.79 529.41,651.37 532.36,652.95 535.30,654.53 538.25,656.11 541.19,657.69 544.14,659.27 547.08,659.50 550.03,659.72 552.97,659.96 555.92,660.18 558.86,660.41 561.81,660.64 564.76,660.87 567.70,661.10 570.65,661.33 573.59,661.55 576.54,660.81 579.48,660.06 582.43,659.31 585.37,658.56 588.32,657.82 591.26,657.07 594.21,656.32 597.16,655.57 600.10,654.83 603.05,654.08 605.99,652.75 608.94,651.42 611.88,650.08 614.83,648.76 617.77,647.42 620.72,646.09 623.66,644.76 626.61,643.43 629.55,642.09 632.50,640.76 635.45,639.13 638.39,637.51 641.34,635.88 644.28,634.25 647.23,632.63 650.17,631.00 653.12,629.38 656.06,627.74 659.01,626.12 661.95,624.49 664.90,622.81 667.84,621.14 670.79,619.46 673.74,617.78 676.68,616.10 679.63,614.42 682.57,612.74 685.52,611.06 688.46,609.38 691.41,607.71 694.35,606.17 697.30,604.64 700.24,603.10 703.19,601.57 706.14,600.03 709.08,598.49 712.03,596.96 714.97,595.42 717.92,593.89 720.86,592.35 723.81,591.09 726.75,589.83 729.70,588.56 732.64,587.30 735.59,586.03 738.53,584.77 741.48,583.50 744.43,582.24 747.37,580.98 750.32,579.71 753.26,578.77 756.21,577.83 759.15,576.90 762.10,575.96 765.04,575.02 767.99,574.08 770.93,573.14 773.88,572.20 776.82,571.27 779.77,570.33 782.72,569.70 785.66,569.07 788.61,568.45 791.55,567.82 794.50,567.20 797.44,566.57 800.39,565.95 803.33,565.32 806.28,564.69 809.22,564.07 812.17,563.70 815.11,563.33 818.06,562.96 821.01,562.58 823.95,562.21 826.90,561.84 829.84,561.47 832.79,561.10 835.73,560.73 838.68,560.36 841.62,560.17 844.57,559.97 847.51,559.78 850.46,559.59 853.41,559.39 856.35,559.20 859.30,559.01 862.24,558.82 865.19,558.62 868.13,558.43 871.08,558.33 874.02,558.23 876.97,558.12 879.91,558.02 882.86,557.92 885.80,557.82 888.75,557.72 891.70,557.61 894.64,557.51 897.59,557.41 900.53,557.34 903.48,557.27 906.42,557.21 909.37,557.14 912.31,557.07 915.26,557.00 918.20,556.93 921.15,556.86 924.09,556.80 927.04,556.73 929.99,556.70 932.93,556.67 935.88,556.64 938.82,556.61 941.77,556.58 944.71,556.56 947.66,556.53 950.60,556.50 953.55,556.47 956.49,556.44 959.44,556.48 962.39,556.52 965.33,556.55 968.28,556.59 971.22,556.63 974.17,556.66 977.11,556.70 980.06,556.74 983.00,556.77 985.95,556.81 988.89,556.92 991.84,557.02 994.78,557.13 997.73,557.24 1000.68,557.35 1003.62,557.45 1006.57,557.56 1009.51,557.67 1012.46,557.78 1015.40,557.88 1018.35,558.02 1021.29,558.15 1024.24,558.28 1027.18,558.41 1030.13,558.55 1033.07,558.68 1036.02,558.81 1038.97,558.94 1041.91,559.08 1044.86,559.21 1047.80,559.27 1050.75,559.33 1053.69,559.39 1056.64,559.45 1059.58,559.52 1062.53,559.58 1065.47,559.64 1068.42,559.70 1071.36,559.76 1074.31,559.82" fill="none" stroke="#000000" stroke-width="3"/>
<line x1="142" y1="100" x2="178" y2="100" stroke="#000000" stroke-width="4"/>
<text x="188" y="105" font-family="Arial" font-size="18" fill="black">U:2</text>
</svg>