<svg xmlns="http://www.w3.org/2000/svg" width="1200" height="820" viewBox="0 0 1200 820">
<rect width="100%" height="100%" fill="white"/>
<text x="600.0" y="36" text-anchor="middle" font-family="Arial" font-size="24" fill="black">profile_center_y: T</text>
<line x1="120.00" y1="75" x2="120.00" y2="705" stroke="#dddddd" stroke-width="1"/>
<text x="120.00" y="737" text-anchor="middle" font-family="Arial" font-size="16" fill="black">-0.400</text>
<line x1="376.25" y1="75" x2="376.25" y2="705" stroke="#dddddd" stroke-width="1"/>
<text x="376.25" y="737" text-anchor="middle" font-family="Arial" font-size="16" fill="black">1.050</text>
<line x1="632.50" y1="75" x2="632.50" y2="705" stroke="#dddddd" stroke-width="1"/>
<text x="632.50" y="737" text-anchor="middle" font-family="Arial" font-size="16" fill="black">2.500</text>
<line x1="888.75" y1="75" x2="888.75" y2="705" stroke="#dddddd" stroke-width="1"/>
<text x="888.75" y="737" text-anchor="middle" font-family="Arial" font-size="16" fill="black">3.950</text>
<line x1="1145.00" y1="75" x2="1145.00" y2="705" stroke="#dddddd" stroke-width="1"/>
<text x="1145.00" y="737" text-anchor="middle" font-family="Arial" font-size="16" fill="black">5.400</text>
<line x1="120" y1="705.00" x2="1145" y2="705.00" stroke="#dddddd" stroke-width="1"/>
<text x="104" y="710.00" text-anchor="end" font-family="Arial" font-size="16" fill="black">310.9</text>
<line x1="120" y1="547.50" x2="1145" y2="547.50" stroke="#dddddd" stroke-width="1"/>
<text x="104" y="552.50" text-anchor="end" font-family="Arial" font-size="16" fill="black">312.4</text>
<line x1="120" y1="390.00" x2="1145" y2="390.00" stroke="#dddddd" stroke-width="1"/>
<text x="104" y="395.00" text-anchor="end" font-family="Arial" font-size="16" fill="black">313.9</text>
<line x1="120" y1="232.50" x2="1145" y2="232.50" stroke="#dddddd" stroke-width="1"/>
<text x="104" y="237.50" text-anchor="end" font-family="Arial" font-size="16" fill="black">315.5</text>
<line x1="120" y1="75.00" x2="1145" y2="75.00" stroke="#dddddd" stroke-width="1"/>
<text x="104" y="80.00" text-anchor="end" font-family="Arial" font-size="16" fill="black">317.0</text>
<rect x="120" y="75" width="1025" height="630" fill="none" stroke="black" stroke-width="2"/>
<text x="632.5" y="785" text-anchor="middle" font-family="Arial" font-size="20" fill="black">y coordinate [m]</text>
<text x="34" y="390.0" transform="rotate(-90 34 390.0)" text-anchor="middle" font-family="Arial" font-size="20" fill="black">T [K]</text>
<polyline points="190.69,634.81 193.64,631.72 196.58,628.64 199.53,626.58 202.47,623.49 205.42,620.41 208.36,617.32 211.31,612.18 214.25,607.04 217.20,601.89 220.14,595.72 223.09,590.58 226.03,585.43 228.98,580.29 231.92,576.18 234.87,571.03 237.82,566.92 240.76,561.78 243.71,557.66 246.65,553.55 249.60,550.46 252.54,546.35 255.49,542.23 258.43,539.15 261.38,535.03 264.33,532.98 267.27,529.89 270.22,526.80 273.16,524.75 276.11,521.66 279.05,518.58 282.00,516.52 284.94,515.49 287.89,513.43 290.83,511.38 293.78,509.32 296.72,507.26 299.67,506.23 302.61,504.18 305.56,502.12 308.51,501.09 311.45,499.03 314.40,498.00 317.34,495.95 320.29,492.86 323.23,490.80 326.18,488.75 329.12,486.69 332.07,484.63 335.01,479.49 337.96,474.35 340.91,469.20 343.85,465.09 346.80,459.95 349.74,454.80 352.69,441.43 355.63,429.09 358.58,415.72 361.52,403.37 364.47,390.00 367.41,377.66 370.37,366.34 373.30,356.06 376.25,344.74 379.20,334.46 382.13,323.14 385.09,311.83 388.04,311.83 390.97,310.80 393.92,309.77 396.87,309.77 399.81,308.74 402.76,307.71 405.71,309.77 408.64,310.80 411.59,312.85 414.55,313.88 417.48,315.94 420.43,316.97 423.38,318.00 426.32,318.00 429.27,319.03 432.22,319.03 435.15,320.05 438.10,320.05 441.05,319.03 443.99,316.97 446.94,315.94 449.89,313.88 452.82,311.83 455.78,310.80 458.73,305.65 461.66,301.54 464.61,297.43 467.56,293.31 470.50,288.17 473.45,284.05 476.40,277.88 479.33,270.68 482.28,264.51 485.24,257.31 488.17,251.14 491.12,243.94 494.07,237.77 497.01,230.57 499.96,224.39 502.91,217.19 505.84,209.99 508.79,203.82 511.74,201.77 514.68,198.68 517.63,196.62 520.58,194.57 523.51,191.48 526.47,189.42 529.42,198.68 532.35,206.91 535.30,216.17 538.25,224.39 541.19,233.65 544.14,242.91 547.09,256.28 550.02,268.62 552.97,282.00 555.93,295.37 558.86,308.74 561.81,322.11 564.76,331.37 567.70,340.63 570.65,348.86 573.60,358.11 576.53,367.37 579.48,376.63 582.43,383.83 585.37,391.03 588.32,398.23 591.27,406.46 594.20,413.66 597.16,420.86 600.11,426.00 603.04,432.17 605.99,437.32 608.94,443.49 611.88,448.63 614.83,453.77 617.78,456.86 620.71,459.95 623.66,463.03 626.62,465.09 629.55,468.17 632.50,471.26 635.45,470.23 638.38,469.20 641.34,469.20 644.29,468.17 647.22,467.15 650.17,467.15 653.12,462.00 656.06,456.86 659.01,452.74 661.96,447.60 664.89,442.46 667.84,438.34 670.80,429.09 673.73,419.83 676.68,410.57 679.63,401.31 682.57,392.06 685.52,382.80 688.47,369.43 691.40,356.06 694.35,341.66 697.30,328.28 700.24,313.88 703.19,300.51 706.14,283.03 709.07,264.51 712.03,247.02 714.98,228.51 717.91,211.02 720.86,192.51 723.81,181.19 726.75,168.85 729.70,157.54 732.65,146.22 735.58,133.88 738.53,122.56 741.49,121.53 744.42,121.53 747.37,120.51 750.32,119.48 753.26,119.48 756.21,118.45 759.16,121.53 762.09,124.62 765.04,126.68 767.99,129.76 770.93,132.85 773.88,134.91 776.83,136.96 779.76,139.02 782.72,141.08 785.67,143.13 788.60,145.19 791.55,147.25 794.50,148.28 797.44,148.28 800.39,148.28 803.34,148.28 806.27,149.31 809.22,149.31 812.18,149.31 815.11,148.28 818.06,148.28 821.01,148.28 823.95,147.25 826.90,147.25 829.85,148.28 832.78,149.31 835.73,150.34 838.68,151.36 841.62,152.39 844.57,153.42 847.52,156.51 850.45,160.62 853.41,164.74 856.36,167.82 859.29,171.94 862.24,176.05 865.19,183.25 868.13,189.42 871.08,196.62 874.03,203.82 876.96,211.02 879.91,218.22 882.87,228.51 885.80,238.80 888.75,249.08 891.70,259.37 894.63,269.65 897.59,279.94 900.54,287.14 903.47,294.34 906.42,300.51 909.37,307.71 912.31,314.91 915.26,321.08 918.21,323.14 921.14,324.17 924.09,325.20 927.05,326.23 929.98,327.26 932.93,329.31 935.88,330.34 938.82,331.37 941.77,332.40 944.72,333.43 947.65,334.46 950.60,335.48 953.55,338.57 956.49,341.66 959.44,343.71 962.39,346.80 965.32,348.86 968.28,351.94 971.23,356.06 974.16,361.20 977.11,365.31 980.06,370.46 983.00,374.57 985.95,378.69 988.90,385.89 991.83,392.06 994.78,399.26 997.74,405.43 1000.67,412.63 1003.62,418.80 1006.57,428.06 1009.51,436.29 1012.46,445.54 1015.41,453.77 1018.34,462.00 1021.29,471.26 1024.24,481.55 1027.18,492.86 1030.13,504.18 1033.08,514.46 1036.01,525.78 1038.97,536.06 1041.92,549.43 1044.85,562.81 1047.80,576.18 1050.75,589.55 1053.69,602.92 1056.64,616.29 1059.59,624.52 1062.52,631.72 1065.47,638.92 1068.43,646.12 1071.36,653.32 1074.31,661.55" fill="none" stroke="#000000" stroke-width="3"/>
<line x1="142" y1="100" x2="178" y2="100" stroke="#000000" stroke-width="4"/>
<text x="188" y="105" font-family="Arial" font-size="18" fill="black">T</text>
</svg>