<svg xmlns="http://www.w3.org/2000/svg" width="1200" height="820" viewBox="0 0 1200 820">
<rect width="100%" height="100%" fill="white"/>
<text x="600.0" y="36" text-anchor="middle" font-family="Arial" font-size="24" fill="black">profile_center_x: U:1</text>
<line x1="120.00" y1="75" x2="120.00" y2="705" stroke="#dddddd" stroke-width="1"/>
<text x="120.00" y="737" text-anchor="middle" font-family="Arial" font-size="16" fill="black">-0.560</text>
<line x1="376.25" y1="75" x2="376.25" y2="705" stroke="#dddddd" stroke-width="1"/>
<text x="376.25" y="737" text-anchor="middle" font-family="Arial" font-size="16" fill="black">1.470</text>
<line x1="632.50" y1="75" x2="632.50" y2="705" stroke="#dddddd" stroke-width="1"/>
<text x="632.50" y="737" text-anchor="middle" font-family="Arial" font-size="16" fill="black">3.500</text>
<line x1="888.75" y1="75" x2="888.75" y2="705" stroke="#dddddd" stroke-width="1"/>
<text x="888.75" y="737" text-anchor="middle" font-family="Arial" font-size="16" fill="black">5.530</text>
<line x1="1145.00" y1="75" x2="1145.00" y2="705" stroke="#dddddd" stroke-width="1"/>
<text x="1145.00" y="737" text-anchor="middle" font-family="Arial" font-size="16" fill="black">7.560</text>
<line x1="120" y1="705.00" x2="1145" y2="705.00" stroke="#dddddd" stroke-width="1"/>
<text x="104" y="710.00" text-anchor="end" font-family="Arial" font-size="16" fill="black">-0.184</text>
<line x1="120" y1="547.50" x2="1145" y2="547.50" stroke="#dddddd" stroke-width="1"/>
<text x="104" y="552.50" text-anchor="end" font-family="Arial" font-size="16" fill="black">-0.088</text>
<line x1="120" y1="390.00" x2="1145" y2="390.00" stroke="#dddddd" stroke-width="1"/>
<text x="104" y="395.00" text-anchor="end" font-family="Arial" font-size="16" fill="black">0.007</text>
<line x1="120" y1="232.50" x2="1145" y2="232.50" stroke="#dddddd" stroke-width="1"/>
<text x="104" y="237.50" text-anchor="end" font-family="Arial" font-size="16" fill="black">0.103</text>
<line x1="120" y1="75.00" x2="1145" y2="75.00" stroke="#dddddd" stroke-width="1"/>
<text x="104" y="80.00" text-anchor="end" font-family="Arial" font-size="16" fill="black">0.198</text>
<rect x="120" y="75" width="1025" height="630" fill="none" stroke="black" stroke-width="2"/>
<text x="632.5" y="785" text-anchor="middle" font-family="Arial" font-size="20" fill="black">x coordinate [m]</text>
<text x="34" y="390.0" transform="rotate(-90 34 390.0)" text-anchor="middle" font-family="Arial" font-size="20" fill="black">U:1 [SI]</text>
<polyline points="190.69,188.68 193.64,190.53 196.58,192.36 199.53,194.20 202.47,196.05 205.42,198.94 208.36,202.27 211.31,205.58 214.25,208.92 217.20,211.75 220.14,213.96 223.09,216.19 226.03,218.40 228.98,220.43 231.93,221.32 234.87,222.23 237.82,223.13 240.76,224.02 243.71,224.35 246.65,224.59 249.60,224.80 252.54,225.03 255.49,225.38 258.43,225.82 261.38,226.27 264.32,226.71 267.27,227.45 270.22,228.94 273.16,230.41 276.11,231.88 279.05,233.36 282.00,236.41 284.94,239.48 287.89,242.54 290.83,245.60 293.78,249.86 296.72,254.61 299.67,259.36 302.62,264.11 305.56,269.36 308.51,275.28 311.45,281.21 314.40,287.13 317.34,293.10 320.29,299.29 323.23,305.49 326.17,311.69 329.13,317.89 332.07,323.54 335.01,329.10 337.96,334.66 340.91,340.22 343.85,345.07 346.80,349.38 349.74,353.68 352.68,357.99 355.64,361.90 358.58,364.83 361.52,367.75 364.47,370.68 367.41,373.61 370.35,375.45 373.31,377.30 376.25,379.15 379.19,381.00 382.15,382.44 385.09,383.73 388.03,385.01 390.98,386.30 393.92,387.53 396.86,388.69 399.82,389.84 402.76,391.00 405.70,392.16 408.65,393.35 411.59,394.54 414.54,395.72 417.49,396.91 420.43,397.95 423.37,398.96 426.33,399.98 429.27,400.99 432.21,401.66 435.16,402.06 438.10,402.46 441.04,402.87 444.00,402.99 446.94,402.40 449.88,401.81 452.83,401.22 455.78,400.62 458.72,399.04 461.67,397.46 464.61,395.88 467.55,394.29 470.51,392.29 473.45,390.13 476.39,387.97 479.34,385.80 482.28,383.62 485.23,381.41 488.18,379.19 491.12,376.98 494.06,374.83 497.02,373.00 499.96,371.18 502.90,369.35 505.85,367.53 508.79,366.26 511.73,365.09 514.69,363.92 517.63,362.75 520.57,362.02 523.52,361.61 526.47,361.20 529.41,360.79 532.36,360.59 535.30,360.91 538.24,361.22 541.20,361.54 544.14,361.86 547.08,362.78 550.03,363.69 552.97,364.61 555.92,365.52 558.87,366.75 561.81,368.10 564.75,369.45 567.71,370.80 570.65,372.29 573.59,373.95 576.54,375.61 579.48,377.27 582.42,378.98 585.38,380.94 588.32,382.89 591.26,384.85 594.21,386.81 597.16,389.15 600.10,391.56 603.05,393.96 605.99,396.37 608.93,399.18 611.89,402.31 614.83,405.43 617.77,408.55 620.72,411.96 623.66,416.09 626.60,420.22 629.56,424.35 632.50,428.47 635.44,433.69 638.40,438.90 641.34,444.11 644.28,449.32 647.23,455.15 650.17,461.23 653.11,467.32 656.07,473.40 659.01,479.74 661.95,486.41 664.90,493.07 667.84,499.74 670.79,506.45 673.74,513.43 676.68,520.41 679.62,527.39 682.58,534.37 685.52,541.37 688.46,548.37 691.41,555.37 694.35,562.37 697.29,569.17 700.25,575.83 703.19,582.50 706.13,589.16 709.08,595.61 712.03,601.55 714.97,607.49 717.92,613.41 720.86,619.34 723.80,624.19 726.76,629.03 729.70,633.88 732.64,638.71 735.59,642.55 738.53,646.00 741.48,649.45 744.43,652.89 747.37,655.53 750.31,657.13 753.27,658.71 756.21,660.30 759.15,661.55 762.10,660.78 765.04,660.00 767.98,659.21 770.94,658.43 773.88,655.60 776.82,652.40 779.77,649.21 782.72,646.01 785.66,641.69 788.61,636.55 791.55,631.38 794.49,626.24 797.45,620.70 800.39,614.21 803.33,607.72 806.28,601.23 809.22,594.75 812.17,587.41 815.12,580.07 818.06,572.73 821.00,565.40 823.96,557.72 826.90,549.90 829.84,542.07 832.79,534.25 835.73,526.49 838.67,518.82 841.63,511.14 844.57,503.46 847.51,495.94 850.46,489.33 853.41,482.71 856.35,476.10 859.30,469.49 862.24,464.49 865.18,459.76 868.14,455.03 871.08,450.30 874.02,446.90 876.97,444.50 879.91,442.09 882.85,439.69 885.81,438.02 888.75,438.17 891.69,438.32 894.65,438.47 897.59,438.63 900.53,441.28 903.48,443.92 906.42,446.57 909.36,449.22 912.32,452.89 915.26,456.96 918.20,461.04 921.15,465.11 924.09,468.82 927.04,472.04 929.99,475.27 932.93,478.50 935.87,481.25 938.83,481.15 941.77,481.05 944.71,480.95 947.66,480.86 950.60,476.65 953.54,471.76 956.50,466.87 959.44,461.98 962.38,454.31 965.33,444.54 968.28,434.79 971.22,425.02 974.17,414.20 977.11,400.71 980.05,387.21 983.01,373.72 985.95,360.23 988.89,345.06 991.84,329.89 994.78,314.72 997.73,299.55 1000.68,284.90 1003.62,270.46 1006.56,256.01 1009.52,241.57 1012.46,228.31 1015.40,216.62 1018.35,204.92 1021.29,193.23 1024.23,182.08 1027.19,174.16 1030.13,166.23 1033.07,158.31 1036.02,150.40 1038.97,145.38 1041.91,140.85 1044.86,136.31 1047.80,131.79 1050.74,128.64 1053.70,126.53 1056.64,124.42 1059.58,122.31 1062.53,120.66 1065.47,120.10 1068.42,119.55 1071.37,119.01 1074.31,118.45" fill="none" stroke="#000000" stroke-width="3"/>
<line x1="142" y1="100" x2="178" y2="100" stroke="#000000" stroke-width="4"/>
<text x="188" y="105" font-family="Arial" font-size="18" fill="black">U:1</text>
</svg>