<svg xmlns="http://www.w3.org/2000/svg" width="1200" height="820" viewBox="0 0 1200 820">
<rect width="100%" height="100%" fill="white"/>
<text x="600.0" y="36" text-anchor="middle" font-family="Arial" font-size="24" fill="black">profile_diagonal_supply_return: p_rgh</text>
<line x1="120.00" y1="75" x2="120.00" y2="705" stroke="#dddddd" stroke-width="1"/>
<text x="120.00" y="737" text-anchor="middle" font-family="Arial" font-size="16" fill="black">-0.729</text>
<line x1="376.25" y1="75" x2="376.25" y2="705" stroke="#dddddd" stroke-width="1"/>
<text x="376.25" y="737" text-anchor="middle" font-family="Arial" font-size="16" fill="black">1.913</text>
<line x1="632.50" y1="75" x2="632.50" y2="705" stroke="#dddddd" stroke-width="1"/>
<text x="632.50" y="737" text-anchor="middle" font-family="Arial" font-size="16" fill="black">4.555</text>
<line x1="888.75" y1="75" x2="888.75" y2="705" stroke="#dddddd" stroke-width="1"/>
<text x="888.75" y="737" text-anchor="middle" font-family="Arial" font-size="16" fill="black">7.197</text>
<line x1="1145.00" y1="75" x2="1145.00" y2="705" stroke="#dddddd" stroke-width="1"/>
<text x="1145.00" y="737" text-anchor="middle" font-family="Arial" font-size="16" fill="black">9.839</text>
<line x1="120" y1="705.00" x2="1145" y2="705.00" stroke="#dddddd" stroke-width="1"/>
<text x="104" y="710.00" text-anchor="end" font-family="Arial" font-size="16" fill="black">-0.055</text>
<line x1="120" y1="547.50" x2="1145" y2="547.50" stroke="#dddddd" stroke-width="1"/>
<text x="104" y="552.50" text-anchor="end" font-family="Arial" font-size="16" fill="black">0.117</text>
<line x1="120" y1="390.00" x2="1145" y2="390.00" stroke="#dddddd" stroke-width="1"/>
<text x="104" y="395.00" text-anchor="end" font-family="Arial" font-size="16" fill="black">0.290</text>
<line x1="120" y1="232.50" x2="1145" y2="232.50" stroke="#dddddd" stroke-width="1"/>
<text x="104" y="237.50" text-anchor="end" font-family="Arial" font-size="16" fill="black">0.462</text>
<line x1="120" y1="75.00" x2="1145" y2="75.00" stroke="#dddddd" stroke-width="1"/>
<text x="104" y="80.00" text-anchor="end" font-family="Arial" font-size="16" fill="black">0.634</text>
<rect x="120" y="75" width="1025" height="630" fill="none" stroke="black" stroke-width="2"/>
<text x="632.5" y="785" text-anchor="middle" font-family="Arial" font-size="20" fill="black">distance along sample line [m]</text>
<text x="34" y="390.0" transform="rotate(-90 34 390.0)" text-anchor="middle" font-family="Arial" font-size="20" fill="black">p_rgh [Pa]</text>
<polyline points="190.69,118.45 193.64,120.58 196.58,122.72 199.53,124.85 202.47,127.01 205.42,128.75 208.36,130.31 211.31,132.29 214.25,134.29 217.20,135.05 220.14,134.13 223.09,133.90 226.03,133.64 228.98,133.92 231.93,133.54 234.87,133.22 237.82,132.97 240.76,132.80 243.71,132.85 246.65,133.44 249.60,134.11 252.54,134.70 255.49,135.68 258.43,136.97 261.38,138.31 264.32,140.04 267.27,142.03 270.22,144.51 273.16,147.02 276.11,149.55 279.05,152.10 282.00,155.39 284.94,158.68 287.88,161.97 290.83,165.26 293.78,168.97 296.73,172.82 299.67,176.77 302.62,180.70 305.57,184.88 308.50,189.36 311.45,193.68 314.40,197.99 317.34,202.37 320.29,207.14 323.24,211.89 326.18,216.62 329.12,221.35 332.07,226.23 335.01,231.13 337.96,236.00 340.91,240.77 343.85,245.59 346.80,250.42 349.74,255.20 352.68,260.62 355.63,266.08 358.58,271.62 361.53,277.16 364.47,282.72 367.42,288.28 370.36,293.77 373.30,299.36 376.25,305.08 379.20,310.93 382.14,316.83 385.09,322.83 388.04,327.32 390.97,331.95 393.92,336.47 396.87,340.78 399.81,345.62 402.76,350.56 405.71,354.24 408.65,356.00 411.59,357.79 414.54,359.61 417.48,361.46 420.43,362.13 423.38,361.62 426.32,361.05 429.27,360.79 432.21,360.93 435.16,361.33 438.10,361.60 441.05,360.10 444.00,358.49 446.94,356.98 449.89,355.21 452.84,353.19 455.77,350.93 458.72,346.08 461.67,341.10 464.61,335.99 467.56,330.76 470.51,325.75 473.45,320.88 476.39,314.12 479.34,307.78 482.28,302.06 485.23,297.09 488.18,292.52 491.12,288.48 494.07,286.08 497.01,284.58 499.96,283.66 502.90,283.27 505.85,283.39 508.80,283.97 511.74,286.83 514.69,289.82 517.63,292.62 520.57,295.43 523.52,298.24 526.47,301.10 529.41,304.76 532.36,308.31 535.31,311.74 538.24,315.12 541.19,318.47 544.14,321.80 547.08,324.46 550.03,326.96 552.98,329.32 555.92,331.56 558.86,333.55 561.81,335.29 564.76,336.79 567.70,338.24 570.65,339.41 573.60,340.17 576.54,339.63 579.49,338.86 582.43,338.22 585.37,336.58 588.32,334.97 591.27,333.43 594.21,331.98 597.16,329.95 600.11,328.84 603.04,328.02 605.99,325.74 608.94,323.58 611.88,321.52 614.83,319.60 617.78,318.86 620.72,318.48 623.66,318.65 626.61,318.93 629.55,319.32 632.50,319.81 635.45,321.34 638.40,322.98 641.34,324.76 644.28,326.65 647.23,329.86 650.17,333.69 653.12,338.64 656.07,343.65 659.01,349.43 661.96,356.12 664.90,362.10 667.84,368.02 670.79,375.03 673.74,382.22 676.68,389.00 679.63,395.37 682.58,401.31 685.51,406.60 688.46,412.26 691.41,417.12 694.35,420.94 697.30,424.15 700.25,426.91 703.20,429.14 706.14,431.11 709.08,432.51 712.03,433.86 714.97,434.78 717.92,435.28 720.87,435.37 723.81,436.13 726.76,436.72 729.70,437.16 732.64,437.43 735.59,438.19 738.54,439.14 741.48,440.30 744.43,441.43 747.38,442.82 750.31,444.58 753.26,446.31 756.21,448.09 759.15,450.21 762.10,452.67 765.05,455.18 767.99,457.73 770.93,460.32 773.88,463.13 776.83,466.03 779.77,468.93 782.72,471.75 785.67,474.71 788.61,477.80 791.55,480.93 794.50,483.81 797.44,486.89 800.39,490.45 803.34,494.04 806.28,497.63 809.23,501.20 812.17,506.13 815.11,511.11 818.06,516.16 821.01,521.25 823.95,529.01 826.90,537.85 829.85,546.41 832.79,554.98 835.73,565.99 838.68,580.11 841.63,593.33 844.57,606.11 847.52,617.29 850.47,627.71 853.41,637.47 856.35,646.58 859.30,655.05 862.24,659.46 865.19,660.36 868.14,661.00 871.08,661.55 874.03,660.37 876.97,658.01 879.91,655.66 882.86,650.75 885.81,645.71 888.75,640.04 891.70,634.87 894.65,630.19 897.58,626.01 900.53,621.10 903.48,616.76 906.43,612.95 909.37,609.67 912.32,606.51 915.27,603.75 918.20,602.07 921.15,600.67 924.10,599.31 927.04,597.91 929.99,596.43 932.94,595.25 935.88,594.28 938.82,592.91 941.77,591.66 944.71,590.51 947.66,589.47 950.61,587.96 953.55,586.15 956.50,584.41 959.44,582.77 962.38,580.93 965.33,578.97 968.28,577.12 971.22,575.02 974.17,572.88 977.12,570.48 980.06,568.19 983.00,566.02 985.95,563.99 988.90,561.43 991.84,558.91 994.79,556.44 997.74,554.03 1000.68,550.96 1003.62,547.49 1006.57,543.10 1009.51,538.61 1012.46,534.09 1015.41,529.56 1018.35,525.22 1021.30,520.60 1024.24,515.64 1027.18,512.42 1030.13,509.33 1033.08,506.40 1036.02,503.62 1038.97,501.88 1041.92,500.46 1044.86,499.14 1047.80,497.47 1050.75,496.39 1053.70,495.71 1056.64,495.03 1059.59,495.28 1062.54,495.47 1065.47,495.54 1068.42,495.61 1071.37,495.68 1074.31,495.73" fill="none" stroke="#000000" stroke-width="3"/>
<line x1="142" y1="100" x2="178" y2="100" stroke="#000000" stroke-width="4"/>
<text x="188" y="105" font-family="Arial" font-size="18" fill="black">p_rgh</text>
</svg>