<svg xmlns="http://www.w3.org/2000/svg" width="1200" height="820" viewBox="0 0 1200 820">
<rect width="100%" height="100%" fill="white"/>
<text x="600.0" y="36" text-anchor="middle" font-family="Arial" font-size="24" fill="black">profile_diagonal_supply_return: U, V, W components</text>
<line x1="120.00" y1="75" x2="120.00" y2="705" stroke="#dddddd" stroke-width="1"/>
<text x="120.00" y="737" text-anchor="middle" font-family="Arial" font-size="16" fill="black">-0.729</text>
<line x1="376.25" y1="75" x2="376.25" y2="705" stroke="#dddddd" stroke-width="1"/>
<text x="376.25" y="737" text-anchor="middle" font-family="Arial" font-size="16" fill="black">1.913</text>
<line x1="632.50" y1="75" x2="632.50" y2="705" stroke="#dddddd" stroke-width="1"/>
<text x="632.50" y="737" text-anchor="middle" font-family="Arial" font-size="16" fill="black">4.555</text>
<line x1="888.75" y1="75" x2="888.75" y2="705" stroke="#dddddd" stroke-width="1"/>
<text x="888.75" y="737" text-anchor="middle" font-family="Arial" font-size="16" fill="black">7.197</text>
<line x1="1145.00" y1="75" x2="1145.00" y2="705" stroke="#dddddd" stroke-width="1"/>
<text x="1145.00" y="737" text-anchor="middle" font-family="Arial" font-size="16" fill="black">9.839</text>
<line x1="120" y1="705.00" x2="1145" y2="705.00" stroke="#dddddd" stroke-width="1"/>
<text x="104" y="710.00" text-anchor="end" font-family="Arial" font-size="16" fill="black">-0.294</text>
<line x1="120" y1="547.50" x2="1145" y2="547.50" stroke="#dddddd" stroke-width="1"/>
<text x="104" y="552.50" text-anchor="end" font-family="Arial" font-size="16" fill="black">-0.116</text>
<line x1="120" y1="390.00" x2="1145" y2="390.00" stroke="#dddddd" stroke-width="1"/>
<text x="104" y="395.00" text-anchor="end" font-family="Arial" font-size="16" fill="black">0.061</text>
<line x1="120" y1="232.50" x2="1145" y2="232.50" stroke="#dddddd" stroke-width="1"/>
<text x="104" y="237.50" text-anchor="end" font-family="Arial" font-size="16" fill="black">0.239</text>
<line x1="120" y1="75.00" x2="1145" y2="75.00" stroke="#dddddd" stroke-width="1"/>
<text x="104" y="80.00" text-anchor="end" font-family="Arial" font-size="16" fill="black">0.417</text>
<rect x="120" y="75" width="1025" height="630" fill="none" stroke="black" stroke-width="2"/>
<text x="632.5" y="785" text-anchor="middle" font-family="Arial" font-size="20" fill="black">distance along sample line [m]</text>
<text x="34" y="390.0" transform="rotate(-90 34 390.0)" text-anchor="middle" font-family="Arial" font-size="20" fill="black">velocity component [m/s]</text>
<polyline points="190.69,570.86 193.64,573.73 196.58,576.37 199.53,578.79 202.47,580.97 205.42,584.56 208.36,588.52 211.31,591.98 214.25,595.21 217.20,596.03 220.14,593.91 223.09,589.63 226.03,585.30 228.98,580.08 231.93,571.02 234.87,562.26 237.82,553.80 240.76,545.64 243.71,536.27 246.65,526.97 249.60,518.13 252.54,510.60 255.49,502.86 258.43,495.08 261.38,487.70 264.32,480.56 267.27,473.61 270.22,466.57 273.16,459.92 276.11,453.63 279.05,447.70 282.00,441.96 284.94,436.49 287.88,431.28 290.83,426.32 293.78,421.43 296.73,416.71 299.67,412.07 302.62,407.64 305.57,403.39 308.50,399.30 311.45,395.46 314.40,391.77 317.34,388.07 320.29,384.58 323.24,381.18 326.18,377.88 329.12,374.65 332.07,371.71 335.01,368.70 337.96,365.70 340.91,362.53 343.85,359.50 346.80,356.55 349.74,353.54 352.68,350.42 355.63,347.28 358.58,344.25 361.53,341.10 364.47,337.81 367.42,334.39 370.36,331.00 373.30,327.41 376.25,323.64 379.20,319.67 382.14,315.62 385.09,311.41 388.04,307.65 390.97,303.66 393.92,299.45 396.87,295.03 399.81,290.05 402.76,284.82 405.71,280.62 408.65,276.21 411.59,271.61 414.54,266.81 417.48,261.81 420.43,256.58 423.38,253.25 426.32,249.82 429.27,246.17 432.21,242.45 435.16,238.68 438.10,234.88 441.05,233.90 444.00,232.94 446.94,232.03 449.89,231.12 452.84,230.19 455.77,229.24 458.72,230.43 461.67,231.49 464.61,232.41 467.56,233.21 470.51,234.03 473.45,234.80 476.39,236.40 479.34,238.16 482.28,240.24 485.23,242.75 488.18,245.59 491.12,248.62 494.07,253.90 497.01,259.70 499.96,265.59 502.90,271.54 505.85,277.53 508.80,283.46 511.74,289.54 514.69,295.16 517.63,300.07 520.57,304.42 523.52,308.17 526.47,311.44 529.41,313.25 532.36,314.59 535.31,315.47 538.24,315.92 541.19,315.97 544.14,315.60 547.08,315.22 550.03,314.86 552.98,314.50 555.92,314.14 558.86,314.38 561.81,314.90 564.76,315.29 567.70,315.77 570.65,316.77 573.60,318.47 576.54,321.48 579.49,324.74 582.43,328.03 585.37,332.56 588.32,337.31 591.27,342.27 594.21,347.45 597.16,353.92 600.11,359.83 603.04,365.89 605.99,373.06 608.94,380.92 611.88,389.26 614.83,397.67 617.78,404.70 620.72,411.84 623.66,419.29 626.61,426.69 629.55,434.05 632.50,441.38 635.45,447.55 638.40,453.66 641.34,459.70 644.28,465.67 647.23,471.26 650.17,476.66 653.12,481.25 656.07,485.93 659.01,490.21 661.96,493.88 664.90,497.06 667.84,500.08 670.79,502.43 673.74,503.13 676.68,503.58 679.63,503.78 682.58,503.73 685.51,502.02 688.46,499.77 691.41,497.33 694.35,494.51 697.30,491.05 700.25,487.13 703.20,483.16 706.14,479.39 709.08,475.59 712.03,471.71 714.97,467.92 717.92,464.23 720.87,460.62 723.81,457.67 726.76,454.86 729.70,452.18 732.64,449.62 735.59,447.31 738.54,445.16 741.48,443.58 744.43,442.06 747.38,440.68 750.31,439.49 753.26,438.70 756.21,438.00 759.15,437.74 762.10,437.68 765.05,437.67 767.99,437.70 770.93,437.76 773.88,437.89 776.83,438.30 779.77,438.73 782.72,439.88 785.67,440.99 788.61,442.07 791.55,443.16 794.50,444.44 797.44,445.65 800.39,446.69 803.34,447.73 806.28,448.74 809.23,449.74 812.17,451.30 815.11,452.83 818.06,454.33 821.01,455.78 823.95,456.86 826.90,457.77 829.85,458.61 832.79,459.40 835.73,459.86 838.68,459.93 841.63,460.60 844.57,461.19 847.52,461.20 850.47,460.38 853.41,459.50 856.35,458.56 859.30,457.59 862.24,455.79 865.19,453.31 868.14,450.89 871.08,448.92 874.03,446.54 876.97,443.91 879.91,441.37 882.86,438.65 885.81,436.04 888.75,433.46 891.70,431.16 894.65,429.16 897.58,427.44 900.53,426.10 903.48,425.00 906.43,424.13 909.37,423.48 912.32,423.26 915.27,423.27 918.20,423.51 921.15,423.88 924.10,424.44 927.04,425.17 929.99,425.49 932.94,425.78 935.88,426.13 938.82,426.47 941.77,426.77 944.71,427.01 947.66,427.22 950.61,427.45 953.55,427.85 956.50,428.26 959.44,428.22 962.38,428.34 965.33,428.63 968.28,428.98 971.22,429.88 974.17,431.04 977.12,432.79 980.06,434.79 983.00,437.05 985.95,439.61 988.90,443.61 991.84,448.26 994.79,453.62 997.74,459.79 1000.68,466.36 1003.62,473.56 1006.57,482.22 1009.51,491.47 1012.46,499.05 1015.41,503.55 1018.35,508.62 1021.30,513.01 1024.24,515.55 1027.18,514.94 1030.13,513.20 1033.08,510.27 1036.02,506.10 1038.97,504.12 1041.92,500.56 1044.86,496.56 1047.80,492.16 1050.75,487.91 1053.70,483.73 1056.64,479.15 1059.59,473.33 1062.54,468.42 1065.47,466.02 1068.42,463.60 1071.37,461.15 1074.31,458.67" fill="none" stroke="#000000" stroke-width="3"/>
<line x1="142" y1="100" x2="178" y2="100" stroke="#000000" stroke-width="4"/>
<text x="188" y="105" font-family="Arial" font-size="18" fill="black">Ux / u</text>
<polyline points="190.69,413.73 193.64,410.51 196.58,407.19 199.53,403.79 202.47,400.29 205.42,396.94 208.36,393.58 211.31,386.16 214.25,378.69 217.20,371.46 220.14,364.59 223.09,358.10 226.03,351.70 228.98,345.05 231.93,338.35 234.87,331.78 237.82,325.35 240.76,319.09 243.71,312.90 246.65,307.46 249.60,302.20 252.54,297.46 255.49,292.78 258.43,288.20 261.38,283.78 264.32,280.13 267.27,276.60 270.22,273.15 273.16,269.86 276.11,266.75 279.05,263.82 282.00,261.32 284.94,258.93 287.88,256.67 290.83,254.52 293.78,252.41 296.73,250.34 299.67,249.03 302.62,247.83 305.57,246.69 308.50,245.62 311.45,244.33 314.40,243.10 317.34,242.66 320.29,242.28 323.24,241.97 326.18,241.72 329.12,241.52 332.07,241.42 335.01,242.25 337.96,243.14 340.91,243.75 343.85,244.47 346.80,245.29 349.74,246.15 352.68,248.10 355.63,250.18 358.58,252.47 361.53,254.83 364.47,257.27 367.42,259.78 370.36,263.52 373.30,267.38 376.25,271.34 379.20,275.41 382.14,279.84 385.09,284.47 388.04,290.47 390.97,296.63 393.92,303.10 396.87,309.92 399.81,316.76 402.76,323.72 405.71,331.91 408.65,340.53 411.59,349.24 414.54,358.04 417.48,366.93 420.43,376.15 423.38,386.08 426.32,396.01 429.27,405.78 432.21,415.57 435.16,425.30 438.10,434.91 441.05,444.19 444.00,453.09 446.94,461.44 449.89,469.34 452.84,476.77 455.77,483.74 458.72,488.25 461.67,492.18 464.61,495.54 467.56,498.35 470.51,500.44 473.45,501.97 476.39,502.47 479.34,502.65 482.28,502.61 485.23,502.44 488.18,501.63 491.12,500.63 494.07,499.84 497.01,499.41 499.96,498.89 502.90,498.30 505.85,497.64 508.80,497.31 511.74,497.28 514.69,497.12 517.63,496.44 520.57,495.78 523.52,495.08 526.47,494.21 529.41,492.95 532.36,491.56 535.31,490.14 538.24,488.54 541.19,486.77 544.14,484.82 547.08,482.42 550.03,479.97 552.98,477.49 555.92,474.98 558.86,472.79 561.81,470.71 564.76,468.35 567.70,465.97 570.65,463.78 573.60,461.81 576.54,460.26 579.49,458.81 582.43,457.14 585.37,455.74 588.32,454.38 591.27,453.08 594.21,451.86 597.16,450.80 600.11,449.66 603.04,448.65 605.99,448.26 608.94,448.05 611.88,448.07 614.83,448.31 617.78,448.92 620.72,449.90 623.66,451.48 626.61,453.49 629.55,455.95 632.50,458.88 635.45,463.38 638.40,468.34 641.34,473.76 644.28,479.65 647.23,486.29 650.17,493.47 653.12,501.24 656.07,509.30 659.01,517.52 661.96,525.71 664.90,533.27 667.84,540.71 670.79,547.43 673.74,552.90 676.68,557.87 679.63,562.33 682.58,566.26 685.51,568.55 688.46,569.24 691.41,569.24 694.35,568.23 697.30,566.07 700.25,562.90 703.20,559.13 706.14,553.98 709.08,548.19 712.03,541.88 714.97,535.12 717.92,527.91 720.87,520.28 723.81,512.81 726.76,505.13 729.70,497.24 732.64,489.16 735.59,481.76 738.54,474.64 741.48,467.33 744.43,459.99 747.38,453.18 750.31,447.16 753.26,441.50 756.21,435.91 759.15,430.70 762.10,426.65 765.05,422.75 767.99,419.00 770.93,415.40 773.88,412.84 776.83,410.82 779.77,408.98 782.72,407.71 785.67,407.08 788.61,406.99 791.55,407.09 794.50,407.53 797.44,408.29 800.39,409.62 803.34,411.12 806.28,412.79 809.23,414.63 812.17,417.07 815.11,419.62 818.06,422.26 821.01,424.99 823.95,427.36 826.90,429.65 829.85,431.94 832.79,434.30 835.73,436.09 838.68,437.14 841.63,438.34 844.57,439.55 847.52,440.51 850.47,439.73 853.41,439.04 856.35,438.42 859.30,437.85 862.24,435.55 865.19,433.52 868.14,431.59 871.08,429.60 874.03,426.66 876.97,422.97 879.91,419.23 882.86,416.20 885.81,412.72 888.75,408.17 891.70,403.45 894.65,398.54 897.58,393.46 900.53,387.47 903.48,381.20 906.43,374.66 909.37,367.88 912.32,359.96 915.27,351.46 918.20,343.32 921.15,335.09 924.10,326.33 927.04,316.99 929.99,307.51 932.94,298.05 935.88,289.14 938.82,280.07 941.77,271.24 944.71,262.66 947.66,254.30 950.61,246.38 953.55,239.56 956.50,233.06 959.44,226.56 962.38,220.67 965.33,215.30 968.28,210.14 971.22,206.40 974.17,203.17 977.12,200.78 980.06,198.61 983.00,196.64 985.95,194.86 988.90,195.48 991.84,196.36 994.79,197.52 997.74,198.95 1000.68,201.70 1003.62,205.27 1006.57,211.58 1009.51,218.24 1012.46,225.46 1015.41,233.26 1018.35,241.09 1021.30,249.28 1024.24,260.12 1027.18,271.09 1030.13,282.29 1033.08,293.66 1036.02,305.14 1038.97,316.04 1041.92,327.28 1044.86,338.37 1047.80,349.36 1050.75,360.11 1053.70,370.69 1056.64,381.04 1059.59,386.68 1062.54,392.06 1065.47,397.08 1068.42,402.03 1071.37,406.91 1074.31,411.73" fill="none" stroke="#555555" stroke-width="3" stroke-dasharray="9 5"/>
<line x1="142" y1="128" x2="178" y2="128" stroke="#555555" stroke-width="4" stroke-dasharray="9 5"/>
<text x="188" y="133" font-family="Arial" font-size="18" fill="black">Uy / v</text>
<polyline points="190.69,404.87 193.64,407.51 196.58,410.69 199.53,414.39 202.47,418.61 205.42,426.81 208.36,437.42 211.31,449.03 214.25,461.72 217.20,473.39 220.14,483.17 223.09,495.97 226.03,509.95 228.98,523.82 231.93,533.31 234.87,543.19 237.82,553.47 240.76,564.17 243.71,572.41 246.65,580.09 249.60,587.95 252.54,595.63 255.49,602.48 258.43,608.71 261.38,614.98 264.32,621.10 267.27,626.94 270.22,632.01 273.16,637.05 276.11,642.04 279.05,647.01 282.00,649.44 284.94,651.80 287.88,654.10 290.83,656.34 293.78,657.93 296.73,659.22 299.67,660.21 302.62,661.10 305.57,661.55 308.50,661.45 311.45,660.34 314.40,659.05 317.34,657.27 320.29,654.69 323.24,651.86 326.18,648.77 329.12,645.42 332.07,641.33 335.01,636.50 337.96,631.32 340.91,625.19 343.85,618.49 346.80,611.28 349.74,603.70 352.68,595.12 355.63,586.06 358.58,576.40 361.53,566.32 364.47,555.81 367.42,544.86 370.36,532.68 373.30,520.07 376.25,507.02 379.20,493.51 382.14,479.54 385.09,465.08 388.04,450.52 390.97,435.51 393.92,420.19 396.87,404.60 399.81,388.40 402.76,371.77 405.71,355.66 408.65,340.07 411.59,324.17 414.54,307.93 417.48,291.36 420.43,275.36 423.38,260.24 426.32,244.95 429.27,229.57 432.21,214.40 435.16,199.45 438.10,184.50 441.05,171.90 444.00,159.90 446.94,148.83 449.89,138.40 452.84,128.63 455.77,119.57 458.72,118.45 461.67,118.53 464.61,119.81 467.56,122.28 470.51,126.64 473.45,132.46 476.39,147.72 479.34,163.69 482.28,180.61 485.23,198.28 488.18,216.45 491.12,234.76 494.07,254.90 497.01,274.01 499.96,292.06 502.90,309.12 505.85,325.20 508.80,340.02 511.74,350.67 514.69,360.60 517.63,370.42 520.57,379.76 523.52,388.72 526.47,397.26 529.41,403.09 532.36,409.06 535.31,415.61 538.24,422.12 541.19,428.57 544.14,434.96 547.08,441.23 550.03,447.41 552.98,453.48 555.92,459.42 558.86,465.88 561.81,472.44 564.76,477.41 567.70,482.19 570.65,487.12 573.60,492.39 576.54,497.29 579.49,502.06 582.43,505.59 585.37,509.82 588.32,514.02 591.27,518.21 594.21,522.41 597.16,527.39 600.11,531.44 603.04,535.53 605.99,539.12 608.94,542.93 611.88,546.91 614.83,550.92 617.78,553.56 620.72,556.03 623.66,558.08 626.61,560.00 629.55,561.80 632.50,563.47 635.45,561.16 638.40,558.48 641.34,555.43 644.28,551.99 647.23,546.60 650.17,540.14 653.12,530.60 656.07,520.52 659.01,509.13 661.96,496.36 664.90,483.86 667.84,471.31 670.79,456.18 673.74,441.31 676.68,427.13 679.63,413.68 682.58,401.01 685.51,389.97 688.46,379.13 691.41,369.72 694.35,362.28 697.30,356.41 700.25,352.03 703.20,349.00 706.14,347.89 709.08,347.98 712.03,348.65 714.97,350.44 717.92,353.35 720.87,357.37 723.81,361.31 726.76,365.84 729.70,370.96 732.64,376.66 735.59,381.13 738.54,385.23 741.48,389.96 744.43,394.86 747.38,398.89 750.31,401.58 753.26,404.16 756.21,406.71 759.15,408.82 762.10,409.09 765.05,409.11 767.99,408.88 770.93,408.37 773.88,406.34 776.83,403.54 779.77,400.36 782.72,396.77 785.67,392.21 788.61,386.80 791.55,381.00 794.50,374.74 797.44,367.82 800.39,359.76 803.34,351.30 806.28,342.45 809.23,333.17 812.17,322.86 815.11,312.26 818.06,301.38 821.01,290.22 823.95,277.77 826.90,264.65 829.85,252.54 832.79,240.39 835.73,227.72 838.68,214.42 841.63,201.64 844.57,188.93 847.52,179.25 850.47,170.43 853.41,161.98 856.35,153.89 859.30,146.16 862.24,140.40 865.19,139.21 868.14,138.47 871.08,138.73 874.03,140.62 876.97,143.57 879.91,146.66 882.86,153.02 885.81,160.26 888.75,169.15 891.70,177.90 894.65,186.52 897.58,194.99 900.53,206.81 903.48,218.24 906.43,229.27 909.37,239.91 912.32,251.64 915.27,263.39 918.20,273.95 921.15,284.11 924.10,294.69 927.04,305.84 929.99,317.00 932.94,327.52 935.88,336.94 938.82,347.16 941.77,356.76 944.71,365.75 947.66,374.14 950.61,382.79 953.55,390.35 956.50,397.31 959.44,404.01 962.38,410.33 965.33,416.17 968.28,421.28 971.22,425.16 974.17,428.41 977.12,431.25 980.06,433.39 983.00,434.83 985.95,435.58 988.90,436.16 991.84,436.06 994.79,435.33 997.74,434.03 1000.68,434.67 1003.62,436.67 1006.57,440.29 1009.51,444.64 1012.46,449.60 1015.41,454.93 1018.35,459.98 1021.30,467.13 1024.24,475.79 1027.18,477.62 1030.13,479.29 1033.08,480.83 1036.02,482.26 1038.97,481.55 1041.92,479.81 1044.86,477.85 1047.80,477.26 1050.75,475.89 1053.70,474.01 1056.64,472.11 1059.59,470.29 1062.54,468.46 1065.47,466.59 1068.42,464.73 1071.37,462.88 1074.31,461.06" fill="none" stroke="#999999" stroke-width="3" stroke-dasharray="3 4"/>
<line x1="142" y1="156" x2="178" y2="156" stroke="#999999" stroke-width="4" stroke-dasharray="3 4"/>
<text x="188" y="161" font-family="Arial" font-size="18" fill="black">Uz / w</text>
</svg>