<svg xmlns="http://www.w3.org/2000/svg" width="1200" height="820" viewBox="0 0 1200 820">
<rect width="100%" height="100%" fill="white"/>
<text x="600.0" y="36" text-anchor="middle" font-family="Arial" font-size="24" fill="black">profile_center_z: p_rgh</text>
<line x1="120.00" y1="75" x2="120.00" y2="705" stroke="#dddddd" stroke-width="1"/>
<text x="120.00" y="737" text-anchor="middle" font-family="Arial" font-size="16" fill="black">-0.240</text>
<line x1="376.25" y1="75" x2="376.25" y2="705" stroke="#dddddd" stroke-width="1"/>
<text x="376.25" y="737" text-anchor="middle" font-family="Arial" font-size="16" fill="black">0.630</text>
<line x1="632.50" y1="75" x2="632.50" y2="705" stroke="#dddddd" stroke-width="1"/>
<text x="632.50" y="737" text-anchor="middle" font-family="Arial" font-size="16" fill="black">1.500</text>
<line x1="888.75" y1="75" x2="888.75" y2="705" stroke="#dddddd" stroke-width="1"/>
<text x="888.75" y="737" text-anchor="middle" font-family="Arial" font-size="16" fill="black">2.370</text>
<line x1="1145.00" y1="75" x2="1145.00" y2="705" stroke="#dddddd" stroke-width="1"/>
<text x="1145.00" y="737" text-anchor="middle" font-family="Arial" font-size="16" fill="black">3.240</text>
<line x1="120" y1="705.00" x2="1145" y2="705.00" stroke="#dddddd" stroke-width="1"/>
<text x="104" y="710.00" text-anchor="end" font-family="Arial" font-size="16" fill="black">0.091</text>
<line x1="120" y1="547.50" x2="1145" y2="547.50" stroke="#dddddd" stroke-width="1"/>
<text x="104" y="552.50" text-anchor="end" font-family="Arial" font-size="16" fill="black">0.317</text>
<line x1="120" y1="390.00" x2="1145" y2="390.00" stroke="#dddddd" stroke-width="1"/>
<text x="104" y="395.00" text-anchor="end" font-family="Arial" font-size="16" fill="black">0.543</text>
<line x1="120" y1="232.50" x2="1145" y2="232.50" stroke="#dddddd" stroke-width="1"/>
<text x="104" y="237.50" text-anchor="end" font-family="Arial" font-size="16" fill="black">0.769</text>
<line x1="120" y1="75.00" x2="1145" y2="75.00" stroke="#dddddd" stroke-width="1"/>
<text x="104" y="80.00" text-anchor="end" font-family="Arial" font-size="16" fill="black">0.994</text>
<rect x="120" y="75" width="1025" height="630" fill="none" stroke="black" stroke-width="2"/>
<text x="632.5" y="785" text-anchor="middle" font-family="Arial" font-size="20" fill="black">z coordinate [m]</text>
<text x="34" y="390.0" transform="rotate(-90 34 390.0)" text-anchor="middle" font-family="Arial" font-size="20" fill="black">p_rgh [Pa]</text>
<polyline points="190.69,319.07 193.64,318.60 196.58,318.14 199.53,317.68 202.47,317.22 205.42,316.76 208.36,316.29 211.31,315.83 214.25,315.36 217.20,314.90 220.14,314.44 223.09,312.95 226.03,311.46 228.98,309.97 231.93,308.49 234.87,307.00 237.82,305.51 240.76,304.02 243.71,302.54 246.65,301.05 249.60,299.56 252.54,297.16 255.49,294.75 258.43,292.34 261.38,289.94 264.32,287.53 267.27,285.13 270.22,282.72 273.16,280.31 276.11,277.90 279.05,275.50 282.00,272.47 284.94,269.43 287.89,266.40 290.83,263.37 293.78,260.33 296.72,257.30 299.67,254.27 302.61,251.24 305.56,248.21 308.51,245.17 311.45,241.65 314.40,238.14 317.34,234.62 320.29,231.11 323.23,227.59 326.18,224.07 329.12,220.56 332.07,217.04 335.01,213.52 337.96,210.01 340.91,206.22 343.85,202.43 346.80,198.64 349.74,194.85 352.69,191.06 355.63,187.26 358.58,183.48 361.52,179.68 364.47,175.89 367.41,172.10 370.36,168.53 373.30,164.97 376.25,161.40 379.20,157.84 382.14,154.27 385.09,150.70 388.03,147.13 390.98,143.57 393.92,140.00 396.87,136.44 399.81,134.64 402.76,132.84 405.70,131.04 408.65,129.24 411.59,127.44 414.54,125.64 417.49,123.85 420.43,122.05 423.38,120.25 426.32,118.45 429.27,121.21 432.21,123.97 435.16,126.73 438.10,129.49 441.05,132.25 443.99,135.02 446.94,137.78 449.89,140.54 452.83,143.30 455.78,146.06 458.72,153.35 461.67,160.65 464.61,167.93 467.56,175.23 470.50,182.52 473.45,189.82 476.39,197.10 479.34,204.40 482.28,211.69 485.23,218.98 488.18,226.97 491.12,234.97 494.07,242.97 497.01,250.96 499.96,258.96 502.90,266.96 505.85,274.95 508.79,282.95 511.74,290.94 514.68,298.94 517.63,305.73 520.57,312.53 523.52,319.32 526.47,326.12 529.41,332.91 532.36,339.71 535.30,346.50 538.25,353.30 541.19,360.09 544.14,366.89 547.08,372.83 550.03,378.76 552.97,384.69 555.92,390.62 558.86,396.55 561.81,402.49 564.76,408.42 567.70,414.36 570.65,420.28 573.59,426.22 576.54,431.13 579.48,436.03 582.43,440.94 585.37,445.86 588.32,450.77 591.26,455.68 594.21,460.59 597.16,465.50 600.10,470.40 603.05,475.31 605.99,479.08 608.94,482.84 611.88,486.60 614.83,490.37 617.77,494.13 620.72,497.89 623.66,501.66 626.61,505.42 629.55,509.18 632.50,512.94 635.45,515.81 638.39,518.68 641.34,521.55 644.28,524.42 647.23,527.29 650.17,530.16 653.12,533.03 656.06,535.90 659.01,538.77 661.95,541.64 664.90,543.93 667.84,546.22 670.79,548.51 673.74,550.80 676.68,553.09 679.63,555.38 682.57,557.67 685.52,559.96 688.46,562.24 691.41,564.54 694.35,566.47 697.30,568.41 700.24,570.35 703.19,572.28 706.14,574.22 709.08,576.16 712.03,578.10 714.97,580.04 717.92,581.97 720.86,583.91 723.81,585.62 726.75,587.34 729.70,589.05 732.64,590.76 735.59,592.48 738.53,594.19 741.48,595.90 744.43,597.62 747.37,599.33 750.32,601.04 753.26,602.58 756.21,604.10 759.15,605.63 762.10,607.16 765.04,608.68 767.99,610.21 770.93,611.74 773.88,613.27 776.82,614.80 779.77,616.33 782.72,617.66 785.66,618.99 788.61,620.33 791.55,621.66 794.50,622.99 797.44,624.32 800.39,625.66 803.33,626.99 806.28,628.33 809.22,629.66 812.17,630.78 815.11,631.90 818.06,633.01 821.01,634.13 823.95,635.25 826.90,636.37 829.84,637.49 832.79,638.60 835.73,639.73 838.68,640.84 841.62,641.73 844.57,642.62 847.51,643.51 850.46,644.39 853.41,645.28 856.35,646.17 859.30,647.06 862.24,647.94 865.19,648.83 868.13,649.72 871.08,650.36 874.02,651.01 876.97,651.66 879.91,652.30 882.86,652.95 885.80,653.59 888.75,654.24 891.70,654.89 894.64,655.53 897.59,656.18 900.53,656.57 903.48,656.97 906.42,657.37 909.37,657.77 912.31,658.16 915.26,658.56 918.20,658.96 921.15,659.36 924.09,659.75 927.04,660.15 929.99,660.29 932.93,660.43 935.88,660.57 938.82,660.71 941.77,660.85 944.71,660.99 947.66,661.13 950.60,661.27 953.55,661.41 956.49,661.55 959.44,661.43 962.39,661.31 965.33,661.19 968.28,661.07 971.22,660.95 974.17,660.83 977.11,660.70 980.06,660.58 983.00,660.46 985.95,660.34 988.89,660.00 991.84,659.65 994.78,659.31 997.73,658.96 1000.68,658.62 1003.62,658.27 1006.57,657.92 1009.51,657.58 1012.46,657.23 1015.40,656.89 1018.35,656.44 1021.29,655.99 1024.24,655.54 1027.18,655.09 1030.13,654.65 1033.07,654.20 1036.02,653.76 1038.97,653.31 1041.91,652.86 1044.86,652.42 1047.80,652.19 1050.75,651.96 1053.69,651.73 1056.64,651.51 1059.58,651.28 1062.53,651.06 1065.47,650.83 1068.42,650.60 1071.36,650.38 1074.31,650.15" fill="none" stroke="#000000" stroke-width="3"/>
<line x1="142" y1="100" x2="178" y2="100" stroke="#000000" stroke-width="4"/>
<text x="188" y="105" font-family="Arial" font-size="18" fill="black">p_rgh</text>
</svg>