<svg xmlns="http://www.w3.org/2000/svg" width="1200" height="820" viewBox="0 0 1200 820">
<rect width="100%" height="100%" fill="white"/>
<text x="600.0" y="36" text-anchor="middle" font-family="Arial" font-size="24" fill="black">profile_center_z: vorticity:2</text>
<line x1="120.00" y1="75" x2="120.00" y2="705" stroke="#dddddd" stroke-width="1"/>
<text x="120.00" y="737" text-anchor="middle" font-family="Arial" font-size="16" fill="black">-0.240</text>
<line x1="376.25" y1="75" x2="376.25" y2="705" stroke="#dddddd" stroke-width="1"/>
<text x="376.25" y="737" text-anchor="middle" font-family="Arial" font-size="16" fill="black">0.630</text>
<line x1="632.50" y1="75" x2="632.50" y2="705" stroke="#dddddd" stroke-width="1"/>
<text x="632.50" y="737" text-anchor="middle" font-family="Arial" font-size="16" fill="black">1.500</text>
<line x1="888.75" y1="75" x2="888.75" y2="705" stroke="#dddddd" stroke-width="1"/>
<text x="888.75" y="737" text-anchor="middle" font-family="Arial" font-size="16" fill="black">2.370</text>
<line x1="1145.00" y1="75" x2="1145.00" y2="705" stroke="#dddddd" stroke-width="1"/>
<text x="1145.00" y="737" text-anchor="middle" font-family="Arial" font-size="16" fill="black">3.240</text>
<line x1="120" y1="705.00" x2="1145" y2="705.00" stroke="#dddddd" stroke-width="1"/>
<text x="104" y="710.00" text-anchor="end" font-family="Arial" font-size="16" fill="black">-0.089</text>
<line x1="120" y1="547.50" x2="1145" y2="547.50" stroke="#dddddd" stroke-width="1"/>
<text x="104" y="552.50" text-anchor="end" font-family="Arial" font-size="16" fill="black">-0.027</text>
<line x1="120" y1="390.00" x2="1145" y2="390.00" stroke="#dddddd" stroke-width="1"/>
<text x="104" y="395.00" text-anchor="end" font-family="Arial" font-size="16" fill="black">0.035</text>
<line x1="120" y1="232.50" x2="1145" y2="232.50" stroke="#dddddd" stroke-width="1"/>
<text x="104" y="237.50" text-anchor="end" font-family="Arial" font-size="16" fill="black">0.098</text>
<line x1="120" y1="75.00" x2="1145" y2="75.00" stroke="#dddddd" stroke-width="1"/>
<text x="104" y="80.00" text-anchor="end" font-family="Arial" font-size="16" fill="black">0.160</text>
<rect x="120" y="75" width="1025" height="630" fill="none" stroke="black" stroke-width="2"/>
<text x="632.5" y="785" text-anchor="middle" font-family="Arial" font-size="20" fill="black">z coordinate [m]</text>
<text x="34" y="390.0" transform="rotate(-90 34 390.0)" text-anchor="middle" font-family="Arial" font-size="20" fill="black">vorticity:2 [SI]</text>
<polyline points="190.69,479.89 193.64,479.91 196.58,479.93 199.53,479.95 202.47,479.97 205.42,479.99 208.36,480.01 211.31,480.03 214.25,480.05 217.20,480.07 220.14,480.09 223.09,480.14 226.03,480.20 228.98,480.25 231.93,480.30 234.87,480.36 237.82,480.41 240.76,480.46 243.71,480.51 246.65,480.57 249.60,480.62 252.54,480.69 255.49,480.77 258.43,480.84 261.38,480.91 264.32,480.98 267.27,481.06 270.22,481.13 273.16,481.20 276.11,481.27 279.05,481.35 282.00,481.42 284.94,481.50 287.89,481.57 290.83,481.65 293.78,481.72 296.72,481.80 299.67,481.88 302.61,481.95 305.56,482.03 308.51,482.10 311.45,482.17 314.40,482.24 317.34,482.30 320.29,482.37 323.23,482.44 326.18,482.50 329.12,482.57 332.07,482.64 335.01,482.70 337.96,482.77 340.91,482.82 343.85,482.87 346.80,482.92 349.74,482.97 352.69,483.02 355.63,483.07 358.58,483.12 361.52,483.17 364.47,483.22 367.41,483.27 370.36,483.33 373.30,483.39 376.25,483.44 379.20,483.50 382.14,483.56 385.09,483.62 388.03,483.68 390.98,483.74 393.92,483.80 396.87,483.86 399.81,484.47 402.76,485.07 405.70,485.68 408.65,486.29 411.59,486.89 414.54,487.50 417.49,488.10 420.43,488.71 423.38,489.32 426.32,489.92 429.27,492.09 432.21,494.25 435.16,496.42 438.10,498.58 441.05,500.75 443.99,502.91 446.94,505.07 449.89,507.24 452.83,509.40 455.78,511.57 458.72,512.91 461.67,514.25 464.61,515.60 467.56,516.94 470.50,518.29 473.45,519.63 476.39,520.97 479.34,522.31 482.28,523.66 485.23,525.00 488.18,525.82 491.12,526.64 494.07,527.46 497.01,528.27 499.96,529.09 502.90,529.91 505.85,530.73 508.79,531.55 511.74,532.37 514.68,533.19 517.63,536.00 520.57,538.83 523.52,541.65 526.47,544.47 529.41,547.29 532.36,550.11 535.30,552.93 538.25,555.75 541.19,558.57 544.14,561.40 547.08,565.23 550.03,569.07 552.97,572.91 555.92,576.74 558.86,580.58 561.81,584.42 564.76,588.26 567.70,592.09 570.65,595.93 573.59,599.77 576.54,603.67 579.48,607.56 582.43,611.46 585.37,615.36 588.32,619.26 591.26,623.16 594.21,627.06 597.16,630.96 600.10,634.86 603.05,638.76 605.99,641.04 608.94,643.32 611.88,645.59 614.83,647.87 617.77,650.15 620.72,652.43 623.66,654.71 626.61,656.99 629.55,659.27 632.50,661.55 635.45,660.79 638.39,660.03 641.34,659.27 644.28,658.51 647.23,657.75 650.17,656.99 653.12,656.23 656.06,655.47 659.01,654.71 661.95,653.95 664.90,650.21 667.84,646.47 670.79,642.73 673.74,638.99 676.68,635.26 679.63,631.52 682.57,627.78 685.52,624.04 688.46,620.30 691.41,616.56 694.35,610.72 697.30,604.88 700.24,599.04 703.19,593.19 706.14,587.35 709.08,581.51 712.03,575.67 714.97,569.83 717.92,563.98 720.86,558.14 723.81,551.06 726.75,543.98 729.70,536.89 732.64,529.81 735.59,522.73 738.53,515.65 741.48,508.57 744.43,501.48 747.37,494.40 750.32,487.32 753.26,479.88 756.21,472.43 759.15,464.99 762.10,457.54 765.04,450.10 767.99,442.65 770.93,435.21 773.88,427.76 776.82,420.32 779.77,412.87 782.72,405.65 785.66,398.43 788.61,391.21 791.55,383.98 794.50,376.76 797.44,369.54 800.39,362.32 803.33,355.10 806.28,347.88 809.22,340.65 812.17,333.83 815.11,327.02 818.06,320.20 821.01,313.38 823.95,306.56 826.90,299.75 829.84,292.93 832.79,286.11 835.73,279.29 838.68,272.48 841.62,266.52 844.57,260.56 847.51,254.61 850.46,248.65 853.41,242.69 856.35,236.74 859.30,230.78 862.24,224.83 865.19,218.87 868.13,212.91 871.08,208.05 874.02,203.18 876.97,198.31 879.91,193.44 882.86,188.58 885.80,183.71 888.75,178.81 891.70,173.95 894.64,169.08 897.59,164.21 900.53,160.74 903.48,157.29 906.42,153.82 909.37,150.34 912.31,146.87 915.26,143.40 918.20,139.92 921.15,136.45 924.09,132.98 927.04,129.53 929.99,128.41 932.93,127.30 935.88,126.21 938.82,125.09 941.77,123.98 944.71,122.89 947.66,121.77 950.60,120.68 953.55,119.56 956.49,118.45 959.44,119.67 962.39,120.88 965.33,122.10 968.28,123.32 971.22,124.53 974.17,125.72 977.11,126.94 980.06,128.16 983.00,129.38 985.95,130.59 988.89,133.53 991.84,136.47 994.78,139.42 997.73,142.36 1000.68,145.30 1003.62,148.24 1006.57,151.18 1009.51,154.12 1012.46,157.06 1015.40,160.00 1018.35,164.67 1021.29,169.31 1024.24,173.97 1027.18,178.64 1030.13,183.30 1033.07,187.97 1036.02,192.63 1038.97,197.27 1041.91,201.94 1044.86,206.60 1047.80,209.39 1050.75,212.15 1053.69,214.92 1056.64,217.71 1059.58,220.47 1062.53,223.26 1065.47,226.02 1068.42,228.79 1071.36,231.57 1074.31,234.34" fill="none" stroke="#000000" stroke-width="3"/>
<line x1="142" y1="100" x2="178" y2="100" stroke="#000000" stroke-width="4"/>
<text x="188" y="105" font-family="Arial" font-size="18" fill="black">vorticity:2</text>
</svg>