<svg xmlns="http://www.w3.org/2000/svg" width="1200" height="820" viewBox="0 0 1200 820">
<rect width="100%" height="100%" fill="white"/>
<text x="600.0" y="36" text-anchor="middle" font-family="Arial" font-size="24" fill="black">profile_center_z: p</text>
<line x1="120.00" y1="75" x2="120.00" y2="705" stroke="#dddddd" stroke-width="1"/>
<text x="120.00" y="737" text-anchor="middle" font-family="Arial" font-size="16" fill="black">-0.240</text>
<line x1="376.25" y1="75" x2="376.25" y2="705" stroke="#dddddd" stroke-width="1"/>
<text x="376.25" y="737" text-anchor="middle" font-family="Arial" font-size="16" fill="black">0.630</text>
<line x1="632.50" y1="75" x2="632.50" y2="705" stroke="#dddddd" stroke-width="1"/>
<text x="632.50" y="737" text-anchor="middle" font-family="Arial" font-size="16" fill="black">1.500</text>
<line x1="888.75" y1="75" x2="888.75" y2="705" stroke="#dddddd" stroke-width="1"/>
<text x="888.75" y="737" text-anchor="middle" font-family="Arial" font-size="16" fill="black">2.370</text>
<line x1="1145.00" y1="75" x2="1145.00" y2="705" stroke="#dddddd" stroke-width="1"/>
<text x="1145.00" y="737" text-anchor="middle" font-family="Arial" font-size="16" fill="black">3.240</text>
<line x1="120" y1="705.00" x2="1145" y2="705.00" stroke="#dddddd" stroke-width="1"/>
<text x="104" y="710.00" text-anchor="end" font-family="Arial" font-size="16" fill="black">-35.58</text>
<line x1="120" y1="547.50" x2="1145" y2="547.50" stroke="#dddddd" stroke-width="1"/>
<text x="104" y="552.50" text-anchor="end" font-family="Arial" font-size="16" fill="black">-26.01</text>
<line x1="120" y1="390.00" x2="1145" y2="390.00" stroke="#dddddd" stroke-width="1"/>
<text x="104" y="395.00" text-anchor="end" font-family="Arial" font-size="16" fill="black">-16.45</text>
<line x1="120" y1="232.50" x2="1145" y2="232.50" stroke="#dddddd" stroke-width="1"/>
<text x="104" y="237.50" text-anchor="end" font-family="Arial" font-size="16" fill="black">-6.883</text>
<line x1="120" y1="75.00" x2="1145" y2="75.00" stroke="#dddddd" stroke-width="1"/>
<text x="104" y="80.00" text-anchor="end" font-family="Arial" font-size="16" fill="black">2.682</text>
<rect x="120" y="75" width="1025" height="630" fill="none" stroke="black" stroke-width="2"/>
<text x="632.5" y="785" text-anchor="middle" font-family="Arial" font-size="20" fill="black">z coordinate [m]</text>
<text x="34" y="390.0" transform="rotate(-90 34 390.0)" text-anchor="middle" font-family="Arial" font-size="20" fill="black">p [Pa]</text>
<polyline points="190.69,118.45 193.64,119.42 196.58,120.39 199.53,121.37 202.47,122.34 205.42,123.31 208.36,124.29 211.31,125.26 214.25,126.23 217.20,127.20 220.14,128.18 223.09,130.11 226.03,132.04 228.98,133.98 231.93,135.91 234.87,137.84 237.82,139.77 240.76,141.71 243.71,143.64 246.65,145.57 249.60,147.51 252.54,149.42 255.49,151.33 258.43,153.24 261.38,155.15 264.32,157.06 267.27,158.97 270.22,160.89 273.16,162.80 276.11,164.71 279.05,166.62 282.00,168.52 284.94,170.41 287.89,172.31 290.83,174.21 293.78,176.10 296.72,178.00 299.67,179.90 302.61,181.79 305.56,183.69 308.51,185.59 311.45,187.47 314.40,189.36 317.34,191.25 320.29,193.13 323.23,195.02 326.18,196.90 329.12,198.79 332.07,200.68 335.01,202.56 337.96,204.45 340.91,206.33 343.85,208.20 346.80,210.08 349.74,211.96 352.69,213.84 355.63,215.72 358.58,217.60 361.52,219.48 364.47,221.36 367.41,223.24 370.36,225.12 373.30,227.00 376.25,228.88 379.20,230.76 382.14,232.64 385.09,234.52 388.03,236.40 390.98,238.28 393.92,240.16 396.87,242.04 399.81,243.93 402.76,245.83 405.70,247.72 408.65,249.61 411.59,251.50 414.54,253.40 417.49,255.29 420.43,257.18 423.38,259.08 426.32,260.97 429.27,262.89 432.21,264.80 435.16,266.72 438.10,268.64 441.05,270.55 443.99,272.47 446.94,274.38 449.89,276.30 452.83,278.21 455.78,280.13 458.72,282.07 461.67,284.00 464.61,285.94 467.56,287.88 470.50,289.81 473.45,291.75 476.39,293.68 479.34,295.62 482.28,297.56 485.23,299.49 488.18,301.43 491.12,303.36 494.07,305.29 497.01,307.21 499.96,309.16 502.90,311.08 505.85,313.01 508.79,314.95 511.74,316.88 514.68,318.81 517.63,320.72 520.57,322.63 523.52,324.52 526.47,326.43 529.41,328.34 532.36,330.24 535.30,332.15 538.25,334.06 541.19,335.95 544.14,337.86 547.08,339.74 550.03,341.61 552.97,343.51 555.92,345.38 558.86,347.26 561.81,349.14 564.76,351.03 567.70,352.91 570.65,354.79 573.59,356.66 576.54,358.54 579.48,360.40 582.43,362.26 585.37,364.14 588.32,366.00 591.26,367.86 594.21,369.74 597.16,371.60 600.10,373.46 603.05,375.34 605.99,377.20 608.94,379.04 611.88,380.90 614.83,382.77 617.77,384.63 620.72,386.49 623.66,388.33 626.61,390.19 629.55,392.05 632.50,393.91 635.45,395.77 638.39,397.62 641.34,399.48 644.28,401.32 647.23,403.18 650.17,405.03 653.12,406.89 656.06,408.75 659.01,410.59 661.95,412.46 664.90,414.30 667.84,416.16 670.79,418.00 673.74,419.87 676.68,421.71 679.63,423.57 682.57,425.41 685.52,427.26 688.46,429.12 691.41,430.96 694.35,432.82 697.30,434.67 700.24,436.51 703.19,438.37 706.14,440.22 709.08,442.08 712.03,443.92 714.97,445.77 717.92,447.63 720.86,449.47 723.81,451.32 726.75,453.18 729.70,455.02 732.64,456.87 735.59,458.71 738.53,460.57 741.48,462.42 744.43,464.26 747.37,466.12 750.32,467.97 753.26,469.81 756.21,471.65 759.15,473.50 762.10,475.36 765.04,477.20 767.99,479.05 770.93,480.89 773.88,482.74 776.82,484.58 779.77,486.44 782.72,488.29 785.66,490.13 788.61,491.97 791.55,493.82 794.50,495.66 797.44,497.51 800.39,499.35 803.33,501.20 806.28,503.04 809.22,504.88 812.17,506.73 815.11,508.57 818.06,510.42 821.01,512.26 823.95,514.11 826.90,515.95 829.84,517.79 832.79,519.64 835.73,521.48 838.68,523.33 841.62,525.17 844.57,527.02 847.51,528.86 850.46,530.70 853.41,532.55 856.35,534.39 859.30,536.24 862.24,538.08 865.19,539.93 868.13,541.77 871.08,543.61 874.02,545.46 876.97,547.30 879.91,549.13 882.86,550.98 885.80,552.82 888.75,554.66 891.70,556.51 894.64,558.35 897.59,560.20 900.53,562.04 903.48,563.89 906.42,565.71 909.37,567.56 912.31,569.40 915.26,571.25 918.20,573.09 921.15,574.94 924.09,576.78 927.04,578.62 929.99,580.45 932.93,582.30 935.88,584.14 938.82,585.98 941.77,587.83 944.71,589.67 947.66,591.52 950.60,593.36 953.55,595.21 956.49,597.03 959.44,598.88 962.39,600.72 965.33,602.57 968.28,604.41 971.22,606.26 974.17,608.10 977.11,609.94 980.06,611.77 983.00,613.62 985.95,615.46 988.89,617.30 991.84,619.15 994.78,620.99 997.73,622.84 1000.68,624.68 1003.62,626.53 1006.57,628.37 1009.51,630.21 1012.46,632.04 1015.40,633.89 1018.35,635.73 1021.29,637.58 1024.24,639.42 1027.18,641.26 1030.13,643.11 1033.07,644.95 1036.02,646.80 1038.97,648.64 1041.91,650.49 1044.86,652.33 1047.80,653.25 1050.75,654.17 1053.69,655.10 1056.64,656.02 1059.58,656.94 1062.53,657.86 1065.47,658.79 1068.42,659.71 1071.36,660.63 1074.31,661.55" fill="none" stroke="#000000" stroke-width="3"/>
<line x1="142" y1="100" x2="178" y2="100" stroke="#000000" stroke-width="4"/>
<text x="188" y="105" font-family="Arial" font-size="18" fill="black">p</text>
</svg>