<svg xmlns="http://www.w3.org/2000/svg" width="1200" height="820" viewBox="0 0 1200 820">
<rect width="100%" height="100%" fill="white"/>
<text x="600.0" y="36" text-anchor="middle" font-family="Arial" font-size="24" fill="black">profile_center_x: T</text>
<line x1="120.00" y1="75" x2="120.00" y2="705" stroke="#dddddd" stroke-width="1"/>
<text x="120.00" y="737" text-anchor="middle" font-family="Arial" font-size="16" fill="black">-0.560</text>
<line x1="376.25" y1="75" x2="376.25" y2="705" stroke="#dddddd" stroke-width="1"/>
<text x="376.25" y="737" text-anchor="middle" font-family="Arial" font-size="16" fill="black">1.470</text>
<line x1="632.50" y1="75" x2="632.50" y2="705" stroke="#dddddd" stroke-width="1"/>
<text x="632.50" y="737" text-anchor="middle" font-family="Arial" font-size="16" fill="black">3.500</text>
<line x1="888.75" y1="75" x2="888.75" y2="705" stroke="#dddddd" stroke-width="1"/>
<text x="888.75" y="737" text-anchor="middle" font-family="Arial" font-size="16" fill="black">5.530</text>
<line x1="1145.00" y1="75" x2="1145.00" y2="705" stroke="#dddddd" stroke-width="1"/>
<text x="1145.00" y="737" text-anchor="middle" font-family="Arial" font-size="16" fill="black">7.560</text>
<line x1="120" y1="705.00" x2="1145" y2="705.00" stroke="#dddddd" stroke-width="1"/>
<text x="104" y="710.00" text-anchor="end" font-family="Arial" font-size="16" fill="black">300.0</text>
<line x1="120" y1="547.50" x2="1145" y2="547.50" stroke="#dddddd" stroke-width="1"/>
<text x="104" y="552.50" text-anchor="end" font-family="Arial" font-size="16" fill="black">304.0</text>
<line x1="120" y1="390.00" x2="1145" y2="390.00" stroke="#dddddd" stroke-width="1"/>
<text x="104" y="395.00" text-anchor="end" font-family="Arial" font-size="16" fill="black">308.0</text>
<line x1="120" y1="232.50" x2="1145" y2="232.50" stroke="#dddddd" stroke-width="1"/>
<text x="104" y="237.50" text-anchor="end" font-family="Arial" font-size="16" fill="black">312.0</text>
<line x1="120" y1="75.00" x2="1145" y2="75.00" stroke="#dddddd" stroke-width="1"/>
<text x="104" y="80.00" text-anchor="end" font-family="Arial" font-size="16" fill="black">316.0</text>
<rect x="120" y="75" width="1025" height="630" fill="none" stroke="black" stroke-width="2"/>
<text x="632.5" y="785" text-anchor="middle" font-family="Arial" font-size="20" fill="black">x coordinate [m]</text>
<text x="34" y="390.0" transform="rotate(-90 34 390.0)" text-anchor="middle" font-family="Arial" font-size="20" fill="black">T [K]</text>
<polyline points="190.69,172.37 193.64,173.15 196.58,173.55 199.53,174.33 202.47,174.73 205.42,177.09 208.36,179.84 211.31,182.60 214.25,185.35 217.20,189.29 220.14,195.58 223.09,201.49 226.03,207.39 228.98,214.08 231.93,222.35 234.87,231.00 237.82,239.66 240.76,248.32 243.71,258.16 246.65,268.00 249.60,277.84 252.54,287.68 255.49,297.12 258.43,306.17 261.38,315.62 264.32,325.06 267.27,333.72 270.22,340.81 273.16,348.28 276.11,355.37 279.05,362.84 282.00,366.39 284.94,370.32 287.89,374.26 290.83,378.19 293.78,378.98 296.72,378.98 299.67,378.59 302.62,378.59 305.56,376.62 308.51,372.29 311.45,367.96 314.40,364.03 317.34,359.30 320.29,352.22 323.23,345.13 326.17,338.05 329.13,330.97 332.07,322.31 335.01,313.26 337.96,304.21 340.91,295.55 343.85,286.10 346.80,276.66 349.74,267.21 352.68,257.37 355.64,247.93 358.58,238.88 361.52,229.82 364.47,220.77 367.41,211.33 370.35,203.46 373.31,195.98 376.25,188.11 379.19,180.24 382.15,173.55 385.09,167.64 388.03,161.74 390.98,155.84 393.92,150.72 396.86,146.39 399.82,142.46 402.76,138.52 405.70,134.58 408.65,132.22 411.59,129.86 414.54,127.50 417.49,124.75 420.43,123.56 423.37,122.38 426.33,121.20 429.27,120.02 432.21,119.24 435.16,119.24 438.10,118.84 441.04,118.45 444.00,118.45 446.94,118.84 449.88,119.24 452.83,119.63 455.78,120.02 458.72,120.81 461.67,121.60 464.61,122.78 467.55,123.56 470.51,124.75 473.45,125.93 476.39,127.11 479.34,128.29 482.28,129.47 485.23,130.65 488.18,132.22 491.12,133.80 494.06,134.98 497.02,136.55 499.96,138.13 502.90,139.70 505.85,141.27 508.79,142.85 511.73,144.82 514.69,146.39 517.63,147.96 520.57,149.54 523.52,151.51 526.47,153.08 529.41,154.66 532.36,156.23 535.30,157.80 538.24,159.77 541.20,161.35 544.14,162.92 547.08,164.49 550.03,166.07 552.97,167.64 555.92,169.22 558.87,170.40 561.81,171.97 564.75,173.15 567.71,174.33 570.65,175.51 573.59,176.69 576.54,177.87 579.48,179.06 582.42,179.84 585.38,180.63 588.32,181.42 591.26,182.20 594.21,182.99 597.16,183.78 600.10,184.17 603.05,184.57 605.99,185.35 608.93,185.75 611.89,186.14 614.83,186.53 617.77,186.93 620.72,187.32 623.66,188.11 626.60,188.50 629.56,188.89 632.50,189.68 635.44,190.47 638.40,191.65 641.34,192.83 644.28,193.62 647.23,195.19 650.17,196.77 653.11,198.34 656.07,200.31 659.01,201.88 661.95,204.24 664.90,206.60 667.84,208.57 670.79,210.93 673.74,213.29 676.68,215.66 679.62,218.02 682.58,220.77 685.52,223.13 688.46,225.10 691.41,227.46 694.35,229.82 697.29,231.79 700.25,233.76 703.19,235.73 706.13,237.69 709.08,239.27 712.03,241.24 714.97,242.81 717.92,244.39 720.86,245.96 723.80,247.93 726.76,249.90 729.70,251.86 732.64,253.44 735.59,256.19 738.53,258.95 741.48,261.70 744.43,264.85 747.37,268.39 750.31,272.72 753.27,277.05 756.21,281.38 759.15,286.10 762.10,292.40 765.04,298.30 767.98,304.60 770.94,310.50 773.88,317.98 776.82,325.46 779.77,332.93 782.72,340.81 785.66,349.07 788.61,357.34 791.55,365.99 794.49,374.65 797.45,383.31 800.39,391.97 803.33,401.02 806.28,409.68 809.22,418.34 812.17,426.60 815.12,434.87 818.06,443.52 821.00,451.79 823.96,459.66 826.90,467.92 829.84,475.79 832.79,483.67 835.73,491.93 838.67,499.80 841.63,508.07 844.57,515.94 847.51,524.20 850.46,532.47 853.41,540.73 856.35,549.39 859.30,557.65 862.24,566.31 865.18,574.97 868.14,583.63 871.08,592.29 874.02,600.94 876.97,609.60 879.91,618.26 882.85,626.92 885.81,634.79 888.75,641.09 891.69,647.38 894.65,653.68 897.59,659.98 900.53,660.37 903.48,660.76 906.42,661.16 909.36,661.55 912.32,656.83 915.26,650.14 918.20,643.45 921.15,636.76 924.09,628.49 927.04,618.26 929.99,607.63 932.93,597.40 935.87,587.17 938.83,578.12 941.77,569.46 944.71,560.41 947.66,551.36 950.60,545.85 953.54,541.12 956.50,536.01 959.44,530.89 962.38,528.14 965.33,526.96 968.28,525.78 971.22,524.60 974.17,524.20 977.11,525.38 980.05,526.96 983.01,528.53 985.95,529.71 988.89,532.86 991.84,535.61 994.78,538.76 997.73,541.52 1000.68,544.67 1003.62,548.21 1006.56,551.75 1009.52,554.90 1012.46,558.44 1015.40,561.59 1018.35,564.74 1021.29,567.89 1024.23,571.03 1027.19,573.40 1030.13,576.15 1033.07,578.51 1036.02,580.87 1038.97,582.05 1041.91,583.23 1044.86,584.42 1047.80,585.60 1050.74,585.60 1053.70,584.81 1056.64,584.02 1059.58,582.84 1062.53,582.05 1065.47,581.27 1068.42,580.09 1071.37,579.30 1074.31,578.12" fill="none" stroke="#000000" stroke-width="3"/>
<line x1="142" y1="100" x2="178" y2="100" stroke="#000000" stroke-width="4"/>
<text x="188" y="105" font-family="Arial" font-size="18" fill="black">T</text>
</svg>