<svg xmlns="http://www.w3.org/2000/svg" width="1200" height="820" viewBox="0 0 1200 820">
<rect width="100%" height="100%" fill="white"/>
<text x="600.0" y="36" text-anchor="middle" font-family="Arial" font-size="24" fill="black">profile_near_floor_x: U:0</text>
<line x1="120.00" y1="75" x2="120.00" y2="705" stroke="#dddddd" stroke-width="1"/>
<text x="120.00" y="737" text-anchor="middle" font-family="Arial" font-size="16" fill="black">-0.560</text>
<line x1="376.25" y1="75" x2="376.25" y2="705" stroke="#dddddd" stroke-width="1"/>
<text x="376.25" y="737" text-anchor="middle" font-family="Arial" font-size="16" fill="black">1.470</text>
<line x1="632.50" y1="75" x2="632.50" y2="705" stroke="#dddddd" stroke-width="1"/>
<text x="632.50" y="737" text-anchor="middle" font-family="Arial" font-size="16" fill="black">3.500</text>
<line x1="888.75" y1="75" x2="888.75" y2="705" stroke="#dddddd" stroke-width="1"/>
<text x="888.75" y="737" text-anchor="middle" font-family="Arial" font-size="16" fill="black">5.530</text>
<line x1="1145.00" y1="75" x2="1145.00" y2="705" stroke="#dddddd" stroke-width="1"/>
<text x="1145.00" y="737" text-anchor="middle" font-family="Arial" font-size="16" fill="black">7.560</text>
<line x1="120" y1="705.00" x2="1145" y2="705.00" stroke="#dddddd" stroke-width="1"/>
<text x="104" y="710.00" text-anchor="end" font-family="Arial" font-size="16" fill="black">-0.139</text>
<line x1="120" y1="547.50" x2="1145" y2="547.50" stroke="#dddddd" stroke-width="1"/>
<text x="104" y="552.50" text-anchor="end" font-family="Arial" font-size="16" fill="black">-0.085</text>
<line x1="120" y1="390.00" x2="1145" y2="390.00" stroke="#dddddd" stroke-width="1"/>
<text x="104" y="395.00" text-anchor="end" font-family="Arial" font-size="16" fill="black">-0.031</text>
<line x1="120" y1="232.50" x2="1145" y2="232.50" stroke="#dddddd" stroke-width="1"/>
<text x="104" y="237.50" text-anchor="end" font-family="Arial" font-size="16" fill="black">0.023</text>
<line x1="120" y1="75.00" x2="1145" y2="75.00" stroke="#dddddd" stroke-width="1"/>
<text x="104" y="80.00" text-anchor="end" font-family="Arial" font-size="16" fill="black">0.077</text>
<rect x="120" y="75" width="1025" height="630" fill="none" stroke="black" stroke-width="2"/>
<text x="632.5" y="785" text-anchor="middle" font-family="Arial" font-size="20" fill="black">x coordinate [m]</text>
<text x="34" y="390.0" transform="rotate(-90 34 390.0)" text-anchor="middle" font-family="Arial" font-size="20" fill="black">U:0 [SI]</text>
<polyline points="190.69,386.66 193.64,394.17 196.58,401.68 199.53,409.19 202.47,416.71 205.42,430.55 208.36,446.93 211.31,463.31 214.25,479.69 217.20,494.48 220.14,507.15 223.09,519.81 226.03,532.48 228.98,544.17 231.93,550.05 234.87,555.94 237.82,561.82 240.76,567.71 243.71,569.97 246.65,571.62 249.60,573.28 252.54,574.93 255.49,574.31 258.43,571.98 261.38,569.65 264.32,567.32 267.27,564.77 270.22,561.66 273.16,558.55 276.11,555.44 279.05,552.33 282.00,547.27 284.94,542.21 287.89,537.15 290.83,532.09 293.78,543.90 296.72,562.45 299.67,581.01 302.62,599.58 305.56,613.11 308.51,619.97 311.45,626.87 314.40,633.73 317.34,635.66 320.29,607.96 323.23,580.29 326.17,552.60 329.13,524.91 332.07,502.40 335.01,480.74 337.96,459.08 340.91,437.42 343.85,419.56 346.80,404.55 349.74,389.54 352.68,374.53 355.64,361.06 358.58,351.42 361.52,341.78 364.47,332.14 367.41,322.50 370.35,314.54 373.31,306.57 376.25,298.61 379.19,290.64 382.15,284.16 385.09,278.28 388.03,272.40 390.98,266.51 393.92,258.46 396.86,247.50 399.82,236.54 402.76,225.59 405.70,217.16 408.65,223.96 411.59,230.75 414.54,237.55 417.49,244.35 420.43,284.25 423.37,329.68 426.33,375.10 429.27,420.53 432.21,450.19 435.16,468.03 438.10,485.86 441.04,503.70 444.00,508.98 446.94,482.87 449.88,456.76 452.83,430.64 455.78,404.53 458.72,374.02 461.67,343.51 464.61,313.00 467.55,282.49 470.51,255.96 473.45,231.03 476.39,206.09 479.34,181.16 482.28,162.06 485.23,150.73 488.18,139.41 491.12,128.08 494.06,118.45 497.02,118.95 499.96,119.44 502.90,119.94 505.85,120.43 508.79,128.55 511.73,137.94 514.69,147.34 517.63,156.73 520.57,166.61 523.52,176.85 526.47,187.09 529.41,197.34 532.36,204.09 535.30,202.12 538.24,200.15 541.20,198.18 544.14,196.21 547.08,184.76 550.03,173.31 552.97,161.86 555.92,150.41 558.87,156.39 561.81,169.35 564.75,182.30 567.71,195.25 570.65,214.59 573.59,242.45 576.54,270.31 579.48,298.17 582.42,322.55 585.38,326.04 588.32,329.53 591.26,333.03 594.21,336.52 597.16,332.21 600.10,326.59 603.05,320.98 605.99,315.37 608.93,312.26 611.89,311.04 614.83,309.82 617.77,308.59 620.72,306.74 623.66,303.32 626.60,299.89 629.56,296.46 632.50,293.04 635.44,288.31 638.40,283.58 641.34,278.85 644.28,274.12 647.23,270.30 650.17,266.84 653.11,263.37 656.07,259.90 659.01,253.72 661.95,243.89 664.90,234.06 667.84,224.24 670.79,217.25 673.74,227.34 676.68,237.42 679.62,247.51 682.58,257.59 685.52,308.16 688.46,365.47 691.41,422.78 694.35,480.10 697.29,525.98 700.25,563.30 703.19,600.63 706.13,637.94 709.08,661.55 712.03,650.94 714.97,640.31 717.92,629.70 720.86,619.07 723.80,593.35 726.76,567.65 729.70,541.93 732.64,516.22 735.59,486.35 738.53,454.82 741.48,423.28 744.43,391.74 747.37,362.59 750.31,336.61 753.27,310.63 756.21,284.65 759.15,260.38 762.10,246.40 765.04,232.42 767.98,218.44 770.94,204.45 773.88,199.40 776.82,195.83 779.77,192.26 782.72,188.69 785.66,187.66 788.61,188.55 791.55,189.43 794.49,190.32 797.45,190.13 800.39,187.26 803.33,184.38 806.28,181.50 809.22,178.63 812.17,169.97 815.12,161.31 818.06,152.66 821.00,144.00 823.96,150.70 826.90,163.56 829.84,176.41 832.79,189.26 835.73,209.09 838.67,238.21 841.63,267.33 844.57,296.45 847.51,321.91 850.46,325.46 853.41,329.01 856.35,332.55 859.30,336.10 862.24,330.20 865.18,322.71 868.14,315.23 871.08,307.75 874.02,303.74 876.97,302.34 879.91,300.93 882.85,299.53 885.81,297.71 888.75,294.88 891.69,292.04 894.65,289.21 897.59,286.38 900.53,282.90 903.48,279.42 906.42,275.94 909.36,272.46 912.32,267.60 915.26,262.19 918.20,256.78 921.15,251.36 924.09,242.64 927.04,229.50 929.99,216.36 932.93,203.22 935.87,190.68 938.83,181.69 941.77,172.71 944.71,163.73 947.66,154.75 950.60,177.81 953.54,206.22 956.50,234.63 959.44,263.04 962.38,288.90 965.33,312.84 968.28,336.78 971.22,360.72 974.17,375.89 977.11,369.12 980.05,362.35 983.01,355.57 985.95,348.80 988.89,342.68 991.84,336.57 994.78,330.45 997.73,324.33 1000.68,320.16 1003.62,316.76 1006.56,313.37 1009.52,309.97 1012.46,308.15 1015.40,308.41 1018.35,308.67 1021.29,308.94 1024.23,309.43 1027.19,311.35 1030.13,313.27 1033.07,315.18 1036.02,317.10 1038.97,318.88 1041.91,320.63 1044.86,322.38 1047.80,324.14 1050.74,324.65 1053.70,324.23 1056.64,323.81 1059.58,323.39 1062.53,322.80 1065.47,321.75 1068.42,320.71 1071.37,319.66 1074.31,318.62" fill="none" stroke="#000000" stroke-width="3"/>
<line x1="142" y1="100" x2="178" y2="100" stroke="#000000" stroke-width="4"/>
<text x="188" y="105" font-family="Arial" font-size="18" fill="black">U:0</text>
</svg>