<svg xmlns="http://www.w3.org/2000/svg" width="1200" height="820" viewBox="0 0 1200 820">
<rect width="100%" height="100%" fill="white"/>
<text x="600.0" y="36" text-anchor="middle" font-family="Arial" font-size="24" fill="black">profile_near_floor_x: U:2</text>
<line x1="120.00" y1="75" x2="120.00" y2="705" stroke="#dddddd" stroke-width="1"/>
<text x="120.00" y="737" text-anchor="middle" font-family="Arial" font-size="16" fill="black">-0.560</text>
<line x1="376.25" y1="75" x2="376.25" y2="705" stroke="#dddddd" stroke-width="1"/>
<text x="376.25" y="737" text-anchor="middle" font-family="Arial" font-size="16" fill="black">1.470</text>
<line x1="632.50" y1="75" x2="632.50" y2="705" stroke="#dddddd" stroke-width="1"/>
<text x="632.50" y="737" text-anchor="middle" font-family="Arial" font-size="16" fill="black">3.500</text>
<line x1="888.75" y1="75" x2="888.75" y2="705" stroke="#dddddd" stroke-width="1"/>
<text x="888.75" y="737" text-anchor="middle" font-family="Arial" font-size="16" fill="black">5.530</text>
<line x1="1145.00" y1="75" x2="1145.00" y2="705" stroke="#dddddd" stroke-width="1"/>
<text x="1145.00" y="737" text-anchor="middle" font-family="Arial" font-size="16" fill="black">7.560</text>
<line x1="120" y1="705.00" x2="1145" y2="705.00" stroke="#dddddd" stroke-width="1"/>
<text x="104" y="710.00" text-anchor="end" font-family="Arial" font-size="16" fill="black">-0.175</text>
<line x1="120" y1="547.50" x2="1145" y2="547.50" stroke="#dddddd" stroke-width="1"/>
<text x="104" y="552.50" text-anchor="end" font-family="Arial" font-size="16" fill="black">0.066</text>
<line x1="120" y1="390.00" x2="1145" y2="390.00" stroke="#dddddd" stroke-width="1"/>
<text x="104" y="395.00" text-anchor="end" font-family="Arial" font-size="16" fill="black">0.307</text>
<line x1="120" y1="232.50" x2="1145" y2="232.50" stroke="#dddddd" stroke-width="1"/>
<text x="104" y="237.50" text-anchor="end" font-family="Arial" font-size="16" fill="black">0.548</text>
<line x1="120" y1="75.00" x2="1145" y2="75.00" stroke="#dddddd" stroke-width="1"/>
<text x="104" y="80.00" text-anchor="end" font-family="Arial" font-size="16" fill="black">0.789</text>
<rect x="120" y="75" width="1025" height="630" fill="none" stroke="black" stroke-width="2"/>
<text x="632.5" y="785" text-anchor="middle" font-family="Arial" font-size="20" fill="black">x coordinate [m]</text>
<text x="34" y="390.0" transform="rotate(-90 34 390.0)" text-anchor="middle" font-family="Arial" font-size="20" fill="black">U:2 [SI]</text>
<polyline points="190.69,524.33 193.64,525.87 196.58,527.41 199.53,528.96 202.47,530.50 205.42,533.03 208.36,535.95 211.31,538.87 214.25,541.79 217.20,544.55 220.14,547.09 223.09,549.63 226.03,552.17 228.98,554.66 231.93,556.83 234.87,559.00 237.82,561.17 240.76,563.33 243.71,565.21 246.65,567.03 249.60,568.86 252.54,570.69 255.49,572.12 258.43,573.25 261.38,574.39 264.32,575.52 267.27,576.13 270.22,575.41 273.16,574.69 276.11,573.97 279.05,573.25 282.00,567.55 284.94,561.84 287.89,556.13 290.83,550.42 293.78,533.48 296.72,512.04 299.67,490.61 302.62,469.18 305.56,438.70 308.51,396.16 311.45,353.63 314.40,311.09 317.34,270.49 320.29,241.52 323.23,212.54 326.17,183.57 329.13,154.60 332.07,146.99 335.01,142.93 337.96,138.87 340.91,134.83 343.85,132.43 346.80,131.28 349.74,130.13 352.68,128.98 355.64,128.03 358.58,127.57 361.52,127.12 364.47,126.67 367.41,126.21 370.35,125.93 373.31,125.64 376.25,125.36 379.19,125.07 382.15,124.66 385.09,124.20 388.03,123.73 390.98,123.27 393.92,123.10 396.86,123.31 399.82,123.53 402.76,123.75 405.70,129.70 408.65,170.12 411.59,210.54 414.54,250.96 417.49,291.37 420.43,344.44 423.37,399.62 426.33,454.80 429.27,509.98 432.21,545.37 435.16,565.91 438.10,586.46 441.04,607.00 444.00,623.92 446.94,631.78 449.88,639.63 452.83,647.48 455.78,655.34 458.72,656.89 461.67,658.44 464.61,660.00 467.55,661.55 470.51,659.45 473.45,655.89 476.39,652.32 479.34,648.76 482.28,644.54 485.23,639.45 488.18,634.35 491.12,629.26 494.06,624.23 497.02,619.56 499.96,614.88 502.90,610.21 505.85,605.54 508.79,602.74 511.73,600.25 514.69,597.76 517.63,595.27 520.57,595.62 523.52,598.11 526.47,600.60 529.41,603.09 532.36,606.86 535.30,613.84 538.24,620.82 541.20,627.79 544.14,634.77 547.08,637.85 550.03,640.93 552.97,644.02 555.92,647.10 558.87,636.06 561.81,619.37 564.75,602.68 567.71,585.99 570.65,550.90 573.59,491.28 576.54,431.66 579.48,372.05 582.42,314.49 585.38,269.36 588.32,224.22 591.26,179.08 594.21,133.94 597.16,126.62 600.10,125.60 603.05,124.58 605.99,123.56 608.93,123.22 611.89,123.40 614.83,123.58 617.77,123.76 620.72,123.85 623.66,123.73 626.60,123.60 629.56,123.48 632.50,123.35 635.44,123.07 638.40,122.79 641.34,122.52 644.28,122.24 647.23,121.69 650.17,121.03 653.11,120.36 656.07,119.70 659.01,119.23 661.95,118.98 664.90,118.75 667.84,118.51 670.79,124.35 673.74,166.70 676.68,209.04 679.62,251.38 682.58,293.73 685.52,344.92 688.46,397.59 691.41,450.25 694.35,502.92 697.29,533.90 700.25,548.60 703.19,563.30 706.13,578.01 709.08,590.71 712.03,598.39 714.97,606.08 717.92,613.76 720.86,621.45 723.80,627.30 726.76,633.16 729.70,639.01 732.64,644.87 735.59,648.30 738.53,650.76 741.48,653.22 744.43,655.67 747.37,656.53 750.31,655.26 753.27,653.98 756.21,652.71 759.15,651.17 762.10,648.04 765.04,644.91 767.98,641.78 770.94,638.65 773.88,635.98 776.82,633.40 779.77,630.81 782.72,628.22 785.66,627.28 788.61,627.56 791.55,627.85 794.49,628.14 797.45,629.42 800.39,633.19 803.33,636.96 806.28,640.73 809.22,644.50 812.17,646.40 815.12,648.30 818.06,650.20 821.00,652.10 823.96,642.92 826.90,629.31 829.84,615.69 832.79,602.08 835.73,568.32 838.67,507.73 841.63,447.13 844.57,386.53 847.51,327.56 850.46,278.39 853.41,229.22 856.35,180.06 859.30,130.89 862.24,122.75 865.18,121.44 868.14,120.14 871.08,118.83 874.02,118.45 876.97,118.76 879.91,119.07 882.85,119.38 885.81,119.68 888.75,119.99 891.69,120.29 894.65,120.60 897.59,120.90 900.53,121.31 903.48,121.71 906.42,122.12 909.36,122.52 912.32,123.06 915.26,123.64 918.20,124.23 921.15,124.81 924.09,126.17 927.04,128.55 929.99,130.93 932.93,133.31 935.87,140.73 938.83,178.45 941.77,216.16 944.71,253.88 947.66,291.59 950.60,343.93 953.54,398.70 956.50,453.46 959.44,508.24 962.38,544.98 965.33,568.20 968.28,591.41 971.22,614.63 974.17,632.18 977.11,635.57 980.05,638.96 983.01,642.34 985.95,645.73 988.89,643.32 991.84,640.91 994.78,638.50 997.73,636.10 1000.68,633.43 1003.62,630.65 1006.56,627.88 1009.52,625.11 1012.46,622.87 1015.40,621.34 1018.35,619.80 1021.29,618.27 1024.23,616.93 1027.19,616.70 1030.13,616.47 1033.07,616.25 1036.02,616.02 1038.97,616.68 1041.91,617.48 1044.86,618.29 1047.80,619.09 1050.74,620.39 1053.70,622.06 1056.64,623.73 1059.58,625.41 1062.53,626.90 1065.47,627.95 1068.42,629.00 1071.37,630.06 1074.31,631.11" fill="none" stroke="#000000" stroke-width="3"/>
<line x1="142" y1="100" x2="178" y2="100" stroke="#000000" stroke-width="4"/>
<text x="188" y="105" font-family="Arial" font-size="18" fill="black">U:2</text>
</svg>