<svg xmlns="http://www.w3.org/2000/svg" width="1200" height="820" viewBox="0 0 1200 820">
<rect width="100%" height="100%" fill="white"/>
<text x="600.0" y="36" text-anchor="middle" font-family="Arial" font-size="24" fill="black">profile_near_floor_x: T</text>
<line x1="120.00" y1="75" x2="120.00" y2="705" stroke="#dddddd" stroke-width="1"/>
<text x="120.00" y="737" text-anchor="middle" font-family="Arial" font-size="16" fill="black">-0.560</text>
<line x1="376.25" y1="75" x2="376.25" y2="705" stroke="#dddddd" stroke-width="1"/>
<text x="376.25" y="737" text-anchor="middle" font-family="Arial" font-size="16" fill="black">1.470</text>
<line x1="632.50" y1="75" x2="632.50" y2="705" stroke="#dddddd" stroke-width="1"/>
<text x="632.50" y="737" text-anchor="middle" font-family="Arial" font-size="16" fill="black">3.500</text>
<line x1="888.75" y1="75" x2="888.75" y2="705" stroke="#dddddd" stroke-width="1"/>
<text x="888.75" y="737" text-anchor="middle" font-family="Arial" font-size="16" fill="black">5.530</text>
<line x1="1145.00" y1="75" x2="1145.00" y2="705" stroke="#dddddd" stroke-width="1"/>
<text x="1145.00" y="737" text-anchor="middle" font-family="Arial" font-size="16" fill="black">7.560</text>
<line x1="120" y1="705.00" x2="1145" y2="705.00" stroke="#dddddd" stroke-width="1"/>
<text x="104" y="710.00" text-anchor="end" font-family="Arial" font-size="16" fill="black">293.5</text>
<line x1="120" y1="547.50" x2="1145" y2="547.50" stroke="#dddddd" stroke-width="1"/>
<text x="104" y="552.50" text-anchor="end" font-family="Arial" font-size="16" fill="black">299.0</text>
<line x1="120" y1="390.00" x2="1145" y2="390.00" stroke="#dddddd" stroke-width="1"/>
<text x="104" y="395.00" text-anchor="end" font-family="Arial" font-size="16" fill="black">304.4</text>
<line x1="120" y1="232.50" x2="1145" y2="232.50" stroke="#dddddd" stroke-width="1"/>
<text x="104" y="237.50" text-anchor="end" font-family="Arial" font-size="16" fill="black">309.9</text>
<line x1="120" y1="75.00" x2="1145" y2="75.00" stroke="#dddddd" stroke-width="1"/>
<text x="104" y="80.00" text-anchor="end" font-family="Arial" font-size="16" fill="black">315.4</text>
<rect x="120" y="75" width="1025" height="630" fill="none" stroke="black" stroke-width="2"/>
<text x="632.5" y="785" text-anchor="middle" font-family="Arial" font-size="20" fill="black">x coordinate [m]</text>
<text x="34" y="390.0" transform="rotate(-90 34 390.0)" text-anchor="middle" font-family="Arial" font-size="20" fill="black">T [K]</text>
<polyline points="190.69,121.04 193.64,120.75 196.58,120.46 199.53,120.17 202.47,119.89 205.42,119.60 208.36,119.02 211.31,118.74 214.25,118.45 217.20,118.45 220.14,119.02 223.09,119.60 226.03,119.89 228.98,120.75 231.93,122.76 234.87,124.77 237.82,126.79 240.76,128.80 243.71,132.82 246.65,137.14 249.60,141.45 252.54,145.76 255.49,152.09 258.43,159.85 261.38,167.61 264.32,175.37 267.27,184.58 270.22,197.23 273.16,209.59 276.11,222.24 279.05,234.89 282.00,253.86 284.94,272.84 287.89,291.82 290.83,311.08 293.78,339.54 296.72,372.32 299.67,404.81 302.62,437.30 305.56,470.65 308.51,504.86 311.45,539.07 314.40,573.29 317.34,604.63 320.29,618.14 323.23,631.65 326.17,644.88 329.13,658.39 332.07,660.40 335.01,660.69 337.96,660.98 340.91,661.26 343.85,661.55 346.80,661.55 349.74,661.55 352.68,661.55 355.64,661.55 358.58,661.55 361.52,661.55 364.47,661.55 367.41,661.55 370.35,661.55 373.31,661.55 376.25,661.55 379.19,661.55 382.15,661.55 385.09,661.55 388.03,661.55 390.98,661.55 393.92,661.26 396.86,660.98 399.82,660.69 402.76,660.40 405.70,658.68 408.65,646.60 411.59,634.53 414.54,622.74 417.49,610.66 420.43,596.57 423.37,582.20 426.33,568.11 429.27,553.74 432.21,545.69 435.16,542.81 438.10,539.65 441.04,536.77 444.00,533.61 446.94,529.87 449.88,526.14 452.83,522.40 455.78,518.66 458.72,510.03 461.67,501.70 464.61,493.36 467.55,485.02 470.51,476.68 473.45,468.35 476.39,460.01 479.34,451.67 482.28,444.48 485.23,439.02 488.18,433.56 491.12,428.09 494.06,422.92 497.02,419.76 499.96,416.59 502.90,413.43 505.85,410.27 508.79,408.83 511.73,407.68 514.69,406.24 517.63,405.09 520.57,405.09 523.52,406.24 526.47,407.11 529.41,407.97 532.36,410.27 535.30,415.16 538.24,420.04 541.20,425.22 544.14,430.11 547.08,438.45 550.03,446.78 552.97,454.83 555.92,463.17 558.87,472.95 561.81,483.30 564.75,493.65 567.71,504.00 570.65,518.66 573.59,539.07 576.54,559.20 579.48,579.61 582.42,599.16 585.38,613.83 588.32,628.49 591.26,643.15 594.21,657.81 597.16,660.11 600.10,660.69 603.05,660.98 605.99,661.26 608.93,661.55 611.89,661.55 614.83,661.55 617.77,661.55 620.72,661.55 623.66,661.55 626.60,661.55 629.56,661.55 632.50,661.55 635.44,661.55 638.40,661.55 641.34,661.55 644.28,661.55 647.23,661.55 650.17,661.55 653.11,661.55 656.07,661.55 659.01,661.55 661.95,661.26 664.90,660.98 667.84,660.98 670.79,659.54 673.74,651.20 676.68,642.58 679.62,634.24 682.58,625.90 685.52,616.99 688.46,608.36 691.41,599.45 694.35,590.82 697.29,587.09 700.25,587.09 703.19,587.09 706.13,587.37 709.08,587.66 712.03,588.24 714.97,589.10 717.92,589.96 720.86,590.54 723.80,589.67 726.76,589.10 729.70,588.24 732.64,587.37 735.59,585.36 738.53,583.06 741.48,580.47 744.43,577.89 747.37,575.30 750.31,572.14 753.27,568.97 756.21,565.81 759.15,562.94 762.10,560.06 765.04,557.47 767.98,554.89 770.94,552.01 773.88,550.00 776.82,548.27 779.77,546.26 782.72,544.25 785.66,543.10 788.61,542.52 791.55,541.66 794.49,541.09 797.45,540.80 800.39,542.24 803.33,543.39 806.28,544.82 809.22,545.97 812.17,548.85 815.12,551.72 818.06,554.60 821.00,557.47 823.96,561.21 826.90,565.24 829.84,569.26 832.79,573.57 835.73,580.47 838.67,591.40 841.63,602.32 844.57,613.54 847.51,624.18 850.46,632.80 853.41,641.71 856.35,650.34 859.30,659.25 862.24,660.69 865.18,660.98 868.14,661.26 871.08,661.55 874.02,661.55 876.97,661.55 879.91,661.55 882.85,661.55 885.81,661.55 888.75,661.55 891.69,661.55 894.65,661.55 897.59,661.55 900.53,661.55 903.48,661.55 906.42,661.55 909.36,661.55 912.32,661.55 915.26,661.55 918.20,661.55 921.15,661.55 924.09,661.26 927.04,660.98 929.99,660.40 932.93,659.83 935.87,656.95 938.83,637.69 941.77,618.71 944.71,599.74 947.66,580.76 950.60,549.71 953.54,516.36 956.50,483.30 959.44,449.95 962.38,422.92 965.33,400.78 968.28,378.36 971.22,356.22 974.17,336.95 977.11,325.74 980.05,314.53 983.01,303.32 985.95,291.82 988.89,288.37 991.84,284.92 994.78,281.47 997.73,277.73 1000.68,278.30 1003.62,280.03 1006.56,282.04 1009.52,283.77 1012.46,286.64 1015.40,291.24 1018.35,295.55 1021.29,300.15 1024.23,304.75 1027.19,310.50 1030.13,315.97 1033.07,321.72 1036.02,327.18 1038.97,333.22 1041.91,339.25 1044.86,345.29 1047.80,351.33 1050.74,357.37 1053.70,363.98 1056.64,370.31 1059.58,376.63 1062.53,382.09 1065.47,385.26 1068.42,388.71 1071.37,391.87 1074.31,395.32" fill="none" stroke="#000000" stroke-width="3"/>
<line x1="142" y1="100" x2="178" y2="100" stroke="#000000" stroke-width="4"/>
<text x="188" y="105" font-family="Arial" font-size="18" fill="black">T</text>
</svg>