<svg xmlns="http://www.w3.org/2000/svg" width="1200" height="820" viewBox="0 0 1200 820">
<rect width="100%" height="100%" fill="white"/>
<text x="600.0" y="36" text-anchor="middle" font-family="Arial" font-size="24" fill="black">profile_center_z: vorticity:1</text>
<line x1="120.00" y1="75" x2="120.00" y2="705" stroke="#dddddd" stroke-width="1"/>
<text x="120.00" y="737" text-anchor="middle" font-family="Arial" font-size="16" fill="black">-0.240</text>
<line x1="376.25" y1="75" x2="376.25" y2="705" stroke="#dddddd" stroke-width="1"/>
<text x="376.25" y="737" text-anchor="middle" font-family="Arial" font-size="16" fill="black">0.630</text>
<line x1="632.50" y1="75" x2="632.50" y2="705" stroke="#dddddd" stroke-width="1"/>
<text x="632.50" y="737" text-anchor="middle" font-family="Arial" font-size="16" fill="black">1.500</text>
<line x1="888.75" y1="75" x2="888.75" y2="705" stroke="#dddddd" stroke-width="1"/>
<text x="888.75" y="737" text-anchor="middle" font-family="Arial" font-size="16" fill="black">2.370</text>
<line x1="1145.00" y1="75" x2="1145.00" y2="705" stroke="#dddddd" stroke-width="1"/>
<text x="1145.00" y="737" text-anchor="middle" font-family="Arial" font-size="16" fill="black">3.240</text>
<line x1="120" y1="705.00" x2="1145" y2="705.00" stroke="#dddddd" stroke-width="1"/>
<text x="104" y="710.00" text-anchor="end" font-family="Arial" font-size="16" fill="black">-0.485</text>
<line x1="120" y1="547.50" x2="1145" y2="547.50" stroke="#dddddd" stroke-width="1"/>
<text x="104" y="552.50" text-anchor="end" font-family="Arial" font-size="16" fill="black">-0.301</text>
<line x1="120" y1="390.00" x2="1145" y2="390.00" stroke="#dddddd" stroke-width="1"/>
<text x="104" y="395.00" text-anchor="end" font-family="Arial" font-size="16" fill="black">-0.116</text>
<line x1="120" y1="232.50" x2="1145" y2="232.50" stroke="#dddddd" stroke-width="1"/>
<text x="104" y="237.50" text-anchor="end" font-family="Arial" font-size="16" fill="black">0.068</text>
<line x1="120" y1="75.00" x2="1145" y2="75.00" stroke="#dddddd" stroke-width="1"/>
<text x="104" y="80.00" text-anchor="end" font-family="Arial" font-size="16" fill="black">0.253</text>
<rect x="120" y="75" width="1025" height="630" fill="none" stroke="black" stroke-width="2"/>
<text x="632.5" y="785" text-anchor="middle" font-family="Arial" font-size="20" fill="black">z coordinate [m]</text>
<text x="34" y="390.0" transform="rotate(-90 34 390.0)" text-anchor="middle" font-family="Arial" font-size="20" fill="black">vorticity:1 [SI]</text>
<polyline points="190.69,334.21 193.64,333.53 196.58,332.84 199.53,332.16 202.47,331.48 205.42,330.80 208.36,330.11 211.31,329.43 214.25,328.75 217.20,328.07 220.14,327.38 223.09,326.82 226.03,326.25 228.98,325.68 231.93,325.11 234.87,324.54 237.82,323.97 240.76,323.41 243.71,322.84 246.65,322.27 249.60,321.70 252.54,322.07 255.49,322.44 258.43,322.80 261.38,323.17 264.32,323.54 267.27,323.90 270.22,324.27 273.16,324.64 276.11,325.01 279.05,325.37 282.00,326.20 284.94,327.04 287.89,327.87 290.83,328.70 293.78,329.53 296.72,330.36 299.67,331.19 302.61,332.02 305.56,332.85 308.51,333.68 311.45,334.84 314.40,336.00 317.34,337.15 320.29,338.31 323.23,339.46 326.18,340.62 329.12,341.77 332.07,342.93 335.01,344.09 337.96,345.24 340.91,341.81 343.85,338.38 346.80,334.95 349.74,331.52 352.69,328.09 355.63,324.66 358.58,321.23 361.52,317.80 364.47,314.37 367.41,310.94 370.36,302.49 373.30,294.04 376.25,285.60 379.20,277.15 382.14,268.70 385.09,260.26 388.03,251.81 390.98,243.36 393.92,234.92 396.87,226.47 399.81,221.86 402.76,217.25 405.70,212.63 408.65,208.02 411.59,203.40 414.54,198.80 417.49,194.18 420.43,189.57 423.38,184.96 426.32,180.34 429.27,182.28 432.21,184.22 435.16,186.16 438.10,188.09 441.05,190.03 443.99,191.97 446.94,193.91 449.89,195.85 452.83,197.79 455.78,199.72 458.72,205.02 461.67,210.31 464.61,215.60 467.56,220.89 470.50,226.18 473.45,231.48 476.39,236.77 479.34,242.06 482.28,247.35 485.23,252.65 488.18,259.79 491.12,266.93 494.07,274.07 497.01,281.22 499.96,288.36 502.90,295.50 505.85,302.64 508.79,309.79 511.74,316.93 514.68,324.07 517.63,332.06 520.57,340.05 523.52,348.04 526.47,356.04 529.41,364.03 532.36,372.02 535.30,380.01 538.25,388.00 541.19,395.99 544.14,403.98 547.08,411.45 550.03,418.93 552.97,426.40 555.92,433.87 558.86,441.35 561.81,448.83 564.76,456.29 567.70,463.77 570.65,471.25 573.59,478.71 576.54,484.58 579.48,490.43 582.43,496.28 585.37,502.13 588.32,507.99 591.26,513.84 594.21,519.70 597.16,525.55 600.10,531.41 603.05,537.26 605.99,540.70 608.94,544.15 611.88,547.60 614.83,551.04 617.77,554.48 620.72,557.93 623.66,561.37 626.61,564.82 629.55,568.27 632.50,571.71 635.45,572.41 638.39,573.11 641.34,573.81 644.28,574.51 647.23,575.21 650.17,575.91 653.12,576.61 656.06,577.31 659.01,578.02 661.95,578.72 664.90,576.98 667.84,575.25 670.79,573.51 673.74,571.78 676.68,570.05 679.63,568.32 682.57,566.58 685.52,564.85 688.46,563.11 691.41,561.38 694.35,557.79 697.30,554.19 700.24,550.61 703.19,547.01 706.14,543.42 709.08,539.82 712.03,536.23 714.97,532.64 717.92,529.05 720.86,525.45 723.81,520.44 726.75,515.42 729.70,510.40 732.64,505.39 735.59,500.37 738.53,495.36 741.48,490.34 744.43,485.32 747.37,480.30 750.32,475.29 753.26,469.26 756.21,463.22 759.15,457.18 762.10,451.15 765.04,445.11 767.99,439.08 770.93,433.05 773.88,427.00 776.82,420.97 779.77,414.94 782.72,408.44 785.66,401.94 788.61,395.45 791.55,388.95 794.50,382.46 797.44,375.96 800.39,369.46 803.33,362.96 806.28,356.46 809.22,349.97 812.17,343.68 815.11,337.39 818.06,331.11 821.01,324.82 823.95,318.53 826.90,312.25 829.84,305.96 832.79,299.67 835.73,293.39 838.68,287.10 841.62,281.69 844.57,276.29 847.51,270.88 850.46,265.48 853.41,260.07 856.35,254.66 859.30,249.26 862.24,243.85 865.19,238.44 868.13,233.04 871.08,229.06 874.02,225.09 876.97,221.12 879.91,217.15 882.86,213.17 885.80,209.20 888.75,205.23 891.70,201.26 894.64,197.29 897.59,193.31 900.53,191.06 903.48,188.81 906.42,186.56 909.37,184.32 912.31,182.07 915.26,179.82 918.20,177.57 921.15,175.32 924.09,173.07 927.04,170.82 929.99,169.70 932.93,168.59 935.88,167.47 938.82,166.36 941.77,165.24 944.71,164.12 947.66,163.01 950.60,161.89 953.55,160.77 956.49,159.65 959.44,157.89 962.39,156.12 965.33,154.35 968.28,152.59 971.22,150.82 974.17,149.05 977.11,147.28 980.06,145.52 983.00,143.76 985.95,141.99 988.89,139.64 991.84,137.28 994.78,134.93 997.73,132.57 1000.68,130.22 1003.62,127.86 1006.57,125.51 1009.51,123.16 1012.46,120.80 1015.40,118.45 1018.35,145.09 1021.29,171.73 1024.24,198.37 1027.18,225.02 1030.13,251.66 1033.07,278.30 1036.02,304.94 1038.97,331.58 1041.91,358.23 1044.86,384.86 1047.80,412.54 1050.75,440.21 1053.69,467.87 1056.64,495.54 1059.58,523.21 1062.53,550.88 1065.47,578.54 1068.42,606.21 1071.36,633.89 1074.31,661.55" fill="none" stroke="#000000" stroke-width="3"/>
<line x1="142" y1="100" x2="178" y2="100" stroke="#000000" stroke-width="4"/>
<text x="188" y="105" font-family="Arial" font-size="18" fill="black">vorticity:1</text>
</svg>