<svg xmlns="http://www.w3.org/2000/svg" width="1200" height="820" viewBox="0 0 1200 820">
<rect width="100%" height="100%" fill="white"/>
<text x="600.0" y="36" text-anchor="middle" font-family="Arial" font-size="24" fill="black">profile_center_x: alphat</text>
<line x1="120.00" y1="75" x2="120.00" y2="705" stroke="#dddddd" stroke-width="1"/>
<text x="120.00" y="737" text-anchor="middle" font-family="Arial" font-size="16" fill="black">-0.560</text>
<line x1="376.25" y1="75" x2="376.25" y2="705" stroke="#dddddd" stroke-width="1"/>
<text x="376.25" y="737" text-anchor="middle" font-family="Arial" font-size="16" fill="black">1.470</text>
<line x1="632.50" y1="75" x2="632.50" y2="705" stroke="#dddddd" stroke-width="1"/>
<text x="632.50" y="737" text-anchor="middle" font-family="Arial" font-size="16" fill="black">3.500</text>
<line x1="888.75" y1="75" x2="888.75" y2="705" stroke="#dddddd" stroke-width="1"/>
<text x="888.75" y="737" text-anchor="middle" font-family="Arial" font-size="16" fill="black">5.530</text>
<line x1="1145.00" y1="75" x2="1145.00" y2="705" stroke="#dddddd" stroke-width="1"/>
<text x="1145.00" y="737" text-anchor="middle" font-family="Arial" font-size="16" fill="black">7.560</text>
<line x1="120" y1="705.00" x2="1145" y2="705.00" stroke="#dddddd" stroke-width="1"/>
<text x="104" y="710.00" text-anchor="end" font-family="Arial" font-size="16" fill="black">-8.01e-04</text>
<line x1="120" y1="547.50" x2="1145" y2="547.50" stroke="#dddddd" stroke-width="1"/>
<text x="104" y="552.50" text-anchor="end" font-family="Arial" font-size="16" fill="black">0.005</text>
<line x1="120" y1="390.00" x2="1145" y2="390.00" stroke="#dddddd" stroke-width="1"/>
<text x="104" y="395.00" text-anchor="end" font-family="Arial" font-size="16" fill="black">0.011</text>
<line x1="120" y1="232.50" x2="1145" y2="232.50" stroke="#dddddd" stroke-width="1"/>
<text x="104" y="237.50" text-anchor="end" font-family="Arial" font-size="16" fill="black">0.018</text>
<line x1="120" y1="75.00" x2="1145" y2="75.00" stroke="#dddddd" stroke-width="1"/>
<text x="104" y="80.00" text-anchor="end" font-family="Arial" font-size="16" fill="black">0.024</text>
<rect x="120" y="75" width="1025" height="630" fill="none" stroke="black" stroke-width="2"/>
<text x="632.5" y="785" text-anchor="middle" font-family="Arial" font-size="20" fill="black">x coordinate [m]</text>
<text x="34" y="390.0" transform="rotate(-90 34 390.0)" text-anchor="middle" font-family="Arial" font-size="20" fill="black">alphat [SI]</text>
<polyline points="190.69,661.55 193.64,648.50 196.58,635.46 199.53,622.41 202.47,609.36 205.42,588.62 208.36,564.80 211.31,540.98 214.25,517.16 217.20,495.05 220.14,475.21 223.09,455.37 226.03,435.53 228.98,416.15 231.93,399.57 234.87,382.98 237.82,366.40 240.76,349.81 243.71,335.54 246.65,321.64 249.60,307.75 252.54,293.86 255.49,281.17 258.43,269.33 261.38,257.51 264.32,245.69 267.27,234.41 270.22,224.44 273.16,214.50 276.11,204.55 279.05,194.58 282.00,186.61 284.94,178.64 287.89,170.64 290.83,162.67 293.78,156.26 296.72,150.49 299.67,144.72 302.62,138.95 305.56,134.24 308.51,130.91 311.45,127.57 314.40,124.27 317.34,121.29 320.29,120.58 323.23,119.88 326.17,119.17 329.13,118.45 332.07,119.96 335.01,121.86 337.96,123.75 340.91,125.63 343.85,128.86 346.80,133.08 349.74,137.31 352.68,141.54 355.64,146.26 358.58,152.28 361.52,158.31 364.47,164.33 367.41,170.36 370.35,177.46 373.31,184.58 376.25,191.68 379.19,198.78 382.15,206.09 385.09,213.47 388.03,220.83 390.98,228.21 393.92,235.31 396.86,242.03 399.82,248.77 402.76,255.48 405.70,261.99 408.65,267.22 411.59,272.43 414.54,277.66 417.49,282.86 420.43,286.27 423.37,289.37 426.33,292.45 429.27,295.55 432.21,297.34 435.16,298.14 438.10,298.96 441.04,299.75 444.00,299.98 446.94,298.78 449.88,297.55 452.83,296.32 455.78,295.11 458.72,292.40 461.67,289.68 464.61,286.94 467.55,284.22 470.51,280.89 473.45,277.30 476.39,273.68 479.34,270.10 482.28,266.35 485.23,262.38 488.18,258.41 491.12,254.43 494.06,250.46 497.02,246.33 499.96,242.21 502.90,238.08 505.85,233.93 508.79,229.72 511.73,225.47 514.69,221.24 517.63,217.01 520.57,212.78 523.52,208.58 526.47,204.37 529.41,200.17 532.36,196.09 535.30,192.27 538.24,188.45 541.20,184.66 544.14,180.84 547.08,177.89 550.03,174.94 552.97,171.97 555.92,169.02 558.87,167.00 561.81,165.33 564.75,163.67 567.71,162.00 570.65,161.08 573.59,161.10 576.54,161.13 579.48,161.15 582.42,161.46 585.38,163.51 588.32,165.56 591.26,167.61 594.21,169.66 597.16,173.53 600.10,177.71 603.05,181.87 605.99,186.04 608.93,191.20 611.89,197.07 614.83,202.96 617.77,208.83 620.72,214.93 623.66,221.57 626.60,228.18 629.56,234.82 632.50,241.46 635.44,247.69 638.40,253.89 641.34,260.12 644.28,266.35 647.23,271.56 650.17,276.38 653.11,281.17 656.07,285.99 659.01,289.94 661.95,292.73 664.90,295.52 667.84,298.32 670.79,300.85 673.74,301.68 676.68,302.52 679.62,303.34 682.58,304.19 685.52,303.88 688.46,303.37 691.41,302.88 694.35,302.37 697.29,301.65 700.25,300.78 703.19,299.91 706.13,299.04 709.08,298.34 712.03,298.09 714.97,297.83 717.92,297.55 720.86,297.29 723.80,298.29 726.76,299.32 729.70,300.32 732.64,301.32 735.59,303.39 738.53,305.88 741.48,308.37 744.43,310.85 747.37,313.93 750.31,317.75 753.27,321.59 756.21,325.41 759.15,329.38 762.10,334.23 765.04,339.05 767.98,343.87 770.94,348.71 773.88,353.97 776.82,359.30 779.77,364.61 782.72,369.94 785.66,375.19 788.61,380.40 791.55,385.60 794.49,390.80 797.45,395.75 800.39,400.13 803.33,404.52 806.28,408.90 809.22,413.28 812.17,416.38 815.12,419.46 818.06,422.54 821.00,425.61 823.96,427.74 826.90,429.45 829.84,431.18 832.79,432.91 835.73,434.25 838.67,435.06 841.63,435.87 844.57,436.69 847.51,437.46 850.46,438.02 853.41,438.57 856.35,439.12 859.30,439.68 862.24,440.42 865.18,441.19 868.14,441.96 871.08,442.74 874.02,443.68 876.97,444.76 879.91,445.84 882.85,446.91 885.81,448.01 888.75,449.17 891.69,450.32 894.65,451.48 897.59,452.63 900.53,453.57 903.48,454.50 906.42,455.44 909.36,456.37 912.32,457.00 915.26,457.50 918.20,457.99 921.15,458.49 924.09,458.75 927.04,458.66 929.99,458.58 932.93,458.50 935.87,458.31 938.83,457.48 941.77,456.66 944.71,455.84 947.66,455.01 950.60,453.52 953.54,451.91 956.50,450.30 959.44,448.70 962.38,446.81 965.33,444.72 968.28,442.63 971.22,440.53 974.17,438.49 977.11,436.54 980.05,434.60 983.01,432.66 985.95,430.72 988.89,429.94 991.84,429.16 994.78,428.38 997.73,427.59 1000.68,428.39 1003.62,429.82 1006.56,431.24 1009.52,432.67 1012.46,435.34 1015.40,439.66 1018.35,443.99 1021.29,448.31 1024.23,453.16 1027.19,461.19 1030.13,469.22 1033.07,477.26 1036.02,485.29 1038.97,497.57 1041.91,510.57 1044.86,523.56 1047.80,536.56 1050.74,552.18 1053.70,569.78 1056.64,587.37 1059.58,604.97 1062.53,620.30 1065.47,629.98 1068.42,639.66 1071.37,649.33 1074.31,659.01" fill="none" stroke="#000000" stroke-width="3"/>
<line x1="142" y1="100" x2="178" y2="100" stroke="#000000" stroke-width="4"/>
<text x="188" y="105" font-family="Arial" font-size="18" fill="black">alphat</text>
</svg>