<svg xmlns="http://www.w3.org/2000/svg" width="1200" height="820" viewBox="0 0 1200 820">
<rect width="100%" height="100%" fill="white"/>
<text x="600.0" y="36" text-anchor="middle" font-family="Arial" font-size="24" fill="black">profile_diagonal_supply_return: alphat</text>
<line x1="120.00" y1="75" x2="120.00" y2="705" stroke="#dddddd" stroke-width="1"/>
<text x="120.00" y="737" text-anchor="middle" font-family="Arial" font-size="16" fill="black">-0.729</text>
<line x1="376.25" y1="75" x2="376.25" y2="705" stroke="#dddddd" stroke-width="1"/>
<text x="376.25" y="737" text-anchor="middle" font-family="Arial" font-size="16" fill="black">1.913</text>
<line x1="632.50" y1="75" x2="632.50" y2="705" stroke="#dddddd" stroke-width="1"/>
<text x="632.50" y="737" text-anchor="middle" font-family="Arial" font-size="16" fill="black">4.555</text>
<line x1="888.75" y1="75" x2="888.75" y2="705" stroke="#dddddd" stroke-width="1"/>
<text x="888.75" y="737" text-anchor="middle" font-family="Arial" font-size="16" fill="black">7.197</text>
<line x1="1145.00" y1="75" x2="1145.00" y2="705" stroke="#dddddd" stroke-width="1"/>
<text x="1145.00" y="737" text-anchor="middle" font-family="Arial" font-size="16" fill="black">9.839</text>
<line x1="120" y1="705.00" x2="1145" y2="705.00" stroke="#dddddd" stroke-width="1"/>
<text x="104" y="710.00" text-anchor="end" font-family="Arial" font-size="16" fill="black">-0.001</text>
<line x1="120" y1="547.50" x2="1145" y2="547.50" stroke="#dddddd" stroke-width="1"/>
<text x="104" y="552.50" text-anchor="end" font-family="Arial" font-size="16" fill="black">0.005</text>
<line x1="120" y1="390.00" x2="1145" y2="390.00" stroke="#dddddd" stroke-width="1"/>
<text x="104" y="395.00" text-anchor="end" font-family="Arial" font-size="16" fill="black">0.011</text>
<line x1="120" y1="232.50" x2="1145" y2="232.50" stroke="#dddddd" stroke-width="1"/>
<text x="104" y="237.50" text-anchor="end" font-family="Arial" font-size="16" fill="black">0.017</text>
<line x1="120" y1="75.00" x2="1145" y2="75.00" stroke="#dddddd" stroke-width="1"/>
<text x="104" y="80.00" text-anchor="end" font-family="Arial" font-size="16" fill="black">0.023</text>
<rect x="120" y="75" width="1025" height="630" fill="none" stroke="black" stroke-width="2"/>
<text x="632.5" y="785" text-anchor="middle" font-family="Arial" font-size="20" fill="black">distance along sample line [m]</text>
<text x="34" y="390.0" transform="rotate(-90 34 390.0)" text-anchor="middle" font-family="Arial" font-size="20" fill="black">alphat [SI]</text>
<polyline points="190.69,661.55 193.64,661.21 196.58,660.81 199.53,660.30 202.47,659.65 205.42,658.65 208.36,657.32 211.31,655.47 214.25,653.13 217.20,650.52 220.14,647.82 223.09,643.83 226.03,639.08 228.98,634.80 231.93,630.22 234.87,625.11 237.82,619.43 240.76,613.14 243.71,606.32 246.65,599.78 249.60,592.73 252.54,585.84 255.49,578.57 258.43,570.92 261.38,562.80 264.32,555.04 267.27,547.02 270.22,538.84 273.16,530.33 276.11,521.49 279.05,512.31 282.00,505.67 284.94,498.96 287.88,492.17 290.83,485.30 293.78,478.39 296.73,471.33 299.67,465.07 302.62,458.76 305.57,452.32 308.50,445.64 311.45,440.15 314.40,434.50 317.34,429.53 320.29,424.16 323.24,418.56 326.18,412.72 329.12,406.65 332.07,400.14 335.01,393.98 337.96,387.52 340.91,381.62 343.85,375.43 346.80,368.89 349.74,361.93 352.68,355.28 355.63,348.40 358.58,341.36 361.53,333.89 364.47,326.02 367.42,317.73 370.36,311.04 373.30,303.86 376.25,296.29 379.20,288.31 382.14,280.71 385.09,272.98 388.04,265.43 390.97,257.51 393.92,249.78 396.87,242.37 399.81,235.09 402.76,227.46 405.71,220.47 408.65,214.28 411.59,207.71 414.54,200.86 417.48,193.66 420.43,187.41 423.38,181.88 426.32,176.06 429.27,170.56 432.21,165.65 435.16,161.07 438.10,156.26 441.05,152.22 444.00,148.29 446.94,145.05 449.89,141.54 452.84,137.77 455.77,133.76 458.72,132.56 461.67,131.10 464.61,129.37 467.56,127.40 470.51,125.76 473.45,124.06 476.39,123.44 479.34,122.51 482.28,121.56 485.23,120.71 488.18,120.20 491.12,119.30 494.07,119.59 497.01,120.18 499.96,120.26 502.90,119.83 505.85,118.90 508.80,118.45 511.74,118.98 514.69,118.90 517.63,119.01 520.57,119.46 523.52,119.91 526.47,119.75 529.41,120.39 532.36,120.92 535.31,122.04 538.24,122.51 541.19,122.30 544.14,121.42 547.08,123.76 550.03,125.38 552.98,126.37 555.92,126.71 558.86,127.40 561.81,127.80 564.76,128.97 567.70,129.56 570.65,130.14 573.60,130.97 576.54,131.76 579.49,131.95 582.43,133.36 585.37,135.72 588.32,137.69 591.27,139.31 594.21,140.61 597.16,143.08 600.11,147.04 603.04,150.90 605.99,155.07 608.94,159.98 611.88,165.62 614.83,171.44 617.78,178.08 620.72,185.04 623.66,192.65 626.61,200.56 629.55,208.80 632.50,217.39 635.45,225.73 638.40,234.37 641.34,243.30 644.28,252.52 647.23,261.08 650.17,269.61 653.12,277.68 656.07,285.95 659.01,293.58 661.96,300.27 664.90,307.29 667.84,314.62 670.79,321.27 673.74,326.34 676.68,331.69 679.63,337.32 682.58,343.27 685.51,347.92 688.46,352.15 691.41,356.67 694.35,361.34 697.30,365.51 700.25,369.50 703.20,373.97 706.14,378.24 709.08,382.50 712.03,386.24 714.97,390.47 717.92,395.12 720.87,400.25 723.81,403.04 726.76,406.25 729.70,409.89 732.64,413.91 735.59,417.43 738.54,420.96 741.48,424.00 744.43,427.34 747.38,430.48 750.31,433.26 753.26,434.96 756.21,436.92 759.15,437.91 762.10,438.44 765.05,439.13 767.99,439.95 770.93,440.89 773.88,441.65 776.83,440.97 779.77,440.27 782.72,438.61 785.67,437.07 788.61,435.64 791.55,434.26 794.50,431.29 797.44,428.37 800.39,425.61 803.34,422.82 806.28,419.97 809.23,417.07 812.17,413.21 815.11,409.34 818.06,405.43 821.01,401.50 823.95,397.43 826.90,393.29 829.85,388.90 832.79,384.49 835.73,379.79 838.68,374.76 841.63,370.11 844.57,365.38 847.52,361.05 850.47,356.08 853.41,351.14 856.35,346.22 859.30,341.33 862.24,336.02 865.19,331.82 868.14,327.73 871.08,324.48 874.03,321.24 876.97,318.08 879.91,315.10 882.86,313.77 885.81,312.52 888.75,311.38 891.70,310.43 894.65,309.60 897.58,308.96 900.53,310.80 903.48,312.60 906.43,314.41 909.37,316.19 912.32,317.65 915.27,319.01 918.20,321.45 921.15,323.79 924.10,325.73 927.04,327.19 929.99,330.60 932.94,333.86 935.88,338.09 938.82,341.57 941.77,344.95 944.71,348.16 947.66,351.27 950.61,353.95 953.55,357.36 956.50,360.55 959.44,365.99 962.38,371.20 965.33,376.17 968.28,380.90 971.22,385.90 974.17,390.71 977.12,395.62 980.06,400.25 983.00,404.55 985.95,408.59 988.90,416.98 991.84,424.94 994.79,432.52 997.74,439.75 1000.68,448.56 1003.62,458.06 1006.57,469.67 1009.51,481.25 1012.46,493.59 1015.41,506.78 1018.35,523.00 1021.30,539.34 1024.24,557.32 1027.18,573.13 1030.13,587.40 1033.08,600.23 1036.02,611.70 1038.97,621.73 1041.92,631.71 1044.86,639.86 1047.80,645.65 1050.75,650.22 1053.70,653.77 1056.64,656.49 1059.59,658.24 1062.54,659.45 1065.47,660.15 1068.42,660.68 1071.37,661.07 1074.31,661.39" fill="none" stroke="#000000" stroke-width="3"/>
<line x1="142" y1="100" x2="178" y2="100" stroke="#000000" stroke-width="4"/>
<text x="188" y="105" font-family="Arial" font-size="18" fill="black">alphat</text>
</svg>