<svg xmlns="http://www.w3.org/2000/svg" width="1200" height="820" viewBox="0 0 1200 820">
<rect width="100%" height="100%" fill="white"/>
<text x="600.0" y="36" text-anchor="middle" font-family="Arial" font-size="24" fill="black">profile_near_floor_x: U:2</text>
<line x1="120.00" y1="75" x2="120.00" y2="705" stroke="#dddddd" stroke-width="1"/>
<text x="120.00" y="737" text-anchor="middle" font-family="Arial" font-size="16" fill="black">-0.560</text>
<line x1="376.25" y1="75" x2="376.25" y2="705" stroke="#dddddd" stroke-width="1"/>
<text x="376.25" y="737" text-anchor="middle" font-family="Arial" font-size="16" fill="black">1.470</text>
<line x1="632.50" y1="75" x2="632.50" y2="705" stroke="#dddddd" stroke-width="1"/>
<text x="632.50" y="737" text-anchor="middle" font-family="Arial" font-size="16" fill="black">3.500</text>
<line x1="888.75" y1="75" x2="888.75" y2="705" stroke="#dddddd" stroke-width="1"/>
<text x="888.75" y="737" text-anchor="middle" font-family="Arial" font-size="16" fill="black">5.530</text>
<line x1="1145.00" y1="75" x2="1145.00" y2="705" stroke="#dddddd" stroke-width="1"/>
<text x="1145.00" y="737" text-anchor="middle" font-family="Arial" font-size="16" fill="black">7.560</text>
<line x1="120" y1="705.00" x2="1145" y2="705.00" stroke="#dddddd" stroke-width="1"/>
<text x="104" y="710.00" text-anchor="end" font-family="Arial" font-size="16" fill="black">-0.216</text>
<line x1="120" y1="547.50" x2="1145" y2="547.50" stroke="#dddddd" stroke-width="1"/>
<text x="104" y="552.50" text-anchor="end" font-family="Arial" font-size="16" fill="black">0.033</text>
<line x1="120" y1="390.00" x2="1145" y2="390.00" stroke="#dddddd" stroke-width="1"/>
<text x="104" y="395.00" text-anchor="end" font-family="Arial" font-size="16" fill="black">0.282</text>
<line x1="120" y1="232.50" x2="1145" y2="232.50" stroke="#dddddd" stroke-width="1"/>
<text x="104" y="237.50" text-anchor="end" font-family="Arial" font-size="16" fill="black">0.531</text>
<line x1="120" y1="75.00" x2="1145" y2="75.00" stroke="#dddddd" stroke-width="1"/>
<text x="104" y="80.00" text-anchor="end" font-family="Arial" font-size="16" fill="black">0.779</text>
<rect x="120" y="75" width="1025" height="630" fill="none" stroke="black" stroke-width="2"/>
<text x="632.5" y="785" text-anchor="middle" font-family="Arial" font-size="20" fill="black">x coordinate [m]</text>
<text x="34" y="390.0" transform="rotate(-90 34 390.0)" text-anchor="middle" font-family="Arial" font-size="20" fill="black">U:2 [SI]</text>
<polyline points="190.69,476.71 193.64,479.95 196.58,483.20 199.53,486.46 202.47,489.70 205.42,495.28 208.36,501.78 211.31,508.29 214.25,514.80 217.20,521.21 220.14,527.50 223.09,533.78 226.03,540.07 228.98,546.25 231.93,551.75 234.87,557.26 237.82,562.77 240.76,568.27 243.71,572.46 246.65,576.43 249.60,580.40 252.54,584.37 255.49,586.94 258.43,588.46 261.38,589.97 264.32,591.49 267.27,591.93 270.22,589.67 273.16,587.42 276.11,585.16 279.05,582.91 282.00,574.35 284.94,565.79 287.89,557.23 290.83,548.67 293.78,529.56 296.72,506.22 299.67,482.88 302.62,459.55 305.56,428.63 308.51,387.58 311.45,346.54 314.40,305.50 317.34,266.45 320.29,239.37 323.23,212.29 326.17,185.20 329.13,158.12 332.07,150.81 335.01,146.78 337.96,142.76 340.91,138.74 343.85,136.25 346.80,134.91 349.74,133.56 352.68,132.22 355.64,131.05 358.58,130.34 361.52,129.62 364.47,128.90 367.41,128.18 370.35,127.56 373.31,126.94 376.25,126.32 379.19,125.70 382.15,124.94 385.09,124.13 388.03,123.32 390.98,122.51 393.92,122.35 396.86,123.03 399.82,123.72 402.76,124.40 405.70,131.65 408.65,178.25 411.59,224.86 414.54,271.47 417.49,318.08 420.43,373.08 423.37,429.48 426.33,485.88 429.27,542.27 432.21,572.78 435.16,583.88 438.10,594.97 441.04,606.06 444.00,613.39 446.94,611.32 449.88,609.25 452.83,607.18 455.78,605.11 458.72,601.35 461.67,597.60 464.61,593.84 467.55,590.09 470.51,587.66 473.45,585.76 476.39,583.87 479.34,581.97 482.28,580.91 485.23,580.95 488.18,580.99 491.12,581.03 494.06,581.18 497.02,581.98 499.96,582.78 502.90,583.57 505.85,584.37 508.79,584.48 511.73,584.47 514.69,584.46 517.63,584.45 520.57,583.41 523.52,581.62 526.47,579.82 529.41,578.02 532.36,575.99 535.30,573.38 538.24,570.76 541.20,568.15 544.14,565.53 547.08,558.92 550.03,552.30 552.97,545.69 555.92,539.08 558.87,522.04 561.81,500.82 564.75,479.61 567.71,458.39 570.65,427.91 573.59,385.07 576.54,342.23 579.48,299.39 582.42,258.62 585.38,230.30 588.32,201.99 591.26,173.67 594.21,145.36 597.16,140.07 600.10,138.61 603.05,137.16 605.99,135.70 608.93,135.00 611.89,134.86 614.83,134.72 617.77,134.57 620.72,134.46 623.66,134.45 626.60,134.43 629.56,134.40 632.50,134.38 635.44,134.26 638.40,134.14 641.34,134.01 644.28,133.89 647.23,133.34 650.17,132.64 653.11,131.93 656.07,131.22 659.01,130.38 661.95,129.38 664.90,128.37 667.84,127.37 670.79,131.84 673.74,169.13 676.68,206.42 679.62,243.72 682.58,281.00 685.52,331.51 688.46,384.20 691.41,436.91 694.35,489.61 697.29,524.96 700.25,547.30 703.19,569.64 706.13,591.98 709.08,610.90 712.03,621.28 714.97,631.66 717.92,642.04 720.86,652.42 723.80,654.70 726.76,656.99 729.70,659.27 732.64,661.55 735.59,659.44 738.53,655.57 741.48,651.71 744.43,647.84 747.37,643.19 750.31,637.48 753.27,631.79 756.21,626.09 759.15,620.71 762.10,617.29 765.04,613.86 767.98,610.44 770.94,607.01 773.88,606.15 776.82,605.72 779.77,605.29 782.72,604.85 785.66,604.74 788.61,604.85 791.55,604.97 794.49,605.09 797.45,604.55 800.39,602.35 803.33,600.16 806.28,597.96 809.22,595.76 812.17,590.36 815.12,584.97 818.06,579.57 821.00,574.17 823.96,562.67 826.90,548.72 829.84,534.78 832.79,520.84 835.73,490.96 838.67,439.84 841.63,388.72 844.57,337.60 847.51,287.93 850.46,246.97 853.41,206.01 856.35,165.05 859.30,124.10 862.24,118.45 865.18,118.69 868.14,118.92 871.08,119.16 874.02,119.68 876.97,120.42 879.91,121.16 882.85,121.90 885.81,122.54 888.75,122.93 891.69,123.32 894.65,123.72 897.59,124.11 900.53,124.72 903.48,125.32 906.42,125.92 909.36,126.52 912.32,127.70 915.26,129.11 918.20,130.51 921.15,131.93 924.09,134.68 927.04,139.24 929.99,143.79 932.93,148.35 935.87,157.02 938.83,190.41 941.77,223.81 944.71,257.20 947.66,290.59 950.60,337.57 953.54,386.82 956.50,436.06 959.44,485.32 962.38,519.71 965.33,542.97 968.28,566.24 971.22,589.50 974.17,606.37 977.11,607.23 980.05,608.10 983.01,608.96 985.95,609.83 988.89,602.81 991.84,595.79 994.78,588.78 997.73,581.76 1000.68,574.92 1003.62,568.14 1006.56,561.36 1009.52,554.58 1012.46,549.04 1015.40,545.16 1018.35,541.27 1021.29,537.38 1024.23,533.87 1027.19,532.62 1030.13,531.37 1033.07,530.13 1036.02,528.88 1038.97,528.68 1041.91,528.66 1044.86,528.64 1047.80,528.62 1050.74,528.46 1053.70,528.20 1056.64,527.93 1059.58,527.67 1062.53,527.38 1065.47,527.03 1068.42,526.68 1071.37,526.33 1074.31,525.98" fill="none" stroke="#000000" stroke-width="3"/>
<line x1="142" y1="100" x2="178" y2="100" stroke="#000000" stroke-width="4"/>
<text x="188" y="105" font-family="Arial" font-size="18" fill="black">U:2</text>
</svg>