<svg xmlns="http://www.w3.org/2000/svg" width="1200" height="820" viewBox="0 0 1200 820">
<rect width="100%" height="100%" fill="white"/>
<text x="600.0" y="36" text-anchor="middle" font-family="Arial" font-size="24" fill="black">profile_near_floor_x: vorticity:0</text>
<line x1="120.00" y1="75" x2="120.00" y2="705" stroke="#dddddd" stroke-width="1"/>
<text x="120.00" y="737" text-anchor="middle" font-family="Arial" font-size="16" fill="black">-0.560</text>
<line x1="376.25" y1="75" x2="376.25" y2="705" stroke="#dddddd" stroke-width="1"/>
<text x="376.25" y="737" text-anchor="middle" font-family="Arial" font-size="16" fill="black">1.470</text>
<line x1="632.50" y1="75" x2="632.50" y2="705" stroke="#dddddd" stroke-width="1"/>
<text x="632.50" y="737" text-anchor="middle" font-family="Arial" font-size="16" fill="black">3.500</text>
<line x1="888.75" y1="75" x2="888.75" y2="705" stroke="#dddddd" stroke-width="1"/>
<text x="888.75" y="737" text-anchor="middle" font-family="Arial" font-size="16" fill="black">5.530</text>
<line x1="1145.00" y1="75" x2="1145.00" y2="705" stroke="#dddddd" stroke-width="1"/>
<text x="1145.00" y="737" text-anchor="middle" font-family="Arial" font-size="16" fill="black">7.560</text>
<line x1="120" y1="705.00" x2="1145" y2="705.00" stroke="#dddddd" stroke-width="1"/>
<text x="104" y="710.00" text-anchor="end" font-family="Arial" font-size="16" fill="black">-1.306</text>
<line x1="120" y1="547.50" x2="1145" y2="547.50" stroke="#dddddd" stroke-width="1"/>
<text x="104" y="552.50" text-anchor="end" font-family="Arial" font-size="16" fill="black">-0.743</text>
<line x1="120" y1="390.00" x2="1145" y2="390.00" stroke="#dddddd" stroke-width="1"/>
<text x="104" y="395.00" text-anchor="end" font-family="Arial" font-size="16" fill="black">-0.180</text>
<line x1="120" y1="232.50" x2="1145" y2="232.50" stroke="#dddddd" stroke-width="1"/>
<text x="104" y="237.50" text-anchor="end" font-family="Arial" font-size="16" fill="black">0.383</text>
<line x1="120" y1="75.00" x2="1145" y2="75.00" stroke="#dddddd" stroke-width="1"/>
<text x="104" y="80.00" text-anchor="end" font-family="Arial" font-size="16" fill="black">0.946</text>
<rect x="120" y="75" width="1025" height="630" fill="none" stroke="black" stroke-width="2"/>
<text x="632.5" y="785" text-anchor="middle" font-family="Arial" font-size="20" fill="black">x coordinate [m]</text>
<text x="34" y="390.0" transform="rotate(-90 34 390.0)" text-anchor="middle" font-family="Arial" font-size="20" fill="black">vorticity:0 [SI]</text>
<polyline points="190.69,132.57 193.64,130.31 196.58,128.06 199.53,125.80 202.47,123.54 205.42,122.04 208.36,120.84 211.31,119.65 214.25,118.45 217.20,119.66 220.14,124.07 223.09,128.49 226.03,132.91 228.98,137.90 231.93,146.34 234.87,154.77 237.82,163.21 240.76,171.65 243.71,182.12 246.65,192.92 249.60,203.73 252.54,214.53 255.49,225.39 258.43,236.29 261.38,247.19 264.32,258.08 267.27,267.97 270.22,275.30 273.16,282.63 276.11,289.96 279.05,297.29 282.00,293.83 284.94,290.37 287.89,286.91 290.83,283.44 293.78,273.74 296.72,261.54 299.67,249.34 302.62,237.14 305.56,234.35 308.51,244.09 311.45,253.84 314.40,263.58 317.34,273.57 320.29,285.00 323.23,296.42 326.17,307.85 329.13,319.28 332.07,314.96 335.01,308.02 337.96,301.07 340.91,294.13 343.85,289.41 346.80,286.36 349.74,283.31 352.68,280.26 355.64,277.74 358.58,276.52 361.52,275.31 364.47,274.10 367.41,272.88 370.35,273.35 373.31,273.82 376.25,274.29 379.19,274.75 382.15,276.35 385.09,278.40 388.03,280.45 390.98,282.49 393.92,283.64 396.86,283.59 399.82,283.54 402.76,283.49 405.70,280.50 408.65,259.87 411.59,239.24 414.54,218.61 417.49,197.98 420.43,184.99 423.37,173.27 426.33,161.55 429.27,149.83 432.21,149.99 435.16,159.06 438.10,168.13 441.04,177.20 444.00,185.49 446.94,191.83 449.88,198.18 452.83,204.52 455.78,210.87 458.72,219.64 461.67,228.42 464.61,237.20 467.55,245.97 470.51,252.87 473.45,259.03 476.39,265.18 479.34,271.33 482.28,276.17 485.23,279.26 488.18,282.35 491.12,285.44 494.06,288.31 497.02,289.87 499.96,291.42 502.90,292.98 505.85,294.54 508.79,296.20 511.73,297.88 514.69,299.57 517.63,301.24 520.57,303.58 523.52,306.39 526.47,309.21 529.41,312.03 532.36,315.22 535.30,319.35 538.24,323.49 541.20,327.62 544.14,331.76 547.08,336.31 550.03,340.86 552.97,345.41 555.92,349.97 558.87,351.34 561.81,351.43 564.75,351.53 567.71,351.63 570.65,350.40 573.59,347.41 576.54,344.41 579.48,341.42 582.42,338.65 585.38,337.25 588.32,335.85 591.26,334.45 594.21,333.05 597.16,332.33 600.10,331.73 603.05,331.12 605.99,330.52 608.93,330.31 611.89,330.40 614.83,330.49 617.77,330.57 620.72,330.90 623.66,331.80 626.60,332.70 629.56,333.60 632.50,334.51 635.44,336.23 638.40,337.95 641.34,339.68 644.28,341.40 647.23,343.54 650.17,345.85 653.11,348.15 656.07,350.45 659.01,352.80 661.95,355.21 664.90,357.61 667.84,360.01 670.79,361.65 673.74,358.65 676.68,355.66 679.62,352.66 682.58,349.66 685.52,345.67 688.46,341.51 691.41,337.34 694.35,333.18 697.29,332.03 700.25,333.14 703.19,334.26 706.13,335.37 709.08,337.97 712.03,344.28 714.97,350.59 717.92,356.91 720.86,363.22 723.80,374.59 726.76,385.95 729.70,397.32 732.64,408.69 735.59,419.70 738.53,430.56 741.48,441.42 744.43,452.29 747.37,461.21 750.31,467.56 753.27,473.90 756.21,480.25 759.15,485.78 762.10,486.47 765.04,487.16 767.98,487.85 770.94,488.55 773.88,486.96 776.82,484.99 779.77,483.02 782.72,481.05 785.66,479.84 788.61,479.21 791.55,478.58 794.49,477.95 797.45,477.65 800.39,478.19 803.33,478.74 806.28,479.28 809.22,479.82 812.17,479.94 815.12,480.07 818.06,480.19 821.00,480.31 823.96,490.85 826.90,505.56 829.84,520.27 832.79,534.98 835.73,537.65 838.67,524.27 841.63,510.89 844.57,497.51 847.51,482.25 850.46,455.72 853.41,429.18 856.35,402.65 859.30,376.11 862.24,375.94 865.18,380.16 868.14,384.39 871.08,388.61 874.02,392.65 876.97,396.56 879.91,400.48 882.85,404.39 885.81,407.78 888.75,409.90 891.69,412.01 894.65,414.12 897.59,416.23 900.53,418.01 903.48,419.79 906.42,421.57 909.36,423.35 912.32,425.44 915.26,427.65 918.20,429.85 921.15,432.06 924.09,434.06 927.04,435.78 929.99,437.49 932.93,439.21 935.87,441.10 938.83,444.01 941.77,446.92 944.71,449.83 947.66,452.74 950.60,459.80 953.54,467.55 956.50,475.30 959.44,483.05 962.38,496.79 965.33,515.03 968.28,533.27 971.22,551.50 974.17,569.74 977.11,587.98 980.05,606.22 983.01,624.46 985.95,642.70 988.89,647.40 991.84,652.13 994.78,656.85 997.73,661.55 1000.68,659.68 1003.62,655.17 1006.56,650.67 1009.52,646.17 1012.46,640.02 1015.40,631.71 1018.35,623.40 1021.29,615.08 1024.23,606.86 1027.19,599.18 1030.13,591.51 1033.07,583.84 1036.02,576.16 1038.97,571.02 1041.91,566.29 1044.86,561.56 1047.80,556.83 1050.74,553.46 1053.70,551.10 1056.64,548.74 1059.58,546.38 1062.53,544.44 1065.47,543.56 1068.42,542.68 1071.37,541.80 1074.31,540.91" fill="none" stroke="#000000" stroke-width="3"/>
<line x1="142" y1="100" x2="178" y2="100" stroke="#000000" stroke-width="4"/>
<text x="188" y="105" font-family="Arial" font-size="18" fill="black">vorticity:0</text>
</svg>