<svg xmlns="http://www.w3.org/2000/svg" width="1200" height="820" viewBox="0 0 1200 820">
<rect width="100%" height="100%" fill="white"/>
<text x="600.0" y="36" text-anchor="middle" font-family="Arial" font-size="24" fill="black">profile_center_x: vorticity:1</text>
<line x1="120.00" y1="75" x2="120.00" y2="705" stroke="#dddddd" stroke-width="1"/>
<text x="120.00" y="737" text-anchor="middle" font-family="Arial" font-size="16" fill="black">-0.560</text>
<line x1="376.25" y1="75" x2="376.25" y2="705" stroke="#dddddd" stroke-width="1"/>
<text x="376.25" y="737" text-anchor="middle" font-family="Arial" font-size="16" fill="black">1.470</text>
<line x1="632.50" y1="75" x2="632.50" y2="705" stroke="#dddddd" stroke-width="1"/>
<text x="632.50" y="737" text-anchor="middle" font-family="Arial" font-size="16" fill="black">3.500</text>
<line x1="888.75" y1="75" x2="888.75" y2="705" stroke="#dddddd" stroke-width="1"/>
<text x="888.75" y="737" text-anchor="middle" font-family="Arial" font-size="16" fill="black">5.530</text>
<line x1="1145.00" y1="75" x2="1145.00" y2="705" stroke="#dddddd" stroke-width="1"/>
<text x="1145.00" y="737" text-anchor="middle" font-family="Arial" font-size="16" fill="black">7.560</text>
<line x1="120" y1="705.00" x2="1145" y2="705.00" stroke="#dddddd" stroke-width="1"/>
<text x="104" y="710.00" text-anchor="end" font-family="Arial" font-size="16" fill="black">-2.514</text>
<line x1="120" y1="547.50" x2="1145" y2="547.50" stroke="#dddddd" stroke-width="1"/>
<text x="104" y="552.50" text-anchor="end" font-family="Arial" font-size="16" fill="black">-1.653</text>
<line x1="120" y1="390.00" x2="1145" y2="390.00" stroke="#dddddd" stroke-width="1"/>
<text x="104" y="395.00" text-anchor="end" font-family="Arial" font-size="16" fill="black">-0.791</text>
<line x1="120" y1="232.50" x2="1145" y2="232.50" stroke="#dddddd" stroke-width="1"/>
<text x="104" y="237.50" text-anchor="end" font-family="Arial" font-size="16" fill="black">0.070</text>
<line x1="120" y1="75.00" x2="1145" y2="75.00" stroke="#dddddd" stroke-width="1"/>
<text x="104" y="80.00" text-anchor="end" font-family="Arial" font-size="16" fill="black">0.931</text>
<rect x="120" y="75" width="1025" height="630" fill="none" stroke="black" stroke-width="2"/>
<text x="632.5" y="785" text-anchor="middle" font-family="Arial" font-size="20" fill="black">x coordinate [m]</text>
<text x="34" y="390.0" transform="rotate(-90 34 390.0)" text-anchor="middle" font-family="Arial" font-size="20" fill="black">vorticity:1 [SI]</text>
<polyline points="190.69,251.01 193.64,243.41 196.58,235.80 199.53,228.20 202.47,220.59 205.42,218.44 208.36,218.47 211.31,218.50 214.25,218.53 217.20,223.52 220.14,235.12 223.09,246.72 226.03,258.32 228.98,269.15 231.93,275.38 234.87,281.61 237.82,287.84 240.76,294.07 243.71,297.79 246.65,301.08 249.60,304.38 252.54,307.68 255.49,309.85 258.43,311.18 261.38,312.50 264.32,313.83 267.27,314.88 270.22,315.23 273.16,315.59 276.11,315.95 279.05,316.30 282.00,316.71 284.94,317.10 287.89,317.50 290.83,317.90 293.78,318.88 296.72,320.08 299.67,321.28 302.62,322.48 305.56,324.12 308.51,326.35 311.45,328.59 314.40,330.82 317.34,333.14 320.29,336.02 323.23,338.90 326.17,341.78 329.13,344.66 332.07,347.40 335.01,350.12 337.96,352.84 340.91,355.55 343.85,357.69 346.80,359.39 349.74,361.10 352.68,362.80 355.64,364.02 358.58,364.05 361.52,364.07 364.47,364.10 367.41,364.12 370.35,362.15 373.31,360.18 376.25,358.20 379.19,356.23 382.15,352.89 385.09,349.00 388.03,345.12 390.98,341.23 393.92,336.72 396.86,331.36 399.82,326.01 402.76,320.65 405.70,315.19 408.65,309.10 411.59,303.01 414.54,296.92 417.49,290.82 420.43,284.88 423.37,278.96 426.33,273.03 429.27,267.11 432.21,261.77 435.16,256.86 438.10,251.95 441.04,247.04 444.00,242.59 446.94,239.29 449.88,235.99 452.83,232.68 455.78,229.38 458.72,228.01 461.67,226.64 464.61,225.27 467.55,223.90 470.51,223.87 473.45,224.36 476.39,224.86 479.34,225.35 482.28,226.46 485.23,228.37 488.18,230.28 491.12,232.19 494.06,234.22 497.02,236.94 499.96,239.65 502.90,242.37 505.85,245.08 508.79,248.06 511.73,251.08 514.69,254.09 517.63,257.11 520.57,260.14 523.52,263.17 526.47,266.21 529.41,269.24 532.36,272.24 535.30,275.12 538.24,278.01 541.20,280.89 544.14,283.77 547.08,286.40 550.03,289.02 552.97,291.65 555.92,294.27 558.87,296.65 561.81,298.92 564.75,301.20 567.71,303.47 570.65,305.55 573.59,307.37 576.54,309.19 579.48,311.00 582.42,312.73 585.38,313.92 588.32,315.12 591.26,316.31 594.21,317.50 597.16,317.91 600.10,318.19 603.05,318.47 605.99,318.75 608.93,318.33 611.89,317.38 614.83,316.43 617.77,315.49 620.72,314.18 623.66,311.99 626.60,309.79 629.56,307.59 632.50,305.40 635.44,302.35 638.40,299.30 641.34,296.25 644.28,293.20 647.23,289.98 650.17,286.68 653.11,283.38 656.07,280.09 659.01,276.95 661.95,274.03 664.90,271.11 667.84,268.19 670.79,265.38 673.74,263.21 676.68,261.03 679.62,258.86 682.58,256.68 685.52,255.10 688.46,253.61 691.41,252.13 694.35,250.64 697.29,249.44 700.25,248.44 703.19,247.44 706.13,246.44 709.08,245.56 712.03,244.97 714.97,244.38 717.92,243.79 720.86,243.19 723.80,243.05 726.76,242.91 729.70,242.77 732.64,242.63 735.59,242.85 738.53,243.21 741.48,243.58 744.43,243.94 747.37,244.47 750.31,245.24 753.27,246.00 756.21,246.76 759.15,247.52 762.10,248.30 765.04,249.08 767.98,249.85 770.94,250.63 773.88,250.89 776.82,251.05 779.77,251.22 782.72,251.39 785.66,250.83 788.61,249.72 791.55,248.61 794.49,247.50 797.45,245.92 800.39,243.17 803.33,240.42 806.28,237.68 809.22,234.93 812.17,230.76 815.12,226.59 818.06,222.41 821.00,218.24 823.96,213.60 826.90,208.78 829.84,203.95 832.79,199.13 835.73,194.48 838.67,190.06 841.63,185.63 844.57,181.21 847.51,176.98 850.46,173.91 853.41,170.84 856.35,167.76 859.30,164.69 862.24,163.15 865.18,161.87 868.14,160.58 871.08,159.30 874.02,158.90 876.97,159.16 879.91,159.41 882.85,159.67 885.81,160.15 888.75,161.17 891.69,162.20 894.65,163.22 897.59,164.25 900.53,165.14 903.48,166.02 906.42,166.91 909.36,167.79 912.32,168.11 915.26,168.20 918.20,168.28 921.15,168.37 924.09,168.02 927.04,167.09 929.99,166.16 932.93,165.23 935.87,164.19 938.83,162.43 941.77,160.68 944.71,158.93 947.66,157.17 950.60,154.97 953.54,152.69 956.50,150.42 959.44,148.14 962.38,145.69 965.33,143.11 968.28,140.53 971.22,137.95 974.17,135.43 977.11,133.05 980.05,130.67 983.01,128.29 985.95,125.91 988.89,124.54 991.84,123.18 994.78,121.81 997.73,120.44 1000.68,119.79 1003.62,119.41 1006.56,119.03 1009.52,118.66 1012.46,118.45 1015.40,118.46 1018.35,118.47 1021.29,118.47 1024.23,118.52 1027.19,118.78 1030.13,119.04 1033.07,119.31 1036.02,119.57 1038.97,120.22 1041.91,120.94 1044.86,121.66 1047.80,122.38 1050.74,158.76 1053.70,221.89 1056.64,285.01 1059.58,348.13 1062.53,411.11 1065.47,473.72 1068.42,536.33 1071.37,598.95 1074.31,661.55" fill="none" stroke="#000000" stroke-width="3"/>
<line x1="142" y1="100" x2="178" y2="100" stroke="#000000" stroke-width="4"/>
<text x="188" y="105" font-family="Arial" font-size="18" fill="black">vorticity:1</text>
</svg>