<svg xmlns="http://www.w3.org/2000/svg" width="1200" height="820" viewBox="0 0 1200 820">
<rect width="100%" height="100%" fill="white"/>
<text x="600.0" y="36" text-anchor="middle" font-family="Arial" font-size="24" fill="black">profile_center_x: Q</text>
<line x1="120.00" y1="75" x2="120.00" y2="705" stroke="#dddddd" stroke-width="1"/>
<text x="120.00" y="737" text-anchor="middle" font-family="Arial" font-size="16" fill="black">-0.560</text>
<line x1="376.25" y1="75" x2="376.25" y2="705" stroke="#dddddd" stroke-width="1"/>
<text x="376.25" y="737" text-anchor="middle" font-family="Arial" font-size="16" fill="black">1.470</text>
<line x1="632.50" y1="75" x2="632.50" y2="705" stroke="#dddddd" stroke-width="1"/>
<text x="632.50" y="737" text-anchor="middle" font-family="Arial" font-size="16" fill="black">3.500</text>
<line x1="888.75" y1="75" x2="888.75" y2="705" stroke="#dddddd" stroke-width="1"/>
<text x="888.75" y="737" text-anchor="middle" font-family="Arial" font-size="16" fill="black">5.530</text>
<line x1="1145.00" y1="75" x2="1145.00" y2="705" stroke="#dddddd" stroke-width="1"/>
<text x="1145.00" y="737" text-anchor="middle" font-family="Arial" font-size="16" fill="black">7.560</text>
<line x1="120" y1="705.00" x2="1145" y2="705.00" stroke="#dddddd" stroke-width="1"/>
<text x="104" y="710.00" text-anchor="end" font-family="Arial" font-size="16" fill="black">-0.323</text>
<line x1="120" y1="547.50" x2="1145" y2="547.50" stroke="#dddddd" stroke-width="1"/>
<text x="104" y="552.50" text-anchor="end" font-family="Arial" font-size="16" fill="black">-0.205</text>
<line x1="120" y1="390.00" x2="1145" y2="390.00" stroke="#dddddd" stroke-width="1"/>
<text x="104" y="395.00" text-anchor="end" font-family="Arial" font-size="16" fill="black">-0.087</text>
<line x1="120" y1="232.50" x2="1145" y2="232.50" stroke="#dddddd" stroke-width="1"/>
<text x="104" y="237.50" text-anchor="end" font-family="Arial" font-size="16" fill="black">0.031</text>
<line x1="120" y1="75.00" x2="1145" y2="75.00" stroke="#dddddd" stroke-width="1"/>
<text x="104" y="80.00" text-anchor="end" font-family="Arial" font-size="16" fill="black">0.149</text>
<rect x="120" y="75" width="1025" height="630" fill="none" stroke="black" stroke-width="2"/>
<text x="632.5" y="785" text-anchor="middle" font-family="Arial" font-size="20" fill="black">x coordinate [m]</text>
<text x="34" y="390.0" transform="rotate(-90 34 390.0)" text-anchor="middle" font-family="Arial" font-size="20" fill="black">Q [SI]</text>
<polyline points="190.69,327.06 193.64,321.33 196.58,315.60 199.53,309.87 202.47,304.14 205.42,295.31 208.36,285.23 211.31,275.15 214.25,265.07 217.20,256.39 220.14,249.58 223.09,242.77 226.03,235.96 228.98,229.60 231.93,225.92 234.87,222.25 237.82,218.58 240.76,214.91 243.71,213.35 246.65,212.14 249.60,210.94 252.54,209.73 255.49,209.66 258.43,210.46 261.38,211.25 264.32,212.04 267.27,213.12 270.22,214.92 273.16,216.71 276.11,218.51 279.05,220.30 282.00,221.78 284.94,223.26 287.89,224.73 290.83,226.21 293.78,226.36 296.72,225.98 299.67,225.60 302.62,225.21 305.56,223.46 308.51,219.87 311.45,216.28 314.40,212.69 317.34,208.63 320.29,201.73 323.23,194.83 326.17,187.92 329.13,181.02 332.07,173.02 335.01,164.84 337.96,156.66 340.91,148.48 343.85,141.60 346.80,135.69 349.74,129.79 352.68,123.89 355.64,119.58 358.58,119.30 361.52,119.02 364.47,118.73 367.41,118.45 370.35,125.53 373.31,132.62 376.25,139.70 379.19,146.79 382.15,158.79 385.09,172.75 388.03,186.72 390.98,200.69 393.92,216.64 396.86,235.23 399.82,253.82 402.76,272.41 405.70,291.26 408.65,311.64 411.59,332.02 414.54,352.40 417.49,372.79 420.43,392.64 423.37,412.40 426.33,432.16 429.27,451.92 432.21,470.47 435.16,488.12 438.10,505.76 441.04,523.40 444.00,540.20 446.94,554.88 449.88,569.55 452.83,584.23 455.78,598.91 458.72,609.35 461.67,619.78 464.61,630.21 467.55,640.65 470.51,646.79 473.45,651.21 476.39,655.65 479.34,660.08 482.28,661.55 485.23,659.09 488.18,656.64 491.12,654.18 494.06,650.82 497.02,642.13 499.96,633.43 502.90,624.72 505.85,616.03 508.79,603.47 511.73,590.27 514.69,577.07 517.63,563.87 520.57,549.49 523.52,534.19 526.47,518.91 529.41,503.63 532.36,488.44 535.30,473.50 538.24,458.57 541.20,443.63 544.14,428.70 547.08,415.62 550.03,402.55 552.97,389.48 555.92,376.40 558.87,365.16 561.81,354.65 564.75,344.13 567.71,333.62 570.65,324.20 573.59,316.23 576.54,308.26 579.48,300.29 582.42,292.64 585.38,286.88 588.32,281.12 591.26,275.36 594.21,269.60 597.16,265.67 600.10,262.04 603.05,258.41 605.99,254.77 608.93,252.41 611.89,250.99 614.83,249.57 617.77,248.15 620.72,247.35 623.66,248.07 626.60,248.79 629.56,249.51 632.50,250.23 635.44,252.29 638.40,254.35 641.34,256.41 644.28,258.47 647.23,260.38 650.17,262.22 653.11,264.06 656.07,265.90 659.01,267.07 661.95,267.34 664.90,267.62 667.84,267.90 670.79,267.92 673.74,266.45 676.68,264.97 679.62,263.49 682.58,262.01 685.52,259.70 688.46,257.26 691.41,254.83 694.35,252.39 697.29,250.04 700.25,247.77 703.19,245.51 706.13,243.24 709.08,241.30 712.03,240.18 714.97,239.06 717.92,237.94 720.86,236.82 723.80,237.40 726.76,237.97 729.70,238.54 732.64,239.11 735.59,240.98 738.53,243.36 741.48,245.74 744.43,248.12 747.37,251.23 750.31,255.32 753.27,259.40 756.21,263.49 759.15,267.77 762.10,273.24 765.04,278.71 767.98,284.17 770.94,289.64 773.88,295.72 776.82,301.91 779.77,308.09 782.72,314.27 785.66,320.17 788.61,325.85 791.55,331.52 794.49,337.20 797.45,342.21 800.39,345.54 803.33,348.88 806.28,352.21 809.22,355.55 812.17,354.78 815.12,354.02 818.06,353.25 821.00,352.49 823.96,348.57 826.90,343.40 829.84,338.23 832.79,333.05 835.73,326.86 838.67,319.29 841.63,311.73 844.57,304.17 847.51,296.76 850.46,290.29 853.41,283.82 856.35,277.35 859.30,270.88 862.24,267.45 865.18,264.53 868.14,261.61 871.08,258.69 874.02,257.56 876.97,257.78 879.91,258.00 882.85,258.21 885.81,258.64 888.75,259.58 891.69,260.52 894.65,261.46 897.59,262.40 900.53,261.87 903.48,261.35 906.42,260.83 909.36,260.30 912.32,258.26 915.26,255.61 918.20,252.96 921.15,250.31 924.09,247.06 927.04,243.00 929.99,238.94 932.93,234.87 935.87,230.78 938.83,226.51 941.77,222.23 944.71,217.95 947.66,213.68 950.60,209.84 953.54,206.08 956.50,202.32 959.44,198.56 962.38,195.16 965.33,192.03 968.28,188.91 971.22,185.78 974.17,182.94 977.11,180.79 980.05,178.65 983.01,176.51 985.95,174.36 988.89,173.84 991.84,173.31 994.78,172.79 997.73,172.26 1000.68,172.92 1003.62,174.04 1006.56,175.17 1009.52,176.30 1012.46,178.18 1015.40,181.08 1018.35,183.98 1021.29,186.87 1024.23,190.11 1027.19,195.39 1030.13,200.67 1033.07,205.95 1036.02,211.23 1038.97,219.94 1041.91,229.23 1044.86,238.51 1047.80,247.80 1050.74,259.38 1053.70,272.69 1056.64,286.00 1059.58,299.31 1062.53,310.91 1065.47,318.23 1068.42,325.56 1071.37,332.88 1074.31,340.20" fill="none" stroke="#000000" stroke-width="3"/>
<line x1="142" y1="100" x2="178" y2="100" stroke="#000000" stroke-width="4"/>
<text x="188" y="105" font-family="Arial" font-size="18" fill="black">Q</text>
</svg>