<svg xmlns="http://www.w3.org/2000/svg" width="1200" height="820" viewBox="0 0 1200 820">
<rect width="100%" height="100%" fill="white"/>
<text x="600.0" y="36" text-anchor="middle" font-family="Arial" font-size="24" fill="black">profile_center_y: Q</text>
<line x1="120.00" y1="75" x2="120.00" y2="705" stroke="#dddddd" stroke-width="1"/>
<text x="120.00" y="737" text-anchor="middle" font-family="Arial" font-size="16" fill="black">-0.400</text>
<line x1="376.25" y1="75" x2="376.25" y2="705" stroke="#dddddd" stroke-width="1"/>
<text x="376.25" y="737" text-anchor="middle" font-family="Arial" font-size="16" fill="black">1.050</text>
<line x1="632.50" y1="75" x2="632.50" y2="705" stroke="#dddddd" stroke-width="1"/>
<text x="632.50" y="737" text-anchor="middle" font-family="Arial" font-size="16" fill="black">2.500</text>
<line x1="888.75" y1="75" x2="888.75" y2="705" stroke="#dddddd" stroke-width="1"/>
<text x="888.75" y="737" text-anchor="middle" font-family="Arial" font-size="16" fill="black">3.950</text>
<line x1="1145.00" y1="75" x2="1145.00" y2="705" stroke="#dddddd" stroke-width="1"/>
<text x="1145.00" y="737" text-anchor="middle" font-family="Arial" font-size="16" fill="black">5.400</text>
<line x1="120" y1="705.00" x2="1145" y2="705.00" stroke="#dddddd" stroke-width="1"/>
<text x="104" y="710.00" text-anchor="end" font-family="Arial" font-size="16" fill="black">-0.187</text>
<line x1="120" y1="547.50" x2="1145" y2="547.50" stroke="#dddddd" stroke-width="1"/>
<text x="104" y="552.50" text-anchor="end" font-family="Arial" font-size="16" fill="black">-0.040</text>
<line x1="120" y1="390.00" x2="1145" y2="390.00" stroke="#dddddd" stroke-width="1"/>
<text x="104" y="395.00" text-anchor="end" font-family="Arial" font-size="16" fill="black">0.108</text>
<line x1="120" y1="232.50" x2="1145" y2="232.50" stroke="#dddddd" stroke-width="1"/>
<text x="104" y="237.50" text-anchor="end" font-family="Arial" font-size="16" fill="black">0.255</text>
<line x1="120" y1="75.00" x2="1145" y2="75.00" stroke="#dddddd" stroke-width="1"/>
<text x="104" y="80.00" text-anchor="end" font-family="Arial" font-size="16" fill="black">0.402</text>
<rect x="120" y="75" width="1025" height="630" fill="none" stroke="black" stroke-width="2"/>
<text x="632.5" y="785" text-anchor="middle" font-family="Arial" font-size="20" fill="black">y coordinate [m]</text>
<text x="34" y="390.0" transform="rotate(-90 34 390.0)" text-anchor="middle" font-family="Arial" font-size="20" fill="black">Q [SI]</text>
<polyline points="190.69,572.78 193.64,544.11 196.58,515.44 199.53,486.77 202.47,458.10 205.42,429.43 208.36,400.76 211.31,366.42 214.25,332.10 217.20,297.76 220.14,263.43 223.09,229.10 226.03,194.76 228.98,191.04 231.92,187.32 234.87,183.59 237.82,179.87 240.76,176.15 243.71,172.43 246.65,174.13 249.60,175.83 252.54,177.53 255.49,179.23 258.43,180.94 261.38,182.64 264.33,180.44 267.27,178.25 270.22,176.06 273.16,173.87 276.11,171.68 279.05,169.48 282.00,165.56 284.94,161.63 287.89,157.69 290.83,153.76 293.78,149.82 296.72,145.89 299.67,142.73 302.61,139.58 305.56,136.42 308.51,133.27 311.45,130.11 314.40,126.96 317.34,125.55 320.29,124.13 323.23,122.70 326.18,121.29 329.12,119.87 332.07,118.45 335.01,118.89 337.96,119.31 340.91,119.75 343.85,120.18 346.80,120.61 349.74,121.05 352.69,125.60 355.63,130.17 358.58,134.73 361.52,139.29 364.47,143.85 367.41,148.41 370.37,159.90 373.30,171.40 376.25,182.89 379.20,194.39 382.13,205.88 385.09,217.38 388.04,232.68 390.97,247.98 393.92,263.29 396.87,278.59 399.81,293.89 402.76,309.20 405.71,323.36 408.64,337.53 411.59,351.70 414.55,365.87 417.48,380.02 420.43,394.19 423.38,406.02 426.32,417.85 429.27,429.67 432.22,441.50 435.15,453.32 438.10,465.15 441.05,474.93 443.99,484.70 446.94,494.48 449.89,504.26 452.82,514.03 455.78,523.81 458.73,531.80 461.66,539.80 464.61,547.79 467.56,555.78 470.50,563.78 473.45,571.77 476.40,578.30 479.33,584.83 482.28,591.36 485.24,597.89 488.17,604.42 491.12,610.95 494.07,616.32 497.01,621.68 499.96,627.05 502.91,632.41 505.84,637.77 508.79,643.14 511.74,646.21 514.68,649.28 517.63,652.35 520.58,655.41 523.51,658.48 526.47,661.55 529.42,659.92 532.35,658.29 535.30,656.67 538.25,655.04 541.19,653.41 544.14,651.78 547.09,645.71 550.02,639.62 552.97,633.55 555.93,627.46 558.86,621.39 561.81,615.31 564.76,608.66 567.70,602.01 570.65,595.35 573.60,588.70 576.53,582.05 579.48,575.40 582.43,570.40 585.37,565.41 588.32,560.42 591.27,555.43 594.20,550.44 597.16,545.45 600.11,541.05 603.04,536.66 605.99,532.27 608.94,527.87 611.88,523.48 614.83,519.08 617.78,513.63 620.71,508.17 623.66,502.72 626.62,497.26 629.55,491.81 632.50,486.35 635.45,479.62 638.38,472.89 641.34,466.15 644.29,459.42 647.22,452.68 650.17,445.95 653.12,440.67 656.06,435.40 659.01,430.12 661.96,424.84 664.89,419.57 667.84,414.29 670.80,413.91 673.73,413.53 676.68,413.15 679.63,412.77 682.57,412.40 685.52,412.02 688.47,417.20 691.40,422.38 694.35,427.56 697.30,432.74 700.24,437.93 703.19,443.11 706.14,451.16 709.07,459.21 712.03,467.26 714.98,475.31 717.91,483.35 720.86,491.40 723.81,498.01 726.75,504.62 729.70,511.23 732.65,517.84 735.58,524.45 738.53,531.06 741.49,533.53 744.42,536.00 747.37,538.47 750.32,540.94 753.26,543.41 756.21,545.88 759.16,544.21 762.09,542.55 765.04,540.88 767.99,539.22 770.93,537.56 773.88,535.89 776.83,531.13 779.76,526.37 782.72,521.61 785.67,516.84 788.60,512.08 791.55,507.32 794.50,500.31 797.44,493.31 800.39,486.30 803.34,479.30 806.27,472.30 809.22,465.29 812.18,456.64 815.11,447.99 818.06,439.35 821.01,430.70 823.95,422.05 826.90,413.40 829.85,403.80 832.78,394.19 835.73,384.59 838.68,374.98 841.62,365.37 844.57,355.77 847.52,345.97 850.45,336.17 853.41,326.38 856.36,316.57 859.29,306.78 862.24,296.98 865.19,287.87 868.13,278.76 871.08,269.65 874.03,260.54 876.96,251.43 879.91,242.32 882.87,235.44 885.80,228.54 888.75,221.65 891.70,214.77 894.63,207.87 897.59,200.99 900.54,196.87 903.47,192.76 906.42,188.65 909.37,184.54 912.31,180.42 915.26,176.31 918.21,174.16 921.14,172.01 924.09,169.85 927.05,167.70 929.98,165.54 932.93,163.39 935.88,163.55 938.82,163.71 941.77,163.87 944.72,164.03 947.65,164.19 950.60,164.35 953.55,167.31 956.49,170.28 959.44,173.24 962.39,176.20 965.32,179.15 968.28,182.11 971.23,187.39 974.16,192.67 977.11,197.95 980.06,203.22 983.00,208.50 985.95,213.77 988.90,220.25 991.83,226.73 994.78,233.21 997.74,239.69 1000.67,246.17 1003.62,252.64 1006.57,258.85 1009.51,265.06 1012.46,271.27 1015.41,277.47 1018.34,283.68 1021.29,289.88 1024.24,294.75 1027.18,299.61 1030.13,304.49 1033.08,309.36 1036.01,314.22 1038.97,319.09 1041.92,331.82 1044.85,344.55 1047.80,357.28 1050.75,370.02 1053.69,382.75 1056.64,395.49 1059.59,406.23 1062.52,416.99 1065.47,427.74 1068.43,438.49 1071.36,449.25 1074.31,460.00" fill="none" stroke="#000000" stroke-width="3"/>
<line x1="142" y1="100" x2="178" y2="100" stroke="#000000" stroke-width="4"/>
<text x="188" y="105" font-family="Arial" font-size="18" fill="black">Q</text>
</svg>