<svg xmlns="http://www.w3.org/2000/svg" width="1200" height="820" viewBox="0 0 1200 820">
<rect width="100%" height="100%" fill="white"/>
<text x="600.0" y="36" text-anchor="middle" font-family="Arial" font-size="24" fill="black">profile_center_y: epsilon</text>
<line x1="120.00" y1="75" x2="120.00" y2="705" stroke="#dddddd" stroke-width="1"/>
<text x="120.00" y="737" text-anchor="middle" font-family="Arial" font-size="16" fill="black">-0.400</text>
<line x1="376.25" y1="75" x2="376.25" y2="705" stroke="#dddddd" stroke-width="1"/>
<text x="376.25" y="737" text-anchor="middle" font-family="Arial" font-size="16" fill="black">1.050</text>
<line x1="632.50" y1="75" x2="632.50" y2="705" stroke="#dddddd" stroke-width="1"/>
<text x="632.50" y="737" text-anchor="middle" font-family="Arial" font-size="16" fill="black">2.500</text>
<line x1="888.75" y1="75" x2="888.75" y2="705" stroke="#dddddd" stroke-width="1"/>
<text x="888.75" y="737" text-anchor="middle" font-family="Arial" font-size="16" fill="black">3.950</text>
<line x1="1145.00" y1="75" x2="1145.00" y2="705" stroke="#dddddd" stroke-width="1"/>
<text x="1145.00" y="737" text-anchor="middle" font-family="Arial" font-size="16" fill="black">5.400</text>
<line x1="120" y1="705.00" x2="1145" y2="705.00" stroke="#dddddd" stroke-width="1"/>
<text x="104" y="710.00" text-anchor="end" font-family="Arial" font-size="16" fill="black">7.86e-04</text>
<line x1="120" y1="547.50" x2="1145" y2="547.50" stroke="#dddddd" stroke-width="1"/>
<text x="104" y="552.50" text-anchor="end" font-family="Arial" font-size="16" fill="black">0.002</text>
<line x1="120" y1="390.00" x2="1145" y2="390.00" stroke="#dddddd" stroke-width="1"/>
<text x="104" y="395.00" text-anchor="end" font-family="Arial" font-size="16" fill="black">0.004</text>
<line x1="120" y1="232.50" x2="1145" y2="232.50" stroke="#dddddd" stroke-width="1"/>
<text x="104" y="237.50" text-anchor="end" font-family="Arial" font-size="16" fill="black">0.005</text>
<line x1="120" y1="75.00" x2="1145" y2="75.00" stroke="#dddddd" stroke-width="1"/>
<text x="104" y="80.00" text-anchor="end" font-family="Arial" font-size="16" fill="black">0.007</text>
<rect x="120" y="75" width="1025" height="630" fill="none" stroke="black" stroke-width="2"/>
<text x="632.5" y="785" text-anchor="middle" font-family="Arial" font-size="20" fill="black">y coordinate [m]</text>
<text x="34" y="390.0" transform="rotate(-90 34 390.0)" text-anchor="middle" font-family="Arial" font-size="20" fill="black">epsilon [m2/s3]</text>
<polyline points="190.69,355.30 193.64,354.75 196.58,354.20 199.53,353.65 202.47,353.10 205.42,352.56 208.36,352.00 211.31,363.04 214.25,374.06 217.20,385.10 220.14,396.14 223.09,407.17 226.03,418.20 228.98,439.72 231.92,461.22 234.87,482.73 237.82,504.25 240.76,525.76 243.71,547.27 246.65,561.41 249.60,575.54 252.54,589.67 255.49,603.80 258.43,617.94 261.38,632.07 264.33,636.98 267.27,641.90 270.22,646.81 273.16,651.72 276.11,656.64 279.05,661.55 282.00,661.25 284.94,660.95 287.89,660.65 290.83,660.35 293.78,660.05 296.72,659.74 299.67,656.77 302.61,653.80 305.56,650.83 308.51,647.86 311.45,644.88 314.40,641.91 317.34,637.27 320.29,632.64 323.23,628.00 326.18,623.37 329.12,618.73 332.07,614.11 335.01,608.33 337.96,602.57 340.91,596.80 343.85,591.04 346.80,585.28 349.74,579.51 352.69,574.26 355.63,569.00 358.58,563.75 361.52,558.49 364.47,553.22 367.41,547.97 370.37,544.54 373.30,541.10 376.25,537.67 379.20,534.24 382.13,530.80 385.09,527.36 388.04,524.27 390.97,521.19 393.92,518.11 396.87,515.03 399.81,511.94 402.76,508.86 405.71,504.27 408.64,499.68 411.59,495.08 414.55,490.50 417.48,485.90 420.43,481.31 423.38,474.62 426.32,467.94 429.27,461.26 432.22,454.58 435.15,447.90 438.10,441.21 441.05,431.88 443.99,422.54 446.94,413.22 449.89,403.88 452.82,394.55 455.78,385.21 458.73,372.56 461.66,359.91 464.61,347.24 467.56,334.59 470.50,321.94 473.45,309.29 476.40,294.23 479.33,279.19 482.28,264.15 485.24,249.10 488.17,234.06 491.12,219.00 494.07,206.04 497.01,193.09 499.96,180.12 502.91,167.16 505.84,154.20 508.79,141.23 511.74,137.43 514.68,133.63 517.63,129.84 520.58,126.04 523.51,122.24 526.47,118.45 529.42,127.90 532.35,137.34 535.30,146.79 538.25,156.23 541.19,165.68 544.14,175.13 547.09,191.99 550.02,208.85 552.97,225.70 555.93,242.56 558.86,259.42 561.81,276.28 564.76,289.87 567.70,303.45 570.65,317.05 573.60,330.63 576.53,344.22 579.48,357.82 582.43,363.62 585.37,369.41 588.32,375.22 591.27,381.02 594.20,386.83 597.16,392.63 600.11,391.54 603.04,390.45 605.99,389.37 608.94,388.27 611.88,387.19 614.83,386.10 617.78,379.79 620.71,373.48 623.66,367.18 626.62,360.86 629.55,354.55 632.50,348.24 635.45,338.82 638.38,329.40 641.34,319.97 644.29,310.55 647.22,301.13 650.17,291.70 653.12,282.46 656.06,273.21 659.01,263.96 661.96,254.71 664.89,245.45 667.84,236.20 670.80,230.81 673.73,225.41 676.68,220.02 679.63,214.62 682.57,209.21 685.52,203.82 688.47,204.55 691.40,205.29 694.35,206.03 697.30,206.76 700.24,207.51 703.19,208.24 706.14,215.16 709.07,222.08 712.03,228.99 714.98,235.91 717.91,242.83 720.86,249.75 723.81,260.55 726.75,271.34 729.70,282.14 732.65,292.94 735.58,303.73 738.53,314.54 741.49,325.76 744.42,337.00 747.37,348.24 750.32,359.47 753.26,370.71 756.21,381.94 759.16,391.36 762.09,400.77 765.04,410.19 767.99,419.60 770.93,429.02 773.88,438.44 776.83,445.43 779.76,452.43 782.72,459.42 785.67,466.42 788.60,473.40 791.55,480.40 794.50,485.05 797.44,489.71 800.39,494.36 803.34,499.02 806.27,503.68 809.22,508.33 812.18,510.80 815.11,513.27 818.06,515.74 821.01,518.21 823.95,520.68 826.90,523.15 829.85,523.49 832.78,523.84 835.73,524.18 838.68,524.53 841.62,524.88 844.57,525.22 847.52,523.64 850.45,522.06 853.41,520.47 856.36,518.89 859.29,517.31 862.24,515.72 865.19,513.04 868.13,510.36 871.08,507.68 874.03,505.00 876.96,502.31 879.91,499.62 882.87,497.65 885.80,495.69 888.75,493.72 891.70,491.75 894.63,489.78 897.59,487.81 900.54,487.87 903.47,487.94 906.42,488.01 909.37,488.08 912.31,488.15 915.26,488.22 918.21,489.85 921.14,491.48 924.09,493.12 927.05,494.75 929.98,496.39 932.93,498.03 935.88,500.41 938.82,502.80 941.77,505.18 944.72,507.57 947.65,509.96 950.60,512.34 953.55,515.33 956.49,518.33 959.44,521.32 962.39,524.31 965.32,527.32 968.28,530.31 971.23,534.06 974.16,537.81 977.11,541.56 980.06,545.31 983.00,549.06 985.95,552.81 988.90,557.33 991.83,561.85 994.78,566.38 997.74,570.90 1000.67,575.43 1003.62,579.94 1006.57,584.75 1009.51,589.57 1012.46,594.38 1015.41,599.20 1018.34,604.01 1021.29,608.83 1024.24,612.54 1027.18,616.23 1030.13,619.94 1033.08,623.65 1036.01,627.34 1038.97,631.05 1041.92,626.98 1044.85,622.92 1047.80,618.86 1050.75,614.79 1053.69,610.73 1056.64,606.66 1059.59,601.28 1062.52,595.89 1065.47,590.51 1068.43,585.13 1071.36,579.74 1074.31,574.35" fill="none" stroke="#000000" stroke-width="3"/>
<line x1="142" y1="100" x2="178" y2="100" stroke="#000000" stroke-width="4"/>
<text x="188" y="105" font-family="Arial" font-size="18" fill="black">epsilon</text>
</svg>