<svg xmlns="http://www.w3.org/2000/svg" width="1200" height="820" viewBox="0 0 1200 820">
<rect width="100%" height="100%" fill="white"/>
<text x="600.0" y="36" text-anchor="middle" font-family="Arial" font-size="24" fill="black">profile_diagonal_supply_return: U:1</text>
<line x1="120.00" y1="75" x2="120.00" y2="705" stroke="#dddddd" stroke-width="1"/>
<text x="120.00" y="737" text-anchor="middle" font-family="Arial" font-size="16" fill="black">-0.729</text>
<line x1="376.25" y1="75" x2="376.25" y2="705" stroke="#dddddd" stroke-width="1"/>
<text x="376.25" y="737" text-anchor="middle" font-family="Arial" font-size="16" fill="black">1.913</text>
<line x1="632.50" y1="75" x2="632.50" y2="705" stroke="#dddddd" stroke-width="1"/>
<text x="632.50" y="737" text-anchor="middle" font-family="Arial" font-size="16" fill="black">4.555</text>
<line x1="888.75" y1="75" x2="888.75" y2="705" stroke="#dddddd" stroke-width="1"/>
<text x="888.75" y="737" text-anchor="middle" font-family="Arial" font-size="16" fill="black">7.197</text>
<line x1="1145.00" y1="75" x2="1145.00" y2="705" stroke="#dddddd" stroke-width="1"/>
<text x="1145.00" y="737" text-anchor="middle" font-family="Arial" font-size="16" fill="black">9.839</text>
<line x1="120" y1="705.00" x2="1145" y2="705.00" stroke="#dddddd" stroke-width="1"/>
<text x="104" y="710.00" text-anchor="end" font-family="Arial" font-size="16" fill="black">-0.218</text>
<line x1="120" y1="547.50" x2="1145" y2="547.50" stroke="#dddddd" stroke-width="1"/>
<text x="104" y="552.50" text-anchor="end" font-family="Arial" font-size="16" fill="black">-0.124</text>
<line x1="120" y1="390.00" x2="1145" y2="390.00" stroke="#dddddd" stroke-width="1"/>
<text x="104" y="395.00" text-anchor="end" font-family="Arial" font-size="16" fill="black">-0.029</text>
<line x1="120" y1="232.50" x2="1145" y2="232.50" stroke="#dddddd" stroke-width="1"/>
<text x="104" y="237.50" text-anchor="end" font-family="Arial" font-size="16" fill="black">0.065</text>
<line x1="120" y1="75.00" x2="1145" y2="75.00" stroke="#dddddd" stroke-width="1"/>
<text x="104" y="80.00" text-anchor="end" font-family="Arial" font-size="16" fill="black">0.159</text>
<rect x="120" y="75" width="1025" height="630" fill="none" stroke="black" stroke-width="2"/>
<text x="632.5" y="785" text-anchor="middle" font-family="Arial" font-size="20" fill="black">distance along sample line [m]</text>
<text x="34" y="390.0" transform="rotate(-90 34 390.0)" text-anchor="middle" font-family="Arial" font-size="20" fill="black">U:1 [SI]</text>
<polyline points="190.69,300.80 193.64,300.52 196.58,300.79 199.53,301.61 202.47,302.96 205.42,307.17 208.36,313.22 211.31,320.72 214.25,330.13 217.20,340.03 220.14,349.40 223.09,358.75 226.03,369.01 228.98,380.50 231.93,389.94 234.87,399.82 237.82,410.14 240.76,420.92 243.71,430.56 246.65,439.68 249.60,449.12 252.54,459.37 255.49,469.17 258.43,478.68 261.38,488.50 264.32,498.12 267.27,507.63 270.22,516.39 273.16,525.42 276.11,534.68 279.05,544.18 282.00,552.11 284.94,560.21 287.88,568.49 290.83,576.95 293.78,584.38 296.73,591.44 299.67,598.21 302.62,605.10 305.57,611.41 308.50,616.80 311.45,622.25 314.40,627.69 317.34,632.74 320.29,636.45 323.24,640.10 326.18,643.67 329.12,647.19 332.07,649.59 335.01,651.81 337.96,653.95 340.91,655.98 343.85,657.43 346.80,658.42 349.74,659.25 352.68,660.25 355.63,661.00 358.58,661.30 361.53,661.45 364.47,661.50 367.42,661.45 370.36,661.55 373.30,661.48 376.25,661.28 379.20,660.98 382.14,660.45 385.09,659.78 388.04,659.17 390.97,658.50 393.92,657.67 396.87,656.61 399.81,655.76 402.76,654.93 405.71,653.90 408.65,652.46 411.59,651.08 414.54,649.76 417.48,648.54 420.43,646.94 423.38,644.94 426.32,643.09 429.27,641.40 432.21,639.48 435.16,637.43 438.10,635.53 441.05,633.23 444.00,630.94 446.94,628.34 449.89,625.97 452.84,623.79 455.77,621.83 458.72,618.56 461.67,615.48 464.61,612.58 467.56,609.86 470.51,606.94 473.45,603.99 476.39,600.67 479.34,597.50 482.28,594.41 485.23,591.31 488.18,587.50 491.12,583.67 494.07,579.41 497.01,575.51 499.96,571.54 502.90,567.45 505.85,563.27 508.80,560.03 511.74,556.21 514.69,552.24 517.63,547.12 520.57,542.88 523.52,539.21 526.47,535.31 529.41,530.42 532.36,525.92 535.31,522.70 538.24,519.23 541.19,515.49 544.14,511.51 547.08,507.52 550.03,503.34 552.98,498.97 555.92,494.41 558.86,490.65 561.81,487.18 564.76,482.52 567.70,477.74 570.65,473.18 573.60,469.08 576.54,464.91 579.49,460.88 582.43,455.90 585.37,451.56 588.32,447.52 591.27,443.79 594.21,440.38 597.16,437.79 600.11,434.79 603.04,432.31 605.99,430.63 608.94,429.82 611.88,430.02 614.83,431.04 617.78,432.17 620.72,434.12 623.66,437.13 626.61,441.19 629.55,446.31 632.50,452.49 635.45,458.59 638.40,465.80 641.34,474.12 644.28,483.51 647.23,492.11 650.17,500.96 653.12,510.24 656.07,520.48 659.01,529.79 661.96,537.44 664.90,545.60 667.84,554.48 670.79,562.45 673.74,566.57 676.68,571.42 679.63,576.96 682.58,583.12 685.51,585.47 688.46,586.70 691.41,588.64 694.35,590.64 697.30,590.96 700.25,590.16 703.20,589.94 706.14,589.46 709.08,588.89 712.03,587.05 714.97,585.97 717.92,585.59 720.87,585.89 723.81,583.02 726.76,580.95 729.70,579.63 732.64,579.05 735.59,577.90 738.54,577.01 741.48,576.21 744.43,576.16 747.38,576.06 750.31,575.74 753.26,574.36 756.21,573.63 759.15,572.64 762.10,570.92 765.05,569.87 767.99,569.44 770.93,569.61 773.88,569.16 776.83,568.64 779.77,568.69 782.72,567.09 785.67,565.40 788.61,563.83 791.55,562.80 794.50,561.87 797.44,561.20 800.39,560.60 803.34,560.45 806.28,560.70 809.23,561.33 812.17,559.65 815.11,558.35 818.06,557.39 821.01,556.76 823.95,556.46 826.90,556.44 829.85,556.06 832.79,555.93 835.73,556.04 838.68,556.33 841.63,555.26 844.57,554.38 847.52,553.32 850.47,552.19 853.41,551.19 856.35,550.34 859.30,549.67 862.24,548.55 865.19,547.62 868.14,546.84 871.08,544.65 874.03,541.93 876.97,538.81 879.91,535.78 882.86,533.32 885.81,530.57 888.75,526.97 891.70,523.45 894.65,520.08 897.58,516.83 900.53,511.05 903.48,505.36 906.43,499.74 909.37,494.22 912.32,487.41 915.27,480.15 918.20,473.73 921.15,467.43 924.10,460.34 927.04,452.13 929.99,442.31 932.94,432.56 935.88,423.34 938.82,412.33 941.77,401.42 944.71,390.62 947.66,379.93 950.61,367.57 953.55,356.08 956.50,344.73 959.44,331.74 962.38,317.82 965.33,303.27 968.28,288.85 971.22,276.41 974.17,263.82 977.12,250.56 980.06,237.54 983.00,224.72 985.95,212.09 988.90,199.96 991.84,188.40 994.79,177.34 997.74,166.72 1000.68,156.95 1003.62,147.77 1006.57,141.80 1009.51,136.21 1012.46,131.49 1015.41,127.97 1018.35,123.12 1021.30,118.45 1024.24,118.46 1027.18,121.32 1030.13,125.52 1033.08,131.04 1036.02,137.80 1038.97,144.50 1041.92,154.46 1044.86,165.27 1047.80,177.70 1050.75,187.66 1053.70,195.86 1056.64,204.25 1059.59,206.29 1062.54,208.51 1065.47,210.96 1068.42,213.54 1071.37,216.24 1074.31,219.04" fill="none" stroke="#000000" stroke-width="3"/>
<line x1="142" y1="100" x2="178" y2="100" stroke="#000000" stroke-width="4"/>
<text x="188" y="105" font-family="Arial" font-size="18" fill="black">U:1</text>
</svg>