<svg xmlns="http://www.w3.org/2000/svg" width="1200" height="820" viewBox="0 0 1200 820">
<rect width="100%" height="100%" fill="white"/>
<text x="600.0" y="36" text-anchor="middle" font-family="Arial" font-size="24" fill="black">profile_center_y: nut</text>
<line x1="120.00" y1="75" x2="120.00" y2="705" stroke="#dddddd" stroke-width="1"/>
<text x="120.00" y="737" text-anchor="middle" font-family="Arial" font-size="16" fill="black">-0.400</text>
<line x1="376.25" y1="75" x2="376.25" y2="705" stroke="#dddddd" stroke-width="1"/>
<text x="376.25" y="737" text-anchor="middle" font-family="Arial" font-size="16" fill="black">1.050</text>
<line x1="632.50" y1="75" x2="632.50" y2="705" stroke="#dddddd" stroke-width="1"/>
<text x="632.50" y="737" text-anchor="middle" font-family="Arial" font-size="16" fill="black">2.500</text>
<line x1="888.75" y1="75" x2="888.75" y2="705" stroke="#dddddd" stroke-width="1"/>
<text x="888.75" y="737" text-anchor="middle" font-family="Arial" font-size="16" fill="black">3.950</text>
<line x1="1145.00" y1="75" x2="1145.00" y2="705" stroke="#dddddd" stroke-width="1"/>
<text x="1145.00" y="737" text-anchor="middle" font-family="Arial" font-size="16" fill="black">5.400</text>
<line x1="120" y1="705.00" x2="1145" y2="705.00" stroke="#dddddd" stroke-width="1"/>
<text x="104" y="710.00" text-anchor="end" font-family="Arial" font-size="16" fill="black">-5.26e-04</text>
<line x1="120" y1="547.50" x2="1145" y2="547.50" stroke="#dddddd" stroke-width="1"/>
<text x="104" y="552.50" text-anchor="end" font-family="Arial" font-size="16" fill="black">0.004</text>
<line x1="120" y1="390.00" x2="1145" y2="390.00" stroke="#dddddd" stroke-width="1"/>
<text x="104" y="395.00" text-anchor="end" font-family="Arial" font-size="16" fill="black">0.008</text>
<line x1="120" y1="232.50" x2="1145" y2="232.50" stroke="#dddddd" stroke-width="1"/>
<text x="104" y="237.50" text-anchor="end" font-family="Arial" font-size="16" fill="black">0.013</text>
<line x1="120" y1="75.00" x2="1145" y2="75.00" stroke="#dddddd" stroke-width="1"/>
<text x="104" y="80.00" text-anchor="end" font-family="Arial" font-size="16" fill="black">0.017</text>
<rect x="120" y="75" width="1025" height="630" fill="none" stroke="black" stroke-width="2"/>
<text x="632.5" y="785" text-anchor="middle" font-family="Arial" font-size="20" fill="black">y coordinate [m]</text>
<text x="34" y="390.0" transform="rotate(-90 34 390.0)" text-anchor="middle" font-family="Arial" font-size="20" fill="black">nut [m2/s]</text>
<polyline points="190.69,652.09 193.64,646.62 196.58,641.14 199.53,635.67 202.47,630.20 205.42,624.72 208.36,619.25 211.31,614.01 214.25,608.76 217.20,603.51 220.14,598.27 223.09,593.02 226.03,587.78 228.98,587.58 231.92,587.38 234.87,587.19 237.82,586.99 240.76,586.80 243.71,586.60 246.65,584.21 249.60,581.81 252.54,579.41 255.49,577.01 258.43,574.61 261.38,572.21 264.33,567.69 267.27,563.17 270.22,558.66 273.16,554.14 276.11,549.62 279.05,545.11 282.00,540.32 284.94,535.53 287.89,530.74 290.83,525.95 293.78,521.17 296.72,516.38 299.67,512.33 302.61,508.28 305.56,504.24 308.51,500.19 311.45,496.14 314.40,492.10 317.34,488.87 320.29,485.65 323.23,482.43 326.18,479.20 329.12,475.98 332.07,472.76 335.01,470.16 337.96,467.56 340.91,464.96 343.85,462.36 346.80,459.77 349.74,457.17 352.69,454.70 355.63,452.24 358.58,449.78 361.52,447.31 364.47,444.84 367.41,442.38 370.37,439.49 373.30,436.61 376.25,433.72 379.20,430.83 382.13,427.95 385.09,425.06 388.04,421.62 390.97,418.18 393.92,414.74 396.87,411.30 399.81,407.86 402.76,404.42 405.71,400.46 408.64,396.49 411.59,392.53 414.55,388.56 417.48,384.60 420.43,380.63 423.38,375.98 426.32,371.32 429.27,366.67 432.22,362.01 435.15,357.36 438.10,352.70 441.05,347.19 443.99,341.68 446.94,336.17 449.89,330.66 452.82,325.14 455.78,319.63 458.73,313.39 461.66,307.16 464.61,300.93 467.56,294.69 470.50,288.46 473.45,282.23 476.40,275.92 479.33,269.58 482.28,263.24 485.24,256.90 488.17,250.60 491.12,244.26 494.07,238.63 497.01,233.01 499.96,227.38 502.91,221.76 505.84,216.14 508.79,210.51 511.74,205.82 514.68,201.13 517.63,196.43 520.58,191.70 523.51,187.01 526.47,182.32 529.42,177.95 532.35,173.61 535.30,169.24 538.25,164.87 541.19,160.50 544.14,156.13 547.09,152.12 550.02,148.07 552.97,144.06 555.93,140.05 558.86,136.00 561.81,131.99 564.76,129.73 567.70,127.48 570.65,125.22 573.60,122.96 576.53,120.71 579.48,118.45 582.43,118.73 585.37,119.06 588.32,119.38 591.27,119.67 594.20,119.99 597.16,120.31 600.11,122.21 603.04,124.14 605.99,126.04 608.94,127.94 611.88,129.88 614.83,131.77 617.78,134.00 620.71,136.18 623.66,138.40 626.62,140.59 629.55,142.81 632.50,144.99 635.45,146.89 638.38,148.75 641.34,150.62 644.29,152.48 647.22,154.38 650.17,156.24 653.12,157.96 656.06,159.64 659.01,161.36 661.96,163.08 664.89,164.77 667.84,166.49 670.80,168.64 673.73,170.78 676.68,172.93 679.63,175.08 682.57,177.23 685.52,179.38 688.47,182.46 691.40,185.51 694.35,188.59 697.30,191.63 700.24,194.71 703.19,197.76 706.14,201.63 709.07,205.50 712.03,209.37 714.98,213.23 717.91,217.10 720.86,221.01 723.81,225.09 726.75,229.17 729.70,233.22 732.65,237.31 735.58,241.39 738.53,245.47 741.49,249.06 744.42,252.64 747.37,256.22 750.32,259.80 753.26,263.39 756.21,266.93 759.16,269.47 762.09,272.02 765.04,274.53 767.99,277.07 770.93,279.58 773.88,282.12 776.83,283.34 779.76,284.56 782.72,285.77 785.67,286.99 788.60,288.21 791.55,289.43 794.50,289.32 797.44,289.25 800.39,289.18 803.34,289.11 806.27,289.03 809.22,288.96 812.18,287.82 815.11,286.71 818.06,285.56 821.01,284.41 823.95,283.30 826.90,282.16 829.85,280.40 832.78,278.65 835.73,276.93 838.68,275.17 841.62,273.42 844.57,271.66 847.52,269.98 850.45,268.26 853.41,266.54 856.36,264.85 859.29,263.13 862.24,261.41 865.19,260.30 868.13,259.19 871.08,258.08 874.03,256.94 876.96,255.83 879.91,254.72 882.87,254.29 885.80,253.89 888.75,253.46 891.70,253.03 894.63,252.64 897.59,252.21 900.54,252.57 903.47,252.96 906.42,253.32 909.37,253.68 912.31,254.07 915.26,254.43 918.21,255.90 921.14,257.40 924.09,258.87 927.05,260.34 929.98,261.84 932.93,263.31 935.88,266.00 938.82,268.72 941.77,271.41 944.72,274.13 947.65,276.82 950.60,279.51 953.55,283.34 956.49,287.14 959.44,290.93 962.39,294.73 965.32,298.56 968.28,302.36 971.23,307.27 974.16,312.14 977.11,317.05 980.06,321.92 983.00,326.83 985.95,331.71 988.90,337.96 991.83,344.20 994.78,350.44 997.74,356.68 1000.67,362.93 1003.62,369.17 1006.57,377.67 1009.51,386.17 1012.46,394.67 1015.41,403.17 1018.34,411.66 1021.29,420.16 1024.24,433.18 1027.18,446.20 1030.13,459.22 1033.08,472.24 1036.01,485.26 1038.97,498.28 1041.92,515.91 1044.85,533.53 1047.80,551.16 1050.75,568.78 1053.69,586.40 1056.64,604.03 1059.59,613.62 1062.52,623.20 1065.47,632.79 1068.43,642.38 1071.36,651.96 1074.31,661.55" fill="none" stroke="#000000" stroke-width="3"/>
<line x1="142" y1="100" x2="178" y2="100" stroke="#000000" stroke-width="4"/>
<text x="188" y="105" font-family="Arial" font-size="18" fill="black">nut</text>
</svg>