<svg xmlns="http://www.w3.org/2000/svg" width="1200" height="820" viewBox="0 0 1200 820">
<rect width="100%" height="100%" fill="white"/>
<text x="600.0" y="36" text-anchor="middle" font-family="Arial" font-size="24" fill="black">profile_diagonal_supply_return: velocity magnitude</text>
<line x1="120.00" y1="75" x2="120.00" y2="705" stroke="#dddddd" stroke-width="1"/>
<text x="120.00" y="737" text-anchor="middle" font-family="Arial" font-size="16" fill="black">-0.729</text>
<line x1="376.25" y1="75" x2="376.25" y2="705" stroke="#dddddd" stroke-width="1"/>
<text x="376.25" y="737" text-anchor="middle" font-family="Arial" font-size="16" fill="black">1.913</text>
<line x1="632.50" y1="75" x2="632.50" y2="705" stroke="#dddddd" stroke-width="1"/>
<text x="632.50" y="737" text-anchor="middle" font-family="Arial" font-size="16" fill="black">4.555</text>
<line x1="888.75" y1="75" x2="888.75" y2="705" stroke="#dddddd" stroke-width="1"/>
<text x="888.75" y="737" text-anchor="middle" font-family="Arial" font-size="16" fill="black">7.197</text>
<line x1="1145.00" y1="75" x2="1145.00" y2="705" stroke="#dddddd" stroke-width="1"/>
<text x="1145.00" y="737" text-anchor="middle" font-family="Arial" font-size="16" fill="black">9.839</text>
<line x1="120" y1="705.00" x2="1145" y2="705.00" stroke="#dddddd" stroke-width="1"/>
<text x="104" y="710.00" text-anchor="end" font-family="Arial" font-size="16" fill="black">0.061</text>
<line x1="120" y1="547.50" x2="1145" y2="547.50" stroke="#dddddd" stroke-width="1"/>
<text x="104" y="552.50" text-anchor="end" font-family="Arial" font-size="16" fill="black">0.148</text>
<line x1="120" y1="390.00" x2="1145" y2="390.00" stroke="#dddddd" stroke-width="1"/>
<text x="104" y="395.00" text-anchor="end" font-family="Arial" font-size="16" fill="black">0.234</text>
<line x1="120" y1="232.50" x2="1145" y2="232.50" stroke="#dddddd" stroke-width="1"/>
<text x="104" y="237.50" text-anchor="end" font-family="Arial" font-size="16" fill="black">0.321</text>
<line x1="120" y1="75.00" x2="1145" y2="75.00" stroke="#dddddd" stroke-width="1"/>
<text x="104" y="80.00" text-anchor="end" font-family="Arial" font-size="16" fill="black">0.407</text>
<rect x="120" y="75" width="1025" height="630" fill="none" stroke="black" stroke-width="2"/>
<text x="632.5" y="785" text-anchor="middle" font-family="Arial" font-size="20" fill="black">distance along sample line [m]</text>
<text x="34" y="390.0" transform="rotate(-90 34 390.0)" text-anchor="middle" font-family="Arial" font-size="20" fill="black">|U| [m/s]</text>
<polyline points="190.69,632.45 193.64,619.21 196.58,606.48 199.53,594.24 202.47,582.53 205.42,561.64 208.36,537.44 211.31,514.40 214.25,492.61 217.20,471.60 220.14,450.51 223.09,427.23 226.03,405.19 228.98,385.36 231.93,369.97 234.87,355.73 237.82,342.78 240.76,331.27 243.71,323.22 246.65,315.53 249.60,309.01 252.54,301.38 255.49,296.28 258.43,293.09 261.38,290.96 264.32,288.67 267.27,287.92 270.22,289.09 273.16,290.94 276.11,293.53 279.05,296.79 282.00,298.66 284.94,300.96 287.88,303.66 290.83,306.73 293.78,310.92 296.73,315.60 299.67,318.99 302.62,322.43 305.57,326.39 308.50,330.96 311.45,334.05 314.40,337.28 317.34,339.21 320.29,342.07 323.24,345.00 326.18,348.02 329.12,351.12 332.07,354.92 335.01,357.44 337.96,360.04 340.91,361.23 343.85,362.88 346.80,364.96 349.74,367.24 352.68,368.44 355.63,370.00 358.58,371.95 361.53,374.18 364.47,376.63 367.42,379.31 370.36,379.42 373.30,380.02 376.25,381.11 379.20,382.63 382.14,384.70 385.09,387.11 388.04,388.76 390.97,390.75 393.92,393.24 396.87,396.16 399.81,397.69 402.76,399.56 405.71,400.73 408.65,402.84 411.59,405.06 414.54,407.34 417.48,409.60 420.43,412.73 423.38,414.85 426.32,416.72 429.27,417.87 432.21,419.93 435.16,422.59 438.10,425.08 441.05,426.74 444.00,428.67 446.94,431.64 449.89,434.28 452.84,436.61 455.77,438.58 458.72,441.98 461.67,445.13 464.61,448.05 467.56,450.72 470.51,453.75 473.45,456.79 476.39,459.90 479.34,462.75 482.28,465.26 485.23,467.46 488.18,470.43 491.12,473.31 494.07,476.71 497.01,479.10 499.96,481.36 502.90,483.49 505.85,485.53 508.80,486.46 511.74,488.19 514.69,489.77 517.63,492.20 520.57,494.18 523.52,495.77 526.47,497.17 529.41,499.79 532.36,502.36 535.31,505.07 538.24,507.48 541.19,509.55 544.14,511.30 547.08,516.27 550.03,520.81 552.98,524.89 555.92,528.46 558.86,532.54 561.81,536.45 564.76,542.03 567.70,547.16 570.65,552.02 573.60,556.74 576.54,560.75 579.49,564.26 582.43,569.93 585.37,574.66 588.32,579.51 591.27,584.48 594.21,589.60 597.16,592.99 600.11,599.07 603.04,606.06 605.99,612.93 608.94,618.67 611.88,623.47 614.83,628.59 617.78,636.48 620.72,644.16 623.66,648.62 626.61,652.55 629.55,655.67 632.50,657.69 635.45,653.34 638.40,646.89 641.34,638.22 644.28,627.19 647.23,615.28 650.17,602.02 653.12,585.21 656.07,567.34 659.01,550.75 661.96,536.43 664.90,521.92 667.84,506.73 670.79,490.56 673.74,479.61 676.68,468.59 679.63,457.50 682.58,446.34 685.51,438.94 688.46,431.60 691.41,424.35 694.35,418.34 697.30,413.46 700.25,409.18 703.20,404.63 706.14,399.95 709.08,395.14 712.03,390.18 714.97,384.70 717.92,378.67 720.87,372.10 723.81,367.07 726.76,361.41 729.70,355.11 732.64,348.19 735.59,340.83 738.54,332.87 741.48,325.00 744.43,316.57 747.38,307.72 750.31,298.39 753.26,290.82 756.21,282.67 759.15,275.63 762.10,268.09 765.05,260.09 767.99,251.66 770.93,242.79 773.88,232.86 776.83,224.94 779.77,216.76 782.72,211.12 785.67,204.45 788.61,196.85 791.55,188.88 794.50,183.81 797.44,178.19 800.39,171.07 803.34,163.82 806.28,156.44 809.23,148.94 812.17,145.15 815.11,141.41 818.06,137.75 821.01,134.18 823.95,129.34 826.90,124.02 829.85,122.31 832.79,120.94 835.73,119.70 838.68,118.45 841.63,119.01 844.57,119.80 847.52,123.82 850.47,130.07 853.41,136.50 856.35,143.14 859.30,150.01 862.24,160.28 865.19,172.10 868.14,183.91 871.08,196.64 874.03,211.30 876.97,227.20 879.91,242.77 882.86,257.21 885.81,272.31 888.75,289.14 891.70,305.55 894.65,321.58 897.58,337.20 900.53,352.65 903.48,367.58 906.43,382.01 909.37,395.99 912.32,411.22 915.27,426.48 918.20,438.45 921.15,450.01 924.10,462.18 927.04,475.15 929.99,485.49 932.94,495.09 935.88,502.14 938.82,510.43 941.77,518.06 944.71,525.02 947.66,531.32 950.61,538.51 953.55,543.76 956.50,548.49 959.44,548.40 962.38,548.62 965.33,548.86 968.28,548.49 971.22,547.22 974.17,546.03 977.12,545.43 980.06,544.61 983.00,543.59 985.95,542.41 988.90,540.70 991.84,539.62 994.79,539.26 997.74,539.66 1000.68,541.35 1003.62,544.72 1006.57,549.38 1009.51,555.78 1012.46,560.84 1015.41,563.33 1018.35,563.74 1021.30,565.92 1024.24,566.23 1027.18,563.94 1030.13,565.39 1033.08,570.62 1036.02,579.69 1038.97,587.69 1041.92,592.99 1044.86,601.55 1047.80,611.18 1050.75,619.85 1053.70,627.95 1056.64,637.53 1059.59,640.41 1062.54,644.20 1065.47,647.65 1068.42,651.71 1071.37,656.35 1074.31,661.55" fill="none" stroke="#000000" stroke-width="3"/>
<line x1="142" y1="100" x2="178" y2="100" stroke="#000000" stroke-width="4"/>
<text x="188" y="105" font-family="Arial" font-size="18" fill="black">|U|</text>
</svg>