<svg xmlns="http://www.w3.org/2000/svg" width="1200" height="820" viewBox="0 0 1200 820">
<rect width="100%" height="100%" fill="white"/>
<text x="600.0" y="36" text-anchor="middle" font-family="Arial" font-size="24" fill="black">profile_diagonal_supply_return: vorticity:0</text>
<line x1="120.00" y1="75" x2="120.00" y2="705" stroke="#dddddd" stroke-width="1"/>
<text x="120.00" y="737" text-anchor="middle" font-family="Arial" font-size="16" fill="black">-0.729</text>
<line x1="376.25" y1="75" x2="376.25" y2="705" stroke="#dddddd" stroke-width="1"/>
<text x="376.25" y="737" text-anchor="middle" font-family="Arial" font-size="16" fill="black">1.913</text>
<line x1="632.50" y1="75" x2="632.50" y2="705" stroke="#dddddd" stroke-width="1"/>
<text x="632.50" y="737" text-anchor="middle" font-family="Arial" font-size="16" fill="black">4.555</text>
<line x1="888.75" y1="75" x2="888.75" y2="705" stroke="#dddddd" stroke-width="1"/>
<text x="888.75" y="737" text-anchor="middle" font-family="Arial" font-size="16" fill="black">7.197</text>
<line x1="1145.00" y1="75" x2="1145.00" y2="705" stroke="#dddddd" stroke-width="1"/>
<text x="1145.00" y="737" text-anchor="middle" font-family="Arial" font-size="16" fill="black">9.839</text>
<line x1="120" y1="705.00" x2="1145" y2="705.00" stroke="#dddddd" stroke-width="1"/>
<text x="104" y="710.00" text-anchor="end" font-family="Arial" font-size="16" fill="black">-1.128</text>
<line x1="120" y1="547.50" x2="1145" y2="547.50" stroke="#dddddd" stroke-width="1"/>
<text x="104" y="552.50" text-anchor="end" font-family="Arial" font-size="16" fill="black">-0.515</text>
<line x1="120" y1="390.00" x2="1145" y2="390.00" stroke="#dddddd" stroke-width="1"/>
<text x="104" y="395.00" text-anchor="end" font-family="Arial" font-size="16" fill="black">0.098</text>
<line x1="120" y1="232.50" x2="1145" y2="232.50" stroke="#dddddd" stroke-width="1"/>
<text x="104" y="237.50" text-anchor="end" font-family="Arial" font-size="16" fill="black">0.711</text>
<line x1="120" y1="75.00" x2="1145" y2="75.00" stroke="#dddddd" stroke-width="1"/>
<text x="104" y="80.00" text-anchor="end" font-family="Arial" font-size="16" fill="black">1.324</text>
<rect x="120" y="75" width="1025" height="630" fill="none" stroke="black" stroke-width="2"/>
<text x="632.5" y="785" text-anchor="middle" font-family="Arial" font-size="20" fill="black">distance along sample line [m]</text>
<text x="34" y="390.0" transform="rotate(-90 34 390.0)" text-anchor="middle" font-family="Arial" font-size="20" fill="black">vorticity:0 [SI]</text>
<polyline points="190.69,349.70 193.64,350.64 196.58,351.84 199.53,353.46 202.47,355.64 205.42,356.76 208.36,357.97 211.31,361.42 214.25,365.64 217.20,372.52 220.14,382.77 223.09,393.89 226.03,408.25 228.98,409.59 231.93,414.08 234.87,420.73 237.82,429.73 240.76,441.25 243.71,455.54 246.65,470.09 249.60,487.03 252.54,490.46 255.49,493.81 258.43,497.11 261.38,500.48 264.32,502.60 267.27,504.70 270.22,506.68 273.16,508.71 276.11,510.77 279.05,512.88 282.00,513.36 284.94,513.86 287.88,514.39 290.83,514.96 293.78,515.48 296.73,515.99 299.67,516.13 302.62,516.39 305.57,516.72 308.50,517.06 311.45,516.89 314.40,516.79 317.34,516.66 320.29,516.68 323.24,516.79 326.18,516.98 329.12,517.23 332.07,517.75 335.01,518.57 337.96,519.54 340.91,519.82 343.85,520.18 346.80,520.62 349.74,521.10 352.68,522.21 355.63,523.42 358.58,524.68 361.53,526.00 364.47,527.35 367.42,528.70 370.36,529.80 373.30,530.95 376.25,532.14 379.20,533.33 382.14,534.66 385.09,536.01 388.04,536.74 390.97,537.48 393.92,538.35 396.87,539.39 399.81,540.00 402.76,540.55 405.71,539.95 408.65,539.68 411.59,539.43 414.54,539.16 417.48,538.84 420.43,538.73 423.38,537.51 426.32,536.23 429.27,534.94 432.21,533.85 435.16,532.95 438.10,532.07 441.05,530.20 444.00,528.44 446.94,526.98 449.89,525.54 452.84,524.15 455.77,522.82 458.72,521.29 461.67,519.84 464.61,518.51 467.56,517.31 470.51,516.59 473.45,516.16 476.39,514.70 479.34,513.47 482.28,512.62 485.23,512.21 488.18,512.09 491.12,512.21 494.07,511.34 497.01,510.88 499.96,510.69 502.90,510.76 505.85,511.11 508.80,511.70 511.74,511.37 514.69,511.25 517.63,511.18 520.57,511.37 523.52,511.75 526.47,512.21 529.41,511.94 532.36,511.93 535.31,512.31 538.24,512.64 541.19,512.88 544.14,513.02 547.08,513.43 550.03,513.55 552.98,513.36 555.92,512.85 558.86,512.86 561.81,512.68 564.76,511.88 567.70,510.45 570.65,508.64 573.60,506.34 576.54,502.94 579.49,498.58 582.43,494.49 585.37,489.05 588.32,482.86 591.27,475.91 594.21,468.20 597.16,458.76 600.11,450.54 603.04,441.88 605.99,432.65 608.94,422.58 611.88,411.89 614.83,400.94 617.78,391.38 620.72,381.61 623.66,371.71 626.61,361.75 629.55,351.73 632.50,341.65 635.45,333.63 638.40,325.84 641.34,318.34 644.28,311.15 647.23,305.24 650.17,300.21 653.12,296.05 656.07,292.28 659.01,289.33 661.96,287.44 664.90,286.16 667.84,285.36 670.79,284.88 673.74,285.08 676.68,285.81 679.63,287.09 682.58,288.92 685.51,290.22 688.46,291.72 691.41,293.62 694.35,296.26 697.30,297.96 700.25,298.93 703.20,300.14 706.14,301.51 709.08,302.50 712.03,302.24 714.97,302.13 717.92,302.19 720.87,302.43 723.81,302.17 726.76,302.21 729.70,302.55 732.64,303.21 735.59,303.54 738.54,303.88 741.48,304.78 744.43,306.10 747.38,307.50 750.31,308.79 753.26,311.21 756.21,314.09 759.15,317.84 762.10,321.37 765.05,325.43 767.99,330.05 770.93,335.27 773.88,340.35 776.83,346.31 779.77,352.91 782.72,360.23 785.67,367.85 788.61,375.82 791.55,384.41 794.50,393.47 797.44,403.08 800.39,413.05 803.34,423.63 806.28,434.86 809.23,446.76 812.17,457.10 815.11,467.92 818.06,479.24 821.01,491.08 823.95,503.37 826.90,516.06 829.85,526.83 832.79,537.98 835.73,549.43 838.68,561.04 841.63,572.08 844.57,583.48 847.52,592.08 850.47,600.29 853.41,608.73 856.35,617.44 859.30,626.41 862.24,634.52 865.19,639.36 868.14,644.38 871.08,648.82 874.03,652.74 876.97,656.26 879.91,659.96 882.86,660.52 885.81,660.97 888.75,660.78 891.70,660.82 894.65,661.07 897.58,661.55 900.53,657.62 903.48,654.01 906.43,650.71 909.37,647.73 912.32,644.39 915.27,641.09 918.20,636.46 921.15,632.16 924.10,627.84 927.04,623.38 929.99,618.29 932.94,613.54 935.88,607.97 938.82,602.22 941.77,596.80 944.71,591.69 947.66,586.86 950.61,581.89 953.55,576.47 956.50,571.31 959.44,565.57 962.38,559.95 965.33,554.46 968.28,549.16 971.22,544.23 974.17,539.59 977.12,535.27 980.06,531.20 983.00,527.37 985.95,523.76 988.90,521.88 991.84,520.47 994.79,519.58 997.74,519.31 1000.68,520.48 1003.62,522.91 1006.57,528.05 1009.51,534.07 1012.46,539.23 1015.41,542.15 1018.35,521.08 1021.30,495.56 1024.24,465.51 1027.18,438.17 1030.13,412.91 1033.08,389.64 1036.02,368.29 1038.97,349.01 1041.92,320.46 1044.86,295.56 1047.80,273.49 1050.75,253.14 1053.70,234.33 1056.64,217.77 1059.59,196.50 1062.54,177.08 1065.47,160.82 1068.42,145.63 1071.37,131.50 1074.31,118.45" fill="none" stroke="#000000" stroke-width="3"/>
<line x1="142" y1="100" x2="178" y2="100" stroke="#000000" stroke-width="4"/>
<text x="188" y="105" font-family="Arial" font-size="18" fill="black">vorticity:0</text>
</svg>