<svg xmlns="http://www.w3.org/2000/svg" width="1200" height="820" viewBox="0 0 1200 820">
<rect width="100%" height="100%" fill="white"/>
<text x="600.0" y="36" text-anchor="middle" font-family="Arial" font-size="24" fill="black">profile_near_ceiling_x: velocity magnitude</text>
<line x1="120.00" y1="75" x2="120.00" y2="705" stroke="#dddddd" stroke-width="1"/>
<text x="120.00" y="737" text-anchor="middle" font-family="Arial" font-size="16" fill="black">-0.560</text>
<line x1="376.25" y1="75" x2="376.25" y2="705" stroke="#dddddd" stroke-width="1"/>
<text x="376.25" y="737" text-anchor="middle" font-family="Arial" font-size="16" fill="black">1.470</text>
<line x1="632.50" y1="75" x2="632.50" y2="705" stroke="#dddddd" stroke-width="1"/>
<text x="632.50" y="737" text-anchor="middle" font-family="Arial" font-size="16" fill="black">3.500</text>
<line x1="888.75" y1="75" x2="888.75" y2="705" stroke="#dddddd" stroke-width="1"/>
<text x="888.75" y="737" text-anchor="middle" font-family="Arial" font-size="16" fill="black">5.530</text>
<line x1="1145.00" y1="75" x2="1145.00" y2="705" stroke="#dddddd" stroke-width="1"/>
<text x="1145.00" y="737" text-anchor="middle" font-family="Arial" font-size="16" fill="black">7.560</text>
<line x1="120" y1="705.00" x2="1145" y2="705.00" stroke="#dddddd" stroke-width="1"/>
<text x="104" y="710.00" text-anchor="end" font-family="Arial" font-size="16" fill="black">0.033</text>
<line x1="120" y1="547.50" x2="1145" y2="547.50" stroke="#dddddd" stroke-width="1"/>
<text x="104" y="552.50" text-anchor="end" font-family="Arial" font-size="16" fill="black">0.218</text>
<line x1="120" y1="390.00" x2="1145" y2="390.00" stroke="#dddddd" stroke-width="1"/>
<text x="104" y="395.00" text-anchor="end" font-family="Arial" font-size="16" fill="black">0.403</text>
<line x1="120" y1="232.50" x2="1145" y2="232.50" stroke="#dddddd" stroke-width="1"/>
<text x="104" y="237.50" text-anchor="end" font-family="Arial" font-size="16" fill="black">0.587</text>
<line x1="120" y1="75.00" x2="1145" y2="75.00" stroke="#dddddd" stroke-width="1"/>
<text x="104" y="80.00" text-anchor="end" font-family="Arial" font-size="16" fill="black">0.772</text>
<rect x="120" y="75" width="1025" height="630" fill="none" stroke="black" stroke-width="2"/>
<text x="632.5" y="785" text-anchor="middle" font-family="Arial" font-size="20" fill="black">x coordinate [m]</text>
<text x="34" y="390.0" transform="rotate(-90 34 390.0)" text-anchor="middle" font-family="Arial" font-size="20" fill="black">|U| [m/s]</text>
<polyline points="190.69,136.89 193.64,134.86 196.58,132.83 199.53,130.80 202.47,128.77 205.42,126.55 208.36,124.25 211.31,121.96 214.25,119.67 217.20,118.45 220.14,118.67 223.09,118.90 226.03,119.12 228.98,119.54 231.93,121.14 234.87,122.74 237.82,124.34 240.76,125.93 243.71,128.60 246.65,131.44 249.60,134.28 252.54,137.13 255.49,140.62 258.43,144.61 261.38,148.60 264.32,152.60 267.27,156.85 270.22,161.78 273.16,166.71 276.11,171.63 279.05,176.56 282.00,182.16 284.94,187.76 287.89,193.36 290.83,198.96 293.78,204.86 296.72,210.88 299.67,216.90 302.62,222.92 305.56,229.01 308.51,235.22 311.45,241.43 314.40,247.63 317.34,253.81 320.29,259.78 323.23,265.74 326.17,271.70 329.13,277.67 332.07,282.90 335.01,288.00 337.96,293.10 340.91,298.20 343.85,302.61 346.80,306.50 349.74,310.39 352.68,314.27 355.64,317.82 358.58,320.54 361.52,323.26 364.47,325.98 367.41,328.69 370.35,330.52 373.31,332.35 376.25,334.18 379.19,336.01 382.15,337.47 385.09,338.79 388.03,340.12 390.98,341.44 393.92,342.72 396.86,343.94 399.82,345.16 402.76,346.38 405.70,347.65 408.65,349.19 411.59,350.71 414.54,352.25 417.49,353.78 420.43,355.88 423.37,358.08 426.33,360.28 429.27,362.48 432.21,365.22 435.16,368.36 438.10,371.51 441.04,374.66 444.00,378.10 446.94,382.28 449.88,386.46 452.83,390.63 455.78,394.81 458.72,399.86 461.67,404.91 464.61,409.96 467.55,415.02 470.51,420.66 473.45,426.54 476.39,432.43 479.34,438.31 482.28,446.00 485.23,456.10 488.18,466.21 491.12,476.31 494.06,486.77 497.02,499.36 499.96,511.94 502.90,524.53 505.85,537.12 508.79,545.84 511.73,553.91 514.69,561.99 517.63,570.06 520.57,574.93 523.52,577.39 526.47,579.84 529.41,582.30 532.36,584.25 535.30,584.93 538.24,585.61 541.20,586.30 544.14,586.98 547.08,588.04 550.03,589.11 552.97,590.18 555.92,591.25 558.87,593.14 561.81,595.36 564.75,597.58 567.71,599.79 570.65,602.55 573.59,606.02 576.54,609.48 579.48,612.95 582.42,616.55 585.38,620.92 588.32,625.30 591.26,629.68 594.21,634.05 597.16,638.37 600.10,642.67 603.05,646.98 605.99,651.29 608.93,654.34 611.89,656.45 614.83,658.55 617.77,660.66 620.72,661.55 623.66,659.39 626.60,657.23 629.56,655.06 632.50,652.90 635.44,648.29 638.40,643.69 641.34,639.08 644.28,634.48 647.23,629.36 650.17,624.03 653.11,618.71 656.07,613.38 659.01,608.13 661.95,602.98 664.90,597.82 667.84,592.67 670.79,587.59 673.74,583.05 676.68,578.50 679.62,573.96 682.58,569.42 685.52,565.56 688.46,561.84 691.41,558.10 694.35,554.37 697.29,551.12 700.25,548.23 703.19,545.34 706.13,542.45 709.08,539.78 712.03,537.66 714.97,535.53 717.92,533.41 720.86,531.29 723.80,529.79 726.76,528.31 729.70,526.83 732.64,525.34 735.59,524.19 738.53,523.17 741.48,522.16 744.43,521.13 747.37,520.23 750.31,519.48 753.27,518.73 756.21,517.97 759.15,517.24 762.10,516.58 765.04,515.91 767.98,515.26 770.94,514.60 773.88,513.90 776.82,513.19 779.77,512.48 782.72,511.76 785.66,510.94 788.61,510.05 791.55,509.14 794.49,508.24 797.45,507.25 800.39,506.02 803.33,504.80 806.28,503.58 809.22,502.35 812.17,500.70 815.12,499.04 818.06,497.39 821.00,495.73 823.96,493.75 826.90,491.63 829.84,489.51 832.79,487.39 835.73,485.08 838.67,482.54 841.63,480.00 844.57,477.46 847.51,474.88 850.46,472.04 853.41,469.19 856.35,466.35 859.30,463.51 862.24,460.55 865.18,457.57 868.14,454.59 871.08,451.60 874.02,448.64 876.97,445.70 879.91,442.75 882.85,439.81 885.81,436.92 888.75,434.18 891.69,431.44 894.65,428.69 897.59,425.95 900.53,423.56 903.48,421.16 906.42,418.78 909.36,416.38 912.32,414.34 915.26,412.43 918.20,410.53 921.15,408.63 924.09,406.99 927.04,405.72 929.99,404.45 932.93,403.17 935.87,402.00 938.83,401.49 941.77,400.98 944.71,400.46 947.66,399.95 950.60,400.21 953.54,400.59 956.50,400.98 959.44,401.36 962.38,402.32 965.33,403.72 968.28,405.12 971.22,406.51 974.17,408.22 977.11,410.73 980.05,413.24 983.01,415.74 985.95,418.25 988.89,421.93 991.84,425.62 994.78,429.31 997.73,432.99 1000.68,437.52 1003.62,442.38 1006.56,447.24 1009.52,452.10 1012.46,457.41 1015.40,463.33 1018.35,469.24 1021.29,475.16 1024.23,481.16 1027.19,487.70 1030.13,494.24 1033.07,500.78 1036.02,507.32 1038.97,513.83 1041.91,520.34 1044.86,526.84 1047.80,533.35 1050.74,538.70 1053.70,543.21 1056.64,547.72 1059.58,552.22 1062.53,555.78 1065.47,556.98 1068.42,558.19 1071.37,559.39 1074.31,560.59" fill="none" stroke="#000000" stroke-width="3"/>
<line x1="142" y1="100" x2="178" y2="100" stroke="#000000" stroke-width="4"/>
<text x="188" y="105" font-family="Arial" font-size="18" fill="black">|U|</text>
</svg>