<svg xmlns="http://www.w3.org/2000/svg" width="1200" height="820" viewBox="0 0 1200 820">
<rect width="100%" height="100%" fill="white"/>
<text x="600.0" y="36" text-anchor="middle" font-family="Arial" font-size="24" fill="black">profile_center_y: k</text>
<line x1="120.00" y1="75" x2="120.00" y2="705" stroke="#dddddd" stroke-width="1"/>
<text x="120.00" y="737" text-anchor="middle" font-family="Arial" font-size="16" fill="black">-0.400</text>
<line x1="376.25" y1="75" x2="376.25" y2="705" stroke="#dddddd" stroke-width="1"/>
<text x="376.25" y="737" text-anchor="middle" font-family="Arial" font-size="16" fill="black">1.050</text>
<line x1="632.50" y1="75" x2="632.50" y2="705" stroke="#dddddd" stroke-width="1"/>
<text x="632.50" y="737" text-anchor="middle" font-family="Arial" font-size="16" fill="black">2.500</text>
<line x1="888.75" y1="75" x2="888.75" y2="705" stroke="#dddddd" stroke-width="1"/>
<text x="888.75" y="737" text-anchor="middle" font-family="Arial" font-size="16" fill="black">3.950</text>
<line x1="1145.00" y1="75" x2="1145.00" y2="705" stroke="#dddddd" stroke-width="1"/>
<text x="1145.00" y="737" text-anchor="middle" font-family="Arial" font-size="16" fill="black">5.400</text>
<line x1="120" y1="705.00" x2="1145" y2="705.00" stroke="#dddddd" stroke-width="1"/>
<text x="104" y="710.00" text-anchor="end" font-family="Arial" font-size="16" fill="black">0.002</text>
<line x1="120" y1="547.50" x2="1145" y2="547.50" stroke="#dddddd" stroke-width="1"/>
<text x="104" y="552.50" text-anchor="end" font-family="Arial" font-size="16" fill="black">0.010</text>
<line x1="120" y1="390.00" x2="1145" y2="390.00" stroke="#dddddd" stroke-width="1"/>
<text x="104" y="395.00" text-anchor="end" font-family="Arial" font-size="16" fill="black">0.019</text>
<line x1="120" y1="232.50" x2="1145" y2="232.50" stroke="#dddddd" stroke-width="1"/>
<text x="104" y="237.50" text-anchor="end" font-family="Arial" font-size="16" fill="black">0.027</text>
<line x1="120" y1="75.00" x2="1145" y2="75.00" stroke="#dddddd" stroke-width="1"/>
<text x="104" y="80.00" text-anchor="end" font-family="Arial" font-size="16" fill="black">0.036</text>
<rect x="120" y="75" width="1025" height="630" fill="none" stroke="black" stroke-width="2"/>
<text x="632.5" y="785" text-anchor="middle" font-family="Arial" font-size="20" fill="black">y coordinate [m]</text>
<text x="34" y="390.0" transform="rotate(-90 34 390.0)" text-anchor="middle" font-family="Arial" font-size="20" fill="black">k [m2/s2]</text>
<polyline points="190.69,609.16 193.64,601.34 196.58,593.52 199.53,585.71 202.47,577.89 205.42,570.07 208.36,562.26 211.31,557.90 214.25,553.54 217.20,549.19 220.14,544.84 223.09,540.47 226.03,536.11 228.98,542.71 231.92,549.30 234.87,555.90 237.82,562.49 240.76,569.08 243.71,575.68 246.65,579.54 249.60,583.41 252.54,587.28 255.49,591.15 258.43,595.02 261.38,598.88 264.33,598.75 267.27,598.62 270.22,598.49 273.16,598.36 276.11,598.24 279.05,598.11 282.00,595.58 284.94,593.05 287.89,590.52 290.83,588.00 293.78,585.47 296.72,582.94 299.67,579.23 302.61,575.51 305.56,571.80 308.51,568.08 311.45,564.37 314.40,560.65 317.34,556.31 320.29,551.98 323.23,547.64 326.18,543.30 329.12,538.97 332.07,534.64 335.01,529.99 337.96,525.36 340.91,520.72 343.85,516.09 346.80,511.46 349.74,506.83 352.69,502.63 355.63,498.41 358.58,494.21 361.52,490.00 364.47,485.78 367.41,481.58 370.37,478.20 373.30,474.80 376.25,471.40 379.20,468.02 382.13,464.62 385.09,461.24 388.04,457.75 390.97,454.26 393.92,450.77 396.87,447.27 399.81,443.78 402.76,440.29 405.71,435.69 408.64,431.12 411.59,426.52 414.55,421.93 417.48,417.35 420.43,412.76 423.38,406.71 426.32,400.64 429.27,394.59 432.22,388.52 435.15,382.47 438.10,376.40 441.05,368.52 443.99,360.64 446.94,352.75 449.89,344.87 452.82,336.99 455.78,329.09 458.73,319.19 461.66,309.30 464.61,299.40 467.56,289.50 470.50,279.60 473.45,269.70 476.40,258.68 479.33,247.65 482.28,236.63 485.24,225.61 488.17,214.59 491.12,203.57 494.07,194.05 497.01,184.52 499.96,175.00 502.91,165.46 505.84,155.93 508.79,146.41 511.74,141.76 514.68,137.09 517.63,132.44 520.58,127.77 523.51,123.12 526.47,118.45 529.42,120.54 532.35,122.61 535.30,124.69 538.25,126.76 541.19,128.83 544.14,130.92 547.09,137.67 550.02,144.43 552.97,151.17 555.93,157.93 558.86,164.67 561.81,171.43 564.76,178.19 567.70,184.95 570.65,191.71 573.60,198.47 576.53,205.23 579.48,212.00 582.43,215.73 585.37,219.48 588.32,223.22 591.27,226.97 594.20,230.71 597.16,234.46 600.11,234.65 603.04,234.85 605.99,235.04 608.94,235.23 611.88,235.41 614.83,235.62 617.78,232.82 620.71,230.02 623.66,227.22 626.62,224.41 629.55,221.61 632.50,218.81 635.45,214.35 638.38,209.88 641.34,205.40 644.29,200.94 647.22,196.46 650.17,191.99 653.12,187.90 656.06,183.81 659.01,179.72 661.96,175.63 664.89,171.56 667.84,167.47 670.80,165.88 673.73,164.30 676.68,162.73 679.63,161.14 682.57,159.55 685.52,157.98 688.47,160.10 691.40,162.21 694.35,164.33 697.30,166.45 700.24,168.56 703.19,170.68 706.14,176.34 709.07,182.02 712.03,187.70 714.98,193.38 717.91,199.05 720.86,204.73 723.81,212.54 726.75,220.34 729.70,228.15 732.65,235.96 735.58,243.76 738.53,251.57 741.49,259.47 744.42,267.39 747.37,275.29 750.32,283.21 753.26,291.11 756.21,299.02 759.16,305.60 762.09,312.19 765.04,318.76 767.99,325.34 770.93,331.93 773.88,338.51 776.83,343.25 779.76,347.99 782.72,352.74 785.67,357.48 788.60,362.22 791.55,366.97 794.50,369.84 797.44,372.72 800.39,375.60 803.34,378.47 806.27,381.35 809.22,384.22 812.18,385.33 815.11,386.43 818.06,387.53 821.01,388.65 823.95,389.75 826.90,390.85 829.85,390.33 832.78,389.81 835.73,389.28 838.68,388.76 841.62,388.24 844.57,387.72 847.52,385.92 850.45,384.13 853.41,382.34 856.36,380.54 859.29,378.73 862.24,376.94 865.19,374.68 868.13,372.40 871.08,370.14 874.03,367.88 876.96,365.60 879.91,363.34 882.87,361.87 885.80,360.39 888.75,358.92 891.70,357.46 894.63,355.99 897.59,354.51 900.54,354.73 903.47,354.94 906.42,355.16 909.37,355.37 912.31,355.59 915.26,355.80 918.21,357.52 921.14,359.25 924.09,360.97 927.05,362.69 929.98,364.43 932.93,366.15 935.88,368.89 938.82,371.64 941.77,374.38 944.72,377.15 947.65,379.89 950.60,382.64 953.55,386.26 956.49,389.88 959.44,393.51 962.39,397.13 965.32,400.77 968.28,404.39 971.23,408.99 974.16,413.58 977.11,418.18 980.06,422.77 983.00,427.36 985.95,431.96 988.90,437.66 991.83,443.33 994.78,449.03 997.74,454.72 1000.67,460.42 1003.62,466.12 1006.57,472.99 1009.51,479.84 1012.46,486.72 1015.41,493.59 1018.34,500.46 1021.29,507.33 1024.24,515.76 1027.18,524.18 1030.13,532.62 1033.08,541.04 1036.01,549.47 1038.97,557.90 1041.92,568.89 1044.85,579.87 1047.80,590.85 1050.75,601.84 1053.69,612.82 1056.64,623.80 1059.59,630.10 1062.52,636.39 1065.47,642.68 1068.43,648.97 1071.36,655.26 1074.31,661.55" fill="none" stroke="#000000" stroke-width="3"/>
<line x1="142" y1="100" x2="178" y2="100" stroke="#000000" stroke-width="4"/>
<text x="188" y="105" font-family="Arial" font-size="18" fill="black">k</text>
</svg>