<svg xmlns="http://www.w3.org/2000/svg" width="1200" height="820" viewBox="0 0 1200 820">
<rect width="100%" height="100%" fill="white"/>
<text x="600.0" y="36" text-anchor="middle" font-family="Arial" font-size="24" fill="black">profile_center_y: velocity magnitude</text>
<line x1="120.00" y1="75" x2="120.00" y2="705" stroke="#dddddd" stroke-width="1"/>
<text x="120.00" y="737" text-anchor="middle" font-family="Arial" font-size="16" fill="black">-0.400</text>
<line x1="376.25" y1="75" x2="376.25" y2="705" stroke="#dddddd" stroke-width="1"/>
<text x="376.25" y="737" text-anchor="middle" font-family="Arial" font-size="16" fill="black">1.050</text>
<line x1="632.50" y1="75" x2="632.50" y2="705" stroke="#dddddd" stroke-width="1"/>
<text x="632.50" y="737" text-anchor="middle" font-family="Arial" font-size="16" fill="black">2.500</text>
<line x1="888.75" y1="75" x2="888.75" y2="705" stroke="#dddddd" stroke-width="1"/>
<text x="888.75" y="737" text-anchor="middle" font-family="Arial" font-size="16" fill="black">3.950</text>
<line x1="1145.00" y1="75" x2="1145.00" y2="705" stroke="#dddddd" stroke-width="1"/>
<text x="1145.00" y="737" text-anchor="middle" font-family="Arial" font-size="16" fill="black">5.400</text>
<line x1="120" y1="705.00" x2="1145" y2="705.00" stroke="#dddddd" stroke-width="1"/>
<text x="104" y="710.00" text-anchor="end" font-family="Arial" font-size="16" fill="black">0.032</text>
<line x1="120" y1="547.50" x2="1145" y2="547.50" stroke="#dddddd" stroke-width="1"/>
<text x="104" y="552.50" text-anchor="end" font-family="Arial" font-size="16" fill="black">0.146</text>
<line x1="120" y1="390.00" x2="1145" y2="390.00" stroke="#dddddd" stroke-width="1"/>
<text x="104" y="395.00" text-anchor="end" font-family="Arial" font-size="16" fill="black">0.259</text>
<line x1="120" y1="232.50" x2="1145" y2="232.50" stroke="#dddddd" stroke-width="1"/>
<text x="104" y="237.50" text-anchor="end" font-family="Arial" font-size="16" fill="black">0.373</text>
<line x1="120" y1="75.00" x2="1145" y2="75.00" stroke="#dddddd" stroke-width="1"/>
<text x="104" y="80.00" text-anchor="end" font-family="Arial" font-size="16" fill="black">0.487</text>
<rect x="120" y="75" width="1025" height="630" fill="none" stroke="black" stroke-width="2"/>
<text x="632.5" y="785" text-anchor="middle" font-family="Arial" font-size="20" fill="black">y coordinate [m]</text>
<text x="34" y="390.0" transform="rotate(-90 34 390.0)" text-anchor="middle" font-family="Arial" font-size="20" fill="black">|U| [m/s]</text>
<polyline points="190.69,232.67 193.64,245.92 196.58,259.15 199.53,272.39 202.47,285.62 205.42,298.87 208.36,312.11 211.31,331.44 214.25,350.78 217.20,370.12 220.14,389.46 223.09,408.80 226.03,428.14 228.98,434.11 231.92,440.09 234.87,446.05 237.82,452.02 240.76,457.99 243.71,463.97 246.65,462.33 249.60,460.70 252.54,459.06 255.49,457.44 258.43,455.80 261.38,454.17 264.33,450.99 267.27,447.81 270.22,444.63 273.16,441.46 276.11,438.29 279.05,435.11 282.00,431.05 284.94,426.98 287.89,422.92 290.83,418.86 293.78,414.78 296.72,410.72 299.67,405.46 302.61,400.18 305.56,394.90 308.51,389.63 311.45,384.35 314.40,379.07 317.34,372.20 320.29,365.34 323.23,358.46 326.18,351.59 329.12,344.71 332.07,337.84 335.01,328.64 337.96,319.42 340.91,310.22 343.85,301.02 346.80,291.82 349.74,282.60 352.69,270.46 355.63,258.32 358.58,246.18 361.52,234.04 364.47,221.90 367.41,209.76 370.37,199.03 373.30,188.32 376.25,177.60 379.20,166.88 382.13,156.16 385.09,145.44 388.04,140.94 390.97,136.45 393.92,131.95 396.87,127.44 399.81,122.95 402.76,118.45 405.71,119.53 408.64,120.61 411.59,121.69 414.55,122.77 417.48,123.87 420.43,124.95 423.38,129.62 426.32,134.29 429.27,138.96 432.22,143.64 435.15,148.31 438.10,152.98 441.05,159.80 443.99,166.62 446.94,173.44 449.89,180.27 452.82,187.09 455.78,193.91 458.73,202.62 461.66,211.35 464.61,220.07 467.56,228.79 470.50,237.52 473.45,246.24 476.40,257.57 479.33,268.92 482.28,280.26 485.24,291.60 488.17,302.95 491.12,314.28 494.07,328.69 497.01,343.11 499.96,357.52 502.91,371.95 505.84,386.36 508.79,400.77 511.74,417.03 514.68,433.30 517.63,449.55 520.58,465.82 523.51,482.08 526.47,498.33 529.42,511.87 532.35,525.41 535.30,538.95 538.25,552.49 541.19,566.03 544.14,579.57 547.09,583.73 550.02,587.89 552.97,592.06 555.93,596.22 558.86,600.39 561.81,604.55 564.76,602.84 567.70,601.15 570.65,599.45 573.60,597.74 576.53,596.05 579.48,594.35 582.43,593.53 585.37,592.71 588.32,591.89 591.27,591.09 594.20,590.27 597.16,589.45 600.11,591.37 603.04,593.28 605.99,595.20 608.94,597.12 611.88,599.03 614.83,600.94 617.78,605.53 620.71,610.13 623.66,614.72 626.62,619.31 629.55,623.90 632.50,628.49 635.45,634.00 638.38,639.51 641.34,645.02 644.29,650.53 647.22,656.04 650.17,661.55 653.12,661.01 656.06,660.47 659.01,659.92 661.96,659.38 664.89,658.84 667.84,658.30 670.80,648.29 673.73,638.29 676.68,628.29 679.63,618.29 682.57,608.29 685.52,598.28 688.47,585.06 691.40,571.84 694.35,558.62 697.30,545.40 700.24,532.16 703.19,518.94 706.14,506.04 709.07,493.14 712.03,480.24 714.98,467.33 717.91,454.43 720.86,441.53 723.81,430.98 726.75,420.44 729.70,409.90 732.65,399.36 735.58,388.81 738.53,378.27 741.49,370.88 744.42,363.49 747.37,356.11 750.32,348.72 753.26,341.32 756.21,333.93 759.16,329.15 762.09,324.37 765.04,319.59 767.99,314.81 770.93,310.01 773.88,305.23 776.83,302.50 779.76,299.77 782.72,297.04 785.67,294.31 788.60,291.60 791.55,288.86 794.50,288.07 797.44,287.29 800.39,286.48 803.34,285.69 806.27,284.90 809.22,284.11 812.18,285.54 815.11,286.95 818.06,288.38 821.01,289.81 823.95,291.22 826.90,292.65 829.85,296.71 832.78,300.78 835.73,304.84 838.68,308.90 841.62,312.98 844.57,317.04 847.52,324.07 850.45,331.09 853.41,338.13 856.36,345.16 859.29,352.18 862.24,359.21 865.19,369.11 868.13,379.00 871.08,388.89 874.03,398.79 876.96,408.68 879.91,418.58 882.87,430.35 885.80,442.10 888.75,453.86 891.70,465.63 894.63,477.39 897.59,489.15 900.54,500.03 903.47,510.89 906.42,521.77 909.37,532.63 912.31,543.51 915.26,554.38 918.21,562.42 921.14,570.45 924.09,578.49 927.05,586.53 929.98,594.57 932.93,602.61 935.88,608.18 938.82,613.76 941.77,619.34 944.72,624.91 947.65,630.49 950.60,636.07 953.55,639.61 956.49,643.14 959.44,646.68 962.39,650.22 965.32,653.76 968.28,657.29 971.23,657.74 974.16,658.19 977.11,658.64 980.06,659.09 983.00,659.54 985.95,659.98 988.90,656.35 991.83,652.72 994.78,649.08 997.74,645.45 1000.67,641.82 1003.62,638.19 1006.57,631.60 1009.51,625.00 1012.46,618.41 1015.41,611.82 1018.34,605.22 1021.29,598.64 1024.24,590.55 1027.18,582.47 1030.13,574.38 1033.08,566.30 1036.01,558.20 1038.97,550.12 1041.92,541.48 1044.85,532.83 1047.80,524.19 1050.75,515.55 1053.69,506.90 1056.64,498.27 1059.59,493.80 1062.52,489.33 1065.47,484.86 1068.43,480.40 1071.36,475.94 1074.31,471.48" fill="none" stroke="#000000" stroke-width="3"/>
<line x1="142" y1="100" x2="178" y2="100" stroke="#000000" stroke-width="4"/>
<text x="188" y="105" font-family="Arial" font-size="18" fill="black">|U|</text>
</svg>