<svg xmlns="http://www.w3.org/2000/svg" width="1200" height="820" viewBox="0 0 1200 820">
<rect width="100%" height="100%" fill="white"/>
<text x="600.0" y="36" text-anchor="middle" font-family="Arial" font-size="24" fill="black">profile_near_ceiling_x: alphat</text>
<line x1="120.00" y1="75" x2="120.00" y2="705" stroke="#dddddd" stroke-width="1"/>
<text x="120.00" y="737" text-anchor="middle" font-family="Arial" font-size="16" fill="black">-0.560</text>
<line x1="376.25" y1="75" x2="376.25" y2="705" stroke="#dddddd" stroke-width="1"/>
<text x="376.25" y="737" text-anchor="middle" font-family="Arial" font-size="16" fill="black">1.470</text>
<line x1="632.50" y1="75" x2="632.50" y2="705" stroke="#dddddd" stroke-width="1"/>
<text x="632.50" y="737" text-anchor="middle" font-family="Arial" font-size="16" fill="black">3.500</text>
<line x1="888.75" y1="75" x2="888.75" y2="705" stroke="#dddddd" stroke-width="1"/>
<text x="888.75" y="737" text-anchor="middle" font-family="Arial" font-size="16" fill="black">5.530</text>
<line x1="1145.00" y1="75" x2="1145.00" y2="705" stroke="#dddddd" stroke-width="1"/>
<text x="1145.00" y="737" text-anchor="middle" font-family="Arial" font-size="16" fill="black">7.560</text>
<line x1="120" y1="705.00" x2="1145" y2="705.00" stroke="#dddddd" stroke-width="1"/>
<text x="104" y="710.00" text-anchor="end" font-family="Arial" font-size="16" fill="black">2.84e-04</text>
<line x1="120" y1="547.50" x2="1145" y2="547.50" stroke="#dddddd" stroke-width="1"/>
<text x="104" y="552.50" text-anchor="end" font-family="Arial" font-size="16" fill="black">0.002</text>
<line x1="120" y1="390.00" x2="1145" y2="390.00" stroke="#dddddd" stroke-width="1"/>
<text x="104" y="395.00" text-anchor="end" font-family="Arial" font-size="16" fill="black">0.004</text>
<line x1="120" y1="232.50" x2="1145" y2="232.50" stroke="#dddddd" stroke-width="1"/>
<text x="104" y="237.50" text-anchor="end" font-family="Arial" font-size="16" fill="black">0.006</text>
<line x1="120" y1="75.00" x2="1145" y2="75.00" stroke="#dddddd" stroke-width="1"/>
<text x="104" y="80.00" text-anchor="end" font-family="Arial" font-size="16" fill="black">0.008</text>
<rect x="120" y="75" width="1025" height="630" fill="none" stroke="black" stroke-width="2"/>
<text x="632.5" y="785" text-anchor="middle" font-family="Arial" font-size="20" fill="black">x coordinate [m]</text>
<text x="34" y="390.0" transform="rotate(-90 34 390.0)" text-anchor="middle" font-family="Arial" font-size="20" fill="black">alphat [SI]</text>
<polyline points="190.69,661.55 193.64,655.58 196.58,649.60 199.53,643.62 202.47,637.65 205.42,626.55 208.36,613.41 211.31,600.27 214.25,587.12 217.20,574.28 220.14,561.83 223.09,549.39 226.03,536.94 228.98,524.92 231.93,515.45 234.87,505.98 237.82,496.51 240.76,487.04 243.71,479.01 246.65,471.23 249.60,463.43 252.54,455.65 255.49,448.46 258.43,441.72 261.38,434.97 264.32,428.24 267.27,421.62 270.22,415.32 273.16,409.03 276.11,402.73 279.05,396.43 282.00,389.38 284.94,382.33 287.89,375.28 290.83,368.23 293.78,359.75 296.72,350.70 299.67,341.64 302.62,332.58 305.56,322.41 308.51,310.76 311.45,299.12 314.40,287.47 317.34,275.69 320.29,263.15 323.23,250.60 326.17,238.05 329.13,225.51 332.07,214.44 335.01,203.63 337.96,192.81 340.91,181.99 343.85,172.87 346.80,165.01 349.74,157.14 352.68,149.29 355.64,142.37 358.58,137.80 361.52,133.22 364.47,128.65 367.41,124.08 370.35,122.67 373.31,121.27 376.25,119.86 379.19,118.45 382.15,119.14 385.09,120.66 388.03,122.17 390.98,123.70 393.92,126.38 396.86,130.59 399.82,134.80 402.76,139.02 405.70,143.58 408.65,150.24 411.59,156.89 414.54,163.55 417.49,170.20 420.43,178.83 423.37,187.78 426.33,196.73 429.27,205.68 432.21,216.30 435.16,228.14 438.10,240.00 441.04,251.85 444.00,264.64 446.94,279.75 449.88,294.86 452.83,309.97 455.78,325.08 458.72,342.63 461.67,360.18 464.61,377.72 467.55,395.27 470.51,413.51 473.45,432.02 476.39,450.53 479.34,469.05 482.28,485.78 485.23,500.14 488.18,514.51 491.12,528.88 494.06,541.45 497.02,543.29 499.96,545.13 502.90,546.97 505.85,548.82 508.79,540.80 511.73,531.15 514.69,521.51 517.63,511.87 520.57,500.50 523.52,487.85 526.47,475.20 529.41,462.56 532.36,450.17 535.30,438.46 538.24,426.73 541.20,415.01 544.14,403.29 547.08,393.37 550.03,383.46 552.97,373.55 555.92,363.63 558.87,355.37 561.81,347.76 564.75,340.15 567.71,332.54 570.65,326.05 573.59,321.06 576.54,316.07 579.48,311.08 582.42,306.45 585.38,303.98 588.32,301.50 591.26,299.02 594.21,296.55 597.16,295.79 600.10,295.30 603.05,294.81 605.99,294.33 608.93,294.72 611.89,295.77 614.83,296.82 617.77,297.86 620.72,299.24 623.66,301.44 626.60,303.63 629.56,305.83 632.50,308.04 635.44,310.86 638.40,313.70 641.34,316.52 644.28,319.36 647.23,322.44 650.17,325.63 653.11,328.82 656.07,332.01 659.01,335.29 661.95,338.70 664.90,342.10 667.84,345.52 670.79,348.92 673.74,352.32 676.68,355.70 679.62,359.09 682.58,362.49 685.52,365.67 688.46,368.80 691.41,371.94 694.35,375.08 697.29,377.92 700.25,380.54 703.19,383.16 706.13,385.79 709.08,388.18 712.03,389.99 714.97,391.81 717.92,393.63 720.86,395.44 723.80,396.25 726.76,397.07 729.70,397.88 732.64,398.70 735.59,398.71 738.53,398.41 741.48,398.12 744.43,397.82 747.37,397.01 750.31,395.52 753.27,394.02 756.21,392.54 759.15,390.88 762.10,388.24 765.04,385.60 767.98,382.97 770.94,380.33 773.88,376.90 776.82,373.34 779.77,369.78 782.72,366.21 785.66,362.37 788.61,358.32 791.55,354.26 794.49,350.21 797.45,346.17 800.39,342.17 803.33,338.17 806.28,334.18 809.22,330.18 812.17,326.70 815.12,323.22 818.06,319.74 821.00,316.26 823.96,313.33 826.90,310.61 829.84,307.91 832.79,305.19 835.73,302.82 838.67,300.90 841.63,298.96 844.57,297.04 847.51,295.21 850.46,293.99 853.41,292.77 856.35,291.56 859.30,290.34 862.24,289.66 865.18,289.06 868.14,288.48 871.08,287.88 874.02,287.65 876.97,287.68 879.91,287.70 882.85,287.73 885.81,287.96 888.75,288.68 891.69,289.40 894.65,290.12 897.59,290.84 900.53,292.32 903.48,293.80 906.42,295.28 909.36,296.76 912.32,298.82 915.26,301.11 918.20,303.39 921.15,305.68 924.09,308.31 927.04,311.39 929.99,314.47 932.93,317.55 935.87,320.73 938.83,324.50 941.77,328.28 944.71,332.06 947.66,335.84 950.60,340.07 953.54,344.37 956.50,348.68 959.44,352.99 962.38,357.48 965.33,362.11 968.28,366.75 971.22,371.39 974.17,376.06 977.11,380.83 980.05,385.60 983.01,390.37 985.95,395.14 988.89,399.92 991.84,404.70 994.78,409.48 997.73,414.25 1000.68,419.07 1003.62,423.89 1006.56,428.71 1009.52,433.53 1012.46,438.50 1015.40,443.64 1018.35,448.80 1021.29,453.95 1024.23,459.24 1027.19,465.30 1030.13,471.38 1033.07,477.45 1036.02,483.51 1038.97,491.75 1041.91,500.34 1044.86,508.92 1047.80,517.52 1050.74,531.80 1053.70,550.35 1056.64,568.90 1059.58,587.46 1062.53,604.52 1065.47,617.84 1068.42,631.16 1071.37,644.48 1074.31,657.80" fill="none" stroke="#000000" stroke-width="3"/>
<line x1="142" y1="100" x2="178" y2="100" stroke="#000000" stroke-width="4"/>
<text x="188" y="105" font-family="Arial" font-size="18" fill="black">alphat</text>
</svg>