<svg xmlns="http://www.w3.org/2000/svg" width="1200" height="820" viewBox="0 0 1200 820">
<rect width="100%" height="100%" fill="white"/>
<text x="600.0" y="36" text-anchor="middle" font-family="Arial" font-size="24" fill="black">profile_near_floor_x: rho</text>
<line x1="120.00" y1="75" x2="120.00" y2="705" stroke="#dddddd" stroke-width="1"/>
<text x="120.00" y="737" text-anchor="middle" font-family="Arial" font-size="16" fill="black">-0.560</text>
<line x1="376.25" y1="75" x2="376.25" y2="705" stroke="#dddddd" stroke-width="1"/>
<text x="376.25" y="737" text-anchor="middle" font-family="Arial" font-size="16" fill="black">1.470</text>
<line x1="632.50" y1="75" x2="632.50" y2="705" stroke="#dddddd" stroke-width="1"/>
<text x="632.50" y="737" text-anchor="middle" font-family="Arial" font-size="16" fill="black">3.500</text>
<line x1="888.75" y1="75" x2="888.75" y2="705" stroke="#dddddd" stroke-width="1"/>
<text x="888.75" y="737" text-anchor="middle" font-family="Arial" font-size="16" fill="black">5.530</text>
<line x1="1145.00" y1="75" x2="1145.00" y2="705" stroke="#dddddd" stroke-width="1"/>
<text x="1145.00" y="737" text-anchor="middle" font-family="Arial" font-size="16" fill="black">7.560</text>
<line x1="120" y1="705.00" x2="1145" y2="705.00" stroke="#dddddd" stroke-width="1"/>
<text x="104" y="710.00" text-anchor="end" font-family="Arial" font-size="16" fill="black">1.150</text>
<line x1="120" y1="547.50" x2="1145" y2="547.50" stroke="#dddddd" stroke-width="1"/>
<text x="104" y="552.50" text-anchor="end" font-family="Arial" font-size="16" fill="black">1.172</text>
<line x1="120" y1="390.00" x2="1145" y2="390.00" stroke="#dddddd" stroke-width="1"/>
<text x="104" y="395.00" text-anchor="end" font-family="Arial" font-size="16" fill="black">1.194</text>
<line x1="120" y1="232.50" x2="1145" y2="232.50" stroke="#dddddd" stroke-width="1"/>
<text x="104" y="237.50" text-anchor="end" font-family="Arial" font-size="16" fill="black">1.216</text>
<line x1="120" y1="75.00" x2="1145" y2="75.00" stroke="#dddddd" stroke-width="1"/>
<text x="104" y="80.00" text-anchor="end" font-family="Arial" font-size="16" fill="black">1.239</text>
<rect x="120" y="75" width="1025" height="630" fill="none" stroke="black" stroke-width="2"/>
<text x="632.5" y="785" text-anchor="middle" font-family="Arial" font-size="20" fill="black">x coordinate [m]</text>
<text x="34" y="390.0" transform="rotate(-90 34 390.0)" text-anchor="middle" font-family="Arial" font-size="20" fill="black">rho [kg/m3]</text>
<polyline points="190.69,661.55 193.64,659.42 196.58,657.29 199.53,654.45 202.47,652.32 205.42,648.77 208.36,643.80 211.31,638.83 214.25,634.57 217.20,629.60 220.14,623.92 223.09,618.25 226.03,612.57 228.98,606.89 231.93,599.79 234.87,591.98 237.82,584.88 240.76,577.07 243.71,567.84 246.65,557.90 249.60,547.25 252.54,537.31 255.49,525.95 258.43,513.17 261.38,499.69 264.32,486.91 267.27,473.42 270.22,458.51 273.16,442.89 276.11,427.98 279.05,413.07 282.00,397.45 284.94,381.84 287.89,366.22 290.83,350.60 293.78,332.85 296.72,314.39 299.67,295.93 302.62,278.18 305.56,257.60 308.51,235.59 311.45,212.87 314.40,190.86 317.34,170.27 320.29,158.20 323.23,146.14 326.17,134.07 329.13,122.00 332.07,119.87 335.01,119.16 337.96,119.16 340.91,118.45 343.85,118.45 346.80,118.45 349.74,118.45 352.68,118.45 355.64,118.45 358.58,118.45 361.52,118.45 364.47,118.45 367.41,118.45 370.35,118.45 373.31,118.45 376.25,118.45 379.19,118.45 382.15,118.45 385.09,118.45 388.03,118.45 390.98,118.45 393.92,118.45 396.86,119.16 399.82,119.87 402.76,120.58 405.70,123.42 408.65,139.75 411.59,156.08 414.54,172.40 417.49,189.44 420.43,210.74 423.37,232.75 426.33,255.47 429.27,277.47 432.21,291.67 435.16,300.19 438.10,308.71 441.04,317.23 444.00,324.33 446.94,328.59 449.88,332.85 452.83,337.82 455.78,342.08 458.72,347.05 461.67,352.02 464.61,356.99 467.55,361.96 470.51,366.93 473.45,371.19 476.39,375.45 479.34,380.42 482.28,383.97 485.23,386.81 488.18,389.65 491.12,392.48 494.06,395.32 497.02,396.03 499.96,396.03 502.90,396.74 505.85,397.45 508.79,396.03 511.73,393.90 514.69,391.77 517.63,389.65 520.57,385.39 523.52,380.42 526.47,374.74 529.41,369.77 532.36,363.38 535.30,355.57 538.24,347.05 541.20,339.24 544.14,330.72 547.08,322.20 550.03,314.39 552.97,305.87 555.92,297.35 558.87,288.12 561.81,278.89 564.75,270.38 567.71,261.15 570.65,247.66 573.59,229.20 576.54,210.74 579.48,192.28 582.42,174.53 585.38,161.75 588.32,148.27 591.26,135.49 594.21,122.00 597.16,119.87 600.10,119.16 603.05,119.16 605.99,118.45 608.93,118.45 611.89,118.45 614.83,118.45 617.77,118.45 620.72,118.45 623.66,118.45 626.60,118.45 629.56,118.45 632.50,118.45 635.44,118.45 638.40,118.45 641.34,118.45 644.28,118.45 647.23,118.45 650.17,118.45 653.11,118.45 656.07,118.45 659.01,118.45 661.95,119.16 664.90,119.16 667.84,119.87 670.79,122.00 673.74,134.78 676.68,147.56 679.62,160.33 682.58,173.11 685.52,190.15 688.46,208.61 691.41,226.36 694.35,244.11 697.29,256.89 700.25,264.70 703.19,272.51 706.13,280.31 709.08,287.41 712.03,292.38 714.97,297.35 717.92,303.03 720.86,308.00 723.80,312.97 726.76,317.94 729.70,322.91 732.64,327.88 735.59,332.14 738.53,336.40 741.48,339.95 744.43,344.21 747.37,347.05 750.31,348.47 753.27,350.60 756.21,352.02 759.15,353.44 762.10,352.73 765.04,352.02 767.98,351.31 770.94,350.60 773.88,347.76 776.82,344.21 779.77,341.37 782.72,338.53 785.66,334.27 788.61,330.01 791.55,325.75 794.49,320.78 797.45,316.52 800.39,312.26 803.33,308.00 806.28,303.74 809.22,299.48 812.17,295.93 815.12,291.67 818.06,288.12 821.00,284.57 823.96,278.18 826.90,271.09 829.84,263.99 832.79,256.18 835.73,244.82 838.67,226.36 841.63,208.61 844.57,190.15 847.51,173.11 850.46,160.33 853.41,147.56 856.35,134.78 859.30,121.29 862.24,119.87 865.18,119.16 868.14,119.16 871.08,118.45 874.02,118.45 876.97,118.45 879.91,118.45 882.85,118.45 885.81,118.45 888.75,118.45 891.69,118.45 894.65,118.45 897.59,118.45 900.53,118.45 903.48,118.45 906.42,118.45 909.36,118.45 912.32,118.45 915.26,118.45 918.20,118.45 921.15,118.45 924.09,118.45 927.04,119.16 929.99,119.16 932.93,119.87 935.87,122.00 938.83,134.78 941.77,147.56 944.71,160.33 947.66,173.11 950.60,195.12 953.54,217.84 956.50,241.27 959.44,264.70 962.38,283.86 965.33,300.19 968.28,316.52 971.22,332.14 974.17,347.05 977.11,357.70 980.05,367.64 983.01,378.29 985.95,388.23 988.89,398.16 991.84,407.39 994.78,417.33 997.73,427.27 1000.68,435.79 1003.62,443.60 1006.56,452.12 1009.52,459.93 1012.46,467.03 1015.40,473.42 1018.35,479.81 1021.29,486.20 1024.23,491.88 1027.19,496.85 1030.13,501.82 1033.07,506.78 1036.02,511.75 1038.97,516.01 1041.91,519.56 1044.86,523.82 1047.80,528.08 1050.74,531.63 1053.70,535.18 1056.64,538.73 1059.58,542.28 1062.53,545.83 1065.47,547.25 1068.42,548.67 1071.37,550.80 1074.31,552.22" fill="none" stroke="#000000" stroke-width="3"/>
<line x1="142" y1="100" x2="178" y2="100" stroke="#000000" stroke-width="4"/>
<text x="188" y="105" font-family="Arial" font-size="18" fill="black">rho</text>
</svg>