<svg xmlns="http://www.w3.org/2000/svg" width="1200" height="820" viewBox="0 0 1200 820">
<rect width="100%" height="100%" fill="white"/>
<text x="600.0" y="36" text-anchor="middle" font-family="Arial" font-size="24" fill="black">profile_diagonal_supply_return: U:0</text>
<line x1="120.00" y1="75" x2="120.00" y2="705" stroke="#dddddd" stroke-width="1"/>
<text x="120.00" y="737" text-anchor="middle" font-family="Arial" font-size="16" fill="black">-0.729</text>
<line x1="376.25" y1="75" x2="376.25" y2="705" stroke="#dddddd" stroke-width="1"/>
<text x="376.25" y="737" text-anchor="middle" font-family="Arial" font-size="16" fill="black">1.913</text>
<line x1="632.50" y1="75" x2="632.50" y2="705" stroke="#dddddd" stroke-width="1"/>
<text x="632.50" y="737" text-anchor="middle" font-family="Arial" font-size="16" fill="black">4.555</text>
<line x1="888.75" y1="75" x2="888.75" y2="705" stroke="#dddddd" stroke-width="1"/>
<text x="888.75" y="737" text-anchor="middle" font-family="Arial" font-size="16" fill="black">7.197</text>
<line x1="1145.00" y1="75" x2="1145.00" y2="705" stroke="#dddddd" stroke-width="1"/>
<text x="1145.00" y="737" text-anchor="middle" font-family="Arial" font-size="16" fill="black">9.839</text>
<line x1="120" y1="705.00" x2="1145" y2="705.00" stroke="#dddddd" stroke-width="1"/>
<text x="104" y="710.00" text-anchor="end" font-family="Arial" font-size="16" fill="black">-0.281</text>
<line x1="120" y1="547.50" x2="1145" y2="547.50" stroke="#dddddd" stroke-width="1"/>
<text x="104" y="552.50" text-anchor="end" font-family="Arial" font-size="16" fill="black">-0.180</text>
<line x1="120" y1="390.00" x2="1145" y2="390.00" stroke="#dddddd" stroke-width="1"/>
<text x="104" y="395.00" text-anchor="end" font-family="Arial" font-size="16" fill="black">-0.080</text>
<line x1="120" y1="232.50" x2="1145" y2="232.50" stroke="#dddddd" stroke-width="1"/>
<text x="104" y="237.50" text-anchor="end" font-family="Arial" font-size="16" fill="black">0.020</text>
<line x1="120" y1="75.00" x2="1145" y2="75.00" stroke="#dddddd" stroke-width="1"/>
<text x="104" y="80.00" text-anchor="end" font-family="Arial" font-size="16" fill="black">0.120</text>
<rect x="120" y="75" width="1025" height="630" fill="none" stroke="black" stroke-width="2"/>
<text x="632.5" y="785" text-anchor="middle" font-family="Arial" font-size="20" fill="black">distance along sample line [m]</text>
<text x="34" y="390.0" transform="rotate(-90 34 390.0)" text-anchor="middle" font-family="Arial" font-size="20" fill="black">U:0 [SI]</text>
<polyline points="190.69,401.12 193.64,410.71 196.58,420.28 199.53,429.80 202.47,439.29 205.42,457.19 208.36,478.45 211.31,498.53 214.25,518.39 217.20,537.22 220.14,554.90 223.09,571.73 226.03,588.16 228.98,603.43 231.93,613.63 234.87,623.34 237.82,632.53 240.76,641.19 243.71,646.15 246.65,651.06 249.60,655.44 252.54,659.70 255.49,661.55 258.43,661.55 261.38,661.11 264.32,661.08 267.27,659.79 270.22,656.24 273.16,652.34 276.11,648.09 279.05,643.53 282.00,637.91 284.94,632.06 287.88,626.01 290.83,619.81 293.78,612.44 296.73,604.58 299.67,597.45 302.62,590.30 305.57,582.76 308.50,574.73 311.45,567.14 314.40,559.61 317.34,552.89 320.29,545.82 323.24,538.91 326.18,532.16 329.12,525.61 332.07,519.12 335.01,513.51 337.96,508.14 340.91,503.16 343.85,498.35 346.80,493.78 349.74,489.51 352.68,486.02 355.63,482.75 358.58,479.62 361.53,476.83 364.47,474.38 367.42,472.33 370.36,470.37 373.30,468.70 376.25,467.37 379.20,466.39 382.14,465.23 385.09,464.26 388.04,463.60 390.97,463.30 393.92,462.88 396.87,462.15 399.81,461.89 402.76,462.01 405.71,461.96 408.65,460.85 411.59,460.17 414.54,459.91 417.48,460.06 420.43,458.79 423.38,457.11 426.32,455.87 429.27,455.13 432.21,453.39 435.16,451.00 438.10,448.95 441.05,446.77 444.00,444.27 446.94,440.34 449.89,436.73 452.84,433.40 455.77,430.35 458.72,424.98 461.67,419.85 464.61,414.95 467.56,410.27 470.51,404.56 473.45,398.53 476.39,392.02 479.34,385.62 482.28,378.92 485.23,371.76 488.18,364.88 491.12,358.09 494.07,350.56 497.01,343.02 499.96,335.55 502.90,328.14 505.85,320.78 508.80,314.11 511.74,306.66 514.69,299.23 517.63,292.09 520.57,285.87 523.52,280.34 526.47,274.86 529.41,268.46 532.36,262.69 535.31,258.44 538.24,254.18 541.19,249.89 544.14,245.56 547.08,243.12 550.03,240.69 552.98,238.27 555.92,235.86 558.86,235.32 561.81,235.48 564.76,234.73 567.70,233.98 570.65,234.25 573.60,235.87 576.54,237.71 579.49,239.62 582.43,240.82 585.37,243.78 588.32,246.92 591.27,250.27 594.21,253.85 597.16,258.76 600.11,262.57 603.04,266.73 605.99,271.41 608.94,276.88 611.88,283.19 614.83,290.14 617.78,295.17 620.72,300.69 623.66,306.70 626.61,313.44 629.55,320.89 632.50,329.04 635.45,333.50 638.40,338.78 641.34,344.81 644.28,351.55 647.23,357.53 650.17,363.53 653.12,367.08 656.07,371.29 659.01,375.11 661.96,378.17 664.90,381.81 667.84,386.02 670.79,388.36 673.74,389.53 676.68,391.33 679.63,393.72 682.58,396.62 685.51,398.63 688.46,399.90 691.41,401.75 694.35,404.32 697.30,406.79 700.25,409.29 703.20,412.28 706.14,415.52 709.08,418.97 712.03,422.21 714.97,425.92 717.92,430.05 720.87,434.59 723.81,438.43 726.76,442.59 729.70,447.04 732.64,451.78 735.59,456.09 738.54,460.38 741.48,464.57 744.43,468.89 747.38,472.98 750.31,476.72 753.26,480.06 756.21,483.47 759.15,485.89 762.10,487.72 765.05,489.44 767.99,491.06 770.93,492.57 773.88,493.62 776.83,493.15 779.77,492.41 782.72,490.84 785.67,488.82 788.61,486.40 791.55,483.76 794.50,479.89 797.44,475.60 800.39,470.75 803.34,465.64 806.28,460.30 809.23,454.75 812.17,447.95 815.11,440.96 818.06,433.81 821.01,426.52 823.95,418.77 826.90,410.82 829.85,402.98 832.79,395.06 835.73,386.91 838.68,378.52 841.63,369.99 844.57,361.47 847.52,353.15 850.47,344.64 853.41,336.15 856.35,327.70 859.30,319.31 862.24,310.97 865.19,303.02 868.14,295.10 871.08,287.38 874.03,279.76 876.97,272.22 879.91,264.72 882.86,257.75 885.81,250.79 888.75,243.84 891.70,236.88 894.65,229.94 897.58,223.01 900.53,217.06 903.48,211.02 906.43,204.90 909.37,198.73 912.32,192.63 915.27,186.53 918.20,180.97 921.15,175.27 924.10,169.64 927.04,164.13 929.99,158.97 932.94,153.73 935.88,149.22 938.82,145.17 941.77,140.99 944.71,136.71 947.66,132.33 950.61,128.72 953.55,126.30 956.50,123.83 959.44,121.65 962.38,120.17 965.33,119.27 968.28,118.45 971.22,119.52 974.17,121.17 977.12,124.11 980.06,127.37 983.00,131.00 985.95,135.04 988.90,144.04 991.84,153.74 994.79,164.21 997.74,175.55 1000.68,187.64 1003.62,200.41 1006.57,216.85 1009.51,233.78 1012.46,248.85 1015.41,260.39 1018.35,271.28 1021.30,280.55 1024.24,288.09 1027.18,291.20 1030.13,292.25 1033.08,291.20 1036.02,287.97 1038.97,289.60 1041.92,291.82 1044.86,293.66 1047.80,296.38 1050.75,298.70 1053.70,300.19 1056.64,300.48 1059.59,295.94 1062.54,291.92 1065.47,289.90 1068.42,287.63 1071.37,285.08 1074.31,282.23" fill="none" stroke="#000000" stroke-width="3"/>
<line x1="142" y1="100" x2="178" y2="100" stroke="#000000" stroke-width="4"/>
<text x="188" y="105" font-family="Arial" font-size="18" fill="black">U:0</text>
</svg>