<svg xmlns="http://www.w3.org/2000/svg" width="1200" height="820" viewBox="0 0 1200 820">
<rect width="100%" height="100%" fill="white"/>
<text x="600.0" y="36" text-anchor="middle" font-family="Arial" font-size="24" fill="black">profile_center_z: U:2</text>
<line x1="120.00" y1="75" x2="120.00" y2="705" stroke="#dddddd" stroke-width="1"/>
<text x="120.00" y="737" text-anchor="middle" font-family="Arial" font-size="16" fill="black">-0.240</text>
<line x1="376.25" y1="75" x2="376.25" y2="705" stroke="#dddddd" stroke-width="1"/>
<text x="376.25" y="737" text-anchor="middle" font-family="Arial" font-size="16" fill="black">0.630</text>
<line x1="632.50" y1="75" x2="632.50" y2="705" stroke="#dddddd" stroke-width="1"/>
<text x="632.50" y="737" text-anchor="middle" font-family="Arial" font-size="16" fill="black">1.500</text>
<line x1="888.75" y1="75" x2="888.75" y2="705" stroke="#dddddd" stroke-width="1"/>
<text x="888.75" y="737" text-anchor="middle" font-family="Arial" font-size="16" fill="black">2.370</text>
<line x1="1145.00" y1="75" x2="1145.00" y2="705" stroke="#dddddd" stroke-width="1"/>
<text x="1145.00" y="737" text-anchor="middle" font-family="Arial" font-size="16" fill="black">3.240</text>
<line x1="120" y1="705.00" x2="1145" y2="705.00" stroke="#dddddd" stroke-width="1"/>
<text x="104" y="710.00" text-anchor="end" font-family="Arial" font-size="16" fill="black">-0.247</text>
<line x1="120" y1="547.50" x2="1145" y2="547.50" stroke="#dddddd" stroke-width="1"/>
<text x="104" y="552.50" text-anchor="end" font-family="Arial" font-size="16" fill="black">0.017</text>
<line x1="120" y1="390.00" x2="1145" y2="390.00" stroke="#dddddd" stroke-width="1"/>
<text x="104" y="395.00" text-anchor="end" font-family="Arial" font-size="16" fill="black">0.282</text>
<line x1="120" y1="232.50" x2="1145" y2="232.50" stroke="#dddddd" stroke-width="1"/>
<text x="104" y="237.50" text-anchor="end" font-family="Arial" font-size="16" fill="black">0.546</text>
<line x1="120" y1="75.00" x2="1145" y2="75.00" stroke="#dddddd" stroke-width="1"/>
<text x="104" y="80.00" text-anchor="end" font-family="Arial" font-size="16" fill="black">0.810</text>
<rect x="120" y="75" width="1025" height="630" fill="none" stroke="black" stroke-width="2"/>
<text x="632.5" y="785" text-anchor="middle" font-family="Arial" font-size="20" fill="black">z coordinate [m]</text>
<text x="34" y="390.0" transform="rotate(-90 34 390.0)" text-anchor="middle" font-family="Arial" font-size="20" fill="black">U:2 [SI]</text>
<polyline points="190.69,118.45 193.64,119.75 196.58,121.05 199.53,122.36 202.47,123.66 205.42,124.97 208.36,126.27 211.31,127.58 214.25,128.88 217.20,130.19 220.14,131.49 223.09,135.06 226.03,138.62 228.98,142.19 231.93,145.75 234.87,149.32 237.82,152.88 240.76,156.45 243.71,160.01 246.65,163.58 249.60,167.14 252.54,172.46 255.49,177.77 258.43,183.09 261.38,188.40 264.32,193.71 267.27,199.03 270.22,204.34 273.16,209.65 276.11,214.97 279.05,220.29 282.00,227.07 284.94,233.85 287.89,240.63 290.83,247.42 293.78,254.20 296.72,260.98 299.67,267.76 302.61,274.54 305.56,281.33 308.51,288.11 311.45,296.13 314.40,304.14 317.34,312.16 320.29,320.17 323.23,328.18 326.18,336.20 329.12,344.21 332.07,352.23 335.01,360.24 337.96,368.26 340.91,377.95 343.85,387.64 346.80,397.33 349.74,407.02 352.69,416.71 355.63,426.40 358.58,436.09 361.52,445.78 364.47,455.47 367.41,465.17 370.36,475.48 373.30,485.80 376.25,496.12 379.20,506.43 382.14,516.75 385.09,527.07 388.03,537.39 390.98,547.70 393.92,558.02 396.87,568.34 399.81,574.76 402.76,581.19 405.70,587.61 408.65,594.04 411.59,600.46 414.54,606.89 417.49,613.31 420.43,619.74 423.38,626.17 426.32,632.59 429.27,634.91 432.21,637.23 435.16,639.54 438.10,641.87 441.05,644.19 443.99,646.50 446.94,648.82 449.89,651.15 452.83,653.47 455.78,655.78 458.72,656.36 461.67,656.94 464.61,657.51 467.56,658.09 470.50,658.67 473.45,659.25 476.39,659.82 479.34,660.40 482.28,660.98 485.23,661.55 488.18,660.54 491.12,659.53 494.07,658.52 497.01,657.51 499.96,656.50 502.90,655.49 505.85,654.47 508.79,653.46 511.74,652.45 514.68,651.44 517.63,649.67 520.57,647.90 523.52,646.13 526.47,644.36 529.41,642.59 532.36,640.82 535.30,639.05 538.25,637.29 541.19,635.52 544.14,633.75 547.08,631.78 550.03,629.81 552.97,627.85 555.92,625.88 558.86,623.91 561.81,621.94 564.76,619.97 567.70,618.01 570.65,616.04 573.59,614.07 576.54,612.24 579.48,610.41 582.43,608.57 585.37,606.74 588.32,604.90 591.26,603.07 594.21,601.23 597.16,599.40 600.10,597.56 603.05,595.73 605.99,594.20 608.94,592.66 611.88,591.13 614.83,589.60 617.77,588.07 620.72,586.54 623.66,585.01 626.61,583.47 629.55,581.94 632.50,580.41 635.45,579.25 638.39,578.09 641.34,576.92 644.28,575.76 647.23,574.60 650.17,573.44 653.12,572.27 656.06,571.11 659.01,569.95 661.95,568.79 664.90,567.99 667.84,567.19 670.79,566.39 673.74,565.60 676.68,564.80 679.63,564.00 682.57,563.20 685.52,562.41 688.46,561.61 691.41,560.81 694.35,560.32 697.30,559.83 700.24,559.34 703.19,558.85 706.14,558.35 709.08,557.86 712.03,557.37 714.97,556.88 717.92,556.39 720.86,555.90 723.81,555.64 726.75,555.38 729.70,555.12 732.64,554.86 735.59,554.60 738.53,554.34 741.48,554.08 744.43,553.82 747.37,553.56 750.32,553.30 753.26,553.22 756.21,553.13 759.15,553.04 762.10,552.96 765.04,552.87 767.99,552.79 770.93,552.70 773.88,552.62 776.82,552.53 779.77,552.45 782.72,552.51 785.66,552.57 788.61,552.64 791.55,552.70 794.50,552.76 797.44,552.83 800.39,552.89 803.33,552.95 806.28,553.02 809.22,553.08 812.17,553.30 815.11,553.51 818.06,553.73 821.01,553.94 823.95,554.16 826.90,554.38 829.84,554.59 832.79,554.81 835.73,555.02 838.68,555.24 841.62,555.64 844.57,556.04 847.51,556.44 850.46,556.84 853.41,557.24 856.35,557.64 859.30,558.04 862.24,558.44 865.19,558.84 868.13,559.24 871.08,559.87 874.02,560.50 876.97,561.13 879.91,561.76 882.86,562.39 885.80,563.02 888.75,563.65 891.70,564.28 894.64,564.91 897.59,565.54 900.53,566.41 903.48,567.28 906.42,568.15 909.37,569.02 912.31,569.89 915.26,570.76 918.20,571.63 921.15,572.49 924.09,573.36 927.04,574.23 929.99,575.25 932.93,576.27 935.88,577.29 938.82,578.30 941.77,579.32 944.71,580.34 947.66,581.35 950.60,582.37 953.55,583.39 956.49,584.41 959.44,585.33 962.39,586.25 965.33,587.18 968.28,588.10 971.22,589.02 974.17,589.95 977.11,590.87 980.06,591.79 983.00,592.72 985.95,593.64 988.89,593.95 991.84,594.25 994.78,594.56 997.73,594.87 1000.68,595.17 1003.62,595.48 1006.57,595.78 1009.51,596.09 1012.46,596.40 1015.40,596.70 1018.35,595.13 1021.29,593.57 1024.24,592.00 1027.18,590.43 1030.13,588.87 1033.07,587.30 1036.02,585.73 1038.97,584.17 1041.91,582.60 1044.86,581.03 1047.80,579.55 1050.75,578.08 1053.69,576.60 1056.64,575.13 1059.58,573.65 1062.53,572.17 1065.47,570.70 1068.42,569.22 1071.36,567.75 1074.31,566.27" fill="none" stroke="#000000" stroke-width="3"/>
<line x1="142" y1="100" x2="178" y2="100" stroke="#000000" stroke-width="4"/>
<text x="188" y="105" font-family="Arial" font-size="18" fill="black">U:2</text>
</svg>