<svg xmlns="http://www.w3.org/2000/svg" width="1200" height="820" viewBox="0 0 1200 820">
<rect width="100%" height="100%" fill="white"/>
<text x="600.0" y="36" text-anchor="middle" font-family="Arial" font-size="24" fill="black">profile_center_z: U, V, W components</text>
<line x1="120.00" y1="75" x2="120.00" y2="705" stroke="#dddddd" stroke-width="1"/>
<text x="120.00" y="737" text-anchor="middle" font-family="Arial" font-size="16" fill="black">-0.240</text>
<line x1="376.25" y1="75" x2="376.25" y2="705" stroke="#dddddd" stroke-width="1"/>
<text x="376.25" y="737" text-anchor="middle" font-family="Arial" font-size="16" fill="black">0.630</text>
<line x1="632.50" y1="75" x2="632.50" y2="705" stroke="#dddddd" stroke-width="1"/>
<text x="632.50" y="737" text-anchor="middle" font-family="Arial" font-size="16" fill="black">1.500</text>
<line x1="888.75" y1="75" x2="888.75" y2="705" stroke="#dddddd" stroke-width="1"/>
<text x="888.75" y="737" text-anchor="middle" font-family="Arial" font-size="16" fill="black">2.370</text>
<line x1="1145.00" y1="75" x2="1145.00" y2="705" stroke="#dddddd" stroke-width="1"/>
<text x="1145.00" y="737" text-anchor="middle" font-family="Arial" font-size="16" fill="black">3.240</text>
<line x1="120" y1="705.00" x2="1145" y2="705.00" stroke="#dddddd" stroke-width="1"/>
<text x="104" y="710.00" text-anchor="end" font-family="Arial" font-size="16" fill="black">-0.247</text>
<line x1="120" y1="547.50" x2="1145" y2="547.50" stroke="#dddddd" stroke-width="1"/>
<text x="104" y="552.50" text-anchor="end" font-family="Arial" font-size="16" fill="black">0.017</text>
<line x1="120" y1="390.00" x2="1145" y2="390.00" stroke="#dddddd" stroke-width="1"/>
<text x="104" y="395.00" text-anchor="end" font-family="Arial" font-size="16" fill="black">0.282</text>
<line x1="120" y1="232.50" x2="1145" y2="232.50" stroke="#dddddd" stroke-width="1"/>
<text x="104" y="237.50" text-anchor="end" font-family="Arial" font-size="16" fill="black">0.546</text>
<line x1="120" y1="75.00" x2="1145" y2="75.00" stroke="#dddddd" stroke-width="1"/>
<text x="104" y="80.00" text-anchor="end" font-family="Arial" font-size="16" fill="black">0.810</text>
<rect x="120" y="75" width="1025" height="630" fill="none" stroke="black" stroke-width="2"/>
<text x="632.5" y="785" text-anchor="middle" font-family="Arial" font-size="20" fill="black">z coordinate [m]</text>
<text x="34" y="390.0" transform="rotate(-90 34 390.0)" text-anchor="middle" font-family="Arial" font-size="20" fill="black">velocity component [m/s]</text>
<polyline points="190.69,559.83 193.64,559.93 196.58,560.02 199.53,560.11 202.47,560.20 205.42,560.30 208.36,560.39 211.31,560.48 214.25,560.57 217.20,560.67 220.14,560.76 223.09,560.93 226.03,561.11 228.98,561.29 231.93,561.46 234.87,561.64 237.82,561.82 240.76,561.99 243.71,562.17 246.65,562.34 249.60,562.52 252.54,562.70 255.49,562.88 258.43,563.06 261.38,563.24 264.32,563.42 267.27,563.60 270.22,563.78 273.16,563.96 276.11,564.14 279.05,564.32 282.00,564.56 284.94,564.79 287.89,565.03 290.83,565.26 293.78,565.50 296.72,565.73 299.67,565.97 302.61,566.21 305.56,566.44 308.51,566.68 311.45,567.03 314.40,567.39 317.34,567.75 320.29,568.11 323.23,568.46 326.18,568.82 329.12,569.18 332.07,569.54 335.01,569.89 337.96,570.25 340.91,570.72 343.85,571.19 346.80,571.67 349.74,572.14 352.69,572.61 355.63,573.08 358.58,573.55 361.52,574.02 364.47,574.50 367.41,574.97 370.36,575.02 373.30,575.08 376.25,575.13 379.20,575.18 382.14,575.24 385.09,575.29 388.03,575.35 390.98,575.40 393.92,575.45 396.87,575.51 399.81,574.94 402.76,574.37 405.70,573.80 408.65,573.23 411.59,572.66 414.54,572.10 417.49,571.53 420.43,570.96 423.38,570.39 426.32,569.82 429.27,569.14 432.21,568.47 435.16,567.79 438.10,567.11 441.05,566.43 443.99,565.76 446.94,565.08 449.89,564.40 452.83,563.73 455.78,563.05 458.72,562.56 461.67,562.08 464.61,561.59 467.56,561.10 470.50,560.62 473.45,560.13 476.39,559.64 479.34,559.16 482.28,558.67 485.23,558.18 488.18,558.01 491.12,557.84 494.07,557.66 497.01,557.49 499.96,557.32 502.90,557.14 505.85,556.97 508.79,556.80 511.74,556.62 514.68,556.45 517.63,556.66 520.57,556.86 523.52,557.07 526.47,557.27 529.41,557.48 532.36,557.68 535.30,557.89 538.25,558.09 541.19,558.30 544.14,558.50 547.08,559.07 550.03,559.63 552.97,560.20 555.92,560.76 558.86,561.32 561.81,561.89 564.76,562.45 567.70,563.01 570.65,563.58 573.59,564.14 576.54,564.98 579.48,565.83 582.43,566.67 585.37,567.51 588.32,568.35 591.26,569.19 594.21,570.04 597.16,570.88 600.10,571.72 603.05,572.56 605.99,573.56 608.94,574.55 611.88,575.55 614.83,576.55 617.77,577.54 620.72,578.54 623.66,579.53 626.61,580.53 629.55,581.52 632.50,582.52 635.45,583.51 638.39,584.51 641.34,585.50 644.28,586.50 647.23,587.49 650.17,588.49 653.12,589.48 656.06,590.48 659.01,591.47 661.95,592.47 664.90,593.32 667.84,594.18 670.79,595.03 673.74,595.89 676.68,596.74 679.63,597.60 682.57,598.45 685.52,599.31 688.46,600.16 691.41,601.02 694.35,601.64 697.30,602.26 700.24,602.87 703.19,603.49 706.14,604.11 709.08,604.73 712.03,605.35 714.97,605.96 717.92,606.58 720.86,607.20 723.81,607.52 726.75,607.83 729.70,608.15 732.64,608.46 735.59,608.78 738.53,609.09 741.48,609.41 744.43,609.73 747.37,610.04 750.32,610.36 753.26,610.33 756.21,610.30 759.15,610.27 762.10,610.24 765.04,610.21 767.99,610.18 770.93,610.16 773.88,610.13 776.82,610.10 779.77,610.07 782.72,609.68 785.66,609.30 788.61,608.92 791.55,608.53 794.50,608.15 797.44,607.76 800.39,607.38 803.33,606.99 806.28,606.61 809.22,606.22 812.17,605.51 815.11,604.80 818.06,604.09 821.01,603.38 823.95,602.67 826.90,601.96 829.84,601.24 832.79,600.53 835.73,599.82 838.68,599.11 841.62,598.15 844.57,597.18 847.51,596.22 850.46,595.25 853.41,594.29 856.35,593.32 859.30,592.36 862.24,591.39 865.19,590.43 868.13,589.46 871.08,588.35 874.02,587.24 876.97,586.13 879.91,585.02 882.86,583.90 885.80,582.79 888.75,581.68 891.70,580.57 894.64,579.46 897.59,578.34 900.53,577.22 903.48,576.10 906.42,574.98 909.37,573.86 912.31,572.74 915.26,571.61 918.20,570.49 921.15,569.37 924.09,568.25 927.04,567.13 929.99,566.13 932.93,565.12 935.88,564.12 938.82,563.11 941.77,562.11 944.71,561.11 947.66,560.10 950.60,559.10 953.55,558.10 956.49,557.09 959.44,556.23 962.39,555.36 965.33,554.49 968.28,553.63 971.22,552.76 974.17,551.89 977.11,551.03 980.06,550.16 983.00,549.29 985.95,548.43 988.89,547.54 991.84,546.65 994.78,545.76 997.73,544.87 1000.68,543.98 1003.62,543.09 1006.57,542.20 1009.51,541.31 1012.46,540.42 1015.40,539.54 1018.35,538.59 1021.29,537.64 1024.24,536.69 1027.18,535.75 1030.13,534.80 1033.07,533.85 1036.02,532.91 1038.97,531.96 1041.91,531.01 1044.86,530.06 1047.80,529.60 1050.75,529.14 1053.69,528.67 1056.64,528.21 1059.58,527.74 1062.53,527.28 1065.47,526.81 1068.42,526.35 1071.36,525.88 1074.31,525.42" fill="none" stroke="#000000" stroke-width="3"/>
<line x1="142" y1="100" x2="178" y2="100" stroke="#000000" stroke-width="4"/>
<text x="188" y="105" font-family="Arial" font-size="18" fill="black">Ux / u</text>
<polyline points="190.69,558.96 193.64,558.96 196.58,558.96 199.53,558.97 202.47,558.97 205.42,558.97 208.36,558.98 211.31,558.98 214.25,558.98 217.20,558.99 220.14,558.99 223.09,558.93 226.03,558.87 228.98,558.81 231.93,558.75 234.87,558.69 237.82,558.63 240.76,558.57 243.71,558.51 246.65,558.45 249.60,558.39 252.54,558.21 255.49,558.03 258.43,557.85 261.38,557.67 264.32,557.50 267.27,557.32 270.22,557.14 273.16,556.96 276.11,556.79 279.05,556.61 282.00,556.35 284.94,556.08 287.89,555.82 290.83,555.56 293.78,555.30 296.72,555.03 299.67,554.77 302.61,554.51 305.56,554.25 308.51,553.98 311.45,553.70 314.40,553.42 317.34,553.13 320.29,552.85 323.23,552.56 326.18,552.28 329.12,552.00 332.07,551.71 335.01,551.43 337.96,551.14 340.91,551.08 343.85,551.02 346.80,550.95 349.74,550.89 352.69,550.82 355.63,550.76 358.58,550.69 361.52,550.63 364.47,550.56 367.41,550.50 370.36,551.07 373.30,551.63 376.25,552.20 379.20,552.77 382.14,553.34 385.09,553.91 388.03,554.48 390.98,555.04 393.92,555.61 396.87,556.18 399.81,556.98 402.76,557.79 405.70,558.59 408.65,559.39 411.59,560.19 414.54,560.99 417.49,561.80 420.43,562.60 423.38,563.40 426.32,564.20 429.27,564.77 432.21,565.35 435.16,565.92 438.10,566.50 441.05,567.07 443.99,567.64 446.94,568.22 449.89,568.79 452.83,569.37 455.78,569.94 458.72,570.47 461.67,570.99 464.61,571.52 467.56,572.04 470.50,572.57 473.45,573.10 476.39,573.62 479.34,574.15 482.28,574.68 485.23,575.20 488.18,575.69 491.12,576.19 494.07,576.68 497.01,577.17 499.96,577.66 502.90,578.15 505.85,578.64 508.79,579.13 511.74,579.63 514.68,580.12 517.63,580.56 520.57,581.00 523.52,581.44 526.47,581.88 529.41,582.33 532.36,582.77 535.30,583.21 538.25,583.65 541.19,584.09 544.14,584.53 547.08,584.94 550.03,585.35 552.97,585.76 555.92,586.16 558.86,586.57 561.81,586.98 564.76,587.39 567.70,587.80 570.65,588.20 573.59,588.61 576.54,589.04 579.48,589.46 582.43,589.89 585.37,590.31 588.32,590.73 591.26,591.16 594.21,591.58 597.16,592.01 600.10,592.43 603.05,592.86 605.99,593.34 608.94,593.82 611.88,594.30 614.83,594.78 617.77,595.26 620.72,595.74 623.66,596.23 626.61,596.71 629.55,597.19 632.50,597.67 635.45,598.21 638.39,598.75 641.34,599.29 644.28,599.83 647.23,600.38 650.17,600.92 653.12,601.46 656.06,602.00 659.01,602.54 661.95,603.08 664.90,603.66 667.84,604.25 670.79,604.83 673.74,605.42 676.68,606.00 679.63,606.58 682.57,607.17 685.52,607.75 688.46,608.34 691.41,608.92 694.35,609.52 697.30,610.13 700.24,610.73 703.19,611.33 706.14,611.94 709.08,612.54 712.03,613.14 714.97,613.74 717.92,614.35 720.86,614.95 723.81,615.54 726.75,616.13 729.70,616.72 732.64,617.30 735.59,617.89 738.53,618.48 741.48,619.07 744.43,619.66 747.37,620.25 750.32,620.83 753.26,621.37 756.21,621.90 759.15,622.44 762.10,622.97 765.04,623.50 767.99,624.03 770.93,624.56 773.88,625.10 776.82,625.63 779.77,626.16 782.72,626.60 785.66,627.03 788.61,627.47 791.55,627.90 794.50,628.34 797.44,628.77 800.39,629.21 803.33,629.64 806.28,630.08 809.22,630.51 812.17,630.81 815.11,631.11 818.06,631.42 821.01,631.71 823.95,632.02 826.90,632.32 829.84,632.62 832.79,632.92 835.73,633.22 838.68,633.52 841.62,633.66 844.57,633.79 847.51,633.93 850.46,634.07 853.41,634.21 856.35,634.35 859.30,634.49 862.24,634.62 865.19,634.76 868.13,634.90 871.08,634.82 874.02,634.75 876.97,634.68 879.91,634.61 882.86,634.54 885.80,634.47 888.75,634.40 891.70,634.32 894.64,634.25 897.59,634.18 900.53,633.82 903.48,633.45 906.42,633.08 909.37,632.72 912.31,632.35 915.26,631.98 918.20,631.61 921.15,631.25 924.09,630.88 927.04,630.52 929.99,629.69 932.93,628.88 935.88,628.06 938.82,627.24 941.77,626.42 944.71,625.60 947.66,624.78 950.60,623.96 953.55,623.14 956.49,622.32 959.44,620.68 962.39,619.03 965.33,617.38 968.28,615.74 971.22,614.09 974.17,612.44 977.11,610.80 980.06,609.15 983.00,607.50 985.95,605.86 988.89,602.42 991.84,598.99 994.78,595.56 997.73,592.13 1000.68,588.70 1003.62,585.27 1006.57,581.84 1009.51,578.41 1012.46,574.98 1015.40,571.55 1018.35,564.49 1021.29,557.43 1024.24,550.37 1027.18,543.32 1030.13,536.26 1033.07,529.20 1036.02,522.15 1038.97,515.09 1041.91,508.03 1044.86,500.97 1047.80,496.25 1050.75,491.52 1053.69,486.80 1056.64,482.07 1059.58,477.35 1062.53,472.62 1065.47,467.90 1068.42,463.17 1071.36,458.44 1074.31,453.72" fill="none" stroke="#555555" stroke-width="3" stroke-dasharray="9 5"/>
<line x1="142" y1="128" x2="178" y2="128" stroke="#555555" stroke-width="4" stroke-dasharray="9 5"/>
<text x="188" y="133" font-family="Arial" font-size="18" fill="black">Uy / v</text>
<polyline points="190.69,118.45 193.64,119.75 196.58,121.05 199.53,122.36 202.47,123.66 205.42,124.97 208.36,126.27 211.31,127.58 214.25,128.88 217.20,130.19 220.14,131.49 223.09,135.06 226.03,138.62 228.98,142.19 231.93,145.75 234.87,149.32 237.82,152.88 240.76,156.45 243.71,160.01 246.65,163.58 249.60,167.14 252.54,172.46 255.49,177.77 258.43,183.09 261.38,188.40 264.32,193.71 267.27,199.03 270.22,204.34 273.16,209.65 276.11,214.97 279.05,220.29 282.00,227.07 284.94,233.85 287.89,240.63 290.83,247.42 293.78,254.20 296.72,260.98 299.67,267.76 302.61,274.54 305.56,281.33 308.51,288.11 311.45,296.13 314.40,304.14 317.34,312.16 320.29,320.17 323.23,328.18 326.18,336.20 329.12,344.21 332.07,352.23 335.01,360.24 337.96,368.26 340.91,377.95 343.85,387.64 346.80,397.33 349.74,407.02 352.69,416.71 355.63,426.40 358.58,436.09 361.52,445.78 364.47,455.47 367.41,465.17 370.36,475.48 373.30,485.80 376.25,496.12 379.20,506.43 382.14,516.75 385.09,527.07 388.03,537.39 390.98,547.70 393.92,558.02 396.87,568.34 399.81,574.76 402.76,581.19 405.70,587.61 408.65,594.04 411.59,600.46 414.54,606.89 417.49,613.31 420.43,619.74 423.38,626.17 426.32,632.59 429.27,634.91 432.21,637.23 435.16,639.54 438.10,641.87 441.05,644.19 443.99,646.50 446.94,648.82 449.89,651.15 452.83,653.47 455.78,655.78 458.72,656.36 461.67,656.94 464.61,657.51 467.56,658.09 470.50,658.67 473.45,659.25 476.39,659.82 479.34,660.40 482.28,660.98 485.23,661.55 488.18,660.54 491.12,659.53 494.07,658.52 497.01,657.51 499.96,656.50 502.90,655.49 505.85,654.47 508.79,653.46 511.74,652.45 514.68,651.44 517.63,649.67 520.57,647.90 523.52,646.13 526.47,644.36 529.41,642.59 532.36,640.82 535.30,639.05 538.25,637.29 541.19,635.52 544.14,633.75 547.08,631.78 550.03,629.81 552.97,627.85 555.92,625.88 558.86,623.91 561.81,621.94 564.76,619.97 567.70,618.01 570.65,616.04 573.59,614.07 576.54,612.24 579.48,610.41 582.43,608.57 585.37,606.74 588.32,604.90 591.26,603.07 594.21,601.23 597.16,599.40 600.10,597.56 603.05,595.73 605.99,594.20 608.94,592.66 611.88,591.13 614.83,589.60 617.77,588.07 620.72,586.54 623.66,585.01 626.61,583.47 629.55,581.94 632.50,580.41 635.45,579.25 638.39,578.09 641.34,576.92 644.28,575.76 647.23,574.60 650.17,573.44 653.12,572.27 656.06,571.11 659.01,569.95 661.95,568.79 664.90,567.99 667.84,567.19 670.79,566.39 673.74,565.60 676.68,564.80 679.63,564.00 682.57,563.20 685.52,562.41 688.46,561.61 691.41,560.81 694.35,560.32 697.30,559.83 700.24,559.34 703.19,558.85 706.14,558.35 709.08,557.86 712.03,557.37 714.97,556.88 717.92,556.39 720.86,555.90 723.81,555.64 726.75,555.38 729.70,555.12 732.64,554.86 735.59,554.60 738.53,554.34 741.48,554.08 744.43,553.82 747.37,553.56 750.32,553.30 753.26,553.22 756.21,553.13 759.15,553.04 762.10,552.96 765.04,552.87 767.99,552.79 770.93,552.70 773.88,552.62 776.82,552.53 779.77,552.45 782.72,552.51 785.66,552.57 788.61,552.64 791.55,552.70 794.50,552.76 797.44,552.83 800.39,552.89 803.33,552.95 806.28,553.02 809.22,553.08 812.17,553.30 815.11,553.51 818.06,553.73 821.01,553.94 823.95,554.16 826.90,554.38 829.84,554.59 832.79,554.81 835.73,555.02 838.68,555.24 841.62,555.64 844.57,556.04 847.51,556.44 850.46,556.84 853.41,557.24 856.35,557.64 859.30,558.04 862.24,558.44 865.19,558.84 868.13,559.24 871.08,559.87 874.02,560.50 876.97,561.13 879.91,561.76 882.86,562.39 885.80,563.02 888.75,563.65 891.70,564.28 894.64,564.91 897.59,565.54 900.53,566.41 903.48,567.28 906.42,568.15 909.37,569.02 912.31,569.89 915.26,570.76 918.20,571.63 921.15,572.49 924.09,573.36 927.04,574.23 929.99,575.25 932.93,576.27 935.88,577.29 938.82,578.30 941.77,579.32 944.71,580.34 947.66,581.35 950.60,582.37 953.55,583.39 956.49,584.41 959.44,585.33 962.39,586.25 965.33,587.18 968.28,588.10 971.22,589.02 974.17,589.95 977.11,590.87 980.06,591.79 983.00,592.72 985.95,593.64 988.89,593.95 991.84,594.25 994.78,594.56 997.73,594.87 1000.68,595.17 1003.62,595.48 1006.57,595.78 1009.51,596.09 1012.46,596.40 1015.40,596.70 1018.35,595.13 1021.29,593.57 1024.24,592.00 1027.18,590.43 1030.13,588.87 1033.07,587.30 1036.02,585.73 1038.97,584.17 1041.91,582.60 1044.86,581.03 1047.80,579.55 1050.75,578.08 1053.69,576.60 1056.64,575.13 1059.58,573.65 1062.53,572.17 1065.47,570.70 1068.42,569.22 1071.36,567.75 1074.31,566.27" fill="none" stroke="#999999" stroke-width="3" stroke-dasharray="3 4"/>
<line x1="142" y1="156" x2="178" y2="156" stroke="#999999" stroke-width="4" stroke-dasharray="3 4"/>
<text x="188" y="161" font-family="Arial" font-size="18" fill="black">Uz / w</text>
</svg>