<svg xmlns="http://www.w3.org/2000/svg" width="1200" height="820" viewBox="0 0 1200 820">
<rect width="100%" height="100%" fill="white"/>
<text x="600.0" y="36" text-anchor="middle" font-family="Arial" font-size="24" fill="black">profile_diagonal_supply_return: rho</text>
<line x1="120.00" y1="75" x2="120.00" y2="705" stroke="#dddddd" stroke-width="1"/>
<text x="120.00" y="737" text-anchor="middle" font-family="Arial" font-size="16" fill="black">-0.729</text>
<line x1="376.25" y1="75" x2="376.25" y2="705" stroke="#dddddd" stroke-width="1"/>
<text x="376.25" y="737" text-anchor="middle" font-family="Arial" font-size="16" fill="black">1.913</text>
<line x1="632.50" y1="75" x2="632.50" y2="705" stroke="#dddddd" stroke-width="1"/>
<text x="632.50" y="737" text-anchor="middle" font-family="Arial" font-size="16" fill="black">4.555</text>
<line x1="888.75" y1="75" x2="888.75" y2="705" stroke="#dddddd" stroke-width="1"/>
<text x="888.75" y="737" text-anchor="middle" font-family="Arial" font-size="16" fill="black">7.197</text>
<line x1="1145.00" y1="75" x2="1145.00" y2="705" stroke="#dddddd" stroke-width="1"/>
<text x="1145.00" y="737" text-anchor="middle" font-family="Arial" font-size="16" fill="black">9.839</text>
<line x1="120" y1="705.00" x2="1145" y2="705.00" stroke="#dddddd" stroke-width="1"/>
<text x="104" y="710.00" text-anchor="end" font-family="Arial" font-size="16" fill="black">1.127</text>
<line x1="120" y1="547.50" x2="1145" y2="547.50" stroke="#dddddd" stroke-width="1"/>
<text x="104" y="552.50" text-anchor="end" font-family="Arial" font-size="16" fill="black">1.136</text>
<line x1="120" y1="390.00" x2="1145" y2="390.00" stroke="#dddddd" stroke-width="1"/>
<text x="104" y="395.00" text-anchor="end" font-family="Arial" font-size="16" fill="black">1.145</text>
<line x1="120" y1="232.50" x2="1145" y2="232.50" stroke="#dddddd" stroke-width="1"/>
<text x="104" y="237.50" text-anchor="end" font-family="Arial" font-size="16" fill="black">1.154</text>
<line x1="120" y1="75.00" x2="1145" y2="75.00" stroke="#dddddd" stroke-width="1"/>
<text x="104" y="80.00" text-anchor="end" font-family="Arial" font-size="16" fill="black">1.163</text>
<rect x="120" y="75" width="1025" height="630" fill="none" stroke="black" stroke-width="2"/>
<text x="632.5" y="785" text-anchor="middle" font-family="Arial" font-size="20" fill="black">distance along sample line [m]</text>
<text x="34" y="390.0" transform="rotate(-90 34 390.0)" text-anchor="middle" font-family="Arial" font-size="20" fill="black">rho [kg/m3]</text>
<polyline points="190.69,166.06 193.64,167.82 196.58,167.82 199.53,167.82 202.47,169.58 205.42,169.58 208.36,167.82 211.31,167.82 214.25,167.82 217.20,166.06 220.14,166.06 223.09,166.06 226.03,167.82 228.98,167.82 231.93,166.06 234.87,166.06 237.82,166.06 240.76,166.06 243.71,167.82 246.65,166.06 249.60,166.06 252.54,164.29 255.49,162.53 258.43,160.77 261.38,159.00 264.32,155.48 267.27,153.71 270.22,150.19 273.16,148.42 276.11,144.90 279.05,141.37 282.00,139.61 284.94,136.08 287.88,132.55 290.83,129.03 293.78,127.26 296.73,125.50 299.67,123.74 302.62,121.97 305.57,120.21 308.50,118.45 311.45,120.21 314.40,120.21 317.34,121.97 320.29,125.50 323.24,129.03 326.18,132.55 329.12,137.84 332.07,143.13 335.01,150.19 337.96,157.24 340.91,166.06 343.85,174.87 346.80,185.45 349.74,196.03 352.68,208.38 355.63,220.72 358.58,234.83 361.53,248.93 364.47,263.04 367.42,278.91 370.36,289.49 373.30,301.83 376.25,314.18 379.20,326.52 382.14,338.86 385.09,349.44 388.04,356.50 390.97,363.55 393.92,370.60 396.87,375.89 399.81,379.42 402.76,382.95 405.71,382.95 408.65,379.42 411.59,374.13 414.54,370.60 417.48,367.08 420.43,361.79 423.38,352.97 426.32,345.92 429.27,337.10 432.21,330.05 435.16,324.76 438.10,319.47 441.05,312.41 444.00,305.36 446.94,301.83 449.89,296.54 452.84,293.02 455.77,289.49 458.72,284.20 461.67,280.67 464.61,277.15 467.56,271.86 470.51,270.09 473.45,266.57 476.39,264.80 479.34,261.28 482.28,259.51 485.23,257.75 488.18,255.99 491.12,254.22 494.07,252.46 497.01,252.46 499.96,250.70 502.90,248.93 505.85,248.93 508.80,248.93 511.74,248.93 514.69,248.93 517.63,248.93 520.57,248.93 523.52,248.93 526.47,248.93 529.41,250.70 532.36,252.46 535.31,254.22 538.24,255.99 541.19,257.75 544.14,259.51 547.08,263.04 550.03,264.80 552.98,266.57 555.92,268.33 558.86,271.86 561.81,273.62 564.76,275.38 567.70,277.15 570.65,278.91 573.60,280.67 576.54,280.67 579.49,278.91 582.43,278.91 585.37,277.15 588.32,275.38 591.27,273.62 594.21,271.86 597.16,268.33 600.11,266.57 603.04,264.80 605.99,263.04 608.94,261.28 611.88,259.51 614.83,259.51 617.78,259.51 620.72,261.28 623.66,263.04 626.61,264.80 629.55,268.33 632.50,270.09 635.45,273.62 638.40,278.91 641.34,282.44 644.28,285.96 647.23,289.49 650.17,293.02 653.12,298.31 656.07,301.83 659.01,307.12 661.96,310.65 664.90,312.41 667.84,314.18 670.79,317.70 673.74,319.47 676.68,322.99 679.63,322.99 682.58,324.76 685.51,324.76 688.46,326.52 691.41,328.28 694.35,328.28 697.30,328.28 700.25,330.05 703.20,330.05 706.14,331.81 709.08,331.81 712.03,335.34 714.97,337.10 717.92,340.63 720.87,342.39 723.81,347.68 726.76,351.21 729.70,356.50 732.64,360.02 735.59,365.31 738.54,370.60 741.48,377.66 744.43,382.95 747.38,388.24 750.31,395.29 753.26,402.34 756.21,407.63 759.15,414.69 762.10,419.98 765.05,427.03 767.99,432.32 770.93,439.37 773.88,446.43 776.83,451.72 779.77,458.77 782.72,464.06 785.67,469.35 788.61,474.64 791.55,481.69 794.50,486.98 797.44,492.27 800.39,499.33 803.34,504.62 806.28,511.67 809.23,516.96 812.17,524.01 815.11,531.07 818.06,538.12 821.01,545.17 823.95,553.99 826.90,564.57 829.85,573.39 832.79,582.20 835.73,592.78 838.68,605.13 841.63,615.71 844.57,626.29 847.52,633.34 850.47,642.16 853.41,647.45 856.35,654.50 859.30,659.79 862.24,661.55 865.19,661.55 868.14,661.55 871.08,661.55 874.03,659.79 876.97,656.26 879.91,654.50 882.86,649.21 885.81,645.68 888.75,640.39 891.70,635.10 894.65,631.58 897.58,626.29 900.53,621.00 903.48,615.71 906.43,612.18 909.37,606.89 912.32,603.36 915.27,598.07 918.20,594.55 921.15,591.02 924.10,587.49 927.04,583.97 929.99,582.20 932.94,578.68 935.88,576.91 938.82,573.39 941.77,571.62 944.71,569.86 947.66,568.10 950.61,566.33 953.55,564.57 956.50,564.57 959.44,562.81 962.38,562.81 965.33,561.04 968.28,561.04 971.22,561.04 974.17,559.28 977.12,559.28 980.06,559.28 983.00,559.28 985.95,561.04 988.90,561.04 991.84,561.04 994.79,561.04 997.74,562.81 1000.68,562.81 1003.62,564.57 1006.57,564.57 1009.51,566.33 1012.46,566.33 1015.41,568.10 1018.35,568.10 1021.30,569.86 1024.24,571.62 1027.18,573.39 1030.13,573.39 1033.08,575.15 1036.02,575.15 1038.97,576.91 1041.92,576.91 1044.86,578.68 1047.80,578.68 1050.75,578.68 1053.70,578.68 1056.64,576.91 1059.59,576.91 1062.54,576.91 1065.47,578.68 1068.42,578.68 1071.37,578.68 1074.31,578.68" fill="none" stroke="#000000" stroke-width="3"/>
<line x1="142" y1="100" x2="178" y2="100" stroke="#000000" stroke-width="4"/>
<text x="188" y="105" font-family="Arial" font-size="18" fill="black">rho</text>
</svg>