<svg xmlns="http://www.w3.org/2000/svg" width="1200" height="820" viewBox="0 0 1200 820">
<rect width="100%" height="100%" fill="white"/>
<text x="600.0" y="36" text-anchor="middle" font-family="Arial" font-size="24" fill="black">profile_diagonal_supply_return: U:2</text>
<line x1="120.00" y1="75" x2="120.00" y2="705" stroke="#dddddd" stroke-width="1"/>
<text x="120.00" y="737" text-anchor="middle" font-family="Arial" font-size="16" fill="black">-0.729</text>
<line x1="376.25" y1="75" x2="376.25" y2="705" stroke="#dddddd" stroke-width="1"/>
<text x="376.25" y="737" text-anchor="middle" font-family="Arial" font-size="16" fill="black">1.913</text>
<line x1="632.50" y1="75" x2="632.50" y2="705" stroke="#dddddd" stroke-width="1"/>
<text x="632.50" y="737" text-anchor="middle" font-family="Arial" font-size="16" fill="black">4.555</text>
<line x1="888.75" y1="75" x2="888.75" y2="705" stroke="#dddddd" stroke-width="1"/>
<text x="888.75" y="737" text-anchor="middle" font-family="Arial" font-size="16" fill="black">7.197</text>
<line x1="1145.00" y1="75" x2="1145.00" y2="705" stroke="#dddddd" stroke-width="1"/>
<text x="1145.00" y="737" text-anchor="middle" font-family="Arial" font-size="16" fill="black">9.839</text>
<line x1="120" y1="705.00" x2="1145" y2="705.00" stroke="#dddddd" stroke-width="1"/>
<text x="104" y="710.00" text-anchor="end" font-family="Arial" font-size="16" fill="black">-0.171</text>
<line x1="120" y1="547.50" x2="1145" y2="547.50" stroke="#dddddd" stroke-width="1"/>
<text x="104" y="552.50" text-anchor="end" font-family="Arial" font-size="16" fill="black">-0.030</text>
<line x1="120" y1="390.00" x2="1145" y2="390.00" stroke="#dddddd" stroke-width="1"/>
<text x="104" y="395.00" text-anchor="end" font-family="Arial" font-size="16" fill="black">0.111</text>
<line x1="120" y1="232.50" x2="1145" y2="232.50" stroke="#dddddd" stroke-width="1"/>
<text x="104" y="237.50" text-anchor="end" font-family="Arial" font-size="16" fill="black">0.253</text>
<line x1="120" y1="75.00" x2="1145" y2="75.00" stroke="#dddddd" stroke-width="1"/>
<text x="104" y="80.00" text-anchor="end" font-family="Arial" font-size="16" fill="black">0.394</text>
<rect x="120" y="75" width="1025" height="630" fill="none" stroke="black" stroke-width="2"/>
<text x="632.5" y="785" text-anchor="middle" font-family="Arial" font-size="20" fill="black">distance along sample line [m]</text>
<text x="34" y="390.0" transform="rotate(-90 34 390.0)" text-anchor="middle" font-family="Arial" font-size="20" fill="black">U:2 [SI]</text>
<polyline points="190.69,463.76 193.64,460.19 196.58,456.56 199.53,452.86 202.47,449.07 205.42,445.66 208.36,442.37 211.31,438.61 214.25,434.90 217.20,431.63 220.14,429.04 223.09,423.39 226.03,417.96 228.98,413.91 231.93,410.09 234.87,406.67 237.82,403.71 240.76,401.23 243.71,398.90 246.65,397.40 249.60,396.51 252.54,396.58 255.49,396.84 258.43,397.35 261.38,398.42 264.32,400.11 267.27,402.09 270.22,403.90 273.16,406.24 276.11,409.13 279.05,412.58 282.00,415.07 284.94,417.86 287.88,420.96 290.83,424.38 293.78,427.13 296.73,429.74 299.67,432.33 302.62,435.17 305.57,437.69 308.50,439.63 311.45,441.35 314.40,443.17 317.34,444.74 320.29,445.51 323.24,446.34 326.18,447.23 329.12,448.19 332.07,448.66 335.01,449.15 337.96,449.73 340.91,449.85 343.85,449.74 346.80,449.47 349.74,449.25 352.68,449.49 355.63,449.76 358.58,449.97 361.53,450.27 364.47,450.69 367.42,451.22 370.36,452.31 373.30,453.50 376.25,454.80 379.20,456.22 382.14,457.98 385.09,459.94 388.04,463.19 390.97,466.60 393.92,470.39 396.87,474.61 399.81,478.36 402.76,482.23 405.71,487.11 408.65,492.52 411.59,498.05 414.54,503.72 417.48,509.52 420.43,515.25 423.38,521.48 426.32,527.82 429.27,533.64 432.21,539.08 435.16,544.24 438.10,549.45 441.05,554.83 444.00,560.13 446.94,565.10 449.89,570.12 452.84,575.17 455.77,580.27 458.72,584.40 461.67,588.57 464.61,592.77 467.56,597.01 470.51,601.34 473.45,605.73 476.39,609.61 479.34,613.57 482.28,617.64 485.23,621.82 488.18,625.53 491.12,629.35 494.07,632.39 497.01,635.38 499.96,638.56 502.90,641.90 505.85,645.41 508.80,648.43 511.74,650.48 514.69,652.77 517.63,654.97 520.57,656.64 523.52,658.01 526.47,659.67 529.41,660.39 532.36,660.91 535.31,660.45 538.24,660.40 541.19,660.77 544.14,661.55 547.08,659.25 550.03,657.49 552.98,656.28 555.92,655.64 558.86,654.32 561.81,653.27 564.76,650.86 567.70,649.01 570.65,647.28 573.60,645.61 576.54,644.81 579.49,644.67 582.43,642.37 585.37,640.20 588.32,638.30 591.27,636.64 594.21,635.19 597.16,633.91 600.11,629.87 603.04,625.68 605.99,621.75 608.94,617.55 611.88,613.01 614.83,608.15 617.78,600.66 620.72,592.74 623.66,584.30 626.61,575.43 629.55,566.09 632.50,556.24 635.45,545.31 638.40,534.09 641.34,522.56 644.28,510.74 647.23,499.47 650.17,488.46 653.12,476.22 656.07,463.99 659.01,452.49 661.96,442.14 664.90,432.98 667.84,424.06 670.79,414.80 673.74,407.13 676.68,399.95 679.63,393.24 682.58,387.00 685.51,381.43 688.46,376.03 691.41,371.16 694.35,367.64 697.30,363.98 700.25,360.19 703.20,356.66 706.14,353.43 709.08,350.06 712.03,345.79 714.97,341.62 717.92,337.53 720.87,333.51 723.81,329.29 726.76,325.03 729.70,320.76 732.64,316.43 735.59,311.44 738.54,306.08 741.48,300.87 744.43,295.56 747.38,289.85 750.31,283.55 753.26,278.16 756.21,272.59 759.15,267.47 762.10,261.55 765.05,255.47 767.99,249.19 770.93,242.75 773.88,235.27 776.83,228.72 779.77,222.04 782.72,216.50 785.67,210.19 788.61,203.19 791.55,196.02 794.50,190.62 797.44,184.86 800.39,178.13 803.34,171.36 806.28,164.56 809.23,157.76 812.17,153.05 815.11,148.45 818.06,143.97 821.01,139.62 823.95,134.68 826.90,129.56 829.85,126.86 832.79,124.45 835.73,122.27 838.68,120.25 841.63,119.25 844.57,118.45 847.52,119.89 850.47,122.94 853.41,126.15 856.35,129.52 859.30,133.07 862.24,138.89 865.19,145.95 868.14,153.00 871.08,160.70 874.03,169.61 876.97,179.28 879.91,188.74 882.86,197.78 885.81,207.16 888.75,217.51 891.70,227.56 894.65,237.31 897.58,246.76 900.53,256.76 903.48,266.37 906.43,275.62 909.37,284.50 912.32,293.93 915.27,303.26 918.20,310.57 921.15,317.56 924.10,324.70 927.04,332.10 929.99,339.66 932.94,346.77 935.88,352.03 938.82,357.76 941.77,363.09 944.71,368.04 947.66,372.61 950.61,377.59 953.55,380.80 956.50,383.69 959.44,386.70 962.38,389.82 965.33,392.92 968.28,395.57 971.22,396.77 974.17,397.94 977.12,399.59 980.06,400.92 983.00,401.91 985.95,402.62 988.90,405.09 991.84,407.34 994.79,409.41 997.74,411.34 1000.68,416.23 1003.62,422.98 1006.57,432.97 1009.51,443.95 1012.46,456.25 1015.41,469.74 1018.35,482.55 1021.30,496.92 1024.24,513.40 1027.18,523.03 1030.13,532.09 1033.08,540.64 1036.02,548.72 1038.97,553.47 1041.92,557.12 1044.86,559.86 1047.80,563.04 1050.75,565.01 1053.70,566.07 1056.64,566.71 1059.59,566.68 1062.54,566.19 1065.47,565.02 1068.42,563.77 1071.37,562.46 1074.31,561.07" fill="none" stroke="#000000" stroke-width="3"/>
<line x1="142" y1="100" x2="178" y2="100" stroke="#000000" stroke-width="4"/>
<text x="188" y="105" font-family="Arial" font-size="18" fill="black">U:2</text>
</svg>