<svg xmlns="http://www.w3.org/2000/svg" width="1200" height="820" viewBox="0 0 1200 820">
<rect width="100%" height="100%" fill="white"/>
<text x="600.0" y="36" text-anchor="middle" font-family="Arial" font-size="24" fill="black">profile_diagonal_supply_return: vorticity:1</text>
<line x1="120.00" y1="75" x2="120.00" y2="705" stroke="#dddddd" stroke-width="1"/>
<text x="120.00" y="737" text-anchor="middle" font-family="Arial" font-size="16" fill="black">-0.729</text>
<line x1="376.25" y1="75" x2="376.25" y2="705" stroke="#dddddd" stroke-width="1"/>
<text x="376.25" y="737" text-anchor="middle" font-family="Arial" font-size="16" fill="black">1.913</text>
<line x1="632.50" y1="75" x2="632.50" y2="705" stroke="#dddddd" stroke-width="1"/>
<text x="632.50" y="737" text-anchor="middle" font-family="Arial" font-size="16" fill="black">4.555</text>
<line x1="888.75" y1="75" x2="888.75" y2="705" stroke="#dddddd" stroke-width="1"/>
<text x="888.75" y="737" text-anchor="middle" font-family="Arial" font-size="16" fill="black">7.197</text>
<line x1="1145.00" y1="75" x2="1145.00" y2="705" stroke="#dddddd" stroke-width="1"/>
<text x="1145.00" y="737" text-anchor="middle" font-family="Arial" font-size="16" fill="black">9.839</text>
<line x1="120" y1="705.00" x2="1145" y2="705.00" stroke="#dddddd" stroke-width="1"/>
<text x="104" y="710.00" text-anchor="end" font-family="Arial" font-size="16" fill="black">-1.487</text>
<line x1="120" y1="547.50" x2="1145" y2="547.50" stroke="#dddddd" stroke-width="1"/>
<text x="104" y="552.50" text-anchor="end" font-family="Arial" font-size="16" fill="black">-0.883</text>
<line x1="120" y1="390.00" x2="1145" y2="390.00" stroke="#dddddd" stroke-width="1"/>
<text x="104" y="395.00" text-anchor="end" font-family="Arial" font-size="16" fill="black">-0.278</text>
<line x1="120" y1="232.50" x2="1145" y2="232.50" stroke="#dddddd" stroke-width="1"/>
<text x="104" y="237.50" text-anchor="end" font-family="Arial" font-size="16" fill="black">0.326</text>
<line x1="120" y1="75.00" x2="1145" y2="75.00" stroke="#dddddd" stroke-width="1"/>
<text x="104" y="80.00" text-anchor="end" font-family="Arial" font-size="16" fill="black">0.931</text>
<rect x="120" y="75" width="1025" height="630" fill="none" stroke="black" stroke-width="2"/>
<text x="632.5" y="785" text-anchor="middle" font-family="Arial" font-size="20" fill="black">distance along sample line [m]</text>
<text x="34" y="390.0" transform="rotate(-90 34 390.0)" text-anchor="middle" font-family="Arial" font-size="20" fill="black">vorticity:1 [SI]</text>
<polyline points="190.69,661.55 193.64,657.88 196.58,650.74 199.53,640.00 202.47,625.70 205.42,617.70 208.36,608.17 211.31,590.79 214.25,566.88 217.20,546.20 220.14,534.22 223.09,518.26 226.03,498.56 228.98,474.17 231.93,445.74 234.87,414.52 237.82,380.46 240.76,343.48 243.71,304.04 246.65,262.14 249.60,217.92 252.54,212.29 255.49,207.34 258.43,203.03 261.38,198.91 264.32,194.92 267.27,191.32 270.22,188.55 273.16,186.04 276.11,183.79 279.05,181.80 282.00,181.33 284.94,181.15 287.88,181.26 290.83,181.65 293.78,182.36 296.73,183.39 299.67,184.88 302.62,186.63 305.57,188.44 308.50,190.24 311.45,192.45 314.40,194.90 317.34,197.53 320.29,199.55 323.24,201.69 326.18,203.96 329.12,206.38 332.07,208.32 335.01,210.19 337.96,212.13 340.91,214.23 343.85,216.07 346.80,217.75 349.74,219.49 352.68,221.21 355.63,222.74 358.58,223.76 361.53,224.88 364.47,226.10 367.42,227.45 370.36,228.07 373.30,228.80 376.25,229.62 379.20,230.55 382.14,230.76 385.09,230.72 388.04,231.04 390.97,231.51 393.92,231.77 396.87,231.65 399.81,231.89 402.76,232.18 405.71,232.98 408.65,234.12 411.59,235.32 414.54,236.59 417.48,237.92 420.43,240.20 423.38,243.13 426.32,246.17 429.27,249.37 432.21,252.58 435.16,255.81 438.10,259.04 441.05,262.52 444.00,265.78 446.94,268.42 449.89,271.06 452.84,273.67 455.77,276.26 458.72,278.24 461.67,280.15 464.61,281.99 467.56,283.75 470.51,285.40 473.45,286.97 476.39,288.43 479.34,289.82 482.28,291.35 485.23,293.13 488.18,294.62 491.12,296.02 494.07,297.31 497.01,299.34 499.96,301.34 502.90,303.31 505.85,305.26 508.80,308.23 511.74,311.10 514.69,314.01 517.63,316.38 520.57,319.42 523.52,322.85 526.47,326.09 529.41,329.15 532.36,332.45 535.31,336.35 538.24,340.00 541.19,343.37 544.14,346.47 547.08,349.39 550.03,352.00 552.98,354.29 555.92,356.24 558.86,357.28 561.81,357.69 564.76,359.23 567.70,360.75 570.65,361.40 573.60,361.08 576.54,360.04 579.49,359.18 582.43,359.90 585.37,359.64 588.32,359.94 591.27,360.82 594.21,362.30 597.16,363.67 600.11,366.24 603.04,369.38 605.99,372.30 608.94,375.48 611.88,378.75 614.83,382.29 617.78,386.20 620.72,390.22 623.66,393.67 626.61,397.00 629.55,400.18 632.50,403.18 635.45,403.72 638.40,403.71 641.34,403.11 644.28,401.86 647.23,399.41 650.17,395.97 653.12,391.49 656.07,386.31 659.01,380.87 661.96,375.41 664.90,369.05 667.84,362.13 670.79,354.82 673.74,349.68 676.68,344.21 679.63,338.42 682.58,332.34 685.51,329.36 688.46,326.67 691.41,324.11 694.35,321.46 697.30,320.27 700.25,320.31 703.20,320.66 706.14,321.32 709.08,322.25 712.03,323.31 714.97,324.56 717.92,325.97 720.87,327.55 723.81,327.95 726.76,328.37 729.70,328.83 732.64,329.32 735.59,329.39 738.54,329.33 741.48,329.25 744.43,329.16 747.38,329.02 750.31,328.84 753.26,328.45 756.21,328.19 759.15,327.97 762.10,328.05 765.05,328.29 767.99,328.72 770.93,329.36 773.88,330.46 776.83,331.57 779.77,332.93 782.72,334.54 785.67,336.56 788.61,338.96 791.55,341.66 794.50,343.82 797.44,346.24 800.39,348.92 803.34,351.84 806.28,355.02 809.23,358.46 812.17,360.20 815.11,362.15 818.06,364.29 821.01,366.64 823.95,367.97 826.90,369.02 829.85,368.64 832.79,368.44 835.73,366.82 838.68,363.37 841.63,360.57 844.57,358.09 847.52,354.08 850.47,346.92 853.41,340.30 856.35,334.23 859.30,328.69 862.24,321.99 865.19,314.77 868.14,308.14 871.08,302.43 874.03,297.01 876.97,291.91 879.91,287.29 882.86,282.54 885.81,278.15 888.75,273.93 891.70,270.11 894.65,266.70 897.58,263.70 900.53,260.12 903.48,256.83 906.43,253.84 909.37,251.15 912.32,248.44 915.27,245.90 918.20,242.75 921.15,239.86 924.10,237.09 927.04,234.39 929.99,231.88 932.94,229.59 935.88,226.40 938.82,223.22 941.77,220.23 944.71,217.40 947.66,214.75 950.61,212.11 953.55,208.46 956.50,204.91 959.44,201.35 962.38,197.85 965.33,194.40 968.28,191.01 971.22,186.75 974.17,182.53 977.12,178.26 980.06,173.96 983.00,169.58 985.95,165.10 988.90,159.77 991.84,154.23 994.79,148.37 997.74,142.06 1000.68,136.33 1003.62,130.61 1006.57,125.88 1009.51,121.09 1012.46,118.45 1015.41,118.94 1018.35,122.27 1021.30,126.10 1024.24,133.40 1027.18,144.70 1030.13,157.45 1033.08,172.19 1036.02,189.45 1038.97,198.71 1041.92,207.82 1044.86,215.71 1047.80,223.43 1050.75,239.27 1053.70,260.38 1056.64,280.31 1059.59,302.76 1062.54,323.04 1065.47,338.26 1068.42,352.81 1071.37,366.83 1074.31,380.49" fill="none" stroke="#000000" stroke-width="3"/>
<line x1="142" y1="100" x2="178" y2="100" stroke="#000000" stroke-width="4"/>
<text x="188" y="105" font-family="Arial" font-size="18" fill="black">vorticity:1</text>
</svg>