<svg xmlns="http://www.w3.org/2000/svg" width="1200" height="820" viewBox="0 0 1200 820">
<rect width="100%" height="100%" fill="white"/>
<text x="600.0" y="36" text-anchor="middle" font-family="Arial" font-size="24" fill="black">profile_near_ceiling_x: Q</text>
<line x1="120.00" y1="75" x2="120.00" y2="705" stroke="#dddddd" stroke-width="1"/>
<text x="120.00" y="737" text-anchor="middle" font-family="Arial" font-size="16" fill="black">-0.560</text>
<line x1="376.25" y1="75" x2="376.25" y2="705" stroke="#dddddd" stroke-width="1"/>
<text x="376.25" y="737" text-anchor="middle" font-family="Arial" font-size="16" fill="black">1.470</text>
<line x1="632.50" y1="75" x2="632.50" y2="705" stroke="#dddddd" stroke-width="1"/>
<text x="632.50" y="737" text-anchor="middle" font-family="Arial" font-size="16" fill="black">3.500</text>
<line x1="888.75" y1="75" x2="888.75" y2="705" stroke="#dddddd" stroke-width="1"/>
<text x="888.75" y="737" text-anchor="middle" font-family="Arial" font-size="16" fill="black">5.530</text>
<line x1="1145.00" y1="75" x2="1145.00" y2="705" stroke="#dddddd" stroke-width="1"/>
<text x="1145.00" y="737" text-anchor="middle" font-family="Arial" font-size="16" fill="black">7.560</text>
<line x1="120" y1="705.00" x2="1145" y2="705.00" stroke="#dddddd" stroke-width="1"/>
<text x="104" y="710.00" text-anchor="end" font-family="Arial" font-size="16" fill="black">-0.523</text>
<line x1="120" y1="547.50" x2="1145" y2="547.50" stroke="#dddddd" stroke-width="1"/>
<text x="104" y="552.50" text-anchor="end" font-family="Arial" font-size="16" fill="black">-0.362</text>
<line x1="120" y1="390.00" x2="1145" y2="390.00" stroke="#dddddd" stroke-width="1"/>
<text x="104" y="395.00" text-anchor="end" font-family="Arial" font-size="16" fill="black">-0.202</text>
<line x1="120" y1="232.50" x2="1145" y2="232.50" stroke="#dddddd" stroke-width="1"/>
<text x="104" y="237.50" text-anchor="end" font-family="Arial" font-size="16" fill="black">-0.042</text>
<line x1="120" y1="75.00" x2="1145" y2="75.00" stroke="#dddddd" stroke-width="1"/>
<text x="104" y="80.00" text-anchor="end" font-family="Arial" font-size="16" fill="black">0.119</text>
<rect x="120" y="75" width="1025" height="630" fill="none" stroke="black" stroke-width="2"/>
<text x="632.5" y="785" text-anchor="middle" font-family="Arial" font-size="20" fill="black">x coordinate [m]</text>
<text x="34" y="390.0" transform="rotate(-90 34 390.0)" text-anchor="middle" font-family="Arial" font-size="20" fill="black">Q [SI]</text>
<polyline points="190.69,245.64 193.64,240.23 196.58,234.82 199.53,229.41 202.47,224.00 205.42,215.66 208.36,206.15 211.31,196.63 214.25,187.11 217.20,179.03 220.14,172.85 223.09,166.67 226.03,160.49 228.98,154.98 231.93,153.49 234.87,152.00 237.82,150.50 240.76,149.01 243.71,150.73 246.65,152.98 249.60,155.24 252.54,157.50 255.49,160.73 258.43,164.70 261.38,168.67 264.32,172.64 267.27,176.77 270.22,181.28 273.16,185.78 276.11,190.29 279.05,194.80 282.00,198.54 284.94,202.28 287.89,206.01 290.83,209.75 293.78,212.81 296.72,215.59 299.67,218.37 302.62,221.15 305.56,223.56 308.51,225.47 311.45,227.38 314.40,229.30 317.34,231.08 320.29,232.14 323.23,233.20 326.17,234.26 329.13,235.32 332.07,235.75 335.01,236.07 337.96,236.40 340.91,236.73 343.85,236.58 346.80,236.08 349.74,235.58 352.68,235.08 355.64,234.32 358.58,232.92 361.52,231.52 364.47,230.12 367.41,228.72 370.35,225.61 373.31,222.50 376.25,219.40 379.19,216.29 382.15,211.64 385.09,206.37 388.03,201.11 390.98,195.84 393.92,189.94 396.86,183.19 399.82,176.44 402.76,169.69 405.70,162.98 408.65,156.45 411.59,149.93 414.54,143.40 417.49,136.88 420.43,132.33 423.37,128.12 426.33,123.90 429.27,119.69 432.21,118.45 435.16,119.44 438.10,120.42 441.04,121.41 444.00,125.59 446.94,137.74 449.88,149.89 452.83,162.03 455.78,174.18 458.72,207.48 461.67,240.77 464.61,274.06 467.55,307.35 470.51,355.83 473.45,410.39 476.39,464.93 479.34,519.48 482.28,562.23 485.23,589.23 488.18,616.25 491.12,643.25 494.06,661.55 497.02,627.54 499.96,593.55 502.90,559.55 505.85,525.54 508.79,482.86 511.73,438.74 514.69,394.60 517.63,350.48 520.57,320.73 523.52,301.79 526.47,282.85 529.41,263.90 532.36,248.64 535.30,242.57 538.24,236.51 541.20,230.45 544.14,224.38 547.08,223.39 550.03,222.39 552.97,221.40 555.92,220.41 558.87,221.67 561.81,223.83 564.75,226.00 567.71,228.16 570.65,231.86 573.59,237.59 576.54,243.33 579.48,249.07 582.42,255.61 585.38,266.99 588.32,278.37 591.26,289.75 594.21,301.13 597.16,316.42 600.10,332.37 603.05,348.32 605.99,364.26 608.93,377.02 611.89,387.39 614.83,397.75 617.77,408.13 620.72,415.99 623.66,417.57 626.60,419.16 629.56,420.74 632.50,422.32 635.44,419.28 638.40,416.22 641.34,413.18 644.28,410.12 647.23,404.62 650.17,398.15 653.11,391.66 656.07,385.18 659.01,378.66 661.95,372.09 664.90,365.52 667.84,358.93 670.79,352.46 673.74,346.58 676.68,340.70 679.62,334.82 682.58,328.94 685.52,324.04 688.46,319.31 691.41,314.57 694.35,309.84 697.29,306.61 700.25,304.50 703.19,302.38 706.13,300.27 709.08,298.69 712.03,298.43 714.97,298.18 717.92,297.93 720.86,297.68 723.80,298.20 726.76,298.72 729.70,299.24 732.64,299.76 735.59,300.01 738.53,300.14 741.48,300.28 744.43,300.42 747.37,300.47 750.31,300.39 753.27,300.31 756.21,300.23 759.15,300.18 762.10,300.36 765.04,300.54 767.98,300.71 770.94,300.88 773.88,299.70 776.82,298.29 779.77,296.88 782.72,295.47 785.66,293.57 788.61,291.30 791.55,289.03 794.49,286.76 797.45,284.55 800.39,282.50 803.33,280.44 806.28,278.38 809.22,276.32 812.17,273.63 815.12,270.95 818.06,268.26 821.00,265.57 823.96,262.57 826.90,259.44 829.84,256.31 832.79,253.18 835.73,249.91 838.67,246.43 841.63,242.96 844.57,239.48 847.51,235.99 850.46,232.39 853.41,228.79 856.35,225.19 859.30,221.59 862.24,218.16 865.18,214.76 868.14,211.36 871.08,207.96 874.02,204.73 876.97,201.63 879.91,198.53 882.85,195.43 885.81,192.42 888.75,189.67 891.69,186.91 894.65,184.15 897.59,181.39 900.53,178.98 903.48,176.57 906.42,174.16 909.36,171.75 912.32,169.67 915.26,167.70 918.20,165.74 921.15,163.78 924.09,162.09 927.04,160.75 929.99,159.41 932.93,158.07 935.87,156.84 938.83,156.26 941.77,155.68 944.71,155.10 947.66,154.53 950.60,154.79 953.54,155.18 956.50,155.58 959.44,155.98 962.38,157.12 965.33,158.82 968.28,160.52 971.22,162.22 974.17,164.45 977.11,168.02 980.05,171.59 983.01,175.15 985.95,178.72 988.89,184.74 991.84,190.76 994.78,196.79 997.73,202.81 1000.68,210.97 1003.62,219.98 1006.56,228.99 1009.52,238.00 1012.46,248.61 1015.40,261.35 1018.35,274.09 1021.29,286.82 1024.23,300.35 1027.19,318.56 1030.13,336.78 1033.07,355.00 1036.02,373.21 1038.97,391.36 1041.91,409.48 1044.86,427.62 1047.80,445.75 1050.74,457.59 1053.70,464.70 1056.64,471.82 1059.58,478.93 1062.53,483.95 1065.47,483.75 1068.42,483.54 1071.37,483.33 1074.31,483.13" fill="none" stroke="#000000" stroke-width="3"/>
<line x1="142" y1="100" x2="178" y2="100" stroke="#000000" stroke-width="4"/>
<text x="188" y="105" font-family="Arial" font-size="18" fill="black">Q</text>
</svg>