<svg xmlns="http://www.w3.org/2000/svg" width="1200" height="820" viewBox="0 0 1200 820">
<rect width="100%" height="100%" fill="white"/>
<text x="600.0" y="36" text-anchor="middle" font-family="Arial" font-size="24" fill="black">profile_near_floor_x: epsilon</text>
<line x1="120.00" y1="75" x2="120.00" y2="705" stroke="#dddddd" stroke-width="1"/>
<text x="120.00" y="737" text-anchor="middle" font-family="Arial" font-size="16" fill="black">-0.560</text>
<line x1="376.25" y1="75" x2="376.25" y2="705" stroke="#dddddd" stroke-width="1"/>
<text x="376.25" y="737" text-anchor="middle" font-family="Arial" font-size="16" fill="black">1.470</text>
<line x1="632.50" y1="75" x2="632.50" y2="705" stroke="#dddddd" stroke-width="1"/>
<text x="632.50" y="737" text-anchor="middle" font-family="Arial" font-size="16" fill="black">3.500</text>
<line x1="888.75" y1="75" x2="888.75" y2="705" stroke="#dddddd" stroke-width="1"/>
<text x="888.75" y="737" text-anchor="middle" font-family="Arial" font-size="16" fill="black">5.530</text>
<line x1="1145.00" y1="75" x2="1145.00" y2="705" stroke="#dddddd" stroke-width="1"/>
<text x="1145.00" y="737" text-anchor="middle" font-family="Arial" font-size="16" fill="black">7.560</text>
<line x1="120" y1="705.00" x2="1145" y2="705.00" stroke="#dddddd" stroke-width="1"/>
<text x="104" y="710.00" text-anchor="end" font-family="Arial" font-size="16" fill="black">0.001</text>
<line x1="120" y1="547.50" x2="1145" y2="547.50" stroke="#dddddd" stroke-width="1"/>
<text x="104" y="552.50" text-anchor="end" font-family="Arial" font-size="16" fill="black">0.003</text>
<line x1="120" y1="390.00" x2="1145" y2="390.00" stroke="#dddddd" stroke-width="1"/>
<text x="104" y="395.00" text-anchor="end" font-family="Arial" font-size="16" fill="black">0.004</text>
<line x1="120" y1="232.50" x2="1145" y2="232.50" stroke="#dddddd" stroke-width="1"/>
<text x="104" y="237.50" text-anchor="end" font-family="Arial" font-size="16" fill="black">0.006</text>
<line x1="120" y1="75.00" x2="1145" y2="75.00" stroke="#dddddd" stroke-width="1"/>
<text x="104" y="80.00" text-anchor="end" font-family="Arial" font-size="16" fill="black">0.008</text>
<rect x="120" y="75" width="1025" height="630" fill="none" stroke="black" stroke-width="2"/>
<text x="632.5" y="785" text-anchor="middle" font-family="Arial" font-size="20" fill="black">x coordinate [m]</text>
<text x="34" y="390.0" transform="rotate(-90 34 390.0)" text-anchor="middle" font-family="Arial" font-size="20" fill="black">epsilon [m2/s3]</text>
<polyline points="190.69,620.76 193.64,619.68 196.58,618.60 199.53,617.52 202.47,616.45 205.42,614.09 208.36,611.21 211.31,608.35 214.25,605.48 217.20,602.64 220.14,599.84 223.09,597.05 226.03,594.24 228.98,591.47 231.93,588.90 234.87,586.32 237.82,583.73 240.76,581.15 243.71,578.07 246.65,574.92 249.60,571.76 252.54,568.61 255.49,565.44 258.43,562.25 261.38,559.06 264.32,555.87 267.27,552.44 270.22,548.39 273.16,544.34 276.11,540.29 279.05,536.23 282.00,529.01 284.94,521.80 287.89,514.59 290.83,507.38 293.78,491.39 296.72,471.89 299.67,452.39 302.62,432.89 305.56,403.76 308.51,361.79 311.45,319.83 314.40,277.87 317.34,237.92 320.29,210.16 323.23,182.40 326.17,154.64 329.13,126.88 332.07,122.53 335.01,122.11 337.96,121.67 340.91,121.24 343.85,121.15 346.80,121.32 349.74,121.50 352.68,121.67 355.64,121.83 358.58,121.92 361.52,122.03 364.47,122.13 367.41,122.23 370.35,122.30 373.31,122.37 376.25,122.43 379.19,122.50 382.15,122.55 385.09,122.60 388.03,122.64 390.98,122.69 393.92,123.00 396.86,123.68 399.82,124.36 402.76,125.04 405.70,127.05 408.65,137.00 411.59,146.95 414.54,156.89 417.49,166.84 420.43,204.57 423.37,246.92 426.33,289.28 429.27,331.63 432.21,370.14 435.16,405.78 438.10,441.41 441.04,477.04 444.00,503.95 446.94,509.06 449.88,514.17 452.83,519.27 455.78,524.38 458.72,528.85 461.67,533.31 464.61,537.78 467.55,542.24 470.51,544.52 473.45,545.93 476.39,547.32 479.34,548.72 482.28,548.76 485.23,546.97 488.18,545.17 491.12,543.38 494.06,541.69 497.02,540.60 499.96,539.49 502.90,538.40 505.85,537.30 508.79,540.21 511.73,543.78 514.69,547.35 517.63,550.92 520.57,557.63 523.52,566.66 526.47,575.71 529.41,584.75 532.36,594.00 535.30,603.77 538.24,613.54 541.20,623.30 544.14,633.07 547.08,631.01 550.03,628.96 552.97,626.91 555.92,624.86 558.87,607.20 561.81,583.28 564.75,559.37 567.71,535.46 570.65,498.51 573.59,444.19 576.54,389.87 579.48,335.55 582.42,283.59 585.38,245.72 588.32,207.87 591.26,170.00 594.21,132.15 597.16,125.66 600.10,124.39 603.05,123.12 605.99,121.86 608.93,121.34 611.89,121.37 614.83,121.40 617.77,121.44 620.72,121.46 623.66,121.45 626.60,121.43 629.56,121.42 632.50,121.41 635.44,121.36 638.40,121.32 641.34,121.27 644.28,121.23 647.23,121.13 650.17,121.00 653.11,120.88 656.07,120.75 659.01,120.73 661.95,120.86 664.90,120.98 667.84,121.10 670.79,121.54 673.74,123.86 676.68,126.18 679.62,128.50 682.58,130.82 685.52,153.09 688.46,178.68 691.41,204.27 694.35,229.86 697.29,250.61 700.25,267.72 703.19,284.83 706.13,301.93 709.08,308.80 712.03,290.05 714.97,271.31 717.92,252.55 720.86,233.80 723.80,217.85 726.76,201.91 729.70,185.95 732.64,170.00 735.59,171.34 738.53,179.58 741.48,187.83 744.43,196.07 747.37,211.73 750.31,237.27 753.27,262.80 756.21,288.33 759.15,313.34 762.10,335.23 765.04,357.11 767.98,379.00 770.94,400.88 773.88,414.50 776.82,426.75 779.77,439.00 782.72,451.25 785.66,461.06 788.61,469.06 791.55,477.04 794.49,485.03 797.45,492.88 800.39,500.38 803.33,507.89 806.28,515.39 809.22,522.89 812.17,524.96 815.12,527.02 818.06,529.09 821.00,531.15 823.96,515.21 826.90,492.07 829.84,468.92 832.79,445.78 835.73,412.77 838.67,366.63 841.63,320.48 844.57,274.35 847.51,231.16 850.46,205.73 853.41,180.29 856.35,154.85 859.30,129.42 862.24,125.06 865.18,124.21 868.14,123.35 871.08,122.50 874.02,122.19 876.97,122.30 879.91,122.40 882.85,122.50 885.81,122.59 888.75,122.62 891.69,122.66 894.65,122.70 897.59,122.73 900.53,122.70 903.48,122.65 906.42,122.61 909.36,122.56 912.32,122.37 915.26,122.11 918.20,121.84 921.15,121.59 924.09,121.07 927.04,120.20 929.99,119.32 932.93,118.45 935.87,118.53 938.83,124.28 941.77,130.05 944.71,135.82 947.66,141.58 950.60,166.65 953.54,194.92 956.50,223.20 959.44,251.48 962.38,283.61 965.33,318.64 968.28,353.66 971.22,388.67 974.17,420.42 977.11,443.97 980.05,467.51 983.01,491.05 985.95,514.59 988.89,531.48 991.84,548.38 994.78,565.26 997.73,582.16 1000.68,593.61 1003.62,602.91 1006.56,612.20 1009.52,621.50 1012.46,628.49 1015.40,632.41 1018.35,636.33 1021.29,640.24 1024.23,643.92 1027.19,646.13 1030.13,648.34 1033.07,650.55 1036.02,652.76 1038.97,654.95 1041.91,657.15 1044.86,659.36 1047.80,661.55 1050.74,661.09 1053.70,658.63 1056.64,656.17 1059.58,653.71 1062.53,650.93 1065.47,647.33 1068.42,643.72 1071.37,640.12 1074.31,636.52" fill="none" stroke="#000000" stroke-width="3"/>
<line x1="142" y1="100" x2="178" y2="100" stroke="#000000" stroke-width="4"/>
<text x="188" y="105" font-family="Arial" font-size="18" fill="black">epsilon</text>
</svg>