<svg xmlns="http://www.w3.org/2000/svg" width="1200" height="820" viewBox="0 0 1200 820">
<rect width="100%" height="100%" fill="white"/>
<text x="600.0" y="36" text-anchor="middle" font-family="Arial" font-size="24" fill="black">profile_near_floor_x: p_rgh</text>
<line x1="120.00" y1="75" x2="120.00" y2="705" stroke="#dddddd" stroke-width="1"/>
<text x="120.00" y="737" text-anchor="middle" font-family="Arial" font-size="16" fill="black">-0.560</text>
<line x1="376.25" y1="75" x2="376.25" y2="705" stroke="#dddddd" stroke-width="1"/>
<text x="376.25" y="737" text-anchor="middle" font-family="Arial" font-size="16" fill="black">1.470</text>
<line x1="632.50" y1="75" x2="632.50" y2="705" stroke="#dddddd" stroke-width="1"/>
<text x="632.50" y="737" text-anchor="middle" font-family="Arial" font-size="16" fill="black">3.500</text>
<line x1="888.75" y1="75" x2="888.75" y2="705" stroke="#dddddd" stroke-width="1"/>
<text x="888.75" y="737" text-anchor="middle" font-family="Arial" font-size="16" fill="black">5.530</text>
<line x1="1145.00" y1="75" x2="1145.00" y2="705" stroke="#dddddd" stroke-width="1"/>
<text x="1145.00" y="737" text-anchor="middle" font-family="Arial" font-size="16" fill="black">7.560</text>
<line x1="120" y1="705.00" x2="1145" y2="705.00" stroke="#dddddd" stroke-width="1"/>
<text x="104" y="710.00" text-anchor="end" font-family="Arial" font-size="16" fill="black">0.409</text>
<line x1="120" y1="547.50" x2="1145" y2="547.50" stroke="#dddddd" stroke-width="1"/>
<text x="104" y="552.50" text-anchor="end" font-family="Arial" font-size="16" fill="black">0.515</text>
<line x1="120" y1="390.00" x2="1145" y2="390.00" stroke="#dddddd" stroke-width="1"/>
<text x="104" y="395.00" text-anchor="end" font-family="Arial" font-size="16" fill="black">0.620</text>
<line x1="120" y1="232.50" x2="1145" y2="232.50" stroke="#dddddd" stroke-width="1"/>
<text x="104" y="237.50" text-anchor="end" font-family="Arial" font-size="16" fill="black">0.725</text>
<line x1="120" y1="75.00" x2="1145" y2="75.00" stroke="#dddddd" stroke-width="1"/>
<text x="104" y="80.00" text-anchor="end" font-family="Arial" font-size="16" fill="black">0.830</text>
<rect x="120" y="75" width="1025" height="630" fill="none" stroke="black" stroke-width="2"/>
<text x="632.5" y="785" text-anchor="middle" font-family="Arial" font-size="20" fill="black">x coordinate [m]</text>
<text x="34" y="390.0" transform="rotate(-90 34 390.0)" text-anchor="middle" font-family="Arial" font-size="20" fill="black">p_rgh [Pa]</text>
<polyline points="190.69,628.03 193.64,630.38 196.58,632.72 199.53,635.05 202.47,637.40 205.42,640.69 208.36,644.36 211.31,648.02 214.25,651.69 217.20,654.56 220.14,656.39 223.09,658.20 226.03,660.01 228.98,661.55 231.93,661.39 234.87,661.22 237.82,661.06 240.76,660.89 243.71,659.20 246.65,657.24 249.60,655.30 252.54,653.34 255.49,651.08 258.43,648.56 261.38,646.06 264.32,643.56 267.27,641.25 270.22,639.41 273.16,637.55 276.11,635.71 279.05,633.87 282.00,632.49 284.94,631.10 287.89,629.72 290.83,628.35 293.78,625.77 296.72,622.72 299.67,619.67 302.62,616.61 305.56,607.56 308.51,590.53 311.45,573.50 314.40,556.47 317.34,538.64 320.29,515.89 323.23,493.15 326.17,470.40 329.13,447.66 332.07,433.07 335.01,419.82 337.96,406.60 340.91,393.37 343.85,382.55 346.80,373.54 349.74,364.53 352.68,355.52 355.64,347.22 358.58,340.69 361.52,334.15 364.47,327.62 367.41,321.09 370.35,316.29 373.31,311.50 376.25,306.70 379.19,301.89 382.15,298.11 385.09,294.72 388.03,291.34 390.98,287.96 393.92,284.70 396.86,281.57 399.82,278.44 402.76,275.33 405.70,273.43 408.65,278.95 411.59,284.46 414.54,289.98 417.49,295.50 420.43,303.18 423.37,311.21 426.33,319.25 429.27,327.29 432.21,331.33 435.16,332.36 438.10,333.39 441.04,334.44 444.00,335.55 446.94,336.86 449.88,338.16 452.83,339.47 455.78,340.78 458.72,342.88 461.67,344.97 464.61,347.07 467.55,349.16 470.51,351.18 473.45,353.17 476.39,355.16 479.34,357.15 482.28,358.92 485.23,360.39 488.18,361.84 491.12,363.30 494.06,364.71 497.02,365.80 499.96,366.90 502.90,367.97 505.85,369.07 508.79,370.07 511.73,371.04 514.69,372.03 517.63,373.00 520.57,373.70 523.52,374.21 526.47,374.72 529.41,375.23 532.36,375.35 535.30,374.53 538.24,373.72 541.20,372.90 544.14,372.07 547.08,369.93 550.03,367.79 552.97,365.65 555.92,363.51 558.87,360.31 561.81,356.68 564.75,353.05 567.71,349.43 570.65,340.63 573.59,324.92 576.54,309.22 579.48,293.51 582.42,277.25 585.38,257.63 588.32,238.00 591.26,218.38 594.21,198.75 597.16,187.37 600.10,177.36 603.05,167.35 605.99,157.34 608.93,149.81 611.89,144.11 614.83,138.43 617.77,132.74 620.72,128.00 623.66,125.62 626.60,123.22 629.56,120.83 632.50,118.45 635.44,118.79 638.40,119.14 641.34,119.47 644.28,119.81 647.23,122.41 650.17,125.93 653.11,129.43 656.07,132.95 659.01,137.54 661.95,143.59 664.90,149.63 667.84,155.68 670.79,163.30 673.74,180.41 676.68,197.53 679.62,214.65 682.58,231.77 685.52,247.23 688.46,262.43 691.41,277.62 694.35,292.81 697.29,298.75 700.25,297.73 703.19,296.71 706.13,295.71 709.08,293.23 712.03,287.08 714.97,280.94 717.92,274.79 720.86,268.66 723.80,263.43 726.76,258.23 729.70,253.02 732.64,247.80 735.59,245.28 738.53,243.83 741.48,242.40 744.43,240.94 747.37,240.40 750.31,241.03 753.27,241.68 756.21,242.31 759.15,243.02 762.10,244.24 765.04,245.45 767.98,246.64 770.94,247.86 773.88,249.16 776.82,250.48 779.77,251.79 782.72,253.12 785.66,254.85 788.61,256.87 791.55,258.89 794.49,260.91 797.45,263.31 800.39,266.65 803.33,269.99 806.28,273.34 809.22,276.68 812.17,280.10 815.12,283.53 818.06,286.97 821.00,290.40 823.96,291.91 826.90,292.64 829.84,293.39 832.79,294.14 835.73,289.85 838.67,278.86 841.63,267.88 844.57,256.90 847.51,245.76 850.46,233.72 853.41,221.67 856.35,209.62 859.30,197.58 862.24,192.21 865.18,187.96 868.14,183.69 871.08,179.44 874.02,175.24 876.97,171.06 879.91,166.89 882.85,162.73 885.81,159.03 888.75,156.52 891.69,154.02 894.65,151.52 897.59,149.00 900.53,148.50 903.48,147.99 906.42,147.46 909.36,146.95 912.32,148.63 915.26,151.19 918.20,153.75 921.15,156.31 924.09,160.75 927.04,167.72 929.99,174.68 932.93,181.66 935.87,190.20 938.83,208.23 941.77,226.25 944.71,244.28 947.66,262.30 950.60,276.93 953.54,290.98 956.50,305.03 959.44,319.10 962.38,325.43 965.33,325.97 968.28,326.52 971.22,327.08 974.17,327.85 977.11,329.25 980.05,330.64 983.01,332.03 985.95,333.42 988.89,338.06 991.84,342.71 994.78,347.35 997.73,352.01 1000.68,357.39 1003.62,363.09 1006.56,368.78 1009.52,374.48 1012.46,379.76 1015.40,384.51 1018.35,389.25 1021.29,394.00 1024.23,398.59 1027.19,402.26 1030.13,405.94 1033.07,409.62 1036.02,413.30 1038.97,416.25 1041.91,419.08 1044.86,421.90 1047.80,424.73 1050.74,427.08 1053.70,429.07 1056.64,431.06 1059.58,433.07 1062.53,434.71 1065.47,435.51 1068.42,436.30 1071.37,437.09 1074.31,437.88" fill="none" stroke="#000000" stroke-width="3"/>
<line x1="142" y1="100" x2="178" y2="100" stroke="#000000" stroke-width="4"/>
<text x="188" y="105" font-family="Arial" font-size="18" fill="black">p_rgh</text>
</svg>