<svg xmlns="http://www.w3.org/2000/svg" width="1200" height="820" viewBox="0 0 1200 820">
<rect width="100%" height="100%" fill="white"/>
<text x="600.0" y="36" text-anchor="middle" font-family="Arial" font-size="24" fill="black">profile_center_x: p</text>
<line x1="120.00" y1="75" x2="120.00" y2="705" stroke="#dddddd" stroke-width="1"/>
<text x="120.00" y="737" text-anchor="middle" font-family="Arial" font-size="16" fill="black">-0.560</text>
<line x1="376.25" y1="75" x2="376.25" y2="705" stroke="#dddddd" stroke-width="1"/>
<text x="376.25" y="737" text-anchor="middle" font-family="Arial" font-size="16" fill="black">1.470</text>
<line x1="632.50" y1="75" x2="632.50" y2="705" stroke="#dddddd" stroke-width="1"/>
<text x="632.50" y="737" text-anchor="middle" font-family="Arial" font-size="16" fill="black">3.500</text>
<line x1="888.75" y1="75" x2="888.75" y2="705" stroke="#dddddd" stroke-width="1"/>
<text x="888.75" y="737" text-anchor="middle" font-family="Arial" font-size="16" fill="black">5.530</text>
<line x1="1145.00" y1="75" x2="1145.00" y2="705" stroke="#dddddd" stroke-width="1"/>
<text x="1145.00" y="737" text-anchor="middle" font-family="Arial" font-size="16" fill="black">7.560</text>
<line x1="120" y1="705.00" x2="1145" y2="705.00" stroke="#dddddd" stroke-width="1"/>
<text x="104" y="710.00" text-anchor="end" font-family="Arial" font-size="16" fill="black">-16.62</text>
<line x1="120" y1="547.50" x2="1145" y2="547.50" stroke="#dddddd" stroke-width="1"/>
<text x="104" y="552.50" text-anchor="end" font-family="Arial" font-size="16" fill="black">-16.60</text>
<line x1="120" y1="390.00" x2="1145" y2="390.00" stroke="#dddddd" stroke-width="1"/>
<text x="104" y="395.00" text-anchor="end" font-family="Arial" font-size="16" fill="black">-16.58</text>
<line x1="120" y1="232.50" x2="1145" y2="232.50" stroke="#dddddd" stroke-width="1"/>
<text x="104" y="237.50" text-anchor="end" font-family="Arial" font-size="16" fill="black">-16.55</text>
<line x1="120" y1="75.00" x2="1145" y2="75.00" stroke="#dddddd" stroke-width="1"/>
<text x="104" y="80.00" text-anchor="end" font-family="Arial" font-size="16" fill="black">-16.53</text>
<rect x="120" y="75" width="1025" height="630" fill="none" stroke="black" stroke-width="2"/>
<text x="632.5" y="785" text-anchor="middle" font-family="Arial" font-size="20" fill="black">x coordinate [m]</text>
<text x="34" y="390.0" transform="rotate(-90 34 390.0)" text-anchor="middle" font-family="Arial" font-size="20" fill="black">p [Pa]</text>
<polyline points="190.69,422.59 193.64,429.83 196.58,429.83 199.53,429.83 202.47,437.07 205.42,437.07 208.36,444.31 211.31,451.55 214.25,458.79 217.20,458.79 220.14,466.03 223.09,473.28 226.03,480.52 228.98,487.76 231.93,495.00 234.87,502.24 237.82,509.48 240.76,516.72 243.71,523.97 246.65,531.21 249.60,538.45 252.54,545.69 255.49,552.93 258.43,560.17 261.38,567.41 264.32,574.66 267.27,581.90 270.22,589.14 273.16,589.14 276.11,596.38 279.05,603.62 282.00,610.86 284.94,610.86 287.89,618.10 290.83,625.34 293.78,625.34 296.72,632.59 299.67,632.59 302.62,639.83 305.56,639.83 308.51,647.07 311.45,647.07 314.40,647.07 317.34,654.31 320.29,654.31 323.23,654.31 326.17,654.31 329.13,654.31 332.07,654.31 335.01,654.31 337.96,654.31 340.91,654.31 343.85,647.07 346.80,647.07 349.74,639.83 352.68,639.83 355.64,632.59 358.58,625.34 361.52,618.10 364.47,610.86 367.41,603.62 370.35,589.14 373.31,581.90 376.25,567.41 379.19,560.17 382.15,545.69 385.09,531.21 388.03,516.72 390.98,502.24 393.92,487.76 396.86,473.28 399.82,458.79 402.76,437.07 405.70,422.59 408.65,408.10 411.59,386.38 414.54,371.90 417.49,357.41 420.43,335.69 423.37,321.21 426.33,306.72 429.27,292.24 432.21,277.76 435.16,263.28 438.10,248.79 441.04,234.31 444.00,219.83 446.94,205.34 449.88,190.86 452.83,183.62 455.78,169.14 458.72,161.90 461.67,154.66 464.61,147.41 467.55,140.17 470.51,132.93 473.45,125.69 476.39,125.69 479.34,118.45 482.28,118.45 485.23,118.45 488.18,118.45 491.12,118.45 494.06,118.45 497.02,125.69 499.96,125.69 502.90,132.93 505.85,140.17 508.79,147.41 511.73,154.66 514.69,161.90 517.63,169.14 520.57,176.38 523.52,183.62 526.47,198.10 529.41,205.34 532.36,219.83 535.30,227.07 538.24,241.55 541.20,248.79 544.14,263.28 547.08,270.52 550.03,285.00 552.97,292.24 555.92,306.72 558.87,313.97 561.81,328.45 564.75,335.69 567.71,350.17 570.65,357.41 573.59,364.66 576.54,371.90 579.48,379.14 582.42,393.62 585.38,400.86 588.32,400.86 591.26,408.10 594.21,415.34 597.16,422.59 600.10,429.83 603.05,429.83 605.99,437.07 608.93,437.07 611.89,444.31 614.83,444.31 617.77,444.31 620.72,444.31 623.66,444.31 626.60,444.31 629.56,444.31 632.50,451.55 635.44,444.31 638.40,444.31 641.34,444.31 644.28,444.31 647.23,444.31 650.17,444.31 653.11,437.07 656.07,437.07 659.01,437.07 661.95,437.07 664.90,437.07 667.84,429.83 670.79,429.83 673.74,429.83 676.68,429.83 679.62,429.83 682.58,429.83 685.52,429.83 688.46,429.83 691.41,429.83 694.35,429.83 697.29,429.83 700.25,429.83 703.19,429.83 706.13,429.83 709.08,429.83 712.03,429.83 714.97,437.07 717.92,437.07 720.86,437.07 723.80,437.07 726.76,437.07 729.70,437.07 732.64,437.07 735.59,437.07 738.53,437.07 741.48,437.07 744.43,437.07 747.37,429.83 750.31,429.83 753.27,429.83 756.21,429.83 759.15,429.83 762.10,429.83 765.04,422.59 767.98,422.59 770.94,422.59 773.88,422.59 776.82,422.59 779.77,422.59 782.72,415.34 785.66,415.34 788.61,415.34 791.55,415.34 794.49,415.34 797.45,415.34 800.39,415.34 803.33,415.34 806.28,422.59 809.22,422.59 812.17,422.59 815.12,429.83 818.06,429.83 821.00,429.83 823.96,437.07 826.90,444.31 829.84,451.55 832.79,451.55 835.73,458.79 838.67,466.03 841.63,473.28 844.57,480.52 847.51,487.76 850.46,495.00 853.41,502.24 856.35,509.48 859.30,516.72 862.24,523.97 865.18,538.45 868.14,545.69 871.08,552.93 874.02,560.17 876.97,567.41 879.91,574.66 882.85,574.66 885.81,581.90 888.75,589.14 891.69,596.38 894.65,603.62 897.59,610.86 900.53,610.86 903.48,618.10 906.42,625.34 909.36,625.34 912.32,632.59 915.26,632.59 918.20,639.83 921.15,639.83 924.09,647.07 927.04,647.07 929.99,654.31 932.93,654.31 935.87,654.31 938.83,654.31 941.77,661.55 944.71,661.55 947.66,661.55 950.60,661.55 953.54,661.55 956.50,661.55 959.44,661.55 962.38,661.55 965.33,654.31 968.28,654.31 971.22,654.31 974.17,654.31 977.11,647.07 980.05,647.07 983.01,647.07 985.95,639.83 988.89,639.83 991.84,632.59 994.78,625.34 997.73,625.34 1000.68,618.10 1003.62,610.86 1006.56,610.86 1009.52,603.62 1012.46,596.38 1015.40,589.14 1018.35,581.90 1021.29,581.90 1024.23,574.66 1027.19,567.41 1030.13,560.17 1033.07,552.93 1036.02,545.69 1038.97,538.45 1041.91,538.45 1044.86,531.21 1047.80,523.97 1050.74,516.72 1053.70,516.72 1056.64,509.48 1059.58,509.48 1062.53,502.24 1065.47,502.24 1068.42,502.24 1071.37,502.24 1074.31,502.24" fill="none" stroke="#000000" stroke-width="3"/>
<line x1="142" y1="100" x2="178" y2="100" stroke="#000000" stroke-width="4"/>
<text x="188" y="105" font-family="Arial" font-size="18" fill="black">p</text>
</svg>