<svg xmlns="http://www.w3.org/2000/svg" width="1200" height="820" viewBox="0 0 1200 820">
<rect width="100%" height="100%" fill="white"/>
<text x="600.0" y="36" text-anchor="middle" font-family="Arial" font-size="24" fill="black">profile_rack_height_x: T</text>
<line x1="120.00" y1="75" x2="120.00" y2="705" stroke="#dddddd" stroke-width="1"/>
<text x="120.00" y="737" text-anchor="middle" font-family="Arial" font-size="16" fill="black">-0.560</text>
<line x1="376.25" y1="75" x2="376.25" y2="705" stroke="#dddddd" stroke-width="1"/>
<text x="376.25" y="737" text-anchor="middle" font-family="Arial" font-size="16" fill="black">1.470</text>
<line x1="632.50" y1="75" x2="632.50" y2="705" stroke="#dddddd" stroke-width="1"/>
<text x="632.50" y="737" text-anchor="middle" font-family="Arial" font-size="16" fill="black">3.500</text>
<line x1="888.75" y1="75" x2="888.75" y2="705" stroke="#dddddd" stroke-width="1"/>
<text x="888.75" y="737" text-anchor="middle" font-family="Arial" font-size="16" fill="black">5.530</text>
<line x1="1145.00" y1="75" x2="1145.00" y2="705" stroke="#dddddd" stroke-width="1"/>
<text x="1145.00" y="737" text-anchor="middle" font-family="Arial" font-size="16" fill="black">7.560</text>
<line x1="120" y1="705.00" x2="1145" y2="705.00" stroke="#dddddd" stroke-width="1"/>
<text x="104" y="710.00" text-anchor="end" font-family="Arial" font-size="16" fill="black">309.8</text>
<line x1="120" y1="547.50" x2="1145" y2="547.50" stroke="#dddddd" stroke-width="1"/>
<text x="104" y="552.50" text-anchor="end" font-family="Arial" font-size="16" fill="black">312.8</text>
<line x1="120" y1="390.00" x2="1145" y2="390.00" stroke="#dddddd" stroke-width="1"/>
<text x="104" y="395.00" text-anchor="end" font-family="Arial" font-size="16" fill="black">315.8</text>
<line x1="120" y1="232.50" x2="1145" y2="232.50" stroke="#dddddd" stroke-width="1"/>
<text x="104" y="237.50" text-anchor="end" font-family="Arial" font-size="16" fill="black">318.9</text>
<line x1="120" y1="75.00" x2="1145" y2="75.00" stroke="#dddddd" stroke-width="1"/>
<text x="104" y="80.00" text-anchor="end" font-family="Arial" font-size="16" fill="black">321.9</text>
<rect x="120" y="75" width="1025" height="630" fill="none" stroke="black" stroke-width="2"/>
<text x="632.5" y="785" text-anchor="middle" font-family="Arial" font-size="20" fill="black">x coordinate [m]</text>
<text x="34" y="390.0" transform="rotate(-90 34 390.0)" text-anchor="middle" font-family="Arial" font-size="20" fill="black">T [K]</text>
<polyline points="190.69,371.44 193.64,373.01 196.58,374.58 199.53,375.63 202.47,377.19 205.42,377.72 208.36,377.72 211.31,378.24 214.25,378.24 217.20,377.19 220.14,373.53 223.09,369.88 226.03,366.22 228.98,362.56 231.93,356.28 234.87,350.53 237.82,344.78 240.76,338.51 243.71,331.19 246.65,323.88 249.60,316.04 252.54,308.72 255.49,300.35 258.43,291.99 261.38,283.63 264.32,275.26 267.27,266.90 270.22,259.06 273.16,250.70 276.11,242.33 279.05,233.97 282.00,226.65 284.94,219.33 287.89,212.01 290.83,204.17 293.78,197.90 296.72,191.63 299.67,185.36 302.62,179.08 305.56,173.86 308.51,169.15 311.45,163.92 314.40,159.22 317.34,154.52 320.29,150.86 323.23,147.72 326.17,144.06 329.13,140.40 332.07,137.79 335.01,135.18 337.96,132.56 340.91,129.95 343.85,127.86 346.80,126.29 349.74,124.72 352.68,123.15 355.64,121.58 358.58,121.06 361.52,120.02 364.47,118.97 367.41,118.45 370.35,118.45 373.31,118.45 376.25,118.45 379.19,118.97 382.15,119.49 385.09,120.54 388.03,121.58 390.98,122.63 393.92,124.20 396.86,125.77 399.82,127.86 402.76,129.43 405.70,131.52 408.65,134.13 411.59,136.74 414.54,139.36 417.49,141.97 420.43,145.63 423.37,148.77 426.33,152.42 429.27,156.08 432.21,160.27 435.16,164.97 438.10,169.67 441.04,174.90 444.00,179.61 446.94,185.88 449.88,192.15 452.83,198.42 455.78,204.70 458.72,211.49 461.67,218.81 464.61,226.13 467.55,233.45 470.51,240.76 473.45,248.60 476.39,256.45 479.34,263.76 482.28,271.60 485.23,278.92 488.18,286.24 491.12,293.04 494.06,300.35 497.02,306.63 499.96,312.90 502.90,319.17 505.85,325.44 508.79,330.67 511.73,335.90 514.69,341.13 517.63,345.83 520.57,350.01 523.52,353.67 526.47,357.85 529.41,361.51 532.36,364.65 535.30,367.26 538.24,370.40 541.20,373.01 544.14,375.63 547.08,377.72 550.03,379.81 552.97,381.90 555.92,383.99 558.87,386.08 561.81,388.17 564.75,389.74 567.71,391.83 570.65,394.44 573.59,396.53 576.54,399.15 579.48,401.76 582.42,404.37 585.38,408.03 588.32,411.69 591.26,415.35 594.21,419.01 597.16,423.72 600.10,428.42 603.05,433.65 605.99,438.35 608.93,444.62 611.89,450.90 614.83,457.69 617.77,463.96 620.72,470.76 623.66,479.12 626.60,486.96 629.56,494.80 632.50,503.17 635.44,512.05 638.40,521.46 641.34,530.87 644.28,540.28 647.23,549.69 650.17,560.14 653.11,570.08 656.07,580.01 659.01,589.42 661.95,598.83 664.90,607.71 667.84,617.12 670.79,626.01 673.74,632.28 676.68,639.07 679.62,645.35 682.58,652.14 685.52,654.76 688.46,656.85 691.41,659.46 694.35,661.55 697.29,661.55 700.25,659.46 703.19,657.89 706.13,655.80 709.08,653.71 712.03,649.01 714.97,644.82 717.92,640.12 720.86,635.94 723.80,630.71 726.76,625.48 729.70,620.26 732.64,615.03 735.59,610.33 738.53,605.62 741.48,600.39 744.43,595.69 747.37,590.98 750.31,586.80 753.27,583.14 756.21,578.96 759.15,574.78 762.10,571.64 765.04,568.51 767.98,564.85 770.94,561.71 773.88,559.10 776.82,555.96 779.77,553.35 782.72,550.74 785.66,548.12 788.61,545.51 791.55,543.42 794.49,540.80 797.45,538.19 800.39,536.10 803.33,533.49 806.28,530.87 809.22,528.78 812.17,526.17 815.12,523.55 818.06,520.94 821.00,518.33 823.96,516.24 826.90,513.62 829.84,511.53 832.79,508.92 835.73,506.83 838.67,504.74 841.63,503.17 844.57,501.08 847.51,499.51 850.46,498.46 853.41,497.42 856.35,496.37 859.30,495.33 862.24,494.80 865.18,494.28 868.14,494.28 871.08,493.76 874.02,493.76 876.97,493.76 879.91,493.76 882.85,493.76 885.81,493.76 888.75,493.76 891.69,493.76 894.65,493.76 897.59,493.76 900.53,493.24 903.48,492.19 906.42,491.67 909.36,490.62 912.32,489.58 915.26,488.01 918.20,486.44 921.15,484.87 924.09,482.78 927.04,480.17 929.99,478.08 932.93,475.46 935.87,473.37 938.83,470.24 941.77,467.62 944.71,464.49 947.66,461.87 950.60,458.21 953.54,455.08 956.50,451.94 959.44,448.81 962.38,445.15 965.33,441.49 968.28,437.83 971.22,434.69 974.17,431.03 977.11,427.37 980.05,423.72 983.01,420.06 985.95,416.40 988.89,412.22 991.84,408.56 994.78,404.90 997.73,401.24 1000.68,397.58 1003.62,393.92 1006.56,390.26 1009.52,386.60 1012.46,382.42 1015.40,378.24 1018.35,374.58 1021.29,370.40 1024.23,366.22 1027.19,361.51 1030.13,357.33 1033.07,352.63 1036.02,347.92 1038.97,342.69 1041.91,337.47 1044.86,331.72 1047.80,326.49 1050.74,320.22 1053.70,312.90 1056.64,305.58 1059.58,298.26 1062.53,291.99 1065.47,287.81 1068.42,284.15 1071.37,279.97 1074.31,275.79" fill="none" stroke="#000000" stroke-width="3"/>
<line x1="142" y1="100" x2="178" y2="100" stroke="#000000" stroke-width="4"/>
<text x="188" y="105" font-family="Arial" font-size="18" fill="black">T</text>
</svg>