<svg xmlns="http://www.w3.org/2000/svg" width="1200" height="820" viewBox="0 0 1200 820">
<rect width="100%" height="100%" fill="white"/>
<text x="600.0" y="36" text-anchor="middle" font-family="Arial" font-size="24" fill="black">profile_center_z: vorticity:2</text>
<line x1="120.00" y1="75" x2="120.00" y2="705" stroke="#dddddd" stroke-width="1"/>
<text x="120.00" y="737" text-anchor="middle" font-family="Arial" font-size="16" fill="black">-0.240</text>
<line x1="376.25" y1="75" x2="376.25" y2="705" stroke="#dddddd" stroke-width="1"/>
<text x="376.25" y="737" text-anchor="middle" font-family="Arial" font-size="16" fill="black">0.630</text>
<line x1="632.50" y1="75" x2="632.50" y2="705" stroke="#dddddd" stroke-width="1"/>
<text x="632.50" y="737" text-anchor="middle" font-family="Arial" font-size="16" fill="black">1.500</text>
<line x1="888.75" y1="75" x2="888.75" y2="705" stroke="#dddddd" stroke-width="1"/>
<text x="888.75" y="737" text-anchor="middle" font-family="Arial" font-size="16" fill="black">2.370</text>
<line x1="1145.00" y1="75" x2="1145.00" y2="705" stroke="#dddddd" stroke-width="1"/>
<text x="1145.00" y="737" text-anchor="middle" font-family="Arial" font-size="16" fill="black">3.240</text>
<line x1="120" y1="705.00" x2="1145" y2="705.00" stroke="#dddddd" stroke-width="1"/>
<text x="104" y="710.00" text-anchor="end" font-family="Arial" font-size="16" fill="black">-0.492</text>
<line x1="120" y1="547.50" x2="1145" y2="547.50" stroke="#dddddd" stroke-width="1"/>
<text x="104" y="552.50" text-anchor="end" font-family="Arial" font-size="16" fill="black">-0.292</text>
<line x1="120" y1="390.00" x2="1145" y2="390.00" stroke="#dddddd" stroke-width="1"/>
<text x="104" y="395.00" text-anchor="end" font-family="Arial" font-size="16" fill="black">-0.091</text>
<line x1="120" y1="232.50" x2="1145" y2="232.50" stroke="#dddddd" stroke-width="1"/>
<text x="104" y="237.50" text-anchor="end" font-family="Arial" font-size="16" fill="black">0.110</text>
<line x1="120" y1="75.00" x2="1145" y2="75.00" stroke="#dddddd" stroke-width="1"/>
<text x="104" y="80.00" text-anchor="end" font-family="Arial" font-size="16" fill="black">0.311</text>
<rect x="120" y="75" width="1025" height="630" fill="none" stroke="black" stroke-width="2"/>
<text x="632.5" y="785" text-anchor="middle" font-family="Arial" font-size="20" fill="black">z coordinate [m]</text>
<text x="34" y="390.0" transform="rotate(-90 34 390.0)" text-anchor="middle" font-family="Arial" font-size="20" fill="black">vorticity:2 [SI]</text>
<polyline points="190.69,319.03 193.64,319.04 196.58,319.05 199.53,319.06 202.47,319.07 205.42,319.07 208.36,319.08 211.31,319.09 214.25,319.10 217.20,319.11 220.14,319.12 223.09,319.14 226.03,319.16 228.98,319.19 231.93,319.21 234.87,319.23 237.82,319.26 240.76,319.28 243.71,319.30 246.65,319.33 249.60,319.35 252.54,319.38 255.49,319.41 258.43,319.44 261.38,319.47 264.32,319.50 267.27,319.53 270.22,319.56 273.16,319.59 276.11,319.63 279.05,319.66 282.00,319.69 284.94,319.72 287.89,319.75 290.83,319.78 293.78,319.81 296.72,319.84 299.67,319.87 302.61,319.90 305.56,319.93 308.51,319.96 311.45,320.06 314.40,320.15 317.34,320.24 320.29,320.34 323.23,320.43 326.18,320.53 329.12,320.62 332.07,320.71 335.01,320.81 337.96,320.90 340.91,322.22 343.85,323.53 346.80,324.84 349.74,326.16 352.69,327.47 355.63,328.79 358.58,330.10 361.52,331.42 364.47,332.73 367.41,334.05 370.36,338.83 373.30,343.62 376.25,348.41 379.20,353.20 382.14,357.98 385.09,362.77 388.03,367.56 390.98,372.35 393.92,377.14 396.87,381.92 399.81,388.33 402.76,394.74 405.70,401.14 408.65,407.56 411.59,413.96 414.54,420.37 417.49,426.77 420.43,433.18 423.38,439.59 426.32,446.00 429.27,451.63 432.21,457.27 435.16,462.91 438.10,468.54 441.05,474.19 443.99,479.82 446.94,485.47 449.89,491.10 452.83,496.74 455.78,502.38 458.72,507.79 461.67,513.22 464.61,518.63 467.56,524.05 470.50,529.47 473.45,534.89 476.39,540.30 479.34,545.73 482.28,551.14 485.23,556.56 488.18,561.44 491.12,566.31 494.07,571.19 497.01,576.06 499.96,580.95 502.90,585.82 505.85,590.70 508.79,595.57 511.74,600.45 514.68,605.33 517.63,609.03 520.57,612.74 523.52,616.45 526.47,620.16 529.41,623.86 532.36,627.57 535.30,631.28 538.25,634.98 541.19,638.68 544.14,642.39 547.08,644.31 550.03,646.22 552.97,648.14 555.92,650.05 558.86,651.97 561.81,653.89 564.76,655.81 567.70,657.72 570.65,659.64 573.59,661.55 576.54,661.29 579.48,661.03 582.43,660.76 585.37,660.50 588.32,660.24 591.26,659.97 594.21,659.71 597.16,659.44 600.10,659.18 603.05,658.92 605.99,656.52 608.94,654.13 611.88,651.73 614.83,649.34 617.77,646.94 620.72,644.55 623.66,642.15 626.61,639.76 629.55,637.37 632.50,634.97 635.45,630.99 638.39,627.02 641.34,623.05 644.28,619.07 647.23,615.10 650.17,611.13 653.12,607.15 656.06,603.18 659.01,599.21 661.95,595.23 664.90,590.25 667.84,585.26 670.79,580.28 673.74,575.30 676.68,570.31 679.63,565.33 682.57,560.34 685.52,555.36 688.46,550.37 691.41,545.38 694.35,539.79 697.30,534.20 700.24,528.61 703.19,523.02 706.14,517.43 709.08,511.85 712.03,506.25 714.97,500.66 717.92,495.07 720.86,489.49 723.81,483.63 726.75,477.78 729.70,471.93 732.64,466.08 735.59,460.24 738.53,454.38 741.48,448.54 744.43,442.68 747.37,436.84 750.32,430.99 753.26,425.24 756.21,419.48 759.15,413.72 762.10,407.97 765.04,402.22 767.99,396.47 770.93,390.71 773.88,384.96 776.82,379.21 779.77,373.46 782.72,368.19 785.66,362.93 788.61,357.66 791.55,352.40 794.50,347.13 797.44,341.87 800.39,336.61 803.33,331.34 806.28,326.08 809.22,320.81 812.17,316.36 815.11,311.92 818.06,307.47 821.01,303.02 823.95,298.57 826.90,294.12 829.84,289.67 832.79,285.22 835.73,280.78 838.68,276.33 841.62,272.86 844.57,269.39 847.51,265.93 850.46,262.46 853.41,258.99 856.35,255.53 859.30,252.06 862.24,248.59 865.19,245.13 868.13,241.66 871.08,239.19 874.02,236.72 876.97,234.25 879.91,231.78 882.86,229.31 885.80,226.84 888.75,224.38 891.70,221.91 894.64,219.44 897.59,216.97 900.53,215.16 903.48,213.35 906.42,211.54 909.37,209.73 912.31,207.92 915.26,206.11 918.20,204.30 921.15,202.49 924.09,200.68 927.04,198.87 929.99,197.12 932.93,195.37 935.88,193.62 938.82,191.86 941.77,190.11 944.71,188.36 947.66,186.60 950.60,184.85 953.55,183.10 956.49,181.34 959.44,178.83 962.39,176.31 965.33,173.79 968.28,171.27 971.22,168.76 974.17,166.24 977.11,163.72 980.06,161.20 983.00,158.68 985.95,156.17 988.89,152.81 991.84,149.45 994.78,146.10 997.73,142.74 1000.68,139.38 1003.62,136.03 1006.57,132.67 1009.51,129.31 1012.46,125.96 1015.40,122.60 1018.35,122.19 1021.29,121.77 1024.24,121.36 1027.18,120.94 1030.13,120.53 1033.07,120.11 1036.02,119.69 1038.97,119.28 1041.91,118.86 1044.86,118.45 1047.80,119.80 1050.75,121.16 1053.69,122.52 1056.64,123.87 1059.58,125.23 1062.53,126.58 1065.47,127.94 1068.42,129.29 1071.36,130.65 1074.31,132.01" fill="none" stroke="#000000" stroke-width="3"/>
<line x1="142" y1="100" x2="178" y2="100" stroke="#000000" stroke-width="4"/>
<text x="188" y="105" font-family="Arial" font-size="18" fill="black">vorticity:2</text>
</svg>