<svg xmlns="http://www.w3.org/2000/svg" width="1200" height="820" viewBox="0 0 1200 820">
<rect width="100%" height="100%" fill="white"/>
<text x="600.0" y="36" text-anchor="middle" font-family="Arial" font-size="24" fill="black">profile_near_ceiling_x: vorticity:2</text>
<line x1="120.00" y1="75" x2="120.00" y2="705" stroke="#dddddd" stroke-width="1"/>
<text x="120.00" y="737" text-anchor="middle" font-family="Arial" font-size="16" fill="black">-0.560</text>
<line x1="376.25" y1="75" x2="376.25" y2="705" stroke="#dddddd" stroke-width="1"/>
<text x="376.25" y="737" text-anchor="middle" font-family="Arial" font-size="16" fill="black">1.470</text>
<line x1="632.50" y1="75" x2="632.50" y2="705" stroke="#dddddd" stroke-width="1"/>
<text x="632.50" y="737" text-anchor="middle" font-family="Arial" font-size="16" fill="black">3.500</text>
<line x1="888.75" y1="75" x2="888.75" y2="705" stroke="#dddddd" stroke-width="1"/>
<text x="888.75" y="737" text-anchor="middle" font-family="Arial" font-size="16" fill="black">5.530</text>
<line x1="1145.00" y1="75" x2="1145.00" y2="705" stroke="#dddddd" stroke-width="1"/>
<text x="1145.00" y="737" text-anchor="middle" font-family="Arial" font-size="16" fill="black">7.560</text>
<line x1="120" y1="705.00" x2="1145" y2="705.00" stroke="#dddddd" stroke-width="1"/>
<text x="104" y="710.00" text-anchor="end" font-family="Arial" font-size="16" fill="black">-1.049</text>
<line x1="120" y1="547.50" x2="1145" y2="547.50" stroke="#dddddd" stroke-width="1"/>
<text x="104" y="552.50" text-anchor="end" font-family="Arial" font-size="16" fill="black">1.135</text>
<line x1="120" y1="390.00" x2="1145" y2="390.00" stroke="#dddddd" stroke-width="1"/>
<text x="104" y="395.00" text-anchor="end" font-family="Arial" font-size="16" fill="black">3.319</text>
<line x1="120" y1="232.50" x2="1145" y2="232.50" stroke="#dddddd" stroke-width="1"/>
<text x="104" y="237.50" text-anchor="end" font-family="Arial" font-size="16" fill="black">5.503</text>
<line x1="120" y1="75.00" x2="1145" y2="75.00" stroke="#dddddd" stroke-width="1"/>
<text x="104" y="80.00" text-anchor="end" font-family="Arial" font-size="16" fill="black">7.687</text>
<rect x="120" y="75" width="1025" height="630" fill="none" stroke="black" stroke-width="2"/>
<text x="632.5" y="785" text-anchor="middle" font-family="Arial" font-size="20" fill="black">x coordinate [m]</text>
<text x="34" y="390.0" transform="rotate(-90 34 390.0)" text-anchor="middle" font-family="Arial" font-size="20" fill="black">vorticity:2 [SI]</text>
<polyline points="190.69,118.45 193.64,176.93 196.58,235.41 199.53,293.90 202.47,352.39 205.42,411.50 208.36,470.85 211.31,530.21 214.25,589.57 217.20,624.03 220.14,625.28 223.09,626.54 226.03,627.79 228.98,628.98 231.93,629.72 234.87,630.46 237.82,631.21 240.76,631.95 243.71,632.69 246.65,633.43 249.60,634.17 252.54,634.91 255.49,635.66 258.43,636.42 261.38,637.18 264.32,637.93 267.27,638.68 270.22,639.41 273.16,640.15 276.11,640.88 279.05,641.61 282.00,642.27 284.94,642.94 287.89,643.60 290.83,644.26 293.78,644.86 296.72,645.43 299.67,646.00 302.62,646.57 305.56,647.05 308.51,647.41 311.45,647.77 314.40,648.13 317.34,648.43 320.29,648.34 323.23,648.25 326.17,648.16 329.13,648.07 332.07,647.55 335.01,646.96 337.96,646.36 340.91,645.77 343.85,645.00 346.80,644.11 349.74,643.22 352.68,642.33 355.64,641.42 358.58,640.46 361.52,639.51 364.47,638.56 367.41,637.61 370.35,636.74 373.31,635.87 376.25,635.00 379.19,634.13 382.15,633.37 385.09,632.66 388.03,631.94 390.98,631.23 393.92,630.59 396.86,630.06 399.82,629.52 402.76,628.99 405.70,628.49 408.65,628.15 411.59,627.81 414.54,627.47 417.49,627.13 420.43,626.95 423.37,626.80 426.33,626.65 429.27,626.50 432.21,626.44 435.16,626.47 438.10,626.49 441.04,626.51 444.00,626.59 446.94,626.83 449.88,627.07 452.83,627.30 455.78,627.54 458.72,628.44 461.67,629.34 464.61,630.24 467.55,631.15 470.51,633.47 473.45,636.36 476.39,639.26 479.34,642.15 482.28,645.46 485.23,649.34 488.18,653.21 491.12,657.08 494.06,660.44 497.02,660.72 499.96,661.00 502.90,661.27 505.85,661.55 508.79,658.81 511.73,655.57 514.69,652.33 517.63,649.09 520.57,646.07 523.52,643.21 526.47,640.34 529.41,637.48 532.36,634.97 535.30,633.33 538.24,631.70 541.20,630.06 544.14,628.43 547.08,627.48 550.03,626.53 552.97,625.59 555.92,624.64 558.87,623.96 561.81,623.39 564.75,622.81 567.71,622.24 570.65,621.76 573.59,621.40 576.54,621.05 579.48,620.69 582.42,620.35 585.38,620.10 588.32,619.84 591.26,619.59 594.21,619.34 597.16,618.86 600.10,618.35 603.05,617.84 605.99,617.32 608.93,616.60 611.89,615.71 614.83,614.83 617.77,613.95 620.72,613.17 623.66,612.64 626.60,612.12 629.56,611.59 632.50,611.07 635.44,611.13 638.40,611.19 641.34,611.25 644.28,611.31 647.23,611.45 650.17,611.63 653.11,611.80 656.07,611.98 659.01,612.14 661.95,612.28 664.90,612.42 667.84,612.55 670.79,612.69 673.74,612.82 676.68,612.94 679.62,613.07 682.58,613.20 685.52,613.31 688.46,613.42 691.41,613.54 694.35,613.65 697.29,613.75 700.25,613.83 703.19,613.91 706.13,613.99 709.08,614.06 712.03,614.11 714.97,614.16 717.92,614.21 720.86,614.26 723.80,614.29 726.76,614.31 729.70,614.34 732.64,614.36 735.59,614.34 738.53,614.30 741.48,614.25 744.43,614.21 747.37,614.13 750.31,613.98 753.27,613.84 756.21,613.70 759.15,613.55 762.10,613.33 765.04,613.11 767.98,612.89 770.94,612.67 773.88,612.41 776.82,612.15 779.77,611.89 782.72,611.63 785.66,611.38 788.61,611.13 791.55,610.89 794.49,610.65 797.45,610.43 800.39,610.27 803.33,610.12 806.28,609.96 809.22,609.80 812.17,609.78 815.12,609.76 818.06,609.74 821.00,609.72 823.96,609.79 826.90,609.90 829.84,610.02 832.79,610.13 835.73,610.29 838.67,610.50 841.63,610.71 844.57,610.92 847.51,611.13 850.46,611.39 853.41,611.64 856.35,611.89 859.30,612.14 862.24,612.38 865.18,612.62 868.14,612.87 871.08,613.11 874.02,613.33 876.97,613.54 879.91,613.75 882.85,613.96 885.81,614.16 888.75,614.34 891.69,614.52 894.65,614.70 897.59,614.88 900.53,615.05 903.48,615.21 906.42,615.38 909.36,615.54 912.32,615.71 915.26,615.87 918.20,616.03 921.15,616.19 924.09,616.36 927.04,616.52 929.99,616.69 932.93,616.85 935.87,617.02 938.83,617.19 941.77,617.37 944.71,617.54 947.66,617.71 950.60,617.90 953.54,618.09 956.50,618.27 959.44,618.46 962.38,618.65 965.33,618.85 968.28,619.05 971.22,619.25 974.17,619.46 977.11,619.67 980.05,619.89 983.01,620.10 985.95,620.32 988.89,620.55 991.84,620.78 994.78,621.01 997.73,621.24 1000.68,621.49 1003.62,621.74 1006.56,622.00 1009.52,622.25 1012.46,622.52 1015.40,622.81 1018.35,623.10 1021.29,623.39 1024.23,623.68 1027.19,624.03 1030.13,624.38 1033.07,624.72 1036.02,625.07 1038.97,625.50 1041.91,625.94 1044.86,626.39 1047.80,626.83 1050.74,618.82 1053.70,604.48 1056.64,590.13 1059.58,575.78 1062.53,561.36 1065.47,546.76 1068.42,532.15 1071.37,517.55 1074.31,502.95" fill="none" stroke="#000000" stroke-width="3"/>
<line x1="142" y1="100" x2="178" y2="100" stroke="#000000" stroke-width="4"/>
<text x="188" y="105" font-family="Arial" font-size="18" fill="black">vorticity:2</text>
</svg>