<svg xmlns="http://www.w3.org/2000/svg" width="1200" height="820" viewBox="0 0 1200 820">
<rect width="100%" height="100%" fill="white"/>
<text x="600.0" y="36" text-anchor="middle" font-family="Arial" font-size="24" fill="black">profile_rack_height_x: velocity magnitude</text>
<line x1="120.00" y1="75" x2="120.00" y2="705" stroke="#dddddd" stroke-width="1"/>
<text x="120.00" y="737" text-anchor="middle" font-family="Arial" font-size="16" fill="black">-0.560</text>
<line x1="376.25" y1="75" x2="376.25" y2="705" stroke="#dddddd" stroke-width="1"/>
<text x="376.25" y="737" text-anchor="middle" font-family="Arial" font-size="16" fill="black">1.470</text>
<line x1="632.50" y1="75" x2="632.50" y2="705" stroke="#dddddd" stroke-width="1"/>
<text x="632.50" y="737" text-anchor="middle" font-family="Arial" font-size="16" fill="black">3.500</text>
<line x1="888.75" y1="75" x2="888.75" y2="705" stroke="#dddddd" stroke-width="1"/>
<text x="888.75" y="737" text-anchor="middle" font-family="Arial" font-size="16" fill="black">5.530</text>
<line x1="1145.00" y1="75" x2="1145.00" y2="705" stroke="#dddddd" stroke-width="1"/>
<text x="1145.00" y="737" text-anchor="middle" font-family="Arial" font-size="16" fill="black">7.560</text>
<line x1="120" y1="705.00" x2="1145" y2="705.00" stroke="#dddddd" stroke-width="1"/>
<text x="104" y="710.00" text-anchor="end" font-family="Arial" font-size="16" fill="black">0.007</text>
<line x1="120" y1="547.50" x2="1145" y2="547.50" stroke="#dddddd" stroke-width="1"/>
<text x="104" y="552.50" text-anchor="end" font-family="Arial" font-size="16" fill="black">0.084</text>
<line x1="120" y1="390.00" x2="1145" y2="390.00" stroke="#dddddd" stroke-width="1"/>
<text x="104" y="395.00" text-anchor="end" font-family="Arial" font-size="16" fill="black">0.160</text>
<line x1="120" y1="232.50" x2="1145" y2="232.50" stroke="#dddddd" stroke-width="1"/>
<text x="104" y="237.50" text-anchor="end" font-family="Arial" font-size="16" fill="black">0.236</text>
<line x1="120" y1="75.00" x2="1145" y2="75.00" stroke="#dddddd" stroke-width="1"/>
<text x="104" y="80.00" text-anchor="end" font-family="Arial" font-size="16" fill="black">0.312</text>
<rect x="120" y="75" width="1025" height="630" fill="none" stroke="black" stroke-width="2"/>
<text x="632.5" y="785" text-anchor="middle" font-family="Arial" font-size="20" fill="black">x coordinate [m]</text>
<text x="34" y="390.0" transform="rotate(-90 34 390.0)" text-anchor="middle" font-family="Arial" font-size="20" fill="black">|U| [m/s]</text>
<polyline points="190.69,661.55 193.64,652.27 196.58,642.98 199.53,633.70 202.47,624.41 205.42,593.96 208.36,555.03 211.31,516.11 214.25,477.18 217.20,450.25 220.14,439.28 223.09,428.34 226.03,417.38 228.98,408.15 231.93,409.27 234.87,410.41 237.82,411.52 240.76,412.66 243.71,419.26 246.65,426.77 249.60,434.28 252.54,441.81 255.49,451.16 258.43,461.89 261.38,472.63 264.32,483.38 267.27,494.39 270.22,506.12 273.16,517.86 276.11,529.59 279.05,541.32 282.00,551.99 284.94,562.65 287.89,573.32 290.83,583.99 293.78,591.78 296.72,598.41 299.67,605.04 302.62,611.67 305.56,614.82 308.51,613.35 311.45,611.88 314.40,610.41 317.34,607.79 320.29,598.27 323.23,588.76 326.17,579.25 329.13,569.74 332.07,556.23 335.01,542.07 337.96,527.90 340.91,513.74 343.85,498.26 346.80,481.77 349.74,465.28 352.68,448.82 355.64,432.19 358.58,415.18 361.52,398.18 364.47,381.20 367.41,364.19 370.35,348.49 373.31,332.79 376.25,317.07 379.19,301.37 382.15,287.82 385.09,275.12 388.03,262.42 390.98,249.74 393.92,238.90 396.86,230.52 399.82,222.17 402.76,213.79 405.70,206.16 408.65,202.87 411.59,199.58 414.54,196.27 417.49,192.98 420.43,194.20 423.37,196.18 426.33,198.15 429.27,200.14 432.21,204.91 435.16,211.82 438.10,218.71 441.04,225.62 444.00,233.67 446.94,244.55 449.88,255.45 452.83,266.33 455.78,277.23 458.72,290.30 461.67,303.38 464.61,316.45 467.55,329.52 470.51,342.16 473.45,354.62 476.39,367.07 479.34,379.52 482.28,390.36 485.23,399.05 488.18,407.74 491.12,416.42 494.06,424.33 497.02,427.55 499.96,430.80 502.90,434.03 505.85,437.28 508.79,436.80 511.73,435.70 514.69,434.63 517.63,433.53 520.57,431.61 523.52,429.08 526.47,426.54 529.41,424.00 532.36,421.80 535.30,420.40 538.24,419.01 541.20,417.60 544.14,416.22 547.08,417.48 550.03,418.74 552.97,420.00 555.92,421.24 558.87,424.82 561.81,429.31 564.75,433.80 567.71,438.29 570.65,444.10 573.59,451.65 576.54,459.20 579.48,466.75 582.42,474.59 585.38,484.15 588.32,493.71 591.26,503.26 594.21,512.80 597.16,521.76 600.10,530.61 603.05,539.46 605.99,548.31 608.93,553.79 611.89,556.74 614.83,559.69 617.77,562.64 620.72,563.08 623.66,557.23 626.60,551.37 629.56,545.52 632.50,539.66 635.44,529.73 638.40,519.79 641.34,509.86 644.28,499.91 647.23,491.10 650.17,482.74 653.11,474.37 656.07,466.01 659.01,459.47 661.95,455.38 664.90,451.30 667.84,447.21 670.79,443.73 673.74,443.94 676.68,444.14 679.62,444.35 682.58,444.56 685.52,446.81 688.46,449.38 691.41,451.96 694.35,454.55 697.29,456.84 700.25,458.93 703.19,461.02 706.13,463.11 709.08,464.35 712.03,463.42 714.97,462.49 717.92,461.56 720.86,460.63 723.80,455.56 726.76,450.51 729.70,445.47 732.64,440.42 735.59,432.68 738.53,423.89 741.48,415.08 744.43,406.29 747.37,396.30 750.31,384.76 753.27,373.19 756.21,361.63 759.15,349.84 762.10,336.64 765.04,323.44 767.98,310.25 770.94,297.05 773.88,283.50 776.82,269.89 779.77,256.28 782.72,242.67 785.66,229.67 788.61,217.12 791.55,204.56 794.49,191.99 797.45,180.24 800.39,170.43 803.33,160.65 806.28,150.84 809.22,141.06 812.17,135.72 815.12,130.38 818.06,125.07 821.00,119.73 823.96,118.45 826.90,118.78 829.84,119.09 832.79,119.42 835.73,122.25 838.67,128.44 841.63,134.62 844.57,140.79 847.51,147.64 850.46,158.54 853.41,169.42 856.35,180.32 859.30,191.22 862.24,204.02 865.18,217.14 868.14,230.27 871.08,243.41 874.02,255.88 876.97,267.92 879.91,279.94 882.85,291.96 885.81,302.84 888.75,310.93 891.69,319.00 894.65,327.06 897.59,335.13 900.53,338.58 903.48,342.04 906.42,345.49 909.36,348.95 912.32,350.31 915.26,350.83 918.20,351.35 921.15,351.84 924.09,352.15 927.04,352.15 929.99,352.13 932.93,352.13 935.87,352.32 938.83,353.52 941.77,354.72 944.71,355.92 947.66,357.14 950.60,359.99 953.54,363.12 956.50,366.24 959.44,369.37 962.38,373.56 965.33,378.55 968.28,383.53 971.22,388.52 974.17,393.82 977.11,399.83 980.05,405.88 983.01,411.92 985.95,417.96 988.89,422.82 991.84,427.68 994.78,432.54 997.73,437.40 1000.68,439.26 1003.62,439.90 1006.56,440.57 1009.52,441.23 1012.46,439.24 1015.40,433.78 1018.35,428.30 1021.29,422.84 1024.23,416.45 1027.19,404.59 1030.13,392.74 1033.07,380.87 1036.02,369.01 1038.97,352.28 1041.91,334.74 1044.86,317.20 1047.80,299.63 1050.74,279.49 1053.70,257.39 1056.64,235.28 1059.58,213.19 1062.53,193.89 1065.47,181.60 1068.42,169.33 1071.37,157.07 1074.31,144.80" fill="none" stroke="#000000" stroke-width="3"/>
<line x1="142" y1="100" x2="178" y2="100" stroke="#000000" stroke-width="4"/>
<text x="188" y="105" font-family="Arial" font-size="18" fill="black">|U|</text>
</svg>