<svg xmlns="http://www.w3.org/2000/svg" width="1200" height="820" viewBox="0 0 1200 820">
<rect width="100%" height="100%" fill="white"/>
<text x="600.0" y="36" text-anchor="middle" font-family="Arial" font-size="24" fill="black">profile_diagonal_supply_return: vorticity:2</text>
<line x1="120.00" y1="75" x2="120.00" y2="705" stroke="#dddddd" stroke-width="1"/>
<text x="120.00" y="737" text-anchor="middle" font-family="Arial" font-size="16" fill="black">-0.729</text>
<line x1="376.25" y1="75" x2="376.25" y2="705" stroke="#dddddd" stroke-width="1"/>
<text x="376.25" y="737" text-anchor="middle" font-family="Arial" font-size="16" fill="black">1.913</text>
<line x1="632.50" y1="75" x2="632.50" y2="705" stroke="#dddddd" stroke-width="1"/>
<text x="632.50" y="737" text-anchor="middle" font-family="Arial" font-size="16" fill="black">4.555</text>
<line x1="888.75" y1="75" x2="888.75" y2="705" stroke="#dddddd" stroke-width="1"/>
<text x="888.75" y="737" text-anchor="middle" font-family="Arial" font-size="16" fill="black">7.197</text>
<line x1="1145.00" y1="75" x2="1145.00" y2="705" stroke="#dddddd" stroke-width="1"/>
<text x="1145.00" y="737" text-anchor="middle" font-family="Arial" font-size="16" fill="black">9.839</text>
<line x1="120" y1="705.00" x2="1145" y2="705.00" stroke="#dddddd" stroke-width="1"/>
<text x="104" y="710.00" text-anchor="end" font-family="Arial" font-size="16" fill="black">-0.799</text>
<line x1="120" y1="547.50" x2="1145" y2="547.50" stroke="#dddddd" stroke-width="1"/>
<text x="104" y="552.50" text-anchor="end" font-family="Arial" font-size="16" fill="black">-0.313</text>
<line x1="120" y1="390.00" x2="1145" y2="390.00" stroke="#dddddd" stroke-width="1"/>
<text x="104" y="395.00" text-anchor="end" font-family="Arial" font-size="16" fill="black">0.174</text>
<line x1="120" y1="232.50" x2="1145" y2="232.50" stroke="#dddddd" stroke-width="1"/>
<text x="104" y="237.50" text-anchor="end" font-family="Arial" font-size="16" fill="black">0.660</text>
<line x1="120" y1="75.00" x2="1145" y2="75.00" stroke="#dddddd" stroke-width="1"/>
<text x="104" y="80.00" text-anchor="end" font-family="Arial" font-size="16" fill="black">1.147</text>
<rect x="120" y="75" width="1025" height="630" fill="none" stroke="black" stroke-width="2"/>
<text x="632.5" y="785" text-anchor="middle" font-family="Arial" font-size="20" fill="black">distance along sample line [m]</text>
<text x="34" y="390.0" transform="rotate(-90 34 390.0)" text-anchor="middle" font-family="Arial" font-size="20" fill="black">vorticity:2 [SI]</text>
<polyline points="190.69,118.45 193.64,131.64 196.58,150.33 199.53,174.59 202.47,204.50 205.42,228.43 208.36,256.68 211.31,297.15 214.25,348.49 217.20,400.18 220.14,445.04 223.09,496.76 226.03,554.78 228.98,552.80 231.93,552.77 234.87,552.83 237.82,552.98 240.76,553.19 243.71,555.06 246.65,554.92 249.60,554.88 252.54,554.49 255.49,554.63 258.43,555.12 261.38,555.63 264.32,555.44 267.27,555.25 270.22,555.04 273.16,554.69 276.11,554.18 279.05,553.53 282.00,552.11 284.94,550.47 287.88,548.58 290.83,546.47 293.78,544.26 296.73,541.85 299.67,538.91 302.62,535.67 305.57,532.36 308.50,529.08 311.45,525.70 314.40,522.13 317.34,518.28 320.29,514.94 323.24,511.45 326.18,507.82 329.12,504.04 332.07,500.98 335.01,497.71 337.96,494.33 340.91,491.39 343.85,488.94 346.80,486.88 349.74,484.83 352.68,482.50 355.63,480.33 358.58,478.60 361.53,476.94 364.47,475.33 367.42,473.78 370.36,472.39 373.30,471.13 376.25,469.98 379.20,468.92 382.14,467.74 385.09,466.54 388.04,465.18 390.97,463.95 393.92,462.60 396.87,461.07 399.81,459.64 402.76,458.23 405.71,456.81 408.65,455.08 411.59,453.38 414.54,451.69 417.48,450.01 420.43,448.12 423.38,446.37 426.32,444.63 429.27,442.69 432.21,440.75 435.16,438.77 438.10,436.71 441.05,434.93 444.00,433.20 446.94,431.72 449.89,430.15 452.84,428.48 455.77,426.70 458.72,425.91 461.67,425.02 464.61,424.03 467.56,422.94 470.51,422.51 473.45,422.30 476.39,422.39 479.34,422.38 482.28,422.83 485.23,423.94 488.18,424.89 491.12,425.77 494.07,426.98 497.01,429.30 499.96,431.58 502.90,433.81 505.85,436.00 508.80,439.16 511.74,442.52 514.69,445.85 517.63,449.20 520.57,452.94 523.52,456.95 526.47,460.93 529.41,464.89 532.36,468.84 535.31,472.75 538.24,476.65 541.19,480.52 544.14,484.36 547.08,487.61 550.03,490.92 552.98,494.26 555.92,497.63 558.86,500.11 561.81,502.37 564.76,505.11 567.70,508.02 570.65,510.47 573.60,512.35 576.54,514.45 579.49,516.78 582.43,519.76 585.37,521.73 588.32,524.14 591.27,526.96 594.21,530.18 597.16,532.11 600.11,535.32 603.04,539.26 605.99,543.46 608.94,546.77 611.88,549.47 614.83,552.57 617.78,557.47 620.72,562.25 623.66,565.26 626.61,568.76 629.55,572.64 632.50,576.83 635.45,577.21 638.40,577.98 641.34,579.03 644.28,580.25 647.23,578.61 650.17,575.42 653.12,571.71 656.07,568.01 659.01,563.11 661.96,556.32 664.90,548.56 667.84,540.27 670.79,531.02 673.74,521.54 676.68,511.73 679.63,501.58 682.58,491.10 685.51,481.83 688.46,472.12 691.41,462.34 694.35,452.31 697.30,443.62 700.25,435.87 703.20,428.05 706.14,420.29 709.08,413.25 712.03,407.66 714.97,402.16 717.92,396.79 720.87,391.59 723.81,387.79 726.76,384.30 729.70,381.12 732.64,378.28 735.59,375.74 738.54,373.43 741.48,372.09 744.43,371.20 747.38,370.63 750.31,370.25 753.26,370.45 756.21,371.11 759.15,372.55 762.10,374.36 765.05,376.70 767.99,379.55 770.93,382.91 773.88,386.91 776.83,390.56 779.77,394.61 782.72,399.37 785.67,404.86 788.61,410.92 791.55,417.32 794.50,422.05 797.44,427.18 800.39,432.83 803.34,438.52 806.28,444.28 809.23,450.15 812.17,454.87 815.11,459.48 818.06,464.03 821.01,468.55 823.95,473.05 826.90,477.38 829.85,480.56 832.79,483.68 835.73,486.58 838.68,489.09 841.63,491.53 844.57,493.86 847.52,495.36 850.47,496.18 853.41,496.93 856.35,497.62 859.30,498.28 862.24,498.29 865.19,497.31 868.14,496.32 871.08,495.17 874.03,493.73 876.97,492.04 879.91,490.37 882.86,487.86 885.81,485.33 888.75,482.56 891.70,479.89 894.65,477.33 897.58,474.89 900.53,470.83 903.48,466.92 906.43,463.17 909.37,459.58 912.32,455.81 915.27,452.03 918.20,447.30 921.15,442.70 924.10,438.11 927.04,433.44 929.99,428.55 932.94,423.82 935.88,417.91 938.82,412.07 941.77,406.36 944.71,400.76 947.66,395.25 950.61,389.94 953.55,383.00 956.50,375.99 959.44,368.72 962.38,361.77 965.33,355.01 968.28,348.22 971.22,339.36 974.17,330.60 977.12,322.30 980.06,313.79 983.00,304.99 985.95,295.84 988.90,286.20 991.84,276.53 994.79,266.74 997.74,256.73 1000.68,249.25 1003.62,243.14 1006.57,238.44 1009.51,234.69 1012.46,233.73 1015.41,236.37 1018.35,240.30 1021.30,246.90 1024.24,259.40 1027.18,269.93 1030.13,280.75 1033.08,291.61 1036.02,302.29 1038.97,306.16 1041.92,334.55 1044.86,357.40 1047.80,375.66 1050.75,414.61 1053.70,463.67 1056.64,502.84 1059.59,538.68 1062.54,569.81 1065.47,600.02 1068.42,625.34 1071.37,645.83 1074.31,661.55" fill="none" stroke="#000000" stroke-width="3"/>
<line x1="142" y1="100" x2="178" y2="100" stroke="#000000" stroke-width="4"/>
<text x="188" y="105" font-family="Arial" font-size="18" fill="black">vorticity:2</text>
</svg>