<svg xmlns="http://www.w3.org/2000/svg" width="1200" height="820" viewBox="0 0 1200 820">
<rect width="100%" height="100%" fill="white"/>
<text x="600.0" y="36" text-anchor="middle" font-family="Arial" font-size="24" fill="black">profile_near_floor_x: U:1</text>
<line x1="120.00" y1="75" x2="120.00" y2="705" stroke="#dddddd" stroke-width="1"/>
<text x="120.00" y="737" text-anchor="middle" font-family="Arial" font-size="16" fill="black">-0.560</text>
<line x1="376.25" y1="75" x2="376.25" y2="705" stroke="#dddddd" stroke-width="1"/>
<text x="376.25" y="737" text-anchor="middle" font-family="Arial" font-size="16" fill="black">1.470</text>
<line x1="632.50" y1="75" x2="632.50" y2="705" stroke="#dddddd" stroke-width="1"/>
<text x="632.50" y="737" text-anchor="middle" font-family="Arial" font-size="16" fill="black">3.500</text>
<line x1="888.75" y1="75" x2="888.75" y2="705" stroke="#dddddd" stroke-width="1"/>
<text x="888.75" y="737" text-anchor="middle" font-family="Arial" font-size="16" fill="black">5.530</text>
<line x1="1145.00" y1="75" x2="1145.00" y2="705" stroke="#dddddd" stroke-width="1"/>
<text x="1145.00" y="737" text-anchor="middle" font-family="Arial" font-size="16" fill="black">7.560</text>
<line x1="120" y1="705.00" x2="1145" y2="705.00" stroke="#dddddd" stroke-width="1"/>
<text x="104" y="710.00" text-anchor="end" font-family="Arial" font-size="16" fill="black">-0.290</text>
<line x1="120" y1="547.50" x2="1145" y2="547.50" stroke="#dddddd" stroke-width="1"/>
<text x="104" y="552.50" text-anchor="end" font-family="Arial" font-size="16" fill="black">-0.098</text>
<line x1="120" y1="390.00" x2="1145" y2="390.00" stroke="#dddddd" stroke-width="1"/>
<text x="104" y="395.00" text-anchor="end" font-family="Arial" font-size="16" fill="black">0.095</text>
<line x1="120" y1="232.50" x2="1145" y2="232.50" stroke="#dddddd" stroke-width="1"/>
<text x="104" y="237.50" text-anchor="end" font-family="Arial" font-size="16" fill="black">0.287</text>
<line x1="120" y1="75.00" x2="1145" y2="75.00" stroke="#dddddd" stroke-width="1"/>
<text x="104" y="80.00" text-anchor="end" font-family="Arial" font-size="16" fill="black">0.479</text>
<rect x="120" y="75" width="1025" height="630" fill="none" stroke="black" stroke-width="2"/>
<text x="632.5" y="785" text-anchor="middle" font-family="Arial" font-size="20" fill="black">x coordinate [m]</text>
<text x="34" y="390.0" transform="rotate(-90 34 390.0)" text-anchor="middle" font-family="Arial" font-size="20" fill="black">U:1 [SI]</text>
<polyline points="190.69,661.37 193.64,661.42 196.58,661.46 199.53,661.50 202.47,661.55 205.42,660.68 208.36,659.46 211.31,658.23 214.25,657.00 217.20,655.14 220.14,652.44 223.09,649.74 226.03,647.03 228.98,644.31 231.93,641.50 234.87,638.69 237.82,635.88 240.76,633.07 243.71,630.26 246.65,627.45 249.60,624.65 252.54,621.84 255.49,618.59 258.43,615.04 261.38,611.48 264.32,607.92 267.27,603.68 270.22,597.76 273.16,591.84 276.11,585.92 279.05,580.00 282.00,569.66 284.94,559.32 287.89,548.97 290.83,538.62 293.78,526.48 296.72,513.62 299.67,500.76 302.62,487.90 305.56,478.85 308.51,474.90 311.45,470.94 314.40,466.99 317.34,464.18 320.29,468.23 323.23,472.28 326.17,476.33 329.13,480.38 332.07,483.09 335.01,485.58 337.96,488.07 340.91,490.56 343.85,492.34 346.80,493.59 349.74,494.84 352.68,496.09 355.64,497.14 358.58,497.69 361.52,498.25 364.47,498.81 367.41,499.36 370.35,499.21 373.31,499.05 376.25,498.89 379.19,498.74 382.15,498.00 385.09,497.02 388.03,496.05 390.98,495.08 393.92,493.49 396.86,491.09 399.82,488.69 402.76,486.29 405.70,484.76 408.65,488.47 411.59,492.17 414.54,495.88 417.49,499.58 420.43,507.22 423.37,515.52 426.33,523.82 429.27,532.11 432.21,536.05 435.16,536.72 438.10,537.39 441.04,538.06 444.00,537.05 446.94,531.85 449.88,526.65 452.83,521.45 455.78,516.24 458.72,511.63 461.67,507.02 464.61,502.41 467.55,497.80 470.51,494.89 473.45,492.65 476.39,490.42 479.34,488.18 482.28,486.56 485.23,485.75 488.18,484.95 491.12,484.14 494.06,483.43 497.02,483.25 499.96,483.07 502.90,482.89 505.85,482.71 508.79,483.27 511.73,483.96 514.69,484.64 517.63,485.33 520.57,486.83 523.52,488.94 526.47,491.05 529.41,493.16 532.36,495.53 535.30,498.54 538.24,501.55 541.20,504.57 544.14,507.58 547.08,508.98 550.03,510.39 552.97,511.79 555.92,513.20 558.87,511.72 561.81,509.08 564.75,506.45 567.71,503.82 570.65,500.13 573.59,495.04 576.54,489.95 579.48,484.86 582.42,480.13 585.38,477.60 588.32,475.08 591.26,472.55 594.21,470.02 597.16,469.76 600.10,469.88 603.05,469.99 605.99,470.11 608.93,470.13 611.89,470.08 614.83,470.04 617.77,469.99 620.72,469.86 623.66,469.55 626.60,469.23 629.56,468.92 632.50,468.60 635.44,468.04 638.40,467.48 641.34,466.92 644.28,466.36 647.23,465.64 650.17,464.86 653.11,464.09 656.07,463.31 659.01,462.36 661.95,461.17 664.90,459.99 667.84,458.80 670.79,456.34 673.74,446.29 676.68,436.23 679.62,426.18 682.58,416.13 685.52,405.96 688.46,395.78 691.41,385.60 694.35,375.42 697.29,370.98 700.25,370.85 703.19,370.72 706.13,370.58 709.08,370.89 712.03,372.30 714.97,373.71 717.92,375.12 720.86,376.53 723.80,377.75 726.76,378.96 729.70,380.17 732.64,381.38 735.59,382.40 738.53,383.32 741.48,384.25 744.43,385.17 747.37,385.80 750.31,386.03 753.27,386.26 756.21,386.49 759.15,386.57 762.10,385.78 765.04,384.99 767.98,384.20 770.94,383.41 773.88,382.24 776.82,381.01 779.77,379.79 782.72,378.56 785.66,377.61 788.61,376.86 791.55,376.12 794.49,375.38 797.45,374.91 800.39,375.15 803.33,375.38 806.28,375.62 809.22,375.85 812.17,378.22 815.12,380.59 818.06,382.95 821.00,385.32 823.96,391.56 826.90,399.35 829.84,407.13 832.79,414.92 835.73,423.10 838.67,431.80 841.63,440.49 844.57,449.19 847.51,456.68 850.46,456.92 853.41,457.16 856.35,457.40 859.30,457.64 862.24,454.43 865.18,450.64 868.14,446.86 871.08,443.07 874.02,440.35 876.97,438.44 879.91,436.53 882.85,434.61 885.81,432.88 888.75,431.58 891.69,430.28 894.65,428.98 897.59,427.69 900.53,426.67 903.48,425.65 906.42,424.62 909.36,423.60 912.32,422.49 915.26,421.35 918.20,420.21 921.15,419.06 924.09,417.72 927.04,416.12 929.99,414.53 932.93,412.93 935.87,409.18 938.83,392.55 941.77,375.92 944.71,359.29 947.66,342.67 950.60,318.94 953.54,294.05 956.50,269.16 959.44,244.26 962.38,227.38 965.33,216.51 968.28,205.66 971.22,194.79 974.17,186.35 977.11,183.95 980.05,181.55 983.01,179.15 985.95,176.75 988.89,174.65 991.84,172.54 994.78,170.44 997.73,168.33 1000.68,165.62 1003.62,162.67 1006.56,159.71 1009.52,156.75 1012.46,153.72 1015.40,150.60 1018.35,147.48 1021.29,144.36 1024.23,141.30 1027.19,138.57 1030.13,135.83 1033.07,133.10 1036.02,130.37 1038.97,128.06 1041.91,125.82 1044.86,123.58 1047.80,121.35 1050.74,120.10 1053.70,119.62 1056.64,119.13 1059.58,118.64 1062.53,118.45 1065.47,118.97 1068.42,119.50 1071.37,120.03 1074.31,120.55" fill="none" stroke="#000000" stroke-width="3"/>
<line x1="142" y1="100" x2="178" y2="100" stroke="#000000" stroke-width="4"/>
<text x="188" y="105" font-family="Arial" font-size="18" fill="black">U:1</text>
</svg>