<svg xmlns="http://www.w3.org/2000/svg" width="1200" height="820" viewBox="0 0 1200 820">
<rect width="100%" height="100%" fill="white"/>
<text x="600.0" y="36" text-anchor="middle" font-family="Arial" font-size="24" fill="black">profile_center_x: p_rgh</text>
<line x1="120.00" y1="75" x2="120.00" y2="705" stroke="#dddddd" stroke-width="1"/>
<text x="120.00" y="737" text-anchor="middle" font-family="Arial" font-size="16" fill="black">-0.560</text>
<line x1="376.25" y1="75" x2="376.25" y2="705" stroke="#dddddd" stroke-width="1"/>
<text x="376.25" y="737" text-anchor="middle" font-family="Arial" font-size="16" fill="black">1.470</text>
<line x1="632.50" y1="75" x2="632.50" y2="705" stroke="#dddddd" stroke-width="1"/>
<text x="632.50" y="737" text-anchor="middle" font-family="Arial" font-size="16" fill="black">3.500</text>
<line x1="888.75" y1="75" x2="888.75" y2="705" stroke="#dddddd" stroke-width="1"/>
<text x="888.75" y="737" text-anchor="middle" font-family="Arial" font-size="16" fill="black">5.530</text>
<line x1="1145.00" y1="75" x2="1145.00" y2="705" stroke="#dddddd" stroke-width="1"/>
<text x="1145.00" y="737" text-anchor="middle" font-family="Arial" font-size="16" fill="black">7.560</text>
<line x1="120" y1="705.00" x2="1145" y2="705.00" stroke="#dddddd" stroke-width="1"/>
<text x="104" y="710.00" text-anchor="end" font-family="Arial" font-size="16" fill="black">0.155</text>
<line x1="120" y1="547.50" x2="1145" y2="547.50" stroke="#dddddd" stroke-width="1"/>
<text x="104" y="552.50" text-anchor="end" font-family="Arial" font-size="16" fill="black">0.214</text>
<line x1="120" y1="390.00" x2="1145" y2="390.00" stroke="#dddddd" stroke-width="1"/>
<text x="104" y="395.00" text-anchor="end" font-family="Arial" font-size="16" fill="black">0.273</text>
<line x1="120" y1="232.50" x2="1145" y2="232.50" stroke="#dddddd" stroke-width="1"/>
<text x="104" y="237.50" text-anchor="end" font-family="Arial" font-size="16" fill="black">0.331</text>
<line x1="120" y1="75.00" x2="1145" y2="75.00" stroke="#dddddd" stroke-width="1"/>
<text x="104" y="80.00" text-anchor="end" font-family="Arial" font-size="16" fill="black">0.390</text>
<rect x="120" y="75" width="1025" height="630" fill="none" stroke="black" stroke-width="2"/>
<text x="632.5" y="785" text-anchor="middle" font-family="Arial" font-size="20" fill="black">x coordinate [m]</text>
<text x="34" y="390.0" transform="rotate(-90 34 390.0)" text-anchor="middle" font-family="Arial" font-size="20" fill="black">p_rgh [Pa]</text>
<polyline points="190.69,464.07 193.64,469.19 196.58,474.32 199.53,479.42 202.47,484.54 205.42,493.64 208.36,504.29 211.31,514.97 214.25,525.63 217.20,536.34 220.14,547.04 223.09,557.78 226.03,568.51 228.98,579.03 231.93,588.34 234.87,597.66 237.82,606.97 240.76,616.31 243.71,623.42 246.65,630.21 249.60,636.97 252.54,643.73 255.49,648.62 258.43,652.11 261.38,655.59 264.32,659.06 267.27,661.55 270.22,661.52 273.16,661.47 276.11,661.44 279.05,661.42 282.00,658.36 284.94,655.27 287.89,652.21 290.83,649.15 293.78,644.73 296.72,639.79 299.67,634.82 302.62,629.86 305.56,624.65 308.51,619.12 311.45,613.60 314.40,608.07 317.34,602.59 320.29,597.58 323.23,592.53 326.17,587.51 329.13,582.47 332.07,578.44 335.01,574.58 337.96,570.71 340.91,566.85 343.85,563.74 346.80,561.21 349.74,558.69 352.68,556.14 355.64,553.81 358.58,551.87 361.52,549.94 364.47,548.01 367.41,546.08 370.35,543.53 373.31,540.95 376.25,538.40 379.19,535.85 382.15,532.26 385.09,528.26 388.03,524.26 390.98,520.26 393.92,515.51 396.86,509.74 399.82,504.00 402.76,498.26 405.70,492.24 408.65,484.68 411.59,477.14 414.54,469.57 417.49,462.03 420.43,453.12 423.37,443.99 426.33,434.84 429.27,425.72 432.21,415.98 435.16,405.78 438.10,395.58 441.04,385.41 444.00,375.11 446.94,364.51 449.88,353.93 452.83,343.33 455.78,332.76 458.72,322.56 461.67,312.36 464.61,302.17 467.55,291.97 470.51,282.66 473.45,273.67 476.39,264.68 479.34,255.69 482.28,247.45 485.23,240.20 488.18,232.96 491.12,225.71 494.06,218.73 497.02,213.37 499.96,208.00 502.90,202.63 505.85,197.24 508.79,193.35 511.73,189.72 514.69,186.07 517.63,182.42 520.57,179.61 523.52,177.38 526.47,175.15 529.41,172.95 532.36,171.02 535.30,169.81 538.24,168.60 541.20,167.42 544.14,166.22 547.08,165.65 550.03,165.06 552.97,164.50 555.92,163.91 558.87,163.53 561.81,163.24 564.75,162.94 567.71,162.65 570.65,162.35 573.59,162.00 576.54,161.65 579.48,161.31 582.42,160.88 585.38,160.07 588.32,159.27 591.26,158.46 594.21,157.66 597.16,156.21 600.10,154.68 603.05,153.12 605.99,151.56 608.93,149.69 611.89,147.54 614.83,145.39 617.77,143.22 620.72,141.04 623.66,138.82 626.60,136.59 629.56,134.36 632.50,132.11 635.44,130.31 638.40,128.48 641.34,126.69 644.28,124.86 647.23,123.52 650.17,122.37 653.11,121.21 656.07,120.06 659.01,119.28 661.95,119.01 664.90,118.77 667.84,118.50 670.79,118.45 673.74,119.49 676.68,120.54 679.62,121.61 682.58,122.66 685.52,125.05 688.46,127.65 691.41,130.26 694.35,132.86 697.29,136.21 700.25,140.16 703.19,144.10 706.13,148.05 709.08,152.18 712.03,156.85 714.97,161.55 717.92,166.22 720.86,170.89 723.80,175.66 726.76,180.44 729.70,185.22 732.64,189.99 735.59,194.53 738.53,198.96 741.48,203.41 744.43,207.87 747.37,212.11 750.31,216.05 753.27,220.00 756.21,223.94 759.15,227.83 762.10,231.29 765.04,234.78 767.98,238.24 770.94,241.71 773.88,244.87 776.82,247.98 779.77,251.10 782.72,254.21 785.66,257.19 788.61,260.11 791.55,263.01 794.49,265.91 797.45,268.76 800.39,271.52 803.33,274.31 806.28,277.07 809.22,279.84 812.17,282.28 815.12,284.75 818.06,287.22 821.00,289.69 823.96,291.57 826.90,293.23 829.84,294.89 832.79,296.56 835.73,297.52 838.67,297.63 841.63,297.74 844.57,297.85 847.51,297.68 850.46,295.75 853.41,293.85 856.35,291.94 859.30,290.04 862.24,286.71 865.18,283.17 868.14,279.60 871.08,276.06 874.02,272.16 876.97,268.03 879.91,263.93 882.85,259.79 885.81,255.77 888.75,252.04 891.69,248.28 894.65,244.52 897.59,240.77 900.53,237.76 903.48,234.75 906.42,231.75 909.36,228.74 912.32,226.30 915.26,224.07 918.20,221.85 921.15,219.65 924.09,217.77 927.04,216.35 929.99,214.92 932.93,213.50 935.87,212.21 938.83,211.81 941.77,211.41 944.71,211.01 947.66,210.60 950.60,211.49 953.54,212.62 956.50,213.72 959.44,214.84 962.38,216.99 965.33,219.91 968.28,222.84 971.22,225.76 974.17,229.07 977.11,233.36 980.05,237.63 983.01,241.92 985.95,246.19 988.89,250.86 991.84,255.53 994.78,260.22 997.73,264.89 1000.68,269.13 1003.62,273.18 1006.56,277.26 1009.52,281.34 1012.46,284.91 1015.40,287.81 1018.35,290.73 1021.29,293.63 1024.23,296.40 1027.19,298.25 1030.13,300.10 1033.07,301.95 1036.02,303.80 1038.97,305.60 1041.91,307.43 1044.86,309.22 1047.80,311.05 1050.74,313.87 1053.70,317.44 1056.64,321.03 1059.58,324.60 1062.53,327.88 1065.47,330.34 1068.42,332.81 1071.37,335.31 1074.31,337.78" fill="none" stroke="#000000" stroke-width="3"/>
<line x1="142" y1="100" x2="178" y2="100" stroke="#000000" stroke-width="4"/>
<text x="188" y="105" font-family="Arial" font-size="18" fill="black">p_rgh</text>
</svg>