<svg xmlns="http://www.w3.org/2000/svg" width="1200" height="820" viewBox="0 0 1200 820">
<rect width="100%" height="100%" fill="white"/>
<text x="600.0" y="36" text-anchor="middle" font-family="Arial" font-size="24" fill="black">profile_center_y: U:1</text>
<line x1="120.00" y1="75" x2="120.00" y2="705" stroke="#dddddd" stroke-width="1"/>
<text x="120.00" y="737" text-anchor="middle" font-family="Arial" font-size="16" fill="black">-0.400</text>
<line x1="376.25" y1="75" x2="376.25" y2="705" stroke="#dddddd" stroke-width="1"/>
<text x="376.25" y="737" text-anchor="middle" font-family="Arial" font-size="16" fill="black">1.050</text>
<line x1="632.50" y1="75" x2="632.50" y2="705" stroke="#dddddd" stroke-width="1"/>
<text x="632.50" y="737" text-anchor="middle" font-family="Arial" font-size="16" fill="black">2.500</text>
<line x1="888.75" y1="75" x2="888.75" y2="705" stroke="#dddddd" stroke-width="1"/>
<text x="888.75" y="737" text-anchor="middle" font-family="Arial" font-size="16" fill="black">3.950</text>
<line x1="1145.00" y1="75" x2="1145.00" y2="705" stroke="#dddddd" stroke-width="1"/>
<text x="1145.00" y="737" text-anchor="middle" font-family="Arial" font-size="16" fill="black">5.400</text>
<line x1="120" y1="705.00" x2="1145" y2="705.00" stroke="#dddddd" stroke-width="1"/>
<text x="104" y="710.00" text-anchor="end" font-family="Arial" font-size="16" fill="black">-0.087</text>
<line x1="120" y1="547.50" x2="1145" y2="547.50" stroke="#dddddd" stroke-width="1"/>
<text x="104" y="552.50" text-anchor="end" font-family="Arial" font-size="16" fill="black">-0.037</text>
<line x1="120" y1="390.00" x2="1145" y2="390.00" stroke="#dddddd" stroke-width="1"/>
<text x="104" y="395.00" text-anchor="end" font-family="Arial" font-size="16" fill="black">0.013</text>
<line x1="120" y1="232.50" x2="1145" y2="232.50" stroke="#dddddd" stroke-width="1"/>
<text x="104" y="237.50" text-anchor="end" font-family="Arial" font-size="16" fill="black">0.063</text>
<line x1="120" y1="75.00" x2="1145" y2="75.00" stroke="#dddddd" stroke-width="1"/>
<text x="104" y="80.00" text-anchor="end" font-family="Arial" font-size="16" fill="black">0.113</text>
<rect x="120" y="75" width="1025" height="630" fill="none" stroke="black" stroke-width="2"/>
<text x="632.5" y="785" text-anchor="middle" font-family="Arial" font-size="20" fill="black">y coordinate [m]</text>
<text x="34" y="390.0" transform="rotate(-90 34 390.0)" text-anchor="middle" font-family="Arial" font-size="20" fill="black">U:1 [SI]</text>
<polyline points="190.69,424.06 193.64,414.94 196.58,405.83 199.53,396.71 202.47,387.59 205.42,378.48 208.36,369.36 211.31,352.71 214.25,336.05 217.20,319.40 220.14,302.75 223.09,286.10 226.03,269.45 228.98,258.78 231.92,248.10 234.87,237.43 237.82,226.76 240.76,216.09 243.71,205.42 246.65,201.14 249.60,196.86 252.54,192.58 255.49,188.30 258.43,184.03 261.38,179.75 264.33,177.73 267.27,175.71 270.22,173.69 273.16,171.67 276.11,169.66 279.05,167.64 282.00,165.74 284.94,163.84 287.89,161.94 290.83,160.05 293.78,158.15 296.72,156.25 299.67,154.16 302.61,152.06 305.56,149.96 308.51,147.86 311.45,145.77 314.40,143.67 317.34,141.62 320.29,139.58 323.23,137.54 326.18,135.49 329.12,133.45 332.07,131.41 335.01,129.80 337.96,128.20 340.91,126.59 343.85,124.99 346.80,123.38 349.74,121.78 352.69,121.22 355.63,120.67 358.58,120.11 361.52,119.56 364.47,119.00 367.41,118.45 370.37,119.88 373.30,121.30 376.25,122.73 379.20,124.15 382.13,125.58 385.09,127.00 388.04,131.04 390.97,135.08 393.92,139.12 396.87,143.16 399.81,147.19 402.76,151.23 405.71,157.87 408.64,164.51 411.59,171.16 414.55,177.80 417.48,184.44 420.43,191.08 423.38,200.16 426.32,209.24 429.27,218.32 432.22,227.41 435.15,236.49 438.10,245.57 441.05,256.76 443.99,267.95 446.94,279.15 449.89,290.34 452.82,301.53 455.78,312.72 458.73,325.21 461.66,337.70 464.61,350.19 467.56,362.68 470.50,375.17 473.45,387.66 476.40,400.09 479.33,412.52 482.28,424.94 485.24,437.37 488.17,449.79 491.12,462.22 494.07,473.17 497.01,484.12 499.96,495.07 502.91,506.02 505.84,516.97 508.79,527.92 511.74,536.66 514.68,545.40 517.63,554.14 520.58,562.88 523.51,571.62 526.47,580.36 529.42,586.85 532.35,593.33 535.30,599.82 538.25,606.31 541.19,612.79 544.14,619.28 547.09,623.62 550.02,627.95 552.97,632.29 555.93,636.63 558.86,640.96 561.81,645.30 564.76,647.58 567.70,649.87 570.65,652.15 573.60,654.44 576.53,656.72 579.48,659.01 582.43,659.43 585.37,659.85 588.32,660.28 591.27,660.70 594.20,661.13 597.16,661.55 600.11,660.46 603.04,659.38 605.99,658.29 608.94,657.20 611.88,656.11 614.83,655.03 617.78,652.84 620.71,650.66 623.66,648.48 626.62,646.29 629.55,644.11 632.50,641.93 635.45,638.94 638.38,635.95 641.34,632.96 644.29,629.97 647.22,626.98 650.17,623.99 653.12,620.57 656.06,617.15 659.01,613.72 661.96,610.30 664.89,606.88 667.84,603.46 670.80,600.21 673.73,596.96 676.68,593.71 679.63,590.46 682.57,587.21 685.52,583.96 688.47,581.27 691.40,578.58 694.35,575.89 697.30,573.19 700.24,570.50 703.19,567.81 706.14,565.58 709.07,563.34 712.03,561.11 714.98,558.88 717.91,556.65 720.86,554.41 723.81,552.26 726.75,550.10 729.70,547.94 732.65,545.78 735.58,543.62 738.53,541.46 741.49,538.83 744.42,536.19 747.37,533.55 750.32,530.91 753.26,528.27 756.21,525.63 759.16,521.95 762.09,518.27 765.04,514.59 767.99,510.91 770.93,507.23 773.88,503.55 776.83,498.44 779.76,493.33 782.72,488.22 785.67,483.11 788.60,478.00 791.55,472.89 794.50,466.32 797.44,459.75 800.39,453.18 803.34,446.60 806.27,440.03 809.22,433.46 812.18,425.75 815.11,418.04 818.06,410.33 821.01,402.62 823.95,394.91 826.90,387.20 829.85,378.90 832.78,370.61 835.73,362.31 838.68,354.02 841.62,345.72 844.57,337.43 847.52,329.20 850.45,320.97 853.41,312.74 856.36,304.51 859.29,296.29 862.24,288.06 865.19,280.60 868.13,273.15 871.08,265.69 874.03,258.24 876.96,250.78 879.91,243.33 882.87,237.40 885.80,231.48 888.75,225.55 891.70,219.63 894.63,213.70 897.59,207.77 900.54,204.05 903.47,200.32 906.42,196.60 909.37,192.87 912.31,189.15 915.26,185.42 918.21,184.42 921.14,183.42 924.09,182.41 927.05,181.41 929.98,180.40 932.93,179.40 935.88,181.50 938.82,183.60 941.77,185.71 944.72,187.81 947.65,189.92 950.60,192.02 953.55,197.25 956.49,202.48 959.44,207.72 962.39,212.95 965.32,218.18 968.28,223.41 971.23,231.21 974.16,239.00 977.11,246.80 980.06,254.59 983.00,262.39 985.95,270.18 988.90,279.50 991.83,288.82 994.78,298.13 997.74,307.45 1000.67,316.77 1003.62,326.09 1006.57,335.41 1009.51,344.74 1012.46,354.06 1015.41,363.39 1018.34,372.71 1021.29,382.04 1024.24,389.88 1027.18,397.73 1030.13,405.57 1033.08,413.42 1036.01,421.26 1038.97,429.11 1041.92,433.27 1044.85,437.42 1047.80,441.58 1050.75,445.74 1053.69,449.90 1056.64,454.06 1059.59,454.81 1062.52,455.56 1065.47,456.32 1068.43,457.07 1071.36,457.82 1074.31,458.57" fill="none" stroke="#000000" stroke-width="3"/>
<line x1="142" y1="100" x2="178" y2="100" stroke="#000000" stroke-width="4"/>
<text x="188" y="105" font-family="Arial" font-size="18" fill="black">U:1</text>
</svg>