<svg xmlns="http://www.w3.org/2000/svg" width="1200" height="820" viewBox="0 0 1200 820">
<rect width="100%" height="100%" fill="white"/>
<text x="600.0" y="36" text-anchor="middle" font-family="Arial" font-size="24" fill="black">profile_near_floor_x: k</text>
<line x1="120.00" y1="75" x2="120.00" y2="705" stroke="#dddddd" stroke-width="1"/>
<text x="120.00" y="737" text-anchor="middle" font-family="Arial" font-size="16" fill="black">-0.560</text>
<line x1="376.25" y1="75" x2="376.25" y2="705" stroke="#dddddd" stroke-width="1"/>
<text x="376.25" y="737" text-anchor="middle" font-family="Arial" font-size="16" fill="black">1.470</text>
<line x1="632.50" y1="75" x2="632.50" y2="705" stroke="#dddddd" stroke-width="1"/>
<text x="632.50" y="737" text-anchor="middle" font-family="Arial" font-size="16" fill="black">3.500</text>
<line x1="888.75" y1="75" x2="888.75" y2="705" stroke="#dddddd" stroke-width="1"/>
<text x="888.75" y="737" text-anchor="middle" font-family="Arial" font-size="16" fill="black">5.530</text>
<line x1="1145.00" y1="75" x2="1145.00" y2="705" stroke="#dddddd" stroke-width="1"/>
<text x="1145.00" y="737" text-anchor="middle" font-family="Arial" font-size="16" fill="black">7.560</text>
<line x1="120" y1="705.00" x2="1145" y2="705.00" stroke="#dddddd" stroke-width="1"/>
<text x="104" y="710.00" text-anchor="end" font-family="Arial" font-size="16" fill="black">0.003</text>
<line x1="120" y1="547.50" x2="1145" y2="547.50" stroke="#dddddd" stroke-width="1"/>
<text x="104" y="552.50" text-anchor="end" font-family="Arial" font-size="16" fill="black">0.006</text>
<line x1="120" y1="390.00" x2="1145" y2="390.00" stroke="#dddddd" stroke-width="1"/>
<text x="104" y="395.00" text-anchor="end" font-family="Arial" font-size="16" fill="black">0.010</text>
<line x1="120" y1="232.50" x2="1145" y2="232.50" stroke="#dddddd" stroke-width="1"/>
<text x="104" y="237.50" text-anchor="end" font-family="Arial" font-size="16" fill="black">0.013</text>
<line x1="120" y1="75.00" x2="1145" y2="75.00" stroke="#dddddd" stroke-width="1"/>
<text x="104" y="80.00" text-anchor="end" font-family="Arial" font-size="16" fill="black">0.017</text>
<rect x="120" y="75" width="1025" height="630" fill="none" stroke="black" stroke-width="2"/>
<text x="632.5" y="785" text-anchor="middle" font-family="Arial" font-size="20" fill="black">x coordinate [m]</text>
<text x="34" y="390.0" transform="rotate(-90 34 390.0)" text-anchor="middle" font-family="Arial" font-size="20" fill="black">k [m2/s2]</text>
<polyline points="190.69,658.16 193.64,649.49 196.58,640.82 199.53,632.15 202.47,623.48 205.42,612.27 208.36,600.04 211.31,587.81 214.25,575.58 217.20,566.64 220.14,562.09 223.09,557.54 226.03,552.98 228.98,548.96 231.93,548.12 234.87,547.28 237.82,546.44 240.76,545.60 243.71,546.32 246.65,547.29 249.60,548.26 252.54,549.24 255.49,550.75 258.43,552.65 261.38,554.56 264.32,556.46 267.27,558.25 270.22,559.74 273.16,561.24 276.11,562.73 279.05,564.22 282.00,563.80 284.94,563.37 287.89,562.94 290.83,562.52 293.78,558.19 296.72,552.32 299.67,546.43 302.62,540.55 305.56,532.05 308.51,520.06 311.45,508.07 314.40,496.07 317.34,484.87 320.29,478.40 323.23,471.93 326.17,465.46 329.13,458.99 332.07,458.73 335.01,459.50 337.96,460.28 340.91,461.05 343.85,461.63 346.80,462.07 349.74,462.51 352.68,462.95 355.64,463.33 358.58,463.55 361.52,463.77 364.47,463.98 367.41,464.20 370.35,464.36 373.31,464.52 376.25,464.68 379.19,464.84 382.15,464.96 385.09,465.07 388.03,465.18 390.98,465.29 393.92,465.29 396.86,465.15 399.82,465.00 402.76,464.86 405.70,463.32 408.65,453.36 411.59,443.39 414.54,433.43 417.49,423.47 420.43,417.14 423.37,411.40 426.33,405.68 429.27,399.95 432.21,397.81 435.16,398.36 438.10,398.90 441.04,399.45 444.00,398.99 446.94,396.01 449.88,393.03 452.83,390.05 455.78,387.07 458.72,389.44 461.67,391.80 464.61,394.16 467.55,396.53 470.51,398.69 473.45,400.78 476.39,402.87 479.34,404.96 482.28,406.38 485.23,406.92 488.18,407.45 491.12,407.99 494.06,408.87 497.02,411.81 499.96,414.76 502.90,417.70 505.85,420.64 508.79,428.54 511.73,437.25 514.69,445.97 517.63,454.69 520.57,466.84 523.52,481.56 526.47,496.29 529.41,511.02 532.36,526.04 535.30,541.79 538.24,557.54 541.20,573.30 544.14,589.05 547.08,596.28 550.03,603.50 552.97,610.73 555.92,617.95 558.87,615.05 561.81,608.11 564.75,601.16 567.71,594.21 570.65,582.51 573.59,564.46 576.54,546.42 579.48,528.38 582.42,511.28 585.38,499.81 588.32,488.35 591.26,476.89 594.21,465.42 597.16,463.39 600.10,462.92 603.05,462.46 605.99,461.99 608.93,461.82 611.89,461.88 614.83,461.93 617.77,461.97 620.72,462.01 623.66,461.99 626.60,461.97 629.56,461.95 632.50,461.93 635.44,461.91 638.40,461.88 641.34,461.85 644.28,461.83 647.23,461.79 650.17,461.75 653.11,461.71 656.07,461.67 659.01,461.64 661.95,461.62 664.90,461.59 667.84,461.57 670.79,460.23 673.74,451.01 676.68,441.80 679.62,432.59 682.58,423.37 685.52,412.59 688.46,401.54 691.41,390.49 694.35,379.45 697.29,368.34 700.25,357.18 703.19,346.07 706.13,334.91 709.08,319.99 712.03,295.62 714.97,271.20 717.92,246.82 720.86,222.45 723.80,199.95 726.76,177.42 729.70,154.92 732.64,132.38 735.59,124.50 738.53,122.48 741.48,120.46 744.43,118.45 747.37,124.05 750.31,139.91 753.27,155.73 756.21,171.55 759.15,187.77 762.10,206.27 765.04,224.78 767.98,243.28 770.94,261.79 773.88,276.53 776.82,290.69 779.77,304.80 782.72,318.96 785.66,332.14 788.61,344.64 791.55,357.14 794.49,369.59 797.45,382.14 800.39,394.76 803.33,407.39 806.28,420.01 809.22,432.63 812.17,440.90 815.12,449.15 818.06,457.42 821.00,465.68 823.96,468.76 826.90,469.77 829.84,470.78 832.79,471.79 835.73,471.88 838.67,470.74 841.63,469.60 844.57,468.46 847.51,467.44 850.46,467.11 853.41,466.79 856.35,466.46 859.30,466.14 862.24,465.90 865.18,465.67 868.14,465.44 871.08,465.21 874.02,465.13 876.97,465.17 879.91,465.22 882.85,465.26 885.81,465.29 888.75,465.28 891.69,465.27 894.65,465.26 897.59,465.25 900.53,465.12 903.48,464.99 906.42,464.86 909.36,464.73 912.32,464.31 915.26,463.78 918.20,463.24 921.15,462.71 924.09,461.60 927.04,459.73 929.99,457.86 932.93,455.99 935.87,453.65 938.83,448.45 941.77,443.26 944.71,438.07 947.66,432.87 950.60,431.41 953.54,430.57 956.50,429.74 959.44,428.90 962.38,430.97 965.33,435.23 968.28,439.50 971.22,443.76 974.17,448.46 977.11,454.26 980.05,460.05 983.01,465.85 985.95,471.64 988.89,481.61 991.84,491.58 994.78,501.55 997.73,511.53 1000.68,521.00 1003.62,530.29 1006.56,539.57 1009.52,548.85 1012.46,556.79 1015.40,562.93 1018.35,569.07 1021.29,575.21 1024.23,581.18 1027.19,586.20 1030.13,591.22 1033.07,596.24 1036.02,601.25 1038.97,607.43 1041.91,613.81 1044.86,620.19 1047.80,626.57 1050.74,632.52 1053.70,638.16 1056.64,643.79 1059.58,649.43 1062.53,654.00 1065.47,655.89 1068.42,657.77 1071.37,659.67 1074.31,661.55" fill="none" stroke="#000000" stroke-width="3"/>
<line x1="142" y1="100" x2="178" y2="100" stroke="#000000" stroke-width="4"/>
<text x="188" y="105" font-family="Arial" font-size="18" fill="black">k</text>
</svg>