<svg xmlns="http://www.w3.org/2000/svg" width="1200" height="820" viewBox="0 0 1200 820">
<rect width="100%" height="100%" fill="white"/>
<text x="600.0" y="36" text-anchor="middle" font-family="Arial" font-size="24" fill="black">profile_center_z: T</text>
<line x1="120.00" y1="75" x2="120.00" y2="705" stroke="#dddddd" stroke-width="1"/>
<text x="120.00" y="737" text-anchor="middle" font-family="Arial" font-size="16" fill="black">-0.240</text>
<line x1="376.25" y1="75" x2="376.25" y2="705" stroke="#dddddd" stroke-width="1"/>
<text x="376.25" y="737" text-anchor="middle" font-family="Arial" font-size="16" fill="black">0.630</text>
<line x1="632.50" y1="75" x2="632.50" y2="705" stroke="#dddddd" stroke-width="1"/>
<text x="632.50" y="737" text-anchor="middle" font-family="Arial" font-size="16" fill="black">1.500</text>
<line x1="888.75" y1="75" x2="888.75" y2="705" stroke="#dddddd" stroke-width="1"/>
<text x="888.75" y="737" text-anchor="middle" font-family="Arial" font-size="16" fill="black">2.370</text>
<line x1="1145.00" y1="75" x2="1145.00" y2="705" stroke="#dddddd" stroke-width="1"/>
<text x="1145.00" y="737" text-anchor="middle" font-family="Arial" font-size="16" fill="black">3.240</text>
<line x1="120" y1="705.00" x2="1145" y2="705.00" stroke="#dddddd" stroke-width="1"/>
<text x="104" y="710.00" text-anchor="end" font-family="Arial" font-size="16" fill="black">288.6</text>
<line x1="120" y1="547.50" x2="1145" y2="547.50" stroke="#dddddd" stroke-width="1"/>
<text x="104" y="552.50" text-anchor="end" font-family="Arial" font-size="16" fill="black">297.4</text>
<line x1="120" y1="390.00" x2="1145" y2="390.00" stroke="#dddddd" stroke-width="1"/>
<text x="104" y="395.00" text-anchor="end" font-family="Arial" font-size="16" fill="black">306.3</text>
<line x1="120" y1="232.50" x2="1145" y2="232.50" stroke="#dddddd" stroke-width="1"/>
<text x="104" y="237.50" text-anchor="end" font-family="Arial" font-size="16" fill="black">315.2</text>
<line x1="120" y1="75.00" x2="1145" y2="75.00" stroke="#dddddd" stroke-width="1"/>
<text x="104" y="80.00" text-anchor="end" font-family="Arial" font-size="16" fill="black">324.0</text>
<rect x="120" y="75" width="1025" height="630" fill="none" stroke="black" stroke-width="2"/>
<text x="632.5" y="785" text-anchor="middle" font-family="Arial" font-size="20" fill="black">z coordinate [m]</text>
<text x="34" y="390.0" transform="rotate(-90 34 390.0)" text-anchor="middle" font-family="Arial" font-size="20" fill="black">T [K]</text>
<polyline points="190.69,661.55 193.64,661.55 196.58,661.55 199.53,661.55 202.47,661.55 205.42,661.55 208.36,661.55 211.31,661.55 214.25,661.55 217.20,661.55 220.14,661.55 223.09,661.55 226.03,661.55 228.98,661.55 231.93,661.55 234.87,661.55 237.82,661.55 240.76,661.55 243.71,661.55 246.65,661.55 249.60,661.55 252.54,661.55 255.49,661.55 258.43,661.55 261.38,661.55 264.32,661.55 267.27,661.55 270.22,661.55 273.16,661.55 276.11,661.55 279.05,661.55 282.00,661.55 284.94,661.55 287.89,661.55 290.83,661.55 293.78,661.55 296.72,661.55 299.67,661.55 302.61,661.55 305.56,661.37 308.51,661.37 311.45,661.02 314.40,660.66 317.34,660.31 320.29,659.95 323.23,659.60 326.18,659.24 329.12,658.89 332.07,658.53 335.01,658.18 337.96,657.82 340.91,652.85 343.85,647.89 346.80,642.92 349.74,637.95 352.69,633.15 355.63,628.18 358.58,623.22 361.52,618.25 364.47,613.28 367.41,608.31 370.36,593.04 373.30,577.78 376.25,562.34 379.20,547.07 382.14,531.81 385.09,516.37 388.03,501.11 390.98,485.84 393.92,470.40 396.87,455.14 399.81,441.47 402.76,427.98 405.70,414.49 408.65,400.83 411.59,387.34 414.54,373.67 417.49,360.18 420.43,346.69 423.38,333.03 426.32,319.54 429.27,315.63 432.21,311.91 435.16,308.18 438.10,304.27 441.05,300.55 443.99,296.82 446.94,292.92 449.89,289.19 452.83,285.46 455.78,281.73 458.72,280.31 461.67,278.89 464.61,277.47 467.56,276.23 470.50,274.81 473.45,273.39 476.39,271.97 479.34,270.73 482.28,269.31 485.23,267.89 488.18,267.36 491.12,266.65 494.07,266.12 497.01,265.41 499.96,264.87 502.90,264.16 505.85,263.63 508.79,263.10 511.74,262.39 514.68,261.86 517.63,261.50 520.57,261.15 523.52,260.97 526.47,260.61 529.41,260.26 532.36,260.08 535.30,259.73 538.25,259.55 541.19,259.19 544.14,258.84 547.08,258.84 550.03,258.66 552.97,258.48 555.92,258.48 558.86,258.31 561.81,258.31 564.76,258.13 567.70,257.95 570.65,257.95 573.59,257.77 576.54,257.77 579.48,257.77 582.43,257.95 585.37,257.95 588.32,257.95 591.26,257.95 594.21,257.95 597.16,257.95 600.10,257.95 603.05,257.95 605.99,258.13 608.94,258.13 611.88,258.31 614.83,258.31 617.77,258.48 620.72,258.66 623.66,258.66 626.61,258.84 629.55,258.84 632.50,259.02 635.45,259.02 638.39,259.19 641.34,259.37 644.28,259.37 647.23,259.55 650.17,259.73 653.12,259.73 656.06,259.90 659.01,260.08 661.95,260.08 664.90,260.26 667.84,260.26 670.79,260.44 673.74,260.44 676.68,260.61 679.63,260.61 682.57,260.61 685.52,260.79 688.46,260.79 691.41,260.97 694.35,260.97 697.30,260.79 700.24,260.79 703.19,260.79 706.14,260.79 709.08,260.79 712.03,260.79 714.97,260.79 717.92,260.61 720.86,260.61 723.81,260.44 726.75,260.26 729.70,260.08 732.64,259.90 735.59,259.73 738.53,259.55 741.48,259.37 744.43,259.19 747.37,259.02 750.32,258.84 753.26,258.31 756.21,257.95 759.15,257.60 762.10,257.24 765.04,256.71 767.99,256.35 770.93,256.00 773.88,255.64 776.82,255.11 779.77,254.76 782.72,254.22 785.66,253.51 788.61,252.80 791.55,252.27 794.50,251.56 797.44,251.03 800.39,250.32 803.33,249.79 806.28,249.08 809.22,248.37 812.17,247.66 815.11,246.77 818.06,245.88 821.01,244.99 823.95,244.28 826.90,243.40 829.84,242.51 832.79,241.62 835.73,240.74 838.68,240.03 841.62,238.96 844.57,237.90 847.51,236.83 850.46,235.77 853.41,234.88 856.35,233.81 859.30,232.75 862.24,231.68 865.19,230.62 868.13,229.73 871.08,228.49 874.02,227.42 876.97,226.18 879.91,225.12 882.86,223.87 885.80,222.81 888.75,221.57 891.70,220.50 894.64,219.26 897.59,218.02 900.53,216.77 903.48,215.53 906.42,214.29 909.37,213.05 912.31,211.81 915.26,210.56 918.20,209.32 921.15,208.08 924.09,206.84 927.04,205.59 929.99,204.35 932.93,202.93 935.88,201.69 938.82,200.27 941.77,199.03 944.71,197.61 947.66,196.36 950.60,195.12 953.55,193.70 956.49,192.46 959.44,190.86 962.39,189.44 965.33,187.84 968.28,186.42 971.22,185.01 974.17,183.41 977.11,181.99 980.06,180.39 983.00,178.97 985.95,177.55 988.89,175.60 991.84,173.82 994.78,171.87 997.73,170.10 1000.68,168.14 1003.62,166.19 1006.57,164.42 1009.51,162.46 1012.46,160.69 1015.40,158.74 1018.35,156.25 1021.29,153.59 1024.24,151.11 1027.18,148.62 1030.13,145.96 1033.07,143.47 1036.02,140.99 1038.97,138.33 1041.91,135.84 1044.86,133.18 1047.80,131.76 1050.75,130.34 1053.69,128.74 1056.64,127.32 1059.58,125.90 1062.53,124.31 1065.47,122.89 1068.42,121.47 1071.36,119.87 1074.31,118.45" fill="none" stroke="#000000" stroke-width="3"/>
<line x1="142" y1="100" x2="178" y2="100" stroke="#000000" stroke-width="4"/>
<text x="188" y="105" font-family="Arial" font-size="18" fill="black">T</text>
</svg>