<svg xmlns="http://www.w3.org/2000/svg" width="1200" height="820" viewBox="0 0 1200 820">
<rect width="100%" height="100%" fill="white"/>
<text x="600.0" y="36" text-anchor="middle" font-family="Arial" font-size="24" fill="black">profile_near_ceiling_x: k</text>
<line x1="120.00" y1="75" x2="120.00" y2="705" stroke="#dddddd" stroke-width="1"/>
<text x="120.00" y="737" text-anchor="middle" font-family="Arial" font-size="16" fill="black">-0.560</text>
<line x1="376.25" y1="75" x2="376.25" y2="705" stroke="#dddddd" stroke-width="1"/>
<text x="376.25" y="737" text-anchor="middle" font-family="Arial" font-size="16" fill="black">1.470</text>
<line x1="632.50" y1="75" x2="632.50" y2="705" stroke="#dddddd" stroke-width="1"/>
<text x="632.50" y="737" text-anchor="middle" font-family="Arial" font-size="16" fill="black">3.500</text>
<line x1="888.75" y1="75" x2="888.75" y2="705" stroke="#dddddd" stroke-width="1"/>
<text x="888.75" y="737" text-anchor="middle" font-family="Arial" font-size="16" fill="black">5.530</text>
<line x1="1145.00" y1="75" x2="1145.00" y2="705" stroke="#dddddd" stroke-width="1"/>
<text x="1145.00" y="737" text-anchor="middle" font-family="Arial" font-size="16" fill="black">7.560</text>
<line x1="120" y1="705.00" x2="1145" y2="705.00" stroke="#dddddd" stroke-width="1"/>
<text x="104" y="710.00" text-anchor="end" font-family="Arial" font-size="16" fill="black">0.004</text>
<line x1="120" y1="547.50" x2="1145" y2="547.50" stroke="#dddddd" stroke-width="1"/>
<text x="104" y="552.50" text-anchor="end" font-family="Arial" font-size="16" fill="black">0.008</text>
<line x1="120" y1="390.00" x2="1145" y2="390.00" stroke="#dddddd" stroke-width="1"/>
<text x="104" y="395.00" text-anchor="end" font-family="Arial" font-size="16" fill="black">0.013</text>
<line x1="120" y1="232.50" x2="1145" y2="232.50" stroke="#dddddd" stroke-width="1"/>
<text x="104" y="237.50" text-anchor="end" font-family="Arial" font-size="16" fill="black">0.017</text>
<line x1="120" y1="75.00" x2="1145" y2="75.00" stroke="#dddddd" stroke-width="1"/>
<text x="104" y="80.00" text-anchor="end" font-family="Arial" font-size="16" fill="black">0.022</text>
<rect x="120" y="75" width="1025" height="630" fill="none" stroke="black" stroke-width="2"/>
<text x="632.5" y="785" text-anchor="middle" font-family="Arial" font-size="20" fill="black">x coordinate [m]</text>
<text x="34" y="390.0" transform="rotate(-90 34 390.0)" text-anchor="middle" font-family="Arial" font-size="20" fill="black">k [m2/s2]</text>
<polyline points="190.69,661.55 193.64,660.58 196.58,659.62 199.53,658.65 202.47,657.68 205.42,653.51 208.36,648.05 211.31,642.60 214.25,637.14 217.20,630.20 220.14,621.30 223.09,612.39 226.03,603.49 228.98,594.60 231.93,585.84 234.87,577.08 237.82,568.32 240.76,559.55 243.71,550.80 246.65,542.05 249.60,533.31 252.54,524.56 255.49,515.78 258.43,506.98 261.38,498.17 264.32,489.37 267.27,480.57 270.22,471.80 273.16,463.02 276.11,454.27 279.05,445.49 282.00,436.57 284.94,427.66 287.89,418.71 290.83,409.79 293.78,400.29 296.72,390.54 299.67,380.80 302.62,371.06 305.56,360.66 308.51,349.43 311.45,338.18 314.40,326.95 317.34,315.56 320.29,303.33 323.23,291.08 326.17,278.85 329.13,266.60 332.07,255.03 335.01,243.56 337.96,232.13 340.91,220.67 343.85,210.72 346.80,201.90 349.74,193.06 352.68,184.21 355.64,176.43 358.58,171.16 361.52,165.93 364.47,160.69 367.41,155.43 370.35,153.91 373.31,152.40 376.25,150.88 379.19,149.37 382.15,150.26 385.09,152.15 388.03,154.05 390.98,155.91 393.92,159.04 396.86,163.79 399.82,168.51 402.76,173.26 405.70,178.36 408.65,185.34 411.59,192.37 414.54,199.39 417.49,206.38 420.43,214.88 423.37,223.60 426.33,232.31 429.27,241.02 432.21,250.48 435.16,260.50 438.10,270.49 441.04,280.51 444.00,290.84 446.94,302.02 449.88,313.21 452.83,324.40 455.78,335.59 458.72,348.40 461.67,361.17 464.61,373.98 467.55,386.79 470.51,401.39 473.45,416.71 476.39,432.00 479.34,447.32 482.28,461.81 485.23,475.24 488.18,488.68 491.12,502.11 494.06,513.65 497.02,513.83 499.96,514.01 502.90,514.19 505.85,514.37 508.79,504.06 511.73,492.00 514.69,479.92 517.63,467.87 520.57,454.48 523.52,440.05 526.47,425.66 529.41,411.27 532.36,396.95 535.30,382.80 538.24,368.68 541.20,354.53 544.14,340.41 547.08,326.99 550.03,313.59 552.97,300.20 555.92,286.81 558.87,274.31 561.81,262.16 564.75,250.04 567.71,237.92 570.65,226.56 573.59,216.30 576.54,206.00 579.48,195.74 582.42,185.79 585.38,177.87 588.32,169.92 591.26,162.00 594.21,154.05 597.16,148.26 600.10,142.86 603.05,137.42 605.99,132.01 608.93,128.19 611.89,125.54 614.83,122.92 617.77,120.27 620.72,118.45 623.66,118.65 626.60,118.86 629.56,119.07 632.50,119.24 635.44,121.79 638.40,124.30 641.34,126.85 644.28,129.36 647.23,133.25 650.17,137.66 653.11,142.10 656.07,146.51 659.01,151.53 661.95,157.39 664.90,163.24 667.84,169.06 670.79,175.02 673.74,181.69 676.68,188.37 679.62,195.05 682.58,201.70 685.52,208.65 688.46,215.64 691.41,222.60 694.35,229.59 697.29,236.44 700.25,243.19 703.19,249.93 706.13,256.68 709.08,263.26 712.03,269.32 714.97,275.41 717.92,281.47 720.86,287.56 723.80,292.73 726.76,297.89 729.70,303.06 732.64,308.26 735.59,312.66 738.53,316.76 741.48,320.86 744.43,324.95 747.37,328.50 750.31,331.36 753.27,334.18 756.21,337.04 759.15,339.69 762.10,341.14 765.04,342.58 767.98,344.06 770.94,345.51 773.88,345.72 776.82,345.72 779.77,345.75 782.72,345.75 785.66,344.96 788.61,343.58 791.55,342.20 794.49,340.83 797.45,339.14 800.39,336.66 803.33,334.18 806.28,331.67 809.22,329.19 812.17,325.95 815.12,322.68 818.06,319.45 821.00,316.21 823.96,312.70 826.90,309.08 829.84,305.47 832.79,301.85 835.73,298.27 838.67,294.73 841.63,291.18 844.57,287.63 847.51,284.16 850.46,281.09 853.41,278.06 856.35,275.00 859.30,271.93 862.24,269.59 865.18,267.35 868.14,265.12 871.08,262.88 874.02,261.23 876.97,260.02 879.91,258.78 882.85,257.58 885.81,256.68 888.75,256.58 891.69,256.47 894.65,256.37 897.59,256.27 900.53,257.27 903.48,258.30 906.42,259.33 909.36,260.33 912.32,262.16 915.26,264.26 918.20,266.39 921.15,268.49 924.09,271.04 927.04,274.17 929.99,277.27 932.93,280.40 935.87,283.64 938.83,287.60 941.77,291.59 944.71,295.55 947.66,299.55 950.60,304.12 953.54,308.77 956.50,313.46 959.44,318.10 962.38,323.06 965.33,328.23 968.28,333.39 971.22,338.55 974.17,343.82 977.11,349.30 980.05,354.77 983.01,360.24 985.95,365.75 988.89,371.37 991.84,376.98 994.78,382.59 997.73,388.20 1000.68,393.88 1003.62,399.53 1006.56,405.21 1009.52,410.89 1012.46,416.61 1015.40,422.46 1018.35,428.31 1021.29,434.16 1024.23,440.12 1027.19,446.77 1030.13,453.41 1033.07,460.05 1036.02,466.70 1038.97,475.93 1041.91,485.60 1044.86,495.29 1047.80,504.96 1050.74,519.79 1053.70,538.47 1056.64,557.16 1059.58,575.85 1062.53,592.81 1065.47,605.46 1068.42,618.11 1071.37,630.76 1074.31,643.41" fill="none" stroke="#000000" stroke-width="3"/>
<line x1="142" y1="100" x2="178" y2="100" stroke="#000000" stroke-width="4"/>
<text x="188" y="105" font-family="Arial" font-size="18" fill="black">k</text>
</svg>