<svg xmlns="http://www.w3.org/2000/svg" width="1200" height="820" viewBox="0 0 1200 820">
<rect width="100%" height="100%" fill="white"/>
<text x="600.0" y="36" text-anchor="middle" font-family="Arial" font-size="24" fill="black">profile_center_y: vorticity:0</text>
<line x1="120.00" y1="75" x2="120.00" y2="705" stroke="#dddddd" stroke-width="1"/>
<text x="120.00" y="737" text-anchor="middle" font-family="Arial" font-size="16" fill="black">-0.400</text>
<line x1="376.25" y1="75" x2="376.25" y2="705" stroke="#dddddd" stroke-width="1"/>
<text x="376.25" y="737" text-anchor="middle" font-family="Arial" font-size="16" fill="black">1.050</text>
<line x1="632.50" y1="75" x2="632.50" y2="705" stroke="#dddddd" stroke-width="1"/>
<text x="632.50" y="737" text-anchor="middle" font-family="Arial" font-size="16" fill="black">2.500</text>
<line x1="888.75" y1="75" x2="888.75" y2="705" stroke="#dddddd" stroke-width="1"/>
<text x="888.75" y="737" text-anchor="middle" font-family="Arial" font-size="16" fill="black">3.950</text>
<line x1="1145.00" y1="75" x2="1145.00" y2="705" stroke="#dddddd" stroke-width="1"/>
<text x="1145.00" y="737" text-anchor="middle" font-family="Arial" font-size="16" fill="black">5.400</text>
<line x1="120" y1="705.00" x2="1145" y2="705.00" stroke="#dddddd" stroke-width="1"/>
<text x="104" y="710.00" text-anchor="end" font-family="Arial" font-size="16" fill="black">-1.853</text>
<line x1="120" y1="547.50" x2="1145" y2="547.50" stroke="#dddddd" stroke-width="1"/>
<text x="104" y="552.50" text-anchor="end" font-family="Arial" font-size="16" fill="black">-0.944</text>
<line x1="120" y1="390.00" x2="1145" y2="390.00" stroke="#dddddd" stroke-width="1"/>
<text x="104" y="395.00" text-anchor="end" font-family="Arial" font-size="16" fill="black">-0.036</text>
<line x1="120" y1="232.50" x2="1145" y2="232.50" stroke="#dddddd" stroke-width="1"/>
<text x="104" y="237.50" text-anchor="end" font-family="Arial" font-size="16" fill="black">0.873</text>
<line x1="120" y1="75.00" x2="1145" y2="75.00" stroke="#dddddd" stroke-width="1"/>
<text x="104" y="80.00" text-anchor="end" font-family="Arial" font-size="16" fill="black">1.782</text>
<rect x="120" y="75" width="1025" height="630" fill="none" stroke="black" stroke-width="2"/>
<text x="632.5" y="785" text-anchor="middle" font-family="Arial" font-size="20" fill="black">y coordinate [m]</text>
<text x="34" y="390.0" transform="rotate(-90 34 390.0)" text-anchor="middle" font-family="Arial" font-size="20" fill="black">vorticity:0 [SI]</text>
<polyline points="190.69,661.55 193.64,613.69 196.58,565.83 199.53,517.98 202.47,470.12 205.42,422.26 208.36,374.40 211.31,331.74 214.25,289.08 217.20,246.42 220.14,203.76 223.09,161.09 226.03,118.45 228.98,131.10 231.92,143.77 234.87,156.42 237.82,169.08 240.76,181.75 243.71,194.40 246.65,206.50 249.60,218.58 252.54,230.68 255.49,242.76 258.43,254.85 261.38,266.94 264.33,273.61 267.27,280.28 270.22,286.95 273.16,293.62 276.11,300.29 279.05,306.96 282.00,309.50 284.94,312.05 287.89,314.59 290.83,317.14 293.78,319.68 296.72,322.23 299.67,322.29 302.61,322.36 305.56,322.42 308.51,322.49 311.45,322.55 314.40,322.62 317.34,320.88 320.29,319.14 323.23,317.40 326.18,315.67 329.12,313.93 332.07,312.19 335.01,308.94 337.96,305.69 340.91,302.43 343.85,299.18 346.80,295.93 349.74,292.68 352.69,291.46 355.63,290.25 358.58,289.04 361.52,287.83 364.47,286.61 367.41,285.40 370.37,289.92 373.30,294.45 376.25,298.97 379.20,303.50 382.13,308.02 385.09,312.55 388.04,319.69 390.97,326.83 393.92,333.97 396.87,341.11 399.81,348.25 402.76,355.39 405.71,360.76 408.64,366.12 411.59,371.49 414.55,376.85 417.48,382.22 420.43,387.58 423.38,390.59 426.32,393.60 429.27,396.61 432.22,399.62 435.15,402.63 438.10,405.64 441.05,407.48 443.99,409.33 446.94,411.17 449.89,413.02 452.82,414.87 455.78,416.71 458.73,419.03 461.66,421.35 464.61,423.67 467.56,426.00 470.50,428.32 473.45,430.64 476.40,434.28 479.33,437.91 482.28,441.55 485.24,445.19 488.17,448.83 491.12,452.47 494.07,456.66 497.01,460.86 499.96,465.05 502.91,469.25 505.84,473.44 508.79,477.64 511.74,480.32 514.68,483.00 517.63,485.69 520.58,488.37 523.51,491.05 526.47,493.74 529.42,492.24 532.35,490.74 535.30,489.24 538.25,487.74 541.19,486.24 544.14,484.74 547.09,478.82 550.02,472.89 552.97,466.97 555.93,461.04 558.86,455.12 561.81,449.20 564.76,442.21 567.70,435.23 570.65,428.25 573.60,421.27 576.53,414.29 579.48,407.31 582.43,401.81 585.37,396.32 588.32,390.82 591.27,385.33 594.20,379.84 597.16,374.34 600.11,370.45 603.04,366.56 605.99,362.67 608.94,358.79 611.88,354.90 614.83,351.01 617.78,348.21 620.71,345.42 623.66,342.63 626.62,339.83 629.55,337.04 632.50,334.25 635.45,332.13 638.38,330.00 641.34,327.87 644.29,325.75 647.22,323.63 650.17,321.50 653.12,319.94 656.06,318.39 659.01,316.83 661.96,315.27 664.89,313.71 667.84,312.16 670.80,311.23 673.73,310.30 676.68,309.37 679.63,308.44 682.57,307.51 685.52,306.58 688.47,306.40 691.40,306.21 694.35,306.02 697.30,305.84 700.24,305.65 703.19,305.46 706.14,306.71 709.07,307.95 712.03,309.20 714.98,310.45 717.91,311.70 720.86,312.94 723.81,315.89 726.75,318.84 729.70,321.80 732.65,324.75 735.58,327.70 738.53,330.65 741.49,334.14 744.42,337.62 747.37,341.11 750.32,344.60 753.26,348.09 756.21,351.58 759.16,354.70 762.09,357.83 765.04,360.96 767.99,364.09 770.93,367.22 773.88,370.35 776.83,373.25 779.76,376.16 782.72,379.06 785.67,381.96 788.60,384.86 791.55,387.77 794.50,390.80 797.44,393.84 800.39,396.88 803.34,399.92 806.27,402.96 809.22,405.99 812.18,409.43 815.11,412.86 818.06,416.29 821.01,419.73 823.95,423.16 826.90,426.60 829.85,430.45 832.78,434.31 835.73,438.16 838.68,442.01 841.62,445.87 844.57,449.72 847.52,453.74 850.45,457.76 853.41,461.77 856.36,465.79 859.29,469.81 862.24,473.83 865.19,477.31 868.13,480.79 871.08,484.27 874.03,487.75 876.96,491.23 879.91,494.71 882.87,495.91 885.80,497.12 888.75,498.32 891.70,499.52 894.63,500.73 897.59,501.93 900.54,499.77 903.47,497.60 906.42,495.44 909.37,493.27 912.31,491.11 915.26,488.94 918.21,484.93 921.14,480.93 924.09,476.92 927.05,472.92 929.98,468.91 932.93,464.91 935.88,461.00 938.82,457.10 941.77,453.19 944.72,449.29 947.65,445.39 950.60,441.48 953.55,438.43 956.49,435.37 959.44,432.32 962.39,429.27 965.32,426.21 968.28,423.16 971.23,421.08 974.16,419.00 977.11,416.92 980.06,414.84 983.00,412.76 985.95,410.68 988.90,409.26 991.83,407.85 994.78,406.44 997.74,405.02 1000.67,403.61 1003.62,402.20 1006.57,400.78 1009.51,399.36 1012.46,397.95 1015.41,396.53 1018.34,395.11 1021.29,393.70 1024.24,391.22 1027.18,388.74 1030.13,386.26 1033.08,383.77 1036.01,381.29 1038.97,378.81 1041.92,376.07 1044.85,373.32 1047.80,370.58 1050.75,367.83 1053.69,365.08 1056.64,362.34 1059.59,361.25 1062.52,360.17 1065.47,359.09 1068.43,358.01 1071.36,356.93 1074.31,355.84" fill="none" stroke="#000000" stroke-width="3"/>
<line x1="142" y1="100" x2="178" y2="100" stroke="#000000" stroke-width="4"/>
<text x="188" y="105" font-family="Arial" font-size="18" fill="black">vorticity:0</text>
</svg>