<svg xmlns="http://www.w3.org/2000/svg" width="1200" height="820" viewBox="0 0 1200 820">
<rect width="100%" height="100%" fill="white"/>
<text x="600.0" y="36" text-anchor="middle" font-family="Arial" font-size="24" fill="black">profile_near_ceiling_x: nut</text>
<line x1="120.00" y1="75" x2="120.00" y2="705" stroke="#dddddd" stroke-width="1"/>
<text x="120.00" y="737" text-anchor="middle" font-family="Arial" font-size="16" fill="black">-0.560</text>
<line x1="376.25" y1="75" x2="376.25" y2="705" stroke="#dddddd" stroke-width="1"/>
<text x="376.25" y="737" text-anchor="middle" font-family="Arial" font-size="16" fill="black">1.470</text>
<line x1="632.50" y1="75" x2="632.50" y2="705" stroke="#dddddd" stroke-width="1"/>
<text x="632.50" y="737" text-anchor="middle" font-family="Arial" font-size="16" fill="black">3.500</text>
<line x1="888.75" y1="75" x2="888.75" y2="705" stroke="#dddddd" stroke-width="1"/>
<text x="888.75" y="737" text-anchor="middle" font-family="Arial" font-size="16" fill="black">5.530</text>
<line x1="1145.00" y1="75" x2="1145.00" y2="705" stroke="#dddddd" stroke-width="1"/>
<text x="1145.00" y="737" text-anchor="middle" font-family="Arial" font-size="16" fill="black">7.560</text>
<line x1="120" y1="705.00" x2="1145" y2="705.00" stroke="#dddddd" stroke-width="1"/>
<text x="104" y="710.00" text-anchor="end" font-family="Arial" font-size="16" fill="black">2.36e-04</text>
<line x1="120" y1="547.50" x2="1145" y2="547.50" stroke="#dddddd" stroke-width="1"/>
<text x="104" y="552.50" text-anchor="end" font-family="Arial" font-size="16" fill="black">0.002</text>
<line x1="120" y1="390.00" x2="1145" y2="390.00" stroke="#dddddd" stroke-width="1"/>
<text x="104" y="395.00" text-anchor="end" font-family="Arial" font-size="16" fill="black">0.004</text>
<line x1="120" y1="232.50" x2="1145" y2="232.50" stroke="#dddddd" stroke-width="1"/>
<text x="104" y="237.50" text-anchor="end" font-family="Arial" font-size="16" fill="black">0.006</text>
<line x1="120" y1="75.00" x2="1145" y2="75.00" stroke="#dddddd" stroke-width="1"/>
<text x="104" y="80.00" text-anchor="end" font-family="Arial" font-size="16" fill="black">0.007</text>
<rect x="120" y="75" width="1025" height="630" fill="none" stroke="black" stroke-width="2"/>
<text x="632.5" y="785" text-anchor="middle" font-family="Arial" font-size="20" fill="black">x coordinate [m]</text>
<text x="34" y="390.0" transform="rotate(-90 34 390.0)" text-anchor="middle" font-family="Arial" font-size="20" fill="black">nut [m2/s]</text>
<polyline points="190.69,661.55 193.64,655.44 196.58,649.34 199.53,643.23 202.47,637.12 205.42,625.86 208.36,612.52 211.31,599.20 214.25,585.86 217.20,572.88 220.14,560.37 223.09,547.85 226.03,535.34 228.98,523.25 231.93,513.75 234.87,504.25 237.82,494.75 240.76,485.25 243.71,477.18 246.65,469.34 249.60,461.50 252.54,453.65 255.49,446.39 258.43,439.56 261.38,432.74 264.32,425.91 267.27,419.22 270.22,412.90 273.16,406.58 276.11,400.26 279.05,393.94 282.00,387.01 284.94,380.09 287.89,373.16 290.83,366.25 293.78,357.95 296.72,349.11 299.67,340.28 302.62,331.44 305.56,321.48 308.51,310.03 311.45,298.60 314.40,287.15 317.34,275.56 320.29,263.08 323.23,250.60 326.17,238.12 329.13,225.63 332.07,214.56 335.01,203.72 337.96,192.87 340.91,182.03 343.85,172.88 346.80,165.01 349.74,157.14 352.68,149.27 355.64,142.34 358.58,137.77 361.52,133.20 364.47,128.63 367.41,124.05 370.35,122.65 373.31,121.25 376.25,119.85 379.19,118.45 382.15,119.15 385.09,120.68 388.03,122.23 390.98,123.76 393.92,126.45 396.86,130.70 399.82,134.95 402.76,139.19 405.70,143.78 408.65,150.47 411.59,157.16 414.54,163.85 417.49,170.54 420.43,179.16 423.37,188.10 426.33,197.04 429.27,205.99 432.21,216.54 435.16,228.29 438.10,240.04 441.04,251.79 444.00,264.47 446.94,279.44 449.88,294.41 452.83,309.38 455.78,324.35 458.72,341.78 461.67,359.22 464.61,376.65 467.55,394.09 470.51,412.23 473.45,430.66 476.39,449.09 479.34,467.52 482.28,484.24 485.23,498.68 488.18,513.11 491.12,527.55 494.06,540.22 497.02,542.26 499.96,544.32 502.90,546.38 505.85,548.43 508.79,540.64 511.73,531.21 514.69,521.77 517.63,512.35 520.57,501.19 523.52,488.75 526.47,476.31 529.41,463.87 532.36,451.68 535.30,440.10 538.24,428.53 541.20,416.96 544.14,405.40 547.08,395.54 550.03,385.69 552.97,375.84 555.92,365.99 558.87,357.71 561.81,350.07 564.75,342.42 567.71,334.78 570.65,328.24 573.59,323.16 576.54,318.08 579.48,313.00 582.42,308.28 585.38,305.73 588.32,303.16 591.26,300.60 594.21,298.05 597.16,297.23 600.10,296.71 603.05,296.18 605.99,295.66 608.93,296.04 611.89,297.11 614.83,298.17 617.77,299.23 620.72,300.64 623.66,302.91 626.60,305.17 629.56,307.43 632.50,309.70 635.44,312.61 638.40,315.52 641.34,318.43 644.28,321.35 647.23,324.52 650.17,327.79 653.11,331.07 656.07,334.35 659.01,337.73 661.95,341.24 664.90,344.76 667.84,348.27 670.79,351.78 673.74,355.29 676.68,358.79 679.62,362.30 682.58,365.81 685.52,369.11 688.46,372.37 691.41,375.64 694.35,378.90 697.29,381.85 700.25,384.57 703.19,387.28 706.13,390.00 709.08,392.47 712.03,394.36 714.97,396.25 717.92,398.14 720.86,400.03 723.80,400.91 726.76,401.78 729.70,402.65 732.64,403.53 735.59,403.58 738.53,403.31 741.48,403.03 744.43,402.77 747.37,401.96 750.31,400.46 753.27,398.96 756.21,397.46 759.15,395.78 762.10,393.09 765.04,390.40 767.98,387.71 770.94,385.02 773.88,381.53 776.82,377.91 779.77,374.29 782.72,370.66 785.66,366.76 788.61,362.67 791.55,358.56 794.49,354.46 797.45,350.38 800.39,346.34 803.33,342.31 806.28,338.26 809.22,334.23 812.17,330.70 815.12,327.18 818.06,323.65 821.00,320.12 823.96,317.12 826.90,314.33 829.84,311.52 832.79,308.72 835.73,306.25 838.67,304.19 841.63,302.13 844.57,300.09 847.51,298.13 850.46,296.75 853.41,295.37 856.35,293.99 859.30,292.62 862.24,291.77 865.18,291.02 868.14,290.26 871.08,289.51 874.02,289.12 876.97,289.01 879.91,288.91 882.85,288.79 885.81,288.89 888.75,289.48 891.69,290.08 894.65,290.68 897.59,291.28 900.53,292.64 903.48,294.00 906.42,295.36 909.36,296.73 912.32,298.66 915.26,300.82 918.20,302.99 921.15,305.16 924.09,307.66 927.04,310.61 929.99,313.56 932.93,316.52 935.87,319.57 938.83,323.22 941.77,326.87 944.71,330.52 947.66,334.17 950.60,338.29 953.54,342.49 956.50,346.70 959.44,350.89 962.38,355.30 965.33,359.85 968.28,364.40 971.22,368.96 974.17,373.56 977.11,378.28 980.05,382.99 983.01,387.70 985.95,392.41 988.89,397.16 991.84,401.91 994.78,406.65 997.73,411.40 1000.68,416.20 1003.62,421.02 1006.56,425.84 1009.52,430.66 1012.46,435.64 1015.40,440.83 1018.35,446.02 1021.29,451.21 1024.23,456.53 1027.19,462.67 1030.13,468.81 1033.07,474.94 1036.02,481.09 1038.97,489.42 1041.91,498.13 1044.86,506.83 1047.80,515.54 1050.74,529.92 1053.70,548.58 1056.64,567.22 1059.58,585.87 1062.53,603.00 1065.47,616.34 1068.42,629.69 1071.37,643.03 1074.31,656.37" fill="none" stroke="#000000" stroke-width="3"/>
<line x1="142" y1="100" x2="178" y2="100" stroke="#000000" stroke-width="4"/>
<text x="188" y="105" font-family="Arial" font-size="18" fill="black">nut</text>
</svg>