<svg xmlns="http://www.w3.org/2000/svg" width="1200" height="820" viewBox="0 0 1200 820">
<rect width="100%" height="100%" fill="white"/>
<text x="600.0" y="36" text-anchor="middle" font-family="Arial" font-size="24" fill="black">profile_center_y: vorticity:2</text>
<line x1="120.00" y1="75" x2="120.00" y2="705" stroke="#dddddd" stroke-width="1"/>
<text x="120.00" y="737" text-anchor="middle" font-family="Arial" font-size="16" fill="black">-0.400</text>
<line x1="376.25" y1="75" x2="376.25" y2="705" stroke="#dddddd" stroke-width="1"/>
<text x="376.25" y="737" text-anchor="middle" font-family="Arial" font-size="16" fill="black">1.050</text>
<line x1="632.50" y1="75" x2="632.50" y2="705" stroke="#dddddd" stroke-width="1"/>
<text x="632.50" y="737" text-anchor="middle" font-family="Arial" font-size="16" fill="black">2.500</text>
<line x1="888.75" y1="75" x2="888.75" y2="705" stroke="#dddddd" stroke-width="1"/>
<text x="888.75" y="737" text-anchor="middle" font-family="Arial" font-size="16" fill="black">3.950</text>
<line x1="1145.00" y1="75" x2="1145.00" y2="705" stroke="#dddddd" stroke-width="1"/>
<text x="1145.00" y="737" text-anchor="middle" font-family="Arial" font-size="16" fill="black">5.400</text>
<line x1="120" y1="705.00" x2="1145" y2="705.00" stroke="#dddddd" stroke-width="1"/>
<text x="104" y="710.00" text-anchor="end" font-family="Arial" font-size="16" fill="black">-2.876</text>
<line x1="120" y1="547.50" x2="1145" y2="547.50" stroke="#dddddd" stroke-width="1"/>
<text x="104" y="552.50" text-anchor="end" font-family="Arial" font-size="16" fill="black">-1.920</text>
<line x1="120" y1="390.00" x2="1145" y2="390.00" stroke="#dddddd" stroke-width="1"/>
<text x="104" y="395.00" text-anchor="end" font-family="Arial" font-size="16" fill="black">-0.965</text>
<line x1="120" y1="232.50" x2="1145" y2="232.50" stroke="#dddddd" stroke-width="1"/>
<text x="104" y="237.50" text-anchor="end" font-family="Arial" font-size="16" fill="black">-0.009</text>
<line x1="120" y1="75.00" x2="1145" y2="75.00" stroke="#dddddd" stroke-width="1"/>
<text x="104" y="80.00" text-anchor="end" font-family="Arial" font-size="16" fill="black">0.947</text>
<rect x="120" y="75" width="1025" height="630" fill="none" stroke="black" stroke-width="2"/>
<text x="632.5" y="785" text-anchor="middle" font-family="Arial" font-size="20" fill="black">y coordinate [m]</text>
<text x="34" y="390.0" transform="rotate(-90 34 390.0)" text-anchor="middle" font-family="Arial" font-size="20" fill="black">vorticity:2 [SI]</text>
<polyline points="190.69,661.55 193.64,618.26 196.58,574.97 199.53,531.67 202.47,488.38 205.42,445.07 208.36,401.78 211.31,356.43 214.25,311.08 217.20,265.73 220.14,220.38 223.09,175.03 226.03,129.68 228.98,127.81 231.92,125.94 234.87,124.07 237.82,122.19 240.76,120.32 243.71,118.45 246.65,119.47 249.60,120.50 252.54,121.53 255.49,122.56 258.43,123.58 261.38,124.61 264.33,126.34 267.27,128.08 270.22,129.81 273.16,131.54 276.11,133.27 279.05,135.01 282.00,136.62 284.94,138.23 287.89,139.84 290.83,141.45 293.78,143.06 296.72,144.67 299.67,145.87 302.61,147.08 305.56,148.28 308.51,149.48 311.45,150.68 314.40,151.88 317.34,152.60 320.29,153.31 323.23,154.03 326.18,154.75 329.12,155.47 332.07,156.18 335.01,156.53 337.96,156.88 340.91,157.23 343.85,157.58 346.80,157.92 349.74,158.27 352.69,158.63 355.63,159.00 358.58,159.36 361.52,159.72 364.47,160.08 367.41,160.44 370.37,161.28 373.30,162.11 376.25,162.94 379.20,163.78 382.13,164.61 385.09,165.44 388.04,166.86 390.97,168.28 393.92,169.71 396.87,171.13 399.81,172.55 402.76,173.97 405.71,175.90 408.64,177.83 411.59,179.76 414.55,181.70 417.48,183.63 420.43,185.56 423.38,187.98 426.32,190.41 429.27,192.83 432.22,195.25 435.15,197.68 438.10,200.10 441.05,202.92 443.99,205.73 446.94,208.55 449.89,211.37 452.82,214.18 455.78,217.00 458.73,219.92 461.66,222.83 464.61,225.74 467.56,228.66 470.50,231.57 473.45,234.49 476.40,236.90 479.33,239.32 482.28,241.74 485.24,244.15 488.17,246.57 491.12,248.98 494.07,250.25 497.01,251.52 499.96,252.78 502.91,254.05 505.84,255.31 508.79,256.58 511.74,256.50 514.68,256.42 517.63,256.34 520.58,256.27 523.51,256.19 526.47,256.11 529.42,255.12 532.35,254.13 535.30,253.14 538.25,252.15 541.19,251.16 544.14,250.16 547.09,249.15 550.02,248.13 552.97,247.12 555.93,246.10 558.86,245.08 561.81,244.07 564.76,243.99 567.70,243.91 570.65,243.82 573.60,243.74 576.53,243.66 579.48,243.58 582.43,245.00 585.37,246.42 588.32,247.85 591.27,249.27 594.20,250.69 597.16,252.12 600.11,255.22 603.04,258.31 605.99,261.41 608.94,264.51 611.88,267.61 614.83,270.71 617.78,275.17 620.71,279.63 623.66,284.09 626.62,288.55 629.55,293.01 632.50,297.47 635.45,302.18 638.38,306.89 641.34,311.60 644.29,316.31 647.22,321.01 650.17,325.72 653.12,329.07 656.06,332.43 659.01,335.78 661.96,339.13 664.89,342.48 667.84,345.83 670.80,346.72 673.73,347.61 676.68,348.50 679.63,349.39 682.57,350.28 685.52,351.17 688.47,349.54 691.40,347.91 694.35,346.28 697.30,344.65 700.24,343.02 703.19,341.39 706.14,337.97 709.07,334.55 712.03,331.13 714.98,327.71 717.91,324.29 720.86,320.87 723.81,316.86 726.75,312.85 729.70,308.84 732.65,304.83 735.58,300.82 738.53,296.81 741.49,293.33 744.42,289.85 747.37,286.36 750.32,282.88 753.26,279.40 756.21,275.91 759.16,273.41 762.09,270.91 765.04,268.40 767.99,265.90 770.93,263.39 773.88,260.89 776.83,259.20 779.76,257.50 782.72,255.81 785.67,254.11 788.60,252.42 791.55,250.73 794.50,249.45 797.44,248.17 800.39,246.89 803.34,245.61 806.27,244.33 809.22,243.05 812.18,241.83 815.11,240.61 818.06,239.38 821.01,238.16 823.95,236.94 826.90,235.72 829.85,234.36 832.78,232.99 835.73,231.63 838.68,230.26 841.62,228.90 844.57,227.54 847.52,225.97 850.45,224.41 853.41,222.85 856.36,221.29 859.29,219.73 862.24,218.16 865.19,216.45 868.13,214.73 871.08,213.01 874.03,211.29 876.96,209.57 879.91,207.85 882.87,206.16 885.80,204.46 888.75,202.77 891.70,201.08 894.63,199.39 897.59,197.70 900.54,196.27 903.47,194.85 906.42,193.42 909.37,191.99 912.31,190.57 915.26,189.14 918.21,188.07 921.14,186.99 924.09,185.92 927.05,184.84 929.98,183.77 932.93,182.69 935.88,181.93 938.82,181.17 941.77,180.41 944.72,179.65 947.65,178.89 950.60,178.13 953.55,177.64 956.49,177.15 959.44,176.65 962.39,176.16 965.32,175.67 968.28,175.18 971.23,174.89 974.16,174.59 977.11,174.30 980.06,174.01 983.00,173.72 985.95,173.43 988.90,173.23 991.83,173.04 994.78,172.84 997.74,172.64 1000.67,172.44 1003.62,172.24 1006.57,171.95 1009.51,171.66 1012.46,171.37 1015.41,171.08 1018.34,170.78 1021.29,170.49 1024.24,170.14 1027.18,169.78 1030.13,169.43 1033.08,169.07 1036.01,168.72 1038.97,168.37 1041.92,198.28 1044.85,228.21 1047.80,258.13 1050.75,288.05 1053.69,317.97 1056.64,347.89 1059.59,377.97 1062.52,408.04 1065.47,438.12 1068.43,468.19 1071.36,498.27 1074.31,528.35" fill="none" stroke="#000000" stroke-width="3"/>
<line x1="142" y1="100" x2="178" y2="100" stroke="#000000" stroke-width="4"/>
<text x="188" y="105" font-family="Arial" font-size="18" fill="black">vorticity:2</text>
</svg>