<svg xmlns="http://www.w3.org/2000/svg" width="1200" height="820" viewBox="0 0 1200 820">
<rect width="100%" height="100%" fill="white"/>
<text x="600.0" y="36" text-anchor="middle" font-family="Arial" font-size="24" fill="black">profile_near_floor_x: nut</text>
<line x1="120.00" y1="75" x2="120.00" y2="705" stroke="#dddddd" stroke-width="1"/>
<text x="120.00" y="737" text-anchor="middle" font-family="Arial" font-size="16" fill="black">-0.560</text>
<line x1="376.25" y1="75" x2="376.25" y2="705" stroke="#dddddd" stroke-width="1"/>
<text x="376.25" y="737" text-anchor="middle" font-family="Arial" font-size="16" fill="black">1.470</text>
<line x1="632.50" y1="75" x2="632.50" y2="705" stroke="#dddddd" stroke-width="1"/>
<text x="632.50" y="737" text-anchor="middle" font-family="Arial" font-size="16" fill="black">3.500</text>
<line x1="888.75" y1="75" x2="888.75" y2="705" stroke="#dddddd" stroke-width="1"/>
<text x="888.75" y="737" text-anchor="middle" font-family="Arial" font-size="16" fill="black">5.530</text>
<line x1="1145.00" y1="75" x2="1145.00" y2="705" stroke="#dddddd" stroke-width="1"/>
<text x="1145.00" y="737" text-anchor="middle" font-family="Arial" font-size="16" fill="black">7.560</text>
<line x1="120" y1="705.00" x2="1145" y2="705.00" stroke="#dddddd" stroke-width="1"/>
<text x="104" y="710.00" text-anchor="end" font-family="Arial" font-size="16" fill="black">3.83e-04</text>
<line x1="120" y1="547.50" x2="1145" y2="547.50" stroke="#dddddd" stroke-width="1"/>
<text x="104" y="552.50" text-anchor="end" font-family="Arial" font-size="16" fill="black">0.001</text>
<line x1="120" y1="390.00" x2="1145" y2="390.00" stroke="#dddddd" stroke-width="1"/>
<text x="104" y="395.00" text-anchor="end" font-family="Arial" font-size="16" fill="black">0.002</text>
<line x1="120" y1="232.50" x2="1145" y2="232.50" stroke="#dddddd" stroke-width="1"/>
<text x="104" y="237.50" text-anchor="end" font-family="Arial" font-size="16" fill="black">0.003</text>
<line x1="120" y1="75.00" x2="1145" y2="75.00" stroke="#dddddd" stroke-width="1"/>
<text x="104" y="80.00" text-anchor="end" font-family="Arial" font-size="16" fill="black">0.004</text>
<rect x="120" y="75" width="1025" height="630" fill="none" stroke="black" stroke-width="2"/>
<text x="632.5" y="785" text-anchor="middle" font-family="Arial" font-size="20" fill="black">x coordinate [m]</text>
<text x="34" y="390.0" transform="rotate(-90 34 390.0)" text-anchor="middle" font-family="Arial" font-size="20" fill="black">nut [m2/s]</text>
<polyline points="190.69,661.55 193.64,648.65 196.58,635.76 199.53,622.86 202.47,609.96 205.42,593.48 208.36,575.58 211.31,557.67 214.25,539.77 217.20,526.99 220.14,521.06 223.09,515.13 226.03,509.21 228.98,504.32 231.93,505.72 234.87,507.13 237.82,508.55 240.76,509.95 243.71,515.04 246.65,520.76 249.60,526.48 252.54,532.20 255.49,538.51 258.43,545.26 261.38,552.01 264.32,558.76 267.27,565.25 270.22,571.09 273.16,576.92 276.11,582.77 279.05,588.61 282.00,592.84 284.94,597.08 287.89,601.31 290.83,605.56 293.78,608.52 296.72,610.96 299.67,613.41 302.62,615.85 305.56,618.03 308.51,619.86 311.45,621.70 314.40,623.53 317.34,625.33 320.29,626.97 323.23,628.61 326.17,630.24 329.13,631.88 332.07,632.69 335.01,633.38 337.96,634.06 340.91,634.74 343.85,635.20 346.80,635.49 349.74,635.79 352.68,636.08 355.64,636.33 358.58,636.48 361.52,636.62 364.47,636.76 367.41,636.90 370.35,637.01 373.31,637.11 376.25,637.22 379.19,637.32 382.15,637.41 385.09,637.48 388.03,637.55 390.98,637.63 393.92,637.56 396.86,637.31 399.82,637.07 402.76,636.82 405.70,634.95 408.65,623.39 411.59,611.83 414.54,600.26 417.49,588.70 420.43,560.92 423.37,530.43 426.33,499.94 429.27,469.46 432.21,437.35 435.16,404.03 438.10,370.71 441.04,337.40 444.00,308.62 446.94,291.25 449.88,273.88 452.83,256.51 455.78,239.13 458.72,237.56 461.67,236.00 464.61,234.43 467.55,232.86 470.51,235.21 473.45,239.13 476.39,243.04 479.34,246.96 482.28,251.67 485.23,257.44 488.18,263.21 491.12,268.98 494.06,275.31 497.02,285.04 499.96,294.76 502.90,304.49 505.85,314.21 508.79,328.16 511.73,342.80 514.69,357.44 517.63,372.09 520.57,388.80 523.52,407.06 526.47,425.34 529.41,443.60 532.36,461.79 535.30,479.84 538.24,497.89 541.20,515.94 544.14,534.00 547.08,548.94 550.03,563.88 552.97,578.82 555.92,593.76 558.87,603.31 561.81,610.69 564.75,618.07 567.71,625.45 570.65,630.13 573.59,631.21 576.54,632.29 579.48,633.37 582.42,634.34 585.38,634.65 588.32,634.95 591.26,635.26 594.21,635.57 597.16,635.54 600.10,635.45 603.05,635.37 605.99,635.29 608.93,635.27 611.89,635.30 614.83,635.33 617.77,635.36 620.72,635.38 623.66,635.37 626.60,635.36 629.56,635.35 632.50,635.33 635.44,635.32 638.40,635.31 641.34,635.30 644.28,635.29 647.23,635.29 650.17,635.28 653.11,635.28 656.07,635.28 659.01,635.26 661.95,635.22 664.90,635.17 667.84,635.13 670.79,633.95 673.74,625.92 676.68,617.88 679.62,609.85 682.58,601.81 685.52,580.94 688.46,557.91 691.41,534.91 694.35,511.89 697.29,487.23 700.25,461.36 703.19,435.48 706.13,409.62 709.08,383.77 712.03,358.02 714.97,332.27 717.92,306.52 720.86,280.78 723.80,255.69 726.76,230.62 729.70,205.55 732.64,180.47 735.59,164.11 738.53,151.24 741.48,138.36 744.43,125.49 747.37,118.45 750.31,119.18 753.27,119.90 756.21,120.63 759.15,122.53 762.10,131.45 765.04,140.40 767.98,149.34 770.94,158.26 773.88,170.28 776.82,182.82 779.77,195.35 782.72,207.88 785.66,222.09 788.61,237.54 791.55,252.99 794.49,268.45 797.45,284.41 800.39,301.65 803.33,318.87 806.28,336.11 809.22,353.33 812.17,369.67 815.12,386.04 818.06,402.38 821.00,418.73 823.96,438.87 826.90,460.51 829.84,482.16 832.79,503.81 835.73,525.27 838.67,546.48 841.63,567.70 844.57,588.92 847.51,608.13 850.46,615.24 853.41,622.35 856.35,629.47 859.30,636.58 862.24,637.60 865.18,637.60 868.14,637.60 871.08,637.60 874.02,637.61 876.97,637.62 879.91,637.63 882.85,637.64 885.81,637.64 888.75,637.63 891.69,637.61 894.65,637.60 897.59,637.58 900.53,637.49 903.48,637.40 906.42,637.32 909.36,637.23 912.32,636.95 915.26,636.61 918.20,636.26 921.15,635.91 924.09,635.18 927.04,633.95 929.99,632.71 932.93,631.48 935.87,629.63 938.83,624.15 941.77,618.67 944.71,613.19 947.66,607.70 950.60,598.29 953.54,588.21 956.50,578.13 959.44,568.05 962.38,556.00 965.33,542.45 968.28,528.91 971.22,515.36 974.17,502.12 977.11,489.64 980.05,477.16 983.01,464.69 985.95,452.21 988.89,448.66 991.84,445.10 994.78,441.55 997.73,438.00 1000.68,439.96 1003.62,444.13 1006.56,448.29 1009.52,452.46 1012.46,457.68 1015.40,464.32 1018.35,470.95 1021.29,477.59 1024.23,484.39 1027.19,492.22 1030.13,500.04 1033.07,507.85 1036.02,515.69 1038.97,526.45 1041.91,537.70 1044.86,548.96 1047.80,560.21 1050.74,573.07 1053.70,587.13 1056.64,601.20 1059.58,615.25 1062.53,627.36 1065.47,634.58 1068.42,641.80 1071.37,649.02 1074.31,656.24" fill="none" stroke="#000000" stroke-width="3"/>
<line x1="142" y1="100" x2="178" y2="100" stroke="#000000" stroke-width="4"/>
<text x="188" y="105" font-family="Arial" font-size="18" fill="black">nut</text>
</svg>