<svg xmlns="http://www.w3.org/2000/svg" width="1200" height="820" viewBox="0 0 1200 820">
<rect width="100%" height="100%" fill="white"/>
<text x="600.0" y="36" text-anchor="middle" font-family="Arial" font-size="24" fill="black">profile_center_y: nut</text>
<line x1="120.00" y1="75" x2="120.00" y2="705" stroke="#dddddd" stroke-width="1"/>
<text x="120.00" y="737" text-anchor="middle" font-family="Arial" font-size="16" fill="black">-0.400</text>
<line x1="376.25" y1="75" x2="376.25" y2="705" stroke="#dddddd" stroke-width="1"/>
<text x="376.25" y="737" text-anchor="middle" font-family="Arial" font-size="16" fill="black">1.050</text>
<line x1="632.50" y1="75" x2="632.50" y2="705" stroke="#dddddd" stroke-width="1"/>
<text x="632.50" y="737" text-anchor="middle" font-family="Arial" font-size="16" fill="black">2.500</text>
<line x1="888.75" y1="75" x2="888.75" y2="705" stroke="#dddddd" stroke-width="1"/>
<text x="888.75" y="737" text-anchor="middle" font-family="Arial" font-size="16" fill="black">3.950</text>
<line x1="1145.00" y1="75" x2="1145.00" y2="705" stroke="#dddddd" stroke-width="1"/>
<text x="1145.00" y="737" text-anchor="middle" font-family="Arial" font-size="16" fill="black">5.400</text>
<line x1="120" y1="705.00" x2="1145" y2="705.00" stroke="#dddddd" stroke-width="1"/>
<text x="104" y="710.00" text-anchor="end" font-family="Arial" font-size="16" fill="black">-4.35e-05</text>
<line x1="120" y1="547.50" x2="1145" y2="547.50" stroke="#dddddd" stroke-width="1"/>
<text x="104" y="552.50" text-anchor="end" font-family="Arial" font-size="16" fill="black">0.002</text>
<line x1="120" y1="390.00" x2="1145" y2="390.00" stroke="#dddddd" stroke-width="1"/>
<text x="104" y="395.00" text-anchor="end" font-family="Arial" font-size="16" fill="black">0.005</text>
<line x1="120" y1="232.50" x2="1145" y2="232.50" stroke="#dddddd" stroke-width="1"/>
<text x="104" y="237.50" text-anchor="end" font-family="Arial" font-size="16" fill="black">0.008</text>
<line x1="120" y1="75.00" x2="1145" y2="75.00" stroke="#dddddd" stroke-width="1"/>
<text x="104" y="80.00" text-anchor="end" font-family="Arial" font-size="16" fill="black">0.010</text>
<rect x="120" y="75" width="1025" height="630" fill="none" stroke="black" stroke-width="2"/>
<text x="632.5" y="785" text-anchor="middle" font-family="Arial" font-size="20" fill="black">y coordinate [m]</text>
<text x="34" y="390.0" transform="rotate(-90 34 390.0)" text-anchor="middle" font-family="Arial" font-size="20" fill="black">nut [m2/s]</text>
<polyline points="190.69,661.55 193.64,652.15 196.58,642.75 199.53,633.35 202.47,623.95 205.42,614.55 208.36,605.15 211.31,589.93 214.25,574.71 217.20,559.49 220.14,544.27 223.09,529.06 226.03,513.84 228.98,505.40 231.92,496.95 234.87,488.51 237.82,480.08 240.76,471.64 243.71,463.20 246.65,458.67 249.60,454.14 252.54,449.61 255.49,445.07 258.43,440.54 261.38,436.01 264.33,432.37 267.27,428.74 270.22,425.10 273.16,421.47 276.11,417.83 279.05,414.19 282.00,411.27 284.94,408.34 287.89,405.42 290.83,402.50 293.78,399.57 296.72,396.65 299.67,394.48 302.61,392.30 305.56,390.12 308.51,387.94 311.45,385.77 314.40,383.60 317.34,381.44 320.29,379.29 323.23,377.14 326.18,374.99 329.12,372.84 332.07,370.68 335.01,367.70 337.96,364.71 340.91,361.73 343.85,358.75 346.80,355.77 349.74,352.79 352.69,348.16 355.63,343.53 358.58,338.90 361.52,334.27 364.47,329.64 367.41,325.02 370.37,318.52 373.30,312.02 376.25,305.52 379.20,299.03 382.13,292.53 385.09,286.03 388.04,278.77 390.97,271.51 393.92,264.24 396.87,256.98 399.81,249.72 402.76,242.45 405.71,235.74 408.64,229.04 411.59,222.32 414.55,215.61 417.48,208.91 420.43,202.19 423.38,196.36 426.32,190.51 429.27,184.67 432.22,178.83 435.15,172.98 438.10,167.14 441.05,162.37 443.99,157.60 446.94,152.83 449.89,148.07 452.82,143.30 455.78,138.53 458.73,135.52 461.66,132.50 464.61,129.49 467.56,126.47 470.50,123.46 473.45,120.44 476.40,120.11 479.33,119.78 482.28,119.45 485.24,119.11 488.17,118.78 491.12,118.45 494.07,121.77 497.01,125.10 499.96,128.42 502.91,131.75 505.84,135.07 508.79,138.39 511.74,146.17 514.68,153.95 517.63,161.72 520.58,169.50 523.51,177.28 526.47,185.05 529.42,197.60 532.35,210.15 535.30,222.70 538.25,235.26 541.19,247.80 544.14,260.35 547.09,276.67 550.02,292.98 552.97,309.30 555.93,325.61 558.86,341.93 561.81,358.25 564.76,375.05 567.70,391.85 570.65,408.66 573.60,425.46 576.53,442.27 579.48,459.06 582.43,472.05 585.37,485.03 588.32,498.02 591.27,511.00 594.20,523.99 597.16,536.97 600.11,544.65 603.04,552.32 605.99,560.00 608.94,567.68 611.88,575.35 614.83,583.03 617.78,586.60 620.71,590.16 623.66,593.73 626.62,597.29 629.55,600.86 632.50,604.42 635.45,605.55 638.38,606.69 641.34,607.82 644.29,608.95 647.22,610.09 650.17,611.22 653.12,611.25 656.06,611.27 659.01,611.30 661.96,611.33 664.89,611.35 667.84,611.39 670.80,610.40 673.73,609.42 676.68,608.44 679.63,607.46 682.57,606.48 685.52,605.49 688.47,603.42 691.40,601.34 694.35,599.27 697.30,597.19 700.24,595.12 703.19,593.05 706.14,590.09 709.07,587.13 712.03,584.18 714.98,581.22 717.91,578.26 720.86,575.30 723.81,571.31 726.75,567.31 729.70,563.32 732.65,559.33 735.58,555.34 738.53,551.34 741.49,546.34 744.42,541.33 747.37,536.31 750.32,531.30 753.26,526.29 756.21,521.28 759.16,516.70 762.09,512.13 765.04,507.55 767.99,502.97 770.93,498.39 773.88,493.81 776.83,492.11 779.76,490.41 782.72,488.71 785.67,487.02 788.60,485.32 791.55,483.62 794.50,483.21 797.44,482.80 800.39,482.39 803.34,481.97 806.27,481.56 809.22,481.15 812.18,477.99 815.11,474.83 818.06,471.67 821.01,468.51 823.95,465.35 826.90,462.19 829.85,456.71 832.78,451.22 835.73,445.73 838.68,440.25 841.62,434.76 844.57,429.28 847.52,424.27 850.45,419.27 853.41,414.26 856.36,409.26 859.29,404.26 862.24,399.25 865.19,395.84 868.13,392.42 871.08,389.01 874.03,385.59 876.96,382.18 879.91,378.77 882.87,376.18 885.80,373.60 888.75,371.01 891.70,368.43 894.63,365.84 897.59,363.25 900.54,360.56 903.47,357.87 906.42,355.18 909.37,352.48 912.31,349.79 915.26,347.09 918.21,345.05 921.14,343.00 924.09,340.95 927.05,338.90 929.98,336.85 932.93,334.80 935.88,334.37 938.82,333.93 941.77,333.49 944.72,333.06 947.65,332.63 950.60,332.19 953.55,333.23 956.49,334.27 959.44,335.31 962.39,336.36 965.32,337.40 968.28,338.44 971.23,341.18 974.16,343.93 977.11,346.67 980.06,349.42 983.00,352.16 985.95,354.91 988.90,359.99 991.83,365.08 994.78,370.16 997.74,375.24 1000.67,380.33 1003.62,385.41 1006.57,393.62 1009.51,401.83 1012.46,410.04 1015.41,418.25 1018.34,426.46 1021.29,434.66 1024.24,447.60 1027.18,460.53 1030.13,473.47 1033.08,486.40 1036.01,499.33 1038.97,512.27 1041.92,528.18 1044.85,544.10 1047.80,560.01 1050.75,575.92 1053.69,591.84 1056.64,607.75 1059.59,615.73 1062.52,623.71 1065.47,631.69 1068.43,639.67 1071.36,647.65 1074.31,655.64" fill="none" stroke="#000000" stroke-width="3"/>
<line x1="142" y1="100" x2="178" y2="100" stroke="#000000" stroke-width="4"/>
<text x="188" y="105" font-family="Arial" font-size="18" fill="black">nut</text>
</svg>