<svg xmlns="http://www.w3.org/2000/svg" width="1200" height="820" viewBox="0 0 1200 820">
<rect width="100%" height="100%" fill="white"/>
<text x="600.0" y="36" text-anchor="middle" font-family="Arial" font-size="24" fill="black">profile_center_y: k</text>
<line x1="120.00" y1="75" x2="120.00" y2="705" stroke="#dddddd" stroke-width="1"/>
<text x="120.00" y="737" text-anchor="middle" font-family="Arial" font-size="16" fill="black">-0.400</text>
<line x1="376.25" y1="75" x2="376.25" y2="705" stroke="#dddddd" stroke-width="1"/>
<text x="376.25" y="737" text-anchor="middle" font-family="Arial" font-size="16" fill="black">1.050</text>
<line x1="632.50" y1="75" x2="632.50" y2="705" stroke="#dddddd" stroke-width="1"/>
<text x="632.50" y="737" text-anchor="middle" font-family="Arial" font-size="16" fill="black">2.500</text>
<line x1="888.75" y1="75" x2="888.75" y2="705" stroke="#dddddd" stroke-width="1"/>
<text x="888.75" y="737" text-anchor="middle" font-family="Arial" font-size="16" fill="black">3.950</text>
<line x1="1145.00" y1="75" x2="1145.00" y2="705" stroke="#dddddd" stroke-width="1"/>
<text x="1145.00" y="737" text-anchor="middle" font-family="Arial" font-size="16" fill="black">5.400</text>
<line x1="120" y1="705.00" x2="1145" y2="705.00" stroke="#dddddd" stroke-width="1"/>
<text x="104" y="710.00" text-anchor="end" font-family="Arial" font-size="16" fill="black">0.002</text>
<line x1="120" y1="547.50" x2="1145" y2="547.50" stroke="#dddddd" stroke-width="1"/>
<text x="104" y="552.50" text-anchor="end" font-family="Arial" font-size="16" fill="black">0.008</text>
<line x1="120" y1="390.00" x2="1145" y2="390.00" stroke="#dddddd" stroke-width="1"/>
<text x="104" y="395.00" text-anchor="end" font-family="Arial" font-size="16" fill="black">0.014</text>
<line x1="120" y1="232.50" x2="1145" y2="232.50" stroke="#dddddd" stroke-width="1"/>
<text x="104" y="237.50" text-anchor="end" font-family="Arial" font-size="16" fill="black">0.020</text>
<line x1="120" y1="75.00" x2="1145" y2="75.00" stroke="#dddddd" stroke-width="1"/>
<text x="104" y="80.00" text-anchor="end" font-family="Arial" font-size="16" fill="black">0.027</text>
<rect x="120" y="75" width="1025" height="630" fill="none" stroke="black" stroke-width="2"/>
<text x="632.5" y="785" text-anchor="middle" font-family="Arial" font-size="20" fill="black">y coordinate [m]</text>
<text x="34" y="390.0" transform="rotate(-90 34 390.0)" text-anchor="middle" font-family="Arial" font-size="20" fill="black">k [m2/s2]</text>
<polyline points="190.69,661.55 193.64,656.63 196.58,651.70 199.53,646.78 202.47,641.85 205.42,636.93 208.36,632.00 211.31,625.03 214.25,618.06 217.20,611.09 220.14,604.12 223.09,597.15 226.03,590.18 228.98,587.31 231.92,584.44 234.87,581.57 237.82,578.70 240.76,575.83 243.71,572.97 246.65,570.50 249.60,568.03 252.54,565.57 255.49,563.10 258.43,560.64 261.38,558.17 264.33,553.02 267.27,547.86 270.22,542.71 273.16,537.56 276.11,532.40 279.05,527.25 282.00,518.31 284.94,509.37 287.89,500.42 290.83,491.49 293.78,482.56 296.72,473.60 299.67,461.89 302.61,450.20 305.56,438.49 308.51,426.78 311.45,415.06 314.40,403.35 317.34,392.21 320.29,381.03 323.23,369.86 326.18,358.72 329.12,347.55 332.07,336.40 335.01,329.68 337.96,322.99 340.91,316.30 343.85,309.58 346.80,302.88 349.74,296.19 352.69,294.49 355.63,292.79 358.58,291.09 361.52,289.40 364.47,287.70 367.41,286.00 370.37,283.81 373.30,281.65 376.25,279.46 379.20,277.30 382.13,275.11 385.09,272.95 388.04,266.36 390.97,259.77 393.92,253.20 396.87,246.61 399.81,240.02 402.76,233.46 405.71,225.48 408.64,217.53 411.59,209.55 414.55,201.59 417.48,193.61 420.43,185.66 423.38,179.61 426.32,173.59 429.27,167.54 432.22,161.51 435.15,155.46 438.10,149.41 441.05,145.84 443.99,142.23 446.94,138.66 449.89,135.05 452.82,131.47 455.78,127.87 458.73,126.30 461.66,124.73 464.61,123.16 467.56,121.59 470.50,120.02 473.45,118.45 476.40,118.71 479.33,118.99 482.28,119.25 485.24,119.53 488.17,119.79 491.12,120.07 494.07,122.64 497.01,125.22 499.96,127.82 502.91,130.39 505.84,132.97 508.79,135.54 511.74,141.31 514.68,147.07 517.63,152.84 520.58,158.60 523.51,164.37 526.47,170.14 529.42,179.33 532.35,188.52 535.30,197.73 538.25,206.92 541.19,216.11 544.14,225.33 547.09,237.35 550.02,249.34 552.97,261.36 555.93,273.38 558.86,285.41 561.81,297.40 564.76,311.71 567.70,326.03 570.65,340.34 573.60,354.62 576.53,368.94 579.48,383.25 582.43,397.89 585.37,412.57 588.32,427.21 591.27,441.89 594.20,456.53 597.16,471.21 600.11,482.48 603.04,493.78 605.99,505.06 608.94,516.35 611.88,527.64 614.83,538.93 617.78,545.10 620.71,551.26 623.66,557.43 626.62,563.60 629.55,569.77 632.50,575.94 635.45,578.41 638.38,580.88 641.34,583.35 644.29,585.82 647.22,588.29 650.17,590.76 653.12,591.37 656.06,591.98 659.01,592.59 661.96,593.20 664.89,593.81 667.84,594.42 670.80,594.02 673.73,593.62 676.68,593.22 679.63,592.82 682.57,592.42 685.52,592.02 688.47,591.41 691.40,590.81 694.35,590.20 697.30,589.60 700.24,589.00 703.19,588.40 706.14,588.03 709.07,587.67 712.03,587.30 714.98,586.94 717.91,586.58 720.86,586.21 723.81,585.56 726.75,584.90 729.70,584.25 732.65,583.59 735.58,582.94 738.53,582.29 741.49,580.64 744.42,578.99 747.37,577.34 750.32,575.69 753.26,574.04 756.21,572.39 759.16,569.04 762.09,565.69 765.04,562.33 767.99,558.98 770.93,555.62 773.88,552.27 776.83,546.30 779.76,540.33 782.72,534.36 785.67,528.39 788.60,522.42 791.55,516.45 794.50,508.21 797.44,499.96 800.39,491.72 803.34,483.46 806.27,475.22 809.22,466.96 812.18,460.68 815.11,454.40 818.06,448.09 821.01,441.81 823.95,435.50 826.90,429.22 829.85,428.63 832.78,428.01 835.73,427.42 838.68,426.80 841.62,426.21 844.57,425.59 847.52,426.70 850.45,427.81 853.41,428.89 856.36,429.99 859.29,431.08 862.24,432.18 865.19,429.35 868.13,426.52 871.08,423.69 874.03,420.86 876.96,418.02 879.91,415.19 882.87,410.92 885.80,406.67 888.75,402.43 891.70,398.18 894.63,393.93 897.59,389.68 900.54,390.22 903.47,390.76 906.42,391.31 909.37,391.85 912.31,392.41 915.26,392.95 918.21,398.36 921.14,403.79 924.09,409.20 927.05,414.63 929.98,420.06 932.93,425.46 935.88,432.44 938.82,439.39 941.77,446.37 944.72,453.34 947.65,460.32 950.60,467.27 953.55,474.11 956.49,480.96 959.44,487.81 962.39,494.63 965.32,501.48 968.28,508.32 971.23,514.12 974.16,519.91 977.11,525.71 980.06,531.51 983.00,537.30 985.95,543.10 988.90,547.54 991.83,551.98 994.78,556.42 997.74,560.87 1000.67,565.31 1003.62,569.75 1006.57,573.14 1009.51,576.54 1012.46,579.93 1015.41,583.32 1018.34,586.71 1021.29,590.11 1024.24,593.37 1027.18,596.63 1030.13,599.90 1033.08,603.16 1036.01,606.42 1038.97,609.69 1041.92,612.81 1044.85,615.94 1047.80,619.06 1050.75,622.19 1053.69,625.31 1056.64,628.44 1059.59,629.81 1062.52,631.18 1065.47,632.55 1068.43,633.92 1071.36,635.29 1074.31,636.65" fill="none" stroke="#000000" stroke-width="3"/>
<line x1="142" y1="100" x2="178" y2="100" stroke="#000000" stroke-width="4"/>
<text x="188" y="105" font-family="Arial" font-size="18" fill="black">k</text>
</svg>