<svg xmlns="http://www.w3.org/2000/svg" width="1200" height="820" viewBox="0 0 1200 820">
<rect width="100%" height="100%" fill="white"/>
<text x="600.0" y="36" text-anchor="middle" font-family="Arial" font-size="24" fill="black">profile_center_z: nut</text>
<line x1="120.00" y1="75" x2="120.00" y2="705" stroke="#dddddd" stroke-width="1"/>
<text x="120.00" y="737" text-anchor="middle" font-family="Arial" font-size="16" fill="black">-0.240</text>
<line x1="376.25" y1="75" x2="376.25" y2="705" stroke="#dddddd" stroke-width="1"/>
<text x="376.25" y="737" text-anchor="middle" font-family="Arial" font-size="16" fill="black">0.630</text>
<line x1="632.50" y1="75" x2="632.50" y2="705" stroke="#dddddd" stroke-width="1"/>
<text x="632.50" y="737" text-anchor="middle" font-family="Arial" font-size="16" fill="black">1.500</text>
<line x1="888.75" y1="75" x2="888.75" y2="705" stroke="#dddddd" stroke-width="1"/>
<text x="888.75" y="737" text-anchor="middle" font-family="Arial" font-size="16" fill="black">2.370</text>
<line x1="1145.00" y1="75" x2="1145.00" y2="705" stroke="#dddddd" stroke-width="1"/>
<text x="1145.00" y="737" text-anchor="middle" font-family="Arial" font-size="16" fill="black">3.240</text>
<line x1="120" y1="705.00" x2="1145" y2="705.00" stroke="#dddddd" stroke-width="1"/>
<text x="104" y="710.00" text-anchor="end" font-family="Arial" font-size="16" fill="black">3.17e-05</text>
<line x1="120" y1="547.50" x2="1145" y2="547.50" stroke="#dddddd" stroke-width="1"/>
<text x="104" y="552.50" text-anchor="end" font-family="Arial" font-size="16" fill="black">0.003</text>
<line x1="120" y1="390.00" x2="1145" y2="390.00" stroke="#dddddd" stroke-width="1"/>
<text x="104" y="395.00" text-anchor="end" font-family="Arial" font-size="16" fill="black">0.005</text>
<line x1="120" y1="232.50" x2="1145" y2="232.50" stroke="#dddddd" stroke-width="1"/>
<text x="104" y="237.50" text-anchor="end" font-family="Arial" font-size="16" fill="black">0.007</text>
<line x1="120" y1="75.00" x2="1145" y2="75.00" stroke="#dddddd" stroke-width="1"/>
<text x="104" y="80.00" text-anchor="end" font-family="Arial" font-size="16" fill="black">0.010</text>
<rect x="120" y="75" width="1025" height="630" fill="none" stroke="black" stroke-width="2"/>
<text x="632.5" y="785" text-anchor="middle" font-family="Arial" font-size="20" fill="black">z coordinate [m]</text>
<text x="34" y="390.0" transform="rotate(-90 34 390.0)" text-anchor="middle" font-family="Arial" font-size="20" fill="black">nut [m2/s]</text>
<polyline points="190.69,655.01 193.64,655.08 196.58,655.16 199.53,655.24 202.47,655.31 205.42,655.39 208.36,655.46 211.31,655.54 214.25,655.62 217.20,655.69 220.14,655.77 223.09,655.91 226.03,656.06 228.98,656.20 231.93,656.34 234.87,656.48 237.82,656.63 240.76,656.77 243.71,656.91 246.65,657.06 249.60,657.20 252.54,657.32 255.49,657.45 258.43,657.57 261.38,657.70 264.32,657.82 267.27,657.95 270.22,658.07 273.16,658.20 276.11,658.32 279.05,658.45 282.00,658.56 284.94,658.67 287.89,658.77 290.83,658.88 293.78,658.99 296.72,659.10 299.67,659.20 302.61,659.31 305.56,659.42 308.51,659.53 311.45,659.62 314.40,659.71 317.34,659.79 320.29,659.88 323.23,659.97 326.18,660.06 329.12,660.15 332.07,660.24 335.01,660.33 337.96,660.42 340.91,660.49 343.85,660.56 346.80,660.62 349.74,660.69 352.69,660.76 355.63,660.83 358.58,660.90 361.52,660.96 364.47,661.03 367.41,661.10 370.36,661.14 373.30,661.18 376.25,661.22 379.20,661.26 382.14,661.30 385.09,661.34 388.03,661.39 390.98,661.43 393.92,661.47 396.87,661.51 399.81,661.51 402.76,661.52 405.70,661.52 408.65,661.53 411.59,661.53 414.54,661.53 417.49,661.54 420.43,661.54 423.38,661.55 426.32,661.55 429.27,661.50 432.21,661.45 435.16,661.40 438.10,661.34 441.05,661.29 443.99,661.24 446.94,661.19 449.89,661.13 452.83,661.08 455.78,661.03 458.72,660.90 461.67,660.76 464.61,660.63 467.56,660.49 470.50,660.36 473.45,660.22 476.39,660.09 479.34,659.95 482.28,659.82 485.23,659.68 488.18,659.45 491.12,659.21 494.07,658.97 497.01,658.74 499.96,658.50 502.90,658.26 505.85,658.03 508.79,657.79 511.74,657.55 514.68,657.32 517.63,656.97 520.57,656.63 523.52,656.29 526.47,655.94 529.41,655.60 532.36,655.25 535.30,654.91 538.25,654.57 541.19,654.22 544.14,653.88 547.08,653.41 550.03,652.93 552.97,652.46 555.92,651.99 558.86,651.51 561.81,651.04 564.76,650.57 567.70,650.09 570.65,649.62 573.59,649.15 576.54,648.26 579.48,647.37 582.43,646.48 585.37,645.60 588.32,644.71 591.26,643.82 594.21,642.94 597.16,642.05 600.10,641.16 603.05,640.27 605.99,636.97 608.94,633.67 611.88,630.38 614.83,627.08 617.77,623.78 620.72,620.48 623.66,617.19 626.61,613.89 629.55,610.59 632.50,607.29 635.45,597.03 638.39,586.76 641.34,576.50 644.28,566.23 647.23,555.97 650.17,545.70 653.12,535.43 656.06,525.17 659.01,514.90 661.95,504.64 664.90,487.39 667.84,470.15 670.79,452.90 673.74,435.66 676.68,418.41 679.63,401.16 682.57,383.91 685.52,366.67 688.46,349.42 691.41,332.17 694.35,317.15 697.30,302.11 700.24,287.08 703.19,272.05 706.14,257.02 709.08,241.99 712.03,226.95 714.97,211.93 717.92,196.89 720.86,181.86 723.81,175.52 726.75,169.18 729.70,162.84 732.64,156.50 735.59,150.15 738.53,143.81 741.48,137.47 744.43,131.13 747.37,124.79 750.32,118.45 753.26,119.19 756.21,119.93 759.15,120.67 762.10,121.41 765.04,122.15 767.99,122.89 770.93,123.63 773.88,124.37 776.82,125.11 779.77,125.85 782.72,130.77 785.66,135.70 788.61,140.63 791.55,145.55 794.50,150.48 797.44,155.40 800.39,160.33 803.33,165.26 806.28,170.18 809.22,175.10 812.17,182.19 815.11,189.27 818.06,196.35 821.01,203.43 823.95,210.52 826.90,217.60 829.84,224.68 832.79,231.77 835.73,238.85 838.68,245.93 841.62,253.66 844.57,261.39 847.51,269.12 850.46,276.85 853.41,284.58 856.35,292.30 859.30,300.03 862.24,307.76 865.19,315.49 868.13,323.22 871.08,330.16 874.02,337.12 876.97,344.07 879.91,351.01 882.86,357.97 885.80,364.92 888.75,371.86 891.70,378.82 894.64,385.76 897.59,392.71 900.53,397.53 903.48,402.34 906.42,407.15 909.37,411.97 912.31,416.78 915.26,421.59 918.20,426.40 921.15,431.21 924.09,436.03 927.04,440.84 929.99,442.83 932.93,444.82 935.88,446.81 938.82,448.80 941.77,450.78 944.71,452.77 947.66,454.76 950.60,456.74 953.55,458.73 956.49,460.72 959.44,460.72 962.39,460.72 965.33,460.73 968.28,460.73 971.22,460.73 974.17,460.73 977.11,460.73 980.06,460.73 983.00,460.73 985.95,460.73 988.89,462.14 991.84,463.55 994.78,464.96 997.73,466.37 1000.68,467.78 1003.62,469.18 1006.57,470.59 1009.51,472.00 1012.46,473.40 1015.40,474.81 1018.35,482.64 1021.29,490.47 1024.24,498.30 1027.18,506.13 1030.13,513.96 1033.07,521.79 1036.02,529.62 1038.97,537.45 1041.91,545.28 1044.86,553.11 1047.80,559.27 1050.75,565.42 1053.69,571.57 1056.64,577.73 1059.58,583.88 1062.53,590.04 1065.47,596.19 1068.42,602.34 1071.36,608.50 1074.31,614.66" fill="none" stroke="#000000" stroke-width="3"/>
<line x1="142" y1="100" x2="178" y2="100" stroke="#000000" stroke-width="4"/>
<text x="188" y="105" font-family="Arial" font-size="18" fill="black">nut</text>
</svg>