<svg xmlns="http://www.w3.org/2000/svg" width="1200" height="820" viewBox="0 0 1200 820">
<rect width="100%" height="100%" fill="white"/>
<text x="600.0" y="36" text-anchor="middle" font-family="Arial" font-size="24" fill="black">profile_rack_height_x: k</text>
<line x1="120.00" y1="75" x2="120.00" y2="705" stroke="#dddddd" stroke-width="1"/>
<text x="120.00" y="737" text-anchor="middle" font-family="Arial" font-size="16" fill="black">-0.560</text>
<line x1="376.25" y1="75" x2="376.25" y2="705" stroke="#dddddd" stroke-width="1"/>
<text x="376.25" y="737" text-anchor="middle" font-family="Arial" font-size="16" fill="black">1.470</text>
<line x1="632.50" y1="75" x2="632.50" y2="705" stroke="#dddddd" stroke-width="1"/>
<text x="632.50" y="737" text-anchor="middle" font-family="Arial" font-size="16" fill="black">3.500</text>
<line x1="888.75" y1="75" x2="888.75" y2="705" stroke="#dddddd" stroke-width="1"/>
<text x="888.75" y="737" text-anchor="middle" font-family="Arial" font-size="16" fill="black">5.530</text>
<line x1="1145.00" y1="75" x2="1145.00" y2="705" stroke="#dddddd" stroke-width="1"/>
<text x="1145.00" y="737" text-anchor="middle" font-family="Arial" font-size="16" fill="black">7.560</text>
<line x1="120" y1="705.00" x2="1145" y2="705.00" stroke="#dddddd" stroke-width="1"/>
<text x="104" y="710.00" text-anchor="end" font-family="Arial" font-size="16" fill="black">0.002</text>
<line x1="120" y1="547.50" x2="1145" y2="547.50" stroke="#dddddd" stroke-width="1"/>
<text x="104" y="552.50" text-anchor="end" font-family="Arial" font-size="16" fill="black">0.009</text>
<line x1="120" y1="390.00" x2="1145" y2="390.00" stroke="#dddddd" stroke-width="1"/>
<text x="104" y="395.00" text-anchor="end" font-family="Arial" font-size="16" fill="black">0.016</text>
<line x1="120" y1="232.50" x2="1145" y2="232.50" stroke="#dddddd" stroke-width="1"/>
<text x="104" y="237.50" text-anchor="end" font-family="Arial" font-size="16" fill="black">0.023</text>
<line x1="120" y1="75.00" x2="1145" y2="75.00" stroke="#dddddd" stroke-width="1"/>
<text x="104" y="80.00" text-anchor="end" font-family="Arial" font-size="16" fill="black">0.029</text>
<rect x="120" y="75" width="1025" height="630" fill="none" stroke="black" stroke-width="2"/>
<text x="632.5" y="785" text-anchor="middle" font-family="Arial" font-size="20" fill="black">x coordinate [m]</text>
<text x="34" y="390.0" transform="rotate(-90 34 390.0)" text-anchor="middle" font-family="Arial" font-size="20" fill="black">k [m2/s2]</text>
<polyline points="190.69,641.20 193.64,635.91 196.58,630.61 199.53,625.32 202.47,620.03 205.42,612.60 208.36,604.31 211.31,596.03 214.25,587.75 217.20,580.95 220.14,576.14 223.09,571.34 226.03,566.53 228.98,561.91 231.93,558.46 234.87,555.00 237.82,551.54 240.76,548.09 243.71,544.37 246.65,540.60 249.60,536.83 252.54,533.07 255.49,528.42 258.43,523.11 261.38,517.79 264.32,512.47 267.27,506.42 270.22,498.46 273.16,490.50 276.11,482.57 279.05,474.61 282.00,463.52 284.94,452.40 287.89,441.29 290.83,430.17 293.78,417.57 296.72,404.36 299.67,391.15 302.62,377.94 305.56,365.18 308.51,353.03 311.45,340.86 314.40,328.71 317.34,317.24 320.29,309.99 323.23,302.71 326.17,295.43 329.13,288.16 332.07,285.12 335.01,282.79 337.96,280.43 340.91,278.10 343.85,276.48 346.80,275.39 349.74,274.33 352.68,273.25 355.64,275.51 358.58,286.15 361.52,296.77 364.47,307.42 367.41,318.04 370.35,344.01 373.31,369.98 376.25,395.93 379.19,421.91 382.15,446.16 385.09,469.71 388.03,493.28 390.98,516.83 393.92,535.78 396.86,548.56 399.82,561.35 402.76,574.13 405.70,585.59 408.65,589.10 411.59,592.60 414.54,596.11 417.49,599.62 420.43,596.96 423.37,593.28 426.33,589.59 429.27,585.91 432.21,579.23 435.16,570.30 438.10,561.37 441.04,552.44 444.00,542.57 446.94,530.34 449.88,518.10 452.83,505.88 455.78,493.66 458.72,481.55 461.67,469.47 464.61,457.37 467.55,445.29 470.51,436.01 473.45,427.89 476.39,419.76 479.34,411.64 482.28,405.49 485.23,401.96 488.18,398.43 491.12,394.92 494.06,391.67 497.02,390.14 499.96,388.59 502.90,387.06 505.85,385.53 508.79,383.27 511.73,380.91 514.69,378.53 517.63,376.15 520.57,372.46 523.52,367.77 526.47,363.09 529.41,358.40 532.36,353.27 535.30,347.07 538.24,340.86 541.20,334.64 544.14,328.42 547.08,325.01 550.03,321.59 552.97,318.18 555.92,314.74 558.87,317.92 561.81,323.71 564.75,329.51 567.71,335.30 570.65,346.20 573.59,363.93 576.54,381.69 579.48,399.42 582.42,417.79 585.38,439.85 588.32,461.94 591.26,484.03 594.21,506.11 597.16,521.58 600.10,535.95 603.05,550.32 605.99,564.69 608.93,573.74 611.89,578.79 614.83,583.84 617.77,588.89 620.72,592.78 623.66,593.76 626.60,594.74 629.56,595.71 632.50,596.69 635.44,595.30 638.40,593.90 641.34,592.50 644.28,591.10 647.23,586.58 650.17,580.79 653.11,575.01 656.07,569.22 659.01,560.99 661.95,549.50 664.90,538.00 667.84,526.51 670.79,514.57 673.74,500.01 676.68,485.46 679.62,470.91 682.58,456.36 685.52,442.89 688.46,429.58 691.41,416.28 694.35,402.97 697.29,392.03 700.25,382.84 703.19,373.66 706.13,364.47 709.08,356.61 712.03,352.04 714.97,347.45 717.92,342.88 720.86,338.29 723.80,337.06 726.76,335.84 729.70,334.59 732.64,333.37 735.59,333.13 738.53,333.27 741.48,333.41 744.43,333.56 747.37,333.49 750.31,333.13 753.27,332.78 756.21,332.40 759.15,331.79 762.10,329.62 765.04,327.46 767.98,325.29 770.94,323.12 773.88,318.74 776.82,314.01 779.77,309.26 782.72,304.52 785.66,298.21 788.61,290.70 791.55,283.21 794.49,275.72 797.45,267.60 800.39,257.92 803.33,248.24 806.28,238.59 809.22,228.91 812.17,218.38 815.12,207.86 818.06,197.33 821.00,186.81 823.96,177.08 826.90,167.71 829.84,158.34 832.79,148.97 835.73,141.08 838.67,135.19 841.63,129.30 844.57,123.42 847.51,118.45 850.46,118.97 853.41,119.48 856.35,120.00 859.30,120.52 862.24,125.84 865.18,131.99 868.14,138.11 871.08,144.26 874.02,151.16 876.97,158.64 879.91,166.13 882.85,173.60 885.81,180.76 888.75,187.07 891.69,193.35 894.65,199.66 897.59,205.95 900.53,210.45 903.48,214.92 906.42,219.40 909.36,223.89 912.32,228.18 915.26,232.40 918.20,236.63 921.15,240.85 924.09,244.83 927.04,248.48 929.99,252.15 932.93,255.80 935.87,259.31 938.83,261.90 941.77,264.49 944.71,267.06 947.66,269.65 950.60,274.59 953.54,279.94 956.50,285.28 959.44,290.61 962.38,299.44 965.33,310.88 968.28,322.30 971.22,333.74 974.17,346.25 977.11,361.41 980.05,376.58 983.01,391.74 985.95,406.91 988.89,420.42 991.84,433.94 994.78,447.48 997.73,461.00 1000.68,471.95 1003.62,481.88 1006.56,491.80 1009.52,501.71 1012.46,510.59 1015.40,518.01 1018.35,525.45 1021.29,532.88 1024.23,540.18 1027.19,546.60 1030.13,553.02 1033.07,559.45 1036.02,565.87 1038.97,572.85 1041.91,579.92 1044.86,586.98 1047.80,594.05 1050.74,602.50 1053.70,611.98 1056.64,621.46 1059.58,630.94 1062.53,639.30 1065.47,644.86 1068.42,650.43 1071.37,655.99 1074.31,661.55" fill="none" stroke="#000000" stroke-width="3"/>
<line x1="142" y1="100" x2="178" y2="100" stroke="#000000" stroke-width="4"/>
<text x="188" y="105" font-family="Arial" font-size="18" fill="black">k</text>
</svg>