<svg xmlns="http://www.w3.org/2000/svg" width="1200" height="820" viewBox="0 0 1200 820">
<rect width="100%" height="100%" fill="white"/>
<text x="600.0" y="36" text-anchor="middle" font-family="Arial" font-size="24" fill="black">profile_near_ceiling_x: U, V, W components</text>
<line x1="120.00" y1="75" x2="120.00" y2="705" stroke="#dddddd" stroke-width="1"/>
<text x="120.00" y="737" text-anchor="middle" font-family="Arial" font-size="16" fill="black">-0.560</text>
<line x1="376.25" y1="75" x2="376.25" y2="705" stroke="#dddddd" stroke-width="1"/>
<text x="376.25" y="737" text-anchor="middle" font-family="Arial" font-size="16" fill="black">1.470</text>
<line x1="632.50" y1="75" x2="632.50" y2="705" stroke="#dddddd" stroke-width="1"/>
<text x="632.50" y="737" text-anchor="middle" font-family="Arial" font-size="16" fill="black">3.500</text>
<line x1="888.75" y1="75" x2="888.75" y2="705" stroke="#dddddd" stroke-width="1"/>
<text x="888.75" y="737" text-anchor="middle" font-family="Arial" font-size="16" fill="black">5.530</text>
<line x1="1145.00" y1="75" x2="1145.00" y2="705" stroke="#dddddd" stroke-width="1"/>
<text x="1145.00" y="737" text-anchor="middle" font-family="Arial" font-size="16" fill="black">7.560</text>
<line x1="120" y1="705.00" x2="1145" y2="705.00" stroke="#dddddd" stroke-width="1"/>
<text x="104" y="710.00" text-anchor="end" font-family="Arial" font-size="16" fill="black">-0.338</text>
<line x1="120" y1="547.50" x2="1145" y2="547.50" stroke="#dddddd" stroke-width="1"/>
<text x="104" y="552.50" text-anchor="end" font-family="Arial" font-size="16" fill="black">-0.131</text>
<line x1="120" y1="390.00" x2="1145" y2="390.00" stroke="#dddddd" stroke-width="1"/>
<text x="104" y="395.00" text-anchor="end" font-family="Arial" font-size="16" fill="black">0.076</text>
<line x1="120" y1="232.50" x2="1145" y2="232.50" stroke="#dddddd" stroke-width="1"/>
<text x="104" y="237.50" text-anchor="end" font-family="Arial" font-size="16" fill="black">0.284</text>
<line x1="120" y1="75.00" x2="1145" y2="75.00" stroke="#dddddd" stroke-width="1"/>
<text x="104" y="80.00" text-anchor="end" font-family="Arial" font-size="16" fill="black">0.491</text>
<rect x="120" y="75" width="1025" height="630" fill="none" stroke="black" stroke-width="2"/>
<text x="632.5" y="785" text-anchor="middle" font-family="Arial" font-size="20" fill="black">x coordinate [m]</text>
<text x="34" y="390.0" transform="rotate(-90 34 390.0)" text-anchor="middle" font-family="Arial" font-size="20" fill="black">velocity component [m/s]</text>
<polyline points="190.69,495.34 193.64,499.71 196.58,504.08 199.53,508.46 202.47,512.83 205.42,520.83 208.36,530.28 211.31,539.73 214.25,549.18 217.20,558.10 220.14,566.30 223.09,574.50 226.03,582.69 228.98,590.47 231.93,595.64 234.87,600.82 237.82,605.99 240.76,611.17 243.71,614.58 246.65,617.70 249.60,620.81 252.54,623.92 255.49,626.00 258.43,627.32 261.38,628.63 264.32,629.95 267.27,630.84 270.22,630.70 273.16,630.55 276.11,630.40 279.05,630.26 282.00,628.94 284.94,627.63 287.89,626.32 290.83,625.01 293.78,623.06 296.72,620.85 299.67,618.64 302.62,616.43 305.56,613.94 308.51,611.06 311.45,608.19 314.40,605.31 317.34,602.37 320.29,599.07 323.23,595.77 326.17,592.47 329.13,589.17 332.07,585.73 335.01,582.28 337.96,578.82 340.91,575.37 343.85,571.99 346.80,568.66 349.74,565.33 352.68,562.00 355.64,558.80 358.58,555.87 361.52,552.94 364.47,550.02 367.41,547.09 370.35,544.80 373.31,542.51 376.25,540.22 379.19,537.93 382.15,536.26 385.09,534.84 388.03,533.43 390.98,532.01 393.92,531.05 396.86,530.70 399.82,530.35 402.76,530.00 405.70,529.80 408.65,530.52 411.59,531.24 414.54,531.96 417.49,532.69 420.43,534.11 423.37,535.65 426.33,537.19 429.27,538.72 432.21,540.50 435.16,542.45 438.10,544.40 441.04,546.35 444.00,548.31 446.94,550.29 449.88,552.27 452.83,554.26 455.78,556.24 458.72,557.99 461.67,559.73 464.61,561.48 467.55,563.23 470.51,564.69 473.45,566.04 476.39,567.39 479.34,568.73 482.28,569.86 485.23,570.69 488.18,571.51 491.12,572.33 494.06,573.06 497.02,573.23 499.96,573.40 502.90,573.56 505.85,573.72 508.79,573.22 511.73,572.62 514.69,572.02 517.63,571.41 520.57,570.32 523.52,568.88 526.47,567.43 529.41,565.98 532.36,564.25 535.30,561.82 538.24,559.38 541.20,556.95 544.14,554.52 547.08,550.98 550.03,547.45 552.97,543.92 555.92,540.38 558.87,536.13 561.81,531.58 564.75,527.03 567.71,522.48 570.65,517.59 573.59,512.25 576.54,506.90 579.48,501.56 582.42,496.13 585.38,490.21 588.32,484.28 591.26,478.36 594.21,472.44 597.16,466.29 600.10,460.11 603.05,453.93 605.99,447.74 608.93,441.78 611.89,435.97 614.83,430.16 617.77,424.36 620.72,418.58 623.66,412.87 626.60,407.17 629.56,401.46 632.50,395.76 635.44,389.62 638.40,383.48 641.34,377.34 644.28,371.20 647.23,364.83 650.17,358.38 653.11,351.93 656.07,345.47 659.01,338.97 661.95,332.42 664.90,325.87 667.84,319.32 670.79,312.81 673.74,306.51 676.68,300.20 679.62,293.90 682.58,287.59 685.52,281.63 688.46,275.71 691.41,269.80 694.35,263.89 697.29,258.25 700.25,252.83 703.19,247.40 706.13,241.97 709.08,236.69 712.03,231.80 714.97,226.90 717.92,222.00 720.86,217.10 723.80,212.75 726.76,208.39 729.70,204.03 732.64,199.67 735.59,195.69 738.53,191.87 741.48,188.04 744.43,184.21 747.37,180.60 750.31,177.28 753.27,173.96 756.21,170.64 759.15,167.39 762.10,164.57 765.04,161.74 767.98,158.90 770.94,156.07 773.88,153.63 776.82,151.25 779.77,148.88 782.72,146.51 785.66,144.37 788.61,142.43 791.55,140.48 794.49,138.54 797.45,136.70 800.39,135.16 803.33,133.61 806.28,132.06 809.22,130.52 812.17,129.33 815.12,128.16 818.06,126.98 821.00,125.79 823.96,124.86 826.90,124.02 829.84,123.17 832.79,122.32 835.73,121.61 838.67,121.07 841.63,120.54 844.57,120.00 847.51,119.50 850.46,119.25 853.41,118.99 856.35,118.73 859.30,118.48 862.24,118.45 865.18,118.46 868.14,118.46 871.08,118.47 874.02,118.62 876.97,118.88 879.91,119.14 882.85,119.40 885.81,119.73 888.75,120.23 891.69,120.73 894.65,121.23 897.59,121.73 900.53,122.47 903.48,123.22 906.42,123.96 909.36,124.70 912.32,125.63 915.26,126.63 918.20,127.63 921.15,128.63 924.09,129.76 927.04,131.06 929.99,132.35 932.93,133.64 935.87,134.99 938.83,136.64 941.77,138.29 944.71,139.94 947.66,141.59 950.60,143.62 953.54,145.72 956.50,147.82 959.44,149.92 962.38,152.35 965.33,155.01 968.28,157.68 971.22,160.35 974.17,163.22 977.11,166.60 980.05,169.99 983.01,173.37 985.95,176.75 988.89,181.02 991.84,185.29 994.78,189.56 997.73,193.83 1000.68,198.87 1003.62,204.22 1006.56,209.58 1009.52,214.93 1012.46,220.87 1015.40,227.57 1018.35,234.26 1021.29,240.96 1024.23,247.88 1027.19,256.16 1030.13,264.43 1033.07,272.71 1036.02,280.99 1038.97,291.28 1041.91,301.93 1044.86,312.56 1047.80,323.20 1050.74,334.12 1053.70,345.26 1056.64,356.39 1059.58,367.53 1062.53,376.93 1065.47,381.98 1068.42,387.03 1071.37,392.08 1074.31,397.13" fill="none" stroke="#000000" stroke-width="3"/>
<line x1="142" y1="100" x2="178" y2="100" stroke="#000000" stroke-width="4"/>
<text x="188" y="105" font-family="Arial" font-size="18" fill="black">Ux / u</text>
<polyline points="190.69,638.12 193.64,638.78 196.58,639.43 199.53,640.09 202.47,640.75 205.42,641.60 208.36,642.53 211.31,643.46 214.25,644.39 217.20,645.15 220.14,645.68 223.09,646.21 226.03,646.73 228.98,647.26 231.93,647.74 234.87,648.23 237.82,648.72 240.76,649.20 243.71,649.66 246.65,650.11 249.60,650.55 252.54,651.01 255.49,651.44 258.43,651.86 261.38,652.28 264.32,652.70 267.27,653.11 270.22,653.50 273.16,653.89 276.11,654.28 279.05,654.66 282.00,655.04 284.94,655.41 287.89,655.79 290.83,656.16 293.78,656.53 296.72,656.90 299.67,657.28 302.62,657.66 305.56,658.02 308.51,658.38 311.45,658.73 314.40,659.10 317.34,659.45 320.29,659.76 323.23,660.06 326.17,660.37 329.13,660.68 332.07,660.89 335.01,661.09 337.96,661.28 340.91,661.48 343.85,661.55 346.80,661.54 349.74,661.52 352.68,661.51 355.64,661.40 358.58,661.07 361.52,660.72 364.47,660.38 367.41,660.04 370.35,659.29 373.31,658.54 376.25,657.78 379.19,657.03 382.15,655.98 385.09,654.82 388.03,653.66 390.98,652.50 393.92,651.20 396.86,649.72 399.82,648.24 402.76,646.77 405.70,645.27 408.65,643.59 411.59,641.91 414.54,640.23 417.49,638.55 420.43,636.76 423.37,634.94 426.33,633.12 429.27,631.31 432.21,629.43 435.16,627.51 438.10,625.59 441.04,623.67 444.00,621.72 446.94,619.70 449.88,617.68 452.83,615.66 455.78,613.64 458.72,611.49 461.67,609.34 464.61,607.19 467.55,605.04 470.51,602.78 473.45,600.46 476.39,598.15 479.34,595.84 482.28,593.45 485.23,590.95 488.18,588.44 491.12,585.95 494.06,583.40 497.02,580.61 499.96,577.83 502.90,575.05 505.85,572.26 508.79,568.99 511.73,565.65 514.69,562.32 517.63,558.97 520.57,555.07 523.52,550.74 526.47,546.42 529.41,542.09 532.36,537.45 535.30,532.02 538.24,526.59 541.20,521.16 544.14,515.73 547.08,509.23 550.03,502.73 552.97,496.23 555.92,489.73 558.87,482.51 561.81,475.00 564.75,467.49 567.71,459.98 570.65,452.09 573.59,443.69 576.54,435.29 579.48,426.90 582.42,418.40 585.38,409.28 588.32,400.17 591.26,391.05 594.21,381.93 597.16,373.14 600.10,364.40 603.05,355.66 605.99,346.93 608.93,339.56 611.89,333.23 614.83,326.89 617.77,320.56 620.72,314.94 623.66,311.13 626.60,307.32 629.56,303.51 632.50,299.70 635.44,296.87 638.40,294.03 641.34,291.20 644.28,288.37 647.23,286.01 650.17,283.82 653.11,281.64 656.07,279.46 659.01,277.61 661.95,276.18 664.90,274.77 667.84,273.35 670.79,272.02 673.74,271.20 676.68,270.38 679.62,269.57 682.58,268.75 685.52,268.32 688.46,267.96 691.41,267.60 694.35,267.24 697.29,267.07 700.25,267.03 703.19,267.00 706.13,266.97 709.08,266.99 712.03,267.18 714.97,267.35 717.92,267.53 720.86,267.70 723.80,267.99 726.76,268.27 729.70,268.55 732.64,268.84 735.59,269.14 738.53,269.44 741.48,269.74 744.43,270.05 747.37,270.34 750.31,270.61 753.27,270.88 756.21,271.16 759.15,271.41 762.10,271.63 765.04,271.83 767.98,272.05 770.94,272.26 773.88,272.40 776.82,272.55 779.77,272.68 782.72,272.83 785.66,272.93 788.61,273.02 791.55,273.09 794.49,273.18 797.45,273.25 800.39,273.28 803.33,273.32 806.28,273.36 809.22,273.40 812.17,273.41 815.12,273.44 818.06,273.45 821.00,273.47 823.96,273.50 826.90,273.52 829.84,273.54 832.79,273.56 835.73,273.59 838.67,273.65 841.63,273.69 844.57,273.74 847.51,273.79 850.46,273.88 853.41,273.98 856.35,274.07 859.30,274.16 862.24,274.31 865.18,274.46 868.14,274.62 871.08,274.77 874.02,274.97 876.97,275.20 879.91,275.43 882.85,275.67 885.81,275.93 888.75,276.25 891.69,276.57 894.65,276.90 897.59,277.23 900.53,277.65 903.48,278.08 906.42,278.51 909.36,278.93 912.32,279.44 915.26,279.99 918.20,280.53 921.15,281.08 924.09,281.67 927.04,282.33 929.99,282.99 932.93,283.66 935.87,284.33 938.83,285.11 941.77,285.89 944.71,286.67 947.66,287.45 950.60,288.31 953.54,289.19 956.50,290.06 959.44,290.94 962.38,291.85 965.33,292.80 968.28,293.74 971.22,294.68 974.17,295.63 977.11,296.60 980.05,297.57 983.01,298.55 985.95,299.52 988.89,300.48 991.84,301.45 994.78,302.41 997.73,303.38 1000.68,304.33 1003.62,305.27 1006.56,306.20 1009.52,307.14 1012.46,308.06 1015.40,308.97 1018.35,309.88 1021.29,310.78 1024.23,311.69 1027.19,312.60 1030.13,313.51 1033.07,314.43 1036.02,315.34 1038.97,316.36 1041.91,317.41 1044.86,318.45 1047.80,319.49 1050.74,320.91 1053.70,322.63 1056.64,324.35 1059.58,326.06 1062.53,327.61 1065.47,328.75 1068.42,329.89 1071.37,331.02 1074.31,332.16" fill="none" stroke="#555555" stroke-width="3" stroke-dasharray="9 5"/>
<line x1="142" y1="128" x2="178" y2="128" stroke="#555555" stroke-width="4" stroke-dasharray="9 5"/>
<text x="188" y="133" font-family="Arial" font-size="18" fill="black">Uy / v</text>
<polyline points="190.69,554.28 193.64,551.14 196.58,547.99 199.53,544.84 202.47,541.69 205.42,536.54 208.36,530.57 211.31,524.62 214.25,518.66 217.20,513.03 220.14,507.85 223.09,502.67 226.03,497.49 228.98,492.43 231.93,488.11 234.87,483.80 237.82,479.49 240.76,475.17 243.71,471.53 246.65,467.99 249.60,464.46 252.54,460.92 255.49,457.75 258.43,454.87 261.38,451.98 264.32,449.10 267.27,446.37 270.22,444.02 273.16,441.68 276.11,439.33 279.05,436.98 282.00,435.07 284.94,433.16 287.89,431.25 290.83,429.34 293.78,427.72 296.72,426.22 299.67,424.71 302.62,423.21 305.56,421.91 308.51,420.87 311.45,419.84 314.40,418.81 317.34,417.86 320.29,417.41 323.23,416.96 326.17,416.51 329.13,416.06 332.07,416.20 335.01,416.43 337.96,416.67 340.91,416.90 343.85,417.60 346.80,418.65 349.74,419.69 352.68,420.74 355.64,422.05 358.58,424.03 361.52,426.01 364.47,427.98 367.41,429.96 370.35,432.87 373.31,435.78 376.25,438.68 379.19,441.59 382.15,444.92 385.09,448.42 388.03,451.91 390.98,455.41 393.92,458.86 396.86,462.26 399.82,465.65 402.76,469.04 405.70,472.33 408.65,474.96 411.59,477.59 414.54,480.23 417.49,482.86 420.43,484.70 423.37,486.39 426.33,488.09 429.27,489.79 432.21,491.11 435.16,492.15 438.10,493.19 441.04,494.23 444.00,495.21 446.94,496.02 449.88,496.84 452.83,497.65 455.78,498.47 458.72,499.41 461.67,500.35 464.61,501.30 467.55,502.24 470.51,503.45 473.45,504.77 476.39,506.09 479.34,507.40 482.28,508.95 485.23,510.80 488.18,512.65 491.12,514.49 494.06,516.42 497.02,518.84 499.96,521.26 502.90,523.68 505.85,526.10 508.79,528.92 511.73,531.80 514.69,534.68 517.63,537.55 520.57,540.57 523.52,543.67 526.47,546.78 529.41,549.87 532.36,552.96 535.30,555.98 538.24,559.00 541.20,562.02 544.14,565.04 547.08,567.57 550.03,570.10 552.97,572.64 555.92,575.17 558.87,577.13 561.81,578.87 564.75,580.62 567.71,582.36 570.65,583.73 573.59,584.59 576.54,585.46 579.48,586.33 582.42,587.04 585.38,586.90 588.32,586.74 591.26,586.59 594.21,586.45 597.16,585.41 600.10,584.24 603.05,583.06 605.99,581.89 608.93,580.45 611.89,578.80 614.83,577.16 617.77,575.52 620.72,574.03 623.66,572.91 626.60,571.80 629.56,570.69 632.50,569.59 635.44,569.27 638.40,568.95 641.34,568.63 644.28,568.31 647.23,568.13 650.17,568.02 653.11,567.91 656.07,567.80 659.01,567.65 661.95,567.45 664.90,567.25 667.84,567.04 670.79,566.82 673.74,566.49 676.68,566.16 679.62,565.83 682.58,565.51 685.52,565.03 688.46,564.53 691.41,564.02 694.35,563.52 697.29,562.91 700.25,562.21 703.19,561.52 706.13,560.83 709.08,560.08 712.03,559.21 714.97,558.34 717.92,557.45 720.86,556.58 723.80,555.55 726.76,554.51 729.70,553.47 732.64,552.43 735.59,551.29 738.53,550.12 741.48,548.93 744.43,547.76 747.37,546.52 750.31,545.22 753.27,543.91 756.21,542.61 759.15,541.28 762.10,539.87 765.04,538.46 767.98,537.05 770.94,535.64 773.88,534.15 776.82,532.66 779.77,531.16 782.72,529.66 785.66,528.12 788.61,526.56 791.55,524.98 794.49,523.42 797.45,521.84 800.39,520.22 803.33,518.60 806.28,516.99 809.22,515.37 812.17,513.73 815.12,512.08 818.06,510.44 821.00,508.80 823.96,507.16 826.90,505.52 829.84,503.88 832.79,502.24 835.73,500.61 838.67,499.00 841.63,497.40 844.57,495.79 847.51,494.19 850.46,492.64 853.41,491.09 856.35,489.54 859.30,488.00 862.24,486.53 865.18,485.07 868.14,483.61 871.08,482.15 874.02,480.76 876.97,479.42 879.91,478.07 882.85,476.73 885.81,475.42 888.75,474.22 891.69,473.01 894.65,471.80 897.59,470.60 900.53,469.55 903.48,468.50 906.42,467.45 909.36,466.40 912.32,465.48 915.26,464.62 918.20,463.75 921.15,462.89 924.09,462.11 927.04,461.46 929.99,460.81 932.93,460.16 935.87,459.54 938.83,459.14 941.77,458.74 944.71,458.34 947.66,457.94 950.60,457.80 953.54,457.71 956.50,457.61 959.44,457.52 962.38,457.64 965.33,457.91 968.28,458.18 971.22,458.45 974.17,458.85 977.11,459.53 980.05,460.22 983.01,460.91 985.95,461.59 988.89,462.72 991.84,463.86 994.78,464.99 997.73,466.12 1000.68,467.61 1003.62,469.23 1006.56,470.86 1009.52,472.48 1012.46,474.36 1015.40,476.58 1018.35,478.79 1021.29,481.01 1024.23,483.33 1027.19,486.28 1030.13,489.24 1033.07,492.20 1036.02,495.16 1038.97,498.89 1041.91,502.76 1044.86,506.62 1047.80,510.48 1050.74,514.83 1053.70,519.55 1056.64,524.27 1059.58,528.99 1062.53,533.09 1065.47,535.63 1068.42,538.18 1071.37,540.72 1074.31,543.27" fill="none" stroke="#999999" stroke-width="3" stroke-dasharray="3 4"/>
<line x1="142" y1="156" x2="178" y2="156" stroke="#999999" stroke-width="4" stroke-dasharray="3 4"/>
<text x="188" y="161" font-family="Arial" font-size="18" fill="black">Uz / w</text>
</svg>