<svg xmlns="http://www.w3.org/2000/svg" width="1200" height="820" viewBox="0 0 1200 820">
<rect width="100%" height="100%" fill="white"/>
<text x="600.0" y="36" text-anchor="middle" font-family="Arial" font-size="24" fill="black">profile_diagonal_supply_return: vorticity:0</text>
<line x1="120.00" y1="75" x2="120.00" y2="705" stroke="#dddddd" stroke-width="1"/>
<text x="120.00" y="737" text-anchor="middle" font-family="Arial" font-size="16" fill="black">-0.729</text>
<line x1="376.25" y1="75" x2="376.25" y2="705" stroke="#dddddd" stroke-width="1"/>
<text x="376.25" y="737" text-anchor="middle" font-family="Arial" font-size="16" fill="black">1.913</text>
<line x1="632.50" y1="75" x2="632.50" y2="705" stroke="#dddddd" stroke-width="1"/>
<text x="632.50" y="737" text-anchor="middle" font-family="Arial" font-size="16" fill="black">4.555</text>
<line x1="888.75" y1="75" x2="888.75" y2="705" stroke="#dddddd" stroke-width="1"/>
<text x="888.75" y="737" text-anchor="middle" font-family="Arial" font-size="16" fill="black">7.197</text>
<line x1="1145.00" y1="75" x2="1145.00" y2="705" stroke="#dddddd" stroke-width="1"/>
<text x="1145.00" y="737" text-anchor="middle" font-family="Arial" font-size="16" fill="black">9.839</text>
<line x1="120" y1="705.00" x2="1145" y2="705.00" stroke="#dddddd" stroke-width="1"/>
<text x="104" y="710.00" text-anchor="end" font-family="Arial" font-size="16" fill="black">-1.459</text>
<line x1="120" y1="547.50" x2="1145" y2="547.50" stroke="#dddddd" stroke-width="1"/>
<text x="104" y="552.50" text-anchor="end" font-family="Arial" font-size="16" fill="black">-0.482</text>
<line x1="120" y1="390.00" x2="1145" y2="390.00" stroke="#dddddd" stroke-width="1"/>
<text x="104" y="395.00" text-anchor="end" font-family="Arial" font-size="16" fill="black">0.495</text>
<line x1="120" y1="232.50" x2="1145" y2="232.50" stroke="#dddddd" stroke-width="1"/>
<text x="104" y="237.50" text-anchor="end" font-family="Arial" font-size="16" fill="black">1.472</text>
<line x1="120" y1="75.00" x2="1145" y2="75.00" stroke="#dddddd" stroke-width="1"/>
<text x="104" y="80.00" text-anchor="end" font-family="Arial" font-size="16" fill="black">2.449</text>
<rect x="120" y="75" width="1025" height="630" fill="none" stroke="black" stroke-width="2"/>
<text x="632.5" y="785" text-anchor="middle" font-family="Arial" font-size="20" fill="black">distance along sample line [m]</text>
<text x="34" y="390.0" transform="rotate(-90 34 390.0)" text-anchor="middle" font-family="Arial" font-size="20" fill="black">vorticity:0 [SI]</text>
<polyline points="190.69,118.45 193.64,131.97 196.58,148.21 199.53,167.10 202.47,188.66 205.42,214.11 208.36,242.44 211.31,265.15 214.25,291.71 217.20,320.69 220.14,351.55 223.09,386.79 226.03,426.86 228.98,447.94 231.93,470.87 234.87,496.01 237.82,523.29 240.76,552.65 243.71,584.68 246.65,617.95 249.60,652.39 252.54,654.10 255.49,655.96 258.43,657.89 261.38,659.63 264.32,659.86 267.27,660.12 270.22,660.54 273.16,660.89 276.11,661.23 279.05,661.55 282.00,659.52 284.94,657.47 287.88,655.46 290.83,653.46 293.78,651.06 296.73,648.48 299.67,645.19 302.62,641.93 305.57,638.35 308.50,634.27 311.45,629.70 314.40,625.16 317.34,620.27 320.29,614.82 323.24,609.44 326.18,604.12 329.12,598.85 332.07,593.78 335.01,589.19 337.96,584.95 340.91,580.84 343.85,577.18 346.80,574.14 349.74,571.57 352.68,570.75 355.63,570.45 358.58,570.85 361.53,571.91 364.47,573.65 367.42,576.08 370.36,578.71 373.30,581.76 376.25,585.23 379.20,589.14 382.14,592.78 385.09,596.52 388.04,600.10 390.97,604.13 393.92,608.17 396.87,612.02 399.81,614.99 402.76,618.23 405.71,620.28 408.65,621.40 411.59,622.84 414.54,624.66 417.48,626.92 420.43,627.85 423.38,626.92 426.32,626.30 429.27,624.17 432.21,621.21 435.16,617.74 438.10,614.56 441.05,609.19 444.00,604.13 446.94,599.17 449.89,594.60 452.84,590.33 455.77,586.26 458.72,580.38 461.67,575.25 464.61,570.81 467.56,566.97 470.51,564.01 473.45,561.59 476.39,558.48 479.34,555.95 482.28,553.97 485.23,552.36 488.18,550.19 491.12,548.28 494.07,545.99 497.01,543.86 499.96,541.85 502.90,539.92 505.85,538.02 508.80,536.29 511.74,534.14 514.69,531.92 517.63,528.77 520.57,526.06 523.52,523.63 526.47,521.07 529.41,518.32 532.36,515.92 535.31,514.50 538.24,512.97 541.19,511.32 544.14,509.56 547.08,508.60 550.03,507.20 552.98,505.49 555.92,503.57 558.86,499.81 561.81,495.11 564.76,488.63 567.70,481.79 570.65,471.11 573.60,455.22 576.54,436.20 579.49,416.97 582.43,402.21 585.37,388.97 588.32,378.63 591.27,370.32 594.21,363.22 597.16,363.34 600.11,375.81 603.04,387.23 605.99,399.53 608.94,411.01 611.88,420.93 614.83,429.62 617.78,437.35 620.72,443.97 623.66,449.18 626.61,453.90 629.55,458.15 632.50,461.97 635.45,465.04 638.40,468.08 641.34,471.06 644.28,473.91 647.23,477.12 650.17,480.25 653.12,483.24 656.07,485.76 659.01,487.61 661.96,488.36 664.90,487.11 667.84,484.94 670.79,480.71 673.74,474.94 676.68,468.79 679.63,462.37 682.58,455.83 685.51,449.83 688.46,443.30 691.41,437.39 694.35,432.79 697.30,428.66 700.25,424.88 703.20,421.42 706.14,417.48 709.08,413.77 712.03,410.08 714.97,406.59 717.92,403.28 720.87,400.13 723.81,395.81 726.76,391.61 729.70,387.52 732.64,383.51 735.59,379.64 738.54,375.98 741.48,371.80 744.43,368.02 747.38,364.74 750.31,362.02 753.26,360.35 756.21,359.31 759.15,359.81 762.10,360.59 765.05,361.85 767.99,363.54 770.93,365.60 773.88,367.21 776.83,370.29 779.77,373.22 782.72,376.35 785.67,378.66 788.61,380.31 791.55,381.64 794.50,382.34 797.44,382.38 800.39,381.67 803.34,380.58 806.28,379.12 809.23,377.30 812.17,373.92 815.11,370.39 818.06,366.73 821.01,362.93 823.95,358.88 826.90,354.72 829.85,350.52 832.79,346.49 835.73,342.64 838.68,339.04 841.63,335.88 844.57,332.91 847.52,331.90 850.47,331.95 853.41,332.41 856.35,333.25 859.30,334.46 862.24,336.81 865.19,342.20 868.14,347.80 871.08,353.70 874.03,359.83 876.97,366.10 879.91,372.42 882.86,379.89 885.81,387.17 888.75,394.18 891.70,401.05 894.65,407.79 897.58,414.39 900.53,419.90 903.48,425.27 906.43,430.51 909.37,435.62 912.32,440.49 915.27,445.20 918.20,448.45 921.15,451.63 924.10,454.68 927.04,457.57 929.99,460.35 932.94,463.06 935.88,464.55 938.82,465.86 941.77,467.17 944.71,468.48 947.66,469.80 950.61,471.03 953.55,471.61 956.50,472.26 959.44,472.79 962.38,473.41 965.33,474.16 968.28,474.99 971.22,476.04 974.17,477.41 977.12,479.33 980.06,481.59 983.00,484.22 985.95,487.26 988.90,491.10 991.84,495.51 994.79,500.53 997.74,506.19 1000.68,510.89 1003.62,515.09 1006.57,518.96 1009.51,522.64 1012.46,524.56 1015.41,523.93 1018.35,508.51 1021.30,490.24 1024.24,469.49 1027.18,453.40 1030.13,438.99 1033.08,426.06 1036.02,414.42 1038.97,404.50 1041.92,397.06 1044.86,390.89 1047.80,386.71 1050.75,382.77 1053.70,378.88 1056.64,375.78 1059.59,368.26 1062.54,361.36 1065.47,356.15 1068.42,351.10 1071.37,346.29 1074.31,341.79" fill="none" stroke="#000000" stroke-width="3"/>
<line x1="142" y1="100" x2="178" y2="100" stroke="#000000" stroke-width="4"/>
<text x="188" y="105" font-family="Arial" font-size="18" fill="black">vorticity:0</text>
</svg>