<svg xmlns="http://www.w3.org/2000/svg" width="1200" height="820" viewBox="0 0 1200 820">
<rect width="100%" height="100%" fill="white"/>
<text x="600.0" y="36" text-anchor="middle" font-family="Arial" font-size="24" fill="black">profile_near_floor_x: rho</text>
<line x1="120.00" y1="75" x2="120.00" y2="705" stroke="#dddddd" stroke-width="1"/>
<text x="120.00" y="737" text-anchor="middle" font-family="Arial" font-size="16" fill="black">-0.560</text>
<line x1="376.25" y1="75" x2="376.25" y2="705" stroke="#dddddd" stroke-width="1"/>
<text x="376.25" y="737" text-anchor="middle" font-family="Arial" font-size="16" fill="black">1.470</text>
<line x1="632.50" y1="75" x2="632.50" y2="705" stroke="#dddddd" stroke-width="1"/>
<text x="632.50" y="737" text-anchor="middle" font-family="Arial" font-size="16" fill="black">3.500</text>
<line x1="888.75" y1="75" x2="888.75" y2="705" stroke="#dddddd" stroke-width="1"/>
<text x="888.75" y="737" text-anchor="middle" font-family="Arial" font-size="16" fill="black">5.530</text>
<line x1="1145.00" y1="75" x2="1145.00" y2="705" stroke="#dddddd" stroke-width="1"/>
<text x="1145.00" y="737" text-anchor="middle" font-family="Arial" font-size="16" fill="black">7.560</text>
<line x1="120" y1="705.00" x2="1145" y2="705.00" stroke="#dddddd" stroke-width="1"/>
<text x="104" y="710.00" text-anchor="end" font-family="Arial" font-size="16" fill="black">1.178</text>
<line x1="120" y1="547.50" x2="1145" y2="547.50" stroke="#dddddd" stroke-width="1"/>
<text x="104" y="552.50" text-anchor="end" font-family="Arial" font-size="16" fill="black">1.192</text>
<line x1="120" y1="390.00" x2="1145" y2="390.00" stroke="#dddddd" stroke-width="1"/>
<text x="104" y="395.00" text-anchor="end" font-family="Arial" font-size="16" fill="black">1.207</text>
<line x1="120" y1="232.50" x2="1145" y2="232.50" stroke="#dddddd" stroke-width="1"/>
<text x="104" y="237.50" text-anchor="end" font-family="Arial" font-size="16" fill="black">1.222</text>
<line x1="120" y1="75.00" x2="1145" y2="75.00" stroke="#dddddd" stroke-width="1"/>
<text x="104" y="80.00" text-anchor="end" font-family="Arial" font-size="16" fill="black">1.236</text>
<rect x="120" y="75" width="1025" height="630" fill="none" stroke="black" stroke-width="2"/>
<text x="632.5" y="785" text-anchor="middle" font-family="Arial" font-size="20" fill="black">x coordinate [m]</text>
<text x="34" y="390.0" transform="rotate(-90 34 390.0)" text-anchor="middle" font-family="Arial" font-size="20" fill="black">rho [kg/m3]</text>
<polyline points="190.69,552.07 193.64,552.07 196.58,552.07 199.53,551.00 202.47,551.00 205.42,551.00 208.36,549.93 211.31,548.85 214.25,548.85 217.20,547.78 220.14,546.71 223.09,545.63 226.03,544.56 228.98,543.49 231.93,541.34 234.87,539.19 237.82,537.05 240.76,534.90 243.71,530.61 246.65,527.39 249.60,524.17 252.54,520.95 255.49,516.65 258.43,512.36 261.38,508.07 264.32,503.77 267.27,500.55 270.22,496.26 273.16,491.97 276.11,488.75 279.05,484.45 282.00,481.23 284.94,476.94 287.89,472.65 290.83,469.43 293.78,460.84 296.72,452.25 299.67,442.59 302.62,432.93 305.56,411.47 308.51,374.97 311.45,337.41 314.40,299.84 317.34,263.35 320.29,231.15 323.23,198.95 326.17,166.75 329.13,134.55 332.07,128.11 335.01,125.96 337.96,122.74 340.91,120.59 343.85,119.52 346.80,119.52 349.74,119.52 352.68,118.45 355.64,118.45 358.58,118.45 361.52,118.45 364.47,118.45 367.41,118.45 370.35,118.45 373.31,118.45 376.25,118.45 379.19,118.45 382.15,118.45 385.09,118.45 388.03,118.45 390.98,118.45 393.92,119.52 396.86,121.67 399.82,122.74 402.76,124.89 405.70,131.33 408.65,167.82 411.59,205.39 414.54,241.88 417.49,278.37 420.43,323.45 423.37,368.53 426.33,413.61 429.27,458.69 432.21,485.53 435.16,499.48 438.10,513.43 441.04,527.39 444.00,539.19 446.94,545.63 449.88,552.07 452.83,558.51 455.78,564.95 458.72,569.25 461.67,573.54 464.61,577.83 467.55,582.13 470.51,585.35 473.45,588.57 476.39,591.79 479.34,595.01 482.28,598.23 485.23,600.37 488.18,602.52 491.12,604.67 494.06,606.81 497.02,607.89 499.96,608.96 502.90,610.03 505.85,611.11 508.79,611.11 511.73,610.03 514.69,608.96 517.63,608.96 520.57,606.81 523.52,604.67 526.47,602.52 529.41,599.30 532.36,596.08 535.30,591.79 538.24,586.42 541.20,582.13 544.14,577.83 547.08,571.39 550.03,564.95 552.97,558.51 555.92,552.07 558.87,541.34 561.81,528.46 564.75,515.58 567.71,502.70 570.65,474.79 573.59,427.57 576.54,380.34 579.48,333.11 582.42,286.96 585.38,248.32 588.32,208.61 591.26,169.97 594.21,130.25 597.16,123.81 600.10,121.67 603.05,120.59 605.99,119.52 608.93,118.45 611.89,118.45 614.83,118.45 617.77,118.45 620.72,118.45 623.66,118.45 626.60,118.45 629.56,118.45 632.50,118.45 635.44,118.45 638.40,118.45 641.34,118.45 644.28,118.45 647.23,118.45 650.17,118.45 653.11,118.45 656.07,118.45 659.01,118.45 661.95,119.52 664.90,120.59 667.84,120.59 670.79,125.96 673.74,153.87 676.68,182.85 679.62,210.75 682.58,238.66 685.52,277.30 688.46,317.01 691.41,356.73 694.35,396.44 697.29,423.27 700.25,441.52 703.19,458.69 706.13,475.87 709.08,490.89 712.03,499.48 714.97,508.07 717.92,515.58 720.86,524.17 723.80,528.46 726.76,531.68 729.70,535.97 732.64,539.19 735.59,541.34 738.53,542.41 741.48,543.49 744.43,544.56 747.37,544.56 750.31,543.49 753.27,543.49 756.21,542.41 759.15,542.41 762.10,540.27 765.04,538.12 767.98,535.97 770.94,533.83 773.88,530.61 776.82,527.39 779.77,524.17 782.72,520.95 785.66,517.73 788.61,513.43 791.55,509.14 794.49,504.85 797.45,500.55 800.39,497.33 803.33,494.11 806.28,489.82 809.22,486.60 812.17,483.38 815.12,480.16 818.06,476.94 821.00,473.72 823.96,464.06 826.90,453.33 829.84,441.52 832.79,429.71 835.73,406.10 838.67,366.39 841.63,327.75 844.57,288.03 847.51,249.39 850.46,219.34 853.41,188.21 856.35,158.16 859.30,127.03 862.24,121.67 865.18,120.59 868.14,120.59 871.08,119.52 874.02,118.45 876.97,118.45 879.91,118.45 882.85,118.45 885.81,118.45 888.75,118.45 891.69,118.45 894.65,118.45 897.59,118.45 900.53,118.45 903.48,118.45 906.42,118.45 909.36,118.45 912.32,118.45 915.26,118.45 918.20,118.45 921.15,119.52 924.09,119.52 927.04,121.67 929.99,123.81 932.93,124.89 935.87,132.40 938.83,172.11 941.77,211.83 944.71,251.54 947.66,291.25 950.60,339.55 953.54,387.85 956.50,437.23 959.44,486.60 962.38,515.58 965.33,530.61 968.28,545.63 971.22,560.66 974.17,572.47 977.11,577.83 980.05,583.20 983.01,588.57 985.95,593.93 988.89,598.23 991.84,601.45 994.78,604.67 997.73,607.89 1000.68,611.11 1003.62,614.33 1006.56,617.55 1009.52,620.77 1012.46,622.91 1015.40,626.13 1018.35,629.35 1021.29,631.50 1024.23,634.72 1027.19,636.87 1030.13,639.01 1033.07,641.16 1036.02,644.38 1038.97,646.53 1041.91,647.60 1044.86,649.75 1047.80,651.89 1050.74,654.04 1053.70,655.11 1056.64,656.19 1059.58,658.33 1062.53,659.41 1065.47,659.41 1068.42,660.48 1071.37,660.48 1074.31,661.55" fill="none" stroke="#000000" stroke-width="3"/>
<line x1="142" y1="100" x2="178" y2="100" stroke="#000000" stroke-width="4"/>
<text x="188" y="105" font-family="Arial" font-size="18" fill="black">rho</text>
</svg>