<svg xmlns="http://www.w3.org/2000/svg" width="1200" height="820" viewBox="0 0 1200 820">
<rect width="100%" height="100%" fill="white"/>
<text x="600.0" y="36" text-anchor="middle" font-family="Arial" font-size="24" fill="black">profile_center_z: vorticity:2</text>
<line x1="120.00" y1="75" x2="120.00" y2="705" stroke="#dddddd" stroke-width="1"/>
<text x="120.00" y="737" text-anchor="middle" font-family="Arial" font-size="16" fill="black">-0.240</text>
<line x1="376.25" y1="75" x2="376.25" y2="705" stroke="#dddddd" stroke-width="1"/>
<text x="376.25" y="737" text-anchor="middle" font-family="Arial" font-size="16" fill="black">0.630</text>
<line x1="632.50" y1="75" x2="632.50" y2="705" stroke="#dddddd" stroke-width="1"/>
<text x="632.50" y="737" text-anchor="middle" font-family="Arial" font-size="16" fill="black">1.500</text>
<line x1="888.75" y1="75" x2="888.75" y2="705" stroke="#dddddd" stroke-width="1"/>
<text x="888.75" y="737" text-anchor="middle" font-family="Arial" font-size="16" fill="black">2.370</text>
<line x1="1145.00" y1="75" x2="1145.00" y2="705" stroke="#dddddd" stroke-width="1"/>
<text x="1145.00" y="737" text-anchor="middle" font-family="Arial" font-size="16" fill="black">3.240</text>
<line x1="120" y1="705.00" x2="1145" y2="705.00" stroke="#dddddd" stroke-width="1"/>
<text x="104" y="710.00" text-anchor="end" font-family="Arial" font-size="16" fill="black">-0.089</text>
<line x1="120" y1="547.50" x2="1145" y2="547.50" stroke="#dddddd" stroke-width="1"/>
<text x="104" y="552.50" text-anchor="end" font-family="Arial" font-size="16" fill="black">-0.012</text>
<line x1="120" y1="390.00" x2="1145" y2="390.00" stroke="#dddddd" stroke-width="1"/>
<text x="104" y="395.00" text-anchor="end" font-family="Arial" font-size="16" fill="black">0.064</text>
<line x1="120" y1="232.50" x2="1145" y2="232.50" stroke="#dddddd" stroke-width="1"/>
<text x="104" y="237.50" text-anchor="end" font-family="Arial" font-size="16" fill="black">0.141</text>
<line x1="120" y1="75.00" x2="1145" y2="75.00" stroke="#dddddd" stroke-width="1"/>
<text x="104" y="80.00" text-anchor="end" font-family="Arial" font-size="16" fill="black">0.218</text>
<rect x="120" y="75" width="1025" height="630" fill="none" stroke="black" stroke-width="2"/>
<text x="632.5" y="785" text-anchor="middle" font-family="Arial" font-size="20" fill="black">z coordinate [m]</text>
<text x="34" y="390.0" transform="rotate(-90 34 390.0)" text-anchor="middle" font-family="Arial" font-size="20" fill="black">vorticity:2 [SI]</text>
<polyline points="190.69,522.64 193.64,522.63 196.58,522.63 199.53,522.63 202.47,522.63 205.42,522.63 208.36,522.63 211.31,522.63 214.25,522.62 217.20,522.62 220.14,522.62 223.09,522.62 226.03,522.61 228.98,522.61 231.93,522.60 234.87,522.60 237.82,522.59 240.76,522.59 243.71,522.59 246.65,522.58 249.60,522.58 252.54,522.56 255.49,522.55 258.43,522.53 261.38,522.52 264.32,522.51 267.27,522.49 270.22,522.48 273.16,522.47 276.11,522.45 279.05,522.44 282.00,522.42 284.94,522.39 287.89,522.37 290.83,522.34 293.78,522.32 296.72,522.29 299.67,522.27 302.61,522.24 305.56,522.22 308.51,522.19 311.45,522.17 314.40,522.14 317.34,522.11 320.29,522.09 323.23,522.06 326.18,522.03 329.12,522.01 332.07,521.98 335.01,521.95 337.96,521.92 340.91,521.91 343.85,521.89 346.80,521.87 349.74,521.85 352.69,521.83 355.63,521.81 358.58,521.79 361.52,521.77 364.47,521.76 367.41,521.74 370.36,521.73 373.30,521.72 376.25,521.72 379.20,521.71 382.14,521.70 385.09,521.69 388.03,521.69 390.98,521.68 393.92,521.67 396.87,521.66 399.81,521.63 402.76,521.60 405.70,521.57 408.65,521.53 411.59,521.50 414.54,521.47 417.49,521.44 420.43,521.40 423.38,521.37 426.32,521.34 429.27,521.23 432.21,521.12 435.16,521.02 438.10,520.91 441.05,520.80 443.99,520.69 446.94,520.59 449.89,520.48 452.83,520.37 455.78,520.26 458.72,520.06 461.67,519.85 464.61,519.65 467.56,519.44 470.50,519.23 473.45,519.03 476.39,518.82 479.34,518.61 482.28,518.41 485.23,518.20 488.18,518.00 491.12,517.81 494.07,517.61 497.01,517.41 499.96,517.21 502.90,517.01 505.85,516.81 508.79,516.61 511.74,516.41 514.68,516.21 517.63,516.19 520.57,516.16 523.52,516.13 526.47,516.10 529.41,516.07 532.36,516.04 535.30,516.01 538.25,515.98 541.19,515.95 544.14,515.92 547.08,515.95 550.03,515.98 552.97,516.01 555.92,516.05 558.86,516.08 561.81,516.11 564.76,516.14 567.70,516.17 570.65,516.20 573.59,516.23 576.54,515.85 579.48,515.48 582.43,515.10 585.37,514.72 588.32,514.34 591.26,513.97 594.21,513.59 597.16,513.21 600.10,512.84 603.05,512.46 605.99,510.21 608.94,507.97 611.88,505.72 614.83,503.47 617.77,501.22 620.72,498.98 623.66,496.73 626.61,494.48 629.55,492.24 632.50,489.99 635.45,484.89 638.39,479.78 641.34,474.68 644.28,469.58 647.23,464.47 650.17,459.37 653.12,454.27 656.06,449.17 659.01,444.06 661.95,438.96 664.90,436.19 667.84,433.43 670.79,430.66 673.74,427.89 676.68,425.13 679.63,422.36 682.57,419.60 685.52,416.83 688.46,414.06 691.41,411.30 694.35,416.89 697.30,422.48 700.24,428.07 703.19,433.66 706.14,439.25 709.08,444.84 712.03,450.43 714.97,456.02 717.92,461.61 720.86,467.20 723.81,475.84 726.75,484.49 729.70,493.12 732.64,501.76 735.59,510.41 738.53,519.05 741.48,527.69 744.43,536.33 747.37,544.97 750.32,553.61 753.26,559.56 756.21,565.52 759.15,571.48 762.10,577.43 765.04,583.39 767.99,589.35 770.93,595.30 773.88,601.26 776.82,607.21 779.77,613.17 782.72,616.93 785.66,620.70 788.61,624.47 791.55,628.23 794.50,631.99 797.44,635.76 800.39,639.52 803.33,643.29 806.28,647.05 809.22,650.82 812.17,651.89 815.11,652.96 818.06,654.04 821.01,655.11 823.95,656.18 826.90,657.26 829.84,658.33 832.79,659.40 835.73,660.48 838.68,661.55 841.62,658.74 844.57,655.93 847.51,653.12 850.46,650.31 853.41,647.50 856.35,644.69 859.30,641.88 862.24,639.06 865.19,636.25 868.13,633.44 871.08,625.36 874.02,617.27 876.97,609.18 879.91,601.10 882.86,593.01 885.80,584.92 888.75,576.83 891.70,568.75 894.64,560.66 897.59,552.57 900.53,538.95 903.48,525.32 906.42,511.70 909.37,498.07 912.31,484.44 915.26,470.82 918.20,457.19 921.15,443.57 924.09,429.94 927.04,416.31 929.99,399.52 932.93,382.72 935.88,365.92 938.82,349.13 941.77,332.33 944.71,315.53 947.66,298.73 950.60,281.94 953.55,265.14 956.49,248.35 959.44,235.35 962.39,222.37 965.33,209.37 968.28,196.39 971.22,183.39 974.17,170.41 977.11,157.41 980.06,144.43 983.00,131.43 985.95,118.45 988.89,119.17 991.84,119.89 994.78,120.63 997.73,121.35 1000.68,122.07 1003.62,122.79 1006.57,123.53 1009.51,124.25 1012.46,124.97 1015.40,125.69 1018.35,140.48 1021.29,155.25 1024.24,170.02 1027.18,184.79 1030.13,199.58 1033.07,214.35 1036.02,229.12 1038.97,243.89 1041.91,258.68 1044.86,273.45 1047.80,283.20 1050.75,292.95 1053.69,302.70 1056.64,312.45 1059.58,322.19 1062.53,331.94 1065.47,341.69 1068.42,351.44 1071.36,361.19 1074.31,370.94" fill="none" stroke="#000000" stroke-width="3"/>
<line x1="142" y1="100" x2="178" y2="100" stroke="#000000" stroke-width="4"/>
<text x="188" y="105" font-family="Arial" font-size="18" fill="black">vorticity:2</text>
</svg>