<svg xmlns="http://www.w3.org/2000/svg" width="1200" height="820" viewBox="0 0 1200 820">
<rect width="100%" height="100%" fill="white"/>
<text x="600.0" y="36" text-anchor="middle" font-family="Arial" font-size="24" fill="black">profile_diagonal_supply_return: alphat</text>
<line x1="120.00" y1="75" x2="120.00" y2="705" stroke="#dddddd" stroke-width="1"/>
<text x="120.00" y="737" text-anchor="middle" font-family="Arial" font-size="16" fill="black">-0.729</text>
<line x1="376.25" y1="75" x2="376.25" y2="705" stroke="#dddddd" stroke-width="1"/>
<text x="376.25" y="737" text-anchor="middle" font-family="Arial" font-size="16" fill="black">1.913</text>
<line x1="632.50" y1="75" x2="632.50" y2="705" stroke="#dddddd" stroke-width="1"/>
<text x="632.50" y="737" text-anchor="middle" font-family="Arial" font-size="16" fill="black">4.555</text>
<line x1="888.75" y1="75" x2="888.75" y2="705" stroke="#dddddd" stroke-width="1"/>
<text x="888.75" y="737" text-anchor="middle" font-family="Arial" font-size="16" fill="black">7.197</text>
<line x1="1145.00" y1="75" x2="1145.00" y2="705" stroke="#dddddd" stroke-width="1"/>
<text x="1145.00" y="737" text-anchor="middle" font-family="Arial" font-size="16" fill="black">9.839</text>
<line x1="120" y1="705.00" x2="1145" y2="705.00" stroke="#dddddd" stroke-width="1"/>
<text x="104" y="710.00" text-anchor="end" font-family="Arial" font-size="16" fill="black">-5.15e-04</text>
<line x1="120" y1="547.50" x2="1145" y2="547.50" stroke="#dddddd" stroke-width="1"/>
<text x="104" y="552.50" text-anchor="end" font-family="Arial" font-size="16" fill="black">0.003</text>
<line x1="120" y1="390.00" x2="1145" y2="390.00" stroke="#dddddd" stroke-width="1"/>
<text x="104" y="395.00" text-anchor="end" font-family="Arial" font-size="16" fill="black">0.007</text>
<line x1="120" y1="232.50" x2="1145" y2="232.50" stroke="#dddddd" stroke-width="1"/>
<text x="104" y="237.50" text-anchor="end" font-family="Arial" font-size="16" fill="black">0.010</text>
<line x1="120" y1="75.00" x2="1145" y2="75.00" stroke="#dddddd" stroke-width="1"/>
<text x="104" y="80.00" text-anchor="end" font-family="Arial" font-size="16" fill="black">0.014</text>
<rect x="120" y="75" width="1025" height="630" fill="none" stroke="black" stroke-width="2"/>
<text x="632.5" y="785" text-anchor="middle" font-family="Arial" font-size="20" fill="black">distance along sample line [m]</text>
<text x="34" y="390.0" transform="rotate(-90 34 390.0)" text-anchor="middle" font-family="Arial" font-size="20" fill="black">alphat [SI]</text>
<polyline points="190.69,655.07 193.64,654.78 196.58,654.44 199.53,653.98 202.47,653.38 205.42,652.36 208.36,650.92 211.31,648.83 214.25,646.12 217.20,642.85 220.14,639.10 223.09,633.99 226.03,627.79 228.98,621.59 231.93,614.92 234.87,607.34 237.82,598.77 240.76,589.16 243.71,579.09 246.65,568.73 249.60,557.43 252.54,547.86 255.49,538.23 258.43,528.46 261.38,518.15 264.32,508.29 267.27,498.23 270.22,488.41 273.16,478.11 276.11,467.33 279.05,456.03 282.00,448.89 284.94,441.45 287.88,433.69 290.83,425.59 293.78,417.85 296.73,410.03 299.67,403.27 302.62,396.09 305.57,388.89 308.50,381.77 311.45,375.62 314.40,369.06 317.34,363.68 320.29,358.77 323.24,353.51 326.18,347.91 329.12,341.98 332.07,336.67 335.01,332.55 337.96,328.21 340.91,324.99 343.85,322.33 346.80,320.02 349.74,317.53 352.68,315.45 355.63,313.46 358.58,312.03 361.53,310.32 364.47,308.31 367.42,305.99 370.36,305.82 373.30,305.41 376.25,304.76 379.20,303.85 382.14,303.49 385.09,303.15 388.04,302.98 390.97,302.45 393.92,301.76 396.87,300.93 399.81,300.61 402.76,299.95 405.71,299.69 408.65,299.40 411.59,298.91 414.54,298.20 417.48,297.25 420.43,296.19 423.38,296.54 426.32,296.65 429.27,297.61 432.21,298.30 435.16,298.64 438.10,298.63 441.05,299.97 444.00,300.82 446.94,300.95 449.89,300.65 452.84,299.91 455.77,298.74 458.72,299.15 461.67,299.02 464.61,298.33 467.56,297.10 470.51,294.83 473.45,291.82 476.39,289.99 479.34,287.59 482.28,284.57 485.23,280.99 488.18,277.70 491.12,273.91 494.07,271.03 497.01,267.98 499.96,264.49 502.90,260.58 505.85,256.27 508.80,251.91 511.74,248.01 514.69,243.72 517.63,239.38 520.57,234.96 523.52,230.49 526.47,225.72 529.41,220.90 532.36,216.96 535.31,215.61 538.24,214.74 541.19,214.31 544.14,214.40 547.08,222.42 550.03,231.18 552.98,240.64 555.92,250.86 558.86,264.95 561.81,280.87 564.76,298.58 567.70,316.91 570.65,336.87 573.60,358.88 576.54,380.16 579.49,401.99 582.43,424.75 585.37,447.66 588.32,470.53 591.27,493.66 594.21,517.32 597.16,536.50 600.11,550.49 603.04,564.42 605.99,574.22 608.94,580.82 611.88,585.38 614.83,590.28 617.78,591.89 620.72,593.45 623.66,594.01 626.61,595.07 629.55,596.59 632.50,598.50 635.45,591.74 638.40,585.37 641.34,579.42 644.28,573.88 647.23,566.72 650.17,558.94 653.12,549.59 656.07,540.10 659.01,528.03 661.96,512.27 664.90,490.98 667.84,470.00 670.79,447.41 673.74,422.23 676.68,398.08 679.63,374.96 682.58,352.85 685.51,331.52 688.46,311.49 691.41,292.90 694.35,278.48 697.30,265.69 700.25,254.39 703.20,244.15 706.14,236.17 709.08,229.75 712.03,225.33 714.97,221.86 717.92,219.30 720.87,217.61 723.81,219.43 726.76,221.51 729.70,223.90 732.64,226.50 735.59,228.97 738.54,231.36 741.48,234.74 744.43,238.21 747.38,241.25 750.31,243.55 753.26,246.06 756.21,248.53 759.15,251.34 762.10,252.65 765.05,253.91 767.99,255.12 770.93,256.27 773.88,256.35 776.83,255.26 779.77,254.26 782.72,252.63 785.67,250.79 788.61,248.89 791.55,247.19 794.50,243.63 797.44,240.51 800.39,237.69 803.34,235.35 806.28,233.44 809.23,232.01 812.17,228.23 815.11,224.89 818.06,221.94 821.01,219.39 823.95,216.48 826.90,213.49 829.85,209.89 832.79,206.59 835.73,203.21 838.68,199.61 841.63,196.14 844.57,192.84 847.52,191.06 850.47,189.24 853.41,187.68 856.35,186.33 859.30,185.20 862.24,183.51 865.19,183.04 868.14,182.65 871.08,182.56 874.03,181.73 876.97,180.17 879.91,178.57 882.86,176.40 885.81,173.93 888.75,170.72 891.70,167.59 894.65,164.47 897.58,161.48 900.53,156.97 903.48,152.59 906.43,148.42 909.37,144.43 912.32,140.61 915.27,136.88 918.20,132.46 921.15,128.38 924.10,124.74 927.04,121.57 929.99,120.10 932.94,118.88 935.88,118.45 938.82,119.14 941.77,120.18 944.71,121.66 947.66,123.44 950.61,126.65 953.55,132.07 956.50,137.79 959.44,147.16 962.38,157.70 965.33,169.07 968.28,180.43 971.22,193.32 974.17,206.50 977.12,220.82 980.06,234.83 983.00,248.66 985.95,262.29 988.90,281.26 991.84,299.71 994.79,317.75 997.74,335.44 1000.68,353.12 1003.62,370.49 1006.57,389.45 1009.51,407.74 1012.46,425.42 1015.41,442.27 1018.35,462.28 1021.30,482.07 1024.24,503.96 1027.18,525.48 1030.13,545.10 1033.08,562.90 1036.02,578.99 1038.97,594.66 1041.92,611.33 1044.86,625.05 1047.80,635.02 1050.75,642.97 1053.70,649.10 1056.64,653.72 1059.59,656.79 1062.54,658.81 1065.47,659.89 1068.42,660.64 1071.37,661.17 1074.31,661.55" fill="none" stroke="#000000" stroke-width="3"/>
<line x1="142" y1="100" x2="178" y2="100" stroke="#000000" stroke-width="4"/>
<text x="188" y="105" font-family="Arial" font-size="18" fill="black">alphat</text>
</svg>