<svg xmlns="http://www.w3.org/2000/svg" width="1200" height="820" viewBox="0 0 1200 820">
<rect width="100%" height="100%" fill="white"/>
<text x="600.0" y="36" text-anchor="middle" font-family="Arial" font-size="24" fill="black">profile_rack_height_x: vorticity:1</text>
<line x1="120.00" y1="75" x2="120.00" y2="705" stroke="#dddddd" stroke-width="1"/>
<text x="120.00" y="737" text-anchor="middle" font-family="Arial" font-size="16" fill="black">-0.560</text>
<line x1="376.25" y1="75" x2="376.25" y2="705" stroke="#dddddd" stroke-width="1"/>
<text x="376.25" y="737" text-anchor="middle" font-family="Arial" font-size="16" fill="black">1.470</text>
<line x1="632.50" y1="75" x2="632.50" y2="705" stroke="#dddddd" stroke-width="1"/>
<text x="632.50" y="737" text-anchor="middle" font-family="Arial" font-size="16" fill="black">3.500</text>
<line x1="888.75" y1="75" x2="888.75" y2="705" stroke="#dddddd" stroke-width="1"/>
<text x="888.75" y="737" text-anchor="middle" font-family="Arial" font-size="16" fill="black">5.530</text>
<line x1="1145.00" y1="75" x2="1145.00" y2="705" stroke="#dddddd" stroke-width="1"/>
<text x="1145.00" y="737" text-anchor="middle" font-family="Arial" font-size="16" fill="black">7.560</text>
<line x1="120" y1="705.00" x2="1145" y2="705.00" stroke="#dddddd" stroke-width="1"/>
<text x="104" y="710.00" text-anchor="end" font-family="Arial" font-size="16" fill="black">-3.518</text>
<line x1="120" y1="547.50" x2="1145" y2="547.50" stroke="#dddddd" stroke-width="1"/>
<text x="104" y="552.50" text-anchor="end" font-family="Arial" font-size="16" fill="black">-1.726</text>
<line x1="120" y1="390.00" x2="1145" y2="390.00" stroke="#dddddd" stroke-width="1"/>
<text x="104" y="395.00" text-anchor="end" font-family="Arial" font-size="16" fill="black">0.066</text>
<line x1="120" y1="232.50" x2="1145" y2="232.50" stroke="#dddddd" stroke-width="1"/>
<text x="104" y="237.50" text-anchor="end" font-family="Arial" font-size="16" fill="black">1.858</text>
<line x1="120" y1="75.00" x2="1145" y2="75.00" stroke="#dddddd" stroke-width="1"/>
<text x="104" y="80.00" text-anchor="end" font-family="Arial" font-size="16" fill="black">3.650</text>
<rect x="120" y="75" width="1025" height="630" fill="none" stroke="black" stroke-width="2"/>
<text x="632.5" y="785" text-anchor="middle" font-family="Arial" font-size="20" fill="black">x coordinate [m]</text>
<text x="34" y="390.0" transform="rotate(-90 34 390.0)" text-anchor="middle" font-family="Arial" font-size="20" fill="black">vorticity:1 [SI]</text>
<polyline points="190.69,118.45 193.64,155.89 196.58,193.33 199.53,230.78 202.47,268.22 205.42,305.11 208.36,341.78 211.31,378.45 214.25,415.11 217.20,435.41 220.14,433.89 223.09,432.37 226.03,430.85 228.98,429.36 231.93,427.99 234.87,426.62 237.82,425.25 240.76,423.89 243.71,422.71 246.65,421.57 249.60,420.42 252.54,419.28 255.49,418.27 258.43,417.35 261.38,416.42 264.32,415.50 267.27,414.67 270.22,414.06 273.16,413.44 276.11,412.82 279.05,412.21 282.00,412.13 284.94,412.05 287.89,411.98 290.83,411.90 293.78,412.50 296.72,413.37 299.67,414.25 302.62,415.12 305.56,416.71 308.51,419.25 311.45,421.79 314.40,424.33 317.34,427.27 320.29,432.59 323.23,437.90 326.17,443.21 329.13,448.52 332.07,458.19 335.01,468.57 337.96,478.96 340.91,489.35 343.85,501.95 346.80,516.23 349.74,530.51 352.68,544.78 355.64,556.37 358.58,561.29 361.52,566.19 364.47,571.10 367.41,576.01 370.35,565.03 373.31,554.05 376.25,543.09 379.19,532.11 382.15,518.30 385.09,503.36 388.03,488.41 390.98,473.47 393.92,460.05 396.86,448.67 399.82,437.29 402.76,425.91 405.70,414.85 408.65,405.73 411.59,396.62 414.54,387.50 417.49,378.39 420.43,371.71 423.37,365.43 426.33,359.15 429.27,352.88 432.21,349.17 435.16,347.39 438.10,345.62 441.04,343.84 444.00,343.26 446.94,345.70 449.88,348.13 452.83,350.56 455.78,353.00 458.72,357.80 461.67,362.61 464.61,367.41 467.55,372.22 470.51,376.96 473.45,381.68 476.39,386.39 479.34,391.11 482.28,395.13 485.23,398.23 488.18,401.33 491.12,404.43 494.06,407.27 497.02,408.55 499.96,409.82 502.90,411.09 505.85,412.36 508.79,412.23 511.73,411.85 514.69,411.48 517.63,411.11 520.57,409.86 523.52,407.95 526.47,406.04 529.41,404.13 532.36,401.89 535.30,398.81 538.24,395.73 541.20,392.65 544.14,389.57 547.08,387.21 550.03,384.85 552.97,382.49 555.92,380.13 558.87,380.20 561.81,381.26 564.75,382.31 567.71,383.36 570.65,385.09 573.59,387.72 576.54,390.35 579.48,392.98 582.42,395.19 585.38,394.93 588.32,394.67 591.26,394.40 594.21,394.14 597.16,392.68 600.10,391.02 603.05,389.36 605.99,387.70 608.93,387.38 611.89,388.07 614.83,388.77 617.77,389.46 620.72,390.27 623.66,391.37 626.60,392.47 629.56,393.57 632.50,394.67 635.44,392.35 638.40,390.02 641.34,387.70 644.28,385.38 647.23,379.47 650.17,372.12 653.11,364.77 656.07,357.42 659.01,349.98 661.95,342.41 664.90,334.84 667.84,327.27 670.79,320.72 673.74,320.25 676.68,319.79 679.62,319.32 682.58,318.86 685.52,323.01 688.46,327.94 691.41,332.87 694.35,337.80 697.29,342.60 700.25,347.30 703.19,352.01 706.13,356.71 709.08,360.82 712.03,363.44 714.97,366.06 717.92,368.68 720.86,371.30 723.80,372.16 726.76,373.02 729.70,373.87 732.64,374.73 735.59,374.75 738.53,374.43 741.48,374.12 744.43,373.80 747.37,373.18 750.31,372.16 753.27,371.15 756.21,370.13 759.15,369.07 762.10,367.82 765.04,366.57 767.98,365.32 770.94,364.07 773.88,363.10 776.82,362.19 779.77,361.28 782.72,360.36 785.66,359.90 788.61,359.78 791.55,359.65 794.49,359.53 797.45,359.64 800.39,360.33 803.33,361.02 806.28,361.71 809.22,362.40 812.17,363.54 815.12,364.67 818.06,365.81 821.00,366.95 823.96,368.07 826.90,369.18 829.84,370.29 832.79,371.41 835.73,372.25 838.67,372.74 841.63,373.23 844.57,373.72 847.51,374.17 850.46,374.33 853.41,374.50 856.35,374.67 859.30,374.83 862.24,375.02 865.18,375.22 868.14,375.42 871.08,375.61 874.02,375.56 876.97,375.32 879.91,375.08 882.85,374.84 885.81,374.37 888.75,373.31 891.69,372.25 894.65,371.18 897.59,370.12 900.53,369.40 903.48,368.67 906.42,367.94 909.36,367.21 912.32,368.44 915.26,370.45 918.20,372.45 921.15,374.46 924.09,377.17 927.04,380.83 929.99,384.48 932.93,388.13 935.87,391.56 938.83,393.66 941.77,395.75 944.71,397.84 947.66,399.94 950.60,399.41 953.54,398.46 956.50,397.50 959.44,396.54 962.38,393.92 965.33,390.07 968.28,386.22 971.22,382.36 974.17,378.39 977.11,374.14 980.05,369.88 983.01,365.62 985.95,361.37 988.89,359.32 991.84,357.28 994.78,355.24 997.73,353.20 1000.68,352.71 1003.62,352.85 1006.56,352.98 1009.52,353.12 1012.46,353.69 1015.40,354.82 1018.35,355.96 1021.29,357.09 1024.23,358.27 1027.19,359.69 1030.13,361.11 1033.07,362.53 1036.02,363.95 1038.97,365.46 1041.91,367.00 1044.86,368.54 1047.80,370.08 1050.74,390.35 1053.70,424.69 1056.64,459.03 1059.58,493.37 1062.53,527.47 1065.47,560.99 1068.42,594.51 1071.37,628.03 1074.31,661.55" fill="none" stroke="#000000" stroke-width="3"/>
<line x1="142" y1="100" x2="178" y2="100" stroke="#000000" stroke-width="4"/>
<text x="188" y="105" font-family="Arial" font-size="18" fill="black">vorticity:1</text>
</svg>