<svg xmlns="http://www.w3.org/2000/svg" width="1200" height="820" viewBox="0 0 1200 820">
<rect width="100%" height="100%" fill="white"/>
<text x="600.0" y="36" text-anchor="middle" font-family="Arial" font-size="24" fill="black">profile_center_y: vorticity:2</text>
<line x1="120.00" y1="75" x2="120.00" y2="705" stroke="#dddddd" stroke-width="1"/>
<text x="120.00" y="737" text-anchor="middle" font-family="Arial" font-size="16" fill="black">-0.400</text>
<line x1="376.25" y1="75" x2="376.25" y2="705" stroke="#dddddd" stroke-width="1"/>
<text x="376.25" y="737" text-anchor="middle" font-family="Arial" font-size="16" fill="black">1.050</text>
<line x1="632.50" y1="75" x2="632.50" y2="705" stroke="#dddddd" stroke-width="1"/>
<text x="632.50" y="737" text-anchor="middle" font-family="Arial" font-size="16" fill="black">2.500</text>
<line x1="888.75" y1="75" x2="888.75" y2="705" stroke="#dddddd" stroke-width="1"/>
<text x="888.75" y="737" text-anchor="middle" font-family="Arial" font-size="16" fill="black">3.950</text>
<line x1="1145.00" y1="75" x2="1145.00" y2="705" stroke="#dddddd" stroke-width="1"/>
<text x="1145.00" y="737" text-anchor="middle" font-family="Arial" font-size="16" fill="black">5.400</text>
<line x1="120" y1="705.00" x2="1145" y2="705.00" stroke="#dddddd" stroke-width="1"/>
<text x="104" y="710.00" text-anchor="end" font-family="Arial" font-size="16" fill="black">-3.842</text>
<line x1="120" y1="547.50" x2="1145" y2="547.50" stroke="#dddddd" stroke-width="1"/>
<text x="104" y="552.50" text-anchor="end" font-family="Arial" font-size="16" fill="black">-2.635</text>
<line x1="120" y1="390.00" x2="1145" y2="390.00" stroke="#dddddd" stroke-width="1"/>
<text x="104" y="395.00" text-anchor="end" font-family="Arial" font-size="16" fill="black">-1.428</text>
<line x1="120" y1="232.50" x2="1145" y2="232.50" stroke="#dddddd" stroke-width="1"/>
<text x="104" y="237.50" text-anchor="end" font-family="Arial" font-size="16" fill="black">-0.220</text>
<line x1="120" y1="75.00" x2="1145" y2="75.00" stroke="#dddddd" stroke-width="1"/>
<text x="104" y="80.00" text-anchor="end" font-family="Arial" font-size="16" fill="black">0.987</text>
<rect x="120" y="75" width="1025" height="630" fill="none" stroke="black" stroke-width="2"/>
<text x="632.5" y="785" text-anchor="middle" font-family="Arial" font-size="20" fill="black">y coordinate [m]</text>
<text x="34" y="390.0" transform="rotate(-90 34 390.0)" text-anchor="middle" font-family="Arial" font-size="20" fill="black">vorticity:2 [SI]</text>
<polyline points="190.69,118.45 193.64,130.32 196.58,142.19 199.53,154.07 202.47,165.94 205.42,177.81 208.36,189.68 211.31,201.43 214.25,213.17 217.20,224.92 220.14,236.67 223.09,248.41 226.03,260.16 228.98,259.27 231.92,258.37 234.87,257.49 237.82,256.59 240.76,255.70 243.71,254.81 246.65,252.95 249.60,251.08 252.54,249.21 255.49,247.35 258.43,245.48 261.38,243.61 264.33,241.74 267.27,239.86 270.22,237.98 273.16,236.10 276.11,234.22 279.05,232.35 282.00,231.35 284.94,230.36 287.89,229.37 290.83,228.38 293.78,227.39 296.72,226.40 299.67,226.55 302.61,226.71 305.56,226.86 308.51,227.02 311.45,227.17 314.40,227.33 317.34,228.59 320.29,229.85 323.23,231.11 326.18,232.37 329.12,233.63 332.07,234.89 335.01,236.94 337.96,238.98 340.91,241.03 343.85,243.08 346.80,245.13 349.74,247.18 352.69,249.44 355.63,251.70 358.58,253.96 361.52,256.22 364.47,258.48 367.41,260.74 370.37,262.78 373.30,264.82 376.25,266.86 379.20,268.91 382.13,270.95 385.09,272.99 388.04,274.99 390.97,276.98 393.92,278.98 396.87,280.98 399.81,282.97 402.76,284.97 405.71,287.24 408.64,289.51 411.59,291.77 414.55,294.04 417.48,296.31 420.43,298.58 423.38,300.64 426.32,302.70 429.27,304.76 432.22,306.83 435.15,308.89 438.10,310.95 441.05,311.55 443.99,312.14 446.94,312.73 449.89,313.32 452.82,313.92 455.78,314.51 458.73,312.73 461.66,310.96 464.61,309.18 467.56,307.40 470.50,305.62 473.45,303.84 476.40,299.98 479.33,296.12 482.28,292.26 485.24,288.40 488.17,284.54 491.12,280.68 494.07,275.85 497.01,271.02 499.96,266.19 502.91,261.35 505.84,256.52 508.79,251.69 511.74,247.02 514.68,242.35 517.63,237.68 520.58,233.00 523.51,228.33 526.47,223.66 529.42,219.87 532.35,216.07 535.30,212.28 538.25,208.48 541.19,204.69 544.14,200.89 547.09,198.44 550.02,196.00 552.97,193.55 555.93,191.10 558.86,188.65 561.81,186.20 564.76,185.51 567.70,184.81 570.65,184.11 573.60,183.41 576.53,182.72 579.48,182.02 582.43,182.95 585.37,183.87 588.32,184.80 591.27,185.73 594.20,186.66 597.16,187.58 600.11,189.18 603.04,190.78 605.99,192.38 608.94,193.98 611.88,195.57 614.83,197.17 617.78,197.93 620.71,198.68 623.66,199.44 626.62,200.19 629.55,200.95 632.50,201.70 635.45,201.95 638.38,202.20 641.34,202.45 644.29,202.70 647.22,202.95 650.17,203.20 653.12,203.70 656.06,204.21 659.01,204.71 661.96,205.22 664.89,205.72 667.84,206.23 670.80,206.66 673.73,207.10 676.68,207.54 679.63,207.97 682.57,208.41 685.52,208.85 688.47,209.27 691.40,209.70 694.35,210.13 697.30,210.55 700.24,210.98 703.19,211.40 706.14,211.69 709.07,211.97 712.03,212.25 714.98,212.54 717.91,212.82 720.86,213.10 723.81,213.05 726.75,213.00 729.70,212.94 732.65,212.89 735.58,212.84 738.53,212.78 741.49,212.30 744.42,211.82 747.37,211.34 750.32,210.85 753.26,210.37 756.21,209.89 759.16,209.24 762.09,208.59 765.04,207.95 767.99,207.30 770.93,206.65 773.88,206.01 776.83,205.67 779.76,205.34 782.72,205.00 785.67,204.67 788.60,204.33 791.55,204.00 794.50,203.91 797.44,203.82 800.39,203.72 803.34,203.63 806.27,203.54 809.22,203.45 812.18,203.06 815.11,202.67 818.06,202.27 821.01,201.88 823.95,201.49 826.90,201.10 829.85,200.41 832.78,199.72 835.73,199.03 838.68,198.34 841.62,197.65 844.57,196.96 847.52,196.08 850.45,195.20 853.41,194.32 856.36,193.44 859.29,192.56 862.24,191.68 865.19,189.99 868.13,188.30 871.08,186.62 874.03,184.93 876.96,183.24 879.91,181.55 882.87,178.60 885.80,175.65 888.75,172.69 891.70,169.74 894.63,166.79 897.59,163.84 900.54,160.69 903.47,157.54 906.42,154.39 909.37,151.24 912.31,148.08 915.26,144.93 918.21,143.46 921.14,141.99 924.09,140.52 927.05,139.04 929.98,137.57 932.93,136.10 935.88,136.86 938.82,137.62 941.77,138.39 944.72,139.15 947.65,139.91 950.60,140.67 953.55,142.69 956.49,144.72 959.44,146.74 962.39,148.76 965.32,150.79 968.28,152.81 971.23,154.99 974.16,157.18 977.11,159.36 980.06,161.55 983.00,163.74 985.95,165.92 988.90,167.72 991.83,169.53 994.78,171.33 997.74,173.13 1000.67,174.93 1003.62,176.73 1006.57,178.10 1009.51,179.47 1012.46,180.84 1015.41,182.22 1018.34,183.59 1021.29,184.96 1024.24,186.52 1027.18,188.09 1030.13,189.65 1033.08,191.22 1036.01,192.78 1038.97,194.35 1041.92,233.76 1044.85,273.18 1047.80,312.60 1050.75,352.02 1053.69,391.43 1056.64,430.85 1059.59,469.31 1062.52,507.75 1065.47,546.20 1068.43,584.65 1071.36,623.10 1074.31,661.55" fill="none" stroke="#000000" stroke-width="3"/>
<line x1="142" y1="100" x2="178" y2="100" stroke="#000000" stroke-width="4"/>
<text x="188" y="105" font-family="Arial" font-size="18" fill="black">vorticity:2</text>
</svg>