<svg xmlns="http://www.w3.org/2000/svg" width="1200" height="820" viewBox="0 0 1200 820">
<rect width="100%" height="100%" fill="white"/>
<text x="600.0" y="36" text-anchor="middle" font-family="Arial" font-size="24" fill="black">profile_center_y: velocity magnitude</text>
<line x1="120.00" y1="75" x2="120.00" y2="705" stroke="#dddddd" stroke-width="1"/>
<text x="120.00" y="737" text-anchor="middle" font-family="Arial" font-size="16" fill="black">-0.400</text>
<line x1="376.25" y1="75" x2="376.25" y2="705" stroke="#dddddd" stroke-width="1"/>
<text x="376.25" y="737" text-anchor="middle" font-family="Arial" font-size="16" fill="black">1.050</text>
<line x1="632.50" y1="75" x2="632.50" y2="705" stroke="#dddddd" stroke-width="1"/>
<text x="632.50" y="737" text-anchor="middle" font-family="Arial" font-size="16" fill="black">2.500</text>
<line x1="888.75" y1="75" x2="888.75" y2="705" stroke="#dddddd" stroke-width="1"/>
<text x="888.75" y="737" text-anchor="middle" font-family="Arial" font-size="16" fill="black">3.950</text>
<line x1="1145.00" y1="75" x2="1145.00" y2="705" stroke="#dddddd" stroke-width="1"/>
<text x="1145.00" y="737" text-anchor="middle" font-family="Arial" font-size="16" fill="black">5.400</text>
<line x1="120" y1="705.00" x2="1145" y2="705.00" stroke="#dddddd" stroke-width="1"/>
<text x="104" y="710.00" text-anchor="end" font-family="Arial" font-size="16" fill="black">0.105</text>
<line x1="120" y1="547.50" x2="1145" y2="547.50" stroke="#dddddd" stroke-width="1"/>
<text x="104" y="552.50" text-anchor="end" font-family="Arial" font-size="16" fill="black">0.286</text>
<line x1="120" y1="390.00" x2="1145" y2="390.00" stroke="#dddddd" stroke-width="1"/>
<text x="104" y="395.00" text-anchor="end" font-family="Arial" font-size="16" fill="black">0.468</text>
<line x1="120" y1="232.50" x2="1145" y2="232.50" stroke="#dddddd" stroke-width="1"/>
<text x="104" y="237.50" text-anchor="end" font-family="Arial" font-size="16" fill="black">0.649</text>
<line x1="120" y1="75.00" x2="1145" y2="75.00" stroke="#dddddd" stroke-width="1"/>
<text x="104" y="80.00" text-anchor="end" font-family="Arial" font-size="16" fill="black">0.830</text>
<rect x="120" y="75" width="1025" height="630" fill="none" stroke="black" stroke-width="2"/>
<text x="632.5" y="785" text-anchor="middle" font-family="Arial" font-size="20" fill="black">y coordinate [m]</text>
<text x="34" y="390.0" transform="rotate(-90 34 390.0)" text-anchor="middle" font-family="Arial" font-size="20" fill="black">|U| [m/s]</text>
<polyline points="190.69,565.38 193.64,564.17 196.58,562.95 199.53,561.74 202.47,560.52 205.42,559.31 208.36,558.09 211.31,555.09 214.25,552.08 217.20,549.09 220.14,546.08 223.09,543.08 226.03,540.09 228.98,536.73 231.92,533.38 234.87,530.03 237.82,526.68 240.76,523.33 243.71,519.97 246.65,516.11 249.60,512.24 252.54,508.38 255.49,504.52 258.43,500.65 261.38,496.78 264.33,491.89 267.27,487.01 270.22,482.11 273.16,477.22 276.11,472.33 279.05,467.44 282.00,460.58 284.94,453.72 287.89,446.85 290.83,439.99 293.78,433.14 296.72,426.27 299.67,416.42 302.61,406.57 305.56,396.72 308.51,386.86 311.45,377.01 314.40,367.16 317.34,354.24 320.29,341.33 323.23,328.42 326.18,315.52 329.12,302.60 332.07,289.69 335.01,275.58 337.96,261.48 340.91,247.37 343.85,233.27 346.80,219.17 349.74,205.06 352.69,193.55 355.63,182.03 358.58,170.52 361.52,159.02 364.47,147.51 367.41,135.99 370.37,133.07 373.30,130.14 376.25,127.22 379.20,124.30 382.13,121.37 385.09,118.45 388.04,125.79 390.97,133.13 393.92,140.47 396.87,147.82 399.81,155.15 402.76,162.50 405.71,175.50 408.64,188.49 411.59,201.49 414.55,214.48 417.48,227.47 420.43,240.47 423.38,254.78 426.32,269.09 429.27,283.39 432.22,297.70 435.15,312.02 438.10,326.32 441.05,339.04 443.99,351.76 446.94,364.49 449.89,377.21 452.82,389.93 455.78,402.65 458.73,412.25 461.66,421.84 464.61,431.43 467.56,441.04 470.50,450.63 473.45,460.22 476.40,466.59 479.33,472.98 482.28,479.35 485.24,485.73 488.17,492.10 491.12,498.47 494.07,502.67 497.01,506.85 499.96,511.05 502.91,515.23 505.84,519.41 508.79,523.61 511.74,526.79 514.68,529.99 517.63,533.17 520.58,536.37 523.51,539.56 526.47,542.74 529.42,545.85 532.35,548.96 535.30,552.06 538.25,555.17 541.19,558.27 544.14,561.37 547.09,565.29 550.02,569.20 552.97,573.13 555.93,577.04 558.86,580.96 561.81,584.88 564.76,589.35 567.70,593.82 570.65,598.29 573.60,602.76 576.53,607.23 579.48,611.69 582.43,614.23 585.37,616.76 588.32,619.30 591.27,621.83 594.20,624.37 597.16,626.90 600.11,626.48 603.04,626.04 605.99,625.62 608.94,625.19 611.88,624.76 614.83,624.33 617.78,623.13 620.71,621.93 623.66,620.72 626.62,619.51 629.55,618.32 632.50,617.11 635.45,615.84 638.38,614.57 641.34,613.31 644.29,612.04 647.22,610.77 650.17,609.50 653.12,608.08 656.06,606.65 659.01,605.22 661.96,603.80 664.89,602.38 667.84,600.95 670.80,600.55 673.73,600.16 676.68,599.76 679.63,599.36 682.57,598.97 685.52,598.57 688.47,599.44 691.40,600.31 694.35,601.18 697.30,602.05 700.24,602.92 703.19,603.78 706.14,604.42 709.07,605.05 712.03,605.68 714.98,606.31 717.91,606.94 720.86,607.58 723.81,608.36 726.75,609.14 729.70,609.92 732.65,610.70 735.58,611.48 738.53,612.27 741.49,614.42 744.42,616.57 747.37,618.72 750.32,620.88 753.26,623.03 756.21,625.18 759.16,628.92 762.09,632.65 765.04,636.38 767.99,640.12 770.93,643.85 773.88,647.57 776.83,649.91 779.76,652.24 782.72,654.56 785.67,656.90 788.60,659.23 791.55,661.55 794.50,654.42 797.44,647.30 800.39,640.16 803.34,633.03 806.27,625.90 809.22,618.77 812.18,602.72 815.11,586.67 818.06,570.63 821.01,554.58 823.95,538.53 826.90,522.49 829.85,507.29 832.78,492.10 835.73,476.91 838.68,461.72 841.62,446.52 844.57,431.33 847.52,423.56 850.45,415.79 853.41,408.02 856.36,400.24 859.29,392.47 862.24,384.70 865.19,386.43 868.13,388.15 871.08,389.87 874.03,391.60 876.96,393.32 879.91,395.05 882.87,404.32 885.80,413.59 888.75,422.86 891.70,432.14 894.63,441.41 897.59,450.68 900.54,459.90 903.47,469.12 906.42,478.33 909.37,487.55 912.31,496.77 915.26,505.98 918.21,508.61 921.14,511.23 924.09,513.86 927.05,516.48 929.98,519.10 932.93,521.72 935.88,518.67 938.82,515.61 941.77,512.56 944.72,509.49 947.65,506.44 950.60,503.38 953.55,498.23 956.49,493.08 959.44,487.93 962.39,482.79 965.32,477.65 968.28,472.50 971.23,467.44 974.16,462.38 977.11,457.33 980.06,452.28 983.00,447.22 985.95,442.16 988.90,437.69 991.83,433.21 994.78,428.74 997.74,424.26 1000.67,419.79 1003.62,415.32 1006.57,411.14 1009.51,406.95 1012.46,402.78 1015.41,398.59 1018.34,394.41 1021.29,390.22 1024.24,385.89 1027.18,381.56 1030.13,377.22 1033.08,372.88 1036.01,368.55 1038.97,364.21 1041.92,360.04 1044.85,355.87 1047.80,351.70 1050.75,347.52 1053.69,343.36 1056.64,339.18 1059.59,337.24 1062.52,335.28 1065.47,333.33 1068.43,331.38 1071.36,329.43 1074.31,327.48" fill="none" stroke="#000000" stroke-width="3"/>
<line x1="142" y1="100" x2="178" y2="100" stroke="#000000" stroke-width="4"/>
<text x="188" y="105" font-family="Arial" font-size="18" fill="black">|U|</text>
</svg>