<svg xmlns="http://www.w3.org/2000/svg" width="1200" height="820" viewBox="0 0 1200 820">
<rect width="100%" height="100%" fill="white"/>
<text x="600.0" y="36" text-anchor="middle" font-family="Arial" font-size="24" fill="black">profile_center_y: vorticity:1</text>
<line x1="120.00" y1="75" x2="120.00" y2="705" stroke="#dddddd" stroke-width="1"/>
<text x="120.00" y="737" text-anchor="middle" font-family="Arial" font-size="16" fill="black">-0.400</text>
<line x1="376.25" y1="75" x2="376.25" y2="705" stroke="#dddddd" stroke-width="1"/>
<text x="376.25" y="737" text-anchor="middle" font-family="Arial" font-size="16" fill="black">1.050</text>
<line x1="632.50" y1="75" x2="632.50" y2="705" stroke="#dddddd" stroke-width="1"/>
<text x="632.50" y="737" text-anchor="middle" font-family="Arial" font-size="16" fill="black">2.500</text>
<line x1="888.75" y1="75" x2="888.75" y2="705" stroke="#dddddd" stroke-width="1"/>
<text x="888.75" y="737" text-anchor="middle" font-family="Arial" font-size="16" fill="black">3.950</text>
<line x1="1145.00" y1="75" x2="1145.00" y2="705" stroke="#dddddd" stroke-width="1"/>
<text x="1145.00" y="737" text-anchor="middle" font-family="Arial" font-size="16" fill="black">5.400</text>
<line x1="120" y1="705.00" x2="1145" y2="705.00" stroke="#dddddd" stroke-width="1"/>
<text x="104" y="710.00" text-anchor="end" font-family="Arial" font-size="16" fill="black">-0.771</text>
<line x1="120" y1="547.50" x2="1145" y2="547.50" stroke="#dddddd" stroke-width="1"/>
<text x="104" y="552.50" text-anchor="end" font-family="Arial" font-size="16" fill="black">-0.462</text>
<line x1="120" y1="390.00" x2="1145" y2="390.00" stroke="#dddddd" stroke-width="1"/>
<text x="104" y="395.00" text-anchor="end" font-family="Arial" font-size="16" fill="black">-0.153</text>
<line x1="120" y1="232.50" x2="1145" y2="232.50" stroke="#dddddd" stroke-width="1"/>
<text x="104" y="237.50" text-anchor="end" font-family="Arial" font-size="16" fill="black">0.156</text>
<line x1="120" y1="75.00" x2="1145" y2="75.00" stroke="#dddddd" stroke-width="1"/>
<text x="104" y="80.00" text-anchor="end" font-family="Arial" font-size="16" fill="black">0.465</text>
<rect x="120" y="75" width="1025" height="630" fill="none" stroke="black" stroke-width="2"/>
<text x="632.5" y="785" text-anchor="middle" font-family="Arial" font-size="20" fill="black">y coordinate [m]</text>
<text x="34" y="390.0" transform="rotate(-90 34 390.0)" text-anchor="middle" font-family="Arial" font-size="20" fill="black">vorticity:1 [SI]</text>
<polyline points="190.69,196.76 193.64,196.92 196.58,197.07 199.53,197.22 202.47,197.38 205.42,197.53 208.36,197.68 211.31,200.11 214.25,202.53 217.20,204.96 220.14,207.38 223.09,209.81 226.03,212.23 228.98,218.62 231.92,225.00 234.87,231.38 237.82,237.77 240.76,244.16 243.71,250.54 246.65,259.57 249.60,268.61 252.54,277.65 255.49,286.68 258.43,295.72 261.38,304.75 264.33,315.43 267.27,326.11 270.22,336.78 273.16,347.46 276.11,358.14 279.05,368.81 282.00,381.39 284.94,393.97 287.89,406.55 290.83,419.13 293.78,431.71 296.72,444.29 299.67,458.48 302.61,472.67 305.56,486.86 308.51,501.05 311.45,515.24 314.40,529.43 317.34,542.96 320.29,556.49 323.23,570.02 326.18,583.56 329.12,597.09 332.07,610.63 335.01,619.11 337.96,627.60 340.91,636.09 343.85,644.57 346.80,653.06 349.74,661.55 352.69,659.28 355.63,657.01 358.58,654.73 361.52,652.46 364.47,650.19 367.41,647.92 370.37,632.79 373.30,617.66 376.25,602.53 379.20,587.40 382.13,572.27 385.09,557.14 388.04,535.30 390.97,513.46 393.92,491.62 396.87,469.78 399.81,447.94 402.76,426.09 405.71,406.05 408.64,386.00 411.59,365.94 414.55,345.89 417.48,325.84 420.43,305.79 423.38,292.13 426.32,278.46 429.27,264.79 432.22,251.12 435.15,237.46 438.10,223.79 441.05,217.45 443.99,211.10 446.94,204.76 449.89,198.42 452.82,192.08 455.78,185.73 458.73,184.29 461.66,182.84 464.61,181.39 467.56,179.94 470.50,178.49 473.45,177.04 476.40,176.77 479.33,176.49 482.28,176.22 485.24,175.94 488.17,175.67 491.12,175.39 494.07,173.89 497.01,172.39 499.96,170.88 502.91,169.38 505.84,167.87 508.79,166.37 511.74,163.33 514.68,160.28 517.63,157.24 520.58,154.20 523.51,151.16 526.47,148.12 529.42,145.82 532.35,143.52 535.30,141.22 538.25,138.92 541.19,136.62 544.14,134.33 547.09,135.75 550.02,137.18 552.97,138.61 555.93,140.04 558.86,141.47 561.81,142.90 564.76,148.32 567.70,153.75 570.65,159.16 573.60,164.59 576.53,170.01 579.48,175.43 582.43,182.09 585.37,188.75 588.32,195.40 591.27,202.06 594.20,208.72 597.16,215.37 600.11,222.74 603.04,230.10 605.99,237.46 608.94,244.83 611.88,252.19 614.83,259.55 617.78,267.20 620.71,274.84 623.66,282.48 626.62,290.12 629.55,297.76 632.50,305.41 635.45,309.86 638.38,314.32 641.34,318.78 644.29,323.24 647.22,327.69 650.17,332.15 653.12,333.48 656.06,334.82 659.01,336.15 661.96,337.48 664.89,338.82 667.84,340.15 670.80,339.73 673.73,339.31 676.68,338.90 679.63,338.48 682.57,338.06 685.52,337.64 688.47,335.52 691.40,333.39 694.35,331.26 697.30,329.13 700.24,327.00 703.19,324.87 706.14,322.10 709.07,319.33 712.03,316.57 714.98,313.80 717.91,311.03 720.86,308.26 723.81,305.82 726.75,303.37 729.70,300.93 732.65,298.48 735.58,296.04 738.53,293.60 741.49,293.11 744.42,292.63 747.37,292.15 750.32,291.67 753.26,291.18 756.21,290.70 759.16,295.38 762.09,300.06 765.04,304.74 767.99,309.42 770.93,314.09 773.88,318.77 776.83,331.44 779.76,344.12 782.72,356.79 785.67,369.46 788.60,382.13 791.55,394.80 794.50,410.07 797.44,425.35 800.39,440.63 803.34,455.90 806.27,471.18 809.22,486.45 812.18,489.43 815.11,492.41 818.06,495.39 821.01,498.37 823.95,501.35 826.90,504.32 829.85,489.22 832.78,474.10 835.73,458.99 838.68,443.88 841.62,428.77 844.57,413.66 847.52,389.10 850.45,364.54 853.41,339.98 856.36,315.42 859.29,290.86 862.24,266.30 865.19,245.82 868.13,225.35 871.08,204.87 874.03,184.40 876.96,163.93 879.91,143.45 882.87,139.28 885.80,135.12 888.75,130.95 891.70,126.79 894.63,122.62 897.59,118.45 900.54,130.07 903.47,141.69 906.42,153.32 909.37,164.94 912.31,176.56 915.26,188.18 918.21,203.10 921.14,218.02 924.09,232.95 927.05,247.87 929.98,262.79 932.93,277.71 935.88,286.19 938.82,294.66 941.77,303.13 944.72,311.61 947.65,320.08 950.60,328.55 953.55,330.06 956.49,331.57 959.44,333.08 962.39,334.58 965.32,336.09 968.28,337.60 971.23,335.97 974.16,334.34 977.11,332.70 980.06,331.07 983.00,329.44 985.95,327.81 988.90,326.02 991.83,324.23 994.78,322.44 997.74,320.65 1000.67,318.86 1003.62,317.06 1006.57,316.21 1009.51,315.35 1012.46,314.49 1015.41,313.63 1018.34,312.77 1021.29,311.91 1024.24,311.82 1027.18,311.73 1030.13,311.64 1033.08,311.54 1036.01,311.45 1038.97,311.36 1041.92,311.31 1044.85,311.26 1047.80,311.21 1050.75,311.16 1053.69,311.10 1056.64,311.05 1059.59,310.93 1062.52,310.81 1065.47,310.69 1068.43,310.57 1071.36,310.45 1074.31,310.33" fill="none" stroke="#000000" stroke-width="3"/>
<line x1="142" y1="100" x2="178" y2="100" stroke="#000000" stroke-width="4"/>
<text x="188" y="105" font-family="Arial" font-size="18" fill="black">vorticity:1</text>
</svg>