<svg xmlns="http://www.w3.org/2000/svg" width="1200" height="820" viewBox="0 0 1200 820">
<rect width="100%" height="100%" fill="white"/>
<text x="600.0" y="36" text-anchor="middle" font-family="Arial" font-size="24" fill="black">profile_center_x: U:1</text>
<line x1="120.00" y1="75" x2="120.00" y2="705" stroke="#dddddd" stroke-width="1"/>
<text x="120.00" y="737" text-anchor="middle" font-family="Arial" font-size="16" fill="black">-0.560</text>
<line x1="376.25" y1="75" x2="376.25" y2="705" stroke="#dddddd" stroke-width="1"/>
<text x="376.25" y="737" text-anchor="middle" font-family="Arial" font-size="16" fill="black">1.470</text>
<line x1="632.50" y1="75" x2="632.50" y2="705" stroke="#dddddd" stroke-width="1"/>
<text x="632.50" y="737" text-anchor="middle" font-family="Arial" font-size="16" fill="black">3.500</text>
<line x1="888.75" y1="75" x2="888.75" y2="705" stroke="#dddddd" stroke-width="1"/>
<text x="888.75" y="737" text-anchor="middle" font-family="Arial" font-size="16" fill="black">5.530</text>
<line x1="1145.00" y1="75" x2="1145.00" y2="705" stroke="#dddddd" stroke-width="1"/>
<text x="1145.00" y="737" text-anchor="middle" font-family="Arial" font-size="16" fill="black">7.560</text>
<line x1="120" y1="705.00" x2="1145" y2="705.00" stroke="#dddddd" stroke-width="1"/>
<text x="104" y="710.00" text-anchor="end" font-family="Arial" font-size="16" fill="black">-0.173</text>
<line x1="120" y1="547.50" x2="1145" y2="547.50" stroke="#dddddd" stroke-width="1"/>
<text x="104" y="552.50" text-anchor="end" font-family="Arial" font-size="16" fill="black">-0.083</text>
<line x1="120" y1="390.00" x2="1145" y2="390.00" stroke="#dddddd" stroke-width="1"/>
<text x="104" y="395.00" text-anchor="end" font-family="Arial" font-size="16" fill="black">0.006</text>
<line x1="120" y1="232.50" x2="1145" y2="232.50" stroke="#dddddd" stroke-width="1"/>
<text x="104" y="237.50" text-anchor="end" font-family="Arial" font-size="16" fill="black">0.096</text>
<line x1="120" y1="75.00" x2="1145" y2="75.00" stroke="#dddddd" stroke-width="1"/>
<text x="104" y="80.00" text-anchor="end" font-family="Arial" font-size="16" fill="black">0.185</text>
<rect x="120" y="75" width="1025" height="630" fill="none" stroke="black" stroke-width="2"/>
<text x="632.5" y="785" text-anchor="middle" font-family="Arial" font-size="20" fill="black">x coordinate [m]</text>
<text x="34" y="390.0" transform="rotate(-90 34 390.0)" text-anchor="middle" font-family="Arial" font-size="20" fill="black">U:1 [SI]</text>
<polyline points="190.69,661.55 193.64,658.82 196.58,656.09 199.53,653.34 202.47,650.61 205.42,644.80 208.36,637.75 211.31,630.71 214.25,623.68 217.20,615.61 220.14,606.19 223.09,596.74 226.03,587.32 228.98,577.70 231.93,566.96 234.87,556.22 237.82,545.47 240.76,534.73 243.71,523.37 246.65,511.90 249.60,500.43 252.54,488.96 255.49,477.45 258.43,465.89 261.38,454.34 264.32,442.79 267.27,431.44 270.22,420.60 273.16,409.76 276.11,398.92 279.05,388.08 282.00,378.57 284.94,369.07 287.89,359.57 290.83,350.07 293.78,341.51 296.72,333.32 299.67,325.14 302.62,316.96 305.56,309.13 308.51,301.78 311.45,294.43 314.40,287.09 317.34,279.83 320.29,273.13 323.23,266.43 326.17,259.72 329.13,253.02 332.07,248.13 335.01,243.55 337.96,238.97 340.91,234.39 343.85,232.14 346.80,231.64 349.74,231.15 352.68,230.65 355.64,231.09 358.58,233.86 361.52,236.64 364.47,239.41 367.41,242.19 370.35,245.29 373.31,248.38 376.25,251.48 379.19,254.58 382.15,256.42 385.09,257.76 388.03,259.10 390.98,260.44 393.92,260.97 396.86,260.41 399.82,259.85 402.76,259.29 405.70,258.41 408.65,255.64 411.59,252.87 414.54,250.10 417.49,247.34 420.43,242.18 423.37,236.63 426.33,231.08 429.27,225.53 432.21,218.82 435.16,211.26 438.10,203.69 441.04,196.13 444.00,188.47 446.94,180.60 449.88,172.72 452.83,164.85 455.78,156.97 458.72,150.86 461.67,144.73 464.61,138.62 467.55,132.49 470.51,128.67 473.45,125.76 476.39,122.85 479.34,119.95 482.28,118.45 485.23,118.82 488.18,119.19 491.12,119.56 494.06,120.25 497.02,122.94 499.96,125.62 502.90,128.30 505.85,130.97 508.79,134.78 511.73,138.76 514.69,142.74 517.63,146.74 520.57,151.09 523.52,155.71 526.47,160.32 529.41,164.94 532.36,169.66 535.30,174.64 538.24,179.61 541.20,184.59 544.14,189.56 547.08,195.20 550.03,200.84 552.97,206.46 555.92,212.09 558.87,218.45 561.81,225.11 564.75,231.77 567.71,238.43 570.65,245.31 573.59,252.50 576.54,259.68 579.48,266.87 582.42,274.00 585.38,280.77 588.32,287.54 591.26,294.32 594.21,301.09 597.16,307.50 600.10,313.85 603.05,320.20 605.99,326.55 608.93,332.67 611.89,338.61 614.83,344.56 617.77,350.50 620.72,356.19 623.66,361.25 626.60,366.31 629.56,371.36 632.50,376.42 635.44,380.60 638.40,384.77 641.34,388.94 644.28,393.11 647.23,396.86 650.17,400.43 653.11,404.00 656.07,407.57 659.01,410.79 661.95,413.56 664.90,416.33 667.84,419.10 670.79,421.67 673.74,423.06 676.68,424.44 679.62,425.82 682.58,427.20 685.52,427.48 688.46,427.56 691.41,427.65 694.35,427.74 697.29,427.49 700.25,426.99 703.19,426.48 706.13,425.98 709.08,425.42 712.03,424.73 714.97,424.04 717.92,423.36 720.86,422.67 723.80,421.52 726.76,420.36 729.70,419.21 732.64,418.05 735.59,416.02 738.53,413.63 741.48,411.24 744.43,408.86 747.37,405.64 750.31,401.31 753.27,396.98 756.21,392.65 759.15,388.03 762.10,381.64 765.04,375.24 767.98,368.85 770.94,362.45 773.88,354.72 776.82,346.76 779.77,338.80 782.72,330.85 785.66,322.56 788.61,314.03 791.55,305.50 794.49,296.97 797.45,288.62 800.39,280.74 803.33,272.86 806.28,264.98 809.22,257.10 812.17,250.94 815.12,244.78 818.06,238.63 821.00,232.47 823.96,228.13 826.90,224.51 829.84,220.90 832.79,217.29 835.73,214.98 838.67,214.38 841.63,213.78 844.57,213.20 847.51,213.03 850.46,215.40 853.41,217.78 856.35,220.16 859.30,222.52 862.24,226.63 865.18,231.03 868.14,235.42 871.08,239.82 874.02,244.65 876.97,249.81 879.91,254.96 882.85,260.12 885.81,265.18 888.75,269.99 891.69,274.79 894.65,279.60 897.59,284.40 900.53,287.54 903.48,290.67 906.42,293.81 909.36,296.94 912.32,298.42 915.26,299.23 918.20,300.04 921.15,300.85 924.09,300.94 927.04,300.06 929.99,299.18 932.93,298.30 935.87,297.26 938.83,295.25 941.77,293.25 944.71,291.24 947.66,289.24 950.60,286.12 953.54,282.81 956.50,279.51 959.44,276.20 962.38,272.05 965.33,267.28 968.28,262.51 971.22,257.74 974.17,252.73 977.11,247.14 980.05,241.55 983.01,235.95 985.95,230.36 988.89,225.66 991.84,220.95 994.78,216.25 997.73,211.55 1000.68,208.57 1003.62,206.30 1006.56,204.01 1009.52,201.72 1012.46,200.68 1015.40,201.28 1018.35,201.89 1021.29,202.51 1024.23,203.50 1027.19,206.75 1030.13,210.03 1033.07,213.31 1036.02,216.57 1038.97,221.66 1041.91,227.04 1044.86,232.42 1047.80,237.81 1050.74,244.36 1053.70,251.77 1056.64,259.19 1059.58,266.60 1062.53,273.12 1065.47,277.39 1068.42,281.65 1071.37,285.92 1074.31,290.18" fill="none" stroke="#000000" stroke-width="3"/>
<line x1="142" y1="100" x2="178" y2="100" stroke="#000000" stroke-width="4"/>
<text x="188" y="105" font-family="Arial" font-size="18" fill="black">U:1</text>
</svg>