<svg xmlns="http://www.w3.org/2000/svg" width="1200" height="820" viewBox="0 0 1200 820">
<rect width="100%" height="100%" fill="white"/>
<text x="600.0" y="36" text-anchor="middle" font-family="Arial" font-size="24" fill="black">profile_center_x: U:0</text>
<line x1="120.00" y1="75" x2="120.00" y2="705" stroke="#dddddd" stroke-width="1"/>
<text x="120.00" y="737" text-anchor="middle" font-family="Arial" font-size="16" fill="black">-0.560</text>
<line x1="376.25" y1="75" x2="376.25" y2="705" stroke="#dddddd" stroke-width="1"/>
<text x="376.25" y="737" text-anchor="middle" font-family="Arial" font-size="16" fill="black">1.470</text>
<line x1="632.50" y1="75" x2="632.50" y2="705" stroke="#dddddd" stroke-width="1"/>
<text x="632.50" y="737" text-anchor="middle" font-family="Arial" font-size="16" fill="black">3.500</text>
<line x1="888.75" y1="75" x2="888.75" y2="705" stroke="#dddddd" stroke-width="1"/>
<text x="888.75" y="737" text-anchor="middle" font-family="Arial" font-size="16" fill="black">5.530</text>
<line x1="1145.00" y1="75" x2="1145.00" y2="705" stroke="#dddddd" stroke-width="1"/>
<text x="1145.00" y="737" text-anchor="middle" font-family="Arial" font-size="16" fill="black">7.560</text>
<line x1="120" y1="705.00" x2="1145" y2="705.00" stroke="#dddddd" stroke-width="1"/>
<text x="104" y="710.00" text-anchor="end" font-family="Arial" font-size="16" fill="black">-0.068</text>
<line x1="120" y1="547.50" x2="1145" y2="547.50" stroke="#dddddd" stroke-width="1"/>
<text x="104" y="552.50" text-anchor="end" font-family="Arial" font-size="16" fill="black">0.013</text>
<line x1="120" y1="390.00" x2="1145" y2="390.00" stroke="#dddddd" stroke-width="1"/>
<text x="104" y="395.00" text-anchor="end" font-family="Arial" font-size="16" fill="black">0.094</text>
<line x1="120" y1="232.50" x2="1145" y2="232.50" stroke="#dddddd" stroke-width="1"/>
<text x="104" y="237.50" text-anchor="end" font-family="Arial" font-size="16" fill="black">0.175</text>
<line x1="120" y1="75.00" x2="1145" y2="75.00" stroke="#dddddd" stroke-width="1"/>
<text x="104" y="80.00" text-anchor="end" font-family="Arial" font-size="16" fill="black">0.256</text>
<rect x="120" y="75" width="1025" height="630" fill="none" stroke="black" stroke-width="2"/>
<text x="632.5" y="785" text-anchor="middle" font-family="Arial" font-size="20" fill="black">x coordinate [m]</text>
<text x="34" y="390.0" transform="rotate(-90 34 390.0)" text-anchor="middle" font-family="Arial" font-size="20" fill="black">U:0 [SI]</text>
<polyline points="190.69,538.13 193.64,531.66 196.58,525.19 199.53,518.73 202.47,512.26 205.42,501.35 208.36,488.66 211.31,475.98 214.25,463.29 217.20,451.07 220.14,439.47 223.09,427.87 226.03,416.27 228.98,404.95 231.93,395.33 234.87,385.71 237.82,376.08 240.76,366.47 243.71,359.07 246.65,352.07 249.60,345.05 252.54,338.04 255.49,332.96 258.43,329.33 261.38,325.69 264.32,322.07 267.27,319.64 270.22,320.20 273.16,320.79 276.11,321.37 279.05,321.95 282.00,327.22 284.94,332.52 287.89,337.81 290.83,343.08 293.78,351.58 296.72,361.39 299.67,371.17 302.62,380.97 305.56,392.23 308.51,405.43 311.45,418.64 314.40,431.84 317.34,445.34 320.29,460.62 323.23,475.90 326.17,491.18 329.13,506.45 332.07,521.45 335.01,536.41 337.96,551.36 340.91,566.31 343.85,575.25 346.80,579.69 349.74,584.12 352.68,588.55 355.64,588.40 358.58,576.80 361.52,565.19 364.47,553.59 367.41,541.98 370.35,525.83 373.31,509.68 376.25,493.53 379.19,477.38 382.15,463.54 385.09,450.62 388.03,437.70 390.98,424.77 393.92,412.00 396.86,399.41 399.82,386.83 402.76,374.25 405.70,361.52 408.65,347.96 411.59,334.40 414.54,320.84 417.49,307.28 420.43,294.87 423.37,282.63 426.33,270.40 429.27,258.18 432.21,248.12 435.16,239.69 438.10,231.27 441.04,222.85 444.00,215.96 446.94,212.96 449.88,209.97 452.83,206.99 455.78,203.99 458.72,207.24 461.67,210.49 464.61,213.76 467.55,217.01 470.51,224.01 473.45,232.48 476.39,240.96 479.34,249.44 482.28,259.07 485.23,270.24 488.18,281.43 491.12,292.59 494.06,303.82 497.02,315.43 499.96,327.05 502.90,338.65 505.85,350.26 508.79,361.43 511.73,372.54 514.69,383.64 517.63,394.75 520.57,405.78 523.52,416.78 526.47,427.77 529.41,438.76 532.36,450.15 535.30,462.55 538.24,474.95 541.20,487.35 544.14,499.75 547.08,514.89 550.03,530.03 552.97,545.17 555.92,560.30 558.87,575.51 561.81,590.74 564.75,605.97 567.71,621.20 570.65,633.15 573.59,640.73 576.54,648.31 579.48,655.89 582.42,661.55 585.38,655.67 588.32,649.80 591.26,643.92 594.21,638.04 597.16,625.94 600.10,612.80 603.05,599.66 605.99,586.52 608.93,572.32 611.89,557.33 614.83,542.33 617.77,527.34 620.72,511.73 623.66,494.59 626.60,477.45 629.56,460.31 632.50,443.17 635.44,423.10 638.40,403.02 641.34,382.95 644.28,362.87 647.23,340.22 650.17,316.54 653.11,292.85 656.07,269.17 659.01,246.37 661.95,224.75 664.90,203.14 667.84,181.52 670.79,161.46 673.74,150.71 676.68,139.95 679.62,129.21 682.58,118.45 685.52,120.63 688.46,124.95 691.41,129.28 694.35,133.60 697.29,144.11 700.25,159.25 703.19,174.38 706.13,189.52 709.08,205.74 712.03,224.69 714.97,243.62 717.92,262.55 720.86,281.49 723.80,299.05 726.76,316.60 729.70,334.17 732.64,351.72 735.59,366.62 738.53,380.44 741.48,394.26 744.43,408.09 747.37,420.30 750.31,430.37 753.27,440.44 756.21,450.51 759.15,460.22 762.10,467.80 765.04,475.38 767.98,482.96 770.94,490.54 773.88,497.23 776.82,503.79 779.77,510.33 782.72,516.88 785.66,523.22 788.61,529.39 791.55,535.57 794.49,541.74 797.45,547.63 800.39,552.82 803.33,557.99 806.28,563.17 809.22,568.36 812.17,570.96 815.12,573.57 818.06,576.18 821.00,578.79 823.96,578.22 826.90,576.38 829.84,574.54 832.79,572.70 835.73,568.17 838.67,560.06 841.63,551.96 844.57,543.85 847.51,534.94 850.46,521.21 853.41,507.47 856.35,493.73 859.30,480.00 862.24,464.32 865.18,448.31 868.14,432.30 871.08,416.29 874.02,400.26 876.97,384.21 879.91,368.16 882.85,352.11 885.81,336.10 888.75,320.18 891.69,304.27 894.65,288.35 897.59,272.46 900.53,257.91 903.48,243.35 906.42,228.80 909.36,214.25 912.32,205.24 915.26,198.45 918.20,191.64 921.15,184.85 924.09,184.17 927.04,191.64 929.99,199.11 932.93,206.58 935.87,215.80 938.83,235.67 941.77,255.53 944.71,275.40 947.66,295.26 950.60,319.33 953.54,344.07 956.50,368.82 959.44,393.58 962.38,416.95 965.33,439.29 968.28,461.62 971.22,483.96 974.17,504.50 977.11,520.57 980.05,536.64 983.01,552.71 985.95,568.78 988.89,578.81 991.84,588.84 994.78,598.87 997.73,608.91 1000.68,615.77 1003.62,621.37 1006.56,626.97 1009.52,632.57 1012.46,636.71 1015.40,638.92 1018.35,641.13 1021.29,643.34 1024.23,645.13 1027.19,644.43 1030.13,643.72 1033.07,643.01 1036.02,642.30 1038.97,639.59 1041.91,636.55 1044.86,633.51 1047.80,630.47 1050.74,626.05 1053.70,620.60 1056.64,615.15 1059.58,609.70 1062.53,604.83 1065.47,601.37 1068.42,597.91 1071.37,594.46 1074.31,591.00" fill="none" stroke="#000000" stroke-width="3"/>
<line x1="142" y1="100" x2="178" y2="100" stroke="#000000" stroke-width="4"/>
<text x="188" y="105" font-family="Arial" font-size="18" fill="black">U:0</text>
</svg>