<svg xmlns="http://www.w3.org/2000/svg" width="1200" height="820" viewBox="0 0 1200 820">
<rect width="100%" height="100%" fill="white"/>
<text x="600.0" y="36" text-anchor="middle" font-family="Arial" font-size="24" fill="black">profile_near_ceiling_x: vorticity:2</text>
<line x1="120.00" y1="75" x2="120.00" y2="705" stroke="#dddddd" stroke-width="1"/>
<text x="120.00" y="737" text-anchor="middle" font-family="Arial" font-size="16" fill="black">-0.560</text>
<line x1="376.25" y1="75" x2="376.25" y2="705" stroke="#dddddd" stroke-width="1"/>
<text x="376.25" y="737" text-anchor="middle" font-family="Arial" font-size="16" fill="black">1.470</text>
<line x1="632.50" y1="75" x2="632.50" y2="705" stroke="#dddddd" stroke-width="1"/>
<text x="632.50" y="737" text-anchor="middle" font-family="Arial" font-size="16" fill="black">3.500</text>
<line x1="888.75" y1="75" x2="888.75" y2="705" stroke="#dddddd" stroke-width="1"/>
<text x="888.75" y="737" text-anchor="middle" font-family="Arial" font-size="16" fill="black">5.530</text>
<line x1="1145.00" y1="75" x2="1145.00" y2="705" stroke="#dddddd" stroke-width="1"/>
<text x="1145.00" y="737" text-anchor="middle" font-family="Arial" font-size="16" fill="black">7.560</text>
<line x1="120" y1="705.00" x2="1145" y2="705.00" stroke="#dddddd" stroke-width="1"/>
<text x="104" y="710.00" text-anchor="end" font-family="Arial" font-size="16" fill="black">-2.756</text>
<line x1="120" y1="547.50" x2="1145" y2="547.50" stroke="#dddddd" stroke-width="1"/>
<text x="104" y="552.50" text-anchor="end" font-family="Arial" font-size="16" fill="black">-1.886</text>
<line x1="120" y1="390.00" x2="1145" y2="390.00" stroke="#dddddd" stroke-width="1"/>
<text x="104" y="395.00" text-anchor="end" font-family="Arial" font-size="16" fill="black">-1.016</text>
<line x1="120" y1="232.50" x2="1145" y2="232.50" stroke="#dddddd" stroke-width="1"/>
<text x="104" y="237.50" text-anchor="end" font-family="Arial" font-size="16" fill="black">-0.146</text>
<line x1="120" y1="75.00" x2="1145" y2="75.00" stroke="#dddddd" stroke-width="1"/>
<text x="104" y="80.00" text-anchor="end" font-family="Arial" font-size="16" fill="black">0.723</text>
<rect x="120" y="75" width="1025" height="630" fill="none" stroke="black" stroke-width="2"/>
<text x="632.5" y="785" text-anchor="middle" font-family="Arial" font-size="20" fill="black">x coordinate [m]</text>
<text x="34" y="390.0" transform="rotate(-90 34 390.0)" text-anchor="middle" font-family="Arial" font-size="20" fill="black">vorticity:2 [SI]</text>
<polyline points="190.69,661.55 193.64,608.62 196.58,555.69 199.53,502.75 202.47,449.82 205.42,396.25 208.36,342.44 211.31,288.62 214.25,234.80 217.20,203.52 220.14,202.28 223.09,201.05 226.03,199.81 228.98,198.67 231.93,198.11 234.87,197.55 237.82,196.99 240.76,196.42 243.71,196.05 246.65,195.71 249.60,195.37 252.54,195.03 255.49,194.81 258.43,194.67 261.38,194.54 264.32,194.40 267.27,194.32 270.22,194.38 273.16,194.45 276.11,194.51 279.05,194.58 282.00,194.85 284.94,195.13 287.89,195.40 290.83,195.68 293.78,196.11 296.72,196.61 299.67,197.11 302.62,197.61 305.56,198.19 308.51,198.88 311.45,199.56 314.40,200.25 317.34,200.95 320.29,201.75 323.23,202.55 326.17,203.35 329.13,204.15 332.07,204.97 335.01,205.79 337.96,206.62 340.91,207.44 343.85,208.22 346.80,208.98 349.74,209.74 352.68,210.49 355.64,211.22 358.58,211.86 361.52,212.51 364.47,213.16 367.41,213.81 370.35,214.43 373.31,215.05 376.25,215.67 379.19,216.29 382.15,217.03 385.09,217.81 388.03,218.60 390.98,219.38 393.92,220.25 396.86,221.24 399.82,222.23 402.76,223.21 405.70,224.20 408.65,225.21 411.59,226.21 414.54,227.21 417.49,228.21 420.43,229.09 423.37,229.94 426.33,230.79 429.27,231.64 432.21,232.38 435.16,233.05 438.10,233.72 441.04,234.40 444.00,235.01 446.94,235.50 449.88,235.99 452.83,236.47 455.78,236.96 458.72,237.22 461.67,237.49 464.61,237.75 467.55,238.02 470.51,238.06 473.45,238.01 476.39,237.96 479.34,237.91 482.28,237.64 485.23,237.09 488.18,236.53 491.12,235.97 494.06,235.27 497.02,233.73 499.96,232.19 502.90,230.65 505.85,229.11 508.79,226.24 511.73,223.14 514.69,220.05 517.63,216.95 520.57,213.14 523.52,208.80 526.47,204.46 529.41,200.12 532.36,195.67 535.30,190.95 538.24,186.24 541.20,181.52 544.14,176.81 547.08,172.18 550.03,167.55 552.97,162.92 555.92,158.29 558.87,153.94 561.81,149.69 564.75,145.44 567.71,141.19 570.65,137.27 573.59,133.77 576.54,130.27 579.48,126.77 582.42,123.59 585.38,122.30 588.32,121.02 591.26,119.73 594.21,118.45 597.16,121.18 600.10,124.58 603.05,127.98 605.99,131.37 608.93,136.49 611.89,142.89 614.83,149.28 617.77,155.68 620.72,161.41 623.66,165.45 626.60,169.48 629.56,173.52 632.50,177.56 635.44,178.96 638.40,180.36 641.34,181.76 644.28,183.16 647.23,184.44 650.17,185.67 653.11,186.89 656.07,188.12 659.01,189.31 661.95,190.44 664.90,191.58 667.84,192.71 670.79,193.80 673.74,194.69 676.68,195.57 679.62,196.45 682.58,197.33 685.52,198.04 688.46,198.74 691.41,199.43 694.35,200.12 697.29,200.72 700.25,201.27 703.19,201.81 706.13,202.35 709.08,202.86 712.03,203.29 714.97,203.71 717.92,204.14 720.86,204.56 723.80,204.89 726.76,205.22 729.70,205.54 732.64,205.87 735.59,206.14 738.53,206.40 741.48,206.65 744.43,206.91 747.37,207.15 750.31,207.38 753.27,207.60 756.21,207.82 759.15,208.05 762.10,208.29 765.04,208.52 767.98,208.76 770.94,208.99 773.88,209.26 776.82,209.54 779.77,209.82 782.72,210.10 785.66,210.41 788.61,210.75 791.55,211.08 794.49,211.41 797.45,211.76 800.39,212.15 803.33,212.54 806.28,212.93 809.22,213.32 812.17,213.76 815.12,214.20 818.06,214.65 821.00,215.09 823.96,215.56 826.90,216.04 829.84,216.52 832.79,217.01 835.73,217.50 838.67,218.00 841.63,218.49 844.57,218.99 847.51,219.49 850.46,219.99 853.41,220.49 856.35,220.98 859.30,221.48 862.24,221.95 865.18,222.41 868.14,222.88 871.08,223.35 874.02,223.78 876.97,224.19 879.91,224.60 882.85,225.02 885.81,225.40 888.75,225.74 891.69,226.07 894.65,226.40 897.59,226.74 900.53,226.98 903.48,227.22 906.42,227.46 909.36,227.70 912.32,227.87 915.26,228.01 918.20,228.15 921.15,228.28 924.09,228.38 927.04,228.41 929.99,228.44 932.93,228.47 935.87,228.49 938.83,228.41 941.77,228.33 944.71,228.26 947.66,228.18 950.60,228.01 953.54,227.83 956.50,227.65 959.44,227.47 962.38,227.24 965.33,226.96 968.28,226.69 971.22,226.42 974.17,226.13 977.11,225.79 980.05,225.45 983.01,225.11 985.95,224.77 988.89,224.40 991.84,224.03 994.78,223.66 997.73,223.29 1000.68,222.93 1003.62,222.57 1006.56,222.21 1009.52,221.86 1012.46,221.53 1015.40,221.25 1018.35,220.98 1021.29,220.70 1024.23,220.45 1027.19,220.39 1030.13,220.33 1033.07,220.26 1036.02,220.20 1038.97,220.80 1041.91,221.51 1044.86,222.22 1047.80,222.94 1050.74,241.50 1053.70,273.46 1056.64,305.42 1059.58,337.38 1062.53,369.15 1065.47,400.44 1068.42,431.73 1071.37,463.02 1074.31,494.31" fill="none" stroke="#000000" stroke-width="3"/>
<line x1="142" y1="100" x2="178" y2="100" stroke="#000000" stroke-width="4"/>
<text x="188" y="105" font-family="Arial" font-size="18" fill="black">vorticity:2</text>
</svg>