<svg xmlns="http://www.w3.org/2000/svg" width="1200" height="820" viewBox="0 0 1200 820">
<rect width="100%" height="100%" fill="white"/>
<text x="600.0" y="36" text-anchor="middle" font-family="Arial" font-size="24" fill="black">profile_near_floor_x: U:0</text>
<line x1="120.00" y1="75" x2="120.00" y2="705" stroke="#dddddd" stroke-width="1"/>
<text x="120.00" y="737" text-anchor="middle" font-family="Arial" font-size="16" fill="black">-0.560</text>
<line x1="376.25" y1="75" x2="376.25" y2="705" stroke="#dddddd" stroke-width="1"/>
<text x="376.25" y="737" text-anchor="middle" font-family="Arial" font-size="16" fill="black">1.470</text>
<line x1="632.50" y1="75" x2="632.50" y2="705" stroke="#dddddd" stroke-width="1"/>
<text x="632.50" y="737" text-anchor="middle" font-family="Arial" font-size="16" fill="black">3.500</text>
<line x1="888.75" y1="75" x2="888.75" y2="705" stroke="#dddddd" stroke-width="1"/>
<text x="888.75" y="737" text-anchor="middle" font-family="Arial" font-size="16" fill="black">5.530</text>
<line x1="1145.00" y1="75" x2="1145.00" y2="705" stroke="#dddddd" stroke-width="1"/>
<text x="1145.00" y="737" text-anchor="middle" font-family="Arial" font-size="16" fill="black">7.560</text>
<line x1="120" y1="705.00" x2="1145" y2="705.00" stroke="#dddddd" stroke-width="1"/>
<text x="104" y="710.00" text-anchor="end" font-family="Arial" font-size="16" fill="black">-0.105</text>
<line x1="120" y1="547.50" x2="1145" y2="547.50" stroke="#dddddd" stroke-width="1"/>
<text x="104" y="552.50" text-anchor="end" font-family="Arial" font-size="16" fill="black">-0.044</text>
<line x1="120" y1="390.00" x2="1145" y2="390.00" stroke="#dddddd" stroke-width="1"/>
<text x="104" y="395.00" text-anchor="end" font-family="Arial" font-size="16" fill="black">0.017</text>
<line x1="120" y1="232.50" x2="1145" y2="232.50" stroke="#dddddd" stroke-width="1"/>
<text x="104" y="237.50" text-anchor="end" font-family="Arial" font-size="16" fill="black">0.078</text>
<line x1="120" y1="75.00" x2="1145" y2="75.00" stroke="#dddddd" stroke-width="1"/>
<text x="104" y="80.00" text-anchor="end" font-family="Arial" font-size="16" fill="black">0.139</text>
<rect x="120" y="75" width="1025" height="630" fill="none" stroke="black" stroke-width="2"/>
<text x="632.5" y="785" text-anchor="middle" font-family="Arial" font-size="20" fill="black">x coordinate [m]</text>
<text x="34" y="390.0" transform="rotate(-90 34 390.0)" text-anchor="middle" font-family="Arial" font-size="20" fill="black">U:0 [SI]</text>
<polyline points="190.69,598.39 193.64,595.34 196.58,592.28 199.53,589.22 202.47,586.16 205.42,588.14 208.36,592.13 211.31,596.12 214.25,600.12 217.20,606.71 220.14,616.76 223.09,626.81 226.03,636.87 228.98,646.04 231.93,649.92 234.87,653.79 237.82,657.67 240.76,661.55 243.71,660.34 246.65,658.29 249.60,656.23 252.54,654.18 255.49,647.16 258.43,636.42 261.38,625.67 264.32,614.93 267.27,601.90 270.22,583.16 273.16,564.43 276.11,545.69 279.05,526.95 282.00,499.52 284.94,472.09 287.89,444.66 290.83,417.23 293.78,393.73 296.72,371.81 299.67,349.88 302.62,327.96 305.56,314.90 308.51,313.67 311.45,312.43 314.40,311.20 317.34,309.73 320.29,306.82 323.23,303.91 326.17,301.00 329.13,298.09 332.07,297.61 335.01,297.54 337.96,297.47 340.91,297.40 343.85,303.25 346.80,313.55 349.74,323.85 352.68,334.14 355.64,342.89 358.58,347.79 361.52,352.69 364.47,357.59 367.41,362.49 370.35,363.87 373.31,365.24 376.25,366.62 379.19,368.00 382.15,367.48 385.09,366.21 388.03,364.94 390.98,363.67 393.92,359.40 396.86,351.12 399.82,342.85 402.76,334.58 405.70,328.16 408.65,332.89 411.59,337.63 414.54,342.36 417.49,347.10 420.43,383.01 423.37,424.11 426.33,465.22 429.27,506.32 432.21,530.02 435.16,540.66 438.10,551.30 441.04,561.94 444.00,561.08 446.94,531.47 449.88,501.86 452.83,472.25 455.78,442.64 458.72,424.42 461.67,406.20 464.61,387.98 467.55,369.76 470.51,357.07 473.45,346.61 476.39,336.14 479.34,325.67 482.28,318.01 485.23,314.08 488.18,310.15 491.12,306.22 494.06,302.93 497.02,303.43 499.96,303.94 502.90,304.44 505.85,304.95 508.79,306.88 511.73,309.04 514.69,311.21 517.63,313.37 520.57,314.50 523.52,314.85 526.47,315.20 529.41,315.55 532.36,314.92 535.30,311.82 538.24,308.72 541.20,305.62 544.14,302.52 547.08,294.81 550.03,287.09 552.97,279.38 555.92,271.67 558.87,283.25 561.81,302.54 564.75,321.84 567.71,341.13 570.65,366.67 573.59,400.55 576.54,434.42 579.48,468.30 582.42,497.53 585.38,498.91 588.32,500.30 591.26,501.68 594.21,503.06 597.16,496.23 600.10,488.03 603.05,479.82 605.99,471.62 608.93,467.30 611.89,465.89 614.83,464.47 617.77,463.06 620.72,461.77 623.66,460.78 626.60,459.80 629.56,458.81 632.50,457.83 635.44,458.94 638.40,460.05 641.34,461.17 644.28,462.28 647.23,466.68 650.17,472.38 653.11,478.08 656.07,483.78 659.01,486.44 661.95,485.03 664.90,483.62 667.84,482.21 670.79,480.91 673.74,480.29 676.68,479.68 679.62,479.06 682.58,478.44 685.52,490.56 688.46,504.80 691.41,519.03 694.35,533.27 697.29,542.04 700.25,546.69 703.19,551.35 706.13,556.01 709.08,556.22 712.03,545.32 714.97,534.41 717.92,523.51 720.86,512.61 723.80,499.52 726.76,486.44 729.70,473.36 732.64,460.28 735.59,447.52 738.53,434.90 741.48,422.28 744.43,409.65 747.37,396.89 750.31,383.95 753.27,371.00 756.21,358.06 759.15,344.96 762.10,330.92 765.04,316.88 767.98,302.84 770.94,288.80 773.88,273.79 776.82,258.63 779.77,243.46 782.72,228.29 785.66,213.56 788.61,199.16 791.55,184.75 794.49,170.35 797.45,157.49 800.39,148.54 803.33,139.59 806.28,130.64 809.22,121.68 812.17,120.88 815.12,120.05 818.06,119.25 821.00,118.45 823.96,139.20 826.90,168.59 829.84,197.99 832.79,227.39 835.73,262.71 838.67,305.93 841.63,349.16 844.57,392.38 847.51,430.55 850.46,438.42 853.41,446.28 856.35,454.15 859.30,462.01 862.24,458.02 865.18,452.05 868.14,446.08 871.08,440.11 874.02,438.11 876.97,439.10 879.91,440.08 882.85,441.06 885.81,441.88 888.75,442.31 891.69,442.73 894.65,443.15 897.59,443.57 900.53,446.05 903.48,448.53 906.42,451.01 909.36,453.50 912.32,457.64 915.26,462.45 918.20,467.26 921.15,472.06 924.09,474.08 927.04,472.36 929.99,470.65 932.93,468.93 935.87,466.63 938.83,460.77 941.77,454.91 944.71,449.04 947.66,443.18 950.60,444.94 953.54,447.98 956.50,451.01 959.44,454.04 962.38,452.78 965.33,448.31 968.28,443.83 971.22,439.36 974.17,431.58 977.11,415.52 980.05,399.47 983.01,383.42 985.95,367.36 988.89,352.45 991.84,337.54 994.78,322.62 997.73,307.71 1000.68,294.17 1003.62,281.17 1006.56,268.18 1009.52,255.18 1012.46,243.79 1015.40,234.54 1018.35,225.29 1021.29,216.04 1024.23,207.46 1027.19,202.95 1030.13,198.45 1033.07,193.94 1036.02,189.44 1038.97,193.69 1041.91,199.41 1044.86,205.13 1047.80,210.85 1050.74,220.94 1053.70,234.31 1056.64,247.68 1059.58,261.05 1062.53,272.51 1065.47,279.16 1068.42,285.82 1071.37,292.48 1074.31,299.14" fill="none" stroke="#000000" stroke-width="3"/>
<line x1="142" y1="100" x2="178" y2="100" stroke="#000000" stroke-width="4"/>
<text x="188" y="105" font-family="Arial" font-size="18" fill="black">U:0</text>
</svg>