<svg xmlns="http://www.w3.org/2000/svg" width="1200" height="820" viewBox="0 0 1200 820">
<rect width="100%" height="100%" fill="white"/>
<text x="600.0" y="36" text-anchor="middle" font-family="Arial" font-size="24" fill="black">profile_center_y: vorticity:0</text>
<line x1="120.00" y1="75" x2="120.00" y2="705" stroke="#dddddd" stroke-width="1"/>
<text x="120.00" y="737" text-anchor="middle" font-family="Arial" font-size="16" fill="black">-0.400</text>
<line x1="376.25" y1="75" x2="376.25" y2="705" stroke="#dddddd" stroke-width="1"/>
<text x="376.25" y="737" text-anchor="middle" font-family="Arial" font-size="16" fill="black">1.050</text>
<line x1="632.50" y1="75" x2="632.50" y2="705" stroke="#dddddd" stroke-width="1"/>
<text x="632.50" y="737" text-anchor="middle" font-family="Arial" font-size="16" fill="black">2.500</text>
<line x1="888.75" y1="75" x2="888.75" y2="705" stroke="#dddddd" stroke-width="1"/>
<text x="888.75" y="737" text-anchor="middle" font-family="Arial" font-size="16" fill="black">3.950</text>
<line x1="1145.00" y1="75" x2="1145.00" y2="705" stroke="#dddddd" stroke-width="1"/>
<text x="1145.00" y="737" text-anchor="middle" font-family="Arial" font-size="16" fill="black">5.400</text>
<line x1="120" y1="705.00" x2="1145" y2="705.00" stroke="#dddddd" stroke-width="1"/>
<text x="104" y="710.00" text-anchor="end" font-family="Arial" font-size="16" fill="black">-4.435</text>
<line x1="120" y1="547.50" x2="1145" y2="547.50" stroke="#dddddd" stroke-width="1"/>
<text x="104" y="552.50" text-anchor="end" font-family="Arial" font-size="16" fill="black">-2.531</text>
<line x1="120" y1="390.00" x2="1145" y2="390.00" stroke="#dddddd" stroke-width="1"/>
<text x="104" y="395.00" text-anchor="end" font-family="Arial" font-size="16" fill="black">-0.626</text>
<line x1="120" y1="232.50" x2="1145" y2="232.50" stroke="#dddddd" stroke-width="1"/>
<text x="104" y="237.50" text-anchor="end" font-family="Arial" font-size="16" fill="black">1.278</text>
<line x1="120" y1="75.00" x2="1145" y2="75.00" stroke="#dddddd" stroke-width="1"/>
<text x="104" y="80.00" text-anchor="end" font-family="Arial" font-size="16" fill="black">3.182</text>
<rect x="120" y="75" width="1025" height="630" fill="none" stroke="black" stroke-width="2"/>
<text x="632.5" y="785" text-anchor="middle" font-family="Arial" font-size="20" fill="black">y coordinate [m]</text>
<text x="34" y="390.0" transform="rotate(-90 34 390.0)" text-anchor="middle" font-family="Arial" font-size="20" fill="black">vorticity:0 [SI]</text>
<polyline points="190.69,118.45 193.64,135.00 196.58,151.54 199.53,168.09 202.47,184.64 205.42,201.18 208.36,217.73 211.31,234.87 214.25,252.01 217.20,269.15 220.14,286.29 223.09,303.43 226.03,320.57 228.98,321.38 231.92,322.20 234.87,323.01 237.82,323.82 240.76,324.64 243.71,325.45 246.65,325.30 249.60,325.16 252.54,325.01 255.49,324.86 258.43,324.72 261.38,324.57 264.33,323.23 267.27,321.90 270.22,320.56 273.16,319.23 276.11,317.89 279.05,316.55 282.00,314.16 284.94,311.76 287.89,309.36 290.83,306.96 293.78,304.56 296.72,302.16 299.67,299.37 302.61,296.58 305.56,293.78 308.51,290.99 311.45,288.20 314.40,285.40 317.34,283.68 320.29,281.95 323.23,280.22 326.18,278.50 329.12,276.77 332.07,275.04 335.01,276.22 337.96,277.39 340.91,278.57 343.85,279.74 346.80,280.92 349.74,282.09 352.69,288.14 355.63,294.18 358.58,300.23 361.52,306.27 364.47,312.31 367.41,318.36 370.37,328.22 373.30,338.09 376.25,347.96 379.20,357.82 382.13,367.69 385.09,377.55 388.04,386.09 390.97,394.63 393.92,403.17 396.87,411.70 399.81,420.24 402.76,428.78 405.71,433.20 408.64,437.62 411.59,442.03 414.55,446.45 417.48,450.87 420.43,455.28 423.38,456.62 426.32,457.96 429.27,459.29 432.22,460.63 435.15,461.96 438.10,463.30 441.05,462.90 443.99,462.50 446.94,462.11 449.89,461.71 452.82,461.31 455.78,460.92 458.73,459.61 461.66,458.31 464.61,457.00 467.56,455.71 470.50,454.41 473.45,453.10 476.40,451.33 479.33,449.55 482.28,447.78 485.24,446.00 488.17,444.23 491.12,442.45 494.07,440.41 497.01,438.36 499.96,436.32 502.91,434.27 505.84,432.21 508.79,430.17 511.74,427.54 514.68,424.90 517.63,422.27 520.58,419.64 523.51,417.00 526.47,414.37 529.42,410.02 532.35,405.67 535.30,401.32 538.25,396.97 541.19,392.62 544.14,388.27 547.09,381.97 550.02,375.68 552.97,369.38 555.93,363.09 558.86,356.79 561.81,350.49 564.76,345.01 567.70,339.52 570.65,334.03 573.60,328.54 576.53,323.05 579.48,317.56 582.43,315.78 585.37,314.01 588.32,312.23 591.27,310.46 594.20,308.69 597.16,306.91 600.11,308.74 603.04,310.57 605.99,312.40 608.94,314.24 611.88,316.07 614.83,317.90 617.78,320.60 620.71,323.31 623.66,326.01 626.62,328.72 629.55,331.42 632.50,334.13 635.45,336.04 638.38,337.96 641.34,339.87 644.29,341.78 647.22,343.70 650.17,345.61 653.12,347.75 656.06,349.88 659.01,352.02 661.96,354.16 664.89,356.30 667.84,358.43 670.80,361.20 673.73,363.97 676.68,366.75 679.63,369.52 682.57,372.29 685.52,375.06 688.47,376.56 691.40,378.06 694.35,379.56 697.30,381.06 700.24,382.56 703.19,384.06 706.14,382.86 709.07,381.65 712.03,380.45 714.98,379.24 717.91,378.04 720.86,376.84 723.81,373.57 726.75,370.31 729.70,367.04 732.65,363.78 735.58,360.51 738.53,357.25 741.49,352.74 744.42,348.22 747.37,343.71 750.32,339.20 753.26,334.68 756.21,330.17 759.16,324.77 762.09,319.36 765.04,313.96 767.99,308.55 770.93,303.15 773.88,297.74 776.83,291.71 779.76,285.68 782.72,279.65 785.67,273.62 788.60,267.58 791.55,261.55 794.50,256.55 797.44,251.55 800.39,246.54 803.34,241.54 806.27,236.53 809.22,231.53 812.18,230.82 815.11,230.11 818.06,229.39 821.01,228.68 823.95,227.96 826.90,227.25 829.85,232.12 832.78,236.98 835.73,241.84 838.68,246.71 841.62,251.57 844.57,256.43 847.52,264.88 850.45,273.33 853.41,281.78 856.36,290.23 859.29,298.68 862.24,307.13 865.19,315.86 868.13,324.60 871.08,333.34 874.03,342.07 876.96,350.81 879.91,359.55 882.87,364.14 885.80,368.74 888.75,373.34 891.70,377.94 894.63,382.54 897.59,387.14 900.54,385.55 903.47,383.97 906.42,382.38 909.37,380.80 912.31,379.21 915.26,377.63 918.21,373.35 921.14,369.06 924.09,364.78 927.05,360.50 929.98,356.22 932.93,351.93 935.88,348.76 938.82,345.59 941.77,342.42 944.72,339.25 947.65,336.08 950.60,332.91 953.55,331.44 956.49,329.97 959.44,328.50 962.39,327.04 965.32,325.57 968.28,324.10 971.23,323.53 974.16,322.96 977.11,322.39 980.06,321.82 983.00,321.25 985.95,320.68 988.90,320.22 991.83,319.76 994.78,319.30 997.74,318.84 1000.67,318.38 1003.62,317.92 1006.57,317.20 1009.51,316.47 1012.46,315.75 1015.41,315.03 1018.34,314.31 1021.29,313.59 1024.24,312.76 1027.18,311.94 1030.13,311.11 1033.08,310.29 1036.01,309.46 1038.97,308.64 1041.92,337.86 1044.85,367.08 1047.80,396.31 1050.75,425.53 1053.69,454.75 1056.64,483.97 1059.59,513.56 1062.52,543.17 1065.47,572.76 1068.43,602.36 1071.36,631.96 1074.31,661.55" fill="none" stroke="#000000" stroke-width="3"/>
<line x1="142" y1="100" x2="178" y2="100" stroke="#000000" stroke-width="4"/>
<text x="188" y="105" font-family="Arial" font-size="18" fill="black">vorticity:0</text>
</svg>