<svg xmlns="http://www.w3.org/2000/svg" width="1200" height="820" viewBox="0 0 1200 820">
<rect width="100%" height="100%" fill="white"/>
<text x="600.0" y="36" text-anchor="middle" font-family="Arial" font-size="24" fill="black">profile_rack_height_x: epsilon</text>
<line x1="120.00" y1="75" x2="120.00" y2="705" stroke="#dddddd" stroke-width="1"/>
<text x="120.00" y="737" text-anchor="middle" font-family="Arial" font-size="16" fill="black">-0.560</text>
<line x1="376.25" y1="75" x2="376.25" y2="705" stroke="#dddddd" stroke-width="1"/>
<text x="376.25" y="737" text-anchor="middle" font-family="Arial" font-size="16" fill="black">1.470</text>
<line x1="632.50" y1="75" x2="632.50" y2="705" stroke="#dddddd" stroke-width="1"/>
<text x="632.50" y="737" text-anchor="middle" font-family="Arial" font-size="16" fill="black">3.500</text>
<line x1="888.75" y1="75" x2="888.75" y2="705" stroke="#dddddd" stroke-width="1"/>
<text x="888.75" y="737" text-anchor="middle" font-family="Arial" font-size="16" fill="black">5.530</text>
<line x1="1145.00" y1="75" x2="1145.00" y2="705" stroke="#dddddd" stroke-width="1"/>
<text x="1145.00" y="737" text-anchor="middle" font-family="Arial" font-size="16" fill="black">7.560</text>
<line x1="120" y1="705.00" x2="1145" y2="705.00" stroke="#dddddd" stroke-width="1"/>
<text x="104" y="710.00" text-anchor="end" font-family="Arial" font-size="16" fill="black">4.57e-04</text>
<line x1="120" y1="547.50" x2="1145" y2="547.50" stroke="#dddddd" stroke-width="1"/>
<text x="104" y="552.50" text-anchor="end" font-family="Arial" font-size="16" fill="black">0.003</text>
<line x1="120" y1="390.00" x2="1145" y2="390.00" stroke="#dddddd" stroke-width="1"/>
<text x="104" y="395.00" text-anchor="end" font-family="Arial" font-size="16" fill="black">0.005</text>
<line x1="120" y1="232.50" x2="1145" y2="232.50" stroke="#dddddd" stroke-width="1"/>
<text x="104" y="237.50" text-anchor="end" font-family="Arial" font-size="16" fill="black">0.007</text>
<line x1="120" y1="75.00" x2="1145" y2="75.00" stroke="#dddddd" stroke-width="1"/>
<text x="104" y="80.00" text-anchor="end" font-family="Arial" font-size="16" fill="black">0.009</text>
<rect x="120" y="75" width="1025" height="630" fill="none" stroke="black" stroke-width="2"/>
<text x="632.5" y="785" text-anchor="middle" font-family="Arial" font-size="20" fill="black">x coordinate [m]</text>
<text x="34" y="390.0" transform="rotate(-90 34 390.0)" text-anchor="middle" font-family="Arial" font-size="20" fill="black">epsilon [m2/s3]</text>
<polyline points="190.69,526.49 193.64,535.87 196.58,545.26 199.53,554.65 202.47,564.04 205.42,575.51 208.36,587.81 211.31,600.12 214.25,612.41 217.20,621.30 220.14,625.64 223.09,629.98 226.03,634.32 228.98,638.33 231.93,640.36 234.87,642.38 237.82,644.41 240.76,646.44 243.71,647.10 246.65,647.53 249.60,647.96 252.54,648.39 255.49,647.82 258.43,646.50 261.38,645.18 264.32,643.85 267.27,641.85 270.22,638.17 273.16,634.48 276.11,630.79 279.05,627.10 282.00,620.34 284.94,613.58 287.89,606.82 290.83,600.06 293.78,591.12 296.72,581.32 299.67,571.52 302.62,561.72 305.56,551.20 308.51,539.72 311.45,528.22 314.40,516.74 317.34,505.20 320.29,493.35 323.23,481.50 326.17,469.65 329.13,457.80 332.07,442.64 335.01,426.95 337.96,411.24 340.91,395.54 343.85,373.09 346.80,345.61 349.74,318.11 352.68,290.62 355.64,267.57 358.58,255.59 361.52,243.63 364.47,231.66 367.41,219.70 370.35,243.46 373.31,267.23 376.25,291.00 379.19,314.76 382.15,342.81 385.09,372.56 388.03,402.32 390.98,432.08 393.92,456.30 396.86,473.12 399.82,489.95 402.76,506.77 405.70,521.90 408.65,526.89 411.59,531.88 414.54,536.87 417.49,541.85 420.43,540.17 423.37,537.39 426.33,534.60 429.27,531.81 432.21,527.31 435.16,521.54 438.10,515.76 441.04,509.99 444.00,504.50 446.94,499.75 449.88,495.00 452.83,490.25 455.78,485.51 458.72,484.65 461.67,483.80 464.61,482.94 467.55,482.09 470.51,484.50 473.45,488.21 476.39,491.93 479.34,495.65 482.28,500.33 485.23,506.31 488.18,512.29 491.12,518.27 494.06,524.08 497.02,528.91 499.96,533.74 502.90,538.58 505.85,543.41 508.79,545.14 511.73,546.34 514.69,547.55 517.63,548.75 520.57,546.90 523.52,542.74 526.47,538.58 529.41,534.43 532.36,528.51 535.30,518.17 538.24,507.84 541.20,497.50 544.14,487.17 547.08,473.20 550.03,459.24 552.97,445.29 555.92,431.33 558.87,420.29 561.81,410.43 564.75,400.57 567.71,390.70 570.65,386.73 573.59,390.60 576.54,394.48 579.48,398.36 582.42,404.07 585.38,420.78 588.32,437.50 591.26,454.21 594.21,470.93 597.16,485.01 600.10,498.65 603.05,512.29 605.99,525.93 608.93,533.69 611.89,537.03 614.83,540.36 617.77,543.70 620.72,545.67 623.66,544.21 626.60,542.74 629.56,541.28 632.50,539.82 635.44,535.22 638.40,530.63 641.34,526.03 644.28,521.43 647.23,512.90 650.17,502.79 653.11,492.68 656.07,482.58 659.01,471.34 661.95,458.59 664.90,445.84 667.84,433.09 670.79,421.29 673.74,415.15 676.68,409.00 679.62,402.85 682.58,396.71 685.52,397.97 688.46,400.47 691.41,402.96 694.35,405.45 697.29,410.52 700.25,417.51 703.19,424.50 706.13,431.49 709.08,438.95 712.03,447.54 714.97,456.14 717.92,464.74 720.86,473.34 723.80,481.30 726.76,489.27 729.70,497.23 732.64,505.20 735.59,511.63 738.53,517.45 741.48,523.27 744.43,529.09 747.37,533.63 750.31,536.47 753.27,539.30 756.21,542.13 759.15,544.48 762.10,543.93 765.04,543.39 767.98,542.85 770.94,542.31 773.88,538.52 776.82,534.20 779.77,529.87 782.72,525.54 785.66,518.67 788.61,509.89 791.55,501.12 794.49,492.33 797.45,482.10 800.39,468.24 803.33,454.38 806.28,440.51 809.22,426.65 812.17,407.83 815.12,389.00 818.06,370.18 821.00,351.36 823.96,330.49 826.90,308.81 829.84,287.12 832.79,265.44 835.73,244.34 838.67,224.00 841.63,203.67 844.57,183.34 847.51,164.32 850.46,153.20 853.41,142.08 856.35,130.96 859.30,119.84 862.24,118.45 865.18,118.67 868.14,118.89 871.08,119.12 874.02,122.03 876.97,126.97 879.91,131.90 882.85,136.84 885.81,142.12 888.75,148.28 891.69,154.44 894.65,160.60 897.59,166.77 900.53,176.72 903.48,186.67 906.42,196.62 909.36,206.57 912.32,221.11 915.26,237.49 918.20,253.86 921.15,270.25 924.09,286.49 927.04,302.58 929.99,318.65 932.93,334.74 935.87,350.07 938.83,360.93 941.77,371.80 944.71,382.66 947.66,393.52 950.60,404.69 953.54,415.91 956.50,427.12 959.44,438.34 962.38,452.08 965.33,467.71 968.28,483.33 971.22,498.96 974.17,514.74 977.11,530.90 980.05,547.07 983.01,563.24 985.95,579.40 988.89,590.36 991.84,601.31 994.78,612.27 997.73,623.23 1000.68,630.28 1003.62,635.78 1006.56,641.28 1009.52,646.77 1012.46,650.91 1015.40,653.24 1018.35,655.57 1021.29,657.90 1024.23,659.95 1027.19,660.35 1030.13,660.75 1033.07,661.15 1036.02,661.55 1038.97,659.98 1041.91,658.08 1044.86,656.19 1047.80,654.29 1050.74,647.61 1053.70,637.33 1056.64,627.05 1059.58,616.77 1062.53,606.97 1065.47,598.38 1068.42,589.78 1071.37,581.18 1074.31,572.58" fill="none" stroke="#000000" stroke-width="3"/>
<line x1="142" y1="100" x2="178" y2="100" stroke="#000000" stroke-width="4"/>
<text x="188" y="105" font-family="Arial" font-size="18" fill="black">epsilon</text>
</svg>