<svg xmlns="http://www.w3.org/2000/svg" width="1200" height="820" viewBox="0 0 1200 820">
<rect width="100%" height="100%" fill="white"/>
<text x="600.0" y="36" text-anchor="middle" font-family="Arial" font-size="24" fill="black">profile_center_z: U:1</text>
<line x1="120.00" y1="75" x2="120.00" y2="705" stroke="#dddddd" stroke-width="1"/>
<text x="120.00" y="737" text-anchor="middle" font-family="Arial" font-size="16" fill="black">-0.240</text>
<line x1="376.25" y1="75" x2="376.25" y2="705" stroke="#dddddd" stroke-width="1"/>
<text x="376.25" y="737" text-anchor="middle" font-family="Arial" font-size="16" fill="black">0.630</text>
<line x1="632.50" y1="75" x2="632.50" y2="705" stroke="#dddddd" stroke-width="1"/>
<text x="632.50" y="737" text-anchor="middle" font-family="Arial" font-size="16" fill="black">1.500</text>
<line x1="888.75" y1="75" x2="888.75" y2="705" stroke="#dddddd" stroke-width="1"/>
<text x="888.75" y="737" text-anchor="middle" font-family="Arial" font-size="16" fill="black">2.370</text>
<line x1="1145.00" y1="75" x2="1145.00" y2="705" stroke="#dddddd" stroke-width="1"/>
<text x="1145.00" y="737" text-anchor="middle" font-family="Arial" font-size="16" fill="black">3.240</text>
<line x1="120" y1="705.00" x2="1145" y2="705.00" stroke="#dddddd" stroke-width="1"/>
<text x="104" y="710.00" text-anchor="end" font-family="Arial" font-size="16" fill="black">-0.164</text>
<line x1="120" y1="547.50" x2="1145" y2="547.50" stroke="#dddddd" stroke-width="1"/>
<text x="104" y="552.50" text-anchor="end" font-family="Arial" font-size="16" fill="black">-0.020</text>
<line x1="120" y1="390.00" x2="1145" y2="390.00" stroke="#dddddd" stroke-width="1"/>
<text x="104" y="395.00" text-anchor="end" font-family="Arial" font-size="16" fill="black">0.124</text>
<line x1="120" y1="232.50" x2="1145" y2="232.50" stroke="#dddddd" stroke-width="1"/>
<text x="104" y="237.50" text-anchor="end" font-family="Arial" font-size="16" fill="black">0.268</text>
<line x1="120" y1="75.00" x2="1145" y2="75.00" stroke="#dddddd" stroke-width="1"/>
<text x="104" y="80.00" text-anchor="end" font-family="Arial" font-size="16" fill="black">0.412</text>
<rect x="120" y="75" width="1025" height="630" fill="none" stroke="black" stroke-width="2"/>
<text x="632.5" y="785" text-anchor="middle" font-family="Arial" font-size="20" fill="black">z coordinate [m]</text>
<text x="34" y="390.0" transform="rotate(-90 34 390.0)" text-anchor="middle" font-family="Arial" font-size="20" fill="black">U:1 [SI]</text>
<polyline points="190.69,527.37 193.64,527.38 196.58,527.39 199.53,527.40 202.47,527.41 205.42,527.42 208.36,527.43 211.31,527.44 214.25,527.45 217.20,527.46 220.14,527.47 223.09,527.42 226.03,527.37 228.98,527.33 231.93,527.28 234.87,527.23 237.82,527.18 240.76,527.14 243.71,527.09 246.65,527.04 249.60,527.00 252.54,526.87 255.49,526.74 258.43,526.61 261.38,526.48 264.32,526.35 267.27,526.22 270.22,526.09 273.16,525.96 276.11,525.83 279.05,525.70 282.00,525.56 284.94,525.42 287.89,525.28 290.83,525.14 293.78,525.00 296.72,524.86 299.67,524.72 302.61,524.58 305.56,524.45 308.51,524.31 311.45,524.19 314.40,524.07 317.34,523.95 320.29,523.84 323.23,523.72 326.18,523.60 329.12,523.49 332.07,523.37 335.01,523.25 337.96,523.14 340.91,523.05 343.85,522.96 346.80,522.87 349.74,522.79 352.69,522.70 355.63,522.61 358.58,522.52 361.52,522.44 364.47,522.35 367.41,522.26 370.36,522.19 373.30,522.12 376.25,522.05 379.20,521.98 382.14,521.91 385.09,521.84 388.03,521.77 390.98,521.69 393.92,521.62 396.87,521.55 399.81,521.47 402.76,521.39 405.70,521.31 408.65,521.23 411.59,521.15 414.54,521.07 417.49,520.98 420.43,520.90 423.38,520.82 426.32,520.74 429.27,520.63 432.21,520.51 435.16,520.40 438.10,520.28 441.05,520.17 443.99,520.05 446.94,519.94 449.89,519.82 452.83,519.71 455.78,519.60 458.72,519.44 461.67,519.29 464.61,519.13 467.56,518.98 470.50,518.83 473.45,518.67 476.39,518.52 479.34,518.36 482.28,518.21 485.23,518.05 488.18,517.87 491.12,517.69 494.07,517.50 497.01,517.32 499.96,517.13 502.90,516.95 505.85,516.77 508.79,516.58 511.74,516.40 514.68,516.21 517.63,516.03 520.57,515.85 523.52,515.67 526.47,515.48 529.41,515.30 532.36,515.12 535.30,514.93 538.25,514.75 541.19,514.57 544.14,514.39 547.08,514.26 550.03,514.13 552.97,514.01 555.92,513.88 558.86,513.76 561.81,513.63 564.76,513.51 567.70,513.38 570.65,513.26 573.59,513.13 576.54,513.08 579.48,513.02 582.43,512.97 585.37,512.92 588.32,512.86 591.26,512.81 594.21,512.76 597.16,512.70 600.10,512.65 603.05,512.60 605.99,512.37 608.94,512.15 611.88,511.93 614.83,511.70 617.77,511.48 620.72,511.25 623.66,511.03 626.61,510.80 629.55,510.58 632.50,510.35 635.45,509.31 638.39,508.27 641.34,507.23 644.28,506.19 647.23,505.15 650.17,504.12 653.12,503.08 656.06,502.04 659.01,501.00 661.95,499.96 664.90,498.26 667.84,496.56 670.79,494.86 673.74,493.16 676.68,491.47 679.63,489.77 682.57,488.07 685.52,486.37 688.46,484.67 691.41,482.98 694.35,482.37 697.30,481.76 700.24,481.15 703.19,480.54 706.14,479.93 709.08,479.31 712.03,478.71 714.97,478.09 717.92,477.48 720.86,476.87 723.81,478.33 726.75,479.78 729.70,481.23 732.64,482.68 735.59,484.13 738.53,485.58 741.48,487.03 744.43,488.48 747.37,489.93 750.32,491.38 753.26,494.39 756.21,497.39 759.15,500.40 762.10,503.41 765.04,506.41 767.99,509.42 770.93,512.42 773.88,515.43 776.82,518.44 779.77,521.44 782.72,525.34 785.66,529.24 788.61,533.14 791.55,537.04 794.50,540.95 797.44,544.85 800.39,548.75 803.33,552.65 806.28,556.55 809.22,560.45 812.17,564.56 815.11,568.66 818.06,572.77 821.01,576.88 823.95,580.99 826.90,585.09 829.84,589.20 832.79,593.31 835.73,597.42 838.68,601.52 841.62,605.17 844.57,608.81 847.51,612.45 850.46,616.09 853.41,619.73 856.35,623.37 859.30,627.01 862.24,630.66 865.19,634.30 868.13,637.94 871.08,640.30 874.02,642.66 876.97,645.01 879.91,647.38 882.86,649.73 885.80,652.10 888.75,654.45 891.70,656.81 894.64,659.17 897.59,661.53 900.53,661.53 903.48,661.53 906.42,661.53 909.37,661.54 912.31,661.54 915.26,661.54 918.20,661.54 921.15,661.54 924.09,661.55 927.04,661.55 929.99,657.91 932.93,654.26 935.88,650.63 938.82,646.98 941.77,643.34 944.71,639.69 947.66,636.06 950.60,632.42 953.55,628.77 956.49,625.13 959.44,616.58 962.39,608.02 965.33,599.46 968.28,590.90 971.22,582.35 974.17,573.79 977.11,565.23 980.06,556.68 983.00,548.12 985.95,539.56 988.89,525.90 991.84,512.25 994.78,498.59 997.73,484.93 1000.68,471.27 1003.62,457.61 1006.57,443.95 1009.51,430.29 1012.46,416.63 1015.40,402.98 1018.35,384.75 1021.29,366.52 1024.24,348.29 1027.18,330.06 1030.13,311.84 1033.07,293.60 1036.02,275.38 1038.97,257.14 1041.91,238.91 1044.86,220.69 1047.80,210.46 1050.75,200.24 1053.69,190.02 1056.64,179.80 1059.58,169.57 1062.53,159.35 1065.47,149.13 1068.42,138.90 1071.36,128.67 1074.31,118.45" fill="none" stroke="#000000" stroke-width="3"/>
<line x1="142" y1="100" x2="178" y2="100" stroke="#000000" stroke-width="4"/>
<text x="188" y="105" font-family="Arial" font-size="18" fill="black">U:1</text>
</svg>