<svg xmlns="http://www.w3.org/2000/svg" width="1200" height="820" viewBox="0 0 1200 820">
<rect width="100%" height="100%" fill="white"/>
<text x="600.0" y="36" text-anchor="middle" font-family="Arial" font-size="24" fill="black">profile_rack_height_x: U, V, W components</text>
<line x1="120.00" y1="75" x2="120.00" y2="705" stroke="#dddddd" stroke-width="1"/>
<text x="120.00" y="737" text-anchor="middle" font-family="Arial" font-size="16" fill="black">-0.560</text>
<line x1="376.25" y1="75" x2="376.25" y2="705" stroke="#dddddd" stroke-width="1"/>
<text x="376.25" y="737" text-anchor="middle" font-family="Arial" font-size="16" fill="black">1.470</text>
<line x1="632.50" y1="75" x2="632.50" y2="705" stroke="#dddddd" stroke-width="1"/>
<text x="632.50" y="737" text-anchor="middle" font-family="Arial" font-size="16" fill="black">3.500</text>
<line x1="888.75" y1="75" x2="888.75" y2="705" stroke="#dddddd" stroke-width="1"/>
<text x="888.75" y="737" text-anchor="middle" font-family="Arial" font-size="16" fill="black">5.530</text>
<line x1="1145.00" y1="75" x2="1145.00" y2="705" stroke="#dddddd" stroke-width="1"/>
<text x="1145.00" y="737" text-anchor="middle" font-family="Arial" font-size="16" fill="black">7.560</text>
<line x1="120" y1="705.00" x2="1145" y2="705.00" stroke="#dddddd" stroke-width="1"/>
<text x="104" y="710.00" text-anchor="end" font-family="Arial" font-size="16" fill="black">-0.401</text>
<line x1="120" y1="547.50" x2="1145" y2="547.50" stroke="#dddddd" stroke-width="1"/>
<text x="104" y="552.50" text-anchor="end" font-family="Arial" font-size="16" fill="black">-0.193</text>
<line x1="120" y1="390.00" x2="1145" y2="390.00" stroke="#dddddd" stroke-width="1"/>
<text x="104" y="395.00" text-anchor="end" font-family="Arial" font-size="16" fill="black">0.014</text>
<line x1="120" y1="232.50" x2="1145" y2="232.50" stroke="#dddddd" stroke-width="1"/>
<text x="104" y="237.50" text-anchor="end" font-family="Arial" font-size="16" fill="black">0.221</text>
<line x1="120" y1="75.00" x2="1145" y2="75.00" stroke="#dddddd" stroke-width="1"/>
<text x="104" y="80.00" text-anchor="end" font-family="Arial" font-size="16" fill="black">0.428</text>
<rect x="120" y="75" width="1025" height="630" fill="none" stroke="black" stroke-width="2"/>
<text x="632.5" y="785" text-anchor="middle" font-family="Arial" font-size="20" fill="black">x coordinate [m]</text>
<text x="34" y="390.0" transform="rotate(-90 34 390.0)" text-anchor="middle" font-family="Arial" font-size="20" fill="black">velocity component [m/s]</text>
<polyline points="190.69,386.67 193.64,384.15 196.58,381.62 199.53,379.09 202.47,376.57 205.42,372.31 208.36,367.35 211.31,362.40 214.25,357.44 217.20,352.67 220.14,348.14 223.09,343.60 226.03,339.07 228.98,334.65 231.93,330.89 234.87,327.13 237.82,323.37 240.76,319.62 243.71,316.73 246.65,314.00 249.60,311.25 252.54,308.52 255.49,306.53 258.43,305.11 261.38,303.69 264.32,302.28 267.27,301.33 270.22,301.55 273.16,301.78 276.11,302.00 279.05,302.23 282.00,304.29 284.94,306.36 287.89,308.43 290.83,310.48 293.78,313.81 296.72,317.64 299.67,321.46 302.62,325.29 305.56,329.68 308.51,334.84 311.45,340.00 314.40,345.16 317.34,350.43 320.29,356.40 323.23,362.37 326.17,368.33 329.13,374.30 332.07,380.16 335.01,386.00 337.96,391.84 340.91,397.68 343.85,401.18 346.80,402.91 349.74,404.64 352.68,406.37 355.64,406.31 358.58,401.78 361.52,397.24 364.47,392.71 367.41,388.18 370.35,381.87 373.31,375.56 376.25,369.25 379.19,362.94 382.15,357.54 385.09,352.49 388.03,347.44 390.98,342.40 393.92,337.40 396.86,332.49 399.82,327.57 402.76,322.66 405.70,317.69 408.65,312.39 411.59,307.10 414.54,301.80 417.49,296.50 420.43,291.65 423.37,286.87 426.33,282.09 429.27,277.32 432.21,273.39 435.16,270.10 438.10,266.81 441.04,263.52 444.00,260.83 446.94,259.66 449.88,258.49 452.83,257.32 455.78,256.15 458.72,257.42 461.67,258.69 464.61,259.97 467.55,261.24 470.51,263.97 473.45,267.28 476.39,270.59 479.34,273.91 482.28,277.67 485.23,282.03 488.18,286.40 491.12,290.76 494.06,295.15 497.02,299.69 499.96,304.22 502.90,308.75 505.85,313.29 508.79,317.65 511.73,321.99 514.69,326.33 517.63,330.67 520.57,334.98 523.52,339.27 526.47,343.56 529.41,347.86 532.36,352.31 535.30,357.15 538.24,362.00 541.20,366.84 544.14,371.68 547.08,377.60 550.03,383.51 552.97,389.42 555.92,395.34 558.87,401.27 561.81,407.22 564.75,413.17 567.71,419.12 570.65,423.79 573.59,426.75 576.54,429.71 579.48,432.68 582.42,434.89 585.38,432.59 588.32,430.29 591.26,428.00 594.21,425.70 597.16,420.97 600.10,415.84 603.05,410.71 605.99,405.58 608.93,400.03 611.89,394.17 614.83,388.32 617.77,382.46 620.72,376.36 623.66,369.67 626.60,362.97 629.56,356.28 632.50,349.58 635.44,341.74 638.40,333.90 641.34,326.06 644.28,318.21 647.23,309.37 650.17,300.12 653.11,290.86 656.07,281.61 659.01,272.71 661.95,264.26 664.90,255.82 667.84,247.38 670.79,239.54 673.74,235.34 676.68,231.14 679.62,226.94 682.58,222.74 685.52,223.59 688.46,225.28 691.41,226.97 694.35,228.66 697.29,232.76 700.25,238.68 703.19,244.59 706.13,250.50 709.08,256.84 712.03,264.24 714.97,271.64 717.92,279.03 720.86,286.42 723.80,293.29 726.76,300.14 729.70,307.00 732.64,313.86 735.59,319.68 738.53,325.08 741.48,330.48 744.43,335.88 747.37,340.65 750.31,344.58 753.27,348.51 756.21,352.45 759.15,356.24 762.10,359.20 765.04,362.16 767.98,365.12 770.94,368.08 773.88,370.70 776.82,373.26 779.77,375.82 782.72,378.37 785.66,380.85 788.61,383.26 791.55,385.67 794.49,388.09 797.45,390.39 800.39,392.41 803.33,394.43 806.28,396.46 809.22,398.48 812.17,399.50 815.12,400.52 818.06,401.54 821.00,402.56 823.96,402.34 826.90,401.62 829.84,400.90 832.79,400.18 835.73,398.41 838.67,395.24 841.63,392.08 844.57,388.91 847.51,385.43 850.46,380.06 853.41,374.70 856.35,369.33 859.30,363.97 862.24,357.84 865.18,351.59 868.14,345.34 871.08,339.08 874.02,332.82 876.97,326.55 879.91,320.28 882.85,314.01 885.81,307.76 888.75,301.54 891.69,295.32 894.65,289.11 897.59,282.90 900.53,277.21 903.48,271.53 906.42,265.84 909.36,260.16 912.32,256.64 915.26,253.99 918.20,251.33 921.15,248.68 924.09,248.41 927.04,251.33 929.99,254.25 932.93,257.17 935.87,260.77 938.83,268.53 941.77,276.29 944.71,284.05 947.66,291.80 950.60,301.21 953.54,310.87 956.50,320.54 959.44,330.21 962.38,339.34 965.33,348.06 968.28,356.79 971.22,365.51 974.17,373.54 977.11,379.82 980.05,386.09 983.01,392.37 985.95,398.65 988.89,402.56 991.84,406.48 994.78,410.40 997.73,414.32 1000.68,417.00 1003.62,419.19 1006.56,421.38 1009.52,423.56 1012.46,425.18 1015.40,426.05 1018.35,426.91 1021.29,427.77 1024.23,428.47 1027.19,428.20 1030.13,427.92 1033.07,427.64 1036.02,427.37 1038.97,426.31 1041.91,425.12 1044.86,423.93 1047.80,422.74 1050.74,421.02 1053.70,418.89 1056.64,416.76 1059.58,414.63 1062.53,412.73 1065.47,411.38 1068.42,410.03 1071.37,408.68 1074.31,407.33" fill="none" stroke="#000000" stroke-width="3"/>
<line x1="142" y1="100" x2="178" y2="100" stroke="#000000" stroke-width="4"/>
<text x="188" y="105" font-family="Arial" font-size="18" fill="black">Ux / u</text>
<polyline points="190.69,512.83 193.64,511.66 196.58,510.48 199.53,509.29 202.47,508.11 205.42,505.61 208.36,502.57 211.31,499.53 214.25,496.49 217.20,493.01 220.14,488.95 223.09,484.87 226.03,480.81 228.98,476.66 231.93,472.03 234.87,467.39 237.82,462.76 240.76,458.12 243.71,453.22 246.65,448.27 249.60,443.32 252.54,438.37 255.49,433.41 258.43,428.42 261.38,423.44 264.32,418.46 267.27,413.56 270.22,408.88 273.16,404.20 276.11,399.53 279.05,394.85 282.00,390.75 284.94,386.65 287.89,382.55 290.83,378.45 293.78,374.76 296.72,371.23 299.67,367.70 302.62,364.17 305.56,360.79 308.51,357.62 311.45,354.45 314.40,351.28 317.34,348.15 320.29,345.26 323.23,342.37 326.17,339.48 329.13,336.58 332.07,334.48 335.01,332.50 337.96,330.52 340.91,328.55 343.85,327.58 346.80,327.36 349.74,327.15 352.68,326.93 355.64,327.12 358.58,328.32 361.52,329.52 364.47,330.71 367.41,331.91 370.35,333.25 373.31,334.58 376.25,335.92 379.19,337.26 382.15,338.05 385.09,338.63 388.03,339.21 390.98,339.79 393.92,340.01 396.86,339.77 399.82,339.53 402.76,339.29 405.70,338.91 408.65,337.72 411.59,336.52 414.54,335.33 417.49,334.13 420.43,331.91 423.37,329.51 426.33,327.12 429.27,324.73 432.21,321.83 435.16,318.57 438.10,315.30 441.04,312.04 444.00,308.74 446.94,305.34 449.88,301.94 452.83,298.55 455.78,295.15 458.72,292.51 461.67,289.87 464.61,287.23 467.55,284.58 470.51,282.94 473.45,281.68 476.39,280.43 479.34,279.17 482.28,278.53 485.23,278.69 488.18,278.85 491.12,279.01 494.06,279.30 497.02,280.47 499.96,281.62 502.90,282.78 505.85,283.93 508.79,285.57 511.73,287.29 514.69,289.01 517.63,290.73 520.57,292.61 523.52,294.60 526.47,296.59 529.41,298.58 532.36,300.62 535.30,302.77 538.24,304.91 541.20,307.06 544.14,309.21 547.08,311.64 550.03,314.07 552.97,316.50 555.92,318.93 558.87,321.67 561.81,324.54 564.75,327.42 567.71,330.29 570.65,333.26 573.59,336.36 576.54,339.46 579.48,342.56 582.42,345.64 585.38,348.56 588.32,351.48 591.26,354.40 594.21,357.32 597.16,360.09 600.10,362.83 603.05,365.57 605.99,368.31 608.93,370.95 611.89,373.51 614.83,376.08 617.77,378.64 620.72,381.09 623.66,383.28 626.60,385.46 629.56,387.64 632.50,389.82 635.44,391.62 638.40,393.42 641.34,395.22 644.28,397.02 647.23,398.64 650.17,400.18 653.11,401.72 656.07,403.26 659.01,404.65 661.95,405.85 664.90,407.04 667.84,408.24 670.79,409.35 673.74,409.94 676.68,410.54 679.62,411.13 682.58,411.73 685.52,411.85 688.46,411.89 691.41,411.92 694.35,411.96 697.29,411.85 700.25,411.64 703.19,411.42 706.13,411.20 709.08,410.96 712.03,410.66 714.97,410.37 717.92,410.07 720.86,409.78 723.80,409.28 726.76,408.78 729.70,408.28 732.64,407.78 735.59,406.91 738.53,405.88 741.48,404.85 744.43,403.82 747.37,402.43 750.31,400.56 753.27,398.69 756.21,396.83 759.15,394.83 762.10,392.07 765.04,389.31 767.98,386.55 770.94,383.80 773.88,380.46 776.82,377.03 779.77,373.59 782.72,370.16 785.66,366.59 788.61,362.91 791.55,359.23 794.49,355.55 797.45,351.94 800.39,348.54 803.33,345.14 806.28,341.74 809.22,338.34 812.17,335.69 815.12,333.03 818.06,330.38 821.00,327.72 823.96,325.85 826.90,324.29 829.84,322.73 832.79,321.17 835.73,320.17 838.67,319.92 841.63,319.66 844.57,319.41 847.51,319.33 850.46,320.36 853.41,321.38 856.35,322.41 859.30,323.43 862.24,325.20 865.18,327.10 868.14,328.99 871.08,330.89 874.02,332.97 876.97,335.20 879.91,337.42 882.85,339.65 885.81,341.83 888.75,343.90 891.69,345.98 894.65,348.05 897.59,350.12 900.53,351.48 903.48,352.83 906.42,354.18 909.36,355.53 912.32,356.17 915.26,356.52 918.20,356.87 921.15,357.22 924.09,357.26 927.04,356.88 929.99,356.50 932.93,356.12 935.87,355.67 938.83,354.81 941.77,353.94 944.71,353.08 947.66,352.21 950.60,350.86 953.54,349.44 956.50,348.01 959.44,346.58 962.38,344.80 965.33,342.74 968.28,340.68 971.22,338.62 974.17,336.46 977.11,334.05 980.05,331.64 983.01,329.22 985.95,326.81 988.89,324.78 991.84,322.75 994.78,320.72 997.73,318.69 1000.68,317.41 1003.62,316.43 1006.56,315.44 1009.52,314.45 1012.46,314.00 1015.40,314.26 1018.35,314.53 1021.29,314.79 1024.23,315.22 1027.19,316.63 1030.13,318.04 1033.07,319.45 1036.02,320.86 1038.97,323.05 1041.91,325.38 1044.86,327.70 1047.80,330.02 1050.74,332.85 1053.70,336.05 1056.64,339.25 1059.58,342.45 1062.53,345.26 1065.47,347.10 1068.42,348.94 1071.37,350.78 1074.31,352.62" fill="none" stroke="#555555" stroke-width="3" stroke-dasharray="9 5"/>
<line x1="142" y1="128" x2="178" y2="128" stroke="#555555" stroke-width="4" stroke-dasharray="9 5"/>
<text x="188" y="133" font-family="Arial" font-size="18" fill="black">Uy / v</text>
<polyline points="190.69,661.55 193.64,657.15 196.58,652.76 199.53,648.36 202.47,643.96 205.42,637.17 208.36,629.44 211.31,621.69 214.25,613.95 217.20,607.07 220.14,601.32 223.09,595.59 226.03,589.85 228.98,584.35 231.93,580.36 234.87,576.37 237.82,572.38 240.76,568.39 243.71,565.63 246.65,563.08 249.60,560.52 252.54,557.96 255.49,556.04 258.43,554.59 261.38,553.13 264.32,551.68 267.27,550.43 270.22,549.71 273.16,548.99 276.11,548.27 279.05,547.55 282.00,547.13 284.94,546.71 287.89,546.29 290.83,545.88 293.78,545.29 296.72,544.63 299.67,543.97 302.62,543.31 305.56,542.18 308.51,540.46 311.45,538.73 314.40,536.99 317.34,534.90 320.29,530.59 323.23,526.28 326.17,521.98 329.13,517.67 332.07,508.91 335.01,499.42 337.96,489.93 340.91,480.44 343.85,465.15 346.80,445.52 349.74,425.89 352.68,406.26 355.64,384.09 358.58,355.57 361.52,327.05 364.47,298.53 367.41,270.01 370.35,246.29 373.31,222.57 376.25,198.85 379.19,175.13 382.15,160.73 385.09,150.06 388.03,139.39 390.98,128.72 393.92,122.12 396.86,120.94 399.82,119.76 402.76,118.59 405.70,118.45 408.65,124.56 411.59,130.67 414.54,136.77 417.49,142.88 420.43,154.43 423.37,166.87 426.33,179.31 429.27,191.76 432.21,205.84 435.16,221.17 438.10,236.49 441.04,251.81 444.00,266.89 446.94,281.42 449.88,295.93 452.83,310.45 455.78,324.97 458.72,336.04 461.67,347.11 464.61,358.17 467.55,369.24 470.51,377.12 473.45,383.72 476.39,390.32 479.34,396.92 482.28,401.81 485.23,404.43 488.18,407.05 491.12,409.67 494.06,411.87 497.02,411.62 499.96,411.37 502.90,411.12 505.85,410.87 508.79,409.13 511.73,407.14 514.69,405.15 517.63,403.17 520.57,400.77 523.52,398.08 526.47,395.39 529.41,392.69 532.36,390.04 535.30,387.46 538.24,384.89 541.20,382.31 544.14,379.74 547.08,377.17 550.03,374.61 552.97,372.05 555.92,369.49 558.87,365.64 561.81,361.28 564.75,356.92 567.71,352.56 570.65,346.55 573.59,338.32 576.54,330.09 579.48,321.86 582.42,313.64 585.38,305.49 588.32,297.34 591.26,289.20 594.21,281.05 597.16,276.95 600.10,273.51 603.05,270.08 605.99,266.65 608.93,264.43 611.89,263.12 614.83,261.82 617.77,260.50 620.72,259.12 623.66,257.55 626.60,255.98 629.56,254.41 632.50,252.84 635.44,252.06 638.40,251.28 641.34,250.49 644.28,249.71 647.23,252.38 650.17,256.42 653.11,260.46 656.07,264.51 659.01,272.59 661.95,286.07 664.90,299.54 667.84,313.02 670.79,327.31 673.74,346.46 676.68,365.61 679.62,384.76 682.58,403.91 685.52,420.92 688.46,437.56 691.41,454.21 694.35,470.86 697.29,484.33 700.25,495.43 703.19,506.53 706.13,517.64 709.08,527.33 712.03,533.49 714.97,539.65 717.92,545.82 720.86,551.99 723.80,554.69 726.76,557.38 729.70,560.08 732.64,562.78 735.59,564.12 738.53,564.92 741.48,565.73 744.43,566.53 747.37,567.06 750.31,567.21 753.27,567.36 756.21,567.52 759.15,567.68 762.10,567.86 765.04,568.04 767.98,568.21 770.94,568.39 773.88,568.55 776.82,568.71 779.77,568.86 782.72,569.01 785.66,568.75 788.61,568.17 791.55,567.60 794.49,567.03 797.45,565.99 800.39,563.78 803.33,561.58 806.28,559.37 809.22,557.17 812.17,552.85 815.12,548.52 818.06,544.20 821.00,539.87 823.96,534.21 826.90,528.02 829.84,521.82 832.79,515.62 835.73,509.09 838.67,502.12 841.63,495.14 844.57,488.17 847.51,481.29 850.46,475.05 853.41,468.81 856.35,462.57 859.30,456.33 862.24,451.39 865.18,446.67 868.14,441.94 871.08,437.22 874.02,433.33 876.97,430.07 879.91,426.80 882.85,423.54 885.81,420.84 888.75,419.56 891.69,418.27 894.65,416.99 897.59,415.71 900.53,418.00 903.48,420.30 906.42,422.60 909.36,424.90 912.32,429.69 915.26,435.48 918.20,441.26 921.15,447.05 924.09,453.04 927.04,459.30 929.99,465.56 932.93,471.81 935.87,477.74 938.83,481.64 941.77,485.55 944.71,489.46 947.66,493.36 950.60,495.13 953.54,496.53 956.50,497.94 959.44,499.34 962.38,500.65 965.33,501.89 968.28,503.12 971.22,504.36 974.17,506.23 977.11,509.66 980.05,513.09 983.01,516.53 985.95,519.96 988.89,525.31 991.84,530.66 994.78,536.01 997.73,541.36 1000.68,546.85 1003.62,552.41 1006.56,557.95 1009.52,563.50 1012.46,568.78 1015.40,573.69 1018.35,578.61 1021.29,583.52 1024.23,588.33 1027.19,592.46 1030.13,596.60 1033.07,600.75 1036.02,604.89 1038.97,608.48 1041.91,611.99 1044.86,615.50 1047.80,619.00 1050.74,622.18 1053.70,625.10 1056.64,628.03 1059.58,630.96 1062.53,633.43 1065.47,634.73 1068.42,636.04 1071.37,637.35 1074.31,638.66" fill="none" stroke="#999999" stroke-width="3" stroke-dasharray="3 4"/>
<line x1="142" y1="156" x2="178" y2="156" stroke="#999999" stroke-width="4" stroke-dasharray="3 4"/>
<text x="188" y="161" font-family="Arial" font-size="18" fill="black">Uz / w</text>
</svg>