<svg xmlns="http://www.w3.org/2000/svg" width="1200" height="820" viewBox="0 0 1200 820">
<rect width="100%" height="100%" fill="white"/>
<text x="600.0" y="36" text-anchor="middle" font-family="Arial" font-size="24" fill="black">profile_near_floor_x: p</text>
<line x1="120.00" y1="75" x2="120.00" y2="705" stroke="#dddddd" stroke-width="1"/>
<text x="120.00" y="737" text-anchor="middle" font-family="Arial" font-size="16" fill="black">-0.560</text>
<line x1="376.25" y1="75" x2="376.25" y2="705" stroke="#dddddd" stroke-width="1"/>
<text x="376.25" y="737" text-anchor="middle" font-family="Arial" font-size="16" fill="black">1.470</text>
<line x1="632.50" y1="75" x2="632.50" y2="705" stroke="#dddddd" stroke-width="1"/>
<text x="632.50" y="737" text-anchor="middle" font-family="Arial" font-size="16" fill="black">3.500</text>
<line x1="888.75" y1="75" x2="888.75" y2="705" stroke="#dddddd" stroke-width="1"/>
<text x="888.75" y="737" text-anchor="middle" font-family="Arial" font-size="16" fill="black">5.530</text>
<line x1="1145.00" y1="75" x2="1145.00" y2="705" stroke="#dddddd" stroke-width="1"/>
<text x="1145.00" y="737" text-anchor="middle" font-family="Arial" font-size="16" fill="black">7.560</text>
<line x1="120" y1="705.00" x2="1145" y2="705.00" stroke="#dddddd" stroke-width="1"/>
<text x="104" y="710.00" text-anchor="end" font-family="Arial" font-size="16" fill="black">-1.292</text>
<line x1="120" y1="547.50" x2="1145" y2="547.50" stroke="#dddddd" stroke-width="1"/>
<text x="104" y="552.50" text-anchor="end" font-family="Arial" font-size="16" fill="black">-1.235</text>
<line x1="120" y1="390.00" x2="1145" y2="390.00" stroke="#dddddd" stroke-width="1"/>
<text x="104" y="395.00" text-anchor="end" font-family="Arial" font-size="16" fill="black">-1.179</text>
<line x1="120" y1="232.50" x2="1145" y2="232.50" stroke="#dddddd" stroke-width="1"/>
<text x="104" y="237.50" text-anchor="end" font-family="Arial" font-size="16" fill="black">-1.122</text>
<line x1="120" y1="75.00" x2="1145" y2="75.00" stroke="#dddddd" stroke-width="1"/>
<text x="104" y="80.00" text-anchor="end" font-family="Arial" font-size="16" fill="black">-1.066</text>
<rect x="120" y="75" width="1025" height="630" fill="none" stroke="black" stroke-width="2"/>
<text x="632.5" y="785" text-anchor="middle" font-family="Arial" font-size="20" fill="black">x coordinate [m]</text>
<text x="34" y="390.0" transform="rotate(-90 34 390.0)" text-anchor="middle" font-family="Arial" font-size="20" fill="black">p [Pa]</text>
<polyline points="190.69,280.07 193.64,283.41 196.58,286.48 199.53,289.82 202.47,293.17 205.42,295.95 208.36,298.18 211.31,300.41 214.25,302.92 217.20,302.64 220.14,299.58 223.09,296.23 226.03,293.17 228.98,289.54 231.93,283.69 234.87,277.56 237.82,271.71 240.76,265.58 243.71,257.22 246.65,248.30 249.60,239.39 252.54,230.19 255.49,220.16 258.43,209.01 261.38,198.14 264.32,187.00 267.27,176.41 270.22,166.66 273.16,156.90 276.11,147.15 279.05,137.68 282.00,132.94 284.94,128.20 287.89,123.46 290.83,118.73 293.78,118.45 296.72,120.40 299.67,122.07 302.62,123.74 305.56,125.14 308.51,125.69 311.45,126.25 314.40,127.09 317.34,129.59 320.29,144.64 323.23,159.69 326.17,174.74 329.13,189.51 332.07,213.19 335.01,238.27 337.96,263.63 340.91,288.71 343.85,307.94 346.80,323.26 349.74,338.31 352.68,353.36 355.64,367.57 358.58,380.11 361.52,392.37 364.47,404.91 367.41,417.17 370.35,427.76 373.31,438.07 376.25,448.38 379.19,458.97 382.15,469.28 385.09,479.59 388.03,490.18 390.98,500.49 393.92,510.80 396.86,520.83 399.82,531.14 402.76,541.17 405.70,552.60 408.65,570.43 411.59,588.54 414.54,606.66 417.49,624.49 420.43,634.80 423.37,643.44 426.33,652.36 429.27,661.27 432.21,661.55 435.16,655.14 438.10,649.01 441.04,642.88 444.00,637.31 446.94,634.24 449.88,630.90 452.83,627.56 455.78,624.21 458.72,621.98 461.67,619.75 464.61,617.25 467.55,615.02 470.51,613.07 473.45,611.39 476.39,609.72 479.34,608.05 482.28,606.38 485.23,604.43 488.18,602.75 491.12,600.80 494.06,598.85 497.02,596.35 499.96,593.84 502.90,591.33 505.85,589.10 508.79,586.31 511.73,583.53 514.69,580.74 517.63,577.95 520.57,575.45 523.52,572.94 526.47,570.43 529.41,568.20 532.36,565.97 535.30,564.86 538.24,563.74 541.20,562.63 544.14,561.51 547.08,561.51 550.03,561.51 552.97,561.51 555.92,561.51 558.87,563.46 561.81,566.25 564.75,569.04 567.71,571.82 570.65,569.32 573.59,560.12 576.54,551.20 579.48,542.01 582.42,532.25 585.38,519.44 588.32,506.62 591.26,493.52 594.21,480.70 597.16,475.41 600.10,471.23 603.05,467.05 605.99,462.87 608.93,458.13 611.89,453.39 614.83,448.38 617.77,443.36 620.72,438.90 623.66,435.28 626.60,431.38 629.56,427.76 632.50,424.14 635.44,419.96 638.40,416.05 641.34,411.87 644.28,407.97 647.23,403.24 650.17,398.22 653.11,393.20 656.07,388.19 659.01,380.11 661.95,368.13 664.90,355.86 667.84,343.88 670.79,333.01 673.74,329.11 676.68,325.49 679.62,321.59 682.58,317.69 685.52,322.15 688.46,327.72 691.41,333.29 694.35,339.15 697.29,341.93 700.25,342.49 703.19,343.32 706.13,343.88 709.08,345.00 712.03,346.95 714.97,348.90 717.92,350.85 720.86,352.80 723.80,355.86 726.76,358.93 729.70,361.99 732.64,365.06 735.59,368.40 738.53,372.03 741.48,375.93 744.43,379.55 747.37,383.45 750.31,387.63 753.27,391.53 756.21,395.71 759.15,399.89 762.10,404.63 765.04,409.37 767.98,414.10 770.94,418.84 773.88,424.14 776.82,429.71 779.77,435.00 782.72,440.58 785.66,446.15 788.61,452.28 791.55,458.13 794.49,464.26 797.45,470.11 800.39,475.97 803.33,481.54 806.28,487.39 809.22,492.96 812.17,496.03 815.12,499.09 818.06,501.88 821.00,504.95 823.96,506.06 826.90,506.34 829.84,506.62 832.79,506.90 835.73,502.44 838.67,491.85 841.63,480.98 844.57,470.39 847.51,459.80 850.46,451.17 853.41,442.53 856.35,433.89 859.30,424.97 862.24,423.86 865.18,423.86 868.14,423.86 871.08,423.86 874.02,422.46 876.97,419.68 879.91,416.89 882.85,414.38 885.81,411.87 888.75,410.20 891.69,408.25 894.65,406.30 897.59,404.63 900.53,401.29 903.48,397.94 906.42,394.88 909.36,391.53 912.32,387.07 915.26,382.06 918.20,377.32 921.15,372.31 924.09,365.06 927.04,354.75 929.99,344.72 932.93,334.41 935.87,324.93 938.83,321.03 941.77,317.13 944.71,312.95 947.66,309.05 950.60,311.28 953.54,314.90 956.50,318.25 959.44,321.59 962.38,324.38 965.33,326.61 968.28,328.56 971.22,330.79 974.17,333.85 977.11,339.15 980.05,344.72 983.01,350.01 985.95,355.31 988.89,362.83 991.84,370.08 994.78,377.60 997.73,384.84 1000.68,392.65 1003.62,400.73 1006.56,408.53 1009.52,416.61 1012.46,424.14 1015.40,431.10 1018.35,438.35 1021.29,445.31 1024.23,452.00 1027.19,457.02 1030.13,462.03 1033.07,467.05 1036.02,472.06 1038.97,474.29 1041.91,476.24 1044.86,477.92 1047.80,479.87 1050.74,479.31 1053.70,477.08 1056.64,474.85 1059.58,472.34 1062.53,470.11 1065.47,467.61 1068.42,465.10 1071.37,462.87 1074.31,460.36" fill="none" stroke="#000000" stroke-width="3"/>
<line x1="142" y1="100" x2="178" y2="100" stroke="#000000" stroke-width="4"/>
<text x="188" y="105" font-family="Arial" font-size="18" fill="black">p</text>
</svg>