<svg xmlns="http://www.w3.org/2000/svg" width="1200" height="820" viewBox="0 0 1200 820">
<rect width="100%" height="100%" fill="white"/>
<text x="600.0" y="36" text-anchor="middle" font-family="Arial" font-size="24" fill="black">profile_center_z: vorticity:0</text>
<line x1="120.00" y1="75" x2="120.00" y2="705" stroke="#dddddd" stroke-width="1"/>
<text x="120.00" y="737" text-anchor="middle" font-family="Arial" font-size="16" fill="black">-0.240</text>
<line x1="376.25" y1="75" x2="376.25" y2="705" stroke="#dddddd" stroke-width="1"/>
<text x="376.25" y="737" text-anchor="middle" font-family="Arial" font-size="16" fill="black">0.630</text>
<line x1="632.50" y1="75" x2="632.50" y2="705" stroke="#dddddd" stroke-width="1"/>
<text x="632.50" y="737" text-anchor="middle" font-family="Arial" font-size="16" fill="black">1.500</text>
<line x1="888.75" y1="75" x2="888.75" y2="705" stroke="#dddddd" stroke-width="1"/>
<text x="888.75" y="737" text-anchor="middle" font-family="Arial" font-size="16" fill="black">2.370</text>
<line x1="1145.00" y1="75" x2="1145.00" y2="705" stroke="#dddddd" stroke-width="1"/>
<text x="1145.00" y="737" text-anchor="middle" font-family="Arial" font-size="16" fill="black">3.240</text>
<line x1="120" y1="705.00" x2="1145" y2="705.00" stroke="#dddddd" stroke-width="1"/>
<text x="104" y="710.00" text-anchor="end" font-family="Arial" font-size="16" fill="black">-2.380</text>
<line x1="120" y1="547.50" x2="1145" y2="547.50" stroke="#dddddd" stroke-width="1"/>
<text x="104" y="552.50" text-anchor="end" font-family="Arial" font-size="16" fill="black">-1.107</text>
<line x1="120" y1="390.00" x2="1145" y2="390.00" stroke="#dddddd" stroke-width="1"/>
<text x="104" y="395.00" text-anchor="end" font-family="Arial" font-size="16" fill="black">0.166</text>
<line x1="120" y1="232.50" x2="1145" y2="232.50" stroke="#dddddd" stroke-width="1"/>
<text x="104" y="237.50" text-anchor="end" font-family="Arial" font-size="16" fill="black">1.438</text>
<line x1="120" y1="75.00" x2="1145" y2="75.00" stroke="#dddddd" stroke-width="1"/>
<text x="104" y="80.00" text-anchor="end" font-family="Arial" font-size="16" fill="black">2.711</text>
<rect x="120" y="75" width="1025" height="630" fill="none" stroke="black" stroke-width="2"/>
<text x="632.5" y="785" text-anchor="middle" font-family="Arial" font-size="20" fill="black">z coordinate [m]</text>
<text x="34" y="390.0" transform="rotate(-90 34 390.0)" text-anchor="middle" font-family="Arial" font-size="20" fill="black">vorticity:0 [SI]</text>
<polyline points="190.69,407.67 193.64,407.72 196.58,407.78 199.53,407.83 202.47,407.89 205.42,407.94 208.36,407.99 211.31,408.05 214.25,408.10 217.20,408.16 220.14,408.21 223.09,408.27 226.03,408.33 228.98,408.39 231.93,408.45 234.87,408.51 237.82,408.57 240.76,408.63 243.71,408.69 246.65,408.75 249.60,408.81 252.54,408.82 255.49,408.83 258.43,408.84 261.38,408.85 264.32,408.86 267.27,408.87 270.22,408.88 273.16,408.89 276.11,408.90 279.05,408.91 282.00,408.91 284.94,408.92 287.89,408.93 290.83,408.94 293.78,408.95 296.72,408.96 299.67,408.96 302.61,408.97 305.56,408.98 308.51,408.99 311.45,408.99 314.40,409.00 317.34,409.01 320.29,409.01 323.23,409.02 326.18,409.02 329.12,409.03 332.07,409.04 335.01,409.04 337.96,409.05 340.91,409.05 343.85,409.05 346.80,409.06 349.74,409.06 352.69,409.06 355.63,409.07 358.58,409.07 361.52,409.08 364.47,409.08 367.41,409.08 370.36,409.09 373.30,409.09 376.25,409.09 379.20,409.10 382.14,409.10 385.09,409.10 388.03,409.11 390.98,409.11 393.92,409.11 396.87,409.11 399.81,409.12 402.76,409.12 405.70,409.12 408.65,409.12 411.59,409.12 414.54,409.12 417.49,409.12 420.43,409.12 423.38,409.12 426.32,409.12 429.27,409.12 432.21,409.11 435.16,409.10 438.10,409.10 441.05,409.09 443.99,409.09 446.94,409.08 449.89,409.07 452.83,409.07 455.78,409.06 458.72,409.04 461.67,409.02 464.61,409.00 467.56,408.98 470.50,408.95 473.45,408.93 476.39,408.91 479.34,408.89 482.28,408.87 485.23,408.85 488.18,408.78 491.12,408.71 494.07,408.64 497.01,408.58 499.96,408.51 502.90,408.44 505.85,408.37 508.79,408.30 511.74,408.24 514.68,408.17 517.63,407.99 520.57,407.82 523.52,407.64 526.47,407.46 529.41,407.29 532.36,407.11 535.30,406.94 538.25,406.76 541.19,406.59 544.14,406.41 547.08,406.12 550.03,405.82 552.97,405.53 555.92,405.24 558.86,404.94 561.81,404.65 564.76,404.36 567.70,404.06 570.65,403.77 573.59,403.48 576.54,403.25 579.48,403.02 582.43,402.79 585.37,402.56 588.32,402.33 591.26,402.10 594.21,401.87 597.16,401.64 600.10,401.41 603.05,401.18 605.99,401.50 608.94,401.83 611.88,402.15 614.83,402.48 617.77,402.80 620.72,403.12 623.66,403.45 626.61,403.77 629.55,404.10 632.50,404.42 635.45,405.39 638.39,406.37 641.34,407.34 644.28,408.31 647.23,409.28 650.17,410.26 653.12,411.23 656.06,412.20 659.01,413.17 661.95,414.14 664.90,414.13 667.84,414.12 670.79,414.12 673.74,414.11 676.68,414.10 679.63,414.09 682.57,414.08 685.52,414.07 688.46,414.06 691.41,414.05 694.35,412.11 697.30,410.17 700.24,408.23 703.19,406.28 706.14,404.34 709.08,402.40 712.03,400.46 714.97,398.52 717.92,396.58 720.86,394.63 723.81,392.13 726.75,389.62 729.70,387.11 732.64,384.60 735.59,382.09 738.53,379.58 741.48,377.08 744.43,374.57 747.37,372.06 750.32,369.55 753.26,367.62 756.21,365.70 759.15,363.77 762.10,361.85 765.04,359.92 767.99,357.99 770.93,356.07 773.88,354.14 776.82,352.21 779.77,350.29 782.72,349.28 785.66,348.27 788.61,347.26 791.55,346.25 794.50,345.24 797.44,344.23 800.39,343.21 803.33,342.20 806.28,341.20 809.22,340.19 812.17,340.21 815.11,340.23 818.06,340.25 821.01,340.27 823.95,340.29 826.90,340.31 829.84,340.33 832.79,340.35 835.73,340.37 838.68,340.39 841.62,341.62 844.57,342.86 847.51,344.09 850.46,345.32 853.41,346.55 856.35,347.79 859.30,349.02 862.24,350.25 865.19,351.48 868.13,352.71 871.08,355.61 874.02,358.51 876.97,361.41 879.91,364.31 882.86,367.21 885.80,370.11 888.75,373.01 891.70,375.91 894.64,378.81 897.59,381.71 900.53,386.78 903.48,391.85 906.42,396.92 909.37,401.98 912.31,407.05 915.26,412.12 918.20,417.19 921.15,422.26 924.09,427.32 927.04,432.39 929.99,439.92 932.93,447.45 935.88,454.97 938.82,462.50 941.77,470.03 944.71,477.55 947.66,485.08 950.60,492.61 953.55,500.14 956.49,507.66 959.44,516.37 962.39,525.08 965.33,533.80 968.28,542.51 971.22,551.22 974.17,559.93 977.11,568.64 980.06,577.36 983.00,586.06 985.95,594.77 988.89,601.45 991.84,608.13 994.78,614.80 997.73,621.48 1000.68,628.17 1003.62,634.84 1006.57,641.52 1009.51,648.20 1012.46,654.87 1015.40,661.55 1018.35,635.58 1021.29,609.60 1024.24,583.63 1027.18,557.66 1030.13,531.68 1033.07,505.70 1036.02,479.73 1038.97,453.75 1041.91,427.78 1044.86,401.80 1047.80,373.47 1050.75,345.13 1053.69,316.80 1056.64,288.46 1059.58,260.12 1062.53,231.79 1065.47,203.45 1068.42,175.12 1071.36,146.79 1074.31,118.45" fill="none" stroke="#000000" stroke-width="3"/>
<line x1="142" y1="100" x2="178" y2="100" stroke="#000000" stroke-width="4"/>
<text x="188" y="105" font-family="Arial" font-size="18" fill="black">vorticity:0</text>
</svg>