<svg xmlns="http://www.w3.org/2000/svg" width="1200" height="820" viewBox="0 0 1200 820">
<rect width="100%" height="100%" fill="white"/>
<text x="600.0" y="36" text-anchor="middle" font-family="Arial" font-size="24" fill="black">profile_diagonal_supply_return: velocity magnitude</text>
<line x1="120.00" y1="75" x2="120.00" y2="705" stroke="#dddddd" stroke-width="1"/>
<text x="120.00" y="737" text-anchor="middle" font-family="Arial" font-size="16" fill="black">-0.729</text>
<line x1="376.25" y1="75" x2="376.25" y2="705" stroke="#dddddd" stroke-width="1"/>
<text x="376.25" y="737" text-anchor="middle" font-family="Arial" font-size="16" fill="black">1.913</text>
<line x1="632.50" y1="75" x2="632.50" y2="705" stroke="#dddddd" stroke-width="1"/>
<text x="632.50" y="737" text-anchor="middle" font-family="Arial" font-size="16" fill="black">4.555</text>
<line x1="888.75" y1="75" x2="888.75" y2="705" stroke="#dddddd" stroke-width="1"/>
<text x="888.75" y="737" text-anchor="middle" font-family="Arial" font-size="16" fill="black">7.197</text>
<line x1="1145.00" y1="75" x2="1145.00" y2="705" stroke="#dddddd" stroke-width="1"/>
<text x="1145.00" y="737" text-anchor="middle" font-family="Arial" font-size="16" fill="black">9.839</text>
<line x1="120" y1="705.00" x2="1145" y2="705.00" stroke="#dddddd" stroke-width="1"/>
<text x="104" y="710.00" text-anchor="end" font-family="Arial" font-size="16" fill="black">0.041</text>
<line x1="120" y1="547.50" x2="1145" y2="547.50" stroke="#dddddd" stroke-width="1"/>
<text x="104" y="552.50" text-anchor="end" font-family="Arial" font-size="16" fill="black">0.112</text>
<line x1="120" y1="390.00" x2="1145" y2="390.00" stroke="#dddddd" stroke-width="1"/>
<text x="104" y="395.00" text-anchor="end" font-family="Arial" font-size="16" fill="black">0.182</text>
<line x1="120" y1="232.50" x2="1145" y2="232.50" stroke="#dddddd" stroke-width="1"/>
<text x="104" y="237.50" text-anchor="end" font-family="Arial" font-size="16" fill="black">0.252</text>
<line x1="120" y1="75.00" x2="1145" y2="75.00" stroke="#dddddd" stroke-width="1"/>
<text x="104" y="80.00" text-anchor="end" font-family="Arial" font-size="16" fill="black">0.323</text>
<rect x="120" y="75" width="1025" height="630" fill="none" stroke="black" stroke-width="2"/>
<text x="632.5" y="785" text-anchor="middle" font-family="Arial" font-size="20" fill="black">distance along sample line [m]</text>
<text x="34" y="390.0" transform="rotate(-90 34 390.0)" text-anchor="middle" font-family="Arial" font-size="20" fill="black">|U| [m/s]</text>
<polyline points="190.69,411.61 193.64,395.81 196.58,381.42 199.53,368.51 202.47,357.12 205.42,348.06 208.36,341.19 211.31,318.47 214.25,298.54 217.20,279.25 220.14,259.31 223.09,240.27 226.03,225.57 228.98,209.45 231.93,193.12 234.87,179.47 237.82,168.42 240.76,159.73 243.71,153.58 246.65,152.19 249.60,151.92 252.54,151.63 255.49,153.94 258.43,158.84 261.38,165.53 264.32,174.73 267.27,185.33 270.22,198.56 273.16,212.77 276.11,228.09 279.05,244.54 282.00,261.91 284.94,279.43 287.88,297.28 290.83,315.59 293.78,334.72 296.73,354.57 299.67,372.67 302.62,390.71 305.57,408.29 308.50,425.41 311.45,436.94 314.40,448.46 317.34,457.01 320.29,463.27 323.24,469.99 326.18,477.28 329.12,485.36 332.07,490.19 335.01,494.04 337.96,498.94 340.91,496.86 343.85,491.80 346.80,485.02 349.74,479.79 352.68,475.27 355.63,469.96 358.58,460.70 361.53,452.49 364.47,445.26 367.42,438.99 370.36,424.90 373.30,412.37 376.25,401.33 379.20,391.71 382.14,383.43 385.09,376.43 388.04,371.44 390.97,367.90 393.92,366.79 396.87,368.37 399.81,368.33 402.76,369.60 405.71,371.10 408.65,375.22 411.59,380.37 414.54,386.79 417.48,394.71 420.43,402.36 423.38,405.63 426.32,409.37 429.27,409.32 432.21,407.67 435.16,405.21 438.10,403.59 441.05,397.87 444.00,392.70 446.94,387.84 449.89,383.52 452.84,379.43 455.77,375.31 458.72,372.20 461.67,369.92 464.61,368.37 467.56,367.46 470.51,369.18 473.45,372.18 476.39,375.49 479.34,378.82 482.28,382.78 485.23,387.48 488.18,390.84 491.12,394.29 494.07,397.84 497.01,400.89 499.96,403.73 502.90,406.46 505.85,409.03 508.80,410.71 511.74,412.61 514.69,414.56 517.63,415.01 520.57,415.48 523.52,416.15 526.47,417.29 529.41,420.36 532.36,424.18 535.31,429.06 538.24,435.03 541.19,442.24 544.14,450.74 547.08,462.13 550.03,475.00 552.98,489.57 555.92,506.08 558.86,523.67 561.81,543.47 564.76,569.05 567.70,599.05 570.65,626.29 573.60,643.68 576.54,652.62 579.49,661.55 582.43,635.07 585.37,582.94 588.32,531.99 591.27,482.32 594.21,434.03 597.16,399.59 600.11,368.37 603.04,342.24 605.99,317.18 608.94,303.66 611.88,298.60 614.83,297.55 617.78,303.59 620.72,310.04 623.66,315.14 626.61,321.14 629.55,328.14 632.50,336.31 635.45,338.77 638.40,341.66 641.34,345.06 644.28,349.11 647.23,355.13 650.17,361.44 653.12,365.53 656.07,368.73 659.01,371.33 661.96,371.86 664.90,362.65 667.84,353.67 670.79,343.58 673.74,333.82 676.68,325.39 679.63,318.36 682.58,312.88 685.51,311.34 688.46,311.96 691.41,313.73 694.35,315.32 697.30,319.03 700.25,324.34 703.20,330.31 706.14,337.72 709.08,345.86 712.03,355.42 714.97,365.13 717.92,374.95 720.87,384.93 723.81,396.03 726.76,406.86 729.70,417.45 732.64,427.78 735.59,438.28 738.54,448.64 741.48,456.76 744.43,464.03 747.38,470.46 750.31,476.19 753.26,480.06 756.21,483.21 759.15,481.62 762.10,479.90 765.05,478.27 767.99,476.79 770.93,475.58 773.88,474.62 776.83,473.41 779.77,473.12 782.72,473.59 785.67,474.60 788.61,476.19 791.55,478.76 794.50,485.02 797.44,491.51 800.39,497.51 803.34,504.07 806.28,511.14 809.23,518.77 812.17,526.17 815.11,533.22 818.06,539.98 821.01,546.54 823.95,551.39 826.90,555.22 829.85,552.45 832.79,548.46 835.73,541.97 838.68,532.26 841.63,520.07 844.57,506.75 847.52,484.29 850.47,460.99 853.41,437.50 856.35,413.75 859.30,389.70 862.24,368.62 865.19,347.38 868.14,326.60 871.08,306.79 874.03,289.88 876.97,275.13 879.91,260.72 882.86,251.16 885.81,242.59 888.75,236.06 891.70,229.50 894.65,222.90 897.58,216.26 900.53,217.24 903.48,217.78 906.43,217.89 909.37,217.55 912.32,218.14 915.27,218.79 918.20,221.05 921.15,222.61 924.10,224.38 927.04,226.62 929.99,228.97 932.94,230.38 935.88,231.18 938.82,232.73 941.77,233.15 944.71,232.48 947.66,230.71 950.61,229.55 953.55,226.39 956.50,222.23 959.44,215.97 962.38,209.32 965.33,202.27 968.28,194.10 971.22,184.75 974.17,175.20 977.12,166.87 980.06,158.19 983.00,149.22 985.95,140.04 988.90,133.28 991.84,127.38 994.79,122.41 997.74,118.45 1000.68,122.16 1003.62,131.29 1006.57,143.76 1009.51,158.46 1012.46,174.95 1015.41,194.08 1018.35,212.03 1021.30,236.40 1024.24,263.34 1027.18,283.92 1030.13,310.08 1033.08,341.99 1036.02,379.83 1038.97,406.19 1041.92,427.96 1044.86,453.05 1047.80,480.93 1050.75,503.10 1053.70,523.51 1056.64,549.20 1059.59,569.81 1062.54,587.77 1065.47,595.60 1068.42,605.25 1071.37,616.76 1074.31,630.20" fill="none" stroke="#000000" stroke-width="3"/>
<line x1="142" y1="100" x2="178" y2="100" stroke="#000000" stroke-width="4"/>
<text x="188" y="105" font-family="Arial" font-size="18" fill="black">|U|</text>
</svg>