<svg xmlns="http://www.w3.org/2000/svg" width="1200" height="820" viewBox="0 0 1200 820">
<rect width="100%" height="100%" fill="white"/>
<text x="600.0" y="36" text-anchor="middle" font-family="Arial" font-size="24" fill="black">profile_diagonal_supply_return: p_rgh</text>
<line x1="120.00" y1="75" x2="120.00" y2="705" stroke="#dddddd" stroke-width="1"/>
<text x="120.00" y="737" text-anchor="middle" font-family="Arial" font-size="16" fill="black">-0.729</text>
<line x1="376.25" y1="75" x2="376.25" y2="705" stroke="#dddddd" stroke-width="1"/>
<text x="376.25" y="737" text-anchor="middle" font-family="Arial" font-size="16" fill="black">1.913</text>
<line x1="632.50" y1="75" x2="632.50" y2="705" stroke="#dddddd" stroke-width="1"/>
<text x="632.50" y="737" text-anchor="middle" font-family="Arial" font-size="16" fill="black">4.555</text>
<line x1="888.75" y1="75" x2="888.75" y2="705" stroke="#dddddd" stroke-width="1"/>
<text x="888.75" y="737" text-anchor="middle" font-family="Arial" font-size="16" fill="black">7.197</text>
<line x1="1145.00" y1="75" x2="1145.00" y2="705" stroke="#dddddd" stroke-width="1"/>
<text x="1145.00" y="737" text-anchor="middle" font-family="Arial" font-size="16" fill="black">9.839</text>
<line x1="120" y1="705.00" x2="1145" y2="705.00" stroke="#dddddd" stroke-width="1"/>
<text x="104" y="710.00" text-anchor="end" font-family="Arial" font-size="16" fill="black">0.117</text>
<line x1="120" y1="547.50" x2="1145" y2="547.50" stroke="#dddddd" stroke-width="1"/>
<text x="104" y="552.50" text-anchor="end" font-family="Arial" font-size="16" fill="black">0.314</text>
<line x1="120" y1="390.00" x2="1145" y2="390.00" stroke="#dddddd" stroke-width="1"/>
<text x="104" y="395.00" text-anchor="end" font-family="Arial" font-size="16" fill="black">0.511</text>
<line x1="120" y1="232.50" x2="1145" y2="232.50" stroke="#dddddd" stroke-width="1"/>
<text x="104" y="237.50" text-anchor="end" font-family="Arial" font-size="16" fill="black">0.709</text>
<line x1="120" y1="75.00" x2="1145" y2="75.00" stroke="#dddddd" stroke-width="1"/>
<text x="104" y="80.00" text-anchor="end" font-family="Arial" font-size="16" fill="black">0.906</text>
<rect x="120" y="75" width="1025" height="630" fill="none" stroke="black" stroke-width="2"/>
<text x="632.5" y="785" text-anchor="middle" font-family="Arial" font-size="20" fill="black">distance along sample line [m]</text>
<text x="34" y="390.0" transform="rotate(-90 34 390.0)" text-anchor="middle" font-family="Arial" font-size="20" fill="black">p_rgh [Pa]</text>
<polyline points="190.69,328.84 193.64,331.69 196.58,334.56 199.53,337.47 202.47,340.41 205.42,343.59 208.36,346.87 211.31,352.21 214.25,357.51 217.20,362.75 220.14,367.86 223.09,373.91 226.03,379.77 228.98,384.83 231.93,389.78 234.87,394.55 237.82,399.12 240.76,403.52 243.71,407.87 246.65,411.22 249.60,414.48 252.54,417.85 255.49,421.18 258.43,424.47 261.38,427.62 264.32,429.67 267.27,431.72 270.22,433.82 273.16,435.87 276.11,437.90 279.05,439.90 282.00,441.05 284.94,442.25 287.88,443.51 290.83,444.83 293.78,446.20 296.73,447.65 299.67,448.70 302.62,449.90 305.57,451.25 308.50,452.78 311.45,454.32 314.40,456.08 317.34,457.80 320.29,459.69 323.24,461.87 326.18,464.37 329.12,467.17 332.07,469.85 335.01,472.77 337.96,475.99 340.91,479.34 343.85,482.63 346.80,485.86 349.74,489.27 352.68,493.06 355.63,496.89 358.58,500.56 361.53,504.35 364.47,508.27 367.42,512.32 370.36,515.12 373.30,518.11 376.25,521.32 379.20,524.74 382.14,528.29 385.09,532.07 388.04,533.89 390.97,535.89 393.92,537.55 396.87,538.67 399.81,540.10 402.76,541.63 405.71,541.37 408.65,538.27 411.59,535.20 414.54,532.17 417.48,529.16 420.43,524.70 423.38,518.92 426.32,513.21 429.27,507.60 432.21,502.98 435.16,499.18 438.10,495.54 441.05,491.05 444.00,487.16 446.94,484.42 449.89,481.95 452.84,479.76 455.77,477.83 458.72,476.08 461.67,474.77 464.61,473.86 467.56,473.38 470.51,473.54 473.45,474.18 476.39,474.30 479.34,474.89 482.28,475.84 485.23,477.06 488.18,478.63 491.12,480.57 494.07,482.08 497.01,483.34 499.96,484.92 502.90,486.80 505.85,488.98 508.80,490.40 511.74,491.38 514.69,492.54 517.63,493.70 520.57,494.19 523.52,494.12 526.47,494.08 529.41,493.74 532.36,492.97 535.31,490.93 538.24,488.77 541.19,486.49 544.14,484.10 547.08,478.42 550.03,472.42 552.98,466.13 555.92,459.62 558.86,449.66 561.81,437.85 564.76,424.22 567.70,410.07 570.65,392.78 573.60,371.08 576.54,349.17 579.49,327.06 582.43,303.90 585.37,278.25 588.32,253.18 591.27,228.40 594.21,203.59 597.16,182.37 600.11,165.38 603.04,148.26 605.99,134.51 608.94,126.42 611.88,122.32 614.83,118.45 617.78,118.93 620.72,120.60 623.66,125.48 626.61,129.49 629.55,132.63 632.50,134.88 635.45,146.14 638.40,156.92 641.34,167.22 644.28,177.01 647.23,188.69 650.17,200.81 653.12,214.41 656.07,227.48 659.01,242.00 661.96,258.66 664.90,276.46 667.84,293.65 670.79,312.36 673.74,332.78 676.68,351.72 679.63,369.24 682.58,385.40 685.51,400.23 688.46,414.20 691.41,426.37 694.35,434.10 697.30,440.34 700.25,445.52 703.20,449.90 706.14,454.06 709.08,457.20 712.03,459.74 714.97,461.69 717.92,463.08 720.87,463.91 723.81,464.63 726.76,465.13 729.70,465.41 732.64,465.49 735.59,465.67 738.54,465.85 741.48,466.85 744.43,467.73 747.38,468.63 750.31,469.63 753.26,470.28 756.21,470.89 759.15,472.47 762.10,474.26 765.05,476.00 767.99,477.68 770.93,479.32 773.88,481.21 776.83,483.92 779.77,486.54 782.72,489.06 785.67,491.76 788.61,494.61 791.55,497.40 794.50,500.78 797.44,504.26 800.39,508.08 803.34,511.83 806.28,515.51 809.23,519.13 812.17,524.26 815.11,529.31 818.06,534.26 821.01,539.12 823.95,545.59 826.90,552.66 829.85,559.92 832.79,567.07 835.73,576.20 838.68,587.91 841.63,598.83 844.57,609.32 847.52,618.79 850.47,628.20 853.41,637.01 856.35,645.25 859.30,652.97 862.24,657.52 865.19,658.88 868.14,660.03 871.08,661.40 874.03,661.55 876.97,660.97 879.91,660.49 882.86,656.90 885.81,653.35 888.75,649.67 891.70,646.37 894.65,643.45 897.58,640.88 900.53,637.21 903.48,633.85 906.43,630.79 909.37,628.03 912.32,625.34 915.27,622.91 918.20,621.09 921.15,619.38 924.10,617.52 927.04,615.50 929.99,613.47 932.94,611.69 935.88,610.43 938.82,608.78 941.77,607.31 944.71,605.98 947.66,604.79 950.61,603.28 953.55,602.34 956.50,601.49 959.44,601.02 962.38,600.55 965.33,600.13 968.28,599.94 971.22,600.14 974.17,600.33 977.12,600.25 980.06,600.28 983.00,600.41 985.95,600.63 988.90,600.57 991.84,600.37 994.79,600.02 997.74,599.54 1000.68,597.43 1003.62,594.28 1006.57,589.97 1009.51,585.15 1012.46,579.73 1015.41,573.71 1018.35,567.75 1021.30,560.85 1024.24,553.03 1027.18,547.20 1030.13,541.19 1033.08,535.01 1036.02,528.65 1038.97,522.93 1041.92,517.35 1044.86,511.87 1047.80,506.07 1050.75,500.98 1053.70,496.44 1056.64,492.03 1059.59,488.78 1062.54,486.09 1065.47,484.65 1068.42,483.23 1071.37,481.82 1074.31,480.43" fill="none" stroke="#000000" stroke-width="3"/>
<line x1="142" y1="100" x2="178" y2="100" stroke="#000000" stroke-width="4"/>
<text x="188" y="105" font-family="Arial" font-size="18" fill="black">p_rgh</text>
</svg>