<svg xmlns="http://www.w3.org/2000/svg" width="1200" height="820" viewBox="0 0 1200 820">
<rect width="100%" height="100%" fill="white"/>
<text x="600.0" y="36" text-anchor="middle" font-family="Arial" font-size="24" fill="black">profile_near_ceiling_x: U:1</text>
<line x1="120.00" y1="75" x2="120.00" y2="705" stroke="#dddddd" stroke-width="1"/>
<text x="120.00" y="737" text-anchor="middle" font-family="Arial" font-size="16" fill="black">-0.560</text>
<line x1="376.25" y1="75" x2="376.25" y2="705" stroke="#dddddd" stroke-width="1"/>
<text x="376.25" y="737" text-anchor="middle" font-family="Arial" font-size="16" fill="black">1.470</text>
<line x1="632.50" y1="75" x2="632.50" y2="705" stroke="#dddddd" stroke-width="1"/>
<text x="632.50" y="737" text-anchor="middle" font-family="Arial" font-size="16" fill="black">3.500</text>
<line x1="888.75" y1="75" x2="888.75" y2="705" stroke="#dddddd" stroke-width="1"/>
<text x="888.75" y="737" text-anchor="middle" font-family="Arial" font-size="16" fill="black">5.530</text>
<line x1="1145.00" y1="75" x2="1145.00" y2="705" stroke="#dddddd" stroke-width="1"/>
<text x="1145.00" y="737" text-anchor="middle" font-family="Arial" font-size="16" fill="black">7.560</text>
<line x1="120" y1="705.00" x2="1145" y2="705.00" stroke="#dddddd" stroke-width="1"/>
<text x="104" y="710.00" text-anchor="end" font-family="Arial" font-size="16" fill="black">-0.323</text>
<line x1="120" y1="547.50" x2="1145" y2="547.50" stroke="#dddddd" stroke-width="1"/>
<text x="104" y="552.50" text-anchor="end" font-family="Arial" font-size="16" fill="black">-0.172</text>
<line x1="120" y1="390.00" x2="1145" y2="390.00" stroke="#dddddd" stroke-width="1"/>
<text x="104" y="395.00" text-anchor="end" font-family="Arial" font-size="16" fill="black">-0.021</text>
<line x1="120" y1="232.50" x2="1145" y2="232.50" stroke="#dddddd" stroke-width="1"/>
<text x="104" y="237.50" text-anchor="end" font-family="Arial" font-size="16" fill="black">0.129</text>
<line x1="120" y1="75.00" x2="1145" y2="75.00" stroke="#dddddd" stroke-width="1"/>
<text x="104" y="80.00" text-anchor="end" font-family="Arial" font-size="16" fill="black">0.280</text>
<rect x="120" y="75" width="1025" height="630" fill="none" stroke="black" stroke-width="2"/>
<text x="632.5" y="785" text-anchor="middle" font-family="Arial" font-size="20" fill="black">x coordinate [m]</text>
<text x="34" y="390.0" transform="rotate(-90 34 390.0)" text-anchor="middle" font-family="Arial" font-size="20" fill="black">U:1 [SI]</text>
<polyline points="190.69,629.30 193.64,630.21 196.58,631.11 199.53,632.01 202.47,632.92 205.42,634.09 208.36,635.37 211.31,636.65 214.25,637.93 217.20,638.98 220.14,639.70 223.09,640.43 226.03,641.15 228.98,641.88 231.93,642.55 234.87,643.21 237.82,643.88 240.76,644.55 243.71,645.18 246.65,645.80 249.60,646.41 252.54,647.04 255.49,647.64 258.43,648.21 261.38,648.79 264.32,649.36 267.27,649.93 270.22,650.47 273.16,651.00 276.11,651.54 279.05,652.07 282.00,652.59 284.94,653.10 287.89,653.62 290.83,654.13 293.78,654.64 296.72,655.15 299.67,655.67 302.62,656.19 305.56,656.69 308.51,657.18 311.45,657.67 314.40,658.17 317.34,658.66 320.29,659.08 323.23,659.50 326.17,659.93 329.13,660.35 332.07,660.64 335.01,660.91 337.96,661.18 340.91,661.45 343.85,661.55 346.80,661.53 349.74,661.51 352.68,661.49 355.64,661.34 358.58,660.88 361.52,660.41 364.47,659.94 367.41,659.47 370.35,658.44 373.31,657.40 376.25,656.37 379.19,655.33 382.15,653.89 385.09,652.29 388.03,650.69 390.98,649.09 393.92,647.30 396.86,645.26 399.82,643.24 402.76,641.21 405.70,639.14 408.65,636.83 411.59,634.52 414.54,632.21 417.49,629.90 420.43,627.43 423.37,624.92 426.33,622.42 429.27,619.92 432.21,617.34 435.16,614.69 438.10,612.05 441.04,609.40 444.00,606.73 446.94,603.95 449.88,601.17 452.83,598.39 455.78,595.60 458.72,592.65 461.67,589.69 464.61,586.73 467.55,583.77 470.51,580.65 473.45,577.47 476.39,574.29 479.34,571.11 482.28,567.82 485.23,564.38 488.18,560.93 491.12,557.49 494.06,553.98 497.02,550.15 499.96,546.31 502.90,542.48 505.85,538.65 508.79,534.15 511.73,529.55 514.69,524.96 517.63,520.36 520.57,514.99 523.52,509.03 526.47,503.08 529.41,497.12 532.36,490.73 535.30,483.26 538.24,475.78 541.20,468.31 544.14,460.84 547.08,451.89 550.03,442.94 552.97,434.00 555.92,425.05 558.87,415.11 561.81,404.77 564.75,394.44 567.71,384.10 570.65,373.24 573.59,361.68 576.54,350.13 579.48,338.57 582.42,326.87 585.38,314.32 588.32,301.78 591.26,289.23 594.21,276.68 597.16,264.58 600.10,252.55 603.05,240.53 605.99,228.50 608.93,218.36 611.89,209.64 614.83,200.92 617.77,192.21 620.72,184.48 623.66,179.23 626.60,173.98 629.56,168.73 632.50,163.50 635.44,159.60 638.40,155.70 641.34,151.80 644.28,147.90 647.23,144.65 650.17,141.64 653.11,138.64 656.07,135.64 659.01,133.08 661.95,131.13 664.90,129.19 667.84,127.23 670.79,125.40 673.74,124.27 676.68,123.14 679.62,122.02 682.58,120.89 685.52,120.31 688.46,119.81 691.41,119.32 694.35,118.81 697.29,118.58 700.25,118.53 703.19,118.49 706.13,118.45 709.08,118.48 712.03,118.73 714.97,118.97 717.92,119.21 720.86,119.45 723.80,119.85 726.76,120.24 729.70,120.62 732.64,121.02 735.59,121.43 738.53,121.85 741.48,122.26 744.43,122.68 747.37,123.09 750.31,123.46 753.27,123.83 756.21,124.21 759.15,124.56 762.10,124.86 765.04,125.14 767.98,125.43 770.94,125.72 773.88,125.92 776.82,126.12 779.77,126.31 782.72,126.51 785.66,126.66 788.61,126.77 791.55,126.87 794.49,126.99 797.45,127.08 800.39,127.14 803.33,127.19 806.28,127.24 809.22,127.29 812.17,127.31 815.12,127.35 818.06,127.37 821.00,127.40 823.96,127.43 826.90,127.46 829.84,127.49 832.79,127.52 835.73,127.56 838.67,127.64 841.63,127.70 844.57,127.76 847.51,127.84 850.46,127.96 853.41,128.10 856.35,128.22 859.30,128.35 862.24,128.55 865.18,128.76 868.14,128.98 871.08,129.19 874.02,129.46 876.97,129.78 879.91,130.09 882.85,130.42 885.81,130.77 888.75,131.22 891.69,131.66 894.65,132.11 897.59,132.56 900.53,133.15 903.48,133.73 906.42,134.33 909.36,134.91 912.32,135.61 915.26,136.37 918.20,137.11 921.15,137.86 924.09,138.68 927.04,139.59 929.99,140.50 932.93,141.42 935.87,142.35 938.83,143.41 941.77,144.49 944.71,145.56 947.66,146.63 950.60,147.82 953.54,149.03 956.50,150.23 959.44,151.43 962.38,152.70 965.33,153.99 968.28,155.29 971.22,156.59 974.17,157.89 977.11,159.23 980.05,160.57 983.01,161.91 985.95,163.25 988.89,164.57 991.84,165.90 994.78,167.23 997.73,168.57 1000.68,169.86 1003.62,171.16 1006.56,172.45 1009.52,173.74 1012.46,175.01 1015.40,176.25 1018.35,177.51 1021.29,178.75 1024.23,179.99 1027.19,181.25 1030.13,182.50 1033.07,183.77 1036.02,185.02 1038.97,186.42 1041.91,187.87 1044.86,189.30 1047.80,190.73 1050.74,192.70 1053.70,195.06 1056.64,197.42 1059.58,199.77 1062.53,201.91 1065.47,203.48 1068.42,205.04 1071.37,206.61 1074.31,208.17" fill="none" stroke="#000000" stroke-width="3"/>
<line x1="142" y1="100" x2="178" y2="100" stroke="#000000" stroke-width="4"/>
<text x="188" y="105" font-family="Arial" font-size="18" fill="black">U:1</text>
</svg>