<svg xmlns="http://www.w3.org/2000/svg" width="1200" height="820" viewBox="0 0 1200 820">
<rect width="100%" height="100%" fill="white"/>
<text x="600.0" y="36" text-anchor="middle" font-family="Arial" font-size="24" fill="black">profile_diagonal_supply_return: nut</text>
<line x1="120.00" y1="75" x2="120.00" y2="705" stroke="#dddddd" stroke-width="1"/>
<text x="120.00" y="737" text-anchor="middle" font-family="Arial" font-size="16" fill="black">-0.729</text>
<line x1="376.25" y1="75" x2="376.25" y2="705" stroke="#dddddd" stroke-width="1"/>
<text x="376.25" y="737" text-anchor="middle" font-family="Arial" font-size="16" fill="black">1.913</text>
<line x1="632.50" y1="75" x2="632.50" y2="705" stroke="#dddddd" stroke-width="1"/>
<text x="632.50" y="737" text-anchor="middle" font-family="Arial" font-size="16" fill="black">4.555</text>
<line x1="888.75" y1="75" x2="888.75" y2="705" stroke="#dddddd" stroke-width="1"/>
<text x="888.75" y="737" text-anchor="middle" font-family="Arial" font-size="16" fill="black">7.197</text>
<line x1="1145.00" y1="75" x2="1145.00" y2="705" stroke="#dddddd" stroke-width="1"/>
<text x="1145.00" y="737" text-anchor="middle" font-family="Arial" font-size="16" fill="black">9.839</text>
<line x1="120" y1="705.00" x2="1145" y2="705.00" stroke="#dddddd" stroke-width="1"/>
<text x="104" y="710.00" text-anchor="end" font-family="Arial" font-size="16" fill="black">-4.45e-04</text>
<line x1="120" y1="547.50" x2="1145" y2="547.50" stroke="#dddddd" stroke-width="1"/>
<text x="104" y="552.50" text-anchor="end" font-family="Arial" font-size="16" fill="black">0.003</text>
<line x1="120" y1="390.00" x2="1145" y2="390.00" stroke="#dddddd" stroke-width="1"/>
<text x="104" y="395.00" text-anchor="end" font-family="Arial" font-size="16" fill="black">0.006</text>
<line x1="120" y1="232.50" x2="1145" y2="232.50" stroke="#dddddd" stroke-width="1"/>
<text x="104" y="237.50" text-anchor="end" font-family="Arial" font-size="16" fill="black">0.009</text>
<line x1="120" y1="75.00" x2="1145" y2="75.00" stroke="#dddddd" stroke-width="1"/>
<text x="104" y="80.00" text-anchor="end" font-family="Arial" font-size="16" fill="black">0.012</text>
<rect x="120" y="75" width="1025" height="630" fill="none" stroke="black" stroke-width="2"/>
<text x="632.5" y="785" text-anchor="middle" font-family="Arial" font-size="20" fill="black">distance along sample line [m]</text>
<text x="34" y="390.0" transform="rotate(-90 34 390.0)" text-anchor="middle" font-family="Arial" font-size="20" fill="black">nut [m2/s]</text>
<polyline points="190.69,655.79 193.64,655.54 196.58,655.23 199.53,654.80 202.47,654.22 205.42,653.23 208.36,651.82 211.31,649.76 214.25,647.09 217.20,643.86 220.14,640.16 223.09,635.11 226.03,628.98 228.98,622.85 231.93,616.27 234.87,608.80 237.82,600.39 240.76,590.96 243.71,581.09 246.65,570.97 249.60,559.96 252.54,550.68 255.49,541.34 258.43,531.85 261.38,521.87 264.32,512.38 267.27,502.70 270.22,493.19 273.16,483.23 276.11,472.79 279.05,461.86 282.00,454.84 284.94,447.53 287.88,439.90 290.83,431.93 293.78,424.28 296.73,416.53 299.67,409.78 302.62,402.62 305.57,395.43 308.50,388.30 311.45,382.08 314.40,375.44 317.34,369.87 320.29,364.73 323.24,359.22 326.18,353.35 329.12,347.10 332.07,341.45 335.01,336.92 337.96,332.16 340.91,328.45 343.85,325.31 346.80,322.53 349.74,319.58 352.68,317.07 355.63,314.69 358.58,312.92 361.53,310.88 364.47,308.55 367.42,305.94 370.36,305.59 373.30,305.01 376.25,304.19 379.20,303.14 382.14,302.66 385.09,302.24 388.04,302.12 390.97,301.67 393.92,301.13 396.87,300.50 399.81,300.32 402.76,299.81 405.71,299.69 408.65,299.67 411.59,299.45 414.54,299.02 417.48,298.36 420.43,297.67 423.38,298.44 426.32,298.99 429.27,300.32 432.21,301.35 435.16,302.03 438.10,302.36 441.05,304.04 444.00,305.24 446.94,305.73 449.89,305.80 452.84,305.43 455.77,304.62 458.72,305.32 461.67,305.49 464.61,305.12 467.56,304.19 470.51,302.20 473.45,299.45 476.39,297.84 479.34,295.64 482.28,292.80 485.23,289.36 488.18,286.13 491.12,282.39 494.07,279.52 497.01,276.47 499.96,272.96 502.90,269.01 505.85,264.65 508.80,260.26 511.74,256.29 514.69,251.92 517.63,247.48 520.57,242.94 523.52,238.34 526.47,233.45 529.41,228.52 532.36,224.41 535.31,222.93 538.24,221.90 541.19,221.34 544.14,221.26 547.08,229.17 550.03,237.80 552.98,247.17 555.92,257.32 558.86,271.42 561.81,287.41 564.76,305.23 567.70,323.70 570.65,343.83 573.60,366.05 576.54,387.53 579.49,409.56 582.43,432.40 585.37,455.21 588.32,477.98 591.27,500.99 594.21,524.51 597.16,543.43 600.11,557.11 603.04,570.69 605.99,580.22 608.94,586.60 611.88,590.96 614.83,595.67 617.78,597.21 620.72,598.69 623.66,599.18 626.61,600.14 629.55,601.51 632.50,603.23 635.45,596.64 638.40,590.43 641.34,584.60 644.28,579.16 647.23,572.11 650.17,564.42 653.12,555.14 656.07,545.70 659.01,533.69 661.96,518.06 664.90,496.93 667.84,476.13 670.79,453.78 673.74,429.07 676.68,405.39 679.63,382.75 682.58,361.10 685.51,340.29 688.46,320.69 691.41,302.49 694.35,288.33 697.30,275.74 700.25,264.58 703.20,254.43 706.14,246.43 709.08,239.91 712.03,235.34 714.97,231.69 717.92,228.92 720.87,226.98 723.81,228.48 726.76,230.27 729.70,232.32 732.64,234.64 735.59,236.83 738.54,239.00 741.48,242.07 744.43,245.27 747.38,248.02 750.31,250.12 753.26,252.39 756.21,254.60 759.15,257.07 762.10,258.13 765.05,259.13 767.99,260.07 770.93,260.93 773.88,260.75 776.83,259.53 779.77,258.39 782.72,256.64 785.67,254.68 788.61,252.64 791.55,250.76 794.50,247.31 797.44,244.25 800.39,241.46 803.34,239.08 806.28,237.13 809.23,235.59 812.17,231.90 815.11,228.60 818.06,225.66 821.01,223.05 823.95,220.00 826.90,216.79 829.85,213.01 832.79,209.46 835.73,205.74 838.68,201.70 841.63,197.80 844.57,194.05 847.52,191.83 850.47,189.60 853.41,187.61 856.35,185.83 859.30,184.25 862.24,182.22 865.19,181.61 868.14,181.02 871.08,180.78 874.03,179.79 876.97,178.14 879.91,176.37 882.86,174.29 885.81,171.92 888.75,168.84 891.70,165.70 894.65,162.62 897.58,159.54 900.53,155.24 903.48,151.05 906.43,147.00 909.37,143.06 912.32,139.32 915.27,135.68 918.20,131.44 921.15,127.49 924.10,123.96 927.04,120.98 929.99,119.71 932.94,118.65 935.88,118.45 938.82,119.51 941.77,120.87 944.71,122.59 947.66,124.66 950.61,128.20 953.55,134.07 956.50,140.13 959.44,149.88 962.38,160.75 965.33,172.42 968.28,184.12 971.22,197.29 974.17,210.77 977.12,225.36 980.06,239.67 983.00,253.73 985.95,267.58 988.90,286.80 991.84,305.50 994.79,323.75 997.74,341.62 1000.68,359.47 1003.62,376.99 1006.57,396.03 1009.51,414.38 1012.46,432.10 1015.41,448.98 1018.35,468.91 1021.30,488.57 1024.24,510.14 1027.18,531.24 1030.13,550.42 1033.08,567.79 1036.02,583.43 1038.97,598.47 1041.92,614.37 1044.86,627.42 1047.80,636.88 1050.75,644.36 1053.70,650.06 1056.64,654.35 1059.59,657.18 1062.54,659.02 1065.47,660.01 1068.42,660.70 1071.37,661.18 1074.31,661.55" fill="none" stroke="#000000" stroke-width="3"/>
<line x1="142" y1="100" x2="178" y2="100" stroke="#000000" stroke-width="4"/>
<text x="188" y="105" font-family="Arial" font-size="18" fill="black">nut</text>
</svg>