<svg xmlns="http://www.w3.org/2000/svg" width="1200" height="820" viewBox="0 0 1200 820">
<rect width="100%" height="100%" fill="white"/>
<text x="600.0" y="36" text-anchor="middle" font-family="Arial" font-size="24" fill="black">profile_diagonal_supply_return: U:1</text>
<line x1="120.00" y1="75" x2="120.00" y2="705" stroke="#dddddd" stroke-width="1"/>
<text x="120.00" y="737" text-anchor="middle" font-family="Arial" font-size="16" fill="black">-0.729</text>
<line x1="376.25" y1="75" x2="376.25" y2="705" stroke="#dddddd" stroke-width="1"/>
<text x="376.25" y="737" text-anchor="middle" font-family="Arial" font-size="16" fill="black">1.913</text>
<line x1="632.50" y1="75" x2="632.50" y2="705" stroke="#dddddd" stroke-width="1"/>
<text x="632.50" y="737" text-anchor="middle" font-family="Arial" font-size="16" fill="black">4.555</text>
<line x1="888.75" y1="75" x2="888.75" y2="705" stroke="#dddddd" stroke-width="1"/>
<text x="888.75" y="737" text-anchor="middle" font-family="Arial" font-size="16" fill="black">7.197</text>
<line x1="1145.00" y1="75" x2="1145.00" y2="705" stroke="#dddddd" stroke-width="1"/>
<text x="1145.00" y="737" text-anchor="middle" font-family="Arial" font-size="16" fill="black">9.839</text>
<line x1="120" y1="705.00" x2="1145" y2="705.00" stroke="#dddddd" stroke-width="1"/>
<text x="104" y="710.00" text-anchor="end" font-family="Arial" font-size="16" fill="black">-0.299</text>
<line x1="120" y1="547.50" x2="1145" y2="547.50" stroke="#dddddd" stroke-width="1"/>
<text x="104" y="552.50" text-anchor="end" font-family="Arial" font-size="16" fill="black">-0.171</text>
<line x1="120" y1="390.00" x2="1145" y2="390.00" stroke="#dddddd" stroke-width="1"/>
<text x="104" y="395.00" text-anchor="end" font-family="Arial" font-size="16" fill="black">-0.042</text>
<line x1="120" y1="232.50" x2="1145" y2="232.50" stroke="#dddddd" stroke-width="1"/>
<text x="104" y="237.50" text-anchor="end" font-family="Arial" font-size="16" fill="black">0.086</text>
<line x1="120" y1="75.00" x2="1145" y2="75.00" stroke="#dddddd" stroke-width="1"/>
<text x="104" y="80.00" text-anchor="end" font-family="Arial" font-size="16" fill="black">0.215</text>
<rect x="120" y="75" width="1025" height="630" fill="none" stroke="black" stroke-width="2"/>
<text x="632.5" y="785" text-anchor="middle" font-family="Arial" font-size="20" fill="black">distance along sample line [m]</text>
<text x="34" y="390.0" transform="rotate(-90 34 390.0)" text-anchor="middle" font-family="Arial" font-size="20" fill="black">U:1 [SI]</text>
<polyline points="190.69,510.95 193.64,518.13 196.58,524.99 199.53,531.49 202.47,537.63 205.42,542.67 208.36,546.95 211.31,560.90 214.25,574.05 217.20,587.27 220.14,601.11 223.09,611.58 226.03,621.35 228.98,628.70 231.93,636.38 234.87,643.53 237.82,650.20 240.76,656.39 243.71,661.55 246.65,660.68 249.60,659.50 252.54,658.84 255.49,657.04 258.43,654.19 261.38,650.91 264.32,643.63 267.27,635.74 270.22,626.50 273.16,616.99 276.11,607.23 279.05,597.20 282.00,584.63 284.94,571.97 287.88,559.23 290.83,546.42 293.78,533.23 296.73,519.85 299.67,505.24 302.62,490.68 305.57,476.41 308.50,462.56 311.45,450.86 314.40,439.28 317.34,427.66 320.29,417.56 323.24,407.57 326.18,397.67 329.12,387.82 332.07,379.84 335.01,372.11 337.96,364.30 340.91,358.53 343.85,353.92 346.80,350.06 349.74,345.87 352.68,341.62 355.63,337.51 358.58,334.49 361.53,331.11 364.47,327.34 367.42,323.17 370.36,322.42 373.30,321.30 376.25,319.80 379.20,317.91 382.14,316.59 385.09,315.50 388.04,315.33 390.97,315.06 393.92,315.26 396.87,316.32 399.81,318.66 402.76,320.99 405.71,325.05 408.65,329.92 411.59,334.93 414.54,340.10 417.48,345.44 420.43,350.84 423.38,358.35 426.32,366.16 429.27,374.48 432.21,381.56 435.16,387.69 438.10,393.78 441.05,400.83 444.00,406.76 446.94,410.11 449.89,413.28 452.84,416.30 455.77,419.16 458.72,417.78 461.67,416.03 464.61,413.93 467.56,411.47 470.51,407.02 473.45,401.65 476.39,395.33 479.34,388.78 482.28,381.66 485.23,373.94 488.18,365.73 491.12,357.35 494.07,348.01 497.01,339.33 499.96,330.74 502.90,322.22 505.85,313.77 508.80,306.95 511.74,299.77 514.69,292.91 517.63,286.66 520.57,282.13 523.52,279.04 526.47,276.32 529.41,273.28 532.36,271.55 535.31,272.37 538.24,273.75 541.19,275.67 544.14,278.16 547.08,284.22 550.03,290.62 552.98,297.38 555.92,304.51 558.86,315.01 561.81,327.06 564.76,337.49 567.70,348.03 570.65,359.94 573.60,373.33 576.54,385.61 579.49,397.36 582.43,402.62 585.37,405.27 588.32,407.12 591.27,408.24 594.21,408.74 597.16,406.59 600.11,400.97 603.04,395.27 605.99,388.30 608.94,380.93 611.88,373.46 614.83,366.22 617.78,359.52 620.72,352.50 623.66,344.84 626.61,337.10 629.55,329.22 632.50,321.16 635.45,312.19 638.40,303.21 641.34,294.18 644.28,285.04 647.23,275.65 650.17,266.13 653.12,257.95 656.07,249.79 659.01,241.69 661.96,233.75 664.90,226.72 667.84,220.21 670.79,215.78 673.74,212.68 676.68,210.33 679.63,208.68 682.58,207.72 685.51,207.75 688.46,210.38 691.41,213.32 694.35,217.36 697.30,221.42 700.25,225.56 703.20,229.85 706.14,235.76 709.08,241.49 712.03,246.88 714.97,252.31 717.92,257.78 720.87,263.32 723.81,269.87 726.76,276.46 729.70,283.12 732.64,289.86 735.59,295.84 738.54,301.58 741.48,308.43 744.43,315.25 747.38,321.36 750.31,326.49 753.26,332.02 756.21,337.37 759.15,342.78 762.10,346.35 765.05,349.50 767.99,352.21 770.93,354.47 773.88,355.35 776.83,355.28 779.77,354.79 782.72,353.74 785.67,352.08 788.61,349.99 791.55,347.69 794.50,344.88 797.44,341.95 800.39,338.89 803.34,335.81 806.28,332.71 809.23,329.59 812.17,326.91 815.11,324.29 818.06,321.71 821.01,319.17 823.95,316.52 826.90,313.83 829.85,311.72 832.79,309.55 835.73,307.20 838.68,304.64 841.63,302.11 844.57,299.48 847.52,297.17 850.47,294.82 853.41,292.34 856.35,289.73 859.30,286.98 862.24,284.72 865.19,282.87 868.14,280.90 871.08,278.72 874.03,276.90 876.97,275.33 879.91,273.63 882.86,272.13 885.81,270.64 888.75,269.40 891.70,267.98 894.65,266.39 897.58,264.63 900.53,262.89 903.48,260.89 906.43,258.66 909.37,256.19 912.32,253.48 915.27,250.56 918.20,247.55 921.15,244.30 924.10,240.73 927.04,236.85 929.99,232.29 932.94,227.47 935.88,222.80 938.82,217.60 941.77,212.16 944.71,206.50 947.66,200.59 950.61,194.11 953.55,188.74 956.50,183.24 959.44,176.47 962.38,169.23 965.33,161.59 968.28,153.74 971.22,148.83 974.17,143.93 977.12,138.99 980.06,134.10 983.00,129.25 985.95,124.41 988.90,122.21 991.84,120.53 994.79,119.29 997.74,118.45 1000.68,118.99 1003.62,120.26 1006.57,124.39 1009.51,128.63 1012.46,133.17 1015.41,138.22 1018.35,142.53 1021.30,147.14 1024.24,154.50 1027.18,162.94 1030.13,172.11 1033.08,181.89 1036.02,192.17 1038.97,201.53 1041.92,211.40 1044.86,221.65 1047.80,232.49 1050.75,240.41 1053.70,246.51 1056.64,253.10 1059.59,254.05 1062.54,255.38 1065.47,257.34 1068.42,259.54 1071.37,262.01 1074.31,264.74" fill="none" stroke="#000000" stroke-width="3"/>
<line x1="142" y1="100" x2="178" y2="100" stroke="#000000" stroke-width="4"/>
<text x="188" y="105" font-family="Arial" font-size="18" fill="black">U:1</text>
</svg>