<svg xmlns="http://www.w3.org/2000/svg" width="1200" height="820" viewBox="0 0 1200 820">
<rect width="100%" height="100%" fill="white"/>
<text x="600.0" y="36" text-anchor="middle" font-family="Arial" font-size="24" fill="black">profile_near_floor_x: nut</text>
<line x1="120.00" y1="75" x2="120.00" y2="705" stroke="#dddddd" stroke-width="1"/>
<text x="120.00" y="737" text-anchor="middle" font-family="Arial" font-size="16" fill="black">-0.560</text>
<line x1="376.25" y1="75" x2="376.25" y2="705" stroke="#dddddd" stroke-width="1"/>
<text x="376.25" y="737" text-anchor="middle" font-family="Arial" font-size="16" fill="black">1.470</text>
<line x1="632.50" y1="75" x2="632.50" y2="705" stroke="#dddddd" stroke-width="1"/>
<text x="632.50" y="737" text-anchor="middle" font-family="Arial" font-size="16" fill="black">3.500</text>
<line x1="888.75" y1="75" x2="888.75" y2="705" stroke="#dddddd" stroke-width="1"/>
<text x="888.75" y="737" text-anchor="middle" font-family="Arial" font-size="16" fill="black">5.530</text>
<line x1="1145.00" y1="75" x2="1145.00" y2="705" stroke="#dddddd" stroke-width="1"/>
<text x="1145.00" y="737" text-anchor="middle" font-family="Arial" font-size="16" fill="black">7.560</text>
<line x1="120" y1="705.00" x2="1145" y2="705.00" stroke="#dddddd" stroke-width="1"/>
<text x="104" y="710.00" text-anchor="end" font-family="Arial" font-size="16" fill="black">1.20e-04</text>
<line x1="120" y1="547.50" x2="1145" y2="547.50" stroke="#dddddd" stroke-width="1"/>
<text x="104" y="552.50" text-anchor="end" font-family="Arial" font-size="16" fill="black">0.002</text>
<line x1="120" y1="390.00" x2="1145" y2="390.00" stroke="#dddddd" stroke-width="1"/>
<text x="104" y="395.00" text-anchor="end" font-family="Arial" font-size="16" fill="black">0.003</text>
<line x1="120" y1="232.50" x2="1145" y2="232.50" stroke="#dddddd" stroke-width="1"/>
<text x="104" y="237.50" text-anchor="end" font-family="Arial" font-size="16" fill="black">0.004</text>
<line x1="120" y1="75.00" x2="1145" y2="75.00" stroke="#dddddd" stroke-width="1"/>
<text x="104" y="80.00" text-anchor="end" font-family="Arial" font-size="16" fill="black">0.006</text>
<rect x="120" y="75" width="1025" height="630" fill="none" stroke="black" stroke-width="2"/>
<text x="632.5" y="785" text-anchor="middle" font-family="Arial" font-size="20" fill="black">x coordinate [m]</text>
<text x="34" y="390.0" transform="rotate(-90 34 390.0)" text-anchor="middle" font-family="Arial" font-size="20" fill="black">nut [m2/s]</text>
<polyline points="190.69,648.06 193.64,635.01 196.58,621.96 199.53,608.91 202.47,595.85 205.42,576.47 208.36,554.54 211.31,532.63 214.25,510.70 217.20,491.69 220.14,476.55 223.09,461.40 226.03,446.26 228.98,431.69 231.93,420.54 234.87,409.38 237.82,398.22 240.76,387.07 243.71,378.40 246.65,370.14 249.60,361.88 252.54,353.62 255.49,347.30 258.43,342.44 261.38,337.58 264.32,332.71 267.27,329.30 270.22,329.51 273.16,329.73 276.11,329.94 279.05,330.15 282.00,338.85 284.94,347.54 287.89,356.23 290.83,364.92 293.78,376.69 296.72,389.67 299.67,402.66 302.62,415.65 305.56,433.53 308.51,457.94 311.45,482.36 314.40,506.77 317.34,530.62 320.29,551.11 323.23,571.61 326.17,592.10 329.13,612.59 332.07,617.53 335.01,619.87 337.96,622.21 340.91,624.54 343.85,625.73 346.80,626.05 349.74,626.37 352.68,626.69 355.64,626.95 358.58,627.04 361.52,627.14 364.47,627.24 367.41,627.34 370.35,627.40 373.31,627.46 376.25,627.52 379.19,627.59 382.15,627.63 385.09,627.67 388.03,627.70 390.98,627.74 393.92,627.77 396.86,627.79 399.82,627.81 402.76,627.84 405.70,627.84 408.65,627.74 411.59,627.64 414.54,627.53 417.49,627.43 420.43,622.21 423.37,616.14 426.33,610.07 429.27,604.00 432.21,593.56 435.16,579.86 438.10,566.15 441.04,552.45 444.00,539.49 446.94,528.39 449.88,517.28 452.83,506.18 455.78,495.08 458.72,489.22 461.67,483.36 464.61,477.51 467.55,471.64 470.51,466.18 473.45,460.86 476.39,455.54 479.34,450.22 482.28,444.69 485.23,438.85 488.18,433.02 491.12,427.19 494.06,421.37 497.02,415.62 499.96,409.88 502.90,404.13 505.85,398.38 508.79,393.25 511.73,388.22 514.69,383.19 517.63,378.16 520.57,374.52 523.52,371.93 526.47,369.33 529.41,366.74 532.36,366.37 535.30,371.60 538.24,376.81 541.20,382.04 544.14,387.25 547.08,404.13 550.03,421.02 552.97,437.90 555.92,454.78 558.87,475.87 561.81,498.64 564.75,521.40 567.71,544.16 570.65,563.15 573.59,577.07 576.54,591.00 579.48,604.93 582.42,617.24 585.38,619.80 588.32,622.36 591.26,624.92 594.21,627.48 597.16,627.87 600.10,627.90 603.05,627.94 605.99,627.96 608.93,627.98 611.89,627.98 614.83,627.98 617.77,627.99 620.72,627.99 623.66,627.98 626.60,627.97 629.56,627.96 632.50,627.95 635.44,627.91 638.40,627.88 641.34,627.85 644.28,627.81 647.23,627.71 650.17,627.57 653.11,627.44 656.07,627.31 659.01,626.61 661.95,625.17 664.90,623.72 667.84,622.28 670.79,616.99 673.74,588.65 676.68,560.31 679.62,531.97 682.58,503.62 685.52,465.13 688.46,424.95 691.41,384.79 694.35,344.61 697.29,313.68 700.25,289.71 703.19,265.75 706.13,241.77 709.08,219.91 712.03,203.31 714.97,186.71 717.92,170.11 720.86,153.52 723.80,146.04 726.76,138.56 729.70,131.09 732.64,123.62 735.59,120.89 738.53,120.08 741.48,119.27 744.43,118.45 747.37,119.43 750.31,122.81 753.27,126.17 756.21,129.55 759.15,133.32 762.10,139.51 765.04,145.69 767.98,151.87 770.94,158.06 773.88,166.13 776.82,174.53 779.77,182.92 782.72,191.31 785.66,200.97 788.61,211.58 791.55,222.20 794.49,232.81 797.45,243.97 800.39,256.48 803.33,269.00 806.28,281.52 809.22,294.04 812.17,308.78 815.12,323.50 818.06,338.24 821.00,352.97 823.96,374.91 826.90,399.72 829.84,424.53 832.79,449.34 835.73,475.24 838.67,502.58 841.63,529.94 844.57,557.29 847.51,582.29 850.46,593.13 853.41,603.97 856.35,614.81 859.30,625.65 862.24,627.36 865.18,627.55 868.14,627.74 871.08,627.93 874.02,628.00 876.97,627.98 879.91,627.96 882.85,627.94 885.81,627.92 888.75,627.88 891.69,627.84 894.65,627.80 897.59,627.77 900.53,627.72 903.48,627.66 906.42,627.61 909.36,627.56 912.32,627.50 915.26,627.42 918.20,627.35 921.15,627.27 924.09,626.93 927.04,626.24 929.99,625.55 932.93,624.86 935.87,621.68 938.83,603.58 941.77,585.47 944.71,567.37 947.66,549.25 950.60,524.34 953.54,498.29 956.50,472.24 959.44,446.19 962.38,427.42 965.33,414.11 968.28,400.80 971.22,387.49 974.17,376.81 977.11,372.68 980.05,368.55 983.01,364.42 985.95,360.29 988.89,364.30 991.84,368.30 994.78,372.31 997.73,376.30 1000.68,383.05 1003.62,390.89 1006.56,398.73 1009.52,406.57 1012.46,415.11 1015.40,424.55 1018.35,434.00 1021.29,443.46 1024.23,453.19 1027.19,464.67 1030.13,476.15 1033.07,487.63 1036.02,499.11 1038.97,512.67 1041.91,526.57 1044.86,540.47 1047.80,554.37 1050.74,569.20 1053.70,584.73 1056.64,600.27 1059.58,615.79 1062.53,629.19 1065.47,637.28 1068.42,645.37 1071.37,653.46 1074.31,661.55" fill="none" stroke="#000000" stroke-width="3"/>
<line x1="142" y1="100" x2="178" y2="100" stroke="#000000" stroke-width="4"/>
<text x="188" y="105" font-family="Arial" font-size="18" fill="black">nut</text>
</svg>