<svg xmlns="http://www.w3.org/2000/svg" width="1200" height="820" viewBox="0 0 1200 820">
<rect width="100%" height="100%" fill="white"/>
<text x="600.0" y="36" text-anchor="middle" font-family="Arial" font-size="24" fill="black">profile_diagonal_supply_return: p</text>
<line x1="120.00" y1="75" x2="120.00" y2="705" stroke="#dddddd" stroke-width="1"/>
<text x="120.00" y="737" text-anchor="middle" font-family="Arial" font-size="16" fill="black">-0.729</text>
<line x1="376.25" y1="75" x2="376.25" y2="705" stroke="#dddddd" stroke-width="1"/>
<text x="376.25" y="737" text-anchor="middle" font-family="Arial" font-size="16" fill="black">1.913</text>
<line x1="632.50" y1="75" x2="632.50" y2="705" stroke="#dddddd" stroke-width="1"/>
<text x="632.50" y="737" text-anchor="middle" font-family="Arial" font-size="16" fill="black">4.555</text>
<line x1="888.75" y1="75" x2="888.75" y2="705" stroke="#dddddd" stroke-width="1"/>
<text x="888.75" y="737" text-anchor="middle" font-family="Arial" font-size="16" fill="black">7.197</text>
<line x1="1145.00" y1="75" x2="1145.00" y2="705" stroke="#dddddd" stroke-width="1"/>
<text x="1145.00" y="737" text-anchor="middle" font-family="Arial" font-size="16" fill="black">9.839</text>
<line x1="120" y1="705.00" x2="1145" y2="705.00" stroke="#dddddd" stroke-width="1"/>
<text x="104" y="710.00" text-anchor="end" font-family="Arial" font-size="16" fill="black">-36.28</text>
<line x1="120" y1="547.50" x2="1145" y2="547.50" stroke="#dddddd" stroke-width="1"/>
<text x="104" y="552.50" text-anchor="end" font-family="Arial" font-size="16" fill="black">-26.53</text>
<line x1="120" y1="390.00" x2="1145" y2="390.00" stroke="#dddddd" stroke-width="1"/>
<text x="104" y="395.00" text-anchor="end" font-family="Arial" font-size="16" fill="black">-16.78</text>
<line x1="120" y1="232.50" x2="1145" y2="232.50" stroke="#dddddd" stroke-width="1"/>
<text x="104" y="237.50" text-anchor="end" font-family="Arial" font-size="16" fill="black">-7.036</text>
<line x1="120" y1="75.00" x2="1145" y2="75.00" stroke="#dddddd" stroke-width="1"/>
<text x="104" y="80.00" text-anchor="end" font-family="Arial" font-size="16" fill="black">2.712</text>
<rect x="120" y="75" width="1025" height="630" fill="none" stroke="black" stroke-width="2"/>
<text x="632.5" y="785" text-anchor="middle" font-family="Arial" font-size="20" fill="black">distance along sample line [m]</text>
<text x="34" y="390.0" transform="rotate(-90 34 390.0)" text-anchor="middle" font-family="Arial" font-size="20" fill="black">p [Pa]</text>
<polyline points="190.69,118.45 193.64,119.44 196.58,120.43 199.53,121.42 202.47,122.41 205.42,123.40 208.36,124.40 211.31,125.44 214.25,126.48 217.20,127.52 220.14,128.56 223.09,130.56 226.03,132.55 228.98,134.53 231.93,136.51 234.87,138.49 237.82,140.46 240.76,142.43 243.71,144.40 246.65,146.35 249.60,148.30 252.54,150.25 255.49,152.20 258.43,154.15 261.38,156.10 264.32,158.03 267.27,159.95 270.22,161.88 273.16,163.80 276.11,165.72 279.05,167.64 282.00,169.55 284.94,171.45 287.88,173.35 290.83,175.25 293.78,177.16 296.73,179.06 299.67,180.95 302.62,182.84 305.57,184.73 308.50,186.62 311.45,188.51 314.40,190.39 317.34,192.28 320.29,194.16 323.24,196.04 326.18,197.92 329.12,199.81 332.07,201.69 335.01,203.57 337.96,205.46 340.91,207.34 343.85,209.22 346.80,211.10 349.74,212.99 352.68,214.87 355.63,216.76 358.58,218.64 361.53,220.53 364.47,222.42 367.42,224.32 370.36,226.21 373.30,228.10 376.25,229.99 379.20,231.89 382.14,233.78 385.09,235.68 388.04,237.57 390.97,239.46 393.92,241.35 396.87,243.24 399.81,245.12 402.76,247.01 405.71,248.88 408.65,250.75 411.59,252.62 414.54,254.50 417.48,256.37 420.43,258.24 423.38,260.10 426.32,261.96 429.27,263.82 432.21,265.67 435.16,267.53 438.10,269.39 441.05,271.25 444.00,273.10 446.94,274.96 449.89,276.82 452.84,278.68 455.77,280.55 458.72,282.40 461.67,284.26 464.61,286.14 467.56,287.99 470.51,289.85 473.45,291.73 476.39,293.58 479.34,295.46 482.28,297.33 485.23,299.21 488.18,301.06 491.12,302.94 494.07,304.81 497.01,306.67 499.96,308.54 502.90,310.42 505.85,312.29 508.80,314.15 511.74,316.03 514.69,317.90 517.63,319.77 520.57,321.63 523.52,323.51 526.47,325.36 529.41,327.24 532.36,329.10 535.31,330.95 538.24,332.81 541.19,334.69 544.14,336.54 547.08,338.39 550.03,340.24 552.98,342.09 555.92,343.94 558.86,345.79 561.81,347.63 564.76,349.47 567.70,351.31 570.65,353.14 573.60,354.98 576.54,356.82 579.49,358.65 582.43,360.50 585.37,362.35 588.32,364.20 591.27,366.06 594.21,367.90 597.16,369.78 600.11,371.67 603.04,373.56 605.99,375.45 608.94,377.34 611.88,379.23 614.83,381.10 617.78,383.01 620.72,384.90 623.66,386.79 626.61,388.68 629.55,390.56 632.50,392.45 635.45,394.34 638.40,396.23 641.34,398.12 644.28,400.01 647.23,401.90 650.17,403.79 653.12,405.69 656.07,407.59 659.01,409.49 661.96,411.41 664.90,413.32 667.84,415.23 670.79,417.15 673.74,419.07 676.68,420.98 679.63,422.90 682.58,424.81 685.51,426.70 688.46,428.59 691.41,430.48 694.35,432.35 697.30,434.23 700.25,436.09 703.20,437.96 706.14,439.82 709.08,441.69 712.03,443.55 714.97,445.41 717.92,447.28 720.87,449.14 723.81,451.00 726.76,452.86 729.70,454.71 732.64,456.57 735.59,458.45 738.54,460.30 741.48,462.16 744.43,464.02 747.38,465.89 750.31,467.75 753.26,469.61 756.21,471.47 759.15,473.33 762.10,475.18 765.05,477.04 767.99,478.90 770.93,480.77 773.88,482.63 776.83,484.49 779.77,486.37 782.72,488.22 785.67,490.08 788.61,491.96 791.55,493.81 794.50,495.69 797.44,497.55 800.39,499.42 803.34,501.28 806.28,503.15 809.23,505.03 812.17,506.88 815.11,508.74 818.06,510.60 821.01,512.47 823.95,514.33 826.90,516.19 829.85,518.05 832.79,519.91 835.73,521.75 838.68,523.61 841.63,525.45 844.57,527.31 847.52,529.15 850.47,530.99 853.41,532.83 856.35,534.67 859.30,536.52 862.24,538.36 865.19,540.18 868.14,542.02 871.08,543.87 874.03,545.71 876.97,547.55 879.91,549.39 882.86,551.23 885.81,553.08 888.75,554.92 891.70,556.76 894.65,558.62 897.58,560.48 900.53,562.32 903.48,564.18 906.43,566.03 909.37,567.89 912.32,569.75 915.27,571.61 918.20,573.47 921.15,575.34 924.10,577.21 927.04,579.07 929.99,580.95 932.94,582.80 935.88,584.68 938.82,586.55 941.77,588.44 944.71,590.32 947.66,592.19 950.61,594.08 953.55,595.96 956.50,597.85 959.44,599.74 962.38,601.63 965.33,603.52 968.28,605.41 971.22,607.30 974.17,609.19 977.12,611.08 980.06,612.97 983.00,614.86 985.95,616.75 988.90,618.62 991.84,620.50 994.79,622.37 997.74,624.25 1000.68,626.07 1003.62,627.90 1006.57,629.67 1009.51,631.45 1012.46,633.23 1015.41,634.99 1018.35,636.74 1021.30,638.48 1024.24,640.19 1027.18,641.97 1030.13,643.75 1033.08,645.51 1036.02,647.27 1038.97,649.06 1041.92,650.84 1044.86,652.63 1047.80,653.49 1050.75,654.35 1053.70,655.23 1056.64,656.11 1059.59,657.00 1062.54,657.90 1065.47,658.81 1068.42,659.73 1071.37,660.63 1074.31,661.55" fill="none" stroke="#000000" stroke-width="3"/>
<line x1="142" y1="100" x2="178" y2="100" stroke="#000000" stroke-width="4"/>
<text x="188" y="105" font-family="Arial" font-size="18" fill="black">p</text>
</svg>