<svg xmlns="http://www.w3.org/2000/svg" width="1200" height="820" viewBox="0 0 1200 820">
<rect width="100%" height="100%" fill="white"/>
<text x="600.0" y="36" text-anchor="middle" font-family="Arial" font-size="24" fill="black">profile_center_z: U:2</text>
<line x1="120.00" y1="75" x2="120.00" y2="705" stroke="#dddddd" stroke-width="1"/>
<text x="120.00" y="737" text-anchor="middle" font-family="Arial" font-size="16" fill="black">-0.240</text>
<line x1="376.25" y1="75" x2="376.25" y2="705" stroke="#dddddd" stroke-width="1"/>
<text x="376.25" y="737" text-anchor="middle" font-family="Arial" font-size="16" fill="black">0.630</text>
<line x1="632.50" y1="75" x2="632.50" y2="705" stroke="#dddddd" stroke-width="1"/>
<text x="632.50" y="737" text-anchor="middle" font-family="Arial" font-size="16" fill="black">1.500</text>
<line x1="888.75" y1="75" x2="888.75" y2="705" stroke="#dddddd" stroke-width="1"/>
<text x="888.75" y="737" text-anchor="middle" font-family="Arial" font-size="16" fill="black">2.370</text>
<line x1="1145.00" y1="75" x2="1145.00" y2="705" stroke="#dddddd" stroke-width="1"/>
<text x="1145.00" y="737" text-anchor="middle" font-family="Arial" font-size="16" fill="black">3.240</text>
<line x1="120" y1="705.00" x2="1145" y2="705.00" stroke="#dddddd" stroke-width="1"/>
<text x="104" y="710.00" text-anchor="end" font-family="Arial" font-size="16" fill="black">-0.411</text>
<line x1="120" y1="547.50" x2="1145" y2="547.50" stroke="#dddddd" stroke-width="1"/>
<text x="104" y="552.50" text-anchor="end" font-family="Arial" font-size="16" fill="black">-0.033</text>
<line x1="120" y1="390.00" x2="1145" y2="390.00" stroke="#dddddd" stroke-width="1"/>
<text x="104" y="395.00" text-anchor="end" font-family="Arial" font-size="16" fill="black">0.344</text>
<line x1="120" y1="232.50" x2="1145" y2="232.50" stroke="#dddddd" stroke-width="1"/>
<text x="104" y="237.50" text-anchor="end" font-family="Arial" font-size="16" fill="black">0.721</text>
<line x1="120" y1="75.00" x2="1145" y2="75.00" stroke="#dddddd" stroke-width="1"/>
<text x="104" y="80.00" text-anchor="end" font-family="Arial" font-size="16" fill="black">1.099</text>
<rect x="120" y="75" width="1025" height="630" fill="none" stroke="black" stroke-width="2"/>
<text x="632.5" y="785" text-anchor="middle" font-family="Arial" font-size="20" fill="black">z coordinate [m]</text>
<text x="34" y="390.0" transform="rotate(-90 34 390.0)" text-anchor="middle" font-family="Arial" font-size="20" fill="black">U:2 [SI]</text>
<polyline points="190.69,118.45 193.64,118.82 196.58,119.18 199.53,119.55 202.47,119.92 205.42,120.28 208.36,120.66 211.31,121.02 214.25,121.39 217.20,121.76 220.14,122.13 223.09,123.05 226.03,123.97 228.98,124.90 231.93,125.83 234.87,126.75 237.82,127.68 240.76,128.60 243.71,129.53 246.65,130.45 249.60,131.38 252.54,132.57 255.49,133.77 258.43,134.97 261.38,136.16 264.32,137.36 267.27,138.55 270.22,139.74 273.16,140.94 276.11,142.14 279.05,143.33 282.00,144.65 284.94,145.98 287.89,147.30 290.83,148.62 293.78,149.94 296.72,151.26 299.67,152.58 302.61,153.91 305.56,155.23 308.51,156.55 311.45,157.97 314.40,159.38 317.34,160.80 320.29,162.21 323.23,163.63 326.18,165.04 329.12,166.46 332.07,167.88 335.01,169.29 337.96,170.71 340.91,172.25 343.85,173.78 346.80,175.31 349.74,176.84 352.69,178.37 355.63,179.91 358.58,181.44 361.52,182.97 364.47,184.50 367.41,186.04 370.36,187.74 373.30,189.44 376.25,191.14 379.20,192.84 382.14,194.54 385.09,196.24 388.03,197.94 390.98,199.64 393.92,201.34 396.87,203.04 399.81,204.98 402.76,206.93 405.70,208.87 408.65,210.82 411.59,212.76 414.54,214.71 417.49,216.65 420.43,218.60 423.38,220.54 426.32,222.49 429.27,224.76 432.21,227.03 435.16,229.30 438.10,231.56 441.05,233.84 443.99,236.11 446.94,238.38 449.89,240.65 452.83,242.91 455.78,245.18 458.72,247.84 461.67,250.49 464.61,253.14 467.56,255.79 470.50,258.44 473.45,261.09 476.39,263.74 479.34,266.39 482.28,269.05 485.23,271.70 488.18,274.75 491.12,277.80 494.07,280.85 497.01,283.90 499.96,286.96 502.90,290.00 505.85,293.05 508.79,296.11 511.74,299.16 514.68,302.21 517.63,305.63 520.57,309.05 523.52,312.47 526.47,315.89 529.41,319.31 532.36,322.72 535.30,326.14 538.25,329.56 541.19,332.98 544.14,336.40 547.08,340.11 550.03,343.81 552.97,347.52 555.92,351.22 558.86,354.92 561.81,358.63 564.76,362.33 567.70,366.04 570.65,369.74 573.59,373.45 576.54,377.33 579.48,381.22 582.43,385.10 585.37,388.99 588.32,392.88 591.26,396.76 594.21,400.65 597.16,404.53 600.10,408.42 603.05,412.31 605.99,416.32 608.94,420.34 611.88,424.35 614.83,428.37 617.77,432.39 620.72,436.40 623.66,440.42 626.61,444.44 629.55,448.45 632.50,452.47 635.45,456.34 638.39,460.21 641.34,464.08 644.28,467.94 647.23,471.81 650.17,475.68 653.12,479.55 656.06,483.42 659.01,487.29 661.95,491.16 664.90,494.36 667.84,497.57 670.79,500.77 673.74,503.98 676.68,507.18 679.63,510.38 682.57,513.59 685.52,516.79 688.46,520.00 691.41,523.20 694.35,525.64 697.30,528.09 700.24,530.53 703.19,532.97 706.14,535.41 709.08,537.85 712.03,540.29 714.97,542.74 717.92,545.18 720.86,547.62 723.81,549.63 726.75,551.63 729.70,553.64 732.64,555.65 735.59,557.66 738.53,559.66 741.48,561.67 744.43,563.68 747.37,565.69 750.32,567.69 753.26,569.52 756.21,571.34 759.15,573.16 762.10,574.98 765.04,576.80 767.99,578.63 770.93,580.45 773.88,582.27 776.82,584.10 779.77,585.92 782.72,587.64 785.66,589.36 788.61,591.08 791.55,592.80 794.50,594.52 797.44,596.24 800.39,597.96 803.33,599.68 806.28,601.41 809.22,603.13 812.17,604.77 815.11,606.41 818.06,608.06 821.01,609.70 823.95,611.35 826.90,612.99 829.84,614.63 832.79,616.28 835.73,617.92 838.68,619.57 841.62,621.15 844.57,622.72 847.51,624.30 850.46,625.87 853.41,627.45 856.35,629.03 859.30,630.60 862.24,632.18 865.19,633.76 868.13,635.33 871.08,636.75 874.02,638.17 876.97,639.60 879.91,641.01 882.86,642.44 885.80,643.86 888.75,645.28 891.70,646.70 894.64,648.12 897.59,649.54 900.53,650.56 903.48,651.58 906.42,652.60 909.37,653.62 912.31,654.64 915.26,655.66 918.20,656.68 921.15,657.69 924.09,658.71 927.04,659.73 929.99,659.92 932.93,660.09 935.88,660.28 938.82,660.46 941.77,660.64 944.71,660.83 947.66,661.00 950.60,661.19 953.55,661.37 956.49,661.55 959.44,660.28 962.39,659.02 965.33,657.75 968.28,656.48 971.22,655.22 974.17,653.95 977.11,652.68 980.06,651.41 983.00,650.14 985.95,648.87 988.89,646.04 991.84,643.21 994.78,640.37 997.73,637.53 1000.68,634.70 1003.62,631.86 1006.57,629.03 1009.51,626.20 1012.46,623.36 1015.40,620.52 1018.35,616.48 1021.29,612.44 1024.24,608.40 1027.18,604.35 1030.13,600.31 1033.07,596.27 1036.02,592.23 1038.97,588.18 1041.91,584.14 1044.86,580.10 1047.80,577.81 1050.75,575.52 1053.69,573.23 1056.64,570.94 1059.58,568.65 1062.53,566.36 1065.47,564.07 1068.42,561.78 1071.36,559.49 1074.31,557.21" fill="none" stroke="#000000" stroke-width="3"/>
<line x1="142" y1="100" x2="178" y2="100" stroke="#000000" stroke-width="4"/>
<text x="188" y="105" font-family="Arial" font-size="18" fill="black">U:2</text>
</svg>