<svg xmlns="http://www.w3.org/2000/svg" width="1200" height="820" viewBox="0 0 1200 820">
<rect width="100%" height="100%" fill="white"/>
<text x="600.0" y="36" text-anchor="middle" font-family="Arial" font-size="24" fill="black">profile_near_floor_x: U:1</text>
<line x1="120.00" y1="75" x2="120.00" y2="705" stroke="#dddddd" stroke-width="1"/>
<text x="120.00" y="737" text-anchor="middle" font-family="Arial" font-size="16" fill="black">-0.560</text>
<line x1="376.25" y1="75" x2="376.25" y2="705" stroke="#dddddd" stroke-width="1"/>
<text x="376.25" y="737" text-anchor="middle" font-family="Arial" font-size="16" fill="black">1.470</text>
<line x1="632.50" y1="75" x2="632.50" y2="705" stroke="#dddddd" stroke-width="1"/>
<text x="632.50" y="737" text-anchor="middle" font-family="Arial" font-size="16" fill="black">3.500</text>
<line x1="888.75" y1="75" x2="888.75" y2="705" stroke="#dddddd" stroke-width="1"/>
<text x="888.75" y="737" text-anchor="middle" font-family="Arial" font-size="16" fill="black">5.530</text>
<line x1="1145.00" y1="75" x2="1145.00" y2="705" stroke="#dddddd" stroke-width="1"/>
<text x="1145.00" y="737" text-anchor="middle" font-family="Arial" font-size="16" fill="black">7.560</text>
<line x1="120" y1="705.00" x2="1145" y2="705.00" stroke="#dddddd" stroke-width="1"/>
<text x="104" y="710.00" text-anchor="end" font-family="Arial" font-size="16" fill="black">-0.080</text>
<line x1="120" y1="547.50" x2="1145" y2="547.50" stroke="#dddddd" stroke-width="1"/>
<text x="104" y="552.50" text-anchor="end" font-family="Arial" font-size="16" fill="black">-0.003</text>
<line x1="120" y1="390.00" x2="1145" y2="390.00" stroke="#dddddd" stroke-width="1"/>
<text x="104" y="395.00" text-anchor="end" font-family="Arial" font-size="16" fill="black">0.073</text>
<line x1="120" y1="232.50" x2="1145" y2="232.50" stroke="#dddddd" stroke-width="1"/>
<text x="104" y="237.50" text-anchor="end" font-family="Arial" font-size="16" fill="black">0.149</text>
<line x1="120" y1="75.00" x2="1145" y2="75.00" stroke="#dddddd" stroke-width="1"/>
<text x="104" y="80.00" text-anchor="end" font-family="Arial" font-size="16" fill="black">0.226</text>
<rect x="120" y="75" width="1025" height="630" fill="none" stroke="black" stroke-width="2"/>
<text x="632.5" y="785" text-anchor="middle" font-family="Arial" font-size="20" fill="black">x coordinate [m]</text>
<text x="34" y="390.0" transform="rotate(-90 34 390.0)" text-anchor="middle" font-family="Arial" font-size="20" fill="black">U:1 [SI]</text>
<polyline points="190.69,169.61 193.64,163.98 196.58,158.33 199.53,152.70 202.47,147.06 205.42,140.94 208.36,134.63 211.31,128.32 214.25,122.01 217.20,118.45 220.14,118.53 223.09,118.61 226.03,118.72 228.98,119.09 231.93,121.15 234.87,123.21 237.82,125.27 240.76,127.33 243.71,129.93 246.65,132.61 249.60,135.31 252.54,137.99 255.49,140.67 258.43,143.37 261.38,146.05 264.32,148.73 267.27,151.28 270.22,153.51 273.16,155.73 276.11,157.96 279.05,160.19 282.00,162.06 284.94,163.96 287.89,165.85 290.83,167.75 293.78,171.19 296.72,175.25 299.67,179.31 302.62,183.35 305.56,200.52 308.51,235.15 311.45,269.78 314.40,304.41 317.34,338.91 320.29,372.72 323.23,406.53 326.17,440.33 329.13,474.14 332.07,482.38 335.01,486.35 337.96,490.32 340.91,494.29 343.85,498.16 346.80,501.94 349.74,505.72 352.68,509.50 355.64,513.39 358.58,517.55 361.52,521.71 364.47,525.87 367.41,530.03 370.35,533.82 373.31,537.60 376.25,541.38 379.19,545.17 382.15,548.34 385.09,551.28 388.03,554.21 390.98,557.15 393.92,559.97 396.86,562.66 399.82,565.34 402.76,568.03 405.70,572.83 408.65,590.36 411.59,607.88 414.54,625.41 417.49,642.94 420.43,649.02 423.37,653.20 426.33,657.37 429.27,661.55 432.21,644.96 435.16,612.79 438.10,580.62 441.04,548.45 444.00,516.00 446.94,482.85 449.88,449.71 452.83,416.56 455.78,383.42 458.72,364.63 461.67,345.85 464.61,327.06 467.55,308.28 470.51,296.90 473.45,288.49 476.39,280.08 479.34,271.67 482.28,265.68 485.23,262.89 488.18,260.13 491.12,257.35 494.06,255.10 497.02,256.09 499.96,257.06 502.90,258.05 505.85,259.02 508.79,262.13 511.73,265.59 514.69,269.06 517.63,272.52 520.57,276.62 523.52,281.18 526.47,285.75 529.41,290.33 532.36,294.74 535.30,298.70 538.24,302.65 541.20,306.61 544.14,310.57 547.08,313.29 550.03,316.01 552.97,318.73 555.92,321.45 558.87,324.03 561.81,326.52 564.75,329.02 567.71,331.53 570.65,342.72 573.59,365.50 576.54,388.28 579.48,411.06 582.42,433.82 585.38,456.45 588.32,479.09 591.26,501.72 594.21,524.35 597.16,529.13 600.10,530.94 603.05,532.74 605.99,534.54 608.93,535.91 611.89,536.96 614.83,538.01 617.77,539.06 620.72,540.05 623.66,540.90 626.60,541.75 629.56,542.60 632.50,543.45 635.44,543.99 638.40,544.53 641.34,545.07 644.28,545.61 647.23,545.33 650.17,544.71 653.11,544.09 656.07,543.47 659.01,542.03 661.95,539.50 664.90,536.96 667.84,534.43 670.79,531.04 673.74,522.50 676.68,513.97 679.62,505.44 682.58,496.90 685.52,489.53 688.46,482.35 691.41,475.17 694.35,467.99 697.29,463.21 700.25,460.24 703.19,457.26 706.13,454.29 709.08,450.70 712.03,445.56 714.97,440.42 717.92,435.28 720.86,430.15 723.80,424.79 726.76,419.43 729.70,414.08 732.64,408.72 735.59,402.89 738.53,396.88 741.48,390.86 744.43,384.85 747.37,378.45 750.31,371.54 753.27,364.63 756.21,357.72 759.15,350.70 762.10,343.03 765.04,335.36 767.98,327.70 770.94,320.01 773.88,312.01 776.82,303.93 779.77,295.85 782.72,287.79 785.66,279.92 788.61,272.23 791.55,264.54 794.49,256.86 797.45,249.70 800.39,243.89 803.33,238.10 806.28,232.29 809.22,226.47 812.17,224.74 815.12,222.99 818.06,221.26 821.00,219.51 823.96,223.07 826.90,228.78 829.84,234.47 832.79,240.16 835.73,258.46 838.67,293.56 841.63,328.67 844.57,363.78 847.51,398.29 850.46,429.18 853.41,460.08 856.35,490.98 859.30,521.87 862.24,527.66 865.18,529.26 868.14,530.86 871.08,532.46 874.02,533.53 876.97,534.21 879.91,534.88 882.85,535.56 885.81,535.99 888.75,535.79 891.69,535.60 894.65,535.40 897.59,535.20 900.53,534.25 903.48,533.30 906.42,532.34 909.36,531.39 912.32,530.12 915.26,528.72 918.20,527.32 921.15,525.92 924.09,524.54 927.04,523.20 929.99,521.87 932.93,520.53 935.87,517.03 938.83,500.53 941.77,484.03 944.71,467.53 947.66,451.04 950.60,433.52 953.54,415.83 956.50,398.14 959.44,380.45 962.38,371.16 965.33,368.16 968.28,365.17 971.22,362.17 974.17,359.38 977.11,357.10 980.05,354.81 983.01,352.53 985.95,350.25 988.89,347.84 991.84,345.44 994.78,343.03 997.73,340.62 1000.68,337.77 1003.62,334.73 1006.56,331.70 1009.52,328.67 1012.46,325.22 1015.40,321.27 1018.35,317.29 1021.29,313.33 1024.23,309.27 1027.19,304.55 1030.13,299.83 1033.07,295.11 1036.02,290.39 1038.97,286.78 1041.91,283.36 1044.86,279.96 1047.80,276.54 1050.74,275.90 1053.70,277.32 1056.64,278.74 1059.58,280.17 1062.53,281.88 1065.47,284.25 1068.42,286.64 1071.37,289.03 1074.31,291.40" fill="none" stroke="#000000" stroke-width="3"/>
<line x1="142" y1="100" x2="178" y2="100" stroke="#000000" stroke-width="4"/>
<text x="188" y="105" font-family="Arial" font-size="18" fill="black">U:1</text>
</svg>