<svg xmlns="http://www.w3.org/2000/svg" width="1200" height="820" viewBox="0 0 1200 820">
<rect width="100%" height="100%" fill="white"/>
<text x="600.0" y="36" text-anchor="middle" font-family="Arial" font-size="24" fill="black">profile_center_x: Q</text>
<line x1="120.00" y1="75" x2="120.00" y2="705" stroke="#dddddd" stroke-width="1"/>
<text x="120.00" y="737" text-anchor="middle" font-family="Arial" font-size="16" fill="black">-0.560</text>
<line x1="376.25" y1="75" x2="376.25" y2="705" stroke="#dddddd" stroke-width="1"/>
<text x="376.25" y="737" text-anchor="middle" font-family="Arial" font-size="16" fill="black">1.470</text>
<line x1="632.50" y1="75" x2="632.50" y2="705" stroke="#dddddd" stroke-width="1"/>
<text x="632.50" y="737" text-anchor="middle" font-family="Arial" font-size="16" fill="black">3.500</text>
<line x1="888.75" y1="75" x2="888.75" y2="705" stroke="#dddddd" stroke-width="1"/>
<text x="888.75" y="737" text-anchor="middle" font-family="Arial" font-size="16" fill="black">5.530</text>
<line x1="1145.00" y1="75" x2="1145.00" y2="705" stroke="#dddddd" stroke-width="1"/>
<text x="1145.00" y="737" text-anchor="middle" font-family="Arial" font-size="16" fill="black">7.560</text>
<line x1="120" y1="705.00" x2="1145" y2="705.00" stroke="#dddddd" stroke-width="1"/>
<text x="104" y="710.00" text-anchor="end" font-family="Arial" font-size="16" fill="black">-0.991</text>
<line x1="120" y1="547.50" x2="1145" y2="547.50" stroke="#dddddd" stroke-width="1"/>
<text x="104" y="552.50" text-anchor="end" font-family="Arial" font-size="16" fill="black">-0.566</text>
<line x1="120" y1="390.00" x2="1145" y2="390.00" stroke="#dddddd" stroke-width="1"/>
<text x="104" y="395.00" text-anchor="end" font-family="Arial" font-size="16" fill="black">-0.141</text>
<line x1="120" y1="232.50" x2="1145" y2="232.50" stroke="#dddddd" stroke-width="1"/>
<text x="104" y="237.50" text-anchor="end" font-family="Arial" font-size="16" fill="black">0.284</text>
<line x1="120" y1="75.00" x2="1145" y2="75.00" stroke="#dddddd" stroke-width="1"/>
<text x="104" y="80.00" text-anchor="end" font-family="Arial" font-size="16" fill="black">0.709</text>
<rect x="120" y="75" width="1025" height="630" fill="none" stroke="black" stroke-width="2"/>
<text x="632.5" y="785" text-anchor="middle" font-family="Arial" font-size="20" fill="black">x coordinate [m]</text>
<text x="34" y="390.0" transform="rotate(-90 34 390.0)" text-anchor="middle" font-family="Arial" font-size="20" fill="black">Q [SI]</text>
<polyline points="190.69,348.04 193.64,346.76 196.58,345.49 199.53,344.21 202.47,342.94 205.42,340.77 208.36,338.24 211.31,335.71 214.25,333.18 217.20,330.86 220.14,328.81 223.09,326.76 226.03,324.71 228.98,322.79 231.93,321.63 234.87,320.47 237.82,319.31 240.76,318.15 243.71,317.81 246.65,317.62 249.60,317.42 252.54,317.23 255.49,317.71 258.43,318.69 261.38,319.67 264.32,320.65 267.27,321.99 270.22,324.22 273.16,326.45 276.11,328.68 279.05,330.90 282.00,334.01 284.94,337.12 287.89,340.23 290.83,343.34 293.78,346.36 296.72,349.34 299.67,352.32 302.62,355.30 305.56,357.46 308.51,358.55 311.45,359.63 314.40,360.71 317.34,361.02 320.29,356.68 323.23,352.33 326.17,347.99 329.13,343.64 332.07,327.36 335.01,309.10 337.96,290.83 340.91,272.56 343.85,247.12 346.80,216.30 349.74,185.49 352.68,154.67 355.64,131.71 358.58,128.39 361.52,125.08 364.47,121.76 367.41,118.45 370.35,154.00 373.31,189.54 376.25,225.09 379.19,260.64 382.15,295.20 385.09,329.37 388.03,363.54 390.98,397.71 393.92,425.11 396.86,443.50 399.82,461.88 402.76,480.26 405.70,497.09 408.65,504.62 411.59,512.16 414.54,519.69 417.49,527.22 420.43,526.02 423.37,523.35 426.33,520.69 429.27,518.02 432.21,511.42 435.16,501.86 438.10,492.30 441.04,482.75 444.00,473.06 446.94,463.06 449.88,453.05 452.83,443.05 455.78,433.05 458.72,426.05 461.67,419.05 464.61,412.06 467.55,405.06 470.51,399.19 473.45,393.78 476.39,388.36 479.34,382.94 482.28,377.92 485.23,373.43 488.18,368.94 491.12,364.45 494.06,360.26 497.02,357.87 499.96,355.49 502.90,353.10 505.85,350.71 508.79,350.47 511.73,350.57 514.69,350.68 517.63,350.79 520.57,352.32 523.52,354.90 526.47,357.49 529.41,360.07 532.36,363.38 535.30,368.51 538.24,373.63 541.20,378.76 544.14,383.88 547.08,391.45 550.03,399.02 552.97,406.58 555.92,414.15 558.87,423.12 561.81,432.65 564.75,442.17 567.71,451.71 570.65,461.22 573.59,470.72 576.54,480.23 579.48,489.73 582.42,498.54 585.38,503.14 588.32,507.74 591.26,512.34 594.21,516.94 597.16,520.03 600.10,522.85 603.05,525.68 605.99,528.51 608.93,533.67 611.89,540.60 614.83,547.52 617.77,554.44 620.72,562.04 623.66,571.30 626.60,580.56 629.56,589.82 632.50,599.08 635.44,609.74 638.40,620.40 641.34,631.06 644.28,641.72 647.23,647.99 650.17,652.51 653.11,657.03 656.07,661.55 659.01,657.78 661.95,642.95 664.90,628.11 667.84,613.28 670.79,597.00 673.74,572.00 676.68,547.00 679.62,522.00 682.58,497.00 685.52,481.05 688.46,466.61 691.41,452.16 694.35,437.71 697.29,428.36 700.25,422.82 703.19,417.28 706.13,411.73 709.08,406.43 712.03,401.72 714.97,397.01 717.92,392.29 720.86,387.58 723.80,383.65 726.76,379.72 729.70,375.79 732.64,371.86 735.59,368.59 738.53,365.60 741.48,362.60 744.43,359.60 747.37,356.99 750.31,354.90 753.27,352.80 756.21,350.71 759.15,348.75 762.10,347.62 765.04,346.48 767.98,345.34 770.94,344.21 773.88,344.54 776.82,345.13 779.77,345.71 782.72,346.30 785.66,348.52 788.61,351.99 791.55,355.45 794.49,358.91 797.45,363.36 800.39,370.31 803.33,377.26 806.28,384.21 809.22,391.16 812.17,401.13 815.12,411.09 818.06,421.05 821.00,431.02 823.96,441.77 826.90,452.83 829.84,463.89 832.79,474.95 835.73,486.03 838.67,497.14 841.63,508.25 844.57,519.36 847.51,529.91 850.46,537.10 853.41,544.29 856.35,551.48 859.30,558.67 862.24,561.21 865.18,562.98 868.14,564.74 871.08,566.50 874.02,567.44 876.97,567.76 879.91,568.07 882.85,568.39 885.81,567.95 888.75,565.65 891.69,563.35 894.65,561.05 897.59,558.75 900.53,548.15 903.48,537.54 906.42,526.94 909.36,516.34 912.32,501.09 915.26,483.98 918.20,466.87 921.15,449.76 924.09,436.69 927.04,429.02 929.99,421.35 932.93,413.68 935.87,407.38 938.83,409.32 941.77,411.27 944.71,413.21 947.66,415.15 950.60,414.50 953.54,413.42 956.50,412.34 959.44,411.25 962.38,407.33 965.33,401.28 968.28,395.23 971.22,389.18 974.17,382.59 977.11,374.67 980.05,366.75 983.01,358.83 985.95,350.91 988.89,345.72 991.84,340.52 994.78,335.33 997.73,330.13 1000.68,327.47 1003.62,325.82 1006.56,324.18 1009.52,322.53 1012.46,321.75 1015.40,322.14 1018.35,322.53 1021.29,322.92 1024.23,323.44 1027.19,324.72 1030.13,326.01 1033.07,327.29 1036.02,328.58 1038.97,330.35 1041.91,332.20 1044.86,334.04 1047.80,335.89 1050.74,337.39 1053.70,338.63 1056.64,339.87 1059.58,341.11 1062.53,342.04 1065.47,342.20 1068.42,342.36 1071.37,342.53 1074.31,342.69" fill="none" stroke="#000000" stroke-width="3"/>
<line x1="142" y1="100" x2="178" y2="100" stroke="#000000" stroke-width="4"/>
<text x="188" y="105" font-family="Arial" font-size="18" fill="black">Q</text>
</svg>