<svg xmlns="http://www.w3.org/2000/svg" width="1200" height="820" viewBox="0 0 1200 820">
<rect width="100%" height="100%" fill="white"/>
<text x="600.0" y="36" text-anchor="middle" font-family="Arial" font-size="24" fill="black">profile_center_y: U:2</text>
<line x1="120.00" y1="75" x2="120.00" y2="705" stroke="#dddddd" stroke-width="1"/>
<text x="120.00" y="737" text-anchor="middle" font-family="Arial" font-size="16" fill="black">-0.400</text>
<line x1="376.25" y1="75" x2="376.25" y2="705" stroke="#dddddd" stroke-width="1"/>
<text x="376.25" y="737" text-anchor="middle" font-family="Arial" font-size="16" fill="black">1.050</text>
<line x1="632.50" y1="75" x2="632.50" y2="705" stroke="#dddddd" stroke-width="1"/>
<text x="632.50" y="737" text-anchor="middle" font-family="Arial" font-size="16" fill="black">2.500</text>
<line x1="888.75" y1="75" x2="888.75" y2="705" stroke="#dddddd" stroke-width="1"/>
<text x="888.75" y="737" text-anchor="middle" font-family="Arial" font-size="16" fill="black">3.950</text>
<line x1="1145.00" y1="75" x2="1145.00" y2="705" stroke="#dddddd" stroke-width="1"/>
<text x="1145.00" y="737" text-anchor="middle" font-family="Arial" font-size="16" fill="black">5.400</text>
<line x1="120" y1="705.00" x2="1145" y2="705.00" stroke="#dddddd" stroke-width="1"/>
<text x="104" y="710.00" text-anchor="end" font-family="Arial" font-size="16" fill="black">-0.076</text>
<line x1="120" y1="547.50" x2="1145" y2="547.50" stroke="#dddddd" stroke-width="1"/>
<text x="104" y="552.50" text-anchor="end" font-family="Arial" font-size="16" fill="black">0.150</text>
<line x1="120" y1="390.00" x2="1145" y2="390.00" stroke="#dddddd" stroke-width="1"/>
<text x="104" y="395.00" text-anchor="end" font-family="Arial" font-size="16" fill="black">0.377</text>
<line x1="120" y1="232.50" x2="1145" y2="232.50" stroke="#dddddd" stroke-width="1"/>
<text x="104" y="237.50" text-anchor="end" font-family="Arial" font-size="16" fill="black">0.603</text>
<line x1="120" y1="75.00" x2="1145" y2="75.00" stroke="#dddddd" stroke-width="1"/>
<text x="104" y="80.00" text-anchor="end" font-family="Arial" font-size="16" fill="black">0.830</text>
<rect x="120" y="75" width="1025" height="630" fill="none" stroke="black" stroke-width="2"/>
<text x="632.5" y="785" text-anchor="middle" font-family="Arial" font-size="20" fill="black">y coordinate [m]</text>
<text x="34" y="390.0" transform="rotate(-90 34 390.0)" text-anchor="middle" font-family="Arial" font-size="20" fill="black">U:2 [SI]</text>
<polyline points="190.69,477.60 193.64,475.82 196.58,474.05 199.53,472.27 202.47,470.49 205.42,468.72 208.36,466.94 211.31,463.78 214.25,460.63 217.20,457.47 220.14,454.32 223.09,451.16 226.03,448.00 228.98,445.49 231.92,442.96 234.87,440.45 237.82,437.93 240.76,435.41 243.71,432.89 246.65,430.42 249.60,427.93 252.54,425.45 255.49,422.97 258.43,420.49 261.38,418.01 264.33,414.62 267.27,411.23 270.22,407.84 273.16,404.46 276.11,401.06 279.05,397.68 282.00,392.40 284.94,387.13 287.89,381.85 290.83,376.57 293.78,371.30 296.72,366.03 299.67,358.10 302.61,350.18 305.56,342.26 308.51,334.33 311.45,326.41 314.40,318.49 317.34,308.02 320.29,297.56 323.23,287.09 326.18,276.63 329.12,266.16 332.07,255.69 335.01,244.31 337.96,232.93 340.91,221.55 343.85,210.16 346.80,198.78 349.74,187.40 352.69,178.17 355.63,168.94 358.58,159.71 361.52,150.48 364.47,141.25 367.41,132.02 370.37,129.76 373.30,127.49 376.25,125.23 379.20,122.97 382.13,120.71 385.09,118.45 388.04,124.57 390.97,130.70 393.92,136.83 396.87,142.95 399.81,149.08 402.76,155.20 405.71,166.22 408.64,177.24 411.59,188.26 414.55,199.28 417.48,210.30 420.43,221.32 423.38,234.16 426.32,246.99 429.27,259.83 432.22,272.66 435.15,285.50 438.10,298.34 441.05,311.22 443.99,324.10 446.94,336.97 449.89,349.86 452.82,362.73 455.78,375.61 458.73,387.61 461.66,399.60 464.61,411.59 467.56,423.58 470.50,435.57 473.45,447.57 476.40,458.14 479.33,468.72 482.28,479.29 485.24,489.87 488.17,500.45 491.12,511.02 494.07,519.86 497.01,528.69 499.96,537.53 502.91,546.36 505.84,555.20 508.79,564.03 511.74,570.84 514.68,577.66 517.63,584.47 520.58,591.28 523.51,598.09 526.47,604.90 529.42,608.99 532.35,613.07 535.30,617.16 538.25,621.25 541.19,625.33 544.14,629.42 547.09,629.18 550.02,628.93 552.97,628.69 555.93,628.45 558.86,628.20 561.81,627.96 564.76,623.10 567.70,618.23 570.65,613.37 573.60,608.51 576.53,603.64 579.48,598.78 582.43,592.29 585.37,585.80 588.32,579.31 591.27,572.83 594.20,566.33 597.16,559.85 600.11,554.94 603.04,550.03 605.99,545.13 608.94,540.22 611.88,535.32 614.83,530.41 617.78,528.17 620.71,525.93 623.66,523.69 626.62,521.45 629.55,519.21 632.50,516.97 635.45,516.73 638.38,516.50 641.34,516.26 644.29,516.04 647.22,515.80 650.17,515.57 653.12,516.68 656.06,517.79 659.01,518.91 661.96,520.02 664.89,521.14 667.84,522.25 670.80,525.90 673.73,529.55 676.68,533.21 679.63,536.86 682.57,540.51 685.52,544.16 688.47,550.50 691.40,556.84 694.35,563.19 697.30,569.53 700.24,575.88 703.19,582.22 706.14,588.83 709.07,595.43 712.03,602.04 714.98,608.65 717.91,615.26 720.86,621.87 723.81,626.66 726.75,631.46 729.70,636.26 732.65,641.06 735.58,645.85 738.53,650.65 741.49,652.47 744.42,654.29 747.37,656.10 750.32,657.92 753.26,659.74 756.21,661.55 759.16,659.42 762.09,657.28 765.04,655.15 767.99,653.01 770.93,650.87 773.88,648.74 776.83,641.72 779.76,634.69 782.72,627.67 785.67,620.65 788.60,613.63 791.55,606.61 794.50,594.21 797.44,581.82 800.39,569.43 803.34,557.04 806.27,544.65 809.22,532.26 812.18,516.92 815.11,501.57 818.06,486.23 821.01,470.88 823.95,455.53 826.90,440.18 829.85,427.15 832.78,414.13 835.73,401.10 838.68,388.08 841.62,375.05 844.57,362.02 847.52,355.51 850.45,349.00 853.41,342.49 856.36,335.98 859.29,329.47 862.24,322.96 865.19,324.34 868.13,325.72 871.08,327.10 874.03,328.47 876.96,329.85 879.91,331.23 882.87,338.88 885.80,346.53 888.75,354.19 891.70,361.84 894.63,369.49 897.59,377.14 900.54,385.45 903.47,393.75 906.42,402.06 909.37,410.36 912.31,418.66 915.26,426.97 918.21,431.46 921.14,435.96 924.09,440.45 927.05,444.94 929.98,449.44 932.93,453.93 935.88,454.99 938.82,456.04 941.77,457.10 944.72,458.15 947.65,459.21 950.60,460.26 953.55,459.57 956.49,458.88 959.44,458.18 962.39,457.49 965.32,456.79 968.28,456.10 971.23,454.75 974.16,453.41 977.11,452.07 980.06,450.73 983.00,449.39 985.95,448.05 988.90,446.31 991.83,444.58 994.78,442.85 997.74,441.11 1000.67,439.38 1003.62,437.65 1006.57,435.31 1009.51,432.97 1012.46,430.64 1015.41,428.30 1018.34,425.97 1021.29,423.63 1024.24,420.36 1027.18,417.10 1030.13,413.83 1033.08,410.57 1036.01,407.30 1038.97,404.03 1041.92,399.92 1044.85,395.80 1047.80,391.69 1050.75,387.57 1053.69,383.46 1056.64,379.35 1059.59,377.14 1062.52,374.93 1065.47,372.71 1068.43,370.50 1071.36,368.30 1074.31,366.09" fill="none" stroke="#000000" stroke-width="3"/>
<line x1="142" y1="100" x2="178" y2="100" stroke="#000000" stroke-width="4"/>
<text x="188" y="105" font-family="Arial" font-size="18" fill="black">U:2</text>
</svg>