<svg xmlns="http://www.w3.org/2000/svg" width="1200" height="820" viewBox="0 0 1200 820">
<rect width="100%" height="100%" fill="white"/>
<text x="600.0" y="36" text-anchor="middle" font-family="Arial" font-size="24" fill="black">profile_center_z: U:0</text>
<line x1="120.00" y1="75" x2="120.00" y2="705" stroke="#dddddd" stroke-width="1"/>
<text x="120.00" y="737" text-anchor="middle" font-family="Arial" font-size="16" fill="black">-0.240</text>
<line x1="376.25" y1="75" x2="376.25" y2="705" stroke="#dddddd" stroke-width="1"/>
<text x="376.25" y="737" text-anchor="middle" font-family="Arial" font-size="16" fill="black">0.630</text>
<line x1="632.50" y1="75" x2="632.50" y2="705" stroke="#dddddd" stroke-width="1"/>
<text x="632.50" y="737" text-anchor="middle" font-family="Arial" font-size="16" fill="black">1.500</text>
<line x1="888.75" y1="75" x2="888.75" y2="705" stroke="#dddddd" stroke-width="1"/>
<text x="888.75" y="737" text-anchor="middle" font-family="Arial" font-size="16" fill="black">2.370</text>
<line x1="1145.00" y1="75" x2="1145.00" y2="705" stroke="#dddddd" stroke-width="1"/>
<text x="1145.00" y="737" text-anchor="middle" font-family="Arial" font-size="16" fill="black">3.240</text>
<line x1="120" y1="705.00" x2="1145" y2="705.00" stroke="#dddddd" stroke-width="1"/>
<text x="104" y="710.00" text-anchor="end" font-family="Arial" font-size="16" fill="black">-0.041</text>
<line x1="120" y1="547.50" x2="1145" y2="547.50" stroke="#dddddd" stroke-width="1"/>
<text x="104" y="552.50" text-anchor="end" font-family="Arial" font-size="16" fill="black">0.010</text>
<line x1="120" y1="390.00" x2="1145" y2="390.00" stroke="#dddddd" stroke-width="1"/>
<text x="104" y="395.00" text-anchor="end" font-family="Arial" font-size="16" fill="black">0.060</text>
<line x1="120" y1="232.50" x2="1145" y2="232.50" stroke="#dddddd" stroke-width="1"/>
<text x="104" y="237.50" text-anchor="end" font-family="Arial" font-size="16" fill="black">0.110</text>
<line x1="120" y1="75.00" x2="1145" y2="75.00" stroke="#dddddd" stroke-width="1"/>
<text x="104" y="80.00" text-anchor="end" font-family="Arial" font-size="16" fill="black">0.161</text>
<rect x="120" y="75" width="1025" height="630" fill="none" stroke="black" stroke-width="2"/>
<text x="632.5" y="785" text-anchor="middle" font-family="Arial" font-size="20" fill="black">z coordinate [m]</text>
<text x="34" y="390.0" transform="rotate(-90 34 390.0)" text-anchor="middle" font-family="Arial" font-size="20" fill="black">U:0 [SI]</text>
<polyline points="190.69,590.98 193.64,591.76 196.58,592.53 199.53,593.30 202.47,594.07 205.42,594.85 208.36,595.62 211.31,596.39 214.25,597.16 217.20,597.94 220.14,598.71 223.09,600.36 226.03,602.02 228.98,603.67 231.93,605.33 234.87,606.98 237.82,608.64 240.76,610.29 243.71,611.94 246.65,613.60 249.60,615.26 252.54,617.00 255.49,618.75 258.43,620.49 261.38,622.23 264.32,623.98 267.27,625.73 270.22,627.47 273.16,629.22 276.11,630.96 279.05,632.70 282.00,634.27 284.94,635.84 287.89,637.41 290.83,638.97 293.78,640.54 296.72,642.10 299.67,643.67 302.61,645.24 305.56,646.80 308.51,648.37 311.45,649.45 314.40,650.54 317.34,651.62 320.29,652.71 323.23,653.79 326.18,654.87 329.12,655.96 332.07,657.04 335.01,658.13 337.96,659.21 340.91,659.44 343.85,659.68 346.80,659.91 349.74,660.15 352.69,660.38 355.63,660.61 358.58,660.85 361.52,661.08 364.47,661.32 367.41,661.55 370.36,660.56 373.30,659.56 376.25,658.57 379.20,657.57 382.14,656.58 385.09,655.58 388.03,654.59 390.98,653.59 393.92,652.60 396.87,651.60 399.81,649.19 402.76,646.78 405.70,644.37 408.65,641.96 411.59,639.55 414.54,637.14 417.49,634.73 420.43,632.32 423.38,629.92 426.32,627.50 429.27,623.81 432.21,620.13 435.16,616.44 438.10,612.75 441.05,609.06 443.99,605.37 446.94,601.68 449.89,597.99 452.83,594.30 455.78,590.62 458.72,586.01 461.67,581.40 464.61,576.79 467.56,572.18 470.50,567.57 473.45,562.96 476.39,558.35 479.34,553.74 482.28,549.13 485.23,544.52 488.18,539.49 491.12,534.45 494.07,529.41 497.01,524.38 499.96,519.34 502.90,514.31 505.85,509.27 508.79,504.23 511.74,499.20 514.68,494.16 517.63,489.34 520.57,484.52 523.52,479.71 526.47,474.89 529.41,470.07 532.36,465.25 535.30,460.43 538.25,455.62 541.19,450.80 544.14,445.98 547.08,442.11 550.03,438.24 552.97,434.37 555.92,430.50 558.86,426.62 561.81,422.75 564.76,418.88 567.70,415.01 570.65,411.14 573.59,407.26 576.54,404.85 579.48,402.43 582.43,400.01 585.37,397.59 588.32,395.18 591.26,392.76 594.21,390.34 597.16,387.92 600.10,385.50 603.05,383.08 605.99,381.62 608.94,380.16 611.88,378.70 614.83,377.23 617.77,375.77 620.72,374.31 623.66,372.84 626.61,371.38 629.55,369.92 632.50,368.46 635.45,364.97 638.39,361.49 641.34,358.01 644.28,354.53 647.23,351.05 650.17,347.57 653.12,344.09 656.06,340.61 659.01,337.13 661.95,333.65 664.90,325.78 667.84,317.92 670.79,310.05 673.74,302.18 676.68,294.32 679.63,286.45 682.57,278.59 685.52,270.72 688.46,262.85 691.41,254.98 694.35,246.99 697.30,238.96 700.24,230.96 703.19,222.93 706.14,214.94 709.08,206.91 712.03,198.88 714.97,190.89 717.92,182.86 720.86,174.86 723.81,170.93 726.75,166.99 729.70,163.05 732.64,159.12 735.59,155.18 738.53,151.25 741.48,147.31 744.43,143.38 747.37,139.44 750.32,135.50 753.26,134.19 756.21,132.88 759.15,131.57 762.10,130.26 765.04,128.94 767.99,127.63 770.93,126.32 773.88,125.01 776.82,123.70 779.77,122.38 782.72,121.98 785.66,121.60 788.61,121.20 791.55,120.82 794.50,120.42 797.44,120.01 800.39,119.64 803.33,119.23 806.28,118.85 809.22,118.45 812.17,118.82 815.11,119.20 818.06,119.54 821.01,119.92 823.95,120.29 826.90,120.67 829.84,121.01 832.79,121.38 835.73,121.76 838.68,122.10 841.62,123.57 844.57,125.04 847.51,126.48 850.46,127.94 853.41,129.41 856.35,130.85 859.30,132.32 862.24,133.79 865.19,135.22 868.13,136.69 871.08,139.44 874.02,142.16 876.97,144.91 879.91,147.62 882.86,150.37 885.80,153.09 888.75,155.84 891.70,158.59 894.64,161.30 897.59,164.05 900.53,167.77 903.48,171.49 906.42,175.21 909.37,178.95 912.31,182.67 915.26,186.39 918.20,190.10 921.15,193.85 924.09,197.57 927.04,201.29 929.99,205.38 932.93,209.47 935.88,213.59 938.82,217.69 941.77,221.78 944.71,225.87 947.66,229.99 950.60,234.09 953.55,238.18 956.49,242.27 959.44,246.30 962.39,250.33 965.33,254.36 968.28,258.39 971.22,262.42 974.17,266.43 977.11,270.45 980.06,274.48 983.00,278.50 985.95,282.53 988.89,287.03 991.84,291.53 994.78,296.03 997.73,300.54 1000.68,305.04 1003.62,309.54 1006.57,314.04 1009.51,318.54 1012.46,323.04 1015.40,327.55 1018.35,334.50 1021.29,341.46 1024.24,348.41 1027.18,355.37 1030.13,362.32 1033.07,369.28 1036.02,376.24 1038.97,383.19 1041.91,390.15 1044.86,397.10 1047.80,401.52 1050.75,405.94 1053.69,410.37 1056.64,414.79 1059.58,419.21 1062.53,423.63 1065.47,428.05 1068.42,432.47 1071.36,436.89 1074.31,441.31" fill="none" stroke="#000000" stroke-width="3"/>
<line x1="142" y1="100" x2="178" y2="100" stroke="#000000" stroke-width="4"/>
<text x="188" y="105" font-family="Arial" font-size="18" fill="black">U:0</text>
</svg>