<svg xmlns="http://www.w3.org/2000/svg" width="1200" height="820" viewBox="0 0 1200 820">
<rect width="100%" height="100%" fill="white"/>
<text x="600.0" y="36" text-anchor="middle" font-family="Arial" font-size="24" fill="black">profile_near_ceiling_x: epsilon</text>
<line x1="120.00" y1="75" x2="120.00" y2="705" stroke="#dddddd" stroke-width="1"/>
<text x="120.00" y="737" text-anchor="middle" font-family="Arial" font-size="16" fill="black">-0.560</text>
<line x1="376.25" y1="75" x2="376.25" y2="705" stroke="#dddddd" stroke-width="1"/>
<text x="376.25" y="737" text-anchor="middle" font-family="Arial" font-size="16" fill="black">1.470</text>
<line x1="632.50" y1="75" x2="632.50" y2="705" stroke="#dddddd" stroke-width="1"/>
<text x="632.50" y="737" text-anchor="middle" font-family="Arial" font-size="16" fill="black">3.500</text>
<line x1="888.75" y1="75" x2="888.75" y2="705" stroke="#dddddd" stroke-width="1"/>
<text x="888.75" y="737" text-anchor="middle" font-family="Arial" font-size="16" fill="black">5.530</text>
<line x1="1145.00" y1="75" x2="1145.00" y2="705" stroke="#dddddd" stroke-width="1"/>
<text x="1145.00" y="737" text-anchor="middle" font-family="Arial" font-size="16" fill="black">7.560</text>
<line x1="120" y1="705.00" x2="1145" y2="705.00" stroke="#dddddd" stroke-width="1"/>
<text x="104" y="710.00" text-anchor="end" font-family="Arial" font-size="16" fill="black">0.002</text>
<line x1="120" y1="547.50" x2="1145" y2="547.50" stroke="#dddddd" stroke-width="1"/>
<text x="104" y="552.50" text-anchor="end" font-family="Arial" font-size="16" fill="black">0.005</text>
<line x1="120" y1="390.00" x2="1145" y2="390.00" stroke="#dddddd" stroke-width="1"/>
<text x="104" y="395.00" text-anchor="end" font-family="Arial" font-size="16" fill="black">0.009</text>
<line x1="120" y1="232.50" x2="1145" y2="232.50" stroke="#dddddd" stroke-width="1"/>
<text x="104" y="237.50" text-anchor="end" font-family="Arial" font-size="16" fill="black">0.012</text>
<line x1="120" y1="75.00" x2="1145" y2="75.00" stroke="#dddddd" stroke-width="1"/>
<text x="104" y="80.00" text-anchor="end" font-family="Arial" font-size="16" fill="black">0.016</text>
<rect x="120" y="75" width="1025" height="630" fill="none" stroke="black" stroke-width="2"/>
<text x="632.5" y="785" text-anchor="middle" font-family="Arial" font-size="20" fill="black">x coordinate [m]</text>
<text x="34" y="390.0" transform="rotate(-90 34 390.0)" text-anchor="middle" font-family="Arial" font-size="20" fill="black">epsilon [m2/s3]</text>
<polyline points="190.69,619.85 193.64,621.68 196.58,623.52 199.53,625.36 202.47,627.20 205.42,628.55 208.36,629.72 211.31,630.88 214.25,632.05 217.20,632.29 220.14,631.28 223.09,630.28 226.03,629.27 228.98,628.29 231.93,627.40 234.87,626.52 237.82,625.63 240.76,624.75 243.71,623.48 246.65,622.14 249.60,620.80 252.54,619.47 255.49,617.86 258.43,616.04 261.38,614.22 264.32,612.41 267.27,610.52 270.22,608.46 273.16,606.40 276.11,604.34 279.05,602.29 282.00,600.32 284.94,598.36 287.89,596.39 290.83,594.43 293.78,592.62 296.72,590.87 299.67,589.12 302.62,587.38 305.56,585.78 308.51,584.39 311.45,583.00 314.40,581.61 317.34,580.29 320.29,579.42 323.23,578.54 326.17,577.66 329.13,576.79 332.07,576.50 335.01,576.32 337.96,576.14 340.91,575.95 343.85,576.29 346.80,577.00 349.74,577.72 352.68,578.44 355.64,579.47 358.58,581.30 361.52,583.13 364.47,584.97 367.41,586.80 370.35,589.72 373.31,592.64 376.25,595.56 379.19,598.48 382.15,601.73 385.09,605.12 388.03,608.50 390.98,611.88 393.92,615.07 396.86,617.99 399.82,620.91 402.76,623.82 405.70,626.59 408.65,628.42 411.59,630.25 414.54,632.08 417.49,633.91 420.43,634.68 423.37,635.27 426.33,635.86 429.27,636.46 432.21,636.51 435.16,636.17 438.10,635.83 441.04,635.49 444.00,635.00 446.94,634.16 449.88,633.32 452.83,632.47 455.78,631.63 458.72,630.54 461.67,629.44 464.61,628.35 467.55,627.27 470.51,626.04 473.45,624.76 476.39,623.49 479.34,622.21 482.28,620.81 485.23,619.27 488.18,617.71 491.12,616.16 494.06,614.54 497.02,612.47 499.96,610.40 502.90,608.33 505.85,606.26 508.79,603.25 511.73,600.08 514.69,596.92 517.63,593.75 520.57,589.37 523.52,584.07 526.47,578.77 529.41,573.47 532.36,567.30 535.30,558.96 538.24,550.62 541.20,542.28 544.14,533.94 547.08,522.33 550.03,510.71 552.97,499.10 555.92,487.49 558.87,473.90 561.81,459.52 564.75,445.15 567.71,430.77 570.65,415.56 573.59,399.26 576.54,382.95 579.48,366.64 582.42,350.23 585.38,333.22 588.32,316.23 591.26,299.20 594.21,282.21 597.16,266.74 600.10,251.58 603.05,236.37 605.99,221.16 608.93,208.36 611.89,197.37 614.83,186.35 617.77,175.36 620.72,165.54 623.66,158.69 626.60,151.89 629.56,145.04 632.50,138.19 635.44,134.50 638.40,130.81 641.34,127.12 644.28,123.43 647.23,121.65 650.17,120.63 653.11,119.60 656.07,118.58 659.01,118.45 661.95,119.56 664.90,120.67 667.84,121.78 670.79,123.12 673.74,125.87 676.68,128.63 679.62,131.39 682.58,134.14 685.52,137.92 688.46,141.93 691.41,145.93 694.35,149.93 697.29,154.42 700.25,159.36 703.19,164.29 706.13,169.23 709.08,174.34 712.03,179.99 714.97,185.59 717.92,191.19 720.86,196.79 723.80,202.84 726.76,208.89 729.70,214.94 732.64,220.98 735.59,227.21 738.53,233.52 741.48,239.79 744.43,246.11 747.37,252.42 750.31,258.82 753.27,265.18 756.21,271.54 759.15,277.94 762.10,284.26 765.04,290.57 767.98,296.88 770.94,303.24 773.88,309.42 776.82,315.60 779.77,321.78 782.72,327.97 785.66,334.04 788.61,340.02 791.55,345.99 794.49,351.95 797.45,357.85 800.39,363.55 803.33,369.26 806.28,374.97 809.22,380.67 812.17,386.08 815.12,391.49 818.06,396.90 821.00,402.31 823.96,407.49 826.90,412.59 829.84,417.69 832.79,422.78 835.73,427.74 838.67,432.52 841.63,437.29 844.57,442.07 847.51,446.80 850.46,451.27 853.41,455.73 856.35,460.19 859.30,464.66 862.24,468.86 865.18,473.03 868.14,477.19 871.08,481.36 874.02,485.37 876.97,489.25 879.91,493.14 882.85,497.02 885.81,500.83 888.75,504.46 891.69,508.09 894.65,511.72 897.59,515.35 900.53,518.75 903.48,522.15 906.42,525.55 909.36,528.95 912.32,532.20 915.26,535.40 918.20,538.59 921.15,541.79 924.09,544.92 927.04,547.94 929.99,550.96 932.93,553.99 935.87,556.99 938.83,559.86 941.77,562.73 944.71,565.61 947.66,568.48 950.60,571.24 953.54,573.98 956.50,576.72 959.44,579.46 962.38,582.13 965.33,584.75 968.28,587.36 971.22,589.98 974.17,592.56 977.11,595.07 980.05,597.57 983.01,600.08 985.95,602.58 988.89,604.98 991.84,607.37 994.78,609.76 997.73,612.16 1000.68,614.48 1003.62,616.77 1006.56,619.06 1009.52,621.35 1012.46,623.60 1015.40,625.79 1018.35,627.99 1021.29,630.18 1024.23,632.36 1027.19,634.48 1030.13,636.59 1033.07,638.71 1036.02,640.83 1038.97,643.40 1041.91,646.04 1044.86,648.68 1047.80,651.33 1050.74,653.53 1053.70,655.38 1056.64,657.25 1059.58,659.11 1062.53,660.51 1065.47,660.77 1068.42,661.03 1071.37,661.29 1074.31,661.55" fill="none" stroke="#000000" stroke-width="3"/>
<line x1="142" y1="100" x2="178" y2="100" stroke="#000000" stroke-width="4"/>
<text x="188" y="105" font-family="Arial" font-size="18" fill="black">epsilon</text>
</svg>