<svg xmlns="http://www.w3.org/2000/svg" width="1200" height="820" viewBox="0 0 1200 820">
<rect width="100%" height="100%" fill="white"/>
<text x="600.0" y="36" text-anchor="middle" font-family="Arial" font-size="24" fill="black">profile_diagonal_supply_return: T</text>
<line x1="120.00" y1="75" x2="120.00" y2="705" stroke="#dddddd" stroke-width="1"/>
<text x="120.00" y="737" text-anchor="middle" font-family="Arial" font-size="16" fill="black">-0.729</text>
<line x1="376.25" y1="75" x2="376.25" y2="705" stroke="#dddddd" stroke-width="1"/>
<text x="376.25" y="737" text-anchor="middle" font-family="Arial" font-size="16" fill="black">1.913</text>
<line x1="632.50" y1="75" x2="632.50" y2="705" stroke="#dddddd" stroke-width="1"/>
<text x="632.50" y="737" text-anchor="middle" font-family="Arial" font-size="16" fill="black">4.555</text>
<line x1="888.75" y1="75" x2="888.75" y2="705" stroke="#dddddd" stroke-width="1"/>
<text x="888.75" y="737" text-anchor="middle" font-family="Arial" font-size="16" fill="black">7.197</text>
<line x1="1145.00" y1="75" x2="1145.00" y2="705" stroke="#dddddd" stroke-width="1"/>
<text x="1145.00" y="737" text-anchor="middle" font-family="Arial" font-size="16" fill="black">9.839</text>
<line x1="120" y1="705.00" x2="1145" y2="705.00" stroke="#dddddd" stroke-width="1"/>
<text x="104" y="710.00" text-anchor="end" font-family="Arial" font-size="16" fill="black">289.5</text>
<line x1="120" y1="547.50" x2="1145" y2="547.50" stroke="#dddddd" stroke-width="1"/>
<text x="104" y="552.50" text-anchor="end" font-family="Arial" font-size="16" fill="black">296.7</text>
<line x1="120" y1="390.00" x2="1145" y2="390.00" stroke="#dddddd" stroke-width="1"/>
<text x="104" y="395.00" text-anchor="end" font-family="Arial" font-size="16" fill="black">303.8</text>
<line x1="120" y1="232.50" x2="1145" y2="232.50" stroke="#dddddd" stroke-width="1"/>
<text x="104" y="237.50" text-anchor="end" font-family="Arial" font-size="16" fill="black">311.0</text>
<line x1="120" y1="75.00" x2="1145" y2="75.00" stroke="#dddddd" stroke-width="1"/>
<text x="104" y="80.00" text-anchor="end" font-family="Arial" font-size="16" fill="black">318.1</text>
<rect x="120" y="75" width="1025" height="630" fill="none" stroke="black" stroke-width="2"/>
<text x="632.5" y="785" text-anchor="middle" font-family="Arial" font-size="20" fill="black">distance along sample line [m]</text>
<text x="34" y="390.0" transform="rotate(-90 34 390.0)" text-anchor="middle" font-family="Arial" font-size="20" fill="black">T [K]</text>
<polyline points="190.69,331.50 193.64,329.96 196.58,328.64 199.53,327.10 202.47,325.55 205.42,324.01 208.36,322.91 211.31,320.93 214.25,318.72 217.20,317.40 220.14,316.96 223.09,316.52 226.03,316.30 228.98,316.30 231.93,316.74 234.87,317.18 237.82,317.84 240.76,318.72 243.71,319.61 246.65,320.49 249.60,321.59 252.54,323.35 255.49,324.89 258.43,326.22 261.38,327.76 264.32,329.52 267.27,331.06 270.22,332.16 273.16,333.49 276.11,334.59 279.05,336.13 282.00,336.79 284.94,337.45 287.88,338.33 290.83,338.99 293.78,339.21 296.73,338.99 299.67,338.55 302.62,337.67 305.57,336.57 308.50,335.03 311.45,333.05 314.40,331.06 317.34,328.20 320.29,324.45 323.24,320.49 326.18,316.52 329.12,312.56 332.07,307.71 335.01,301.98 337.96,296.25 340.91,290.08 343.85,283.25 346.80,275.98 349.74,268.93 352.68,260.34 355.63,251.53 358.58,242.05 361.53,232.80 364.47,223.54 367.42,214.73 370.36,204.60 373.30,194.90 376.25,185.65 379.20,176.39 382.14,167.36 385.09,158.33 388.04,151.50 390.97,144.89 393.92,138.72 396.87,132.99 399.81,127.70 402.76,122.41 405.71,119.11 408.65,118.67 411.59,118.45 414.54,118.45 417.48,118.45 420.43,121.31 423.38,126.16 426.32,131.23 429.27,136.96 432.21,143.35 435.16,150.18 438.10,157.01 441.05,167.14 444.00,176.83 446.94,186.31 449.89,195.34 452.84,204.16 455.77,212.97 458.72,223.76 461.67,233.68 464.61,242.93 467.56,251.30 470.51,257.69 473.45,262.32 476.39,269.81 479.34,275.76 482.28,280.39 485.23,283.25 488.18,285.68 491.12,286.78 494.07,289.42 497.01,291.18 499.96,292.07 502.90,291.84 505.85,290.74 508.80,289.64 511.74,289.86 514.69,289.42 517.63,288.54 520.57,287.88 523.52,287.44 526.47,286.34 529.41,286.12 532.36,285.68 535.31,285.90 538.24,286.12 541.19,286.12 544.14,285.90 547.08,290.08 550.03,294.71 552.98,299.56 555.92,304.84 558.86,314.54 561.81,326.66 564.76,343.18 567.70,361.03 570.65,382.62 573.60,409.28 576.54,436.60 579.49,464.36 582.43,492.12 585.37,518.34 588.32,543.68 591.27,568.79 594.21,594.13 597.16,612.86 600.11,624.32 603.04,635.55 605.99,643.04 608.94,647.89 611.88,650.98 614.83,654.72 617.78,656.04 620.72,657.15 623.66,657.81 626.61,658.91 629.55,660.01 632.50,661.55 635.45,656.92 638.40,652.74 641.34,648.77 644.28,645.03 647.23,640.40 650.17,635.11 653.12,628.94 656.07,622.55 659.01,614.18 661.96,603.17 664.90,586.64 667.84,570.56 670.79,553.37 673.74,534.64 676.68,517.02 679.63,500.49 682.58,484.85 685.51,470.97 688.46,457.75 691.41,445.85 694.35,437.92 697.30,431.31 700.25,426.24 703.20,421.84 706.14,417.65 709.08,414.79 712.03,413.24 714.97,412.14 717.92,411.70 720.87,411.70 723.81,413.69 726.76,416.11 729.70,418.53 732.64,421.40 735.59,424.48 738.54,427.79 741.48,431.53 744.43,435.72 747.38,439.46 750.31,443.21 753.26,447.17 756.21,451.14 759.15,455.33 762.10,458.63 765.05,461.72 767.99,465.02 770.93,468.11 773.88,470.53 776.83,472.51 779.77,474.27 782.72,475.82 785.67,476.92 788.61,477.58 791.55,478.02 794.50,478.02 797.44,477.58 800.39,476.48 803.34,475.38 806.28,474.27 809.23,473.17 812.17,469.65 815.11,466.12 818.06,462.38 821.01,458.85 823.95,454.00 826.90,448.72 829.85,442.77 832.79,436.60 835.73,429.33 838.68,420.29 841.63,411.26 844.57,402.23 847.52,392.97 850.47,382.84 853.41,372.92 856.35,363.01 859.30,353.32 862.24,344.28 865.19,336.57 868.14,329.08 871.08,321.37 874.03,314.10 876.97,307.49 879.91,300.88 882.86,296.69 885.81,292.95 888.75,289.42 891.70,286.12 894.65,282.59 897.58,279.07 900.53,278.18 903.48,277.30 906.43,276.20 909.37,275.10 912.32,274.66 915.27,274.44 918.20,275.10 921.15,275.54 924.10,276.42 927.04,277.74 929.99,278.85 932.94,279.95 935.88,281.49 938.82,283.69 941.77,285.46 944.71,287.22 947.66,288.76 950.61,290.74 953.55,292.73 956.50,294.71 959.44,296.47 962.38,298.23 965.33,300.22 968.28,301.98 971.22,303.52 974.17,305.28 977.12,307.05 980.06,308.81 983.00,310.35 985.95,311.67 988.90,313.22 991.84,314.76 994.79,316.08 997.74,317.40 1000.68,318.72 1003.62,319.83 1006.57,320.71 1009.51,321.59 1012.46,322.25 1015.41,322.69 1018.35,323.13 1021.30,323.35 1024.24,323.35 1027.18,322.69 1030.13,322.03 1033.08,321.37 1036.02,320.49 1038.97,318.72 1041.92,316.08 1044.86,313.66 1047.80,310.79 1050.75,306.61 1053.70,301.76 1056.64,297.35 1059.59,293.39 1062.54,290.08 1065.47,288.10 1068.42,286.34 1071.37,284.57 1074.31,283.25" fill="none" stroke="#000000" stroke-width="3"/>
<line x1="142" y1="100" x2="178" y2="100" stroke="#000000" stroke-width="4"/>
<text x="188" y="105" font-family="Arial" font-size="18" fill="black">T</text>
</svg>