<svg xmlns="http://www.w3.org/2000/svg" width="1200" height="820" viewBox="0 0 1200 820">
<rect width="100%" height="100%" fill="white"/>
<text x="600.0" y="36" text-anchor="middle" font-family="Arial" font-size="24" fill="black">profile_near_ceiling_x: p_rgh</text>
<line x1="120.00" y1="75" x2="120.00" y2="705" stroke="#dddddd" stroke-width="1"/>
<text x="120.00" y="737" text-anchor="middle" font-family="Arial" font-size="16" fill="black">-0.560</text>
<line x1="376.25" y1="75" x2="376.25" y2="705" stroke="#dddddd" stroke-width="1"/>
<text x="376.25" y="737" text-anchor="middle" font-family="Arial" font-size="16" fill="black">1.470</text>
<line x1="632.50" y1="75" x2="632.50" y2="705" stroke="#dddddd" stroke-width="1"/>
<text x="632.50" y="737" text-anchor="middle" font-family="Arial" font-size="16" fill="black">3.500</text>
<line x1="888.75" y1="75" x2="888.75" y2="705" stroke="#dddddd" stroke-width="1"/>
<text x="888.75" y="737" text-anchor="middle" font-family="Arial" font-size="16" fill="black">5.530</text>
<line x1="1145.00" y1="75" x2="1145.00" y2="705" stroke="#dddddd" stroke-width="1"/>
<text x="1145.00" y="737" text-anchor="middle" font-family="Arial" font-size="16" fill="black">7.560</text>
<line x1="120" y1="705.00" x2="1145" y2="705.00" stroke="#dddddd" stroke-width="1"/>
<text x="104" y="710.00" text-anchor="end" font-family="Arial" font-size="16" fill="black">-0.216</text>
<line x1="120" y1="547.50" x2="1145" y2="547.50" stroke="#dddddd" stroke-width="1"/>
<text x="104" y="552.50" text-anchor="end" font-family="Arial" font-size="16" fill="black">-0.065</text>
<line x1="120" y1="390.00" x2="1145" y2="390.00" stroke="#dddddd" stroke-width="1"/>
<text x="104" y="395.00" text-anchor="end" font-family="Arial" font-size="16" fill="black">0.087</text>
<line x1="120" y1="232.50" x2="1145" y2="232.50" stroke="#dddddd" stroke-width="1"/>
<text x="104" y="237.50" text-anchor="end" font-family="Arial" font-size="16" fill="black">0.239</text>
<line x1="120" y1="75.00" x2="1145" y2="75.00" stroke="#dddddd" stroke-width="1"/>
<text x="104" y="80.00" text-anchor="end" font-family="Arial" font-size="16" fill="black">0.390</text>
<rect x="120" y="75" width="1025" height="630" fill="none" stroke="black" stroke-width="2"/>
<text x="632.5" y="785" text-anchor="middle" font-family="Arial" font-size="20" fill="black">x coordinate [m]</text>
<text x="34" y="390.0" transform="rotate(-90 34 390.0)" text-anchor="middle" font-family="Arial" font-size="20" fill="black">p_rgh [Pa]</text>
<polyline points="190.69,118.45 193.64,124.58 196.58,130.71 199.53,136.84 202.47,142.97 205.42,152.67 208.36,163.80 211.31,174.92 214.25,186.05 217.20,196.46 220.14,205.92 223.09,215.37 226.03,224.82 228.98,234.12 231.93,242.46 234.87,250.79 237.82,259.11 240.76,267.44 243.71,274.94 246.65,282.30 249.60,289.66 252.54,297.02 255.49,304.00 258.43,310.69 261.38,317.38 264.32,324.07 267.27,330.65 270.22,336.98 273.16,343.31 276.11,349.62 279.05,355.95 282.00,362.40 284.94,368.84 287.89,375.29 290.83,381.75 293.78,388.42 296.72,395.19 299.67,401.96 302.62,408.73 305.56,415.16 308.51,421.13 311.45,427.10 314.40,433.07 317.34,438.72 320.29,442.47 323.23,446.22 326.17,449.96 329.13,453.71 332.07,455.76 335.01,457.52 337.96,459.28 340.91,461.04 343.85,462.19 346.80,462.89 349.74,463.60 352.68,464.30 355.64,464.76 358.58,464.62 361.52,464.49 364.47,464.35 367.41,464.21 370.35,463.01 373.31,461.81 376.25,460.60 379.19,459.40 382.15,457.32 385.09,454.90 388.03,452.47 390.98,450.04 393.92,447.18 396.86,443.75 399.82,440.32 402.76,436.89 405.70,433.40 408.65,429.52 411.59,425.64 414.54,421.77 417.49,417.89 420.43,414.16 423.37,410.45 426.33,406.74 429.27,403.03 432.21,399.67 435.16,396.56 438.10,393.45 441.04,390.34 444.00,387.48 446.94,385.21 449.88,382.95 452.83,380.68 455.78,378.42 458.72,377.07 461.67,375.73 464.61,374.39 467.55,373.04 470.51,372.20 473.45,371.55 476.39,370.90 479.34,370.26 482.28,369.74 485.23,369.38 488.18,369.04 491.12,368.69 494.06,368.36 497.02,368.16 499.96,367.95 502.90,367.74 505.85,367.53 508.79,367.58 511.73,367.68 514.69,367.78 517.63,367.88 520.57,368.30 523.52,368.99 526.47,369.66 529.41,370.34 532.36,371.26 535.30,372.78 538.24,374.29 541.20,375.80 544.14,377.32 547.08,379.91 550.03,382.49 552.97,385.07 555.92,387.65 558.87,391.10 561.81,394.89 564.75,398.68 567.71,402.47 570.65,406.76 573.59,411.71 576.54,416.67 579.48,421.62 582.42,426.72 585.38,432.68 588.32,438.65 591.26,444.62 594.21,450.58 597.16,457.19 600.10,463.90 603.05,470.61 605.99,477.33 608.93,483.79 611.89,490.06 614.83,496.33 617.77,502.59 620.72,508.26 623.66,512.40 626.60,516.54 629.56,520.68 632.50,524.83 635.44,526.95 638.40,529.08 641.34,531.21 644.28,533.34 647.23,534.86 650.17,536.15 653.11,537.43 656.07,538.71 659.01,539.85 661.95,540.81 664.90,541.76 667.84,542.71 670.79,543.66 673.74,544.59 676.68,545.51 679.62,546.43 682.58,547.36 685.52,548.47 688.46,549.61 691.41,550.76 694.35,551.90 697.29,553.27 700.25,554.81 703.19,556.34 706.13,557.88 709.08,559.55 712.03,561.55 714.97,563.56 717.92,565.57 720.86,567.57 723.80,570.02 726.76,572.46 729.70,574.91 732.64,577.36 735.59,580.05 738.53,582.85 741.48,585.65 744.43,588.44 747.37,591.34 750.31,594.36 753.27,597.39 756.21,600.42 759.15,603.46 762.10,606.59 765.04,609.73 767.98,612.86 770.94,615.99 773.88,619.07 776.82,622.14 779.77,625.22 782.72,628.30 785.66,631.20 788.61,634.00 791.55,636.80 794.49,639.60 797.45,642.26 800.39,644.58 803.33,646.90 806.28,649.22 809.22,651.54 812.17,653.16 815.12,654.77 818.06,656.39 821.00,658.01 823.96,659.00 826.90,659.73 829.84,660.47 832.79,661.21 835.73,661.55 838.67,661.36 841.63,661.19 844.57,661.00 847.51,660.70 850.46,659.70 853.41,658.69 856.35,657.70 859.30,656.69 862.24,655.14 865.18,653.51 868.14,651.87 871.08,650.23 874.02,648.34 876.97,646.26 879.91,644.17 882.85,642.09 885.81,639.92 888.75,637.55 891.69,635.18 894.65,632.80 897.59,630.44 900.53,627.86 903.48,625.28 906.42,622.71 909.36,620.14 912.32,617.43 915.26,614.66 918.20,611.90 921.15,609.14 924.09,606.26 927.04,603.24 929.99,600.21 932.93,597.19 935.87,594.09 938.83,590.59 941.77,587.08 944.71,583.58 947.66,580.08 950.60,575.75 953.54,571.28 956.50,566.82 959.44,562.36 962.38,557.12 965.33,551.30 968.28,545.49 971.22,539.67 974.17,533.58 977.11,526.82 980.05,520.05 983.01,513.28 985.95,506.51 988.89,499.58 991.84,492.65 994.78,485.72 997.73,478.79 1000.68,471.91 1003.62,465.04 1006.56,458.18 1009.52,451.31 1012.46,444.40 1015.40,437.42 1018.35,430.44 1021.29,423.45 1024.23,416.43 1027.19,409.14 1030.13,401.85 1033.07,394.57 1036.02,387.28 1038.97,379.74 1041.91,372.15 1044.86,364.56 1047.80,356.98 1050.74,348.92 1053.70,340.50 1056.64,332.09 1059.58,323.68 1062.53,316.36 1065.47,311.78 1068.42,307.21 1071.37,302.64 1074.31,298.07" fill="none" stroke="#000000" stroke-width="3"/>
<line x1="142" y1="100" x2="178" y2="100" stroke="#000000" stroke-width="4"/>
<text x="188" y="105" font-family="Arial" font-size="18" fill="black">p_rgh</text>
</svg>