<svg xmlns="http://www.w3.org/2000/svg" width="1200" height="820" viewBox="0 0 1200 820">
<rect width="100%" height="100%" fill="white"/>
<text x="600.0" y="36" text-anchor="middle" font-family="Arial" font-size="24" fill="black">profile_near_ceiling_x: p</text>
<line x1="120.00" y1="75" x2="120.00" y2="705" stroke="#dddddd" stroke-width="1"/>
<text x="120.00" y="737" text-anchor="middle" font-family="Arial" font-size="16" fill="black">-0.560</text>
<line x1="376.25" y1="75" x2="376.25" y2="705" stroke="#dddddd" stroke-width="1"/>
<text x="376.25" y="737" text-anchor="middle" font-family="Arial" font-size="16" fill="black">1.470</text>
<line x1="632.50" y1="75" x2="632.50" y2="705" stroke="#dddddd" stroke-width="1"/>
<text x="632.50" y="737" text-anchor="middle" font-family="Arial" font-size="16" fill="black">3.500</text>
<line x1="888.75" y1="75" x2="888.75" y2="705" stroke="#dddddd" stroke-width="1"/>
<text x="888.75" y="737" text-anchor="middle" font-family="Arial" font-size="16" fill="black">5.530</text>
<line x1="1145.00" y1="75" x2="1145.00" y2="705" stroke="#dddddd" stroke-width="1"/>
<text x="1145.00" y="737" text-anchor="middle" font-family="Arial" font-size="16" fill="black">7.560</text>
<line x1="120" y1="705.00" x2="1145" y2="705.00" stroke="#dddddd" stroke-width="1"/>
<text x="104" y="710.00" text-anchor="end" font-family="Arial" font-size="16" fill="black">-32.42</text>
<line x1="120" y1="547.50" x2="1145" y2="547.50" stroke="#dddddd" stroke-width="1"/>
<text x="104" y="552.50" text-anchor="end" font-family="Arial" font-size="16" fill="black">-32.39</text>
<line x1="120" y1="390.00" x2="1145" y2="390.00" stroke="#dddddd" stroke-width="1"/>
<text x="104" y="395.00" text-anchor="end" font-family="Arial" font-size="16" fill="black">-32.36</text>
<line x1="120" y1="232.50" x2="1145" y2="232.50" stroke="#dddddd" stroke-width="1"/>
<text x="104" y="237.50" text-anchor="end" font-family="Arial" font-size="16" fill="black">-32.33</text>
<line x1="120" y1="75.00" x2="1145" y2="75.00" stroke="#dddddd" stroke-width="1"/>
<text x="104" y="80.00" text-anchor="end" font-family="Arial" font-size="16" fill="black">-32.30</text>
<rect x="120" y="75" width="1025" height="630" fill="none" stroke="black" stroke-width="2"/>
<text x="632.5" y="785" text-anchor="middle" font-family="Arial" font-size="20" fill="black">x coordinate [m]</text>
<text x="34" y="390.0" transform="rotate(-90 34 390.0)" text-anchor="middle" font-family="Arial" font-size="20" fill="black">p [Pa]</text>
<polyline points="190.69,387.41 193.64,397.76 196.58,408.10 199.53,418.45 202.47,428.79 205.42,444.31 208.36,465.00 211.31,485.69 214.25,501.21 217.20,516.72 220.14,532.24 223.09,547.76 226.03,563.28 228.98,573.62 231.93,583.97 234.87,599.48 237.82,609.83 240.76,620.17 243.71,625.34 246.65,635.69 249.60,640.86 252.54,646.03 255.49,651.21 258.43,656.38 261.38,656.38 264.32,661.55 267.27,661.55 270.22,661.55 273.16,661.55 276.11,661.55 279.05,661.55 282.00,656.38 284.94,656.38 287.89,651.21 290.83,651.21 293.78,646.03 296.72,640.86 299.67,635.69 302.62,630.52 305.56,625.34 308.51,620.17 311.45,615.00 314.40,604.66 317.34,599.48 320.29,594.31 323.23,589.14 326.17,583.97 329.13,573.62 332.07,568.45 335.01,563.28 337.96,558.10 340.91,552.93 343.85,547.76 346.80,542.59 349.74,537.41 352.68,532.24 355.64,527.07 358.58,521.90 361.52,516.72 364.47,511.55 367.41,506.38 370.35,496.03 373.31,490.86 376.25,485.69 379.19,480.52 382.15,475.34 385.09,470.17 388.03,465.00 390.98,459.83 393.92,449.48 396.86,444.31 399.82,439.14 402.76,433.97 405.70,428.79 408.65,418.45 411.59,413.28 414.54,408.10 417.49,402.93 420.43,397.76 423.37,392.59 426.33,387.41 429.27,382.24 432.21,377.07 435.16,371.90 438.10,366.72 441.04,366.72 444.00,361.55 446.94,356.38 449.88,351.21 452.83,346.03 455.78,346.03 458.72,340.86 461.67,335.69 464.61,330.52 467.55,325.34 470.51,320.17 473.45,315.00 476.39,309.83 479.34,304.66 482.28,299.48 485.23,294.31 488.18,289.14 491.12,278.79 494.06,273.62 497.02,268.45 499.96,263.28 502.90,252.93 505.85,247.76 508.79,237.41 511.73,232.24 514.69,221.90 517.63,216.72 520.57,206.38 523.52,201.21 526.47,190.86 529.41,185.69 532.36,180.52 535.30,170.17 538.24,165.00 541.20,154.66 544.14,149.48 547.08,144.31 550.03,139.14 552.97,133.97 555.92,128.79 558.87,123.62 561.81,123.62 564.75,118.45 567.71,118.45 570.65,118.45 573.59,118.45 576.54,118.45 579.48,118.45 582.42,118.45 585.38,123.62 588.32,128.79 591.26,133.97 594.21,139.14 597.16,144.31 600.10,154.66 603.05,159.83 605.99,170.17 608.93,175.34 611.89,185.69 614.83,196.03 617.77,206.38 620.72,211.55 623.66,221.90 626.60,227.07 629.56,237.41 632.50,242.59 635.44,252.93 638.40,258.10 641.34,263.28 644.28,268.45 647.23,273.62 650.17,283.97 653.11,289.14 656.07,294.31 659.01,299.48 661.95,304.66 664.90,315.00 667.84,320.17 670.79,325.34 673.74,330.52 676.68,340.86 679.62,346.03 682.58,351.21 685.52,361.55 688.46,366.72 691.41,371.90 694.35,382.24 697.29,387.41 700.25,392.59 703.19,402.93 706.13,408.10 709.08,413.28 712.03,423.62 714.97,428.79 717.92,433.97 720.86,444.31 723.80,449.48 726.76,454.66 729.70,465.00 732.64,470.17 735.59,475.34 738.53,485.69 741.48,490.86 744.43,496.03 747.37,501.21 750.31,511.55 753.27,516.72 756.21,521.90 759.15,527.07 762.10,532.24 765.04,537.41 767.98,542.59 770.94,552.93 773.88,558.10 776.82,563.28 779.77,563.28 782.72,568.45 785.66,573.62 788.61,578.79 791.55,583.97 794.49,589.14 797.45,594.31 800.39,594.31 803.33,599.48 806.28,604.66 809.22,609.83 812.17,609.83 815.12,615.00 818.06,615.00 821.00,620.17 823.96,625.34 826.90,625.34 829.84,630.52 832.79,630.52 835.73,635.69 838.67,635.69 841.63,635.69 844.57,640.86 847.51,640.86 850.46,640.86 853.41,646.03 856.35,646.03 859.30,646.03 862.24,651.21 865.18,651.21 868.14,651.21 871.08,651.21 874.02,651.21 876.97,656.38 879.91,656.38 882.85,656.38 885.81,656.38 888.75,656.38 891.69,656.38 894.65,656.38 897.59,656.38 900.53,656.38 903.48,656.38 906.42,656.38 909.36,656.38 912.32,656.38 915.26,656.38 918.20,656.38 921.15,656.38 924.09,656.38 927.04,651.21 929.99,651.21 932.93,651.21 935.87,651.21 938.83,646.03 941.77,646.03 944.71,640.86 947.66,640.86 950.60,635.69 953.54,635.69 956.50,630.52 959.44,625.34 962.38,620.17 965.33,615.00 968.28,609.83 971.22,604.66 974.17,599.48 977.11,594.31 980.05,589.14 983.01,578.79 985.95,573.62 988.89,563.28 991.84,552.93 994.78,547.76 997.73,537.41 1000.68,527.07 1003.62,511.55 1006.56,501.21 1009.52,490.86 1012.46,475.34 1015.40,465.00 1018.35,449.48 1021.29,433.97 1024.23,418.45 1027.19,402.93 1030.13,387.41 1033.07,366.72 1036.02,351.21 1038.97,335.69 1041.91,315.00 1044.86,299.48 1047.80,278.79 1050.74,263.28 1053.70,242.59 1056.64,221.90 1059.58,206.38 1062.53,185.69 1065.47,175.34 1068.42,165.00 1071.37,154.66 1074.31,144.31" fill="none" stroke="#000000" stroke-width="3"/>
<line x1="142" y1="100" x2="178" y2="100" stroke="#000000" stroke-width="4"/>
<text x="188" y="105" font-family="Arial" font-size="18" fill="black">p</text>
</svg>