<svg xmlns="http://www.w3.org/2000/svg" width="1200" height="820" viewBox="0 0 1200 820">
<rect width="100%" height="100%" fill="white"/>
<text x="600.0" y="36" text-anchor="middle" font-family="Arial" font-size="24" fill="black">profile_near_ceiling_x: U:0</text>
<line x1="120.00" y1="75" x2="120.00" y2="705" stroke="#dddddd" stroke-width="1"/>
<text x="120.00" y="737" text-anchor="middle" font-family="Arial" font-size="16" fill="black">-0.560</text>
<line x1="376.25" y1="75" x2="376.25" y2="705" stroke="#dddddd" stroke-width="1"/>
<text x="376.25" y="737" text-anchor="middle" font-family="Arial" font-size="16" fill="black">1.470</text>
<line x1="632.50" y1="75" x2="632.50" y2="705" stroke="#dddddd" stroke-width="1"/>
<text x="632.50" y="737" text-anchor="middle" font-family="Arial" font-size="16" fill="black">3.500</text>
<line x1="888.75" y1="75" x2="888.75" y2="705" stroke="#dddddd" stroke-width="1"/>
<text x="888.75" y="737" text-anchor="middle" font-family="Arial" font-size="16" fill="black">5.530</text>
<line x1="1145.00" y1="75" x2="1145.00" y2="705" stroke="#dddddd" stroke-width="1"/>
<text x="1145.00" y="737" text-anchor="middle" font-family="Arial" font-size="16" fill="black">7.560</text>
<line x1="120" y1="705.00" x2="1145" y2="705.00" stroke="#dddddd" stroke-width="1"/>
<text x="104" y="710.00" text-anchor="end" font-family="Arial" font-size="16" fill="black">-0.295</text>
<line x1="120" y1="547.50" x2="1145" y2="547.50" stroke="#dddddd" stroke-width="1"/>
<text x="104" y="552.50" text-anchor="end" font-family="Arial" font-size="16" fill="black">-0.099</text>
<line x1="120" y1="390.00" x2="1145" y2="390.00" stroke="#dddddd" stroke-width="1"/>
<text x="104" y="395.00" text-anchor="end" font-family="Arial" font-size="16" fill="black">0.097</text>
<line x1="120" y1="232.50" x2="1145" y2="232.50" stroke="#dddddd" stroke-width="1"/>
<text x="104" y="237.50" text-anchor="end" font-family="Arial" font-size="16" fill="black">0.292</text>
<line x1="120" y1="75.00" x2="1145" y2="75.00" stroke="#dddddd" stroke-width="1"/>
<text x="104" y="80.00" text-anchor="end" font-family="Arial" font-size="16" fill="black">0.488</text>
<rect x="120" y="75" width="1025" height="630" fill="none" stroke="black" stroke-width="2"/>
<text x="632.5" y="785" text-anchor="middle" font-family="Arial" font-size="20" fill="black">x coordinate [m]</text>
<text x="34" y="390.0" transform="rotate(-90 34 390.0)" text-anchor="middle" font-family="Arial" font-size="20" fill="black">U:0 [SI]</text>
<polyline points="190.69,517.93 193.64,522.56 196.58,527.20 199.53,531.83 202.47,536.46 205.42,544.94 208.36,554.96 211.31,564.98 214.25,575.00 217.20,584.45 220.14,593.14 223.09,601.83 226.03,610.52 228.98,618.75 231.93,624.24 234.87,629.73 237.82,635.21 240.76,640.70 243.71,644.32 246.65,647.62 249.60,650.92 252.54,654.22 255.49,656.42 258.43,657.82 261.38,659.21 264.32,660.60 267.27,661.55 270.22,661.40 273.16,661.25 276.11,661.08 279.05,660.93 282.00,659.54 284.94,658.15 287.89,656.76 290.83,655.37 293.78,653.30 296.72,650.96 299.67,648.62 302.62,646.28 305.56,643.64 308.51,640.59 311.45,637.54 314.40,634.49 317.34,631.38 320.29,627.88 323.23,624.37 326.17,620.88 329.13,617.38 332.07,613.74 335.01,610.08 337.96,606.41 340.91,602.75 343.85,599.17 346.80,595.64 349.74,592.11 352.68,588.59 355.64,585.19 358.58,582.08 361.52,578.98 364.47,575.88 367.41,572.78 370.35,570.35 373.31,567.93 376.25,565.50 379.19,563.07 382.15,561.30 385.09,559.80 388.03,558.30 390.98,556.80 393.92,555.77 396.86,555.40 399.82,555.03 402.76,554.66 405.70,554.45 408.65,555.22 411.59,555.98 414.54,556.75 417.49,557.52 420.43,559.03 423.37,560.65 426.33,562.29 429.27,563.91 432.21,565.80 435.16,567.87 438.10,569.93 441.04,572.00 444.00,574.07 446.94,576.17 449.88,578.27 452.83,580.38 455.78,582.48 458.72,584.33 461.67,586.18 464.61,588.03 467.55,589.88 470.51,591.43 473.45,592.86 476.39,594.30 479.34,595.72 482.28,596.91 485.23,597.79 488.18,598.66 491.12,599.54 494.06,600.31 497.02,600.49 499.96,600.66 502.90,600.83 505.85,601.01 508.79,600.48 511.73,599.84 514.69,599.20 517.63,598.55 520.57,597.40 523.52,595.87 526.47,594.34 529.41,592.81 532.36,590.97 535.30,588.39 538.24,585.81 541.20,583.23 544.14,580.66 547.08,576.91 550.03,573.16 552.97,569.42 555.92,565.67 558.87,561.16 561.81,556.34 564.75,551.51 567.71,546.70 570.65,541.51 573.59,535.85 576.54,530.18 579.48,524.52 582.42,518.77 585.38,512.49 588.32,506.21 591.26,499.93 594.21,493.65 597.16,487.14 600.10,480.59 603.05,474.03 605.99,467.48 608.93,461.15 611.89,455.00 614.83,448.85 617.77,442.69 620.72,436.57 623.66,430.52 626.60,424.47 629.56,418.42 632.50,412.38 635.44,405.87 638.40,399.36 641.34,392.86 644.28,386.34 647.23,379.60 650.17,372.76 653.11,365.92 656.07,359.08 659.01,352.19 661.95,345.25 664.90,338.31 667.84,331.36 670.79,324.46 673.74,317.78 676.68,311.09 679.62,304.41 682.58,297.73 685.52,291.41 688.46,285.14 691.41,278.88 694.35,272.60 697.29,266.63 700.25,260.88 703.19,255.13 706.13,249.37 709.08,243.77 712.03,238.59 714.97,233.40 717.92,228.20 720.86,223.01 723.80,218.40 726.76,213.78 729.70,209.16 732.64,204.54 735.59,200.32 738.53,196.27 741.48,192.21 744.43,188.15 747.37,184.33 750.31,180.81 753.27,177.29 756.21,173.77 759.15,170.33 762.10,167.33 765.04,164.33 767.98,161.33 770.94,158.32 773.88,155.74 776.82,153.22 779.77,150.70 782.72,148.19 785.66,145.93 788.61,143.86 791.55,141.80 794.49,139.74 797.45,137.79 800.39,136.16 803.33,134.52 806.28,132.88 809.22,131.24 812.17,129.98 815.12,128.74 818.06,127.49 821.00,126.23 823.96,125.24 826.90,124.35 829.84,123.45 832.79,122.55 835.73,121.80 838.67,121.23 841.63,120.66 844.57,120.09 847.51,119.56 850.46,119.29 853.41,119.02 856.35,118.75 859.30,118.48 862.24,118.45 865.18,118.46 868.14,118.46 871.08,118.47 874.02,118.63 876.97,118.91 879.91,119.18 882.85,119.45 885.81,119.81 888.75,120.33 891.69,120.86 894.65,121.39 897.59,121.93 900.53,122.72 903.48,123.50 906.42,124.29 909.36,125.07 912.32,126.06 915.26,127.12 918.20,128.18 921.15,129.24 924.09,130.44 927.04,131.81 929.99,133.18 932.93,134.55 935.87,135.98 938.83,137.73 941.77,139.48 944.71,141.22 947.66,142.98 950.60,145.13 953.54,147.36 956.50,149.58 959.44,151.80 962.38,154.38 965.33,157.20 968.28,160.03 971.22,162.86 974.17,165.91 977.11,169.49 980.05,173.08 983.01,176.66 985.95,180.25 988.89,184.77 991.84,189.29 994.78,193.82 997.73,198.34 1000.68,203.69 1003.62,209.37 1006.56,215.04 1009.52,220.72 1012.46,227.00 1015.40,234.11 1018.35,241.21 1021.29,248.31 1024.23,255.64 1027.19,264.42 1030.13,273.18 1033.07,281.96 1036.02,290.73 1038.97,301.64 1041.91,312.92 1044.86,324.19 1047.80,335.47 1050.74,347.05 1053.70,358.85 1056.64,370.65 1059.58,382.46 1062.53,392.42 1065.47,397.77 1068.42,403.12 1071.37,408.47 1074.31,413.83" fill="none" stroke="#000000" stroke-width="3"/>
<line x1="142" y1="100" x2="178" y2="100" stroke="#000000" stroke-width="4"/>
<text x="188" y="105" font-family="Arial" font-size="18" fill="black">U:0</text>
</svg>