<svg xmlns="http://www.w3.org/2000/svg" width="1200" height="820" viewBox="0 0 1200 820">
<rect width="100%" height="100%" fill="white"/>
<text x="600.0" y="36" text-anchor="middle" font-family="Arial" font-size="24" fill="black">profile_near_floor_x: vorticity:2</text>
<line x1="120.00" y1="75" x2="120.00" y2="705" stroke="#dddddd" stroke-width="1"/>
<text x="120.00" y="737" text-anchor="middle" font-family="Arial" font-size="16" fill="black">-0.560</text>
<line x1="376.25" y1="75" x2="376.25" y2="705" stroke="#dddddd" stroke-width="1"/>
<text x="376.25" y="737" text-anchor="middle" font-family="Arial" font-size="16" fill="black">1.470</text>
<line x1="632.50" y1="75" x2="632.50" y2="705" stroke="#dddddd" stroke-width="1"/>
<text x="632.50" y="737" text-anchor="middle" font-family="Arial" font-size="16" fill="black">3.500</text>
<line x1="888.75" y1="75" x2="888.75" y2="705" stroke="#dddddd" stroke-width="1"/>
<text x="888.75" y="737" text-anchor="middle" font-family="Arial" font-size="16" fill="black">5.530</text>
<line x1="1145.00" y1="75" x2="1145.00" y2="705" stroke="#dddddd" stroke-width="1"/>
<text x="1145.00" y="737" text-anchor="middle" font-family="Arial" font-size="16" fill="black">7.560</text>
<line x1="120" y1="705.00" x2="1145" y2="705.00" stroke="#dddddd" stroke-width="1"/>
<text x="104" y="710.00" text-anchor="end" font-family="Arial" font-size="16" fill="black">-1.553</text>
<line x1="120" y1="547.50" x2="1145" y2="547.50" stroke="#dddddd" stroke-width="1"/>
<text x="104" y="552.50" text-anchor="end" font-family="Arial" font-size="16" fill="black">-0.612</text>
<line x1="120" y1="390.00" x2="1145" y2="390.00" stroke="#dddddd" stroke-width="1"/>
<text x="104" y="395.00" text-anchor="end" font-family="Arial" font-size="16" fill="black">0.329</text>
<line x1="120" y1="232.50" x2="1145" y2="232.50" stroke="#dddddd" stroke-width="1"/>
<text x="104" y="237.50" text-anchor="end" font-family="Arial" font-size="16" fill="black">1.269</text>
<line x1="120" y1="75.00" x2="1145" y2="75.00" stroke="#dddddd" stroke-width="1"/>
<text x="104" y="80.00" text-anchor="end" font-family="Arial" font-size="16" fill="black">2.210</text>
<rect x="120" y="75" width="1025" height="630" fill="none" stroke="black" stroke-width="2"/>
<text x="632.5" y="785" text-anchor="middle" font-family="Arial" font-size="20" fill="black">x coordinate [m]</text>
<text x="34" y="390.0" transform="rotate(-90 34 390.0)" text-anchor="middle" font-family="Arial" font-size="20" fill="black">vorticity:2 [SI]</text>
<polyline points="190.69,118.45 193.64,152.75 196.58,187.05 199.53,221.33 202.47,255.63 205.42,291.66 208.36,328.36 211.31,365.07 214.25,401.78 217.20,424.16 220.14,427.42 223.09,430.69 226.03,433.95 228.98,436.92 231.93,438.15 234.87,439.37 237.82,440.60 240.76,441.82 243.71,442.57 246.65,443.25 249.60,443.92 252.54,444.59 255.49,445.23 258.43,445.85 261.38,446.47 264.32,447.09 267.27,447.76 270.22,448.58 273.16,449.41 276.11,450.23 279.05,451.05 282.00,453.28 284.94,455.52 287.89,457.75 290.83,459.98 293.78,471.18 296.72,485.96 299.67,500.74 302.62,515.52 305.56,528.94 308.51,540.54 311.45,552.13 314.40,563.73 317.34,571.60 320.29,557.15 323.23,542.70 326.17,528.24 329.13,513.79 332.07,499.61 335.01,485.47 337.96,471.33 340.91,457.19 343.85,450.41 346.80,449.14 349.74,447.87 352.68,446.60 355.64,445.66 358.58,445.51 361.52,445.37 364.47,445.22 367.41,445.08 370.35,445.05 373.31,445.03 376.25,445.01 379.19,444.99 382.15,445.05 385.09,445.16 388.03,445.26 390.98,445.36 393.92,448.07 396.86,454.26 399.82,460.45 402.76,466.64 405.70,471.99 408.65,472.25 411.59,472.52 414.54,472.79 417.49,473.05 420.43,453.39 423.37,430.40 426.33,407.41 429.27,384.42 432.21,363.36 435.16,343.76 438.10,324.14 441.04,304.53 444.00,291.70 446.94,295.80 449.88,299.91 452.83,304.01 455.78,308.12 458.72,319.20 461.67,330.29 464.61,341.37 467.55,352.46 470.51,360.68 473.45,367.77 476.39,374.85 479.34,381.94 482.28,387.86 485.23,392.24 488.18,396.62 491.12,400.99 494.06,405.22 497.02,408.50 499.96,411.79 502.90,415.07 505.85,418.36 508.79,421.04 511.73,423.63 514.69,426.22 517.63,428.80 520.57,431.01 523.52,432.92 526.47,434.84 529.41,436.76 532.36,438.47 535.30,439.66 538.24,440.85 541.20,442.05 544.14,443.24 547.08,444.79 550.03,446.33 552.97,447.88 555.92,449.42 558.87,455.96 561.81,464.51 564.75,473.05 567.71,481.59 570.65,489.77 573.59,497.46 576.54,505.15 579.48,512.84 582.42,518.23 585.38,509.85 588.32,501.46 591.26,493.08 594.21,484.70 597.16,475.94 600.10,467.12 603.05,458.29 605.99,449.47 608.93,445.60 611.89,445.45 614.83,445.29 617.77,445.13 620.72,445.02 623.66,445.01 626.60,445.01 629.56,445.00 632.50,445.00 635.44,445.00 638.40,445.01 641.34,445.02 644.28,445.02 647.23,444.92 650.17,444.77 653.11,444.62 656.07,444.47 659.01,443.17 661.95,440.35 664.90,437.52 667.84,434.69 670.79,432.02 673.74,430.28 676.68,428.54 679.62,426.80 682.58,425.05 685.52,427.19 688.46,429.97 691.41,432.75 694.35,435.54 697.29,437.32 700.25,438.34 703.19,439.37 706.13,440.40 709.08,440.87 712.03,439.95 714.97,439.03 717.92,438.12 720.86,437.20 723.80,436.95 726.76,436.70 729.70,436.44 732.64,436.19 735.59,435.99 738.53,435.82 741.48,435.64 744.43,435.47 747.37,435.40 750.31,435.48 753.27,435.56 756.21,435.63 759.15,435.73 762.10,435.98 765.04,436.22 767.98,436.46 770.94,436.70 773.88,437.05 776.82,437.43 779.77,437.80 782.72,438.18 785.66,438.77 788.61,439.51 791.55,440.26 794.49,441.01 797.45,442.03 800.39,443.72 803.33,445.41 806.28,447.10 809.22,448.79 812.17,452.68 815.12,456.57 818.06,460.47 821.00,464.36 823.96,475.54 826.90,489.62 829.84,503.71 832.79,517.80 835.73,529.65 838.67,538.51 841.63,547.36 844.57,556.22 847.51,561.69 850.46,546.86 853.41,532.03 856.35,517.20 859.30,502.37 862.24,489.45 865.18,476.85 868.14,464.25 871.08,451.64 874.02,446.08 876.97,445.80 879.91,445.51 882.85,445.23 885.81,445.02 888.75,445.02 891.69,445.01 894.65,445.00 897.59,444.99 900.53,444.98 903.48,444.97 906.42,444.97 909.36,444.96 912.32,444.80 915.26,444.58 918.20,444.36 921.15,444.14 924.09,441.11 927.04,434.34 929.99,427.56 932.93,420.78 935.87,413.90 938.83,406.43 941.77,398.96 944.71,391.49 947.66,384.02 950.60,387.77 953.54,393.40 956.50,399.02 959.44,404.64 962.38,411.39 965.33,418.97 968.28,426.56 971.22,434.15 974.17,439.97 977.11,441.36 980.05,442.74 983.01,444.13 985.95,445.52 988.89,445.85 991.84,446.17 994.78,446.50 997.73,446.82 1000.68,446.74 1003.62,446.48 1006.56,446.23 1009.52,445.98 1012.46,445.59 1015.40,445.01 1018.35,444.44 1021.29,443.87 1024.23,443.39 1027.19,443.45 1030.13,443.52 1033.07,443.58 1036.02,443.65 1038.97,445.23 1041.91,447.07 1044.86,448.92 1047.80,450.76 1050.74,465.96 1053.70,491.19 1056.64,516.42 1059.58,541.65 1062.53,566.47 1065.47,590.24 1068.42,614.01 1071.37,637.78 1074.31,661.55" fill="none" stroke="#000000" stroke-width="3"/>
<line x1="142" y1="100" x2="178" y2="100" stroke="#000000" stroke-width="4"/>
<text x="188" y="105" font-family="Arial" font-size="18" fill="black">vorticity:2</text>
</svg>