<svg xmlns="http://www.w3.org/2000/svg" width="1200" height="820" viewBox="0 0 1200 820">
<rect width="100%" height="100%" fill="white"/>
<text x="600.0" y="36" text-anchor="middle" font-family="Arial" font-size="24" fill="black">profile_center_y: epsilon</text>
<line x1="120.00" y1="75" x2="120.00" y2="705" stroke="#dddddd" stroke-width="1"/>
<text x="120.00" y="737" text-anchor="middle" font-family="Arial" font-size="16" fill="black">-0.400</text>
<line x1="376.25" y1="75" x2="376.25" y2="705" stroke="#dddddd" stroke-width="1"/>
<text x="376.25" y="737" text-anchor="middle" font-family="Arial" font-size="16" fill="black">1.050</text>
<line x1="632.50" y1="75" x2="632.50" y2="705" stroke="#dddddd" stroke-width="1"/>
<text x="632.50" y="737" text-anchor="middle" font-family="Arial" font-size="16" fill="black">2.500</text>
<line x1="888.75" y1="75" x2="888.75" y2="705" stroke="#dddddd" stroke-width="1"/>
<text x="888.75" y="737" text-anchor="middle" font-family="Arial" font-size="16" fill="black">3.950</text>
<line x1="1145.00" y1="75" x2="1145.00" y2="705" stroke="#dddddd" stroke-width="1"/>
<text x="1145.00" y="737" text-anchor="middle" font-family="Arial" font-size="16" fill="black">5.400</text>
<line x1="120" y1="705.00" x2="1145" y2="705.00" stroke="#dddddd" stroke-width="1"/>
<text x="104" y="710.00" text-anchor="end" font-family="Arial" font-size="16" fill="black">4.65e-04</text>
<line x1="120" y1="547.50" x2="1145" y2="547.50" stroke="#dddddd" stroke-width="1"/>
<text x="104" y="552.50" text-anchor="end" font-family="Arial" font-size="16" fill="black">0.002</text>
<line x1="120" y1="390.00" x2="1145" y2="390.00" stroke="#dddddd" stroke-width="1"/>
<text x="104" y="395.00" text-anchor="end" font-family="Arial" font-size="16" fill="black">0.003</text>
<line x1="120" y1="232.50" x2="1145" y2="232.50" stroke="#dddddd" stroke-width="1"/>
<text x="104" y="237.50" text-anchor="end" font-family="Arial" font-size="16" fill="black">0.005</text>
<line x1="120" y1="75.00" x2="1145" y2="75.00" stroke="#dddddd" stroke-width="1"/>
<text x="104" y="80.00" text-anchor="end" font-family="Arial" font-size="16" fill="black">0.006</text>
<rect x="120" y="75" width="1025" height="630" fill="none" stroke="black" stroke-width="2"/>
<text x="632.5" y="785" text-anchor="middle" font-family="Arial" font-size="20" fill="black">y coordinate [m]</text>
<text x="34" y="390.0" transform="rotate(-90 34 390.0)" text-anchor="middle" font-family="Arial" font-size="20" fill="black">epsilon [m2/s3]</text>
<polyline points="190.69,548.62 193.64,554.08 196.58,559.54 199.53,565.01 202.47,570.46 205.42,575.92 208.36,581.38 211.31,587.79 214.25,594.20 217.20,600.61 220.14,607.01 223.09,613.42 226.03,619.83 228.98,621.05 231.92,622.27 234.87,623.50 237.82,624.72 240.76,625.94 243.71,627.16 246.65,626.17 249.60,625.16 252.54,624.17 255.49,623.18 258.43,622.18 261.38,621.19 264.33,615.82 267.27,610.44 270.22,605.07 273.16,599.70 276.11,594.32 279.05,588.96 282.00,576.63 284.94,564.29 287.89,551.96 290.83,539.64 293.78,527.31 296.72,514.98 299.67,495.19 302.61,475.41 305.56,455.62 308.51,435.85 311.45,416.06 314.40,396.28 317.34,375.18 320.29,354.08 323.23,332.99 326.18,311.89 329.12,290.79 332.07,269.69 335.01,258.60 337.96,247.52 340.91,236.43 343.85,225.35 346.80,214.26 349.74,203.18 352.69,205.95 355.63,208.71 358.58,211.48 361.52,214.25 364.47,217.02 367.41,219.79 370.37,223.82 373.30,227.84 376.25,231.88 379.20,235.91 382.13,239.94 385.09,243.98 388.04,239.05 390.97,234.13 393.92,229.22 396.87,224.30 399.81,219.39 402.76,214.47 405.71,205.90 408.64,197.33 411.59,188.77 414.55,180.20 417.48,171.63 420.43,163.05 423.38,157.46 426.32,151.86 429.27,146.27 432.22,140.68 435.15,135.08 438.10,129.49 441.05,127.64 443.99,125.81 446.94,123.96 449.89,122.13 452.82,120.28 455.78,118.45 458.73,118.64 461.66,118.85 464.61,119.05 467.56,119.26 470.50,119.45 473.45,119.66 476.40,120.53 479.33,121.41 482.28,122.29 485.24,123.16 488.17,124.04 491.12,124.92 494.07,126.32 497.01,127.72 499.96,129.12 502.91,130.52 505.84,131.93 508.79,133.33 511.74,135.96 514.68,138.59 517.63,141.22 520.58,143.85 523.51,146.49 526.47,149.12 529.42,152.64 532.35,156.16 535.30,159.68 538.25,163.21 541.19,166.73 544.14,170.25 547.09,173.37 550.02,176.50 552.97,179.62 555.93,182.75 558.86,185.87 561.81,188.99 564.76,194.64 567.70,200.31 570.65,205.96 573.60,211.61 576.53,217.26 579.48,222.92 582.43,235.74 585.37,248.56 588.32,261.37 591.27,274.19 594.20,287.01 597.16,299.82 600.11,314.76 603.04,329.70 605.99,344.64 608.94,359.58 611.88,374.52 614.83,389.46 617.78,399.23 620.71,409.00 623.66,418.78 626.62,428.55 629.55,438.32 632.50,448.09 635.45,452.88 638.38,457.65 641.34,462.44 644.29,467.22 647.22,472.00 650.17,476.78 653.12,478.69 656.06,480.62 659.01,482.55 661.96,484.46 664.89,486.38 667.84,488.30 670.80,489.70 673.73,491.10 676.68,492.50 679.63,493.90 682.57,495.29 685.52,496.70 688.47,499.78 691.40,502.86 694.35,505.95 697.30,509.02 700.24,512.11 703.19,515.19 706.14,519.80 709.07,524.40 712.03,529.02 714.98,533.62 717.91,538.23 720.86,542.84 723.81,547.11 726.75,551.38 729.70,555.65 732.65,559.94 735.58,564.21 738.53,568.48 741.49,570.83 744.42,573.18 747.37,575.52 750.32,577.88 753.26,580.23 756.21,582.58 759.16,580.82 762.09,579.06 765.04,577.29 767.99,575.53 770.93,573.77 773.88,572.00 776.83,561.95 779.76,551.89 782.72,541.85 785.67,531.79 788.60,521.74 791.55,511.68 794.50,494.17 797.44,476.66 800.39,459.14 803.34,441.63 806.27,424.12 809.22,406.61 812.18,396.68 815.11,386.73 818.06,376.80 821.01,366.86 823.95,356.93 826.90,346.99 829.85,353.49 832.78,359.99 835.73,366.48 838.68,372.98 841.62,379.48 844.57,385.98 847.52,394.73 850.45,403.48 853.41,412.23 856.36,420.98 859.29,429.73 862.24,438.48 865.19,436.55 868.13,434.64 871.08,432.71 874.03,430.79 876.96,428.87 879.91,426.95 882.87,421.40 885.80,415.86 888.75,410.31 891.70,404.77 894.63,399.23 897.59,393.68 900.54,397.35 903.47,401.03 906.42,404.70 909.37,408.37 912.31,412.05 915.26,415.71 918.21,426.90 921.14,438.09 924.09,449.28 927.05,460.47 929.98,471.65 932.93,482.84 935.88,493.86 938.82,504.86 941.77,515.88 944.72,526.89 947.65,537.90 950.60,548.91 953.55,557.62 956.49,566.33 959.44,575.03 962.39,583.74 965.32,592.45 968.28,601.16 971.23,607.06 974.16,612.96 977.11,618.86 980.06,624.76 983.00,630.67 985.95,636.56 988.90,639.80 991.83,643.04 994.78,646.27 997.74,649.51 1000.67,652.74 1003.62,655.98 1006.57,656.91 1009.51,657.84 1012.46,658.77 1015.41,659.69 1018.34,660.62 1021.29,661.55 1024.24,659.40 1027.18,657.25 1030.13,655.10 1033.08,652.95 1036.01,650.80 1038.97,648.65 1041.92,632.67 1044.85,616.70 1047.80,600.72 1050.75,584.75 1053.69,568.78 1056.64,552.81 1059.59,538.91 1062.52,525.00 1065.47,511.10 1068.43,497.19 1071.36,483.29 1074.31,469.37" fill="none" stroke="#000000" stroke-width="3"/>
<line x1="142" y1="100" x2="178" y2="100" stroke="#000000" stroke-width="4"/>
<text x="188" y="105" font-family="Arial" font-size="18" fill="black">epsilon</text>
</svg>