<svg xmlns="http://www.w3.org/2000/svg" width="1200" height="820" viewBox="0 0 1200 820">
<rect width="100%" height="100%" fill="white"/>
<text x="600.0" y="36" text-anchor="middle" font-family="Arial" font-size="24" fill="black">profile_center_y: p_rgh</text>
<line x1="120.00" y1="75" x2="120.00" y2="705" stroke="#dddddd" stroke-width="1"/>
<text x="120.00" y="737" text-anchor="middle" font-family="Arial" font-size="16" fill="black">-0.400</text>
<line x1="376.25" y1="75" x2="376.25" y2="705" stroke="#dddddd" stroke-width="1"/>
<text x="376.25" y="737" text-anchor="middle" font-family="Arial" font-size="16" fill="black">1.050</text>
<line x1="632.50" y1="75" x2="632.50" y2="705" stroke="#dddddd" stroke-width="1"/>
<text x="632.50" y="737" text-anchor="middle" font-family="Arial" font-size="16" fill="black">2.500</text>
<line x1="888.75" y1="75" x2="888.75" y2="705" stroke="#dddddd" stroke-width="1"/>
<text x="888.75" y="737" text-anchor="middle" font-family="Arial" font-size="16" fill="black">3.950</text>
<line x1="1145.00" y1="75" x2="1145.00" y2="705" stroke="#dddddd" stroke-width="1"/>
<text x="1145.00" y="737" text-anchor="middle" font-family="Arial" font-size="16" fill="black">5.400</text>
<line x1="120" y1="705.00" x2="1145" y2="705.00" stroke="#dddddd" stroke-width="1"/>
<text x="104" y="710.00" text-anchor="end" font-family="Arial" font-size="16" fill="black">-0.357</text>
<line x1="120" y1="547.50" x2="1145" y2="547.50" stroke="#dddddd" stroke-width="1"/>
<text x="104" y="552.50" text-anchor="end" font-family="Arial" font-size="16" fill="black">-0.036</text>
<line x1="120" y1="390.00" x2="1145" y2="390.00" stroke="#dddddd" stroke-width="1"/>
<text x="104" y="395.00" text-anchor="end" font-family="Arial" font-size="16" fill="black">0.286</text>
<line x1="120" y1="232.50" x2="1145" y2="232.50" stroke="#dddddd" stroke-width="1"/>
<text x="104" y="237.50" text-anchor="end" font-family="Arial" font-size="16" fill="black">0.607</text>
<line x1="120" y1="75.00" x2="1145" y2="75.00" stroke="#dddddd" stroke-width="1"/>
<text x="104" y="80.00" text-anchor="end" font-family="Arial" font-size="16" fill="black">0.928</text>
<rect x="120" y="75" width="1025" height="630" fill="none" stroke="black" stroke-width="2"/>
<text x="632.5" y="785" text-anchor="middle" font-family="Arial" font-size="20" fill="black">y coordinate [m]</text>
<text x="34" y="390.0" transform="rotate(-90 34 390.0)" text-anchor="middle" font-family="Arial" font-size="20" fill="black">p_rgh [Pa]</text>
<polyline points="190.69,331.39 193.64,331.29 196.58,331.19 199.53,331.09 202.47,330.99 205.42,330.89 208.36,330.79 211.31,330.92 214.25,331.04 217.20,331.16 220.14,331.28 223.09,331.40 226.03,331.52 228.98,332.25 231.92,332.97 234.87,333.68 237.82,334.40 240.76,335.12 243.71,335.84 246.65,337.17 249.60,338.51 252.54,339.84 255.49,341.18 258.43,342.51 261.38,343.84 264.33,346.04 267.27,348.24 270.22,350.44 273.16,352.63 276.11,354.83 279.05,357.03 282.00,360.65 284.94,364.27 287.89,367.89 290.83,371.51 293.78,375.13 296.72,378.74 299.67,384.55 302.61,390.36 305.56,396.17 308.51,401.98 311.45,407.79 314.40,413.60 317.34,422.02 320.29,430.46 323.23,438.89 326.18,447.31 329.12,455.74 332.07,464.18 335.01,475.04 337.96,485.90 340.91,496.77 343.85,507.63 346.80,518.50 349.74,529.36 352.69,542.76 355.63,556.15 358.58,569.55 361.52,582.95 364.47,596.34 367.41,609.74 370.37,618.31 373.30,626.88 376.25,635.45 379.20,644.02 382.13,652.60 385.09,661.17 388.04,661.23 390.97,661.30 393.92,661.36 396.87,661.42 399.81,661.49 402.76,661.55 405.71,658.69 408.64,655.83 411.59,652.96 414.55,650.10 417.48,647.24 420.43,644.38 423.38,640.48 426.32,636.58 429.27,632.68 432.22,628.78 435.15,624.88 438.10,620.98 441.05,616.34 443.99,611.70 446.94,607.06 449.89,602.42 452.82,597.78 455.78,593.15 458.73,587.76 461.66,582.38 464.61,577.00 467.56,571.61 470.50,566.23 473.45,560.85 476.40,554.57 479.33,548.29 482.28,542.01 485.24,535.72 488.17,529.44 491.12,523.16 494.07,515.44 497.01,507.72 499.96,499.99 502.91,492.27 505.84,484.55 508.79,476.82 511.74,466.84 514.68,456.86 517.63,446.88 520.58,436.90 523.51,426.91 526.47,416.93 529.42,403.95 532.35,390.97 535.30,377.99 538.25,365.01 541.19,352.03 544.14,339.04 547.09,326.85 550.02,314.66 552.97,302.46 555.93,290.27 558.86,278.07 561.81,265.88 564.76,256.83 567.70,247.77 570.65,238.72 573.60,229.67 576.53,220.62 579.48,211.57 582.43,204.31 585.37,197.06 588.32,189.81 591.27,182.55 594.20,175.30 597.16,168.04 600.11,163.06 603.04,158.08 605.99,153.10 608.94,148.12 611.88,143.14 614.83,138.16 617.78,135.56 620.71,132.95 623.66,130.35 626.62,127.75 629.55,125.14 632.50,122.54 635.45,121.86 638.38,121.18 641.34,120.49 644.29,119.81 647.22,119.13 650.17,118.45 653.12,119.08 656.06,119.71 659.01,120.35 661.96,120.98 664.89,121.61 667.84,122.24 670.80,124.02 673.73,125.80 676.68,127.58 679.63,129.35 682.57,131.13 685.52,132.91 688.47,135.66 691.40,138.42 694.35,141.19 697.30,143.95 700.24,146.70 703.19,149.47 706.14,154.23 709.07,158.98 712.03,163.75 714.98,168.50 717.91,173.27 720.86,178.02 723.81,184.27 726.75,190.51 729.70,196.76 732.65,203.00 735.58,209.24 738.53,215.49 741.49,222.15 744.42,228.81 747.37,235.47 750.32,242.13 753.26,248.80 756.21,255.46 759.16,263.31 762.09,271.16 765.04,279.01 767.99,286.85 770.93,294.71 773.88,302.55 776.83,311.40 779.76,320.25 782.72,329.10 785.67,337.94 788.60,346.79 791.55,355.64 794.50,364.01 797.44,372.39 800.39,380.76 803.34,389.13 806.27,397.50 809.22,405.87 812.18,411.69 815.11,417.50 818.06,423.32 821.01,429.13 823.95,434.95 826.90,440.76 829.85,442.87 832.78,444.98 835.73,447.09 838.68,449.20 841.62,451.32 844.57,453.42 847.52,451.95 850.45,450.48 853.41,449.00 856.36,447.53 859.29,446.05 862.24,444.58 865.19,440.18 868.13,435.79 871.08,431.39 874.03,426.99 876.96,422.59 879.91,418.20 882.87,411.35 885.80,404.51 888.75,397.65 891.70,390.81 894.63,383.96 897.59,377.11 900.54,371.72 903.47,366.33 906.42,360.94 909.37,355.55 912.31,350.16 915.26,344.77 918.21,343.14 921.14,341.51 924.09,339.88 927.05,338.24 929.98,336.61 932.93,334.98 935.88,334.88 938.82,334.78 941.77,334.68 944.72,334.59 947.65,334.49 950.60,334.39 953.55,334.81 956.49,335.23 959.44,335.64 962.39,336.06 965.32,336.48 968.28,336.90 971.23,337.43 974.16,337.96 977.11,338.49 980.06,339.03 983.00,339.56 985.95,340.09 988.90,340.62 991.83,341.14 994.78,341.67 997.74,342.19 1000.67,342.72 1003.62,343.24 1006.57,343.75 1009.51,344.26 1012.46,344.77 1015.41,345.28 1018.34,345.79 1021.29,346.30 1024.24,346.86 1027.18,347.43 1030.13,347.99 1033.08,348.56 1036.01,349.12 1038.97,349.69 1041.92,350.42 1044.85,351.15 1047.80,351.87 1050.75,352.60 1053.69,353.34 1056.64,354.07 1059.59,354.48 1062.52,354.90 1065.47,355.32 1068.43,355.73 1071.36,356.15 1074.31,356.57" fill="none" stroke="#000000" stroke-width="3"/>
<line x1="142" y1="100" x2="178" y2="100" stroke="#000000" stroke-width="4"/>
<text x="188" y="105" font-family="Arial" font-size="18" fill="black">p_rgh</text>
</svg>