<svg xmlns="http://www.w3.org/2000/svg" width="1200" height="820" viewBox="0 0 1200 820">
<rect width="100%" height="100%" fill="white"/>
<text x="600.0" y="36" text-anchor="middle" font-family="Arial" font-size="24" fill="black">profile_center_z: velocity magnitude</text>
<line x1="120.00" y1="75" x2="120.00" y2="705" stroke="#dddddd" stroke-width="1"/>
<text x="120.00" y="737" text-anchor="middle" font-family="Arial" font-size="16" fill="black">-0.240</text>
<line x1="376.25" y1="75" x2="376.25" y2="705" stroke="#dddddd" stroke-width="1"/>
<text x="376.25" y="737" text-anchor="middle" font-family="Arial" font-size="16" fill="black">0.630</text>
<line x1="632.50" y1="75" x2="632.50" y2="705" stroke="#dddddd" stroke-width="1"/>
<text x="632.50" y="737" text-anchor="middle" font-family="Arial" font-size="16" fill="black">1.500</text>
<line x1="888.75" y1="75" x2="888.75" y2="705" stroke="#dddddd" stroke-width="1"/>
<text x="888.75" y="737" text-anchor="middle" font-family="Arial" font-size="16" fill="black">2.370</text>
<line x1="1145.00" y1="75" x2="1145.00" y2="705" stroke="#dddddd" stroke-width="1"/>
<text x="1145.00" y="737" text-anchor="middle" font-family="Arial" font-size="16" fill="black">3.240</text>
<line x1="120" y1="705.00" x2="1145" y2="705.00" stroke="#dddddd" stroke-width="1"/>
<text x="104" y="710.00" text-anchor="end" font-family="Arial" font-size="16" fill="black">0.043</text>
<line x1="120" y1="547.50" x2="1145" y2="547.50" stroke="#dddddd" stroke-width="1"/>
<text x="104" y="552.50" text-anchor="end" font-family="Arial" font-size="16" fill="black">0.298</text>
<line x1="120" y1="390.00" x2="1145" y2="390.00" stroke="#dddddd" stroke-width="1"/>
<text x="104" y="395.00" text-anchor="end" font-family="Arial" font-size="16" fill="black">0.554</text>
<line x1="120" y1="232.50" x2="1145" y2="232.50" stroke="#dddddd" stroke-width="1"/>
<text x="104" y="237.50" text-anchor="end" font-family="Arial" font-size="16" fill="black">0.809</text>
<line x1="120" y1="75.00" x2="1145" y2="75.00" stroke="#dddddd" stroke-width="1"/>
<text x="104" y="80.00" text-anchor="end" font-family="Arial" font-size="16" fill="black">1.065</text>
<rect x="120" y="75" width="1025" height="630" fill="none" stroke="black" stroke-width="2"/>
<text x="632.5" y="785" text-anchor="middle" font-family="Arial" font-size="20" fill="black">z coordinate [m]</text>
<text x="34" y="390.0" transform="rotate(-90 34 390.0)" text-anchor="middle" font-family="Arial" font-size="20" fill="black">|U| [m/s]</text>
<polyline points="190.69,118.45 193.64,118.99 196.58,119.53 199.53,120.08 202.47,120.62 205.42,121.16 208.36,121.70 211.31,122.24 214.25,122.79 217.20,123.33 220.14,123.87 223.09,125.23 226.03,126.60 228.98,127.96 231.93,129.32 234.87,130.68 237.82,132.04 240.76,133.40 243.71,134.77 246.65,136.13 249.60,137.50 252.54,139.25 255.49,141.02 258.43,142.77 261.38,144.53 264.32,146.29 267.27,148.05 270.22,149.81 273.16,151.57 276.11,153.33 279.05,155.09 282.00,157.03 284.94,158.98 287.89,160.92 290.83,162.87 293.78,164.81 296.72,166.76 299.67,168.70 302.61,170.64 305.56,172.59 308.51,174.53 311.45,176.61 314.40,178.70 317.34,180.78 320.29,182.86 323.23,184.95 326.18,187.03 329.12,189.11 332.07,191.20 335.01,193.29 337.96,195.37 340.91,197.63 343.85,199.89 346.80,202.15 349.74,204.41 352.69,206.67 355.63,208.93 358.58,211.19 361.52,213.45 364.47,215.71 367.41,217.97 370.36,220.49 373.30,223.00 376.25,225.51 379.20,228.03 382.14,230.54 385.09,233.06 388.03,235.57 390.98,238.09 393.92,240.60 396.87,243.11 399.81,246.00 402.76,248.88 405.70,251.76 408.65,254.64 411.59,257.52 414.54,260.41 417.49,263.29 420.43,266.17 423.38,269.05 426.32,271.94 429.27,275.30 432.21,278.65 435.16,282.02 438.10,285.38 441.05,288.74 443.99,292.09 446.94,295.46 449.89,298.82 452.83,302.18 455.78,305.54 458.72,309.45 461.67,313.35 464.61,317.26 467.56,321.17 470.50,325.08 473.45,328.99 476.39,332.90 479.34,336.81 482.28,340.72 485.23,344.62 488.18,349.09 491.12,353.56 494.07,358.03 497.01,362.49 499.96,366.97 502.90,371.44 505.85,375.90 508.79,380.37 511.74,384.84 514.68,389.31 517.63,394.28 520.57,399.25 523.52,404.21 526.47,409.19 529.41,414.15 532.36,419.12 535.30,424.09 538.25,429.06 541.19,434.03 544.14,439.00 547.08,444.34 550.03,449.69 552.97,455.03 555.92,460.37 558.86,465.72 561.81,471.06 564.76,476.40 567.70,481.74 570.65,487.09 573.59,492.43 576.54,497.99 579.48,503.56 582.43,509.12 585.37,514.69 588.32,520.25 591.26,525.81 594.21,531.38 597.16,536.94 600.10,542.51 603.05,548.07 605.99,553.70 608.94,559.33 611.88,564.96 614.83,570.59 617.77,576.22 620.72,581.85 623.66,587.48 626.61,593.11 629.55,598.74 632.50,604.37 635.45,609.04 638.39,613.70 641.34,618.37 644.28,623.03 647.23,627.69 650.17,632.35 653.12,637.02 656.06,641.68 659.01,646.35 661.95,651.01 664.90,652.07 667.84,653.12 670.79,654.18 673.74,655.23 676.68,656.28 679.63,657.34 682.57,658.39 685.52,659.44 688.46,660.50 691.41,661.55 694.35,659.86 697.30,658.17 700.24,656.49 703.19,654.80 706.14,653.12 709.08,651.43 712.03,649.74 714.97,648.06 717.92,646.37 720.86,644.68 723.81,643.08 726.75,641.49 729.70,639.89 732.64,638.29 735.59,636.70 738.53,635.10 741.48,633.50 744.43,631.90 747.37,630.31 750.32,628.71 753.26,627.12 756.21,625.52 759.15,623.92 762.10,622.33 765.04,620.74 767.99,619.14 770.93,617.55 773.88,615.95 776.82,614.35 779.77,612.76 782.72,610.77 785.66,608.79 788.61,606.81 791.55,604.83 794.50,602.85 797.44,600.86 800.39,598.89 803.33,596.90 806.28,594.92 809.22,592.94 812.17,590.64 815.11,588.34 818.06,586.04 821.01,583.74 823.95,581.45 826.90,579.15 829.84,576.85 832.79,574.56 835.73,572.26 838.68,569.96 841.62,567.61 844.57,565.27 847.51,562.92 850.46,560.58 853.41,558.23 856.35,555.89 859.30,553.55 862.24,551.20 865.19,548.86 868.13,546.51 871.08,544.54 874.02,542.56 876.97,540.58 879.91,538.61 882.86,536.63 885.80,534.65 888.75,532.68 891.70,530.70 894.64,528.73 897.59,526.75 900.53,525.74 903.48,524.73 906.42,523.72 909.37,522.71 912.31,521.70 915.26,520.69 918.20,519.68 921.15,518.67 924.09,517.66 927.04,516.65 929.99,517.33 932.93,518.00 935.88,518.67 938.82,519.34 941.77,520.01 944.71,520.69 947.66,521.36 950.60,522.03 953.55,522.71 956.49,523.38 959.44,526.16 962.39,528.94 965.33,531.72 968.28,534.50 971.22,537.28 974.17,540.06 977.11,542.84 980.06,545.62 983.00,548.40 985.95,551.18 988.89,553.80 991.84,556.41 994.78,559.03 997.73,561.65 1000.68,564.27 1003.62,566.88 1006.57,569.50 1009.51,572.12 1012.46,574.74 1015.40,577.35 1018.35,573.91 1021.29,570.46 1024.24,567.03 1027.18,563.58 1030.13,560.14 1033.07,556.69 1036.02,553.25 1038.97,549.81 1041.91,546.36 1044.86,542.92 1047.80,538.41 1050.75,533.90 1053.69,529.39 1056.64,524.87 1059.58,520.36 1062.53,515.85 1065.47,511.34 1068.42,506.82 1071.36,502.31 1074.31,497.80" fill="none" stroke="#000000" stroke-width="3"/>
<line x1="142" y1="100" x2="178" y2="100" stroke="#000000" stroke-width="4"/>
<text x="188" y="105" font-family="Arial" font-size="18" fill="black">|U|</text>
</svg>