<svg xmlns="http://www.w3.org/2000/svg" width="1200" height="820" viewBox="0 0 1200 820">
<rect width="100%" height="100%" fill="white"/>
<text x="600.0" y="36" text-anchor="middle" font-family="Arial" font-size="24" fill="black">profile_center_z: epsilon</text>
<line x1="120.00" y1="75" x2="120.00" y2="705" stroke="#dddddd" stroke-width="1"/>
<text x="120.00" y="737" text-anchor="middle" font-family="Arial" font-size="16" fill="black">-0.240</text>
<line x1="376.25" y1="75" x2="376.25" y2="705" stroke="#dddddd" stroke-width="1"/>
<text x="376.25" y="737" text-anchor="middle" font-family="Arial" font-size="16" fill="black">0.630</text>
<line x1="632.50" y1="75" x2="632.50" y2="705" stroke="#dddddd" stroke-width="1"/>
<text x="632.50" y="737" text-anchor="middle" font-family="Arial" font-size="16" fill="black">1.500</text>
<line x1="888.75" y1="75" x2="888.75" y2="705" stroke="#dddddd" stroke-width="1"/>
<text x="888.75" y="737" text-anchor="middle" font-family="Arial" font-size="16" fill="black">2.370</text>
<line x1="1145.00" y1="75" x2="1145.00" y2="705" stroke="#dddddd" stroke-width="1"/>
<text x="1145.00" y="737" text-anchor="middle" font-family="Arial" font-size="16" fill="black">3.240</text>
<line x1="120" y1="705.00" x2="1145" y2="705.00" stroke="#dddddd" stroke-width="1"/>
<text x="104" y="710.00" text-anchor="end" font-family="Arial" font-size="16" fill="black">9.41e-04</text>
<line x1="120" y1="547.50" x2="1145" y2="547.50" stroke="#dddddd" stroke-width="1"/>
<text x="104" y="552.50" text-anchor="end" font-family="Arial" font-size="16" fill="black">0.005</text>
<line x1="120" y1="390.00" x2="1145" y2="390.00" stroke="#dddddd" stroke-width="1"/>
<text x="104" y="395.00" text-anchor="end" font-family="Arial" font-size="16" fill="black">0.009</text>
<line x1="120" y1="232.50" x2="1145" y2="232.50" stroke="#dddddd" stroke-width="1"/>
<text x="104" y="237.50" text-anchor="end" font-family="Arial" font-size="16" fill="black">0.014</text>
<line x1="120" y1="75.00" x2="1145" y2="75.00" stroke="#dddddd" stroke-width="1"/>
<text x="104" y="80.00" text-anchor="end" font-family="Arial" font-size="16" fill="black">0.018</text>
<rect x="120" y="75" width="1025" height="630" fill="none" stroke="black" stroke-width="2"/>
<text x="632.5" y="785" text-anchor="middle" font-family="Arial" font-size="20" fill="black">z coordinate [m]</text>
<text x="34" y="390.0" transform="rotate(-90 34 390.0)" text-anchor="middle" font-family="Arial" font-size="20" fill="black">epsilon [m2/s3]</text>
<polyline points="190.69,417.08 193.64,419.19 196.58,421.30 199.53,423.41 202.47,425.52 205.42,427.62 208.36,429.73 211.31,431.84 214.25,433.95 217.20,436.06 220.14,438.17 223.09,442.05 226.03,445.94 228.98,449.82 231.93,453.70 234.87,457.59 237.82,461.47 240.76,465.36 243.71,469.24 246.65,473.12 249.60,477.01 252.54,480.29 255.49,483.58 258.43,486.86 261.38,490.15 264.32,493.43 267.27,496.72 270.22,500.00 273.16,503.29 276.11,506.57 279.05,509.86 282.00,512.66 284.94,515.47 287.89,518.27 290.83,521.08 293.78,523.88 296.72,526.69 299.67,529.49 302.61,532.29 305.56,535.10 308.51,537.90 311.45,540.31 314.40,542.72 317.34,545.13 320.29,547.53 323.23,549.94 326.18,552.35 329.12,554.76 332.07,557.17 335.01,559.58 337.96,561.99 340.91,564.06 343.85,566.13 346.80,568.21 349.74,570.29 352.69,572.36 355.63,574.44 358.58,576.51 361.52,578.59 364.47,580.67 367.41,582.74 370.36,584.54 373.30,586.34 376.25,588.14 379.20,589.94 382.14,591.73 385.09,593.53 388.03,595.33 390.98,597.13 393.92,598.93 396.87,600.73 399.81,602.30 402.76,603.87 405.70,605.44 408.65,607.01 411.59,608.59 414.54,610.16 417.49,611.73 420.43,613.30 423.38,614.88 426.32,616.45 429.27,617.82 432.21,619.19 435.16,620.57 438.10,621.95 441.05,623.32 443.99,624.69 446.94,626.07 449.89,627.44 452.83,628.82 455.78,630.19 458.72,631.36 461.67,632.53 464.61,633.71 467.56,634.88 470.50,636.06 473.45,637.23 476.39,638.40 479.34,639.57 482.28,640.74 485.23,641.92 488.18,642.86 491.12,643.81 494.07,644.75 497.01,645.70 499.96,646.64 502.90,647.58 505.85,648.53 508.79,649.47 511.74,650.42 514.68,651.36 517.63,652.03 520.57,652.71 523.52,653.38 526.47,654.05 529.41,654.73 532.36,655.40 535.30,656.07 538.25,656.74 541.19,657.41 544.14,658.09 547.08,658.43 550.03,658.78 552.97,659.13 555.92,659.47 558.86,659.82 561.81,660.17 564.76,660.51 567.70,660.86 570.65,661.20 573.59,661.55 576.54,661.30 579.48,661.06 582.43,660.81 585.37,660.55 588.32,660.31 591.26,660.06 594.21,659.81 597.16,659.56 600.10,659.31 603.05,659.06 605.99,657.02 608.94,654.97 611.88,652.92 614.83,650.87 617.77,648.82 620.72,646.77 623.66,644.72 626.61,642.67 629.55,640.62 632.50,638.57 635.45,634.34 638.39,630.11 641.34,625.88 644.28,621.65 647.23,617.42 650.17,613.19 653.12,608.95 656.06,604.72 659.01,600.49 661.95,596.26 664.90,593.78 667.84,591.31 670.79,588.83 673.74,586.35 676.68,583.87 679.63,581.39 682.57,578.91 685.52,576.44 688.46,573.96 691.41,571.48 694.35,572.63 697.30,573.79 700.24,574.95 703.19,576.11 706.14,577.26 709.08,578.42 712.03,579.58 714.97,580.74 717.92,581.89 720.86,583.05 723.81,584.97 726.75,586.88 729.70,588.79 732.64,590.70 735.59,592.61 738.53,594.52 741.48,596.44 744.43,598.35 747.37,600.26 750.32,602.17 753.26,603.43 756.21,604.69 759.15,605.96 762.10,607.22 765.04,608.48 767.99,609.75 770.93,611.01 773.88,612.27 776.82,613.53 779.77,614.79 782.72,615.44 785.66,616.08 788.61,616.72 791.55,617.36 794.50,618.00 797.44,618.65 800.39,619.29 803.33,619.93 806.28,620.58 809.22,621.22 812.17,621.16 815.11,621.10 818.06,621.04 821.01,620.98 823.95,620.92 826.90,620.86 829.84,620.80 832.79,620.74 835.73,620.68 838.68,620.62 841.62,619.62 844.57,618.62 847.51,617.62 850.46,616.62 853.41,615.62 856.35,614.62 859.30,613.62 862.24,612.62 865.19,611.62 868.13,610.62 871.08,608.34 874.02,606.05 876.97,603.76 879.91,601.48 882.86,599.19 885.80,596.91 888.75,594.62 891.70,592.34 894.64,590.05 897.59,587.77 900.53,583.69 903.48,579.62 906.42,575.54 909.37,571.46 912.31,567.38 915.26,563.31 918.20,559.23 921.15,555.15 924.09,551.08 927.04,547.00 929.99,540.38 932.93,533.77 935.88,527.16 938.82,520.54 941.77,513.93 944.71,507.31 947.66,500.70 950.60,494.08 953.55,487.47 956.49,480.86 959.44,470.93 962.39,461.01 965.33,451.08 968.28,441.15 971.22,431.23 974.17,421.30 977.11,411.38 980.06,401.45 983.00,391.53 985.95,381.60 988.89,369.25 991.84,356.91 994.78,344.55 997.73,332.19 1000.68,319.83 1003.62,307.48 1006.57,295.12 1009.51,282.80 1012.46,270.44 1015.40,258.08 1018.35,247.85 1021.29,237.62 1024.24,227.43 1027.18,217.20 1030.13,206.97 1033.07,196.74 1036.02,186.55 1038.97,176.32 1041.91,166.09 1044.86,155.86 1047.80,152.12 1050.75,148.39 1053.69,144.62 1056.64,140.89 1059.58,137.15 1062.53,133.42 1065.47,129.65 1068.42,125.92 1071.36,122.18 1074.31,118.45" fill="none" stroke="#000000" stroke-width="3"/>
<line x1="142" y1="100" x2="178" y2="100" stroke="#000000" stroke-width="4"/>
<text x="188" y="105" font-family="Arial" font-size="18" fill="black">epsilon</text>
</svg>