<svg xmlns="http://www.w3.org/2000/svg" width="1200" height="820" viewBox="0 0 1200 820">
<rect width="100%" height="100%" fill="white"/>
<text x="600.0" y="36" text-anchor="middle" font-family="Arial" font-size="24" fill="black">profile_near_ceiling_x: velocity magnitude</text>
<line x1="120.00" y1="75" x2="120.00" y2="705" stroke="#dddddd" stroke-width="1"/>
<text x="120.00" y="737" text-anchor="middle" font-family="Arial" font-size="16" fill="black">-0.560</text>
<line x1="376.25" y1="75" x2="376.25" y2="705" stroke="#dddddd" stroke-width="1"/>
<text x="376.25" y="737" text-anchor="middle" font-family="Arial" font-size="16" fill="black">1.470</text>
<line x1="632.50" y1="75" x2="632.50" y2="705" stroke="#dddddd" stroke-width="1"/>
<text x="632.50" y="737" text-anchor="middle" font-family="Arial" font-size="16" fill="black">3.500</text>
<line x1="888.75" y1="75" x2="888.75" y2="705" stroke="#dddddd" stroke-width="1"/>
<text x="888.75" y="737" text-anchor="middle" font-family="Arial" font-size="16" fill="black">5.530</text>
<line x1="1145.00" y1="75" x2="1145.00" y2="705" stroke="#dddddd" stroke-width="1"/>
<text x="1145.00" y="737" text-anchor="middle" font-family="Arial" font-size="16" fill="black">7.560</text>
<line x1="120" y1="705.00" x2="1145" y2="705.00" stroke="#dddddd" stroke-width="1"/>
<text x="104" y="710.00" text-anchor="end" font-family="Arial" font-size="16" fill="black">0.188</text>
<line x1="120" y1="547.50" x2="1145" y2="547.50" stroke="#dddddd" stroke-width="1"/>
<text x="104" y="552.50" text-anchor="end" font-family="Arial" font-size="16" fill="black">0.270</text>
<line x1="120" y1="390.00" x2="1145" y2="390.00" stroke="#dddddd" stroke-width="1"/>
<text x="104" y="395.00" text-anchor="end" font-family="Arial" font-size="16" fill="black">0.353</text>
<line x1="120" y1="232.50" x2="1145" y2="232.50" stroke="#dddddd" stroke-width="1"/>
<text x="104" y="237.50" text-anchor="end" font-family="Arial" font-size="16" fill="black">0.435</text>
<line x1="120" y1="75.00" x2="1145" y2="75.00" stroke="#dddddd" stroke-width="1"/>
<text x="104" y="80.00" text-anchor="end" font-family="Arial" font-size="16" fill="black">0.517</text>
<rect x="120" y="75" width="1025" height="630" fill="none" stroke="black" stroke-width="2"/>
<text x="632.5" y="785" text-anchor="middle" font-family="Arial" font-size="20" fill="black">x coordinate [m]</text>
<text x="34" y="390.0" transform="rotate(-90 34 390.0)" text-anchor="middle" font-family="Arial" font-size="20" fill="black">|U| [m/s]</text>
<polyline points="190.69,499.83 193.64,499.14 196.58,498.47 199.53,497.78 202.47,497.09 205.42,492.87 208.36,487.24 211.31,481.60 214.25,475.96 217.20,469.11 220.14,460.64 223.09,452.18 226.03,443.71 228.98,435.45 231.93,428.41 234.87,421.35 237.82,414.31 240.76,407.25 243.71,401.86 246.65,396.71 249.60,391.59 252.54,386.46 255.49,382.69 258.43,379.94 261.38,377.17 264.32,374.41 267.27,372.27 270.22,371.70 273.16,371.12 276.11,370.53 279.05,369.95 282.00,371.14 284.94,372.35 287.89,373.53 290.83,374.72 293.78,376.84 296.72,379.31 299.67,381.79 302.62,384.26 305.56,387.13 308.51,390.50 311.45,393.88 314.40,397.25 317.34,400.71 320.29,404.65 323.23,408.59 326.17,412.53 329.13,416.49 332.07,420.68 335.01,424.91 337.96,429.13 340.91,433.38 343.85,437.68 346.80,442.06 349.74,446.44 352.68,450.83 355.64,455.24 358.58,459.72 361.52,464.21 364.47,468.71 367.41,473.19 370.35,477.66 373.31,482.14 376.25,486.61 379.19,491.09 382.15,495.26 385.09,499.29 388.03,503.33 390.98,507.37 393.92,511.00 396.86,514.12 399.82,517.24 402.76,520.33 405.70,523.30 408.65,525.44 411.59,527.56 414.54,529.69 417.49,531.81 420.43,533.40 423.37,534.87 426.33,536.36 429.27,537.85 432.21,539.16 435.16,540.30 438.10,541.47 441.04,542.64 444.00,543.77 446.94,544.84 449.88,545.91 452.83,546.98 455.78,548.05 458.72,549.22 461.67,550.38 464.61,551.55 467.55,552.74 470.51,554.04 473.45,555.41 476.39,556.77 479.34,558.15 482.28,559.62 485.23,561.25 488.18,562.87 491.12,564.50 494.06,566.18 497.02,568.21 499.96,570.26 502.90,572.28 505.85,574.33 508.79,577.03 511.73,579.82 514.69,582.61 517.63,585.41 520.57,588.85 523.52,592.75 526.47,596.67 529.41,600.57 532.36,604.74 535.30,609.53 538.24,614.31 541.20,619.07 544.14,623.85 547.08,628.86 550.03,633.86 552.97,638.87 555.92,643.86 558.87,647.88 561.81,651.49 564.75,655.12 567.71,658.74 570.65,660.75 573.59,660.60 576.54,660.44 579.48,660.29 582.42,659.43 585.38,654.38 588.32,649.33 591.26,644.28 594.21,639.23 597.16,631.20 600.10,622.67 603.05,614.15 605.99,605.62 608.93,597.13 611.89,588.66 614.83,580.18 617.77,571.71 620.72,563.49 623.66,555.89 626.60,548.28 629.56,540.69 632.50,533.09 635.44,524.18 638.40,515.27 641.34,506.35 644.28,497.44 647.23,487.91 650.17,478.12 653.11,468.35 656.07,458.55 659.01,448.80 661.95,439.02 664.90,429.27 667.84,419.49 670.79,409.78 673.74,400.33 676.68,390.88 679.62,381.43 682.58,371.98 685.52,363.01 688.46,354.10 691.41,345.20 694.35,336.29 697.29,327.78 700.25,319.57 703.19,311.37 706.13,303.16 709.08,295.19 712.03,287.76 714.97,280.32 717.92,272.90 720.86,265.46 723.80,258.81 726.76,252.17 729.70,245.51 732.64,238.86 735.59,232.75 738.53,226.86 741.48,220.97 744.43,215.08 747.37,209.51 750.31,204.37 753.27,199.22 756.21,194.08 759.15,189.03 762.10,184.63 765.04,180.21 767.98,175.79 770.94,171.37 773.88,167.57 776.82,163.86 779.77,160.17 782.72,156.45 785.66,153.16 788.61,150.16 791.55,147.16 794.49,144.16 797.45,141.34 800.39,139.03 803.33,136.70 806.28,134.38 809.22,132.07 812.17,130.40 815.12,128.72 818.06,127.06 821.00,125.39 823.96,124.17 826.90,123.12 829.84,122.06 832.79,121.03 835.73,120.23 838.67,119.75 841.63,119.29 844.57,118.83 847.51,118.45 850.46,118.54 853.41,118.64 856.35,118.74 859.30,118.83 862.24,119.39 865.18,120.04 868.14,120.69 871.08,121.34 874.02,122.29 876.97,123.48 879.91,124.68 882.85,125.87 885.81,127.23 888.75,128.97 891.69,130.73 894.65,132.49 897.59,134.25 900.53,136.58 903.48,138.93 906.42,141.27 909.36,143.62 912.32,146.43 915.26,149.42 918.20,152.42 921.15,155.40 924.09,158.73 927.04,162.46 929.99,166.21 932.93,169.94 935.87,173.82 938.83,178.45 941.77,183.08 944.71,187.73 947.66,192.36 950.60,197.92 953.54,203.62 956.50,209.34 959.44,215.06 962.38,221.53 965.33,228.55 968.28,235.57 971.22,242.59 974.17,250.04 977.11,258.61 980.05,267.18 983.01,275.75 985.95,284.32 988.89,294.69 991.84,305.06 994.78,315.42 997.73,325.79 1000.68,337.59 1003.62,349.97 1006.56,362.36 1009.52,374.74 1012.46,388.05 1015.40,402.59 1018.35,417.14 1021.29,431.68 1024.23,446.46 1027.19,462.78 1030.13,479.10 1033.07,495.41 1036.02,511.73 1038.97,529.19 1041.91,546.86 1044.86,564.52 1047.80,582.19 1050.74,597.36 1053.70,610.65 1056.64,623.95 1059.58,637.24 1062.53,647.72 1065.47,651.17 1068.42,654.63 1071.37,658.09 1074.31,661.55" fill="none" stroke="#000000" stroke-width="3"/>
<line x1="142" y1="100" x2="178" y2="100" stroke="#000000" stroke-width="4"/>
<text x="188" y="105" font-family="Arial" font-size="18" fill="black">|U|</text>
</svg>