<svg xmlns="http://www.w3.org/2000/svg" width="1200" height="820" viewBox="0 0 1200 820">
<rect width="100%" height="100%" fill="white"/>
<text x="600.0" y="36" text-anchor="middle" font-family="Arial" font-size="24" fill="black">profile_near_floor_x: T</text>
<line x1="120.00" y1="75" x2="120.00" y2="705" stroke="#dddddd" stroke-width="1"/>
<text x="120.00" y="737" text-anchor="middle" font-family="Arial" font-size="16" fill="black">-0.560</text>
<line x1="376.25" y1="75" x2="376.25" y2="705" stroke="#dddddd" stroke-width="1"/>
<text x="376.25" y="737" text-anchor="middle" font-family="Arial" font-size="16" fill="black">1.470</text>
<line x1="632.50" y1="75" x2="632.50" y2="705" stroke="#dddddd" stroke-width="1"/>
<text x="632.50" y="737" text-anchor="middle" font-family="Arial" font-size="16" fill="black">3.500</text>
<line x1="888.75" y1="75" x2="888.75" y2="705" stroke="#dddddd" stroke-width="1"/>
<text x="888.75" y="737" text-anchor="middle" font-family="Arial" font-size="16" fill="black">5.530</text>
<line x1="1145.00" y1="75" x2="1145.00" y2="705" stroke="#dddddd" stroke-width="1"/>
<text x="1145.00" y="737" text-anchor="middle" font-family="Arial" font-size="16" fill="black">7.560</text>
<line x1="120" y1="705.00" x2="1145" y2="705.00" stroke="#dddddd" stroke-width="1"/>
<text x="104" y="710.00" text-anchor="end" font-family="Arial" font-size="16" fill="black">289.5</text>
<line x1="120" y1="547.50" x2="1145" y2="547.50" stroke="#dddddd" stroke-width="1"/>
<text x="104" y="552.50" text-anchor="end" font-family="Arial" font-size="16" fill="black">295.0</text>
<line x1="120" y1="390.00" x2="1145" y2="390.00" stroke="#dddddd" stroke-width="1"/>
<text x="104" y="395.00" text-anchor="end" font-family="Arial" font-size="16" fill="black">300.5</text>
<line x1="120" y1="232.50" x2="1145" y2="232.50" stroke="#dddddd" stroke-width="1"/>
<text x="104" y="237.50" text-anchor="end" font-family="Arial" font-size="16" fill="black">306.0</text>
<line x1="120" y1="75.00" x2="1145" y2="75.00" stroke="#dddddd" stroke-width="1"/>
<text x="104" y="80.00" text-anchor="end" font-family="Arial" font-size="16" fill="black">311.4</text>
<rect x="120" y="75" width="1025" height="630" fill="none" stroke="black" stroke-width="2"/>
<text x="632.5" y="785" text-anchor="middle" font-family="Arial" font-size="20" fill="black">x coordinate [m]</text>
<text x="34" y="390.0" transform="rotate(-90 34 390.0)" text-anchor="middle" font-family="Arial" font-size="20" fill="black">T [K]</text>
<polyline points="190.69,160.91 193.64,159.19 196.58,157.18 199.53,155.46 202.47,153.45 205.42,151.44 208.36,149.15 211.31,147.14 214.25,144.84 217.20,143.41 220.14,143.41 223.09,143.12 226.03,142.83 228.98,142.55 231.93,142.26 234.87,142.26 237.82,141.97 240.76,141.69 243.71,141.11 246.65,140.25 249.60,139.68 252.54,138.82 255.49,137.96 258.43,136.81 261.38,135.66 264.32,134.51 267.27,133.65 270.22,132.51 273.16,131.65 276.11,130.79 279.05,129.64 282.00,131.07 284.94,132.51 287.89,133.65 290.83,135.09 293.78,143.12 296.72,153.74 299.67,164.64 302.62,175.25 305.56,205.38 308.51,261.61 311.45,317.84 314.40,373.79 317.34,429.16 320.29,480.23 323.23,531.30 326.17,582.37 329.13,633.44 332.07,644.34 335.01,648.93 337.96,653.23 340.91,657.54 343.85,659.54 346.80,660.12 349.74,660.69 352.68,660.98 355.64,661.26 358.58,661.55 361.52,661.55 364.47,661.55 367.41,661.55 370.35,661.55 373.31,661.55 376.25,661.55 379.19,661.55 382.15,661.55 385.09,661.55 388.03,661.55 390.98,661.55 393.92,661.26 396.86,660.98 399.82,660.69 402.76,660.40 405.70,657.82 408.65,639.75 411.59,621.67 414.54,603.60 417.49,585.81 420.43,561.42 423.37,536.18 426.33,510.93 429.27,485.68 432.21,467.61 435.16,454.70 438.10,441.79 441.04,429.16 444.00,417.40 446.94,409.37 449.88,401.05 452.83,392.73 455.78,384.69 458.72,380.39 461.67,375.80 464.61,371.49 467.55,367.19 470.51,364.32 473.45,362.03 476.39,360.02 479.34,357.72 482.28,356.00 485.23,354.57 488.18,353.42 491.12,352.27 494.06,351.12 497.02,350.55 499.96,349.98 502.90,349.40 505.85,348.83 508.79,349.12 511.73,349.69 514.69,349.98 517.63,350.55 520.57,351.70 523.52,353.42 526.47,355.43 529.41,357.44 532.36,359.45 535.30,362.89 538.24,366.04 541.20,369.20 544.14,372.64 547.08,376.37 550.03,380.10 552.97,383.83 555.92,387.85 558.87,395.31 561.81,404.20 564.75,413.38 567.71,422.28 570.65,440.64 573.59,471.05 576.54,501.46 579.48,531.87 582.42,561.42 585.38,585.24 588.32,608.76 591.26,632.57 594.21,656.39 597.16,660.12 600.10,660.40 603.05,660.98 605.99,661.26 608.93,661.55 611.89,661.55 614.83,661.55 617.77,661.55 620.72,661.55 623.66,661.55 626.60,661.55 629.56,661.55 632.50,661.55 635.44,661.55 638.40,661.55 641.34,661.55 644.28,661.55 647.23,661.55 650.17,661.55 653.11,661.55 656.07,661.26 659.01,660.98 661.95,660.12 664.90,659.26 667.84,658.40 670.79,654.38 673.74,631.14 676.68,608.19 679.62,585.24 682.58,562.28 685.52,534.74 688.46,506.63 691.41,478.51 694.35,450.39 697.29,432.60 700.25,422.85 703.19,413.10 706.13,403.63 709.08,394.73 712.03,388.14 714.97,381.25 717.92,374.65 720.86,368.05 723.80,363.46 726.76,359.16 729.70,354.57 732.64,350.26 735.59,347.40 738.53,345.39 741.48,343.38 744.43,341.08 747.37,339.94 750.31,340.22 753.27,340.22 756.21,340.22 759.15,340.80 762.10,342.52 765.04,344.24 767.98,346.25 770.94,347.97 773.88,350.55 776.82,353.42 779.77,356.00 782.72,358.87 785.66,361.45 788.61,363.75 791.55,366.33 794.49,368.63 797.45,370.63 800.39,371.78 803.33,372.64 806.28,373.79 809.22,374.94 812.17,374.36 815.12,374.08 818.06,373.50 821.00,373.22 823.96,375.22 826.90,378.67 829.84,381.82 832.79,384.98 835.73,401.05 838.67,434.33 841.63,467.61 844.57,500.89 847.51,533.59 850.46,564.01 853.41,594.13 856.35,624.25 859.30,654.38 862.24,659.26 865.18,659.83 868.14,660.69 871.08,661.26 874.02,661.55 876.97,661.55 879.91,661.55 882.85,661.55 885.81,661.55 888.75,661.55 891.69,661.55 894.65,661.55 897.59,661.55 900.53,661.55 903.48,661.55 906.42,661.55 909.36,661.55 912.32,661.55 915.26,661.55 918.20,661.26 921.15,661.26 924.09,660.98 927.04,659.83 929.99,658.68 932.93,657.54 935.87,650.94 938.83,611.63 941.77,572.04 944.71,532.73 947.66,493.14 950.60,442.36 953.54,389.86 956.50,337.07 959.44,284.56 962.38,250.71 965.33,231.20 968.28,211.69 971.22,191.89 974.17,175.83 977.11,168.08 980.05,160.62 983.01,152.88 985.95,145.42 988.89,141.97 991.84,138.53 994.78,135.09 997.73,131.65 1000.68,129.35 1003.62,127.34 1006.56,125.33 1009.52,123.33 1012.46,121.89 1015.40,121.03 1018.35,120.17 1021.29,119.02 1024.23,118.45 1027.19,118.45 1030.13,118.45 1033.07,118.74 1036.02,118.74 1038.97,119.60 1041.91,120.46 1044.86,121.32 1047.80,122.18 1050.74,123.33 1053.70,124.47 1056.64,125.62 1059.58,126.77 1062.53,127.63 1065.47,128.20 1068.42,129.06 1071.37,129.64 1074.31,130.21" fill="none" stroke="#000000" stroke-width="3"/>
<line x1="142" y1="100" x2="178" y2="100" stroke="#000000" stroke-width="4"/>
<text x="188" y="105" font-family="Arial" font-size="18" fill="black">T</text>
</svg>