<svg xmlns="http://www.w3.org/2000/svg" width="1200" height="820" viewBox="0 0 1200 820">
<rect width="100%" height="100%" fill="white"/>
<text x="600.0" y="36" text-anchor="middle" font-family="Arial" font-size="24" fill="black">profile_near_ceiling_x: T</text>
<line x1="120.00" y1="75" x2="120.00" y2="705" stroke="#dddddd" stroke-width="1"/>
<text x="120.00" y="737" text-anchor="middle" font-family="Arial" font-size="16" fill="black">-0.560</text>
<line x1="376.25" y1="75" x2="376.25" y2="705" stroke="#dddddd" stroke-width="1"/>
<text x="376.25" y="737" text-anchor="middle" font-family="Arial" font-size="16" fill="black">1.470</text>
<line x1="632.50" y1="75" x2="632.50" y2="705" stroke="#dddddd" stroke-width="1"/>
<text x="632.50" y="737" text-anchor="middle" font-family="Arial" font-size="16" fill="black">3.500</text>
<line x1="888.75" y1="75" x2="888.75" y2="705" stroke="#dddddd" stroke-width="1"/>
<text x="888.75" y="737" text-anchor="middle" font-family="Arial" font-size="16" fill="black">5.530</text>
<line x1="1145.00" y1="75" x2="1145.00" y2="705" stroke="#dddddd" stroke-width="1"/>
<text x="1145.00" y="737" text-anchor="middle" font-family="Arial" font-size="16" fill="black">7.560</text>
<line x1="120" y1="705.00" x2="1145" y2="705.00" stroke="#dddddd" stroke-width="1"/>
<text x="104" y="710.00" text-anchor="end" font-family="Arial" font-size="16" fill="black">303.5</text>
<line x1="120" y1="547.50" x2="1145" y2="547.50" stroke="#dddddd" stroke-width="1"/>
<text x="104" y="552.50" text-anchor="end" font-family="Arial" font-size="16" fill="black">307.7</text>
<line x1="120" y1="390.00" x2="1145" y2="390.00" stroke="#dddddd" stroke-width="1"/>
<text x="104" y="395.00" text-anchor="end" font-family="Arial" font-size="16" fill="black">312.0</text>
<line x1="120" y1="232.50" x2="1145" y2="232.50" stroke="#dddddd" stroke-width="1"/>
<text x="104" y="237.50" text-anchor="end" font-family="Arial" font-size="16" fill="black">316.2</text>
<line x1="120" y1="75.00" x2="1145" y2="75.00" stroke="#dddddd" stroke-width="1"/>
<text x="104" y="80.00" text-anchor="end" font-family="Arial" font-size="16" fill="black">320.5</text>
<rect x="120" y="75" width="1025" height="630" fill="none" stroke="black" stroke-width="2"/>
<text x="632.5" y="785" text-anchor="middle" font-family="Arial" font-size="20" fill="black">x coordinate [m]</text>
<text x="34" y="390.0" transform="rotate(-90 34 390.0)" text-anchor="middle" font-family="Arial" font-size="20" fill="black">T [K]</text>
<polyline points="190.69,431.28 193.64,430.17 196.58,429.43 199.53,428.32 202.47,427.21 205.42,426.10 208.36,424.24 211.31,422.76 214.25,420.91 217.20,419.80 220.14,418.69 223.09,417.58 226.03,416.47 228.98,415.36 231.93,414.25 234.87,413.51 237.82,412.77 240.76,412.03 243.71,411.29 246.65,410.92 249.60,410.18 252.54,409.81 255.49,409.44 258.43,409.44 261.38,409.07 264.32,409.07 267.27,409.07 270.22,409.07 273.16,409.44 276.11,409.81 279.05,409.81 282.00,410.55 284.94,411.29 287.89,412.40 290.83,413.14 293.78,414.25 296.72,415.73 299.67,417.21 302.62,418.32 305.56,420.17 308.51,422.39 311.45,424.61 314.40,426.84 317.34,429.06 320.29,432.02 323.23,435.35 326.17,438.31 329.13,441.27 332.07,445.35 335.01,449.05 337.96,453.12 340.91,457.19 343.85,461.64 346.80,466.82 349.74,471.63 352.68,476.44 355.64,482.00 358.58,487.92 361.52,493.47 364.47,499.40 367.41,505.32 370.35,511.99 373.31,518.65 376.25,525.31 379.19,531.98 382.15,539.01 385.09,546.05 388.03,552.71 390.98,559.74 393.92,566.78 396.86,573.07 399.82,579.73 402.76,586.40 405.70,592.69 408.65,598.25 411.59,603.80 414.54,609.35 417.49,614.90 420.43,619.35 423.37,623.42 426.33,627.49 429.27,631.56 432.21,635.27 435.16,638.23 438.10,641.19 441.04,644.15 444.00,646.74 446.94,648.96 449.88,650.82 452.83,653.04 455.78,654.89 458.72,656.37 461.67,657.48 464.61,658.59 467.55,660.07 470.51,660.44 473.45,660.81 476.39,661.18 479.34,661.55 482.28,661.55 485.23,660.81 488.18,660.07 491.12,659.33 494.06,658.59 497.02,656.00 499.96,653.78 502.90,651.56 505.85,649.33 508.79,645.26 511.73,640.82 514.69,636.38 517.63,631.56 520.57,625.64 523.52,618.24 526.47,610.83 529.41,603.06 532.36,594.91 535.30,584.92 538.24,574.92 541.20,564.93 544.14,554.93 547.08,543.08 550.03,530.87 552.97,519.02 555.92,507.17 558.87,494.22 561.81,481.26 564.75,467.93 567.71,454.97 570.65,441.64 573.59,428.32 576.54,414.62 579.48,401.29 582.42,387.59 585.38,374.27 588.32,360.94 591.26,347.61 594.21,334.28 597.16,321.70 600.10,309.85 603.05,297.63 605.99,285.78 608.93,275.42 611.89,266.53 614.83,257.65 617.77,248.76 620.72,240.99 623.66,235.07 626.60,228.77 629.56,222.85 632.50,216.93 635.44,212.48 638.40,207.67 641.34,203.23 644.28,198.41 647.23,194.71 650.17,191.01 653.11,187.31 656.07,183.61 659.01,180.27 661.95,177.31 664.90,173.98 667.84,171.02 670.79,168.06 673.74,165.47 676.68,162.87 679.62,160.28 682.58,157.69 685.52,155.47 688.46,153.25 691.41,151.03 694.35,148.81 697.29,146.95 700.25,145.10 703.19,143.25 706.13,141.40 709.08,139.55 712.03,138.07 714.97,136.59 717.92,135.11 720.86,133.63 723.80,132.52 726.76,131.41 729.70,130.30 732.64,128.81 735.59,128.07 738.53,126.96 741.48,126.22 744.43,125.11 747.37,124.37 750.31,123.63 753.27,122.89 756.21,122.15 759.15,121.78 762.10,121.04 765.04,120.67 767.98,120.30 770.94,119.93 773.88,119.56 776.82,119.19 779.77,119.19 782.72,118.82 785.66,118.82 788.61,118.82 791.55,118.45 794.49,118.45 797.45,118.45 800.39,118.82 803.33,118.82 806.28,119.19 809.22,119.19 812.17,119.56 815.12,119.93 818.06,120.30 821.00,120.67 823.96,121.41 826.90,121.78 829.84,122.52 832.79,122.89 835.73,123.63 838.67,124.37 841.63,125.48 844.57,126.22 847.51,126.96 850.46,128.07 853.41,129.18 856.35,130.30 859.30,131.41 862.24,132.52 865.18,133.63 868.14,135.11 871.08,136.22 874.02,137.70 876.97,139.18 879.91,140.66 882.85,142.14 885.81,143.99 888.75,145.47 891.69,147.32 894.65,149.18 897.59,151.03 900.53,152.88 903.48,154.73 906.42,156.95 909.36,158.80 912.32,161.02 915.26,162.87 918.20,165.10 921.15,167.32 924.09,169.54 927.04,171.76 929.99,173.98 932.93,176.20 935.87,178.79 938.83,181.01 941.77,183.24 944.71,185.83 947.66,188.05 950.60,190.64 953.54,192.86 956.50,195.45 959.44,197.67 962.38,199.90 965.33,202.49 968.28,204.71 971.22,206.93 974.17,209.15 977.11,211.37 980.05,213.59 983.01,215.81 985.95,218.04 988.89,219.89 991.84,222.11 994.78,223.96 997.73,225.81 1000.68,227.66 1003.62,229.14 1006.56,230.99 1009.52,232.47 1012.46,234.33 1015.40,235.44 1018.35,236.92 1021.29,238.03 1024.23,239.51 1027.19,240.25 1030.13,241.36 1033.07,242.10 1036.02,243.21 1038.97,243.95 1041.91,244.32 1044.86,245.06 1047.80,245.80 1050.74,246.17 1053.70,246.91 1056.64,247.65 1059.58,248.02 1062.53,248.76 1065.47,249.13 1068.42,249.50 1071.37,249.87 1074.31,250.24" fill="none" stroke="#000000" stroke-width="3"/>
<line x1="142" y1="100" x2="178" y2="100" stroke="#000000" stroke-width="4"/>
<text x="188" y="105" font-family="Arial" font-size="18" fill="black">T</text>
</svg>