<svg xmlns="http://www.w3.org/2000/svg" width="1200" height="820" viewBox="0 0 1200 820">
<rect width="100%" height="100%" fill="white"/>
<text x="600.0" y="36" text-anchor="middle" font-family="Arial" font-size="24" fill="black">Velocity components along x-centerline</text>
<line x1="115.00" y1="75" x2="115.00" y2="705" stroke="#dddddd" stroke-width="1"/>
<text x="115.00" y="737" text-anchor="middle" font-family="Arial" font-size="16" fill="black">-0.560</text>
<line x1="372.50" y1="75" x2="372.50" y2="705" stroke="#dddddd" stroke-width="1"/>
<text x="372.50" y="737" text-anchor="middle" font-family="Arial" font-size="16" fill="black">1.470</text>
<line x1="630.00" y1="75" x2="630.00" y2="705" stroke="#dddddd" stroke-width="1"/>
<text x="630.00" y="737" text-anchor="middle" font-family="Arial" font-size="16" fill="black">3.500</text>
<line x1="887.50" y1="75" x2="887.50" y2="705" stroke="#dddddd" stroke-width="1"/>
<text x="887.50" y="737" text-anchor="middle" font-family="Arial" font-size="16" fill="black">5.530</text>
<line x1="1145.00" y1="75" x2="1145.00" y2="705" stroke="#dddddd" stroke-width="1"/>
<text x="1145.00" y="737" text-anchor="middle" font-family="Arial" font-size="16" fill="black">7.560</text>
<line x1="115" y1="705.00" x2="1145" y2="705.00" stroke="#dddddd" stroke-width="1"/>
<text x="99" y="710.00" text-anchor="end" font-family="Arial" font-size="16" fill="black">-0.578</text>
<line x1="115" y1="547.50" x2="1145" y2="547.50" stroke="#dddddd" stroke-width="1"/>
<text x="99" y="552.50" text-anchor="end" font-family="Arial" font-size="16" fill="black">-0.285</text>
<line x1="115" y1="390.00" x2="1145" y2="390.00" stroke="#dddddd" stroke-width="1"/>
<text x="99" y="395.00" text-anchor="end" font-family="Arial" font-size="16" fill="black">0.007</text>
<line x1="115" y1="232.50" x2="1145" y2="232.50" stroke="#dddddd" stroke-width="1"/>
<text x="99" y="237.50" text-anchor="end" font-family="Arial" font-size="16" fill="black">0.300</text>
<line x1="115" y1="75.00" x2="1145" y2="75.00" stroke="#dddddd" stroke-width="1"/>
<text x="99" y="80.00" text-anchor="end" font-family="Arial" font-size="16" fill="black">0.593</text>
<rect x="115" y="75" width="1030" height="630" fill="none" stroke="black" stroke-width="2"/>
<text x="630.0" y="785" text-anchor="middle" font-family="Arial" font-size="20" fill="black">x coordinate [m]</text>
<text x="34" y="390.0" transform="rotate(-90 34 390.0)" text-anchor="middle" font-family="Arial" font-size="20" fill="black">velocity [m/s]</text>
<polyline points="186.03,384.14 188.99,383.37 191.95,382.60 194.91,381.82 197.87,381.05 200.83,379.95 203.79,378.72 206.75,377.49 209.71,376.26 212.67,375.97 215.63,376.94 218.59,377.90 221.55,378.87 224.51,380.38 227.47,385.13 230.43,389.89 233.39,394.64 236.35,399.40 239.31,406.51 242.27,414.01 245.23,421.51 248.19,429.01 251.15,436.91 254.11,445.10 257.07,453.29 260.03,461.49 262.99,469.38 265.95,476.54 268.91,483.70 271.87,490.86 274.83,498.03 277.79,502.43 280.75,506.84 283.71,511.24 286.67,515.65 289.63,516.82 292.59,516.70 295.55,516.57 298.51,516.45 301.47,514.24 304.42,509.26 307.39,504.27 310.34,499.29 313.30,493.88 316.27,485.91 319.22,477.95 322.18,469.99 325.15,462.02 328.10,454.27 331.06,446.56 334.03,438.84 336.98,431.13 339.94,424.00 342.91,417.33 345.86,410.66 348.82,403.98 351.79,397.50 354.74,391.49 357.70,385.48 360.67,379.47 363.62,373.46 366.58,367.48 369.54,361.50 372.50,355.52 375.46,349.54 378.42,343.14 381.38,336.57 384.33,329.99 387.30,323.42 390.26,317.19 393.21,311.42 396.18,305.65 399.14,299.87 402.09,294.52 405.06,291.65 408.02,288.78 410.97,285.92 413.94,283.05 416.90,284.20 419.85,286.02 422.82,287.83 425.78,289.65 428.73,293.76 431.70,299.58 434.66,305.40 437.61,311.22 440.58,317.49 443.53,324.86 446.49,332.23 449.46,339.60 452.41,346.97 455.37,353.67 458.34,360.37 461.29,367.07 464.25,373.77 467.22,379.36 470.17,384.52 473.13,389.68 476.10,394.83 479.05,399.50 482.01,403.52 484.98,407.54 487.93,411.55 490.89,415.54 493.85,419.30 496.81,423.07 499.77,426.84 502.73,430.61 505.69,434.60 508.65,438.62 511.61,442.65 514.57,446.68 517.52,450.83 520.49,455.09 523.45,459.34 526.40,463.60 529.37,467.88 532.33,472.25 535.28,476.61 538.25,480.98 541.21,485.34 544.16,489.60 547.13,493.86 550.09,498.12 553.04,502.38 556.01,506.12 558.97,509.65 561.92,513.19 564.89,516.72 567.84,519.41 570.80,520.95 573.77,522.49 576.72,524.03 579.68,525.06 582.65,522.97 585.60,520.89 588.56,518.80 591.53,516.72 594.48,511.30 597.44,505.33 600.41,499.36 603.36,493.39 606.32,486.55 609.29,479.06 612.24,471.57 615.20,464.09 618.17,456.79 621.12,449.93 624.08,443.08 627.04,436.23 630.00,429.38 632.96,423.23 635.92,417.08 638.88,410.94 641.83,404.79 644.80,398.74 647.76,392.72 650.71,386.70 653.68,380.68 656.64,375.11 659.59,370.15 662.56,365.18 665.52,360.21 668.47,355.65 671.44,353.52 674.40,351.40 677.35,349.27 680.32,347.15 683.28,347.80 686.23,348.92 689.20,350.04 692.16,351.15 695.11,353.67 698.08,357.24 701.03,360.80 703.99,364.37 706.96,368.22 709.91,372.78 712.87,377.34 715.84,381.90 718.79,386.46 721.75,390.72 724.72,394.97 727.67,399.22 730.63,403.48 733.60,407.05 736.55,410.36 739.51,413.66 742.48,416.97 745.43,419.96 748.39,422.55 751.35,425.14 754.31,427.73 757.27,430.33 760.23,432.96 763.19,435.60 766.15,438.24 769.11,440.88 772.07,444.00 775.02,447.19 777.99,450.39 780.95,453.58 783.90,457.17 786.87,461.05 789.83,464.92 792.78,468.80 795.75,472.78 798.71,477.06 801.66,481.34 804.63,485.62 807.59,489.90 810.54,493.91 813.51,497.92 816.47,501.93 819.42,505.94 822.39,509.08 825.34,511.87 828.30,514.66 831.27,517.45 834.22,519.31 837.18,519.94 840.15,520.57 843.10,521.20 846.06,521.48 849.03,519.69 851.98,517.91 854.94,516.12 857.91,514.33 860.86,511.12 863.82,507.66 866.79,504.20 869.74,500.75 872.70,496.95 875.67,492.89 878.62,488.84 881.58,484.78 884.54,480.69 887.50,476.51 890.46,472.34 893.42,468.16 896.38,463.99 899.33,459.53 902.30,455.08 905.26,450.63 908.21,446.18 911.18,441.62 914.14,437.03 917.09,432.43 920.06,427.84 923.02,423.77 925.97,420.42 928.94,417.06 931.90,413.70 934.85,410.72 937.82,410.01 940.78,409.29 943.73,408.58 946.70,407.86 949.66,409.27 952.61,411.04 955.58,412.81 958.53,414.57 961.49,417.01 964.46,419.94 967.41,422.88 970.37,425.82 973.34,428.73 976.29,431.60 979.25,434.46 982.22,437.32 985.17,440.18 988.13,442.29 991.10,444.40 994.05,446.50 997.01,448.61 999.98,449.93 1002.93,450.94 1005.89,451.95 1008.85,452.96 1011.81,453.44 1014.77,453.21 1017.73,452.97 1020.69,452.74 1023.65,452.34 1026.61,450.87 1029.57,449.40 1032.52,447.94 1035.49,446.47 1038.45,443.84 1041.40,441.02 1044.37,438.20 1047.33,435.37 1050.28,432.07 1053.25,428.39 1056.21,424.72 1059.16,421.05 1062.13,417.88 1065.09,416.00 1068.04,414.11 1071.01,412.23 1073.97,410.34" fill="none" stroke="#1f77b4" stroke-width="3"/>
<line x1="137" y1="100" x2="173" y2="100" stroke="#1f77b4" stroke-width="4"/>
<text x="183" y="105" font-family="Arial" font-size="18" fill="black">Ux</text>
<polyline points="186.03,423.07 188.99,422.17 191.95,421.27 194.91,420.37 197.87,419.46 200.83,418.45 203.79,417.40 206.75,416.35 209.71,415.29 212.67,414.75 215.63,414.90 218.59,415.04 221.55,415.19 224.51,415.42 227.47,416.19 230.43,416.96 233.39,417.72 236.35,418.49 239.31,419.35 242.27,420.23 245.23,421.11 248.19,421.99 251.15,422.81 254.11,423.57 257.07,424.33 260.03,425.10 262.99,425.82 265.95,426.45 268.91,427.09 271.87,427.72 274.83,428.35 277.79,428.49 280.75,428.63 283.71,428.78 286.67,428.92 289.63,428.05 292.59,426.77 295.55,425.49 298.51,424.21 301.47,422.45 304.42,420.06 307.39,417.66 310.34,415.27 313.30,412.94 316.27,411.02 319.22,409.09 322.18,407.17 325.15,405.24 328.10,404.00 331.06,402.88 334.03,401.75 336.98,400.63 339.94,399.65 342.91,398.79 345.86,397.93 348.82,397.07 351.79,396.24 354.74,395.49 357.70,394.73 360.67,393.98 363.62,393.23 366.58,392.56 369.54,391.90 372.50,391.24 375.46,390.58 378.42,390.28 381.38,390.12 384.33,389.97 387.30,389.81 390.26,390.22 393.21,391.37 396.18,392.53 399.14,393.68 402.09,395.02 405.06,397.44 408.02,399.85 410.97,402.27 413.94,404.68 416.90,406.26 419.85,407.70 422.82,409.14 425.78,410.59 428.73,410.18 431.70,408.38 434.66,406.59 437.61,404.79 440.58,402.12 443.53,397.23 446.49,392.34 449.46,387.45 452.41,382.56 455.37,376.73 458.34,370.90 461.29,365.06 464.25,359.23 467.22,354.84 470.17,351.03 473.13,347.21 476.10,343.40 479.05,340.86 482.01,340.02 484.98,339.18 487.93,338.34 490.89,337.70 493.85,338.21 496.81,338.72 499.77,339.24 502.73,339.75 505.69,340.08 508.65,340.37 511.61,340.66 514.57,340.96 517.52,341.01 520.49,340.87 523.45,340.73 526.40,340.59 529.37,340.45 532.33,340.28 535.28,340.12 538.25,339.95 541.21,339.79 544.16,339.93 547.13,340.07 550.09,340.21 553.04,340.35 556.01,340.78 558.97,341.32 561.92,341.86 564.89,342.40 567.84,343.06 570.80,343.87 573.77,344.67 576.72,345.48 579.68,346.29 582.65,347.13 585.60,347.98 588.56,348.83 591.53,349.67 594.48,350.56 597.44,351.45 600.41,352.34 603.36,353.23 606.32,354.23 609.29,355.33 612.24,356.43 615.20,357.53 618.17,358.69 621.12,360.02 624.08,361.36 627.04,362.69 630.00,364.02 632.96,365.49 635.92,366.97 638.88,368.44 641.83,369.92 644.80,371.49 647.76,373.10 650.71,374.70 653.68,376.31 656.64,378.02 659.59,379.87 662.56,381.72 665.52,383.58 668.47,385.45 671.44,387.42 674.40,389.40 677.35,391.37 680.32,393.35 683.28,395.15 686.23,396.91 689.20,398.68 692.16,400.44 695.11,401.98 698.08,403.34 701.03,404.70 703.99,406.06 706.96,407.29 709.91,408.21 712.87,409.13 715.84,410.05 718.79,410.98 721.75,411.57 724.72,412.16 727.67,412.75 730.63,413.34 733.60,413.79 736.55,414.19 739.51,414.58 742.48,414.98 745.43,415.33 748.39,415.61 751.35,415.89 754.31,416.18 757.27,416.44 760.23,416.62 763.19,416.79 766.15,416.97 769.11,417.15 772.07,417.20 775.02,417.23 777.99,417.26 780.95,417.30 783.90,417.24 786.87,417.12 789.83,417.00 792.78,416.87 795.75,416.72 798.71,416.49 801.66,416.26 804.63,416.03 807.59,415.80 810.54,415.55 813.51,415.30 816.47,415.05 819.42,414.80 822.39,414.60 825.34,414.42 828.30,414.24 831.27,414.06 834.22,413.92 837.18,413.84 840.15,413.77 843.10,413.69 846.06,413.63 849.03,413.69 851.98,413.74 854.94,413.80 857.91,413.85 860.86,414.05 863.82,414.28 866.79,414.50 869.74,414.72 872.70,415.00 875.67,415.30 878.62,415.61 881.58,415.92 884.54,416.21 887.50,416.43 890.46,416.66 893.42,416.89 896.38,417.11 899.33,417.17 902.30,417.22 905.26,417.28 908.21,417.33 911.18,417.15 914.14,416.87 917.09,416.59 920.06,416.31 923.02,415.82 925.97,415.02 928.94,414.23 931.90,413.44 934.85,412.57 937.82,411.24 940.78,409.91 943.73,408.57 946.70,407.24 949.66,405.40 952.61,403.48 955.58,401.55 958.53,399.63 961.49,397.43 964.46,395.02 967.41,392.61 970.37,390.20 973.34,387.72 976.29,385.09 979.25,382.46 982.22,379.83 985.17,377.20 988.13,374.51 991.10,371.83 994.05,369.14 997.01,366.45 999.98,363.86 1002.93,361.30 1005.89,358.75 1008.85,356.20 1011.81,353.84 1014.77,351.76 1017.73,349.67 1020.69,347.58 1023.65,345.62 1026.61,344.40 1029.57,343.18 1032.52,341.96 1035.49,340.75 1038.45,340.65 1041.40,340.75 1044.37,340.84 1047.33,340.93 1050.28,342.20 1053.25,344.34 1056.21,346.48 1059.16,348.63 1062.13,350.65 1065.09,352.36 1068.04,354.07 1071.01,355.79 1073.97,357.50" fill="none" stroke="#d62728" stroke-width="3"/>
<line x1="137" y1="128" x2="173" y2="128" stroke="#d62728" stroke-width="4"/>
<text x="183" y="133" font-family="Arial" font-size="18" fill="black">Uy</text>
<polyline points="186.03,527.06 188.99,526.90 191.95,526.74 194.91,526.59 197.87,526.44 200.83,526.08 203.79,525.65 206.75,525.21 209.71,524.77 212.67,524.58 215.63,524.70 218.59,524.82 221.55,524.94 224.51,525.26 227.47,526.77 230.43,528.26 233.39,529.76 236.35,531.26 239.31,532.98 242.27,534.74 245.23,536.50 248.19,538.26 251.15,538.80 254.11,538.44 257.07,538.08 260.03,537.72 262.99,536.08 265.95,531.25 268.91,526.42 271.87,521.60 274.83,516.77 277.79,505.70 280.75,494.63 283.71,483.56 286.67,472.50 289.63,456.45 292.59,438.42 295.55,420.38 298.51,402.35 301.47,382.88 304.42,361.52 307.39,340.16 310.34,318.79 313.30,298.21 316.27,282.28 319.22,266.35 322.18,250.43 325.15,234.50 328.10,226.48 331.06,219.77 334.03,213.07 336.98,206.37 339.94,202.32 342.91,200.27 345.86,198.22 348.82,196.16 351.79,194.30 354.74,192.90 357.70,191.50 360.67,190.11 363.62,188.71 366.58,188.69 369.54,188.68 372.50,188.67 375.46,188.65 378.42,193.67 381.38,200.70 384.33,207.73 387.30,214.76 390.26,226.21 393.21,243.54 396.18,260.87 399.14,278.20 402.09,296.19 405.06,318.13 408.02,340.06 410.97,361.99 413.94,383.93 416.90,403.48 419.85,422.64 422.82,441.80 425.78,460.96 428.73,477.02 431.70,490.75 434.66,504.48 437.61,518.21 440.58,530.73 443.53,540.25 446.49,549.77 449.46,559.29 452.41,568.81 455.37,576.61 458.34,584.41 461.29,592.20 464.25,600.00 467.22,607.32 470.17,614.46 473.13,621.60 476.10,628.74 479.05,635.02 482.01,640.13 484.98,645.25 487.93,650.36 490.89,654.98 493.85,656.62 496.81,658.26 499.77,659.91 502.73,661.55 505.69,660.40 508.65,658.78 511.61,657.17 514.57,655.55 517.52,652.63 520.49,648.73 523.45,644.83 526.40,640.93 529.37,636.58 532.33,631.10 535.28,625.62 538.25,620.14 541.21,614.65 544.16,607.72 547.13,600.79 550.09,593.86 553.04,586.92 556.01,578.86 558.97,570.34 561.92,561.82 564.89,553.31 567.84,544.13 570.80,534.08 573.77,524.02 576.72,513.97 579.68,503.77 582.65,492.75 585.60,481.72 588.56,470.70 591.53,459.67 594.48,449.95 597.44,440.44 600.41,430.92 603.36,421.41 606.32,414.51 609.29,409.55 612.24,404.60 615.20,399.65 618.17,395.82 621.12,394.78 624.08,393.74 627.04,392.70 630.00,391.65 632.96,392.16 635.92,392.66 638.88,393.17 641.83,393.67 644.80,395.43 647.76,397.68 650.71,399.94 653.68,402.20 656.64,406.06 659.59,412.05 662.56,418.05 665.52,424.05 668.47,430.36 671.44,438.55 674.40,446.75 677.35,454.94 680.32,463.13 683.28,470.33 686.23,477.36 689.20,484.39 692.16,491.41 695.11,497.10 698.08,501.79 701.03,506.47 703.99,511.15 706.96,515.09 709.91,517.14 712.87,519.20 715.84,521.25 718.79,523.31 721.75,523.46 724.72,523.61 727.67,523.76 730.63,523.92 733.60,523.60 736.55,523.09 739.51,522.59 742.48,522.08 745.43,521.67 748.39,521.37 751.35,521.08 754.31,520.78 757.27,520.54 760.23,520.53 763.19,520.52 766.15,520.51 769.11,520.51 772.07,520.40 775.02,520.27 777.99,520.14 780.95,520.01 783.90,519.51 786.87,518.73 789.83,517.96 792.78,517.18 795.75,516.07 798.71,514.13 801.66,512.20 804.63,510.26 807.59,508.33 810.54,504.99 813.51,501.65 816.47,498.32 819.42,494.98 822.39,490.85 825.34,486.38 828.30,481.92 831.27,477.46 834.22,472.86 837.18,468.08 840.15,463.29 843.10,458.51 846.06,453.81 849.03,449.65 851.98,445.49 854.94,441.33 857.91,437.17 860.86,434.35 863.82,431.75 866.79,429.14 869.74,426.54 872.70,424.83 875.67,423.79 878.62,422.74 881.58,421.70 884.54,420.89 887.50,420.66 890.46,420.44 893.42,420.21 896.38,419.98 899.33,420.35 902.30,420.73 905.26,421.10 908.21,421.47 911.18,422.77 914.14,424.45 917.09,426.12 920.06,427.79 923.02,430.46 925.97,434.44 928.94,438.43 931.90,442.42 934.85,446.63 937.82,452.21 940.78,457.80 943.73,463.38 946.70,468.96 949.66,474.47 952.61,479.96 955.58,485.45 958.53,490.94 961.49,495.83 964.46,500.26 967.41,504.69 970.37,509.12 973.34,513.18 976.29,516.32 979.25,519.46 982.22,522.59 985.17,525.73 988.13,527.86 991.10,530.00 994.05,532.13 997.01,534.26 999.98,535.96 1002.93,537.48 1005.89,539.00 1008.85,540.52 1011.81,541.95 1014.77,543.29 1017.73,544.61 1020.69,545.94 1023.65,547.30 1026.61,548.81 1029.57,550.31 1032.52,551.81 1035.49,553.32 1038.45,555.12 1041.40,556.97 1044.37,558.82 1047.33,560.67 1050.28,562.66 1053.25,564.77 1056.21,566.86 1059.16,568.97 1062.13,570.78 1065.09,571.87 1068.04,572.95 1071.01,574.03 1073.97,575.12" fill="none" stroke="#2ca02c" stroke-width="3"/>
<line x1="137" y1="156" x2="173" y2="156" stroke="#2ca02c" stroke-width="4"/>
<text x="183" y="161" font-family="Arial" font-size="18" fill="black">Uz</text>
<polyline points="186.03,257.34 188.99,257.61 191.95,257.87 194.91,258.14 197.87,258.40 200.83,258.81 203.79,259.28 206.75,259.74 209.71,260.20 212.67,260.45 215.63,260.43 218.59,260.41 221.55,260.38 224.51,260.15 227.47,258.68 230.43,257.23 233.39,255.76 236.35,254.30 239.31,251.52 242.27,248.53 245.23,245.53 248.19,242.53 251.15,239.71 254.11,237.01 257.07,234.31 260.03,231.61 262.99,229.66 265.95,229.57 268.91,229.49 271.87,229.41 274.83,229.33 277.79,233.11 280.75,236.89 283.71,240.67 286.67,244.46 289.63,249.28 292.59,254.51 295.55,259.76 298.51,265.00 301.47,266.69 304.42,263.64 307.39,260.60 310.34,257.55 313.30,253.73 316.27,245.25 319.22,236.76 322.18,228.27 325.15,219.78 328.10,214.94 331.06,210.70 334.03,206.47 336.98,202.23 339.94,199.64 342.91,198.28 345.86,196.93 348.82,195.58 351.79,194.15 354.74,192.53 357.70,190.92 360.67,189.30 363.62,187.69 366.58,186.71 369.54,185.73 372.50,184.76 375.46,183.78 378.42,186.86 381.38,191.55 384.33,196.25 387.30,200.95 390.26,208.53 393.21,219.95 396.18,231.37 399.14,242.79 402.09,253.56 405.06,260.39 408.02,267.23 410.97,274.07 413.94,280.90 416.90,278.47 419.85,274.49 422.82,270.51 425.78,266.53 428.73,261.28 431.70,255.08 434.66,248.89 437.61,242.69 440.58,236.55 443.53,230.54 446.49,224.54 449.46,218.53 452.41,212.53 455.37,205.34 458.34,198.15 461.29,190.97 464.25,183.79 467.22,176.33 470.17,168.76 473.13,161.19 476.10,153.62 479.05,147.00 482.01,141.63 484.98,136.27 487.93,130.91 490.89,126.04 493.85,124.14 496.81,122.24 499.77,120.35 502.73,118.45 505.69,118.99 508.65,119.93 511.61,120.88 514.57,121.82 517.52,123.75 520.49,126.40 523.45,129.06 526.40,131.72 529.37,134.65 532.33,138.23 535.28,141.82 538.25,145.42 541.21,149.00 544.16,153.27 547.13,157.54 550.09,161.81 553.04,166.08 556.01,170.89 558.97,175.92 561.92,180.95 564.89,185.98 567.84,191.48 570.80,197.62 573.77,203.77 576.72,209.91 579.68,216.29 582.65,224.14 585.60,231.99 588.56,239.84 591.53,247.69 594.48,256.34 597.44,265.12 600.41,273.89 603.36,282.67 606.32,290.91 609.29,298.73 612.24,306.55 615.20,314.38 618.17,321.81 621.12,328.23 624.08,334.66 627.04,341.09 630.00,347.51 632.96,352.45 635.92,357.38 638.88,362.31 641.83,367.24 644.80,368.62 647.76,368.57 650.71,368.53 653.68,368.49 656.64,365.75 659.59,359.44 662.56,353.12 665.52,346.80 668.47,340.32 671.44,332.83 674.40,325.33 677.35,317.84 680.32,310.35 683.28,304.36 686.23,298.62 689.20,292.88 692.16,287.14 695.11,282.69 698.08,279.19 701.03,275.70 703.99,272.21 706.96,269.28 709.91,267.77 712.87,266.27 715.84,264.77 718.79,263.26 721.75,262.98 724.72,262.69 727.67,262.40 730.63,262.12 733.60,262.02 736.55,262.01 739.51,262.00 742.48,261.99 745.43,261.83 748.39,261.46 751.35,261.10 754.31,260.75 757.27,260.32 760.23,259.49 763.19,258.65 766.15,257.81 769.11,256.98 772.07,255.89 775.02,254.76 777.99,253.63 780.95,252.50 783.90,251.35 786.87,250.17 789.83,249.00 792.78,247.83 795.75,246.74 798.71,245.82 801.66,244.90 804.63,243.98 807.59,243.07 810.54,242.70 813.51,242.32 816.47,241.95 819.42,241.58 822.39,241.82 825.34,242.32 828.30,242.82 831.27,243.32 834.22,244.37 837.18,246.14 840.15,247.92 843.10,249.69 846.06,251.67 849.03,254.88 851.98,258.08 854.94,261.27 857.91,264.47 860.86,268.36 863.82,272.35 866.79,276.35 869.74,280.35 872.70,284.36 875.67,288.39 878.62,292.42 881.58,296.45 884.54,300.42 887.50,304.24 890.46,308.07 893.42,311.89 896.38,315.72 899.33,319.38 902.30,323.05 905.26,326.72 908.21,330.39 911.18,333.23 914.14,335.73 917.09,338.23 920.06,340.73 923.02,341.57 925.97,340.19 928.94,338.80 931.90,337.42 934.85,335.56 937.82,330.78 940.78,326.01 943.73,321.24 946.70,316.47 949.66,311.07 952.61,305.57 955.58,300.07 958.53,294.56 961.49,289.34 964.46,284.33 967.41,279.31 970.37,274.29 973.34,269.55 976.29,265.48 979.25,261.42 982.22,257.35 985.17,253.29 988.13,250.18 991.10,247.07 994.05,243.95 997.01,240.85 999.98,238.32 1002.93,236.04 1005.89,233.76 1008.85,231.47 1011.81,229.45 1014.77,227.80 1017.73,226.14 1020.69,224.48 1023.65,222.88 1026.61,221.64 1029.57,220.39 1032.52,219.15 1035.49,217.91 1038.45,216.93 1041.40,215.99 1044.37,215.05 1047.33,214.12 1050.28,213.28 1053.25,212.51 1056.21,211.75 1059.16,210.98 1062.13,210.30 1065.09,209.83 1068.04,209.37 1071.01,208.89 1073.97,208.42" fill="none" stroke="#111111" stroke-width="3"/>
<line x1="137" y1="184" x2="173" y2="184" stroke="#111111" stroke-width="4"/>
<text x="183" y="189" font-family="Arial" font-size="18" fill="black">Umag</text>
</svg>