<svg xmlns="http://www.w3.org/2000/svg" width="1200" height="820" viewBox="0 0 1200 820">
<rect width="100%" height="100%" fill="white"/>
<text x="600.0" y="36" text-anchor="middle" font-family="Arial" font-size="24" fill="black">profile_center_x: rho</text>
<line x1="120.00" y1="75" x2="120.00" y2="705" stroke="#dddddd" stroke-width="1"/>
<text x="120.00" y="737" text-anchor="middle" font-family="Arial" font-size="16" fill="black">-0.560</text>
<line x1="376.25" y1="75" x2="376.25" y2="705" stroke="#dddddd" stroke-width="1"/>
<text x="376.25" y="737" text-anchor="middle" font-family="Arial" font-size="16" fill="black">1.470</text>
<line x1="632.50" y1="75" x2="632.50" y2="705" stroke="#dddddd" stroke-width="1"/>
<text x="632.50" y="737" text-anchor="middle" font-family="Arial" font-size="16" fill="black">3.500</text>
<line x1="888.75" y1="75" x2="888.75" y2="705" stroke="#dddddd" stroke-width="1"/>
<text x="888.75" y="737" text-anchor="middle" font-family="Arial" font-size="16" fill="black">5.530</text>
<line x1="1145.00" y1="75" x2="1145.00" y2="705" stroke="#dddddd" stroke-width="1"/>
<text x="1145.00" y="737" text-anchor="middle" font-family="Arial" font-size="16" fill="black">7.560</text>
<line x1="120" y1="705.00" x2="1145" y2="705.00" stroke="#dddddd" stroke-width="1"/>
<text x="104" y="710.00" text-anchor="end" font-family="Arial" font-size="16" fill="black">1.134</text>
<line x1="120" y1="547.50" x2="1145" y2="547.50" stroke="#dddddd" stroke-width="1"/>
<text x="104" y="552.50" text-anchor="end" font-family="Arial" font-size="16" fill="black">1.137</text>
<line x1="120" y1="390.00" x2="1145" y2="390.00" stroke="#dddddd" stroke-width="1"/>
<text x="104" y="395.00" text-anchor="end" font-family="Arial" font-size="16" fill="black">1.139</text>
<line x1="120" y1="232.50" x2="1145" y2="232.50" stroke="#dddddd" stroke-width="1"/>
<text x="104" y="237.50" text-anchor="end" font-family="Arial" font-size="16" fill="black">1.142</text>
<line x1="120" y1="75.00" x2="1145" y2="75.00" stroke="#dddddd" stroke-width="1"/>
<text x="104" y="80.00" text-anchor="end" font-family="Arial" font-size="16" fill="black">1.145</text>
<rect x="120" y="75" width="1025" height="630" fill="none" stroke="black" stroke-width="2"/>
<text x="632.5" y="785" text-anchor="middle" font-family="Arial" font-size="20" fill="black">x coordinate [m]</text>
<text x="34" y="390.0" transform="rotate(-90 34 390.0)" text-anchor="middle" font-family="Arial" font-size="20" fill="black">rho [kg/m3]</text>
<polyline points="190.69,238.50 193.64,232.79 196.58,227.07 199.53,221.35 202.47,215.64 205.42,209.92 208.36,204.20 211.31,198.48 214.25,192.77 217.20,187.05 220.14,181.33 223.09,175.62 226.03,169.90 228.98,164.18 231.93,158.47 234.87,158.47 237.82,152.75 240.76,147.03 243.71,141.32 246.65,141.32 249.60,135.60 252.54,129.88 255.49,129.88 258.43,124.17 261.38,124.17 264.32,118.45 267.27,118.45 270.22,118.45 273.16,118.45 276.11,118.45 279.05,118.45 282.00,124.17 284.94,129.88 287.89,135.60 290.83,141.32 293.78,152.75 296.72,164.18 299.67,181.33 302.62,192.77 305.56,209.92 308.51,227.07 311.45,249.94 314.40,267.09 317.34,289.95 320.29,307.11 323.23,329.97 326.17,352.84 329.13,369.99 332.07,387.14 335.01,404.29 337.96,415.73 340.91,432.88 343.85,438.59 346.80,444.31 349.74,450.03 352.68,455.74 355.64,455.74 358.58,455.74 361.52,450.03 364.47,444.31 367.41,438.59 370.35,427.16 373.31,421.44 376.25,410.01 379.19,398.58 382.15,387.14 385.09,369.99 388.03,352.84 390.98,341.41 393.92,324.26 396.86,312.82 399.82,295.67 402.76,278.52 405.70,267.09 408.65,249.94 411.59,238.50 414.54,227.07 417.49,209.92 420.43,204.20 423.37,192.77 426.33,187.05 429.27,175.62 432.21,169.90 435.16,164.18 438.10,158.47 441.04,152.75 444.00,152.75 446.94,147.03 449.88,147.03 452.83,147.03 455.78,141.32 458.72,147.03 461.67,147.03 464.61,147.03 467.55,147.03 470.51,147.03 473.45,152.75 476.39,152.75 479.34,152.75 482.28,158.47 485.23,158.47 488.18,164.18 491.12,164.18 494.06,169.90 497.02,175.62 499.96,175.62 502.90,181.33 505.85,181.33 508.79,187.05 511.73,187.05 514.69,192.77 517.63,198.48 520.57,198.48 523.52,204.20 526.47,204.20 529.41,209.92 532.36,209.92 535.30,215.64 538.24,215.64 541.20,221.35 544.14,221.35 547.08,227.07 550.03,227.07 552.97,232.79 555.92,232.79 558.87,238.50 561.81,244.22 564.75,244.22 567.71,249.94 570.65,255.65 573.59,261.37 576.54,267.09 579.48,267.09 582.42,272.80 585.38,278.52 588.32,284.24 591.26,289.95 594.21,301.39 597.16,307.11 600.10,312.82 603.05,318.54 605.99,324.26 608.93,329.97 611.89,335.69 614.83,347.12 617.77,352.84 620.72,358.56 623.66,364.27 626.60,369.99 629.56,375.71 632.50,381.42 635.44,381.42 638.40,381.42 641.34,387.14 644.28,387.14 647.23,387.14 650.17,387.14 653.11,387.14 656.07,387.14 659.01,381.42 661.95,375.71 664.90,369.99 667.84,369.99 670.79,364.27 673.74,352.84 676.68,347.12 679.62,335.69 682.58,329.97 685.52,318.54 688.46,307.11 691.41,295.67 694.35,289.95 697.29,278.52 700.25,267.09 703.19,261.37 706.13,249.94 709.08,244.22 712.03,238.50 714.97,227.07 717.92,221.35 720.86,215.64 723.80,209.92 726.76,204.20 729.70,204.20 732.64,198.48 735.59,192.77 738.53,192.77 741.48,192.77 744.43,187.05 747.37,187.05 750.31,192.77 753.27,192.77 756.21,192.77 759.15,192.77 762.10,198.48 765.04,198.48 767.98,204.20 770.94,204.20 773.88,209.92 776.82,215.64 779.77,221.35 782.72,227.07 785.66,232.79 788.61,238.50 791.55,249.94 794.49,255.65 797.45,261.37 800.39,267.09 803.33,278.52 806.28,284.24 809.22,295.67 812.17,301.39 815.12,312.82 818.06,318.54 821.00,329.97 823.96,341.41 826.90,347.12 829.84,358.56 832.79,364.27 835.73,375.71 838.67,381.42 841.63,387.14 844.57,398.58 847.51,404.29 850.46,410.01 853.41,415.73 856.35,421.44 859.30,427.16 862.24,432.88 865.18,432.88 868.14,438.59 871.08,438.59 874.02,444.31 876.97,444.31 879.91,444.31 882.85,444.31 885.81,450.03 888.75,450.03 891.69,450.03 894.65,450.03 897.59,450.03 900.53,450.03 903.48,450.03 906.42,450.03 909.36,450.03 912.32,450.03 915.26,455.74 918.20,455.74 921.15,455.74 924.09,455.74 927.04,455.74 929.99,455.74 932.93,455.74 935.87,455.74 938.83,455.74 941.77,455.74 944.71,455.74 947.66,455.74 950.60,461.46 953.54,461.46 956.50,461.46 959.44,461.46 962.38,461.46 965.33,461.46 968.28,467.18 971.22,467.18 974.17,472.89 977.11,472.89 980.05,478.61 983.01,484.33 985.95,484.33 988.89,490.05 991.84,495.76 994.78,501.48 997.73,507.20 1000.68,512.91 1003.62,518.63 1006.56,524.35 1009.52,530.06 1012.46,535.78 1015.40,541.50 1018.35,552.93 1021.29,558.65 1024.23,564.36 1027.19,570.08 1030.13,575.80 1033.07,581.52 1036.02,587.23 1038.97,592.95 1041.91,598.67 1044.86,604.38 1047.80,615.82 1050.74,621.53 1053.70,627.25 1056.64,632.97 1059.58,638.68 1062.53,644.40 1065.47,650.12 1068.42,655.83 1071.37,655.83 1074.31,661.55" fill="none" stroke="#000000" stroke-width="3"/>
<line x1="142" y1="100" x2="178" y2="100" stroke="#000000" stroke-width="4"/>
<text x="188" y="105" font-family="Arial" font-size="18" fill="black">rho</text>
</svg>