<svg xmlns="http://www.w3.org/2000/svg" width="1200" height="820" viewBox="0 0 1200 820">
<rect width="100%" height="100%" fill="white"/>
<text x="600.0" y="36" text-anchor="middle" font-family="Arial" font-size="24" fill="black">profile_center_y: U:2</text>
<line x1="120.00" y1="75" x2="120.00" y2="705" stroke="#dddddd" stroke-width="1"/>
<text x="120.00" y="737" text-anchor="middle" font-family="Arial" font-size="16" fill="black">-0.400</text>
<line x1="376.25" y1="75" x2="376.25" y2="705" stroke="#dddddd" stroke-width="1"/>
<text x="376.25" y="737" text-anchor="middle" font-family="Arial" font-size="16" fill="black">1.050</text>
<line x1="632.50" y1="75" x2="632.50" y2="705" stroke="#dddddd" stroke-width="1"/>
<text x="632.50" y="737" text-anchor="middle" font-family="Arial" font-size="16" fill="black">2.500</text>
<line x1="888.75" y1="75" x2="888.75" y2="705" stroke="#dddddd" stroke-width="1"/>
<text x="888.75" y="737" text-anchor="middle" font-family="Arial" font-size="16" fill="black">3.950</text>
<line x1="1145.00" y1="75" x2="1145.00" y2="705" stroke="#dddddd" stroke-width="1"/>
<text x="1145.00" y="737" text-anchor="middle" font-family="Arial" font-size="16" fill="black">5.400</text>
<line x1="120" y1="705.00" x2="1145" y2="705.00" stroke="#dddddd" stroke-width="1"/>
<text x="104" y="710.00" text-anchor="end" font-family="Arial" font-size="16" fill="black">-0.092</text>
<line x1="120" y1="547.50" x2="1145" y2="547.50" stroke="#dddddd" stroke-width="1"/>
<text x="104" y="552.50" text-anchor="end" font-family="Arial" font-size="16" fill="black">0.026</text>
<line x1="120" y1="390.00" x2="1145" y2="390.00" stroke="#dddddd" stroke-width="1"/>
<text x="104" y="395.00" text-anchor="end" font-family="Arial" font-size="16" fill="black">0.144</text>
<line x1="120" y1="232.50" x2="1145" y2="232.50" stroke="#dddddd" stroke-width="1"/>
<text x="104" y="237.50" text-anchor="end" font-family="Arial" font-size="16" fill="black">0.262</text>
<line x1="120" y1="75.00" x2="1145" y2="75.00" stroke="#dddddd" stroke-width="1"/>
<text x="104" y="80.00" text-anchor="end" font-family="Arial" font-size="16" fill="black">0.380</text>
<rect x="120" y="75" width="1025" height="630" fill="none" stroke="black" stroke-width="2"/>
<text x="632.5" y="785" text-anchor="middle" font-family="Arial" font-size="20" fill="black">y coordinate [m]</text>
<text x="34" y="390.0" transform="rotate(-90 34 390.0)" text-anchor="middle" font-family="Arial" font-size="20" fill="black">U:2 [SI]</text>
<polyline points="190.69,661.55 193.64,659.47 196.58,657.39 199.53,655.32 202.47,653.24 205.42,651.16 208.36,649.08 211.31,644.33 214.25,639.58 217.20,634.84 220.14,630.09 223.09,625.34 226.03,620.60 228.98,614.96 231.92,609.32 234.87,603.68 237.82,598.05 240.76,592.41 243.71,586.77 246.65,581.08 249.60,575.38 252.54,569.68 255.49,563.98 258.43,558.29 261.38,552.59 264.33,547.51 267.27,542.44 270.22,537.36 273.16,532.29 276.11,527.21 279.05,522.14 282.00,517.72 284.94,513.31 287.89,508.89 290.83,504.48 293.78,500.06 296.72,495.65 299.67,491.45 302.61,487.26 305.56,483.07 308.51,478.87 311.45,474.68 314.40,470.49 317.34,465.60 320.29,460.72 323.23,455.84 326.18,450.95 329.12,446.07 332.07,441.19 335.01,434.45 337.96,427.70 340.91,420.97 343.85,414.22 346.80,407.47 349.74,400.74 352.69,391.49 355.63,382.23 358.58,372.98 361.52,363.73 364.47,354.47 367.41,345.22 370.37,335.26 373.30,325.31 376.25,315.35 379.20,305.39 382.13,295.45 385.09,285.49 388.04,277.95 390.97,270.42 393.92,262.89 396.87,255.35 399.81,247.82 402.76,240.29 405.71,236.93 408.64,233.55 411.59,230.18 414.55,226.82 417.48,223.45 420.43,220.07 423.38,221.06 426.32,222.03 429.27,223.01 432.22,223.99 435.15,224.97 438.10,225.94 441.05,230.10 443.99,234.26 446.94,238.42 449.89,242.58 452.82,246.74 455.78,250.89 458.73,256.54 461.66,262.19 464.61,267.85 467.56,273.50 470.50,279.14 473.45,284.79 476.40,290.65 479.33,296.51 482.28,302.37 485.24,308.22 488.17,314.07 491.12,319.94 494.07,325.70 497.01,331.46 499.96,337.22 502.91,342.98 505.84,348.74 508.79,354.50 511.74,360.59 514.68,366.69 517.63,372.79 520.58,378.89 523.51,384.98 526.47,391.07 529.42,397.63 532.35,404.21 535.30,410.77 538.25,417.33 541.19,423.89 544.14,430.45 547.09,436.30 550.02,442.15 552.97,448.02 555.93,453.87 558.86,459.72 561.81,465.58 564.76,469.29 567.70,473.00 570.65,476.72 573.60,480.43 576.53,484.14 579.48,487.85 582.43,488.90 585.37,489.94 588.32,490.99 591.27,492.03 594.20,493.08 597.16,494.13 600.11,492.42 603.04,490.72 605.99,489.01 608.94,487.31 611.88,485.60 614.83,483.90 617.78,479.63 620.71,475.37 623.66,471.10 626.62,466.83 629.55,462.57 632.50,458.30 635.45,451.87 638.38,445.43 641.34,438.99 644.29,432.57 647.22,426.13 650.17,419.69 653.12,411.61 656.06,403.51 659.01,395.42 661.96,387.33 664.89,379.23 667.84,371.15 670.80,361.98 673.73,352.82 676.68,343.66 679.63,334.49 682.57,325.33 685.52,316.17 688.47,306.62 691.40,297.06 694.35,287.51 697.30,277.97 700.24,268.42 703.19,258.86 706.14,249.87 709.07,240.87 712.03,231.87 714.98,222.87 717.91,213.87 720.86,204.89 723.81,197.85 726.75,190.82 729.70,183.79 732.65,176.77 735.58,169.74 738.53,162.70 741.49,158.30 744.42,153.90 747.37,149.50 750.32,145.09 753.26,140.69 756.21,136.29 759.16,133.98 762.09,131.69 765.04,129.38 767.99,127.09 770.93,124.78 773.88,122.49 776.83,121.81 779.76,121.14 782.72,120.46 785.67,119.79 788.60,119.11 791.55,118.45 794.50,119.23 797.44,120.03 800.39,120.82 803.34,121.62 806.27,122.41 809.22,123.21 812.18,125.54 815.11,127.87 818.06,130.21 821.01,132.53 823.95,134.86 826.90,137.19 829.85,141.17 832.78,145.14 835.73,149.11 838.68,153.07 841.62,157.05 844.57,161.02 847.52,166.55 850.45,172.09 853.41,177.63 856.36,183.17 859.29,188.70 862.24,194.25 865.19,200.93 868.13,207.62 871.08,214.31 874.03,221.01 876.96,227.69 879.91,234.38 882.87,241.23 885.80,248.07 888.75,254.93 891.70,261.77 894.63,268.62 897.59,275.46 900.54,280.58 903.47,285.70 906.42,290.81 909.37,295.93 912.31,301.05 915.26,306.17 918.21,308.69 921.14,311.21 924.09,313.73 927.05,316.25 929.98,318.77 932.93,321.29 935.88,322.14 938.82,323.01 941.77,323.86 944.72,324.73 947.65,325.58 950.60,326.43 953.55,326.79 956.49,327.14 959.44,327.49 962.39,327.83 965.32,328.18 968.28,328.54 971.23,329.45 974.16,330.35 977.11,331.27 980.06,332.18 983.00,333.10 985.95,334.01 988.90,336.49 991.83,338.98 994.78,341.46 997.74,343.94 1000.67,346.43 1003.62,348.91 1006.57,353.94 1009.51,358.97 1012.46,363.99 1015.41,369.02 1018.34,374.06 1021.29,379.09 1024.24,387.74 1027.18,396.41 1030.13,405.06 1033.08,413.73 1036.01,422.38 1038.97,431.05 1041.92,445.42 1044.85,459.79 1047.80,474.16 1050.75,488.53 1053.69,502.91 1056.64,517.28 1059.59,526.26 1062.52,535.24 1065.47,544.22 1068.43,553.21 1071.36,562.19 1074.31,571.17" fill="none" stroke="#000000" stroke-width="3"/>
<line x1="142" y1="100" x2="178" y2="100" stroke="#000000" stroke-width="4"/>
<text x="188" y="105" font-family="Arial" font-size="18" fill="black">U:2</text>
</svg>