<svg xmlns="http://www.w3.org/2000/svg" width="1200" height="820" viewBox="0 0 1200 820">
<rect width="100%" height="100%" fill="white"/>
<text x="600.0" y="36" text-anchor="middle" font-family="Arial" font-size="24" fill="black">profile_center_z: U:1</text>
<line x1="120.00" y1="75" x2="120.00" y2="705" stroke="#dddddd" stroke-width="1"/>
<text x="120.00" y="737" text-anchor="middle" font-family="Arial" font-size="16" fill="black">-0.240</text>
<line x1="376.25" y1="75" x2="376.25" y2="705" stroke="#dddddd" stroke-width="1"/>
<text x="376.25" y="737" text-anchor="middle" font-family="Arial" font-size="16" fill="black">0.630</text>
<line x1="632.50" y1="75" x2="632.50" y2="705" stroke="#dddddd" stroke-width="1"/>
<text x="632.50" y="737" text-anchor="middle" font-family="Arial" font-size="16" fill="black">1.500</text>
<line x1="888.75" y1="75" x2="888.75" y2="705" stroke="#dddddd" stroke-width="1"/>
<text x="888.75" y="737" text-anchor="middle" font-family="Arial" font-size="16" fill="black">2.370</text>
<line x1="1145.00" y1="75" x2="1145.00" y2="705" stroke="#dddddd" stroke-width="1"/>
<text x="1145.00" y="737" text-anchor="middle" font-family="Arial" font-size="16" fill="black">3.240</text>
<line x1="120" y1="705.00" x2="1145" y2="705.00" stroke="#dddddd" stroke-width="1"/>
<text x="104" y="710.00" text-anchor="end" font-family="Arial" font-size="16" fill="black">-0.180</text>
<line x1="120" y1="547.50" x2="1145" y2="547.50" stroke="#dddddd" stroke-width="1"/>
<text x="104" y="552.50" text-anchor="end" font-family="Arial" font-size="16" fill="black">-0.134</text>
<line x1="120" y1="390.00" x2="1145" y2="390.00" stroke="#dddddd" stroke-width="1"/>
<text x="104" y="395.00" text-anchor="end" font-family="Arial" font-size="16" fill="black">-0.087</text>
<line x1="120" y1="232.50" x2="1145" y2="232.50" stroke="#dddddd" stroke-width="1"/>
<text x="104" y="237.50" text-anchor="end" font-family="Arial" font-size="16" fill="black">-0.041</text>
<line x1="120" y1="75.00" x2="1145" y2="75.00" stroke="#dddddd" stroke-width="1"/>
<text x="104" y="80.00" text-anchor="end" font-family="Arial" font-size="16" fill="black">0.005</text>
<rect x="120" y="75" width="1025" height="630" fill="none" stroke="black" stroke-width="2"/>
<text x="632.5" y="785" text-anchor="middle" font-family="Arial" font-size="20" fill="black">z coordinate [m]</text>
<text x="34" y="390.0" transform="rotate(-90 34 390.0)" text-anchor="middle" font-family="Arial" font-size="20" fill="black">U:1 [SI]</text>
<polyline points="190.69,118.45 193.64,119.58 196.58,120.71 199.53,121.85 202.47,122.98 205.42,124.11 208.36,125.24 211.31,126.38 214.25,127.51 217.20,128.64 220.14,129.78 223.09,131.78 226.03,133.78 228.98,135.78 231.93,137.78 234.87,139.78 237.82,141.78 240.76,143.78 243.71,145.78 246.65,147.78 249.60,149.78 252.54,151.25 255.49,152.72 258.43,154.18 261.38,155.65 264.32,157.12 267.27,158.59 270.22,160.05 273.16,161.52 276.11,162.99 279.05,164.46 282.00,165.59 284.94,166.72 287.89,167.86 290.83,168.99 293.78,170.12 296.72,171.26 299.67,172.39 302.61,173.52 305.56,174.65 308.51,175.79 311.45,178.79 314.40,181.80 317.34,184.80 320.29,187.80 323.23,190.81 326.18,193.81 329.12,196.82 332.07,199.82 335.01,202.83 337.96,205.83 340.91,212.95 343.85,220.07 346.80,227.19 349.74,234.30 352.69,241.42 355.63,248.54 358.58,255.65 361.52,262.77 364.47,269.89 367.41,277.01 370.36,284.27 373.30,291.54 376.25,298.81 379.20,306.08 382.14,313.35 385.09,320.62 388.03,327.89 390.98,335.16 393.92,342.43 396.87,349.70 399.81,353.51 402.76,357.32 405.70,361.13 408.65,364.94 411.59,368.75 414.54,372.56 417.49,376.37 420.43,380.18 423.38,383.99 426.32,387.80 429.27,389.37 432.21,390.95 435.16,392.53 438.10,394.11 441.05,395.68 443.99,397.26 446.94,398.83 449.89,400.41 452.83,401.99 455.78,403.57 458.72,403.86 461.67,404.15 464.61,404.44 467.56,404.72 470.50,405.01 473.45,405.30 476.39,405.59 479.34,405.88 482.28,406.17 485.23,406.46 488.18,405.97 491.12,405.48 494.07,405.00 497.01,404.51 499.96,404.02 502.90,403.54 505.85,403.05 508.79,402.56 511.74,402.07 514.68,401.59 517.63,400.66 520.57,399.74 523.52,398.82 526.47,397.90 529.41,396.97 532.36,396.05 535.30,395.13 538.25,394.20 541.19,393.28 544.14,392.36 547.08,391.21 550.03,390.06 552.97,388.90 555.92,387.75 558.86,386.60 561.81,385.45 564.76,384.29 567.70,383.14 570.65,381.99 573.59,380.84 576.54,379.57 579.48,378.29 582.43,377.03 585.37,375.75 588.32,374.48 591.26,373.21 594.21,371.94 597.16,370.67 600.10,369.40 603.05,368.13 605.99,366.78 608.94,365.43 611.88,364.08 614.83,362.72 617.77,361.37 620.72,360.02 623.66,358.67 626.61,357.32 629.55,355.97 632.50,354.62 635.45,353.16 638.39,351.72 641.34,350.26 644.28,348.81 647.23,347.36 650.17,345.91 653.12,344.46 656.06,343.01 659.01,341.56 661.95,340.11 664.90,338.51 667.84,336.91 670.79,335.32 673.74,333.72 676.68,332.12 679.63,330.53 682.57,328.93 685.52,327.33 688.46,325.73 691.41,324.14 694.35,322.35 697.30,320.55 700.24,318.77 703.19,316.98 706.14,315.19 709.08,313.40 712.03,311.61 714.97,309.82 717.92,308.03 720.86,306.23 723.81,304.23 726.75,302.23 729.70,300.22 732.64,298.22 735.59,296.21 738.53,294.21 741.48,292.21 744.43,290.20 747.37,288.20 750.32,286.19 753.26,284.00 756.21,281.82 759.15,279.63 762.10,277.44 765.04,275.25 767.99,273.06 770.93,270.87 773.88,268.68 776.82,266.49 779.77,264.31 782.72,262.03 785.66,259.74 788.61,257.46 791.55,255.18 794.50,252.90 797.44,250.62 800.39,248.34 803.33,246.06 806.28,243.78 809.22,241.50 812.17,239.29 815.11,237.08 818.06,234.87 821.01,232.66 823.95,230.45 826.90,228.24 829.84,226.03 832.79,223.82 835.73,221.61 838.68,219.40 841.62,217.49 844.57,215.59 847.51,213.69 850.46,211.78 853.41,209.88 856.35,207.97 859.30,206.07 862.24,204.16 865.19,202.26 868.13,200.35 871.08,199.07 874.02,197.79 876.97,196.51 879.91,195.23 882.86,193.94 885.80,192.66 888.75,191.38 891.70,190.09 894.64,188.81 897.59,187.53 900.53,187.30 903.48,187.06 906.42,186.82 909.37,186.59 912.31,186.35 915.26,186.12 918.20,185.88 921.15,185.65 924.09,185.41 927.04,185.17 929.99,186.61 932.93,188.06 935.88,189.50 938.82,190.94 941.77,192.39 944.71,193.83 947.66,195.27 950.60,196.71 953.55,198.15 956.49,199.60 959.44,203.84 962.39,208.08 965.33,212.33 968.28,216.57 971.22,220.81 974.17,225.05 977.11,229.29 980.06,233.53 983.00,237.78 985.95,242.02 988.89,251.30 991.84,260.58 994.78,269.86 997.73,279.14 1000.68,288.42 1003.62,297.70 1006.57,306.98 1009.51,316.27 1012.46,325.55 1015.40,334.83 1018.35,354.30 1021.29,373.77 1024.24,393.25 1027.18,412.72 1030.13,432.20 1033.07,451.68 1036.02,471.15 1038.97,490.61 1041.91,510.08 1044.86,529.58 1047.80,542.77 1050.75,555.97 1053.69,569.16 1056.64,582.36 1059.58,595.55 1062.53,608.74 1065.47,621.94 1068.42,635.16 1071.36,648.36 1074.31,661.55" fill="none" stroke="#000000" stroke-width="3"/>
<line x1="142" y1="100" x2="178" y2="100" stroke="#000000" stroke-width="4"/>
<text x="188" y="105" font-family="Arial" font-size="18" fill="black">U:1</text>
</svg>