<svg xmlns="http://www.w3.org/2000/svg" width="1200" height="820" viewBox="0 0 1200 820">
<rect width="100%" height="100%" fill="white"/>
<text x="600.0" y="36" text-anchor="middle" font-family="Arial" font-size="24" fill="black">profile_near_ceiling_x: U:1</text>
<line x1="120.00" y1="75" x2="120.00" y2="705" stroke="#dddddd" stroke-width="1"/>
<text x="120.00" y="737" text-anchor="middle" font-family="Arial" font-size="16" fill="black">-0.560</text>
<line x1="376.25" y1="75" x2="376.25" y2="705" stroke="#dddddd" stroke-width="1"/>
<text x="376.25" y="737" text-anchor="middle" font-family="Arial" font-size="16" fill="black">1.470</text>
<line x1="632.50" y1="75" x2="632.50" y2="705" stroke="#dddddd" stroke-width="1"/>
<text x="632.50" y="737" text-anchor="middle" font-family="Arial" font-size="16" fill="black">3.500</text>
<line x1="888.75" y1="75" x2="888.75" y2="705" stroke="#dddddd" stroke-width="1"/>
<text x="888.75" y="737" text-anchor="middle" font-family="Arial" font-size="16" fill="black">5.530</text>
<line x1="1145.00" y1="75" x2="1145.00" y2="705" stroke="#dddddd" stroke-width="1"/>
<text x="1145.00" y="737" text-anchor="middle" font-family="Arial" font-size="16" fill="black">7.560</text>
<line x1="120" y1="705.00" x2="1145" y2="705.00" stroke="#dddddd" stroke-width="1"/>
<text x="104" y="710.00" text-anchor="end" font-family="Arial" font-size="16" fill="black">-0.215</text>
<line x1="120" y1="547.50" x2="1145" y2="547.50" stroke="#dddddd" stroke-width="1"/>
<text x="104" y="552.50" text-anchor="end" font-family="Arial" font-size="16" fill="black">-0.131</text>
<line x1="120" y1="390.00" x2="1145" y2="390.00" stroke="#dddddd" stroke-width="1"/>
<text x="104" y="395.00" text-anchor="end" font-family="Arial" font-size="16" fill="black">-0.046</text>
<line x1="120" y1="232.50" x2="1145" y2="232.50" stroke="#dddddd" stroke-width="1"/>
<text x="104" y="237.50" text-anchor="end" font-family="Arial" font-size="16" fill="black">0.038</text>
<line x1="120" y1="75.00" x2="1145" y2="75.00" stroke="#dddddd" stroke-width="1"/>
<text x="104" y="80.00" text-anchor="end" font-family="Arial" font-size="16" fill="black">0.122</text>
<rect x="120" y="75" width="1025" height="630" fill="none" stroke="black" stroke-width="2"/>
<text x="632.5" y="785" text-anchor="middle" font-family="Arial" font-size="20" fill="black">x coordinate [m]</text>
<text x="34" y="390.0" transform="rotate(-90 34 390.0)" text-anchor="middle" font-family="Arial" font-size="20" fill="black">U:1 [SI]</text>
<polyline points="190.69,339.75 193.64,334.68 196.58,329.61 199.53,324.55 202.47,319.48 205.42,311.52 208.36,302.40 211.31,293.28 214.25,284.17 217.20,275.63 220.14,267.86 223.09,260.09 226.03,252.31 228.98,244.63 231.93,237.44 234.87,230.26 237.82,223.08 240.76,215.89 243.71,209.21 246.65,202.61 249.60,196.01 252.54,189.41 255.49,183.25 258.43,177.42 261.38,171.60 264.32,165.77 267.27,160.23 270.22,155.41 273.16,150.60 276.11,145.78 279.05,140.97 282.00,137.47 284.94,133.98 287.89,130.48 290.83,126.99 293.78,124.71 296.72,122.92 299.67,121.13 302.62,119.34 305.56,118.45 308.51,118.76 311.45,119.07 314.40,119.38 317.34,120.04 320.29,122.84 323.23,125.63 326.17,128.42 329.13,131.21 332.07,136.45 335.01,142.09 337.96,147.73 340.91,153.36 343.85,160.68 346.80,169.25 349.74,177.81 352.68,186.38 355.64,195.70 358.58,206.89 361.52,218.09 364.47,229.28 367.41,240.47 370.35,253.35 373.31,266.23 376.25,279.10 379.19,291.98 382.15,305.07 385.09,318.25 388.03,331.43 390.98,344.61 393.92,357.39 396.86,369.66 399.82,381.93 402.76,394.19 405.70,406.23 408.65,416.87 411.59,427.51 414.54,438.15 417.49,448.79 420.43,457.66 423.37,466.23 426.33,474.80 429.27,483.37 432.21,490.54 435.16,496.63 438.10,502.74 441.04,508.85 444.00,514.25 446.94,517.95 449.88,521.63 452.83,525.31 455.78,528.99 458.72,530.56 461.67,532.13 464.61,533.70 467.55,535.29 470.51,535.44 473.45,535.04 476.39,534.65 479.34,534.24 482.28,532.93 485.23,530.39 488.18,527.85 491.12,525.31 494.06,522.49 497.02,518.04 499.96,513.61 502.90,509.17 505.85,504.72 508.79,499.64 511.73,494.44 514.69,489.25 517.63,484.06 520.57,479.17 523.52,474.50 526.47,469.83 529.41,465.16 532.36,460.83 535.30,457.38 538.24,453.92 541.20,450.47 544.14,447.01 547.08,445.01 550.03,443.01 552.97,441.00 555.92,439.00 558.87,438.03 561.81,437.47 564.75,436.91 567.71,436.35 570.65,436.36 573.59,437.12 576.54,437.88 579.48,438.65 582.42,439.57 585.38,441.48 588.32,443.38 591.26,445.29 594.21,447.19 597.16,449.87 600.10,452.68 603.05,455.50 605.99,458.31 608.93,461.47 611.89,464.89 614.83,468.32 617.77,471.74 620.72,475.24 623.66,478.95 626.60,482.65 629.56,486.36 632.50,490.06 635.44,493.45 638.40,496.83 641.34,500.22 644.28,503.60 647.23,506.38 650.17,508.94 653.11,511.48 656.07,514.04 659.01,516.19 661.95,517.82 664.90,519.42 667.84,521.05 670.79,522.52 673.74,523.23 676.68,523.94 679.62,524.65 682.58,525.36 685.52,525.42 688.46,525.36 691.41,525.33 694.35,525.27 697.29,524.90 700.25,524.26 703.19,523.65 706.13,523.03 709.08,522.32 712.03,521.37 714.97,520.41 717.92,519.46 720.86,518.51 723.80,517.44 726.76,516.38 729.70,515.31 732.64,514.25 735.59,513.26 738.53,512.27 741.48,511.30 744.43,510.32 747.37,509.45 750.31,508.74 753.27,508.03 756.21,507.30 759.15,506.64 762.10,506.34 765.04,506.03 767.98,505.71 770.94,505.39 773.88,505.54 776.82,505.77 779.77,505.99 782.72,506.20 785.66,506.79 788.61,507.65 791.55,508.53 794.49,509.39 797.45,510.47 800.39,512.08 803.33,513.71 806.28,515.31 809.22,516.94 812.17,519.37 815.12,521.81 818.06,524.26 821.00,526.71 823.96,529.79 826.90,533.10 829.84,536.43 832.79,539.73 835.73,543.39 838.67,547.52 841.63,551.65 844.57,555.78 847.51,559.99 850.46,564.68 853.41,569.37 856.35,574.07 859.30,578.76 862.24,583.55 865.18,588.35 868.14,593.17 871.08,597.97 874.02,602.55 876.97,606.99 879.91,611.42 882.85,615.85 885.81,620.11 888.75,623.90 891.69,627.72 894.65,631.51 897.59,635.32 900.53,638.37 903.48,641.41 906.42,644.46 909.36,647.50 912.32,649.89 915.26,651.99 918.20,654.10 921.15,656.21 924.09,657.83 927.04,658.81 929.99,659.78 932.93,660.75 935.87,661.55 938.83,661.33 941.77,661.08 944.71,660.86 947.66,660.64 950.60,659.50 953.54,658.21 956.50,656.92 959.44,655.63 962.38,653.93 965.33,651.87 968.28,649.84 971.22,647.80 974.17,645.65 977.11,643.26 980.05,640.85 983.01,638.46 985.95,636.05 988.89,633.69 991.84,631.34 994.78,628.99 997.73,626.61 1000.68,624.54 1003.62,622.56 1006.56,620.60 1009.52,618.62 1012.46,616.90 1015.40,615.51 1018.35,614.13 1021.29,612.75 1024.23,611.42 1027.19,610.51 1030.13,609.59 1033.07,608.66 1036.02,607.74 1038.97,606.51 1041.91,605.24 1044.86,603.95 1047.80,602.68 1050.74,599.45 1053.70,594.79 1056.64,590.12 1059.58,585.45 1062.53,581.02 1065.47,577.25 1068.42,573.46 1071.37,569.68 1074.31,565.89" fill="none" stroke="#000000" stroke-width="3"/>
<line x1="142" y1="100" x2="178" y2="100" stroke="#000000" stroke-width="4"/>
<text x="188" y="105" font-family="Arial" font-size="18" fill="black">U:1</text>
</svg>