<svg xmlns="http://www.w3.org/2000/svg" width="1200" height="820" viewBox="0 0 1200 820">
<rect width="100%" height="100%" fill="white"/>
<text x="600.0" y="36" text-anchor="middle" font-family="Arial" font-size="24" fill="black">profile_diagonal_supply_return: vorticity:2</text>
<line x1="120.00" y1="75" x2="120.00" y2="705" stroke="#dddddd" stroke-width="1"/>
<text x="120.00" y="737" text-anchor="middle" font-family="Arial" font-size="16" fill="black">-0.729</text>
<line x1="376.25" y1="75" x2="376.25" y2="705" stroke="#dddddd" stroke-width="1"/>
<text x="376.25" y="737" text-anchor="middle" font-family="Arial" font-size="16" fill="black">1.913</text>
<line x1="632.50" y1="75" x2="632.50" y2="705" stroke="#dddddd" stroke-width="1"/>
<text x="632.50" y="737" text-anchor="middle" font-family="Arial" font-size="16" fill="black">4.555</text>
<line x1="888.75" y1="75" x2="888.75" y2="705" stroke="#dddddd" stroke-width="1"/>
<text x="888.75" y="737" text-anchor="middle" font-family="Arial" font-size="16" fill="black">7.197</text>
<line x1="1145.00" y1="75" x2="1145.00" y2="705" stroke="#dddddd" stroke-width="1"/>
<text x="1145.00" y="737" text-anchor="middle" font-family="Arial" font-size="16" fill="black">9.839</text>
<line x1="120" y1="705.00" x2="1145" y2="705.00" stroke="#dddddd" stroke-width="1"/>
<text x="104" y="710.00" text-anchor="end" font-family="Arial" font-size="16" fill="black">-2.997</text>
<line x1="120" y1="547.50" x2="1145" y2="547.50" stroke="#dddddd" stroke-width="1"/>
<text x="104" y="552.50" text-anchor="end" font-family="Arial" font-size="16" fill="black">-1.822</text>
<line x1="120" y1="390.00" x2="1145" y2="390.00" stroke="#dddddd" stroke-width="1"/>
<text x="104" y="395.00" text-anchor="end" font-family="Arial" font-size="16" fill="black">-0.647</text>
<line x1="120" y1="232.50" x2="1145" y2="232.50" stroke="#dddddd" stroke-width="1"/>
<text x="104" y="237.50" text-anchor="end" font-family="Arial" font-size="16" fill="black">0.528</text>
<line x1="120" y1="75.00" x2="1145" y2="75.00" stroke="#dddddd" stroke-width="1"/>
<text x="104" y="80.00" text-anchor="end" font-family="Arial" font-size="16" fill="black">1.703</text>
<rect x="120" y="75" width="1025" height="630" fill="none" stroke="black" stroke-width="2"/>
<text x="632.5" y="785" text-anchor="middle" font-family="Arial" font-size="20" fill="black">distance along sample line [m]</text>
<text x="34" y="390.0" transform="rotate(-90 34 390.0)" text-anchor="middle" font-family="Arial" font-size="20" fill="black">vorticity:2 [SI]</text>
<polyline points="190.69,118.45 193.64,129.81 196.58,143.55 199.53,159.64 202.47,178.00 205.42,193.86 208.36,211.38 211.31,233.19 214.25,258.69 217.20,283.55 220.14,305.14 223.09,328.66 226.03,353.62 228.98,351.18 231.93,350.17 234.87,349.06 237.82,347.83 240.76,346.49 243.71,346.10 246.65,345.36 249.60,344.51 252.54,343.70 255.49,343.24 258.43,342.99 261.38,342.61 264.32,341.55 267.27,340.53 270.22,339.82 273.16,338.89 276.11,337.74 279.05,336.36 282.00,335.50 284.94,334.37 287.88,333.01 290.83,331.42 293.78,331.18 296.73,331.60 299.67,331.93 302.62,332.27 305.57,333.33 308.50,335.50 311.45,337.35 314.40,339.53 317.34,341.71 320.29,344.03 323.24,346.63 326.18,349.51 329.12,352.66 332.07,355.47 335.01,357.91 337.96,360.47 340.91,363.13 343.85,366.07 346.80,369.15 349.74,372.39 352.68,375.34 355.63,378.32 358.58,381.17 361.53,384.18 364.47,387.39 367.42,390.85 370.36,391.49 373.30,392.31 376.25,393.34 379.20,394.57 382.14,392.47 385.09,389.25 388.04,386.01 390.97,383.07 393.92,377.42 396.87,368.14 399.81,359.01 402.76,350.29 405.71,341.88 408.65,332.09 411.59,322.62 414.54,313.42 417.48,304.45 420.43,300.78 423.38,298.35 426.32,295.87 429.27,293.43 432.21,294.71 435.16,298.65 438.10,302.44 441.05,306.17 444.00,310.25 446.94,315.61 449.89,320.83 452.84,325.98 455.77,331.07 458.72,335.00 461.67,338.89 464.61,342.76 467.56,346.64 470.51,349.82 473.45,352.80 476.39,355.42 479.34,358.10 482.28,360.47 485.23,362.45 488.18,364.28 491.12,366.25 494.07,367.79 497.01,368.99 499.96,370.34 502.90,371.82 505.85,373.45 508.80,374.96 511.74,376.06 514.69,377.27 517.63,378.36 520.57,379.39 523.52,380.42 526.47,381.58 529.41,382.31 532.36,382.97 535.31,383.39 538.24,383.90 541.19,384.48 544.14,385.14 547.08,384.54 550.03,384.00 552.98,383.54 555.92,383.13 558.86,382.24 561.81,381.19 564.76,379.82 567.70,378.51 570.65,376.92 573.60,374.96 576.54,372.96 579.49,371.04 582.43,368.85 585.37,366.19 588.32,363.61 591.27,361.11 594.21,358.69 597.16,355.90 600.11,353.02 603.04,350.24 605.99,347.47 608.94,344.56 611.88,341.56 614.83,338.65 617.78,335.86 620.72,333.08 623.66,330.15 626.61,327.31 629.55,324.55 632.50,321.87 635.45,319.10 638.40,316.39 641.34,313.74 644.28,311.15 647.23,308.38 650.17,305.52 653.12,302.95 656.07,300.37 659.01,297.69 661.96,294.82 664.90,291.89 667.84,288.89 670.79,286.24 673.74,283.59 676.68,280.81 679.63,277.91 682.58,274.87 685.51,272.19 688.46,269.99 691.41,267.66 694.35,265.33 697.30,263.45 700.25,261.91 703.20,260.24 706.14,259.09 709.08,258.16 712.03,257.96 714.97,257.72 717.92,257.44 720.87,257.12 723.81,258.21 726.76,259.27 729.70,260.30 732.64,261.31 735.59,262.71 738.54,264.28 741.48,266.21 744.43,268.16 747.38,270.25 750.31,272.54 753.26,274.80 756.21,277.06 759.15,279.52 762.10,282.08 765.05,284.69 767.99,287.35 770.93,290.08 773.88,292.76 776.83,295.49 779.77,298.31 782.72,300.99 785.67,303.50 788.61,305.92 791.55,308.44 794.50,310.92 797.44,313.34 800.39,315.49 803.34,317.74 806.28,320.10 809.23,322.57 812.17,324.11 815.11,325.75 818.06,327.50 821.01,329.35 823.95,330.91 826.90,332.37 829.85,333.74 832.79,335.19 835.73,336.44 838.68,337.35 841.63,338.00 844.57,338.69 847.52,339.24 850.47,339.20 853.41,339.14 856.35,339.08 859.30,339.01 862.24,338.26 865.19,337.34 868.14,336.42 871.08,335.33 874.03,333.83 876.97,332.03 879.91,330.25 882.86,328.61 885.81,326.87 888.75,324.75 891.70,322.71 894.65,320.74 897.58,318.86 900.53,316.71 903.48,314.63 906.43,312.62 909.37,310.68 912.32,308.91 915.27,307.16 918.20,305.24 921.15,303.26 924.10,301.66 927.04,300.61 929.99,299.59 932.94,298.57 935.88,297.98 938.82,299.96 941.77,302.26 944.71,304.91 947.66,307.97 950.61,314.31 953.55,321.72 956.50,329.61 959.44,338.50 962.38,347.22 965.33,355.38 968.28,363.33 971.22,371.22 974.17,377.45 977.12,379.37 980.06,380.42 983.00,380.56 985.95,379.76 988.90,373.73 991.84,366.25 994.79,357.32 997.74,346.92 1000.68,337.54 1003.62,328.81 1006.57,317.55 1009.51,307.05 1012.46,299.14 1015.41,294.52 1018.35,290.66 1021.30,287.93 1024.24,285.41 1027.18,284.54 1030.13,284.65 1033.08,285.69 1036.02,287.57 1038.97,289.09 1041.92,316.06 1044.86,339.63 1047.80,358.96 1050.75,390.09 1053.70,429.52 1056.64,465.28 1059.59,498.18 1062.54,529.82 1065.47,565.31 1068.42,599.22 1071.37,631.37 1074.31,661.55" fill="none" stroke="#000000" stroke-width="3"/>
<line x1="142" y1="100" x2="178" y2="100" stroke="#000000" stroke-width="4"/>
<text x="188" y="105" font-family="Arial" font-size="18" fill="black">vorticity:2</text>
</svg>