<svg xmlns="http://www.w3.org/2000/svg" width="1200" height="820" viewBox="0 0 1200 820">
<rect width="100%" height="100%" fill="white"/>
<text x="600.0" y="36" text-anchor="middle" font-family="Arial" font-size="24" fill="black">profile_diagonal_supply_return: vorticity:1</text>
<line x1="120.00" y1="75" x2="120.00" y2="705" stroke="#dddddd" stroke-width="1"/>
<text x="120.00" y="737" text-anchor="middle" font-family="Arial" font-size="16" fill="black">-0.729</text>
<line x1="376.25" y1="75" x2="376.25" y2="705" stroke="#dddddd" stroke-width="1"/>
<text x="376.25" y="737" text-anchor="middle" font-family="Arial" font-size="16" fill="black">1.913</text>
<line x1="632.50" y1="75" x2="632.50" y2="705" stroke="#dddddd" stroke-width="1"/>
<text x="632.50" y="737" text-anchor="middle" font-family="Arial" font-size="16" fill="black">4.555</text>
<line x1="888.75" y1="75" x2="888.75" y2="705" stroke="#dddddd" stroke-width="1"/>
<text x="888.75" y="737" text-anchor="middle" font-family="Arial" font-size="16" fill="black">7.197</text>
<line x1="1145.00" y1="75" x2="1145.00" y2="705" stroke="#dddddd" stroke-width="1"/>
<text x="1145.00" y="737" text-anchor="middle" font-family="Arial" font-size="16" fill="black">9.839</text>
<line x1="120" y1="705.00" x2="1145" y2="705.00" stroke="#dddddd" stroke-width="1"/>
<text x="104" y="710.00" text-anchor="end" font-family="Arial" font-size="16" fill="black">-1.768</text>
<line x1="120" y1="547.50" x2="1145" y2="547.50" stroke="#dddddd" stroke-width="1"/>
<text x="104" y="552.50" text-anchor="end" font-family="Arial" font-size="16" fill="black">-1.059</text>
<line x1="120" y1="390.00" x2="1145" y2="390.00" stroke="#dddddd" stroke-width="1"/>
<text x="104" y="395.00" text-anchor="end" font-family="Arial" font-size="16" fill="black">-0.350</text>
<line x1="120" y1="232.50" x2="1145" y2="232.50" stroke="#dddddd" stroke-width="1"/>
<text x="104" y="237.50" text-anchor="end" font-family="Arial" font-size="16" fill="black">0.359</text>
<line x1="120" y1="75.00" x2="1145" y2="75.00" stroke="#dddddd" stroke-width="1"/>
<text x="104" y="80.00" text-anchor="end" font-family="Arial" font-size="16" fill="black">1.068</text>
<rect x="120" y="75" width="1025" height="630" fill="none" stroke="black" stroke-width="2"/>
<text x="632.5" y="785" text-anchor="middle" font-family="Arial" font-size="20" fill="black">distance along sample line [m]</text>
<text x="34" y="390.0" transform="rotate(-90 34 390.0)" text-anchor="middle" font-family="Arial" font-size="20" fill="black">vorticity:1 [SI]</text>
<polyline points="190.69,661.55 193.64,644.33 196.58,623.81 199.53,600.01 202.47,572.95 205.42,552.40 208.36,531.03 211.31,500.80 214.25,465.95 217.20,437.47 220.14,421.20 223.09,401.48 226.03,380.26 228.98,356.03 231.93,329.02 234.87,302.00 237.82,274.92 240.76,247.72 243.71,221.51 246.65,195.30 249.60,169.61 252.54,167.18 255.49,165.50 258.43,164.73 261.38,163.85 264.32,162.10 267.27,160.21 270.22,159.89 273.16,159.60 276.11,159.26 279.05,158.82 282.00,159.14 284.94,160.13 287.88,161.43 290.83,162.66 293.78,166.55 296.73,172.62 299.67,181.35 302.62,190.43 305.57,200.08 308.50,211.04 311.45,223.20 314.40,235.25 317.34,248.41 320.29,261.70 323.24,274.79 326.18,287.43 329.12,299.31 332.07,313.26 335.01,328.79 337.96,343.89 340.91,357.94 343.85,373.40 346.80,390.49 349.74,407.75 352.68,425.07 355.63,441.02 358.58,454.89 361.53,469.95 364.47,486.41 367.42,504.47 370.36,500.16 373.30,496.88 376.25,494.70 379.20,493.67 382.14,477.62 385.09,456.12 388.04,433.17 390.97,411.15 393.92,384.29 396.87,350.43 399.81,314.65 402.76,279.70 405.71,247.36 408.65,224.38 411.59,201.92 414.54,179.79 417.48,157.79 420.43,157.09 423.38,161.15 426.32,164.96 429.27,169.29 432.21,181.99 435.16,200.64 438.10,218.91 441.05,237.48 444.00,255.56 446.94,273.23 449.89,290.51 452.84,307.48 455.77,324.23 458.72,335.65 461.67,346.72 464.61,357.47 467.56,367.95 470.51,375.26 473.45,381.24 476.39,386.80 479.34,392.14 482.28,396.02 485.23,398.08 488.18,399.04 491.12,399.99 494.07,400.41 497.01,399.24 499.96,398.09 502.90,396.94 505.85,395.81 508.80,393.88 511.74,391.70 514.69,389.57 517.63,387.17 520.57,384.61 523.52,381.99 526.47,379.53 529.41,377.11 532.36,374.73 535.31,372.32 538.24,370.07 541.19,367.97 544.14,366.03 547.08,363.98 550.03,362.09 552.98,360.35 555.92,358.78 558.86,356.90 561.81,355.02 564.76,353.72 567.70,352.64 570.65,351.28 573.60,349.53 576.54,348.06 579.49,346.86 582.43,346.00 585.37,344.14 588.32,342.52 591.27,341.13 594.21,339.97 597.16,337.78 600.11,335.37 603.04,333.04 605.99,330.78 608.94,327.75 611.88,324.10 614.83,320.45 617.78,316.29 620.72,311.69 623.66,306.03 626.61,300.20 629.55,294.20 632.50,288.05 635.45,280.38 638.40,272.44 641.34,264.22 644.28,255.73 647.23,247.60 650.17,239.43 653.12,230.02 656.07,220.24 659.01,211.20 661.96,203.32 664.90,195.47 667.84,187.39 670.79,178.86 673.74,173.70 676.68,168.52 679.63,163.27 682.58,157.88 685.51,156.17 688.46,155.20 691.41,154.56 694.35,154.77 697.30,156.80 700.25,160.34 703.20,164.24 706.14,169.08 709.08,174.43 712.03,180.28 714.97,186.54 717.92,193.24 720.87,200.42 723.81,207.11 726.76,214.00 729.70,221.13 732.64,228.53 735.59,235.32 738.54,242.00 741.48,249.01 744.43,256.25 747.38,263.52 750.31,270.71 753.26,277.79 756.21,285.05 759.15,292.15 762.10,299.45 765.05,306.86 767.99,314.42 770.93,322.13 773.88,330.04 776.83,337.40 779.77,344.90 782.72,351.99 785.67,358.90 788.61,365.71 791.55,372.65 794.50,378.94 797.44,384.97 800.39,390.18 803.34,395.51 806.28,400.95 809.23,406.50 812.17,408.72 815.11,411.13 818.06,413.72 821.01,416.48 823.95,417.02 826.90,416.73 829.85,415.98 832.79,415.36 835.73,412.73 838.68,407.38 841.63,402.01 844.57,396.86 847.52,390.68 850.47,380.24 853.41,370.09 856.35,360.23 859.30,350.63 862.24,338.53 865.19,326.01 868.14,313.82 871.08,302.49 874.03,291.19 876.97,279.93 879.91,268.99 882.86,258.61 885.81,248.75 888.75,239.49 891.70,230.36 894.65,221.34 897.58,212.40 900.53,207.17 903.48,201.97 906.43,196.81 909.37,191.67 912.32,188.66 915.27,186.36 918.20,184.18 921.15,181.76 924.10,181.82 927.04,185.42 929.99,190.46 932.94,195.46 935.88,201.64 938.82,217.80 941.77,234.55 944.71,251.94 947.66,270.03 950.61,297.97 953.55,326.12 956.50,354.60 959.44,385.97 962.38,416.30 965.33,444.83 968.28,472.30 971.22,496.39 974.17,516.13 977.12,526.32 980.06,534.70 983.00,541.21 985.95,545.78 988.90,542.09 991.84,537.45 994.79,531.89 997.74,525.45 1000.68,519.58 1003.62,514.24 1006.57,509.07 1009.51,503.74 1012.46,498.99 1015.41,495.39 1018.35,443.79 1021.30,387.13 1024.24,326.62 1027.18,282.38 1030.13,246.67 1033.08,219.77 1036.02,201.95 1038.97,179.97 1041.92,159.48 1044.86,144.96 1047.80,136.83 1050.75,125.20 1053.70,118.45 1056.64,124.17 1059.59,137.25 1062.54,152.67 1065.47,159.78 1068.42,170.82 1071.37,185.09 1074.31,201.87" fill="none" stroke="#000000" stroke-width="3"/>
<line x1="142" y1="100" x2="178" y2="100" stroke="#000000" stroke-width="4"/>
<text x="188" y="105" font-family="Arial" font-size="18" fill="black">vorticity:1</text>
</svg>