<svg xmlns="http://www.w3.org/2000/svg" width="1200" height="820" viewBox="0 0 1200 820">
<rect width="100%" height="100%" fill="white"/>
<text x="600.0" y="36" text-anchor="middle" font-family="Arial" font-size="24" fill="black">profile_rack_height_x: vorticity:0</text>
<line x1="120.00" y1="75" x2="120.00" y2="705" stroke="#dddddd" stroke-width="1"/>
<text x="120.00" y="737" text-anchor="middle" font-family="Arial" font-size="16" fill="black">-0.560</text>
<line x1="376.25" y1="75" x2="376.25" y2="705" stroke="#dddddd" stroke-width="1"/>
<text x="376.25" y="737" text-anchor="middle" font-family="Arial" font-size="16" fill="black">1.470</text>
<line x1="632.50" y1="75" x2="632.50" y2="705" stroke="#dddddd" stroke-width="1"/>
<text x="632.50" y="737" text-anchor="middle" font-family="Arial" font-size="16" fill="black">3.500</text>
<line x1="888.75" y1="75" x2="888.75" y2="705" stroke="#dddddd" stroke-width="1"/>
<text x="888.75" y="737" text-anchor="middle" font-family="Arial" font-size="16" fill="black">5.530</text>
<line x1="1145.00" y1="75" x2="1145.00" y2="705" stroke="#dddddd" stroke-width="1"/>
<text x="1145.00" y="737" text-anchor="middle" font-family="Arial" font-size="16" fill="black">7.560</text>
<line x1="120" y1="705.00" x2="1145" y2="705.00" stroke="#dddddd" stroke-width="1"/>
<text x="104" y="710.00" text-anchor="end" font-family="Arial" font-size="16" fill="black">-0.236</text>
<line x1="120" y1="547.50" x2="1145" y2="547.50" stroke="#dddddd" stroke-width="1"/>
<text x="104" y="552.50" text-anchor="end" font-family="Arial" font-size="16" fill="black">-0.052</text>
<line x1="120" y1="390.00" x2="1145" y2="390.00" stroke="#dddddd" stroke-width="1"/>
<text x="104" y="395.00" text-anchor="end" font-family="Arial" font-size="16" fill="black">0.132</text>
<line x1="120" y1="232.50" x2="1145" y2="232.50" stroke="#dddddd" stroke-width="1"/>
<text x="104" y="237.50" text-anchor="end" font-family="Arial" font-size="16" fill="black">0.316</text>
<line x1="120" y1="75.00" x2="1145" y2="75.00" stroke="#dddddd" stroke-width="1"/>
<text x="104" y="80.00" text-anchor="end" font-family="Arial" font-size="16" fill="black">0.500</text>
<rect x="120" y="75" width="1025" height="630" fill="none" stroke="black" stroke-width="2"/>
<text x="632.5" y="785" text-anchor="middle" font-family="Arial" font-size="20" fill="black">x coordinate [m]</text>
<text x="34" y="390.0" transform="rotate(-90 34 390.0)" text-anchor="middle" font-family="Arial" font-size="20" fill="black">vorticity:0 [SI]</text>
<polyline points="190.69,529.32 193.64,532.45 196.58,535.57 199.53,538.70 202.47,541.83 205.42,545.86 208.36,550.25 211.31,554.64 214.25,559.03 217.20,561.81 220.14,562.45 223.09,563.09 226.03,563.73 228.98,563.82 231.93,560.66 234.87,557.51 237.82,554.35 240.76,551.19 243.71,545.13 246.65,538.59 249.60,532.04 252.54,525.49 255.49,518.30 258.43,510.62 261.38,502.95 264.32,495.27 267.27,488.16 270.22,482.47 273.16,476.78 276.11,471.08 279.05,465.39 282.00,463.45 284.94,461.50 287.89,459.56 290.83,457.61 293.78,458.98 296.72,461.67 299.67,464.35 302.62,467.04 305.56,471.94 308.51,479.79 311.45,487.65 314.40,495.50 317.34,503.87 320.29,515.32 323.23,526.78 326.17,538.24 329.13,549.70 332.07,560.23 335.01,570.62 337.96,581.00 340.91,591.38 343.85,599.44 346.80,605.77 349.74,612.10 352.68,618.44 355.64,624.24 358.58,628.70 361.52,633.16 364.47,637.62 367.41,642.09 370.35,646.50 373.31,650.91 376.25,655.32 379.19,659.74 382.15,661.10 385.09,661.25 388.03,661.41 390.98,661.55 393.92,657.33 396.86,647.27 399.82,637.20 402.76,627.14 405.70,615.74 408.65,596.36 411.59,576.96 414.54,557.57 417.49,538.17 420.43,517.27 423.37,496.11 426.33,474.95 429.27,453.79 432.21,435.30 435.16,418.82 438.10,402.35 441.04,385.86 444.00,371.17 446.94,360.92 449.88,350.67 452.83,340.42 455.78,330.17 458.72,325.01 461.67,319.85 464.61,314.69 467.55,309.52 470.51,306.95 473.45,305.41 476.39,303.88 479.34,302.34 482.28,301.89 485.23,302.89 488.18,303.88 491.12,304.88 494.06,306.10 497.02,308.66 499.96,311.22 502.90,313.78 505.85,316.35 508.79,319.50 511.73,322.75 514.69,326.00 517.63,329.24 520.57,332.46 523.52,335.64 526.47,338.83 529.41,342.01 532.36,345.01 535.30,347.50 538.24,349.98 541.20,352.48 544.14,354.97 547.08,356.42 550.03,357.86 552.97,359.30 555.92,360.74 558.87,361.36 561.81,361.67 564.75,361.97 567.71,362.27 570.65,362.05 573.59,361.11 576.54,360.19 579.48,359.27 582.42,358.17 585.38,356.08 588.32,354.00 591.26,351.91 594.21,349.83 597.16,347.33 600.10,344.77 603.05,342.19 605.99,339.62 608.93,337.49 611.89,335.68 614.83,333.87 617.77,332.05 620.72,330.84 623.66,331.10 626.60,331.36 629.56,331.62 632.50,331.88 635.44,335.15 638.40,338.42 641.34,341.69 644.28,344.95 647.23,350.47 650.17,356.88 653.11,363.29 656.07,369.70 659.01,376.97 661.95,385.38 664.90,393.80 667.84,402.22 670.79,410.64 673.74,419.05 676.68,427.47 679.62,435.88 682.58,444.29 685.52,451.10 688.46,457.63 691.41,464.16 694.35,470.69 697.29,475.57 700.25,479.21 703.19,482.85 706.13,486.50 709.08,489.35 712.03,490.25 714.97,491.15 717.92,492.05 720.86,492.95 723.80,491.93 726.76,490.91 729.70,489.89 732.64,488.87 735.59,487.03 738.53,484.86 741.48,482.69 744.43,480.52 747.37,478.02 750.31,475.07 753.27,472.12 756.21,469.17 759.15,466.11 762.10,462.45 765.04,458.79 767.98,455.13 770.94,451.47 773.88,447.12 776.82,442.65 779.77,438.17 782.72,433.70 785.66,428.76 788.61,423.46 791.55,418.17 794.49,412.87 797.45,407.46 800.39,401.73 803.33,396.01 806.28,390.29 809.22,384.56 812.17,378.78 815.12,372.99 818.06,367.20 821.00,361.41 823.96,355.97 826.90,350.68 829.84,345.38 832.79,340.09 835.73,335.36 838.67,331.41 841.63,327.45 844.57,323.49 847.51,319.78 850.46,317.48 853.41,315.20 856.35,312.91 859.30,310.62 862.24,309.55 865.18,308.67 868.14,307.80 871.08,306.93 874.02,306.53 876.97,306.50 879.91,306.47 882.85,306.43 885.81,306.48 888.75,306.75 891.69,307.01 894.65,307.28 897.59,307.54 900.53,307.93 903.48,308.31 906.42,308.70 909.36,309.09 912.32,309.85 915.26,310.75 918.20,311.66 921.15,312.57 924.09,313.98 927.04,316.07 929.99,318.17 932.93,320.27 935.87,322.54 938.83,325.92 941.77,329.31 944.71,332.69 947.66,336.07 950.60,339.86 953.54,343.70 956.50,347.55 959.44,351.40 962.38,354.81 965.33,357.90 968.28,360.99 971.22,364.08 974.17,366.66 977.11,367.96 980.05,369.25 983.01,370.55 985.95,371.85 988.89,370.73 991.84,369.62 994.78,368.51 997.73,367.39 1000.68,364.38 1003.62,360.60 1006.56,356.83 1009.52,353.05 1012.46,348.09 1015.40,341.58 1018.35,335.06 1021.29,328.54 1024.23,321.61 1027.19,312.26 1030.13,302.90 1033.07,293.55 1036.02,284.19 1038.97,272.15 1041.91,259.67 1044.86,247.18 1047.80,234.70 1050.74,219.93 1053.70,203.46 1056.64,186.98 1059.58,170.50 1062.53,156.05 1065.47,146.64 1068.42,137.24 1071.37,127.85 1074.31,118.45" fill="none" stroke="#000000" stroke-width="3"/>
<line x1="142" y1="100" x2="178" y2="100" stroke="#000000" stroke-width="4"/>
<text x="188" y="105" font-family="Arial" font-size="18" fill="black">vorticity:0</text>
</svg>