<svg xmlns="http://www.w3.org/2000/svg" width="1200" height="820" viewBox="0 0 1200 820">
<rect width="100%" height="100%" fill="white"/>
<text x="600.0" y="36" text-anchor="middle" font-family="Arial" font-size="24" fill="black">profile_center_y: vorticity:2</text>
<line x1="120.00" y1="75" x2="120.00" y2="705" stroke="#dddddd" stroke-width="1"/>
<text x="120.00" y="737" text-anchor="middle" font-family="Arial" font-size="16" fill="black">-0.400</text>
<line x1="376.25" y1="75" x2="376.25" y2="705" stroke="#dddddd" stroke-width="1"/>
<text x="376.25" y="737" text-anchor="middle" font-family="Arial" font-size="16" fill="black">1.050</text>
<line x1="632.50" y1="75" x2="632.50" y2="705" stroke="#dddddd" stroke-width="1"/>
<text x="632.50" y="737" text-anchor="middle" font-family="Arial" font-size="16" fill="black">2.500</text>
<line x1="888.75" y1="75" x2="888.75" y2="705" stroke="#dddddd" stroke-width="1"/>
<text x="888.75" y="737" text-anchor="middle" font-family="Arial" font-size="16" fill="black">3.950</text>
<line x1="1145.00" y1="75" x2="1145.00" y2="705" stroke="#dddddd" stroke-width="1"/>
<text x="1145.00" y="737" text-anchor="middle" font-family="Arial" font-size="16" fill="black">5.400</text>
<line x1="120" y1="705.00" x2="1145" y2="705.00" stroke="#dddddd" stroke-width="1"/>
<text x="104" y="710.00" text-anchor="end" font-family="Arial" font-size="16" fill="black">-1.567</text>
<line x1="120" y1="547.50" x2="1145" y2="547.50" stroke="#dddddd" stroke-width="1"/>
<text x="104" y="552.50" text-anchor="end" font-family="Arial" font-size="16" fill="black">-0.422</text>
<line x1="120" y1="390.00" x2="1145" y2="390.00" stroke="#dddddd" stroke-width="1"/>
<text x="104" y="395.00" text-anchor="end" font-family="Arial" font-size="16" fill="black">0.722</text>
<line x1="120" y1="232.50" x2="1145" y2="232.50" stroke="#dddddd" stroke-width="1"/>
<text x="104" y="237.50" text-anchor="end" font-family="Arial" font-size="16" fill="black">1.867</text>
<line x1="120" y1="75.00" x2="1145" y2="75.00" stroke="#dddddd" stroke-width="1"/>
<text x="104" y="80.00" text-anchor="end" font-family="Arial" font-size="16" fill="black">3.011</text>
<rect x="120" y="75" width="1025" height="630" fill="none" stroke="black" stroke-width="2"/>
<text x="632.5" y="785" text-anchor="middle" font-family="Arial" font-size="20" fill="black">y coordinate [m]</text>
<text x="34" y="390.0" transform="rotate(-90 34 390.0)" text-anchor="middle" font-family="Arial" font-size="20" fill="black">vorticity:2 [SI]</text>
<polyline points="190.69,661.55 193.64,647.65 196.58,633.74 199.53,619.84 202.47,605.93 205.42,592.03 208.36,578.12 211.31,563.45 214.25,548.78 217.20,534.11 220.14,519.43 223.09,504.76 226.03,490.09 228.98,488.45 231.92,486.81 234.87,485.17 237.82,483.53 240.76,481.89 243.71,480.25 246.65,478.22 249.60,476.19 252.54,474.16 255.49,472.12 258.43,470.09 261.38,468.06 264.33,465.64 267.27,463.23 270.22,460.81 273.16,458.40 276.11,455.98 279.05,453.57 282.00,451.28 284.94,448.99 287.89,446.70 290.83,444.42 293.78,442.13 296.72,439.84 299.67,438.26 302.61,436.67 305.56,435.08 308.51,433.50 311.45,431.91 314.40,430.33 317.34,429.82 320.29,429.31 323.23,428.80 326.18,428.30 329.12,427.79 332.07,427.28 335.01,427.82 337.96,428.36 340.91,428.90 343.85,429.44 346.80,429.99 349.74,430.53 352.69,431.59 355.63,432.66 358.58,433.72 361.52,434.79 364.47,435.86 367.41,436.92 370.37,437.91 373.30,438.90 376.25,439.89 379.20,440.88 382.13,441.87 385.09,442.86 388.04,443.77 390.97,444.68 393.92,445.59 396.87,446.50 399.81,447.41 402.76,448.32 405.71,449.85 408.64,451.37 411.59,452.90 414.55,454.43 417.48,455.96 420.43,457.49 423.38,460.30 426.32,463.12 429.27,465.93 432.22,468.74 435.15,471.55 438.10,474.36 441.05,478.21 443.99,482.06 446.94,485.90 449.89,489.75 452.82,493.60 455.78,497.45 458.73,501.23 461.66,505.01 464.61,508.80 467.56,512.58 470.50,516.37 473.45,520.15 476.40,522.91 479.33,525.67 482.28,528.42 485.24,531.18 488.17,533.94 491.12,536.69 494.07,538.21 497.01,539.73 499.96,541.25 502.91,542.77 505.84,544.29 508.79,545.80 511.74,546.29 514.68,546.79 517.63,547.28 520.58,547.77 523.51,548.26 526.47,548.75 529.42,548.41 532.35,548.08 535.30,547.75 538.25,547.42 541.19,547.08 544.14,546.75 547.09,545.82 550.02,544.88 552.97,543.95 555.93,543.01 558.86,542.08 561.81,541.14 564.76,539.85 567.70,538.57 570.65,537.28 573.60,535.99 576.53,534.70 579.48,533.42 582.43,532.00 585.37,530.58 588.32,529.16 591.27,527.74 594.20,526.33 597.16,524.91 600.11,523.49 603.04,522.08 605.99,520.66 608.94,519.25 611.88,517.83 614.83,516.42 617.78,515.09 620.71,513.76 623.66,512.43 626.62,511.11 629.55,509.78 632.50,508.45 635.45,507.30 638.38,506.16 641.34,505.01 644.29,503.86 647.22,502.72 650.17,501.57 653.12,500.69 656.06,499.82 659.01,498.94 661.96,498.06 664.89,497.18 667.84,496.30 670.80,495.76 673.73,495.22 676.68,494.68 679.63,494.14 682.57,493.60 685.52,493.06 688.47,492.89 691.40,492.73 694.35,492.57 697.30,492.40 700.24,492.24 703.19,492.07 706.14,492.25 709.07,492.43 712.03,492.61 714.98,492.79 717.91,492.97 720.86,493.15 723.81,493.54 726.75,493.93 729.70,494.32 732.65,494.71 735.58,495.09 738.53,495.48 741.49,495.90 744.42,496.32 747.37,496.74 750.32,497.16 753.26,497.58 756.21,497.99 759.16,498.34 762.09,498.69 765.04,499.03 767.99,499.38 770.93,499.72 773.88,500.07 776.83,500.33 779.76,500.60 782.72,500.87 785.67,501.14 788.60,501.41 791.55,501.67 794.50,501.87 797.44,502.06 800.39,502.25 803.34,502.45 806.27,502.64 809.22,502.83 812.18,502.97 815.11,503.11 818.06,503.25 821.01,503.39 823.95,503.53 826.90,503.67 829.85,503.77 832.78,503.88 835.73,503.99 838.68,504.09 841.62,504.20 844.57,504.31 847.52,504.33 850.45,504.35 853.41,504.38 856.36,504.40 859.29,504.43 862.24,504.45 865.19,504.34 868.13,504.23 871.08,504.12 874.03,504.02 876.96,503.91 879.91,503.80 882.87,503.59 885.80,503.39 888.75,503.18 891.70,502.97 894.63,502.77 897.59,502.56 900.54,502.45 903.47,502.34 906.42,502.23 909.37,502.12 912.31,502.01 915.26,501.90 918.21,502.21 921.14,502.51 924.09,502.82 927.05,503.12 929.98,503.42 932.93,503.73 935.88,504.64 938.82,505.56 941.77,506.47 944.72,507.39 947.65,508.31 950.60,509.22 953.55,510.72 956.49,512.22 959.44,513.72 962.39,515.21 965.32,516.71 968.28,518.21 971.23,520.03 974.16,521.84 977.11,523.66 980.06,525.48 983.00,527.30 985.95,529.12 988.90,530.74 991.83,532.36 994.78,533.98 997.74,535.60 1000.67,537.22 1003.62,538.84 1006.57,539.53 1009.51,540.22 1012.46,540.92 1015.41,541.61 1018.34,542.30 1021.29,542.99 1024.24,541.77 1027.18,540.54 1030.13,539.32 1033.08,538.09 1036.01,536.87 1038.97,535.64 1041.92,500.26 1044.85,464.87 1047.80,429.49 1050.75,394.10 1053.69,358.72 1056.64,323.33 1059.59,289.18 1062.52,255.04 1065.47,220.90 1068.43,186.74 1071.36,152.59 1074.31,118.45" fill="none" stroke="#000000" stroke-width="3"/>
<line x1="142" y1="100" x2="178" y2="100" stroke="#000000" stroke-width="4"/>
<text x="188" y="105" font-family="Arial" font-size="18" fill="black">vorticity:2</text>
</svg>