<svg xmlns="http://www.w3.org/2000/svg" width="1200" height="820" viewBox="0 0 1200 820">
<rect width="100%" height="100%" fill="white"/>
<text x="600.0" y="36" text-anchor="middle" font-family="Arial" font-size="24" fill="black">profile_diagonal_supply_return: p</text>
<line x1="120.00" y1="75" x2="120.00" y2="705" stroke="#dddddd" stroke-width="1"/>
<text x="120.00" y="737" text-anchor="middle" font-family="Arial" font-size="16" fill="black">-0.729</text>
<line x1="376.25" y1="75" x2="376.25" y2="705" stroke="#dddddd" stroke-width="1"/>
<text x="376.25" y="737" text-anchor="middle" font-family="Arial" font-size="16" fill="black">1.913</text>
<line x1="632.50" y1="75" x2="632.50" y2="705" stroke="#dddddd" stroke-width="1"/>
<text x="632.50" y="737" text-anchor="middle" font-family="Arial" font-size="16" fill="black">4.555</text>
<line x1="888.75" y1="75" x2="888.75" y2="705" stroke="#dddddd" stroke-width="1"/>
<text x="888.75" y="737" text-anchor="middle" font-family="Arial" font-size="16" fill="black">7.197</text>
<line x1="1145.00" y1="75" x2="1145.00" y2="705" stroke="#dddddd" stroke-width="1"/>
<text x="1145.00" y="737" text-anchor="middle" font-family="Arial" font-size="16" fill="black">9.839</text>
<line x1="120" y1="705.00" x2="1145" y2="705.00" stroke="#dddddd" stroke-width="1"/>
<text x="104" y="710.00" text-anchor="end" font-family="Arial" font-size="16" fill="black">-35.16</text>
<line x1="120" y1="547.50" x2="1145" y2="547.50" stroke="#dddddd" stroke-width="1"/>
<text x="104" y="552.50" text-anchor="end" font-family="Arial" font-size="16" fill="black">-25.72</text>
<line x1="120" y1="390.00" x2="1145" y2="390.00" stroke="#dddddd" stroke-width="1"/>
<text x="104" y="395.00" text-anchor="end" font-family="Arial" font-size="16" fill="black">-16.28</text>
<line x1="120" y1="232.50" x2="1145" y2="232.50" stroke="#dddddd" stroke-width="1"/>
<text x="104" y="237.50" text-anchor="end" font-family="Arial" font-size="16" fill="black">-6.838</text>
<line x1="120" y1="75.00" x2="1145" y2="75.00" stroke="#dddddd" stroke-width="1"/>
<text x="104" y="80.00" text-anchor="end" font-family="Arial" font-size="16" fill="black">2.603</text>
<rect x="120" y="75" width="1025" height="630" fill="none" stroke="black" stroke-width="2"/>
<text x="632.5" y="785" text-anchor="middle" font-family="Arial" font-size="20" fill="black">distance along sample line [m]</text>
<text x="34" y="390.0" transform="rotate(-90 34 390.0)" text-anchor="middle" font-family="Arial" font-size="20" fill="black">p [Pa]</text>
<polyline points="190.69,118.45 193.64,119.43 196.58,120.42 199.53,121.40 202.47,122.39 205.42,123.39 208.36,124.39 211.31,125.39 214.25,126.39 217.20,127.39 220.14,128.37 223.09,130.30 226.03,132.23 228.98,134.16 231.93,136.08 234.87,138.00 237.82,139.92 240.76,141.83 243.71,143.74 246.65,145.65 249.60,147.56 252.54,149.47 255.49,151.37 258.43,153.28 261.38,155.18 264.32,157.08 267.27,158.99 270.22,160.88 273.16,162.78 276.11,164.68 279.05,166.58 282.00,168.47 284.94,170.37 287.88,172.26 290.83,174.16 293.78,176.05 296.73,177.95 299.67,179.85 302.62,181.75 305.57,183.64 308.50,185.55 311.45,187.44 314.40,189.34 317.34,191.24 320.29,193.15 323.24,195.05 326.18,196.96 329.12,198.87 332.07,200.78 335.01,202.69 337.96,204.60 340.91,206.51 343.85,208.42 346.80,210.33 349.74,212.24 352.68,214.16 355.63,216.08 358.58,217.99 361.53,219.90 364.47,221.81 367.42,223.73 370.36,225.63 373.30,227.53 376.25,229.43 379.20,231.34 382.14,233.23 385.09,235.13 388.04,237.02 390.97,238.92 393.92,240.81 396.87,242.70 399.81,244.59 402.76,246.48 405.71,248.37 408.65,250.27 411.59,252.17 414.54,254.06 417.48,255.96 420.43,257.86 423.38,259.76 426.32,261.67 429.27,263.57 432.21,265.47 435.16,267.38 438.10,269.28 441.05,271.19 444.00,273.09 446.94,275.00 449.89,276.91 452.84,278.82 455.77,280.73 458.72,282.63 461.67,284.54 464.61,286.44 467.56,288.36 470.51,290.26 473.45,292.16 476.39,294.07 479.34,295.98 482.28,297.89 485.23,299.79 488.18,301.69 491.12,303.57 494.07,305.48 497.01,307.38 499.96,309.26 502.90,311.17 505.85,313.05 508.80,314.95 511.74,316.84 514.69,318.72 517.63,320.61 520.57,322.49 523.52,324.38 526.47,326.26 529.41,328.13 532.36,330.02 535.31,331.90 538.24,333.77 541.19,335.65 544.14,337.52 547.08,339.39 550.03,341.26 552.98,343.13 555.92,345.00 558.86,346.85 561.81,348.72 564.76,350.58 567.70,352.44 570.65,354.30 573.60,356.16 576.54,358.01 579.49,359.86 582.43,361.71 585.37,363.56 588.32,365.41 591.27,367.27 594.21,369.13 597.16,370.99 600.11,372.84 603.04,374.69 605.99,376.54 608.94,378.39 611.88,380.24 614.83,382.10 617.78,383.95 620.72,385.80 623.66,387.67 626.61,389.52 629.55,391.39 632.50,393.24 635.45,395.11 638.40,396.98 641.34,398.83 644.28,400.70 647.23,402.57 650.17,404.43 653.12,406.30 656.07,408.17 659.01,410.06 661.96,411.92 664.90,413.79 667.84,415.66 670.79,417.55 673.74,419.41 676.68,421.28 679.63,423.15 682.58,425.04 685.51,426.90 688.46,428.77 691.41,430.64 694.35,432.51 697.30,434.38 700.25,436.23 703.20,438.10 706.14,439.97 709.08,441.82 712.03,443.67 714.97,445.54 717.92,447.39 720.87,449.24 723.81,451.09 726.76,452.94 729.70,454.80 732.64,456.65 735.59,458.48 738.54,460.33 741.48,462.17 744.43,464.02 747.38,465.86 750.31,467.69 753.26,469.54 756.21,471.38 759.15,473.21 762.10,475.05 765.05,476.88 767.99,478.72 770.93,480.55 773.88,482.39 776.83,484.22 779.77,486.06 782.72,487.89 785.67,489.74 788.61,491.58 791.55,493.41 794.50,495.25 797.44,497.08 800.39,498.94 803.34,500.77 806.28,502.61 809.23,504.46 812.17,506.29 815.11,508.15 818.06,510.00 821.01,511.85 823.95,513.70 826.90,515.55 829.85,517.40 832.79,519.26 835.73,521.12 838.68,522.98 841.63,524.84 844.57,526.71 847.52,528.56 850.47,530.45 853.41,532.32 856.35,534.19 859.30,536.05 862.24,537.94 865.19,539.81 868.14,541.69 871.08,543.56 874.03,545.45 876.97,547.31 879.91,549.20 882.86,551.07 885.81,552.95 888.75,554.82 891.70,556.69 894.65,558.57 897.58,560.44 900.53,562.29 903.48,564.16 906.43,566.01 909.37,567.88 912.32,569.73 915.27,571.59 918.20,573.44 921.15,575.27 924.10,577.12 927.04,578.98 929.99,580.81 932.94,582.65 935.88,584.50 938.82,586.33 941.77,588.18 944.71,590.04 947.66,591.89 950.61,593.74 953.55,595.61 956.50,597.48 959.44,599.36 962.38,601.25 965.33,603.15 968.28,605.05 971.22,606.95 974.17,608.85 977.12,610.76 980.06,612.66 983.00,614.58 985.95,616.49 988.90,618.38 991.84,620.28 994.79,622.18 997.74,624.08 1000.68,625.95 1003.62,627.80 1006.57,629.64 1009.51,631.47 1012.46,633.29 1015.41,635.08 1018.35,636.88 1021.30,638.65 1024.24,640.40 1027.18,642.18 1030.13,643.95 1033.08,645.72 1036.02,647.49 1038.97,649.27 1041.92,651.03 1044.86,652.76 1047.80,653.59 1050.75,654.45 1053.70,655.33 1056.64,656.21 1059.59,657.08 1062.54,657.95 1065.47,658.85 1068.42,659.75 1071.37,660.65 1074.31,661.55" fill="none" stroke="#000000" stroke-width="3"/>
<line x1="142" y1="100" x2="178" y2="100" stroke="#000000" stroke-width="4"/>
<text x="188" y="105" font-family="Arial" font-size="18" fill="black">p</text>
</svg>