<svg xmlns="http://www.w3.org/2000/svg" width="1200" height="820" viewBox="0 0 1200 820">
<rect width="100%" height="100%" fill="white"/>
<text x="600.0" y="36" text-anchor="middle" font-family="Arial" font-size="24" fill="black">profile_diagonal_supply_return: velocity magnitude</text>
<line x1="120.00" y1="75" x2="120.00" y2="705" stroke="#dddddd" stroke-width="1"/>
<text x="120.00" y="737" text-anchor="middle" font-family="Arial" font-size="16" fill="black">-0.729</text>
<line x1="376.25" y1="75" x2="376.25" y2="705" stroke="#dddddd" stroke-width="1"/>
<text x="376.25" y="737" text-anchor="middle" font-family="Arial" font-size="16" fill="black">1.913</text>
<line x1="632.50" y1="75" x2="632.50" y2="705" stroke="#dddddd" stroke-width="1"/>
<text x="632.50" y="737" text-anchor="middle" font-family="Arial" font-size="16" fill="black">4.555</text>
<line x1="888.75" y1="75" x2="888.75" y2="705" stroke="#dddddd" stroke-width="1"/>
<text x="888.75" y="737" text-anchor="middle" font-family="Arial" font-size="16" fill="black">7.197</text>
<line x1="1145.00" y1="75" x2="1145.00" y2="705" stroke="#dddddd" stroke-width="1"/>
<text x="1145.00" y="737" text-anchor="middle" font-family="Arial" font-size="16" fill="black">9.839</text>
<line x1="120" y1="705.00" x2="1145" y2="705.00" stroke="#dddddd" stroke-width="1"/>
<text x="104" y="710.00" text-anchor="end" font-family="Arial" font-size="16" fill="black">0.012</text>
<line x1="120" y1="547.50" x2="1145" y2="547.50" stroke="#dddddd" stroke-width="1"/>
<text x="104" y="552.50" text-anchor="end" font-family="Arial" font-size="16" fill="black">0.096</text>
<line x1="120" y1="390.00" x2="1145" y2="390.00" stroke="#dddddd" stroke-width="1"/>
<text x="104" y="395.00" text-anchor="end" font-family="Arial" font-size="16" fill="black">0.179</text>
<line x1="120" y1="232.50" x2="1145" y2="232.50" stroke="#dddddd" stroke-width="1"/>
<text x="104" y="237.50" text-anchor="end" font-family="Arial" font-size="16" fill="black">0.263</text>
<line x1="120" y1="75.00" x2="1145" y2="75.00" stroke="#dddddd" stroke-width="1"/>
<text x="104" y="80.00" text-anchor="end" font-family="Arial" font-size="16" fill="black">0.347</text>
<rect x="120" y="75" width="1025" height="630" fill="none" stroke="black" stroke-width="2"/>
<text x="632.5" y="785" text-anchor="middle" font-family="Arial" font-size="20" fill="black">distance along sample line [m]</text>
<text x="34" y="390.0" transform="rotate(-90 34 390.0)" text-anchor="middle" font-family="Arial" font-size="20" fill="black">|U| [m/s]</text>
<polyline points="190.69,463.80 193.64,455.20 196.58,447.96 199.53,442.06 202.47,437.54 205.42,424.27 208.36,408.53 211.31,397.86 214.25,389.84 217.20,383.00 220.14,375.44 223.09,370.35 226.03,367.02 228.98,366.24 231.93,369.73 234.87,373.50 237.82,377.65 240.76,382.32 243.71,389.60 246.65,396.57 249.60,403.47 252.54,411.77 255.49,421.93 258.43,432.60 261.38,442.83 264.32,452.30 267.27,462.68 270.22,472.94 273.16,482.23 276.11,490.53 279.05,497.86 282.00,507.64 284.94,514.51 287.88,519.01 290.83,521.67 293.78,524.04 296.73,524.12 299.67,516.65 302.62,507.42 305.57,500.08 308.50,495.30 311.45,489.66 314.40,482.82 317.34,472.26 320.29,468.15 323.24,463.33 326.18,458.07 329.12,452.58 332.07,452.62 335.01,449.73 337.96,446.53 340.91,444.38 343.85,445.00 346.80,447.38 349.74,449.49 352.68,448.55 355.63,446.79 358.58,443.81 361.53,440.99 364.47,438.39 367.42,436.07 370.36,419.91 373.30,404.85 376.25,390.62 379.20,376.95 382.14,362.15 385.09,347.26 388.04,335.48 390.97,324.28 393.92,319.36 396.87,322.45 399.81,327.52 402.76,332.93 405.71,343.83 408.65,366.53 411.59,388.51 414.54,409.85 417.48,430.66 420.43,441.12 423.38,450.96 426.32,460.27 429.27,471.19 432.21,472.35 435.16,466.59 438.10,461.18 441.05,456.88 444.00,453.07 446.94,449.75 449.89,446.45 452.84,443.19 455.77,440.06 458.72,442.46 461.67,444.42 464.61,446.10 467.56,447.60 470.51,451.02 473.45,455.33 476.39,459.01 479.34,462.65 482.28,466.34 485.23,470.41 488.18,474.54 491.12,479.42 494.07,482.74 497.01,485.23 499.96,488.83 502.90,493.60 505.85,499.58 508.80,504.59 511.74,507.70 514.69,512.32 517.63,518.73 520.57,524.85 523.52,531.60 526.47,540.48 529.41,546.85 532.36,553.74 535.31,559.78 538.24,568.33 541.19,579.35 544.14,592.78 547.08,596.28 550.03,602.60 552.98,611.72 555.92,623.65 558.86,632.08 561.81,640.27 564.76,643.37 567.70,649.60 570.65,654.77 573.60,656.14 576.54,658.28 579.49,661.55 582.43,657.33 585.37,650.23 588.32,643.58 591.27,637.28 594.21,631.24 597.16,625.71 600.11,615.04 603.04,604.24 605.99,593.00 608.94,582.95 611.88,573.64 614.83,564.11 617.78,550.96 620.72,538.56 623.66,528.44 626.61,518.12 629.55,507.61 632.50,496.92 635.45,488.42 638.40,480.06 641.34,471.83 644.28,463.72 647.23,459.54 650.17,457.16 653.12,453.99 656.07,451.45 659.01,451.52 661.96,455.05 664.90,459.23 667.84,464.17 670.79,470.17 673.74,478.73 676.68,488.42 679.63,499.29 682.58,511.49 685.51,522.55 688.46,534.77 691.41,548.40 694.35,561.33 697.30,569.92 700.25,575.43 703.20,582.10 706.14,589.32 709.08,594.28 712.03,591.69 714.97,589.36 717.92,587.06 720.87,584.55 723.81,576.85 726.76,569.52 729.70,562.40 732.64,555.33 735.59,548.09 738.54,540.65 741.48,534.22 744.43,527.47 747.38,521.44 750.31,516.50 753.26,512.34 756.21,507.87 759.15,504.74 762.10,503.78 765.05,502.38 767.99,500.57 770.93,498.43 773.88,497.77 776.83,498.22 779.77,498.37 782.72,498.69 785.67,498.05 788.61,496.69 791.55,495.07 794.50,494.77 797.44,492.88 800.39,487.28 803.34,481.95 806.28,476.92 809.23,472.26 812.17,461.53 815.11,451.58 818.06,442.50 821.01,434.31 823.95,421.57 826.90,407.43 829.85,396.82 832.79,387.36 835.73,377.25 838.68,365.62 841.63,354.71 844.57,345.00 847.52,339.34 850.47,335.55 853.41,332.71 856.35,330.94 859.30,330.35 862.24,335.06 865.19,342.92 868.14,351.56 871.08,359.82 874.03,372.29 876.97,387.62 879.91,403.13 882.86,418.05 885.81,434.52 888.75,454.37 891.70,473.64 894.65,492.41 897.58,510.74 900.53,521.63 903.48,530.28 906.43,536.90 909.37,541.57 912.32,540.53 915.27,535.49 918.20,525.61 921.15,515.07 924.10,500.24 927.04,480.08 929.99,458.08 932.94,436.05 935.88,415.88 938.82,394.73 941.77,374.10 944.71,354.03 947.66,334.46 950.61,324.49 953.55,319.89 956.50,316.31 959.44,313.50 962.38,317.72 965.33,326.17 968.28,333.80 971.22,344.83 974.17,352.46 977.12,351.39 980.06,347.05 983.00,339.15 985.95,327.43 988.90,304.90 991.84,280.28 994.79,253.65 997.74,225.11 1000.68,200.22 1003.62,178.09 1006.57,162.60 1009.51,147.72 1012.46,137.51 1015.41,134.26 1018.35,124.91 1021.30,118.45 1024.24,118.47 1027.18,122.54 1030.13,130.15 1033.08,141.05 1036.02,154.89 1038.97,167.89 1041.92,182.60 1044.86,200.49 1047.80,224.43 1050.75,246.95 1053.70,268.60 1056.64,291.54 1059.59,306.09 1062.54,317.70 1065.47,320.49 1068.42,324.38 1071.37,329.33 1074.31,335.40" fill="none" stroke="#000000" stroke-width="3"/>
<line x1="142" y1="100" x2="178" y2="100" stroke="#000000" stroke-width="4"/>
<text x="188" y="105" font-family="Arial" font-size="18" fill="black">|U|</text>
</svg>