<svg xmlns="http://www.w3.org/2000/svg" width="1200" height="820" viewBox="0 0 1200 820">
<rect width="100%" height="100%" fill="white"/>
<text x="600.0" y="36" text-anchor="middle" font-family="Arial" font-size="24" fill="black">profile_diagonal_supply_return: Q</text>
<line x1="120.00" y1="75" x2="120.00" y2="705" stroke="#dddddd" stroke-width="1"/>
<text x="120.00" y="737" text-anchor="middle" font-family="Arial" font-size="16" fill="black">-0.729</text>
<line x1="376.25" y1="75" x2="376.25" y2="705" stroke="#dddddd" stroke-width="1"/>
<text x="376.25" y="737" text-anchor="middle" font-family="Arial" font-size="16" fill="black">1.913</text>
<line x1="632.50" y1="75" x2="632.50" y2="705" stroke="#dddddd" stroke-width="1"/>
<text x="632.50" y="737" text-anchor="middle" font-family="Arial" font-size="16" fill="black">4.555</text>
<line x1="888.75" y1="75" x2="888.75" y2="705" stroke="#dddddd" stroke-width="1"/>
<text x="888.75" y="737" text-anchor="middle" font-family="Arial" font-size="16" fill="black">7.197</text>
<line x1="1145.00" y1="75" x2="1145.00" y2="705" stroke="#dddddd" stroke-width="1"/>
<text x="1145.00" y="737" text-anchor="middle" font-family="Arial" font-size="16" fill="black">9.839</text>
<line x1="120" y1="705.00" x2="1145" y2="705.00" stroke="#dddddd" stroke-width="1"/>
<text x="104" y="710.00" text-anchor="end" font-family="Arial" font-size="16" fill="black">-0.832</text>
<line x1="120" y1="547.50" x2="1145" y2="547.50" stroke="#dddddd" stroke-width="1"/>
<text x="104" y="552.50" text-anchor="end" font-family="Arial" font-size="16" fill="black">-0.562</text>
<line x1="120" y1="390.00" x2="1145" y2="390.00" stroke="#dddddd" stroke-width="1"/>
<text x="104" y="395.00" text-anchor="end" font-family="Arial" font-size="16" fill="black">-0.293</text>
<line x1="120" y1="232.50" x2="1145" y2="232.50" stroke="#dddddd" stroke-width="1"/>
<text x="104" y="237.50" text-anchor="end" font-family="Arial" font-size="16" fill="black">-0.023</text>
<line x1="120" y1="75.00" x2="1145" y2="75.00" stroke="#dddddd" stroke-width="1"/>
<text x="104" y="80.00" text-anchor="end" font-family="Arial" font-size="16" fill="black">0.247</text>
<rect x="120" y="75" width="1025" height="630" fill="none" stroke="black" stroke-width="2"/>
<text x="632.5" y="785" text-anchor="middle" font-family="Arial" font-size="20" fill="black">distance along sample line [m]</text>
<text x="34" y="390.0" transform="rotate(-90 34 390.0)" text-anchor="middle" font-family="Arial" font-size="20" fill="black">Q [SI]</text>
<polyline points="190.69,661.55 193.64,648.00 196.58,630.87 199.53,610.11 202.47,585.64 205.42,540.34 208.36,487.44 211.31,434.30 214.25,381.74 217.20,338.42 220.14,309.97 223.09,283.32 226.03,261.28 228.98,246.65 231.93,238.35 234.87,228.76 237.82,217.93 240.76,205.87 243.71,198.71 246.65,191.69 249.60,183.86 252.54,174.03 255.49,166.74 258.43,161.84 261.38,156.74 264.32,151.43 267.27,146.60 270.22,145.48 273.16,144.79 276.11,144.51 279.05,144.61 282.00,147.26 284.94,152.21 287.88,158.96 290.83,167.04 293.78,173.82 296.73,181.55 299.67,192.82 302.62,204.86 305.57,213.57 308.50,217.93 311.45,225.61 314.40,233.27 317.34,239.74 320.29,240.05 323.24,240.32 326.18,240.46 329.12,240.41 332.07,235.80 335.01,230.37 337.96,224.98 340.91,221.21 343.85,213.70 346.80,203.35 349.74,192.98 352.68,183.24 355.63,173.22 358.58,161.62 361.53,148.83 364.47,134.55 367.42,118.45 370.36,122.48 373.30,125.01 376.25,125.93 379.20,125.19 382.14,135.99 385.09,150.65 388.04,166.31 390.97,180.99 393.92,194.76 396.87,208.19 399.81,222.38 402.76,235.80 405.71,248.84 408.65,248.81 411.59,249.54 414.54,251.08 417.48,253.54 420.43,251.96 423.38,251.03 426.32,250.38 429.27,248.90 432.21,248.87 435.16,249.53 438.10,250.04 441.05,250.48 444.00,249.95 446.94,247.59 449.89,244.98 452.84,242.14 455.77,239.09 458.72,233.43 461.67,227.87 464.61,222.39 467.56,216.93 470.51,211.39 473.45,205.82 476.39,200.53 479.34,195.28 482.28,190.52 485.23,186.36 488.18,182.28 491.12,178.10 494.07,174.55 497.01,172.04 499.96,169.37 502.90,166.54 505.85,163.53 508.80,161.15 511.74,159.42 514.69,157.51 517.63,155.77 520.57,154.33 523.52,153.00 526.47,151.40 529.41,150.57 532.36,149.90 535.31,149.74 538.24,149.38 541.19,148.79 544.14,147.99 547.08,149.90 550.03,151.61 552.98,153.12 555.92,154.44 558.86,156.77 561.81,159.30 564.76,162.44 567.70,165.40 570.65,168.88 573.60,173.05 576.54,177.14 579.49,180.95 582.43,185.02 585.37,189.81 588.32,194.34 591.27,198.61 594.21,202.61 597.16,206.72 600.11,210.54 603.04,214.12 605.99,217.55 608.94,220.58 611.88,223.22 614.83,225.60 617.78,227.51 620.72,228.96 623.66,229.53 626.61,229.87 629.55,230.00 632.50,229.93 635.45,228.37 638.40,226.60 641.34,224.63 644.28,222.48 647.23,219.70 650.17,216.54 653.12,212.98 656.07,209.25 659.01,205.49 661.96,201.76 664.90,197.96 667.84,194.00 670.79,190.02 673.74,187.17 676.68,184.25 679.63,181.23 682.58,178.08 685.51,176.46 688.46,175.44 691.41,174.51 694.35,173.80 697.30,173.87 700.25,174.56 703.20,175.31 706.14,176.76 709.08,178.43 712.03,180.45 714.97,182.57 717.92,184.81 720.87,187.19 723.81,189.72 726.76,192.27 729.70,194.85 732.64,197.47 735.59,200.12 738.54,202.84 741.48,205.76 744.43,208.72 747.38,211.71 750.31,214.80 753.26,217.60 756.21,220.50 759.15,223.26 762.10,226.05 765.05,228.96 767.99,231.97 770.93,235.09 773.88,238.06 776.83,240.65 779.77,243.37 782.72,245.89 785.67,248.24 788.61,250.55 791.55,253.02 794.50,254.98 797.44,256.84 800.39,258.35 803.34,259.94 806.28,261.60 809.23,263.28 812.17,263.57 815.11,263.90 818.06,264.23 821.01,264.53 823.95,264.27 826.90,263.73 829.85,262.20 832.79,260.47 835.73,257.98 838.68,254.54 841.63,251.22 844.57,247.70 847.52,242.73 850.47,235.66 853.41,228.38 856.35,220.86 859.30,213.11 862.24,203.76 865.19,193.87 868.14,183.95 871.08,174.93 874.03,166.11 876.97,157.57 879.91,149.28 882.86,142.59 885.81,136.62 888.75,131.92 891.70,127.60 894.65,123.70 897.58,120.26 900.53,121.83 903.48,123.57 906.43,125.50 909.37,127.65 912.32,131.45 915.27,135.91 918.20,140.72 921.15,145.49 924.10,151.73 927.04,159.86 929.99,169.08 932.94,178.38 935.88,187.76 938.82,199.96 941.77,211.71 944.71,223.08 947.66,234.13 950.61,238.87 953.55,241.86 956.50,244.11 959.44,246.53 962.38,240.75 965.33,229.08 968.28,217.51 971.22,213.60 974.17,212.09 977.12,212.17 980.06,214.66 983.00,219.56 985.95,226.87 988.90,265.54 991.84,305.70 994.79,346.10 997.74,385.54 1000.68,415.75 1003.62,435.75 1006.57,452.06 1009.51,453.90 1012.46,443.67 1015.41,422.45 1018.35,367.61 1021.30,306.35 1024.24,242.20 1027.18,228.75 1030.13,216.72 1033.08,205.91 1036.02,196.13 1038.97,209.46 1041.92,283.92 1044.86,357.03 1047.80,425.29 1050.75,479.79 1053.70,512.68 1056.64,529.01 1059.59,546.66 1062.54,547.58 1065.47,528.92 1068.42,497.98 1071.37,455.67 1074.31,402.89" fill="none" stroke="#000000" stroke-width="3"/>
<line x1="142" y1="100" x2="178" y2="100" stroke="#000000" stroke-width="4"/>
<text x="188" y="105" font-family="Arial" font-size="18" fill="black">Q</text>
</svg>