<svg xmlns="http://www.w3.org/2000/svg" width="1200" height="820" viewBox="0 0 1200 820">
<rect width="100%" height="100%" fill="white"/>
<text x="600.0" y="36" text-anchor="middle" font-family="Arial" font-size="24" fill="black">profile_near_ceiling_x: rho</text>
<line x1="120.00" y1="75" x2="120.00" y2="705" stroke="#dddddd" stroke-width="1"/>
<text x="120.00" y="737" text-anchor="middle" font-family="Arial" font-size="16" fill="black">-0.560</text>
<line x1="376.25" y1="75" x2="376.25" y2="705" stroke="#dddddd" stroke-width="1"/>
<text x="376.25" y="737" text-anchor="middle" font-family="Arial" font-size="16" fill="black">1.470</text>
<line x1="632.50" y1="75" x2="632.50" y2="705" stroke="#dddddd" stroke-width="1"/>
<text x="632.50" y="737" text-anchor="middle" font-family="Arial" font-size="16" fill="black">3.500</text>
<line x1="888.75" y1="75" x2="888.75" y2="705" stroke="#dddddd" stroke-width="1"/>
<text x="888.75" y="737" text-anchor="middle" font-family="Arial" font-size="16" fill="black">5.530</text>
<line x1="1145.00" y1="75" x2="1145.00" y2="705" stroke="#dddddd" stroke-width="1"/>
<text x="1145.00" y="737" text-anchor="middle" font-family="Arial" font-size="16" fill="black">7.560</text>
<line x1="120" y1="705.00" x2="1145" y2="705.00" stroke="#dddddd" stroke-width="1"/>
<text x="104" y="710.00" text-anchor="end" font-family="Arial" font-size="16" fill="black">1.127</text>
<line x1="120" y1="547.50" x2="1145" y2="547.50" stroke="#dddddd" stroke-width="1"/>
<text x="104" y="552.50" text-anchor="end" font-family="Arial" font-size="16" fill="black">1.129</text>
<line x1="120" y1="390.00" x2="1145" y2="390.00" stroke="#dddddd" stroke-width="1"/>
<text x="104" y="395.00" text-anchor="end" font-family="Arial" font-size="16" fill="black">1.132</text>
<line x1="120" y1="232.50" x2="1145" y2="232.50" stroke="#dddddd" stroke-width="1"/>
<text x="104" y="237.50" text-anchor="end" font-family="Arial" font-size="16" fill="black">1.134</text>
<line x1="120" y1="75.00" x2="1145" y2="75.00" stroke="#dddddd" stroke-width="1"/>
<text x="104" y="80.00" text-anchor="end" font-family="Arial" font-size="16" fill="black">1.137</text>
<rect x="120" y="75" width="1025" height="630" fill="none" stroke="black" stroke-width="2"/>
<text x="632.5" y="785" text-anchor="middle" font-family="Arial" font-size="20" fill="black">x coordinate [m]</text>
<text x="34" y="390.0" transform="rotate(-90 34 390.0)" text-anchor="middle" font-family="Arial" font-size="20" fill="black">rho [kg/m3]</text>
<polyline points="190.69,137.39 193.64,137.39 196.58,137.39 199.53,131.08 202.47,131.08 205.42,131.08 208.36,124.76 211.31,124.76 214.25,124.76 217.20,118.45 220.14,124.76 223.09,124.76 226.03,124.76 228.98,124.76 231.93,124.76 234.87,124.76 237.82,131.08 240.76,131.08 243.71,131.08 246.65,137.39 249.60,143.71 252.54,143.71 255.49,150.02 258.43,150.02 261.38,156.34 264.32,156.34 267.27,162.65 270.22,168.97 273.16,168.97 276.11,175.28 279.05,181.60 282.00,187.91 284.94,187.91 287.89,194.23 290.83,200.55 293.78,200.55 296.72,206.86 299.67,206.86 302.62,213.18 305.56,219.49 308.51,219.49 311.45,225.81 314.40,225.81 317.34,232.12 320.29,232.12 323.23,232.12 326.17,238.44 329.13,238.44 332.07,238.44 335.01,238.44 337.96,244.75 340.91,244.75 343.85,244.75 346.80,244.75 349.74,244.75 352.68,244.75 355.64,244.75 358.58,244.75 361.52,244.75 364.47,244.75 367.41,244.75 370.35,244.75 373.31,244.75 376.25,238.44 379.19,238.44 382.15,238.44 385.09,238.44 388.03,238.44 390.98,238.44 393.92,232.12 396.86,232.12 399.82,232.12 402.76,232.12 405.70,232.12 408.65,232.12 411.59,225.81 414.54,225.81 417.49,225.81 420.43,225.81 423.37,225.81 426.33,219.49 429.27,219.49 432.21,219.49 435.16,219.49 438.10,219.49 441.04,219.49 444.00,219.49 446.94,219.49 449.88,225.81 452.83,225.81 455.78,225.81 458.72,225.81 461.67,232.12 464.61,232.12 467.55,232.12 470.51,238.44 473.45,244.75 476.39,244.75 479.34,251.07 482.28,257.38 485.23,263.70 488.18,270.01 491.12,276.33 494.06,282.64 497.02,288.96 499.96,295.27 502.90,307.90 505.85,314.22 508.79,320.53 511.73,333.16 514.69,345.79 517.63,352.11 520.57,364.74 523.52,371.05 526.47,383.68 529.41,396.32 532.36,402.63 535.30,415.26 538.24,427.89 541.20,434.21 544.14,446.84 547.08,459.47 550.03,465.78 552.97,478.41 555.92,484.73 558.87,497.36 561.81,503.67 564.75,516.30 567.71,522.62 570.65,535.25 573.59,541.56 576.54,547.88 579.48,554.19 582.42,566.82 585.38,573.14 588.32,579.45 591.26,585.77 594.21,592.09 597.16,598.40 600.10,598.40 603.05,604.72 605.99,611.03 608.93,617.35 611.89,617.35 614.83,623.66 617.77,623.66 620.72,629.98 623.66,636.29 626.60,636.29 629.56,636.29 632.50,642.61 635.44,642.61 638.40,648.92 641.34,648.92 644.28,648.92 647.23,655.24 650.17,655.24 653.11,655.24 656.07,655.24 659.01,661.55 661.95,661.55 664.90,661.55 667.84,661.55 670.79,661.55 673.74,661.55 676.68,661.55 679.62,661.55 682.58,661.55 685.52,661.55 688.46,661.55 691.41,661.55 694.35,655.24 697.29,655.24 700.25,655.24 703.19,655.24 706.13,655.24 709.08,648.92 712.03,648.92 714.97,648.92 717.92,648.92 720.86,642.61 723.80,642.61 726.76,642.61 729.70,642.61 732.64,636.29 735.59,636.29 738.53,636.29 741.48,629.98 744.43,629.98 747.37,629.98 750.31,623.66 753.27,623.66 756.21,623.66 759.15,617.35 762.10,617.35 765.04,617.35 767.98,611.03 770.94,611.03 773.88,611.03 776.82,604.72 779.77,604.72 782.72,604.72 785.66,604.72 788.61,598.40 791.55,598.40 794.49,598.40 797.45,592.09 800.39,592.09 803.33,592.09 806.28,592.09 809.22,585.77 812.17,585.77 815.12,585.77 818.06,585.77 821.00,585.77 823.96,585.77 826.90,579.45 829.84,579.45 832.79,579.45 835.73,579.45 838.67,579.45 841.63,579.45 844.57,579.45 847.51,579.45 850.46,579.45 853.41,579.45 856.35,579.45 859.30,579.45 862.24,579.45 865.18,579.45 868.14,579.45 871.08,579.45 874.02,579.45 876.97,579.45 879.91,585.77 882.85,585.77 885.81,585.77 888.75,585.77 891.69,592.09 894.65,592.09 897.59,598.40 900.53,598.40 903.48,598.40 906.42,604.72 909.36,604.72 912.32,611.03 915.26,611.03 918.20,617.35 921.15,617.35 924.09,623.66 927.04,623.66 929.99,629.98 932.93,629.98 935.87,636.29 938.83,636.29 941.77,636.29 944.71,642.61 947.66,642.61 950.60,648.92 953.54,648.92 956.50,648.92 959.44,648.92 962.38,648.92 965.33,655.24 968.28,655.24 971.22,655.24 974.17,655.24 977.11,655.24 980.05,655.24 983.01,655.24 985.95,655.24 988.89,655.24 991.84,655.24 994.78,655.24 997.73,655.24 1000.68,655.24 1003.62,655.24 1006.56,655.24 1009.52,655.24 1012.46,648.92 1015.40,648.92 1018.35,648.92 1021.29,648.92 1024.23,648.92 1027.19,648.92 1030.13,648.92 1033.07,648.92 1036.02,648.92 1038.97,642.61 1041.91,642.61 1044.86,642.61 1047.80,642.61 1050.74,636.29 1053.70,636.29 1056.64,629.98 1059.58,629.98 1062.53,629.98 1065.47,623.66 1068.42,623.66 1071.37,623.66 1074.31,617.35" fill="none" stroke="#000000" stroke-width="3"/>
<line x1="142" y1="100" x2="178" y2="100" stroke="#000000" stroke-width="4"/>
<text x="188" y="105" font-family="Arial" font-size="18" fill="black">rho</text>
</svg>