<svg xmlns="http://www.w3.org/2000/svg" width="1200" height="820" viewBox="0 0 1200 820">
<rect width="100%" height="100%" fill="white"/>
<text x="600.0" y="36" text-anchor="middle" font-family="Arial" font-size="24" fill="black">profile_diagonal_supply_return: rho</text>
<line x1="120.00" y1="75" x2="120.00" y2="705" stroke="#dddddd" stroke-width="1"/>
<text x="120.00" y="737" text-anchor="middle" font-family="Arial" font-size="16" fill="black">-0.729</text>
<line x1="376.25" y1="75" x2="376.25" y2="705" stroke="#dddddd" stroke-width="1"/>
<text x="376.25" y="737" text-anchor="middle" font-family="Arial" font-size="16" fill="black">1.913</text>
<line x1="632.50" y1="75" x2="632.50" y2="705" stroke="#dddddd" stroke-width="1"/>
<text x="632.50" y="737" text-anchor="middle" font-family="Arial" font-size="16" fill="black">4.555</text>
<line x1="888.75" y1="75" x2="888.75" y2="705" stroke="#dddddd" stroke-width="1"/>
<text x="888.75" y="737" text-anchor="middle" font-family="Arial" font-size="16" fill="black">7.197</text>
<line x1="1145.00" y1="75" x2="1145.00" y2="705" stroke="#dddddd" stroke-width="1"/>
<text x="1145.00" y="737" text-anchor="middle" font-family="Arial" font-size="16" fill="black">9.839</text>
<line x1="120" y1="705.00" x2="1145" y2="705.00" stroke="#dddddd" stroke-width="1"/>
<text x="104" y="710.00" text-anchor="end" font-family="Arial" font-size="16" fill="black">1.124</text>
<line x1="120" y1="547.50" x2="1145" y2="547.50" stroke="#dddddd" stroke-width="1"/>
<text x="104" y="552.50" text-anchor="end" font-family="Arial" font-size="16" fill="black">1.134</text>
<line x1="120" y1="390.00" x2="1145" y2="390.00" stroke="#dddddd" stroke-width="1"/>
<text x="104" y="395.00" text-anchor="end" font-family="Arial" font-size="16" fill="black">1.143</text>
<line x1="120" y1="232.50" x2="1145" y2="232.50" stroke="#dddddd" stroke-width="1"/>
<text x="104" y="237.50" text-anchor="end" font-family="Arial" font-size="16" fill="black">1.153</text>
<line x1="120" y1="75.00" x2="1145" y2="75.00" stroke="#dddddd" stroke-width="1"/>
<text x="104" y="80.00" text-anchor="end" font-family="Arial" font-size="16" fill="black">1.162</text>
<rect x="120" y="75" width="1025" height="630" fill="none" stroke="black" stroke-width="2"/>
<text x="632.5" y="785" text-anchor="middle" font-family="Arial" font-size="20" fill="black">distance along sample line [m]</text>
<text x="34" y="390.0" transform="rotate(-90 34 390.0)" text-anchor="middle" font-family="Arial" font-size="20" fill="black">rho [kg/m3]</text>
<polyline points="190.69,198.66 193.64,198.66 196.58,198.66 199.53,196.99 202.47,196.99 205.42,195.32 208.36,191.98 211.31,190.31 214.25,188.63 217.20,186.96 220.14,185.29 223.09,183.62 226.03,181.95 228.98,180.28 231.93,178.61 234.87,176.94 237.82,173.59 240.76,171.92 243.71,166.91 246.65,161.90 249.60,158.55 252.54,153.54 255.49,150.20 258.43,145.19 261.38,140.17 264.32,136.83 267.27,131.82 270.22,128.47 273.16,125.13 276.11,121.79 279.05,118.45 282.00,118.45 284.94,118.45 287.88,118.45 290.83,118.45 293.78,118.45 296.73,120.12 299.67,120.12 302.62,120.12 305.57,121.79 308.50,125.13 311.45,128.47 314.40,131.82 317.34,133.49 320.29,138.50 323.24,141.84 326.18,145.19 329.12,148.53 332.07,151.87 335.01,155.21 337.96,160.23 340.91,163.57 343.85,166.91 346.80,171.92 349.74,175.27 352.68,181.95 355.63,190.31 358.58,198.66 361.53,208.69 364.47,217.04 367.42,225.40 370.36,238.77 373.30,250.46 376.25,263.83 379.20,275.53 382.14,287.23 385.09,298.93 388.04,305.61 390.97,312.29 393.92,317.31 396.87,317.31 399.81,317.31 402.76,315.64 405.71,310.62 408.65,297.25 411.59,282.21 414.54,267.18 417.48,253.81 420.43,237.10 423.38,222.06 426.32,205.34 429.27,188.63 432.21,176.94 435.16,168.58 438.10,161.90 441.05,153.54 444.00,148.53 446.94,146.86 449.89,143.51 452.84,141.84 455.77,140.17 458.72,141.84 461.67,145.19 464.61,146.86 467.56,148.53 470.51,151.87 473.45,156.88 476.39,160.23 479.34,165.24 482.28,170.25 485.23,175.27 488.18,180.28 491.12,186.96 494.07,191.98 497.01,198.66 499.96,203.67 502.90,210.36 505.85,215.37 508.80,222.06 511.74,228.74 514.69,235.42 517.63,242.11 520.57,247.12 523.52,253.81 526.47,258.82 529.41,265.50 532.36,272.19 535.31,278.87 538.24,285.56 541.19,290.57 544.14,297.25 547.08,303.94 550.03,308.95 552.98,315.64 555.92,320.65 558.86,327.33 561.81,332.35 564.76,339.03 567.70,344.05 570.65,350.73 573.60,355.74 576.54,360.76 579.49,365.77 582.43,370.78 585.37,375.80 588.32,379.14 591.27,384.15 594.21,387.49 597.16,390.84 600.11,395.85 603.04,400.86 605.99,405.88 608.94,409.22 611.88,412.56 614.83,417.57 617.78,422.59 620.72,427.60 623.66,432.61 626.61,437.63 629.55,442.64 632.50,449.32 635.45,454.34 638.40,459.35 641.34,464.36 644.28,469.38 647.23,474.39 650.17,477.73 653.12,482.75 656.07,487.76 659.01,491.10 661.96,494.44 664.90,496.11 667.84,497.79 670.79,501.13 673.74,501.13 676.68,502.80 679.63,502.80 682.58,502.80 685.51,501.13 688.46,499.46 691.41,499.46 694.35,496.11 697.30,494.44 700.25,492.77 703.20,491.10 706.14,489.43 709.08,487.76 712.03,486.09 714.97,486.09 717.92,486.09 720.87,484.42 723.81,486.09 726.76,487.76 729.70,487.76 732.64,489.43 735.59,491.10 738.54,492.77 741.48,496.11 744.43,497.79 747.38,501.13 750.31,504.47 753.26,506.14 756.21,509.48 759.15,512.82 762.10,516.17 765.05,519.51 767.99,522.85 770.93,526.19 773.88,531.21 776.83,534.55 779.77,537.89 782.72,541.23 785.67,544.58 788.61,549.59 791.55,552.93 794.50,556.27 797.44,559.62 800.39,562.96 803.34,567.97 806.28,571.31 809.23,574.66 812.17,579.67 815.11,584.68 818.06,588.02 821.01,593.04 823.95,598.05 826.90,604.73 829.85,609.75 832.79,614.76 835.73,621.45 838.68,629.80 841.63,636.49 844.57,643.17 847.52,648.18 850.47,653.20 853.41,656.54 856.35,659.88 859.30,661.55 862.24,661.55 865.19,659.88 868.14,658.21 871.08,656.54 874.03,654.87 876.97,651.53 879.91,648.18 882.86,644.84 885.81,639.83 888.75,636.49 891.70,631.47 894.65,628.13 897.58,624.79 900.53,621.45 903.48,618.10 906.43,614.76 909.37,613.09 912.32,609.75 915.27,608.08 918.20,606.41 921.15,604.73 924.10,603.06 927.04,601.39 929.99,599.72 932.94,598.05 935.88,594.71 938.82,591.37 941.77,589.69 944.71,586.35 947.66,581.34 950.61,576.33 953.55,571.31 956.50,564.63 959.44,557.94 962.38,551.26 965.33,542.90 968.28,534.55 971.22,524.52 974.17,516.17 977.12,507.81 980.06,501.13 983.00,492.77 985.95,486.09 988.90,479.40 991.84,472.72 994.79,467.71 997.74,462.69 1000.68,457.68 1003.62,454.34 1006.57,450.99 1009.51,449.32 1012.46,447.65 1015.41,445.98 1018.35,444.31 1021.30,444.31 1024.24,444.31 1027.18,444.31 1030.13,444.31 1033.08,445.98 1036.02,445.98 1038.97,445.98 1041.92,447.65 1044.86,449.32 1047.80,449.32 1050.75,447.65 1053.70,447.65 1056.64,447.65 1059.59,449.32 1062.54,449.32 1065.47,450.99 1068.42,450.99 1071.37,450.99 1074.31,452.67" fill="none" stroke="#000000" stroke-width="3"/>
<line x1="142" y1="100" x2="178" y2="100" stroke="#000000" stroke-width="4"/>
<text x="188" y="105" font-family="Arial" font-size="18" fill="black">rho</text>
</svg>