<svg xmlns="http://www.w3.org/2000/svg" width="1200" height="820" viewBox="0 0 1200 820">
<rect width="100%" height="100%" fill="white"/>
<text x="600.0" y="36" text-anchor="middle" font-family="Arial" font-size="24" fill="black">profile_center_z: U:2</text>
<line x1="120.00" y1="75" x2="120.00" y2="705" stroke="#dddddd" stroke-width="1"/>
<text x="120.00" y="737" text-anchor="middle" font-family="Arial" font-size="16" fill="black">-0.240</text>
<line x1="376.25" y1="75" x2="376.25" y2="705" stroke="#dddddd" stroke-width="1"/>
<text x="376.25" y="737" text-anchor="middle" font-family="Arial" font-size="16" fill="black">0.630</text>
<line x1="632.50" y1="75" x2="632.50" y2="705" stroke="#dddddd" stroke-width="1"/>
<text x="632.50" y="737" text-anchor="middle" font-family="Arial" font-size="16" fill="black">1.500</text>
<line x1="888.75" y1="75" x2="888.75" y2="705" stroke="#dddddd" stroke-width="1"/>
<text x="888.75" y="737" text-anchor="middle" font-family="Arial" font-size="16" fill="black">2.370</text>
<line x1="1145.00" y1="75" x2="1145.00" y2="705" stroke="#dddddd" stroke-width="1"/>
<text x="1145.00" y="737" text-anchor="middle" font-family="Arial" font-size="16" fill="black">3.240</text>
<line x1="120" y1="705.00" x2="1145" y2="705.00" stroke="#dddddd" stroke-width="1"/>
<text x="104" y="710.00" text-anchor="end" font-family="Arial" font-size="16" fill="black">-0.062</text>
<line x1="120" y1="547.50" x2="1145" y2="547.50" stroke="#dddddd" stroke-width="1"/>
<text x="104" y="552.50" text-anchor="end" font-family="Arial" font-size="16" fill="black">0.085</text>
<line x1="120" y1="390.00" x2="1145" y2="390.00" stroke="#dddddd" stroke-width="1"/>
<text x="104" y="395.00" text-anchor="end" font-family="Arial" font-size="16" fill="black">0.232</text>
<line x1="120" y1="232.50" x2="1145" y2="232.50" stroke="#dddddd" stroke-width="1"/>
<text x="104" y="237.50" text-anchor="end" font-family="Arial" font-size="16" fill="black">0.379</text>
<line x1="120" y1="75.00" x2="1145" y2="75.00" stroke="#dddddd" stroke-width="1"/>
<text x="104" y="80.00" text-anchor="end" font-family="Arial" font-size="16" fill="black">0.526</text>
<rect x="120" y="75" width="1025" height="630" fill="none" stroke="black" stroke-width="2"/>
<text x="632.5" y="785" text-anchor="middle" font-family="Arial" font-size="20" fill="black">z coordinate [m]</text>
<text x="34" y="390.0" transform="rotate(-90 34 390.0)" text-anchor="middle" font-family="Arial" font-size="20" fill="black">U:2 [SI]</text>
<polyline points="190.69,118.45 193.64,121.15 196.58,123.84 199.53,126.53 202.47,129.22 205.42,131.91 208.36,134.61 211.31,137.29 214.25,139.98 217.20,142.67 220.14,145.36 223.09,152.40 226.03,159.44 228.98,166.47 231.93,173.51 234.87,180.55 237.82,187.58 240.76,194.62 243.71,201.64 246.65,208.68 249.60,215.72 252.54,225.28 255.49,234.84 258.43,244.39 261.38,253.95 264.32,263.51 267.27,273.07 270.22,282.62 273.16,292.19 276.11,301.75 279.05,311.31 282.00,322.41 284.94,333.51 287.89,344.62 290.83,355.72 293.78,366.82 296.72,377.92 299.67,389.03 302.61,400.13 305.56,411.23 308.51,422.34 311.45,434.40 314.40,446.48 317.34,458.55 320.29,470.63 323.23,482.70 326.18,494.78 329.12,506.85 332.07,518.92 335.01,530.99 337.96,543.07 340.91,551.94 343.85,560.81 346.80,569.69 349.74,578.56 352.69,587.44 355.63,596.31 358.58,605.18 361.52,614.06 364.47,622.93 367.41,631.80 370.36,634.78 373.30,637.75 376.25,640.73 379.20,643.70 382.14,646.68 385.09,649.65 388.03,652.63 390.98,655.60 393.92,658.58 396.87,661.55 399.81,661.45 402.76,661.34 405.70,661.23 408.65,661.13 411.59,661.02 414.54,660.91 417.49,660.81 420.43,660.70 423.38,660.59 426.32,660.49 429.27,659.19 432.21,657.89 435.16,656.59 438.10,655.30 441.05,654.00 443.99,652.70 446.94,651.40 449.89,650.11 452.83,648.81 455.78,647.51 458.72,645.55 461.67,643.59 464.61,641.63 467.56,639.67 470.50,637.71 473.45,635.74 476.39,633.78 479.34,631.82 482.28,629.86 485.23,627.90 488.18,625.79 491.12,623.68 494.07,621.57 497.01,619.46 499.96,617.35 502.90,615.24 505.85,613.13 508.79,611.02 511.74,608.91 514.68,606.80 517.63,604.76 520.57,602.73 523.52,600.69 526.47,598.65 529.41,596.62 532.36,594.58 535.30,592.54 538.25,590.50 541.19,588.47 544.14,586.43 547.08,584.58 550.03,582.72 552.97,580.87 555.92,579.02 558.86,577.16 561.81,575.31 564.76,573.46 567.70,571.61 570.65,569.75 573.59,567.90 576.54,566.30 579.48,564.69 582.43,563.09 585.37,561.48 588.32,559.88 591.26,558.28 594.21,556.67 597.16,555.07 600.10,553.47 603.05,551.86 605.99,550.53 608.94,549.21 611.88,547.88 614.83,546.55 617.77,545.22 620.72,543.89 623.66,542.57 626.61,541.24 629.55,539.91 632.50,538.58 635.45,537.53 638.39,536.47 641.34,535.42 644.28,534.37 647.23,533.31 650.17,532.26 653.12,531.21 656.06,530.16 659.01,529.10 661.95,528.05 664.90,527.26 667.84,526.48 670.79,525.69 673.74,524.91 676.68,524.12 679.63,523.34 682.57,522.56 685.52,521.77 688.46,520.98 691.41,520.20 694.35,519.69 697.30,519.17 700.24,518.67 703.19,518.16 706.14,517.64 709.08,517.13 712.03,516.61 714.97,516.11 717.92,515.60 720.86,515.08 723.81,514.85 726.75,514.62 729.70,514.38 732.64,514.15 735.59,513.92 738.53,513.69 741.48,513.45 744.43,513.23 747.37,512.99 750.32,512.76 753.26,512.82 756.21,512.87 759.15,512.94 762.10,512.99 765.04,513.06 767.99,513.11 770.93,513.17 773.88,513.23 776.82,513.29 779.77,513.35 782.72,513.71 785.66,514.06 788.61,514.43 791.55,514.79 794.50,515.15 797.44,515.51 800.39,515.86 803.33,516.23 806.28,516.58 809.22,516.95 812.17,517.61 815.11,518.27 818.06,518.94 821.01,519.60 823.95,520.27 826.90,520.93 829.84,521.60 832.79,522.26 835.73,522.92 838.68,523.59 841.62,524.55 844.57,525.52 847.51,526.48 850.46,527.45 853.41,528.42 856.35,529.38 859.30,530.35 862.24,531.31 865.19,532.28 868.13,533.24 871.08,534.49 874.02,535.74 876.97,536.99 879.91,538.24 882.86,539.49 885.80,540.74 888.75,541.99 891.70,543.24 894.64,544.49 897.59,545.74 900.53,547.23 903.48,548.72 906.42,550.21 909.37,551.70 912.31,553.19 915.26,554.68 918.20,556.17 921.15,557.66 924.09,559.15 927.04,560.63 929.99,562.28 932.93,563.92 935.88,565.56 938.82,567.21 941.77,568.85 944.71,570.49 947.66,572.13 950.60,573.78 953.55,575.42 956.49,577.06 959.44,578.70 962.39,580.34 965.33,581.98 968.28,583.62 971.22,585.26 974.17,586.90 977.11,588.54 980.06,590.18 983.00,591.82 985.95,593.46 988.89,595.08 991.84,596.69 994.78,598.31 997.73,599.93 1000.68,601.55 1003.62,603.17 1006.57,604.79 1009.51,606.41 1012.46,608.03 1015.40,609.64 1018.35,610.52 1021.29,611.40 1024.24,612.28 1027.18,613.16 1030.13,614.05 1033.07,614.93 1036.02,615.81 1038.97,616.69 1041.91,617.57 1044.86,618.45 1047.80,618.50 1050.75,618.56 1053.69,618.61 1056.64,618.67 1059.58,618.73 1062.53,618.78 1065.47,618.84 1068.42,618.89 1071.36,618.95 1074.31,619.00" fill="none" stroke="#000000" stroke-width="3"/>
<line x1="142" y1="100" x2="178" y2="100" stroke="#000000" stroke-width="4"/>
<text x="188" y="105" font-family="Arial" font-size="18" fill="black">U:2</text>
</svg>