<svg xmlns="http://www.w3.org/2000/svg" width="1200" height="820" viewBox="0 0 1200 820">
<rect width="100%" height="100%" fill="white"/>
<text x="600.0" y="36" text-anchor="middle" font-family="Arial" font-size="24" fill="black">profile_near_floor_x: p</text>
<line x1="120.00" y1="75" x2="120.00" y2="705" stroke="#dddddd" stroke-width="1"/>
<text x="120.00" y="737" text-anchor="middle" font-family="Arial" font-size="16" fill="black">-0.560</text>
<line x1="376.25" y1="75" x2="376.25" y2="705" stroke="#dddddd" stroke-width="1"/>
<text x="376.25" y="737" text-anchor="middle" font-family="Arial" font-size="16" fill="black">1.470</text>
<line x1="632.50" y1="75" x2="632.50" y2="705" stroke="#dddddd" stroke-width="1"/>
<text x="632.50" y="737" text-anchor="middle" font-family="Arial" font-size="16" fill="black">3.500</text>
<line x1="888.75" y1="75" x2="888.75" y2="705" stroke="#dddddd" stroke-width="1"/>
<text x="888.75" y="737" text-anchor="middle" font-family="Arial" font-size="16" fill="black">5.530</text>
<line x1="1145.00" y1="75" x2="1145.00" y2="705" stroke="#dddddd" stroke-width="1"/>
<text x="1145.00" y="737" text-anchor="middle" font-family="Arial" font-size="16" fill="black">7.560</text>
<line x1="120" y1="705.00" x2="1145" y2="705.00" stroke="#dddddd" stroke-width="1"/>
<text x="104" y="710.00" text-anchor="end" font-family="Arial" font-size="16" fill="black">-1.283</text>
<line x1="120" y1="547.50" x2="1145" y2="547.50" stroke="#dddddd" stroke-width="1"/>
<text x="104" y="552.50" text-anchor="end" font-family="Arial" font-size="16" fill="black">-1.217</text>
<line x1="120" y1="390.00" x2="1145" y2="390.00" stroke="#dddddd" stroke-width="1"/>
<text x="104" y="395.00" text-anchor="end" font-family="Arial" font-size="16" fill="black">-1.152</text>
<line x1="120" y1="232.50" x2="1145" y2="232.50" stroke="#dddddd" stroke-width="1"/>
<text x="104" y="237.50" text-anchor="end" font-family="Arial" font-size="16" fill="black">-1.086</text>
<line x1="120" y1="75.00" x2="1145" y2="75.00" stroke="#dddddd" stroke-width="1"/>
<text x="104" y="80.00" text-anchor="end" font-family="Arial" font-size="16" fill="black">-1.021</text>
<rect x="120" y="75" width="1025" height="630" fill="none" stroke="black" stroke-width="2"/>
<text x="632.5" y="785" text-anchor="middle" font-family="Arial" font-size="20" fill="black">x coordinate [m]</text>
<text x="34" y="390.0" transform="rotate(-90 34 390.0)" text-anchor="middle" font-family="Arial" font-size="20" fill="black">p [Pa]</text>
<polyline points="190.69,310.30 193.64,312.47 196.58,314.63 199.53,316.79 202.47,319.20 205.42,322.08 208.36,325.21 211.31,328.33 214.25,331.70 217.20,333.86 220.14,334.82 223.09,335.79 226.03,336.75 228.98,337.47 231.93,336.51 234.87,335.55 237.82,334.58 240.76,333.62 243.71,330.50 246.65,327.37 249.60,324.01 252.54,320.88 255.49,316.79 258.43,312.22 261.38,307.90 264.32,303.33 267.27,299.48 270.22,297.32 273.16,295.40 276.11,293.23 279.05,291.07 282.00,293.23 284.94,295.64 287.89,297.80 290.83,300.20 293.78,301.65 296.72,303.09 299.67,304.53 302.62,305.73 305.56,302.13 308.51,291.55 311.45,280.97 314.40,270.63 317.34,259.33 320.29,243.47 323.23,227.60 326.17,211.97 329.13,196.10 332.07,186.25 335.01,177.35 337.96,168.70 340.91,159.80 343.85,153.79 346.80,149.70 349.74,145.62 352.68,141.53 355.64,138.40 358.58,137.20 361.52,136.00 364.47,135.04 367.41,133.84 370.35,135.28 373.31,136.72 376.25,138.16 379.19,139.61 382.15,142.97 385.09,147.06 388.03,151.15 390.98,155.23 393.92,161.00 396.86,168.70 399.82,176.39 402.76,184.08 405.70,192.74 408.65,206.68 411.59,220.63 414.54,234.33 417.49,248.27 420.43,257.17 423.37,265.34 426.33,273.28 429.27,281.45 432.21,282.65 435.16,278.57 438.10,274.72 441.04,270.63 444.00,266.31 446.94,261.02 449.88,255.49 452.83,250.20 455.78,244.91 458.72,242.02 461.67,239.38 464.61,236.49 467.55,233.61 470.51,232.41 473.45,231.44 476.39,230.48 479.34,229.76 482.28,229.04 485.23,228.56 488.18,227.84 491.12,227.36 494.06,226.88 497.02,227.12 499.96,227.36 502.90,227.60 505.85,227.60 508.79,228.08 511.73,228.32 514.69,228.56 517.63,229.04 520.57,228.80 523.52,228.08 526.47,227.36 529.41,226.88 532.36,226.40 535.30,227.12 538.24,227.84 541.20,228.56 544.14,229.28 547.08,233.37 550.03,237.70 552.97,242.02 555.92,246.35 558.87,249.96 561.81,253.32 564.75,256.93 567.71,260.29 570.65,258.61 573.59,249.72 576.54,241.06 579.48,232.17 582.42,222.79 585.38,208.60 588.32,194.66 591.26,180.48 594.21,166.53 597.16,158.36 600.10,150.90 603.05,143.69 605.99,136.48 608.93,131.43 611.89,128.31 614.83,125.18 617.77,122.05 620.72,119.65 623.66,119.41 626.60,118.93 629.56,118.69 632.50,118.45 635.44,120.85 638.40,123.50 641.34,126.14 644.28,128.55 647.23,133.35 650.17,139.36 653.11,145.13 656.07,150.90 659.01,159.08 661.95,170.62 664.90,181.92 667.84,193.46 670.79,205.96 673.74,224.95 676.68,243.95 679.62,262.94 682.58,281.93 685.52,295.88 688.46,309.10 691.41,322.32 694.35,335.55 697.29,341.32 700.25,341.56 703.19,342.04 706.13,342.28 709.08,342.04 712.03,340.35 714.97,338.67 717.92,336.75 720.86,335.06 723.80,335.30 726.76,335.30 729.70,335.30 732.64,335.55 735.59,335.30 738.53,334.82 741.48,334.58 744.43,334.10 747.37,333.86 750.31,333.62 753.27,333.38 756.21,333.14 759.15,333.14 762.10,335.06 765.04,336.75 767.98,338.67 770.94,340.35 773.88,342.04 776.82,343.48 779.77,345.16 782.72,346.85 785.66,346.85 788.61,345.88 791.55,344.92 794.49,343.96 797.45,342.76 800.39,341.32 803.33,339.87 806.28,338.43 809.22,336.99 812.17,338.19 815.12,339.63 818.06,340.83 821.00,342.28 823.96,342.52 826.90,342.28 829.84,342.28 832.79,342.04 835.73,336.75 838.67,324.49 841.63,312.22 844.57,300.20 847.51,287.46 850.46,271.83 853.41,256.21 856.35,240.58 859.30,224.95 862.24,217.02 865.18,210.53 868.14,203.80 871.08,197.31 874.02,194.18 876.97,193.22 879.91,192.50 882.85,191.78 885.81,192.26 888.75,195.62 891.69,199.23 894.65,202.59 897.59,206.20 900.53,214.37 903.48,222.55 906.42,230.72 909.36,238.90 912.32,250.68 915.26,264.14 918.20,277.36 921.15,290.83 924.09,307.18 927.04,327.85 929.99,348.53 932.93,368.96 935.87,390.60 938.83,418.97 941.77,447.10 944.71,475.47 947.66,503.60 950.60,521.39 953.54,537.26 956.50,553.12 959.44,568.99 962.38,575.96 965.33,576.44 968.28,576.68 971.22,577.17 974.17,577.89 977.11,579.81 980.05,581.97 983.01,583.90 985.95,585.82 988.89,590.15 991.84,594.23 994.78,598.56 997.73,602.65 1000.68,607.22 1003.62,611.54 1006.56,616.11 1009.52,620.68 1012.46,625.01 1015.40,629.10 1018.35,633.18 1021.29,637.27 1024.23,641.36 1027.19,644.24 1030.13,647.37 1033.07,650.49 1036.02,653.62 1038.97,655.54 1041.91,657.22 1044.86,659.15 1047.80,660.83 1050.74,661.55 1053.70,661.55 1056.64,661.31 1059.58,661.07 1062.53,660.83 1065.47,659.87 1068.42,659.15 1071.37,658.43 1074.31,657.46" fill="none" stroke="#000000" stroke-width="3"/>
<line x1="142" y1="100" x2="178" y2="100" stroke="#000000" stroke-width="4"/>
<text x="188" y="105" font-family="Arial" font-size="18" fill="black">p</text>
</svg>