<svg xmlns="http://www.w3.org/2000/svg" width="1200" height="820" viewBox="0 0 1200 820">
<rect width="100%" height="100%" fill="white"/>
<text x="600.0" y="36" text-anchor="middle" font-family="Arial" font-size="24" fill="black">profile_near_ceiling_x: p</text>
<line x1="120.00" y1="75" x2="120.00" y2="705" stroke="#dddddd" stroke-width="1"/>
<text x="120.00" y="737" text-anchor="middle" font-family="Arial" font-size="16" fill="black">-0.560</text>
<line x1="376.25" y1="75" x2="376.25" y2="705" stroke="#dddddd" stroke-width="1"/>
<text x="376.25" y="737" text-anchor="middle" font-family="Arial" font-size="16" fill="black">1.470</text>
<line x1="632.50" y1="75" x2="632.50" y2="705" stroke="#dddddd" stroke-width="1"/>
<text x="632.50" y="737" text-anchor="middle" font-family="Arial" font-size="16" fill="black">3.500</text>
<line x1="888.75" y1="75" x2="888.75" y2="705" stroke="#dddddd" stroke-width="1"/>
<text x="888.75" y="737" text-anchor="middle" font-family="Arial" font-size="16" fill="black">5.530</text>
<line x1="1145.00" y1="75" x2="1145.00" y2="705" stroke="#dddddd" stroke-width="1"/>
<text x="1145.00" y="737" text-anchor="middle" font-family="Arial" font-size="16" fill="black">7.560</text>
<line x1="120" y1="705.00" x2="1145" y2="705.00" stroke="#dddddd" stroke-width="1"/>
<text x="104" y="710.00" text-anchor="end" font-family="Arial" font-size="16" fill="black">-31.50</text>
<line x1="120" y1="547.50" x2="1145" y2="547.50" stroke="#dddddd" stroke-width="1"/>
<text x="104" y="552.50" text-anchor="end" font-family="Arial" font-size="16" fill="black">-31.48</text>
<line x1="120" y1="390.00" x2="1145" y2="390.00" stroke="#dddddd" stroke-width="1"/>
<text x="104" y="395.00" text-anchor="end" font-family="Arial" font-size="16" fill="black">-31.46</text>
<line x1="120" y1="232.50" x2="1145" y2="232.50" stroke="#dddddd" stroke-width="1"/>
<text x="104" y="237.50" text-anchor="end" font-family="Arial" font-size="16" fill="black">-31.44</text>
<line x1="120" y1="75.00" x2="1145" y2="75.00" stroke="#dddddd" stroke-width="1"/>
<text x="104" y="80.00" text-anchor="end" font-family="Arial" font-size="16" fill="black">-31.42</text>
<rect x="120" y="75" width="1025" height="630" fill="none" stroke="black" stroke-width="2"/>
<text x="632.5" y="785" text-anchor="middle" font-family="Arial" font-size="20" fill="black">x coordinate [m]</text>
<text x="34" y="390.0" transform="rotate(-90 34 390.0)" text-anchor="middle" font-family="Arial" font-size="20" fill="black">p [Pa]</text>
<polyline points="190.69,257.89 193.64,265.23 196.58,279.91 199.53,287.25 202.47,294.59 205.42,316.61 208.36,338.63 211.31,360.64 214.25,375.32 217.20,397.34 220.14,419.36 223.09,441.37 226.03,463.39 228.98,485.41 231.93,507.43 234.87,529.45 237.82,551.46 240.76,566.14 243.71,580.82 246.65,595.50 249.60,610.18 252.54,624.86 255.49,632.19 258.43,639.53 261.38,646.87 264.32,654.21 267.27,661.55 270.22,661.55 273.16,654.21 276.11,654.21 279.05,654.21 282.00,646.87 284.94,639.53 287.89,632.19 290.83,624.86 293.78,610.18 296.72,602.84 299.67,588.16 302.62,580.82 305.56,566.14 308.51,551.46 311.45,536.78 314.40,522.11 317.34,514.77 320.29,500.09 323.23,485.41 326.17,478.07 329.13,463.39 332.07,456.05 335.01,441.37 337.96,434.04 340.91,426.70 343.85,419.36 346.80,412.02 349.74,404.68 352.68,404.68 355.64,397.34 358.58,397.34 361.52,397.34 364.47,397.34 367.41,397.34 370.35,397.34 373.31,397.34 376.25,404.68 379.19,404.68 382.15,404.68 385.09,412.02 388.03,419.36 390.98,419.36 393.92,426.70 396.86,434.04 399.82,434.04 402.76,441.37 405.70,448.71 408.65,448.71 411.59,456.05 414.54,456.05 417.49,463.39 420.43,463.39 423.37,470.73 426.33,470.73 429.27,470.73 432.21,478.07 435.16,478.07 438.10,478.07 441.04,478.07 444.00,478.07 446.94,478.07 449.88,470.73 452.83,470.73 455.78,470.73 458.72,470.73 461.67,463.39 464.61,463.39 467.55,456.05 470.51,456.05 473.45,448.71 476.39,441.37 479.34,441.37 482.28,434.04 485.23,434.04 488.18,426.70 491.12,419.36 494.06,419.36 497.02,412.02 499.96,404.68 502.90,404.68 505.85,397.34 508.79,397.34 511.73,397.34 514.69,390.00 517.63,390.00 520.57,390.00 523.52,382.66 526.47,382.66 529.41,382.66 532.36,375.32 535.30,375.32 538.24,375.32 541.20,367.98 544.14,367.98 547.08,360.64 550.03,360.64 552.97,353.30 555.92,345.96 558.87,338.63 561.81,338.63 564.75,331.29 567.71,323.95 570.65,316.61 573.59,309.27 576.54,301.93 579.48,294.59 582.42,287.25 585.38,272.57 588.32,265.23 591.26,257.89 594.21,250.55 597.16,243.22 600.10,235.88 603.05,228.54 605.99,213.86 608.93,206.52 611.89,206.52 614.83,199.18 617.77,191.84 620.72,184.50 623.66,184.50 626.60,177.16 629.56,169.82 632.50,169.82 635.44,169.82 638.40,162.48 641.34,162.48 644.28,162.48 647.23,162.48 650.17,162.48 653.11,162.48 656.07,162.48 659.01,162.48 661.95,169.82 664.90,169.82 667.84,177.16 670.79,177.16 673.74,184.50 676.68,191.84 679.62,199.18 682.58,206.52 685.52,213.86 688.46,221.20 691.41,228.54 694.35,235.88 697.29,250.55 700.25,257.89 703.19,265.23 706.13,272.57 709.08,279.91 712.03,287.25 714.97,294.59 717.92,301.93 720.86,309.27 723.80,316.61 726.76,323.95 729.70,331.29 732.64,338.63 735.59,338.63 738.53,345.96 741.48,345.96 744.43,353.30 747.37,353.30 750.31,353.30 753.27,360.64 756.21,360.64 759.15,360.64 762.10,360.64 765.04,360.64 767.98,353.30 770.94,353.30 773.88,353.30 776.82,345.96 779.77,345.96 782.72,338.63 785.66,338.63 788.61,331.29 791.55,323.95 794.49,323.95 797.45,316.61 800.39,309.27 803.33,301.93 806.28,301.93 809.22,294.59 812.17,287.25 815.12,279.91 818.06,272.57 821.00,265.23 823.96,257.89 826.90,250.55 829.84,243.22 832.79,235.88 835.73,235.88 838.67,228.54 841.63,221.20 844.57,213.86 847.51,206.52 850.46,206.52 853.41,199.18 856.35,199.18 859.30,191.84 862.24,191.84 865.18,184.50 868.14,184.50 871.08,184.50 874.02,177.16 876.97,177.16 879.91,177.16 882.85,177.16 885.81,177.16 888.75,184.50 891.69,184.50 894.65,184.50 897.59,191.84 900.53,191.84 903.48,191.84 906.42,199.18 909.36,199.18 912.32,206.52 915.26,206.52 918.20,213.86 921.15,213.86 924.09,221.20 927.04,221.20 929.99,221.20 932.93,228.54 935.87,228.54 938.83,235.88 941.77,235.88 944.71,235.88 947.66,243.22 950.60,243.22 953.54,243.22 956.50,243.22 959.44,250.55 962.38,250.55 965.33,250.55 968.28,250.55 971.22,250.55 974.17,257.89 977.11,257.89 980.05,257.89 983.01,257.89 985.95,257.89 988.89,250.55 991.84,250.55 994.78,250.55 997.73,250.55 1000.68,250.55 1003.62,243.22 1006.56,243.22 1009.52,235.88 1012.46,235.88 1015.40,228.54 1018.35,221.20 1021.29,221.20 1024.23,213.86 1027.19,206.52 1030.13,199.18 1033.07,191.84 1036.02,184.50 1038.97,184.50 1041.91,177.16 1044.86,169.82 1047.80,162.48 1050.74,155.14 1053.70,147.81 1056.64,140.47 1059.58,133.13 1062.53,125.79 1065.47,125.79 1068.42,118.45 1071.37,118.45 1074.31,118.45" fill="none" stroke="#000000" stroke-width="3"/>
<line x1="142" y1="100" x2="178" y2="100" stroke="#000000" stroke-width="4"/>
<text x="188" y="105" font-family="Arial" font-size="18" fill="black">p</text>
</svg>