<svg xmlns="http://www.w3.org/2000/svg" width="1200" height="820" viewBox="0 0 1200 820">
<rect width="100%" height="100%" fill="white"/>
<text x="600.0" y="36" text-anchor="middle" font-family="Arial" font-size="24" fill="black">profile_diagonal_supply_return: U:0</text>
<line x1="120.00" y1="75" x2="120.00" y2="705" stroke="#dddddd" stroke-width="1"/>
<text x="120.00" y="737" text-anchor="middle" font-family="Arial" font-size="16" fill="black">-0.729</text>
<line x1="376.25" y1="75" x2="376.25" y2="705" stroke="#dddddd" stroke-width="1"/>
<text x="376.25" y="737" text-anchor="middle" font-family="Arial" font-size="16" fill="black">1.913</text>
<line x1="632.50" y1="75" x2="632.50" y2="705" stroke="#dddddd" stroke-width="1"/>
<text x="632.50" y="737" text-anchor="middle" font-family="Arial" font-size="16" fill="black">4.555</text>
<line x1="888.75" y1="75" x2="888.75" y2="705" stroke="#dddddd" stroke-width="1"/>
<text x="888.75" y="737" text-anchor="middle" font-family="Arial" font-size="16" fill="black">7.197</text>
<line x1="1145.00" y1="75" x2="1145.00" y2="705" stroke="#dddddd" stroke-width="1"/>
<text x="1145.00" y="737" text-anchor="middle" font-family="Arial" font-size="16" fill="black">9.839</text>
<line x1="120" y1="705.00" x2="1145" y2="705.00" stroke="#dddddd" stroke-width="1"/>
<text x="104" y="710.00" text-anchor="end" font-family="Arial" font-size="16" fill="black">-0.293</text>
<line x1="120" y1="547.50" x2="1145" y2="547.50" stroke="#dddddd" stroke-width="1"/>
<text x="104" y="552.50" text-anchor="end" font-family="Arial" font-size="16" fill="black">-0.203</text>
<line x1="120" y1="390.00" x2="1145" y2="390.00" stroke="#dddddd" stroke-width="1"/>
<text x="104" y="395.00" text-anchor="end" font-family="Arial" font-size="16" fill="black">-0.112</text>
<line x1="120" y1="232.50" x2="1145" y2="232.50" stroke="#dddddd" stroke-width="1"/>
<text x="104" y="237.50" text-anchor="end" font-family="Arial" font-size="16" fill="black">-0.022</text>
<line x1="120" y1="75.00" x2="1145" y2="75.00" stroke="#dddddd" stroke-width="1"/>
<text x="104" y="80.00" text-anchor="end" font-family="Arial" font-size="16" fill="black">0.068</text>
<rect x="120" y="75" width="1025" height="630" fill="none" stroke="black" stroke-width="2"/>
<text x="632.5" y="785" text-anchor="middle" font-family="Arial" font-size="20" fill="black">distance along sample line [m]</text>
<text x="34" y="390.0" transform="rotate(-90 34 390.0)" text-anchor="middle" font-family="Arial" font-size="20" fill="black">U:0 [SI]</text>
<polyline points="190.69,413.16 193.64,419.73 196.58,425.89 199.53,431.63 202.47,436.91 205.42,450.90 208.36,467.96 211.31,479.70 214.25,490.48 217.20,499.34 220.14,506.40 223.09,510.28 226.03,513.76 228.98,514.71 231.93,509.44 234.87,504.43 237.82,499.74 240.76,495.42 243.71,486.80 246.65,477.54 249.60,468.85 252.54,459.96 255.49,448.88 258.43,436.32 261.38,424.44 264.32,413.18 267.27,401.35 270.22,387.29 273.16,373.86 276.11,361.15 279.05,349.21 282.00,332.45 284.94,316.59 287.88,301.67 290.83,287.73 293.78,273.55 296.73,259.96 299.67,247.90 302.62,237.04 305.57,226.79 308.50,216.93 311.45,206.96 314.40,198.72 317.34,192.56 320.29,186.00 323.24,180.76 326.18,176.80 329.12,174.08 332.07,170.31 335.01,168.19 337.96,166.96 340.91,165.98 343.85,163.63 346.80,160.55 349.74,158.43 352.68,157.86 355.63,156.43 358.58,151.93 361.53,148.10 364.47,144.87 367.42,142.13 370.36,136.48 373.30,131.68 376.25,127.63 379.20,124.26 382.14,121.75 385.09,119.73 388.04,119.01 390.97,118.45 393.92,118.74 396.87,120.01 399.81,122.43 402.76,125.21 405.71,128.43 408.65,130.39 411.59,132.36 414.54,134.33 417.48,136.24 420.43,136.77 423.38,136.89 426.32,136.86 429.27,138.40 432.21,141.27 435.16,144.97 438.10,148.46 441.05,151.78 444.00,155.83 446.94,161.95 449.89,167.81 452.84,173.40 455.77,178.70 458.72,187.65 461.67,196.26 464.61,204.52 467.56,212.46 470.51,220.84 473.45,229.20 476.39,237.47 479.34,245.39 482.28,253.09 485.23,260.58 488.18,267.65 491.12,274.22 494.07,280.69 497.01,286.57 499.96,291.81 502.90,296.40 505.85,300.36 508.80,303.71 511.74,307.07 514.69,309.70 517.63,310.74 520.57,311.13 523.52,310.86 526.47,309.84 529.41,309.12 532.36,307.74 535.31,305.93 538.24,303.38 541.19,300.09 544.14,296.08 547.08,292.65 550.03,288.60 552.98,283.93 555.92,278.63 558.86,273.26 561.81,267.55 564.76,263.07 567.70,258.03 570.65,252.76 573.60,247.42 576.54,241.24 579.49,234.63 582.43,229.63 585.37,224.85 588.32,219.71 591.27,214.21 594.21,208.32 597.16,202.60 600.11,198.58 603.04,194.23 605.99,189.63 608.94,185.07 611.88,180.53 614.83,175.75 617.78,172.54 620.72,169.25 623.66,166.16 626.61,162.88 629.55,159.39 632.50,155.69 635.45,154.44 638.40,153.10 641.34,151.68 644.28,150.17 647.23,149.10 650.17,148.23 653.12,148.86 656.07,149.55 659.01,150.66 661.96,152.42 664.90,154.63 667.84,157.01 670.79,160.89 673.74,165.52 676.68,170.51 679.63,175.90 682.58,181.70 685.51,187.87 688.46,195.38 691.41,203.48 694.35,211.81 697.30,220.08 700.25,228.43 703.20,237.29 706.14,246.72 709.08,256.27 712.03,265.24 714.97,274.77 717.92,284.87 720.87,295.57 723.81,303.12 726.76,311.15 729.70,319.68 732.64,328.72 735.59,336.82 738.54,344.78 741.48,351.83 744.43,359.33 747.38,366.39 750.31,372.68 753.26,378.29 756.21,384.29 759.15,388.74 762.10,391.72 765.05,395.02 767.99,398.59 770.93,402.47 773.88,404.68 776.83,405.17 779.77,405.85 782.72,405.89 785.67,404.93 788.61,403.25 791.55,401.73 794.50,399.07 797.44,396.05 800.39,391.83 803.34,387.66 806.28,383.56 809.23,379.50 812.17,372.73 815.11,366.10 818.06,359.58 821.01,353.16 823.95,346.20 826.90,339.01 829.85,331.19 832.79,323.46 835.73,315.71 838.68,307.89 841.63,299.96 844.57,292.09 847.52,283.85 850.47,276.18 853.41,268.65 856.35,261.25 859.30,253.99 862.24,248.15 865.19,242.11 868.14,236.29 871.08,230.52 874.03,226.16 876.97,222.93 879.91,219.88 882.86,216.16 885.81,213.31 888.75,212.43 891.70,211.76 894.65,211.30 897.58,211.06 900.53,212.17 903.48,213.39 906.43,214.71 909.37,216.16 912.32,218.93 915.27,222.41 918.20,224.93 921.15,227.70 924.10,230.82 927.04,234.44 929.99,238.59 932.94,243.08 935.88,246.35 938.82,248.83 941.77,251.88 944.71,255.48 947.66,259.62 950.61,263.54 953.55,266.68 956.50,270.68 959.44,277.40 962.38,285.40 965.33,295.08 968.28,306.52 971.22,317.88 974.17,330.57 977.12,344.08 980.06,359.44 983.00,376.70 985.95,395.94 988.90,415.60 991.84,437.82 994.79,462.78 997.74,490.71 1000.68,515.13 1003.62,538.92 1006.57,563.35 1009.51,589.71 1012.46,610.15 1015.41,620.21 1018.35,636.54 1021.30,650.77 1024.24,661.55 1027.18,658.22 1030.13,651.24 1033.08,640.62 1036.02,626.34 1038.97,607.88 1041.92,587.60 1044.86,564.68 1047.80,536.07 1050.75,505.97 1053.70,475.08 1056.64,443.70 1059.59,412.18 1062.54,385.44 1065.47,371.56 1068.42,357.60 1071.37,343.60 1074.31,329.57" fill="none" stroke="#000000" stroke-width="3"/>
<line x1="142" y1="100" x2="178" y2="100" stroke="#000000" stroke-width="4"/>
<text x="188" y="105" font-family="Arial" font-size="18" fill="black">U:0</text>
</svg>