<svg xmlns="http://www.w3.org/2000/svg" width="1200" height="820" viewBox="0 0 1200 820">
<rect width="100%" height="100%" fill="white"/>
<text x="600.0" y="36" text-anchor="middle" font-family="Arial" font-size="24" fill="black">profile_center_y: epsilon</text>
<line x1="120.00" y1="75" x2="120.00" y2="705" stroke="#dddddd" stroke-width="1"/>
<text x="120.00" y="737" text-anchor="middle" font-family="Arial" font-size="16" fill="black">-0.400</text>
<line x1="376.25" y1="75" x2="376.25" y2="705" stroke="#dddddd" stroke-width="1"/>
<text x="376.25" y="737" text-anchor="middle" font-family="Arial" font-size="16" fill="black">1.050</text>
<line x1="632.50" y1="75" x2="632.50" y2="705" stroke="#dddddd" stroke-width="1"/>
<text x="632.50" y="737" text-anchor="middle" font-family="Arial" font-size="16" fill="black">2.500</text>
<line x1="888.75" y1="75" x2="888.75" y2="705" stroke="#dddddd" stroke-width="1"/>
<text x="888.75" y="737" text-anchor="middle" font-family="Arial" font-size="16" fill="black">3.950</text>
<line x1="1145.00" y1="75" x2="1145.00" y2="705" stroke="#dddddd" stroke-width="1"/>
<text x="1145.00" y="737" text-anchor="middle" font-family="Arial" font-size="16" fill="black">5.400</text>
<line x1="120" y1="705.00" x2="1145" y2="705.00" stroke="#dddddd" stroke-width="1"/>
<text x="104" y="710.00" text-anchor="end" font-family="Arial" font-size="16" fill="black">6.36e-04</text>
<line x1="120" y1="547.50" x2="1145" y2="547.50" stroke="#dddddd" stroke-width="1"/>
<text x="104" y="552.50" text-anchor="end" font-family="Arial" font-size="16" fill="black">0.001</text>
<line x1="120" y1="390.00" x2="1145" y2="390.00" stroke="#dddddd" stroke-width="1"/>
<text x="104" y="395.00" text-anchor="end" font-family="Arial" font-size="16" fill="black">0.002</text>
<line x1="120" y1="232.50" x2="1145" y2="232.50" stroke="#dddddd" stroke-width="1"/>
<text x="104" y="237.50" text-anchor="end" font-family="Arial" font-size="16" fill="black">0.003</text>
<line x1="120" y1="75.00" x2="1145" y2="75.00" stroke="#dddddd" stroke-width="1"/>
<text x="104" y="80.00" text-anchor="end" font-family="Arial" font-size="16" fill="black">0.004</text>
<rect x="120" y="75" width="1025" height="630" fill="none" stroke="black" stroke-width="2"/>
<text x="632.5" y="785" text-anchor="middle" font-family="Arial" font-size="20" fill="black">y coordinate [m]</text>
<text x="34" y="390.0" transform="rotate(-90 34 390.0)" text-anchor="middle" font-family="Arial" font-size="20" fill="black">epsilon [m2/s3]</text>
<polyline points="190.69,228.18 193.64,239.56 196.58,250.94 199.53,262.29 202.47,273.67 205.42,285.02 208.36,296.40 211.31,310.30 214.25,324.23 217.20,338.13 220.14,352.06 223.09,365.96 226.03,379.89 228.98,382.87 231.92,385.83 234.87,388.80 237.82,391.76 240.76,394.74 243.71,397.72 246.65,396.32 249.60,394.93 252.54,393.54 255.49,392.15 258.43,390.75 261.38,389.36 264.33,383.30 267.27,377.23 270.22,371.17 273.16,365.13 276.11,359.07 279.05,353.00 282.00,342.72 284.94,332.44 287.89,322.15 290.83,311.87 293.78,301.58 296.72,291.30 299.67,279.22 302.61,267.13 305.56,255.05 308.51,242.97 311.45,230.91 314.40,218.82 317.34,208.77 320.29,198.73 323.23,188.68 326.18,178.63 329.12,168.58 332.07,158.53 335.01,153.52 337.96,148.49 340.91,143.47 343.85,138.46 346.80,133.42 349.74,128.41 352.69,129.78 355.63,131.15 358.58,132.52 361.52,133.90 364.47,135.27 367.41,136.64 370.37,144.14 373.30,151.63 376.25,159.13 379.20,166.63 382.13,174.11 385.09,181.61 388.04,192.21 390.97,202.82 393.92,213.42 396.87,224.03 399.81,234.63 402.76,245.24 405.71,254.58 408.64,263.94 411.59,273.30 414.55,282.67 417.48,292.01 420.43,301.37 423.38,306.32 426.32,311.25 429.27,316.20 432.22,321.12 435.15,326.07 438.10,331.02 441.05,329.99 443.99,328.96 446.94,327.94 449.89,326.91 452.82,325.88 455.78,324.87 458.73,318.23 461.66,311.59 464.61,304.95 467.56,298.31 470.50,291.64 473.45,285.00 476.40,275.62 479.33,266.21 482.28,256.83 485.24,247.42 488.17,238.04 491.12,228.63 494.07,220.86 497.01,213.08 499.96,205.30 502.91,197.50 505.84,189.73 508.79,181.95 511.74,179.40 514.68,176.87 517.63,174.32 520.58,171.77 523.51,169.22 526.47,166.67 529.42,170.51 532.35,174.34 535.30,178.18 538.25,182.01 541.19,185.85 544.14,189.68 547.09,197.53 550.02,205.37 552.97,213.21 555.93,221.05 558.86,228.89 561.81,236.73 564.76,244.10 567.70,251.47 570.65,258.82 573.60,266.19 576.53,273.56 579.48,280.91 582.43,284.53 585.37,288.15 588.32,291.77 591.27,295.39 594.20,299.01 597.16,302.63 600.11,301.67 603.04,300.73 605.99,299.78 608.94,298.84 611.88,297.90 614.83,296.94 617.78,292.11 620.71,287.27 623.66,282.45 626.62,277.61 629.55,272.77 632.50,267.95 635.45,260.66 638.38,253.38 641.34,246.12 644.29,238.83 647.22,231.55 650.17,224.29 653.12,216.44 656.06,208.60 659.01,200.78 661.96,192.94 664.89,185.12 667.84,177.28 670.80,170.85 673.73,164.45 676.68,158.02 679.63,151.59 682.57,145.16 685.52,138.74 688.47,135.37 691.40,131.99 694.35,128.60 697.30,125.22 700.24,121.83 703.19,118.45 706.14,118.83 709.07,119.22 712.03,119.61 714.98,119.99 717.91,120.38 720.86,120.76 723.81,124.04 726.75,127.30 729.70,130.57 732.65,133.85 735.58,137.11 738.53,140.39 741.49,145.01 744.42,149.64 747.37,154.27 750.32,158.90 753.26,163.55 756.21,168.17 759.16,173.59 762.09,179.04 765.04,184.46 767.99,189.90 770.93,195.32 773.88,200.76 776.83,207.10 779.76,213.47 782.72,219.83 785.67,226.19 788.60,232.55 791.55,238.92 794.50,246.20 797.44,253.47 800.39,260.75 803.34,268.03 806.27,275.32 809.22,282.60 812.18,290.55 815.11,298.48 818.06,306.43 821.01,314.37 823.95,322.30 826.90,330.25 829.85,338.48 832.78,346.70 835.73,354.95 838.68,363.18 841.62,371.41 844.57,379.63 847.52,387.86 850.45,396.09 853.41,404.31 856.36,412.54 859.29,420.77 862.24,429.00 865.19,437.01 868.13,445.02 871.08,453.03 874.03,461.05 876.96,469.06 879.91,477.07 882.87,484.51 885.80,491.94 888.75,499.38 891.70,506.81 894.63,514.27 897.59,521.70 900.54,527.83 903.47,533.98 906.42,540.12 909.37,546.27 912.31,552.40 915.26,558.55 918.21,563.01 921.14,567.44 924.09,571.90 927.05,576.35 929.98,580.79 932.93,585.24 935.88,588.35 938.82,591.46 941.77,594.56 944.72,597.65 947.65,600.76 950.60,603.86 953.55,606.18 956.49,608.49 959.44,610.80 962.39,613.12 965.32,615.43 968.28,617.75 971.23,619.74 974.16,621.71 977.11,623.70 980.06,625.69 983.00,627.67 985.95,629.66 988.90,631.62 991.83,633.58 994.78,635.54 997.74,637.50 1000.67,639.46 1003.62,641.42 1006.57,643.37 1009.51,645.33 1012.46,647.29 1015.41,649.24 1018.34,651.20 1021.29,653.15 1024.24,654.55 1027.18,655.95 1030.13,657.35 1033.08,658.75 1036.01,660.15 1038.97,661.55 1041.92,660.41 1044.85,659.27 1047.80,658.13 1050.75,656.99 1053.69,655.85 1056.64,654.71 1059.59,653.12 1062.52,651.53 1065.47,649.95 1068.43,648.36 1071.36,646.78 1074.31,645.19" fill="none" stroke="#000000" stroke-width="3"/>
<line x1="142" y1="100" x2="178" y2="100" stroke="#000000" stroke-width="4"/>
<text x="188" y="105" font-family="Arial" font-size="18" fill="black">epsilon</text>
</svg>