<svg xmlns="http://www.w3.org/2000/svg" width="1200" height="820" viewBox="0 0 1200 820">
<rect width="100%" height="100%" fill="white"/>
<text x="600.0" y="36" text-anchor="middle" font-family="Arial" font-size="24" fill="black">profile_near_ceiling_x: T</text>
<line x1="120.00" y1="75" x2="120.00" y2="705" stroke="#dddddd" stroke-width="1"/>
<text x="120.00" y="737" text-anchor="middle" font-family="Arial" font-size="16" fill="black">-0.560</text>
<line x1="376.25" y1="75" x2="376.25" y2="705" stroke="#dddddd" stroke-width="1"/>
<text x="376.25" y="737" text-anchor="middle" font-family="Arial" font-size="16" fill="black">1.470</text>
<line x1="632.50" y1="75" x2="632.50" y2="705" stroke="#dddddd" stroke-width="1"/>
<text x="632.50" y="737" text-anchor="middle" font-family="Arial" font-size="16" fill="black">3.500</text>
<line x1="888.75" y1="75" x2="888.75" y2="705" stroke="#dddddd" stroke-width="1"/>
<text x="888.75" y="737" text-anchor="middle" font-family="Arial" font-size="16" fill="black">5.530</text>
<line x1="1145.00" y1="75" x2="1145.00" y2="705" stroke="#dddddd" stroke-width="1"/>
<text x="1145.00" y="737" text-anchor="middle" font-family="Arial" font-size="16" fill="black">7.560</text>
<line x1="120" y1="705.00" x2="1145" y2="705.00" stroke="#dddddd" stroke-width="1"/>
<text x="104" y="710.00" text-anchor="end" font-family="Arial" font-size="16" fill="black">314.9</text>
<line x1="120" y1="547.50" x2="1145" y2="547.50" stroke="#dddddd" stroke-width="1"/>
<text x="104" y="552.50" text-anchor="end" font-family="Arial" font-size="16" fill="black">316.6</text>
<line x1="120" y1="390.00" x2="1145" y2="390.00" stroke="#dddddd" stroke-width="1"/>
<text x="104" y="395.00" text-anchor="end" font-family="Arial" font-size="16" fill="black">318.4</text>
<line x1="120" y1="232.50" x2="1145" y2="232.50" stroke="#dddddd" stroke-width="1"/>
<text x="104" y="237.50" text-anchor="end" font-family="Arial" font-size="16" fill="black">320.2</text>
<line x1="120" y1="75.00" x2="1145" y2="75.00" stroke="#dddddd" stroke-width="1"/>
<text x="104" y="80.00" text-anchor="end" font-family="Arial" font-size="16" fill="black">322.0</text>
<rect x="120" y="75" width="1025" height="630" fill="none" stroke="black" stroke-width="2"/>
<text x="632.5" y="785" text-anchor="middle" font-family="Arial" font-size="20" fill="black">x coordinate [m]</text>
<text x="34" y="390.0" transform="rotate(-90 34 390.0)" text-anchor="middle" font-family="Arial" font-size="20" fill="black">T [K]</text>
<polyline points="190.69,362.76 193.64,359.24 196.58,355.73 199.53,352.21 202.47,348.70 205.42,344.30 208.36,339.03 211.31,333.76 214.25,328.48 217.20,324.97 220.14,322.33 223.09,319.70 226.03,317.06 228.98,314.42 231.93,313.54 234.87,311.79 237.82,310.03 240.76,309.15 243.71,308.27 246.65,307.39 249.60,307.39 252.54,306.51 255.49,306.51 258.43,306.51 261.38,306.51 264.32,306.51 267.27,307.39 270.22,307.39 273.16,308.27 276.11,309.15 279.05,310.03 282.00,311.79 284.94,313.54 287.89,314.42 290.83,316.18 293.78,318.82 296.72,321.45 299.67,323.21 302.62,325.85 305.56,329.36 308.51,332.88 311.45,336.39 314.40,339.91 317.34,344.30 320.29,348.70 323.23,353.97 326.17,359.24 329.13,363.64 332.07,369.79 335.01,376.82 337.96,382.97 340.91,390.00 343.85,397.03 346.80,404.94 349.74,412.85 352.68,420.76 355.64,428.67 358.58,437.46 361.52,446.24 364.47,455.91 367.41,464.70 370.35,474.37 373.31,483.15 376.25,492.82 379.19,502.49 382.15,511.28 385.09,520.06 388.03,527.97 390.98,536.76 393.92,545.55 396.86,552.58 399.82,560.49 402.76,567.52 405.70,575.43 408.65,582.46 411.59,589.49 414.54,596.52 417.49,602.67 420.43,608.82 423.37,614.97 426.33,621.13 429.27,627.28 432.21,632.55 435.16,637.82 438.10,642.22 441.04,646.61 444.00,651.01 446.94,653.64 449.88,656.28 452.83,658.92 455.78,661.55 458.72,659.79 461.67,658.92 464.61,658.04 467.55,656.28 470.51,650.13 473.45,642.22 476.39,633.43 479.34,625.52 482.28,613.22 485.23,597.40 488.18,580.70 491.12,564.88 494.06,548.19 497.02,530.61 499.96,513.91 502.90,496.34 505.85,478.76 508.79,466.46 511.73,454.15 514.69,442.73 517.63,430.43 520.57,421.64 523.52,415.49 526.47,409.33 529.41,403.18 532.36,397.91 535.30,394.39 538.24,390.88 541.20,388.24 544.14,384.73 547.08,382.97 550.03,381.21 552.97,379.45 555.92,378.58 558.87,376.82 561.81,375.94 564.75,375.06 567.71,374.18 570.65,373.30 573.59,372.42 576.54,371.55 579.48,370.67 582.42,370.67 585.38,369.79 588.32,368.91 591.26,368.03 594.21,368.03 597.16,367.15 600.10,366.27 603.05,365.39 605.99,364.51 608.93,363.64 611.89,361.88 614.83,361.00 617.77,359.24 620.72,358.36 623.66,356.61 626.60,354.85 629.56,353.09 632.50,351.33 635.44,349.57 638.40,346.94 641.34,345.18 644.28,342.54 647.23,340.79 650.17,338.15 653.11,335.51 656.07,333.76 659.01,331.12 661.95,329.36 664.90,326.73 667.84,324.97 670.79,323.21 673.74,320.57 676.68,318.82 679.62,317.06 682.58,315.30 685.52,313.54 688.46,310.91 691.41,309.15 694.35,307.39 697.29,305.63 700.25,304.76 703.19,303.00 706.13,301.24 709.08,299.48 712.03,297.73 714.97,296.85 717.92,295.09 720.86,293.33 723.80,292.45 726.76,290.69 729.70,288.94 732.64,288.06 735.59,286.30 738.53,285.42 741.48,283.66 744.43,282.79 747.37,281.91 750.31,280.15 753.27,279.27 756.21,277.51 759.15,276.63 762.10,275.75 765.04,274.00 767.98,273.12 770.94,272.24 773.88,270.48 776.82,269.60 779.77,268.72 782.72,266.97 785.66,266.09 788.61,265.21 791.55,263.45 794.49,262.57 797.45,260.82 800.39,259.94 803.33,258.18 806.28,257.30 809.22,255.54 812.17,254.66 815.12,252.91 818.06,251.15 821.00,250.27 823.96,248.51 826.90,246.75 829.84,245.00 832.79,243.24 835.73,240.60 838.67,238.84 841.63,236.21 844.57,233.57 847.51,231.81 850.46,228.30 853.41,225.66 856.35,222.15 859.30,219.51 862.24,215.12 865.18,211.60 868.14,207.21 871.08,203.69 874.02,199.30 876.97,194.03 879.91,188.75 882.85,184.36 885.81,179.09 888.75,173.81 891.69,168.54 894.65,163.27 897.59,157.99 900.53,153.60 903.48,149.21 906.42,144.81 909.36,140.42 912.32,136.90 915.26,134.27 918.20,130.75 921.15,128.12 924.09,125.48 927.04,123.72 929.99,122.84 932.93,121.08 935.87,120.21 938.83,119.33 941.77,119.33 944.71,119.33 947.66,118.45 950.60,119.33 953.54,120.21 956.50,120.21 959.44,121.08 962.38,121.96 965.33,122.84 968.28,124.60 971.22,125.48 974.17,126.36 977.11,128.12 980.05,128.99 983.01,130.75 985.95,131.63 988.89,133.39 991.84,135.15 994.78,136.90 997.73,137.78 1000.68,139.54 1003.62,141.30 1006.56,143.05 1009.52,145.69 1012.46,147.45 1015.40,150.96 1018.35,154.48 1021.29,157.12 1024.23,160.63 1027.19,167.66 1030.13,174.69 1033.07,181.72 1036.02,188.75 1038.97,201.94 1041.91,216.87 1044.86,230.94 1047.80,245.88 1050.74,266.09 1053.70,290.69 1056.64,315.30 1059.58,339.91 1062.53,361.88 1065.47,377.70 1068.42,392.64 1071.37,407.58 1074.31,422.52" fill="none" stroke="#000000" stroke-width="3"/>
<line x1="142" y1="100" x2="178" y2="100" stroke="#000000" stroke-width="4"/>
<text x="188" y="105" font-family="Arial" font-size="18" fill="black">T</text>
</svg>