<svg xmlns="http://www.w3.org/2000/svg" width="1200" height="820" viewBox="0 0 1200 820">
<rect width="100%" height="100%" fill="white"/>
<text x="600.0" y="36" text-anchor="middle" font-family="Arial" font-size="24" fill="black">profile_center_x: epsilon</text>
<line x1="120.00" y1="75" x2="120.00" y2="705" stroke="#dddddd" stroke-width="1"/>
<text x="120.00" y="737" text-anchor="middle" font-family="Arial" font-size="16" fill="black">-0.560</text>
<line x1="376.25" y1="75" x2="376.25" y2="705" stroke="#dddddd" stroke-width="1"/>
<text x="376.25" y="737" text-anchor="middle" font-family="Arial" font-size="16" fill="black">1.470</text>
<line x1="632.50" y1="75" x2="632.50" y2="705" stroke="#dddddd" stroke-width="1"/>
<text x="632.50" y="737" text-anchor="middle" font-family="Arial" font-size="16" fill="black">3.500</text>
<line x1="888.75" y1="75" x2="888.75" y2="705" stroke="#dddddd" stroke-width="1"/>
<text x="888.75" y="737" text-anchor="middle" font-family="Arial" font-size="16" fill="black">5.530</text>
<line x1="1145.00" y1="75" x2="1145.00" y2="705" stroke="#dddddd" stroke-width="1"/>
<text x="1145.00" y="737" text-anchor="middle" font-family="Arial" font-size="16" fill="black">7.560</text>
<line x1="120" y1="705.00" x2="1145" y2="705.00" stroke="#dddddd" stroke-width="1"/>
<text x="104" y="710.00" text-anchor="end" font-family="Arial" font-size="16" fill="black">3.43e-04</text>
<line x1="120" y1="547.50" x2="1145" y2="547.50" stroke="#dddddd" stroke-width="1"/>
<text x="104" y="552.50" text-anchor="end" font-family="Arial" font-size="16" fill="black">0.002</text>
<line x1="120" y1="390.00" x2="1145" y2="390.00" stroke="#dddddd" stroke-width="1"/>
<text x="104" y="395.00" text-anchor="end" font-family="Arial" font-size="16" fill="black">0.004</text>
<line x1="120" y1="232.50" x2="1145" y2="232.50" stroke="#dddddd" stroke-width="1"/>
<text x="104" y="237.50" text-anchor="end" font-family="Arial" font-size="16" fill="black">0.006</text>
<line x1="120" y1="75.00" x2="1145" y2="75.00" stroke="#dddddd" stroke-width="1"/>
<text x="104" y="80.00" text-anchor="end" font-family="Arial" font-size="16" fill="black">0.008</text>
<rect x="120" y="75" width="1025" height="630" fill="none" stroke="black" stroke-width="2"/>
<text x="632.5" y="785" text-anchor="middle" font-family="Arial" font-size="20" fill="black">x coordinate [m]</text>
<text x="34" y="390.0" transform="rotate(-90 34 390.0)" text-anchor="middle" font-family="Arial" font-size="20" fill="black">epsilon [m2/s3]</text>
<polyline points="190.69,118.45 193.64,148.42 196.58,178.41 199.53,208.39 202.47,238.38 205.42,271.65 208.36,306.25 211.31,340.84 214.25,375.43 217.20,398.39 220.14,405.83 223.09,413.26 226.03,420.70 228.98,428.01 231.93,434.56 234.87,441.11 237.82,447.66 240.76,454.21 243.71,462.22 246.65,470.48 249.60,478.73 252.54,486.98 255.49,495.71 258.43,504.81 261.38,513.90 264.32,523.00 267.27,531.91 270.22,540.33 273.16,548.75 276.11,557.18 279.05,565.59 282.00,572.20 284.94,578.80 287.89,585.41 290.83,592.01 293.78,596.66 296.72,600.53 299.67,604.39 302.62,608.26 305.56,610.71 308.51,611.29 311.45,611.87 314.40,612.44 317.34,612.73 320.29,611.30 323.23,609.88 326.17,608.45 329.13,607.02 332.07,605.95 335.01,604.94 337.96,603.93 340.91,602.92 343.85,602.25 346.80,601.83 349.74,601.41 352.68,601.00 355.64,600.09 358.58,597.97 361.52,595.85 364.47,593.72 367.41,591.61 370.35,586.14 373.31,580.69 376.25,575.23 379.19,569.77 382.15,562.67 385.09,554.90 388.03,547.15 390.98,539.39 393.92,532.12 396.86,525.50 399.82,518.88 402.76,512.26 405.70,506.25 408.65,503.84 411.59,501.44 414.54,499.03 417.49,496.62 420.43,497.87 423.37,499.73 426.33,501.59 429.27,503.45 432.21,506.50 435.16,510.44 438.10,514.38 441.04,518.32 444.00,522.29 446.94,526.31 449.88,530.33 452.83,534.35 455.78,538.37 458.72,541.51 461.67,544.65 464.61,547.79 467.55,550.92 470.51,553.28 473.45,555.32 476.39,557.35 479.34,559.39 482.28,561.01 485.23,562.07 488.18,563.14 491.12,564.19 494.06,565.15 497.02,565.47 499.96,565.77 502.90,566.09 505.85,566.39 508.79,566.23 511.73,566.00 514.69,565.77 517.63,565.53 520.57,565.07 523.52,564.43 526.47,563.78 529.41,563.14 532.36,562.39 535.30,561.37 538.24,560.35 541.20,559.34 544.14,558.32 547.08,556.89 550.03,555.47 552.97,554.04 555.92,552.61 558.87,550.86 561.81,548.98 564.75,547.09 567.71,545.21 570.65,543.17 573.59,540.91 576.54,538.65 579.48,536.39 582.42,534.12 585.38,531.80 588.32,529.48 591.26,527.16 594.21,524.84 597.16,522.92 600.10,521.07 603.05,519.22 605.99,517.38 608.93,516.05 611.89,515.11 614.83,514.17 617.77,513.24 620.72,512.55 623.66,512.51 626.60,512.47 629.56,512.43 632.50,512.39 635.44,512.83 638.40,513.27 641.34,513.71 644.28,514.15 647.23,514.66 650.17,515.21 653.11,515.75 656.07,516.30 659.01,516.88 661.95,517.50 664.90,518.12 667.84,518.74 670.79,519.41 673.74,520.30 676.68,521.19 679.62,522.07 682.58,522.96 685.52,524.13 688.46,525.34 691.41,526.55 694.35,527.76 697.29,529.02 700.25,530.33 703.19,531.63 706.13,532.95 709.08,534.17 712.03,535.20 714.97,536.23 717.92,537.26 720.86,538.29 723.80,538.74 726.76,539.18 729.70,539.63 732.64,540.07 735.59,539.96 738.53,539.62 741.48,539.28 744.43,538.95 747.37,538.22 750.31,536.99 753.27,535.75 756.21,534.52 759.15,533.15 762.10,530.93 765.04,528.73 767.98,526.51 770.94,524.30 773.88,521.22 776.82,518.01 779.77,514.79 782.72,511.57 785.66,507.79 788.61,503.61 791.55,499.42 794.49,495.23 797.45,490.81 800.39,485.82 803.33,480.82 806.28,475.83 809.22,470.84 812.17,465.47 815.12,460.11 818.06,454.75 821.00,449.38 823.96,444.25 826.90,439.21 829.84,434.18 832.79,429.14 835.73,424.56 838.67,420.59 841.63,416.62 844.57,412.65 847.51,408.90 850.46,406.47 853.41,404.04 856.35,401.61 859.30,399.18 862.24,398.05 865.18,397.12 868.14,396.21 871.08,395.28 874.02,395.02 876.97,395.24 879.91,395.46 882.85,395.69 885.81,396.17 888.75,397.31 891.69,398.46 894.65,399.60 897.59,400.75 900.53,403.08 903.48,405.40 906.42,407.73 909.36,410.05 912.32,413.65 915.26,417.75 918.20,421.86 921.15,425.96 924.09,430.98 927.04,437.21 929.99,443.43 932.93,449.67 935.87,456.14 938.83,464.08 941.77,472.02 944.71,479.97 947.66,487.90 950.60,496.39 953.54,504.96 956.50,513.54 959.44,522.12 962.38,530.40 965.33,538.45 968.28,546.51 971.22,554.57 974.17,562.28 977.11,569.09 980.05,575.90 983.01,582.71 985.95,589.51 988.89,594.89 991.84,600.27 994.78,605.65 997.73,611.03 1000.68,615.53 1003.62,619.69 1006.56,623.83 1009.52,627.99 1012.46,631.74 1015.40,634.97 1018.35,638.20 1021.29,641.43 1024.23,644.56 1027.19,647.07 1030.13,649.58 1033.07,652.09 1036.02,654.60 1038.97,656.40 1041.91,658.09 1044.86,659.78 1047.80,661.47 1050.74,661.55 1053.70,660.43 1056.64,659.30 1059.58,658.17 1062.53,656.87 1065.47,655.15 1068.42,653.42 1071.37,651.69 1074.31,649.97" fill="none" stroke="#000000" stroke-width="3"/>
<line x1="142" y1="100" x2="178" y2="100" stroke="#000000" stroke-width="4"/>
<text x="188" y="105" font-family="Arial" font-size="18" fill="black">epsilon</text>
</svg>