<svg xmlns="http://www.w3.org/2000/svg" width="1200" height="820" viewBox="0 0 1200 820">
<rect width="100%" height="100%" fill="white"/>
<text x="600.0" y="36" text-anchor="middle" font-family="Arial" font-size="24" fill="black">profile_near_floor_x: U:2</text>
<line x1="120.00" y1="75" x2="120.00" y2="705" stroke="#dddddd" stroke-width="1"/>
<text x="120.00" y="737" text-anchor="middle" font-family="Arial" font-size="16" fill="black">-0.560</text>
<line x1="376.25" y1="75" x2="376.25" y2="705" stroke="#dddddd" stroke-width="1"/>
<text x="376.25" y="737" text-anchor="middle" font-family="Arial" font-size="16" fill="black">1.470</text>
<line x1="632.50" y1="75" x2="632.50" y2="705" stroke="#dddddd" stroke-width="1"/>
<text x="632.50" y="737" text-anchor="middle" font-family="Arial" font-size="16" fill="black">3.500</text>
<line x1="888.75" y1="75" x2="888.75" y2="705" stroke="#dddddd" stroke-width="1"/>
<text x="888.75" y="737" text-anchor="middle" font-family="Arial" font-size="16" fill="black">5.530</text>
<line x1="1145.00" y1="75" x2="1145.00" y2="705" stroke="#dddddd" stroke-width="1"/>
<text x="1145.00" y="737" text-anchor="middle" font-family="Arial" font-size="16" fill="black">7.560</text>
<line x1="120" y1="705.00" x2="1145" y2="705.00" stroke="#dddddd" stroke-width="1"/>
<text x="104" y="710.00" text-anchor="end" font-family="Arial" font-size="16" fill="black">-0.162</text>
<line x1="120" y1="547.50" x2="1145" y2="547.50" stroke="#dddddd" stroke-width="1"/>
<text x="104" y="552.50" text-anchor="end" font-family="Arial" font-size="16" fill="black">-5.90e-04</text>
<line x1="120" y1="390.00" x2="1145" y2="390.00" stroke="#dddddd" stroke-width="1"/>
<text x="104" y="395.00" text-anchor="end" font-family="Arial" font-size="16" fill="black">0.160</text>
<line x1="120" y1="232.50" x2="1145" y2="232.50" stroke="#dddddd" stroke-width="1"/>
<text x="104" y="237.50" text-anchor="end" font-family="Arial" font-size="16" fill="black">0.322</text>
<line x1="120" y1="75.00" x2="1145" y2="75.00" stroke="#dddddd" stroke-width="1"/>
<text x="104" y="80.00" text-anchor="end" font-family="Arial" font-size="16" fill="black">0.483</text>
<rect x="120" y="75" width="1025" height="630" fill="none" stroke="black" stroke-width="2"/>
<text x="632.5" y="785" text-anchor="middle" font-family="Arial" font-size="20" fill="black">x coordinate [m]</text>
<text x="34" y="390.0" transform="rotate(-90 34 390.0)" text-anchor="middle" font-family="Arial" font-size="20" fill="black">U:2 [SI]</text>
<polyline points="190.69,479.23 193.64,483.61 196.58,488.00 199.53,492.39 202.47,496.77 205.42,503.43 208.36,510.99 211.31,518.56 214.25,526.12 217.20,533.05 220.14,539.12 223.09,545.20 226.03,551.27 228.98,557.33 231.93,563.31 234.87,569.29 237.82,575.27 240.76,581.24 243.71,588.21 246.65,595.34 249.60,602.47 252.54,609.60 255.49,616.93 258.43,624.42 261.38,631.91 264.32,639.40 267.27,645.77 270.22,649.36 273.16,652.94 276.11,656.53 279.05,660.10 282.00,652.61 284.94,645.12 287.89,637.63 290.83,630.14 293.78,606.08 296.72,575.39 299.67,544.71 302.62,514.02 305.56,475.38 308.51,426.14 311.45,376.91 314.40,327.66 317.34,281.10 320.29,250.62 323.23,220.14 326.17,189.66 329.13,159.18 332.07,150.01 335.01,144.41 337.96,138.80 340.91,133.19 343.85,129.70 346.80,127.80 349.74,125.90 352.68,123.99 355.64,122.40 358.58,121.59 361.52,120.78 364.47,119.96 367.41,119.15 370.35,118.98 373.31,118.80 376.25,118.62 379.19,118.45 382.15,118.70 385.09,119.12 388.03,119.54 390.98,119.97 393.92,121.31 396.86,123.88 399.82,126.43 402.76,128.99 405.70,135.92 408.65,169.10 411.59,202.28 414.54,235.46 417.49,268.64 420.43,318.24 423.37,370.59 426.33,422.94 429.27,475.27 432.21,514.41 435.16,543.63 438.10,572.86 441.04,602.08 444.00,625.01 446.94,632.19 449.88,639.36 452.83,646.54 455.78,653.72 458.72,649.11 461.67,644.50 464.61,639.89 467.55,635.28 470.51,627.66 473.45,618.85 476.39,610.04 479.34,601.23 482.28,592.56 485.23,584.09 488.18,575.63 491.12,567.16 494.06,559.66 497.02,557.98 499.96,556.30 502.90,554.63 505.85,552.95 508.79,558.92 511.73,566.17 514.69,573.42 517.63,580.67 520.57,589.88 523.52,600.57 526.47,611.26 529.41,621.95 532.36,631.71 535.30,639.17 538.24,646.63 541.20,654.09 544.14,661.55 547.08,656.65 550.03,651.76 552.97,646.86 555.92,641.97 558.87,619.45 561.81,589.87 564.75,560.30 567.71,530.73 570.65,491.07 573.59,437.98 576.54,384.87 579.48,331.77 582.42,281.50 585.38,248.28 588.32,215.06 591.26,181.85 594.21,148.64 597.16,141.18 600.10,138.03 603.05,134.87 605.99,131.71 608.93,130.05 611.89,129.51 614.83,128.97 617.77,128.43 620.72,128.13 623.66,128.40 626.60,128.68 629.56,128.95 632.50,129.22 635.44,130.32 638.40,131.42 641.34,132.53 644.28,133.63 647.23,135.82 650.17,138.44 653.11,141.05 656.07,143.67 659.01,148.37 661.95,155.85 664.90,163.33 667.84,170.81 670.79,181.32 673.74,209.91 676.68,238.51 679.62,267.12 682.58,295.72 685.52,337.85 688.46,382.24 691.41,426.62 694.35,471.01 697.29,505.24 700.25,531.87 703.19,558.50 706.13,585.12 709.08,605.20 712.03,608.92 714.97,612.64 717.92,616.35 720.86,620.07 723.80,614.13 726.76,608.19 729.70,602.25 732.64,596.31 735.59,587.61 738.53,577.80 741.48,567.99 744.43,558.18 747.37,549.45 750.31,542.15 753.27,534.86 756.21,527.57 759.15,521.68 762.10,524.19 765.04,526.71 767.98,529.22 770.94,531.74 773.88,540.79 776.82,550.94 779.77,561.08 782.72,571.22 785.66,581.65 788.61,592.29 791.55,602.93 794.49,613.57 797.45,623.29 800.39,630.69 803.33,638.10 806.28,645.50 809.22,652.92 812.17,651.08 815.12,649.25 818.06,647.41 821.00,645.58 823.96,625.54 826.90,598.22 829.84,570.90 832.79,543.58 835.73,506.88 838.67,457.67 841.63,408.47 844.57,359.26 847.51,312.59 850.46,281.06 853.41,249.54 856.35,218.03 859.30,186.50 862.24,176.09 865.18,169.19 868.14,162.30 871.08,155.40 874.02,151.33 876.97,149.36 879.91,147.39 882.85,145.43 885.81,143.92 888.75,143.58 891.69,143.23 894.65,142.89 897.59,142.53 900.53,143.21 903.48,143.88 906.42,144.57 909.36,145.24 912.32,147.24 915.26,149.75 918.20,152.27 921.15,154.80 924.09,159.74 927.04,167.94 929.99,176.13 932.93,184.33 935.87,195.02 938.83,220.68 941.77,246.34 944.71,272.00 947.66,297.66 950.60,327.94 953.54,359.00 956.50,390.07 959.44,421.13 962.38,442.93 965.33,457.80 968.28,472.67 971.22,487.53 974.17,499.02 977.11,502.04 980.05,505.07 983.01,508.10 985.95,511.12 988.89,509.90 991.84,508.67 994.78,507.45 997.73,506.22 1000.68,504.58 1003.62,502.77 1006.56,500.96 1009.52,499.15 1012.46,497.70 1015.40,496.71 1018.35,495.73 1021.29,494.75 1024.23,493.84 1027.19,493.35 1030.13,492.86 1033.07,492.37 1036.02,491.88 1038.97,490.78 1041.91,489.57 1044.86,488.37 1047.80,487.16 1050.74,484.44 1053.70,480.57 1056.64,476.70 1059.58,472.83 1062.53,469.23 1065.47,466.32 1068.42,463.40 1071.37,460.48 1074.31,457.56" fill="none" stroke="#000000" stroke-width="3"/>
<line x1="142" y1="100" x2="178" y2="100" stroke="#000000" stroke-width="4"/>
<text x="188" y="105" font-family="Arial" font-size="18" fill="black">U:2</text>
</svg>