<svg xmlns="http://www.w3.org/2000/svg" width="1200" height="820" viewBox="0 0 1200 820">
<rect width="100%" height="100%" fill="white"/>
<text x="600.0" y="36" text-anchor="middle" font-family="Arial" font-size="24" fill="black">profile_center_y: T</text>
<line x1="120.00" y1="75" x2="120.00" y2="705" stroke="#dddddd" stroke-width="1"/>
<text x="120.00" y="737" text-anchor="middle" font-family="Arial" font-size="16" fill="black">-0.400</text>
<line x1="376.25" y1="75" x2="376.25" y2="705" stroke="#dddddd" stroke-width="1"/>
<text x="376.25" y="737" text-anchor="middle" font-family="Arial" font-size="16" fill="black">1.050</text>
<line x1="632.50" y1="75" x2="632.50" y2="705" stroke="#dddddd" stroke-width="1"/>
<text x="632.50" y="737" text-anchor="middle" font-family="Arial" font-size="16" fill="black">2.500</text>
<line x1="888.75" y1="75" x2="888.75" y2="705" stroke="#dddddd" stroke-width="1"/>
<text x="888.75" y="737" text-anchor="middle" font-family="Arial" font-size="16" fill="black">3.950</text>
<line x1="1145.00" y1="75" x2="1145.00" y2="705" stroke="#dddddd" stroke-width="1"/>
<text x="1145.00" y="737" text-anchor="middle" font-family="Arial" font-size="16" fill="black">5.400</text>
<line x1="120" y1="705.00" x2="1145" y2="705.00" stroke="#dddddd" stroke-width="1"/>
<text x="104" y="710.00" text-anchor="end" font-family="Arial" font-size="16" fill="black">305.2</text>
<line x1="120" y1="547.50" x2="1145" y2="547.50" stroke="#dddddd" stroke-width="1"/>
<text x="104" y="552.50" text-anchor="end" font-family="Arial" font-size="16" fill="black">309.6</text>
<line x1="120" y1="390.00" x2="1145" y2="390.00" stroke="#dddddd" stroke-width="1"/>
<text x="104" y="395.00" text-anchor="end" font-family="Arial" font-size="16" fill="black">313.9</text>
<line x1="120" y1="232.50" x2="1145" y2="232.50" stroke="#dddddd" stroke-width="1"/>
<text x="104" y="237.50" text-anchor="end" font-family="Arial" font-size="16" fill="black">318.3</text>
<line x1="120" y1="75.00" x2="1145" y2="75.00" stroke="#dddddd" stroke-width="1"/>
<text x="104" y="80.00" text-anchor="end" font-family="Arial" font-size="16" fill="black">322.7</text>
<rect x="120" y="75" width="1025" height="630" fill="none" stroke="black" stroke-width="2"/>
<text x="632.5" y="785" text-anchor="middle" font-family="Arial" font-size="20" fill="black">y coordinate [m]</text>
<text x="34" y="390.0" transform="rotate(-90 34 390.0)" text-anchor="middle" font-family="Arial" font-size="20" fill="black">T [K]</text>
<polyline points="190.69,221.40 193.64,222.48 196.58,223.55 199.53,224.63 202.47,225.71 205.42,226.78 208.36,228.22 211.31,230.37 214.25,232.52 217.20,235.03 220.14,237.18 223.09,239.34 226.03,241.85 228.98,244.36 231.92,246.87 234.87,249.38 237.82,251.89 240.76,254.40 243.71,256.91 246.65,259.07 249.60,261.22 252.54,263.73 255.49,265.88 258.43,268.03 261.38,270.19 264.33,271.62 267.27,273.06 270.22,274.49 273.16,275.57 276.11,277.00 279.05,278.44 282.00,278.44 284.94,278.44 287.89,278.80 290.83,278.80 293.78,278.80 296.72,278.80 299.67,277.72 302.61,276.64 305.56,275.21 308.51,274.13 311.45,273.06 314.40,271.62 317.34,269.47 320.29,266.96 323.23,264.45 326.18,261.94 329.12,259.43 332.07,257.27 335.01,253.33 337.96,249.38 340.91,245.44 343.85,241.49 346.80,237.54 349.74,233.96 352.69,227.50 355.63,221.04 358.58,214.59 361.52,208.13 364.47,201.67 367.41,195.21 370.37,188.76 373.30,182.30 376.25,175.48 379.20,169.03 382.13,162.57 385.09,155.76 388.04,151.81 390.97,148.22 393.92,144.28 396.87,140.33 399.81,136.38 402.76,132.80 405.71,130.64 408.64,128.85 411.59,127.06 414.55,125.26 417.48,123.47 420.43,121.68 423.38,120.96 426.32,120.60 429.27,119.88 432.22,119.52 435.15,118.81 438.10,118.45 441.05,119.17 443.99,119.52 446.94,120.24 449.89,120.60 452.82,121.32 455.78,121.68 458.73,123.47 461.66,125.26 464.61,127.06 467.56,128.85 470.50,130.29 473.45,132.08 476.40,135.31 479.33,138.54 482.28,142.12 485.24,145.35 488.17,148.58 491.12,151.81 494.07,156.83 497.01,161.49 499.96,166.52 502.91,171.54 505.84,176.56 508.79,181.58 511.74,188.04 514.68,194.86 517.63,201.67 520.58,208.49 523.51,215.30 526.47,222.12 529.42,230.73 532.35,239.34 535.30,247.95 538.25,256.56 541.19,265.17 544.14,273.77 547.09,281.31 550.02,288.84 552.97,296.37 555.93,303.91 558.86,311.80 561.81,319.33 564.76,323.64 567.70,327.94 570.65,332.25 573.60,336.91 576.53,341.21 579.48,345.52 582.43,347.67 585.37,350.18 588.32,352.33 591.27,354.49 594.20,357.00 597.16,359.15 600.11,359.87 603.04,360.58 605.99,361.30 608.94,362.38 611.88,363.10 614.83,363.81 617.78,363.10 620.71,362.74 623.66,362.38 626.62,362.02 629.55,361.30 632.50,360.94 635.45,359.15 638.38,357.72 641.34,355.92 644.29,354.49 647.22,352.69 650.17,351.26 653.12,348.39 656.06,345.16 659.01,342.29 661.96,339.42 664.89,336.55 667.84,333.68 670.80,329.38 673.73,325.43 676.68,321.13 679.63,316.82 682.57,312.52 685.52,308.21 688.47,302.83 691.40,297.09 694.35,291.35 697.30,285.97 700.24,280.23 703.19,274.49 706.14,267.68 709.07,260.86 712.03,254.04 714.98,246.87 717.91,240.05 720.86,233.24 723.81,227.86 726.75,222.48 729.70,217.10 732.65,212.07 735.58,206.69 738.53,201.31 741.49,199.52 744.42,197.73 747.37,195.93 750.32,194.14 753.26,192.34 756.21,190.55 759.16,190.91 762.09,190.91 765.04,191.27 767.99,191.63 770.93,191.99 773.88,192.34 776.83,194.14 779.76,195.93 782.72,197.73 785.67,199.52 788.60,201.31 791.55,203.11 794.50,205.98 797.44,208.85 800.39,211.72 803.34,214.94 806.27,217.81 809.22,220.68 812.18,224.63 815.11,228.93 818.06,232.88 821.01,237.18 823.95,241.13 826.90,245.44 829.85,250.82 832.78,256.20 835.73,261.58 838.68,266.96 841.62,272.34 844.57,277.72 847.52,284.54 850.45,291.35 853.41,298.17 856.36,304.98 859.29,312.16 862.24,318.97 865.19,327.58 868.13,336.19 871.08,344.44 874.03,353.05 876.96,361.66 879.91,370.27 882.87,380.67 885.80,391.08 888.75,401.12 891.70,411.52 894.63,421.93 897.59,432.33 900.54,440.94 903.47,449.91 906.42,458.52 909.37,467.12 912.31,476.09 915.26,484.70 918.21,490.08 921.14,495.46 924.09,500.84 927.05,506.23 929.98,511.25 932.93,516.63 935.88,520.93 938.82,525.24 941.77,529.54 944.72,533.85 947.65,538.15 950.60,542.10 953.55,546.40 956.49,551.07 959.44,555.37 962.39,559.67 965.32,563.98 968.28,568.28 971.23,572.95 974.16,577.97 977.11,582.63 980.06,587.30 983.00,591.96 985.95,596.98 988.90,601.65 991.83,606.67 994.78,611.69 997.74,616.35 1000.67,621.37 1003.62,626.40 1006.57,630.34 1009.51,634.65 1012.46,638.59 1015.41,642.54 1018.34,646.84 1021.29,650.79 1024.24,652.58 1027.18,654.38 1030.13,656.17 1033.08,657.96 1036.01,659.76 1038.97,661.55 1041.92,658.68 1044.85,656.17 1047.80,653.66 1050.75,650.79 1053.69,648.28 1056.64,645.77 1059.59,642.90 1062.52,640.39 1065.47,637.52 1068.43,634.65 1071.36,632.14 1074.31,629.27" fill="none" stroke="#000000" stroke-width="3"/>
<line x1="142" y1="100" x2="178" y2="100" stroke="#000000" stroke-width="4"/>
<text x="188" y="105" font-family="Arial" font-size="18" fill="black">T</text>
</svg>