<svg xmlns="http://www.w3.org/2000/svg" width="1200" height="820" viewBox="0 0 1200 820">
<rect width="100%" height="100%" fill="white"/>
<text x="600.0" y="36" text-anchor="middle" font-family="Arial" font-size="24" fill="black">profile_near_ceiling_x: Q</text>
<line x1="120.00" y1="75" x2="120.00" y2="705" stroke="#dddddd" stroke-width="1"/>
<text x="120.00" y="737" text-anchor="middle" font-family="Arial" font-size="16" fill="black">-0.560</text>
<line x1="376.25" y1="75" x2="376.25" y2="705" stroke="#dddddd" stroke-width="1"/>
<text x="376.25" y="737" text-anchor="middle" font-family="Arial" font-size="16" fill="black">1.470</text>
<line x1="632.50" y1="75" x2="632.50" y2="705" stroke="#dddddd" stroke-width="1"/>
<text x="632.50" y="737" text-anchor="middle" font-family="Arial" font-size="16" fill="black">3.500</text>
<line x1="888.75" y1="75" x2="888.75" y2="705" stroke="#dddddd" stroke-width="1"/>
<text x="888.75" y="737" text-anchor="middle" font-family="Arial" font-size="16" fill="black">5.530</text>
<line x1="1145.00" y1="75" x2="1145.00" y2="705" stroke="#dddddd" stroke-width="1"/>
<text x="1145.00" y="737" text-anchor="middle" font-family="Arial" font-size="16" fill="black">7.560</text>
<line x1="120" y1="705.00" x2="1145" y2="705.00" stroke="#dddddd" stroke-width="1"/>
<text x="104" y="710.00" text-anchor="end" font-family="Arial" font-size="16" fill="black">-0.376</text>
<line x1="120" y1="547.50" x2="1145" y2="547.50" stroke="#dddddd" stroke-width="1"/>
<text x="104" y="552.50" text-anchor="end" font-family="Arial" font-size="16" fill="black">-0.262</text>
<line x1="120" y1="390.00" x2="1145" y2="390.00" stroke="#dddddd" stroke-width="1"/>
<text x="104" y="395.00" text-anchor="end" font-family="Arial" font-size="16" fill="black">-0.147</text>
<line x1="120" y1="232.50" x2="1145" y2="232.50" stroke="#dddddd" stroke-width="1"/>
<text x="104" y="237.50" text-anchor="end" font-family="Arial" font-size="16" fill="black">-0.033</text>
<line x1="120" y1="75.00" x2="1145" y2="75.00" stroke="#dddddd" stroke-width="1"/>
<text x="104" y="80.00" text-anchor="end" font-family="Arial" font-size="16" fill="black">0.082</text>
<rect x="120" y="75" width="1025" height="630" fill="none" stroke="black" stroke-width="2"/>
<text x="632.5" y="785" text-anchor="middle" font-family="Arial" font-size="20" fill="black">x coordinate [m]</text>
<text x="34" y="390.0" transform="rotate(-90 34 390.0)" text-anchor="middle" font-family="Arial" font-size="20" fill="black">Q [SI]</text>
<polyline points="190.69,645.30 193.64,649.35 196.58,653.42 199.53,657.48 202.47,661.55 205.42,657.26 208.36,649.63 211.31,641.99 214.25,634.36 217.20,615.89 220.14,582.98 223.09,550.06 226.03,517.14 228.98,483.88 231.93,448.52 234.87,413.16 237.82,377.80 240.76,342.42 243.71,319.27 246.65,298.13 249.60,277.00 252.54,255.87 255.49,242.04 258.43,233.68 261.38,225.33 264.32,216.97 267.27,211.54 270.22,213.41 273.16,215.29 276.11,217.16 279.05,219.04 282.00,228.50 284.94,237.97 287.89,247.43 290.83,256.90 293.78,268.14 296.72,280.10 299.67,292.06 302.62,304.01 305.56,315.69 308.51,326.99 311.45,338.30 314.40,349.60 317.34,360.58 320.29,369.55 323.23,378.53 326.17,387.51 329.13,396.47 332.07,402.51 335.01,408.05 337.96,413.61 340.91,419.15 343.85,422.28 346.80,423.60 349.74,424.90 352.68,426.22 355.64,425.89 358.58,421.48 361.52,417.06 364.47,412.65 367.41,408.22 370.35,395.98 373.31,383.73 376.25,371.47 379.19,359.22 382.15,344.58 385.09,329.00 388.03,313.41 390.98,297.82 393.92,282.94 396.86,269.01 399.82,255.08 402.76,241.14 405.70,227.77 408.65,217.74 411.59,207.71 414.54,197.68 417.49,187.65 420.43,182.68 423.37,178.56 426.33,174.44 429.27,170.32 432.21,167.93 435.16,166.86 438.10,165.78 441.04,164.71 444.00,164.24 446.94,165.28 449.88,166.32 452.83,167.36 455.78,168.40 458.72,171.98 461.67,175.57 464.61,179.16 467.55,182.74 470.51,188.96 473.45,196.22 476.39,203.48 479.34,210.74 482.28,218.30 485.23,226.27 488.18,234.24 491.12,242.21 494.06,249.12 497.02,249.65 499.96,250.18 502.90,250.71 505.85,251.25 508.79,244.90 511.73,237.42 514.69,229.93 517.63,222.44 520.57,214.42 523.52,205.99 526.47,197.57 529.41,189.14 532.36,181.52 535.30,175.91 538.24,170.29 541.20,164.68 544.14,159.07 547.08,156.20 550.03,153.33 552.97,150.46 555.92,147.59 558.87,146.14 561.81,145.25 564.75,144.37 567.71,143.49 570.65,143.40 573.59,144.39 576.54,145.38 579.48,146.37 582.42,147.62 585.38,150.41 588.32,153.21 591.26,156.00 594.21,158.80 597.16,163.44 600.10,168.40 603.05,173.35 605.99,178.30 608.93,183.29 611.89,188.31 614.83,193.32 617.77,198.34 620.72,202.68 623.66,205.35 626.60,208.02 629.56,210.69 632.50,213.36 635.44,213.91 638.40,214.45 641.34,215.00 644.28,215.55 647.23,214.53 650.17,212.88 653.11,211.23 656.07,209.58 659.01,206.79 661.95,202.48 664.90,198.16 667.84,193.84 670.79,189.39 673.74,184.15 676.68,178.90 679.62,173.65 682.58,168.41 685.52,163.99 688.46,159.71 691.41,155.43 694.35,151.16 697.29,147.51 700.25,144.34 703.19,141.16 706.13,137.99 709.08,135.17 712.03,133.24 714.97,131.31 717.92,129.38 720.86,127.46 723.80,126.83 726.76,126.20 729.70,125.57 732.64,124.94 735.59,125.22 738.53,125.86 741.48,126.50 744.43,127.14 747.37,128.22 750.31,129.88 753.27,131.54 756.21,133.20 759.15,134.97 762.10,137.39 765.04,139.81 767.98,142.23 770.94,144.64 773.88,147.61 776.82,150.68 779.77,153.74 782.72,156.80 785.66,160.12 788.61,163.62 791.55,167.12 794.49,170.62 797.45,174.19 800.39,177.91 803.33,181.63 806.28,185.35 809.22,189.07 812.17,192.83 815.12,196.59 818.06,200.35 821.00,204.11 823.96,207.58 826.90,210.94 829.84,214.29 832.79,217.65 835.73,220.51 838.67,222.71 841.63,224.92 844.57,227.13 847.51,229.01 850.46,228.92 853.41,228.83 856.35,228.74 859.30,228.65 862.24,225.56 865.18,221.96 868.14,218.36 871.08,214.76 874.02,209.18 876.97,202.12 879.91,195.05 882.85,187.99 885.81,180.44 888.75,171.68 891.69,162.92 894.65,154.17 897.59,145.41 900.53,139.22 903.48,133.04 906.42,126.85 909.36,120.66 912.32,118.81 915.26,118.69 918.20,118.57 921.15,118.45 924.09,120.08 927.04,124.07 929.99,128.04 932.93,132.02 935.87,136.06 938.83,140.47 941.77,144.87 944.71,149.27 947.66,153.68 950.60,156.92 953.54,159.97 956.50,163.02 959.44,166.07 962.38,168.23 965.33,169.72 968.28,171.21 971.22,172.70 974.17,173.89 977.11,174.30 980.05,174.71 983.01,175.13 985.95,175.54 988.89,175.91 991.84,176.28 994.78,176.66 997.73,177.03 1000.68,178.15 1003.62,179.56 1006.56,180.98 1009.52,182.39 1012.46,185.02 1015.40,189.27 1018.35,193.52 1021.29,197.76 1024.23,202.79 1027.19,212.51 1030.13,222.23 1033.07,231.95 1036.02,241.67 1038.97,254.27 1041.91,267.35 1044.86,280.43 1047.80,293.52 1050.74,302.75 1053.70,309.10 1056.64,315.46 1059.58,321.81 1062.53,326.28 1065.47,326.06 1068.42,325.84 1071.37,325.60 1074.31,325.38" fill="none" stroke="#000000" stroke-width="3"/>
<line x1="142" y1="100" x2="178" y2="100" stroke="#000000" stroke-width="4"/>
<text x="188" y="105" font-family="Arial" font-size="18" fill="black">Q</text>
</svg>