<svg xmlns="http://www.w3.org/2000/svg" width="1200" height="820" viewBox="0 0 1200 820">
<rect width="100%" height="100%" fill="white"/>
<text x="600.0" y="36" text-anchor="middle" font-family="Arial" font-size="24" fill="black">profile_rack_height_x: nut</text>
<line x1="120.00" y1="75" x2="120.00" y2="705" stroke="#dddddd" stroke-width="1"/>
<text x="120.00" y="737" text-anchor="middle" font-family="Arial" font-size="16" fill="black">-0.560</text>
<line x1="376.25" y1="75" x2="376.25" y2="705" stroke="#dddddd" stroke-width="1"/>
<text x="376.25" y="737" text-anchor="middle" font-family="Arial" font-size="16" fill="black">1.470</text>
<line x1="632.50" y1="75" x2="632.50" y2="705" stroke="#dddddd" stroke-width="1"/>
<text x="632.50" y="737" text-anchor="middle" font-family="Arial" font-size="16" fill="black">3.500</text>
<line x1="888.75" y1="75" x2="888.75" y2="705" stroke="#dddddd" stroke-width="1"/>
<text x="888.75" y="737" text-anchor="middle" font-family="Arial" font-size="16" fill="black">5.530</text>
<line x1="1145.00" y1="75" x2="1145.00" y2="705" stroke="#dddddd" stroke-width="1"/>
<text x="1145.00" y="737" text-anchor="middle" font-family="Arial" font-size="16" fill="black">7.560</text>
<line x1="120" y1="705.00" x2="1145" y2="705.00" stroke="#dddddd" stroke-width="1"/>
<text x="104" y="710.00" text-anchor="end" font-family="Arial" font-size="16" fill="black">-9.91e-04</text>
<line x1="120" y1="547.50" x2="1145" y2="547.50" stroke="#dddddd" stroke-width="1"/>
<text x="104" y="552.50" text-anchor="end" font-family="Arial" font-size="16" fill="black">0.004</text>
<line x1="120" y1="390.00" x2="1145" y2="390.00" stroke="#dddddd" stroke-width="1"/>
<text x="104" y="395.00" text-anchor="end" font-family="Arial" font-size="16" fill="black">0.010</text>
<line x1="120" y1="232.50" x2="1145" y2="232.50" stroke="#dddddd" stroke-width="1"/>
<text x="104" y="237.50" text-anchor="end" font-family="Arial" font-size="16" fill="black">0.015</text>
<line x1="120" y1="75.00" x2="1145" y2="75.00" stroke="#dddddd" stroke-width="1"/>
<text x="104" y="80.00" text-anchor="end" font-family="Arial" font-size="16" fill="black">0.021</text>
<rect x="120" y="75" width="1025" height="630" fill="none" stroke="black" stroke-width="2"/>
<text x="632.5" y="785" text-anchor="middle" font-family="Arial" font-size="20" fill="black">x coordinate [m]</text>
<text x="34" y="390.0" transform="rotate(-90 34 390.0)" text-anchor="middle" font-family="Arial" font-size="20" fill="black">nut [m2/s]</text>
<polyline points="190.69,646.81 193.64,633.63 196.58,620.46 199.53,607.28 202.47,594.11 205.42,574.46 208.36,552.21 211.31,529.97 214.25,507.73 217.20,489.35 220.14,476.14 223.09,462.92 226.03,449.70 228.98,437.63 231.93,432.47 234.87,427.30 237.82,422.13 240.76,416.96 243.71,416.45 246.65,416.73 249.60,417.00 252.54,417.27 255.49,419.79 258.43,423.99 261.38,428.20 264.32,432.40 267.27,437.17 270.22,443.33 273.16,449.49 276.11,455.65 279.05,461.81 282.00,466.83 284.94,471.86 287.89,476.88 290.83,481.91 293.78,484.31 296.72,485.67 299.67,487.02 302.62,488.38 305.56,488.27 308.51,486.20 311.45,484.13 314.40,482.06 317.34,479.80 320.29,476.38 323.23,472.96 326.17,469.55 329.13,466.13 332.07,462.99 335.01,459.90 337.96,456.80 340.91,453.71 343.85,451.26 346.80,449.29 349.74,447.32 352.68,445.35 355.64,443.59 358.58,442.35 361.52,441.11 364.47,439.88 367.41,438.64 370.35,436.56 373.31,434.48 376.25,432.41 379.19,430.33 382.15,426.58 385.09,422.15 388.03,417.73 390.98,413.30 393.92,407.79 396.86,400.82 399.82,393.85 402.76,386.88 405.70,379.70 408.65,371.16 411.59,362.64 414.54,354.12 417.49,345.61 420.43,336.83 423.37,328.02 426.33,319.21 429.27,310.41 432.21,302.03 435.16,294.01 438.10,285.96 441.04,277.93 444.00,270.28 446.94,263.62 449.88,256.99 452.83,250.32 455.78,243.66 458.72,238.53 461.67,233.40 464.61,228.28 467.55,223.15 470.51,219.01 473.45,215.24 476.39,211.47 479.34,207.68 482.28,204.32 485.23,201.54 488.18,198.73 491.12,195.92 494.06,193.22 497.02,191.02 499.96,188.85 502.90,186.64 505.85,184.47 508.79,182.65 511.73,180.88 514.69,179.11 517.63,177.35 520.57,175.78 523.52,174.39 526.47,172.97 529.41,171.58 532.36,170.25 535.30,169.20 538.24,168.13 541.20,167.09 544.14,166.02 547.08,165.35 550.03,164.66 552.97,163.99 555.92,163.29 558.87,162.92 561.81,162.66 564.75,162.40 567.71,162.14 570.65,162.02 573.59,162.14 576.54,162.25 579.48,162.37 582.42,162.51 585.38,162.83 588.32,163.15 591.26,163.47 594.21,163.79 597.16,164.05 600.10,164.28 603.05,164.54 605.99,164.80 608.93,164.86 611.89,164.80 614.83,164.77 617.77,164.71 620.72,164.54 623.66,164.05 626.60,163.58 629.56,163.09 632.50,162.60 635.44,161.64 638.40,160.66 641.34,159.67 644.28,158.72 647.23,157.36 650.17,155.82 653.11,154.31 656.07,152.81 659.01,151.07 661.95,149.07 664.90,147.10 667.84,145.10 670.79,143.07 673.74,140.87 676.68,138.67 679.62,136.44 682.58,134.24 685.52,132.21 688.46,130.24 691.41,128.24 694.35,126.24 697.29,124.65 700.25,123.32 703.19,121.98 706.13,120.68 709.08,119.64 712.03,119.35 714.97,119.03 717.92,118.74 720.86,118.45 723.80,119.29 726.76,120.16 729.70,121.00 732.64,121.87 735.59,123.46 738.53,125.34 741.48,127.23 744.43,129.11 747.37,131.28 750.31,133.86 753.27,136.41 756.21,138.99 759.15,141.57 762.10,144.38 765.04,147.19 767.98,149.97 770.94,152.78 773.88,155.44 776.82,158.05 779.77,160.69 782.72,163.32 785.66,165.70 788.61,167.87 791.55,170.04 794.49,172.22 797.45,174.22 800.39,175.75 803.33,177.29 806.28,178.82 809.22,180.36 812.17,181.26 815.12,182.13 818.06,183.02 821.00,183.92 823.96,184.39 826.90,184.67 829.84,184.99 832.79,185.31 835.73,185.37 838.67,185.08 841.63,184.82 844.57,184.53 847.51,184.18 850.46,183.31 853.41,182.44 856.35,181.60 859.30,180.73 862.24,179.49 865.18,178.19 868.14,176.88 871.08,175.58 874.02,174.27 876.97,173.00 879.91,171.75 882.85,170.48 885.81,169.44 888.75,168.94 891.69,168.45 894.65,167.96 897.59,167.47 900.53,168.34 903.48,169.20 906.42,170.04 909.36,170.91 912.32,172.83 915.26,175.14 918.20,177.46 921.15,179.78 924.09,182.62 927.04,186.15 929.99,189.69 932.93,193.22 935.87,196.90 938.83,201.33 941.77,205.77 944.71,210.20 947.66,214.63 950.60,219.76 953.54,225.00 956.50,230.25 959.44,235.52 962.38,241.34 965.33,247.60 968.28,253.86 971.22,260.14 974.17,266.81 977.11,274.45 980.05,282.13 983.01,289.78 985.95,297.43 988.89,306.70 991.84,315.97 994.78,325.24 997.73,334.51 1000.68,344.82 1003.62,355.60 1006.56,366.35 1009.52,377.13 1012.46,388.45 1015.40,400.53 1018.35,412.61 1021.29,424.68 1024.23,436.95 1027.19,450.38 1030.13,463.82 1033.07,477.25 1036.02,490.68 1038.97,505.56 1041.91,520.68 1044.86,535.81 1047.80,550.93 1050.74,566.65 1053.70,582.82 1056.64,598.99 1059.58,615.16 1062.53,629.03 1065.47,637.16 1068.42,645.29 1071.37,653.42 1074.31,661.55" fill="none" stroke="#000000" stroke-width="3"/>
<line x1="142" y1="100" x2="178" y2="100" stroke="#000000" stroke-width="4"/>
<text x="188" y="105" font-family="Arial" font-size="18" fill="black">nut</text>
</svg>