<svg xmlns="http://www.w3.org/2000/svg" width="1200" height="820" viewBox="0 0 1200 820">
<rect width="100%" height="100%" fill="white"/>
<text x="600.0" y="36" text-anchor="middle" font-family="Arial" font-size="24" fill="black">profile_center_x: vorticity:2</text>
<line x1="120.00" y1="75" x2="120.00" y2="705" stroke="#dddddd" stroke-width="1"/>
<text x="120.00" y="737" text-anchor="middle" font-family="Arial" font-size="16" fill="black">-0.560</text>
<line x1="376.25" y1="75" x2="376.25" y2="705" stroke="#dddddd" stroke-width="1"/>
<text x="376.25" y="737" text-anchor="middle" font-family="Arial" font-size="16" fill="black">1.470</text>
<line x1="632.50" y1="75" x2="632.50" y2="705" stroke="#dddddd" stroke-width="1"/>
<text x="632.50" y="737" text-anchor="middle" font-family="Arial" font-size="16" fill="black">3.500</text>
<line x1="888.75" y1="75" x2="888.75" y2="705" stroke="#dddddd" stroke-width="1"/>
<text x="888.75" y="737" text-anchor="middle" font-family="Arial" font-size="16" fill="black">5.530</text>
<line x1="1145.00" y1="75" x2="1145.00" y2="705" stroke="#dddddd" stroke-width="1"/>
<text x="1145.00" y="737" text-anchor="middle" font-family="Arial" font-size="16" fill="black">7.560</text>
<line x1="120" y1="705.00" x2="1145" y2="705.00" stroke="#dddddd" stroke-width="1"/>
<text x="104" y="710.00" text-anchor="end" font-family="Arial" font-size="16" fill="black">-0.335</text>
<line x1="120" y1="547.50" x2="1145" y2="547.50" stroke="#dddddd" stroke-width="1"/>
<text x="104" y="552.50" text-anchor="end" font-family="Arial" font-size="16" fill="black">-0.137</text>
<line x1="120" y1="390.00" x2="1145" y2="390.00" stroke="#dddddd" stroke-width="1"/>
<text x="104" y="395.00" text-anchor="end" font-family="Arial" font-size="16" fill="black">0.061</text>
<line x1="120" y1="232.50" x2="1145" y2="232.50" stroke="#dddddd" stroke-width="1"/>
<text x="104" y="237.50" text-anchor="end" font-family="Arial" font-size="16" fill="black">0.259</text>
<line x1="120" y1="75.00" x2="1145" y2="75.00" stroke="#dddddd" stroke-width="1"/>
<text x="104" y="80.00" text-anchor="end" font-family="Arial" font-size="16" fill="black">0.457</text>
<rect x="120" y="75" width="1025" height="630" fill="none" stroke="black" stroke-width="2"/>
<text x="632.5" y="785" text-anchor="middle" font-family="Arial" font-size="20" fill="black">x coordinate [m]</text>
<text x="34" y="390.0" transform="rotate(-90 34 390.0)" text-anchor="middle" font-family="Arial" font-size="20" fill="black">vorticity:2 [SI]</text>
<polyline points="190.69,601.65 193.64,560.89 196.58,520.12 199.53,479.35 202.47,438.58 205.42,396.26 208.36,353.32 211.31,310.38 214.25,267.43 217.20,240.58 220.14,235.19 223.09,229.79 226.03,224.40 228.98,218.79 231.93,211.85 234.87,204.93 237.82,197.99 240.76,191.06 243.71,183.95 246.65,176.81 249.60,169.67 252.54,162.53 255.49,156.38 258.43,150.97 261.38,145.56 264.32,140.16 267.27,135.73 270.22,133.79 273.16,131.83 276.11,129.87 279.05,127.92 282.00,128.40 284.94,128.88 287.89,129.36 290.83,129.83 293.78,129.56 296.72,128.98 299.67,128.40 302.62,127.81 305.56,126.53 308.51,124.32 311.45,122.09 314.40,119.87 317.34,118.45 320.29,121.80 323.23,125.17 326.17,128.52 329.13,131.88 332.07,149.02 335.01,168.47 337.96,187.91 340.91,207.36 343.85,235.55 346.80,270.31 349.74,305.06 352.68,339.82 355.64,374.45 358.58,408.77 361.52,443.08 364.47,477.40 367.41,511.72 370.35,530.08 373.31,548.44 376.25,566.81 379.19,585.18 382.15,591.58 385.09,593.21 388.03,594.83 390.98,596.45 393.92,595.92 396.86,592.52 399.82,589.11 402.76,585.70 405.70,582.98 408.65,584.34 411.59,585.70 414.54,587.06 417.49,588.42 420.43,593.85 423.37,599.97 426.33,606.08 429.27,612.19 432.21,618.23 435.16,624.24 438.10,630.24 441.04,636.23 444.00,641.40 446.94,644.47 449.88,647.55 452.83,650.63 455.78,653.70 458.72,653.91 461.67,654.12 464.61,654.32 467.55,654.54 470.51,653.67 473.45,652.38 476.39,651.10 479.34,649.81 482.28,648.52 485.23,647.23 488.18,645.94 491.12,644.65 494.06,643.48 497.02,643.02 499.96,642.56 502.90,642.10 505.85,641.65 508.79,642.03 511.73,642.55 514.69,643.07 517.63,643.60 520.57,644.58 523.52,645.91 526.47,647.24 529.41,648.57 532.36,650.01 535.30,651.73 538.24,653.45 541.20,655.17 544.14,656.89 547.08,658.03 550.03,659.17 552.97,660.30 555.92,661.44 558.87,661.55 561.81,661.24 564.75,660.93 567.71,660.63 570.65,659.69 573.59,657.90 576.54,656.12 579.48,654.33 582.42,652.34 585.38,649.11 588.32,645.88 591.26,642.64 594.21,639.42 597.16,634.67 600.10,629.67 603.05,624.67 605.99,619.67 608.93,613.53 611.89,606.53 614.83,599.52 617.77,592.53 620.72,584.93 623.66,575.87 626.60,566.80 629.56,557.74 632.50,548.68 635.44,537.81 638.40,526.94 641.34,516.07 644.28,505.19 647.23,493.61 650.17,481.75 653.11,469.88 656.07,458.02 659.01,446.36 661.95,435.00 664.90,423.64 667.84,412.27 670.79,401.24 673.74,392.18 676.68,383.12 679.62,374.06 682.58,365.00 685.52,359.01 688.46,353.52 691.41,348.04 694.35,342.55 697.29,339.29 700.25,337.68 703.19,336.07 706.13,334.47 709.08,333.86 712.03,335.76 714.97,337.64 717.92,339.53 720.86,341.42 723.80,345.90 726.76,350.39 729.70,354.87 732.64,359.36 735.59,364.79 738.53,370.61 741.48,376.42 744.43,382.24 747.37,388.06 750.31,393.88 753.27,399.70 756.21,405.52 759.15,411.19 762.10,415.93 765.04,420.66 767.98,425.40 770.94,430.13 773.88,433.28 776.82,436.17 779.77,439.05 782.72,441.94 785.66,443.57 788.61,444.26 791.55,444.95 794.49,445.64 797.45,445.73 800.39,444.32 803.33,442.91 806.28,441.50 809.22,440.08 812.17,437.04 815.12,433.99 818.06,430.95 821.00,427.90 823.96,424.48 826.90,420.90 829.84,417.33 832.79,413.76 835.73,410.57 838.67,407.91 841.63,405.24 844.57,402.57 847.51,400.18 850.46,399.45 853.41,398.73 856.35,398.01 859.30,397.28 862.24,398.37 865.18,399.75 868.14,401.14 871.08,402.53 874.02,404.72 876.97,407.51 879.91,410.31 882.85,413.11 885.81,416.00 888.75,419.13 891.69,422.26 894.65,425.39 897.59,428.52 900.53,430.92 903.48,433.32 906.42,435.72 909.36,438.12 912.32,439.37 915.26,440.16 918.20,440.96 921.15,441.75 924.09,441.61 927.04,440.20 929.99,438.80 932.93,437.39 935.87,435.64 938.83,431.80 941.77,427.96 944.71,424.12 947.66,420.29 950.60,414.70 953.54,408.81 956.50,402.93 959.44,397.05 962.38,390.66 965.33,383.89 968.28,377.12 971.22,370.35 974.17,363.74 977.11,357.54 980.05,351.34 983.01,345.15 985.95,338.94 988.89,334.48 991.84,330.00 994.78,325.53 997.73,321.05 1000.68,318.14 1003.62,315.85 1006.56,313.55 1009.52,311.25 1012.46,309.76 1015.40,309.34 1018.35,308.93 1021.29,308.51 1024.23,308.21 1027.19,308.61 1030.13,309.01 1033.07,309.41 1036.02,309.81 1038.97,309.02 1041.91,308.02 1044.86,307.02 1047.80,306.03 1050.74,294.73 1053.70,275.71 1056.64,256.69 1059.58,237.66 1062.53,218.99 1065.47,201.19 1068.42,183.39 1071.37,165.58 1074.31,147.77" fill="none" stroke="#000000" stroke-width="3"/>
<line x1="142" y1="100" x2="178" y2="100" stroke="#000000" stroke-width="4"/>
<text x="188" y="105" font-family="Arial" font-size="18" fill="black">vorticity:2</text>
</svg>