<svg xmlns="http://www.w3.org/2000/svg" width="1200" height="820" viewBox="0 0 1200 820">
<rect width="100%" height="100%" fill="white"/>
<text x="600.0" y="36" text-anchor="middle" font-family="Arial" font-size="24" fill="black">profile_center_y: k</text>
<line x1="120.00" y1="75" x2="120.00" y2="705" stroke="#dddddd" stroke-width="1"/>
<text x="120.00" y="737" text-anchor="middle" font-family="Arial" font-size="16" fill="black">-0.400</text>
<line x1="376.25" y1="75" x2="376.25" y2="705" stroke="#dddddd" stroke-width="1"/>
<text x="376.25" y="737" text-anchor="middle" font-family="Arial" font-size="16" fill="black">1.050</text>
<line x1="632.50" y1="75" x2="632.50" y2="705" stroke="#dddddd" stroke-width="1"/>
<text x="632.50" y="737" text-anchor="middle" font-family="Arial" font-size="16" fill="black">2.500</text>
<line x1="888.75" y1="75" x2="888.75" y2="705" stroke="#dddddd" stroke-width="1"/>
<text x="888.75" y="737" text-anchor="middle" font-family="Arial" font-size="16" fill="black">3.950</text>
<line x1="1145.00" y1="75" x2="1145.00" y2="705" stroke="#dddddd" stroke-width="1"/>
<text x="1145.00" y="737" text-anchor="middle" font-family="Arial" font-size="16" fill="black">5.400</text>
<line x1="120" y1="705.00" x2="1145" y2="705.00" stroke="#dddddd" stroke-width="1"/>
<text x="104" y="710.00" text-anchor="end" font-family="Arial" font-size="16" fill="black">4.98e-04</text>
<line x1="120" y1="547.50" x2="1145" y2="547.50" stroke="#dddddd" stroke-width="1"/>
<text x="104" y="552.50" text-anchor="end" font-family="Arial" font-size="16" fill="black">0.007</text>
<line x1="120" y1="390.00" x2="1145" y2="390.00" stroke="#dddddd" stroke-width="1"/>
<text x="104" y="395.00" text-anchor="end" font-family="Arial" font-size="16" fill="black">0.014</text>
<line x1="120" y1="232.50" x2="1145" y2="232.50" stroke="#dddddd" stroke-width="1"/>
<text x="104" y="237.50" text-anchor="end" font-family="Arial" font-size="16" fill="black">0.020</text>
<line x1="120" y1="75.00" x2="1145" y2="75.00" stroke="#dddddd" stroke-width="1"/>
<text x="104" y="80.00" text-anchor="end" font-family="Arial" font-size="16" fill="black">0.027</text>
<rect x="120" y="75" width="1025" height="630" fill="none" stroke="black" stroke-width="2"/>
<text x="632.5" y="785" text-anchor="middle" font-family="Arial" font-size="20" fill="black">y coordinate [m]</text>
<text x="34" y="390.0" transform="rotate(-90 34 390.0)" text-anchor="middle" font-family="Arial" font-size="20" fill="black">k [m2/s2]</text>
<polyline points="190.69,603.28 193.64,595.64 196.58,587.99 199.53,580.35 202.47,572.70 205.42,565.06 208.36,557.41 211.31,544.80 214.25,532.19 217.20,519.57 220.14,506.96 223.09,494.35 226.03,481.74 228.98,472.98 231.92,464.21 234.87,455.47 237.82,446.70 240.76,437.96 243.71,429.19 246.65,421.44 249.60,413.69 252.54,405.95 255.49,398.20 258.43,390.46 261.38,382.71 264.33,374.37 267.27,366.03 270.22,357.66 273.16,349.32 276.11,340.96 279.05,332.62 282.00,323.75 284.94,314.91 287.89,306.08 290.83,297.21 293.78,288.37 296.72,279.51 299.67,271.33 302.61,263.14 305.56,254.94 308.51,246.74 311.45,238.54 314.40,230.37 317.34,224.36 320.29,218.34 323.23,212.33 326.18,206.32 329.12,200.31 332.07,194.30 335.01,191.59 337.96,188.86 340.91,186.15 343.85,183.44 346.80,180.71 349.74,178.00 352.69,178.88 355.63,179.78 358.58,180.66 361.52,181.54 364.47,182.44 367.41,183.32 370.37,187.24 373.30,191.16 376.25,195.06 379.20,198.98 382.13,202.90 385.09,206.82 388.04,212.00 390.97,217.16 393.92,222.34 396.87,227.52 399.81,232.70 402.76,237.88 405.71,241.99 408.64,246.10 411.59,250.21 414.55,254.32 417.48,258.43 420.43,262.54 423.38,263.71 426.32,264.87 429.27,266.04 432.22,267.18 435.15,268.34 438.10,269.51 441.05,266.77 443.99,264.04 446.94,261.31 449.89,258.57 452.82,255.84 455.78,253.13 458.73,247.05 461.66,240.99 464.61,234.91 467.56,228.85 470.50,222.76 473.45,216.71 476.40,209.43 479.33,202.16 482.28,194.89 485.24,187.62 488.17,180.35 491.12,173.05 494.07,167.07 497.01,161.08 499.96,155.09 502.91,149.10 505.84,143.11 508.79,137.13 511.74,134.01 514.68,130.90 517.63,127.79 520.58,124.67 523.51,121.56 526.47,118.45 529.42,118.64 532.35,118.80 535.30,118.97 538.25,119.14 541.19,119.30 544.14,119.47 547.09,121.97 550.02,124.46 552.97,126.96 555.93,129.45 558.86,131.95 561.81,134.44 564.76,137.39 567.70,140.36 570.65,143.30 573.60,146.25 576.53,149.20 579.48,152.14 582.43,153.95 585.37,155.73 588.32,157.51 591.27,159.30 594.20,161.08 597.16,162.86 600.11,162.86 603.04,162.86 605.99,162.84 608.94,162.84 611.88,162.84 614.83,162.84 617.78,161.36 620.71,159.87 623.66,158.39 626.62,156.92 629.55,155.45 632.50,153.97 635.45,151.86 638.38,149.77 641.34,147.65 644.29,145.54 647.22,143.45 650.17,141.33 653.12,139.53 656.06,137.72 659.01,135.91 661.96,134.11 664.89,132.28 667.84,130.47 670.80,129.71 673.73,128.95 676.68,128.19 679.63,127.43 682.57,126.67 685.52,125.91 688.47,126.67 691.40,127.43 694.35,128.19 697.30,128.95 700.24,129.71 703.19,130.47 706.14,132.85 709.07,135.25 712.03,137.62 714.98,140.00 717.91,142.40 720.86,144.78 723.81,148.34 726.75,151.91 729.70,155.47 732.65,159.03 735.58,162.60 738.53,166.16 741.49,170.25 744.42,174.31 747.37,178.38 750.32,182.46 753.26,186.53 756.21,190.59 759.16,194.84 762.09,199.10 765.04,203.35 767.99,207.60 770.93,211.86 773.88,216.11 776.83,220.53 779.76,224.97 782.72,229.39 785.67,233.81 788.60,238.26 791.55,242.68 794.50,247.29 797.44,251.90 800.39,256.48 803.34,261.09 806.27,265.70 809.22,270.31 812.18,275.04 815.11,279.79 818.06,284.52 821.01,289.28 823.95,294.00 826.90,298.76 829.85,303.58 832.78,308.43 835.73,313.25 838.68,318.10 841.62,322.92 844.57,327.77 847.52,332.71 850.45,337.66 853.41,342.60 856.36,347.54 859.29,352.48 862.24,357.43 865.19,362.53 868.13,367.62 871.08,372.70 874.03,377.81 876.96,382.90 879.91,387.98 882.87,393.14 885.80,398.27 888.75,403.41 891.70,408.54 894.63,413.69 897.59,418.83 900.54,423.58 903.47,428.33 906.42,433.08 909.37,437.84 912.31,442.59 915.26,447.34 918.21,451.31 921.14,455.28 924.09,459.25 927.05,463.22 929.98,467.18 932.93,471.15 935.88,474.43 938.82,477.71 941.77,480.99 944.72,484.27 947.65,487.55 950.60,490.84 953.55,493.79 956.49,496.74 959.44,499.69 962.39,502.64 965.32,505.59 968.28,508.54 971.23,511.44 974.16,514.35 977.11,517.26 980.06,520.16 983.00,523.07 985.95,525.97 988.90,529.03 991.83,532.09 994.78,535.15 997.74,538.20 1000.67,541.26 1003.62,544.32 1006.57,547.72 1009.51,551.12 1012.46,554.52 1015.41,557.92 1018.34,561.32 1021.29,564.72 1024.24,568.86 1027.18,573.01 1030.13,577.16 1033.08,581.30 1036.01,585.45 1038.97,589.59 1041.92,596.76 1044.85,603.92 1047.80,611.09 1050.75,618.25 1053.69,625.41 1056.64,632.58 1059.59,637.41 1062.52,642.24 1065.47,647.06 1068.43,651.89 1071.36,656.72 1074.31,661.55" fill="none" stroke="#000000" stroke-width="3"/>
<line x1="142" y1="100" x2="178" y2="100" stroke="#000000" stroke-width="4"/>
<text x="188" y="105" font-family="Arial" font-size="18" fill="black">k</text>
</svg>