<svg xmlns="http://www.w3.org/2000/svg" width="1200" height="820" viewBox="0 0 1200 820">
<rect width="100%" height="100%" fill="white"/>
<text x="600.0" y="36" text-anchor="middle" font-family="Arial" font-size="24" fill="black">profile_center_y: alphat</text>
<line x1="120.00" y1="75" x2="120.00" y2="705" stroke="#dddddd" stroke-width="1"/>
<text x="120.00" y="737" text-anchor="middle" font-family="Arial" font-size="16" fill="black">-0.400</text>
<line x1="376.25" y1="75" x2="376.25" y2="705" stroke="#dddddd" stroke-width="1"/>
<text x="376.25" y="737" text-anchor="middle" font-family="Arial" font-size="16" fill="black">1.050</text>
<line x1="632.50" y1="75" x2="632.50" y2="705" stroke="#dddddd" stroke-width="1"/>
<text x="632.50" y="737" text-anchor="middle" font-family="Arial" font-size="16" fill="black">2.500</text>
<line x1="888.75" y1="75" x2="888.75" y2="705" stroke="#dddddd" stroke-width="1"/>
<text x="888.75" y="737" text-anchor="middle" font-family="Arial" font-size="16" fill="black">3.950</text>
<line x1="1145.00" y1="75" x2="1145.00" y2="705" stroke="#dddddd" stroke-width="1"/>
<text x="1145.00" y="737" text-anchor="middle" font-family="Arial" font-size="16" fill="black">5.400</text>
<line x1="120" y1="705.00" x2="1145" y2="705.00" stroke="#dddddd" stroke-width="1"/>
<text x="104" y="710.00" text-anchor="end" font-family="Arial" font-size="16" fill="black">-0.001</text>
<line x1="120" y1="547.50" x2="1145" y2="547.50" stroke="#dddddd" stroke-width="1"/>
<text x="104" y="552.50" text-anchor="end" font-family="Arial" font-size="16" fill="black">0.005</text>
<line x1="120" y1="390.00" x2="1145" y2="390.00" stroke="#dddddd" stroke-width="1"/>
<text x="104" y="395.00" text-anchor="end" font-family="Arial" font-size="16" fill="black">0.011</text>
<line x1="120" y1="232.50" x2="1145" y2="232.50" stroke="#dddddd" stroke-width="1"/>
<text x="104" y="237.50" text-anchor="end" font-family="Arial" font-size="16" fill="black">0.017</text>
<line x1="120" y1="75.00" x2="1145" y2="75.00" stroke="#dddddd" stroke-width="1"/>
<text x="104" y="80.00" text-anchor="end" font-family="Arial" font-size="16" fill="black">0.022</text>
<rect x="120" y="75" width="1025" height="630" fill="none" stroke="black" stroke-width="2"/>
<text x="632.5" y="785" text-anchor="middle" font-family="Arial" font-size="20" fill="black">y coordinate [m]</text>
<text x="34" y="390.0" transform="rotate(-90 34 390.0)" text-anchor="middle" font-family="Arial" font-size="20" fill="black">alphat [SI]</text>
<polyline points="190.69,655.75 193.64,649.93 196.58,644.12 199.53,638.30 202.47,632.48 205.42,626.67 208.36,620.85 211.31,609.14 214.25,597.42 217.20,585.71 220.14,574.00 223.09,562.29 226.03,550.58 228.98,539.53 231.92,528.49 234.87,517.45 237.82,506.41 240.76,495.37 243.71,484.33 246.65,474.38 249.60,464.43 252.54,454.49 255.49,444.54 258.43,434.59 261.38,424.64 264.33,415.68 267.27,406.72 270.22,397.76 273.16,388.80 276.11,379.81 279.05,370.85 282.00,363.61 284.94,356.34 287.89,349.10 290.83,341.84 293.78,334.60 296.72,327.33 299.67,322.27 302.61,317.19 305.56,312.10 308.51,307.01 311.45,301.95 314.40,296.87 317.34,293.94 320.29,291.00 323.23,288.07 326.18,285.14 329.12,282.20 332.07,279.27 335.01,278.38 337.96,277.52 340.91,276.66 343.85,275.80 346.80,274.91 349.74,274.05 352.69,275.02 355.63,275.96 358.58,276.93 361.52,277.90 364.47,278.87 367.41,279.81 370.37,281.74 373.30,283.66 376.25,285.59 379.20,287.50 382.13,289.44 385.09,291.35 388.04,293.10 390.97,294.85 393.92,296.57 396.87,298.32 399.81,300.07 402.76,301.79 405.71,302.33 408.64,302.87 411.59,303.38 414.55,303.92 417.48,304.43 420.43,304.97 423.38,303.35 426.32,301.74 429.27,300.15 432.22,298.54 435.15,296.92 438.10,295.33 441.05,291.32 443.99,287.34 446.94,283.33 449.89,279.35 452.82,275.34 455.78,271.36 458.73,265.89 461.66,260.43 464.61,254.97 467.56,249.51 470.50,244.04 473.45,238.58 476.40,233.22 479.33,227.87 482.28,222.51 485.24,217.16 488.17,211.80 491.12,206.45 494.07,202.06 497.01,197.67 499.96,193.31 502.91,188.93 505.84,184.57 508.79,180.18 511.74,176.71 514.68,173.24 517.63,169.77 520.58,166.30 523.51,162.82 526.47,159.35 529.42,156.42 532.35,153.46 535.30,150.53 538.25,147.59 541.19,144.63 544.14,141.70 547.09,139.30 550.02,136.91 552.97,134.51 555.93,132.12 558.86,129.72 561.81,127.33 564.76,125.98 567.70,124.64 570.65,123.27 573.60,121.92 576.53,120.55 579.48,119.20 582.43,119.07 585.37,118.93 588.32,118.83 591.27,118.69 594.20,118.56 597.16,118.45 600.11,119.36 603.04,120.28 605.99,121.19 608.94,122.11 611.88,123.00 614.83,123.91 617.78,125.71 620.71,127.49 623.66,129.27 626.62,131.07 629.55,132.85 632.50,134.62 635.45,137.21 638.38,139.79 641.34,142.37 644.29,144.93 647.22,147.51 650.17,150.10 653.12,153.27 656.06,156.47 659.01,159.65 661.96,162.82 664.89,166.03 667.84,169.20 670.80,172.75 673.73,176.31 676.68,179.86 679.63,183.41 682.57,186.96 685.52,190.52 688.47,194.23 691.40,197.94 694.35,201.66 697.30,205.37 700.24,209.08 703.19,212.83 706.14,216.59 709.07,220.36 712.03,224.15 714.98,227.92 717.91,231.72 720.86,235.48 723.81,239.23 726.75,242.94 729.70,246.65 732.65,250.39 735.58,254.11 738.53,257.82 741.49,261.37 744.42,264.93 747.37,268.45 750.32,272.00 753.26,275.53 756.21,279.08 759.16,282.34 762.09,285.62 765.04,288.90 767.99,292.16 770.93,295.44 773.88,298.73 776.83,301.66 779.76,304.62 782.72,307.58 785.67,310.54 788.60,313.50 791.55,316.43 794.50,319.07 797.44,321.71 800.39,324.34 803.34,326.96 806.27,329.59 809.22,332.23 812.18,334.60 815.11,336.94 818.06,339.31 821.01,341.68 823.95,344.04 826.90,346.38 829.85,348.62 832.78,350.85 835.73,353.09 838.68,355.29 841.62,357.53 844.57,359.76 847.52,362.02 850.45,364.31 853.41,366.60 856.36,368.88 859.29,371.14 862.24,373.43 865.19,375.99 868.13,378.52 871.08,381.07 874.03,383.63 876.96,386.16 879.91,388.72 882.87,391.65 885.80,394.61 888.75,397.54 891.70,400.48 894.63,403.44 897.59,406.37 900.54,409.67 903.47,412.97 906.42,416.26 909.37,419.56 912.31,422.86 915.26,426.15 918.21,429.55 921.14,432.93 924.09,436.32 927.05,439.71 929.98,443.10 932.93,446.49 935.88,449.84 938.82,453.19 941.77,456.55 944.72,459.90 947.65,463.25 950.60,466.60 953.55,470.05 956.49,473.49 959.44,476.94 962.39,480.38 965.32,483.82 968.28,487.27 971.23,490.88 974.16,494.49 977.11,498.10 980.06,501.71 983.00,505.32 985.95,508.92 988.90,512.74 991.83,516.54 994.78,520.35 997.74,524.16 1000.67,527.97 1003.62,531.78 1006.57,535.99 1009.51,540.20 1012.46,544.41 1015.41,548.62 1018.34,552.83 1021.29,557.04 1024.24,562.29 1027.18,567.55 1030.13,572.80 1033.08,578.06 1036.01,583.31 1038.97,588.57 1041.92,596.15 1044.85,603.74 1047.80,611.32 1050.75,618.91 1053.69,626.49 1056.64,634.08 1059.59,638.66 1062.52,643.24 1065.47,647.82 1068.43,652.39 1071.36,656.97 1074.31,661.55" fill="none" stroke="#000000" stroke-width="3"/>
<line x1="142" y1="100" x2="178" y2="100" stroke="#000000" stroke-width="4"/>
<text x="188" y="105" font-family="Arial" font-size="18" fill="black">alphat</text>
</svg>