<svg xmlns="http://www.w3.org/2000/svg" width="1200" height="820" viewBox="0 0 1200 820">
<rect width="100%" height="100%" fill="white"/>
<text x="600.0" y="36" text-anchor="middle" font-family="Arial" font-size="24" fill="black">profile_near_ceiling_x: alphat</text>
<line x1="120.00" y1="75" x2="120.00" y2="705" stroke="#dddddd" stroke-width="1"/>
<text x="120.00" y="737" text-anchor="middle" font-family="Arial" font-size="16" fill="black">-0.560</text>
<line x1="376.25" y1="75" x2="376.25" y2="705" stroke="#dddddd" stroke-width="1"/>
<text x="376.25" y="737" text-anchor="middle" font-family="Arial" font-size="16" fill="black">1.470</text>
<line x1="632.50" y1="75" x2="632.50" y2="705" stroke="#dddddd" stroke-width="1"/>
<text x="632.50" y="737" text-anchor="middle" font-family="Arial" font-size="16" fill="black">3.500</text>
<line x1="888.75" y1="75" x2="888.75" y2="705" stroke="#dddddd" stroke-width="1"/>
<text x="888.75" y="737" text-anchor="middle" font-family="Arial" font-size="16" fill="black">5.530</text>
<line x1="1145.00" y1="75" x2="1145.00" y2="705" stroke="#dddddd" stroke-width="1"/>
<text x="1145.00" y="737" text-anchor="middle" font-family="Arial" font-size="16" fill="black">7.560</text>
<line x1="120" y1="705.00" x2="1145" y2="705.00" stroke="#dddddd" stroke-width="1"/>
<text x="104" y="710.00" text-anchor="end" font-family="Arial" font-size="16" fill="black">4.77e-05</text>
<line x1="120" y1="547.50" x2="1145" y2="547.50" stroke="#dddddd" stroke-width="1"/>
<text x="104" y="552.50" text-anchor="end" font-family="Arial" font-size="16" fill="black">0.002</text>
<line x1="120" y1="390.00" x2="1145" y2="390.00" stroke="#dddddd" stroke-width="1"/>
<text x="104" y="395.00" text-anchor="end" font-family="Arial" font-size="16" fill="black">0.004</text>
<line x1="120" y1="232.50" x2="1145" y2="232.50" stroke="#dddddd" stroke-width="1"/>
<text x="104" y="237.50" text-anchor="end" font-family="Arial" font-size="16" fill="black">0.006</text>
<line x1="120" y1="75.00" x2="1145" y2="75.00" stroke="#dddddd" stroke-width="1"/>
<text x="104" y="80.00" text-anchor="end" font-family="Arial" font-size="16" fill="black">0.008</text>
<rect x="120" y="75" width="1025" height="630" fill="none" stroke="black" stroke-width="2"/>
<text x="632.5" y="785" text-anchor="middle" font-family="Arial" font-size="20" fill="black">x coordinate [m]</text>
<text x="34" y="390.0" transform="rotate(-90 34 390.0)" text-anchor="middle" font-family="Arial" font-size="20" fill="black">alphat [SI]</text>
<polyline points="190.69,643.25 193.64,628.02 196.58,612.80 199.53,597.58 202.47,582.35 205.42,562.06 208.36,539.75 211.31,517.43 214.25,495.13 217.20,476.91 220.14,464.16 223.09,451.42 226.03,438.67 228.98,426.21 231.93,415.42 234.87,404.63 237.82,393.85 240.76,383.06 243.71,372.80 246.65,362.63 249.60,352.46 252.54,342.29 255.49,332.10 258.43,321.89 261.38,311.68 264.32,301.47 267.27,291.29 270.22,281.18 273.16,271.07 276.11,260.95 279.05,250.84 282.00,241.92 284.94,232.99 287.89,224.07 290.83,215.14 293.78,207.85 296.72,201.20 299.67,194.55 302.62,187.91 305.56,182.34 308.51,178.18 311.45,174.04 314.40,169.89 317.34,166.07 320.29,164.20 323.23,162.33 326.17,160.46 329.13,158.60 332.07,158.66 335.01,159.04 337.96,159.43 340.91,159.82 343.85,161.49 346.80,164.13 349.74,166.77 352.68,169.41 355.64,172.59 358.58,177.12 361.52,181.65 364.47,186.18 367.41,190.71 370.35,196.37 373.31,202.04 376.25,207.69 379.19,213.35 382.15,219.27 385.09,225.28 388.03,231.30 390.98,237.32 393.92,243.25 396.86,249.11 399.82,254.97 402.76,260.82 405.70,266.65 408.65,272.30 411.59,277.97 414.54,283.62 417.49,289.29 420.43,295.09 423.37,300.93 426.33,306.76 429.27,312.59 432.21,318.59 435.16,324.71 438.10,330.84 441.04,336.97 444.00,343.18 446.94,349.57 449.88,355.97 452.83,362.37 455.78,368.77 458.72,375.33 461.67,381.90 464.61,388.47 467.55,395.04 470.51,401.17 473.45,407.11 476.39,413.07 479.34,419.02 482.28,423.94 485.23,427.51 488.18,431.08 491.12,434.65 494.06,437.64 497.02,437.21 499.96,436.77 502.90,436.33 505.85,435.89 508.79,431.95 511.73,427.43 514.69,422.90 517.63,418.37 520.57,412.23 523.52,404.89 526.47,397.54 529.41,390.19 532.36,382.47 535.30,373.83 538.24,365.18 541.20,356.52 544.14,347.87 547.08,338.88 550.03,329.90 552.97,320.91 555.92,311.92 558.87,302.98 561.81,294.07 564.75,285.14 567.71,276.22 570.65,267.41 573.59,258.76 576.54,250.10 579.48,241.44 582.42,232.86 585.38,224.70 588.32,216.53 591.26,208.37 594.21,200.20 597.16,192.82 600.10,185.57 603.05,178.31 605.99,171.06 608.93,164.62 611.89,158.81 614.83,153.00 617.77,147.17 620.72,141.93 623.66,138.11 626.60,134.29 629.56,130.47 632.50,126.65 635.44,124.88 638.40,123.11 641.34,121.34 644.28,119.57 647.23,118.94 650.17,118.78 653.11,118.61 656.07,118.45 659.01,118.90 661.95,120.18 664.90,121.47 667.84,122.74 670.79,124.24 673.74,127.01 676.68,129.78 679.62,132.56 682.58,135.33 685.52,139.35 688.46,143.56 691.41,147.78 694.35,152.00 697.29,156.90 700.25,162.31 703.19,167.72 706.13,173.14 709.08,178.76 712.03,184.92 714.97,191.08 717.92,197.23 720.86,203.39 723.80,209.79 726.76,216.20 729.70,222.60 732.64,229.01 735.59,235.24 738.53,241.40 741.48,247.55 744.43,253.72 747.37,259.61 750.31,265.11 753.27,270.63 756.21,276.14 759.15,281.53 762.10,286.21 765.04,290.90 767.98,295.59 770.94,300.27 773.88,304.23 776.82,308.06 779.77,311.91 782.72,315.74 785.66,319.10 788.61,322.09 791.55,325.09 794.49,328.09 797.45,330.86 800.39,333.06 803.33,335.27 806.28,337.47 809.22,339.68 812.17,341.16 815.12,342.64 818.06,344.12 821.00,345.60 823.96,346.60 826.90,347.38 829.84,348.17 832.79,348.95 835.73,349.42 838.67,349.45 841.63,349.48 844.57,349.51 847.51,349.40 850.46,348.44 853.41,347.48 856.35,346.52 859.30,345.56 862.24,343.31 865.18,340.86 868.14,338.40 871.08,335.95 874.02,332.35 876.97,327.90 879.91,323.45 882.85,319.00 885.81,314.06 888.75,307.91 891.69,301.75 894.65,295.59 897.59,289.44 900.53,283.29 903.48,277.16 906.42,271.01 909.36,264.87 912.32,260.09 915.26,255.87 918.20,251.64 921.15,247.41 924.09,244.29 927.04,242.66 929.99,241.01 932.93,239.37 935.87,238.07 938.83,238.84 941.77,239.61 944.71,240.38 947.66,241.14 950.60,243.57 953.54,246.27 956.50,248.98 959.44,251.68 962.38,255.20 965.33,259.34 968.28,263.47 971.22,267.60 974.17,272.04 977.11,277.25 980.05,282.45 983.01,287.65 985.95,292.85 988.89,299.06 991.84,305.27 994.78,311.48 997.73,317.69 1000.68,324.90 1003.62,332.53 1006.56,340.16 1009.52,347.79 1012.46,356.50 1015.40,366.68 1018.35,376.86 1021.29,387.03 1024.23,397.63 1027.19,410.71 1030.13,423.80 1033.07,436.89 1036.02,449.98 1038.97,465.16 1041.91,480.69 1044.86,496.22 1047.80,511.75 1050.74,530.34 1053.70,551.22 1056.64,572.11 1059.58,592.99 1062.53,611.48 1065.47,624.00 1068.42,636.52 1071.37,649.03 1074.31,661.55" fill="none" stroke="#000000" stroke-width="3"/>
<line x1="142" y1="100" x2="178" y2="100" stroke="#000000" stroke-width="4"/>
<text x="188" y="105" font-family="Arial" font-size="18" fill="black">alphat</text>
</svg>