<svg xmlns="http://www.w3.org/2000/svg" width="1200" height="820" viewBox="0 0 1200 820">
<rect width="100%" height="100%" fill="white"/>
<text x="600.0" y="36" text-anchor="middle" font-family="Arial" font-size="24" fill="black">profile_near_floor_x: alphat</text>
<line x1="120.00" y1="75" x2="120.00" y2="705" stroke="#dddddd" stroke-width="1"/>
<text x="120.00" y="737" text-anchor="middle" font-family="Arial" font-size="16" fill="black">-0.560</text>
<line x1="376.25" y1="75" x2="376.25" y2="705" stroke="#dddddd" stroke-width="1"/>
<text x="376.25" y="737" text-anchor="middle" font-family="Arial" font-size="16" fill="black">1.470</text>
<line x1="632.50" y1="75" x2="632.50" y2="705" stroke="#dddddd" stroke-width="1"/>
<text x="632.50" y="737" text-anchor="middle" font-family="Arial" font-size="16" fill="black">3.500</text>
<line x1="888.75" y1="75" x2="888.75" y2="705" stroke="#dddddd" stroke-width="1"/>
<text x="888.75" y="737" text-anchor="middle" font-family="Arial" font-size="16" fill="black">5.530</text>
<line x1="1145.00" y1="75" x2="1145.00" y2="705" stroke="#dddddd" stroke-width="1"/>
<text x="1145.00" y="737" text-anchor="middle" font-family="Arial" font-size="16" fill="black">7.560</text>
<line x1="120" y1="705.00" x2="1145" y2="705.00" stroke="#dddddd" stroke-width="1"/>
<text x="104" y="710.00" text-anchor="end" font-family="Arial" font-size="16" fill="black">1.00e-04</text>
<line x1="120" y1="547.50" x2="1145" y2="547.50" stroke="#dddddd" stroke-width="1"/>
<text x="104" y="552.50" text-anchor="end" font-family="Arial" font-size="16" fill="black">0.002</text>
<line x1="120" y1="390.00" x2="1145" y2="390.00" stroke="#dddddd" stroke-width="1"/>
<text x="104" y="395.00" text-anchor="end" font-family="Arial" font-size="16" fill="black">0.003</text>
<line x1="120" y1="232.50" x2="1145" y2="232.50" stroke="#dddddd" stroke-width="1"/>
<text x="104" y="237.50" text-anchor="end" font-family="Arial" font-size="16" fill="black">0.005</text>
<line x1="120" y1="75.00" x2="1145" y2="75.00" stroke="#dddddd" stroke-width="1"/>
<text x="104" y="80.00" text-anchor="end" font-family="Arial" font-size="16" fill="black">0.007</text>
<rect x="120" y="75" width="1025" height="630" fill="none" stroke="black" stroke-width="2"/>
<text x="632.5" y="785" text-anchor="middle" font-family="Arial" font-size="20" fill="black">x coordinate [m]</text>
<text x="34" y="390.0" transform="rotate(-90 34 390.0)" text-anchor="middle" font-family="Arial" font-size="20" fill="black">alphat [SI]</text>
<polyline points="190.69,661.55 193.64,655.94 196.58,650.33 199.53,644.72 202.47,639.12 205.42,629.60 208.36,618.52 211.31,607.45 214.25,596.37 217.20,586.65 220.14,578.75 223.09,570.85 226.03,562.95 228.98,555.57 231.93,551.36 234.87,547.16 237.82,542.95 240.76,538.75 243.71,535.90 246.65,533.27 249.60,530.65 252.54,528.03 255.49,526.74 258.43,526.47 261.38,526.20 264.32,525.92 267.27,526.80 270.22,530.59 273.16,534.38 276.11,538.17 279.05,541.95 282.00,549.49 284.94,557.02 287.89,564.55 290.83,572.09 293.78,578.31 296.72,583.99 299.67,589.67 302.62,595.35 305.56,599.74 308.51,602.38 311.45,605.02 314.40,607.67 317.34,610.21 320.29,612.07 323.23,613.93 326.17,615.80 329.13,617.66 332.07,618.59 335.01,619.36 337.96,620.13 340.91,620.90 343.85,621.38 346.80,621.65 349.74,621.91 352.68,622.18 355.64,622.40 358.58,622.49 361.52,622.59 364.47,622.69 367.41,622.79 370.35,622.80 373.31,622.82 376.25,622.83 379.19,622.85 382.15,622.80 385.09,622.74 388.03,622.67 390.98,622.60 393.92,622.50 396.86,622.33 399.82,622.17 402.76,622.01 405.70,621.78 408.65,621.16 411.59,620.53 414.54,619.91 417.49,619.28 420.43,616.48 423.37,613.30 426.33,610.13 429.27,606.96 432.21,597.59 435.16,583.57 438.10,569.54 441.04,555.53 444.00,538.44 446.94,513.67 449.88,488.90 452.83,464.13 455.78,439.36 458.72,416.63 461.67,393.89 464.61,371.17 467.55,348.43 470.51,332.37 473.45,318.97 476.39,305.57 479.34,292.18 482.28,283.12 485.23,279.85 488.18,276.58 491.12,273.32 494.06,270.31 497.02,268.87 499.96,267.43 502.90,265.99 505.85,264.55 508.79,262.37 511.73,260.07 514.69,257.78 517.63,255.48 520.57,257.23 523.52,262.00 526.47,266.78 529.41,271.55 532.36,279.73 535.30,296.44 538.24,313.13 541.20,329.83 544.14,346.52 547.08,374.39 550.03,402.26 552.97,430.12 555.92,457.99 558.87,483.22 561.81,507.40 564.75,531.58 567.71,555.77 570.65,573.75 573.59,583.47 576.54,593.19 579.48,602.90 582.42,611.49 585.38,613.34 588.32,615.17 591.26,617.01 594.21,618.85 597.16,619.44 600.10,619.81 603.05,620.18 605.99,620.56 608.93,620.77 611.89,620.85 614.83,620.94 617.77,621.02 620.72,621.07 623.66,621.03 626.60,620.99 629.56,620.95 632.50,620.91 635.44,620.74 638.40,620.56 641.34,620.39 644.28,620.22 647.23,619.87 650.17,619.45 653.11,619.03 656.07,618.61 659.01,617.88 661.95,616.75 664.90,615.62 667.84,614.48 670.79,613.09 673.74,610.12 676.68,607.16 679.62,604.20 682.58,601.24 685.52,594.28 688.46,586.64 691.41,579.00 694.35,571.37 697.29,556.97 700.25,537.51 703.19,518.04 706.13,498.58 709.08,476.64 712.03,448.54 714.97,420.44 717.92,392.35 720.86,364.25 723.80,341.36 726.76,318.46 729.70,295.57 732.64,272.67 735.59,258.99 738.53,249.00 741.48,239.00 744.43,229.01 747.37,222.19 750.31,219.61 753.27,217.02 756.21,214.44 759.15,210.75 762.10,200.38 765.04,190.02 767.98,179.65 770.94,169.29 773.88,157.76 776.82,146.05 779.77,134.34 782.72,122.62 785.66,118.45 788.61,119.93 791.55,121.41 794.49,122.89 797.45,128.55 800.39,144.66 803.33,160.77 806.28,176.88 809.22,193.00 812.17,224.02 815.12,255.05 818.06,286.07 821.00,317.09 823.96,351.57 826.90,387.42 829.84,423.27 832.79,459.13 835.73,489.35 838.67,512.09 841.63,534.83 844.57,557.56 847.51,578.08 850.46,585.27 853.41,592.47 856.35,599.68 859.30,606.88 862.24,609.32 865.18,610.96 868.14,612.61 871.08,614.25 874.02,615.25 876.97,615.75 879.91,616.27 882.85,616.77 885.81,617.16 888.75,617.26 891.69,617.37 894.65,617.46 897.59,617.57 900.53,617.44 903.48,617.31 906.42,617.18 909.36,617.05 912.32,616.74 915.26,616.34 918.20,615.95 921.15,615.56 924.09,614.89 927.04,613.88 929.99,612.86 932.93,611.85 935.87,610.80 938.83,609.56 941.77,608.32 944.71,607.08 947.66,605.83 950.60,605.17 953.54,604.59 956.50,604.03 959.44,603.46 962.38,601.34 965.33,598.07 968.28,594.80 971.22,591.53 974.17,586.78 977.11,578.37 980.05,569.95 983.01,561.54 985.95,553.13 988.89,542.96 991.84,532.80 994.78,522.65 997.73,512.48 1000.68,503.84 1003.62,495.80 1006.56,487.76 1009.52,479.72 1012.46,473.50 1015.40,469.71 1018.35,465.92 1021.29,462.13 1024.23,459.13 1027.19,460.84 1030.13,462.55 1033.07,464.27 1036.02,465.99 1038.97,474.23 1041.91,483.56 1044.86,492.89 1047.80,502.22 1050.74,517.28 1053.70,536.65 1056.64,556.01 1059.58,575.38 1062.53,592.76 1065.47,605.20 1068.42,617.64 1071.37,630.08 1074.31,642.52" fill="none" stroke="#000000" stroke-width="3"/>
<line x1="142" y1="100" x2="178" y2="100" stroke="#000000" stroke-width="4"/>
<text x="188" y="105" font-family="Arial" font-size="18" fill="black">alphat</text>
</svg>