<svg xmlns="http://www.w3.org/2000/svg" width="1200" height="820" viewBox="0 0 1200 820">
<rect width="100%" height="100%" fill="white"/>
<text x="600.0" y="36" text-anchor="middle" font-family="Arial" font-size="24" fill="black">profile_center_z: vorticity:2</text>
<line x1="120.00" y1="75" x2="120.00" y2="705" stroke="#dddddd" stroke-width="1"/>
<text x="120.00" y="737" text-anchor="middle" font-family="Arial" font-size="16" fill="black">-0.240</text>
<line x1="376.25" y1="75" x2="376.25" y2="705" stroke="#dddddd" stroke-width="1"/>
<text x="376.25" y="737" text-anchor="middle" font-family="Arial" font-size="16" fill="black">0.630</text>
<line x1="632.50" y1="75" x2="632.50" y2="705" stroke="#dddddd" stroke-width="1"/>
<text x="632.50" y="737" text-anchor="middle" font-family="Arial" font-size="16" fill="black">1.500</text>
<line x1="888.75" y1="75" x2="888.75" y2="705" stroke="#dddddd" stroke-width="1"/>
<text x="888.75" y="737" text-anchor="middle" font-family="Arial" font-size="16" fill="black">2.370</text>
<line x1="1145.00" y1="75" x2="1145.00" y2="705" stroke="#dddddd" stroke-width="1"/>
<text x="1145.00" y="737" text-anchor="middle" font-family="Arial" font-size="16" fill="black">3.240</text>
<line x1="120" y1="705.00" x2="1145" y2="705.00" stroke="#dddddd" stroke-width="1"/>
<text x="104" y="710.00" text-anchor="end" font-family="Arial" font-size="16" fill="black">-0.174</text>
<line x1="120" y1="547.50" x2="1145" y2="547.50" stroke="#dddddd" stroke-width="1"/>
<text x="104" y="552.50" text-anchor="end" font-family="Arial" font-size="16" fill="black">-0.127</text>
<line x1="120" y1="390.00" x2="1145" y2="390.00" stroke="#dddddd" stroke-width="1"/>
<text x="104" y="395.00" text-anchor="end" font-family="Arial" font-size="16" fill="black">-0.080</text>
<line x1="120" y1="232.50" x2="1145" y2="232.50" stroke="#dddddd" stroke-width="1"/>
<text x="104" y="237.50" text-anchor="end" font-family="Arial" font-size="16" fill="black">-0.034</text>
<line x1="120" y1="75.00" x2="1145" y2="75.00" stroke="#dddddd" stroke-width="1"/>
<text x="104" y="80.00" text-anchor="end" font-family="Arial" font-size="16" fill="black">0.013</text>
<rect x="120" y="75" width="1025" height="630" fill="none" stroke="black" stroke-width="2"/>
<text x="632.5" y="785" text-anchor="middle" font-family="Arial" font-size="20" fill="black">z coordinate [m]</text>
<text x="34" y="390.0" transform="rotate(-90 34 390.0)" text-anchor="middle" font-family="Arial" font-size="20" fill="black">vorticity:2 [SI]</text>
<polyline points="190.69,118.45 193.64,118.51 196.58,118.56 199.53,118.62 202.47,118.68 205.42,118.74 208.36,118.79 211.31,118.85 214.25,118.91 217.20,118.96 220.14,119.02 223.09,119.23 226.03,119.44 228.98,119.65 231.93,119.85 234.87,120.06 237.82,120.27 240.76,120.48 243.71,120.68 246.65,120.89 249.60,121.10 252.54,121.50 255.49,121.90 258.43,122.31 261.38,122.71 264.32,123.11 267.27,123.51 270.22,123.92 273.16,124.32 276.11,124.72 279.05,125.12 282.00,126.42 284.94,127.72 287.89,129.02 290.83,130.32 293.78,131.62 296.72,132.92 299.67,134.22 302.61,135.52 305.56,136.82 308.51,138.12 311.45,144.97 314.40,151.83 317.34,158.69 320.29,165.54 323.23,172.40 326.18,179.25 329.12,186.11 332.07,192.97 335.01,199.82 337.96,206.68 340.91,214.05 343.85,221.42 346.80,228.79 349.74,236.15 352.69,243.52 355.63,250.89 358.58,258.26 361.52,265.63 364.47,273.00 367.41,280.36 370.36,280.82 373.30,281.27 376.25,281.73 379.20,282.19 382.14,282.64 385.09,283.09 388.03,283.55 390.98,284.01 393.92,284.46 396.87,284.92 399.81,284.59 402.76,284.27 405.70,283.95 408.65,283.63 411.59,283.31 414.54,282.99 417.49,282.67 420.43,282.35 423.38,282.03 426.32,281.71 429.27,284.15 432.21,286.59 435.16,289.04 438.10,291.48 441.05,293.93 443.99,296.37 446.94,298.82 449.89,301.26 452.83,303.70 455.78,306.15 458.72,309.64 461.67,313.13 464.61,316.61 467.56,320.10 470.50,323.59 473.45,327.08 476.39,330.57 479.34,334.06 482.28,337.55 485.23,341.04 488.18,345.15 491.12,349.27 494.07,353.39 497.01,357.50 499.96,361.62 502.90,365.74 505.85,369.85 508.79,373.97 511.74,378.09 514.68,382.20 517.63,387.25 520.57,392.29 523.52,397.33 526.47,402.37 529.41,407.41 532.36,412.45 535.30,417.49 538.25,422.53 541.19,427.57 544.14,432.61 547.08,438.17 550.03,443.72 552.97,449.27 555.92,454.83 558.86,460.40 561.81,465.94 564.76,471.48 567.70,477.05 570.65,482.59 573.59,488.16 576.54,493.43 579.48,498.70 582.43,503.97 585.37,509.28 588.32,514.55 591.26,519.81 594.21,525.08 597.16,530.39 600.10,535.66 603.05,540.93 605.99,545.45 608.94,549.98 611.88,554.51 614.83,559.03 617.77,563.56 620.72,568.09 623.66,572.61 626.61,577.14 629.55,581.66 632.50,586.19 635.45,589.84 638.39,593.45 641.34,597.10 644.28,600.72 647.23,604.33 650.17,607.98 653.12,611.59 656.06,615.21 659.01,618.86 661.95,622.47 664.90,625.07 667.84,627.64 670.79,630.24 673.74,632.81 676.68,635.41 679.63,637.97 682.57,640.54 685.52,643.14 688.46,645.71 691.41,648.31 694.35,649.63 697.30,650.95 700.24,652.30 703.19,653.61 706.14,654.93 709.08,656.25 712.03,657.57 714.97,658.92 717.92,660.23 720.86,661.55 723.81,661.38 726.75,661.21 729.70,661.05 732.64,660.88 735.59,660.71 738.53,660.54 741.48,660.40 744.43,660.23 747.37,660.07 750.32,659.90 753.26,658.04 756.21,656.21 759.15,654.36 762.10,652.50 765.04,650.67 767.99,648.82 770.93,646.99 773.88,645.14 776.82,643.28 779.77,641.45 782.72,637.87 785.66,634.29 788.61,630.71 791.55,627.13 794.50,623.58 797.44,620.00 800.39,616.42 803.33,612.84 806.28,609.26 809.22,605.68 812.17,600.55 815.11,595.41 818.06,590.28 821.01,585.14 823.95,579.98 826.90,574.84 829.84,569.71 832.79,564.57 835.73,559.44 838.68,554.30 841.62,548.05 844.57,541.84 847.51,535.62 850.46,529.41 853.41,523.16 856.35,516.94 859.30,510.73 862.24,504.48 865.19,498.26 868.13,492.05 871.08,485.56 874.02,479.11 876.97,472.63 879.91,466.17 882.86,459.69 885.80,453.22 888.75,446.75 891.70,440.29 894.64,433.82 897.59,427.35 900.53,421.82 903.48,416.30 906.42,410.78 909.37,405.25 912.31,399.73 915.26,394.20 918.20,388.68 921.15,383.16 924.09,377.63 927.04,372.11 929.99,368.93 932.93,365.75 935.88,362.57 938.82,359.40 941.77,356.22 944.71,353.04 947.66,349.86 950.60,346.68 953.55,343.51 956.49,340.33 959.44,340.83 962.39,341.33 965.33,341.83 968.28,342.32 971.22,342.82 974.17,343.32 977.11,343.82 980.06,344.32 983.00,344.82 985.95,345.32 988.89,349.04 991.84,352.77 994.78,356.49 997.73,360.22 1000.68,363.95 1003.62,367.67 1006.57,371.40 1009.51,375.12 1012.46,378.85 1015.40,382.57 1018.35,384.46 1021.29,386.35 1024.24,388.24 1027.18,390.13 1030.13,392.02 1033.07,393.91 1036.02,395.80 1038.97,397.69 1041.91,399.58 1044.86,401.47 1047.80,400.95 1050.75,400.44 1053.69,399.92 1056.64,399.40 1059.58,398.88 1062.53,398.37 1065.47,397.85 1068.42,397.33 1071.36,396.82 1074.31,396.30" fill="none" stroke="#000000" stroke-width="3"/>
<line x1="142" y1="100" x2="178" y2="100" stroke="#000000" stroke-width="4"/>
<text x="188" y="105" font-family="Arial" font-size="18" fill="black">vorticity:2</text>
</svg>