<svg xmlns="http://www.w3.org/2000/svg" width="1200" height="820" viewBox="0 0 1200 820">
<rect width="100%" height="100%" fill="white"/>
<text x="600.0" y="36" text-anchor="middle" font-family="Arial" font-size="24" fill="black">profile_center_y: rho</text>
<line x1="120.00" y1="75" x2="120.00" y2="705" stroke="#dddddd" stroke-width="1"/>
<text x="120.00" y="737" text-anchor="middle" font-family="Arial" font-size="16" fill="black">-0.400</text>
<line x1="376.25" y1="75" x2="376.25" y2="705" stroke="#dddddd" stroke-width="1"/>
<text x="376.25" y="737" text-anchor="middle" font-family="Arial" font-size="16" fill="black">1.050</text>
<line x1="632.50" y1="75" x2="632.50" y2="705" stroke="#dddddd" stroke-width="1"/>
<text x="632.50" y="737" text-anchor="middle" font-family="Arial" font-size="16" fill="black">2.500</text>
<line x1="888.75" y1="75" x2="888.75" y2="705" stroke="#dddddd" stroke-width="1"/>
<text x="888.75" y="737" text-anchor="middle" font-family="Arial" font-size="16" fill="black">3.950</text>
<line x1="1145.00" y1="75" x2="1145.00" y2="705" stroke="#dddddd" stroke-width="1"/>
<text x="1145.00" y="737" text-anchor="middle" font-family="Arial" font-size="16" fill="black">5.400</text>
<line x1="120" y1="705.00" x2="1145" y2="705.00" stroke="#dddddd" stroke-width="1"/>
<text x="104" y="710.00" text-anchor="end" font-family="Arial" font-size="16" fill="black">1.123</text>
<line x1="120" y1="547.50" x2="1145" y2="547.50" stroke="#dddddd" stroke-width="1"/>
<text x="104" y="552.50" text-anchor="end" font-family="Arial" font-size="16" fill="black">1.130</text>
<line x1="120" y1="390.00" x2="1145" y2="390.00" stroke="#dddddd" stroke-width="1"/>
<text x="104" y="395.00" text-anchor="end" font-family="Arial" font-size="16" fill="black">1.137</text>
<line x1="120" y1="232.50" x2="1145" y2="232.50" stroke="#dddddd" stroke-width="1"/>
<text x="104" y="237.50" text-anchor="end" font-family="Arial" font-size="16" fill="black">1.143</text>
<line x1="120" y1="75.00" x2="1145" y2="75.00" stroke="#dddddd" stroke-width="1"/>
<text x="104" y="80.00" text-anchor="end" font-family="Arial" font-size="16" fill="black">1.150</text>
<rect x="120" y="75" width="1025" height="630" fill="none" stroke="black" stroke-width="2"/>
<text x="632.5" y="785" text-anchor="middle" font-family="Arial" font-size="20" fill="black">y coordinate [m]</text>
<text x="34" y="390.0" transform="rotate(-90 34 390.0)" text-anchor="middle" font-family="Arial" font-size="20" fill="black">rho [kg/m3]</text>
<polyline points="190.69,331.38 193.64,328.99 196.58,328.99 199.53,326.60 202.47,326.60 205.42,324.21 208.36,324.21 211.31,319.42 214.25,317.03 217.20,314.64 220.14,309.85 223.09,307.46 226.03,305.07 228.98,300.28 231.92,297.89 234.87,293.10 237.82,290.71 240.76,288.32 243.71,283.53 246.65,281.14 249.60,276.36 252.54,271.57 255.49,269.18 258.43,264.39 261.38,262.00 264.33,259.61 267.27,257.21 270.22,252.43 273.16,250.04 276.11,247.64 279.05,245.25 282.00,242.86 284.94,242.86 287.89,240.47 290.83,240.47 293.78,238.07 296.72,238.07 299.67,238.07 302.61,238.07 305.56,238.07 308.51,238.07 311.45,238.07 314.40,240.47 317.34,242.86 320.29,245.25 323.23,247.64 326.18,250.04 329.12,252.43 332.07,254.82 335.01,259.61 337.96,266.78 340.91,271.57 343.85,278.75 346.80,283.53 349.74,290.71 352.69,302.67 355.63,314.64 358.58,328.99 361.52,340.95 364.47,355.31 367.41,367.27 370.37,381.63 373.30,395.98 376.25,410.34 379.20,424.69 382.13,436.65 385.09,451.01 388.04,460.58 390.97,467.76 393.92,474.93 396.87,484.50 399.81,491.68 402.76,501.25 405.71,506.04 408.64,508.43 411.59,513.22 414.55,518.00 417.48,522.79 420.43,527.57 423.38,527.57 426.32,529.96 429.27,532.36 432.22,534.75 435.15,537.14 438.10,539.53 441.05,539.53 443.99,539.53 446.94,539.53 449.89,541.93 452.82,541.93 455.78,541.93 458.73,541.93 461.66,541.93 464.61,541.93 467.56,541.93 470.50,541.93 473.45,541.93 476.40,539.53 479.33,539.53 482.28,539.53 485.24,539.53 488.17,537.14 491.12,537.14 494.07,534.75 497.01,532.36 499.96,532.36 502.91,529.96 505.84,527.57 508.79,525.18 511.74,520.39 514.68,515.61 517.63,510.82 520.58,506.04 523.51,503.64 526.47,498.86 529.42,486.90 532.35,477.33 535.30,467.76 538.25,455.79 541.19,446.22 544.14,436.65 547.09,424.69 550.02,412.73 552.97,400.77 555.93,388.80 558.86,376.84 561.81,367.27 564.76,360.09 567.70,352.92 570.65,345.74 573.60,340.95 576.53,333.78 579.48,326.60 582.43,324.21 585.37,319.42 588.32,317.03 591.27,314.64 594.20,312.24 597.16,307.46 600.11,307.46 603.04,307.46 605.99,307.46 608.94,307.46 611.88,305.07 614.83,305.07 617.78,307.46 620.71,309.85 623.66,309.85 626.62,312.24 629.55,314.64 632.50,317.03 635.45,319.42 638.38,324.21 641.34,326.60 644.29,331.38 647.22,333.78 650.17,338.56 653.12,343.35 656.06,348.13 659.01,352.92 661.96,360.09 664.89,364.88 667.84,369.66 670.80,379.23 673.73,386.41 676.68,393.59 679.63,400.77 682.57,410.34 685.52,417.51 688.47,427.08 691.40,439.05 694.35,448.62 697.30,458.19 700.24,470.15 703.19,479.72 706.14,494.07 709.07,508.43 712.03,522.79 714.98,537.14 717.91,551.50 720.86,565.85 723.81,575.42 726.75,587.38 729.70,599.35 732.65,608.92 735.58,620.88 738.53,632.84 741.49,637.63 744.42,640.02 747.37,644.80 750.32,649.59 753.26,654.37 756.21,656.77 759.16,659.16 762.09,659.16 765.04,659.16 767.99,661.55 770.93,661.55 773.88,661.55 776.83,661.55 779.76,659.16 782.72,659.16 785.67,659.16 788.60,656.77 791.55,656.77 794.50,654.37 797.44,649.59 800.39,647.20 803.34,644.80 806.27,642.41 809.22,640.02 812.18,635.23 815.11,632.84 818.06,628.06 821.01,623.27 823.95,618.49 826.90,616.09 829.85,608.92 832.78,601.74 835.73,596.95 838.68,589.78 841.62,584.99 844.57,577.81 847.52,568.24 850.45,561.07 853.41,551.50 856.36,541.93 859.29,534.75 862.24,525.18 865.19,513.22 868.13,501.25 871.08,489.29 874.03,477.33 876.96,465.36 879.91,453.40 882.87,436.65 885.80,419.91 888.75,405.55 891.70,388.80 894.63,372.06 897.59,355.31 900.54,343.35 903.47,328.99 906.42,314.64 909.37,300.28 912.31,288.32 915.26,273.96 918.21,266.78 921.14,262.00 924.09,254.82 927.05,247.64 929.98,240.47 932.93,235.68 935.88,230.90 938.82,228.50 941.77,223.72 944.72,221.33 947.65,218.93 950.60,214.15 953.55,211.76 956.49,211.76 959.44,209.36 962.39,206.97 965.32,204.58 968.28,202.19 971.23,199.79 974.16,199.79 977.11,197.40 980.06,195.01 983.00,192.62 985.95,192.62 988.90,190.22 991.83,187.83 994.78,185.44 997.74,183.05 1000.67,180.65 1003.62,178.26 1006.57,175.87 1009.51,173.48 1012.46,171.08 1015.41,168.69 1018.34,166.30 1021.29,163.91 1024.24,161.51 1027.18,156.73 1030.13,154.34 1033.08,151.94 1036.01,149.55 1038.97,144.77 1041.92,142.37 1044.85,139.98 1047.80,135.20 1050.75,132.80 1053.69,130.41 1056.64,128.02 1059.59,125.63 1062.52,123.23 1065.47,123.23 1068.43,120.84 1071.36,120.84 1074.31,118.45" fill="none" stroke="#000000" stroke-width="3"/>
<line x1="142" y1="100" x2="178" y2="100" stroke="#000000" stroke-width="4"/>
<text x="188" y="105" font-family="Arial" font-size="18" fill="black">rho</text>
</svg>