<svg xmlns="http://www.w3.org/2000/svg" width="1200" height="820" viewBox="0 0 1200 820">
<rect width="100%" height="100%" fill="white"/>
<text x="600.0" y="36" text-anchor="middle" font-family="Arial" font-size="24" fill="black">profile_diagonal_supply_return: T</text>
<line x1="120.00" y1="75" x2="120.00" y2="705" stroke="#dddddd" stroke-width="1"/>
<text x="120.00" y="737" text-anchor="middle" font-family="Arial" font-size="16" fill="black">-0.729</text>
<line x1="376.25" y1="75" x2="376.25" y2="705" stroke="#dddddd" stroke-width="1"/>
<text x="376.25" y="737" text-anchor="middle" font-family="Arial" font-size="16" fill="black">1.913</text>
<line x1="632.50" y1="75" x2="632.50" y2="705" stroke="#dddddd" stroke-width="1"/>
<text x="632.50" y="737" text-anchor="middle" font-family="Arial" font-size="16" fill="black">4.555</text>
<line x1="888.75" y1="75" x2="888.75" y2="705" stroke="#dddddd" stroke-width="1"/>
<text x="888.75" y="737" text-anchor="middle" font-family="Arial" font-size="16" fill="black">7.197</text>
<line x1="1145.00" y1="75" x2="1145.00" y2="705" stroke="#dddddd" stroke-width="1"/>
<text x="1145.00" y="737" text-anchor="middle" font-family="Arial" font-size="16" fill="black">9.839</text>
<line x1="120" y1="705.00" x2="1145" y2="705.00" stroke="#dddddd" stroke-width="1"/>
<text x="104" y="710.00" text-anchor="end" font-family="Arial" font-size="16" fill="black">297.2</text>
<line x1="120" y1="547.50" x2="1145" y2="547.50" stroke="#dddddd" stroke-width="1"/>
<text x="104" y="552.50" text-anchor="end" font-family="Arial" font-size="16" fill="black">303.5</text>
<line x1="120" y1="390.00" x2="1145" y2="390.00" stroke="#dddddd" stroke-width="1"/>
<text x="104" y="395.00" text-anchor="end" font-family="Arial" font-size="16" fill="black">309.8</text>
<line x1="120" y1="232.50" x2="1145" y2="232.50" stroke="#dddddd" stroke-width="1"/>
<text x="104" y="237.50" text-anchor="end" font-family="Arial" font-size="16" fill="black">316.0</text>
<line x1="120" y1="75.00" x2="1145" y2="75.00" stroke="#dddddd" stroke-width="1"/>
<text x="104" y="80.00" text-anchor="end" font-family="Arial" font-size="16" fill="black">322.3</text>
<rect x="120" y="75" width="1025" height="630" fill="none" stroke="black" stroke-width="2"/>
<text x="632.5" y="785" text-anchor="middle" font-family="Arial" font-size="20" fill="black">distance along sample line [m]</text>
<text x="34" y="390.0" transform="rotate(-90 34 390.0)" text-anchor="middle" font-family="Arial" font-size="20" fill="black">T [K]</text>
<polyline points="190.69,661.55 193.64,659.79 196.58,658.04 199.53,655.78 202.47,653.77 205.42,651.01 208.36,648.25 211.31,643.73 214.25,638.96 217.20,633.94 220.14,628.93 223.09,622.65 226.03,616.13 228.98,610.35 231.93,604.58 234.87,598.56 237.82,592.53 240.76,586.26 243.71,580.24 246.65,574.97 249.60,569.19 252.54,562.92 255.49,556.90 258.43,550.87 261.38,544.35 264.32,538.32 267.27,532.05 270.22,526.28 273.16,520.25 276.11,513.73 279.05,506.45 282.00,500.68 284.94,494.40 287.88,487.38 290.83,479.85 293.78,474.08 296.73,468.55 299.67,463.28 302.62,457.76 305.57,453.24 308.50,450.74 311.45,447.22 314.40,444.21 317.34,441.70 320.29,439.69 323.24,438.69 326.18,438.44 329.12,438.69 332.07,438.19 335.01,437.43 337.96,437.43 340.91,437.68 343.85,437.18 346.80,436.18 349.74,435.93 352.68,433.92 355.63,431.41 358.58,426.89 361.53,422.88 364.47,419.11 367.42,415.85 370.36,407.57 373.30,399.29 376.25,391.25 379.20,383.47 382.14,375.19 385.09,366.91 388.04,360.64 390.97,354.36 393.92,349.84 396.87,347.08 399.81,344.57 402.76,342.32 405.71,342.32 408.65,347.84 411.59,353.36 414.54,359.13 417.48,364.90 420.43,370.93 423.38,377.45 426.32,384.23 429.27,391.25 432.21,395.52 435.16,397.53 438.10,399.54 441.05,401.80 444.00,403.30 446.94,403.05 449.89,402.55 452.84,402.30 455.77,402.05 458.72,400.04 461.67,398.03 464.61,396.02 467.56,394.02 470.51,391.25 473.45,387.99 476.39,384.73 479.34,381.47 482.28,377.70 485.23,373.44 488.18,369.67 491.12,365.66 494.07,361.64 497.01,357.12 499.96,352.86 502.90,348.59 505.85,344.57 508.80,340.31 511.74,336.04 514.69,331.77 517.63,328.51 520.57,325.25 523.52,321.99 526.47,319.23 529.41,316.21 532.36,313.70 535.31,311.19 538.24,308.94 541.19,307.18 544.14,305.92 547.08,304.42 550.03,303.16 552.98,302.41 555.92,301.91 558.86,301.66 561.81,301.66 564.76,301.16 567.70,301.16 570.65,300.90 573.60,300.90 576.54,301.16 579.49,301.91 582.43,301.66 585.37,301.16 588.32,300.65 591.27,300.15 594.21,299.90 597.16,299.15 600.11,297.39 603.04,295.89 605.99,294.13 608.94,292.12 611.88,289.61 614.83,287.10 617.78,283.84 620.72,280.33 623.66,276.56 626.61,272.55 629.55,268.53 632.50,264.26 635.45,259.24 638.40,254.22 641.34,248.95 644.28,243.68 647.23,238.91 650.17,234.15 653.12,228.62 656.07,223.35 659.01,218.34 661.96,213.82 664.90,209.55 667.84,205.28 670.79,200.52 673.74,197.00 676.68,193.74 679.63,190.73 682.58,187.72 685.51,185.21 688.46,183.20 691.41,181.44 694.35,179.94 697.30,178.43 700.25,176.92 703.20,175.67 706.14,174.92 709.08,174.16 712.03,172.66 714.97,171.40 717.92,170.15 720.87,169.14 723.81,167.64 726.76,166.13 729.70,164.63 732.64,163.12 735.59,161.11 738.54,158.85 741.48,157.35 744.43,155.34 747.38,153.58 750.31,151.33 753.26,149.07 756.21,146.81 759.15,145.05 762.10,143.04 765.05,141.04 767.99,139.03 770.93,137.02 773.88,135.01 776.83,133.26 779.77,131.50 782.72,130.24 785.67,128.74 788.61,126.98 791.55,125.48 794.50,124.72 797.44,123.72 800.39,122.71 803.34,121.71 806.28,120.71 809.23,120.21 812.17,119.70 815.11,119.20 818.06,118.95 821.01,118.95 823.95,118.70 826.90,118.45 829.85,118.45 832.79,118.95 835.73,119.20 838.68,119.45 841.63,120.21 844.57,121.21 847.52,122.71 850.47,125.48 853.41,128.49 856.35,131.75 859.30,135.51 862.24,141.04 865.19,146.31 868.14,151.83 871.08,156.85 874.03,162.12 876.97,167.89 879.91,173.41 882.86,177.93 885.81,182.20 888.75,186.21 891.70,189.72 894.65,192.99 897.58,195.75 900.53,196.75 903.48,197.76 906.43,198.26 909.37,198.51 912.32,198.51 915.27,198.26 918.20,197.50 921.15,196.75 924.10,196.25 927.04,196.50 929.99,197.00 932.94,198.01 935.88,199.51 938.82,203.53 941.77,208.30 944.71,213.57 947.66,219.59 950.61,229.13 953.55,239.42 956.50,250.21 959.44,262.51 962.38,275.56 965.33,289.11 968.28,303.16 971.22,316.72 974.17,330.27 977.12,342.06 980.06,354.36 983.00,366.66 985.95,378.96 988.90,388.49 991.84,398.03 994.79,407.57 997.74,417.10 1000.68,424.63 1003.62,431.41 1006.57,437.68 1009.51,443.71 1012.46,448.73 1015.41,452.49 1018.35,455.50 1021.30,458.01 1024.24,459.77 1027.18,460.52 1030.13,461.53 1033.08,462.03 1036.02,462.53 1038.97,463.03 1041.92,462.28 1044.86,461.53 1047.80,461.28 1050.75,461.03 1053.70,460.77 1056.64,460.52 1059.59,460.02 1062.54,459.27 1065.47,458.77 1068.42,458.01 1071.37,457.51 1074.31,457.01" fill="none" stroke="#000000" stroke-width="3"/>
<line x1="142" y1="100" x2="178" y2="100" stroke="#000000" stroke-width="4"/>
<text x="188" y="105" font-family="Arial" font-size="18" fill="black">T</text>
</svg>