<svg xmlns="http://www.w3.org/2000/svg" width="1200" height="820" viewBox="0 0 1200 820">
<rect width="100%" height="100%" fill="white"/>
<text x="600.0" y="36" text-anchor="middle" font-family="Arial" font-size="24" fill="black">profile_near_floor_x: T</text>
<line x1="120.00" y1="75" x2="120.00" y2="705" stroke="#dddddd" stroke-width="1"/>
<text x="120.00" y="737" text-anchor="middle" font-family="Arial" font-size="16" fill="black">-0.560</text>
<line x1="376.25" y1="75" x2="376.25" y2="705" stroke="#dddddd" stroke-width="1"/>
<text x="376.25" y="737" text-anchor="middle" font-family="Arial" font-size="16" fill="black">1.470</text>
<line x1="632.50" y1="75" x2="632.50" y2="705" stroke="#dddddd" stroke-width="1"/>
<text x="632.50" y="737" text-anchor="middle" font-family="Arial" font-size="16" fill="black">3.500</text>
<line x1="888.75" y1="75" x2="888.75" y2="705" stroke="#dddddd" stroke-width="1"/>
<text x="888.75" y="737" text-anchor="middle" font-family="Arial" font-size="16" fill="black">5.530</text>
<line x1="1145.00" y1="75" x2="1145.00" y2="705" stroke="#dddddd" stroke-width="1"/>
<text x="1145.00" y="737" text-anchor="middle" font-family="Arial" font-size="16" fill="black">7.560</text>
<line x1="120" y1="705.00" x2="1145" y2="705.00" stroke="#dddddd" stroke-width="1"/>
<text x="104" y="710.00" text-anchor="end" font-family="Arial" font-size="16" fill="black">288.7</text>
<line x1="120" y1="547.50" x2="1145" y2="547.50" stroke="#dddddd" stroke-width="1"/>
<text x="104" y="552.50" text-anchor="end" font-family="Arial" font-size="16" fill="black">297.0</text>
<line x1="120" y1="390.00" x2="1145" y2="390.00" stroke="#dddddd" stroke-width="1"/>
<text x="104" y="395.00" text-anchor="end" font-family="Arial" font-size="16" fill="black">305.2</text>
<line x1="120" y1="232.50" x2="1145" y2="232.50" stroke="#dddddd" stroke-width="1"/>
<text x="104" y="237.50" text-anchor="end" font-family="Arial" font-size="16" fill="black">313.5</text>
<line x1="120" y1="75.00" x2="1145" y2="75.00" stroke="#dddddd" stroke-width="1"/>
<text x="104" y="80.00" text-anchor="end" font-family="Arial" font-size="16" fill="black">321.7</text>
<rect x="120" y="75" width="1025" height="630" fill="none" stroke="black" stroke-width="2"/>
<text x="632.5" y="785" text-anchor="middle" font-family="Arial" font-size="20" fill="black">x coordinate [m]</text>
<text x="34" y="390.0" transform="rotate(-90 34 390.0)" text-anchor="middle" font-family="Arial" font-size="20" fill="black">T [K]</text>
<polyline points="190.69,472.89 193.64,470.79 196.58,468.69 199.53,466.59 202.47,464.49 205.42,461.06 208.36,456.86 211.31,452.86 214.25,448.85 217.20,445.61 220.14,443.32 223.09,441.22 226.03,438.93 228.98,437.21 231.93,438.55 234.87,439.88 237.82,441.03 240.76,442.36 243.71,447.52 246.65,453.43 249.60,459.15 252.54,464.87 255.49,473.65 258.43,484.33 261.38,495.21 264.32,505.89 267.27,517.33 270.22,530.88 273.16,544.23 276.11,557.59 279.05,570.94 282.00,582.96 284.94,594.78 287.89,606.61 290.83,618.63 293.78,626.64 296.72,633.32 299.67,640.00 302.62,646.67 305.56,651.25 308.51,653.54 311.45,655.64 314.40,657.74 317.34,659.64 320.29,660.03 323.23,660.60 326.17,660.98 329.13,661.36 332.07,661.55 335.01,661.55 337.96,661.55 340.91,661.55 343.85,661.55 346.80,661.55 349.74,661.55 352.68,661.55 355.64,661.55 358.58,661.55 361.52,661.55 364.47,661.55 367.41,661.55 370.35,661.55 373.31,661.55 376.25,661.55 379.19,661.55 382.15,661.55 385.09,661.55 388.03,661.55 390.98,661.55 393.92,661.55 396.86,661.55 399.82,661.36 402.76,661.36 405.70,661.17 408.65,659.45 411.59,657.93 414.54,656.40 417.49,654.68 420.43,651.82 423.37,648.58 426.33,645.34 429.27,642.09 432.21,637.13 435.16,631.03 438.10,624.93 441.04,618.63 444.00,611.38 446.94,600.89 449.88,590.40 452.83,579.90 455.78,569.41 458.72,559.68 461.67,549.76 464.61,540.04 467.55,530.12 470.51,523.25 473.45,517.72 476.39,512.18 479.34,506.65 482.28,502.65 485.23,500.74 488.18,498.83 491.12,496.92 494.06,495.21 497.02,495.59 499.96,495.78 502.90,496.16 505.85,496.35 508.79,498.07 511.73,499.78 514.69,501.50 517.63,503.41 520.57,506.65 523.52,510.85 526.47,515.24 529.41,519.43 532.36,524.77 535.30,532.79 538.24,540.61 541.20,548.62 544.14,556.44 547.08,566.93 550.03,577.23 552.97,587.54 555.92,597.84 558.87,606.80 561.81,615.01 564.75,623.40 567.71,631.79 570.65,638.28 573.59,642.67 576.54,647.05 579.48,651.44 582.42,655.45 585.38,656.78 588.32,658.31 591.26,659.64 594.21,661.17 597.16,661.36 600.10,661.36 603.05,661.55 605.99,661.55 608.93,661.55 611.89,661.55 614.83,661.55 617.77,661.55 620.72,661.55 623.66,661.55 626.60,661.55 629.56,661.55 632.50,661.55 635.44,661.55 638.40,661.55 641.34,661.55 644.28,661.55 647.23,661.55 650.17,661.55 653.11,661.55 656.07,661.55 659.01,661.55 661.95,661.55 664.90,661.55 667.84,661.55 670.79,661.36 673.74,660.98 676.68,660.79 679.62,660.41 682.58,660.03 685.52,657.16 688.46,653.73 691.41,650.49 694.35,647.05 697.29,640.57 700.25,631.60 703.19,622.83 706.13,613.86 709.08,603.94 712.03,591.92 714.97,579.71 717.92,567.70 720.86,555.49 723.80,544.61 726.76,533.55 729.70,522.68 732.64,511.61 735.59,502.07 738.53,493.11 741.48,484.14 744.43,475.18 747.37,465.07 750.31,453.24 753.27,441.22 756.21,429.39 759.15,417.57 762.10,405.55 765.04,393.72 767.98,381.70 770.94,369.87 773.88,364.72 776.82,360.72 779.77,356.52 782.72,352.51 785.66,353.09 788.61,356.90 791.55,360.72 794.49,364.53 797.45,370.45 800.39,381.89 803.33,393.15 806.28,404.59 809.22,415.85 812.17,435.12 815.12,454.38 818.06,473.46 821.00,492.73 823.96,513.90 826.90,536.22 829.84,558.35 832.79,580.48 835.73,598.79 838.67,611.76 841.63,624.93 844.57,638.09 847.51,649.53 850.46,652.20 853.41,654.88 856.35,657.55 859.30,660.22 862.24,660.60 865.18,660.79 868.14,660.98 871.08,661.17 874.02,661.36 876.97,661.36 879.91,661.36 882.85,661.36 885.81,661.55 888.75,661.55 891.69,661.55 894.65,661.55 897.59,661.55 900.53,661.55 903.48,661.55 906.42,661.55 909.36,661.55 912.32,661.55 915.26,661.55 918.20,661.55 921.15,661.55 924.09,661.55 927.04,661.36 929.99,661.36 932.93,661.36 935.87,660.98 938.83,659.45 941.77,657.93 944.71,656.40 947.66,654.88 950.60,646.67 953.54,637.32 956.50,627.98 959.44,618.63 962.38,602.99 965.33,582.58 968.28,562.16 971.22,541.75 974.17,519.81 977.11,493.87 980.05,467.93 983.01,441.79 985.95,415.85 988.89,390.86 991.84,365.87 994.78,340.69 997.73,315.70 1000.68,294.52 1003.62,274.68 1006.56,255.03 1009.52,235.39 1012.46,218.60 1015.40,205.63 1018.35,192.85 1021.29,179.87 1024.23,167.86 1027.19,160.61 1030.13,153.36 1033.07,146.11 1036.02,138.86 1038.97,135.04 1041.91,131.61 1044.86,128.18 1047.80,124.74 1050.74,122.84 1053.70,121.69 1056.64,120.74 1059.58,119.59 1062.53,118.83 1065.47,118.83 1068.42,118.64 1071.37,118.64 1074.31,118.45" fill="none" stroke="#000000" stroke-width="3"/>
<line x1="142" y1="100" x2="178" y2="100" stroke="#000000" stroke-width="4"/>
<text x="188" y="105" font-family="Arial" font-size="18" fill="black">T</text>
</svg>