<svg xmlns="http://www.w3.org/2000/svg" width="1200" height="820" viewBox="0 0 1200 820">
<rect width="100%" height="100%" fill="white"/>
<text x="600.0" y="36" text-anchor="middle" font-family="Arial" font-size="24" fill="black">profile_near_floor_x: Q</text>
<line x1="120.00" y1="75" x2="120.00" y2="705" stroke="#dddddd" stroke-width="1"/>
<text x="120.00" y="737" text-anchor="middle" font-family="Arial" font-size="16" fill="black">-0.560</text>
<line x1="376.25" y1="75" x2="376.25" y2="705" stroke="#dddddd" stroke-width="1"/>
<text x="376.25" y="737" text-anchor="middle" font-family="Arial" font-size="16" fill="black">1.470</text>
<line x1="632.50" y1="75" x2="632.50" y2="705" stroke="#dddddd" stroke-width="1"/>
<text x="632.50" y="737" text-anchor="middle" font-family="Arial" font-size="16" fill="black">3.500</text>
<line x1="888.75" y1="75" x2="888.75" y2="705" stroke="#dddddd" stroke-width="1"/>
<text x="888.75" y="737" text-anchor="middle" font-family="Arial" font-size="16" fill="black">5.530</text>
<line x1="1145.00" y1="75" x2="1145.00" y2="705" stroke="#dddddd" stroke-width="1"/>
<text x="1145.00" y="737" text-anchor="middle" font-family="Arial" font-size="16" fill="black">7.560</text>
<line x1="120" y1="705.00" x2="1145" y2="705.00" stroke="#dddddd" stroke-width="1"/>
<text x="104" y="710.00" text-anchor="end" font-family="Arial" font-size="16" fill="black">-0.679</text>
<line x1="120" y1="547.50" x2="1145" y2="547.50" stroke="#dddddd" stroke-width="1"/>
<text x="104" y="552.50" text-anchor="end" font-family="Arial" font-size="16" fill="black">-0.251</text>
<line x1="120" y1="390.00" x2="1145" y2="390.00" stroke="#dddddd" stroke-width="1"/>
<text x="104" y="395.00" text-anchor="end" font-family="Arial" font-size="16" fill="black">0.176</text>
<line x1="120" y1="232.50" x2="1145" y2="232.50" stroke="#dddddd" stroke-width="1"/>
<text x="104" y="237.50" text-anchor="end" font-family="Arial" font-size="16" fill="black">0.604</text>
<line x1="120" y1="75.00" x2="1145" y2="75.00" stroke="#dddddd" stroke-width="1"/>
<text x="104" y="80.00" text-anchor="end" font-family="Arial" font-size="16" fill="black">1.031</text>
<rect x="120" y="75" width="1025" height="630" fill="none" stroke="black" stroke-width="2"/>
<text x="632.5" y="785" text-anchor="middle" font-family="Arial" font-size="20" fill="black">x coordinate [m]</text>
<text x="34" y="390.0" transform="rotate(-90 34 390.0)" text-anchor="middle" font-family="Arial" font-size="20" fill="black">Q [SI]</text>
<polyline points="190.69,518.58 193.64,507.08 196.58,495.57 199.53,484.07 202.47,472.56 205.42,458.63 208.36,443.72 211.31,428.82 214.25,413.92 217.20,404.10 220.14,401.07 223.09,398.04 226.03,395.01 228.98,392.54 231.93,393.42 234.87,394.29 237.82,395.16 240.76,396.03 243.71,400.09 246.65,404.68 249.60,409.26 252.54,413.86 255.49,422.17 258.43,433.27 261.38,444.38 264.32,455.48 267.27,463.28 270.22,462.82 273.16,462.36 276.11,461.90 279.05,461.44 282.00,432.96 284.94,404.49 287.89,376.01 290.83,347.54 293.78,312.41 296.72,274.62 299.67,236.83 302.62,199.03 305.56,188.31 308.51,213.68 311.45,239.06 314.40,264.43 317.34,293.99 320.29,348.62 323.23,403.25 326.17,457.89 329.13,512.52 332.07,529.94 335.01,541.16 337.96,552.38 340.91,563.60 343.85,567.17 346.80,565.01 349.74,562.86 352.68,560.70 355.64,558.80 358.58,557.52 361.52,556.24 364.47,554.97 367.41,553.69 370.35,553.28 373.31,552.86 376.25,552.44 379.19,552.03 382.15,551.93 385.09,551.95 388.03,551.98 390.98,552.00 393.92,545.58 396.86,530.54 399.82,515.51 402.76,500.48 405.70,479.48 408.65,422.72 411.59,365.96 414.54,309.21 417.49,252.45 420.43,216.36 423.37,183.73 426.33,151.09 429.27,118.45 432.21,130.24 435.16,175.35 438.10,220.46 441.04,265.57 444.00,310.25 446.94,353.86 449.88,397.46 452.83,441.07 455.78,484.68 458.72,490.67 461.67,496.66 464.61,502.65 467.55,508.64 470.51,507.38 473.45,503.22 476.39,499.06 479.34,494.90 482.28,493.21 485.23,494.79 488.18,496.38 491.12,497.97 494.06,499.13 497.02,497.77 499.96,496.40 502.90,495.04 505.85,493.67 508.79,488.64 511.73,482.99 514.69,477.35 517.63,471.71 520.57,471.87 523.52,476.40 526.47,480.92 529.41,485.45 532.36,488.92 535.30,489.75 538.24,490.57 541.20,491.40 544.14,492.23 547.08,456.66 550.03,421.08 552.97,385.50 555.92,349.93 558.87,302.89 561.81,251.26 564.75,199.64 567.71,148.02 570.65,130.95 573.59,159.95 576.54,188.96 579.48,217.96 582.42,252.04 585.38,316.57 588.32,381.11 591.26,445.64 594.21,510.17 597.16,532.60 600.10,548.03 603.05,563.45 605.99,578.87 608.93,585.34 611.89,585.10 614.83,584.85 617.77,584.61 620.72,584.63 623.66,585.28 626.60,585.93 629.56,586.59 632.50,587.24 635.44,589.19 638.40,591.15 641.34,593.10 644.28,595.06 647.23,597.88 650.17,601.05 653.11,604.22 656.07,607.39 659.01,604.83 661.95,594.61 664.90,584.39 667.84,574.18 670.79,558.87 673.74,512.99 676.68,467.11 679.62,421.24 682.58,375.36 685.52,352.06 688.46,332.52 691.41,312.98 694.35,293.44 697.29,300.75 700.25,328.19 703.19,355.63 706.13,383.07 709.08,407.95 712.03,426.42 714.97,444.90 717.92,463.37 720.86,481.84 723.80,485.40 726.76,488.96 729.70,492.52 732.64,496.07 735.59,497.74 738.53,498.64 741.48,499.55 744.43,500.46 747.37,504.45 750.31,512.55 753.27,520.65 756.21,528.75 759.15,534.84 762.10,528.80 765.04,522.76 767.98,516.73 770.94,510.69 773.88,499.76 776.82,488.01 779.77,476.27 782.72,464.52 785.66,462.26 788.61,467.10 791.55,471.95 794.49,476.79 797.45,482.06 800.39,488.39 803.33,494.72 806.28,501.05 809.22,507.39 812.17,499.44 815.12,491.49 818.06,483.54 821.00,475.59 823.96,444.74 826.90,404.73 829.84,364.71 832.79,324.70 835.73,310.03 838.67,329.17 841.63,348.29 844.57,367.43 847.51,392.31 850.46,451.70 853.41,511.09 856.35,570.48 859.30,629.87 862.24,643.51 865.18,649.52 868.14,655.54 871.08,661.55 874.02,661.36 876.97,656.51 879.91,651.66 882.85,646.82 885.81,642.73 888.75,640.55 891.69,638.37 894.65,636.19 897.59,634.01 900.53,632.88 903.48,631.74 906.42,630.61 909.36,629.47 912.32,627.16 915.26,624.37 918.20,621.57 921.15,618.79 924.09,607.17 927.04,583.77 929.99,560.37 932.93,536.98 935.87,513.10 938.83,486.38 941.77,459.65 944.71,432.92 947.66,406.19 950.60,383.88 953.54,362.31 956.50,340.73 959.44,319.16 962.38,313.06 965.33,318.57 968.28,324.09 971.22,329.60 974.17,342.31 977.11,373.02 980.05,403.73 983.01,434.44 985.95,465.15 988.89,476.75 991.84,488.34 994.78,499.94 997.73,511.53 1000.68,515.64 1003.62,516.76 1006.56,517.87 1009.52,518.98 1012.46,518.52 1015.40,515.97 1018.35,513.42 1021.29,510.86 1024.23,508.43 1027.19,506.72 1030.13,505.00 1033.07,503.29 1036.02,501.57 1038.97,500.95 1041.91,500.52 1044.86,500.09 1047.80,499.65 1050.74,501.92 1053.70,506.20 1056.64,510.49 1059.58,514.78 1062.53,519.09 1065.47,523.47 1068.42,527.84 1071.37,532.22 1074.31,536.60" fill="none" stroke="#000000" stroke-width="3"/>
<line x1="142" y1="100" x2="178" y2="100" stroke="#000000" stroke-width="4"/>
<text x="188" y="105" font-family="Arial" font-size="18" fill="black">Q</text>
</svg>