<svg xmlns="http://www.w3.org/2000/svg" width="1200" height="820" viewBox="0 0 1200 820">
<rect width="100%" height="100%" fill="white"/>
<text x="600.0" y="36" text-anchor="middle" font-family="Arial" font-size="24" fill="black">profile_center_x: k</text>
<line x1="120.00" y1="75" x2="120.00" y2="705" stroke="#dddddd" stroke-width="1"/>
<text x="120.00" y="737" text-anchor="middle" font-family="Arial" font-size="16" fill="black">-0.560</text>
<line x1="376.25" y1="75" x2="376.25" y2="705" stroke="#dddddd" stroke-width="1"/>
<text x="376.25" y="737" text-anchor="middle" font-family="Arial" font-size="16" fill="black">1.470</text>
<line x1="632.50" y1="75" x2="632.50" y2="705" stroke="#dddddd" stroke-width="1"/>
<text x="632.50" y="737" text-anchor="middle" font-family="Arial" font-size="16" fill="black">3.500</text>
<line x1="888.75" y1="75" x2="888.75" y2="705" stroke="#dddddd" stroke-width="1"/>
<text x="888.75" y="737" text-anchor="middle" font-family="Arial" font-size="16" fill="black">5.530</text>
<line x1="1145.00" y1="75" x2="1145.00" y2="705" stroke="#dddddd" stroke-width="1"/>
<text x="1145.00" y="737" text-anchor="middle" font-family="Arial" font-size="16" fill="black">7.560</text>
<line x1="120" y1="705.00" x2="1145" y2="705.00" stroke="#dddddd" stroke-width="1"/>
<text x="104" y="710.00" text-anchor="end" font-family="Arial" font-size="16" fill="black">3.35e-04</text>
<line x1="120" y1="547.50" x2="1145" y2="547.50" stroke="#dddddd" stroke-width="1"/>
<text x="104" y="552.50" text-anchor="end" font-family="Arial" font-size="16" fill="black">0.008</text>
<line x1="120" y1="390.00" x2="1145" y2="390.00" stroke="#dddddd" stroke-width="1"/>
<text x="104" y="395.00" text-anchor="end" font-family="Arial" font-size="16" fill="black">0.016</text>
<line x1="120" y1="232.50" x2="1145" y2="232.50" stroke="#dddddd" stroke-width="1"/>
<text x="104" y="237.50" text-anchor="end" font-family="Arial" font-size="16" fill="black">0.023</text>
<line x1="120" y1="75.00" x2="1145" y2="75.00" stroke="#dddddd" stroke-width="1"/>
<text x="104" y="80.00" text-anchor="end" font-family="Arial" font-size="16" fill="black">0.031</text>
<rect x="120" y="75" width="1025" height="630" fill="none" stroke="black" stroke-width="2"/>
<text x="632.5" y="785" text-anchor="middle" font-family="Arial" font-size="20" fill="black">x coordinate [m]</text>
<text x="34" y="390.0" transform="rotate(-90 34 390.0)" text-anchor="middle" font-family="Arial" font-size="20" fill="black">k [m2/s2]</text>
<polyline points="190.69,518.52 193.64,503.25 196.58,487.98 199.53,472.71 202.47,457.43 205.42,437.50 208.36,415.71 211.31,393.92 214.25,372.13 217.20,356.21 220.14,348.08 223.09,339.97 226.03,331.86 228.98,324.94 231.93,325.19 234.87,325.43 237.82,325.66 240.76,325.90 243.71,331.17 246.65,337.26 249.60,343.34 252.54,349.43 255.49,357.61 258.43,367.36 261.38,377.10 264.32,386.84 267.27,396.86 270.22,407.52 273.16,418.20 276.11,428.88 279.05,439.54 282.00,448.14 284.94,456.74 287.89,465.33 290.83,473.91 293.78,479.34 296.72,483.49 299.67,487.63 302.62,491.78 305.56,493.84 308.51,493.17 311.45,492.49 314.40,491.80 317.34,490.76 320.29,487.53 323.23,484.30 326.17,481.08 329.13,477.85 332.07,475.12 335.01,472.46 337.96,469.83 340.91,467.17 343.85,465.19 346.80,463.72 349.74,462.25 352.68,460.76 355.64,458.96 358.58,456.29 361.52,453.63 364.47,450.98 367.41,448.32 370.35,442.24 373.31,436.13 376.25,430.05 379.19,423.96 382.15,415.57 385.09,406.26 388.03,396.95 390.98,387.63 393.92,378.10 396.86,368.27 399.82,358.47 402.76,348.65 405.70,339.20 408.65,331.97 411.59,324.74 414.54,317.53 417.49,310.30 420.43,306.28 423.37,302.81 426.33,299.31 429.27,295.84 432.21,293.98 435.16,293.37 438.10,292.76 441.04,292.13 444.00,291.92 446.94,292.70 449.88,293.45 452.83,294.23 455.78,295.01 458.72,296.05 461.67,297.07 464.61,298.11 467.55,299.13 470.51,299.91 473.45,300.56 476.39,301.23 479.34,301.91 482.28,302.32 485.23,302.38 488.18,302.44 491.12,302.50 494.06,302.48 497.02,301.93 499.96,301.40 502.90,300.85 505.85,300.31 508.79,299.35 511.73,298.31 514.69,297.29 517.63,296.27 520.57,295.05 523.52,293.66 526.47,292.27 529.41,290.90 532.36,289.43 535.30,287.74 538.24,286.04 541.20,284.37 544.14,282.67 547.08,280.65 550.03,278.63 552.97,276.61 555.92,274.58 558.87,272.32 561.81,269.97 564.75,267.62 567.71,265.25 570.65,262.80 573.59,260.23 576.54,257.66 579.48,255.08 582.42,252.51 585.38,250.02 588.32,247.53 591.26,245.04 594.21,242.54 597.16,240.52 600.10,238.58 603.05,236.62 605.99,234.68 608.93,233.25 611.89,232.19 614.83,231.13 617.77,230.07 620.72,229.23 623.66,228.96 626.60,228.68 629.56,228.39 632.50,228.13 635.44,228.15 638.40,228.17 641.34,228.19 644.28,228.21 647.23,228.13 650.17,228.03 653.11,227.92 656.07,227.82 659.01,227.66 661.95,227.45 664.90,227.23 667.84,227.00 670.79,226.82 673.74,226.84 676.68,226.86 679.62,226.88 682.58,226.88 685.52,227.35 688.46,227.86 691.41,228.39 694.35,228.92 697.29,229.70 700.25,230.68 703.19,231.66 706.13,232.64 709.08,233.64 712.03,234.76 714.97,235.89 717.92,236.99 720.86,238.11 723.80,239.01 726.76,239.93 729.70,240.83 732.64,241.75 735.59,242.30 738.53,242.71 741.48,243.12 744.43,243.55 747.37,243.63 750.31,243.30 753.27,242.95 756.21,242.63 759.15,242.16 762.10,240.89 765.04,239.60 767.98,238.34 770.94,237.05 773.88,234.89 776.82,232.56 779.77,230.23 782.72,227.90 785.66,225.00 788.61,221.65 791.55,218.28 794.49,214.94 797.45,211.32 800.39,207.09 803.33,202.87 806.28,198.62 809.22,194.39 812.17,189.72 815.12,185.04 818.06,180.36 821.00,175.69 823.96,171.15 826.90,166.66 829.84,162.17 832.79,157.70 835.73,153.53 838.67,149.81 841.63,146.08 844.57,142.34 847.51,138.77 850.46,136.09 853.41,133.44 856.35,130.76 859.30,128.09 862.24,126.33 865.18,124.72 868.14,123.10 871.08,121.49 874.02,120.45 876.97,119.86 879.91,119.27 882.85,118.67 885.81,118.45 888.75,119.14 891.69,119.82 894.65,120.51 897.59,121.21 900.53,123.76 903.48,126.31 906.42,128.86 909.36,131.42 912.32,135.74 915.26,140.77 918.20,145.81 921.15,150.84 924.09,157.04 927.04,164.80 929.99,172.56 932.93,180.32 935.87,188.41 938.83,198.46 941.77,208.50 944.71,218.55 947.66,228.60 950.60,239.79 953.54,251.14 956.50,262.52 959.44,273.89 962.38,285.43 965.33,297.09 968.28,308.75 971.22,320.41 974.17,331.93 977.11,343.12 980.05,354.31 983.01,365.50 985.95,376.69 988.89,387.06 991.84,397.46 994.78,407.85 997.73,418.22 1000.68,428.07 1003.62,437.66 1006.56,447.26 1009.52,456.88 1012.46,466.25 1015.40,475.34 1018.35,484.43 1021.29,493.49 1024.23,502.56 1027.19,511.54 1030.13,520.52 1033.07,529.49 1036.02,538.47 1038.97,547.98 1041.91,557.57 1044.86,567.16 1047.80,576.75 1050.74,587.69 1053.70,599.64 1056.64,611.59 1059.58,623.54 1062.53,634.03 1065.47,640.91 1068.42,647.79 1071.37,654.67 1074.31,661.55" fill="none" stroke="#000000" stroke-width="3"/>
<line x1="142" y1="100" x2="178" y2="100" stroke="#000000" stroke-width="4"/>
<text x="188" y="105" font-family="Arial" font-size="18" fill="black">k</text>
</svg>