<svg xmlns="http://www.w3.org/2000/svg" width="1200" height="820" viewBox="0 0 1200 820">
<rect width="100%" height="100%" fill="white"/>
<text x="600.0" y="36" text-anchor="middle" font-family="Arial" font-size="24" fill="black">profile_center_z: nut</text>
<line x1="120.00" y1="75" x2="120.00" y2="705" stroke="#dddddd" stroke-width="1"/>
<text x="120.00" y="737" text-anchor="middle" font-family="Arial" font-size="16" fill="black">-0.240</text>
<line x1="376.25" y1="75" x2="376.25" y2="705" stroke="#dddddd" stroke-width="1"/>
<text x="376.25" y="737" text-anchor="middle" font-family="Arial" font-size="16" fill="black">0.630</text>
<line x1="632.50" y1="75" x2="632.50" y2="705" stroke="#dddddd" stroke-width="1"/>
<text x="632.50" y="737" text-anchor="middle" font-family="Arial" font-size="16" fill="black">1.500</text>
<line x1="888.75" y1="75" x2="888.75" y2="705" stroke="#dddddd" stroke-width="1"/>
<text x="888.75" y="737" text-anchor="middle" font-family="Arial" font-size="16" fill="black">2.370</text>
<line x1="1145.00" y1="75" x2="1145.00" y2="705" stroke="#dddddd" stroke-width="1"/>
<text x="1145.00" y="737" text-anchor="middle" font-family="Arial" font-size="16" fill="black">3.240</text>
<line x1="120" y1="705.00" x2="1145" y2="705.00" stroke="#dddddd" stroke-width="1"/>
<text x="104" y="710.00" text-anchor="end" font-family="Arial" font-size="16" fill="black">-6.53e-04</text>
<line x1="120" y1="547.50" x2="1145" y2="547.50" stroke="#dddddd" stroke-width="1"/>
<text x="104" y="552.50" text-anchor="end" font-family="Arial" font-size="16" fill="black">0.005</text>
<line x1="120" y1="390.00" x2="1145" y2="390.00" stroke="#dddddd" stroke-width="1"/>
<text x="104" y="395.00" text-anchor="end" font-family="Arial" font-size="16" fill="black">0.010</text>
<line x1="120" y1="232.50" x2="1145" y2="232.50" stroke="#dddddd" stroke-width="1"/>
<text x="104" y="237.50" text-anchor="end" font-family="Arial" font-size="16" fill="black">0.015</text>
<line x1="120" y1="75.00" x2="1145" y2="75.00" stroke="#dddddd" stroke-width="1"/>
<text x="104" y="80.00" text-anchor="end" font-family="Arial" font-size="16" fill="black">0.020</text>
<rect x="120" y="75" width="1025" height="630" fill="none" stroke="black" stroke-width="2"/>
<text x="632.5" y="785" text-anchor="middle" font-family="Arial" font-size="20" fill="black">z coordinate [m]</text>
<text x="34" y="390.0" transform="rotate(-90 34 390.0)" text-anchor="middle" font-family="Arial" font-size="20" fill="black">nut [m2/s]</text>
<polyline points="190.69,661.33 193.64,661.35 196.58,661.37 199.53,661.40 202.47,661.42 205.42,661.44 208.36,661.46 211.31,661.49 214.25,661.51 217.20,661.53 220.14,661.55 223.09,661.52 226.03,661.49 228.98,661.46 231.93,661.43 234.87,661.40 237.82,661.36 240.76,661.33 243.71,661.30 246.65,661.27 249.60,661.24 252.54,661.00 255.49,660.77 258.43,660.53 261.38,660.29 264.32,660.05 267.27,659.82 270.22,659.58 273.16,659.34 276.11,659.11 279.05,658.87 282.00,657.92 284.94,656.97 287.89,656.02 290.83,655.07 293.78,654.11 296.72,653.16 299.67,652.21 302.61,651.26 305.56,650.31 308.51,649.36 311.45,645.13 314.40,640.89 317.34,636.66 320.29,632.43 323.23,628.20 326.18,623.97 329.12,619.74 332.07,615.51 335.01,611.28 337.96,607.04 340.91,597.15 343.85,587.25 346.80,577.35 349.74,567.45 352.69,557.55 355.63,547.65 358.58,537.76 361.52,527.86 364.47,517.96 367.41,508.06 370.36,497.15 373.30,486.23 376.25,475.31 379.20,464.39 382.14,453.47 385.09,442.56 388.03,431.64 390.98,420.72 393.92,409.81 396.87,398.89 399.81,391.17 402.76,383.44 405.70,375.74 408.65,368.01 411.59,360.29 414.54,352.56 417.49,344.83 420.43,337.13 423.38,329.41 426.32,321.68 429.27,316.18 432.21,310.70 435.16,305.20 438.10,299.73 441.05,294.23 443.99,288.72 446.94,283.25 449.89,277.75 452.83,272.25 455.78,266.77 458.72,263.02 461.67,259.26 464.61,255.50 467.56,251.74 470.50,247.98 473.45,244.22 476.39,240.47 479.34,236.74 482.28,232.98 485.23,229.22 488.18,226.66 491.12,224.14 494.07,221.58 497.01,219.03 499.96,216.50 502.90,213.94 505.85,211.42 508.79,208.86 511.74,206.31 514.68,203.78 517.63,201.95 520.57,200.14 523.52,198.34 526.47,196.51 529.41,194.70 532.36,192.90 535.30,191.06 538.25,189.26 541.19,187.45 544.14,185.62 547.08,184.27 550.03,182.88 552.97,181.50 555.92,180.15 558.86,178.77 561.81,177.38 564.76,176.03 567.70,174.65 570.65,173.29 573.59,171.91 576.54,170.83 579.48,169.74 582.43,168.66 585.37,167.58 588.32,166.50 591.26,165.41 594.21,164.33 597.16,163.25 600.10,162.17 603.05,161.08 605.99,160.18 608.94,159.31 611.88,158.41 614.83,157.54 617.77,156.66 620.72,155.76 623.66,154.89 626.61,153.99 629.55,153.12 632.50,152.21 635.45,151.49 638.39,150.74 641.34,149.99 644.28,149.24 647.23,148.49 650.17,147.73 653.12,146.98 656.06,146.26 659.01,145.51 661.95,144.76 664.90,144.10 667.84,143.43 670.79,142.77 673.74,142.14 676.68,141.48 679.63,140.82 682.57,140.16 685.52,139.53 688.46,138.86 691.41,138.20 694.35,137.60 697.30,137.03 700.24,136.43 703.19,135.83 706.14,135.26 709.08,134.66 712.03,134.05 714.97,133.48 717.92,132.88 720.86,132.28 723.81,131.77 726.75,131.23 729.70,130.69 732.64,130.14 735.59,129.60 738.53,129.06 741.48,128.52 744.43,127.98 747.37,127.47 750.32,126.93 753.26,126.45 756.21,126.00 759.15,125.51 762.10,125.06 765.04,124.61 767.99,124.13 770.93,123.68 773.88,123.20 776.82,122.75 779.77,122.27 782.72,121.97 785.66,121.64 788.61,121.30 791.55,120.97 794.50,120.64 797.44,120.34 800.39,120.01 803.33,119.68 806.28,119.35 809.22,119.02 812.17,118.96 815.11,118.93 818.06,118.87 821.01,118.81 823.95,118.75 826.90,118.69 829.84,118.63 832.79,118.57 835.73,118.51 838.68,118.45 841.62,118.90 844.57,119.35 847.51,119.77 850.46,120.22 853.41,120.64 856.35,121.09 859.30,121.52 862.24,121.97 865.19,122.42 868.13,122.84 871.08,124.13 874.02,125.42 876.97,126.72 879.91,128.01 882.86,129.30 885.80,130.60 888.75,131.89 891.70,133.18 894.64,134.47 897.59,135.77 900.53,138.47 903.48,141.15 906.42,143.83 909.37,146.53 912.31,149.21 915.26,151.91 918.20,154.59 921.15,157.27 924.09,159.97 927.04,162.65 929.99,167.49 932.93,172.33 935.88,177.17 938.82,182.01 941.77,186.85 944.71,191.66 947.66,196.51 950.60,201.35 953.55,206.19 956.49,211.03 959.44,218.97 962.39,226.93 965.33,234.87 968.28,242.84 971.22,250.78 974.17,258.75 977.11,266.68 980.06,274.62 983.00,282.59 985.95,290.53 988.89,302.56 991.84,314.55 994.78,326.58 997.73,338.58 1000.68,350.57 1003.62,362.60 1006.57,374.60 1009.51,386.61 1012.46,398.62 1015.40,410.63 1018.35,426.21 1021.29,441.78 1024.24,457.35 1027.18,472.93 1030.13,488.50 1033.07,504.07 1036.02,519.64 1038.97,535.22 1041.91,550.79 1044.86,566.36 1047.80,574.81 1050.75,583.26 1053.69,591.71 1056.64,600.16 1059.58,608.61 1062.53,617.06 1065.47,625.51 1068.42,633.96 1071.36,642.40 1074.31,650.85" fill="none" stroke="#000000" stroke-width="3"/>
<line x1="142" y1="100" x2="178" y2="100" stroke="#000000" stroke-width="4"/>
<text x="188" y="105" font-family="Arial" font-size="18" fill="black">nut</text>
</svg>