<svg xmlns="http://www.w3.org/2000/svg" width="1200" height="820" viewBox="0 0 1200 820">
<rect width="100%" height="100%" fill="white"/>
<text x="600.0" y="36" text-anchor="middle" font-family="Arial" font-size="24" fill="black">profile_near_floor_x: vorticity:1</text>
<line x1="120.00" y1="75" x2="120.00" y2="705" stroke="#dddddd" stroke-width="1"/>
<text x="120.00" y="737" text-anchor="middle" font-family="Arial" font-size="16" fill="black">-0.560</text>
<line x1="376.25" y1="75" x2="376.25" y2="705" stroke="#dddddd" stroke-width="1"/>
<text x="376.25" y="737" text-anchor="middle" font-family="Arial" font-size="16" fill="black">1.470</text>
<line x1="632.50" y1="75" x2="632.50" y2="705" stroke="#dddddd" stroke-width="1"/>
<text x="632.50" y="737" text-anchor="middle" font-family="Arial" font-size="16" fill="black">3.500</text>
<line x1="888.75" y1="75" x2="888.75" y2="705" stroke="#dddddd" stroke-width="1"/>
<text x="888.75" y="737" text-anchor="middle" font-family="Arial" font-size="16" fill="black">5.530</text>
<line x1="1145.00" y1="75" x2="1145.00" y2="705" stroke="#dddddd" stroke-width="1"/>
<text x="1145.00" y="737" text-anchor="middle" font-family="Arial" font-size="16" fill="black">7.560</text>
<line x1="120" y1="705.00" x2="1145" y2="705.00" stroke="#dddddd" stroke-width="1"/>
<text x="104" y="710.00" text-anchor="end" font-family="Arial" font-size="16" fill="black">-2.835</text>
<line x1="120" y1="547.50" x2="1145" y2="547.50" stroke="#dddddd" stroke-width="1"/>
<text x="104" y="552.50" text-anchor="end" font-family="Arial" font-size="16" fill="black">-1.428</text>
<line x1="120" y1="390.00" x2="1145" y2="390.00" stroke="#dddddd" stroke-width="1"/>
<text x="104" y="395.00" text-anchor="end" font-family="Arial" font-size="16" fill="black">-0.021</text>
<line x1="120" y1="232.50" x2="1145" y2="232.50" stroke="#dddddd" stroke-width="1"/>
<text x="104" y="237.50" text-anchor="end" font-family="Arial" font-size="16" fill="black">1.386</text>
<line x1="120" y1="75.00" x2="1145" y2="75.00" stroke="#dddddd" stroke-width="1"/>
<text x="104" y="80.00" text-anchor="end" font-family="Arial" font-size="16" fill="black">2.793</text>
<rect x="120" y="75" width="1025" height="630" fill="none" stroke="black" stroke-width="2"/>
<text x="632.5" y="785" text-anchor="middle" font-family="Arial" font-size="20" fill="black">x coordinate [m]</text>
<text x="34" y="390.0" transform="rotate(-90 34 390.0)" text-anchor="middle" font-family="Arial" font-size="20" fill="black">vorticity:1 [SI]</text>
<polyline points="190.69,428.28 193.64,414.52 196.58,400.75 199.53,386.99 202.47,373.23 205.42,358.94 208.36,344.44 211.31,329.93 214.25,315.43 217.20,306.73 220.14,305.76 223.09,304.79 226.03,303.82 228.98,303.04 231.93,303.47 234.87,303.89 237.82,304.31 240.76,304.73 243.71,307.80 246.65,311.32 249.60,314.84 252.54,318.36 255.49,325.28 258.43,334.75 261.38,344.22 264.32,353.69 267.27,365.29 270.22,382.19 273.16,399.10 276.11,416.00 279.05,432.91 282.00,460.33 284.94,487.75 287.89,515.17 290.83,542.58 293.78,568.69 296.72,594.27 299.67,619.86 302.62,645.44 305.56,658.14 308.51,653.65 311.45,649.17 314.40,644.68 317.34,636.61 320.29,607.02 323.23,577.43 326.17,547.85 329.13,518.25 332.07,496.55 335.01,476.17 337.96,455.79 340.91,435.41 343.85,423.52 346.80,418.00 349.74,412.48 352.68,406.96 355.64,402.09 358.58,398.86 361.52,395.63 364.47,392.40 367.41,389.16 370.35,386.29 373.31,383.42 376.25,380.55 379.19,377.68 382.15,374.01 385.09,370.03 388.03,366.05 390.98,362.07 393.92,350.29 396.86,328.12 399.82,305.96 402.76,283.79 405.70,260.10 408.65,227.27 411.59,194.45 414.54,161.62 417.49,128.79 420.43,122.85 423.37,121.38 426.33,119.91 429.27,118.45 432.21,133.54 435.16,161.04 438.10,188.55 441.04,216.06 444.00,242.88 446.94,268.01 449.88,293.14 452.83,318.27 455.78,343.40 458.72,356.58 461.67,369.77 464.61,382.95 467.55,396.14 470.51,402.94 473.45,407.19 476.39,411.44 479.34,415.69 482.28,416.31 485.23,412.10 488.18,407.90 491.12,403.69 494.06,398.61 497.02,388.30 499.96,377.99 502.90,367.67 505.85,357.36 508.79,350.40 511.73,344.00 514.69,337.59 517.63,331.19 520.57,330.50 523.52,334.11 526.47,337.72 529.41,341.32 532.36,348.17 535.30,363.11 538.24,378.06 541.20,393.01 544.14,407.95 547.08,436.69 550.03,465.43 552.97,494.17 555.92,522.90 558.87,552.96 561.81,583.56 564.75,614.14 567.71,644.73 570.65,661.55 573.59,660.02 576.54,658.48 579.48,656.95 582.42,650.84 585.38,617.22 588.32,583.61 591.26,550.00 594.21,516.39 597.16,492.18 600.10,469.54 603.05,446.89 605.99,424.25 608.93,411.88 611.89,407.21 614.83,402.54 617.77,397.88 620.72,393.60 623.66,390.28 626.60,386.97 629.56,383.65 632.50,380.34 635.44,376.53 638.40,372.71 641.34,368.90 644.28,365.09 647.23,359.20 650.17,352.47 653.11,345.75 656.07,339.03 659.01,326.92 661.95,307.63 664.90,288.34 667.84,269.05 670.79,248.88 673.74,223.38 676.68,197.88 679.62,172.38 682.58,146.88 685.52,141.14 688.46,138.68 691.41,136.23 694.35,133.76 697.29,146.96 700.25,171.91 703.19,196.86 706.13,221.81 709.08,246.84 712.03,272.07 714.97,297.31 717.92,322.55 720.86,347.79 723.80,360.76 726.76,373.73 729.70,386.71 732.64,399.68 735.59,406.14 738.53,410.00 741.48,413.85 744.43,417.70 747.37,416.76 750.31,409.42 753.27,402.08 756.21,394.74 759.15,386.78 762.10,375.03 765.04,363.29 767.98,351.54 770.94,339.79 773.88,334.48 776.82,330.24 779.77,326.00 782.72,321.76 785.66,322.59 788.61,327.21 791.55,331.83 794.49,336.46 797.45,343.32 800.39,355.78 803.33,368.23 806.28,380.69 809.22,393.15 812.17,420.17 815.12,447.19 818.06,474.22 821.00,501.24 823.96,530.82 826.90,561.43 829.84,592.03 832.79,622.64 835.73,640.19 838.67,640.36 841.63,640.52 844.57,640.67 847.51,636.64 850.46,607.47 853.41,578.28 856.35,549.10 859.30,519.92 862.24,496.65 865.18,474.38 868.14,452.11 871.08,429.83 874.02,415.81 876.97,407.97 879.91,400.13 882.85,392.29 885.81,385.20 888.75,379.96 891.69,374.72 894.65,369.48 897.59,364.25 900.53,358.85 903.48,353.45 906.42,348.05 909.36,342.65 912.32,335.17 915.26,326.86 918.20,318.55 921.15,310.24 924.09,297.93 927.04,280.27 929.99,262.60 932.93,244.95 935.87,227.52 938.83,211.49 941.77,195.46 944.71,179.43 947.66,163.41 950.60,164.50 953.54,168.47 956.50,172.43 959.44,176.39 962.38,187.11 965.33,202.88 968.28,218.66 971.22,234.44 974.17,249.35 977.11,262.09 980.05,274.83 983.01,287.57 985.95,300.32 988.89,307.27 991.84,314.22 994.78,321.18 997.73,328.14 1000.68,332.71 1003.62,336.34 1006.56,339.97 1009.52,343.60 1012.46,346.80 1015.40,349.43 1018.35,352.05 1021.29,354.68 1024.23,357.38 1027.19,360.55 1030.13,363.71 1033.07,366.88 1036.02,370.04 1038.97,374.46 1041.91,379.09 1044.86,383.71 1047.80,388.34 1050.74,385.10 1053.70,375.96 1056.64,366.83 1059.58,357.69 1062.53,347.76 1065.47,335.84 1068.42,323.93 1071.37,312.01 1074.31,300.09" fill="none" stroke="#000000" stroke-width="3"/>
<line x1="142" y1="100" x2="178" y2="100" stroke="#000000" stroke-width="4"/>
<text x="188" y="105" font-family="Arial" font-size="18" fill="black">vorticity:1</text>
</svg>