<svg xmlns="http://www.w3.org/2000/svg" width="1200" height="820" viewBox="0 0 1200 820">
<rect width="100%" height="100%" fill="white"/>
<text x="600.0" y="36" text-anchor="middle" font-family="Arial" font-size="24" fill="black">profile_diagonal_supply_return: p_rgh</text>
<line x1="120.00" y1="75" x2="120.00" y2="705" stroke="#dddddd" stroke-width="1"/>
<text x="120.00" y="737" text-anchor="middle" font-family="Arial" font-size="16" fill="black">-0.729</text>
<line x1="376.25" y1="75" x2="376.25" y2="705" stroke="#dddddd" stroke-width="1"/>
<text x="376.25" y="737" text-anchor="middle" font-family="Arial" font-size="16" fill="black">1.913</text>
<line x1="632.50" y1="75" x2="632.50" y2="705" stroke="#dddddd" stroke-width="1"/>
<text x="632.50" y="737" text-anchor="middle" font-family="Arial" font-size="16" fill="black">4.555</text>
<line x1="888.75" y1="75" x2="888.75" y2="705" stroke="#dddddd" stroke-width="1"/>
<text x="888.75" y="737" text-anchor="middle" font-family="Arial" font-size="16" fill="black">7.197</text>
<line x1="1145.00" y1="75" x2="1145.00" y2="705" stroke="#dddddd" stroke-width="1"/>
<text x="1145.00" y="737" text-anchor="middle" font-family="Arial" font-size="16" fill="black">9.839</text>
<line x1="120" y1="705.00" x2="1145" y2="705.00" stroke="#dddddd" stroke-width="1"/>
<text x="104" y="710.00" text-anchor="end" font-family="Arial" font-size="16" fill="black">0.013</text>
<line x1="120" y1="547.50" x2="1145" y2="547.50" stroke="#dddddd" stroke-width="1"/>
<text x="104" y="552.50" text-anchor="end" font-family="Arial" font-size="16" fill="black">0.162</text>
<line x1="120" y1="390.00" x2="1145" y2="390.00" stroke="#dddddd" stroke-width="1"/>
<text x="104" y="395.00" text-anchor="end" font-family="Arial" font-size="16" fill="black">0.311</text>
<line x1="120" y1="232.50" x2="1145" y2="232.50" stroke="#dddddd" stroke-width="1"/>
<text x="104" y="237.50" text-anchor="end" font-family="Arial" font-size="16" fill="black">0.460</text>
<line x1="120" y1="75.00" x2="1145" y2="75.00" stroke="#dddddd" stroke-width="1"/>
<text x="104" y="80.00" text-anchor="end" font-family="Arial" font-size="16" fill="black">0.609</text>
<rect x="120" y="75" width="1025" height="630" fill="none" stroke="black" stroke-width="2"/>
<text x="632.5" y="785" text-anchor="middle" font-family="Arial" font-size="20" fill="black">distance along sample line [m]</text>
<text x="34" y="390.0" transform="rotate(-90 34 390.0)" text-anchor="middle" font-family="Arial" font-size="20" fill="black">p_rgh [Pa]</text>
<polyline points="190.69,118.45 193.64,121.33 196.58,124.15 199.53,126.92 202.47,129.63 205.42,133.28 208.36,137.22 211.31,141.33 214.25,145.22 217.20,148.51 220.14,151.12 223.09,154.22 226.03,157.14 228.98,159.82 231.93,161.67 234.87,163.46 237.82,165.23 240.76,166.97 243.71,167.75 246.65,168.37 249.60,169.03 252.54,170.04 255.49,170.58 258.43,170.75 261.38,170.94 264.32,171.06 267.27,171.08 270.22,170.76 273.16,170.43 276.11,170.11 279.05,169.79 282.00,169.68 284.94,169.52 287.88,169.34 290.83,169.13 293.78,169.09 296.73,169.05 299.67,168.79 302.62,168.54 305.57,168.58 308.50,169.01 311.45,169.80 314.40,170.55 317.34,171.31 320.29,172.71 323.24,174.06 326.18,175.40 329.12,176.72 332.07,178.52 335.01,180.61 337.96,182.69 340.91,184.86 343.85,187.24 346.80,189.78 349.74,192.23 352.68,196.04 355.63,200.02 358.58,204.48 361.53,209.01 364.47,213.62 367.42,218.30 370.36,224.30 373.30,230.36 376.25,236.51 379.20,242.76 382.14,248.53 385.09,254.17 388.04,258.29 390.97,262.40 393.92,265.35 396.87,266.68 399.81,267.51 402.76,268.15 405.71,266.90 408.65,261.58 411.59,256.01 414.54,250.18 417.48,244.06 420.43,237.62 423.38,230.50 426.32,223.18 429.27,215.71 432.21,210.80 435.16,207.85 438.10,204.82 441.05,201.57 444.00,199.13 446.94,198.78 449.89,198.42 452.84,198.05 455.77,197.64 458.72,199.80 461.67,201.95 464.61,204.10 467.56,206.26 470.51,209.17 473.45,212.39 476.39,215.62 479.34,218.87 482.28,222.39 485.23,226.17 488.18,230.32 491.12,234.41 494.07,238.57 497.01,242.91 499.96,247.20 502.90,251.44 505.85,255.64 508.80,259.96 511.74,264.34 514.69,268.67 517.63,272.87 520.57,277.12 523.52,281.35 526.47,285.48 529.41,289.61 532.36,293.76 535.31,298.03 538.24,302.15 541.19,306.11 544.14,309.92 547.08,314.11 550.03,318.07 552.98,321.82 555.92,325.34 558.86,329.28 561.81,333.05 564.76,336.75 567.70,340.16 570.65,343.59 573.60,347.00 576.54,349.78 579.49,352.07 582.43,354.95 585.37,357.64 588.32,360.12 591.27,362.36 594.21,364.35 597.16,366.05 600.11,368.90 603.04,371.73 605.99,374.49 608.94,377.22 611.88,379.94 614.83,382.68 617.78,386.73 620.72,390.83 623.66,394.87 626.61,399.01 629.55,403.23 632.50,407.54 635.45,412.57 638.40,417.64 641.34,422.78 644.28,427.99 647.23,432.41 650.17,436.49 653.12,441.75 656.07,446.96 659.01,451.41 661.96,454.78 664.90,457.88 667.84,460.81 670.79,464.35 673.74,466.19 676.68,467.56 679.63,468.46 682.58,468.90 685.51,468.59 688.46,468.21 691.41,467.04 694.35,465.08 697.30,463.46 700.25,462.18 703.20,460.47 706.14,458.05 709.08,455.82 712.03,455.19 714.97,454.31 717.92,453.18 720.87,451.77 723.81,452.32 726.76,452.79 729.70,453.17 732.64,453.46 735.59,454.81 738.54,456.61 741.48,458.03 744.43,459.42 747.38,461.27 750.31,463.76 753.26,466.33 756.21,468.88 759.15,471.11 762.10,474.06 765.05,476.97 767.99,479.84 770.93,482.68 773.88,486.21 776.83,489.36 779.77,492.45 782.72,495.42 785.67,498.88 788.61,502.73 791.55,506.49 794.50,509.68 797.44,513.24 800.39,517.80 803.34,522.26 806.28,526.62 809.23,530.89 812.17,536.73 815.11,542.36 818.06,547.77 821.01,552.99 823.95,560.75 826.90,569.26 829.85,577.06 832.79,584.46 835.73,593.91 838.68,605.90 841.63,616.24 844.57,625.59 847.52,633.75 850.47,641.62 853.41,648.48 856.35,654.35 859.30,659.24 862.24,660.87 865.19,661.21 868.14,661.20 871.08,661.55 874.03,660.00 876.97,657.22 879.91,654.46 882.86,651.53 885.81,648.09 888.75,643.31 891.70,638.96 894.65,635.05 897.58,631.57 900.53,627.23 903.48,623.32 906.43,619.82 909.37,616.74 912.32,613.19 915.27,609.74 918.20,607.14 921.15,604.79 924.10,602.17 927.04,599.03 929.99,595.32 932.94,591.76 935.88,587.85 938.82,582.56 941.77,577.17 944.71,571.68 947.66,566.08 950.61,559.05 953.55,550.74 956.50,542.10 959.44,532.53 962.38,522.58 965.33,512.38 968.28,502.02 971.22,490.10 974.17,478.48 977.12,468.36 980.06,458.42 983.00,448.68 985.95,439.16 988.90,430.96 991.84,423.37 994.79,416.44 997.74,410.22 1000.68,404.14 1003.62,398.14 1006.57,390.55 1009.51,383.47 1012.46,376.67 1015.41,369.82 1018.35,364.31 1021.30,358.17 1024.24,350.83 1027.18,345.56 1030.13,340.44 1033.08,335.46 1036.02,330.59 1038.97,326.64 1041.92,321.15 1044.86,315.48 1047.80,308.25 1050.75,302.69 1053.70,298.45 1056.64,294.29 1059.59,291.53 1062.54,289.15 1065.47,287.95 1068.42,286.76 1071.37,285.56 1074.31,284.37" fill="none" stroke="#000000" stroke-width="3"/>
<line x1="142" y1="100" x2="178" y2="100" stroke="#000000" stroke-width="4"/>
<text x="188" y="105" font-family="Arial" font-size="18" fill="black">p_rgh</text>
</svg>