<svg xmlns="http://www.w3.org/2000/svg" width="1200" height="820" viewBox="0 0 1200 820">
<rect width="100%" height="100%" fill="white"/>
<text x="600.0" y="36" text-anchor="middle" font-family="Arial" font-size="24" fill="black">profile_near_floor_x: velocity magnitude</text>
<line x1="120.00" y1="75" x2="120.00" y2="705" stroke="#dddddd" stroke-width="1"/>
<text x="120.00" y="737" text-anchor="middle" font-family="Arial" font-size="16" fill="black">-0.560</text>
<line x1="376.25" y1="75" x2="376.25" y2="705" stroke="#dddddd" stroke-width="1"/>
<text x="376.25" y="737" text-anchor="middle" font-family="Arial" font-size="16" fill="black">1.470</text>
<line x1="632.50" y1="75" x2="632.50" y2="705" stroke="#dddddd" stroke-width="1"/>
<text x="632.50" y="737" text-anchor="middle" font-family="Arial" font-size="16" fill="black">3.500</text>
<line x1="888.75" y1="75" x2="888.75" y2="705" stroke="#dddddd" stroke-width="1"/>
<text x="888.75" y="737" text-anchor="middle" font-family="Arial" font-size="16" fill="black">5.530</text>
<line x1="1145.00" y1="75" x2="1145.00" y2="705" stroke="#dddddd" stroke-width="1"/>
<text x="1145.00" y="737" text-anchor="middle" font-family="Arial" font-size="16" fill="black">7.560</text>
<line x1="120" y1="705.00" x2="1145" y2="705.00" stroke="#dddddd" stroke-width="1"/>
<text x="104" y="710.00" text-anchor="end" font-family="Arial" font-size="16" fill="black">-0.015</text>
<line x1="120" y1="547.50" x2="1145" y2="547.50" stroke="#dddddd" stroke-width="1"/>
<text x="104" y="552.50" text-anchor="end" font-family="Arial" font-size="16" fill="black">0.107</text>
<line x1="120" y1="390.00" x2="1145" y2="390.00" stroke="#dddddd" stroke-width="1"/>
<text x="104" y="395.00" text-anchor="end" font-family="Arial" font-size="16" fill="black">0.229</text>
<line x1="120" y1="232.50" x2="1145" y2="232.50" stroke="#dddddd" stroke-width="1"/>
<text x="104" y="237.50" text-anchor="end" font-family="Arial" font-size="16" fill="black">0.350</text>
<line x1="120" y1="75.00" x2="1145" y2="75.00" stroke="#dddddd" stroke-width="1"/>
<text x="104" y="80.00" text-anchor="end" font-family="Arial" font-size="16" fill="black">0.472</text>
<rect x="120" y="75" width="1025" height="630" fill="none" stroke="black" stroke-width="2"/>
<text x="632.5" y="785" text-anchor="middle" font-family="Arial" font-size="20" fill="black">x coordinate [m]</text>
<text x="34" y="390.0" transform="rotate(-90 34 390.0)" text-anchor="middle" font-family="Arial" font-size="20" fill="black">|U| [m/s]</text>
<polyline points="190.69,568.79 193.64,573.08 196.58,577.37 199.53,581.66 202.47,585.95 205.42,589.30 208.36,592.28 211.31,595.25 214.25,598.23 217.20,599.03 220.14,596.93 223.09,594.84 226.03,592.74 228.98,589.88 231.93,582.42 234.87,574.95 237.82,567.49 240.76,560.03 243.71,550.34 246.65,540.27 249.60,530.21 252.54,520.15 255.49,510.70 258.43,501.73 261.38,492.75 264.32,483.77 267.27,476.15 270.22,471.94 273.16,467.72 276.11,463.51 279.05,459.30 282.00,464.69 284.94,470.09 287.89,475.48 290.83,480.87 293.78,483.31 296.72,484.56 299.67,485.82 302.62,487.07 305.56,469.00 308.51,425.15 311.45,381.30 314.40,337.45 317.34,295.06 320.29,261.45 323.23,227.84 326.17,194.24 329.13,160.63 332.07,151.07 335.01,145.52 337.96,139.97 340.91,134.42 343.85,130.94 346.80,129.03 349.74,127.12 352.68,125.20 355.64,123.56 358.58,122.60 361.52,121.66 364.47,120.71 367.41,119.77 370.35,119.43 373.31,119.11 376.25,118.77 379.19,118.45 382.15,118.50 385.09,118.69 388.03,118.89 390.98,119.08 393.92,120.19 396.86,122.54 399.82,124.88 402.76,127.22 405.70,135.10 408.65,176.11 411.59,217.13 414.54,258.16 417.49,299.18 420.43,356.89 423.37,417.37 426.33,477.86 429.27,538.35 432.21,562.98 435.16,560.72 438.10,558.45 441.04,556.20 444.00,552.99 446.94,547.41 449.88,541.84 452.83,536.26 455.78,530.70 458.72,536.50 461.67,542.29 464.61,548.10 467.55,553.89 470.51,562.40 473.45,571.99 476.39,581.57 479.34,591.16 482.28,601.11 485.23,611.54 488.18,621.98 491.12,632.41 494.06,642.05 497.02,646.93 499.96,651.80 502.90,656.68 505.85,661.55 508.79,653.72 511.73,643.77 514.69,633.83 517.63,623.88 520.57,611.52 523.52,597.35 526.47,583.19 529.41,569.02 532.36,556.04 535.30,546.02 538.24,536.01 541.20,525.98 544.14,515.96 547.08,519.10 550.03,522.23 552.97,525.36 555.92,528.50 558.87,534.40 561.81,541.41 564.75,548.42 567.71,555.43 570.65,535.29 573.59,478.93 576.54,422.59 579.48,366.23 582.42,312.18 585.38,272.02 588.32,231.85 591.26,191.68 594.21,151.51 597.16,143.19 600.10,140.19 603.05,137.18 605.99,134.18 608.93,132.66 611.89,132.29 614.83,131.90 617.77,131.53 620.72,131.34 623.66,131.69 626.60,132.04 629.56,132.39 632.50,132.73 635.44,133.88 638.40,135.02 641.34,136.17 644.28,137.31 647.23,139.35 650.17,141.76 653.11,144.16 656.07,146.57 659.01,150.86 661.95,157.69 664.90,164.52 667.84,171.37 670.79,181.08 673.74,208.13 676.68,235.18 679.62,262.23 682.58,289.27 685.52,321.30 688.46,354.16 691.41,387.03 694.35,419.88 697.29,437.46 700.25,443.58 703.19,449.70 706.13,455.82 709.08,460.90 712.03,463.37 714.97,465.84 717.92,468.31 720.86,470.78 723.80,480.09 726.76,489.39 729.70,498.70 732.64,508.00 735.59,518.75 738.53,530.07 741.48,541.39 744.43,552.70 747.37,563.95 750.31,575.08 753.27,586.21 756.21,597.34 759.15,607.69 762.10,613.38 765.04,619.07 767.98,624.76 770.94,630.46 773.88,625.23 776.82,618.19 779.77,611.14 782.72,604.10 785.66,593.34 788.61,579.79 791.55,566.24 794.49,552.69 797.45,539.96 800.39,529.28 803.33,518.59 806.28,507.91 809.22,497.21 812.17,493.84 815.12,490.46 818.06,487.07 821.00,483.69 823.96,483.09 826.90,483.60 829.84,484.11 832.79,484.63 835.73,469.39 838.67,433.17 841.63,396.95 844.57,360.73 847.51,325.09 850.46,292.90 853.41,260.71 856.35,228.52 859.30,196.33 862.24,185.80 865.18,178.88 868.14,171.96 871.08,165.04 874.02,160.80 876.97,158.56 879.91,156.31 882.85,154.07 885.81,152.22 888.75,151.33 891.69,150.44 894.65,149.56 897.59,148.67 900.53,148.36 903.48,148.04 906.42,147.73 909.36,147.42 912.32,147.70 915.26,148.20 918.20,148.72 921.15,149.22 924.09,151.50 927.04,156.12 929.99,160.73 932.93,165.35 935.87,171.83 938.83,189.46 941.77,207.11 944.71,224.74 947.66,242.37 950.60,259.83 953.54,277.26 956.50,294.68 959.44,312.11 962.38,322.03 965.33,326.33 968.28,330.65 971.22,334.96 974.17,336.02 977.11,329.00 980.05,321.96 983.01,314.93 985.95,307.89 988.89,301.15 991.84,294.41 994.78,287.67 997.73,280.93 1000.68,276.44 1003.62,272.85 1006.56,269.26 1009.52,265.67 1012.46,263.16 1015.40,262.11 1018.35,261.05 1021.29,259.99 1024.23,258.95 1027.19,258.06 1030.13,257.16 1033.07,256.26 1036.02,255.37 1038.97,251.75 1041.91,247.69 1044.86,243.62 1047.80,239.55 1050.74,232.44 1053.70,223.03 1056.64,213.63 1059.58,204.21 1062.53,195.75 1065.47,189.63 1068.42,183.50 1071.37,177.38 1074.31,171.26" fill="none" stroke="#000000" stroke-width="3"/>
<line x1="142" y1="100" x2="178" y2="100" stroke="#000000" stroke-width="4"/>
<text x="188" y="105" font-family="Arial" font-size="18" fill="black">|U|</text>
</svg>