<svg xmlns="http://www.w3.org/2000/svg" width="1200" height="820" viewBox="0 0 1200 820">
<rect width="100%" height="100%" fill="white"/>
<text x="600.0" y="36" text-anchor="middle" font-family="Arial" font-size="24" fill="black">profile_near_floor_x: rho</text>
<line x1="120.00" y1="75" x2="120.00" y2="705" stroke="#dddddd" stroke-width="1"/>
<text x="120.00" y="737" text-anchor="middle" font-family="Arial" font-size="16" fill="black">-0.560</text>
<line x1="376.25" y1="75" x2="376.25" y2="705" stroke="#dddddd" stroke-width="1"/>
<text x="376.25" y="737" text-anchor="middle" font-family="Arial" font-size="16" fill="black">1.470</text>
<line x1="632.50" y1="75" x2="632.50" y2="705" stroke="#dddddd" stroke-width="1"/>
<text x="632.50" y="737" text-anchor="middle" font-family="Arial" font-size="16" fill="black">3.500</text>
<line x1="888.75" y1="75" x2="888.75" y2="705" stroke="#dddddd" stroke-width="1"/>
<text x="888.75" y="737" text-anchor="middle" font-family="Arial" font-size="16" fill="black">5.530</text>
<line x1="1145.00" y1="75" x2="1145.00" y2="705" stroke="#dddddd" stroke-width="1"/>
<text x="1145.00" y="737" text-anchor="middle" font-family="Arial" font-size="16" fill="black">7.560</text>
<line x1="120" y1="705.00" x2="1145" y2="705.00" stroke="#dddddd" stroke-width="1"/>
<text x="104" y="710.00" text-anchor="end" font-family="Arial" font-size="16" fill="black">1.140</text>
<line x1="120" y1="547.50" x2="1145" y2="547.50" stroke="#dddddd" stroke-width="1"/>
<text x="104" y="552.50" text-anchor="end" font-family="Arial" font-size="16" fill="black">1.164</text>
<line x1="120" y1="390.00" x2="1145" y2="390.00" stroke="#dddddd" stroke-width="1"/>
<text x="104" y="395.00" text-anchor="end" font-family="Arial" font-size="16" fill="black">1.189</text>
<line x1="120" y1="232.50" x2="1145" y2="232.50" stroke="#dddddd" stroke-width="1"/>
<text x="104" y="237.50" text-anchor="end" font-family="Arial" font-size="16" fill="black">1.214</text>
<line x1="120" y1="75.00" x2="1145" y2="75.00" stroke="#dddddd" stroke-width="1"/>
<text x="104" y="80.00" text-anchor="end" font-family="Arial" font-size="16" fill="black">1.239</text>
<rect x="120" y="75" width="1025" height="630" fill="none" stroke="black" stroke-width="2"/>
<text x="632.5" y="785" text-anchor="middle" font-family="Arial" font-size="20" fill="black">x coordinate [m]</text>
<text x="34" y="390.0" transform="rotate(-90 34 390.0)" text-anchor="middle" font-family="Arial" font-size="20" fill="black">rho [kg/m3]</text>
<polyline points="190.69,443.68 193.64,443.05 196.58,443.05 199.53,442.42 202.47,442.42 205.42,441.78 208.36,440.52 211.31,439.26 214.25,438.00 217.20,436.10 220.14,432.94 223.09,429.15 226.03,426.00 228.98,422.84 231.93,417.16 234.87,412.10 237.82,406.42 240.76,400.74 243.71,393.79 246.65,385.58 249.60,378.00 252.54,370.42 255.49,360.95 258.43,350.85 261.38,340.11 264.32,330.01 267.27,318.64 270.22,305.38 273.16,292.12 276.11,278.85 279.05,265.59 282.00,251.07 284.94,236.54 287.89,222.02 290.83,206.86 293.78,194.23 296.72,181.60 299.67,169.60 302.62,157.60 305.56,147.50 308.51,141.81 311.45,135.50 314.40,129.82 317.34,124.13 320.29,122.87 323.23,121.61 326.17,120.34 329.13,119.08 332.07,119.08 335.01,118.45 337.96,118.45 340.91,118.45 343.85,118.45 346.80,118.45 349.74,118.45 352.68,118.45 355.64,118.45 358.58,118.45 361.52,118.45 364.47,118.45 367.41,118.45 370.35,118.45 373.31,118.45 376.25,118.45 379.19,118.45 382.15,118.45 385.09,118.45 388.03,118.45 390.98,118.45 393.92,118.45 396.86,118.45 399.82,118.45 402.76,118.45 405.70,119.08 408.65,120.34 411.59,121.61 414.54,122.87 417.49,124.76 420.43,129.18 423.37,134.24 426.33,139.92 429.27,144.97 432.21,153.18 435.16,163.29 438.10,174.02 441.04,184.13 444.00,194.86 446.94,207.49 449.88,220.12 452.83,232.75 455.78,245.38 458.72,255.49 461.67,264.96 464.61,275.06 467.55,284.54 470.51,291.48 473.45,297.17 476.39,302.22 479.34,307.90 482.28,311.69 485.23,314.22 488.18,316.74 491.12,318.64 494.06,320.53 497.02,320.53 499.96,319.90 502.90,319.90 505.85,319.27 508.79,316.11 511.73,312.32 514.69,308.53 517.63,305.38 520.57,299.69 523.52,292.12 526.47,285.17 529.41,277.59 532.36,269.38 535.30,258.01 538.24,247.28 541.20,236.54 544.14,225.81 547.08,213.81 550.03,201.81 552.97,189.81 555.92,177.81 558.87,168.34 561.81,159.50 564.75,151.29 567.71,142.45 570.65,136.13 573.59,132.34 576.54,129.18 579.48,125.39 582.42,122.24 585.38,121.61 588.32,120.34 591.26,119.71 594.21,119.08 597.16,118.45 600.10,118.45 603.05,118.45 605.99,118.45 608.93,118.45 611.89,118.45 614.83,118.45 617.77,118.45 620.72,118.45 623.66,118.45 626.60,118.45 629.56,118.45 632.50,118.45 635.44,118.45 638.40,118.45 641.34,118.45 644.28,118.45 647.23,118.45 650.17,118.45 653.11,118.45 656.07,118.45 659.01,118.45 661.95,118.45 664.90,119.08 667.84,119.08 670.79,119.71 673.74,122.24 676.68,124.76 679.62,127.29 682.58,130.45 685.52,139.29 688.46,150.02 691.41,160.13 694.35,170.86 697.29,185.39 700.25,202.44 703.19,220.12 706.13,237.17 709.08,254.86 712.03,271.28 714.97,287.69 717.92,304.11 720.86,320.53 723.80,331.27 726.76,342.00 729.70,353.37 732.64,364.11 735.59,371.69 738.53,378.00 741.48,383.68 744.43,390.00 747.37,395.05 750.31,397.58 753.27,400.74 756.21,403.26 759.15,405.79 762.10,405.16 765.04,404.52 767.98,404.52 770.94,403.89 773.88,400.10 776.82,396.32 779.77,392.53 782.72,388.74 785.66,382.42 788.61,374.84 791.55,367.27 794.49,359.06 797.45,350.21 800.39,338.22 803.33,326.22 806.28,314.22 809.22,302.22 812.17,286.43 815.12,271.28 818.06,256.12 821.00,240.33 823.96,225.17 826.90,210.65 829.84,195.49 832.79,180.34 835.73,168.34 838.67,158.87 841.63,149.39 844.57,139.92 847.51,131.08 850.46,128.55 853.41,125.39 856.35,122.24 859.30,119.71 862.24,119.08 865.18,119.08 868.14,118.45 871.08,118.45 874.02,118.45 876.97,118.45 879.91,118.45 882.85,118.45 885.81,118.45 888.75,118.45 891.69,118.45 894.65,118.45 897.59,118.45 900.53,118.45 903.48,118.45 906.42,118.45 909.36,118.45 912.32,118.45 915.26,118.45 918.20,119.08 921.15,119.08 924.09,119.71 927.04,120.34 929.99,121.61 932.93,122.24 935.87,125.39 938.83,140.55 941.77,155.08 944.71,169.60 947.66,184.76 950.60,213.18 953.54,243.49 956.50,273.80 959.44,304.75 962.38,333.80 965.33,362.21 968.28,390.00 971.22,418.42 974.17,444.31 977.11,463.26 980.05,482.20 983.01,501.15 985.95,520.72 988.89,532.72 991.84,545.35 994.78,557.35 997.73,569.35 1000.68,578.82 1003.62,586.40 1006.56,593.98 1009.52,602.19 1012.46,608.50 1015.40,613.56 1018.35,617.98 1021.29,623.03 1024.23,628.08 1027.19,631.24 1030.13,634.40 1033.07,637.55 1036.02,640.71 1038.97,643.24 1041.91,645.76 1044.86,648.29 1047.80,650.18 1050.74,652.08 1053.70,653.97 1056.64,655.87 1059.58,657.13 1062.53,659.03 1065.47,659.66 1068.42,660.29 1071.37,660.92 1074.31,661.55" fill="none" stroke="#000000" stroke-width="3"/>
<line x1="142" y1="100" x2="178" y2="100" stroke="#000000" stroke-width="4"/>
<text x="188" y="105" font-family="Arial" font-size="18" fill="black">rho</text>
</svg>