<svg xmlns="http://www.w3.org/2000/svg" width="1200" height="820" viewBox="0 0 1200 820">
<rect width="100%" height="100%" fill="white"/>
<text x="600.0" y="36" text-anchor="middle" font-family="Arial" font-size="24" fill="black">profile_near_floor_x: k</text>
<line x1="120.00" y1="75" x2="120.00" y2="705" stroke="#dddddd" stroke-width="1"/>
<text x="120.00" y="737" text-anchor="middle" font-family="Arial" font-size="16" fill="black">-0.560</text>
<line x1="376.25" y1="75" x2="376.25" y2="705" stroke="#dddddd" stroke-width="1"/>
<text x="376.25" y="737" text-anchor="middle" font-family="Arial" font-size="16" fill="black">1.470</text>
<line x1="632.50" y1="75" x2="632.50" y2="705" stroke="#dddddd" stroke-width="1"/>
<text x="632.50" y="737" text-anchor="middle" font-family="Arial" font-size="16" fill="black">3.500</text>
<line x1="888.75" y1="75" x2="888.75" y2="705" stroke="#dddddd" stroke-width="1"/>
<text x="888.75" y="737" text-anchor="middle" font-family="Arial" font-size="16" fill="black">5.530</text>
<line x1="1145.00" y1="75" x2="1145.00" y2="705" stroke="#dddddd" stroke-width="1"/>
<text x="1145.00" y="737" text-anchor="middle" font-family="Arial" font-size="16" fill="black">7.560</text>
<line x1="120" y1="705.00" x2="1145" y2="705.00" stroke="#dddddd" stroke-width="1"/>
<text x="104" y="710.00" text-anchor="end" font-family="Arial" font-size="16" fill="black">8.10e-04</text>
<line x1="120" y1="547.50" x2="1145" y2="547.50" stroke="#dddddd" stroke-width="1"/>
<text x="104" y="552.50" text-anchor="end" font-family="Arial" font-size="16" fill="black">0.005</text>
<line x1="120" y1="390.00" x2="1145" y2="390.00" stroke="#dddddd" stroke-width="1"/>
<text x="104" y="395.00" text-anchor="end" font-family="Arial" font-size="16" fill="black">0.009</text>
<line x1="120" y1="232.50" x2="1145" y2="232.50" stroke="#dddddd" stroke-width="1"/>
<text x="104" y="237.50" text-anchor="end" font-family="Arial" font-size="16" fill="black">0.014</text>
<line x1="120" y1="75.00" x2="1145" y2="75.00" stroke="#dddddd" stroke-width="1"/>
<text x="104" y="80.00" text-anchor="end" font-family="Arial" font-size="16" fill="black">0.018</text>
<rect x="120" y="75" width="1025" height="630" fill="none" stroke="black" stroke-width="2"/>
<text x="632.5" y="785" text-anchor="middle" font-family="Arial" font-size="20" fill="black">x coordinate [m]</text>
<text x="34" y="390.0" transform="rotate(-90 34 390.0)" text-anchor="middle" font-family="Arial" font-size="20" fill="black">k [m2/s2]</text>
<polyline points="190.69,661.55 193.64,657.30 196.58,653.05 199.53,648.80 202.47,644.55 205.42,636.71 208.36,627.45 211.31,618.18 214.25,608.91 217.20,600.16 220.14,592.12 223.09,584.08 226.03,576.03 228.98,568.31 231.93,562.48 234.87,556.65 237.82,550.83 240.76,545.00 243.71,539.10 246.65,533.17 249.60,527.25 252.54,521.33 255.49,516.03 258.43,511.18 261.38,506.34 264.32,501.50 267.27,497.97 270.22,497.75 273.16,497.54 276.11,497.32 279.05,497.10 282.00,501.08 284.94,505.06 287.89,509.04 290.83,513.02 293.78,513.40 296.72,512.35 299.67,511.29 302.62,510.24 305.56,506.00 308.51,497.51 311.45,489.03 314.40,480.55 317.34,472.67 320.29,468.46 323.23,464.24 326.17,460.03 329.13,455.81 332.07,456.09 335.01,457.10 337.96,458.12 340.91,459.14 343.85,459.80 346.80,460.20 349.74,460.59 352.68,460.99 355.64,461.31 358.58,461.46 361.52,461.60 364.47,461.75 367.41,461.89 370.35,461.91 373.31,461.93 376.25,461.94 379.19,461.96 382.15,461.89 385.09,461.79 388.03,461.69 390.98,461.60 393.92,461.56 396.86,461.61 399.82,461.66 402.76,461.70 405.70,462.92 408.65,471.15 411.59,479.38 414.54,487.61 417.49,495.84 420.43,505.62 423.37,515.67 426.33,525.72 429.27,535.76 432.21,537.19 435.16,532.15 438.10,527.11 441.04,522.07 444.00,514.47 446.94,500.47 449.88,486.47 452.83,472.47 455.78,458.47 458.72,447.68 461.67,436.89 464.61,426.10 467.55,415.31 470.51,409.18 473.45,404.91 476.39,400.65 479.34,396.38 482.28,393.98 485.23,394.05 488.18,394.13 491.12,394.20 494.06,393.77 497.02,390.34 499.96,386.91 502.90,383.49 505.85,380.06 508.79,372.04 511.73,363.26 514.69,354.45 517.63,345.68 520.57,338.25 523.52,331.87 526.47,325.45 529.41,319.07 532.36,315.63 535.30,319.54 538.24,323.46 541.20,327.41 544.14,331.32 547.08,348.91 550.03,366.53 552.97,384.13 555.92,401.74 558.87,419.10 561.81,436.36 564.75,453.63 567.71,470.90 570.65,480.62 573.59,480.27 576.54,479.93 579.48,479.58 582.42,478.53 585.38,473.29 588.32,468.05 591.26,462.81 594.21,457.57 597.16,457.16 600.10,457.55 603.05,457.95 605.99,458.34 608.93,458.58 611.89,458.71 614.83,458.84 617.77,458.97 620.72,459.05 623.66,458.98 626.60,458.92 629.56,458.85 632.50,458.78 635.44,458.50 638.40,458.22 641.34,457.94 644.28,457.66 647.23,457.10 650.17,456.43 653.11,455.76 656.07,455.08 659.01,453.93 661.95,452.13 664.90,450.34 667.84,448.54 670.79,447.16 673.74,448.21 676.68,449.27 679.62,450.32 682.58,451.37 685.52,452.79 688.46,454.27 691.41,455.76 694.35,457.23 697.29,451.64 700.25,440.75 703.19,429.85 706.13,418.96 709.08,406.10 712.03,388.35 714.97,370.62 717.92,352.86 720.86,335.13 723.80,324.47 726.76,313.81 729.70,303.16 732.64,292.50 735.59,287.93 738.53,285.79 741.48,283.69 744.43,281.55 747.37,279.63 750.31,278.00 753.27,276.37 756.21,274.73 759.15,271.73 762.10,260.56 765.04,249.39 767.98,238.23 770.94,227.06 773.88,212.27 776.82,196.83 779.77,181.38 782.72,165.98 785.66,153.87 788.61,144.30 791.55,134.73 794.49,125.16 797.45,118.45 800.39,118.88 803.33,119.28 806.28,119.72 809.22,120.15 812.17,137.19 815.12,154.19 818.06,171.23 821.00,188.23 823.96,213.72 826.90,242.58 829.84,271.44 832.79,300.29 835.73,325.27 838.67,345.14 841.63,365.00 844.57,384.89 847.51,402.96 850.46,410.29 853.41,417.61 856.35,424.93 859.30,432.25 862.24,436.20 865.18,439.59 868.14,442.97 871.08,446.36 874.02,448.37 876.97,449.36 879.91,450.34 882.85,451.33 885.81,452.08 888.75,452.28 891.69,452.47 894.65,452.66 897.59,452.86 900.53,452.65 903.48,452.45 906.42,452.24 909.36,452.04 912.32,451.55 915.26,450.96 918.20,450.37 921.15,449.78 924.09,448.88 927.04,447.57 929.99,446.25 932.93,444.93 935.87,444.23 938.83,447.22 941.77,450.21 944.71,453.19 947.66,456.18 950.60,463.44 953.54,471.42 956.50,479.41 959.44,487.39 962.38,492.65 965.33,495.89 968.28,499.12 971.22,502.35 974.17,503.46 977.11,499.28 980.05,495.09 983.01,490.90 985.95,486.72 988.89,480.61 991.84,474.51 994.78,468.40 997.73,462.29 1000.68,458.06 1003.62,454.59 1006.56,451.11 1009.52,447.64 1012.46,445.91 1015.40,446.50 1018.35,447.10 1021.29,447.69 1024.23,448.83 1027.19,453.19 1030.13,457.56 1033.07,461.93 1036.02,466.30 1038.97,474.24 1041.91,482.77 1044.86,491.30 1047.80,499.84 1050.74,510.89 1053.70,523.84 1056.64,536.79 1059.58,549.74 1062.53,561.12 1065.47,568.60 1068.42,576.08 1071.37,583.56 1074.31,591.04" fill="none" stroke="#000000" stroke-width="3"/>
<line x1="142" y1="100" x2="178" y2="100" stroke="#000000" stroke-width="4"/>
<text x="188" y="105" font-family="Arial" font-size="18" fill="black">k</text>
</svg>