<svg xmlns="http://www.w3.org/2000/svg" width="1200" height="820" viewBox="0 0 1200 820">
<rect width="100%" height="100%" fill="white"/>
<text x="600.0" y="36" text-anchor="middle" font-family="Arial" font-size="24" fill="black">profile_near_ceiling_x: velocity magnitude</text>
<line x1="120.00" y1="75" x2="120.00" y2="705" stroke="#dddddd" stroke-width="1"/>
<text x="120.00" y="737" text-anchor="middle" font-family="Arial" font-size="16" fill="black">-0.560</text>
<line x1="376.25" y1="75" x2="376.25" y2="705" stroke="#dddddd" stroke-width="1"/>
<text x="376.25" y="737" text-anchor="middle" font-family="Arial" font-size="16" fill="black">1.470</text>
<line x1="632.50" y1="75" x2="632.50" y2="705" stroke="#dddddd" stroke-width="1"/>
<text x="632.50" y="737" text-anchor="middle" font-family="Arial" font-size="16" fill="black">3.500</text>
<line x1="888.75" y1="75" x2="888.75" y2="705" stroke="#dddddd" stroke-width="1"/>
<text x="888.75" y="737" text-anchor="middle" font-family="Arial" font-size="16" fill="black">5.530</text>
<line x1="1145.00" y1="75" x2="1145.00" y2="705" stroke="#dddddd" stroke-width="1"/>
<text x="1145.00" y="737" text-anchor="middle" font-family="Arial" font-size="16" fill="black">7.560</text>
<line x1="120" y1="705.00" x2="1145" y2="705.00" stroke="#dddddd" stroke-width="1"/>
<text x="104" y="710.00" text-anchor="end" font-family="Arial" font-size="16" fill="black">0.022</text>
<line x1="120" y1="547.50" x2="1145" y2="547.50" stroke="#dddddd" stroke-width="1"/>
<text x="104" y="552.50" text-anchor="end" font-family="Arial" font-size="16" fill="black">0.094</text>
<line x1="120" y1="390.00" x2="1145" y2="390.00" stroke="#dddddd" stroke-width="1"/>
<text x="104" y="395.00" text-anchor="end" font-family="Arial" font-size="16" fill="black">0.167</text>
<line x1="120" y1="232.50" x2="1145" y2="232.50" stroke="#dddddd" stroke-width="1"/>
<text x="104" y="237.50" text-anchor="end" font-family="Arial" font-size="16" fill="black">0.239</text>
<line x1="120" y1="75.00" x2="1145" y2="75.00" stroke="#dddddd" stroke-width="1"/>
<text x="104" y="80.00" text-anchor="end" font-family="Arial" font-size="16" fill="black">0.311</text>
<rect x="120" y="75" width="1025" height="630" fill="none" stroke="black" stroke-width="2"/>
<text x="632.5" y="785" text-anchor="middle" font-family="Arial" font-size="20" fill="black">x coordinate [m]</text>
<text x="34" y="390.0" transform="rotate(-90 34 390.0)" text-anchor="middle" font-family="Arial" font-size="20" fill="black">|U| [m/s]</text>
<polyline points="190.69,513.28 193.64,505.23 196.58,497.20 199.53,489.17 202.47,481.12 205.42,464.12 208.36,443.54 211.31,422.95 214.25,402.37 217.20,381.20 220.14,359.24 223.09,337.29 226.03,315.33 228.98,293.83 231.93,275.18 234.87,256.54 237.82,237.87 240.76,219.22 243.71,204.88 246.65,191.26 249.60,177.66 252.54,164.03 255.49,153.83 258.43,146.15 261.38,138.47 264.32,130.79 267.27,124.85 270.22,123.26 273.16,121.65 276.11,120.06 279.05,118.45 282.00,122.63 284.94,126.80 287.89,130.98 290.83,135.18 293.78,143.10 296.72,152.55 299.67,161.97 302.62,171.39 305.56,182.81 308.51,196.85 311.45,210.91 314.40,224.94 317.34,239.54 320.29,257.41 323.23,275.27 326.17,293.14 329.13,311.00 332.07,331.30 335.01,352.00 337.96,372.69 340.91,393.38 343.85,414.95 346.80,437.16 349.74,459.36 352.68,481.55 355.64,503.57 358.58,525.07 361.52,546.58 364.47,568.09 367.41,589.59 370.35,604.74 373.31,619.89 376.25,635.03 379.19,650.18 382.15,655.86 385.09,657.76 388.03,659.65 390.98,661.55 393.92,658.72 396.86,649.58 399.82,640.43 402.76,631.29 405.70,621.83 408.65,610.47 411.59,599.11 414.54,587.74 417.49,576.38 420.43,566.43 423.37,556.72 426.33,547.01 429.27,537.29 432.21,528.95 435.16,521.61 438.10,514.28 441.04,506.95 444.00,500.22 446.94,495.00 449.88,489.78 452.83,484.58 455.78,479.36 458.72,475.39 461.67,471.41 464.61,467.45 467.55,463.49 470.51,459.90 473.45,456.46 476.39,453.05 479.34,449.61 482.28,446.41 485.23,443.52 488.18,440.62 491.12,437.75 494.06,434.97 497.02,432.90 499.96,430.85 502.90,428.79 505.85,426.72 508.79,425.11 511.73,423.56 514.69,422.04 517.63,420.50 520.57,419.12 523.52,417.84 526.47,416.58 529.41,415.32 532.36,414.27 535.30,413.79 538.24,413.31 541.20,412.84 544.14,412.36 547.08,413.55 550.03,414.75 552.97,415.95 555.92,417.12 558.87,419.91 561.81,423.35 564.75,426.76 567.71,430.20 570.65,434.60 573.59,440.27 576.54,445.98 579.48,451.68 582.42,457.60 585.38,464.91 588.32,472.20 591.26,479.51 594.21,486.82 597.16,494.06 600.10,501.31 603.05,508.58 605.99,515.82 608.93,521.26 611.89,525.38 614.83,529.47 617.77,533.58 620.72,535.83 623.66,533.47 626.60,531.12 629.56,528.77 632.50,526.42 635.44,517.85 638.40,509.25 641.34,500.66 644.28,492.08 647.23,481.03 650.17,469.00 653.11,456.99 656.07,444.95 659.01,432.31 661.95,418.86 664.90,405.39 667.84,391.95 670.79,378.50 673.74,365.16 676.68,351.82 679.62,338.48 682.58,325.17 685.52,312.89 688.46,300.79 691.41,288.72 694.35,276.64 697.29,265.63 700.25,255.47 703.19,245.31 706.13,235.12 709.08,225.61 712.03,217.72 714.97,209.84 717.92,201.94 720.86,194.06 723.80,188.58 726.76,183.12 729.70,177.66 732.64,172.17 735.59,168.43 738.53,165.34 741.48,162.25 744.43,159.18 747.37,157.05 750.31,156.20 753.27,155.35 756.21,154.50 759.15,153.94 762.10,155.07 765.04,156.22 767.98,157.38 770.94,158.51 773.88,161.12 776.82,163.95 779.77,166.78 782.72,169.63 785.66,173.20 788.61,177.35 791.55,181.51 794.49,185.64 797.45,190.04 800.39,195.04 803.33,200.05 806.28,205.05 809.22,210.06 812.17,215.37 815.12,220.68 818.06,225.98 821.00,231.29 823.96,236.36 826.90,241.33 829.84,246.31 832.79,251.27 835.73,255.82 838.67,259.82 841.63,263.80 844.57,267.79 847.51,271.57 850.46,274.07 853.41,276.60 856.35,279.10 859.30,281.60 862.24,282.78 865.18,283.71 868.14,284.67 871.08,285.61 874.02,285.76 876.97,285.32 879.91,284.89 882.85,284.43 885.81,283.60 888.75,281.80 891.69,279.99 894.65,278.19 897.59,276.38 900.53,273.20 903.48,270.03 906.42,266.87 909.36,263.69 912.32,259.95 915.26,255.95 918.20,251.97 921.15,247.96 924.09,244.02 927.04,240.17 929.99,236.30 932.93,232.45 935.87,228.73 938.83,225.90 941.77,223.05 944.71,220.22 947.66,217.37 950.60,215.91 953.54,214.69 956.50,213.47 959.44,212.23 962.38,212.10 965.33,212.80 968.28,213.47 971.22,214.17 974.17,215.41 977.11,218.06 980.05,220.74 983.01,223.40 985.95,226.05 988.89,230.53 991.84,234.99 994.78,239.48 997.73,243.96 1000.68,249.46 1003.62,255.38 1006.56,261.32 1009.52,267.24 1012.46,273.51 1015.40,280.19 1018.35,286.89 1021.29,293.57 1024.23,300.25 1027.19,306.91 1030.13,313.55 1033.07,320.20 1036.02,326.84 1038.97,333.43 1041.91,340.03 1044.86,346.60 1047.80,353.19 1050.74,361.16 1053.70,370.19 1056.64,379.22 1059.58,388.23 1062.53,396.23 1065.47,401.69 1068.42,407.13 1071.37,412.60 1074.31,418.04" fill="none" stroke="#000000" stroke-width="3"/>
<line x1="142" y1="100" x2="178" y2="100" stroke="#000000" stroke-width="4"/>
<text x="188" y="105" font-family="Arial" font-size="18" fill="black">|U|</text>
</svg>