<svg xmlns="http://www.w3.org/2000/svg" width="1200" height="820" viewBox="0 0 1200 820">
<rect width="100%" height="100%" fill="white"/>
<text x="600.0" y="36" text-anchor="middle" font-family="Arial" font-size="24" fill="black">profile_diagonal_supply_return: U:2</text>
<line x1="120.00" y1="75" x2="120.00" y2="705" stroke="#dddddd" stroke-width="1"/>
<text x="120.00" y="737" text-anchor="middle" font-family="Arial" font-size="16" fill="black">-0.729</text>
<line x1="376.25" y1="75" x2="376.25" y2="705" stroke="#dddddd" stroke-width="1"/>
<text x="376.25" y="737" text-anchor="middle" font-family="Arial" font-size="16" fill="black">1.913</text>
<line x1="632.50" y1="75" x2="632.50" y2="705" stroke="#dddddd" stroke-width="1"/>
<text x="632.50" y="737" text-anchor="middle" font-family="Arial" font-size="16" fill="black">4.555</text>
<line x1="888.75" y1="75" x2="888.75" y2="705" stroke="#dddddd" stroke-width="1"/>
<text x="888.75" y="737" text-anchor="middle" font-family="Arial" font-size="16" fill="black">7.197</text>
<line x1="1145.00" y1="75" x2="1145.00" y2="705" stroke="#dddddd" stroke-width="1"/>
<text x="1145.00" y="737" text-anchor="middle" font-family="Arial" font-size="16" fill="black">9.839</text>
<line x1="120" y1="705.00" x2="1145" y2="705.00" stroke="#dddddd" stroke-width="1"/>
<text x="104" y="710.00" text-anchor="end" font-family="Arial" font-size="16" fill="black">-0.117</text>
<line x1="120" y1="547.50" x2="1145" y2="547.50" stroke="#dddddd" stroke-width="1"/>
<text x="104" y="552.50" text-anchor="end" font-family="Arial" font-size="16" fill="black">-0.030</text>
<line x1="120" y1="390.00" x2="1145" y2="390.00" stroke="#dddddd" stroke-width="1"/>
<text x="104" y="395.00" text-anchor="end" font-family="Arial" font-size="16" fill="black">0.056</text>
<line x1="120" y1="232.50" x2="1145" y2="232.50" stroke="#dddddd" stroke-width="1"/>
<text x="104" y="237.50" text-anchor="end" font-family="Arial" font-size="16" fill="black">0.143</text>
<line x1="120" y1="75.00" x2="1145" y2="75.00" stroke="#dddddd" stroke-width="1"/>
<text x="104" y="80.00" text-anchor="end" font-family="Arial" font-size="16" fill="black">0.230</text>
<rect x="120" y="75" width="1025" height="630" fill="none" stroke="black" stroke-width="2"/>
<text x="632.5" y="785" text-anchor="middle" font-family="Arial" font-size="20" fill="black">distance along sample line [m]</text>
<text x="34" y="390.0" transform="rotate(-90 34 390.0)" text-anchor="middle" font-family="Arial" font-size="20" fill="black">U:2 [SI]</text>
<polyline points="190.69,392.65 193.64,392.24 196.58,392.26 199.53,392.71 202.47,393.57 205.42,397.90 208.36,404.23 211.31,410.93 214.25,418.35 217.20,425.27 220.14,431.33 223.09,435.44 226.03,440.70 228.98,445.10 231.93,448.80 234.87,453.52 237.82,459.24 240.76,465.96 243.71,472.07 246.65,477.42 249.60,483.78 252.54,489.92 255.49,495.45 258.43,501.03 261.38,507.95 264.32,514.07 267.27,520.38 270.22,525.57 273.16,532.35 276.11,540.85 279.05,551.17 282.00,552.96 284.94,556.71 287.88,562.39 290.83,569.94 293.78,574.78 296.73,579.56 299.67,584.42 302.62,590.69 305.57,594.96 308.50,596.14 311.45,596.17 314.40,597.64 317.34,598.16 320.29,593.47 323.24,590.02 326.18,587.80 329.12,586.79 332.07,580.39 335.01,573.15 337.96,567.04 340.91,559.86 343.85,547.83 346.80,532.63 349.74,518.73 352.68,503.40 355.63,485.55 358.58,459.96 361.53,435.04 364.47,410.65 367.42,386.63 370.36,353.65 373.30,321.39 376.25,289.61 379.20,258.04 382.14,232.33 385.09,208.52 388.04,187.50 390.97,166.27 393.92,154.33 396.87,154.77 399.81,156.85 402.76,158.72 405.71,167.05 408.65,195.26 411.59,222.91 414.54,250.11 417.48,276.99 420.43,308.72 423.38,342.38 426.32,375.66 429.27,409.12 432.21,435.62 435.16,457.03 438.10,478.34 441.05,499.74 444.00,517.31 446.94,525.69 449.89,534.35 452.84,543.32 455.77,552.69 458.72,552.24 461.67,552.29 464.61,552.84 467.56,553.91 470.51,551.55 473.45,548.17 476.39,545.29 479.34,543.03 482.28,540.07 485.23,535.99 488.18,532.21 491.12,529.07 494.07,526.17 497.01,522.51 499.96,519.45 502.90,516.99 505.85,515.16 508.80,513.14 511.74,511.10 514.69,509.59 517.63,508.68 520.57,507.89 523.52,507.28 526.47,507.13 529.41,506.67 532.36,506.48 535.31,506.16 538.24,506.26 541.19,506.77 544.14,507.70 547.08,506.86 550.03,506.35 552.98,506.15 555.92,506.30 558.86,506.19 561.81,506.13 564.76,503.78 567.70,501.57 570.65,499.31 573.60,496.83 576.54,494.56 579.49,492.36 582.43,486.42 585.37,480.50 588.32,474.34 591.27,467.97 594.21,461.38 597.16,455.41 600.11,445.01 603.04,434.26 605.99,423.53 608.94,413.67 611.88,404.35 614.83,394.72 617.78,380.96 620.72,367.90 623.66,357.05 626.61,346.06 629.55,334.94 632.50,323.67 635.45,314.50 638.40,305.57 641.34,296.86 644.28,288.36 647.23,283.79 650.17,281.10 653.12,277.40 656.07,274.32 659.01,273.85 661.96,276.81 664.90,280.98 667.84,285.93 670.79,292.02 673.74,301.23 676.68,311.51 679.63,322.85 682.58,335.29 685.51,348.07 688.46,362.64 691.41,378.30 694.35,394.97 697.30,410.26 700.25,424.46 703.20,439.33 706.14,455.61 709.08,471.02 712.03,482.99 714.97,495.26 717.92,507.88 720.87,520.90 723.81,528.66 726.76,536.43 729.70,544.22 732.64,552.08 735.59,556.89 738.54,560.37 741.48,563.55 744.43,566.62 747.38,567.85 750.31,566.56 753.26,564.75 756.21,562.79 759.15,560.23 762.10,553.83 765.05,547.25 767.99,540.52 770.93,533.66 773.88,522.49 776.83,511.47 779.77,500.38 782.72,489.27 785.67,475.29 788.61,459.12 791.55,442.97 794.50,428.88 797.44,413.59 800.39,394.92 803.34,376.41 806.28,358.06 809.23,339.89 812.17,321.01 815.11,302.54 818.06,284.49 821.01,266.87 823.95,247.77 826.90,228.32 829.85,212.32 832.79,196.86 835.73,181.88 838.68,167.35 841.63,154.13 844.57,141.50 847.52,133.21 850.47,128.80 853.41,124.85 856.35,121.40 859.30,118.45 862.24,122.06 865.19,129.65 868.14,137.43 871.08,146.01 874.03,159.14 876.97,175.42 879.91,191.47 882.86,208.55 885.81,227.28 888.75,250.49 891.70,273.00 894.65,294.83 897.58,315.97 900.53,341.88 903.48,366.61 906.43,390.19 909.37,412.65 912.32,437.66 915.27,463.07 918.20,485.84 921.15,507.60 924.10,529.66 927.04,552.55 929.99,574.11 932.94,594.71 935.88,612.37 938.82,626.51 941.77,639.46 944.71,651.17 947.66,661.55 950.61,658.98 953.55,651.72 956.50,642.68 959.44,629.84 962.38,605.72 965.33,573.03 968.28,538.40 971.22,502.63 974.17,463.66 977.12,420.95 980.06,378.06 983.00,334.97 985.95,291.62 988.90,258.04 991.84,226.94 994.79,198.52 997.74,172.97 1000.68,157.13 1003.62,148.82 1006.57,152.03 1009.51,160.54 1012.46,171.71 1015.41,183.93 1018.35,202.55 1021.30,227.52 1024.24,262.30 1027.18,279.98 1030.13,299.00 1033.08,319.24 1036.02,340.54 1038.97,356.14 1041.92,383.78 1044.86,410.86 1047.80,433.70 1050.75,453.26 1053.70,470.28 1056.64,486.66 1059.59,493.45 1062.54,500.05 1065.47,506.79 1068.42,512.51 1071.37,517.14 1074.31,520.62" fill="none" stroke="#000000" stroke-width="3"/>
<line x1="142" y1="100" x2="178" y2="100" stroke="#000000" stroke-width="4"/>
<text x="188" y="105" font-family="Arial" font-size="18" fill="black">U:2</text>
</svg>