<svg xmlns="http://www.w3.org/2000/svg" width="1200" height="820" viewBox="0 0 1200 820">
<rect width="100%" height="100%" fill="white"/>
<text x="600.0" y="36" text-anchor="middle" font-family="Arial" font-size="24" fill="black">profile_center_y: nut</text>
<line x1="120.00" y1="75" x2="120.00" y2="705" stroke="#dddddd" stroke-width="1"/>
<text x="120.00" y="737" text-anchor="middle" font-family="Arial" font-size="16" fill="black">-0.400</text>
<line x1="376.25" y1="75" x2="376.25" y2="705" stroke="#dddddd" stroke-width="1"/>
<text x="376.25" y="737" text-anchor="middle" font-family="Arial" font-size="16" fill="black">1.050</text>
<line x1="632.50" y1="75" x2="632.50" y2="705" stroke="#dddddd" stroke-width="1"/>
<text x="632.50" y="737" text-anchor="middle" font-family="Arial" font-size="16" fill="black">2.500</text>
<line x1="888.75" y1="75" x2="888.75" y2="705" stroke="#dddddd" stroke-width="1"/>
<text x="888.75" y="737" text-anchor="middle" font-family="Arial" font-size="16" fill="black">3.950</text>
<line x1="1145.00" y1="75" x2="1145.00" y2="705" stroke="#dddddd" stroke-width="1"/>
<text x="1145.00" y="737" text-anchor="middle" font-family="Arial" font-size="16" fill="black">5.400</text>
<line x1="120" y1="705.00" x2="1145" y2="705.00" stroke="#dddddd" stroke-width="1"/>
<text x="104" y="710.00" text-anchor="end" font-family="Arial" font-size="16" fill="black">-9.22e-04</text>
<line x1="120" y1="547.50" x2="1145" y2="547.50" stroke="#dddddd" stroke-width="1"/>
<text x="104" y="552.50" text-anchor="end" font-family="Arial" font-size="16" fill="black">0.004</text>
<line x1="120" y1="390.00" x2="1145" y2="390.00" stroke="#dddddd" stroke-width="1"/>
<text x="104" y="395.00" text-anchor="end" font-family="Arial" font-size="16" fill="black">0.009</text>
<line x1="120" y1="232.50" x2="1145" y2="232.50" stroke="#dddddd" stroke-width="1"/>
<text x="104" y="237.50" text-anchor="end" font-family="Arial" font-size="16" fill="black">0.015</text>
<line x1="120" y1="75.00" x2="1145" y2="75.00" stroke="#dddddd" stroke-width="1"/>
<text x="104" y="80.00" text-anchor="end" font-family="Arial" font-size="16" fill="black">0.020</text>
<rect x="120" y="75" width="1025" height="630" fill="none" stroke="black" stroke-width="2"/>
<text x="632.5" y="785" text-anchor="middle" font-family="Arial" font-size="20" fill="black">y coordinate [m]</text>
<text x="34" y="390.0" transform="rotate(-90 34 390.0)" text-anchor="middle" font-family="Arial" font-size="20" fill="black">nut [m2/s]</text>
<polyline points="190.69,656.21 193.64,650.70 196.58,645.20 199.53,639.69 202.47,634.19 205.42,628.68 208.36,623.18 211.31,612.04 214.25,600.91 217.20,589.78 220.14,578.65 223.09,567.51 226.03,556.38 228.98,545.76 231.92,535.13 234.87,524.52 237.82,513.89 240.76,503.27 243.71,492.65 246.65,482.91 249.60,473.16 252.54,463.42 255.49,453.67 258.43,443.93 261.38,434.18 264.33,425.22 267.27,416.27 270.22,407.31 273.16,398.35 276.11,389.39 279.05,380.44 282.00,373.04 284.94,365.65 287.89,358.25 290.83,350.85 293.78,343.46 296.72,336.06 299.67,330.75 302.61,325.43 305.56,320.11 308.51,314.82 311.45,309.51 314.40,304.19 317.34,300.98 320.29,297.77 323.23,294.53 326.18,291.32 329.12,288.12 332.07,284.91 335.01,283.68 337.96,282.49 340.91,281.30 343.85,280.11 346.80,278.89 349.74,277.69 352.69,278.24 355.63,278.79 358.58,279.34 361.52,279.89 364.47,280.41 367.41,280.96 370.37,282.52 373.30,284.08 376.25,285.64 379.20,287.17 382.13,288.73 385.09,290.29 388.04,291.81 390.97,293.31 393.92,294.84 396.87,296.37 399.81,297.89 402.76,299.42 405.71,299.82 408.64,300.25 411.59,300.68 414.55,301.10 417.48,301.53 420.43,301.96 423.38,300.34 426.32,298.72 429.27,297.10 432.22,295.51 435.15,293.89 438.10,292.27 441.05,288.33 443.99,284.42 446.94,280.48 449.89,276.53 452.82,272.59 455.78,268.65 458.73,263.21 461.66,257.80 464.61,252.36 467.56,246.92 470.50,241.48 473.45,236.07 476.40,230.66 479.33,225.28 482.28,219.91 485.24,214.50 488.17,209.12 491.12,203.74 494.07,199.31 497.01,194.91 499.96,190.48 502.91,186.08 505.84,181.68 508.79,177.24 511.74,173.79 514.68,170.37 517.63,166.92 520.58,163.46 523.51,160.01 526.47,156.56 529.42,153.78 532.35,150.99 535.30,148.18 538.25,145.40 541.19,142.59 544.14,139.81 547.09,137.61 550.02,135.38 552.97,133.18 555.93,130.98 558.86,128.75 561.81,126.55 564.76,125.29 567.70,124.01 570.65,122.76 573.60,121.47 576.53,120.22 579.48,118.94 582.43,118.88 585.37,118.78 588.32,118.69 591.27,118.63 594.20,118.54 597.16,118.45 600.11,119.43 603.04,120.37 605.99,121.32 608.94,122.27 611.88,123.22 614.83,124.16 617.78,125.97 620.71,127.77 623.66,129.57 626.62,131.37 629.55,133.18 632.50,134.98 635.45,137.55 638.38,140.12 641.34,142.68 644.29,145.22 647.22,147.79 650.17,150.35 653.12,153.47 656.06,156.56 659.01,159.67 661.96,162.79 664.89,165.91 667.84,168.99 670.80,172.42 673.73,175.84 676.68,179.23 679.63,182.65 682.57,186.08 685.52,189.47 688.47,192.98 691.40,196.50 694.35,200.01 697.30,203.53 700.24,207.04 703.19,210.55 706.14,214.07 709.07,217.58 712.03,221.10 714.98,224.61 717.91,228.13 720.86,231.64 723.81,235.16 726.75,238.64 729.70,242.15 732.65,245.67 735.58,249.18 738.53,252.67 741.49,256.12 744.42,259.57 747.37,263.00 750.32,266.45 753.26,269.90 756.21,273.32 759.16,276.56 762.09,279.80 765.04,283.04 767.99,286.28 770.93,289.52 773.88,292.76 776.83,295.72 779.76,298.69 782.72,301.62 785.67,304.59 788.60,307.55 791.55,310.48 794.50,313.14 797.44,315.83 800.39,318.49 803.34,321.15 806.27,323.81 809.22,326.47 812.18,328.88 815.11,331.33 818.06,333.74 821.01,336.16 823.95,338.60 826.90,341.01 829.85,343.34 832.78,345.66 835.73,347.98 838.68,350.27 841.62,352.60 844.57,354.92 847.52,357.33 850.45,359.72 853.41,362.13 856.36,364.51 859.29,366.93 862.24,369.31 865.19,372.02 868.13,374.72 871.08,377.42 874.03,380.11 876.96,382.81 879.91,385.51 882.87,388.64 885.80,391.76 888.75,394.89 891.70,398.02 894.63,401.15 897.59,404.27 900.54,407.72 903.47,411.17 906.42,414.61 909.37,418.06 912.31,421.51 915.26,424.96 918.21,428.41 921.14,431.86 924.09,435.31 927.05,438.77 929.98,442.22 932.93,445.67 935.88,449.04 938.82,452.40 941.77,455.77 944.72,459.14 947.65,462.50 950.60,465.87 953.55,469.30 956.49,472.72 959.44,476.15 962.39,479.58 965.32,483.01 968.28,486.44 971.23,490.01 974.16,493.59 977.11,497.17 980.06,500.75 983.00,504.32 985.95,507.90 988.90,511.69 991.83,515.47 994.78,519.25 997.74,523.04 1000.67,526.82 1003.62,530.61 1006.57,534.82 1009.51,539.03 1012.46,543.24 1015.41,547.45 1018.34,551.66 1021.29,555.88 1024.24,561.16 1027.18,566.44 1030.13,571.72 1033.08,577.00 1036.01,582.28 1038.97,587.56 1041.92,595.24 1044.85,602.92 1047.80,610.59 1050.75,618.27 1053.69,625.95 1056.64,633.63 1059.59,638.28 1062.52,642.94 1065.47,647.59 1068.43,652.24 1071.36,656.90 1074.31,661.55" fill="none" stroke="#000000" stroke-width="3"/>
<line x1="142" y1="100" x2="178" y2="100" stroke="#000000" stroke-width="4"/>
<text x="188" y="105" font-family="Arial" font-size="18" fill="black">nut</text>
</svg>