<svg xmlns="http://www.w3.org/2000/svg" width="1200" height="820" viewBox="0 0 1200 820">
<rect width="100%" height="100%" fill="white"/>
<text x="600.0" y="36" text-anchor="middle" font-family="Arial" font-size="24" fill="black">profile_near_ceiling_x: nut</text>
<line x1="120.00" y1="75" x2="120.00" y2="705" stroke="#dddddd" stroke-width="1"/>
<text x="120.00" y="737" text-anchor="middle" font-family="Arial" font-size="16" fill="black">-0.560</text>
<line x1="376.25" y1="75" x2="376.25" y2="705" stroke="#dddddd" stroke-width="1"/>
<text x="376.25" y="737" text-anchor="middle" font-family="Arial" font-size="16" fill="black">1.470</text>
<line x1="632.50" y1="75" x2="632.50" y2="705" stroke="#dddddd" stroke-width="1"/>
<text x="632.50" y="737" text-anchor="middle" font-family="Arial" font-size="16" fill="black">3.500</text>
<line x1="888.75" y1="75" x2="888.75" y2="705" stroke="#dddddd" stroke-width="1"/>
<text x="888.75" y="737" text-anchor="middle" font-family="Arial" font-size="16" fill="black">5.530</text>
<line x1="1145.00" y1="75" x2="1145.00" y2="705" stroke="#dddddd" stroke-width="1"/>
<text x="1145.00" y="737" text-anchor="middle" font-family="Arial" font-size="16" fill="black">7.560</text>
<line x1="120" y1="705.00" x2="1145" y2="705.00" stroke="#dddddd" stroke-width="1"/>
<text x="104" y="710.00" text-anchor="end" font-family="Arial" font-size="16" fill="black">3.55e-05</text>
<line x1="120" y1="547.50" x2="1145" y2="547.50" stroke="#dddddd" stroke-width="1"/>
<text x="104" y="552.50" text-anchor="end" font-family="Arial" font-size="16" fill="black">0.002</text>
<line x1="120" y1="390.00" x2="1145" y2="390.00" stroke="#dddddd" stroke-width="1"/>
<text x="104" y="395.00" text-anchor="end" font-family="Arial" font-size="16" fill="black">0.004</text>
<line x1="120" y1="232.50" x2="1145" y2="232.50" stroke="#dddddd" stroke-width="1"/>
<text x="104" y="237.50" text-anchor="end" font-family="Arial" font-size="16" fill="black">0.005</text>
<line x1="120" y1="75.00" x2="1145" y2="75.00" stroke="#dddddd" stroke-width="1"/>
<text x="104" y="80.00" text-anchor="end" font-family="Arial" font-size="16" fill="black">0.007</text>
<rect x="120" y="75" width="1025" height="630" fill="none" stroke="black" stroke-width="2"/>
<text x="632.5" y="785" text-anchor="middle" font-family="Arial" font-size="20" fill="black">x coordinate [m]</text>
<text x="34" y="390.0" transform="rotate(-90 34 390.0)" text-anchor="middle" font-family="Arial" font-size="20" fill="black">nut [m2/s]</text>
<polyline points="190.69,643.09 193.64,627.84 196.58,612.58 199.53,597.33 202.47,582.08 205.42,561.74 208.36,539.37 211.31,517.00 214.25,494.62 217.20,476.35 220.14,463.54 223.09,450.73 226.03,437.92 228.98,425.40 231.93,414.59 234.87,403.78 237.82,392.98 240.76,382.17 243.71,371.94 246.65,361.81 249.60,351.68 252.54,341.54 255.49,331.43 258.43,321.32 261.38,311.20 264.32,301.10 267.27,291.02 270.22,281.04 273.16,271.06 276.11,261.08 279.05,251.10 282.00,242.37 284.94,233.64 287.89,224.91 290.83,216.18 293.78,209.04 296.72,202.54 299.67,196.04 302.62,189.54 305.56,184.06 308.51,179.94 311.45,175.83 314.40,171.70 317.34,167.91 320.29,166.06 323.23,164.22 326.17,162.36 329.13,160.51 332.07,160.59 335.01,161.00 337.96,161.40 340.91,161.80 343.85,163.60 346.80,166.46 349.74,169.31 352.68,172.16 355.64,175.62 358.58,180.62 361.52,185.62 364.47,190.62 367.41,195.61 370.35,201.89 373.31,208.15 376.25,214.41 379.19,220.67 382.15,227.15 385.09,233.72 388.03,240.28 390.98,246.85 393.92,253.24 396.86,259.40 399.82,265.58 402.76,271.74 405.70,277.85 408.65,283.66 411.59,289.46 414.54,295.26 417.49,301.07 420.43,306.96 423.37,312.86 426.33,318.76 429.27,324.67 432.21,330.77 435.16,337.02 438.10,343.28 441.04,349.53 444.00,355.88 446.94,362.48 449.88,369.07 452.83,375.67 455.78,382.26 458.72,388.89 461.67,395.52 464.61,402.15 467.55,408.78 470.51,414.63 473.45,420.18 476.39,425.72 479.34,431.26 482.28,435.53 485.23,438.12 488.18,440.69 491.12,443.28 494.06,445.26 497.02,443.66 499.96,442.06 502.90,440.46 505.85,438.86 508.79,434.03 511.73,428.66 514.69,423.29 517.63,417.92 520.57,411.21 523.52,403.50 526.47,395.80 529.41,388.09 532.36,380.11 535.30,371.44 538.24,362.77 541.20,354.10 544.14,345.43 547.08,336.57 550.03,327.70 552.97,318.83 555.92,309.96 558.87,301.15 561.81,292.36 564.75,283.57 567.71,274.78 570.65,266.08 573.59,257.52 576.54,248.96 579.48,240.40 582.42,231.91 585.38,223.81 588.32,215.72 591.26,207.63 594.21,199.53 597.16,192.22 600.10,185.03 603.05,177.84 605.99,170.66 608.93,164.29 611.89,158.53 614.83,152.78 617.77,147.03 620.72,141.83 623.66,138.04 626.60,134.24 629.56,130.45 632.50,126.66 635.44,124.88 638.40,123.11 641.34,121.33 644.28,119.56 647.23,118.94 650.17,118.78 653.11,118.61 656.07,118.45 659.01,118.91 661.95,120.21 664.90,121.49 667.84,122.79 670.79,124.30 673.74,127.09 676.68,129.89 679.62,132.69 682.58,135.47 685.52,139.52 688.46,143.77 691.41,148.02 694.35,152.26 697.29,157.18 700.25,162.62 703.19,168.05 706.13,173.49 709.08,179.13 712.03,185.28 714.97,191.42 717.92,197.57 720.86,203.71 723.80,210.07 726.76,216.43 729.70,222.79 732.64,229.15 735.59,235.33 738.53,241.45 741.48,247.56 744.43,253.67 747.37,259.50 750.31,264.96 753.27,270.44 756.21,275.90 759.15,281.24 762.10,285.87 765.04,290.49 767.98,295.12 770.94,299.75 773.88,303.63 776.82,307.39 779.77,311.17 782.72,314.93 785.66,318.23 788.61,321.17 791.55,324.11 794.49,327.06 797.45,329.78 800.39,331.95 803.33,334.13 806.28,336.30 809.22,338.48 812.17,339.96 815.12,341.44 818.06,342.91 821.00,344.40 823.96,345.39 826.90,346.20 829.84,347.01 832.79,347.81 835.73,348.29 838.67,348.35 841.63,348.41 844.57,348.46 847.51,348.37 850.46,347.41 853.41,346.44 856.35,345.47 859.30,344.50 862.24,342.17 865.18,339.63 868.14,337.07 871.08,334.52 874.02,330.76 876.97,326.10 879.91,321.44 882.85,316.79 885.81,311.65 888.75,305.30 891.69,298.96 894.65,292.60 897.59,286.25 900.53,280.10 903.48,273.94 906.42,267.77 909.36,261.62 912.32,256.95 915.26,252.88 918.20,248.81 921.15,244.74 924.09,241.80 927.04,240.36 929.99,238.91 932.93,237.47 935.87,236.37 938.83,237.31 941.77,238.24 944.71,239.17 947.66,240.10 950.60,242.68 953.54,245.52 956.50,248.36 959.44,251.22 962.38,254.87 965.33,259.13 968.28,263.39 971.22,267.66 974.17,272.23 977.11,277.56 980.05,282.90 983.01,288.23 985.95,293.57 988.89,299.95 991.84,306.33 994.78,312.70 997.73,319.09 1000.68,326.54 1003.62,334.44 1006.56,342.33 1009.52,350.21 1012.46,359.22 1015.40,369.71 1018.35,380.19 1021.29,390.68 1024.23,401.57 1027.19,414.84 1030.13,428.11 1033.07,441.38 1036.02,454.65 1038.97,469.75 1041.91,485.16 1044.86,500.57 1047.80,515.99 1050.74,534.19 1053.70,554.51 1056.64,574.83 1059.58,595.14 1062.53,613.11 1065.47,625.22 1068.42,637.33 1071.37,649.44 1074.31,661.55" fill="none" stroke="#000000" stroke-width="3"/>
<line x1="142" y1="100" x2="178" y2="100" stroke="#000000" stroke-width="4"/>
<text x="188" y="105" font-family="Arial" font-size="18" fill="black">nut</text>
</svg>