<svg xmlns="http://www.w3.org/2000/svg" width="1200" height="820" viewBox="0 0 1200 820">
<rect width="100%" height="100%" fill="white"/>
<text x="600.0" y="36" text-anchor="middle" font-family="Arial" font-size="24" fill="black">profile_center_z: velocity magnitude</text>
<line x1="120.00" y1="75" x2="120.00" y2="705" stroke="#dddddd" stroke-width="1"/>
<text x="120.00" y="737" text-anchor="middle" font-family="Arial" font-size="16" fill="black">-0.240</text>
<line x1="376.25" y1="75" x2="376.25" y2="705" stroke="#dddddd" stroke-width="1"/>
<text x="376.25" y="737" text-anchor="middle" font-family="Arial" font-size="16" fill="black">0.630</text>
<line x1="632.50" y1="75" x2="632.50" y2="705" stroke="#dddddd" stroke-width="1"/>
<text x="632.50" y="737" text-anchor="middle" font-family="Arial" font-size="16" fill="black">1.500</text>
<line x1="888.75" y1="75" x2="888.75" y2="705" stroke="#dddddd" stroke-width="1"/>
<text x="888.75" y="737" text-anchor="middle" font-family="Arial" font-size="16" fill="black">2.370</text>
<line x1="1145.00" y1="75" x2="1145.00" y2="705" stroke="#dddddd" stroke-width="1"/>
<text x="1145.00" y="737" text-anchor="middle" font-family="Arial" font-size="16" fill="black">3.240</text>
<line x1="120" y1="705.00" x2="1145" y2="705.00" stroke="#dddddd" stroke-width="1"/>
<text x="104" y="710.00" text-anchor="end" font-family="Arial" font-size="16" fill="black">0.032</text>
<line x1="120" y1="547.50" x2="1145" y2="547.50" stroke="#dddddd" stroke-width="1"/>
<text x="104" y="552.50" text-anchor="end" font-family="Arial" font-size="16" fill="black">0.153</text>
<line x1="120" y1="390.00" x2="1145" y2="390.00" stroke="#dddddd" stroke-width="1"/>
<text x="104" y="395.00" text-anchor="end" font-family="Arial" font-size="16" fill="black">0.275</text>
<line x1="120" y1="232.50" x2="1145" y2="232.50" stroke="#dddddd" stroke-width="1"/>
<text x="104" y="237.50" text-anchor="end" font-family="Arial" font-size="16" fill="black">0.397</text>
<line x1="120" y1="75.00" x2="1145" y2="75.00" stroke="#dddddd" stroke-width="1"/>
<text x="104" y="80.00" text-anchor="end" font-family="Arial" font-size="16" fill="black">0.519</text>
<rect x="120" y="75" width="1025" height="630" fill="none" stroke="black" stroke-width="2"/>
<text x="632.5" y="785" text-anchor="middle" font-family="Arial" font-size="20" fill="black">z coordinate [m]</text>
<text x="34" y="390.0" transform="rotate(-90 34 390.0)" text-anchor="middle" font-family="Arial" font-size="20" fill="black">|U| [m/s]</text>
<polyline points="190.69,118.45 193.64,121.68 196.58,124.91 199.53,128.15 202.47,131.39 205.42,134.63 208.36,137.86 211.31,141.09 214.25,144.33 217.20,147.56 220.14,150.79 223.09,159.25 226.03,167.71 228.98,176.15 231.93,184.61 234.87,193.06 237.82,201.52 240.76,209.96 243.71,218.42 246.65,226.88 249.60,235.32 252.54,246.81 255.49,258.28 258.43,269.76 261.38,281.25 264.32,292.72 267.27,304.20 270.22,315.69 273.16,327.16 276.11,338.64 279.05,350.11 282.00,363.41 284.94,376.70 287.89,390.00 290.83,403.29 293.78,416.59 296.72,429.88 299.67,443.18 302.61,456.47 305.56,469.77 308.51,483.06 311.45,497.08 314.40,511.10 317.34,525.12 320.29,539.13 323.23,553.15 326.18,567.17 329.12,581.18 332.07,595.19 335.01,609.21 337.96,623.23 340.91,627.06 343.85,630.89 346.80,634.73 349.74,638.56 352.69,642.39 355.63,646.22 358.58,650.05 361.52,653.89 364.47,657.72 367.41,661.55 370.36,656.50 373.30,651.46 376.25,646.41 379.20,641.36 382.14,636.31 385.09,631.27 388.03,626.22 390.98,621.17 393.92,616.13 396.87,611.07 399.81,609.21 402.76,607.33 405.70,605.47 408.65,603.60 411.59,601.73 414.54,599.87 417.49,598.00 420.43,596.13 423.38,594.26 426.32,592.40 429.27,592.60 432.21,592.82 435.16,593.03 438.10,593.25 441.05,593.46 443.99,593.66 446.94,593.88 449.89,594.09 452.83,594.31 455.78,594.52 458.72,595.44 461.67,596.34 464.61,597.26 467.56,598.17 470.50,599.08 473.45,599.99 476.39,600.89 479.34,601.81 482.28,602.72 485.23,603.64 488.18,604.35 491.12,605.07 494.07,605.78 497.01,606.51 499.96,607.22 502.90,607.94 505.85,608.65 508.79,609.38 511.74,610.09 514.68,610.81 517.63,610.93 520.57,611.05 523.52,611.16 526.47,611.28 529.41,611.40 532.36,611.51 535.30,611.63 538.25,611.74 541.19,611.86 544.14,611.98 547.08,611.47 550.03,610.97 552.97,610.46 555.92,609.96 558.86,609.46 561.81,608.95 564.76,608.45 567.70,607.94 570.65,607.44 573.59,606.93 576.54,606.02 579.48,605.11 582.43,604.19 585.37,603.29 588.32,602.37 591.26,601.45 594.21,600.55 597.16,599.63 600.10,598.72 603.05,597.80 605.99,596.74 608.94,595.67 611.88,594.61 614.83,593.55 617.77,592.49 620.72,591.43 623.66,590.35 626.61,589.29 629.55,588.23 632.50,587.17 635.45,586.15 638.39,585.14 641.34,584.12 644.28,583.11 647.23,582.09 650.17,581.08 653.12,580.06 656.06,579.05 659.01,578.04 661.95,577.02 664.90,576.19 667.84,575.35 670.79,574.52 673.74,573.68 676.68,572.86 679.63,572.03 682.57,571.19 685.52,570.36 688.46,569.52 691.41,568.69 694.35,568.12 697.30,567.57 700.24,567.00 703.19,566.44 706.14,565.87 709.08,565.32 712.03,564.75 714.97,564.18 717.92,563.62 720.86,563.05 723.81,562.82 726.75,562.59 729.70,562.35 732.64,562.12 735.59,561.88 738.53,561.64 741.48,561.41 744.43,561.18 747.37,560.94 750.32,560.70 753.26,560.83 756.21,560.96 759.15,561.07 762.10,561.20 765.04,561.33 767.99,561.45 770.93,561.58 773.88,561.71 776.82,561.82 779.77,561.95 782.72,562.46 785.66,562.95 788.61,563.45 791.55,563.95 794.50,564.45 797.44,564.95 800.39,565.45 803.33,565.95 806.28,566.44 809.22,566.95 812.17,567.81 815.11,568.69 818.06,569.56 821.01,570.44 823.95,571.30 826.90,572.18 829.84,573.05 832.79,573.93 835.73,574.80 838.68,575.68 841.62,576.92 844.57,578.15 847.51,579.39 850.46,580.63 853.41,581.87 856.35,583.10 859.30,584.34 862.24,585.58 865.19,586.82 868.13,588.05 871.08,589.64 874.02,591.23 876.97,592.81 879.91,594.40 882.86,595.98 885.80,597.57 888.75,599.15 891.70,600.74 894.64,602.33 897.59,603.91 900.53,605.78 903.48,607.66 906.42,609.53 909.37,611.41 912.31,613.28 915.26,615.16 918.20,617.04 921.15,618.91 924.09,620.79 927.04,622.67 929.99,624.64 932.93,626.62 935.88,628.59 938.82,630.56 941.77,632.54 944.71,634.51 947.66,636.49 950.60,638.46 953.55,640.44 956.49,642.41 959.44,643.79 962.39,645.18 965.33,646.56 968.28,647.94 971.22,649.32 974.17,650.70 977.11,652.08 980.06,653.47 983.00,654.85 985.95,656.23 988.89,655.14 991.84,654.05 994.78,652.96 997.73,651.87 1000.68,650.78 1003.62,649.69 1006.57,648.60 1009.51,647.51 1012.46,646.42 1015.40,645.32 1018.35,638.58 1021.29,631.83 1024.24,625.08 1027.18,618.33 1030.13,611.58 1033.07,604.83 1036.02,598.09 1038.97,591.34 1041.91,584.59 1044.86,577.83 1047.80,572.70 1050.75,567.57 1053.69,562.43 1056.64,557.30 1059.58,552.16 1062.53,547.03 1065.47,541.89 1068.42,536.75 1071.36,531.61 1074.31,526.48" fill="none" stroke="#000000" stroke-width="3"/>
<line x1="142" y1="100" x2="178" y2="100" stroke="#000000" stroke-width="4"/>
<text x="188" y="105" font-family="Arial" font-size="18" fill="black">|U|</text>
</svg>