<svg xmlns="http://www.w3.org/2000/svg" width="1200" height="820" viewBox="0 0 1200 820">
<rect width="100%" height="100%" fill="white"/>
<text x="600.0" y="36" text-anchor="middle" font-family="Arial" font-size="24" fill="black">profile_center_z: alphat</text>
<line x1="120.00" y1="75" x2="120.00" y2="705" stroke="#dddddd" stroke-width="1"/>
<text x="120.00" y="737" text-anchor="middle" font-family="Arial" font-size="16" fill="black">-0.240</text>
<line x1="376.25" y1="75" x2="376.25" y2="705" stroke="#dddddd" stroke-width="1"/>
<text x="376.25" y="737" text-anchor="middle" font-family="Arial" font-size="16" fill="black">0.630</text>
<line x1="632.50" y1="75" x2="632.50" y2="705" stroke="#dddddd" stroke-width="1"/>
<text x="632.50" y="737" text-anchor="middle" font-family="Arial" font-size="16" fill="black">1.500</text>
<line x1="888.75" y1="75" x2="888.75" y2="705" stroke="#dddddd" stroke-width="1"/>
<text x="888.75" y="737" text-anchor="middle" font-family="Arial" font-size="16" fill="black">2.370</text>
<line x1="1145.00" y1="75" x2="1145.00" y2="705" stroke="#dddddd" stroke-width="1"/>
<text x="1145.00" y="737" text-anchor="middle" font-family="Arial" font-size="16" fill="black">3.240</text>
<line x1="120" y1="705.00" x2="1145" y2="705.00" stroke="#dddddd" stroke-width="1"/>
<text x="104" y="710.00" text-anchor="end" font-family="Arial" font-size="16" fill="black">-6.53e-04</text>
<line x1="120" y1="547.50" x2="1145" y2="547.50" stroke="#dddddd" stroke-width="1"/>
<text x="104" y="552.50" text-anchor="end" font-family="Arial" font-size="16" fill="black">0.005</text>
<line x1="120" y1="390.00" x2="1145" y2="390.00" stroke="#dddddd" stroke-width="1"/>
<text x="104" y="395.00" text-anchor="end" font-family="Arial" font-size="16" fill="black">0.011</text>
<line x1="120" y1="232.50" x2="1145" y2="232.50" stroke="#dddddd" stroke-width="1"/>
<text x="104" y="237.50" text-anchor="end" font-family="Arial" font-size="16" fill="black">0.017</text>
<line x1="120" y1="75.00" x2="1145" y2="75.00" stroke="#dddddd" stroke-width="1"/>
<text x="104" y="80.00" text-anchor="end" font-family="Arial" font-size="16" fill="black">0.023</text>
<rect x="120" y="75" width="1025" height="630" fill="none" stroke="black" stroke-width="2"/>
<text x="632.5" y="785" text-anchor="middle" font-family="Arial" font-size="20" fill="black">z coordinate [m]</text>
<text x="34" y="390.0" transform="rotate(-90 34 390.0)" text-anchor="middle" font-family="Arial" font-size="20" fill="black">alphat [SI]</text>
<polyline points="190.69,661.30 193.64,661.33 196.58,661.35 199.53,661.38 202.47,661.40 205.42,661.43 208.36,661.45 211.31,661.48 214.25,661.50 217.20,661.53 220.14,661.55 223.09,661.52 226.03,661.49 228.98,661.46 231.93,661.42 234.87,661.39 237.82,661.36 240.76,661.33 243.71,661.29 246.65,661.26 249.60,661.23 252.54,660.98 255.49,660.72 258.43,660.47 261.38,660.22 264.32,659.96 267.27,659.71 270.22,659.46 273.16,659.20 276.11,658.95 279.05,658.70 282.00,657.69 284.94,656.69 287.89,655.68 290.83,654.68 293.78,653.68 296.72,652.67 299.67,651.67 302.61,650.66 305.56,649.66 308.51,648.65 311.45,644.26 314.40,639.85 317.34,635.45 320.29,631.06 323.23,626.65 326.18,622.25 329.12,617.86 332.07,613.45 335.01,609.06 337.96,604.66 340.91,594.49 343.85,584.33 346.80,574.17 349.74,564.01 352.69,553.85 355.63,543.68 358.58,533.52 361.52,523.36 364.47,513.20 367.41,503.04 370.36,491.96 373.30,480.89 376.25,469.82 379.20,458.75 382.14,447.68 385.09,436.61 388.03,425.54 390.98,414.48 393.92,403.40 396.87,392.32 399.81,384.61 402.76,376.90 405.70,369.19 408.65,361.47 411.59,353.76 414.54,346.02 417.49,338.31 420.43,330.59 423.38,322.88 426.32,315.17 429.27,309.72 432.21,304.31 435.16,298.86 438.10,293.42 441.05,288.00 443.99,282.56 446.94,277.11 449.89,271.67 452.83,266.25 455.78,260.80 458.72,257.12 461.67,253.41 464.61,249.73 467.56,246.05 470.50,242.36 473.45,238.65 476.39,234.97 479.34,231.29 482.28,227.58 485.23,223.89 488.18,221.41 491.12,218.93 494.07,216.45 497.01,213.97 499.96,211.48 502.90,208.98 505.85,206.49 508.79,204.01 511.74,201.53 514.68,199.05 517.63,197.29 520.57,195.52 523.52,193.76 526.47,192.00 529.41,190.24 532.36,188.48 535.30,186.72 538.25,184.96 541.19,183.19 544.14,181.43 547.08,180.13 550.03,178.79 552.97,177.48 555.92,176.15 558.86,174.84 561.81,173.51 564.76,172.20 567.70,170.86 570.65,169.56 573.59,168.22 576.54,167.18 579.48,166.17 582.43,165.13 585.37,164.09 588.32,163.07 591.26,162.03 594.21,160.99 597.16,159.98 600.10,158.93 603.05,157.89 605.99,157.07 608.94,156.24 611.88,155.39 614.83,154.56 617.77,153.73 620.72,152.88 623.66,152.05 626.61,151.22 629.55,150.39 632.50,149.54 635.45,148.85 638.39,148.15 641.34,147.46 644.28,146.74 647.23,146.04 650.17,145.35 653.12,144.66 656.06,143.94 659.01,143.24 661.95,142.55 664.90,141.93 667.84,141.32 670.79,140.71 673.74,140.09 676.68,139.48 679.63,138.86 682.57,138.25 685.52,137.66 688.46,137.05 691.41,136.44 694.35,135.88 697.30,135.32 700.24,134.78 703.19,134.22 706.14,133.66 709.08,133.13 712.03,132.57 714.97,132.01 717.92,131.45 720.86,130.91 723.81,130.40 726.75,129.90 729.70,129.39 732.64,128.91 735.59,128.40 738.53,127.90 741.48,127.39 744.43,126.91 747.37,126.40 750.32,125.89 753.26,125.47 756.21,125.04 759.15,124.61 762.10,124.19 765.04,123.76 767.99,123.33 770.93,122.91 773.88,122.48 776.82,122.02 779.77,121.60 782.72,121.33 785.66,121.04 788.61,120.74 791.55,120.45 794.50,120.16 797.44,119.86 800.39,119.57 803.33,119.28 806.28,118.98 809.22,118.69 812.17,118.66 815.11,118.66 818.06,118.64 821.01,118.61 823.95,118.58 826.90,118.56 829.84,118.53 832.79,118.50 835.73,118.47 838.68,118.45 841.62,118.93 844.57,119.41 847.51,119.86 850.46,120.34 853.41,120.80 856.35,121.28 859.30,121.73 862.24,122.21 865.19,122.67 868.13,123.15 871.08,124.45 874.02,125.79 876.97,127.10 879.91,128.43 882.86,129.74 885.80,131.07 888.75,132.38 891.70,133.71 894.64,135.02 897.59,136.36 900.53,139.05 903.48,141.77 906.42,144.47 909.37,147.19 912.31,149.89 915.26,152.61 918.20,155.30 921.15,158.03 924.09,160.72 927.04,163.44 929.99,168.30 932.93,173.16 935.88,178.02 938.82,182.87 941.77,187.73 944.71,192.59 947.66,197.45 950.60,202.30 953.55,207.16 956.49,212.02 959.44,219.97 962.39,227.95 965.33,235.93 968.28,243.91 971.22,251.86 974.17,259.84 977.11,267.82 980.06,275.80 983.00,283.78 985.95,291.74 988.89,303.80 991.84,315.84 994.78,327.90 997.73,339.94 1000.68,352.00 1003.62,364.04 1006.57,376.10 1009.51,388.13 1012.46,400.20 1015.40,412.23 1018.35,427.87 1021.29,443.48 1024.24,459.10 1027.18,474.73 1030.13,490.34 1033.07,505.96 1036.02,521.58 1038.97,537.21 1041.91,552.82 1044.86,568.44 1047.80,576.91 1050.75,585.38 1053.69,593.85 1056.64,602.32 1059.58,610.79 1062.53,619.26 1065.47,627.73 1068.42,636.20 1071.36,644.66 1074.31,653.13" fill="none" stroke="#000000" stroke-width="3"/>
<line x1="142" y1="100" x2="178" y2="100" stroke="#000000" stroke-width="4"/>
<text x="188" y="105" font-family="Arial" font-size="18" fill="black">alphat</text>
</svg>