<svg xmlns="http://www.w3.org/2000/svg" width="1200" height="820" viewBox="0 0 1200 820">
<rect width="100%" height="100%" fill="white"/>
<text x="600.0" y="36" text-anchor="middle" font-family="Arial" font-size="24" fill="black">profile_diagonal_supply_return: epsilon</text>
<line x1="120.00" y1="75" x2="120.00" y2="705" stroke="#dddddd" stroke-width="1"/>
<text x="120.00" y="737" text-anchor="middle" font-family="Arial" font-size="16" fill="black">-0.729</text>
<line x1="376.25" y1="75" x2="376.25" y2="705" stroke="#dddddd" stroke-width="1"/>
<text x="376.25" y="737" text-anchor="middle" font-family="Arial" font-size="16" fill="black">1.913</text>
<line x1="632.50" y1="75" x2="632.50" y2="705" stroke="#dddddd" stroke-width="1"/>
<text x="632.50" y="737" text-anchor="middle" font-family="Arial" font-size="16" fill="black">4.555</text>
<line x1="888.75" y1="75" x2="888.75" y2="705" stroke="#dddddd" stroke-width="1"/>
<text x="888.75" y="737" text-anchor="middle" font-family="Arial" font-size="16" fill="black">7.197</text>
<line x1="1145.00" y1="75" x2="1145.00" y2="705" stroke="#dddddd" stroke-width="1"/>
<text x="1145.00" y="737" text-anchor="middle" font-family="Arial" font-size="16" fill="black">9.839</text>
<line x1="120" y1="705.00" x2="1145" y2="705.00" stroke="#dddddd" stroke-width="1"/>
<text x="104" y="710.00" text-anchor="end" font-family="Arial" font-size="16" fill="black">6.04e-05</text>
<line x1="120" y1="547.50" x2="1145" y2="547.50" stroke="#dddddd" stroke-width="1"/>
<text x="104" y="552.50" text-anchor="end" font-family="Arial" font-size="16" fill="black">0.001</text>
<line x1="120" y1="390.00" x2="1145" y2="390.00" stroke="#dddddd" stroke-width="1"/>
<text x="104" y="395.00" text-anchor="end" font-family="Arial" font-size="16" fill="black">0.003</text>
<line x1="120" y1="232.50" x2="1145" y2="232.50" stroke="#dddddd" stroke-width="1"/>
<text x="104" y="237.50" text-anchor="end" font-family="Arial" font-size="16" fill="black">0.004</text>
<line x1="120" y1="75.00" x2="1145" y2="75.00" stroke="#dddddd" stroke-width="1"/>
<text x="104" y="80.00" text-anchor="end" font-family="Arial" font-size="16" fill="black">0.005</text>
<rect x="120" y="75" width="1025" height="630" fill="none" stroke="black" stroke-width="2"/>
<text x="632.5" y="785" text-anchor="middle" font-family="Arial" font-size="20" fill="black">distance along sample line [m]</text>
<text x="34" y="390.0" transform="rotate(-90 34 390.0)" text-anchor="middle" font-family="Arial" font-size="20" fill="black">epsilon [m2/s3]</text>
<polyline points="190.69,661.55 193.64,660.44 196.58,659.26 199.53,658.03 202.47,656.77 205.42,654.93 208.36,652.93 211.31,651.05 214.25,649.23 217.20,647.85 220.14,647.15 223.09,646.91 226.03,647.06 228.98,646.67 231.93,646.59 234.87,646.81 237.82,647.41 240.76,648.48 243.71,649.12 246.65,649.55 249.60,650.28 252.54,649.20 255.49,647.58 258.43,645.53 261.38,643.45 264.32,641.53 267.27,639.41 270.22,637.02 273.16,634.56 276.11,631.98 279.05,629.28 282.00,626.26 284.94,623.20 287.88,619.91 290.83,616.21 293.78,613.56 296.73,611.52 299.67,610.51 302.62,609.37 305.57,608.61 308.50,608.74 311.45,608.55 314.40,608.30 317.34,608.59 320.29,608.54 323.24,608.52 326.18,608.47 329.12,608.33 332.07,606.77 335.01,605.54 337.96,604.40 340.91,602.60 343.85,599.20 346.80,594.83 349.74,590.56 352.68,586.28 355.63,581.45 358.58,575.32 361.53,569.34 364.47,563.58 367.42,558.09 370.36,551.88 373.30,545.70 376.25,539.65 379.20,533.83 382.14,528.17 385.09,522.74 388.04,517.40 390.97,512.20 393.92,505.42 396.87,496.29 399.81,485.46 402.76,474.61 405.71,462.59 408.65,450.84 411.59,439.08 414.54,427.16 417.48,414.90 420.43,413.06 423.38,412.70 426.32,412.24 429.27,411.76 432.21,416.34 435.16,424.63 438.10,432.70 441.05,440.93 444.00,448.50 446.94,454.67 449.89,461.00 452.84,467.51 455.77,474.22 458.72,476.81 461.67,479.68 464.61,482.82 467.56,486.25 470.51,487.37 473.45,487.72 476.39,488.57 479.34,489.78 482.28,490.13 485.23,489.22 488.18,488.91 491.12,488.84 494.07,488.84 497.01,487.29 499.96,486.02 502.90,485.03 505.85,484.30 508.80,482.37 511.74,480.41 514.69,478.77 517.63,477.41 520.57,475.60 523.52,473.52 526.47,471.69 529.41,469.82 532.36,468.01 535.31,465.84 538.24,464.04 541.19,462.57 544.14,461.45 547.08,458.88 550.03,456.74 552.98,455.02 555.92,453.73 558.86,452.36 561.81,451.22 564.76,449.18 567.70,447.53 570.65,446.06 573.60,444.63 576.54,443.32 579.49,442.38 582.43,439.60 585.37,436.83 588.32,434.26 591.27,431.87 594.21,429.67 597.16,427.87 600.11,423.73 603.04,419.69 605.99,415.61 608.94,412.13 611.88,409.23 614.83,406.52 617.78,401.76 620.72,397.50 623.66,394.29 626.61,391.32 629.55,388.55 632.50,385.97 635.45,382.79 638.40,379.73 641.34,376.78 644.28,373.91 647.23,371.13 650.17,368.33 653.12,364.28 656.07,359.84 659.01,355.21 661.96,350.50 664.90,345.80 667.84,340.84 670.79,334.13 673.74,329.10 676.68,323.93 679.63,318.54 682.58,312.88 685.51,310.36 688.46,307.49 691.41,305.12 694.35,304.09 697.30,304.78 700.25,307.16 703.20,310.35 706.14,314.37 709.08,318.82 712.03,322.72 714.97,327.53 717.92,333.32 720.87,340.14 723.81,343.29 726.76,346.95 729.70,351.15 732.64,355.93 735.59,357.01 738.54,356.64 741.48,356.75 744.43,357.15 747.38,355.48 750.31,350.66 753.26,346.14 756.21,341.62 759.15,337.01 762.10,328.31 765.05,319.49 767.99,310.50 770.93,301.33 773.88,288.87 776.83,276.66 779.77,264.23 782.72,252.47 785.67,239.84 788.61,226.37 791.55,212.56 794.50,199.61 797.44,187.08 800.39,175.87 803.34,164.27 806.28,152.29 809.23,139.94 812.17,135.72 815.11,130.72 818.06,124.96 821.01,118.48 823.95,118.45 826.90,120.58 829.85,122.34 832.79,123.32 835.73,128.26 838.68,138.88 841.63,148.74 844.57,157.55 847.52,166.85 850.47,181.87 853.41,196.19 856.35,209.82 859.30,222.71 862.24,236.19 865.19,250.87 868.14,265.26 871.08,278.39 874.03,289.05 876.97,298.25 879.91,307.49 882.86,318.31 885.81,327.69 888.75,333.96 891.70,340.56 894.65,347.38 897.58,354.38 900.53,357.50 903.48,360.97 906.43,364.68 909.37,368.57 912.32,370.81 915.27,372.53 918.20,374.07 921.15,375.63 924.10,376.79 927.04,377.50 929.99,377.05 932.94,376.52 935.88,375.11 938.82,374.00 941.77,372.96 944.71,371.91 947.66,370.76 950.61,368.41 953.55,363.59 956.50,358.33 959.44,349.94 962.38,339.67 965.33,328.79 968.28,317.72 971.22,298.42 974.17,280.03 977.12,269.00 980.06,260.60 983.00,255.21 985.95,253.21 988.90,237.27 991.84,227.74 994.79,225.65 997.74,232.02 1000.68,237.87 1003.62,246.76 1006.57,257.46 1009.51,279.60 1012.46,302.84 1015.41,319.21 1018.35,337.95 1021.30,361.32 1024.24,386.79 1027.18,396.10 1030.13,408.01 1033.08,422.36 1036.02,439.02 1038.97,450.29 1041.92,462.52 1044.86,476.37 1047.80,490.19 1050.75,505.29 1053.70,521.09 1056.64,536.65 1059.59,548.86 1062.54,559.46 1065.47,566.78 1068.42,573.52 1071.37,579.60 1074.31,584.92" fill="none" stroke="#000000" stroke-width="3"/>
<line x1="142" y1="100" x2="178" y2="100" stroke="#000000" stroke-width="4"/>
<text x="188" y="105" font-family="Arial" font-size="18" fill="black">epsilon</text>
</svg>