<svg xmlns="http://www.w3.org/2000/svg" width="1200" height="820" viewBox="0 0 1200 820">
<rect width="100%" height="100%" fill="white"/>
<text x="600.0" y="36" text-anchor="middle" font-family="Arial" font-size="24" fill="black">profile_rack_height_x: Q</text>
<line x1="120.00" y1="75" x2="120.00" y2="705" stroke="#dddddd" stroke-width="1"/>
<text x="120.00" y="737" text-anchor="middle" font-family="Arial" font-size="16" fill="black">-0.560</text>
<line x1="376.25" y1="75" x2="376.25" y2="705" stroke="#dddddd" stroke-width="1"/>
<text x="376.25" y="737" text-anchor="middle" font-family="Arial" font-size="16" fill="black">1.470</text>
<line x1="632.50" y1="75" x2="632.50" y2="705" stroke="#dddddd" stroke-width="1"/>
<text x="632.50" y="737" text-anchor="middle" font-family="Arial" font-size="16" fill="black">3.500</text>
<line x1="888.75" y1="75" x2="888.75" y2="705" stroke="#dddddd" stroke-width="1"/>
<text x="888.75" y="737" text-anchor="middle" font-family="Arial" font-size="16" fill="black">5.530</text>
<line x1="1145.00" y1="75" x2="1145.00" y2="705" stroke="#dddddd" stroke-width="1"/>
<text x="1145.00" y="737" text-anchor="middle" font-family="Arial" font-size="16" fill="black">7.560</text>
<line x1="120" y1="705.00" x2="1145" y2="705.00" stroke="#dddddd" stroke-width="1"/>
<text x="104" y="710.00" text-anchor="end" font-family="Arial" font-size="16" fill="black">-0.116</text>
<line x1="120" y1="547.50" x2="1145" y2="547.50" stroke="#dddddd" stroke-width="1"/>
<text x="104" y="552.50" text-anchor="end" font-family="Arial" font-size="16" fill="black">-0.041</text>
<line x1="120" y1="390.00" x2="1145" y2="390.00" stroke="#dddddd" stroke-width="1"/>
<text x="104" y="395.00" text-anchor="end" font-family="Arial" font-size="16" fill="black">0.034</text>
<line x1="120" y1="232.50" x2="1145" y2="232.50" stroke="#dddddd" stroke-width="1"/>
<text x="104" y="237.50" text-anchor="end" font-family="Arial" font-size="16" fill="black">0.110</text>
<line x1="120" y1="75.00" x2="1145" y2="75.00" stroke="#dddddd" stroke-width="1"/>
<text x="104" y="80.00" text-anchor="end" font-family="Arial" font-size="16" fill="black">0.185</text>
<rect x="120" y="75" width="1025" height="630" fill="none" stroke="black" stroke-width="2"/>
<text x="632.5" y="785" text-anchor="middle" font-family="Arial" font-size="20" fill="black">x coordinate [m]</text>
<text x="34" y="390.0" transform="rotate(-90 34 390.0)" text-anchor="middle" font-family="Arial" font-size="20" fill="black">Q [SI]</text>
<polyline points="190.69,486.71 193.64,473.25 196.58,459.79 199.53,446.33 202.47,432.87 205.42,409.98 208.36,383.32 211.31,356.66 214.25,330.01 217.20,304.97 220.14,282.09 223.09,259.21 226.03,236.33 228.98,214.45 231.93,198.55 234.87,182.65 237.82,166.74 240.76,150.84 243.71,142.31 246.65,135.00 249.60,127.71 252.54,120.40 255.49,118.45 258.43,120.50 261.38,122.58 264.32,124.63 267.27,128.97 270.22,138.98 273.16,148.98 276.11,158.99 279.05,169.01 282.00,184.85 284.94,200.67 287.89,216.49 290.83,232.31 293.78,249.30 296.72,266.73 299.67,284.17 302.62,301.60 305.56,317.94 308.51,332.82 311.45,347.70 314.40,362.58 317.34,376.91 320.29,387.94 323.23,398.97 326.17,410.00 329.13,421.03 332.07,430.40 335.01,439.49 337.96,448.59 340.91,457.68 343.85,466.85 346.80,476.07 349.74,485.30 352.68,494.52 355.64,504.26 358.58,515.26 361.52,526.26 364.47,537.26 367.41,548.27 370.35,560.93 373.31,573.60 376.25,586.27 379.19,598.93 382.15,609.91 385.09,620.22 388.03,630.53 390.98,640.84 393.92,648.27 396.86,651.89 399.82,655.50 402.76,659.11 405.70,661.55 408.65,656.99 411.59,652.44 414.54,647.88 417.49,643.32 420.43,633.55 423.37,622.91 426.33,612.27 429.27,601.64 432.21,590.06 435.16,577.78 438.10,565.51 441.04,553.23 444.00,541.54 446.94,531.32 449.88,521.11 452.83,510.89 455.78,500.67 458.72,493.94 461.67,487.21 464.61,480.48 467.55,473.74 470.51,469.34 473.45,465.86 476.39,462.38 479.34,458.89 482.28,456.39 485.23,455.19 488.18,454.00 491.12,452.80 494.06,451.77 497.02,451.79 499.96,451.81 502.90,451.82 505.85,451.84 508.79,452.09 511.73,452.37 514.69,452.65 517.63,452.94 520.57,453.06 523.52,453.05 526.47,453.05 529.41,453.05 532.36,452.95 535.30,452.60 538.24,452.25 541.20,451.90 544.14,451.55 547.08,451.34 550.03,451.13 552.97,450.91 555.92,450.70 558.87,451.21 561.81,452.00 564.75,452.80 567.71,453.59 570.65,455.07 573.59,457.46 576.54,459.85 579.48,462.23 582.42,464.82 585.38,468.60 588.32,472.39 591.26,476.17 594.21,479.96 597.16,483.93 600.10,487.95 603.05,491.96 605.99,495.97 608.93,498.95 611.89,501.16 614.83,503.37 617.77,505.58 620.72,506.74 623.66,505.29 626.60,503.84 629.56,502.38 632.50,500.93 635.44,495.53 638.40,490.13 641.34,484.73 644.28,479.33 647.23,472.44 650.17,464.95 653.11,457.47 656.07,449.98 659.01,442.86 661.95,436.25 664.90,429.63 667.84,423.01 670.79,416.82 673.74,413.21 676.68,409.59 679.62,405.97 682.58,402.36 685.52,401.69 688.46,401.51 691.41,401.34 694.35,401.16 697.29,402.36 700.25,404.58 703.19,406.81 706.13,409.04 709.08,411.51 712.03,414.62 714.97,417.72 717.92,420.82 720.86,423.93 723.80,427.04 726.76,430.14 729.70,433.25 732.64,436.36 735.59,439.30 738.53,442.19 741.48,445.07 744.43,447.96 747.37,450.77 750.31,453.47 753.27,456.17 756.21,458.88 759.15,461.57 762.10,464.22 765.04,466.88 767.98,469.53 770.94,472.18 773.88,474.69 776.82,477.17 779.77,479.65 782.72,482.13 785.66,484.34 788.61,486.34 791.55,488.35 794.49,490.36 797.45,492.41 800.39,494.58 803.33,496.75 806.28,498.92 809.22,501.09 812.17,502.49 815.12,503.89 818.06,505.29 821.00,506.69 823.96,506.70 826.90,506.16 829.84,505.62 832.79,505.07 835.73,504.18 838.67,502.82 841.63,501.46 844.57,500.10 847.51,498.85 850.46,498.21 853.41,497.58 856.35,496.95 859.30,496.32 862.24,497.69 865.18,499.39 868.14,501.08 871.08,502.78 874.02,506.12 876.97,510.70 879.91,515.27 882.85,519.85 885.81,524.95 888.75,531.38 891.69,537.80 894.65,544.23 897.59,550.66 900.53,556.82 903.48,562.97 906.42,569.13 909.36,575.29 912.32,579.52 915.26,582.99 918.20,586.46 921.15,589.93 924.09,591.51 927.04,590.59 929.99,589.67 932.93,588.75 935.87,587.23 938.83,582.14 941.77,577.05 944.71,571.96 947.66,566.87 950.60,559.85 953.54,552.51 956.50,545.16 959.44,537.82 962.38,530.36 965.33,522.83 968.28,515.29 971.22,507.76 974.17,500.54 977.11,494.11 980.05,487.69 983.01,481.26 985.95,474.84 988.89,470.03 991.84,465.23 994.78,460.43 997.73,455.62 1000.68,451.97 1003.62,448.77 1006.56,445.58 1009.52,442.38 1012.46,439.74 1015.40,437.83 1018.35,435.92 1021.29,434.02 1024.23,432.23 1027.19,431.22 1030.13,430.20 1033.07,429.19 1036.02,428.17 1038.97,427.52 1041.91,426.93 1044.86,426.34 1047.80,425.75 1050.74,427.05 1053.70,429.78 1056.64,432.50 1059.58,435.23 1062.53,438.03 1065.47,441.01 1068.42,444.00 1071.37,446.98 1074.31,449.96" fill="none" stroke="#000000" stroke-width="3"/>
<line x1="142" y1="100" x2="178" y2="100" stroke="#000000" stroke-width="4"/>
<text x="188" y="105" font-family="Arial" font-size="18" fill="black">Q</text>
</svg>