<svg xmlns="http://www.w3.org/2000/svg" width="1200" height="820" viewBox="0 0 1200 820">
<rect width="100%" height="100%" fill="white"/>
<text x="600.0" y="36" text-anchor="middle" font-family="Arial" font-size="24" fill="black">profile_center_y: U, V, W components</text>
<line x1="120.00" y1="75" x2="120.00" y2="705" stroke="#dddddd" stroke-width="1"/>
<text x="120.00" y="737" text-anchor="middle" font-family="Arial" font-size="16" fill="black">-0.400</text>
<line x1="376.25" y1="75" x2="376.25" y2="705" stroke="#dddddd" stroke-width="1"/>
<text x="376.25" y="737" text-anchor="middle" font-family="Arial" font-size="16" fill="black">1.050</text>
<line x1="632.50" y1="75" x2="632.50" y2="705" stroke="#dddddd" stroke-width="1"/>
<text x="632.50" y="737" text-anchor="middle" font-family="Arial" font-size="16" fill="black">2.500</text>
<line x1="888.75" y1="75" x2="888.75" y2="705" stroke="#dddddd" stroke-width="1"/>
<text x="888.75" y="737" text-anchor="middle" font-family="Arial" font-size="16" fill="black">3.950</text>
<line x1="1145.00" y1="75" x2="1145.00" y2="705" stroke="#dddddd" stroke-width="1"/>
<text x="1145.00" y="737" text-anchor="middle" font-family="Arial" font-size="16" fill="black">5.400</text>
<line x1="120" y1="705.00" x2="1145" y2="705.00" stroke="#dddddd" stroke-width="1"/>
<text x="104" y="710.00" text-anchor="end" font-family="Arial" font-size="16" fill="black">-0.334</text>
<line x1="120" y1="547.50" x2="1145" y2="547.50" stroke="#dddddd" stroke-width="1"/>
<text x="104" y="552.50" text-anchor="end" font-family="Arial" font-size="16" fill="black">-0.151</text>
<line x1="120" y1="390.00" x2="1145" y2="390.00" stroke="#dddddd" stroke-width="1"/>
<text x="104" y="395.00" text-anchor="end" font-family="Arial" font-size="16" fill="black">0.032</text>
<line x1="120" y1="232.50" x2="1145" y2="232.50" stroke="#dddddd" stroke-width="1"/>
<text x="104" y="237.50" text-anchor="end" font-family="Arial" font-size="16" fill="black">0.215</text>
<line x1="120" y1="75.00" x2="1145" y2="75.00" stroke="#dddddd" stroke-width="1"/>
<text x="104" y="80.00" text-anchor="end" font-family="Arial" font-size="16" fill="black">0.398</text>
<rect x="120" y="75" width="1025" height="630" fill="none" stroke="black" stroke-width="2"/>
<text x="632.5" y="785" text-anchor="middle" font-family="Arial" font-size="20" fill="black">y coordinate [m]</text>
<text x="34" y="390.0" transform="rotate(-90 34 390.0)" text-anchor="middle" font-family="Arial" font-size="20" fill="black">velocity component [m/s]</text>
<polyline points="190.69,313.02 193.64,312.63 196.58,312.25 199.53,311.87 202.47,311.48 205.42,311.10 208.36,310.72 211.31,310.54 214.25,310.35 217.20,310.16 220.14,309.98 223.09,309.79 226.03,309.61 228.98,310.55 231.92,311.49 234.87,312.43 237.82,313.37 240.76,314.31 243.71,315.25 246.65,317.41 249.60,319.58 252.54,321.73 255.49,323.89 258.43,326.06 261.38,328.22 264.33,331.85 267.27,335.49 270.22,339.12 273.16,342.76 276.11,346.39 279.05,350.03 282.00,355.21 284.94,360.39 287.89,365.57 290.83,370.75 293.78,375.93 296.72,381.11 299.67,387.57 302.61,394.02 305.56,400.48 308.51,406.94 311.45,413.39 314.40,419.85 317.34,427.01 320.29,434.17 323.23,441.33 326.18,448.48 329.12,455.64 332.07,462.80 335.01,469.94 337.96,477.08 340.91,484.21 343.85,491.35 346.80,498.49 349.74,505.63 352.69,512.18 355.63,518.72 358.58,525.28 361.52,531.83 364.47,538.37 367.41,544.93 370.37,550.77 373.30,556.60 376.25,562.44 379.20,568.27 382.13,574.10 385.09,579.94 388.04,585.18 390.97,590.44 393.92,595.68 396.87,600.93 399.81,606.19 402.76,611.43 405.71,615.95 408.64,620.48 411.59,625.00 414.55,629.53 417.48,634.05 420.43,638.56 423.38,641.65 426.32,644.73 429.27,647.82 432.22,650.90 435.15,653.98 438.10,657.06 441.05,657.81 443.99,658.56 446.94,659.31 449.89,660.06 452.82,660.80 455.78,661.55 458.73,659.59 461.66,657.63 464.61,655.67 467.56,653.71 470.50,651.75 473.45,649.79 476.40,645.57 479.33,641.35 482.28,637.14 485.24,632.91 488.17,628.70 491.12,624.48 494.07,618.84 497.01,613.21 499.96,607.59 502.91,601.95 505.84,596.32 508.79,590.69 511.74,584.41 514.68,578.12 517.63,571.85 520.58,565.56 523.51,559.28 526.47,553.00 529.42,546.72 532.35,540.43 535.30,534.14 538.25,527.85 541.19,521.56 544.14,515.28 547.09,509.50 550.02,503.73 552.97,497.96 555.93,492.18 558.86,486.41 561.81,480.63 564.76,475.72 567.70,470.81 570.65,465.89 573.60,460.98 576.53,456.06 579.48,451.15 582.43,447.24 585.37,443.33 588.32,439.42 591.27,435.52 594.20,431.61 597.16,427.70 600.11,424.81 603.04,421.91 605.99,419.01 608.94,416.12 611.88,413.22 614.83,410.33 617.78,408.38 620.71,406.42 623.66,404.47 626.62,402.52 629.55,400.57 632.50,398.61 635.45,397.48 638.38,396.34 641.34,395.21 644.29,394.07 647.22,392.94 650.17,391.81 653.12,391.33 656.06,390.85 659.01,390.37 661.96,389.89 664.89,389.41 667.84,388.93 670.80,388.91 673.73,388.89 676.68,388.87 679.63,388.85 682.57,388.83 685.52,388.81 688.47,389.02 691.40,389.23 694.35,389.45 697.30,389.66 700.24,389.88 703.19,390.09 706.14,390.29 709.07,390.49 712.03,390.69 714.98,390.89 717.91,391.10 720.86,391.30 723.81,391.26 726.75,391.22 729.70,391.19 732.65,391.15 735.58,391.11 738.53,391.07 741.49,390.66 744.42,390.25 747.37,389.84 750.32,389.42 753.26,389.01 756.21,388.60 759.16,387.77 762.09,386.94 765.04,386.11 767.99,385.29 770.93,384.46 773.88,383.63 776.83,382.41 779.76,381.18 782.72,379.95 785.67,378.73 788.60,377.50 791.55,376.28 794.50,374.69 797.44,373.11 800.39,371.52 803.34,369.93 806.27,368.35 809.22,366.76 812.18,364.90 815.11,363.03 818.06,361.16 821.01,359.30 823.95,357.43 826.90,355.56 829.85,353.50 832.78,351.44 835.73,349.37 838.68,347.31 841.62,345.25 844.57,343.19 847.52,341.02 850.45,338.85 853.41,336.69 856.36,334.52 859.29,332.36 862.24,330.19 865.19,328.05 868.13,325.92 871.08,323.79 874.03,321.66 876.96,319.52 879.91,317.39 882.87,315.43 885.80,313.48 888.75,311.53 891.70,309.56 894.63,307.61 897.59,305.65 900.54,303.98 903.47,302.32 906.42,300.64 909.37,298.97 912.31,297.30 915.26,295.63 918.21,294.20 921.14,292.76 924.09,291.32 927.05,289.89 929.98,288.45 932.93,287.02 935.88,285.60 938.82,284.18 941.77,282.76 944.72,281.34 947.65,279.91 950.60,278.49 953.55,276.82 956.49,275.13 959.44,273.45 962.39,271.77 965.32,270.09 968.28,268.41 971.23,266.22 974.16,264.04 977.11,261.84 980.06,259.66 983.00,257.47 985.95,255.28 988.90,252.45 991.83,249.63 994.78,246.80 997.74,243.98 1000.67,241.15 1003.62,238.33 1006.57,234.98 1009.51,231.61 1012.46,228.26 1015.41,224.90 1018.34,221.54 1021.29,218.18 1024.24,214.72 1027.18,211.26 1030.13,207.79 1033.08,204.33 1036.01,200.86 1038.97,197.40 1041.92,194.92 1044.85,192.43 1047.80,189.96 1050.75,187.47 1053.69,184.99 1056.64,182.51 1059.59,181.72 1062.52,180.92 1065.47,180.12 1068.43,179.33 1071.36,178.53 1074.31,177.73" fill="none" stroke="#000000" stroke-width="3"/>
<line x1="142" y1="100" x2="178" y2="100" stroke="#000000" stroke-width="4"/>
<text x="188" y="105" font-family="Arial" font-size="18" fill="black">Ux / u</text>
<polyline points="190.69,395.05 193.64,393.20 196.58,391.35 199.53,389.50 202.47,387.65 205.42,385.81 208.36,383.96 211.31,380.69 214.25,377.42 217.20,374.15 220.14,370.89 223.09,367.62 226.03,364.35 228.98,362.21 231.92,360.06 234.87,357.92 237.82,355.77 240.76,353.63 243.71,351.48 246.65,350.59 249.60,349.70 252.54,348.80 255.49,347.91 258.43,347.02 261.38,346.12 264.33,346.12 267.27,346.11 270.22,346.11 273.16,346.10 276.11,346.10 279.05,346.09 282.00,346.59 284.94,347.09 287.89,347.60 290.83,348.10 293.78,348.60 296.72,349.10 299.67,349.88 302.61,350.66 305.56,351.43 308.51,352.21 311.45,352.99 314.40,353.76 317.34,354.67 320.29,355.57 323.23,356.47 326.18,357.38 329.12,358.28 332.07,359.19 335.01,360.11 337.96,361.03 340.91,361.95 343.85,362.87 346.80,363.79 349.74,364.71 352.69,365.59 355.63,366.46 358.58,367.34 361.52,368.22 364.47,369.10 367.41,369.98 370.37,370.85 373.30,371.73 376.25,372.60 379.20,373.48 382.13,374.35 385.09,375.23 388.04,376.22 390.97,377.22 393.92,378.22 396.87,379.22 399.81,380.22 402.76,381.22 405.71,382.46 408.64,383.69 411.59,384.93 414.55,386.17 417.48,387.41 420.43,388.64 423.38,390.10 426.32,391.55 429.27,393.00 432.22,394.45 435.15,395.91 438.10,397.36 441.05,398.90 443.99,400.44 446.94,401.98 449.89,403.52 452.82,405.06 455.78,406.60 458.73,408.18 461.66,409.76 464.61,411.33 467.56,412.91 470.50,414.48 473.45,416.06 476.40,417.68 479.33,419.31 482.28,420.93 485.24,422.56 488.17,424.18 491.12,425.80 494.07,427.49 497.01,429.17 499.96,430.85 502.91,432.54 505.84,434.22 508.79,435.90 511.74,437.61 514.68,439.32 517.63,441.03 520.58,442.73 523.51,444.44 526.47,446.15 529.42,447.77 532.35,449.39 535.30,451.02 538.25,452.64 541.19,454.26 544.14,455.88 547.09,457.30 550.02,458.71 552.97,460.12 555.93,461.54 558.86,462.95 561.81,464.36 564.76,465.50 567.70,466.64 570.65,467.78 573.60,468.92 576.53,470.06 579.48,471.20 582.43,472.07 585.37,472.94 588.32,473.82 591.27,474.69 594.20,475.56 597.16,476.43 600.11,477.11 603.04,477.78 605.99,478.46 608.94,479.13 611.88,479.80 614.83,480.48 617.78,481.05 620.71,481.61 623.66,482.18 626.62,482.75 629.55,483.32 632.50,483.88 635.45,484.42 638.38,484.96 641.34,485.49 644.29,486.03 647.22,486.56 650.17,487.10 653.12,487.64 656.06,488.18 659.01,488.72 661.96,489.27 664.89,489.81 667.84,490.35 670.80,490.92 673.73,491.48 676.68,492.05 679.63,492.62 682.57,493.18 685.52,493.75 688.47,494.35 691.40,494.95 694.35,495.55 697.30,496.15 700.24,496.75 703.19,497.35 706.14,497.97 709.07,498.60 712.03,499.22 714.98,499.85 717.91,500.47 720.86,501.10 723.81,501.71 726.75,502.32 729.70,502.94 732.65,503.55 735.58,504.16 738.53,504.77 741.49,505.31 744.42,505.85 747.37,506.39 750.32,506.92 753.26,507.47 756.21,508.01 759.16,508.42 762.09,508.84 765.04,509.26 767.99,509.68 770.93,510.09 773.88,510.51 776.83,510.78 779.76,511.04 782.72,511.30 785.67,511.57 788.60,511.84 791.55,512.10 794.50,512.21 797.44,512.32 800.39,512.42 803.34,512.52 806.27,512.64 809.22,512.74 812.18,512.70 815.11,512.67 818.06,512.64 821.01,512.60 823.95,512.57 826.90,512.53 829.85,512.39 832.78,512.25 835.73,512.10 838.68,511.96 841.62,511.82 844.57,511.68 847.52,511.46 850.45,511.24 853.41,511.03 856.36,510.80 859.29,510.59 862.24,510.37 865.19,510.09 868.13,509.81 871.08,509.53 874.03,509.25 876.96,508.97 879.91,508.69 882.87,508.34 885.80,507.98 888.75,507.62 891.70,507.27 894.63,506.92 897.59,506.56 900.54,506.12 903.47,505.68 906.42,505.23 909.37,504.79 912.31,504.34 915.26,503.91 918.21,503.34 921.14,502.78 924.09,502.22 927.05,501.65 929.98,501.09 932.93,500.53 935.88,499.78 938.82,499.02 941.77,498.27 944.72,497.52 947.65,496.76 950.60,496.01 953.55,494.95 956.49,493.90 959.44,492.84 962.39,491.78 965.32,490.72 968.28,489.66 971.23,488.17 974.16,486.68 977.11,485.19 980.06,483.69 983.00,482.20 985.95,480.71 988.90,478.70 991.83,476.70 994.78,474.70 997.74,472.69 1000.67,470.69 1003.62,468.68 1006.57,466.25 1009.51,463.82 1012.46,461.38 1015.41,458.95 1018.34,456.51 1021.29,454.08 1024.24,451.49 1027.18,448.90 1030.13,446.31 1033.08,443.73 1036.01,441.14 1038.97,438.55 1041.92,436.25 1044.85,433.95 1047.80,431.64 1050.75,429.34 1053.69,427.04 1056.64,424.74 1059.59,423.72 1062.52,422.71 1065.47,421.69 1068.43,420.68 1071.36,419.66 1074.31,418.65" fill="none" stroke="#555555" stroke-width="3" stroke-dasharray="9 5"/>
<line x1="142" y1="128" x2="178" y2="128" stroke="#555555" stroke-width="4" stroke-dasharray="9 5"/>
<text x="188" y="133" font-family="Arial" font-size="18" fill="black">Uy / v</text>
<polyline points="190.69,468.75 193.64,467.41 196.58,466.07 199.53,464.73 202.47,463.39 205.42,462.05 208.36,460.71 211.31,457.64 214.25,454.58 217.20,451.52 220.14,448.46 223.09,445.40 226.03,442.33 228.98,438.70 231.92,435.06 234.87,431.43 237.82,427.79 240.76,424.15 243.71,420.52 246.65,416.84 249.60,413.17 252.54,409.49 255.49,405.82 258.43,402.14 261.38,398.47 264.33,395.20 267.27,391.92 270.22,388.65 273.16,385.38 276.11,382.10 279.05,378.83 282.00,375.98 284.94,373.13 287.89,370.28 290.83,367.44 293.78,364.59 296.72,361.74 299.67,359.04 302.61,356.33 305.56,353.63 308.51,350.92 311.45,348.22 314.40,345.51 317.34,342.36 320.29,339.21 323.23,336.07 326.18,332.92 329.12,329.77 332.07,326.62 335.01,322.27 337.96,317.92 340.91,313.57 343.85,309.22 346.80,304.87 349.74,300.53 352.69,294.56 355.63,288.59 358.58,282.62 361.52,276.65 364.47,270.68 367.41,264.72 370.37,258.29 373.30,251.88 376.25,245.45 379.20,239.03 382.13,232.61 385.09,226.19 388.04,221.33 390.97,216.47 393.92,211.61 396.87,206.75 399.81,201.89 402.76,197.03 405.71,194.87 408.64,192.69 411.59,190.52 414.55,188.35 417.48,186.17 420.43,184.00 423.38,184.63 426.32,185.26 429.27,185.89 432.22,186.53 435.15,187.15 438.10,187.78 441.05,190.46 443.99,193.15 446.94,195.83 449.89,198.51 452.82,201.20 455.78,203.87 458.73,207.52 461.66,211.16 464.61,214.81 467.56,218.46 470.50,222.09 473.45,225.74 476.40,229.52 479.33,233.30 482.28,237.08 485.24,240.85 488.17,244.63 491.12,248.41 494.07,252.13 497.01,255.84 499.96,259.56 502.91,263.27 505.84,266.99 508.79,270.70 511.74,274.63 514.68,278.56 517.63,282.50 520.58,286.43 523.51,290.36 526.47,294.29 529.42,298.52 532.35,302.76 535.30,306.99 538.25,311.22 541.19,315.46 544.14,319.69 547.09,323.46 550.02,327.24 552.97,331.02 555.93,334.80 558.86,338.57 561.81,342.35 564.76,344.74 567.70,347.14 570.65,349.53 573.60,351.93 576.53,354.32 579.48,356.71 582.43,357.39 585.37,358.06 588.32,358.74 591.27,359.41 594.20,360.09 597.16,360.76 600.11,359.66 603.04,358.56 605.99,357.46 608.94,356.36 611.88,355.26 614.83,354.16 617.78,351.41 620.71,348.66 623.66,345.91 626.62,343.16 629.55,340.41 632.50,337.65 635.45,333.50 638.38,329.35 641.34,325.20 644.29,321.05 647.22,316.90 650.17,312.75 653.12,307.54 656.06,302.32 659.01,297.09 661.96,291.87 664.89,286.65 667.84,281.44 670.80,275.53 673.73,269.62 676.68,263.71 679.63,257.79 682.57,251.88 685.52,245.98 688.47,239.82 691.40,233.65 694.35,227.50 697.30,221.34 700.24,215.18 703.19,209.01 706.14,203.22 709.07,197.41 712.03,191.61 714.98,185.80 717.91,180.00 720.86,174.20 723.81,169.66 726.75,165.13 729.70,160.60 732.65,156.06 735.58,151.53 738.53,146.99 741.49,144.15 744.42,141.32 747.37,138.48 750.32,135.63 753.26,132.79 756.21,129.95 759.16,128.47 762.09,126.99 765.04,125.50 767.99,124.02 770.93,122.53 773.88,121.05 776.83,120.62 779.76,120.19 782.72,119.75 785.67,119.32 788.60,118.88 791.55,118.45 794.50,118.96 797.44,119.47 800.39,119.98 803.34,120.50 806.27,121.00 809.22,121.52 812.18,123.02 815.11,124.53 818.06,126.03 821.01,127.53 823.95,129.03 826.90,130.54 829.85,133.10 832.78,135.67 835.73,138.23 838.68,140.78 841.62,143.35 844.57,145.91 847.52,149.48 850.45,153.05 853.41,156.62 856.36,160.19 859.29,163.76 862.24,167.34 865.19,171.65 868.13,175.96 871.08,180.28 874.03,184.60 876.96,188.91 879.91,193.22 882.87,197.65 885.80,202.06 888.75,206.48 891.70,210.89 894.63,215.31 897.59,219.72 900.54,223.02 903.47,226.33 906.42,229.62 909.37,232.92 912.31,236.22 915.26,239.53 918.21,241.15 921.14,242.78 924.09,244.40 927.05,246.03 929.98,247.65 932.93,249.28 935.88,249.83 938.82,250.39 941.77,250.94 944.72,251.50 947.65,252.05 950.60,252.60 953.55,252.83 956.49,253.05 959.44,253.28 962.39,253.50 965.32,253.73 968.28,253.96 971.23,254.54 974.16,255.13 977.11,255.72 980.06,256.31 983.00,256.90 985.95,257.48 988.90,259.08 991.83,260.69 994.78,262.29 997.74,263.89 1000.67,265.50 1003.62,267.10 1006.57,270.34 1009.51,273.58 1012.46,276.82 1015.41,280.07 1018.34,283.32 1021.29,286.56 1024.24,292.14 1027.18,297.73 1030.13,303.31 1033.08,308.90 1036.01,314.48 1038.97,320.07 1041.92,329.34 1044.85,338.61 1047.80,347.88 1050.75,357.15 1053.69,366.42 1056.64,375.69 1059.59,381.49 1062.52,387.28 1065.47,393.07 1068.43,398.87 1071.36,404.66 1074.31,410.46" fill="none" stroke="#999999" stroke-width="3" stroke-dasharray="3 4"/>
<line x1="142" y1="156" x2="178" y2="156" stroke="#999999" stroke-width="4" stroke-dasharray="3 4"/>
<text x="188" y="161" font-family="Arial" font-size="18" fill="black">Uz / w</text>
</svg>