<svg xmlns="http://www.w3.org/2000/svg" width="1200" height="820" viewBox="0 0 1200 820">
<rect width="100%" height="100%" fill="white"/>
<text x="600.0" y="36" text-anchor="middle" font-family="Arial" font-size="24" fill="black">profile_center_x: p_rgh</text>
<line x1="120.00" y1="75" x2="120.00" y2="705" stroke="#dddddd" stroke-width="1"/>
<text x="120.00" y="737" text-anchor="middle" font-family="Arial" font-size="16" fill="black">-0.560</text>
<line x1="376.25" y1="75" x2="376.25" y2="705" stroke="#dddddd" stroke-width="1"/>
<text x="376.25" y="737" text-anchor="middle" font-family="Arial" font-size="16" fill="black">1.470</text>
<line x1="632.50" y1="75" x2="632.50" y2="705" stroke="#dddddd" stroke-width="1"/>
<text x="632.50" y="737" text-anchor="middle" font-family="Arial" font-size="16" fill="black">3.500</text>
<line x1="888.75" y1="75" x2="888.75" y2="705" stroke="#dddddd" stroke-width="1"/>
<text x="888.75" y="737" text-anchor="middle" font-family="Arial" font-size="16" fill="black">5.530</text>
<line x1="1145.00" y1="75" x2="1145.00" y2="705" stroke="#dddddd" stroke-width="1"/>
<text x="1145.00" y="737" text-anchor="middle" font-family="Arial" font-size="16" fill="black">7.560</text>
<line x1="120" y1="705.00" x2="1145" y2="705.00" stroke="#dddddd" stroke-width="1"/>
<text x="104" y="710.00" text-anchor="end" font-family="Arial" font-size="16" fill="black">0.224</text>
<line x1="120" y1="547.50" x2="1145" y2="547.50" stroke="#dddddd" stroke-width="1"/>
<text x="104" y="552.50" text-anchor="end" font-family="Arial" font-size="16" fill="black">0.264</text>
<line x1="120" y1="390.00" x2="1145" y2="390.00" stroke="#dddddd" stroke-width="1"/>
<text x="104" y="395.00" text-anchor="end" font-family="Arial" font-size="16" fill="black">0.303</text>
<line x1="120" y1="232.50" x2="1145" y2="232.50" stroke="#dddddd" stroke-width="1"/>
<text x="104" y="237.50" text-anchor="end" font-family="Arial" font-size="16" fill="black">0.342</text>
<line x1="120" y1="75.00" x2="1145" y2="75.00" stroke="#dddddd" stroke-width="1"/>
<text x="104" y="80.00" text-anchor="end" font-family="Arial" font-size="16" fill="black">0.382</text>
<rect x="120" y="75" width="1025" height="630" fill="none" stroke="black" stroke-width="2"/>
<text x="632.5" y="785" text-anchor="middle" font-family="Arial" font-size="20" fill="black">x coordinate [m]</text>
<text x="34" y="390.0" transform="rotate(-90 34 390.0)" text-anchor="middle" font-family="Arial" font-size="20" fill="black">p_rgh [Pa]</text>
<polyline points="190.69,316.36 193.64,312.72 196.58,309.04 199.53,305.40 202.47,301.76 205.42,297.04 208.36,291.84 211.31,286.64 214.25,281.48 217.20,277.56 220.14,275.32 223.09,273.12 226.03,270.88 228.98,268.76 231.93,267.12 234.87,265.52 237.82,263.88 240.76,262.24 243.71,259.84 246.65,257.28 249.60,254.72 252.54,252.20 255.49,249.32 258.43,246.20 261.38,243.08 264.32,239.96 267.27,237.24 270.22,235.60 273.16,233.96 276.11,232.32 279.05,230.68 282.00,233.24 284.94,235.80 287.89,238.36 290.83,240.96 293.78,248.04 296.72,256.96 299.67,265.84 302.62,274.76 305.56,286.24 308.51,301.12 311.45,316.00 314.40,330.88 317.34,345.92 320.29,361.76 323.23,377.60 326.17,393.44 329.13,409.28 332.07,419.68 335.01,429.16 337.96,438.68 340.91,448.20 343.85,451.96 346.80,451.48 349.74,450.96 352.68,450.48 355.64,447.48 358.58,438.28 361.52,429.08 364.47,419.88 367.41,410.64 370.35,396.00 373.31,381.36 376.25,366.72 379.19,352.08 382.15,335.88 385.09,319.00 388.03,302.16 390.98,285.28 393.92,268.84 396.86,252.92 399.82,237.00 402.76,221.09 405.70,205.73 408.65,193.65 411.59,181.57 414.54,169.53 417.49,157.45 420.43,149.93 423.37,143.13 426.33,136.37 429.27,129.57 432.21,125.53 435.16,123.53 438.10,121.53 441.04,119.53 444.00,118.45 446.94,119.81 449.88,121.13 452.83,122.45 455.78,123.77 458.72,127.29 461.67,130.77 464.61,134.25 467.55,137.77 470.51,142.17 473.45,146.97 476.39,151.77 479.34,156.57 482.28,161.61 485.23,166.97 488.18,172.29 491.12,177.65 494.06,183.01 497.02,188.37 499.96,193.69 502.90,199.05 505.85,204.37 508.79,209.41 511.73,214.37 514.69,219.33 517.63,224.29 520.57,228.96 523.52,233.40 526.47,237.88 529.41,242.36 532.36,246.72 535.30,250.84 538.24,254.96 541.20,259.04 544.14,263.16 547.08,267.20 550.03,271.24 552.97,275.28 555.92,279.36 558.87,283.60 561.81,287.92 564.75,292.28 567.71,296.60 570.65,301.24 573.59,306.20 576.54,311.16 579.48,316.12 582.42,321.16 585.38,326.92 588.32,332.64 591.26,338.36 594.21,344.12 597.16,350.40 600.10,356.76 603.05,363.12 605.99,369.48 608.93,375.88 611.89,382.32 614.83,388.76 617.77,395.20 620.72,401.40 623.66,406.96 626.60,412.52 629.56,418.08 632.50,423.64 635.44,426.92 638.40,430.20 641.34,433.48 644.28,436.76 647.23,437.36 650.17,436.88 653.11,436.40 656.07,435.92 659.01,433.52 661.95,428.52 664.90,423.52 667.84,418.52 670.79,412.96 673.74,404.04 676.68,395.16 679.62,386.24 682.58,377.32 685.52,366.64 688.46,355.68 691.41,344.68 694.35,333.72 697.29,322.72 700.25,311.76 703.19,300.80 706.13,289.84 709.08,279.32 712.03,269.88 714.97,260.44 717.92,251.00 720.86,241.56 723.80,234.48 726.76,227.44 729.70,220.37 732.64,213.29 735.59,208.13 738.53,203.73 741.48,199.33 744.43,194.93 747.37,191.69 750.31,189.93 753.27,188.17 756.21,186.45 759.15,185.09 762.10,185.89 765.04,186.73 767.98,187.53 770.94,188.37 773.88,191.29 776.82,194.53 779.77,197.81 782.72,201.05 785.66,205.61 788.61,211.09 791.55,216.61 794.49,222.09 797.45,228.12 800.39,235.56 803.33,242.96 806.28,250.36 809.22,257.80 812.17,266.56 815.12,275.36 818.06,284.12 821.00,292.92 823.96,302.12 826.90,311.44 829.84,320.80 832.79,330.16 835.73,339.28 838.67,348.16 841.63,357.00 844.57,365.88 847.51,374.52 850.46,381.72 853.41,388.96 856.35,396.16 859.30,403.40 862.24,408.60 865.18,413.52 868.14,418.40 871.08,423.28 874.02,427.00 876.97,429.80 879.91,432.64 882.85,435.48 885.81,438.00 888.75,439.80 891.69,441.56 894.65,443.32 897.59,445.12 900.53,446.68 903.48,448.24 906.42,449.84 909.36,451.40 912.32,452.88 915.26,454.28 918.20,455.72 921.15,457.16 924.09,458.32 927.04,459.12 929.99,459.92 932.93,460.72 935.87,461.44 938.83,461.60 941.77,461.80 944.71,461.96 947.66,462.16 950.60,462.56 953.54,463.04 956.50,463.48 959.44,463.92 962.38,465.16 965.33,466.96 968.28,468.76 971.22,470.56 974.17,472.84 977.11,476.40 980.05,479.96 983.01,483.56 985.95,487.12 988.89,492.16 991.84,497.20 994.78,502.24 997.73,507.28 1000.68,512.92 1003.62,518.84 1006.56,524.72 1009.52,530.64 1012.46,536.64 1015.40,542.80 1018.35,548.96 1021.29,555.11 1024.23,561.23 1027.19,567.27 1030.13,573.35 1033.07,579.39 1036.02,585.43 1038.97,591.55 1041.91,597.63 1044.86,603.75 1047.80,609.83 1050.74,616.63 1053.70,623.91 1056.64,631.19 1059.58,638.47 1062.53,644.87 1065.47,649.07 1068.42,653.23 1071.37,657.39 1074.31,661.55" fill="none" stroke="#000000" stroke-width="3"/>
<line x1="142" y1="100" x2="178" y2="100" stroke="#000000" stroke-width="4"/>
<text x="188" y="105" font-family="Arial" font-size="18" fill="black">p_rgh</text>
</svg>