<svg xmlns="http://www.w3.org/2000/svg" width="1200" height="820" viewBox="0 0 1200 820">
<rect width="100%" height="100%" fill="white"/>
<text x="600.0" y="36" text-anchor="middle" font-family="Arial" font-size="24" fill="black">Umag profile along x-centerline</text>
<line x1="115.00" y1="75" x2="115.00" y2="705" stroke="#dddddd" stroke-width="1"/>
<text x="115.00" y="737" text-anchor="middle" font-family="Arial" font-size="16" fill="black">-0.560</text>
<line x1="372.50" y1="75" x2="372.50" y2="705" stroke="#dddddd" stroke-width="1"/>
<text x="372.50" y="737" text-anchor="middle" font-family="Arial" font-size="16" fill="black">1.470</text>
<line x1="630.00" y1="75" x2="630.00" y2="705" stroke="#dddddd" stroke-width="1"/>
<text x="630.00" y="737" text-anchor="middle" font-family="Arial" font-size="16" fill="black">3.500</text>
<line x1="887.50" y1="75" x2="887.50" y2="705" stroke="#dddddd" stroke-width="1"/>
<text x="887.50" y="737" text-anchor="middle" font-family="Arial" font-size="16" fill="black">5.530</text>
<line x1="1145.00" y1="75" x2="1145.00" y2="705" stroke="#dddddd" stroke-width="1"/>
<text x="1145.00" y="737" text-anchor="middle" font-family="Arial" font-size="16" fill="black">7.560</text>
<line x1="115" y1="705.00" x2="1145" y2="705.00" stroke="#dddddd" stroke-width="1"/>
<text x="99" y="710.00" text-anchor="end" font-family="Arial" font-size="16" fill="black">0.007</text>
<line x1="115" y1="547.50" x2="1145" y2="547.50" stroke="#dddddd" stroke-width="1"/>
<text x="99" y="552.50" text-anchor="end" font-family="Arial" font-size="16" fill="black">0.084</text>
<line x1="115" y1="390.00" x2="1145" y2="390.00" stroke="#dddddd" stroke-width="1"/>
<text x="99" y="395.00" text-anchor="end" font-family="Arial" font-size="16" fill="black">0.160</text>
<line x1="115" y1="232.50" x2="1145" y2="232.50" stroke="#dddddd" stroke-width="1"/>
<text x="99" y="237.50" text-anchor="end" font-family="Arial" font-size="16" fill="black">0.236</text>
<line x1="115" y1="75.00" x2="1145" y2="75.00" stroke="#dddddd" stroke-width="1"/>
<text x="99" y="80.00" text-anchor="end" font-family="Arial" font-size="16" fill="black">0.312</text>
<rect x="115" y="75" width="1030" height="630" fill="none" stroke="black" stroke-width="2"/>
<text x="630.0" y="785" text-anchor="middle" font-family="Arial" font-size="20" fill="black">x coordinate [m]</text>
<text x="34" y="390.0" transform="rotate(-90 34 390.0)" text-anchor="middle" font-family="Arial" font-size="20" fill="black">Umag [m/s]</text>
<polyline points="186.03,661.55 188.99,652.27 191.95,642.98 194.91,633.70 197.87,624.41 200.83,593.96 203.79,555.03 206.75,516.11 209.71,477.18 212.67,450.25 215.63,439.28 218.59,428.34 221.55,417.38 224.51,408.15 227.47,409.27 230.43,410.41 233.39,411.52 236.35,412.66 239.31,419.26 242.27,426.77 245.23,434.28 248.19,441.81 251.15,451.16 254.11,461.89 257.07,472.63 260.03,483.38 262.99,494.39 265.95,506.12 268.91,517.86 271.87,529.59 274.83,541.32 277.79,551.99 280.75,562.65 283.71,573.32 286.67,583.99 289.63,591.78 292.59,598.41 295.55,605.04 298.51,611.67 301.47,614.82 304.42,613.35 307.39,611.88 310.34,610.41 313.30,607.79 316.27,598.27 319.22,588.76 322.18,579.25 325.15,569.74 328.10,556.23 331.06,542.07 334.03,527.90 336.98,513.74 339.94,498.26 342.91,481.77 345.86,465.28 348.82,448.82 351.79,432.19 354.74,415.18 357.70,398.18 360.67,381.20 363.62,364.19 366.58,348.49 369.54,332.79 372.50,317.07 375.46,301.37 378.42,287.82 381.38,275.12 384.33,262.42 387.30,249.74 390.26,238.90 393.21,230.52 396.18,222.17 399.14,213.79 402.09,206.16 405.06,202.87 408.02,199.58 410.97,196.27 413.94,192.98 416.90,194.20 419.85,196.18 422.82,198.15 425.78,200.14 428.73,204.91 431.70,211.82 434.66,218.71 437.61,225.62 440.58,233.67 443.53,244.55 446.49,255.45 449.46,266.33 452.41,277.23 455.37,290.30 458.34,303.38 461.29,316.45 464.25,329.52 467.22,342.16 470.17,354.62 473.13,367.07 476.10,379.52 479.05,390.36 482.01,399.05 484.98,407.74 487.93,416.42 490.89,424.33 493.85,427.55 496.81,430.80 499.77,434.03 502.73,437.28 505.69,436.80 508.65,435.70 511.61,434.63 514.57,433.53 517.52,431.61 520.49,429.08 523.45,426.54 526.40,424.00 529.37,421.80 532.33,420.40 535.28,419.01 538.25,417.60 541.21,416.22 544.16,417.48 547.13,418.74 550.09,420.00 553.04,421.24 556.01,424.82 558.97,429.31 561.92,433.80 564.89,438.29 567.84,444.10 570.80,451.65 573.77,459.20 576.72,466.75 579.68,474.59 582.65,484.15 585.60,493.71 588.56,503.26 591.53,512.80 594.48,521.76 597.44,530.61 600.41,539.46 603.36,548.31 606.32,553.79 609.29,556.74 612.24,559.69 615.20,562.64 618.17,563.08 621.12,557.23 624.08,551.37 627.04,545.52 630.00,539.66 632.96,529.73 635.92,519.79 638.88,509.86 641.83,499.91 644.80,491.10 647.76,482.74 650.71,474.37 653.68,466.01 656.64,459.47 659.59,455.38 662.56,451.30 665.52,447.21 668.47,443.73 671.44,443.94 674.40,444.14 677.35,444.35 680.32,444.56 683.28,446.81 686.23,449.38 689.20,451.96 692.16,454.55 695.11,456.84 698.08,458.93 701.03,461.02 703.99,463.11 706.96,464.35 709.91,463.42 712.87,462.49 715.84,461.56 718.79,460.63 721.75,455.56 724.72,450.51 727.67,445.47 730.63,440.42 733.60,432.68 736.55,423.89 739.51,415.08 742.48,406.29 745.43,396.30 748.39,384.76 751.35,373.19 754.31,361.63 757.27,349.84 760.23,336.64 763.19,323.44 766.15,310.25 769.11,297.05 772.07,283.50 775.02,269.89 777.99,256.28 780.95,242.67 783.90,229.67 786.87,217.12 789.83,204.56 792.78,191.99 795.75,180.24 798.71,170.43 801.66,160.65 804.63,150.84 807.59,141.06 810.54,135.72 813.51,130.38 816.47,125.07 819.42,119.73 822.39,118.45 825.34,118.78 828.30,119.09 831.27,119.42 834.22,122.25 837.18,128.44 840.15,134.62 843.10,140.79 846.06,147.64 849.03,158.54 851.98,169.42 854.94,180.32 857.91,191.22 860.86,204.02 863.82,217.14 866.79,230.27 869.74,243.41 872.70,255.88 875.67,267.92 878.62,279.94 881.58,291.96 884.54,302.84 887.50,310.93 890.46,319.00 893.42,327.06 896.38,335.13 899.33,338.58 902.30,342.04 905.26,345.49 908.21,348.95 911.18,350.31 914.14,350.83 917.09,351.35 920.06,351.84 923.02,352.15 925.97,352.15 928.94,352.13 931.90,352.13 934.85,352.32 937.82,353.52 940.78,354.72 943.73,355.92 946.70,357.14 949.66,359.99 952.61,363.12 955.58,366.24 958.53,369.37 961.49,373.56 964.46,378.55 967.41,383.53 970.37,388.52 973.34,393.82 976.29,399.83 979.25,405.88 982.22,411.92 985.17,417.96 988.13,422.82 991.10,427.68 994.05,432.54 997.01,437.40 999.98,439.26 1002.93,439.90 1005.89,440.57 1008.85,441.23 1011.81,439.24 1014.77,433.78 1017.73,428.30 1020.69,422.84 1023.65,416.45 1026.61,404.59 1029.57,392.74 1032.52,380.87 1035.49,369.01 1038.45,352.28 1041.40,334.74 1044.37,317.20 1047.33,299.63 1050.28,279.49 1053.25,257.39 1056.21,235.28 1059.16,213.19 1062.13,193.89 1065.09,181.60 1068.04,169.33 1071.01,157.07 1073.97,144.80" fill="none" stroke="#111111" stroke-width="3"/>
<line x1="137" y1="100" x2="173" y2="100" stroke="#111111" stroke-width="4"/>
<text x="183" y="105" font-family="Arial" font-size="18" fill="black">Umag</text>
</svg>