<svg xmlns="http://www.w3.org/2000/svg" width="1200" height="820" viewBox="0 0 1200 820">
<rect width="100%" height="100%" fill="white"/>
<text x="600.0" y="36" text-anchor="middle" font-family="Arial" font-size="24" fill="black">Umag profile along y-centerline</text>
<line x1="115.00" y1="75" x2="115.00" y2="705" stroke="#dddddd" stroke-width="1"/>
<text x="115.00" y="737" text-anchor="middle" font-family="Arial" font-size="16" fill="black">-0.400</text>
<line x1="372.50" y1="75" x2="372.50" y2="705" stroke="#dddddd" stroke-width="1"/>
<text x="372.50" y="737" text-anchor="middle" font-family="Arial" font-size="16" fill="black">1.050</text>
<line x1="630.00" y1="75" x2="630.00" y2="705" stroke="#dddddd" stroke-width="1"/>
<text x="630.00" y="737" text-anchor="middle" font-family="Arial" font-size="16" fill="black">2.500</text>
<line x1="887.50" y1="75" x2="887.50" y2="705" stroke="#dddddd" stroke-width="1"/>
<text x="887.50" y="737" text-anchor="middle" font-family="Arial" font-size="16" fill="black">3.950</text>
<line x1="1145.00" y1="75" x2="1145.00" y2="705" stroke="#dddddd" stroke-width="1"/>
<text x="1145.00" y="737" text-anchor="middle" font-family="Arial" font-size="16" fill="black">5.400</text>
<line x1="115" y1="705.00" x2="1145" y2="705.00" stroke="#dddddd" stroke-width="1"/>
<text x="99" y="710.00" text-anchor="end" font-family="Arial" font-size="16" fill="black">0.032</text>
<line x1="115" y1="547.50" x2="1145" y2="547.50" stroke="#dddddd" stroke-width="1"/>
<text x="99" y="552.50" text-anchor="end" font-family="Arial" font-size="16" fill="black">0.146</text>
<line x1="115" y1="390.00" x2="1145" y2="390.00" stroke="#dddddd" stroke-width="1"/>
<text x="99" y="395.00" text-anchor="end" font-family="Arial" font-size="16" fill="black">0.259</text>
<line x1="115" y1="232.50" x2="1145" y2="232.50" stroke="#dddddd" stroke-width="1"/>
<text x="99" y="237.50" text-anchor="end" font-family="Arial" font-size="16" fill="black">0.373</text>
<line x1="115" y1="75.00" x2="1145" y2="75.00" stroke="#dddddd" stroke-width="1"/>
<text x="99" y="80.00" text-anchor="end" font-family="Arial" font-size="16" fill="black">0.487</text>
<rect x="115" y="75" width="1030" height="630" fill="none" stroke="black" stroke-width="2"/>
<text x="630.0" y="785" text-anchor="middle" font-family="Arial" font-size="20" fill="black">y coordinate [m]</text>
<text x="34" y="390.0" transform="rotate(-90 34 390.0)" text-anchor="middle" font-family="Arial" font-size="20" fill="black">Umag [m/s]</text>
<polyline points="186.03,232.67 188.99,245.92 191.95,259.15 194.91,272.39 197.87,285.62 200.83,298.87 203.79,312.11 206.75,331.44 209.71,350.78 212.67,370.12 215.63,389.46 218.59,408.80 221.55,428.14 224.51,434.11 227.47,440.09 230.43,446.05 233.39,452.02 236.35,457.99 239.31,463.97 242.27,462.33 245.23,460.70 248.19,459.06 251.15,457.44 254.11,455.80 257.07,454.17 260.03,450.99 262.99,447.81 265.95,444.63 268.91,441.46 271.87,438.29 274.83,435.11 277.79,431.05 280.75,426.98 283.71,422.92 286.67,418.86 289.63,414.78 292.59,410.72 295.55,405.46 298.51,400.18 301.47,394.90 304.43,389.63 307.38,384.35 310.34,379.07 313.31,372.20 316.26,365.34 319.22,358.46 322.18,351.59 325.14,344.71 328.10,337.84 331.06,328.64 334.02,319.42 336.98,310.22 339.94,301.02 342.90,291.82 345.86,282.60 348.82,270.46 351.78,258.32 354.74,246.18 357.70,234.04 360.66,221.90 363.62,209.76 366.59,199.03 369.53,188.32 372.50,177.60 375.47,166.88 378.41,156.16 381.38,145.44 384.35,140.94 387.29,136.45 390.26,131.95 393.22,127.44 396.17,122.95 399.14,118.45 402.10,119.53 405.05,120.61 408.02,121.69 410.98,122.77 413.93,123.87 416.90,124.95 419.86,129.62 422.81,134.29 425.78,138.96 428.74,143.64 431.69,148.31 434.66,152.98 437.62,159.80 440.57,166.62 443.53,173.44 446.50,180.27 449.45,187.09 452.41,193.91 455.38,202.62 458.33,211.35 461.29,220.07 464.26,228.79 467.21,237.52 470.17,246.24 473.14,257.57 476.09,268.92 479.05,280.26 482.02,291.60 484.97,302.95 487.93,314.28 490.90,328.69 493.84,343.11 496.81,357.52 499.78,371.95 502.72,386.36 505.69,400.77 508.66,417.03 511.60,433.30 514.57,449.55 517.53,465.82 520.48,482.08 523.45,498.33 526.41,511.87 529.36,525.41 532.33,538.95 535.29,552.49 538.24,566.03 541.21,579.57 544.17,583.73 547.12,587.89 550.09,592.06 553.05,596.22 556.00,600.39 558.97,604.55 561.93,602.84 564.88,601.15 567.84,599.45 570.81,597.74 573.76,596.05 576.72,594.35 579.69,593.53 582.64,592.71 585.60,591.89 588.57,591.09 591.52,590.27 594.48,589.45 597.45,591.37 600.40,593.28 603.36,595.20 606.33,597.12 609.28,599.03 612.24,600.94 615.21,605.53 618.15,610.13 621.12,614.72 624.09,619.31 627.03,623.90 630.00,628.49 632.97,634.00 635.91,639.51 638.88,645.02 641.84,650.53 644.79,656.04 647.76,661.55 650.72,661.01 653.67,660.47 656.64,659.92 659.60,659.38 662.55,658.84 665.52,658.30 668.48,648.29 671.43,638.29 674.40,628.29 677.36,618.29 680.31,608.29 683.28,598.28 686.24,585.06 689.19,571.84 692.16,558.62 695.12,545.40 698.07,532.16 701.03,518.94 704.00,506.04 706.95,493.14 709.91,480.24 712.88,467.33 715.83,454.43 718.79,441.53 721.76,430.98 724.71,420.44 727.67,409.90 730.64,399.36 733.59,388.81 736.55,378.27 739.52,370.88 742.47,363.49 745.43,356.11 748.40,348.72 751.34,341.32 754.31,333.93 757.28,329.15 760.22,324.37 763.19,319.59 766.16,314.81 769.10,310.01 772.07,305.23 775.03,302.50 777.98,299.77 780.95,297.04 783.91,294.31 786.86,291.60 789.83,288.86 792.79,288.07 795.74,287.29 798.71,286.48 801.67,285.69 804.62,284.90 807.59,284.11 810.55,285.54 813.50,286.95 816.47,288.38 819.43,289.81 822.38,291.22 825.34,292.65 828.31,296.71 831.26,300.78 834.22,304.84 837.19,308.90 840.14,312.98 843.10,317.04 846.07,324.07 849.02,331.09 851.98,338.13 854.95,345.16 857.90,352.18 860.86,359.21 863.83,369.11 866.78,379.00 869.74,388.89 872.71,398.79 875.66,408.68 878.62,418.58 881.59,430.35 884.53,442.10 887.50,453.86 890.47,465.63 893.41,477.39 896.38,489.15 899.34,500.03 902.29,510.89 905.26,521.77 908.22,532.63 911.17,543.51 914.14,554.38 917.10,562.42 920.05,570.45 923.02,578.49 925.98,586.53 928.93,594.57 931.90,602.61 934.86,608.18 937.81,613.76 940.78,619.34 943.74,624.91 946.69,630.49 949.66,636.07 952.62,639.61 955.57,643.14 958.53,646.68 961.50,650.22 964.45,653.76 967.41,657.29 970.38,657.74 973.33,658.19 976.29,658.64 979.26,659.09 982.21,659.54 985.17,659.98 988.14,656.35 991.09,652.72 994.05,649.08 997.02,645.45 999.97,641.82 1002.93,638.19 1005.90,631.60 1008.84,625.00 1011.81,618.41 1014.78,611.82 1017.72,605.22 1020.69,598.64 1023.66,590.55 1026.60,582.47 1029.57,574.38 1032.53,566.30 1035.48,558.20 1038.45,550.12 1041.41,541.48 1044.36,532.83 1047.33,524.19 1050.29,515.55 1053.24,506.90 1056.21,498.27 1059.17,493.80 1062.12,489.33 1065.09,484.86 1068.05,480.40 1071.00,475.94 1073.97,471.48" fill="none" stroke="#111111" stroke-width="3"/>
<line x1="137" y1="100" x2="173" y2="100" stroke="#111111" stroke-width="4"/>
<text x="183" y="105" font-family="Arial" font-size="18" fill="black">Umag</text>
</svg>