<svg xmlns="http://www.w3.org/2000/svg" width="1200" height="820" viewBox="0 0 1200 820">
<rect width="100%" height="100%" fill="white"/>
<text x="600.0" y="36" text-anchor="middle" font-family="Arial" font-size="24" fill="black">Uy profile along y-centerline</text>
<line x1="115.00" y1="75" x2="115.00" y2="705" stroke="#dddddd" stroke-width="1"/>
<text x="115.00" y="737" text-anchor="middle" font-family="Arial" font-size="16" fill="black">-0.400</text>
<line x1="372.50" y1="75" x2="372.50" y2="705" stroke="#dddddd" stroke-width="1"/>
<text x="372.50" y="737" text-anchor="middle" font-family="Arial" font-size="16" fill="black">1.050</text>
<line x1="630.00" y1="75" x2="630.00" y2="705" stroke="#dddddd" stroke-width="1"/>
<text x="630.00" y="737" text-anchor="middle" font-family="Arial" font-size="16" fill="black">2.500</text>
<line x1="887.50" y1="75" x2="887.50" y2="705" stroke="#dddddd" stroke-width="1"/>
<text x="887.50" y="737" text-anchor="middle" font-family="Arial" font-size="16" fill="black">3.950</text>
<line x1="1145.00" y1="75" x2="1145.00" y2="705" stroke="#dddddd" stroke-width="1"/>
<text x="1145.00" y="737" text-anchor="middle" font-family="Arial" font-size="16" fill="black">5.400</text>
<line x1="115" y1="705.00" x2="1145" y2="705.00" stroke="#dddddd" stroke-width="1"/>
<text x="99" y="710.00" text-anchor="end" font-family="Arial" font-size="16" fill="black">-0.087</text>
<line x1="115" y1="547.50" x2="1145" y2="547.50" stroke="#dddddd" stroke-width="1"/>
<text x="99" y="552.50" text-anchor="end" font-family="Arial" font-size="16" fill="black">-0.037</text>
<line x1="115" y1="390.00" x2="1145" y2="390.00" stroke="#dddddd" stroke-width="1"/>
<text x="99" y="395.00" text-anchor="end" font-family="Arial" font-size="16" fill="black">0.013</text>
<line x1="115" y1="232.50" x2="1145" y2="232.50" stroke="#dddddd" stroke-width="1"/>
<text x="99" y="237.50" text-anchor="end" font-family="Arial" font-size="16" fill="black">0.063</text>
<line x1="115" y1="75.00" x2="1145" y2="75.00" stroke="#dddddd" stroke-width="1"/>
<text x="99" y="80.00" text-anchor="end" font-family="Arial" font-size="16" fill="black">0.113</text>
<rect x="115" y="75" width="1030" height="630" fill="none" stroke="black" stroke-width="2"/>
<text x="630.0" y="785" text-anchor="middle" font-family="Arial" font-size="20" fill="black">y coordinate [m]</text>
<text x="34" y="390.0" transform="rotate(-90 34 390.0)" text-anchor="middle" font-family="Arial" font-size="20" fill="black">Uy [m/s]</text>
<polyline points="186.03,424.06 188.99,414.94 191.95,405.83 194.91,396.71 197.87,387.59 200.83,378.48 203.79,369.36 206.75,352.71 209.71,336.05 212.67,319.40 215.63,302.75 218.59,286.10 221.55,269.45 224.51,258.78 227.47,248.10 230.43,237.43 233.39,226.76 236.35,216.09 239.31,205.42 242.27,201.14 245.23,196.86 248.19,192.58 251.15,188.30 254.11,184.03 257.07,179.75 260.03,177.73 262.99,175.71 265.95,173.69 268.91,171.67 271.87,169.66 274.83,167.64 277.79,165.74 280.75,163.84 283.71,161.94 286.67,160.05 289.63,158.15 292.59,156.25 295.55,154.16 298.51,152.06 301.47,149.96 304.43,147.86 307.38,145.77 310.34,143.67 313.31,141.62 316.26,139.58 319.22,137.54 322.18,135.49 325.14,133.45 328.10,131.41 331.06,129.80 334.02,128.20 336.98,126.59 339.94,124.99 342.90,123.38 345.86,121.78 348.82,121.22 351.78,120.67 354.74,120.11 357.70,119.56 360.66,119.00 363.62,118.45 366.59,119.88 369.53,121.30 372.50,122.73 375.47,124.15 378.41,125.58 381.38,127.00 384.35,131.04 387.29,135.08 390.26,139.12 393.22,143.16 396.17,147.19 399.14,151.23 402.10,157.87 405.05,164.51 408.02,171.16 410.98,177.80 413.93,184.44 416.90,191.08 419.86,200.16 422.81,209.24 425.78,218.32 428.74,227.41 431.69,236.49 434.66,245.57 437.62,256.76 440.57,267.95 443.53,279.15 446.50,290.34 449.45,301.53 452.41,312.72 455.38,325.21 458.33,337.70 461.29,350.19 464.26,362.68 467.21,375.17 470.17,387.66 473.14,400.09 476.09,412.52 479.05,424.94 482.02,437.37 484.97,449.79 487.93,462.22 490.90,473.17 493.84,484.12 496.81,495.07 499.78,506.02 502.72,516.97 505.69,527.92 508.66,536.66 511.60,545.40 514.57,554.14 517.53,562.88 520.48,571.62 523.45,580.36 526.41,586.85 529.36,593.33 532.33,599.82 535.29,606.31 538.24,612.79 541.21,619.28 544.17,623.62 547.12,627.95 550.09,632.29 553.05,636.63 556.00,640.96 558.97,645.30 561.93,647.58 564.88,649.87 567.84,652.15 570.81,654.44 573.76,656.72 576.72,659.01 579.69,659.43 582.64,659.85 585.60,660.28 588.57,660.70 591.52,661.13 594.48,661.55 597.45,660.46 600.40,659.38 603.36,658.29 606.33,657.20 609.28,656.11 612.24,655.03 615.21,652.84 618.15,650.66 621.12,648.48 624.09,646.29 627.03,644.11 630.00,641.93 632.97,638.94 635.91,635.95 638.88,632.96 641.84,629.97 644.79,626.98 647.76,623.99 650.72,620.57 653.67,617.15 656.64,613.72 659.60,610.30 662.55,606.88 665.52,603.46 668.48,600.21 671.43,596.96 674.40,593.71 677.36,590.46 680.31,587.21 683.28,583.96 686.24,581.27 689.19,578.58 692.16,575.89 695.12,573.19 698.07,570.50 701.03,567.81 704.00,565.58 706.95,563.34 709.91,561.11 712.88,558.88 715.83,556.65 718.79,554.41 721.76,552.26 724.71,550.10 727.67,547.94 730.64,545.78 733.59,543.62 736.55,541.46 739.52,538.83 742.47,536.19 745.43,533.55 748.40,530.91 751.34,528.27 754.31,525.63 757.28,521.95 760.22,518.27 763.19,514.59 766.16,510.91 769.10,507.23 772.07,503.55 775.03,498.44 777.98,493.33 780.95,488.22 783.91,483.11 786.86,478.00 789.83,472.89 792.79,466.32 795.74,459.75 798.71,453.18 801.67,446.60 804.62,440.03 807.59,433.46 810.55,425.75 813.50,418.04 816.47,410.33 819.43,402.62 822.38,394.91 825.34,387.20 828.31,378.90 831.26,370.61 834.22,362.31 837.19,354.02 840.14,345.72 843.10,337.43 846.07,329.20 849.02,320.97 851.98,312.74 854.95,304.51 857.90,296.29 860.86,288.06 863.83,280.60 866.78,273.15 869.74,265.69 872.71,258.24 875.66,250.78 878.62,243.33 881.59,237.40 884.53,231.48 887.50,225.55 890.47,219.63 893.41,213.70 896.38,207.77 899.34,204.05 902.29,200.32 905.26,196.60 908.22,192.87 911.17,189.15 914.14,185.42 917.10,184.42 920.05,183.42 923.02,182.41 925.98,181.41 928.93,180.40 931.90,179.40 934.86,181.50 937.81,183.60 940.78,185.71 943.74,187.81 946.69,189.92 949.66,192.02 952.62,197.25 955.57,202.48 958.53,207.72 961.50,212.95 964.45,218.18 967.41,223.41 970.38,231.21 973.33,239.00 976.29,246.80 979.26,254.59 982.21,262.39 985.17,270.18 988.14,279.50 991.09,288.82 994.05,298.13 997.02,307.45 999.97,316.77 1002.93,326.09 1005.90,335.41 1008.84,344.74 1011.81,354.06 1014.78,363.39 1017.72,372.71 1020.69,382.04 1023.66,389.88 1026.60,397.73 1029.57,405.57 1032.53,413.42 1035.48,421.26 1038.45,429.11 1041.41,433.27 1044.36,437.42 1047.33,441.58 1050.29,445.74 1053.24,449.90 1056.21,454.06 1059.17,454.81 1062.12,455.56 1065.09,456.32 1068.05,457.07 1071.00,457.82 1073.97,458.57" fill="none" stroke="#d62728" stroke-width="3"/>
<line x1="137" y1="100" x2="173" y2="100" stroke="#d62728" stroke-width="4"/>
<text x="183" y="105" font-family="Arial" font-size="18" fill="black">Uy</text>
</svg>