<svg xmlns="http://www.w3.org/2000/svg" width="1200" height="820" viewBox="0 0 1200 820">
<rect width="100%" height="100%" fill="white"/>
<text x="600.0" y="36" text-anchor="middle" font-family="Arial" font-size="24" fill="black">Velocity components along x-centerline</text>
<line x1="115.00" y1="75" x2="115.00" y2="705" stroke="#dddddd" stroke-width="1"/>
<text x="115.00" y="737" text-anchor="middle" font-family="Arial" font-size="16" fill="black">-0.560</text>
<line x1="372.50" y1="75" x2="372.50" y2="705" stroke="#dddddd" stroke-width="1"/>
<text x="372.50" y="737" text-anchor="middle" font-family="Arial" font-size="16" fill="black">1.470</text>
<line x1="630.00" y1="75" x2="630.00" y2="705" stroke="#dddddd" stroke-width="1"/>
<text x="630.00" y="737" text-anchor="middle" font-family="Arial" font-size="16" fill="black">3.500</text>
<line x1="887.50" y1="75" x2="887.50" y2="705" stroke="#dddddd" stroke-width="1"/>
<text x="887.50" y="737" text-anchor="middle" font-family="Arial" font-size="16" fill="black">5.530</text>
<line x1="1145.00" y1="75" x2="1145.00" y2="705" stroke="#dddddd" stroke-width="1"/>
<text x="1145.00" y="737" text-anchor="middle" font-family="Arial" font-size="16" fill="black">7.560</text>
<line x1="115" y1="705.00" x2="1145" y2="705.00" stroke="#dddddd" stroke-width="1"/>
<text x="99" y="710.00" text-anchor="end" font-family="Arial" font-size="16" fill="black">-0.306</text>
<line x1="115" y1="547.50" x2="1145" y2="547.50" stroke="#dddddd" stroke-width="1"/>
<text x="99" y="552.50" text-anchor="end" font-family="Arial" font-size="16" fill="black">-0.146</text>
<line x1="115" y1="390.00" x2="1145" y2="390.00" stroke="#dddddd" stroke-width="1"/>
<text x="99" y="395.00" text-anchor="end" font-family="Arial" font-size="16" fill="black">0.015</text>
<line x1="115" y1="232.50" x2="1145" y2="232.50" stroke="#dddddd" stroke-width="1"/>
<text x="99" y="237.50" text-anchor="end" font-family="Arial" font-size="16" fill="black">0.175</text>
<line x1="115" y1="75.00" x2="1145" y2="75.00" stroke="#dddddd" stroke-width="1"/>
<text x="99" y="80.00" text-anchor="end" font-family="Arial" font-size="16" fill="black">0.335</text>
<rect x="115" y="75" width="1030" height="630" fill="none" stroke="black" stroke-width="2"/>
<text x="630.0" y="785" text-anchor="middle" font-family="Arial" font-size="20" fill="black">x coordinate [m]</text>
<text x="34" y="390.0" transform="rotate(-90 34 390.0)" text-anchor="middle" font-family="Arial" font-size="20" fill="black">velocity [m/s]</text>
<polyline points="186.03,398.88 188.99,399.60 191.95,400.32 194.91,401.04 197.87,401.76 200.83,402.71 203.79,403.75 206.75,404.79 209.71,405.84 212.67,406.50 215.63,406.66 218.59,406.82 221.55,406.97 224.51,407.01 227.47,406.28 230.43,405.55 233.39,404.82 236.35,404.09 239.31,402.85 242.27,401.53 245.23,400.21 248.19,398.89 251.15,397.47 254.11,395.98 257.07,394.49 260.03,393.00 262.99,391.57 265.95,390.29 268.91,389.01 271.87,387.73 274.83,386.45 277.79,385.61 280.75,384.76 283.71,383.92 286.67,383.07 289.63,382.57 292.59,382.21 295.55,381.84 298.51,381.48 301.47,381.28 304.42,381.30 307.39,381.31 310.34,381.33 313.30,381.39 316.27,381.66 319.22,381.93 322.18,382.20 325.15,382.47 328.10,382.87 331.06,383.30 334.03,383.72 336.98,384.15 339.94,384.64 342.91,385.18 345.86,385.73 348.82,386.27 351.79,386.85 354.74,387.52 357.70,388.19 360.67,388.86 363.62,389.53 366.58,390.30 369.54,391.07 372.50,391.85 375.46,392.62 378.42,393.43 381.38,394.25 384.33,395.07 387.30,395.89 390.26,396.68 393.21,397.42 396.18,398.16 399.14,398.90 402.09,399.60 405.06,400.03 408.02,400.46 410.97,400.89 413.94,401.32 416.90,401.23 419.85,401.05 422.82,400.88 425.78,400.71 428.73,400.04 431.70,398.99 434.66,397.95 437.61,396.91 440.58,395.58 443.53,393.54 446.49,391.49 449.46,389.45 452.41,387.41 455.37,384.46 458.34,381.52 461.29,378.58 464.25,375.64 467.22,372.29 470.17,368.78 473.13,365.27 476.10,361.76 479.05,358.21 482.01,354.59 484.98,350.97 487.93,347.35 490.89,343.77 493.85,340.49 496.81,337.21 499.77,333.92 502.73,330.64 505.69,327.96 508.65,325.37 511.61,322.79 514.57,320.21 517.52,318.19 520.49,316.60 523.45,315.00 526.40,313.41 529.37,312.15 532.33,311.75 535.28,311.35 538.25,310.95 541.21,310.56 544.16,311.48 547.13,312.41 550.09,313.34 553.04,314.27 556.01,316.20 558.97,318.51 561.92,320.83 564.89,323.15 567.84,326.06 570.80,329.75 573.77,333.44 576.72,337.14 579.68,341.01 582.65,345.98 585.60,350.95 588.56,355.92 591.53,360.89 594.48,366.79 597.44,372.83 600.41,378.88 603.36,384.93 606.32,391.36 609.29,398.07 612.24,404.79 615.20,411.51 618.17,418.22 621.12,424.93 624.08,431.63 627.04,438.34 630.00,445.04 632.96,450.99 635.92,456.93 638.88,462.87 641.83,468.82 644.80,473.83 647.76,478.48 650.71,483.13 653.68,487.77 656.64,491.80 659.59,495.01 662.56,498.21 665.52,501.41 668.47,504.45 671.44,506.43 674.40,508.43 677.35,510.42 680.32,512.42 683.28,513.73 686.23,514.94 689.20,516.15 692.16,517.36 695.11,518.35 698.08,519.18 701.03,520.00 703.99,520.83 706.96,521.60 709.91,522.27 712.87,522.94 715.84,523.62 718.79,524.28 721.75,524.84 724.72,525.41 727.67,525.97 730.63,526.54 733.60,527.00 736.55,527.41 739.51,527.82 742.48,528.22 745.43,528.54 748.39,528.71 751.35,528.88 754.31,529.05 757.27,529.19 760.23,529.07 763.19,528.96 766.15,528.84 769.11,528.74 772.07,528.40 775.02,528.03 777.99,527.66 780.95,527.29 783.90,526.85 786.87,526.36 789.83,525.86 792.78,525.37 795.75,524.89 798.71,524.49 801.66,524.09 804.63,523.69 807.59,523.28 810.54,523.18 813.51,523.09 816.47,522.99 819.42,522.89 822.39,523.08 825.34,523.38 828.30,523.69 831.27,523.99 834.22,524.45 837.18,525.13 840.15,525.80 843.10,526.47 846.06,527.17 849.03,528.07 851.98,528.97 854.94,529.87 857.91,530.77 860.86,531.75 863.82,532.75 866.79,533.77 869.74,534.77 872.70,535.80 875.67,536.86 878.62,537.91 881.58,538.97 884.54,540.04 887.50,541.16 890.46,542.27 893.42,543.38 896.38,544.50 899.33,545.60 902.30,546.70 905.26,547.81 908.21,548.91 911.18,549.90 914.14,550.84 917.09,551.78 920.06,552.72 923.02,553.49 925.97,554.05 928.94,554.61 931.90,555.16 934.85,555.63 937.82,555.57 940.78,555.51 943.73,555.45 946.70,555.40 949.66,554.67 952.61,553.83 955.58,552.99 958.53,552.16 961.49,550.81 964.46,549.09 967.41,547.37 970.37,545.65 973.34,543.66 976.29,540.99 979.25,538.32 982.22,535.64 985.17,532.97 988.13,529.54 991.10,526.11 994.05,522.69 997.01,519.26 999.98,515.57 1002.93,511.78 1005.89,507.99 1008.85,504.18 1011.81,500.28 1014.77,496.24 1017.73,492.20 1020.69,488.16 1023.65,484.07 1026.61,479.71 1029.57,475.34 1032.52,470.97 1035.49,466.60 1038.45,462.04 1041.40,457.45 1044.37,452.86 1047.33,448.27 1050.28,443.44 1053.25,438.44 1056.21,433.43 1059.16,428.42 1062.13,424.08 1065.09,421.38 1068.04,418.69 1071.01,415.99 1073.97,413.29" fill="none" stroke="#1f77b4" stroke-width="3"/>
<line x1="137" y1="100" x2="173" y2="100" stroke="#1f77b4" stroke-width="4"/>
<text x="183" y="105" font-family="Arial" font-size="18" fill="black">Ux</text>
<polyline points="186.03,410.46 188.99,398.27 191.95,386.09 194.91,373.90 197.87,361.71 200.83,347.12 203.79,331.58 206.75,316.03 209.71,300.49 212.67,290.11 215.63,286.62 218.59,283.15 221.55,279.66 224.51,276.86 227.47,278.18 230.43,279.49 233.39,280.81 236.35,282.13 239.31,285.57 242.27,289.39 245.23,293.19 248.19,296.99 251.15,301.64 254.11,306.91 257.07,312.19 260.03,317.46 262.99,322.99 265.95,329.16 268.91,335.33 271.87,341.51 274.83,347.68 277.79,354.38 280.75,361.08 283.71,367.78 286.67,374.48 289.63,381.42 292.59,388.45 295.55,395.49 298.51,402.52 301.47,409.67 304.42,416.98 307.39,424.29 310.34,431.60 313.30,438.94 316.27,446.50 319.22,454.06 322.18,461.62 325.15,469.17 328.10,476.87 331.06,484.58 334.03,492.30 336.98,500.01 339.94,507.68 342.91,515.30 345.86,522.93 348.82,530.55 351.79,538.05 354.74,545.20 357.70,552.37 360.67,559.53 363.62,566.68 366.58,572.94 369.54,579.21 372.50,585.47 375.46,591.72 378.42,597.08 381.38,602.06 384.33,607.04 387.30,612.03 390.26,616.35 393.21,619.79 396.18,623.22 399.14,626.66 402.09,629.86 405.06,631.59 408.02,633.30 410.97,635.03 413.94,636.76 416.90,636.89 419.85,636.76 422.82,636.64 425.78,636.51 428.73,635.25 431.70,633.16 434.66,631.06 437.61,628.96 440.58,626.31 443.53,622.25 446.49,618.18 449.46,614.13 452.41,610.07 455.37,604.29 458.34,598.51 461.29,592.74 464.25,586.96 467.22,580.36 470.17,573.42 473.13,566.49 476.10,559.56 479.05,552.46 482.01,545.14 484.98,537.82 487.93,530.50 490.89,523.23 493.85,516.25 496.81,509.27 499.77,502.29 502.73,495.31 505.69,489.09 508.65,482.99 511.61,476.90 514.57,470.80 517.52,465.41 520.49,460.54 523.45,455.67 526.40,450.80 529.37,446.32 532.33,442.81 535.28,439.31 538.25,435.80 541.21,432.29 544.16,430.14 547.13,427.98 550.09,425.83 553.04,423.68 556.01,422.44 558.97,421.57 561.92,420.70 564.89,419.83 567.84,419.49 570.80,419.84 573.77,420.18 576.72,420.53 579.68,421.05 582.65,422.57 585.60,424.08 588.56,425.60 591.53,427.11 594.48,429.57 597.44,432.18 600.41,434.80 603.36,437.41 606.32,440.53 609.29,444.04 612.24,447.54 615.20,451.04 618.17,454.64 621.12,458.49 624.08,462.33 627.04,466.18 630.00,470.02 632.96,473.33 635.92,476.63 638.88,479.93 641.83,483.23 644.80,485.44 647.76,487.22 650.71,488.99 653.68,490.76 656.64,491.57 659.59,491.09 662.56,490.61 665.52,490.13 668.47,489.30 671.44,486.39 674.40,483.48 677.35,480.57 680.32,477.66 683.28,472.95 686.23,467.94 689.20,462.93 692.16,457.92 695.11,452.04 698.08,445.52 701.03,438.99 703.99,432.47 706.96,425.67 709.91,418.21 712.87,410.75 715.84,403.29 718.79,395.83 721.75,387.85 724.72,379.86 727.67,371.87 730.63,363.89 733.60,355.69 736.55,347.40 739.51,339.11 742.48,330.83 745.43,322.49 748.39,314.08 751.35,305.67 754.31,297.26 757.27,288.87 760.23,280.62 763.19,272.38 766.15,264.13 769.11,255.88 772.07,248.16 775.02,240.53 777.99,232.89 780.95,225.26 783.90,218.34 786.87,211.96 789.83,205.59 792.78,199.20 795.75,193.39 798.71,189.00 801.66,184.62 804.63,180.24 807.59,175.85 810.54,174.15 813.51,172.44 816.47,170.73 819.42,169.03 822.39,169.53 825.34,170.92 828.30,172.32 831.27,173.71 834.22,176.44 837.18,180.94 840.15,185.44 843.10,189.93 846.06,194.81 849.03,201.97 851.98,209.14 854.94,216.31 857.91,223.47 860.86,232.21 863.82,241.22 866.79,250.22 869.74,259.23 872.70,268.66 875.67,278.41 878.62,288.15 881.58,297.89 884.54,307.53 887.50,316.88 890.46,326.23 893.42,335.57 896.38,344.92 899.33,353.02 902.30,361.12 905.26,369.22 908.21,377.31 911.18,384.26 914.14,390.73 917.09,397.21 920.06,403.69 923.02,409.49 925.97,414.39 928.94,419.30 931.90,424.20 934.85,428.92 937.82,432.52 940.78,436.12 943.73,439.71 946.70,443.31 949.66,446.02 952.61,448.59 955.58,451.15 958.53,453.72 961.49,455.83 964.46,457.59 967.41,459.35 970.37,461.12 973.34,462.71 976.29,463.88 979.25,465.06 982.22,466.23 985.17,467.41 988.13,468.25 991.10,469.08 994.05,469.92 997.01,470.76 999.98,471.55 1002.93,472.33 1005.89,473.11 1008.85,473.89 1011.81,474.73 1014.77,475.65 1017.73,476.56 1020.69,477.47 1023.65,478.41 1026.61,479.52 1029.57,480.62 1032.52,481.72 1035.49,482.83 1038.45,484.08 1041.40,485.36 1044.37,486.64 1047.33,487.92 1050.28,489.19 1053.25,490.45 1056.21,491.71 1059.16,492.98 1062.13,494.05 1065.09,494.63 1068.04,495.22 1071.01,495.81 1073.97,496.40" fill="none" stroke="#d62728" stroke-width="3"/>
<line x1="137" y1="128" x2="173" y2="128" stroke="#d62728" stroke-width="4"/>
<text x="183" y="133" font-family="Arial" font-size="18" fill="black">Uy</text>
<polyline points="186.03,377.64 188.99,385.69 191.95,393.74 194.91,401.79 197.87,409.84 200.83,420.23 203.79,431.56 206.75,442.90 209.71,454.23 212.67,462.62 215.63,467.09 218.59,471.56 221.55,476.03 224.51,480.01 227.47,481.12 230.43,482.23 233.39,483.34 236.35,484.45 239.31,483.90 242.27,483.08 245.23,482.25 248.19,481.43 251.15,480.08 254.11,478.34 257.07,476.60 260.03,474.86 262.99,473.05 265.95,471.07 268.91,469.10 271.87,467.13 274.83,465.15 277.79,463.23 280.75,461.31 283.71,459.38 286.67,457.46 289.63,455.49 292.59,453.51 295.55,451.53 298.51,449.55 301.47,447.37 304.42,444.95 307.39,442.53 310.34,440.10 313.30,437.55 316.27,434.27 319.22,430.99 322.18,427.70 325.15,424.42 328.10,420.24 331.06,415.91 334.03,411.58 336.98,407.25 339.94,402.42 342.91,397.21 345.86,392.01 348.82,386.80 351.79,381.50 354.74,375.93 357.70,370.37 360.67,364.81 363.62,359.25 366.58,354.07 369.54,348.90 372.50,343.73 375.46,338.56 378.42,334.23 381.38,330.24 384.33,326.25 387.30,322.26 390.26,319.06 393.21,316.91 396.18,314.76 399.14,312.61 402.09,310.78 405.06,310.85 408.02,310.92 410.97,310.99 413.94,311.06 416.90,313.05 419.85,315.35 422.82,317.66 425.78,319.97 428.73,323.37 431.70,327.61 434.66,331.84 437.61,336.07 440.58,340.72 443.53,346.39 446.49,352.07 449.46,357.74 452.41,363.42 455.37,369.93 458.34,376.45 461.29,382.96 464.25,389.48 467.22,396.13 470.17,402.84 473.13,409.55 476.10,416.27 479.05,422.81 482.01,429.14 484.98,435.47 487.93,441.79 490.89,448.00 493.85,453.50 496.81,459.00 499.77,464.51 502.73,470.01 505.69,474.56 508.65,478.95 511.61,483.34 514.57,487.73 517.52,491.39 520.49,494.50 523.45,497.61 526.40,500.73 529.37,503.46 532.33,505.23 535.28,507.01 538.25,508.79 541.21,510.57 544.16,511.03 547.13,511.50 550.09,511.96 553.04,512.44 556.01,512.02 558.97,511.26 561.92,510.49 564.89,509.72 567.84,508.49 570.80,506.62 573.77,504.75 576.72,502.89 579.68,500.89 582.65,498.11 585.60,495.32 588.56,492.54 591.53,489.76 594.48,486.40 597.44,482.94 600.41,479.48 603.36,476.02 606.32,472.35 609.29,468.52 612.24,464.68 615.20,460.85 618.17,457.01 621.12,453.15 624.08,449.29 627.04,445.43 630.00,441.57 632.96,438.01 635.92,434.45 638.88,430.89 641.83,427.33 644.80,424.16 647.76,421.14 650.71,418.13 653.68,415.11 656.64,412.37 659.59,409.97 662.56,407.58 665.52,405.19 668.47,402.86 671.44,400.96 674.40,399.07 677.35,397.17 680.32,395.27 683.28,393.64 686.23,392.05 689.20,390.46 692.16,388.87 695.11,387.39 698.08,386.00 701.03,384.61 703.99,383.22 706.96,381.88 709.91,380.63 712.87,379.38 715.84,378.14 718.79,376.89 721.75,375.72 724.72,374.54 727.67,373.36 730.63,372.19 733.60,370.95 736.55,369.69 739.51,368.43 742.48,367.17 745.43,365.77 748.39,364.18 751.35,362.59 754.31,361.00 757.27,359.32 760.23,357.15 763.19,354.97 766.15,352.80 769.11,350.62 772.07,347.84 775.02,344.95 777.99,342.06 780.95,339.18 783.90,335.96 786.87,332.50 789.83,329.04 792.78,325.57 795.75,322.07 798.71,318.46 801.66,314.85 804.63,311.24 807.59,307.63 810.54,304.48 813.51,301.32 816.47,298.17 819.42,295.02 822.39,292.61 825.34,290.49 828.30,288.36 831.27,286.25 834.22,284.72 837.18,283.97 840.15,283.22 843.10,282.47 846.06,281.91 849.03,282.46 851.98,283.02 854.94,283.57 857.91,284.13 860.86,285.40 863.82,286.78 866.79,288.17 869.74,289.55 872.70,291.06 875.67,292.65 878.62,294.24 881.58,295.83 884.54,297.35 887.50,298.73 890.46,300.11 893.42,301.48 896.38,302.86 899.33,303.99 902.30,305.11 905.26,306.23 908.21,307.36 911.18,308.52 914.14,309.70 917.09,310.88 920.06,312.06 923.02,313.46 925.97,315.17 928.94,316.87 931.90,318.57 934.85,320.40 937.82,323.01 940.78,325.61 943.73,328.22 946.70,330.83 949.66,334.38 952.61,338.09 955.58,341.80 958.53,345.52 961.49,349.92 964.46,354.83 967.41,359.75 970.37,364.66 973.34,369.93 976.29,376.09 979.25,382.24 982.22,388.40 985.17,394.55 988.13,401.77 991.10,408.99 994.05,416.20 997.01,423.42 999.98,431.20 1002.93,439.21 1005.89,447.22 1008.85,455.23 1011.81,463.57 1014.77,472.35 1017.73,481.13 1020.69,489.91 1023.65,498.83 1026.61,508.51 1029.57,518.19 1032.52,527.87 1035.49,537.56 1038.45,548.08 1041.40,558.75 1044.37,569.42 1047.33,580.08 1050.28,591.38 1053.25,603.14 1056.21,614.91 1059.16,626.67 1062.13,636.84 1065.09,643.02 1068.04,649.19 1071.01,655.37 1073.97,661.55" fill="none" stroke="#2ca02c" stroke-width="3"/>
<line x1="137" y1="156" x2="173" y2="156" stroke="#2ca02c" stroke-width="4"/>
<text x="183" y="161" font-family="Arial" font-size="18" fill="black">Uz</text>
<polyline points="186.03,376.41 188.99,372.00 191.95,367.59 194.91,363.18 197.87,358.77 200.83,344.30 203.79,325.81 206.75,307.33 209.71,288.84 212.67,276.04 215.63,270.84 218.59,265.64 221.55,260.43 224.51,256.05 227.47,256.58 230.43,257.12 233.39,257.65 236.35,258.19 239.31,261.33 242.27,264.89 245.23,268.46 248.19,272.03 251.15,276.48 254.11,281.57 257.07,286.67 260.03,291.78 262.99,297.01 265.95,302.58 268.91,308.16 271.87,313.73 274.83,319.30 277.79,324.37 280.75,329.43 283.71,334.50 286.67,339.57 289.63,343.27 292.59,346.42 295.55,349.57 298.51,352.71 301.47,354.21 304.42,353.51 307.39,352.82 310.34,352.12 313.30,350.87 316.27,346.35 319.22,341.83 322.18,337.32 325.15,332.80 328.10,326.39 331.06,319.66 334.03,312.93 336.98,306.20 339.94,298.85 342.91,291.02 345.86,283.19 348.82,275.37 351.79,267.47 354.74,259.39 357.70,251.31 360.67,243.25 363.62,235.17 366.58,227.71 369.54,220.26 372.50,212.79 375.46,205.33 378.42,198.90 381.38,192.86 384.33,186.83 387.30,180.81 390.26,175.66 393.21,171.68 396.18,167.71 399.14,163.73 402.09,160.11 405.06,158.54 408.02,156.98 410.97,155.41 413.94,153.85 416.90,154.43 419.85,155.37 422.82,156.30 425.78,157.25 428.73,159.52 431.70,162.80 434.66,166.07 437.61,169.35 440.58,173.17 443.53,178.34 446.49,183.52 449.46,188.69 452.41,193.87 455.37,200.08 458.34,206.28 461.29,212.49 464.25,218.70 467.22,224.71 470.17,230.62 473.13,236.54 476.10,242.45 479.05,247.60 482.01,251.73 484.98,255.85 487.93,259.98 490.89,263.73 493.85,265.27 496.81,266.81 499.77,268.34 502.73,269.88 505.69,269.66 508.65,269.14 511.61,268.63 514.57,268.10 517.52,267.19 520.49,265.99 523.45,264.78 526.40,263.58 529.37,262.53 532.33,261.87 535.28,261.21 538.25,260.54 541.21,259.88 544.16,260.48 547.13,261.08 550.09,261.68 553.04,262.27 556.01,263.97 558.97,266.10 561.92,268.23 564.89,270.36 567.84,273.13 570.80,276.71 573.77,280.30 576.72,283.88 579.68,287.61 582.65,292.15 585.60,296.69 588.56,301.23 591.53,305.75 594.48,310.01 597.44,314.21 600.41,318.42 603.36,322.62 606.32,325.22 609.29,326.62 612.24,328.03 615.20,329.43 618.17,329.64 621.12,326.86 624.08,324.08 627.04,321.29 630.00,318.51 632.96,313.80 635.92,309.08 638.88,304.36 641.83,299.63 644.80,295.45 647.76,291.48 650.71,287.50 653.68,283.53 656.64,280.43 659.59,278.48 662.56,276.54 665.52,274.60 668.47,272.95 671.44,273.05 674.40,273.14 677.35,273.24 680.32,273.34 683.28,274.41 686.23,275.63 689.20,276.86 692.16,278.09 695.11,279.18 698.08,280.17 701.03,281.16 703.99,282.15 706.96,282.74 709.91,282.30 712.87,281.86 715.84,281.42 718.79,280.98 721.75,278.57 724.72,276.17 727.67,273.77 730.63,271.38 733.60,267.70 736.55,263.53 739.51,259.34 742.48,255.16 745.43,250.42 748.39,244.94 751.35,239.44 754.31,233.95 757.27,228.35 760.23,222.08 763.19,215.82 766.15,209.55 769.11,203.28 772.07,196.84 775.02,190.38 777.99,183.91 780.95,177.45 783.90,171.28 786.87,165.31 789.83,159.35 792.78,153.38 795.75,147.80 798.71,143.14 801.66,138.49 804.63,133.83 807.59,129.19 810.54,126.65 813.51,124.12 816.47,121.59 819.42,119.06 822.39,118.45 825.34,118.61 828.30,118.75 831.27,118.91 834.22,120.26 837.18,123.19 840.15,126.13 843.10,129.06 846.06,132.31 849.03,137.49 851.98,142.66 854.94,147.84 857.91,153.01 860.86,159.09 863.82,165.32 866.79,171.56 869.74,177.80 872.70,183.73 875.67,189.44 878.62,195.15 881.58,200.86 884.54,206.03 887.50,209.87 890.46,213.70 893.42,217.53 896.38,221.37 899.33,223.01 902.30,224.65 905.26,226.29 908.21,227.93 911.18,228.58 914.14,228.82 917.09,229.07 920.06,229.31 923.02,229.45 925.97,229.45 928.94,229.44 931.90,229.44 934.85,229.53 937.82,230.10 940.78,230.67 943.73,231.24 946.70,231.82 949.66,233.18 952.61,234.66 955.58,236.14 958.53,237.63 961.49,239.62 964.46,241.99 967.41,244.36 970.37,246.73 973.34,249.24 976.29,252.10 979.25,254.97 982.22,257.84 985.17,260.71 988.13,263.02 991.10,265.32 994.05,267.63 997.01,269.94 999.98,270.83 1002.93,271.13 1005.89,271.45 1008.85,271.76 1011.81,270.82 1014.77,268.22 1017.73,265.62 1020.69,263.02 1023.65,259.99 1026.61,254.36 1029.57,248.73 1032.52,243.09 1035.49,237.46 1038.45,229.51 1041.40,221.18 1044.37,212.85 1047.33,204.51 1050.28,194.94 1053.25,184.44 1056.21,173.94 1059.16,163.45 1062.13,154.28 1065.09,148.44 1068.04,142.62 1071.01,136.79 1073.97,130.97" fill="none" stroke="#111111" stroke-width="3"/>
<line x1="137" y1="184" x2="173" y2="184" stroke="#111111" stroke-width="4"/>
<text x="183" y="189" font-family="Arial" font-size="18" fill="black">Umag</text>
</svg>