<svg xmlns="http://www.w3.org/2000/svg" width="1200" height="820" viewBox="0 0 1200 820">
<rect width="100%" height="100%" fill="white"/>
<text x="600.0" y="36" text-anchor="middle" font-family="Arial" font-size="24" fill="black">profile_diagonal_supply_return: velocity magnitude</text>
<line x1="120.00" y1="75" x2="120.00" y2="705" stroke="#dddddd" stroke-width="1"/>
<text x="120.00" y="737" text-anchor="middle" font-family="Arial" font-size="16" fill="black">-0.729</text>
<line x1="376.25" y1="75" x2="376.25" y2="705" stroke="#dddddd" stroke-width="1"/>
<text x="376.25" y="737" text-anchor="middle" font-family="Arial" font-size="16" fill="black">1.913</text>
<line x1="632.50" y1="75" x2="632.50" y2="705" stroke="#dddddd" stroke-width="1"/>
<text x="632.50" y="737" text-anchor="middle" font-family="Arial" font-size="16" fill="black">4.555</text>
<line x1="888.75" y1="75" x2="888.75" y2="705" stroke="#dddddd" stroke-width="1"/>
<text x="888.75" y="737" text-anchor="middle" font-family="Arial" font-size="16" fill="black">7.197</text>
<line x1="1145.00" y1="75" x2="1145.00" y2="705" stroke="#dddddd" stroke-width="1"/>
<text x="1145.00" y="737" text-anchor="middle" font-family="Arial" font-size="16" fill="black">9.839</text>
<line x1="120" y1="705.00" x2="1145" y2="705.00" stroke="#dddddd" stroke-width="1"/>
<text x="104" y="710.00" text-anchor="end" font-family="Arial" font-size="16" fill="black">0.040</text>
<line x1="120" y1="547.50" x2="1145" y2="547.50" stroke="#dddddd" stroke-width="1"/>
<text x="104" y="552.50" text-anchor="end" font-family="Arial" font-size="16" fill="black">0.093</text>
<line x1="120" y1="390.00" x2="1145" y2="390.00" stroke="#dddddd" stroke-width="1"/>
<text x="104" y="395.00" text-anchor="end" font-family="Arial" font-size="16" fill="black">0.147</text>
<line x1="120" y1="232.50" x2="1145" y2="232.50" stroke="#dddddd" stroke-width="1"/>
<text x="104" y="237.50" text-anchor="end" font-family="Arial" font-size="16" fill="black">0.200</text>
<line x1="120" y1="75.00" x2="1145" y2="75.00" stroke="#dddddd" stroke-width="1"/>
<text x="104" y="80.00" text-anchor="end" font-family="Arial" font-size="16" fill="black">0.254</text>
<rect x="120" y="75" width="1025" height="630" fill="none" stroke="black" stroke-width="2"/>
<text x="632.5" y="785" text-anchor="middle" font-family="Arial" font-size="20" fill="black">distance along sample line [m]</text>
<text x="34" y="390.0" transform="rotate(-90 34 390.0)" text-anchor="middle" font-family="Arial" font-size="20" fill="black">|U| [m/s]</text>
<polyline points="190.69,661.55 193.64,647.15 196.58,633.45 199.53,620.41 202.47,607.98 205.42,585.91 208.36,560.46 211.31,534.44 214.25,509.05 217.20,484.94 220.14,462.12 223.09,440.83 226.03,420.31 228.98,402.71 231.93,391.19 234.87,379.39 237.82,367.38 240.76,355.25 243.71,347.71 246.65,341.44 249.60,334.84 252.54,327.34 255.49,322.30 258.43,319.15 261.38,315.65 264.32,312.50 267.27,310.52 270.22,311.88 273.16,313.41 276.11,315.15 279.05,317.18 282.00,319.42 284.94,322.09 287.88,325.16 290.83,328.60 293.78,331.93 296.73,335.67 299.67,340.44 302.62,345.65 305.57,350.18 308.50,353.71 311.45,354.86 314.40,356.54 317.34,357.75 320.29,356.95 323.24,356.48 326.18,356.22 329.12,356.10 332.07,354.33 335.01,350.36 337.96,346.38 340.91,340.97 343.85,335.20 346.80,329.25 349.74,323.45 352.68,314.26 355.63,305.34 358.58,296.72 361.53,288.41 364.47,280.38 367.42,272.52 370.36,262.06 373.30,252.52 376.25,243.78 379.20,235.77 382.14,229.24 385.09,223.88 388.04,217.78 390.97,212.69 393.92,209.16 396.87,207.63 399.81,208.86 402.76,211.54 405.71,215.72 408.65,221.67 411.59,229.12 414.54,238.10 417.48,248.64 420.43,258.62 423.38,270.13 426.32,282.85 429.27,298.87 432.21,314.38 435.16,329.87 438.10,346.86 441.05,364.84 444.00,382.98 446.94,400.35 449.89,418.96 452.84,438.95 455.77,460.47 458.72,478.63 461.67,497.09 464.61,516.06 467.56,535.76 470.51,554.54 473.45,573.82 476.39,591.15 479.34,609.10 482.28,626.20 485.23,642.29 488.18,647.20 491.12,651.79 494.07,650.50 497.01,644.36 499.96,638.20 502.90,631.70 505.85,624.53 508.80,614.68 511.74,601.07 514.69,588.13 517.63,573.48 520.57,560.35 523.52,549.17 526.47,538.92 529.41,525.06 532.36,512.85 535.31,504.69 538.24,497.54 541.19,490.97 544.14,484.67 547.08,478.81 550.03,472.63 552.98,465.89 555.92,458.35 558.86,453.26 561.81,448.81 564.76,442.16 567.70,434.12 570.65,425.73 573.60,417.31 576.54,405.80 579.49,392.34 582.43,381.65 585.37,369.82 588.32,356.57 591.27,341.82 594.21,325.51 597.16,306.55 600.11,296.22 603.04,285.26 605.99,275.28 608.94,263.57 611.88,250.85 614.83,238.19 617.78,237.39 620.72,236.16 623.66,233.42 626.61,231.44 629.55,230.24 632.50,229.74 635.45,239.72 638.40,250.64 641.34,262.48 644.28,275.28 647.23,287.71 650.17,300.69 653.12,320.83 656.07,341.76 659.01,363.14 661.96,384.89 664.90,407.92 667.84,431.68 670.79,452.08 673.74,472.83 676.68,494.03 679.63,515.70 682.58,537.93 685.51,562.26 688.46,565.35 691.41,568.62 694.35,570.61 697.30,573.72 700.25,578.36 703.20,584.21 706.14,570.90 709.08,557.81 712.03,544.97 714.97,532.20 717.92,519.62 720.87,507.25 723.81,492.24 726.76,477.72 729.70,463.80 732.64,450.55 735.59,435.47 738.54,420.08 741.48,409.86 744.43,400.29 747.38,389.37 750.31,376.38 753.26,364.67 756.21,353.77 759.15,348.33 762.10,338.91 765.05,330.10 767.99,321.92 770.93,314.41 773.88,303.02 776.83,296.51 779.77,290.53 782.72,285.94 785.67,279.20 788.61,270.93 791.55,263.18 794.50,260.15 797.44,256.47 800.39,250.32 803.34,244.69 806.28,239.63 809.23,235.15 812.17,230.80 815.11,227.03 818.06,223.79 821.01,221.08 823.95,215.49 826.90,209.04 829.85,205.12 832.79,201.89 835.73,196.79 838.68,189.02 841.63,182.42 844.57,176.54 847.52,171.88 850.47,163.82 853.41,156.84 856.35,150.98 859.30,146.24 862.24,140.29 865.19,135.91 868.14,132.90 871.08,131.52 874.03,131.08 876.97,131.64 879.91,133.49 882.86,135.94 885.81,139.91 888.75,145.71 891.70,152.78 894.65,161.08 897.58,170.71 900.53,179.30 903.48,188.58 906.43,198.56 909.37,209.28 912.32,222.29 915.27,236.39 918.20,246.17 921.15,256.35 924.10,267.92 927.04,280.99 929.99,290.68 932.94,299.84 935.88,304.22 938.82,309.52 941.77,314.06 944.71,317.77 947.66,320.71 950.61,324.01 953.55,323.36 956.50,321.86 959.44,312.76 962.38,302.78 965.33,291.80 968.28,279.40 971.22,265.74 974.17,251.23 977.12,236.51 980.06,220.58 983.00,203.50 985.95,185.25 988.90,167.85 991.84,151.10 994.79,135.17 997.74,120.24 1000.68,118.45 1003.62,125.57 1006.57,143.74 1009.51,164.17 1012.46,180.39 1015.41,189.76 1018.35,192.70 1021.30,201.27 1024.24,207.95 1027.18,196.70 1030.13,193.70 1033.08,199.68 1036.02,215.43 1038.97,223.73 1041.92,225.76 1044.86,237.86 1047.80,257.85 1050.75,278.02 1053.70,299.16 1056.64,325.89 1059.59,338.67 1062.54,352.89 1065.47,363.14 1068.42,375.21 1071.37,389.10 1074.31,404.62" fill="none" stroke="#000000" stroke-width="3"/>
<line x1="142" y1="100" x2="178" y2="100" stroke="#000000" stroke-width="4"/>
<text x="188" y="105" font-family="Arial" font-size="18" fill="black">|U|</text>
</svg>