<svg xmlns="http://www.w3.org/2000/svg" width="1200" height="820" viewBox="0 0 1200 820">
<rect width="100%" height="100%" fill="white"/>
<text x="600.0" y="36" text-anchor="middle" font-family="Arial" font-size="24" fill="black">profile_near_floor_x: rho</text>
<line x1="120.00" y1="75" x2="120.00" y2="705" stroke="#dddddd" stroke-width="1"/>
<text x="120.00" y="737" text-anchor="middle" font-family="Arial" font-size="16" fill="black">-0.560</text>
<line x1="376.25" y1="75" x2="376.25" y2="705" stroke="#dddddd" stroke-width="1"/>
<text x="376.25" y="737" text-anchor="middle" font-family="Arial" font-size="16" fill="black">1.470</text>
<line x1="632.50" y1="75" x2="632.50" y2="705" stroke="#dddddd" stroke-width="1"/>
<text x="632.50" y="737" text-anchor="middle" font-family="Arial" font-size="16" fill="black">3.500</text>
<line x1="888.75" y1="75" x2="888.75" y2="705" stroke="#dddddd" stroke-width="1"/>
<text x="888.75" y="737" text-anchor="middle" font-family="Arial" font-size="16" fill="black">5.530</text>
<line x1="1145.00" y1="75" x2="1145.00" y2="705" stroke="#dddddd" stroke-width="1"/>
<text x="1145.00" y="737" text-anchor="middle" font-family="Arial" font-size="16" fill="black">7.560</text>
<line x1="120" y1="705.00" x2="1145" y2="705.00" stroke="#dddddd" stroke-width="1"/>
<text x="104" y="710.00" text-anchor="end" font-family="Arial" font-size="16" fill="black">1.181</text>
<line x1="120" y1="547.50" x2="1145" y2="547.50" stroke="#dddddd" stroke-width="1"/>
<text x="104" y="552.50" text-anchor="end" font-family="Arial" font-size="16" fill="black">1.195</text>
<line x1="120" y1="390.00" x2="1145" y2="390.00" stroke="#dddddd" stroke-width="1"/>
<text x="104" y="395.00" text-anchor="end" font-family="Arial" font-size="16" fill="black">1.208</text>
<line x1="120" y1="232.50" x2="1145" y2="232.50" stroke="#dddddd" stroke-width="1"/>
<text x="104" y="237.50" text-anchor="end" font-family="Arial" font-size="16" fill="black">1.222</text>
<line x1="120" y1="75.00" x2="1145" y2="75.00" stroke="#dddddd" stroke-width="1"/>
<text x="104" y="80.00" text-anchor="end" font-family="Arial" font-size="16" fill="black">1.236</text>
<rect x="120" y="75" width="1025" height="630" fill="none" stroke="black" stroke-width="2"/>
<text x="632.5" y="785" text-anchor="middle" font-family="Arial" font-size="20" fill="black">x coordinate [m]</text>
<text x="34" y="390.0" transform="rotate(-90 34 390.0)" text-anchor="middle" font-family="Arial" font-size="20" fill="black">rho [kg/m3]</text>
<polyline points="190.69,574.06 193.64,575.20 196.58,576.34 199.53,576.34 202.47,577.47 205.42,578.61 208.36,579.75 211.31,580.88 214.25,580.88 217.20,582.02 220.14,580.88 223.09,580.88 226.03,579.75 228.98,578.61 231.93,576.34 234.87,572.93 237.82,569.52 240.76,566.11 243.71,559.29 246.65,552.48 249.60,545.66 252.54,538.84 255.49,529.75 258.43,517.25 261.38,505.89 264.32,494.53 267.27,480.90 270.22,464.99 273.16,449.08 276.11,433.18 279.05,416.13 282.00,402.50 284.94,387.73 287.89,374.09 290.83,360.46 293.78,346.82 296.72,334.33 299.67,321.83 302.62,310.47 305.56,292.29 308.51,267.29 311.45,243.43 314.40,218.43 317.34,194.57 320.29,176.39 323.23,158.22 326.17,141.17 329.13,122.99 332.07,119.58 335.01,119.58 337.96,119.58 340.91,118.45 343.85,118.45 346.80,118.45 349.74,118.45 352.68,118.45 355.64,118.45 358.58,118.45 361.52,118.45 364.47,118.45 367.41,118.45 370.35,118.45 373.31,118.45 376.25,118.45 379.19,118.45 382.15,118.45 385.09,118.45 388.03,118.45 390.98,118.45 393.92,118.45 396.86,119.58 399.82,120.72 402.76,121.86 405.70,126.40 408.65,152.53 411.59,179.80 414.54,207.07 417.49,234.34 420.43,271.84 423.37,310.47 426.33,350.23 429.27,390.00 432.21,417.27 435.16,435.45 438.10,453.63 441.04,471.81 444.00,487.71 446.94,496.80 449.88,507.03 452.83,516.12 455.78,526.34 458.72,533.16 461.67,539.98 464.61,545.66 467.55,552.48 470.51,557.02 473.45,560.43 476.39,563.84 479.34,566.11 482.28,568.38 485.23,568.38 488.18,569.52 491.12,569.52 494.06,570.66 497.02,568.38 499.96,567.25 502.90,564.97 505.85,563.84 508.79,560.43 511.73,555.89 514.69,552.48 517.63,547.93 520.57,543.39 523.52,537.71 526.47,530.89 529.41,525.21 532.36,518.39 535.30,511.57 538.24,504.76 541.20,497.94 544.14,489.99 547.08,483.17 550.03,476.35 552.97,469.53 555.92,462.72 558.87,449.08 561.81,432.04 564.75,416.13 567.71,400.23 570.65,375.23 573.59,337.73 576.54,300.24 579.48,262.75 582.42,226.39 585.38,201.39 588.32,176.39 591.26,150.26 594.21,125.27 597.16,120.72 600.10,120.72 603.05,119.58 605.99,118.45 608.93,118.45 611.89,118.45 614.83,118.45 617.77,118.45 620.72,118.45 623.66,118.45 626.60,118.45 629.56,118.45 632.50,118.45 635.44,118.45 638.40,118.45 641.34,118.45 644.28,118.45 647.23,118.45 650.17,118.45 653.11,118.45 656.07,118.45 659.01,118.45 661.95,119.58 664.90,120.72 667.84,121.86 670.79,126.40 673.74,151.40 676.68,177.53 679.62,203.66 682.58,229.80 685.52,262.75 688.46,297.97 691.41,332.05 694.35,367.28 697.29,388.86 700.25,400.23 703.19,412.72 706.13,424.09 709.08,434.31 712.03,439.99 714.97,445.67 717.92,452.49 720.86,458.17 723.80,467.26 726.76,477.49 729.70,487.71 732.64,496.80 735.59,507.03 738.53,518.39 741.48,529.75 744.43,539.98 747.37,550.20 750.31,559.29 753.27,568.38 756.21,576.34 759.15,585.43 762.10,591.11 765.04,596.79 767.98,602.47 770.94,608.15 773.88,611.56 776.82,614.97 779.77,618.38 782.72,620.65 785.66,622.92 788.61,622.92 791.55,622.92 794.49,624.06 797.45,622.92 800.39,619.51 803.33,616.10 806.28,612.70 809.22,609.29 812.17,600.20 815.12,591.11 818.06,582.02 821.00,572.93 823.96,553.61 826.90,529.75 829.84,507.03 832.79,483.17 835.73,449.08 838.67,400.23 841.63,352.51 844.57,303.65 847.51,258.20 850.46,226.39 853.41,193.44 856.35,161.62 859.30,129.81 862.24,124.13 865.18,121.86 868.14,120.72 871.08,119.58 874.02,118.45 876.97,118.45 879.91,118.45 882.85,118.45 885.81,118.45 888.75,118.45 891.69,118.45 894.65,118.45 897.59,118.45 900.53,118.45 903.48,118.45 906.42,118.45 909.36,118.45 912.32,118.45 915.26,118.45 918.20,118.45 921.15,118.45 924.09,119.58 927.04,119.58 929.99,120.72 932.93,121.86 935.87,127.54 938.83,159.35 941.77,191.17 944.71,222.98 947.66,254.79 950.60,293.42 953.54,332.05 956.50,371.82 959.44,410.45 962.38,435.45 965.33,449.08 968.28,462.72 971.22,475.21 974.17,488.85 977.11,499.08 980.05,509.30 983.01,520.66 985.95,530.89 988.89,541.11 991.84,550.20 994.78,559.29 997.73,569.52 1000.68,577.47 1003.62,583.15 1006.56,589.97 1009.52,596.79 1012.46,602.47 1015.40,607.01 1018.35,611.56 1021.29,616.10 1024.23,620.65 1027.19,624.06 1030.13,627.47 1033.07,630.87 1036.02,634.28 1038.97,637.69 1041.91,641.10 1044.86,643.37 1047.80,646.78 1050.74,649.05 1053.70,651.33 1056.64,653.60 1059.58,655.87 1062.53,658.14 1065.47,659.28 1068.42,660.42 1071.37,661.55 1074.31,661.55" fill="none" stroke="#000000" stroke-width="3"/>
<line x1="142" y1="100" x2="178" y2="100" stroke="#000000" stroke-width="4"/>
<text x="188" y="105" font-family="Arial" font-size="18" fill="black">rho</text>
</svg>