<svg xmlns="http://www.w3.org/2000/svg" width="1200" height="820" viewBox="0 0 1200 820">
<rect width="100%" height="100%" fill="white"/>
<text x="600.0" y="36" text-anchor="middle" font-family="Arial" font-size="24" fill="black">profile_near_floor_x: U:1</text>
<line x1="120.00" y1="75" x2="120.00" y2="705" stroke="#dddddd" stroke-width="1"/>
<text x="120.00" y="737" text-anchor="middle" font-family="Arial" font-size="16" fill="black">-0.560</text>
<line x1="376.25" y1="75" x2="376.25" y2="705" stroke="#dddddd" stroke-width="1"/>
<text x="376.25" y="737" text-anchor="middle" font-family="Arial" font-size="16" fill="black">1.470</text>
<line x1="632.50" y1="75" x2="632.50" y2="705" stroke="#dddddd" stroke-width="1"/>
<text x="632.50" y="737" text-anchor="middle" font-family="Arial" font-size="16" fill="black">3.500</text>
<line x1="888.75" y1="75" x2="888.75" y2="705" stroke="#dddddd" stroke-width="1"/>
<text x="888.75" y="737" text-anchor="middle" font-family="Arial" font-size="16" fill="black">5.530</text>
<line x1="1145.00" y1="75" x2="1145.00" y2="705" stroke="#dddddd" stroke-width="1"/>
<text x="1145.00" y="737" text-anchor="middle" font-family="Arial" font-size="16" fill="black">7.560</text>
<line x1="120" y1="705.00" x2="1145" y2="705.00" stroke="#dddddd" stroke-width="1"/>
<text x="104" y="710.00" text-anchor="end" font-family="Arial" font-size="16" fill="black">-0.010</text>
<line x1="120" y1="547.50" x2="1145" y2="547.50" stroke="#dddddd" stroke-width="1"/>
<text x="104" y="552.50" text-anchor="end" font-family="Arial" font-size="16" fill="black">0.046</text>
<line x1="120" y1="390.00" x2="1145" y2="390.00" stroke="#dddddd" stroke-width="1"/>
<text x="104" y="395.00" text-anchor="end" font-family="Arial" font-size="16" fill="black">0.101</text>
<line x1="120" y1="232.50" x2="1145" y2="232.50" stroke="#dddddd" stroke-width="1"/>
<text x="104" y="237.50" text-anchor="end" font-family="Arial" font-size="16" fill="black">0.157</text>
<line x1="120" y1="75.00" x2="1145" y2="75.00" stroke="#dddddd" stroke-width="1"/>
<text x="104" y="80.00" text-anchor="end" font-family="Arial" font-size="16" fill="black">0.213</text>
<rect x="120" y="75" width="1025" height="630" fill="none" stroke="black" stroke-width="2"/>
<text x="632.5" y="785" text-anchor="middle" font-family="Arial" font-size="20" fill="black">x coordinate [m]</text>
<text x="34" y="390.0" transform="rotate(-90 34 390.0)" text-anchor="middle" font-family="Arial" font-size="20" fill="black">U:1 [SI]</text>
<polyline points="190.69,169.54 193.64,165.56 196.58,161.60 199.53,157.64 202.47,153.69 205.42,148.71 208.36,143.32 211.31,137.95 214.25,132.58 217.20,128.76 220.14,127.01 223.09,125.29 226.03,123.53 228.98,122.18 231.93,123.11 234.87,124.04 237.82,124.98 240.76,125.88 243.71,129.33 246.65,133.17 249.60,137.01 252.54,140.86 255.49,145.46 258.43,150.66 261.38,155.83 264.32,161.03 267.27,165.10 270.22,166.43 273.16,167.73 276.11,169.03 279.05,170.36 282.00,165.56 284.94,160.75 287.89,155.98 290.83,151.17 293.78,164.28 296.72,184.57 299.67,204.84 302.62,225.12 305.56,262.06 308.51,321.29 311.45,380.49 314.40,439.69 317.34,495.27 320.29,529.08 323.23,562.89 326.17,596.71 329.13,630.52 332.07,633.69 335.01,631.75 337.96,629.81 340.91,627.87 343.85,626.68 346.80,626.05 349.74,625.42 352.68,624.79 355.64,624.15 358.58,623.52 361.52,622.89 364.47,622.26 367.41,621.63 370.35,620.91 373.31,620.19 376.25,619.47 379.19,618.75 382.15,617.86 385.09,616.91 388.03,615.96 390.98,615.01 393.92,613.81 396.86,612.27 399.82,610.74 402.76,609.21 405.70,601.80 408.65,559.14 411.59,516.47 414.54,473.81 417.49,431.15 420.43,374.98 423.37,316.57 426.33,258.16 429.27,199.75 432.21,167.31 435.16,154.37 438.10,141.42 441.04,128.51 444.00,122.07 446.94,131.87 449.88,141.68 452.83,151.48 455.78,161.29 458.72,171.89 461.67,182.48 464.61,193.08 467.55,203.68 470.51,212.61 473.45,220.83 476.39,229.08 479.34,237.30 482.28,244.71 485.23,251.01 488.18,257.31 491.12,263.61 494.06,269.46 497.02,272.68 499.96,275.88 502.90,279.10 505.85,282.32 508.79,280.68 511.73,278.25 514.69,275.85 517.63,273.42 520.57,268.08 523.52,260.59 526.47,253.10 529.41,245.58 532.36,237.08 535.30,226.00 538.24,214.92 541.20,203.85 544.14,192.80 547.08,178.75 550.03,164.71 552.97,150.66 555.92,136.62 558.87,129.89 561.81,126.08 564.75,122.26 567.71,118.45 570.65,139.53 573.59,193.87 576.54,248.18 579.48,302.50 582.42,356.64 585.38,409.80 588.32,462.96 591.26,516.11 594.21,569.27 597.16,580.69 600.10,585.17 603.05,589.64 605.99,594.11 608.93,597.96 611.89,601.34 614.83,604.73 617.77,608.11 620.72,611.26 623.66,613.84 626.60,616.41 629.56,618.99 632.50,621.57 635.44,623.83 638.40,626.10 641.34,628.37 644.28,630.65 647.23,632.98 650.17,635.33 653.11,637.69 656.07,640.04 659.01,643.64 661.95,648.89 664.90,654.15 667.84,659.40 670.79,661.55 673.74,645.11 676.68,628.67 679.62,612.23 682.58,595.79 685.52,546.07 688.46,490.81 691.41,435.54 694.35,380.26 697.29,334.88 700.25,296.85 703.19,258.84 706.13,220.83 709.08,195.42 712.03,201.44 714.97,207.49 717.92,213.51 720.86,219.56 723.80,234.96 726.76,250.36 729.70,265.76 732.64,281.16 735.59,291.70 738.53,300.29 741.48,308.88 744.43,317.47 747.37,323.32 750.31,325.50 753.27,327.70 756.21,329.88 759.15,331.46 762.10,329.40 765.04,327.31 767.98,325.25 770.94,323.15 773.88,318.75 776.82,313.94 779.77,309.14 782.72,304.31 785.66,298.74 788.61,292.55 791.55,286.39 794.49,280.23 797.45,274.27 800.39,268.90 803.33,263.53 806.28,258.13 809.22,252.76 812.17,252.59 815.12,252.42 818.06,252.25 821.00,252.08 823.96,265.85 826.90,285.20 829.84,304.56 832.79,323.89 835.73,354.63 838.67,400.60 841.63,446.55 844.57,492.51 847.51,536.06 850.46,565.22 853.41,594.38 856.35,623.54 859.30,652.70 862.24,657.21 865.18,657.61 868.14,658.00 871.08,658.40 874.02,658.29 876.97,657.80 879.91,657.31 882.85,656.83 885.81,656.32 888.75,655.75 891.69,655.18 894.65,654.62 897.59,654.05 900.53,653.69 903.48,653.34 906.42,652.98 909.36,652.63 912.32,652.57 915.26,652.62 918.20,652.67 921.15,652.73 924.09,653.16 927.04,654.11 929.99,655.05 932.93,656.00 935.87,654.72 938.83,640.12 941.77,625.51 944.71,610.91 947.66,596.30 950.60,575.68 953.54,554.07 956.50,532.45 959.44,510.83 962.38,497.90 965.33,491.49 968.28,485.08 971.22,478.67 974.17,474.90 977.11,477.74 980.05,480.58 983.01,483.43 985.95,486.27 988.89,494.43 991.84,502.59 994.78,510.75 997.73,518.91 1000.68,526.98 1003.62,535.01 1006.56,543.04 1009.52,551.07 1012.46,557.16 1015.40,560.65 1018.35,564.14 1021.29,567.64 1024.23,570.68 1027.19,571.01 1030.13,571.34 1033.07,571.66 1036.02,571.99 1038.97,572.70 1041.91,573.47 1044.86,574.24 1047.80,575.02 1050.74,579.75 1053.70,587.46 1056.64,595.17 1059.58,602.88 1062.53,610.30 1065.47,617.00 1068.42,623.70 1071.37,630.40 1074.31,637.11" fill="none" stroke="#000000" stroke-width="3"/>
<line x1="142" y1="100" x2="178" y2="100" stroke="#000000" stroke-width="4"/>
<text x="188" y="105" font-family="Arial" font-size="18" fill="black">U:1</text>
</svg>