<svg xmlns="http://www.w3.org/2000/svg" width="1200" height="820" viewBox="0 0 1200 820">
<rect width="100%" height="100%" fill="white"/>
<text x="600.0" y="36" text-anchor="middle" font-family="Arial" font-size="24" fill="black">profile_near_floor_x: vorticity:2</text>
<line x1="120.00" y1="75" x2="120.00" y2="705" stroke="#dddddd" stroke-width="1"/>
<text x="120.00" y="737" text-anchor="middle" font-family="Arial" font-size="16" fill="black">-0.560</text>
<line x1="376.25" y1="75" x2="376.25" y2="705" stroke="#dddddd" stroke-width="1"/>
<text x="376.25" y="737" text-anchor="middle" font-family="Arial" font-size="16" fill="black">1.470</text>
<line x1="632.50" y1="75" x2="632.50" y2="705" stroke="#dddddd" stroke-width="1"/>
<text x="632.50" y="737" text-anchor="middle" font-family="Arial" font-size="16" fill="black">3.500</text>
<line x1="888.75" y1="75" x2="888.75" y2="705" stroke="#dddddd" stroke-width="1"/>
<text x="888.75" y="737" text-anchor="middle" font-family="Arial" font-size="16" fill="black">5.530</text>
<line x1="1145.00" y1="75" x2="1145.00" y2="705" stroke="#dddddd" stroke-width="1"/>
<text x="1145.00" y="737" text-anchor="middle" font-family="Arial" font-size="16" fill="black">7.560</text>
<line x1="120" y1="705.00" x2="1145" y2="705.00" stroke="#dddddd" stroke-width="1"/>
<text x="104" y="710.00" text-anchor="end" font-family="Arial" font-size="16" fill="black">-1.112</text>
<line x1="120" y1="547.50" x2="1145" y2="547.50" stroke="#dddddd" stroke-width="1"/>
<text x="104" y="552.50" text-anchor="end" font-family="Arial" font-size="16" fill="black">-0.309</text>
<line x1="120" y1="390.00" x2="1145" y2="390.00" stroke="#dddddd" stroke-width="1"/>
<text x="104" y="395.00" text-anchor="end" font-family="Arial" font-size="16" fill="black">0.494</text>
<line x1="120" y1="232.50" x2="1145" y2="232.50" stroke="#dddddd" stroke-width="1"/>
<text x="104" y="237.50" text-anchor="end" font-family="Arial" font-size="16" fill="black">1.297</text>
<line x1="120" y1="75.00" x2="1145" y2="75.00" stroke="#dddddd" stroke-width="1"/>
<text x="104" y="80.00" text-anchor="end" font-family="Arial" font-size="16" fill="black">2.100</text>
<rect x="120" y="75" width="1025" height="630" fill="none" stroke="black" stroke-width="2"/>
<text x="632.5" y="785" text-anchor="middle" font-family="Arial" font-size="20" fill="black">x coordinate [m]</text>
<text x="34" y="390.0" transform="rotate(-90 34 390.0)" text-anchor="middle" font-family="Arial" font-size="20" fill="black">vorticity:2 [SI]</text>
<polyline points="190.69,118.45 193.64,159.06 196.58,199.69 199.53,240.32 202.47,280.93 205.42,322.66 208.36,364.83 211.31,407.00 214.25,449.17 217.20,474.59 220.14,477.71 223.09,480.82 226.03,483.93 228.98,487.07 231.93,490.38 234.87,493.69 237.82,497.00 240.76,500.31 243.71,503.44 246.65,506.55 249.60,509.66 252.54,512.76 255.49,514.62 258.43,515.54 261.38,516.46 264.32,517.38 267.27,517.57 270.22,515.90 273.16,514.23 276.11,512.57 279.05,510.90 282.00,520.71 284.94,530.52 287.89,540.33 290.83,550.14 293.78,570.95 296.72,596.16 299.67,621.36 302.62,646.57 305.56,661.05 308.51,661.22 311.45,661.39 314.40,661.55 317.34,657.83 320.29,630.76 323.23,603.69 326.17,576.62 329.13,549.55 332.07,534.21 335.01,520.82 337.96,507.43 340.91,494.05 343.85,488.12 346.80,487.80 349.74,487.47 352.68,487.15 355.64,486.92 358.58,486.92 361.52,486.92 364.47,486.92 367.41,486.92 370.35,486.91 373.31,486.89 376.25,486.88 379.19,486.86 382.15,486.54 385.09,486.10 388.03,485.67 390.98,485.23 393.92,478.48 396.86,463.32 399.82,448.16 402.76,433.00 405.70,416.67 408.65,393.36 411.59,370.06 414.54,346.75 417.49,323.44 420.43,324.64 423.37,329.92 426.33,335.19 429.27,340.47 432.21,355.90 435.16,378.96 438.10,402.01 441.04,425.06 444.00,444.35 446.94,454.23 449.88,464.10 452.83,473.98 455.78,483.86 458.72,484.58 461.67,485.30 464.61,486.02 467.55,486.74 470.51,486.93 473.45,486.91 476.39,486.89 479.34,486.87 482.28,486.64 485.23,486.13 488.18,485.61 491.12,485.09 494.06,484.41 497.02,482.76 499.96,481.11 502.90,479.46 505.85,477.80 508.79,476.41 511.73,475.06 514.69,473.71 517.63,472.36 520.57,471.79 523.52,471.82 526.47,471.85 529.41,471.87 532.36,471.89 535.30,471.90 538.24,471.91 541.20,471.93 544.14,471.94 547.08,476.99 550.03,482.05 552.97,487.10 555.92,492.15 558.87,510.73 561.81,534.72 564.75,558.71 567.71,582.69 570.65,602.82 573.59,617.79 576.54,632.76 579.48,647.73 582.42,657.48 585.38,635.91 588.32,614.34 591.26,592.77 594.21,571.20 597.16,552.37 600.10,534.00 603.05,515.63 605.99,497.26 608.93,489.05 611.89,488.45 614.83,487.86 617.77,487.27 620.72,486.85 623.66,486.86 626.60,486.87 629.56,486.87 632.50,486.88 635.44,486.87 638.40,486.87 641.34,486.86 644.28,486.85 647.23,486.68 650.17,486.46 653.11,486.23 656.07,486.00 659.01,482.32 661.95,474.01 664.90,465.71 667.84,457.41 670.79,446.13 673.74,416.92 676.68,387.71 679.62,358.51 682.58,329.30 685.52,312.18 688.46,297.08 691.41,281.99 694.35,266.87 697.29,274.97 700.25,300.44 703.19,325.92 706.13,351.40 709.08,376.67 712.03,401.42 714.97,426.16 717.92,450.91 720.86,475.66 723.80,480.42 726.76,485.17 729.70,489.93 732.64,494.68 735.59,494.77 738.53,492.99 741.48,491.22 744.43,489.44 747.37,487.67 750.31,485.90 753.27,484.14 756.21,482.37 759.15,480.75 762.10,479.97 765.04,479.19 767.98,478.42 770.94,477.64 773.88,477.25 776.82,476.92 779.77,476.60 782.72,476.27 785.66,476.28 788.61,476.55 791.55,476.82 794.49,477.09 797.45,477.85 800.39,479.85 803.33,481.85 806.28,483.84 809.22,485.84 812.17,494.25 815.12,502.65 818.06,511.06 821.00,519.46 823.96,533.36 826.90,549.44 829.84,565.52 832.79,581.60 835.73,591.86 838.67,594.34 841.63,596.82 844.57,599.30 847.51,599.06 850.46,582.49 853.41,565.93 856.35,549.37 859.30,532.81 862.24,521.92 865.18,511.98 868.14,502.04 871.08,492.11 874.02,487.72 876.97,487.50 879.91,487.27 882.85,487.05 885.81,486.89 888.75,486.89 891.69,486.88 894.65,486.88 897.59,486.88 900.53,486.89 903.48,486.90 906.42,486.91 909.36,486.92 912.32,486.84 915.26,486.72 918.20,486.61 921.15,486.50 924.09,484.01 927.04,478.37 929.99,472.72 932.93,467.07 935.87,460.85 938.83,451.17 941.77,441.49 944.71,431.81 947.66,422.14 950.60,421.54 953.54,422.46 956.50,423.38 959.44,424.30 962.38,429.97 965.33,439.21 968.28,448.45 971.22,457.69 974.17,466.42 977.11,473.86 980.05,481.31 983.01,488.75 985.95,496.20 988.89,500.77 991.84,505.33 994.78,509.89 997.73,514.46 1000.68,516.35 1003.62,517.17 1006.56,517.99 1009.52,518.81 1012.46,518.84 1015.40,517.80 1018.35,516.77 1021.29,515.73 1024.23,514.77 1027.19,514.27 1030.13,513.77 1033.07,513.27 1036.02,512.77 1038.97,514.06 1041.91,515.65 1044.86,517.25 1047.80,518.84 1050.74,522.22 1053.70,526.95 1056.64,531.68 1059.58,536.41 1062.53,540.70 1065.47,543.90 1068.42,547.10 1071.37,550.30 1074.31,553.50" fill="none" stroke="#000000" stroke-width="3"/>
<line x1="142" y1="100" x2="178" y2="100" stroke="#000000" stroke-width="4"/>
<text x="188" y="105" font-family="Arial" font-size="18" fill="black">vorticity:2</text>
</svg>