<svg xmlns="http://www.w3.org/2000/svg" width="1200" height="820" viewBox="0 0 1200 820">
<rect width="100%" height="100%" fill="white"/>
<text x="600.0" y="36" text-anchor="middle" font-family="Arial" font-size="24" fill="black">profile_center_x: U:0</text>
<line x1="120.00" y1="75" x2="120.00" y2="705" stroke="#dddddd" stroke-width="1"/>
<text x="120.00" y="737" text-anchor="middle" font-family="Arial" font-size="16" fill="black">-0.560</text>
<line x1="376.25" y1="75" x2="376.25" y2="705" stroke="#dddddd" stroke-width="1"/>
<text x="376.25" y="737" text-anchor="middle" font-family="Arial" font-size="16" fill="black">1.470</text>
<line x1="632.50" y1="75" x2="632.50" y2="705" stroke="#dddddd" stroke-width="1"/>
<text x="632.50" y="737" text-anchor="middle" font-family="Arial" font-size="16" fill="black">3.500</text>
<line x1="888.75" y1="75" x2="888.75" y2="705" stroke="#dddddd" stroke-width="1"/>
<text x="888.75" y="737" text-anchor="middle" font-family="Arial" font-size="16" fill="black">5.530</text>
<line x1="1145.00" y1="75" x2="1145.00" y2="705" stroke="#dddddd" stroke-width="1"/>
<text x="1145.00" y="737" text-anchor="middle" font-family="Arial" font-size="16" fill="black">7.560</text>
<line x1="120" y1="705.00" x2="1145" y2="705.00" stroke="#dddddd" stroke-width="1"/>
<text x="104" y="710.00" text-anchor="end" font-family="Arial" font-size="16" fill="black">-0.196</text>
<line x1="120" y1="547.50" x2="1145" y2="547.50" stroke="#dddddd" stroke-width="1"/>
<text x="104" y="552.50" text-anchor="end" font-family="Arial" font-size="16" fill="black">-0.105</text>
<line x1="120" y1="390.00" x2="1145" y2="390.00" stroke="#dddddd" stroke-width="1"/>
<text x="104" y="395.00" text-anchor="end" font-family="Arial" font-size="16" fill="black">-0.013</text>
<line x1="120" y1="232.50" x2="1145" y2="232.50" stroke="#dddddd" stroke-width="1"/>
<text x="104" y="237.50" text-anchor="end" font-family="Arial" font-size="16" fill="black">0.079</text>
<line x1="120" y1="75.00" x2="1145" y2="75.00" stroke="#dddddd" stroke-width="1"/>
<text x="104" y="80.00" text-anchor="end" font-family="Arial" font-size="16" fill="black">0.170</text>
<rect x="120" y="75" width="1025" height="630" fill="none" stroke="black" stroke-width="2"/>
<text x="632.5" y="785" text-anchor="middle" font-family="Arial" font-size="20" fill="black">x coordinate [m]</text>
<text x="34" y="390.0" transform="rotate(-90 34 390.0)" text-anchor="middle" font-family="Arial" font-size="20" fill="black">U:0 [SI]</text>
<polyline points="190.69,305.20 193.64,298.41 196.58,291.61 199.53,284.82 202.47,278.03 205.42,268.48 208.36,257.83 211.31,247.17 214.25,236.52 217.20,228.20 220.14,223.00 223.09,217.79 226.03,212.59 228.98,207.85 231.93,205.92 234.87,203.98 237.82,202.05 240.76,200.12 243.71,198.58 246.65,197.10 249.60,195.61 252.54,194.14 255.49,192.11 258.43,189.65 261.38,187.22 264.32,184.78 267.27,181.98 270.22,178.34 273.16,174.68 276.11,171.02 279.05,167.38 282.00,163.09 284.94,158.80 287.89,154.51 290.83,150.21 293.78,146.20 296.72,142.30 299.67,138.40 302.62,134.49 305.56,131.14 308.51,128.54 311.45,125.95 314.40,123.34 317.34,121.02 320.29,120.39 323.23,119.74 326.17,119.10 329.13,118.45 332.07,120.18 335.01,122.31 337.96,124.46 340.91,126.59 343.85,130.74 346.80,136.43 349.74,142.09 352.68,147.78 355.64,154.45 358.58,163.68 361.52,172.90 364.47,182.10 367.41,191.32 370.35,203.46 373.31,215.60 376.25,227.74 379.19,239.88 382.15,253.57 385.09,267.88 388.03,282.19 390.98,296.51 393.92,311.26 396.86,326.61 399.82,341.96 402.76,357.30 405.70,372.53 408.65,387.06 411.59,401.58 414.54,416.11 417.49,430.63 420.43,443.08 423.37,455.18 426.33,467.28 429.27,479.38 432.21,489.84 435.16,499.07 438.10,508.30 441.04,517.53 444.00,525.99 446.94,532.52 449.88,539.06 452.83,545.58 455.78,552.12 458.72,556.49 461.67,560.85 464.61,565.21 467.55,569.57 470.51,572.92 473.45,575.87 476.39,578.81 479.34,581.76 482.28,584.35 485.23,586.48 488.18,588.59 491.12,590.72 494.06,592.80 497.02,594.52 499.96,596.25 502.90,597.97 505.85,599.69 508.79,601.28 511.73,602.83 514.69,604.39 517.63,605.95 520.57,607.45 523.52,608.87 526.47,610.31 529.41,611.74 532.36,613.11 535.30,614.32 538.24,615.52 541.20,616.72 544.14,617.92 547.08,618.71 550.03,619.52 552.97,620.31 555.92,621.12 558.87,621.49 561.81,621.72 564.75,621.96 567.71,622.18 570.65,622.11 573.59,621.68 576.54,621.24 579.48,620.79 582.42,620.26 585.38,619.12 588.32,617.99 591.26,616.87 594.21,615.74 597.16,614.04 600.10,612.27 603.05,610.49 605.99,608.70 608.93,606.61 611.89,604.27 614.83,601.94 617.77,599.62 620.72,597.16 623.66,594.42 626.60,591.68 629.56,588.94 632.50,586.21 635.44,583.19 638.40,580.18 641.34,577.16 644.28,574.15 647.23,570.99 650.17,567.80 653.11,564.61 656.07,561.41 659.01,558.15 661.95,554.80 664.90,551.45 667.84,548.11 670.79,544.74 673.74,541.24 676.68,537.75 679.62,534.25 682.58,530.76 685.52,527.11 688.46,523.43 691.41,519.76 694.35,516.09 697.29,512.28 700.25,508.39 703.19,504.49 706.13,500.59 709.08,496.60 712.03,492.40 714.97,488.19 717.92,483.99 720.86,479.78 723.80,475.17 726.76,470.56 729.70,465.95 732.64,461.35 735.59,456.41 738.53,451.34 741.48,446.27 744.43,441.21 747.37,435.98 750.31,430.55 753.27,425.11 756.21,419.68 759.15,414.23 762.10,408.74 765.04,403.24 767.98,397.75 770.94,392.25 773.88,387.18 776.82,382.18 779.77,377.17 782.72,372.17 785.66,367.89 788.61,364.16 791.55,360.43 794.49,356.69 797.45,353.53 800.39,351.79 803.33,350.05 806.28,348.31 809.22,346.57 812.17,347.29 815.12,348.00 818.06,348.72 821.00,349.43 823.96,352.02 826.90,355.36 829.84,358.70 832.79,362.04 835.73,366.43 838.67,372.23 841.63,378.03 844.57,383.83 847.51,389.91 850.46,397.71 853.41,405.52 856.35,413.32 859.30,421.12 862.24,430.06 865.18,439.20 868.14,448.33 871.08,457.46 874.02,466.93 876.97,476.63 879.91,486.33 882.85,496.04 885.81,505.69 888.75,515.22 891.69,524.75 894.65,534.28 897.59,543.81 900.53,552.55 903.48,561.28 906.42,570.02 909.36,578.76 912.32,586.57 915.26,594.04 918.20,601.49 921.15,608.96 924.09,615.71 927.04,621.51 929.99,627.33 932.93,633.13 935.87,638.66 938.83,642.53 941.77,646.39 944.71,650.25 947.66,654.10 950.60,656.11 953.54,657.79 956.50,659.47 959.44,661.16 962.38,661.55 965.33,660.99 968.28,660.40 971.22,659.83 974.17,658.67 977.11,656.02 980.05,653.38 983.01,650.73 985.95,648.09 988.89,643.69 991.84,639.32 994.78,634.92 997.73,630.52 1000.68,624.98 1003.62,618.97 1006.56,612.94 1009.52,606.93 1012.46,600.17 1015.40,592.42 1018.35,584.66 1021.29,576.92 1024.23,568.90 1027.19,559.23 1030.13,549.57 1033.07,539.90 1036.02,530.23 1038.97,518.94 1041.91,507.39 1044.86,495.83 1047.80,484.28 1050.74,472.12 1053.70,459.52 1056.64,446.91 1059.58,434.31 1062.53,423.48 1065.47,417.09 1068.42,410.70 1071.37,404.31 1074.31,397.92" fill="none" stroke="#000000" stroke-width="3"/>
<line x1="142" y1="100" x2="178" y2="100" stroke="#000000" stroke-width="4"/>
<text x="188" y="105" font-family="Arial" font-size="18" fill="black">U:0</text>
</svg>