<svg xmlns="http://www.w3.org/2000/svg" width="1200" height="820" viewBox="0 0 1200 820">
<rect width="100%" height="100%" fill="white"/>
<text x="600.0" y="36" text-anchor="middle" font-family="Arial" font-size="24" fill="black">profile_near_ceiling_x: rho</text>
<line x1="120.00" y1="75" x2="120.00" y2="705" stroke="#dddddd" stroke-width="1"/>
<text x="120.00" y="737" text-anchor="middle" font-family="Arial" font-size="16" fill="black">-0.560</text>
<line x1="376.25" y1="75" x2="376.25" y2="705" stroke="#dddddd" stroke-width="1"/>
<text x="376.25" y="737" text-anchor="middle" font-family="Arial" font-size="16" fill="black">1.470</text>
<line x1="632.50" y1="75" x2="632.50" y2="705" stroke="#dddddd" stroke-width="1"/>
<text x="632.50" y="737" text-anchor="middle" font-family="Arial" font-size="16" fill="black">3.500</text>
<line x1="888.75" y1="75" x2="888.75" y2="705" stroke="#dddddd" stroke-width="1"/>
<text x="888.75" y="737" text-anchor="middle" font-family="Arial" font-size="16" fill="black">5.530</text>
<line x1="1145.00" y1="75" x2="1145.00" y2="705" stroke="#dddddd" stroke-width="1"/>
<text x="1145.00" y="737" text-anchor="middle" font-family="Arial" font-size="16" fill="black">7.560</text>
<line x1="120" y1="705.00" x2="1145" y2="705.00" stroke="#dddddd" stroke-width="1"/>
<text x="104" y="710.00" text-anchor="end" font-family="Arial" font-size="16" fill="black">1.156</text>
<line x1="120" y1="547.50" x2="1145" y2="547.50" stroke="#dddddd" stroke-width="1"/>
<text x="104" y="552.50" text-anchor="end" font-family="Arial" font-size="16" fill="black">1.158</text>
<line x1="120" y1="390.00" x2="1145" y2="390.00" stroke="#dddddd" stroke-width="1"/>
<text x="104" y="395.00" text-anchor="end" font-family="Arial" font-size="16" fill="black">1.161</text>
<line x1="120" y1="232.50" x2="1145" y2="232.50" stroke="#dddddd" stroke-width="1"/>
<text x="104" y="237.50" text-anchor="end" font-family="Arial" font-size="16" fill="black">1.163</text>
<line x1="120" y1="75.00" x2="1145" y2="75.00" stroke="#dddddd" stroke-width="1"/>
<text x="104" y="80.00" text-anchor="end" font-family="Arial" font-size="16" fill="black">1.166</text>
<rect x="120" y="75" width="1025" height="630" fill="none" stroke="black" stroke-width="2"/>
<text x="632.5" y="785" text-anchor="middle" font-family="Arial" font-size="20" fill="black">x coordinate [m]</text>
<text x="34" y="390.0" transform="rotate(-90 34 390.0)" text-anchor="middle" font-family="Arial" font-size="20" fill="black">rho [kg/m3]</text>
<polyline points="190.69,162.15 193.64,168.39 196.58,168.39 199.53,168.39 202.47,168.39 205.42,174.63 208.36,174.63 211.31,174.63 214.25,174.63 217.20,180.87 220.14,180.87 223.09,180.87 226.03,187.12 228.98,187.12 231.93,187.12 234.87,193.36 237.82,193.36 240.76,199.60 243.71,199.60 246.65,205.84 249.60,205.84 252.54,212.09 255.49,212.09 258.43,218.33 261.38,218.33 264.32,224.57 267.27,224.57 270.22,230.81 273.16,237.06 276.11,237.06 279.05,243.30 282.00,249.54 284.94,249.54 287.89,255.78 290.83,255.78 293.78,262.03 296.72,268.27 299.67,268.27 302.62,274.51 305.56,280.76 308.51,280.76 311.45,287.00 314.40,293.24 317.34,293.24 320.29,299.48 323.23,299.48 326.17,305.73 329.13,311.97 332.07,311.97 335.01,318.21 337.96,318.21 340.91,324.45 343.85,324.45 346.80,330.70 349.74,330.70 352.68,330.70 355.64,330.70 358.58,330.70 361.52,330.70 364.47,330.70 367.41,330.70 370.35,324.45 373.31,324.45 376.25,318.21 379.19,311.97 382.15,305.73 385.09,299.48 388.03,293.24 390.98,287.00 393.92,280.76 396.86,268.27 399.82,262.03 402.76,249.54 405.70,243.30 408.65,230.81 411.59,224.57 414.54,212.09 417.49,205.84 420.43,193.36 423.37,187.12 426.33,180.87 429.27,168.39 432.21,162.15 435.16,155.90 438.10,149.66 441.04,149.66 444.00,143.42 446.94,137.18 449.88,137.18 452.83,130.93 455.78,130.93 458.72,130.93 461.67,124.69 464.61,124.69 467.55,124.69 470.51,124.69 473.45,118.45 476.39,118.45 479.34,118.45 482.28,118.45 485.23,118.45 488.18,118.45 491.12,118.45 494.06,118.45 497.02,118.45 499.96,124.69 502.90,124.69 505.85,124.69 508.79,130.93 511.73,130.93 514.69,137.18 517.63,137.18 520.57,143.42 523.52,143.42 526.47,143.42 529.41,149.66 532.36,149.66 535.30,149.66 538.24,149.66 541.20,149.66 544.14,149.66 547.08,149.66 550.03,149.66 552.97,143.42 555.92,143.42 558.87,143.42 561.81,143.42 564.75,137.18 567.71,137.18 570.65,137.18 573.59,137.18 576.54,137.18 579.48,137.18 582.42,137.18 585.38,137.18 588.32,137.18 591.26,143.42 594.21,143.42 597.16,149.66 600.10,155.90 603.05,162.15 605.99,162.15 608.93,174.63 611.89,180.87 614.83,193.36 617.77,199.60 620.72,212.09 623.66,224.57 626.60,237.06 629.56,255.78 632.50,268.27 635.44,280.76 638.40,299.48 641.34,311.97 644.28,324.45 647.23,336.94 650.17,349.42 653.11,361.91 656.07,368.15 659.01,380.64 661.95,380.64 664.90,386.88 667.84,386.88 670.79,393.12 673.74,393.12 676.68,393.12 679.62,393.12 682.58,393.12 685.52,393.12 688.46,393.12 691.41,393.12 694.35,393.12 697.29,393.12 700.25,393.12 703.19,393.12 706.13,393.12 709.08,399.36 712.03,399.36 714.97,399.36 717.92,405.61 720.86,405.61 723.80,411.85 726.76,411.85 729.70,418.09 732.64,418.09 735.59,424.33 738.53,424.33 741.48,430.58 744.43,436.82 747.37,436.82 750.31,443.06 753.27,449.30 756.21,455.55 759.15,461.79 762.10,461.79 765.04,468.03 767.98,474.27 770.94,480.52 773.88,486.76 776.82,493.00 779.77,499.24 782.72,505.49 785.66,511.73 788.61,511.73 791.55,517.97 794.49,524.22 797.45,530.46 800.39,536.70 803.33,542.94 806.28,549.19 809.22,555.43 812.17,561.67 815.12,567.91 818.06,574.16 821.00,580.40 823.96,586.64 826.90,592.88 829.84,599.13 832.79,599.13 835.73,605.37 838.67,611.61 841.63,617.85 844.57,624.10 847.51,630.34 850.46,630.34 853.41,636.58 856.35,642.82 859.30,649.07 862.24,649.07 865.18,655.31 868.14,655.31 871.08,655.31 874.02,661.55 876.97,661.55 879.91,661.55 882.85,661.55 885.81,655.31 888.75,655.31 891.69,655.31 894.65,649.07 897.59,649.07 900.53,642.82 903.48,636.58 906.42,630.34 909.36,630.34 912.32,617.85 915.26,611.61 918.20,605.37 921.15,599.13 924.09,586.64 927.04,580.40 929.99,567.91 932.93,555.43 935.87,549.19 938.83,536.70 941.77,524.22 944.71,511.73 947.66,499.24 950.60,480.52 953.54,468.03 956.50,455.55 959.44,443.06 962.38,430.58 965.33,411.85 968.28,399.36 971.22,386.88 974.17,374.39 977.11,355.67 980.05,343.18 983.01,330.70 985.95,318.21 988.89,305.73 991.84,293.24 994.78,280.76 997.73,268.27 1000.68,255.78 1003.62,243.30 1006.56,230.81 1009.52,218.33 1012.46,212.09 1015.40,199.60 1018.35,193.36 1021.29,180.87 1024.23,174.63 1027.19,168.39 1030.13,162.15 1033.07,155.90 1036.02,149.66 1038.97,143.42 1041.91,137.18 1044.86,137.18 1047.80,130.93 1050.74,130.93 1053.70,130.93 1056.64,130.93 1059.58,130.93 1062.53,130.93 1065.47,130.93 1068.42,130.93 1071.37,130.93 1074.31,130.93" fill="none" stroke="#000000" stroke-width="3"/>
<line x1="142" y1="100" x2="178" y2="100" stroke="#000000" stroke-width="4"/>
<text x="188" y="105" font-family="Arial" font-size="18" fill="black">rho</text>
</svg>