<svg xmlns="http://www.w3.org/2000/svg" width="1200" height="820" viewBox="0 0 1200 820">
<rect width="100%" height="100%" fill="white"/>
<text x="600.0" y="36" text-anchor="middle" font-family="Arial" font-size="24" fill="black">profile_rack_height_x: alphat</text>
<line x1="120.00" y1="75" x2="120.00" y2="705" stroke="#dddddd" stroke-width="1"/>
<text x="120.00" y="737" text-anchor="middle" font-family="Arial" font-size="16" fill="black">-0.560</text>
<line x1="376.25" y1="75" x2="376.25" y2="705" stroke="#dddddd" stroke-width="1"/>
<text x="376.25" y="737" text-anchor="middle" font-family="Arial" font-size="16" fill="black">1.470</text>
<line x1="632.50" y1="75" x2="632.50" y2="705" stroke="#dddddd" stroke-width="1"/>
<text x="632.50" y="737" text-anchor="middle" font-family="Arial" font-size="16" fill="black">3.500</text>
<line x1="888.75" y1="75" x2="888.75" y2="705" stroke="#dddddd" stroke-width="1"/>
<text x="888.75" y="737" text-anchor="middle" font-family="Arial" font-size="16" fill="black">5.530</text>
<line x1="1145.00" y1="75" x2="1145.00" y2="705" stroke="#dddddd" stroke-width="1"/>
<text x="1145.00" y="737" text-anchor="middle" font-family="Arial" font-size="16" fill="black">7.560</text>
<line x1="120" y1="705.00" x2="1145" y2="705.00" stroke="#dddddd" stroke-width="1"/>
<text x="104" y="710.00" text-anchor="end" font-family="Arial" font-size="16" fill="black">-9.80e-04</text>
<line x1="120" y1="547.50" x2="1145" y2="547.50" stroke="#dddddd" stroke-width="1"/>
<text x="104" y="552.50" text-anchor="end" font-family="Arial" font-size="16" fill="black">0.005</text>
<line x1="120" y1="390.00" x2="1145" y2="390.00" stroke="#dddddd" stroke-width="1"/>
<text x="104" y="395.00" text-anchor="end" font-family="Arial" font-size="16" fill="black">0.011</text>
<line x1="120" y1="232.50" x2="1145" y2="232.50" stroke="#dddddd" stroke-width="1"/>
<text x="104" y="237.50" text-anchor="end" font-family="Arial" font-size="16" fill="black">0.016</text>
<line x1="120" y1="75.00" x2="1145" y2="75.00" stroke="#dddddd" stroke-width="1"/>
<text x="104" y="80.00" text-anchor="end" font-family="Arial" font-size="16" fill="black">0.022</text>
<rect x="120" y="75" width="1025" height="630" fill="none" stroke="black" stroke-width="2"/>
<text x="632.5" y="785" text-anchor="middle" font-family="Arial" font-size="20" fill="black">x coordinate [m]</text>
<text x="34" y="390.0" transform="rotate(-90 34 390.0)" text-anchor="middle" font-family="Arial" font-size="20" fill="black">alphat [SI]</text>
<polyline points="190.69,661.55 193.64,658.35 196.58,655.15 199.53,651.95 202.47,648.75 205.42,642.95 208.36,636.10 211.31,629.26 214.25,622.42 217.20,615.01 220.14,606.87 223.09,598.72 226.03,590.57 228.98,582.28 231.93,573.15 234.87,564.01 237.82,554.88 240.76,545.74 243.71,537.12 246.65,528.57 249.60,520.03 252.54,511.49 255.49,503.95 258.43,497.15 261.38,490.36 264.32,483.57 267.27,477.35 270.22,472.56 273.16,467.76 276.11,462.97 279.05,458.17 282.00,455.12 284.94,452.07 287.89,449.02 290.83,445.97 293.78,443.86 296.72,442.12 299.67,440.39 302.62,438.65 305.56,437.25 308.51,436.30 311.45,435.35 314.40,434.41 317.34,433.48 320.29,432.73 323.23,431.97 326.17,431.22 329.13,430.46 332.07,429.38 335.01,428.24 337.96,427.10 340.91,425.96 343.85,424.23 346.80,422.06 349.74,419.89 352.68,417.72 355.64,415.04 358.58,411.09 361.52,407.14 364.47,403.19 367.41,399.22 370.35,393.18 373.31,387.11 376.25,381.04 379.19,374.97 382.15,367.78 385.09,360.15 388.03,352.52 390.98,344.89 393.92,337.12 396.86,329.17 399.82,321.18 402.76,313.23 405.70,305.40 408.65,298.51 411.59,291.60 414.54,284.70 417.49,277.79 420.43,272.65 423.37,267.78 426.33,262.94 429.27,258.07 432.21,254.49 435.16,251.89 438.10,249.29 441.04,246.70 444.00,244.56 446.94,243.66 449.88,242.78 452.83,241.88 455.78,240.98 458.72,240.95 461.67,240.95 464.61,240.93 467.55,240.93 470.51,241.23 473.45,241.64 476.39,242.05 479.34,242.46 482.28,243.00 485.23,243.71 488.18,244.43 491.12,245.14 494.06,245.85 497.02,246.61 499.96,247.35 502.90,248.09 505.85,248.83 508.79,249.24 511.73,249.57 514.69,249.89 517.63,250.25 520.57,250.06 523.52,249.48 526.47,248.91 529.41,248.36 532.36,247.46 535.30,245.77 538.24,244.04 541.20,242.32 544.14,240.62 547.08,238.00 550.03,235.37 552.97,232.75 555.92,230.12 558.87,227.25 561.81,224.30 564.75,221.35 567.71,218.39 570.65,215.52 573.59,212.82 576.54,210.08 579.48,207.37 582.42,204.72 585.38,202.53 588.32,200.37 591.26,198.19 594.21,196.03 597.16,194.36 600.10,192.83 603.05,191.27 605.99,189.71 608.93,188.45 611.89,187.41 614.83,186.37 617.77,185.33 620.72,184.40 623.66,183.67 626.60,182.93 629.56,182.19 632.50,181.45 635.44,180.71 638.40,179.97 641.34,179.24 644.28,178.50 647.23,177.54 650.17,176.53 653.11,175.52 656.07,174.51 659.01,173.36 661.95,171.96 664.90,170.57 667.84,169.17 670.79,167.72 673.74,165.97 676.68,164.22 679.62,162.47 682.58,160.72 685.52,158.75 688.46,156.76 691.41,154.76 694.35,152.74 697.29,150.66 700.25,148.50 703.19,146.34 706.13,144.18 709.08,142.02 712.03,139.89 714.97,137.73 717.92,135.59 720.86,133.43 723.80,131.57 726.76,129.71 729.70,127.85 732.64,126.00 735.59,124.57 738.53,123.32 741.48,122.09 744.43,120.83 747.37,119.95 750.31,119.54 753.27,119.13 756.21,118.72 759.15,118.45 762.10,118.91 765.04,119.38 767.98,119.84 770.94,120.28 773.88,121.43 776.82,122.69 779.77,123.92 782.72,125.18 785.66,126.82 788.61,128.70 791.55,130.62 794.49,132.50 797.45,134.55 800.39,136.96 803.33,139.34 806.28,141.75 809.22,144.15 812.17,147.02 815.12,149.87 818.06,152.74 821.00,155.58 823.96,158.81 826.90,162.17 829.84,165.51 832.79,168.87 835.73,172.43 838.67,176.26 841.63,180.06 844.57,183.88 847.51,187.71 850.46,191.76 853.41,195.78 856.35,199.80 859.30,203.82 862.24,207.73 865.18,211.58 868.14,215.47 871.08,219.32 874.02,222.99 876.97,226.46 879.91,229.93 882.85,233.41 885.81,236.80 888.75,239.94 891.69,243.09 894.65,246.23 897.59,249.35 900.53,252.46 903.48,255.55 906.42,258.64 909.36,261.73 912.32,265.04 915.26,268.43 918.20,271.83 921.15,275.22 924.09,278.80 927.04,282.68 929.99,286.56 932.93,290.45 935.87,294.38 938.83,298.70 941.77,303.00 944.71,307.29 947.66,311.61 950.60,316.01 953.54,320.42 956.50,324.85 959.44,329.28 962.38,333.71 965.33,338.16 968.28,342.59 971.22,347.05 974.17,351.62 977.11,356.51 980.05,361.41 983.01,366.30 985.95,371.20 988.89,377.16 991.84,383.12 994.78,389.08 997.73,395.04 1000.68,401.99 1003.62,409.34 1006.56,416.68 1009.52,424.03 1012.46,431.97 1015.40,440.71 1018.35,449.45 1021.29,458.19 1024.23,467.14 1027.19,477.29 1030.13,487.44 1033.07,497.59 1036.02,507.75 1038.97,519.43 1041.91,531.37 1044.86,543.30 1047.80,555.24 1050.74,568.37 1053.70,582.40 1056.64,596.43 1059.58,610.46 1062.53,622.64 1065.47,630.17 1068.42,637.71 1071.37,645.25 1074.31,652.79" fill="none" stroke="#000000" stroke-width="3"/>
<line x1="142" y1="100" x2="178" y2="100" stroke="#000000" stroke-width="4"/>
<text x="188" y="105" font-family="Arial" font-size="18" fill="black">alphat</text>
</svg>