<svg xmlns="http://www.w3.org/2000/svg" width="1200" height="820" viewBox="0 0 1200 820">
<rect width="100%" height="100%" fill="white"/>
<text x="600.0" y="36" text-anchor="middle" font-family="Arial" font-size="24" fill="black">profile_near_ceiling_x: epsilon</text>
<line x1="120.00" y1="75" x2="120.00" y2="705" stroke="#dddddd" stroke-width="1"/>
<text x="120.00" y="737" text-anchor="middle" font-family="Arial" font-size="16" fill="black">-0.560</text>
<line x1="376.25" y1="75" x2="376.25" y2="705" stroke="#dddddd" stroke-width="1"/>
<text x="376.25" y="737" text-anchor="middle" font-family="Arial" font-size="16" fill="black">1.470</text>
<line x1="632.50" y1="75" x2="632.50" y2="705" stroke="#dddddd" stroke-width="1"/>
<text x="632.50" y="737" text-anchor="middle" font-family="Arial" font-size="16" fill="black">3.500</text>
<line x1="888.75" y1="75" x2="888.75" y2="705" stroke="#dddddd" stroke-width="1"/>
<text x="888.75" y="737" text-anchor="middle" font-family="Arial" font-size="16" fill="black">5.530</text>
<line x1="1145.00" y1="75" x2="1145.00" y2="705" stroke="#dddddd" stroke-width="1"/>
<text x="1145.00" y="737" text-anchor="middle" font-family="Arial" font-size="16" fill="black">7.560</text>
<line x1="120" y1="705.00" x2="1145" y2="705.00" stroke="#dddddd" stroke-width="1"/>
<text x="104" y="710.00" text-anchor="end" font-family="Arial" font-size="16" fill="black">6.64e-04</text>
<line x1="120" y1="547.50" x2="1145" y2="547.50" stroke="#dddddd" stroke-width="1"/>
<text x="104" y="552.50" text-anchor="end" font-family="Arial" font-size="16" fill="black">0.003</text>
<line x1="120" y1="390.00" x2="1145" y2="390.00" stroke="#dddddd" stroke-width="1"/>
<text x="104" y="395.00" text-anchor="end" font-family="Arial" font-size="16" fill="black">0.005</text>
<line x1="120" y1="232.50" x2="1145" y2="232.50" stroke="#dddddd" stroke-width="1"/>
<text x="104" y="237.50" text-anchor="end" font-family="Arial" font-size="16" fill="black">0.007</text>
<line x1="120" y1="75.00" x2="1145" y2="75.00" stroke="#dddddd" stroke-width="1"/>
<text x="104" y="80.00" text-anchor="end" font-family="Arial" font-size="16" fill="black">0.009</text>
<rect x="120" y="75" width="1025" height="630" fill="none" stroke="black" stroke-width="2"/>
<text x="632.5" y="785" text-anchor="middle" font-family="Arial" font-size="20" fill="black">x coordinate [m]</text>
<text x="34" y="390.0" transform="rotate(-90 34 390.0)" text-anchor="middle" font-family="Arial" font-size="20" fill="black">epsilon [m2/s3]</text>
<polyline points="190.69,661.55 193.64,661.16 196.58,660.76 199.53,660.37 202.47,659.98 205.42,657.45 208.36,654.07 211.31,650.70 214.25,647.32 217.20,642.68 220.14,636.37 223.09,630.05 226.03,623.74 228.98,617.27 231.93,609.96 234.87,602.64 237.82,595.33 240.76,588.01 243.71,579.57 246.65,570.93 249.60,562.29 252.54,553.65 255.49,544.31 258.43,534.43 261.38,524.55 264.32,514.67 267.27,504.53 270.22,493.73 273.16,482.93 276.11,472.14 279.05,461.33 282.00,450.08 284.94,438.82 287.89,427.57 290.83,416.30 293.78,404.80 296.72,393.19 299.67,381.59 302.62,369.98 305.56,358.11 308.51,345.88 311.45,333.66 314.40,321.43 317.34,309.10 320.29,296.15 323.23,283.20 326.17,270.26 329.13,257.31 332.07,244.36 335.01,231.42 337.96,218.48 340.91,205.54 343.85,193.38 346.80,181.81 349.74,170.25 352.68,158.69 355.64,148.32 358.58,140.96 361.52,133.60 364.47,126.23 367.41,118.87 370.35,118.77 373.31,118.66 376.25,118.55 379.19,118.45 382.15,122.69 385.09,128.67 388.03,134.65 390.98,140.63 393.92,148.20 396.86,157.88 399.82,167.56 402.76,177.25 405.70,187.30 408.65,199.47 411.59,211.65 414.54,223.84 417.49,236.01 420.43,249.00 423.37,262.11 426.33,275.23 429.27,288.35 432.21,301.44 435.16,314.51 438.10,327.58 441.04,340.65 444.00,353.54 446.94,365.95 449.88,378.38 452.83,390.80 455.78,403.21 458.72,414.39 461.67,425.58 464.61,436.76 467.55,447.94 470.51,457.87 473.45,467.31 476.39,476.75 479.34,486.19 482.28,494.80 485.23,502.32 488.18,509.83 491.12,517.35 494.06,524.60 497.02,530.32 499.96,536.05 502.90,541.78 505.85,547.50 508.79,551.95 511.73,556.19 514.69,560.42 517.63,564.66 520.57,568.21 523.52,571.25 526.47,574.28 529.41,577.33 532.36,580.09 535.30,582.14 538.24,584.19 541.20,586.24 544.14,588.29 547.08,589.49 550.03,590.70 552.97,591.90 555.92,593.10 558.87,593.80 561.81,594.29 564.75,594.79 567.71,595.29 570.65,595.55 573.59,595.49 576.54,595.43 579.48,595.38 582.42,595.24 585.38,594.60 588.32,593.97 591.26,593.33 594.21,592.70 597.16,590.63 600.10,588.31 603.05,585.99 605.99,583.68 608.93,578.82 611.89,572.07 614.83,565.32 617.77,558.56 620.72,550.56 623.66,539.47 626.60,528.37 629.56,517.28 632.50,506.18 635.44,495.43 638.40,484.69 641.34,473.93 644.28,463.18 647.23,454.91 650.17,447.63 653.11,440.34 656.07,433.06 659.01,427.31 661.95,423.61 664.90,419.90 667.84,416.20 670.79,412.96 673.74,412.52 676.68,412.08 679.62,411.63 682.58,411.19 685.52,413.00 688.46,415.18 691.41,417.37 694.35,419.56 697.29,422.86 700.25,427.02 703.19,431.16 706.13,435.31 709.08,439.91 712.03,445.64 714.97,451.36 717.92,457.08 720.86,462.81 723.80,469.28 726.76,475.75 729.70,482.22 732.64,488.69 735.59,494.41 738.53,499.83 741.48,505.25 744.43,510.67 747.37,514.78 750.31,517.14 753.27,519.51 756.21,521.88 759.15,523.73 762.10,522.43 765.04,521.13 767.98,519.83 770.94,518.53 773.88,515.09 776.82,511.30 779.77,507.50 782.72,503.70 785.66,499.34 788.61,494.56 791.55,489.78 794.49,485.00 797.45,480.15 800.39,475.13 803.33,470.12 806.28,465.09 809.22,460.08 812.17,454.94 815.12,449.81 818.06,444.68 821.00,439.54 823.96,434.32 826.90,429.06 829.84,423.80 832.79,418.54 835.73,413.24 838.67,407.91 841.63,402.57 844.57,397.23 847.51,391.89 850.46,386.58 853.41,381.27 856.35,375.95 859.30,370.64 862.24,365.47 865.18,360.33 868.14,355.19 871.08,350.05 874.02,345.07 876.97,340.21 879.91,335.35 882.85,330.50 885.81,325.75 888.75,321.24 891.69,316.73 894.65,312.22 897.59,307.71 900.53,303.47 903.48,299.24 906.42,295.00 909.36,290.76 912.32,286.95 915.26,283.31 918.20,279.67 921.15,276.03 924.09,273.01 927.04,270.83 929.99,268.64 932.93,266.45 935.87,264.48 938.83,263.85 941.77,263.21 944.71,262.57 947.66,261.93 950.60,262.40 953.54,263.06 956.50,263.71 959.44,264.37 962.38,265.78 965.33,267.78 968.28,269.77 971.22,271.76 974.17,274.12 977.11,277.40 980.05,280.69 983.01,283.96 985.95,287.25 988.89,291.73 991.84,296.22 994.78,300.72 997.73,305.20 1000.68,310.47 1003.62,316.05 1006.56,321.64 1009.52,327.22 1012.46,332.99 1015.40,339.01 1018.35,345.03 1021.29,351.05 1024.23,357.02 1027.19,362.72 1030.13,368.40 1033.07,374.09 1036.02,379.77 1038.97,385.55 1041.91,391.34 1044.86,397.13 1047.80,402.92 1050.74,404.48 1053.70,402.89 1056.64,401.28 1059.58,399.68 1062.53,397.20 1065.47,392.52 1068.42,387.84 1071.37,383.17 1074.31,378.49" fill="none" stroke="#000000" stroke-width="3"/>
<line x1="142" y1="100" x2="178" y2="100" stroke="#000000" stroke-width="4"/>
<text x="188" y="105" font-family="Arial" font-size="18" fill="black">epsilon</text>
</svg>