<svg xmlns="http://www.w3.org/2000/svg" width="1200" height="820" viewBox="0 0 1200 820">
<rect width="100%" height="100%" fill="white"/>
<text x="600.0" y="36" text-anchor="middle" font-family="Arial" font-size="24" fill="black">profile_near_floor_x: vorticity:1</text>
<line x1="120.00" y1="75" x2="120.00" y2="705" stroke="#dddddd" stroke-width="1"/>
<text x="120.00" y="737" text-anchor="middle" font-family="Arial" font-size="16" fill="black">-0.560</text>
<line x1="376.25" y1="75" x2="376.25" y2="705" stroke="#dddddd" stroke-width="1"/>
<text x="376.25" y="737" text-anchor="middle" font-family="Arial" font-size="16" fill="black">1.470</text>
<line x1="632.50" y1="75" x2="632.50" y2="705" stroke="#dddddd" stroke-width="1"/>
<text x="632.50" y="737" text-anchor="middle" font-family="Arial" font-size="16" fill="black">3.500</text>
<line x1="888.75" y1="75" x2="888.75" y2="705" stroke="#dddddd" stroke-width="1"/>
<text x="888.75" y="737" text-anchor="middle" font-family="Arial" font-size="16" fill="black">5.530</text>
<line x1="1145.00" y1="75" x2="1145.00" y2="705" stroke="#dddddd" stroke-width="1"/>
<text x="1145.00" y="737" text-anchor="middle" font-family="Arial" font-size="16" fill="black">7.560</text>
<line x1="120" y1="705.00" x2="1145" y2="705.00" stroke="#dddddd" stroke-width="1"/>
<text x="104" y="710.00" text-anchor="end" font-family="Arial" font-size="16" fill="black">-4.070</text>
<line x1="120" y1="547.50" x2="1145" y2="547.50" stroke="#dddddd" stroke-width="1"/>
<text x="104" y="552.50" text-anchor="end" font-family="Arial" font-size="16" fill="black">-2.031</text>
<line x1="120" y1="390.00" x2="1145" y2="390.00" stroke="#dddddd" stroke-width="1"/>
<text x="104" y="395.00" text-anchor="end" font-family="Arial" font-size="16" fill="black">0.009</text>
<line x1="120" y1="232.50" x2="1145" y2="232.50" stroke="#dddddd" stroke-width="1"/>
<text x="104" y="237.50" text-anchor="end" font-family="Arial" font-size="16" fill="black">2.048</text>
<line x1="120" y1="75.00" x2="1145" y2="75.00" stroke="#dddddd" stroke-width="1"/>
<text x="104" y="80.00" text-anchor="end" font-family="Arial" font-size="16" fill="black">4.088</text>
<rect x="120" y="75" width="1025" height="630" fill="none" stroke="black" stroke-width="2"/>
<text x="632.5" y="785" text-anchor="middle" font-family="Arial" font-size="20" fill="black">x coordinate [m]</text>
<text x="34" y="390.0" transform="rotate(-90 34 390.0)" text-anchor="middle" font-family="Arial" font-size="20" fill="black">vorticity:1 [SI]</text>
<polyline points="190.69,435.25 193.64,424.43 196.58,413.61 199.53,402.79 202.47,391.97 205.42,381.24 208.36,370.56 211.31,359.87 214.25,349.19 217.20,343.41 220.14,344.16 223.09,344.92 226.03,345.68 228.98,346.56 231.93,348.16 234.87,349.77 237.82,351.37 240.76,352.98 243.71,355.51 246.65,358.20 249.60,360.89 252.54,363.57 255.49,368.24 258.43,374.40 261.38,380.55 264.32,386.71 267.27,394.75 270.22,407.49 273.16,420.23 276.11,432.97 279.05,445.71 282.00,465.55 284.94,485.39 287.89,505.22 290.83,525.06 293.78,548.56 296.72,573.52 299.67,598.49 302.62,623.45 305.56,638.47 308.51,640.23 311.45,641.99 314.40,643.76 317.34,640.64 320.29,608.25 323.23,575.85 326.17,543.47 329.13,511.07 332.07,487.42 335.01,465.22 337.96,443.02 340.91,420.82 343.85,409.99 346.80,407.67 349.74,405.36 352.68,403.05 355.64,400.93 358.58,399.28 361.52,397.63 364.47,395.99 367.41,394.34 370.35,392.54 373.31,390.74 376.25,388.93 379.19,387.13 382.15,384.57 385.09,381.71 388.03,378.85 390.98,375.99 393.92,364.47 396.86,341.41 399.82,318.35 402.76,295.29 405.70,270.82 408.65,237.90 411.59,204.98 414.54,172.06 417.49,139.14 420.43,136.37 423.37,138.64 426.33,140.91 429.27,143.18 432.21,159.52 435.16,186.42 438.10,213.32 441.04,240.23 444.00,265.30 446.94,285.81 449.88,306.33 452.83,326.85 455.78,347.36 458.72,358.11 461.67,368.87 464.61,379.62 467.55,390.37 470.51,396.25 473.45,400.18 476.39,404.11 479.34,408.04 482.28,410.20 485.23,409.99 488.18,409.79 491.12,409.58 494.06,408.80 497.02,404.52 499.96,400.25 502.90,395.97 505.85,391.70 508.79,385.46 511.73,378.90 514.69,372.33 517.63,365.77 520.57,361.59 523.52,359.21 526.47,356.82 529.41,354.44 532.36,354.34 535.30,359.97 538.24,365.60 541.20,371.22 544.14,376.85 547.08,392.89 550.03,408.93 552.97,424.97 555.92,441.01 558.87,471.12 561.81,506.86 564.75,542.59 567.71,578.33 570.65,605.53 573.59,621.36 576.54,637.19 579.48,653.01 582.42,661.55 585.38,626.36 588.32,591.17 591.26,555.98 594.21,520.79 597.16,491.93 600.10,464.12 603.05,436.31 605.99,408.50 608.93,395.54 611.89,393.72 614.83,391.90 617.77,390.08 620.72,388.45 623.66,387.29 626.60,386.13 629.56,384.96 632.50,383.80 635.44,382.50 638.40,381.21 641.34,379.91 644.28,378.61 647.23,376.66 650.17,374.44 653.11,372.23 656.07,370.02 659.01,359.63 661.95,338.33 664.90,317.04 667.84,295.74 670.79,273.16 673.74,242.84 676.68,212.52 679.62,182.19 682.58,151.87 685.52,151.01 688.46,155.08 691.41,159.13 694.35,163.19 697.29,179.12 700.25,203.95 703.19,228.78 706.13,253.61 709.08,275.62 712.03,290.58 714.97,305.54 717.92,320.50 720.86,335.46 723.80,343.76 726.76,352.06 729.70,360.36 732.64,368.66 735.59,374.97 738.53,380.48 741.48,386.00 744.43,391.51 747.37,395.85 750.31,398.62 753.27,401.39 756.21,404.16 759.15,406.71 762.10,407.87 765.04,409.03 767.98,410.19 770.94,411.36 773.88,411.69 776.82,411.89 779.77,412.09 782.72,412.29 785.66,412.08 788.61,411.54 791.55,411.01 794.49,410.48 797.45,410.50 800.39,411.91 803.33,413.31 806.28,414.72 809.22,416.12 812.17,430.52 815.12,444.93 818.06,459.33 821.00,473.73 823.96,498.57 826.90,527.57 829.84,556.57 832.79,585.58 835.73,604.77 838.67,610.88 841.63,617.00 844.57,623.12 847.51,624.14 850.46,594.59 853.41,565.04 856.35,535.50 859.30,505.96 862.24,483.66 865.18,462.55 868.14,441.45 871.08,420.35 874.02,409.67 876.97,406.81 879.91,403.95 882.85,401.09 885.81,398.56 888.75,396.88 891.69,395.19 894.65,393.51 897.59,391.82 900.53,390.66 903.48,389.50 906.42,388.34 909.36,387.17 912.32,386.11 915.26,385.09 918.20,384.06 921.15,383.04 924.09,371.14 927.04,344.73 929.99,318.33 932.93,291.92 935.87,264.09 938.83,227.68 941.77,191.27 944.71,154.86 947.66,118.45 950.60,122.27 953.54,132.80 956.50,143.33 959.44,153.86 962.38,175.72 965.33,206.09 968.28,236.46 971.22,266.83 974.17,293.26 977.11,309.89 980.05,326.51 983.01,343.13 985.95,359.76 988.89,371.54 991.84,383.31 994.78,395.09 997.73,406.87 1000.68,413.43 1003.62,417.91 1006.56,422.38 1009.52,426.85 1012.46,429.03 1015.40,428.15 1018.35,427.27 1021.29,426.39 1024.23,425.43 1027.19,424.00 1030.13,422.56 1033.07,421.13 1036.02,419.70 1038.97,419.52 1041.91,419.56 1044.86,419.59 1047.80,419.63 1050.74,421.46 1053.70,424.64 1056.64,427.82 1059.58,430.99 1062.53,434.02 1065.47,436.65 1068.42,439.28 1071.37,441.92 1074.31,444.55" fill="none" stroke="#000000" stroke-width="3"/>
<line x1="142" y1="100" x2="178" y2="100" stroke="#000000" stroke-width="4"/>
<text x="188" y="105" font-family="Arial" font-size="18" fill="black">vorticity:1</text>
</svg>