<svg xmlns="http://www.w3.org/2000/svg" width="1200" height="820" viewBox="0 0 1200 820">
<rect width="100%" height="100%" fill="white"/>
<text x="600.0" y="36" text-anchor="middle" font-family="Arial" font-size="24" fill="black">profile_center_z: vorticity:1</text>
<line x1="120.00" y1="75" x2="120.00" y2="705" stroke="#dddddd" stroke-width="1"/>
<text x="120.00" y="737" text-anchor="middle" font-family="Arial" font-size="16" fill="black">-0.240</text>
<line x1="376.25" y1="75" x2="376.25" y2="705" stroke="#dddddd" stroke-width="1"/>
<text x="376.25" y="737" text-anchor="middle" font-family="Arial" font-size="16" fill="black">0.630</text>
<line x1="632.50" y1="75" x2="632.50" y2="705" stroke="#dddddd" stroke-width="1"/>
<text x="632.50" y="737" text-anchor="middle" font-family="Arial" font-size="16" fill="black">1.500</text>
<line x1="888.75" y1="75" x2="888.75" y2="705" stroke="#dddddd" stroke-width="1"/>
<text x="888.75" y="737" text-anchor="middle" font-family="Arial" font-size="16" fill="black">2.370</text>
<line x1="1145.00" y1="75" x2="1145.00" y2="705" stroke="#dddddd" stroke-width="1"/>
<text x="1145.00" y="737" text-anchor="middle" font-family="Arial" font-size="16" fill="black">3.240</text>
<line x1="120" y1="705.00" x2="1145" y2="705.00" stroke="#dddddd" stroke-width="1"/>
<text x="104" y="710.00" text-anchor="end" font-family="Arial" font-size="16" fill="black">-0.531</text>
<line x1="120" y1="547.50" x2="1145" y2="547.50" stroke="#dddddd" stroke-width="1"/>
<text x="104" y="552.50" text-anchor="end" font-family="Arial" font-size="16" fill="black">-0.340</text>
<line x1="120" y1="390.00" x2="1145" y2="390.00" stroke="#dddddd" stroke-width="1"/>
<text x="104" y="395.00" text-anchor="end" font-family="Arial" font-size="16" fill="black">-0.150</text>
<line x1="120" y1="232.50" x2="1145" y2="232.50" stroke="#dddddd" stroke-width="1"/>
<text x="104" y="237.50" text-anchor="end" font-family="Arial" font-size="16" fill="black">0.041</text>
<line x1="120" y1="75.00" x2="1145" y2="75.00" stroke="#dddddd" stroke-width="1"/>
<text x="104" y="80.00" text-anchor="end" font-family="Arial" font-size="16" fill="black">0.232</text>
<rect x="120" y="75" width="1025" height="630" fill="none" stroke="black" stroke-width="2"/>
<text x="632.5" y="785" text-anchor="middle" font-family="Arial" font-size="20" fill="black">z coordinate [m]</text>
<text x="34" y="390.0" transform="rotate(-90 34 390.0)" text-anchor="middle" font-family="Arial" font-size="20" fill="black">vorticity:1 [SI]</text>
<polyline points="190.69,173.36 193.64,174.75 196.58,176.14 199.53,177.53 202.47,178.93 205.42,180.31 208.36,181.71 211.31,183.10 214.25,184.49 217.20,185.88 220.14,187.28 223.09,188.47 226.03,189.66 228.98,190.85 231.93,192.04 234.87,193.23 237.82,194.43 240.76,195.62 243.71,196.81 246.65,198.00 249.60,199.19 252.54,198.71 255.49,198.22 258.43,197.74 261.38,197.25 264.32,196.76 267.27,196.28 270.22,195.79 273.16,195.31 276.11,194.82 279.05,194.33 282.00,193.63 284.94,192.92 287.89,192.22 290.83,191.51 293.78,190.81 296.72,190.10 299.67,189.40 302.61,188.69 305.56,187.98 308.51,187.28 311.45,186.24 314.40,185.21 317.34,184.17 320.29,183.14 323.23,182.11 326.18,181.07 329.12,180.03 332.07,178.99 335.01,177.96 337.96,176.92 340.91,175.30 343.85,173.66 346.80,172.03 349.74,170.40 352.69,168.77 355.63,167.14 358.58,165.51 361.52,163.88 364.47,162.25 367.41,160.61 370.36,157.86 373.30,155.09 376.25,152.33 379.20,149.56 382.14,146.80 385.09,144.03 388.03,141.28 390.98,138.51 393.92,135.75 396.87,132.98 399.81,131.53 402.76,130.08 405.70,128.62 408.65,127.17 411.59,125.72 414.54,124.27 417.49,122.81 420.43,121.35 423.38,119.90 426.32,118.45 429.27,128.87 432.21,139.30 435.16,149.72 438.10,160.14 441.05,170.57 443.99,180.99 446.94,191.42 449.89,201.84 452.83,212.27 455.78,222.69 458.72,247.16 461.67,271.63 464.61,296.10 467.56,320.57 470.50,345.05 473.45,369.52 476.39,393.99 479.34,418.46 482.28,442.93 485.23,467.40 488.18,485.34 491.12,503.26 494.07,521.20 497.01,539.13 499.96,557.07 502.90,575.00 505.85,592.93 508.79,610.86 511.74,628.79 514.68,646.73 517.63,648.21 520.57,649.69 523.52,651.18 526.47,652.66 529.41,654.14 532.36,655.63 535.30,657.10 538.25,658.59 541.19,660.07 544.14,661.55 547.08,657.10 550.03,652.65 552.97,648.19 555.92,643.73 558.86,639.28 561.81,634.83 564.76,630.37 567.70,625.91 570.65,621.47 573.59,617.01 576.54,612.02 579.48,607.02 582.43,602.03 585.37,597.04 588.32,592.04 591.26,587.05 594.21,582.06 597.16,577.06 600.10,572.07 603.05,567.07 605.99,561.61 608.94,556.16 611.88,550.70 614.83,545.25 617.77,539.79 620.72,534.34 623.66,528.88 626.61,523.43 629.55,517.97 632.50,512.51 635.45,506.91 638.39,501.31 641.34,495.70 644.28,490.10 647.23,484.50 650.17,478.89 653.12,473.30 656.06,467.69 659.01,462.09 661.95,456.48 664.90,451.00 667.84,445.52 670.79,440.03 673.74,434.55 676.68,429.06 679.63,423.58 682.57,418.09 685.52,412.61 688.46,407.12 691.41,401.64 694.35,396.33 697.30,391.02 700.24,385.70 703.19,380.39 706.14,375.08 709.08,369.77 712.03,364.45 714.97,359.15 717.92,353.83 720.86,348.52 723.81,343.43 726.75,338.34 729.70,333.26 732.64,328.17 735.59,323.08 738.53,318.00 741.48,312.91 744.43,307.82 747.37,302.73 750.32,297.65 753.26,293.04 756.21,288.44 759.15,283.83 762.10,279.23 765.04,274.63 767.99,270.02 770.93,265.42 773.88,260.81 776.82,256.21 779.77,251.61 782.72,247.45 785.66,243.30 788.61,239.14 791.55,234.98 794.50,230.83 797.44,226.67 800.39,222.52 803.33,218.36 806.28,214.21 809.22,210.05 812.17,206.26 815.11,202.46 818.06,198.67 821.01,194.87 823.95,191.08 826.90,187.29 829.84,183.49 832.79,179.70 835.73,175.90 838.68,172.11 841.62,169.11 844.57,166.11 847.51,163.11 850.46,160.11 853.41,157.11 856.35,154.11 859.30,151.11 862.24,148.12 865.19,145.11 868.13,142.12 871.08,140.62 874.02,139.11 876.97,137.60 879.91,136.10 882.86,134.60 885.80,133.09 888.75,131.59 891.70,130.09 894.64,128.58 897.59,127.07 900.53,127.82 903.48,128.57 906.42,129.32 909.37,130.07 912.31,130.81 915.26,131.56 918.20,132.31 921.15,133.06 924.09,133.80 927.04,134.55 929.99,138.23 932.93,141.92 935.88,145.61 938.82,149.29 941.77,152.98 944.71,156.67 947.66,160.35 950.60,164.04 953.55,167.73 956.49,171.41 959.44,178.72 962.39,186.04 965.33,193.35 968.28,200.66 971.22,207.97 974.17,215.29 977.11,222.60 980.06,229.91 983.00,237.22 985.95,244.53 988.89,257.82 991.84,271.11 994.78,284.39 997.73,297.68 1000.68,310.97 1003.62,324.25 1006.57,337.54 1009.51,350.83 1012.46,364.11 1015.40,377.40 1018.35,384.47 1021.29,391.53 1024.24,398.60 1027.18,405.66 1030.13,412.73 1033.07,419.79 1036.02,426.85 1038.97,433.93 1041.91,440.99 1044.86,448.06 1047.80,446.49 1050.75,444.92 1053.69,443.36 1056.64,441.79 1059.58,440.22 1062.53,438.67 1065.47,437.10 1068.42,435.53 1071.36,433.96 1074.31,432.40" fill="none" stroke="#000000" stroke-width="3"/>
<line x1="142" y1="100" x2="178" y2="100" stroke="#000000" stroke-width="4"/>
<text x="188" y="105" font-family="Arial" font-size="18" fill="black">vorticity:1</text>
</svg>