<svg xmlns="http://www.w3.org/2000/svg" width="1200" height="820" viewBox="0 0 1200 820">
<rect width="100%" height="100%" fill="white"/>
<text x="600.0" y="36" text-anchor="middle" font-family="Arial" font-size="24" fill="black">profile_center_y: p</text>
<line x1="120.00" y1="75" x2="120.00" y2="705" stroke="#dddddd" stroke-width="1"/>
<text x="120.00" y="737" text-anchor="middle" font-family="Arial" font-size="16" fill="black">-0.400</text>
<line x1="376.25" y1="75" x2="376.25" y2="705" stroke="#dddddd" stroke-width="1"/>
<text x="376.25" y="737" text-anchor="middle" font-family="Arial" font-size="16" fill="black">1.050</text>
<line x1="632.50" y1="75" x2="632.50" y2="705" stroke="#dddddd" stroke-width="1"/>
<text x="632.50" y="737" text-anchor="middle" font-family="Arial" font-size="16" fill="black">2.500</text>
<line x1="888.75" y1="75" x2="888.75" y2="705" stroke="#dddddd" stroke-width="1"/>
<text x="888.75" y="737" text-anchor="middle" font-family="Arial" font-size="16" fill="black">3.950</text>
<line x1="1145.00" y1="75" x2="1145.00" y2="705" stroke="#dddddd" stroke-width="1"/>
<text x="1145.00" y="737" text-anchor="middle" font-family="Arial" font-size="16" fill="black">5.400</text>
<line x1="120" y1="705.00" x2="1145" y2="705.00" stroke="#dddddd" stroke-width="1"/>
<text x="104" y="710.00" text-anchor="end" font-family="Arial" font-size="16" fill="black">-16.95</text>
<line x1="120" y1="547.50" x2="1145" y2="547.50" stroke="#dddddd" stroke-width="1"/>
<text x="104" y="552.50" text-anchor="end" font-family="Arial" font-size="16" fill="black">-16.93</text>
<line x1="120" y1="390.00" x2="1145" y2="390.00" stroke="#dddddd" stroke-width="1"/>
<text x="104" y="395.00" text-anchor="end" font-family="Arial" font-size="16" fill="black">-16.92</text>
<line x1="120" y1="232.50" x2="1145" y2="232.50" stroke="#dddddd" stroke-width="1"/>
<text x="104" y="237.50" text-anchor="end" font-family="Arial" font-size="16" fill="black">-16.90</text>
<line x1="120" y1="75.00" x2="1145" y2="75.00" stroke="#dddddd" stroke-width="1"/>
<text x="104" y="80.00" text-anchor="end" font-family="Arial" font-size="16" fill="black">-16.89</text>
<rect x="120" y="75" width="1025" height="630" fill="none" stroke="black" stroke-width="2"/>
<text x="632.5" y="785" text-anchor="middle" font-family="Arial" font-size="20" fill="black">y coordinate [m]</text>
<text x="34" y="390.0" transform="rotate(-90 34 390.0)" text-anchor="middle" font-family="Arial" font-size="20" fill="black">p [Pa]</text>
<polyline points="190.69,400.86 193.64,400.86 196.58,400.86 199.53,400.86 202.47,400.86 205.42,400.86 208.36,400.86 211.31,411.72 214.25,411.72 217.20,411.72 220.14,411.72 223.09,411.72 226.03,411.72 228.98,422.59 231.92,422.59 234.87,433.45 237.82,433.45 240.76,433.45 243.71,444.31 246.65,444.31 249.60,455.17 252.54,455.17 255.49,466.03 258.43,466.03 261.38,476.90 264.33,476.90 267.27,487.76 270.22,487.76 273.16,498.62 276.11,498.62 279.05,509.48 282.00,520.34 284.94,520.34 287.89,531.21 290.83,531.21 293.78,542.07 296.72,542.07 299.67,552.93 302.61,563.79 305.56,563.79 308.51,574.66 311.45,574.66 314.40,585.52 317.34,585.52 320.29,596.38 323.23,596.38 326.18,607.24 329.12,607.24 332.07,618.10 335.01,618.10 337.96,618.10 340.91,628.97 343.85,628.97 346.80,628.97 349.74,639.83 352.69,639.83 355.63,639.83 358.58,639.83 361.52,639.83 364.47,639.83 367.41,639.83 370.37,639.83 373.30,639.83 376.25,639.83 379.20,639.83 382.13,639.83 385.09,639.83 388.04,639.83 390.97,628.97 393.92,628.97 396.87,628.97 399.81,628.97 402.76,618.10 405.71,618.10 408.64,607.24 411.59,607.24 414.55,607.24 417.48,596.38 420.43,596.38 423.38,585.52 426.32,585.52 429.27,574.66 432.22,574.66 435.15,563.79 438.10,563.79 441.05,552.93 443.99,552.93 446.94,542.07 449.89,542.07 452.82,531.21 455.78,531.21 458.73,531.21 461.66,520.34 464.61,520.34 467.56,509.48 470.50,509.48 473.45,498.62 476.40,498.62 479.33,487.76 482.28,487.76 485.24,487.76 488.17,476.90 491.12,476.90 494.07,466.03 497.01,466.03 499.96,466.03 502.91,455.17 505.84,455.17 508.79,455.17 511.74,444.31 514.68,444.31 517.63,444.31 520.58,433.45 523.51,433.45 526.47,433.45 529.42,422.59 532.35,422.59 535.30,422.59 538.25,411.72 541.19,411.72 544.14,411.72 547.09,411.72 550.02,400.86 552.97,400.86 555.93,400.86 558.86,390.00 561.81,390.00 564.76,390.00 567.70,390.00 570.65,379.14 573.60,379.14 576.53,379.14 579.48,379.14 582.43,379.14 585.37,379.14 588.32,379.14 591.27,379.14 594.20,379.14 597.16,379.14 600.11,379.14 603.04,379.14 605.99,390.00 608.94,390.00 611.88,390.00 614.83,400.86 617.78,400.86 620.71,411.72 623.66,422.59 626.62,422.59 629.55,433.45 632.50,444.31 635.45,455.17 638.38,466.03 641.34,466.03 644.29,476.90 647.22,487.76 650.17,498.62 653.12,509.48 656.06,520.34 659.01,531.21 661.96,542.07 664.89,552.93 667.84,563.79 670.80,563.79 673.73,574.66 676.68,585.52 679.63,596.38 682.57,607.24 685.52,607.24 688.47,618.10 691.40,628.97 694.35,628.97 697.30,639.83 700.24,639.83 703.19,650.69 706.14,650.69 709.07,650.69 712.03,650.69 714.98,661.55 717.91,661.55 720.86,661.55 723.81,661.55 726.75,661.55 729.70,661.55 732.65,661.55 735.58,661.55 738.53,661.55 741.49,661.55 744.42,661.55 747.37,650.69 750.32,650.69 753.26,650.69 756.21,650.69 759.16,639.83 762.09,639.83 765.04,628.97 767.99,628.97 770.93,628.97 773.88,618.10 776.83,618.10 779.76,618.10 782.72,607.24 785.67,607.24 788.60,596.38 791.55,596.38 794.50,585.52 797.44,585.52 800.39,574.66 803.34,574.66 806.27,563.79 809.22,563.79 812.18,552.93 815.11,552.93 818.06,542.07 821.01,542.07 823.95,531.21 826.90,531.21 829.85,520.34 832.78,509.48 835.73,509.48 838.68,498.62 841.62,487.76 844.57,487.76 847.52,476.90 850.45,466.03 853.41,466.03 856.36,455.17 859.29,444.31 862.24,444.31 865.19,433.45 868.13,422.59 871.08,422.59 874.03,411.72 876.96,400.86 879.91,390.00 882.87,390.00 885.80,379.14 888.75,368.28 891.70,368.28 894.63,357.41 897.59,346.55 900.54,335.69 903.47,335.69 906.42,324.83 909.37,313.97 912.31,313.97 915.26,303.10 918.21,303.10 921.14,292.24 924.09,281.38 927.05,281.38 929.98,270.52 932.93,259.66 935.88,259.66 938.82,248.79 941.77,248.79 944.72,237.93 947.65,227.07 950.60,227.07 953.55,216.21 956.49,216.21 959.44,205.34 962.39,205.34 965.32,194.48 968.28,194.48 971.23,183.62 974.16,183.62 977.11,183.62 980.06,172.76 983.00,172.76 985.95,161.90 988.90,161.90 991.83,161.90 994.78,151.03 997.74,151.03 1000.67,151.03 1003.62,140.17 1006.57,140.17 1009.51,140.17 1012.46,140.17 1015.41,140.17 1018.34,129.31 1021.29,129.31 1024.24,129.31 1027.18,129.31 1030.13,129.31 1033.08,129.31 1036.01,129.31 1038.97,129.31 1041.92,129.31 1044.85,118.45 1047.80,118.45 1050.75,118.45 1053.69,118.45 1056.64,118.45 1059.59,118.45 1062.52,118.45 1065.47,118.45 1068.43,118.45 1071.36,118.45 1074.31,118.45" fill="none" stroke="#000000" stroke-width="3"/>
<line x1="142" y1="100" x2="178" y2="100" stroke="#000000" stroke-width="4"/>
<text x="188" y="105" font-family="Arial" font-size="18" fill="black">p</text>
</svg>