<svg xmlns="http://www.w3.org/2000/svg" width="1200" height="820" viewBox="0 0 1200 820">
<rect width="100%" height="100%" fill="white"/>
<text x="600.0" y="36" text-anchor="middle" font-family="Arial" font-size="24" fill="black">profile_diagonal_supply_return: vorticity:1</text>
<line x1="120.00" y1="75" x2="120.00" y2="705" stroke="#dddddd" stroke-width="1"/>
<text x="120.00" y="737" text-anchor="middle" font-family="Arial" font-size="16" fill="black">-0.729</text>
<line x1="376.25" y1="75" x2="376.25" y2="705" stroke="#dddddd" stroke-width="1"/>
<text x="376.25" y="737" text-anchor="middle" font-family="Arial" font-size="16" fill="black">1.913</text>
<line x1="632.50" y1="75" x2="632.50" y2="705" stroke="#dddddd" stroke-width="1"/>
<text x="632.50" y="737" text-anchor="middle" font-family="Arial" font-size="16" fill="black">4.555</text>
<line x1="888.75" y1="75" x2="888.75" y2="705" stroke="#dddddd" stroke-width="1"/>
<text x="888.75" y="737" text-anchor="middle" font-family="Arial" font-size="16" fill="black">7.197</text>
<line x1="1145.00" y1="75" x2="1145.00" y2="705" stroke="#dddddd" stroke-width="1"/>
<text x="1145.00" y="737" text-anchor="middle" font-family="Arial" font-size="16" fill="black">9.839</text>
<line x1="120" y1="705.00" x2="1145" y2="705.00" stroke="#dddddd" stroke-width="1"/>
<text x="104" y="710.00" text-anchor="end" font-family="Arial" font-size="16" fill="black">-0.771</text>
<line x1="120" y1="547.50" x2="1145" y2="547.50" stroke="#dddddd" stroke-width="1"/>
<text x="104" y="552.50" text-anchor="end" font-family="Arial" font-size="16" fill="black">-0.302</text>
<line x1="120" y1="390.00" x2="1145" y2="390.00" stroke="#dddddd" stroke-width="1"/>
<text x="104" y="395.00" text-anchor="end" font-family="Arial" font-size="16" fill="black">0.166</text>
<line x1="120" y1="232.50" x2="1145" y2="232.50" stroke="#dddddd" stroke-width="1"/>
<text x="104" y="237.50" text-anchor="end" font-family="Arial" font-size="16" fill="black">0.635</text>
<line x1="120" y1="75.00" x2="1145" y2="75.00" stroke="#dddddd" stroke-width="1"/>
<text x="104" y="80.00" text-anchor="end" font-family="Arial" font-size="16" fill="black">1.104</text>
<rect x="120" y="75" width="1025" height="630" fill="none" stroke="black" stroke-width="2"/>
<text x="632.5" y="785" text-anchor="middle" font-family="Arial" font-size="20" fill="black">distance along sample line [m]</text>
<text x="34" y="390.0" transform="rotate(-90 34 390.0)" text-anchor="middle" font-family="Arial" font-size="20" fill="black">vorticity:1 [SI]</text>
<polyline points="190.69,661.55 193.64,659.69 196.58,654.43 199.53,645.81 202.47,633.84 205.42,626.64 208.36,617.73 211.31,603.86 214.25,585.10 217.20,569.14 220.14,559.96 223.09,544.29 226.03,525.73 228.98,503.65 231.93,479.75 234.87,455.26 237.82,430.10 240.76,404.20 243.71,380.50 246.65,357.97 249.60,335.63 252.54,339.26 255.49,344.21 258.43,350.21 261.38,356.32 264.32,363.32 267.27,369.85 270.22,375.44 273.16,381.18 276.11,387.00 279.05,392.85 282.00,395.43 284.94,398.29 287.88,401.42 290.83,404.83 293.78,405.18 296.73,404.58 299.67,404.56 302.62,404.72 305.57,403.53 308.50,400.40 311.45,397.77 314.40,395.52 317.34,393.29 320.29,389.55 323.24,385.76 326.18,381.95 329.12,378.15 332.07,374.38 335.01,370.22 337.96,365.77 340.91,362.02 343.85,359.03 346.80,356.60 349.74,354.17 352.68,351.11 355.63,348.30 358.58,346.32 361.53,344.32 364.47,342.33 367.42,340.39 370.36,339.55 373.30,338.59 376.25,337.54 379.20,336.41 382.14,335.02 385.09,333.37 388.04,331.32 390.97,329.13 393.92,326.73 396.87,324.11 399.81,321.84 402.76,319.30 405.71,317.48 408.65,318.38 411.59,319.40 414.54,320.54 417.48,321.80 420.43,327.77 423.38,335.61 426.32,343.62 429.27,351.69 432.21,360.21 435.16,369.07 438.10,377.95 441.05,387.47 444.00,396.05 446.94,402.43 449.89,408.70 452.84,414.84 455.77,420.84 458.72,424.63 461.67,428.29 464.61,431.81 467.56,435.19 470.51,437.80 473.45,440.17 476.39,442.55 479.34,444.92 482.28,447.42 485.23,450.29 488.18,453.48 491.12,457.03 494.07,460.82 497.01,465.90 499.96,471.57 502.90,477.87 505.85,484.80 508.80,492.90 511.74,501.36 514.69,510.58 517.63,520.22 520.57,530.10 523.52,540.41 526.47,551.47 529.41,562.08 532.36,572.70 535.31,582.56 538.24,592.94 541.19,603.82 544.14,615.19 547.08,621.76 550.03,628.48 552.98,635.34 555.92,642.34 558.86,647.34 561.81,651.59 564.76,654.62 567.70,657.73 570.65,659.48 573.60,659.46 576.54,658.00 579.49,656.64 582.43,654.41 585.37,649.78 588.32,645.48 591.27,641.49 594.21,637.80 597.16,632.03 600.11,626.71 603.04,621.66 605.99,615.68 608.94,608.28 611.88,599.95 614.83,592.07 617.78,585.44 620.72,578.37 623.66,569.63 626.61,561.33 629.55,553.45 632.50,545.98 635.45,537.69 638.40,529.75 641.34,522.13 644.28,514.77 647.23,507.18 650.17,499.53 653.12,492.15 656.07,484.66 659.01,477.25 661.96,469.85 664.90,462.30 667.84,454.36 670.79,446.29 673.74,439.07 676.68,431.30 679.63,422.96 682.58,414.00 685.51,406.63 688.46,399.28 691.41,391.50 694.35,383.51 697.30,376.84 700.25,371.18 703.20,365.20 706.14,359.43 709.08,354.27 712.03,350.92 714.97,347.49 717.92,343.93 720.87,340.24 723.81,339.71 726.76,339.23 729.70,338.77 732.64,338.32 735.59,338.83 738.54,339.86 741.48,341.75 744.43,343.71 747.38,346.01 750.31,348.81 753.26,351.94 756.21,355.19 759.15,359.01 762.10,362.90 765.05,366.95 767.99,371.12 770.93,375.41 773.88,379.47 776.83,383.85 779.77,388.31 782.72,393.01 785.67,397.53 788.61,401.94 791.55,406.41 794.50,410.98 797.44,415.59 800.39,420.34 803.34,425.07 806.28,429.79 809.23,434.47 812.17,440.66 815.11,446.79 818.06,452.85 821.01,458.85 823.95,465.98 826.90,473.48 829.85,480.70 832.79,487.70 835.73,494.50 838.68,501.03 841.63,507.88 844.57,514.51 847.52,520.09 850.47,523.21 853.41,526.12 856.35,528.83 859.30,531.37 862.24,531.10 865.19,529.92 868.14,528.68 871.08,528.19 874.03,526.23 876.97,523.17 879.91,520.08 882.86,517.23 885.81,513.86 888.75,509.12 891.70,504.41 894.65,499.74 897.58,495.12 900.53,490.00 903.48,484.90 906.43,479.80 909.37,474.71 912.32,468.93 915.27,462.90 918.20,457.39 921.15,451.87 924.10,446.23 927.04,440.43 929.99,434.57 932.94,428.67 935.88,423.03 938.82,417.66 941.77,412.21 944.71,406.68 947.66,401.06 950.61,396.10 953.55,391.71 956.50,387.34 959.44,382.87 962.38,378.97 965.33,375.47 968.28,371.90 971.22,369.25 974.17,366.76 977.12,364.11 980.06,361.27 983.00,358.22 985.95,354.91 988.90,345.36 991.84,333.82 994.79,320.17 997.74,304.27 1000.68,286.50 1003.62,267.99 1006.57,248.92 1009.51,230.38 1012.46,215.16 1015.41,204.37 1018.35,174.21 1021.30,146.09 1024.24,123.87 1027.18,118.45 1030.13,122.40 1033.08,135.72 1036.02,158.41 1038.97,166.62 1041.92,176.26 1044.86,186.41 1047.80,199.33 1050.75,229.77 1053.70,272.63 1056.64,315.75 1059.59,365.06 1062.54,410.61 1065.47,443.76 1068.42,476.54 1071.37,509.15 1074.31,541.81" fill="none" stroke="#000000" stroke-width="3"/>
<line x1="142" y1="100" x2="178" y2="100" stroke="#000000" stroke-width="4"/>
<text x="188" y="105" font-family="Arial" font-size="18" fill="black">vorticity:1</text>
</svg>