<svg xmlns="http://www.w3.org/2000/svg" width="1200" height="820" viewBox="0 0 1200 820">
<rect width="100%" height="100%" fill="white"/>
<text x="600.0" y="36" text-anchor="middle" font-family="Arial" font-size="24" fill="black">profile_center_x: velocity magnitude</text>
<line x1="120.00" y1="75" x2="120.00" y2="705" stroke="#dddddd" stroke-width="1"/>
<text x="120.00" y="737" text-anchor="middle" font-family="Arial" font-size="16" fill="black">-0.560</text>
<line x1="376.25" y1="75" x2="376.25" y2="705" stroke="#dddddd" stroke-width="1"/>
<text x="376.25" y="737" text-anchor="middle" font-family="Arial" font-size="16" fill="black">1.470</text>
<line x1="632.50" y1="75" x2="632.50" y2="705" stroke="#dddddd" stroke-width="1"/>
<text x="632.50" y="737" text-anchor="middle" font-family="Arial" font-size="16" fill="black">3.500</text>
<line x1="888.75" y1="75" x2="888.75" y2="705" stroke="#dddddd" stroke-width="1"/>
<text x="888.75" y="737" text-anchor="middle" font-family="Arial" font-size="16" fill="black">5.530</text>
<line x1="1145.00" y1="75" x2="1145.00" y2="705" stroke="#dddddd" stroke-width="1"/>
<text x="1145.00" y="737" text-anchor="middle" font-family="Arial" font-size="16" fill="black">7.560</text>
<line x1="120" y1="705.00" x2="1145" y2="705.00" stroke="#dddddd" stroke-width="1"/>
<text x="104" y="710.00" text-anchor="end" font-family="Arial" font-size="16" fill="black">0.101</text>
<line x1="120" y1="547.50" x2="1145" y2="547.50" stroke="#dddddd" stroke-width="1"/>
<text x="104" y="552.50" text-anchor="end" font-family="Arial" font-size="16" fill="black">0.158</text>
<line x1="120" y1="390.00" x2="1145" y2="390.00" stroke="#dddddd" stroke-width="1"/>
<text x="104" y="395.00" text-anchor="end" font-family="Arial" font-size="16" fill="black">0.216</text>
<line x1="120" y1="232.50" x2="1145" y2="232.50" stroke="#dddddd" stroke-width="1"/>
<text x="104" y="237.50" text-anchor="end" font-family="Arial" font-size="16" fill="black">0.273</text>
<line x1="120" y1="75.00" x2="1145" y2="75.00" stroke="#dddddd" stroke-width="1"/>
<text x="104" y="80.00" text-anchor="end" font-family="Arial" font-size="16" fill="black">0.330</text>
<rect x="120" y="75" width="1025" height="630" fill="none" stroke="black" stroke-width="2"/>
<text x="632.5" y="785" text-anchor="middle" font-family="Arial" font-size="20" fill="black">x coordinate [m]</text>
<text x="34" y="390.0" transform="rotate(-90 34 390.0)" text-anchor="middle" font-family="Arial" font-size="20" fill="black">|U| [m/s]</text>
<polyline points="190.69,585.56 193.64,597.09 196.58,608.61 199.53,620.14 202.47,631.67 205.42,639.62 208.36,646.17 211.31,652.69 214.25,659.21 217.20,661.55 220.14,658.28 223.09,655.03 226.03,651.78 228.98,648.54 231.93,645.51 234.87,642.48 237.82,639.46 240.76,636.43 243.71,634.34 246.65,632.41 249.60,630.49 252.54,628.59 255.49,626.42 258.43,624.05 261.38,621.71 264.32,619.34 267.27,615.91 270.22,609.77 273.16,603.61 276.11,597.47 279.05,591.31 282.00,577.50 284.94,563.66 287.89,549.84 290.83,536.00 293.78,516.25 296.72,494.10 299.67,471.98 302.62,449.83 305.56,425.75 308.51,399.04 311.45,372.32 314.40,345.63 317.34,319.16 320.29,294.04 323.23,268.95 326.17,243.83 329.13,218.74 332.07,200.33 335.01,183.05 337.96,165.77 340.91,148.49 343.85,137.85 346.80,132.12 349.74,126.43 352.68,120.73 355.64,118.45 358.58,124.67 361.52,130.91 364.47,137.13 367.41,143.38 370.35,159.86 373.31,176.31 376.25,192.79 379.19,209.27 382.15,231.12 385.09,255.11 388.03,279.10 390.98,303.10 393.92,328.44 396.86,355.59 399.82,382.75 402.76,409.91 405.70,436.65 408.65,460.95 411.59,485.24 414.54,509.56 417.49,533.86 420.43,552.05 423.37,569.19 426.33,586.33 429.27,603.50 432.21,615.85 435.16,624.63 438.10,633.38 441.04,642.15 444.00,648.37 446.94,648.26 449.88,648.12 452.83,648.01 455.78,647.90 458.72,638.41 461.67,628.95 464.61,619.48 467.55,610.02 470.51,594.86 473.45,577.39 476.39,559.94 479.34,542.47 482.28,523.24 485.23,501.58 488.18,479.96 491.12,458.30 494.06,436.68 497.02,415.11 499.96,393.56 502.90,371.99 505.85,350.42 508.79,331.77 511.73,313.61 514.69,295.42 517.63,277.26 520.57,262.24 523.52,249.58 526.47,236.90 529.41,224.24 532.36,213.43 535.30,207.18 538.24,200.96 541.20,194.75 544.14,188.50 547.08,188.58 550.03,188.64 552.97,188.72 555.92,188.77 558.87,192.65 561.81,198.02 564.75,203.38 567.71,208.78 570.65,215.77 573.59,224.90 576.54,234.06 579.48,243.20 582.42,252.64 585.38,263.86 588.32,275.06 591.26,286.29 594.21,297.48 597.16,309.04 600.10,320.65 603.05,332.26 605.99,343.84 608.93,354.82 611.89,365.36 614.83,375.87 617.77,386.38 620.72,396.29 623.66,404.68 626.60,413.07 629.56,421.44 632.50,429.83 635.44,435.77 638.40,441.71 641.34,447.66 644.28,453.60 647.23,458.03 650.17,461.88 653.11,465.73 656.07,469.56 659.01,472.80 661.95,475.25 664.90,477.67 667.84,480.12 670.79,482.46 673.74,484.36 676.68,486.23 679.62,488.13 682.58,490.00 685.52,492.28 688.46,494.62 691.41,496.96 694.35,499.30 697.29,502.52 700.25,506.34 703.19,510.17 706.13,513.99 709.08,518.42 712.03,524.31 714.97,530.17 717.92,536.06 720.86,541.95 723.80,549.51 726.76,557.08 729.70,564.65 732.64,572.21 735.59,580.08 738.53,588.06 741.48,596.04 744.43,603.99 747.37,611.37 750.31,617.86 753.27,624.38 756.21,630.87 759.15,636.90 762.10,639.98 765.04,643.06 767.98,646.14 770.94,649.23 773.88,648.18 776.82,646.42 779.77,644.69 782.72,642.95 785.66,638.38 788.61,631.70 791.55,625.01 794.49,618.33 797.45,610.51 800.39,599.86 803.33,589.22 806.28,578.57 809.22,567.92 812.17,554.66 815.12,541.40 818.06,528.14 821.00,514.87 823.96,500.73 826.90,486.20 829.84,471.68 832.79,457.15 835.73,442.62 838.67,428.12 841.63,413.62 844.57,399.12 847.51,384.81 850.46,371.69 853.41,358.54 856.35,345.41 859.30,332.26 862.24,321.37 865.18,310.86 868.14,300.32 871.08,289.78 874.02,281.22 876.97,274.12 879.91,267.00 882.85,259.90 885.81,253.82 888.75,250.27 891.69,246.75 894.65,243.20 897.59,239.68 900.53,239.26 903.48,238.88 906.42,238.47 909.36,238.05 912.32,239.40 915.26,241.44 918.20,243.47 921.15,245.54 924.09,248.34 927.04,252.22 929.99,256.07 932.93,259.95 935.87,263.97 938.83,269.06 941.77,274.15 944.71,279.24 947.66,284.33 950.60,289.86 953.54,295.47 956.50,301.09 959.44,306.73 962.38,312.20 965.33,317.57 968.28,322.93 971.22,328.33 974.17,333.36 977.11,337.52 980.05,341.70 983.01,345.85 985.95,350.04 988.89,351.96 991.84,353.89 994.78,355.81 997.73,357.71 1000.68,357.63 1003.62,356.72 1006.56,355.81 1009.52,354.93 1012.46,352.84 1015.40,349.18 1018.35,345.50 1021.29,341.84 1024.23,337.85 1027.19,332.01 1030.13,326.18 1033.07,320.32 1036.02,314.49 1038.97,307.39 1041.91,300.04 1044.86,292.72 1047.80,285.40 1050.74,276.66 1053.70,266.83 1056.64,257.01 1059.58,247.21 1062.53,238.14 1065.47,230.90 1068.42,223.64 1071.37,216.40 1074.31,209.16" fill="none" stroke="#000000" stroke-width="3"/>
<line x1="142" y1="100" x2="178" y2="100" stroke="#000000" stroke-width="4"/>
<text x="188" y="105" font-family="Arial" font-size="18" fill="black">|U|</text>
</svg>