<svg xmlns="http://www.w3.org/2000/svg" width="1200" height="820" viewBox="0 0 1200 820">
<rect width="100%" height="100%" fill="white"/>
<text x="600.0" y="36" text-anchor="middle" font-family="Arial" font-size="24" fill="black">profile_center_z: k</text>
<line x1="120.00" y1="75" x2="120.00" y2="705" stroke="#dddddd" stroke-width="1"/>
<text x="120.00" y="737" text-anchor="middle" font-family="Arial" font-size="16" fill="black">-0.240</text>
<line x1="376.25" y1="75" x2="376.25" y2="705" stroke="#dddddd" stroke-width="1"/>
<text x="376.25" y="737" text-anchor="middle" font-family="Arial" font-size="16" fill="black">0.630</text>
<line x1="632.50" y1="75" x2="632.50" y2="705" stroke="#dddddd" stroke-width="1"/>
<text x="632.50" y="737" text-anchor="middle" font-family="Arial" font-size="16" fill="black">1.500</text>
<line x1="888.75" y1="75" x2="888.75" y2="705" stroke="#dddddd" stroke-width="1"/>
<text x="888.75" y="737" text-anchor="middle" font-family="Arial" font-size="16" fill="black">2.370</text>
<line x1="1145.00" y1="75" x2="1145.00" y2="705" stroke="#dddddd" stroke-width="1"/>
<text x="1145.00" y="737" text-anchor="middle" font-family="Arial" font-size="16" fill="black">3.240</text>
<line x1="120" y1="705.00" x2="1145" y2="705.00" stroke="#dddddd" stroke-width="1"/>
<text x="104" y="710.00" text-anchor="end" font-family="Arial" font-size="16" fill="black">0.004</text>
<line x1="120" y1="547.50" x2="1145" y2="547.50" stroke="#dddddd" stroke-width="1"/>
<text x="104" y="552.50" text-anchor="end" font-family="Arial" font-size="16" fill="black">0.010</text>
<line x1="120" y1="390.00" x2="1145" y2="390.00" stroke="#dddddd" stroke-width="1"/>
<text x="104" y="395.00" text-anchor="end" font-family="Arial" font-size="16" fill="black">0.017</text>
<line x1="120" y1="232.50" x2="1145" y2="232.50" stroke="#dddddd" stroke-width="1"/>
<text x="104" y="237.50" text-anchor="end" font-family="Arial" font-size="16" fill="black">0.023</text>
<line x1="120" y1="75.00" x2="1145" y2="75.00" stroke="#dddddd" stroke-width="1"/>
<text x="104" y="80.00" text-anchor="end" font-family="Arial" font-size="16" fill="black">0.029</text>
<rect x="120" y="75" width="1025" height="630" fill="none" stroke="black" stroke-width="2"/>
<text x="632.5" y="785" text-anchor="middle" font-family="Arial" font-size="20" fill="black">z coordinate [m]</text>
<text x="34" y="390.0" transform="rotate(-90 34 390.0)" text-anchor="middle" font-family="Arial" font-size="20" fill="black">k [m2/s2]</text>
<polyline points="190.69,582.45 193.64,583.58 196.58,584.71 199.53,585.84 202.47,586.97 205.42,588.10 208.36,589.23 211.31,590.36 214.25,591.49 217.20,592.62 220.14,593.75 223.09,595.82 226.03,597.89 228.98,599.96 231.93,602.04 234.87,604.11 237.82,606.18 240.76,608.25 243.71,610.33 246.65,612.40 249.60,614.47 252.54,616.19 255.49,617.91 258.43,619.63 261.38,621.35 264.32,623.06 267.27,624.78 270.22,626.50 273.16,628.22 276.11,629.94 279.05,631.66 282.00,633.04 284.94,634.42 287.89,635.80 290.83,637.18 293.78,638.57 296.72,639.95 299.67,641.33 302.61,642.71 305.56,644.09 308.51,645.47 311.45,646.49 314.40,647.51 317.34,648.53 320.29,649.55 323.23,650.57 326.18,651.59 329.12,652.61 332.07,653.63 335.01,654.65 337.96,655.67 340.91,656.26 343.85,656.84 346.80,657.43 349.74,658.02 352.69,658.61 355.63,659.20 358.58,659.79 361.52,660.38 364.47,660.96 367.41,661.55 370.36,661.20 373.30,660.85 376.25,660.50 379.20,660.14 382.14,659.79 385.09,659.44 388.03,659.09 390.98,658.74 393.92,658.38 396.87,658.03 399.81,652.95 402.76,647.87 405.70,642.79 408.65,637.71 411.59,632.64 414.54,627.56 417.49,622.47 420.43,617.39 423.38,612.31 426.32,607.23 429.27,590.40 432.21,573.57 435.16,556.73 438.10,539.90 441.05,523.07 443.99,506.23 446.94,489.40 449.89,472.56 452.83,455.73 455.78,438.90 458.72,417.26 461.67,395.63 464.61,374.00 467.56,352.39 470.50,330.75 473.45,309.12 476.39,287.49 479.34,265.85 482.28,244.24 485.23,222.61 488.18,212.19 491.12,201.77 494.07,191.36 497.01,180.94 499.96,170.52 502.90,160.10 505.85,149.68 508.79,139.29 511.74,128.87 514.68,118.45 517.63,118.62 520.57,118.80 523.52,118.97 526.47,119.14 529.41,119.32 532.36,119.49 535.30,119.67 538.25,119.84 541.19,120.01 544.14,120.19 547.08,122.60 550.03,124.99 552.97,127.38 555.92,129.76 558.86,132.17 561.81,134.56 564.76,136.95 567.70,139.34 570.65,141.72 573.59,144.13 576.54,146.12 579.48,148.11 582.43,150.10 585.37,152.09 588.32,154.08 591.26,156.10 594.21,158.08 597.16,160.07 600.10,162.06 603.05,164.05 605.99,165.62 608.94,167.21 611.88,168.78 614.83,170.34 617.77,171.93 620.72,173.50 623.66,175.07 626.61,176.66 629.55,178.23 632.50,179.79 635.45,181.26 638.39,182.70 641.34,184.17 644.28,185.64 647.23,187.08 650.17,188.55 653.12,190.01 656.06,191.45 659.01,192.92 661.95,194.39 664.90,195.83 667.84,197.30 670.79,198.74 673.74,200.21 676.68,201.67 679.63,203.12 682.57,204.58 685.52,206.05 688.46,207.49 691.41,208.96 694.35,210.33 697.30,211.70 700.24,213.06 703.19,214.43 706.14,215.80 709.08,217.17 712.03,218.53 714.97,219.90 717.92,221.27 720.86,222.64 723.81,223.78 726.75,224.92 729.70,226.04 732.64,227.19 735.59,228.33 738.53,229.45 741.48,230.59 744.43,231.74 747.37,232.86 750.32,234.00 753.26,234.87 756.21,235.74 759.15,236.61 762.10,237.48 765.04,238.35 767.99,239.22 770.93,240.09 773.88,240.96 776.82,241.83 779.77,242.70 782.72,243.47 785.66,244.27 788.61,245.04 791.55,245.81 794.50,246.58 797.44,247.35 800.39,248.12 803.33,248.89 806.28,249.69 809.22,250.46 812.17,251.38 815.11,252.33 818.06,253.25 821.01,254.19 823.95,255.11 826.90,256.06 829.84,257.00 832.79,257.92 835.73,258.87 838.68,259.79 841.62,261.13 844.57,262.47 847.51,263.81 850.46,265.13 853.41,266.47 856.35,267.82 859.30,269.16 862.24,270.50 865.19,271.82 868.13,273.16 871.08,275.15 874.02,277.14 876.97,279.13 879.91,281.12 882.86,283.11 885.80,285.10 888.75,287.09 891.70,289.08 894.64,291.07 897.59,293.06 900.53,295.97 903.48,298.85 906.42,301.73 909.37,304.62 912.31,307.53 915.26,310.41 918.20,313.30 921.15,316.21 924.09,319.09 927.04,321.98 929.99,326.05 932.93,330.11 935.88,334.16 938.82,338.24 941.77,342.29 944.71,346.34 947.66,350.42 950.60,354.48 953.55,358.53 956.49,362.61 959.44,368.13 962.39,373.65 965.33,379.14 968.28,384.66 971.22,390.18 974.17,395.70 977.11,401.22 980.06,406.74 983.00,412.26 985.95,417.78 988.89,424.97 991.84,432.18 994.78,439.37 997.73,446.58 1000.68,453.76 1003.62,460.95 1006.57,468.16 1009.51,475.35 1012.46,482.56 1015.40,489.75 1018.35,498.72 1021.29,507.67 1024.24,516.63 1027.18,525.60 1030.13,534.55 1033.07,543.53 1036.02,552.48 1038.97,561.45 1041.91,570.41 1044.86,579.37 1047.80,584.30 1050.75,589.23 1053.69,594.16 1056.64,599.08 1059.58,604.01 1062.53,608.94 1065.47,613.86 1068.42,618.79 1071.36,623.72 1074.31,628.64" fill="none" stroke="#000000" stroke-width="3"/>
<line x1="142" y1="100" x2="178" y2="100" stroke="#000000" stroke-width="4"/>
<text x="188" y="105" font-family="Arial" font-size="18" fill="black">k</text>
</svg>