<svg xmlns="http://www.w3.org/2000/svg" width="1200" height="820" viewBox="0 0 1200 820">
<rect width="100%" height="100%" fill="white"/>
<text x="600.0" y="36" text-anchor="middle" font-family="Arial" font-size="24" fill="black">profile_center_y: velocity magnitude</text>
<line x1="120.00" y1="75" x2="120.00" y2="705" stroke="#dddddd" stroke-width="1"/>
<text x="120.00" y="737" text-anchor="middle" font-family="Arial" font-size="16" fill="black">-0.400</text>
<line x1="376.25" y1="75" x2="376.25" y2="705" stroke="#dddddd" stroke-width="1"/>
<text x="376.25" y="737" text-anchor="middle" font-family="Arial" font-size="16" fill="black">1.050</text>
<line x1="632.50" y1="75" x2="632.50" y2="705" stroke="#dddddd" stroke-width="1"/>
<text x="632.50" y="737" text-anchor="middle" font-family="Arial" font-size="16" fill="black">2.500</text>
<line x1="888.75" y1="75" x2="888.75" y2="705" stroke="#dddddd" stroke-width="1"/>
<text x="888.75" y="737" text-anchor="middle" font-family="Arial" font-size="16" fill="black">3.950</text>
<line x1="1145.00" y1="75" x2="1145.00" y2="705" stroke="#dddddd" stroke-width="1"/>
<text x="1145.00" y="737" text-anchor="middle" font-family="Arial" font-size="16" fill="black">5.400</text>
<line x1="120" y1="705.00" x2="1145" y2="705.00" stroke="#dddddd" stroke-width="1"/>
<text x="104" y="710.00" text-anchor="end" font-family="Arial" font-size="16" fill="black">0.034</text>
<line x1="120" y1="547.50" x2="1145" y2="547.50" stroke="#dddddd" stroke-width="1"/>
<text x="104" y="552.50" text-anchor="end" font-family="Arial" font-size="16" fill="black">0.160</text>
<line x1="120" y1="390.00" x2="1145" y2="390.00" stroke="#dddddd" stroke-width="1"/>
<text x="104" y="395.00" text-anchor="end" font-family="Arial" font-size="16" fill="black">0.285</text>
<line x1="120" y1="232.50" x2="1145" y2="232.50" stroke="#dddddd" stroke-width="1"/>
<text x="104" y="237.50" text-anchor="end" font-family="Arial" font-size="16" fill="black">0.410</text>
<line x1="120" y1="75.00" x2="1145" y2="75.00" stroke="#dddddd" stroke-width="1"/>
<text x="104" y="80.00" text-anchor="end" font-family="Arial" font-size="16" fill="black">0.535</text>
<rect x="120" y="75" width="1025" height="630" fill="none" stroke="black" stroke-width="2"/>
<text x="632.5" y="785" text-anchor="middle" font-family="Arial" font-size="20" fill="black">y coordinate [m]</text>
<text x="34" y="390.0" transform="rotate(-90 34 390.0)" text-anchor="middle" font-family="Arial" font-size="20" fill="black">|U| [m/s]</text>
<polyline points="190.69,118.45 193.64,120.75 196.58,123.04 199.53,125.33 202.47,127.64 205.42,129.93 208.36,132.22 211.31,138.47 214.25,144.72 217.20,150.98 220.14,157.23 223.09,163.50 226.03,169.76 228.98,178.57 231.92,187.39 234.87,196.20 237.82,205.02 240.76,213.83 243.71,222.65 246.65,233.26 249.60,243.88 252.54,254.49 255.49,265.10 258.43,275.72 261.38,286.33 264.33,298.97 267.27,311.62 270.22,324.26 273.16,336.90 276.11,349.54 279.05,362.19 282.00,376.76 284.94,391.33 287.89,405.91 290.83,420.48 293.78,435.05 296.72,449.63 299.67,464.94 302.61,480.26 305.56,495.57 308.51,510.89 311.45,526.20 314.40,541.52 317.34,553.11 320.29,564.70 323.23,576.29 326.18,587.89 329.12,599.48 332.07,611.07 335.01,608.70 337.96,606.30 340.91,603.91 343.85,601.53 346.80,599.14 349.74,596.75 352.69,583.30 355.63,569.83 358.58,556.37 361.52,542.90 364.47,529.44 367.41,515.97 370.37,502.02 373.30,488.06 376.25,474.10 379.20,460.16 382.13,446.20 385.09,432.25 388.04,422.17 390.97,412.07 393.92,401.99 396.87,391.91 399.81,381.82 402.76,371.74 405.71,366.20 408.64,360.68 411.59,355.14 414.55,349.62 417.48,344.08 420.43,338.55 423.38,336.90 426.32,335.27 429.27,333.63 432.22,331.98 435.15,330.35 438.10,328.70 441.05,330.03 443.99,331.36 446.94,332.69 449.89,334.01 452.82,335.34 455.78,336.67 458.73,340.34 461.66,344.02 464.61,347.69 467.56,351.38 470.50,355.05 473.45,358.73 476.40,364.69 479.33,370.66 482.28,376.61 485.24,382.57 488.17,388.54 491.12,394.50 494.07,403.25 497.01,412.01 499.96,420.76 502.91,429.50 505.84,438.25 508.79,447.01 511.74,459.18 514.68,471.36 517.63,483.53 520.58,495.71 523.51,507.88 526.47,520.06 529.42,534.89 532.35,549.71 535.30,564.54 538.25,579.37 541.19,594.20 544.14,609.02 547.09,617.78 550.02,626.53 552.97,635.29 555.93,644.04 558.86,652.80 561.81,661.55 564.76,652.59 567.70,643.63 570.65,634.67 573.60,625.71 576.53,616.75 579.48,607.79 582.43,596.68 585.37,585.55 588.32,574.43 591.27,563.30 594.20,552.19 597.16,541.07 600.11,534.58 603.04,528.09 605.99,521.61 608.94,515.12 611.88,508.63 614.83,502.14 617.78,501.01 620.71,499.88 623.66,498.74 626.62,497.61 629.55,496.48 632.50,495.35 635.45,498.72 638.38,502.08 641.34,505.44 644.29,508.80 647.22,512.17 650.17,515.53 653.12,521.95 656.06,528.35 659.01,534.77 661.96,541.18 664.89,547.60 667.84,554.00 670.80,561.70 673.73,569.41 676.68,577.10 679.63,584.80 682.57,592.50 685.52,600.20 688.47,606.34 691.40,612.48 694.35,618.64 697.30,624.78 700.24,630.92 703.19,637.07 706.14,636.63 709.07,636.19 712.03,635.75 714.98,635.31 717.91,634.88 720.86,634.44 723.81,627.47 726.75,620.50 729.70,613.53 732.65,606.56 735.58,599.60 738.53,592.62 741.49,584.19 744.42,575.77 747.37,567.34 750.32,558.92 753.26,550.49 756.21,542.06 759.16,534.37 762.09,526.68 765.04,518.99 767.99,511.30 770.93,503.61 773.88,495.92 776.83,489.56 779.76,483.19 782.72,476.83 785.67,470.47 788.60,464.10 791.55,457.73 794.50,452.82 797.44,447.93 800.39,443.02 803.34,438.11 806.27,433.21 809.22,428.31 812.18,424.91 815.11,421.51 818.06,418.13 821.01,414.73 823.95,411.33 826.90,407.95 829.85,406.16 832.78,404.38 835.73,402.60 838.68,400.82 841.62,399.04 844.57,397.26 847.52,397.32 850.45,397.37 853.41,397.44 856.36,397.50 859.29,397.56 862.24,397.63 865.19,399.77 868.13,401.90 871.08,404.06 874.03,406.20 876.96,408.34 879.91,410.47 882.87,414.46 885.80,418.45 888.75,422.44 891.70,426.42 894.63,430.41 897.59,434.40 900.54,438.69 903.47,442.98 906.42,447.27 909.37,451.56 912.31,455.85 915.26,460.15 918.21,463.39 921.14,466.65 924.09,469.90 927.05,473.16 929.98,476.41 932.93,479.66 935.88,481.87 938.82,484.08 941.77,486.28 944.72,488.50 947.65,490.70 950.60,492.92 953.55,494.26 956.49,495.62 959.44,496.97 962.39,498.32 965.32,499.67 968.28,501.02 971.23,501.59 974.16,502.14 977.11,502.71 980.06,503.27 983.00,503.83 985.95,504.39 988.90,504.13 991.83,503.88 994.78,503.61 997.74,503.35 1000.67,503.10 1003.62,502.83 1006.57,501.79 1009.51,500.76 1012.46,499.72 1015.41,498.68 1018.34,497.65 1021.29,496.60 1024.24,495.22 1027.18,493.84 1030.13,492.45 1033.08,491.07 1036.01,489.68 1038.97,488.30 1041.92,488.40 1044.85,488.49 1047.80,488.59 1050.75,488.69 1053.69,488.79 1056.64,488.89 1059.59,489.68 1062.52,490.46 1065.47,491.26 1068.43,492.04 1071.36,492.83 1074.31,493.61" fill="none" stroke="#000000" stroke-width="3"/>
<line x1="142" y1="100" x2="178" y2="100" stroke="#000000" stroke-width="4"/>
<text x="188" y="105" font-family="Arial" font-size="18" fill="black">|U|</text>
</svg>