<svg xmlns="http://www.w3.org/2000/svg" width="1200" height="820" viewBox="0 0 1200 820">
<rect width="100%" height="100%" fill="white"/>
<text x="600.0" y="36" text-anchor="middle" font-family="Arial" font-size="24" fill="black">profile_diagonal_supply_return: alphat</text>
<line x1="120.00" y1="75" x2="120.00" y2="705" stroke="#dddddd" stroke-width="1"/>
<text x="120.00" y="737" text-anchor="middle" font-family="Arial" font-size="16" fill="black">-0.729</text>
<line x1="376.25" y1="75" x2="376.25" y2="705" stroke="#dddddd" stroke-width="1"/>
<text x="376.25" y="737" text-anchor="middle" font-family="Arial" font-size="16" fill="black">1.913</text>
<line x1="632.50" y1="75" x2="632.50" y2="705" stroke="#dddddd" stroke-width="1"/>
<text x="632.50" y="737" text-anchor="middle" font-family="Arial" font-size="16" fill="black">4.555</text>
<line x1="888.75" y1="75" x2="888.75" y2="705" stroke="#dddddd" stroke-width="1"/>
<text x="888.75" y="737" text-anchor="middle" font-family="Arial" font-size="16" fill="black">7.197</text>
<line x1="1145.00" y1="75" x2="1145.00" y2="705" stroke="#dddddd" stroke-width="1"/>
<text x="1145.00" y="737" text-anchor="middle" font-family="Arial" font-size="16" fill="black">9.839</text>
<line x1="120" y1="705.00" x2="1145" y2="705.00" stroke="#dddddd" stroke-width="1"/>
<text x="104" y="710.00" text-anchor="end" font-family="Arial" font-size="16" fill="black">-0.001</text>
<line x1="120" y1="547.50" x2="1145" y2="547.50" stroke="#dddddd" stroke-width="1"/>
<text x="104" y="552.50" text-anchor="end" font-family="Arial" font-size="16" fill="black">0.005</text>
<line x1="120" y1="390.00" x2="1145" y2="390.00" stroke="#dddddd" stroke-width="1"/>
<text x="104" y="395.00" text-anchor="end" font-family="Arial" font-size="16" fill="black">0.011</text>
<line x1="120" y1="232.50" x2="1145" y2="232.50" stroke="#dddddd" stroke-width="1"/>
<text x="104" y="237.50" text-anchor="end" font-family="Arial" font-size="16" fill="black">0.017</text>
<line x1="120" y1="75.00" x2="1145" y2="75.00" stroke="#dddddd" stroke-width="1"/>
<text x="104" y="80.00" text-anchor="end" font-family="Arial" font-size="16" fill="black">0.023</text>
<rect x="120" y="75" width="1025" height="630" fill="none" stroke="black" stroke-width="2"/>
<text x="632.5" y="785" text-anchor="middle" font-family="Arial" font-size="20" fill="black">distance along sample line [m]</text>
<text x="34" y="390.0" transform="rotate(-90 34 390.0)" text-anchor="middle" font-family="Arial" font-size="20" fill="black">alphat [SI]</text>
<polyline points="190.69,661.55 193.64,661.37 196.58,661.17 199.53,660.92 202.47,660.61 205.42,660.15 208.36,659.55 211.31,658.65 214.25,657.51 217.20,656.22 220.14,654.89 223.09,653.20 226.03,651.26 228.98,649.29 231.93,647.14 234.87,644.76 237.82,642.12 240.76,639.22 243.71,635.99 246.65,632.77 249.60,629.28 252.54,626.90 255.49,624.28 258.43,621.38 261.38,618.28 264.32,615.27 267.27,612.01 270.22,608.38 273.16,604.48 276.11,600.32 279.05,595.89 282.00,592.55 284.94,588.99 287.88,585.24 290.83,581.28 293.78,577.15 296.73,572.80 299.67,568.69 302.62,564.36 305.57,559.87 308.50,555.20 311.45,551.16 314.40,546.93 317.34,543.34 320.29,539.62 323.24,535.69 326.18,531.57 329.12,527.25 332.07,522.74 335.01,519.11 337.96,515.24 340.91,511.82 343.85,508.17 346.80,504.27 349.74,500.12 352.68,496.85 355.63,493.31 358.58,489.44 361.53,485.27 364.47,480.79 367.42,476.02 370.36,472.24 373.30,468.09 376.25,463.60 379.20,458.76 382.14,453.67 385.09,448.24 388.04,442.83 390.97,437.05 393.92,431.09 396.87,424.98 399.81,419.08 402.76,412.89 405.71,406.71 408.65,400.65 411.59,394.30 414.54,387.72 417.48,380.88 420.43,374.38 423.38,367.91 426.32,361.22 429.27,354.80 432.21,348.79 435.16,343.02 438.10,337.08 441.05,331.23 444.00,325.53 446.94,320.51 449.89,315.38 452.84,310.17 455.77,304.86 458.72,301.11 461.67,297.35 464.61,293.65 467.56,289.97 470.51,286.70 473.45,283.62 476.39,280.70 479.34,277.87 482.28,275.15 485.23,272.59 488.18,270.91 491.12,269.30 494.07,267.75 497.01,265.98 499.96,264.30 502.90,262.72 505.85,261.19 508.80,259.20 511.74,257.05 514.69,254.95 517.63,253.47 520.57,251.66 523.52,249.56 526.47,247.41 529.41,245.16 532.36,242.93 535.31,240.63 538.24,238.27 541.19,235.81 544.14,233.24 547.08,231.74 550.03,230.16 552.98,228.56 555.92,226.87 558.86,225.78 561.81,224.80 564.76,223.58 567.70,222.18 570.65,220.91 573.60,219.83 576.54,219.52 579.49,219.02 582.43,218.32 585.37,217.99 588.32,217.39 591.27,216.51 594.21,215.37 597.16,214.31 600.11,212.65 603.04,210.68 605.99,210.04 608.94,209.47 611.88,208.95 614.83,208.35 617.78,206.98 620.72,205.56 623.66,204.21 626.61,202.81 629.55,201.31 632.50,199.75 635.45,198.10 638.40,196.28 641.34,194.31 644.28,192.19 647.23,189.70 650.17,186.96 653.12,183.80 656.07,180.46 659.01,176.78 661.96,172.76 664.90,168.98 667.84,165.07 670.79,161.70 673.74,158.13 676.68,154.45 679.63,150.72 682.58,146.89 685.51,142.90 688.46,139.89 691.41,136.81 694.35,134.04 697.30,131.32 700.25,128.63 703.20,125.93 706.14,124.35 709.08,122.88 712.03,121.63 714.97,120.49 717.92,119.43 720.87,118.45 723.81,119.41 726.76,120.47 729.70,121.69 732.64,123.03 735.59,124.59 738.54,126.27 741.48,129.33 744.43,132.54 747.38,135.91 750.31,139.32 753.26,142.90 756.21,146.50 759.15,151.21 762.10,155.88 765.05,160.56 767.99,165.25 770.93,169.97 773.88,174.58 776.83,179.81 779.77,185.02 782.72,190.12 785.67,195.17 788.61,200.06 791.55,204.83 794.50,209.70 797.44,214.52 800.39,219.28 803.34,223.87 806.28,228.22 809.23,232.34 812.17,236.53 815.11,240.50 818.06,244.17 821.01,247.62 823.95,251.43 826.90,255.18 829.85,258.21 832.79,260.98 835.73,264.02 838.68,267.46 841.63,271.09 844.57,274.48 847.52,277.10 850.47,280.20 853.41,283.05 856.35,285.64 859.30,288.00 862.24,290.46 865.19,292.20 868.14,293.72 871.08,295.85 874.03,297.89 876.97,299.86 879.91,301.62 882.86,302.95 885.81,304.11 888.75,305.28 891.70,306.29 894.65,307.12 897.58,307.79 900.53,310.15 903.48,312.35 906.43,314.42 909.37,316.36 912.32,318.41 915.27,320.45 918.20,322.99 921.15,325.48 924.10,328.10 927.04,330.97 929.99,335.87 932.94,340.79 935.88,346.69 938.82,353.19 941.77,359.77 944.71,366.48 947.66,373.27 950.61,380.78 953.55,389.28 956.50,397.90 959.44,408.57 962.38,419.42 965.33,430.36 968.28,441.19 971.22,452.22 974.17,462.98 977.12,473.29 980.06,483.34 983.00,493.11 985.95,502.62 988.90,512.09 991.84,520.97 994.79,529.29 997.74,537.10 1000.68,542.57 1003.62,546.87 1006.57,550.90 1009.51,554.51 1012.46,557.53 1015.41,560.12 1018.35,565.57 1021.30,571.26 1024.24,578.08 1027.18,586.46 1030.13,594.43 1033.08,601.97 1036.02,609.08 1038.97,616.76 1041.92,624.85 1044.86,631.59 1047.80,636.61 1050.75,640.76 1053.70,644.05 1056.64,646.56 1059.59,648.17 1062.54,649.28 1065.47,649.93 1068.42,650.42 1071.37,650.79 1074.31,651.08" fill="none" stroke="#000000" stroke-width="3"/>
<line x1="142" y1="100" x2="178" y2="100" stroke="#000000" stroke-width="4"/>
<text x="188" y="105" font-family="Arial" font-size="18" fill="black">alphat</text>
</svg>