<svg xmlns="http://www.w3.org/2000/svg" width="1200" height="820" viewBox="0 0 1200 820">
<rect width="100%" height="100%" fill="white"/>
<text x="600.0" y="36" text-anchor="middle" font-family="Arial" font-size="24" fill="black">profile_near_ceiling_x: velocity magnitude</text>
<line x1="120.00" y1="75" x2="120.00" y2="705" stroke="#dddddd" stroke-width="1"/>
<text x="120.00" y="737" text-anchor="middle" font-family="Arial" font-size="16" fill="black">-0.560</text>
<line x1="376.25" y1="75" x2="376.25" y2="705" stroke="#dddddd" stroke-width="1"/>
<text x="376.25" y="737" text-anchor="middle" font-family="Arial" font-size="16" fill="black">1.470</text>
<line x1="632.50" y1="75" x2="632.50" y2="705" stroke="#dddddd" stroke-width="1"/>
<text x="632.50" y="737" text-anchor="middle" font-family="Arial" font-size="16" fill="black">3.500</text>
<line x1="888.75" y1="75" x2="888.75" y2="705" stroke="#dddddd" stroke-width="1"/>
<text x="888.75" y="737" text-anchor="middle" font-family="Arial" font-size="16" fill="black">5.530</text>
<line x1="1145.00" y1="75" x2="1145.00" y2="705" stroke="#dddddd" stroke-width="1"/>
<text x="1145.00" y="737" text-anchor="middle" font-family="Arial" font-size="16" fill="black">7.560</text>
<line x1="120" y1="705.00" x2="1145" y2="705.00" stroke="#dddddd" stroke-width="1"/>
<text x="104" y="710.00" text-anchor="end" font-family="Arial" font-size="16" fill="black">0.163</text>
<line x1="120" y1="547.50" x2="1145" y2="547.50" stroke="#dddddd" stroke-width="1"/>
<text x="104" y="552.50" text-anchor="end" font-family="Arial" font-size="16" fill="black">0.214</text>
<line x1="120" y1="390.00" x2="1145" y2="390.00" stroke="#dddddd" stroke-width="1"/>
<text x="104" y="395.00" text-anchor="end" font-family="Arial" font-size="16" fill="black">0.265</text>
<line x1="120" y1="232.50" x2="1145" y2="232.50" stroke="#dddddd" stroke-width="1"/>
<text x="104" y="237.50" text-anchor="end" font-family="Arial" font-size="16" fill="black">0.316</text>
<line x1="120" y1="75.00" x2="1145" y2="75.00" stroke="#dddddd" stroke-width="1"/>
<text x="104" y="80.00" text-anchor="end" font-family="Arial" font-size="16" fill="black">0.367</text>
<rect x="120" y="75" width="1025" height="630" fill="none" stroke="black" stroke-width="2"/>
<text x="632.5" y="785" text-anchor="middle" font-family="Arial" font-size="20" fill="black">x coordinate [m]</text>
<text x="34" y="390.0" transform="rotate(-90 34 390.0)" text-anchor="middle" font-family="Arial" font-size="20" fill="black">|U| [m/s]</text>
<polyline points="190.69,575.24 193.64,574.53 196.58,573.79 199.53,573.04 202.47,572.34 205.42,567.25 208.36,560.43 211.31,553.61 214.25,546.82 217.20,538.31 220.14,527.57 223.09,516.81 226.03,506.07 228.98,495.58 231.93,486.60 234.87,477.63 237.82,468.65 240.76,459.64 243.71,453.23 246.65,447.18 249.60,441.16 252.54,435.15 255.49,431.35 258.43,429.26 261.38,427.16 264.32,425.06 267.27,424.04 270.22,425.71 273.16,427.34 276.11,429.01 279.05,430.67 282.00,435.58 284.94,440.52 287.89,445.45 290.83,450.39 293.78,457.36 296.72,465.10 299.67,472.88 302.62,480.65 305.56,489.38 308.51,499.38 311.45,509.40 314.40,519.43 317.34,529.61 320.29,540.87 323.23,552.13 326.17,563.39 329.13,574.65 332.07,585.29 335.01,595.81 337.96,606.33 340.91,616.85 343.85,625.00 346.80,631.32 349.74,637.67 352.68,644.00 355.64,649.40 358.58,652.45 361.52,655.47 364.47,658.53 367.41,661.55 370.35,660.10 373.31,658.65 376.25,657.20 379.19,655.75 382.15,650.14 385.09,642.86 388.03,635.58 390.98,628.30 393.92,618.18 396.86,604.26 399.82,590.35 402.76,576.41 405.70,562.19 408.65,545.93 411.59,529.70 414.54,513.47 417.49,497.25 420.43,481.42 423.37,465.69 426.33,449.96 429.27,434.22 432.21,419.63 435.16,405.90 438.10,392.21 441.04,378.48 444.00,365.58 446.94,354.75 449.88,343.93 452.83,333.10 455.78,322.27 458.72,314.96 461.67,307.65 464.61,300.31 467.55,292.99 470.51,288.55 473.45,285.22 476.39,281.92 479.34,278.62 482.28,277.08 485.23,277.88 488.18,278.71 491.12,279.54 494.06,280.90 497.02,285.47 499.96,290.03 502.90,294.60 505.85,299.16 508.79,306.17 511.73,313.54 514.69,320.94 517.63,328.35 520.57,336.68 523.52,345.75 526.47,354.79 529.41,363.82 532.36,373.02 535.30,382.52 538.24,391.99 541.20,401.49 544.14,410.99 547.08,419.72 550.03,428.48 552.97,437.25 555.92,445.98 558.87,453.29 561.81,460.01 564.75,466.71 567.71,473.43 570.65,478.77 573.59,482.19 576.54,485.65 579.48,489.10 582.42,491.97 585.38,491.39 588.32,490.80 591.26,490.21 594.21,489.63 597.16,486.33 600.10,482.59 603.05,478.86 605.99,475.13 608.93,472.54 611.89,470.84 614.83,469.14 617.77,467.45 620.72,467.54 623.66,472.23 626.60,476.92 629.56,481.61 632.50,486.27 635.44,494.01 638.40,501.72 641.34,509.43 644.28,517.15 647.23,523.50 650.17,529.27 653.11,535.07 656.07,540.84 659.01,545.13 661.95,547.47 664.90,549.82 667.84,552.13 670.79,554.10 673.74,553.86 676.68,553.61 679.62,553.36 682.58,553.12 685.52,552.56 688.46,551.94 691.41,551.33 694.35,550.71 697.29,550.62 700.25,550.96 703.19,551.27 706.13,551.60 709.08,552.16 712.03,553.33 714.97,554.50 717.92,555.68 720.86,556.82 723.80,557.93 726.76,559.04 729.70,560.15 732.64,561.23 735.59,561.78 738.53,562.09 741.48,562.40 744.43,562.74 747.37,563.05 750.31,563.39 753.27,563.73 756.21,564.07 759.15,564.68 762.10,566.84 765.04,569.03 767.98,571.19 770.94,573.38 773.88,576.96 776.82,580.82 779.77,584.64 782.72,588.50 785.66,592.05 788.61,595.35 791.55,598.68 794.49,601.98 797.45,604.79 800.39,606.24 803.33,607.72 806.28,609.17 809.22,610.62 812.17,610.19 815.12,609.72 818.06,609.29 821.00,608.83 823.96,607.07 826.90,604.79 829.84,602.51 832.79,600.19 835.73,597.08 838.67,592.82 841.63,588.59 844.57,584.34 847.51,579.80 850.46,573.51 853.41,567.18 856.35,560.86 859.30,554.54 862.24,546.48 865.18,538.15 868.14,529.82 871.08,521.46 874.02,512.12 876.97,502.03 879.91,491.94 882.85,481.82 885.81,471.37 888.75,459.92 891.69,448.48 894.65,437.03 897.59,425.58 900.53,412.97 903.48,400.35 906.42,387.73 909.36,375.12 912.32,361.97 915.26,348.62 918.20,335.26 921.15,321.90 924.09,308.79 927.04,296.05 929.99,283.28 932.93,270.50 935.87,257.98 938.83,246.75 941.77,235.52 944.71,224.29 947.66,213.06 950.60,203.41 953.54,194.00 956.50,184.59 959.44,175.21 962.38,167.13 965.33,160.06 968.28,153.00 971.22,145.90 974.17,139.64 977.11,135.32 980.05,131.03 983.01,126.75 985.95,122.46 988.89,121.44 991.84,120.45 994.78,119.47 997.73,118.45 1000.68,120.18 1003.62,122.95 1006.56,125.76 1009.52,128.54 1012.46,133.10 1015.40,140.04 1018.35,146.98 1021.29,153.93 1024.23,161.33 1027.19,171.51 1030.13,181.72 1033.07,191.93 1036.02,202.14 1038.97,213.99 1041.91,226.08 1044.86,238.21 1047.80,250.33 1050.74,258.91 1053.70,264.86 1056.64,270.78 1059.58,276.74 1062.53,280.69 1065.47,279.64 1068.42,278.56 1071.37,277.51 1074.31,276.46" fill="none" stroke="#000000" stroke-width="3"/>
<line x1="142" y1="100" x2="178" y2="100" stroke="#000000" stroke-width="4"/>
<text x="188" y="105" font-family="Arial" font-size="18" fill="black">|U|</text>
</svg>