<svg xmlns="http://www.w3.org/2000/svg" width="1200" height="820" viewBox="0 0 1200 820">
<rect width="100%" height="100%" fill="white"/>
<text x="600.0" y="36" text-anchor="middle" font-family="Arial" font-size="24" fill="black">profile_rack_height_x: U, V, W components</text>
<line x1="120.00" y1="75" x2="120.00" y2="705" stroke="#dddddd" stroke-width="1"/>
<text x="120.00" y="737" text-anchor="middle" font-family="Arial" font-size="16" fill="black">-0.560</text>
<line x1="376.25" y1="75" x2="376.25" y2="705" stroke="#dddddd" stroke-width="1"/>
<text x="376.25" y="737" text-anchor="middle" font-family="Arial" font-size="16" fill="black">1.470</text>
<line x1="632.50" y1="75" x2="632.50" y2="705" stroke="#dddddd" stroke-width="1"/>
<text x="632.50" y="737" text-anchor="middle" font-family="Arial" font-size="16" fill="black">3.500</text>
<line x1="888.75" y1="75" x2="888.75" y2="705" stroke="#dddddd" stroke-width="1"/>
<text x="888.75" y="737" text-anchor="middle" font-family="Arial" font-size="16" fill="black">5.530</text>
<line x1="1145.00" y1="75" x2="1145.00" y2="705" stroke="#dddddd" stroke-width="1"/>
<text x="1145.00" y="737" text-anchor="middle" font-family="Arial" font-size="16" fill="black">7.560</text>
<line x1="120" y1="705.00" x2="1145" y2="705.00" stroke="#dddddd" stroke-width="1"/>
<text x="104" y="710.00" text-anchor="end" font-family="Arial" font-size="16" fill="black">-0.308</text>
<line x1="120" y1="547.50" x2="1145" y2="547.50" stroke="#dddddd" stroke-width="1"/>
<text x="104" y="552.50" text-anchor="end" font-family="Arial" font-size="16" fill="black">-0.155</text>
<line x1="120" y1="390.00" x2="1145" y2="390.00" stroke="#dddddd" stroke-width="1"/>
<text x="104" y="395.00" text-anchor="end" font-family="Arial" font-size="16" fill="black">-0.001</text>
<line x1="120" y1="232.50" x2="1145" y2="232.50" stroke="#dddddd" stroke-width="1"/>
<text x="104" y="237.50" text-anchor="end" font-family="Arial" font-size="16" fill="black">0.152</text>
<line x1="120" y1="75.00" x2="1145" y2="75.00" stroke="#dddddd" stroke-width="1"/>
<text x="104" y="80.00" text-anchor="end" font-family="Arial" font-size="16" fill="black">0.305</text>
<rect x="120" y="75" width="1025" height="630" fill="none" stroke="black" stroke-width="2"/>
<text x="632.5" y="785" text-anchor="middle" font-family="Arial" font-size="20" fill="black">x coordinate [m]</text>
<text x="34" y="390.0" transform="rotate(-90 34 390.0)" text-anchor="middle" font-family="Arial" font-size="20" fill="black">velocity component [m/s]</text>
<polyline points="190.69,351.17 193.64,347.11 196.58,343.05 199.53,338.99 202.47,334.93 205.42,329.22 208.36,322.85 211.31,316.48 214.25,310.12 217.20,305.15 220.14,302.03 223.09,298.92 226.03,295.81 228.98,292.98 231.93,291.82 234.87,290.67 237.82,289.51 240.76,288.36 243.71,287.44 246.65,286.55 249.60,285.67 252.54,284.78 255.49,283.57 258.43,282.10 261.38,280.65 264.32,279.19 267.27,277.52 270.22,275.34 273.16,273.15 276.11,270.97 279.05,268.79 282.00,266.23 284.94,263.66 287.89,261.10 290.83,258.53 293.78,256.13 296.72,253.80 299.67,251.47 302.62,249.13 305.56,247.13 308.51,245.58 311.45,244.03 314.40,242.47 317.34,241.08 320.29,240.70 323.23,240.31 326.17,239.93 329.13,239.54 332.07,240.58 335.01,241.85 337.96,243.13 340.91,244.41 343.85,246.89 346.80,250.29 349.74,253.68 352.68,257.07 355.64,261.06 358.58,266.58 361.52,272.09 364.47,277.59 367.41,283.10 370.35,290.36 373.31,297.61 376.25,304.87 379.19,312.12 382.15,320.31 385.09,328.86 388.03,337.42 390.98,345.97 393.92,354.79 396.86,363.96 399.82,373.14 402.76,382.31 405.70,391.41 408.65,400.09 411.59,408.78 414.54,417.46 417.49,426.14 420.43,433.58 423.37,440.81 426.33,448.05 429.27,455.28 432.21,461.53 435.16,467.05 438.10,472.56 441.04,478.08 444.00,483.14 446.94,487.04 449.88,490.95 452.83,494.85 455.78,498.76 458.72,501.37 461.67,503.97 464.61,506.58 467.55,509.19 470.51,511.19 473.45,512.95 476.39,514.71 479.34,516.47 482.28,518.02 485.23,519.29 488.18,520.56 491.12,521.83 494.06,523.07 497.02,524.10 499.96,525.13 502.90,526.16 505.85,527.19 508.79,528.14 511.73,529.07 514.69,530.00 517.63,530.93 520.57,531.83 523.52,532.68 526.47,533.54 529.41,534.39 532.36,535.21 535.30,535.93 538.24,536.65 541.20,537.37 544.14,538.09 547.08,538.56 550.03,539.04 552.97,539.51 555.92,540.00 558.87,540.22 561.81,540.35 564.75,540.50 567.71,540.63 570.65,540.59 573.59,540.33 576.54,540.07 579.48,539.80 582.42,539.48 585.38,538.80 588.32,538.13 591.26,537.46 594.21,536.78 597.16,535.77 600.10,534.71 603.05,533.64 605.99,532.58 608.93,531.32 611.89,529.93 614.83,528.53 617.77,527.15 620.72,525.68 623.66,524.04 626.60,522.40 629.56,520.76 632.50,519.13 635.44,517.32 638.40,515.53 641.34,513.72 644.28,511.93 647.23,510.04 650.17,508.13 653.11,506.22 656.07,504.31 659.01,502.36 661.95,500.36 664.90,498.36 667.84,496.36 670.79,494.35 673.74,492.25 676.68,490.16 679.62,488.08 682.58,485.99 685.52,483.80 688.46,481.61 691.41,479.41 694.35,477.22 697.29,474.95 700.25,472.61 703.19,470.29 706.13,467.95 709.08,465.57 712.03,463.06 714.97,460.55 717.92,458.03 720.86,455.52 723.80,452.76 726.76,450.01 729.70,447.25 732.64,444.50 735.59,441.55 738.53,438.52 741.48,435.49 744.43,432.46 747.37,429.34 750.31,426.09 753.27,422.84 756.21,419.59 759.15,416.34 762.10,413.05 765.04,409.77 767.98,406.48 770.94,403.20 773.88,400.17 776.82,397.18 779.77,394.19 782.72,391.20 785.66,388.64 788.61,386.41 791.55,384.18 794.49,381.94 797.45,380.05 800.39,379.01 803.33,377.97 806.28,376.94 809.22,375.90 812.17,376.32 815.12,376.75 818.06,377.18 821.00,377.61 823.96,379.15 826.90,381.15 829.84,383.15 832.79,385.14 835.73,387.77 838.67,391.23 841.63,394.70 844.57,398.16 847.51,401.80 850.46,406.47 853.41,411.13 856.35,415.79 859.30,420.45 862.24,425.80 865.18,431.26 868.14,436.72 871.08,442.18 874.02,447.83 876.97,453.63 879.91,459.43 882.85,465.23 885.81,471.00 888.75,476.70 891.69,482.40 894.65,488.09 897.59,493.79 900.53,499.01 903.48,504.23 906.42,509.45 909.36,514.68 912.32,519.35 915.26,523.81 918.20,528.26 921.15,532.73 924.09,536.76 927.04,540.23 929.99,543.71 932.93,547.18 935.87,550.48 938.83,552.79 941.77,555.10 944.71,557.41 947.66,559.71 950.60,560.91 953.54,561.92 956.50,562.92 959.44,563.93 962.38,564.17 965.33,563.83 968.28,563.48 971.22,563.14 974.17,562.44 977.11,560.86 980.05,559.28 983.01,557.70 985.95,556.12 988.89,553.49 991.84,550.87 994.78,548.25 997.73,545.62 1000.68,542.30 1003.62,538.71 1006.56,535.11 1009.52,531.52 1012.46,527.47 1015.40,522.85 1018.35,518.21 1021.29,513.58 1024.23,508.79 1027.19,503.01 1030.13,497.23 1033.07,491.45 1036.02,485.67 1038.97,478.93 1041.91,472.02 1044.86,465.11 1047.80,458.21 1050.74,450.94 1053.70,443.41 1056.64,435.87 1059.58,428.34 1062.53,421.86 1065.47,418.04 1068.42,414.23 1071.37,410.41 1074.31,406.59" fill="none" stroke="#000000" stroke-width="3"/>
<line x1="142" y1="100" x2="178" y2="100" stroke="#000000" stroke-width="4"/>
<text x="188" y="105" font-family="Arial" font-size="18" fill="black">Ux / u</text>
<polyline points="190.69,245.27 193.64,251.92 196.58,258.56 199.53,265.21 202.47,271.85 205.42,281.59 208.36,292.55 211.31,303.52 214.25,314.48 217.20,323.66 220.14,330.44 223.09,337.23 226.03,344.01 228.98,350.30 231.93,353.58 234.87,356.87 237.82,360.15 240.76,363.44 243.71,363.98 246.65,364.07 249.60,364.15 252.54,364.24 255.49,362.57 258.43,359.58 261.38,356.59 264.32,353.60 267.27,349.75 270.22,343.74 273.16,337.74 276.11,331.73 279.05,325.72 282.00,316.91 284.94,308.10 287.89,299.29 290.83,290.49 293.78,280.22 296.72,269.36 299.67,258.50 302.62,247.64 305.56,236.56 308.51,225.18 311.45,213.81 314.40,202.43 317.34,191.30 320.29,181.58 323.23,171.85 326.17,162.13 329.13,152.41 332.07,145.81 335.01,139.72 337.96,133.65 340.91,127.56 343.85,124.01 346.80,122.35 349.74,120.69 352.68,119.02 355.64,118.45 358.58,120.57 361.52,122.70 364.47,124.82 367.41,126.96 370.35,131.63 373.31,136.30 376.25,140.97 379.19,145.64 382.15,151.49 385.09,157.82 388.03,164.14 390.98,170.47 393.92,177.33 396.86,184.87 399.82,192.42 402.76,199.98 405.70,207.60 408.65,215.73 411.59,223.86 414.54,231.99 417.49,240.12 420.43,248.08 423.37,256.00 426.33,263.94 429.27,271.87 432.21,279.44 435.16,286.73 438.10,294.03 441.04,301.33 444.00,308.39 446.94,314.88 449.88,321.36 452.83,327.84 455.78,334.33 458.72,339.85 461.67,345.37 464.61,350.90 467.55,356.42 470.51,361.15 473.45,365.55 476.39,369.96 479.34,374.37 482.28,378.28 485.23,381.50 488.18,384.73 491.12,387.96 494.06,391.04 497.02,393.16 499.96,395.28 502.90,397.41 505.85,399.53 508.79,400.84 511.73,402.02 514.69,403.19 517.63,404.36 520.57,405.06 523.52,405.40 526.47,405.74 529.41,406.08 532.36,406.18 535.30,405.68 538.24,405.19 541.20,404.69 544.14,404.19 547.08,402.79 550.03,401.38 552.97,399.98 555.92,398.58 558.87,396.52 561.81,394.20 564.75,391.88 567.71,389.56 570.65,386.92 573.59,383.84 576.54,380.75 579.48,377.67 582.42,374.52 585.38,370.96 588.32,367.40 591.26,363.85 594.21,360.29 597.16,356.63 600.10,352.95 603.05,349.27 605.99,345.60 608.93,342.06 611.89,338.63 614.83,335.20 617.77,331.77 620.72,328.51 623.66,325.65 626.60,322.79 629.56,319.94 632.50,317.08 635.44,315.03 638.40,312.98 641.34,310.94 644.28,308.89 647.23,307.50 650.17,306.38 653.11,305.26 656.07,304.14 659.01,303.41 661.95,303.19 664.90,302.97 667.84,302.75 670.79,302.64 673.74,303.17 676.68,303.69 679.62,304.21 682.58,304.74 685.52,305.67 688.46,306.67 691.41,307.66 694.35,308.66 697.29,309.75 700.25,310.91 703.19,312.07 706.13,313.24 709.08,314.37 712.03,315.42 714.97,316.47 717.92,317.52 720.86,318.57 723.80,319.33 726.76,320.09 729.70,320.84 732.64,321.60 735.59,322.08 738.53,322.44 741.48,322.81 744.43,323.18 747.37,323.37 750.31,323.32 753.27,323.28 756.21,323.23 759.15,323.13 762.10,322.69 765.04,322.24 767.98,321.80 770.94,321.36 773.88,320.59 776.82,319.77 779.77,318.95 782.72,318.13 785.66,317.08 788.61,315.86 791.55,314.65 794.49,313.43 797.45,312.08 800.39,310.39 803.33,308.71 806.28,307.02 809.22,305.34 812.17,303.11 815.12,300.89 818.06,298.66 821.00,296.43 823.96,293.86 826.90,291.15 829.84,288.45 832.79,285.74 835.73,282.97 838.67,280.10 841.63,277.24 844.57,274.38 847.51,271.57 850.46,269.12 853.41,266.66 856.35,264.21 859.30,261.75 862.24,260.12 865.18,258.63 868.14,257.14 871.08,255.66 874.02,254.87 876.97,254.62 879.91,254.36 882.85,254.11 885.81,254.20 888.75,255.16 891.69,256.13 894.65,257.09 897.59,258.06 900.53,260.10 903.48,262.14 906.42,264.18 909.36,266.24 912.32,268.98 915.26,271.99 918.20,275.01 921.15,278.03 924.09,281.47 927.04,285.45 929.99,289.43 932.93,293.41 935.87,297.53 938.83,302.50 941.77,307.47 944.71,312.43 947.66,317.40 950.60,323.20 953.54,329.13 956.50,335.06 959.44,341.00 962.38,347.41 965.33,354.20 968.28,360.98 971.22,367.76 974.17,374.72 977.11,382.10 980.05,389.48 983.01,396.86 985.95,404.24 988.89,411.80 991.84,419.36 994.78,426.92 997.73,434.48 1000.68,441.80 1003.62,449.02 1006.56,456.24 1009.52,463.47 1012.46,470.27 1015.40,476.52 1018.35,482.77 1021.29,489.02 1024.23,495.00 1027.19,499.34 1030.13,503.67 1033.07,508.02 1036.02,512.36 1038.97,513.81 1041.91,514.79 1044.86,515.76 1047.80,516.75 1050.74,514.54 1053.70,509.96 1056.64,505.37 1059.58,500.78 1062.53,496.36 1065.47,492.34 1068.42,488.32 1071.37,484.31 1074.31,480.29" fill="none" stroke="#555555" stroke-width="3" stroke-dasharray="9 5"/>
<line x1="142" y1="128" x2="178" y2="128" stroke="#555555" stroke-width="4" stroke-dasharray="9 5"/>
<text x="188" y="133" font-family="Arial" font-size="18" fill="black">Uy / v</text>
<polyline points="190.69,397.44 193.64,401.52 196.58,405.60 199.53,409.68 202.47,413.76 205.42,419.56 208.36,426.05 211.31,432.54 214.25,439.03 217.20,444.34 220.14,448.08 223.09,451.83 226.03,455.58 228.98,459.05 231.93,460.86 234.87,462.67 237.82,464.48 240.76,466.29 243.71,466.62 246.65,466.69 249.60,466.76 252.54,466.83 255.49,465.87 258.43,464.12 261.38,462.38 264.32,460.63 267.27,458.36 270.22,454.78 273.16,451.20 276.11,447.61 279.05,444.03 282.00,438.86 284.94,433.69 287.89,428.52 290.83,423.35 293.78,417.35 296.72,411.01 299.67,404.67 302.62,398.34 305.56,391.61 308.51,384.37 311.45,377.12 314.40,369.88 317.34,362.54 320.29,354.61 323.23,346.68 326.17,338.76 329.13,330.83 332.07,322.93 335.01,315.03 337.96,307.13 340.91,299.23 343.85,292.11 346.80,285.57 349.74,279.05 352.68,272.52 355.64,266.80 358.58,263.14 361.52,259.46 364.47,255.80 367.41,252.14 370.35,252.26 373.31,252.38 376.25,252.51 379.19,252.63 382.15,255.32 385.09,259.03 388.03,262.75 390.98,266.46 393.92,271.12 396.86,277.05 399.82,282.98 402.76,288.91 405.70,294.91 408.65,301.38 411.59,307.85 414.54,314.32 417.49,320.79 420.43,327.14 423.37,333.48 426.33,339.81 429.27,346.14 432.21,352.71 435.16,359.45 438.10,366.19 441.04,372.93 444.00,380.00 446.94,387.90 449.88,395.79 452.83,403.69 455.78,411.58 458.72,420.88 461.67,430.17 464.61,439.46 467.55,448.76 470.51,458.77 473.45,469.07 476.39,479.38 479.34,489.68 482.28,500.02 485.23,510.41 488.18,520.79 491.12,531.19 494.06,541.43 497.02,550.82 499.96,560.22 502.90,569.61 505.85,579.02 508.79,586.77 511.73,594.27 514.69,601.76 517.63,609.25 520.57,615.33 523.52,620.34 526.47,625.34 529.41,630.35 532.36,634.59 535.30,636.90 538.24,639.21 541.20,641.52 544.14,643.83 547.08,643.59 550.03,643.34 552.97,643.11 555.92,642.86 558.87,641.09 561.81,638.71 564.75,636.31 567.71,633.93 570.65,630.85 573.59,626.87 576.54,622.90 579.48,618.92 582.42,614.79 585.38,609.81 588.32,604.82 591.26,599.84 594.21,594.85 597.16,589.54 600.10,584.16 603.05,578.79 605.99,573.41 608.93,568.19 611.89,563.09 614.83,557.99 617.77,552.88 620.72,548.04 623.66,543.86 626.60,539.70 629.56,535.53 632.50,531.35 635.44,528.63 638.40,525.90 641.34,523.17 644.28,520.45 647.23,518.87 650.17,517.77 653.11,516.66 656.07,515.55 659.01,515.01 661.95,515.25 664.90,515.50 667.84,515.74 670.79,516.08 673.74,517.07 676.68,518.04 679.62,519.03 682.58,520.00 685.52,520.95 688.46,521.88 691.41,522.83 694.35,523.76 697.29,524.28 700.25,524.50 703.19,524.71 706.13,524.93 709.08,524.85 712.03,524.01 714.97,523.16 717.92,522.32 720.86,521.48 723.80,519.73 726.76,517.96 729.70,516.21 732.64,514.44 735.59,512.39 738.53,510.21 741.48,508.04 744.43,505.86 747.37,503.80 750.31,501.88 753.27,499.96 756.21,498.05 759.15,496.26 762.10,495.27 765.04,494.27 767.98,493.28 770.94,492.28 773.88,492.54 776.82,493.00 779.77,493.46 782.72,493.92 785.66,495.33 788.61,497.45 791.55,499.58 794.49,501.70 797.45,504.24 800.39,507.80 803.33,511.37 806.28,514.93 809.22,518.50 812.17,522.99 815.12,527.48 818.06,531.98 821.00,536.46 823.96,541.17 826.90,545.95 829.84,550.74 832.79,555.52 835.73,560.17 838.67,564.67 841.63,569.16 844.57,573.66 847.51,578.04 850.46,581.79 853.41,585.52 856.35,589.26 859.30,593.00 862.24,595.79 865.18,598.41 868.14,601.03 871.08,603.66 874.02,605.49 876.97,606.75 879.91,608.00 882.85,609.25 885.81,610.09 888.75,609.91 891.69,609.72 894.65,609.54 897.59,609.35 900.53,607.94 903.48,606.51 906.42,605.09 909.36,603.68 912.32,601.66 915.26,599.40 918.20,597.14 921.15,594.88 924.09,592.46 927.04,589.80 929.99,587.15 932.93,584.51 935.87,581.87 938.83,579.30 941.77,576.74 944.71,574.16 947.66,571.60 950.60,569.46 953.54,567.39 956.50,565.32 959.44,563.25 962.38,561.60 965.33,560.25 968.28,558.92 971.22,557.58 974.17,556.45 977.11,555.84 980.05,555.23 983.01,554.62 985.95,554.01 988.89,554.11 991.84,554.20 994.78,554.29 997.73,554.38 1000.68,555.06 1003.62,555.98 1006.56,556.89 1009.52,557.80 1012.46,559.20 1015.40,561.23 1018.35,563.26 1021.29,565.29 1024.23,567.54 1027.19,571.09 1030.13,574.65 1033.07,578.22 1036.02,581.77 1038.97,587.02 1041.91,592.55 1044.86,598.08 1047.80,603.62 1050.74,610.64 1053.70,618.78 1056.64,626.91 1059.58,635.06 1062.53,642.25 1065.47,647.08 1068.42,651.90 1071.37,656.73 1074.31,661.55" fill="none" stroke="#999999" stroke-width="3" stroke-dasharray="3 4"/>
<line x1="142" y1="156" x2="178" y2="156" stroke="#999999" stroke-width="4" stroke-dasharray="3 4"/>
<text x="188" y="161" font-family="Arial" font-size="18" fill="black">Uz / w</text>
</svg>