<svg xmlns="http://www.w3.org/2000/svg" width="1200" height="820" viewBox="0 0 1200 820">
<rect width="100%" height="100%" fill="white"/>
<text x="600.0" y="36" text-anchor="middle" font-family="Arial" font-size="24" fill="black">profile_center_y: alphat</text>
<line x1="120.00" y1="75" x2="120.00" y2="705" stroke="#dddddd" stroke-width="1"/>
<text x="120.00" y="737" text-anchor="middle" font-family="Arial" font-size="16" fill="black">-0.400</text>
<line x1="376.25" y1="75" x2="376.25" y2="705" stroke="#dddddd" stroke-width="1"/>
<text x="376.25" y="737" text-anchor="middle" font-family="Arial" font-size="16" fill="black">1.050</text>
<line x1="632.50" y1="75" x2="632.50" y2="705" stroke="#dddddd" stroke-width="1"/>
<text x="632.50" y="737" text-anchor="middle" font-family="Arial" font-size="16" fill="black">2.500</text>
<line x1="888.75" y1="75" x2="888.75" y2="705" stroke="#dddddd" stroke-width="1"/>
<text x="888.75" y="737" text-anchor="middle" font-family="Arial" font-size="16" fill="black">3.950</text>
<line x1="1145.00" y1="75" x2="1145.00" y2="705" stroke="#dddddd" stroke-width="1"/>
<text x="1145.00" y="737" text-anchor="middle" font-family="Arial" font-size="16" fill="black">5.400</text>
<line x1="120" y1="705.00" x2="1145" y2="705.00" stroke="#dddddd" stroke-width="1"/>
<text x="104" y="710.00" text-anchor="end" font-family="Arial" font-size="16" fill="black">-9.21e-04</text>
<line x1="120" y1="547.50" x2="1145" y2="547.50" stroke="#dddddd" stroke-width="1"/>
<text x="104" y="552.50" text-anchor="end" font-family="Arial" font-size="16" fill="black">0.005</text>
<line x1="120" y1="390.00" x2="1145" y2="390.00" stroke="#dddddd" stroke-width="1"/>
<text x="104" y="395.00" text-anchor="end" font-family="Arial" font-size="16" fill="black">0.010</text>
<line x1="120" y1="232.50" x2="1145" y2="232.50" stroke="#dddddd" stroke-width="1"/>
<text x="104" y="237.50" text-anchor="end" font-family="Arial" font-size="16" fill="black">0.016</text>
<line x1="120" y1="75.00" x2="1145" y2="75.00" stroke="#dddddd" stroke-width="1"/>
<text x="104" y="80.00" text-anchor="end" font-family="Arial" font-size="16" fill="black">0.021</text>
<rect x="120" y="75" width="1025" height="630" fill="none" stroke="black" stroke-width="2"/>
<text x="632.5" y="785" text-anchor="middle" font-family="Arial" font-size="20" fill="black">y coordinate [m]</text>
<text x="34" y="390.0" transform="rotate(-90 34 390.0)" text-anchor="middle" font-family="Arial" font-size="20" fill="black">alphat [SI]</text>
<polyline points="190.69,652.55 193.64,645.01 196.58,637.48 199.53,629.94 202.47,622.41 205.42,614.88 208.36,607.34 211.31,591.40 214.25,575.45 217.20,559.50 220.14,543.55 223.09,527.60 226.03,511.66 228.98,497.60 231.92,483.54 234.87,469.48 237.82,455.42 240.76,441.36 243.71,427.31 246.65,418.28 249.60,409.25 252.54,400.23 255.49,391.21 258.43,382.19 261.38,373.14 264.33,367.91 267.27,362.66 270.22,357.40 273.16,352.15 276.11,346.92 279.05,341.67 282.00,338.89 284.94,336.10 287.89,333.32 290.83,330.54 293.78,327.76 296.72,324.98 299.67,323.80 302.61,322.59 305.56,321.38 308.51,320.17 311.45,318.99 314.40,317.78 317.34,317.64 320.29,317.47 323.23,317.33 326.18,317.17 329.12,317.02 332.07,316.88 335.01,317.28 337.96,317.70 340.91,318.12 343.85,318.51 346.80,318.94 349.74,319.36 352.69,319.67 355.63,319.95 358.58,320.26 361.52,320.57 364.47,320.85 367.41,321.16 370.37,320.62 373.30,320.09 376.25,319.53 379.20,318.99 382.13,318.46 385.09,317.92 388.04,316.21 390.97,314.50 393.92,312.78 396.87,311.07 399.81,309.35 402.76,307.64 405.71,304.77 408.64,301.91 411.59,299.04 414.55,296.18 417.48,293.31 420.43,290.44 423.38,286.68 426.32,282.88 429.27,279.09 432.22,275.33 435.15,271.53 438.10,267.74 441.05,263.66 443.99,259.59 446.94,255.52 449.89,251.41 452.82,247.34 455.78,243.26 458.73,239.58 461.66,235.90 464.61,232.25 467.56,228.57 470.50,224.89 473.45,221.21 476.40,218.40 479.33,215.61 482.28,212.81 485.24,210.00 488.17,207.19 491.12,204.38 494.07,202.63 497.01,200.86 499.96,199.12 502.91,197.35 505.84,195.61 508.79,193.84 511.74,193.02 514.68,192.18 517.63,191.34 520.58,190.49 523.51,189.68 526.47,188.84 529.42,188.42 532.35,188.02 535.30,187.60 538.25,187.18 541.19,186.76 544.14,186.36 547.09,186.03 550.02,185.69 552.97,185.35 555.93,185.02 558.86,184.68 561.81,184.34 564.76,184.06 567.70,183.81 570.65,183.55 573.60,183.27 576.53,183.02 579.48,182.77 582.43,182.43 585.37,182.12 588.32,181.81 591.27,181.50 594.20,181.19 597.16,180.88 600.11,180.24 603.04,179.59 605.99,178.95 608.94,178.30 611.88,177.65 614.83,177.03 617.78,175.63 620.71,174.22 623.66,172.85 626.62,171.44 629.55,170.07 632.50,168.66 635.45,166.39 638.38,164.14 641.34,161.86 644.29,159.61 647.22,157.34 650.17,155.09 653.12,152.53 656.06,150.00 659.01,147.47 661.96,144.95 664.89,142.39 667.84,139.86 670.80,137.81 673.73,135.76 676.68,133.71 679.63,131.68 682.57,129.63 685.52,127.58 688.47,126.40 691.40,125.22 694.35,124.04 697.30,122.86 700.24,121.68 703.19,120.50 706.14,120.16 709.07,119.83 712.03,119.49 714.98,119.15 717.91,118.79 720.86,118.45 723.81,118.56 726.75,118.64 729.70,118.73 732.65,118.84 735.58,118.93 738.53,119.04 741.49,119.35 744.42,119.63 747.37,119.94 750.32,120.25 753.26,120.56 756.21,120.86 759.16,121.54 762.09,122.24 765.04,122.92 767.99,123.62 770.93,124.29 773.88,125.00 776.83,126.34 779.76,127.69 782.72,129.04 785.67,130.39 788.60,131.74 791.55,133.09 794.50,135.39 797.44,137.70 800.39,140.00 803.34,142.28 806.27,144.58 809.22,146.88 812.18,150.20 815.11,153.54 818.06,156.89 821.01,160.20 823.95,163.55 826.90,166.89 829.85,171.05 832.78,175.21 835.73,179.37 838.68,183.53 841.62,187.71 844.57,191.87 847.52,196.40 850.45,200.92 853.41,205.44 856.36,210.00 859.29,214.52 862.24,219.04 865.19,223.57 868.13,228.06 871.08,232.56 874.03,237.08 876.96,241.58 879.91,246.10 882.87,250.49 885.80,254.84 888.75,259.22 891.70,263.61 894.63,267.96 897.59,272.35 900.54,276.70 903.47,281.03 906.42,285.38 909.37,289.71 912.31,294.07 915.26,298.39 918.21,302.81 921.14,307.25 924.09,311.66 927.05,316.07 929.98,320.48 932.93,324.89 935.88,329.42 938.82,333.91 941.77,338.44 944.72,342.93 947.65,347.46 950.60,351.98 953.55,356.64 956.49,361.28 959.44,365.95 962.39,370.61 965.32,375.27 968.28,379.94 971.23,384.91 974.16,389.86 977.11,394.83 980.06,399.78 983.00,404.75 985.95,409.71 988.90,415.34 991.83,420.97 994.78,426.60 997.74,432.23 1000.67,437.86 1003.62,443.50 1006.57,450.59 1009.51,457.68 1012.46,464.77 1015.41,471.86 1018.34,478.95 1021.29,486.04 1024.24,495.93 1027.18,505.81 1030.13,515.70 1033.08,525.58 1036.01,535.47 1038.97,545.35 1041.92,557.95 1044.85,570.56 1047.80,583.17 1050.75,595.77 1053.69,608.37 1056.64,620.98 1059.59,627.74 1062.52,634.50 1065.47,641.27 1068.43,648.03 1071.36,654.79 1074.31,661.55" fill="none" stroke="#000000" stroke-width="3"/>
<line x1="142" y1="100" x2="178" y2="100" stroke="#000000" stroke-width="4"/>
<text x="188" y="105" font-family="Arial" font-size="18" fill="black">alphat</text>
</svg>