<svg xmlns="http://www.w3.org/2000/svg" width="1200" height="820" viewBox="0 0 1200 820">
<rect width="100%" height="100%" fill="white"/>
<text x="600.0" y="36" text-anchor="middle" font-family="Arial" font-size="24" fill="black">profile_near_floor_x: alphat</text>
<line x1="120.00" y1="75" x2="120.00" y2="705" stroke="#dddddd" stroke-width="1"/>
<text x="120.00" y="737" text-anchor="middle" font-family="Arial" font-size="16" fill="black">-0.560</text>
<line x1="376.25" y1="75" x2="376.25" y2="705" stroke="#dddddd" stroke-width="1"/>
<text x="376.25" y="737" text-anchor="middle" font-family="Arial" font-size="16" fill="black">1.470</text>
<line x1="632.50" y1="75" x2="632.50" y2="705" stroke="#dddddd" stroke-width="1"/>
<text x="632.50" y="737" text-anchor="middle" font-family="Arial" font-size="16" fill="black">3.500</text>
<line x1="888.75" y1="75" x2="888.75" y2="705" stroke="#dddddd" stroke-width="1"/>
<text x="888.75" y="737" text-anchor="middle" font-family="Arial" font-size="16" fill="black">5.530</text>
<line x1="1145.00" y1="75" x2="1145.00" y2="705" stroke="#dddddd" stroke-width="1"/>
<text x="1145.00" y="737" text-anchor="middle" font-family="Arial" font-size="16" fill="black">7.560</text>
<line x1="120" y1="705.00" x2="1145" y2="705.00" stroke="#dddddd" stroke-width="1"/>
<text x="104" y="710.00" text-anchor="end" font-family="Arial" font-size="16" fill="black">7.85e-05</text>
<line x1="120" y1="547.50" x2="1145" y2="547.50" stroke="#dddddd" stroke-width="1"/>
<text x="104" y="552.50" text-anchor="end" font-family="Arial" font-size="16" fill="black">0.002</text>
<line x1="120" y1="390.00" x2="1145" y2="390.00" stroke="#dddddd" stroke-width="1"/>
<text x="104" y="395.00" text-anchor="end" font-family="Arial" font-size="16" fill="black">0.003</text>
<line x1="120" y1="232.50" x2="1145" y2="232.50" stroke="#dddddd" stroke-width="1"/>
<text x="104" y="237.50" text-anchor="end" font-family="Arial" font-size="16" fill="black">0.005</text>
<line x1="120" y1="75.00" x2="1145" y2="75.00" stroke="#dddddd" stroke-width="1"/>
<text x="104" y="80.00" text-anchor="end" font-family="Arial" font-size="16" fill="black">0.006</text>
<rect x="120" y="75" width="1025" height="630" fill="none" stroke="black" stroke-width="2"/>
<text x="632.5" y="785" text-anchor="middle" font-family="Arial" font-size="20" fill="black">x coordinate [m]</text>
<text x="34" y="390.0" transform="rotate(-90 34 390.0)" text-anchor="middle" font-family="Arial" font-size="20" fill="black">alphat [SI]</text>
<polyline points="190.69,640.94 193.64,630.85 196.58,620.77 199.53,610.68 202.47,600.60 205.42,583.32 208.36,563.15 211.31,542.99 214.25,522.82 217.20,504.30 220.14,487.96 223.09,471.60 226.03,455.25 228.98,439.79 231.93,429.55 234.87,419.32 237.82,409.09 240.76,398.87 243.71,393.07 246.65,388.04 249.60,382.99 252.54,377.94 255.49,377.52 258.43,380.58 261.38,383.64 264.32,386.69 267.27,392.18 270.22,403.80 273.16,415.41 276.11,427.02 279.05,438.64 282.00,451.92 284.94,465.21 287.89,478.50 290.83,491.79 293.78,505.42 296.72,519.20 299.67,532.98 302.62,546.77 305.56,559.26 308.51,570.03 311.45,580.81 314.40,591.58 317.34,601.23 320.29,604.03 323.23,606.84 326.17,609.65 329.13,612.46 332.07,612.89 335.01,612.93 337.96,612.96 340.91,613.00 343.85,613.04 346.80,613.08 349.74,613.13 352.68,613.17 355.64,613.21 358.58,613.22 361.52,613.23 364.47,613.23 367.41,613.24 370.35,613.23 373.31,613.21 376.25,613.20 379.19,613.18 382.15,613.12 385.09,613.03 388.03,612.94 390.98,612.86 393.92,612.71 396.86,612.47 399.82,612.23 402.76,611.99 405.70,611.09 408.65,606.22 411.59,601.36 414.54,596.49 417.49,591.63 420.43,577.99 423.37,562.88 426.33,547.79 429.27,532.68 432.21,513.56 435.16,491.43 438.10,469.30 441.04,447.16 444.00,424.54 446.94,400.65 449.88,376.77 452.83,352.88 455.78,329.00 458.72,309.72 461.67,290.44 464.61,271.17 467.55,251.89 470.51,239.66 473.45,230.26 476.39,220.85 479.34,211.45 482.28,204.64 485.23,201.29 488.18,197.93 491.12,194.57 494.06,191.16 497.02,187.37 499.96,183.58 502.90,179.79 505.85,176.00 508.79,168.38 511.73,160.13 514.69,151.88 517.63,143.62 520.57,136.87 523.52,131.26 526.47,125.65 529.41,120.03 532.36,118.45 535.30,126.95 538.24,135.46 541.20,143.96 544.14,152.47 547.08,176.11 550.03,199.76 552.97,223.40 555.92,247.04 558.87,278.47 561.81,313.02 564.75,347.56 567.71,382.11 570.65,416.35 573.59,450.18 576.54,484.02 579.48,517.85 582.42,548.98 585.38,563.90 588.32,578.82 591.26,593.73 594.21,608.65 597.16,611.28 600.10,611.86 603.05,612.45 605.99,613.04 608.93,613.29 611.89,613.31 614.83,613.32 617.77,613.33 620.72,613.33 623.66,613.32 626.60,613.31 629.56,613.29 632.50,613.28 635.44,613.26 638.40,613.23 641.34,613.21 644.28,613.19 647.23,613.14 650.17,613.08 653.11,613.02 656.07,612.96 659.01,612.92 661.95,612.91 664.90,612.90 667.84,612.89 670.79,612.67 673.74,611.20 676.68,609.73 679.62,608.25 682.58,606.78 685.52,600.89 688.46,594.24 691.41,587.61 694.35,580.97 697.29,570.67 700.25,557.64 703.19,544.59 706.13,531.56 709.08,516.24 712.03,495.26 714.97,474.28 717.92,453.29 720.86,432.31 723.80,407.90 726.76,383.48 729.70,359.07 732.64,334.66 735.59,315.71 738.53,298.94 741.48,282.16 744.43,265.40 747.37,253.58 750.31,248.34 753.27,243.11 756.21,237.87 759.15,233.89 762.10,237.46 765.04,241.03 767.98,244.59 770.94,248.16 773.88,255.83 776.82,264.19 779.77,272.56 782.72,280.92 785.66,291.05 788.61,302.49 791.55,313.95 794.49,325.39 797.45,337.54 800.39,351.42 803.33,365.30 806.28,379.17 809.22,393.05 812.17,411.66 815.12,430.27 818.06,448.87 821.00,467.47 823.96,487.46 826.90,508.00 829.84,528.53 832.79,549.06 835.73,565.37 838.67,576.04 841.63,586.72 844.57,597.40 847.51,606.73 850.46,608.01 853.41,609.30 856.35,610.58 859.30,611.86 862.24,612.03 865.18,612.01 868.14,611.99 871.08,611.97 874.02,611.98 876.97,612.00 879.91,612.02 882.85,612.05 885.81,612.06 888.75,612.05 891.69,612.04 894.65,612.04 897.59,612.03 900.53,612.01 903.48,612.00 906.42,611.99 909.36,611.98 912.32,611.98 915.26,611.99 918.20,612.00 921.15,612.01 924.09,612.01 927.04,611.99 929.99,611.98 932.93,611.97 935.87,611.14 938.83,605.39 941.77,599.63 944.71,593.88 947.66,588.13 950.60,571.65 953.54,553.39 956.50,535.12 959.44,516.84 962.38,499.94 965.33,484.06 968.28,468.18 971.22,452.28 974.17,439.25 977.11,433.32 980.05,427.40 983.01,421.47 985.95,415.56 988.89,414.98 991.84,414.40 994.78,413.82 997.73,413.24 1000.68,417.56 1003.62,423.85 1006.56,430.14 1009.52,436.42 1012.46,444.11 1015.40,453.67 1018.35,463.22 1021.29,472.78 1024.23,482.52 1027.19,493.34 1030.13,504.17 1033.07,514.99 1036.02,525.82 1038.97,537.16 1041.91,548.59 1044.86,560.01 1047.80,571.43 1050.74,583.68 1053.70,596.55 1056.64,609.43 1059.58,622.30 1062.53,633.50 1065.47,640.51 1068.42,647.53 1071.37,654.54 1074.31,661.55" fill="none" stroke="#000000" stroke-width="3"/>
<line x1="142" y1="100" x2="178" y2="100" stroke="#000000" stroke-width="4"/>
<text x="188" y="105" font-family="Arial" font-size="18" fill="black">alphat</text>
</svg>