<svg xmlns="http://www.w3.org/2000/svg" width="1200" height="820" viewBox="0 0 1200 820">
<rect width="100%" height="100%" fill="white"/>
<text x="600.0" y="36" text-anchor="middle" font-family="Arial" font-size="24" fill="black">profile_center_z: U:0</text>
<line x1="120.00" y1="75" x2="120.00" y2="705" stroke="#dddddd" stroke-width="1"/>
<text x="120.00" y="737" text-anchor="middle" font-family="Arial" font-size="16" fill="black">-0.240</text>
<line x1="376.25" y1="75" x2="376.25" y2="705" stroke="#dddddd" stroke-width="1"/>
<text x="376.25" y="737" text-anchor="middle" font-family="Arial" font-size="16" fill="black">0.630</text>
<line x1="632.50" y1="75" x2="632.50" y2="705" stroke="#dddddd" stroke-width="1"/>
<text x="632.50" y="737" text-anchor="middle" font-family="Arial" font-size="16" fill="black">1.500</text>
<line x1="888.75" y1="75" x2="888.75" y2="705" stroke="#dddddd" stroke-width="1"/>
<text x="888.75" y="737" text-anchor="middle" font-family="Arial" font-size="16" fill="black">2.370</text>
<line x1="1145.00" y1="75" x2="1145.00" y2="705" stroke="#dddddd" stroke-width="1"/>
<text x="1145.00" y="737" text-anchor="middle" font-family="Arial" font-size="16" fill="black">3.240</text>
<line x1="120" y1="705.00" x2="1145" y2="705.00" stroke="#dddddd" stroke-width="1"/>
<text x="104" y="710.00" text-anchor="end" font-family="Arial" font-size="16" fill="black">-0.163</text>
<line x1="120" y1="547.50" x2="1145" y2="547.50" stroke="#dddddd" stroke-width="1"/>
<text x="104" y="552.50" text-anchor="end" font-family="Arial" font-size="16" fill="black">-0.106</text>
<line x1="120" y1="390.00" x2="1145" y2="390.00" stroke="#dddddd" stroke-width="1"/>
<text x="104" y="395.00" text-anchor="end" font-family="Arial" font-size="16" fill="black">-0.050</text>
<line x1="120" y1="232.50" x2="1145" y2="232.50" stroke="#dddddd" stroke-width="1"/>
<text x="104" y="237.50" text-anchor="end" font-family="Arial" font-size="16" fill="black">0.006</text>
<line x1="120" y1="75.00" x2="1145" y2="75.00" stroke="#dddddd" stroke-width="1"/>
<text x="104" y="80.00" text-anchor="end" font-family="Arial" font-size="16" fill="black">0.062</text>
<rect x="120" y="75" width="1025" height="630" fill="none" stroke="black" stroke-width="2"/>
<text x="632.5" y="785" text-anchor="middle" font-family="Arial" font-size="20" fill="black">z coordinate [m]</text>
<text x="34" y="390.0" transform="rotate(-90 34 390.0)" text-anchor="middle" font-family="Arial" font-size="20" fill="black">U:0 [SI]</text>
<polyline points="190.69,227.33 193.64,226.32 196.58,225.32 199.53,224.31 202.47,223.31 205.42,222.31 208.36,221.30 211.31,220.30 214.25,219.29 217.20,218.29 220.14,217.29 223.09,215.41 226.03,213.54 228.98,211.66 231.93,209.78 234.87,207.91 237.82,206.03 240.76,204.16 243.71,202.28 246.65,200.40 249.60,198.53 252.54,196.96 255.49,195.38 258.43,193.81 261.38,192.24 264.32,190.67 267.27,189.09 270.22,187.52 273.16,185.95 276.11,184.38 279.05,182.80 282.00,181.57 284.94,180.34 287.89,179.11 290.83,177.87 293.78,176.64 296.72,175.41 299.67,174.17 302.61,172.94 305.56,171.70 308.51,170.47 311.45,169.55 314.40,168.62 317.34,167.69 320.29,166.76 323.23,165.84 326.18,164.91 329.12,163.99 332.07,163.06 335.01,162.13 337.96,161.20 340.91,160.46 343.85,159.72 346.80,158.97 349.74,158.23 352.69,157.49 355.63,156.74 358.58,156.00 361.52,155.25 364.47,154.51 367.41,153.77 370.36,152.89 373.30,152.00 376.25,151.12 379.20,150.24 382.14,149.35 385.09,148.47 388.03,147.59 390.98,146.70 393.92,145.82 396.87,144.94 399.81,143.35 402.76,141.76 405.70,140.17 408.65,138.58 411.59,136.99 414.54,135.40 417.49,133.81 420.43,132.22 423.38,130.63 426.32,129.04 429.27,127.98 432.21,126.92 435.16,125.86 438.10,124.80 441.05,123.74 443.99,122.69 446.94,121.63 449.89,120.57 452.83,119.51 455.78,118.45 458.72,123.05 461.67,127.65 464.61,132.24 467.56,136.84 470.50,141.44 473.45,146.04 476.39,150.64 479.34,155.23 482.28,159.84 485.23,164.43 488.18,175.49 491.12,186.54 494.07,197.60 497.01,208.65 499.96,219.71 502.90,230.76 505.85,241.82 508.79,252.88 511.74,263.93 514.68,274.99 517.63,286.57 520.57,298.15 523.52,309.73 526.47,321.32 529.41,332.90 532.36,344.48 535.30,356.06 538.25,367.65 541.19,379.23 544.14,390.81 547.08,399.99 550.03,409.16 552.97,418.34 555.92,427.51 558.86,436.69 561.81,445.86 564.76,455.04 567.70,464.21 570.65,473.39 573.59,482.57 576.54,489.68 579.48,496.81 582.43,503.93 585.37,511.05 588.32,518.16 591.26,525.29 594.21,532.40 597.16,539.54 600.10,546.65 603.05,553.76 605.99,558.98 608.94,564.21 611.88,569.41 614.83,574.64 617.77,579.86 620.72,585.09 623.66,590.29 626.61,595.51 629.55,600.74 632.50,605.97 635.45,609.40 638.39,612.83 641.34,616.25 644.28,619.68 647.23,623.11 650.17,626.54 653.12,629.99 656.06,633.42 659.01,636.85 661.95,640.28 664.90,642.08 667.84,643.88 670.79,645.67 673.74,647.47 676.68,649.27 679.63,651.07 682.57,652.87 685.52,654.70 688.46,656.49 691.41,658.29 694.35,658.60 697.30,658.94 700.24,659.28 703.19,659.58 706.14,659.92 709.08,660.23 712.03,660.57 714.97,660.91 717.92,661.21 720.86,661.55 723.81,660.51 726.75,659.47 729.70,658.40 732.64,657.36 735.59,656.32 738.53,655.29 741.48,654.25 744.43,653.18 747.37,652.14 750.32,651.10 753.26,648.79 756.21,646.46 759.15,644.16 762.10,641.85 765.04,639.52 767.99,637.22 770.93,634.91 773.88,632.58 776.82,630.28 779.77,627.97 782.72,624.49 785.66,621.00 788.61,617.52 791.55,614.06 794.50,610.58 797.44,607.09 800.39,603.64 803.33,600.15 806.28,596.67 809.22,593.18 812.17,588.57 815.11,583.97 818.06,579.36 821.01,574.75 823.95,570.11 826.90,565.50 829.84,560.89 832.79,556.29 835.73,551.68 838.68,547.07 841.62,541.36 844.57,535.69 847.51,529.98 850.46,524.29 853.41,518.60 856.35,512.91 859.30,507.22 862.24,501.53 865.19,495.84 868.13,490.15 871.08,483.60 874.02,477.06 876.97,470.51 879.91,463.97 882.86,457.42 885.80,450.87 888.75,444.33 891.70,437.79 894.64,431.24 897.59,424.69 900.53,417.71 903.48,410.73 906.42,403.74 909.37,396.76 912.31,389.78 915.26,382.80 918.20,375.81 921.15,368.83 924.09,361.85 927.04,354.87 929.99,348.10 932.93,341.33 935.88,334.56 938.82,327.79 941.77,321.03 944.71,314.26 947.66,307.49 950.60,300.72 953.55,293.95 956.49,287.19 959.44,281.55 962.39,275.92 965.33,270.29 968.28,264.66 971.22,259.02 974.17,253.39 977.11,247.76 980.06,242.13 983.00,236.50 985.95,230.86 988.89,227.78 991.84,224.69 994.78,221.60 997.73,218.52 1000.68,215.43 1003.62,212.34 1006.57,209.26 1009.51,206.17 1012.46,203.08 1015.40,200.00 1018.35,203.01 1021.29,206.02 1024.24,209.03 1027.18,212.05 1030.13,215.06 1033.07,218.07 1036.02,221.08 1038.97,224.10 1041.91,227.11 1044.86,230.12 1047.80,233.82 1050.75,237.52 1053.69,241.22 1056.64,244.92 1059.58,248.62 1062.53,252.32 1065.47,256.02 1068.42,259.72 1071.36,263.42 1074.31,267.12" fill="none" stroke="#000000" stroke-width="3"/>
<line x1="142" y1="100" x2="178" y2="100" stroke="#000000" stroke-width="4"/>
<text x="188" y="105" font-family="Arial" font-size="18" fill="black">U:0</text>
</svg>