<svg xmlns="http://www.w3.org/2000/svg" width="1200" height="820" viewBox="0 0 1200 820">
<rect width="100%" height="100%" fill="white"/>
<text x="600.0" y="36" text-anchor="middle" font-family="Arial" font-size="24" fill="black">profile_near_ceiling_x: k</text>
<line x1="120.00" y1="75" x2="120.00" y2="705" stroke="#dddddd" stroke-width="1"/>
<text x="120.00" y="737" text-anchor="middle" font-family="Arial" font-size="16" fill="black">-0.560</text>
<line x1="376.25" y1="75" x2="376.25" y2="705" stroke="#dddddd" stroke-width="1"/>
<text x="376.25" y="737" text-anchor="middle" font-family="Arial" font-size="16" fill="black">1.470</text>
<line x1="632.50" y1="75" x2="632.50" y2="705" stroke="#dddddd" stroke-width="1"/>
<text x="632.50" y="737" text-anchor="middle" font-family="Arial" font-size="16" fill="black">3.500</text>
<line x1="888.75" y1="75" x2="888.75" y2="705" stroke="#dddddd" stroke-width="1"/>
<text x="888.75" y="737" text-anchor="middle" font-family="Arial" font-size="16" fill="black">5.530</text>
<line x1="1145.00" y1="75" x2="1145.00" y2="705" stroke="#dddddd" stroke-width="1"/>
<text x="1145.00" y="737" text-anchor="middle" font-family="Arial" font-size="16" fill="black">7.560</text>
<line x1="120" y1="705.00" x2="1145" y2="705.00" stroke="#dddddd" stroke-width="1"/>
<text x="104" y="710.00" text-anchor="end" font-family="Arial" font-size="16" fill="black">0.001</text>
<line x1="120" y1="547.50" x2="1145" y2="547.50" stroke="#dddddd" stroke-width="1"/>
<text x="104" y="552.50" text-anchor="end" font-family="Arial" font-size="16" fill="black">0.007</text>
<line x1="120" y1="390.00" x2="1145" y2="390.00" stroke="#dddddd" stroke-width="1"/>
<text x="104" y="395.00" text-anchor="end" font-family="Arial" font-size="16" fill="black">0.012</text>
<line x1="120" y1="232.50" x2="1145" y2="232.50" stroke="#dddddd" stroke-width="1"/>
<text x="104" y="237.50" text-anchor="end" font-family="Arial" font-size="16" fill="black">0.018</text>
<line x1="120" y1="75.00" x2="1145" y2="75.00" stroke="#dddddd" stroke-width="1"/>
<text x="104" y="80.00" text-anchor="end" font-family="Arial" font-size="16" fill="black">0.023</text>
<rect x="120" y="75" width="1025" height="630" fill="none" stroke="black" stroke-width="2"/>
<text x="632.5" y="785" text-anchor="middle" font-family="Arial" font-size="20" fill="black">x coordinate [m]</text>
<text x="34" y="390.0" transform="rotate(-90 34 390.0)" text-anchor="middle" font-family="Arial" font-size="20" fill="black">k [m2/s2]</text>
<polyline points="190.69,661.55 193.64,656.11 196.58,650.67 199.53,645.22 202.47,639.78 205.42,631.50 208.36,622.08 211.31,612.67 214.25,603.26 217.20,594.65 220.14,587.10 223.09,579.55 226.03,572.01 228.98,564.48 231.93,557.05 234.87,549.62 237.82,542.19 240.76,534.76 243.71,526.63 246.65,518.39 249.60,510.15 252.54,501.91 255.49,492.98 258.43,483.51 261.38,474.05 264.32,464.59 267.27,454.75 270.22,444.00 273.16,433.25 276.11,422.47 279.05,411.72 282.00,400.10 284.94,388.45 287.89,376.83 290.83,365.21 293.78,353.47 296.72,341.67 299.67,329.91 302.62,318.11 305.56,306.52 308.51,295.19 311.45,283.86 314.40,272.52 317.34,261.31 320.29,250.70 323.23,240.13 326.17,229.52 329.13,218.92 332.07,209.30 335.01,199.86 337.96,190.42 340.91,180.97 343.85,172.49 346.80,164.73 349.74,156.97 352.68,149.22 355.64,142.24 358.58,137.25 361.52,132.25 364.47,127.22 367.41,122.23 370.35,121.30 373.31,120.34 376.25,119.41 379.19,118.45 382.15,120.25 385.09,123.10 388.03,125.97 390.98,128.82 393.92,133.03 396.86,138.99 399.82,144.95 402.76,150.90 405.70,157.27 408.65,166.10 411.59,174.93 414.54,183.73 417.49,192.57 420.43,203.37 423.37,214.56 426.33,225.72 429.27,236.87 432.21,248.99 435.16,261.83 438.10,274.65 441.04,287.49 444.00,300.45 446.94,313.67 449.88,326.88 452.83,340.10 455.78,353.32 458.72,365.38 461.67,377.44 464.61,389.53 467.55,401.58 470.51,412.04 473.45,421.89 476.39,431.74 479.34,441.59 482.28,450.34 485.23,457.62 488.18,464.88 491.12,472.15 494.06,479.08 497.02,483.94 499.96,488.79 502.90,493.65 505.85,498.51 508.79,501.69 511.73,504.59 514.69,507.49 517.63,510.39 520.57,512.46 523.52,513.89 526.47,515.32 529.41,516.75 532.36,517.88 535.30,518.27 538.24,518.65 541.20,519.04 544.14,519.43 547.08,519.14 550.03,518.84 552.97,518.55 555.92,518.27 558.87,517.75 561.81,517.14 564.75,516.53 567.71,515.92 570.65,515.31 573.59,514.69 576.54,514.07 579.48,513.44 582.42,512.82 585.38,512.17 588.32,511.52 591.26,510.87 594.21,510.22 597.16,508.44 600.10,506.49 603.05,504.52 605.99,502.56 608.93,498.25 611.89,492.16 614.83,486.08 617.77,480.00 620.72,472.69 623.66,462.32 626.60,451.94 629.56,441.56 632.50,431.19 635.44,420.79 638.40,410.36 641.34,399.96 644.28,389.53 647.23,381.62 650.17,374.74 653.11,367.85 656.07,360.97 659.01,355.82 661.95,353.03 664.90,350.24 667.84,347.46 670.79,345.13 673.74,345.71 676.68,346.26 679.62,346.85 682.58,347.43 685.52,350.04 688.46,353.03 691.41,356.00 694.35,358.96 697.29,362.88 700.25,367.53 703.19,372.15 706.13,376.77 709.08,381.71 712.03,387.41 714.97,393.10 717.92,398.79 720.86,404.49 723.80,410.21 726.76,415.94 729.70,421.63 732.64,427.36 735.59,431.92 738.53,436.04 741.48,440.14 744.43,444.27 747.37,447.00 750.31,447.90 753.27,448.80 756.21,449.70 759.15,450.10 762.10,447.43 765.04,444.79 767.98,442.11 770.94,439.44 773.88,434.82 776.82,429.88 779.77,424.94 782.72,420.00 785.66,414.69 788.61,409.11 791.55,403.53 794.49,397.95 797.45,392.43 800.39,387.03 803.33,381.62 806.28,376.22 809.22,370.79 812.17,365.70 815.12,360.62 818.06,355.53 821.00,350.45 823.96,345.54 826.90,340.71 829.84,335.89 832.79,331.07 835.73,326.33 838.67,321.77 841.63,317.18 844.57,312.59 847.51,308.06 850.46,303.76 853.41,299.46 856.35,295.13 859.30,290.83 862.24,286.82 865.18,282.87 868.14,278.92 871.08,274.96 874.02,271.25 876.97,267.73 879.91,264.19 882.85,260.67 885.81,257.24 888.75,254.16 891.69,251.05 894.65,247.97 897.59,244.86 900.53,242.19 903.48,239.52 906.42,236.82 909.36,234.14 912.32,231.94 915.26,229.90 918.20,227.90 921.15,225.86 924.09,224.29 927.04,223.33 929.99,222.38 932.93,221.42 935.87,220.60 938.83,220.72 941.77,220.87 944.71,221.01 947.66,221.13 950.60,222.20 953.54,223.42 956.50,224.64 959.44,225.86 962.38,227.72 965.33,230.10 968.28,232.46 971.22,234.81 974.17,237.51 977.11,241.03 980.05,244.54 983.01,248.06 985.95,251.55 988.89,256.22 991.84,260.90 994.78,265.58 997.73,270.23 1000.68,275.72 1003.62,281.56 1006.56,287.37 1009.52,293.18 1012.46,299.52 1015.40,306.52 1018.35,313.52 1021.29,320.52 1024.23,327.70 1027.19,336.07 1030.13,344.40 1033.07,352.77 1036.02,361.11 1038.97,371.75 1041.91,382.76 1044.86,393.77 1047.80,404.78 1050.74,419.54 1053.70,437.15 1056.64,454.72 1059.58,472.31 1062.53,488.05 1065.47,499.17 1068.42,510.29 1071.37,521.41 1074.31,532.53" fill="none" stroke="#000000" stroke-width="3"/>
<line x1="142" y1="100" x2="178" y2="100" stroke="#000000" stroke-width="4"/>
<text x="188" y="105" font-family="Arial" font-size="18" fill="black">k</text>
</svg>