<svg xmlns="http://www.w3.org/2000/svg" width="1200" height="820" viewBox="0 0 1200 820">
<rect width="100%" height="100%" fill="white"/>
<text x="600.0" y="36" text-anchor="middle" font-family="Arial" font-size="24" fill="black">profile_diagonal_supply_return: p_rgh</text>
<line x1="120.00" y1="75" x2="120.00" y2="705" stroke="#dddddd" stroke-width="1"/>
<text x="120.00" y="737" text-anchor="middle" font-family="Arial" font-size="16" fill="black">-0.729</text>
<line x1="376.25" y1="75" x2="376.25" y2="705" stroke="#dddddd" stroke-width="1"/>
<text x="376.25" y="737" text-anchor="middle" font-family="Arial" font-size="16" fill="black">1.913</text>
<line x1="632.50" y1="75" x2="632.50" y2="705" stroke="#dddddd" stroke-width="1"/>
<text x="632.50" y="737" text-anchor="middle" font-family="Arial" font-size="16" fill="black">4.555</text>
<line x1="888.75" y1="75" x2="888.75" y2="705" stroke="#dddddd" stroke-width="1"/>
<text x="888.75" y="737" text-anchor="middle" font-family="Arial" font-size="16" fill="black">7.197</text>
<line x1="1145.00" y1="75" x2="1145.00" y2="705" stroke="#dddddd" stroke-width="1"/>
<text x="1145.00" y="737" text-anchor="middle" font-family="Arial" font-size="16" fill="black">9.839</text>
<line x1="120" y1="705.00" x2="1145" y2="705.00" stroke="#dddddd" stroke-width="1"/>
<text x="104" y="710.00" text-anchor="end" font-family="Arial" font-size="16" fill="black">-0.062</text>
<line x1="120" y1="547.50" x2="1145" y2="547.50" stroke="#dddddd" stroke-width="1"/>
<text x="104" y="552.50" text-anchor="end" font-family="Arial" font-size="16" fill="black">0.099</text>
<line x1="120" y1="390.00" x2="1145" y2="390.00" stroke="#dddddd" stroke-width="1"/>
<text x="104" y="395.00" text-anchor="end" font-family="Arial" font-size="16" fill="black">0.260</text>
<line x1="120" y1="232.50" x2="1145" y2="232.50" stroke="#dddddd" stroke-width="1"/>
<text x="104" y="237.50" text-anchor="end" font-family="Arial" font-size="16" fill="black">0.421</text>
<line x1="120" y1="75.00" x2="1145" y2="75.00" stroke="#dddddd" stroke-width="1"/>
<text x="104" y="80.00" text-anchor="end" font-family="Arial" font-size="16" fill="black">0.582</text>
<rect x="120" y="75" width="1025" height="630" fill="none" stroke="black" stroke-width="2"/>
<text x="632.5" y="785" text-anchor="middle" font-family="Arial" font-size="20" fill="black">distance along sample line [m]</text>
<text x="34" y="390.0" transform="rotate(-90 34 390.0)" text-anchor="middle" font-family="Arial" font-size="20" fill="black">p_rgh [Pa]</text>
<polyline points="190.69,118.45 193.64,119.05 196.58,119.69 199.53,120.34 202.47,121.00 205.42,122.11 208.36,123.41 211.31,124.71 214.25,126.03 217.20,127.26 220.14,128.33 223.09,129.74 226.03,131.16 228.98,132.55 231.93,133.53 234.87,134.54 237.82,135.59 240.76,136.68 243.71,137.47 246.65,138.20 249.60,139.02 252.54,140.05 255.49,141.03 258.43,141.99 261.38,143.00 264.32,144.05 267.27,145.13 270.22,146.19 273.16,147.30 276.11,148.45 279.05,149.66 282.00,150.86 284.94,152.09 287.88,153.36 290.83,154.66 293.78,155.99 296.73,157.33 299.67,158.61 302.62,159.91 305.57,161.24 308.50,162.58 311.45,163.98 314.40,165.39 317.34,166.80 320.29,168.19 323.24,169.61 326.18,171.06 329.12,172.54 332.07,173.89 335.01,175.49 337.96,177.11 340.91,178.89 343.85,180.68 346.80,182.47 349.74,184.32 352.68,187.36 355.63,190.49 358.58,193.70 361.53,196.97 364.47,200.30 367.42,203.67 370.36,207.64 373.30,211.74 376.25,215.96 379.20,220.33 382.14,224.86 385.09,229.51 388.04,232.81 390.97,236.19 393.92,239.38 396.87,242.31 399.81,245.55 402.76,248.84 405.71,250.90 408.65,251.17 411.59,251.40 414.54,251.60 417.48,251.72 420.43,251.96 423.38,251.45 426.32,250.93 429.27,250.13 432.21,250.84 435.16,252.72 438.10,254.61 441.05,255.97 444.00,257.66 446.94,260.11 449.89,262.61 452.84,265.14 455.77,267.69 458.72,269.48 461.67,271.36 464.61,273.30 467.56,275.28 470.51,277.36 473.45,279.51 476.39,281.39 479.34,283.35 482.28,285.38 485.23,287.51 488.18,289.12 491.12,290.83 494.07,292.45 497.01,294.21 499.96,296.12 502.90,298.13 505.85,300.28 508.80,302.47 511.74,304.65 514.69,306.96 517.63,308.91 520.57,310.89 523.52,312.92 526.47,315.05 529.41,317.13 532.36,319.21 535.31,321.24 538.24,323.29 541.19,325.36 544.14,327.44 547.08,328.91 550.03,330.26 552.98,331.49 555.92,332.58 558.86,333.76 561.81,334.74 564.76,335.44 567.70,335.87 570.65,336.25 573.60,336.55 576.54,335.92 579.49,334.81 582.43,334.16 585.37,333.82 588.32,333.19 591.27,332.30 594.21,331.14 597.16,330.74 600.11,331.82 603.04,332.90 605.99,333.41 608.94,334.66 611.88,336.54 614.83,338.50 617.78,342.63 620.72,347.25 623.66,352.79 626.61,358.66 629.55,364.86 632.50,371.40 635.45,379.73 638.40,388.43 641.34,397.55 644.28,407.08 647.23,415.97 650.17,424.86 653.12,435.24 656.07,445.98 659.01,455.98 661.96,464.82 664.90,473.68 667.84,482.86 670.79,492.18 673.74,498.80 676.68,505.44 679.63,512.08 682.58,518.75 685.51,522.90 688.46,526.11 691.41,528.86 694.35,530.67 697.30,531.48 700.25,531.52 703.20,531.18 706.14,529.16 709.08,526.90 712.03,524.98 714.97,522.68 717.92,519.98 720.87,516.84 723.81,513.79 726.76,510.53 729.70,507.06 732.64,503.36 735.59,501.47 738.54,500.21 741.48,497.39 744.43,494.48 747.38,492.63 750.31,492.23 753.26,491.61 756.21,490.98 759.15,489.55 762.10,489.99 765.05,490.60 767.99,491.38 770.93,492.33 773.88,494.69 776.83,496.63 779.77,498.82 782.72,501.06 785.67,503.92 788.61,507.31 791.55,510.98 794.50,514.08 797.44,517.40 800.39,521.00 803.34,524.73 806.28,528.59 809.23,532.59 812.17,536.72 815.11,540.85 818.06,544.97 821.01,549.10 823.95,555.40 826.90,562.52 829.85,568.76 832.79,574.82 835.73,583.21 838.68,594.57 841.63,604.68 844.57,614.10 847.52,622.11 850.47,631.14 853.41,639.23 856.35,646.40 859.30,652.62 862.24,656.96 865.19,658.94 868.14,660.28 871.08,661.55 874.03,661.37 876.97,660.10 879.91,658.40 882.86,654.93 885.81,650.63 888.75,644.84 891.70,638.93 894.65,632.89 897.58,626.74 900.53,618.92 903.48,611.09 906.43,603.26 909.37,595.43 912.32,586.10 915.27,576.35 918.20,568.06 921.15,559.83 924.10,550.82 927.04,540.88 929.99,531.01 932.94,521.39 935.88,512.49 938.82,502.57 941.77,492.88 944.71,483.39 947.66,474.10 950.61,464.40 953.55,455.03 956.50,445.81 959.44,437.28 962.38,429.01 965.33,421.03 968.28,413.34 971.22,405.70 974.17,398.48 977.12,392.02 980.06,385.86 983.00,379.99 985.95,374.43 988.90,372.10 991.84,370.24 994.79,368.88 997.74,368.02 1000.68,368.36 1003.62,369.23 1006.57,370.25 1009.51,371.51 1012.46,373.53 1015.41,376.23 1018.35,380.33 1021.30,383.67 1024.24,386.19 1027.18,390.03 1030.13,393.12 1033.08,395.46 1036.02,397.07 1038.97,398.23 1041.92,398.12 1044.86,397.19 1047.80,394.16 1050.75,391.03 1053.70,387.80 1056.64,384.19 1059.59,382.68 1062.54,381.13 1065.47,379.78 1068.42,378.35 1071.37,376.87 1074.31,375.33" fill="none" stroke="#000000" stroke-width="3"/>
<line x1="142" y1="100" x2="178" y2="100" stroke="#000000" stroke-width="4"/>
<text x="188" y="105" font-family="Arial" font-size="18" fill="black">p_rgh</text>
</svg>