<svg xmlns="http://www.w3.org/2000/svg" width="1200" height="820" viewBox="0 0 1200 820">
<rect width="100%" height="100%" fill="white"/>
<text x="600.0" y="36" text-anchor="middle" font-family="Arial" font-size="24" fill="black">profile_diagonal_supply_return: epsilon</text>
<line x1="120.00" y1="75" x2="120.00" y2="705" stroke="#dddddd" stroke-width="1"/>
<text x="120.00" y="737" text-anchor="middle" font-family="Arial" font-size="16" fill="black">-0.729</text>
<line x1="376.25" y1="75" x2="376.25" y2="705" stroke="#dddddd" stroke-width="1"/>
<text x="376.25" y="737" text-anchor="middle" font-family="Arial" font-size="16" fill="black">1.913</text>
<line x1="632.50" y1="75" x2="632.50" y2="705" stroke="#dddddd" stroke-width="1"/>
<text x="632.50" y="737" text-anchor="middle" font-family="Arial" font-size="16" fill="black">4.555</text>
<line x1="888.75" y1="75" x2="888.75" y2="705" stroke="#dddddd" stroke-width="1"/>
<text x="888.75" y="737" text-anchor="middle" font-family="Arial" font-size="16" fill="black">7.197</text>
<line x1="1145.00" y1="75" x2="1145.00" y2="705" stroke="#dddddd" stroke-width="1"/>
<text x="1145.00" y="737" text-anchor="middle" font-family="Arial" font-size="16" fill="black">9.839</text>
<line x1="120" y1="705.00" x2="1145" y2="705.00" stroke="#dddddd" stroke-width="1"/>
<text x="104" y="710.00" text-anchor="end" font-family="Arial" font-size="16" fill="black">-2.82e-04</text>
<line x1="120" y1="547.50" x2="1145" y2="547.50" stroke="#dddddd" stroke-width="1"/>
<text x="104" y="552.50" text-anchor="end" font-family="Arial" font-size="16" fill="black">0.001</text>
<line x1="120" y1="390.00" x2="1145" y2="390.00" stroke="#dddddd" stroke-width="1"/>
<text x="104" y="395.00" text-anchor="end" font-family="Arial" font-size="16" fill="black">0.003</text>
<line x1="120" y1="232.50" x2="1145" y2="232.50" stroke="#dddddd" stroke-width="1"/>
<text x="104" y="237.50" text-anchor="end" font-family="Arial" font-size="16" fill="black">0.005</text>
<line x1="120" y1="75.00" x2="1145" y2="75.00" stroke="#dddddd" stroke-width="1"/>
<text x="104" y="80.00" text-anchor="end" font-family="Arial" font-size="16" fill="black">0.006</text>
<rect x="120" y="75" width="1025" height="630" fill="none" stroke="black" stroke-width="2"/>
<text x="632.5" y="785" text-anchor="middle" font-family="Arial" font-size="20" fill="black">distance along sample line [m]</text>
<text x="34" y="390.0" transform="rotate(-90 34 390.0)" text-anchor="middle" font-family="Arial" font-size="20" fill="black">epsilon [m2/s3]</text>
<polyline points="190.69,661.55 193.64,660.45 196.58,659.30 199.53,658.13 202.47,656.96 205.42,655.36 208.36,653.64 211.31,651.72 214.25,649.92 217.20,648.34 220.14,646.99 223.09,645.83 226.03,644.87 228.98,643.92 231.93,642.91 234.87,642.02 237.82,641.26 240.76,640.67 243.71,639.94 246.65,639.35 249.60,638.89 252.54,637.67 255.49,636.39 258.43,635.06 261.38,633.68 264.32,632.34 267.27,631.03 270.22,629.86 273.16,628.65 276.11,627.40 279.05,626.14 282.00,625.30 284.94,624.38 287.88,623.39 290.83,622.33 293.78,621.51 296.73,620.78 299.67,619.88 302.62,618.97 305.57,618.12 308.50,617.41 311.45,616.76 314.40,616.10 317.34,615.02 320.29,613.87 323.24,612.78 326.18,611.75 329.12,610.80 332.07,609.70 335.01,607.87 337.96,606.20 340.91,604.71 343.85,603.11 346.80,601.46 349.74,599.93 352.68,597.76 355.63,595.68 358.58,593.46 361.53,591.44 364.47,589.63 367.42,588.04 370.36,585.89 373.30,583.90 376.25,582.06 379.20,580.40 382.14,578.43 385.09,576.36 388.04,574.43 390.97,572.54 393.92,570.34 396.87,567.63 399.81,564.45 402.76,561.01 405.71,557.40 408.65,553.20 411.59,548.66 414.54,543.76 417.48,538.48 420.43,533.27 423.38,528.16 426.32,522.72 429.27,515.97 432.21,509.06 435.16,501.98 438.10,494.52 441.05,487.05 444.00,479.13 446.94,470.68 449.89,461.71 452.84,452.19 455.77,442.06 458.72,431.37 461.67,420.13 464.61,408.32 467.56,395.89 470.51,383.25 473.45,370.21 476.39,356.79 479.34,342.68 482.28,328.65 485.23,315.12 488.18,303.68 491.12,292.23 494.07,281.79 497.01,273.97 499.96,266.38 502.90,259.09 505.85,252.15 508.80,248.02 511.74,246.26 514.69,244.89 517.63,246.28 520.57,248.51 523.52,251.24 526.47,253.89 529.41,258.59 532.36,262.78 535.31,266.07 538.24,268.82 541.19,271.00 544.14,272.61 547.08,274.60 550.03,275.67 552.98,275.86 555.92,275.18 558.86,272.96 561.81,269.65 564.76,268.28 567.70,266.42 570.65,264.19 573.60,261.73 576.54,258.21 579.49,254.34 582.43,253.00 585.37,252.72 588.32,252.72 591.27,253.14 594.21,254.15 597.16,257.21 600.11,261.42 603.04,266.44 605.99,271.25 608.94,277.69 611.88,285.51 614.83,294.09 617.78,299.69 620.72,306.16 623.66,314.08 626.61,322.38 629.55,331.10 632.50,340.24 635.45,344.95 638.40,349.54 641.34,354.01 644.28,358.38 647.23,363.12 650.17,367.80 653.12,368.62 656.07,369.32 659.01,369.96 661.96,370.51 664.90,370.08 667.84,369.39 670.79,367.13 673.74,364.82 676.68,362.59 679.63,360.45 682.58,358.43 685.51,356.25 688.46,354.92 691.41,354.03 694.35,353.07 697.30,352.21 700.25,351.51 703.20,351.18 706.14,352.79 709.08,354.69 712.03,356.52 714.97,358.79 717.92,361.50 720.87,364.61 723.81,367.72 726.76,371.29 729.70,375.30 732.64,379.72 735.59,383.68 738.54,387.69 741.48,392.21 744.43,397.20 747.38,402.06 750.31,406.67 753.26,411.34 756.21,416.38 759.15,421.25 762.10,425.52 765.05,430.21 767.99,435.27 770.93,440.69 773.88,445.57 776.83,450.15 779.77,455.04 782.72,459.71 785.67,464.10 788.61,468.35 791.55,472.82 794.50,476.95 797.44,481.02 800.39,484.64 803.34,488.41 806.28,492.31 809.23,496.33 812.17,498.29 815.11,500.34 818.06,502.49 821.01,504.71 823.95,506.20 826.90,507.43 829.85,508.17 832.79,509.03 835.73,509.57 838.68,509.66 841.63,509.32 844.57,509.13 847.52,508.60 850.47,508.00 853.41,507.62 856.35,507.49 859.30,507.60 862.24,508.03 865.19,508.25 868.14,508.72 871.08,508.86 874.03,509.33 876.97,510.04 879.91,510.93 882.86,511.32 885.81,511.93 888.75,512.75 891.70,513.71 894.65,514.81 897.58,516.03 900.53,515.37 903.48,514.77 906.43,514.18 909.37,513.62 912.32,513.07 915.27,512.49 918.20,510.61 921.15,508.60 924.10,506.51 927.04,504.30 929.99,500.10 932.94,495.65 935.88,489.58 938.82,483.25 941.77,476.45 944.71,469.15 947.66,461.29 950.61,453.27 953.55,443.68 956.50,433.44 959.44,417.14 962.38,399.86 965.33,381.53 968.28,361.66 971.22,341.04 974.17,319.89 977.12,299.95 980.06,279.68 983.00,259.18 985.95,238.56 988.90,211.49 991.84,185.32 994.79,160.54 997.74,137.68 1000.68,124.44 1003.62,118.45 1006.57,120.37 1009.51,127.74 1012.46,141.54 1015.41,162.21 1018.35,178.71 1021.30,199.73 1024.24,226.54 1027.18,241.28 1030.13,260.60 1033.08,283.94 1036.02,310.74 1038.97,326.77 1041.92,343.14 1044.86,362.60 1047.80,385.84 1050.75,406.72 1053.70,426.35 1056.64,446.66 1059.59,461.60 1062.54,474.98 1065.47,484.47 1068.42,493.76 1071.37,502.61 1074.31,510.83" fill="none" stroke="#000000" stroke-width="3"/>
<line x1="142" y1="100" x2="178" y2="100" stroke="#000000" stroke-width="4"/>
<text x="188" y="105" font-family="Arial" font-size="18" fill="black">epsilon</text>
</svg>