<svg xmlns="http://www.w3.org/2000/svg" width="1200" height="820" viewBox="0 0 1200 820">
<rect width="100%" height="100%" fill="white"/>
<text x="600.0" y="36" text-anchor="middle" font-family="Arial" font-size="24" fill="black">profile_center_x: vorticity:0</text>
<line x1="120.00" y1="75" x2="120.00" y2="705" stroke="#dddddd" stroke-width="1"/>
<text x="120.00" y="737" text-anchor="middle" font-family="Arial" font-size="16" fill="black">-0.560</text>
<line x1="376.25" y1="75" x2="376.25" y2="705" stroke="#dddddd" stroke-width="1"/>
<text x="376.25" y="737" text-anchor="middle" font-family="Arial" font-size="16" fill="black">1.470</text>
<line x1="632.50" y1="75" x2="632.50" y2="705" stroke="#dddddd" stroke-width="1"/>
<text x="632.50" y="737" text-anchor="middle" font-family="Arial" font-size="16" fill="black">3.500</text>
<line x1="888.75" y1="75" x2="888.75" y2="705" stroke="#dddddd" stroke-width="1"/>
<text x="888.75" y="737" text-anchor="middle" font-family="Arial" font-size="16" fill="black">5.530</text>
<line x1="1145.00" y1="75" x2="1145.00" y2="705" stroke="#dddddd" stroke-width="1"/>
<text x="1145.00" y="737" text-anchor="middle" font-family="Arial" font-size="16" fill="black">7.560</text>
<line x1="120" y1="705.00" x2="1145" y2="705.00" stroke="#dddddd" stroke-width="1"/>
<text x="104" y="710.00" text-anchor="end" font-family="Arial" font-size="16" fill="black">-0.526</text>
<line x1="120" y1="547.50" x2="1145" y2="547.50" stroke="#dddddd" stroke-width="1"/>
<text x="104" y="552.50" text-anchor="end" font-family="Arial" font-size="16" fill="black">-0.211</text>
<line x1="120" y1="390.00" x2="1145" y2="390.00" stroke="#dddddd" stroke-width="1"/>
<text x="104" y="395.00" text-anchor="end" font-family="Arial" font-size="16" fill="black">0.104</text>
<line x1="120" y1="232.50" x2="1145" y2="232.50" stroke="#dddddd" stroke-width="1"/>
<text x="104" y="237.50" text-anchor="end" font-family="Arial" font-size="16" fill="black">0.419</text>
<line x1="120" y1="75.00" x2="1145" y2="75.00" stroke="#dddddd" stroke-width="1"/>
<text x="104" y="80.00" text-anchor="end" font-family="Arial" font-size="16" fill="black">0.734</text>
<rect x="120" y="75" width="1025" height="630" fill="none" stroke="black" stroke-width="2"/>
<text x="632.5" y="785" text-anchor="middle" font-family="Arial" font-size="20" fill="black">x coordinate [m]</text>
<text x="34" y="390.0" transform="rotate(-90 34 390.0)" text-anchor="middle" font-family="Arial" font-size="20" fill="black">vorticity:0 [SI]</text>
<polyline points="190.69,118.45 193.64,123.04 196.58,127.63 199.53,132.22 202.47,136.81 205.42,144.54 208.36,153.53 211.31,162.52 214.25,171.51 217.20,179.97 220.14,187.70 223.09,195.44 226.03,203.17 228.98,210.67 231.93,216.77 234.87,222.87 237.82,228.97 240.76,235.06 243.71,240.44 246.65,245.69 249.60,250.94 252.54,256.19 255.49,261.13 258.43,265.86 261.38,270.58 264.32,275.29 267.27,279.93 270.22,284.35 273.16,288.78 276.11,293.20 279.05,297.62 282.00,302.57 284.94,307.52 287.89,312.46 290.83,317.41 293.78,324.08 296.72,331.44 299.67,338.80 302.62,346.16 305.56,355.71 308.51,368.17 311.45,380.63 314.40,393.09 317.34,406.38 320.29,424.69 323.23,443.01 326.17,461.32 329.13,479.64 332.07,499.65 335.01,519.95 337.96,540.25 340.91,560.55 343.85,578.19 346.80,593.82 349.74,609.45 352.68,625.09 355.64,637.94 358.58,643.85 361.52,649.75 364.47,655.65 367.41,661.55 370.35,657.04 373.31,652.53 376.25,648.03 379.19,643.52 382.15,634.29 385.09,623.18 388.03,612.06 390.98,600.95 393.92,589.20 396.86,576.61 399.82,564.02 402.76,551.43 405.70,538.94 408.65,527.02 411.59,515.10 414.54,503.19 417.49,491.27 420.43,479.27 423.37,467.25 426.33,455.23 429.27,443.21 432.21,430.93 435.16,418.47 438.10,406.00 441.04,393.53 444.00,381.32 446.94,369.76 449.88,358.20 452.83,346.63 455.78,335.08 458.72,326.13 461.67,317.18 464.61,308.24 467.55,299.29 470.51,293.00 473.45,287.76 476.39,282.52 479.34,277.29 482.28,273.78 485.23,272.59 488.18,271.40 491.12,270.20 494.06,269.48 497.02,271.62 499.96,273.76 502.90,275.89 505.85,278.04 508.79,281.93 511.73,286.12 514.69,290.31 517.63,294.50 520.57,299.10 523.52,304.01 526.47,308.91 529.41,313.82 532.36,318.62 535.30,323.16 538.24,327.70 541.20,332.23 544.14,336.77 547.08,340.30 550.03,343.82 552.97,347.35 555.92,350.88 558.87,353.57 561.81,355.93 564.75,358.29 567.71,360.65 570.65,362.56 573.59,363.87 576.54,365.18 579.48,366.49 582.42,367.66 585.38,368.03 588.32,368.41 591.26,368.78 594.21,369.16 597.16,368.80 600.10,368.31 603.05,367.83 605.99,367.35 608.93,366.31 611.89,364.85 614.83,363.40 617.77,361.94 620.72,360.14 623.66,357.51 626.60,354.88 629.56,352.25 632.50,349.62 635.44,345.88 638.40,342.14 641.34,338.40 644.28,334.67 647.23,330.47 650.17,326.09 653.11,321.71 656.07,317.33 659.01,313.00 661.95,308.72 664.90,304.44 667.84,300.17 670.79,296.02 673.74,292.63 676.68,289.23 679.62,285.83 682.58,282.44 685.52,280.30 688.46,278.38 691.41,276.44 694.35,274.51 697.29,273.51 700.25,273.19 703.19,272.87 706.13,272.55 709.08,272.59 712.03,273.53 714.97,274.48 717.92,275.42 720.86,276.37 723.80,278.06 726.76,279.75 729.70,281.43 732.64,283.12 735.59,285.09 738.53,287.18 741.48,289.26 744.43,291.35 747.37,293.56 750.31,295.93 753.27,298.30 756.21,300.67 759.15,303.09 762.10,305.80 765.04,308.52 767.98,311.23 770.94,313.94 773.88,317.10 776.82,320.33 779.77,323.57 782.72,326.80 785.66,330.43 788.61,334.37 791.55,338.30 794.49,342.23 797.45,346.35 800.39,350.97 803.33,355.58 806.28,360.20 809.22,364.82 812.17,370.10 815.12,375.39 818.06,380.68 821.00,385.97 823.96,391.80 826.90,397.84 829.84,403.89 832.79,409.93 835.73,416.25 838.67,422.92 841.63,429.59 844.57,436.27 847.51,442.92 850.46,449.43 853.41,455.93 856.35,462.44 859.30,468.95 862.24,474.35 865.18,479.57 868.14,484.78 871.08,490.00 874.02,493.95 876.97,496.96 879.91,499.97 882.85,502.98 885.81,505.22 888.75,505.52 891.69,505.82 894.65,506.12 897.59,506.42 900.53,504.08 903.48,501.73 906.42,499.38 909.36,497.04 912.32,493.15 915.26,488.64 918.20,484.14 921.15,479.64 924.09,474.51 927.04,468.55 929.99,462.60 932.93,456.64 935.87,450.57 938.83,443.82 941.77,437.07 944.71,430.32 947.66,423.57 950.60,416.65 953.54,409.71 956.50,402.77 959.44,395.83 962.38,389.13 965.33,382.60 968.28,376.08 971.22,369.56 974.17,363.37 977.11,358.01 980.05,352.65 983.01,347.29 985.95,341.93 988.89,338.48 991.84,335.03 994.78,331.57 997.73,328.12 1000.68,326.47 1003.62,325.54 1006.56,324.61 1009.52,323.68 1012.46,324.11 1015.40,326.34 1018.35,328.58 1021.29,330.81 1024.23,333.58 1027.19,339.57 1030.13,345.55 1033.07,351.54 1036.02,357.53 1038.97,367.02 1041.91,377.10 1044.86,387.17 1047.80,397.24 1050.74,409.79 1053.70,424.19 1056.64,438.59 1059.58,452.99 1062.53,465.65 1065.47,473.97 1068.42,482.29 1071.37,490.61 1074.31,498.93" fill="none" stroke="#000000" stroke-width="3"/>
<line x1="142" y1="100" x2="178" y2="100" stroke="#000000" stroke-width="4"/>
<text x="188" y="105" font-family="Arial" font-size="18" fill="black">vorticity:0</text>
</svg>