<svg xmlns="http://www.w3.org/2000/svg" width="1200" height="820" viewBox="0 0 1200 820">
<rect width="100%" height="100%" fill="white"/>
<text x="600.0" y="36" text-anchor="middle" font-family="Arial" font-size="24" fill="black">profile_rack_height_x: p_rgh</text>
<line x1="120.00" y1="75" x2="120.00" y2="705" stroke="#dddddd" stroke-width="1"/>
<text x="120.00" y="737" text-anchor="middle" font-family="Arial" font-size="16" fill="black">-0.560</text>
<line x1="376.25" y1="75" x2="376.25" y2="705" stroke="#dddddd" stroke-width="1"/>
<text x="376.25" y="737" text-anchor="middle" font-family="Arial" font-size="16" fill="black">1.470</text>
<line x1="632.50" y1="75" x2="632.50" y2="705" stroke="#dddddd" stroke-width="1"/>
<text x="632.50" y="737" text-anchor="middle" font-family="Arial" font-size="16" fill="black">3.500</text>
<line x1="888.75" y1="75" x2="888.75" y2="705" stroke="#dddddd" stroke-width="1"/>
<text x="888.75" y="737" text-anchor="middle" font-family="Arial" font-size="16" fill="black">5.530</text>
<line x1="1145.00" y1="75" x2="1145.00" y2="705" stroke="#dddddd" stroke-width="1"/>
<text x="1145.00" y="737" text-anchor="middle" font-family="Arial" font-size="16" fill="black">7.560</text>
<line x1="120" y1="705.00" x2="1145" y2="705.00" stroke="#dddddd" stroke-width="1"/>
<text x="104" y="710.00" text-anchor="end" font-family="Arial" font-size="16" fill="black">0.242</text>
<line x1="120" y1="547.50" x2="1145" y2="547.50" stroke="#dddddd" stroke-width="1"/>
<text x="104" y="552.50" text-anchor="end" font-family="Arial" font-size="16" fill="black">0.300</text>
<line x1="120" y1="390.00" x2="1145" y2="390.00" stroke="#dddddd" stroke-width="1"/>
<text x="104" y="395.00" text-anchor="end" font-family="Arial" font-size="16" fill="black">0.357</text>
<line x1="120" y1="232.50" x2="1145" y2="232.50" stroke="#dddddd" stroke-width="1"/>
<text x="104" y="237.50" text-anchor="end" font-family="Arial" font-size="16" fill="black">0.415</text>
<line x1="120" y1="75.00" x2="1145" y2="75.00" stroke="#dddddd" stroke-width="1"/>
<text x="104" y="80.00" text-anchor="end" font-family="Arial" font-size="16" fill="black">0.472</text>
<rect x="120" y="75" width="1025" height="630" fill="none" stroke="black" stroke-width="2"/>
<text x="632.5" y="785" text-anchor="middle" font-family="Arial" font-size="20" fill="black">x coordinate [m]</text>
<text x="34" y="390.0" transform="rotate(-90 34 390.0)" text-anchor="middle" font-family="Arial" font-size="20" fill="black">p_rgh [Pa]</text>
<polyline points="190.69,384.97 193.64,382.84 196.58,380.71 199.53,378.57 202.47,376.47 205.42,373.90 208.36,371.20 211.31,368.46 214.25,365.76 217.20,363.71 220.14,362.53 223.09,361.36 226.03,360.18 228.98,359.00 231.93,357.72 234.87,356.41 237.82,355.12 240.76,353.84 243.71,352.39 246.65,350.97 249.60,349.52 252.54,348.07 255.49,346.65 258.43,345.26 261.38,343.83 264.32,342.44 267.27,341.10 270.22,339.84 273.16,338.61 276.11,337.36 279.05,336.13 282.00,335.25 284.94,334.38 287.89,333.50 290.83,332.66 293.78,332.63 296.72,332.93 299.67,333.23 302.62,333.56 305.56,335.09 308.51,338.29 311.45,341.48 314.40,344.68 317.34,348.48 320.29,355.92 323.23,363.32 326.17,370.76 329.13,378.19 332.07,388.06 335.01,398.34 337.96,408.64 340.91,418.92 343.85,428.43 346.80,437.34 349.74,446.28 352.68,455.19 355.64,462.49 358.58,465.66 361.52,468.83 364.47,472.00 367.41,475.17 370.35,470.99 373.31,466.81 376.25,462.62 379.19,458.44 382.15,450.65 385.09,441.44 388.03,432.23 390.98,422.99 393.92,414.03 396.86,405.33 399.82,396.67 402.76,388.00 405.70,380.35 408.65,378.88 411.59,377.40 414.54,375.92 417.49,374.45 420.43,381.91 423.37,390.85 426.33,399.81 429.27,408.75 432.21,421.57 435.16,437.29 438.10,453.00 441.04,468.72 444.00,484.22 446.94,499.17 449.88,514.12 452.83,529.07 455.78,544.05 458.72,553.40 461.67,562.77 464.61,572.15 467.55,581.49 470.51,586.99 473.45,590.92 476.39,594.83 479.34,598.77 482.28,601.42 485.23,602.40 488.18,603.36 491.12,604.32 494.06,605.14 497.02,605.08 499.96,605.03 502.90,604.97 505.85,604.92 508.79,604.45 511.73,603.91 514.69,603.36 517.63,602.84 520.57,601.80 523.52,600.41 526.47,599.01 529.41,597.62 532.36,595.87 535.30,593.27 538.24,590.65 541.20,588.05 544.14,585.46 547.08,581.69 550.03,577.94 552.97,574.17 555.92,570.42 558.87,566.21 561.81,561.84 564.75,557.44 567.71,553.07 570.65,548.89 573.59,544.95 576.54,541.01 579.48,537.08 582.42,533.44 585.38,531.67 588.32,529.89 591.26,528.11 594.21,526.31 597.16,527.89 600.10,530.05 603.05,532.19 605.99,534.34 608.93,539.02 611.89,545.63 614.83,552.22 617.77,558.81 620.72,566.24 623.66,575.67 626.60,585.13 629.56,594.59 632.50,604.02 635.44,612.93 638.40,621.81 641.34,630.69 644.28,639.58 647.23,645.48 650.17,650.18 653.11,654.88 656.07,659.58 659.01,661.55 661.95,659.91 664.90,658.24 667.84,656.60 670.79,654.04 673.74,645.89 676.68,637.77 679.62,629.65 682.58,621.54 685.52,609.56 688.46,596.96 691.41,584.36 694.35,571.76 697.29,558.70 700.25,545.31 703.19,531.91 706.13,518.52 709.08,505.92 712.03,495.34 714.97,484.74 717.92,474.16 720.86,463.55 723.80,457.07 726.76,450.57 729.70,444.06 732.64,437.59 735.59,433.30 738.53,429.93 741.48,426.54 744.43,423.18 747.37,420.45 750.31,418.62 753.27,416.76 756.21,414.93 759.15,413.12 762.10,411.46 765.04,409.82 767.98,408.18 770.94,406.54 773.88,404.10 776.82,401.59 779.77,399.05 782.72,396.51 785.66,392.95 788.61,388.66 791.55,384.37 794.49,380.08 797.45,375.24 800.39,368.98 803.33,362.75 806.28,356.52 809.22,350.26 812.17,342.52 815.12,334.79 818.06,327.05 821.00,319.32 823.96,310.73 826.90,301.85 829.84,292.94 832.79,284.06 835.73,274.68 838.67,264.62 841.63,254.57 844.57,244.51 847.51,234.37 850.46,223.54 853.41,212.72 856.35,201.92 859.30,191.10 862.24,181.12 865.18,171.28 868.14,161.47 871.08,151.63 874.02,143.92 876.97,137.77 879.91,131.65 882.85,125.53 885.81,120.96 888.75,120.33 891.69,119.71 894.65,119.08 897.59,118.45 900.53,123.07 903.48,127.71 906.42,132.33 909.36,136.98 912.32,144.61 915.26,153.46 918.20,162.29 921.15,171.15 924.09,181.61 927.04,194.21 929.99,206.84 932.93,219.44 935.87,232.43 938.83,247.62 941.77,262.82 944.71,278.02 947.66,293.21 950.60,306.69 953.54,319.86 956.50,333.04 959.44,346.21 962.38,355.72 965.33,362.50 968.28,369.28 971.22,376.06 974.17,381.09 977.11,381.80 980.05,382.51 983.01,383.22 985.95,383.93 988.89,381.12 991.84,378.33 994.78,375.51 997.73,372.73 1000.68,368.90 1003.62,364.66 1006.56,360.45 1009.52,356.22 1012.46,351.93 1015.40,347.61 1018.35,343.26 1021.29,338.91 1024.23,334.71 1027.19,331.26 1030.13,327.85 1033.07,324.40 1036.02,320.96 1038.97,319.43 1041.91,318.20 1044.86,316.97 1047.80,315.74 1050.74,316.88 1053.70,319.78 1056.64,322.71 1059.58,325.60 1062.53,328.47 1065.47,331.23 1068.42,334.00 1071.37,336.76 1074.31,339.52" fill="none" stroke="#000000" stroke-width="3"/>
<line x1="142" y1="100" x2="178" y2="100" stroke="#000000" stroke-width="4"/>
<text x="188" y="105" font-family="Arial" font-size="18" fill="black">p_rgh</text>
</svg>