<svg xmlns="http://www.w3.org/2000/svg" width="1200" height="820" viewBox="0 0 1200 820">
<rect width="100%" height="100%" fill="white"/>
<text x="600.0" y="36" text-anchor="middle" font-family="Arial" font-size="24" fill="black">profile_near_floor_x: T</text>
<line x1="120.00" y1="75" x2="120.00" y2="705" stroke="#dddddd" stroke-width="1"/>
<text x="120.00" y="737" text-anchor="middle" font-family="Arial" font-size="16" fill="black">-0.560</text>
<line x1="376.25" y1="75" x2="376.25" y2="705" stroke="#dddddd" stroke-width="1"/>
<text x="376.25" y="737" text-anchor="middle" font-family="Arial" font-size="16" fill="black">1.470</text>
<line x1="632.50" y1="75" x2="632.50" y2="705" stroke="#dddddd" stroke-width="1"/>
<text x="632.50" y="737" text-anchor="middle" font-family="Arial" font-size="16" fill="black">3.500</text>
<line x1="888.75" y1="75" x2="888.75" y2="705" stroke="#dddddd" stroke-width="1"/>
<text x="888.75" y="737" text-anchor="middle" font-family="Arial" font-size="16" fill="black">5.530</text>
<line x1="1145.00" y1="75" x2="1145.00" y2="705" stroke="#dddddd" stroke-width="1"/>
<text x="1145.00" y="737" text-anchor="middle" font-family="Arial" font-size="16" fill="black">7.560</text>
<line x1="120" y1="705.00" x2="1145" y2="705.00" stroke="#dddddd" stroke-width="1"/>
<text x="104" y="710.00" text-anchor="end" font-family="Arial" font-size="16" fill="black">289.7</text>
<line x1="120" y1="547.50" x2="1145" y2="547.50" stroke="#dddddd" stroke-width="1"/>
<text x="104" y="552.50" text-anchor="end" font-family="Arial" font-size="16" fill="black">294.3</text>
<line x1="120" y1="390.00" x2="1145" y2="390.00" stroke="#dddddd" stroke-width="1"/>
<text x="104" y="395.00" text-anchor="end" font-family="Arial" font-size="16" fill="black">298.8</text>
<line x1="120" y1="232.50" x2="1145" y2="232.50" stroke="#dddddd" stroke-width="1"/>
<text x="104" y="237.50" text-anchor="end" font-family="Arial" font-size="16" fill="black">303.4</text>
<line x1="120" y1="75.00" x2="1145" y2="75.00" stroke="#dddddd" stroke-width="1"/>
<text x="104" y="80.00" text-anchor="end" font-family="Arial" font-size="16" fill="black">307.9</text>
<rect x="120" y="75" width="1025" height="630" fill="none" stroke="black" stroke-width="2"/>
<text x="632.5" y="785" text-anchor="middle" font-family="Arial" font-size="20" fill="black">x coordinate [m]</text>
<text x="34" y="390.0" transform="rotate(-90 34 390.0)" text-anchor="middle" font-family="Arial" font-size="20" fill="black">T [K]</text>
<polyline points="190.69,170.09 193.64,169.74 196.58,169.05 199.53,168.70 202.47,168.36 205.42,167.32 208.36,166.62 211.31,165.58 214.25,164.54 217.20,164.20 220.14,164.54 223.09,164.54 226.03,164.89 228.98,165.93 231.93,169.74 234.87,173.90 237.82,177.71 240.76,181.87 243.71,191.23 246.65,201.63 249.60,212.03 252.54,222.08 255.49,236.98 258.43,255.00 261.38,273.03 264.32,291.05 267.27,310.11 270.22,332.64 273.16,354.82 276.11,377.35 279.05,399.88 282.00,415.47 284.94,431.42 287.89,447.01 290.83,462.96 293.78,476.13 296.72,487.91 299.67,500.04 302.62,512.17 305.56,527.42 308.51,547.87 311.45,567.97 314.40,588.08 317.34,607.14 320.29,619.96 323.23,632.78 326.17,645.61 329.13,658.43 332.07,660.51 335.01,660.86 337.96,661.21 340.91,661.55 343.85,661.55 346.80,661.55 349.74,661.55 352.68,661.55 355.64,661.55 358.58,661.55 361.52,661.55 364.47,661.55 367.41,661.55 370.35,661.55 373.31,661.55 376.25,661.55 379.19,661.55 382.15,661.55 385.09,661.55 388.03,661.55 390.98,661.55 393.92,661.21 396.86,660.86 399.82,660.51 402.76,660.17 405.70,657.05 408.65,639.72 411.59,622.39 414.54,605.06 417.49,587.73 420.43,560.35 423.37,531.23 426.33,502.12 429.27,473.01 432.21,449.79 435.16,431.42 438.10,412.70 441.04,393.99 444.00,376.66 446.94,362.79 449.88,348.58 452.83,334.72 455.78,320.86 458.72,308.03 461.67,295.21 464.61,282.73 467.55,269.91 470.51,260.20 473.45,251.88 476.39,243.57 479.34,235.25 482.28,228.32 485.23,223.46 488.18,218.61 491.12,213.41 494.06,208.91 497.02,205.79 499.96,202.67 502.90,199.55 505.85,196.43 508.79,194.00 511.73,191.58 514.69,189.15 517.63,187.07 520.57,186.03 523.52,186.38 526.47,187.07 529.41,187.42 532.36,189.15 535.30,194.35 538.24,199.55 541.20,204.75 544.14,210.29 547.08,219.31 550.03,228.66 552.97,238.02 555.92,247.03 558.87,263.32 561.81,282.38 564.75,301.10 567.71,320.16 570.65,349.97 573.59,394.33 576.54,438.70 579.48,483.06 582.42,525.69 585.38,557.23 588.32,589.11 591.26,621.00 594.21,652.54 597.16,658.09 600.10,659.13 603.05,660.17 605.99,661.21 608.93,661.55 611.89,661.55 614.83,661.55 617.77,661.55 620.72,661.55 623.66,661.55 626.60,661.55 629.56,661.55 632.50,661.55 635.44,661.55 638.40,661.55 641.34,661.55 644.28,661.55 647.23,661.55 650.17,661.55 653.11,661.55 656.07,661.55 659.01,661.21 661.95,661.21 664.90,660.86 667.84,660.51 670.79,657.74 673.74,642.14 676.68,626.55 679.62,610.95 682.58,595.35 685.52,571.79 688.46,546.83 691.41,521.53 694.35,496.58 697.29,480.29 700.25,470.93 703.19,461.57 706.13,452.21 709.08,445.97 712.03,447.36 714.97,448.40 717.92,449.79 720.86,451.17 723.80,449.44 726.76,447.71 729.70,445.97 732.64,444.24 735.59,439.74 738.53,434.19 741.48,428.99 744.43,423.45 747.37,418.25 750.31,413.74 753.27,408.89 756.21,404.04 759.15,399.53 762.10,396.41 765.04,393.29 767.98,390.17 770.94,387.05 773.88,385.32 776.82,383.24 779.77,381.51 782.72,379.78 785.66,378.39 788.61,377.70 791.55,377.00 794.49,375.96 797.45,375.96 800.39,377.00 803.33,378.04 806.28,379.08 809.22,380.47 812.17,387.05 815.12,393.64 818.06,400.22 821.00,406.46 823.96,422.06 826.90,441.12 829.84,460.18 832.79,479.25 835.73,501.43 838.67,528.12 841.63,554.80 844.57,581.49 847.51,606.10 850.46,619.27 853.41,632.44 856.35,645.26 859.30,658.43 862.24,660.51 865.18,660.86 868.14,661.21 871.08,661.55 874.02,661.55 876.97,661.55 879.91,661.55 882.85,661.55 885.81,661.55 888.75,661.55 891.69,661.55 894.65,661.55 897.59,661.55 900.53,661.55 903.48,661.55 906.42,661.55 909.36,661.55 912.32,661.55 915.26,661.55 918.20,661.55 921.15,661.55 924.09,661.21 927.04,660.51 929.99,659.82 932.93,659.13 935.87,654.62 938.83,627.59 941.77,600.21 944.71,573.17 947.66,545.79 950.60,515.64 953.54,484.79 956.50,453.95 959.44,423.10 962.38,405.42 965.33,397.45 968.28,389.48 971.22,381.86 974.17,371.80 977.11,357.25 980.05,342.34 983.01,327.44 985.95,312.88 988.89,291.05 991.84,269.21 994.78,247.38 997.73,225.89 1000.68,208.91 1003.62,194.35 1006.56,179.45 1009.52,164.54 1012.46,153.80 1015.40,148.25 1018.35,142.71 1021.29,137.16 1024.23,131.97 1027.19,129.89 1030.13,127.81 1033.07,125.73 1036.02,123.65 1038.97,122.61 1041.91,121.57 1044.86,120.87 1047.80,119.83 1050.74,119.49 1053.70,119.14 1056.64,118.79 1059.58,118.45 1062.53,118.45 1065.47,118.45 1068.42,118.45 1071.37,118.45 1074.31,118.45" fill="none" stroke="#000000" stroke-width="3"/>
<line x1="142" y1="100" x2="178" y2="100" stroke="#000000" stroke-width="4"/>
<text x="188" y="105" font-family="Arial" font-size="18" fill="black">T</text>
</svg>