<svg xmlns="http://www.w3.org/2000/svg" width="1200" height="820" viewBox="0 0 1200 820">
<rect width="100%" height="100%" fill="white"/>
<text x="600.0" y="36" text-anchor="middle" font-family="Arial" font-size="24" fill="black">profile_center_z: rho</text>
<line x1="120.00" y1="75" x2="120.00" y2="705" stroke="#dddddd" stroke-width="1"/>
<text x="120.00" y="737" text-anchor="middle" font-family="Arial" font-size="16" fill="black">-0.240</text>
<line x1="376.25" y1="75" x2="376.25" y2="705" stroke="#dddddd" stroke-width="1"/>
<text x="376.25" y="737" text-anchor="middle" font-family="Arial" font-size="16" fill="black">0.630</text>
<line x1="632.50" y1="75" x2="632.50" y2="705" stroke="#dddddd" stroke-width="1"/>
<text x="632.50" y="737" text-anchor="middle" font-family="Arial" font-size="16" fill="black">1.500</text>
<line x1="888.75" y1="75" x2="888.75" y2="705" stroke="#dddddd" stroke-width="1"/>
<text x="888.75" y="737" text-anchor="middle" font-family="Arial" font-size="16" fill="black">2.370</text>
<line x1="1145.00" y1="75" x2="1145.00" y2="705" stroke="#dddddd" stroke-width="1"/>
<text x="1145.00" y="737" text-anchor="middle" font-family="Arial" font-size="16" fill="black">3.240</text>
<line x1="120" y1="705.00" x2="1145" y2="705.00" stroke="#dddddd" stroke-width="1"/>
<text x="104" y="710.00" text-anchor="end" font-family="Arial" font-size="16" fill="black">1.157</text>
<line x1="120" y1="547.50" x2="1145" y2="547.50" stroke="#dddddd" stroke-width="1"/>
<text x="104" y="552.50" text-anchor="end" font-family="Arial" font-size="16" fill="black">1.177</text>
<line x1="120" y1="390.00" x2="1145" y2="390.00" stroke="#dddddd" stroke-width="1"/>
<text x="104" y="395.00" text-anchor="end" font-family="Arial" font-size="16" fill="black">1.197</text>
<line x1="120" y1="232.50" x2="1145" y2="232.50" stroke="#dddddd" stroke-width="1"/>
<text x="104" y="237.50" text-anchor="end" font-family="Arial" font-size="16" fill="black">1.218</text>
<line x1="120" y1="75.00" x2="1145" y2="75.00" stroke="#dddddd" stroke-width="1"/>
<text x="104" y="80.00" text-anchor="end" font-family="Arial" font-size="16" fill="black">1.238</text>
<rect x="120" y="75" width="1025" height="630" fill="none" stroke="black" stroke-width="2"/>
<text x="632.5" y="785" text-anchor="middle" font-family="Arial" font-size="20" fill="black">z coordinate [m]</text>
<text x="34" y="390.0" transform="rotate(-90 34 390.0)" text-anchor="middle" font-family="Arial" font-size="20" fill="black">rho [kg/m3]</text>
<polyline points="190.69,118.45 193.64,118.45 196.58,118.45 199.53,118.45 202.47,118.45 205.42,118.45 208.36,118.45 211.31,118.45 214.25,118.45 217.20,118.45 220.14,118.45 223.09,118.45 226.03,118.45 228.98,118.45 231.93,118.45 234.87,118.45 237.82,118.45 240.76,118.45 243.71,118.45 246.65,118.45 249.60,118.45 252.54,118.45 255.49,118.45 258.43,118.45 261.38,118.45 264.32,118.45 267.27,118.45 270.22,118.45 273.16,118.45 276.11,118.45 279.05,118.45 282.00,118.45 284.94,118.45 287.89,118.45 290.83,118.45 293.78,118.45 296.72,118.45 299.67,118.45 302.61,118.45 305.56,118.45 308.51,118.45 311.45,118.45 314.40,118.45 317.34,118.45 320.29,118.45 323.23,118.45 326.18,118.45 329.12,118.45 332.07,118.45 335.01,118.45 337.96,118.45 340.91,119.23 343.85,120.00 346.80,120.78 349.74,121.56 352.69,121.56 355.63,122.33 358.58,123.11 361.52,123.89 364.47,123.89 367.41,124.66 370.36,129.33 373.30,134.76 376.25,139.43 379.20,144.09 382.14,148.75 385.09,153.41 388.03,158.07 390.98,163.51 393.92,168.17 396.87,172.84 399.81,183.71 402.76,193.81 405.70,204.69 408.65,215.57 411.59,225.67 414.54,236.55 417.49,247.43 420.43,257.53 423.38,268.40 426.32,279.28 429.27,290.16 432.21,301.81 435.16,313.47 438.10,324.35 441.05,336.00 443.99,347.66 446.94,358.53 449.89,370.19 452.83,381.84 455.78,392.72 458.72,401.27 461.67,409.81 464.61,418.36 467.56,426.91 470.50,435.45 473.45,443.22 476.39,451.77 479.34,460.32 482.28,468.86 485.23,477.41 488.18,482.85 491.12,488.29 494.07,493.73 497.01,499.16 499.96,504.60 502.90,509.27 505.85,514.70 508.79,520.14 511.74,525.58 514.68,531.02 517.63,534.91 520.57,538.01 523.52,541.12 526.47,544.23 529.41,548.11 532.36,551.22 535.30,554.33 538.25,557.44 541.19,561.32 544.14,564.43 547.08,566.76 550.03,568.32 552.97,570.65 555.92,572.98 558.86,575.31 561.81,577.64 564.76,579.19 567.70,581.52 570.65,583.85 573.59,586.19 576.54,587.74 579.48,588.52 582.43,590.07 585.37,591.62 588.32,593.18 591.26,594.73 594.21,596.29 597.16,597.84 600.10,599.39 603.05,600.95 605.99,601.72 608.94,603.28 611.88,604.06 614.83,605.61 617.77,606.39 620.72,607.94 623.66,608.72 626.61,609.49 629.55,611.05 632.50,611.83 635.45,612.60 638.39,614.16 641.34,614.93 644.28,615.71 647.23,616.49 650.17,617.26 653.12,618.04 656.06,618.82 659.01,620.37 661.95,621.15 664.90,621.93 667.84,622.70 670.79,623.48 673.74,624.26 676.68,625.03 679.63,625.81 682.57,625.81 685.52,626.59 688.46,627.36 691.41,628.14 694.35,628.92 697.30,629.70 700.24,630.47 703.19,631.25 706.14,631.25 709.08,632.03 712.03,632.80 714.97,633.58 717.92,634.36 720.86,635.13 723.81,635.13 726.75,635.91 729.70,636.69 732.64,636.69 735.59,637.47 738.53,638.24 741.48,638.24 744.43,639.02 747.37,639.80 750.32,639.80 753.26,640.57 756.21,640.57 759.15,641.35 762.10,642.13 765.04,642.13 767.99,642.90 770.93,642.90 773.88,643.68 776.82,643.68 779.77,644.46 782.72,644.46 785.66,645.24 788.61,645.24 791.55,645.24 794.50,646.01 797.44,646.01 800.39,646.79 803.33,646.79 806.28,647.57 809.22,647.57 812.17,647.57 815.11,648.34 818.06,648.34 821.01,648.34 823.95,649.12 826.90,649.12 829.84,649.12 832.79,649.12 835.73,649.90 838.68,649.90 841.62,649.90 844.57,650.67 847.51,650.67 850.46,650.67 853.41,650.67 856.35,651.45 859.30,651.45 862.24,651.45 865.19,651.45 868.13,652.23 871.08,652.23 874.02,652.23 876.97,652.23 879.91,652.23 882.86,653.01 885.80,653.01 888.75,653.01 891.70,653.01 894.64,653.01 897.59,653.78 900.53,653.78 903.48,653.78 906.42,653.78 909.37,653.78 912.31,654.56 915.26,654.56 918.20,654.56 921.15,654.56 924.09,654.56 927.04,655.34 929.99,655.34 932.93,655.34 935.88,655.34 938.82,655.34 941.77,656.11 944.71,656.11 947.66,656.11 950.60,656.11 953.55,656.11 956.49,656.89 959.44,656.89 962.39,656.89 965.33,656.89 968.28,656.89 971.22,656.89 974.17,657.67 977.11,657.67 980.06,657.67 983.00,657.67 985.95,657.67 988.89,658.44 991.84,658.44 994.78,658.44 997.73,658.44 1000.68,658.44 1003.62,658.44 1006.57,658.44 1009.51,659.22 1012.46,659.22 1015.40,659.22 1018.35,659.22 1021.29,659.22 1024.24,659.22 1027.18,660.00 1030.13,660.00 1033.07,660.00 1036.02,660.00 1038.97,660.00 1041.91,660.77 1044.86,660.77 1047.80,660.77 1050.75,660.77 1053.69,660.77 1056.64,660.77 1059.58,660.77 1062.53,661.55 1065.47,661.55 1068.42,661.55 1071.36,661.55 1074.31,661.55" fill="none" stroke="#000000" stroke-width="3"/>
<line x1="142" y1="100" x2="178" y2="100" stroke="#000000" stroke-width="4"/>
<text x="188" y="105" font-family="Arial" font-size="18" fill="black">rho</text>
</svg>