<svg xmlns="http://www.w3.org/2000/svg" width="1200" height="820" viewBox="0 0 1200 820">
<rect width="100%" height="100%" fill="white"/>
<text x="600.0" y="36" text-anchor="middle" font-family="Arial" font-size="24" fill="black">profile_diagonal_supply_return: Q</text>
<line x1="120.00" y1="75" x2="120.00" y2="705" stroke="#dddddd" stroke-width="1"/>
<text x="120.00" y="737" text-anchor="middle" font-family="Arial" font-size="16" fill="black">-0.729</text>
<line x1="376.25" y1="75" x2="376.25" y2="705" stroke="#dddddd" stroke-width="1"/>
<text x="376.25" y="737" text-anchor="middle" font-family="Arial" font-size="16" fill="black">1.913</text>
<line x1="632.50" y1="75" x2="632.50" y2="705" stroke="#dddddd" stroke-width="1"/>
<text x="632.50" y="737" text-anchor="middle" font-family="Arial" font-size="16" fill="black">4.555</text>
<line x1="888.75" y1="75" x2="888.75" y2="705" stroke="#dddddd" stroke-width="1"/>
<text x="888.75" y="737" text-anchor="middle" font-family="Arial" font-size="16" fill="black">7.197</text>
<line x1="1145.00" y1="75" x2="1145.00" y2="705" stroke="#dddddd" stroke-width="1"/>
<text x="1145.00" y="737" text-anchor="middle" font-family="Arial" font-size="16" fill="black">9.839</text>
<line x1="120" y1="705.00" x2="1145" y2="705.00" stroke="#dddddd" stroke-width="1"/>
<text x="104" y="710.00" text-anchor="end" font-family="Arial" font-size="16" fill="black">-1.017</text>
<line x1="120" y1="547.50" x2="1145" y2="547.50" stroke="#dddddd" stroke-width="1"/>
<text x="104" y="552.50" text-anchor="end" font-family="Arial" font-size="16" fill="black">-0.693</text>
<line x1="120" y1="390.00" x2="1145" y2="390.00" stroke="#dddddd" stroke-width="1"/>
<text x="104" y="395.00" text-anchor="end" font-family="Arial" font-size="16" fill="black">-0.370</text>
<line x1="120" y1="232.50" x2="1145" y2="232.50" stroke="#dddddd" stroke-width="1"/>
<text x="104" y="237.50" text-anchor="end" font-family="Arial" font-size="16" fill="black">-0.046</text>
<line x1="120" y1="75.00" x2="1145" y2="75.00" stroke="#dddddd" stroke-width="1"/>
<text x="104" y="80.00" text-anchor="end" font-family="Arial" font-size="16" fill="black">0.278</text>
<rect x="120" y="75" width="1025" height="630" fill="none" stroke="black" stroke-width="2"/>
<text x="632.5" y="785" text-anchor="middle" font-family="Arial" font-size="20" fill="black">distance along sample line [m]</text>
<text x="34" y="390.0" transform="rotate(-90 34 390.0)" text-anchor="middle" font-family="Arial" font-size="20" fill="black">Q [SI]</text>
<polyline points="190.69,302.99 193.64,305.31 196.58,306.38 199.53,306.23 202.47,304.83 205.42,297.67 208.36,287.78 211.31,277.25 214.25,265.96 217.20,255.72 220.14,247.89 223.09,239.08 226.03,230.32 228.98,222.53 231.93,220.15 234.87,217.65 237.82,215.01 240.76,212.21 243.71,213.12 246.65,214.61 249.60,215.86 252.54,216.44 255.49,217.60 258.43,219.23 261.38,220.89 264.32,223.06 267.27,224.80 270.22,225.58 273.16,226.42 276.11,227.33 279.05,228.29 282.00,227.85 284.94,227.54 287.88,227.37 290.83,227.33 293.78,226.56 296.73,225.54 299.67,224.90 302.62,224.28 305.57,223.47 308.50,222.36 311.45,221.14 314.40,219.96 317.34,219.18 320.29,218.37 323.24,217.47 326.18,216.46 329.12,215.33 332.07,214.46 335.01,214.09 337.96,213.42 340.91,212.43 343.85,211.67 346.80,211.09 349.74,210.35 352.68,210.11 355.63,209.73 358.58,209.56 361.53,209.16 364.47,208.51 367.42,207.63 370.36,207.44 373.30,207.03 376.25,206.41 379.20,205.59 382.14,204.77 385.09,203.88 388.04,203.06 390.97,202.17 393.92,201.41 396.87,200.92 399.81,200.62 402.76,200.39 405.71,200.30 408.65,200.83 411.59,201.46 414.54,202.20 417.48,203.05 420.43,203.55 423.38,203.81 426.32,204.08 429.27,204.66 432.21,204.71 435.16,204.28 438.10,203.74 441.05,203.08 444.00,202.42 446.94,201.78 449.89,201.17 452.84,200.59 455.77,200.02 458.72,201.03 461.67,202.32 464.61,203.89 467.56,205.75 470.51,208.34 473.45,211.41 476.39,215.21 479.34,219.44 482.28,224.04 485.23,228.92 488.18,234.26 491.12,239.75 494.07,245.30 497.01,249.73 499.96,254.03 502.90,258.18 505.85,262.17 508.80,264.04 511.74,264.72 514.69,265.05 517.63,264.41 520.57,262.37 523.52,259.08 526.47,255.35 529.41,250.73 532.36,245.77 535.31,240.13 538.24,234.27 541.19,228.24 544.14,222.06 547.08,216.22 550.03,210.48 552.98,204.90 555.92,199.51 558.86,195.10 561.81,191.03 564.76,187.31 567.70,183.93 570.65,181.42 573.60,179.79 576.54,179.07 579.49,178.67 582.43,179.04 585.37,180.76 588.32,182.87 591.27,185.32 594.21,188.09 597.16,192.06 600.11,194.79 603.04,197.46 605.99,200.81 608.94,204.65 611.88,208.65 614.83,212.26 617.78,212.92 620.72,213.32 623.66,213.66 626.61,213.34 629.55,212.35 632.50,210.67 635.45,207.34 638.40,203.45 641.34,199.01 644.28,194.00 647.23,188.58 650.17,182.78 653.12,177.16 656.07,171.24 659.01,165.24 661.96,159.36 664.90,153.46 667.84,147.39 670.79,143.04 673.74,139.45 676.68,135.83 679.63,132.15 682.58,128.38 685.51,125.56 688.46,124.98 691.41,124.38 694.35,124.18 697.30,124.57 700.25,125.44 703.20,126.34 706.14,129.00 709.08,131.82 712.03,135.19 714.97,138.52 717.92,141.79 720.87,144.97 723.81,149.82 726.76,154.49 729.70,158.97 732.64,163.25 735.59,167.52 738.54,171.74 741.48,175.98 744.43,180.04 747.38,183.90 750.31,187.64 753.26,191.33 756.21,194.89 759.15,197.97 762.10,200.74 765.05,203.40 767.99,205.93 770.93,208.34 773.88,210.41 776.83,211.79 779.77,213.03 782.72,214.25 785.67,215.21 788.61,215.98 791.55,216.70 794.50,216.78 797.44,216.69 800.39,216.37 803.34,215.97 806.28,215.49 809.23,214.95 812.17,214.16 815.11,213.30 818.06,212.37 821.01,211.38 823.95,210.37 826.90,209.33 829.85,208.15 832.79,206.85 835.73,205.39 838.68,203.74 841.63,202.20 844.57,200.52 847.52,198.64 850.47,196.20 853.41,193.48 856.35,190.48 859.30,187.21 862.24,183.47 865.19,179.76 868.14,175.77 871.08,171.88 874.03,167.91 876.97,163.88 879.91,159.68 882.86,156.86 885.81,154.08 888.75,151.50 891.70,148.83 894.65,146.06 897.58,143.17 900.53,143.67 903.48,144.22 906.43,144.81 909.37,145.44 912.32,146.47 915.27,147.67 918.20,150.21 921.15,152.82 924.10,155.74 927.04,158.99 929.99,163.26 932.94,167.61 935.88,172.61 938.82,178.12 941.77,183.86 944.71,189.86 947.66,196.18 950.61,203.00 953.55,210.43 956.50,218.46 959.44,230.66 962.38,244.36 965.33,259.66 968.28,276.71 971.22,294.15 974.17,312.88 977.12,331.63 980.06,351.60 983.00,372.78 985.95,395.18 988.90,420.75 991.84,444.43 994.79,465.72 997.74,484.14 1000.68,482.03 1003.62,466.68 1006.57,438.41 1009.51,404.02 1012.46,364.01 1015.41,319.26 1018.35,249.77 1021.30,176.16 1024.24,118.45 1027.18,122.02 1030.13,139.91 1033.08,170.83 1036.02,213.53 1038.97,249.38 1041.92,307.40 1044.86,363.41 1047.80,413.36 1050.75,468.49 1053.70,525.34 1056.64,576.48 1059.59,606.69 1062.54,629.88 1065.47,645.60 1068.42,655.90 1071.37,661.11 1074.31,661.55" fill="none" stroke="#000000" stroke-width="3"/>
<line x1="142" y1="100" x2="178" y2="100" stroke="#000000" stroke-width="4"/>
<text x="188" y="105" font-family="Arial" font-size="18" fill="black">Q</text>
</svg>