<svg xmlns="http://www.w3.org/2000/svg" width="1200" height="820" viewBox="0 0 1200 820">
<rect width="100%" height="100%" fill="white"/>
<text x="600.0" y="36" text-anchor="middle" font-family="Arial" font-size="24" fill="black">profile_near_floor_x: U:2</text>
<line x1="120.00" y1="75" x2="120.00" y2="705" stroke="#dddddd" stroke-width="1"/>
<text x="120.00" y="737" text-anchor="middle" font-family="Arial" font-size="16" fill="black">-0.560</text>
<line x1="376.25" y1="75" x2="376.25" y2="705" stroke="#dddddd" stroke-width="1"/>
<text x="376.25" y="737" text-anchor="middle" font-family="Arial" font-size="16" fill="black">1.470</text>
<line x1="632.50" y1="75" x2="632.50" y2="705" stroke="#dddddd" stroke-width="1"/>
<text x="632.50" y="737" text-anchor="middle" font-family="Arial" font-size="16" fill="black">3.500</text>
<line x1="888.75" y1="75" x2="888.75" y2="705" stroke="#dddddd" stroke-width="1"/>
<text x="888.75" y="737" text-anchor="middle" font-family="Arial" font-size="16" fill="black">5.530</text>
<line x1="1145.00" y1="75" x2="1145.00" y2="705" stroke="#dddddd" stroke-width="1"/>
<text x="1145.00" y="737" text-anchor="middle" font-family="Arial" font-size="16" fill="black">7.560</text>
<line x1="120" y1="705.00" x2="1145" y2="705.00" stroke="#dddddd" stroke-width="1"/>
<text x="104" y="710.00" text-anchor="end" font-family="Arial" font-size="16" fill="black">-0.233</text>
<line x1="120" y1="547.50" x2="1145" y2="547.50" stroke="#dddddd" stroke-width="1"/>
<text x="104" y="552.50" text-anchor="end" font-family="Arial" font-size="16" fill="black">0.021</text>
<line x1="120" y1="390.00" x2="1145" y2="390.00" stroke="#dddddd" stroke-width="1"/>
<text x="104" y="395.00" text-anchor="end" font-family="Arial" font-size="16" fill="black">0.276</text>
<line x1="120" y1="232.50" x2="1145" y2="232.50" stroke="#dddddd" stroke-width="1"/>
<text x="104" y="237.50" text-anchor="end" font-family="Arial" font-size="16" fill="black">0.530</text>
<line x1="120" y1="75.00" x2="1145" y2="75.00" stroke="#dddddd" stroke-width="1"/>
<text x="104" y="80.00" text-anchor="end" font-family="Arial" font-size="16" fill="black">0.785</text>
<rect x="120" y="75" width="1025" height="630" fill="none" stroke="black" stroke-width="2"/>
<text x="632.5" y="785" text-anchor="middle" font-family="Arial" font-size="20" fill="black">x coordinate [m]</text>
<text x="34" y="390.0" transform="rotate(-90 34 390.0)" text-anchor="middle" font-family="Arial" font-size="20" fill="black">U:2 [SI]</text>
<polyline points="190.69,505.25 193.64,508.38 196.58,511.50 199.53,514.63 202.47,517.75 205.42,522.94 208.36,528.96 211.31,534.98 214.25,541.00 217.20,546.94 220.14,552.77 223.09,558.61 226.03,564.44 228.98,570.29 231.93,576.26 234.87,582.24 237.82,588.21 240.76,594.18 243.71,600.19 246.65,606.20 249.60,612.21 252.54,618.22 255.49,623.55 258.43,628.38 261.38,633.20 264.32,638.03 267.27,641.33 270.22,640.84 273.16,640.33 276.11,639.83 279.05,639.33 282.00,628.11 284.94,616.88 287.89,605.65 290.83,594.42 293.78,572.19 296.72,545.57 299.67,518.94 302.62,492.32 305.56,456.10 308.51,407.08 311.45,358.07 314.40,309.05 317.34,262.39 320.29,229.86 323.23,197.33 326.17,164.80 329.13,132.27 332.07,126.42 335.01,125.01 337.96,123.61 340.91,122.20 343.85,121.48 346.80,121.27 349.74,121.06 352.68,120.85 355.64,120.70 358.58,120.69 361.52,120.68 364.47,120.66 367.41,120.65 370.35,120.91 373.31,121.17 376.25,121.43 379.19,121.69 382.15,122.22 385.09,122.85 388.03,123.48 390.98,124.11 393.92,125.48 396.86,127.80 399.82,130.13 402.76,132.46 405.70,139.27 408.65,172.96 411.59,206.65 414.54,240.34 417.49,274.03 420.43,321.77 423.37,371.87 426.33,421.96 429.27,472.06 432.21,508.19 435.16,533.86 438.10,559.54 441.04,585.21 444.00,605.75 446.94,613.48 449.88,621.21 452.83,628.93 455.78,636.66 458.72,634.51 461.67,632.37 464.61,630.23 467.55,628.08 470.51,623.50 473.45,617.95 476.39,612.40 479.34,606.84 482.28,601.31 485.23,595.80 488.18,590.29 491.12,584.78 494.06,579.61 497.02,576.43 499.96,573.25 502.90,570.08 505.85,566.90 508.79,568.09 511.73,570.00 514.69,571.92 517.63,573.83 520.57,578.25 523.52,584.54 526.47,590.83 529.41,597.13 532.36,603.11 535.30,608.31 538.24,613.51 541.20,618.71 544.14,623.91 547.08,622.54 550.03,621.19 552.97,619.83 555.92,618.47 558.87,605.39 561.81,587.62 564.75,569.85 567.71,552.08 570.65,518.18 573.59,462.77 576.54,407.35 579.48,351.93 582.42,298.42 585.38,256.41 588.32,214.40 591.26,172.38 594.21,130.36 597.16,123.17 600.10,121.78 603.05,120.38 605.99,118.99 608.93,118.45 611.89,118.55 614.83,118.65 617.77,118.75 620.72,118.85 623.66,118.97 626.60,119.09 629.56,119.20 632.50,119.31 635.44,119.61 638.40,119.89 641.34,120.18 644.28,120.46 647.23,120.92 650.17,121.42 653.11,121.94 656.07,122.45 659.01,123.57 661.95,125.51 664.90,127.44 667.84,129.38 670.79,135.58 673.74,167.34 676.68,199.10 679.62,230.86 682.58,262.62 685.52,307.16 688.46,353.83 691.41,400.51 694.35,447.18 697.29,480.28 700.25,503.20 703.19,526.12 706.13,549.04 709.08,568.09 712.03,577.45 714.97,586.81 717.92,596.17 720.86,605.53 723.80,608.76 726.76,611.99 729.70,615.22 732.64,618.45 735.59,618.62 738.53,617.57 741.48,616.52 744.43,615.47 747.37,613.56 750.31,610.50 753.27,607.43 756.21,604.36 759.15,601.24 762.10,597.78 765.04,594.33 767.98,590.87 770.94,587.41 773.88,584.16 776.82,580.94 779.77,577.72 782.72,574.50 785.66,571.62 788.61,568.99 791.55,566.36 794.49,563.74 797.45,561.39 800.39,559.77 803.33,558.15 806.28,556.53 809.22,554.90 812.17,551.56 815.12,548.21 818.06,544.86 821.00,541.51 823.96,527.09 826.90,508.24 829.84,489.39 832.79,470.54 835.73,440.60 838.67,395.87 841.63,351.14 844.57,306.42 847.51,263.76 850.46,233.51 853.41,203.26 856.35,173.01 859.30,142.77 862.24,136.96 865.18,135.23 868.14,133.50 871.08,131.77 874.02,130.88 876.97,130.61 879.91,130.34 882.85,130.08 885.81,129.87 888.75,129.80 891.69,129.72 894.65,129.65 897.59,129.57 900.53,129.47 903.48,129.35 906.42,129.25 909.36,129.14 912.32,128.67 915.26,128.05 918.20,127.43 921.15,126.81 924.09,126.21 927.04,125.63 929.99,125.05 932.93,124.47 935.87,129.49 938.83,168.06 941.77,206.64 944.71,245.23 947.66,283.80 950.60,336.06 953.54,390.60 956.50,445.14 959.44,499.68 962.38,536.17 965.33,559.12 968.28,582.08 971.22,605.03 974.17,624.10 977.11,633.46 980.05,642.83 983.01,652.19 985.95,661.55 988.89,661.55 991.84,661.55 994.78,661.55 997.73,661.55 1000.68,657.99 1003.62,653.02 1006.56,648.05 1009.52,643.07 1012.46,638.49 1015.40,634.42 1018.35,630.35 1021.29,626.28 1024.23,622.48 1027.19,620.33 1030.13,618.19 1033.07,616.04 1036.02,613.89 1038.97,612.37 1041.91,610.96 1044.86,609.55 1047.80,608.13 1050.74,605.80 1053.70,602.77 1056.64,599.73 1059.58,596.70 1062.53,593.87 1065.47,591.53 1068.42,589.19 1071.37,586.85 1074.31,584.50" fill="none" stroke="#000000" stroke-width="3"/>
<line x1="142" y1="100" x2="178" y2="100" stroke="#000000" stroke-width="4"/>
<text x="188" y="105" font-family="Arial" font-size="18" fill="black">U:2</text>
</svg>