<svg xmlns="http://www.w3.org/2000/svg" width="1200" height="820" viewBox="0 0 1200 820">
<rect width="100%" height="100%" fill="white"/>
<text x="600.0" y="36" text-anchor="middle" font-family="Arial" font-size="24" fill="black">profile_near_ceiling_x: p</text>
<line x1="120.00" y1="75" x2="120.00" y2="705" stroke="#dddddd" stroke-width="1"/>
<text x="120.00" y="737" text-anchor="middle" font-family="Arial" font-size="16" fill="black">-0.560</text>
<line x1="376.25" y1="75" x2="376.25" y2="705" stroke="#dddddd" stroke-width="1"/>
<text x="376.25" y="737" text-anchor="middle" font-family="Arial" font-size="16" fill="black">1.470</text>
<line x1="632.50" y1="75" x2="632.50" y2="705" stroke="#dddddd" stroke-width="1"/>
<text x="632.50" y="737" text-anchor="middle" font-family="Arial" font-size="16" fill="black">3.500</text>
<line x1="888.75" y1="75" x2="888.75" y2="705" stroke="#dddddd" stroke-width="1"/>
<text x="888.75" y="737" text-anchor="middle" font-family="Arial" font-size="16" fill="black">5.530</text>
<line x1="1145.00" y1="75" x2="1145.00" y2="705" stroke="#dddddd" stroke-width="1"/>
<text x="1145.00" y="737" text-anchor="middle" font-family="Arial" font-size="16" fill="black">7.560</text>
<line x1="120" y1="705.00" x2="1145" y2="705.00" stroke="#dddddd" stroke-width="1"/>
<text x="104" y="710.00" text-anchor="end" font-family="Arial" font-size="16" fill="black">-32.37</text>
<line x1="120" y1="547.50" x2="1145" y2="547.50" stroke="#dddddd" stroke-width="1"/>
<text x="104" y="552.50" text-anchor="end" font-family="Arial" font-size="16" fill="black">-32.35</text>
<line x1="120" y1="390.00" x2="1145" y2="390.00" stroke="#dddddd" stroke-width="1"/>
<text x="104" y="395.00" text-anchor="end" font-family="Arial" font-size="16" fill="black">-32.34</text>
<line x1="120" y1="232.50" x2="1145" y2="232.50" stroke="#dddddd" stroke-width="1"/>
<text x="104" y="237.50" text-anchor="end" font-family="Arial" font-size="16" fill="black">-32.32</text>
<line x1="120" y1="75.00" x2="1145" y2="75.00" stroke="#dddddd" stroke-width="1"/>
<text x="104" y="80.00" text-anchor="end" font-family="Arial" font-size="16" fill="black">-32.30</text>
<rect x="120" y="75" width="1025" height="630" fill="none" stroke="black" stroke-width="2"/>
<text x="632.5" y="785" text-anchor="middle" font-family="Arial" font-size="20" fill="black">x coordinate [m]</text>
<text x="34" y="390.0" transform="rotate(-90 34 390.0)" text-anchor="middle" font-family="Arial" font-size="20" fill="black">p [Pa]</text>
<polyline points="190.69,452.67 193.64,461.02 196.58,469.38 199.53,469.38 202.47,477.73 205.42,494.44 208.36,502.80 211.31,519.51 214.25,527.86 217.20,536.22 220.14,552.93 223.09,561.29 226.03,569.64 228.98,578.00 231.93,586.35 234.87,594.71 237.82,603.06 240.76,611.42 243.71,619.77 246.65,628.13 249.60,636.49 252.54,644.84 255.49,644.84 258.43,653.20 261.38,653.20 264.32,653.20 267.27,661.55 270.22,661.55 273.16,661.55 276.11,661.55 279.05,661.55 282.00,653.20 284.94,653.20 287.89,644.84 290.83,644.84 293.78,636.49 296.72,619.77 299.67,611.42 302.62,603.06 305.56,586.35 308.51,569.64 311.45,552.93 314.40,536.22 317.34,519.51 320.29,494.44 323.23,477.73 326.17,452.67 329.13,435.95 332.07,410.89 335.01,385.82 337.96,369.11 340.91,344.05 343.85,327.33 346.80,310.62 349.74,293.91 352.68,277.20 355.64,260.49 358.58,252.14 361.52,243.78 364.47,235.42 367.41,227.07 370.35,227.07 373.31,218.71 376.25,218.71 379.19,218.71 382.15,227.07 385.09,227.07 388.03,235.42 390.98,243.78 393.92,260.49 396.86,277.20 399.82,293.91 402.76,310.62 405.70,327.33 408.65,344.05 411.59,369.11 414.54,385.82 417.49,410.89 420.43,427.60 423.37,444.31 426.33,469.38 429.27,486.09 432.21,502.80 435.16,519.51 438.10,536.22 441.04,544.58 444.00,561.29 446.94,569.64 449.88,586.35 452.83,594.71 455.78,603.06 458.72,611.42 461.67,611.42 464.61,619.77 467.55,628.13 470.51,628.13 473.45,628.13 476.39,628.13 479.34,628.13 482.28,628.13 485.23,628.13 488.18,628.13 491.12,619.77 494.06,619.77 497.02,611.42 499.96,611.42 502.90,603.06 505.85,594.71 508.79,586.35 511.73,578.00 514.69,569.64 517.63,561.29 520.57,552.93 523.52,544.58 526.47,536.22 529.41,527.86 532.36,519.51 535.30,502.80 538.24,494.44 541.20,486.09 544.14,469.38 547.08,461.02 550.03,452.67 552.97,444.31 555.92,427.60 558.87,419.24 561.81,410.89 564.75,394.18 567.71,385.82 570.65,377.47 573.59,369.11 576.54,352.40 579.48,344.05 582.42,335.69 585.38,327.33 588.32,318.98 591.26,310.62 594.21,302.27 597.16,293.91 600.10,285.56 603.05,277.20 605.99,268.85 608.93,268.85 611.89,260.49 614.83,260.49 617.77,252.14 620.72,252.14 623.66,252.14 626.60,252.14 629.56,252.14 632.50,252.14 635.44,252.14 638.40,252.14 641.34,260.49 644.28,260.49 647.23,260.49 650.17,268.85 653.11,268.85 656.07,268.85 659.01,277.20 661.95,277.20 664.90,277.20 667.84,277.20 670.79,285.56 673.74,285.56 676.68,285.56 679.62,285.56 682.58,285.56 685.52,285.56 688.46,277.20 691.41,277.20 694.35,277.20 697.29,277.20 700.25,268.85 703.19,268.85 706.13,260.49 709.08,260.49 712.03,252.14 714.97,252.14 717.92,243.78 720.86,235.42 723.80,235.42 726.76,227.07 729.70,218.71 732.64,210.36 735.59,210.36 738.53,202.00 741.48,202.00 744.43,193.65 747.37,193.65 750.31,185.29 753.27,185.29 756.21,185.29 759.15,176.94 762.10,176.94 765.04,176.94 767.98,176.94 770.94,176.94 773.88,176.94 776.82,176.94 779.77,176.94 782.72,176.94 785.66,176.94 788.61,176.94 791.55,176.94 794.49,176.94 797.45,176.94 800.39,176.94 803.33,185.29 806.28,185.29 809.22,185.29 812.17,185.29 815.12,185.29 818.06,185.29 821.00,185.29 823.96,185.29 826.90,185.29 829.84,185.29 832.79,185.29 835.73,185.29 838.67,185.29 841.63,185.29 844.57,185.29 847.51,185.29 850.46,193.65 853.41,193.65 856.35,193.65 859.30,193.65 862.24,193.65 865.18,193.65 868.14,193.65 871.08,193.65 874.02,193.65 876.97,193.65 879.91,193.65 882.85,202.00 885.81,202.00 888.75,202.00 891.69,202.00 894.65,202.00 897.59,210.36 900.53,210.36 903.48,210.36 906.42,210.36 909.36,218.71 912.32,218.71 915.26,218.71 918.20,227.07 921.15,227.07 924.09,227.07 927.04,235.42 929.99,235.42 932.93,243.78 935.87,243.78 938.83,252.14 941.77,252.14 944.71,260.49 947.66,260.49 950.60,268.85 953.54,277.20 956.50,277.20 959.44,285.56 962.38,293.91 965.33,302.27 968.28,310.62 971.22,318.98 974.17,318.98 977.11,327.33 980.05,335.69 983.01,344.05 985.95,352.40 988.89,360.76 991.84,369.11 994.78,377.47 997.73,377.47 1000.68,385.82 1003.62,385.82 1006.56,394.18 1009.52,394.18 1012.46,402.53 1015.40,402.53 1018.35,394.18 1021.29,394.18 1024.23,394.18 1027.19,385.82 1030.13,377.47 1033.07,369.11 1036.02,360.76 1038.97,344.05 1041.91,327.33 1044.86,318.98 1047.80,302.27 1050.74,277.20 1053.70,252.14 1056.64,227.07 1059.58,202.00 1062.53,176.94 1065.47,168.58 1068.42,151.87 1071.37,135.16 1074.31,118.45" fill="none" stroke="#000000" stroke-width="3"/>
<line x1="142" y1="100" x2="178" y2="100" stroke="#000000" stroke-width="4"/>
<text x="188" y="105" font-family="Arial" font-size="18" fill="black">p</text>
</svg>