<svg xmlns="http://www.w3.org/2000/svg" width="1200" height="820" viewBox="0 0 1200 820">
<rect width="100%" height="100%" fill="white"/>
<text x="600.0" y="36" text-anchor="middle" font-family="Arial" font-size="24" fill="black">profile_near_ceiling_x: U:0</text>
<line x1="120.00" y1="75" x2="120.00" y2="705" stroke="#dddddd" stroke-width="1"/>
<text x="120.00" y="737" text-anchor="middle" font-family="Arial" font-size="16" fill="black">-0.560</text>
<line x1="376.25" y1="75" x2="376.25" y2="705" stroke="#dddddd" stroke-width="1"/>
<text x="376.25" y="737" text-anchor="middle" font-family="Arial" font-size="16" fill="black">1.470</text>
<line x1="632.50" y1="75" x2="632.50" y2="705" stroke="#dddddd" stroke-width="1"/>
<text x="632.50" y="737" text-anchor="middle" font-family="Arial" font-size="16" fill="black">3.500</text>
<line x1="888.75" y1="75" x2="888.75" y2="705" stroke="#dddddd" stroke-width="1"/>
<text x="888.75" y="737" text-anchor="middle" font-family="Arial" font-size="16" fill="black">5.530</text>
<line x1="1145.00" y1="75" x2="1145.00" y2="705" stroke="#dddddd" stroke-width="1"/>
<text x="1145.00" y="737" text-anchor="middle" font-family="Arial" font-size="16" fill="black">7.560</text>
<line x1="120" y1="705.00" x2="1145" y2="705.00" stroke="#dddddd" stroke-width="1"/>
<text x="104" y="710.00" text-anchor="end" font-family="Arial" font-size="16" fill="black">-0.284</text>
<line x1="120" y1="547.50" x2="1145" y2="547.50" stroke="#dddddd" stroke-width="1"/>
<text x="104" y="552.50" text-anchor="end" font-family="Arial" font-size="16" fill="black">-0.132</text>
<line x1="120" y1="390.00" x2="1145" y2="390.00" stroke="#dddddd" stroke-width="1"/>
<text x="104" y="395.00" text-anchor="end" font-family="Arial" font-size="16" fill="black">0.019</text>
<line x1="120" y1="232.50" x2="1145" y2="232.50" stroke="#dddddd" stroke-width="1"/>
<text x="104" y="237.50" text-anchor="end" font-family="Arial" font-size="16" fill="black">0.171</text>
<line x1="120" y1="75.00" x2="1145" y2="75.00" stroke="#dddddd" stroke-width="1"/>
<text x="104" y="80.00" text-anchor="end" font-family="Arial" font-size="16" fill="black">0.322</text>
<rect x="120" y="75" width="1025" height="630" fill="none" stroke="black" stroke-width="2"/>
<text x="632.5" y="785" text-anchor="middle" font-family="Arial" font-size="20" fill="black">x coordinate [m]</text>
<text x="34" y="390.0" transform="rotate(-90 34 390.0)" text-anchor="middle" font-family="Arial" font-size="20" fill="black">U:0 [SI]</text>
<polyline points="190.69,455.51 193.64,460.48 196.58,465.45 199.53,470.42 202.47,475.38 205.42,484.60 208.36,495.51 211.31,506.42 214.25,517.33 217.20,528.04 220.14,538.49 223.09,548.96 226.03,559.41 228.98,569.54 231.93,577.74 234.87,585.95 237.82,594.16 240.76,602.36 243.71,609.05 246.65,615.49 249.60,621.92 252.54,628.36 255.49,633.69 258.43,638.19 261.38,642.70 264.32,647.19 267.27,651.11 270.22,653.55 273.16,656.00 276.11,658.45 279.05,660.90 282.00,661.06 284.94,661.23 287.89,661.39 290.83,661.55 293.78,659.86 296.72,657.42 299.67,654.97 302.62,652.52 305.56,648.84 308.51,643.50 311.45,638.15 314.40,632.80 317.34,627.01 320.29,618.57 323.23,610.14 326.17,601.71 329.13,593.28 332.07,582.18 335.01,570.66 337.96,559.13 340.91,547.60 343.85,534.72 346.80,520.84 349.74,506.96 352.68,493.08 355.64,478.49 358.58,462.13 361.52,445.78 364.47,429.42 367.41,413.06 370.35,396.58 373.31,380.10 376.25,363.62 379.19,347.15 382.15,332.10 385.09,317.63 388.03,303.15 390.98,288.68 393.92,274.93 396.86,262.14 399.82,249.34 402.76,236.55 405.70,224.11 408.65,213.87 411.59,203.62 414.54,193.37 417.49,183.12 420.43,175.20 423.37,167.67 426.33,160.14 429.27,152.60 432.21,146.60 435.16,141.75 438.10,136.90 441.04,132.05 444.00,127.92 446.94,125.61 449.88,123.29 452.83,120.98 455.78,118.67 458.72,118.61 461.67,118.55 464.61,118.50 467.55,118.45 470.51,119.79 473.45,121.67 476.39,123.56 479.34,125.45 482.28,128.03 485.23,131.53 488.18,135.03 491.12,138.53 494.06,142.21 497.02,146.93 499.96,151.67 502.90,156.40 505.85,161.14 508.79,166.55 511.73,172.09 514.69,177.62 517.63,183.16 520.57,188.93 523.52,194.86 526.47,200.79 529.41,206.72 532.36,212.69 535.30,218.72 538.24,224.75 541.20,230.77 544.14,236.81 547.08,242.75 550.03,248.69 552.97,254.63 555.92,260.57 558.87,266.41 561.81,272.19 564.75,277.98 567.71,283.77 570.65,289.49 573.59,295.13 576.54,300.78 579.48,306.43 582.42,312.05 585.38,317.59 588.32,323.13 591.26,328.67 594.21,334.21 597.16,339.49 600.10,344.73 603.05,349.97 605.99,355.21 608.93,360.34 611.89,365.39 614.83,370.43 617.77,375.47 620.72,380.31 623.66,384.65 626.60,388.98 629.56,393.31 632.50,397.64 635.44,400.24 638.40,402.83 641.34,405.43 644.28,408.02 647.23,409.53 650.17,410.60 653.11,411.66 656.07,412.73 659.01,413.44 661.95,413.65 664.90,413.87 667.84,414.09 670.79,414.30 673.74,414.48 676.68,414.67 679.62,414.85 682.58,415.04 685.52,415.74 688.46,416.54 691.41,417.33 694.35,418.12 697.29,419.38 700.25,421.00 703.19,422.61 706.13,424.23 709.08,426.11 712.03,428.68 714.97,431.25 717.92,433.82 720.86,436.39 723.80,439.84 726.76,443.29 729.70,446.74 732.64,450.19 735.59,454.03 738.53,458.04 741.48,462.04 744.43,466.04 747.37,469.97 750.31,473.79 753.27,477.60 756.21,481.42 759.15,485.10 762.10,487.92 765.04,490.75 767.98,493.57 770.94,496.39 773.88,498.22 776.82,499.87 779.77,501.53 782.72,503.19 785.66,504.37 788.61,505.20 791.55,506.02 794.49,506.85 797.45,507.48 800.39,507.63 803.33,507.78 806.28,507.93 809.22,508.07 812.17,507.52 815.12,506.96 818.06,506.40 821.00,505.85 823.96,504.79 826.90,503.53 829.84,502.27 832.79,501.01 835.73,499.47 838.67,497.54 841.63,495.62 844.57,493.70 847.51,491.69 850.46,489.14 853.41,486.60 856.35,484.06 859.30,481.51 862.24,478.46 865.18,475.32 868.14,472.18 871.08,469.04 874.02,465.55 876.97,461.82 879.91,458.08 882.85,454.34 885.81,450.42 888.75,446.06 891.69,441.69 894.65,437.33 897.59,432.97 900.53,427.95 903.48,422.93 906.42,417.91 909.36,412.90 912.32,407.40 915.26,401.73 918.20,396.05 921.15,390.37 924.09,384.53 927.04,378.49 929.99,372.45 932.93,366.40 935.87,360.33 938.83,354.13 941.77,347.93 944.71,341.72 947.66,335.52 950.60,329.31 953.54,323.10 956.50,316.90 959.44,310.69 962.38,304.70 965.33,298.88 968.28,293.06 971.22,287.24 974.17,281.63 977.11,276.55 980.05,271.47 983.01,266.39 985.95,261.31 988.89,257.40 991.84,253.49 994.78,249.59 997.73,245.68 1000.68,243.00 1003.62,240.79 1006.56,238.59 1009.52,236.38 1012.46,235.22 1015.40,235.45 1018.35,235.67 1021.29,235.90 1024.23,236.56 1027.19,239.81 1030.13,243.06 1033.07,246.33 1036.02,249.58 1038.97,256.84 1041.91,264.78 1044.86,272.70 1047.80,280.64 1050.74,289.86 1053.70,300.03 1056.64,310.20 1059.58,320.38 1062.53,328.98 1065.47,333.64 1068.42,338.31 1071.37,342.97 1074.31,347.64" fill="none" stroke="#000000" stroke-width="3"/>
<line x1="142" y1="100" x2="178" y2="100" stroke="#000000" stroke-width="4"/>
<text x="188" y="105" font-family="Arial" font-size="18" fill="black">U:0</text>
</svg>