<svg xmlns="http://www.w3.org/2000/svg" width="1200" height="820" viewBox="0 0 1200 820">
<rect width="100%" height="100%" fill="white"/>
<text x="600.0" y="36" text-anchor="middle" font-family="Arial" font-size="24" fill="black">profile_center_z: U, V, W components</text>
<line x1="120.00" y1="75" x2="120.00" y2="705" stroke="#dddddd" stroke-width="1"/>
<text x="120.00" y="737" text-anchor="middle" font-family="Arial" font-size="16" fill="black">-0.240</text>
<line x1="376.25" y1="75" x2="376.25" y2="705" stroke="#dddddd" stroke-width="1"/>
<text x="376.25" y="737" text-anchor="middle" font-family="Arial" font-size="16" fill="black">0.630</text>
<line x1="632.50" y1="75" x2="632.50" y2="705" stroke="#dddddd" stroke-width="1"/>
<text x="632.50" y="737" text-anchor="middle" font-family="Arial" font-size="16" fill="black">1.500</text>
<line x1="888.75" y1="75" x2="888.75" y2="705" stroke="#dddddd" stroke-width="1"/>
<text x="888.75" y="737" text-anchor="middle" font-family="Arial" font-size="16" fill="black">2.370</text>
<line x1="1145.00" y1="75" x2="1145.00" y2="705" stroke="#dddddd" stroke-width="1"/>
<text x="1145.00" y="737" text-anchor="middle" font-family="Arial" font-size="16" fill="black">3.240</text>
<line x1="120" y1="705.00" x2="1145" y2="705.00" stroke="#dddddd" stroke-width="1"/>
<text x="104" y="710.00" text-anchor="end" font-family="Arial" font-size="16" fill="black">-0.344</text>
<line x1="120" y1="547.50" x2="1145" y2="547.50" stroke="#dddddd" stroke-width="1"/>
<text x="104" y="552.50" text-anchor="end" font-family="Arial" font-size="16" fill="black">-0.052</text>
<line x1="120" y1="390.00" x2="1145" y2="390.00" stroke="#dddddd" stroke-width="1"/>
<text x="104" y="395.00" text-anchor="end" font-family="Arial" font-size="16" fill="black">0.239</text>
<line x1="120" y1="232.50" x2="1145" y2="232.50" stroke="#dddddd" stroke-width="1"/>
<text x="104" y="237.50" text-anchor="end" font-family="Arial" font-size="16" fill="black">0.531</text>
<line x1="120" y1="75.00" x2="1145" y2="75.00" stroke="#dddddd" stroke-width="1"/>
<text x="104" y="80.00" text-anchor="end" font-family="Arial" font-size="16" fill="black">0.823</text>
<rect x="120" y="75" width="1025" height="630" fill="none" stroke="black" stroke-width="2"/>
<text x="632.5" y="785" text-anchor="middle" font-family="Arial" font-size="20" fill="black">z coordinate [m]</text>
<text x="34" y="390.0" transform="rotate(-90 34 390.0)" text-anchor="middle" font-family="Arial" font-size="20" fill="black">velocity component [m/s]</text>
<polyline points="190.69,515.22 193.64,515.03 196.58,514.84 199.53,514.64 202.47,514.45 205.42,514.26 208.36,514.06 211.31,513.87 214.25,513.68 217.20,513.49 220.14,513.29 223.09,512.93 226.03,512.57 228.98,512.21 231.93,511.85 234.87,511.49 237.82,511.13 240.76,510.77 243.71,510.41 246.65,510.05 249.60,509.69 252.54,509.39 255.49,509.09 258.43,508.78 261.38,508.48 264.32,508.18 267.27,507.88 270.22,507.58 273.16,507.27 276.11,506.97 279.05,506.67 282.00,506.43 284.94,506.20 287.89,505.96 290.83,505.72 293.78,505.49 296.72,505.25 299.67,505.01 302.61,504.78 305.56,504.54 308.51,504.30 311.45,504.12 314.40,503.95 317.34,503.77 320.29,503.59 323.23,503.41 326.18,503.23 329.12,503.06 332.07,502.88 335.01,502.70 337.96,502.52 340.91,502.38 343.85,502.24 346.80,502.09 349.74,501.95 352.69,501.81 355.63,501.66 358.58,501.52 361.52,501.38 364.47,501.24 367.41,501.09 370.36,500.92 373.30,500.75 376.25,500.58 379.20,500.42 382.14,500.25 385.09,500.08 388.03,499.91 390.98,499.74 393.92,499.57 396.87,499.40 399.81,499.09 402.76,498.79 405.70,498.48 408.65,498.18 411.59,497.87 414.54,497.57 417.49,497.26 420.43,496.96 423.38,496.65 426.32,496.34 429.27,496.14 432.21,495.94 435.16,495.73 438.10,495.53 441.05,495.33 443.99,495.12 446.94,494.92 449.89,494.72 452.83,494.51 455.78,494.31 458.72,495.19 461.67,496.08 464.61,496.96 467.56,497.84 470.50,498.73 473.45,499.61 476.39,500.49 479.34,501.38 482.28,502.26 485.23,503.14 488.18,505.26 491.12,507.39 494.07,509.51 497.01,511.63 499.96,513.76 502.90,515.88 505.85,518.00 508.79,520.13 511.74,522.25 514.68,524.37 517.63,526.60 520.57,528.82 523.52,531.05 526.47,533.27 529.41,535.50 532.36,537.72 535.30,539.95 538.25,542.17 541.19,544.40 544.14,546.62 547.08,548.38 550.03,550.14 552.97,551.91 555.92,553.67 558.86,555.43 561.81,557.19 564.76,558.96 567.70,560.72 570.65,562.48 573.59,564.24 576.54,565.61 579.48,566.98 582.43,568.34 585.37,569.71 588.32,571.08 591.26,572.45 594.21,573.81 597.16,575.18 600.10,576.55 603.05,577.91 605.99,578.92 608.94,579.92 611.88,580.92 614.83,581.92 617.77,582.93 620.72,583.93 623.66,584.93 626.61,585.93 629.55,586.94 632.50,587.94 635.45,588.60 638.39,589.26 641.34,589.92 644.28,590.58 647.23,591.23 650.17,591.89 653.12,592.56 656.06,593.22 659.01,593.87 661.95,594.53 664.90,594.88 667.84,595.22 670.79,595.57 673.74,595.91 676.68,596.26 679.63,596.60 682.57,596.95 685.52,597.30 688.46,597.65 691.41,597.99 694.35,598.05 697.30,598.12 700.24,598.18 703.19,598.24 706.14,598.30 709.08,598.36 712.03,598.43 714.97,598.49 717.92,598.55 720.86,598.62 723.81,598.42 726.75,598.22 729.70,598.01 732.64,597.81 735.59,597.61 738.53,597.41 741.48,597.21 744.43,597.01 747.37,596.81 750.32,596.61 753.26,596.17 756.21,595.72 759.15,595.28 762.10,594.83 765.04,594.39 767.99,593.94 770.93,593.50 773.88,593.05 776.82,592.61 779.77,592.17 782.72,591.50 785.66,590.83 788.61,590.16 791.55,589.50 794.50,588.83 797.44,588.16 800.39,587.49 803.33,586.83 806.28,586.16 809.22,585.49 812.17,584.60 815.11,583.72 818.06,582.83 821.01,581.95 823.95,581.06 826.90,580.17 829.84,579.29 832.79,578.40 835.73,577.52 838.68,576.63 841.62,575.53 844.57,574.44 847.51,573.35 850.46,572.26 853.41,571.16 856.35,570.07 859.30,568.98 862.24,567.88 865.19,566.79 868.13,565.70 871.08,564.44 874.02,563.18 876.97,561.93 879.91,560.67 882.86,559.41 885.80,558.16 888.75,556.90 891.70,555.64 894.64,554.38 897.59,553.13 900.53,551.79 903.48,550.44 906.42,549.10 909.37,547.76 912.31,546.42 915.26,545.08 918.20,543.74 921.15,542.40 924.09,541.06 927.04,539.72 929.99,538.42 932.93,537.12 935.88,535.82 938.82,534.52 941.77,533.22 944.71,531.92 947.66,530.62 950.60,529.32 953.55,528.02 956.49,526.72 959.44,525.64 962.39,524.55 965.33,523.47 968.28,522.39 971.22,521.31 974.17,520.23 977.11,519.15 980.06,518.06 983.00,516.98 985.95,515.90 988.89,515.31 991.84,514.71 994.78,514.12 997.73,513.53 1000.68,512.94 1003.62,512.34 1006.57,511.75 1009.51,511.16 1012.46,510.56 1015.40,509.97 1018.35,510.55 1021.29,511.13 1024.24,511.71 1027.18,512.29 1030.13,512.86 1033.07,513.44 1036.02,514.02 1038.97,514.60 1041.91,515.18 1044.86,515.76 1047.80,516.47 1050.75,517.18 1053.69,517.89 1056.64,518.60 1059.58,519.31 1062.53,520.02 1065.47,520.73 1068.42,521.44 1071.36,522.15 1074.31,522.86" fill="none" stroke="#000000" stroke-width="3"/>
<line x1="142" y1="100" x2="178" y2="100" stroke="#000000" stroke-width="4"/>
<text x="188" y="105" font-family="Arial" font-size="18" fill="black">Ux / u</text>
<polyline points="190.69,513.93 193.64,513.67 196.58,513.41 199.53,513.15 202.47,512.89 205.42,512.63 208.36,512.37 211.31,512.11 214.25,511.85 217.20,511.59 220.14,511.33 223.09,510.82 226.03,510.32 228.98,509.81 231.93,509.31 234.87,508.80 237.82,508.30 240.76,507.79 243.71,507.29 246.65,506.78 249.60,506.28 252.54,505.81 255.49,505.35 258.43,504.89 261.38,504.43 264.32,503.97 267.27,503.50 270.22,503.04 273.16,502.58 276.11,502.12 279.05,501.65 282.00,501.26 284.94,500.87 287.89,500.47 290.83,500.08 293.78,499.68 296.72,499.29 299.67,498.90 302.61,498.50 305.56,498.11 308.51,497.71 311.45,497.41 314.40,497.10 317.34,496.80 320.29,496.49 323.23,496.19 326.18,495.88 329.12,495.58 332.07,495.27 335.01,494.96 337.96,494.66 340.91,494.45 343.85,494.23 346.80,494.02 349.74,493.80 352.69,493.59 355.63,493.37 358.58,493.16 361.52,492.94 364.47,492.73 367.41,492.52 370.36,492.36 373.30,492.20 376.25,492.04 379.20,491.88 382.14,491.72 385.09,491.56 388.03,491.40 390.98,491.25 393.92,491.09 396.87,490.93 399.81,490.74 402.76,490.56 405.70,490.38 408.65,490.19 411.59,490.01 414.54,489.82 417.49,489.64 420.43,489.45 423.38,489.27 426.32,489.09 429.27,488.75 432.21,488.41 435.16,488.07 438.10,487.73 441.05,487.39 443.99,487.05 446.94,486.71 449.89,486.37 452.83,486.03 455.78,485.69 458.72,485.15 461.67,484.61 464.61,484.07 467.56,483.53 470.50,482.99 473.45,482.45 476.39,481.91 479.34,481.37 482.28,480.82 485.23,480.28 488.18,479.76 491.12,479.23 494.07,478.71 497.01,478.19 499.96,477.66 502.90,477.14 505.85,476.61 508.79,476.09 511.74,475.56 514.68,475.04 517.63,474.81 520.57,474.57 523.52,474.34 526.47,474.11 529.41,473.88 532.36,473.64 535.30,473.41 538.25,473.18 541.19,472.95 544.14,472.72 547.08,472.80 550.03,472.88 552.97,472.96 555.92,473.04 558.86,473.12 561.81,473.21 564.76,473.29 567.70,473.37 570.65,473.45 573.59,473.53 576.54,473.84 579.48,474.16 582.43,474.47 585.37,474.78 588.32,475.09 591.26,475.40 594.21,475.71 597.16,476.02 600.10,476.33 603.05,476.64 605.99,477.15 608.94,477.65 611.88,478.16 614.83,478.66 617.77,479.17 620.72,479.67 623.66,480.18 626.61,480.68 629.55,481.19 632.50,481.69 635.45,482.35 638.39,483.01 641.34,483.68 644.28,484.34 647.23,485.00 650.17,485.66 653.12,486.32 656.06,486.99 659.01,487.65 661.95,488.31 664.90,489.09 667.84,489.87 670.79,490.65 673.74,491.43 676.68,492.21 679.63,492.99 682.57,493.77 685.52,494.55 688.46,495.33 691.41,496.11 694.35,496.97 697.30,497.83 700.24,498.69 703.19,499.56 706.14,500.42 709.08,501.28 712.03,502.14 714.97,503.00 717.92,503.86 720.86,504.73 723.81,505.64 726.75,506.56 729.70,507.47 732.64,508.39 735.59,509.31 738.53,510.22 741.48,511.14 744.43,512.05 747.37,512.97 750.32,513.89 753.26,514.85 756.21,515.81 759.15,516.77 762.10,517.74 765.04,518.70 767.99,519.66 770.93,520.62 773.88,521.59 776.82,522.55 779.77,523.51 782.72,524.52 785.66,525.54 788.61,526.55 791.55,527.56 794.50,528.57 797.44,529.58 800.39,530.60 803.33,531.61 806.28,532.62 809.22,533.63 812.17,534.70 815.11,535.76 818.06,536.83 821.01,537.90 823.95,538.96 826.90,540.03 829.84,541.09 832.79,542.16 835.73,543.23 838.68,544.29 841.62,545.43 844.57,546.58 847.51,547.72 850.46,548.86 853.41,550.00 856.35,551.14 859.30,552.29 862.24,553.43 865.19,554.57 868.13,555.71 871.08,556.97 874.02,558.23 876.97,559.48 879.91,560.74 882.86,562.00 885.80,563.25 888.75,564.51 891.70,565.77 894.64,567.02 897.59,568.28 900.53,569.69 903.48,571.10 906.42,572.51 909.37,573.92 912.31,575.32 915.26,576.73 918.20,578.14 921.15,579.55 924.09,580.96 927.04,582.37 929.99,583.94 932.93,585.51 935.88,587.09 938.82,588.67 941.77,590.24 944.71,591.82 947.66,593.39 950.60,594.97 953.55,596.55 956.49,598.12 959.44,599.84 962.39,601.56 965.33,603.29 968.28,605.01 971.22,606.73 974.17,608.45 977.11,610.18 980.06,611.90 983.00,613.62 985.95,615.34 988.89,617.15 991.84,618.96 994.78,620.78 997.73,622.59 1000.68,624.40 1003.62,626.21 1006.57,628.02 1009.51,629.83 1012.46,631.65 1015.40,633.46 1018.35,635.32 1021.29,637.18 1024.24,639.05 1027.18,640.91 1030.13,642.78 1033.07,644.64 1036.02,646.50 1038.97,648.37 1041.91,650.23 1044.86,652.10 1047.80,653.04 1050.75,653.99 1053.69,654.94 1056.64,655.88 1059.58,656.82 1062.53,657.77 1065.47,658.71 1068.42,659.66 1071.36,660.61 1074.31,661.55" fill="none" stroke="#555555" stroke-width="3" stroke-dasharray="9 5"/>
<line x1="142" y1="128" x2="178" y2="128" stroke="#555555" stroke-width="4" stroke-dasharray="9 5"/>
<text x="188" y="133" font-family="Arial" font-size="18" fill="black">Uy / v</text>
<polyline points="190.69,118.45 193.64,119.12 196.58,119.80 199.53,120.48 202.47,121.15 205.42,121.83 208.36,122.51 211.31,123.18 214.25,123.86 217.20,124.54 220.14,125.21 223.09,127.02 226.03,128.83 228.98,130.64 231.93,132.45 234.87,134.26 237.82,136.07 240.76,137.88 243.71,139.69 246.65,141.49 249.60,143.30 252.54,145.91 255.49,148.53 258.43,151.13 261.38,153.74 264.32,156.36 267.27,158.96 270.22,161.58 273.16,164.19 276.11,166.79 279.05,169.41 282.00,172.68 284.94,175.95 287.89,179.23 290.83,182.51 293.78,185.78 296.72,189.05 299.67,192.33 302.61,195.60 305.56,198.88 308.51,202.15 311.45,206.06 314.40,209.98 317.34,213.89 320.29,217.80 323.23,221.71 326.18,225.62 329.12,229.53 332.07,233.45 335.01,237.36 337.96,241.27 340.91,245.76 343.85,250.25 346.80,254.74 349.74,259.23 352.69,263.72 355.63,268.20 358.58,272.69 361.52,277.18 364.47,281.67 367.41,286.16 370.36,291.06 373.30,295.95 376.25,300.86 379.20,305.75 382.14,310.65 385.09,315.54 388.03,320.44 390.98,325.34 393.92,330.23 396.87,335.13 399.81,340.30 402.76,345.46 405.70,350.63 408.65,355.80 411.59,360.96 414.54,366.13 417.49,371.29 420.43,376.46 423.38,381.63 426.32,386.79 429.27,392.15 432.21,397.50 435.16,402.86 438.10,408.21 441.05,413.57 443.99,418.92 446.94,424.27 449.89,429.63 452.83,434.99 455.78,440.34 458.72,445.29 461.67,450.24 464.61,455.19 467.56,460.14 470.50,465.10 473.45,470.04 476.39,475.00 479.34,479.95 482.28,484.90 485.23,489.85 488.18,493.55 491.12,497.25 494.07,500.96 497.01,504.66 499.96,508.36 502.90,512.07 505.85,515.77 508.79,519.47 511.74,523.18 514.68,526.88 517.63,529.35 520.57,531.82 523.52,534.30 526.47,536.77 529.41,539.24 532.36,541.71 535.30,544.19 538.25,546.66 541.19,549.13 544.14,551.60 547.08,553.38 550.03,555.16 552.97,556.94 555.92,558.72 558.86,560.50 561.81,562.28 564.76,564.06 567.70,565.83 570.65,567.61 573.59,569.39 576.54,570.77 579.48,572.16 582.43,573.54 585.37,574.92 588.32,576.30 591.26,577.68 594.21,579.06 597.16,580.45 600.10,581.82 603.05,583.20 605.99,584.32 608.94,585.44 611.88,586.56 614.83,587.67 617.77,588.79 620.72,589.91 623.66,591.02 626.61,592.14 629.55,593.25 632.50,594.37 635.45,595.28 638.39,596.19 641.34,597.10 644.28,598.01 647.23,598.92 650.17,599.83 653.12,600.74 656.06,601.65 659.01,602.56 661.95,603.47 664.90,604.17 667.84,604.87 670.79,605.57 673.74,606.28 676.68,606.98 679.63,607.68 682.57,608.38 685.52,609.08 688.46,609.78 691.41,610.49 694.35,610.96 697.30,611.42 700.24,611.89 703.19,612.36 706.14,612.83 709.08,613.30 712.03,613.77 714.97,614.24 717.92,614.70 720.86,615.17 723.81,615.38 726.75,615.57 729.70,615.77 732.64,615.98 735.59,616.18 738.53,616.38 741.48,616.58 744.43,616.79 747.37,616.99 750.32,617.19 753.26,617.11 756.21,617.02 759.15,616.93 762.10,616.85 765.04,616.77 767.99,616.68 770.93,616.59 773.88,616.51 776.82,616.43 779.77,616.34 782.72,615.99 785.66,615.63 788.61,615.27 791.55,614.92 794.50,614.55 797.44,614.20 800.39,613.84 803.33,613.49 806.28,613.13 809.22,612.77 812.17,612.18 815.11,611.59 818.06,610.99 821.01,610.40 823.95,609.81 826.90,609.21 829.84,608.62 832.79,608.02 835.73,607.43 838.68,606.84 841.62,606.04 844.57,605.25 847.51,604.45 850.46,603.66 853.41,602.86 856.35,602.07 859.30,601.27 862.24,600.47 865.19,599.68 868.13,598.89 871.08,597.94 874.02,596.99 876.97,596.04 879.91,595.09 882.86,594.14 885.80,593.20 888.75,592.25 891.70,591.30 894.64,590.35 897.59,589.40 900.53,588.37 903.48,587.33 906.42,586.29 909.37,585.25 912.31,584.21 915.26,583.18 918.20,582.14 921.15,581.10 924.09,580.06 927.04,579.02 929.99,577.96 932.93,576.91 935.88,575.85 938.82,574.79 941.77,573.73 944.71,572.67 947.66,571.61 950.60,570.56 953.55,569.50 956.49,568.44 959.44,567.41 962.39,566.38 965.33,565.36 968.28,564.33 971.22,563.30 974.17,562.27 977.11,561.25 980.06,560.22 983.00,559.19 985.95,558.16 988.89,557.17 991.84,556.18 994.78,555.20 997.73,554.21 1000.68,553.22 1003.62,552.23 1006.57,551.24 1009.51,550.25 1012.46,549.26 1015.40,548.27 1018.35,547.13 1021.29,546.00 1024.24,544.86 1027.18,543.72 1030.13,542.58 1033.07,541.45 1036.02,540.31 1038.97,539.17 1041.91,538.03 1044.86,536.89 1047.80,536.24 1050.75,535.59 1053.69,534.94 1056.64,534.29 1059.58,533.64 1062.53,532.99 1065.47,532.34 1068.42,531.69 1071.36,531.04 1074.31,530.39" fill="none" stroke="#999999" stroke-width="3" stroke-dasharray="3 4"/>
<line x1="142" y1="156" x2="178" y2="156" stroke="#999999" stroke-width="4" stroke-dasharray="3 4"/>
<text x="188" y="161" font-family="Arial" font-size="18" fill="black">Uz / w</text>
</svg>