<svg xmlns="http://www.w3.org/2000/svg" width="1200" height="820" viewBox="0 0 1200 820">
<rect width="100%" height="100%" fill="white"/>
<text x="600.0" y="36" text-anchor="middle" font-family="Arial" font-size="24" fill="black">profile_near_floor_x: U, V, W components</text>
<line x1="120.00" y1="75" x2="120.00" y2="705" stroke="#dddddd" stroke-width="1"/>
<text x="120.00" y="737" text-anchor="middle" font-family="Arial" font-size="16" fill="black">-0.560</text>
<line x1="376.25" y1="75" x2="376.25" y2="705" stroke="#dddddd" stroke-width="1"/>
<text x="376.25" y="737" text-anchor="middle" font-family="Arial" font-size="16" fill="black">1.470</text>
<line x1="632.50" y1="75" x2="632.50" y2="705" stroke="#dddddd" stroke-width="1"/>
<text x="632.50" y="737" text-anchor="middle" font-family="Arial" font-size="16" fill="black">3.500</text>
<line x1="888.75" y1="75" x2="888.75" y2="705" stroke="#dddddd" stroke-width="1"/>
<text x="888.75" y="737" text-anchor="middle" font-family="Arial" font-size="16" fill="black">5.530</text>
<line x1="1145.00" y1="75" x2="1145.00" y2="705" stroke="#dddddd" stroke-width="1"/>
<text x="1145.00" y="737" text-anchor="middle" font-family="Arial" font-size="16" fill="black">7.560</text>
<line x1="120" y1="705.00" x2="1145" y2="705.00" stroke="#dddddd" stroke-width="1"/>
<text x="104" y="710.00" text-anchor="end" font-family="Arial" font-size="16" fill="black">-0.233</text>
<line x1="120" y1="547.50" x2="1145" y2="547.50" stroke="#dddddd" stroke-width="1"/>
<text x="104" y="552.50" text-anchor="end" font-family="Arial" font-size="16" fill="black">0.021</text>
<line x1="120" y1="390.00" x2="1145" y2="390.00" stroke="#dddddd" stroke-width="1"/>
<text x="104" y="395.00" text-anchor="end" font-family="Arial" font-size="16" fill="black">0.276</text>
<line x1="120" y1="232.50" x2="1145" y2="232.50" stroke="#dddddd" stroke-width="1"/>
<text x="104" y="237.50" text-anchor="end" font-family="Arial" font-size="16" fill="black">0.530</text>
<line x1="120" y1="75.00" x2="1145" y2="75.00" stroke="#dddddd" stroke-width="1"/>
<text x="104" y="80.00" text-anchor="end" font-family="Arial" font-size="16" fill="black">0.785</text>
<rect x="120" y="75" width="1025" height="630" fill="none" stroke="black" stroke-width="2"/>
<text x="632.5" y="785" text-anchor="middle" font-family="Arial" font-size="20" fill="black">x coordinate [m]</text>
<text x="34" y="390.0" transform="rotate(-90 34 390.0)" text-anchor="middle" font-family="Arial" font-size="20" fill="black">velocity component [m/s]</text>
<polyline points="190.69,585.19 193.64,586.56 196.58,587.92 199.53,589.28 202.47,590.65 205.42,593.72 208.36,597.49 211.31,601.26 214.25,605.02 217.20,608.66 220.14,612.14 223.09,615.62 226.03,619.10 228.98,622.22 231.93,623.18 234.87,624.15 237.82,625.11 240.76,626.07 243.71,624.59 246.65,622.71 249.60,620.83 252.54,618.95 255.49,615.44 258.43,610.72 261.38,606.00 264.32,601.28 267.27,596.21 270.22,590.26 273.16,584.32 276.11,578.38 279.05,572.43 282.00,567.63 284.94,562.82 287.89,558.02 290.83,553.22 293.78,555.65 296.72,560.97 299.67,566.29 302.62,571.61 305.56,578.06 308.51,586.02 311.45,593.98 314.40,601.93 317.34,608.51 320.29,606.78 323.23,605.06 326.17,603.34 329.13,601.62 332.07,598.16 335.01,594.41 337.96,590.67 340.91,586.92 343.85,583.98 346.80,581.64 349.74,579.30 352.68,576.96 355.64,574.67 358.58,572.51 361.52,570.35 364.47,568.19 367.41,566.03 370.35,563.76 373.31,561.49 376.25,559.22 379.19,556.95 382.15,554.33 385.09,551.57 388.03,548.81 390.98,546.05 393.92,542.48 396.86,537.81 399.82,533.14 402.76,528.48 405.70,524.03 408.65,520.89 411.59,517.76 414.54,514.63 417.49,511.49 420.43,516.52 423.37,522.91 426.33,529.31 429.27,535.70 432.21,541.05 435.16,545.63 438.10,550.20 441.04,554.77 444.00,557.01 446.94,553.39 449.88,549.77 452.83,546.15 455.78,542.54 458.72,539.16 461.67,535.78 464.61,532.40 467.55,529.02 470.51,526.83 473.45,525.12 476.39,523.41 479.34,521.70 482.28,521.13 485.23,522.08 488.18,523.03 491.12,523.98 494.06,525.17 497.02,527.88 499.96,530.58 502.90,533.28 505.85,535.99 508.79,538.82 511.73,541.67 514.69,544.53 517.63,547.38 520.57,548.88 523.52,549.36 526.47,549.85 529.41,550.33 532.36,550.10 535.30,548.09 538.24,546.08 541.20,544.07 544.14,542.07 547.08,539.39 550.03,536.72 552.97,534.05 555.92,531.38 558.87,533.01 561.81,536.37 564.75,539.73 567.71,543.09 570.65,548.05 573.59,555.15 576.54,562.25 579.48,569.35 582.42,575.44 585.38,575.44 588.32,575.45 591.26,575.46 594.21,575.47 597.16,573.12 600.10,570.38 603.05,567.64 605.99,564.90 608.93,563.01 611.89,561.74 614.83,560.48 617.77,559.22 620.72,557.87 623.66,556.32 626.60,554.78 629.56,553.23 632.50,551.68 635.44,550.05 638.40,548.41 641.34,546.77 644.28,545.14 647.23,543.23 650.17,541.21 653.11,539.19 656.07,537.17 659.01,534.49 661.95,530.93 664.90,527.37 667.84,523.82 670.79,520.58 673.74,519.28 676.68,517.98 679.62,516.68 682.58,515.38 685.52,522.26 688.46,530.50 691.41,538.74 694.35,546.98 697.29,554.47 700.25,561.39 703.19,568.32 706.13,575.24 709.08,579.41 712.03,576.70 714.97,573.98 717.92,571.27 720.86,568.55 723.80,563.15 726.76,557.75 729.70,552.36 732.64,546.96 735.59,541.85 738.53,536.85 741.48,531.86 744.43,526.86 747.37,522.50 750.31,518.99 753.27,515.47 756.21,511.96 759.15,508.67 762.10,506.78 765.04,504.88 767.98,502.98 770.94,501.09 773.88,500.41 776.82,499.95 779.77,499.48 782.72,499.01 785.66,499.10 788.61,499.61 791.55,500.11 794.49,500.62 797.45,501.43 800.39,503.03 803.33,504.63 806.28,506.22 809.22,507.82 812.17,511.30 815.12,514.77 818.06,518.25 821.00,521.73 823.96,531.47 826.90,543.71 829.84,555.96 832.79,568.20 835.73,579.32 838.67,588.93 841.63,598.55 844.57,608.17 847.51,615.96 850.46,612.84 853.41,609.72 856.35,606.59 859.30,603.47 862.24,599.20 865.18,594.74 868.14,590.28 871.08,585.81 874.02,582.23 876.97,579.31 879.91,576.39 882.85,573.47 885.81,570.75 888.75,568.52 891.69,566.29 894.65,564.07 897.59,561.84 900.53,560.01 903.48,558.18 906.42,556.36 909.36,554.53 912.32,553.21 915.26,552.10 918.20,550.98 921.15,549.86 924.09,548.12 927.04,545.55 929.99,542.97 932.93,540.40 935.87,538.57 938.83,541.23 941.77,543.90 944.71,546.56 947.66,549.22 950.60,559.98 953.54,572.09 956.50,584.19 959.44,596.30 962.38,604.26 965.33,609.11 968.28,613.96 971.22,618.81 974.17,621.03 977.11,616.70 980.05,612.36 983.01,608.02 985.95,603.68 988.89,599.12 991.84,594.56 994.78,590.00 997.73,585.44 1000.68,581.53 1003.62,577.87 1006.56,574.22 1009.52,570.57 1012.46,567.82 1015.40,566.26 1018.35,564.71 1021.29,563.16 1024.23,561.78 1027.19,561.41 1030.13,561.04 1033.07,560.67 1036.02,560.30 1038.97,560.45 1041.91,560.69 1044.86,560.92 1047.80,561.16 1050.74,561.20 1053.70,561.09 1056.64,560.98 1059.58,560.87 1062.53,560.70 1065.47,560.38 1068.42,560.06 1071.37,559.73 1074.31,559.41" fill="none" stroke="#000000" stroke-width="3"/>
<line x1="142" y1="100" x2="178" y2="100" stroke="#000000" stroke-width="4"/>
<text x="188" y="105" font-family="Arial" font-size="18" fill="black">Ux / u</text>
<polyline points="190.69,449.65 193.64,448.78 196.58,447.91 199.53,447.05 202.47,446.18 205.42,445.09 208.36,443.91 211.31,442.74 214.25,441.56 217.20,440.73 220.14,440.34 223.09,439.97 226.03,439.58 228.98,439.29 231.93,439.49 234.87,439.69 237.82,439.90 240.76,440.10 243.71,440.85 246.65,441.69 249.60,442.53 252.54,443.37 255.49,444.38 258.43,445.52 261.38,446.65 264.32,447.79 267.27,448.68 270.22,448.97 273.16,449.26 276.11,449.54 279.05,449.83 282.00,448.78 284.94,447.73 287.89,446.68 290.83,445.63 293.78,448.50 296.72,452.94 299.67,457.38 302.62,461.82 305.56,469.90 308.51,482.87 311.45,495.83 314.40,508.79 317.34,520.95 320.29,528.36 323.23,535.76 326.17,543.16 329.13,550.56 332.07,551.25 335.01,550.83 337.96,550.40 340.91,549.98 343.85,549.72 346.80,549.58 349.74,549.44 352.68,549.30 355.64,549.17 358.58,549.03 361.52,548.89 364.47,548.75 367.41,548.61 370.35,548.46 373.31,548.30 376.25,548.14 379.19,547.98 382.15,547.79 385.09,547.58 388.03,547.37 390.98,547.16 393.92,546.90 396.86,546.57 399.82,546.23 402.76,545.90 405.70,544.27 408.65,534.93 411.59,525.60 414.54,516.26 417.49,506.92 420.43,494.62 423.37,481.84 426.33,469.05 429.27,456.26 432.21,449.16 435.16,446.33 438.10,443.50 441.04,440.67 444.00,439.26 446.94,441.41 449.88,443.55 452.83,445.70 455.78,447.85 458.72,450.17 461.67,452.49 464.61,454.81 467.55,457.12 470.51,459.08 473.45,460.88 476.39,462.69 479.34,464.49 482.28,466.11 485.23,467.49 488.18,468.87 491.12,470.24 494.06,471.53 497.02,472.23 499.96,472.93 502.90,473.63 505.85,474.34 508.79,473.98 511.73,473.45 514.69,472.92 517.63,472.39 520.57,471.22 523.52,469.58 526.47,467.94 529.41,466.30 532.36,464.44 535.30,462.01 538.24,459.59 541.20,457.16 544.14,454.74 547.08,451.67 550.03,448.59 552.97,445.52 555.92,442.45 558.87,440.97 561.81,440.14 564.75,439.30 567.71,438.47 570.65,443.08 573.59,454.98 576.54,466.87 579.48,478.76 582.42,490.61 585.38,502.25 588.32,513.88 591.26,525.52 594.21,537.15 597.16,539.65 600.10,540.63 603.05,541.61 605.99,542.59 608.93,543.43 611.89,544.17 614.83,544.91 617.77,545.65 620.72,546.34 623.66,546.91 626.60,547.47 629.56,548.04 632.50,548.60 635.44,549.10 638.40,549.59 641.34,550.09 644.28,550.59 647.23,551.10 650.17,551.61 653.11,552.13 656.07,552.64 659.01,553.43 661.95,554.58 664.90,555.73 667.84,556.88 670.79,557.35 673.74,553.75 676.68,550.16 679.62,546.56 682.58,542.96 685.52,532.07 688.46,519.98 691.41,507.88 694.35,495.78 697.29,485.85 700.25,477.52 703.19,469.20 706.13,460.88 709.08,455.32 712.03,456.64 714.97,457.96 717.92,459.28 720.86,460.60 723.80,463.97 726.76,467.34 729.70,470.71 732.64,474.09 735.59,476.39 738.53,478.27 741.48,480.15 744.43,482.03 747.37,483.32 750.31,483.79 753.27,484.27 756.21,484.75 759.15,485.10 762.10,484.65 765.04,484.19 767.98,483.74 770.94,483.28 773.88,482.31 776.82,481.26 779.77,480.21 782.72,479.15 785.66,477.93 788.61,476.58 791.55,475.23 794.49,473.88 797.45,472.58 800.39,471.40 803.33,470.23 806.28,469.04 809.22,467.87 812.17,467.83 815.12,467.80 818.06,467.76 821.00,467.72 823.96,470.73 826.90,474.97 829.84,479.21 832.79,483.44 835.73,490.17 838.67,500.23 841.63,510.29 844.57,520.35 847.51,529.88 850.46,536.27 853.41,542.65 856.35,549.03 859.30,555.42 862.24,556.40 865.18,556.49 868.14,556.58 871.08,556.66 874.02,556.64 876.97,556.53 879.91,556.43 882.85,556.32 885.81,556.21 888.75,556.08 891.69,555.96 894.65,555.83 897.59,555.71 900.53,555.63 903.48,555.55 906.42,555.48 909.36,555.40 912.32,555.39 915.26,555.40 918.20,555.41 921.15,555.42 924.09,555.52 927.04,555.72 929.99,555.93 932.93,556.14 935.87,555.86 938.83,552.66 941.77,549.46 944.71,546.27 947.66,543.07 950.60,538.56 953.54,533.82 956.50,529.09 959.44,524.36 962.38,521.53 965.33,520.13 968.28,518.72 971.22,517.32 974.17,516.50 977.11,517.12 980.05,517.74 983.01,518.36 985.95,518.98 988.89,520.77 991.84,522.56 994.78,524.34 997.73,526.13 1000.68,527.89 1003.62,529.65 1006.56,531.41 1009.52,533.17 1012.46,534.50 1015.40,535.27 1018.35,536.03 1021.29,536.79 1024.23,537.46 1027.19,537.53 1030.13,537.60 1033.07,537.68 1036.02,537.75 1038.97,537.90 1041.91,538.07 1044.86,538.24 1047.80,538.41 1050.74,539.45 1053.70,541.13 1056.64,542.82 1059.58,544.51 1062.53,546.13 1065.47,547.60 1068.42,549.07 1071.37,550.53 1074.31,552.00" fill="none" stroke="#555555" stroke-width="3" stroke-dasharray="9 5"/>
<line x1="142" y1="128" x2="178" y2="128" stroke="#555555" stroke-width="4" stroke-dasharray="9 5"/>
<text x="188" y="133" font-family="Arial" font-size="18" fill="black">Uy / v</text>
<polyline points="190.69,505.25 193.64,508.38 196.58,511.50 199.53,514.63 202.47,517.75 205.42,522.94 208.36,528.96 211.31,534.98 214.25,541.00 217.20,546.94 220.14,552.77 223.09,558.61 226.03,564.44 228.98,570.29 231.93,576.26 234.87,582.24 237.82,588.21 240.76,594.18 243.71,600.19 246.65,606.20 249.60,612.21 252.54,618.22 255.49,623.55 258.43,628.38 261.38,633.20 264.32,638.03 267.27,641.33 270.22,640.84 273.16,640.33 276.11,639.83 279.05,639.33 282.00,628.11 284.94,616.88 287.89,605.65 290.83,594.42 293.78,572.19 296.72,545.57 299.67,518.94 302.62,492.32 305.56,456.10 308.51,407.08 311.45,358.07 314.40,309.05 317.34,262.39 320.29,229.86 323.23,197.33 326.17,164.80 329.13,132.27 332.07,126.42 335.01,125.01 337.96,123.61 340.91,122.20 343.85,121.48 346.80,121.27 349.74,121.06 352.68,120.85 355.64,120.70 358.58,120.69 361.52,120.68 364.47,120.66 367.41,120.65 370.35,120.91 373.31,121.17 376.25,121.43 379.19,121.69 382.15,122.22 385.09,122.85 388.03,123.48 390.98,124.11 393.92,125.48 396.86,127.80 399.82,130.13 402.76,132.46 405.70,139.27 408.65,172.96 411.59,206.65 414.54,240.34 417.49,274.03 420.43,321.77 423.37,371.87 426.33,421.96 429.27,472.06 432.21,508.19 435.16,533.86 438.10,559.54 441.04,585.21 444.00,605.75 446.94,613.48 449.88,621.21 452.83,628.93 455.78,636.66 458.72,634.51 461.67,632.37 464.61,630.23 467.55,628.08 470.51,623.50 473.45,617.95 476.39,612.40 479.34,606.84 482.28,601.31 485.23,595.80 488.18,590.29 491.12,584.78 494.06,579.61 497.02,576.43 499.96,573.25 502.90,570.08 505.85,566.90 508.79,568.09 511.73,570.00 514.69,571.92 517.63,573.83 520.57,578.25 523.52,584.54 526.47,590.83 529.41,597.13 532.36,603.11 535.30,608.31 538.24,613.51 541.20,618.71 544.14,623.91 547.08,622.54 550.03,621.19 552.97,619.83 555.92,618.47 558.87,605.39 561.81,587.62 564.75,569.85 567.71,552.08 570.65,518.18 573.59,462.77 576.54,407.35 579.48,351.93 582.42,298.42 585.38,256.41 588.32,214.40 591.26,172.38 594.21,130.36 597.16,123.17 600.10,121.78 603.05,120.38 605.99,118.99 608.93,118.45 611.89,118.55 614.83,118.65 617.77,118.75 620.72,118.85 623.66,118.97 626.60,119.09 629.56,119.20 632.50,119.31 635.44,119.61 638.40,119.89 641.34,120.18 644.28,120.46 647.23,120.92 650.17,121.42 653.11,121.94 656.07,122.45 659.01,123.57 661.95,125.51 664.90,127.44 667.84,129.38 670.79,135.58 673.74,167.34 676.68,199.10 679.62,230.86 682.58,262.62 685.52,307.16 688.46,353.83 691.41,400.51 694.35,447.18 697.29,480.28 700.25,503.20 703.19,526.12 706.13,549.04 709.08,568.09 712.03,577.45 714.97,586.81 717.92,596.17 720.86,605.53 723.80,608.76 726.76,611.99 729.70,615.22 732.64,618.45 735.59,618.62 738.53,617.57 741.48,616.52 744.43,615.47 747.37,613.56 750.31,610.50 753.27,607.43 756.21,604.36 759.15,601.24 762.10,597.78 765.04,594.33 767.98,590.87 770.94,587.41 773.88,584.16 776.82,580.94 779.77,577.72 782.72,574.50 785.66,571.62 788.61,568.99 791.55,566.36 794.49,563.74 797.45,561.39 800.39,559.77 803.33,558.15 806.28,556.53 809.22,554.90 812.17,551.56 815.12,548.21 818.06,544.86 821.00,541.51 823.96,527.09 826.90,508.24 829.84,489.39 832.79,470.54 835.73,440.60 838.67,395.87 841.63,351.14 844.57,306.42 847.51,263.76 850.46,233.51 853.41,203.26 856.35,173.01 859.30,142.77 862.24,136.96 865.18,135.23 868.14,133.50 871.08,131.77 874.02,130.88 876.97,130.61 879.91,130.34 882.85,130.08 885.81,129.87 888.75,129.80 891.69,129.72 894.65,129.65 897.59,129.57 900.53,129.47 903.48,129.35 906.42,129.25 909.36,129.14 912.32,128.67 915.26,128.05 918.20,127.43 921.15,126.81 924.09,126.21 927.04,125.63 929.99,125.05 932.93,124.47 935.87,129.49 938.83,168.06 941.77,206.64 944.71,245.23 947.66,283.80 950.60,336.06 953.54,390.60 956.50,445.14 959.44,499.68 962.38,536.17 965.33,559.12 968.28,582.08 971.22,605.03 974.17,624.10 977.11,633.46 980.05,642.83 983.01,652.19 985.95,661.55 988.89,661.55 991.84,661.55 994.78,661.55 997.73,661.55 1000.68,657.99 1003.62,653.02 1006.56,648.05 1009.52,643.07 1012.46,638.49 1015.40,634.42 1018.35,630.35 1021.29,626.28 1024.23,622.48 1027.19,620.33 1030.13,618.19 1033.07,616.04 1036.02,613.89 1038.97,612.37 1041.91,610.96 1044.86,609.55 1047.80,608.13 1050.74,605.80 1053.70,602.77 1056.64,599.73 1059.58,596.70 1062.53,593.87 1065.47,591.53 1068.42,589.19 1071.37,586.85 1074.31,584.50" fill="none" stroke="#999999" stroke-width="3" stroke-dasharray="3 4"/>
<line x1="142" y1="156" x2="178" y2="156" stroke="#999999" stroke-width="4" stroke-dasharray="3 4"/>
<text x="188" y="161" font-family="Arial" font-size="18" fill="black">Uz / w</text>
</svg>