<svg xmlns="http://www.w3.org/2000/svg" width="1200" height="820" viewBox="0 0 1200 820">
<rect width="100%" height="100%" fill="white"/>
<text x="600.0" y="36" text-anchor="middle" font-family="Arial" font-size="24" fill="black">profile_center_y: U, V, W components</text>
<line x1="120.00" y1="75" x2="120.00" y2="705" stroke="#dddddd" stroke-width="1"/>
<text x="120.00" y="737" text-anchor="middle" font-family="Arial" font-size="16" fill="black">-0.400</text>
<line x1="376.25" y1="75" x2="376.25" y2="705" stroke="#dddddd" stroke-width="1"/>
<text x="376.25" y="737" text-anchor="middle" font-family="Arial" font-size="16" fill="black">1.050</text>
<line x1="632.50" y1="75" x2="632.50" y2="705" stroke="#dddddd" stroke-width="1"/>
<text x="632.50" y="737" text-anchor="middle" font-family="Arial" font-size="16" fill="black">2.500</text>
<line x1="888.75" y1="75" x2="888.75" y2="705" stroke="#dddddd" stroke-width="1"/>
<text x="888.75" y="737" text-anchor="middle" font-family="Arial" font-size="16" fill="black">3.950</text>
<line x1="1145.00" y1="75" x2="1145.00" y2="705" stroke="#dddddd" stroke-width="1"/>
<text x="1145.00" y="737" text-anchor="middle" font-family="Arial" font-size="16" fill="black">5.400</text>
<line x1="120" y1="705.00" x2="1145" y2="705.00" stroke="#dddddd" stroke-width="1"/>
<text x="104" y="710.00" text-anchor="end" font-family="Arial" font-size="16" fill="black">-0.475</text>
<line x1="120" y1="547.50" x2="1145" y2="547.50" stroke="#dddddd" stroke-width="1"/>
<text x="104" y="552.50" text-anchor="end" font-family="Arial" font-size="16" fill="black">-0.264</text>
<line x1="120" y1="390.00" x2="1145" y2="390.00" stroke="#dddddd" stroke-width="1"/>
<text x="104" y="395.00" text-anchor="end" font-family="Arial" font-size="16" fill="black">-0.053</text>
<line x1="120" y1="232.50" x2="1145" y2="232.50" stroke="#dddddd" stroke-width="1"/>
<text x="104" y="237.50" text-anchor="end" font-family="Arial" font-size="16" fill="black">0.157</text>
<line x1="120" y1="75.00" x2="1145" y2="75.00" stroke="#dddddd" stroke-width="1"/>
<text x="104" y="80.00" text-anchor="end" font-family="Arial" font-size="16" fill="black">0.368</text>
<rect x="120" y="75" width="1025" height="630" fill="none" stroke="black" stroke-width="2"/>
<text x="632.5" y="785" text-anchor="middle" font-family="Arial" font-size="20" fill="black">y coordinate [m]</text>
<text x="34" y="390.0" transform="rotate(-90 34 390.0)" text-anchor="middle" font-family="Arial" font-size="20" fill="black">velocity component [m/s]</text>
<polyline points="190.69,557.10 193.64,557.10 196.58,557.10 199.53,557.10 202.47,557.10 205.42,557.11 208.36,557.11 211.31,555.82 214.25,554.53 217.20,553.24 220.14,551.95 223.09,550.67 226.03,549.38 228.98,546.37 231.92,543.37 234.87,540.36 237.82,537.34 240.76,534.34 243.71,531.33 246.65,527.65 249.60,523.96 252.54,520.28 255.49,516.59 258.43,512.91 261.38,509.23 264.33,505.18 267.27,501.13 270.22,497.07 273.16,493.02 276.11,488.97 279.05,484.91 282.00,480.70 284.94,476.48 287.89,472.26 290.83,468.04 293.78,463.83 296.72,459.61 299.67,455.31 302.61,451.02 305.56,446.72 308.51,442.43 311.45,438.14 314.40,433.85 317.34,429.40 320.29,424.96 323.23,420.51 326.18,416.06 329.12,411.62 332.07,407.17 335.01,402.56 337.96,397.95 340.91,393.33 343.85,388.72 346.80,384.10 349.74,379.49 352.69,374.98 355.63,370.47 358.58,365.96 361.52,361.46 364.47,356.95 367.41,352.44 370.37,348.47 373.30,344.50 376.25,340.53 379.20,336.55 382.13,332.58 385.09,328.61 388.04,325.48 390.97,322.35 393.92,319.22 396.87,316.09 399.81,312.96 402.76,309.82 405.71,307.58 408.64,305.35 411.59,303.11 414.55,300.87 417.48,298.63 420.43,296.39 423.38,295.00 426.32,293.60 429.27,292.21 432.22,290.81 435.15,289.42 438.10,288.02 441.05,287.46 443.99,286.90 446.94,286.34 449.89,285.77 452.82,285.21 455.78,284.65 458.73,285.01 461.66,285.36 464.61,285.72 467.56,286.08 470.50,286.43 473.45,286.79 476.40,288.23 479.33,289.66 482.28,291.10 485.24,292.53 488.17,293.97 491.12,295.40 494.07,298.08 497.01,300.76 499.96,303.44 502.91,306.11 505.84,308.79 508.79,311.47 511.74,315.42 514.68,319.38 517.63,323.33 520.58,327.28 523.51,331.23 526.47,335.19 529.42,340.11 532.35,345.03 535.30,349.96 538.25,354.88 541.19,359.81 544.14,364.73 547.09,369.89 550.02,375.04 552.97,380.19 555.93,385.34 558.86,390.50 561.81,395.65 564.76,400.00 567.70,404.34 570.65,408.69 573.60,413.04 576.53,417.38 579.48,421.73 582.43,424.58 585.37,427.43 588.32,430.28 591.27,433.12 594.20,435.98 597.16,438.83 600.11,440.08 603.04,441.34 605.99,442.59 608.94,443.85 611.88,445.11 614.83,446.37 617.78,446.17 620.71,445.97 623.66,445.77 626.62,445.58 629.55,445.39 632.50,445.19 635.45,443.76 638.38,442.33 641.34,440.90 644.29,439.47 647.22,438.04 650.17,436.61 653.12,434.19 656.06,431.76 659.01,429.34 661.96,426.91 664.89,424.48 667.84,422.05 670.80,418.85 673.73,415.65 676.68,412.45 679.63,409.25 682.57,406.05 685.52,402.85 688.47,399.08 691.40,395.31 694.35,391.54 697.30,387.78 700.24,384.01 703.19,380.24 706.14,376.15 709.07,372.06 712.03,367.96 714.98,363.87 717.91,359.78 720.86,355.68 723.81,351.61 726.75,347.53 729.70,343.45 732.65,339.37 735.58,335.29 738.53,331.22 741.49,327.55 744.42,323.89 747.37,320.22 750.32,316.56 753.26,312.90 756.21,309.23 759.16,306.36 762.09,303.48 765.04,300.60 767.99,297.73 770.93,294.85 773.88,291.97 776.83,290.16 779.76,288.34 782.72,286.52 785.67,284.70 788.60,282.89 791.55,281.07 794.50,280.40 797.44,279.73 800.39,279.06 803.34,278.39 806.27,277.72 809.22,277.05 812.18,277.43 815.11,277.81 818.06,278.19 821.01,278.56 823.95,278.94 826.90,279.32 829.85,280.50 832.78,281.68 835.73,282.86 838.68,284.04 841.62,285.22 844.57,286.40 847.52,288.05 850.45,289.69 853.41,291.34 856.36,292.99 859.29,294.64 862.24,296.29 865.19,298.06 868.13,299.83 871.08,301.60 874.03,303.36 876.96,305.13 879.91,306.90 882.87,308.48 885.80,310.07 888.75,311.65 891.70,313.24 894.63,314.82 897.59,316.41 900.54,317.64 903.47,318.88 906.42,320.11 909.37,321.35 912.31,322.58 915.26,323.82 918.21,324.70 921.14,325.57 924.09,326.45 927.05,327.33 929.98,328.20 932.93,329.08 935.88,329.68 938.82,330.28 941.77,330.88 944.72,331.48 947.65,332.07 950.60,332.67 953.55,333.09 956.49,333.52 959.44,333.94 962.39,334.36 965.32,334.78 968.28,335.20 971.23,335.53 974.16,335.86 977.11,336.19 980.06,336.52 983.00,336.85 985.95,337.18 988.90,337.48 991.83,337.79 994.78,338.09 997.74,338.40 1000.67,338.70 1003.62,339.00 1006.57,339.31 1009.51,339.61 1012.46,339.91 1015.41,340.22 1018.34,340.52 1021.29,340.82 1024.24,341.09 1027.18,341.36 1030.13,341.63 1033.08,341.90 1036.01,342.16 1038.97,342.43 1041.92,342.57 1044.85,342.70 1047.80,342.84 1050.75,342.98 1053.69,343.11 1056.64,343.25 1059.59,343.27 1062.52,343.29 1065.47,343.31 1068.43,343.33 1071.36,343.35 1074.31,343.37" fill="none" stroke="#000000" stroke-width="3"/>
<line x1="142" y1="100" x2="178" y2="100" stroke="#000000" stroke-width="4"/>
<text x="188" y="105" font-family="Arial" font-size="18" fill="black">Ux / u</text>
<polyline points="190.69,348.25 193.64,347.84 196.58,347.43 199.53,347.02 202.47,346.61 205.42,346.19 208.36,345.78 211.31,345.00 214.25,344.21 217.20,343.43 220.14,342.64 223.09,341.86 226.03,341.08 228.98,340.24 231.92,339.41 234.87,338.58 237.82,337.75 240.76,336.91 243.71,336.08 246.65,335.09 249.60,334.11 252.54,333.12 255.49,332.14 258.43,331.15 261.38,330.17 264.33,328.99 267.27,327.81 270.22,326.63 273.16,325.45 276.11,324.27 279.05,323.10 282.00,321.65 284.94,320.19 287.89,318.74 290.83,317.29 293.78,315.84 296.72,314.39 299.67,312.68 302.61,310.97 305.56,309.26 308.51,307.56 311.45,305.85 314.40,304.14 317.34,302.34 320.29,300.55 323.23,298.75 326.18,296.95 329.12,295.16 332.07,293.36 335.01,291.79 337.96,290.22 340.91,288.65 343.85,287.08 346.80,285.51 349.74,283.94 352.69,282.84 355.63,281.73 358.58,280.62 361.52,279.52 364.47,278.41 367.41,277.30 370.37,276.74 373.30,276.17 376.25,275.60 379.20,275.04 382.13,274.47 385.09,273.90 388.04,273.87 390.97,273.84 393.92,273.81 396.87,273.78 399.81,273.75 402.76,273.72 405.71,274.19 408.64,274.67 411.59,275.14 414.55,275.62 417.48,276.10 420.43,276.57 423.38,277.53 426.32,278.50 429.27,279.46 432.22,280.42 435.15,281.38 438.10,282.34 441.05,283.75 443.99,285.16 446.94,286.57 449.89,287.98 452.82,289.38 455.78,290.79 458.73,292.55 461.66,294.32 464.61,296.08 467.56,297.84 470.50,299.60 473.45,301.36 476.40,303.31 479.33,305.25 482.28,307.19 485.24,309.13 488.17,311.08 491.12,313.02 494.07,314.89 497.01,316.76 499.96,318.62 502.91,320.49 505.84,322.36 508.79,324.23 511.74,325.70 514.68,327.18 517.63,328.65 520.58,330.12 523.51,331.60 526.47,333.07 529.42,333.80 532.35,334.53 535.30,335.26 538.25,335.99 541.19,336.72 544.14,337.45 547.09,337.19 550.02,336.93 552.97,336.67 555.93,336.41 558.86,336.15 561.81,335.89 564.76,334.73 567.70,333.56 570.65,332.39 573.60,331.22 576.53,330.05 579.48,328.88 582.43,327.18 585.37,325.49 588.32,323.79 591.27,322.10 594.20,320.40 597.16,318.71 600.11,316.89 603.04,315.08 605.99,313.26 608.94,311.45 611.88,309.63 614.83,307.82 617.78,306.20 620.71,304.58 623.66,302.95 626.62,301.33 629.55,299.71 632.50,298.09 635.45,296.89 638.38,295.70 641.34,294.50 644.29,293.31 647.22,292.11 650.17,290.92 653.12,290.30 656.06,289.68 659.01,289.06 661.96,288.44 664.89,287.81 667.84,287.19 670.80,287.22 673.73,287.24 676.68,287.26 679.63,287.28 682.57,287.30 685.52,287.33 688.47,288.02 691.40,288.72 694.35,289.42 697.30,290.12 700.24,290.82 703.19,291.51 706.14,292.85 709.07,294.18 712.03,295.51 714.98,296.84 717.91,298.17 720.86,299.50 723.81,301.33 726.75,303.16 729.70,305.00 732.65,306.83 735.58,308.66 738.53,310.50 741.49,312.63 744.42,314.77 747.37,316.91 750.32,319.05 753.26,321.19 756.21,323.33 759.16,325.57 762.09,327.80 765.04,330.04 767.99,332.27 770.93,334.51 773.88,336.74 776.83,338.93 779.76,341.12 782.72,343.31 785.67,345.50 788.60,347.68 791.55,349.87 794.50,351.90 797.44,353.94 800.39,355.97 803.34,358.01 806.27,360.04 809.22,362.07 812.18,363.86 815.11,365.64 818.06,367.42 821.01,369.21 823.95,370.99 826.90,372.78 829.85,374.21 832.78,375.65 835.73,377.09 838.68,378.53 841.62,379.96 844.57,381.40 847.52,382.40 850.45,383.40 853.41,384.41 856.36,385.41 859.29,386.41 862.24,387.41 865.19,387.92 868.13,388.43 871.08,388.93 874.03,389.44 876.96,389.95 879.91,390.46 882.87,390.51 885.80,390.56 888.75,390.61 891.70,390.65 894.63,390.70 897.59,390.75 900.54,390.43 903.47,390.12 906.42,389.80 909.37,389.48 912.31,389.16 915.26,388.84 918.21,388.22 921.14,387.60 924.09,386.97 927.05,386.35 929.98,385.73 932.93,385.11 935.88,384.22 938.82,383.34 941.77,382.45 944.72,381.57 947.65,380.69 950.60,379.80 953.55,378.72 956.49,377.63 959.44,376.54 962.39,375.45 965.32,374.37 968.28,373.28 971.23,372.07 974.16,370.86 977.11,369.66 980.06,368.45 983.00,367.24 985.95,366.04 988.90,364.83 991.83,363.62 994.78,362.41 997.74,361.21 1000.67,360.00 1003.62,358.79 1006.57,357.74 1009.51,356.68 1012.46,355.62 1015.41,354.56 1018.34,353.51 1021.29,352.45 1024.24,351.76 1027.18,351.07 1030.13,350.38 1033.08,349.69 1036.01,349.00 1038.97,348.31 1041.92,348.11 1044.85,347.90 1047.80,347.70 1050.75,347.49 1053.69,347.28 1056.64,347.08 1059.59,347.09 1062.52,347.11 1065.47,347.12 1068.43,347.13 1071.36,347.15 1074.31,347.16" fill="none" stroke="#555555" stroke-width="3" stroke-dasharray="9 5"/>
<line x1="142" y1="128" x2="178" y2="128" stroke="#555555" stroke-width="4" stroke-dasharray="9 5"/>
<text x="188" y="133" font-family="Arial" font-size="18" fill="black">Uy / v</text>
<polyline points="190.69,661.55 193.64,659.90 196.58,658.26 199.53,656.61 202.47,654.96 205.42,653.31 208.36,651.66 211.31,648.01 214.25,644.36 217.20,640.71 220.14,637.06 223.09,633.40 226.03,629.76 228.98,625.43 231.92,621.11 234.87,616.79 237.82,612.46 240.76,608.14 243.71,603.82 246.65,598.61 249.60,593.42 252.54,588.22 255.49,583.03 258.43,577.83 261.38,572.63 264.33,566.12 267.27,559.60 270.22,553.10 273.16,546.58 276.11,540.06 279.05,533.56 282.00,525.46 284.94,517.36 287.89,509.26 290.83,501.16 293.78,493.06 296.72,484.96 299.67,475.34 302.61,465.73 305.56,456.10 308.51,446.48 311.45,436.87 314.40,427.25 317.34,416.55 320.29,405.86 323.23,395.16 326.18,384.46 329.12,373.76 332.07,363.07 335.01,351.98 337.96,340.89 340.91,329.81 343.85,318.72 346.80,307.64 349.74,296.55 352.69,285.93 355.63,275.32 358.58,264.71 361.52,254.09 364.47,243.47 367.41,232.86 370.37,224.03 373.30,215.20 376.25,206.36 379.20,197.53 382.13,188.71 385.09,179.88 388.04,173.86 390.97,167.85 393.92,161.83 396.87,155.81 399.81,149.79 402.76,143.78 405.71,140.55 408.64,137.32 411.59,134.09 414.55,130.87 417.48,127.64 420.43,124.41 423.38,123.42 426.32,122.42 429.27,121.43 432.22,120.44 435.15,119.44 438.10,118.45 441.05,119.06 443.99,119.67 446.94,120.29 449.89,120.90 452.82,121.51 455.78,122.12 458.73,123.93 461.66,125.73 464.61,127.53 467.56,129.34 470.50,131.14 473.45,132.94 476.40,135.89 479.33,138.83 482.28,141.78 485.24,144.73 488.17,147.67 491.12,150.62 494.07,155.06 497.01,159.51 499.96,163.95 502.91,168.39 505.84,172.83 508.79,177.28 511.74,183.80 514.68,190.32 517.63,196.84 520.58,203.37 523.51,209.89 526.47,216.41 529.42,225.28 532.35,234.15 535.30,243.02 538.25,251.89 541.19,260.76 544.14,269.63 547.09,279.79 550.02,289.96 552.97,300.12 555.93,310.28 558.86,320.44 561.81,330.61 564.76,340.05 567.70,349.49 570.65,358.94 573.60,368.38 576.53,377.82 579.48,387.26 582.43,394.28 585.37,401.30 588.32,408.32 591.27,415.34 594.20,422.36 597.16,429.38 600.11,433.09 603.04,436.80 605.99,440.51 608.94,444.22 611.88,447.93 614.83,451.64 617.78,452.05 620.71,452.45 623.66,452.87 626.62,453.28 629.55,453.69 632.50,454.09 635.45,451.77 638.38,449.47 641.34,447.15 644.29,444.83 647.22,442.52 650.17,440.21 653.12,435.96 656.06,431.72 659.01,427.48 661.96,423.23 664.89,418.99 667.84,414.75 670.80,409.29 673.73,403.82 676.68,398.36 679.63,392.90 682.57,387.44 685.52,381.98 688.47,375.78 691.40,369.57 694.35,363.37 697.30,357.17 700.24,350.96 703.19,344.76 706.14,338.22 709.07,331.67 712.03,325.13 714.98,318.59 717.91,312.04 720.86,305.50 723.81,299.36 726.75,293.22 729.70,287.07 732.65,280.93 735.58,274.79 738.53,268.65 741.49,263.50 744.42,258.35 747.37,253.19 750.32,248.04 753.26,242.88 756.21,237.73 759.16,233.53 762.09,229.33 765.04,225.14 767.99,220.94 770.93,216.74 773.88,212.55 776.83,209.11 779.76,205.67 782.72,202.22 785.67,198.79 788.60,195.34 791.55,191.91 794.50,189.10 797.44,186.28 800.39,183.47 803.34,180.66 806.27,177.84 809.22,175.03 812.18,172.88 815.11,170.72 818.06,168.57 821.01,166.41 823.95,164.25 826.90,162.10 829.85,160.75 832.78,159.42 835.73,158.07 838.68,156.73 841.62,155.40 844.57,154.05 847.52,153.78 850.45,153.49 853.41,153.22 856.36,152.94 859.29,152.66 862.24,152.38 865.19,153.37 868.13,154.37 871.08,155.37 874.03,156.37 876.96,157.36 879.91,158.36 882.87,160.52 885.80,162.67 888.75,164.83 891.70,166.98 894.63,169.13 897.59,171.29 900.54,173.65 903.47,176.02 906.42,178.38 909.37,180.74 912.31,183.11 915.26,185.47 918.21,187.20 921.14,188.93 924.09,190.66 927.05,192.39 929.98,194.12 932.93,195.84 935.88,196.93 938.82,198.02 941.77,199.10 944.72,200.19 947.65,201.28 950.60,202.36 953.55,202.93 956.49,203.52 959.44,204.09 962.39,204.67 965.32,205.24 968.28,205.82 971.23,205.96 974.16,206.10 977.11,206.24 980.06,206.39 983.00,206.53 985.95,206.67 988.90,206.39 991.83,206.10 994.78,205.82 997.74,205.53 1000.67,205.25 1003.62,204.97 1006.57,204.29 1009.51,203.61 1012.46,202.93 1015.41,202.25 1018.34,201.57 1021.29,200.89 1024.24,200.06 1027.18,199.21 1030.13,198.38 1033.08,197.53 1036.01,196.70 1038.97,195.85 1041.92,195.91 1044.85,195.96 1047.80,196.02 1050.75,196.08 1053.69,196.13 1056.64,196.19 1059.59,196.66 1062.52,197.12 1065.47,197.59 1068.43,198.06 1071.36,198.53 1074.31,198.99" fill="none" stroke="#999999" stroke-width="3" stroke-dasharray="3 4"/>
<line x1="142" y1="156" x2="178" y2="156" stroke="#999999" stroke-width="4" stroke-dasharray="3 4"/>
<text x="188" y="161" font-family="Arial" font-size="18" fill="black">Uz / w</text>
</svg>