<svg xmlns="http://www.w3.org/2000/svg" width="1200" height="820" viewBox="0 0 1200 820">
<rect width="100%" height="100%" fill="white"/>
<text x="600.0" y="36" text-anchor="middle" font-family="Arial" font-size="24" fill="black">profile_center_y: T</text>
<line x1="120.00" y1="75" x2="120.00" y2="705" stroke="#dddddd" stroke-width="1"/>
<text x="120.00" y="737" text-anchor="middle" font-family="Arial" font-size="16" fill="black">-0.400</text>
<line x1="376.25" y1="75" x2="376.25" y2="705" stroke="#dddddd" stroke-width="1"/>
<text x="376.25" y="737" text-anchor="middle" font-family="Arial" font-size="16" fill="black">1.050</text>
<line x1="632.50" y1="75" x2="632.50" y2="705" stroke="#dddddd" stroke-width="1"/>
<text x="632.50" y="737" text-anchor="middle" font-family="Arial" font-size="16" fill="black">2.500</text>
<line x1="888.75" y1="75" x2="888.75" y2="705" stroke="#dddddd" stroke-width="1"/>
<text x="888.75" y="737" text-anchor="middle" font-family="Arial" font-size="16" fill="black">3.950</text>
<line x1="1145.00" y1="75" x2="1145.00" y2="705" stroke="#dddddd" stroke-width="1"/>
<text x="1145.00" y="737" text-anchor="middle" font-family="Arial" font-size="16" fill="black">5.400</text>
<line x1="120" y1="705.00" x2="1145" y2="705.00" stroke="#dddddd" stroke-width="1"/>
<text x="104" y="710.00" text-anchor="end" font-family="Arial" font-size="16" fill="black">300.9</text>
<line x1="120" y1="547.50" x2="1145" y2="547.50" stroke="#dddddd" stroke-width="1"/>
<text x="104" y="552.50" text-anchor="end" font-family="Arial" font-size="16" fill="black">305.1</text>
<line x1="120" y1="390.00" x2="1145" y2="390.00" stroke="#dddddd" stroke-width="1"/>
<text x="104" y="395.00" text-anchor="end" font-family="Arial" font-size="16" fill="black">309.2</text>
<line x1="120" y1="232.50" x2="1145" y2="232.50" stroke="#dddddd" stroke-width="1"/>
<text x="104" y="237.50" text-anchor="end" font-family="Arial" font-size="16" fill="black">313.3</text>
<line x1="120" y1="75.00" x2="1145" y2="75.00" stroke="#dddddd" stroke-width="1"/>
<text x="104" y="80.00" text-anchor="end" font-family="Arial" font-size="16" fill="black">317.4</text>
<rect x="120" y="75" width="1025" height="630" fill="none" stroke="black" stroke-width="2"/>
<text x="632.5" y="785" text-anchor="middle" font-family="Arial" font-size="20" fill="black">y coordinate [m]</text>
<text x="34" y="390.0" transform="rotate(-90 34 390.0)" text-anchor="middle" font-family="Arial" font-size="20" fill="black">T [K]</text>
<polyline points="190.69,417.37 193.64,418.90 196.58,420.04 199.53,421.58 202.47,422.72 205.42,423.87 208.36,425.40 211.31,427.32 214.25,429.23 217.20,431.14 220.14,433.06 223.09,434.97 226.03,436.89 228.98,438.03 231.92,438.80 234.87,439.56 237.82,440.33 240.76,441.10 243.71,441.86 246.65,441.86 249.60,441.86 252.54,441.86 255.49,441.86 258.43,441.86 261.38,441.86 264.33,441.48 267.27,441.10 270.22,440.71 273.16,439.95 276.11,439.56 279.05,439.18 282.00,438.80 284.94,438.03 287.89,437.65 290.83,437.27 293.78,436.50 296.72,436.12 299.67,435.74 302.61,434.97 305.56,434.59 308.51,434.21 311.45,433.44 314.40,433.06 317.34,432.29 320.29,431.53 323.23,430.76 326.18,430.00 329.12,429.61 332.07,428.85 335.01,426.55 337.96,424.64 340.91,422.34 343.85,420.43 346.80,418.51 349.74,416.22 352.69,410.48 355.63,405.12 358.58,399.38 361.52,393.64 364.47,387.89 367.41,382.15 370.37,374.88 373.30,367.23 376.25,359.57 379.20,351.92 382.13,344.26 385.09,336.61 388.04,330.10 390.97,323.60 393.92,317.09 396.87,310.58 399.81,304.08 402.76,297.57 405.71,291.83 408.64,286.09 411.59,280.35 414.55,274.99 417.48,269.25 420.43,263.51 423.38,258.91 426.32,253.94 429.27,248.96 432.22,243.99 435.15,239.01 438.10,234.42 441.05,229.82 443.99,225.61 446.94,221.40 449.89,216.81 452.82,212.60 455.78,208.01 458.73,204.18 461.66,200.35 464.61,196.53 467.56,192.70 470.50,188.87 473.45,185.04 476.40,181.60 479.33,178.54 482.28,175.48 485.24,172.41 488.17,169.35 491.12,165.91 494.07,164.38 497.01,162.46 499.96,160.93 502.91,159.02 505.84,157.49 508.79,155.96 511.74,156.72 514.68,157.49 517.63,158.64 520.58,159.40 523.51,160.55 526.47,161.31 529.42,166.29 532.35,171.65 535.30,176.62 538.25,181.60 541.19,186.96 544.14,191.93 547.09,198.44 550.02,205.33 552.97,211.84 555.93,218.73 558.86,225.23 561.81,232.12 564.76,237.10 567.70,242.07 570.65,247.43 573.60,252.41 576.53,257.38 579.48,262.74 582.43,266.18 585.37,270.01 588.32,273.46 591.27,277.28 594.20,281.11 597.16,284.56 600.11,286.47 603.04,288.77 605.99,290.68 608.94,292.59 611.88,294.89 614.83,296.80 617.78,297.19 620.71,297.95 623.66,298.33 626.62,299.10 629.55,299.48 632.50,299.87 635.45,299.48 638.38,298.72 641.34,297.95 644.29,297.19 647.22,296.80 650.17,296.04 653.12,294.12 656.06,292.59 659.01,291.06 661.96,289.15 664.89,287.62 667.84,285.70 670.80,283.03 673.73,279.96 676.68,277.28 679.63,274.22 682.57,271.54 685.52,268.48 688.47,263.89 691.40,259.30 694.35,255.09 697.30,250.49 700.24,245.90 703.19,241.31 706.14,234.03 709.07,226.76 712.03,219.87 714.98,212.60 717.91,205.33 720.86,198.06 723.81,190.79 726.75,183.51 729.70,176.24 732.65,168.97 735.58,161.31 738.53,154.04 741.49,149.83 744.42,145.24 747.37,140.65 750.32,136.44 753.26,131.84 756.21,127.63 759.16,126.10 762.09,124.57 765.04,123.04 767.99,121.51 770.93,119.98 773.88,118.45 776.83,119.60 779.76,120.36 782.72,121.51 785.67,122.28 788.60,123.42 791.55,124.19 794.50,127.25 797.44,129.93 800.39,132.99 803.34,136.05 806.27,138.73 809.22,141.80 812.18,146.01 815.11,150.22 818.06,154.43 821.01,158.64 823.95,162.85 826.90,167.44 829.85,172.80 832.78,178.16 835.73,183.90 838.68,189.25 841.62,194.61 844.57,200.35 847.52,206.86 850.45,213.75 853.41,220.64 856.36,227.53 859.29,234.42 862.24,241.31 865.19,250.11 868.13,258.53 871.08,267.33 874.03,276.14 876.96,284.94 879.91,293.74 882.87,305.22 885.80,316.71 888.75,327.81 891.70,339.29 894.63,350.77 897.59,362.25 900.54,373.35 903.47,384.45 906.42,395.17 909.37,406.27 912.31,417.37 915.26,428.47 918.21,436.12 921.14,443.77 924.09,451.81 927.05,459.47 929.98,467.12 932.93,474.78 935.88,480.90 938.82,486.64 941.77,492.38 944.72,498.51 947.65,504.25 950.60,509.99 953.55,514.96 956.49,519.94 959.44,524.53 962.39,529.51 965.32,534.10 968.28,539.08 971.23,543.29 974.16,547.50 977.11,551.71 980.06,555.92 983.00,560.13 985.95,564.34 988.90,568.55 991.83,572.37 994.78,576.20 997.74,580.41 1000.67,584.24 1003.62,588.07 1006.57,591.89 1009.51,595.72 1012.46,599.55 1015.41,603.38 1018.34,607.20 1021.29,611.03 1024.24,614.48 1027.18,617.92 1030.13,621.75 1033.08,625.19 1036.01,628.64 1038.97,632.46 1041.92,635.53 1044.85,638.97 1047.80,642.03 1050.75,645.48 1053.69,648.92 1056.64,651.98 1059.59,653.51 1062.52,655.43 1065.47,656.96 1068.43,658.49 1071.36,660.02 1074.31,661.55" fill="none" stroke="#000000" stroke-width="3"/>
<line x1="142" y1="100" x2="178" y2="100" stroke="#000000" stroke-width="4"/>
<text x="188" y="105" font-family="Arial" font-size="18" fill="black">T</text>
</svg>