<svg xmlns="http://www.w3.org/2000/svg" width="1200" height="820" viewBox="0 0 1200 820">
<rect width="100%" height="100%" fill="white"/>
<text x="600.0" y="36" text-anchor="middle" font-family="Arial" font-size="24" fill="black">profile_diagonal_supply_return: U, V, W components</text>
<line x1="120.00" y1="75" x2="120.00" y2="705" stroke="#dddddd" stroke-width="1"/>
<text x="120.00" y="737" text-anchor="middle" font-family="Arial" font-size="16" fill="black">-0.729</text>
<line x1="376.25" y1="75" x2="376.25" y2="705" stroke="#dddddd" stroke-width="1"/>
<text x="376.25" y="737" text-anchor="middle" font-family="Arial" font-size="16" fill="black">1.913</text>
<line x1="632.50" y1="75" x2="632.50" y2="705" stroke="#dddddd" stroke-width="1"/>
<text x="632.50" y="737" text-anchor="middle" font-family="Arial" font-size="16" fill="black">4.555</text>
<line x1="888.75" y1="75" x2="888.75" y2="705" stroke="#dddddd" stroke-width="1"/>
<text x="888.75" y="737" text-anchor="middle" font-family="Arial" font-size="16" fill="black">7.197</text>
<line x1="1145.00" y1="75" x2="1145.00" y2="705" stroke="#dddddd" stroke-width="1"/>
<text x="1145.00" y="737" text-anchor="middle" font-family="Arial" font-size="16" fill="black">9.839</text>
<line x1="120" y1="705.00" x2="1145" y2="705.00" stroke="#dddddd" stroke-width="1"/>
<text x="104" y="710.00" text-anchor="end" font-family="Arial" font-size="16" fill="black">-0.173</text>
<line x1="120" y1="547.50" x2="1145" y2="547.50" stroke="#dddddd" stroke-width="1"/>
<text x="104" y="552.50" text-anchor="end" font-family="Arial" font-size="16" fill="black">-0.072</text>
<line x1="120" y1="390.00" x2="1145" y2="390.00" stroke="#dddddd" stroke-width="1"/>
<text x="104" y="395.00" text-anchor="end" font-family="Arial" font-size="16" fill="black">0.029</text>
<line x1="120" y1="232.50" x2="1145" y2="232.50" stroke="#dddddd" stroke-width="1"/>
<text x="104" y="237.50" text-anchor="end" font-family="Arial" font-size="16" fill="black">0.130</text>
<line x1="120" y1="75.00" x2="1145" y2="75.00" stroke="#dddddd" stroke-width="1"/>
<text x="104" y="80.00" text-anchor="end" font-family="Arial" font-size="16" fill="black">0.231</text>
<rect x="120" y="75" width="1025" height="630" fill="none" stroke="black" stroke-width="2"/>
<text x="632.5" y="785" text-anchor="middle" font-family="Arial" font-size="20" fill="black">distance along sample line [m]</text>
<text x="34" y="390.0" transform="rotate(-90 34 390.0)" text-anchor="middle" font-family="Arial" font-size="20" fill="black">velocity component [m/s]</text>
<polyline points="190.69,505.80 193.64,513.28 196.58,520.70 199.53,528.05 202.47,535.34 205.42,547.78 208.36,562.22 211.31,576.28 214.25,590.25 217.20,602.97 220.14,614.04 223.09,624.14 226.03,634.12 228.98,641.80 231.93,644.55 234.87,647.30 237.82,650.09 240.76,652.92 243.71,652.17 246.65,650.23 249.60,648.43 252.54,646.26 255.49,642.81 258.43,638.42 261.38,634.04 264.32,629.44 267.27,624.67 270.22,619.29 273.16,613.74 276.11,607.98 279.05,601.97 282.00,596.53 284.94,590.88 287.88,584.94 290.83,578.69 293.78,573.02 296.73,567.26 299.67,561.47 302.62,555.21 305.57,549.14 308.50,543.46 311.45,537.80 314.40,531.60 317.34,525.92 320.29,521.10 323.24,515.74 326.18,509.83 329.12,503.38 332.07,497.79 335.01,493.25 337.96,488.29 340.91,483.40 343.85,478.85 346.80,474.54 349.74,469.86 352.68,466.45 355.63,463.08 358.58,460.41 361.53,457.54 364.47,454.49 367.42,451.28 370.36,451.12 373.30,450.76 376.25,450.23 379.20,449.57 382.14,449.43 385.09,449.56 388.04,451.24 390.97,452.86 393.92,454.62 396.87,456.65 399.81,458.97 402.76,461.36 405.71,464.87 408.65,468.28 411.59,471.72 414.54,475.22 417.48,478.81 420.43,481.95 423.38,485.76 426.32,489.63 429.27,493.72 432.21,497.11 435.16,500.00 438.10,502.96 441.05,506.36 444.00,509.30 446.94,511.00 449.89,512.75 452.84,514.57 455.77,516.47 458.72,516.55 461.67,516.63 464.61,516.75 467.56,516.91 470.51,515.51 473.45,513.45 476.39,511.62 479.34,509.84 482.28,507.23 485.23,503.48 488.18,499.78 491.12,496.15 494.07,492.81 497.01,488.37 499.96,484.13 502.90,480.11 505.85,476.34 508.80,472.22 511.74,468.98 514.69,466.14 517.63,464.13 520.57,462.67 523.52,461.71 526.47,461.26 529.41,462.06 532.36,463.59 535.31,465.99 538.24,468.91 541.19,472.37 544.14,476.37 547.08,482.06 550.03,488.23 552.98,494.90 555.92,502.08 558.86,509.86 561.81,518.08 564.76,525.72 567.70,533.68 570.65,541.89 573.60,550.29 576.54,559.46 579.49,568.95 582.43,576.26 585.37,583.41 588.32,590.70 591.27,598.14 594.21,605.76 597.16,613.23 600.11,617.16 603.04,621.16 605.99,624.67 608.94,628.05 611.88,631.26 614.83,634.43 617.78,634.32 620.72,634.23 623.66,634.01 626.61,633.82 629.55,633.70 632.50,633.65 635.45,629.91 638.40,626.34 641.34,622.94 644.28,619.74 647.23,616.58 650.17,613.52 653.12,608.74 656.07,604.20 659.01,599.78 661.96,595.40 664.90,590.71 667.84,586.28 670.79,580.53 673.74,574.66 676.68,569.04 679.63,563.68 682.58,558.56 685.51,552.99 688.46,546.42 691.41,540.12 694.35,533.90 697.30,527.34 700.25,520.57 703.20,514.02 706.14,507.06 709.08,500.06 712.03,492.43 714.97,485.07 717.92,478.00 720.87,471.19 723.81,463.09 726.76,455.36 729.70,447.98 732.64,440.93 735.59,433.11 738.54,425.15 741.48,417.67 744.43,410.56 747.38,403.18 750.31,395.31 753.26,387.97 756.21,380.94 759.15,374.34 762.10,366.94 765.05,359.88 767.99,353.15 770.93,346.73 773.88,339.70 776.83,333.11 779.77,326.87 782.72,321.12 785.67,315.24 788.61,309.36 791.55,303.78 794.50,298.67 797.44,293.76 800.39,288.90 803.34,284.37 806.28,280.15 809.23,276.21 812.17,272.68 815.11,269.45 818.06,266.49 821.01,263.78 823.95,261.55 826.90,259.66 829.85,257.74 832.79,256.04 835.73,254.70 838.68,253.80 841.63,253.36 844.57,253.10 847.52,252.52 850.47,252.44 853.41,252.47 856.35,252.61 859.30,252.82 862.24,253.61 865.19,253.97 868.14,254.38 871.08,255.59 874.03,257.28 876.97,259.33 879.91,261.44 882.86,263.07 885.81,264.91 888.75,267.19 891.70,269.50 894.65,271.87 897.58,274.27 900.53,277.63 903.48,280.97 906.43,284.28 909.37,287.59 912.32,290.97 915.27,294.43 918.20,297.58 921.15,300.77 924.10,304.02 927.04,307.38 929.99,310.96 932.94,314.46 935.88,317.48 938.82,320.41 941.77,323.38 944.71,326.41 947.66,329.52 950.61,332.56 953.55,335.31 956.50,338.30 959.44,340.29 962.38,342.15 965.33,344.02 968.28,346.16 971.22,347.90 974.17,350.03 977.12,352.77 980.06,356.32 983.00,360.80 985.95,366.31 988.90,371.82 991.84,380.18 994.79,391.58 997.74,406.22 1000.68,423.15 1003.62,442.59 1006.57,467.12 1009.51,494.03 1012.46,516.73 1015.41,530.92 1018.35,545.30 1021.30,557.46 1024.24,567.69 1027.18,568.38 1030.13,565.50 1033.08,559.10 1036.02,549.19 1038.97,546.56 1041.92,544.75 1044.86,541.63 1047.80,538.39 1050.75,534.61 1053.70,529.82 1056.64,523.33 1059.59,510.21 1062.54,498.79 1065.47,492.75 1068.42,486.44 1071.37,479.83 1074.31,472.88" fill="none" stroke="#000000" stroke-width="3"/>
<line x1="142" y1="100" x2="178" y2="100" stroke="#000000" stroke-width="4"/>
<text x="188" y="105" font-family="Arial" font-size="18" fill="black">Ux / u</text>
<polyline points="190.69,423.96 193.64,421.25 196.58,418.44 199.53,415.53 202.47,412.53 205.42,408.91 208.36,404.90 211.31,398.09 214.25,391.02 217.20,384.10 220.14,377.38 223.09,370.52 226.03,363.30 228.98,355.70 231.93,347.93 234.87,339.89 237.82,331.59 240.76,323.04 243.71,314.69 246.65,307.58 249.60,300.35 252.54,292.71 255.49,285.51 258.43,278.66 261.38,271.68 264.32,265.82 267.27,260.27 270.22,255.69 273.16,251.12 276.11,246.55 279.05,241.97 282.00,238.63 284.94,235.39 287.88,232.21 290.83,229.08 293.78,226.08 296.73,223.22 299.67,221.59 302.62,220.02 305.57,218.27 308.50,216.28 311.45,213.60 314.40,211.03 317.34,209.23 320.29,206.80 323.24,204.35 326.18,201.88 329.12,199.37 332.07,196.26 335.01,193.47 337.96,190.50 340.91,187.21 343.85,183.67 346.80,179.91 349.74,176.06 352.68,172.40 355.63,168.60 358.58,164.67 361.53,160.61 364.47,156.44 367.42,152.12 370.36,148.92 373.30,145.70 376.25,142.45 379.20,139.20 382.14,136.34 385.09,133.69 388.04,131.78 390.97,129.91 393.92,128.46 396.87,127.61 399.81,127.89 402.76,128.42 405.71,130.05 408.65,132.79 411.59,135.83 414.54,139.20 417.48,142.91 420.43,147.68 423.38,153.63 426.32,159.93 429.27,167.86 432.21,176.34 435.16,185.38 438.10,194.92 441.05,205.46 444.00,216.22 446.94,227.02 449.89,238.27 452.84,250.00 455.77,262.22 458.72,274.78 461.67,287.69 464.61,300.97 467.56,314.65 470.51,327.56 473.45,340.45 476.39,353.58 479.34,367.03 482.28,379.86 485.23,391.76 488.18,403.32 491.12,415.16 494.07,426.36 497.01,435.41 499.96,444.70 502.90,454.24 505.85,464.02 508.80,471.53 511.74,478.10 514.69,484.90 517.63,490.76 520.57,495.29 523.52,498.96 526.47,503.00 529.41,506.26 532.36,509.06 535.31,510.40 538.24,512.02 541.19,513.91 544.14,516.07 547.08,514.42 550.03,512.98 552.98,511.72 555.92,510.64 558.86,508.75 561.81,506.58 564.76,502.50 567.70,498.31 570.65,493.64 573.60,488.25 576.54,482.82 579.49,477.33 582.43,469.76 585.37,461.56 588.32,453.14 591.27,444.52 594.21,435.73 597.16,426.68 600.11,416.69 603.04,406.65 605.99,397.22 608.94,388.06 611.88,379.14 614.83,370.33 617.78,361.94 620.72,353.97 623.66,346.79 626.61,339.85 629.55,333.17 632.50,326.77 635.45,323.22 638.40,319.97 641.34,317.02 644.28,314.37 647.23,313.09 650.17,312.56 653.12,313.41 656.07,314.54 659.01,316.58 661.96,319.75 664.90,323.33 667.84,327.12 670.79,332.31 673.74,338.69 676.68,345.22 679.63,351.86 682.58,358.62 685.51,366.15 688.46,374.64 691.41,383.17 694.35,391.59 697.30,400.12 700.25,408.72 703.20,417.28 706.14,426.07 709.08,434.68 712.03,443.04 714.97,451.28 717.92,459.41 720.87,467.40 723.81,474.20 726.76,480.84 729.70,487.33 732.64,493.65 735.59,499.47 738.54,505.02 741.48,510.18 744.43,515.21 747.38,519.93 750.31,524.31 753.26,528.09 756.21,531.73 759.15,534.99 762.10,537.96 765.05,540.77 767.99,543.43 770.93,545.92 773.88,548.30 776.83,550.46 779.77,552.44 782.72,553.88 785.67,555.31 788.61,556.68 791.55,557.83 794.50,558.75 797.44,559.57 800.39,560.54 803.34,561.23 806.28,561.64 809.23,561.75 812.17,562.19 815.11,562.28 818.06,562.02 821.01,561.39 823.95,561.06 826.90,560.63 829.85,559.82 832.79,558.62 835.73,557.47 838.68,556.55 841.63,555.22 844.57,553.45 847.52,551.35 850.47,549.63 853.41,547.48 856.35,544.91 859.30,541.93 862.24,539.14 865.19,536.21 868.14,532.95 871.08,529.25 874.03,525.35 876.97,521.24 879.91,516.77 882.86,512.40 885.81,507.73 888.75,502.83 891.70,497.68 894.65,492.30 897.58,486.69 900.53,480.90 903.48,474.82 906.43,468.47 909.37,461.85 912.32,454.67 915.27,447.16 918.20,440.17 921.15,433.03 924.10,425.52 927.04,417.62 929.99,408.66 932.94,399.49 935.88,390.92 938.82,381.93 941.77,372.86 944.71,363.73 947.66,354.54 950.61,345.22 953.55,337.66 956.50,330.30 959.44,321.15 962.38,311.99 965.33,302.81 968.28,293.61 971.22,288.75 974.17,284.16 977.12,279.45 980.06,274.89 983.00,270.46 985.95,266.15 988.90,262.58 991.84,258.76 994.79,254.66 997.74,250.28 1000.68,243.18 1003.62,234.47 1006.57,226.60 1009.51,217.53 1012.46,207.02 1015.41,195.98 1018.35,181.08 1021.30,165.84 1024.24,155.33 1027.18,149.36 1030.13,145.38 1033.08,143.30 1036.02,142.92 1038.97,145.18 1041.92,153.02 1044.86,162.86 1047.80,176.33 1050.75,188.81 1053.70,200.71 1056.64,213.35 1059.59,217.09 1062.54,221.31 1065.47,225.88 1068.42,230.71 1071.37,235.76 1074.31,241.00" fill="none" stroke="#555555" stroke-width="3" stroke-dasharray="9 5"/>
<line x1="142" y1="128" x2="178" y2="128" stroke="#555555" stroke-width="4" stroke-dasharray="9 5"/>
<text x="188" y="133" font-family="Arial" font-size="18" fill="black">Uy / v</text>
<polyline points="190.69,389.61 193.64,389.46 196.58,389.43 199.53,389.50 202.47,389.67 205.42,392.04 208.36,395.54 211.31,399.27 214.25,403.21 217.20,407.65 220.14,412.82 223.09,417.83 226.03,423.73 228.98,430.31 231.93,437.30 234.87,444.94 237.82,453.18 240.76,461.95 243.71,469.09 246.65,476.11 249.60,483.35 252.54,491.31 255.49,497.10 258.43,501.31 261.38,505.73 264.32,509.95 267.27,513.02 270.22,513.07 273.16,513.22 276.11,513.50 279.05,513.93 282.00,510.76 284.94,507.69 287.88,504.74 290.83,501.95 293.78,498.26 296.73,494.13 299.67,488.88 302.62,483.67 305.57,478.57 308.50,473.50 311.45,469.05 314.40,464.57 317.34,458.68 320.29,453.76 323.24,448.80 326.18,443.79 329.12,438.72 332.07,434.90 335.01,428.92 337.96,422.99 340.91,417.90 343.85,413.61 346.80,409.89 349.74,406.13 352.68,399.18 355.63,392.71 358.58,387.11 361.53,381.62 364.47,376.21 367.42,370.86 370.36,365.17 373.30,359.66 376.25,354.31 379.20,349.11 382.14,345.22 385.09,342.00 388.04,339.13 390.97,336.61 393.92,335.47 396.87,336.15 399.81,337.27 402.76,338.80 405.71,342.26 408.65,348.24 411.59,354.62 414.54,361.39 417.48,368.55 420.43,375.34 423.38,383.49 426.32,391.71 429.27,399.91 432.21,406.26 435.16,411.23 438.10,416.31 441.05,422.47 444.00,427.84 446.94,431.35 449.89,434.87 452.84,438.45 455.77,442.10 458.72,445.28 461.67,448.59 464.61,452.05 467.56,455.72 470.51,458.75 473.45,461.71 476.39,466.24 479.34,471.09 482.28,475.69 485.23,479.86 488.18,484.67 491.12,489.94 494.07,497.04 497.01,502.87 499.96,509.08 502.90,515.72 505.85,522.81 508.80,527.86 511.74,534.54 514.69,541.50 517.63,548.97 520.57,554.80 523.52,559.30 526.47,563.97 529.41,570.31 532.36,575.84 535.31,578.89 538.24,582.05 541.19,585.36 544.14,588.87 547.08,590.26 550.03,592.01 552.98,594.16 555.92,596.80 558.86,597.95 561.81,598.89 564.76,600.29 567.70,602.40 570.65,604.58 573.60,606.67 576.54,609.80 579.49,613.90 582.43,616.77 585.37,620.04 588.32,624.06 591.27,628.86 594.21,634.49 597.16,641.33 600.11,644.06 603.04,647.05 605.99,649.78 608.94,653.34 611.88,657.42 614.83,661.55 617.78,659.63 620.72,657.95 623.66,657.14 626.61,655.92 629.55,654.27 632.50,652.21 635.45,645.51 638.40,638.09 641.34,629.95 644.28,621.10 647.23,613.24 650.17,605.37 653.12,592.43 656.07,578.69 659.01,565.22 661.96,552.47 664.90,538.78 667.84,524.55 670.79,507.42 673.74,491.85 676.68,476.01 679.63,459.92 682.58,443.60 685.51,428.72 688.46,413.25 691.41,397.91 694.35,382.70 697.30,368.24 700.25,354.51 703.20,341.19 706.14,329.19 709.08,317.59 712.03,306.36 714.97,295.66 717.92,285.49 720.87,275.89 723.81,268.33 726.76,261.27 729.70,254.72 732.64,248.70 735.59,241.98 738.54,235.25 741.48,231.84 744.43,228.84 747.38,225.35 750.31,220.96 753.26,217.25 756.21,213.89 759.15,213.72 762.10,211.79 765.05,210.07 767.99,208.56 770.93,207.28 773.88,204.20 776.83,204.00 779.77,203.92 782.72,204.42 785.67,203.78 788.61,202.27 791.55,200.78 794.50,202.16 797.44,202.98 800.39,202.33 803.34,201.67 806.28,201.02 809.23,200.38 812.17,200.18 815.11,199.97 818.06,199.77 821.01,199.57 823.95,197.09 826.90,193.66 829.85,191.85 832.79,190.09 835.73,186.74 838.68,181.28 841.63,176.72 844.57,172.27 847.52,168.77 850.47,163.01 853.41,157.61 856.35,152.54 859.30,147.80 862.24,142.36 865.19,138.15 868.14,134.46 871.08,132.01 874.03,130.01 876.97,128.49 879.91,127.41 882.86,126.99 885.81,127.26 888.75,128.58 891.70,130.28 894.65,132.37 897.58,134.82 900.53,138.48 903.48,142.33 906.43,146.32 909.37,150.50 912.32,156.08 915.27,162.22 918.20,166.10 921.15,169.97 924.10,174.58 927.04,180.10 929.99,186.12 932.94,191.84 935.88,195.17 938.82,199.41 941.77,203.17 944.71,206.44 947.66,209.20 950.61,212.46 953.55,212.90 956.50,212.58 959.44,211.91 962.38,210.67 965.33,208.66 968.28,205.45 971.22,199.23 974.17,191.87 977.12,184.07 980.06,174.83 983.00,164.15 985.95,151.99 988.90,144.18 991.84,135.84 994.79,127.19 997.74,118.45 1000.68,121.07 1003.62,131.09 1006.57,152.70 1009.51,177.75 1012.46,206.75 1015.41,238.88 1018.35,272.21 1021.30,310.30 1024.24,355.94 1027.18,384.02 1030.13,410.41 1033.08,435.16 1036.02,458.35 1038.97,474.64 1041.92,490.43 1044.86,503.50 1047.80,516.04 1050.75,524.97 1053.70,531.11 1056.64,535.86 1059.59,538.09 1062.54,539.01 1065.47,538.06 1068.42,536.79 1071.37,535.21 1074.31,533.32" fill="none" stroke="#999999" stroke-width="3" stroke-dasharray="3 4"/>
<line x1="142" y1="156" x2="178" y2="156" stroke="#999999" stroke-width="4" stroke-dasharray="3 4"/>
<text x="188" y="161" font-family="Arial" font-size="18" fill="black">Uz / w</text>
</svg>