<svg xmlns="http://www.w3.org/2000/svg" width="1200" height="820" viewBox="0 0 1200 820">
<rect width="100%" height="100%" fill="white"/>
<text x="600.0" y="36" text-anchor="middle" font-family="Arial" font-size="24" fill="black">profile_center_x: rho</text>
<line x1="120.00" y1="75" x2="120.00" y2="705" stroke="#dddddd" stroke-width="1"/>
<text x="120.00" y="737" text-anchor="middle" font-family="Arial" font-size="16" fill="black">-0.560</text>
<line x1="376.25" y1="75" x2="376.25" y2="705" stroke="#dddddd" stroke-width="1"/>
<text x="376.25" y="737" text-anchor="middle" font-family="Arial" font-size="16" fill="black">1.470</text>
<line x1="632.50" y1="75" x2="632.50" y2="705" stroke="#dddddd" stroke-width="1"/>
<text x="632.50" y="737" text-anchor="middle" font-family="Arial" font-size="16" fill="black">3.500</text>
<line x1="888.75" y1="75" x2="888.75" y2="705" stroke="#dddddd" stroke-width="1"/>
<text x="888.75" y="737" text-anchor="middle" font-family="Arial" font-size="16" fill="black">5.530</text>
<line x1="1145.00" y1="75" x2="1145.00" y2="705" stroke="#dddddd" stroke-width="1"/>
<text x="1145.00" y="737" text-anchor="middle" font-family="Arial" font-size="16" fill="black">7.560</text>
<line x1="120" y1="705.00" x2="1145" y2="705.00" stroke="#dddddd" stroke-width="1"/>
<text x="104" y="710.00" text-anchor="end" font-family="Arial" font-size="16" fill="black">1.166</text>
<line x1="120" y1="547.50" x2="1145" y2="547.50" stroke="#dddddd" stroke-width="1"/>
<text x="104" y="552.50" text-anchor="end" font-family="Arial" font-size="16" fill="black">1.171</text>
<line x1="120" y1="390.00" x2="1145" y2="390.00" stroke="#dddddd" stroke-width="1"/>
<text x="104" y="395.00" text-anchor="end" font-family="Arial" font-size="16" fill="black">1.175</text>
<line x1="120" y1="232.50" x2="1145" y2="232.50" stroke="#dddddd" stroke-width="1"/>
<text x="104" y="237.50" text-anchor="end" font-family="Arial" font-size="16" fill="black">1.180</text>
<line x1="120" y1="75.00" x2="1145" y2="75.00" stroke="#dddddd" stroke-width="1"/>
<text x="104" y="80.00" text-anchor="end" font-family="Arial" font-size="16" fill="black">1.184</text>
<rect x="120" y="75" width="1025" height="630" fill="none" stroke="black" stroke-width="2"/>
<text x="632.5" y="785" text-anchor="middle" font-family="Arial" font-size="20" fill="black">x coordinate [m]</text>
<text x="34" y="390.0" transform="rotate(-90 34 390.0)" text-anchor="middle" font-family="Arial" font-size="20" fill="black">rho [kg/m3]</text>
<polyline points="190.69,529.26 193.64,529.26 196.58,525.78 199.53,522.29 202.47,518.81 205.42,515.33 208.36,511.85 211.31,508.37 214.25,504.89 217.20,501.41 220.14,497.92 223.09,494.44 226.03,490.96 228.98,487.48 231.93,484.00 234.87,480.52 237.82,477.04 240.76,473.55 243.71,470.07 246.65,470.07 249.60,466.59 252.54,463.11 255.49,459.63 258.43,456.15 261.38,452.67 264.32,449.18 267.27,449.18 270.22,445.70 273.16,442.22 276.11,438.74 279.05,438.74 282.00,435.26 284.94,431.78 287.89,431.78 290.83,428.30 293.78,424.81 296.72,424.81 299.67,424.81 302.62,421.33 305.56,421.33 308.51,421.33 311.45,424.81 314.40,424.81 317.34,424.81 320.29,428.30 323.23,431.78 326.17,438.74 329.13,442.22 332.07,445.70 335.01,452.67 337.96,456.15 340.91,463.11 343.85,466.59 346.80,470.07 349.74,473.55 352.68,480.52 355.64,480.52 358.58,480.52 361.52,480.52 364.47,477.04 367.41,477.04 370.35,470.07 373.31,463.11 376.25,456.15 379.19,449.18 382.15,438.74 385.09,428.30 388.03,417.85 390.98,407.41 393.92,396.96 396.86,386.52 399.82,379.56 402.76,369.11 405.70,358.67 408.65,358.67 411.59,355.19 414.54,355.19 417.49,351.70 420.43,358.67 423.37,365.63 426.33,372.59 429.27,383.04 432.21,393.48 435.16,407.41 438.10,421.33 441.04,435.26 444.00,449.18 446.94,463.11 449.88,480.52 452.83,494.44 455.78,508.37 458.72,518.81 461.67,525.78 464.61,536.22 467.55,546.66 470.51,553.63 473.45,560.59 476.39,564.07 479.34,571.03 482.28,574.52 485.23,578.00 488.18,581.48 491.12,584.96 494.06,588.44 497.02,591.92 499.96,591.92 502.90,595.40 505.85,598.89 508.79,598.89 511.73,602.37 514.69,602.37 517.63,605.85 520.57,605.85 523.52,605.85 526.47,605.85 529.41,605.85 532.36,605.85 535.30,605.85 538.24,602.37 541.20,602.37 544.14,598.89 547.08,598.89 550.03,595.40 552.97,591.92 555.92,588.44 558.87,584.96 561.81,581.48 564.75,578.00 567.71,574.52 570.65,571.03 573.59,564.07 576.54,560.59 579.48,557.11 582.42,553.63 585.38,553.63 588.32,550.15 591.26,550.15 594.21,546.66 597.16,546.66 600.10,550.15 603.05,550.15 605.99,553.63 608.93,557.11 611.89,560.59 614.83,567.55 617.77,571.03 620.72,578.00 623.66,584.96 626.60,595.40 629.56,602.37 632.50,609.33 635.44,616.29 638.40,626.74 641.34,633.70 644.28,640.66 647.23,647.63 650.17,651.11 653.11,654.59 656.07,658.07 659.01,661.55 661.95,658.07 664.90,658.07 667.84,658.07 670.79,654.59 673.74,647.63 676.68,640.66 679.62,633.70 682.58,626.74 685.52,616.29 688.46,605.85 691.41,595.40 694.35,584.96 697.29,574.52 700.25,560.59 703.19,550.15 706.13,539.70 709.08,529.26 712.03,518.81 714.97,508.37 717.92,501.41 720.86,490.96 723.80,484.00 726.76,477.04 729.70,473.55 732.64,466.59 735.59,463.11 738.53,459.63 741.48,456.15 744.43,452.67 747.37,449.18 750.31,445.70 753.27,445.70 756.21,442.22 759.15,438.74 762.10,438.74 765.04,435.26 767.98,431.78 770.94,431.78 773.88,428.30 776.82,424.81 779.77,421.33 782.72,417.85 785.66,414.37 788.61,407.41 791.55,403.93 794.49,396.96 797.45,393.48 800.39,386.52 803.33,379.56 806.28,372.59 809.22,365.63 812.17,355.19 815.12,348.22 818.06,341.26 821.00,330.82 823.96,323.85 826.90,313.41 829.84,306.45 832.79,296.00 835.73,289.04 838.67,278.59 841.63,268.15 844.57,257.71 847.51,247.26 850.46,236.82 853.41,226.37 856.35,215.93 859.30,205.48 862.24,195.04 865.18,184.60 868.14,174.15 871.08,163.71 874.02,153.26 876.97,146.30 879.91,139.34 882.85,132.37 885.81,128.89 888.75,125.41 891.69,121.93 894.65,121.93 897.59,118.45 900.53,121.93 903.48,125.41 906.42,128.89 909.36,128.89 912.32,135.86 915.26,142.82 918.20,149.78 921.15,156.74 924.09,163.71 927.04,174.15 929.99,188.08 932.93,198.52 935.87,208.97 938.83,222.89 941.77,236.82 944.71,250.74 947.66,264.67 950.60,275.11 953.54,289.04 956.50,302.96 959.44,316.89 962.38,323.85 965.33,334.30 968.28,341.26 971.22,348.22 974.17,355.19 977.11,358.67 980.05,362.15 983.01,365.63 985.95,369.11 988.89,369.11 991.84,372.59 994.78,372.59 997.73,372.59 1000.68,372.59 1003.62,372.59 1006.56,372.59 1009.52,369.11 1012.46,369.11 1015.40,369.11 1018.35,369.11 1021.29,369.11 1024.23,365.63 1027.19,365.63 1030.13,365.63 1033.07,365.63 1036.02,365.63 1038.97,365.63 1041.91,365.63 1044.86,365.63 1047.80,365.63 1050.74,369.11 1053.70,372.59 1056.64,376.07 1059.58,376.07 1062.53,379.56 1065.47,383.04 1068.42,383.04 1071.37,386.52 1074.31,390.00" fill="none" stroke="#000000" stroke-width="3"/>
<line x1="142" y1="100" x2="178" y2="100" stroke="#000000" stroke-width="4"/>
<text x="188" y="105" font-family="Arial" font-size="18" fill="black">rho</text>
</svg>