<svg xmlns="http://www.w3.org/2000/svg" width="1200" height="820" viewBox="0 0 1200 820">
<rect width="100%" height="100%" fill="white"/>
<text x="600.0" y="36" text-anchor="middle" font-family="Arial" font-size="24" fill="black">profile_center_y: vorticity:1</text>
<line x1="120.00" y1="75" x2="120.00" y2="705" stroke="#dddddd" stroke-width="1"/>
<text x="120.00" y="737" text-anchor="middle" font-family="Arial" font-size="16" fill="black">-0.400</text>
<line x1="376.25" y1="75" x2="376.25" y2="705" stroke="#dddddd" stroke-width="1"/>
<text x="376.25" y="737" text-anchor="middle" font-family="Arial" font-size="16" fill="black">1.050</text>
<line x1="632.50" y1="75" x2="632.50" y2="705" stroke="#dddddd" stroke-width="1"/>
<text x="632.50" y="737" text-anchor="middle" font-family="Arial" font-size="16" fill="black">2.500</text>
<line x1="888.75" y1="75" x2="888.75" y2="705" stroke="#dddddd" stroke-width="1"/>
<text x="888.75" y="737" text-anchor="middle" font-family="Arial" font-size="16" fill="black">3.950</text>
<line x1="1145.00" y1="75" x2="1145.00" y2="705" stroke="#dddddd" stroke-width="1"/>
<text x="1145.00" y="737" text-anchor="middle" font-family="Arial" font-size="16" fill="black">5.400</text>
<line x1="120" y1="705.00" x2="1145" y2="705.00" stroke="#dddddd" stroke-width="1"/>
<text x="104" y="710.00" text-anchor="end" font-family="Arial" font-size="16" fill="black">-0.851</text>
<line x1="120" y1="547.50" x2="1145" y2="547.50" stroke="#dddddd" stroke-width="1"/>
<text x="104" y="552.50" text-anchor="end" font-family="Arial" font-size="16" fill="black">-0.566</text>
<line x1="120" y1="390.00" x2="1145" y2="390.00" stroke="#dddddd" stroke-width="1"/>
<text x="104" y="395.00" text-anchor="end" font-family="Arial" font-size="16" fill="black">-0.280</text>
<line x1="120" y1="232.50" x2="1145" y2="232.50" stroke="#dddddd" stroke-width="1"/>
<text x="104" y="237.50" text-anchor="end" font-family="Arial" font-size="16" fill="black">0.005</text>
<line x1="120" y1="75.00" x2="1145" y2="75.00" stroke="#dddddd" stroke-width="1"/>
<text x="104" y="80.00" text-anchor="end" font-family="Arial" font-size="16" fill="black">0.290</text>
<rect x="120" y="75" width="1025" height="630" fill="none" stroke="black" stroke-width="2"/>
<text x="632.5" y="785" text-anchor="middle" font-family="Arial" font-size="20" fill="black">y coordinate [m]</text>
<text x="34" y="390.0" transform="rotate(-90 34 390.0)" text-anchor="middle" font-family="Arial" font-size="20" fill="black">vorticity:1 [SI]</text>
<polyline points="190.69,267.58 193.64,268.62 196.58,269.65 199.53,270.69 202.47,271.73 205.42,272.77 208.36,273.81 211.31,275.19 214.25,276.57 217.20,277.95 220.14,279.33 223.09,280.71 226.03,282.09 228.98,282.34 231.92,282.59 234.87,282.84 237.82,283.09 240.76,283.34 243.71,283.59 246.65,283.48 249.60,283.38 252.54,283.27 255.49,283.17 258.43,283.06 261.38,282.95 264.33,283.80 267.27,284.64 270.22,285.49 273.16,286.33 276.11,287.17 279.05,288.02 282.00,291.58 284.94,295.15 287.89,298.72 290.83,302.29 293.78,305.85 296.72,309.42 299.67,317.40 302.61,325.38 305.56,333.35 308.51,341.33 311.45,349.31 314.40,357.29 317.34,370.28 320.29,383.28 323.23,396.27 326.18,409.27 329.12,422.27 332.07,435.26 335.01,450.86 337.96,466.45 340.91,482.05 343.85,497.64 346.80,513.23 349.74,528.83 352.69,542.42 355.63,556.01 358.58,569.61 361.52,583.20 364.47,596.80 367.41,610.39 370.37,618.04 373.30,625.69 376.25,633.34 379.20,640.99 382.13,648.64 385.09,656.29 388.04,657.17 390.97,658.04 393.92,658.92 396.87,659.80 399.81,660.67 402.76,661.55 405.71,657.81 408.64,654.07 411.59,650.33 414.55,646.59 417.48,642.85 420.43,639.11 423.38,633.26 426.32,627.41 429.27,621.56 432.22,615.71 435.15,609.87 438.10,604.02 441.05,597.95 443.99,591.87 446.94,585.81 449.89,579.73 452.82,573.66 455.78,567.59 458.73,562.29 461.66,557.00 464.61,551.70 467.56,546.40 470.50,541.11 473.45,535.81 476.40,531.62 479.33,527.42 482.28,523.23 485.24,519.04 488.17,514.84 491.12,510.64 494.07,507.58 497.01,504.50 499.96,501.43 502.91,498.36 505.84,495.28 508.79,492.21 511.74,490.22 514.68,488.22 517.63,486.23 520.58,484.23 523.51,482.24 526.47,480.25 529.42,478.85 532.35,477.46 535.30,476.07 538.25,474.68 541.19,473.29 544.14,471.91 547.09,470.24 550.02,468.57 552.97,466.90 555.93,465.23 558.86,463.57 561.81,461.89 564.76,459.19 567.70,456.49 570.65,453.78 573.60,451.08 576.53,448.37 579.48,445.67 582.43,442.42 585.37,439.19 588.32,435.95 591.27,432.71 594.20,429.47 597.16,426.23 600.11,423.53 603.04,420.84 605.99,418.14 608.94,415.45 611.88,412.75 614.83,410.05 617.78,408.32 620.71,406.58 623.66,404.85 626.62,403.11 629.55,401.38 632.50,399.64 635.45,399.08 638.38,398.50 641.34,397.93 644.29,397.37 647.22,396.79 650.17,396.22 653.12,396.68 656.06,397.13 659.01,397.59 661.96,398.05 664.89,398.50 667.84,398.96 670.80,400.00 673.73,401.05 676.68,402.09 679.63,403.14 682.57,404.18 685.52,405.23 688.47,406.35 691.40,407.46 694.35,408.58 697.30,409.70 700.24,410.81 703.19,411.93 706.14,412.81 709.07,413.70 712.03,414.58 714.98,415.46 717.91,416.34 720.86,417.23 723.81,417.87 726.75,418.52 729.70,419.16 732.65,419.80 735.58,420.45 738.53,421.09 741.49,421.57 744.42,422.05 747.37,422.53 750.32,423.01 753.26,423.49 756.21,423.97 759.16,424.28 762.09,424.60 765.04,424.92 767.99,425.23 770.93,425.55 773.88,425.87 776.83,425.77 779.76,425.66 782.72,425.56 785.67,425.46 788.60,425.37 791.55,425.26 794.50,424.36 797.44,423.45 800.39,422.54 803.34,421.63 806.27,420.73 809.22,419.82 812.18,417.79 815.11,415.76 818.06,413.74 821.01,411.70 823.95,409.68 826.90,407.65 829.85,404.36 832.78,401.07 835.73,397.78 838.68,394.50 841.62,391.21 844.57,387.91 847.52,383.37 850.45,378.83 853.41,374.29 856.36,369.74 859.29,365.19 862.24,360.65 865.19,354.88 868.13,349.12 871.08,343.35 874.03,337.58 876.96,331.81 879.91,326.04 882.87,319.24 885.80,312.43 888.75,305.63 891.70,298.82 894.63,292.02 897.59,285.21 900.54,278.06 903.47,270.91 906.42,263.76 909.37,256.60 912.31,249.45 915.26,242.30 918.21,235.62 921.14,228.94 924.09,222.27 927.05,215.59 929.98,208.91 932.93,202.24 935.88,196.51 938.82,190.79 941.77,185.07 944.72,179.35 947.65,173.63 950.60,167.90 953.55,163.49 956.49,159.06 959.44,154.64 962.39,150.22 965.32,145.80 968.28,141.38 971.23,138.57 974.16,135.76 977.11,132.96 980.06,130.15 983.00,127.34 985.95,124.54 988.90,123.52 991.83,122.51 994.78,121.49 997.74,120.48 1000.67,119.46 1003.62,118.45 1006.57,119.17 1009.51,119.89 1012.46,120.62 1015.41,121.34 1018.34,122.06 1021.29,122.78 1024.24,125.02 1027.18,127.26 1030.13,129.50 1033.08,131.74 1036.01,133.97 1038.97,136.21 1041.92,139.99 1044.85,143.76 1047.80,147.53 1050.75,151.30 1053.69,155.07 1056.64,158.84 1059.59,161.15 1062.52,163.45 1065.47,165.76 1068.43,168.06 1071.36,170.37 1074.31,172.68" fill="none" stroke="#000000" stroke-width="3"/>
<line x1="142" y1="100" x2="178" y2="100" stroke="#000000" stroke-width="4"/>
<text x="188" y="105" font-family="Arial" font-size="18" fill="black">vorticity:1</text>
</svg>