<svg xmlns="http://www.w3.org/2000/svg" width="1200" height="820" viewBox="0 0 1200 820">
<rect width="100%" height="100%" fill="white"/>
<text x="600.0" y="36" text-anchor="middle" font-family="Arial" font-size="24" fill="black">profile_center_y: epsilon</text>
<line x1="120.00" y1="75" x2="120.00" y2="705" stroke="#dddddd" stroke-width="1"/>
<text x="120.00" y="737" text-anchor="middle" font-family="Arial" font-size="16" fill="black">-0.400</text>
<line x1="376.25" y1="75" x2="376.25" y2="705" stroke="#dddddd" stroke-width="1"/>
<text x="376.25" y="737" text-anchor="middle" font-family="Arial" font-size="16" fill="black">1.050</text>
<line x1="632.50" y1="75" x2="632.50" y2="705" stroke="#dddddd" stroke-width="1"/>
<text x="632.50" y="737" text-anchor="middle" font-family="Arial" font-size="16" fill="black">2.500</text>
<line x1="888.75" y1="75" x2="888.75" y2="705" stroke="#dddddd" stroke-width="1"/>
<text x="888.75" y="737" text-anchor="middle" font-family="Arial" font-size="16" fill="black">3.950</text>
<line x1="1145.00" y1="75" x2="1145.00" y2="705" stroke="#dddddd" stroke-width="1"/>
<text x="1145.00" y="737" text-anchor="middle" font-family="Arial" font-size="16" fill="black">5.400</text>
<line x1="120" y1="705.00" x2="1145" y2="705.00" stroke="#dddddd" stroke-width="1"/>
<text x="104" y="710.00" text-anchor="end" font-family="Arial" font-size="16" fill="black">3.84e-04</text>
<line x1="120" y1="547.50" x2="1145" y2="547.50" stroke="#dddddd" stroke-width="1"/>
<text x="104" y="552.50" text-anchor="end" font-family="Arial" font-size="16" fill="black">0.002</text>
<line x1="120" y1="390.00" x2="1145" y2="390.00" stroke="#dddddd" stroke-width="1"/>
<text x="104" y="395.00" text-anchor="end" font-family="Arial" font-size="16" fill="black">0.003</text>
<line x1="120" y1="232.50" x2="1145" y2="232.50" stroke="#dddddd" stroke-width="1"/>
<text x="104" y="237.50" text-anchor="end" font-family="Arial" font-size="16" fill="black">0.005</text>
<line x1="120" y1="75.00" x2="1145" y2="75.00" stroke="#dddddd" stroke-width="1"/>
<text x="104" y="80.00" text-anchor="end" font-family="Arial" font-size="16" fill="black">0.006</text>
<rect x="120" y="75" width="1025" height="630" fill="none" stroke="black" stroke-width="2"/>
<text x="632.5" y="785" text-anchor="middle" font-family="Arial" font-size="20" fill="black">y coordinate [m]</text>
<text x="34" y="390.0" transform="rotate(-90 34 390.0)" text-anchor="middle" font-family="Arial" font-size="20" fill="black">epsilon [m2/s3]</text>
<polyline points="190.69,393.58 193.64,408.06 196.58,422.53 199.53,437.00 202.47,451.47 205.42,465.94 208.36,480.42 211.31,495.19 214.25,509.97 217.20,524.76 220.14,539.53 223.09,554.32 226.03,569.10 228.98,566.54 231.92,563.99 234.87,561.43 237.82,558.88 240.76,556.33 243.71,553.77 246.65,545.94 249.60,538.12 252.54,530.29 255.49,522.47 258.43,514.64 261.38,506.82 264.33,494.97 267.27,483.13 270.22,471.29 273.16,459.44 276.11,447.61 279.05,435.76 282.00,420.96 284.94,406.17 287.89,391.37 290.83,376.57 293.78,361.77 296.72,346.97 299.67,332.40 302.61,317.83 305.56,303.26 308.51,288.69 311.45,274.11 314.40,259.55 317.34,250.45 320.29,241.37 323.23,232.27 326.18,223.18 329.12,214.09 332.07,205.00 335.01,205.34 337.96,205.68 340.91,206.02 343.85,206.35 346.80,206.69 349.74,207.02 352.69,216.02 355.63,225.02 358.58,234.02 361.52,243.03 364.47,252.03 367.41,261.03 370.37,273.70 373.30,286.38 376.25,299.05 379.20,311.73 382.13,324.41 385.09,337.08 388.04,347.95 390.97,358.81 393.92,369.68 396.87,380.54 399.81,391.41 402.76,402.27 405.71,408.83 408.64,415.39 411.59,421.95 414.55,428.50 417.48,435.06 420.43,441.62 423.38,444.07 426.32,446.53 429.27,448.98 432.22,451.43 435.15,453.89 438.10,456.35 441.05,455.42 443.99,454.50 446.94,453.57 449.89,452.65 452.82,451.71 455.78,450.79 458.73,446.79 461.66,442.78 464.61,438.78 467.56,434.76 470.50,430.76 473.45,426.75 476.40,419.39 479.33,412.03 482.28,404.65 485.24,397.29 488.17,389.93 491.12,382.56 494.07,371.29 497.01,360.01 499.96,348.73 502.91,337.45 505.84,326.18 508.79,314.90 511.74,300.28 514.68,285.65 517.63,271.03 520.58,256.42 523.51,241.80 526.47,227.17 529.42,213.69 532.35,200.22 535.30,186.74 538.25,173.26 541.19,159.78 544.14,146.31 547.09,141.67 550.02,137.03 552.97,132.37 555.93,127.73 558.86,123.09 561.81,118.45 564.76,126.22 567.70,134.00 570.65,141.78 573.60,149.56 576.53,157.34 579.48,165.12 582.43,180.00 585.37,194.88 588.32,209.78 591.27,224.66 594.20,239.54 597.16,254.42 600.11,268.02 603.04,281.61 605.99,295.20 608.94,308.79 611.88,322.38 614.83,335.97 617.78,344.15 620.71,352.33 623.66,360.51 626.62,368.69 629.55,376.88 632.50,385.06 635.45,387.87 638.38,390.70 641.34,393.52 644.29,396.35 647.22,399.16 650.17,401.99 653.12,400.81 656.06,399.62 659.01,398.45 661.96,397.27 664.89,396.08 667.84,394.91 670.80,391.05 673.73,387.21 676.68,383.36 679.63,379.51 682.57,375.66 685.52,371.81 688.47,366.59 691.40,361.37 694.35,356.17 697.30,350.95 700.24,345.73 703.19,340.52 706.14,335.74 709.07,330.96 712.03,326.17 714.98,321.39 717.91,316.61 720.86,311.84 723.81,309.47 726.75,307.10 729.70,304.73 732.65,302.35 735.58,299.98 738.53,297.60 741.49,298.57 744.42,299.53 747.37,300.48 750.32,301.44 753.26,302.39 756.21,303.36 759.16,307.25 762.09,311.14 765.04,315.04 767.99,318.92 770.93,322.82 773.88,326.72 776.83,332.38 779.76,338.03 782.72,343.69 785.67,349.35 788.60,355.01 791.55,360.66 794.50,366.79 797.44,372.93 800.39,379.07 803.34,385.20 806.27,391.34 809.22,397.47 812.18,403.18 815.11,408.91 818.06,414.63 821.01,420.35 823.95,426.07 826.90,431.79 829.85,436.65 832.78,441.52 835.73,446.37 838.68,451.23 841.62,456.09 844.57,460.95 847.52,464.77 850.45,468.58 853.41,472.39 856.36,476.21 859.29,480.03 862.24,483.84 865.19,486.68 868.13,489.52 871.08,492.36 874.03,495.20 876.96,498.04 879.91,500.87 882.87,503.29 885.80,505.70 888.75,508.10 891.70,510.51 894.63,512.91 897.59,515.32 900.54,517.90 903.47,520.49 906.42,523.08 909.37,525.66 912.31,528.25 915.26,530.84 918.21,533.63 921.14,536.44 924.09,539.23 927.05,542.03 929.98,544.83 932.93,547.63 935.88,550.51 938.82,553.39 941.77,556.26 944.72,559.14 947.65,562.02 950.60,564.90 953.55,567.99 956.49,571.08 959.44,574.17 962.39,577.26 965.32,580.36 968.28,583.44 971.23,586.87 974.16,590.29 977.11,593.71 980.06,597.14 983.00,600.56 985.95,603.99 988.90,607.65 991.83,611.31 994.78,614.96 997.74,618.63 1000.67,622.28 1003.62,625.95 1006.57,629.43 1009.51,632.93 1012.46,636.42 1015.41,639.91 1018.34,643.41 1021.29,646.90 1024.24,649.34 1027.18,651.78 1030.13,654.23 1033.08,656.67 1036.01,659.11 1038.97,661.55 1041.92,658.36 1044.85,655.17 1047.80,651.98 1050.75,648.79 1053.69,645.60 1056.64,642.41 1059.59,638.42 1062.52,634.42 1065.47,630.43 1068.43,626.43 1071.36,622.44 1074.31,618.44" fill="none" stroke="#000000" stroke-width="3"/>
<line x1="142" y1="100" x2="178" y2="100" stroke="#000000" stroke-width="4"/>
<text x="188" y="105" font-family="Arial" font-size="18" fill="black">epsilon</text>
</svg>