<svg xmlns="http://www.w3.org/2000/svg" width="1200" height="820" viewBox="0 0 1200 820">
<rect width="100%" height="100%" fill="white"/>
<text x="600.0" y="36" text-anchor="middle" font-family="Arial" font-size="24" fill="black">profile_near_floor_x: U:0</text>
<line x1="120.00" y1="75" x2="120.00" y2="705" stroke="#dddddd" stroke-width="1"/>
<text x="120.00" y="737" text-anchor="middle" font-family="Arial" font-size="16" fill="black">-0.560</text>
<line x1="376.25" y1="75" x2="376.25" y2="705" stroke="#dddddd" stroke-width="1"/>
<text x="376.25" y="737" text-anchor="middle" font-family="Arial" font-size="16" fill="black">1.470</text>
<line x1="632.50" y1="75" x2="632.50" y2="705" stroke="#dddddd" stroke-width="1"/>
<text x="632.50" y="737" text-anchor="middle" font-family="Arial" font-size="16" fill="black">3.500</text>
<line x1="888.75" y1="75" x2="888.75" y2="705" stroke="#dddddd" stroke-width="1"/>
<text x="888.75" y="737" text-anchor="middle" font-family="Arial" font-size="16" fill="black">5.530</text>
<line x1="1145.00" y1="75" x2="1145.00" y2="705" stroke="#dddddd" stroke-width="1"/>
<text x="1145.00" y="737" text-anchor="middle" font-family="Arial" font-size="16" fill="black">7.560</text>
<line x1="120" y1="705.00" x2="1145" y2="705.00" stroke="#dddddd" stroke-width="1"/>
<text x="104" y="710.00" text-anchor="end" font-family="Arial" font-size="16" fill="black">-0.122</text>
<line x1="120" y1="547.50" x2="1145" y2="547.50" stroke="#dddddd" stroke-width="1"/>
<text x="104" y="552.50" text-anchor="end" font-family="Arial" font-size="16" fill="black">-0.063</text>
<line x1="120" y1="390.00" x2="1145" y2="390.00" stroke="#dddddd" stroke-width="1"/>
<text x="104" y="395.00" text-anchor="end" font-family="Arial" font-size="16" fill="black">-0.003</text>
<line x1="120" y1="232.50" x2="1145" y2="232.50" stroke="#dddddd" stroke-width="1"/>
<text x="104" y="237.50" text-anchor="end" font-family="Arial" font-size="16" fill="black">0.056</text>
<line x1="120" y1="75.00" x2="1145" y2="75.00" stroke="#dddddd" stroke-width="1"/>
<text x="104" y="80.00" text-anchor="end" font-family="Arial" font-size="16" fill="black">0.116</text>
<rect x="120" y="75" width="1025" height="630" fill="none" stroke="black" stroke-width="2"/>
<text x="632.5" y="785" text-anchor="middle" font-family="Arial" font-size="20" fill="black">x coordinate [m]</text>
<text x="34" y="390.0" transform="rotate(-90 34 390.0)" text-anchor="middle" font-family="Arial" font-size="20" fill="black">U:0 [SI]</text>
<polyline points="190.69,486.83 193.64,492.65 196.58,498.48 199.53,504.30 202.47,510.13 205.42,523.29 208.36,539.38 211.31,555.48 214.25,571.57 217.20,587.15 220.14,602.02 223.09,616.89 226.03,631.77 228.98,645.10 231.93,649.20 234.87,653.33 237.82,657.43 240.76,661.55 243.71,655.23 246.65,647.19 249.60,639.15 252.54,631.11 255.49,616.13 258.43,595.95 261.38,575.77 264.32,555.58 267.27,533.91 270.22,508.50 273.16,483.09 276.11,457.68 279.05,432.27 282.00,411.74 284.94,391.21 287.89,370.67 290.83,350.14 293.78,360.52 296.72,383.27 299.67,406.02 302.62,428.77 305.56,456.34 308.51,490.35 311.45,524.36 314.40,558.38 317.34,586.47 320.29,579.11 323.23,571.75 326.17,564.39 329.13,557.03 332.07,542.25 335.01,526.24 337.96,510.22 340.91,494.21 343.85,481.63 346.80,471.62 349.74,461.62 352.68,451.61 355.64,441.83 358.58,432.60 361.52,423.38 364.47,414.15 367.41,404.93 370.35,395.22 373.31,385.52 376.25,375.81 379.19,366.11 382.15,354.91 385.09,343.11 388.03,331.32 390.98,319.52 393.92,304.23 396.86,284.28 399.82,264.33 402.76,244.38 405.70,225.36 408.65,211.97 411.59,198.57 414.54,185.18 417.49,171.78 420.43,193.28 423.37,220.61 426.33,247.93 429.27,275.25 432.21,298.14 435.16,317.69 438.10,337.24 441.04,356.79 444.00,366.34 446.94,350.87 449.88,335.41 452.83,319.94 455.78,304.48 458.72,290.03 461.67,275.59 464.61,261.14 467.55,246.69 470.51,237.35 473.45,230.04 476.39,222.74 479.34,215.44 482.28,213.00 485.23,217.05 488.18,221.10 491.12,225.15 494.06,230.27 497.02,241.82 499.96,253.38 502.90,264.93 505.85,276.49 508.79,288.59 511.73,300.79 514.69,312.99 517.63,325.19 520.57,331.60 523.52,333.66 526.47,335.73 529.41,337.80 532.36,336.82 535.30,328.23 538.24,319.65 541.20,311.06 544.14,302.47 547.08,291.05 550.03,279.63 552.97,268.21 555.92,256.79 558.87,263.78 561.81,278.14 564.75,292.50 567.71,306.85 570.65,328.06 573.59,358.41 576.54,388.75 579.48,419.10 582.42,445.11 585.38,445.15 588.32,445.18 591.26,445.22 594.21,445.25 597.16,435.22 600.10,423.51 603.05,411.80 605.99,400.10 608.93,391.99 611.89,386.59 614.83,381.18 617.77,375.78 620.72,370.03 623.66,363.42 626.60,356.80 629.56,350.19 632.50,343.58 635.44,336.59 638.40,329.59 641.34,322.59 644.28,315.59 647.23,307.43 650.17,298.80 653.11,290.18 656.07,281.55 659.01,270.10 661.95,254.89 664.90,239.67 667.84,224.46 670.79,210.63 673.74,205.07 676.68,199.51 679.62,193.95 682.58,188.39 685.52,217.79 688.46,253.02 691.41,288.25 694.35,323.48 697.29,355.49 700.25,385.09 703.19,414.69 706.13,444.28 709.08,462.11 712.03,450.50 714.97,438.89 717.92,427.28 720.86,415.68 723.80,392.60 726.76,369.53 729.70,346.45 732.64,323.38 735.59,301.54 738.53,280.18 741.48,258.83 744.43,237.48 747.37,218.84 750.31,203.82 753.27,188.79 756.21,173.77 759.15,159.74 762.10,151.63 765.04,143.52 767.98,135.41 770.94,127.30 773.88,124.43 776.82,122.44 779.77,120.44 782.72,118.45 785.66,118.83 788.61,120.98 791.55,123.14 794.49,125.30 797.45,128.79 800.39,135.61 803.33,142.43 806.28,149.25 809.22,156.07 812.17,170.94 815.12,185.82 818.06,200.69 821.00,215.56 823.96,257.19 826.90,309.52 829.84,361.85 832.79,414.19 835.73,461.71 838.67,502.81 841.63,543.92 844.57,585.03 847.51,618.35 850.46,605.00 853.41,591.65 856.35,578.30 859.30,564.95 862.24,546.70 865.18,527.62 868.14,508.55 871.08,489.47 874.02,474.17 876.97,461.68 879.91,449.20 882.85,436.71 885.81,425.08 888.75,415.56 891.69,406.03 894.65,396.51 897.59,386.99 900.53,379.18 903.48,371.37 906.42,363.56 909.36,355.75 912.32,350.11 915.26,345.34 918.20,340.57 921.15,335.80 924.09,328.36 927.04,317.36 929.99,306.35 932.93,295.35 935.87,287.54 938.83,298.92 941.77,310.29 944.71,321.67 947.66,333.04 950.60,379.03 953.54,430.79 956.50,482.55 959.44,534.31 962.38,568.33 965.33,589.06 968.28,609.79 971.22,630.51 974.17,640.02 977.11,621.48 980.05,602.94 983.01,584.40 985.95,565.86 988.89,546.36 991.84,526.86 994.78,507.36 997.73,487.86 1000.68,471.14 1003.62,455.53 1006.56,439.92 1009.52,424.30 1012.46,412.54 1015.40,405.91 1018.35,399.28 1021.29,392.65 1024.23,386.74 1027.19,385.16 1030.13,383.58 1033.07,382.00 1036.02,380.42 1038.97,381.06 1041.91,382.07 1044.86,383.07 1047.80,384.08 1050.74,384.25 1053.70,383.78 1056.64,383.32 1059.58,382.86 1062.53,382.13 1065.47,380.76 1068.42,379.38 1071.37,378.00 1074.31,376.62" fill="none" stroke="#000000" stroke-width="3"/>
<line x1="142" y1="100" x2="178" y2="100" stroke="#000000" stroke-width="4"/>
<text x="188" y="105" font-family="Arial" font-size="18" fill="black">U:0</text>
</svg>