<svg xmlns="http://www.w3.org/2000/svg" width="1200" height="820" viewBox="0 0 1200 820">
<rect width="100%" height="100%" fill="white"/>
<text x="600.0" y="36" text-anchor="middle" font-family="Arial" font-size="24" fill="black">profile_rack_height_x: U:1</text>
<line x1="120.00" y1="75" x2="120.00" y2="705" stroke="#dddddd" stroke-width="1"/>
<text x="120.00" y="737" text-anchor="middle" font-family="Arial" font-size="16" fill="black">-0.560</text>
<line x1="376.25" y1="75" x2="376.25" y2="705" stroke="#dddddd" stroke-width="1"/>
<text x="376.25" y="737" text-anchor="middle" font-family="Arial" font-size="16" fill="black">1.470</text>
<line x1="632.50" y1="75" x2="632.50" y2="705" stroke="#dddddd" stroke-width="1"/>
<text x="632.50" y="737" text-anchor="middle" font-family="Arial" font-size="16" fill="black">3.500</text>
<line x1="888.75" y1="75" x2="888.75" y2="705" stroke="#dddddd" stroke-width="1"/>
<text x="888.75" y="737" text-anchor="middle" font-family="Arial" font-size="16" fill="black">5.530</text>
<line x1="1145.00" y1="75" x2="1145.00" y2="705" stroke="#dddddd" stroke-width="1"/>
<text x="1145.00" y="737" text-anchor="middle" font-family="Arial" font-size="16" fill="black">7.560</text>
<line x1="120" y1="705.00" x2="1145" y2="705.00" stroke="#dddddd" stroke-width="1"/>
<text x="104" y="710.00" text-anchor="end" font-family="Arial" font-size="16" fill="black">-0.156</text>
<line x1="120" y1="547.50" x2="1145" y2="547.50" stroke="#dddddd" stroke-width="1"/>
<text x="104" y="552.50" text-anchor="end" font-family="Arial" font-size="16" fill="black">-0.043</text>
<line x1="120" y1="390.00" x2="1145" y2="390.00" stroke="#dddddd" stroke-width="1"/>
<text x="104" y="395.00" text-anchor="end" font-family="Arial" font-size="16" fill="black">0.069</text>
<line x1="120" y1="232.50" x2="1145" y2="232.50" stroke="#dddddd" stroke-width="1"/>
<text x="104" y="237.50" text-anchor="end" font-family="Arial" font-size="16" fill="black">0.182</text>
<line x1="120" y1="75.00" x2="1145" y2="75.00" stroke="#dddddd" stroke-width="1"/>
<text x="104" y="80.00" text-anchor="end" font-family="Arial" font-size="16" fill="black">0.294</text>
<rect x="120" y="75" width="1025" height="630" fill="none" stroke="black" stroke-width="2"/>
<text x="632.5" y="785" text-anchor="middle" font-family="Arial" font-size="20" fill="black">x coordinate [m]</text>
<text x="34" y="390.0" transform="rotate(-90 34 390.0)" text-anchor="middle" font-family="Arial" font-size="20" fill="black">U:1 [SI]</text>
<polyline points="190.69,291.38 193.64,300.44 196.58,309.50 199.53,318.57 202.47,327.62 205.42,340.90 208.36,355.85 211.31,370.80 214.25,385.75 217.20,398.26 220.14,407.51 223.09,416.76 226.03,426.01 228.98,434.58 231.93,439.07 234.87,443.55 237.82,448.03 240.76,452.51 243.71,453.25 246.65,453.36 249.60,453.48 252.54,453.60 255.49,451.32 258.43,447.24 261.38,443.16 264.32,439.09 267.27,433.84 270.22,425.65 273.16,417.46 276.11,409.27 279.05,401.08 282.00,389.07 284.94,377.05 287.89,365.04 290.83,353.03 293.78,339.03 296.72,324.22 299.67,309.41 302.62,294.61 305.56,279.49 308.51,263.99 311.45,248.48 314.40,232.96 317.34,217.78 320.29,204.53 323.23,191.26 326.17,178.01 329.13,164.76 332.07,155.76 335.01,147.46 337.96,139.17 340.91,130.88 343.85,126.03 346.80,123.77 349.74,121.50 352.68,119.23 355.64,118.45 358.58,121.35 361.52,124.24 364.47,127.14 367.41,130.05 370.35,136.42 373.31,142.78 376.25,149.15 379.19,155.52 382.15,163.50 385.09,172.13 388.03,180.75 390.98,189.39 393.92,198.73 396.86,209.02 399.82,219.32 402.76,229.62 405.70,240.02 408.65,251.10 411.59,262.18 414.54,273.27 417.49,284.35 420.43,295.21 423.37,306.01 426.33,316.83 429.27,327.65 432.21,337.96 435.16,347.91 438.10,357.86 441.04,367.81 444.00,377.44 446.94,386.29 449.88,395.13 452.83,403.97 455.78,412.81 458.72,420.34 461.67,427.87 464.61,435.40 467.55,442.93 470.51,449.38 473.45,455.39 476.39,461.40 479.34,467.41 482.28,472.73 485.23,477.14 488.18,481.54 491.12,485.95 494.06,490.14 497.02,493.03 499.96,495.93 502.90,498.82 505.85,501.72 508.79,503.51 511.73,505.11 514.69,506.71 517.63,508.31 520.57,509.26 523.52,509.72 526.47,510.18 529.41,510.64 532.36,510.78 535.30,510.10 538.24,509.43 541.20,508.75 544.14,508.08 547.08,506.16 550.03,504.25 552.97,502.33 555.92,500.42 558.87,497.61 561.81,494.45 564.75,491.29 567.71,488.13 570.65,484.52 573.59,480.32 576.54,476.12 579.48,471.91 582.42,467.62 585.38,462.77 588.32,457.91 591.26,453.06 594.21,448.21 597.16,443.22 600.10,438.20 603.05,433.19 605.99,428.17 608.93,423.35 611.89,418.68 614.83,414.00 617.77,409.33 620.72,404.87 623.66,400.98 626.60,397.08 629.56,393.19 632.50,389.29 635.44,386.50 638.40,383.71 641.34,380.91 644.28,378.12 647.23,376.23 650.17,374.70 653.11,373.18 656.07,371.65 659.01,370.65 661.95,370.35 664.90,370.05 667.84,369.76 670.79,369.61 673.74,370.32 676.68,371.04 679.62,371.75 682.58,372.47 685.52,373.73 688.46,375.09 691.41,376.45 694.35,377.81 697.29,379.30 700.25,380.88 703.19,382.47 706.13,384.05 709.08,385.59 712.03,387.03 714.97,388.46 717.92,389.89 720.86,391.33 723.80,392.36 726.76,393.39 729.70,394.42 732.64,395.45 735.59,396.10 738.53,396.61 741.48,397.10 744.43,397.61 747.37,397.86 750.31,397.80 753.27,397.74 756.21,397.68 759.15,397.54 762.10,396.94 765.04,396.33 767.98,395.73 770.94,395.12 773.88,394.08 776.82,392.96 779.77,391.84 782.72,390.72 785.66,389.29 788.61,387.63 791.55,385.97 794.49,384.31 797.45,382.47 800.39,380.17 803.33,377.88 806.28,375.58 809.22,373.29 812.17,370.25 815.12,367.21 818.06,364.17 821.00,361.14 823.96,357.63 826.90,353.94 829.84,350.25 832.79,346.55 835.73,342.78 838.67,338.87 841.63,334.97 844.57,331.06 847.51,327.24 850.46,323.90 853.41,320.54 856.35,317.19 859.30,313.85 862.24,311.63 865.18,309.60 868.14,307.57 871.08,305.54 874.02,304.46 876.97,304.12 879.91,303.77 882.85,303.42 885.81,303.55 888.75,304.87 891.69,306.18 894.65,307.50 897.59,308.81 900.53,311.60 903.48,314.38 906.42,317.17 909.36,319.97 912.32,323.70 915.26,327.82 918.20,331.93 921.15,336.05 924.09,340.73 927.04,346.16 929.99,351.59 932.93,357.02 935.87,362.64 938.83,369.41 941.77,376.18 944.71,382.96 947.66,389.73 950.60,397.63 953.54,405.72 956.50,413.81 959.44,421.90 962.38,430.65 965.33,439.90 968.28,449.15 971.22,458.40 974.17,467.88 977.11,477.95 980.05,488.01 983.01,498.07 985.95,508.14 988.89,518.44 991.84,528.75 994.78,539.06 997.73,549.37 1000.68,559.35 1003.62,569.20 1006.56,579.05 1009.52,588.90 1012.46,598.18 1015.40,606.70 1018.35,615.23 1021.29,623.75 1024.23,631.90 1027.19,637.82 1030.13,643.72 1033.07,649.64 1036.02,655.56 1038.97,657.55 1041.91,658.88 1044.86,660.21 1047.80,661.55 1050.74,658.54 1053.70,652.29 1056.64,646.03 1059.58,639.78 1062.53,633.75 1065.47,628.27 1068.42,622.79 1071.37,617.32 1074.31,611.84" fill="none" stroke="#000000" stroke-width="3"/>
<line x1="142" y1="100" x2="178" y2="100" stroke="#000000" stroke-width="4"/>
<text x="188" y="105" font-family="Arial" font-size="18" fill="black">U:1</text>
</svg>