<svg xmlns="http://www.w3.org/2000/svg" width="1200" height="820" viewBox="0 0 1200 820">
<rect width="100%" height="100%" fill="white"/>
<text x="600.0" y="36" text-anchor="middle" font-family="Arial" font-size="24" fill="black">profile_center_y: nut</text>
<line x1="120.00" y1="75" x2="120.00" y2="705" stroke="#dddddd" stroke-width="1"/>
<text x="120.00" y="737" text-anchor="middle" font-family="Arial" font-size="16" fill="black">-0.400</text>
<line x1="376.25" y1="75" x2="376.25" y2="705" stroke="#dddddd" stroke-width="1"/>
<text x="376.25" y="737" text-anchor="middle" font-family="Arial" font-size="16" fill="black">1.050</text>
<line x1="632.50" y1="75" x2="632.50" y2="705" stroke="#dddddd" stroke-width="1"/>
<text x="632.50" y="737" text-anchor="middle" font-family="Arial" font-size="16" fill="black">2.500</text>
<line x1="888.75" y1="75" x2="888.75" y2="705" stroke="#dddddd" stroke-width="1"/>
<text x="888.75" y="737" text-anchor="middle" font-family="Arial" font-size="16" fill="black">3.950</text>
<line x1="1145.00" y1="75" x2="1145.00" y2="705" stroke="#dddddd" stroke-width="1"/>
<text x="1145.00" y="737" text-anchor="middle" font-family="Arial" font-size="16" fill="black">5.400</text>
<line x1="120" y1="705.00" x2="1145" y2="705.00" stroke="#dddddd" stroke-width="1"/>
<text x="104" y="710.00" text-anchor="end" font-family="Arial" font-size="16" fill="black">-8.21e-04</text>
<line x1="120" y1="547.50" x2="1145" y2="547.50" stroke="#dddddd" stroke-width="1"/>
<text x="104" y="552.50" text-anchor="end" font-family="Arial" font-size="16" fill="black">0.004</text>
<line x1="120" y1="390.00" x2="1145" y2="390.00" stroke="#dddddd" stroke-width="1"/>
<text x="104" y="395.00" text-anchor="end" font-family="Arial" font-size="16" fill="black">0.009</text>
<line x1="120" y1="232.50" x2="1145" y2="232.50" stroke="#dddddd" stroke-width="1"/>
<text x="104" y="237.50" text-anchor="end" font-family="Arial" font-size="16" fill="black">0.014</text>
<line x1="120" y1="75.00" x2="1145" y2="75.00" stroke="#dddddd" stroke-width="1"/>
<text x="104" y="80.00" text-anchor="end" font-family="Arial" font-size="16" fill="black">0.019</text>
<rect x="120" y="75" width="1025" height="630" fill="none" stroke="black" stroke-width="2"/>
<text x="632.5" y="785" text-anchor="middle" font-family="Arial" font-size="20" fill="black">y coordinate [m]</text>
<text x="34" y="390.0" transform="rotate(-90 34 390.0)" text-anchor="middle" font-family="Arial" font-size="20" fill="black">nut [m2/s]</text>
<polyline points="190.69,652.32 193.64,644.92 196.58,637.51 199.53,630.11 202.47,622.71 205.42,615.30 208.36,607.90 211.31,592.22 214.25,576.54 217.20,560.86 220.14,545.18 223.09,529.50 226.03,513.82 228.98,499.96 231.92,486.09 234.87,472.23 237.82,458.36 240.76,444.50 243.71,430.63 246.65,421.67 249.60,412.71 252.54,403.75 255.49,394.79 258.43,385.83 261.38,376.87 264.33,371.61 267.27,366.36 270.22,361.10 273.16,355.85 276.11,350.60 279.05,345.33 282.00,342.51 284.94,339.70 287.89,336.88 290.83,334.04 293.78,331.22 296.72,328.41 299.67,327.15 302.61,325.88 305.56,324.62 308.51,323.36 311.45,322.10 314.40,320.84 317.34,320.58 320.29,320.35 323.23,320.12 326.18,319.90 329.12,319.64 332.07,319.41 335.01,319.74 337.96,320.03 340.91,320.35 343.85,320.67 346.80,320.97 349.74,321.29 352.69,321.45 355.63,321.64 358.58,321.81 361.52,321.97 364.47,322.13 367.41,322.32 370.37,321.68 373.30,321.03 376.25,320.42 379.20,319.77 382.13,319.12 385.09,318.51 388.04,316.79 390.97,315.08 393.92,313.36 396.87,311.65 399.81,309.93 402.76,308.22 405.71,305.40 408.64,302.59 411.59,299.77 414.55,296.96 417.48,294.14 420.43,291.33 423.38,287.61 426.32,283.89 429.27,280.16 432.22,276.44 435.15,272.75 438.10,269.03 441.05,265.02 443.99,260.98 446.94,256.96 449.89,252.95 452.82,248.91 455.78,244.90 458.73,241.27 461.66,237.65 464.61,234.02 467.56,230.37 470.50,226.74 473.45,223.12 476.40,220.37 479.33,217.59 482.28,214.84 485.24,212.09 488.17,209.30 491.12,206.55 494.07,204.87 497.01,203.19 499.96,201.47 502.91,199.79 505.84,198.11 508.79,196.43 511.74,195.68 514.68,194.97 517.63,194.23 520.58,193.51 523.51,192.80 526.47,192.06 529.42,191.86 532.35,191.67 535.30,191.48 538.25,191.25 541.19,191.06 544.14,190.86 547.09,190.73 550.02,190.60 552.97,190.51 555.93,190.38 558.86,190.25 561.81,190.15 564.76,190.02 567.70,189.89 570.65,189.76 573.60,189.63 576.53,189.53 579.48,189.41 582.43,189.18 585.37,188.92 588.32,188.69 591.27,188.47 594.20,188.21 597.16,187.98 600.11,187.33 603.04,186.69 605.99,186.01 608.94,185.36 611.88,184.71 614.83,184.07 617.78,182.58 620.71,181.09 623.66,179.60 626.62,178.11 629.55,176.62 632.50,175.14 635.45,172.77 638.38,170.41 641.34,168.02 644.29,165.66 647.22,163.29 650.17,160.90 653.12,158.28 656.06,155.63 659.01,153.00 661.96,150.38 664.89,147.73 667.84,145.11 670.80,142.91 673.73,140.74 676.68,138.54 679.63,136.37 682.57,134.21 685.52,132.01 688.47,130.61 691.40,129.22 694.35,127.86 697.30,126.47 700.24,125.08 703.19,123.69 706.14,123.01 709.07,122.36 712.03,121.68 714.98,121.00 717.91,120.32 720.86,119.68 723.81,119.45 726.75,119.26 729.70,119.06 732.65,118.84 735.58,118.64 738.53,118.45 741.49,118.61 744.42,118.77 747.37,118.93 750.32,119.10 753.26,119.26 756.21,119.42 759.16,120.10 762.09,120.75 765.04,121.43 767.99,122.07 770.93,122.72 773.88,123.40 776.83,124.79 779.76,126.15 782.72,127.54 785.67,128.93 788.60,130.29 791.55,131.68 794.50,134.04 797.44,136.37 800.39,138.74 803.34,141.07 806.27,143.43 809.22,145.76 812.18,149.19 815.11,152.58 818.06,155.98 821.01,159.38 823.95,162.78 826.90,166.17 829.85,170.44 832.78,174.72 835.73,178.95 838.68,183.23 841.62,187.46 844.57,191.73 847.52,196.43 850.45,201.09 853.41,205.78 856.36,210.44 859.29,215.13 862.24,219.79 865.19,224.54 868.13,229.27 871.08,233.99 874.03,238.72 876.96,243.44 879.91,248.16 882.87,252.86 885.80,257.51 888.75,262.21 891.70,266.87 894.63,271.56 897.59,276.22 900.54,280.84 903.47,285.44 906.42,290.03 909.37,294.66 912.31,299.25 915.26,303.88 918.21,308.44 921.14,313.04 924.09,317.63 927.05,322.19 929.98,326.79 932.93,331.38 935.88,336.01 938.82,340.64 941.77,345.30 944.72,349.92 947.65,354.55 950.60,359.20 953.55,363.96 956.49,368.72 959.44,373.48 962.39,378.24 965.32,382.99 968.28,387.75 971.23,392.77 974.16,397.78 977.11,402.80 980.06,407.81 983.00,412.83 985.95,417.84 988.90,423.46 991.83,429.07 994.78,434.68 997.74,440.30 1000.67,445.91 1003.62,451.53 1006.57,458.47 1009.51,465.42 1012.46,472.36 1015.41,479.31 1018.34,486.26 1021.29,493.20 1024.24,502.73 1027.18,512.26 1030.13,521.80 1033.08,531.33 1036.01,540.86 1038.97,550.39 1041.92,562.45 1044.85,574.52 1047.80,586.58 1050.75,598.65 1053.69,610.71 1056.64,622.78 1059.59,629.24 1062.52,635.70 1065.47,642.16 1068.43,648.63 1071.36,655.09 1074.31,661.55" fill="none" stroke="#000000" stroke-width="3"/>
<line x1="142" y1="100" x2="178" y2="100" stroke="#000000" stroke-width="4"/>
<text x="188" y="105" font-family="Arial" font-size="18" fill="black">nut</text>
</svg>