<svg xmlns="http://www.w3.org/2000/svg" width="1200" height="820" viewBox="0 0 1200 820">
<rect width="100%" height="100%" fill="white"/>
<text x="600.0" y="36" text-anchor="middle" font-family="Arial" font-size="24" fill="black">Umag profile along x-centerline</text>
<line x1="115.00" y1="75" x2="115.00" y2="705" stroke="#dddddd" stroke-width="1"/>
<text x="115.00" y="737" text-anchor="middle" font-family="Arial" font-size="16" fill="black">-0.560</text>
<line x1="372.50" y1="75" x2="372.50" y2="705" stroke="#dddddd" stroke-width="1"/>
<text x="372.50" y="737" text-anchor="middle" font-family="Arial" font-size="16" fill="black">1.470</text>
<line x1="630.00" y1="75" x2="630.00" y2="705" stroke="#dddddd" stroke-width="1"/>
<text x="630.00" y="737" text-anchor="middle" font-family="Arial" font-size="16" fill="black">3.500</text>
<line x1="887.50" y1="75" x2="887.50" y2="705" stroke="#dddddd" stroke-width="1"/>
<text x="887.50" y="737" text-anchor="middle" font-family="Arial" font-size="16" fill="black">5.530</text>
<line x1="1145.00" y1="75" x2="1145.00" y2="705" stroke="#dddddd" stroke-width="1"/>
<text x="1145.00" y="737" text-anchor="middle" font-family="Arial" font-size="16" fill="black">7.560</text>
<line x1="115" y1="705.00" x2="1145" y2="705.00" stroke="#dddddd" stroke-width="1"/>
<text x="99" y="710.00" text-anchor="end" font-family="Arial" font-size="16" fill="black">-0.014</text>
<line x1="115" y1="547.50" x2="1145" y2="547.50" stroke="#dddddd" stroke-width="1"/>
<text x="99" y="552.50" text-anchor="end" font-family="Arial" font-size="16" fill="black">0.082</text>
<line x1="115" y1="390.00" x2="1145" y2="390.00" stroke="#dddddd" stroke-width="1"/>
<text x="99" y="395.00" text-anchor="end" font-family="Arial" font-size="16" fill="black">0.179</text>
<line x1="115" y1="232.50" x2="1145" y2="232.50" stroke="#dddddd" stroke-width="1"/>
<text x="99" y="237.50" text-anchor="end" font-family="Arial" font-size="16" fill="black">0.276</text>
<line x1="115" y1="75.00" x2="1145" y2="75.00" stroke="#dddddd" stroke-width="1"/>
<text x="99" y="80.00" text-anchor="end" font-family="Arial" font-size="16" fill="black">0.373</text>
<rect x="115" y="75" width="1030" height="630" fill="none" stroke="black" stroke-width="2"/>
<text x="630.0" y="785" text-anchor="middle" font-family="Arial" font-size="20" fill="black">x coordinate [m]</text>
<text x="34" y="390.0" transform="rotate(-90 34 390.0)" text-anchor="middle" font-family="Arial" font-size="20" fill="black">Umag [m/s]</text>
<polyline points="186.03,264.02 188.99,275.86 191.95,287.70 194.91,299.54 197.87,311.38 200.83,330.23 203.79,351.87 206.75,373.53 209.71,395.18 212.67,415.38 215.63,433.63 218.59,451.89 221.55,470.15 224.51,487.46 227.47,499.06 230.43,510.65 233.39,522.26 236.35,533.86 239.31,532.19 242.27,528.31 245.23,524.43 248.19,520.55 251.15,511.00 254.11,497.20 257.07,483.39 260.03,469.59 262.99,456.14 265.95,443.55 268.91,430.96 271.87,418.37 274.83,405.78 277.79,398.50 280.75,391.22 283.71,383.94 286.67,376.66 289.63,373.24 292.59,371.35 295.55,369.48 298.51,367.59 301.47,367.46 304.42,369.64 307.39,371.82 310.34,374.01 313.30,376.50 316.27,380.86 319.22,385.21 322.18,389.56 325.15,393.91 328.10,397.56 331.06,401.09 334.03,404.63 336.98,408.16 339.94,408.29 342.91,405.88 345.86,403.45 348.82,401.04 351.79,395.88 354.74,383.88 357.70,371.86 360.67,359.84 363.62,347.83 366.58,330.02 369.54,312.20 372.50,294.36 375.46,276.55 378.42,259.26 381.38,242.21 384.33,225.14 387.30,208.09 390.26,193.09 393.21,180.88 396.18,168.64 399.14,156.43 402.09,145.08 405.06,139.00 408.02,132.91 410.97,126.84 413.94,120.74 416.90,119.56 419.85,119.18 422.82,118.82 425.78,118.45 428.73,120.63 431.70,124.74 434.66,128.84 437.61,132.94 440.58,137.93 443.53,145.09 446.49,152.24 449.46,159.41 452.41,166.58 455.37,175.53 458.34,184.51 461.29,193.47 464.25,202.44 467.22,212.00 470.17,221.81 473.13,231.63 476.10,241.43 479.05,251.27 482.01,261.17 484.98,271.07 487.93,280.98 490.89,290.81 493.85,300.23 496.81,309.64 499.77,319.05 502.73,328.47 505.69,337.10 508.65,345.60 511.61,354.10 514.57,362.61 517.52,370.44 520.49,377.77 523.45,385.10 526.40,392.43 529.37,399.41 532.33,405.52 535.28,411.65 538.25,417.75 541.21,423.86 544.16,428.81 547.13,433.76 550.09,438.71 553.04,443.65 556.01,447.82 558.97,451.66 561.92,455.51 564.89,459.35 567.84,462.70 570.80,465.39 573.77,468.10 576.72,470.78 579.68,473.29 582.65,474.69 585.60,476.11 588.56,477.53 591.53,478.93 594.48,479.27 597.44,479.42 600.41,479.56 603.36,479.71 606.32,479.40 609.29,478.73 612.24,478.06 615.20,477.38 618.17,476.78 621.12,476.29 624.08,475.80 627.04,475.31 630.00,474.82 632.96,475.86 635.92,476.89 638.88,477.93 641.83,478.98 644.80,481.92 647.76,485.65 650.71,489.38 653.68,493.11 656.64,498.23 659.59,505.18 662.56,512.12 665.52,519.07 668.47,526.41 671.44,536.17 674.40,545.91 677.35,555.66 680.32,565.41 683.28,576.49 686.23,587.79 689.20,599.09 692.16,610.38 695.11,621.50 698.08,632.48 701.03,643.47 703.99,654.45 706.96,661.55 709.91,658.95 712.87,656.35 715.84,653.75 718.79,651.14 721.75,641.37 724.72,631.59 727.67,621.81 730.63,612.03 733.60,601.90 736.55,591.64 739.51,581.37 742.48,571.10 745.43,560.45 748.39,549.28 751.35,538.11 754.31,526.94 757.27,515.67 760.23,503.78 763.19,491.89 766.15,479.99 769.11,468.10 772.07,456.16 775.02,444.22 777.99,432.26 780.95,420.31 783.90,408.83 786.87,397.69 789.83,386.55 792.78,375.41 795.75,364.74 798.71,355.26 801.66,345.78 804.63,336.30 807.59,326.82 810.54,319.74 813.51,312.64 816.47,305.54 819.42,298.43 822.39,293.34 825.34,289.02 828.30,284.72 831.27,280.42 834.22,277.28 837.18,275.71 840.15,274.13 843.10,272.57 846.06,271.30 849.03,271.87 851.98,272.44 854.94,273.03 857.91,273.60 860.86,275.21 863.82,276.99 866.79,278.78 869.74,280.55 872.70,282.59 875.67,284.80 878.62,287.02 881.58,289.23 884.54,291.51 887.50,293.96 890.46,296.40 893.42,298.84 896.38,301.27 899.33,304.15 902.30,307.03 905.26,309.92 908.21,312.80 911.18,316.22 914.14,319.84 917.09,323.45 920.06,327.07 923.02,331.06 925.97,335.57 928.94,340.06 931.90,344.58 934.85,349.20 937.82,354.56 940.78,359.92 943.73,365.29 946.70,370.65 949.66,376.68 952.61,382.80 955.58,388.93 958.53,395.05 961.49,401.61 964.46,408.50 967.41,415.39 970.37,422.26 973.34,429.40 976.29,437.17 979.25,444.92 982.22,452.69 985.17,460.44 988.13,469.19 991.10,477.95 994.05,486.70 997.01,495.44 999.98,504.71 1002.93,514.20 1005.89,523.70 1008.85,533.19 1011.81,542.44 1014.77,551.36 1017.73,560.29 1020.69,569.21 1023.65,577.45 1026.61,581.53 1029.57,585.62 1032.52,589.70 1035.49,593.79 1038.45,588.47 1041.40,581.60 1044.37,574.72 1047.33,567.84 1050.28,554.49 1053.25,536.30 1056.21,518.10 1059.16,499.90 1062.13,483.50 1065.09,471.58 1068.04,459.68 1071.01,447.77 1073.97,435.85" fill="none" stroke="#111111" stroke-width="3"/>
<line x1="137" y1="100" x2="173" y2="100" stroke="#111111" stroke-width="4"/>
<text x="183" y="105" font-family="Arial" font-size="18" fill="black">Umag</text>
</svg>