<svg xmlns="http://www.w3.org/2000/svg" width="1200" height="820" viewBox="0 0 1200 820">
<rect width="100%" height="100%" fill="white"/>
<text x="600.0" y="36" text-anchor="middle" font-family="Arial" font-size="24" fill="black">Umag profile along z-centerline</text>
<line x1="115.00" y1="75" x2="115.00" y2="705" stroke="#dddddd" stroke-width="1"/>
<text x="115.00" y="737" text-anchor="middle" font-family="Arial" font-size="16" fill="black">-0.240</text>
<line x1="372.50" y1="75" x2="372.50" y2="705" stroke="#dddddd" stroke-width="1"/>
<text x="372.50" y="737" text-anchor="middle" font-family="Arial" font-size="16" fill="black">0.630</text>
<line x1="630.00" y1="75" x2="630.00" y2="705" stroke="#dddddd" stroke-width="1"/>
<text x="630.00" y="737" text-anchor="middle" font-family="Arial" font-size="16" fill="black">1.500</text>
<line x1="887.50" y1="75" x2="887.50" y2="705" stroke="#dddddd" stroke-width="1"/>
<text x="887.50" y="737" text-anchor="middle" font-family="Arial" font-size="16" fill="black">2.370</text>
<line x1="1145.00" y1="75" x2="1145.00" y2="705" stroke="#dddddd" stroke-width="1"/>
<text x="1145.00" y="737" text-anchor="middle" font-family="Arial" font-size="16" fill="black">3.240</text>
<line x1="115" y1="705.00" x2="1145" y2="705.00" stroke="#dddddd" stroke-width="1"/>
<text x="99" y="710.00" text-anchor="end" font-family="Arial" font-size="16" fill="black">0.011</text>
<line x1="115" y1="547.50" x2="1145" y2="547.50" stroke="#dddddd" stroke-width="1"/>
<text x="99" y="552.50" text-anchor="end" font-family="Arial" font-size="16" fill="black">0.140</text>
<line x1="115" y1="390.00" x2="1145" y2="390.00" stroke="#dddddd" stroke-width="1"/>
<text x="99" y="395.00" text-anchor="end" font-family="Arial" font-size="16" fill="black">0.268</text>
<line x1="115" y1="232.50" x2="1145" y2="232.50" stroke="#dddddd" stroke-width="1"/>
<text x="99" y="237.50" text-anchor="end" font-family="Arial" font-size="16" fill="black">0.397</text>
<line x1="115" y1="75.00" x2="1145" y2="75.00" stroke="#dddddd" stroke-width="1"/>
<text x="99" y="80.00" text-anchor="end" font-family="Arial" font-size="16" fill="black">0.526</text>
<rect x="115" y="75" width="1030" height="630" fill="none" stroke="black" stroke-width="2"/>
<text x="630.0" y="785" text-anchor="middle" font-family="Arial" font-size="20" fill="black">z coordinate [m]</text>
<text x="34" y="390.0" transform="rotate(-90 34 390.0)" text-anchor="middle" font-family="Arial" font-size="20" fill="black">Umag [m/s]</text>
<polyline points="186.03,129.16 188.99,132.99 191.95,136.83 194.91,140.66 197.87,144.50 200.83,148.34 203.79,152.18 206.75,156.01 209.71,159.85 212.67,163.68 215.63,167.53 218.59,177.49 221.55,187.46 224.51,197.42 227.47,207.39 230.43,217.35 233.39,227.33 236.35,237.29 239.31,247.26 242.27,257.23 245.23,267.19 248.19,280.90 251.15,294.60 254.11,308.30 257.07,322.01 260.03,335.70 262.99,349.41 265.95,363.11 268.91,376.81 271.87,390.52 274.83,404.22 277.79,420.88 280.75,437.53 283.71,454.19 286.67,470.84 289.63,487.50 292.59,504.15 295.55,520.80 298.51,537.46 301.47,554.11 304.43,570.78 307.39,579.85 310.34,588.93 313.30,598.01 316.26,607.08 319.22,616.16 322.18,625.24 325.14,634.32 328.10,643.40 331.06,652.47 334.02,661.55 336.98,655.10 339.94,648.66 342.90,642.21 345.86,635.76 348.82,629.31 351.78,622.87 354.74,616.42 357.70,609.97 360.66,603.52 363.62,597.07 366.58,594.53 369.54,591.98 372.50,589.43 375.46,586.90 378.42,584.35 381.38,581.80 384.34,579.27 387.30,576.72 390.26,574.17 393.22,571.62 396.18,570.95 399.14,570.27 402.10,569.60 405.06,568.93 408.02,568.25 410.98,567.58 413.94,566.90 416.90,566.23 419.86,565.56 422.82,564.88 425.78,565.23 428.74,565.58 431.70,565.92 434.66,566.27 437.61,566.61 440.57,566.96 443.53,567.31 446.49,567.65 449.45,567.99 452.41,568.35 455.37,568.96 458.33,569.57 461.29,570.19 464.25,570.80 467.21,571.42 470.17,572.04 473.13,572.65 476.09,573.26 479.05,573.89 482.01,574.50 484.97,575.01 487.93,575.54 490.89,576.07 493.85,576.58 496.81,577.11 499.77,577.62 502.73,578.15 505.69,578.68 508.65,579.19 511.61,579.72 514.57,579.90 517.53,580.10 520.49,580.28 523.45,580.47 526.41,580.65 529.37,580.85 532.33,581.03 535.29,581.21 538.25,581.41 541.21,581.59 544.17,581.35 547.13,581.09 550.09,580.85 553.05,580.60 556.01,580.34 558.97,580.10 561.93,579.84 564.89,579.60 567.84,579.35 570.80,579.09 573.76,578.44 576.72,577.80 579.68,577.15 582.64,576.50 585.60,575.85 588.56,575.20 591.52,574.55 594.48,573.90 597.44,573.26 600.40,572.61 603.36,571.67 606.32,570.74 609.28,569.80 612.24,568.86 615.20,567.92 618.16,566.99 621.12,566.06 624.08,565.11 627.04,564.18 630.00,563.24 632.96,562.16 635.92,561.08 638.88,560.01 641.84,558.93 644.80,557.84 647.76,556.76 650.72,555.68 653.68,554.60 656.64,553.51 659.60,552.43 662.56,551.37 665.52,550.30 668.48,549.22 671.44,548.16 674.40,547.09 677.36,546.03 680.32,544.96 683.28,543.88 686.24,542.82 689.20,541.75 692.16,540.84 695.11,539.94 698.07,539.03 701.03,538.12 703.99,537.23 706.95,536.32 709.91,535.42 712.87,534.51 715.83,533.60 718.79,532.70 721.75,532.07 724.71,531.44 727.67,530.81 730.63,530.17 733.59,529.55 736.55,528.91 739.51,528.29 742.47,527.65 745.43,527.02 748.39,526.39 751.35,526.08 754.31,525.76 757.27,525.46 760.23,525.14 763.19,524.83 766.15,524.51 769.11,524.21 772.07,523.89 775.03,523.58 777.99,523.26 780.95,523.24 783.91,523.21 786.87,523.20 789.83,523.18 792.79,523.15 795.75,523.13 798.71,523.10 801.67,523.08 804.63,523.06 807.59,523.04 810.55,523.23 813.51,523.41 816.47,523.58 819.43,523.77 822.39,523.95 825.34,524.13 828.30,524.32 831.26,524.50 834.22,524.68 837.18,524.87 840.14,525.13 843.10,525.38 846.06,525.64 849.02,525.90 851.98,526.17 854.94,526.42 857.90,526.68 860.86,526.94 863.82,527.20 866.78,527.45 869.74,527.58 872.70,527.71 875.66,527.83 878.62,527.97 881.58,528.09 884.54,528.23 887.50,528.35 890.46,528.48 893.42,528.61 896.38,528.74 899.34,528.35 902.30,527.94 905.26,527.55 908.22,527.16 911.18,526.77 914.14,526.36 917.10,525.97 920.06,525.58 923.02,525.19 925.98,524.78 928.94,523.07 931.90,521.34 934.86,519.61 937.82,517.89 940.78,516.17 943.74,514.44 946.70,512.72 949.66,510.99 952.61,509.27 955.57,507.54 958.53,503.09 961.49,498.63 964.45,494.15 967.41,489.69 970.37,485.23 973.33,480.78 976.29,476.32 979.25,471.86 982.21,467.38 985.17,462.92 988.13,454.23 991.09,445.52 994.05,436.80 997.01,428.11 999.97,419.40 1002.93,410.68 1005.89,401.99 1008.85,393.27 1011.81,384.56 1014.77,375.87 1017.73,360.16 1020.69,344.46 1023.65,328.77 1026.61,313.08 1029.57,297.38 1032.53,281.69 1035.49,265.98 1038.45,250.29 1041.41,234.59 1044.37,218.90 1047.33,208.85 1050.29,198.81 1053.25,188.76 1056.21,178.71 1059.17,168.68 1062.13,158.63 1065.09,148.59 1068.05,138.54 1071.01,128.49 1073.97,118.45" fill="none" stroke="#111111" stroke-width="3"/>
<line x1="137" y1="100" x2="173" y2="100" stroke="#111111" stroke-width="4"/>
<text x="183" y="105" font-family="Arial" font-size="18" fill="black">Umag</text>
</svg>