<svg xmlns="http://www.w3.org/2000/svg" width="1200" height="820" viewBox="0 0 1200 820">
<rect width="100%" height="100%" fill="white"/>
<text x="600.0" y="36" text-anchor="middle" font-family="Arial" font-size="24" fill="black">Velocity components along z-centerline</text>
<line x1="115.00" y1="75" x2="115.00" y2="705" stroke="#dddddd" stroke-width="1"/>
<text x="115.00" y="737" text-anchor="middle" font-family="Arial" font-size="16" fill="black">-0.240</text>
<line x1="372.50" y1="75" x2="372.50" y2="705" stroke="#dddddd" stroke-width="1"/>
<text x="372.50" y="737" text-anchor="middle" font-family="Arial" font-size="16" fill="black">0.630</text>
<line x1="630.00" y1="75" x2="630.00" y2="705" stroke="#dddddd" stroke-width="1"/>
<text x="630.00" y="737" text-anchor="middle" font-family="Arial" font-size="16" fill="black">1.500</text>
<line x1="887.50" y1="75" x2="887.50" y2="705" stroke="#dddddd" stroke-width="1"/>
<text x="887.50" y="737" text-anchor="middle" font-family="Arial" font-size="16" fill="black">2.370</text>
<line x1="1145.00" y1="75" x2="1145.00" y2="705" stroke="#dddddd" stroke-width="1"/>
<text x="1145.00" y="737" text-anchor="middle" font-family="Arial" font-size="16" fill="black">3.240</text>
<line x1="115" y1="705.00" x2="1145" y2="705.00" stroke="#dddddd" stroke-width="1"/>
<text x="99" y="710.00" text-anchor="end" font-family="Arial" font-size="16" fill="black">-0.169</text>
<line x1="115" y1="547.50" x2="1145" y2="547.50" stroke="#dddddd" stroke-width="1"/>
<text x="99" y="552.50" text-anchor="end" font-family="Arial" font-size="16" fill="black">0.008</text>
<line x1="115" y1="390.00" x2="1145" y2="390.00" stroke="#dddddd" stroke-width="1"/>
<text x="99" y="395.00" text-anchor="end" font-family="Arial" font-size="16" fill="black">0.185</text>
<line x1="115" y1="232.50" x2="1145" y2="232.50" stroke="#dddddd" stroke-width="1"/>
<text x="99" y="237.50" text-anchor="end" font-family="Arial" font-size="16" fill="black">0.362</text>
<line x1="115" y1="75.00" x2="1145" y2="75.00" stroke="#dddddd" stroke-width="1"/>
<text x="99" y="80.00" text-anchor="end" font-family="Arial" font-size="16" fill="black">0.539</text>
<rect x="115" y="75" width="1030" height="630" fill="none" stroke="black" stroke-width="2"/>
<text x="630.0" y="785" text-anchor="middle" font-family="Arial" font-size="20" fill="black">z coordinate [m]</text>
<text x="34" y="390.0" transform="rotate(-90 34 390.0)" text-anchor="middle" font-family="Arial" font-size="20" fill="black">velocity [m/s]</text>
<polyline points="186.03,558.94 188.99,559.14 191.95,559.35 194.91,559.56 197.87,559.76 200.83,559.97 203.79,560.18 206.75,560.38 209.71,560.59 212.67,560.80 215.63,561.00 218.59,561.41 221.55,561.82 224.51,562.23 227.47,562.64 230.43,563.05 233.39,563.46 236.35,563.87 239.31,564.28 242.27,564.69 245.23,565.10 248.19,565.53 251.15,565.97 254.11,566.40 257.07,566.83 260.03,567.26 262.99,567.69 265.95,568.12 268.91,568.55 271.87,568.99 274.83,569.42 277.79,569.92 280.75,570.42 283.71,570.91 286.67,571.41 289.63,571.91 292.59,572.41 295.55,572.91 298.51,573.41 301.47,573.91 304.43,574.40 307.39,574.87 310.34,575.33 313.30,575.80 316.26,576.26 319.22,576.72 322.18,577.19 325.14,577.65 328.10,578.12 331.06,578.58 334.02,579.05 336.98,579.12 339.94,579.19 342.90,579.27 345.86,579.34 348.82,579.41 351.78,579.49 354.74,579.56 357.70,579.63 360.66,579.71 363.62,579.78 366.58,579.24 369.54,578.70 372.50,578.16 375.46,577.62 378.42,577.08 381.38,576.54 384.34,576.00 387.30,575.46 390.26,574.92 393.22,574.38 396.18,573.30 399.14,572.22 402.10,571.14 405.06,570.06 408.02,568.98 410.98,567.90 413.94,566.82 416.90,565.74 419.86,564.66 422.82,563.58 425.78,562.15 428.74,560.72 431.70,559.29 434.66,557.86 437.61,556.43 440.57,555.00 443.53,553.57 446.49,552.14 449.45,550.71 452.41,549.28 455.37,547.73 458.33,546.19 461.29,544.64 464.25,543.09 467.21,541.54 470.17,539.99 473.13,538.44 476.09,536.89 479.05,535.35 482.01,533.80 484.97,532.31 487.93,530.82 490.89,529.34 493.85,527.85 496.81,526.36 499.77,524.87 502.73,523.39 505.69,521.90 508.65,520.41 511.61,518.93 514.57,517.61 517.53,516.30 520.49,514.98 523.45,513.67 526.41,512.35 529.37,511.04 532.33,509.73 535.29,508.41 538.25,507.10 541.21,505.78 544.17,504.67 547.13,503.56 550.09,502.45 553.05,501.34 556.01,500.23 558.97,499.12 561.93,498.00 564.89,496.89 567.84,495.78 570.80,494.67 573.76,493.75 576.72,492.84 579.68,491.92 582.64,491.00 585.60,490.09 588.56,489.17 591.52,488.26 594.48,487.34 597.44,486.42 600.40,485.51 603.36,484.77 606.32,484.03 609.28,483.30 612.24,482.56 615.20,481.82 618.16,481.08 621.12,480.35 624.08,479.61 627.04,478.87 630.00,478.13 632.96,477.57 635.92,477.01 638.88,476.45 641.84,475.89 644.80,475.33 647.76,474.77 650.72,474.21 653.68,473.65 656.64,473.09 659.60,472.53 662.56,472.18 665.52,471.82 668.48,471.46 671.44,471.11 674.40,470.75 677.36,470.39 680.32,470.04 683.28,469.68 686.24,469.32 689.20,468.97 692.16,468.87 695.11,468.78 698.07,468.68 701.03,468.59 703.99,468.49 706.95,468.40 709.91,468.30 712.87,468.20 715.83,468.11 718.79,468.01 721.75,468.25 724.71,468.48 727.67,468.71 730.63,468.95 733.59,469.18 736.55,469.41 739.51,469.65 742.47,469.88 745.43,470.11 748.39,470.35 751.35,470.96 754.31,471.57 757.27,472.18 760.23,472.79 763.19,473.40 766.15,474.01 769.11,474.62 772.07,475.23 775.03,475.84 777.99,476.45 780.95,477.45 783.91,478.44 786.87,479.43 789.83,480.43 792.79,481.42 795.75,482.42 798.71,483.41 801.67,484.40 804.63,485.40 807.59,486.39 810.55,487.72 813.51,489.05 816.47,490.38 819.43,491.71 822.39,493.04 825.34,494.37 828.30,495.70 831.26,497.03 834.22,498.35 837.18,499.68 840.14,501.25 843.10,502.81 846.06,504.37 849.02,505.93 851.98,507.50 854.94,509.06 857.90,510.62 860.86,512.18 863.82,513.75 866.78,515.31 869.74,516.97 872.70,518.62 875.66,520.28 878.62,521.94 881.58,523.60 884.54,525.25 887.50,526.91 890.46,528.57 893.42,530.23 896.38,531.88 899.34,533.49 902.30,535.10 905.26,536.70 908.22,538.31 911.18,539.92 914.14,541.52 917.10,543.13 920.06,544.73 923.02,546.34 925.98,547.95 928.94,549.38 931.90,550.81 934.86,552.24 937.82,553.67 940.78,555.11 943.74,556.54 946.70,557.97 949.66,559.40 952.61,560.83 955.57,562.26 958.53,563.43 961.49,564.60 964.45,565.77 967.41,566.94 970.37,568.11 973.33,569.28 976.29,570.45 979.25,571.62 982.21,572.79 985.17,573.96 988.13,574.85 991.09,575.74 994.05,576.63 997.01,577.52 999.97,578.41 1002.93,579.30 1005.89,580.19 1008.85,581.08 1011.81,581.97 1014.77,582.86 1017.73,583.52 1020.69,584.18 1023.65,584.84 1026.61,585.50 1029.57,586.15 1032.53,586.81 1035.49,587.47 1038.45,588.13 1041.41,588.79 1044.37,589.45 1047.33,589.73 1050.29,590.00 1053.25,590.28 1056.21,590.56 1059.17,590.84 1062.13,591.12 1065.09,591.40 1068.05,591.68 1071.01,591.96 1073.97,592.23" fill="none" stroke="#1f77b4" stroke-width="3"/>
<line x1="137" y1="100" x2="173" y2="100" stroke="#1f77b4" stroke-width="4"/>
<text x="183" y="105" font-family="Arial" font-size="18" fill="black">Ux</text>
<polyline points="186.03,557.57 188.99,557.62 191.95,557.67 194.91,557.72 197.87,557.77 200.83,557.82 203.79,557.87 206.75,557.92 209.71,557.97 212.67,558.02 215.63,558.07 218.59,558.05 221.55,558.02 224.51,557.99 227.47,557.97 230.43,557.94 233.39,557.92 236.35,557.89 239.31,557.87 242.27,557.84 245.23,557.82 248.19,557.67 251.15,557.52 254.11,557.37 257.07,557.22 260.03,557.07 262.99,556.92 265.95,556.77 268.91,556.62 271.87,556.46 274.83,556.31 277.79,556.86 280.75,557.41 283.71,557.96 286.67,558.51 289.63,559.06 292.59,559.61 295.55,560.16 298.51,560.71 301.47,561.26 304.43,561.81 307.39,564.49 310.34,567.17 313.30,569.85 316.26,572.53 319.22,575.21 322.18,577.89 325.14,580.57 328.10,583.25 331.06,585.93 334.02,588.61 336.98,591.96 339.94,595.31 342.90,598.66 345.86,602.01 348.82,605.35 351.78,608.70 354.74,612.05 357.70,615.40 360.66,618.74 363.62,622.09 366.58,624.29 369.54,626.48 372.50,628.67 375.46,630.86 378.42,633.06 381.38,635.25 384.34,637.44 387.30,639.63 390.26,641.83 393.22,644.02 396.18,645.35 399.14,646.67 402.10,648.00 405.06,649.33 408.02,650.65 410.98,651.98 413.94,653.31 416.90,654.63 419.86,655.97 422.82,657.30 425.78,657.71 428.74,658.14 431.70,658.57 434.66,659.00 437.61,659.42 440.57,659.85 443.53,660.28 446.49,660.71 449.45,661.12 452.41,661.55 455.37,661.17 458.33,660.78 461.29,660.39 464.25,660.00 467.21,659.62 470.17,659.23 473.13,658.84 476.09,658.45 479.05,658.06 482.01,657.68 484.97,656.62 487.93,655.57 490.89,654.51 493.85,653.45 496.81,652.40 499.77,651.34 502.73,650.28 505.69,649.23 508.65,648.17 511.61,647.11 514.57,645.61 517.53,644.11 520.49,642.61 523.45,641.11 526.41,639.61 529.37,638.11 532.33,636.61 535.29,635.11 538.25,633.61 541.21,632.11 544.17,630.37 547.13,628.64 550.09,626.91 553.05,625.17 556.01,623.44 558.97,621.70 561.93,619.97 564.89,618.24 567.84,616.50 570.80,614.77 573.76,612.97 576.72,611.16 579.68,609.36 582.64,607.55 585.60,605.75 588.56,603.95 591.52,602.15 594.48,600.34 597.44,598.54 600.40,596.74 603.36,595.00 606.32,593.26 609.28,591.53 612.24,589.79 615.20,588.06 618.16,586.32 621.12,584.58 624.08,582.85 627.04,581.11 630.00,579.38 632.96,577.82 635.92,576.26 638.88,574.71 641.84,573.15 644.80,571.60 647.76,570.04 650.72,568.48 653.68,566.93 656.64,565.37 659.60,563.82 662.56,562.52 665.52,561.23 668.48,559.94 671.44,558.65 674.40,557.36 677.36,556.07 680.32,554.77 683.28,553.48 686.24,552.19 689.20,550.90 692.16,549.92 695.11,548.93 698.07,547.95 701.03,546.96 703.99,545.98 706.95,544.99 709.91,544.01 712.87,543.03 715.83,542.04 718.79,541.06 721.75,540.37 724.71,539.68 727.67,539.00 730.63,538.31 733.59,537.62 736.55,536.94 739.51,536.25 742.47,535.56 745.43,534.88 748.39,534.19 751.35,533.73 754.31,533.28 757.27,532.82 760.23,532.37 763.19,531.91 766.15,531.46 769.11,531.00 772.07,530.55 775.03,530.10 777.99,529.64 780.95,529.30 783.91,528.97 786.87,528.63 789.83,528.29 792.79,527.96 795.75,527.62 798.71,527.28 801.67,526.94 804.63,526.61 807.59,526.27 810.55,525.90 813.51,525.53 816.47,525.15 819.43,524.78 822.39,524.41 825.34,524.04 828.30,523.66 831.26,523.29 834.22,522.92 837.18,522.55 840.14,521.94 843.10,521.33 846.06,520.73 849.02,520.12 851.98,519.51 854.94,518.90 857.90,518.30 860.86,517.69 863.82,517.08 866.78,516.48 869.74,515.36 872.70,514.25 875.66,513.14 878.62,512.02 881.58,510.91 884.54,509.80 887.50,508.68 890.46,507.57 893.42,506.46 896.38,505.34 899.34,503.37 902.30,501.41 905.26,499.44 908.22,497.47 911.18,495.50 914.14,493.53 917.10,491.56 920.06,489.59 923.02,487.62 925.98,485.65 928.94,482.36 931.90,479.07 934.86,475.78 937.82,472.49 940.78,469.20 943.74,465.91 946.70,462.62 949.66,459.33 952.61,456.04 955.57,452.75 958.53,447.53 961.49,442.29 964.45,437.06 967.41,431.84 970.37,426.61 973.33,421.37 976.29,416.15 979.25,410.92 982.21,405.69 985.17,400.46 988.13,392.48 991.09,384.50 994.05,376.52 997.01,368.54 999.97,360.56 1002.93,352.58 1005.89,344.60 1008.85,336.61 1011.81,328.64 1014.77,320.66 1017.73,308.37 1020.69,296.08 1023.65,283.79 1026.61,271.51 1029.57,259.22 1032.53,246.92 1035.49,234.63 1038.45,222.34 1041.41,210.06 1044.37,197.77 1047.33,190.27 1050.29,182.78 1053.25,175.28 1056.21,167.79 1059.17,160.30 1062.13,152.80 1065.09,145.30 1068.05,137.81 1071.01,130.32 1073.97,122.82" fill="none" stroke="#d62728" stroke-width="3"/>
<line x1="137" y1="128" x2="173" y2="128" stroke="#d62728" stroke-width="4"/>
<text x="183" y="133" font-family="Arial" font-size="18" fill="black">Uy</text>
<polyline points="186.03,126.26 188.99,129.04 191.95,131.84 194.91,134.63 197.87,137.42 200.83,140.22 203.79,143.01 206.75,145.80 209.71,148.59 212.67,151.39 215.63,154.17 218.59,161.43 221.55,168.69 224.51,175.94 227.47,183.20 230.43,190.45 233.39,197.71 236.35,204.96 239.31,212.22 242.27,219.48 245.23,226.73 248.19,236.72 251.15,246.71 254.11,256.70 257.07,266.68 260.03,276.67 262.99,286.66 265.95,296.65 268.91,306.63 271.87,316.62 274.83,326.61 277.79,338.88 280.75,351.14 283.71,363.39 286.67,375.65 289.63,387.91 292.59,400.17 295.55,412.43 298.51,424.70 301.47,436.95 304.43,449.21 307.39,460.14 310.34,471.08 313.30,482.01 316.26,492.94 319.22,503.87 322.18,514.80 325.14,525.73 328.10,536.66 331.06,547.59 334.02,558.52 336.98,563.35 339.94,568.18 342.90,573.01 345.86,577.84 348.82,582.67 351.78,587.50 354.74,592.33 357.70,597.16 360.66,601.99 363.62,606.82 366.58,607.21 369.54,607.61 372.50,608.01 375.46,608.41 378.42,608.80 381.38,609.20 384.34,609.60 387.30,610.00 390.26,610.39 393.22,610.79 396.18,609.63 399.14,608.47 402.10,607.30 405.06,606.14 408.02,604.98 410.98,603.82 413.94,602.66 416.90,601.49 419.86,600.33 422.82,599.17 425.78,597.10 428.74,595.04 431.70,592.98 434.66,590.91 437.61,588.85 440.57,586.78 443.53,584.72 446.49,582.66 449.45,580.59 452.41,578.53 455.37,576.25 458.33,573.97 461.29,571.69 464.25,569.41 467.21,567.13 470.17,564.85 473.13,562.57 476.09,560.29 479.05,558.01 482.01,555.73 484.97,553.56 487.93,551.40 490.89,549.23 493.85,547.07 496.81,544.90 499.77,542.74 502.73,540.57 505.69,538.40 508.65,536.24 511.61,534.07 514.57,532.17 517.53,530.27 520.49,528.37 523.45,526.47 526.41,524.57 529.37,522.66 532.33,520.76 535.29,518.86 538.25,516.96 541.21,515.06 544.17,513.46 547.13,511.86 550.09,510.26 553.05,508.66 556.01,507.06 558.97,505.46 561.93,503.86 564.89,502.26 567.84,500.66 570.80,499.06 573.76,497.75 576.72,496.45 579.68,495.14 582.64,493.83 585.60,492.52 588.56,491.22 591.52,489.91 594.48,488.61 597.44,487.30 600.40,485.99 603.36,484.93 606.32,483.88 609.28,482.82 612.24,481.76 615.20,480.70 618.16,479.64 621.12,478.59 624.08,477.53 627.04,476.47 630.00,475.41 632.96,474.54 635.92,473.66 638.88,472.78 641.84,471.91 644.80,471.03 647.76,470.16 650.72,469.28 653.68,468.40 656.64,467.53 659.60,466.65 662.56,465.89 665.52,465.12 668.48,464.36 671.44,463.60 674.40,462.83 677.36,462.07 680.32,461.31 683.28,460.54 686.24,459.78 689.20,459.02 692.16,458.32 695.11,457.62 698.07,456.91 701.03,456.21 703.99,455.50 706.95,454.80 709.91,454.10 712.87,453.39 715.83,452.69 718.79,451.99 721.75,451.32 724.71,450.64 727.67,449.98 730.63,449.31 733.59,448.63 736.55,447.96 739.51,447.30 742.47,446.62 745.43,445.95 748.39,445.28 751.35,444.65 754.31,444.01 757.27,443.38 760.23,442.74 763.19,442.11 766.15,441.48 769.11,440.85 772.07,440.22 775.03,439.58 777.99,438.95 780.95,438.39 783.91,437.83 786.87,437.28 789.83,436.72 792.79,436.16 795.75,435.60 798.71,435.04 801.67,434.48 804.63,433.92 807.59,433.37 810.55,432.95 813.51,432.52 816.47,432.10 819.43,431.69 822.39,431.27 825.34,430.84 828.30,430.42 831.26,430.00 834.22,429.58 837.18,429.17 840.14,428.95 843.10,428.75 846.06,428.54 849.02,428.34 851.98,428.12 854.94,427.92 857.90,427.71 860.86,427.51 863.82,427.30 866.78,427.09 869.74,427.17 872.70,427.25 875.66,427.33 878.62,427.41 881.58,427.48 884.54,427.56 887.50,427.64 890.46,427.72 893.42,427.80 896.38,427.88 899.34,428.30 902.30,428.73 905.26,429.15 908.22,429.58 911.18,429.99 914.14,430.42 917.10,430.84 920.06,431.26 923.02,431.69 925.98,432.10 928.94,432.93 931.90,433.75 934.86,434.57 937.82,435.40 940.78,436.22 943.74,437.04 946.70,437.86 949.66,438.68 952.61,439.50 955.57,440.32 958.53,441.58 961.49,442.83 964.45,444.08 967.41,445.33 970.37,446.58 973.33,447.83 976.29,449.08 979.25,450.33 982.21,451.59 985.17,452.83 988.13,454.96 991.09,457.08 994.05,459.21 997.01,461.33 999.97,463.45 1002.93,465.58 1005.89,467.70 1008.85,469.82 1011.81,471.94 1014.77,474.06 1017.73,476.35 1020.69,478.64 1023.65,480.93 1026.61,483.21 1029.57,485.50 1032.53,487.79 1035.49,490.08 1038.45,492.36 1041.41,494.65 1044.37,496.94 1047.33,497.84 1050.29,498.73 1053.25,499.63 1056.21,500.53 1059.17,501.42 1062.13,502.32 1065.09,503.22 1068.05,504.11 1071.01,505.01 1073.97,505.91" fill="none" stroke="#2ca02c" stroke-width="3"/>
<line x1="137" y1="156" x2="173" y2="156" stroke="#2ca02c" stroke-width="4"/>
<text x="183" y="161" font-family="Arial" font-size="18" fill="black">Uz</text>
<polyline points="186.03,126.23 188.99,129.02 191.95,131.80 194.91,134.59 197.87,137.38 200.83,140.17 203.79,142.96 206.75,145.75 209.71,148.54 212.67,151.32 215.63,154.12 218.59,161.36 221.55,168.61 224.51,175.85 227.47,183.09 230.43,190.33 233.39,197.58 236.35,204.82 239.31,212.07 242.27,219.32 245.23,226.56 248.19,236.52 251.15,246.48 254.11,256.43 257.07,266.39 260.03,276.35 262.99,286.31 265.95,296.27 268.91,306.22 271.87,316.19 274.83,326.14 277.79,338.25 280.75,350.35 283.71,362.46 286.67,374.56 289.63,386.67 292.59,398.78 295.55,410.88 298.51,422.99 301.47,435.09 304.43,447.20 307.39,453.80 310.34,460.39 313.30,466.99 316.26,473.59 319.22,480.18 322.18,486.78 325.14,493.38 328.10,499.98 331.06,506.58 334.02,513.17 336.98,508.49 339.94,503.80 342.90,499.11 345.86,494.43 348.82,489.74 351.78,485.06 354.74,480.37 357.70,475.68 360.66,471.00 363.62,466.31 366.58,464.46 369.54,462.61 372.50,460.76 375.46,458.92 378.42,457.06 381.38,455.21 384.34,453.37 387.30,451.52 390.26,449.66 393.22,447.81 396.18,447.32 399.14,446.83 402.10,446.34 405.06,445.85 408.02,445.36 410.98,444.87 413.94,444.38 416.90,443.89 419.86,443.40 422.82,442.91 425.78,443.16 428.74,443.42 431.70,443.67 434.66,443.92 437.61,444.17 440.57,444.43 443.53,444.68 446.49,444.93 449.45,445.18 452.41,445.43 455.37,445.88 458.33,446.32 461.29,446.77 464.25,447.21 467.21,447.67 470.17,448.11 473.13,448.56 476.09,449.00 479.05,449.46 482.01,449.90 484.97,450.28 487.93,450.66 490.89,451.04 493.85,451.42 496.81,451.80 499.77,452.17 502.73,452.56 505.69,452.94 508.65,453.31 511.61,453.70 514.57,453.83 517.53,453.97 520.49,454.11 523.45,454.24 526.41,454.37 529.37,454.52 532.33,454.65 535.29,454.78 538.25,454.93 541.21,455.06 544.17,454.88 547.13,454.69 550.09,454.52 553.05,454.34 556.01,454.15 558.97,453.97 561.93,453.79 564.89,453.61 567.84,453.43 570.80,453.24 573.76,452.77 576.72,452.30 579.68,451.83 582.64,451.36 585.60,450.88 588.56,450.41 591.52,449.94 594.48,449.47 597.44,449.00 600.40,448.53 603.36,447.85 606.32,447.17 609.28,446.48 612.24,445.81 615.20,445.12 618.16,444.45 621.12,443.77 624.08,443.08 627.04,442.41 630.00,441.72 632.96,440.94 635.92,440.15 638.88,439.37 641.84,438.59 644.80,437.79 647.76,437.01 650.72,436.23 653.68,435.44 656.64,434.65 659.60,433.87 662.56,433.09 665.52,432.32 668.48,431.53 671.44,430.76 674.40,429.99 677.36,429.21 680.32,428.44 683.28,427.65 686.24,426.88 689.20,426.10 692.16,425.44 695.11,424.78 698.07,424.13 701.03,423.47 703.99,422.82 706.95,422.16 709.91,421.50 712.87,420.84 715.83,420.18 718.79,419.52 721.75,419.07 724.71,418.61 727.67,418.15 730.63,417.69 733.59,417.23 736.55,416.77 739.51,416.32 742.47,415.85 745.43,415.40 748.39,414.94 751.35,414.71 754.31,414.48 757.27,414.26 760.23,414.03 763.19,413.81 766.15,413.57 769.11,413.35 772.07,413.12 775.03,412.90 777.99,412.67 780.95,412.65 783.91,412.63 786.87,412.62 789.83,412.60 792.79,412.59 795.75,412.57 798.71,412.55 801.67,412.53 804.63,412.51 807.59,412.51 810.55,412.64 813.51,412.77 816.47,412.90 819.43,413.03 822.39,413.16 825.34,413.30 828.30,413.43 831.26,413.57 834.22,413.70 837.18,413.83 840.14,414.02 843.10,414.21 846.06,414.39 849.02,414.58 851.98,414.78 854.94,414.96 857.90,415.15 860.86,415.34 863.82,415.52 866.78,415.71 869.74,415.80 872.70,415.90 875.66,415.99 878.62,416.09 881.58,416.17 884.54,416.27 887.50,416.36 890.46,416.46 893.42,416.55 896.38,416.65 899.34,416.36 902.30,416.07 905.26,415.78 908.22,415.50 911.18,415.21 914.14,414.92 917.10,414.63 920.06,414.35 923.02,414.06 925.98,413.77 928.94,412.52 931.90,411.27 934.86,410.01 937.82,408.76 940.78,407.51 943.74,406.25 946.70,405.00 949.66,403.74 952.61,402.50 955.57,401.24 958.53,398.00 961.49,394.76 964.45,391.51 967.41,388.27 970.37,385.03 973.33,381.79 976.29,378.54 979.25,375.30 982.21,372.05 985.17,368.81 988.13,362.49 991.09,356.16 994.05,349.83 997.01,343.51 999.97,337.17 1002.93,330.84 1005.89,324.52 1008.85,318.19 1011.81,311.86 1014.77,305.54 1017.73,294.12 1020.69,282.72 1023.65,271.31 1026.61,259.90 1029.57,248.50 1032.53,237.09 1035.49,225.67 1038.45,214.27 1041.41,202.86 1044.37,191.46 1047.33,184.15 1050.29,176.85 1053.25,169.55 1056.21,162.25 1059.17,154.96 1062.13,147.65 1065.09,140.35 1068.05,133.05 1071.01,125.75 1073.97,118.45" fill="none" stroke="#111111" stroke-width="3"/>
<line x1="137" y1="184" x2="173" y2="184" stroke="#111111" stroke-width="4"/>
<text x="183" y="189" font-family="Arial" font-size="18" fill="black">Umag</text>
</svg>