<svg xmlns="http://www.w3.org/2000/svg" width="1200" height="820" viewBox="0 0 1200 820">
<rect width="100%" height="100%" fill="white"/>
<text x="600.0" y="36" text-anchor="middle" font-family="Arial" font-size="24" fill="black">Umag profile along x-centerline</text>
<line x1="115.00" y1="75" x2="115.00" y2="705" stroke="#dddddd" stroke-width="1"/>
<text x="115.00" y="737" text-anchor="middle" font-family="Arial" font-size="16" fill="black">-0.560</text>
<line x1="372.50" y1="75" x2="372.50" y2="705" stroke="#dddddd" stroke-width="1"/>
<text x="372.50" y="737" text-anchor="middle" font-family="Arial" font-size="16" fill="black">1.470</text>
<line x1="630.00" y1="75" x2="630.00" y2="705" stroke="#dddddd" stroke-width="1"/>
<text x="630.00" y="737" text-anchor="middle" font-family="Arial" font-size="16" fill="black">3.500</text>
<line x1="887.50" y1="75" x2="887.50" y2="705" stroke="#dddddd" stroke-width="1"/>
<text x="887.50" y="737" text-anchor="middle" font-family="Arial" font-size="16" fill="black">5.530</text>
<line x1="1145.00" y1="75" x2="1145.00" y2="705" stroke="#dddddd" stroke-width="1"/>
<text x="1145.00" y="737" text-anchor="middle" font-family="Arial" font-size="16" fill="black">7.560</text>
<line x1="115" y1="705.00" x2="1145" y2="705.00" stroke="#dddddd" stroke-width="1"/>
<text x="99" y="710.00" text-anchor="end" font-family="Arial" font-size="16" fill="black">0.081</text>
<line x1="115" y1="547.50" x2="1145" y2="547.50" stroke="#dddddd" stroke-width="1"/>
<text x="99" y="552.50" text-anchor="end" font-family="Arial" font-size="16" fill="black">0.166</text>
<line x1="115" y1="390.00" x2="1145" y2="390.00" stroke="#dddddd" stroke-width="1"/>
<text x="99" y="395.00" text-anchor="end" font-family="Arial" font-size="16" fill="black">0.250</text>
<line x1="115" y1="232.50" x2="1145" y2="232.50" stroke="#dddddd" stroke-width="1"/>
<text x="99" y="237.50" text-anchor="end" font-family="Arial" font-size="16" fill="black">0.334</text>
<line x1="115" y1="75.00" x2="1145" y2="75.00" stroke="#dddddd" stroke-width="1"/>
<text x="99" y="80.00" text-anchor="end" font-family="Arial" font-size="16" fill="black">0.418</text>
<rect x="115" y="75" width="1030" height="630" fill="none" stroke="black" stroke-width="2"/>
<text x="630.0" y="785" text-anchor="middle" font-family="Arial" font-size="20" fill="black">x coordinate [m]</text>
<text x="34" y="390.0" transform="rotate(-90 34 390.0)" text-anchor="middle" font-family="Arial" font-size="20" fill="black">Umag [m/s]</text>
<polyline points="186.03,157.21 188.99,167.82 191.95,178.41 194.91,189.02 197.87,199.63 200.83,215.84 203.79,234.31 206.75,252.79 209.71,271.26 212.67,287.62 215.63,301.18 218.59,314.76 221.55,328.32 224.51,341.23 227.47,350.18 230.43,359.12 233.39,368.07 236.35,377.02 239.31,382.77 242.27,388.00 245.23,393.23 248.19,398.44 251.15,402.31 254.11,405.15 257.07,408.01 260.03,410.85 262.99,413.46 265.95,415.52 268.91,417.59 271.87,419.64 274.83,421.70 277.79,424.46 280.75,427.21 283.71,429.97 286.67,432.72 289.63,436.60 292.59,440.96 295.55,445.29 298.51,449.62 301.47,454.85 304.42,461.30 307.39,467.74 310.34,474.19 313.30,481.17 316.27,491.41 319.22,501.64 322.18,511.86 325.15,522.10 328.10,538.50 331.06,555.90 334.03,573.33 336.98,590.74 339.94,608.26 342.91,625.86 345.86,643.43 348.82,661.01 351.79,661.55 354.74,619.47 357.70,577.37 360.67,535.28 363.62,493.18 366.58,438.25 369.54,383.33 372.50,328.40 375.46,273.46 378.42,238.48 381.38,211.45 384.33,184.42 387.30,157.41 390.26,139.48 393.21,133.69 396.18,127.92 399.14,122.13 402.09,118.45 405.06,127.49 408.02,136.53 410.97,145.57 413.94,154.61 416.90,172.75 419.85,192.38 422.82,212.03 425.78,231.68 428.73,251.55 431.70,271.61 434.66,291.66 437.61,311.72 440.58,329.63 443.53,342.22 446.49,354.79 449.46,367.38 452.41,379.95 455.37,385.95 458.34,391.94 461.29,397.94 464.25,403.92 467.22,409.35 470.17,414.54 473.13,419.76 476.10,424.95 479.05,431.11 482.01,438.53 484.98,445.94 487.93,453.38 490.89,461.05 493.85,470.30 496.81,479.53 499.77,488.77 502.73,498.00 505.69,507.64 508.65,517.35 511.61,527.06 514.57,536.78 517.52,546.19 520.49,555.38 523.45,564.57 526.40,573.76 529.37,582.71 532.33,591.04 535.28,599.37 538.25,607.68 541.21,616.01 544.16,622.33 547.13,628.62 550.09,634.93 553.04,641.25 556.01,642.65 558.97,642.09 561.92,641.53 564.89,640.97 567.84,635.79 570.80,624.42 573.77,613.06 576.72,601.70 579.68,590.11 582.65,577.12 585.60,564.14 588.56,551.16 591.53,538.18 594.48,532.15 597.44,527.29 600.41,522.41 603.36,517.54 606.32,513.75 609.29,510.76 612.24,507.77 615.20,504.80 618.17,500.62 621.12,493.46 624.08,486.29 627.04,479.14 630.00,471.98 632.96,462.49 635.92,453.02 638.88,443.55 641.83,434.06 644.80,427.51 647.76,422.11 650.71,416.71 653.68,411.31 656.64,409.43 659.59,412.21 662.56,414.97 665.52,417.76 668.47,420.04 671.44,419.36 674.40,418.67 677.35,417.98 680.32,417.31 683.28,412.58 686.23,407.20 689.20,401.82 692.16,396.44 695.11,392.76 698.08,390.37 701.03,387.98 703.99,385.59 706.96,384.28 709.91,385.70 712.87,387.14 715.84,388.56 718.79,389.98 721.75,393.42 724.72,396.86 727.67,400.29 730.63,403.71 733.60,407.30 736.55,410.94 739.51,414.58 742.48,418.20 745.43,421.38 748.39,423.90 751.35,426.44 754.31,428.96 757.27,431.24 760.23,431.99 763.19,432.76 766.15,433.50 769.11,434.25 772.07,433.84 775.02,433.24 777.99,432.64 780.95,432.05 783.90,431.69 786.87,431.52 789.83,431.35 792.78,431.19 795.75,431.82 798.71,434.44 801.66,437.07 804.63,439.69 807.59,442.30 810.54,449.23 813.51,456.14 816.47,463.05 819.42,469.96 822.39,479.75 825.34,490.70 828.30,501.66 831.27,512.61 834.22,524.09 837.18,536.31 840.15,548.53 843.10,560.74 846.06,572.40 849.03,580.73 851.98,589.06 854.94,597.41 857.91,605.74 860.86,607.63 863.82,608.43 866.79,609.23 869.74,610.05 872.70,607.03 875.67,601.13 878.62,595.22 881.58,589.32 884.54,582.09 887.50,571.59 890.46,561.10 893.42,550.58 896.38,540.08 899.33,527.44 902.30,514.77 905.26,502.13 908.21,489.48 911.18,479.30 914.14,470.13 917.09,460.96 920.06,451.77 923.02,446.63 925.97,446.88 928.94,447.10 931.90,447.34 934.85,448.86 937.82,458.01 940.78,467.18 943.73,476.35 946.70,485.50 949.66,496.24 952.61,507.25 955.58,518.25 958.53,529.27 961.49,535.79 964.46,538.96 967.41,542.14 970.37,545.31 973.34,545.18 976.29,536.80 979.25,528.39 982.22,520.00 985.17,511.62 988.13,497.38 991.10,483.15 994.05,468.92 997.01,454.68 999.98,440.88 1002.93,427.25 1005.89,413.61 1008.85,399.96 1011.81,387.55 1014.77,376.79 1017.73,366.04 1020.69,355.28 1023.65,344.93 1026.61,337.05 1029.57,329.16 1032.52,321.28 1035.49,313.40 1038.45,307.22 1041.40,301.33 1044.37,295.43 1047.33,289.55 1050.28,284.48 1053.25,280.04 1056.21,275.59 1059.16,271.17 1062.13,267.41 1065.09,265.38 1068.04,263.34 1071.01,261.30 1073.97,259.29" fill="none" stroke="#111111" stroke-width="3"/>
<line x1="137" y1="100" x2="173" y2="100" stroke="#111111" stroke-width="4"/>
<text x="183" y="105" font-family="Arial" font-size="18" fill="black">Umag</text>
</svg>