<svg xmlns="http://www.w3.org/2000/svg" width="1200" height="820" viewBox="0 0 1200 820">
<rect width="100%" height="100%" fill="white"/>
<text x="600.0" y="36" text-anchor="middle" font-family="Arial" font-size="24" fill="black">Ux profile along x-centerline</text>
<line x1="115.00" y1="75" x2="115.00" y2="705" stroke="#dddddd" stroke-width="1"/>
<text x="115.00" y="737" text-anchor="middle" font-family="Arial" font-size="16" fill="black">-0.560</text>
<line x1="372.50" y1="75" x2="372.50" y2="705" stroke="#dddddd" stroke-width="1"/>
<text x="372.50" y="737" text-anchor="middle" font-family="Arial" font-size="16" fill="black">1.470</text>
<line x1="630.00" y1="75" x2="630.00" y2="705" stroke="#dddddd" stroke-width="1"/>
<text x="630.00" y="737" text-anchor="middle" font-family="Arial" font-size="16" fill="black">3.500</text>
<line x1="887.50" y1="75" x2="887.50" y2="705" stroke="#dddddd" stroke-width="1"/>
<text x="887.50" y="737" text-anchor="middle" font-family="Arial" font-size="16" fill="black">5.530</text>
<line x1="1145.00" y1="75" x2="1145.00" y2="705" stroke="#dddddd" stroke-width="1"/>
<text x="1145.00" y="737" text-anchor="middle" font-family="Arial" font-size="16" fill="black">7.560</text>
<line x1="115" y1="705.00" x2="1145" y2="705.00" stroke="#dddddd" stroke-width="1"/>
<text x="99" y="710.00" text-anchor="end" font-family="Arial" font-size="16" fill="black">-0.068</text>
<line x1="115" y1="547.50" x2="1145" y2="547.50" stroke="#dddddd" stroke-width="1"/>
<text x="99" y="552.50" text-anchor="end" font-family="Arial" font-size="16" fill="black">0.013</text>
<line x1="115" y1="390.00" x2="1145" y2="390.00" stroke="#dddddd" stroke-width="1"/>
<text x="99" y="395.00" text-anchor="end" font-family="Arial" font-size="16" fill="black">0.094</text>
<line x1="115" y1="232.50" x2="1145" y2="232.50" stroke="#dddddd" stroke-width="1"/>
<text x="99" y="237.50" text-anchor="end" font-family="Arial" font-size="16" fill="black">0.175</text>
<line x1="115" y1="75.00" x2="1145" y2="75.00" stroke="#dddddd" stroke-width="1"/>
<text x="99" y="80.00" text-anchor="end" font-family="Arial" font-size="16" fill="black">0.256</text>
<rect x="115" y="75" width="1030" height="630" fill="none" stroke="black" stroke-width="2"/>
<text x="630.0" y="785" text-anchor="middle" font-family="Arial" font-size="20" fill="black">x coordinate [m]</text>
<text x="34" y="390.0" transform="rotate(-90 34 390.0)" text-anchor="middle" font-family="Arial" font-size="20" fill="black">Ux [m/s]</text>
<polyline points="186.03,538.13 188.99,531.66 191.95,525.19 194.91,518.73 197.87,512.26 200.83,501.35 203.79,488.66 206.75,475.98 209.71,463.29 212.67,451.07 215.63,439.47 218.59,427.87 221.55,416.27 224.51,404.95 227.47,395.33 230.43,385.71 233.39,376.08 236.35,366.47 239.31,359.07 242.27,352.07 245.23,345.05 248.19,338.04 251.15,332.96 254.11,329.33 257.07,325.69 260.03,322.07 262.99,319.64 265.95,320.20 268.91,320.79 271.87,321.37 274.83,321.95 277.79,327.22 280.75,332.52 283.71,337.81 286.67,343.08 289.63,351.58 292.59,361.39 295.55,371.17 298.51,380.97 301.47,392.23 304.42,405.43 307.39,418.64 310.34,431.84 313.30,445.34 316.27,460.62 319.22,475.90 322.18,491.18 325.15,506.45 328.10,521.45 331.06,536.41 334.03,551.36 336.98,566.31 339.94,575.25 342.91,579.69 345.86,584.12 348.82,588.55 351.79,588.40 354.74,576.80 357.70,565.19 360.67,553.59 363.62,541.98 366.58,525.83 369.54,509.68 372.50,493.53 375.46,477.38 378.42,463.54 381.38,450.62 384.33,437.70 387.30,424.77 390.26,412.00 393.21,399.41 396.18,386.83 399.14,374.25 402.09,361.52 405.06,347.96 408.02,334.40 410.97,320.84 413.94,307.28 416.90,294.87 419.85,282.63 422.82,270.40 425.78,258.18 428.73,248.12 431.70,239.69 434.66,231.27 437.61,222.85 440.58,215.96 443.53,212.96 446.49,209.97 449.46,206.99 452.41,203.99 455.37,207.24 458.34,210.49 461.29,213.76 464.25,217.01 467.22,224.01 470.17,232.48 473.13,240.96 476.10,249.44 479.05,259.07 482.01,270.24 484.98,281.43 487.93,292.59 490.89,303.82 493.85,315.43 496.81,327.05 499.77,338.65 502.73,350.26 505.69,361.43 508.65,372.54 511.61,383.64 514.57,394.75 517.52,405.78 520.49,416.78 523.45,427.77 526.40,438.76 529.37,450.15 532.33,462.55 535.28,474.95 538.25,487.35 541.21,499.75 544.16,514.89 547.13,530.03 550.09,545.17 553.04,560.30 556.01,575.51 558.97,590.74 561.92,605.97 564.89,621.20 567.84,633.15 570.80,640.73 573.77,648.31 576.72,655.89 579.68,661.55 582.65,655.67 585.60,649.80 588.56,643.92 591.53,638.04 594.48,625.94 597.44,612.80 600.41,599.66 603.36,586.52 606.32,572.32 609.29,557.33 612.24,542.33 615.20,527.34 618.17,511.73 621.12,494.59 624.08,477.45 627.04,460.31 630.00,443.17 632.96,423.10 635.92,403.02 638.88,382.95 641.83,362.87 644.80,340.22 647.76,316.54 650.71,292.85 653.68,269.17 656.64,246.37 659.59,224.75 662.56,203.14 665.52,181.52 668.47,161.46 671.44,150.71 674.40,139.95 677.35,129.21 680.32,118.45 683.28,120.63 686.23,124.95 689.20,129.28 692.16,133.60 695.11,144.11 698.08,159.25 701.03,174.38 703.99,189.52 706.96,205.74 709.91,224.69 712.87,243.62 715.84,262.55 718.79,281.49 721.75,299.05 724.72,316.60 727.67,334.17 730.63,351.72 733.60,366.62 736.55,380.44 739.51,394.26 742.48,408.09 745.43,420.30 748.39,430.37 751.35,440.44 754.31,450.51 757.27,460.22 760.23,467.80 763.19,475.38 766.15,482.96 769.11,490.54 772.07,497.23 775.02,503.79 777.99,510.33 780.95,516.88 783.90,523.22 786.87,529.39 789.83,535.57 792.78,541.74 795.75,547.63 798.71,552.82 801.66,557.99 804.63,563.17 807.59,568.36 810.54,570.96 813.51,573.57 816.47,576.18 819.42,578.79 822.39,578.22 825.34,576.38 828.30,574.54 831.27,572.70 834.22,568.17 837.18,560.06 840.15,551.96 843.10,543.85 846.06,534.94 849.03,521.21 851.98,507.47 854.94,493.73 857.91,480.00 860.86,464.32 863.82,448.31 866.79,432.30 869.74,416.29 872.70,400.26 875.67,384.21 878.62,368.16 881.58,352.11 884.54,336.10 887.50,320.18 890.46,304.27 893.42,288.35 896.38,272.46 899.33,257.91 902.30,243.35 905.26,228.80 908.21,214.25 911.18,205.24 914.14,198.45 917.09,191.64 920.06,184.85 923.02,184.17 925.97,191.64 928.94,199.11 931.90,206.58 934.85,215.80 937.82,235.67 940.78,255.53 943.73,275.40 946.70,295.26 949.66,319.33 952.61,344.07 955.58,368.82 958.53,393.58 961.49,416.95 964.46,439.29 967.41,461.62 970.37,483.96 973.34,504.50 976.29,520.57 979.25,536.64 982.22,552.71 985.17,568.78 988.13,578.81 991.10,588.84 994.05,598.87 997.01,608.91 999.98,615.77 1002.93,621.37 1005.89,626.97 1008.85,632.57 1011.81,636.71 1014.77,638.92 1017.73,641.13 1020.69,643.34 1023.65,645.13 1026.61,644.43 1029.57,643.72 1032.52,643.01 1035.49,642.30 1038.45,639.59 1041.40,636.55 1044.37,633.51 1047.33,630.47 1050.28,626.05 1053.25,620.60 1056.21,615.15 1059.16,609.70 1062.13,604.83 1065.09,601.37 1068.04,597.91 1071.01,594.46 1073.97,591.00" fill="none" stroke="#1f77b4" stroke-width="3"/>
<line x1="137" y1="100" x2="173" y2="100" stroke="#1f77b4" stroke-width="4"/>
<text x="183" y="105" font-family="Arial" font-size="18" fill="black">Ux</text>
</svg>