<svg xmlns="http://www.w3.org/2000/svg" width="1200" height="820" viewBox="0 0 1200 820">
<rect width="100%" height="100%" fill="white"/>
<text x="600.0" y="36" text-anchor="middle" font-family="Arial" font-size="24" fill="black">Uy profile along y-centerline</text>
<line x1="115.00" y1="75" x2="115.00" y2="705" stroke="#dddddd" stroke-width="1"/>
<text x="115.00" y="737" text-anchor="middle" font-family="Arial" font-size="16" fill="black">-0.400</text>
<line x1="372.50" y1="75" x2="372.50" y2="705" stroke="#dddddd" stroke-width="1"/>
<text x="372.50" y="737" text-anchor="middle" font-family="Arial" font-size="16" fill="black">1.050</text>
<line x1="630.00" y1="75" x2="630.00" y2="705" stroke="#dddddd" stroke-width="1"/>
<text x="630.00" y="737" text-anchor="middle" font-family="Arial" font-size="16" fill="black">2.500</text>
<line x1="887.50" y1="75" x2="887.50" y2="705" stroke="#dddddd" stroke-width="1"/>
<text x="887.50" y="737" text-anchor="middle" font-family="Arial" font-size="16" fill="black">3.950</text>
<line x1="1145.00" y1="75" x2="1145.00" y2="705" stroke="#dddddd" stroke-width="1"/>
<text x="1145.00" y="737" text-anchor="middle" font-family="Arial" font-size="16" fill="black">5.400</text>
<line x1="115" y1="705.00" x2="1145" y2="705.00" stroke="#dddddd" stroke-width="1"/>
<text x="99" y="710.00" text-anchor="end" font-family="Arial" font-size="16" fill="black">-0.190</text>
<line x1="115" y1="547.50" x2="1145" y2="547.50" stroke="#dddddd" stroke-width="1"/>
<text x="99" y="552.50" text-anchor="end" font-family="Arial" font-size="16" fill="black">-0.083</text>
<line x1="115" y1="390.00" x2="1145" y2="390.00" stroke="#dddddd" stroke-width="1"/>
<text x="99" y="395.00" text-anchor="end" font-family="Arial" font-size="16" fill="black">0.024</text>
<line x1="115" y1="232.50" x2="1145" y2="232.50" stroke="#dddddd" stroke-width="1"/>
<text x="99" y="237.50" text-anchor="end" font-family="Arial" font-size="16" fill="black">0.131</text>
<line x1="115" y1="75.00" x2="1145" y2="75.00" stroke="#dddddd" stroke-width="1"/>
<text x="99" y="80.00" text-anchor="end" font-family="Arial" font-size="16" fill="black">0.238</text>
<rect x="115" y="75" width="1030" height="630" fill="none" stroke="black" stroke-width="2"/>
<text x="630.0" y="785" text-anchor="middle" font-family="Arial" font-size="20" fill="black">y coordinate [m]</text>
<text x="34" y="390.0" transform="rotate(-90 34 390.0)" text-anchor="middle" font-family="Arial" font-size="20" fill="black">Uy [m/s]</text>
<polyline points="186.03,415.26 188.99,414.25 191.95,413.25 194.91,412.24 197.87,411.23 200.83,410.23 203.79,409.22 206.75,406.91 209.71,404.60 212.67,402.29 215.63,399.97 218.59,397.66 221.55,395.35 224.51,392.43 227.47,389.51 230.43,386.60 233.39,383.68 236.35,380.76 239.31,377.84 242.27,374.84 245.23,371.84 248.19,368.84 251.15,365.84 254.11,362.84 257.07,359.83 260.03,357.43 262.99,355.02 265.95,352.62 268.91,350.22 271.87,347.81 274.83,345.41 277.79,343.74 280.75,342.07 283.71,340.41 286.67,338.74 289.63,337.08 292.59,335.41 295.55,334.35 298.51,333.29 301.47,332.23 304.43,331.17 307.38,330.11 310.34,329.04 313.31,328.41 316.26,327.77 319.22,327.13 322.18,326.50 325.14,325.86 328.10,325.22 331.06,325.09 334.02,324.95 336.98,324.82 339.94,324.69 342.90,324.55 345.86,324.42 348.82,325.42 351.78,326.42 354.74,327.42 357.70,328.42 360.66,329.42 363.62,330.42 366.59,333.09 369.53,335.76 372.50,338.43 375.47,341.10 378.41,343.77 381.38,346.43 384.35,350.41 387.29,354.39 390.26,358.37 393.22,362.35 396.17,366.33 399.14,370.31 402.10,374.72 405.05,379.12 408.02,383.52 410.98,387.93 413.93,392.33 416.90,396.73 419.86,401.21 422.81,405.69 425.78,410.17 428.74,414.65 431.69,419.13 434.66,423.60 437.62,428.56 440.57,433.51 443.53,438.46 446.50,443.41 449.45,448.36 452.41,453.31 455.38,459.09 458.33,464.88 461.29,470.67 464.26,476.45 467.21,482.24 470.17,488.02 473.14,494.68 476.09,501.33 479.05,507.99 482.02,514.65 484.97,521.30 487.93,527.96 490.90,535.24 493.84,542.53 496.81,549.81 499.78,557.09 502.72,564.38 505.69,571.66 508.66,578.94 511.60,586.23 514.57,593.52 517.53,600.81 520.48,608.09 523.45,615.38 526.41,621.18 529.36,626.98 532.33,632.77 535.29,638.57 538.24,644.37 541.21,650.17 544.17,652.07 547.12,653.95 550.09,655.85 553.05,657.75 556.00,659.65 558.97,661.55 561.93,656.94 564.88,652.35 567.84,647.74 570.81,643.15 573.76,638.55 576.72,633.95 579.69,622.88 582.64,611.82 585.60,600.75 588.57,589.69 591.52,578.62 594.48,567.55 597.45,554.08 600.40,540.61 603.36,527.14 606.33,513.67 609.28,500.20 612.24,486.72 615.21,473.00 618.15,459.27 621.12,445.54 624.09,431.81 627.03,418.08 630.00,404.36 632.97,391.48 635.91,378.61 638.88,365.74 641.84,352.86 644.79,339.99 647.76,327.11 650.72,315.23 653.67,303.34 656.64,291.45 659.60,279.57 662.55,267.68 665.52,255.80 668.48,244.69 671.43,233.61 674.40,222.52 677.36,211.42 680.31,200.34 683.28,189.23 686.24,181.27 689.19,173.29 692.16,165.31 695.12,157.35 698.07,149.37 701.03,141.39 704.00,137.57 706.95,133.75 709.91,129.92 712.88,126.09 715.83,122.26 718.79,118.45 721.76,118.82 724.71,119.18 727.67,119.55 730.64,119.92 733.59,120.29 736.55,120.66 739.52,124.65 742.47,128.64 745.43,132.64 748.40,136.63 751.34,140.62 754.31,144.61 757.28,151.06 760.22,157.51 763.19,163.96 766.16,170.40 769.10,176.85 772.07,183.29 775.03,190.90 777.98,198.51 780.95,206.12 783.91,213.72 786.86,221.33 789.83,228.94 792.79,236.69 795.74,244.43 798.71,252.19 801.67,259.93 804.62,267.68 807.59,275.44 810.55,282.99 813.50,290.56 816.47,298.12 819.43,305.69 822.38,313.25 825.34,320.81 828.31,328.64 831.26,336.46 834.22,344.29 837.19,352.11 840.14,359.94 843.10,367.76 846.07,375.46 849.02,383.17 851.98,390.87 854.95,398.57 857.90,406.28 860.86,413.98 863.83,419.78 866.78,425.59 869.74,431.39 872.71,437.19 875.66,443.00 878.62,448.80 881.59,451.45 884.53,454.10 887.50,456.76 890.47,459.41 893.41,462.06 896.38,464.71 899.34,464.63 902.29,464.55 905.26,464.47 908.22,464.39 911.17,464.32 914.14,464.24 917.10,462.87 920.05,461.50 923.02,460.13 925.98,458.76 928.93,457.39 931.90,456.02 934.86,454.55 937.81,453.07 940.78,451.59 943.74,450.11 946.69,448.64 949.66,447.16 952.62,445.92 955.57,444.68 958.53,443.44 961.50,442.20 964.45,440.96 967.41,439.72 970.38,438.67 973.33,437.63 976.29,436.58 979.26,435.54 982.21,434.50 985.17,433.45 988.14,432.62 991.09,431.78 994.05,430.94 997.02,430.11 999.97,429.27 1002.93,428.44 1005.90,427.82 1008.84,427.21 1011.81,426.60 1014.78,425.99 1017.72,425.37 1020.69,424.76 1023.66,424.52 1026.60,424.28 1029.57,424.05 1032.53,423.81 1035.48,423.57 1038.45,423.33 1041.41,423.38 1044.36,423.44 1047.33,423.49 1050.29,423.54 1053.24,423.59 1056.21,423.64 1059.17,423.67 1062.12,423.70 1065.09,423.73 1068.05,423.76 1071.00,423.79 1073.97,423.81" fill="none" stroke="#d62728" stroke-width="3"/>
<line x1="137" y1="100" x2="173" y2="100" stroke="#d62728" stroke-width="4"/>
<text x="183" y="105" font-family="Arial" font-size="18" fill="black">Uy</text>
</svg>