<svg xmlns="http://www.w3.org/2000/svg" width="1200" height="820" viewBox="0 0 1200 820">
<rect width="100%" height="100%" fill="white"/>
<text x="600.0" y="36" text-anchor="middle" font-family="Arial" font-size="24" fill="black">profile_near_floor_x: vorticity:0</text>
<line x1="120.00" y1="75" x2="120.00" y2="705" stroke="#dddddd" stroke-width="1"/>
<text x="120.00" y="737" text-anchor="middle" font-family="Arial" font-size="16" fill="black">-0.560</text>
<line x1="376.25" y1="75" x2="376.25" y2="705" stroke="#dddddd" stroke-width="1"/>
<text x="376.25" y="737" text-anchor="middle" font-family="Arial" font-size="16" fill="black">1.470</text>
<line x1="632.50" y1="75" x2="632.50" y2="705" stroke="#dddddd" stroke-width="1"/>
<text x="632.50" y="737" text-anchor="middle" font-family="Arial" font-size="16" fill="black">3.500</text>
<line x1="888.75" y1="75" x2="888.75" y2="705" stroke="#dddddd" stroke-width="1"/>
<text x="888.75" y="737" text-anchor="middle" font-family="Arial" font-size="16" fill="black">5.530</text>
<line x1="1145.00" y1="75" x2="1145.00" y2="705" stroke="#dddddd" stroke-width="1"/>
<text x="1145.00" y="737" text-anchor="middle" font-family="Arial" font-size="16" fill="black">7.560</text>
<line x1="120" y1="705.00" x2="1145" y2="705.00" stroke="#dddddd" stroke-width="1"/>
<text x="104" y="710.00" text-anchor="end" font-family="Arial" font-size="16" fill="black">-0.324</text>
<line x1="120" y1="547.50" x2="1145" y2="547.50" stroke="#dddddd" stroke-width="1"/>
<text x="104" y="552.50" text-anchor="end" font-family="Arial" font-size="16" fill="black">0.039</text>
<line x1="120" y1="390.00" x2="1145" y2="390.00" stroke="#dddddd" stroke-width="1"/>
<text x="104" y="395.00" text-anchor="end" font-family="Arial" font-size="16" fill="black">0.402</text>
<line x1="120" y1="232.50" x2="1145" y2="232.50" stroke="#dddddd" stroke-width="1"/>
<text x="104" y="237.50" text-anchor="end" font-family="Arial" font-size="16" fill="black">0.765</text>
<line x1="120" y1="75.00" x2="1145" y2="75.00" stroke="#dddddd" stroke-width="1"/>
<text x="104" y="80.00" text-anchor="end" font-family="Arial" font-size="16" fill="black">1.128</text>
<rect x="120" y="75" width="1025" height="630" fill="none" stroke="black" stroke-width="2"/>
<text x="632.5" y="785" text-anchor="middle" font-family="Arial" font-size="20" fill="black">x coordinate [m]</text>
<text x="34" y="390.0" transform="rotate(-90 34 390.0)" text-anchor="middle" font-family="Arial" font-size="20" fill="black">vorticity:0 [SI]</text>
<polyline points="190.69,121.79 193.64,120.97 196.58,120.10 199.53,119.27 202.47,118.45 205.42,118.75 208.36,119.58 211.31,120.36 214.25,121.14 217.20,124.18 220.14,130.12 223.09,136.06 226.03,142.01 228.98,148.79 231.93,160.59 234.87,172.39 237.82,184.20 240.76,196.00 243.71,212.33 246.65,229.41 249.60,246.50 252.54,263.58 255.49,281.56 258.43,300.22 261.38,318.89 264.32,337.55 267.27,355.46 270.22,371.51 273.16,387.56 276.11,403.61 279.05,419.66 282.00,430.27 284.94,440.89 287.89,451.50 290.83,462.12 293.78,464.64 296.72,463.94 299.67,463.24 302.62,462.53 305.56,458.44 308.51,449.84 311.45,441.24 314.40,432.65 317.34,424.98 320.29,422.95 323.23,420.92 326.17,418.88 329.13,416.85 332.07,419.90 335.01,423.80 337.96,427.70 340.91,431.60 343.85,435.15 346.80,438.43 349.74,441.70 352.68,444.99 355.64,448.23 358.58,451.38 361.52,454.54 364.47,457.69 367.41,460.84 370.35,464.07 373.31,467.31 376.25,470.54 379.19,473.77 382.15,476.70 385.09,479.51 388.03,482.32 390.98,485.13 393.92,487.06 396.86,487.81 399.82,488.56 402.76,489.31 405.70,488.72 408.65,480.05 411.59,471.39 414.54,462.72 417.49,454.05 420.43,443.34 423.37,432.27 426.33,421.21 429.27,410.15 432.21,404.63 435.16,403.27 438.10,401.91 441.04,400.55 444.00,400.27 446.94,402.71 449.88,405.15 452.83,407.59 455.78,410.02 458.72,411.78 461.67,413.53 464.61,415.29 467.55,417.05 470.51,418.72 473.45,420.36 476.39,422.01 479.34,423.65 482.28,425.95 485.23,429.12 488.18,432.30 491.12,435.47 494.06,438.76 497.02,442.73 499.96,446.70 502.90,450.67 505.85,454.64 508.79,457.64 511.73,460.48 514.69,463.33 517.63,466.17 520.57,468.62 523.52,470.76 526.47,472.91 529.41,475.05 532.36,477.09 535.30,478.87 538.24,480.65 541.20,482.43 544.14,484.21 547.08,485.25 550.03,486.30 552.97,487.34 555.92,488.39 558.87,490.31 561.81,492.59 564.75,494.86 567.71,497.14 570.65,501.06 573.59,507.16 576.54,513.27 579.48,519.37 582.42,525.28 585.38,530.00 588.32,534.71 591.26,539.42 594.21,544.14 597.16,545.33 600.10,545.94 603.05,546.54 605.99,547.15 608.93,547.38 611.89,547.33 614.83,547.27 617.77,547.22 620.72,547.14 623.66,546.99 626.60,546.85 629.56,546.70 632.50,546.56 635.44,546.32 638.40,546.09 641.34,545.85 644.28,545.62 647.23,545.19 650.17,544.68 653.11,544.18 656.07,543.67 659.01,542.74 661.95,541.24 664.90,539.74 667.84,538.25 670.79,536.56 673.74,533.75 676.68,530.94 679.62,528.13 682.58,525.32 685.52,519.56 688.46,513.31 691.41,507.05 694.35,500.79 697.29,491.48 700.25,479.89 703.19,468.29 706.13,456.69 709.08,444.17 712.03,429.32 714.97,414.48 717.92,399.63 720.86,384.79 723.80,370.93 726.76,357.07 729.70,343.21 732.64,329.35 735.59,320.02 738.53,312.49 741.48,304.96 744.43,297.44 747.37,294.34 750.31,297.17 753.27,299.99 756.21,302.80 759.15,306.53 762.10,315.70 765.04,324.87 767.98,334.04 770.94,343.21 773.88,345.24 776.82,346.07 779.77,346.90 782.72,347.74 785.66,345.81 788.61,341.82 791.55,337.83 794.49,333.84 797.45,333.04 800.39,340.22 803.33,347.41 806.28,354.58 809.22,361.77 812.17,377.40 815.12,393.04 818.06,408.68 821.00,424.31 823.96,438.79 826.90,452.80 829.84,466.80 832.79,480.81 835.73,490.64 838.67,494.90 841.63,499.16 844.57,503.42 847.51,507.04 850.46,506.85 853.41,506.67 856.35,506.47 859.30,506.29 862.24,507.89 865.18,509.79 868.14,511.70 871.08,513.60 874.02,515.33 876.97,516.92 879.91,518.51 882.85,520.11 885.81,521.67 888.75,523.16 891.69,524.64 894.65,526.13 897.59,527.62 900.53,528.99 903.48,530.37 906.42,531.75 909.36,533.13 912.32,534.44 915.26,535.72 918.20,537.01 921.15,538.29 924.09,539.36 927.04,540.13 929.99,540.91 932.93,541.68 935.87,542.41 938.83,542.86 941.77,543.32 944.71,543.78 947.66,544.24 950.60,542.07 953.54,539.46 956.50,536.85 959.44,534.24 962.38,532.11 965.33,530.34 968.28,528.57 971.22,526.80 974.17,527.11 977.11,532.59 980.05,538.08 983.01,543.56 985.95,549.05 988.89,559.48 991.84,569.92 994.78,580.36 997.73,590.79 1000.68,601.62 1003.62,612.60 1006.56,623.58 1009.52,634.56 1012.46,643.01 1015.40,648.08 1018.35,653.16 1021.29,658.24 1024.23,661.55 1027.19,654.30 1030.13,647.05 1033.07,639.80 1036.02,632.55 1038.97,610.89 1041.91,586.82 1044.86,562.76 1047.80,538.69 1050.74,506.76 1053.70,468.92 1056.64,431.08 1059.58,393.24 1062.53,360.15 1065.47,338.94 1068.42,317.73 1071.37,296.52 1074.31,275.31" fill="none" stroke="#000000" stroke-width="3"/>
<line x1="142" y1="100" x2="178" y2="100" stroke="#000000" stroke-width="4"/>
<text x="188" y="105" font-family="Arial" font-size="18" fill="black">vorticity:0</text>
</svg>