<svg xmlns="http://www.w3.org/2000/svg" width="1200" height="820" viewBox="0 0 1200 820">
<rect width="100%" height="100%" fill="white"/>
<text x="600.0" y="36" text-anchor="middle" font-family="Arial" font-size="24" fill="black">profile_near_floor_x: velocity magnitude</text>
<line x1="120.00" y1="75" x2="120.00" y2="705" stroke="#dddddd" stroke-width="1"/>
<text x="120.00" y="737" text-anchor="middle" font-family="Arial" font-size="16" fill="black">-0.560</text>
<line x1="376.25" y1="75" x2="376.25" y2="705" stroke="#dddddd" stroke-width="1"/>
<text x="376.25" y="737" text-anchor="middle" font-family="Arial" font-size="16" fill="black">1.470</text>
<line x1="632.50" y1="75" x2="632.50" y2="705" stroke="#dddddd" stroke-width="1"/>
<text x="632.50" y="737" text-anchor="middle" font-family="Arial" font-size="16" fill="black">3.500</text>
<line x1="888.75" y1="75" x2="888.75" y2="705" stroke="#dddddd" stroke-width="1"/>
<text x="888.75" y="737" text-anchor="middle" font-family="Arial" font-size="16" fill="black">5.530</text>
<line x1="1145.00" y1="75" x2="1145.00" y2="705" stroke="#dddddd" stroke-width="1"/>
<text x="1145.00" y="737" text-anchor="middle" font-family="Arial" font-size="16" fill="black">7.560</text>
<line x1="120" y1="705.00" x2="1145" y2="705.00" stroke="#dddddd" stroke-width="1"/>
<text x="104" y="710.00" text-anchor="end" font-family="Arial" font-size="16" fill="black">0.014</text>
<line x1="120" y1="547.50" x2="1145" y2="547.50" stroke="#dddddd" stroke-width="1"/>
<text x="104" y="552.50" text-anchor="end" font-family="Arial" font-size="16" fill="black">0.122</text>
<line x1="120" y1="390.00" x2="1145" y2="390.00" stroke="#dddddd" stroke-width="1"/>
<text x="104" y="395.00" text-anchor="end" font-family="Arial" font-size="16" fill="black">0.230</text>
<line x1="120" y1="232.50" x2="1145" y2="232.50" stroke="#dddddd" stroke-width="1"/>
<text x="104" y="237.50" text-anchor="end" font-family="Arial" font-size="16" fill="black">0.339</text>
<line x1="120" y1="75.00" x2="1145" y2="75.00" stroke="#dddddd" stroke-width="1"/>
<text x="104" y="80.00" text-anchor="end" font-family="Arial" font-size="16" fill="black">0.447</text>
<rect x="120" y="75" width="1025" height="630" fill="none" stroke="black" stroke-width="2"/>
<text x="632.5" y="785" text-anchor="middle" font-family="Arial" font-size="20" fill="black">x coordinate [m]</text>
<text x="34" y="390.0" transform="rotate(-90 34 390.0)" text-anchor="middle" font-family="Arial" font-size="20" fill="black">|U| [m/s]</text>
<polyline points="190.69,131.70 193.64,136.74 196.58,141.80 199.53,146.84 202.47,151.89 205.42,158.50 208.36,165.72 211.31,172.96 214.25,180.18 217.20,186.40 220.14,191.27 223.09,196.15 226.03,201.02 228.98,205.83 231.93,210.25 234.87,214.66 237.82,219.10 240.76,223.52 243.71,227.09 246.65,230.53 249.60,233.96 252.54,237.41 255.49,240.63 258.43,243.71 261.38,246.78 264.32,249.86 267.27,253.13 270.22,256.88 273.16,260.63 276.11,264.39 279.05,268.14 282.00,273.69 284.94,279.25 287.89,284.80 290.83,290.33 293.78,292.40 296.72,293.05 299.67,293.72 302.62,294.37 305.56,288.55 308.51,274.03 311.45,259.53 314.40,245.02 317.34,229.95 320.29,211.51 323.23,193.07 326.17,174.63 329.13,156.19 332.07,150.22 335.01,146.32 337.96,142.41 340.91,138.52 343.85,136.74 346.80,136.57 349.74,136.40 352.68,136.22 355.64,136.32 358.58,137.12 361.52,137.91 364.47,138.71 367.41,139.51 370.35,141.25 373.31,142.98 376.25,144.72 379.19,146.47 382.15,149.92 385.09,154.08 388.03,158.22 390.98,162.36 393.92,169.43 396.86,180.38 399.82,191.33 402.76,202.28 405.70,216.74 408.65,252.29 411.59,287.85 414.54,323.39 417.49,358.94 420.43,385.85 423.37,411.31 426.33,436.79 429.27,462.25 432.21,472.01 435.16,469.99 438.10,467.97 441.04,465.95 444.00,466.80 446.94,474.77 449.88,482.75 452.83,490.73 455.78,498.71 458.72,514.72 461.67,530.75 464.61,546.78 467.55,562.79 470.51,578.66 473.45,594.46 476.39,610.25 479.34,626.05 482.28,637.55 485.23,643.33 488.18,649.11 491.12,654.89 494.06,658.25 497.02,647.12 499.96,635.98 502.90,624.85 505.85,613.71 508.79,601.98 511.73,590.14 514.69,578.30 517.63,566.47 520.57,555.19 523.52,544.35 526.47,533.50 529.41,522.66 532.36,512.80 535.30,505.42 538.24,498.05 541.20,490.67 544.14,483.30 547.08,481.55 550.03,479.80 552.97,478.06 555.92,476.31 558.87,470.62 561.81,463.34 564.75,456.06 567.71,448.78 570.65,429.65 573.59,394.72 576.54,359.80 579.48,324.86 582.42,290.86 585.38,262.37 588.32,233.89 591.26,205.41 594.21,176.94 597.16,166.77 600.10,159.66 603.05,152.56 605.99,145.45 608.93,141.16 611.89,139.00 614.83,136.82 617.77,134.65 620.72,132.88 623.66,132.12 626.60,131.38 629.56,130.63 632.50,129.87 635.44,130.34 638.40,130.80 641.34,131.27 644.28,131.73 647.23,133.40 650.17,135.57 653.11,137.73 656.07,139.90 659.01,144.21 661.95,151.38 664.90,158.54 667.84,165.71 670.79,176.14 673.74,206.12 676.68,236.10 679.62,266.08 682.58,296.06 685.52,328.55 688.46,361.47 691.41,394.38 694.35,427.30 697.29,442.80 700.25,445.27 703.19,447.74 706.13,450.20 709.08,451.48 712.03,449.79 714.97,448.11 717.92,446.42 720.86,444.72 723.80,448.56 726.76,452.38 729.70,456.20 732.64,460.02 735.59,466.23 738.53,473.39 741.48,480.56 744.43,487.72 747.37,495.06 750.31,502.62 753.27,510.19 756.21,517.75 759.15,525.58 762.10,534.97 765.04,544.35 767.98,553.74 770.94,563.13 773.88,564.99 776.82,565.60 779.77,566.20 782.72,566.81 785.66,561.33 788.61,551.29 791.55,541.24 794.49,531.20 797.45,520.62 800.39,508.72 803.33,496.82 806.28,484.90 809.22,473.00 812.17,469.59 815.12,466.17 818.06,462.76 821.00,459.34 823.96,456.93 826.90,454.91 829.84,452.90 832.79,450.90 835.73,434.24 838.67,398.10 841.63,361.95 844.57,325.81 847.51,290.26 850.46,258.36 853.41,226.47 856.35,194.58 859.30,162.68 862.24,152.35 865.18,145.61 868.14,138.87 871.08,132.12 874.02,128.10 876.97,126.12 879.91,124.13 882.85,122.15 885.81,120.58 888.75,120.05 891.69,119.51 894.65,118.99 897.59,118.45 900.53,118.81 903.48,119.17 906.42,119.54 909.36,119.90 912.32,121.06 915.26,122.53 918.20,124.01 921.15,125.48 924.09,128.85 927.04,134.77 929.99,140.67 932.93,146.58 935.87,155.48 938.83,182.32 941.77,209.14 944.71,235.97 947.66,262.81 950.60,300.61 953.54,340.24 956.50,379.87 959.44,419.49 962.38,443.12 965.33,454.78 968.28,466.43 971.22,478.09 974.17,486.31 977.11,486.01 980.05,485.70 983.01,485.38 985.95,485.08 988.89,491.04 991.84,496.99 994.78,502.95 997.73,508.91 1000.68,518.20 1003.62,528.82 1006.56,539.44 1009.52,550.06 1012.46,559.86 1015.40,568.56 1018.35,577.27 1021.29,585.98 1024.23,593.64 1027.19,595.01 1030.13,596.38 1033.07,597.76 1036.02,599.13 1038.97,601.02 1041.91,602.99 1044.86,604.97 1047.80,606.94 1050.74,612.94 1053.70,621.96 1056.64,630.99 1059.58,640.01 1062.53,647.46 1065.47,650.98 1068.42,654.50 1071.37,658.03 1074.31,661.55" fill="none" stroke="#000000" stroke-width="3"/>
<line x1="142" y1="100" x2="178" y2="100" stroke="#000000" stroke-width="4"/>
<text x="188" y="105" font-family="Arial" font-size="18" fill="black">|U|</text>
</svg>