<svg xmlns="http://www.w3.org/2000/svg" width="1200" height="820" viewBox="0 0 1200 820">
<rect width="100%" height="100%" fill="white"/>
<text x="600.0" y="36" text-anchor="middle" font-family="Arial" font-size="24" fill="black">profile_near_floor_x: epsilon</text>
<line x1="120.00" y1="75" x2="120.00" y2="705" stroke="#dddddd" stroke-width="1"/>
<text x="120.00" y="737" text-anchor="middle" font-family="Arial" font-size="16" fill="black">-0.560</text>
<line x1="376.25" y1="75" x2="376.25" y2="705" stroke="#dddddd" stroke-width="1"/>
<text x="376.25" y="737" text-anchor="middle" font-family="Arial" font-size="16" fill="black">1.470</text>
<line x1="632.50" y1="75" x2="632.50" y2="705" stroke="#dddddd" stroke-width="1"/>
<text x="632.50" y="737" text-anchor="middle" font-family="Arial" font-size="16" fill="black">3.500</text>
<line x1="888.75" y1="75" x2="888.75" y2="705" stroke="#dddddd" stroke-width="1"/>
<text x="888.75" y="737" text-anchor="middle" font-family="Arial" font-size="16" fill="black">5.530</text>
<line x1="1145.00" y1="75" x2="1145.00" y2="705" stroke="#dddddd" stroke-width="1"/>
<text x="1145.00" y="737" text-anchor="middle" font-family="Arial" font-size="16" fill="black">7.560</text>
<line x1="120" y1="705.00" x2="1145" y2="705.00" stroke="#dddddd" stroke-width="1"/>
<text x="104" y="710.00" text-anchor="end" font-family="Arial" font-size="16" fill="black">-3.87e-04</text>
<line x1="120" y1="547.50" x2="1145" y2="547.50" stroke="#dddddd" stroke-width="1"/>
<text x="104" y="552.50" text-anchor="end" font-family="Arial" font-size="16" fill="black">0.002</text>
<line x1="120" y1="390.00" x2="1145" y2="390.00" stroke="#dddddd" stroke-width="1"/>
<text x="104" y="395.00" text-anchor="end" font-family="Arial" font-size="16" fill="black">0.005</text>
<line x1="120" y1="232.50" x2="1145" y2="232.50" stroke="#dddddd" stroke-width="1"/>
<text x="104" y="237.50" text-anchor="end" font-family="Arial" font-size="16" fill="black">0.007</text>
<line x1="120" y1="75.00" x2="1145" y2="75.00" stroke="#dddddd" stroke-width="1"/>
<text x="104" y="80.00" text-anchor="end" font-family="Arial" font-size="16" fill="black">0.010</text>
<rect x="120" y="75" width="1025" height="630" fill="none" stroke="black" stroke-width="2"/>
<text x="632.5" y="785" text-anchor="middle" font-family="Arial" font-size="20" fill="black">x coordinate [m]</text>
<text x="34" y="390.0" transform="rotate(-90 34 390.0)" text-anchor="middle" font-family="Arial" font-size="20" fill="black">epsilon [m2/s3]</text>
<polyline points="190.69,524.88 193.64,525.18 196.58,525.48 199.53,525.78 202.47,526.09 205.42,524.20 208.36,521.45 211.31,518.70 214.25,515.94 217.20,511.97 220.14,506.37 223.09,500.78 226.03,495.18 228.98,489.64 231.93,484.45 234.87,479.27 237.82,474.08 240.76,468.89 243.71,463.90 246.65,458.96 249.60,454.00 252.54,449.05 255.49,444.88 258.43,441.28 261.38,437.68 264.32,434.09 267.27,431.05 270.22,429.38 273.16,427.71 276.11,426.04 279.05,424.37 282.00,422.83 284.94,421.29 287.89,419.75 290.83,418.20 293.78,411.95 296.72,403.80 299.67,395.65 302.62,387.51 305.56,375.25 308.51,357.52 311.45,339.79 314.40,322.06 317.34,305.46 320.29,295.59 323.23,285.74 326.17,275.87 329.13,266.01 332.07,265.80 335.01,267.19 337.96,268.58 340.91,269.98 343.85,270.96 346.80,271.63 349.74,272.30 352.68,272.97 355.64,273.46 358.58,273.51 361.52,273.56 364.47,273.61 367.41,273.67 370.35,272.90 373.31,272.14 376.25,271.37 379.19,270.60 382.15,267.79 385.09,264.16 388.03,260.53 390.98,256.90 393.92,249.54 396.86,237.23 399.82,224.92 402.76,212.60 405.70,200.08 408.65,186.37 411.59,172.65 414.54,158.93 417.49,145.21 420.43,138.55 423.37,133.08 426.33,127.60 429.27,122.12 432.21,119.56 435.16,119.18 438.10,118.82 441.04,118.45 444.00,120.34 446.94,127.89 449.88,135.44 452.83,142.99 455.78,150.54 458.72,166.91 461.67,183.28 464.61,199.64 467.55,216.01 470.51,234.08 473.45,252.83 476.39,271.59 479.34,290.34 482.28,306.16 485.23,318.08 488.18,330.00 491.12,341.91 494.06,351.89 497.02,350.18 499.96,348.46 502.90,346.75 505.85,345.03 508.79,337.14 511.73,328.23 514.69,319.32 517.63,310.41 520.57,302.49 523.52,295.30 526.47,288.13 529.41,280.94 532.36,275.32 535.30,273.58 538.24,271.84 541.20,270.10 544.14,268.36 547.08,275.39 550.03,282.42 552.97,289.45 555.92,296.47 558.87,302.81 561.81,308.87 564.75,314.93 567.71,320.98 570.65,321.24 573.59,313.75 576.54,306.26 579.48,298.77 582.42,291.54 585.38,285.86 588.32,280.18 591.26,274.49 594.21,268.81 597.16,270.05 600.10,272.45 603.05,274.84 605.99,277.23 608.93,278.74 611.89,279.59 614.83,280.44 617.77,281.29 620.72,282.00 623.66,282.34 626.60,282.69 629.56,283.04 632.50,283.38 635.44,283.37 638.40,283.36 641.34,283.36 644.28,283.35 647.23,282.96 650.17,282.43 653.11,281.90 656.07,281.36 659.01,280.33 661.95,278.62 664.90,276.93 667.84,275.22 670.79,275.15 673.74,284.87 676.68,294.59 679.62,304.30 682.58,314.02 685.52,330.43 688.46,347.95 691.41,365.46 694.35,382.98 697.29,394.35 700.25,401.13 703.19,407.90 706.13,414.66 709.08,420.14 712.03,422.36 714.97,424.58 717.92,426.80 720.86,429.02 723.80,434.80 726.76,440.57 729.70,446.35 732.64,452.12 735.59,459.75 738.53,468.12 741.48,476.50 744.43,484.87 747.37,493.15 750.31,501.32 753.27,509.48 756.21,517.65 759.15,525.47 762.10,531.21 765.04,536.96 767.98,542.70 770.94,548.44 773.88,548.16 776.82,546.88 779.77,545.59 782.72,544.30 785.66,539.09 788.61,530.94 791.55,522.79 794.49,514.63 797.45,506.81 800.39,499.82 803.33,492.83 806.28,485.84 809.22,478.85 812.17,475.67 815.12,472.50 818.06,469.33 821.00,466.15 823.96,458.75 826.90,449.67 829.84,440.58 832.79,431.49 835.73,417.24 838.67,396.10 841.63,374.96 844.57,353.82 847.51,333.92 850.46,321.50 853.41,309.09 856.35,296.68 859.30,284.26 862.24,283.13 865.18,283.89 868.14,284.64 871.08,285.40 874.02,285.87 876.97,286.15 879.91,286.42 882.85,286.69 885.81,286.89 888.75,286.91 891.69,286.93 894.65,286.94 897.59,286.96 900.53,286.82 903.48,286.68 906.42,286.54 909.36,286.41 912.32,286.19 915.26,285.93 918.20,285.67 921.15,285.42 924.09,285.22 927.04,285.09 929.99,284.96 932.93,284.84 935.87,286.68 938.83,300.35 941.77,314.02 944.71,327.69 947.66,341.36 950.60,364.08 953.54,388.30 956.50,412.52 959.44,436.74 962.38,454.24 965.33,466.69 968.28,479.15 971.22,491.60 974.17,501.13 977.11,503.37 980.05,505.60 983.01,507.84 985.95,510.07 988.89,511.04 991.84,512.01 994.78,512.98 997.73,513.95 1000.68,516.38 1003.62,519.38 1006.56,522.39 1009.52,525.40 1012.46,529.80 1015.40,536.09 1018.35,542.37 1021.29,548.64 1024.23,555.32 1027.19,564.35 1030.13,573.39 1033.07,582.43 1036.02,591.46 1038.97,600.22 1041.91,608.93 1044.86,617.64 1047.80,626.35 1050.74,633.20 1053.70,638.65 1056.64,644.10 1059.58,649.56 1062.53,653.99 1065.47,655.88 1068.42,657.77 1071.37,659.66 1074.31,661.55" fill="none" stroke="#000000" stroke-width="3"/>
<line x1="142" y1="100" x2="178" y2="100" stroke="#000000" stroke-width="4"/>
<text x="188" y="105" font-family="Arial" font-size="18" fill="black">epsilon</text>
</svg>