<svg xmlns="http://www.w3.org/2000/svg" width="1200" height="820" viewBox="0 0 1200 820">
<rect width="100%" height="100%" fill="white"/>
<text x="600.0" y="36" text-anchor="middle" font-family="Arial" font-size="24" fill="black">profile_diagonal_supply_return: U:1</text>
<line x1="120.00" y1="75" x2="120.00" y2="705" stroke="#dddddd" stroke-width="1"/>
<text x="120.00" y="737" text-anchor="middle" font-family="Arial" font-size="16" fill="black">-0.729</text>
<line x1="376.25" y1="75" x2="376.25" y2="705" stroke="#dddddd" stroke-width="1"/>
<text x="376.25" y="737" text-anchor="middle" font-family="Arial" font-size="16" fill="black">1.913</text>
<line x1="632.50" y1="75" x2="632.50" y2="705" stroke="#dddddd" stroke-width="1"/>
<text x="632.50" y="737" text-anchor="middle" font-family="Arial" font-size="16" fill="black">4.555</text>
<line x1="888.75" y1="75" x2="888.75" y2="705" stroke="#dddddd" stroke-width="1"/>
<text x="888.75" y="737" text-anchor="middle" font-family="Arial" font-size="16" fill="black">7.197</text>
<line x1="1145.00" y1="75" x2="1145.00" y2="705" stroke="#dddddd" stroke-width="1"/>
<text x="1145.00" y="737" text-anchor="middle" font-family="Arial" font-size="16" fill="black">9.839</text>
<line x1="120" y1="705.00" x2="1145" y2="705.00" stroke="#dddddd" stroke-width="1"/>
<text x="104" y="710.00" text-anchor="end" font-family="Arial" font-size="16" fill="black">-0.169</text>
<line x1="120" y1="547.50" x2="1145" y2="547.50" stroke="#dddddd" stroke-width="1"/>
<text x="104" y="552.50" text-anchor="end" font-family="Arial" font-size="16" fill="black">-0.049</text>
<line x1="120" y1="390.00" x2="1145" y2="390.00" stroke="#dddddd" stroke-width="1"/>
<text x="104" y="395.00" text-anchor="end" font-family="Arial" font-size="16" fill="black">0.071</text>
<line x1="120" y1="232.50" x2="1145" y2="232.50" stroke="#dddddd" stroke-width="1"/>
<text x="104" y="237.50" text-anchor="end" font-family="Arial" font-size="16" fill="black">0.191</text>
<line x1="120" y1="75.00" x2="1145" y2="75.00" stroke="#dddddd" stroke-width="1"/>
<text x="104" y="80.00" text-anchor="end" font-family="Arial" font-size="16" fill="black">0.311</text>
<rect x="120" y="75" width="1025" height="630" fill="none" stroke="black" stroke-width="2"/>
<text x="632.5" y="785" text-anchor="middle" font-family="Arial" font-size="20" fill="black">distance along sample line [m]</text>
<text x="34" y="390.0" transform="rotate(-90 34 390.0)" text-anchor="middle" font-family="Arial" font-size="20" fill="black">U:1 [SI]</text>
<polyline points="190.69,488.79 193.64,492.47 196.58,496.26 199.53,500.15 202.47,504.11 205.42,510.04 208.36,516.97 211.31,527.49 214.25,537.73 217.20,547.16 220.14,556.14 223.09,564.34 226.03,572.63 228.98,581.09 231.93,588.63 234.87,596.13 237.82,603.57 240.76,610.92 243.71,617.51 246.65,622.67 249.60,627.73 252.54,633.54 255.49,638.66 258.43,643.21 261.38,647.55 264.32,651.07 267.27,654.12 270.22,656.23 273.16,658.15 276.11,659.84 279.05,661.32 282.00,661.51 284.94,661.55 287.88,661.43 290.83,661.12 293.78,659.55 296.73,657.29 299.67,654.35 302.62,651.27 305.57,647.32 308.50,642.17 311.45,637.71 314.40,632.91 317.34,627.45 320.29,620.33 323.24,612.88 326.18,605.08 329.12,596.90 332.07,587.07 335.01,576.65 337.96,565.83 340.91,555.86 343.85,545.09 346.80,533.48 349.74,521.28 352.68,508.97 355.63,496.23 358.58,482.96 361.53,469.05 364.47,454.48 367.42,439.21 370.36,426.53 373.30,413.32 376.25,399.57 379.20,385.24 382.14,370.94 385.09,356.29 388.04,341.97 390.97,327.08 393.92,312.09 396.87,297.18 399.81,284.35 402.76,271.05 405.71,258.61 408.65,247.08 411.59,235.15 414.54,222.79 417.48,209.98 420.43,198.47 423.38,188.06 426.32,177.29 429.27,168.93 432.21,161.54 435.16,154.85 438.10,147.93 441.05,142.07 444.00,136.56 446.94,132.26 449.89,127.80 452.84,123.20 455.77,118.45 458.72,118.57 461.67,118.59 464.61,118.55 467.56,118.46 470.51,119.09 473.45,120.01 476.39,121.96 479.34,123.85 482.28,125.97 485.23,128.42 488.18,132.44 491.12,136.49 494.07,141.54 497.01,146.85 499.96,152.07 502.90,157.21 505.85,162.30 508.80,167.62 511.74,173.63 514.69,179.44 517.63,186.35 520.57,193.43 523.52,200.48 526.47,207.30 529.41,214.63 532.36,221.99 535.31,229.66 538.24,236.99 541.19,244.06 544.14,250.85 547.08,260.32 550.03,269.41 552.98,278.14 555.92,286.56 558.86,295.97 561.81,305.51 564.76,315.16 567.70,324.44 570.65,334.26 573.60,344.84 576.54,355.67 579.49,366.09 582.43,376.56 585.37,388.00 588.32,399.00 591.27,409.57 594.21,419.74 597.16,430.28 600.11,440.38 603.04,450.05 605.99,459.68 608.94,468.80 611.88,477.42 614.83,485.58 617.78,492.96 620.72,499.63 623.66,505.18 626.61,510.35 629.55,515.16 632.50,519.60 635.45,521.93 638.40,523.95 641.34,525.66 644.28,527.06 647.23,526.72 650.17,525.55 653.12,523.76 656.07,521.76 659.01,518.65 661.96,514.14 664.90,509.78 667.84,505.27 670.79,499.96 673.74,492.90 676.68,485.75 679.63,478.52 682.58,471.22 685.51,462.51 688.46,453.24 691.41,443.94 694.35,434.96 697.30,425.35 700.25,415.28 703.20,405.22 706.14,394.99 709.08,384.63 712.03,373.89 714.97,363.19 717.92,352.53 720.87,341.90 723.81,331.54 726.76,321.23 729.70,311.00 732.64,300.82 735.59,291.01 738.54,281.38 741.48,271.96 744.43,262.61 747.38,253.68 750.31,245.25 753.26,237.28 756.21,229.38 759.15,222.17 762.10,215.98 765.05,209.83 767.99,203.71 770.93,197.61 773.88,192.59 776.83,188.51 779.77,184.43 782.72,180.98 785.67,178.31 788.61,176.16 791.55,173.95 794.50,172.80 797.44,172.02 800.39,172.18 803.34,172.22 806.28,172.13 809.23,171.90 812.17,174.91 815.11,177.73 818.06,180.34 821.01,182.78 823.95,185.80 826.90,188.87 829.85,192.77 832.79,196.39 835.73,199.89 838.68,203.29 841.63,206.84 844.57,209.98 847.52,213.34 850.47,215.73 853.41,217.59 856.35,218.93 859.30,219.77 862.24,218.98 865.19,217.97 868.14,216.53 871.08,215.07 874.03,212.47 876.97,209.02 879.91,205.34 882.86,202.34 885.81,199.07 888.75,195.38 891.70,191.80 894.65,188.34 897.58,185.01 900.53,183.24 903.48,181.66 906.43,180.28 909.37,179.11 912.32,178.29 915.27,177.75 918.20,179.02 921.15,180.48 924.10,182.13 927.04,183.97 929.99,185.17 932.94,186.51 935.88,189.29 938.82,191.97 941.77,194.81 944.71,197.85 947.66,201.08 950.61,204.09 953.55,208.42 956.50,213.02 959.44,216.57 962.38,219.97 965.33,223.31 968.28,226.91 971.22,232.08 974.17,237.31 977.12,242.22 980.06,247.45 983.00,253.00 985.95,258.86 988.90,263.25 991.84,268.07 994.79,273.30 997.74,278.96 1000.68,283.53 1003.62,287.70 1006.57,292.95 1009.51,298.26 1012.46,303.03 1015.41,307.20 1018.35,309.91 1021.30,312.95 1024.24,317.50 1027.18,322.81 1030.13,329.03 1033.08,336.13 1036.02,344.10 1038.97,350.18 1041.92,356.01 1044.86,362.40 1047.80,369.30 1050.75,372.94 1053.70,374.49 1056.64,376.58 1059.59,373.42 1062.54,371.33 1065.47,371.24 1068.42,371.52 1071.37,372.16 1074.31,373.18" fill="none" stroke="#000000" stroke-width="3"/>
<line x1="142" y1="100" x2="178" y2="100" stroke="#000000" stroke-width="4"/>
<text x="188" y="105" font-family="Arial" font-size="18" fill="black">U:1</text>
</svg>