<svg xmlns="http://www.w3.org/2000/svg" width="1200" height="820" viewBox="0 0 1200 820">
<rect width="100%" height="100%" fill="white"/>
<text x="600.0" y="36" text-anchor="middle" font-family="Arial" font-size="24" fill="black">profile_center_z: vorticity:2</text>
<line x1="120.00" y1="75" x2="120.00" y2="705" stroke="#dddddd" stroke-width="1"/>
<text x="120.00" y="737" text-anchor="middle" font-family="Arial" font-size="16" fill="black">-0.240</text>
<line x1="376.25" y1="75" x2="376.25" y2="705" stroke="#dddddd" stroke-width="1"/>
<text x="376.25" y="737" text-anchor="middle" font-family="Arial" font-size="16" fill="black">0.630</text>
<line x1="632.50" y1="75" x2="632.50" y2="705" stroke="#dddddd" stroke-width="1"/>
<text x="632.50" y="737" text-anchor="middle" font-family="Arial" font-size="16" fill="black">1.500</text>
<line x1="888.75" y1="75" x2="888.75" y2="705" stroke="#dddddd" stroke-width="1"/>
<text x="888.75" y="737" text-anchor="middle" font-family="Arial" font-size="16" fill="black">2.370</text>
<line x1="1145.00" y1="75" x2="1145.00" y2="705" stroke="#dddddd" stroke-width="1"/>
<text x="1145.00" y="737" text-anchor="middle" font-family="Arial" font-size="16" fill="black">3.240</text>
<line x1="120" y1="705.00" x2="1145" y2="705.00" stroke="#dddddd" stroke-width="1"/>
<text x="104" y="710.00" text-anchor="end" font-family="Arial" font-size="16" fill="black">-0.255</text>
<line x1="120" y1="547.50" x2="1145" y2="547.50" stroke="#dddddd" stroke-width="1"/>
<text x="104" y="552.50" text-anchor="end" font-family="Arial" font-size="16" fill="black">-0.174</text>
<line x1="120" y1="390.00" x2="1145" y2="390.00" stroke="#dddddd" stroke-width="1"/>
<text x="104" y="395.00" text-anchor="end" font-family="Arial" font-size="16" fill="black">-0.092</text>
<line x1="120" y1="232.50" x2="1145" y2="232.50" stroke="#dddddd" stroke-width="1"/>
<text x="104" y="237.50" text-anchor="end" font-family="Arial" font-size="16" fill="black">-0.011</text>
<line x1="120" y1="75.00" x2="1145" y2="75.00" stroke="#dddddd" stroke-width="1"/>
<text x="104" y="80.00" text-anchor="end" font-family="Arial" font-size="16" fill="black">0.070</text>
<rect x="120" y="75" width="1025" height="630" fill="none" stroke="black" stroke-width="2"/>
<text x="632.5" y="785" text-anchor="middle" font-family="Arial" font-size="20" fill="black">z coordinate [m]</text>
<text x="34" y="390.0" transform="rotate(-90 34 390.0)" text-anchor="middle" font-family="Arial" font-size="20" fill="black">vorticity:2 [SI]</text>
<polyline points="190.69,211.24 193.64,211.26 196.58,211.27 199.53,211.28 202.47,211.29 205.42,211.31 208.36,211.32 211.31,211.33 214.25,211.34 217.20,211.36 220.14,211.37 223.09,211.44 226.03,211.51 228.98,211.58 231.93,211.65 234.87,211.71 237.82,211.78 240.76,211.85 243.71,211.92 246.65,211.99 249.60,212.06 252.54,212.20 255.49,212.33 258.43,212.47 261.38,212.61 264.32,212.74 267.27,212.88 270.22,213.02 273.16,213.15 276.11,213.29 279.05,213.43 282.00,212.85 284.94,212.26 287.89,211.68 290.83,211.10 293.78,210.52 296.72,209.94 299.67,209.36 302.61,208.78 305.56,208.20 308.51,207.62 311.45,206.49 314.40,205.37 317.34,204.25 320.29,203.13 323.23,202.00 326.18,200.88 329.12,199.76 332.07,198.64 335.01,197.51 337.96,196.39 340.91,195.91 343.85,195.42 346.80,194.94 349.74,194.45 352.69,193.97 355.63,193.48 358.58,193.00 361.52,192.51 364.47,192.03 367.41,191.54 370.36,191.94 373.30,192.35 376.25,192.75 379.20,193.15 382.14,193.56 385.09,193.96 388.03,194.36 390.98,194.76 393.92,195.17 396.87,195.57 399.81,197.67 402.76,199.76 405.70,201.86 408.65,203.96 411.59,206.06 414.54,208.15 417.49,210.25 420.43,212.35 423.38,214.45 426.32,216.54 429.27,221.12 432.21,225.70 435.16,230.28 438.10,234.86 441.05,239.44 443.99,244.01 446.94,248.59 449.89,253.17 452.83,257.75 455.78,262.33 458.72,269.01 461.67,275.70 464.61,282.38 467.56,289.07 470.50,295.75 473.45,302.44 476.39,309.12 479.34,315.81 482.28,322.49 485.23,329.18 488.18,337.19 491.12,345.20 494.07,353.21 497.01,361.22 499.96,369.23 502.90,377.24 505.85,385.25 508.79,393.26 511.74,401.27 514.68,409.28 517.63,417.58 520.57,425.86 523.52,434.15 526.47,442.45 529.41,450.74 532.36,459.04 535.30,467.34 538.25,475.63 541.19,483.91 544.14,492.21 547.08,499.61 550.03,507.00 552.97,514.39 555.92,521.79 558.86,529.18 561.81,536.57 564.76,543.97 567.70,551.36 570.65,558.77 573.59,566.16 576.54,571.74 579.48,577.35 582.43,582.94 585.37,588.53 588.32,594.12 591.26,599.73 594.21,605.32 597.16,610.90 600.10,616.49 603.05,622.08 605.99,625.35 608.94,628.62 611.88,631.87 614.83,635.14 617.77,638.38 620.72,641.65 623.66,644.90 626.61,648.17 629.55,651.42 632.50,654.69 635.45,655.36 638.39,656.06 641.34,656.74 644.28,657.43 647.23,658.11 650.17,658.81 653.12,659.48 656.06,660.18 659.01,660.86 661.95,661.55 664.90,659.68 667.84,657.82 670.79,655.94 673.74,654.07 676.68,652.21 679.63,650.34 682.57,648.48 685.52,646.60 688.46,644.73 691.41,642.87 694.35,638.71 697.30,634.56 700.24,630.42 703.19,626.26 706.14,622.12 709.08,617.96 712.03,613.81 714.97,609.67 717.92,605.51 720.86,601.35 723.81,595.43 726.75,589.50 729.70,583.58 732.64,577.64 735.59,571.71 738.53,565.79 741.48,559.85 744.43,553.93 747.37,548.00 750.32,542.06 753.26,535.02 756.21,527.98 759.15,520.94 762.10,513.88 765.04,506.84 767.99,499.81 770.93,492.77 773.88,485.71 776.82,478.67 779.77,471.63 782.72,464.15 785.66,456.66 788.61,449.20 791.55,441.71 794.50,434.23 797.44,426.76 800.39,419.28 803.33,411.80 806.28,404.32 809.22,396.84 812.17,389.59 815.11,382.34 818.06,375.09 821.01,367.83 823.95,360.58 826.90,353.33 829.84,346.08 832.79,338.83 835.73,331.57 838.68,324.32 841.62,317.78 844.57,311.23 847.51,304.69 850.46,298.14 853.41,291.60 856.35,285.05 859.30,278.51 862.24,271.97 865.19,265.42 868.13,258.88 871.08,253.25 874.02,247.63 876.97,242.00 879.91,236.38 882.86,230.75 885.80,225.13 888.75,219.50 891.70,213.88 894.64,208.25 897.59,202.63 900.53,198.12 903.48,193.62 906.42,189.11 909.37,184.61 912.31,180.10 915.26,175.60 918.20,171.09 921.15,166.59 924.09,162.08 927.04,157.58 929.99,154.59 932.93,151.60 935.88,148.61 938.82,145.61 941.77,142.63 944.71,139.63 947.66,136.64 950.60,133.65 953.55,130.66 956.49,127.67 959.44,126.75 962.39,125.83 965.33,124.91 968.28,123.98 971.22,123.06 974.17,122.14 977.11,121.22 980.06,120.29 983.00,119.37 985.95,118.45 988.89,119.99 991.84,121.53 994.78,123.06 997.73,124.60 1000.68,126.14 1003.62,127.68 1006.57,129.21 1009.51,130.75 1012.46,132.29 1015.40,133.83 1018.35,137.86 1021.29,141.89 1024.24,145.92 1027.18,149.95 1030.13,153.98 1033.07,158.02 1036.02,162.05 1038.97,166.08 1041.91,170.11 1044.86,174.14 1047.80,176.77 1050.75,179.39 1053.69,182.01 1056.64,184.63 1059.58,187.25 1062.53,189.88 1065.47,192.50 1068.42,195.12 1071.36,197.74 1074.31,200.37" fill="none" stroke="#000000" stroke-width="3"/>
<line x1="142" y1="100" x2="178" y2="100" stroke="#000000" stroke-width="4"/>
<text x="188" y="105" font-family="Arial" font-size="18" fill="black">vorticity:2</text>
</svg>