<svg xmlns="http://www.w3.org/2000/svg" width="1200" height="820" viewBox="0 0 1200 820">
<rect width="100%" height="100%" fill="white"/>
<text x="600.0" y="36" text-anchor="middle" font-family="Arial" font-size="24" fill="black">profile_center_x: T</text>
<line x1="120.00" y1="75" x2="120.00" y2="705" stroke="#dddddd" stroke-width="1"/>
<text x="120.00" y="737" text-anchor="middle" font-family="Arial" font-size="16" fill="black">-0.560</text>
<line x1="376.25" y1="75" x2="376.25" y2="705" stroke="#dddddd" stroke-width="1"/>
<text x="376.25" y="737" text-anchor="middle" font-family="Arial" font-size="16" fill="black">1.470</text>
<line x1="632.50" y1="75" x2="632.50" y2="705" stroke="#dddddd" stroke-width="1"/>
<text x="632.50" y="737" text-anchor="middle" font-family="Arial" font-size="16" fill="black">3.500</text>
<line x1="888.75" y1="75" x2="888.75" y2="705" stroke="#dddddd" stroke-width="1"/>
<text x="888.75" y="737" text-anchor="middle" font-family="Arial" font-size="16" fill="black">5.530</text>
<line x1="1145.00" y1="75" x2="1145.00" y2="705" stroke="#dddddd" stroke-width="1"/>
<text x="1145.00" y="737" text-anchor="middle" font-family="Arial" font-size="16" fill="black">7.560</text>
<line x1="120" y1="705.00" x2="1145" y2="705.00" stroke="#dddddd" stroke-width="1"/>
<text x="104" y="710.00" text-anchor="end" font-family="Arial" font-size="16" fill="black">316.1</text>
<line x1="120" y1="547.50" x2="1145" y2="547.50" stroke="#dddddd" stroke-width="1"/>
<text x="104" y="552.50" text-anchor="end" font-family="Arial" font-size="16" fill="black">319.0</text>
<line x1="120" y1="390.00" x2="1145" y2="390.00" stroke="#dddddd" stroke-width="1"/>
<text x="104" y="395.00" text-anchor="end" font-family="Arial" font-size="16" fill="black">321.9</text>
<line x1="120" y1="232.50" x2="1145" y2="232.50" stroke="#dddddd" stroke-width="1"/>
<text x="104" y="237.50" text-anchor="end" font-family="Arial" font-size="16" fill="black">324.8</text>
<line x1="120" y1="75.00" x2="1145" y2="75.00" stroke="#dddddd" stroke-width="1"/>
<text x="104" y="80.00" text-anchor="end" font-family="Arial" font-size="16" fill="black">327.7</text>
<rect x="120" y="75" width="1025" height="630" fill="none" stroke="black" stroke-width="2"/>
<text x="632.5" y="785" text-anchor="middle" font-family="Arial" font-size="20" fill="black">x coordinate [m]</text>
<text x="34" y="390.0" transform="rotate(-90 34 390.0)" text-anchor="middle" font-family="Arial" font-size="20" fill="black">T [K]</text>
<polyline points="190.69,507.85 193.64,495.91 196.58,483.96 199.53,472.01 202.47,460.06 205.42,444.31 208.36,426.39 211.31,408.47 214.25,391.09 217.20,377.51 220.14,369.91 223.09,362.30 226.03,354.70 228.98,348.18 231.93,348.18 234.87,348.18 237.82,348.18 240.76,348.18 243.71,353.07 246.65,359.04 249.60,364.47 252.54,369.91 255.49,376.42 258.43,384.03 261.38,391.09 264.32,398.69 267.27,405.21 270.22,410.09 273.16,414.98 276.11,419.87 279.05,424.76 282.00,426.39 284.94,428.02 287.89,429.65 290.83,430.73 293.78,430.73 296.72,430.19 299.67,429.65 302.62,429.10 305.56,428.56 308.51,427.47 311.45,426.93 314.40,426.39 317.34,425.30 320.29,425.84 323.23,425.84 326.17,426.39 329.13,426.39 332.07,428.02 335.01,429.10 337.96,430.73 340.91,432.36 343.85,433.99 346.80,435.62 349.74,437.79 352.68,439.42 355.64,441.05 358.58,442.14 361.52,442.68 364.47,443.22 367.41,444.31 370.35,442.68 373.31,441.05 376.25,439.42 379.19,437.79 382.15,434.53 385.09,430.19 388.03,426.39 390.98,422.04 393.92,417.16 396.86,411.72 399.82,405.75 402.76,399.78 405.70,393.80 408.65,387.83 411.59,381.31 414.54,374.79 417.49,368.28 420.43,361.76 423.37,355.24 426.33,348.72 429.27,342.21 432.21,336.23 435.16,330.26 438.10,324.28 441.04,318.31 444.00,312.34 446.94,306.91 449.88,300.93 452.83,295.50 455.78,290.07 458.72,284.64 461.67,279.21 464.61,273.78 467.55,268.34 470.51,262.91 473.45,257.48 476.39,252.59 479.34,247.16 482.28,241.73 485.23,236.84 488.18,231.41 491.12,226.53 494.06,221.09 497.02,216.21 499.96,211.32 502.90,206.43 505.85,201.54 508.79,196.66 511.73,191.77 514.69,186.88 517.63,182.53 520.57,178.19 523.52,173.84 526.47,169.50 529.41,165.16 532.36,160.81 535.30,157.01 538.24,153.21 541.20,149.41 544.14,145.60 547.08,142.34 550.03,139.09 552.97,135.83 555.92,133.11 558.87,130.40 561.81,128.22 564.75,126.05 567.71,123.88 570.65,122.25 573.59,121.16 576.54,120.08 579.48,118.99 582.42,118.45 585.38,118.99 588.32,119.53 591.26,120.08 594.21,120.62 597.16,122.25 600.10,124.42 603.05,126.59 605.99,128.77 608.93,131.48 611.89,135.28 614.83,138.54 617.77,141.80 620.72,145.06 623.66,148.86 626.60,152.66 629.56,157.01 632.50,160.81 635.44,164.61 638.40,168.41 641.34,172.22 644.28,176.56 647.23,180.36 650.17,184.16 653.11,187.42 656.07,191.22 659.01,195.03 661.95,198.28 664.90,202.09 667.84,205.34 670.79,209.15 673.74,212.41 676.68,215.66 679.62,218.92 682.58,221.64 685.52,224.90 688.46,227.61 691.41,230.33 694.35,233.04 697.29,235.76 700.25,237.93 703.19,240.10 706.13,242.82 709.08,244.99 712.03,246.62 714.97,248.25 717.92,250.42 720.86,252.05 723.80,253.68 726.76,255.31 729.70,256.94 732.64,258.57 735.59,260.74 738.53,262.91 741.48,265.09 744.43,267.26 747.37,269.43 750.31,272.69 753.27,275.95 756.21,279.21 759.15,282.47 762.10,286.81 765.04,291.16 767.98,295.50 770.94,300.39 773.88,305.82 776.82,311.79 779.77,317.77 782.72,323.20 785.66,329.72 788.61,336.78 791.55,343.84 794.49,350.35 797.45,357.96 800.39,365.56 803.33,373.16 806.28,380.77 809.22,388.37 812.17,395.97 815.12,404.12 818.06,411.72 821.00,419.87 823.96,427.47 826.90,435.62 829.84,443.22 832.79,451.37 835.73,458.97 838.67,466.58 841.63,473.64 844.57,481.24 847.51,488.84 850.46,495.36 853.41,501.88 856.35,508.94 859.30,515.46 862.24,521.43 865.18,526.86 868.14,532.84 871.08,538.27 874.02,543.70 876.97,548.59 879.91,553.47 882.85,558.36 885.81,563.25 888.75,567.59 891.69,571.94 894.65,576.83 897.59,581.17 900.53,585.52 903.48,589.86 906.42,594.21 909.36,598.55 912.32,602.90 915.26,607.24 918.20,611.04 921.15,615.39 924.09,619.73 927.04,624.08 929.99,628.42 932.93,632.22 935.87,636.57 938.83,639.83 941.77,643.63 944.71,647.43 947.66,650.69 950.60,652.86 953.54,655.58 956.50,657.75 959.44,659.92 962.38,661.01 965.33,661.01 968.28,661.55 971.22,661.55 974.17,661.55 977.11,659.38 980.05,657.75 983.01,655.58 985.95,653.95 988.89,650.15 991.84,646.34 994.78,642.54 997.73,638.74 1000.68,633.85 1003.62,628.97 1006.56,624.08 1009.52,619.19 1012.46,614.84 1015.40,609.96 1018.35,605.61 1021.29,600.72 1024.23,596.38 1027.19,593.66 1030.13,590.95 1033.07,588.23 1036.02,585.52 1038.97,583.89 1041.91,582.26 1044.86,581.17 1047.80,579.54 1050.74,574.66 1053.70,567.59 1056.64,559.99 1059.58,552.93 1062.53,545.33 1065.47,538.81 1068.42,532.29 1071.37,525.23 1074.31,518.72" fill="none" stroke="#000000" stroke-width="3"/>
<line x1="142" y1="100" x2="178" y2="100" stroke="#000000" stroke-width="4"/>
<text x="188" y="105" font-family="Arial" font-size="18" fill="black">T</text>
</svg>