<svg xmlns="http://www.w3.org/2000/svg" width="1200" height="820" viewBox="0 0 1200 820">
<rect width="100%" height="100%" fill="white"/>
<text x="600.0" y="36" text-anchor="middle" font-family="Arial" font-size="24" fill="black">profile_near_floor_x: rho</text>
<line x1="120.00" y1="75" x2="120.00" y2="705" stroke="#dddddd" stroke-width="1"/>
<text x="120.00" y="737" text-anchor="middle" font-family="Arial" font-size="16" fill="black">-0.560</text>
<line x1="376.25" y1="75" x2="376.25" y2="705" stroke="#dddddd" stroke-width="1"/>
<text x="376.25" y="737" text-anchor="middle" font-family="Arial" font-size="16" fill="black">1.470</text>
<line x1="632.50" y1="75" x2="632.50" y2="705" stroke="#dddddd" stroke-width="1"/>
<text x="632.50" y="737" text-anchor="middle" font-family="Arial" font-size="16" fill="black">3.500</text>
<line x1="888.75" y1="75" x2="888.75" y2="705" stroke="#dddddd" stroke-width="1"/>
<text x="888.75" y="737" text-anchor="middle" font-family="Arial" font-size="16" fill="black">5.530</text>
<line x1="1145.00" y1="75" x2="1145.00" y2="705" stroke="#dddddd" stroke-width="1"/>
<text x="1145.00" y="737" text-anchor="middle" font-family="Arial" font-size="16" fill="black">7.560</text>
<line x1="120" y1="705.00" x2="1145" y2="705.00" stroke="#dddddd" stroke-width="1"/>
<text x="104" y="710.00" text-anchor="end" font-family="Arial" font-size="16" fill="black">1.132</text>
<line x1="120" y1="547.50" x2="1145" y2="547.50" stroke="#dddddd" stroke-width="1"/>
<text x="104" y="552.50" text-anchor="end" font-family="Arial" font-size="16" fill="black">1.159</text>
<line x1="120" y1="390.00" x2="1145" y2="390.00" stroke="#dddddd" stroke-width="1"/>
<text x="104" y="395.00" text-anchor="end" font-family="Arial" font-size="16" fill="black">1.186</text>
<line x1="120" y1="232.50" x2="1145" y2="232.50" stroke="#dddddd" stroke-width="1"/>
<text x="104" y="237.50" text-anchor="end" font-family="Arial" font-size="16" fill="black">1.213</text>
<line x1="120" y1="75.00" x2="1145" y2="75.00" stroke="#dddddd" stroke-width="1"/>
<text x="104" y="80.00" text-anchor="end" font-family="Arial" font-size="16" fill="black">1.240</text>
<rect x="120" y="75" width="1025" height="630" fill="none" stroke="black" stroke-width="2"/>
<text x="632.5" y="785" text-anchor="middle" font-family="Arial" font-size="20" fill="black">x coordinate [m]</text>
<text x="34" y="390.0" transform="rotate(-90 34 390.0)" text-anchor="middle" font-family="Arial" font-size="20" fill="black">rho [kg/m3]</text>
<polyline points="190.69,661.55 193.64,658.63 196.58,655.70 199.53,652.77 202.47,650.43 205.42,645.75 208.36,640.48 211.31,635.22 214.25,629.95 217.20,624.68 220.14,619.41 223.09,614.15 226.03,608.29 228.98,603.03 231.93,596.59 234.87,589.57 237.82,583.13 240.76,576.11 243.71,567.33 246.65,557.96 249.60,548.60 252.54,539.24 255.49,527.53 258.43,514.66 261.38,501.20 264.32,487.74 267.27,473.10 270.22,454.96 273.16,437.40 276.11,419.26 279.05,401.12 282.00,378.30 284.94,356.06 287.89,333.23 290.83,310.99 293.78,288.17 296.72,265.34 299.67,242.52 302.62,219.69 305.56,200.38 308.51,185.17 311.45,170.53 314.40,155.32 317.34,141.86 320.29,136.59 323.23,131.91 326.17,127.23 329.13,121.96 332.07,120.79 335.01,120.79 337.96,120.20 340.91,119.62 343.85,119.03 346.80,119.03 349.74,119.03 352.68,119.03 355.64,119.03 358.58,119.03 361.52,119.03 364.47,119.03 367.41,119.03 370.35,119.03 373.31,119.03 376.25,119.03 379.19,119.03 382.15,119.03 385.09,119.03 388.03,119.03 390.98,119.03 393.92,119.62 396.86,119.62 399.82,120.20 402.76,120.79 405.70,121.37 408.65,124.89 411.59,128.40 414.54,131.91 417.49,135.42 420.43,145.37 423.37,157.07 426.33,168.19 429.27,179.90 432.21,194.53 435.16,212.09 438.10,229.06 441.04,246.62 444.00,263.59 446.94,279.39 449.88,294.61 452.83,310.41 455.78,326.21 458.72,336.74 461.67,347.86 464.61,358.40 467.55,368.93 470.51,376.54 473.45,382.39 476.39,388.83 479.34,394.68 482.28,398.78 485.23,401.12 488.18,403.46 491.12,405.80 494.06,407.56 497.02,406.39 499.96,405.22 502.90,404.05 505.85,402.88 508.79,398.78 511.73,394.68 514.69,390.59 517.63,386.49 520.57,380.64 523.52,373.61 526.47,366.01 529.41,358.98 532.36,350.79 535.30,339.67 538.24,328.55 541.20,317.43 544.14,306.31 547.08,290.51 550.03,275.29 552.97,259.49 555.92,243.69 558.87,227.89 561.81,211.50 564.75,195.70 567.71,179.31 570.65,165.85 573.59,156.49 576.54,147.13 579.48,137.76 582.42,128.98 585.38,126.64 588.32,124.89 591.26,122.54 594.21,120.20 597.16,119.62 600.10,119.03 603.05,119.03 605.99,119.03 608.93,119.03 611.89,118.45 614.83,118.45 617.77,118.45 620.72,118.45 623.66,118.45 626.60,118.45 629.56,118.45 632.50,118.45 635.44,118.45 638.40,118.45 641.34,118.45 644.28,118.45 647.23,118.45 650.17,118.45 653.11,118.45 656.07,118.45 659.01,118.45 661.95,119.03 664.90,119.03 667.84,119.03 670.79,119.03 673.74,120.79 676.68,121.96 679.62,123.13 682.58,124.89 685.52,131.32 688.46,139.52 691.41,147.13 694.35,154.73 697.29,167.61 700.25,183.41 703.19,199.21 706.13,215.60 709.08,231.98 712.03,249.54 714.97,267.10 717.92,284.66 720.86,302.21 723.80,315.67 726.76,329.13 729.70,342.60 732.64,356.06 735.59,366.01 738.53,374.20 741.48,382.98 744.43,391.17 747.37,397.61 750.31,401.70 753.27,405.80 756.21,409.90 759.15,413.41 762.10,412.82 765.04,412.82 767.98,412.82 770.94,412.24 773.88,408.73 776.82,404.05 779.77,399.95 782.72,395.85 785.66,389.41 788.61,381.22 791.55,373.03 794.49,365.42 797.45,356.06 800.39,343.18 803.33,330.31 806.28,317.43 809.22,305.14 812.17,287.00 815.12,269.44 818.06,251.30 821.00,233.74 823.96,216.77 826.90,200.38 829.84,183.41 832.79,167.02 835.73,154.15 838.67,146.54 841.63,138.35 844.57,130.74 847.51,123.72 850.46,122.54 853.41,121.37 856.35,120.20 859.30,119.03 862.24,119.03 865.18,119.03 868.14,118.45 871.08,118.45 874.02,118.45 876.97,118.45 879.91,118.45 882.85,118.45 885.81,118.45 888.75,118.45 891.69,118.45 894.65,118.45 897.59,118.45 900.53,118.45 903.48,118.45 906.42,118.45 909.36,118.45 912.32,118.45 915.26,118.45 918.20,118.45 921.15,118.45 924.09,119.03 927.04,119.03 929.99,119.03 932.93,119.62 935.87,120.20 938.83,122.54 941.77,124.89 944.71,127.23 947.66,129.57 950.60,138.93 953.54,149.47 956.50,160.00 959.44,169.95 962.38,185.17 965.33,203.31 968.28,221.45 971.22,239.59 974.17,258.32 977.11,277.05 980.05,296.36 983.01,315.09 985.95,334.40 988.89,349.03 991.84,364.25 994.78,379.47 997.73,394.68 1000.68,406.97 1003.62,418.09 1006.56,429.21 1009.52,439.75 1012.46,449.11 1015.40,456.72 1018.35,463.74 1021.29,471.35 1024.23,478.37 1027.19,481.88 1030.13,485.98 1033.07,490.08 1036.02,494.17 1038.97,495.34 1041.91,495.93 1044.86,497.10 1047.80,497.68 1050.74,497.10 1053.70,495.34 1056.64,494.17 1059.58,492.42 1062.53,490.66 1065.47,489.49 1068.42,488.32 1071.37,486.56 1074.31,485.39" fill="none" stroke="#000000" stroke-width="3"/>
<line x1="142" y1="100" x2="178" y2="100" stroke="#000000" stroke-width="4"/>
<text x="188" y="105" font-family="Arial" font-size="18" fill="black">rho</text>
</svg>