<svg xmlns="http://www.w3.org/2000/svg" width="1200" height="820" viewBox="0 0 1200 820">
<rect width="100%" height="100%" fill="white"/>
<text x="600.0" y="36" text-anchor="middle" font-family="Arial" font-size="24" fill="black">profile_diagonal_supply_return: alphat</text>
<line x1="120.00" y1="75" x2="120.00" y2="705" stroke="#dddddd" stroke-width="1"/>
<text x="120.00" y="737" text-anchor="middle" font-family="Arial" font-size="16" fill="black">-0.729</text>
<line x1="376.25" y1="75" x2="376.25" y2="705" stroke="#dddddd" stroke-width="1"/>
<text x="376.25" y="737" text-anchor="middle" font-family="Arial" font-size="16" fill="black">1.913</text>
<line x1="632.50" y1="75" x2="632.50" y2="705" stroke="#dddddd" stroke-width="1"/>
<text x="632.50" y="737" text-anchor="middle" font-family="Arial" font-size="16" fill="black">4.555</text>
<line x1="888.75" y1="75" x2="888.75" y2="705" stroke="#dddddd" stroke-width="1"/>
<text x="888.75" y="737" text-anchor="middle" font-family="Arial" font-size="16" fill="black">7.197</text>
<line x1="1145.00" y1="75" x2="1145.00" y2="705" stroke="#dddddd" stroke-width="1"/>
<text x="1145.00" y="737" text-anchor="middle" font-family="Arial" font-size="16" fill="black">9.839</text>
<line x1="120" y1="705.00" x2="1145" y2="705.00" stroke="#dddddd" stroke-width="1"/>
<text x="104" y="710.00" text-anchor="end" font-family="Arial" font-size="16" fill="black">-0.001</text>
<line x1="120" y1="547.50" x2="1145" y2="547.50" stroke="#dddddd" stroke-width="1"/>
<text x="104" y="552.50" text-anchor="end" font-family="Arial" font-size="16" fill="black">0.005</text>
<line x1="120" y1="390.00" x2="1145" y2="390.00" stroke="#dddddd" stroke-width="1"/>
<text x="104" y="395.00" text-anchor="end" font-family="Arial" font-size="16" fill="black">0.012</text>
<line x1="120" y1="232.50" x2="1145" y2="232.50" stroke="#dddddd" stroke-width="1"/>
<text x="104" y="237.50" text-anchor="end" font-family="Arial" font-size="16" fill="black">0.019</text>
<line x1="120" y1="75.00" x2="1145" y2="75.00" stroke="#dddddd" stroke-width="1"/>
<text x="104" y="80.00" text-anchor="end" font-family="Arial" font-size="16" fill="black">0.026</text>
<rect x="120" y="75" width="1025" height="630" fill="none" stroke="black" stroke-width="2"/>
<text x="632.5" y="785" text-anchor="middle" font-family="Arial" font-size="20" fill="black">distance along sample line [m]</text>
<text x="34" y="390.0" transform="rotate(-90 34 390.0)" text-anchor="middle" font-family="Arial" font-size="20" fill="black">alphat [SI]</text>
<polyline points="190.69,661.55 193.64,661.44 196.58,661.28 199.53,661.05 202.47,660.74 205.42,660.16 208.36,659.35 211.31,658.23 214.25,656.85 217.20,655.26 220.14,653.52 223.09,651.04 226.03,648.07 228.98,645.25 231.93,642.16 234.87,638.68 237.82,634.78 240.76,630.41 243.71,625.62 246.65,620.82 249.60,615.59 252.54,610.66 255.49,605.42 258.43,599.83 261.38,593.82 264.32,588.00 267.27,581.89 270.22,575.60 273.16,568.94 276.11,561.88 279.05,554.42 282.00,548.85 284.94,543.08 287.88,537.06 290.83,530.80 293.78,524.54 296.73,518.08 299.67,512.35 302.62,506.39 305.57,500.36 308.50,494.29 311.45,488.89 314.40,483.20 317.34,478.41 320.29,473.83 323.24,468.95 326.18,463.77 329.12,458.27 332.07,453.04 335.01,448.70 337.96,444.02 340.91,439.84 343.85,435.83 346.80,431.94 349.74,427.72 352.68,424.17 355.63,420.58 358.58,417.42 361.53,413.99 364.47,410.25 367.42,406.25 370.36,404.17 373.30,401.82 376.25,399.17 379.20,396.27 382.14,393.80 385.09,391.43 388.04,389.29 390.97,386.91 393.92,384.63 396.87,382.63 399.81,380.37 402.76,377.97 405.71,375.67 408.65,373.55 411.59,371.32 414.54,368.99 417.48,366.57 420.43,364.27 423.38,362.03 426.32,359.73 429.27,356.75 432.21,353.85 435.16,351.06 438.10,348.25 441.05,345.35 444.00,342.49 446.94,339.82 449.89,337.22 452.84,334.61 455.77,332.01 458.72,328.62 461.67,325.28 464.61,321.96 467.56,318.65 470.51,315.51 473.45,312.49 476.39,309.34 479.34,306.23 482.28,303.19 485.23,300.33 488.18,296.73 491.12,293.19 494.07,289.50 497.01,285.91 499.96,282.40 502.90,279.04 505.85,275.79 508.80,272.38 511.74,268.99 514.69,265.75 517.63,262.15 520.57,258.42 523.52,254.66 526.47,251.18 529.41,247.87 532.36,244.53 535.31,240.95 538.24,237.57 541.19,234.41 544.14,231.42 547.08,227.96 550.03,224.66 552.98,221.51 555.92,218.47 558.86,215.33 561.81,212.15 564.76,209.30 567.70,206.44 570.65,203.49 573.60,200.38 576.54,197.15 579.49,193.84 582.43,191.07 585.37,188.19 588.32,185.27 591.27,182.25 594.21,179.14 597.16,176.05 600.11,173.72 603.04,171.30 605.99,168.91 608.94,166.58 611.88,164.32 614.83,161.99 617.78,160.54 620.72,159.00 623.66,157.34 626.61,155.52 629.55,153.54 632.50,151.42 635.45,150.27 638.40,148.93 641.34,147.36 644.28,145.61 647.23,143.29 650.17,140.59 653.12,139.18 656.07,137.59 659.01,135.66 661.96,133.38 664.90,131.24 667.84,129.02 670.79,127.76 673.74,126.56 676.68,125.27 679.63,123.89 682.58,122.43 685.51,121.37 688.46,120.66 691.41,119.85 694.35,119.32 697.30,119.09 700.25,119.02 703.20,118.82 706.14,118.54 709.08,118.45 712.03,118.91 714.97,119.23 717.92,119.49 720.87,119.60 723.81,121.19 726.76,122.69 729.70,124.14 732.64,125.54 735.59,127.85 738.54,130.45 741.48,133.12 744.43,135.80 747.38,139.00 750.31,142.82 753.26,147.00 756.21,151.12 759.15,155.73 762.10,161.00 765.05,166.21 767.99,171.35 770.93,176.46 773.88,181.86 776.83,187.62 779.77,193.26 782.72,199.07 785.67,204.85 788.61,210.56 791.55,216.12 794.50,221.69 797.44,227.20 800.39,232.84 803.34,238.33 806.28,243.60 809.23,248.74 812.17,254.43 815.11,259.96 818.06,265.33 821.01,270.54 823.95,276.21 826.90,282.01 829.85,287.75 832.79,293.35 835.73,299.25 838.68,305.58 841.63,311.85 844.57,318.00 847.52,324.29 850.47,331.09 853.41,337.68 856.35,344.06 859.30,350.28 862.24,356.43 865.19,362.35 868.14,367.95 871.08,373.11 874.03,377.54 876.97,381.29 879.91,384.75 882.86,387.81 885.81,390.16 888.75,391.38 891.70,392.40 894.65,393.20 897.58,393.83 900.53,393.48 903.48,393.16 906.43,392.88 909.37,392.65 912.32,392.08 915.27,391.55 918.20,391.36 921.15,391.38 924.10,391.64 927.04,392.17 929.99,394.20 932.94,396.52 935.88,399.52 938.82,403.07 941.77,406.89 944.71,410.99 947.66,415.30 950.61,420.30 953.55,426.01 956.50,431.82 959.44,439.05 962.38,446.55 965.33,454.19 968.28,461.73 971.22,469.28 974.17,476.78 977.12,484.43 980.06,491.82 983.00,498.94 985.95,505.79 988.90,514.33 991.84,522.39 994.79,530.00 997.74,537.14 1000.68,544.87 1003.62,552.75 1006.57,561.08 1009.51,569.24 1012.46,577.52 1015.41,586.04 1018.35,595.64 1021.30,604.99 1024.24,614.52 1027.18,621.66 1030.13,628.08 1033.08,633.81 1036.02,638.93 1038.97,642.87 1041.92,646.78 1044.86,650.04 1047.80,652.33 1050.75,654.22 1053.70,655.73 1056.64,656.90 1059.59,657.62 1062.54,658.13 1065.47,658.46 1068.42,658.70 1071.37,658.88 1074.31,659.03" fill="none" stroke="#000000" stroke-width="3"/>
<line x1="142" y1="100" x2="178" y2="100" stroke="#000000" stroke-width="4"/>
<text x="188" y="105" font-family="Arial" font-size="18" fill="black">alphat</text>
</svg>