<svg xmlns="http://www.w3.org/2000/svg" width="1200" height="820" viewBox="0 0 1200 820">
<rect width="100%" height="100%" fill="white"/>
<text x="600.0" y="36" text-anchor="middle" font-family="Arial" font-size="24" fill="black">profile_center_z: U:2</text>
<line x1="120.00" y1="75" x2="120.00" y2="705" stroke="#dddddd" stroke-width="1"/>
<text x="120.00" y="737" text-anchor="middle" font-family="Arial" font-size="16" fill="black">-0.240</text>
<line x1="376.25" y1="75" x2="376.25" y2="705" stroke="#dddddd" stroke-width="1"/>
<text x="376.25" y="737" text-anchor="middle" font-family="Arial" font-size="16" fill="black">0.630</text>
<line x1="632.50" y1="75" x2="632.50" y2="705" stroke="#dddddd" stroke-width="1"/>
<text x="632.50" y="737" text-anchor="middle" font-family="Arial" font-size="16" fill="black">1.500</text>
<line x1="888.75" y1="75" x2="888.75" y2="705" stroke="#dddddd" stroke-width="1"/>
<text x="888.75" y="737" text-anchor="middle" font-family="Arial" font-size="16" fill="black">2.370</text>
<line x1="1145.00" y1="75" x2="1145.00" y2="705" stroke="#dddddd" stroke-width="1"/>
<text x="1145.00" y="737" text-anchor="middle" font-family="Arial" font-size="16" fill="black">3.240</text>
<line x1="120" y1="705.00" x2="1145" y2="705.00" stroke="#dddddd" stroke-width="1"/>
<text x="104" y="710.00" text-anchor="end" font-family="Arial" font-size="16" fill="black">-0.106</text>
<line x1="120" y1="547.50" x2="1145" y2="547.50" stroke="#dddddd" stroke-width="1"/>
<text x="104" y="552.50" text-anchor="end" font-family="Arial" font-size="16" fill="black">0.051</text>
<line x1="120" y1="390.00" x2="1145" y2="390.00" stroke="#dddddd" stroke-width="1"/>
<text x="104" y="395.00" text-anchor="end" font-family="Arial" font-size="16" fill="black">0.209</text>
<line x1="120" y1="232.50" x2="1145" y2="232.50" stroke="#dddddd" stroke-width="1"/>
<text x="104" y="237.50" text-anchor="end" font-family="Arial" font-size="16" fill="black">0.367</text>
<line x1="120" y1="75.00" x2="1145" y2="75.00" stroke="#dddddd" stroke-width="1"/>
<text x="104" y="80.00" text-anchor="end" font-family="Arial" font-size="16" fill="black">0.525</text>
<rect x="120" y="75" width="1025" height="630" fill="none" stroke="black" stroke-width="2"/>
<text x="632.5" y="785" text-anchor="middle" font-family="Arial" font-size="20" fill="black">z coordinate [m]</text>
<text x="34" y="390.0" transform="rotate(-90 34 390.0)" text-anchor="middle" font-family="Arial" font-size="20" fill="black">U:2 [SI]</text>
<polyline points="190.69,118.45 193.64,121.57 196.58,124.71 199.53,127.83 202.47,130.96 205.42,134.10 208.36,137.22 211.31,140.36 214.25,143.48 217.20,146.61 220.14,149.74 223.09,157.87 226.03,166.01 228.98,174.14 231.93,182.27 234.87,190.40 237.82,198.53 240.76,206.67 243.71,214.80 246.65,222.94 249.60,231.07 252.54,242.26 255.49,253.46 258.43,264.66 261.38,275.84 264.32,287.04 267.27,298.24 270.22,309.44 273.16,320.63 276.11,331.83 279.05,343.02 282.00,356.77 284.94,370.51 287.89,384.24 290.83,397.99 293.78,411.73 296.72,425.47 299.67,439.22 302.61,452.96 305.56,466.70 308.51,480.44 311.45,492.70 314.40,504.95 317.34,517.20 320.29,529.45 323.23,541.71 326.18,553.96 329.12,566.21 332.07,578.46 335.01,590.72 337.96,602.97 340.91,608.38 343.85,613.79 346.80,619.21 349.74,624.62 352.69,630.03 355.63,635.45 358.58,640.86 361.52,646.27 364.47,651.68 367.41,657.10 370.36,657.54 373.30,657.99 376.25,658.43 379.20,658.88 382.14,659.33 385.09,659.77 388.03,660.22 390.98,660.66 393.92,661.11 396.87,661.55 399.81,660.25 402.76,658.95 405.70,657.64 408.65,656.34 411.59,655.04 414.54,653.74 417.49,652.43 420.43,651.13 423.38,649.83 426.32,648.52 429.27,646.21 432.21,643.90 435.16,641.58 438.10,639.27 441.05,636.96 443.99,634.64 446.94,632.33 449.89,630.02 452.83,627.70 455.78,625.39 458.72,622.83 461.67,620.28 464.61,617.72 467.56,615.17 470.50,612.61 473.45,610.06 476.39,607.50 479.34,604.95 482.28,602.39 485.23,599.84 488.18,597.41 491.12,594.98 494.07,592.55 497.01,590.13 499.96,587.70 502.90,585.27 505.85,582.84 508.79,580.41 511.74,577.99 514.68,575.56 517.63,573.43 520.57,571.30 523.52,569.17 526.47,567.03 529.41,564.90 532.36,562.77 535.30,560.64 538.25,558.51 541.19,556.38 544.14,554.25 547.08,552.45 550.03,550.66 552.97,548.87 555.92,547.07 558.86,545.28 561.81,543.49 564.76,541.69 567.70,539.90 570.65,538.11 573.59,536.31 576.54,534.85 579.48,533.38 582.43,531.92 585.37,530.46 588.32,528.99 591.26,527.53 594.21,526.06 597.16,524.60 600.10,523.13 603.05,521.67 605.99,520.48 608.94,519.30 611.88,518.11 614.83,516.92 617.77,515.74 620.72,514.55 623.66,513.37 626.61,512.18 629.55,511.00 632.50,509.81 635.45,508.83 638.39,507.85 641.34,506.86 644.28,505.88 647.23,504.90 650.17,503.92 653.12,502.94 656.06,501.95 659.01,500.97 661.95,499.99 664.90,499.13 667.84,498.27 670.79,497.43 673.74,496.57 676.68,495.71 679.63,494.85 682.57,494.00 685.52,493.14 688.46,492.29 691.41,491.44 694.35,490.65 697.30,489.86 700.24,489.07 703.19,488.28 706.14,487.50 709.08,486.71 712.03,485.92 714.97,485.13 717.92,484.34 720.86,483.55 723.81,482.80 726.75,482.05 729.70,481.30 732.64,480.55 735.59,479.79 738.53,479.04 741.48,478.29 744.43,477.53 747.37,476.79 750.32,476.04 753.26,475.33 756.21,474.61 759.15,473.90 762.10,473.19 765.04,472.48 767.99,471.78 770.93,471.07 773.88,470.36 776.82,469.65 779.77,468.94 782.72,468.31 785.66,467.68 788.61,467.06 791.55,466.44 794.50,465.81 797.44,465.19 800.39,464.56 803.33,463.93 806.28,463.30 809.22,462.68 812.17,462.21 815.11,461.73 818.06,461.27 821.01,460.80 823.95,460.33 826.90,459.85 829.84,459.38 832.79,458.91 835.73,458.44 838.68,457.97 841.62,457.73 844.57,457.50 847.51,457.27 850.46,457.04 853.41,456.80 856.35,456.57 859.30,456.35 862.24,456.12 865.19,455.88 868.13,455.65 871.08,455.74 874.02,455.83 876.97,455.92 879.91,456.01 882.86,456.09 885.80,456.18 888.75,456.27 891.70,456.36 894.64,456.45 897.59,456.53 900.53,457.00 903.48,457.48 906.42,457.95 909.37,458.43 912.31,458.90 915.26,459.38 918.20,459.85 921.15,460.32 924.09,460.80 927.04,461.27 929.99,462.19 932.93,463.11 935.88,464.03 938.82,464.96 941.77,465.88 944.71,466.80 947.66,467.71 950.60,468.64 953.55,469.56 956.49,470.48 959.44,471.89 962.39,473.28 965.33,474.69 968.28,476.09 971.22,477.49 974.17,478.89 977.11,480.30 980.06,481.70 983.00,483.10 985.95,484.50 988.89,486.89 991.84,489.26 994.78,491.65 997.73,494.02 1000.68,496.40 1003.62,498.78 1006.57,501.16 1009.51,503.54 1012.46,505.92 1015.40,508.30 1018.35,510.86 1021.29,513.43 1024.24,515.99 1027.18,518.55 1030.13,521.12 1033.07,523.68 1036.02,526.25 1038.97,528.81 1041.91,531.37 1044.86,533.94 1047.80,534.94 1050.75,535.95 1053.69,536.95 1056.64,537.96 1059.58,538.96 1062.53,539.97 1065.47,540.97 1068.42,541.98 1071.36,542.99 1074.31,543.99" fill="none" stroke="#000000" stroke-width="3"/>
<line x1="142" y1="100" x2="178" y2="100" stroke="#000000" stroke-width="4"/>
<text x="188" y="105" font-family="Arial" font-size="18" fill="black">U:2</text>
</svg>