<svg xmlns="http://www.w3.org/2000/svg" width="1200" height="820" viewBox="0 0 1200 820">
<rect width="100%" height="100%" fill="white"/>
<text x="600.0" y="36" text-anchor="middle" font-family="Arial" font-size="24" fill="black">profile_center_z: Q</text>
<line x1="120.00" y1="75" x2="120.00" y2="705" stroke="#dddddd" stroke-width="1"/>
<text x="120.00" y="737" text-anchor="middle" font-family="Arial" font-size="16" fill="black">-0.240</text>
<line x1="376.25" y1="75" x2="376.25" y2="705" stroke="#dddddd" stroke-width="1"/>
<text x="376.25" y="737" text-anchor="middle" font-family="Arial" font-size="16" fill="black">0.630</text>
<line x1="632.50" y1="75" x2="632.50" y2="705" stroke="#dddddd" stroke-width="1"/>
<text x="632.50" y="737" text-anchor="middle" font-family="Arial" font-size="16" fill="black">1.500</text>
<line x1="888.75" y1="75" x2="888.75" y2="705" stroke="#dddddd" stroke-width="1"/>
<text x="888.75" y="737" text-anchor="middle" font-family="Arial" font-size="16" fill="black">2.370</text>
<line x1="1145.00" y1="75" x2="1145.00" y2="705" stroke="#dddddd" stroke-width="1"/>
<text x="1145.00" y="737" text-anchor="middle" font-family="Arial" font-size="16" fill="black">3.240</text>
<line x1="120" y1="705.00" x2="1145" y2="705.00" stroke="#dddddd" stroke-width="1"/>
<text x="104" y="710.00" text-anchor="end" font-family="Arial" font-size="16" fill="black">-1.414</text>
<line x1="120" y1="547.50" x2="1145" y2="547.50" stroke="#dddddd" stroke-width="1"/>
<text x="104" y="552.50" text-anchor="end" font-family="Arial" font-size="16" fill="black">-0.999</text>
<line x1="120" y1="390.00" x2="1145" y2="390.00" stroke="#dddddd" stroke-width="1"/>
<text x="104" y="395.00" text-anchor="end" font-family="Arial" font-size="16" fill="black">-0.583</text>
<line x1="120" y1="232.50" x2="1145" y2="232.50" stroke="#dddddd" stroke-width="1"/>
<text x="104" y="237.50" text-anchor="end" font-family="Arial" font-size="16" fill="black">-0.168</text>
<line x1="120" y1="75.00" x2="1145" y2="75.00" stroke="#dddddd" stroke-width="1"/>
<text x="104" y="80.00" text-anchor="end" font-family="Arial" font-size="16" fill="black">0.247</text>
<rect x="120" y="75" width="1025" height="630" fill="none" stroke="black" stroke-width="2"/>
<text x="632.5" y="785" text-anchor="middle" font-family="Arial" font-size="20" fill="black">z coordinate [m]</text>
<text x="34" y="390.0" transform="rotate(-90 34 390.0)" text-anchor="middle" font-family="Arial" font-size="20" fill="black">Q [SI]</text>
<polyline points="190.69,222.61 193.64,230.49 196.58,238.36 199.53,246.23 202.47,254.10 205.42,261.98 208.36,269.85 211.31,277.72 214.25,285.59 217.20,293.47 220.14,301.34 223.09,317.46 226.03,333.58 228.98,349.69 231.93,365.82 234.87,381.93 237.82,398.05 240.76,414.17 243.71,430.29 246.65,446.40 249.60,462.52 252.54,479.32 255.49,496.12 258.43,512.92 261.38,529.71 264.32,546.51 267.27,563.31 270.22,580.11 273.16,596.92 276.11,613.72 279.05,630.52 282.00,633.60 284.94,636.71 287.89,639.82 290.83,642.93 293.78,646.04 296.72,649.11 299.67,652.22 302.61,655.33 305.56,658.44 308.51,661.55 311.45,636.48 314.40,611.41 317.34,586.37 320.29,561.30 323.23,536.25 326.18,511.19 329.12,486.13 332.07,461.07 335.01,436.01 337.96,410.95 340.91,389.18 343.85,367.40 346.80,345.63 349.74,323.86 352.69,302.08 355.63,280.31 358.58,258.53 361.52,236.76 364.47,214.99 367.41,193.21 370.36,191.27 373.30,189.33 376.25,187.40 379.20,185.46 382.14,183.52 385.09,181.58 388.03,179.64 390.98,177.70 393.92,175.76 396.87,173.82 399.81,174.76 402.76,175.69 405.70,176.63 408.65,177.56 411.59,178.50 414.54,179.44 417.49,180.37 420.43,181.31 423.38,182.24 426.32,183.18 429.27,184.24 432.21,185.30 435.16,186.37 438.10,187.43 441.05,188.49 443.99,189.55 446.94,190.62 449.89,191.68 452.83,192.74 455.78,193.80 458.72,194.17 461.67,194.54 464.61,194.91 467.56,195.28 470.50,195.65 473.45,196.01 476.39,196.38 479.34,196.75 482.28,197.12 485.23,197.49 488.18,197.29 491.12,197.09 494.07,196.89 497.01,196.68 499.96,196.48 502.90,196.28 505.85,196.08 508.79,195.88 511.74,195.68 514.68,195.48 517.63,194.94 520.57,194.40 523.52,193.87 526.47,193.33 529.41,192.79 532.36,192.25 535.30,191.71 538.25,191.17 541.19,190.64 544.14,190.10 547.08,189.43 550.03,188.77 552.97,188.11 555.92,187.45 558.86,186.78 561.81,186.12 564.76,185.46 567.70,184.80 570.65,184.13 573.59,183.47 576.54,182.84 579.48,182.20 582.43,181.57 585.37,180.93 588.32,180.30 591.26,179.66 594.21,179.02 597.16,178.39 600.10,177.75 603.05,177.12 605.99,176.62 608.94,176.11 611.88,175.61 614.83,175.11 617.77,174.60 620.72,174.10 623.66,173.59 626.61,173.09 629.55,172.59 632.50,172.08 635.45,171.77 638.39,171.45 641.34,171.14 644.28,170.82 647.23,170.51 650.17,170.19 653.12,169.88 656.06,169.56 659.01,169.25 661.95,168.93 664.90,168.81 667.84,168.69 670.79,168.58 673.74,168.46 676.68,168.34 679.63,168.22 682.57,168.10 685.52,167.98 688.46,167.87 691.41,167.75 694.35,167.78 697.30,167.82 700.24,167.85 703.19,167.89 706.14,167.92 709.08,167.96 712.03,167.99 714.97,168.02 717.92,168.06 720.86,168.09 723.81,168.20 726.75,168.30 729.70,168.40 732.64,168.50 735.59,168.60 738.53,168.71 741.48,168.81 744.43,168.91 747.37,169.01 750.32,169.11 753.26,169.18 756.21,169.25 759.15,169.32 762.10,169.39 765.04,169.46 767.99,169.52 770.93,169.59 773.88,169.66 776.82,169.73 779.77,169.80 782.72,169.74 785.66,169.69 788.61,169.63 791.55,169.57 794.50,169.52 797.44,169.46 800.39,169.41 803.33,169.35 806.28,169.29 809.22,169.24 812.17,169.00 815.11,168.76 818.06,168.52 821.01,168.28 823.95,168.04 826.90,167.80 829.84,167.55 832.79,167.31 835.73,167.07 838.68,166.83 841.62,166.34 844.57,165.84 847.51,165.35 850.46,164.86 853.41,164.36 856.35,163.87 859.30,163.37 862.24,162.88 865.19,162.39 868.13,161.89 871.08,161.09 874.02,160.29 876.97,159.50 879.91,158.70 882.86,157.90 885.80,157.10 888.75,156.30 891.70,155.51 894.64,154.71 897.59,153.91 900.53,152.79 903.48,151.66 906.42,150.54 909.37,149.42 912.31,148.29 915.26,147.17 918.20,146.05 921.15,144.93 924.09,143.80 927.04,142.68 929.99,141.30 932.93,139.91 935.88,138.53 938.82,137.14 941.77,135.76 944.71,134.38 947.66,132.99 950.60,131.61 953.55,130.23 956.49,128.84 959.44,127.80 962.39,126.76 965.33,125.72 968.28,124.68 971.22,123.64 974.17,122.61 977.11,121.57 980.06,120.53 983.00,119.49 985.95,118.45 988.89,118.57 991.84,118.69 994.78,118.82 997.73,118.94 1000.68,119.06 1003.62,119.18 1006.57,119.31 1009.51,119.43 1012.46,119.55 1015.40,119.67 1018.35,127.65 1021.29,135.64 1024.24,143.63 1027.18,151.61 1030.13,159.60 1033.07,167.58 1036.02,175.57 1038.97,183.55 1041.91,191.54 1044.86,199.52 1047.80,207.08 1050.75,214.65 1053.69,222.20 1056.64,229.76 1059.58,237.32 1062.53,244.88 1065.47,252.44 1068.42,260.00 1071.36,267.57 1074.31,275.13" fill="none" stroke="#000000" stroke-width="3"/>
<line x1="142" y1="100" x2="178" y2="100" stroke="#000000" stroke-width="4"/>
<text x="188" y="105" font-family="Arial" font-size="18" fill="black">Q</text>
</svg>