<svg xmlns="http://www.w3.org/2000/svg" width="1200" height="820" viewBox="0 0 1200 820">
<rect width="100%" height="100%" fill="white"/>
<text x="600.0" y="36" text-anchor="middle" font-family="Arial" font-size="24" fill="black">profile_near_floor_x: k</text>
<line x1="120.00" y1="75" x2="120.00" y2="705" stroke="#dddddd" stroke-width="1"/>
<text x="120.00" y="737" text-anchor="middle" font-family="Arial" font-size="16" fill="black">-0.560</text>
<line x1="376.25" y1="75" x2="376.25" y2="705" stroke="#dddddd" stroke-width="1"/>
<text x="376.25" y="737" text-anchor="middle" font-family="Arial" font-size="16" fill="black">1.470</text>
<line x1="632.50" y1="75" x2="632.50" y2="705" stroke="#dddddd" stroke-width="1"/>
<text x="632.50" y="737" text-anchor="middle" font-family="Arial" font-size="16" fill="black">3.500</text>
<line x1="888.75" y1="75" x2="888.75" y2="705" stroke="#dddddd" stroke-width="1"/>
<text x="888.75" y="737" text-anchor="middle" font-family="Arial" font-size="16" fill="black">5.530</text>
<line x1="1145.00" y1="75" x2="1145.00" y2="705" stroke="#dddddd" stroke-width="1"/>
<text x="1145.00" y="737" text-anchor="middle" font-family="Arial" font-size="16" fill="black">7.560</text>
<line x1="120" y1="705.00" x2="1145" y2="705.00" stroke="#dddddd" stroke-width="1"/>
<text x="104" y="710.00" text-anchor="end" font-family="Arial" font-size="16" fill="black">-4.24e-04</text>
<line x1="120" y1="547.50" x2="1145" y2="547.50" stroke="#dddddd" stroke-width="1"/>
<text x="104" y="552.50" text-anchor="end" font-family="Arial" font-size="16" fill="black">0.005</text>
<line x1="120" y1="390.00" x2="1145" y2="390.00" stroke="#dddddd" stroke-width="1"/>
<text x="104" y="395.00" text-anchor="end" font-family="Arial" font-size="16" fill="black">0.011</text>
<line x1="120" y1="232.50" x2="1145" y2="232.50" stroke="#dddddd" stroke-width="1"/>
<text x="104" y="237.50" text-anchor="end" font-family="Arial" font-size="16" fill="black">0.016</text>
<line x1="120" y1="75.00" x2="1145" y2="75.00" stroke="#dddddd" stroke-width="1"/>
<text x="104" y="80.00" text-anchor="end" font-family="Arial" font-size="16" fill="black">0.022</text>
<rect x="120" y="75" width="1025" height="630" fill="none" stroke="black" stroke-width="2"/>
<text x="632.5" y="785" text-anchor="middle" font-family="Arial" font-size="20" fill="black">x coordinate [m]</text>
<text x="34" y="390.0" transform="rotate(-90 34 390.0)" text-anchor="middle" font-family="Arial" font-size="20" fill="black">k [m2/s2]</text>
<polyline points="190.69,564.40 193.64,558.68 196.58,552.97 199.53,547.26 202.47,541.55 205.42,532.29 208.36,521.62 211.31,510.94 214.25,500.27 217.20,490.38 220.14,481.53 223.09,472.68 226.03,463.83 228.98,455.30 231.93,448.73 234.87,442.15 237.82,435.57 240.76,428.99 243.71,424.75 246.65,420.90 249.60,417.04 252.54,413.19 255.49,411.26 258.43,410.77 261.38,410.28 264.32,409.79 267.27,410.36 270.22,413.57 273.16,416.79 276.11,420.00 279.05,423.22 282.00,428.80 284.94,434.37 287.89,439.95 290.83,445.53 293.78,449.14 296.72,451.95 299.67,454.77 302.62,457.58 305.56,458.39 308.51,456.51 311.45,454.62 314.40,452.74 317.34,451.07 320.29,450.64 323.23,450.21 326.17,449.78 329.13,449.35 332.07,450.86 335.01,452.69 337.96,454.52 340.91,456.35 343.85,457.60 346.80,458.40 349.74,459.21 352.68,460.01 355.64,460.63 358.58,460.77 361.52,460.93 364.47,461.08 367.41,461.23 370.35,460.72 373.31,460.20 376.25,459.69 379.19,459.18 382.15,457.32 385.09,454.94 388.03,452.55 390.98,450.16 393.92,445.50 396.86,437.81 399.82,430.12 402.76,422.42 405.70,413.23 408.65,395.07 411.59,376.88 414.54,358.72 417.49,340.53 420.43,315.60 423.37,289.52 426.33,263.45 429.27,237.37 432.21,214.69 435.16,194.56 438.10,174.41 441.04,154.29 444.00,138.46 446.94,133.48 449.88,128.47 452.83,123.46 455.78,118.45 458.72,125.17 461.67,131.86 464.61,138.54 467.55,145.26 470.51,155.42 473.45,167.01 476.39,178.57 479.34,190.15 482.28,199.94 485.23,207.34 488.18,214.77 491.12,222.20 494.06,228.21 497.02,225.82 499.96,223.43 502.90,221.01 505.85,218.62 508.79,213.24 511.73,207.34 514.69,201.45 517.63,195.56 520.57,191.77 523.52,189.52 526.47,187.28 529.41,185.03 532.36,185.03 535.30,190.66 538.24,196.30 541.20,201.94 544.14,207.57 547.08,225.70 550.03,243.84 552.97,261.97 555.92,280.10 558.87,301.65 561.81,324.56 564.75,347.48 567.71,370.39 570.65,388.81 573.59,401.25 576.54,413.69 579.48,426.13 582.42,437.35 585.38,441.32 588.32,445.30 591.26,449.27 594.21,453.24 597.16,455.88 600.10,458.30 603.05,460.73 605.99,463.15 608.93,464.69 611.89,465.56 614.83,466.43 617.77,467.30 620.72,468.02 623.66,468.38 626.60,468.73 629.56,469.08 632.50,469.44 635.44,469.40 638.40,469.36 641.34,469.33 644.28,469.29 647.23,468.83 650.17,468.22 653.11,467.60 656.07,466.97 659.01,465.81 661.95,463.91 664.90,462.02 667.84,460.13 670.79,458.41 673.74,457.75 676.68,457.10 679.62,456.44 682.58,455.78 685.52,454.69 688.46,453.54 691.41,452.38 694.35,451.22 697.29,446.87 700.25,440.12 703.19,433.37 706.13,426.62 709.08,420.05 712.03,413.93 714.97,407.82 717.92,401.70 720.86,395.58 723.80,396.46 726.76,397.32 729.70,398.20 732.64,399.05 735.59,403.89 738.53,410.32 741.48,416.74 744.43,423.16 747.37,430.97 750.31,440.62 753.27,450.28 756.21,459.94 759.15,469.45 762.10,478.06 765.04,486.67 767.98,495.28 770.94,503.89 773.88,504.43 776.82,503.61 779.77,502.80 782.72,501.99 785.66,497.82 788.61,491.14 791.55,484.46 794.49,477.78 797.45,472.47 800.39,470.61 803.33,468.74 806.28,466.87 809.22,465.00 812.17,468.75 815.12,472.49 818.06,476.24 821.00,479.98 823.96,482.07 826.90,483.49 829.84,484.92 832.79,486.34 835.73,485.52 838.67,481.70 841.63,477.88 844.57,474.06 847.51,470.61 850.46,469.32 853.41,468.03 856.35,466.74 859.30,465.45 862.24,466.41 865.18,467.75 868.14,469.09 871.08,470.42 874.02,471.26 876.97,471.73 879.91,472.19 882.85,472.65 885.81,473.00 888.75,473.06 891.69,473.12 894.65,473.18 897.59,473.24 900.53,473.05 903.48,472.86 906.42,472.67 909.36,472.48 912.32,472.09 915.26,471.63 918.20,471.18 921.15,470.72 924.09,470.06 927.04,469.14 929.99,468.22 932.93,467.29 935.87,466.87 938.83,469.47 941.77,472.06 944.71,474.65 947.66,477.24 950.60,483.68 953.54,490.76 956.50,497.84 959.44,504.92 962.38,509.42 965.33,511.99 968.28,514.56 971.22,517.13 974.17,518.05 977.11,514.87 980.05,511.68 983.01,508.50 985.95,505.31 988.89,502.58 991.84,499.85 994.78,497.12 997.73,494.39 1000.68,494.01 1003.62,494.56 1006.56,495.11 1009.52,495.66 1012.46,498.40 1015.40,504.04 1018.35,509.68 1021.29,515.32 1024.23,521.70 1027.19,532.49 1030.13,543.28 1033.07,554.07 1036.02,564.86 1038.97,576.15 1041.91,587.53 1044.86,598.90 1047.80,610.28 1050.74,619.62 1053.70,627.45 1056.64,635.27 1059.58,643.10 1062.53,649.54 1065.47,652.55 1068.42,655.55 1071.37,658.55 1074.31,661.55" fill="none" stroke="#000000" stroke-width="3"/>
<line x1="142" y1="100" x2="178" y2="100" stroke="#000000" stroke-width="4"/>
<text x="188" y="105" font-family="Arial" font-size="18" fill="black">k</text>
</svg>