<svg xmlns="http://www.w3.org/2000/svg" width="1200" height="820" viewBox="0 0 1200 820">
<rect width="100%" height="100%" fill="white"/>
<text x="600.0" y="36" text-anchor="middle" font-family="Arial" font-size="24" fill="black">profile_near_floor_x: nut</text>
<line x1="120.00" y1="75" x2="120.00" y2="705" stroke="#dddddd" stroke-width="1"/>
<text x="120.00" y="737" text-anchor="middle" font-family="Arial" font-size="16" fill="black">-0.560</text>
<line x1="376.25" y1="75" x2="376.25" y2="705" stroke="#dddddd" stroke-width="1"/>
<text x="376.25" y="737" text-anchor="middle" font-family="Arial" font-size="16" fill="black">1.470</text>
<line x1="632.50" y1="75" x2="632.50" y2="705" stroke="#dddddd" stroke-width="1"/>
<text x="632.50" y="737" text-anchor="middle" font-family="Arial" font-size="16" fill="black">3.500</text>
<line x1="888.75" y1="75" x2="888.75" y2="705" stroke="#dddddd" stroke-width="1"/>
<text x="888.75" y="737" text-anchor="middle" font-family="Arial" font-size="16" fill="black">5.530</text>
<line x1="1145.00" y1="75" x2="1145.00" y2="705" stroke="#dddddd" stroke-width="1"/>
<text x="1145.00" y="737" text-anchor="middle" font-family="Arial" font-size="16" fill="black">7.560</text>
<line x1="120" y1="705.00" x2="1145" y2="705.00" stroke="#dddddd" stroke-width="1"/>
<text x="104" y="710.00" text-anchor="end" font-family="Arial" font-size="16" fill="black">-6.18e-05</text>
<line x1="120" y1="547.50" x2="1145" y2="547.50" stroke="#dddddd" stroke-width="1"/>
<text x="104" y="552.50" text-anchor="end" font-family="Arial" font-size="16" fill="black">0.001</text>
<line x1="120" y1="390.00" x2="1145" y2="390.00" stroke="#dddddd" stroke-width="1"/>
<text x="104" y="395.00" text-anchor="end" font-family="Arial" font-size="16" fill="black">0.003</text>
<line x1="120" y1="232.50" x2="1145" y2="232.50" stroke="#dddddd" stroke-width="1"/>
<text x="104" y="237.50" text-anchor="end" font-family="Arial" font-size="16" fill="black">0.004</text>
<line x1="120" y1="75.00" x2="1145" y2="75.00" stroke="#dddddd" stroke-width="1"/>
<text x="104" y="80.00" text-anchor="end" font-family="Arial" font-size="16" fill="black">0.006</text>
<rect x="120" y="75" width="1025" height="630" fill="none" stroke="black" stroke-width="2"/>
<text x="632.5" y="785" text-anchor="middle" font-family="Arial" font-size="20" fill="black">x coordinate [m]</text>
<text x="34" y="390.0" transform="rotate(-90 34 390.0)" text-anchor="middle" font-family="Arial" font-size="20" fill="black">nut [m2/s]</text>
<polyline points="190.69,623.76 193.64,614.75 196.58,605.74 199.53,596.74 202.47,587.73 205.42,574.37 208.36,559.27 211.31,544.16 214.25,529.07 217.20,515.80 220.14,504.99 223.09,494.18 226.03,483.38 228.98,473.16 231.93,466.43 234.87,459.70 237.82,452.98 240.76,446.26 243.71,444.15 246.65,442.82 249.60,441.49 252.54,440.16 255.49,441.66 258.43,445.29 261.38,448.92 264.32,452.54 267.27,457.35 270.22,465.15 273.16,472.94 276.11,480.74 279.05,488.52 282.00,498.59 284.94,508.64 287.89,518.70 290.83,528.77 293.78,537.48 296.72,545.65 299.67,553.83 302.62,562.00 305.56,568.64 308.51,573.25 311.45,577.84 314.40,582.45 317.34,586.75 320.29,589.21 323.23,591.68 326.17,594.14 329.13,596.60 332.07,597.97 335.01,599.16 337.96,600.36 340.91,601.55 343.85,602.34 346.80,602.84 349.74,603.34 352.68,603.84 355.64,604.23 358.58,604.34 361.52,604.45 364.47,604.56 367.41,604.66 370.35,604.43 373.31,604.19 376.25,603.95 379.19,603.71 382.15,602.88 385.09,601.81 388.03,600.73 390.98,599.66 393.92,597.62 396.86,594.28 399.82,590.95 402.76,587.62 405.70,582.91 408.65,569.93 411.59,556.95 414.54,543.98 417.49,531.00 420.43,504.70 423.37,476.17 426.33,447.65 429.27,419.13 432.21,388.39 435.16,356.00 438.10,323.60 441.04,291.20 444.00,262.01 446.94,240.80 449.88,219.59 452.83,198.39 455.78,177.17 458.72,169.26 461.67,161.34 464.61,153.43 467.55,145.51 470.51,144.69 473.45,146.72 476.39,148.75 479.34,150.77 482.28,152.30 485.23,153.15 488.18,154.01 491.12,154.86 494.06,154.73 497.02,148.59 499.96,142.46 502.90,136.32 505.85,130.19 508.79,126.90 511.73,124.09 514.69,121.27 517.63,118.45 520.57,121.42 523.52,128.73 526.47,136.03 529.41,143.34 532.36,154.09 535.30,173.42 538.24,192.75 541.20,212.08 544.14,231.41 547.08,262.68 550.03,293.93 552.97,325.20 555.92,356.47 558.87,387.96 561.81,419.53 564.75,451.12 567.71,482.69 570.65,508.34 573.59,526.07 576.54,543.79 579.48,561.51 582.42,577.47 585.38,582.87 588.32,588.27 591.26,593.66 594.21,599.06 597.16,601.07 600.10,602.50 603.05,603.94 605.99,605.38 608.93,606.29 611.89,606.81 614.83,607.32 617.77,607.84 620.72,608.27 623.66,608.48 626.60,608.69 629.56,608.90 632.50,609.11 635.44,609.08 638.40,609.05 641.34,609.02 644.28,608.99 647.23,608.71 650.17,608.33 653.11,607.94 656.07,607.56 659.01,606.84 661.95,605.68 664.90,604.52 667.84,603.37 670.79,601.88 673.74,598.45 676.68,595.02 679.62,591.58 682.58,588.15 685.52,580.54 688.46,572.23 691.41,563.93 694.35,555.62 697.29,544.00 700.25,529.90 703.19,515.79 706.13,501.69 709.08,487.68 712.03,473.90 714.97,460.11 717.92,446.32 720.86,432.54 723.80,425.79 726.76,419.04 729.70,412.30 732.64,405.55 735.59,404.42 738.53,405.54 741.48,406.66 744.43,407.78 747.37,412.46 750.31,421.87 753.27,431.30 756.21,440.71 759.15,450.40 762.10,461.66 765.04,472.91 767.98,484.16 770.94,495.42 773.88,497.78 776.82,498.64 779.77,499.51 782.72,500.39 785.66,499.30 788.61,496.75 791.55,494.19 794.49,491.65 797.45,491.15 800.39,495.81 803.33,500.46 806.28,505.12 809.22,509.77 812.17,518.72 815.12,527.66 818.06,536.62 821.00,545.57 823.96,553.31 826.90,560.59 829.84,567.86 832.79,575.13 835.73,580.92 838.67,584.73 841.63,588.54 844.57,592.35 847.51,595.96 850.46,598.35 853.41,600.74 856.35,603.13 859.30,605.52 862.24,606.66 865.18,607.59 868.14,608.52 871.08,609.45 874.02,610.04 876.97,610.36 879.91,610.67 882.85,610.99 885.81,611.23 888.75,611.28 891.69,611.33 894.65,611.37 897.59,611.42 900.53,611.29 903.48,611.17 906.42,611.04 909.36,610.92 912.32,610.66 915.26,610.34 918.20,610.02 921.15,609.70 924.09,609.20 927.04,608.46 929.99,607.71 932.93,606.97 935.87,606.12 938.83,604.60 941.77,603.08 944.71,601.56 947.66,600.04 950.60,598.62 953.54,597.21 956.50,595.81 959.44,594.41 962.38,591.80 965.33,588.30 968.28,584.80 971.22,581.31 974.17,576.93 977.11,570.36 980.05,563.78 983.01,557.21 985.95,550.63 988.89,544.82 991.84,539.00 994.78,533.19 997.73,527.38 1000.68,523.74 1003.62,520.96 1006.56,518.18 1009.52,515.41 1012.46,514.92 1015.40,517.47 1018.35,520.02 1021.29,522.58 1024.23,526.05 1027.19,535.04 1030.13,544.02 1033.07,553.01 1036.02,562.00 1038.97,572.60 1041.91,583.46 1044.86,594.33 1047.80,605.19 1050.74,614.69 1053.70,623.15 1056.64,631.62 1059.58,640.09 1062.53,647.16 1065.47,650.76 1068.42,654.36 1071.37,657.95 1074.31,661.55" fill="none" stroke="#000000" stroke-width="3"/>
<line x1="142" y1="100" x2="178" y2="100" stroke="#000000" stroke-width="4"/>
<text x="188" y="105" font-family="Arial" font-size="18" fill="black">nut</text>
</svg>