<svg xmlns="http://www.w3.org/2000/svg" width="1200" height="820" viewBox="0 0 1200 820">
<rect width="100%" height="100%" fill="white"/>
<text x="600.0" y="36" text-anchor="middle" font-family="Arial" font-size="24" fill="black">profile_near_floor_x: U:2</text>
<line x1="120.00" y1="75" x2="120.00" y2="705" stroke="#dddddd" stroke-width="1"/>
<text x="120.00" y="737" text-anchor="middle" font-family="Arial" font-size="16" fill="black">-0.560</text>
<line x1="376.25" y1="75" x2="376.25" y2="705" stroke="#dddddd" stroke-width="1"/>
<text x="376.25" y="737" text-anchor="middle" font-family="Arial" font-size="16" fill="black">1.470</text>
<line x1="632.50" y1="75" x2="632.50" y2="705" stroke="#dddddd" stroke-width="1"/>
<text x="632.50" y="737" text-anchor="middle" font-family="Arial" font-size="16" fill="black">3.500</text>
<line x1="888.75" y1="75" x2="888.75" y2="705" stroke="#dddddd" stroke-width="1"/>
<text x="888.75" y="737" text-anchor="middle" font-family="Arial" font-size="16" fill="black">5.530</text>
<line x1="1145.00" y1="75" x2="1145.00" y2="705" stroke="#dddddd" stroke-width="1"/>
<text x="1145.00" y="737" text-anchor="middle" font-family="Arial" font-size="16" fill="black">7.560</text>
<line x1="120" y1="705.00" x2="1145" y2="705.00" stroke="#dddddd" stroke-width="1"/>
<text x="104" y="710.00" text-anchor="end" font-family="Arial" font-size="16" fill="black">-0.159</text>
<line x1="120" y1="547.50" x2="1145" y2="547.50" stroke="#dddddd" stroke-width="1"/>
<text x="104" y="552.50" text-anchor="end" font-family="Arial" font-size="16" fill="black">-0.005</text>
<line x1="120" y1="390.00" x2="1145" y2="390.00" stroke="#dddddd" stroke-width="1"/>
<text x="104" y="395.00" text-anchor="end" font-family="Arial" font-size="16" fill="black">0.150</text>
<line x1="120" y1="232.50" x2="1145" y2="232.50" stroke="#dddddd" stroke-width="1"/>
<text x="104" y="237.50" text-anchor="end" font-family="Arial" font-size="16" fill="black">0.305</text>
<line x1="120" y1="75.00" x2="1145" y2="75.00" stroke="#dddddd" stroke-width="1"/>
<text x="104" y="80.00" text-anchor="end" font-family="Arial" font-size="16" fill="black">0.460</text>
<rect x="120" y="75" width="1025" height="630" fill="none" stroke="black" stroke-width="2"/>
<text x="632.5" y="785" text-anchor="middle" font-family="Arial" font-size="20" fill="black">x coordinate [m]</text>
<text x="34" y="390.0" transform="rotate(-90 34 390.0)" text-anchor="middle" font-family="Arial" font-size="20" fill="black">U:2 [SI]</text>
<polyline points="190.69,377.79 193.64,383.47 196.58,389.15 199.53,394.82 202.47,400.50 205.42,409.55 208.36,419.96 211.31,430.37 214.25,440.78 217.20,450.73 220.14,460.05 223.09,469.38 226.03,478.71 228.98,488.02 231.93,497.26 234.87,506.51 237.82,515.75 240.76,524.99 243.71,533.92 246.65,542.81 249.60,551.69 252.54,560.57 255.49,568.51 258.43,575.73 261.38,582.95 264.32,590.18 267.27,596.22 270.22,599.31 273.16,602.40 276.11,605.49 279.05,608.59 282.00,602.49 284.94,596.40 287.89,590.31 290.83,584.22 293.78,565.97 296.72,542.85 299.67,519.74 302.62,496.63 305.56,466.35 308.51,426.54 311.45,386.72 314.40,346.90 317.34,308.59 320.29,279.25 323.23,249.92 326.17,220.59 329.13,191.26 332.07,179.83 335.01,171.39 337.96,162.95 340.91,154.51 343.85,149.37 346.80,146.73 349.74,144.08 352.68,141.44 355.64,139.38 358.58,138.76 361.52,138.14 364.47,137.52 367.41,136.89 370.35,137.53 373.31,138.17 376.25,138.81 379.19,139.45 382.15,141.74 385.09,144.70 388.03,147.66 390.98,150.63 393.92,156.52 396.86,166.31 399.82,176.12 402.76,185.91 405.70,199.46 408.65,235.53 411.59,271.59 414.54,307.66 417.49,343.73 420.43,391.38 423.37,440.97 426.33,490.54 429.27,540.12 432.21,574.79 435.16,598.27 438.10,621.76 441.04,645.24 444.00,661.55 446.94,659.91 449.88,658.26 452.83,656.62 455.78,654.99 458.72,644.42 461.67,633.85 464.61,623.29 467.55,612.72 470.51,601.04 473.45,588.90 476.39,576.77 479.34,564.63 482.28,555.57 485.23,550.62 488.18,545.67 491.12,540.72 494.06,537.32 497.02,543.22 499.96,549.13 502.90,555.04 505.85,560.95 508.79,569.99 511.73,579.56 514.69,589.13 517.63,598.70 520.57,607.15 523.52,614.78 526.47,622.40 529.41,630.03 532.36,636.51 535.30,640.13 538.24,643.75 541.20,647.36 544.14,650.99 547.08,645.22 550.03,639.46 552.97,633.71 555.92,627.95 558.87,605.74 561.81,576.96 564.75,548.18 567.71,519.40 570.65,483.04 573.59,436.57 576.54,390.11 579.48,343.64 582.42,299.53 585.38,269.55 588.32,239.58 591.26,209.60 594.21,179.63 597.16,168.49 600.10,160.51 603.05,152.52 605.99,144.53 608.93,139.61 611.89,137.02 614.83,134.41 617.77,131.81 620.72,129.71 623.66,128.85 626.60,127.99 629.56,127.13 632.50,126.27 635.44,126.64 638.40,127.01 641.34,127.39 644.28,127.76 647.23,129.45 650.17,131.68 653.11,133.92 656.07,136.15 659.01,140.65 661.95,148.19 664.90,155.74 667.84,163.27 670.79,174.06 673.74,204.33 676.68,234.60 679.62,264.87 682.58,295.14 685.52,339.11 688.46,385.34 691.41,431.58 694.35,477.82 697.29,513.10 700.25,540.16 703.19,567.23 706.13,594.29 709.08,614.61 712.03,618.05 714.97,621.49 717.92,624.94 720.86,628.38 723.80,621.92 726.76,615.46 729.70,608.99 732.64,602.53 735.59,593.25 738.53,582.84 741.48,572.43 744.43,562.01 747.37,551.10 750.31,539.50 753.27,527.90 756.21,516.31 759.15,505.37 762.10,498.38 765.04,491.38 767.98,484.39 770.94,477.39 773.88,481.63 776.82,487.75 779.77,493.87 782.72,499.98 785.66,510.92 788.61,525.46 791.55,540.01 794.49,554.56 797.45,568.07 800.39,578.99 803.33,589.90 806.28,600.82 809.22,611.73 812.17,611.07 815.12,610.42 818.06,609.76 821.00,609.11 823.96,589.81 826.90,563.07 829.84,536.33 832.79,509.58 835.73,473.89 838.67,426.27 841.63,378.63 844.57,331.01 847.51,285.82 850.46,255.22 853.41,224.63 856.35,194.03 859.30,163.44 862.24,153.09 865.18,146.12 868.14,139.13 871.08,132.16 874.02,127.99 876.97,125.91 879.91,123.83 882.85,121.76 885.81,120.16 888.75,119.73 891.69,119.30 894.65,118.88 897.59,118.45 900.53,119.05 903.48,119.64 906.42,120.24 909.36,120.83 912.32,122.50 915.26,124.59 918.20,126.67 921.15,128.77 924.09,132.88 927.04,139.71 929.99,146.54 932.93,153.38 935.87,163.07 938.83,189.98 941.77,216.90 944.71,243.82 947.66,270.74 950.60,312.40 953.54,356.53 956.50,400.66 959.44,444.80 962.38,480.23 965.33,509.15 968.28,538.07 971.22,566.99 974.17,589.55 977.11,596.20 980.05,602.84 983.01,609.49 985.95,616.14 988.89,613.30 991.84,610.47 994.78,607.63 997.73,604.80 1000.68,598.47 1003.62,590.74 1006.56,583.02 1009.52,575.30 1012.46,566.93 1015.40,557.70 1018.35,548.48 1021.29,539.26 1024.23,530.37 1027.19,523.50 1030.13,516.63 1033.07,509.76 1036.02,502.89 1038.97,501.23 1041.91,500.43 1044.86,499.64 1047.80,498.85 1050.74,502.40 1053.70,509.21 1056.64,516.01 1059.58,522.82 1062.53,529.19 1065.47,534.46 1068.42,539.73 1071.37,545.00 1074.31,550.26" fill="none" stroke="#000000" stroke-width="3"/>
<line x1="142" y1="100" x2="178" y2="100" stroke="#000000" stroke-width="4"/>
<text x="188" y="105" font-family="Arial" font-size="18" fill="black">U:2</text>
</svg>