<svg xmlns="http://www.w3.org/2000/svg" width="1200" height="820" viewBox="0 0 1200 820">
<rect width="100%" height="100%" fill="white"/>
<text x="600.0" y="36" text-anchor="middle" font-family="Arial" font-size="24" fill="black">profile_diagonal_supply_return: U:2</text>
<line x1="120.00" y1="75" x2="120.00" y2="705" stroke="#dddddd" stroke-width="1"/>
<text x="120.00" y="737" text-anchor="middle" font-family="Arial" font-size="16" fill="black">-0.729</text>
<line x1="376.25" y1="75" x2="376.25" y2="705" stroke="#dddddd" stroke-width="1"/>
<text x="376.25" y="737" text-anchor="middle" font-family="Arial" font-size="16" fill="black">1.913</text>
<line x1="632.50" y1="75" x2="632.50" y2="705" stroke="#dddddd" stroke-width="1"/>
<text x="632.50" y="737" text-anchor="middle" font-family="Arial" font-size="16" fill="black">4.555</text>
<line x1="888.75" y1="75" x2="888.75" y2="705" stroke="#dddddd" stroke-width="1"/>
<text x="888.75" y="737" text-anchor="middle" font-family="Arial" font-size="16" fill="black">7.197</text>
<line x1="1145.00" y1="75" x2="1145.00" y2="705" stroke="#dddddd" stroke-width="1"/>
<text x="1145.00" y="737" text-anchor="middle" font-family="Arial" font-size="16" fill="black">9.839</text>
<line x1="120" y1="705.00" x2="1145" y2="705.00" stroke="#dddddd" stroke-width="1"/>
<text x="104" y="710.00" text-anchor="end" font-family="Arial" font-size="16" fill="black">-0.102</text>
<line x1="120" y1="547.50" x2="1145" y2="547.50" stroke="#dddddd" stroke-width="1"/>
<text x="104" y="552.50" text-anchor="end" font-family="Arial" font-size="16" fill="black">0.012</text>
<line x1="120" y1="390.00" x2="1145" y2="390.00" stroke="#dddddd" stroke-width="1"/>
<text x="104" y="395.00" text-anchor="end" font-family="Arial" font-size="16" fill="black">0.127</text>
<line x1="120" y1="232.50" x2="1145" y2="232.50" stroke="#dddddd" stroke-width="1"/>
<text x="104" y="237.50" text-anchor="end" font-family="Arial" font-size="16" fill="black">0.242</text>
<line x1="120" y1="75.00" x2="1145" y2="75.00" stroke="#dddddd" stroke-width="1"/>
<text x="104" y="80.00" text-anchor="end" font-family="Arial" font-size="16" fill="black">0.356</text>
<rect x="120" y="75" width="1025" height="630" fill="none" stroke="black" stroke-width="2"/>
<text x="632.5" y="785" text-anchor="middle" font-family="Arial" font-size="20" fill="black">distance along sample line [m]</text>
<text x="34" y="390.0" transform="rotate(-90 34 390.0)" text-anchor="middle" font-family="Arial" font-size="20" fill="black">U:2 [SI]</text>
<polyline points="190.69,500.18 193.64,497.80 196.58,495.50 199.53,493.27 202.47,491.10 205.42,488.72 208.36,486.25 211.31,484.41 214.25,482.86 217.20,481.57 220.14,480.43 223.09,476.32 226.03,472.39 228.98,467.70 231.93,463.28 234.87,459.09 237.82,455.14 240.76,451.46 243.71,448.27 246.65,444.70 249.60,441.44 252.54,438.63 255.49,436.23 258.43,434.23 261.38,432.55 264.32,430.73 267.27,429.19 270.22,427.94 273.16,426.96 276.11,426.27 279.05,425.86 282.00,425.24 284.94,424.74 287.88,424.32 290.83,423.97 293.78,423.43 296.73,422.85 299.67,422.18 302.62,421.47 305.57,420.56 308.50,419.42 311.45,418.21 314.40,416.90 317.34,415.31 320.29,413.51 323.24,411.54 326.18,409.43 329.12,407.12 332.07,404.95 335.01,402.39 337.96,399.62 340.91,396.73 343.85,393.97 346.80,391.36 349.74,388.68 352.68,385.30 355.63,381.88 358.58,378.88 361.53,375.76 364.47,372.55 367.42,369.25 370.36,367.62 373.30,365.83 376.25,363.91 379.20,361.86 382.14,360.93 385.09,360.47 388.04,360.94 390.97,361.26 393.92,362.31 396.87,364.54 399.81,367.33 402.76,370.16 405.71,374.24 408.65,380.12 411.59,386.02 414.54,391.95 417.48,397.94 420.43,404.59 423.38,412.27 426.32,419.97 429.27,427.90 432.21,435.14 435.16,441.90 438.10,448.74 441.05,456.35 444.00,463.40 446.94,469.18 449.89,474.98 452.84,480.83 455.77,486.76 458.72,491.31 461.67,495.86 464.61,500.44 467.56,505.07 470.51,508.29 473.45,511.07 476.39,514.69 479.34,518.39 482.28,521.22 485.23,522.93 488.18,524.60 491.12,526.55 494.07,528.94 497.01,529.34 499.96,530.03 502.90,531.02 505.85,532.34 508.80,531.31 511.74,530.60 514.69,530.21 517.63,530.24 520.57,528.53 523.52,525.74 526.47,523.51 529.41,521.83 532.36,519.39 535.31,514.44 538.24,510.15 541.19,506.54 544.14,503.64 547.08,497.05 550.03,491.32 552.98,486.50 555.92,482.60 558.86,477.17 561.81,471.96 564.76,466.61 567.70,462.28 570.65,458.28 573.60,454.51 576.54,452.59 579.49,451.98 582.43,449.64 585.37,448.37 588.32,447.84 591.27,448.08 594.21,449.13 597.16,451.95 600.11,451.14 603.04,450.53 605.99,450.65 608.94,451.65 611.88,453.19 614.83,454.74 617.78,451.99 620.72,449.51 623.66,447.78 626.61,445.94 629.55,444.02 632.50,442.03 635.45,438.27 638.40,434.51 641.34,430.78 644.28,427.06 647.23,425.20 650.17,424.21 653.12,420.50 656.07,417.10 659.01,415.27 661.96,415.63 664.90,416.51 667.84,417.82 670.79,417.88 673.74,420.89 676.68,424.64 679.63,429.11 682.58,434.29 685.51,441.24 688.46,448.05 691.41,455.76 694.35,464.29 697.30,473.02 700.25,482.06 703.20,491.88 706.14,502.17 709.08,512.18 712.03,520.26 714.97,528.94 717.92,538.19 720.87,548.02 723.81,552.94 726.76,558.18 729.70,563.72 732.64,569.55 735.59,571.56 738.54,572.11 741.48,572.83 744.43,573.61 747.38,572.26 750.31,567.99 753.26,563.73 756.21,559.43 759.15,554.77 762.10,546.61 765.05,538.31 767.99,529.87 770.93,521.25 773.88,509.82 776.83,498.53 779.77,487.10 782.72,475.88 785.67,463.14 788.61,449.18 791.55,434.98 794.50,422.13 797.44,408.62 800.39,393.57 803.34,378.40 806.28,363.11 809.23,347.64 812.17,332.99 815.11,318.37 818.06,303.77 821.01,289.13 823.95,273.33 826.90,257.05 829.85,243.05 832.79,229.13 835.73,214.92 838.68,200.34 841.63,186.78 844.57,173.35 847.52,162.35 850.47,152.88 853.41,143.73 856.35,134.91 859.30,126.43 862.24,121.46 865.19,119.68 868.14,118.45 871.08,118.92 874.03,122.74 876.97,129.14 879.91,135.97 882.86,145.71 885.81,157.55 888.75,173.79 891.70,190.24 894.65,206.87 897.58,223.66 900.53,248.19 903.48,272.22 906.43,295.71 909.37,318.67 912.32,343.79 915.27,369.02 918.20,392.93 921.15,415.79 924.10,438.25 927.04,460.36 929.99,481.87 932.94,502.03 935.88,520.15 938.82,536.91 941.77,552.50 944.71,566.96 947.66,580.34 950.61,592.07 953.55,602.03 956.50,611.15 959.44,619.53 962.38,626.67 965.33,632.77 968.28,638.09 971.22,642.10 974.17,645.38 977.12,647.96 980.06,649.95 983.00,651.34 985.95,652.17 988.90,652.61 991.84,652.63 994.79,652.28 997.74,651.64 1000.68,651.95 1003.62,652.76 1006.57,654.01 1009.51,655.41 1012.46,657.09 1015.41,659.01 1018.35,658.91 1021.30,659.75 1024.24,661.55 1027.18,659.98 1030.13,658.41 1033.08,656.90 1036.02,655.49 1038.97,652.25 1041.92,647.67 1044.86,642.64 1047.80,640.08 1050.75,637.07 1053.70,633.77 1056.64,630.27 1059.59,626.75 1062.54,623.24 1065.47,619.92 1068.42,616.62 1071.37,613.34 1074.31,610.06" fill="none" stroke="#000000" stroke-width="3"/>
<line x1="142" y1="100" x2="178" y2="100" stroke="#000000" stroke-width="4"/>
<text x="188" y="105" font-family="Arial" font-size="18" fill="black">U:2</text>
</svg>