<svg xmlns="http://www.w3.org/2000/svg" width="1200" height="820" viewBox="0 0 1200 820">
<rect width="100%" height="100%" fill="white"/>
<text x="600.0" y="36" text-anchor="middle" font-family="Arial" font-size="24" fill="black">profile_near_floor_x: U:1</text>
<line x1="120.00" y1="75" x2="120.00" y2="705" stroke="#dddddd" stroke-width="1"/>
<text x="120.00" y="737" text-anchor="middle" font-family="Arial" font-size="16" fill="black">-0.560</text>
<line x1="376.25" y1="75" x2="376.25" y2="705" stroke="#dddddd" stroke-width="1"/>
<text x="376.25" y="737" text-anchor="middle" font-family="Arial" font-size="16" fill="black">1.470</text>
<line x1="632.50" y1="75" x2="632.50" y2="705" stroke="#dddddd" stroke-width="1"/>
<text x="632.50" y="737" text-anchor="middle" font-family="Arial" font-size="16" fill="black">3.500</text>
<line x1="888.75" y1="75" x2="888.75" y2="705" stroke="#dddddd" stroke-width="1"/>
<text x="888.75" y="737" text-anchor="middle" font-family="Arial" font-size="16" fill="black">5.530</text>
<line x1="1145.00" y1="75" x2="1145.00" y2="705" stroke="#dddddd" stroke-width="1"/>
<text x="1145.00" y="737" text-anchor="middle" font-family="Arial" font-size="16" fill="black">7.560</text>
<line x1="120" y1="705.00" x2="1145" y2="705.00" stroke="#dddddd" stroke-width="1"/>
<text x="104" y="710.00" text-anchor="end" font-family="Arial" font-size="16" fill="black">-0.401</text>
<line x1="120" y1="547.50" x2="1145" y2="547.50" stroke="#dddddd" stroke-width="1"/>
<text x="104" y="552.50" text-anchor="end" font-family="Arial" font-size="16" fill="black">-0.277</text>
<line x1="120" y1="390.00" x2="1145" y2="390.00" stroke="#dddddd" stroke-width="1"/>
<text x="104" y="395.00" text-anchor="end" font-family="Arial" font-size="16" fill="black">-0.153</text>
<line x1="120" y1="232.50" x2="1145" y2="232.50" stroke="#dddddd" stroke-width="1"/>
<text x="104" y="237.50" text-anchor="end" font-family="Arial" font-size="16" fill="black">-0.029</text>
<line x1="120" y1="75.00" x2="1145" y2="75.00" stroke="#dddddd" stroke-width="1"/>
<text x="104" y="80.00" text-anchor="end" font-family="Arial" font-size="16" fill="black">0.095</text>
<rect x="120" y="75" width="1025" height="630" fill="none" stroke="black" stroke-width="2"/>
<text x="632.5" y="785" text-anchor="middle" font-family="Arial" font-size="20" fill="black">x coordinate [m]</text>
<text x="34" y="390.0" transform="rotate(-90 34 390.0)" text-anchor="middle" font-family="Arial" font-size="20" fill="black">U:1 [SI]</text>
<polyline points="190.69,661.55 193.64,657.85 196.58,654.14 199.53,650.45 202.47,646.75 205.42,639.57 208.36,631.00 211.31,622.43 214.25,613.85 217.20,604.68 220.14,594.69 223.09,584.71 226.03,574.73 228.98,564.72 231.93,554.53 234.87,544.34 237.82,534.16 240.76,523.97 243.71,514.25 246.65,504.61 249.60,494.98 252.54,485.34 255.49,476.38 258.43,467.95 261.38,459.50 264.32,451.06 267.27,442.95 270.22,435.67 273.16,428.39 276.11,421.11 279.05,413.81 282.00,406.84 284.94,399.85 287.89,392.86 290.83,385.88 293.78,376.84 296.72,366.99 299.67,357.13 302.62,347.29 305.56,336.38 308.51,324.04 311.45,311.71 314.40,299.38 317.34,287.84 320.29,281.03 323.23,274.22 326.17,267.41 329.13,260.60 332.07,258.50 335.01,257.18 337.96,255.86 340.91,254.55 343.85,253.25 346.80,251.98 349.74,250.71 352.68,249.44 355.64,248.10 358.58,246.60 361.52,245.10 364.47,243.61 367.41,242.11 370.35,240.43 373.31,238.75 376.25,237.07 379.19,235.40 382.15,233.60 385.09,231.76 388.03,229.92 390.98,228.08 393.92,226.23 396.86,224.35 399.82,222.47 402.76,220.59 405.70,219.02 408.65,219.33 411.59,219.64 414.54,219.95 417.49,220.26 420.43,223.19 423.37,226.54 426.33,229.90 429.27,233.26 432.21,236.65 435.16,240.07 438.10,243.48 441.04,246.90 444.00,249.81 446.94,251.47 449.88,253.13 452.83,254.79 455.78,256.45 458.72,256.40 461.67,256.36 464.61,256.30 467.55,256.25 470.51,255.25 473.45,253.86 476.39,252.47 479.34,251.08 482.28,249.73 485.23,248.45 488.18,247.16 491.12,245.88 494.06,244.70 497.02,244.17 499.96,243.65 502.90,243.12 505.85,242.60 508.79,241.56 511.73,240.44 514.69,239.31 517.63,238.19 520.57,236.37 523.52,234.03 526.47,231.69 529.41,229.35 532.36,226.84 535.30,223.88 538.24,220.93 541.20,217.98 544.14,215.02 547.08,212.55 550.03,210.08 552.97,207.61 555.92,205.13 558.87,203.64 561.81,202.53 564.75,201.42 567.71,200.31 570.65,199.49 573.59,199.04 576.54,198.59 579.48,198.15 582.42,197.75 585.38,197.70 588.32,197.65 591.26,197.60 594.21,197.54 597.16,197.84 600.10,198.20 603.05,198.56 605.99,198.92 608.93,199.20 611.89,199.41 614.83,199.63 617.77,199.84 620.72,200.02 623.66,200.14 626.60,200.25 629.56,200.37 632.50,200.48 635.44,200.55 638.40,200.61 641.34,200.67 644.28,200.74 647.23,200.82 650.17,200.92 653.11,201.01 656.07,201.10 659.01,201.28 661.95,201.56 664.90,201.84 667.84,202.13 670.79,202.65 673.74,204.65 676.68,206.65 679.62,208.65 682.58,210.65 685.52,214.88 688.46,219.50 691.41,224.11 694.35,228.72 697.29,234.17 700.25,240.24 703.19,246.31 706.13,252.38 709.08,258.51 712.03,264.81 714.97,271.11 717.92,277.41 720.86,283.71 723.80,288.85 726.76,294.00 729.70,299.15 732.64,304.30 735.59,307.71 738.53,310.43 741.48,313.16 744.43,315.88 747.37,317.14 750.31,316.44 753.27,315.75 756.21,315.05 759.15,314.06 762.10,311.30 765.04,308.54 767.98,305.78 770.94,303.02 773.88,303.18 776.82,303.82 779.77,304.46 782.72,305.10 785.66,307.25 788.61,310.54 791.55,313.82 794.49,317.10 797.45,319.59 800.39,320.08 803.33,320.58 806.28,321.07 809.22,321.56 812.17,318.38 815.12,315.21 818.06,312.03 821.00,308.85 823.96,303.03 826.90,296.15 829.84,289.27 832.79,282.38 835.73,274.80 838.67,266.29 841.63,257.77 844.57,249.25 847.51,241.28 850.46,236.58 853.41,231.87 856.35,227.17 859.30,222.47 862.24,220.91 865.18,219.87 868.14,218.84 871.08,217.80 874.02,216.89 876.97,216.07 879.91,215.25 882.85,214.44 885.81,213.63 888.75,212.87 891.69,212.10 894.65,211.33 897.59,210.56 900.53,209.77 903.48,208.98 906.42,208.18 909.36,207.39 912.32,206.56 915.26,205.72 918.20,204.88 921.15,204.03 924.09,203.18 927.04,202.31 929.99,201.45 932.93,200.58 935.87,199.75 938.83,199.07 941.77,198.40 944.71,197.73 947.66,197.05 950.60,195.47 953.54,193.73 956.50,191.99 959.44,190.25 962.38,187.73 965.33,184.62 968.28,181.52 971.22,178.41 974.17,175.44 977.11,172.81 980.05,170.17 983.01,167.54 985.95,164.91 988.89,162.99 991.84,161.07 994.78,159.15 997.73,157.23 1000.68,155.18 1003.62,153.09 1006.56,151.00 1009.52,148.90 1012.46,146.52 1015.40,143.76 1018.35,141.00 1021.29,138.24 1024.23,135.44 1027.19,132.49 1030.13,129.53 1033.07,126.57 1036.02,123.61 1038.97,122.13 1041.91,120.90 1044.86,119.68 1047.80,118.45 1050.74,120.37 1053.70,124.66 1056.64,128.95 1059.58,133.24 1062.53,137.48 1065.47,141.61 1068.42,145.73 1071.37,149.86 1074.31,153.98" fill="none" stroke="#000000" stroke-width="3"/>
<line x1="142" y1="100" x2="178" y2="100" stroke="#000000" stroke-width="4"/>
<text x="188" y="105" font-family="Arial" font-size="18" fill="black">U:1</text>
</svg>