<svg xmlns="http://www.w3.org/2000/svg" width="1200" height="820" viewBox="0 0 1200 820">
<rect width="100%" height="100%" fill="white"/>
<text x="600.0" y="36" text-anchor="middle" font-family="Arial" font-size="24" fill="black">profile_near_floor_x: T</text>
<line x1="120.00" y1="75" x2="120.00" y2="705" stroke="#dddddd" stroke-width="1"/>
<text x="120.00" y="737" text-anchor="middle" font-family="Arial" font-size="16" fill="black">-0.560</text>
<line x1="376.25" y1="75" x2="376.25" y2="705" stroke="#dddddd" stroke-width="1"/>
<text x="376.25" y="737" text-anchor="middle" font-family="Arial" font-size="16" fill="black">1.470</text>
<line x1="632.50" y1="75" x2="632.50" y2="705" stroke="#dddddd" stroke-width="1"/>
<text x="632.50" y="737" text-anchor="middle" font-family="Arial" font-size="16" fill="black">3.500</text>
<line x1="888.75" y1="75" x2="888.75" y2="705" stroke="#dddddd" stroke-width="1"/>
<text x="888.75" y="737" text-anchor="middle" font-family="Arial" font-size="16" fill="black">5.530</text>
<line x1="1145.00" y1="75" x2="1145.00" y2="705" stroke="#dddddd" stroke-width="1"/>
<text x="1145.00" y="737" text-anchor="middle" font-family="Arial" font-size="16" fill="black">7.560</text>
<line x1="120" y1="705.00" x2="1145" y2="705.00" stroke="#dddddd" stroke-width="1"/>
<text x="104" y="710.00" text-anchor="end" font-family="Arial" font-size="16" fill="black">289.0</text>
<line x1="120" y1="547.50" x2="1145" y2="547.50" stroke="#dddddd" stroke-width="1"/>
<text x="104" y="552.50" text-anchor="end" font-family="Arial" font-size="16" fill="black">296.2</text>
<line x1="120" y1="390.00" x2="1145" y2="390.00" stroke="#dddddd" stroke-width="1"/>
<text x="104" y="395.00" text-anchor="end" font-family="Arial" font-size="16" fill="black">303.4</text>
<line x1="120" y1="232.50" x2="1145" y2="232.50" stroke="#dddddd" stroke-width="1"/>
<text x="104" y="237.50" text-anchor="end" font-family="Arial" font-size="16" fill="black">310.6</text>
<line x1="120" y1="75.00" x2="1145" y2="75.00" stroke="#dddddd" stroke-width="1"/>
<text x="104" y="80.00" text-anchor="end" font-family="Arial" font-size="16" fill="black">317.8</text>
<rect x="120" y="75" width="1025" height="630" fill="none" stroke="black" stroke-width="2"/>
<text x="632.5" y="785" text-anchor="middle" font-family="Arial" font-size="20" fill="black">x coordinate [m]</text>
<text x="34" y="390.0" transform="rotate(-90 34 390.0)" text-anchor="middle" font-family="Arial" font-size="20" fill="black">T [K]</text>
<polyline points="190.69,118.45 193.64,130.68 196.58,142.92 199.53,155.15 202.47,167.38 205.42,186.83 208.36,209.11 211.31,231.18 214.25,253.46 217.20,274.00 220.14,292.13 223.09,310.26 226.03,328.39 228.98,346.09 231.93,361.16 234.87,376.24 237.82,391.31 240.76,406.38 243.71,419.49 246.65,432.16 249.60,444.83 252.54,457.72 255.49,469.30 258.43,480.44 261.38,491.59 264.32,502.51 267.27,513.43 270.22,524.14 273.16,534.62 276.11,545.33 279.05,555.81 282.00,566.30 284.94,576.79 287.89,587.27 290.83,597.54 293.78,606.72 296.72,615.46 299.67,624.19 302.62,632.93 305.56,639.71 308.51,644.07 311.45,648.66 314.40,653.03 317.34,656.96 320.29,657.84 323.23,658.71 326.17,659.59 329.13,660.46 332.07,660.68 335.01,660.90 337.96,660.90 340.91,660.90 343.85,661.11 346.80,661.11 349.74,661.11 352.68,661.11 355.64,661.11 358.58,661.11 361.52,661.11 364.47,661.11 367.41,661.11 370.35,660.90 373.31,660.90 376.25,660.90 379.19,660.90 382.15,660.68 385.09,660.46 388.03,660.24 390.98,660.02 393.92,659.37 396.86,658.27 399.82,657.18 402.76,656.31 405.70,654.34 408.65,647.35 411.59,640.36 414.54,633.37 417.49,626.38 420.43,608.03 423.37,587.93 426.33,567.61 429.27,547.29 432.21,524.36 435.16,499.23 438.10,474.11 441.04,448.99 444.00,426.27 446.94,409.22 449.88,392.18 452.83,375.36 455.78,358.32 458.72,350.02 461.67,341.72 464.61,333.20 467.55,324.90 470.51,320.75 473.45,318.13 476.39,315.50 479.34,312.88 482.28,311.35 485.23,311.57 488.18,311.79 491.12,312.01 494.06,312.23 497.02,313.76 499.96,315.29 502.90,316.60 505.85,318.13 508.79,322.06 511.73,326.21 514.69,330.58 517.63,334.73 520.57,341.94 523.52,351.33 526.47,360.94 529.41,370.34 532.36,381.48 535.30,397.21 538.24,412.72 541.20,428.45 544.14,444.18 547.08,464.71 550.03,485.47 552.97,506.22 555.92,526.98 558.87,546.42 561.81,565.43 564.75,584.65 567.71,603.66 570.65,618.51 573.59,627.69 576.54,636.87 579.48,646.04 582.42,654.34 585.38,655.87 588.32,657.40 591.26,658.93 594.21,660.46 597.16,660.68 600.10,660.90 603.05,661.11 605.99,661.11 608.93,661.33 611.89,661.33 614.83,661.33 617.77,661.33 620.72,661.33 623.66,661.33 626.60,661.33 629.56,661.33 632.50,661.33 635.44,661.33 638.40,661.33 641.34,661.33 644.28,661.33 647.23,661.33 650.17,661.33 653.11,661.33 656.07,661.33 659.01,661.33 661.95,661.33 664.90,661.11 667.84,661.11 670.79,660.90 673.74,660.02 676.68,658.93 679.62,658.06 682.58,657.18 685.52,651.28 688.46,644.73 691.41,638.18 694.35,631.62 697.29,620.48 700.25,605.62 703.19,590.99 706.13,576.35 709.08,561.06 712.03,544.02 714.97,526.76 717.92,509.72 720.86,492.68 723.80,478.70 726.76,464.71 729.70,450.95 732.64,436.97 735.59,426.92 738.53,418.18 741.48,409.66 744.43,401.14 747.37,395.02 750.31,392.62 753.27,390.22 756.21,387.82 759.15,386.07 762.10,389.13 765.04,391.97 767.98,394.81 770.94,397.86 773.88,401.80 776.82,405.95 779.77,410.32 782.72,414.47 785.66,420.37 788.61,427.58 791.55,434.57 794.49,441.78 797.45,450.95 800.39,464.93 803.33,478.92 806.28,492.68 809.22,506.66 812.17,523.92 815.12,540.96 818.06,558.00 821.00,575.26 823.96,589.46 826.90,602.57 829.84,615.67 832.79,628.78 835.73,638.61 838.67,643.86 841.63,648.88 844.57,654.12 847.51,658.71 850.46,659.37 853.41,660.02 856.35,660.68 859.30,661.33 862.24,661.33 865.18,661.33 868.14,661.55 871.08,661.55 874.02,661.55 876.97,661.55 879.91,661.55 882.85,661.55 885.81,661.55 888.75,661.55 891.69,661.55 894.65,661.55 897.59,661.55 900.53,661.55 903.48,661.55 906.42,661.55 909.36,661.55 912.32,661.55 915.26,661.55 918.20,661.55 921.15,661.55 924.09,661.55 927.04,661.55 929.99,661.55 932.93,661.55 935.87,661.55 938.83,661.55 941.77,661.55 944.71,661.33 947.66,661.33 950.60,661.11 953.54,660.68 956.50,660.46 959.44,660.02 962.38,659.15 965.33,657.84 968.28,656.53 971.22,655.43 974.17,653.91 977.11,651.50 980.05,649.32 983.01,646.91 985.95,644.73 988.89,641.89 991.84,639.05 994.78,636.21 997.73,633.37 1000.68,630.09 1003.62,626.38 1006.56,622.88 1009.52,619.39 1012.46,615.46 1015.40,610.65 1018.35,606.06 1021.29,601.26 1024.23,596.23 1027.19,589.02 1030.13,582.03 1033.07,574.82 1036.02,567.83 1038.97,557.34 1041.91,546.42 1044.86,535.50 1047.80,524.79 1050.74,513.65 1053.70,502.73 1056.64,491.80 1059.58,480.66 1062.53,471.71 1065.47,467.12 1068.42,462.75 1071.37,458.16 1074.31,453.79" fill="none" stroke="#000000" stroke-width="3"/>
<line x1="142" y1="100" x2="178" y2="100" stroke="#000000" stroke-width="4"/>
<text x="188" y="105" font-family="Arial" font-size="18" fill="black">T</text>
</svg>