<svg xmlns="http://www.w3.org/2000/svg" width="1200" height="820" viewBox="0 0 1200 820">
<rect width="100%" height="100%" fill="white"/>
<text x="600.0" y="36" text-anchor="middle" font-family="Arial" font-size="24" fill="black">profile_center_z: alphat</text>
<line x1="120.00" y1="75" x2="120.00" y2="705" stroke="#dddddd" stroke-width="1"/>
<text x="120.00" y="737" text-anchor="middle" font-family="Arial" font-size="16" fill="black">-0.240</text>
<line x1="376.25" y1="75" x2="376.25" y2="705" stroke="#dddddd" stroke-width="1"/>
<text x="376.25" y="737" text-anchor="middle" font-family="Arial" font-size="16" fill="black">0.630</text>
<line x1="632.50" y1="75" x2="632.50" y2="705" stroke="#dddddd" stroke-width="1"/>
<text x="632.50" y="737" text-anchor="middle" font-family="Arial" font-size="16" fill="black">1.500</text>
<line x1="888.75" y1="75" x2="888.75" y2="705" stroke="#dddddd" stroke-width="1"/>
<text x="888.75" y="737" text-anchor="middle" font-family="Arial" font-size="16" fill="black">2.370</text>
<line x1="1145.00" y1="75" x2="1145.00" y2="705" stroke="#dddddd" stroke-width="1"/>
<text x="1145.00" y="737" text-anchor="middle" font-family="Arial" font-size="16" fill="black">3.240</text>
<line x1="120" y1="705.00" x2="1145" y2="705.00" stroke="#dddddd" stroke-width="1"/>
<text x="104" y="710.00" text-anchor="end" font-family="Arial" font-size="16" fill="black">-8.56e-04</text>
<line x1="120" y1="547.50" x2="1145" y2="547.50" stroke="#dddddd" stroke-width="1"/>
<text x="104" y="552.50" text-anchor="end" font-family="Arial" font-size="16" fill="black">0.006</text>
<line x1="120" y1="390.00" x2="1145" y2="390.00" stroke="#dddddd" stroke-width="1"/>
<text x="104" y="395.00" text-anchor="end" font-family="Arial" font-size="16" fill="black">0.013</text>
<line x1="120" y1="232.50" x2="1145" y2="232.50" stroke="#dddddd" stroke-width="1"/>
<text x="104" y="237.50" text-anchor="end" font-family="Arial" font-size="16" fill="black">0.019</text>
<line x1="120" y1="75.00" x2="1145" y2="75.00" stroke="#dddddd" stroke-width="1"/>
<text x="104" y="80.00" text-anchor="end" font-family="Arial" font-size="16" fill="black">0.026</text>
<rect x="120" y="75" width="1025" height="630" fill="none" stroke="black" stroke-width="2"/>
<text x="632.5" y="785" text-anchor="middle" font-family="Arial" font-size="20" fill="black">z coordinate [m]</text>
<text x="34" y="390.0" transform="rotate(-90 34 390.0)" text-anchor="middle" font-family="Arial" font-size="20" fill="black">alphat [SI]</text>
<polyline points="190.69,661.55 193.64,661.54 196.58,661.52 199.53,661.50 202.47,661.49 205.42,661.47 208.36,661.46 211.31,661.44 214.25,661.42 217.20,661.41 220.14,661.39 223.09,661.22 226.03,661.05 228.98,660.88 231.93,660.70 234.87,660.53 237.82,660.36 240.76,660.19 243.71,660.02 246.65,659.85 249.60,659.67 252.54,658.82 255.49,657.97 258.43,657.13 261.38,656.28 264.32,655.43 267.27,654.58 270.22,653.74 273.16,652.89 276.11,652.04 279.05,651.19 282.00,647.34 284.94,643.48 287.89,639.63 290.83,635.78 293.78,631.92 296.72,628.07 299.67,624.22 302.61,620.36 305.56,616.51 308.51,612.66 311.45,602.98 314.40,593.30 317.34,583.62 320.29,573.94 323.23,564.26 326.18,554.58 329.12,544.90 332.07,535.22 335.01,525.54 337.96,515.86 340.91,505.39 343.85,494.91 346.80,484.43 349.74,473.96 352.69,463.48 355.63,453.01 358.58,442.52 361.52,432.05 364.47,421.59 367.41,411.09 370.36,404.39 373.30,397.66 376.25,390.93 379.20,384.23 382.14,377.50 385.09,370.80 388.03,364.07 390.98,357.34 393.92,350.64 396.87,343.91 399.81,339.11 402.76,334.29 405.70,329.49 408.65,324.66 411.59,319.87 414.54,315.04 417.49,310.24 420.43,305.42 423.38,300.62 426.32,295.80 429.27,292.25 432.21,288.67 435.16,285.10 438.10,281.52 441.05,277.94 443.99,274.39 446.94,270.82 449.89,267.24 452.83,263.67 455.78,260.11 458.72,257.36 461.67,254.61 464.61,251.86 467.56,249.08 470.50,246.33 473.45,243.58 476.39,240.82 479.34,238.07 482.28,235.32 485.23,232.57 488.18,230.33 491.12,228.07 494.07,225.81 497.01,223.56 499.96,221.30 502.90,219.04 505.85,216.80 508.79,214.55 511.74,212.29 514.68,210.03 517.63,208.17 520.57,206.29 523.52,204.43 526.47,202.55 529.41,200.69 532.36,198.83 535.30,196.95 538.25,195.09 541.19,193.21 544.14,191.35 547.08,189.80 550.03,188.27 552.97,186.74 555.92,185.19 558.86,183.66 561.81,182.13 564.76,180.58 567.70,179.05 570.65,177.52 573.59,175.97 576.54,174.74 579.48,173.52 582.43,172.27 585.37,171.05 588.32,169.80 591.26,168.58 594.21,167.36 597.16,166.11 600.10,164.89 603.05,163.64 605.99,162.67 608.94,161.71 611.88,160.72 614.83,159.76 617.77,158.77 620.72,157.80 623.66,156.84 626.61,155.85 629.55,154.89 632.50,153.92 635.45,153.12 638.39,152.32 641.34,151.55 644.28,150.75 647.23,149.95 650.17,149.15 653.12,148.37 656.06,147.57 659.01,146.77 661.95,146.00 664.90,145.29 667.84,144.56 670.79,143.85 673.74,143.15 676.68,142.44 679.63,141.74 682.57,141.03 685.52,140.33 688.46,139.62 691.41,138.91 694.35,138.23 697.30,137.53 700.24,136.84 703.19,136.16 706.14,135.46 709.08,134.77 712.03,134.09 714.97,133.41 717.92,132.70 720.86,132.02 723.81,131.36 726.75,130.70 729.70,130.05 732.64,129.39 735.59,128.75 738.53,128.09 741.48,127.43 744.43,126.78 747.37,126.12 750.32,125.46 753.26,124.94 756.21,124.42 759.15,123.91 762.10,123.39 765.04,122.87 767.99,122.35 770.93,121.86 773.88,121.34 776.82,120.82 779.77,120.31 782.72,120.12 785.66,119.93 788.61,119.74 791.55,119.55 794.50,119.37 797.44,119.20 800.39,119.01 803.33,118.82 806.28,118.64 809.22,118.45 812.17,118.85 815.11,119.22 818.06,119.62 821.01,120.02 823.95,120.40 826.90,120.80 829.84,121.20 832.79,121.58 835.73,121.98 838.68,122.38 841.62,123.60 844.57,124.85 847.51,126.09 850.46,127.34 853.41,128.56 856.35,129.81 859.30,131.06 862.24,132.30 865.19,133.53 868.13,134.77 871.08,137.10 874.02,139.46 876.97,141.78 879.91,144.11 882.86,146.47 885.80,148.79 888.75,151.15 891.70,153.48 894.64,155.81 897.59,158.16 900.53,161.78 903.48,165.43 906.42,169.05 909.37,172.70 912.31,176.32 915.26,179.94 918.20,183.59 921.15,187.21 924.09,190.86 927.04,194.48 929.99,199.66 932.93,204.85 935.88,210.03 938.82,215.23 941.77,220.40 944.71,225.58 947.66,230.78 950.60,235.95 953.55,241.13 956.49,246.33 959.44,253.57 962.39,260.84 965.33,268.11 968.28,275.38 971.22,282.63 974.17,289.90 977.11,297.16 980.06,304.43 983.00,311.68 985.95,318.95 988.89,329.13 991.84,339.32 994.78,349.51 997.73,359.69 1000.68,369.88 1003.62,380.06 1006.57,390.23 1009.51,400.41 1012.46,410.60 1015.40,420.79 1018.35,434.81 1021.29,448.83 1024.24,462.85 1027.18,476.87 1030.13,490.88 1033.07,504.90 1036.02,518.92 1038.97,532.94 1041.91,546.96 1044.86,560.98 1047.80,569.06 1050.75,577.13 1053.69,585.21 1056.64,593.28 1059.58,601.36 1062.53,609.44 1065.47,617.51 1068.42,625.59 1071.36,633.67 1074.31,641.75" fill="none" stroke="#000000" stroke-width="3"/>
<line x1="142" y1="100" x2="178" y2="100" stroke="#000000" stroke-width="4"/>
<text x="188" y="105" font-family="Arial" font-size="18" fill="black">alphat</text>
</svg>