<svg xmlns="http://www.w3.org/2000/svg" width="1200" height="820" viewBox="0 0 1200 820">
<rect width="100%" height="100%" fill="white"/>
<text x="600.0" y="36" text-anchor="middle" font-family="Arial" font-size="24" fill="black">profile_center_z: p</text>
<line x1="120.00" y1="75" x2="120.00" y2="705" stroke="#dddddd" stroke-width="1"/>
<text x="120.00" y="737" text-anchor="middle" font-family="Arial" font-size="16" fill="black">-0.240</text>
<line x1="376.25" y1="75" x2="376.25" y2="705" stroke="#dddddd" stroke-width="1"/>
<text x="376.25" y="737" text-anchor="middle" font-family="Arial" font-size="16" fill="black">0.630</text>
<line x1="632.50" y1="75" x2="632.50" y2="705" stroke="#dddddd" stroke-width="1"/>
<text x="632.50" y="737" text-anchor="middle" font-family="Arial" font-size="16" fill="black">1.500</text>
<line x1="888.75" y1="75" x2="888.75" y2="705" stroke="#dddddd" stroke-width="1"/>
<text x="888.75" y="737" text-anchor="middle" font-family="Arial" font-size="16" fill="black">2.370</text>
<line x1="1145.00" y1="75" x2="1145.00" y2="705" stroke="#dddddd" stroke-width="1"/>
<text x="1145.00" y="737" text-anchor="middle" font-family="Arial" font-size="16" fill="black">3.240</text>
<line x1="120" y1="705.00" x2="1145" y2="705.00" stroke="#dddddd" stroke-width="1"/>
<text x="104" y="710.00" text-anchor="end" font-family="Arial" font-size="16" fill="black">-34.26</text>
<line x1="120" y1="547.50" x2="1145" y2="547.50" stroke="#dddddd" stroke-width="1"/>
<text x="104" y="552.50" text-anchor="end" font-family="Arial" font-size="16" fill="black">-25.02</text>
<line x1="120" y1="390.00" x2="1145" y2="390.00" stroke="#dddddd" stroke-width="1"/>
<text x="104" y="395.00" text-anchor="end" font-family="Arial" font-size="16" fill="black">-15.79</text>
<line x1="120" y1="232.50" x2="1145" y2="232.50" stroke="#dddddd" stroke-width="1"/>
<text x="104" y="237.50" text-anchor="end" font-family="Arial" font-size="16" fill="black">-6.549</text>
<line x1="120" y1="75.00" x2="1145" y2="75.00" stroke="#dddddd" stroke-width="1"/>
<text x="104" y="80.00" text-anchor="end" font-family="Arial" font-size="16" fill="black">2.688</text>
<rect x="120" y="75" width="1025" height="630" fill="none" stroke="black" stroke-width="2"/>
<text x="632.5" y="785" text-anchor="middle" font-family="Arial" font-size="20" fill="black">z coordinate [m]</text>
<text x="34" y="390.0" transform="rotate(-90 34 390.0)" text-anchor="middle" font-family="Arial" font-size="20" fill="black">p [Pa]</text>
<polyline points="190.69,118.45 193.64,119.46 196.58,120.47 199.53,121.48 202.47,122.49 205.42,123.50 208.36,124.51 211.31,125.52 214.25,126.53 217.20,127.54 220.14,128.56 223.09,130.56 226.03,132.56 228.98,134.57 231.93,136.57 234.87,138.57 237.82,140.58 240.76,142.58 243.71,144.58 246.65,146.59 249.60,148.59 252.54,150.58 255.49,152.56 258.43,154.55 261.38,156.54 264.32,158.52 267.27,160.51 270.22,162.50 273.16,164.49 276.11,166.47 279.05,168.46 282.00,170.45 284.94,172.45 287.89,174.44 290.83,176.44 293.78,178.43 296.72,180.42 299.67,182.42 302.61,184.41 305.56,186.41 308.51,188.40 311.45,190.39 314.40,192.38 317.34,194.37 320.29,196.35 323.23,198.34 326.18,200.33 329.12,202.32 332.07,204.30 335.01,206.29 337.96,208.28 340.91,210.23 343.85,212.18 346.80,214.13 349.74,216.08 352.69,218.04 355.63,219.99 358.58,221.94 361.52,223.89 364.47,225.84 367.41,227.79 370.36,229.70 373.30,231.60 376.25,233.51 379.20,235.41 382.14,237.32 385.09,239.23 388.03,241.13 390.98,243.04 393.92,244.94 396.87,246.85 399.81,248.72 402.76,250.60 405.70,252.48 408.65,254.36 411.59,256.24 414.54,258.11 417.49,259.99 420.43,261.87 423.38,263.75 426.32,265.62 429.27,267.49 432.21,269.36 435.16,271.22 438.10,273.09 441.05,274.96 443.99,276.83 446.94,278.69 449.89,280.56 452.83,282.42 455.78,284.29 458.72,286.15 461.67,288.02 464.61,289.88 467.56,291.75 470.50,293.61 473.45,295.46 476.39,297.32 479.34,299.18 482.28,301.06 485.23,302.92 488.18,304.77 491.12,306.63 494.07,308.49 497.01,310.35 499.96,312.21 502.90,314.07 505.85,315.93 508.79,317.78 511.74,319.64 514.68,321.50 517.63,323.36 520.57,325.22 523.52,327.08 526.47,328.94 529.41,330.79 532.36,332.65 535.30,334.51 538.25,336.37 541.19,338.23 544.14,340.07 547.08,341.93 550.03,343.79 552.97,345.65 555.92,347.50 558.86,349.36 561.81,351.22 564.76,353.06 567.70,354.92 570.65,356.78 573.59,358.64 576.54,360.50 579.48,362.36 582.43,364.20 585.37,366.06 588.32,367.91 591.26,369.77 594.21,371.61 597.16,373.47 600.10,375.33 603.05,377.19 605.99,379.03 608.94,380.89 611.88,382.75 614.83,384.59 617.77,386.45 620.72,388.31 623.66,390.15 626.61,392.01 629.55,393.87 632.50,395.71 635.45,397.57 638.39,399.41 641.34,401.27 644.28,403.12 647.23,404.97 650.17,406.82 653.12,408.67 656.06,410.52 659.01,412.37 661.95,414.22 664.90,416.07 667.84,417.92 670.79,419.77 673.74,421.63 676.68,423.47 679.63,425.31 682.57,427.17 685.52,429.01 688.46,430.87 691.41,432.71 694.35,434.55 697.30,436.41 700.24,438.25 703.19,440.09 706.14,441.95 709.08,443.79 712.03,445.63 714.97,447.49 717.92,449.33 720.86,451.17 723.81,453.03 726.75,454.87 729.70,456.72 732.64,458.56 735.59,460.40 738.53,462.26 741.48,464.10 744.43,465.94 747.37,467.78 750.32,469.64 753.26,471.48 756.21,473.32 759.15,475.17 762.10,477.01 765.04,478.85 767.99,480.71 770.93,482.55 773.88,484.39 776.82,486.23 779.77,488.07 782.72,489.91 785.66,491.76 788.61,493.60 791.55,495.44 794.50,497.30 797.44,499.14 800.39,500.98 803.33,502.82 806.28,504.66 809.22,506.51 812.17,508.35 815.11,510.19 818.06,512.03 821.01,513.87 823.95,515.71 826.90,517.55 829.84,519.40 832.79,521.24 835.73,523.08 838.68,524.92 841.62,526.76 844.57,528.60 847.51,530.45 850.46,532.29 853.41,534.13 856.35,535.97 859.30,537.79 862.24,539.64 865.19,541.48 868.13,543.32 871.08,545.16 874.02,547.00 876.97,548.83 879.91,550.67 882.86,552.51 885.80,554.35 888.75,556.19 891.70,558.02 894.64,559.86 897.59,561.70 900.53,563.52 903.48,565.37 906.42,567.21 909.37,569.03 912.31,570.87 915.26,572.70 918.20,574.54 921.15,576.36 924.09,578.21 927.04,580.03 929.99,581.87 932.93,583.70 935.88,585.52 938.82,587.36 941.77,589.19 944.71,591.01 947.66,592.84 950.60,594.68 953.55,596.50 956.49,598.33 959.44,600.15 962.39,601.98 965.33,603.80 968.28,605.62 971.22,607.43 974.17,609.26 977.11,611.08 980.06,612.90 983.00,614.73 985.95,616.55 988.89,618.36 991.84,620.17 994.78,621.99 997.73,623.80 1000.68,625.61 1003.62,627.43 1006.57,629.24 1009.51,631.06 1012.46,632.87 1015.40,634.68 1018.35,636.49 1021.29,638.28 1024.24,640.07 1027.18,641.87 1030.13,643.67 1033.07,645.46 1036.02,647.26 1038.97,649.05 1041.91,650.84 1044.86,652.65 1047.80,653.54 1050.75,654.42 1053.69,655.31 1056.64,656.21 1059.58,657.10 1062.53,657.99 1065.47,658.87 1068.42,659.78 1071.36,660.67 1074.31,661.55" fill="none" stroke="#000000" stroke-width="3"/>
<line x1="142" y1="100" x2="178" y2="100" stroke="#000000" stroke-width="4"/>
<text x="188" y="105" font-family="Arial" font-size="18" fill="black">p</text>
</svg>