<svg xmlns="http://www.w3.org/2000/svg" width="1200" height="820" viewBox="0 0 1200 820">
<rect width="100%" height="100%" fill="white"/>
<text x="600.0" y="36" text-anchor="middle" font-family="Arial" font-size="24" fill="black">profile_near_ceiling_x: rho</text>
<line x1="120.00" y1="75" x2="120.00" y2="705" stroke="#dddddd" stroke-width="1"/>
<text x="120.00" y="737" text-anchor="middle" font-family="Arial" font-size="16" fill="black">-0.560</text>
<line x1="376.25" y1="75" x2="376.25" y2="705" stroke="#dddddd" stroke-width="1"/>
<text x="376.25" y="737" text-anchor="middle" font-family="Arial" font-size="16" fill="black">1.470</text>
<line x1="632.50" y1="75" x2="632.50" y2="705" stroke="#dddddd" stroke-width="1"/>
<text x="632.50" y="737" text-anchor="middle" font-family="Arial" font-size="16" fill="black">3.500</text>
<line x1="888.75" y1="75" x2="888.75" y2="705" stroke="#dddddd" stroke-width="1"/>
<text x="888.75" y="737" text-anchor="middle" font-family="Arial" font-size="16" fill="black">5.530</text>
<line x1="1145.00" y1="75" x2="1145.00" y2="705" stroke="#dddddd" stroke-width="1"/>
<text x="1145.00" y="737" text-anchor="middle" font-family="Arial" font-size="16" fill="black">7.560</text>
<line x1="120" y1="705.00" x2="1145" y2="705.00" stroke="#dddddd" stroke-width="1"/>
<text x="104" y="710.00" text-anchor="end" font-family="Arial" font-size="16" fill="black">1.086</text>
<line x1="120" y1="547.50" x2="1145" y2="547.50" stroke="#dddddd" stroke-width="1"/>
<text x="104" y="552.50" text-anchor="end" font-family="Arial" font-size="16" fill="black">1.090</text>
<line x1="120" y1="390.00" x2="1145" y2="390.00" stroke="#dddddd" stroke-width="1"/>
<text x="104" y="395.00" text-anchor="end" font-family="Arial" font-size="16" fill="black">1.095</text>
<line x1="120" y1="232.50" x2="1145" y2="232.50" stroke="#dddddd" stroke-width="1"/>
<text x="104" y="237.50" text-anchor="end" font-family="Arial" font-size="16" fill="black">1.099</text>
<line x1="120" y1="75.00" x2="1145" y2="75.00" stroke="#dddddd" stroke-width="1"/>
<text x="104" y="80.00" text-anchor="end" font-family="Arial" font-size="16" fill="black">1.103</text>
<rect x="120" y="75" width="1025" height="630" fill="none" stroke="black" stroke-width="2"/>
<text x="632.5" y="785" text-anchor="middle" font-family="Arial" font-size="20" fill="black">x coordinate [m]</text>
<text x="34" y="390.0" transform="rotate(-90 34 390.0)" text-anchor="middle" font-family="Arial" font-size="20" fill="black">rho [kg/m3]</text>
<polyline points="190.69,118.45 193.64,125.74 196.58,133.03 199.53,140.32 202.47,147.61 205.42,158.54 208.36,169.48 211.31,184.06 214.25,194.99 217.20,202.28 220.14,205.93 223.09,213.22 226.03,216.86 228.98,220.51 231.93,224.15 234.87,224.15 237.82,227.80 240.76,227.80 243.71,227.80 246.65,231.44 249.60,231.44 252.54,231.44 255.49,235.09 258.43,235.09 261.38,235.09 264.32,238.73 267.27,238.73 270.22,242.38 273.16,242.38 276.11,246.02 279.05,246.02 282.00,249.67 284.94,253.31 287.89,256.96 290.83,256.96 293.78,260.60 296.72,264.25 299.67,267.89 302.62,271.54 305.56,275.18 308.51,278.83 311.45,282.47 314.40,286.12 317.34,293.41 320.29,297.05 323.23,300.70 326.17,304.34 329.13,311.63 332.07,315.28 335.01,318.92 337.96,326.21 340.91,329.86 343.85,337.15 346.80,340.79 349.74,348.08 352.68,351.73 355.64,359.02 358.58,362.66 361.52,369.95 364.47,377.24 367.41,380.89 370.35,388.18 373.31,395.47 376.25,402.76 379.19,410.05 382.15,417.34 385.09,424.63 388.03,431.92 390.98,435.56 393.92,442.85 396.86,450.14 399.82,457.43 402.76,464.72 405.70,472.01 408.65,475.66 411.59,482.95 414.54,486.59 417.49,493.88 420.43,497.53 423.37,504.82 426.33,508.46 429.27,512.11 432.21,515.75 435.16,519.40 438.10,523.04 441.04,526.69 444.00,530.33 446.94,533.98 449.88,533.98 452.83,537.62 455.78,541.27 458.72,544.91 461.67,544.91 464.61,548.56 467.55,548.56 470.51,552.20 473.45,555.85 476.39,555.85 479.34,559.49 482.28,559.49 485.23,563.14 488.18,563.14 491.12,566.78 494.06,566.78 497.02,570.43 499.96,570.43 502.90,574.07 505.85,574.07 508.79,577.72 511.73,577.72 514.69,581.36 517.63,581.36 520.57,585.01 523.52,585.01 526.47,588.65 529.41,588.65 532.36,592.30 535.30,592.30 538.24,595.94 541.20,595.94 544.14,599.59 547.08,603.23 550.03,603.23 552.97,606.88 555.92,610.52 558.87,610.52 561.81,614.17 564.75,617.81 567.71,621.46 570.65,621.46 573.59,625.10 576.54,628.75 579.48,628.75 582.42,632.39 585.38,636.04 588.32,639.68 591.26,639.68 594.21,643.33 597.16,646.97 600.10,646.97 603.05,650.62 605.99,650.62 608.93,654.26 611.89,654.26 614.83,657.91 617.77,657.91 620.72,661.55 623.66,661.55 626.60,661.55 629.56,661.55 632.50,661.55 635.44,661.55 638.40,661.55 641.34,657.91 644.28,657.91 647.23,657.91 650.17,654.26 653.11,654.26 656.07,650.62 659.01,650.62 661.95,646.97 664.90,643.33 667.84,643.33 670.79,639.68 673.74,636.04 676.68,636.04 679.62,632.39 682.58,628.75 685.52,628.75 688.46,625.10 691.41,621.46 694.35,617.81 697.29,617.81 700.25,614.17 703.19,610.52 706.13,606.88 709.08,606.88 712.03,603.23 714.97,599.59 717.92,599.59 720.86,595.94 723.80,595.94 726.76,592.30 729.70,592.30 732.64,588.65 735.59,588.65 738.53,585.01 741.48,585.01 744.43,581.36 747.37,577.72 750.31,574.07 753.27,570.43 756.21,566.78 759.15,559.49 762.10,552.20 765.04,541.27 767.98,533.98 770.94,523.04 773.88,515.75 776.82,504.82 779.77,493.88 782.72,482.95 785.66,472.01 788.61,464.72 791.55,457.43 794.49,450.14 797.45,446.50 800.39,439.21 803.33,435.56 806.28,431.92 809.22,424.63 812.17,420.98 815.12,417.34 818.06,413.69 821.00,410.05 823.96,406.40 826.90,402.76 829.84,399.11 832.79,395.47 835.73,395.47 838.67,391.82 841.63,388.18 844.57,384.53 847.51,384.53 850.46,380.89 853.41,377.24 856.35,377.24 859.30,373.60 862.24,373.60 865.18,369.95 868.14,369.95 871.08,366.31 874.02,366.31 876.97,362.66 879.91,362.66 882.85,362.66 885.81,359.02 888.75,359.02 891.69,359.02 894.65,355.37 897.59,355.37 900.53,355.37 903.48,351.73 906.42,351.73 909.36,351.73 912.32,351.73 915.26,348.08 918.20,348.08 921.15,348.08 924.09,348.08 927.04,348.08 929.99,344.44 932.93,344.44 935.87,344.44 938.83,344.44 941.77,344.44 944.71,344.44 947.66,344.44 950.60,340.79 953.54,340.79 956.50,340.79 959.44,340.79 962.38,340.79 965.33,340.79 968.28,340.79 971.22,340.79 974.17,340.79 977.11,340.79 980.05,340.79 983.01,340.79 985.95,340.79 988.89,340.79 991.84,340.79 994.78,340.79 997.73,344.44 1000.68,344.44 1003.62,344.44 1006.56,344.44 1009.52,344.44 1012.46,344.44 1015.40,344.44 1018.35,348.08 1021.29,348.08 1024.23,348.08 1027.19,348.08 1030.13,351.73 1033.07,351.73 1036.02,351.73 1038.97,355.37 1041.91,355.37 1044.86,359.02 1047.80,359.02 1050.74,362.66 1053.70,366.31 1056.64,366.31 1059.58,369.95 1062.53,373.60 1065.47,373.60 1068.42,373.60 1071.37,377.24 1074.31,377.24" fill="none" stroke="#000000" stroke-width="3"/>
<line x1="142" y1="100" x2="178" y2="100" stroke="#000000" stroke-width="4"/>
<text x="188" y="105" font-family="Arial" font-size="18" fill="black">rho</text>
</svg>