<svg xmlns="http://www.w3.org/2000/svg" width="1200" height="820" viewBox="0 0 1200 820">
<rect width="100%" height="100%" fill="white"/>
<text x="600.0" y="36" text-anchor="middle" font-family="Arial" font-size="24" fill="black">profile_near_ceiling_x: p_rgh</text>
<line x1="120.00" y1="75" x2="120.00" y2="705" stroke="#dddddd" stroke-width="1"/>
<text x="120.00" y="737" text-anchor="middle" font-family="Arial" font-size="16" fill="black">-0.560</text>
<line x1="376.25" y1="75" x2="376.25" y2="705" stroke="#dddddd" stroke-width="1"/>
<text x="376.25" y="737" text-anchor="middle" font-family="Arial" font-size="16" fill="black">1.470</text>
<line x1="632.50" y1="75" x2="632.50" y2="705" stroke="#dddddd" stroke-width="1"/>
<text x="632.50" y="737" text-anchor="middle" font-family="Arial" font-size="16" fill="black">3.500</text>
<line x1="888.75" y1="75" x2="888.75" y2="705" stroke="#dddddd" stroke-width="1"/>
<text x="888.75" y="737" text-anchor="middle" font-family="Arial" font-size="16" fill="black">5.530</text>
<line x1="1145.00" y1="75" x2="1145.00" y2="705" stroke="#dddddd" stroke-width="1"/>
<text x="1145.00" y="737" text-anchor="middle" font-family="Arial" font-size="16" fill="black">7.560</text>
<line x1="120" y1="705.00" x2="1145" y2="705.00" stroke="#dddddd" stroke-width="1"/>
<text x="104" y="710.00" text-anchor="end" font-family="Arial" font-size="16" fill="black">-0.295</text>
<line x1="120" y1="547.50" x2="1145" y2="547.50" stroke="#dddddd" stroke-width="1"/>
<text x="104" y="552.50" text-anchor="end" font-family="Arial" font-size="16" fill="black">-0.186</text>
<line x1="120" y1="390.00" x2="1145" y2="390.00" stroke="#dddddd" stroke-width="1"/>
<text x="104" y="395.00" text-anchor="end" font-family="Arial" font-size="16" fill="black">-0.077</text>
<line x1="120" y1="232.50" x2="1145" y2="232.50" stroke="#dddddd" stroke-width="1"/>
<text x="104" y="237.50" text-anchor="end" font-family="Arial" font-size="16" fill="black">0.032</text>
<line x1="120" y1="75.00" x2="1145" y2="75.00" stroke="#dddddd" stroke-width="1"/>
<text x="104" y="80.00" text-anchor="end" font-family="Arial" font-size="16" fill="black">0.141</text>
<rect x="120" y="75" width="1025" height="630" fill="none" stroke="black" stroke-width="2"/>
<text x="632.5" y="785" text-anchor="middle" font-family="Arial" font-size="20" fill="black">x coordinate [m]</text>
<text x="34" y="390.0" transform="rotate(-90 34 390.0)" text-anchor="middle" font-family="Arial" font-size="20" fill="black">p_rgh [Pa]</text>
<polyline points="190.69,118.45 193.64,127.84 196.58,137.23 199.53,146.62 202.47,156.01 205.42,169.05 208.36,183.55 211.31,198.05 214.25,212.54 217.20,224.08 220.14,231.66 223.09,239.24 226.03,246.82 228.98,253.90 231.93,257.91 234.87,261.93 237.82,265.95 240.76,269.97 243.71,273.08 246.65,276.05 249.60,279.01 252.54,281.97 255.49,284.90 258.43,287.81 261.38,290.71 264.32,293.61 267.27,296.54 270.22,299.54 273.16,302.53 276.11,305.53 279.05,308.52 282.00,311.53 284.94,314.53 287.89,317.54 290.83,320.54 293.78,323.48 296.72,326.38 299.67,329.28 302.62,332.19 305.56,335.02 308.51,337.76 311.45,340.50 314.40,343.23 317.34,345.95 320.29,348.56 323.23,351.16 326.17,353.77 329.13,356.38 332.07,359.00 335.01,361.63 337.96,364.25 340.91,366.88 343.85,369.65 346.80,372.53 349.74,375.41 352.68,378.29 355.64,381.32 358.58,384.73 361.52,388.14 364.47,391.55 367.41,394.96 370.35,399.09 373.31,403.23 376.25,407.37 379.19,411.50 382.15,416.10 385.09,420.88 388.03,425.66 390.98,430.44 393.92,435.29 396.86,440.21 399.82,445.14 402.76,450.07 405.70,454.94 408.65,459.34 411.59,463.77 414.54,468.19 417.49,472.61 420.43,476.38 423.37,480.04 426.33,483.69 429.27,487.35 432.21,490.71 435.16,493.88 438.10,497.03 441.04,500.19 444.00,503.31 446.94,506.35 449.88,509.38 452.83,512.43 455.78,515.47 458.72,518.60 461.67,521.74 464.61,524.87 467.55,528.02 470.51,531.27 473.45,534.57 476.39,537.86 479.34,541.16 482.28,544.52 485.23,547.95 488.18,551.39 491.12,554.81 494.06,558.27 497.02,561.79 499.96,565.32 502.90,568.84 505.85,572.37 508.79,575.91 511.73,579.45 514.69,583.00 517.63,586.54 520.57,590.04 523.52,593.49 526.47,596.96 529.41,600.42 532.36,603.81 535.30,607.06 538.24,610.33 541.20,613.58 544.14,616.83 547.08,619.78 550.03,622.71 552.97,625.66 555.92,628.61 558.87,631.25 561.81,633.79 564.75,636.32 567.71,638.85 570.65,641.18 573.59,643.22 576.54,645.27 579.48,647.30 582.42,649.27 585.38,650.77 588.32,652.28 591.26,653.78 594.21,655.30 597.16,656.32 600.10,657.26 603.05,658.21 605.99,659.15 608.93,659.83 611.89,660.31 614.83,660.77 617.77,661.25 620.72,661.55 623.66,661.48 626.60,661.39 629.56,661.31 632.50,661.22 635.44,660.08 638.40,658.92 641.34,657.78 644.28,656.62 647.23,654.90 650.17,652.95 653.11,651.00 656.07,649.07 659.01,647.16 661.95,645.31 664.90,643.45 667.84,641.60 670.79,639.75 673.74,637.94 676.68,636.13 679.62,634.31 682.58,632.51 685.52,630.50 688.46,628.45 691.41,626.41 694.35,624.36 697.29,622.26 700.25,620.11 703.19,617.97 706.13,615.82 709.08,613.69 712.03,611.61 714.97,609.52 717.92,607.44 720.86,605.36 723.80,603.29 726.76,601.22 729.70,599.16 732.64,597.09 735.59,594.58 738.53,591.88 741.48,589.17 744.43,586.47 747.37,582.56 750.31,577.01 753.27,571.46 756.21,565.91 759.15,559.54 762.10,548.27 765.04,537.00 767.98,525.73 770.94,514.45 773.88,501.52 776.82,488.32 779.77,475.12 782.72,461.92 785.66,450.86 788.61,441.43 791.55,431.98 794.49,422.54 797.45,413.91 800.39,407.34 803.33,400.76 806.28,394.18 809.22,387.60 812.17,382.27 815.12,376.94 818.06,371.60 821.00,366.27 823.96,361.97 826.90,358.09 829.84,354.20 832.79,350.32 835.73,347.13 838.67,344.87 841.63,342.61 844.57,340.35 847.51,338.26 850.46,337.19 853.41,336.12 856.35,335.04 859.30,333.97 862.24,333.43 865.18,332.97 868.14,332.51 871.08,332.05 874.02,331.85 876.97,331.85 879.91,331.85 882.85,331.85 885.81,332.02 888.75,332.60 891.69,333.19 894.65,333.78 897.59,334.37 900.53,335.58 903.48,336.79 906.42,338.00 909.36,339.21 912.32,340.77 915.26,342.48 918.20,344.18 921.15,345.88 924.09,347.70 927.04,349.68 929.99,351.66 932.93,353.64 935.87,355.63 938.83,357.63 941.77,359.64 944.71,361.64 947.66,363.65 950.60,365.44 953.54,367.19 956.50,368.95 959.44,370.71 962.38,372.17 965.33,373.42 968.28,374.68 971.22,375.93 974.17,376.98 977.11,377.52 980.05,378.07 983.01,378.62 985.95,379.17 988.89,378.91 991.84,378.66 994.78,378.41 997.73,378.16 1000.68,377.36 1003.62,376.33 1006.56,375.30 1009.52,374.28 1012.46,372.97 1015.40,371.30 1018.35,369.63 1021.29,367.96 1024.23,366.24 1027.19,364.20 1030.13,362.16 1033.07,360.12 1036.02,358.07 1038.97,356.18 1041.91,354.31 1044.86,352.44 1047.80,350.58 1050.74,349.06 1053.70,347.82 1056.64,346.57 1059.58,345.32 1062.53,344.31 1065.47,343.86 1068.42,343.42 1071.37,342.97 1074.31,342.52" fill="none" stroke="#000000" stroke-width="3"/>
<line x1="142" y1="100" x2="178" y2="100" stroke="#000000" stroke-width="4"/>
<text x="188" y="105" font-family="Arial" font-size="18" fill="black">p_rgh</text>
</svg>