<svg xmlns="http://www.w3.org/2000/svg" width="1200" height="820" viewBox="0 0 1200 820">
<rect width="100%" height="100%" fill="white"/>
<text x="600.0" y="36" text-anchor="middle" font-family="Arial" font-size="24" fill="black">profile_center_x: U:0</text>
<line x1="120.00" y1="75" x2="120.00" y2="705" stroke="#dddddd" stroke-width="1"/>
<text x="120.00" y="737" text-anchor="middle" font-family="Arial" font-size="16" fill="black">-0.560</text>
<line x1="376.25" y1="75" x2="376.25" y2="705" stroke="#dddddd" stroke-width="1"/>
<text x="376.25" y="737" text-anchor="middle" font-family="Arial" font-size="16" fill="black">1.470</text>
<line x1="632.50" y1="75" x2="632.50" y2="705" stroke="#dddddd" stroke-width="1"/>
<text x="632.50" y="737" text-anchor="middle" font-family="Arial" font-size="16" fill="black">3.500</text>
<line x1="888.75" y1="75" x2="888.75" y2="705" stroke="#dddddd" stroke-width="1"/>
<text x="888.75" y="737" text-anchor="middle" font-family="Arial" font-size="16" fill="black">5.530</text>
<line x1="1145.00" y1="75" x2="1145.00" y2="705" stroke="#dddddd" stroke-width="1"/>
<text x="1145.00" y="737" text-anchor="middle" font-family="Arial" font-size="16" fill="black">7.560</text>
<line x1="120" y1="705.00" x2="1145" y2="705.00" stroke="#dddddd" stroke-width="1"/>
<text x="104" y="710.00" text-anchor="end" font-family="Arial" font-size="16" fill="black">-0.134</text>
<line x1="120" y1="547.50" x2="1145" y2="547.50" stroke="#dddddd" stroke-width="1"/>
<text x="104" y="552.50" text-anchor="end" font-family="Arial" font-size="16" fill="black">-0.045</text>
<line x1="120" y1="390.00" x2="1145" y2="390.00" stroke="#dddddd" stroke-width="1"/>
<text x="104" y="395.00" text-anchor="end" font-family="Arial" font-size="16" fill="black">0.043</text>
<line x1="120" y1="232.50" x2="1145" y2="232.50" stroke="#dddddd" stroke-width="1"/>
<text x="104" y="237.50" text-anchor="end" font-family="Arial" font-size="16" fill="black">0.132</text>
<line x1="120" y1="75.00" x2="1145" y2="75.00" stroke="#dddddd" stroke-width="1"/>
<text x="104" y="80.00" text-anchor="end" font-family="Arial" font-size="16" fill="black">0.221</text>
<rect x="120" y="75" width="1025" height="630" fill="none" stroke="black" stroke-width="2"/>
<text x="632.5" y="785" text-anchor="middle" font-family="Arial" font-size="20" fill="black">x coordinate [m]</text>
<text x="34" y="390.0" transform="rotate(-90 34 390.0)" text-anchor="middle" font-family="Arial" font-size="20" fill="black">U:0 [SI]</text>
<polyline points="190.69,473.88 193.64,474.57 196.58,475.26 199.53,475.95 202.47,476.64 205.42,477.79 208.36,479.14 211.31,480.48 214.25,481.82 217.20,482.90 220.14,483.62 223.09,484.35 226.03,485.07 228.98,485.57 231.93,484.68 234.87,483.80 237.82,482.92 240.76,482.04 243.71,478.92 246.65,475.44 249.60,471.95 252.54,468.46 255.49,463.26 258.43,456.79 261.38,450.32 264.32,443.85 267.27,436.79 270.22,428.29 273.16,419.78 276.11,411.28 279.05,402.78 282.00,393.50 284.94,384.23 287.89,374.95 290.83,365.68 293.78,356.31 296.72,346.89 299.67,337.48 302.62,328.06 305.56,318.71 308.51,309.43 311.45,300.16 314.40,290.88 317.34,281.67 320.29,272.81 323.23,263.95 326.17,255.09 329.13,246.23 332.07,237.87 335.01,229.57 337.96,221.28 340.91,212.99 343.85,205.00 346.80,197.25 349.74,189.49 352.68,181.75 355.64,174.31 358.58,167.65 361.52,161.01 364.47,154.35 367.41,147.71 370.35,143.08 373.31,138.43 376.25,133.79 379.19,129.16 382.15,126.26 385.09,124.04 388.03,121.82 390.98,119.62 393.92,118.45 396.86,118.66 399.82,118.87 402.76,119.09 405.70,119.60 408.65,121.96 411.59,124.31 414.54,126.65 417.49,129.00 420.43,132.69 423.37,136.60 426.33,140.50 429.27,144.41 432.21,148.83 435.16,153.61 438.10,158.40 441.04,163.20 444.00,168.06 446.94,173.12 449.88,178.18 452.83,183.26 455.78,188.32 458.72,193.28 461.67,198.23 464.61,203.17 467.55,208.12 470.51,212.86 473.45,217.53 476.39,222.19 479.34,226.84 482.28,231.33 485.23,235.63 488.18,239.93 491.12,244.20 494.06,248.45 497.02,252.30 499.96,256.17 502.90,260.03 505.85,263.90 508.79,267.27 511.73,270.59 514.69,273.89 517.63,277.20 520.57,280.09 523.52,282.65 526.47,285.22 529.41,287.80 532.36,290.11 535.30,291.78 538.24,293.45 541.20,295.12 544.14,296.79 547.08,297.51 550.03,298.23 552.97,298.94 555.92,299.66 558.87,299.80 561.81,299.72 564.75,299.64 567.71,299.56 570.65,299.30 573.59,298.81 576.54,298.32 579.48,297.83 582.42,297.36 585.38,297.01 588.32,296.66 591.26,296.31 594.21,295.96 597.16,296.19 600.10,296.53 603.05,296.86 605.99,297.19 608.93,298.12 611.89,299.49 614.83,300.87 617.77,302.25 620.72,303.96 623.66,306.52 626.60,309.08 629.56,311.63 632.50,314.19 635.44,317.91 638.40,321.62 641.34,325.34 644.28,329.05 647.23,333.52 650.17,338.30 653.11,343.07 656.07,347.85 659.01,353.02 661.95,358.73 664.90,364.43 667.84,370.14 670.79,375.96 673.74,382.42 676.68,388.89 679.62,395.36 682.58,401.82 685.52,408.74 688.46,415.74 691.41,422.74 694.35,429.74 697.29,436.89 700.25,444.15 703.19,451.41 706.13,458.68 709.08,465.93 712.03,473.18 714.97,480.43 717.92,487.69 720.86,494.94 723.80,501.96 726.76,508.98 729.70,516.00 732.64,523.02 735.59,529.75 738.53,536.35 741.48,542.96 744.43,549.57 747.37,555.92 750.31,561.94 753.27,567.95 756.21,573.96 759.15,579.88 762.10,585.18 765.04,590.48 767.98,595.78 770.94,601.09 773.88,605.72 776.82,610.24 779.77,614.77 782.72,619.29 785.66,623.34 788.61,627.04 791.55,630.74 794.49,634.44 797.45,637.89 800.39,640.72 803.33,643.55 806.28,646.37 809.22,649.21 812.17,651.11 815.12,653.01 818.06,654.93 821.00,656.83 823.96,658.05 826.90,658.99 829.84,659.95 832.79,660.89 835.73,661.45 838.67,661.48 841.63,661.52 844.57,661.55 847.51,661.48 850.46,660.77 853.41,660.06 856.35,659.33 859.30,658.62 862.24,657.52 865.18,656.37 868.14,655.21 871.08,654.06 874.02,652.89 876.97,651.70 879.91,650.49 882.85,649.30 885.81,648.15 888.75,647.13 891.69,646.12 894.65,645.11 897.59,644.09 900.53,643.20 903.48,642.31 906.42,641.42 909.36,640.53 912.32,639.61 915.26,638.69 918.20,637.76 921.15,636.84 924.09,635.84 927.04,634.75 929.99,633.65 932.93,632.56 935.87,631.43 938.83,630.10 941.77,628.77 944.71,627.44 947.66,626.11 950.60,624.52 953.54,622.90 956.50,621.27 959.44,619.65 962.38,617.78 965.33,615.72 968.28,613.66 971.22,611.61 974.17,609.37 977.11,606.66 980.05,603.96 983.01,601.25 985.95,598.55 988.89,595.03 991.84,591.51 994.78,587.99 997.73,584.46 1000.68,580.38 1003.62,576.08 1006.56,571.77 1009.52,567.47 1012.46,563.00 1015.40,558.30 1018.35,553.60 1021.29,548.90 1024.23,544.24 1027.19,539.82 1030.13,535.39 1033.07,530.97 1036.02,526.55 1038.97,522.75 1041.91,519.05 1044.86,515.35 1047.80,511.66 1050.74,507.99 1053.70,504.34 1056.64,500.69 1059.58,497.04 1062.53,493.86 1065.47,491.86 1068.42,489.85 1071.37,487.85 1074.31,485.85" fill="none" stroke="#000000" stroke-width="3"/>
<line x1="142" y1="100" x2="178" y2="100" stroke="#000000" stroke-width="4"/>
<text x="188" y="105" font-family="Arial" font-size="18" fill="black">U:0</text>
</svg>