<svg xmlns="http://www.w3.org/2000/svg" width="1200" height="820" viewBox="0 0 1200 820">
<rect width="100%" height="100%" fill="white"/>
<text x="600.0" y="36" text-anchor="middle" font-family="Arial" font-size="24" fill="black">profile_center_x: nut</text>
<line x1="120.00" y1="75" x2="120.00" y2="705" stroke="#dddddd" stroke-width="1"/>
<text x="120.00" y="737" text-anchor="middle" font-family="Arial" font-size="16" fill="black">-0.560</text>
<line x1="376.25" y1="75" x2="376.25" y2="705" stroke="#dddddd" stroke-width="1"/>
<text x="376.25" y="737" text-anchor="middle" font-family="Arial" font-size="16" fill="black">1.470</text>
<line x1="632.50" y1="75" x2="632.50" y2="705" stroke="#dddddd" stroke-width="1"/>
<text x="632.50" y="737" text-anchor="middle" font-family="Arial" font-size="16" fill="black">3.500</text>
<line x1="888.75" y1="75" x2="888.75" y2="705" stroke="#dddddd" stroke-width="1"/>
<text x="888.75" y="737" text-anchor="middle" font-family="Arial" font-size="16" fill="black">5.530</text>
<line x1="1145.00" y1="75" x2="1145.00" y2="705" stroke="#dddddd" stroke-width="1"/>
<text x="1145.00" y="737" text-anchor="middle" font-family="Arial" font-size="16" fill="black">7.560</text>
<line x1="120" y1="705.00" x2="1145" y2="705.00" stroke="#dddddd" stroke-width="1"/>
<text x="104" y="710.00" text-anchor="end" font-family="Arial" font-size="16" fill="black">-0.001</text>
<line x1="120" y1="547.50" x2="1145" y2="547.50" stroke="#dddddd" stroke-width="1"/>
<text x="104" y="552.50" text-anchor="end" font-family="Arial" font-size="16" fill="black">0.005</text>
<line x1="120" y1="390.00" x2="1145" y2="390.00" stroke="#dddddd" stroke-width="1"/>
<text x="104" y="395.00" text-anchor="end" font-family="Arial" font-size="16" fill="black">0.011</text>
<line x1="120" y1="232.50" x2="1145" y2="232.50" stroke="#dddddd" stroke-width="1"/>
<text x="104" y="237.50" text-anchor="end" font-family="Arial" font-size="16" fill="black">0.017</text>
<line x1="120" y1="75.00" x2="1145" y2="75.00" stroke="#dddddd" stroke-width="1"/>
<text x="104" y="80.00" text-anchor="end" font-family="Arial" font-size="16" fill="black">0.023</text>
<rect x="120" y="75" width="1025" height="630" fill="none" stroke="black" stroke-width="2"/>
<text x="632.5" y="785" text-anchor="middle" font-family="Arial" font-size="20" fill="black">x coordinate [m]</text>
<text x="34" y="390.0" transform="rotate(-90 34 390.0)" text-anchor="middle" font-family="Arial" font-size="20" fill="black">nut [m2/s]</text>
<polyline points="190.69,656.50 193.64,646.14 196.58,635.77 199.53,625.40 202.47,615.03 205.42,600.28 208.36,583.77 211.31,567.25 214.25,550.74 217.20,537.34 220.14,528.07 223.09,518.80 226.03,509.53 228.98,500.89 231.93,496.05 234.87,491.21 237.82,486.37 240.76,481.53 243.71,478.56 246.65,475.90 249.60,473.24 252.54,470.58 255.49,468.58 258.43,467.06 261.38,465.54 264.32,464.02 267.27,462.61 270.22,461.49 273.16,460.37 276.11,459.25 279.05,458.13 282.00,457.01 284.94,455.89 287.89,454.76 290.83,453.64 293.78,452.50 296.72,451.36 299.67,450.22 302.62,449.07 305.56,447.98 308.51,446.97 311.45,445.96 314.40,444.95 317.34,443.97 320.29,443.25 323.23,442.53 326.17,441.81 329.13,441.09 332.07,440.70 335.01,440.36 337.96,440.02 340.91,439.68 343.85,439.49 346.80,439.41 349.74,439.34 352.68,439.26 355.64,439.09 358.58,438.67 361.52,438.24 364.47,437.82 367.41,437.40 370.35,435.75 373.31,434.09 376.25,432.44 379.19,430.79 382.15,427.94 385.09,424.60 388.03,421.27 390.98,417.93 393.92,413.98 396.86,409.18 399.82,404.40 402.76,399.59 405.70,394.68 408.65,388.94 411.59,383.19 414.54,377.48 417.49,371.74 420.43,365.61 423.37,359.40 426.33,353.19 429.27,346.98 432.21,340.72 435.16,334.38 438.10,328.06 441.04,321.75 444.00,315.49 446.94,309.41 449.88,303.33 452.83,297.22 455.78,291.14 458.72,285.56 461.67,279.97 464.61,274.41 467.55,268.83 470.51,263.73 473.45,258.85 476.39,253.97 479.34,249.05 482.28,244.53 485.23,240.46 488.18,236.40 491.12,232.35 494.06,228.40 497.02,225.20 499.96,222.01 502.90,218.79 505.85,215.59 508.79,213.05 511.73,210.60 514.69,208.16 517.63,205.72 520.57,203.56 523.52,201.61 526.47,199.66 529.41,197.72 532.36,195.82 535.30,194.05 538.24,192.26 541.20,190.49 544.14,188.73 547.08,186.93 550.03,185.17 552.97,183.37 555.92,181.58 558.87,179.76 561.81,177.94 564.75,176.13 567.71,174.31 570.65,172.54 573.59,170.80 576.54,169.09 579.48,167.37 582.42,165.68 585.38,164.20 588.32,162.72 591.26,161.26 594.21,159.78 597.16,158.61 600.10,157.50 603.05,156.35 605.99,155.24 608.93,154.28 611.89,153.47 614.83,152.64 617.77,151.81 620.72,151.00 623.66,150.25 626.60,149.47 629.56,148.72 632.50,147.94 635.44,146.82 638.40,145.70 641.34,144.59 644.28,143.47 647.23,141.91 650.17,140.17 653.11,138.45 656.07,136.71 659.01,134.84 661.95,132.79 664.90,130.76 667.84,128.71 670.79,126.71 673.74,125.10 676.68,123.51 679.62,121.90 682.58,120.29 685.52,119.70 688.46,119.28 691.41,118.86 694.35,118.45 697.29,118.92 700.25,120.09 703.19,121.25 706.13,122.42 709.08,124.09 712.03,127.00 714.97,129.91 717.92,132.82 720.86,135.73 723.80,140.35 726.76,144.95 729.70,149.55 732.64,154.15 735.59,159.78 738.53,165.84 741.48,171.89 744.43,177.94 747.37,184.47 750.31,191.61 753.27,198.73 756.21,205.87 759.15,213.10 762.10,220.84 765.04,228.61 767.98,236.38 770.94,244.14 773.88,252.02 776.82,259.94 779.77,267.84 782.72,275.74 785.66,283.40 788.61,290.86 791.55,298.34 794.49,305.82 797.45,313.02 800.39,319.49 803.33,325.98 806.28,332.45 809.22,338.95 812.17,344.09 815.12,349.21 818.06,354.36 821.00,359.47 823.96,363.68 826.90,367.50 829.84,371.35 832.79,375.17 835.73,378.60 838.67,381.53 841.63,384.47 844.57,387.38 847.51,390.26 850.46,392.78 853.41,395.33 856.35,397.87 859.30,400.39 862.24,402.94 865.18,405.49 868.14,408.03 871.08,410.58 874.02,413.20 876.97,415.90 879.91,418.58 882.85,421.27 885.81,423.97 888.75,426.68 891.69,429.39 894.65,432.11 897.59,434.82 900.53,437.28 903.48,439.75 906.42,442.21 909.36,444.68 912.32,446.77 915.26,448.70 918.20,450.64 921.15,452.57 924.09,454.20 927.04,455.43 929.99,456.65 932.93,457.88 935.87,459.00 938.83,459.55 941.77,460.10 944.71,460.65 947.66,461.20 950.60,461.44 953.54,461.64 956.50,461.84 959.44,462.03 962.38,462.34 965.33,462.74 968.28,463.14 971.22,463.53 974.17,464.14 977.11,465.29 980.05,466.45 983.01,467.59 985.95,468.75 988.89,470.99 991.84,473.23 994.78,475.47 997.73,477.71 1000.68,480.81 1003.62,484.25 1006.56,487.69 1009.52,491.14 1012.46,495.16 1015.40,499.97 1018.35,504.77 1021.29,509.57 1024.23,514.64 1027.19,521.28 1030.13,527.92 1033.07,534.57 1036.02,541.21 1038.97,549.99 1041.91,559.13 1044.86,568.26 1047.80,577.40 1050.74,588.16 1053.70,600.16 1056.64,612.16 1059.58,624.15 1062.53,634.64 1065.47,641.37 1068.42,648.10 1071.37,654.82 1074.31,661.55" fill="none" stroke="#000000" stroke-width="3"/>
<line x1="142" y1="100" x2="178" y2="100" stroke="#000000" stroke-width="4"/>
<text x="188" y="105" font-family="Arial" font-size="18" fill="black">nut</text>
</svg>