<svg xmlns="http://www.w3.org/2000/svg" width="1200" height="820" viewBox="0 0 1200 820">
<rect width="100%" height="100%" fill="white"/>
<text x="600.0" y="36" text-anchor="middle" font-family="Arial" font-size="24" fill="black">profile_near_floor_x: vorticity:1</text>
<line x1="120.00" y1="75" x2="120.00" y2="705" stroke="#dddddd" stroke-width="1"/>
<text x="120.00" y="737" text-anchor="middle" font-family="Arial" font-size="16" fill="black">-0.560</text>
<line x1="376.25" y1="75" x2="376.25" y2="705" stroke="#dddddd" stroke-width="1"/>
<text x="376.25" y="737" text-anchor="middle" font-family="Arial" font-size="16" fill="black">1.470</text>
<line x1="632.50" y1="75" x2="632.50" y2="705" stroke="#dddddd" stroke-width="1"/>
<text x="632.50" y="737" text-anchor="middle" font-family="Arial" font-size="16" fill="black">3.500</text>
<line x1="888.75" y1="75" x2="888.75" y2="705" stroke="#dddddd" stroke-width="1"/>
<text x="888.75" y="737" text-anchor="middle" font-family="Arial" font-size="16" fill="black">5.530</text>
<line x1="1145.00" y1="75" x2="1145.00" y2="705" stroke="#dddddd" stroke-width="1"/>
<text x="1145.00" y="737" text-anchor="middle" font-family="Arial" font-size="16" fill="black">7.560</text>
<line x1="120" y1="705.00" x2="1145" y2="705.00" stroke="#dddddd" stroke-width="1"/>
<text x="104" y="710.00" text-anchor="end" font-family="Arial" font-size="16" fill="black">-2.686</text>
<line x1="120" y1="547.50" x2="1145" y2="547.50" stroke="#dddddd" stroke-width="1"/>
<text x="104" y="552.50" text-anchor="end" font-family="Arial" font-size="16" fill="black">-1.344</text>
<line x1="120" y1="390.00" x2="1145" y2="390.00" stroke="#dddddd" stroke-width="1"/>
<text x="104" y="395.00" text-anchor="end" font-family="Arial" font-size="16" fill="black">-0.002</text>
<line x1="120" y1="232.50" x2="1145" y2="232.50" stroke="#dddddd" stroke-width="1"/>
<text x="104" y="237.50" text-anchor="end" font-family="Arial" font-size="16" fill="black">1.339</text>
<line x1="120" y1="75.00" x2="1145" y2="75.00" stroke="#dddddd" stroke-width="1"/>
<text x="104" y="80.00" text-anchor="end" font-family="Arial" font-size="16" fill="black">2.681</text>
<rect x="120" y="75" width="1025" height="630" fill="none" stroke="black" stroke-width="2"/>
<text x="632.5" y="785" text-anchor="middle" font-family="Arial" font-size="20" fill="black">x coordinate [m]</text>
<text x="34" y="390.0" transform="rotate(-90 34 390.0)" text-anchor="middle" font-family="Arial" font-size="20" fill="black">vorticity:1 [SI]</text>
<polyline points="190.69,552.15 193.64,527.07 196.58,501.99 199.53,476.90 202.47,451.82 205.42,427.75 208.36,404.10 211.31,380.44 214.25,356.78 217.20,344.29 220.14,346.70 223.09,349.10 226.03,351.50 228.98,353.96 231.93,356.77 234.87,359.57 237.82,362.38 240.76,365.18 243.71,370.00 246.65,375.15 249.60,380.30 252.54,385.45 255.49,392.53 258.43,401.06 261.38,409.59 264.32,418.12 267.27,428.12 270.22,441.82 273.16,455.52 276.11,469.22 279.05,482.92 282.00,503.88 284.94,524.85 287.89,545.80 290.83,566.77 293.78,587.21 296.72,607.45 299.67,627.69 302.62,647.92 305.56,659.74 308.51,660.35 311.45,660.95 314.40,661.55 317.34,658.91 320.29,636.84 323.23,614.76 326.17,592.68 329.13,570.62 332.07,549.84 335.01,529.29 337.96,508.73 340.91,488.17 343.85,474.34 346.80,465.54 349.74,456.74 352.68,447.95 355.64,440.03 358.58,434.29 361.52,428.55 364.47,422.81 367.41,417.07 370.35,411.26 373.31,405.45 376.25,399.64 379.19,393.83 382.15,385.24 385.09,375.55 388.03,365.86 390.98,356.18 393.92,339.91 396.86,314.87 399.82,289.83 402.76,264.79 405.70,239.46 408.65,212.34 411.59,185.22 414.54,158.09 417.49,130.97 420.43,133.34 423.37,140.65 426.33,147.93 429.27,155.22 432.21,177.82 435.16,211.88 438.10,245.95 441.04,280.01 444.00,311.94 446.94,338.57 449.88,365.19 452.83,391.81 455.78,418.43 458.72,429.47 461.67,440.51 464.61,451.55 467.55,462.59 470.51,464.54 473.45,462.86 476.39,461.17 479.34,459.49 482.28,453.02 485.23,440.16 488.18,427.30 491.12,414.44 494.06,401.85 497.02,390.95 499.96,380.04 502.90,369.14 505.85,358.23 508.79,356.35 511.73,355.97 514.69,355.58 517.63,355.20 520.57,358.64 523.52,364.94 526.47,371.24 529.41,377.53 532.36,385.69 535.30,398.48 538.24,411.27 541.20,424.06 544.14,436.85 547.08,462.28 550.03,487.70 552.97,513.12 555.92,538.55 558.87,564.51 561.81,590.69 564.75,616.86 567.71,643.04 570.65,657.36 573.59,655.85 576.54,654.34 579.48,652.84 582.42,647.81 585.38,621.59 588.32,595.38 591.26,569.17 594.21,542.95 597.16,521.57 600.10,501.00 603.05,480.42 605.99,459.84 608.93,446.63 611.89,438.93 614.83,431.24 617.77,423.54 620.72,416.65 623.66,411.76 626.60,406.87 629.56,401.98 632.50,397.08 635.44,392.04 638.40,386.99 641.34,381.94 644.28,376.89 647.23,369.75 650.17,361.77 653.11,353.79 656.07,345.81 659.01,332.06 661.95,310.64 664.90,289.22 667.84,267.79 670.79,245.55 673.74,218.41 676.68,191.27 679.62,164.13 682.58,136.99 685.52,132.19 688.46,131.11 691.41,130.02 694.35,128.94 697.29,143.91 700.25,170.88 703.19,197.87 706.13,224.86 709.08,251.56 712.03,277.54 714.97,303.53 717.92,329.51 720.86,355.50 723.80,368.84 726.76,382.18 729.70,395.52 732.64,408.87 735.59,417.14 738.53,423.39 741.48,429.64 744.43,435.89 747.37,439.01 750.31,437.96 753.27,436.91 756.21,435.85 759.15,433.22 762.10,421.13 765.04,409.05 767.98,396.96 770.94,384.87 773.88,371.26 776.82,357.41 779.77,343.56 782.72,329.70 785.66,324.06 788.61,324.58 791.55,325.10 794.49,325.61 797.45,330.58 800.39,346.68 803.33,362.78 806.28,378.88 809.22,394.98 812.17,425.30 815.12,455.62 818.06,485.95 821.00,516.27 823.96,546.41 826.90,576.48 829.84,606.55 832.79,636.62 835.73,653.35 838.67,652.29 841.63,651.23 844.57,650.19 847.51,645.24 850.46,616.91 853.41,588.59 856.35,560.26 859.30,531.93 862.24,509.47 865.18,487.99 868.14,466.51 871.08,445.02 874.02,431.45 876.97,423.80 879.91,416.15 882.85,408.50 885.81,401.62 888.75,396.65 891.69,391.68 894.65,386.71 897.59,381.74 900.53,376.95 903.48,372.17 906.42,367.39 909.36,362.60 912.32,356.07 915.26,348.83 918.20,341.60 921.15,334.36 924.09,322.14 927.04,303.27 929.99,284.39 932.93,265.52 935.87,245.67 938.83,219.94 941.77,194.21 944.71,168.48 947.66,142.75 950.60,134.48 953.54,129.14 956.50,123.80 959.44,118.45 962.38,129.27 965.33,152.22 968.28,175.16 971.22,198.10 974.17,221.99 977.11,248.23 980.05,274.46 983.01,300.70 985.95,326.93 988.89,343.30 991.84,359.67 994.78,376.04 997.73,392.41 1000.68,404.94 1003.62,415.94 1006.56,426.94 1009.52,437.94 1012.46,446.02 1015.40,450.19 1018.35,454.37 1021.29,458.54 1024.23,461.57 1027.19,457.76 1030.13,453.95 1033.07,450.14 1036.02,446.34 1038.97,437.54 1041.91,427.90 1044.86,418.27 1047.80,408.64 1050.74,401.28 1053.70,395.64 1056.64,389.99 1059.58,384.35 1062.53,380.36 1065.47,380.52 1068.42,380.68 1071.37,380.84 1074.31,381.00" fill="none" stroke="#000000" stroke-width="3"/>
<line x1="142" y1="100" x2="178" y2="100" stroke="#000000" stroke-width="4"/>
<text x="188" y="105" font-family="Arial" font-size="18" fill="black">vorticity:1</text>
</svg>