<svg xmlns="http://www.w3.org/2000/svg" width="1200" height="820" viewBox="0 0 1200 820">
<rect width="100%" height="100%" fill="white"/>
<text x="600.0" y="36" text-anchor="middle" font-family="Arial" font-size="24" fill="black">profile_diagonal_supply_return: k</text>
<line x1="120.00" y1="75" x2="120.00" y2="705" stroke="#dddddd" stroke-width="1"/>
<text x="120.00" y="737" text-anchor="middle" font-family="Arial" font-size="16" fill="black">-0.729</text>
<line x1="376.25" y1="75" x2="376.25" y2="705" stroke="#dddddd" stroke-width="1"/>
<text x="376.25" y="737" text-anchor="middle" font-family="Arial" font-size="16" fill="black">1.913</text>
<line x1="632.50" y1="75" x2="632.50" y2="705" stroke="#dddddd" stroke-width="1"/>
<text x="632.50" y="737" text-anchor="middle" font-family="Arial" font-size="16" fill="black">4.555</text>
<line x1="888.75" y1="75" x2="888.75" y2="705" stroke="#dddddd" stroke-width="1"/>
<text x="888.75" y="737" text-anchor="middle" font-family="Arial" font-size="16" fill="black">7.197</text>
<line x1="1145.00" y1="75" x2="1145.00" y2="705" stroke="#dddddd" stroke-width="1"/>
<text x="1145.00" y="737" text-anchor="middle" font-family="Arial" font-size="16" fill="black">9.839</text>
<line x1="120" y1="705.00" x2="1145" y2="705.00" stroke="#dddddd" stroke-width="1"/>
<text x="104" y="710.00" text-anchor="end" font-family="Arial" font-size="16" fill="black">-0.001</text>
<line x1="120" y1="547.50" x2="1145" y2="547.50" stroke="#dddddd" stroke-width="1"/>
<text x="104" y="552.50" text-anchor="end" font-family="Arial" font-size="16" fill="black">0.008</text>
<line x1="120" y1="390.00" x2="1145" y2="390.00" stroke="#dddddd" stroke-width="1"/>
<text x="104" y="395.00" text-anchor="end" font-family="Arial" font-size="16" fill="black">0.018</text>
<line x1="120" y1="232.50" x2="1145" y2="232.50" stroke="#dddddd" stroke-width="1"/>
<text x="104" y="237.50" text-anchor="end" font-family="Arial" font-size="16" fill="black">0.028</text>
<line x1="120" y1="75.00" x2="1145" y2="75.00" stroke="#dddddd" stroke-width="1"/>
<text x="104" y="80.00" text-anchor="end" font-family="Arial" font-size="16" fill="black">0.038</text>
<rect x="120" y="75" width="1025" height="630" fill="none" stroke="black" stroke-width="2"/>
<text x="632.5" y="785" text-anchor="middle" font-family="Arial" font-size="20" fill="black">distance along sample line [m]</text>
<text x="34" y="390.0" transform="rotate(-90 34 390.0)" text-anchor="middle" font-family="Arial" font-size="20" fill="black">k [m2/s2]</text>
<polyline points="190.69,661.55 193.64,660.80 196.58,659.97 199.53,659.06 202.47,658.05 205.42,656.21 208.36,653.88 211.31,651.05 214.25,647.94 217.20,644.59 220.14,640.94 223.09,636.49 226.03,631.51 228.98,626.60 231.93,621.40 234.87,615.80 237.82,609.76 240.76,603.24 243.71,596.22 246.65,589.36 249.60,582.09 252.54,575.53 255.49,568.62 258.43,561.33 261.38,553.61 264.32,546.27 267.27,538.58 270.22,530.48 273.16,521.93 276.11,512.89 279.05,503.31 282.00,495.48 284.94,487.26 287.88,478.65 290.83,469.56 293.78,460.10 296.73,450.12 299.67,440.85 302.62,431.03 305.57,420.86 308.50,410.31 311.45,400.54 314.40,390.19 317.34,380.89 320.29,371.93 323.24,362.31 326.18,352.04 329.12,341.08 332.07,331.05 335.01,322.12 337.96,312.46 340.91,303.84 343.85,296.01 346.80,288.77 349.74,281.20 352.68,274.47 355.63,267.88 358.58,262.65 361.53,257.16 364.47,251.47 367.42,245.59 370.36,243.94 373.30,242.16 376.25,240.28 379.20,238.36 382.14,237.55 385.09,237.34 388.04,237.98 390.97,238.70 393.92,239.99 396.87,242.09 399.81,244.25 402.76,246.64 405.71,249.62 408.65,253.16 411.59,256.93 414.54,260.94 417.48,265.28 420.43,269.80 423.38,274.66 426.32,279.83 429.27,283.64 432.21,287.19 435.16,290.64 438.10,294.39 441.05,298.21 444.00,301.91 446.94,304.98 449.89,308.29 452.84,311.90 455.77,315.82 458.72,315.95 461.67,316.28 464.61,316.84 467.56,317.62 470.51,317.42 473.45,316.97 476.39,316.28 479.34,315.81 482.28,314.74 485.23,312.84 488.18,309.67 491.12,306.75 494.07,303.25 497.01,298.25 499.96,293.54 502.90,289.11 505.85,284.96 508.80,279.11 511.74,272.75 514.69,266.73 517.63,260.26 520.57,252.75 523.52,244.60 526.47,236.86 529.41,229.16 532.36,221.30 535.31,212.30 538.24,203.85 541.19,195.96 544.14,188.59 547.08,179.34 550.03,170.77 552.98,162.91 555.92,155.75 558.86,149.00 561.81,142.79 564.76,136.87 567.70,131.72 570.65,127.73 573.60,124.96 576.54,122.44 579.49,120.55 582.43,118.46 585.37,118.45 588.32,118.96 591.27,119.96 594.21,121.45 597.16,124.96 600.11,126.57 603.04,128.35 605.99,130.07 608.94,132.88 611.88,136.44 614.83,140.07 617.78,140.65 620.72,141.53 623.66,143.18 626.61,144.81 629.55,146.37 632.50,147.86 635.45,147.55 638.40,147.35 641.34,147.19 644.28,147.04 647.23,147.08 650.17,147.17 653.12,146.18 656.07,145.18 659.01,144.08 661.96,142.86 664.90,141.76 667.84,140.63 670.79,139.39 673.74,138.16 676.68,136.77 679.63,135.23 682.58,133.52 685.51,132.75 688.46,132.48 691.41,132.00 694.35,131.64 697.30,132.45 700.25,134.24 703.20,136.02 706.14,138.30 709.08,141.17 712.03,145.80 714.97,150.46 717.92,155.21 720.87,160.02 723.81,167.19 726.76,174.39 729.70,181.70 732.64,189.10 735.59,196.29 738.54,203.40 741.48,211.17 744.43,218.98 747.38,226.11 750.31,232.29 753.26,238.70 756.21,245.04 759.15,251.58 762.10,256.18 765.05,260.67 767.99,265.11 770.93,269.46 773.88,272.14 776.83,274.93 779.77,277.71 782.72,280.27 785.67,282.08 788.61,283.32 791.55,284.60 794.50,286.06 797.44,287.43 800.39,288.60 803.34,289.92 806.28,291.42 809.23,293.13 812.17,294.39 815.11,295.82 818.06,297.47 821.01,299.32 823.95,302.15 826.90,305.58 829.85,308.33 832.79,311.26 835.73,315.12 838.68,320.10 841.63,324.51 844.57,329.14 847.52,333.14 850.47,338.56 853.41,344.00 856.35,349.47 859.30,354.97 862.24,360.86 865.19,365.66 868.14,370.22 871.08,373.62 874.03,376.23 876.97,378.18 879.91,379.95 882.86,380.75 885.81,380.79 888.75,379.42 891.70,378.08 894.65,376.78 897.58,375.52 900.53,372.63 903.48,370.30 906.43,368.50 909.37,367.22 912.32,366.71 915.27,366.90 918.20,367.64 921.15,368.77 924.10,370.68 927.04,373.36 929.99,375.71 932.94,378.24 935.88,380.52 938.82,383.23 941.77,385.87 944.71,388.42 947.66,390.87 950.61,393.46 953.55,395.51 956.50,397.49 959.44,399.42 962.38,401.62 965.33,404.09 968.28,406.61 971.22,408.94 974.17,411.51 977.12,414.73 980.06,418.05 983.00,421.48 985.95,424.99 988.90,430.66 991.84,436.37 994.79,442.11 997.74,447.89 1000.68,455.19 1003.62,463.48 1006.57,472.83 1009.51,482.75 1012.46,493.53 1015.41,505.27 1018.35,519.97 1021.30,535.01 1024.24,551.34 1027.18,563.85 1030.13,575.82 1033.08,587.28 1036.02,598.28 1038.97,606.63 1041.92,614.95 1044.86,622.41 1047.80,628.62 1050.75,633.62 1053.70,637.64 1056.64,641.09 1059.59,643.10 1062.54,644.71 1065.47,645.88 1068.42,646.91 1071.37,647.81 1074.31,648.62" fill="none" stroke="#000000" stroke-width="3"/>
<line x1="142" y1="100" x2="178" y2="100" stroke="#000000" stroke-width="4"/>
<text x="188" y="105" font-family="Arial" font-size="18" fill="black">k</text>
</svg>