<svg xmlns="http://www.w3.org/2000/svg" width="1200" height="820" viewBox="0 0 1200 820">
<rect width="100%" height="100%" fill="white"/>
<text x="600.0" y="36" text-anchor="middle" font-family="Arial" font-size="24" fill="black">profile_center_y: vorticity:0</text>
<line x1="120.00" y1="75" x2="120.00" y2="705" stroke="#dddddd" stroke-width="1"/>
<text x="120.00" y="737" text-anchor="middle" font-family="Arial" font-size="16" fill="black">-0.400</text>
<line x1="376.25" y1="75" x2="376.25" y2="705" stroke="#dddddd" stroke-width="1"/>
<text x="376.25" y="737" text-anchor="middle" font-family="Arial" font-size="16" fill="black">1.050</text>
<line x1="632.50" y1="75" x2="632.50" y2="705" stroke="#dddddd" stroke-width="1"/>
<text x="632.50" y="737" text-anchor="middle" font-family="Arial" font-size="16" fill="black">2.500</text>
<line x1="888.75" y1="75" x2="888.75" y2="705" stroke="#dddddd" stroke-width="1"/>
<text x="888.75" y="737" text-anchor="middle" font-family="Arial" font-size="16" fill="black">3.950</text>
<line x1="1145.00" y1="75" x2="1145.00" y2="705" stroke="#dddddd" stroke-width="1"/>
<text x="1145.00" y="737" text-anchor="middle" font-family="Arial" font-size="16" fill="black">5.400</text>
<line x1="120" y1="705.00" x2="1145" y2="705.00" stroke="#dddddd" stroke-width="1"/>
<text x="104" y="710.00" text-anchor="end" font-family="Arial" font-size="16" fill="black">-3.709</text>
<line x1="120" y1="547.50" x2="1145" y2="547.50" stroke="#dddddd" stroke-width="1"/>
<text x="104" y="552.50" text-anchor="end" font-family="Arial" font-size="16" fill="black">-1.638</text>
<line x1="120" y1="390.00" x2="1145" y2="390.00" stroke="#dddddd" stroke-width="1"/>
<text x="104" y="395.00" text-anchor="end" font-family="Arial" font-size="16" fill="black">0.433</text>
<line x1="120" y1="232.50" x2="1145" y2="232.50" stroke="#dddddd" stroke-width="1"/>
<text x="104" y="237.50" text-anchor="end" font-family="Arial" font-size="16" fill="black">2.504</text>
<line x1="120" y1="75.00" x2="1145" y2="75.00" stroke="#dddddd" stroke-width="1"/>
<text x="104" y="80.00" text-anchor="end" font-family="Arial" font-size="16" fill="black">4.576</text>
<rect x="120" y="75" width="1025" height="630" fill="none" stroke="black" stroke-width="2"/>
<text x="632.5" y="785" text-anchor="middle" font-family="Arial" font-size="20" fill="black">y coordinate [m]</text>
<text x="34" y="390.0" transform="rotate(-90 34 390.0)" text-anchor="middle" font-family="Arial" font-size="20" fill="black">vorticity:0 [SI]</text>
<polyline points="190.69,661.55 193.64,641.28 196.58,621.00 199.53,600.73 202.47,580.46 205.42,560.18 208.36,539.91 211.31,519.26 214.25,498.61 217.20,477.96 220.14,457.31 223.09,436.66 226.03,416.02 228.98,415.11 231.92,414.20 234.87,413.30 237.82,412.39 240.76,411.49 243.71,410.58 246.65,409.41 249.60,408.23 252.54,407.06 255.49,405.88 258.43,404.71 261.38,403.54 264.33,402.21 267.27,400.88 270.22,399.55 273.16,398.22 276.11,396.89 279.05,395.56 282.00,394.10 284.94,392.64 287.89,391.18 290.83,389.73 293.78,388.27 296.72,386.81 299.67,385.05 302.61,383.29 305.56,381.54 308.51,379.78 311.45,378.02 314.40,376.27 317.34,373.87 320.29,371.46 323.23,369.06 326.18,366.66 329.12,364.26 332.07,361.85 335.01,358.44 337.96,355.03 340.91,351.62 343.85,348.20 346.80,344.79 349.74,341.38 352.69,338.04 355.63,334.70 358.58,331.37 361.52,328.03 364.47,324.69 367.41,321.36 370.37,320.37 373.30,319.38 376.25,318.39 379.20,317.39 382.13,316.41 385.09,315.42 388.04,317.38 390.97,319.35 393.92,321.32 396.87,323.29 399.81,325.26 402.76,327.22 405.71,331.01 408.64,334.79 411.59,338.57 414.55,342.35 417.48,346.13 420.43,349.91 423.38,354.13 426.32,358.35 429.27,362.58 432.22,366.80 435.15,371.02 438.10,375.24 441.05,379.05 443.99,382.87 446.94,386.68 449.89,390.50 452.82,394.31 455.78,398.13 458.73,401.48 461.66,404.84 464.61,408.20 467.56,411.55 470.50,414.91 473.45,418.27 476.40,421.57 479.33,424.87 482.28,428.17 485.24,431.47 488.17,434.77 491.12,438.08 494.07,441.66 497.01,445.24 499.96,448.83 502.91,452.41 505.84,455.99 508.79,459.57 511.74,463.07 514.68,466.57 517.63,470.07 520.58,473.57 523.51,477.07 526.47,480.57 529.42,482.50 532.35,484.43 535.30,486.37 538.25,488.30 541.19,490.24 544.14,492.17 547.09,491.52 550.02,490.87 552.97,490.22 555.93,489.57 558.86,488.92 561.81,488.27 564.76,486.02 567.70,483.77 570.65,481.52 573.60,479.27 576.53,477.02 579.48,474.77 582.43,472.24 585.37,469.71 588.32,467.18 591.27,464.65 594.20,462.12 597.16,459.59 600.11,457.28 603.04,454.96 605.99,452.65 608.94,450.33 611.88,448.02 614.83,445.71 617.78,443.76 620.71,441.82 623.66,439.87 626.62,437.93 629.55,435.99 632.50,434.04 635.45,432.44 638.38,430.84 641.34,429.23 644.29,427.63 647.22,426.03 650.17,424.42 653.12,423.08 656.06,421.74 659.01,420.40 661.96,419.06 664.89,417.72 667.84,416.38 670.80,415.33 673.73,414.29 676.68,413.24 679.63,412.20 682.57,411.15 685.52,410.11 688.47,409.67 691.40,409.23 694.35,408.79 697.30,408.35 700.24,407.91 703.19,407.47 706.14,408.28 709.07,409.09 712.03,409.90 714.98,410.71 717.91,411.52 720.86,412.32 723.81,414.66 726.75,416.99 729.70,419.33 732.65,421.66 735.58,424.00 738.53,426.33 741.49,429.53 744.42,432.73 747.37,435.93 750.32,439.12 753.26,442.32 756.21,445.52 759.16,448.65 762.09,451.78 765.04,454.91 767.99,458.04 770.93,461.17 773.88,464.30 776.83,466.82 779.76,469.34 782.72,471.87 785.67,474.39 788.60,476.91 791.55,479.44 794.50,481.21 797.44,482.98 800.39,484.75 803.34,486.52 806.27,488.30 809.22,490.07 812.18,491.17 815.11,492.27 818.06,493.37 821.01,494.47 823.95,495.57 826.90,496.67 829.85,497.29 832.78,497.91 835.73,498.53 838.68,499.15 841.62,499.76 844.57,500.38 847.52,500.70 850.45,501.02 853.41,501.34 856.36,501.65 859.29,501.97 862.24,502.29 865.19,502.36 868.13,502.42 871.08,502.50 874.03,502.57 876.96,502.64 879.91,502.71 882.87,502.33 885.80,501.97 888.75,501.59 891.70,501.22 894.63,500.85 897.59,500.48 900.54,499.52 903.47,498.56 906.42,497.60 909.37,496.64 912.31,495.68 915.26,494.71 918.21,493.39 921.14,492.06 924.09,490.73 927.05,489.41 929.98,488.08 932.93,486.75 935.88,485.33 938.82,483.91 941.77,482.48 944.72,481.06 947.65,479.64 950.60,478.22 953.55,476.79 956.49,475.37 959.44,473.95 962.39,472.53 965.32,471.11 968.28,469.68 971.23,468.29 974.16,466.90 977.11,465.51 980.06,464.12 983.00,462.73 985.95,461.33 988.90,459.98 991.83,458.62 994.78,457.26 997.74,455.91 1000.67,454.55 1003.62,453.19 1006.57,451.84 1009.51,450.49 1012.46,449.13 1015.41,447.78 1018.34,446.43 1021.29,445.07 1024.24,443.41 1027.18,441.75 1030.13,440.09 1033.08,438.42 1036.01,436.76 1038.97,435.10 1041.92,408.22 1044.85,381.35 1047.80,354.47 1050.75,327.59 1053.69,300.72 1056.64,273.83 1059.59,247.94 1062.52,222.04 1065.47,196.15 1068.43,170.24 1071.36,144.35 1074.31,118.45" fill="none" stroke="#000000" stroke-width="3"/>
<line x1="142" y1="100" x2="178" y2="100" stroke="#000000" stroke-width="4"/>
<text x="188" y="105" font-family="Arial" font-size="18" fill="black">vorticity:0</text>
</svg>