<svg xmlns="http://www.w3.org/2000/svg" width="1200" height="820" viewBox="0 0 1200 820">
<rect width="100%" height="100%" fill="white"/>
<text x="600.0" y="36" text-anchor="middle" font-family="Arial" font-size="24" fill="black">profile_center_x: U:2</text>
<line x1="120.00" y1="75" x2="120.00" y2="705" stroke="#dddddd" stroke-width="1"/>
<text x="120.00" y="737" text-anchor="middle" font-family="Arial" font-size="16" fill="black">-0.560</text>
<line x1="376.25" y1="75" x2="376.25" y2="705" stroke="#dddddd" stroke-width="1"/>
<text x="376.25" y="737" text-anchor="middle" font-family="Arial" font-size="16" fill="black">1.470</text>
<line x1="632.50" y1="75" x2="632.50" y2="705" stroke="#dddddd" stroke-width="1"/>
<text x="632.50" y="737" text-anchor="middle" font-family="Arial" font-size="16" fill="black">3.500</text>
<line x1="888.75" y1="75" x2="888.75" y2="705" stroke="#dddddd" stroke-width="1"/>
<text x="888.75" y="737" text-anchor="middle" font-family="Arial" font-size="16" fill="black">5.530</text>
<line x1="1145.00" y1="75" x2="1145.00" y2="705" stroke="#dddddd" stroke-width="1"/>
<text x="1145.00" y="737" text-anchor="middle" font-family="Arial" font-size="16" fill="black">7.560</text>
<line x1="120" y1="705.00" x2="1145" y2="705.00" stroke="#dddddd" stroke-width="1"/>
<text x="104" y="710.00" text-anchor="end" font-family="Arial" font-size="16" fill="black">-0.250</text>
<line x1="120" y1="547.50" x2="1145" y2="547.50" stroke="#dddddd" stroke-width="1"/>
<text x="104" y="552.50" text-anchor="end" font-family="Arial" font-size="16" fill="black">-0.122</text>
<line x1="120" y1="390.00" x2="1145" y2="390.00" stroke="#dddddd" stroke-width="1"/>
<text x="104" y="395.00" text-anchor="end" font-family="Arial" font-size="16" fill="black">0.006</text>
<line x1="120" y1="232.50" x2="1145" y2="232.50" stroke="#dddddd" stroke-width="1"/>
<text x="104" y="237.50" text-anchor="end" font-family="Arial" font-size="16" fill="black">0.134</text>
<line x1="120" y1="75.00" x2="1145" y2="75.00" stroke="#dddddd" stroke-width="1"/>
<text x="104" y="80.00" text-anchor="end" font-family="Arial" font-size="16" fill="black">0.262</text>
<rect x="120" y="75" width="1025" height="630" fill="none" stroke="black" stroke-width="2"/>
<text x="632.5" y="785" text-anchor="middle" font-family="Arial" font-size="20" fill="black">x coordinate [m]</text>
<text x="34" y="390.0" transform="rotate(-90 34 390.0)" text-anchor="middle" font-family="Arial" font-size="20" fill="black">U:2 [SI]</text>
<polyline points="190.69,661.55 193.64,654.35 196.58,647.16 199.53,639.95 202.47,632.76 205.42,622.07 208.36,609.99 211.31,597.90 214.25,585.82 217.20,575.00 220.14,565.86 223.09,556.71 226.03,547.56 228.98,538.50 231.93,529.96 234.87,521.42 237.82,512.88 240.76,504.33 243.71,495.73 246.65,487.11 249.60,478.50 252.54,469.88 255.49,461.55 258.43,453.44 261.38,445.33 264.32,437.21 267.27,429.56 270.22,423.08 273.16,416.59 276.11,410.10 279.05,403.62 282.00,399.35 284.94,395.08 287.89,390.81 290.83,386.54 293.78,383.70 296.72,381.42 299.67,379.15 302.62,376.87 305.56,375.13 308.51,374.11 311.45,373.08 314.40,372.05 317.34,371.04 320.29,370.12 323.23,369.20 326.17,368.28 329.13,367.36 332.07,365.13 335.01,362.68 337.96,360.23 340.91,357.78 343.85,353.38 346.80,347.51 349.74,341.65 352.68,335.78 355.64,328.77 358.58,318.87 361.52,308.98 364.47,299.09 367.41,289.20 370.35,277.00 373.31,264.79 376.25,252.60 379.19,240.39 382.15,228.51 385.09,216.76 388.03,205.01 390.98,193.26 393.92,182.64 396.86,173.52 399.82,164.40 402.76,155.28 405.70,146.68 408.65,141.29 411.59,135.89 414.54,130.49 417.49,125.09 420.43,123.02 423.37,121.50 426.33,119.97 429.27,118.45 432.21,118.87 435.16,120.75 438.10,122.63 441.04,124.51 444.00,127.14 446.94,131.64 449.88,136.14 452.83,140.64 455.78,145.15 458.72,151.44 461.67,157.72 464.61,164.02 467.55,170.31 470.51,177.32 473.45,184.62 476.39,191.91 479.34,199.21 482.28,206.62 485.23,214.19 488.18,221.77 491.12,229.34 494.06,236.86 497.02,244.05 499.96,251.23 502.90,258.41 505.85,265.60 508.79,271.94 511.73,278.15 514.69,284.35 517.63,290.55 520.57,295.94 523.52,300.70 526.47,305.47 529.41,310.24 532.36,314.51 535.30,317.57 538.24,320.62 541.20,323.67 544.14,326.72 547.08,327.98 550.03,329.23 552.97,330.49 555.92,331.75 558.87,331.82 561.81,331.43 564.75,331.04 567.71,330.64 570.65,329.71 573.59,328.04 576.54,326.38 579.48,324.71 582.42,322.95 585.38,320.56 588.32,318.17 591.26,315.78 594.21,313.39 597.16,310.89 600.10,308.36 603.05,305.83 605.99,303.31 608.93,301.00 611.89,298.87 614.83,296.74 617.77,294.61 620.72,292.74 623.66,291.53 626.60,290.32 629.56,289.12 632.50,287.91 635.44,288.20 638.40,288.49 641.34,288.78 644.28,289.07 647.23,290.76 650.17,293.01 653.11,295.26 656.07,297.51 659.01,300.63 661.95,304.91 664.90,309.19 667.84,313.47 670.79,317.96 673.74,323.73 676.68,329.49 679.62,335.26 682.58,341.02 685.52,347.05 688.46,353.11 691.41,359.18 694.35,365.24 697.29,370.56 700.25,375.33 703.19,380.09 706.13,384.85 709.08,388.81 712.03,390.76 714.97,392.70 717.92,394.65 720.86,396.59 723.80,394.96 726.76,393.32 729.70,391.69 732.64,390.05 735.59,386.00 738.53,380.97 741.48,375.94 744.43,370.91 747.37,364.76 750.31,357.11 753.27,349.46 756.21,341.81 759.15,333.93 762.10,324.65 765.04,315.38 767.98,306.11 770.94,296.84 773.88,287.07 776.82,277.21 779.77,267.35 782.72,257.50 785.66,247.85 788.61,238.36 791.55,228.87 794.49,219.38 797.45,210.24 800.39,201.91 803.33,193.60 806.28,185.29 809.22,176.97 812.17,170.45 815.12,163.92 818.06,157.39 821.00,150.86 823.96,145.87 826.90,141.48 829.84,137.10 832.79,132.72 835.73,129.28 838.67,127.08 841.63,124.89 844.57,122.70 847.51,120.78 850.46,120.53 853.41,120.27 856.35,120.01 859.30,119.74 862.24,120.72 865.18,121.91 868.14,123.11 871.08,124.30 874.02,126.04 876.97,128.21 879.91,130.38 882.85,132.55 885.81,134.92 888.75,137.80 891.69,140.67 894.65,143.55 897.59,146.43 900.53,149.90 903.48,153.38 906.42,156.86 909.36,160.34 912.32,164.18 915.26,168.17 918.20,172.15 921.15,176.15 924.09,180.29 927.04,184.66 929.99,189.02 932.93,193.38 935.87,197.78 938.83,202.37 941.77,206.95 944.71,211.55 947.66,216.14 950.60,220.83 953.54,225.54 956.50,230.25 959.44,234.97 962.38,239.75 965.33,244.61 968.28,249.45 971.22,254.29 974.17,259.21 977.11,264.26 980.05,269.31 983.01,274.38 985.95,279.43 988.89,284.67 991.84,289.92 994.78,295.17 997.73,300.41 1000.68,305.56 1003.62,310.67 1006.56,315.78 1009.52,320.89 1012.46,325.58 1015.40,329.70 1018.35,333.83 1021.29,337.96 1024.23,341.73 1027.19,343.36 1030.13,344.99 1033.07,346.63 1036.02,348.26 1038.97,346.18 1041.91,343.47 1044.86,340.77 1047.80,338.07 1050.74,332.26 1053.70,324.13 1056.64,316.00 1059.58,307.87 1062.53,300.50 1065.47,295.04 1068.42,289.57 1071.37,284.10 1074.31,278.64" fill="none" stroke="#000000" stroke-width="3"/>
<line x1="142" y1="100" x2="178" y2="100" stroke="#000000" stroke-width="4"/>
<text x="188" y="105" font-family="Arial" font-size="18" fill="black">U:2</text>
</svg>