<svg xmlns="http://www.w3.org/2000/svg" width="1200" height="820" viewBox="0 0 1200 820">
<rect width="100%" height="100%" fill="white"/>
<text x="600.0" y="36" text-anchor="middle" font-family="Arial" font-size="24" fill="black">profile_center_x: vorticity:0</text>
<line x1="120.00" y1="75" x2="120.00" y2="705" stroke="#dddddd" stroke-width="1"/>
<text x="120.00" y="737" text-anchor="middle" font-family="Arial" font-size="16" fill="black">-0.560</text>
<line x1="376.25" y1="75" x2="376.25" y2="705" stroke="#dddddd" stroke-width="1"/>
<text x="376.25" y="737" text-anchor="middle" font-family="Arial" font-size="16" fill="black">1.470</text>
<line x1="632.50" y1="75" x2="632.50" y2="705" stroke="#dddddd" stroke-width="1"/>
<text x="632.50" y="737" text-anchor="middle" font-family="Arial" font-size="16" fill="black">3.500</text>
<line x1="888.75" y1="75" x2="888.75" y2="705" stroke="#dddddd" stroke-width="1"/>
<text x="888.75" y="737" text-anchor="middle" font-family="Arial" font-size="16" fill="black">5.530</text>
<line x1="1145.00" y1="75" x2="1145.00" y2="705" stroke="#dddddd" stroke-width="1"/>
<text x="1145.00" y="737" text-anchor="middle" font-family="Arial" font-size="16" fill="black">7.560</text>
<line x1="120" y1="705.00" x2="1145" y2="705.00" stroke="#dddddd" stroke-width="1"/>
<text x="104" y="710.00" text-anchor="end" font-family="Arial" font-size="16" fill="black">-0.775</text>
<line x1="120" y1="547.50" x2="1145" y2="547.50" stroke="#dddddd" stroke-width="1"/>
<text x="104" y="552.50" text-anchor="end" font-family="Arial" font-size="16" fill="black">-0.580</text>
<line x1="120" y1="390.00" x2="1145" y2="390.00" stroke="#dddddd" stroke-width="1"/>
<text x="104" y="395.00" text-anchor="end" font-family="Arial" font-size="16" fill="black">-0.384</text>
<line x1="120" y1="232.50" x2="1145" y2="232.50" stroke="#dddddd" stroke-width="1"/>
<text x="104" y="237.50" text-anchor="end" font-family="Arial" font-size="16" fill="black">-0.189</text>
<line x1="120" y1="75.00" x2="1145" y2="75.00" stroke="#dddddd" stroke-width="1"/>
<text x="104" y="80.00" text-anchor="end" font-family="Arial" font-size="16" fill="black">0.007</text>
<rect x="120" y="75" width="1025" height="630" fill="none" stroke="black" stroke-width="2"/>
<text x="632.5" y="785" text-anchor="middle" font-family="Arial" font-size="20" fill="black">x coordinate [m]</text>
<text x="34" y="390.0" transform="rotate(-90 34 390.0)" text-anchor="middle" font-family="Arial" font-size="20" fill="black">vorticity:0 [SI]</text>
<polyline points="190.69,225.58 193.64,241.55 196.58,257.52 199.53,273.48 202.47,289.45 205.42,314.25 208.36,342.59 211.31,370.93 214.25,399.26 217.20,424.83 220.14,446.70 223.09,468.57 226.03,490.45 228.98,511.16 231.93,524.88 234.87,538.61 237.82,552.33 240.76,566.05 243.71,568.93 246.65,570.00 249.60,571.07 252.54,572.13 255.49,565.32 258.43,552.60 261.38,539.88 264.32,527.16 267.27,512.24 270.22,491.82 273.16,471.40 276.11,450.98 279.05,430.56 282.00,411.34 284.94,392.12 287.89,372.91 290.83,353.69 293.78,338.63 296.72,325.25 299.67,311.85 302.62,298.47 305.56,288.20 308.51,282.10 311.45,276.00 314.40,269.90 317.34,265.06 320.29,267.75 323.23,270.43 326.17,273.13 329.13,275.82 332.07,286.55 335.01,298.63 337.96,310.71 340.91,322.79 343.85,337.29 346.80,353.61 349.74,369.93 352.68,386.25 355.64,400.68 358.58,410.36 361.52,420.06 364.47,429.75 367.41,439.45 370.35,438.07 373.31,436.69 376.25,435.31 379.19,433.93 382.15,428.22 385.09,420.78 388.03,413.32 390.98,405.88 393.92,398.08 396.86,389.84 399.82,381.60 402.76,373.35 405.70,365.29 408.65,358.27 411.59,351.26 414.54,344.24 417.49,337.22 420.43,331.02 423.37,324.95 426.33,318.87 429.27,312.80 432.21,306.78 435.16,300.77 438.10,294.78 441.04,288.78 444.00,282.64 446.94,276.16 449.88,269.69 452.83,263.21 455.78,256.74 458.72,249.73 461.67,242.74 464.61,235.74 467.55,228.74 470.51,221.63 473.45,214.48 476.39,207.33 479.34,200.18 482.28,193.21 485.23,186.49 488.18,179.77 491.12,173.05 494.06,166.49 497.02,160.84 499.96,155.18 502.90,149.53 505.85,143.87 508.79,139.63 511.73,135.62 514.69,131.62 517.63,127.61 520.57,124.87 523.52,123.07 526.47,121.27 529.41,119.47 532.36,118.45 535.30,119.36 538.24,120.26 541.20,121.17 544.14,122.08 547.08,125.87 550.03,129.67 552.97,133.46 555.92,137.26 558.87,142.72 561.81,148.85 564.75,154.98 567.71,161.11 570.65,167.58 573.59,174.50 576.54,181.42 579.48,188.35 582.42,195.06 585.38,200.54 588.32,206.01 591.26,211.49 594.21,216.96 597.16,219.48 600.10,221.51 603.05,223.54 605.99,225.57 608.93,225.31 611.89,223.34 614.83,221.36 617.77,219.39 620.72,216.64 623.66,211.95 626.60,207.26 629.56,202.57 632.50,197.88 635.44,192.36 638.40,186.84 641.34,181.32 644.28,175.80 647.23,170.80 650.17,165.99 653.11,161.20 656.07,156.40 659.01,152.42 661.95,149.54 664.90,146.65 667.84,143.77 670.79,141.27 673.74,141.07 676.68,140.87 679.62,140.67 682.58,140.46 685.52,142.96 688.46,145.91 691.41,148.86 694.35,151.81 697.29,156.65 700.25,162.89 703.19,169.13 706.13,175.37 709.08,182.22 712.03,190.59 714.97,198.96 717.92,207.32 720.86,215.70 723.80,224.29 726.76,232.90 729.70,241.51 732.64,250.10 735.59,258.18 738.53,266.04 741.48,273.89 744.43,281.75 747.37,289.19 750.31,296.05 753.27,302.92 756.21,309.78 759.15,316.50 762.10,322.28 765.04,328.07 767.98,333.84 770.94,339.63 773.88,344.37 776.82,348.93 779.77,353.49 782.72,358.05 785.66,361.76 788.61,364.83 791.55,367.89 794.49,370.96 797.45,373.48 800.39,374.63 803.33,375.79 806.28,376.95 809.22,378.10 812.17,376.86 815.12,375.62 818.06,374.37 821.00,373.13 823.96,369.88 826.90,365.83 829.84,361.78 832.79,357.74 835.73,352.43 838.67,345.46 841.63,338.49 844.57,331.52 847.51,324.17 850.46,314.67 853.41,305.15 856.35,295.64 859.30,286.12 862.24,275.48 865.18,264.64 868.14,253.81 871.08,242.97 874.02,232.79 876.97,223.10 879.91,213.41 882.85,203.72 885.81,195.10 888.75,189.15 891.69,183.21 894.65,177.25 897.59,171.30 900.53,170.19 903.48,169.07 906.42,167.95 909.36,166.83 912.32,169.04 915.26,172.57 918.20,176.10 921.15,179.63 924.09,184.79 927.04,192.09 929.99,199.40 932.93,206.72 935.87,214.37 938.83,224.03 941.77,233.70 944.71,243.37 947.66,253.04 950.60,263.46 953.54,274.00 956.50,284.54 959.44,295.08 962.38,305.73 965.33,316.45 968.28,327.19 971.22,337.91 974.17,348.83 977.11,360.20 980.05,371.58 983.01,382.96 985.95,394.33 988.89,407.43 991.84,420.54 994.78,433.64 997.73,446.75 1000.68,461.62 1003.62,477.21 1006.56,492.78 1009.52,508.37 1012.46,524.60 1015.40,541.69 1018.35,558.78 1021.29,575.87 1024.23,592.57 1027.19,606.96 1030.13,621.34 1033.07,635.73 1036.02,650.10 1038.97,654.24 1041.91,656.68 1044.86,659.12 1047.80,661.55 1050.74,646.78 1053.70,619.09 1056.64,591.41 1059.58,563.73 1062.53,537.00 1065.47,512.61 1068.42,488.23 1071.37,463.85 1074.31,439.47" fill="none" stroke="#000000" stroke-width="3"/>
<line x1="142" y1="100" x2="178" y2="100" stroke="#000000" stroke-width="4"/>
<text x="188" y="105" font-family="Arial" font-size="18" fill="black">vorticity:0</text>
</svg>