<svg xmlns="http://www.w3.org/2000/svg" width="1200" height="820" viewBox="0 0 1200 820">
<rect width="100%" height="100%" fill="white"/>
<text x="600.0" y="36" text-anchor="middle" font-family="Arial" font-size="24" fill="black">profile_rack_height_x: U, V, W components</text>
<line x1="120.00" y1="75" x2="120.00" y2="705" stroke="#dddddd" stroke-width="1"/>
<text x="120.00" y="737" text-anchor="middle" font-family="Arial" font-size="16" fill="black">-0.560</text>
<line x1="376.25" y1="75" x2="376.25" y2="705" stroke="#dddddd" stroke-width="1"/>
<text x="376.25" y="737" text-anchor="middle" font-family="Arial" font-size="16" fill="black">1.470</text>
<line x1="632.50" y1="75" x2="632.50" y2="705" stroke="#dddddd" stroke-width="1"/>
<text x="632.50" y="737" text-anchor="middle" font-family="Arial" font-size="16" fill="black">3.500</text>
<line x1="888.75" y1="75" x2="888.75" y2="705" stroke="#dddddd" stroke-width="1"/>
<text x="888.75" y="737" text-anchor="middle" font-family="Arial" font-size="16" fill="black">5.530</text>
<line x1="1145.00" y1="75" x2="1145.00" y2="705" stroke="#dddddd" stroke-width="1"/>
<text x="1145.00" y="737" text-anchor="middle" font-family="Arial" font-size="16" fill="black">7.560</text>
<line x1="120" y1="705.00" x2="1145" y2="705.00" stroke="#dddddd" stroke-width="1"/>
<text x="104" y="710.00" text-anchor="end" font-family="Arial" font-size="16" fill="black">-0.250</text>
<line x1="120" y1="547.50" x2="1145" y2="547.50" stroke="#dddddd" stroke-width="1"/>
<text x="104" y="552.50" text-anchor="end" font-family="Arial" font-size="16" fill="black">-0.122</text>
<line x1="120" y1="390.00" x2="1145" y2="390.00" stroke="#dddddd" stroke-width="1"/>
<text x="104" y="395.00" text-anchor="end" font-family="Arial" font-size="16" fill="black">0.006</text>
<line x1="120" y1="232.50" x2="1145" y2="232.50" stroke="#dddddd" stroke-width="1"/>
<text x="104" y="237.50" text-anchor="end" font-family="Arial" font-size="16" fill="black">0.134</text>
<line x1="120" y1="75.00" x2="1145" y2="75.00" stroke="#dddddd" stroke-width="1"/>
<text x="104" y="80.00" text-anchor="end" font-family="Arial" font-size="16" fill="black">0.262</text>
<rect x="120" y="75" width="1025" height="630" fill="none" stroke="black" stroke-width="2"/>
<text x="632.5" y="785" text-anchor="middle" font-family="Arial" font-size="20" fill="black">x coordinate [m]</text>
<text x="34" y="390.0" transform="rotate(-90 34 390.0)" text-anchor="middle" font-family="Arial" font-size="20" fill="black">velocity component [m/s]</text>
<polyline points="190.69,402.21 193.64,402.69 196.58,403.16 199.53,403.64 202.47,404.12 205.42,404.92 208.36,405.85 211.31,406.78 214.25,407.71 217.20,408.45 220.14,408.95 223.09,409.46 226.03,409.96 228.98,410.30 231.93,409.69 234.87,409.08 237.82,408.47 240.76,407.86 243.71,405.70 246.65,403.29 249.60,400.87 252.54,398.46 255.49,394.86 258.43,390.38 261.38,385.90 264.32,381.42 267.27,376.53 270.22,370.65 273.16,364.76 276.11,358.88 279.05,352.99 282.00,346.57 284.94,340.15 287.89,333.73 290.83,327.31 293.78,320.82 296.72,314.30 299.67,307.79 302.62,301.27 305.56,294.79 308.51,288.37 311.45,281.95 314.40,275.53 317.34,269.15 320.29,263.02 323.23,256.89 326.17,250.75 329.13,244.62 332.07,238.83 335.01,233.09 337.96,227.35 340.91,221.61 343.85,216.07 346.80,210.72 349.74,205.34 352.68,199.98 355.64,194.83 358.58,190.22 361.52,185.63 364.47,181.02 367.41,176.42 370.35,173.21 373.31,169.99 376.25,166.78 379.19,163.57 382.15,161.57 385.09,160.03 388.03,158.50 390.98,156.97 393.92,156.16 396.86,156.31 399.82,156.46 402.76,156.60 405.70,156.96 408.65,158.60 411.59,160.22 414.54,161.84 417.49,163.46 420.43,166.02 423.37,168.72 426.33,171.43 429.27,174.13 432.21,177.19 435.16,180.50 438.10,183.82 441.04,187.14 444.00,190.51 446.94,194.01 449.88,197.51 452.83,201.03 455.78,204.53 458.72,207.96 461.67,211.39 464.61,214.81 467.55,218.24 470.51,221.52 473.45,224.75 476.39,227.97 479.34,231.19 482.28,234.30 485.23,237.28 488.18,240.25 491.12,243.22 494.06,246.15 497.02,248.82 499.96,251.50 502.90,254.17 505.85,256.85 508.79,259.18 511.73,261.48 514.69,263.77 517.63,266.06 520.57,268.06 523.52,269.83 526.47,271.61 529.41,273.39 532.36,275.00 535.30,276.15 538.24,277.31 541.20,278.46 544.14,279.62 547.08,280.12 550.03,280.61 552.97,281.11 555.92,281.60 558.87,281.71 561.81,281.65 564.75,281.59 567.71,281.53 570.65,281.36 573.59,281.02 576.54,280.68 579.48,280.34 582.42,280.01 585.38,279.77 588.32,279.53 591.26,279.28 594.21,279.04 597.16,279.21 600.10,279.44 603.05,279.67 605.99,279.89 608.93,280.54 611.89,281.49 614.83,282.44 617.77,283.40 620.72,284.58 623.66,286.35 626.60,288.12 629.56,289.89 632.50,291.66 635.44,294.24 638.40,296.81 641.34,299.38 644.28,301.95 647.23,305.05 650.17,308.35 653.11,311.66 656.07,314.96 659.01,318.55 661.95,322.49 664.90,326.45 667.84,330.40 670.79,334.42 673.74,338.90 676.68,343.37 679.62,347.85 682.58,352.33 685.52,357.12 688.46,361.96 691.41,366.81 694.35,371.65 697.29,376.60 700.25,381.63 703.19,386.66 706.13,391.68 709.08,396.71 712.03,401.73 714.97,406.75 717.92,411.77 720.86,416.79 723.80,421.65 726.76,426.51 729.70,431.37 732.64,436.23 735.59,440.88 738.53,445.46 741.48,450.03 744.43,454.61 747.37,459.00 750.31,463.17 753.27,467.33 756.21,471.49 759.15,475.59 762.10,479.26 765.04,482.93 767.98,486.60 770.94,490.27 773.88,493.48 776.82,496.61 779.77,499.74 782.72,502.87 785.66,505.67 788.61,508.23 791.55,510.80 794.49,513.36 797.45,515.75 800.39,517.70 803.33,519.66 806.28,521.61 809.22,523.58 812.17,524.90 815.12,526.21 818.06,527.54 821.00,528.86 823.96,529.70 826.90,530.35 829.84,531.02 832.79,531.67 835.73,532.05 838.67,532.08 841.63,532.10 844.57,532.12 847.51,532.08 850.46,531.58 853.41,531.09 856.35,530.59 859.30,530.10 862.24,529.33 865.18,528.54 868.14,527.74 871.08,526.94 874.02,526.13 876.97,525.30 879.91,524.47 882.85,523.64 885.81,522.84 888.75,522.14 891.69,521.44 894.65,520.74 897.59,520.03 900.53,519.42 903.48,518.80 906.42,518.19 909.36,517.57 912.32,516.94 915.26,516.30 918.20,515.66 921.15,515.02 924.09,514.33 927.04,513.57 929.99,512.81 932.93,512.06 935.87,511.27 938.83,510.35 941.77,509.43 944.71,508.51 947.66,507.59 950.60,506.49 953.54,505.37 956.50,504.24 959.44,503.12 962.38,501.82 965.33,500.40 968.28,498.97 971.22,497.55 974.17,496.00 977.11,494.13 980.05,492.26 983.01,490.38 985.95,488.51 988.89,486.07 991.84,483.64 994.78,481.20 997.73,478.76 1000.68,475.94 1003.62,472.96 1006.56,469.98 1009.52,467.00 1012.46,463.90 1015.40,460.65 1018.35,457.40 1021.29,454.14 1024.23,450.92 1027.19,447.85 1030.13,444.79 1033.07,441.73 1036.02,438.67 1038.97,436.04 1041.91,433.48 1044.86,430.92 1047.80,428.36 1050.74,425.82 1053.70,423.29 1056.64,420.77 1059.58,418.24 1062.53,416.04 1065.47,414.65 1068.42,413.27 1071.37,411.88 1074.31,410.49" fill="none" stroke="#000000" stroke-width="3"/>
<line x1="142" y1="100" x2="178" y2="100" stroke="#000000" stroke-width="4"/>
<text x="188" y="105" font-family="Arial" font-size="18" fill="black">Ux / u</text>
<polyline points="190.69,225.22 193.64,230.57 196.58,235.91 199.53,241.26 202.47,246.61 205.42,256.52 208.36,268.24 211.31,279.98 214.25,291.71 217.20,304.45 220.14,318.53 223.09,332.61 226.03,346.69 228.98,361.08 231.93,377.30 234.87,393.52 237.82,409.75 240.76,425.97 243.71,442.55 246.65,459.19 249.60,475.82 252.54,492.46 255.49,507.72 258.43,521.95 261.38,536.17 264.32,550.40 267.27,563.26 270.22,572.69 273.16,582.11 276.11,591.53 279.05,600.96 282.00,604.85 284.94,608.72 287.89,612.60 290.83,616.49 293.78,616.71 296.72,615.49 299.67,614.26 302.62,613.03 305.56,609.91 308.51,604.28 311.45,598.65 314.40,593.01 317.34,586.81 320.29,577.27 323.23,567.72 326.17,558.18 329.13,548.63 332.07,535.95 335.01,522.73 337.96,509.53 340.91,496.31 343.85,481.26 346.80,464.82 349.74,448.38 352.68,431.94 355.64,415.13 358.58,397.38 361.52,379.63 364.47,361.88 367.41,344.13 370.35,328.13 373.31,312.13 376.25,296.13 379.19,280.13 382.15,266.90 385.09,254.77 388.03,242.65 390.98,230.53 393.92,220.27 396.86,212.50 399.82,204.73 402.76,196.96 405.70,189.72 408.65,185.68 411.59,181.62 414.54,177.56 417.49,173.52 420.43,171.75 423.37,170.36 426.33,168.98 429.27,167.59 432.21,167.16 435.16,167.45 438.10,167.74 441.04,168.02 444.00,168.59 446.94,169.82 449.88,171.06 452.83,172.30 455.78,173.53 458.72,175.33 461.67,177.11 464.61,178.89 467.55,180.68 470.51,182.75 473.45,184.94 476.39,187.11 479.34,189.30 482.28,191.64 485.23,194.19 488.18,196.75 491.12,199.30 494.06,201.90 497.02,204.83 499.96,207.74 502.90,210.65 505.85,213.58 508.79,216.79 511.73,220.05 514.69,223.30 517.63,226.56 520.57,230.00 523.52,233.57 526.47,237.13 529.41,240.70 532.36,244.36 535.30,248.24 538.24,252.14 541.20,256.02 544.14,259.92 547.08,264.22 550.03,268.54 552.97,272.85 555.92,277.16 558.87,281.90 561.81,286.80 564.75,291.71 567.71,296.62 570.65,301.84 573.59,307.49 576.54,313.14 579.48,318.79 582.42,324.53 585.38,330.89 588.32,337.24 591.26,343.60 594.21,349.95 597.16,356.63 600.10,363.37 603.05,370.10 605.99,376.84 608.93,383.44 611.89,389.95 614.83,396.45 617.77,402.96 620.72,409.19 623.66,414.75 626.60,420.31 629.56,425.87 632.50,431.43 635.44,435.42 638.40,439.41 641.34,443.40 644.28,447.40 647.23,449.96 650.17,451.95 653.11,453.95 656.07,455.94 659.01,457.01 661.95,456.84 664.90,456.66 667.84,456.49 670.79,456.03 673.74,453.82 676.68,451.61 679.62,449.41 682.58,447.20 685.52,443.56 688.46,439.68 691.41,435.81 694.35,431.93 697.29,427.39 700.25,422.36 703.19,417.33 706.13,412.29 709.08,407.10 712.03,401.52 714.97,395.93 717.92,390.35 720.86,384.76 723.80,379.25 726.76,373.73 729.70,368.21 732.64,362.70 735.59,357.61 738.53,352.71 741.48,347.80 744.43,342.89 747.37,338.42 750.31,334.52 753.27,330.62 756.21,326.72 759.15,323.00 762.10,320.36 765.04,317.72 767.98,315.08 770.94,312.44 773.88,310.96 776.82,309.69 779.77,308.41 782.72,307.13 785.66,306.62 788.61,306.68 791.55,306.75 794.49,306.82 797.45,307.25 800.39,308.59 803.33,309.93 806.28,311.28 809.22,312.62 812.17,315.20 815.12,317.77 818.06,320.35 821.00,322.92 823.96,326.38 826.90,330.19 829.84,334.00 832.79,337.81 835.73,342.13 838.67,347.14 841.63,352.16 844.57,357.17 847.51,362.32 850.46,368.30 853.41,374.29 856.35,380.28 859.30,386.26 862.24,392.63 865.18,399.06 868.14,405.49 871.08,411.93 874.02,418.20 876.97,424.37 879.91,430.53 882.85,436.69 885.81,442.61 888.75,447.92 891.69,453.23 894.65,458.55 897.59,463.86 900.53,467.96 903.48,472.05 906.42,476.15 909.36,480.25 912.32,483.35 915.26,486.04 918.20,488.73 921.15,491.43 924.09,493.50 927.04,494.76 929.99,496.02 932.93,497.28 935.87,498.35 938.83,498.29 941.77,498.23 944.71,498.18 947.66,498.12 950.60,497.13 953.54,495.98 956.50,494.84 959.44,493.69 962.38,492.06 965.33,490.06 968.28,488.06 971.22,486.06 974.17,483.85 977.11,481.11 980.05,478.38 983.01,475.64 985.95,472.90 988.89,469.37 991.84,465.83 994.78,462.29 997.73,458.75 1000.68,454.47 1003.62,449.90 1006.56,445.33 1009.52,440.76 1012.46,435.61 1015.40,429.69 1018.35,423.77 1021.29,417.85 1024.23,411.70 1027.19,404.19 1030.13,396.68 1033.07,389.17 1036.02,381.66 1038.97,372.64 1041.91,363.37 1044.86,354.10 1047.80,344.83 1050.74,333.72 1053.70,321.24 1056.64,308.76 1059.58,296.27 1062.53,285.24 1065.47,277.86 1068.42,270.47 1071.37,263.08 1074.31,255.69" fill="none" stroke="#555555" stroke-width="3" stroke-dasharray="9 5"/>
<line x1="142" y1="128" x2="178" y2="128" stroke="#555555" stroke-width="4" stroke-dasharray="9 5"/>
<text x="188" y="133" font-family="Arial" font-size="18" fill="black">Uy / v</text>
<polyline points="190.69,661.55 193.64,654.35 196.58,647.16 199.53,639.95 202.47,632.76 205.42,622.07 208.36,609.99 211.31,597.90 214.25,585.82 217.20,575.00 220.14,565.86 223.09,556.71 226.03,547.56 228.98,538.50 231.93,529.96 234.87,521.42 237.82,512.88 240.76,504.33 243.71,495.73 246.65,487.11 249.60,478.50 252.54,469.88 255.49,461.55 258.43,453.44 261.38,445.33 264.32,437.21 267.27,429.56 270.22,423.08 273.16,416.59 276.11,410.10 279.05,403.62 282.00,399.35 284.94,395.08 287.89,390.81 290.83,386.54 293.78,383.70 296.72,381.42 299.67,379.15 302.62,376.87 305.56,375.13 308.51,374.11 311.45,373.08 314.40,372.05 317.34,371.04 320.29,370.12 323.23,369.20 326.17,368.28 329.13,367.36 332.07,365.13 335.01,362.68 337.96,360.23 340.91,357.78 343.85,353.38 346.80,347.51 349.74,341.65 352.68,335.78 355.64,328.77 358.58,318.87 361.52,308.98 364.47,299.09 367.41,289.20 370.35,277.00 373.31,264.79 376.25,252.60 379.19,240.39 382.15,228.51 385.09,216.76 388.03,205.01 390.98,193.26 393.92,182.64 396.86,173.52 399.82,164.40 402.76,155.28 405.70,146.68 408.65,141.29 411.59,135.89 414.54,130.49 417.49,125.09 420.43,123.02 423.37,121.50 426.33,119.97 429.27,118.45 432.21,118.87 435.16,120.75 438.10,122.63 441.04,124.51 444.00,127.14 446.94,131.64 449.88,136.14 452.83,140.64 455.78,145.15 458.72,151.44 461.67,157.72 464.61,164.02 467.55,170.31 470.51,177.32 473.45,184.62 476.39,191.91 479.34,199.21 482.28,206.62 485.23,214.19 488.18,221.77 491.12,229.34 494.06,236.86 497.02,244.05 499.96,251.23 502.90,258.41 505.85,265.60 508.79,271.94 511.73,278.15 514.69,284.35 517.63,290.55 520.57,295.94 523.52,300.70 526.47,305.47 529.41,310.24 532.36,314.51 535.30,317.57 538.24,320.62 541.20,323.67 544.14,326.72 547.08,327.98 550.03,329.23 552.97,330.49 555.92,331.75 558.87,331.82 561.81,331.43 564.75,331.04 567.71,330.64 570.65,329.71 573.59,328.04 576.54,326.38 579.48,324.71 582.42,322.95 585.38,320.56 588.32,318.17 591.26,315.78 594.21,313.39 597.16,310.89 600.10,308.36 603.05,305.83 605.99,303.31 608.93,301.00 611.89,298.87 614.83,296.74 617.77,294.61 620.72,292.74 623.66,291.53 626.60,290.32 629.56,289.12 632.50,287.91 635.44,288.20 638.40,288.49 641.34,288.78 644.28,289.07 647.23,290.76 650.17,293.01 653.11,295.26 656.07,297.51 659.01,300.63 661.95,304.91 664.90,309.19 667.84,313.47 670.79,317.96 673.74,323.73 676.68,329.49 679.62,335.26 682.58,341.02 685.52,347.05 688.46,353.11 691.41,359.18 694.35,365.24 697.29,370.56 700.25,375.33 703.19,380.09 706.13,384.85 709.08,388.81 712.03,390.76 714.97,392.70 717.92,394.65 720.86,396.59 723.80,394.96 726.76,393.32 729.70,391.69 732.64,390.05 735.59,386.00 738.53,380.97 741.48,375.94 744.43,370.91 747.37,364.76 750.31,357.11 753.27,349.46 756.21,341.81 759.15,333.93 762.10,324.65 765.04,315.38 767.98,306.11 770.94,296.84 773.88,287.07 776.82,277.21 779.77,267.35 782.72,257.50 785.66,247.85 788.61,238.36 791.55,228.87 794.49,219.38 797.45,210.24 800.39,201.91 803.33,193.60 806.28,185.29 809.22,176.97 812.17,170.45 815.12,163.92 818.06,157.39 821.00,150.86 823.96,145.87 826.90,141.48 829.84,137.10 832.79,132.72 835.73,129.28 838.67,127.08 841.63,124.89 844.57,122.70 847.51,120.78 850.46,120.53 853.41,120.27 856.35,120.01 859.30,119.74 862.24,120.72 865.18,121.91 868.14,123.11 871.08,124.30 874.02,126.04 876.97,128.21 879.91,130.38 882.85,132.55 885.81,134.92 888.75,137.80 891.69,140.67 894.65,143.55 897.59,146.43 900.53,149.90 903.48,153.38 906.42,156.86 909.36,160.34 912.32,164.18 915.26,168.17 918.20,172.15 921.15,176.15 924.09,180.29 927.04,184.66 929.99,189.02 932.93,193.38 935.87,197.78 938.83,202.37 941.77,206.95 944.71,211.55 947.66,216.14 950.60,220.83 953.54,225.54 956.50,230.25 959.44,234.97 962.38,239.75 965.33,244.61 968.28,249.45 971.22,254.29 974.17,259.21 977.11,264.26 980.05,269.31 983.01,274.38 985.95,279.43 988.89,284.67 991.84,289.92 994.78,295.17 997.73,300.41 1000.68,305.56 1003.62,310.67 1006.56,315.78 1009.52,320.89 1012.46,325.58 1015.40,329.70 1018.35,333.83 1021.29,337.96 1024.23,341.73 1027.19,343.36 1030.13,344.99 1033.07,346.63 1036.02,348.26 1038.97,346.18 1041.91,343.47 1044.86,340.77 1047.80,338.07 1050.74,332.26 1053.70,324.13 1056.64,316.00 1059.58,307.87 1062.53,300.50 1065.47,295.04 1068.42,289.57 1071.37,284.10 1074.31,278.64" fill="none" stroke="#999999" stroke-width="3" stroke-dasharray="3 4"/>
<line x1="142" y1="156" x2="178" y2="156" stroke="#999999" stroke-width="4" stroke-dasharray="3 4"/>
<text x="188" y="161" font-family="Arial" font-size="18" fill="black">Uz / w</text>
</svg>