<svg xmlns="http://www.w3.org/2000/svg" width="1200" height="820" viewBox="0 0 1200 820">
<rect width="100%" height="100%" fill="white"/>
<text x="600.0" y="36" text-anchor="middle" font-family="Arial" font-size="24" fill="black">profile_center_z: vorticity:0</text>
<line x1="120.00" y1="75" x2="120.00" y2="705" stroke="#dddddd" stroke-width="1"/>
<text x="120.00" y="737" text-anchor="middle" font-family="Arial" font-size="16" fill="black">-0.240</text>
<line x1="376.25" y1="75" x2="376.25" y2="705" stroke="#dddddd" stroke-width="1"/>
<text x="376.25" y="737" text-anchor="middle" font-family="Arial" font-size="16" fill="black">0.630</text>
<line x1="632.50" y1="75" x2="632.50" y2="705" stroke="#dddddd" stroke-width="1"/>
<text x="632.50" y="737" text-anchor="middle" font-family="Arial" font-size="16" fill="black">1.500</text>
<line x1="888.75" y1="75" x2="888.75" y2="705" stroke="#dddddd" stroke-width="1"/>
<text x="888.75" y="737" text-anchor="middle" font-family="Arial" font-size="16" fill="black">2.370</text>
<line x1="1145.00" y1="75" x2="1145.00" y2="705" stroke="#dddddd" stroke-width="1"/>
<text x="1145.00" y="737" text-anchor="middle" font-family="Arial" font-size="16" fill="black">3.240</text>
<line x1="120" y1="705.00" x2="1145" y2="705.00" stroke="#dddddd" stroke-width="1"/>
<text x="104" y="710.00" text-anchor="end" font-family="Arial" font-size="16" fill="black">-1.753</text>
<line x1="120" y1="547.50" x2="1145" y2="547.50" stroke="#dddddd" stroke-width="1"/>
<text x="104" y="552.50" text-anchor="end" font-family="Arial" font-size="16" fill="black">-0.237</text>
<line x1="120" y1="390.00" x2="1145" y2="390.00" stroke="#dddddd" stroke-width="1"/>
<text x="104" y="395.00" text-anchor="end" font-family="Arial" font-size="16" fill="black">1.280</text>
<line x1="120" y1="232.50" x2="1145" y2="232.50" stroke="#dddddd" stroke-width="1"/>
<text x="104" y="237.50" text-anchor="end" font-family="Arial" font-size="16" fill="black">2.796</text>
<line x1="120" y1="75.00" x2="1145" y2="75.00" stroke="#dddddd" stroke-width="1"/>
<text x="104" y="80.00" text-anchor="end" font-family="Arial" font-size="16" fill="black">4.313</text>
<rect x="120" y="75" width="1025" height="630" fill="none" stroke="black" stroke-width="2"/>
<text x="632.5" y="785" text-anchor="middle" font-family="Arial" font-size="20" fill="black">z coordinate [m]</text>
<text x="34" y="390.0" transform="rotate(-90 34 390.0)" text-anchor="middle" font-family="Arial" font-size="20" fill="black">vorticity:0 [SI]</text>
<polyline points="190.69,518.23 193.64,518.29 196.58,518.36 199.53,518.43 202.47,518.49 205.42,518.56 208.36,518.62 211.31,518.69 214.25,518.75 217.20,518.82 220.14,518.89 223.09,518.84 226.03,518.79 228.98,518.75 231.93,518.70 234.87,518.65 237.82,518.61 240.76,518.56 243.71,518.51 246.65,518.47 249.60,518.42 252.54,517.60 255.49,516.79 258.43,515.98 261.38,515.16 264.32,514.35 267.27,513.54 270.22,512.72 273.16,511.91 276.11,511.09 279.05,510.28 282.00,508.07 284.94,505.85 287.89,503.64 290.83,501.43 293.78,499.21 296.72,497.00 299.67,494.79 302.61,492.57 305.56,490.36 308.51,488.15 311.45,486.57 314.40,485.00 317.34,483.42 320.29,481.85 323.23,480.27 326.18,478.70 329.12,477.12 332.07,475.55 335.01,473.97 337.96,472.40 340.91,472.86 343.85,473.33 346.80,473.80 349.74,474.26 352.69,474.73 355.63,475.19 358.58,475.66 361.52,476.12 364.47,476.59 367.41,477.06 370.36,477.94 373.30,478.83 376.25,479.72 379.20,480.60 382.14,481.49 385.09,482.38 388.03,483.26 390.98,484.15 393.92,485.04 396.87,485.92 399.81,486.71 402.76,487.50 405.70,488.29 408.65,489.08 411.59,489.88 414.54,490.67 417.49,491.46 420.43,492.25 423.38,493.04 426.32,493.83 429.27,494.73 432.21,495.62 435.16,496.52 438.10,497.42 441.05,498.32 443.99,499.22 446.94,500.11 449.89,501.01 452.83,501.91 455.78,502.81 458.72,503.74 461.67,504.67 464.61,505.61 467.56,506.54 470.50,507.47 473.45,508.41 476.39,509.34 479.34,510.27 482.28,511.21 485.23,512.14 488.18,512.99 491.12,513.85 494.07,514.70 497.01,515.55 499.96,516.41 502.90,517.26 505.85,518.11 508.79,518.97 511.74,519.82 514.68,520.67 517.63,521.35 520.57,522.02 523.52,522.69 526.47,523.37 529.41,524.04 532.36,524.71 535.30,525.39 538.25,526.06 541.19,526.73 544.14,527.41 547.08,527.90 550.03,528.40 552.97,528.90 555.92,529.40 558.86,529.90 561.81,530.40 564.76,530.90 567.70,531.39 570.65,531.89 573.59,532.39 576.54,532.74 579.48,533.09 582.43,533.44 585.37,533.79 588.32,534.15 591.26,534.50 594.21,534.85 597.16,535.20 600.10,535.55 603.05,535.90 605.99,536.12 608.94,536.33 611.88,536.55 614.83,536.77 617.77,536.98 620.72,537.20 623.66,537.41 626.61,537.63 629.55,537.84 632.50,538.06 635.45,538.16 638.39,538.25 641.34,538.35 644.28,538.45 647.23,538.55 650.17,538.64 653.12,538.74 656.06,538.84 659.01,538.93 661.95,539.03 664.90,539.04 667.84,539.04 670.79,539.05 673.74,539.06 676.68,539.06 679.63,539.07 682.57,539.07 685.52,539.08 688.46,539.09 691.41,539.09 694.35,539.06 697.30,539.03 700.24,538.99 703.19,538.96 706.14,538.93 709.08,538.89 712.03,538.86 714.97,538.82 717.92,538.79 720.86,538.76 723.81,538.75 726.75,538.74 729.70,538.74 732.64,538.73 735.59,538.72 738.53,538.71 741.48,538.70 744.43,538.70 747.37,538.69 750.32,538.68 753.26,538.76 756.21,538.84 759.15,538.92 762.10,539.01 765.04,539.09 767.99,539.17 770.93,539.25 773.88,539.33 776.82,539.41 779.77,539.49 782.72,539.72 785.66,539.94 788.61,540.17 791.55,540.39 794.50,540.61 797.44,540.84 800.39,541.06 803.33,541.29 806.28,541.51 809.22,541.74 812.17,542.16 815.11,542.58 818.06,543.00 821.01,543.42 823.95,543.84 826.90,544.26 829.84,544.68 832.79,545.10 835.73,545.52 838.68,545.94 841.62,546.62 844.57,547.31 847.51,547.99 850.46,548.68 853.41,549.36 856.35,550.05 859.30,550.73 862.24,551.41 865.19,552.10 868.13,552.78 871.08,553.81 874.02,554.84 876.97,555.87 879.91,556.90 882.86,557.92 885.80,558.95 888.75,559.98 891.70,561.00 894.64,562.03 897.59,563.06 900.53,564.52 903.48,565.98 906.42,567.44 909.37,568.90 912.31,570.36 915.26,571.81 918.20,573.27 921.15,574.73 924.09,576.19 927.04,577.65 929.99,579.65 932.93,581.64 935.88,583.64 938.82,585.64 941.77,587.63 944.71,589.63 947.66,591.63 950.60,593.63 953.55,595.62 956.49,597.62 959.44,600.28 962.39,602.93 965.33,605.59 968.28,608.25 971.22,610.91 974.17,613.56 977.11,616.22 980.06,618.88 983.00,621.54 985.95,624.19 988.89,627.93 991.84,631.66 994.78,635.40 997.73,639.14 1000.68,642.88 1003.62,646.61 1006.57,650.35 1009.51,654.08 1012.46,657.82 1015.40,661.55 1018.35,635.52 1021.29,609.47 1024.24,583.43 1027.18,557.38 1030.13,531.34 1033.07,505.30 1036.02,479.26 1038.97,453.21 1041.91,427.17 1044.86,401.13 1047.80,372.86 1050.75,344.59 1053.69,316.32 1056.64,288.05 1059.58,259.78 1062.53,231.51 1065.47,203.26 1068.42,174.99 1071.36,146.72 1074.31,118.45" fill="none" stroke="#000000" stroke-width="3"/>
<line x1="142" y1="100" x2="178" y2="100" stroke="#000000" stroke-width="4"/>
<text x="188" y="105" font-family="Arial" font-size="18" fill="black">vorticity:0</text>
</svg>