<svg xmlns="http://www.w3.org/2000/svg" width="1200" height="820" viewBox="0 0 1200 820">
<rect width="100%" height="100%" fill="white"/>
<text x="600.0" y="36" text-anchor="middle" font-family="Arial" font-size="24" fill="black">profile_center_z: k</text>
<line x1="120.00" y1="75" x2="120.00" y2="705" stroke="#dddddd" stroke-width="1"/>
<text x="120.00" y="737" text-anchor="middle" font-family="Arial" font-size="16" fill="black">-0.240</text>
<line x1="376.25" y1="75" x2="376.25" y2="705" stroke="#dddddd" stroke-width="1"/>
<text x="376.25" y="737" text-anchor="middle" font-family="Arial" font-size="16" fill="black">0.630</text>
<line x1="632.50" y1="75" x2="632.50" y2="705" stroke="#dddddd" stroke-width="1"/>
<text x="632.50" y="737" text-anchor="middle" font-family="Arial" font-size="16" fill="black">1.500</text>
<line x1="888.75" y1="75" x2="888.75" y2="705" stroke="#dddddd" stroke-width="1"/>
<text x="888.75" y="737" text-anchor="middle" font-family="Arial" font-size="16" fill="black">2.370</text>
<line x1="1145.00" y1="75" x2="1145.00" y2="705" stroke="#dddddd" stroke-width="1"/>
<text x="1145.00" y="737" text-anchor="middle" font-family="Arial" font-size="16" fill="black">3.240</text>
<line x1="120" y1="705.00" x2="1145" y2="705.00" stroke="#dddddd" stroke-width="1"/>
<text x="104" y="710.00" text-anchor="end" font-family="Arial" font-size="16" fill="black">0.005</text>
<line x1="120" y1="547.50" x2="1145" y2="547.50" stroke="#dddddd" stroke-width="1"/>
<text x="104" y="552.50" text-anchor="end" font-family="Arial" font-size="16" fill="black">0.014</text>
<line x1="120" y1="390.00" x2="1145" y2="390.00" stroke="#dddddd" stroke-width="1"/>
<text x="104" y="395.00" text-anchor="end" font-family="Arial" font-size="16" fill="black">0.022</text>
<line x1="120" y1="232.50" x2="1145" y2="232.50" stroke="#dddddd" stroke-width="1"/>
<text x="104" y="237.50" text-anchor="end" font-family="Arial" font-size="16" fill="black">0.031</text>
<line x1="120" y1="75.00" x2="1145" y2="75.00" stroke="#dddddd" stroke-width="1"/>
<text x="104" y="80.00" text-anchor="end" font-family="Arial" font-size="16" fill="black">0.039</text>
<rect x="120" y="75" width="1025" height="630" fill="none" stroke="black" stroke-width="2"/>
<text x="632.5" y="785" text-anchor="middle" font-family="Arial" font-size="20" fill="black">z coordinate [m]</text>
<text x="34" y="390.0" transform="rotate(-90 34 390.0)" text-anchor="middle" font-family="Arial" font-size="20" fill="black">k [m2/s2]</text>
<polyline points="190.69,642.18 193.64,643.04 196.58,643.89 199.53,644.75 202.47,645.60 205.42,646.46 208.36,647.31 211.31,648.17 214.25,649.02 217.20,649.88 220.14,650.74 223.09,651.82 226.03,652.90 228.98,653.98 231.93,655.06 234.87,656.14 237.82,657.22 240.76,658.31 243.71,659.39 246.65,660.47 249.60,661.55 252.54,659.66 255.49,657.76 258.43,655.87 261.38,653.97 264.32,652.07 267.27,650.18 270.22,648.28 273.16,646.39 276.11,644.49 279.05,642.60 282.00,631.74 284.94,620.87 287.89,610.00 290.83,599.14 293.78,588.29 296.72,577.43 299.67,566.56 302.61,555.70 305.56,544.84 308.51,533.97 311.45,520.33 314.40,506.66 317.34,493.02 320.29,479.35 323.23,465.69 326.18,452.04 329.12,438.38 332.07,424.71 335.01,411.07 337.96,397.40 340.91,391.14 343.85,384.87 346.80,378.60 349.74,372.32 352.69,366.05 355.63,359.79 358.58,353.52 361.52,347.25 364.47,340.99 367.41,334.70 370.36,331.73 373.30,328.75 376.25,325.76 379.20,322.78 382.14,319.79 385.09,316.83 388.03,313.84 390.98,310.86 393.92,307.87 396.87,304.89 399.81,301.33 402.76,297.79 405.70,294.23 408.65,290.67 411.59,287.11 414.54,283.55 417.49,279.99 420.43,276.43 423.38,272.87 426.32,269.31 429.27,265.68 432.21,262.04 435.16,258.39 438.10,254.76 441.05,251.10 443.99,247.47 446.94,243.84 449.89,240.18 452.83,236.55 455.78,232.90 458.72,229.95 461.67,227.00 464.61,224.05 467.56,221.11 470.50,218.14 473.45,215.19 476.39,212.24 479.34,209.30 482.28,206.35 485.23,203.38 488.18,201.45 491.12,199.52 494.07,197.58 497.01,195.65 499.96,193.72 502.90,191.77 505.85,189.85 508.79,187.92 511.74,185.97 514.68,184.04 517.63,183.10 520.57,182.17 523.52,181.23 526.47,180.30 529.41,179.35 532.36,178.43 535.30,177.48 538.25,176.53 541.19,175.61 544.14,174.66 547.08,174.50 550.03,174.33 552.97,174.14 555.92,173.98 558.86,173.79 561.81,173.62 564.76,173.46 567.70,173.27 570.65,173.10 573.59,172.94 576.54,173.23 579.48,173.53 582.43,173.83 585.37,174.12 588.32,174.42 591.26,174.74 594.21,175.03 597.16,175.33 600.10,175.63 603.05,175.92 605.99,176.40 608.94,176.89 611.88,177.37 614.83,177.85 617.77,178.33 620.72,178.82 623.66,179.30 626.61,179.78 629.55,180.26 632.50,180.74 635.45,181.15 638.39,181.58 641.34,181.99 644.28,182.39 647.23,182.80 650.17,183.23 653.12,183.64 656.06,184.04 659.01,184.45 661.95,184.88 664.90,185.06 667.84,185.25 670.79,185.43 673.74,185.62 676.68,185.80 679.63,185.99 682.57,186.18 685.52,186.36 688.46,186.55 691.41,186.75 694.35,186.66 697.30,186.58 700.24,186.51 703.19,186.44 706.14,186.36 709.08,186.27 712.03,186.19 714.97,186.12 717.92,186.05 720.86,185.97 723.81,185.69 726.75,185.42 729.70,185.16 732.64,184.88 735.59,184.60 738.53,184.34 741.48,184.06 744.43,183.78 747.37,183.52 750.32,183.25 753.26,182.91 756.21,182.60 759.15,182.26 762.10,181.93 765.04,181.61 767.99,181.28 770.93,180.95 773.88,180.63 776.82,180.30 779.77,179.98 782.72,179.74 785.66,179.52 788.61,179.28 791.55,179.06 794.50,178.82 797.44,178.59 800.39,178.35 803.33,178.13 806.28,177.89 809.22,177.67 812.17,177.63 815.11,177.59 818.06,177.57 821.01,177.54 823.95,177.50 826.90,177.46 829.84,177.42 832.79,177.39 835.73,177.37 838.68,177.33 841.62,177.48 844.57,177.63 847.51,177.76 850.46,177.91 853.41,178.05 856.35,178.20 859.30,178.35 862.24,178.48 865.19,178.63 868.13,178.78 871.08,178.91 874.02,179.02 876.97,179.15 879.91,179.28 882.86,179.39 885.80,179.52 888.75,179.65 891.70,179.76 894.64,179.89 897.59,180.02 900.53,179.71 903.48,179.37 906.42,179.06 909.37,178.74 912.31,178.43 915.26,178.11 918.20,177.80 921.15,177.48 924.09,177.17 927.04,176.85 929.99,175.53 932.93,174.22 935.88,172.90 938.82,171.58 941.77,170.27 944.71,168.95 947.66,167.64 950.60,166.32 953.55,165.00 956.49,163.69 959.44,161.11 962.39,158.55 965.33,155.97 968.28,153.40 971.22,150.82 974.17,148.26 977.11,145.68 980.06,143.11 983.00,140.55 985.95,137.97 988.89,136.02 991.84,134.06 994.78,132.11 997.73,130.17 1000.68,128.22 1003.62,126.25 1006.57,124.31 1009.51,122.36 1012.46,120.39 1015.40,118.45 1018.35,128.46 1021.29,138.47 1024.24,148.50 1027.18,158.51 1030.13,168.53 1033.07,178.54 1036.02,188.55 1038.97,198.56 1041.91,208.57 1044.86,218.60 1047.80,228.97 1050.75,239.35 1053.69,249.71 1056.64,260.10 1059.58,270.48 1062.53,280.84 1065.47,291.22 1068.42,301.61 1071.36,311.97 1074.31,322.35" fill="none" stroke="#000000" stroke-width="3"/>
<line x1="142" y1="100" x2="178" y2="100" stroke="#000000" stroke-width="4"/>
<text x="188" y="105" font-family="Arial" font-size="18" fill="black">k</text>
</svg>