<svg xmlns="http://www.w3.org/2000/svg" width="1200" height="820" viewBox="0 0 1200 820">
<rect width="100%" height="100%" fill="white"/>
<text x="600.0" y="36" text-anchor="middle" font-family="Arial" font-size="24" fill="black">profile_rack_height_x: p</text>
<line x1="120.00" y1="75" x2="120.00" y2="705" stroke="#dddddd" stroke-width="1"/>
<text x="120.00" y="737" text-anchor="middle" font-family="Arial" font-size="16" fill="black">-0.560</text>
<line x1="376.25" y1="75" x2="376.25" y2="705" stroke="#dddddd" stroke-width="1"/>
<text x="376.25" y="737" text-anchor="middle" font-family="Arial" font-size="16" fill="black">1.470</text>
<line x1="632.50" y1="75" x2="632.50" y2="705" stroke="#dddddd" stroke-width="1"/>
<text x="632.50" y="737" text-anchor="middle" font-family="Arial" font-size="16" fill="black">3.500</text>
<line x1="888.75" y1="75" x2="888.75" y2="705" stroke="#dddddd" stroke-width="1"/>
<text x="888.75" y="737" text-anchor="middle" font-family="Arial" font-size="16" fill="black">5.530</text>
<line x1="1145.00" y1="75" x2="1145.00" y2="705" stroke="#dddddd" stroke-width="1"/>
<text x="1145.00" y="737" text-anchor="middle" font-family="Arial" font-size="16" fill="black">7.560</text>
<line x1="120" y1="705.00" x2="1145" y2="705.00" stroke="#dddddd" stroke-width="1"/>
<text x="104" y="710.00" text-anchor="end" font-family="Arial" font-size="16" fill="black">-16.13</text>
<line x1="120" y1="547.50" x2="1145" y2="547.50" stroke="#dddddd" stroke-width="1"/>
<text x="104" y="552.50" text-anchor="end" font-family="Arial" font-size="16" fill="black">-16.13</text>
<line x1="120" y1="390.00" x2="1145" y2="390.00" stroke="#dddddd" stroke-width="1"/>
<text x="104" y="395.00" text-anchor="end" font-family="Arial" font-size="16" fill="black">-16.12</text>
<line x1="120" y1="232.50" x2="1145" y2="232.50" stroke="#dddddd" stroke-width="1"/>
<text x="104" y="237.50" text-anchor="end" font-family="Arial" font-size="16" fill="black">-16.12</text>
<line x1="120" y1="75.00" x2="1145" y2="75.00" stroke="#dddddd" stroke-width="1"/>
<text x="104" y="80.00" text-anchor="end" font-family="Arial" font-size="16" fill="black">-16.11</text>
<rect x="120" y="75" width="1025" height="630" fill="none" stroke="black" stroke-width="2"/>
<text x="632.5" y="785" text-anchor="middle" font-family="Arial" font-size="20" fill="black">x coordinate [m]</text>
<text x="34" y="390.0" transform="rotate(-90 34 390.0)" text-anchor="middle" font-family="Arial" font-size="20" fill="black">p [Pa]</text>
<polyline points="190.69,278.18 193.64,278.18 196.58,278.18 199.53,278.18 202.47,278.18 205.42,278.18 208.36,278.18 211.31,278.18 214.25,278.18 217.20,278.18 220.14,278.18 223.09,246.24 226.03,246.24 228.98,246.24 231.93,214.29 234.87,214.29 237.82,214.29 240.76,182.34 243.71,182.34 246.65,182.34 249.60,150.40 252.54,150.40 255.49,150.40 258.43,118.45 261.38,118.45 264.32,118.45 267.27,118.45 270.22,118.45 273.16,118.45 276.11,118.45 279.05,118.45 282.00,150.40 284.94,150.40 287.89,182.34 290.83,182.34 293.78,214.29 296.72,246.24 299.67,246.24 302.62,278.18 305.56,310.13 308.51,342.08 311.45,374.03 314.40,374.03 317.34,405.97 320.29,437.92 323.23,469.87 326.17,501.82 329.13,533.76 332.07,533.76 335.01,565.71 337.96,565.71 340.91,597.66 343.85,597.66 346.80,629.60 349.74,629.60 352.68,629.60 355.64,661.55 358.58,629.60 361.52,629.60 364.47,629.60 367.41,629.60 370.35,629.60 373.31,629.60 376.25,597.66 379.19,597.66 382.15,597.66 385.09,565.71 388.03,565.71 390.98,565.71 393.92,533.76 396.86,533.76 399.82,533.76 402.76,501.82 405.70,501.82 408.65,501.82 411.59,501.82 414.54,501.82 417.49,501.82 420.43,501.82 423.37,501.82 426.33,501.82 429.27,501.82 432.21,501.82 435.16,501.82 438.10,501.82 441.04,501.82 444.00,501.82 446.94,533.76 449.88,533.76 452.83,533.76 455.78,533.76 458.72,565.71 461.67,565.71 464.61,565.71 467.55,565.71 470.51,597.66 473.45,597.66 476.39,597.66 479.34,597.66 482.28,597.66 485.23,597.66 488.18,629.60 491.12,629.60 494.06,629.60 497.02,629.60 499.96,629.60 502.90,597.66 505.85,597.66 508.79,597.66 511.73,597.66 514.69,597.66 517.63,565.71 520.57,565.71 523.52,565.71 526.47,533.76 529.41,533.76 532.36,533.76 535.30,501.82 538.24,501.82 541.20,469.87 544.14,469.87 547.08,469.87 550.03,437.92 552.97,437.92 555.92,405.97 558.87,405.97 561.81,405.97 564.75,374.03 567.71,374.03 570.65,374.03 573.59,342.08 576.54,342.08 579.48,342.08 582.42,342.08 585.38,342.08 588.32,310.13 591.26,310.13 594.21,310.13 597.16,310.13 600.10,310.13 603.05,310.13 605.99,310.13 608.93,310.13 611.89,310.13 614.83,310.13 617.77,310.13 620.72,310.13 623.66,310.13 626.60,310.13 629.56,278.18 632.50,278.18 635.44,278.18 638.40,278.18 641.34,278.18 644.28,278.18 647.23,278.18 650.17,278.18 653.11,278.18 656.07,278.18 659.01,278.18 661.95,278.18 664.90,278.18 667.84,278.18 670.79,278.18 673.74,246.24 676.68,246.24 679.62,246.24 682.58,246.24 685.52,246.24 688.46,246.24 691.41,246.24 694.35,246.24 697.29,246.24 700.25,246.24 703.19,246.24 706.13,278.18 709.08,278.18 712.03,278.18 714.97,278.18 717.92,278.18 720.86,278.18 723.80,310.13 726.76,310.13 729.70,310.13 732.64,342.08 735.59,342.08 738.53,342.08 741.48,374.03 744.43,374.03 747.37,374.03 750.31,405.97 753.27,405.97 756.21,405.97 759.15,437.92 762.10,437.92 765.04,437.92 767.98,469.87 770.94,469.87 773.88,469.87 776.82,501.82 779.77,501.82 782.72,501.82 785.66,501.82 788.61,501.82 791.55,501.82 794.49,501.82 797.45,501.82 800.39,501.82 803.33,501.82 806.28,501.82 809.22,501.82 812.17,501.82 815.12,501.82 818.06,501.82 821.00,501.82 823.96,501.82 826.90,469.87 829.84,469.87 832.79,469.87 835.73,469.87 838.67,469.87 841.63,437.92 844.57,437.92 847.51,437.92 850.46,437.92 853.41,437.92 856.35,405.97 859.30,405.97 862.24,405.97 865.18,405.97 868.14,405.97 871.08,405.97 874.02,405.97 876.97,405.97 879.91,374.03 882.85,374.03 885.81,374.03 888.75,374.03 891.69,374.03 894.65,374.03 897.59,374.03 900.53,374.03 903.48,374.03 906.42,374.03 909.36,374.03 912.32,405.97 915.26,405.97 918.20,405.97 921.15,405.97 924.09,405.97 927.04,405.97 929.99,405.97 932.93,405.97 935.87,437.92 938.83,437.92 941.77,437.92 944.71,437.92 947.66,437.92 950.60,437.92 953.54,437.92 956.50,469.87 959.44,469.87 962.38,469.87 965.33,469.87 968.28,469.87 971.22,469.87 974.17,469.87 977.11,469.87 980.05,501.82 983.01,501.82 985.95,501.82 988.89,501.82 991.84,501.82 994.78,501.82 997.73,501.82 1000.68,501.82 1003.62,501.82 1006.56,501.82 1009.52,501.82 1012.46,501.82 1015.40,501.82 1018.35,501.82 1021.29,501.82 1024.23,501.82 1027.19,501.82 1030.13,501.82 1033.07,533.76 1036.02,533.76 1038.97,533.76 1041.91,533.76 1044.86,533.76 1047.80,533.76 1050.74,533.76 1053.70,533.76 1056.64,533.76 1059.58,533.76 1062.53,533.76 1065.47,533.76 1068.42,533.76 1071.37,533.76 1074.31,533.76" fill="none" stroke="#000000" stroke-width="3"/>
<line x1="142" y1="100" x2="178" y2="100" stroke="#000000" stroke-width="4"/>
<text x="188" y="105" font-family="Arial" font-size="18" fill="black">p</text>
</svg>