<svg xmlns="http://www.w3.org/2000/svg" width="1200" height="820" viewBox="0 0 1200 820">
<rect width="100%" height="100%" fill="white"/>
<text x="600.0" y="36" text-anchor="middle" font-family="Arial" font-size="24" fill="black">profile_diagonal_supply_return: rho</text>
<line x1="120.00" y1="75" x2="120.00" y2="705" stroke="#dddddd" stroke-width="1"/>
<text x="120.00" y="737" text-anchor="middle" font-family="Arial" font-size="16" fill="black">-0.729</text>
<line x1="376.25" y1="75" x2="376.25" y2="705" stroke="#dddddd" stroke-width="1"/>
<text x="376.25" y="737" text-anchor="middle" font-family="Arial" font-size="16" fill="black">1.913</text>
<line x1="632.50" y1="75" x2="632.50" y2="705" stroke="#dddddd" stroke-width="1"/>
<text x="632.50" y="737" text-anchor="middle" font-family="Arial" font-size="16" fill="black">4.555</text>
<line x1="888.75" y1="75" x2="888.75" y2="705" stroke="#dddddd" stroke-width="1"/>
<text x="888.75" y="737" text-anchor="middle" font-family="Arial" font-size="16" fill="black">7.197</text>
<line x1="1145.00" y1="75" x2="1145.00" y2="705" stroke="#dddddd" stroke-width="1"/>
<text x="1145.00" y="737" text-anchor="middle" font-family="Arial" font-size="16" fill="black">9.839</text>
<line x1="120" y1="705.00" x2="1145" y2="705.00" stroke="#dddddd" stroke-width="1"/>
<text x="104" y="710.00" text-anchor="end" font-family="Arial" font-size="16" fill="black">1.095</text>
<line x1="120" y1="547.50" x2="1145" y2="547.50" stroke="#dddddd" stroke-width="1"/>
<text x="104" y="552.50" text-anchor="end" font-family="Arial" font-size="16" fill="black">1.105</text>
<line x1="120" y1="390.00" x2="1145" y2="390.00" stroke="#dddddd" stroke-width="1"/>
<text x="104" y="395.00" text-anchor="end" font-family="Arial" font-size="16" fill="black">1.114</text>
<line x1="120" y1="232.50" x2="1145" y2="232.50" stroke="#dddddd" stroke-width="1"/>
<text x="104" y="237.50" text-anchor="end" font-family="Arial" font-size="16" fill="black">1.124</text>
<line x1="120" y1="75.00" x2="1145" y2="75.00" stroke="#dddddd" stroke-width="1"/>
<text x="104" y="80.00" text-anchor="end" font-family="Arial" font-size="16" fill="black">1.134</text>
<rect x="120" y="75" width="1025" height="630" fill="none" stroke="black" stroke-width="2"/>
<text x="632.5" y="785" text-anchor="middle" font-family="Arial" font-size="20" fill="black">distance along sample line [m]</text>
<text x="34" y="390.0" transform="rotate(-90 34 390.0)" text-anchor="middle" font-family="Arial" font-size="20" fill="black">rho [kg/m3]</text>
<polyline points="190.69,133.08 193.64,133.08 196.58,131.46 199.53,131.46 202.47,129.83 205.42,128.20 208.36,126.58 211.31,124.95 214.25,123.33 217.20,120.07 220.14,118.45 223.09,118.45 226.03,118.45 228.98,118.45 231.93,120.07 234.87,121.70 237.82,123.33 240.76,126.58 243.71,129.83 246.65,133.08 249.60,137.96 252.54,141.21 255.49,144.47 258.43,149.34 261.38,152.60 264.32,157.47 267.27,162.35 270.22,167.23 273.16,172.11 276.11,176.99 279.05,183.49 282.00,186.74 284.94,191.62 287.88,196.50 290.83,201.38 293.78,206.26 296.73,212.76 299.67,217.64 302.62,222.52 305.57,227.39 308.50,233.90 311.45,237.15 314.40,242.03 317.34,246.91 320.29,251.79 323.24,256.66 326.18,263.17 329.12,268.05 332.07,274.55 335.01,279.43 337.96,285.93 340.91,292.44 343.85,297.31 346.80,303.82 349.74,310.32 352.68,318.45 355.63,328.21 358.58,336.34 361.53,346.10 364.47,355.85 367.42,367.24 370.36,375.37 373.30,385.12 376.25,394.88 379.20,404.63 382.14,414.39 385.09,424.15 388.04,430.65 390.97,438.78 393.92,445.29 396.87,451.79 399.81,456.67 402.76,463.17 405.71,464.80 408.65,464.80 411.59,463.17 414.54,461.55 417.48,459.92 420.43,458.29 423.38,453.42 426.32,450.16 429.27,445.29 432.21,442.03 435.16,438.78 438.10,437.16 441.05,433.90 444.00,432.28 446.94,430.65 449.89,430.65 452.84,429.03 455.77,429.03 458.72,427.40 461.67,425.77 464.61,424.15 467.56,424.15 470.51,422.52 473.45,422.52 476.39,422.52 479.34,422.52 482.28,422.52 485.23,422.52 488.18,422.52 491.12,422.52 494.07,422.52 497.01,422.52 499.96,422.52 502.90,424.15 505.85,425.77 508.80,427.40 511.74,429.03 514.69,430.65 517.63,430.65 520.57,433.90 523.52,435.53 526.47,438.78 529.41,442.03 532.36,445.29 535.31,450.16 538.24,453.42 541.19,458.29 544.14,463.17 547.08,469.68 550.03,474.56 552.98,479.43 555.92,484.31 558.86,490.82 561.81,497.32 564.76,502.20 567.70,507.08 570.65,511.95 573.60,516.83 576.54,520.08 579.49,521.71 582.43,524.96 585.37,524.96 588.32,526.59 591.27,526.59 594.21,524.96 597.16,523.34 600.11,521.71 603.04,520.08 605.99,518.46 608.94,515.21 611.88,511.95 614.83,507.08 617.78,505.45 620.72,502.20 623.66,498.95 626.61,495.69 629.55,492.44 632.50,489.19 635.45,487.56 638.40,484.31 641.34,482.69 644.28,479.43 647.23,476.18 650.17,474.56 653.12,472.93 656.07,471.30 659.01,469.68 661.96,466.42 664.90,464.80 667.84,461.55 670.79,461.55 673.74,459.92 676.68,458.29 679.63,456.67 682.58,453.42 685.51,451.79 688.46,450.16 691.41,448.54 694.35,445.29 697.30,443.66 700.25,442.03 703.20,440.41 706.14,438.78 709.08,435.53 712.03,435.53 714.97,433.90 717.92,433.90 720.87,432.28 723.81,432.28 726.76,433.90 729.70,433.90 732.64,435.53 735.59,437.16 738.54,438.78 741.48,440.41 744.43,442.03 747.38,443.66 750.31,446.91 753.26,450.16 756.21,453.42 759.15,455.04 762.10,458.29 765.05,461.55 767.99,464.80 770.93,468.05 773.88,471.30 776.83,472.93 779.77,476.18 782.72,479.43 785.67,481.06 788.61,484.31 791.55,487.56 794.50,489.19 797.44,492.44 800.39,494.07 803.34,497.32 806.28,500.57 809.23,502.20 812.17,507.08 815.11,510.33 818.06,513.58 821.01,518.46 823.95,523.34 826.90,529.84 829.85,536.35 832.79,542.85 835.73,550.98 838.68,560.74 841.63,570.49 844.57,578.62 847.52,586.75 850.47,593.26 853.41,599.76 856.35,604.64 859.30,609.52 862.24,609.52 865.19,609.52 868.14,607.89 871.08,607.89 874.03,604.64 876.97,599.76 879.91,596.51 882.86,591.63 885.81,586.75 888.75,580.25 891.70,573.74 894.65,568.87 897.58,563.99 900.53,559.11 903.48,555.86 906.43,552.61 909.37,549.35 912.32,547.73 915.27,546.10 918.20,546.10 921.15,546.10 924.10,547.73 927.04,549.35 929.99,550.98 932.94,554.23 935.88,557.48 938.82,560.74 941.77,563.99 944.71,567.24 947.66,572.12 950.61,575.37 953.55,580.25 956.50,585.13 959.44,588.38 962.38,593.26 965.33,596.51 968.28,599.76 971.22,604.64 974.17,607.89 977.12,611.14 980.06,614.40 983.00,619.27 985.95,622.53 988.90,624.15 991.84,627.40 994.79,630.66 997.74,632.28 1000.68,635.53 1003.62,637.16 1006.57,640.41 1009.51,642.04 1012.46,643.67 1015.41,646.92 1018.35,648.54 1021.30,650.17 1024.24,650.17 1027.18,651.80 1030.13,653.42 1033.08,653.42 1036.02,655.05 1038.97,656.67 1041.92,656.67 1044.86,658.30 1047.80,658.30 1050.75,658.30 1053.70,658.30 1056.64,659.93 1059.59,659.93 1062.54,659.93 1065.47,661.55 1068.42,661.55 1071.37,661.55 1074.31,661.55" fill="none" stroke="#000000" stroke-width="3"/>
<line x1="142" y1="100" x2="178" y2="100" stroke="#000000" stroke-width="4"/>
<text x="188" y="105" font-family="Arial" font-size="18" fill="black">rho</text>
</svg>