<svg xmlns="http://www.w3.org/2000/svg" width="1200" height="820" viewBox="0 0 1200 820">
<rect width="100%" height="100%" fill="white"/>
<text x="600.0" y="36" text-anchor="middle" font-family="Arial" font-size="24" fill="black">profile_center_y: vorticity:2</text>
<line x1="120.00" y1="75" x2="120.00" y2="705" stroke="#dddddd" stroke-width="1"/>
<text x="120.00" y="737" text-anchor="middle" font-family="Arial" font-size="16" fill="black">-0.400</text>
<line x1="376.25" y1="75" x2="376.25" y2="705" stroke="#dddddd" stroke-width="1"/>
<text x="376.25" y="737" text-anchor="middle" font-family="Arial" font-size="16" fill="black">1.050</text>
<line x1="632.50" y1="75" x2="632.50" y2="705" stroke="#dddddd" stroke-width="1"/>
<text x="632.50" y="737" text-anchor="middle" font-family="Arial" font-size="16" fill="black">2.500</text>
<line x1="888.75" y1="75" x2="888.75" y2="705" stroke="#dddddd" stroke-width="1"/>
<text x="888.75" y="737" text-anchor="middle" font-family="Arial" font-size="16" fill="black">3.950</text>
<line x1="1145.00" y1="75" x2="1145.00" y2="705" stroke="#dddddd" stroke-width="1"/>
<text x="1145.00" y="737" text-anchor="middle" font-family="Arial" font-size="16" fill="black">5.400</text>
<line x1="120" y1="705.00" x2="1145" y2="705.00" stroke="#dddddd" stroke-width="1"/>
<text x="104" y="710.00" text-anchor="end" font-family="Arial" font-size="16" fill="black">-0.790</text>
<line x1="120" y1="547.50" x2="1145" y2="547.50" stroke="#dddddd" stroke-width="1"/>
<text x="104" y="552.50" text-anchor="end" font-family="Arial" font-size="16" fill="black">-0.415</text>
<line x1="120" y1="390.00" x2="1145" y2="390.00" stroke="#dddddd" stroke-width="1"/>
<text x="104" y="395.00" text-anchor="end" font-family="Arial" font-size="16" fill="black">-0.041</text>
<line x1="120" y1="232.50" x2="1145" y2="232.50" stroke="#dddddd" stroke-width="1"/>
<text x="104" y="237.50" text-anchor="end" font-family="Arial" font-size="16" fill="black">0.334</text>
<line x1="120" y1="75.00" x2="1145" y2="75.00" stroke="#dddddd" stroke-width="1"/>
<text x="104" y="80.00" text-anchor="end" font-family="Arial" font-size="16" fill="black">0.709</text>
<rect x="120" y="75" width="1025" height="630" fill="none" stroke="black" stroke-width="2"/>
<text x="632.5" y="785" text-anchor="middle" font-family="Arial" font-size="20" fill="black">y coordinate [m]</text>
<text x="34" y="390.0" transform="rotate(-90 34 390.0)" text-anchor="middle" font-family="Arial" font-size="20" fill="black">vorticity:2 [SI]</text>
<polyline points="190.69,147.12 193.64,175.71 196.58,204.31 199.53,232.91 202.47,261.50 205.42,290.10 208.36,318.69 211.31,350.15 214.25,381.62 217.20,413.08 220.14,444.54 223.09,476.00 226.03,507.46 228.98,510.56 231.92,513.67 234.87,516.77 237.82,519.87 240.76,522.98 243.71,526.08 246.65,524.76 249.60,523.44 252.54,522.13 255.49,520.81 258.43,519.49 261.38,518.18 264.33,514.25 267.27,510.32 270.22,506.40 273.16,502.47 276.11,498.55 279.05,494.62 282.00,489.50 284.94,484.37 287.89,479.25 290.83,474.12 293.78,469.00 296.72,463.87 299.67,458.12 302.61,452.38 305.56,446.63 308.51,440.88 311.45,435.13 314.40,429.39 317.34,422.88 320.29,416.38 323.23,409.87 326.18,403.37 329.12,396.86 332.07,390.36 335.01,381.90 337.96,373.43 340.91,364.97 343.85,356.51 346.80,348.05 349.74,339.58 352.69,327.97 355.63,316.36 358.58,304.74 361.52,293.13 364.47,281.51 367.41,269.90 370.37,256.88 373.30,243.87 376.25,230.86 379.20,217.84 382.13,204.82 385.09,191.81 388.04,182.05 390.97,172.30 393.92,162.55 396.87,152.79 399.81,143.04 402.76,133.28 405.71,130.81 408.64,128.34 411.59,125.87 414.55,123.39 417.48,120.92 420.43,118.45 423.38,124.08 426.32,129.71 429.27,135.34 432.22,140.97 435.15,146.60 438.10,152.23 441.05,164.26 443.99,176.30 446.94,188.33 449.89,200.37 452.82,212.40 455.78,224.44 458.73,241.05 461.66,257.67 464.61,274.28 467.56,290.89 470.50,307.51 473.45,324.12 476.40,343.46 479.33,362.79 482.28,382.12 485.24,401.45 488.17,420.78 491.12,440.11 494.07,458.75 497.01,477.39 499.96,496.03 502.91,514.67 505.84,533.31 508.79,551.95 511.74,565.31 514.68,578.66 517.63,592.01 520.58,605.37 523.51,618.73 526.47,632.08 529.42,636.99 532.35,641.90 535.30,646.82 538.25,651.73 541.19,656.64 544.14,661.55 547.09,658.44 550.02,655.34 552.97,652.23 555.93,649.13 558.86,646.03 561.81,642.92 564.76,635.33 567.70,627.75 570.65,620.16 573.60,612.57 576.53,604.98 579.48,597.40 582.43,589.08 585.37,580.76 588.32,572.45 591.27,564.13 594.20,555.81 597.16,547.49 600.11,540.28 603.04,533.07 605.99,525.86 608.94,518.65 611.88,511.44 614.83,504.22 617.78,498.40 620.71,492.58 623.66,486.75 626.62,480.93 629.55,475.10 632.50,469.28 635.45,464.57 638.38,459.87 641.34,455.16 644.29,450.45 647.22,445.75 650.17,441.04 653.12,437.26 656.06,433.49 659.01,429.70 661.96,425.93 664.89,422.15 667.84,418.37 670.80,415.74 673.73,413.10 676.68,410.47 679.63,407.83 682.57,405.19 685.52,402.56 688.47,401.60 691.40,400.65 694.35,399.69 697.30,398.73 700.24,397.78 703.19,396.82 706.14,397.86 709.07,398.90 712.03,399.94 714.98,400.98 717.91,402.02 720.86,403.07 723.81,405.63 726.75,408.20 729.70,410.77 732.65,413.34 735.58,415.90 738.53,418.47 741.49,421.44 744.42,424.40 747.37,427.36 750.32,430.33 753.26,433.30 756.21,436.26 759.16,438.60 762.09,440.94 765.04,443.28 767.99,445.62 770.93,447.96 773.88,450.30 776.83,451.61 779.76,452.92 782.72,454.23 785.67,455.54 788.60,456.86 791.55,458.17 794.50,458.45 797.44,458.74 800.39,459.02 803.34,459.30 806.27,459.59 809.22,459.87 812.18,459.17 815.11,458.46 818.06,457.76 821.01,457.05 823.95,456.35 826.90,455.65 829.85,453.98 832.78,452.32 835.73,450.65 838.68,448.99 841.62,447.32 844.57,445.66 847.52,443.06 850.45,440.45 853.41,437.85 856.36,435.25 859.29,432.65 862.24,430.05 865.19,426.63 868.13,423.20 871.08,419.78 874.03,416.35 876.96,412.93 879.91,409.50 882.87,405.49 885.80,401.47 888.75,397.46 891.70,393.44 894.63,389.43 897.59,385.41 900.54,381.18 903.47,376.96 906.42,372.73 909.37,368.51 912.31,364.28 915.26,360.05 918.21,356.07 921.14,352.09 924.09,348.10 927.05,344.12 929.98,340.14 932.93,336.15 935.88,332.74 938.82,329.32 941.77,325.91 944.72,322.49 947.65,319.08 950.60,315.66 953.55,312.98 956.49,310.30 959.44,307.61 962.39,304.93 965.32,302.25 968.28,299.57 971.23,297.64 974.16,295.71 977.11,293.78 980.06,291.86 983.00,289.93 985.95,288.00 988.90,286.76 991.83,285.52 994.78,284.28 997.74,283.04 1000.67,281.80 1003.62,280.56 1006.57,279.82 1009.51,279.07 1012.46,278.33 1015.41,277.59 1018.34,276.84 1021.29,276.10 1024.24,275.29 1027.18,274.48 1030.13,273.67 1033.08,272.86 1036.01,272.06 1038.97,271.25 1041.92,298.85 1044.85,326.45 1047.80,354.05 1050.75,381.65 1053.69,409.25 1056.64,436.85 1059.59,464.98 1062.52,493.10 1065.47,521.22 1068.43,549.35 1071.36,577.47 1074.31,605.59" fill="none" stroke="#000000" stroke-width="3"/>
<line x1="142" y1="100" x2="178" y2="100" stroke="#000000" stroke-width="4"/>
<text x="188" y="105" font-family="Arial" font-size="18" fill="black">vorticity:2</text>
</svg>