<svg xmlns="http://www.w3.org/2000/svg" width="1200" height="820" viewBox="0 0 1200 820">
<rect width="100%" height="100%" fill="white"/>
<text x="600.0" y="36" text-anchor="middle" font-family="Arial" font-size="24" fill="black">profile_diagonal_supply_return: vorticity:1</text>
<line x1="120.00" y1="75" x2="120.00" y2="705" stroke="#dddddd" stroke-width="1"/>
<text x="120.00" y="737" text-anchor="middle" font-family="Arial" font-size="16" fill="black">-0.729</text>
<line x1="376.25" y1="75" x2="376.25" y2="705" stroke="#dddddd" stroke-width="1"/>
<text x="376.25" y="737" text-anchor="middle" font-family="Arial" font-size="16" fill="black">1.913</text>
<line x1="632.50" y1="75" x2="632.50" y2="705" stroke="#dddddd" stroke-width="1"/>
<text x="632.50" y="737" text-anchor="middle" font-family="Arial" font-size="16" fill="black">4.555</text>
<line x1="888.75" y1="75" x2="888.75" y2="705" stroke="#dddddd" stroke-width="1"/>
<text x="888.75" y="737" text-anchor="middle" font-family="Arial" font-size="16" fill="black">7.197</text>
<line x1="1145.00" y1="75" x2="1145.00" y2="705" stroke="#dddddd" stroke-width="1"/>
<text x="1145.00" y="737" text-anchor="middle" font-family="Arial" font-size="16" fill="black">9.839</text>
<line x1="120" y1="705.00" x2="1145" y2="705.00" stroke="#dddddd" stroke-width="1"/>
<text x="104" y="710.00" text-anchor="end" font-family="Arial" font-size="16" fill="black">-1.145</text>
<line x1="120" y1="547.50" x2="1145" y2="547.50" stroke="#dddddd" stroke-width="1"/>
<text x="104" y="552.50" text-anchor="end" font-family="Arial" font-size="16" fill="black">-0.658</text>
<line x1="120" y1="390.00" x2="1145" y2="390.00" stroke="#dddddd" stroke-width="1"/>
<text x="104" y="395.00" text-anchor="end" font-family="Arial" font-size="16" fill="black">-0.172</text>
<line x1="120" y1="232.50" x2="1145" y2="232.50" stroke="#dddddd" stroke-width="1"/>
<text x="104" y="237.50" text-anchor="end" font-family="Arial" font-size="16" fill="black">0.314</text>
<line x1="120" y1="75.00" x2="1145" y2="75.00" stroke="#dddddd" stroke-width="1"/>
<text x="104" y="80.00" text-anchor="end" font-family="Arial" font-size="16" fill="black">0.801</text>
<rect x="120" y="75" width="1025" height="630" fill="none" stroke="black" stroke-width="2"/>
<text x="632.5" y="785" text-anchor="middle" font-family="Arial" font-size="20" fill="black">distance along sample line [m]</text>
<text x="34" y="390.0" transform="rotate(-90 34 390.0)" text-anchor="middle" font-family="Arial" font-size="20" fill="black">vorticity:1 [SI]</text>
<polyline points="190.69,661.55 193.64,636.25 196.58,610.11 199.53,583.12 202.47,555.27 205.42,532.23 208.36,509.79 211.31,482.07 214.25,451.95 217.20,428.89 220.14,417.40 223.09,406.03 226.03,394.21 228.98,384.76 231.93,372.62 234.87,359.11 237.82,344.19 240.76,327.83 243.71,310.24 246.65,292.00 249.60,272.17 252.54,270.22 255.49,269.05 258.43,268.50 261.38,268.05 264.32,267.96 267.27,268.46 270.22,270.08 273.16,271.88 276.11,273.84 279.05,275.97 282.00,278.36 284.94,280.94 287.88,283.64 290.83,286.42 293.78,289.68 296.73,293.04 299.67,296.64 302.62,300.36 305.57,304.16 308.50,307.87 311.45,310.14 314.40,312.10 317.34,314.42 320.29,316.33 323.24,317.90 326.18,319.05 329.12,319.71 332.07,319.79 335.01,320.37 337.96,320.42 340.91,318.76 343.85,316.60 346.80,313.99 349.74,310.78 352.68,308.11 355.63,304.84 358.58,301.11 361.53,296.77 364.47,291.73 367.42,285.95 370.36,280.58 373.30,274.63 376.25,268.06 379.20,260.88 382.14,253.46 385.09,245.63 388.04,238.61 390.97,231.00 393.92,223.29 396.87,215.68 399.81,207.42 402.76,198.65 405.71,191.15 408.65,186.17 411.59,180.81 414.54,175.09 417.48,169.01 420.43,167.47 423.38,167.57 426.32,167.49 429.27,167.29 432.21,169.30 435.16,173.05 438.10,176.79 441.05,181.03 444.00,185.69 446.94,191.60 449.89,197.46 452.84,203.30 455.77,209.14 458.72,215.78 461.67,222.26 464.61,228.58 467.56,234.77 470.51,241.19 473.45,247.67 476.39,254.13 479.34,260.45 482.28,266.86 485.23,273.47 488.18,279.49 491.12,285.39 494.07,291.29 497.01,297.68 499.96,303.98 502.90,310.20 505.85,316.35 508.80,323.26 511.74,330.28 514.69,337.21 517.63,343.48 520.57,350.13 523.52,357.10 526.47,364.02 529.41,370.85 532.36,377.55 535.31,384.21 538.24,390.66 541.19,396.90 544.14,402.93 547.08,406.98 550.03,410.67 552.98,413.97 555.92,416.87 558.86,416.87 561.81,415.46 564.76,414.65 567.70,413.57 570.65,409.88 573.60,403.12 576.54,396.38 579.49,389.89 582.43,384.93 585.37,376.46 588.32,368.80 591.27,361.94 594.21,355.90 597.16,348.64 600.11,343.31 603.04,338.75 605.99,335.14 608.94,331.72 611.88,328.56 614.83,326.13 617.78,324.39 620.72,322.74 623.66,320.62 626.61,318.75 629.55,317.16 632.50,315.87 635.45,312.81 638.40,309.60 641.34,306.29 644.28,302.87 647.23,298.80 650.17,294.35 653.12,288.66 656.07,282.66 659.01,276.72 661.96,270.97 664.90,264.91 667.84,258.58 670.79,251.26 673.74,246.19 676.68,240.91 679.63,235.41 682.58,229.70 685.51,228.02 688.46,226.10 691.41,224.19 694.35,222.17 697.30,223.48 700.25,227.48 703.20,231.76 706.14,236.11 709.08,242.10 712.03,251.73 714.97,261.77 717.92,272.24 720.87,283.15 723.81,296.42 726.76,310.05 729.70,324.07 732.64,338.49 735.59,352.63 738.54,366.91 741.48,381.64 744.43,396.66 747.38,410.79 750.31,423.63 753.26,436.29 756.21,449.25 759.15,461.58 762.10,471.52 765.05,481.70 767.99,492.10 770.93,502.72 773.88,511.67 776.83,519.49 779.77,527.45 782.72,535.16 785.67,542.30 788.61,549.06 791.55,556.01 794.50,561.57 797.44,567.05 800.39,572.16 803.34,577.38 806.28,582.73 809.23,588.21 812.17,591.07 815.11,593.94 818.06,596.83 821.01,599.73 823.95,601.66 826.90,603.19 829.85,603.36 832.79,603.48 835.73,601.78 838.68,597.64 841.63,592.46 844.57,587.16 847.52,579.39 850.47,566.17 853.41,552.82 856.35,539.31 859.30,525.65 862.24,507.58 865.19,486.89 868.14,466.15 871.08,444.92 874.03,421.84 876.97,397.52 879.91,373.45 882.86,348.84 885.81,324.27 888.75,299.21 891.70,275.09 894.65,251.92 897.58,229.71 900.53,210.17 903.48,192.03 906.43,175.25 909.37,159.78 912.32,148.32 915.27,139.12 918.20,131.44 921.15,124.65 924.10,120.62 927.04,119.62 929.99,118.93 932.94,118.45 935.88,118.59 938.82,121.35 941.77,123.93 944.71,126.32 947.66,128.53 950.61,131.84 953.55,135.46 956.50,138.93 959.44,141.92 962.38,144.87 965.33,147.78 968.28,150.49 971.22,153.38 974.17,156.20 977.12,159.08 980.06,161.97 983.00,164.88 985.95,167.83 988.90,168.74 991.84,169.49 994.79,170.08 997.74,170.47 1000.68,171.27 1003.62,172.41 1006.57,173.85 1009.51,175.36 1012.46,178.06 1015.41,182.71 1018.35,195.35 1021.30,208.75 1024.24,221.90 1027.18,233.20 1030.13,244.12 1033.08,255.34 1036.02,267.55 1038.97,272.23 1041.92,271.72 1044.86,268.59 1047.80,263.64 1050.75,268.94 1053.70,281.24 1056.64,291.46 1059.59,304.61 1062.54,316.20 1065.47,324.90 1068.42,332.78 1071.37,340.07 1074.31,347.01" fill="none" stroke="#000000" stroke-width="3"/>
<line x1="142" y1="100" x2="178" y2="100" stroke="#000000" stroke-width="4"/>
<text x="188" y="105" font-family="Arial" font-size="18" fill="black">vorticity:1</text>
</svg>