<svg xmlns="http://www.w3.org/2000/svg" width="1200" height="820" viewBox="0 0 1200 820">
<rect width="100%" height="100%" fill="white"/>
<text x="600.0" y="36" text-anchor="middle" font-family="Arial" font-size="24" fill="black">profile_diagonal_supply_return: U, V, W components</text>
<line x1="120.00" y1="75" x2="120.00" y2="705" stroke="#dddddd" stroke-width="1"/>
<text x="120.00" y="737" text-anchor="middle" font-family="Arial" font-size="16" fill="black">-0.729</text>
<line x1="376.25" y1="75" x2="376.25" y2="705" stroke="#dddddd" stroke-width="1"/>
<text x="376.25" y="737" text-anchor="middle" font-family="Arial" font-size="16" fill="black">1.913</text>
<line x1="632.50" y1="75" x2="632.50" y2="705" stroke="#dddddd" stroke-width="1"/>
<text x="632.50" y="737" text-anchor="middle" font-family="Arial" font-size="16" fill="black">4.555</text>
<line x1="888.75" y1="75" x2="888.75" y2="705" stroke="#dddddd" stroke-width="1"/>
<text x="888.75" y="737" text-anchor="middle" font-family="Arial" font-size="16" fill="black">7.197</text>
<line x1="1145.00" y1="75" x2="1145.00" y2="705" stroke="#dddddd" stroke-width="1"/>
<text x="1145.00" y="737" text-anchor="middle" font-family="Arial" font-size="16" fill="black">9.839</text>
<line x1="120" y1="705.00" x2="1145" y2="705.00" stroke="#dddddd" stroke-width="1"/>
<text x="104" y="710.00" text-anchor="end" font-family="Arial" font-size="16" fill="black">-0.172</text>
<line x1="120" y1="547.50" x2="1145" y2="547.50" stroke="#dddddd" stroke-width="1"/>
<text x="104" y="552.50" text-anchor="end" font-family="Arial" font-size="16" fill="black">-0.039</text>
<line x1="120" y1="390.00" x2="1145" y2="390.00" stroke="#dddddd" stroke-width="1"/>
<text x="104" y="395.00" text-anchor="end" font-family="Arial" font-size="16" fill="black">0.095</text>
<line x1="120" y1="232.50" x2="1145" y2="232.50" stroke="#dddddd" stroke-width="1"/>
<text x="104" y="237.50" text-anchor="end" font-family="Arial" font-size="16" fill="black">0.228</text>
<line x1="120" y1="75.00" x2="1145" y2="75.00" stroke="#dddddd" stroke-width="1"/>
<text x="104" y="80.00" text-anchor="end" font-family="Arial" font-size="16" fill="black">0.362</text>
<rect x="120" y="75" width="1025" height="630" fill="none" stroke="black" stroke-width="2"/>
<text x="632.5" y="785" text-anchor="middle" font-family="Arial" font-size="20" fill="black">distance along sample line [m]</text>
<text x="34" y="390.0" transform="rotate(-90 34 390.0)" text-anchor="middle" font-family="Arial" font-size="20" fill="black">velocity component [m/s]</text>
<polyline points="190.69,564.22 193.64,563.39 196.58,562.53 199.53,561.63 202.47,560.68 205.42,562.52 208.36,565.48 211.31,567.28 214.25,568.61 217.20,569.49 220.14,570.26 223.09,570.35 226.03,570.29 228.98,573.17 231.93,574.74 234.87,576.05 237.82,577.10 240.76,577.86 243.71,577.72 246.65,578.68 249.60,579.44 252.54,580.84 255.49,581.64 258.43,582.04 261.38,582.41 264.32,583.20 267.27,583.71 270.22,583.68 273.16,583.66 276.11,583.66 279.05,583.68 282.00,583.72 284.94,583.89 287.88,584.19 290.83,584.62 293.78,584.76 296.73,584.83 299.67,584.47 302.62,584.32 305.57,584.17 308.50,583.87 311.45,584.29 314.40,584.83 317.34,584.76 320.29,584.55 323.24,584.53 326.18,584.69 329.12,585.03 332.07,585.25 335.01,584.86 337.96,584.72 340.91,584.99 343.85,585.32 346.80,585.64 349.74,585.99 352.68,586.02 355.63,586.22 358.58,586.36 361.53,586.61 364.47,586.94 367.42,587.33 370.36,586.89 373.30,586.61 376.25,586.47 379.20,586.43 382.14,585.98 385.09,585.36 388.04,584.90 390.97,584.61 393.92,584.13 396.87,583.29 399.81,582.13 402.76,581.02 405.71,580.21 408.65,578.86 411.59,577.64 414.54,576.54 417.48,575.54 420.43,573.83 423.38,572.49 426.32,571.30 429.27,569.95 432.21,568.20 435.16,566.18 438.10,564.32 441.05,563.05 444.00,561.70 446.94,559.84 449.89,558.14 452.84,556.59 455.77,555.20 458.72,553.33 461.67,551.61 464.61,550.05 467.56,548.66 470.51,546.93 473.45,545.15 476.39,543.79 479.34,542.57 482.28,541.21 485.23,539.59 488.18,537.74 491.12,536.02 494.07,534.54 497.01,532.65 499.96,530.82 502.90,529.07 505.85,527.42 508.80,525.42 511.74,523.43 514.69,521.46 517.63,519.12 520.57,516.61 523.52,513.92 526.47,511.19 529.41,508.48 532.36,505.71 535.31,502.73 538.24,499.59 541.19,496.32 544.14,492.95 547.08,489.31 550.03,485.45 552.98,481.40 555.92,477.18 558.86,473.06 561.81,468.71 564.76,464.61 567.70,460.29 570.65,456.08 573.60,451.97 576.54,447.19 579.49,442.09 582.43,437.93 585.37,434.40 588.32,430.60 591.27,426.56 594.21,422.29 597.16,418.74 600.11,416.38 603.04,413.84 605.99,411.03 608.94,408.72 611.88,406.72 614.83,404.57 617.78,403.49 620.72,402.57 623.66,402.16 626.61,401.60 629.55,400.86 632.50,399.98 635.45,400.85 638.40,401.57 641.34,402.16 644.28,402.60 647.23,403.36 650.17,404.14 653.12,405.37 656.07,406.42 659.01,407.55 661.96,408.87 664.90,410.54 667.84,412.06 670.79,413.97 673.74,416.32 676.68,418.53 679.63,420.59 682.58,422.53 685.51,424.94 688.46,427.69 691.41,430.32 694.35,433.30 697.30,436.52 700.25,439.91 703.20,443.23 706.14,446.74 709.08,450.29 712.03,454.11 714.97,457.88 717.92,461.62 720.87,465.33 723.81,469.78 726.76,474.20 729.70,478.58 732.64,482.95 735.59,487.31 738.54,491.69 741.48,496.19 744.43,500.68 747.38,505.00 750.31,509.12 753.26,513.40 756.21,517.71 759.15,521.91 762.10,525.43 765.05,528.90 767.99,532.36 770.93,535.81 773.88,538.44 776.83,540.81 779.77,543.11 782.72,545.33 785.67,546.95 788.61,548.12 791.55,549.25 794.50,550.27 797.44,550.99 800.39,551.09 803.34,551.15 806.28,551.18 809.23,551.18 812.17,550.68 815.11,550.17 818.06,549.67 821.01,549.18 823.95,548.57 826.90,547.95 829.85,547.93 832.79,547.97 835.73,548.05 838.68,548.20 841.63,548.12 844.57,548.11 847.52,549.10 850.47,550.23 853.41,551.40 856.35,552.61 859.30,553.84 862.24,555.26 865.19,557.61 868.14,559.84 871.08,561.38 874.03,562.74 876.97,563.88 879.91,564.81 882.86,565.91 885.81,566.53 888.75,566.46 891.70,566.06 894.65,565.32 897.58,564.28 900.53,561.61 903.48,558.71 906.43,555.60 909.37,552.31 912.32,548.78 915.27,545.16 918.20,541.28 921.15,537.41 924.10,533.78 927.04,530.48 929.99,526.39 932.94,522.35 935.88,518.22 938.82,514.82 941.77,511.49 944.71,508.23 947.66,505.06 950.61,502.47 953.55,499.74 956.50,497.14 959.44,493.61 962.38,490.43 965.33,487.55 968.28,484.86 971.22,482.19 974.17,479.87 977.12,478.01 980.06,476.44 983.00,475.18 985.95,474.23 988.90,472.65 991.84,471.61 994.79,471.12 997.74,471.18 1000.68,472.00 1003.62,473.44 1006.57,475.72 1009.51,478.68 1012.46,481.84 1015.41,484.76 1018.35,486.53 1021.30,488.51 1024.24,491.72 1027.18,494.26 1030.13,496.81 1033.08,499.31 1036.02,501.69 1038.97,505.55 1041.92,512.91 1044.86,520.25 1047.80,528.24 1050.75,534.36 1053.70,538.37 1056.64,541.25 1059.59,540.48 1062.54,539.34 1065.47,538.45 1068.42,537.16 1071.37,535.47 1074.31,533.35" fill="none" stroke="#000000" stroke-width="3"/>
<line x1="142" y1="100" x2="178" y2="100" stroke="#000000" stroke-width="4"/>
<text x="188" y="105" font-family="Arial" font-size="18" fill="black">Ux / u</text>
<polyline points="190.69,506.51 193.64,509.80 196.58,513.21 199.53,516.70 202.47,520.25 205.42,525.58 208.36,531.80 211.31,541.24 214.25,550.43 217.20,558.89 220.14,566.95 223.09,574.31 226.03,581.75 228.98,589.34 231.93,596.10 234.87,602.84 237.82,609.51 240.76,616.11 243.71,622.03 246.65,626.65 249.60,631.20 252.54,636.41 255.49,641.01 258.43,645.09 261.38,648.98 264.32,652.15 267.27,654.88 270.22,656.77 273.16,658.50 276.11,660.02 279.05,661.34 282.00,661.52 284.94,661.55 287.88,661.45 290.83,661.16 293.78,659.76 296.73,657.73 299.67,655.08 302.62,652.32 305.57,648.78 308.50,644.16 311.45,640.16 314.40,635.85 317.34,630.95 320.29,624.55 323.24,617.87 326.18,610.88 329.12,603.53 332.07,594.70 335.01,585.36 337.96,575.65 340.91,566.70 343.85,557.03 346.80,546.61 349.74,535.66 352.68,524.62 355.63,513.18 358.58,501.27 361.53,488.79 364.47,475.72 367.42,462.01 370.36,450.63 373.30,438.77 376.25,426.43 379.20,413.57 382.14,400.74 385.09,387.59 388.04,374.74 390.97,361.38 393.92,347.93 396.87,334.54 399.81,323.03 402.76,311.10 405.71,299.93 408.65,289.58 411.59,278.88 414.54,267.78 417.48,256.29 420.43,245.95 423.38,236.62 426.32,226.95 429.27,219.45 432.21,212.81 435.16,206.81 438.10,200.60 441.05,195.33 444.00,190.39 446.94,186.53 449.89,182.53 452.84,178.40 455.77,174.14 458.72,174.25 461.67,174.27 464.61,174.23 467.56,174.15 470.51,174.72 473.45,175.54 476.39,177.29 479.34,178.99 482.28,180.89 485.23,183.08 488.18,186.70 491.12,190.33 494.07,194.86 497.01,199.63 499.96,204.32 502.90,208.93 505.85,213.50 508.80,218.27 511.74,223.66 514.69,228.87 517.63,235.08 520.57,241.43 523.52,247.76 526.47,253.88 529.41,260.46 532.36,267.06 535.31,273.94 538.24,280.53 541.19,286.87 544.14,292.97 547.08,301.47 550.03,309.62 552.98,317.46 555.92,325.01 558.86,333.46 561.81,342.02 564.76,350.68 567.70,359.01 570.65,367.83 573.60,377.31 576.54,387.04 579.49,396.39 582.43,405.78 585.37,416.05 588.32,425.92 591.27,435.41 594.21,444.53 597.16,454.00 600.11,463.06 603.04,471.73 605.99,480.38 608.94,488.57 611.88,496.30 614.83,503.63 617.78,510.25 620.72,516.24 623.66,521.21 626.61,525.85 629.55,530.17 632.50,534.16 635.45,536.25 638.40,538.06 641.34,539.59 644.28,540.85 647.23,540.55 650.17,539.49 653.12,537.89 656.07,536.09 659.01,533.30 661.96,529.26 664.90,525.35 667.84,521.29 670.79,516.53 673.74,510.19 676.68,503.78 679.63,497.29 682.58,490.74 685.51,482.92 688.46,474.60 691.41,466.26 694.35,458.20 697.30,449.57 700.25,440.54 703.20,431.50 706.14,422.32 709.08,413.02 712.03,403.39 714.97,393.79 717.92,384.22 720.87,374.68 723.81,365.38 726.76,356.13 729.70,346.95 732.64,337.81 735.59,329.01 738.54,320.36 741.48,311.91 744.43,303.52 747.38,295.51 750.31,287.94 753.26,280.79 756.21,273.70 759.15,267.23 762.10,261.67 765.05,256.15 767.99,250.66 770.93,245.18 773.88,240.68 776.83,237.02 779.77,233.36 782.72,230.26 785.67,227.86 788.61,225.94 791.55,223.95 794.50,222.91 797.44,222.22 800.39,222.36 803.34,222.40 806.28,222.31 809.23,222.11 812.17,224.81 815.11,227.34 818.06,229.69 821.01,231.87 823.95,234.59 826.90,237.34 829.85,240.84 832.79,244.09 835.73,247.23 838.68,250.28 841.63,253.47 844.57,256.29 847.52,259.30 850.47,261.45 853.41,263.11 856.35,264.31 859.30,265.07 862.24,264.36 865.19,263.45 868.14,262.17 871.08,260.86 874.03,258.52 876.97,255.43 879.91,252.12 882.86,249.43 885.81,246.49 888.75,243.18 891.70,239.97 894.65,236.86 897.58,233.88 900.53,232.29 903.48,230.87 906.43,229.63 909.37,228.58 912.32,227.85 915.27,227.36 918.20,228.50 921.15,229.81 924.10,231.29 927.04,232.95 929.99,234.02 932.94,235.22 935.88,237.71 938.82,240.12 941.77,242.67 944.71,245.40 947.66,248.30 950.61,251.00 953.55,254.89 956.50,259.02 959.44,262.20 962.38,265.25 965.33,268.24 968.28,271.48 971.22,276.12 974.17,280.81 977.12,285.21 980.06,289.91 983.00,294.89 985.95,300.16 988.90,304.10 991.84,308.42 994.79,313.11 997.74,318.19 1000.68,322.29 1003.62,326.04 1006.57,330.74 1009.51,335.51 1012.46,339.80 1015.41,343.54 1018.35,345.97 1021.30,348.69 1024.24,352.78 1027.18,357.55 1030.13,363.13 1033.08,369.50 1036.02,376.65 1038.97,382.10 1041.92,387.34 1044.86,393.07 1047.80,399.27 1050.75,402.54 1053.70,403.93 1056.64,405.81 1059.59,402.96 1062.54,401.09 1065.47,401.01 1068.42,401.26 1071.37,401.84 1074.31,402.75" fill="none" stroke="#555555" stroke-width="3" stroke-dasharray="9 5"/>
<line x1="142" y1="128" x2="178" y2="128" stroke="#555555" stroke-width="4" stroke-dasharray="9 5"/>
<text x="188" y="133" font-family="Arial" font-size="18" fill="black">Uy / v</text>
<polyline points="190.69,446.32 193.64,444.27 196.58,442.29 199.53,440.38 202.47,438.52 205.42,436.47 208.36,434.35 211.31,432.77 214.25,431.44 217.20,430.33 220.14,429.35 223.09,425.82 226.03,422.44 228.98,418.42 231.93,414.62 234.87,411.02 237.82,407.63 240.76,404.46 243.71,401.73 246.65,398.66 249.60,395.86 252.54,393.45 255.49,391.39 258.43,389.67 261.38,388.23 264.32,386.66 267.27,385.34 270.22,384.26 273.16,383.43 276.11,382.84 279.05,382.48 282.00,381.95 284.94,381.51 287.88,381.16 290.83,380.85 293.78,380.39 296.73,379.90 299.67,379.32 302.62,378.71 305.57,377.93 308.50,376.95 311.45,375.91 314.40,374.79 317.34,373.42 320.29,371.87 323.24,370.19 326.18,368.37 329.12,366.39 332.07,364.52 335.01,362.33 337.96,359.94 340.91,357.46 343.85,355.09 346.80,352.85 349.74,350.55 352.68,347.64 355.63,344.71 358.58,342.13 361.53,339.45 364.47,336.69 367.42,333.86 370.36,332.46 373.30,330.92 376.25,329.27 379.20,327.51 382.14,326.71 385.09,326.32 388.04,326.72 390.97,326.99 393.92,327.90 396.87,329.81 399.81,332.21 402.76,334.64 405.71,338.14 408.65,343.20 411.59,348.26 414.54,353.36 417.48,358.50 420.43,364.21 423.38,370.81 426.32,377.42 429.27,384.23 432.21,390.45 435.16,396.26 438.10,402.13 441.05,408.67 444.00,414.72 446.94,419.69 449.89,424.67 452.84,429.70 455.77,434.78 458.72,438.69 461.67,442.60 464.61,446.54 467.56,450.52 470.51,453.28 473.45,455.67 476.39,458.78 479.34,461.96 482.28,464.39 485.23,465.85 488.18,467.29 491.12,468.96 494.07,471.02 497.01,471.36 499.96,471.95 502.90,472.80 505.85,473.93 508.80,473.05 511.74,472.44 514.69,472.11 517.63,472.13 520.57,470.66 523.52,468.26 526.47,466.35 529.41,464.91 532.36,462.81 535.31,458.56 538.24,454.87 541.19,451.77 544.14,449.28 547.08,443.62 550.03,438.71 552.98,434.56 555.92,431.21 558.86,426.55 561.81,422.08 564.76,417.48 567.70,413.76 570.65,410.32 573.60,407.09 576.54,405.44 579.49,404.91 582.43,402.90 585.37,401.82 588.32,401.36 591.27,401.57 594.21,402.47 597.16,404.89 600.11,404.19 603.04,403.67 605.99,403.78 608.94,404.63 611.88,405.95 614.83,407.28 617.78,404.93 620.72,402.80 623.66,401.30 626.61,399.73 629.55,398.08 632.50,396.37 635.45,393.14 638.40,389.91 641.34,386.70 644.28,383.51 647.23,381.92 650.17,381.07 653.12,377.88 656.07,374.95 659.01,373.38 661.96,373.69 664.90,374.45 667.84,375.58 670.79,375.63 673.74,378.21 676.68,381.43 679.63,385.27 682.58,389.72 685.51,395.69 688.46,401.54 691.41,408.16 694.35,415.49 697.30,422.99 700.25,430.75 703.20,439.18 706.14,448.02 709.08,456.62 712.03,463.56 714.97,471.01 717.92,478.96 720.87,487.40 723.81,491.63 726.76,496.13 729.70,500.89 732.64,505.89 735.59,507.62 738.54,508.09 741.48,508.71 744.43,509.38 747.38,508.22 750.31,504.55 753.26,500.90 756.21,497.20 759.15,493.20 762.10,486.19 765.05,479.06 767.99,471.81 770.93,464.41 773.88,454.59 776.83,444.90 779.77,435.08 782.72,425.45 785.67,414.50 788.61,402.51 791.55,390.32 794.50,379.27 797.44,367.67 800.39,354.75 803.34,341.72 806.28,328.59 809.23,315.30 812.17,302.72 815.11,290.16 818.06,277.61 821.01,265.05 823.95,251.47 826.90,237.49 829.85,225.46 832.79,213.51 835.73,201.31 838.68,188.79 841.63,177.14 844.57,165.61 847.52,156.15 850.47,148.02 853.41,140.16 856.35,132.59 859.30,125.30 862.24,121.03 865.19,119.51 868.14,118.45 871.08,118.85 874.03,122.13 876.97,127.63 879.91,133.50 882.86,141.86 885.81,152.04 888.75,165.98 891.70,180.11 894.65,194.39 897.58,208.81 900.53,229.88 903.48,250.52 906.43,270.70 909.37,290.42 912.32,311.99 915.27,333.66 918.20,354.19 921.15,373.83 924.10,393.13 927.04,412.12 929.99,430.59 932.94,447.90 935.88,463.46 938.82,477.86 941.77,491.25 944.71,503.67 947.66,515.16 950.61,525.23 953.55,533.79 956.50,541.63 959.44,548.82 962.38,554.95 965.33,560.19 968.28,564.76 971.22,568.21 974.17,571.03 977.12,573.24 980.06,574.94 983.00,576.15 985.95,576.85 988.90,577.23 991.84,577.25 994.79,576.95 997.74,576.40 1000.68,576.66 1003.62,577.36 1006.57,578.43 1009.51,579.64 1012.46,581.08 1015.41,582.73 1018.35,582.64 1021.30,583.36 1024.24,584.91 1027.18,583.56 1030.13,582.22 1033.08,580.92 1036.02,579.71 1038.97,576.92 1041.92,572.99 1044.86,568.67 1047.80,566.47 1050.75,563.89 1053.70,561.06 1056.64,558.05 1059.59,555.02 1062.54,552.01 1065.47,549.16 1068.42,546.32 1071.37,543.50 1074.31,540.69" fill="none" stroke="#999999" stroke-width="3" stroke-dasharray="3 4"/>
<line x1="142" y1="156" x2="178" y2="156" stroke="#999999" stroke-width="4" stroke-dasharray="3 4"/>
<text x="188" y="161" font-family="Arial" font-size="18" fill="black">Uz / w</text>
</svg>