<svg xmlns="http://www.w3.org/2000/svg" width="1200" height="820" viewBox="0 0 1200 820">
<rect width="100%" height="100%" fill="white"/>
<text x="600.0" y="36" text-anchor="middle" font-family="Arial" font-size="24" fill="black">profile_center_y: U:1</text>
<line x1="120.00" y1="75" x2="120.00" y2="705" stroke="#dddddd" stroke-width="1"/>
<text x="120.00" y="737" text-anchor="middle" font-family="Arial" font-size="16" fill="black">-0.400</text>
<line x1="376.25" y1="75" x2="376.25" y2="705" stroke="#dddddd" stroke-width="1"/>
<text x="376.25" y="737" text-anchor="middle" font-family="Arial" font-size="16" fill="black">1.050</text>
<line x1="632.50" y1="75" x2="632.50" y2="705" stroke="#dddddd" stroke-width="1"/>
<text x="632.50" y="737" text-anchor="middle" font-family="Arial" font-size="16" fill="black">2.500</text>
<line x1="888.75" y1="75" x2="888.75" y2="705" stroke="#dddddd" stroke-width="1"/>
<text x="888.75" y="737" text-anchor="middle" font-family="Arial" font-size="16" fill="black">3.950</text>
<line x1="1145.00" y1="75" x2="1145.00" y2="705" stroke="#dddddd" stroke-width="1"/>
<text x="1145.00" y="737" text-anchor="middle" font-family="Arial" font-size="16" fill="black">5.400</text>
<line x1="120" y1="705.00" x2="1145" y2="705.00" stroke="#dddddd" stroke-width="1"/>
<text x="104" y="710.00" text-anchor="end" font-family="Arial" font-size="16" fill="black">-0.048</text>
<line x1="120" y1="547.50" x2="1145" y2="547.50" stroke="#dddddd" stroke-width="1"/>
<text x="104" y="552.50" text-anchor="end" font-family="Arial" font-size="16" fill="black">0.018</text>
<line x1="120" y1="390.00" x2="1145" y2="390.00" stroke="#dddddd" stroke-width="1"/>
<text x="104" y="395.00" text-anchor="end" font-family="Arial" font-size="16" fill="black">0.083</text>
<line x1="120" y1="232.50" x2="1145" y2="232.50" stroke="#dddddd" stroke-width="1"/>
<text x="104" y="237.50" text-anchor="end" font-family="Arial" font-size="16" fill="black">0.149</text>
<line x1="120" y1="75.00" x2="1145" y2="75.00" stroke="#dddddd" stroke-width="1"/>
<text x="104" y="80.00" text-anchor="end" font-family="Arial" font-size="16" fill="black">0.215</text>
<rect x="120" y="75" width="1025" height="630" fill="none" stroke="black" stroke-width="2"/>
<text x="632.5" y="785" text-anchor="middle" font-family="Arial" font-size="20" fill="black">y coordinate [m]</text>
<text x="34" y="390.0" transform="rotate(-90 34 390.0)" text-anchor="middle" font-family="Arial" font-size="20" fill="black">U:1 [SI]</text>
<polyline points="190.69,556.65 193.64,551.97 196.58,547.29 199.53,542.61 202.47,537.93 205.42,533.25 208.36,528.57 211.31,518.39 214.25,508.22 217.20,498.04 220.14,487.87 223.09,477.69 226.03,467.52 228.98,456.44 231.92,445.36 234.87,434.29 237.82,423.21 240.76,412.13 243.71,401.05 246.65,390.29 249.60,379.54 252.54,368.78 255.49,358.03 258.43,347.26 261.38,336.51 264.33,326.76 267.27,317.01 270.22,307.27 273.16,297.52 276.11,287.77 279.05,278.02 282.00,269.57 284.94,261.14 287.89,252.68 290.83,244.25 293.78,235.82 296.72,227.37 299.67,220.40 302.61,213.46 305.56,206.49 308.51,199.52 311.45,192.57 314.40,185.60 317.34,180.19 320.29,174.78 323.23,169.36 326.18,163.93 329.12,158.52 332.07,153.10 335.01,149.25 337.96,145.42 340.91,141.56 343.85,137.70 346.80,133.85 349.74,130.02 352.69,128.08 355.63,126.16 358.58,124.22 361.52,122.30 364.47,120.39 367.41,118.45 370.37,119.29 373.30,120.15 376.25,120.99 379.20,121.83 382.13,122.69 385.09,123.53 388.04,127.67 390.97,131.81 393.92,135.96 396.87,140.10 399.81,144.27 402.76,148.41 405.71,155.55 408.64,162.66 411.59,169.80 414.55,176.93 417.48,184.07 420.43,191.21 423.38,200.38 426.32,209.58 429.27,218.75 432.22,227.95 435.15,237.12 438.10,246.29 441.05,256.49 443.99,266.67 446.94,276.85 449.89,287.03 452.82,297.23 455.78,307.41 458.73,317.80 461.66,328.17 464.61,338.57 467.56,348.94 470.50,359.33 473.45,369.71 476.40,379.58 479.33,389.45 482.28,399.32 485.24,409.19 488.17,419.06 491.12,428.93 494.07,437.68 497.01,446.43 499.96,455.18 502.91,463.93 505.84,472.68 508.79,481.43 511.74,488.91 514.68,496.39 517.63,503.88 520.58,511.36 523.51,518.84 526.47,526.33 529.42,532.60 532.35,538.86 535.30,545.13 538.25,551.40 541.19,557.67 544.14,563.93 547.09,568.83 550.02,573.73 552.97,578.63 555.93,583.53 558.86,588.43 561.81,593.32 564.76,597.02 567.70,600.71 570.65,604.40 573.60,608.09 576.53,611.78 579.48,615.47 582.43,618.33 585.37,621.18 588.32,624.04 591.27,626.89 594.20,629.75 597.16,632.61 600.11,634.81 603.04,637.01 605.99,639.22 608.94,641.42 611.88,643.62 614.83,645.83 617.78,647.44 620.71,649.06 623.66,650.67 626.62,652.29 629.55,653.90 632.50,655.52 635.45,656.47 638.38,657.42 641.34,658.36 644.29,659.31 647.22,660.26 650.17,661.20 653.12,661.26 656.06,661.32 659.01,661.38 661.96,661.43 664.89,661.49 667.84,661.55 670.80,660.39 673.73,659.24 676.68,658.08 679.63,656.92 682.57,655.76 685.52,654.60 688.47,651.91 691.40,649.22 694.35,646.53 697.30,643.83 700.24,641.14 703.19,638.45 706.14,634.16 709.07,629.86 712.03,625.57 714.98,621.28 717.91,616.98 720.86,612.69 723.81,607.07 726.75,601.45 729.70,595.82 732.65,590.20 735.58,584.58 738.53,578.96 741.49,572.64 744.42,566.32 747.37,560.00 750.32,553.68 753.26,547.36 756.21,541.04 759.16,534.61 762.09,528.19 765.04,521.77 767.99,515.35 770.93,508.92 773.88,502.50 776.83,496.40 779.76,490.30 782.72,484.21 785.67,478.11 788.60,472.01 791.55,465.91 794.50,460.59 797.44,455.26 800.39,449.94 803.34,444.62 806.27,439.29 809.22,433.97 812.18,429.78 815.11,425.59 818.06,421.39 821.01,417.20 823.95,413.01 826.90,408.82 829.85,406.02 832.78,403.22 835.73,400.43 838.68,397.63 841.62,394.83 844.57,392.03 847.52,390.75 850.45,389.47 853.41,388.19 856.36,386.90 859.29,385.62 862.24,384.34 865.19,384.64 868.13,384.93 871.08,385.23 874.03,385.53 876.96,385.82 879.91,386.12 882.87,387.80 885.80,389.48 888.75,391.17 891.70,392.85 894.63,394.53 897.59,396.22 900.54,398.82 903.47,401.42 906.42,404.03 909.37,406.63 912.31,409.23 915.26,411.83 918.21,414.89 921.14,417.95 924.09,421.01 927.05,424.07 929.98,427.13 932.93,430.19 935.88,433.36 938.82,436.53 941.77,439.70 944.72,442.87 947.65,446.04 950.60,449.21 953.55,452.35 956.49,455.48 959.44,458.62 962.39,461.75 965.32,464.89 968.28,468.02 971.23,471.09 974.16,474.16 977.11,477.22 980.06,480.29 983.00,483.36 985.95,486.43 988.90,489.49 991.83,492.55 994.78,495.60 997.74,498.66 1000.67,501.72 1003.62,504.78 1006.57,507.90 1009.51,511.01 1012.46,514.13 1015.41,517.24 1018.34,520.36 1021.29,523.48 1024.24,526.87 1027.18,530.27 1030.13,533.66 1033.08,537.06 1036.01,540.46 1038.97,543.85 1041.92,547.05 1044.85,550.25 1047.80,553.45 1050.75,556.65 1053.69,559.84 1056.64,563.04 1059.59,564.42 1062.52,565.80 1065.47,567.19 1068.43,568.57 1071.36,569.95 1074.31,571.33" fill="none" stroke="#000000" stroke-width="3"/>
<line x1="142" y1="100" x2="178" y2="100" stroke="#000000" stroke-width="4"/>
<text x="188" y="105" font-family="Arial" font-size="18" fill="black">U:1</text>
</svg>