<svg xmlns="http://www.w3.org/2000/svg" width="1200" height="820" viewBox="0 0 1200 820">
<rect width="100%" height="100%" fill="white"/>
<text x="600.0" y="36" text-anchor="middle" font-family="Arial" font-size="24" fill="black">profile_center_z: velocity magnitude</text>
<line x1="120.00" y1="75" x2="120.00" y2="705" stroke="#dddddd" stroke-width="1"/>
<text x="120.00" y="737" text-anchor="middle" font-family="Arial" font-size="16" fill="black">-0.240</text>
<line x1="376.25" y1="75" x2="376.25" y2="705" stroke="#dddddd" stroke-width="1"/>
<text x="376.25" y="737" text-anchor="middle" font-family="Arial" font-size="16" fill="black">0.630</text>
<line x1="632.50" y1="75" x2="632.50" y2="705" stroke="#dddddd" stroke-width="1"/>
<text x="632.50" y="737" text-anchor="middle" font-family="Arial" font-size="16" fill="black">1.500</text>
<line x1="888.75" y1="75" x2="888.75" y2="705" stroke="#dddddd" stroke-width="1"/>
<text x="888.75" y="737" text-anchor="middle" font-family="Arial" font-size="16" fill="black">2.370</text>
<line x1="1145.00" y1="75" x2="1145.00" y2="705" stroke="#dddddd" stroke-width="1"/>
<text x="1145.00" y="737" text-anchor="middle" font-family="Arial" font-size="16" fill="black">3.240</text>
<line x1="120" y1="705.00" x2="1145" y2="705.00" stroke="#dddddd" stroke-width="1"/>
<text x="104" y="710.00" text-anchor="end" font-family="Arial" font-size="16" fill="black">0.011</text>
<line x1="120" y1="547.50" x2="1145" y2="547.50" stroke="#dddddd" stroke-width="1"/>
<text x="104" y="552.50" text-anchor="end" font-family="Arial" font-size="16" fill="black">0.140</text>
<line x1="120" y1="390.00" x2="1145" y2="390.00" stroke="#dddddd" stroke-width="1"/>
<text x="104" y="395.00" text-anchor="end" font-family="Arial" font-size="16" fill="black">0.268</text>
<line x1="120" y1="232.50" x2="1145" y2="232.50" stroke="#dddddd" stroke-width="1"/>
<text x="104" y="237.50" text-anchor="end" font-family="Arial" font-size="16" fill="black">0.397</text>
<line x1="120" y1="75.00" x2="1145" y2="75.00" stroke="#dddddd" stroke-width="1"/>
<text x="104" y="80.00" text-anchor="end" font-family="Arial" font-size="16" fill="black">0.526</text>
<rect x="120" y="75" width="1025" height="630" fill="none" stroke="black" stroke-width="2"/>
<text x="632.5" y="785" text-anchor="middle" font-family="Arial" font-size="20" fill="black">z coordinate [m]</text>
<text x="34" y="390.0" transform="rotate(-90 34 390.0)" text-anchor="middle" font-family="Arial" font-size="20" fill="black">|U| [m/s]</text>
<polyline points="190.69,129.16 193.64,132.99 196.58,136.83 199.53,140.66 202.47,144.50 205.42,148.34 208.36,152.18 211.31,156.01 214.25,159.85 217.20,163.68 220.14,167.53 223.09,177.49 226.03,187.46 228.98,197.42 231.93,207.39 234.87,217.35 237.82,227.33 240.76,237.29 243.71,247.26 246.65,257.23 249.60,267.19 252.54,280.90 255.49,294.60 258.43,308.30 261.38,322.01 264.32,335.70 267.27,349.41 270.22,363.11 273.16,376.81 276.11,390.52 279.05,404.22 282.00,420.88 284.94,437.53 287.89,454.19 290.83,470.84 293.78,487.50 296.72,504.15 299.67,520.80 302.61,537.46 305.56,554.11 308.51,570.78 311.45,579.85 314.40,588.93 317.34,598.01 320.29,607.08 323.23,616.16 326.18,625.24 329.12,634.32 332.07,643.40 335.01,652.47 337.96,661.55 340.91,655.10 343.85,648.66 346.80,642.21 349.74,635.76 352.69,629.31 355.63,622.87 358.58,616.42 361.52,609.97 364.47,603.52 367.41,597.07 370.36,594.53 373.30,591.98 376.25,589.43 379.20,586.90 382.14,584.35 385.09,581.80 388.03,579.27 390.98,576.72 393.92,574.17 396.87,571.62 399.81,570.95 402.76,570.27 405.70,569.60 408.65,568.93 411.59,568.25 414.54,567.58 417.49,566.90 420.43,566.23 423.38,565.56 426.32,564.88 429.27,565.23 432.21,565.58 435.16,565.92 438.10,566.27 441.05,566.61 443.99,566.96 446.94,567.31 449.89,567.65 452.83,567.99 455.78,568.35 458.72,568.96 461.67,569.57 464.61,570.19 467.56,570.80 470.50,571.42 473.45,572.04 476.39,572.65 479.34,573.26 482.28,573.89 485.23,574.50 488.18,575.01 491.12,575.54 494.07,576.07 497.01,576.58 499.96,577.11 502.90,577.62 505.85,578.15 508.79,578.68 511.74,579.19 514.68,579.72 517.63,579.90 520.57,580.10 523.52,580.28 526.47,580.47 529.41,580.65 532.36,580.85 535.30,581.03 538.25,581.21 541.19,581.41 544.14,581.59 547.08,581.35 550.03,581.09 552.97,580.85 555.92,580.60 558.86,580.34 561.81,580.10 564.76,579.84 567.70,579.60 570.65,579.35 573.59,579.09 576.54,578.44 579.48,577.80 582.43,577.15 585.37,576.50 588.32,575.85 591.26,575.20 594.21,574.55 597.16,573.90 600.10,573.26 603.05,572.61 605.99,571.67 608.94,570.74 611.88,569.80 614.83,568.86 617.77,567.92 620.72,566.99 623.66,566.06 626.61,565.11 629.55,564.18 632.50,563.24 635.45,562.16 638.39,561.08 641.34,560.01 644.28,558.93 647.23,557.84 650.17,556.76 653.12,555.68 656.06,554.60 659.01,553.51 661.95,552.43 664.90,551.37 667.84,550.30 670.79,549.22 673.74,548.16 676.68,547.09 679.63,546.03 682.57,544.96 685.52,543.88 688.46,542.82 691.41,541.75 694.35,540.84 697.30,539.94 700.24,539.03 703.19,538.12 706.14,537.23 709.08,536.32 712.03,535.42 714.97,534.51 717.92,533.60 720.86,532.70 723.81,532.07 726.75,531.44 729.70,530.81 732.64,530.17 735.59,529.55 738.53,528.91 741.48,528.29 744.43,527.65 747.37,527.02 750.32,526.39 753.26,526.08 756.21,525.76 759.15,525.46 762.10,525.14 765.04,524.83 767.99,524.51 770.93,524.21 773.88,523.89 776.82,523.58 779.77,523.26 782.72,523.24 785.66,523.21 788.61,523.20 791.55,523.18 794.50,523.15 797.44,523.13 800.39,523.10 803.33,523.08 806.28,523.06 809.22,523.04 812.17,523.23 815.11,523.41 818.06,523.58 821.01,523.77 823.95,523.95 826.90,524.13 829.84,524.32 832.79,524.50 835.73,524.68 838.68,524.87 841.62,525.13 844.57,525.38 847.51,525.64 850.46,525.90 853.41,526.17 856.35,526.42 859.30,526.68 862.24,526.94 865.19,527.20 868.13,527.45 871.08,527.58 874.02,527.71 876.97,527.83 879.91,527.97 882.86,528.09 885.80,528.23 888.75,528.35 891.70,528.48 894.64,528.61 897.59,528.74 900.53,528.35 903.48,527.94 906.42,527.55 909.37,527.16 912.31,526.77 915.26,526.36 918.20,525.97 921.15,525.58 924.09,525.19 927.04,524.78 929.99,523.07 932.93,521.34 935.88,519.61 938.82,517.89 941.77,516.17 944.71,514.44 947.66,512.72 950.60,510.99 953.55,509.27 956.49,507.54 959.44,503.09 962.39,498.63 965.33,494.15 968.28,489.69 971.22,485.23 974.17,480.78 977.11,476.32 980.06,471.86 983.00,467.38 985.95,462.92 988.89,454.23 991.84,445.52 994.78,436.80 997.73,428.11 1000.68,419.40 1003.62,410.68 1006.57,401.99 1009.51,393.27 1012.46,384.56 1015.40,375.87 1018.35,360.16 1021.29,344.46 1024.24,328.77 1027.18,313.08 1030.13,297.38 1033.07,281.69 1036.02,265.98 1038.97,250.29 1041.91,234.59 1044.86,218.90 1047.80,208.85 1050.75,198.81 1053.69,188.76 1056.64,178.71 1059.58,168.68 1062.53,158.63 1065.47,148.59 1068.42,138.54 1071.36,128.49 1074.31,118.45" fill="none" stroke="#000000" stroke-width="3"/>
<line x1="142" y1="100" x2="178" y2="100" stroke="#000000" stroke-width="4"/>
<text x="188" y="105" font-family="Arial" font-size="18" fill="black">|U|</text>
</svg>