<svg xmlns="http://www.w3.org/2000/svg" width="1200" height="820" viewBox="0 0 1200 820">
<rect width="100%" height="100%" fill="white"/>
<text x="600.0" y="36" text-anchor="middle" font-family="Arial" font-size="24" fill="black">profile_rack_height_x: vorticity:2</text>
<line x1="120.00" y1="75" x2="120.00" y2="705" stroke="#dddddd" stroke-width="1"/>
<text x="120.00" y="737" text-anchor="middle" font-family="Arial" font-size="16" fill="black">-0.560</text>
<line x1="376.25" y1="75" x2="376.25" y2="705" stroke="#dddddd" stroke-width="1"/>
<text x="376.25" y="737" text-anchor="middle" font-family="Arial" font-size="16" fill="black">1.470</text>
<line x1="632.50" y1="75" x2="632.50" y2="705" stroke="#dddddd" stroke-width="1"/>
<text x="632.50" y="737" text-anchor="middle" font-family="Arial" font-size="16" fill="black">3.500</text>
<line x1="888.75" y1="75" x2="888.75" y2="705" stroke="#dddddd" stroke-width="1"/>
<text x="888.75" y="737" text-anchor="middle" font-family="Arial" font-size="16" fill="black">5.530</text>
<line x1="1145.00" y1="75" x2="1145.00" y2="705" stroke="#dddddd" stroke-width="1"/>
<text x="1145.00" y="737" text-anchor="middle" font-family="Arial" font-size="16" fill="black">7.560</text>
<line x1="120" y1="705.00" x2="1145" y2="705.00" stroke="#dddddd" stroke-width="1"/>
<text x="104" y="710.00" text-anchor="end" font-family="Arial" font-size="16" fill="black">-1.074</text>
<line x1="120" y1="547.50" x2="1145" y2="547.50" stroke="#dddddd" stroke-width="1"/>
<text x="104" y="552.50" text-anchor="end" font-family="Arial" font-size="16" fill="black">-0.453</text>
<line x1="120" y1="390.00" x2="1145" y2="390.00" stroke="#dddddd" stroke-width="1"/>
<text x="104" y="395.00" text-anchor="end" font-family="Arial" font-size="16" fill="black">0.167</text>
<line x1="120" y1="232.50" x2="1145" y2="232.50" stroke="#dddddd" stroke-width="1"/>
<text x="104" y="237.50" text-anchor="end" font-family="Arial" font-size="16" fill="black">0.788</text>
<line x1="120" y1="75.00" x2="1145" y2="75.00" stroke="#dddddd" stroke-width="1"/>
<text x="104" y="80.00" text-anchor="end" font-family="Arial" font-size="16" fill="black">1.408</text>
<rect x="120" y="75" width="1025" height="630" fill="none" stroke="black" stroke-width="2"/>
<text x="632.5" y="785" text-anchor="middle" font-family="Arial" font-size="20" fill="black">x coordinate [m]</text>
<text x="34" y="390.0" transform="rotate(-90 34 390.0)" text-anchor="middle" font-family="Arial" font-size="20" fill="black">vorticity:2 [SI]</text>
<polyline points="190.69,118.45 193.64,165.49 196.58,212.54 199.53,259.59 202.47,306.64 205.42,354.80 208.36,403.39 211.31,451.99 214.25,500.59 217.20,529.62 220.14,532.58 223.09,535.53 226.03,538.49 228.98,541.20 231.93,542.44 234.87,543.67 237.82,544.91 240.76,546.14 243.71,543.64 246.65,540.52 249.60,537.39 252.54,534.26 255.49,528.14 258.43,519.76 261.38,511.38 264.32,503.01 267.27,493.65 270.22,481.83 273.16,470.03 276.11,458.21 279.05,446.40 282.00,434.02 284.94,421.64 287.89,409.26 290.83,396.87 293.78,385.37 296.72,374.23 299.67,363.08 302.62,351.93 305.56,341.49 308.51,332.00 311.45,322.50 314.40,313.01 317.34,303.70 320.29,295.55 323.23,287.39 326.17,279.24 329.13,271.09 332.07,263.97 335.01,257.03 337.96,250.09 340.91,243.15 343.85,237.95 346.80,234.05 349.74,230.15 352.68,226.25 355.64,224.06 358.58,226.14 361.52,228.22 364.47,230.31 367.41,232.39 370.35,240.37 373.31,248.35 376.25,256.33 379.19,264.32 382.15,274.37 385.09,285.25 388.03,296.13 390.98,307.01 393.92,317.88 396.86,328.75 399.82,339.61 402.76,350.48 405.70,361.08 408.65,370.12 411.59,379.16 414.54,388.20 417.49,397.25 420.43,404.21 423.37,410.82 426.33,417.44 429.27,424.05 432.21,429.41 435.16,433.83 438.10,438.24 441.04,442.66 444.00,446.62 446.94,449.45 449.88,452.28 452.83,455.11 455.78,457.94 458.72,459.84 461.67,461.75 464.61,463.66 467.55,465.57 470.51,467.16 473.45,468.63 476.39,470.10 479.34,471.57 482.28,472.94 485.23,474.20 488.18,475.45 491.12,476.70 494.06,477.93 497.02,479.00 499.96,480.07 502.90,481.14 505.85,482.21 508.79,483.10 511.73,483.95 514.69,484.80 517.63,485.66 520.57,486.39 523.52,487.03 526.47,487.68 529.41,488.32 532.36,488.92 535.30,489.44 538.24,489.96 541.20,490.47 544.14,490.99 547.08,491.52 550.03,492.05 552.97,492.59 555.92,493.12 558.87,493.73 561.81,494.38 564.75,495.04 567.71,495.69 570.65,496.37 573.59,497.10 576.54,497.82 579.48,498.55 582.42,499.25 585.38,499.81 588.32,500.38 591.26,500.94 594.21,501.51 597.16,501.61 600.10,501.64 603.05,501.67 605.99,501.69 608.93,501.23 611.89,500.39 614.83,499.56 617.77,498.73 620.72,497.63 623.66,495.87 626.60,494.11 629.56,492.36 632.50,490.60 635.44,488.07 638.40,485.55 641.34,483.03 644.28,480.50 647.23,477.64 650.17,474.64 653.11,471.64 656.07,468.63 659.01,465.60 661.95,462.51 664.90,459.43 667.84,456.34 670.79,453.30 673.74,450.50 676.68,447.70 679.62,444.91 682.58,442.11 685.52,439.80 688.46,437.58 691.41,435.36 694.35,433.13 697.29,431.36 700.25,429.92 703.19,428.49 706.13,427.05 709.08,425.88 712.03,425.34 714.97,424.81 717.92,424.27 720.86,423.73 723.80,424.10 726.76,424.47 729.70,424.84 732.64,425.21 735.59,426.11 738.53,427.22 741.48,428.32 744.43,429.43 747.37,430.76 750.31,432.38 753.27,434.01 756.21,435.63 759.15,437.30 762.10,439.29 765.04,441.29 767.98,443.28 770.94,445.27 773.88,447.47 776.82,449.71 779.77,451.95 782.72,454.19 785.66,456.57 788.61,459.04 791.55,461.51 794.49,463.98 797.45,466.55 800.39,469.34 803.33,472.13 806.28,474.92 809.22,477.71 812.17,480.91 815.12,484.10 818.06,487.30 821.00,490.49 823.96,493.89 826.90,497.38 829.84,500.86 832.79,504.35 835.73,507.74 838.67,511.01 841.63,514.29 844.57,517.57 847.51,520.70 850.46,522.96 853.41,525.22 856.35,527.48 859.30,529.74 862.24,530.51 865.18,531.02 868.14,531.54 871.08,532.06 874.02,531.54 876.97,530.25 879.91,528.95 882.85,527.66 885.81,526.01 888.75,523.49 891.69,520.98 894.65,518.46 897.59,515.94 900.53,512.86 903.48,509.79 906.42,506.72 909.36,503.65 912.32,500.52 915.26,497.38 918.20,494.24 921.15,491.10 924.09,488.08 927.04,485.22 929.99,482.37 932.93,479.51 935.87,476.72 938.83,474.32 941.77,471.92 944.71,469.52 947.66,467.13 950.60,465.09 953.54,463.10 956.50,461.12 959.44,459.14 962.38,457.26 965.33,455.46 968.28,453.65 971.22,451.85 974.17,450.00 977.11,448.03 980.05,446.06 983.01,444.10 985.95,442.13 988.89,439.68 991.84,437.23 994.78,434.78 997.73,432.33 1000.68,429.42 1003.62,426.32 1006.56,423.23 1009.52,420.13 1012.46,416.76 1015.40,413.03 1018.35,409.30 1021.29,405.56 1024.23,401.74 1027.19,397.33 1030.13,392.93 1033.07,388.52 1036.02,384.12 1038.97,377.74 1041.91,371.02 1044.86,364.30 1047.80,357.59 1050.74,373.93 1053.70,407.57 1056.64,441.20 1059.58,474.84 1062.53,509.71 1065.47,547.67 1068.42,585.63 1071.37,623.59 1074.31,661.55" fill="none" stroke="#000000" stroke-width="3"/>
<line x1="142" y1="100" x2="178" y2="100" stroke="#000000" stroke-width="4"/>
<text x="188" y="105" font-family="Arial" font-size="18" fill="black">vorticity:2</text>
</svg>