<svg xmlns="http://www.w3.org/2000/svg" width="1200" height="820" viewBox="0 0 1200 820">
<rect width="100%" height="100%" fill="white"/>
<text x="600.0" y="36" text-anchor="middle" font-family="Arial" font-size="24" fill="black">profile_center_z: U:0</text>
<line x1="120.00" y1="75" x2="120.00" y2="705" stroke="#dddddd" stroke-width="1"/>
<text x="120.00" y="737" text-anchor="middle" font-family="Arial" font-size="16" fill="black">-0.240</text>
<line x1="376.25" y1="75" x2="376.25" y2="705" stroke="#dddddd" stroke-width="1"/>
<text x="376.25" y="737" text-anchor="middle" font-family="Arial" font-size="16" fill="black">0.630</text>
<line x1="632.50" y1="75" x2="632.50" y2="705" stroke="#dddddd" stroke-width="1"/>
<text x="632.50" y="737" text-anchor="middle" font-family="Arial" font-size="16" fill="black">1.500</text>
<line x1="888.75" y1="75" x2="888.75" y2="705" stroke="#dddddd" stroke-width="1"/>
<text x="888.75" y="737" text-anchor="middle" font-family="Arial" font-size="16" fill="black">2.370</text>
<line x1="1145.00" y1="75" x2="1145.00" y2="705" stroke="#dddddd" stroke-width="1"/>
<text x="1145.00" y="737" text-anchor="middle" font-family="Arial" font-size="16" fill="black">3.240</text>
<line x1="120" y1="705.00" x2="1145" y2="705.00" stroke="#dddddd" stroke-width="1"/>
<text x="104" y="710.00" text-anchor="end" font-family="Arial" font-size="16" fill="black">-0.053</text>
<line x1="120" y1="547.50" x2="1145" y2="547.50" stroke="#dddddd" stroke-width="1"/>
<text x="104" y="552.50" text-anchor="end" font-family="Arial" font-size="16" fill="black">-0.013</text>
<line x1="120" y1="390.00" x2="1145" y2="390.00" stroke="#dddddd" stroke-width="1"/>
<text x="104" y="395.00" text-anchor="end" font-family="Arial" font-size="16" fill="black">0.028</text>
<line x1="120" y1="232.50" x2="1145" y2="232.50" stroke="#dddddd" stroke-width="1"/>
<text x="104" y="237.50" text-anchor="end" font-family="Arial" font-size="16" fill="black">0.068</text>
<line x1="120" y1="75.00" x2="1145" y2="75.00" stroke="#dddddd" stroke-width="1"/>
<text x="104" y="80.00" text-anchor="end" font-family="Arial" font-size="16" fill="black">0.109</text>
<rect x="120" y="75" width="1025" height="630" fill="none" stroke="black" stroke-width="2"/>
<text x="632.5" y="785" text-anchor="middle" font-family="Arial" font-size="20" fill="black">z coordinate [m]</text>
<text x="34" y="390.0" transform="rotate(-90 34 390.0)" text-anchor="middle" font-family="Arial" font-size="20" fill="black">U:0 [SI]</text>
<polyline points="190.69,515.97 193.64,516.88 196.58,517.78 199.53,518.69 202.47,519.59 205.42,520.49 208.36,521.40 211.31,522.30 214.25,523.21 217.20,524.11 220.14,525.02 223.09,526.81 226.03,528.60 228.98,530.39 231.93,532.18 234.87,533.97 237.82,535.76 240.76,537.55 243.71,539.35 246.65,541.14 249.60,542.93 252.54,544.82 255.49,546.70 258.43,548.59 261.38,550.48 264.32,552.36 267.27,554.25 270.22,556.14 273.16,558.02 276.11,559.91 279.05,561.80 282.00,563.98 284.94,566.16 287.89,568.34 290.83,570.52 293.78,572.70 296.72,574.88 299.67,577.06 302.61,579.24 305.56,581.42 308.51,583.59 311.45,585.63 314.40,587.65 317.34,589.69 320.29,591.71 323.23,593.74 326.18,595.77 329.12,597.80 332.07,599.83 335.01,601.86 337.96,603.90 340.91,604.21 343.85,604.53 346.80,604.85 349.74,605.18 352.69,605.50 355.63,605.81 358.58,606.13 361.52,606.46 364.47,606.78 367.41,607.10 370.36,604.73 373.30,602.37 376.25,600.01 379.20,597.65 382.14,595.28 385.09,592.92 388.03,590.56 390.98,588.19 393.92,585.84 396.87,583.47 399.81,578.75 402.76,574.03 405.70,569.31 408.65,564.59 411.59,559.87 414.54,555.15 417.49,550.43 420.43,545.71 423.38,540.99 426.32,536.27 429.27,530.02 432.21,523.77 435.16,517.52 438.10,511.27 441.05,505.02 443.99,498.76 446.94,492.51 449.89,486.26 452.83,480.01 455.78,473.76 458.72,466.99 461.67,460.22 464.61,453.45 467.56,446.68 470.50,439.91 473.45,433.14 476.39,426.37 479.34,419.60 482.28,412.83 485.23,406.06 488.18,399.56 491.12,393.06 494.07,386.55 497.01,380.05 499.96,373.55 502.90,367.05 505.85,360.55 508.79,354.05 511.74,347.54 514.68,341.04 517.63,335.30 520.57,329.55 523.52,323.80 526.47,318.06 529.41,312.31 532.36,306.57 535.30,300.82 538.25,295.07 541.19,289.33 544.14,283.58 547.08,278.72 550.03,273.86 552.97,269.01 555.92,264.15 558.86,259.29 561.81,254.43 564.76,249.57 567.70,244.71 570.65,239.85 573.59,235.00 576.54,230.99 579.48,226.98 582.43,222.97 585.37,218.97 588.32,214.96 591.26,210.96 594.21,206.95 597.16,202.94 600.10,198.94 603.05,194.93 605.99,191.71 608.94,188.48 611.88,185.26 614.83,182.04 617.77,178.81 620.72,175.59 623.66,172.37 626.61,169.14 629.55,165.92 632.50,162.69 635.45,160.24 638.39,157.80 641.34,155.35 644.28,152.90 647.23,150.45 650.17,148.00 653.12,145.55 656.06,143.10 659.01,140.65 661.95,138.20 664.90,136.64 667.84,135.09 670.79,133.53 673.74,131.97 676.68,130.41 679.63,128.85 682.57,127.30 685.52,125.74 688.46,124.18 691.41,122.62 694.35,122.21 697.30,121.79 700.24,121.37 703.19,120.95 706.14,120.53 709.08,120.12 712.03,119.70 714.97,119.28 717.92,118.86 720.86,118.45 723.81,119.46 726.75,120.48 729.70,121.50 732.64,122.52 735.59,123.54 738.53,124.56 741.48,125.58 744.43,126.60 747.37,127.62 750.32,128.64 753.26,131.31 756.21,133.98 759.15,136.65 762.10,139.32 765.04,141.99 767.99,144.66 770.93,147.33 773.88,150.00 776.82,152.67 779.77,155.34 782.72,159.69 785.66,164.03 788.61,168.38 791.55,172.73 794.50,177.07 797.44,181.42 800.39,185.76 803.33,190.11 806.28,194.46 809.22,198.80 812.17,204.61 815.11,210.43 818.06,216.23 821.01,222.05 823.95,227.86 826.90,233.67 829.84,239.48 832.79,245.29 835.73,251.10 838.68,256.91 841.62,263.74 844.57,270.57 847.51,277.41 850.46,284.24 853.41,291.07 856.35,297.90 859.30,304.73 862.24,311.56 865.19,318.40 868.13,325.23 871.08,332.48 874.02,339.72 876.97,346.97 879.91,354.22 882.86,361.47 885.80,368.71 888.75,375.96 891.70,383.20 894.64,390.45 897.59,397.70 900.53,404.72 903.48,411.74 906.42,418.77 909.37,425.79 912.31,432.81 915.26,439.83 918.20,446.86 921.15,453.88 924.09,460.90 927.04,467.92 929.99,474.18 932.93,480.44 935.88,486.70 938.82,492.96 941.77,499.22 944.71,505.48 947.66,511.74 950.60,518.00 953.55,524.26 956.49,530.52 959.44,535.64 962.39,540.75 965.33,545.87 968.28,550.98 971.22,556.09 974.17,561.21 977.11,566.32 980.06,571.43 983.00,576.55 985.95,581.66 988.89,585.56 991.84,589.45 994.78,593.34 997.73,597.23 1000.68,601.12 1003.62,605.02 1006.57,608.91 1009.51,612.80 1012.46,616.69 1015.40,620.58 1018.35,623.46 1021.29,626.34 1024.24,629.22 1027.18,632.10 1030.13,634.97 1033.07,637.85 1036.02,640.73 1038.97,643.61 1041.91,646.49 1044.86,649.37 1047.80,650.58 1050.75,651.80 1053.69,653.02 1056.64,654.24 1059.58,655.46 1062.53,656.68 1065.47,657.90 1068.42,659.11 1071.36,660.33 1074.31,661.55" fill="none" stroke="#000000" stroke-width="3"/>
<line x1="142" y1="100" x2="178" y2="100" stroke="#000000" stroke-width="4"/>
<text x="188" y="105" font-family="Arial" font-size="18" fill="black">U:0</text>
</svg>