<svg xmlns="http://www.w3.org/2000/svg" width="1200" height="820" viewBox="0 0 1200 820">
<rect width="100%" height="100%" fill="white"/>
<text x="600.0" y="36" text-anchor="middle" font-family="Arial" font-size="24" fill="black">profile_near_ceiling_x: U, V, W components</text>
<line x1="120.00" y1="75" x2="120.00" y2="705" stroke="#dddddd" stroke-width="1"/>
<text x="120.00" y="737" text-anchor="middle" font-family="Arial" font-size="16" fill="black">-0.560</text>
<line x1="376.25" y1="75" x2="376.25" y2="705" stroke="#dddddd" stroke-width="1"/>
<text x="376.25" y="737" text-anchor="middle" font-family="Arial" font-size="16" fill="black">1.470</text>
<line x1="632.50" y1="75" x2="632.50" y2="705" stroke="#dddddd" stroke-width="1"/>
<text x="632.50" y="737" text-anchor="middle" font-family="Arial" font-size="16" fill="black">3.500</text>
<line x1="888.75" y1="75" x2="888.75" y2="705" stroke="#dddddd" stroke-width="1"/>
<text x="888.75" y="737" text-anchor="middle" font-family="Arial" font-size="16" fill="black">5.530</text>
<line x1="1145.00" y1="75" x2="1145.00" y2="705" stroke="#dddddd" stroke-width="1"/>
<text x="1145.00" y="737" text-anchor="middle" font-family="Arial" font-size="16" fill="black">7.560</text>
<line x1="120" y1="705.00" x2="1145" y2="705.00" stroke="#dddddd" stroke-width="1"/>
<text x="104" y="710.00" text-anchor="end" font-family="Arial" font-size="16" fill="black">-0.340</text>
<line x1="120" y1="547.50" x2="1145" y2="547.50" stroke="#dddddd" stroke-width="1"/>
<text x="104" y="552.50" text-anchor="end" font-family="Arial" font-size="16" fill="black">-0.160</text>
<line x1="120" y1="390.00" x2="1145" y2="390.00" stroke="#dddddd" stroke-width="1"/>
<text x="104" y="395.00" text-anchor="end" font-family="Arial" font-size="16" fill="black">0.021</text>
<line x1="120" y1="232.50" x2="1145" y2="232.50" stroke="#dddddd" stroke-width="1"/>
<text x="104" y="237.50" text-anchor="end" font-family="Arial" font-size="16" fill="black">0.201</text>
<line x1="120" y1="75.00" x2="1145" y2="75.00" stroke="#dddddd" stroke-width="1"/>
<text x="104" y="80.00" text-anchor="end" font-family="Arial" font-size="16" fill="black">0.382</text>
<rect x="120" y="75" width="1025" height="630" fill="none" stroke="black" stroke-width="2"/>
<text x="632.5" y="785" text-anchor="middle" font-family="Arial" font-size="20" fill="black">x coordinate [m]</text>
<text x="34" y="390.0" transform="rotate(-90 34 390.0)" text-anchor="middle" font-family="Arial" font-size="20" fill="black">velocity component [m/s]</text>
<polyline points="190.69,434.77 193.64,439.43 196.58,444.09 199.53,448.75 202.47,453.40 205.42,461.64 208.36,471.31 211.31,480.98 214.25,490.65 217.20,500.22 220.14,509.66 223.09,519.09 226.03,528.53 228.98,537.81 231.93,546.12 234.87,554.43 237.82,562.75 240.76,571.06 243.71,578.36 246.65,585.50 249.60,592.63 252.54,599.76 255.49,606.10 258.43,611.83 261.38,617.57 264.32,623.31 267.27,628.62 270.22,632.84 273.16,637.06 276.11,641.28 279.05,645.50 282.00,648.16 284.94,650.83 287.89,653.49 290.83,656.15 293.78,657.71 296.72,658.83 299.67,659.95 302.62,661.06 305.56,661.55 308.51,661.19 311.45,660.84 314.40,660.48 317.34,659.93 320.29,658.24 323.23,656.55 326.17,654.85 329.13,653.16 332.07,650.47 335.01,647.61 337.96,644.76 340.91,641.91 343.85,638.50 346.80,634.69 349.74,630.87 352.68,627.05 355.64,623.03 358.58,618.48 361.52,613.94 364.47,609.39 367.41,604.85 370.35,599.85 373.31,594.86 376.25,589.86 379.19,584.86 382.15,579.77 385.09,574.64 388.03,569.50 390.98,564.37 393.92,559.34 396.86,554.44 399.82,549.55 402.76,544.64 405.70,539.84 408.65,535.59 411.59,531.33 414.54,527.08 417.49,522.83 420.43,519.46 423.37,516.25 426.33,513.04 429.27,509.83 432.21,507.38 435.16,505.52 438.10,503.65 441.04,501.78 444.00,500.35 446.94,499.97 449.88,499.59 452.83,499.22 455.78,498.85 458.72,499.92 461.67,500.98 464.61,502.05 467.55,503.11 470.51,505.03 473.45,507.29 476.39,509.55 479.34,511.81 482.28,514.41 485.23,517.50 488.18,520.58 491.12,523.67 494.06,526.81 497.02,530.26 499.96,533.72 502.90,537.18 505.85,540.63 508.79,543.98 511.73,547.31 514.69,550.64 517.63,553.98 520.57,556.97 523.52,559.71 526.47,562.44 529.41,565.19 532.36,567.64 535.30,569.39 538.24,571.13 541.20,572.88 544.14,574.62 547.08,575.02 550.03,575.42 552.97,575.82 555.92,576.23 558.87,575.48 561.81,574.25 564.75,573.04 567.71,571.83 570.65,569.85 573.59,566.86 576.54,563.86 579.48,560.87 582.42,557.60 585.38,552.79 588.32,547.98 591.26,543.16 594.21,538.35 597.16,532.07 600.10,525.54 603.05,519.03 605.99,512.50 608.93,505.21 611.89,497.34 614.83,489.48 617.77,481.61 620.72,473.50 623.66,464.80 626.60,456.09 629.56,447.39 632.50,438.69 635.44,429.57 638.40,420.46 641.34,411.35 644.28,402.24 647.23,393.56 650.17,385.04 653.11,376.53 656.07,368.01 659.01,360.06 661.95,352.85 664.90,345.64 667.84,338.43 670.79,331.43 673.74,325.68 676.68,319.92 679.62,314.18 682.58,308.42 685.52,304.18 688.46,300.19 691.41,296.20 694.35,292.21 697.29,289.23 700.25,287.02 703.19,284.80 706.13,282.59 709.08,280.85 712.03,280.29 714.97,279.74 717.92,279.18 720.86,278.63 723.80,279.52 726.76,280.42 729.70,281.32 732.64,282.22 735.59,283.98 738.53,286.07 741.48,288.18 744.43,290.28 747.37,292.77 750.31,295.80 753.27,298.83 756.21,301.86 759.15,304.98 762.10,308.65 765.04,312.32 767.98,315.98 770.94,319.65 773.88,323.51 776.82,327.40 779.77,331.29 782.72,335.17 785.66,338.87 788.61,342.43 791.55,345.99 794.49,349.55 797.45,352.85 800.39,355.48 803.33,358.11 806.28,360.74 809.22,363.37 812.17,364.53 815.12,365.68 818.06,366.83 821.00,367.98 823.96,367.93 826.90,367.40 829.84,366.87 832.79,366.35 835.73,365.08 838.67,362.83 841.63,360.58 844.57,358.33 847.51,355.84 850.46,351.92 853.41,347.99 856.35,344.06 859.30,340.13 862.24,335.05 865.18,329.78 868.14,324.51 871.08,319.23 874.02,313.46 876.97,307.31 879.91,301.15 882.85,295.01 885.81,288.73 888.75,282.19 891.69,275.64 894.65,269.10 897.59,262.55 900.53,256.11 903.48,249.65 906.42,243.21 909.36,236.75 912.32,230.67 915.26,224.74 918.20,218.80 921.15,212.87 924.09,207.31 927.04,202.23 929.99,197.15 932.93,192.07 935.87,187.15 938.83,183.20 941.77,179.24 944.71,175.29 947.66,171.33 950.60,168.52 953.54,165.90 956.50,163.29 959.44,160.66 962.38,158.91 965.33,157.80 968.28,156.70 971.22,155.59 974.17,154.96 977.11,155.52 980.05,156.07 983.01,156.62 985.95,157.18 988.89,159.55 991.84,161.90 994.78,164.26 997.73,166.61 1000.68,170.35 1003.62,174.64 1006.56,178.93 1009.52,183.22 1012.46,188.39 1015.40,194.72 1018.35,201.06 1021.29,207.39 1024.23,214.03 1027.19,222.46 1030.13,230.88 1033.07,239.31 1036.02,247.73 1038.97,258.15 1041.91,268.88 1044.86,279.62 1047.80,290.36 1050.74,301.15 1053.70,312.00 1056.64,322.85 1059.58,333.70 1062.53,342.83 1065.47,347.68 1068.42,352.52 1071.37,357.36 1074.31,362.21" fill="none" stroke="#000000" stroke-width="3"/>
<line x1="142" y1="100" x2="178" y2="100" stroke="#000000" stroke-width="4"/>
<text x="188" y="105" font-family="Arial" font-size="18" fill="black">Ux / u</text>
<polyline points="190.69,195.05 193.64,193.49 196.58,191.92 199.53,190.36 202.47,188.80 205.42,187.48 208.36,186.27 211.31,185.06 214.25,183.85 217.20,183.69 220.14,184.94 223.09,186.19 226.03,187.45 228.98,188.79 231.93,190.74 234.87,192.69 237.82,194.63 240.76,196.58 243.71,198.64 246.65,200.71 249.60,202.78 252.54,204.86 255.49,206.88 258.43,208.86 261.38,210.84 264.32,212.83 267.27,214.76 270.22,216.57 273.16,218.37 276.11,220.19 279.05,222.00 282.00,223.57 284.94,225.15 287.89,226.73 290.83,228.31 293.78,229.69 296.72,230.98 299.67,232.27 302.62,233.56 305.56,234.70 308.51,235.64 311.45,236.59 314.40,237.54 317.34,238.42 320.29,238.97 323.23,239.51 326.17,240.05 329.13,240.59 332.07,240.78 335.01,240.92 337.96,241.06 340.91,241.19 343.85,241.12 346.80,240.90 349.74,240.69 352.68,240.46 355.64,240.16 358.58,239.67 361.52,239.17 364.47,238.67 367.41,238.17 370.35,237.49 373.31,236.82 376.25,236.15 379.19,235.47 382.15,234.74 385.09,233.98 388.03,233.22 390.98,232.46 393.92,231.70 396.86,230.94 399.82,230.18 402.76,229.42 405.70,228.66 408.65,227.95 411.59,227.24 414.54,226.52 417.49,225.81 420.43,225.15 423.37,224.51 426.33,223.85 429.27,223.21 432.21,222.58 435.16,221.96 438.10,221.34 441.04,220.73 444.00,220.10 446.94,219.46 449.88,218.82 452.83,218.17 455.78,217.53 458.72,216.78 461.67,216.04 464.61,215.29 467.55,214.54 470.51,213.67 473.45,212.75 476.39,211.83 479.34,210.92 482.28,209.90 485.23,208.75 488.18,207.60 491.12,206.46 494.06,205.27 497.02,203.85 499.96,202.43 502.90,201.01 505.85,199.60 508.79,197.91 511.73,196.20 514.69,194.47 517.63,192.75 520.57,190.86 523.52,188.83 526.47,186.80 529.41,184.77 532.36,182.67 535.30,180.36 538.24,178.04 541.20,175.74 544.14,173.43 547.08,170.90 550.03,168.37 552.97,165.84 555.92,163.31 558.87,160.71 561.81,158.08 564.75,155.45 567.71,152.81 570.65,150.20 573.59,147.62 576.54,145.05 579.48,142.48 582.42,139.94 585.38,137.65 588.32,135.36 591.26,133.07 594.21,130.77 597.16,128.94 600.10,127.19 603.05,125.43 605.99,123.67 608.93,122.38 611.89,121.44 614.83,120.49 617.77,119.55 620.72,118.84 623.66,118.74 626.60,118.64 629.56,118.54 632.50,118.45 635.44,119.02 638.40,119.58 641.34,120.15 644.28,120.72 647.23,121.73 650.17,122.93 653.11,124.13 656.07,125.33 659.01,126.82 661.95,128.71 664.90,130.60 667.84,132.48 670.79,134.44 673.74,136.87 676.68,139.30 679.62,141.73 682.58,144.15 685.52,146.81 688.46,149.52 691.41,152.21 694.35,154.91 697.29,157.63 700.25,160.36 703.19,163.08 706.13,165.81 709.08,168.49 712.03,171.03 714.97,173.57 717.92,176.12 720.86,178.66 723.80,180.84 726.76,183.01 729.70,185.18 732.64,187.36 735.59,189.17 738.53,190.81 741.48,192.47 744.43,194.13 747.37,195.51 750.31,196.55 753.27,197.58 756.21,198.62 759.15,199.56 762.10,199.93 765.04,200.29 767.98,200.66 770.94,201.03 773.88,200.84 776.82,200.56 779.77,200.27 782.72,199.98 785.66,199.37 788.61,198.52 791.55,197.67 794.49,196.81 797.45,195.86 800.39,194.62 803.33,193.39 806.28,192.15 809.22,190.92 812.17,189.76 815.12,188.60 818.06,187.45 821.00,186.29 823.96,185.59 826.90,185.08 829.84,184.58 832.79,184.07 835.73,183.93 838.67,184.28 841.63,184.64 844.57,184.99 847.51,185.41 850.46,186.20 853.41,186.99 856.35,187.79 859.30,188.58 862.24,189.37 865.18,190.16 868.14,190.94 871.08,191.74 874.02,192.51 876.97,193.29 879.91,194.08 882.85,194.85 885.81,195.65 888.75,196.54 891.69,197.43 894.65,198.31 897.59,199.20 900.53,200.27 903.48,201.33 906.42,202.40 909.36,203.46 912.32,204.66 915.26,205.91 918.20,207.16 921.15,208.41 924.09,209.74 927.04,211.17 929.99,212.61 932.93,214.04 935.87,215.50 938.83,217.11 941.77,218.72 944.71,220.33 947.66,221.94 950.60,223.71 953.54,225.51 956.50,227.30 959.44,229.09 962.38,231.00 965.33,232.99 968.28,234.98 971.22,236.98 974.17,239.03 977.11,241.23 980.05,243.42 983.01,245.63 985.95,247.83 988.89,250.25 991.84,252.67 994.78,255.09 997.73,257.51 1000.68,260.07 1003.62,262.70 1006.56,265.32 1009.52,267.94 1012.46,270.63 1015.40,273.41 1018.35,276.18 1021.29,278.96 1024.23,281.74 1027.19,284.57 1030.13,287.39 1033.07,290.23 1036.02,293.05 1038.97,295.79 1041.91,298.52 1044.86,301.24 1047.80,303.97 1050.74,306.57 1053.70,309.07 1056.64,311.56 1059.58,314.06 1062.53,316.18 1065.47,317.37 1068.42,318.55 1071.37,319.73 1074.31,320.92" fill="none" stroke="#555555" stroke-width="3" stroke-dasharray="9 5"/>
<line x1="142" y1="128" x2="178" y2="128" stroke="#555555" stroke-width="4" stroke-dasharray="9 5"/>
<text x="188" y="133" font-family="Arial" font-size="18" fill="black">Uy / v</text>
<polyline points="190.69,469.41 193.64,469.57 196.58,469.73 199.53,469.90 202.47,470.06 205.42,469.68 208.36,469.08 211.31,468.49 214.25,467.89 217.20,466.75 220.14,464.89 223.09,463.02 226.03,461.15 228.98,459.23 231.93,456.93 234.87,454.64 237.82,452.34 240.76,450.05 243.71,447.70 246.65,445.34 249.60,442.98 252.54,440.62 255.49,438.30 258.43,436.00 261.38,433.70 264.32,431.40 267.27,429.12 270.22,426.91 273.16,424.70 276.11,422.49 279.05,420.29 282.00,418.20 284.94,416.11 287.89,414.02 290.83,411.93 293.78,409.93 296.72,407.98 299.67,406.03 302.62,404.08 305.56,402.19 308.51,400.37 311.45,398.55 314.40,396.73 317.34,394.93 320.29,393.24 323.23,391.56 326.17,389.87 329.13,388.18 332.07,386.62 335.01,385.09 337.96,383.55 340.91,382.02 343.85,380.60 346.80,379.27 349.74,377.93 352.68,376.60 355.64,375.35 358.58,374.29 361.52,373.23 364.47,372.17 367.41,371.12 370.35,370.44 373.31,369.76 376.25,369.09 379.19,368.41 382.15,368.10 385.09,367.94 388.03,367.78 390.98,367.62 393.92,367.71 396.86,368.16 399.82,368.61 402.76,369.06 405.70,369.59 408.65,370.63 411.59,371.67 414.54,372.71 417.49,373.75 420.43,375.16 423.37,376.62 426.33,378.09 429.27,379.56 432.21,381.12 435.16,382.75 438.10,384.37 441.04,386.00 444.00,387.58 446.94,389.06 449.88,390.54 452.83,392.02 455.78,393.49 458.72,394.60 461.67,395.70 464.61,396.80 467.55,397.91 470.51,398.67 473.45,399.30 476.39,399.94 479.34,400.57 482.28,400.99 485.23,401.15 488.18,401.31 491.12,401.46 494.06,401.56 497.02,401.28 499.96,401.00 502.90,400.72 505.85,400.44 508.79,399.84 511.73,399.19 514.69,398.53 517.63,397.87 520.57,397.03 523.52,396.05 526.47,395.06 529.41,394.08 532.36,393.01 535.30,391.73 538.24,390.46 541.20,389.18 544.14,387.91 547.08,386.38 550.03,384.85 552.97,383.32 555.92,381.79 558.87,380.12 561.81,378.39 564.75,376.66 567.71,374.93 570.65,373.14 573.59,371.29 576.54,369.45 579.48,367.60 582.42,365.75 585.38,363.90 588.32,362.06 591.26,360.22 594.21,358.38 597.16,356.66 600.10,354.97 603.05,353.28 605.99,351.58 608.93,350.02 611.89,348.56 614.83,347.10 617.77,345.64 620.72,344.30 623.66,343.25 626.60,342.20 629.56,341.15 632.50,340.10 635.44,340.12 638.40,340.15 641.34,340.18 644.28,340.21 647.23,341.06 650.17,342.24 653.11,343.42 656.07,344.59 659.01,345.94 661.95,347.52 664.90,349.09 667.84,350.66 670.79,352.26 673.74,353.96 676.68,355.66 679.62,357.36 682.58,359.07 685.52,360.87 688.46,362.68 691.41,364.50 694.35,366.32 697.29,368.12 700.25,369.90 703.19,371.69 706.13,373.47 709.08,375.22 712.03,376.85 714.97,378.49 717.92,380.13 720.86,381.76 723.80,383.20 726.76,384.64 729.70,386.08 732.64,387.52 735.59,388.83 738.53,390.09 741.48,391.35 744.43,392.61 747.37,393.84 750.31,395.03 753.27,396.21 756.21,397.40 759.15,398.61 762.10,399.93 765.04,401.24 767.98,402.56 770.94,403.88 773.88,405.30 776.82,406.74 779.77,408.18 782.72,409.62 785.66,410.93 788.61,412.15 791.55,413.37 794.49,414.59 797.45,415.66 800.39,416.36 803.33,417.05 806.28,417.74 809.22,418.43 812.17,418.30 815.12,418.17 818.06,418.05 821.00,417.92 823.96,416.84 826.90,415.38 829.84,413.92 832.79,412.46 835.73,410.35 838.67,407.37 841.63,404.39 844.57,401.41 847.51,398.36 850.46,394.87 853.41,391.39 856.35,387.90 859.30,384.41 862.24,381.65 865.18,379.01 868.14,376.36 871.08,373.72 874.02,371.77 876.97,370.35 879.91,368.92 882.85,367.50 885.81,366.35 888.75,365.89 891.69,365.43 894.65,364.96 897.59,364.50 900.53,364.70 903.48,364.89 906.42,365.09 909.36,365.28 912.32,365.79 915.26,366.43 918.20,367.06 921.15,367.69 924.09,368.46 927.04,369.40 929.99,370.34 932.93,371.28 935.87,372.25 938.83,373.43 941.77,374.61 944.71,375.78 947.66,376.96 950.60,378.32 953.54,379.72 956.50,381.11 959.44,382.51 962.38,384.03 965.33,385.66 968.28,387.28 971.22,388.90 974.17,390.59 977.11,392.46 980.05,394.33 983.01,396.20 985.95,398.07 988.89,400.23 991.84,402.40 994.78,404.57 997.73,406.74 1000.68,409.18 1003.62,411.73 1006.56,414.28 1009.52,416.83 1012.46,419.57 1015.40,422.57 1018.35,425.56 1021.29,428.56 1024.23,431.62 1027.19,435.09 1030.13,438.56 1033.07,442.03 1036.02,445.49 1038.97,449.20 1041.91,452.94 1044.86,456.69 1047.80,460.43 1050.74,464.02 1053.70,467.50 1056.64,470.98 1059.58,474.45 1062.53,477.39 1065.47,478.97 1068.42,480.56 1071.37,482.14 1074.31,483.73" fill="none" stroke="#999999" stroke-width="3" stroke-dasharray="3 4"/>
<line x1="142" y1="156" x2="178" y2="156" stroke="#999999" stroke-width="4" stroke-dasharray="3 4"/>
<text x="188" y="161" font-family="Arial" font-size="18" fill="black">Uz / w</text>
</svg>