<svg xmlns="http://www.w3.org/2000/svg" width="1200" height="820" viewBox="0 0 1200 820">
<rect width="100%" height="100%" fill="white"/>
<text x="600.0" y="36" text-anchor="middle" font-family="Arial" font-size="24" fill="black">profile_center_y: Q</text>
<line x1="120.00" y1="75" x2="120.00" y2="705" stroke="#dddddd" stroke-width="1"/>
<text x="120.00" y="737" text-anchor="middle" font-family="Arial" font-size="16" fill="black">-0.400</text>
<line x1="376.25" y1="75" x2="376.25" y2="705" stroke="#dddddd" stroke-width="1"/>
<text x="376.25" y="737" text-anchor="middle" font-family="Arial" font-size="16" fill="black">1.050</text>
<line x1="632.50" y1="75" x2="632.50" y2="705" stroke="#dddddd" stroke-width="1"/>
<text x="632.50" y="737" text-anchor="middle" font-family="Arial" font-size="16" fill="black">2.500</text>
<line x1="888.75" y1="75" x2="888.75" y2="705" stroke="#dddddd" stroke-width="1"/>
<text x="888.75" y="737" text-anchor="middle" font-family="Arial" font-size="16" fill="black">3.950</text>
<line x1="1145.00" y1="75" x2="1145.00" y2="705" stroke="#dddddd" stroke-width="1"/>
<text x="1145.00" y="737" text-anchor="middle" font-family="Arial" font-size="16" fill="black">5.400</text>
<line x1="120" y1="705.00" x2="1145" y2="705.00" stroke="#dddddd" stroke-width="1"/>
<text x="104" y="710.00" text-anchor="end" font-family="Arial" font-size="16" fill="black">-0.195</text>
<line x1="120" y1="547.50" x2="1145" y2="547.50" stroke="#dddddd" stroke-width="1"/>
<text x="104" y="552.50" text-anchor="end" font-family="Arial" font-size="16" fill="black">-0.074</text>
<line x1="120" y1="390.00" x2="1145" y2="390.00" stroke="#dddddd" stroke-width="1"/>
<text x="104" y="395.00" text-anchor="end" font-family="Arial" font-size="16" fill="black">0.047</text>
<line x1="120" y1="232.50" x2="1145" y2="232.50" stroke="#dddddd" stroke-width="1"/>
<text x="104" y="237.50" text-anchor="end" font-family="Arial" font-size="16" fill="black">0.168</text>
<line x1="120" y1="75.00" x2="1145" y2="75.00" stroke="#dddddd" stroke-width="1"/>
<text x="104" y="80.00" text-anchor="end" font-family="Arial" font-size="16" fill="black">0.289</text>
<rect x="120" y="75" width="1025" height="630" fill="none" stroke="black" stroke-width="2"/>
<text x="632.5" y="785" text-anchor="middle" font-family="Arial" font-size="20" fill="black">y coordinate [m]</text>
<text x="34" y="390.0" transform="rotate(-90 34 390.0)" text-anchor="middle" font-family="Arial" font-size="20" fill="black">Q [SI]</text>
<polyline points="190.69,474.97 193.64,478.34 196.58,481.71 199.53,485.07 202.47,488.44 205.42,491.81 208.36,495.18 211.31,498.91 214.25,502.65 217.20,506.39 220.14,510.12 223.09,513.86 226.03,517.60 228.98,516.97 231.92,516.35 234.87,515.72 237.82,515.10 240.76,514.47 243.71,513.85 246.65,511.15 249.60,508.46 252.54,505.76 255.49,503.06 258.43,500.37 261.38,497.67 264.33,494.12 267.27,490.56 270.22,487.01 273.16,483.45 276.11,479.90 279.05,476.34 282.00,472.48 284.94,468.62 287.89,464.75 290.83,460.89 293.78,457.03 296.72,453.16 299.67,448.45 302.61,443.74 305.56,439.03 308.51,434.32 311.45,429.61 314.40,424.90 317.34,417.73 320.29,410.56 323.23,403.39 326.18,396.22 329.12,389.05 332.07,381.88 335.01,369.28 337.96,356.68 340.91,344.08 343.85,331.48 346.80,318.88 349.74,306.29 352.69,288.85 355.63,271.40 358.58,253.96 361.52,236.52 364.47,219.08 367.41,201.65 370.37,188.13 373.30,174.61 376.25,161.11 379.20,147.59 382.13,134.07 385.09,120.56 388.04,120.21 390.97,119.86 393.92,119.50 396.87,119.15 399.81,118.80 402.76,118.45 405.71,132.55 408.64,146.67 411.59,160.79 414.55,174.91 417.48,189.03 420.43,203.15 423.38,224.81 426.32,246.47 429.27,268.14 432.22,289.80 435.15,311.46 438.10,333.11 441.05,353.17 443.99,373.23 446.94,393.29 449.89,413.35 452.82,433.41 455.78,453.46 458.73,465.92 461.66,478.38 464.61,490.84 467.56,503.29 470.50,515.75 473.45,528.21 476.40,529.89 479.33,531.56 482.28,533.24 485.24,534.92 488.17,536.59 491.12,538.27 494.07,529.02 497.01,519.78 499.96,510.53 502.91,501.28 505.84,492.03 508.79,482.78 511.74,466.89 514.68,451.00 517.63,435.11 520.58,419.22 523.51,403.32 526.47,387.43 529.42,373.44 532.35,359.45 535.30,345.45 538.25,331.46 541.19,317.48 544.14,303.47 547.09,299.50 550.02,295.51 552.97,291.54 555.93,287.57 558.86,283.58 561.81,279.61 564.76,284.96 567.70,290.32 570.65,295.68 573.60,301.04 576.53,306.39 579.48,311.74 582.43,320.29 585.37,328.83 588.32,337.37 591.27,345.91 594.20,354.46 597.16,363.00 600.11,371.55 603.04,380.11 605.99,388.67 608.94,397.22 611.88,405.78 614.83,414.33 617.78,422.37 620.71,430.41 623.66,438.45 626.62,446.49 629.55,454.53 632.50,462.57 635.45,470.52 638.38,478.47 641.34,486.42 644.29,494.37 647.22,502.32 650.17,510.27 653.12,518.60 656.06,526.93 659.01,535.25 661.96,543.58 664.89,551.90 667.84,560.23 670.80,568.74 673.73,577.26 676.68,585.77 679.63,594.29 682.57,602.81 685.52,611.31 688.47,618.31 691.40,625.29 694.35,632.28 697.30,639.27 700.24,646.26 703.19,653.24 706.14,654.62 709.07,656.02 712.03,657.40 714.98,658.78 717.91,660.17 720.86,661.55 723.81,653.44 726.75,645.34 729.70,637.23 732.65,629.12 735.58,621.02 738.53,612.90 741.49,596.53 744.42,580.15 747.37,563.77 750.32,547.39 753.26,531.02 756.21,514.64 759.16,495.05 762.09,475.47 765.04,455.89 767.99,436.30 770.93,416.72 773.88,397.14 776.83,379.07 779.76,361.01 782.72,342.95 785.67,324.88 788.60,306.82 791.55,288.75 794.50,275.19 797.44,261.64 800.39,248.08 803.34,234.52 806.27,220.96 809.22,207.40 812.18,199.18 815.11,190.96 818.06,182.74 821.01,174.52 823.95,166.30 826.90,158.08 829.85,154.50 832.78,150.92 835.73,147.35 838.68,143.77 841.62,140.19 844.57,136.61 847.52,136.42 850.45,136.23 853.41,136.03 856.36,135.84 859.29,135.65 862.24,135.46 865.19,137.88 868.13,140.30 871.08,142.73 874.03,145.15 876.96,147.59 879.91,150.01 882.87,155.32 885.80,160.64 888.75,165.95 891.70,171.27 894.63,176.58 897.59,181.89 900.54,189.72 903.47,197.56 906.42,205.41 909.37,213.23 912.31,221.07 915.26,228.90 918.21,237.20 921.14,245.48 924.09,253.77 927.05,262.05 929.98,270.34 932.93,278.63 935.88,285.77 938.82,292.91 941.77,300.05 944.72,307.19 947.65,314.32 950.60,321.46 953.55,327.21 956.49,332.96 959.44,338.71 962.39,344.45 965.32,350.20 968.28,355.95 971.23,360.49 974.16,365.04 977.11,369.58 980.06,374.12 983.00,378.67 985.95,383.21 988.90,386.81 991.83,390.41 994.78,394.01 997.74,397.61 1000.67,401.21 1003.62,404.81 1006.57,407.77 1009.51,410.72 1012.46,413.68 1015.41,416.63 1018.34,419.59 1021.29,422.55 1024.24,425.21 1027.18,427.88 1030.13,430.55 1033.08,433.21 1036.01,435.88 1038.97,438.55 1041.92,441.10 1044.85,443.66 1047.80,446.21 1050.75,448.77 1053.69,451.33 1056.64,453.88 1059.59,455.13 1062.52,456.38 1065.47,457.64 1068.43,458.89 1071.36,460.14 1074.31,461.39" fill="none" stroke="#000000" stroke-width="3"/>
<line x1="142" y1="100" x2="178" y2="100" stroke="#000000" stroke-width="4"/>
<text x="188" y="105" font-family="Arial" font-size="18" fill="black">Q</text>
</svg>