<svg xmlns="http://www.w3.org/2000/svg" width="1200" height="820" viewBox="0 0 1200 820">
<rect width="100%" height="100%" fill="white"/>
<text x="600.0" y="36" text-anchor="middle" font-family="Arial" font-size="24" fill="black">profile_center_x: U:1</text>
<line x1="120.00" y1="75" x2="120.00" y2="705" stroke="#dddddd" stroke-width="1"/>
<text x="120.00" y="737" text-anchor="middle" font-family="Arial" font-size="16" fill="black">-0.560</text>
<line x1="376.25" y1="75" x2="376.25" y2="705" stroke="#dddddd" stroke-width="1"/>
<text x="376.25" y="737" text-anchor="middle" font-family="Arial" font-size="16" fill="black">1.470</text>
<line x1="632.50" y1="75" x2="632.50" y2="705" stroke="#dddddd" stroke-width="1"/>
<text x="632.50" y="737" text-anchor="middle" font-family="Arial" font-size="16" fill="black">3.500</text>
<line x1="888.75" y1="75" x2="888.75" y2="705" stroke="#dddddd" stroke-width="1"/>
<text x="888.75" y="737" text-anchor="middle" font-family="Arial" font-size="16" fill="black">5.530</text>
<line x1="1145.00" y1="75" x2="1145.00" y2="705" stroke="#dddddd" stroke-width="1"/>
<text x="1145.00" y="737" text-anchor="middle" font-family="Arial" font-size="16" fill="black">7.560</text>
<line x1="120" y1="705.00" x2="1145" y2="705.00" stroke="#dddddd" stroke-width="1"/>
<text x="104" y="710.00" text-anchor="end" font-family="Arial" font-size="16" fill="black">-0.208</text>
<line x1="120" y1="547.50" x2="1145" y2="547.50" stroke="#dddddd" stroke-width="1"/>
<text x="104" y="552.50" text-anchor="end" font-family="Arial" font-size="16" fill="black">-0.101</text>
<line x1="120" y1="390.00" x2="1145" y2="390.00" stroke="#dddddd" stroke-width="1"/>
<text x="104" y="395.00" text-anchor="end" font-family="Arial" font-size="16" fill="black">0.005</text>
<line x1="120" y1="232.50" x2="1145" y2="232.50" stroke="#dddddd" stroke-width="1"/>
<text x="104" y="237.50" text-anchor="end" font-family="Arial" font-size="16" fill="black">0.111</text>
<line x1="120" y1="75.00" x2="1145" y2="75.00" stroke="#dddddd" stroke-width="1"/>
<text x="104" y="80.00" text-anchor="end" font-family="Arial" font-size="16" fill="black">0.217</text>
<rect x="120" y="75" width="1025" height="630" fill="none" stroke="black" stroke-width="2"/>
<text x="632.5" y="785" text-anchor="middle" font-family="Arial" font-size="20" fill="black">x coordinate [m]</text>
<text x="34" y="390.0" transform="rotate(-90 34 390.0)" text-anchor="middle" font-family="Arial" font-size="20" fill="black">U:1 [SI]</text>
<polyline points="190.69,188.59 193.64,195.05 196.58,201.51 199.53,207.97 202.47,214.43 205.42,226.40 208.36,240.57 211.31,254.74 214.25,268.92 217.20,284.31 220.14,301.32 223.09,318.33 226.03,335.34 228.98,352.72 231.93,372.32 234.87,391.92 237.82,411.52 240.76,431.12 243.71,451.14 246.65,471.24 249.60,491.35 252.54,511.44 255.49,529.88 258.43,547.07 261.38,564.25 264.32,581.45 267.27,596.98 270.22,608.37 273.16,619.75 276.11,631.14 279.05,642.53 282.00,647.22 284.94,651.90 287.89,656.59 290.83,661.28 293.78,661.55 296.72,660.08 299.67,658.60 302.62,657.11 305.56,653.34 308.51,646.54 311.45,639.74 314.40,632.92 317.34,625.43 320.29,613.91 323.23,602.37 326.17,590.85 329.13,579.31 332.07,563.98 335.01,548.02 337.96,532.06 340.91,516.10 343.85,497.91 346.80,478.05 349.74,458.19 352.68,438.33 355.64,418.02 358.58,396.58 361.52,375.13 364.47,353.69 367.41,332.24 370.35,312.91 373.31,293.58 376.25,274.25 379.19,254.92 382.15,238.95 385.09,224.29 388.03,209.65 390.98,195.00 393.92,182.60 396.86,173.22 399.82,163.83 402.76,154.45 405.70,145.70 408.65,140.81 411.59,135.91 414.54,131.01 417.49,126.13 420.43,123.99 423.37,122.31 426.33,120.65 429.27,118.97 432.21,118.45 435.16,118.79 438.10,119.15 441.04,119.49 444.00,120.17 446.94,121.66 449.88,123.16 452.83,124.66 455.78,126.14 458.72,128.31 461.67,130.46 464.61,132.62 467.55,134.78 470.51,137.28 473.45,139.92 476.39,142.55 479.34,145.19 482.28,148.02 485.23,151.10 488.18,154.19 491.12,157.27 494.06,160.42 497.02,163.95 499.96,167.47 502.90,170.99 505.85,174.52 508.79,178.40 511.73,182.34 514.69,186.27 517.63,190.21 520.57,194.36 523.52,198.67 526.47,202.98 529.41,207.28 532.36,211.71 535.30,216.40 538.24,221.11 541.20,225.80 544.14,230.51 547.08,235.71 550.03,240.92 552.97,246.13 555.92,251.34 558.87,257.06 561.81,262.99 564.75,268.92 567.71,274.84 570.65,281.16 573.59,287.98 576.54,294.80 579.48,301.63 582.42,308.57 585.38,316.25 588.32,323.93 591.26,331.60 594.21,339.28 597.16,347.35 600.10,355.49 603.05,363.62 605.99,371.76 608.93,379.74 611.89,387.60 614.83,395.45 617.77,403.31 620.72,410.85 623.66,417.56 626.60,424.28 629.56,431.00 632.50,437.71 635.44,442.53 638.40,447.36 641.34,452.18 644.28,457.00 647.23,460.10 650.17,462.51 653.11,464.92 656.07,467.32 659.01,468.61 661.95,468.41 664.90,468.20 667.84,467.99 670.79,467.43 673.74,464.76 676.68,462.10 679.62,459.43 682.58,456.76 685.52,452.37 688.46,447.68 691.41,443.00 694.35,438.32 697.29,432.84 700.25,426.75 703.19,420.67 706.13,414.59 709.08,408.32 712.03,401.58 714.97,394.83 717.92,388.08 720.86,381.33 723.80,374.67 726.76,368.00 729.70,361.34 732.64,354.67 735.59,348.54 738.53,342.61 741.48,336.68 744.43,330.75 747.37,325.34 750.31,320.63 753.27,315.92 756.21,311.21 759.15,306.72 762.10,303.53 765.04,300.34 767.98,297.15 770.94,293.96 773.88,292.18 776.82,290.63 779.77,289.09 782.72,287.54 785.66,286.93 788.61,287.01 791.55,287.09 794.49,287.17 797.45,287.69 800.39,289.31 803.33,290.93 806.28,292.55 809.22,294.18 812.17,297.29 815.12,300.40 818.06,303.51 821.00,306.62 823.96,310.80 826.90,315.40 829.84,320.00 832.79,324.61 835.73,329.83 838.67,335.89 841.63,341.94 844.57,347.99 847.51,354.22 850.46,361.45 853.41,368.68 856.35,375.92 859.30,383.15 862.24,390.84 865.18,398.61 868.14,406.38 871.08,414.15 874.02,421.73 876.97,429.18 879.91,436.63 882.85,444.07 885.81,451.22 888.75,457.64 891.69,464.06 894.65,470.47 897.59,476.89 900.53,481.84 903.48,486.79 906.42,491.74 909.36,496.70 912.32,500.44 915.26,503.69 918.20,506.94 921.15,510.20 924.09,512.71 927.04,514.22 929.99,515.74 932.93,517.26 935.87,518.56 938.83,518.49 941.77,518.42 944.71,518.35 947.66,518.28 950.60,517.08 953.54,515.70 956.50,514.32 959.44,512.93 962.38,510.96 965.33,508.54 968.28,506.12 971.22,503.71 974.17,501.04 977.11,497.73 980.05,494.43 983.01,491.12 985.95,487.82 988.89,483.54 991.84,479.27 994.78,474.99 997.73,470.72 1000.68,465.55 1003.62,460.03 1006.56,454.50 1009.52,448.98 1012.46,442.76 1015.40,435.61 1018.35,428.45 1021.29,421.30 1024.23,413.88 1027.19,404.81 1030.13,395.73 1033.07,386.66 1036.02,377.59 1038.97,366.69 1041.91,355.49 1044.86,344.29 1047.80,333.09 1050.74,319.67 1053.70,304.59 1056.64,289.51 1059.58,274.43 1062.53,261.10 1065.47,252.18 1068.42,243.25 1071.37,234.33 1074.31,225.40" fill="none" stroke="#000000" stroke-width="3"/>
<line x1="142" y1="100" x2="178" y2="100" stroke="#000000" stroke-width="4"/>
<text x="188" y="105" font-family="Arial" font-size="18" fill="black">U:1</text>
</svg>