<svg xmlns="http://www.w3.org/2000/svg" width="1200" height="820" viewBox="0 0 1200 820">
<rect width="100%" height="100%" fill="white"/>
<text x="600.0" y="36" text-anchor="middle" font-family="Arial" font-size="24" fill="black">profile_near_floor_x: p_rgh</text>
<line x1="120.00" y1="75" x2="120.00" y2="705" stroke="#dddddd" stroke-width="1"/>
<text x="120.00" y="737" text-anchor="middle" font-family="Arial" font-size="16" fill="black">-0.560</text>
<line x1="376.25" y1="75" x2="376.25" y2="705" stroke="#dddddd" stroke-width="1"/>
<text x="376.25" y="737" text-anchor="middle" font-family="Arial" font-size="16" fill="black">1.470</text>
<line x1="632.50" y1="75" x2="632.50" y2="705" stroke="#dddddd" stroke-width="1"/>
<text x="632.50" y="737" text-anchor="middle" font-family="Arial" font-size="16" fill="black">3.500</text>
<line x1="888.75" y1="75" x2="888.75" y2="705" stroke="#dddddd" stroke-width="1"/>
<text x="888.75" y="737" text-anchor="middle" font-family="Arial" font-size="16" fill="black">5.530</text>
<line x1="1145.00" y1="75" x2="1145.00" y2="705" stroke="#dddddd" stroke-width="1"/>
<text x="1145.00" y="737" text-anchor="middle" font-family="Arial" font-size="16" fill="black">7.560</text>
<line x1="120" y1="705.00" x2="1145" y2="705.00" stroke="#dddddd" stroke-width="1"/>
<text x="104" y="710.00" text-anchor="end" font-family="Arial" font-size="16" fill="black">0.440</text>
<line x1="120" y1="547.50" x2="1145" y2="547.50" stroke="#dddddd" stroke-width="1"/>
<text x="104" y="552.50" text-anchor="end" font-family="Arial" font-size="16" fill="black">0.529</text>
<line x1="120" y1="390.00" x2="1145" y2="390.00" stroke="#dddddd" stroke-width="1"/>
<text x="104" y="395.00" text-anchor="end" font-family="Arial" font-size="16" fill="black">0.618</text>
<line x1="120" y1="232.50" x2="1145" y2="232.50" stroke="#dddddd" stroke-width="1"/>
<text x="104" y="237.50" text-anchor="end" font-family="Arial" font-size="16" fill="black">0.707</text>
<line x1="120" y1="75.00" x2="1145" y2="75.00" stroke="#dddddd" stroke-width="1"/>
<text x="104" y="80.00" text-anchor="end" font-family="Arial" font-size="16" fill="black">0.796</text>
<rect x="120" y="75" width="1025" height="630" fill="none" stroke="black" stroke-width="2"/>
<text x="632.5" y="785" text-anchor="middle" font-family="Arial" font-size="20" fill="black">x coordinate [m]</text>
<text x="34" y="390.0" transform="rotate(-90 34 390.0)" text-anchor="middle" font-family="Arial" font-size="20" fill="black">p_rgh [Pa]</text>
<polyline points="190.69,620.70 193.64,623.46 196.58,626.22 199.53,628.98 202.47,631.74 205.42,635.60 208.36,639.87 211.31,644.15 214.25,648.43 217.20,651.90 220.14,654.31 223.09,656.70 226.03,659.09 228.98,661.16 231.93,661.27 234.87,661.36 237.82,661.46 240.76,661.55 243.71,658.72 246.65,655.41 249.60,652.08 252.54,648.75 255.49,643.53 258.43,636.86 261.38,630.18 264.32,623.51 267.27,616.18 270.22,607.22 273.16,598.25 276.11,589.29 279.05,580.33 282.00,570.77 284.94,561.22 287.89,551.67 290.83,542.11 293.78,531.92 296.72,521.47 299.67,511.01 302.62,500.55 305.56,485.64 308.51,464.79 311.45,443.94 314.40,423.09 317.34,401.65 320.29,376.60 323.23,351.57 326.17,326.52 329.13,301.47 332.07,284.23 335.01,268.26 337.96,252.31 340.91,236.34 343.85,223.76 346.80,213.70 349.74,203.65 352.68,193.58 355.64,184.58 358.58,178.25 361.52,171.89 364.47,165.55 367.41,159.22 370.35,156.19 373.31,153.16 376.25,150.14 379.19,147.09 382.15,146.24 385.09,146.26 388.03,146.28 390.98,146.29 393.92,148.35 396.86,153.11 399.82,157.89 402.76,162.65 405.70,168.85 408.65,183.59 411.59,198.34 414.54,213.08 417.49,227.83 420.43,244.13 423.37,260.69 426.33,277.24 429.27,293.79 432.21,306.41 435.16,316.09 438.10,325.78 441.04,335.46 444.00,344.68 446.94,352.72 449.88,360.77 452.83,368.81 455.78,376.86 458.72,383.59 461.67,390.32 464.61,397.05 467.55,403.77 470.51,407.72 473.45,410.55 476.39,413.38 479.34,416.20 482.28,418.11 485.23,418.80 488.18,419.47 491.12,420.15 494.06,420.87 497.02,421.79 499.96,422.71 502.90,423.63 505.85,424.55 508.79,424.31 511.73,423.86 514.69,423.40 517.63,422.96 520.57,420.98 523.52,417.85 526.47,414.71 529.41,411.56 532.36,408.00 535.30,403.35 538.24,398.71 541.20,394.07 544.14,389.42 547.08,384.46 550.03,379.50 552.97,374.53 555.92,369.57 558.87,362.61 561.81,354.86 564.75,347.13 567.71,339.37 570.65,328.13 573.59,312.25 576.54,296.36 579.48,280.48 582.42,264.40 585.38,247.28 588.32,230.15 591.26,213.03 594.21,195.91 597.16,185.01 600.10,175.13 603.05,165.25 605.99,155.38 608.93,148.15 611.89,142.91 614.83,137.67 617.77,132.43 620.72,128.01 623.66,125.62 626.60,123.23 629.56,120.84 632.50,118.45 635.44,118.71 638.40,118.98 641.34,119.24 644.28,119.51 647.23,121.79 650.17,124.89 653.11,128.01 656.07,131.11 659.01,136.26 661.95,144.12 664.90,151.96 667.84,159.82 670.79,168.72 673.74,183.80 676.68,198.87 679.62,213.95 682.58,229.03 685.52,243.53 688.46,257.94 691.41,272.35 694.35,286.74 697.29,297.77 700.25,306.27 703.19,314.77 706.13,323.26 709.08,331.57 712.03,339.35 714.97,347.13 717.92,354.91 720.86,362.70 723.80,370.10 726.76,377.50 729.70,384.90 732.64,392.32 735.59,397.61 738.53,402.09 741.48,406.55 744.43,411.01 747.37,413.58 750.31,413.61 753.27,413.65 756.21,413.67 759.15,413.37 762.10,411.07 765.04,408.75 767.98,406.45 770.94,404.13 773.88,402.30 776.82,400.55 779.77,398.82 782.72,397.06 785.66,394.73 788.61,391.95 791.55,389.17 794.49,386.39 797.45,382.72 800.39,376.90 803.33,371.06 806.28,365.23 809.22,359.41 812.17,352.38 815.12,345.37 818.06,338.34 821.00,331.33 823.96,323.92 826.90,316.34 829.84,308.76 832.79,301.21 835.73,291.22 838.67,278.03 841.63,264.86 844.57,251.68 847.51,238.33 850.46,224.01 853.41,209.69 856.35,195.36 859.30,181.03 862.24,172.37 865.18,164.67 868.14,156.95 871.08,149.25 874.02,144.12 876.97,140.95 879.91,137.78 882.85,134.61 885.81,132.26 888.75,131.97 891.69,131.71 894.65,131.42 897.59,131.14 900.53,133.65 903.48,136.15 906.42,138.65 909.36,141.16 912.32,145.75 915.26,151.16 918.20,156.60 921.15,162.01 924.09,169.40 927.04,179.36 929.99,189.33 932.93,199.29 935.87,210.23 938.83,227.03 941.77,243.83 944.71,260.63 947.66,277.43 950.60,293.28 953.54,308.98 956.50,324.66 959.44,340.35 962.38,351.85 965.33,360.24 968.28,368.62 971.22,377.01 974.17,384.69 977.11,390.64 980.05,396.59 983.01,402.53 985.95,408.48 988.89,414.29 991.84,420.11 994.78,425.92 997.73,431.74 1000.68,436.66 1003.62,441.27 1006.56,445.85 1009.52,450.44 1012.46,453.92 1015.40,455.96 1018.35,457.99 1021.29,460.03 1024.23,461.71 1027.19,461.23 1030.13,460.76 1033.07,460.28 1036.02,459.80 1038.97,458.01 1041.91,456.01 1044.86,454.01 1047.80,452.01 1050.74,449.78 1053.70,447.36 1056.64,444.95 1059.58,442.54 1062.53,440.47 1065.47,439.28 1068.42,438.08 1071.37,436.89 1074.31,435.69" fill="none" stroke="#000000" stroke-width="3"/>
<line x1="142" y1="100" x2="178" y2="100" stroke="#000000" stroke-width="4"/>
<text x="188" y="105" font-family="Arial" font-size="18" fill="black">p_rgh</text>
</svg>