<svg xmlns="http://www.w3.org/2000/svg" width="1200" height="820" viewBox="0 0 1200 820">
<rect width="100%" height="100%" fill="white"/>
<text x="600.0" y="36" text-anchor="middle" font-family="Arial" font-size="24" fill="black">profile_center_z: vorticity:1</text>
<line x1="120.00" y1="75" x2="120.00" y2="705" stroke="#dddddd" stroke-width="1"/>
<text x="120.00" y="737" text-anchor="middle" font-family="Arial" font-size="16" fill="black">-0.240</text>
<line x1="376.25" y1="75" x2="376.25" y2="705" stroke="#dddddd" stroke-width="1"/>
<text x="376.25" y="737" text-anchor="middle" font-family="Arial" font-size="16" fill="black">0.630</text>
<line x1="632.50" y1="75" x2="632.50" y2="705" stroke="#dddddd" stroke-width="1"/>
<text x="632.50" y="737" text-anchor="middle" font-family="Arial" font-size="16" fill="black">1.500</text>
<line x1="888.75" y1="75" x2="888.75" y2="705" stroke="#dddddd" stroke-width="1"/>
<text x="888.75" y="737" text-anchor="middle" font-family="Arial" font-size="16" fill="black">2.370</text>
<line x1="1145.00" y1="75" x2="1145.00" y2="705" stroke="#dddddd" stroke-width="1"/>
<text x="1145.00" y="737" text-anchor="middle" font-family="Arial" font-size="16" fill="black">3.240</text>
<line x1="120" y1="705.00" x2="1145" y2="705.00" stroke="#dddddd" stroke-width="1"/>
<text x="104" y="710.00" text-anchor="end" font-family="Arial" font-size="16" fill="black">-0.261</text>
<line x1="120" y1="547.50" x2="1145" y2="547.50" stroke="#dddddd" stroke-width="1"/>
<text x="104" y="552.50" text-anchor="end" font-family="Arial" font-size="16" fill="black">-0.092</text>
<line x1="120" y1="390.00" x2="1145" y2="390.00" stroke="#dddddd" stroke-width="1"/>
<text x="104" y="395.00" text-anchor="end" font-family="Arial" font-size="16" fill="black">0.077</text>
<line x1="120" y1="232.50" x2="1145" y2="232.50" stroke="#dddddd" stroke-width="1"/>
<text x="104" y="237.50" text-anchor="end" font-family="Arial" font-size="16" fill="black">0.246</text>
<line x1="120" y1="75.00" x2="1145" y2="75.00" stroke="#dddddd" stroke-width="1"/>
<text x="104" y="80.00" text-anchor="end" font-family="Arial" font-size="16" fill="black">0.415</text>
<rect x="120" y="75" width="1025" height="630" fill="none" stroke="black" stroke-width="2"/>
<text x="632.5" y="785" text-anchor="middle" font-family="Arial" font-size="20" fill="black">z coordinate [m]</text>
<text x="34" y="390.0" transform="rotate(-90 34 390.0)" text-anchor="middle" font-family="Arial" font-size="20" fill="black">vorticity:1 [SI]</text>
<polyline points="190.69,528.30 193.64,527.55 196.58,526.81 199.53,526.06 202.47,525.31 205.42,524.56 208.36,523.81 211.31,523.06 214.25,522.31 217.20,521.57 220.14,520.82 223.09,520.74 226.03,520.66 228.98,520.58 231.93,520.51 234.87,520.43 237.82,520.35 240.76,520.27 243.71,520.20 246.65,520.12 249.60,520.04 252.54,521.95 255.49,523.86 258.43,525.77 261.38,527.67 264.32,529.58 267.27,531.49 270.22,533.40 273.16,535.31 276.11,537.21 279.05,539.12 282.00,540.20 284.94,541.27 287.89,542.35 290.83,543.42 293.78,544.50 296.72,545.57 299.67,546.65 302.61,547.72 305.56,548.80 308.51,549.87 311.45,546.99 314.40,544.11 317.34,541.22 320.29,538.34 323.23,535.45 326.18,532.57 329.12,529.68 332.07,526.80 335.01,523.92 337.96,521.03 340.91,516.41 343.85,511.78 346.80,507.16 349.74,502.53 352.69,497.91 355.63,493.28 358.58,488.66 361.52,484.03 364.47,479.41 367.41,474.78 370.36,470.70 373.30,466.61 376.25,462.53 379.20,458.44 382.14,454.35 385.09,450.27 388.03,446.18 390.98,442.10 393.92,438.01 396.87,433.92 399.81,429.98 402.76,426.03 405.70,422.08 408.65,418.13 411.59,414.18 414.54,410.23 417.49,406.28 420.43,402.34 423.38,398.39 426.32,394.44 429.27,391.70 432.21,388.96 435.16,386.22 438.10,383.48 441.05,380.74 443.99,377.99 446.94,375.25 449.89,372.51 452.83,369.77 455.78,367.04 458.72,365.81 461.67,364.59 464.61,363.37 467.56,362.15 470.50,360.93 473.45,359.72 476.39,358.50 479.34,357.27 482.28,356.05 485.23,354.83 488.18,354.90 491.12,354.97 494.07,355.04 497.01,355.10 499.96,355.17 502.90,355.24 505.85,355.31 508.79,355.37 511.74,355.45 514.68,355.51 517.63,356.40 520.57,357.29 523.52,358.18 526.47,359.06 529.41,359.96 532.36,360.84 535.30,361.74 538.25,362.63 541.19,363.51 544.14,364.41 547.08,365.67 550.03,366.94 552.97,368.20 555.92,369.47 558.86,370.74 561.81,372.01 564.76,373.27 567.70,374.54 570.65,375.80 573.59,377.07 576.54,378.54 579.48,380.02 582.43,381.49 585.37,382.97 588.32,384.44 591.26,385.92 594.21,387.39 597.16,388.87 600.10,390.34 603.05,391.81 605.99,393.53 608.94,395.25 611.88,396.96 614.83,398.68 617.77,400.40 620.72,402.11 623.66,403.83 626.61,405.55 629.55,407.26 632.50,408.98 635.45,411.11 638.39,413.23 641.34,415.35 644.28,417.48 647.23,419.60 650.17,421.73 653.12,423.85 656.06,425.98 659.01,428.10 661.95,430.22 664.90,432.99 667.84,435.76 670.79,438.53 673.74,441.30 676.68,444.07 679.63,446.84 682.57,449.61 685.52,452.38 688.46,455.15 691.41,457.92 694.35,461.46 697.30,465.01 700.24,468.55 703.19,472.09 706.14,475.64 709.08,479.18 712.03,482.73 714.97,486.27 717.92,489.81 720.86,493.36 723.81,497.50 726.75,501.65 729.70,505.80 732.64,509.95 735.59,514.09 738.53,518.24 741.48,522.39 744.43,526.53 747.37,530.68 750.32,534.83 753.26,539.14 756.21,543.45 759.15,547.76 762.10,552.07 765.04,556.38 767.99,560.69 770.93,565.00 773.88,569.31 776.82,573.62 779.77,577.93 782.72,581.83 785.66,585.73 788.61,589.64 791.55,593.54 794.50,597.44 797.44,601.35 800.39,605.25 803.33,609.15 806.28,613.05 809.22,616.96 812.17,619.88 815.11,622.81 818.06,625.73 821.01,628.66 823.95,631.59 826.90,634.51 829.84,637.44 832.79,640.37 835.73,643.30 838.68,646.22 841.62,647.75 844.57,649.28 847.51,650.82 850.46,652.35 853.41,653.89 856.35,655.42 859.30,656.95 862.24,658.48 865.19,660.01 868.13,661.55 871.08,661.54 874.02,661.53 876.97,661.53 879.91,661.52 882.86,661.52 885.80,661.51 888.75,661.51 891.70,661.51 894.64,661.50 897.59,661.50 900.53,660.13 903.48,658.78 906.42,657.43 909.37,656.08 912.31,654.73 915.26,653.37 918.20,652.02 921.15,650.67 924.09,649.31 927.04,647.96 929.99,645.63 932.93,643.29 935.88,640.96 938.82,638.62 941.77,636.28 944.71,633.94 947.66,631.60 950.60,629.27 953.55,626.93 956.49,624.59 959.44,621.74 962.39,618.88 965.33,616.01 968.28,613.16 971.22,610.30 974.17,607.44 977.11,604.58 980.06,601.72 983.00,598.86 985.95,596.01 988.89,593.24 991.84,590.47 994.78,587.70 997.73,584.94 1000.68,582.17 1003.62,579.40 1006.57,576.63 1009.51,573.87 1012.46,571.10 1015.40,568.33 1018.35,545.20 1021.29,522.07 1024.24,498.94 1027.18,475.81 1030.13,452.67 1033.07,429.54 1036.02,406.41 1038.97,383.28 1041.91,360.15 1044.86,337.01 1047.80,315.16 1050.75,293.29 1053.69,271.44 1056.64,249.59 1059.58,227.73 1062.53,205.87 1065.47,184.01 1068.42,162.16 1071.36,140.30 1074.31,118.45" fill="none" stroke="#000000" stroke-width="3"/>
<line x1="142" y1="100" x2="178" y2="100" stroke="#000000" stroke-width="4"/>
<text x="188" y="105" font-family="Arial" font-size="18" fill="black">vorticity:1</text>
</svg>