<svg xmlns="http://www.w3.org/2000/svg" width="1200" height="820" viewBox="0 0 1200 820">
<rect width="100%" height="100%" fill="white"/>
<text x="600.0" y="36" text-anchor="middle" font-family="Arial" font-size="24" fill="black">profile_near_ceiling_x: U:2</text>
<line x1="120.00" y1="75" x2="120.00" y2="705" stroke="#dddddd" stroke-width="1"/>
<text x="120.00" y="737" text-anchor="middle" font-family="Arial" font-size="16" fill="black">-0.560</text>
<line x1="376.25" y1="75" x2="376.25" y2="705" stroke="#dddddd" stroke-width="1"/>
<text x="376.25" y="737" text-anchor="middle" font-family="Arial" font-size="16" fill="black">1.470</text>
<line x1="632.50" y1="75" x2="632.50" y2="705" stroke="#dddddd" stroke-width="1"/>
<text x="632.50" y="737" text-anchor="middle" font-family="Arial" font-size="16" fill="black">3.500</text>
<line x1="888.75" y1="75" x2="888.75" y2="705" stroke="#dddddd" stroke-width="1"/>
<text x="888.75" y="737" text-anchor="middle" font-family="Arial" font-size="16" fill="black">5.530</text>
<line x1="1145.00" y1="75" x2="1145.00" y2="705" stroke="#dddddd" stroke-width="1"/>
<text x="1145.00" y="737" text-anchor="middle" font-family="Arial" font-size="16" fill="black">7.560</text>
<line x1="120" y1="705.00" x2="1145" y2="705.00" stroke="#dddddd" stroke-width="1"/>
<text x="104" y="710.00" text-anchor="end" font-family="Arial" font-size="16" fill="black">-0.100</text>
<line x1="120" y1="547.50" x2="1145" y2="547.50" stroke="#dddddd" stroke-width="1"/>
<text x="104" y="552.50" text-anchor="end" font-family="Arial" font-size="16" fill="black">-0.052</text>
<line x1="120" y1="390.00" x2="1145" y2="390.00" stroke="#dddddd" stroke-width="1"/>
<text x="104" y="395.00" text-anchor="end" font-family="Arial" font-size="16" fill="black">-0.004</text>
<line x1="120" y1="232.50" x2="1145" y2="232.50" stroke="#dddddd" stroke-width="1"/>
<text x="104" y="237.50" text-anchor="end" font-family="Arial" font-size="16" fill="black">0.043</text>
<line x1="120" y1="75.00" x2="1145" y2="75.00" stroke="#dddddd" stroke-width="1"/>
<text x="104" y="80.00" text-anchor="end" font-family="Arial" font-size="16" fill="black">0.091</text>
<rect x="120" y="75" width="1025" height="630" fill="none" stroke="black" stroke-width="2"/>
<text x="632.5" y="785" text-anchor="middle" font-family="Arial" font-size="20" fill="black">x coordinate [m]</text>
<text x="34" y="390.0" transform="rotate(-90 34 390.0)" text-anchor="middle" font-family="Arial" font-size="20" fill="black">U:2 [SI]</text>
<polyline points="190.69,607.39 193.64,608.01 196.58,608.63 199.53,609.24 202.47,609.86 205.42,608.43 208.36,606.17 211.31,603.92 214.25,601.67 217.20,597.36 220.14,590.30 223.09,583.25 226.03,576.20 228.98,568.91 231.93,560.23 234.87,551.55 237.82,542.88 240.76,534.20 243.71,525.32 246.65,516.40 249.60,507.48 252.54,498.56 255.49,489.77 258.43,481.07 261.38,472.37 264.32,463.67 267.27,455.07 270.22,446.72 273.16,438.37 276.11,430.01 279.05,421.66 282.00,413.76 284.94,405.85 287.89,397.95 290.83,390.05 293.78,382.52 296.72,375.15 299.67,367.77 302.62,360.39 305.56,353.23 308.51,346.36 311.45,339.48 314.40,332.61 317.34,325.80 320.29,319.42 323.23,313.03 326.17,306.64 329.13,300.25 332.07,294.37 335.01,288.56 337.96,282.76 340.91,276.96 343.85,271.60 346.80,266.56 349.74,261.52 352.68,256.49 355.64,251.75 358.58,247.75 361.52,243.75 364.47,239.74 367.41,235.74 370.35,233.19 373.31,230.63 376.25,228.08 379.19,225.52 382.15,224.35 385.09,223.74 388.03,223.12 390.98,222.51 393.92,222.88 396.86,224.57 399.82,226.27 402.76,227.96 405.70,229.97 408.65,233.90 411.59,237.83 414.54,241.76 417.49,245.69 420.43,251.02 423.37,256.57 426.33,262.13 429.27,267.68 432.21,273.57 435.16,279.73 438.10,285.87 441.04,292.02 444.00,298.01 446.94,303.60 449.88,309.19 452.83,314.77 455.78,320.36 458.72,324.53 461.67,328.70 464.61,332.87 467.55,337.04 470.51,339.94 473.45,342.33 476.39,344.71 479.34,347.10 482.28,348.72 485.23,349.31 488.18,349.90 491.12,350.48 494.06,350.84 497.02,349.79 499.96,348.74 502.90,347.68 505.85,346.63 508.79,344.36 511.73,341.88 514.69,339.40 517.63,336.92 520.57,333.73 523.52,330.01 526.47,326.29 529.41,322.57 532.36,318.53 535.30,313.71 538.24,308.89 541.20,304.06 544.14,299.24 547.08,293.46 550.03,287.68 552.97,281.90 555.92,276.12 558.87,269.79 561.81,263.24 564.75,256.70 567.71,250.15 570.65,243.41 573.59,236.42 576.54,229.43 579.48,222.43 582.42,215.44 585.38,208.47 588.32,201.51 591.26,194.54 594.21,187.57 597.16,181.09 600.10,174.69 603.05,168.29 605.99,161.89 608.93,155.99 611.89,150.47 614.83,144.95 617.77,139.43 620.72,134.35 623.66,130.37 626.60,126.40 629.56,122.43 632.50,118.45 635.44,118.56 638.40,118.67 641.34,118.77 644.28,118.88 647.23,122.09 650.17,126.55 653.11,131.00 656.07,135.46 659.01,140.55 661.95,146.51 664.90,152.46 667.84,158.41 670.79,164.43 673.74,170.87 676.68,177.31 679.62,183.74 682.58,190.18 685.52,196.99 688.46,203.86 691.41,210.73 694.35,217.60 697.29,224.40 700.25,231.15 703.19,237.91 706.13,244.66 709.08,251.25 712.03,257.44 714.97,263.63 717.92,269.81 720.86,276.00 723.80,281.45 726.76,286.89 729.70,292.33 732.64,297.78 735.59,302.73 738.53,307.50 741.48,312.26 744.43,317.02 747.37,321.67 750.31,326.16 753.27,330.64 756.21,335.13 759.15,339.69 762.10,344.68 765.04,349.66 767.98,354.65 770.94,359.64 773.88,365.01 776.82,370.45 779.77,375.89 782.72,381.32 785.66,386.29 788.61,390.91 791.55,395.52 794.49,400.14 797.45,404.18 800.39,406.80 803.33,409.42 806.28,412.04 809.22,414.66 812.17,414.17 815.12,413.68 818.06,413.19 821.00,412.70 823.96,408.63 826.90,403.11 829.84,397.60 832.79,392.09 835.73,384.11 838.67,372.84 841.63,361.57 844.57,350.30 847.51,338.75 850.46,325.57 853.41,312.38 856.35,299.20 859.30,286.02 862.24,275.57 865.18,265.58 868.14,255.58 871.08,245.59 874.02,238.23 876.97,232.85 879.91,227.46 882.85,222.07 885.81,217.72 888.75,215.98 891.69,214.23 894.65,212.48 897.59,210.73 900.53,211.47 903.48,212.21 906.42,212.95 909.36,213.69 912.32,215.61 915.26,218.01 918.20,220.41 921.15,222.81 924.09,225.70 927.04,229.26 929.99,232.81 932.93,236.37 935.87,240.05 938.83,244.50 941.77,248.95 944.71,253.39 947.66,257.84 950.60,263.00 953.54,268.27 956.50,273.55 959.44,278.82 962.38,284.59 965.33,290.72 968.28,296.86 971.22,302.99 974.17,309.39 977.11,316.46 980.05,323.52 983.01,330.59 985.95,337.65 988.89,345.85 991.84,354.04 994.78,362.24 997.73,370.44 1000.68,379.67 1003.62,389.31 1006.56,398.96 1009.52,408.60 1012.46,418.97 1015.40,430.29 1018.35,441.62 1021.29,452.94 1024.23,464.52 1027.19,477.63 1030.13,490.75 1033.07,503.86 1036.02,516.98 1038.97,530.98 1041.91,545.15 1044.86,559.30 1047.80,573.47 1050.74,587.04 1053.70,600.18 1056.64,613.33 1059.58,626.47 1062.53,637.57 1065.47,643.57 1068.42,649.56 1071.37,655.56 1074.31,661.55" fill="none" stroke="#000000" stroke-width="3"/>
<line x1="142" y1="100" x2="178" y2="100" stroke="#000000" stroke-width="4"/>
<text x="188" y="105" font-family="Arial" font-size="18" fill="black">U:2</text>
</svg>