<svg xmlns="http://www.w3.org/2000/svg" width="1200" height="820" viewBox="0 0 1200 820">
<rect width="100%" height="100%" fill="white"/>
<text x="600.0" y="36" text-anchor="middle" font-family="Arial" font-size="24" fill="black">profile_center_x: alphat</text>
<line x1="120.00" y1="75" x2="120.00" y2="705" stroke="#dddddd" stroke-width="1"/>
<text x="120.00" y="737" text-anchor="middle" font-family="Arial" font-size="16" fill="black">-0.560</text>
<line x1="376.25" y1="75" x2="376.25" y2="705" stroke="#dddddd" stroke-width="1"/>
<text x="376.25" y="737" text-anchor="middle" font-family="Arial" font-size="16" fill="black">1.470</text>
<line x1="632.50" y1="75" x2="632.50" y2="705" stroke="#dddddd" stroke-width="1"/>
<text x="632.50" y="737" text-anchor="middle" font-family="Arial" font-size="16" fill="black">3.500</text>
<line x1="888.75" y1="75" x2="888.75" y2="705" stroke="#dddddd" stroke-width="1"/>
<text x="888.75" y="737" text-anchor="middle" font-family="Arial" font-size="16" fill="black">5.530</text>
<line x1="1145.00" y1="75" x2="1145.00" y2="705" stroke="#dddddd" stroke-width="1"/>
<text x="1145.00" y="737" text-anchor="middle" font-family="Arial" font-size="16" fill="black">7.560</text>
<line x1="120" y1="705.00" x2="1145" y2="705.00" stroke="#dddddd" stroke-width="1"/>
<text x="104" y="710.00" text-anchor="end" font-family="Arial" font-size="16" fill="black">-0.001</text>
<line x1="120" y1="547.50" x2="1145" y2="547.50" stroke="#dddddd" stroke-width="1"/>
<text x="104" y="552.50" text-anchor="end" font-family="Arial" font-size="16" fill="black">0.005</text>
<line x1="120" y1="390.00" x2="1145" y2="390.00" stroke="#dddddd" stroke-width="1"/>
<text x="104" y="395.00" text-anchor="end" font-family="Arial" font-size="16" fill="black">0.012</text>
<line x1="120" y1="232.50" x2="1145" y2="232.50" stroke="#dddddd" stroke-width="1"/>
<text x="104" y="237.50" text-anchor="end" font-family="Arial" font-size="16" fill="black">0.019</text>
<line x1="120" y1="75.00" x2="1145" y2="75.00" stroke="#dddddd" stroke-width="1"/>
<text x="104" y="80.00" text-anchor="end" font-family="Arial" font-size="16" fill="black">0.026</text>
<rect x="120" y="75" width="1025" height="630" fill="none" stroke="black" stroke-width="2"/>
<text x="632.5" y="785" text-anchor="middle" font-family="Arial" font-size="20" fill="black">x coordinate [m]</text>
<text x="34" y="390.0" transform="rotate(-90 34 390.0)" text-anchor="middle" font-family="Arial" font-size="20" fill="black">alphat [SI]</text>
<polyline points="190.69,656.20 193.64,645.87 196.58,635.54 199.53,625.21 202.47,614.88 205.42,600.23 208.36,583.86 211.31,567.48 214.25,551.11 217.20,537.87 220.14,528.80 223.09,519.73 226.03,510.66 228.98,502.21 231.93,497.54 234.87,492.86 237.82,488.19 240.76,483.51 243.71,480.65 246.65,478.10 249.60,475.54 252.54,472.99 255.49,471.03 258.43,469.52 261.38,468.02 264.32,466.51 267.27,465.11 270.22,463.95 273.16,462.79 276.11,461.63 279.05,460.47 282.00,459.33 284.94,458.19 287.89,457.05 290.83,455.91 293.78,454.80 296.72,453.71 299.67,452.61 302.62,451.51 305.56,450.50 308.51,449.62 311.45,448.73 314.40,447.84 317.34,447.01 320.29,446.50 323.23,445.98 326.17,445.47 329.13,444.96 332.07,444.82 335.01,444.74 337.96,444.67 340.91,444.59 343.85,444.63 346.80,444.76 349.74,444.88 352.68,445.00 355.64,444.98 358.58,444.57 361.52,444.16 364.47,443.75 367.41,443.34 370.35,441.54 373.31,439.77 376.25,437.98 379.19,436.18 382.15,433.17 385.09,429.70 388.03,426.20 390.98,422.71 393.92,418.63 396.86,413.73 399.82,408.86 402.76,403.96 405.70,398.95 408.65,393.19 411.59,387.43 414.54,381.67 417.49,375.91 420.43,369.76 423.37,363.53 426.33,357.31 429.27,351.08 432.21,344.79 435.16,338.45 438.10,332.10 441.04,325.76 444.00,319.49 446.94,313.36 449.88,307.25 452.83,301.12 455.78,294.99 458.72,289.35 461.67,283.70 464.61,278.06 467.55,272.42 470.51,267.27 473.45,262.30 476.39,257.36 479.34,252.39 482.28,247.78 485.23,243.65 488.18,239.52 491.12,235.40 494.06,231.39 497.02,228.14 499.96,224.88 502.90,221.64 505.85,218.38 508.79,215.79 511.73,213.32 514.69,210.84 517.63,208.37 520.57,206.18 523.52,204.22 526.47,202.24 529.41,200.28 532.36,198.37 535.30,196.62 538.24,194.85 541.20,193.08 544.14,191.33 547.08,189.56 550.03,187.79 552.97,186.01 555.92,184.27 558.87,182.47 561.81,180.68 564.75,178.88 567.71,177.08 570.65,175.31 573.59,173.61 576.54,171.89 579.48,170.18 582.42,168.51 585.38,166.99 588.32,165.50 591.26,164.01 594.21,162.51 597.16,161.25 600.10,160.07 603.05,158.88 605.99,157.66 608.93,156.61 611.89,155.68 614.83,154.77 617.77,153.84 620.72,152.91 623.66,152.02 626.60,151.14 629.56,150.25 632.50,149.36 635.44,148.13 638.40,146.92 641.34,145.68 644.28,144.47 647.23,142.81 650.17,141.02 653.11,139.22 656.07,137.40 659.01,135.47 661.95,133.37 664.90,131.25 667.84,129.15 670.79,127.10 673.74,125.44 676.68,123.79 679.62,122.13 682.58,120.48 685.52,119.85 688.46,119.38 691.41,118.91 694.35,118.45 697.29,118.91 700.25,120.06 703.19,121.20 706.13,122.37 709.08,124.02 712.03,126.93 714.97,129.85 717.92,132.76 720.86,135.68 723.80,140.29 726.76,144.91 729.70,149.55 732.64,154.17 735.59,159.83 738.53,165.92 741.48,172.00 744.43,178.09 747.37,184.64 750.31,191.80 753.27,198.95 756.21,206.09 759.15,213.34 762.10,221.10 765.04,228.89 767.98,236.65 770.94,244.44 773.88,252.32 776.82,260.23 779.77,268.13 782.72,276.01 785.66,283.68 788.61,291.14 791.55,298.60 794.49,306.09 797.45,313.27 800.39,319.72 803.33,326.18 806.28,332.66 809.22,339.12 812.17,344.23 815.12,349.33 818.06,354.44 821.00,359.52 823.96,363.67 826.90,367.45 829.84,371.23 832.79,374.98 835.73,378.34 838.67,381.18 841.63,384.00 844.57,386.82 847.51,389.58 850.46,391.98 853.41,394.38 856.35,396.76 859.30,399.16 862.24,401.56 865.18,403.94 868.14,406.32 871.08,408.69 874.02,411.17 876.97,413.68 879.91,416.22 882.85,418.77 885.81,421.31 888.75,423.90 891.69,426.48 894.65,429.07 897.59,431.66 900.53,434.06 903.48,436.44 906.42,438.82 909.36,441.19 912.32,443.22 915.26,445.10 918.20,446.99 921.15,448.87 924.09,450.45 927.04,451.64 929.99,452.83 932.93,454.02 935.87,455.12 938.83,455.66 941.77,456.19 944.71,456.72 947.66,457.26 950.60,457.52 953.54,457.74 956.50,457.95 959.44,458.17 962.38,458.52 965.33,458.98 968.28,459.44 971.22,459.90 974.17,460.60 977.11,461.87 980.05,463.14 983.01,464.41 985.95,465.68 988.89,468.09 991.84,470.50 994.78,472.91 997.73,475.32 1000.68,478.60 1003.62,482.23 1006.56,485.85 1009.52,489.48 1012.46,493.67 1015.40,498.62 1018.35,503.57 1021.29,508.51 1024.23,513.71 1027.19,520.41 1030.13,527.11 1033.07,533.82 1036.02,540.52 1038.97,549.35 1041.91,558.54 1044.86,567.72 1047.80,576.91 1050.74,587.74 1053.70,599.82 1056.64,611.89 1059.58,623.96 1062.53,634.52 1065.47,641.28 1068.42,648.03 1071.37,654.79 1074.31,661.55" fill="none" stroke="#000000" stroke-width="3"/>
<line x1="142" y1="100" x2="178" y2="100" stroke="#000000" stroke-width="4"/>
<text x="188" y="105" font-family="Arial" font-size="18" fill="black">alphat</text>
</svg>