<svg xmlns="http://www.w3.org/2000/svg" width="1200" height="820" viewBox="0 0 1200 820">
<rect width="100%" height="100%" fill="white"/>
<text x="600.0" y="36" text-anchor="middle" font-family="Arial" font-size="24" fill="black">profile_center_y: p</text>
<line x1="120.00" y1="75" x2="120.00" y2="705" stroke="#dddddd" stroke-width="1"/>
<text x="120.00" y="737" text-anchor="middle" font-family="Arial" font-size="16" fill="black">-0.400</text>
<line x1="376.25" y1="75" x2="376.25" y2="705" stroke="#dddddd" stroke-width="1"/>
<text x="376.25" y="737" text-anchor="middle" font-family="Arial" font-size="16" fill="black">1.050</text>
<line x1="632.50" y1="75" x2="632.50" y2="705" stroke="#dddddd" stroke-width="1"/>
<text x="632.50" y="737" text-anchor="middle" font-family="Arial" font-size="16" fill="black">2.500</text>
<line x1="888.75" y1="75" x2="888.75" y2="705" stroke="#dddddd" stroke-width="1"/>
<text x="888.75" y="737" text-anchor="middle" font-family="Arial" font-size="16" fill="black">3.950</text>
<line x1="1145.00" y1="75" x2="1145.00" y2="705" stroke="#dddddd" stroke-width="1"/>
<text x="1145.00" y="737" text-anchor="middle" font-family="Arial" font-size="16" fill="black">5.400</text>
<line x1="120" y1="705.00" x2="1145" y2="705.00" stroke="#dddddd" stroke-width="1"/>
<text x="104" y="710.00" text-anchor="end" font-family="Arial" font-size="16" fill="black">-16.19</text>
<line x1="120" y1="547.50" x2="1145" y2="547.50" stroke="#dddddd" stroke-width="1"/>
<text x="104" y="552.50" text-anchor="end" font-family="Arial" font-size="16" fill="black">-16.17</text>
<line x1="120" y1="390.00" x2="1145" y2="390.00" stroke="#dddddd" stroke-width="1"/>
<text x="104" y="395.00" text-anchor="end" font-family="Arial" font-size="16" fill="black">-16.15</text>
<line x1="120" y1="232.50" x2="1145" y2="232.50" stroke="#dddddd" stroke-width="1"/>
<text x="104" y="237.50" text-anchor="end" font-family="Arial" font-size="16" fill="black">-16.13</text>
<line x1="120" y1="75.00" x2="1145" y2="75.00" stroke="#dddddd" stroke-width="1"/>
<text x="104" y="80.00" text-anchor="end" font-family="Arial" font-size="16" fill="black">-16.11</text>
<rect x="120" y="75" width="1025" height="630" fill="none" stroke="black" stroke-width="2"/>
<text x="632.5" y="785" text-anchor="middle" font-family="Arial" font-size="20" fill="black">y coordinate [m]</text>
<text x="34" y="390.0" transform="rotate(-90 34 390.0)" text-anchor="middle" font-family="Arial" font-size="20" fill="black">p [Pa]</text>
<polyline points="190.69,118.45 193.64,118.45 196.58,118.45 199.53,118.45 202.47,118.45 205.42,118.45 208.36,118.45 211.31,118.45 214.25,118.45 217.20,118.45 220.14,118.45 223.09,118.45 226.03,118.45 228.98,118.45 231.92,118.45 234.87,118.45 237.82,125.99 240.76,125.99 243.71,125.99 246.65,133.53 249.60,133.53 252.54,141.08 255.49,141.08 258.43,148.62 261.38,148.62 264.33,156.16 267.27,163.71 270.22,171.25 273.16,178.79 276.11,178.79 279.05,186.34 282.00,193.88 284.94,201.42 287.89,208.97 290.83,216.51 293.78,224.05 296.72,231.59 299.67,239.14 302.61,246.68 305.56,254.22 308.51,261.77 311.45,269.31 314.40,276.85 317.34,284.40 320.29,299.48 323.23,307.03 326.18,314.57 329.12,322.11 332.07,329.66 335.01,337.20 337.96,344.74 340.91,352.28 343.85,359.83 346.80,367.37 349.74,374.91 352.69,382.46 355.63,390.00 358.58,397.54 361.52,405.09 364.47,412.63 367.41,420.17 370.37,420.17 373.30,427.72 376.25,435.26 379.20,435.26 382.13,442.80 385.09,442.80 388.04,442.80 390.97,442.80 393.92,442.80 396.87,442.80 399.81,442.80 402.76,442.80 405.71,442.80 408.64,435.26 411.59,435.26 414.55,427.72 417.48,420.17 420.43,420.17 423.38,412.63 426.32,405.09 429.27,397.54 432.22,390.00 435.15,382.46 438.10,374.91 441.05,367.37 443.99,359.83 446.94,352.28 449.89,344.74 452.82,337.20 455.78,329.66 458.73,329.66 461.66,322.11 464.61,314.57 467.56,307.03 470.50,299.48 473.45,299.48 476.40,291.94 479.33,291.94 482.28,284.40 485.24,284.40 488.17,284.40 491.12,276.85 494.07,276.85 497.01,276.85 499.96,276.85 502.91,276.85 505.84,276.85 508.79,276.85 511.74,276.85 514.68,276.85 517.63,276.85 520.58,276.85 523.51,276.85 526.47,284.40 529.42,284.40 532.35,284.40 535.30,284.40 538.25,284.40 541.19,284.40 544.14,291.94 547.09,284.40 550.02,284.40 552.97,284.40 555.93,284.40 558.86,284.40 561.81,284.40 564.76,284.40 567.70,276.85 570.65,276.85 573.60,276.85 576.53,269.31 579.48,269.31 582.43,261.77 585.37,261.77 588.32,254.22 591.27,254.22 594.20,246.68 597.16,246.68 600.11,239.14 603.04,239.14 605.99,231.59 608.94,231.59 611.88,224.05 614.83,224.05 617.78,216.51 620.71,216.51 623.66,208.97 626.62,201.42 629.55,201.42 632.50,193.88 635.45,193.88 638.38,186.34 641.34,186.34 644.29,178.79 647.22,178.79 650.17,171.25 653.12,171.25 656.06,171.25 659.01,163.71 661.96,163.71 664.89,156.16 667.84,156.16 670.80,156.16 673.73,148.62 676.68,148.62 679.63,148.62 682.57,148.62 685.52,141.08 688.47,141.08 691.40,141.08 694.35,148.62 697.30,148.62 700.24,148.62 703.19,148.62 706.14,148.62 709.07,156.16 712.03,156.16 714.98,156.16 717.91,163.71 720.86,163.71 723.81,171.25 726.75,178.79 729.70,186.34 732.65,193.88 735.58,201.42 738.53,208.97 741.49,224.05 744.42,231.59 747.37,246.68 750.32,254.22 753.26,269.31 756.21,276.85 759.16,291.94 762.09,307.03 765.04,322.11 767.99,329.66 770.93,344.74 773.88,359.83 776.83,374.91 779.76,390.00 782.72,405.09 785.67,420.17 788.60,435.26 791.55,442.80 794.50,457.89 797.44,472.97 800.39,488.06 803.34,503.15 806.27,510.69 809.22,525.78 812.18,540.86 815.11,548.41 818.06,555.95 821.01,571.03 823.95,578.58 826.90,593.66 829.85,601.21 832.78,608.75 835.73,616.29 838.68,623.84 841.62,631.38 844.57,638.92 847.52,638.92 850.45,646.47 853.41,654.01 856.36,654.01 859.29,661.55 862.24,661.55 865.19,661.55 868.13,661.55 871.08,661.55 874.03,661.55 876.96,661.55 879.91,661.55 882.87,661.55 885.80,654.01 888.75,654.01 891.70,654.01 894.63,646.47 897.59,646.47 900.54,638.92 903.47,631.38 906.42,623.84 909.37,623.84 912.31,616.29 915.26,608.75 918.21,601.21 921.14,593.66 924.09,578.58 927.05,571.03 929.98,563.49 932.93,555.95 935.88,548.41 938.82,533.32 941.77,525.78 944.72,518.23 947.65,503.15 950.60,495.60 953.55,480.52 956.49,472.97 959.44,465.43 962.39,450.34 965.32,442.80 968.28,427.72 971.23,420.17 974.16,405.09 977.11,397.54 980.06,390.00 983.00,374.91 985.95,367.37 988.90,352.28 991.83,344.74 994.78,337.20 997.74,322.11 1000.67,314.57 1003.62,307.03 1006.57,291.94 1009.51,284.40 1012.46,276.85 1015.41,269.31 1018.34,261.77 1021.29,254.22 1024.24,246.68 1027.18,239.14 1030.13,231.59 1033.08,224.05 1036.01,216.51 1038.97,208.97 1041.92,201.42 1044.85,193.88 1047.80,186.34 1050.75,178.79 1053.69,178.79 1056.64,171.25 1059.59,163.71 1062.52,163.71 1065.47,163.71 1068.43,156.16 1071.36,156.16 1074.31,156.16" fill="none" stroke="#000000" stroke-width="3"/>
<line x1="142" y1="100" x2="178" y2="100" stroke="#000000" stroke-width="4"/>
<text x="188" y="105" font-family="Arial" font-size="18" fill="black">p</text>
</svg>