<svg xmlns="http://www.w3.org/2000/svg" width="1200" height="820" viewBox="0 0 1200 820">
<rect width="100%" height="100%" fill="white"/>
<text x="600.0" y="36" text-anchor="middle" font-family="Arial" font-size="24" fill="black">profile_near_ceiling_x: alphat</text>
<line x1="120.00" y1="75" x2="120.00" y2="705" stroke="#dddddd" stroke-width="1"/>
<text x="120.00" y="737" text-anchor="middle" font-family="Arial" font-size="16" fill="black">-0.560</text>
<line x1="376.25" y1="75" x2="376.25" y2="705" stroke="#dddddd" stroke-width="1"/>
<text x="376.25" y="737" text-anchor="middle" font-family="Arial" font-size="16" fill="black">1.470</text>
<line x1="632.50" y1="75" x2="632.50" y2="705" stroke="#dddddd" stroke-width="1"/>
<text x="632.50" y="737" text-anchor="middle" font-family="Arial" font-size="16" fill="black">3.500</text>
<line x1="888.75" y1="75" x2="888.75" y2="705" stroke="#dddddd" stroke-width="1"/>
<text x="888.75" y="737" text-anchor="middle" font-family="Arial" font-size="16" fill="black">5.530</text>
<line x1="1145.00" y1="75" x2="1145.00" y2="705" stroke="#dddddd" stroke-width="1"/>
<text x="1145.00" y="737" text-anchor="middle" font-family="Arial" font-size="16" fill="black">7.560</text>
<line x1="120" y1="705.00" x2="1145" y2="705.00" stroke="#dddddd" stroke-width="1"/>
<text x="104" y="710.00" text-anchor="end" font-family="Arial" font-size="16" fill="black">4.11e-05</text>
<line x1="120" y1="547.50" x2="1145" y2="547.50" stroke="#dddddd" stroke-width="1"/>
<text x="104" y="552.50" text-anchor="end" font-family="Arial" font-size="16" fill="black">0.002</text>
<line x1="120" y1="390.00" x2="1145" y2="390.00" stroke="#dddddd" stroke-width="1"/>
<text x="104" y="395.00" text-anchor="end" font-family="Arial" font-size="16" fill="black">0.004</text>
<line x1="120" y1="232.50" x2="1145" y2="232.50" stroke="#dddddd" stroke-width="1"/>
<text x="104" y="237.50" text-anchor="end" font-family="Arial" font-size="16" fill="black">0.007</text>
<line x1="120" y1="75.00" x2="1145" y2="75.00" stroke="#dddddd" stroke-width="1"/>
<text x="104" y="80.00" text-anchor="end" font-family="Arial" font-size="16" fill="black">0.009</text>
<rect x="120" y="75" width="1025" height="630" fill="none" stroke="black" stroke-width="2"/>
<text x="632.5" y="785" text-anchor="middle" font-family="Arial" font-size="20" fill="black">x coordinate [m]</text>
<text x="34" y="390.0" transform="rotate(-90 34 390.0)" text-anchor="middle" font-family="Arial" font-size="20" fill="black">alphat [SI]</text>
<polyline points="190.69,661.55 193.64,651.61 196.58,641.68 199.53,631.74 202.47,621.80 205.42,607.65 208.36,591.82 211.31,575.98 214.25,560.14 217.20,546.32 220.14,535.16 223.09,524.01 226.03,512.86 228.98,501.87 231.93,491.87 234.87,481.86 237.82,471.86 240.76,461.86 243.71,452.77 246.65,443.85 249.60,434.92 252.54,426.00 255.49,417.67 258.43,409.80 261.38,401.92 264.32,394.04 267.27,386.38 270.22,379.27 273.16,372.17 276.11,365.06 279.05,357.95 282.00,351.36 284.94,344.78 287.89,338.19 290.83,331.60 293.78,325.25 296.72,318.99 299.67,312.74 302.62,306.48 305.56,300.28 308.51,294.15 311.45,288.01 314.40,281.88 317.34,275.76 320.29,269.68 323.23,263.60 326.17,257.51 329.13,251.43 332.07,245.50 335.01,239.59 337.96,233.69 340.91,227.78 343.85,222.06 346.80,216.48 349.74,210.89 352.68,205.31 355.64,199.86 358.58,194.74 361.52,189.62 364.47,184.50 367.41,179.38 370.35,174.85 373.31,170.32 376.25,165.79 379.19,161.25 382.15,157.23 385.09,153.40 388.03,149.58 390.98,145.76 393.92,142.29 396.86,139.31 399.82,136.33 402.76,133.35 405.70,130.52 408.65,128.52 411.59,126.52 414.54,124.53 417.49,122.54 420.43,121.47 423.37,120.56 426.33,119.65 429.27,118.74 432.21,118.45 435.16,118.61 438.10,118.77 441.04,118.93 444.00,119.33 446.94,120.34 449.88,121.35 452.83,122.36 455.78,123.37 458.72,124.84 461.67,126.30 464.61,127.77 467.55,129.24 470.51,130.73 473.45,132.24 476.39,133.75 479.34,135.26 482.28,136.67 485.23,137.93 488.18,139.21 491.12,140.47 494.06,141.69 497.02,142.61 499.96,143.52 502.90,144.44 505.85,145.35 508.79,145.97 511.73,146.52 514.69,147.09 517.63,147.65 520.57,148.03 523.52,148.28 526.47,148.52 529.41,148.77 532.36,148.93 535.30,148.87 538.24,148.82 541.20,148.77 544.14,148.72 547.08,148.35 550.03,147.99 552.97,147.62 555.92,147.26 558.87,146.64 561.81,145.91 564.75,145.18 567.71,144.45 570.65,143.55 573.59,142.42 576.54,141.29 579.48,140.16 582.42,138.98 585.38,137.52 588.32,136.05 591.26,134.58 594.21,133.12 597.16,131.59 600.10,130.04 603.05,128.49 605.99,126.94 608.93,125.57 611.89,124.34 614.83,123.10 617.77,121.86 620.72,120.82 623.66,120.29 626.60,119.76 629.56,119.23 632.50,118.71 635.44,119.23 638.40,119.76 641.34,120.30 644.28,120.83 647.23,122.21 650.17,123.94 653.11,125.67 656.07,127.39 659.01,129.55 661.95,132.30 664.90,135.05 667.84,137.80 670.79,140.65 673.74,144.12 676.68,147.59 679.62,151.07 682.58,154.54 685.52,158.38 688.46,162.26 691.41,166.16 694.35,170.05 697.29,174.02 700.25,178.05 703.19,182.08 706.13,186.11 709.08,190.12 712.03,194.09 714.97,198.06 717.92,202.03 720.86,206.00 723.80,209.78 726.76,213.57 729.70,217.36 732.64,221.14 735.59,224.72 738.53,228.21 741.48,231.70 744.43,235.19 747.37,238.50 750.31,241.57 753.27,244.64 756.21,247.71 759.15,250.70 762.10,253.23 765.04,255.76 767.98,258.29 770.94,260.82 773.88,262.97 776.82,265.04 779.77,267.12 782.72,269.20 785.66,271.03 788.61,272.70 791.55,274.36 794.49,276.03 797.45,277.39 800.39,278.00 803.33,278.62 806.28,279.22 809.22,279.83 812.17,278.40 815.12,276.97 818.06,275.54 821.00,274.11 823.96,271.02 826.90,267.25 829.84,263.49 832.79,259.72 835.73,255.61 838.67,251.03 841.63,246.44 844.57,241.86 847.51,237.48 850.46,234.35 853.41,231.21 856.35,228.08 859.30,224.95 862.24,223.34 865.18,221.98 868.14,220.63 871.08,219.27 874.02,218.47 876.97,218.09 879.91,217.71 882.85,217.34 885.81,217.16 888.75,217.51 891.69,217.86 894.65,218.20 897.59,218.54 900.53,219.63 903.48,220.71 906.42,221.79 909.36,222.88 912.32,224.52 915.26,226.37 918.20,228.24 921.15,230.10 924.09,232.28 927.04,234.91 929.99,237.54 932.93,240.17 935.87,242.89 938.83,246.18 941.77,249.48 944.71,252.78 947.66,256.07 950.60,259.78 953.54,263.56 956.50,267.33 959.44,271.11 962.38,275.04 965.33,279.06 968.28,283.09 971.22,287.12 974.17,291.16 977.11,295.22 980.05,299.29 983.01,303.35 985.95,307.43 988.89,311.58 991.84,315.74 994.78,319.90 997.73,324.06 1000.68,328.73 1003.62,333.61 1006.56,338.49 1009.52,343.38 1012.46,348.95 1015.40,355.46 1018.35,361.97 1021.29,368.47 1024.23,375.34 1027.19,384.36 1030.13,393.39 1033.07,402.41 1036.02,411.43 1038.97,424.12 1041.91,437.41 1044.86,450.70 1047.80,464.00 1050.74,483.54 1053.70,507.78 1056.64,532.02 1059.58,556.25 1062.53,578.20 1065.47,594.39 1068.42,610.59 1071.37,626.79 1074.31,642.98" fill="none" stroke="#000000" stroke-width="3"/>
<line x1="142" y1="100" x2="178" y2="100" stroke="#000000" stroke-width="4"/>
<text x="188" y="105" font-family="Arial" font-size="18" fill="black">alphat</text>
</svg>