<svg xmlns="http://www.w3.org/2000/svg" width="1200" height="820" viewBox="0 0 1200 820">
<rect width="100%" height="100%" fill="white"/>
<text x="600.0" y="36" text-anchor="middle" font-family="Arial" font-size="24" fill="black">profile_diagonal_supply_return: p_rgh</text>
<line x1="120.00" y1="75" x2="120.00" y2="705" stroke="#dddddd" stroke-width="1"/>
<text x="120.00" y="737" text-anchor="middle" font-family="Arial" font-size="16" fill="black">-0.729</text>
<line x1="376.25" y1="75" x2="376.25" y2="705" stroke="#dddddd" stroke-width="1"/>
<text x="376.25" y="737" text-anchor="middle" font-family="Arial" font-size="16" fill="black">1.913</text>
<line x1="632.50" y1="75" x2="632.50" y2="705" stroke="#dddddd" stroke-width="1"/>
<text x="632.50" y="737" text-anchor="middle" font-family="Arial" font-size="16" fill="black">4.555</text>
<line x1="888.75" y1="75" x2="888.75" y2="705" stroke="#dddddd" stroke-width="1"/>
<text x="888.75" y="737" text-anchor="middle" font-family="Arial" font-size="16" fill="black">7.197</text>
<line x1="1145.00" y1="75" x2="1145.00" y2="705" stroke="#dddddd" stroke-width="1"/>
<text x="1145.00" y="737" text-anchor="middle" font-family="Arial" font-size="16" fill="black">9.839</text>
<line x1="120" y1="705.00" x2="1145" y2="705.00" stroke="#dddddd" stroke-width="1"/>
<text x="104" y="710.00" text-anchor="end" font-family="Arial" font-size="16" fill="black">-0.085</text>
<line x1="120" y1="547.50" x2="1145" y2="547.50" stroke="#dddddd" stroke-width="1"/>
<text x="104" y="552.50" text-anchor="end" font-family="Arial" font-size="16" fill="black">0.070</text>
<line x1="120" y1="390.00" x2="1145" y2="390.00" stroke="#dddddd" stroke-width="1"/>
<text x="104" y="395.00" text-anchor="end" font-family="Arial" font-size="16" fill="black">0.226</text>
<line x1="120" y1="232.50" x2="1145" y2="232.50" stroke="#dddddd" stroke-width="1"/>
<text x="104" y="237.50" text-anchor="end" font-family="Arial" font-size="16" fill="black">0.381</text>
<line x1="120" y1="75.00" x2="1145" y2="75.00" stroke="#dddddd" stroke-width="1"/>
<text x="104" y="80.00" text-anchor="end" font-family="Arial" font-size="16" fill="black">0.536</text>
<rect x="120" y="75" width="1025" height="630" fill="none" stroke="black" stroke-width="2"/>
<text x="632.5" y="785" text-anchor="middle" font-family="Arial" font-size="20" fill="black">distance along sample line [m]</text>
<text x="34" y="390.0" transform="rotate(-90 34 390.0)" text-anchor="middle" font-family="Arial" font-size="20" fill="black">p_rgh [Pa]</text>
<polyline points="190.69,118.45 193.64,118.92 196.58,119.40 199.53,119.87 202.47,120.33 205.42,120.81 208.36,121.33 211.31,122.13 214.25,122.96 217.20,123.79 220.14,124.66 223.09,125.99 226.03,127.44 228.98,129.10 231.93,130.89 234.87,132.80 237.82,134.83 240.76,136.98 243.71,139.25 246.65,141.77 249.60,144.40 252.54,147.53 255.49,150.75 258.43,154.05 261.38,157.45 264.32,160.88 267.27,164.37 270.22,167.87 273.16,171.42 276.11,175.02 279.05,178.67 282.00,182.40 284.94,186.14 287.88,189.91 290.83,193.71 293.78,197.50 296.73,201.29 299.67,204.89 302.62,208.50 305.57,212.09 308.50,215.67 311.45,219.40 314.40,223.15 317.34,226.69 320.29,230.26 323.24,233.86 326.18,237.49 329.12,241.16 332.07,244.93 335.01,248.67 337.96,252.50 340.91,256.49 343.85,260.61 346.80,264.86 349.74,269.23 352.68,274.44 355.63,279.80 358.58,285.32 361.53,291.01 364.47,296.88 367.42,302.92 370.36,309.17 373.30,315.64 376.25,322.32 379.20,329.23 382.14,336.10 385.09,343.08 388.04,348.94 390.97,354.99 393.92,360.85 396.87,366.31 399.81,372.06 402.76,377.93 405.71,382.45 408.65,384.81 411.59,387.18 414.54,389.55 417.48,391.90 420.43,393.14 423.38,393.30 426.32,393.41 429.27,393.51 432.21,394.13 435.16,395.16 438.10,396.14 441.05,396.38 444.00,396.74 446.94,397.44 449.89,398.16 452.84,398.90 455.77,399.64 458.72,399.90 461.67,400.20 464.61,400.54 467.56,400.90 470.51,401.49 473.45,402.19 476.39,402.28 479.34,402.43 482.28,402.75 485.23,403.30 488.18,403.77 491.12,404.31 494.07,404.27 497.01,404.59 499.96,405.01 502.90,405.51 505.85,406.08 508.80,407.23 511.74,407.88 514.69,408.63 517.63,409.36 520.57,410.67 523.52,412.47 526.47,414.37 529.41,415.75 532.36,417.60 535.31,420.44 538.24,423.33 541.19,426.29 544.14,429.29 547.08,433.27 550.03,437.07 552.98,440.68 555.92,444.13 558.86,448.79 561.81,453.43 564.76,457.34 567.70,460.78 570.65,464.38 573.60,468.00 576.54,470.35 579.49,471.71 582.43,473.31 585.37,474.19 588.32,474.46 591.27,474.11 594.21,473.10 597.16,470.59 600.11,469.10 603.04,467.32 605.99,465.00 608.94,461.77 611.88,457.85 614.83,453.76 617.78,451.04 620.72,448.00 623.66,444.31 626.61,440.60 629.55,436.87 632.50,433.10 635.45,430.02 638.40,427.00 641.34,424.03 644.28,421.09 647.23,417.89 650.17,414.60 653.12,412.76 656.07,410.91 659.01,408.92 661.96,406.72 664.90,404.43 667.84,402.06 670.79,401.13 673.74,399.91 676.68,398.38 679.63,396.54 682.58,394.37 685.51,392.36 688.46,391.34 691.41,389.70 694.35,387.57 697.30,385.83 700.25,384.44 703.20,382.64 706.14,380.98 709.08,379.44 712.03,379.36 714.97,378.96 717.92,378.26 720.87,377.27 723.81,379.06 726.76,380.70 729.70,382.18 732.64,383.52 735.59,386.26 738.54,389.53 741.48,392.75 744.43,395.88 747.38,399.59 750.31,404.12 753.26,408.81 756.21,413.44 759.15,417.82 762.10,422.98 765.05,428.03 767.99,432.98 770.93,437.85 773.88,443.33 776.83,448.09 779.77,452.72 782.72,457.22 785.67,462.03 788.61,467.09 791.55,472.04 794.50,475.87 797.44,479.89 800.39,484.68 803.34,489.42 806.28,494.13 809.23,498.80 812.17,504.61 815.11,510.44 818.06,516.30 821.01,522.21 823.95,530.62 826.90,540.10 829.85,549.39 832.79,558.72 835.73,570.09 838.68,583.98 841.63,596.79 844.57,609.13 847.52,620.40 850.47,629.74 853.41,638.41 856.35,646.40 859.30,653.71 862.24,655.90 865.19,655.68 868.14,655.11 871.08,654.53 874.03,651.49 876.97,646.77 879.91,642.08 882.86,636.14 885.81,629.72 888.75,621.91 891.70,614.67 894.65,608.04 897.58,601.99 900.53,596.30 903.48,591.42 906.43,587.35 909.37,584.06 912.32,581.22 915.27,579.08 918.20,578.99 921.15,579.50 924.10,580.64 927.04,582.40 929.99,584.12 932.94,586.22 935.88,589.38 938.82,592.98 941.77,596.69 944.71,600.49 947.66,604.38 950.61,608.58 953.55,613.18 956.50,617.71 959.44,621.35 962.38,624.96 965.33,628.48 968.28,631.82 971.22,635.08 974.17,638.18 977.12,641.20 980.06,644.01 983.00,646.65 985.95,649.13 988.90,651.16 991.84,652.94 994.79,654.49 997.74,655.82 1000.68,657.09 1003.62,658.24 1006.57,659.22 1009.51,660.12 1012.46,660.90 1015.41,661.55 1018.35,661.23 1021.30,660.84 1024.24,660.16 1027.18,659.31 1030.13,658.43 1033.08,657.55 1036.02,656.69 1038.97,655.78 1041.92,654.72 1044.86,653.65 1047.80,652.20 1050.75,650.72 1053.70,649.14 1056.64,647.45 1059.59,646.79 1062.54,646.08 1065.47,645.25 1068.42,644.43 1071.37,643.63 1074.31,642.86" fill="none" stroke="#000000" stroke-width="3"/>
<line x1="142" y1="100" x2="178" y2="100" stroke="#000000" stroke-width="4"/>
<text x="188" y="105" font-family="Arial" font-size="18" fill="black">p_rgh</text>
</svg>