<svg xmlns="http://www.w3.org/2000/svg" width="1200" height="820" viewBox="0 0 1200 820">
<rect width="100%" height="100%" fill="white"/>
<text x="600.0" y="36" text-anchor="middle" font-family="Arial" font-size="24" fill="black">Umag profile along y-centerline</text>
<line x1="115.00" y1="75" x2="115.00" y2="705" stroke="#dddddd" stroke-width="1"/>
<text x="115.00" y="737" text-anchor="middle" font-family="Arial" font-size="16" fill="black">-0.400</text>
<line x1="372.50" y1="75" x2="372.50" y2="705" stroke="#dddddd" stroke-width="1"/>
<text x="372.50" y="737" text-anchor="middle" font-family="Arial" font-size="16" fill="black">1.050</text>
<line x1="630.00" y1="75" x2="630.00" y2="705" stroke="#dddddd" stroke-width="1"/>
<text x="630.00" y="737" text-anchor="middle" font-family="Arial" font-size="16" fill="black">2.500</text>
<line x1="887.50" y1="75" x2="887.50" y2="705" stroke="#dddddd" stroke-width="1"/>
<text x="887.50" y="737" text-anchor="middle" font-family="Arial" font-size="16" fill="black">3.950</text>
<line x1="1145.00" y1="75" x2="1145.00" y2="705" stroke="#dddddd" stroke-width="1"/>
<text x="1145.00" y="737" text-anchor="middle" font-family="Arial" font-size="16" fill="black">5.400</text>
<line x1="115" y1="705.00" x2="1145" y2="705.00" stroke="#dddddd" stroke-width="1"/>
<text x="99" y="710.00" text-anchor="end" font-family="Arial" font-size="16" fill="black">0.105</text>
<line x1="115" y1="547.50" x2="1145" y2="547.50" stroke="#dddddd" stroke-width="1"/>
<text x="99" y="552.50" text-anchor="end" font-family="Arial" font-size="16" fill="black">0.286</text>
<line x1="115" y1="390.00" x2="1145" y2="390.00" stroke="#dddddd" stroke-width="1"/>
<text x="99" y="395.00" text-anchor="end" font-family="Arial" font-size="16" fill="black">0.468</text>
<line x1="115" y1="232.50" x2="1145" y2="232.50" stroke="#dddddd" stroke-width="1"/>
<text x="99" y="237.50" text-anchor="end" font-family="Arial" font-size="16" fill="black">0.649</text>
<line x1="115" y1="75.00" x2="1145" y2="75.00" stroke="#dddddd" stroke-width="1"/>
<text x="99" y="80.00" text-anchor="end" font-family="Arial" font-size="16" fill="black">0.830</text>
<rect x="115" y="75" width="1030" height="630" fill="none" stroke="black" stroke-width="2"/>
<text x="630.0" y="785" text-anchor="middle" font-family="Arial" font-size="20" fill="black">y coordinate [m]</text>
<text x="34" y="390.0" transform="rotate(-90 34 390.0)" text-anchor="middle" font-family="Arial" font-size="20" fill="black">Umag [m/s]</text>
<polyline points="186.03,565.38 188.99,564.17 191.95,562.95 194.91,561.74 197.87,560.52 200.83,559.31 203.79,558.09 206.75,555.09 209.71,552.08 212.67,549.09 215.63,546.08 218.59,543.08 221.55,540.09 224.51,536.73 227.47,533.38 230.43,530.03 233.39,526.68 236.35,523.33 239.31,519.97 242.27,516.11 245.23,512.24 248.19,508.38 251.15,504.52 254.11,500.65 257.07,496.78 260.03,491.89 262.99,487.01 265.95,482.11 268.91,477.22 271.87,472.33 274.83,467.44 277.79,460.58 280.75,453.72 283.71,446.85 286.67,439.99 289.63,433.14 292.59,426.27 295.55,416.42 298.51,406.57 301.47,396.72 304.43,386.86 307.38,377.01 310.34,367.16 313.31,354.24 316.26,341.33 319.22,328.42 322.18,315.52 325.14,302.60 328.10,289.69 331.06,275.58 334.02,261.48 336.98,247.37 339.94,233.27 342.90,219.17 345.86,205.06 348.82,193.55 351.78,182.03 354.74,170.52 357.70,159.02 360.66,147.51 363.62,135.99 366.59,133.07 369.53,130.14 372.50,127.22 375.47,124.30 378.41,121.37 381.38,118.45 384.35,125.79 387.29,133.13 390.26,140.47 393.22,147.82 396.17,155.15 399.14,162.50 402.10,175.50 405.05,188.49 408.02,201.49 410.98,214.48 413.93,227.47 416.90,240.47 419.86,254.78 422.81,269.09 425.78,283.39 428.74,297.70 431.69,312.02 434.66,326.32 437.62,339.04 440.57,351.76 443.53,364.49 446.50,377.21 449.45,389.93 452.41,402.65 455.38,412.25 458.33,421.84 461.29,431.43 464.26,441.04 467.21,450.63 470.17,460.22 473.14,466.59 476.09,472.98 479.05,479.35 482.02,485.73 484.97,492.10 487.93,498.47 490.90,502.67 493.84,506.85 496.81,511.05 499.78,515.23 502.72,519.41 505.69,523.61 508.66,526.79 511.60,529.99 514.57,533.17 517.53,536.37 520.48,539.56 523.45,542.74 526.41,545.85 529.36,548.96 532.33,552.06 535.29,555.17 538.24,558.27 541.21,561.37 544.17,565.29 547.12,569.20 550.09,573.13 553.05,577.04 556.00,580.96 558.97,584.88 561.93,589.35 564.88,593.82 567.84,598.29 570.81,602.76 573.76,607.23 576.72,611.69 579.69,614.23 582.64,616.76 585.60,619.30 588.57,621.83 591.52,624.37 594.48,626.90 597.45,626.48 600.40,626.04 603.36,625.62 606.33,625.19 609.28,624.76 612.24,624.33 615.21,623.13 618.15,621.93 621.12,620.72 624.09,619.51 627.03,618.32 630.00,617.11 632.97,615.84 635.91,614.57 638.88,613.31 641.84,612.04 644.79,610.77 647.76,609.50 650.72,608.08 653.67,606.65 656.64,605.22 659.60,603.80 662.55,602.38 665.52,600.95 668.48,600.55 671.43,600.16 674.40,599.76 677.36,599.36 680.31,598.97 683.28,598.57 686.24,599.44 689.19,600.31 692.16,601.18 695.12,602.05 698.07,602.92 701.03,603.78 704.00,604.42 706.95,605.05 709.91,605.68 712.88,606.31 715.83,606.94 718.79,607.58 721.76,608.36 724.71,609.14 727.67,609.92 730.64,610.70 733.59,611.48 736.55,612.27 739.52,614.42 742.47,616.57 745.43,618.72 748.40,620.88 751.34,623.03 754.31,625.18 757.28,628.92 760.22,632.65 763.19,636.38 766.16,640.12 769.10,643.85 772.07,647.57 775.03,649.91 777.98,652.24 780.95,654.56 783.91,656.90 786.86,659.23 789.83,661.55 792.79,654.42 795.74,647.30 798.71,640.16 801.67,633.03 804.62,625.90 807.59,618.77 810.55,602.72 813.50,586.67 816.47,570.63 819.43,554.58 822.38,538.53 825.34,522.49 828.31,507.29 831.26,492.10 834.22,476.91 837.19,461.72 840.14,446.52 843.10,431.33 846.07,423.56 849.02,415.79 851.98,408.02 854.95,400.24 857.90,392.47 860.86,384.70 863.83,386.43 866.78,388.15 869.74,389.87 872.71,391.60 875.66,393.32 878.62,395.05 881.59,404.32 884.53,413.59 887.50,422.86 890.47,432.14 893.41,441.41 896.38,450.68 899.34,459.90 902.29,469.12 905.26,478.33 908.22,487.55 911.17,496.77 914.14,505.98 917.10,508.61 920.05,511.23 923.02,513.86 925.98,516.48 928.93,519.10 931.90,521.72 934.86,518.67 937.81,515.61 940.78,512.56 943.74,509.49 946.69,506.44 949.66,503.38 952.62,498.23 955.57,493.08 958.53,487.93 961.50,482.79 964.45,477.65 967.41,472.50 970.38,467.44 973.33,462.38 976.29,457.33 979.26,452.28 982.21,447.22 985.17,442.16 988.14,437.69 991.09,433.21 994.05,428.74 997.02,424.26 999.97,419.79 1002.93,415.32 1005.90,411.14 1008.84,406.95 1011.81,402.78 1014.78,398.59 1017.72,394.41 1020.69,390.22 1023.66,385.89 1026.60,381.56 1029.57,377.22 1032.53,372.88 1035.48,368.55 1038.45,364.21 1041.41,360.04 1044.36,355.87 1047.33,351.70 1050.29,347.52 1053.24,343.36 1056.21,339.18 1059.17,337.24 1062.12,335.28 1065.09,333.33 1068.05,331.38 1071.00,329.43 1073.97,327.48" fill="none" stroke="#111111" stroke-width="3"/>
<line x1="137" y1="100" x2="173" y2="100" stroke="#111111" stroke-width="4"/>
<text x="183" y="105" font-family="Arial" font-size="18" fill="black">Umag</text>
</svg>