<svg xmlns="http://www.w3.org/2000/svg" width="1200" height="820" viewBox="0 0 1200 820">
<rect width="100%" height="100%" fill="white"/>
<text x="600.0" y="36" text-anchor="middle" font-family="Arial" font-size="24" fill="black">Umag profile along z-centerline</text>
<line x1="115.00" y1="75" x2="115.00" y2="705" stroke="#dddddd" stroke-width="1"/>
<text x="115.00" y="737" text-anchor="middle" font-family="Arial" font-size="16" fill="black">-0.240</text>
<line x1="372.50" y1="75" x2="372.50" y2="705" stroke="#dddddd" stroke-width="1"/>
<text x="372.50" y="737" text-anchor="middle" font-family="Arial" font-size="16" fill="black">0.630</text>
<line x1="630.00" y1="75" x2="630.00" y2="705" stroke="#dddddd" stroke-width="1"/>
<text x="630.00" y="737" text-anchor="middle" font-family="Arial" font-size="16" fill="black">1.500</text>
<line x1="887.50" y1="75" x2="887.50" y2="705" stroke="#dddddd" stroke-width="1"/>
<text x="887.50" y="737" text-anchor="middle" font-family="Arial" font-size="16" fill="black">2.370</text>
<line x1="1145.00" y1="75" x2="1145.00" y2="705" stroke="#dddddd" stroke-width="1"/>
<text x="1145.00" y="737" text-anchor="middle" font-family="Arial" font-size="16" fill="black">3.240</text>
<line x1="115" y1="705.00" x2="1145" y2="705.00" stroke="#dddddd" stroke-width="1"/>
<text x="99" y="710.00" text-anchor="end" font-family="Arial" font-size="16" fill="black">0.043</text>
<line x1="115" y1="547.50" x2="1145" y2="547.50" stroke="#dddddd" stroke-width="1"/>
<text x="99" y="552.50" text-anchor="end" font-family="Arial" font-size="16" fill="black">0.298</text>
<line x1="115" y1="390.00" x2="1145" y2="390.00" stroke="#dddddd" stroke-width="1"/>
<text x="99" y="395.00" text-anchor="end" font-family="Arial" font-size="16" fill="black">0.554</text>
<line x1="115" y1="232.50" x2="1145" y2="232.50" stroke="#dddddd" stroke-width="1"/>
<text x="99" y="237.50" text-anchor="end" font-family="Arial" font-size="16" fill="black">0.809</text>
<line x1="115" y1="75.00" x2="1145" y2="75.00" stroke="#dddddd" stroke-width="1"/>
<text x="99" y="80.00" text-anchor="end" font-family="Arial" font-size="16" fill="black">1.065</text>
<rect x="115" y="75" width="1030" height="630" fill="none" stroke="black" stroke-width="2"/>
<text x="630.0" y="785" text-anchor="middle" font-family="Arial" font-size="20" fill="black">z coordinate [m]</text>
<text x="34" y="390.0" transform="rotate(-90 34 390.0)" text-anchor="middle" font-family="Arial" font-size="20" fill="black">Umag [m/s]</text>
<polyline points="186.03,118.45 188.99,118.99 191.95,119.53 194.91,120.08 197.87,120.62 200.83,121.16 203.79,121.70 206.75,122.24 209.71,122.79 212.67,123.33 215.63,123.87 218.59,125.23 221.55,126.60 224.51,127.96 227.47,129.32 230.43,130.68 233.39,132.04 236.35,133.40 239.31,134.77 242.27,136.13 245.23,137.50 248.19,139.25 251.15,141.02 254.11,142.77 257.07,144.53 260.03,146.29 262.99,148.05 265.95,149.81 268.91,151.57 271.87,153.33 274.83,155.09 277.79,157.03 280.75,158.98 283.71,160.92 286.67,162.87 289.63,164.81 292.59,166.76 295.55,168.70 298.51,170.64 301.47,172.59 304.43,174.53 307.39,176.61 310.34,178.70 313.30,180.78 316.26,182.86 319.22,184.95 322.18,187.03 325.14,189.11 328.10,191.20 331.06,193.29 334.02,195.37 336.98,197.63 339.94,199.89 342.90,202.15 345.86,204.41 348.82,206.67 351.78,208.93 354.74,211.19 357.70,213.45 360.66,215.71 363.62,217.97 366.58,220.49 369.54,223.00 372.50,225.51 375.46,228.03 378.42,230.54 381.38,233.06 384.34,235.57 387.30,238.09 390.26,240.60 393.22,243.11 396.18,246.00 399.14,248.88 402.10,251.76 405.06,254.64 408.02,257.52 410.98,260.41 413.94,263.29 416.90,266.17 419.86,269.05 422.82,271.94 425.78,275.30 428.74,278.65 431.70,282.02 434.66,285.38 437.61,288.74 440.57,292.09 443.53,295.46 446.49,298.82 449.45,302.18 452.41,305.54 455.37,309.45 458.33,313.35 461.29,317.26 464.25,321.17 467.21,325.08 470.17,328.99 473.13,332.90 476.09,336.81 479.05,340.72 482.01,344.62 484.97,349.09 487.93,353.56 490.89,358.03 493.85,362.49 496.81,366.97 499.77,371.44 502.73,375.90 505.69,380.37 508.65,384.84 511.61,389.31 514.57,394.28 517.53,399.25 520.49,404.21 523.45,409.19 526.41,414.15 529.37,419.12 532.33,424.09 535.29,429.06 538.25,434.03 541.21,439.00 544.17,444.34 547.13,449.69 550.09,455.03 553.05,460.37 556.01,465.72 558.97,471.06 561.93,476.40 564.89,481.74 567.84,487.09 570.80,492.43 573.76,497.99 576.72,503.56 579.68,509.12 582.64,514.69 585.60,520.25 588.56,525.81 591.52,531.38 594.48,536.94 597.44,542.51 600.40,548.07 603.36,553.70 606.32,559.33 609.28,564.96 612.24,570.59 615.20,576.22 618.16,581.85 621.12,587.48 624.08,593.11 627.04,598.74 630.00,604.37 632.96,609.04 635.92,613.70 638.88,618.37 641.84,623.03 644.80,627.69 647.76,632.35 650.72,637.02 653.68,641.68 656.64,646.35 659.60,651.01 662.56,652.07 665.52,653.12 668.48,654.18 671.44,655.23 674.40,656.28 677.36,657.34 680.32,658.39 683.28,659.44 686.24,660.50 689.20,661.55 692.16,659.86 695.11,658.17 698.07,656.49 701.03,654.80 703.99,653.12 706.95,651.43 709.91,649.74 712.87,648.06 715.83,646.37 718.79,644.68 721.75,643.08 724.71,641.49 727.67,639.89 730.63,638.29 733.59,636.70 736.55,635.10 739.51,633.50 742.47,631.90 745.43,630.31 748.39,628.71 751.35,627.12 754.31,625.52 757.27,623.92 760.23,622.33 763.19,620.74 766.15,619.14 769.11,617.55 772.07,615.95 775.03,614.35 777.99,612.76 780.95,610.77 783.91,608.79 786.87,606.81 789.83,604.83 792.79,602.85 795.75,600.86 798.71,598.89 801.67,596.90 804.63,594.92 807.59,592.94 810.55,590.64 813.51,588.34 816.47,586.04 819.43,583.74 822.39,581.45 825.34,579.15 828.30,576.85 831.26,574.56 834.22,572.26 837.18,569.96 840.14,567.61 843.10,565.27 846.06,562.92 849.02,560.58 851.98,558.23 854.94,555.89 857.90,553.55 860.86,551.20 863.82,548.86 866.78,546.51 869.74,544.54 872.70,542.56 875.66,540.58 878.62,538.61 881.58,536.63 884.54,534.65 887.50,532.68 890.46,530.70 893.42,528.73 896.38,526.75 899.34,525.74 902.30,524.73 905.26,523.72 908.22,522.71 911.18,521.70 914.14,520.69 917.10,519.68 920.06,518.67 923.02,517.66 925.98,516.65 928.94,517.33 931.90,518.00 934.86,518.67 937.82,519.34 940.78,520.01 943.74,520.69 946.70,521.36 949.66,522.03 952.61,522.71 955.57,523.38 958.53,526.16 961.49,528.94 964.45,531.72 967.41,534.50 970.37,537.28 973.33,540.06 976.29,542.84 979.25,545.62 982.21,548.40 985.17,551.18 988.13,553.80 991.09,556.41 994.05,559.03 997.01,561.65 999.97,564.27 1002.93,566.88 1005.89,569.50 1008.85,572.12 1011.81,574.74 1014.77,577.35 1017.73,573.91 1020.69,570.46 1023.65,567.03 1026.61,563.58 1029.57,560.14 1032.53,556.69 1035.49,553.25 1038.45,549.81 1041.41,546.36 1044.37,542.92 1047.33,538.41 1050.29,533.90 1053.25,529.39 1056.21,524.87 1059.17,520.36 1062.13,515.85 1065.09,511.34 1068.05,506.82 1071.01,502.31 1073.97,497.80" fill="none" stroke="#111111" stroke-width="3"/>
<line x1="137" y1="100" x2="173" y2="100" stroke="#111111" stroke-width="4"/>
<text x="183" y="105" font-family="Arial" font-size="18" fill="black">Umag</text>
</svg>