<svg xmlns="http://www.w3.org/2000/svg" width="1200" height="820" viewBox="0 0 1200 820">
<rect width="100%" height="100%" fill="white"/>
<text x="600.0" y="36" text-anchor="middle" font-family="Arial" font-size="24" fill="black">Velocity components along z-centerline</text>
<line x1="115.00" y1="75" x2="115.00" y2="705" stroke="#dddddd" stroke-width="1"/>
<text x="115.00" y="737" text-anchor="middle" font-family="Arial" font-size="16" fill="black">-0.240</text>
<line x1="372.50" y1="75" x2="372.50" y2="705" stroke="#dddddd" stroke-width="1"/>
<text x="372.50" y="737" text-anchor="middle" font-family="Arial" font-size="16" fill="black">0.630</text>
<line x1="630.00" y1="75" x2="630.00" y2="705" stroke="#dddddd" stroke-width="1"/>
<text x="630.00" y="737" text-anchor="middle" font-family="Arial" font-size="16" fill="black">1.500</text>
<line x1="887.50" y1="75" x2="887.50" y2="705" stroke="#dddddd" stroke-width="1"/>
<text x="887.50" y="737" text-anchor="middle" font-family="Arial" font-size="16" fill="black">2.370</text>
<line x1="1145.00" y1="75" x2="1145.00" y2="705" stroke="#dddddd" stroke-width="1"/>
<text x="1145.00" y="737" text-anchor="middle" font-family="Arial" font-size="16" fill="black">3.240</text>
<line x1="115" y1="705.00" x2="1145" y2="705.00" stroke="#dddddd" stroke-width="1"/>
<text x="99" y="710.00" text-anchor="end" font-family="Arial" font-size="16" fill="black">-0.411</text>
<line x1="115" y1="547.50" x2="1145" y2="547.50" stroke="#dddddd" stroke-width="1"/>
<text x="99" y="552.50" text-anchor="end" font-family="Arial" font-size="16" fill="black">-0.033</text>
<line x1="115" y1="390.00" x2="1145" y2="390.00" stroke="#dddddd" stroke-width="1"/>
<text x="99" y="395.00" text-anchor="end" font-family="Arial" font-size="16" fill="black">0.344</text>
<line x1="115" y1="232.50" x2="1145" y2="232.50" stroke="#dddddd" stroke-width="1"/>
<text x="99" y="237.50" text-anchor="end" font-family="Arial" font-size="16" fill="black">0.721</text>
<line x1="115" y1="75.00" x2="1145" y2="75.00" stroke="#dddddd" stroke-width="1"/>
<text x="99" y="80.00" text-anchor="end" font-family="Arial" font-size="16" fill="black">1.099</text>
<rect x="115" y="75" width="1030" height="630" fill="none" stroke="black" stroke-width="2"/>
<text x="630.0" y="785" text-anchor="middle" font-family="Arial" font-size="20" fill="black">z coordinate [m]</text>
<text x="34" y="390.0" transform="rotate(-90 34 390.0)" text-anchor="middle" font-family="Arial" font-size="20" fill="black">velocity [m/s]</text>
<polyline points="186.03,535.34 188.99,535.44 191.95,535.55 194.91,535.65 197.87,535.75 200.83,535.86 203.79,535.96 206.75,536.06 209.71,536.17 212.67,536.27 215.63,536.37 218.59,536.59 221.55,536.81 224.51,537.04 227.47,537.26 230.43,537.48 233.39,537.70 236.35,537.92 239.31,538.14 242.27,538.36 245.23,538.58 248.19,538.82 251.15,539.05 254.11,539.28 257.07,539.52 260.03,539.75 262.99,539.98 265.95,540.22 268.91,540.45 271.87,540.68 274.83,540.92 277.79,541.13 280.75,541.33 283.71,541.54 286.67,541.75 289.63,541.96 292.59,542.17 295.55,542.38 298.51,542.59 301.47,542.80 304.43,543.01 307.39,543.15 310.34,543.30 313.30,543.44 316.26,543.59 319.22,543.73 322.18,543.88 325.14,544.02 328.10,544.17 331.06,544.31 334.02,544.46 336.98,544.49 339.94,544.52 342.90,544.55 345.86,544.58 348.82,544.61 351.78,544.65 354.74,544.68 357.70,544.71 360.66,544.74 363.62,544.77 366.58,544.64 369.54,544.50 372.50,544.37 375.46,544.24 378.42,544.11 381.38,543.97 384.34,543.84 387.30,543.71 390.26,543.57 393.22,543.44 396.18,543.12 399.14,542.80 402.10,542.47 405.06,542.15 408.02,541.83 410.98,541.51 413.94,541.19 416.90,540.86 419.86,540.54 422.82,540.22 425.78,539.73 428.74,539.23 431.70,538.74 434.66,538.25 437.61,537.76 440.57,537.26 443.53,536.77 446.49,536.28 449.45,535.78 452.41,535.29 455.37,534.68 458.33,534.06 461.29,533.44 464.25,532.83 467.21,532.21 470.17,531.60 473.13,530.98 476.09,530.36 479.05,529.75 482.01,529.13 484.97,528.46 487.93,527.79 490.89,527.11 493.85,526.44 496.81,525.77 499.77,525.09 502.73,524.42 505.69,523.75 508.65,523.07 511.61,522.40 514.57,521.76 517.53,521.11 520.49,520.47 523.45,519.83 526.41,519.18 529.37,518.54 532.33,517.89 535.29,517.25 538.25,516.61 541.21,515.96 544.17,515.45 547.13,514.93 550.09,514.41 553.05,513.89 556.01,513.38 558.97,512.86 561.93,512.34 564.89,511.82 567.84,511.31 570.80,510.79 573.76,510.47 576.72,510.14 579.68,509.82 582.64,509.50 585.60,509.17 588.56,508.85 591.52,508.53 594.48,508.20 597.44,507.88 600.40,507.56 603.36,507.36 606.32,507.17 609.28,506.97 612.24,506.78 615.20,506.58 618.16,506.39 621.12,506.19 624.08,506.00 627.04,505.80 630.00,505.60 632.96,505.14 635.92,504.67 638.88,504.21 641.84,503.74 644.80,503.28 647.76,502.81 650.72,502.35 653.68,501.88 656.64,501.42 659.60,500.95 662.56,499.90 665.52,498.85 668.48,497.80 671.44,496.75 674.40,495.70 677.36,494.65 680.32,493.59 683.28,492.54 686.24,491.49 689.20,490.44 692.16,489.37 695.11,488.30 698.07,487.23 701.03,486.16 703.99,485.09 706.95,484.02 709.91,482.94 712.87,481.88 715.83,480.80 718.79,479.73 721.75,479.21 724.71,478.68 727.67,478.16 730.63,477.63 733.59,477.10 736.55,476.58 739.51,476.05 742.47,475.53 745.43,475.00 748.39,474.47 751.35,474.30 754.31,474.12 757.27,473.95 760.23,473.77 763.19,473.60 766.15,473.42 769.11,473.25 772.07,473.07 775.03,472.90 777.99,472.72 780.95,472.67 783.91,472.62 786.87,472.56 789.83,472.51 792.79,472.46 795.75,472.40 798.71,472.35 801.67,472.30 804.63,472.25 807.59,472.20 810.55,472.25 813.51,472.30 816.47,472.34 819.43,472.39 822.39,472.44 825.34,472.49 828.30,472.54 831.26,472.59 834.22,472.64 837.18,472.68 840.14,472.88 843.10,473.08 846.06,473.27 849.02,473.46 851.98,473.66 854.94,473.85 857.90,474.05 860.86,474.24 863.82,474.44 866.78,474.63 869.74,475.00 872.70,475.36 875.66,475.73 878.62,476.09 881.58,476.46 884.54,476.82 887.50,477.19 890.46,477.56 893.42,477.92 896.38,478.29 899.34,478.79 902.30,479.28 905.26,479.78 908.22,480.28 911.18,480.78 914.14,481.27 917.10,481.77 920.06,482.27 923.02,482.77 925.98,483.27 928.94,483.81 931.90,484.36 934.86,484.91 937.82,485.46 940.78,486.00 943.74,486.55 946.70,487.10 949.66,487.65 952.61,488.19 955.57,488.74 958.53,489.28 961.49,489.82 964.45,490.36 967.41,490.90 970.37,491.43 973.33,491.97 976.29,492.51 979.25,493.05 982.21,493.58 985.17,494.12 988.13,494.72 991.09,495.32 994.05,495.93 997.01,496.53 999.97,497.13 1002.93,497.73 1005.89,498.33 1008.85,498.93 1011.81,499.54 1014.77,500.14 1017.73,501.07 1020.69,502.00 1023.65,502.93 1026.61,503.86 1029.57,504.78 1032.53,505.71 1035.49,506.64 1038.45,507.57 1041.41,508.50 1044.37,509.43 1047.33,510.02 1050.29,510.61 1053.25,511.20 1056.21,511.80 1059.17,512.39 1062.13,512.98 1065.09,513.57 1068.05,514.16 1071.01,514.75 1073.97,515.34" fill="none" stroke="#1f77b4" stroke-width="3"/>
<line x1="137" y1="100" x2="173" y2="100" stroke="#1f77b4" stroke-width="4"/>
<text x="183" y="105" font-family="Arial" font-size="18" fill="black">Ux</text>
<polyline points="186.03,534.20 188.99,534.20 191.95,534.20 194.91,534.21 197.87,534.21 200.83,534.22 203.79,534.22 206.75,534.22 209.71,534.23 212.67,534.23 215.63,534.23 218.59,534.21 221.55,534.20 224.51,534.18 227.47,534.16 230.43,534.14 233.39,534.12 236.35,534.11 239.31,534.09 242.27,534.07 245.23,534.05 248.19,534.00 251.15,533.95 254.11,533.90 257.07,533.86 260.03,533.81 262.99,533.76 265.95,533.71 268.91,533.66 271.87,533.61 274.83,533.56 277.79,533.51 280.75,533.45 283.71,533.40 286.67,533.35 289.63,533.29 292.59,533.24 295.55,533.19 298.51,533.13 301.47,533.08 304.43,533.03 307.39,532.98 310.34,532.94 313.30,532.89 316.26,532.85 319.22,532.80 322.18,532.76 325.14,532.71 328.10,532.67 331.06,532.63 334.02,532.58 336.98,532.55 339.94,532.51 342.90,532.48 345.86,532.45 348.82,532.41 351.78,532.38 354.74,532.35 357.70,532.31 360.66,532.28 363.62,532.25 366.58,532.22 369.54,532.19 372.50,532.17 375.46,532.14 378.42,532.11 381.38,532.09 384.34,532.06 387.30,532.03 390.26,532.00 393.22,531.98 396.18,531.95 399.14,531.92 402.10,531.88 405.06,531.85 408.02,531.82 410.98,531.79 413.94,531.76 416.90,531.73 419.86,531.70 422.82,531.67 425.78,531.62 428.74,531.58 431.70,531.54 434.66,531.49 437.61,531.45 440.57,531.41 443.53,531.36 446.49,531.32 449.45,531.27 452.41,531.23 455.37,531.17 458.33,531.11 461.29,531.05 464.25,531.00 467.21,530.94 470.17,530.88 473.13,530.82 476.09,530.76 479.05,530.70 482.01,530.64 484.97,530.57 487.93,530.50 490.89,530.43 493.85,530.36 496.81,530.29 499.77,530.22 502.73,530.15 505.69,530.08 508.65,530.01 511.61,529.94 514.57,529.87 517.53,529.80 520.49,529.73 523.45,529.66 526.41,529.59 529.37,529.52 532.33,529.45 535.29,529.38 538.25,529.31 541.21,529.24 544.17,529.20 547.13,529.15 550.09,529.10 553.05,529.05 556.01,529.00 558.97,528.96 561.93,528.91 564.89,528.86 567.84,528.81 570.80,528.76 573.76,528.74 576.72,528.72 579.68,528.70 582.64,528.68 585.60,528.66 588.56,528.64 591.52,528.62 594.48,528.60 597.44,528.58 600.40,528.56 603.36,528.48 606.32,528.39 609.28,528.31 612.24,528.22 615.20,528.13 618.16,528.05 621.12,527.96 624.08,527.88 627.04,527.79 630.00,527.71 632.96,527.31 635.92,526.91 638.88,526.52 641.84,526.12 644.80,525.72 647.76,525.33 650.72,524.93 653.68,524.53 656.64,524.14 659.60,523.74 662.56,523.09 665.52,522.45 668.48,521.80 671.44,521.15 674.40,520.50 677.36,519.86 680.32,519.21 683.28,518.56 686.24,517.91 689.20,517.26 692.16,517.03 695.11,516.80 698.07,516.57 701.03,516.33 703.99,516.10 706.95,515.87 709.91,515.64 712.87,515.40 715.83,515.17 718.79,514.94 721.75,515.49 724.71,516.04 727.67,516.60 730.63,517.15 733.59,517.70 736.55,518.26 739.51,518.81 742.47,519.36 745.43,519.92 748.39,520.47 751.35,521.62 754.31,522.76 757.27,523.91 760.23,525.06 763.19,526.20 766.15,527.35 769.11,528.50 772.07,529.64 775.03,530.79 777.99,531.94 780.95,533.42 783.91,534.91 786.87,536.40 789.83,537.89 792.79,539.37 795.75,540.86 798.71,542.35 801.67,543.84 804.63,545.32 807.59,546.81 810.55,548.38 813.51,549.94 816.47,551.51 819.43,553.08 822.39,554.64 825.34,556.21 828.30,557.78 831.26,559.34 834.22,560.91 837.18,562.48 840.14,563.87 843.10,565.25 846.06,566.64 849.02,568.03 851.98,569.42 854.94,570.81 857.90,572.20 860.86,573.59 863.82,574.98 866.78,576.37 869.74,577.26 872.70,578.16 875.66,579.06 878.62,579.96 881.58,580.86 884.54,581.76 887.50,582.66 890.46,583.56 893.42,584.46 896.38,585.36 899.34,585.36 902.30,585.36 905.26,585.36 908.22,585.37 911.18,585.37 914.14,585.37 917.10,585.37 920.06,585.37 923.02,585.37 925.98,585.37 928.94,583.98 931.90,582.59 934.86,581.20 937.82,579.81 940.78,578.42 943.74,577.03 946.70,575.65 949.66,574.26 952.61,572.87 955.57,571.48 958.53,568.22 961.49,564.95 964.45,561.69 967.41,558.43 970.37,555.16 973.33,551.90 976.29,548.64 979.25,545.37 982.21,542.11 985.17,538.85 988.13,533.64 991.09,528.43 994.05,523.22 997.01,518.01 999.97,512.80 1002.93,507.59 1005.89,502.38 1008.85,497.17 1011.81,491.96 1014.77,486.75 1017.73,479.80 1020.69,472.85 1023.65,465.90 1026.61,458.95 1029.57,452.00 1032.53,445.04 1035.49,438.09 1038.45,431.14 1041.41,424.18 1044.37,417.23 1047.33,413.34 1050.29,409.44 1053.25,405.54 1056.21,401.64 1059.17,397.74 1062.13,393.84 1065.09,389.94 1068.05,386.04 1071.01,382.14 1073.97,378.24" fill="none" stroke="#d62728" stroke-width="3"/>
<line x1="137" y1="128" x2="173" y2="128" stroke="#d62728" stroke-width="4"/>
<text x="183" y="133" font-family="Arial" font-size="18" fill="black">Uy</text>
<polyline points="186.03,118.45 188.99,118.82 191.95,119.19 194.91,119.55 197.87,119.92 200.83,120.29 203.79,120.66 206.75,121.03 209.71,121.40 212.67,121.76 215.63,122.13 218.59,123.06 221.55,123.98 224.51,124.91 227.47,125.83 230.43,126.75 233.39,127.68 236.35,128.61 239.31,129.53 242.27,130.46 245.23,131.38 248.19,132.58 251.15,133.77 254.11,134.97 257.07,136.16 260.03,137.36 262.99,138.56 265.95,139.75 268.91,140.95 271.87,142.14 274.83,143.34 277.79,144.66 280.75,145.98 283.71,147.30 286.67,148.62 289.63,149.95 292.59,151.27 295.55,152.59 298.51,153.91 301.47,155.23 304.43,156.55 307.39,157.97 310.34,159.38 313.30,160.80 316.26,162.22 319.22,163.63 322.18,165.05 325.14,166.47 328.10,167.88 331.06,169.30 334.02,170.71 336.98,172.25 339.94,173.78 342.90,175.31 345.86,176.84 348.82,178.38 351.78,179.91 354.74,181.44 357.70,182.98 360.66,184.51 363.62,186.04 366.58,187.74 369.54,189.44 372.50,191.14 375.46,192.84 378.42,194.54 381.38,196.24 384.34,197.95 387.30,199.64 390.26,201.34 393.22,203.04 396.18,204.99 399.14,206.93 402.10,208.88 405.06,210.82 408.02,212.77 410.98,214.71 413.94,216.66 416.90,218.60 419.86,220.54 422.82,222.49 425.78,224.76 428.74,227.03 431.70,229.30 434.66,231.57 437.61,233.84 440.57,236.11 443.53,238.38 446.49,240.65 449.45,242.92 452.41,245.19 455.37,247.84 458.33,250.49 461.29,253.14 464.25,255.79 467.21,258.45 470.17,261.10 473.13,263.75 476.09,266.40 479.05,269.05 482.01,271.70 484.97,274.75 487.93,277.80 490.89,280.86 493.85,283.91 496.81,286.96 499.77,290.01 502.73,293.06 505.69,296.11 508.65,299.16 511.61,302.21 514.57,305.63 517.53,309.05 520.49,312.47 523.45,315.89 526.41,319.31 529.37,322.73 532.33,326.15 535.29,329.56 538.25,332.98 541.21,336.40 544.17,340.11 547.13,343.81 550.09,347.52 553.05,351.22 556.01,354.92 558.97,358.63 561.93,362.33 564.89,366.04 567.84,369.74 570.80,373.45 573.76,377.33 576.72,381.22 579.68,385.11 582.64,388.99 585.60,392.88 588.56,396.76 591.52,400.65 594.48,404.54 597.44,408.42 600.40,412.31 603.36,416.32 606.32,420.34 609.28,424.36 612.24,428.37 615.20,432.39 618.16,436.41 621.12,440.42 624.08,444.44 627.04,448.45 630.00,452.47 632.96,456.34 635.92,460.21 638.88,464.08 641.84,467.95 644.80,471.82 647.76,475.68 650.72,479.55 653.68,483.42 656.64,487.29 659.60,491.16 662.56,494.36 665.52,497.57 668.48,500.77 671.44,503.98 674.40,507.18 677.36,510.39 680.32,513.59 683.28,516.79 686.24,520.00 689.20,523.20 692.16,525.65 695.11,528.09 698.07,530.53 701.03,532.97 703.99,535.41 706.95,537.85 709.91,540.30 712.87,542.74 715.83,545.18 718.79,547.62 721.75,549.63 724.71,551.64 727.67,553.64 730.63,555.65 733.59,557.66 736.55,559.66 739.51,561.67 742.47,563.68 745.43,565.69 748.39,567.69 751.35,569.52 754.31,571.34 757.27,573.16 760.23,574.98 763.19,576.80 766.15,578.63 769.11,580.45 772.07,582.27 775.03,584.10 777.99,585.92 780.95,587.64 783.91,589.36 786.87,591.08 789.83,592.80 792.79,594.52 795.75,596.24 798.71,597.96 801.67,599.68 804.63,601.41 807.59,603.13 810.55,604.77 813.51,606.42 816.47,608.06 819.43,609.70 822.39,611.35 825.34,612.99 828.30,614.63 831.26,616.28 834.22,617.92 837.18,619.57 840.14,621.15 843.10,622.72 846.06,624.30 849.02,625.88 851.98,627.45 854.94,629.03 857.90,630.60 860.86,632.18 863.82,633.76 866.78,635.33 869.74,636.75 872.70,638.17 875.66,639.60 878.62,641.01 881.58,642.44 884.54,643.86 887.50,645.28 890.46,646.70 893.42,648.12 896.38,649.54 899.34,650.56 902.30,651.58 905.26,652.60 908.22,653.62 911.18,654.64 914.14,655.66 917.10,656.68 920.06,657.69 923.02,658.71 925.98,659.73 928.94,659.92 931.90,660.09 934.86,660.28 937.82,660.46 940.78,660.64 943.74,660.83 946.70,661.00 949.66,661.19 952.61,661.37 955.57,661.55 958.53,660.28 961.49,659.02 964.45,657.75 967.41,656.48 970.37,655.22 973.33,653.95 976.29,652.68 979.25,651.41 982.21,650.14 985.17,648.87 988.13,646.04 991.09,643.21 994.05,640.37 997.01,637.53 999.97,634.70 1002.93,631.87 1005.89,629.03 1008.85,626.20 1011.81,623.36 1014.77,620.52 1017.73,616.48 1020.69,612.44 1023.65,608.40 1026.61,604.35 1029.57,600.31 1032.53,596.27 1035.49,592.23 1038.45,588.18 1041.41,584.14 1044.37,580.10 1047.33,577.81 1050.29,575.52 1053.25,573.23 1056.21,570.94 1059.17,568.65 1062.13,566.36 1065.09,564.07 1068.05,561.78 1071.01,559.50 1073.97,557.21" fill="none" stroke="#2ca02c" stroke-width="3"/>
<line x1="137" y1="156" x2="173" y2="156" stroke="#2ca02c" stroke-width="4"/>
<text x="183" y="161" font-family="Arial" font-size="18" fill="black">Uz</text>
<polyline points="186.03,118.45 188.99,118.82 191.95,119.18 194.91,119.55 197.87,119.92 200.83,120.28 203.79,120.65 206.75,121.02 209.71,121.39 212.67,121.75 215.63,122.12 218.59,123.04 221.55,123.97 224.51,124.89 227.47,125.81 230.43,126.73 233.39,127.66 236.35,128.58 239.31,129.51 242.27,130.43 245.23,131.35 248.19,132.54 251.15,133.73 254.11,134.92 257.07,136.12 260.03,137.31 262.99,138.50 265.95,139.69 268.91,140.88 271.87,142.07 274.83,143.27 277.79,144.58 280.75,145.90 283.71,147.22 286.67,148.54 289.63,149.85 292.59,151.17 295.55,152.48 298.51,153.80 301.47,155.12 304.43,156.43 307.39,157.84 310.34,159.26 313.30,160.67 316.26,162.08 319.22,163.49 322.18,164.90 325.14,166.31 328.10,167.73 331.06,169.14 334.02,170.55 336.98,172.08 339.94,173.61 342.90,175.14 345.86,176.67 348.82,178.21 351.78,179.73 354.74,181.27 357.70,182.80 360.66,184.33 363.62,185.86 366.58,187.56 369.54,189.27 372.50,190.97 375.46,192.67 378.42,194.38 381.38,196.08 384.34,197.78 387.30,199.49 390.26,201.19 393.22,202.89 396.18,204.84 399.14,206.79 402.10,208.75 405.06,210.70 408.02,212.65 410.98,214.60 413.94,216.56 416.90,218.51 419.86,220.46 422.82,222.41 425.78,224.69 428.74,226.96 431.70,229.24 434.66,231.52 437.61,233.79 440.57,236.07 443.53,238.35 446.49,240.62 449.45,242.90 452.41,245.18 455.37,247.82 458.33,250.47 461.29,253.11 464.25,255.77 467.21,258.41 470.17,261.06 473.13,263.70 476.09,266.36 479.05,269.00 482.01,271.65 484.97,274.67 487.93,277.70 490.89,280.73 493.85,283.75 496.81,286.78 499.77,289.81 502.73,292.84 505.69,295.86 508.65,298.89 511.61,301.91 514.57,305.28 517.53,308.65 520.49,312.01 523.45,315.38 526.41,318.75 529.37,322.11 532.33,325.48 535.29,328.84 538.25,332.21 541.21,335.58 544.17,339.19 547.13,342.81 550.09,346.43 553.05,350.05 556.01,353.67 558.97,357.29 561.93,360.91 564.89,364.53 567.84,368.15 570.80,371.77 573.76,375.53 576.72,379.30 579.68,383.07 582.64,386.84 585.60,390.61 588.56,394.38 591.52,398.15 594.48,401.92 597.44,405.68 600.40,409.45 603.36,413.27 606.32,417.08 609.28,420.90 612.24,424.71 615.20,428.52 618.16,432.34 621.12,436.15 624.08,439.96 627.04,443.77 630.00,447.59 632.96,450.75 635.92,453.91 638.88,457.07 641.84,460.23 644.80,463.38 647.76,466.54 650.72,469.70 653.68,472.86 656.64,476.02 659.60,479.18 662.56,479.90 665.52,480.61 668.48,481.32 671.44,482.04 674.40,482.75 677.36,483.47 680.32,484.18 683.28,484.89 686.24,485.61 689.20,486.32 692.16,485.18 695.11,484.03 698.07,482.89 701.03,481.75 703.99,480.61 706.95,479.46 709.91,478.32 712.87,477.18 715.83,476.04 718.79,474.89 721.75,473.81 724.71,472.73 727.67,471.65 730.63,470.57 733.59,469.49 736.55,468.41 739.51,467.32 742.47,466.24 745.43,465.16 748.39,464.08 751.35,463.00 754.31,461.91 757.27,460.83 760.23,459.75 763.19,458.68 766.15,457.59 769.11,456.51 772.07,455.43 775.03,454.35 777.99,453.27 780.95,451.93 783.91,450.59 786.87,449.24 789.83,447.90 792.79,446.56 795.75,445.21 798.71,443.87 801.67,442.53 804.63,441.19 807.59,439.85 810.55,438.29 813.51,436.73 816.47,435.17 819.43,433.62 822.39,432.06 825.34,430.50 828.30,428.95 831.26,427.39 834.22,425.84 837.18,424.28 840.14,422.69 843.10,421.10 846.06,419.51 849.02,417.93 851.98,416.34 854.94,414.75 857.90,413.16 860.86,411.57 863.82,409.99 866.78,408.40 869.74,407.06 872.70,405.72 875.66,404.38 878.62,403.05 881.58,401.71 884.54,400.37 887.50,399.03 890.46,397.69 893.42,396.36 896.38,395.02 899.34,394.33 902.30,393.65 905.26,392.96 908.22,392.28 911.18,391.59 914.14,390.91 917.10,390.22 920.06,389.54 923.02,388.85 925.98,388.17 928.94,388.63 931.90,389.08 934.86,389.54 937.82,389.99 940.78,390.45 943.74,390.91 946.70,391.36 949.66,391.82 952.61,392.27 955.57,392.73 958.53,394.61 961.49,396.50 964.45,398.38 967.41,400.26 970.37,402.14 973.33,404.03 976.29,405.91 979.25,407.79 982.21,409.67 985.17,411.56 988.13,413.33 991.09,415.11 994.05,416.88 997.01,418.65 999.97,420.42 1002.93,422.20 1005.89,423.97 1008.85,425.74 1011.81,427.52 1014.77,429.29 1017.73,426.96 1020.69,424.62 1023.65,422.29 1026.61,419.96 1029.57,417.63 1032.53,415.29 1035.49,412.96 1038.45,410.63 1041.41,408.30 1044.37,405.97 1047.33,402.91 1050.29,399.85 1053.25,396.80 1056.21,393.74 1059.17,390.68 1062.13,387.63 1065.09,384.57 1068.05,381.52 1071.01,378.46 1073.97,375.40" fill="none" stroke="#111111" stroke-width="3"/>
<line x1="137" y1="184" x2="173" y2="184" stroke="#111111" stroke-width="4"/>
<text x="183" y="189" font-family="Arial" font-size="18" fill="black">Umag</text>
</svg>