<svg xmlns="http://www.w3.org/2000/svg" width="1200" height="820" viewBox="0 0 1200 820">
<rect width="100%" height="100%" fill="white"/>
<text x="600.0" y="36" text-anchor="middle" font-family="Arial" font-size="24" fill="black">Ux profile along x-centerline</text>
<line x1="115.00" y1="75" x2="115.00" y2="705" stroke="#dddddd" stroke-width="1"/>
<text x="115.00" y="737" text-anchor="middle" font-family="Arial" font-size="16" fill="black">-0.560</text>
<line x1="372.50" y1="75" x2="372.50" y2="705" stroke="#dddddd" stroke-width="1"/>
<text x="372.50" y="737" text-anchor="middle" font-family="Arial" font-size="16" fill="black">1.470</text>
<line x1="630.00" y1="75" x2="630.00" y2="705" stroke="#dddddd" stroke-width="1"/>
<text x="630.00" y="737" text-anchor="middle" font-family="Arial" font-size="16" fill="black">3.500</text>
<line x1="887.50" y1="75" x2="887.50" y2="705" stroke="#dddddd" stroke-width="1"/>
<text x="887.50" y="737" text-anchor="middle" font-family="Arial" font-size="16" fill="black">5.530</text>
<line x1="1145.00" y1="75" x2="1145.00" y2="705" stroke="#dddddd" stroke-width="1"/>
<text x="1145.00" y="737" text-anchor="middle" font-family="Arial" font-size="16" fill="black">7.560</text>
<line x1="115" y1="705.00" x2="1145" y2="705.00" stroke="#dddddd" stroke-width="1"/>
<text x="99" y="710.00" text-anchor="end" font-family="Arial" font-size="16" fill="black">-0.052</text>
<line x1="115" y1="547.50" x2="1145" y2="547.50" stroke="#dddddd" stroke-width="1"/>
<text x="99" y="552.50" text-anchor="end" font-family="Arial" font-size="16" fill="black">-0.014</text>
<line x1="115" y1="390.00" x2="1145" y2="390.00" stroke="#dddddd" stroke-width="1"/>
<text x="99" y="395.00" text-anchor="end" font-family="Arial" font-size="16" fill="black">0.024</text>
<line x1="115" y1="232.50" x2="1145" y2="232.50" stroke="#dddddd" stroke-width="1"/>
<text x="99" y="237.50" text-anchor="end" font-family="Arial" font-size="16" fill="black">0.062</text>
<line x1="115" y1="75.00" x2="1145" y2="75.00" stroke="#dddddd" stroke-width="1"/>
<text x="99" y="80.00" text-anchor="end" font-family="Arial" font-size="16" fill="black">0.100</text>
<rect x="115" y="75" width="1030" height="630" fill="none" stroke="black" stroke-width="2"/>
<text x="630.0" y="785" text-anchor="middle" font-family="Arial" font-size="20" fill="black">x coordinate [m]</text>
<text x="34" y="390.0" transform="rotate(-90 34 390.0)" text-anchor="middle" font-family="Arial" font-size="20" fill="black">Ux [m/s]</text>
<polyline points="186.03,485.16 188.99,478.67 191.95,472.17 194.91,465.68 197.87,459.18 200.83,448.45 203.79,436.02 206.75,423.60 209.71,411.17 212.67,398.09 215.63,384.15 218.59,370.21 221.55,356.27 224.51,342.03 227.47,325.99 230.43,309.96 233.39,293.92 236.35,277.89 239.31,262.17 242.27,246.51 245.23,230.84 248.19,215.18 251.15,201.08 254.11,188.16 257.07,175.25 260.03,162.33 262.99,150.96 265.95,143.45 268.91,135.95 271.87,128.45 274.83,120.94 277.79,120.32 280.75,119.70 283.71,119.07 286.67,118.45 289.63,123.38 292.59,130.53 295.55,137.69 298.51,144.84 301.47,155.01 304.42,169.18 307.39,183.35 310.34,197.53 313.30,212.34 316.27,231.02 319.22,249.69 322.18,268.36 325.15,287.04 328.10,306.49 331.06,326.07 334.03,345.65 336.98,365.22 339.94,383.39 342.91,400.48 345.86,417.57 348.82,434.67 351.79,450.56 354.74,463.42 357.70,476.29 360.67,489.16 363.62,502.03 366.58,510.74 369.54,519.44 372.50,528.14 375.46,536.85 378.42,543.18 381.38,548.57 384.33,553.96 387.30,559.34 390.26,563.80 393.21,567.01 396.18,570.22 399.14,573.44 402.09,576.50 405.06,578.66 408.02,580.83 410.97,582.99 413.94,585.15 416.90,586.87 419.85,588.52 422.82,590.16 425.78,591.81 428.73,592.97 431.70,593.75 434.66,594.54 437.61,595.33 440.58,595.72 443.53,595.08 446.49,594.43 449.46,593.80 452.41,593.16 455.37,590.69 458.34,588.23 461.29,585.76 464.25,583.30 467.22,579.41 470.17,574.95 473.13,570.49 476.10,566.03 479.05,560.78 482.01,554.47 484.98,548.17 487.93,541.87 490.89,535.36 493.85,527.55 496.81,519.75 499.77,511.94 502.73,504.14 505.69,495.54 508.65,486.82 511.61,478.09 514.57,469.36 517.52,460.58 520.49,451.75 523.45,442.92 526.40,434.09 529.37,425.48 532.33,417.40 535.28,409.33 538.25,401.26 541.21,393.18 544.16,386.62 547.13,380.05 550.09,373.49 553.04,366.93 556.01,361.89 558.97,357.46 561.92,353.04 564.89,348.61 567.84,345.23 570.80,343.25 573.77,341.28 576.72,339.30 579.68,337.67 582.65,338.09 585.60,338.50 588.56,338.92 591.53,339.33 594.48,341.62 597.44,344.23 600.41,346.84 603.36,349.45 606.32,353.17 609.29,357.73 612.24,362.29 615.20,366.85 618.17,371.90 621.12,378.17 624.08,384.45 627.04,390.72 630.00,396.99 632.96,404.74 635.92,412.49 638.88,420.24 641.83,427.98 644.80,436.54 647.76,445.42 650.71,454.31 653.68,463.19 656.64,472.32 659.59,481.75 662.56,491.19 665.52,500.63 668.47,510.04 671.44,519.33 674.40,528.62 677.35,537.90 680.32,547.19 683.28,555.78 686.23,564.26 689.20,572.74 692.16,581.22 695.11,588.83 698.08,595.78 701.03,602.73 703.99,609.68 706.96,616.11 709.91,621.24 712.87,626.38 715.84,631.51 718.79,636.65 721.75,640.16 724.72,643.68 727.67,647.20 730.63,650.72 733.60,653.14 736.55,655.13 739.51,657.11 742.48,659.09 745.43,660.37 748.39,660.73 751.35,661.09 754.31,661.45 757.27,661.55 760.23,660.12 763.19,658.68 766.15,657.25 769.11,655.81 772.07,652.74 775.02,649.38 777.99,646.04 780.95,642.68 783.90,638.26 786.87,633.03 789.83,627.80 792.78,622.57 795.75,616.89 798.71,610.09 801.66,603.29 804.63,596.49 807.59,589.69 810.54,581.93 813.51,574.18 816.47,566.43 819.42,558.68 822.39,551.00 825.34,543.34 828.30,535.68 831.27,528.02 834.22,520.95 837.18,514.68 840.15,508.40 843.10,502.12 846.06,496.21 849.03,492.52 851.98,488.82 854.94,485.12 857.91,481.42 860.86,480.62 863.82,480.31 866.79,480.00 869.74,479.69 872.70,481.39 875.67,484.62 878.62,487.84 881.58,491.06 884.54,495.13 887.50,501.32 890.46,507.50 893.42,513.69 896.38,519.87 899.33,527.89 902.30,535.90 905.26,543.92 908.21,551.93 911.18,560.25 914.14,568.68 917.09,577.12 920.06,585.56 923.02,593.52 925.97,600.86 928.94,608.20 931.90,615.54 934.85,622.54 937.82,627.53 940.78,632.52 943.73,637.51 946.70,642.50 949.66,645.14 952.61,647.39 955.58,649.63 958.53,651.88 961.49,652.87 964.46,652.91 967.41,652.95 970.37,652.98 973.34,652.65 976.29,651.40 979.25,650.14 982.22,648.88 985.17,647.63 988.13,645.82 991.10,644.01 994.05,642.21 997.01,640.40 999.98,638.41 1002.93,636.33 1005.89,634.26 1008.85,632.19 1011.81,629.91 1014.77,627.37 1017.73,624.83 1020.69,622.29 1023.65,619.59 1026.61,615.97 1029.57,612.34 1032.52,608.72 1035.49,605.09 1038.45,599.78 1041.40,594.18 1044.37,588.58 1047.33,582.99 1050.28,576.32 1053.25,568.85 1056.21,561.37 1059.16,553.90 1062.13,547.39 1065.09,543.33 1068.04,539.26 1071.01,535.20 1073.97,531.13" fill="none" stroke="#1f77b4" stroke-width="3"/>
<line x1="137" y1="100" x2="173" y2="100" stroke="#1f77b4" stroke-width="4"/>
<text x="183" y="105" font-family="Arial" font-size="18" fill="black">Ux</text>
</svg>