<svg xmlns="http://www.w3.org/2000/svg" width="1200" height="820" viewBox="0 0 1200 820">
<rect width="100%" height="100%" fill="white"/>
<text x="600.0" y="36" text-anchor="middle" font-family="Arial" font-size="24" fill="black">Umag profile along x-centerline</text>
<line x1="115.00" y1="75" x2="115.00" y2="705" stroke="#dddddd" stroke-width="1"/>
<text x="115.00" y="737" text-anchor="middle" font-family="Arial" font-size="16" fill="black">-0.560</text>
<line x1="372.50" y1="75" x2="372.50" y2="705" stroke="#dddddd" stroke-width="1"/>
<text x="372.50" y="737" text-anchor="middle" font-family="Arial" font-size="16" fill="black">1.470</text>
<line x1="630.00" y1="75" x2="630.00" y2="705" stroke="#dddddd" stroke-width="1"/>
<text x="630.00" y="737" text-anchor="middle" font-family="Arial" font-size="16" fill="black">3.500</text>
<line x1="887.50" y1="75" x2="887.50" y2="705" stroke="#dddddd" stroke-width="1"/>
<text x="887.50" y="737" text-anchor="middle" font-family="Arial" font-size="16" fill="black">5.530</text>
<line x1="1145.00" y1="75" x2="1145.00" y2="705" stroke="#dddddd" stroke-width="1"/>
<text x="1145.00" y="737" text-anchor="middle" font-family="Arial" font-size="16" fill="black">7.560</text>
<line x1="115" y1="705.00" x2="1145" y2="705.00" stroke="#dddddd" stroke-width="1"/>
<text x="99" y="710.00" text-anchor="end" font-family="Arial" font-size="16" fill="black">0.031</text>
<line x1="115" y1="547.50" x2="1145" y2="547.50" stroke="#dddddd" stroke-width="1"/>
<text x="99" y="552.50" text-anchor="end" font-family="Arial" font-size="16" fill="black">0.136</text>
<line x1="115" y1="390.00" x2="1145" y2="390.00" stroke="#dddddd" stroke-width="1"/>
<text x="99" y="395.00" text-anchor="end" font-family="Arial" font-size="16" fill="black">0.240</text>
<line x1="115" y1="232.50" x2="1145" y2="232.50" stroke="#dddddd" stroke-width="1"/>
<text x="99" y="237.50" text-anchor="end" font-family="Arial" font-size="16" fill="black">0.345</text>
<line x1="115" y1="75.00" x2="1145" y2="75.00" stroke="#dddddd" stroke-width="1"/>
<text x="99" y="80.00" text-anchor="end" font-family="Arial" font-size="16" fill="black">0.450</text>
<rect x="115" y="75" width="1030" height="630" fill="none" stroke="black" stroke-width="2"/>
<text x="630.0" y="785" text-anchor="middle" font-family="Arial" font-size="20" fill="black">x coordinate [m]</text>
<text x="34" y="390.0" transform="rotate(-90 34 390.0)" text-anchor="middle" font-family="Arial" font-size="20" fill="black">Umag [m/s]</text>
<polyline points="186.03,493.60 188.99,491.89 191.95,490.18 194.91,488.46 197.87,486.75 200.83,483.19 203.79,478.86 206.75,474.55 209.71,470.22 212.67,465.89 215.63,461.53 218.59,457.16 221.55,452.80 224.51,448.52 227.47,444.64 230.43,440.77 233.39,436.90 236.35,433.03 239.31,428.91 242.27,424.76 245.23,420.61 248.19,416.47 251.15,411.88 254.11,406.98 257.07,402.08 260.03,397.18 262.99,392.05 265.95,386.36 268.91,380.68 271.87,374.99 274.83,369.31 277.79,363.31 280.75,357.33 283.71,351.33 286.67,345.35 289.63,339.81 292.59,334.43 295.55,329.05 298.51,323.67 301.47,318.95 304.42,315.10 307.39,311.27 310.34,307.42 313.30,303.86 316.27,302.07 319.22,300.27 322.18,298.48 325.15,296.69 328.10,296.54 331.06,296.68 334.03,296.81 336.98,296.95 339.94,297.57 342.91,298.57 345.86,299.56 348.82,300.56 351.79,301.31 354.74,301.50 357.70,301.70 360.67,301.89 363.62,302.09 366.58,300.98 369.54,299.86 372.50,298.74 375.46,297.63 378.42,296.98 381.38,296.53 384.33,296.08 387.30,295.61 390.26,296.39 393.21,298.80 396.18,301.20 399.14,303.61 402.09,306.40 405.06,311.54 408.02,316.68 410.97,321.82 413.94,326.94 416.90,332.99 419.85,339.19 422.82,345.38 425.78,351.58 428.73,357.38 431.70,362.89 434.66,368.41 437.61,373.92 440.58,378.85 443.53,382.28 446.49,385.72 449.46,389.14 452.41,392.59 455.37,392.86 458.34,393.14 461.29,393.41 464.25,393.68 467.22,391.44 470.17,388.20 473.13,384.94 476.10,381.69 479.05,377.26 482.01,371.23 484.98,365.21 487.93,359.19 490.89,352.99 493.85,345.74 496.81,338.49 499.77,331.24 502.73,323.98 505.69,316.88 508.65,309.80 511.61,302.70 514.57,295.61 517.52,288.97 520.49,282.64 523.45,276.32 526.40,269.99 529.37,263.83 532.33,258.07 535.28,252.32 538.25,246.56 541.21,240.81 544.16,235.11 547.13,229.41 550.09,223.72 553.04,218.02 556.01,212.16 558.97,206.24 561.92,200.32 564.89,194.38 567.84,188.48 570.80,182.62 573.77,176.74 576.72,170.87 579.68,165.14 582.65,160.27 585.60,155.39 588.56,150.52 591.53,145.65 594.48,142.46 597.44,139.55 600.41,136.63 603.36,133.72 606.32,131.87 609.29,130.83 612.24,129.79 615.20,128.76 618.17,127.90 621.12,127.51 624.08,127.10 627.04,126.71 630.00,126.32 632.96,125.51 635.92,124.68 638.88,123.87 641.83,123.05 644.80,122.10 647.76,121.09 650.71,120.09 653.68,119.08 656.64,118.51 659.59,118.48 662.56,118.46 665.52,118.45 668.47,118.70 671.44,120.70 674.40,122.70 677.35,124.70 680.32,126.70 683.28,130.80 686.23,135.25 689.20,139.70 692.16,144.15 695.11,149.93 698.08,156.69 701.03,163.46 703.99,170.22 706.96,177.48 709.91,185.98 712.87,194.49 715.84,202.99 718.79,211.50 721.75,220.98 724.72,230.47 727.67,239.95 730.63,249.43 733.60,259.12 736.55,268.91 739.51,278.69 742.48,288.47 745.43,298.17 748.39,307.74 751.35,317.30 754.31,326.87 757.27,336.35 760.23,345.34 763.19,354.33 766.15,363.31 769.11,372.30 772.07,380.58 775.02,388.74 777.99,396.90 780.95,405.07 783.90,412.69 786.87,419.91 789.83,427.11 792.78,434.32 795.75,441.26 798.71,447.50 801.66,453.73 804.63,459.99 807.59,466.22 810.54,471.69 813.51,477.16 816.47,482.63 819.42,488.09 822.39,493.38 825.34,498.59 828.30,503.81 831.27,509.02 834.22,514.43 837.18,520.11 840.15,525.81 843.10,531.49 846.06,537.29 849.03,543.81 851.98,550.32 854.94,556.84 857.91,563.36 860.86,570.38 863.82,577.47 866.79,584.58 869.74,591.68 872.70,599.17 875.67,606.99 878.62,614.81 881.58,622.62 884.54,630.06 887.50,636.57 890.46,643.08 893.42,649.59 896.38,656.10 899.33,657.47 902.30,658.83 905.26,660.19 908.21,661.55 911.18,658.10 914.14,652.73 917.09,647.36 920.06,641.99 923.02,635.42 925.97,627.25 928.94,619.08 931.90,610.90 934.85,602.47 937.82,592.50 940.78,582.52 943.73,572.54 946.70,562.58 949.66,552.14 952.61,541.62 955.58,531.10 958.53,520.58 961.49,510.62 964.46,501.04 967.41,491.47 970.37,481.90 973.34,473.00 976.29,465.79 979.25,458.57 982.22,451.35 985.17,444.13 988.13,439.83 991.10,435.55 994.05,431.27 997.01,426.99 999.98,424.02 1002.93,421.61 1005.89,419.17 1008.85,416.75 1011.81,413.79 1014.77,410.11 1017.73,406.43 1020.69,402.75 1023.65,398.36 1026.61,389.69 1029.57,381.03 1032.52,372.36 1035.49,363.70 1038.45,349.46 1041.40,334.26 1044.37,319.09 1047.33,303.91 1050.28,285.30 1053.25,264.13 1056.21,242.95 1059.16,221.79 1062.13,202.80 1065.09,189.29 1068.04,175.76 1071.01,162.24 1073.97,148.71" fill="none" stroke="#111111" stroke-width="3"/>
<line x1="137" y1="100" x2="173" y2="100" stroke="#111111" stroke-width="4"/>
<text x="183" y="105" font-family="Arial" font-size="18" fill="black">Umag</text>
</svg>