<svg xmlns="http://www.w3.org/2000/svg" width="1200" height="820" viewBox="0 0 1200 820">
<rect width="100%" height="100%" fill="white"/>
<text x="600.0" y="36" text-anchor="middle" font-family="Arial" font-size="24" fill="black">Uy profile along y-centerline</text>
<line x1="115.00" y1="75" x2="115.00" y2="705" stroke="#dddddd" stroke-width="1"/>
<text x="115.00" y="737" text-anchor="middle" font-family="Arial" font-size="16" fill="black">-0.400</text>
<line x1="372.50" y1="75" x2="372.50" y2="705" stroke="#dddddd" stroke-width="1"/>
<text x="372.50" y="737" text-anchor="middle" font-family="Arial" font-size="16" fill="black">1.050</text>
<line x1="630.00" y1="75" x2="630.00" y2="705" stroke="#dddddd" stroke-width="1"/>
<text x="630.00" y="737" text-anchor="middle" font-family="Arial" font-size="16" fill="black">2.500</text>
<line x1="887.50" y1="75" x2="887.50" y2="705" stroke="#dddddd" stroke-width="1"/>
<text x="887.50" y="737" text-anchor="middle" font-family="Arial" font-size="16" fill="black">3.950</text>
<line x1="1145.00" y1="75" x2="1145.00" y2="705" stroke="#dddddd" stroke-width="1"/>
<text x="1145.00" y="737" text-anchor="middle" font-family="Arial" font-size="16" fill="black">5.400</text>
<line x1="115" y1="705.00" x2="1145" y2="705.00" stroke="#dddddd" stroke-width="1"/>
<text x="99" y="710.00" text-anchor="end" font-family="Arial" font-size="16" fill="black">-0.142</text>
<line x1="115" y1="547.50" x2="1145" y2="547.50" stroke="#dddddd" stroke-width="1"/>
<text x="99" y="552.50" text-anchor="end" font-family="Arial" font-size="16" fill="black">-0.088</text>
<line x1="115" y1="390.00" x2="1145" y2="390.00" stroke="#dddddd" stroke-width="1"/>
<text x="99" y="395.00" text-anchor="end" font-family="Arial" font-size="16" fill="black">-0.034</text>
<line x1="115" y1="232.50" x2="1145" y2="232.50" stroke="#dddddd" stroke-width="1"/>
<text x="99" y="237.50" text-anchor="end" font-family="Arial" font-size="16" fill="black">0.020</text>
<line x1="115" y1="75.00" x2="1145" y2="75.00" stroke="#dddddd" stroke-width="1"/>
<text x="99" y="80.00" text-anchor="end" font-family="Arial" font-size="16" fill="black">0.075</text>
<rect x="115" y="75" width="1030" height="630" fill="none" stroke="black" stroke-width="2"/>
<text x="630.0" y="785" text-anchor="middle" font-family="Arial" font-size="20" fill="black">y coordinate [m]</text>
<text x="34" y="390.0" transform="rotate(-90 34 390.0)" text-anchor="middle" font-family="Arial" font-size="20" fill="black">Uy [m/s]</text>
<polyline points="186.03,326.14 188.99,328.07 191.95,330.00 194.91,331.93 197.87,333.85 200.83,335.78 203.79,337.71 206.75,342.13 209.71,346.54 212.67,350.96 215.63,355.37 218.59,359.78 221.55,364.20 224.51,367.81 227.47,371.43 230.43,375.05 233.39,378.66 236.35,382.28 239.31,385.89 242.27,387.90 245.23,389.91 248.19,391.92 251.15,393.92 254.11,395.93 257.07,397.94 260.03,399.32 262.99,400.70 265.95,402.08 268.91,403.47 271.87,404.85 274.83,406.23 277.79,407.10 280.75,407.96 283.71,408.83 286.67,409.69 289.63,410.55 292.59,411.42 295.55,412.03 298.51,412.65 301.47,413.27 304.43,413.88 307.38,414.50 310.34,415.12 313.31,415.63 316.26,416.14 319.22,416.65 322.18,417.17 325.14,417.68 328.10,418.20 331.06,418.87 334.02,419.54 336.98,420.21 339.94,420.88 342.90,421.55 345.86,422.22 348.82,423.65 351.78,425.07 354.74,426.49 357.70,427.92 360.66,429.34 363.62,430.76 366.59,433.28 369.53,435.81 372.50,438.33 375.47,440.85 378.41,443.38 381.38,445.90 384.35,449.29 387.29,452.67 390.26,456.06 393.22,459.44 396.17,462.83 399.14,466.21 402.10,470.15 405.05,474.09 408.02,478.03 410.98,481.97 413.93,485.91 416.90,489.85 419.86,494.18 422.81,498.51 425.78,502.85 428.74,507.18 431.69,511.52 434.66,515.85 437.62,520.66 440.57,525.46 443.53,530.27 446.50,535.08 449.45,539.88 452.41,544.69 455.38,550.32 458.33,555.95 461.29,561.58 464.26,567.22 467.21,572.85 470.17,578.48 473.14,584.41 476.09,590.36 479.05,596.28 482.02,602.20 484.97,608.15 487.93,614.07 490.90,618.94 493.84,623.82 496.81,628.70 499.78,633.57 502.72,638.45 505.69,643.30 508.66,646.23 511.60,649.16 514.57,652.06 517.53,654.99 520.48,657.92 523.45,660.83 526.41,660.94 529.36,661.09 532.33,661.20 535.29,661.32 538.24,661.44 541.21,661.55 544.17,658.16 547.12,654.76 550.09,651.36 553.05,647.97 556.00,644.57 558.97,641.18 561.93,634.30 564.88,627.39 567.84,620.51 570.81,613.60 573.76,606.73 576.72,599.82 579.69,590.07 582.64,580.31 585.60,570.55 588.57,560.80 591.52,551.05 594.48,541.29 597.45,529.73 600.40,518.17 603.36,506.62 606.33,495.06 609.28,483.50 612.24,471.94 615.21,459.77 618.15,447.61 621.12,435.45 624.09,423.28 627.03,411.12 630.00,398.96 632.97,387.21 635.91,375.46 638.88,363.72 641.84,351.97 644.79,340.23 647.76,328.48 650.72,317.89 653.67,307.31 656.64,296.72 659.60,286.13 662.55,275.55 665.52,264.96 668.48,256.07 671.43,247.19 674.40,238.30 677.36,229.41 680.31,220.53 683.28,211.64 686.24,204.63 689.19,197.62 692.16,190.62 695.12,183.61 698.07,176.60 701.03,169.59 704.00,164.67 706.95,159.75 709.91,154.82 712.88,149.90 715.83,144.98 718.79,140.05 721.76,137.20 724.71,134.35 727.67,131.49 730.64,128.64 733.59,125.78 736.55,122.93 739.52,122.18 742.47,121.43 745.43,120.69 748.40,119.94 751.34,119.19 754.31,118.45 757.28,121.13 760.22,123.81 763.19,126.48 766.16,129.16 769.10,131.84 772.07,134.52 775.03,142.14 777.98,149.75 780.95,157.37 783.91,164.99 786.86,172.60 789.83,180.22 792.79,192.32 795.74,204.42 798.71,216.51 801.67,228.61 804.62,240.71 807.59,252.81 810.55,265.94 813.50,279.06 816.47,292.18 819.43,305.31 822.38,318.43 825.34,331.56 828.31,342.09 831.26,352.61 834.22,363.14 837.19,373.67 840.14,384.20 843.10,394.72 846.07,401.51 849.02,408.29 851.98,415.07 854.95,421.86 857.90,428.64 860.86,435.42 863.83,438.49 866.78,441.56 869.74,444.62 872.71,447.69 875.66,450.76 878.62,453.83 881.59,453.83 884.53,453.82 887.50,453.82 890.47,453.82 893.41,453.82 896.38,453.82 899.34,452.10 902.29,450.37 905.26,448.65 908.22,446.93 911.17,445.21 914.14,443.48 917.10,441.37 920.05,439.25 923.02,437.13 925.98,435.02 928.93,432.90 931.90,430.78 934.86,428.84 937.81,426.91 940.78,424.97 943.74,423.03 946.69,421.09 949.66,419.15 952.62,417.20 955.57,415.25 958.53,413.30 961.50,411.35 964.45,409.40 967.41,407.45 970.38,404.98 973.33,402.52 976.29,400.05 979.26,397.59 982.21,395.12 985.17,392.65 988.14,389.43 991.09,386.20 994.05,382.98 997.02,379.75 999.97,376.53 1002.93,373.30 1005.90,368.99 1008.84,364.68 1011.81,360.37 1014.78,356.06 1017.72,351.74 1020.69,347.43 1023.66,343.41 1026.60,339.38 1029.57,335.36 1032.53,331.34 1035.48,327.32 1038.45,323.30 1041.41,318.49 1044.36,313.69 1047.33,308.89 1050.29,304.09 1053.24,299.28 1056.21,294.48 1059.17,291.18 1062.12,287.87 1065.09,284.57 1068.05,281.26 1071.00,277.96 1073.97,274.65" fill="none" stroke="#d62728" stroke-width="3"/>
<line x1="137" y1="100" x2="173" y2="100" stroke="#d62728" stroke-width="4"/>
<text x="183" y="105" font-family="Arial" font-size="18" fill="black">Uy</text>
</svg>