<svg xmlns="http://www.w3.org/2000/svg" width="1200" height="820" viewBox="0 0 1200 820">
<rect width="100%" height="100%" fill="white"/>
<text x="600.0" y="36" text-anchor="middle" font-family="Arial" font-size="24" fill="black">Velocity components along y-centerline</text>
<line x1="115.00" y1="75" x2="115.00" y2="705" stroke="#dddddd" stroke-width="1"/>
<text x="115.00" y="737" text-anchor="middle" font-family="Arial" font-size="16" fill="black">-0.400</text>
<line x1="372.50" y1="75" x2="372.50" y2="705" stroke="#dddddd" stroke-width="1"/>
<text x="372.50" y="737" text-anchor="middle" font-family="Arial" font-size="16" fill="black">1.050</text>
<line x1="630.00" y1="75" x2="630.00" y2="705" stroke="#dddddd" stroke-width="1"/>
<text x="630.00" y="737" text-anchor="middle" font-family="Arial" font-size="16" fill="black">2.500</text>
<line x1="887.50" y1="75" x2="887.50" y2="705" stroke="#dddddd" stroke-width="1"/>
<text x="887.50" y="737" text-anchor="middle" font-family="Arial" font-size="16" fill="black">3.950</text>
<line x1="1145.00" y1="75" x2="1145.00" y2="705" stroke="#dddddd" stroke-width="1"/>
<text x="1145.00" y="737" text-anchor="middle" font-family="Arial" font-size="16" fill="black">5.400</text>
<line x1="115" y1="705.00" x2="1145" y2="705.00" stroke="#dddddd" stroke-width="1"/>
<text x="99" y="710.00" text-anchor="end" font-family="Arial" font-size="16" fill="black">-0.558</text>
<line x1="115" y1="547.50" x2="1145" y2="547.50" stroke="#dddddd" stroke-width="1"/>
<text x="99" y="552.50" text-anchor="end" font-family="Arial" font-size="16" fill="black">-0.273</text>
<line x1="115" y1="390.00" x2="1145" y2="390.00" stroke="#dddddd" stroke-width="1"/>
<text x="99" y="395.00" text-anchor="end" font-family="Arial" font-size="16" fill="black">0.011</text>
<line x1="115" y1="232.50" x2="1145" y2="232.50" stroke="#dddddd" stroke-width="1"/>
<text x="99" y="237.50" text-anchor="end" font-family="Arial" font-size="16" fill="black">0.296</text>
<line x1="115" y1="75.00" x2="1145" y2="75.00" stroke="#dddddd" stroke-width="1"/>
<text x="99" y="80.00" text-anchor="end" font-family="Arial" font-size="16" fill="black">0.580</text>
<rect x="115" y="75" width="1030" height="630" fill="none" stroke="black" stroke-width="2"/>
<text x="630.0" y="785" text-anchor="middle" font-family="Arial" font-size="20" fill="black">y coordinate [m]</text>
<text x="34" y="390.0" transform="rotate(-90 34 390.0)" text-anchor="middle" font-family="Arial" font-size="20" fill="black">velocity [m/s]</text>
<polyline points="186.03,400.49 188.99,402.76 191.95,405.02 194.91,407.28 197.87,409.55 200.83,411.81 203.79,414.07 206.75,418.08 209.71,422.09 212.67,426.11 215.63,430.12 218.59,434.13 221.55,438.14 224.51,441.18 227.47,444.22 230.43,447.26 233.39,450.30 236.35,453.34 239.31,456.38 242.27,458.37 245.23,460.36 248.19,462.35 251.15,464.34 254.11,466.34 257.07,468.33 260.03,469.12 262.99,469.91 265.95,470.70 268.91,471.49 271.87,472.28 274.83,473.08 277.79,472.84 280.75,472.60 283.71,472.37 286.67,472.13 289.63,471.90 292.59,471.66 295.55,470.91 298.51,470.14 301.47,469.38 304.43,468.62 307.38,467.86 310.34,467.10 313.31,466.45 316.26,465.81 319.22,465.16 322.18,464.52 325.14,463.87 328.10,463.23 331.06,463.22 334.02,463.22 336.98,463.20 339.94,463.20 342.90,463.19 345.86,463.18 348.82,464.02 351.78,464.85 354.74,465.68 357.70,466.52 360.66,467.36 363.62,468.19 366.59,469.76 369.53,471.34 372.50,472.92 375.47,474.49 378.41,476.07 381.38,477.64 384.35,479.66 387.29,481.68 390.26,483.70 393.22,485.72 396.17,487.74 399.14,489.76 402.10,491.87 405.05,493.98 408.02,496.09 410.98,498.20 413.93,500.31 416.90,502.42 419.86,504.30 422.81,506.18 425.78,508.06 428.74,509.94 431.69,511.83 434.66,513.71 437.62,515.12 440.57,516.52 443.53,517.92 446.50,519.33 449.45,520.73 452.41,522.13 455.38,522.87 458.33,523.60 461.29,524.33 464.26,525.05 467.21,525.78 470.17,526.51 473.14,526.48 476.09,526.45 479.05,526.42 482.02,526.39 484.97,526.36 487.93,526.33 490.90,525.56 493.84,524.79 496.81,524.02 499.78,523.25 502.72,522.48 505.69,521.71 508.66,520.25 511.60,518.80 514.57,517.34 517.53,515.88 520.48,514.43 523.45,512.97 526.41,510.92 529.36,508.87 532.33,506.82 535.29,504.77 538.24,502.71 541.21,500.67 544.17,498.19 547.12,495.71 550.09,493.24 553.05,490.76 556.00,488.29 558.97,485.81 561.93,483.14 564.88,480.48 567.84,477.82 570.81,475.15 573.76,472.49 576.72,469.83 579.69,467.25 582.64,464.67 585.60,462.09 588.57,459.51 591.52,456.93 594.48,454.35 597.45,452.11 600.40,449.88 603.36,447.64 606.33,445.41 609.28,443.18 612.24,440.94 615.21,439.26 618.15,437.57 621.12,435.88 624.09,434.20 627.03,432.51 630.00,430.83 632.97,429.79 635.91,428.76 638.88,427.72 641.84,426.69 644.79,425.65 647.76,424.62 650.72,424.22 653.67,423.82 656.64,423.42 659.60,423.03 662.55,422.63 665.52,422.23 668.48,422.31 671.43,422.39 674.40,422.48 677.36,422.56 680.31,422.64 683.28,422.72 686.24,422.98 689.19,423.24 692.16,423.49 695.12,423.75 698.07,424.01 701.03,424.26 704.00,424.26 706.95,424.25 709.91,424.25 712.88,424.24 715.83,424.24 718.79,424.23 721.76,423.36 724.71,422.48 727.67,421.61 730.64,420.73 733.59,419.86 736.55,418.98 739.52,416.60 742.47,414.22 745.43,411.83 748.40,409.45 751.34,407.06 754.31,404.68 757.28,400.55 760.22,396.42 763.19,392.29 766.16,388.16 769.10,384.03 772.07,379.90 775.03,374.50 777.98,369.09 780.95,363.69 783.91,358.29 786.86,352.88 789.83,347.48 792.79,341.77 795.74,336.06 798.71,330.34 801.67,324.62 804.62,318.91 807.59,313.20 810.55,308.41 813.50,303.63 816.47,298.84 819.43,294.05 822.38,289.27 825.34,284.48 828.31,281.40 831.26,278.33 834.22,275.25 837.19,272.18 840.14,269.10 843.10,266.03 846.07,264.54 849.02,263.05 851.98,261.57 854.95,260.08 857.90,258.60 860.86,257.11 863.83,256.74 866.78,256.36 869.74,255.98 872.71,255.60 875.66,255.22 878.62,254.85 881.59,255.05 884.53,255.26 887.50,255.47 890.47,255.68 893.41,255.88 896.38,256.09 899.34,256.49 902.29,256.88 905.26,257.28 908.22,257.67 911.17,258.06 914.14,258.46 917.10,258.87 920.05,259.29 923.02,259.70 925.98,260.11 928.93,260.52 931.90,260.93 934.86,261.38 937.81,261.83 940.78,262.28 943.74,262.73 946.69,263.17 949.66,263.62 952.62,264.25 955.57,264.89 958.53,265.53 961.50,266.16 964.45,266.80 967.41,267.44 970.38,268.46 973.33,269.49 976.29,270.52 979.26,271.54 982.21,272.56 985.17,273.59 988.14,275.20 991.09,276.81 994.05,278.42 997.02,280.03 999.97,281.64 1002.93,283.25 1005.90,285.67 1008.84,288.09 1011.81,290.51 1014.78,292.93 1017.72,295.35 1020.69,297.77 1023.66,301.41 1026.60,305.04 1029.57,308.68 1032.53,312.32 1035.48,315.95 1038.45,319.59 1041.41,325.24 1044.36,330.89 1047.33,336.54 1050.29,342.19 1053.24,347.84 1056.21,353.49 1059.17,356.95 1062.12,360.42 1065.09,363.88 1068.05,367.34 1071.00,370.80 1073.97,374.26" fill="none" stroke="#1f77b4" stroke-width="3"/>
<line x1="137" y1="100" x2="173" y2="100" stroke="#1f77b4" stroke-width="4"/>
<text x="183" y="105" font-family="Arial" font-size="18" fill="black">Ux</text>
<polyline points="186.03,402.72 188.99,403.09 191.95,403.45 194.91,403.82 197.87,404.19 200.83,404.56 203.79,404.92 206.75,405.77 209.71,406.61 212.67,407.45 215.63,408.29 218.59,409.13 221.55,409.98 224.51,410.67 227.47,411.35 230.43,412.04 233.39,412.73 236.35,413.42 239.31,414.11 242.27,414.50 245.23,414.88 248.19,415.26 251.15,415.65 254.11,416.03 257.07,416.41 260.03,416.67 262.99,416.94 265.95,417.20 268.91,417.47 271.87,417.73 274.83,417.99 277.79,418.16 280.75,418.32 283.71,418.49 286.67,418.65 289.63,418.82 292.59,418.98 295.55,419.10 298.51,419.22 301.47,419.33 304.43,419.45 307.38,419.57 310.34,419.69 313.31,419.79 316.26,419.88 319.22,419.98 322.18,420.08 325.14,420.18 328.10,420.27 331.06,420.40 334.02,420.53 336.98,420.66 339.94,420.79 342.90,420.92 345.86,421.04 348.82,421.31 351.78,421.59 354.74,421.86 357.70,422.13 360.66,422.40 363.62,422.67 366.59,423.15 369.53,423.63 372.50,424.12 375.47,424.60 378.41,425.08 381.38,425.56 384.35,426.21 387.29,426.85 390.26,427.50 393.22,428.14 396.17,428.79 399.14,429.43 402.10,430.18 405.05,430.94 408.02,431.69 410.98,432.44 413.93,433.19 416.90,433.94 419.86,434.77 422.81,435.59 425.78,436.42 428.74,437.25 431.69,438.07 434.66,438.90 437.62,439.82 440.57,440.74 443.53,441.65 446.50,442.57 449.45,443.49 452.41,444.40 455.38,445.48 458.33,446.55 461.29,447.62 464.26,448.70 467.21,449.77 470.17,450.85 473.14,451.98 476.09,453.11 479.05,454.24 482.02,455.37 484.97,456.51 487.93,457.64 490.90,458.57 493.84,459.50 496.81,460.43 499.78,461.36 502.72,462.29 505.69,463.21 508.66,463.77 511.60,464.33 514.57,464.88 517.53,465.44 520.48,466.00 523.45,466.55 526.41,466.58 529.36,466.60 532.33,466.63 535.29,466.65 538.24,466.67 541.21,466.69 544.17,466.04 547.12,465.40 550.09,464.75 553.05,464.10 556.00,463.45 558.97,462.81 561.93,461.49 564.88,460.18 567.84,458.86 570.81,457.55 573.76,456.23 576.72,454.92 579.69,453.06 582.64,451.20 585.60,449.34 588.57,447.48 591.52,445.61 594.48,443.75 597.45,441.55 600.40,439.34 603.36,437.14 606.33,434.94 609.28,432.73 612.24,430.53 615.21,428.21 618.15,425.89 621.12,423.57 624.09,421.25 627.03,418.93 630.00,416.61 632.97,414.36 635.91,412.12 638.88,409.88 641.84,407.64 644.79,405.40 647.76,403.16 650.72,401.14 653.67,399.12 656.64,397.11 659.60,395.09 662.55,393.07 665.52,391.05 668.48,389.35 671.43,387.66 674.40,385.96 677.36,384.27 680.31,382.57 683.28,380.88 686.24,379.54 689.19,378.20 692.16,376.87 695.12,375.53 698.07,374.19 701.03,372.86 704.00,371.92 706.95,370.98 709.91,370.04 712.88,369.10 715.83,368.16 718.79,367.22 721.76,366.68 724.71,366.13 727.67,365.59 730.64,365.05 733.59,364.50 736.55,363.96 739.52,363.81 742.47,363.67 745.43,363.53 748.40,363.39 751.34,363.24 754.31,363.10 757.28,363.61 760.22,364.12 763.19,364.63 766.16,365.15 769.10,365.66 772.07,366.17 775.03,367.62 777.98,369.07 780.95,370.53 783.91,371.98 786.86,373.43 789.83,374.88 792.79,377.19 795.74,379.50 798.71,381.81 801.67,384.11 804.62,386.42 807.59,388.73 810.55,391.23 813.50,393.74 816.47,396.24 819.43,398.74 822.38,401.25 825.34,403.75 828.31,405.76 831.26,407.77 834.22,409.77 837.19,411.78 840.14,413.79 843.10,415.80 846.07,417.09 849.02,418.39 851.98,419.68 854.95,420.97 857.90,422.27 860.86,423.56 863.83,424.15 866.78,424.73 869.74,425.32 872.71,425.90 875.66,426.49 878.62,427.07 881.59,427.07 884.53,427.07 887.50,427.07 890.47,427.07 893.41,427.07 896.38,427.07 899.34,426.74 902.29,426.41 905.26,426.08 908.22,425.76 911.17,425.43 914.14,425.10 917.10,424.69 920.05,424.29 923.02,423.89 925.98,423.48 928.93,423.08 931.90,422.68 934.86,422.31 937.81,421.94 940.78,421.57 943.74,421.20 946.69,420.83 949.66,420.46 952.62,420.09 955.57,419.71 958.53,419.34 961.50,418.97 964.45,418.60 967.41,418.23 970.38,417.75 973.33,417.28 976.29,416.81 979.26,416.34 982.21,415.87 985.17,415.40 988.14,414.79 991.09,414.17 994.05,413.56 997.02,412.94 999.97,412.33 1002.93,411.71 1005.90,410.89 1008.84,410.07 1011.81,409.25 1014.78,408.42 1017.72,407.60 1020.69,406.78 1023.66,406.01 1026.60,405.24 1029.57,404.48 1032.53,403.71 1035.48,402.94 1038.45,402.17 1041.41,401.26 1044.36,400.34 1047.33,399.43 1050.29,398.51 1053.24,397.59 1056.21,396.68 1059.17,396.05 1062.12,395.42 1065.09,394.79 1068.05,394.16 1071.00,393.53 1073.97,392.90" fill="none" stroke="#d62728" stroke-width="3"/>
<line x1="137" y1="128" x2="173" y2="128" stroke="#d62728" stroke-width="4"/>
<text x="183" y="133" font-family="Arial" font-size="18" fill="black">Uy</text>
<polyline points="186.03,150.76 188.99,150.90 191.95,151.03 194.91,151.17 197.87,151.31 200.83,151.45 203.79,151.59 206.75,152.38 209.71,153.17 212.67,153.96 215.63,154.75 218.59,155.54 221.55,156.34 224.51,157.61 227.47,158.88 230.43,160.16 233.39,161.43 236.35,162.70 239.31,163.97 242.27,165.09 245.23,166.22 248.19,167.34 251.15,168.47 254.11,169.59 257.07,170.71 260.03,171.69 262.99,172.67 265.95,173.65 268.91,174.63 271.87,175.61 274.83,176.59 277.79,177.61 280.75,178.64 283.71,179.65 286.67,180.68 289.63,181.70 292.59,182.73 295.55,183.96 298.51,185.18 301.47,186.42 304.43,187.65 307.38,188.88 310.34,190.11 313.31,191.61 316.26,193.12 319.22,194.62 322.18,196.12 325.14,197.62 328.10,199.13 331.06,200.92 334.02,202.71 336.98,204.50 339.94,206.29 342.90,208.09 345.86,209.87 348.82,212.07 351.78,214.27 354.74,216.47 357.70,218.67 360.66,220.86 363.62,223.06 366.59,226.35 369.53,229.65 372.50,232.95 375.47,236.24 378.41,239.54 381.38,242.83 384.35,247.35 387.29,251.86 390.26,256.38 393.22,260.90 396.17,265.42 399.14,269.93 402.10,274.88 405.05,279.82 408.02,284.76 410.98,289.71 413.93,294.66 416.90,299.60 419.86,304.53 422.81,309.47 425.78,314.41 428.74,319.34 431.69,324.28 434.66,329.22 437.62,334.15 440.57,339.08 443.53,344.01 446.50,348.94 449.45,353.87 452.41,358.80 455.38,363.97 458.33,369.14 461.29,374.30 464.26,379.47 467.21,384.63 470.17,389.80 473.14,395.30 476.09,400.80 479.05,406.30 482.02,411.80 484.97,417.30 487.93,422.80 490.90,428.53 493.84,434.26 496.81,439.99 499.78,445.71 502.72,451.44 505.69,457.17 508.66,463.03 511.60,468.89 514.57,474.75 517.53,480.61 520.48,486.47 523.45,492.33 526.41,498.08 529.36,503.83 532.33,509.58 535.29,515.34 538.24,521.09 541.21,526.84 544.17,531.78 547.12,536.72 550.09,541.65 553.05,546.59 556.00,551.53 558.97,556.47 561.93,560.24 564.88,564.00 567.84,567.77 570.81,571.53 573.76,575.30 576.72,579.07 579.69,581.97 582.64,584.87 585.60,587.78 588.57,590.69 591.52,593.59 594.48,596.50 597.45,598.85 600.40,601.19 603.36,603.54 606.33,605.88 609.28,608.23 612.24,610.58 615.21,612.61 618.15,614.65 621.12,616.69 624.09,618.72 627.03,620.76 630.00,622.79 632.97,624.73 635.91,626.65 638.88,628.58 641.84,630.51 644.79,632.43 647.76,634.36 650.72,636.25 653.67,638.13 656.64,640.02 659.60,641.90 662.55,643.79 665.52,645.67 668.48,647.36 671.43,649.03 674.40,650.71 677.36,652.40 680.31,654.07 683.28,655.75 686.24,656.72 689.19,657.68 692.16,658.65 695.12,659.62 698.07,660.58 701.03,661.55 704.00,660.70 706.95,659.86 709.91,659.01 712.88,658.16 715.83,657.32 718.79,656.46 721.76,653.03 724.71,649.59 727.67,646.15 730.64,642.71 733.59,639.26 736.55,635.83 739.52,629.41 742.47,623.00 745.43,616.58 748.40,610.17 751.34,603.76 754.31,597.35 757.28,588.08 760.22,578.81 763.19,569.54 766.16,560.28 769.10,551.01 772.07,541.74 775.03,531.40 777.98,521.06 780.95,510.71 783.91,500.37 786.86,490.03 789.83,479.69 792.79,470.58 795.74,461.47 798.71,452.36 801.67,443.25 804.62,434.14 807.59,425.03 810.55,418.40 813.50,411.77 816.47,405.14 819.43,398.51 822.38,391.88 825.34,385.25 828.31,380.82 831.26,376.39 834.22,371.95 837.19,367.52 840.14,363.09 843.10,358.65 846.07,355.51 849.02,352.37 851.98,349.22 854.95,346.08 857.90,342.93 860.86,339.79 863.83,337.59 866.78,335.40 869.74,333.21 872.71,331.02 875.66,328.83 878.62,326.63 881.59,325.45 884.53,324.28 887.50,323.10 890.47,321.93 893.41,320.75 896.38,319.57 899.34,318.55 902.29,317.52 905.26,316.50 908.22,315.47 911.17,314.44 914.14,313.41 917.10,311.50 920.05,309.58 923.02,307.66 925.98,305.74 928.93,303.82 931.90,301.90 934.86,299.06 937.81,296.21 940.78,293.37 943.74,290.52 946.69,287.68 949.66,284.84 952.62,281.27 955.57,277.71 958.53,274.15 961.50,270.59 964.45,267.03 967.41,263.47 970.38,259.37 973.33,255.27 976.29,251.17 979.26,247.06 982.21,242.96 985.17,238.86 988.14,234.32 991.09,229.78 994.05,225.24 997.02,220.70 999.97,216.16 1002.93,211.62 1005.90,206.79 1008.84,201.96 1011.81,197.14 1014.78,192.31 1017.72,187.49 1020.69,182.67 1023.66,177.90 1026.60,173.13 1029.57,168.37 1032.53,163.60 1035.48,158.84 1038.45,154.07 1041.41,150.03 1044.36,145.97 1047.33,141.93 1050.29,137.87 1053.24,133.83 1056.21,129.77 1059.17,128.03 1062.12,126.29 1065.09,124.55 1068.05,122.81 1071.00,121.07 1073.97,119.32" fill="none" stroke="#2ca02c" stroke-width="3"/>
<line x1="137" y1="156" x2="173" y2="156" stroke="#2ca02c" stroke-width="4"/>
<text x="183" y="161" font-family="Arial" font-size="18" fill="black">Uz</text>
<polyline points="186.03,150.63 188.99,150.66 191.95,150.68 194.91,150.70 197.87,150.72 200.83,150.74 203.79,150.77 206.75,151.02 209.71,151.28 212.67,151.53 215.63,151.78 218.59,152.03 221.55,152.29 224.51,152.84 227.47,153.39 230.43,153.94 233.39,154.50 236.35,155.05 239.31,155.60 242.27,156.09 245.23,156.59 248.19,157.08 251.15,157.58 254.11,158.07 257.07,158.56 260.03,159.21 262.99,159.86 265.95,160.51 268.91,161.16 271.87,161.81 274.83,162.46 277.79,163.48 280.75,164.51 283.71,165.53 286.67,166.55 289.63,167.57 292.59,168.59 295.55,169.99 298.51,171.38 301.47,172.77 304.43,174.17 307.38,175.56 310.34,176.95 313.31,178.56 316.26,180.17 319.22,181.78 322.18,183.39 325.14,185.00 328.10,186.61 331.06,188.27 334.02,189.94 336.98,191.61 339.94,193.27 342.90,194.94 345.86,196.60 348.82,198.30 351.78,200.00 354.74,201.69 357.70,203.39 360.66,205.09 363.62,206.78 366.59,208.99 369.53,211.19 372.50,213.40 375.47,215.60 378.41,217.81 381.38,220.02 384.35,222.60 387.29,225.18 390.26,227.75 393.22,230.33 396.17,232.91 399.14,235.49 402.10,237.51 405.05,239.54 408.02,241.56 410.98,243.59 413.93,245.61 416.90,247.63 419.86,248.73 422.81,249.83 425.78,250.93 428.74,252.02 431.69,253.12 434.66,254.22 437.62,254.53 440.57,254.84 443.53,255.16 446.50,255.47 449.45,255.78 452.41,256.09 455.38,255.84 458.33,255.58 461.29,255.32 464.26,255.07 467.21,254.81 470.17,254.55 473.14,253.74 476.09,252.92 479.05,252.10 482.02,251.28 484.97,250.46 487.93,249.64 490.90,248.23 493.84,246.83 496.81,245.42 499.78,244.00 502.72,242.59 505.69,241.18 508.66,239.18 511.60,237.17 514.57,235.17 517.53,233.16 520.48,231.16 523.45,229.16 526.41,226.71 529.36,224.26 532.33,221.80 535.29,219.36 538.24,216.90 541.21,214.45 544.17,212.16 547.12,209.85 550.09,207.55 553.05,205.25 556.00,202.95 558.97,200.65 561.93,198.92 564.88,197.20 567.84,195.47 570.81,193.75 573.76,192.02 576.72,190.29 579.69,188.93 582.64,187.55 585.60,186.19 588.57,184.81 591.52,183.45 594.48,182.07 597.45,180.78 600.40,179.49 603.36,178.20 606.33,176.91 609.28,175.62 612.24,174.33 615.21,172.92 618.15,171.52 621.12,170.10 624.09,168.69 627.03,167.29 630.00,165.87 632.97,164.24 635.91,162.60 638.88,160.97 641.84,159.34 644.79,157.70 647.76,156.06 650.72,154.24 653.67,152.42 656.64,150.60 659.60,148.78 662.55,146.96 665.52,145.14 668.48,143.39 671.43,141.65 674.40,139.91 677.36,138.16 680.31,136.42 683.28,134.67 686.24,133.59 689.19,132.51 692.16,131.42 695.12,130.35 698.07,129.26 701.03,128.18 704.00,128.93 706.95,129.68 709.91,130.42 712.88,131.16 715.83,131.91 718.79,132.66 721.76,136.08 724.71,139.50 727.67,142.92 730.64,146.34 733.59,149.76 736.55,153.18 739.52,159.65 742.47,166.12 745.43,172.60 748.40,179.07 751.34,185.54 754.31,192.02 757.28,201.11 760.22,210.20 763.19,219.29 766.16,228.38 769.10,237.47 772.07,246.56 775.03,254.99 777.98,263.41 780.95,271.84 783.91,280.26 786.86,288.69 789.83,297.12 792.79,298.93 795.74,300.74 798.71,302.55 801.67,304.37 804.62,306.18 807.59,307.99 810.55,303.94 813.50,299.89 816.47,295.84 819.43,291.79 822.38,287.74 825.34,283.69 828.31,279.63 831.26,275.56 834.22,271.50 837.19,267.44 840.14,263.38 843.10,259.32 846.07,256.70 849.02,254.09 851.98,251.48 854.95,248.86 857.90,246.26 860.86,243.64 863.83,242.31 866.78,240.99 869.74,239.66 872.71,238.33 875.66,237.00 878.62,235.67 881.59,235.32 884.53,234.97 887.50,234.61 890.47,234.27 893.41,233.91 896.38,233.56 899.34,233.46 902.29,233.35 905.26,233.25 908.22,233.14 911.17,233.04 914.14,232.94 917.10,232.32 920.05,231.70 923.02,231.08 925.98,230.46 928.93,229.84 931.90,229.22 934.86,227.91 937.81,226.60 940.78,225.30 943.74,224.00 946.69,222.69 949.66,221.38 952.62,219.48 955.57,217.59 958.53,215.69 961.50,213.79 964.45,211.89 967.41,209.99 970.38,207.63 973.33,205.27 976.29,202.91 979.26,200.55 982.21,198.19 985.17,195.83 988.14,193.07 991.09,190.31 994.05,187.55 997.02,184.79 999.97,182.03 1002.93,179.27 1005.90,176.20 1008.84,173.13 1011.81,170.06 1014.78,166.99 1017.72,163.93 1020.69,160.85 1023.66,157.74 1026.60,154.64 1029.57,151.53 1032.53,148.41 1035.48,145.30 1038.45,142.19 1041.41,139.56 1044.36,136.92 1047.33,134.29 1050.29,131.66 1053.24,129.02 1056.21,126.39 1059.17,125.06 1062.12,123.74 1065.09,122.42 1068.05,121.09 1071.00,119.77 1073.97,118.45" fill="none" stroke="#111111" stroke-width="3"/>
<line x1="137" y1="184" x2="173" y2="184" stroke="#111111" stroke-width="4"/>
<text x="183" y="189" font-family="Arial" font-size="18" fill="black">Umag</text>
</svg>