<svg xmlns="http://www.w3.org/2000/svg" width="1200" height="820" viewBox="0 0 1200 820">
<rect width="100%" height="100%" fill="white"/>
<text x="600.0" y="36" text-anchor="middle" font-family="Arial" font-size="24" fill="black">Velocity components along z-centerline</text>
<line x1="115.00" y1="75" x2="115.00" y2="705" stroke="#dddddd" stroke-width="1"/>
<text x="115.00" y="737" text-anchor="middle" font-family="Arial" font-size="16" fill="black">-0.240</text>
<line x1="372.50" y1="75" x2="372.50" y2="705" stroke="#dddddd" stroke-width="1"/>
<text x="372.50" y="737" text-anchor="middle" font-family="Arial" font-size="16" fill="black">0.630</text>
<line x1="630.00" y1="75" x2="630.00" y2="705" stroke="#dddddd" stroke-width="1"/>
<text x="630.00" y="737" text-anchor="middle" font-family="Arial" font-size="16" fill="black">1.500</text>
<line x1="887.50" y1="75" x2="887.50" y2="705" stroke="#dddddd" stroke-width="1"/>
<text x="887.50" y="737" text-anchor="middle" font-family="Arial" font-size="16" fill="black">2.370</text>
<line x1="1145.00" y1="75" x2="1145.00" y2="705" stroke="#dddddd" stroke-width="1"/>
<text x="1145.00" y="737" text-anchor="middle" font-family="Arial" font-size="16" fill="black">3.240</text>
<line x1="115" y1="705.00" x2="1145" y2="705.00" stroke="#dddddd" stroke-width="1"/>
<text x="99" y="710.00" text-anchor="end" font-family="Arial" font-size="16" fill="black">-0.526</text>
<line x1="115" y1="547.50" x2="1145" y2="547.50" stroke="#dddddd" stroke-width="1"/>
<text x="99" y="552.50" text-anchor="end" font-family="Arial" font-size="16" fill="black">-0.119</text>
<line x1="115" y1="390.00" x2="1145" y2="390.00" stroke="#dddddd" stroke-width="1"/>
<text x="99" y="395.00" text-anchor="end" font-family="Arial" font-size="16" fill="black">0.289</text>
<line x1="115" y1="232.50" x2="1145" y2="232.50" stroke="#dddddd" stroke-width="1"/>
<text x="99" y="237.50" text-anchor="end" font-family="Arial" font-size="16" fill="black">0.696</text>
<line x1="115" y1="75.00" x2="1145" y2="75.00" stroke="#dddddd" stroke-width="1"/>
<text x="99" y="80.00" text-anchor="end" font-family="Arial" font-size="16" fill="black">1.103</text>
<rect x="115" y="75" width="1030" height="630" fill="none" stroke="black" stroke-width="2"/>
<text x="630.0" y="785" text-anchor="middle" font-family="Arial" font-size="20" fill="black">z coordinate [m]</text>
<text x="34" y="390.0" transform="rotate(-90 34 390.0)" text-anchor="middle" font-family="Arial" font-size="20" fill="black">velocity [m/s]</text>
<polyline points="186.03,500.07 188.99,500.00 191.95,499.93 194.91,499.87 197.87,499.80 200.83,499.74 203.79,499.67 206.75,499.61 209.71,499.54 212.67,499.47 215.63,499.41 218.59,499.30 221.55,499.19 224.51,499.07 227.47,498.96 230.43,498.85 233.39,498.74 236.35,498.63 239.31,498.52 242.27,498.40 245.23,498.29 248.19,498.22 251.15,498.15 254.11,498.08 257.07,498.01 260.03,497.93 262.99,497.86 265.95,497.79 268.91,497.72 271.87,497.65 274.83,497.57 277.79,497.54 280.75,497.51 283.71,497.48 286.67,497.44 289.63,497.41 292.59,497.38 295.55,497.35 298.51,497.32 301.47,497.28 304.43,497.25 307.39,497.26 310.34,497.26 313.30,497.26 316.26,497.27 319.22,497.27 322.18,497.27 325.14,497.28 328.10,497.28 331.06,497.29 334.02,497.29 336.98,497.31 339.94,497.32 342.90,497.34 345.86,497.36 348.82,497.37 351.78,497.39 354.74,497.41 357.70,497.43 360.66,497.44 363.62,497.46 366.58,497.44 369.54,497.42 372.50,497.40 375.46,497.38 378.42,497.36 381.38,497.35 384.34,497.33 387.30,497.31 390.26,497.29 393.22,497.27 396.18,497.40 399.14,497.53 402.10,497.67 405.06,497.80 408.02,497.93 410.98,498.06 413.94,498.19 416.90,498.33 419.86,498.46 422.82,498.59 425.78,499.65 428.74,500.70 431.70,501.76 434.66,502.82 437.61,503.87 440.57,504.93 443.53,505.99 446.49,507.04 449.45,508.10 452.41,509.16 455.37,510.55 458.33,511.94 461.29,513.34 464.25,514.73 467.21,516.12 470.17,517.52 473.13,518.91 476.09,520.30 479.05,521.70 482.01,523.09 484.97,523.80 487.93,524.51 490.89,525.22 493.85,525.93 496.81,526.65 499.77,527.36 502.73,528.07 505.69,528.78 508.65,529.49 511.61,530.20 514.57,530.46 517.53,530.72 520.49,530.98 523.45,531.24 526.41,531.50 529.37,531.76 532.33,532.01 535.29,532.27 538.25,532.53 541.21,532.79 544.17,532.75 547.13,532.71 550.09,532.67 553.05,532.62 556.01,532.58 558.97,532.54 561.93,532.50 564.89,532.46 567.84,532.41 570.80,532.37 573.76,532.12 576.72,531.86 579.68,531.60 582.64,531.35 585.60,531.09 588.56,530.84 591.52,530.58 594.48,530.33 597.44,530.07 600.40,529.81 603.36,529.42 606.32,529.02 609.28,528.63 612.24,528.23 615.20,527.83 618.16,527.44 621.12,527.04 624.08,526.64 627.04,526.25 630.00,525.85 632.96,525.38 635.92,524.92 638.88,524.45 641.84,523.98 644.80,523.51 647.76,523.04 650.72,522.57 653.68,522.10 656.64,521.64 659.60,521.17 662.56,520.68 665.52,520.20 668.48,519.71 671.44,519.22 674.40,518.74 677.36,518.25 680.32,517.77 683.28,517.28 686.24,516.79 689.20,516.31 692.16,515.85 695.11,515.39 698.07,514.93 701.03,514.48 703.99,514.02 706.95,513.56 709.91,513.10 712.87,512.64 715.83,512.18 718.79,511.73 721.75,511.33 724.71,510.94 727.67,510.54 730.63,510.15 733.59,509.76 736.55,509.36 739.51,508.97 742.47,508.57 745.43,508.18 748.39,507.79 751.35,507.48 754.31,507.17 757.27,506.86 760.23,506.56 763.19,506.25 766.15,505.94 769.11,505.63 772.07,505.33 775.03,505.02 777.99,504.71 780.95,504.50 783.91,504.28 786.87,504.07 789.83,503.86 792.79,503.64 795.75,503.43 798.71,503.21 801.67,503.00 804.63,502.79 807.59,502.57 810.55,502.45 813.51,502.33 816.47,502.20 819.43,502.08 822.39,501.96 825.34,501.84 828.30,501.72 831.26,501.59 834.22,501.47 837.18,501.35 840.14,501.31 843.10,501.28 846.06,501.24 849.02,501.20 851.98,501.17 854.94,501.13 857.90,501.10 860.86,501.06 863.82,501.02 866.78,500.99 869.74,501.03 872.70,501.07 875.66,501.11 878.62,501.15 881.58,501.19 884.54,501.23 887.50,501.27 890.46,501.31 893.42,501.36 896.38,501.40 899.34,501.49 902.30,501.59 905.26,501.69 908.22,501.78 911.18,501.88 914.14,501.98 917.10,502.08 920.06,502.17 923.02,502.27 925.98,502.37 928.94,502.48 931.90,502.60 934.86,502.71 937.82,502.82 940.78,502.94 943.74,503.05 946.70,503.17 949.66,503.28 952.61,503.39 955.57,503.51 958.53,503.58 961.49,503.65 964.45,503.72 967.41,503.79 970.37,503.86 973.33,503.93 976.29,504.00 979.25,504.07 982.21,504.14 985.17,504.21 988.13,504.18 991.09,504.15 994.05,504.12 997.01,504.09 999.97,504.06 1002.93,504.03 1005.89,503.99 1008.85,503.96 1011.81,503.93 1014.77,503.90 1017.73,503.69 1020.69,503.47 1023.65,503.25 1026.61,503.03 1029.57,502.82 1032.53,502.60 1035.49,502.38 1038.45,502.16 1041.41,501.95 1044.37,501.73 1047.33,501.56 1050.29,501.38 1053.25,501.21 1056.21,501.04 1059.17,500.87 1062.13,500.70 1065.09,500.52 1068.05,500.35 1071.01,500.18 1073.97,500.01" fill="none" stroke="#1f77b4" stroke-width="3"/>
<line x1="137" y1="100" x2="173" y2="100" stroke="#1f77b4" stroke-width="4"/>
<text x="183" y="105" font-family="Arial" font-size="18" fill="black">Ux</text>
<polyline points="186.03,506.17 188.99,506.38 191.95,506.59 194.91,506.80 197.87,507.01 200.83,507.22 203.79,507.43 206.75,507.64 209.71,507.85 212.67,508.06 215.63,508.28 218.59,508.66 221.55,509.05 224.51,509.44 227.47,509.83 230.43,510.22 233.39,510.61 236.35,511.00 239.31,511.39 242.27,511.78 245.23,512.17 248.19,512.51 251.15,512.85 254.11,513.19 257.07,513.53 260.03,513.87 262.99,514.21 265.95,514.55 268.91,514.89 271.87,515.23 274.83,515.57 277.79,515.91 280.75,516.25 283.71,516.58 286.67,516.92 289.63,517.26 292.59,517.60 295.55,517.94 298.51,518.28 301.47,518.62 304.43,518.96 307.39,519.38 310.34,519.79 313.30,520.21 316.26,520.63 319.22,521.04 322.18,521.46 325.14,521.88 328.10,522.29 331.06,522.71 334.02,523.13 336.98,523.71 339.94,524.30 342.90,524.88 345.86,525.47 348.82,526.05 351.78,526.63 354.74,527.22 357.70,527.80 360.66,528.39 363.62,528.97 366.58,529.77 369.54,530.56 372.50,531.36 375.46,532.15 378.42,532.95 381.38,533.74 384.34,534.54 387.30,535.33 390.26,536.13 393.22,536.93 396.18,537.45 399.14,537.98 402.10,538.50 405.06,539.03 408.02,539.55 410.98,540.08 413.94,540.60 416.90,541.13 419.86,541.65 422.82,542.18 425.78,541.87 428.74,541.55 431.70,541.24 434.66,540.93 437.61,540.62 440.57,540.30 443.53,539.99 446.49,539.68 449.45,539.37 452.41,539.06 455.37,538.60 458.33,538.14 461.29,537.68 464.25,537.22 467.21,536.77 470.17,536.31 473.13,535.85 476.09,535.39 479.05,534.93 482.01,534.47 484.97,534.25 487.93,534.03 490.89,533.80 493.85,533.58 496.81,533.36 499.77,533.14 502.73,532.91 505.69,532.69 508.65,532.47 511.61,532.25 514.57,531.91 517.53,531.58 520.49,531.24 523.45,530.91 526.41,530.57 529.37,530.24 532.33,529.90 535.29,529.57 538.25,529.23 541.21,528.90 544.17,528.50 547.13,528.11 550.09,527.71 553.05,527.31 556.01,526.92 558.97,526.52 561.93,526.12 564.89,525.73 567.84,525.33 570.80,524.93 573.76,524.49 576.72,524.05 579.68,523.60 582.64,523.16 585.60,522.72 588.56,522.27 591.52,521.83 594.48,521.39 597.44,520.95 600.40,520.50 603.36,520.04 606.32,519.59 609.28,519.13 612.24,518.67 615.20,518.21 618.16,517.75 621.12,517.29 624.08,516.84 627.04,516.38 630.00,515.92 632.96,515.46 635.92,515.01 638.88,514.55 641.84,514.10 644.80,513.64 647.76,513.19 650.72,512.73 653.68,512.27 656.64,511.82 659.60,511.36 662.56,510.91 665.52,510.46 668.48,510.00 671.44,509.55 674.40,509.09 677.36,508.64 680.32,508.19 683.28,507.73 686.24,507.28 689.20,506.83 692.16,506.36 695.11,505.90 698.07,505.43 701.03,504.97 703.99,504.50 706.95,504.04 709.91,503.57 712.87,503.11 715.83,502.65 718.79,502.18 721.75,501.69 724.71,501.19 727.67,500.70 730.63,500.21 733.59,499.71 736.55,499.22 739.51,498.72 742.47,498.23 745.43,497.74 748.39,497.24 751.35,496.69 754.31,496.15 757.27,495.60 760.23,495.05 763.19,494.50 766.15,493.95 769.11,493.40 772.07,492.85 775.03,492.30 777.99,491.76 780.95,491.12 783.91,490.49 786.87,489.86 789.83,489.22 792.79,488.59 795.75,487.96 798.71,487.33 801.67,486.69 804.63,486.06 807.59,485.43 810.55,484.68 813.51,483.93 816.47,483.18 819.43,482.43 822.39,481.68 825.34,480.93 828.30,480.18 831.26,479.44 834.22,478.69 837.18,477.94 840.14,477.03 843.10,476.11 846.06,475.20 849.02,474.29 851.98,473.38 854.94,472.47 857.90,471.56 860.86,470.65 863.82,469.74 866.78,468.83 869.74,467.69 872.70,466.55 875.66,465.41 878.62,464.27 881.58,463.13 884.54,462.00 887.50,460.86 890.46,459.72 893.42,458.58 896.38,457.44 899.34,455.99 902.30,454.54 905.26,453.09 908.22,451.64 911.18,450.20 914.14,448.75 917.10,447.30 920.06,445.85 923.02,444.40 925.98,442.95 928.94,441.11 931.90,439.27 934.86,437.44 937.82,435.60 940.78,433.76 943.74,431.93 946.70,430.09 949.66,428.25 952.61,426.42 955.57,424.58 958.53,422.32 961.49,420.05 964.45,417.78 967.41,415.52 970.37,413.25 973.33,410.98 976.29,408.72 979.25,406.45 982.21,404.19 985.17,401.92 988.13,399.19 991.09,396.45 994.05,393.72 997.01,390.99 999.97,388.26 1002.93,385.53 1005.89,382.79 1008.85,380.06 1011.81,377.33 1014.77,374.60 1017.73,371.29 1020.69,368.00 1023.65,364.69 1026.61,361.39 1029.57,358.09 1032.53,354.79 1035.49,351.49 1038.45,348.19 1041.41,344.89 1044.37,341.59 1047.33,339.77 1050.29,337.97 1053.25,336.15 1056.21,334.34 1059.17,332.53 1062.13,330.72 1065.09,328.90 1068.05,327.09 1071.01,325.28 1073.97,323.47" fill="none" stroke="#d62728" stroke-width="3"/>
<line x1="137" y1="128" x2="173" y2="128" stroke="#d62728" stroke-width="4"/>
<text x="183" y="133" font-family="Arial" font-size="18" fill="black">Uy</text>
<polyline points="186.03,118.48 188.99,119.08 191.95,119.67 194.91,120.27 197.87,120.87 200.83,121.47 203.79,122.07 206.75,122.67 209.71,123.27 212.67,123.87 215.63,124.46 218.59,126.12 221.55,127.77 224.51,129.42 227.47,131.06 230.43,132.72 233.39,134.37 236.35,136.02 239.31,137.66 242.27,139.32 245.23,140.97 248.19,143.51 251.15,146.06 254.11,148.60 257.07,151.15 260.03,153.69 262.99,156.24 265.95,158.79 268.91,161.33 271.87,163.88 274.83,166.43 277.79,169.92 280.75,173.41 283.71,176.90 286.67,180.39 289.63,183.89 292.59,187.38 295.55,190.87 298.51,194.36 301.47,197.86 304.43,201.35 307.39,205.90 310.34,210.44 313.30,214.99 316.26,219.54 319.22,224.09 322.18,228.63 325.14,233.18 328.10,237.73 331.06,242.27 334.02,246.83 336.98,252.45 339.94,258.07 342.90,263.69 345.86,269.32 348.82,274.94 351.78,280.56 354.74,286.18 357.70,291.81 360.66,297.43 363.62,303.05 366.58,309.54 369.54,316.03 372.50,322.52 375.46,329.00 378.42,335.49 381.38,341.98 384.34,348.47 387.30,354.96 390.26,361.45 393.22,367.93 396.18,375.70 399.14,383.47 402.10,391.23 405.06,399.00 408.02,406.76 410.98,414.53 413.94,422.30 416.90,430.06 419.86,437.83 422.82,445.60 425.78,453.85 428.74,462.10 431.70,470.35 434.66,478.61 437.61,486.86 440.57,495.11 443.53,503.37 446.49,511.62 449.45,519.87 452.41,528.13 455.37,533.82 458.33,539.51 461.29,545.20 464.25,550.89 467.21,556.58 470.17,562.27 473.13,567.96 476.09,573.65 479.05,579.34 482.01,585.03 484.97,588.41 487.93,591.79 490.89,595.17 493.85,598.55 496.81,601.93 499.77,605.31 502.73,608.69 505.69,612.07 508.65,615.45 511.61,618.83 514.57,621.31 517.53,623.79 520.49,626.27 523.45,628.75 526.41,631.23 529.37,633.71 532.33,636.19 535.29,638.67 538.25,641.15 541.21,643.63 544.17,644.94 547.13,646.25 550.09,647.56 553.05,648.87 556.01,650.18 558.97,651.50 561.93,652.81 564.89,654.12 567.84,655.43 570.80,656.74 573.76,657.22 576.72,657.70 579.68,658.18 582.64,658.66 585.60,659.14 588.56,659.63 591.52,660.11 594.48,660.59 597.44,661.07 600.40,661.55 603.36,661.39 606.32,661.23 609.28,661.06 612.24,660.90 615.20,660.74 618.16,660.58 621.12,660.41 624.08,660.25 627.04,660.09 630.00,659.93 632.96,659.27 635.92,658.62 638.88,657.96 641.84,657.31 644.80,656.66 647.76,656.00 650.72,655.35 653.68,654.69 656.64,654.04 659.60,653.38 662.56,652.35 665.52,651.32 668.48,650.30 671.44,649.27 674.40,648.24 677.36,647.21 680.32,646.18 683.28,645.15 686.24,644.13 689.20,643.10 692.16,641.79 695.11,640.48 698.07,639.17 701.03,637.85 703.99,636.54 706.95,635.23 709.91,633.92 712.87,632.61 715.83,631.30 718.79,629.99 721.75,628.47 724.71,626.94 727.67,625.42 730.63,623.90 733.59,622.37 736.55,620.85 739.51,619.33 742.47,617.80 745.43,616.28 748.39,614.75 751.35,613.07 754.31,611.40 757.27,609.72 760.23,608.04 763.19,606.37 766.15,604.69 769.11,603.01 772.07,601.33 775.03,599.65 777.99,597.98 780.95,596.21 783.91,594.43 786.87,592.66 789.83,590.89 792.79,589.12 795.75,587.35 798.71,585.58 801.67,583.81 804.63,582.03 807.59,580.26 810.55,578.46 813.51,576.66 816.47,574.87 819.43,573.07 822.39,571.27 825.34,569.47 828.30,567.67 831.26,565.87 834.22,564.07 837.18,562.28 840.14,560.52 843.10,558.77 846.06,557.01 849.02,555.26 851.98,553.51 854.94,551.76 857.90,550.00 860.86,548.25 863.82,546.49 866.78,544.74 869.74,543.11 872.70,541.48 875.66,539.85 878.62,538.22 881.58,536.59 884.54,534.96 887.50,533.33 890.46,531.69 893.42,530.06 896.38,528.43 899.34,527.00 902.30,525.57 905.26,524.14 908.22,522.71 911.18,521.28 914.14,519.85 917.10,518.41 920.06,516.98 923.02,515.55 925.98,514.12 928.94,512.98 931.90,511.84 934.86,510.70 937.82,509.56 940.78,508.42 943.74,507.28 946.70,506.13 949.66,504.99 952.61,503.85 955.57,502.71 958.53,501.92 961.49,501.14 964.45,500.35 967.41,499.56 970.37,498.77 973.33,497.99 976.29,497.20 979.25,496.41 982.21,495.62 985.17,494.84 988.13,494.53 991.09,494.23 994.05,493.93 997.01,493.63 999.97,493.32 1002.93,493.02 1005.89,492.72 1008.85,492.41 1011.81,492.11 1014.77,491.81 1017.73,491.84 1020.69,491.87 1023.65,491.91 1026.61,491.94 1029.57,491.97 1032.53,492.00 1035.49,492.03 1038.45,492.07 1041.41,492.10 1044.37,492.13 1047.33,492.16 1050.29,492.19 1053.25,492.22 1056.21,492.26 1059.17,492.29 1062.13,492.32 1065.09,492.35 1068.05,492.38 1071.01,492.42 1073.97,492.45" fill="none" stroke="#2ca02c" stroke-width="3"/>
<line x1="137" y1="156" x2="173" y2="156" stroke="#2ca02c" stroke-width="4"/>
<text x="183" y="161" font-family="Arial" font-size="18" fill="black">Uz</text>
<polyline points="186.03,118.45 188.99,119.04 191.95,119.64 194.91,120.23 197.87,120.83 200.83,121.43 203.79,122.02 206.75,122.62 209.71,123.21 212.67,123.81 215.63,124.40 218.59,126.04 221.55,127.68 224.51,129.32 227.47,130.96 230.43,132.60 233.39,134.24 236.35,135.88 239.31,137.52 242.27,139.16 245.23,140.80 248.19,143.33 251.15,145.86 254.11,148.39 257.07,150.92 260.03,153.45 262.99,155.98 265.95,158.52 268.91,161.05 271.87,163.58 274.83,166.11 277.79,169.58 280.75,173.05 283.71,176.52 286.67,179.99 289.63,183.46 292.59,186.93 295.55,190.40 298.51,193.87 301.47,197.35 304.43,200.82 307.39,205.32 310.34,209.83 313.30,214.34 316.26,218.84 319.22,223.35 322.18,227.85 325.14,232.36 328.10,236.87 331.06,241.37 334.02,245.88 336.98,251.41 339.94,256.93 342.90,262.46 345.86,267.98 348.82,273.51 351.78,279.03 354.74,284.56 357.70,290.08 360.66,295.61 363.62,301.13 366.58,307.35 369.54,313.56 372.50,319.78 375.46,325.99 378.42,332.20 381.38,338.42 384.34,344.64 387.30,350.85 390.26,357.07 393.22,363.28 396.18,370.19 399.14,377.10 402.10,384.01 405.06,390.92 408.02,397.83 410.98,404.74 413.94,411.65 416.90,418.56 419.86,425.47 422.82,432.38 425.78,434.65 428.74,436.93 431.70,439.20 434.66,441.47 437.61,443.74 440.57,446.02 443.53,448.29 446.49,450.56 449.45,452.83 452.41,455.10 455.37,450.53 458.33,445.96 461.29,441.40 464.25,436.83 467.21,432.26 470.17,427.69 473.13,423.12 476.09,418.55 479.05,413.98 482.01,409.41 484.97,406.18 487.93,402.95 490.89,399.72 493.85,396.49 496.81,393.26 499.77,390.03 502.73,386.81 505.69,383.58 508.65,380.35 511.61,377.12 514.57,374.77 517.53,372.43 520.49,370.08 523.45,367.74 526.41,365.39 529.37,363.05 532.33,360.70 535.29,358.36 538.25,356.01 541.21,353.67 544.17,352.47 547.13,351.28 550.09,350.09 553.05,348.90 556.01,347.71 558.97,346.51 561.93,345.32 564.89,344.13 567.84,342.94 570.80,341.75 573.76,341.38 576.72,341.02 579.68,340.66 582.64,340.29 585.60,339.93 588.56,339.56 591.52,339.19 594.48,338.83 597.44,338.46 600.40,338.10 603.36,338.37 606.32,338.64 609.28,338.91 612.24,339.18 615.20,339.45 618.16,339.72 621.12,339.99 624.08,340.26 627.04,340.53 630.00,340.80 632.96,341.55 635.92,342.30 638.88,343.05 641.84,343.79 644.80,344.54 647.76,345.28 650.72,346.03 653.68,346.78 656.64,347.52 659.60,348.27 662.56,349.37 665.52,350.47 668.48,351.57 671.44,352.67 674.40,353.77 677.36,354.87 680.32,355.96 683.28,357.06 686.24,358.16 689.20,359.26 692.16,360.62 695.11,361.98 698.07,363.33 701.03,364.69 703.99,366.04 706.95,367.40 709.91,368.76 712.87,370.11 715.83,371.47 718.79,372.83 721.75,374.36 724.71,375.90 727.67,377.44 730.63,378.98 733.59,380.52 736.55,382.06 739.51,383.60 742.47,385.14 745.43,386.67 748.39,388.21 751.35,389.86 754.31,391.51 757.27,393.16 760.23,394.80 763.19,396.45 766.15,398.10 769.11,399.75 772.07,401.39 775.03,403.04 777.99,404.69 780.95,406.35 783.91,408.01 786.87,409.67 789.83,411.34 792.79,413.00 795.75,414.66 798.71,416.32 801.67,417.98 804.63,419.64 807.59,421.30 810.55,422.82 813.51,424.34 816.47,425.86 819.43,427.38 822.39,428.89 825.34,430.41 828.30,431.93 831.26,433.45 834.22,434.97 837.18,436.49 840.14,437.58 843.10,438.67 846.06,439.77 849.02,440.86 851.98,441.96 854.94,443.05 857.90,444.15 860.86,445.24 863.82,446.33 866.78,447.43 869.74,447.68 872.70,447.93 875.66,448.18 878.62,448.43 881.58,448.68 884.54,448.93 887.50,449.18 890.46,449.43 893.42,449.68 896.38,449.93 899.34,449.10 902.30,448.27 905.26,447.44 908.22,446.61 911.18,445.78 914.14,444.95 917.10,444.12 920.06,443.29 923.02,442.46 925.98,441.62 928.94,439.92 931.90,438.21 934.86,436.50 937.82,434.80 940.78,433.09 943.74,431.38 946.70,429.67 949.66,427.96 952.61,426.26 955.57,424.55 958.53,422.26 961.49,419.97 964.45,417.68 967.41,415.39 970.37,413.10 973.33,410.81 976.29,408.52 979.25,406.24 982.21,403.95 985.17,401.65 988.13,398.91 991.09,396.16 994.05,393.42 997.01,390.67 999.97,387.93 1002.93,385.18 1005.89,382.44 1008.85,379.69 1011.81,376.94 1014.77,374.20 1017.73,370.91 1020.69,367.62 1023.65,364.33 1026.61,361.04 1029.57,357.75 1032.53,354.46 1035.49,351.18 1038.45,347.89 1041.41,344.60 1044.37,341.31 1047.33,339.50 1050.29,337.69 1053.25,335.88 1056.21,334.08 1059.17,332.27 1062.13,330.46 1065.09,328.65 1068.05,326.84 1071.01,325.03 1073.97,323.22" fill="none" stroke="#111111" stroke-width="3"/>
<line x1="137" y1="184" x2="173" y2="184" stroke="#111111" stroke-width="4"/>
<text x="183" y="189" font-family="Arial" font-size="18" fill="black">Umag</text>
</svg>