<svg xmlns="http://www.w3.org/2000/svg" width="1200" height="820" viewBox="0 0 1200 820">
<rect width="100%" height="100%" fill="white"/>
<text x="600.0" y="36" text-anchor="middle" font-family="Arial" font-size="24" fill="black">Velocity components along x-centerline</text>
<line x1="115.00" y1="75" x2="115.00" y2="705" stroke="#dddddd" stroke-width="1"/>
<text x="115.00" y="737" text-anchor="middle" font-family="Arial" font-size="16" fill="black">-0.560</text>
<line x1="372.50" y1="75" x2="372.50" y2="705" stroke="#dddddd" stroke-width="1"/>
<text x="372.50" y="737" text-anchor="middle" font-family="Arial" font-size="16" fill="black">1.470</text>
<line x1="630.00" y1="75" x2="630.00" y2="705" stroke="#dddddd" stroke-width="1"/>
<text x="630.00" y="737" text-anchor="middle" font-family="Arial" font-size="16" fill="black">3.500</text>
<line x1="887.50" y1="75" x2="887.50" y2="705" stroke="#dddddd" stroke-width="1"/>
<text x="887.50" y="737" text-anchor="middle" font-family="Arial" font-size="16" fill="black">5.530</text>
<line x1="1145.00" y1="75" x2="1145.00" y2="705" stroke="#dddddd" stroke-width="1"/>
<text x="1145.00" y="737" text-anchor="middle" font-family="Arial" font-size="16" fill="black">7.560</text>
<line x1="115" y1="705.00" x2="1145" y2="705.00" stroke="#dddddd" stroke-width="1"/>
<text x="99" y="710.00" text-anchor="end" font-family="Arial" font-size="16" fill="black">-0.480</text>
<line x1="115" y1="547.50" x2="1145" y2="547.50" stroke="#dddddd" stroke-width="1"/>
<text x="99" y="552.50" text-anchor="end" font-family="Arial" font-size="16" fill="black">-0.238</text>
<line x1="115" y1="390.00" x2="1145" y2="390.00" stroke="#dddddd" stroke-width="1"/>
<text x="99" y="395.00" text-anchor="end" font-family="Arial" font-size="16" fill="black">0.004</text>
<line x1="115" y1="232.50" x2="1145" y2="232.50" stroke="#dddddd" stroke-width="1"/>
<text x="99" y="237.50" text-anchor="end" font-family="Arial" font-size="16" fill="black">0.246</text>
<line x1="115" y1="75.00" x2="1145" y2="75.00" stroke="#dddddd" stroke-width="1"/>
<text x="99" y="80.00" text-anchor="end" font-family="Arial" font-size="16" fill="black">0.488</text>
<rect x="115" y="75" width="1030" height="630" fill="none" stroke="black" stroke-width="2"/>
<text x="630.0" y="785" text-anchor="middle" font-family="Arial" font-size="20" fill="black">x coordinate [m]</text>
<text x="34" y="390.0" transform="rotate(-90 34 390.0)" text-anchor="middle" font-family="Arial" font-size="20" fill="black">velocity [m/s]</text>
<polyline points="186.03,373.23 188.99,370.88 191.95,368.53 194.91,366.18 197.87,363.83 200.83,359.84 203.79,355.18 206.75,350.53 209.71,345.88 212.67,341.48 215.63,337.43 218.59,333.37 221.55,329.32 224.51,325.36 227.47,322.02 230.43,318.68 233.39,315.33 236.35,311.99 239.31,308.78 242.27,305.60 245.23,302.42 248.19,299.22 251.15,295.98 254.11,292.69 257.07,289.41 260.03,286.12 262.99,282.78 265.95,279.31 268.91,275.84 271.87,272.37 274.83,268.89 277.79,265.30 280.75,261.71 283.71,258.12 286.67,254.53 289.63,250.99 292.59,247.48 295.55,243.96 298.51,240.45 301.47,237.09 304.42,233.94 307.39,230.77 310.34,227.61 313.30,224.55 316.27,222.04 319.22,219.53 322.18,217.02 325.15,214.50 328.10,212.73 331.06,211.09 334.03,209.43 336.98,207.78 339.94,206.53 342.91,205.56 345.86,204.59 348.82,203.63 351.79,202.71 354.74,201.92 357.70,201.12 360.67,200.32 363.62,199.52 366.58,198.82 369.54,198.11 372.50,197.41 375.46,196.71 378.42,196.84 381.38,197.29 384.33,197.75 387.30,198.21 390.26,199.63 393.21,202.34 396.18,205.04 399.14,207.75 402.09,210.74 405.06,215.40 408.02,220.07 410.97,224.74 413.94,229.40 416.90,234.75 419.85,240.21 422.82,245.68 425.78,251.15 428.73,256.49 431.70,261.74 434.66,266.98 437.61,272.23 440.58,277.26 443.53,281.75 446.49,286.23 449.46,290.71 452.41,295.20 455.37,298.78 458.34,302.37 461.29,305.95 464.25,309.54 467.22,312.54 470.17,315.32 473.13,318.08 476.10,320.86 479.05,323.32 482.01,325.38 484.98,327.45 487.93,329.51 490.89,331.47 493.85,332.87 496.81,334.27 499.77,335.66 502.73,337.06 505.69,337.95 508.65,338.74 511.61,339.54 514.57,340.33 517.52,340.88 520.49,341.25 523.45,341.61 526.40,341.98 529.37,342.31 532.33,342.54 535.28,342.78 538.25,343.01 541.21,343.25 544.16,343.72 547.13,344.18 550.09,344.65 553.04,345.12 556.01,346.00 558.97,347.05 561.92,348.09 564.89,349.13 567.84,350.54 570.80,352.43 573.77,354.32 576.72,356.21 579.68,358.25 582.65,361.17 585.60,364.10 588.56,367.02 591.53,369.94 594.48,373.83 597.44,377.88 600.41,381.93 603.36,385.98 606.32,390.62 609.29,395.69 612.24,400.76 615.20,405.83 618.17,411.06 621.12,416.68 624.08,422.29 627.04,427.91 630.00,433.52 632.96,439.08 635.92,444.63 638.88,450.19 641.83,455.74 644.80,460.89 647.76,465.89 650.71,470.88 653.68,475.88 656.64,480.46 659.59,484.47 662.56,488.49 665.52,492.50 668.47,496.35 671.44,499.13 674.40,501.91 677.35,504.69 680.32,507.47 683.28,509.10 686.23,510.52 689.20,511.94 692.16,513.37 695.11,514.01 698.08,514.07 701.03,514.13 703.99,514.19 706.96,513.89 709.91,512.71 712.87,511.52 715.84,510.35 718.79,509.16 721.75,506.97 724.72,504.78 727.67,502.60 730.63,500.41 733.60,497.69 736.55,494.76 739.51,491.83 742.48,488.90 745.43,485.74 748.39,482.31 751.35,478.86 754.31,475.42 757.27,471.94 760.23,468.19 763.19,464.45 766.15,460.71 769.11,456.97 772.07,453.16 775.02,449.34 777.99,445.52 780.95,441.70 783.90,438.00 786.87,434.38 789.83,430.76 792.78,427.14 795.75,423.69 798.71,420.63 801.66,417.58 804.63,414.52 807.59,411.47 810.54,409.42 813.51,407.37 816.47,405.32 819.42,403.27 822.39,402.29 825.34,401.73 828.30,401.17 831.27,400.61 834.22,400.84 837.18,402.14 840.15,403.44 843.10,404.73 846.06,406.27 849.03,409.27 851.98,412.27 854.94,415.27 857.91,418.26 860.86,421.45 863.82,424.67 866.79,427.90 869.74,431.12 872.70,433.08 875.67,434.09 878.62,435.10 881.58,436.11 884.54,436.36 887.50,434.69 890.46,433.03 893.42,431.36 896.38,429.70 899.33,427.96 902.30,426.22 905.26,424.49 908.21,422.75 911.18,422.21 914.14,422.16 917.09,422.11 920.06,422.05 923.02,422.48 925.97,423.54 928.94,424.60 931.90,425.67 934.85,426.78 937.82,428.17 940.78,429.57 943.73,430.96 946.70,432.36 949.66,433.60 952.61,434.83 955.58,436.05 958.53,437.27 961.49,438.16 964.46,438.81 967.41,439.46 970.37,440.11 973.34,440.52 976.29,440.33 979.25,440.14 982.22,439.96 985.17,439.77 988.13,438.79 991.10,437.80 994.05,436.81 997.01,435.83 999.98,434.45 1002.93,432.91 1005.89,431.38 1008.85,429.84 1011.81,428.23 1014.77,426.51 1017.73,424.80 1020.69,423.08 1023.65,421.38 1026.61,419.73 1029.57,418.09 1032.52,416.45 1035.49,414.81 1038.45,413.38 1041.40,412.00 1044.37,410.61 1047.33,409.23 1050.28,407.74 1053.25,406.18 1056.21,404.62 1059.16,403.06 1062.13,401.67 1065.09,400.71 1068.04,399.74 1071.01,398.77 1073.97,397.80" fill="none" stroke="#1f77b4" stroke-width="3"/>
<line x1="137" y1="100" x2="173" y2="100" stroke="#1f77b4" stroke-width="4"/>
<text x="183" y="105" font-family="Arial" font-size="18" fill="black">Ux</text>
<polyline points="186.03,287.56 188.99,287.13 191.95,286.69 194.91,286.25 197.87,285.81 200.83,285.18 203.79,284.48 206.75,283.77 209.71,283.07 212.67,282.53 215.63,282.20 218.59,281.86 221.55,281.54 224.51,281.25 227.47,281.23 230.43,281.22 233.39,281.21 236.35,281.19 239.31,281.32 242.27,281.47 245.23,281.63 248.19,281.78 251.15,281.99 254.11,282.25 257.07,282.51 260.03,282.77 262.99,283.08 265.95,283.50 268.91,283.93 271.87,284.37 274.83,284.80 277.79,285.60 280.75,286.39 283.71,287.18 286.67,287.98 289.63,289.22 292.59,290.63 295.55,292.04 298.51,293.45 301.47,295.19 304.42,297.39 307.39,299.60 310.34,301.80 313.30,304.12 316.27,307.14 319.22,310.16 322.18,313.19 325.15,316.21 328.10,319.83 331.06,323.56 334.03,327.28 336.98,331.01 339.94,335.00 342.91,339.19 345.86,343.38 348.82,347.57 351.79,351.78 354.74,356.05 357.70,360.32 360.67,364.60 363.62,368.87 366.58,372.87 369.54,376.88 372.50,380.88 375.46,384.89 378.42,388.67 381.38,392.36 384.33,396.05 387.30,399.74 390.26,403.32 393.21,406.76 396.18,410.19 399.14,413.63 402.09,416.99 405.06,419.94 408.02,422.89 410.97,425.84 413.94,428.79 416.90,430.92 419.85,432.92 422.82,434.92 425.78,436.92 428.73,438.13 431.70,438.74 434.66,439.35 437.61,439.97 440.58,440.13 443.53,439.18 446.49,438.22 449.46,437.27 452.41,436.31 455.37,433.98 458.34,431.65 461.29,429.32 464.25,426.99 467.22,424.03 470.17,420.83 473.13,417.62 476.10,414.41 479.05,411.09 482.01,407.64 484.98,404.18 487.93,400.72 490.89,397.32 493.85,394.25 496.81,391.17 499.77,388.10 502.73,385.02 505.69,382.70 508.65,380.50 511.61,378.30 514.57,376.10 517.52,374.53 520.49,373.42 523.45,372.32 526.40,371.22 529.37,370.41 532.33,370.34 535.28,370.27 538.25,370.20 541.21,370.13 544.16,370.85 547.13,371.57 550.09,372.29 553.04,373.01 556.01,374.10 558.97,375.33 561.92,376.56 564.89,377.79 567.84,379.15 570.80,380.68 573.77,382.22 576.72,383.75 579.68,385.32 582.65,387.08 585.60,388.84 588.56,390.61 591.53,392.37 594.48,394.35 597.44,396.36 600.41,398.37 603.36,400.38 606.32,402.41 609.29,404.47 612.24,406.52 615.20,408.57 618.17,410.49 621.12,412.07 624.08,413.64 627.04,415.22 630.00,416.79 632.96,417.56 635.92,418.34 638.88,419.11 641.83,419.88 644.80,420.16 647.76,420.24 650.71,420.33 653.68,420.41 656.64,420.32 659.59,420.01 662.56,419.69 665.52,419.37 668.47,419.03 671.44,418.60 674.40,418.17 677.35,417.73 680.32,417.30 683.28,416.96 686.23,416.65 689.20,416.33 692.16,416.01 695.11,415.85 698.08,415.80 701.03,415.76 703.99,415.71 706.96,415.75 709.91,416.02 712.87,416.29 715.84,416.56 718.79,416.83 721.75,417.36 724.72,417.88 727.67,418.41 730.63,418.93 733.60,419.55 736.55,420.21 739.51,420.87 742.48,421.52 745.43,422.17 748.39,422.79 751.35,423.41 754.31,424.03 757.27,424.62 760.23,425.02 763.19,425.41 766.15,425.81 769.11,426.20 772.07,426.22 775.02,426.18 777.99,426.14 780.95,426.10 783.90,425.70 786.87,425.03 789.83,424.37 792.78,423.70 795.75,422.83 798.71,421.44 801.66,420.06 804.63,418.67 807.59,417.29 810.54,415.28 813.51,413.27 816.47,411.27 819.42,409.26 822.39,407.09 825.34,404.85 828.30,402.61 831.27,400.36 834.22,398.30 837.18,396.48 840.15,394.66 843.10,392.83 846.06,391.16 849.03,390.35 851.98,389.54 854.94,388.73 857.91,387.92 860.86,388.09 863.82,388.43 866.79,388.77 869.74,389.11 872.70,389.89 875.67,391.00 878.62,392.11 881.58,393.21 884.54,394.22 887.50,394.95 890.46,395.68 893.42,396.42 896.38,397.15 899.33,396.05 902.30,394.96 905.26,393.86 908.21,392.76 911.18,390.16 914.14,386.95 917.09,383.74 920.06,380.53 923.02,376.67 925.97,371.93 928.94,367.20 931.90,362.46 934.85,357.59 937.82,351.87 940.78,346.15 943.73,340.43 946.70,334.71 949.66,328.76 952.61,322.77 955.58,316.78 958.53,310.79 961.49,305.14 964.46,299.76 967.41,294.39 970.37,289.00 973.34,284.03 976.29,280.08 979.25,276.13 982.22,272.17 985.17,268.21 988.13,266.27 991.10,264.33 994.05,262.39 997.01,260.45 999.98,260.11 1002.93,260.42 1005.89,260.73 1008.85,261.04 1011.81,262.29 1014.77,264.79 1017.73,267.29 1020.69,269.79 1023.65,272.58 1026.61,277.10 1029.57,281.63 1032.52,286.16 1035.49,290.68 1038.45,297.10 1041.40,303.83 1044.37,310.57 1047.33,317.31 1050.28,326.37 1053.25,337.16 1056.21,347.96 1059.16,358.76 1062.13,368.43 1065.09,375.24 1068.04,382.06 1071.01,388.88 1073.97,395.70" fill="none" stroke="#d62728" stroke-width="3"/>
<line x1="137" y1="128" x2="173" y2="128" stroke="#d62728" stroke-width="4"/>
<text x="183" y="133" font-family="Arial" font-size="18" fill="black">Uy</text>
<polyline points="186.03,424.97 188.99,424.32 191.95,423.67 194.91,423.02 197.87,422.37 200.83,421.17 203.79,419.75 206.75,418.33 209.71,416.91 212.67,415.39 215.63,413.74 218.59,412.10 221.55,410.45 224.51,408.77 227.47,406.90 230.43,405.03 233.39,403.16 236.35,401.28 239.31,399.21 242.27,397.11 245.23,395.00 248.19,392.90 251.15,390.67 254.11,388.35 257.07,386.03 260.03,383.71 262.99,381.37 265.95,378.97 268.91,376.56 271.87,374.16 274.83,371.75 277.79,369.56 280.75,367.37 283.71,365.18 286.67,362.99 289.63,361.28 292.59,359.77 295.55,358.26 298.51,356.75 301.47,355.71 304.42,355.32 307.39,354.93 310.34,354.54 313.30,354.34 316.27,355.25 319.22,356.17 322.18,357.09 325.15,358.00 328.10,359.77 331.06,361.68 334.03,363.59 336.98,365.50 339.94,367.70 342.91,370.12 345.86,372.54 348.82,374.96 351.79,377.51 354.74,380.41 357.70,383.32 360.67,386.22 363.62,389.12 366.58,393.04 369.54,396.96 372.50,400.87 375.46,404.79 378.42,409.57 381.38,414.68 384.33,419.80 387.30,424.91 390.26,430.13 393.21,435.48 396.18,440.83 399.14,446.19 402.09,451.40 405.06,455.80 408.02,460.20 410.97,464.60 413.94,469.00 416.90,472.36 419.85,475.53 422.82,478.70 425.78,481.88 428.73,484.70 431.70,487.24 434.66,489.77 437.61,492.32 440.58,494.90 443.53,497.59 446.49,500.27 449.46,502.95 452.41,505.64 455.37,508.92 458.34,512.20 461.29,515.48 464.25,518.75 467.22,522.44 470.17,526.28 473.13,530.12 476.10,533.96 479.05,537.88 482.01,541.92 484.98,545.95 487.93,549.98 490.89,553.98 493.85,557.77 496.81,561.55 499.77,565.34 502.73,569.12 505.69,572.48 508.65,575.76 511.61,579.05 514.57,582.34 517.52,585.36 520.49,588.20 523.45,591.02 526.40,593.85 529.37,596.62 532.33,599.25 535.28,601.88 538.25,604.50 541.21,607.13 544.16,609.84 547.13,612.55 550.09,615.26 553.04,617.97 556.01,620.83 558.97,623.74 561.92,626.65 564.89,629.57 567.84,632.50 570.80,635.45 573.77,638.40 576.72,641.35 579.68,644.23 582.65,646.71 585.60,649.19 588.56,651.66 591.53,654.14 594.48,655.73 597.44,657.18 600.41,658.61 603.36,660.06 606.32,660.82 609.29,661.06 612.24,661.30 615.20,661.54 618.17,661.55 621.12,661.00 624.08,660.44 627.04,659.88 630.00,659.33 632.96,658.52 635.92,657.70 638.88,656.88 641.83,656.07 644.80,655.12 647.76,654.13 650.71,653.13 653.68,652.14 656.64,650.95 659.59,649.50 662.56,648.07 665.52,646.62 668.47,645.08 671.44,642.95 674.40,640.82 677.35,638.69 680.32,636.56 683.28,633.82 686.23,630.98 689.20,628.14 692.16,625.29 695.11,622.15 698.08,618.78 701.03,615.40 703.99,612.02 706.96,608.58 709.91,604.96 712.87,601.34 715.84,597.73 718.79,594.11 721.75,590.53 724.72,586.95 727.67,583.37 730.63,579.79 733.60,576.36 736.55,573.00 739.51,569.64 742.48,566.28 745.43,563.05 748.39,560.01 751.35,556.96 754.31,553.90 757.27,550.90 760.23,548.19 763.19,545.48 766.15,542.77 769.11,540.06 772.07,537.62 775.02,535.24 777.99,532.85 780.95,530.46 783.90,528.23 786.87,526.13 789.83,524.02 792.78,521.92 795.75,519.87 798.71,517.98 801.66,516.08 804.63,514.19 807.59,512.29 810.54,510.48 813.51,508.65 816.47,506.84 819.42,505.02 822.39,503.07 825.34,501.07 828.30,499.07 831.27,497.07 834.22,494.82 837.18,492.25 840.15,489.68 843.10,487.11 846.06,484.38 849.03,480.74 851.98,477.10 854.94,473.46 857.91,469.82 860.86,464.95 863.82,459.87 866.79,454.80 869.74,449.72 872.70,444.22 875.67,438.41 878.62,432.60 881.58,426.78 884.54,421.82 887.50,418.96 890.46,416.10 893.42,413.25 896.38,410.39 899.33,412.10 902.30,413.81 905.26,415.52 908.21,417.23 911.18,419.59 914.14,422.22 917.09,424.85 920.06,427.47 923.02,429.54 925.97,430.85 928.94,432.17 931.90,433.48 934.85,434.61 937.82,434.57 940.78,434.54 943.73,434.50 946.70,434.47 949.66,433.10 952.61,431.51 955.58,429.92 958.53,428.33 961.49,425.90 964.46,422.83 967.41,419.76 970.37,416.69 973.34,413.25 976.29,408.91 979.25,404.57 982.22,400.22 985.17,395.88 988.13,390.29 991.10,384.71 994.05,379.12 997.01,373.54 999.98,366.91 1002.93,359.87 1005.89,352.83 1008.85,345.79 1011.81,338.02 1014.77,329.28 1017.73,320.54 1020.69,311.80 1023.65,302.83 1026.61,292.46 1029.57,282.09 1032.52,271.72 1035.49,261.35 1038.45,250.00 1041.40,238.49 1044.37,226.98 1047.33,215.47 1050.28,203.57 1053.25,191.39 1056.21,179.20 1059.16,167.02 1062.13,156.54 1065.09,150.31 1068.04,144.09 1071.01,137.86 1073.97,131.63" fill="none" stroke="#2ca02c" stroke-width="3"/>
<line x1="137" y1="156" x2="173" y2="156" stroke="#2ca02c" stroke-width="4"/>
<text x="183" y="161" font-family="Arial" font-size="18" fill="black">Uz</text>
<polyline points="186.03,281.01 188.99,280.27 191.95,279.53 194.91,278.78 197.87,278.04 200.83,276.50 203.79,274.62 206.75,272.75 209.71,270.88 212.67,269.00 215.63,267.11 218.59,265.22 221.55,263.33 224.51,261.48 227.47,259.80 230.43,258.11 233.39,256.44 236.35,254.76 239.31,252.98 242.27,251.18 245.23,249.38 248.19,247.59 251.15,245.60 254.11,243.48 257.07,241.35 260.03,239.23 262.99,237.00 265.95,234.54 268.91,232.08 271.87,229.61 274.83,227.15 277.79,224.55 280.75,221.96 283.71,219.36 286.67,216.77 289.63,214.37 292.59,212.04 295.55,209.71 298.51,207.37 301.47,205.33 304.42,203.66 307.39,202.00 310.34,200.34 313.30,198.79 316.27,198.02 319.22,197.24 322.18,196.46 325.15,195.69 328.10,195.62 331.06,195.68 334.03,195.74 336.98,195.80 339.94,196.06 342.91,196.50 345.86,196.93 348.82,197.36 351.79,197.68 354.74,197.77 357.70,197.85 360.67,197.94 363.62,198.02 366.58,197.54 369.54,197.06 372.50,196.57 375.46,196.09 378.42,195.81 381.38,195.61 384.33,195.42 387.30,195.22 390.26,195.56 393.21,196.60 396.18,197.64 399.14,198.68 402.09,199.89 405.06,202.12 408.02,204.35 410.97,206.57 413.94,208.79 416.90,211.41 419.85,214.10 422.82,216.78 425.78,219.47 428.73,221.98 431.70,224.37 434.66,226.76 437.61,229.15 440.58,231.29 443.53,232.77 446.49,234.26 449.46,235.75 452.41,237.24 455.37,237.36 458.34,237.48 461.29,237.60 464.25,237.71 467.22,236.74 470.17,235.34 473.13,233.92 476.10,232.52 479.05,230.60 482.01,227.98 484.98,225.37 487.93,222.77 490.89,220.08 493.85,216.94 496.81,213.80 499.77,210.66 502.73,207.51 505.69,204.43 508.65,201.36 511.61,198.29 514.57,195.22 517.52,192.34 520.49,189.60 523.45,186.86 526.40,184.11 529.37,181.44 532.33,178.95 535.28,176.46 538.25,173.96 541.21,171.47 544.16,169.00 547.13,166.53 550.09,164.06 553.04,161.60 556.01,159.06 558.97,156.49 561.92,153.92 564.89,151.35 567.84,148.79 570.80,146.25 573.77,143.71 576.72,141.16 579.68,138.68 582.65,136.57 585.60,134.45 588.56,132.34 591.53,130.23 594.48,128.85 597.44,127.59 600.41,126.33 603.36,125.06 606.32,124.26 609.29,123.81 612.24,123.36 615.20,122.92 618.17,122.54 621.12,122.37 624.08,122.20 627.04,122.03 630.00,121.86 632.96,121.51 635.92,121.15 638.88,120.80 641.83,120.44 644.80,120.03 647.76,119.59 650.71,119.16 653.68,118.72 656.64,118.47 659.59,118.46 662.56,118.45 665.52,118.45 668.47,118.56 671.44,119.43 674.40,120.29 677.35,121.16 680.32,122.02 683.28,123.80 686.23,125.73 689.20,127.66 692.16,129.58 695.11,132.09 698.08,135.02 701.03,137.95 703.99,140.88 706.96,144.03 709.91,147.71 712.87,151.40 715.84,155.08 718.79,158.77 721.75,162.88 724.72,166.99 727.67,171.10 730.63,175.21 733.60,179.41 736.55,183.65 739.51,187.88 742.48,192.12 745.43,196.32 748.39,200.47 751.35,204.61 754.31,208.76 757.27,212.87 760.23,216.76 763.19,220.66 766.15,224.55 769.11,228.45 772.07,232.03 775.02,235.57 777.99,239.11 780.95,242.65 783.90,245.95 786.87,249.08 789.83,252.20 792.78,255.32 795.75,258.33 798.71,261.03 801.66,263.73 804.63,266.44 807.59,269.15 810.54,271.52 813.51,273.89 816.47,276.26 819.42,278.62 822.39,280.91 825.34,283.17 828.30,285.43 831.27,287.69 834.22,290.04 837.18,292.50 840.15,294.97 843.10,297.43 846.06,299.94 849.03,302.77 851.98,305.59 854.94,308.41 857.91,311.24 860.86,314.28 863.82,317.35 866.79,320.43 869.74,323.51 872.70,326.76 875.67,330.14 878.62,333.53 881.58,336.92 884.54,340.14 887.50,342.96 890.46,345.78 893.42,348.60 896.38,351.43 899.33,352.02 902.30,352.61 905.26,353.20 908.21,353.79 911.18,352.29 914.14,349.96 917.09,347.64 920.06,345.31 923.02,342.46 925.97,338.92 928.94,335.38 931.90,331.84 934.85,328.19 937.82,323.87 940.78,319.54 943.73,315.22 946.70,310.90 949.66,306.37 952.61,301.82 955.58,297.26 958.53,292.70 961.49,288.38 964.46,284.23 967.41,280.09 970.37,275.94 973.34,272.08 976.29,268.96 979.25,265.83 982.22,262.70 985.17,259.57 988.13,257.71 991.10,255.86 994.05,254.00 997.01,252.14 999.98,250.86 1002.93,249.81 1005.89,248.76 1008.85,247.71 1011.81,246.43 1014.77,244.83 1017.73,243.24 1020.69,241.64 1023.65,239.74 1026.61,235.98 1029.57,232.23 1032.52,228.47 1035.49,224.72 1038.45,218.55 1041.40,211.97 1044.37,205.39 1047.33,198.81 1050.28,190.75 1053.25,181.57 1056.21,172.40 1059.16,163.23 1062.13,155.00 1065.09,149.15 1068.04,143.28 1071.01,137.42 1073.97,131.56" fill="none" stroke="#111111" stroke-width="3"/>
<line x1="137" y1="184" x2="173" y2="184" stroke="#111111" stroke-width="4"/>
<text x="183" y="189" font-family="Arial" font-size="18" fill="black">Umag</text>
</svg>