<svg xmlns="http://www.w3.org/2000/svg" width="1200" height="820" viewBox="0 0 1200 820">
<rect width="100%" height="100%" fill="white"/>
<text x="600.0" y="36" text-anchor="middle" font-family="Arial" font-size="24" fill="black">Umag profile along x-centerline</text>
<line x1="115.00" y1="75" x2="115.00" y2="705" stroke="#dddddd" stroke-width="1"/>
<text x="115.00" y="737" text-anchor="middle" font-family="Arial" font-size="16" fill="black">-0.560</text>
<line x1="372.50" y1="75" x2="372.50" y2="705" stroke="#dddddd" stroke-width="1"/>
<text x="372.50" y="737" text-anchor="middle" font-family="Arial" font-size="16" fill="black">1.470</text>
<line x1="630.00" y1="75" x2="630.00" y2="705" stroke="#dddddd" stroke-width="1"/>
<text x="630.00" y="737" text-anchor="middle" font-family="Arial" font-size="16" fill="black">3.500</text>
<line x1="887.50" y1="75" x2="887.50" y2="705" stroke="#dddddd" stroke-width="1"/>
<text x="887.50" y="737" text-anchor="middle" font-family="Arial" font-size="16" fill="black">5.530</text>
<line x1="1145.00" y1="75" x2="1145.00" y2="705" stroke="#dddddd" stroke-width="1"/>
<text x="1145.00" y="737" text-anchor="middle" font-family="Arial" font-size="16" fill="black">7.560</text>
<line x1="115" y1="705.00" x2="1145" y2="705.00" stroke="#dddddd" stroke-width="1"/>
<text x="99" y="710.00" text-anchor="end" font-family="Arial" font-size="16" fill="black">0.037</text>
<line x1="115" y1="547.50" x2="1145" y2="547.50" stroke="#dddddd" stroke-width="1"/>
<text x="99" y="552.50" text-anchor="end" font-family="Arial" font-size="16" fill="black">0.201</text>
<line x1="115" y1="390.00" x2="1145" y2="390.00" stroke="#dddddd" stroke-width="1"/>
<text x="99" y="395.00" text-anchor="end" font-family="Arial" font-size="16" fill="black">0.364</text>
<line x1="115" y1="232.50" x2="1145" y2="232.50" stroke="#dddddd" stroke-width="1"/>
<text x="99" y="237.50" text-anchor="end" font-family="Arial" font-size="16" fill="black">0.528</text>
<line x1="115" y1="75.00" x2="1145" y2="75.00" stroke="#dddddd" stroke-width="1"/>
<text x="99" y="80.00" text-anchor="end" font-family="Arial" font-size="16" fill="black">0.692</text>
<rect x="115" y="75" width="1030" height="630" fill="none" stroke="black" stroke-width="2"/>
<text x="630.0" y="785" text-anchor="middle" font-family="Arial" font-size="20" fill="black">x coordinate [m]</text>
<text x="34" y="390.0" transform="rotate(-90 34 390.0)" text-anchor="middle" font-family="Arial" font-size="20" fill="black">Umag [m/s]</text>
<polyline points="186.03,118.45 188.99,129.23 191.95,140.01 194.91,150.80 197.87,161.58 200.83,179.34 203.79,199.91 206.75,220.47 209.71,241.03 212.67,260.80 215.63,279.49 218.59,298.18 221.55,316.87 224.51,335.28 227.47,351.97 230.43,368.66 233.39,385.35 236.35,402.04 239.31,416.40 242.27,430.36 245.23,444.33 248.19,458.30 251.15,469.95 254.11,479.88 257.07,489.81 260.03,499.73 262.99,508.15 265.95,512.78 268.91,517.40 271.87,522.02 274.83,526.65 277.79,526.41 280.75,526.17 283.71,525.93 286.67,525.69 289.63,523.88 292.59,521.44 295.55,519.00 298.51,516.56 301.47,514.41 304.42,512.61 307.39,510.82 310.34,509.02 313.30,507.54 316.27,507.95 319.22,508.35 322.18,508.77 325.15,509.17 328.10,511.80 331.06,514.80 334.03,517.80 336.98,520.79 339.94,525.07 342.91,530.32 345.86,535.57 348.82,540.82 351.79,546.51 354.74,553.35 357.70,560.19 360.67,567.01 363.62,573.85 366.58,581.45 369.54,589.05 372.50,596.65 375.46,604.24 378.42,611.59 381.38,618.84 384.33,626.08 387.30,633.33 390.26,639.64 393.21,644.71 396.18,649.78 399.14,654.84 402.09,659.27 405.06,659.84 408.02,660.41 410.97,660.98 413.94,661.55 416.90,658.41 419.85,654.65 422.82,650.89 425.78,647.13 428.73,642.36 431.70,636.82 434.66,631.28 437.61,625.75 440.58,620.19 443.53,614.58 446.49,608.97 449.46,603.36 452.41,597.73 455.37,592.73 458.34,587.71 461.29,582.69 464.25,577.69 467.22,573.28 470.17,569.11 473.13,564.94 476.10,560.77 479.05,557.01 482.01,553.77 484.98,550.54 487.93,547.30 490.89,544.21 493.85,541.96 496.81,539.71 499.77,537.46 502.73,535.20 505.69,533.84 508.65,532.60 511.61,531.38 514.57,530.15 517.52,529.53 520.49,529.37 523.45,529.20 526.40,529.04 529.37,529.19 532.33,530.09 535.28,531.00 538.25,531.90 541.21,532.81 544.16,534.69 547.13,536.58 550.09,538.46 553.04,540.34 556.01,542.69 558.97,545.22 561.92,547.77 564.89,550.30 567.84,552.78 570.80,555.18 573.77,557.59 576.72,559.99 579.68,562.19 582.65,563.19 585.60,564.19 588.56,565.18 591.53,566.18 594.48,565.12 597.44,563.73 600.41,562.33 603.36,560.94 606.32,558.58 609.29,555.52 612.24,552.45 615.20,549.38 618.17,546.51 621.12,544.18 624.08,541.84 627.04,539.49 630.00,537.15 632.96,537.36 635.92,537.57 638.88,537.77 641.83,537.98 644.80,539.73 647.76,542.07 650.71,544.42 653.68,546.77 656.64,549.23 659.59,551.85 662.56,554.47 665.52,557.09 668.47,559.54 671.44,560.99 674.40,562.46 677.35,563.91 680.32,565.37 683.28,565.64 686.23,565.70 689.20,565.77 692.16,565.84 695.11,565.36 698.08,564.46 701.03,563.57 703.99,562.67 706.96,561.58 709.91,560.01 712.87,558.44 715.84,556.87 718.79,555.30 721.75,553.05 724.72,550.80 727.67,548.55 730.63,546.29 733.60,543.42 736.55,540.31 739.51,537.21 742.48,534.11 745.43,530.58 748.39,526.50 751.35,522.43 754.31,518.34 757.27,514.15 760.23,509.19 763.19,504.23 766.15,499.27 769.11,494.31 772.07,488.88 775.02,483.35 777.99,477.83 780.95,472.31 783.90,466.75 786.87,461.17 789.83,455.58 792.78,450.00 795.75,444.59 798.71,439.59 801.66,434.60 804.63,429.61 807.59,424.61 810.54,420.92 813.51,417.23 816.47,413.53 819.42,409.84 822.39,407.55 825.34,405.83 828.30,404.11 831.27,402.37 834.22,401.70 837.18,402.43 840.15,403.16 843.10,403.89 846.06,405.00 849.03,408.38 851.98,411.76 854.94,415.15 857.91,418.53 860.86,424.06 863.82,429.96 866.79,435.86 869.74,441.75 872.70,448.84 875.67,456.83 878.62,464.84 881.58,472.84 884.54,481.26 887.50,490.76 890.46,500.27 893.42,509.78 896.38,519.28 899.33,529.56 902.30,539.83 905.26,550.11 908.21,560.38 911.18,570.48 914.14,580.51 917.09,590.53 920.06,600.56 923.02,609.79 925.97,617.93 928.94,626.09 931.90,634.23 934.85,641.74 937.82,645.38 940.78,649.02 943.73,652.66 946.70,656.30 949.66,654.87 952.61,652.59 955.58,650.31 958.53,648.04 961.49,643.82 964.46,638.15 967.41,632.48 970.37,626.81 973.34,620.91 976.29,614.46 979.25,608.01 982.22,601.56 985.17,595.10 988.13,588.99 991.10,582.88 994.05,576.76 997.01,570.65 999.98,565.08 1002.93,559.72 1005.89,554.37 1008.85,549.02 1011.81,544.09 1014.77,539.74 1017.73,535.39 1020.69,531.03 1023.65,526.87 1026.61,523.77 1029.57,520.66 1032.52,517.56 1035.49,514.46 1038.45,512.68 1041.40,511.13 1044.37,509.58 1047.33,508.03 1050.28,507.71 1053.25,508.29 1056.21,508.88 1059.16,509.47 1062.13,510.14 1065.09,511.06 1068.04,511.97 1071.01,512.89 1073.97,513.80" fill="none" stroke="#111111" stroke-width="3"/>
<line x1="137" y1="100" x2="173" y2="100" stroke="#111111" stroke-width="4"/>
<text x="183" y="105" font-family="Arial" font-size="18" fill="black">Umag</text>
</svg>