<svg xmlns="http://www.w3.org/2000/svg" width="1200" height="820" viewBox="0 0 1200 820">
<rect width="100%" height="100%" fill="white"/>
<text x="600.0" y="36" text-anchor="middle" font-family="Arial" font-size="24" fill="black">Uz profile along z-centerline</text>
<line x1="115.00" y1="75" x2="115.00" y2="705" stroke="#dddddd" stroke-width="1"/>
<text x="115.00" y="737" text-anchor="middle" font-family="Arial" font-size="16" fill="black">-0.240</text>
<line x1="372.50" y1="75" x2="372.50" y2="705" stroke="#dddddd" stroke-width="1"/>
<text x="372.50" y="737" text-anchor="middle" font-family="Arial" font-size="16" fill="black">0.630</text>
<line x1="630.00" y1="75" x2="630.00" y2="705" stroke="#dddddd" stroke-width="1"/>
<text x="630.00" y="737" text-anchor="middle" font-family="Arial" font-size="16" fill="black">1.500</text>
<line x1="887.50" y1="75" x2="887.50" y2="705" stroke="#dddddd" stroke-width="1"/>
<text x="887.50" y="737" text-anchor="middle" font-family="Arial" font-size="16" fill="black">2.370</text>
<line x1="1145.00" y1="75" x2="1145.00" y2="705" stroke="#dddddd" stroke-width="1"/>
<text x="1145.00" y="737" text-anchor="middle" font-family="Arial" font-size="16" fill="black">3.240</text>
<line x1="115" y1="705.00" x2="1145" y2="705.00" stroke="#dddddd" stroke-width="1"/>
<text x="99" y="710.00" text-anchor="end" font-family="Arial" font-size="16" fill="black">-0.150</text>
<line x1="115" y1="547.50" x2="1145" y2="547.50" stroke="#dddddd" stroke-width="1"/>
<text x="99" y="552.50" text-anchor="end" font-family="Arial" font-size="16" fill="black">0.018</text>
<line x1="115" y1="390.00" x2="1145" y2="390.00" stroke="#dddddd" stroke-width="1"/>
<text x="99" y="395.00" text-anchor="end" font-family="Arial" font-size="16" fill="black">0.186</text>
<line x1="115" y1="232.50" x2="1145" y2="232.50" stroke="#dddddd" stroke-width="1"/>
<text x="99" y="237.50" text-anchor="end" font-family="Arial" font-size="16" fill="black">0.354</text>
<line x1="115" y1="75.00" x2="1145" y2="75.00" stroke="#dddddd" stroke-width="1"/>
<text x="99" y="80.00" text-anchor="end" font-family="Arial" font-size="16" fill="black">0.523</text>
<rect x="115" y="75" width="1030" height="630" fill="none" stroke="black" stroke-width="2"/>
<text x="630.0" y="785" text-anchor="middle" font-family="Arial" font-size="20" fill="black">z coordinate [m]</text>
<text x="34" y="390.0" transform="rotate(-90 34 390.0)" text-anchor="middle" font-family="Arial" font-size="20" fill="black">Uz [m/s]</text>
<polyline points="186.03,118.45 188.99,122.20 191.95,125.95 194.91,129.70 197.87,133.45 200.83,137.20 203.79,140.96 206.75,144.70 209.71,148.45 212.67,152.20 215.63,155.95 218.59,165.70 221.55,175.44 224.51,185.18 227.47,194.93 230.43,204.67 233.39,214.42 236.35,224.17 239.31,233.91 242.27,243.65 245.23,253.40 248.19,267.31 251.15,281.22 254.11,295.14 257.07,309.06 260.03,322.98 262.99,336.90 265.95,350.82 268.91,364.73 271.87,378.64 274.83,392.56 277.79,408.10 280.75,423.64 283.71,439.18 286.67,454.71 289.63,470.25 292.59,485.78 295.55,501.32 298.51,516.86 301.47,532.40 304.43,547.93 307.39,557.21 310.34,566.49 313.30,575.77 316.26,585.05 319.22,594.33 322.18,603.61 325.14,612.89 328.10,622.17 331.06,631.46 334.02,640.74 336.98,642.82 339.94,644.90 342.90,646.98 345.86,649.06 348.82,651.14 351.78,653.22 354.74,655.31 357.70,657.39 360.66,659.47 363.62,661.55 366.58,660.94 369.54,660.33 372.50,659.73 375.46,659.12 378.42,658.51 381.38,657.90 384.34,657.29 387.30,656.68 390.26,656.07 393.22,655.46 396.18,652.84 399.14,650.21 402.10,647.59 405.06,644.97 408.02,642.35 410.98,639.72 413.94,637.10 416.90,634.48 419.86,631.86 422.82,629.23 425.78,625.96 428.74,622.69 431.70,619.41 434.66,616.14 437.61,612.86 440.57,609.59 443.53,606.32 446.49,603.04 449.45,599.77 452.41,596.49 455.37,593.26 458.33,590.02 461.29,586.78 464.25,583.55 467.21,580.31 470.17,577.07 473.13,573.84 476.09,570.60 479.05,567.36 482.01,564.13 484.97,561.18 487.93,558.23 490.89,555.29 493.85,552.34 496.81,549.40 499.77,546.45 502.73,543.51 505.69,540.56 508.65,537.61 511.61,534.67 514.57,532.02 517.53,529.38 520.49,526.73 523.45,524.08 526.41,521.44 529.37,518.79 532.33,516.15 535.29,513.50 538.25,510.86 541.21,508.21 544.17,505.77 547.13,503.33 550.09,500.89 553.05,498.45 556.01,496.01 558.97,493.57 561.93,491.13 564.89,488.69 567.84,486.25 570.80,483.81 573.76,481.52 576.72,479.23 579.68,476.94 582.64,474.65 585.60,472.36 588.56,470.07 591.52,467.78 594.48,465.49 597.44,463.20 600.40,460.92 603.36,458.75 606.32,456.60 609.28,454.44 612.24,452.29 615.20,450.14 618.16,447.98 621.12,445.82 624.08,443.66 627.04,441.51 630.00,439.36 632.96,437.35 635.92,435.35 638.88,433.33 641.84,431.33 644.80,429.32 647.76,427.32 650.72,425.32 653.68,423.31 656.64,421.31 659.60,419.30 662.56,417.50 665.52,415.71 668.48,413.91 671.44,412.11 674.40,410.31 677.36,408.51 680.32,406.71 683.28,404.91 686.24,403.11 689.20,401.31 692.16,399.81 695.11,398.31 698.07,396.81 701.03,395.31 703.99,393.81 706.95,392.31 709.91,390.80 712.87,389.30 715.83,387.80 718.79,386.31 721.75,385.21 724.71,384.11 727.67,383.03 730.63,381.93 733.59,380.84 736.55,379.75 739.51,378.65 742.47,377.57 745.43,376.47 748.39,375.37 751.35,374.81 754.31,374.24 757.27,373.68 760.23,373.11 763.19,372.55 766.15,371.97 769.11,371.41 772.07,370.84 775.03,370.28 777.99,369.71 780.95,369.76 783.91,369.83 786.87,369.89 789.83,369.94 792.79,370.00 795.75,370.06 798.71,370.12 801.67,370.18 804.63,370.23 807.59,370.29 810.55,371.04 813.51,371.78 816.47,372.53 819.43,373.27 822.39,374.02 825.34,374.76 828.30,375.50 831.26,376.25 834.22,376.99 837.18,377.73 840.14,379.17 843.10,380.61 846.06,382.05 849.02,383.49 851.98,384.93 854.94,386.37 857.90,387.80 860.86,389.25 863.82,390.69 866.78,392.12 869.74,394.21 872.70,396.31 875.66,398.40 878.62,400.49 881.58,402.57 884.54,404.66 887.50,406.75 890.46,408.84 893.42,410.93 896.38,413.02 899.34,415.66 902.30,418.30 905.26,420.93 908.22,423.57 911.18,426.21 914.14,428.86 917.10,431.50 920.06,434.14 923.02,436.78 925.98,439.42 928.94,442.46 931.90,445.49 934.86,448.53 937.82,451.57 940.78,454.61 943.74,457.65 946.70,460.69 949.66,463.73 952.61,466.76 955.57,469.81 958.53,472.99 961.49,476.18 964.45,479.37 967.41,482.56 970.37,485.75 973.33,488.94 976.29,492.13 979.25,495.32 982.21,498.51 985.17,501.70 988.13,504.81 991.09,507.91 994.05,511.01 997.01,514.12 999.97,517.22 1002.93,520.33 1005.89,523.43 1008.85,526.54 1011.81,529.64 1014.77,532.74 1017.73,534.71 1020.69,536.67 1023.65,538.63 1026.61,540.59 1029.57,542.56 1032.53,544.52 1035.49,546.48 1038.45,548.45 1041.41,550.41 1044.37,552.37 1047.33,552.82 1050.29,553.27 1053.25,553.73 1056.21,554.18 1059.17,554.63 1062.13,555.08 1065.09,555.53 1068.05,555.99 1071.01,556.44 1073.97,556.89" fill="none" stroke="#2ca02c" stroke-width="3"/>
<line x1="137" y1="100" x2="173" y2="100" stroke="#2ca02c" stroke-width="4"/>
<text x="183" y="105" font-family="Arial" font-size="18" fill="black">Uz</text>
</svg>