<svg xmlns="http://www.w3.org/2000/svg" width="1200" height="820" viewBox="0 0 1200 820">
<rect width="100%" height="100%" fill="white"/>
<text x="600.0" y="36" text-anchor="middle" font-family="Arial" font-size="24" fill="black">Velocity components along x-centerline</text>
<line x1="115.00" y1="75" x2="115.00" y2="705" stroke="#dddddd" stroke-width="1"/>
<text x="115.00" y="737" text-anchor="middle" font-family="Arial" font-size="16" fill="black">-0.560</text>
<line x1="372.50" y1="75" x2="372.50" y2="705" stroke="#dddddd" stroke-width="1"/>
<text x="372.50" y="737" text-anchor="middle" font-family="Arial" font-size="16" fill="black">1.470</text>
<line x1="630.00" y1="75" x2="630.00" y2="705" stroke="#dddddd" stroke-width="1"/>
<text x="630.00" y="737" text-anchor="middle" font-family="Arial" font-size="16" fill="black">3.500</text>
<line x1="887.50" y1="75" x2="887.50" y2="705" stroke="#dddddd" stroke-width="1"/>
<text x="887.50" y="737" text-anchor="middle" font-family="Arial" font-size="16" fill="black">5.530</text>
<line x1="1145.00" y1="75" x2="1145.00" y2="705" stroke="#dddddd" stroke-width="1"/>
<text x="1145.00" y="737" text-anchor="middle" font-family="Arial" font-size="16" fill="black">7.560</text>
<line x1="115" y1="705.00" x2="1145" y2="705.00" stroke="#dddddd" stroke-width="1"/>
<text x="99" y="710.00" text-anchor="end" font-family="Arial" font-size="16" fill="black">-0.744</text>
<line x1="115" y1="547.50" x2="1145" y2="547.50" stroke="#dddddd" stroke-width="1"/>
<text x="99" y="552.50" text-anchor="end" font-family="Arial" font-size="16" fill="black">-0.371</text>
<line x1="115" y1="390.00" x2="1145" y2="390.00" stroke="#dddddd" stroke-width="1"/>
<text x="99" y="395.00" text-anchor="end" font-family="Arial" font-size="16" fill="black">0.002</text>
<line x1="115" y1="232.50" x2="1145" y2="232.50" stroke="#dddddd" stroke-width="1"/>
<text x="99" y="237.50" text-anchor="end" font-family="Arial" font-size="16" fill="black">0.376</text>
<line x1="115" y1="75.00" x2="1145" y2="75.00" stroke="#dddddd" stroke-width="1"/>
<text x="99" y="80.00" text-anchor="end" font-family="Arial" font-size="16" fill="black">0.749</text>
<rect x="115" y="75" width="1030" height="630" fill="none" stroke="black" stroke-width="2"/>
<text x="630.0" y="785" text-anchor="middle" font-family="Arial" font-size="20" fill="black">x coordinate [m]</text>
<text x="34" y="390.0" transform="rotate(-90 34 390.0)" text-anchor="middle" font-family="Arial" font-size="20" fill="black">velocity [m/s]</text>
<polyline points="186.03,399.73 188.99,400.42 191.95,401.10 194.91,401.79 197.87,402.47 200.83,403.80 203.79,405.37 206.75,406.95 209.71,408.53 212.67,410.05 215.63,411.50 218.59,412.94 221.55,414.39 224.51,415.76 227.47,416.69 230.43,417.62 233.39,418.54 236.35,419.47 239.31,420.06 242.27,420.60 245.23,421.13 248.19,421.67 251.15,421.98 254.11,422.11 257.07,422.24 260.03,422.37 262.99,422.40 265.95,422.16 268.91,421.93 271.87,421.69 274.83,421.45 277.79,420.92 280.75,420.39 283.71,419.87 286.67,419.34 289.63,418.67 292.59,417.94 295.55,417.21 298.51,416.48 301.47,415.68 304.42,414.78 307.39,413.88 310.34,412.97 313.30,412.05 316.27,410.98 319.22,409.92 322.18,408.85 325.15,407.78 328.10,406.59 331.06,405.38 334.03,404.16 336.98,402.95 339.94,401.64 342.91,400.28 345.86,398.91 348.82,397.55 351.79,396.14 354.74,394.62 357.70,393.09 360.67,391.57 363.62,390.05 366.58,388.37 369.54,386.70 372.50,385.02 375.46,383.34 378.42,381.57 381.38,379.76 384.33,377.95 387.30,376.14 390.26,374.29 393.21,372.40 396.18,370.51 399.14,368.62 402.09,366.72 405.06,364.82 408.02,362.92 410.97,361.02 413.94,359.12 416.90,357.29 419.85,355.47 422.82,353.64 425.78,351.82 428.73,350.08 431.70,348.40 434.66,346.72 437.61,345.04 440.58,343.41 443.53,341.91 446.49,340.41 449.46,338.91 452.41,337.41 455.37,336.11 458.34,334.80 461.29,333.49 464.25,332.18 467.22,331.03 470.17,329.94 473.13,328.85 476.10,327.76 479.05,326.77 482.01,325.93 484.98,325.07 487.93,324.23 490.89,323.42 493.85,322.85 496.81,322.27 499.77,321.71 502.73,321.13 505.69,320.84 508.65,320.59 511.61,320.34 514.57,320.09 517.52,320.05 520.49,320.18 523.45,320.31 526.40,320.43 529.37,320.68 532.33,321.23 535.28,321.79 538.25,322.34 541.21,322.90 544.16,323.93 547.13,324.96 550.09,325.99 553.04,327.02 556.01,328.41 558.97,329.94 561.92,331.47 564.89,332.99 567.84,334.72 570.80,336.72 573.77,338.71 576.72,340.70 579.68,342.75 582.65,345.12 585.60,347.49 588.56,349.86 591.53,352.23 594.48,354.80 597.44,357.41 600.41,360.02 603.36,362.63 606.32,365.30 609.29,368.02 612.24,370.74 615.20,373.46 618.17,376.19 621.12,378.95 624.08,381.70 627.04,384.45 630.00,387.20 632.96,389.90 635.92,392.60 638.88,395.30 641.83,397.99 644.80,400.55 647.76,403.06 650.71,405.56 653.68,408.07 656.64,410.43 659.59,412.62 662.56,414.80 665.52,416.98 668.47,419.11 671.44,420.90 674.40,422.68 677.35,424.48 680.32,426.27 683.28,427.72 686.23,429.12 689.20,430.52 692.16,431.92 695.11,433.12 698.08,434.19 701.03,435.25 703.99,436.31 706.96,437.30 709.91,438.10 712.87,438.91 715.84,439.71 718.79,440.52 721.75,441.13 724.72,441.73 727.67,442.35 730.63,442.95 733.60,443.46 736.55,443.93 739.51,444.39 742.48,444.86 745.43,445.28 748.39,445.64 751.35,446.01 754.31,446.37 757.27,446.72 760.23,447.00 763.19,447.28 766.15,447.56 769.11,447.84 772.07,448.05 775.02,448.25 777.99,448.45 780.95,448.65 783.90,448.79 786.87,448.89 789.83,448.99 792.78,449.09 795.75,449.16 798.71,449.13 801.66,449.10 804.63,449.08 807.59,449.05 810.54,448.86 813.51,448.68 816.47,448.49 819.42,448.30 822.39,447.99 825.34,447.62 828.30,447.25 831.27,446.88 834.22,446.43 837.18,445.88 840.15,445.32 843.10,444.76 846.06,444.18 849.03,443.44 851.98,442.70 854.94,441.97 857.91,441.23 860.86,440.35 863.82,439.44 866.79,438.53 869.74,437.62 872.70,436.62 875.67,435.56 878.62,434.50 881.58,433.44 884.54,432.34 887.50,431.15 890.46,429.97 893.42,428.78 896.38,427.59 899.33,426.34 902.30,425.08 905.26,423.83 908.21,422.57 911.18,421.32 914.14,420.07 917.09,418.83 920.06,417.58 923.02,416.37 925.97,415.21 928.94,414.06 931.90,412.90 934.85,411.77 937.82,410.77 940.78,409.77 943.73,408.78 946.70,407.78 949.66,406.98 952.61,406.20 955.58,405.42 958.53,404.65 961.49,404.01 964.46,403.48 967.41,402.96 970.37,402.43 973.34,401.97 976.29,401.68 979.25,401.39 982.22,401.11 985.17,400.82 988.13,400.72 991.10,400.62 994.05,400.52 997.01,400.42 999.98,400.41 1002.93,400.42 1005.89,400.44 1008.85,400.45 1011.81,400.48 1014.77,400.52 1017.73,400.55 1020.69,400.59 1023.65,400.62 1026.61,400.57 1029.57,400.51 1032.52,400.46 1035.49,400.41 1038.45,400.18 1041.40,399.93 1044.37,399.67 1047.33,399.42 1050.28,398.97 1053.25,398.37 1056.21,397.77 1059.16,397.17 1062.13,396.62 1065.09,396.21 1068.04,395.80 1071.01,395.39 1073.97,394.98" fill="none" stroke="#1f77b4" stroke-width="3"/>
<line x1="137" y1="100" x2="173" y2="100" stroke="#1f77b4" stroke-width="4"/>
<text x="183" y="105" font-family="Arial" font-size="18" fill="black">Ux</text>
<polyline points="186.03,358.49 188.99,360.32 191.95,362.14 194.91,363.97 197.87,365.79 200.83,368.94 203.79,372.61 206.75,376.29 209.71,379.96 212.67,383.68 215.63,387.44 218.59,391.21 221.55,394.98 224.51,398.77 227.47,402.70 230.43,406.64 233.39,410.57 236.35,414.50 239.31,418.58 242.27,422.67 245.23,426.76 248.19,430.85 251.15,434.94 254.11,439.02 257.07,443.11 260.03,447.19 262.99,451.18 265.95,454.92 268.91,458.67 271.87,462.41 274.83,466.16 277.79,469.13 280.75,472.10 283.71,475.07 286.67,478.03 289.63,480.16 292.59,481.95 295.55,483.74 298.51,485.53 301.47,486.75 304.42,487.22 307.39,487.68 310.34,488.14 313.30,488.43 316.27,487.68 319.22,486.93 322.18,486.18 325.15,485.43 328.10,483.84 331.06,482.12 334.03,480.40 336.98,478.67 339.94,476.54 342.91,474.12 345.86,471.69 348.82,469.26 351.79,466.70 354.74,463.78 357.70,460.86 360.67,457.95 363.62,455.03 366.58,451.78 369.54,448.53 372.50,445.28 375.46,442.03 378.42,438.61 381.38,435.14 384.33,431.67 387.30,428.20 390.26,424.68 393.21,421.11 396.18,417.53 399.14,413.95 402.09,410.38 405.06,406.85 408.02,403.32 410.97,399.78 413.94,396.25 416.90,392.92 419.85,389.61 422.82,386.31 425.78,383.01 428.73,379.93 431.70,377.02 434.66,374.11 437.61,371.20 440.58,368.43 443.53,365.99 446.49,363.55 449.46,361.11 452.41,358.67 455.37,356.72 458.34,354.76 461.29,352.80 464.25,350.85 467.22,349.22 470.17,347.72 473.13,346.22 476.10,344.72 479.05,343.39 482.01,342.30 484.98,341.21 487.93,340.12 490.89,339.08 493.85,338.34 496.81,337.60 499.77,336.86 502.73,336.12 505.69,335.63 508.65,335.18 511.61,334.74 514.57,334.28 517.52,333.96 520.49,333.72 523.45,333.47 526.40,333.23 529.37,333.03 532.33,332.91 535.28,332.78 538.25,332.66 541.21,332.54 544.16,332.43 547.13,332.33 550.09,332.22 553.04,332.11 556.01,331.96 558.97,331.78 561.92,331.60 564.89,331.43 567.84,331.19 570.80,330.87 573.77,330.56 576.72,330.24 579.68,329.91 582.65,329.44 585.60,328.97 588.56,328.50 591.53,328.03 594.48,327.48 597.44,326.92 600.41,326.36 603.36,325.80 606.32,325.26 609.29,324.75 612.24,324.23 615.20,323.71 618.17,323.25 621.12,322.93 624.08,322.61 627.04,322.30 630.00,321.98 632.96,321.96 635.92,321.95 638.88,321.93 641.83,321.92 644.80,322.11 647.76,322.38 650.71,322.65 653.68,322.93 656.64,323.27 659.59,323.72 662.56,324.16 665.52,324.61 668.47,325.05 671.44,325.50 674.40,325.96 677.35,326.41 680.32,326.86 683.28,327.20 686.23,327.52 689.20,327.84 692.16,328.16 695.11,328.34 698.08,328.41 701.03,328.49 703.99,328.57 706.96,328.55 709.91,328.31 712.87,328.07 715.84,327.83 718.79,327.59 721.75,327.00 724.72,326.41 727.67,325.82 730.63,325.23 733.60,324.38 736.55,323.44 739.51,322.50 742.48,321.55 745.43,320.47 748.39,319.20 751.35,317.93 754.31,316.66 757.27,315.35 760.23,313.81 763.19,312.27 766.15,310.73 769.11,309.19 772.07,307.50 775.02,305.79 777.99,304.08 780.95,302.37 783.90,300.64 786.87,298.90 789.83,297.16 792.78,295.42 795.75,293.72 798.71,292.12 801.66,290.52 804.63,288.93 807.59,287.33 810.54,286.08 813.51,284.84 816.47,283.59 819.42,282.34 822.39,281.48 825.34,280.78 828.30,280.08 831.27,279.38 834.22,278.97 837.18,278.97 840.15,278.97 843.10,278.97 846.06,279.08 849.03,279.86 851.98,280.64 854.94,281.42 857.91,282.20 860.86,283.64 863.82,285.19 866.79,286.75 869.74,288.30 872.70,290.25 875.67,292.49 878.62,294.74 881.58,296.98 884.54,299.39 887.50,302.19 890.46,305.00 893.42,307.80 896.38,310.61 899.33,313.81 902.30,317.00 905.26,320.20 908.21,323.40 911.18,326.74 914.14,330.13 917.09,333.53 920.06,336.92 923.02,340.31 925.97,343.70 928.94,347.09 931.90,350.47 934.85,353.83 937.82,357.02 940.78,360.20 943.73,363.38 946.70,366.56 949.66,369.43 952.61,372.23 955.58,375.04 958.53,377.85 961.49,380.37 964.46,382.68 967.41,384.99 970.37,387.30 973.34,389.45 976.29,391.20 979.25,392.96 982.22,394.71 985.17,396.46 988.13,397.67 991.10,398.88 994.05,400.08 997.01,401.29 999.98,402.16 1002.93,402.88 1005.89,403.61 1008.85,404.34 1011.81,404.90 1014.77,405.24 1017.73,405.58 1020.69,405.92 1023.65,406.21 1026.61,406.24 1029.57,406.27 1032.52,406.30 1035.49,406.34 1038.45,406.14 1041.40,405.90 1044.37,405.66 1047.33,405.42 1050.28,404.99 1053.25,404.41 1056.21,403.83 1059.16,403.25 1062.13,402.72 1065.09,402.32 1068.04,401.93 1071.01,401.53 1073.97,401.14" fill="none" stroke="#d62728" stroke-width="3"/>
<line x1="137" y1="128" x2="173" y2="128" stroke="#d62728" stroke-width="4"/>
<text x="183" y="133" font-family="Arial" font-size="18" fill="black">Uy</text>
<polyline points="186.03,661.55 188.99,656.97 191.95,652.39 194.91,647.81 197.87,643.23 200.83,635.57 203.79,626.68 206.75,617.79 209.71,608.90 212.67,600.22 215.63,591.84 218.59,583.45 221.55,575.06 224.51,566.72 227.47,558.72 230.43,550.72 233.39,542.72 236.35,534.72 239.31,526.97 242.27,519.26 245.23,511.56 248.19,503.85 251.15,496.29 254.11,488.86 257.07,481.43 260.03,473.99 262.99,466.65 265.95,459.56 268.91,452.47 271.87,445.37 274.83,438.29 277.79,431.78 280.75,425.28 283.71,418.78 286.67,412.28 289.63,406.48 292.59,400.96 295.55,395.44 298.51,389.92 301.47,384.98 304.42,380.81 307.39,376.64 310.34,372.46 313.30,368.51 316.27,365.86 319.22,363.20 322.18,360.55 325.15,357.89 328.10,356.48 331.06,355.27 334.03,354.06 336.98,352.85 339.94,352.31 342.91,352.29 345.86,352.26 348.82,352.23 351.79,352.44 354.74,353.25 357.70,354.06 360.67,354.86 363.62,355.67 366.58,356.95 369.54,358.24 372.50,359.52 375.46,360.81 378.42,362.22 381.38,363.68 384.33,365.15 387.30,366.61 390.26,368.06 393.21,369.49 396.18,370.92 399.14,372.35 402.09,373.75 405.06,375.04 408.02,376.32 410.97,377.60 413.94,378.88 416.90,380.03 419.85,381.15 422.82,382.27 425.78,383.40 428.73,384.45 431.70,385.46 434.66,386.47 437.61,387.47 440.58,388.46 443.53,389.39 446.49,390.33 449.46,391.26 452.41,392.19 455.37,393.07 458.34,393.96 461.29,394.84 464.25,395.72 467.22,396.57 470.17,397.40 473.13,398.23 476.10,399.06 479.05,399.86 482.01,400.62 484.98,401.37 487.93,402.12 490.89,402.86 493.85,403.48 496.81,404.10 499.77,404.72 502.73,405.34 505.69,405.79 508.65,406.20 511.61,406.62 514.57,407.03 517.52,407.27 520.49,407.38 523.45,407.49 526.40,407.59 529.37,407.58 532.33,407.25 535.28,406.93 538.25,406.60 541.21,406.27 544.16,405.38 547.13,404.48 550.09,403.59 553.04,402.69 556.01,401.28 558.97,399.67 561.92,398.06 564.89,396.45 567.84,394.50 570.80,392.08 573.77,389.66 576.72,387.24 579.68,384.71 582.65,381.54 585.60,378.36 588.56,375.19 591.53,372.01 594.48,368.49 597.44,364.91 600.41,361.32 603.36,357.74 606.32,354.37 609.29,351.16 612.24,347.95 615.20,344.73 618.17,341.93 621.12,340.13 624.08,338.33 627.04,336.53 630.00,334.73 632.96,334.99 635.92,335.25 638.88,335.51 641.83,335.77 644.80,337.29 647.76,339.32 650.71,341.34 653.68,343.37 656.64,345.74 659.59,348.58 662.56,351.42 665.52,354.26 668.47,357.08 671.44,359.77 674.40,362.46 677.35,365.16 680.32,367.85 683.28,369.88 686.23,371.80 689.20,373.72 692.16,375.64 695.11,376.97 698.08,377.87 701.03,378.76 703.99,379.65 706.96,380.26 709.91,380.14 712.87,380.02 715.84,379.91 718.79,379.79 721.75,378.81 724.72,377.82 727.67,376.84 730.63,375.86 733.60,374.39 736.55,372.74 739.51,371.09 742.48,369.43 745.43,367.58 748.39,365.46 751.35,363.34 754.31,361.22 757.27,359.06 760.23,356.67 763.19,354.28 766.15,351.88 769.11,349.49 772.07,347.04 775.02,344.57 777.99,342.10 780.95,339.63 783.90,337.23 786.87,334.89 789.83,332.54 792.78,330.20 795.75,327.95 798.71,325.94 801.66,323.93 804.63,321.92 807.59,319.92 810.54,318.47 813.51,317.02 816.47,315.57 819.42,314.12 822.39,313.22 825.34,312.52 828.30,311.84 831.27,311.15 834.22,310.85 837.18,311.06 840.15,311.28 843.10,311.49 846.06,311.84 849.03,313.00 851.98,314.17 854.94,315.32 857.91,316.49 860.86,318.39 863.82,320.43 866.79,322.46 869.74,324.49 872.70,326.92 875.67,329.65 878.62,332.39 881.58,335.12 884.54,338.00 887.50,341.24 890.46,344.48 893.42,347.72 896.38,350.95 899.33,354.51 902.30,358.06 905.26,361.61 908.21,365.17 911.18,368.83 914.14,372.53 917.09,376.24 920.06,379.94 923.02,383.65 925.97,387.36 928.94,391.08 931.90,394.79 934.85,398.49 937.82,402.09 940.78,405.69 943.73,409.29 946.70,412.89 949.66,416.33 952.61,419.73 955.58,423.14 958.53,426.54 961.49,429.80 964.46,432.96 967.41,436.11 970.37,439.27 973.34,442.34 976.29,445.23 979.25,448.11 982.22,450.99 985.17,453.87 988.13,456.46 991.10,459.06 994.05,461.66 997.01,464.25 999.98,466.62 1002.93,468.90 1005.89,471.17 1008.85,473.45 1011.81,475.56 1014.77,477.44 1017.73,479.32 1020.69,481.21 1023.65,483.02 1026.61,484.40 1029.57,485.78 1032.52,487.16 1035.49,488.55 1038.45,489.39 1041.40,490.13 1044.37,490.88 1047.33,491.63 1050.28,491.87 1053.25,491.72 1056.21,491.58 1059.16,491.44 1062.13,491.24 1065.09,490.90 1068.04,490.56 1071.01,490.22 1073.97,489.88" fill="none" stroke="#2ca02c" stroke-width="3"/>
<line x1="137" y1="156" x2="173" y2="156" stroke="#2ca02c" stroke-width="4"/>
<text x="183" y="161" font-family="Arial" font-size="18" fill="black">Uz</text>
<polyline points="186.03,118.45 188.99,123.17 191.95,127.89 194.91,132.62 197.87,137.34 200.83,145.12 203.79,154.13 206.75,163.14 209.71,172.14 212.67,180.80 215.63,188.99 218.59,197.18 221.55,205.36 224.51,213.42 227.47,220.74 230.43,228.04 233.39,235.36 236.35,242.67 239.31,248.96 242.27,255.07 245.23,261.19 248.19,267.31 251.15,272.41 254.11,276.76 257.07,281.11 260.03,285.46 262.99,289.15 265.95,291.17 268.91,293.20 271.87,295.22 274.83,297.25 277.79,297.15 280.75,297.04 283.71,296.93 286.67,296.83 289.63,296.04 292.59,294.97 295.55,293.90 298.51,292.83 301.47,291.89 304.42,291.10 307.39,290.31 310.34,289.52 313.30,288.88 316.27,289.06 319.22,289.23 322.18,289.42 325.15,289.59 328.10,290.74 331.06,292.06 334.03,293.37 336.98,294.68 339.94,296.56 342.91,298.86 345.86,301.16 348.82,303.45 351.79,305.95 354.74,308.94 357.70,311.94 360.67,314.93 363.62,317.92 366.58,321.25 369.54,324.58 372.50,327.91 375.46,331.24 378.42,334.45 381.38,337.63 384.33,340.80 387.30,343.98 390.26,346.74 393.21,348.96 396.18,351.18 399.14,353.40 402.09,355.34 405.06,355.59 408.02,355.84 410.97,356.09 413.94,356.34 416.90,354.96 419.85,353.32 422.82,351.67 425.78,350.02 428.73,347.93 431.70,345.51 434.66,343.08 437.61,340.66 440.58,338.22 443.53,335.76 446.49,333.31 449.46,330.85 452.41,328.38 455.37,326.19 458.34,323.99 461.29,321.80 464.25,319.61 467.22,317.67 470.17,315.85 473.13,314.02 476.10,312.20 479.05,310.55 482.01,309.13 484.98,307.71 487.93,306.30 490.89,304.94 493.85,303.96 496.81,302.97 499.77,301.98 502.73,301.00 505.69,300.40 508.65,299.86 511.61,299.32 514.57,298.78 517.52,298.51 520.49,298.44 523.45,298.37 526.40,298.30 529.37,298.36 532.33,298.76 535.28,299.15 538.25,299.55 541.21,299.95 544.16,300.77 547.13,301.60 550.09,302.42 553.04,303.25 556.01,304.28 558.97,305.39 561.92,306.50 564.89,307.61 567.84,308.70 570.80,309.75 573.77,310.80 576.72,311.85 579.68,312.82 582.65,313.25 585.60,313.69 588.56,314.13 591.53,314.57 594.48,314.10 597.44,313.49 600.41,312.88 603.36,312.27 606.32,311.23 609.29,309.89 612.24,308.55 615.20,307.21 618.17,305.95 621.12,304.93 624.08,303.90 627.04,302.87 630.00,301.85 632.96,301.94 635.92,302.03 638.88,302.12 641.83,302.21 644.80,302.98 647.76,304.00 650.71,305.03 653.68,306.06 656.64,307.14 659.59,308.29 662.56,309.43 665.52,310.58 668.47,311.66 671.44,312.29 674.40,312.93 677.35,313.57 680.32,314.21 683.28,314.33 686.23,314.35 689.20,314.38 692.16,314.41 695.11,314.20 698.08,313.81 701.03,313.42 703.99,313.03 706.96,312.55 709.91,311.86 712.87,311.18 715.84,310.49 718.79,309.80 721.75,308.81 724.72,307.83 727.67,306.84 730.63,305.85 733.60,304.60 736.55,303.23 739.51,301.88 742.48,300.51 745.43,298.97 748.39,297.18 751.35,295.40 754.31,293.61 757.27,291.77 760.23,289.60 763.19,287.43 766.15,285.26 769.11,283.09 772.07,280.70 775.02,278.28 777.99,275.87 780.95,273.45 783.90,271.01 786.87,268.57 789.83,266.12 792.78,263.67 795.75,261.30 798.71,259.12 801.66,256.93 804.63,254.74 807.59,252.55 810.54,250.94 813.51,249.32 816.47,247.70 819.42,246.09 822.39,245.08 825.34,244.33 828.30,243.57 831.27,242.81 834.22,242.52 837.18,242.84 840.15,243.16 843.10,243.48 846.06,243.96 849.03,245.44 851.98,246.92 854.94,248.41 857.91,249.89 860.86,252.31 863.82,254.89 866.79,257.48 869.74,260.06 872.70,263.17 875.67,266.67 878.62,270.17 881.58,273.68 884.54,277.37 887.50,281.53 890.46,285.70 893.42,289.86 896.38,294.02 899.33,298.52 902.30,303.02 905.26,307.52 908.21,312.02 911.18,316.45 914.14,320.84 917.09,325.23 920.06,329.62 923.02,333.66 925.97,337.23 928.94,340.80 931.90,344.37 934.85,347.66 937.82,349.25 940.78,350.85 943.73,352.44 946.70,354.04 949.66,353.41 952.61,352.41 955.58,351.42 958.53,350.42 961.49,348.57 964.46,346.09 967.41,343.60 970.37,341.12 973.34,338.54 976.29,335.71 979.25,332.88 982.22,330.06 985.17,327.23 988.13,324.56 991.10,321.88 994.05,319.20 997.01,316.52 999.98,314.08 1002.93,311.74 1005.89,309.39 1008.85,307.05 1011.81,304.89 1014.77,302.98 1017.73,301.08 1020.69,299.17 1023.65,297.34 1026.61,295.99 1029.57,294.62 1032.52,293.27 1035.49,291.91 1038.45,291.13 1041.40,290.45 1044.37,289.77 1047.33,289.09 1050.28,288.95 1053.25,289.21 1056.21,289.47 1059.16,289.72 1062.13,290.02 1065.09,290.42 1068.04,290.82 1071.01,291.22 1073.97,291.62" fill="none" stroke="#111111" stroke-width="3"/>
<line x1="137" y1="184" x2="173" y2="184" stroke="#111111" stroke-width="4"/>
<text x="183" y="189" font-family="Arial" font-size="18" fill="black">Umag</text>
</svg>