<svg xmlns="http://www.w3.org/2000/svg" width="1200" height="820" viewBox="0 0 1200 820">
<rect width="100%" height="100%" fill="white"/>
<text x="600.0" y="36" text-anchor="middle" font-family="Arial" font-size="24" fill="black">Uy profile along y-centerline</text>
<line x1="115.00" y1="75" x2="115.00" y2="705" stroke="#dddddd" stroke-width="1"/>
<text x="115.00" y="737" text-anchor="middle" font-family="Arial" font-size="16" fill="black">-0.400</text>
<line x1="372.50" y1="75" x2="372.50" y2="705" stroke="#dddddd" stroke-width="1"/>
<text x="372.50" y="737" text-anchor="middle" font-family="Arial" font-size="16" fill="black">1.050</text>
<line x1="630.00" y1="75" x2="630.00" y2="705" stroke="#dddddd" stroke-width="1"/>
<text x="630.00" y="737" text-anchor="middle" font-family="Arial" font-size="16" fill="black">2.500</text>
<line x1="887.50" y1="75" x2="887.50" y2="705" stroke="#dddddd" stroke-width="1"/>
<text x="887.50" y="737" text-anchor="middle" font-family="Arial" font-size="16" fill="black">3.950</text>
<line x1="1145.00" y1="75" x2="1145.00" y2="705" stroke="#dddddd" stroke-width="1"/>
<text x="1145.00" y="737" text-anchor="middle" font-family="Arial" font-size="16" fill="black">5.400</text>
<line x1="115" y1="705.00" x2="1145" y2="705.00" stroke="#dddddd" stroke-width="1"/>
<text x="99" y="710.00" text-anchor="end" font-family="Arial" font-size="16" fill="black">-0.301</text>
<line x1="115" y1="547.50" x2="1145" y2="547.50" stroke="#dddddd" stroke-width="1"/>
<text x="99" y="552.50" text-anchor="end" font-family="Arial" font-size="16" fill="black">-0.115</text>
<line x1="115" y1="390.00" x2="1145" y2="390.00" stroke="#dddddd" stroke-width="1"/>
<text x="99" y="395.00" text-anchor="end" font-family="Arial" font-size="16" fill="black">0.071</text>
<line x1="115" y1="232.50" x2="1145" y2="232.50" stroke="#dddddd" stroke-width="1"/>
<text x="99" y="237.50" text-anchor="end" font-family="Arial" font-size="16" fill="black">0.258</text>
<line x1="115" y1="75.00" x2="1145" y2="75.00" stroke="#dddddd" stroke-width="1"/>
<text x="99" y="80.00" text-anchor="end" font-family="Arial" font-size="16" fill="black">0.444</text>
<rect x="115" y="75" width="1030" height="630" fill="none" stroke="black" stroke-width="2"/>
<text x="630.0" y="785" text-anchor="middle" font-family="Arial" font-size="20" fill="black">y coordinate [m]</text>
<text x="34" y="390.0" transform="rotate(-90 34 390.0)" text-anchor="middle" font-family="Arial" font-size="20" fill="black">Uy [m/s]</text>
<polyline points="186.03,457.71 188.99,457.96 191.95,458.22 194.91,458.47 197.87,458.73 200.83,458.98 203.79,459.24 206.75,459.51 209.71,459.78 212.67,460.05 215.63,460.32 218.59,460.60 221.55,460.87 224.51,460.80 227.47,460.74 230.43,460.68 233.39,460.62 236.35,460.55 239.31,460.49 242.27,460.46 245.23,460.44 248.19,460.41 251.15,460.38 254.11,460.36 257.07,460.33 260.03,460.76 262.99,461.18 265.95,461.61 268.91,462.03 271.87,462.46 274.83,462.88 277.79,464.11 280.75,465.34 283.71,466.57 286.67,467.80 289.63,469.03 292.59,470.25 295.55,472.53 298.51,474.80 301.47,477.07 304.43,479.34 307.38,481.61 310.34,483.89 313.31,487.24 316.26,490.59 319.22,493.94 322.18,497.30 325.14,500.65 328.10,504.00 331.06,508.13 334.02,512.26 336.98,516.39 339.94,520.52 342.90,524.65 345.86,528.78 348.82,533.22 351.78,537.67 354.74,542.12 357.70,546.56 360.66,551.00 363.62,555.45 366.59,559.67 369.53,563.89 372.50,568.10 375.47,572.32 378.41,576.53 381.38,580.75 384.35,584.30 387.29,587.86 390.26,591.42 393.22,594.97 396.17,598.54 399.14,602.10 402.10,604.77 405.05,607.44 408.02,610.12 410.98,612.79 413.93,615.47 416.90,618.15 419.86,619.86 422.81,621.58 425.78,623.30 428.74,625.02 431.69,626.73 434.66,628.45 437.62,629.49 440.57,630.53 443.53,631.57 446.50,632.61 449.45,633.65 452.41,634.69 455.38,635.46 458.33,636.23 461.29,636.99 464.26,637.76 467.21,638.53 470.17,639.30 473.14,640.15 476.09,640.98 479.05,641.83 482.02,642.67 484.97,643.52 487.93,644.37 490.90,645.46 493.84,646.56 496.81,647.66 499.78,648.75 502.72,649.85 505.69,650.94 508.66,652.13 511.60,653.32 514.57,654.52 517.53,655.70 520.48,656.89 523.45,658.08 526.41,658.66 529.36,659.23 532.33,659.82 535.29,660.39 538.24,660.98 541.21,661.55 544.17,660.12 547.12,658.70 550.09,657.27 553.05,655.84 556.00,654.42 558.97,652.99 561.93,647.77 564.88,642.54 567.84,637.31 570.81,632.09 573.76,626.86 576.72,621.63 579.69,611.86 582.64,602.10 585.60,592.33 588.57,582.55 591.52,572.78 594.48,563.01 597.45,549.83 600.40,536.64 603.36,523.45 606.33,510.27 609.28,497.08 612.24,483.89 615.21,470.46 618.15,457.03 621.12,443.60 624.09,430.16 627.03,416.73 630.00,403.30 632.97,391.56 635.91,379.83 638.88,368.09 641.84,356.36 644.79,344.63 647.76,332.90 650.72,322.29 653.67,311.68 656.64,301.08 659.60,290.48 662.55,279.88 665.52,269.27 668.48,259.84 671.43,250.41 674.40,240.98 677.36,231.55 680.31,222.12 683.28,212.69 686.24,205.06 689.19,197.43 692.16,189.80 695.12,182.18 698.07,174.55 701.03,166.92 704.00,161.56 706.95,156.19 709.91,150.82 712.88,145.45 715.83,140.09 718.79,134.72 721.76,132.01 724.71,129.30 727.67,126.58 730.64,123.87 733.59,121.15 736.55,118.45 739.52,118.47 742.47,118.49 745.43,118.52 748.40,118.53 751.34,118.56 754.31,118.58 757.28,121.04 760.22,123.51 763.19,125.97 766.16,128.42 769.10,130.88 772.07,133.34 775.03,137.96 777.98,142.57 780.95,147.19 783.91,151.80 786.86,156.41 789.83,161.02 792.79,167.41 795.74,173.79 798.71,180.16 801.67,186.55 804.62,192.92 807.59,199.31 810.55,206.79 813.50,214.28 816.47,221.76 819.43,229.26 822.38,236.74 825.34,244.23 828.31,251.96 831.26,259.69 834.22,267.43 837.19,275.16 840.14,282.89 843.10,290.62 846.07,298.02 849.02,305.41 851.98,312.81 854.95,320.20 857.90,327.60 860.86,334.99 863.83,341.91 866.78,348.84 869.74,355.76 872.71,362.67 875.66,369.60 878.62,376.52 881.59,383.02 884.53,389.53 887.50,396.03 890.47,402.54 893.41,409.04 896.38,415.55 899.34,421.46 902.29,427.38 905.26,433.30 908.22,439.21 911.17,445.13 914.14,451.04 917.10,455.82 920.05,460.60 923.02,465.38 925.98,470.16 928.93,474.93 931.90,479.71 934.86,482.86 937.81,486.00 940.78,489.15 943.74,492.30 946.69,495.44 949.66,498.59 952.62,500.01 955.57,501.42 958.53,502.84 961.50,504.26 964.45,505.67 967.41,507.09 970.38,507.05 973.33,507.01 976.29,506.97 979.26,506.93 982.21,506.89 985.17,506.85 988.14,505.79 991.09,504.73 994.05,503.67 997.02,502.62 999.97,501.56 1002.93,500.50 1005.90,498.85 1008.84,497.20 1011.81,495.55 1014.78,493.90 1017.72,492.25 1020.69,490.60 1023.66,488.59 1026.60,486.59 1029.57,484.58 1032.53,482.58 1035.48,480.58 1038.45,478.57 1041.41,476.44 1044.36,474.30 1047.33,472.17 1050.29,470.04 1053.24,467.90 1056.21,465.77 1059.17,464.71 1062.12,463.65 1065.09,462.59 1068.05,461.53 1071.00,460.48 1073.97,459.42" fill="none" stroke="#d62728" stroke-width="3"/>
<line x1="137" y1="100" x2="173" y2="100" stroke="#d62728" stroke-width="4"/>
<text x="183" y="105" font-family="Arial" font-size="18" fill="black">Uy</text>
</svg>