<svg xmlns="http://www.w3.org/2000/svg" width="1200" height="820" viewBox="0 0 1200 820">
<rect width="100%" height="100%" fill="white"/>
<text x="600.0" y="36" text-anchor="middle" font-family="Arial" font-size="24" fill="black">Uz profile along z-centerline</text>
<line x1="115.00" y1="75" x2="115.00" y2="705" stroke="#dddddd" stroke-width="1"/>
<text x="115.00" y="737" text-anchor="middle" font-family="Arial" font-size="16" fill="black">-0.240</text>
<line x1="372.50" y1="75" x2="372.50" y2="705" stroke="#dddddd" stroke-width="1"/>
<text x="372.50" y="737" text-anchor="middle" font-family="Arial" font-size="16" fill="black">0.630</text>
<line x1="630.00" y1="75" x2="630.00" y2="705" stroke="#dddddd" stroke-width="1"/>
<text x="630.00" y="737" text-anchor="middle" font-family="Arial" font-size="16" fill="black">1.500</text>
<line x1="887.50" y1="75" x2="887.50" y2="705" stroke="#dddddd" stroke-width="1"/>
<text x="887.50" y="737" text-anchor="middle" font-family="Arial" font-size="16" fill="black">2.370</text>
<line x1="1145.00" y1="75" x2="1145.00" y2="705" stroke="#dddddd" stroke-width="1"/>
<text x="1145.00" y="737" text-anchor="middle" font-family="Arial" font-size="16" fill="black">3.240</text>
<line x1="115" y1="705.00" x2="1145" y2="705.00" stroke="#dddddd" stroke-width="1"/>
<text x="99" y="710.00" text-anchor="end" font-family="Arial" font-size="16" fill="black">-0.429</text>
<line x1="115" y1="547.50" x2="1145" y2="547.50" stroke="#dddddd" stroke-width="1"/>
<text x="99" y="552.50" text-anchor="end" font-family="Arial" font-size="16" fill="black">-0.047</text>
<line x1="115" y1="390.00" x2="1145" y2="390.00" stroke="#dddddd" stroke-width="1"/>
<text x="99" y="395.00" text-anchor="end" font-family="Arial" font-size="16" fill="black">0.336</text>
<line x1="115" y1="232.50" x2="1145" y2="232.50" stroke="#dddddd" stroke-width="1"/>
<text x="99" y="237.50" text-anchor="end" font-family="Arial" font-size="16" fill="black">0.719</text>
<line x1="115" y1="75.00" x2="1145" y2="75.00" stroke="#dddddd" stroke-width="1"/>
<text x="99" y="80.00" text-anchor="end" font-family="Arial" font-size="16" fill="black">1.102</text>
<rect x="115" y="75" width="1030" height="630" fill="none" stroke="black" stroke-width="2"/>
<text x="630.0" y="785" text-anchor="middle" font-family="Arial" font-size="20" fill="black">z coordinate [m]</text>
<text x="34" y="390.0" transform="rotate(-90 34 390.0)" text-anchor="middle" font-family="Arial" font-size="20" fill="black">Uz [m/s]</text>
<polyline points="186.03,118.45 188.99,118.67 191.95,118.90 194.91,119.12 197.87,119.35 200.83,119.57 203.79,119.79 206.75,120.02 209.71,120.24 212.67,120.46 215.63,120.69 218.59,121.23 221.55,121.77 224.51,122.31 227.47,122.85 230.43,123.39 233.39,123.93 236.35,124.48 239.31,125.01 242.27,125.56 245.23,126.10 248.19,126.77 251.15,127.45 254.11,128.13 257.07,128.81 260.03,129.48 262.99,130.16 265.95,130.84 268.91,131.51 271.87,132.19 274.83,132.87 277.79,133.65 280.75,134.43 283.71,135.22 286.67,136.00 289.63,136.78 292.59,137.57 295.55,138.36 298.51,139.14 301.47,139.92 304.43,140.70 307.39,141.67 310.34,142.63 313.30,143.59 316.26,144.55 319.22,145.51 322.18,146.48 325.14,147.43 328.10,148.40 331.06,149.36 334.02,150.32 336.98,151.56 339.94,152.80 342.90,154.05 345.86,155.29 348.82,156.53 351.78,157.77 354.74,159.02 357.70,160.25 360.66,161.50 363.62,162.74 366.58,164.36 369.54,165.99 372.50,167.61 375.46,169.24 378.42,170.86 381.38,172.49 384.34,174.11 387.30,175.74 390.26,177.36 393.22,178.99 396.18,181.09 399.14,183.19 402.10,185.29 405.06,187.39 408.02,189.49 410.98,191.60 413.94,193.70 416.90,195.80 419.86,197.90 422.82,200.00 425.78,202.67 428.74,205.33 431.70,208.00 434.66,210.66 437.61,213.33 440.57,215.99 443.53,218.66 446.49,221.32 449.45,223.99 452.41,226.66 455.37,229.96 458.33,233.27 461.29,236.57 464.25,239.88 467.21,243.18 470.17,246.49 473.13,249.80 476.09,253.10 479.05,256.41 482.01,259.72 484.97,263.72 487.93,267.72 490.89,271.71 493.85,275.72 496.81,279.72 499.77,283.71 502.73,287.71 505.69,291.71 508.65,295.71 511.61,299.71 514.57,304.40 517.53,309.09 520.49,313.78 523.45,318.47 526.41,323.15 529.37,327.84 532.33,332.53 535.29,337.22 538.25,341.91 541.21,346.60 544.17,351.89 547.13,357.18 550.09,362.47 553.05,367.76 556.01,373.05 558.97,378.34 561.93,383.63 564.89,388.91 567.84,394.20 570.80,399.49 573.76,405.33 576.72,411.17 579.68,417.02 582.64,422.85 585.60,428.69 588.56,434.53 591.52,440.37 594.48,446.21 597.44,452.05 600.40,457.89 603.36,464.76 606.32,471.63 609.28,478.49 612.24,485.36 615.20,492.23 618.16,499.10 621.12,505.97 624.08,512.83 627.04,519.70 630.00,526.57 632.96,531.86 635.92,537.15 638.88,542.45 641.84,547.74 644.80,553.03 647.76,558.32 650.72,563.61 653.68,568.90 656.64,574.19 659.60,579.49 662.56,582.38 665.52,585.28 668.48,588.19 671.44,591.08 674.40,593.98 677.36,596.88 680.32,599.78 683.28,602.68 686.24,605.58 689.20,608.47 692.16,610.78 695.11,613.09 698.07,615.40 701.03,617.71 703.99,620.01 706.95,622.32 709.91,624.63 712.87,626.94 715.83,629.25 718.79,631.55 721.75,633.03 724.71,634.52 727.67,636.00 730.63,637.48 733.59,638.97 736.55,640.45 739.51,641.93 742.47,643.41 745.43,644.89 748.39,646.38 751.35,647.31 754.31,648.25 757.27,649.19 760.23,650.13 763.19,651.07 766.15,652.01 769.11,652.95 772.07,653.88 775.03,654.82 777.99,655.76 780.95,656.26 783.91,656.75 786.87,657.24 789.83,657.74 792.79,658.23 795.75,658.73 798.71,659.22 801.67,659.72 804.63,660.21 807.59,660.70 810.55,660.79 813.51,660.88 816.47,660.96 819.43,661.05 822.39,661.13 825.34,661.21 828.30,661.30 831.26,661.38 834.22,661.47 837.18,661.55 840.14,661.20 843.10,660.85 846.06,660.50 849.02,660.16 851.98,659.81 854.94,659.46 857.90,659.11 860.86,658.76 863.82,658.41 866.78,658.06 869.74,657.22 872.70,656.37 875.66,655.52 878.62,654.68 881.58,653.83 884.54,652.99 887.50,652.14 890.46,651.29 893.42,650.45 896.38,649.60 899.34,648.18 902.30,646.76 905.26,645.34 908.22,643.92 911.18,642.50 914.14,641.09 917.10,639.66 920.06,638.24 923.02,636.82 925.98,635.40 928.94,633.46 931.90,631.51 934.86,629.57 937.82,627.62 940.78,625.67 943.74,623.72 946.70,621.78 949.66,619.83 952.61,617.89 955.57,615.94 958.53,613.69 961.49,611.44 964.45,609.20 967.41,606.95 970.37,604.71 973.33,602.46 976.29,600.21 979.25,597.97 982.21,595.72 985.17,593.48 988.13,591.21 991.09,588.95 994.05,586.69 997.01,584.43 999.97,582.17 1002.93,579.91 1005.89,577.65 1008.85,575.38 1011.81,573.12 1014.77,570.86 1017.73,568.52 1020.69,566.18 1023.65,563.84 1026.61,561.50 1029.57,559.16 1032.53,556.82 1035.49,554.48 1038.45,552.14 1041.41,549.79 1044.37,547.45 1047.33,546.21 1050.29,544.97 1053.25,543.73 1056.21,542.49 1059.17,541.25 1062.13,540.01 1065.09,538.77 1068.05,537.53 1071.01,536.29 1073.97,535.05" fill="none" stroke="#2ca02c" stroke-width="3"/>
<line x1="137" y1="100" x2="173" y2="100" stroke="#2ca02c" stroke-width="4"/>
<text x="183" y="105" font-family="Arial" font-size="18" fill="black">Uz</text>
</svg>