<svg xmlns="http://www.w3.org/2000/svg" width="1200" height="820" viewBox="0 0 1200 820">
<rect width="100%" height="100%" fill="white"/>
<text x="600.0" y="36" text-anchor="middle" font-family="Arial" font-size="24" fill="black">Velocity components along y-centerline</text>
<line x1="115.00" y1="75" x2="115.00" y2="705" stroke="#dddddd" stroke-width="1"/>
<text x="115.00" y="737" text-anchor="middle" font-family="Arial" font-size="16" fill="black">-0.400</text>
<line x1="372.50" y1="75" x2="372.50" y2="705" stroke="#dddddd" stroke-width="1"/>
<text x="372.50" y="737" text-anchor="middle" font-family="Arial" font-size="16" fill="black">1.050</text>
<line x1="630.00" y1="75" x2="630.00" y2="705" stroke="#dddddd" stroke-width="1"/>
<text x="630.00" y="737" text-anchor="middle" font-family="Arial" font-size="16" fill="black">2.500</text>
<line x1="887.50" y1="75" x2="887.50" y2="705" stroke="#dddddd" stroke-width="1"/>
<text x="887.50" y="737" text-anchor="middle" font-family="Arial" font-size="16" fill="black">3.950</text>
<line x1="1145.00" y1="75" x2="1145.00" y2="705" stroke="#dddddd" stroke-width="1"/>
<text x="1145.00" y="737" text-anchor="middle" font-family="Arial" font-size="16" fill="black">5.400</text>
<line x1="115" y1="705.00" x2="1145" y2="705.00" stroke="#dddddd" stroke-width="1"/>
<text x="99" y="710.00" text-anchor="end" font-family="Arial" font-size="16" fill="black">-0.307</text>
<line x1="115" y1="547.50" x2="1145" y2="547.50" stroke="#dddddd" stroke-width="1"/>
<text x="99" y="552.50" text-anchor="end" font-family="Arial" font-size="16" fill="black">-0.099</text>
<line x1="115" y1="390.00" x2="1145" y2="390.00" stroke="#dddddd" stroke-width="1"/>
<text x="99" y="395.00" text-anchor="end" font-family="Arial" font-size="16" fill="black">0.110</text>
<line x1="115" y1="232.50" x2="1145" y2="232.50" stroke="#dddddd" stroke-width="1"/>
<text x="99" y="237.50" text-anchor="end" font-family="Arial" font-size="16" fill="black">0.319</text>
<line x1="115" y1="75.00" x2="1145" y2="75.00" stroke="#dddddd" stroke-width="1"/>
<text x="99" y="80.00" text-anchor="end" font-family="Arial" font-size="16" fill="black">0.528</text>
<rect x="115" y="75" width="1030" height="630" fill="none" stroke="black" stroke-width="2"/>
<text x="630.0" y="785" text-anchor="middle" font-family="Arial" font-size="20" fill="black">y coordinate [m]</text>
<text x="34" y="390.0" transform="rotate(-90 34 390.0)" text-anchor="middle" font-family="Arial" font-size="20" fill="black">velocity [m/s]</text>
<polyline points="186.03,507.58 188.99,505.35 191.95,503.12 194.91,500.89 197.87,498.66 200.83,496.43 203.79,494.20 206.75,490.99 209.71,487.78 212.67,484.56 215.63,481.35 218.59,478.13 221.55,474.92 224.51,473.42 227.47,471.93 230.43,470.43 233.39,468.93 236.35,467.43 239.31,465.94 242.27,465.16 245.23,464.38 248.19,463.61 251.15,462.83 254.11,462.05 257.07,461.28 260.03,460.93 262.99,460.58 265.95,460.23 268.91,459.88 271.87,459.53 274.83,459.18 277.79,459.17 280.75,459.16 283.71,459.14 286.67,459.13 289.63,459.12 292.59,459.10 295.55,459.40 298.51,459.69 301.47,459.98 304.43,460.28 307.38,460.57 310.34,460.87 313.31,461.45 316.26,462.03 319.22,462.61 322.18,463.20 325.14,463.78 328.10,464.36 331.06,465.14 334.02,465.91 336.98,466.68 339.94,467.46 342.90,468.23 345.86,469.01 348.82,469.64 351.78,470.28 354.74,470.91 357.70,471.55 360.66,472.19 363.62,472.82 366.59,472.78 369.53,472.74 372.50,472.70 375.47,472.65 378.41,472.61 381.38,472.57 384.35,471.47 387.29,470.37 390.26,469.27 393.22,468.17 396.17,467.08 399.14,465.98 402.10,463.90 405.05,461.83 408.02,459.76 410.98,457.68 413.93,455.61 416.90,453.54 419.86,451.02 422.81,448.50 425.78,445.99 428.74,443.47 431.69,440.96 434.66,438.44 437.62,436.33 440.57,434.21 443.53,432.10 446.50,429.99 449.45,427.87 452.41,425.76 455.38,424.79 458.33,423.82 461.29,422.85 464.26,421.88 467.21,420.91 470.17,419.94 473.14,420.45 476.09,420.97 479.05,421.48 482.02,421.99 484.97,422.50 487.93,423.01 490.90,424.96 493.84,426.91 496.81,428.85 499.78,430.80 502.72,432.75 505.69,434.70 508.66,437.68 511.60,440.66 514.57,443.63 517.53,446.61 520.48,449.59 523.45,452.57 526.41,455.89 529.36,459.22 532.33,462.54 535.29,465.87 538.24,469.19 541.21,472.51 544.17,475.44 547.12,478.36 550.09,481.28 553.05,484.20 556.00,487.13 558.97,490.05 561.93,491.99 564.88,493.92 567.84,495.86 570.81,497.80 573.76,499.74 576.72,501.67 579.69,502.78 582.64,503.89 585.60,505.00 588.57,506.11 591.52,507.22 594.48,508.33 597.45,509.40 600.40,510.48 603.36,511.56 606.33,512.63 609.28,513.71 612.24,514.79 615.21,516.13 618.15,517.48 621.12,518.82 624.09,520.16 627.03,521.51 630.00,522.85 632.97,524.27 635.91,525.69 638.88,527.11 641.84,528.53 644.79,529.95 647.76,531.37 650.72,532.63 653.67,533.89 656.64,535.15 659.60,536.41 662.55,537.67 665.52,538.93 668.48,539.78 671.43,540.63 674.40,541.48 677.36,542.33 680.31,543.18 683.28,544.04 686.24,544.32 689.19,544.60 692.16,544.88 695.12,545.16 698.07,545.44 701.03,545.72 704.00,545.28 706.95,544.83 709.91,544.38 712.88,543.93 715.83,543.49 718.79,543.04 721.76,541.93 724.71,540.82 727.67,539.71 730.64,538.60 733.59,537.49 736.55,536.38 739.52,534.77 742.47,533.17 745.43,531.57 748.40,529.96 751.34,528.36 754.31,526.76 757.28,524.76 760.22,522.76 763.19,520.76 766.16,518.75 769.10,516.75 772.07,514.75 775.03,512.50 777.98,510.25 780.95,508.00 783.91,505.75 786.86,503.49 789.83,501.24 792.79,498.85 795.74,496.45 798.71,494.06 801.67,491.66 804.62,489.27 807.59,486.87 810.55,484.31 813.50,481.75 816.47,479.19 819.43,476.62 822.38,474.06 825.34,471.50 828.31,468.76 831.26,466.02 834.22,463.28 837.19,460.54 840.14,457.80 843.10,455.06 846.07,452.48 849.02,449.90 851.98,447.32 854.95,444.74 857.90,442.16 860.86,439.58 863.83,437.90 866.78,436.21 869.74,434.52 872.71,432.84 875.66,431.15 878.62,429.46 881.59,429.34 884.53,429.21 887.50,429.08 890.47,428.96 893.41,428.83 896.38,428.70 899.34,429.96 902.29,431.22 905.26,432.47 908.22,433.73 911.17,434.99 914.14,436.25 917.10,437.73 920.05,439.21 923.02,440.70 925.98,442.18 928.93,443.66 931.90,445.15 934.86,445.72 937.81,446.29 940.78,446.87 943.74,447.44 946.69,448.01 949.66,448.59 952.62,447.81 955.57,447.04 958.53,446.27 961.50,445.50 964.45,444.72 967.41,443.95 970.38,441.98 973.33,440.01 976.29,438.04 979.26,436.07 982.21,434.10 985.17,432.13 988.14,429.41 991.09,426.68 994.05,423.96 997.02,421.24 999.97,418.52 1002.93,415.80 1005.90,412.75 1008.84,409.71 1011.81,406.66 1014.78,403.62 1017.72,400.57 1020.69,397.52 1023.66,394.47 1026.60,391.41 1029.57,388.36 1032.53,385.31 1035.48,382.26 1038.45,379.20 1041.41,376.55 1044.36,373.91 1047.33,371.26 1050.29,368.60 1053.24,365.95 1056.21,363.31 1059.17,362.15 1062.12,361.00 1065.09,359.84 1068.05,358.69 1071.00,357.54 1073.97,356.39" fill="none" stroke="#1f77b4" stroke-width="3"/>
<line x1="137" y1="100" x2="173" y2="100" stroke="#1f77b4" stroke-width="4"/>
<text x="183" y="105" font-family="Arial" font-size="18" fill="black">Ux</text>
<polyline points="186.03,479.73 188.99,479.96 191.95,480.18 194.91,480.41 197.87,480.64 200.83,480.87 203.79,481.09 206.75,481.34 209.71,481.58 212.67,481.82 215.63,482.06 218.59,482.30 221.55,482.54 224.51,482.49 227.47,482.43 230.43,482.38 233.39,482.32 236.35,482.27 239.31,482.21 242.27,482.19 245.23,482.16 248.19,482.14 251.15,482.11 254.11,482.09 257.07,482.07 260.03,482.45 262.99,482.83 265.95,483.21 268.91,483.59 271.87,483.97 274.83,484.34 277.79,485.44 280.75,486.54 283.71,487.63 286.67,488.73 289.63,489.82 292.59,490.92 295.55,492.95 298.51,494.97 301.47,497.00 304.43,499.03 307.38,501.05 310.34,503.08 313.31,506.07 316.26,509.06 319.22,512.05 322.18,515.04 325.14,518.03 328.10,521.02 331.06,524.70 334.02,528.39 336.98,532.07 339.94,535.75 342.90,539.44 345.86,543.12 348.82,547.08 351.78,551.05 354.74,555.02 357.70,558.99 360.66,562.95 363.62,566.91 366.59,570.68 369.53,574.44 372.50,578.19 375.47,581.96 378.41,585.71 381.38,589.48 384.35,592.65 387.29,595.82 390.26,599.00 393.22,602.17 396.17,605.34 399.14,608.52 402.10,610.90 405.05,613.29 408.02,615.68 410.98,618.06 413.93,620.45 416.90,622.84 419.86,624.37 422.81,625.90 425.78,627.43 428.74,628.96 431.69,630.49 434.66,632.03 437.62,632.95 440.57,633.88 443.53,634.81 446.50,635.74 449.45,636.66 452.41,637.59 455.38,638.28 458.33,638.97 461.29,639.64 464.26,640.33 467.21,641.02 470.17,641.70 473.14,642.46 476.09,643.21 479.05,643.96 482.02,644.71 484.97,645.47 487.93,646.22 490.90,647.20 493.84,648.18 496.81,649.16 499.78,650.13 502.72,651.11 505.69,652.08 508.66,653.15 511.60,654.21 514.57,655.28 517.53,656.33 520.48,657.40 523.45,658.46 526.41,658.97 529.36,659.48 532.33,660.01 535.29,660.52 538.24,661.04 541.21,661.55 544.17,660.28 547.12,659.01 550.09,657.73 553.05,656.46 556.00,655.19 558.97,653.92 561.93,649.26 564.88,644.59 567.84,639.93 570.81,635.27 573.76,630.61 576.72,625.94 579.69,617.23 582.64,608.52 585.60,599.81 588.57,591.08 591.52,582.37 594.48,573.66 597.45,561.90 600.40,550.14 603.36,538.37 606.33,526.61 609.28,514.85 612.24,503.09 615.21,491.10 618.15,479.12 621.12,467.14 624.09,455.16 627.03,443.18 630.00,431.19 632.97,420.73 635.91,410.26 638.88,399.79 641.84,389.32 644.79,378.86 647.76,368.40 650.72,358.94 653.67,349.48 656.64,340.02 659.60,330.57 662.55,321.11 665.52,311.65 668.48,303.23 671.43,294.82 674.40,286.41 677.36,278.00 680.31,269.59 683.28,261.18 686.24,254.37 689.19,247.57 692.16,240.76 695.12,233.96 698.07,227.15 701.03,220.35 704.00,215.57 706.95,210.78 709.91,205.99 712.88,201.20 715.83,196.42 718.79,191.63 721.76,189.21 724.71,186.80 727.67,184.37 730.64,181.95 733.59,179.53 736.55,177.12 739.52,177.13 742.47,177.15 745.43,177.18 748.40,177.19 751.34,177.21 754.31,177.24 757.28,179.43 760.22,181.63 763.19,183.82 766.16,186.01 769.10,188.21 772.07,190.40 775.03,194.52 777.98,198.63 780.95,202.75 783.91,206.86 786.86,210.98 789.83,215.09 792.79,220.79 795.74,226.48 798.71,232.16 801.67,237.86 804.62,243.55 807.59,249.24 810.55,255.92 813.50,262.60 816.47,269.27 819.43,275.96 822.38,282.63 825.34,289.31 828.31,296.20 831.26,303.10 834.22,310.00 837.19,316.90 840.14,323.79 843.10,330.69 846.07,337.29 849.02,343.88 851.98,350.48 854.95,357.07 857.90,363.68 860.86,370.27 863.83,376.44 866.78,382.62 869.74,388.79 872.71,394.96 875.66,401.14 878.62,407.31 881.59,413.11 884.53,418.91 887.50,424.72 890.47,430.52 893.41,436.32 896.38,442.12 899.34,447.40 902.29,452.68 905.26,457.95 908.22,463.23 911.17,468.51 914.14,473.78 917.10,478.04 920.05,482.31 923.02,486.57 925.98,490.83 928.93,495.09 931.90,499.36 934.86,502.16 937.81,504.97 940.78,507.77 943.74,510.58 946.69,513.39 949.66,516.19 952.62,517.46 955.57,518.72 958.53,519.98 961.50,521.25 964.45,522.51 967.41,523.77 970.38,523.74 973.33,523.70 976.29,523.67 979.26,523.63 982.21,523.59 985.17,523.56 988.14,522.62 991.09,521.67 994.05,520.73 997.02,519.78 999.97,518.84 1002.93,517.90 1005.90,516.43 1008.84,514.95 1011.81,513.48 1014.78,512.01 1017.72,510.54 1020.69,509.06 1023.66,507.28 1026.60,505.49 1029.57,503.70 1032.53,501.91 1035.48,500.13 1038.45,498.34 1041.41,496.44 1044.36,494.53 1047.33,492.63 1050.29,490.72 1053.24,488.82 1056.21,486.92 1059.17,485.97 1062.12,485.03 1065.09,484.08 1068.05,483.14 1071.00,482.20 1073.97,481.25" fill="none" stroke="#d62728" stroke-width="3"/>
<line x1="137" y1="128" x2="173" y2="128" stroke="#d62728" stroke-width="4"/>
<text x="183" y="133" font-family="Arial" font-size="18" fill="black">Uy</text>
<polyline points="186.03,407.55 188.99,403.74 191.95,399.92 194.91,396.11 197.87,392.30 200.83,388.50 203.79,384.69 206.75,378.23 209.71,371.77 212.67,365.31 215.63,358.85 218.59,352.39 221.55,345.93 224.51,341.14 227.47,336.34 230.43,331.55 233.39,326.76 236.35,321.97 239.31,317.17 242.27,312.96 245.23,308.76 248.19,304.55 251.15,300.34 254.11,296.13 257.07,291.93 260.03,287.46 262.99,283.00 265.95,278.54 268.91,274.08 271.87,269.62 274.83,265.15 277.79,259.74 280.75,254.33 283.71,248.91 286.67,243.49 289.63,238.09 292.59,232.67 295.55,226.25 298.51,219.82 301.47,213.40 304.43,206.98 307.38,200.56 310.34,194.14 313.31,187.95 316.26,181.76 319.22,175.56 322.18,169.37 325.14,163.18 328.10,156.98 331.06,153.63 334.02,150.28 336.98,146.93 339.94,143.58 342.90,140.23 345.86,136.89 348.82,139.13 351.78,141.38 354.74,143.62 357.70,145.87 360.66,148.11 363.62,150.36 366.59,159.22 369.53,168.07 372.50,176.93 375.47,185.79 378.41,194.65 381.38,203.51 384.35,216.75 387.29,230.00 390.26,243.25 393.22,256.49 396.17,269.74 399.14,282.99 402.10,297.03 405.05,311.07 408.02,325.12 410.98,339.17 413.93,353.20 416.90,367.25 419.86,380.02 422.81,392.77 425.78,405.54 428.74,418.30 431.69,431.06 434.66,443.82 437.62,454.55 440.57,465.27 443.53,475.99 446.50,486.71 449.45,497.43 452.41,508.15 455.38,516.64 458.33,525.13 461.29,533.62 464.26,542.11 467.21,550.60 470.17,559.09 473.14,565.36 476.09,571.63 479.05,577.90 482.02,584.17 484.97,590.44 487.93,596.70 490.90,600.74 493.84,604.78 496.81,608.81 499.78,612.84 502.72,616.88 505.69,620.91 508.66,622.57 511.60,624.24 514.57,625.90 517.53,627.57 520.48,629.23 523.45,630.89 526.41,629.84 529.36,628.80 532.33,627.76 535.29,626.72 538.24,625.68 541.21,624.64 544.17,620.35 547.12,616.07 550.09,611.79 553.05,607.50 556.00,603.22 558.97,598.93 561.93,591.64 564.88,584.34 567.84,577.05 570.81,569.75 573.76,562.46 576.72,555.16 579.69,547.31 582.64,539.47 585.60,531.63 588.57,523.78 591.52,515.94 594.48,508.10 597.45,503.16 600.40,498.22 603.36,493.28 606.33,488.35 609.28,483.41 612.24,478.47 615.21,477.05 618.15,475.63 621.12,474.21 624.09,472.79 627.03,471.37 630.00,469.95 632.97,469.80 635.91,469.66 638.88,469.51 641.84,469.36 644.79,469.21 647.76,469.07 650.72,468.64 653.67,468.21 656.64,467.78 659.60,467.35 662.55,466.92 665.52,466.50 668.48,465.75 671.43,465.01 674.40,464.26 677.36,463.52 680.31,462.78 683.28,462.03 686.24,460.92 689.19,459.82 692.16,458.71 695.12,457.60 698.07,456.49 701.03,455.38 704.00,453.28 706.95,451.17 709.91,449.07 712.88,446.96 715.83,444.86 718.79,442.75 721.76,439.56 724.71,436.36 727.67,433.17 730.64,429.97 733.59,426.77 736.55,423.58 739.52,419.69 742.47,415.79 745.43,411.90 748.40,408.01 751.34,404.12 754.31,400.23 757.28,395.81 760.22,391.41 763.19,386.99 766.16,382.58 769.10,378.18 772.07,373.76 775.03,368.88 777.98,364.00 780.95,359.12 783.91,354.24 786.86,349.36 789.83,344.48 792.79,338.91 795.74,333.33 798.71,327.76 801.67,322.18 804.62,316.61 807.59,311.04 810.55,304.25 813.50,297.46 816.47,290.67 819.43,283.88 822.38,277.09 825.34,270.30 828.31,262.09 831.26,253.88 834.22,245.67 837.19,237.45 840.14,229.24 843.10,221.04 846.07,212.50 849.02,203.96 851.98,195.42 854.95,186.88 857.90,178.34 860.86,169.80 863.83,163.39 866.78,156.97 869.74,150.56 872.71,144.15 875.66,137.73 878.62,131.32 881.59,129.87 884.53,128.42 887.50,126.97 890.47,125.52 893.41,124.07 896.38,122.61 899.34,126.54 902.29,130.47 905.26,134.39 908.22,138.31 911.17,142.23 914.14,146.16 917.10,153.21 920.05,160.26 923.02,167.31 925.98,174.36 928.93,181.42 931.90,188.47 934.86,196.32 937.81,204.18 940.78,212.03 943.74,219.88 946.69,227.74 949.66,235.59 952.62,242.71 955.57,249.84 958.53,256.97 961.50,264.09 964.45,271.22 967.41,278.35 970.38,284.06 973.33,289.77 976.29,295.48 979.26,301.20 982.21,306.91 985.17,312.62 988.14,316.75 991.09,320.89 994.05,325.02 997.02,329.16 999.97,333.29 1002.93,337.42 1005.90,340.11 1008.84,342.79 1011.81,345.46 1014.78,348.14 1017.72,350.82 1020.69,353.50 1023.66,354.98 1026.60,356.45 1029.57,357.93 1032.53,359.40 1035.48,360.88 1038.45,362.36 1041.41,363.19 1044.36,364.04 1047.33,364.88 1050.29,365.73 1053.24,366.57 1056.21,367.41 1059.17,367.78 1062.12,368.15 1065.09,368.52 1068.05,368.88 1071.00,369.25 1073.97,369.62" fill="none" stroke="#2ca02c" stroke-width="3"/>
<line x1="137" y1="156" x2="173" y2="156" stroke="#2ca02c" stroke-width="4"/>
<text x="183" y="161" font-family="Arial" font-size="18" fill="black">Uz</text>
<polyline points="186.03,398.78 188.99,395.96 191.95,393.14 194.91,390.33 197.87,387.51 200.83,384.69 203.79,381.87 206.75,375.82 209.71,369.77 212.67,363.72 215.63,357.68 218.59,351.63 221.55,345.58 224.51,340.77 227.47,335.97 230.43,331.16 233.39,326.36 236.35,321.54 239.31,316.74 242.27,312.51 245.23,308.27 248.19,304.03 251.15,299.79 254.11,295.55 257.07,291.32 260.03,286.83 262.99,282.34 265.95,277.85 268.91,273.36 271.87,268.87 274.83,264.38 277.79,258.92 280.75,253.46 283.71,248.00 286.67,242.53 289.63,237.07 292.59,231.61 295.55,225.05 298.51,218.49 301.47,211.94 304.43,205.38 307.38,198.83 310.34,192.27 313.31,185.77 316.26,179.27 319.22,172.76 322.18,166.26 325.14,159.76 328.10,153.26 331.06,149.33 334.02,145.39 336.98,141.46 339.94,137.53 342.90,133.60 345.86,129.67 348.82,130.89 351.78,132.12 354.74,133.34 357.70,134.57 360.66,135.80 363.62,137.02 366.59,144.10 369.53,151.18 372.50,158.26 375.47,165.33 378.41,172.41 381.38,179.49 384.35,189.51 387.29,199.54 390.26,209.56 393.22,219.58 396.17,229.61 399.14,239.63 402.10,247.82 405.05,256.01 408.02,264.20 410.98,272.39 413.93,280.57 416.90,288.77 419.86,291.96 422.81,295.16 425.78,298.35 428.74,301.54 431.69,304.74 434.66,307.93 437.62,306.36 440.57,304.79 443.53,303.22 446.50,301.64 449.45,300.07 452.41,298.50 455.38,294.86 458.33,291.22 461.29,287.57 464.26,283.93 467.21,280.29 470.17,276.65 473.14,272.99 476.09,269.33 479.05,265.68 482.02,262.02 484.97,258.36 487.93,254.71 490.90,251.91 493.84,249.12 496.81,246.33 499.78,243.54 502.72,240.76 505.69,237.97 508.66,236.46 511.60,234.96 514.57,233.47 517.53,231.97 520.48,230.47 523.45,228.97 526.41,229.38 529.36,229.80 532.33,230.20 535.29,230.62 538.24,231.02 541.21,231.44 544.17,234.92 547.12,238.40 550.09,241.88 553.05,245.36 556.00,248.84 558.97,252.32 561.93,259.84 564.88,267.36 567.84,274.88 570.81,282.41 573.76,289.93 576.72,297.45 579.69,308.06 582.64,318.67 585.60,329.28 588.57,339.90 591.52,350.50 594.48,361.12 597.45,371.20 600.40,381.29 603.36,391.38 606.33,401.46 609.28,411.55 612.24,421.64 615.21,419.37 618.15,417.11 621.12,414.84 624.09,412.58 627.03,410.31 630.00,408.05 632.97,398.91 635.91,389.78 638.88,380.64 641.84,371.51 644.79,362.38 647.76,353.24 650.72,344.14 653.67,335.05 656.64,325.94 659.60,316.84 662.55,307.75 665.52,298.65 668.48,290.43 671.43,282.22 674.40,274.01 677.36,265.79 680.31,257.58 683.28,249.37 686.24,242.73 689.19,236.09 692.16,229.46 695.12,222.82 698.07,216.19 701.03,209.55 704.00,204.87 706.95,200.20 709.91,195.52 712.88,190.85 715.83,186.18 718.79,181.50 721.76,178.99 724.71,176.47 727.67,173.96 730.64,171.44 733.59,168.92 736.55,166.40 739.52,165.96 742.47,165.51 745.43,165.05 748.40,164.60 751.34,164.16 754.31,163.70 757.28,164.85 760.22,165.99 763.19,167.14 766.16,168.28 769.10,169.42 772.07,170.57 775.03,172.71 777.98,174.85 780.95,177.00 783.91,179.14 786.86,181.28 789.83,183.42 792.79,185.58 795.74,187.74 798.71,189.90 801.67,192.05 804.62,194.21 807.59,196.37 810.55,196.87 813.50,197.37 816.47,197.87 819.43,198.38 822.38,198.87 825.34,199.37 828.31,196.65 831.26,193.92 834.22,191.19 837.19,188.46 840.14,185.72 843.10,183.00 846.07,177.67 849.02,172.36 851.98,167.03 854.95,161.71 857.90,156.39 860.86,151.07 863.83,146.28 866.78,141.48 869.74,136.68 872.71,131.89 875.66,127.09 878.62,122.30 881.59,121.66 884.53,121.01 887.50,120.37 890.47,119.73 893.41,119.09 896.38,118.45 899.34,122.72 902.29,126.99 905.26,131.27 908.22,135.54 911.17,139.80 914.14,144.08 917.10,151.05 920.05,158.02 923.02,164.99 925.98,171.96 928.93,178.93 931.90,185.90 934.86,193.33 937.81,200.76 940.78,208.18 943.74,215.61 946.69,223.04 949.66,230.47 952.62,237.02 955.57,243.57 958.53,250.13 961.50,256.67 964.45,263.22 967.41,269.77 970.38,274.80 973.33,279.83 976.29,284.87 979.26,289.90 982.21,294.94 985.17,299.97 988.14,303.17 991.09,306.37 994.05,309.56 997.02,312.76 999.97,315.96 1002.93,319.16 1005.90,320.49 1008.84,321.82 1011.81,323.14 1014.78,324.46 1017.72,325.79 1020.69,327.12 1023.66,326.88 1026.60,326.65 1029.57,326.42 1032.53,326.18 1035.48,325.95 1038.45,325.71 1041.41,324.77 1044.36,323.83 1047.33,322.89 1050.29,321.94 1053.24,321.00 1056.21,320.06 1059.17,319.53 1062.12,319.00 1065.09,318.47 1068.05,317.94 1071.00,317.41 1073.97,316.88" fill="none" stroke="#111111" stroke-width="3"/>
<line x1="137" y1="184" x2="173" y2="184" stroke="#111111" stroke-width="4"/>
<text x="183" y="189" font-family="Arial" font-size="18" fill="black">Umag</text>
</svg>