<svg xmlns="http://www.w3.org/2000/svg" width="1200" height="820" viewBox="0 0 1200 820">
<rect width="100%" height="100%" fill="white"/>
<text x="600.0" y="36" text-anchor="middle" font-family="Arial" font-size="24" fill="black">profile_near_ceiling_x: vorticity:1</text>
<line x1="120.00" y1="75" x2="120.00" y2="705" stroke="#dddddd" stroke-width="1"/>
<text x="120.00" y="737" text-anchor="middle" font-family="Arial" font-size="16" fill="black">-0.560</text>
<line x1="376.25" y1="75" x2="376.25" y2="705" stroke="#dddddd" stroke-width="1"/>
<text x="376.25" y="737" text-anchor="middle" font-family="Arial" font-size="16" fill="black">1.470</text>
<line x1="632.50" y1="75" x2="632.50" y2="705" stroke="#dddddd" stroke-width="1"/>
<text x="632.50" y="737" text-anchor="middle" font-family="Arial" font-size="16" fill="black">3.500</text>
<line x1="888.75" y1="75" x2="888.75" y2="705" stroke="#dddddd" stroke-width="1"/>
<text x="888.75" y="737" text-anchor="middle" font-family="Arial" font-size="16" fill="black">5.530</text>
<line x1="1145.00" y1="75" x2="1145.00" y2="705" stroke="#dddddd" stroke-width="1"/>
<text x="1145.00" y="737" text-anchor="middle" font-family="Arial" font-size="16" fill="black">7.560</text>
<line x1="120" y1="705.00" x2="1145" y2="705.00" stroke="#dddddd" stroke-width="1"/>
<text x="104" y="710.00" text-anchor="end" font-family="Arial" font-size="16" fill="black">-0.778</text>
<line x1="120" y1="547.50" x2="1145" y2="547.50" stroke="#dddddd" stroke-width="1"/>
<text x="104" y="552.50" text-anchor="end" font-family="Arial" font-size="16" fill="black">-0.326</text>
<line x1="120" y1="390.00" x2="1145" y2="390.00" stroke="#dddddd" stroke-width="1"/>
<text x="104" y="395.00" text-anchor="end" font-family="Arial" font-size="16" fill="black">0.126</text>
<line x1="120" y1="232.50" x2="1145" y2="232.50" stroke="#dddddd" stroke-width="1"/>
<text x="104" y="237.50" text-anchor="end" font-family="Arial" font-size="16" fill="black">0.579</text>
<line x1="120" y1="75.00" x2="1145" y2="75.00" stroke="#dddddd" stroke-width="1"/>
<text x="104" y="80.00" text-anchor="end" font-family="Arial" font-size="16" fill="black">1.031</text>
<rect x="120" y="75" width="1025" height="630" fill="none" stroke="black" stroke-width="2"/>
<text x="632.5" y="785" text-anchor="middle" font-family="Arial" font-size="20" fill="black">x coordinate [m]</text>
<text x="34" y="390.0" transform="rotate(-90 34 390.0)" text-anchor="middle" font-family="Arial" font-size="20" fill="black">vorticity:1 [SI]</text>
<polyline points="190.69,118.45 193.64,167.00 196.58,215.55 199.53,264.10 202.47,312.65 205.42,359.91 208.36,406.64 211.31,453.38 214.25,500.12 217.20,525.25 220.14,521.57 223.09,517.88 226.03,514.20 228.98,510.49 231.93,506.60 234.87,502.71 237.82,498.82 240.76,494.93 243.71,491.19 246.65,487.48 249.60,483.77 252.54,480.06 255.49,477.04 258.43,474.55 261.38,472.06 264.32,469.57 267.27,467.53 270.22,466.62 273.16,465.70 276.11,464.79 279.05,463.88 282.00,464.12 284.94,464.36 287.89,464.59 290.83,464.83 293.78,465.61 296.72,466.62 299.67,467.63 302.62,468.63 305.56,469.86 308.51,471.38 311.45,472.91 314.40,474.43 317.34,476.02 320.29,478.01 323.23,480.00 326.17,481.99 329.13,483.98 332.07,486.26 335.01,488.58 337.96,490.91 340.91,493.24 343.85,494.84 346.80,495.89 349.74,496.94 352.68,498.00 355.64,498.20 358.58,496.27 361.52,494.34 364.47,492.42 367.41,490.49 370.35,487.44 373.31,484.39 376.25,481.34 379.19,478.29 382.15,475.40 385.09,472.58 388.03,469.76 390.98,466.94 393.92,463.85 396.86,460.41 399.82,456.97 402.76,453.53 405.70,450.18 408.65,447.42 411.59,444.66 414.54,441.89 417.49,439.13 420.43,439.71 423.37,440.84 426.33,441.97 429.27,443.10 432.21,447.86 435.16,455.34 438.10,462.82 441.04,470.30 444.00,479.33 446.94,492.21 449.88,505.09 452.83,517.97 455.78,530.85 458.72,545.10 461.67,559.34 464.61,573.59 467.55,587.83 470.51,599.84 473.45,610.95 476.39,622.05 479.34,633.16 482.28,641.72 485.23,646.88 488.18,652.05 491.12,657.21 494.06,661.55 497.02,660.99 499.96,660.44 502.90,659.88 505.85,659.32 508.79,655.89 511.73,651.98 514.69,648.08 517.63,644.17 520.57,639.48 523.52,634.22 526.47,628.96 529.41,623.69 532.36,618.33 535.30,612.72 538.24,607.12 541.20,601.51 544.14,595.90 547.08,590.44 550.03,584.97 552.97,579.50 555.92,574.03 558.87,568.65 561.81,563.30 564.75,557.95 567.71,552.60 570.65,547.20 573.59,541.72 576.54,536.25 579.48,530.78 582.42,525.29 585.38,519.72 588.32,514.15 591.26,508.58 594.21,503.00 597.16,497.30 600.10,491.58 603.05,485.85 605.99,480.12 608.93,473.77 611.89,466.95 614.83,460.13 617.77,453.31 620.72,446.21 623.66,438.42 626.60,430.63 629.56,422.84 632.50,415.05 635.44,407.82 638.40,400.59 641.34,393.35 644.28,386.12 647.23,379.14 650.17,372.25 653.11,365.37 656.07,358.49 659.01,351.36 661.95,343.89 664.90,336.42 667.84,328.95 670.79,321.42 673.74,313.48 676.68,305.54 679.62,297.59 682.58,289.65 685.52,281.67 688.46,273.68 691.41,265.69 694.35,257.70 697.29,250.31 700.25,243.38 703.19,236.45 706.13,229.53 709.08,223.45 712.03,219.50 714.97,215.55 717.92,211.61 720.86,207.66 723.80,209.75 726.76,211.85 729.70,213.95 732.64,216.04 735.59,223.47 738.53,233.03 741.48,242.59 744.43,252.15 747.37,262.72 750.31,274.65 753.27,286.57 756.21,298.50 759.15,309.61 762.10,315.90 765.04,322.18 767.98,328.46 770.94,334.75 773.88,334.18 776.82,332.47 779.77,330.76 782.72,329.05 785.66,325.18 788.61,319.70 791.55,314.21 794.49,308.72 797.45,303.42 800.39,298.59 803.33,293.77 806.28,288.94 809.22,284.11 812.17,281.38 815.12,278.66 818.06,275.93 821.00,273.21 823.96,272.03 826.90,271.46 829.84,270.89 832.79,270.33 835.73,270.90 838.67,272.99 841.63,275.08 844.57,277.18 847.51,279.78 850.46,285.38 853.41,290.99 856.35,296.60 859.30,302.21 862.24,310.91 865.18,320.13 868.14,329.35 871.08,338.58 874.02,348.52 876.97,359.00 879.91,369.49 882.85,379.97 885.81,389.68 888.75,397.44 891.69,405.20 894.65,412.97 897.59,420.73 900.53,423.91 903.48,427.09 906.42,430.27 909.36,433.45 912.32,434.01 915.26,433.53 918.20,433.06 921.15,432.58 924.09,431.56 927.04,429.82 929.99,428.08 932.93,426.34 935.87,424.67 938.83,423.44 941.77,422.20 944.71,420.97 947.66,419.73 950.60,419.16 953.54,418.70 956.50,418.23 959.44,417.77 962.38,417.70 965.33,417.94 968.28,418.18 971.22,418.41 974.17,418.74 977.11,419.30 980.05,419.86 983.01,420.43 985.95,420.99 988.89,421.38 991.84,421.78 994.78,422.18 997.73,422.57 1000.68,422.72 1003.62,422.76 1006.56,422.80 1009.52,422.84 1012.46,422.81 1015.40,422.68 1018.35,422.55 1021.29,422.43 1024.23,422.36 1027.19,422.62 1030.13,422.88 1033.07,423.15 1036.02,423.41 1038.97,423.92 1041.91,424.47 1044.86,425.01 1047.80,425.56 1050.74,428.96 1053.70,434.51 1056.64,440.05 1059.58,445.60 1062.53,451.08 1065.47,456.40 1068.42,461.72 1071.37,467.04 1074.31,472.36" fill="none" stroke="#000000" stroke-width="3"/>
<line x1="142" y1="100" x2="178" y2="100" stroke="#000000" stroke-width="4"/>
<text x="188" y="105" font-family="Arial" font-size="18" fill="black">vorticity:1</text>
</svg>