<svg xmlns="http://www.w3.org/2000/svg" width="1200" height="820" viewBox="0 0 1200 820">
<rect width="100%" height="100%" fill="white"/>
<text x="600.0" y="36" text-anchor="middle" font-family="Arial" font-size="24" fill="black">profile_near_ceiling_x: U:1</text>
<line x1="120.00" y1="75" x2="120.00" y2="705" stroke="#dddddd" stroke-width="1"/>
<text x="120.00" y="737" text-anchor="middle" font-family="Arial" font-size="16" fill="black">-0.560</text>
<line x1="376.25" y1="75" x2="376.25" y2="705" stroke="#dddddd" stroke-width="1"/>
<text x="376.25" y="737" text-anchor="middle" font-family="Arial" font-size="16" fill="black">1.470</text>
<line x1="632.50" y1="75" x2="632.50" y2="705" stroke="#dddddd" stroke-width="1"/>
<text x="632.50" y="737" text-anchor="middle" font-family="Arial" font-size="16" fill="black">3.500</text>
<line x1="888.75" y1="75" x2="888.75" y2="705" stroke="#dddddd" stroke-width="1"/>
<text x="888.75" y="737" text-anchor="middle" font-family="Arial" font-size="16" fill="black">5.530</text>
<line x1="1145.00" y1="75" x2="1145.00" y2="705" stroke="#dddddd" stroke-width="1"/>
<text x="1145.00" y="737" text-anchor="middle" font-family="Arial" font-size="16" fill="black">7.560</text>
<line x1="120" y1="705.00" x2="1145" y2="705.00" stroke="#dddddd" stroke-width="1"/>
<text x="104" y="710.00" text-anchor="end" font-family="Arial" font-size="16" fill="black">-0.061</text>
<line x1="120" y1="547.50" x2="1145" y2="547.50" stroke="#dddddd" stroke-width="1"/>
<text x="104" y="552.50" text-anchor="end" font-family="Arial" font-size="16" fill="black">0.085</text>
<line x1="120" y1="390.00" x2="1145" y2="390.00" stroke="#dddddd" stroke-width="1"/>
<text x="104" y="395.00" text-anchor="end" font-family="Arial" font-size="16" fill="black">0.230</text>
<line x1="120" y1="232.50" x2="1145" y2="232.50" stroke="#dddddd" stroke-width="1"/>
<text x="104" y="237.50" text-anchor="end" font-family="Arial" font-size="16" fill="black">0.376</text>
<line x1="120" y1="75.00" x2="1145" y2="75.00" stroke="#dddddd" stroke-width="1"/>
<text x="104" y="80.00" text-anchor="end" font-family="Arial" font-size="16" fill="black">0.521</text>
<rect x="120" y="75" width="1025" height="630" fill="none" stroke="black" stroke-width="2"/>
<text x="632.5" y="785" text-anchor="middle" font-family="Arial" font-size="20" fill="black">x coordinate [m]</text>
<text x="34" y="390.0" transform="rotate(-90 34 390.0)" text-anchor="middle" font-family="Arial" font-size="20" fill="black">U:1 [SI]</text>
<polyline points="190.69,434.90 193.64,434.78 196.58,434.65 199.53,434.52 202.47,434.39 205.42,434.23 208.36,434.07 211.31,433.89 214.25,433.72 217.20,433.42 220.14,432.95 223.09,432.48 226.03,432.01 228.98,431.43 231.93,430.17 234.87,428.93 237.82,427.68 240.76,426.42 243.71,424.52 246.65,422.50 249.60,420.49 252.54,418.48 255.49,416.06 258.43,413.36 261.38,410.66 264.32,407.95 267.27,405.09 270.22,401.83 273.16,398.59 276.11,395.33 279.05,392.07 282.00,388.45 284.94,384.84 287.89,381.21 290.83,377.59 293.78,373.87 296.72,370.11 299.67,366.35 302.62,362.59 305.56,358.86 308.51,355.18 311.45,351.50 314.40,347.82 317.34,344.17 320.29,340.76 323.23,337.35 326.17,333.94 329.13,330.53 332.07,327.47 335.01,324.48 337.96,321.48 340.91,318.50 343.85,315.82 346.80,313.40 349.74,310.97 352.68,308.55 355.64,306.26 358.58,304.36 361.52,302.44 364.47,300.53 367.41,298.63 370.35,296.88 373.31,295.14 376.25,293.41 379.19,291.67 382.15,289.88 385.09,288.07 388.03,286.26 390.98,284.45 393.92,282.56 396.86,280.56 399.82,278.54 402.76,276.53 405.70,274.46 408.65,272.02 411.59,269.59 414.54,267.14 417.49,264.71 420.43,261.73 423.37,258.65 426.33,255.58 429.27,252.50 432.21,248.99 435.16,245.15 438.10,241.32 441.04,237.47 444.00,233.40 446.94,228.70 449.88,224.02 452.83,219.33 455.78,214.64 458.72,209.25 461.67,203.86 464.61,198.46 467.55,193.06 470.51,187.61 473.45,182.14 476.39,176.66 479.34,171.19 482.28,166.00 485.23,161.21 488.18,156.40 491.12,151.60 494.06,146.97 497.02,143.32 499.96,139.67 502.90,136.02 505.85,132.37 508.79,129.88 511.73,127.59 514.69,125.29 517.63,123.00 520.57,121.51 523.52,120.65 526.47,119.77 529.41,118.90 532.36,118.45 535.30,119.01 538.24,119.57 541.20,120.15 544.14,120.71 547.08,122.66 550.03,124.62 552.97,126.57 555.92,128.52 558.87,131.35 561.81,134.53 564.75,137.71 567.71,140.89 570.65,144.47 573.59,148.57 576.54,152.67 579.48,156.77 582.42,160.95 585.38,165.59 588.32,170.23 591.26,174.87 594.21,179.50 597.16,184.33 600.10,189.18 603.05,194.03 605.99,198.89 608.93,203.62 611.89,208.26 614.83,212.91 617.77,217.55 620.72,221.99 623.66,225.88 626.60,229.77 629.56,233.65 632.50,237.55 635.44,240.63 638.40,243.71 641.34,246.80 644.28,249.87 647.23,252.84 650.17,255.76 653.11,258.69 656.07,261.61 659.01,264.77 661.95,268.27 664.90,271.76 667.84,275.26 670.79,278.92 673.74,283.59 676.68,288.24 679.62,292.91 682.58,297.57 685.52,303.68 688.46,310.03 691.41,316.38 694.35,322.74 697.29,330.32 700.25,338.82 703.19,347.33 706.13,355.83 709.08,364.99 712.03,375.75 714.97,386.52 717.92,397.30 720.86,408.07 723.80,420.95 726.76,433.82 729.70,446.69 732.64,459.57 735.59,472.95 738.53,486.53 741.48,500.10 744.43,513.67 747.37,526.68 750.31,538.92 753.27,551.16 756.21,563.40 759.15,575.23 762.10,584.61 765.04,593.98 767.98,603.36 770.94,612.73 773.88,619.26 776.82,625.31 779.77,631.36 782.72,637.41 785.66,642.01 788.61,645.51 791.55,649.02 794.49,652.53 797.45,655.47 800.39,656.99 803.33,658.51 806.28,660.03 809.22,661.55 812.17,661.37 815.12,661.19 818.06,661.01 821.00,660.83 823.96,659.36 826.90,657.37 829.84,655.38 832.79,653.39 835.73,650.38 838.67,646.02 841.63,641.66 844.57,637.29 847.51,632.57 850.46,625.71 853.41,618.85 856.35,611.99 859.30,605.12 862.24,596.46 865.18,587.50 868.14,578.53 871.08,569.57 874.02,560.41 876.97,551.10 879.91,541.79 882.85,532.48 885.81,523.61 888.75,515.86 891.69,508.11 894.65,500.35 897.59,492.60 900.53,486.97 903.48,481.34 906.42,475.71 909.36,470.09 912.32,465.90 915.26,462.31 918.20,458.70 921.15,455.11 924.09,452.22 927.04,450.28 929.99,448.35 932.93,446.41 935.87,444.70 938.83,444.37 941.77,444.02 944.71,443.67 947.66,443.34 950.60,444.16 953.54,445.17 956.50,446.18 959.44,447.20 962.38,448.69 965.33,450.50 968.28,452.32 971.22,454.14 974.17,456.00 977.11,457.95 980.05,459.91 983.01,461.86 985.95,463.82 988.89,465.24 991.84,466.67 994.78,468.10 997.73,469.52 1000.68,470.16 1003.62,470.48 1006.56,470.82 1009.52,471.14 1012.46,470.81 1015.40,469.60 1018.35,468.39 1021.29,467.19 1024.23,465.72 1027.19,462.69 1030.13,459.66 1033.07,456.63 1036.02,453.60 1038.97,448.82 1041.91,443.74 1044.86,438.66 1047.80,433.58 1050.74,427.19 1053.70,419.80 1056.64,412.41 1059.58,405.03 1062.53,398.52 1065.47,394.21 1068.42,389.91 1071.37,385.60 1074.31,381.30" fill="none" stroke="#000000" stroke-width="3"/>
<line x1="142" y1="100" x2="178" y2="100" stroke="#000000" stroke-width="4"/>
<text x="188" y="105" font-family="Arial" font-size="18" fill="black">U:1</text>
</svg>