<svg xmlns="http://www.w3.org/2000/svg" width="1200" height="820" viewBox="0 0 1200 820">
<rect width="100%" height="100%" fill="white"/>
<text x="600.0" y="36" text-anchor="middle" font-family="Arial" font-size="24" fill="black">profile_near_floor_x: k</text>
<line x1="120.00" y1="75" x2="120.00" y2="705" stroke="#dddddd" stroke-width="1"/>
<text x="120.00" y="737" text-anchor="middle" font-family="Arial" font-size="16" fill="black">-0.560</text>
<line x1="376.25" y1="75" x2="376.25" y2="705" stroke="#dddddd" stroke-width="1"/>
<text x="376.25" y="737" text-anchor="middle" font-family="Arial" font-size="16" fill="black">1.470</text>
<line x1="632.50" y1="75" x2="632.50" y2="705" stroke="#dddddd" stroke-width="1"/>
<text x="632.50" y="737" text-anchor="middle" font-family="Arial" font-size="16" fill="black">3.500</text>
<line x1="888.75" y1="75" x2="888.75" y2="705" stroke="#dddddd" stroke-width="1"/>
<text x="888.75" y="737" text-anchor="middle" font-family="Arial" font-size="16" fill="black">5.530</text>
<line x1="1145.00" y1="75" x2="1145.00" y2="705" stroke="#dddddd" stroke-width="1"/>
<text x="1145.00" y="737" text-anchor="middle" font-family="Arial" font-size="16" fill="black">7.560</text>
<line x1="120" y1="705.00" x2="1145" y2="705.00" stroke="#dddddd" stroke-width="1"/>
<text x="104" y="710.00" text-anchor="end" font-family="Arial" font-size="16" fill="black">0.002</text>
<line x1="120" y1="547.50" x2="1145" y2="547.50" stroke="#dddddd" stroke-width="1"/>
<text x="104" y="552.50" text-anchor="end" font-family="Arial" font-size="16" fill="black">0.008</text>
<line x1="120" y1="390.00" x2="1145" y2="390.00" stroke="#dddddd" stroke-width="1"/>
<text x="104" y="395.00" text-anchor="end" font-family="Arial" font-size="16" fill="black">0.014</text>
<line x1="120" y1="232.50" x2="1145" y2="232.50" stroke="#dddddd" stroke-width="1"/>
<text x="104" y="237.50" text-anchor="end" font-family="Arial" font-size="16" fill="black">0.020</text>
<line x1="120" y1="75.00" x2="1145" y2="75.00" stroke="#dddddd" stroke-width="1"/>
<text x="104" y="80.00" text-anchor="end" font-family="Arial" font-size="16" fill="black">0.025</text>
<rect x="120" y="75" width="1025" height="630" fill="none" stroke="black" stroke-width="2"/>
<text x="632.5" y="785" text-anchor="middle" font-family="Arial" font-size="20" fill="black">x coordinate [m]</text>
<text x="34" y="390.0" transform="rotate(-90 34 390.0)" text-anchor="middle" font-family="Arial" font-size="20" fill="black">k [m2/s2]</text>
<polyline points="190.69,661.55 193.64,656.67 196.58,651.79 199.53,646.91 202.47,642.03 205.42,635.02 208.36,627.17 211.31,619.30 214.25,611.45 217.20,604.74 220.14,599.58 223.09,594.41 226.03,589.24 228.98,584.23 231.93,580.16 234.87,576.09 237.82,572.02 240.76,567.95 243.71,564.61 246.65,561.39 249.60,558.18 252.54,554.96 255.49,552.73 258.43,551.23 261.38,549.74 264.32,548.24 267.27,547.41 270.22,548.25 273.16,549.09 276.11,549.94 279.05,550.78 282.00,550.23 284.94,549.69 287.89,549.14 290.83,548.59 293.78,545.35 296.72,541.03 299.67,536.71 302.62,532.39 305.56,529.39 308.51,528.16 311.45,526.93 314.40,525.70 317.34,524.84 320.29,526.23 323.23,527.63 326.17,529.02 329.13,530.41 332.07,530.46 335.01,530.28 337.96,530.11 340.91,529.93 343.85,529.80 346.80,529.69 349.74,529.57 352.68,529.47 355.64,529.33 358.58,529.12 361.52,528.91 364.47,528.70 367.41,528.49 370.35,528.11 373.31,527.73 376.25,527.35 379.19,526.98 382.15,525.95 385.09,524.67 388.03,523.40 390.98,522.12 393.92,518.35 396.86,511.28 399.82,504.21 402.76,497.14 405.70,483.99 408.65,434.38 411.59,384.79 414.54,335.17 417.49,285.55 420.43,245.51 423.37,207.08 426.33,168.66 429.27,130.21 432.21,118.45 435.16,126.67 438.10,134.92 441.04,143.18 444.00,150.00 446.94,153.37 449.88,156.71 452.83,160.08 455.78,163.43 458.72,162.70 461.67,161.94 464.61,161.22 467.55,160.49 470.51,158.79 473.45,156.71 476.39,154.61 479.34,152.53 482.28,151.02 485.23,150.27 488.18,149.51 491.12,148.78 494.06,148.60 497.02,151.91 499.96,155.23 502.90,158.55 505.85,161.84 508.79,169.71 511.73,178.31 514.69,186.91 517.63,195.52 520.57,206.36 523.52,218.84 526.47,231.35 529.41,243.84 532.36,256.32 535.30,268.78 538.24,281.24 541.20,293.70 544.14,306.15 547.08,314.03 550.03,321.90 552.97,329.75 555.92,337.62 558.87,341.59 561.81,343.99 564.75,346.36 567.71,348.76 570.65,358.90 573.59,379.39 576.54,399.89 579.48,420.41 582.42,440.96 585.38,461.88 588.32,482.78 591.26,503.70 594.21,524.62 597.16,528.08 600.10,528.63 603.05,529.17 605.99,529.72 608.93,529.95 611.89,529.94 614.83,529.94 617.77,529.93 620.72,529.93 623.66,529.91 626.60,529.90 629.56,529.88 632.50,529.87 635.44,529.84 638.40,529.82 641.34,529.80 644.28,529.77 647.23,529.77 650.17,529.76 653.11,529.76 656.07,529.76 659.01,529.56 661.95,529.12 664.90,528.67 667.84,528.22 670.79,524.62 673.74,502.15 676.68,479.68 679.62,457.22 682.58,434.73 685.52,411.81 688.46,388.78 691.41,365.78 694.35,342.77 697.29,331.37 700.25,328.70 703.19,326.00 706.13,323.33 709.08,319.15 712.03,311.25 714.97,303.35 717.92,295.45 720.86,287.55 723.80,274.47 726.76,261.39 729.70,248.31 732.64,235.24 735.59,224.05 738.53,213.64 741.48,203.20 744.43,192.77 747.37,185.83 750.31,183.57 753.27,181.30 756.21,179.04 759.15,177.75 762.10,182.33 765.04,186.94 767.98,191.52 770.94,196.11 773.88,200.59 776.82,205.03 779.77,209.48 782.72,213.96 785.66,215.52 788.61,214.96 791.55,214.36 794.49,213.80 797.45,212.02 800.39,207.16 803.33,202.34 806.28,197.48 809.22,192.66 812.17,185.81 815.12,178.96 818.06,172.11 821.00,165.26 823.96,155.12 826.90,143.69 829.84,132.25 832.79,120.82 835.73,131.74 838.67,172.46 841.63,213.18 844.57,253.90 847.51,296.23 850.46,348.14 853.41,400.02 856.35,451.93 859.30,503.82 862.24,514.51 865.18,518.33 868.14,522.15 871.08,525.97 874.02,527.84 876.97,528.25 879.91,528.65 882.85,529.05 885.81,529.38 888.75,529.52 891.69,529.65 894.65,529.78 897.59,529.92 900.53,529.97 903.48,530.02 906.42,530.07 909.36,530.12 912.32,530.05 915.26,529.93 918.20,529.80 921.15,529.68 924.09,529.51 927.04,529.27 929.99,529.04 932.93,528.80 935.87,528.26 938.83,525.86 941.77,523.46 944.71,521.06 947.66,518.67 950.60,515.42 953.54,512.02 956.50,508.63 959.44,505.24 962.38,503.99 965.33,504.37 968.28,504.74 971.22,505.11 974.17,506.29 977.11,509.46 980.05,512.64 983.01,515.82 985.95,519.00 988.89,522.33 991.84,525.65 994.78,528.98 997.73,532.31 1000.68,535.30 1003.62,538.17 1006.56,541.03 1009.52,543.89 1012.46,546.27 1015.40,548.02 1018.35,549.76 1021.29,551.50 1024.23,553.09 1027.19,553.79 1030.13,554.49 1033.07,555.19 1036.02,555.89 1038.97,557.21 1041.91,558.63 1044.86,560.05 1047.80,561.47 1050.74,565.66 1053.70,571.92 1056.64,578.19 1059.58,584.46 1062.53,590.37 1065.47,595.41 1068.42,600.45 1071.37,605.49 1074.31,610.52" fill="none" stroke="#000000" stroke-width="3"/>
<line x1="142" y1="100" x2="178" y2="100" stroke="#000000" stroke-width="4"/>
<text x="188" y="105" font-family="Arial" font-size="18" fill="black">k</text>
</svg>