<svg xmlns="http://www.w3.org/2000/svg" width="1200" height="820" viewBox="0 0 1200 820">
<rect width="100%" height="100%" fill="white"/>
<text x="600.0" y="36" text-anchor="middle" font-family="Arial" font-size="24" fill="black">profile_center_y: epsilon</text>
<line x1="120.00" y1="75" x2="120.00" y2="705" stroke="#dddddd" stroke-width="1"/>
<text x="120.00" y="737" text-anchor="middle" font-family="Arial" font-size="16" fill="black">-0.400</text>
<line x1="376.25" y1="75" x2="376.25" y2="705" stroke="#dddddd" stroke-width="1"/>
<text x="376.25" y="737" text-anchor="middle" font-family="Arial" font-size="16" fill="black">1.050</text>
<line x1="632.50" y1="75" x2="632.50" y2="705" stroke="#dddddd" stroke-width="1"/>
<text x="632.50" y="737" text-anchor="middle" font-family="Arial" font-size="16" fill="black">2.500</text>
<line x1="888.75" y1="75" x2="888.75" y2="705" stroke="#dddddd" stroke-width="1"/>
<text x="888.75" y="737" text-anchor="middle" font-family="Arial" font-size="16" fill="black">3.950</text>
<line x1="1145.00" y1="75" x2="1145.00" y2="705" stroke="#dddddd" stroke-width="1"/>
<text x="1145.00" y="737" text-anchor="middle" font-family="Arial" font-size="16" fill="black">5.400</text>
<line x1="120" y1="705.00" x2="1145" y2="705.00" stroke="#dddddd" stroke-width="1"/>
<text x="104" y="710.00" text-anchor="end" font-family="Arial" font-size="16" fill="black">0.001</text>
<line x1="120" y1="547.50" x2="1145" y2="547.50" stroke="#dddddd" stroke-width="1"/>
<text x="104" y="552.50" text-anchor="end" font-family="Arial" font-size="16" fill="black">0.003</text>
<line x1="120" y1="390.00" x2="1145" y2="390.00" stroke="#dddddd" stroke-width="1"/>
<text x="104" y="395.00" text-anchor="end" font-family="Arial" font-size="16" fill="black">0.006</text>
<line x1="120" y1="232.50" x2="1145" y2="232.50" stroke="#dddddd" stroke-width="1"/>
<text x="104" y="237.50" text-anchor="end" font-family="Arial" font-size="16" fill="black">0.008</text>
<line x1="120" y1="75.00" x2="1145" y2="75.00" stroke="#dddddd" stroke-width="1"/>
<text x="104" y="80.00" text-anchor="end" font-family="Arial" font-size="16" fill="black">0.010</text>
<rect x="120" y="75" width="1025" height="630" fill="none" stroke="black" stroke-width="2"/>
<text x="632.5" y="785" text-anchor="middle" font-family="Arial" font-size="20" fill="black">y coordinate [m]</text>
<text x="34" y="390.0" transform="rotate(-90 34 390.0)" text-anchor="middle" font-family="Arial" font-size="20" fill="black">epsilon [m2/s3]</text>
<polyline points="190.69,528.45 193.64,539.28 196.58,550.12 199.53,560.95 202.47,571.79 205.42,582.62 208.36,593.45 211.31,604.80 214.25,616.15 217.20,627.50 220.14,638.86 223.09,650.20 226.03,661.55 228.98,660.97 231.92,660.39 234.87,659.82 237.82,659.24 240.76,658.66 243.71,658.08 246.65,655.03 249.60,651.99 252.54,648.95 255.49,645.90 258.43,642.86 261.38,639.81 264.33,635.30 267.27,630.78 270.22,626.27 273.16,621.75 276.11,617.24 279.05,612.72 282.00,607.27 284.94,601.82 287.89,596.36 290.83,590.92 293.78,585.46 296.72,580.00 299.67,574.35 302.61,568.70 305.56,563.05 308.51,557.40 311.45,551.74 314.40,546.09 317.34,540.99 320.29,535.89 323.23,530.78 326.18,525.68 329.12,520.58 332.07,515.48 335.01,511.24 337.96,507.00 340.91,502.76 343.85,498.52 346.80,494.28 349.74,490.04 352.69,486.53 355.63,483.03 358.58,479.52 361.52,476.01 364.47,472.50 367.41,468.99 370.37,465.89 373.30,462.79 376.25,459.68 379.20,456.58 382.13,453.48 385.09,450.38 388.04,447.44 390.97,444.50 393.92,441.56 396.87,438.62 399.81,435.69 402.76,432.74 405.71,430.04 408.64,427.33 411.59,424.62 414.55,421.92 417.48,419.21 420.43,416.51 423.38,414.16 426.32,411.82 429.27,409.48 432.22,407.14 435.15,404.80 438.10,402.46 441.05,400.45 443.99,398.45 446.94,396.44 449.89,394.44 452.82,392.43 455.78,390.42 458.73,388.81 461.66,387.20 464.61,385.59 467.56,383.98 470.50,382.36 473.45,380.75 476.40,379.72 479.33,378.70 482.28,377.67 485.24,376.65 488.17,375.63 491.12,374.61 494.07,374.02 497.01,373.44 499.96,372.86 502.91,372.28 505.84,371.70 508.79,371.12 511.74,370.74 514.68,370.35 517.63,369.97 520.58,369.59 523.51,369.20 526.47,368.82 529.42,368.81 532.35,368.80 535.30,368.80 538.25,368.79 541.19,368.78 544.14,368.78 547.09,369.26 550.02,369.75 552.97,370.24 555.93,370.72 558.86,371.21 561.81,371.70 564.76,372.61 567.70,373.52 570.65,374.43 573.60,375.35 576.53,376.26 579.48,377.17 582.43,378.64 585.37,380.12 588.32,381.60 591.27,383.07 594.20,384.55 597.16,386.02 600.11,388.22 603.04,390.42 605.99,392.62 608.94,394.82 611.88,397.02 614.83,399.22 617.78,402.02 620.71,404.82 623.66,407.62 626.62,410.42 629.55,413.21 632.50,416.01 635.45,419.15 638.38,422.29 641.34,425.42 644.29,428.55 647.22,431.69 650.17,434.82 653.12,438.13 656.06,441.44 659.01,444.74 661.96,448.05 664.89,451.36 667.84,454.66 670.80,457.97 673.73,461.28 676.68,464.58 679.63,467.88 682.57,471.18 685.52,474.49 688.47,477.06 691.40,479.63 694.35,482.21 697.30,484.78 700.24,487.35 703.19,489.93 706.14,489.80 709.07,489.67 712.03,489.54 714.98,489.41 717.91,489.28 720.86,489.15 723.81,482.63 726.75,476.12 729.70,469.61 732.65,463.10 735.58,456.59 738.53,450.07 741.49,433.28 744.42,416.48 747.37,399.68 750.32,382.88 753.26,366.08 756.21,349.28 759.16,326.28 762.09,303.28 765.04,280.28 767.99,257.27 770.93,234.26 773.88,211.26 776.83,195.90 779.76,180.54 782.72,165.18 785.67,149.82 788.60,134.46 791.55,119.10 794.50,118.99 797.44,118.88 800.39,118.77 803.34,118.67 806.27,118.56 809.22,118.45 812.18,127.84 815.11,137.24 818.06,146.63 821.01,156.03 823.95,165.42 826.90,174.82 829.85,185.85 832.78,196.88 835.73,207.92 838.68,218.95 841.62,229.98 844.57,241.02 847.52,251.15 850.45,261.28 853.41,271.41 856.36,281.55 859.29,291.69 862.24,301.81 865.19,311.74 868.13,321.67 871.08,331.59 874.03,341.53 876.96,351.45 879.91,361.38 882.87,371.79 885.80,382.19 888.75,392.59 891.70,402.99 894.63,413.39 897.59,423.80 900.54,434.22 903.47,444.64 906.42,455.05 909.37,465.47 912.31,475.89 915.26,486.31 918.21,495.50 921.14,504.69 924.09,513.88 927.05,523.07 929.98,532.27 932.93,541.46 935.88,548.61 938.82,555.76 941.77,562.92 944.72,570.06 947.65,577.22 950.60,584.37 953.55,589.47 956.49,594.57 959.44,599.67 962.39,604.77 965.32,609.86 968.28,614.96 971.23,618.43 974.16,621.90 977.11,625.35 980.06,628.82 983.00,632.29 985.95,635.75 988.90,638.10 991.83,640.45 994.78,642.81 997.74,645.16 1000.67,647.51 1003.62,649.87 1006.57,651.36 1009.51,652.86 1012.46,654.36 1015.41,655.86 1018.34,657.36 1021.29,658.85 1024.24,658.51 1027.18,658.16 1030.13,657.81 1033.08,657.46 1036.01,657.12 1038.97,656.77 1041.92,645.78 1044.85,634.79 1047.80,623.81 1050.75,612.82 1053.69,601.83 1056.64,590.84 1059.59,580.74 1062.52,570.64 1065.47,560.54 1068.43,550.43 1071.36,540.33 1074.31,530.23" fill="none" stroke="#000000" stroke-width="3"/>
<line x1="142" y1="100" x2="178" y2="100" stroke="#000000" stroke-width="4"/>
<text x="188" y="105" font-family="Arial" font-size="18" fill="black">epsilon</text>
</svg>