<svg xmlns="http://www.w3.org/2000/svg" width="1200" height="820" viewBox="0 0 1200 820">
<rect width="100%" height="100%" fill="white"/>
<text x="600.0" y="36" text-anchor="middle" font-family="Arial" font-size="24" fill="black">profile_center_x: rho</text>
<line x1="120.00" y1="75" x2="120.00" y2="705" stroke="#dddddd" stroke-width="1"/>
<text x="120.00" y="737" text-anchor="middle" font-family="Arial" font-size="16" fill="black">-0.560</text>
<line x1="376.25" y1="75" x2="376.25" y2="705" stroke="#dddddd" stroke-width="1"/>
<text x="376.25" y="737" text-anchor="middle" font-family="Arial" font-size="16" fill="black">1.470</text>
<line x1="632.50" y1="75" x2="632.50" y2="705" stroke="#dddddd" stroke-width="1"/>
<text x="632.50" y="737" text-anchor="middle" font-family="Arial" font-size="16" fill="black">3.500</text>
<line x1="888.75" y1="75" x2="888.75" y2="705" stroke="#dddddd" stroke-width="1"/>
<text x="888.75" y="737" text-anchor="middle" font-family="Arial" font-size="16" fill="black">5.530</text>
<line x1="1145.00" y1="75" x2="1145.00" y2="705" stroke="#dddddd" stroke-width="1"/>
<text x="1145.00" y="737" text-anchor="middle" font-family="Arial" font-size="16" fill="black">7.560</text>
<line x1="120" y1="705.00" x2="1145" y2="705.00" stroke="#dddddd" stroke-width="1"/>
<text x="104" y="710.00" text-anchor="end" font-family="Arial" font-size="16" fill="black">1.144</text>
<line x1="120" y1="547.50" x2="1145" y2="547.50" stroke="#dddddd" stroke-width="1"/>
<text x="104" y="552.50" text-anchor="end" font-family="Arial" font-size="16" fill="black">1.154</text>
<line x1="120" y1="390.00" x2="1145" y2="390.00" stroke="#dddddd" stroke-width="1"/>
<text x="104" y="395.00" text-anchor="end" font-family="Arial" font-size="16" fill="black">1.164</text>
<line x1="120" y1="232.50" x2="1145" y2="232.50" stroke="#dddddd" stroke-width="1"/>
<text x="104" y="237.50" text-anchor="end" font-family="Arial" font-size="16" fill="black">1.173</text>
<line x1="120" y1="75.00" x2="1145" y2="75.00" stroke="#dddddd" stroke-width="1"/>
<text x="104" y="80.00" text-anchor="end" font-family="Arial" font-size="16" fill="black">1.183</text>
<rect x="120" y="75" width="1025" height="630" fill="none" stroke="black" stroke-width="2"/>
<text x="632.5" y="785" text-anchor="middle" font-family="Arial" font-size="20" fill="black">x coordinate [m]</text>
<text x="34" y="390.0" transform="rotate(-90 34 390.0)" text-anchor="middle" font-family="Arial" font-size="20" fill="black">rho [kg/m3]</text>
<polyline points="190.69,650.20 193.64,650.20 196.58,650.20 199.53,650.20 202.47,648.58 205.42,648.58 208.36,648.58 211.31,648.58 214.25,648.58 217.20,648.58 220.14,648.58 223.09,648.58 226.03,648.58 228.98,648.58 231.93,650.20 234.87,651.82 237.82,651.82 240.76,653.45 243.71,653.45 246.65,655.07 249.60,656.69 252.54,656.69 255.49,658.31 258.43,659.93 261.38,659.93 264.32,661.55 267.27,661.55 270.22,661.55 273.16,661.55 276.11,659.93 279.05,659.93 282.00,658.31 284.94,655.07 287.89,651.82 290.83,650.20 293.78,643.72 296.72,637.23 299.67,630.75 302.62,624.26 305.56,616.16 308.51,604.81 311.45,593.46 314.40,582.11 317.34,570.76 320.29,556.17 323.23,541.58 326.17,526.99 329.13,512.40 332.07,497.81 335.01,483.22 337.96,467.01 340.91,452.42 343.85,439.45 346.80,426.48 349.74,415.13 352.68,402.16 355.64,390.81 358.58,382.70 361.52,374.60 364.47,366.49 367.41,358.39 370.35,355.14 373.31,350.28 376.25,347.04 379.19,343.80 382.15,342.17 385.09,342.17 388.03,342.17 390.98,342.17 393.92,343.80 396.86,347.04 399.82,350.28 402.76,353.52 405.70,356.77 408.65,360.01 411.59,364.87 414.54,369.73 417.49,374.60 420.43,377.84 423.37,381.08 426.33,384.33 429.27,387.57 432.21,390.81 435.16,390.81 438.10,392.43 441.04,392.43 444.00,392.43 446.94,390.81 449.88,387.57 452.83,384.33 455.78,382.70 458.72,376.22 461.67,371.36 464.61,366.49 467.55,360.01 470.51,353.52 473.45,347.04 476.39,340.55 479.34,334.07 482.28,327.58 485.23,321.10 488.18,314.61 491.12,308.13 494.06,301.64 497.02,298.40 499.96,293.54 502.90,290.30 505.85,287.05 508.79,283.81 511.73,282.19 514.69,280.57 517.63,278.95 520.57,277.33 523.52,277.33 526.47,275.71 529.41,275.71 532.36,274.08 535.30,270.84 538.24,267.60 541.20,265.98 544.14,262.74 547.08,257.87 550.03,251.39 552.97,246.52 555.92,240.04 558.87,231.93 561.81,223.83 564.75,215.72 567.71,205.99 570.65,196.27 573.59,186.54 576.54,176.81 579.48,167.08 582.42,157.36 585.38,149.25 588.32,142.77 591.26,134.66 594.21,126.55 597.16,123.31 600.10,121.69 603.05,120.07 605.99,118.45 608.93,118.45 611.89,121.69 614.83,124.93 617.77,128.18 620.72,131.42 623.66,136.28 626.60,141.15 629.56,147.63 632.50,152.49 635.44,157.36 638.40,163.84 641.34,168.71 644.28,175.19 647.23,181.68 650.17,188.16 653.11,193.02 656.07,199.51 659.01,207.61 661.95,215.72 664.90,223.83 667.84,231.93 670.79,240.04 673.74,251.39 676.68,262.74 679.62,274.08 682.58,283.81 685.52,298.40 688.46,311.37 691.41,325.96 694.35,338.93 697.29,353.52 700.25,368.11 703.19,384.33 706.13,398.92 709.08,413.51 712.03,426.48 714.97,439.45 717.92,452.42 720.86,465.39 723.80,475.11 726.76,486.46 729.70,496.19 732.64,505.92 735.59,514.02 738.53,520.51 741.48,526.99 744.43,533.48 747.37,538.34 750.31,543.20 753.27,548.07 756.21,551.31 759.15,556.17 762.10,557.79 765.04,561.04 767.98,562.66 770.94,565.90 773.88,567.52 776.82,567.52 779.77,569.14 782.72,570.76 785.66,572.39 788.61,572.39 791.55,572.39 794.49,572.39 797.45,572.39 800.39,572.39 803.33,570.76 806.28,569.14 809.22,569.14 812.17,565.90 815.12,562.66 818.06,559.42 821.00,556.17 823.96,551.31 826.90,544.83 829.84,539.96 832.79,533.48 835.73,525.37 838.67,515.64 841.63,505.92 844.57,496.19 847.51,484.84 850.46,470.25 853.41,455.66 856.35,442.69 859.30,428.10 862.24,411.89 865.18,395.67 868.14,379.46 871.08,363.25 874.02,350.28 876.97,338.93 879.91,329.20 882.85,317.86 885.81,309.75 888.75,306.51 891.69,303.27 894.65,301.64 897.59,298.40 900.53,303.27 903.48,306.51 906.42,311.37 909.36,314.61 912.32,321.10 915.26,327.58 918.20,334.07 921.15,340.55 924.09,347.04 927.04,353.52 929.99,361.63 932.93,368.11 935.87,376.22 938.83,384.33 941.77,392.43 944.71,400.54 947.66,408.64 950.60,418.37 953.54,429.72 956.50,441.07 959.44,450.80 962.38,462.14 965.33,473.49 968.28,484.84 971.22,496.19 974.17,507.54 977.11,517.26 980.05,526.99 983.01,536.72 985.95,546.45 988.89,552.93 991.84,559.42 994.78,565.90 997.73,572.39 1000.68,575.63 1003.62,578.87 1006.56,582.11 1009.52,585.36 1012.46,586.98 1015.40,586.98 1018.35,586.98 1021.29,586.98 1024.23,588.60 1027.19,586.98 1030.13,586.98 1033.07,585.36 1036.02,585.36 1038.97,583.73 1041.91,582.11 1044.86,582.11 1047.80,580.49 1050.74,580.49 1053.70,578.87 1056.64,578.87 1059.58,577.25 1062.53,577.25 1065.47,577.25 1068.42,577.25 1071.37,575.63 1074.31,575.63" fill="none" stroke="#000000" stroke-width="3"/>
<line x1="142" y1="100" x2="178" y2="100" stroke="#000000" stroke-width="4"/>
<text x="188" y="105" font-family="Arial" font-size="18" fill="black">rho</text>
</svg>