<svg xmlns="http://www.w3.org/2000/svg" width="1200" height="820" viewBox="0 0 1200 820">
<rect width="100%" height="100%" fill="white"/>
<text x="600.0" y="36" text-anchor="middle" font-family="Arial" font-size="24" fill="black">profile_rack_height_x: nut</text>
<line x1="120.00" y1="75" x2="120.00" y2="705" stroke="#dddddd" stroke-width="1"/>
<text x="120.00" y="737" text-anchor="middle" font-family="Arial" font-size="16" fill="black">-0.560</text>
<line x1="376.25" y1="75" x2="376.25" y2="705" stroke="#dddddd" stroke-width="1"/>
<text x="376.25" y="737" text-anchor="middle" font-family="Arial" font-size="16" fill="black">1.470</text>
<line x1="632.50" y1="75" x2="632.50" y2="705" stroke="#dddddd" stroke-width="1"/>
<text x="632.50" y="737" text-anchor="middle" font-family="Arial" font-size="16" fill="black">3.500</text>
<line x1="888.75" y1="75" x2="888.75" y2="705" stroke="#dddddd" stroke-width="1"/>
<text x="888.75" y="737" text-anchor="middle" font-family="Arial" font-size="16" fill="black">5.530</text>
<line x1="1145.00" y1="75" x2="1145.00" y2="705" stroke="#dddddd" stroke-width="1"/>
<text x="1145.00" y="737" text-anchor="middle" font-family="Arial" font-size="16" fill="black">7.560</text>
<line x1="120" y1="705.00" x2="1145" y2="705.00" stroke="#dddddd" stroke-width="1"/>
<text x="104" y="710.00" text-anchor="end" font-family="Arial" font-size="16" fill="black">-5.31e-04</text>
<line x1="120" y1="547.50" x2="1145" y2="547.50" stroke="#dddddd" stroke-width="1"/>
<text x="104" y="552.50" text-anchor="end" font-family="Arial" font-size="16" fill="black">0.004</text>
<line x1="120" y1="390.00" x2="1145" y2="390.00" stroke="#dddddd" stroke-width="1"/>
<text x="104" y="395.00" text-anchor="end" font-family="Arial" font-size="16" fill="black">0.008</text>
<line x1="120" y1="232.50" x2="1145" y2="232.50" stroke="#dddddd" stroke-width="1"/>
<text x="104" y="237.50" text-anchor="end" font-family="Arial" font-size="16" fill="black">0.012</text>
<line x1="120" y1="75.00" x2="1145" y2="75.00" stroke="#dddddd" stroke-width="1"/>
<text x="104" y="80.00" text-anchor="end" font-family="Arial" font-size="16" fill="black">0.017</text>
<rect x="120" y="75" width="1025" height="630" fill="none" stroke="black" stroke-width="2"/>
<text x="632.5" y="785" text-anchor="middle" font-family="Arial" font-size="20" fill="black">x coordinate [m]</text>
<text x="34" y="390.0" transform="rotate(-90 34 390.0)" text-anchor="middle" font-family="Arial" font-size="20" fill="black">nut [m2/s]</text>
<polyline points="190.69,661.55 193.64,654.69 196.58,647.83 199.53,640.97 202.47,634.11 205.42,622.30 208.36,608.53 211.31,594.75 214.25,580.96 217.20,567.45 220.14,554.31 223.09,541.15 226.03,528.00 228.98,515.09 231.93,503.55 234.87,492.01 237.82,480.47 240.76,468.93 243.71,459.16 246.65,449.69 249.60,440.22 252.54,430.75 255.49,422.67 258.43,415.65 261.38,408.62 264.32,401.60 267.27,395.32 270.22,390.89 273.16,386.48 276.11,382.05 279.05,377.63 282.00,375.59 284.94,373.55 287.89,371.51 290.83,369.46 293.78,368.70 296.72,368.45 299.67,368.20 302.62,367.94 305.56,368.15 308.51,368.97 311.45,369.79 314.40,370.61 317.34,371.50 320.29,372.78 323.23,374.06 326.17,375.34 329.13,376.62 332.07,378.06 335.01,379.54 337.96,381.02 340.91,382.49 343.85,383.99 346.80,385.51 349.74,387.03 352.68,388.55 355.64,389.92 358.58,390.91 361.52,391.90 364.47,392.89 367.41,393.88 370.35,393.17 373.31,392.46 376.25,391.75 379.19,391.04 382.15,388.54 385.09,385.32 388.03,382.11 390.98,378.90 393.92,374.68 396.86,369.13 399.82,363.57 402.76,358.01 405.70,352.22 408.65,344.98 411.59,337.74 414.54,330.50 417.49,323.26 420.43,315.25 423.37,307.09 426.33,298.94 429.27,290.78 432.21,282.55 435.16,274.25 438.10,265.98 441.04,257.68 444.00,249.64 446.94,242.18 449.88,234.68 452.83,227.22 455.78,219.76 458.72,214.05 461.67,208.31 464.61,202.60 467.55,196.86 470.51,192.84 473.45,189.47 476.39,186.15 479.34,182.78 482.28,180.48 485.23,179.53 488.18,178.61 491.12,177.70 494.06,177.04 497.02,177.95 499.96,178.87 502.90,179.78 505.85,180.66 508.79,182.31 511.73,184.02 514.69,185.74 517.63,187.46 520.57,189.22 523.52,190.97 526.47,192.73 529.41,194.48 532.36,196.17 535.30,197.70 538.24,199.24 541.20,200.74 544.14,202.27 547.08,203.59 550.03,204.87 552.97,206.15 555.92,207.47 558.87,208.46 561.81,209.37 564.75,210.25 567.71,211.16 570.65,211.71 573.59,211.78 576.54,211.89 579.48,211.97 582.42,211.93 585.38,210.98 588.32,210.06 591.26,209.11 594.21,208.20 597.16,206.85 600.10,205.42 603.05,203.99 605.99,202.57 608.93,201.69 611.89,201.18 614.83,200.66 617.77,200.15 620.72,200.23 623.66,201.76 626.60,203.33 629.56,204.87 632.50,206.44 635.44,209.88 638.40,213.32 641.34,216.79 644.28,220.23 647.23,224.15 650.17,228.28 653.11,232.37 656.07,236.47 659.01,240.35 661.95,243.82 664.90,247.30 667.84,250.77 670.79,254.06 673.74,255.96 676.68,257.90 679.62,259.84 682.58,261.78 685.52,261.56 688.46,261.01 691.41,260.46 694.35,259.91 697.29,257.57 700.25,253.92 703.19,250.26 706.13,246.60 709.08,242.25 712.03,236.07 714.97,229.89 717.92,223.71 720.86,217.53 723.80,210.47 726.76,203.37 729.70,196.31 732.64,189.25 735.59,182.67 738.53,176.27 741.48,169.87 744.43,163.47 747.37,157.69 750.31,152.79 753.27,147.89 756.21,142.99 759.15,138.34 762.10,135.09 765.04,131.87 767.98,128.65 770.94,125.43 773.88,123.64 776.82,122.07 779.77,120.50 782.72,118.96 785.66,118.45 788.61,118.70 791.55,118.96 794.49,119.25 797.45,120.17 800.39,122.84 803.33,125.47 806.28,128.14 809.22,130.77 812.17,136.63 815.12,142.44 818.06,148.29 821.00,154.11 823.96,162.37 826.90,171.63 829.84,180.84 832.79,190.10 835.73,200.56 838.67,212.62 841.63,224.69 844.57,236.76 847.51,249.12 850.46,263.28 853.41,277.40 856.35,291.55 859.30,305.70 862.24,320.08 865.18,334.49 868.14,348.90 871.08,363.31 874.02,376.11 876.97,387.69 879.91,399.28 882.85,410.86 885.81,420.27 888.75,424.26 891.69,428.25 894.65,432.24 897.59,436.23 900.53,431.14 903.48,426.04 906.42,420.94 909.36,415.84 912.32,408.84 915.26,401.09 918.20,393.34 921.15,385.58 924.09,378.95 927.04,373.83 929.99,368.70 932.93,363.58 935.87,358.87 938.83,356.62 941.77,354.38 944.71,352.13 947.66,349.88 950.60,349.60 953.54,349.65 956.50,349.69 959.44,349.74 962.38,350.84 965.33,352.73 968.28,354.63 971.22,356.52 974.17,358.87 977.11,362.36 980.05,365.85 983.01,369.34 985.95,372.83 988.89,377.09 991.84,381.36 994.78,385.63 997.73,389.90 1000.68,393.96 1003.62,397.94 1006.56,401.92 1009.52,405.90 1012.46,410.03 1015.40,414.36 1018.35,418.70 1021.29,423.04 1024.23,427.78 1027.19,435.01 1030.13,442.24 1033.07,449.46 1036.02,456.69 1038.97,468.57 1041.91,481.23 1044.86,493.89 1047.80,506.55 1050.74,523.58 1053.70,543.89 1056.64,564.21 1059.58,584.52 1062.53,602.56 1065.47,614.93 1068.42,627.29 1071.37,639.65 1074.31,652.02" fill="none" stroke="#000000" stroke-width="3"/>
<line x1="142" y1="100" x2="178" y2="100" stroke="#000000" stroke-width="4"/>
<text x="188" y="105" font-family="Arial" font-size="18" fill="black">nut</text>
</svg>