<svg xmlns="http://www.w3.org/2000/svg" width="1200" height="820" viewBox="0 0 1200 820">
<rect width="100%" height="100%" fill="white"/>
<text x="600.0" y="36" text-anchor="middle" font-family="Arial" font-size="24" fill="black">profile_diagonal_supply_return: p</text>
<line x1="120.00" y1="75" x2="120.00" y2="705" stroke="#dddddd" stroke-width="1"/>
<text x="120.00" y="737" text-anchor="middle" font-family="Arial" font-size="16" fill="black">-0.729</text>
<line x1="376.25" y1="75" x2="376.25" y2="705" stroke="#dddddd" stroke-width="1"/>
<text x="376.25" y="737" text-anchor="middle" font-family="Arial" font-size="16" fill="black">1.913</text>
<line x1="632.50" y1="75" x2="632.50" y2="705" stroke="#dddddd" stroke-width="1"/>
<text x="632.50" y="737" text-anchor="middle" font-family="Arial" font-size="16" fill="black">4.555</text>
<line x1="888.75" y1="75" x2="888.75" y2="705" stroke="#dddddd" stroke-width="1"/>
<text x="888.75" y="737" text-anchor="middle" font-family="Arial" font-size="16" fill="black">7.197</text>
<line x1="1145.00" y1="75" x2="1145.00" y2="705" stroke="#dddddd" stroke-width="1"/>
<text x="1145.00" y="737" text-anchor="middle" font-family="Arial" font-size="16" fill="black">9.839</text>
<line x1="120" y1="705.00" x2="1145" y2="705.00" stroke="#dddddd" stroke-width="1"/>
<text x="104" y="710.00" text-anchor="end" font-family="Arial" font-size="16" fill="black">-35.68</text>
<line x1="120" y1="547.50" x2="1145" y2="547.50" stroke="#dddddd" stroke-width="1"/>
<text x="104" y="552.50" text-anchor="end" font-family="Arial" font-size="16" fill="black">-26.14</text>
<line x1="120" y1="390.00" x2="1145" y2="390.00" stroke="#dddddd" stroke-width="1"/>
<text x="104" y="395.00" text-anchor="end" font-family="Arial" font-size="16" fill="black">-16.60</text>
<line x1="120" y1="232.50" x2="1145" y2="232.50" stroke="#dddddd" stroke-width="1"/>
<text x="104" y="237.50" text-anchor="end" font-family="Arial" font-size="16" fill="black">-7.054</text>
<line x1="120" y1="75.00" x2="1145" y2="75.00" stroke="#dddddd" stroke-width="1"/>
<text x="104" y="80.00" text-anchor="end" font-family="Arial" font-size="16" fill="black">2.488</text>
<rect x="120" y="75" width="1025" height="630" fill="none" stroke="black" stroke-width="2"/>
<text x="632.5" y="785" text-anchor="middle" font-family="Arial" font-size="20" fill="black">distance along sample line [m]</text>
<text x="34" y="390.0" transform="rotate(-90 34 390.0)" text-anchor="middle" font-family="Arial" font-size="20" fill="black">p [Pa]</text>
<polyline points="190.69,118.45 193.64,119.48 196.58,120.51 199.53,121.54 202.47,122.57 205.42,123.63 208.36,124.70 211.31,125.80 214.25,126.88 217.20,127.94 220.14,128.98 223.09,130.94 226.03,132.89 228.98,134.81 231.93,136.70 234.87,138.60 237.82,140.48 240.76,142.37 243.71,144.23 246.65,146.08 249.60,147.93 252.54,149.79 255.49,151.64 258.43,153.48 261.38,155.33 264.32,157.18 267.27,159.02 270.22,160.87 273.16,162.71 276.11,164.56 279.05,166.42 282.00,168.27 284.94,170.13 287.88,172.00 290.83,173.86 293.78,175.73 296.73,177.60 299.67,179.48 302.62,181.36 305.57,183.25 308.50,185.14 311.45,187.03 314.40,188.92 317.34,190.82 320.29,192.72 323.24,194.63 326.18,196.53 329.12,198.44 332.07,200.36 335.01,202.27 337.96,204.19 340.91,206.11 343.85,208.04 346.80,209.96 349.74,211.88 352.68,213.81 355.63,215.74 358.58,217.66 361.53,219.59 364.47,221.52 367.42,223.45 370.36,225.36 373.30,227.27 376.25,229.18 379.20,231.10 382.14,233.01 385.09,234.91 388.04,236.80 390.97,238.70 393.92,240.59 396.87,242.47 399.81,244.36 402.76,246.24 405.71,248.11 408.65,249.97 411.59,251.84 414.54,253.70 417.48,255.56 420.43,257.42 423.38,259.26 426.32,261.11 429.27,262.96 432.21,264.81 435.16,266.66 438.10,268.51 441.05,270.36 444.00,272.22 446.94,274.08 449.89,275.94 452.84,277.80 455.77,279.67 458.72,281.55 461.67,283.41 464.61,285.28 467.56,287.16 470.51,289.04 473.45,290.92 476.39,292.80 479.34,294.70 482.28,296.58 485.23,298.48 488.18,300.36 491.12,302.26 494.07,304.14 497.01,306.04 499.96,307.94 502.90,309.82 505.85,311.72 508.80,313.60 511.74,315.50 514.69,317.38 517.63,319.26 520.57,321.13 523.52,323.01 526.47,324.87 529.41,326.74 532.36,328.60 535.31,330.47 538.24,332.33 541.19,334.20 544.14,336.06 547.08,337.91 550.03,339.76 552.98,341.59 555.92,343.44 558.86,345.29 561.81,347.14 564.76,348.97 567.70,350.82 570.65,352.65 573.60,354.50 576.54,356.33 579.49,358.16 582.43,359.99 585.37,361.83 588.32,363.67 591.27,365.51 594.21,367.34 597.16,369.19 600.11,371.04 603.04,372.90 605.99,374.73 608.94,376.58 611.88,378.43 614.83,380.28 617.78,382.14 620.72,384.01 623.66,385.87 626.61,387.76 629.55,389.62 632.50,391.50 635.45,393.38 638.40,395.26 641.34,397.15 644.28,399.03 647.23,400.91 650.17,402.79 653.12,404.69 656.07,406.59 659.01,408.49 661.96,410.38 664.90,412.28 667.84,414.16 670.79,416.06 673.74,417.96 676.68,419.86 679.63,421.75 682.58,423.64 685.51,425.53 688.46,427.43 691.41,429.31 694.35,431.21 697.30,433.09 700.25,434.96 703.20,436.84 706.14,438.72 709.08,440.60 712.03,442.47 714.97,444.35 717.92,446.21 720.87,448.08 723.81,449.94 726.76,451.81 729.70,453.67 732.64,455.52 735.59,457.39 738.54,459.24 741.48,461.10 744.43,462.95 747.38,464.82 750.31,466.66 753.26,468.51 756.21,470.38 759.15,472.23 762.10,474.07 765.05,475.92 767.99,477.77 770.93,479.62 773.88,481.47 776.83,483.32 779.77,485.17 782.72,487.01 785.67,488.86 788.61,490.70 791.55,492.54 794.50,494.39 797.44,496.24 800.39,498.09 803.34,499.94 806.28,501.79 809.23,503.63 812.17,505.48 815.11,507.32 818.06,509.16 821.01,511.01 823.95,512.88 826.90,514.73 829.85,516.57 832.79,518.42 835.73,520.27 838.68,522.12 841.63,523.97 844.57,525.82 847.52,527.67 850.47,529.53 853.41,531.38 856.35,533.23 859.30,535.08 862.24,536.94 865.19,538.79 868.14,540.64 871.08,542.49 874.03,544.35 876.97,546.20 879.91,548.07 882.86,549.91 885.81,551.76 888.75,553.63 891.70,555.49 894.65,557.34 897.58,559.21 900.53,561.07 903.48,562.94 906.43,564.82 909.37,566.68 912.32,568.56 915.27,570.45 918.20,572.33 921.15,574.23 924.10,576.11 927.04,578.00 929.99,579.92 932.94,581.82 935.88,583.72 938.82,585.63 941.77,587.53 944.71,589.44 947.66,591.34 950.61,593.24 953.55,595.14 956.50,597.03 959.44,598.93 962.38,600.83 965.33,602.73 968.28,604.61 971.22,606.49 974.17,608.37 977.12,610.24 980.06,612.12 983.00,613.99 985.95,615.85 988.90,617.73 991.84,619.60 994.79,621.48 997.74,623.34 1000.68,625.21 1003.62,627.07 1006.57,628.91 1009.51,630.74 1012.46,632.57 1015.41,634.40 1018.35,636.23 1021.30,638.05 1024.24,639.83 1027.18,641.66 1030.13,643.48 1033.08,645.29 1036.02,647.11 1038.97,648.93 1041.92,650.72 1044.86,652.52 1047.80,653.40 1050.75,654.27 1053.70,655.18 1056.64,656.07 1059.59,656.98 1062.54,657.87 1065.47,658.80 1068.42,659.70 1071.37,660.63 1074.31,661.55" fill="none" stroke="#000000" stroke-width="3"/>
<line x1="142" y1="100" x2="178" y2="100" stroke="#000000" stroke-width="4"/>
<text x="188" y="105" font-family="Arial" font-size="18" fill="black">p</text>
</svg>