<svg xmlns="http://www.w3.org/2000/svg" width="1200" height="820" viewBox="0 0 1200 820">
<rect width="100%" height="100%" fill="white"/>
<text x="600.0" y="36" text-anchor="middle" font-family="Arial" font-size="24" fill="black">profile_diagonal_supply_return: p_rgh</text>
<line x1="120.00" y1="75" x2="120.00" y2="705" stroke="#dddddd" stroke-width="1"/>
<text x="120.00" y="737" text-anchor="middle" font-family="Arial" font-size="16" fill="black">-0.729</text>
<line x1="376.25" y1="75" x2="376.25" y2="705" stroke="#dddddd" stroke-width="1"/>
<text x="376.25" y="737" text-anchor="middle" font-family="Arial" font-size="16" fill="black">1.913</text>
<line x1="632.50" y1="75" x2="632.50" y2="705" stroke="#dddddd" stroke-width="1"/>
<text x="632.50" y="737" text-anchor="middle" font-family="Arial" font-size="16" fill="black">4.555</text>
<line x1="888.75" y1="75" x2="888.75" y2="705" stroke="#dddddd" stroke-width="1"/>
<text x="888.75" y="737" text-anchor="middle" font-family="Arial" font-size="16" fill="black">7.197</text>
<line x1="1145.00" y1="75" x2="1145.00" y2="705" stroke="#dddddd" stroke-width="1"/>
<text x="1145.00" y="737" text-anchor="middle" font-family="Arial" font-size="16" fill="black">9.839</text>
<line x1="120" y1="705.00" x2="1145" y2="705.00" stroke="#dddddd" stroke-width="1"/>
<text x="104" y="710.00" text-anchor="end" font-family="Arial" font-size="16" fill="black">-0.038</text>
<line x1="120" y1="547.50" x2="1145" y2="547.50" stroke="#dddddd" stroke-width="1"/>
<text x="104" y="552.50" text-anchor="end" font-family="Arial" font-size="16" fill="black">0.162</text>
<line x1="120" y1="390.00" x2="1145" y2="390.00" stroke="#dddddd" stroke-width="1"/>
<text x="104" y="395.00" text-anchor="end" font-family="Arial" font-size="16" fill="black">0.361</text>
<line x1="120" y1="232.50" x2="1145" y2="232.50" stroke="#dddddd" stroke-width="1"/>
<text x="104" y="237.50" text-anchor="end" font-family="Arial" font-size="16" fill="black">0.561</text>
<line x1="120" y1="75.00" x2="1145" y2="75.00" stroke="#dddddd" stroke-width="1"/>
<text x="104" y="80.00" text-anchor="end" font-family="Arial" font-size="16" fill="black">0.760</text>
<rect x="120" y="75" width="1025" height="630" fill="none" stroke="black" stroke-width="2"/>
<text x="632.5" y="785" text-anchor="middle" font-family="Arial" font-size="20" fill="black">distance along sample line [m]</text>
<text x="34" y="390.0" transform="rotate(-90 34 390.0)" text-anchor="middle" font-family="Arial" font-size="20" fill="black">p_rgh [Pa]</text>
<polyline points="190.69,324.47 193.64,329.86 196.58,335.22 199.53,340.55 202.47,345.83 205.42,352.70 208.36,360.11 211.31,369.02 214.25,377.50 217.20,384.55 220.14,389.92 223.09,394.98 226.03,399.69 228.98,402.85 231.93,404.26 234.87,405.56 237.82,406.76 240.76,407.85 243.71,407.83 246.65,406.91 249.60,406.08 252.54,405.61 255.49,405.00 258.43,404.32 261.38,403.82 264.32,403.02 267.27,402.39 270.22,401.92 273.16,401.67 276.11,401.62 279.05,401.78 282.00,402.15 284.94,402.72 287.88,403.48 290.83,404.44 293.78,405.54 296.73,406.88 299.67,408.40 302.62,410.15 305.57,412.02 308.50,414.00 311.45,416.23 314.40,418.75 317.34,421.44 320.29,424.09 323.24,427.07 326.18,430.42 329.12,434.12 332.07,437.61 335.01,441.62 337.96,446.06 340.91,450.83 343.85,455.50 346.80,460.14 349.74,465.10 352.68,471.85 355.63,478.79 358.58,485.29 361.53,492.14 364.47,499.32 367.42,506.87 370.36,511.85 373.30,516.98 376.25,522.25 379.20,527.67 382.14,531.96 385.09,535.67 388.04,534.87 390.97,533.83 393.92,531.60 396.87,527.74 399.81,523.59 402.76,519.00 405.71,510.43 408.65,497.54 411.59,484.15 414.54,470.22 417.48,455.72 420.43,439.49 423.38,421.08 426.32,402.37 429.27,383.76 432.21,367.37 435.16,352.85 438.10,338.38 441.05,323.78 444.00,310.58 446.94,300.75 449.89,291.48 452.84,282.83 455.77,274.81 458.72,271.06 461.67,267.97 464.61,265.56 467.56,263.85 470.51,263.08 473.45,262.89 476.39,263.48 479.34,264.43 482.28,265.43 485.23,266.23 488.18,267.59 491.12,268.98 494.07,270.13 497.01,270.37 499.96,270.55 502.90,270.63 505.85,270.64 508.80,269.82 511.74,268.52 514.69,267.17 517.63,265.67 520.57,263.91 523.52,262.00 526.47,260.11 529.41,258.11 532.36,256.13 535.31,254.02 538.24,251.94 541.19,249.91 544.14,247.96 547.08,244.65 550.03,241.11 552.98,237.37 555.92,233.42 558.86,228.23 561.81,222.12 564.76,215.70 567.70,208.89 570.65,201.12 573.60,192.14 576.54,181.67 579.49,170.63 582.43,161.08 585.37,152.41 588.32,143.85 591.27,135.33 594.21,126.83 597.16,122.03 600.11,121.16 603.04,120.44 605.99,118.45 608.94,118.83 611.88,121.01 614.83,123.30 617.78,127.74 620.72,132.76 623.66,139.30 626.61,145.88 629.55,152.51 632.50,159.17 635.45,167.17 638.40,175.30 641.34,183.53 644.28,191.87 647.23,200.77 650.17,209.91 653.12,220.20 656.07,230.43 659.01,241.00 661.96,251.95 664.90,262.52 667.84,272.93 670.79,284.34 673.74,296.32 676.68,307.91 679.63,319.10 682.58,329.87 685.51,340.62 688.46,352.22 691.41,363.04 694.35,373.06 697.30,382.19 700.25,390.56 703.20,398.29 706.14,406.78 709.08,414.27 712.03,420.69 714.97,426.65 717.92,432.16 720.87,437.24 723.81,441.99 726.76,446.33 729.70,450.28 732.64,453.84 735.59,456.37 738.54,458.28 741.48,460.02 744.43,461.31 747.38,461.96 750.31,461.91 753.26,461.57 756.21,460.89 759.15,459.81 762.10,458.63 765.05,457.11 767.99,455.27 770.93,453.08 773.88,451.83 776.83,450.54 779.77,448.96 782.72,447.35 785.67,447.02 788.61,447.59 791.55,447.91 794.50,448.14 797.44,449.20 800.39,452.84 803.34,456.16 806.28,459.16 809.23,461.86 812.17,470.20 815.11,478.03 818.06,485.36 821.01,492.22 823.95,503.83 826.90,517.13 829.85,529.61 832.79,541.34 835.73,556.07 838.68,574.98 841.63,592.39 844.57,608.64 847.52,622.15 850.47,634.13 853.41,644.61 856.35,653.56 859.30,660.98 862.24,661.55 865.19,657.69 868.14,652.75 871.08,647.31 874.03,637.17 876.97,623.71 879.91,609.77 882.86,593.76 885.81,575.69 888.75,553.65 891.70,531.92 894.65,510.53 897.58,489.50 900.53,469.15 903.48,449.91 906.43,431.74 909.37,414.65 912.32,398.45 915.27,383.57 918.20,373.30 921.15,363.95 924.10,356.01 927.04,349.61 929.99,345.29 932.94,341.75 935.88,341.03 938.82,341.71 941.77,342.66 944.71,343.88 947.66,345.34 950.61,347.83 953.55,351.97 956.50,356.08 959.44,361.29 962.38,366.79 965.33,372.44 968.28,377.94 971.22,384.20 974.17,390.26 977.12,396.37 980.06,402.14 983.00,407.60 985.95,412.77 988.90,419.78 991.84,426.27 994.79,432.30 997.74,437.90 1000.68,442.66 1003.62,446.75 1006.57,450.03 1009.51,452.78 1012.46,454.78 1015.41,455.96 1018.35,457.77 1021.30,458.40 1024.24,458.04 1027.18,458.23 1030.13,458.01 1033.08,457.41 1036.02,456.44 1038.97,455.44 1041.92,453.92 1044.86,452.23 1047.80,450.23 1050.75,448.77 1053.70,447.77 1056.64,446.83 1059.59,446.26 1062.54,445.86 1065.47,445.81 1068.42,445.82 1071.37,445.90 1074.31,446.06" fill="none" stroke="#000000" stroke-width="3"/>
<line x1="142" y1="100" x2="178" y2="100" stroke="#000000" stroke-width="4"/>
<text x="188" y="105" font-family="Arial" font-size="18" fill="black">p_rgh</text>
</svg>