<svg xmlns="http://www.w3.org/2000/svg" width="1200" height="820" viewBox="0 0 1200 820">
<rect width="100%" height="100%" fill="white"/>
<text x="600.0" y="36" text-anchor="middle" font-family="Arial" font-size="24" fill="black">profile_center_z: p</text>
<line x1="120.00" y1="75" x2="120.00" y2="705" stroke="#dddddd" stroke-width="1"/>
<text x="120.00" y="737" text-anchor="middle" font-family="Arial" font-size="16" fill="black">-0.240</text>
<line x1="376.25" y1="75" x2="376.25" y2="705" stroke="#dddddd" stroke-width="1"/>
<text x="376.25" y="737" text-anchor="middle" font-family="Arial" font-size="16" fill="black">0.630</text>
<line x1="632.50" y1="75" x2="632.50" y2="705" stroke="#dddddd" stroke-width="1"/>
<text x="632.50" y="737" text-anchor="middle" font-family="Arial" font-size="16" fill="black">1.500</text>
<line x1="888.75" y1="75" x2="888.75" y2="705" stroke="#dddddd" stroke-width="1"/>
<text x="888.75" y="737" text-anchor="middle" font-family="Arial" font-size="16" fill="black">2.370</text>
<line x1="1145.00" y1="75" x2="1145.00" y2="705" stroke="#dddddd" stroke-width="1"/>
<text x="1145.00" y="737" text-anchor="middle" font-family="Arial" font-size="16" fill="black">3.240</text>
<line x1="120" y1="705.00" x2="1145" y2="705.00" stroke="#dddddd" stroke-width="1"/>
<text x="104" y="710.00" text-anchor="end" font-family="Arial" font-size="16" fill="black">-35.69</text>
<line x1="120" y1="547.50" x2="1145" y2="547.50" stroke="#dddddd" stroke-width="1"/>
<text x="104" y="552.50" text-anchor="end" font-family="Arial" font-size="16" fill="black">-26.09</text>
<line x1="120" y1="390.00" x2="1145" y2="390.00" stroke="#dddddd" stroke-width="1"/>
<text x="104" y="395.00" text-anchor="end" font-family="Arial" font-size="16" fill="black">-16.49</text>
<line x1="120" y1="232.50" x2="1145" y2="232.50" stroke="#dddddd" stroke-width="1"/>
<text x="104" y="237.50" text-anchor="end" font-family="Arial" font-size="16" fill="black">-6.890</text>
<line x1="120" y1="75.00" x2="1145" y2="75.00" stroke="#dddddd" stroke-width="1"/>
<text x="104" y="80.00" text-anchor="end" font-family="Arial" font-size="16" fill="black">2.709</text>
<rect x="120" y="75" width="1025" height="630" fill="none" stroke="black" stroke-width="2"/>
<text x="632.5" y="785" text-anchor="middle" font-family="Arial" font-size="20" fill="black">z coordinate [m]</text>
<text x="34" y="390.0" transform="rotate(-90 34 390.0)" text-anchor="middle" font-family="Arial" font-size="20" fill="black">p [Pa]</text>
<polyline points="190.69,118.45 193.64,119.42 196.58,120.40 199.53,121.37 202.47,122.34 205.42,123.32 208.36,124.29 211.31,125.26 214.25,126.24 217.20,127.21 220.14,128.19 223.09,130.11 226.03,132.04 228.98,133.96 231.93,135.88 234.87,137.81 237.82,139.73 240.76,141.66 243.71,143.58 246.65,145.51 249.60,147.43 252.54,149.32 255.49,151.20 258.43,153.08 261.38,154.97 264.32,156.85 267.27,158.73 270.22,160.62 273.16,162.50 276.11,164.39 279.05,166.27 282.00,168.12 284.94,169.97 287.89,171.82 290.83,173.67 293.78,175.52 296.72,177.37 299.67,179.22 302.61,181.07 305.56,182.92 308.51,184.77 311.45,186.59 314.40,188.41 317.34,190.23 320.29,192.05 323.23,193.87 326.18,195.70 329.12,197.52 332.07,199.34 335.01,201.16 337.96,202.98 340.91,204.78 343.85,206.59 346.80,208.39 349.74,210.19 352.69,211.99 355.63,213.80 358.58,215.60 361.52,217.40 364.47,219.21 367.41,221.01 370.36,222.82 373.30,224.63 376.25,226.43 379.20,228.24 382.14,230.05 385.09,231.86 388.03,233.67 390.98,235.48 393.92,237.28 396.87,239.09 399.81,240.94 402.76,242.79 405.70,244.64 408.65,246.49 411.59,248.34 414.54,250.19 417.49,252.04 420.43,253.88 423.38,255.73 426.32,257.58 429.27,259.50 432.21,261.42 435.16,263.34 438.10,265.26 441.05,267.18 443.99,269.10 446.94,271.02 449.89,272.94 452.83,274.86 455.78,276.78 458.72,278.76 461.67,280.75 464.61,282.73 467.56,284.71 470.50,286.69 473.45,288.68 476.39,290.66 479.34,292.65 482.28,294.64 485.23,296.62 488.18,298.62 491.12,300.61 494.07,302.59 497.01,304.60 499.96,306.58 502.90,308.58 505.85,310.57 508.79,312.55 511.74,314.55 514.68,316.54 517.63,318.49 520.57,320.45 523.52,322.40 526.47,324.37 529.41,326.32 532.36,328.27 535.30,330.22 538.25,332.18 541.19,334.15 544.14,336.10 547.08,338.02 550.03,339.95 552.97,341.87 555.92,343.81 558.86,345.73 561.81,347.67 564.76,349.59 567.70,351.51 570.65,353.44 573.59,355.36 576.54,357.27 579.48,359.17 582.43,361.07 585.37,362.98 588.32,364.88 591.26,366.78 594.21,368.69 597.16,370.59 600.10,372.49 603.05,374.40 605.99,376.28 608.94,378.17 611.88,380.06 614.83,381.94 617.77,383.83 620.72,385.72 623.66,387.60 626.61,389.49 629.55,391.38 632.50,393.26 635.45,395.13 638.39,397.01 641.34,398.88 644.28,400.76 647.23,402.63 650.17,404.50 653.12,406.37 656.06,408.24 659.01,410.12 661.95,412.00 664.90,413.86 667.84,415.73 670.79,417.60 673.74,419.45 676.68,421.32 679.63,423.19 682.57,425.05 685.52,426.92 688.46,428.79 691.41,430.64 694.35,432.51 697.30,434.37 700.24,436.22 703.19,438.09 706.14,439.95 709.08,441.80 712.03,443.67 714.97,445.52 717.92,447.38 720.86,449.25 723.81,451.10 726.75,452.96 729.70,454.81 732.64,456.66 735.59,458.52 738.53,460.37 741.48,462.24 744.43,464.10 747.37,465.95 750.32,467.81 753.26,469.66 756.21,471.51 759.15,473.37 762.10,475.22 765.04,477.08 767.99,478.93 770.93,480.78 773.88,482.64 776.82,484.49 779.77,486.35 782.72,488.20 785.66,490.04 788.61,491.89 791.55,493.75 794.50,495.60 797.44,497.46 800.39,499.31 803.33,501.16 806.28,503.00 809.22,504.86 812.17,506.71 815.11,508.56 818.06,510.42 821.01,512.26 823.95,514.11 826.90,515.96 829.84,517.82 832.79,519.66 835.73,521.51 838.68,523.36 841.62,525.20 844.57,527.06 847.51,528.91 850.46,530.76 853.41,532.60 856.35,534.46 859.30,536.31 862.24,538.15 865.19,540.00 868.13,541.86 871.08,543.69 874.02,545.55 876.97,547.38 879.91,549.24 882.86,551.09 885.80,552.93 888.75,554.78 891.70,556.62 894.64,558.48 897.59,560.33 900.53,562.17 903.48,564.02 906.42,565.86 909.37,567.71 912.31,569.55 915.26,571.41 918.20,573.24 921.15,575.10 924.09,576.94 927.04,578.79 929.99,580.63 932.93,582.47 935.88,584.32 938.82,586.16 941.77,588.01 944.71,589.85 947.66,591.69 950.60,593.54 953.55,595.38 956.49,597.23 959.44,599.07 962.39,600.91 965.33,602.75 968.28,604.60 971.22,606.44 974.17,608.27 977.11,610.11 980.06,611.97 983.00,613.80 985.95,615.64 988.89,617.48 991.84,619.32 994.78,621.16 997.73,623.01 1000.68,624.85 1003.62,626.68 1006.57,628.52 1009.51,630.36 1012.46,632.20 1015.40,634.04 1018.35,635.87 1021.29,637.71 1024.24,639.55 1027.18,641.39 1030.13,643.22 1033.07,645.05 1036.02,646.88 1038.97,648.72 1041.91,650.56 1044.86,652.40 1047.80,653.31 1050.75,654.22 1053.69,655.14 1056.64,656.06 1059.58,656.97 1062.53,657.89 1065.47,658.80 1068.42,659.71 1071.36,660.63 1074.31,661.55" fill="none" stroke="#000000" stroke-width="3"/>
<line x1="142" y1="100" x2="178" y2="100" stroke="#000000" stroke-width="4"/>
<text x="188" y="105" font-family="Arial" font-size="18" fill="black">p</text>
</svg>