<svg xmlns="http://www.w3.org/2000/svg" width="1200" height="820" viewBox="0 0 1200 820">
<rect width="100%" height="100%" fill="white"/>
<text x="600.0" y="36" text-anchor="middle" font-family="Arial" font-size="24" fill="black">profile_center_z: epsilon</text>
<line x1="120.00" y1="75" x2="120.00" y2="705" stroke="#dddddd" stroke-width="1"/>
<text x="120.00" y="737" text-anchor="middle" font-family="Arial" font-size="16" fill="black">-0.240</text>
<line x1="376.25" y1="75" x2="376.25" y2="705" stroke="#dddddd" stroke-width="1"/>
<text x="376.25" y="737" text-anchor="middle" font-family="Arial" font-size="16" fill="black">0.630</text>
<line x1="632.50" y1="75" x2="632.50" y2="705" stroke="#dddddd" stroke-width="1"/>
<text x="632.50" y="737" text-anchor="middle" font-family="Arial" font-size="16" fill="black">1.500</text>
<line x1="888.75" y1="75" x2="888.75" y2="705" stroke="#dddddd" stroke-width="1"/>
<text x="888.75" y="737" text-anchor="middle" font-family="Arial" font-size="16" fill="black">2.370</text>
<line x1="1145.00" y1="75" x2="1145.00" y2="705" stroke="#dddddd" stroke-width="1"/>
<text x="1145.00" y="737" text-anchor="middle" font-family="Arial" font-size="16" fill="black">3.240</text>
<line x1="120" y1="705.00" x2="1145" y2="705.00" stroke="#dddddd" stroke-width="1"/>
<text x="104" y="710.00" text-anchor="end" font-family="Arial" font-size="16" fill="black">0.002</text>
<line x1="120" y1="547.50" x2="1145" y2="547.50" stroke="#dddddd" stroke-width="1"/>
<text x="104" y="552.50" text-anchor="end" font-family="Arial" font-size="16" fill="black">0.007</text>
<line x1="120" y1="390.00" x2="1145" y2="390.00" stroke="#dddddd" stroke-width="1"/>
<text x="104" y="395.00" text-anchor="end" font-family="Arial" font-size="16" fill="black">0.012</text>
<line x1="120" y1="232.50" x2="1145" y2="232.50" stroke="#dddddd" stroke-width="1"/>
<text x="104" y="237.50" text-anchor="end" font-family="Arial" font-size="16" fill="black">0.017</text>
<line x1="120" y1="75.00" x2="1145" y2="75.00" stroke="#dddddd" stroke-width="1"/>
<text x="104" y="80.00" text-anchor="end" font-family="Arial" font-size="16" fill="black">0.022</text>
<rect x="120" y="75" width="1025" height="630" fill="none" stroke="black" stroke-width="2"/>
<text x="632.5" y="785" text-anchor="middle" font-family="Arial" font-size="20" fill="black">z coordinate [m]</text>
<text x="34" y="390.0" transform="rotate(-90 34 390.0)" text-anchor="middle" font-family="Arial" font-size="20" fill="black">epsilon [m2/s3]</text>
<polyline points="190.69,496.30 193.64,498.13 196.58,499.95 199.53,501.78 202.47,503.60 205.42,505.43 208.36,507.25 211.31,509.08 214.25,510.91 217.20,512.74 220.14,514.56 223.09,517.93 226.03,521.30 228.98,524.66 231.93,528.03 234.87,531.39 237.82,534.76 240.76,538.13 243.71,541.49 246.65,544.86 249.60,548.23 252.54,551.07 255.49,553.90 258.43,556.74 261.38,559.58 264.32,562.41 267.27,565.25 270.22,568.09 273.16,570.93 276.11,573.76 279.05,576.60 282.00,578.87 284.94,581.14 287.89,583.40 290.83,585.67 293.78,587.93 296.72,590.20 299.67,592.47 302.61,594.73 305.56,597.00 308.51,599.27 311.45,600.57 314.40,601.88 317.34,603.19 320.29,604.49 323.23,605.80 326.18,607.11 329.12,608.41 332.07,609.72 335.01,611.03 337.96,612.33 340.91,611.96 343.85,611.59 346.80,611.21 349.74,610.84 352.69,610.47 355.63,610.10 358.58,609.72 361.52,609.35 364.47,608.98 367.41,608.61 370.36,603.69 373.30,598.77 376.25,593.86 379.20,588.94 382.14,584.03 385.09,579.11 388.03,574.20 390.98,569.28 393.92,564.37 396.87,559.45 399.81,535.26 402.76,511.08 405.70,486.89 408.65,462.70 411.59,438.53 414.54,414.33 417.49,390.16 420.43,365.95 423.38,341.78 426.32,317.58 429.27,297.67 432.21,277.76 435.16,257.85 438.10,237.94 441.05,218.00 443.99,198.09 446.94,178.18 449.89,158.27 452.83,138.36 455.78,118.45 458.72,132.66 461.67,146.88 464.61,161.10 467.56,175.31 470.50,189.53 473.45,203.75 476.39,217.93 479.34,232.15 482.28,246.37 485.23,260.58 488.18,281.63 491.12,302.68 494.07,323.73 497.01,344.78 499.96,365.82 502.90,386.87 505.85,407.92 508.79,428.97 511.74,450.02 514.68,471.07 517.63,481.03 520.57,490.99 523.52,500.95 526.47,510.91 529.41,520.88 532.36,530.84 535.30,540.80 538.25,550.76 541.19,560.72 544.14,570.68 547.08,574.57 550.03,578.45 552.97,582.33 555.92,586.21 558.86,590.10 561.81,593.98 564.76,597.86 567.70,601.74 570.65,605.63 573.59,609.51 576.54,610.17 579.48,610.84 582.43,611.50 585.37,612.16 588.32,612.82 591.26,613.49 594.21,614.15 597.16,614.82 600.10,615.48 603.05,616.14 605.99,615.45 608.94,614.76 611.88,614.07 614.83,613.38 617.77,612.69 620.72,612.00 623.66,611.31 626.61,610.62 629.55,609.93 632.50,609.24 635.45,608.09 638.39,606.95 641.34,605.80 644.28,604.66 647.23,603.51 650.17,602.37 653.12,601.22 656.06,600.08 659.01,598.93 661.95,597.79 664.90,596.66 667.84,595.52 670.79,594.39 673.74,593.25 676.68,592.12 679.63,590.99 682.57,589.85 685.52,588.72 688.46,587.59 691.41,586.45 694.35,585.60 697.30,584.74 700.24,583.89 703.19,583.03 706.14,582.18 709.08,581.32 712.03,580.47 714.97,579.61 717.92,578.75 720.86,577.90 723.81,577.48 726.75,577.07 729.70,576.65 732.64,576.23 735.59,575.81 738.53,575.39 741.48,574.98 744.43,574.56 747.37,574.14 750.32,573.72 753.26,573.85 756.21,573.98 759.15,574.10 762.10,574.23 765.04,574.36 767.99,574.49 770.93,574.61 773.88,574.74 776.82,574.87 779.77,574.99 782.72,575.73 785.66,576.46 788.61,577.20 791.55,577.94 794.50,578.67 797.44,579.41 800.39,580.14 803.33,580.88 806.28,581.61 809.22,582.35 812.17,583.69 815.11,585.02 818.06,586.36 821.01,587.69 823.95,589.03 826.90,590.37 829.84,591.70 832.79,593.04 835.73,594.38 838.68,595.71 841.62,597.53 844.57,599.34 847.51,601.16 850.46,602.97 853.41,604.79 856.35,606.60 859.30,608.42 862.24,610.24 865.19,612.05 868.13,613.87 871.08,615.89 874.02,617.90 876.97,619.92 879.91,621.93 882.86,623.95 885.80,625.97 888.75,627.98 891.70,630.00 894.64,632.02 897.59,634.04 900.53,635.81 903.48,637.58 906.42,639.35 909.37,641.13 912.31,642.90 915.26,644.67 918.20,646.45 921.15,648.22 924.09,649.99 927.04,651.77 929.99,652.75 932.93,653.72 935.88,654.70 938.82,655.68 941.77,656.66 944.71,657.64 947.66,658.61 950.60,659.59 953.55,660.57 956.49,661.55 959.44,661.16 962.39,660.78 965.33,660.39 968.28,660.01 971.22,659.62 974.17,659.24 977.11,658.85 980.06,658.47 983.00,658.08 985.95,657.70 988.89,654.88 991.84,652.06 994.78,649.24 997.73,646.42 1000.68,643.60 1003.62,640.78 1006.57,637.97 1009.51,635.15 1012.46,632.33 1015.40,629.51 1018.35,617.02 1021.29,604.54 1024.24,592.05 1027.18,579.56 1030.13,567.07 1033.07,554.59 1036.02,542.10 1038.97,529.61 1041.91,517.12 1044.86,504.64 1047.80,494.37 1050.75,484.09 1053.69,473.82 1056.64,463.55 1059.58,453.28 1062.53,443.02 1065.47,432.74 1068.42,422.46 1071.36,412.18 1074.31,401.93" fill="none" stroke="#000000" stroke-width="3"/>
<line x1="142" y1="100" x2="178" y2="100" stroke="#000000" stroke-width="4"/>
<text x="188" y="105" font-family="Arial" font-size="18" fill="black">epsilon</text>
</svg>