<svg xmlns="http://www.w3.org/2000/svg" width="1200" height="820" viewBox="0 0 1200 820">
<rect width="100%" height="100%" fill="white"/>
<text x="600.0" y="36" text-anchor="middle" font-family="Arial" font-size="24" fill="black">profile_near_ceiling_x: Q</text>
<line x1="120.00" y1="75" x2="120.00" y2="705" stroke="#dddddd" stroke-width="1"/>
<text x="120.00" y="737" text-anchor="middle" font-family="Arial" font-size="16" fill="black">-0.560</text>
<line x1="376.25" y1="75" x2="376.25" y2="705" stroke="#dddddd" stroke-width="1"/>
<text x="376.25" y="737" text-anchor="middle" font-family="Arial" font-size="16" fill="black">1.470</text>
<line x1="632.50" y1="75" x2="632.50" y2="705" stroke="#dddddd" stroke-width="1"/>
<text x="632.50" y="737" text-anchor="middle" font-family="Arial" font-size="16" fill="black">3.500</text>
<line x1="888.75" y1="75" x2="888.75" y2="705" stroke="#dddddd" stroke-width="1"/>
<text x="888.75" y="737" text-anchor="middle" font-family="Arial" font-size="16" fill="black">5.530</text>
<line x1="1145.00" y1="75" x2="1145.00" y2="705" stroke="#dddddd" stroke-width="1"/>
<text x="1145.00" y="737" text-anchor="middle" font-family="Arial" font-size="16" fill="black">7.560</text>
<line x1="120" y1="705.00" x2="1145" y2="705.00" stroke="#dddddd" stroke-width="1"/>
<text x="104" y="710.00" text-anchor="end" font-family="Arial" font-size="16" fill="black">-0.893</text>
<line x1="120" y1="547.50" x2="1145" y2="547.50" stroke="#dddddd" stroke-width="1"/>
<text x="104" y="552.50" text-anchor="end" font-family="Arial" font-size="16" fill="black">-0.621</text>
<line x1="120" y1="390.00" x2="1145" y2="390.00" stroke="#dddddd" stroke-width="1"/>
<text x="104" y="395.00" text-anchor="end" font-family="Arial" font-size="16" fill="black">-0.348</text>
<line x1="120" y1="232.50" x2="1145" y2="232.50" stroke="#dddddd" stroke-width="1"/>
<text x="104" y="237.50" text-anchor="end" font-family="Arial" font-size="16" fill="black">-0.076</text>
<line x1="120" y1="75.00" x2="1145" y2="75.00" stroke="#dddddd" stroke-width="1"/>
<text x="104" y="80.00" text-anchor="end" font-family="Arial" font-size="16" fill="black">0.197</text>
<rect x="120" y="75" width="1025" height="630" fill="none" stroke="black" stroke-width="2"/>
<text x="632.5" y="785" text-anchor="middle" font-family="Arial" font-size="20" fill="black">x coordinate [m]</text>
<text x="34" y="390.0" transform="rotate(-90 34 390.0)" text-anchor="middle" font-family="Arial" font-size="20" fill="black">Q [SI]</text>
<polyline points="190.69,426.77 193.64,408.39 196.58,390.01 199.53,371.64 202.47,353.26 205.42,327.97 208.36,299.92 211.31,271.86 214.25,243.81 217.20,221.76 220.14,207.72 223.09,193.68 226.03,179.64 228.98,166.91 231.93,162.06 234.87,157.21 237.82,152.36 240.76,147.51 243.71,147.01 246.65,147.22 249.60,147.44 252.54,147.66 255.49,148.52 258.43,149.86 261.38,151.20 264.32,152.54 267.27,153.95 270.22,155.55 273.16,157.14 276.11,158.73 279.05,160.32 282.00,162.30 284.94,164.29 287.89,166.27 290.83,168.26 293.78,170.59 296.72,173.05 299.67,175.51 302.62,177.97 305.56,181.00 308.51,184.81 311.45,188.61 314.40,192.42 317.34,196.58 320.29,202.89 323.23,209.20 326.17,215.51 329.13,221.82 332.07,228.52 335.01,235.29 337.96,242.05 340.91,248.82 343.85,254.38 346.80,259.02 349.74,263.66 352.68,268.31 355.64,272.28 358.58,274.57 361.52,276.86 364.47,279.15 367.41,281.44 370.35,280.59 373.31,279.75 376.25,278.90 379.19,278.05 382.15,273.21 385.09,266.76 388.03,260.32 390.98,253.87 393.92,246.02 396.86,236.31 399.82,226.60 402.76,216.89 405.70,207.46 408.65,199.75 411.59,192.04 414.54,184.32 417.49,176.61 420.43,174.08 423.37,172.41 426.33,170.74 429.27,169.06 432.21,171.42 435.16,176.79 438.10,182.16 441.04,187.53 444.00,193.85 446.94,202.57 449.88,211.29 452.83,220.01 455.78,228.74 458.72,235.34 461.67,241.94 464.61,248.54 467.55,255.15 470.51,256.76 473.45,256.37 476.39,255.98 479.34,255.59 482.28,253.30 485.23,248.46 488.18,243.63 491.12,238.80 494.06,233.91 497.02,228.69 499.96,223.46 502.90,218.23 505.85,213.01 508.79,208.17 511.73,203.39 514.69,198.61 517.63,193.84 520.57,189.60 523.52,185.77 526.47,181.94 529.41,178.11 532.36,174.60 535.30,171.88 538.24,169.15 541.20,166.43 544.14,163.71 547.08,161.65 550.03,159.60 552.97,157.54 555.92,155.49 558.87,153.81 561.81,152.27 564.75,150.73 567.71,149.20 570.65,148.01 573.59,147.30 576.54,146.59 579.48,145.88 582.42,145.30 585.38,145.53 588.32,145.76 591.26,146.00 594.21,146.23 597.16,147.08 600.10,148.03 603.05,148.98 605.99,149.94 608.93,150.85 611.89,151.73 614.83,152.61 617.77,153.49 620.72,154.03 623.66,153.74 626.60,153.45 629.56,153.16 632.50,152.87 635.44,150.89 638.40,148.90 641.34,146.92 644.28,144.94 647.23,142.02 650.17,138.72 653.11,135.43 656.07,132.13 659.01,129.06 661.95,126.29 664.90,123.52 667.84,120.75 670.79,118.45 673.74,118.99 676.68,119.52 679.62,120.05 682.58,120.58 685.52,126.73 688.46,133.81 691.41,140.89 694.35,147.97 697.29,161.27 700.25,179.22 703.19,197.17 706.13,215.12 709.08,236.68 712.03,267.28 714.97,297.88 717.92,328.47 720.86,359.07 723.80,398.97 726.76,438.88 729.70,478.78 732.64,518.68 735.59,552.06 738.53,582.82 741.48,613.59 744.43,644.35 747.37,661.55 750.31,660.67 753.27,659.79 756.21,658.90 759.15,654.16 762.10,626.25 765.04,598.34 767.98,570.43 770.94,542.51 773.88,511.85 776.82,480.73 779.77,449.62 782.72,418.50 785.66,395.21 788.61,377.78 791.55,360.35 794.49,342.92 797.45,329.13 800.39,324.43 803.33,319.73 806.28,315.03 809.22,310.33 812.17,309.92 815.12,309.51 818.06,309.10 821.00,308.68 823.96,309.40 826.90,310.56 829.84,311.73 832.79,312.89 835.73,315.33 838.67,319.45 841.63,323.58 844.57,327.71 847.51,332.17 850.46,338.70 853.41,345.23 856.35,351.76 859.30,358.29 862.24,360.10 865.18,361.12 868.14,362.14 871.08,363.16 874.02,358.09 876.97,348.47 879.91,338.85 882.85,329.23 885.81,317.95 888.75,302.55 891.69,287.15 894.65,271.75 897.59,256.35 900.53,242.92 903.48,229.49 906.42,216.07 909.36,202.64 912.32,193.37 915.26,185.77 918.20,178.17 921.15,170.57 924.09,164.91 927.04,161.85 929.99,158.78 932.93,155.72 935.87,153.07 938.83,152.95 941.77,152.82 944.71,152.70 947.66,152.57 950.60,154.41 953.54,156.58 956.50,158.75 959.44,160.92 962.38,163.90 965.33,167.47 968.28,171.04 971.22,174.62 974.17,178.20 977.11,181.81 980.05,185.42 983.01,189.03 985.95,192.63 988.89,195.16 991.84,197.68 994.78,200.20 997.73,202.72 1000.68,203.94 1003.62,204.64 1006.56,205.34 1009.52,206.04 1012.46,205.94 1015.40,204.76 1018.35,203.59 1021.29,202.41 1024.23,201.07 1027.19,198.73 1030.13,196.39 1033.07,194.04 1036.02,191.70 1038.97,189.32 1041.91,186.93 1044.86,184.53 1047.80,182.14 1050.74,182.29 1053.70,184.34 1056.64,186.39 1059.58,188.43 1062.53,190.78 1065.47,193.86 1068.42,196.95 1071.37,200.03 1074.31,203.12" fill="none" stroke="#000000" stroke-width="3"/>
<line x1="142" y1="100" x2="178" y2="100" stroke="#000000" stroke-width="4"/>
<text x="188" y="105" font-family="Arial" font-size="18" fill="black">Q</text>
</svg>