<svg xmlns="http://www.w3.org/2000/svg" width="1200" height="820" viewBox="0 0 1200 820">
<rect width="100%" height="100%" fill="white"/>
<text x="600.0" y="36" text-anchor="middle" font-family="Arial" font-size="24" fill="black">profile_rack_height_x: p_rgh</text>
<line x1="120.00" y1="75" x2="120.00" y2="705" stroke="#dddddd" stroke-width="1"/>
<text x="120.00" y="737" text-anchor="middle" font-family="Arial" font-size="16" fill="black">-0.560</text>
<line x1="376.25" y1="75" x2="376.25" y2="705" stroke="#dddddd" stroke-width="1"/>
<text x="376.25" y="737" text-anchor="middle" font-family="Arial" font-size="16" fill="black">1.470</text>
<line x1="632.50" y1="75" x2="632.50" y2="705" stroke="#dddddd" stroke-width="1"/>
<text x="632.50" y="737" text-anchor="middle" font-family="Arial" font-size="16" fill="black">3.500</text>
<line x1="888.75" y1="75" x2="888.75" y2="705" stroke="#dddddd" stroke-width="1"/>
<text x="888.75" y="737" text-anchor="middle" font-family="Arial" font-size="16" fill="black">5.530</text>
<line x1="1145.00" y1="75" x2="1145.00" y2="705" stroke="#dddddd" stroke-width="1"/>
<text x="1145.00" y="737" text-anchor="middle" font-family="Arial" font-size="16" fill="black">7.560</text>
<line x1="120" y1="705.00" x2="1145" y2="705.00" stroke="#dddddd" stroke-width="1"/>
<text x="104" y="710.00" text-anchor="end" font-family="Arial" font-size="16" fill="black">0.140</text>
<line x1="120" y1="547.50" x2="1145" y2="547.50" stroke="#dddddd" stroke-width="1"/>
<text x="104" y="552.50" text-anchor="end" font-family="Arial" font-size="16" fill="black">0.285</text>
<line x1="120" y1="390.00" x2="1145" y2="390.00" stroke="#dddddd" stroke-width="1"/>
<text x="104" y="395.00" text-anchor="end" font-family="Arial" font-size="16" fill="black">0.430</text>
<line x1="120" y1="232.50" x2="1145" y2="232.50" stroke="#dddddd" stroke-width="1"/>
<text x="104" y="237.50" text-anchor="end" font-family="Arial" font-size="16" fill="black">0.575</text>
<line x1="120" y1="75.00" x2="1145" y2="75.00" stroke="#dddddd" stroke-width="1"/>
<text x="104" y="80.00" text-anchor="end" font-family="Arial" font-size="16" fill="black">0.721</text>
<rect x="120" y="75" width="1025" height="630" fill="none" stroke="black" stroke-width="2"/>
<text x="632.5" y="785" text-anchor="middle" font-family="Arial" font-size="20" fill="black">x coordinate [m]</text>
<text x="34" y="390.0" transform="rotate(-90 34 390.0)" text-anchor="middle" font-family="Arial" font-size="20" fill="black">p_rgh [Pa]</text>
<polyline points="190.69,625.75 193.64,625.41 196.58,625.08 199.53,624.74 202.47,624.40 205.42,624.40 208.36,624.54 211.31,624.68 214.25,624.83 217.20,625.45 220.14,626.72 223.09,627.99 226.03,629.27 228.98,630.62 231.93,632.45 234.87,634.27 237.82,636.11 240.76,637.94 243.71,640.05 246.65,642.21 249.60,644.37 252.54,646.53 255.49,648.63 258.43,650.69 261.38,652.74 264.32,654.81 267.27,656.62 270.22,657.85 273.16,659.08 276.11,660.32 279.05,661.55 282.00,660.88 284.94,660.21 287.89,659.53 290.83,658.86 293.78,655.87 296.72,651.94 299.67,648.02 302.62,644.08 305.56,638.46 308.51,630.60 311.45,622.72 314.40,614.85 317.34,606.57 320.29,595.85 323.23,585.15 326.17,574.43 329.13,563.73 332.07,552.53 335.01,541.28 337.96,530.01 340.91,518.75 343.85,508.53 346.80,499.09 349.74,489.67 352.68,480.23 355.64,471.86 358.58,466.11 361.52,460.37 364.47,454.62 367.41,448.89 370.35,447.44 373.31,446.01 376.25,444.57 379.19,443.14 382.15,444.29 385.09,446.48 388.03,448.67 390.98,450.85 393.92,453.83 396.86,457.87 399.82,461.90 402.76,465.93 405.70,469.93 408.65,473.76 411.59,477.57 414.54,481.39 417.49,485.21 420.43,487.49 423.37,489.51 426.33,491.52 429.27,493.54 432.21,493.90 435.16,493.01 438.10,492.11 441.04,491.22 444.00,489.39 446.94,485.20 449.88,481.01 452.83,476.83 455.78,472.64 458.72,465.69 461.67,458.74 464.61,451.79 467.55,444.84 470.51,436.86 473.45,428.47 476.39,420.09 479.34,411.69 482.28,403.49 485.23,395.53 488.18,387.57 491.12,379.61 494.06,371.94 497.02,365.99 499.96,360.03 502.90,354.08 505.85,348.12 508.79,344.03 511.73,340.25 514.69,336.46 517.63,332.69 520.57,329.28 523.52,326.15 526.47,323.01 529.41,319.88 532.36,316.33 535.30,311.74 538.24,307.15 541.20,302.57 544.14,297.98 547.08,290.52 550.03,283.04 552.97,275.57 555.92,268.11 558.87,258.51 561.81,248.07 564.75,237.63 567.71,227.18 570.65,216.22 573.59,204.56 576.54,192.90 579.48,181.24 582.42,169.95 585.38,160.84 588.32,151.73 591.26,142.61 594.21,133.50 597.16,129.22 600.10,125.75 603.05,122.28 605.99,118.81 608.93,118.45 611.89,120.43 614.83,122.42 617.77,124.40 620.72,127.27 623.66,132.34 626.60,137.42 629.56,142.49 632.50,147.58 635.44,153.65 638.40,159.72 641.34,165.79 644.28,171.87 647.23,178.71 650.17,185.85 653.11,192.99 656.07,200.13 659.01,208.20 661.95,217.51 664.90,226.82 667.84,236.13 670.79,245.85 673.74,258.03 676.68,270.21 679.62,282.40 682.58,294.58 685.52,309.01 688.46,323.80 691.41,338.60 694.35,353.40 697.29,368.56 700.25,383.99 703.19,399.41 706.13,414.85 709.08,429.70 712.03,443.10 714.97,456.52 717.92,469.94 720.86,483.34 723.80,493.26 726.76,503.17 729.70,513.09 732.64,523.00 735.59,530.53 738.53,537.10 741.48,543.67 744.43,550.25 747.37,555.79 750.31,559.97 753.27,564.16 756.21,568.34 759.15,572.33 762.10,575.09 765.04,577.87 767.98,580.65 770.94,583.41 773.88,585.53 776.82,587.55 779.77,589.55 782.72,591.56 785.66,593.22 788.61,594.62 791.55,596.01 794.49,597.41 797.45,598.52 800.39,598.94 803.33,599.35 806.28,599.76 809.22,600.17 812.17,598.82 815.12,597.47 818.06,596.13 821.00,594.77 823.96,591.38 826.90,587.16 829.84,582.95 832.79,578.73 835.73,572.75 838.67,564.43 841.63,556.10 844.57,547.78 847.51,538.75 850.46,525.52 853.41,512.27 856.35,499.03 859.30,485.80 862.24,470.27 865.18,454.38 868.14,438.49 871.08,422.59 874.02,408.86 876.97,396.75 879.91,384.63 882.85,372.52 885.81,362.84 888.75,359.27 891.69,355.70 894.65,352.14 897.59,348.57 900.53,352.49 903.48,356.41 906.42,360.33 909.36,364.26 912.32,370.52 915.26,377.71 918.20,384.91 921.15,392.10 924.09,399.52 927.04,407.24 929.99,414.95 932.93,422.66 935.87,430.53 938.83,439.44 941.77,448.34 944.71,457.24 947.66,466.14 950.60,476.84 953.54,487.82 956.50,498.82 959.44,509.81 962.38,521.14 965.33,532.74 968.28,544.34 971.22,555.94 974.17,566.97 977.11,576.60 980.05,586.23 983.01,595.87 985.95,605.50 988.89,611.48 991.84,617.48 994.78,623.47 997.73,629.47 1000.68,632.79 1003.62,635.03 1006.56,637.28 1009.52,639.52 1012.46,640.56 1015.40,639.98 1018.35,639.39 1021.29,638.81 1024.23,638.01 1027.19,635.90 1030.13,633.80 1033.07,631.68 1036.02,629.58 1038.97,627.30 1041.91,624.99 1044.86,622.68 1047.80,620.37 1050.74,618.36 1053.70,616.58 1056.64,614.80 1059.58,613.02 1062.53,611.54 1065.47,610.80 1068.42,610.07 1071.37,609.34 1074.31,608.60" fill="none" stroke="#000000" stroke-width="3"/>
<line x1="142" y1="100" x2="178" y2="100" stroke="#000000" stroke-width="4"/>
<text x="188" y="105" font-family="Arial" font-size="18" fill="black">p_rgh</text>
</svg>