<svg xmlns="http://www.w3.org/2000/svg" width="1200" height="820" viewBox="0 0 1200 820">
<rect width="100%" height="100%" fill="white"/>
<text x="600.0" y="36" text-anchor="middle" font-family="Arial" font-size="24" fill="black">profile_near_ceiling_x: vorticity:0</text>
<line x1="120.00" y1="75" x2="120.00" y2="705" stroke="#dddddd" stroke-width="1"/>
<text x="120.00" y="737" text-anchor="middle" font-family="Arial" font-size="16" fill="black">-0.560</text>
<line x1="376.25" y1="75" x2="376.25" y2="705" stroke="#dddddd" stroke-width="1"/>
<text x="376.25" y="737" text-anchor="middle" font-family="Arial" font-size="16" fill="black">1.470</text>
<line x1="632.50" y1="75" x2="632.50" y2="705" stroke="#dddddd" stroke-width="1"/>
<text x="632.50" y="737" text-anchor="middle" font-family="Arial" font-size="16" fill="black">3.500</text>
<line x1="888.75" y1="75" x2="888.75" y2="705" stroke="#dddddd" stroke-width="1"/>
<text x="888.75" y="737" text-anchor="middle" font-family="Arial" font-size="16" fill="black">5.530</text>
<line x1="1145.00" y1="75" x2="1145.00" y2="705" stroke="#dddddd" stroke-width="1"/>
<text x="1145.00" y="737" text-anchor="middle" font-family="Arial" font-size="16" fill="black">7.560</text>
<line x1="120" y1="705.00" x2="1145" y2="705.00" stroke="#dddddd" stroke-width="1"/>
<text x="104" y="710.00" text-anchor="end" font-family="Arial" font-size="16" fill="black">-0.358</text>
<line x1="120" y1="547.50" x2="1145" y2="547.50" stroke="#dddddd" stroke-width="1"/>
<text x="104" y="552.50" text-anchor="end" font-family="Arial" font-size="16" fill="black">-0.011</text>
<line x1="120" y1="390.00" x2="1145" y2="390.00" stroke="#dddddd" stroke-width="1"/>
<text x="104" y="395.00" text-anchor="end" font-family="Arial" font-size="16" fill="black">0.337</text>
<line x1="120" y1="232.50" x2="1145" y2="232.50" stroke="#dddddd" stroke-width="1"/>
<text x="104" y="237.50" text-anchor="end" font-family="Arial" font-size="16" fill="black">0.685</text>
<line x1="120" y1="75.00" x2="1145" y2="75.00" stroke="#dddddd" stroke-width="1"/>
<text x="104" y="80.00" text-anchor="end" font-family="Arial" font-size="16" fill="black">1.032</text>
<rect x="120" y="75" width="1025" height="630" fill="none" stroke="black" stroke-width="2"/>
<text x="632.5" y="785" text-anchor="middle" font-family="Arial" font-size="20" fill="black">x coordinate [m]</text>
<text x="34" y="390.0" transform="rotate(-90 34 390.0)" text-anchor="middle" font-family="Arial" font-size="20" fill="black">vorticity:0 [SI]</text>
<polyline points="190.69,326.65 193.64,327.80 196.58,328.94 199.53,330.07 202.47,331.22 205.42,333.78 208.36,336.90 211.31,340.03 214.25,343.15 217.20,346.60 220.14,350.46 223.09,354.32 226.03,358.19 228.98,361.98 231.93,365.36 234.87,368.74 237.82,372.13 240.76,375.51 243.71,378.13 246.65,380.63 249.60,383.12 252.54,385.62 255.49,387.67 258.43,389.39 261.38,391.10 264.32,392.82 267.27,394.39 270.22,395.60 273.16,396.82 276.11,398.03 279.05,399.25 282.00,400.09 284.94,400.94 287.89,401.78 290.83,402.63 293.78,403.32 296.72,403.94 299.67,404.57 302.62,405.19 305.56,405.75 308.51,406.20 311.45,406.67 314.40,407.12 317.34,407.55 320.29,407.74 323.23,407.94 326.17,408.13 329.13,408.32 332.07,408.02 335.01,407.62 337.96,407.23 340.91,406.84 343.85,406.03 346.80,404.89 349.74,403.75 352.68,402.62 355.64,401.14 358.58,398.82 361.52,396.49 364.47,394.16 367.41,391.84 370.35,386.98 373.31,382.12 376.25,377.26 379.19,372.40 382.15,365.45 385.09,357.67 388.03,349.88 390.98,342.10 393.92,333.37 396.86,323.37 399.82,313.38 402.76,303.38 405.70,293.22 408.65,282.08 411.59,270.94 414.54,259.79 417.49,248.65 420.43,238.10 423.37,227.65 426.33,217.19 429.27,206.74 432.21,197.87 435.16,190.18 438.10,182.49 441.04,174.80 444.00,168.19 446.94,164.31 449.88,160.43 452.83,156.55 455.78,152.67 458.72,151.36 461.67,150.05 464.61,148.74 467.55,147.43 470.51,146.36 473.45,145.38 476.39,144.40 479.34,143.42 482.28,142.04 485.23,140.13 488.18,138.20 491.12,136.28 494.06,134.30 497.02,131.91 499.96,129.52 502.90,127.13 505.85,124.75 508.79,123.16 511.73,121.71 514.69,120.27 517.63,118.82 520.57,118.45 523.52,118.88 526.47,119.31 529.41,119.74 532.36,120.87 535.30,123.77 538.24,126.67 541.20,129.57 544.14,132.46 547.08,138.23 550.03,144.00 552.97,149.77 555.92,155.53 558.87,163.24 561.81,171.72 564.75,180.20 567.71,188.69 570.65,197.99 573.59,208.37 576.54,218.77 579.48,229.15 582.42,239.65 585.38,250.81 588.32,261.96 591.26,273.11 594.21,284.26 597.16,295.11 600.10,305.91 603.05,316.72 605.99,327.52 608.93,337.54 611.89,346.98 614.83,356.41 617.77,365.85 620.72,374.73 623.66,382.23 626.60,389.73 629.56,397.23 632.50,404.73 635.44,410.42 638.40,416.12 641.34,421.81 644.28,427.51 647.23,432.38 650.17,436.93 653.11,441.47 656.07,446.02 659.01,450.45 661.95,454.72 664.90,459.00 667.84,463.28 670.79,467.62 673.74,472.37 676.68,477.12 679.62,481.86 682.58,486.62 685.52,492.25 688.46,498.04 691.41,503.82 694.35,509.60 697.29,516.11 700.25,523.16 703.19,530.21 706.13,537.26 709.08,544.15 712.03,550.64 714.97,557.13 717.92,563.62 720.86,570.11 723.80,570.94 726.76,571.76 729.70,572.59 732.64,573.41 735.59,566.74 738.53,557.07 741.48,547.41 744.43,537.74 747.37,524.77 750.31,507.40 753.27,490.02 756.21,472.65 759.15,455.54 762.10,440.01 765.04,424.49 767.98,408.97 770.94,393.44 773.88,384.26 776.82,376.13 779.77,368.00 782.72,359.87 785.66,354.69 788.61,351.71 791.55,348.73 794.49,345.76 797.45,343.41 800.39,342.62 803.33,341.83 806.28,341.03 809.22,340.24 812.17,342.01 815.12,343.77 818.06,345.53 821.00,347.29 823.96,351.65 826.90,357.03 829.84,362.42 832.79,367.80 835.73,374.92 838.67,384.35 841.63,393.77 844.57,403.20 847.51,413.23 850.46,426.83 853.41,440.44 856.35,454.03 859.30,467.64 862.24,483.69 865.18,500.14 868.14,516.59 871.08,533.04 874.02,548.79 876.97,564.00 879.91,579.22 882.85,594.43 885.81,608.04 888.75,617.63 891.69,627.21 894.65,636.80 897.59,646.38 900.53,650.01 903.48,653.64 906.42,657.27 909.36,660.90 912.32,661.55 915.26,661.01 918.20,660.47 921.15,659.93 924.09,658.18 927.04,654.82 929.99,651.45 932.93,648.08 935.87,644.52 938.83,639.77 941.77,635.00 944.71,630.25 947.66,625.49 950.60,619.91 953.54,614.18 956.50,608.46 959.44,602.74 962.38,596.31 965.33,589.37 968.28,582.42 971.22,575.48 974.17,568.14 977.11,559.85 980.05,551.56 983.01,543.27 985.95,534.98 988.89,525.48 991.84,515.98 994.78,506.49 997.73,496.99 1000.68,486.99 1003.62,476.80 1006.56,466.61 1009.52,456.42 1012.46,446.14 1015.40,435.76 1018.35,425.38 1021.29,414.99 1024.23,404.62 1027.19,394.32 1030.13,384.02 1033.07,373.72 1036.02,363.42 1038.97,353.35 1041.91,343.31 1044.86,333.28 1047.80,323.25 1050.74,312.74 1053.70,301.87 1056.64,291.01 1059.58,280.15 1062.53,270.69 1065.47,264.76 1068.42,258.82 1071.37,252.88 1074.31,246.95" fill="none" stroke="#000000" stroke-width="3"/>
<line x1="142" y1="100" x2="178" y2="100" stroke="#000000" stroke-width="4"/>
<text x="188" y="105" font-family="Arial" font-size="18" fill="black">vorticity:0</text>
</svg>