<svg xmlns="http://www.w3.org/2000/svg" width="1200" height="820" viewBox="0 0 1200 820">
<rect width="100%" height="100%" fill="white"/>
<text x="600.0" y="36" text-anchor="middle" font-family="Arial" font-size="24" fill="black">profile_center_z: U:0</text>
<line x1="120.00" y1="75" x2="120.00" y2="705" stroke="#dddddd" stroke-width="1"/>
<text x="120.00" y="737" text-anchor="middle" font-family="Arial" font-size="16" fill="black">-0.240</text>
<line x1="376.25" y1="75" x2="376.25" y2="705" stroke="#dddddd" stroke-width="1"/>
<text x="376.25" y="737" text-anchor="middle" font-family="Arial" font-size="16" fill="black">0.630</text>
<line x1="632.50" y1="75" x2="632.50" y2="705" stroke="#dddddd" stroke-width="1"/>
<text x="632.50" y="737" text-anchor="middle" font-family="Arial" font-size="16" fill="black">1.500</text>
<line x1="888.75" y1="75" x2="888.75" y2="705" stroke="#dddddd" stroke-width="1"/>
<text x="888.75" y="737" text-anchor="middle" font-family="Arial" font-size="16" fill="black">2.370</text>
<line x1="1145.00" y1="75" x2="1145.00" y2="705" stroke="#dddddd" stroke-width="1"/>
<text x="1145.00" y="737" text-anchor="middle" font-family="Arial" font-size="16" fill="black">3.240</text>
<line x1="120" y1="705.00" x2="1145" y2="705.00" stroke="#dddddd" stroke-width="1"/>
<text x="104" y="710.00" text-anchor="end" font-family="Arial" font-size="16" fill="black">-0.088</text>
<line x1="120" y1="547.50" x2="1145" y2="547.50" stroke="#dddddd" stroke-width="1"/>
<text x="104" y="552.50" text-anchor="end" font-family="Arial" font-size="16" fill="black">-0.061</text>
<line x1="120" y1="390.00" x2="1145" y2="390.00" stroke="#dddddd" stroke-width="1"/>
<text x="104" y="395.00" text-anchor="end" font-family="Arial" font-size="16" fill="black">-0.035</text>
<line x1="120" y1="232.50" x2="1145" y2="232.50" stroke="#dddddd" stroke-width="1"/>
<text x="104" y="237.50" text-anchor="end" font-family="Arial" font-size="16" fill="black">-0.008</text>
<line x1="120" y1="75.00" x2="1145" y2="75.00" stroke="#dddddd" stroke-width="1"/>
<text x="104" y="80.00" text-anchor="end" font-family="Arial" font-size="16" fill="black">0.019</text>
<rect x="120" y="75" width="1025" height="630" fill="none" stroke="black" stroke-width="2"/>
<text x="632.5" y="785" text-anchor="middle" font-family="Arial" font-size="20" fill="black">z coordinate [m]</text>
<text x="34" y="390.0" transform="rotate(-90 34 390.0)" text-anchor="middle" font-family="Arial" font-size="20" fill="black">U:0 [SI]</text>
<polyline points="190.69,161.45 193.64,160.45 196.58,159.44 199.53,158.44 202.47,157.43 205.42,156.43 208.36,155.43 211.31,154.42 214.25,153.42 217.20,152.42 220.14,151.41 223.09,149.71 226.03,148.00 228.98,146.30 231.93,144.59 234.87,142.89 237.82,141.19 240.76,139.48 243.71,137.78 246.65,136.07 249.60,134.37 252.54,133.27 255.49,132.17 258.43,131.07 261.38,129.97 264.32,128.86 267.27,127.76 270.22,126.66 273.16,125.56 276.11,124.46 279.05,123.36 282.00,122.87 284.94,122.38 287.89,121.89 290.83,121.40 293.78,120.91 296.72,120.42 299.67,119.92 302.61,119.43 305.56,118.94 308.51,118.45 311.45,118.51 314.40,118.57 317.34,118.63 320.29,118.68 323.23,118.74 326.18,118.80 329.12,118.86 332.07,118.92 335.01,118.97 337.96,119.03 340.91,119.29 343.85,119.55 346.80,119.81 349.74,120.07 352.69,120.33 355.63,120.59 358.58,120.85 361.52,121.11 364.47,121.37 367.41,121.63 370.36,121.34 373.30,121.05 376.25,120.76 379.20,120.47 382.14,120.18 385.09,119.89 388.03,119.60 390.98,119.31 393.92,119.02 396.87,118.73 399.81,120.75 402.76,122.76 405.70,124.78 408.65,126.80 411.59,128.82 414.54,130.84 417.49,132.86 420.43,134.88 423.38,136.90 426.32,138.91 429.27,155.06 432.21,171.21 435.16,187.36 438.10,203.50 441.05,219.65 443.99,235.80 446.94,251.94 449.89,268.09 452.83,284.24 455.78,300.39 458.72,321.68 461.67,342.97 464.61,364.25 467.56,385.54 470.50,406.83 473.45,428.12 476.39,449.41 479.34,470.70 482.28,491.98 485.23,513.27 488.18,524.14 491.12,535.02 494.07,545.89 497.01,556.76 499.96,567.63 502.90,578.51 505.85,589.38 508.79,600.25 511.74,611.12 514.68,621.99 517.63,625.95 520.57,629.91 523.52,633.86 526.47,637.82 529.41,641.77 532.36,645.73 535.30,649.68 538.25,653.64 541.19,657.59 544.14,661.55 547.08,660.91 550.03,660.27 552.97,659.63 555.92,658.99 558.86,658.36 561.81,657.71 564.76,657.07 567.70,656.43 570.65,655.80 573.59,655.16 576.54,651.24 579.48,647.33 582.43,643.42 585.37,639.51 588.32,635.60 591.26,631.68 594.21,627.77 597.16,623.86 600.10,619.95 603.05,616.04 605.99,609.98 608.94,603.93 611.88,597.88 614.83,591.83 617.77,585.78 620.72,579.72 623.66,573.67 626.61,567.62 629.55,561.57 632.50,555.52 635.45,548.36 638.39,541.20 641.34,534.03 644.28,526.87 647.23,519.72 650.17,512.56 653.12,505.40 656.06,498.23 659.01,491.07 661.95,483.91 664.90,476.49 667.84,469.06 670.79,461.64 673.74,454.21 676.68,446.78 679.63,439.36 682.57,431.93 685.52,424.50 688.46,417.08 691.41,409.65 694.35,402.65 697.30,395.65 700.24,388.65 703.19,381.65 706.14,374.65 709.08,367.65 712.03,360.64 714.97,353.64 717.92,346.64 720.86,339.64 723.81,333.62 726.75,327.60 729.70,321.58 732.64,315.56 735.59,309.54 738.53,303.52 741.48,297.50 744.43,291.48 747.37,285.46 750.32,279.44 753.26,274.74 756.21,270.04 759.15,265.34 762.10,260.64 765.04,255.94 767.99,251.24 770.93,246.54 773.88,241.84 776.82,237.14 779.77,232.44 782.72,229.17 785.66,225.90 788.61,222.63 791.55,219.36 794.50,216.09 797.44,212.82 800.39,209.55 803.33,206.28 806.28,203.01 809.22,199.74 812.17,197.87 815.11,196.00 818.06,194.13 821.01,192.26 823.95,190.40 826.90,188.53 829.84,186.66 832.79,184.79 835.73,182.92 838.68,181.05 841.62,180.50 844.57,179.95 847.51,179.40 850.46,178.85 853.41,178.30 856.35,177.75 859.30,177.20 862.24,176.65 865.19,176.10 868.13,175.55 871.08,176.17 874.02,176.80 876.97,177.42 879.91,178.04 882.86,178.67 885.80,179.29 888.75,179.91 891.70,180.54 894.64,181.16 897.59,181.78 900.53,183.27 903.48,184.75 906.42,186.24 909.37,187.72 912.31,189.21 915.26,190.69 918.20,192.18 921.15,193.66 924.09,195.15 927.04,196.63 929.99,198.37 932.93,200.11 935.88,201.86 938.82,203.60 941.77,205.34 944.71,207.08 947.66,208.82 950.60,210.56 953.55,212.30 956.49,214.04 959.44,215.11 962.39,216.18 965.33,217.25 968.28,218.32 971.22,219.40 974.17,220.47 977.11,221.54 980.06,222.61 983.00,223.68 985.95,224.75 988.89,224.28 991.84,223.82 994.78,223.35 997.73,222.89 1000.68,222.42 1003.62,221.96 1006.57,221.49 1009.51,221.03 1012.46,220.56 1015.40,220.10 1018.35,216.77 1021.29,213.45 1024.24,210.12 1027.18,206.80 1030.13,203.47 1033.07,200.15 1036.02,196.83 1038.97,193.50 1041.91,190.18 1044.86,186.85 1047.80,184.22 1050.75,181.60 1053.69,178.97 1056.64,176.35 1059.58,173.72 1062.53,171.09 1065.47,168.47 1068.42,165.84 1071.36,163.22 1074.31,160.59" fill="none" stroke="#000000" stroke-width="3"/>
<line x1="142" y1="100" x2="178" y2="100" stroke="#000000" stroke-width="4"/>
<text x="188" y="105" font-family="Arial" font-size="18" fill="black">U:0</text>
</svg>