<svg xmlns="http://www.w3.org/2000/svg" width="1200" height="820" viewBox="0 0 1200 820">
<rect width="100%" height="100%" fill="white"/>
<text x="600.0" y="36" text-anchor="middle" font-family="Arial" font-size="24" fill="black">profile_center_z: nut</text>
<line x1="120.00" y1="75" x2="120.00" y2="705" stroke="#dddddd" stroke-width="1"/>
<text x="120.00" y="737" text-anchor="middle" font-family="Arial" font-size="16" fill="black">-0.240</text>
<line x1="376.25" y1="75" x2="376.25" y2="705" stroke="#dddddd" stroke-width="1"/>
<text x="376.25" y="737" text-anchor="middle" font-family="Arial" font-size="16" fill="black">0.630</text>
<line x1="632.50" y1="75" x2="632.50" y2="705" stroke="#dddddd" stroke-width="1"/>
<text x="632.50" y="737" text-anchor="middle" font-family="Arial" font-size="16" fill="black">1.500</text>
<line x1="888.75" y1="75" x2="888.75" y2="705" stroke="#dddddd" stroke-width="1"/>
<text x="888.75" y="737" text-anchor="middle" font-family="Arial" font-size="16" fill="black">2.370</text>
<line x1="1145.00" y1="75" x2="1145.00" y2="705" stroke="#dddddd" stroke-width="1"/>
<text x="1145.00" y="737" text-anchor="middle" font-family="Arial" font-size="16" fill="black">3.240</text>
<line x1="120" y1="705.00" x2="1145" y2="705.00" stroke="#dddddd" stroke-width="1"/>
<text x="104" y="710.00" text-anchor="end" font-family="Arial" font-size="16" fill="black">-1.90e-04</text>
<line x1="120" y1="547.50" x2="1145" y2="547.50" stroke="#dddddd" stroke-width="1"/>
<text x="104" y="552.50" text-anchor="end" font-family="Arial" font-size="16" fill="black">0.003</text>
<line x1="120" y1="390.00" x2="1145" y2="390.00" stroke="#dddddd" stroke-width="1"/>
<text x="104" y="395.00" text-anchor="end" font-family="Arial" font-size="16" fill="black">0.007</text>
<line x1="120" y1="232.50" x2="1145" y2="232.50" stroke="#dddddd" stroke-width="1"/>
<text x="104" y="237.50" text-anchor="end" font-family="Arial" font-size="16" fill="black">0.011</text>
<line x1="120" y1="75.00" x2="1145" y2="75.00" stroke="#dddddd" stroke-width="1"/>
<text x="104" y="80.00" text-anchor="end" font-family="Arial" font-size="16" fill="black">0.014</text>
<rect x="120" y="75" width="1025" height="630" fill="none" stroke="black" stroke-width="2"/>
<text x="632.5" y="785" text-anchor="middle" font-family="Arial" font-size="20" fill="black">z coordinate [m]</text>
<text x="34" y="390.0" transform="rotate(-90 34 390.0)" text-anchor="middle" font-family="Arial" font-size="20" fill="black">nut [m2/s]</text>
<polyline points="190.69,660.48 193.64,660.52 196.58,660.57 199.53,660.61 202.47,660.66 205.42,660.70 208.36,660.75 211.31,660.79 214.25,660.83 217.20,660.88 220.14,660.92 223.09,660.98 226.03,661.05 228.98,661.11 231.93,661.17 234.87,661.24 237.82,661.30 240.76,661.36 243.71,661.43 246.65,661.49 249.60,661.55 252.54,661.55 255.49,661.54 258.43,661.53 261.38,661.53 264.32,661.52 267.27,661.51 270.22,661.51 273.16,661.50 276.11,661.49 279.05,661.49 282.00,661.37 284.94,661.26 287.89,661.14 290.83,661.03 293.78,660.91 296.72,660.80 299.67,660.68 302.61,660.57 305.56,660.45 308.51,660.34 311.45,660.11 314.40,659.88 317.34,659.65 320.29,659.42 323.23,659.19 326.18,658.96 329.12,658.73 332.07,658.50 335.01,658.27 337.96,658.05 340.91,657.74 343.85,657.43 346.80,657.13 349.74,656.82 352.69,656.51 355.63,656.21 358.58,655.90 361.52,655.60 364.47,655.29 367.41,654.98 370.36,654.35 373.30,653.71 376.25,653.08 379.20,652.44 382.14,651.81 385.09,651.17 388.03,650.53 390.98,649.90 393.92,649.26 396.87,648.62 399.81,643.79 402.76,638.95 405.70,634.12 408.65,629.28 411.59,624.44 414.54,619.61 417.49,614.77 420.43,609.93 423.38,605.10 426.32,600.26 429.27,587.72 432.21,575.17 435.16,562.63 438.10,550.08 441.05,537.54 443.99,524.99 446.94,512.45 449.89,499.90 452.83,487.36 455.78,474.81 458.72,462.04 461.67,449.26 464.61,436.48 467.56,423.70 470.50,410.92 473.45,398.14 476.39,385.37 479.34,372.59 482.28,359.81 485.23,347.03 488.18,338.22 491.12,329.42 494.07,320.61 497.01,311.80 499.96,302.99 502.90,294.18 505.85,285.37 508.79,276.56 511.74,267.75 514.68,258.94 517.63,251.46 520.57,244.01 523.52,236.50 526.47,229.04 529.41,221.54 532.36,214.08 535.30,206.58 538.25,199.12 541.19,191.66 544.14,184.16 547.08,179.48 550.03,174.81 552.97,170.17 555.92,165.49 558.86,160.82 561.81,156.14 564.76,151.46 567.70,146.83 570.65,142.15 573.59,137.47 576.54,135.79 579.48,134.07 582.43,132.39 585.37,130.67 588.32,129.00 591.26,127.27 594.21,125.60 597.16,123.92 600.10,122.20 603.05,120.52 605.99,120.30 608.94,120.08 611.88,119.90 614.83,119.68 617.77,119.46 620.72,119.24 623.66,119.07 626.61,118.85 629.55,118.62 632.50,118.45 635.45,118.76 638.39,119.07 641.34,119.38 644.28,119.68 647.23,120.04 650.17,120.35 653.12,120.65 656.06,120.96 659.01,121.27 661.95,121.63 664.90,122.11 667.84,122.64 670.79,123.13 673.74,123.66 676.68,124.14 679.63,124.67 682.57,125.16 685.52,125.69 688.46,126.17 691.41,126.70 694.35,127.27 697.30,127.80 700.24,128.38 703.19,128.95 706.14,129.53 709.08,130.06 712.03,130.63 714.97,131.20 717.92,131.73 720.86,132.31 723.81,132.84 726.75,133.37 729.70,133.94 732.64,134.47 735.59,135.00 738.53,135.53 741.48,136.06 744.43,136.59 747.37,137.12 750.32,137.65 753.26,138.13 756.21,138.57 759.15,139.06 762.10,139.50 765.04,139.94 767.99,140.43 770.93,140.87 773.88,141.35 776.82,141.79 779.77,142.24 782.72,142.59 785.66,142.94 788.61,143.30 791.55,143.65 794.50,144.00 797.44,144.35 800.39,144.71 803.33,145.06 806.28,145.41 809.22,145.77 812.17,146.03 815.11,146.30 818.06,146.56 821.01,146.78 823.95,147.05 826.90,147.31 829.84,147.58 832.79,147.84 835.73,148.06 838.68,148.33 841.62,148.59 844.57,148.86 847.51,149.12 850.46,149.34 853.41,149.61 856.35,149.87 859.30,150.14 862.24,150.40 865.19,150.67 868.13,150.89 871.08,151.46 874.02,152.03 876.97,152.61 879.91,153.18 882.86,153.75 885.80,154.33 888.75,154.90 891.70,155.48 894.64,156.05 897.59,156.62 900.53,158.21 903.48,159.80 906.42,161.39 909.37,162.98 912.31,164.57 915.26,166.16 918.20,167.74 921.15,169.33 924.09,170.92 927.04,172.51 929.99,176.17 932.93,179.79 935.88,183.41 938.82,187.03 941.77,190.65 944.71,194.31 947.66,197.93 950.60,201.55 953.55,205.17 956.49,208.83 959.44,215.58 962.39,222.34 965.33,229.09 968.28,235.84 971.22,242.59 974.17,249.35 977.11,256.12 980.06,262.87 983.00,269.63 985.95,276.39 988.89,287.68 991.84,298.96 994.78,310.24 997.73,321.53 1000.68,332.82 1003.62,344.11 1006.57,355.39 1009.51,366.68 1012.46,377.97 1015.40,389.25 1018.35,405.51 1021.29,421.76 1024.24,438.02 1027.18,454.27 1030.13,470.53 1033.07,486.78 1036.02,503.04 1038.97,519.29 1041.91,535.55 1044.86,551.81 1047.80,561.07 1050.75,570.33 1053.69,579.60 1056.64,588.86 1059.58,598.13 1062.53,607.39 1065.47,616.65 1068.42,625.92 1071.36,635.18 1074.31,644.45" fill="none" stroke="#000000" stroke-width="3"/>
<line x1="142" y1="100" x2="178" y2="100" stroke="#000000" stroke-width="4"/>
<text x="188" y="105" font-family="Arial" font-size="18" fill="black">nut</text>
</svg>