<svg xmlns="http://www.w3.org/2000/svg" width="1200" height="820" viewBox="0 0 1200 820">
<rect width="100%" height="100%" fill="white"/>
<text x="600.0" y="36" text-anchor="middle" font-family="Arial" font-size="24" fill="black">profile_center_y: U:1</text>
<line x1="120.00" y1="75" x2="120.00" y2="705" stroke="#dddddd" stroke-width="1"/>
<text x="120.00" y="737" text-anchor="middle" font-family="Arial" font-size="16" fill="black">-0.400</text>
<line x1="376.25" y1="75" x2="376.25" y2="705" stroke="#dddddd" stroke-width="1"/>
<text x="376.25" y="737" text-anchor="middle" font-family="Arial" font-size="16" fill="black">1.050</text>
<line x1="632.50" y1="75" x2="632.50" y2="705" stroke="#dddddd" stroke-width="1"/>
<text x="632.50" y="737" text-anchor="middle" font-family="Arial" font-size="16" fill="black">2.500</text>
<line x1="888.75" y1="75" x2="888.75" y2="705" stroke="#dddddd" stroke-width="1"/>
<text x="888.75" y="737" text-anchor="middle" font-family="Arial" font-size="16" fill="black">3.950</text>
<line x1="1145.00" y1="75" x2="1145.00" y2="705" stroke="#dddddd" stroke-width="1"/>
<text x="1145.00" y="737" text-anchor="middle" font-family="Arial" font-size="16" fill="black">5.400</text>
<line x1="120" y1="705.00" x2="1145" y2="705.00" stroke="#dddddd" stroke-width="1"/>
<text x="104" y="710.00" text-anchor="end" font-family="Arial" font-size="16" fill="black">-0.142</text>
<line x1="120" y1="547.50" x2="1145" y2="547.50" stroke="#dddddd" stroke-width="1"/>
<text x="104" y="552.50" text-anchor="end" font-family="Arial" font-size="16" fill="black">-0.088</text>
<line x1="120" y1="390.00" x2="1145" y2="390.00" stroke="#dddddd" stroke-width="1"/>
<text x="104" y="395.00" text-anchor="end" font-family="Arial" font-size="16" fill="black">-0.034</text>
<line x1="120" y1="232.50" x2="1145" y2="232.50" stroke="#dddddd" stroke-width="1"/>
<text x="104" y="237.50" text-anchor="end" font-family="Arial" font-size="16" fill="black">0.020</text>
<line x1="120" y1="75.00" x2="1145" y2="75.00" stroke="#dddddd" stroke-width="1"/>
<text x="104" y="80.00" text-anchor="end" font-family="Arial" font-size="16" fill="black">0.075</text>
<rect x="120" y="75" width="1025" height="630" fill="none" stroke="black" stroke-width="2"/>
<text x="632.5" y="785" text-anchor="middle" font-family="Arial" font-size="20" fill="black">y coordinate [m]</text>
<text x="34" y="390.0" transform="rotate(-90 34 390.0)" text-anchor="middle" font-family="Arial" font-size="20" fill="black">U:1 [SI]</text>
<polyline points="190.69,326.14 193.64,328.07 196.58,330.00 199.53,331.93 202.47,333.85 205.42,335.78 208.36,337.71 211.31,342.13 214.25,346.54 217.20,350.96 220.14,355.37 223.09,359.78 226.03,364.20 228.98,367.81 231.92,371.43 234.87,375.05 237.82,378.66 240.76,382.28 243.71,385.89 246.65,387.90 249.60,389.91 252.54,391.92 255.49,393.92 258.43,395.93 261.38,397.94 264.33,399.32 267.27,400.70 270.22,402.08 273.16,403.47 276.11,404.85 279.05,406.23 282.00,407.10 284.94,407.96 287.89,408.83 290.83,409.69 293.78,410.55 296.72,411.42 299.67,412.03 302.61,412.65 305.56,413.27 308.51,413.88 311.45,414.50 314.40,415.12 317.34,415.63 320.29,416.14 323.23,416.65 326.18,417.17 329.12,417.68 332.07,418.20 335.01,418.87 337.96,419.54 340.91,420.21 343.85,420.88 346.80,421.55 349.74,422.22 352.69,423.65 355.63,425.07 358.58,426.49 361.52,427.92 364.47,429.34 367.41,430.76 370.37,433.28 373.30,435.81 376.25,438.33 379.20,440.85 382.13,443.38 385.09,445.90 388.04,449.29 390.97,452.67 393.92,456.06 396.87,459.44 399.81,462.83 402.76,466.21 405.71,470.15 408.64,474.09 411.59,478.03 414.55,481.97 417.48,485.91 420.43,489.85 423.38,494.18 426.32,498.51 429.27,502.85 432.22,507.18 435.15,511.52 438.10,515.85 441.05,520.66 443.99,525.46 446.94,530.27 449.89,535.08 452.82,539.88 455.78,544.69 458.73,550.32 461.66,555.95 464.61,561.58 467.56,567.22 470.50,572.85 473.45,578.48 476.40,584.41 479.33,590.36 482.28,596.28 485.24,602.20 488.17,608.15 491.12,614.07 494.07,618.94 497.01,623.82 499.96,628.70 502.91,633.57 505.84,638.45 508.79,643.30 511.74,646.23 514.68,649.16 517.63,652.06 520.58,654.99 523.51,657.92 526.47,660.83 529.42,660.94 532.35,661.09 535.30,661.20 538.25,661.32 541.19,661.44 544.14,661.55 547.09,658.16 550.02,654.76 552.97,651.36 555.93,647.97 558.86,644.57 561.81,641.18 564.76,634.30 567.70,627.39 570.65,620.51 573.60,613.60 576.53,606.73 579.48,599.82 582.43,590.07 585.37,580.31 588.32,570.55 591.27,560.80 594.20,551.05 597.16,541.29 600.11,529.73 603.04,518.17 605.99,506.62 608.94,495.06 611.88,483.50 614.83,471.94 617.78,459.77 620.71,447.61 623.66,435.45 626.62,423.28 629.55,411.12 632.50,398.96 635.45,387.21 638.38,375.46 641.34,363.72 644.29,351.97 647.22,340.23 650.17,328.48 653.12,317.89 656.06,307.31 659.01,296.72 661.96,286.13 664.89,275.55 667.84,264.96 670.80,256.07 673.73,247.19 676.68,238.30 679.63,229.41 682.57,220.53 685.52,211.64 688.47,204.63 691.40,197.62 694.35,190.62 697.30,183.61 700.24,176.60 703.19,169.59 706.14,164.67 709.07,159.75 712.03,154.82 714.98,149.90 717.91,144.98 720.86,140.05 723.81,137.20 726.75,134.35 729.70,131.49 732.65,128.64 735.58,125.78 738.53,122.93 741.49,122.18 744.42,121.43 747.37,120.69 750.32,119.94 753.26,119.19 756.21,118.45 759.16,121.13 762.09,123.81 765.04,126.48 767.99,129.16 770.93,131.84 773.88,134.52 776.83,142.14 779.76,149.75 782.72,157.37 785.67,164.99 788.60,172.60 791.55,180.22 794.50,192.32 797.44,204.42 800.39,216.51 803.34,228.61 806.27,240.71 809.22,252.81 812.18,265.94 815.11,279.06 818.06,292.18 821.01,305.31 823.95,318.43 826.90,331.56 829.85,342.09 832.78,352.61 835.73,363.14 838.68,373.67 841.62,384.20 844.57,394.72 847.52,401.51 850.45,408.29 853.41,415.07 856.36,421.86 859.29,428.64 862.24,435.42 865.19,438.49 868.13,441.56 871.08,444.62 874.03,447.69 876.96,450.76 879.91,453.83 882.87,453.83 885.80,453.82 888.75,453.82 891.70,453.82 894.63,453.82 897.59,453.82 900.54,452.10 903.47,450.37 906.42,448.65 909.37,446.93 912.31,445.21 915.26,443.48 918.21,441.37 921.14,439.25 924.09,437.13 927.05,435.02 929.98,432.90 932.93,430.78 935.88,428.84 938.82,426.91 941.77,424.97 944.72,423.03 947.65,421.09 950.60,419.15 953.55,417.20 956.49,415.25 959.44,413.30 962.39,411.35 965.32,409.40 968.28,407.45 971.23,404.98 974.16,402.52 977.11,400.05 980.06,397.59 983.00,395.12 985.95,392.65 988.90,389.43 991.83,386.20 994.78,382.98 997.74,379.75 1000.67,376.53 1003.62,373.30 1006.57,368.99 1009.51,364.68 1012.46,360.37 1015.41,356.06 1018.34,351.74 1021.29,347.43 1024.24,343.41 1027.18,339.38 1030.13,335.36 1033.08,331.34 1036.01,327.32 1038.97,323.30 1041.92,318.49 1044.85,313.69 1047.80,308.89 1050.75,304.09 1053.69,299.28 1056.64,294.48 1059.59,291.18 1062.52,287.87 1065.47,284.57 1068.43,281.26 1071.36,277.96 1074.31,274.65" fill="none" stroke="#000000" stroke-width="3"/>
<line x1="142" y1="100" x2="178" y2="100" stroke="#000000" stroke-width="4"/>
<text x="188" y="105" font-family="Arial" font-size="18" fill="black">U:1</text>
</svg>