<svg xmlns="http://www.w3.org/2000/svg" width="1200" height="820" viewBox="0 0 1200 820">
<rect width="100%" height="100%" fill="white"/>
<text x="600.0" y="36" text-anchor="middle" font-family="Arial" font-size="24" fill="black">profile_diagonal_supply_return: vorticity:2</text>
<line x1="120.00" y1="75" x2="120.00" y2="705" stroke="#dddddd" stroke-width="1"/>
<text x="120.00" y="737" text-anchor="middle" font-family="Arial" font-size="16" fill="black">-0.729</text>
<line x1="376.25" y1="75" x2="376.25" y2="705" stroke="#dddddd" stroke-width="1"/>
<text x="376.25" y="737" text-anchor="middle" font-family="Arial" font-size="16" fill="black">1.913</text>
<line x1="632.50" y1="75" x2="632.50" y2="705" stroke="#dddddd" stroke-width="1"/>
<text x="632.50" y="737" text-anchor="middle" font-family="Arial" font-size="16" fill="black">4.555</text>
<line x1="888.75" y1="75" x2="888.75" y2="705" stroke="#dddddd" stroke-width="1"/>
<text x="888.75" y="737" text-anchor="middle" font-family="Arial" font-size="16" fill="black">7.197</text>
<line x1="1145.00" y1="75" x2="1145.00" y2="705" stroke="#dddddd" stroke-width="1"/>
<text x="1145.00" y="737" text-anchor="middle" font-family="Arial" font-size="16" fill="black">9.839</text>
<line x1="120" y1="705.00" x2="1145" y2="705.00" stroke="#dddddd" stroke-width="1"/>
<text x="104" y="710.00" text-anchor="end" font-family="Arial" font-size="16" fill="black">-2.303</text>
<line x1="120" y1="547.50" x2="1145" y2="547.50" stroke="#dddddd" stroke-width="1"/>
<text x="104" y="552.50" text-anchor="end" font-family="Arial" font-size="16" fill="black">-1.072</text>
<line x1="120" y1="390.00" x2="1145" y2="390.00" stroke="#dddddd" stroke-width="1"/>
<text x="104" y="395.00" text-anchor="end" font-family="Arial" font-size="16" fill="black">0.159</text>
<line x1="120" y1="232.50" x2="1145" y2="232.50" stroke="#dddddd" stroke-width="1"/>
<text x="104" y="237.50" text-anchor="end" font-family="Arial" font-size="16" fill="black">1.390</text>
<line x1="120" y1="75.00" x2="1145" y2="75.00" stroke="#dddddd" stroke-width="1"/>
<text x="104" y="80.00" text-anchor="end" font-family="Arial" font-size="16" fill="black">2.621</text>
<rect x="120" y="75" width="1025" height="630" fill="none" stroke="black" stroke-width="2"/>
<text x="632.5" y="785" text-anchor="middle" font-family="Arial" font-size="20" fill="black">distance along sample line [m]</text>
<text x="34" y="390.0" transform="rotate(-90 34 390.0)" text-anchor="middle" font-family="Arial" font-size="20" fill="black">vorticity:2 [SI]</text>
<polyline points="190.69,118.45 193.64,142.79 196.58,173.14 199.53,209.45 202.47,251.71 205.42,293.75 208.36,341.87 211.31,396.58 214.25,461.88 217.20,520.74 220.14,563.37 223.09,610.22 226.03,661.55 228.98,659.31 231.93,652.44 234.87,644.92 237.82,636.72 240.76,627.84 243.71,616.84 246.65,602.71 249.60,588.74 252.54,575.71 255.49,565.09 258.43,556.72 261.38,549.11 264.32,542.08 267.27,535.92 270.22,532.36 273.16,529.63 276.11,527.66 279.05,526.34 282.00,527.11 284.94,528.52 287.88,530.52 290.83,533.04 293.78,533.91 296.73,535.24 299.67,537.80 302.62,541.19 305.57,543.06 308.50,543.18 311.45,543.73 314.40,545.51 317.34,546.83 320.29,544.16 323.24,542.79 326.18,542.71 329.12,543.88 332.07,542.06 335.01,539.99 337.96,539.09 340.91,537.99 343.85,535.63 346.80,532.59 349.74,530.57 352.68,528.68 355.63,526.60 358.58,522.57 361.53,519.29 364.47,516.82 367.42,515.19 370.36,507.27 373.30,499.82 376.25,492.84 379.20,486.35 382.14,477.82 385.09,468.36 388.04,457.60 390.97,446.94 393.92,436.40 396.87,425.60 399.81,414.41 402.76,403.30 405.71,392.20 408.65,385.60 411.59,379.08 414.54,372.63 417.48,366.25 420.43,365.13 423.38,365.00 426.32,365.16 429.27,365.99 432.21,368.62 435.16,372.59 438.10,376.74 441.05,381.00 444.00,385.54 446.94,390.59 449.89,395.73 452.84,400.98 455.77,406.32 458.72,410.80 461.67,415.22 464.61,419.57 467.56,423.84 470.51,427.44 473.45,430.73 476.39,433.74 479.34,436.70 482.28,439.20 485.23,441.13 488.18,442.37 491.12,443.58 494.07,444.53 497.01,444.91 499.96,445.37 502.90,445.92 505.85,446.54 508.80,446.86 511.74,447.17 514.69,447.63 517.63,447.74 520.57,447.74 523.52,447.73 526.47,447.88 529.41,448.15 532.36,448.44 535.31,448.56 538.24,448.85 541.19,449.29 544.14,449.87 547.08,449.75 550.03,449.80 552.98,450.01 555.92,450.36 558.86,450.45 561.81,450.60 564.76,450.95 567.70,451.41 570.65,451.69 573.60,451.78 576.54,451.95 579.49,452.36 582.43,452.72 585.37,452.51 588.32,452.54 591.27,452.79 594.21,453.26 597.16,452.88 600.11,452.24 603.04,451.78 605.99,451.54 608.94,450.66 611.88,449.40 614.83,448.49 617.78,447.30 620.72,445.93 623.66,443.85 626.61,442.01 629.55,440.41 632.50,439.10 635.45,436.94 638.40,434.99 641.34,433.25 644.28,431.75 647.23,430.50 650.17,429.46 653.12,428.74 656.07,428.32 659.01,428.34 661.96,428.86 664.90,429.60 667.84,430.65 670.79,432.67 673.74,435.23 676.68,438.14 679.63,441.42 682.58,445.08 685.51,448.85 688.46,453.30 691.41,457.95 694.35,462.63 697.30,466.95 700.25,470.96 703.20,475.10 706.14,478.85 709.08,482.29 712.03,484.93 714.97,487.60 717.92,490.27 720.87,492.96 723.81,493.48 726.76,494.08 729.70,494.77 732.64,495.53 735.59,495.99 738.54,496.44 741.48,495.73 744.43,495.20 747.38,494.61 750.31,493.97 753.26,493.50 756.21,493.33 759.15,492.08 762.10,490.48 765.05,489.29 767.99,488.49 770.93,488.11 773.88,487.23 776.83,485.41 779.77,484.05 782.72,483.04 785.67,481.76 788.61,480.50 791.55,479.87 794.50,478.46 797.44,477.11 800.39,475.31 803.34,474.18 806.28,473.75 809.23,473.99 812.17,471.49 815.11,469.61 818.06,468.34 821.01,467.67 823.95,466.64 826.90,465.76 829.85,463.75 832.79,462.17 835.73,460.68 838.68,459.07 841.63,457.24 844.57,455.58 847.52,452.80 850.47,449.86 853.41,446.82 856.35,443.63 859.30,440.23 862.24,436.38 865.19,431.83 868.14,426.94 871.08,421.33 874.03,415.20 876.97,408.69 879.91,401.96 882.86,396.25 885.81,390.81 888.75,386.32 891.70,382.31 894.65,378.83 897.58,375.92 900.53,378.60 903.48,381.77 906.43,385.43 909.37,389.56 912.32,395.36 915.27,401.83 918.20,409.36 921.15,416.89 924.10,424.26 927.04,431.23 929.99,437.85 932.94,444.12 935.88,450.99 938.82,456.48 941.77,461.73 944.71,466.73 947.66,471.45 950.61,474.84 953.55,479.86 956.50,484.64 959.44,488.80 962.38,491.83 965.33,493.74 968.28,494.91 971.22,497.76 974.17,499.72 977.12,499.64 980.06,498.03 983.00,494.77 985.95,489.70 988.90,480.68 991.84,469.71 994.79,456.77 997.74,441.84 1000.68,431.18 1003.62,422.86 1006.57,412.68 1009.51,403.89 1012.46,399.03 1015.41,398.78 1018.35,399.49 1021.30,401.75 1024.24,404.81 1027.18,407.00 1030.13,410.01 1033.08,413.84 1036.02,418.49 1038.97,421.45 1041.92,443.51 1044.86,463.09 1047.80,478.93 1050.75,495.96 1053.70,513.96 1056.64,529.91 1059.59,544.82 1062.54,559.42 1065.47,577.10 1068.42,594.49 1071.37,611.49 1074.31,628.05" fill="none" stroke="#000000" stroke-width="3"/>
<line x1="142" y1="100" x2="178" y2="100" stroke="#000000" stroke-width="4"/>
<text x="188" y="105" font-family="Arial" font-size="18" fill="black">vorticity:2</text>
</svg>