<svg xmlns="http://www.w3.org/2000/svg" width="1200" height="820" viewBox="0 0 1200 820">
<rect width="100%" height="100%" fill="white"/>
<text x="600.0" y="36" text-anchor="middle" font-family="Arial" font-size="24" fill="black">profile_center_y: vorticity:1</text>
<line x1="120.00" y1="75" x2="120.00" y2="705" stroke="#dddddd" stroke-width="1"/>
<text x="120.00" y="737" text-anchor="middle" font-family="Arial" font-size="16" fill="black">-0.400</text>
<line x1="376.25" y1="75" x2="376.25" y2="705" stroke="#dddddd" stroke-width="1"/>
<text x="376.25" y="737" text-anchor="middle" font-family="Arial" font-size="16" fill="black">1.050</text>
<line x1="632.50" y1="75" x2="632.50" y2="705" stroke="#dddddd" stroke-width="1"/>
<text x="632.50" y="737" text-anchor="middle" font-family="Arial" font-size="16" fill="black">2.500</text>
<line x1="888.75" y1="75" x2="888.75" y2="705" stroke="#dddddd" stroke-width="1"/>
<text x="888.75" y="737" text-anchor="middle" font-family="Arial" font-size="16" fill="black">3.950</text>
<line x1="1145.00" y1="75" x2="1145.00" y2="705" stroke="#dddddd" stroke-width="1"/>
<text x="1145.00" y="737" text-anchor="middle" font-family="Arial" font-size="16" fill="black">5.400</text>
<line x1="120" y1="705.00" x2="1145" y2="705.00" stroke="#dddddd" stroke-width="1"/>
<text x="104" y="710.00" text-anchor="end" font-family="Arial" font-size="16" fill="black">-0.495</text>
<line x1="120" y1="547.50" x2="1145" y2="547.50" stroke="#dddddd" stroke-width="1"/>
<text x="104" y="552.50" text-anchor="end" font-family="Arial" font-size="16" fill="black">-0.306</text>
<line x1="120" y1="390.00" x2="1145" y2="390.00" stroke="#dddddd" stroke-width="1"/>
<text x="104" y="395.00" text-anchor="end" font-family="Arial" font-size="16" fill="black">-0.118</text>
<line x1="120" y1="232.50" x2="1145" y2="232.50" stroke="#dddddd" stroke-width="1"/>
<text x="104" y="237.50" text-anchor="end" font-family="Arial" font-size="16" fill="black">0.070</text>
<line x1="120" y1="75.00" x2="1145" y2="75.00" stroke="#dddddd" stroke-width="1"/>
<text x="104" y="80.00" text-anchor="end" font-family="Arial" font-size="16" fill="black">0.258</text>
<rect x="120" y="75" width="1025" height="630" fill="none" stroke="black" stroke-width="2"/>
<text x="632.5" y="785" text-anchor="middle" font-family="Arial" font-size="20" fill="black">y coordinate [m]</text>
<text x="34" y="390.0" transform="rotate(-90 34 390.0)" text-anchor="middle" font-family="Arial" font-size="20" fill="black">vorticity:1 [SI]</text>
<polyline points="190.69,417.24 193.64,417.71 196.58,418.18 199.53,418.65 202.47,419.12 205.42,419.59 208.36,420.06 211.31,420.99 214.25,421.93 217.20,422.86 220.14,423.79 223.09,424.72 226.03,425.66 228.98,427.66 231.92,429.65 234.87,431.65 237.82,433.65 240.76,435.65 243.71,437.65 246.65,441.98 249.60,446.31 252.54,450.64 255.49,454.97 258.43,459.29 261.38,463.62 264.33,469.69 267.27,475.75 270.22,481.81 273.16,487.87 276.11,493.94 279.05,500.00 282.00,505.73 284.94,511.47 287.89,517.20 290.83,522.93 293.78,528.65 296.72,534.39 299.67,537.64 302.61,540.90 305.56,544.16 308.51,547.42 311.45,550.67 314.40,553.93 317.34,554.04 320.29,554.15 323.23,554.26 326.18,554.37 329.12,554.48 332.07,554.59 335.01,552.67 337.96,550.77 340.91,548.85 343.85,546.94 346.80,545.02 349.74,543.12 352.69,541.08 355.63,539.06 358.58,537.03 361.52,535.00 364.47,532.97 367.41,530.95 370.37,528.69 373.30,526.43 376.25,524.17 379.20,521.92 382.13,519.66 385.09,517.40 388.04,513.51 390.97,509.61 393.92,505.72 396.87,501.82 399.81,497.92 402.76,494.03 405.71,489.05 408.64,484.07 411.59,479.09 414.55,474.10 417.48,469.12 420.43,464.13 423.38,460.07 426.32,456.01 429.27,451.95 432.22,447.89 435.15,443.83 438.10,439.77 441.05,438.41 443.99,437.04 446.94,435.69 449.89,434.32 452.82,432.97 455.78,431.60 458.73,433.11 461.66,434.61 464.61,436.11 467.56,437.61 470.50,439.12 473.45,440.61 476.40,443.17 479.33,445.72 482.28,448.26 485.24,450.82 488.17,453.36 491.12,455.91 494.07,457.93 497.01,459.95 499.96,461.96 502.91,463.98 505.84,466.00 508.79,468.01 511.74,468.60 514.68,469.19 517.63,469.78 520.58,470.37 523.51,470.96 526.47,471.55 529.42,469.55 532.35,467.55 535.30,465.55 538.25,463.55 541.19,461.55 544.14,459.55 547.09,454.56 550.02,449.57 552.97,444.58 555.93,439.59 558.86,434.61 561.81,429.62 564.76,422.15 567.70,414.68 570.65,407.21 573.60,399.75 576.53,392.28 579.48,384.82 582.43,375.98 585.37,367.15 588.32,358.31 591.27,349.48 594.20,340.65 597.16,331.81 600.11,323.07 603.04,314.33 605.99,305.59 608.94,296.84 611.88,288.10 614.83,279.36 617.78,272.02 620.71,264.69 623.66,257.35 626.62,250.01 629.55,242.67 632.50,235.34 635.45,230.29 638.38,225.24 641.34,220.20 644.29,215.15 647.22,210.10 650.17,205.06 653.12,202.47 656.06,199.88 659.01,197.29 661.96,194.70 664.89,192.11 667.84,189.52 670.80,189.64 673.73,189.76 676.68,189.88 679.63,190.00 682.57,190.12 685.52,190.24 688.47,193.71 691.40,197.19 694.35,200.66 697.30,204.14 700.24,207.61 703.19,211.09 706.14,219.08 709.07,227.08 712.03,235.08 714.98,243.08 717.91,251.08 720.86,259.08 723.81,272.36 726.75,285.65 729.70,298.94 732.65,312.23 735.58,325.52 738.53,338.81 741.49,355.51 744.42,372.22 747.37,388.93 750.32,405.64 753.26,422.35 756.21,439.05 759.16,453.46 762.09,467.86 765.04,482.27 767.99,496.67 770.93,511.07 773.88,525.47 776.83,533.38 779.76,541.28 782.72,549.19 785.67,557.09 788.60,565.00 791.55,572.91 794.50,577.02 797.44,581.13 800.39,585.24 803.34,589.35 806.27,593.45 809.22,597.56 812.18,603.15 815.11,608.72 818.06,614.30 821.01,619.87 823.95,625.46 826.90,631.03 829.85,636.12 832.78,641.21 835.73,646.30 838.68,651.38 841.62,656.46 844.57,661.55 847.52,660.56 850.45,659.56 853.41,658.56 856.36,657.57 859.29,656.56 862.24,655.57 865.19,647.15 868.13,638.73 871.08,630.31 874.03,621.89 876.96,613.47 879.91,605.05 882.87,589.54 885.80,574.02 888.75,558.51 891.70,542.99 894.63,527.48 897.59,511.97 900.54,492.46 903.47,472.95 906.42,453.44 909.37,433.93 912.31,414.42 915.26,394.91 918.21,376.43 921.14,357.96 924.09,339.48 927.05,321.00 929.98,302.52 932.93,284.04 935.88,270.01 938.82,255.97 941.77,241.94 944.72,227.90 947.65,213.86 950.60,199.83 953.55,191.24 956.49,182.65 959.44,174.06 962.39,165.46 965.32,156.88 968.28,148.29 971.23,144.32 974.16,140.34 977.11,136.37 980.06,132.39 983.00,128.42 985.95,124.44 988.90,123.44 991.83,122.44 994.78,121.44 997.74,120.44 1000.67,119.44 1003.62,118.45 1006.57,118.95 1009.51,119.46 1012.46,119.97 1015.41,120.47 1018.34,120.98 1021.29,121.49 1024.24,123.08 1027.18,124.68 1030.13,126.28 1033.08,127.87 1036.01,129.47 1038.97,131.07 1041.92,135.97 1044.85,140.89 1047.80,145.79 1050.75,150.70 1053.69,155.61 1056.64,160.52 1059.59,164.31 1062.52,168.11 1065.47,171.91 1068.43,175.71 1071.36,179.51 1074.31,183.31" fill="none" stroke="#000000" stroke-width="3"/>
<line x1="142" y1="100" x2="178" y2="100" stroke="#000000" stroke-width="4"/>
<text x="188" y="105" font-family="Arial" font-size="18" fill="black">vorticity:1</text>
</svg>