<svg xmlns="http://www.w3.org/2000/svg" width="1200" height="820" viewBox="0 0 1200 820">
<rect width="100%" height="100%" fill="white"/>
<text x="600.0" y="36" text-anchor="middle" font-family="Arial" font-size="24" fill="black">profile_center_x: T</text>
<line x1="120.00" y1="75" x2="120.00" y2="705" stroke="#dddddd" stroke-width="1"/>
<text x="120.00" y="737" text-anchor="middle" font-family="Arial" font-size="16" fill="black">-0.560</text>
<line x1="376.25" y1="75" x2="376.25" y2="705" stroke="#dddddd" stroke-width="1"/>
<text x="376.25" y="737" text-anchor="middle" font-family="Arial" font-size="16" fill="black">1.470</text>
<line x1="632.50" y1="75" x2="632.50" y2="705" stroke="#dddddd" stroke-width="1"/>
<text x="632.50" y="737" text-anchor="middle" font-family="Arial" font-size="16" fill="black">3.500</text>
<line x1="888.75" y1="75" x2="888.75" y2="705" stroke="#dddddd" stroke-width="1"/>
<text x="888.75" y="737" text-anchor="middle" font-family="Arial" font-size="16" fill="black">5.530</text>
<line x1="1145.00" y1="75" x2="1145.00" y2="705" stroke="#dddddd" stroke-width="1"/>
<text x="1145.00" y="737" text-anchor="middle" font-family="Arial" font-size="16" fill="black">7.560</text>
<line x1="120" y1="705.00" x2="1145" y2="705.00" stroke="#dddddd" stroke-width="1"/>
<text x="104" y="710.00" text-anchor="end" font-family="Arial" font-size="16" fill="black">296.7</text>
<line x1="120" y1="547.50" x2="1145" y2="547.50" stroke="#dddddd" stroke-width="1"/>
<text x="104" y="552.50" text-anchor="end" font-family="Arial" font-size="16" fill="black">302.9</text>
<line x1="120" y1="390.00" x2="1145" y2="390.00" stroke="#dddddd" stroke-width="1"/>
<text x="104" y="395.00" text-anchor="end" font-family="Arial" font-size="16" fill="black">309.1</text>
<line x1="120" y1="232.50" x2="1145" y2="232.50" stroke="#dddddd" stroke-width="1"/>
<text x="104" y="237.50" text-anchor="end" font-family="Arial" font-size="16" fill="black">315.3</text>
<line x1="120" y1="75.00" x2="1145" y2="75.00" stroke="#dddddd" stroke-width="1"/>
<text x="104" y="80.00" text-anchor="end" font-family="Arial" font-size="16" fill="black">321.6</text>
<rect x="120" y="75" width="1025" height="630" fill="none" stroke="black" stroke-width="2"/>
<text x="632.5" y="785" text-anchor="middle" font-family="Arial" font-size="20" fill="black">x coordinate [m]</text>
<text x="34" y="390.0" transform="rotate(-90 34 390.0)" text-anchor="middle" font-family="Arial" font-size="20" fill="black">T [K]</text>
<polyline points="190.69,118.45 193.64,118.45 196.58,118.70 199.53,118.96 202.47,118.96 205.42,119.21 208.36,119.46 211.31,119.97 214.25,120.22 217.20,120.48 220.14,120.73 223.09,120.98 226.03,121.24 228.98,121.49 231.93,122.00 234.87,122.25 237.82,122.76 240.76,123.01 243.71,123.77 246.65,124.28 249.60,125.04 252.54,125.80 255.49,126.81 258.43,128.08 261.38,129.35 264.32,130.61 267.27,132.13 270.22,134.67 273.16,136.95 276.11,139.23 279.05,141.51 282.00,145.31 284.94,149.37 287.89,153.17 290.83,156.97 293.78,162.29 296.72,168.12 299.67,173.95 302.62,179.53 305.56,186.11 308.51,193.46 311.45,200.81 314.40,208.16 317.34,215.77 320.29,223.62 323.23,231.73 326.17,239.59 329.13,247.70 332.07,255.30 335.01,262.65 337.96,270.25 340.91,277.60 343.85,284.70 346.80,291.29 349.74,297.88 352.68,304.21 355.64,310.30 358.58,315.36 361.52,320.43 364.47,325.25 367.41,330.32 370.35,332.60 373.31,334.88 376.25,336.91 379.19,339.19 382.15,339.44 385.09,338.68 388.03,337.92 390.98,337.16 393.92,335.64 396.86,333.10 399.82,330.57 402.76,328.29 405.70,325.50 408.65,322.21 411.59,318.91 414.54,315.62 417.49,312.32 420.43,308.78 423.37,305.23 426.33,301.68 429.27,298.13 432.21,294.84 435.16,291.29 438.10,287.99 441.04,284.45 444.00,281.40 446.94,278.36 449.88,275.58 452.83,272.79 455.78,269.75 458.72,267.72 461.67,265.69 464.61,263.66 467.55,261.64 470.51,260.37 473.45,259.36 476.39,258.34 479.34,257.33 482.28,256.82 485.23,257.08 488.18,257.08 491.12,257.33 494.06,257.58 497.02,258.85 499.96,260.12 502.90,261.38 505.85,262.65 508.79,264.68 511.73,266.96 514.69,269.24 517.63,271.52 520.57,274.31 523.52,277.35 526.47,280.39 529.41,283.43 532.36,286.73 535.30,290.02 538.24,293.57 541.20,297.12 544.14,300.67 547.08,304.21 550.03,307.76 552.97,311.31 555.92,314.86 558.87,318.15 561.81,321.19 564.75,324.49 567.71,327.53 570.65,330.32 573.59,332.60 576.54,334.88 579.48,336.91 582.42,338.93 585.38,339.44 588.32,339.95 591.26,340.45 594.21,340.96 597.16,339.44 600.10,337.41 603.05,335.39 605.99,333.36 608.93,329.81 611.89,324.99 614.83,320.43 617.77,315.62 620.72,310.55 623.66,304.47 626.60,298.13 629.56,292.05 632.50,285.71 635.44,279.88 638.40,274.06 641.34,268.23 644.28,262.40 647.23,257.58 650.17,253.27 653.11,248.71 656.07,244.40 659.01,240.60 661.95,237.81 664.90,234.77 667.84,231.99 670.79,229.20 673.74,227.42 676.68,225.65 679.62,223.88 682.58,222.10 685.52,221.09 688.46,219.82 691.41,218.81 694.35,217.79 697.29,217.03 700.25,216.53 703.19,215.77 706.13,215.26 709.08,214.50 712.03,214.25 714.97,213.99 717.92,213.49 720.86,213.23 723.80,212.98 726.76,212.72 729.70,212.47 732.64,212.22 735.59,212.22 738.53,212.22 741.48,211.96 744.43,211.96 747.37,211.96 750.31,211.96 753.27,211.96 756.21,211.96 759.15,211.96 762.10,211.96 765.04,211.96 767.98,212.22 770.94,212.22 773.88,212.47 776.82,212.72 779.77,213.23 782.72,213.49 785.66,213.99 788.61,214.75 791.55,215.51 794.49,216.27 797.45,217.29 800.39,219.06 803.33,220.58 806.28,222.36 809.22,224.13 812.17,227.93 815.12,231.48 818.06,235.28 821.00,238.83 823.96,245.16 826.90,252.26 829.84,259.61 832.79,266.96 835.73,276.34 838.67,288.75 841.63,301.17 844.57,313.84 847.51,327.02 850.46,344.51 853.41,362.00 856.35,379.48 859.30,396.97 862.24,415.98 865.18,434.98 868.14,453.99 871.08,473.00 874.02,489.98 876.97,505.44 879.91,520.90 882.85,536.36 885.81,548.27 888.75,551.82 891.69,555.36 894.65,558.91 897.59,562.46 900.53,551.06 903.48,539.65 906.42,528.25 909.36,516.84 912.32,502.14 915.26,485.92 918.20,469.70 921.15,453.74 924.09,438.79 927.04,425.35 929.99,411.92 932.93,398.49 935.87,385.56 938.83,375.17 941.77,364.78 944.71,354.65 947.66,344.26 950.60,336.91 953.54,330.06 956.50,322.97 959.44,316.12 962.38,311.31 965.33,307.76 968.28,304.47 971.22,301.17 974.17,298.64 977.11,298.89 980.05,299.14 983.01,299.40 985.95,299.65 988.89,303.45 991.84,307.51 994.78,311.31 997.73,315.36 1000.68,321.95 1003.62,329.81 1006.56,337.67 1009.52,345.27 1012.46,354.90 1015.40,366.56 1018.35,378.47 1021.29,390.13 1024.23,402.54 1027.19,418.00 1030.13,433.46 1033.07,449.18 1036.02,464.64 1038.97,482.63 1041.91,500.88 1044.86,519.12 1047.80,537.62 1050.74,555.87 1053.70,574.37 1056.64,592.62 1059.58,611.12 1062.53,626.83 1065.47,635.45 1068.42,644.06 1071.37,652.68 1074.31,661.55" fill="none" stroke="#000000" stroke-width="3"/>
<line x1="142" y1="100" x2="178" y2="100" stroke="#000000" stroke-width="4"/>
<text x="188" y="105" font-family="Arial" font-size="18" fill="black">T</text>
</svg>