<svg xmlns="http://www.w3.org/2000/svg" width="1200" height="820" viewBox="0 0 1200 820">
<rect width="100%" height="100%" fill="white"/>
<text x="600.0" y="36" text-anchor="middle" font-family="Arial" font-size="24" fill="black">profile_diagonal_supply_return: velocity magnitude</text>
<line x1="120.00" y1="75" x2="120.00" y2="705" stroke="#dddddd" stroke-width="1"/>
<text x="120.00" y="737" text-anchor="middle" font-family="Arial" font-size="16" fill="black">-0.729</text>
<line x1="376.25" y1="75" x2="376.25" y2="705" stroke="#dddddd" stroke-width="1"/>
<text x="376.25" y="737" text-anchor="middle" font-family="Arial" font-size="16" fill="black">1.913</text>
<line x1="632.50" y1="75" x2="632.50" y2="705" stroke="#dddddd" stroke-width="1"/>
<text x="632.50" y="737" text-anchor="middle" font-family="Arial" font-size="16" fill="black">4.555</text>
<line x1="888.75" y1="75" x2="888.75" y2="705" stroke="#dddddd" stroke-width="1"/>
<text x="888.75" y="737" text-anchor="middle" font-family="Arial" font-size="16" fill="black">7.197</text>
<line x1="1145.00" y1="75" x2="1145.00" y2="705" stroke="#dddddd" stroke-width="1"/>
<text x="1145.00" y="737" text-anchor="middle" font-family="Arial" font-size="16" fill="black">9.839</text>
<line x1="120" y1="705.00" x2="1145" y2="705.00" stroke="#dddddd" stroke-width="1"/>
<text x="104" y="710.00" text-anchor="end" font-family="Arial" font-size="16" fill="black">0.070</text>
<line x1="120" y1="547.50" x2="1145" y2="547.50" stroke="#dddddd" stroke-width="1"/>
<text x="104" y="552.50" text-anchor="end" font-family="Arial" font-size="16" fill="black">0.173</text>
<line x1="120" y1="390.00" x2="1145" y2="390.00" stroke="#dddddd" stroke-width="1"/>
<text x="104" y="395.00" text-anchor="end" font-family="Arial" font-size="16" fill="black">0.276</text>
<line x1="120" y1="232.50" x2="1145" y2="232.50" stroke="#dddddd" stroke-width="1"/>
<text x="104" y="237.50" text-anchor="end" font-family="Arial" font-size="16" fill="black">0.380</text>
<line x1="120" y1="75.00" x2="1145" y2="75.00" stroke="#dddddd" stroke-width="1"/>
<text x="104" y="80.00" text-anchor="end" font-family="Arial" font-size="16" fill="black">0.483</text>
<rect x="120" y="75" width="1025" height="630" fill="none" stroke="black" stroke-width="2"/>
<text x="632.5" y="785" text-anchor="middle" font-family="Arial" font-size="20" fill="black">distance along sample line [m]</text>
<text x="34" y="390.0" transform="rotate(-90 34 390.0)" text-anchor="middle" font-family="Arial" font-size="20" fill="black">|U| [m/s]</text>
<polyline points="190.69,482.53 193.64,471.76 196.58,464.47 199.53,460.67 202.47,460.28 205.42,451.34 208.36,442.03 211.31,439.78 214.25,448.46 217.20,462.31 220.14,475.85 223.09,494.97 226.03,519.47 228.98,540.14 231.93,556.87 234.87,574.57 237.82,593.25 240.76,612.93 243.71,624.26 246.65,616.72 249.60,610.05 252.54,604.23 255.49,598.56 258.43,593.26 261.38,588.55 264.32,574.92 267.27,562.49 270.22,549.51 273.16,538.16 276.11,528.40 279.05,520.15 282.00,503.99 284.94,488.97 287.88,475.21 290.83,462.83 293.78,448.89 296.73,434.48 299.67,418.24 302.62,403.28 305.57,388.67 308.50,373.31 311.45,356.33 314.40,339.83 317.34,322.52 320.29,305.99 323.24,289.45 326.18,273.07 329.12,257.00 332.07,244.24 335.01,230.95 337.96,217.55 340.91,202.19 343.85,189.79 346.80,179.13 349.74,167.96 352.68,156.93 355.63,147.45 358.58,141.65 361.53,135.37 364.47,128.75 367.42,121.89 370.36,121.94 373.30,121.28 376.25,120.08 379.20,118.45 382.14,123.51 385.09,130.74 388.04,140.17 390.97,149.02 393.92,163.24 396.87,185.33 399.81,206.32 402.76,227.07 405.71,250.12 408.65,277.95 411.59,306.60 414.54,336.20 417.48,366.78 420.43,381.57 423.38,394.23 426.32,407.12 429.27,418.63 432.21,421.56 435.16,417.69 438.10,413.76 441.05,410.10 444.00,406.80 446.94,404.27 449.89,401.63 452.84,398.88 455.77,396.00 458.72,396.45 461.67,397.05 464.61,397.81 467.56,398.78 470.51,398.68 473.45,398.27 476.39,398.77 479.34,399.55 482.28,399.36 485.23,397.81 488.18,395.81 491.12,394.00 494.07,392.46 497.01,389.00 499.96,385.90 502.90,383.15 505.85,380.78 508.80,377.41 511.74,374.75 514.69,372.63 517.63,367.05 520.57,361.43 523.52,356.01 526.47,351.09 529.41,347.26 532.36,343.85 535.31,340.64 538.24,337.86 541.19,335.55 544.14,333.64 547.08,327.70 550.03,322.23 552.98,317.15 555.92,312.33 558.86,306.92 561.81,301.20 564.76,295.77 567.70,290.20 570.65,284.00 573.60,276.85 576.54,268.53 579.49,260.20 582.43,252.39 585.37,245.04 588.32,237.62 591.27,230.07 594.21,222.33 597.16,216.28 600.11,210.66 603.04,204.78 605.99,200.44 608.94,197.47 611.88,195.40 614.83,193.19 617.78,190.57 620.72,188.02 623.66,185.84 626.61,183.36 629.55,180.57 632.50,177.50 635.45,174.94 638.40,172.04 641.34,168.80 644.28,165.22 647.23,161.10 650.17,156.58 653.12,151.38 656.07,145.95 659.01,140.95 661.96,136.77 664.90,133.79 667.84,130.71 670.79,128.93 673.74,130.41 676.68,132.24 679.63,134.47 682.58,137.17 685.51,143.97 688.46,153.56 691.41,163.59 694.35,174.62 697.30,187.69 700.25,202.40 703.20,217.70 706.14,234.27 709.08,250.95 712.03,267.86 714.97,284.79 717.92,301.77 720.87,318.84 723.81,334.39 726.76,349.50 729.70,364.16 732.64,378.39 735.59,390.80 738.54,402.32 741.48,412.68 744.43,422.29 747.38,430.55 750.31,437.48 753.26,444.75 756.21,451.75 759.15,457.86 762.10,462.90 765.05,467.73 767.99,472.37 770.93,476.90 773.88,481.40 776.83,485.86 779.77,490.30 782.72,495.34 785.67,500.33 788.61,505.62 791.55,511.56 794.50,517.09 797.44,522.06 800.39,525.68 803.34,530.47 806.28,536.64 809.23,544.45 812.17,541.85 815.11,541.12 818.06,542.47 821.01,546.08 823.95,543.25 826.90,538.92 829.85,532.66 832.79,529.54 835.73,525.00 838.68,516.95 841.63,510.74 844.57,506.75 847.52,501.40 850.47,496.60 853.41,494.41 856.35,494.58 859.30,496.83 862.24,504.27 865.19,511.35 868.14,520.70 871.08,531.49 874.03,547.62 876.97,566.91 879.91,586.00 882.86,602.69 885.81,620.12 888.75,637.38 891.70,650.47 894.65,658.74 897.58,661.55 900.53,647.91 903.48,631.59 906.43,612.96 909.37,592.33 912.32,571.60 915.27,551.51 918.20,535.53 921.15,520.31 924.10,507.89 927.04,498.90 929.99,490.02 932.94,481.49 935.88,477.09 938.82,475.05 941.77,472.85 944.71,470.45 947.66,467.83 950.61,465.86 953.55,467.31 956.50,468.63 959.44,468.72 962.38,468.60 965.33,468.18 968.28,467.28 971.22,468.47 974.17,469.46 977.12,469.90 980.06,469.97 983.00,469.70 985.95,469.09 988.90,462.17 991.84,455.76 994.79,449.67 997.74,443.74 1000.68,438.99 1003.62,435.18 1006.57,431.61 1009.51,429.24 1012.46,428.95 1015.41,431.31 1018.35,429.56 1021.30,429.92 1024.24,432.22 1027.18,437.17 1030.13,444.50 1033.08,454.25 1036.02,466.44 1038.97,478.85 1041.92,492.06 1044.86,507.54 1047.80,525.91 1050.75,544.57 1053.70,563.81 1056.64,583.86 1059.59,599.74 1062.54,612.49 1065.47,617.24 1068.42,622.19 1071.37,627.11 1074.31,631.71" fill="none" stroke="#000000" stroke-width="3"/>
<line x1="142" y1="100" x2="178" y2="100" stroke="#000000" stroke-width="4"/>
<text x="188" y="105" font-family="Arial" font-size="18" fill="black">|U|</text>
</svg>