<svg xmlns="http://www.w3.org/2000/svg" width="1200" height="820" viewBox="0 0 1200 820">
<rect width="100%" height="100%" fill="white"/>
<text x="600.0" y="36" text-anchor="middle" font-family="Arial" font-size="24" fill="black">profile_center_z: vorticity:1</text>
<line x1="120.00" y1="75" x2="120.00" y2="705" stroke="#dddddd" stroke-width="1"/>
<text x="120.00" y="737" text-anchor="middle" font-family="Arial" font-size="16" fill="black">-0.240</text>
<line x1="376.25" y1="75" x2="376.25" y2="705" stroke="#dddddd" stroke-width="1"/>
<text x="376.25" y="737" text-anchor="middle" font-family="Arial" font-size="16" fill="black">0.630</text>
<line x1="632.50" y1="75" x2="632.50" y2="705" stroke="#dddddd" stroke-width="1"/>
<text x="632.50" y="737" text-anchor="middle" font-family="Arial" font-size="16" fill="black">1.500</text>
<line x1="888.75" y1="75" x2="888.75" y2="705" stroke="#dddddd" stroke-width="1"/>
<text x="888.75" y="737" text-anchor="middle" font-family="Arial" font-size="16" fill="black">2.370</text>
<line x1="1145.00" y1="75" x2="1145.00" y2="705" stroke="#dddddd" stroke-width="1"/>
<text x="1145.00" y="737" text-anchor="middle" font-family="Arial" font-size="16" fill="black">3.240</text>
<line x1="120" y1="705.00" x2="1145" y2="705.00" stroke="#dddddd" stroke-width="1"/>
<text x="104" y="710.00" text-anchor="end" font-family="Arial" font-size="16" fill="black">-0.329</text>
<line x1="120" y1="547.50" x2="1145" y2="547.50" stroke="#dddddd" stroke-width="1"/>
<text x="104" y="552.50" text-anchor="end" font-family="Arial" font-size="16" fill="black">-0.217</text>
<line x1="120" y1="390.00" x2="1145" y2="390.00" stroke="#dddddd" stroke-width="1"/>
<text x="104" y="395.00" text-anchor="end" font-family="Arial" font-size="16" fill="black">-0.104</text>
<line x1="120" y1="232.50" x2="1145" y2="232.50" stroke="#dddddd" stroke-width="1"/>
<text x="104" y="237.50" text-anchor="end" font-family="Arial" font-size="16" fill="black">0.009</text>
<line x1="120" y1="75.00" x2="1145" y2="75.00" stroke="#dddddd" stroke-width="1"/>
<text x="104" y="80.00" text-anchor="end" font-family="Arial" font-size="16" fill="black">0.122</text>
<rect x="120" y="75" width="1025" height="630" fill="none" stroke="black" stroke-width="2"/>
<text x="632.5" y="785" text-anchor="middle" font-family="Arial" font-size="20" fill="black">z coordinate [m]</text>
<text x="34" y="390.0" transform="rotate(-90 34 390.0)" text-anchor="middle" font-family="Arial" font-size="20" fill="black">vorticity:1 [SI]</text>
<polyline points="190.69,161.31 193.64,162.70 196.58,164.09 199.53,165.49 202.47,166.88 205.42,168.27 208.36,169.66 211.31,171.06 214.25,172.45 217.20,173.84 220.14,175.23 223.09,176.60 226.03,177.96 228.98,179.33 231.93,180.69 234.87,182.06 237.82,183.42 240.76,184.79 243.71,186.15 246.65,187.52 249.60,188.88 252.54,188.78 255.49,188.68 258.43,188.57 261.38,188.47 264.32,188.37 267.27,188.26 270.22,188.16 273.16,188.06 276.11,187.95 279.05,187.85 282.00,187.59 284.94,187.34 287.89,187.08 290.83,186.82 293.78,186.57 296.72,186.31 299.67,186.06 302.61,185.80 305.56,185.54 308.51,185.29 311.45,184.65 314.40,184.01 317.34,183.37 320.29,182.73 323.23,182.09 326.18,181.45 329.12,180.81 332.07,180.17 335.01,179.53 337.96,178.89 340.91,177.48 343.85,176.06 346.80,174.64 349.74,173.23 352.69,171.81 355.63,170.39 358.58,168.97 361.52,167.56 364.47,166.14 367.41,164.72 370.36,167.01 373.30,169.29 376.25,171.57 379.20,173.86 382.14,176.14 385.09,178.42 388.03,180.71 390.98,182.99 393.92,185.27 396.87,187.56 399.81,208.01 402.76,228.47 405.70,248.93 408.65,269.39 411.59,289.84 414.54,310.30 417.49,330.76 420.43,351.22 423.38,371.67 426.32,392.13 429.27,419.07 432.21,446.02 435.16,472.95 438.10,499.90 441.05,526.84 443.99,553.78 446.94,580.73 449.89,607.67 452.83,634.62 455.78,661.55 458.72,659.78 461.67,658.00 464.61,656.24 467.56,654.47 470.50,652.69 473.45,650.92 476.39,649.15 479.34,647.37 482.28,645.60 485.23,643.82 488.18,625.69 491.12,607.56 494.07,589.41 497.01,571.28 499.96,553.13 502.90,534.99 505.85,516.85 508.79,498.71 511.74,480.58 514.68,462.43 517.63,450.98 520.57,439.52 523.52,428.08 526.47,416.62 529.41,405.17 532.36,393.71 535.30,382.26 538.25,370.81 541.19,359.35 544.14,347.90 547.08,339.34 550.03,330.79 552.97,322.23 555.92,313.68 558.86,305.12 561.81,296.57 564.76,288.01 567.70,279.46 570.65,270.90 573.59,262.35 576.54,255.83 579.48,249.32 582.43,242.81 585.37,236.29 588.32,229.78 591.26,223.26 594.21,216.75 597.16,210.23 600.10,203.72 603.05,197.20 605.99,192.66 608.94,188.11 611.88,183.56 614.83,179.01 617.77,174.46 620.72,169.91 623.66,165.37 626.61,160.82 629.55,156.27 632.50,151.72 635.45,149.13 638.39,146.54 641.34,143.95 644.28,141.35 647.23,138.76 650.17,136.17 653.12,133.58 656.06,130.99 659.01,128.39 661.95,125.80 664.90,125.07 667.84,124.33 670.79,123.60 673.74,122.86 676.68,122.13 679.63,121.39 682.57,120.65 685.52,119.92 688.46,119.18 691.41,118.45 694.35,119.37 697.30,120.30 700.24,121.22 703.19,122.14 706.14,123.07 709.08,123.99 712.03,124.92 714.97,125.84 717.92,126.77 720.86,127.69 723.81,129.80 726.75,131.91 729.70,134.03 732.64,136.14 735.59,138.25 738.53,140.36 741.48,142.47 744.43,144.58 747.37,146.70 750.32,148.81 753.26,151.45 756.21,154.10 759.15,156.75 762.10,159.39 765.04,162.04 767.99,164.69 770.93,167.33 773.88,169.98 776.82,172.63 779.77,175.27 782.72,177.84 785.66,180.41 788.61,182.98 791.55,185.55 794.50,188.12 797.44,190.69 800.39,193.26 803.33,195.83 806.28,198.40 809.22,200.97 812.17,203.07 815.11,205.17 818.06,207.26 821.01,209.36 823.95,211.46 826.90,213.55 829.84,215.65 832.79,217.74 835.73,219.84 838.68,221.94 841.62,223.45 844.57,224.96 847.51,226.48 850.46,227.99 853.41,229.50 856.35,231.02 859.30,232.53 862.24,234.04 865.19,235.56 868.13,237.07 871.08,237.95 874.02,238.82 876.97,239.70 879.91,240.57 882.86,241.45 885.80,242.33 888.75,243.20 891.70,244.08 894.64,244.95 897.59,245.83 900.53,245.80 903.48,245.77 906.42,245.75 909.37,245.72 912.31,245.69 915.26,245.66 918.20,245.63 921.15,245.61 924.09,245.58 927.04,245.55 929.99,244.27 932.93,242.99 935.88,241.71 938.82,240.43 941.77,239.15 944.71,237.87 947.66,236.59 950.60,235.31 953.55,234.03 956.49,232.75 959.44,230.14 962.39,227.54 965.33,224.94 968.28,222.34 971.22,219.74 974.17,217.14 977.11,214.53 980.06,211.93 983.00,209.33 985.95,206.73 988.89,202.20 991.84,197.68 994.78,193.16 997.73,188.63 1000.68,184.11 1003.62,179.59 1006.57,175.06 1009.51,170.54 1012.46,166.01 1015.40,161.49 1018.35,162.96 1021.29,164.43 1024.24,165.90 1027.18,167.37 1030.13,168.84 1033.07,170.31 1036.02,171.78 1038.97,173.25 1041.91,174.72 1044.86,176.19 1047.80,180.56 1050.75,184.94 1053.69,189.32 1056.64,193.70 1059.58,198.07 1062.53,202.45 1065.47,206.83 1068.42,211.21 1071.36,215.58 1074.31,219.96" fill="none" stroke="#000000" stroke-width="3"/>
<line x1="142" y1="100" x2="178" y2="100" stroke="#000000" stroke-width="4"/>
<text x="188" y="105" font-family="Arial" font-size="18" fill="black">vorticity:1</text>
</svg>