<svg xmlns="http://www.w3.org/2000/svg" width="1200" height="820" viewBox="0 0 1200 820">
<rect width="100%" height="100%" fill="white"/>
<text x="600.0" y="36" text-anchor="middle" font-family="Arial" font-size="24" fill="black">profile_diagonal_supply_return: T</text>
<line x1="120.00" y1="75" x2="120.00" y2="705" stroke="#dddddd" stroke-width="1"/>
<text x="120.00" y="737" text-anchor="middle" font-family="Arial" font-size="16" fill="black">-0.729</text>
<line x1="376.25" y1="75" x2="376.25" y2="705" stroke="#dddddd" stroke-width="1"/>
<text x="376.25" y="737" text-anchor="middle" font-family="Arial" font-size="16" fill="black">1.913</text>
<line x1="632.50" y1="75" x2="632.50" y2="705" stroke="#dddddd" stroke-width="1"/>
<text x="632.50" y="737" text-anchor="middle" font-family="Arial" font-size="16" fill="black">4.555</text>
<line x1="888.75" y1="75" x2="888.75" y2="705" stroke="#dddddd" stroke-width="1"/>
<text x="888.75" y="737" text-anchor="middle" font-family="Arial" font-size="16" fill="black">7.197</text>
<line x1="1145.00" y1="75" x2="1145.00" y2="705" stroke="#dddddd" stroke-width="1"/>
<text x="1145.00" y="737" text-anchor="middle" font-family="Arial" font-size="16" fill="black">9.839</text>
<line x1="120" y1="705.00" x2="1145" y2="705.00" stroke="#dddddd" stroke-width="1"/>
<text x="104" y="710.00" text-anchor="end" font-family="Arial" font-size="16" fill="black">300.3</text>
<line x1="120" y1="547.50" x2="1145" y2="547.50" stroke="#dddddd" stroke-width="1"/>
<text x="104" y="552.50" text-anchor="end" font-family="Arial" font-size="16" fill="black">304.6</text>
<line x1="120" y1="390.00" x2="1145" y2="390.00" stroke="#dddddd" stroke-width="1"/>
<text x="104" y="395.00" text-anchor="end" font-family="Arial" font-size="16" fill="black">308.9</text>
<line x1="120" y1="232.50" x2="1145" y2="232.50" stroke="#dddddd" stroke-width="1"/>
<text x="104" y="237.50" text-anchor="end" font-family="Arial" font-size="16" fill="black">313.2</text>
<line x1="120" y1="75.00" x2="1145" y2="75.00" stroke="#dddddd" stroke-width="1"/>
<text x="104" y="80.00" text-anchor="end" font-family="Arial" font-size="16" fill="black">317.4</text>
<rect x="120" y="75" width="1025" height="630" fill="none" stroke="black" stroke-width="2"/>
<text x="632.5" y="785" text-anchor="middle" font-family="Arial" font-size="20" fill="black">distance along sample line [m]</text>
<text x="34" y="390.0" transform="rotate(-90 34 390.0)" text-anchor="middle" font-family="Arial" font-size="20" fill="black">T [K]</text>
<polyline points="190.69,621.53 193.64,618.59 196.58,614.55 199.53,609.41 202.47,603.53 205.42,595.45 208.36,585.17 211.31,569.75 214.25,551.76 217.20,531.56 220.14,509.89 223.09,485.66 226.03,459.22 228.98,444.90 231.93,434.62 234.87,423.23 237.82,411.48 240.76,399.00 243.71,386.88 246.65,383.21 249.60,378.43 252.54,372.19 255.49,365.21 258.43,356.03 261.38,344.28 264.32,334.73 267.27,326.66 270.22,322.62 273.16,315.64 276.11,306.09 279.05,293.61 282.00,296.18 284.94,296.18 287.88,293.61 290.83,288.47 293.78,289.94 296.73,292.14 299.67,293.61 302.62,292.14 305.57,292.14 308.50,294.71 311.45,296.91 314.40,296.55 317.34,296.18 320.29,299.85 323.24,301.69 326.18,301.32 329.12,298.75 332.07,300.22 335.01,302.05 337.96,302.05 340.91,302.05 343.85,304.26 346.80,308.30 349.74,311.60 352.68,313.80 355.63,316.37 358.58,321.88 361.53,328.13 364.47,335.10 367.42,342.45 370.36,355.30 373.30,369.25 376.25,383.94 379.20,399.73 382.14,412.22 385.09,424.33 388.04,443.80 390.97,464.73 393.92,483.45 396.87,498.51 399.81,513.20 402.76,528.62 405.71,546.62 408.65,564.61 411.59,582.60 414.54,600.59 417.48,618.96 420.43,630.34 423.38,641.36 426.32,652.00 429.27,660.82 432.21,661.55 435.16,655.68 438.10,649.07 441.05,642.09 444.00,634.01 446.94,623.73 449.89,612.71 452.84,600.59 455.77,587.01 458.72,577.46 461.67,567.18 464.61,556.16 467.56,544.41 470.51,534.86 473.45,526.05 476.39,516.50 479.34,506.59 482.28,497.04 485.23,488.60 488.18,480.88 491.12,472.81 494.07,464.36 497.01,457.38 499.96,450.41 502.90,443.06 505.85,436.08 508.80,429.11 511.74,422.13 514.69,415.15 517.63,409.65 520.57,404.14 523.52,398.63 526.47,393.49 529.41,388.35 532.36,383.21 535.31,377.33 538.24,372.19 541.19,367.78 544.14,363.74 547.08,357.87 550.03,353.10 552.98,349.06 555.92,345.75 558.86,341.34 561.81,336.94 564.76,332.53 567.70,328.86 570.65,324.82 573.60,320.05 576.54,316.74 579.49,314.17 582.43,310.87 585.37,305.73 588.32,301.69 591.27,298.38 594.21,296.18 597.16,292.14 600.11,287.00 603.04,282.59 605.99,278.55 608.94,274.15 611.88,269.00 614.83,264.23 617.78,258.72 620.72,253.21 623.66,246.97 626.61,241.10 629.55,234.85 632.50,228.98 635.45,222.74 638.40,215.76 641.34,209.15 644.28,202.54 647.23,196.66 650.17,191.52 653.12,185.28 656.07,178.67 659.01,173.16 661.96,168.76 664.90,164.35 667.84,159.94 670.79,154.43 673.74,151.13 676.68,147.46 679.63,144.15 682.58,140.85 685.51,139.01 688.46,136.07 691.41,133.50 694.35,130.93 697.30,129.46 700.25,128.36 703.20,127.63 706.14,125.43 709.08,123.59 712.03,122.85 714.97,122.12 717.92,121.39 720.87,121.39 723.81,119.92 726.76,119.18 729.70,118.45 732.64,118.45 735.59,118.82 738.54,119.92 741.48,119.55 744.43,119.55 747.38,120.28 750.31,121.39 753.26,122.85 756.21,125.06 759.15,126.53 762.10,127.63 765.05,129.83 767.99,132.04 770.93,134.61 773.88,137.18 776.83,139.01 779.77,141.22 782.72,144.15 785.67,146.72 788.61,148.56 791.55,151.13 794.50,153.70 797.44,155.90 800.39,156.64 803.34,158.11 806.28,159.58 809.23,161.78 812.17,161.04 815.11,160.68 818.06,161.04 821.01,161.78 823.95,159.94 826.90,157.01 829.85,155.17 832.79,153.70 835.73,150.76 838.68,145.62 841.63,141.95 844.57,139.38 847.52,137.91 850.47,137.54 853.41,137.91 856.35,139.75 859.30,143.05 862.24,149.29 865.19,156.64 868.14,165.08 871.08,173.16 874.03,183.81 876.97,196.30 879.91,208.78 882.86,220.90 885.81,234.49 888.75,249.91 891.70,265.33 894.65,280.76 897.58,295.81 900.53,308.30 903.48,320.05 906.43,331.43 909.37,342.08 912.32,352.36 915.27,361.91 918.20,369.25 921.15,376.60 924.10,383.94 927.04,390.55 929.99,396.06 932.94,401.93 935.88,405.97 938.82,409.28 941.77,412.95 944.71,416.26 947.66,419.93 950.61,422.50 953.55,422.87 956.50,423.60 959.44,423.23 962.38,422.87 965.33,421.76 968.28,421.03 971.22,418.83 974.17,416.99 977.12,414.79 980.06,412.58 983.00,410.75 985.95,409.28 988.90,407.81 991.84,407.08 994.79,406.34 997.74,406.34 1000.68,405.97 1003.62,405.61 1006.57,406.34 1009.51,406.71 1012.46,406.71 1015.41,406.34 1018.35,406.34 1021.30,406.34 1024.24,407.08 1027.18,407.08 1030.13,407.08 1033.08,407.08 1036.02,407.08 1038.97,406.34 1041.92,406.71 1044.86,407.08 1047.80,407.08 1050.75,406.71 1053.70,405.97 1056.64,405.61 1059.59,405.24 1062.54,405.24 1065.47,405.24 1068.42,405.61 1071.37,405.61 1074.31,405.61" fill="none" stroke="#000000" stroke-width="3"/>
<line x1="142" y1="100" x2="178" y2="100" stroke="#000000" stroke-width="4"/>
<text x="188" y="105" font-family="Arial" font-size="18" fill="black">T</text>
</svg>