<svg xmlns="http://www.w3.org/2000/svg" width="1200" height="820" viewBox="0 0 1200 820">
<rect width="100%" height="100%" fill="white"/>
<text x="600.0" y="36" text-anchor="middle" font-family="Arial" font-size="24" fill="black">profile_center_y: vorticity:2</text>
<line x1="120.00" y1="75" x2="120.00" y2="705" stroke="#dddddd" stroke-width="1"/>
<text x="120.00" y="737" text-anchor="middle" font-family="Arial" font-size="16" fill="black">-0.400</text>
<line x1="376.25" y1="75" x2="376.25" y2="705" stroke="#dddddd" stroke-width="1"/>
<text x="376.25" y="737" text-anchor="middle" font-family="Arial" font-size="16" fill="black">1.050</text>
<line x1="632.50" y1="75" x2="632.50" y2="705" stroke="#dddddd" stroke-width="1"/>
<text x="632.50" y="737" text-anchor="middle" font-family="Arial" font-size="16" fill="black">2.500</text>
<line x1="888.75" y1="75" x2="888.75" y2="705" stroke="#dddddd" stroke-width="1"/>
<text x="888.75" y="737" text-anchor="middle" font-family="Arial" font-size="16" fill="black">3.950</text>
<line x1="1145.00" y1="75" x2="1145.00" y2="705" stroke="#dddddd" stroke-width="1"/>
<text x="1145.00" y="737" text-anchor="middle" font-family="Arial" font-size="16" fill="black">5.400</text>
<line x1="120" y1="705.00" x2="1145" y2="705.00" stroke="#dddddd" stroke-width="1"/>
<text x="104" y="710.00" text-anchor="end" font-family="Arial" font-size="16" fill="black">-0.694</text>
<line x1="120" y1="547.50" x2="1145" y2="547.50" stroke="#dddddd" stroke-width="1"/>
<text x="104" y="552.50" text-anchor="end" font-family="Arial" font-size="16" fill="black">-0.286</text>
<line x1="120" y1="390.00" x2="1145" y2="390.00" stroke="#dddddd" stroke-width="1"/>
<text x="104" y="395.00" text-anchor="end" font-family="Arial" font-size="16" fill="black">0.122</text>
<line x1="120" y1="232.50" x2="1145" y2="232.50" stroke="#dddddd" stroke-width="1"/>
<text x="104" y="237.50" text-anchor="end" font-family="Arial" font-size="16" fill="black">0.529</text>
<line x1="120" y1="75.00" x2="1145" y2="75.00" stroke="#dddddd" stroke-width="1"/>
<text x="104" y="80.00" text-anchor="end" font-family="Arial" font-size="16" fill="black">0.937</text>
<rect x="120" y="75" width="1025" height="630" fill="none" stroke="black" stroke-width="2"/>
<text x="632.5" y="785" text-anchor="middle" font-family="Arial" font-size="20" fill="black">y coordinate [m]</text>
<text x="34" y="390.0" transform="rotate(-90 34 390.0)" text-anchor="middle" font-family="Arial" font-size="20" fill="black">vorticity:2 [SI]</text>
<polyline points="190.69,296.55 193.64,292.33 196.58,288.12 199.53,283.91 202.47,279.69 205.42,275.48 208.36,271.27 211.31,269.38 214.25,267.51 217.20,265.62 220.14,263.74 223.09,261.86 226.03,259.98 228.98,264.87 231.92,269.76 234.87,274.64 237.82,279.53 240.76,284.42 243.71,289.30 246.65,294.82 249.60,300.33 252.54,305.84 255.49,311.35 258.43,316.86 261.38,322.38 264.33,327.54 267.27,332.71 270.22,337.87 273.16,343.04 276.11,348.20 279.05,353.37 282.00,355.81 284.94,358.25 287.89,360.70 290.83,363.14 293.78,365.58 296.72,368.02 299.67,365.99 302.61,363.95 305.56,361.92 308.51,359.88 311.45,357.85 314.40,355.82 317.34,349.34 320.29,342.86 323.23,336.38 326.18,329.90 329.12,323.42 332.07,316.95 335.01,307.86 337.96,298.77 340.91,289.68 343.85,280.59 346.80,271.51 349.74,262.42 352.69,253.36 355.63,244.30 358.58,235.24 361.52,226.19 364.47,217.13 367.41,208.07 370.37,201.41 373.30,194.75 376.25,188.09 379.20,181.43 382.13,174.77 385.09,168.11 388.04,165.20 390.97,162.30 393.92,159.39 396.87,156.49 399.81,153.58 402.76,150.68 405.71,151.62 408.64,152.57 411.59,153.51 414.55,154.46 417.48,155.40 420.43,156.35 423.38,160.48 426.32,164.61 429.27,168.74 432.22,172.86 435.15,177.00 438.10,181.12 441.05,187.64 443.99,194.15 446.94,200.66 449.89,207.17 452.82,213.69 455.78,220.20 458.73,228.34 461.66,236.48 464.61,244.62 467.56,252.75 470.50,260.89 473.45,269.03 476.40,278.09 479.33,287.15 482.28,296.21 485.24,305.27 488.17,314.33 491.12,323.39 494.07,332.70 497.01,342.00 499.96,351.32 502.91,360.63 505.84,369.94 508.79,379.25 511.74,388.29 514.68,397.33 517.63,406.36 520.58,415.40 523.51,424.44 526.47,433.48 529.42,441.69 532.35,449.89 535.30,458.09 538.25,466.29 541.19,474.50 544.14,482.70 547.09,489.27 550.02,495.84 552.97,502.42 555.93,508.99 558.86,515.56 561.81,522.14 564.76,526.35 567.70,530.56 570.65,534.77 573.60,538.99 576.53,543.20 579.48,547.42 582.43,548.81 585.37,550.21 588.32,551.61 591.27,553.00 594.20,554.40 597.16,555.79 600.11,554.33 603.04,552.87 605.99,551.40 608.94,549.93 611.88,548.47 614.83,547.00 617.78,543.14 620.71,539.27 623.66,535.41 626.62,531.55 629.55,527.68 632.50,523.82 635.45,518.53 638.38,513.25 641.34,507.97 644.29,502.68 647.22,497.40 650.17,492.12 653.12,486.78 656.06,481.45 659.01,476.12 661.96,470.78 664.89,465.45 667.84,460.12 670.80,456.42 673.73,452.73 676.68,449.04 679.63,445.34 682.57,441.65 685.52,437.96 688.47,437.31 691.40,436.65 694.35,436.00 697.30,435.35 700.24,434.70 703.19,434.04 706.14,437.65 709.07,441.26 712.03,444.86 714.98,448.47 717.91,452.07 720.86,455.68 723.81,464.13 726.75,472.57 729.70,481.02 732.65,489.47 735.58,497.92 738.53,506.36 741.49,517.87 744.42,529.37 747.37,540.87 750.32,552.37 753.26,563.88 756.21,575.38 759.16,585.58 762.09,595.79 765.04,605.99 767.99,616.19 770.93,626.39 773.88,636.60 776.83,640.76 779.76,644.91 782.72,649.07 785.67,653.23 788.60,657.39 791.55,661.55 794.50,656.64 797.44,651.73 800.39,646.82 803.34,641.91 806.27,637.00 809.22,632.09 812.18,619.28 815.11,606.47 818.06,593.66 821.01,580.85 823.95,568.04 826.90,555.23 829.85,540.66 832.78,526.09 835.73,511.51 838.68,496.94 841.62,482.37 844.57,467.79 847.52,456.83 850.45,445.88 853.41,434.92 856.36,423.96 859.29,413.00 862.24,402.04 865.19,396.08 868.13,390.11 871.08,384.15 874.03,378.19 876.96,372.23 879.91,366.26 882.87,364.31 885.80,362.36 888.75,360.41 891.70,358.46 894.63,356.50 897.59,354.55 900.54,354.52 903.47,354.49 906.42,354.46 909.37,354.43 912.31,354.40 915.26,354.37 918.21,354.43 921.14,354.50 924.09,354.57 927.05,354.63 929.98,354.69 932.93,354.76 935.88,353.94 938.82,353.11 941.77,352.29 944.72,351.47 947.65,350.65 950.60,349.82 953.55,347.77 956.49,345.71 959.44,343.66 962.39,341.61 965.32,339.55 968.28,337.50 971.23,334.31 974.16,331.13 977.11,327.94 980.06,324.75 983.00,321.56 985.95,318.38 988.90,314.09 991.83,309.81 994.78,305.53 997.74,301.25 1000.67,296.96 1003.62,292.68 1006.57,286.53 1009.51,280.39 1012.46,274.24 1015.41,268.09 1018.34,261.95 1021.29,255.80 1024.24,245.89 1027.18,235.99 1030.13,226.08 1033.08,216.18 1036.01,206.27 1038.97,196.36 1041.92,186.77 1044.85,177.19 1047.80,167.60 1050.75,158.01 1053.69,148.42 1056.64,138.83 1059.59,135.43 1062.52,132.03 1065.47,128.64 1068.43,125.24 1071.36,121.85 1074.31,118.45" fill="none" stroke="#000000" stroke-width="3"/>
<line x1="142" y1="100" x2="178" y2="100" stroke="#000000" stroke-width="4"/>
<text x="188" y="105" font-family="Arial" font-size="18" fill="black">vorticity:2</text>
</svg>