<svg xmlns="http://www.w3.org/2000/svg" width="1200" height="820" viewBox="0 0 1200 820">
<rect width="100%" height="100%" fill="white"/>
<text x="600.0" y="36" text-anchor="middle" font-family="Arial" font-size="24" fill="black">profile_near_ceiling_x: vorticity:2</text>
<line x1="120.00" y1="75" x2="120.00" y2="705" stroke="#dddddd" stroke-width="1"/>
<text x="120.00" y="737" text-anchor="middle" font-family="Arial" font-size="16" fill="black">-0.560</text>
<line x1="376.25" y1="75" x2="376.25" y2="705" stroke="#dddddd" stroke-width="1"/>
<text x="376.25" y="737" text-anchor="middle" font-family="Arial" font-size="16" fill="black">1.470</text>
<line x1="632.50" y1="75" x2="632.50" y2="705" stroke="#dddddd" stroke-width="1"/>
<text x="632.50" y="737" text-anchor="middle" font-family="Arial" font-size="16" fill="black">3.500</text>
<line x1="888.75" y1="75" x2="888.75" y2="705" stroke="#dddddd" stroke-width="1"/>
<text x="888.75" y="737" text-anchor="middle" font-family="Arial" font-size="16" fill="black">5.530</text>
<line x1="1145.00" y1="75" x2="1145.00" y2="705" stroke="#dddddd" stroke-width="1"/>
<text x="1145.00" y="737" text-anchor="middle" font-family="Arial" font-size="16" fill="black">7.560</text>
<line x1="120" y1="705.00" x2="1145" y2="705.00" stroke="#dddddd" stroke-width="1"/>
<text x="104" y="710.00" text-anchor="end" font-family="Arial" font-size="16" fill="black">-2.445</text>
<line x1="120" y1="547.50" x2="1145" y2="547.50" stroke="#dddddd" stroke-width="1"/>
<text x="104" y="552.50" text-anchor="end" font-family="Arial" font-size="16" fill="black">-1.289</text>
<line x1="120" y1="390.00" x2="1145" y2="390.00" stroke="#dddddd" stroke-width="1"/>
<text x="104" y="395.00" text-anchor="end" font-family="Arial" font-size="16" fill="black">-0.134</text>
<line x1="120" y1="232.50" x2="1145" y2="232.50" stroke="#dddddd" stroke-width="1"/>
<text x="104" y="237.50" text-anchor="end" font-family="Arial" font-size="16" fill="black">1.021</text>
<line x1="120" y1="75.00" x2="1145" y2="75.00" stroke="#dddddd" stroke-width="1"/>
<text x="104" y="80.00" text-anchor="end" font-family="Arial" font-size="16" fill="black">2.177</text>
<rect x="120" y="75" width="1025" height="630" fill="none" stroke="black" stroke-width="2"/>
<text x="632.5" y="785" text-anchor="middle" font-family="Arial" font-size="20" fill="black">x coordinate [m]</text>
<text x="34" y="390.0" transform="rotate(-90 34 390.0)" text-anchor="middle" font-family="Arial" font-size="20" fill="black">vorticity:2 [SI]</text>
<polyline points="190.69,118.45 193.64,149.09 196.58,179.73 199.53,210.37 202.47,241.02 205.42,272.02 208.36,303.16 211.31,334.30 214.25,365.44 217.20,383.51 220.14,384.15 223.09,384.79 226.03,385.42 228.98,385.99 231.93,386.15 234.87,386.30 237.82,386.46 240.76,386.62 243.71,386.62 246.65,386.60 249.60,386.57 252.54,386.55 255.49,386.47 258.43,386.36 261.38,386.24 264.32,386.12 267.27,386.00 270.22,385.86 273.16,385.72 276.11,385.57 279.05,385.43 282.00,385.31 284.94,385.19 287.89,385.07 290.83,384.95 293.78,384.86 296.72,384.78 299.67,384.70 302.62,384.62 305.56,384.55 308.51,384.49 311.45,384.44 314.40,384.38 317.34,384.32 320.29,384.25 323.23,384.18 326.17,384.11 329.13,384.04 332.07,383.94 335.01,383.84 337.96,383.74 340.91,383.64 343.85,383.54 346.80,383.44 349.74,383.34 352.68,383.24 355.64,382.99 358.58,382.38 361.52,381.76 364.47,381.15 367.41,380.53 370.35,379.46 373.31,378.39 376.25,377.32 379.19,376.25 382.15,375.23 385.09,374.23 388.03,373.22 390.98,372.22 393.92,371.22 396.86,370.22 399.82,369.23 402.76,368.23 405.70,367.25 408.65,366.32 411.59,365.39 414.54,364.47 417.49,363.54 420.43,362.74 423.37,361.96 426.33,361.19 429.27,360.41 432.21,359.72 435.16,359.10 438.10,358.49 441.04,357.87 444.00,357.30 446.94,356.84 449.88,356.38 452.83,355.91 455.78,355.45 458.72,355.41 461.67,355.36 464.61,355.32 467.55,355.27 470.51,355.77 473.45,356.50 476.39,357.22 479.34,357.95 482.28,358.94 485.23,360.29 488.18,361.65 491.12,363.00 494.06,364.40 497.02,366.09 499.96,367.77 502.90,369.46 505.85,371.15 508.79,372.97 511.73,374.81 514.69,376.65 517.63,378.49 520.57,380.32 523.52,382.13 526.47,383.95 529.41,385.77 532.36,387.57 535.30,389.33 538.24,391.09 541.20,392.85 544.14,394.62 547.08,396.21 550.03,397.80 552.97,399.39 555.92,400.98 558.87,402.26 561.81,403.43 564.75,404.59 567.71,405.76 570.65,406.65 573.59,407.18 576.54,407.71 579.48,408.24 582.42,408.68 585.38,408.54 588.32,408.40 591.26,408.26 594.21,408.12 597.16,407.39 600.10,406.57 603.05,405.74 605.99,404.91 608.93,403.60 611.89,401.92 614.83,400.23 617.77,398.55 620.72,396.68 623.66,394.33 626.60,391.98 629.56,389.63 632.50,387.29 635.44,385.05 638.40,382.82 641.34,380.58 644.28,378.34 647.23,376.54 650.17,374.91 653.11,373.28 656.07,371.65 659.01,370.26 661.95,369.18 664.90,368.10 667.84,367.02 670.79,366.01 673.74,365.37 676.68,364.73 679.62,364.09 682.58,363.45 685.52,363.20 688.46,363.02 691.41,362.84 694.35,362.66 697.29,362.63 700.25,362.71 703.19,362.79 706.13,362.88 709.08,362.96 712.03,363.06 714.97,363.16 717.92,363.26 720.86,363.35 723.80,362.39 726.76,361.43 729.70,360.47 732.64,359.51 735.59,357.23 738.53,354.41 741.48,351.60 744.43,348.78 747.37,345.70 750.31,342.26 753.27,338.81 756.21,335.37 759.15,332.10 762.10,329.89 765.04,327.69 767.98,325.48 770.94,323.28 773.88,322.73 776.82,322.46 779.77,322.19 782.72,321.93 785.66,322.06 788.61,322.49 791.55,322.92 794.49,323.35 797.45,323.65 800.39,323.60 803.33,323.55 806.28,323.51 809.22,323.46 812.17,322.92 815.12,322.37 818.06,321.83 821.00,321.28 823.96,320.46 826.90,319.51 829.84,318.57 832.79,317.63 835.73,316.69 838.67,315.76 841.63,314.82 844.57,313.89 847.51,313.07 850.46,312.96 853.41,312.84 856.35,312.72 859.30,312.61 862.24,314.12 865.18,315.90 868.14,317.68 871.08,319.46 874.02,322.57 876.97,326.68 879.91,330.79 882.85,334.89 885.81,339.12 888.75,343.61 891.69,348.11 894.65,352.61 897.59,357.10 900.53,359.88 903.48,362.66 906.42,365.44 909.36,368.22 912.32,369.56 915.26,370.32 918.20,371.08 921.15,371.84 924.09,372.13 927.04,371.78 929.99,371.43 932.93,371.08 935.87,370.68 938.83,369.98 941.77,369.28 944.71,368.57 947.66,367.87 950.60,366.81 953.54,365.70 956.50,364.59 959.44,363.47 962.38,362.05 965.33,360.41 968.28,358.77 971.22,357.12 974.17,355.32 977.11,353.13 980.05,350.93 983.01,348.74 985.95,346.55 988.89,344.00 991.84,341.46 994.78,338.91 997.73,336.37 1000.68,333.85 1003.62,331.35 1006.56,328.84 1009.52,326.33 1012.46,324.01 1015.40,321.95 1018.35,319.89 1021.29,317.83 1024.23,315.86 1027.19,314.50 1030.13,313.14 1033.07,311.78 1036.02,310.42 1038.97,309.75 1041.91,309.20 1044.86,308.65 1047.80,308.10 1050.74,331.43 1053.70,372.66 1056.64,413.89 1059.58,455.13 1062.53,496.38 1065.47,537.68 1068.42,578.96 1071.37,620.26 1074.31,661.55" fill="none" stroke="#000000" stroke-width="3"/>
<line x1="142" y1="100" x2="178" y2="100" stroke="#000000" stroke-width="4"/>
<text x="188" y="105" font-family="Arial" font-size="18" fill="black">vorticity:2</text>
</svg>