<svg xmlns="http://www.w3.org/2000/svg" width="1200" height="820" viewBox="0 0 1200 820">
<rect width="100%" height="100%" fill="white"/>
<text x="600.0" y="36" text-anchor="middle" font-family="Arial" font-size="24" fill="black">profile_center_z: U:2</text>
<line x1="120.00" y1="75" x2="120.00" y2="705" stroke="#dddddd" stroke-width="1"/>
<text x="120.00" y="737" text-anchor="middle" font-family="Arial" font-size="16" fill="black">-0.240</text>
<line x1="376.25" y1="75" x2="376.25" y2="705" stroke="#dddddd" stroke-width="1"/>
<text x="376.25" y="737" text-anchor="middle" font-family="Arial" font-size="16" fill="black">0.630</text>
<line x1="632.50" y1="75" x2="632.50" y2="705" stroke="#dddddd" stroke-width="1"/>
<text x="632.50" y="737" text-anchor="middle" font-family="Arial" font-size="16" fill="black">1.500</text>
<line x1="888.75" y1="75" x2="888.75" y2="705" stroke="#dddddd" stroke-width="1"/>
<text x="888.75" y="737" text-anchor="middle" font-family="Arial" font-size="16" fill="black">2.370</text>
<line x1="1145.00" y1="75" x2="1145.00" y2="705" stroke="#dddddd" stroke-width="1"/>
<text x="1145.00" y="737" text-anchor="middle" font-family="Arial" font-size="16" fill="black">3.240</text>
<line x1="120" y1="705.00" x2="1145" y2="705.00" stroke="#dddddd" stroke-width="1"/>
<text x="104" y="710.00" text-anchor="end" font-family="Arial" font-size="16" fill="black">-0.526</text>
<line x1="120" y1="547.50" x2="1145" y2="547.50" stroke="#dddddd" stroke-width="1"/>
<text x="104" y="552.50" text-anchor="end" font-family="Arial" font-size="16" fill="black">-0.119</text>
<line x1="120" y1="390.00" x2="1145" y2="390.00" stroke="#dddddd" stroke-width="1"/>
<text x="104" y="395.00" text-anchor="end" font-family="Arial" font-size="16" fill="black">0.289</text>
<line x1="120" y1="232.50" x2="1145" y2="232.50" stroke="#dddddd" stroke-width="1"/>
<text x="104" y="237.50" text-anchor="end" font-family="Arial" font-size="16" fill="black">0.696</text>
<line x1="120" y1="75.00" x2="1145" y2="75.00" stroke="#dddddd" stroke-width="1"/>
<text x="104" y="80.00" text-anchor="end" font-family="Arial" font-size="16" fill="black">1.103</text>
<rect x="120" y="75" width="1025" height="630" fill="none" stroke="black" stroke-width="2"/>
<text x="632.5" y="785" text-anchor="middle" font-family="Arial" font-size="20" fill="black">z coordinate [m]</text>
<text x="34" y="390.0" transform="rotate(-90 34 390.0)" text-anchor="middle" font-family="Arial" font-size="20" fill="black">U:2 [SI]</text>
<polyline points="190.69,118.45 193.64,119.05 196.58,119.64 199.53,120.24 202.47,120.84 205.42,121.44 208.36,122.04 211.31,122.64 214.25,123.24 217.20,123.84 220.14,124.43 223.09,126.08 226.03,127.74 228.98,129.39 231.93,131.03 234.87,132.69 237.82,134.34 240.76,135.99 243.71,137.63 246.65,139.29 249.60,140.94 252.54,143.48 255.49,146.03 258.43,148.57 261.38,151.12 264.32,153.67 267.27,156.21 270.22,158.76 273.16,161.31 276.11,163.85 279.05,166.40 282.00,169.89 284.94,173.38 287.89,176.87 290.83,180.37 293.78,183.86 296.72,187.35 299.67,190.84 302.61,194.34 305.56,197.83 308.51,201.32 311.45,205.87 314.40,210.42 317.34,214.96 320.29,219.52 323.23,224.06 326.18,228.61 329.12,233.16 332.07,237.70 335.01,242.25 337.96,246.80 340.91,252.42 343.85,258.05 346.80,263.67 349.74,269.29 352.69,274.92 355.63,280.54 358.58,286.16 361.52,291.79 364.47,297.41 367.41,303.03 370.36,309.52 373.30,316.01 376.25,322.50 379.20,328.98 382.14,335.48 385.09,341.96 388.03,348.45 390.98,354.94 393.92,361.43 396.87,367.92 399.81,375.69 402.76,383.45 405.70,391.22 408.65,398.98 411.59,406.75 414.54,414.51 417.49,422.28 420.43,430.05 423.38,437.82 426.32,445.58 429.27,453.83 432.21,462.09 435.16,470.34 438.10,478.60 441.05,486.85 443.99,495.11 446.94,503.36 449.89,511.61 452.83,519.87 455.78,528.12 458.72,533.81 461.67,539.50 464.61,545.19 467.56,550.88 470.50,556.58 473.45,562.27 476.39,567.96 479.34,573.65 482.28,579.34 485.23,585.03 488.18,588.41 491.12,591.79 494.07,595.17 497.01,598.55 499.96,601.93 502.90,605.31 505.85,608.69 508.79,612.07 511.74,615.45 514.68,618.83 517.63,621.31 520.57,623.79 523.52,626.27 526.47,628.75 529.41,631.23 532.36,633.71 535.30,636.19 538.25,638.67 541.19,641.15 544.14,643.63 547.08,644.94 550.03,646.25 552.97,647.56 555.92,648.87 558.86,650.18 561.81,651.49 564.76,652.81 567.70,654.12 570.65,655.43 573.59,656.74 576.54,657.22 579.48,657.70 582.43,658.18 585.37,658.66 588.32,659.14 591.26,659.63 594.21,660.11 597.16,660.59 600.10,661.07 603.05,661.55 605.99,661.39 608.94,661.23 611.88,661.06 614.83,660.90 617.77,660.74 620.72,660.58 623.66,660.41 626.61,660.25 629.55,660.09 632.50,659.93 635.45,659.27 638.39,658.62 641.34,657.96 644.28,657.31 647.23,656.66 650.17,656.00 653.12,655.35 656.06,654.69 659.01,654.03 661.95,653.38 664.90,652.35 667.84,651.32 670.79,650.30 673.74,649.27 676.68,648.24 679.63,647.21 682.57,646.18 685.52,645.15 688.46,644.12 691.41,643.10 694.35,641.79 697.30,640.47 700.24,639.16 703.19,637.85 706.14,636.54 709.08,635.23 712.03,633.92 714.97,632.61 717.92,631.30 720.86,629.99 723.81,628.46 726.75,626.94 729.70,625.42 732.64,623.89 735.59,622.37 738.53,620.85 741.48,619.32 744.43,617.80 747.37,616.27 750.32,614.75 753.26,613.07 756.21,611.39 759.15,609.72 762.10,608.04 765.04,606.36 767.99,604.68 770.93,603.01 773.88,601.33 776.82,599.65 779.77,597.97 782.72,596.20 785.66,594.43 788.61,592.66 791.55,590.88 794.50,589.11 797.44,587.34 800.39,585.57 803.33,583.80 806.28,582.03 809.22,580.26 812.17,578.46 815.11,576.66 818.06,574.86 821.01,573.06 823.95,571.27 826.90,569.46 829.84,567.67 832.79,565.87 835.73,564.07 838.68,562.27 841.62,560.52 844.57,558.76 847.51,557.01 850.46,555.26 853.41,553.50 856.35,551.75 859.30,549.99 862.24,548.24 865.19,546.49 868.13,544.74 871.08,543.10 874.02,541.47 876.97,539.84 879.91,538.21 882.86,536.58 885.80,534.95 888.75,533.32 891.70,531.69 894.64,530.06 897.59,528.43 900.53,526.99 903.48,525.56 906.42,524.13 909.37,522.70 912.31,521.27 915.26,519.84 918.20,518.41 921.15,516.97 924.09,515.54 927.04,514.11 929.99,512.97 932.93,511.83 935.88,510.69 938.82,509.55 941.77,508.41 944.71,507.27 947.66,506.13 950.60,504.98 953.55,503.84 956.49,502.70 959.44,501.92 962.39,501.13 965.33,500.34 968.28,499.55 971.22,498.77 974.17,497.98 977.11,497.19 980.06,496.40 983.00,495.62 985.95,494.83 988.89,494.52 991.84,494.22 994.78,493.92 997.73,493.62 1000.68,493.31 1003.62,493.01 1006.57,492.71 1009.51,492.41 1012.46,492.10 1015.40,491.80 1018.35,491.83 1021.29,491.86 1024.24,491.90 1027.18,491.93 1030.13,491.96 1033.07,491.99 1036.02,492.02 1038.97,492.06 1041.91,492.09 1044.86,492.12 1047.80,492.15 1050.75,492.18 1053.69,492.22 1056.64,492.25 1059.58,492.28 1062.53,492.31 1065.47,492.34 1068.42,492.37 1071.36,492.41 1074.31,492.44" fill="none" stroke="#000000" stroke-width="3"/>
<line x1="142" y1="100" x2="178" y2="100" stroke="#000000" stroke-width="4"/>
<text x="188" y="105" font-family="Arial" font-size="18" fill="black">U:2</text>
</svg>