<svg xmlns="http://www.w3.org/2000/svg" width="1200" height="820" viewBox="0 0 1200 820">
<rect width="100%" height="100%" fill="white"/>
<text x="600.0" y="36" text-anchor="middle" font-family="Arial" font-size="24" fill="black">profile_near_ceiling_x: nut</text>
<line x1="120.00" y1="75" x2="120.00" y2="705" stroke="#dddddd" stroke-width="1"/>
<text x="120.00" y="737" text-anchor="middle" font-family="Arial" font-size="16" fill="black">-0.560</text>
<line x1="376.25" y1="75" x2="376.25" y2="705" stroke="#dddddd" stroke-width="1"/>
<text x="376.25" y="737" text-anchor="middle" font-family="Arial" font-size="16" fill="black">1.470</text>
<line x1="632.50" y1="75" x2="632.50" y2="705" stroke="#dddddd" stroke-width="1"/>
<text x="632.50" y="737" text-anchor="middle" font-family="Arial" font-size="16" fill="black">3.500</text>
<line x1="888.75" y1="75" x2="888.75" y2="705" stroke="#dddddd" stroke-width="1"/>
<text x="888.75" y="737" text-anchor="middle" font-family="Arial" font-size="16" fill="black">5.530</text>
<line x1="1145.00" y1="75" x2="1145.00" y2="705" stroke="#dddddd" stroke-width="1"/>
<text x="1145.00" y="737" text-anchor="middle" font-family="Arial" font-size="16" fill="black">7.560</text>
<line x1="120" y1="705.00" x2="1145" y2="705.00" stroke="#dddddd" stroke-width="1"/>
<text x="104" y="710.00" text-anchor="end" font-family="Arial" font-size="16" fill="black">2.10e-04</text>
<line x1="120" y1="547.50" x2="1145" y2="547.50" stroke="#dddddd" stroke-width="1"/>
<text x="104" y="552.50" text-anchor="end" font-family="Arial" font-size="16" fill="black">0.002</text>
<line x1="120" y1="390.00" x2="1145" y2="390.00" stroke="#dddddd" stroke-width="1"/>
<text x="104" y="395.00" text-anchor="end" font-family="Arial" font-size="16" fill="black">0.004</text>
<line x1="120" y1="232.50" x2="1145" y2="232.50" stroke="#dddddd" stroke-width="1"/>
<text x="104" y="237.50" text-anchor="end" font-family="Arial" font-size="16" fill="black">0.005</text>
<line x1="120" y1="75.00" x2="1145" y2="75.00" stroke="#dddddd" stroke-width="1"/>
<text x="104" y="80.00" text-anchor="end" font-family="Arial" font-size="16" fill="black">0.007</text>
<rect x="120" y="75" width="1025" height="630" fill="none" stroke="black" stroke-width="2"/>
<text x="632.5" y="785" text-anchor="middle" font-family="Arial" font-size="20" fill="black">x coordinate [m]</text>
<text x="34" y="390.0" transform="rotate(-90 34 390.0)" text-anchor="middle" font-family="Arial" font-size="20" fill="black">nut [m2/s]</text>
<polyline points="190.69,648.40 193.64,632.74 196.58,617.09 199.53,601.42 202.47,585.77 205.42,562.80 208.36,536.92 211.31,511.04 214.25,485.16 217.20,462.38 220.14,443.75 223.09,425.13 226.03,406.50 228.98,388.34 231.93,372.97 234.87,357.60 237.82,342.22 240.76,326.85 243.71,314.62 246.65,302.91 249.60,291.20 252.54,279.49 255.49,269.60 258.43,261.07 261.38,252.55 264.32,244.02 267.27,236.00 270.22,229.19 273.16,222.40 276.11,215.60 279.05,208.81 282.00,203.35 284.94,197.90 287.89,192.44 290.83,186.98 293.78,182.26 296.72,177.83 299.67,173.40 302.62,168.97 305.56,164.89 308.51,161.28 311.45,157.67 314.40,154.07 317.34,150.56 320.29,147.67 323.23,144.79 326.17,141.90 329.13,139.00 332.07,136.66 335.01,134.42 337.96,132.18 340.91,129.93 343.85,128.07 346.80,126.46 349.74,124.86 352.68,123.25 355.64,121.86 358.58,121.01 361.52,120.15 364.47,119.30 367.41,118.45 370.35,118.47 373.31,118.49 376.25,118.50 379.19,118.52 382.15,119.39 385.09,120.61 388.03,121.81 390.98,123.02 393.92,124.99 396.86,127.97 399.82,130.95 402.76,133.93 405.70,137.27 408.65,142.72 411.59,148.17 414.54,153.62 417.49,159.07 420.43,167.88 423.37,177.25 426.33,186.62 429.27,195.99 432.21,207.59 435.16,220.86 438.10,234.13 441.04,247.40 444.00,260.69 446.94,274.06 449.88,287.43 452.83,300.80 455.78,314.17 458.72,324.20 461.67,334.21 464.61,344.24 467.55,354.26 470.51,361.37 473.45,367.31 476.39,373.25 479.34,379.20 482.28,383.64 485.23,386.09 488.18,388.54 491.12,390.99 494.06,393.11 497.02,393.30 499.96,393.48 502.90,393.66 505.85,393.83 508.79,392.96 511.73,391.89 514.69,390.83 517.63,389.77 520.57,388.29 523.52,386.49 526.47,384.69 529.41,382.89 532.36,380.92 535.30,378.48 538.24,376.04 541.20,373.61 544.14,371.17 547.08,367.95 550.03,364.71 552.97,361.49 555.92,358.26 558.87,354.40 561.81,350.29 564.75,346.18 567.71,342.07 570.65,337.59 573.59,332.64 576.54,327.69 579.48,322.74 582.42,317.71 585.38,312.26 588.32,306.81 591.26,301.36 594.21,295.91 597.16,290.70 600.10,285.52 603.05,280.34 605.99,275.16 608.93,270.61 611.89,266.55 614.83,262.47 617.77,258.41 620.72,254.86 623.66,252.60 626.60,250.35 629.56,248.09 632.50,245.84 635.44,245.91 638.40,245.99 641.34,246.06 644.28,246.14 647.23,247.91 650.17,250.38 653.11,252.84 656.07,255.30 659.01,258.75 661.95,263.54 664.90,268.32 667.84,273.11 670.79,278.25 673.74,285.54 676.68,292.83 679.62,300.13 682.58,307.42 685.52,316.79 688.46,326.52 691.41,336.25 694.35,345.98 697.29,356.75 700.25,368.29 703.19,379.83 706.13,391.38 709.08,403.09 712.03,415.21 714.97,427.33 717.92,439.46 720.86,451.58 723.80,462.60 726.76,473.61 729.70,484.63 732.64,495.64 735.59,504.01 738.53,511.31 741.48,518.61 744.43,525.91 747.37,530.59 750.31,531.77 753.27,532.94 756.21,534.11 759.15,534.46 762.10,529.81 765.04,525.17 767.98,520.51 770.94,515.87 773.88,508.99 776.82,501.74 779.77,494.48 782.72,487.23 785.66,480.31 788.61,473.61 791.55,466.92 794.49,460.23 797.45,453.96 800.39,448.74 803.33,443.53 806.28,438.31 809.22,433.10 812.17,429.13 815.12,425.17 818.06,421.20 821.00,417.24 823.96,413.93 826.90,410.89 829.84,407.84 832.79,404.80 835.73,401.94 838.67,399.32 841.63,396.71 844.57,394.10 847.51,391.44 850.46,388.52 853.41,385.60 856.35,382.68 859.30,379.76 862.24,375.88 865.18,371.84 868.14,367.81 871.08,363.76 874.02,359.07 876.97,353.87 879.91,348.67 882.85,343.49 885.81,338.29 888.75,333.09 891.69,327.90 894.65,322.70 897.59,317.50 900.53,314.11 903.48,310.73 906.42,307.34 909.36,303.94 912.32,302.90 915.26,302.79 918.20,302.68 921.15,302.58 924.09,303.95 927.04,307.29 929.99,310.63 932.93,313.98 935.87,317.68 938.83,323.57 941.77,329.45 944.71,335.33 947.66,341.22 950.60,348.27 953.54,355.52 956.50,362.78 959.44,370.04 962.38,377.50 965.33,385.12 968.28,392.74 971.22,400.36 974.17,407.84 977.11,414.98 980.05,422.13 983.01,429.27 985.95,436.41 988.89,442.54 991.84,448.68 994.78,454.82 997.73,460.95 1000.68,466.35 1003.62,471.46 1006.56,476.57 1009.52,481.67 1012.46,486.56 1015.40,491.15 1018.35,495.74 1021.29,500.32 1024.23,504.99 1027.19,510.18 1030.13,515.36 1033.07,520.55 1036.02,525.74 1038.97,533.35 1041.91,541.35 1044.86,549.36 1047.80,557.36 1050.74,568.97 1053.70,583.27 1056.64,597.56 1059.58,611.86 1062.53,624.70 1065.47,633.92 1068.42,643.13 1071.37,652.34 1074.31,661.55" fill="none" stroke="#000000" stroke-width="3"/>
<line x1="142" y1="100" x2="178" y2="100" stroke="#000000" stroke-width="4"/>
<text x="188" y="105" font-family="Arial" font-size="18" fill="black">nut</text>
</svg>