<svg xmlns="http://www.w3.org/2000/svg" width="1200" height="820" viewBox="0 0 1200 820">
<rect width="100%" height="100%" fill="white"/>
<text x="600.0" y="36" text-anchor="middle" font-family="Arial" font-size="24" fill="black">profile_diagonal_supply_return: epsilon</text>
<line x1="120.00" y1="75" x2="120.00" y2="705" stroke="#dddddd" stroke-width="1"/>
<text x="120.00" y="737" text-anchor="middle" font-family="Arial" font-size="16" fill="black">-0.729</text>
<line x1="376.25" y1="75" x2="376.25" y2="705" stroke="#dddddd" stroke-width="1"/>
<text x="376.25" y="737" text-anchor="middle" font-family="Arial" font-size="16" fill="black">1.913</text>
<line x1="632.50" y1="75" x2="632.50" y2="705" stroke="#dddddd" stroke-width="1"/>
<text x="632.50" y="737" text-anchor="middle" font-family="Arial" font-size="16" fill="black">4.555</text>
<line x1="888.75" y1="75" x2="888.75" y2="705" stroke="#dddddd" stroke-width="1"/>
<text x="888.75" y="737" text-anchor="middle" font-family="Arial" font-size="16" fill="black">7.197</text>
<line x1="1145.00" y1="75" x2="1145.00" y2="705" stroke="#dddddd" stroke-width="1"/>
<text x="1145.00" y="737" text-anchor="middle" font-family="Arial" font-size="16" fill="black">9.839</text>
<line x1="120" y1="705.00" x2="1145" y2="705.00" stroke="#dddddd" stroke-width="1"/>
<text x="104" y="710.00" text-anchor="end" font-family="Arial" font-size="16" fill="black">-2.03e-04</text>
<line x1="120" y1="547.50" x2="1145" y2="547.50" stroke="#dddddd" stroke-width="1"/>
<text x="104" y="552.50" text-anchor="end" font-family="Arial" font-size="16" fill="black">0.002</text>
<line x1="120" y1="390.00" x2="1145" y2="390.00" stroke="#dddddd" stroke-width="1"/>
<text x="104" y="395.00" text-anchor="end" font-family="Arial" font-size="16" fill="black">0.004</text>
<line x1="120" y1="232.50" x2="1145" y2="232.50" stroke="#dddddd" stroke-width="1"/>
<text x="104" y="237.50" text-anchor="end" font-family="Arial" font-size="16" fill="black">0.006</text>
<line x1="120" y1="75.00" x2="1145" y2="75.00" stroke="#dddddd" stroke-width="1"/>
<text x="104" y="80.00" text-anchor="end" font-family="Arial" font-size="16" fill="black">0.008</text>
<rect x="120" y="75" width="1025" height="630" fill="none" stroke="black" stroke-width="2"/>
<text x="632.5" y="785" text-anchor="middle" font-family="Arial" font-size="20" fill="black">distance along sample line [m]</text>
<text x="34" y="390.0" transform="rotate(-90 34 390.0)" text-anchor="middle" font-family="Arial" font-size="20" fill="black">epsilon [m2/s3]</text>
<polyline points="190.69,596.12 193.64,594.62 196.58,593.35 199.53,592.32 202.47,591.53 205.42,590.18 208.36,588.98 211.31,590.43 214.25,593.04 217.20,596.88 220.14,601.77 223.09,606.97 226.03,613.05 228.98,617.86 231.93,621.62 234.87,625.95 237.82,630.84 240.76,636.27 243.71,638.93 246.65,637.66 249.60,637.11 252.54,637.41 255.49,636.46 258.43,634.52 261.38,632.98 264.32,629.09 267.27,624.53 270.22,617.00 273.16,610.01 276.11,603.62 279.05,597.87 282.00,584.24 284.94,571.15 287.88,558.72 290.83,547.04 293.78,532.79 296.73,517.07 299.67,500.70 302.62,484.79 305.57,469.02 308.50,452.16 311.45,434.30 314.40,416.18 317.34,399.21 320.29,386.35 323.24,372.53 326.18,357.78 329.12,342.19 332.07,334.02 335.01,327.12 337.96,318.79 340.91,310.52 343.85,307.51 346.80,307.99 349.74,307.29 352.68,307.10 355.63,307.90 358.58,313.34 361.53,317.70 364.47,320.95 367.42,323.04 370.36,330.04 373.30,336.48 376.25,342.36 379.20,347.74 382.14,349.46 385.09,349.77 388.04,350.09 390.97,350.60 393.92,345.73 396.87,332.47 399.81,319.66 402.76,306.86 405.71,293.95 408.65,276.23 411.59,256.72 414.54,235.55 417.48,212.81 420.43,204.86 423.38,199.00 426.32,191.55 429.27,184.72 432.21,188.76 435.16,200.83 438.10,211.45 441.05,220.91 444.00,229.85 446.94,240.93 449.89,251.85 452.84,262.49 455.77,272.70 458.72,277.68 461.67,283.16 464.61,289.09 467.56,295.43 470.51,298.03 473.45,299.50 476.39,301.38 479.34,303.77 482.28,304.33 485.23,302.15 488.18,301.59 491.12,301.79 494.07,301.96 497.01,298.56 499.96,295.82 502.90,293.82 505.85,292.66 508.80,288.77 511.74,285.03 514.69,282.20 517.63,279.65 520.57,276.53 523.52,273.12 526.47,270.71 529.41,269.79 532.36,269.87 535.31,270.39 538.24,272.21 541.19,275.51 544.14,280.50 547.08,281.59 550.03,283.05 552.98,285.05 555.92,287.76 558.86,291.04 561.81,294.51 564.76,298.54 567.70,303.09 570.65,307.89 573.60,312.38 576.54,309.92 579.49,307.28 582.43,304.42 585.37,301.17 588.32,297.46 591.27,293.45 594.21,289.29 597.16,287.35 600.11,284.78 603.04,281.66 605.99,274.48 608.94,270.62 611.88,268.65 614.83,265.56 617.78,261.32 620.72,258.99 623.66,262.38 626.61,264.80 629.55,266.21 632.50,266.55 635.45,274.32 638.40,281.59 641.34,288.34 644.28,294.55 647.23,304.14 650.17,315.01 653.12,326.63 656.07,338.03 659.01,349.28 661.96,360.35 664.90,370.93 667.84,381.23 670.79,390.82 673.74,396.78 676.68,402.23 679.63,407.12 682.58,411.41 685.51,411.93 688.46,410.17 691.41,407.99 694.35,405.48 697.30,401.64 700.25,396.90 703.20,391.94 706.14,384.88 709.08,377.99 712.03,371.36 714.97,365.08 717.92,359.16 720.87,353.60 723.81,347.38 726.76,341.95 729.70,337.31 732.64,333.47 735.59,329.28 738.54,325.22 741.48,321.52 744.43,318.70 747.38,315.41 750.31,310.93 753.26,307.19 756.21,303.94 759.15,301.14 762.10,294.99 765.05,289.30 767.99,284.07 770.93,279.33 773.88,269.91 776.83,261.43 779.77,253.54 782.72,246.41 785.67,236.23 788.61,223.41 791.55,210.46 794.50,201.15 797.44,191.59 800.39,179.39 803.34,167.01 806.28,154.39 809.23,141.45 812.17,136.46 815.11,131.21 818.06,125.62 821.01,119.64 823.95,118.87 826.90,118.45 829.85,123.55 832.79,127.81 835.73,136.63 838.68,150.33 841.63,162.41 844.57,171.81 847.52,186.00 850.47,205.96 853.41,222.49 856.35,235.91 859.30,246.52 862.24,256.99 865.19,266.78 868.14,273.92 871.08,279.69 874.03,283.38 876.97,285.89 879.91,287.85 882.86,287.75 885.81,288.35 888.75,291.80 891.70,296.86 894.65,303.81 897.58,312.93 900.53,327.20 903.48,343.36 906.43,361.39 909.37,381.23 912.32,402.75 915.27,424.69 918.20,440.01 921.15,456.20 924.10,470.64 927.04,482.06 929.99,492.82 932.94,503.75 935.88,507.38 938.82,507.67 941.77,508.87 944.71,510.88 947.66,513.57 950.61,514.70 953.55,507.45 956.50,500.85 959.44,493.21 962.38,485.32 965.33,477.42 968.28,470.04 971.22,454.98 974.17,440.29 977.12,427.29 980.06,415.62 983.00,405.52 985.95,397.18 988.90,394.89 991.84,395.41 994.79,399.71 997.74,408.73 1000.68,419.71 1003.62,434.17 1006.57,460.79 1009.51,490.37 1012.46,515.54 1015.41,532.76 1018.35,553.82 1021.30,575.51 1024.24,597.52 1027.18,605.73 1030.13,613.57 1033.08,621.07 1036.02,628.26 1038.97,631.90 1041.92,634.98 1044.86,638.31 1047.80,642.17 1050.75,645.83 1053.70,649.30 1056.64,652.60 1059.59,654.88 1062.54,656.87 1065.47,658.15 1068.42,659.37 1071.37,660.50 1074.31,661.55" fill="none" stroke="#000000" stroke-width="3"/>
<line x1="142" y1="100" x2="178" y2="100" stroke="#000000" stroke-width="4"/>
<text x="188" y="105" font-family="Arial" font-size="18" fill="black">epsilon</text>
</svg>