<svg xmlns="http://www.w3.org/2000/svg" width="1200" height="820" viewBox="0 0 1200 820">
<rect width="100%" height="100%" fill="white"/>
<text x="600.0" y="36" text-anchor="middle" font-family="Arial" font-size="24" fill="black">profile_center_z: alphat</text>
<line x1="120.00" y1="75" x2="120.00" y2="705" stroke="#dddddd" stroke-width="1"/>
<text x="120.00" y="737" text-anchor="middle" font-family="Arial" font-size="16" fill="black">-0.240</text>
<line x1="376.25" y1="75" x2="376.25" y2="705" stroke="#dddddd" stroke-width="1"/>
<text x="376.25" y="737" text-anchor="middle" font-family="Arial" font-size="16" fill="black">0.630</text>
<line x1="632.50" y1="75" x2="632.50" y2="705" stroke="#dddddd" stroke-width="1"/>
<text x="632.50" y="737" text-anchor="middle" font-family="Arial" font-size="16" fill="black">1.500</text>
<line x1="888.75" y1="75" x2="888.75" y2="705" stroke="#dddddd" stroke-width="1"/>
<text x="888.75" y="737" text-anchor="middle" font-family="Arial" font-size="16" fill="black">2.370</text>
<line x1="1145.00" y1="75" x2="1145.00" y2="705" stroke="#dddddd" stroke-width="1"/>
<text x="1145.00" y="737" text-anchor="middle" font-family="Arial" font-size="16" fill="black">3.240</text>
<line x1="120" y1="705.00" x2="1145" y2="705.00" stroke="#dddddd" stroke-width="1"/>
<text x="104" y="710.00" text-anchor="end" font-family="Arial" font-size="16" fill="black">-1.74e-04</text>
<line x1="120" y1="547.50" x2="1145" y2="547.50" stroke="#dddddd" stroke-width="1"/>
<text x="104" y="552.50" text-anchor="end" font-family="Arial" font-size="16" fill="black">0.004</text>
<line x1="120" y1="390.00" x2="1145" y2="390.00" stroke="#dddddd" stroke-width="1"/>
<text x="104" y="395.00" text-anchor="end" font-family="Arial" font-size="16" fill="black">0.008</text>
<line x1="120" y1="232.50" x2="1145" y2="232.50" stroke="#dddddd" stroke-width="1"/>
<text x="104" y="237.50" text-anchor="end" font-family="Arial" font-size="16" fill="black">0.012</text>
<line x1="120" y1="75.00" x2="1145" y2="75.00" stroke="#dddddd" stroke-width="1"/>
<text x="104" y="80.00" text-anchor="end" font-family="Arial" font-size="16" fill="black">0.017</text>
<rect x="120" y="75" width="1025" height="630" fill="none" stroke="black" stroke-width="2"/>
<text x="632.5" y="785" text-anchor="middle" font-family="Arial" font-size="20" fill="black">z coordinate [m]</text>
<text x="34" y="390.0" transform="rotate(-90 34 390.0)" text-anchor="middle" font-family="Arial" font-size="20" fill="black">alphat [SI]</text>
<polyline points="190.69,660.40 193.64,660.45 196.58,660.49 199.53,660.54 202.47,660.58 205.42,660.63 208.36,660.68 211.31,660.72 214.25,660.77 217.20,660.82 220.14,660.87 223.09,660.94 226.03,661.00 228.98,661.07 231.93,661.14 234.87,661.21 237.82,661.28 240.76,661.35 243.71,661.41 246.65,661.48 249.60,661.55 252.54,661.55 255.49,661.55 258.43,661.55 261.38,661.55 264.32,661.54 267.27,661.54 270.22,661.54 273.16,661.54 276.11,661.54 279.05,661.54 282.00,661.42 284.94,661.31 287.89,661.20 290.83,661.09 293.78,660.97 296.72,660.86 299.67,660.75 302.61,660.64 305.56,660.52 308.51,660.41 311.45,660.18 314.40,659.94 317.34,659.71 320.29,659.48 323.23,659.24 326.18,659.01 329.12,658.78 332.07,658.54 335.01,658.31 337.96,658.08 340.91,657.76 343.85,657.45 346.80,657.13 349.74,656.82 352.69,656.50 355.63,656.19 358.58,655.87 361.52,655.55 364.47,655.24 367.41,654.93 370.36,654.34 373.30,653.76 376.25,653.18 379.20,652.59 382.14,652.01 385.09,651.42 388.03,650.84 390.98,650.26 393.92,649.68 396.87,649.09 399.81,644.78 402.76,640.46 405.70,636.14 408.65,631.83 411.59,627.51 414.54,623.19 417.49,618.87 420.43,614.56 423.38,610.24 426.32,605.92 429.27,593.26 432.21,580.60 435.16,567.93 438.10,555.27 441.05,542.61 443.99,529.94 446.94,517.28 449.89,504.62 452.83,491.95 455.78,479.29 458.72,465.86 461.67,452.44 464.61,439.01 467.56,425.59 470.50,412.16 473.45,398.73 476.39,385.31 479.34,371.88 482.28,358.45 485.23,345.02 488.18,336.21 491.12,327.40 494.07,318.57 497.01,309.76 499.96,300.98 502.90,292.16 505.85,283.34 508.79,274.52 511.74,265.71 514.68,256.89 517.63,249.47 520.57,242.04 523.52,234.62 526.47,227.20 529.41,219.77 532.36,212.35 535.30,204.93 538.25,197.47 541.19,190.04 544.14,182.62 547.08,177.95 550.03,173.27 552.97,168.60 555.92,163.93 558.86,159.22 561.81,154.55 564.76,149.87 567.70,145.20 570.65,140.53 573.59,135.86 576.54,134.20 579.48,132.54 582.43,130.92 585.37,129.26 588.32,127.64 591.26,125.98 594.21,124.36 597.16,122.71 600.10,121.09 603.05,119.43 605.99,119.31 608.94,119.24 611.88,119.13 614.83,119.01 617.77,118.94 620.72,118.83 623.66,118.75 626.61,118.64 629.55,118.52 632.50,118.45 635.45,118.86 638.39,119.28 641.34,119.69 644.28,120.14 647.23,120.56 650.17,120.97 653.12,121.39 656.06,121.84 659.01,122.25 661.95,122.67 664.90,123.27 667.84,123.91 670.79,124.51 673.74,125.12 676.68,125.72 679.63,126.32 682.57,126.96 685.52,127.57 688.46,128.17 691.41,128.77 694.35,129.45 697.30,130.13 700.24,130.77 703.19,131.45 706.14,132.13 709.08,132.77 712.03,133.45 714.97,134.12 717.92,134.80 720.86,135.44 723.81,136.12 726.75,136.76 729.70,137.44 732.64,138.08 735.59,138.76 738.53,139.40 741.48,140.08 744.43,140.72 747.37,141.40 750.32,142.04 753.26,142.64 756.21,143.24 759.15,143.85 762.10,144.45 765.04,145.05 767.99,145.69 770.93,146.29 773.88,146.90 776.82,147.50 779.77,148.10 782.72,148.59 785.66,149.12 788.61,149.65 791.55,150.14 794.50,150.67 797.44,151.19 800.39,151.68 803.33,152.21 806.28,152.74 809.22,153.23 812.17,153.64 815.11,154.06 818.06,154.47 821.01,154.89 823.95,155.30 826.90,155.71 829.84,156.13 832.79,156.54 835.73,156.96 838.68,157.37 841.62,157.79 844.57,158.20 847.51,158.58 850.46,158.99 853.41,159.37 856.35,159.78 859.30,160.16 862.24,160.58 865.19,160.99 868.13,161.37 871.08,162.05 874.02,162.72 876.97,163.40 879.91,164.12 882.86,164.80 885.80,165.47 888.75,166.15 891.70,166.83 894.64,167.51 897.59,168.19 900.53,169.85 903.48,171.50 906.42,173.16 909.37,174.82 912.31,176.44 915.26,178.10 918.20,179.76 921.15,181.41 924.09,183.07 927.04,184.73 929.99,188.35 932.93,191.96 935.88,195.58 938.82,199.20 941.77,202.82 944.71,206.43 947.66,210.05 950.60,213.67 953.55,217.29 956.49,220.90 959.44,227.54 962.39,234.17 965.33,240.80 968.28,247.43 971.22,254.10 974.17,260.73 977.11,267.36 980.06,274.00 983.00,280.63 985.95,287.26 988.89,298.30 991.84,309.34 994.78,320.38 997.73,331.44 1000.68,342.48 1003.62,353.52 1006.57,364.56 1009.51,375.60 1012.46,386.64 1015.40,397.68 1018.35,413.59 1021.29,429.49 1024.24,445.39 1027.18,461.29 1030.13,477.19 1033.07,493.09 1036.02,508.99 1038.97,524.90 1041.91,540.80 1044.86,556.70 1047.80,565.76 1050.75,574.83 1053.69,583.89 1056.64,592.95 1059.58,602.02 1062.53,611.08 1065.47,620.15 1068.42,629.22 1071.36,638.28 1074.31,647.34" fill="none" stroke="#000000" stroke-width="3"/>
<line x1="142" y1="100" x2="178" y2="100" stroke="#000000" stroke-width="4"/>
<text x="188" y="105" font-family="Arial" font-size="18" fill="black">alphat</text>
</svg>