<svg xmlns="http://www.w3.org/2000/svg" width="1200" height="820" viewBox="0 0 1200 820">
<rect width="100%" height="100%" fill="white"/>
<text x="600.0" y="36" text-anchor="middle" font-family="Arial" font-size="24" fill="black">profile_near_ceiling_x: p</text>
<line x1="120.00" y1="75" x2="120.00" y2="705" stroke="#dddddd" stroke-width="1"/>
<text x="120.00" y="737" text-anchor="middle" font-family="Arial" font-size="16" fill="black">-0.560</text>
<line x1="376.25" y1="75" x2="376.25" y2="705" stroke="#dddddd" stroke-width="1"/>
<text x="376.25" y="737" text-anchor="middle" font-family="Arial" font-size="16" fill="black">1.470</text>
<line x1="632.50" y1="75" x2="632.50" y2="705" stroke="#dddddd" stroke-width="1"/>
<text x="632.50" y="737" text-anchor="middle" font-family="Arial" font-size="16" fill="black">3.500</text>
<line x1="888.75" y1="75" x2="888.75" y2="705" stroke="#dddddd" stroke-width="1"/>
<text x="888.75" y="737" text-anchor="middle" font-family="Arial" font-size="16" fill="black">5.530</text>
<line x1="1145.00" y1="75" x2="1145.00" y2="705" stroke="#dddddd" stroke-width="1"/>
<text x="1145.00" y="737" text-anchor="middle" font-family="Arial" font-size="16" fill="black">7.560</text>
<line x1="120" y1="705.00" x2="1145" y2="705.00" stroke="#dddddd" stroke-width="1"/>
<text x="104" y="710.00" text-anchor="end" font-family="Arial" font-size="16" fill="black">-31.94</text>
<line x1="120" y1="547.50" x2="1145" y2="547.50" stroke="#dddddd" stroke-width="1"/>
<text x="104" y="552.50" text-anchor="end" font-family="Arial" font-size="16" fill="black">-31.89</text>
<line x1="120" y1="390.00" x2="1145" y2="390.00" stroke="#dddddd" stroke-width="1"/>
<text x="104" y="395.00" text-anchor="end" font-family="Arial" font-size="16" fill="black">-31.84</text>
<line x1="120" y1="232.50" x2="1145" y2="232.50" stroke="#dddddd" stroke-width="1"/>
<text x="104" y="237.50" text-anchor="end" font-family="Arial" font-size="16" fill="black">-31.78</text>
<line x1="120" y1="75.00" x2="1145" y2="75.00" stroke="#dddddd" stroke-width="1"/>
<text x="104" y="80.00" text-anchor="end" font-family="Arial" font-size="16" fill="black">-31.73</text>
<rect x="120" y="75" width="1025" height="630" fill="none" stroke="black" stroke-width="2"/>
<text x="632.5" y="785" text-anchor="middle" font-family="Arial" font-size="20" fill="black">x coordinate [m]</text>
<text x="34" y="390.0" transform="rotate(-90 34 390.0)" text-anchor="middle" font-family="Arial" font-size="20" fill="black">p [Pa]</text>
<polyline points="190.69,118.45 193.64,124.48 196.58,127.50 199.53,133.53 202.47,139.57 205.42,145.60 208.36,154.66 211.31,160.69 214.25,169.74 217.20,175.78 220.14,181.81 223.09,190.86 226.03,196.90 228.98,202.93 231.93,205.95 234.87,211.98 237.82,215.00 240.76,221.03 243.71,224.05 246.65,227.07 249.60,230.09 252.54,233.10 255.49,236.12 258.43,236.12 261.38,236.12 264.32,239.14 267.27,239.14 270.22,239.14 273.16,239.14 276.11,236.12 279.05,236.12 282.00,236.12 284.94,233.10 287.89,233.10 290.83,230.09 293.78,227.07 296.72,227.07 299.67,224.05 302.62,221.03 305.56,218.02 308.51,215.00 311.45,211.98 314.40,208.97 317.34,205.95 320.29,202.93 323.23,202.93 326.17,199.91 329.13,196.90 332.07,196.90 335.01,193.88 337.96,193.88 340.91,190.86 343.85,190.86 346.80,190.86 349.74,190.86 352.68,190.86 355.64,193.88 358.58,193.88 361.52,196.90 364.47,196.90 367.41,199.91 370.35,202.93 373.31,208.97 376.25,211.98 379.19,215.00 382.15,221.03 385.09,227.07 388.03,233.10 390.98,236.12 393.92,245.17 396.86,251.21 399.82,257.24 402.76,266.29 405.70,272.33 408.65,281.38 411.59,287.41 414.54,293.45 417.49,302.50 420.43,308.53 423.37,314.57 426.33,320.60 429.27,326.64 432.21,332.67 435.16,338.71 438.10,341.72 441.04,347.76 444.00,353.79 446.94,356.81 449.88,362.84 452.83,368.88 455.78,374.91 458.72,380.95 461.67,386.98 464.61,393.02 467.55,399.05 470.51,405.09 473.45,414.14 476.39,423.19 479.34,429.22 482.28,438.28 485.23,447.33 488.18,456.38 491.12,465.43 494.06,474.48 497.02,483.53 499.96,492.59 502.90,501.64 505.85,510.69 508.79,519.74 511.73,525.78 514.69,534.83 517.63,543.88 520.57,552.93 523.52,558.97 526.47,568.02 529.41,574.05 532.36,583.10 535.30,589.14 538.24,595.17 541.20,601.21 544.14,610.26 547.08,613.28 550.03,619.31 552.97,625.34 555.92,628.36 558.87,634.40 561.81,637.41 564.75,640.43 567.71,643.45 570.65,649.48 573.59,649.48 576.54,652.50 579.48,655.52 582.42,655.52 585.38,658.53 588.32,658.53 591.26,658.53 594.21,661.55 597.16,661.55 600.10,661.55 603.05,658.53 605.99,658.53 608.93,658.53 611.89,658.53 614.83,658.53 617.77,655.52 620.72,655.52 623.66,652.50 626.60,652.50 629.56,649.48 632.50,649.48 635.44,646.47 638.40,643.45 641.34,640.43 644.28,637.41 647.23,634.40 650.17,631.38 653.11,628.36 656.07,625.34 659.01,622.33 661.95,616.29 664.90,613.28 667.84,607.24 670.79,604.22 673.74,598.19 676.68,592.16 679.62,583.10 682.58,577.07 685.52,568.02 688.46,558.97 691.41,549.91 694.35,540.86 697.29,531.81 700.25,519.74 703.19,507.67 706.13,495.60 709.08,483.53 712.03,468.45 714.97,456.38 717.92,441.29 720.86,426.21 723.80,414.14 726.76,399.05 729.70,386.98 732.64,371.90 735.59,359.83 738.53,347.76 741.48,338.71 744.43,326.64 747.37,317.59 750.31,311.55 753.27,305.52 756.21,299.48 759.15,296.47 762.10,293.45 765.04,293.45 767.98,293.45 770.94,293.45 773.88,296.47 776.82,296.47 779.77,299.48 782.72,302.50 785.66,305.52 788.61,308.53 791.55,311.55 794.49,311.55 797.45,314.57 800.39,314.57 803.33,317.59 806.28,317.59 809.22,320.60 812.17,320.60 815.12,320.60 818.06,320.60 821.00,320.60 823.96,320.60 826.90,320.60 829.84,317.59 832.79,317.59 835.73,317.59 838.67,317.59 841.63,317.59 844.57,314.57 847.51,314.57 850.46,314.57 853.41,311.55 856.35,311.55 859.30,311.55 862.24,311.55 865.18,311.55 868.14,311.55 871.08,311.55 874.02,314.57 876.97,314.57 879.91,317.59 882.85,317.59 885.81,320.60 888.75,323.62 891.69,326.64 894.65,332.67 897.59,335.69 900.53,338.71 903.48,341.72 906.42,347.76 909.36,350.78 912.32,353.79 915.26,356.81 918.20,362.84 921.15,365.86 924.09,368.88 927.04,371.90 929.99,374.91 932.93,377.93 935.87,380.95 938.83,383.97 941.77,383.97 944.71,386.98 947.66,390.00 950.60,390.00 953.54,393.02 956.50,393.02 959.44,393.02 962.38,396.03 965.33,396.03 968.28,396.03 971.22,396.03 974.17,396.03 977.11,396.03 980.05,396.03 983.01,393.02 985.95,393.02 988.89,393.02 991.84,393.02 994.78,390.00 997.73,390.00 1000.68,390.00 1003.62,386.98 1006.56,386.98 1009.52,383.97 1012.46,383.97 1015.40,380.95 1018.35,380.95 1021.29,377.93 1024.23,374.91 1027.19,374.91 1030.13,371.90 1033.07,368.88 1036.02,368.88 1038.97,365.86 1041.91,362.84 1044.86,362.84 1047.80,359.83 1050.74,359.83 1053.70,356.81 1056.64,356.81 1059.58,353.79 1062.53,353.79 1065.47,350.78 1068.42,350.78 1071.37,350.78 1074.31,350.78" fill="none" stroke="#000000" stroke-width="3"/>
<line x1="142" y1="100" x2="178" y2="100" stroke="#000000" stroke-width="4"/>
<text x="188" y="105" font-family="Arial" font-size="18" fill="black">p</text>
</svg>