<svg xmlns="http://www.w3.org/2000/svg" width="1200" height="820" viewBox="0 0 1200 820">
<rect width="100%" height="100%" fill="white"/>
<text x="600.0" y="36" text-anchor="middle" font-family="Arial" font-size="24" fill="black">profile_near_ceiling_x: U:2</text>
<line x1="120.00" y1="75" x2="120.00" y2="705" stroke="#dddddd" stroke-width="1"/>
<text x="120.00" y="737" text-anchor="middle" font-family="Arial" font-size="16" fill="black">-0.560</text>
<line x1="376.25" y1="75" x2="376.25" y2="705" stroke="#dddddd" stroke-width="1"/>
<text x="376.25" y="737" text-anchor="middle" font-family="Arial" font-size="16" fill="black">1.470</text>
<line x1="632.50" y1="75" x2="632.50" y2="705" stroke="#dddddd" stroke-width="1"/>
<text x="632.50" y="737" text-anchor="middle" font-family="Arial" font-size="16" fill="black">3.500</text>
<line x1="888.75" y1="75" x2="888.75" y2="705" stroke="#dddddd" stroke-width="1"/>
<text x="888.75" y="737" text-anchor="middle" font-family="Arial" font-size="16" fill="black">5.530</text>
<line x1="1145.00" y1="75" x2="1145.00" y2="705" stroke="#dddddd" stroke-width="1"/>
<text x="1145.00" y="737" text-anchor="middle" font-family="Arial" font-size="16" fill="black">7.560</text>
<line x1="120" y1="705.00" x2="1145" y2="705.00" stroke="#dddddd" stroke-width="1"/>
<text x="104" y="710.00" text-anchor="end" font-family="Arial" font-size="16" fill="black">-0.166</text>
<line x1="120" y1="547.50" x2="1145" y2="547.50" stroke="#dddddd" stroke-width="1"/>
<text x="104" y="552.50" text-anchor="end" font-family="Arial" font-size="16" fill="black">-0.094</text>
<line x1="120" y1="390.00" x2="1145" y2="390.00" stroke="#dddddd" stroke-width="1"/>
<text x="104" y="395.00" text-anchor="end" font-family="Arial" font-size="16" fill="black">-0.023</text>
<line x1="120" y1="232.50" x2="1145" y2="232.50" stroke="#dddddd" stroke-width="1"/>
<text x="104" y="237.50" text-anchor="end" font-family="Arial" font-size="16" fill="black">0.048</text>
<line x1="120" y1="75.00" x2="1145" y2="75.00" stroke="#dddddd" stroke-width="1"/>
<text x="104" y="80.00" text-anchor="end" font-family="Arial" font-size="16" fill="black">0.119</text>
<rect x="120" y="75" width="1025" height="630" fill="none" stroke="black" stroke-width="2"/>
<text x="632.5" y="785" text-anchor="middle" font-family="Arial" font-size="20" fill="black">x coordinate [m]</text>
<text x="34" y="390.0" transform="rotate(-90 34 390.0)" text-anchor="middle" font-family="Arial" font-size="20" fill="black">U:2 [SI]</text>
<polyline points="190.69,568.70 193.64,560.77 196.58,552.84 199.53,544.91 202.47,536.98 205.42,523.99 208.36,508.97 211.31,493.95 214.25,478.93 217.20,464.68 220.14,451.47 223.09,438.26 226.03,425.05 228.98,412.13 231.93,400.99 234.87,389.85 237.82,378.70 240.76,367.56 243.71,358.18 246.65,349.10 249.60,340.02 252.54,330.94 255.49,322.78 258.43,315.31 261.38,307.84 264.32,300.37 267.27,293.16 270.22,286.60 273.16,280.03 276.11,273.47 279.05,266.91 282.00,260.71 284.94,254.51 287.89,248.31 290.83,242.11 293.78,236.03 296.72,229.99 299.67,223.96 302.62,217.92 305.56,211.97 308.51,206.14 311.45,200.31 314.40,194.49 317.34,188.71 320.29,183.28 323.23,177.84 326.17,172.41 329.13,166.97 332.07,161.97 335.01,157.04 337.96,152.11 340.91,147.18 343.85,142.64 346.80,138.41 349.74,134.17 352.68,129.94 355.64,126.35 358.58,124.37 361.52,122.40 364.47,120.42 367.41,118.45 370.35,120.10 373.31,121.74 376.25,123.39 379.19,125.04 382.15,129.06 385.09,134.03 388.03,139.00 390.98,143.98 393.92,150.48 396.86,159.03 399.82,167.57 402.76,176.11 405.70,185.26 408.65,197.99 411.59,210.73 414.54,223.47 417.49,236.21 420.43,251.86 423.37,268.00 426.33,284.14 429.27,300.28 432.21,316.80 435.16,333.60 438.10,350.39 441.04,367.19 444.00,383.11 446.94,396.85 449.88,410.60 452.83,424.34 455.78,438.08 458.72,446.10 461.67,454.13 464.61,462.16 467.55,470.19 470.51,473.83 473.45,475.72 476.39,477.61 479.34,479.50 482.28,479.46 485.23,476.85 488.18,474.24 491.12,471.63 494.06,468.72 497.02,464.03 499.96,459.34 502.90,454.64 505.85,449.95 508.79,444.84 511.73,439.65 514.69,434.46 517.63,429.28 520.57,424.15 523.52,419.05 526.47,413.96 529.41,408.86 532.36,403.85 535.30,399.03 538.24,394.21 541.20,389.39 544.14,384.58 547.08,379.96 550.03,375.35 552.97,370.74 555.92,366.13 558.87,361.57 561.81,357.04 564.75,352.51 567.71,347.97 570.65,343.49 573.59,339.07 576.54,334.66 579.48,330.24 582.42,325.87 585.38,321.83 588.32,317.78 591.26,313.74 594.21,309.69 597.16,306.12 600.10,302.62 603.05,299.13 605.99,295.63 608.93,292.75 611.89,290.32 614.83,287.89 617.77,285.46 620.72,283.68 623.66,283.56 626.60,283.43 629.56,283.30 632.50,283.17 635.44,285.73 638.40,288.30 641.34,290.86 644.28,293.43 647.23,297.67 650.17,302.57 653.11,307.48 656.07,312.39 659.01,318.37 661.95,325.77 664.90,333.18 667.84,340.58 670.79,348.34 673.74,358.28 676.68,368.22 679.62,378.16 682.58,388.10 685.52,400.02 688.46,412.28 691.41,424.54 694.35,436.79 697.29,450.16 700.25,464.35 703.19,478.54 706.13,492.74 709.08,507.17 712.03,522.19 714.97,537.21 717.92,552.23 720.86,567.24 723.80,581.01 726.76,594.79 729.70,608.54 732.64,622.31 735.59,632.19 738.53,640.51 741.48,648.84 744.43,657.17 747.37,661.55 750.31,660.67 753.27,659.78 756.21,658.89 759.15,656.92 762.10,648.46 765.04,639.98 767.98,631.52 770.94,623.06 773.88,612.83 776.82,602.34 779.77,591.82 782.72,581.32 785.66,572.02 788.61,563.63 791.55,555.24 794.49,546.85 797.45,539.32 800.39,533.92 803.33,528.52 806.28,523.13 809.22,517.73 812.17,514.66 815.12,511.58 818.06,508.51 821.00,505.43 823.96,503.52 826.90,502.08 829.84,500.64 832.79,499.20 835.73,498.17 838.67,497.68 841.63,497.20 844.57,496.72 847.51,496.21 850.46,495.52 853.41,494.83 856.35,494.14 859.30,493.45 862.24,491.35 865.18,489.02 868.14,486.68 871.08,484.35 874.02,480.41 876.97,475.27 879.91,470.13 882.85,464.99 885.81,459.36 888.75,452.49 891.69,445.62 894.65,438.75 897.59,431.88 900.53,425.79 903.48,419.70 906.42,413.61 909.36,407.52 912.32,403.22 915.26,399.63 918.20,396.04 921.15,392.46 924.09,390.21 927.04,389.77 929.99,389.32 932.93,388.87 935.87,388.76 938.83,390.68 941.77,392.60 944.71,394.52 947.66,396.44 950.60,399.36 953.54,402.45 956.50,405.54 959.44,408.62 962.38,411.71 965.33,414.80 968.28,417.89 971.22,420.98 974.17,423.77 977.11,425.83 980.05,427.89 983.01,429.94 985.95,432.00 988.89,432.42 991.84,432.85 994.78,433.27 997.73,433.69 1000.68,432.85 1003.62,431.51 1006.56,430.16 1009.52,428.81 1012.46,426.84 1015.40,424.01 1018.35,421.19 1021.29,418.37 1024.23,415.42 1027.19,411.69 1030.13,407.97 1033.07,404.24 1036.02,400.51 1038.97,396.48 1041.91,392.39 1044.86,388.31 1047.80,384.23 1050.74,380.70 1053.70,377.60 1056.64,374.49 1059.58,371.38 1062.53,368.87 1065.47,367.84 1068.42,366.81 1071.37,365.78 1074.31,364.75" fill="none" stroke="#000000" stroke-width="3"/>
<line x1="142" y1="100" x2="178" y2="100" stroke="#000000" stroke-width="4"/>
<text x="188" y="105" font-family="Arial" font-size="18" fill="black">U:2</text>
</svg>