<svg xmlns="http://www.w3.org/2000/svg" width="1200" height="820" viewBox="0 0 1200 820">
<rect width="100%" height="100%" fill="white"/>
<text x="600.0" y="36" text-anchor="middle" font-family="Arial" font-size="24" fill="black">profile_rack_height_x: k</text>
<line x1="120.00" y1="75" x2="120.00" y2="705" stroke="#dddddd" stroke-width="1"/>
<text x="120.00" y="737" text-anchor="middle" font-family="Arial" font-size="16" fill="black">-0.560</text>
<line x1="376.25" y1="75" x2="376.25" y2="705" stroke="#dddddd" stroke-width="1"/>
<text x="376.25" y="737" text-anchor="middle" font-family="Arial" font-size="16" fill="black">1.470</text>
<line x1="632.50" y1="75" x2="632.50" y2="705" stroke="#dddddd" stroke-width="1"/>
<text x="632.50" y="737" text-anchor="middle" font-family="Arial" font-size="16" fill="black">3.500</text>
<line x1="888.75" y1="75" x2="888.75" y2="705" stroke="#dddddd" stroke-width="1"/>
<text x="888.75" y="737" text-anchor="middle" font-family="Arial" font-size="16" fill="black">5.530</text>
<line x1="1145.00" y1="75" x2="1145.00" y2="705" stroke="#dddddd" stroke-width="1"/>
<text x="1145.00" y="737" text-anchor="middle" font-family="Arial" font-size="16" fill="black">7.560</text>
<line x1="120" y1="705.00" x2="1145" y2="705.00" stroke="#dddddd" stroke-width="1"/>
<text x="104" y="710.00" text-anchor="end" font-family="Arial" font-size="16" fill="black">0.002</text>
<line x1="120" y1="547.50" x2="1145" y2="547.50" stroke="#dddddd" stroke-width="1"/>
<text x="104" y="552.50" text-anchor="end" font-family="Arial" font-size="16" fill="black">0.009</text>
<line x1="120" y1="390.00" x2="1145" y2="390.00" stroke="#dddddd" stroke-width="1"/>
<text x="104" y="395.00" text-anchor="end" font-family="Arial" font-size="16" fill="black">0.016</text>
<line x1="120" y1="232.50" x2="1145" y2="232.50" stroke="#dddddd" stroke-width="1"/>
<text x="104" y="237.50" text-anchor="end" font-family="Arial" font-size="16" fill="black">0.023</text>
<line x1="120" y1="75.00" x2="1145" y2="75.00" stroke="#dddddd" stroke-width="1"/>
<text x="104" y="80.00" text-anchor="end" font-family="Arial" font-size="16" fill="black">0.030</text>
<rect x="120" y="75" width="1025" height="630" fill="none" stroke="black" stroke-width="2"/>
<text x="632.5" y="785" text-anchor="middle" font-family="Arial" font-size="20" fill="black">x coordinate [m]</text>
<text x="34" y="390.0" transform="rotate(-90 34 390.0)" text-anchor="middle" font-family="Arial" font-size="20" fill="black">k [m2/s2]</text>
<polyline points="190.69,661.55 193.64,653.43 196.58,645.30 199.53,637.18 202.47,629.05 205.42,616.33 208.36,601.76 211.31,587.19 214.25,572.62 217.20,559.29 220.14,547.63 223.09,535.97 226.03,524.30 228.98,512.91 231.93,503.09 234.87,493.26 237.82,483.44 240.76,473.62 243.71,464.51 246.65,455.51 249.60,446.51 252.54,437.50 255.49,428.64 258.43,419.83 261.38,411.03 264.32,402.23 267.27,393.47 270.22,384.78 273.16,376.09 276.11,367.40 279.05,358.71 282.00,350.68 284.94,342.64 287.89,334.61 290.83,326.59 293.78,319.78 296.72,313.46 299.67,307.14 302.62,300.82 305.56,295.66 308.51,292.04 311.45,288.43 314.40,284.79 317.34,281.58 320.29,280.78 323.23,279.98 326.17,279.18 329.13,278.39 332.07,279.25 335.01,280.36 337.96,281.49 340.91,282.62 343.85,284.33 346.80,286.46 349.74,288.61 352.68,290.74 355.64,292.97 358.58,295.46 361.52,297.96 364.47,300.45 367.41,302.93 370.35,304.70 373.31,306.48 376.25,308.27 379.19,310.05 382.15,310.42 385.09,310.27 388.03,310.09 390.98,309.91 393.92,308.61 396.86,305.79 399.82,302.97 402.76,300.16 405.70,297.08 408.65,292.51 411.59,287.94 414.54,283.40 417.49,278.83 420.43,274.68 423.37,270.63 426.33,266.57 429.27,262.51 432.21,259.72 435.16,257.88 438.10,256.04 441.04,254.20 444.00,253.02 446.94,253.56 449.88,254.09 452.83,254.62 455.78,255.15 458.72,257.19 461.67,259.25 464.61,261.29 467.55,263.33 470.51,265.90 473.45,268.68 476.39,271.45 479.34,274.20 482.28,277.10 485.23,280.16 488.18,283.22 491.12,286.28 494.06,289.32 497.02,292.31 499.96,295.30 502.90,298.27 505.85,301.27 508.79,303.77 511.73,306.19 514.69,308.58 517.63,311.00 520.57,312.80 523.52,314.15 526.47,315.48 529.41,316.83 532.36,317.74 535.30,317.61 538.24,317.45 541.20,317.32 544.14,317.16 547.08,315.08 550.03,312.99 552.97,310.91 555.92,308.80 558.87,304.86 561.81,300.14 564.75,295.44 567.71,290.74 570.65,284.64 573.59,276.68 576.54,268.74 579.48,260.78 582.42,252.40 585.38,241.36 588.32,230.32 591.26,219.28 594.21,208.24 597.16,196.36 600.10,184.32 603.05,172.30 605.99,160.26 608.93,150.35 611.89,142.04 614.83,133.72 617.77,125.39 620.72,119.38 623.66,119.14 626.60,118.91 629.56,118.67 632.50,118.45 635.44,126.25 638.40,134.03 641.34,141.84 644.28,149.64 647.23,160.42 650.17,172.37 653.11,184.34 656.07,196.29 659.01,208.11 661.95,219.70 664.90,231.30 667.84,242.89 670.79,254.00 673.74,262.07 676.68,270.14 679.62,278.21 682.58,286.28 685.52,290.34 688.46,293.71 691.41,297.08 694.35,300.47 697.29,301.42 700.25,300.58 703.19,299.71 706.13,298.87 709.08,297.21 712.03,293.48 714.97,289.76 717.92,286.04 720.86,282.31 723.80,277.19 726.76,272.07 729.70,266.95 732.64,261.83 735.59,256.50 738.53,251.12 741.48,245.73 744.43,240.32 747.37,235.15 750.31,230.25 753.27,225.35 756.21,220.46 759.15,215.71 762.10,211.90 765.04,208.06 767.98,204.25 770.94,200.44 773.88,198.00 776.82,195.80 779.77,193.61 782.72,191.39 785.66,190.41 788.61,190.33 791.55,190.24 794.49,190.17 797.45,190.77 800.39,193.10 803.33,195.45 806.28,197.77 809.22,200.10 812.17,204.67 815.12,209.24 818.06,213.78 821.00,218.35 823.96,223.91 826.90,229.88 829.84,235.86 832.79,241.83 835.73,247.99 838.67,254.40 841.63,260.81 844.57,267.21 847.51,273.71 850.46,280.63 853.41,287.57 856.35,294.48 859.30,301.40 862.24,309.03 865.18,316.76 868.14,324.50 871.08,332.22 874.02,339.64 876.97,346.87 879.91,354.08 882.85,361.28 885.81,367.25 888.75,370.13 891.69,373.03 894.65,375.92 897.59,378.80 900.53,375.14 903.48,371.50 906.42,367.84 909.36,364.21 912.32,358.64 915.26,352.30 918.20,345.96 921.15,339.64 924.09,333.99 927.04,329.27 929.99,324.52 932.93,319.80 935.87,315.54 938.83,314.15 941.77,312.77 944.71,311.38 947.66,309.98 950.60,312.17 953.54,314.95 956.50,317.72 959.44,320.49 962.38,325.08 965.33,331.04 968.28,336.98 971.22,342.95 974.17,349.18 977.11,356.12 980.05,363.03 983.01,369.97 985.95,376.91 988.89,382.50 991.84,388.11 994.78,393.72 997.73,399.33 1000.68,403.10 1003.62,406.13 1006.56,409.17 1009.52,412.21 1012.46,414.36 1015.40,415.33 1018.35,416.33 1021.29,417.31 1024.23,418.33 1027.19,419.55 1030.13,420.77 1033.07,421.99 1036.02,423.20 1038.97,427.75 1041.91,432.83 1044.86,437.93 1047.80,443.00 1050.74,455.53 1053.70,473.62 1056.64,491.71 1059.58,509.78 1062.53,526.72 1065.47,540.77 1068.42,554.82 1071.37,568.87 1074.31,582.92" fill="none" stroke="#000000" stroke-width="3"/>
<line x1="142" y1="100" x2="178" y2="100" stroke="#000000" stroke-width="4"/>
<text x="188" y="105" font-family="Arial" font-size="18" fill="black">k</text>
</svg>