<svg xmlns="http://www.w3.org/2000/svg" width="1200" height="820" viewBox="0 0 1200 820">
<rect width="100%" height="100%" fill="white"/>
<text x="600.0" y="36" text-anchor="middle" font-family="Arial" font-size="24" fill="black">profile_near_floor_x: nut</text>
<line x1="120.00" y1="75" x2="120.00" y2="705" stroke="#dddddd" stroke-width="1"/>
<text x="120.00" y="737" text-anchor="middle" font-family="Arial" font-size="16" fill="black">-0.560</text>
<line x1="376.25" y1="75" x2="376.25" y2="705" stroke="#dddddd" stroke-width="1"/>
<text x="376.25" y="737" text-anchor="middle" font-family="Arial" font-size="16" fill="black">1.470</text>
<line x1="632.50" y1="75" x2="632.50" y2="705" stroke="#dddddd" stroke-width="1"/>
<text x="632.50" y="737" text-anchor="middle" font-family="Arial" font-size="16" fill="black">3.500</text>
<line x1="888.75" y1="75" x2="888.75" y2="705" stroke="#dddddd" stroke-width="1"/>
<text x="888.75" y="737" text-anchor="middle" font-family="Arial" font-size="16" fill="black">5.530</text>
<line x1="1145.00" y1="75" x2="1145.00" y2="705" stroke="#dddddd" stroke-width="1"/>
<text x="1145.00" y="737" text-anchor="middle" font-family="Arial" font-size="16" fill="black">7.560</text>
<line x1="120" y1="705.00" x2="1145" y2="705.00" stroke="#dddddd" stroke-width="1"/>
<text x="104" y="710.00" text-anchor="end" font-family="Arial" font-size="16" fill="black">2.41e-04</text>
<line x1="120" y1="547.50" x2="1145" y2="547.50" stroke="#dddddd" stroke-width="1"/>
<text x="104" y="552.50" text-anchor="end" font-family="Arial" font-size="16" fill="black">0.002</text>
<line x1="120" y1="390.00" x2="1145" y2="390.00" stroke="#dddddd" stroke-width="1"/>
<text x="104" y="395.00" text-anchor="end" font-family="Arial" font-size="16" fill="black">0.003</text>
<line x1="120" y1="232.50" x2="1145" y2="232.50" stroke="#dddddd" stroke-width="1"/>
<text x="104" y="237.50" text-anchor="end" font-family="Arial" font-size="16" fill="black">0.005</text>
<line x1="120" y1="75.00" x2="1145" y2="75.00" stroke="#dddddd" stroke-width="1"/>
<text x="104" y="80.00" text-anchor="end" font-family="Arial" font-size="16" fill="black">0.006</text>
<rect x="120" y="75" width="1025" height="630" fill="none" stroke="black" stroke-width="2"/>
<text x="632.5" y="785" text-anchor="middle" font-family="Arial" font-size="20" fill="black">x coordinate [m]</text>
<text x="34" y="390.0" transform="rotate(-90 34 390.0)" text-anchor="middle" font-family="Arial" font-size="20" fill="black">nut [m2/s]</text>
<polyline points="190.69,661.55 193.64,649.50 196.58,637.44 199.53,625.39 202.47,613.33 205.42,597.00 208.36,578.96 211.31,560.91 214.25,542.86 217.20,528.85 220.14,520.20 223.09,511.55 226.03,502.91 228.98,495.06 231.93,491.97 234.87,488.88 237.82,485.79 240.76,482.71 243.71,483.09 246.65,484.05 249.60,485.02 252.54,485.99 255.49,489.03 258.43,493.62 261.38,498.21 264.32,502.79 267.27,508.24 270.22,515.79 273.16,523.34 276.11,530.90 279.05,538.45 282.00,546.48 284.94,554.50 287.89,562.53 290.83,570.55 293.78,579.30 296.72,588.33 299.67,597.35 302.62,606.38 305.56,614.35 308.51,620.92 311.45,627.48 314.40,634.05 317.34,639.85 320.29,641.03 323.23,642.21 326.17,643.39 329.13,644.57 332.07,644.71 335.01,644.68 337.96,644.64 340.91,644.61 343.85,644.56 346.80,644.50 349.74,644.44 352.68,644.38 355.64,644.30 358.58,644.17 361.52,644.05 364.47,643.92 367.41,643.80 370.35,643.58 373.31,643.35 376.25,643.13 379.19,642.91 382.15,642.33 385.09,641.60 388.03,640.87 390.98,640.14 393.92,638.03 396.86,634.06 399.82,630.09 402.76,626.13 405.70,617.55 408.65,581.28 411.59,545.01 414.54,508.75 417.49,472.49 420.43,428.66 423.37,383.59 426.33,338.51 429.27,293.44 432.21,263.64 435.16,245.30 438.10,226.94 441.04,208.60 444.00,193.31 446.94,185.64 449.88,177.98 452.83,170.31 455.78,162.65 458.72,162.18 461.67,161.71 464.61,161.25 467.55,160.77 470.51,163.16 473.45,166.69 476.39,170.22 479.34,173.75 482.28,178.29 485.23,184.18 488.18,190.06 491.12,195.96 494.06,202.06 497.02,209.44 499.96,216.82 502.90,224.20 505.85,231.58 508.79,239.79 511.73,248.13 514.69,256.47 517.63,264.80 520.57,273.77 523.52,283.19 526.47,292.60 529.41,302.03 532.36,311.69 535.30,321.94 538.24,332.21 541.20,342.47 544.14,352.73 547.08,363.84 550.03,374.95 552.97,386.06 555.92,397.17 558.87,412.48 561.81,429.48 564.75,446.47 567.71,463.47 570.65,483.98 573.59,509.20 576.54,534.40 579.48,559.61 582.42,583.29 585.38,597.77 588.32,612.25 591.26,626.72 594.21,641.20 597.16,643.56 600.10,643.89 603.05,644.23 605.99,644.57 608.93,644.70 611.89,644.69 614.83,644.67 617.77,644.66 620.72,644.64 623.66,644.63 626.60,644.62 629.56,644.61 632.50,644.60 635.44,644.58 638.40,644.57 641.34,644.56 644.28,644.55 647.23,644.55 650.17,644.56 653.11,644.56 656.07,644.57 659.01,644.47 661.95,644.23 664.90,643.99 667.84,643.75 670.79,641.81 673.74,629.66 676.68,617.50 679.62,605.35 682.58,593.19 685.52,568.80 688.46,542.37 691.41,515.93 694.35,489.51 697.29,466.32 700.25,445.58 703.19,424.83 706.13,404.08 709.08,385.69 712.03,373.17 714.97,360.65 717.92,348.12 720.86,335.60 723.80,322.62 726.76,309.66 729.70,296.68 732.64,283.71 735.59,271.03 738.53,258.49 741.48,245.93 744.43,233.39 747.37,221.84 750.31,211.63 753.27,201.43 756.21,191.23 759.15,181.44 762.10,174.15 765.04,166.85 767.98,159.55 770.94,152.25 773.88,146.86 776.82,141.80 779.77,136.73 782.72,131.65 785.66,127.93 788.61,125.20 791.55,122.49 794.49,119.77 797.45,118.45 800.39,120.62 803.33,122.79 806.28,124.97 809.22,127.14 812.17,139.83 815.12,152.51 818.06,165.20 821.00,177.89 823.96,200.42 826.90,226.89 829.84,253.36 832.79,279.83 835.73,314.99 838.67,361.76 841.63,408.52 844.57,455.28 847.51,499.97 850.46,532.23 853.41,564.50 856.35,596.76 859.30,629.02 862.24,635.57 865.18,637.84 868.14,640.10 871.08,642.36 874.02,643.47 876.97,643.70 879.91,643.93 882.85,644.17 885.81,644.36 888.75,644.44 891.69,644.51 894.65,644.59 897.59,644.67 900.53,644.70 903.48,644.72 906.42,644.75 909.36,644.78 912.32,644.73 915.26,644.65 918.20,644.57 921.15,644.49 924.09,644.34 927.04,644.10 929.99,643.85 932.93,643.60 935.87,643.06 938.83,640.76 941.77,638.45 944.71,636.15 947.66,633.85 950.60,628.07 953.54,621.71 956.50,615.35 959.44,609.01 962.38,601.46 965.33,593.03 968.28,584.59 971.22,576.16 974.17,568.09 977.11,560.89 980.05,553.71 983.01,546.52 985.95,539.33 988.89,535.14 991.84,530.93 994.78,526.73 997.73,522.54 1000.68,519.87 1003.62,517.81 1006.56,515.76 1009.52,513.70 1012.46,511.64 1015.40,509.54 1018.35,507.45 1021.29,505.36 1024.23,503.35 1027.19,501.85 1030.13,500.33 1033.07,498.82 1036.02,497.32 1038.97,500.82 1041.91,505.17 1044.86,509.52 1047.80,513.85 1050.74,525.56 1053.70,542.78 1056.64,560.00 1059.58,577.22 1062.53,593.13 1065.47,605.75 1068.42,618.37 1071.37,630.98 1074.31,643.60" fill="none" stroke="#000000" stroke-width="3"/>
<line x1="142" y1="100" x2="178" y2="100" stroke="#000000" stroke-width="4"/>
<text x="188" y="105" font-family="Arial" font-size="18" fill="black">nut</text>
</svg>