<svg xmlns="http://www.w3.org/2000/svg" width="1200" height="820" viewBox="0 0 1200 820">
<rect width="100%" height="100%" fill="white"/>
<text x="600.0" y="36" text-anchor="middle" font-family="Arial" font-size="24" fill="black">profile_near_floor_x: p_rgh</text>
<line x1="120.00" y1="75" x2="120.00" y2="705" stroke="#dddddd" stroke-width="1"/>
<text x="120.00" y="737" text-anchor="middle" font-family="Arial" font-size="16" fill="black">-0.560</text>
<line x1="376.25" y1="75" x2="376.25" y2="705" stroke="#dddddd" stroke-width="1"/>
<text x="376.25" y="737" text-anchor="middle" font-family="Arial" font-size="16" fill="black">1.470</text>
<line x1="632.50" y1="75" x2="632.50" y2="705" stroke="#dddddd" stroke-width="1"/>
<text x="632.50" y="737" text-anchor="middle" font-family="Arial" font-size="16" fill="black">3.500</text>
<line x1="888.75" y1="75" x2="888.75" y2="705" stroke="#dddddd" stroke-width="1"/>
<text x="888.75" y="737" text-anchor="middle" font-family="Arial" font-size="16" fill="black">5.530</text>
<line x1="1145.00" y1="75" x2="1145.00" y2="705" stroke="#dddddd" stroke-width="1"/>
<text x="1145.00" y="737" text-anchor="middle" font-family="Arial" font-size="16" fill="black">7.560</text>
<line x1="120" y1="705.00" x2="1145" y2="705.00" stroke="#dddddd" stroke-width="1"/>
<text x="104" y="710.00" text-anchor="end" font-family="Arial" font-size="16" fill="black">0.371</text>
<line x1="120" y1="547.50" x2="1145" y2="547.50" stroke="#dddddd" stroke-width="1"/>
<text x="104" y="552.50" text-anchor="end" font-family="Arial" font-size="16" fill="black">0.479</text>
<line x1="120" y1="390.00" x2="1145" y2="390.00" stroke="#dddddd" stroke-width="1"/>
<text x="104" y="395.00" text-anchor="end" font-family="Arial" font-size="16" fill="black">0.588</text>
<line x1="120" y1="232.50" x2="1145" y2="232.50" stroke="#dddddd" stroke-width="1"/>
<text x="104" y="237.50" text-anchor="end" font-family="Arial" font-size="16" fill="black">0.697</text>
<line x1="120" y1="75.00" x2="1145" y2="75.00" stroke="#dddddd" stroke-width="1"/>
<text x="104" y="80.00" text-anchor="end" font-family="Arial" font-size="16" fill="black">0.806</text>
<rect x="120" y="75" width="1025" height="630" fill="none" stroke="black" stroke-width="2"/>
<text x="632.5" y="785" text-anchor="middle" font-family="Arial" font-size="20" fill="black">x coordinate [m]</text>
<text x="34" y="390.0" transform="rotate(-90 34 390.0)" text-anchor="middle" font-family="Arial" font-size="20" fill="black">p_rgh [Pa]</text>
<polyline points="190.69,633.27 193.64,635.36 196.58,637.46 199.53,639.56 202.47,641.66 205.42,644.48 208.36,647.60 211.31,650.71 214.25,653.83 217.20,656.20 220.14,657.60 223.09,658.99 226.03,660.39 228.98,661.55 231.93,661.25 234.87,660.94 237.82,660.65 240.76,660.35 243.71,658.35 246.65,656.07 249.60,653.78 252.54,651.48 255.49,648.62 258.43,645.29 261.38,641.98 264.32,638.66 267.27,635.42 270.22,632.40 273.16,629.36 276.11,626.34 279.05,623.31 282.00,620.87 284.94,618.44 287.89,616.00 290.83,613.56 293.78,611.14 296.72,608.71 299.67,606.30 302.62,603.87 305.56,594.85 308.51,577.03 311.45,559.22 314.40,541.41 317.34,523.00 320.29,501.07 323.23,479.12 326.17,457.18 329.13,435.25 332.07,423.68 335.01,413.84 337.96,404.00 340.91,394.16 343.85,385.10 346.80,376.64 349.74,368.16 352.68,359.70 355.64,351.16 358.58,342.45 361.52,333.75 364.47,325.04 367.41,316.35 370.35,305.76 373.31,295.18 376.25,284.60 379.19,274.01 382.15,261.22 385.09,247.55 388.03,233.86 390.98,220.19 393.92,203.77 396.86,183.70 399.82,163.65 402.76,143.58 405.70,126.12 408.65,124.19 411.59,122.28 414.54,120.36 417.49,118.45 420.43,129.79 423.37,143.36 426.33,156.92 429.27,170.48 432.21,179.11 435.16,184.08 438.10,189.04 441.04,194.00 444.00,198.50 446.94,201.87 449.88,205.24 452.83,208.62 455.78,211.99 458.72,215.34 461.67,218.70 464.61,222.04 467.55,225.40 470.51,229.31 473.45,233.43 476.39,237.55 479.34,241.69 482.28,246.42 485.23,251.98 488.18,257.52 491.12,263.08 494.06,268.92 497.02,276.47 499.96,284.03 502.90,291.58 505.85,299.13 508.79,308.45 511.73,318.07 514.69,327.68 517.63,337.28 520.57,347.33 523.52,357.68 526.47,368.04 529.41,378.40 532.36,388.07 535.30,395.97 538.24,403.88 541.20,411.78 544.14,419.68 547.08,421.20 550.03,422.72 552.97,424.25 555.92,425.77 558.87,422.40 561.81,417.09 564.75,411.77 567.71,406.46 570.65,394.55 573.59,373.86 576.54,353.17 579.48,332.47 582.42,312.46 585.38,296.47 588.32,280.50 591.26,264.52 594.21,248.53 597.16,244.77 600.10,243.05 603.05,241.33 605.99,239.59 608.93,237.22 611.89,234.36 614.83,231.49 617.77,228.63 620.72,226.66 623.66,226.89 626.60,227.12 629.56,227.35 632.50,227.58 635.44,230.17 638.40,232.78 641.34,235.37 644.28,237.97 647.23,242.91 650.17,248.79 653.11,254.67 656.07,260.56 659.01,266.55 661.95,272.70 664.90,278.85 667.84,284.99 670.79,293.24 673.74,314.11 676.68,334.97 679.62,355.83 682.58,376.70 685.52,397.70 688.46,418.74 691.41,439.76 694.35,460.80 697.29,470.91 700.25,472.84 703.19,474.78 706.13,476.70 709.08,476.92 712.03,472.87 714.97,468.80 717.92,464.75 720.86,460.70 723.80,453.70 726.76,446.68 729.70,439.68 732.64,432.66 735.59,426.84 738.53,421.49 741.48,416.14 744.43,410.78 747.37,406.37 750.31,403.25 753.27,400.11 756.21,396.97 759.15,393.99 762.10,391.92 765.04,389.85 767.98,387.76 770.94,385.70 773.88,384.00 776.82,382.37 779.77,380.73 782.72,379.10 785.66,377.45 788.61,375.77 791.55,374.08 794.49,372.40 797.45,370.52 800.39,368.15 803.33,365.77 806.28,363.40 809.22,361.03 812.17,357.81 815.12,354.62 818.06,351.42 821.00,348.22 823.96,344.45 826.90,340.44 829.84,336.43 832.79,332.42 835.73,324.99 838.67,312.98 841.63,300.97 844.57,288.97 847.51,278.08 850.46,273.87 853.41,269.64 856.35,265.43 859.30,261.22 862.24,267.60 865.18,275.76 868.14,283.92 871.08,292.08 874.02,298.45 876.97,303.47 879.91,308.51 882.85,313.53 885.81,318.50 888.75,323.32 891.69,328.14 894.65,332.96 897.59,337.78 900.53,343.36 903.48,348.96 906.42,354.56 909.36,360.14 912.32,367.41 915.26,375.35 918.20,383.29 921.15,391.22 924.09,400.92 927.04,412.95 929.99,424.99 932.93,437.03 935.87,451.28 938.83,478.89 941.77,506.48 944.71,534.08 947.66,561.68 950.60,583.13 953.54,603.58 956.50,624.01 959.44,644.45 962.38,651.84 965.33,649.44 968.28,647.05 971.22,644.65 974.17,641.53 977.11,636.55 980.05,631.57 983.01,626.60 985.95,621.62 988.89,618.23 991.84,614.85 994.78,611.46 997.73,608.08 1000.68,606.60 1003.62,605.89 1006.56,605.18 1009.52,604.47 1012.46,604.47 1015.40,605.41 1018.35,606.37 1021.29,607.32 1024.23,608.28 1027.19,609.31 1030.13,610.33 1033.07,611.36 1036.02,612.39 1038.97,612.46 1041.91,612.39 1044.86,612.30 1047.80,612.21 1050.74,610.32 1053.70,607.06 1056.64,603.81 1059.58,600.55 1062.53,597.41 1065.47,594.56 1068.42,591.70 1071.37,588.83 1074.31,585.97" fill="none" stroke="#000000" stroke-width="3"/>
<line x1="142" y1="100" x2="178" y2="100" stroke="#000000" stroke-width="4"/>
<text x="188" y="105" font-family="Arial" font-size="18" fill="black">p_rgh</text>
</svg>