<svg xmlns="http://www.w3.org/2000/svg" width="1200" height="820" viewBox="0 0 1200 820">
<rect width="100%" height="100%" fill="white"/>
<text x="600.0" y="36" text-anchor="middle" font-family="Arial" font-size="24" fill="black">profile_rack_height_x: U:2</text>
<line x1="120.00" y1="75" x2="120.00" y2="705" stroke="#dddddd" stroke-width="1"/>
<text x="120.00" y="737" text-anchor="middle" font-family="Arial" font-size="16" fill="black">-0.560</text>
<line x1="376.25" y1="75" x2="376.25" y2="705" stroke="#dddddd" stroke-width="1"/>
<text x="376.25" y="737" text-anchor="middle" font-family="Arial" font-size="16" fill="black">1.470</text>
<line x1="632.50" y1="75" x2="632.50" y2="705" stroke="#dddddd" stroke-width="1"/>
<text x="632.50" y="737" text-anchor="middle" font-family="Arial" font-size="16" fill="black">3.500</text>
<line x1="888.75" y1="75" x2="888.75" y2="705" stroke="#dddddd" stroke-width="1"/>
<text x="888.75" y="737" text-anchor="middle" font-family="Arial" font-size="16" fill="black">5.530</text>
<line x1="1145.00" y1="75" x2="1145.00" y2="705" stroke="#dddddd" stroke-width="1"/>
<text x="1145.00" y="737" text-anchor="middle" font-family="Arial" font-size="16" fill="black">7.560</text>
<line x1="120" y1="705.00" x2="1145" y2="705.00" stroke="#dddddd" stroke-width="1"/>
<text x="104" y="710.00" text-anchor="end" font-family="Arial" font-size="16" fill="black">-0.478</text>
<line x1="120" y1="547.50" x2="1145" y2="547.50" stroke="#dddddd" stroke-width="1"/>
<text x="104" y="552.50" text-anchor="end" font-family="Arial" font-size="16" fill="black">-0.242</text>
<line x1="120" y1="390.00" x2="1145" y2="390.00" stroke="#dddddd" stroke-width="1"/>
<text x="104" y="395.00" text-anchor="end" font-family="Arial" font-size="16" fill="black">-0.006</text>
<line x1="120" y1="232.50" x2="1145" y2="232.50" stroke="#dddddd" stroke-width="1"/>
<text x="104" y="237.50" text-anchor="end" font-family="Arial" font-size="16" fill="black">0.230</text>
<line x1="120" y1="75.00" x2="1145" y2="75.00" stroke="#dddddd" stroke-width="1"/>
<text x="104" y="80.00" text-anchor="end" font-family="Arial" font-size="16" fill="black">0.466</text>
<rect x="120" y="75" width="1025" height="630" fill="none" stroke="black" stroke-width="2"/>
<text x="632.5" y="785" text-anchor="middle" font-family="Arial" font-size="20" fill="black">x coordinate [m]</text>
<text x="34" y="390.0" transform="rotate(-90 34 390.0)" text-anchor="middle" font-family="Arial" font-size="20" fill="black">U:2 [SI]</text>
<polyline points="190.69,419.09 193.64,418.42 196.58,417.76 199.53,417.09 202.47,416.42 205.42,415.19 208.36,413.74 211.31,412.28 214.25,410.83 217.20,409.27 220.14,407.58 223.09,405.89 226.03,404.20 228.98,402.48 231.93,400.56 234.87,398.65 237.82,396.73 240.76,394.81 243.71,392.69 246.65,390.53 249.60,388.37 252.54,386.22 255.49,383.93 258.43,381.56 261.38,379.18 264.32,376.80 267.27,374.40 270.22,371.94 273.16,369.47 276.11,367.01 279.05,364.55 282.00,362.30 284.94,360.06 287.89,357.81 290.83,355.57 293.78,353.82 296.72,352.27 299.67,350.72 302.62,349.16 305.56,348.11 308.51,347.71 311.45,347.31 314.40,346.91 317.34,346.70 320.29,347.64 323.23,348.57 326.17,349.51 329.13,350.45 332.07,352.26 335.01,354.22 337.96,356.18 340.91,358.14 343.85,360.39 346.80,362.87 349.74,365.35 352.68,367.83 355.64,370.45 358.58,373.42 361.52,376.40 364.47,379.37 367.41,382.34 370.35,386.36 373.31,390.37 376.25,394.39 379.19,398.41 382.15,403.30 385.09,408.54 388.03,413.78 390.98,419.03 393.92,424.37 396.86,429.86 399.82,435.35 402.76,440.83 405.70,446.18 408.65,450.69 411.59,455.20 414.54,459.70 417.49,464.21 420.43,467.65 423.37,470.90 426.33,474.16 429.27,477.41 432.21,480.30 435.16,482.90 438.10,485.50 441.04,488.11 444.00,490.75 446.94,493.51 449.88,496.26 452.83,499.01 455.78,501.76 458.72,505.12 461.67,508.48 464.61,511.84 467.55,515.20 470.51,518.98 473.45,522.92 476.39,526.85 479.34,530.79 482.28,534.81 485.23,538.95 488.18,543.08 491.12,547.21 494.06,551.31 497.02,555.18 499.96,559.06 502.90,562.95 505.85,566.82 508.79,570.26 511.73,573.63 514.69,577.00 517.63,580.37 520.57,583.47 523.52,586.37 526.47,589.27 529.41,592.16 532.36,595.01 535.30,597.70 538.24,600.39 541.20,603.08 544.14,605.78 547.08,608.55 550.03,611.33 552.97,614.11 555.92,616.88 558.87,619.81 561.81,622.80 564.75,625.79 567.71,628.78 570.65,631.78 573.59,634.80 576.54,637.83 579.48,640.85 582.42,643.80 585.38,646.34 588.32,648.88 591.26,651.41 594.21,653.96 597.16,655.59 600.10,657.07 603.05,658.54 605.99,660.02 608.93,660.80 611.89,661.04 614.83,661.29 617.77,661.54 620.72,661.55 623.66,660.98 626.60,660.42 629.56,659.84 632.50,659.28 635.44,658.44 638.40,657.61 641.34,656.77 644.28,655.93 647.23,654.96 650.17,653.94 653.11,652.92 656.07,651.90 659.01,650.69 661.95,649.21 664.90,647.73 667.84,646.25 670.79,644.67 673.74,642.48 676.68,640.30 679.62,638.12 682.58,635.94 685.52,633.13 688.46,630.22 691.41,627.31 694.35,624.39 697.29,621.17 700.25,617.71 703.19,614.25 706.13,610.79 709.08,607.26 712.03,603.56 714.97,599.85 717.92,596.14 720.86,592.43 723.80,588.76 726.76,585.09 729.70,581.43 732.64,577.76 735.59,574.24 738.53,570.80 741.48,567.36 744.43,563.91 747.37,560.60 750.31,557.48 753.27,554.36 756.21,551.23 759.15,548.15 762.10,545.37 765.04,542.60 767.98,539.81 770.94,537.04 773.88,534.54 776.82,532.10 779.77,529.65 782.72,527.20 785.66,524.92 788.61,522.76 791.55,520.60 794.49,518.44 797.45,516.35 800.39,514.41 803.33,512.46 806.28,510.52 809.22,508.58 812.17,506.72 815.12,504.85 818.06,502.99 821.00,501.13 823.96,499.12 826.90,497.08 829.84,495.03 832.79,492.98 835.73,490.67 838.67,488.04 841.63,485.40 844.57,482.77 847.51,479.97 850.46,476.24 853.41,472.51 856.35,468.78 859.30,465.05 862.24,460.06 865.18,454.86 868.14,449.65 871.08,444.45 874.02,438.82 876.97,432.86 879.91,426.90 882.85,420.95 885.81,415.85 888.75,412.93 891.69,410.00 894.65,407.07 897.59,404.14 900.53,405.90 903.48,407.65 906.42,409.40 909.36,411.15 912.32,413.57 915.26,416.27 918.20,418.96 921.15,421.65 924.09,423.77 927.04,425.11 929.99,426.46 932.93,427.81 935.87,428.96 938.83,428.93 941.77,428.89 944.71,428.86 947.66,428.82 950.60,427.42 953.54,425.79 956.50,424.16 959.44,422.53 962.38,420.04 965.33,416.89 968.28,413.74 971.22,410.60 974.17,407.08 977.11,402.63 980.05,398.17 983.01,393.72 985.95,389.27 988.89,383.55 991.84,377.82 994.78,372.10 997.73,366.38 1000.68,359.58 1003.62,352.37 1006.56,345.15 1009.52,337.93 1012.46,329.97 1015.40,321.01 1018.35,312.06 1021.29,303.10 1024.23,293.90 1027.19,283.28 1030.13,272.65 1033.07,262.02 1036.02,251.40 1038.97,239.77 1041.91,227.97 1044.86,216.17 1047.80,204.37 1050.74,192.18 1053.70,179.69 1056.64,167.21 1059.58,154.72 1062.53,143.98 1065.47,137.60 1068.42,131.22 1071.37,124.84 1074.31,118.45" fill="none" stroke="#000000" stroke-width="3"/>
<line x1="142" y1="100" x2="178" y2="100" stroke="#000000" stroke-width="4"/>
<text x="188" y="105" font-family="Arial" font-size="18" fill="black">U:2</text>
</svg>