<svg xmlns="http://www.w3.org/2000/svg" width="1200" height="820" viewBox="0 0 1200 820">
<rect width="100%" height="100%" fill="white"/>
<text x="600.0" y="36" text-anchor="middle" font-family="Arial" font-size="24" fill="black">profile_near_floor_x: epsilon</text>
<line x1="120.00" y1="75" x2="120.00" y2="705" stroke="#dddddd" stroke-width="1"/>
<text x="120.00" y="737" text-anchor="middle" font-family="Arial" font-size="16" fill="black">-0.560</text>
<line x1="376.25" y1="75" x2="376.25" y2="705" stroke="#dddddd" stroke-width="1"/>
<text x="376.25" y="737" text-anchor="middle" font-family="Arial" font-size="16" fill="black">1.470</text>
<line x1="632.50" y1="75" x2="632.50" y2="705" stroke="#dddddd" stroke-width="1"/>
<text x="632.50" y="737" text-anchor="middle" font-family="Arial" font-size="16" fill="black">3.500</text>
<line x1="888.75" y1="75" x2="888.75" y2="705" stroke="#dddddd" stroke-width="1"/>
<text x="888.75" y="737" text-anchor="middle" font-family="Arial" font-size="16" fill="black">5.530</text>
<line x1="1145.00" y1="75" x2="1145.00" y2="705" stroke="#dddddd" stroke-width="1"/>
<text x="1145.00" y="737" text-anchor="middle" font-family="Arial" font-size="16" fill="black">7.560</text>
<line x1="120" y1="705.00" x2="1145" y2="705.00" stroke="#dddddd" stroke-width="1"/>
<text x="104" y="710.00" text-anchor="end" font-family="Arial" font-size="16" fill="black">6.64e-04</text>
<line x1="120" y1="547.50" x2="1145" y2="547.50" stroke="#dddddd" stroke-width="1"/>
<text x="104" y="552.50" text-anchor="end" font-family="Arial" font-size="16" fill="black">0.004</text>
<line x1="120" y1="390.00" x2="1145" y2="390.00" stroke="#dddddd" stroke-width="1"/>
<text x="104" y="395.00" text-anchor="end" font-family="Arial" font-size="16" fill="black">0.007</text>
<line x1="120" y1="232.50" x2="1145" y2="232.50" stroke="#dddddd" stroke-width="1"/>
<text x="104" y="237.50" text-anchor="end" font-family="Arial" font-size="16" fill="black">0.011</text>
<line x1="120" y1="75.00" x2="1145" y2="75.00" stroke="#dddddd" stroke-width="1"/>
<text x="104" y="80.00" text-anchor="end" font-family="Arial" font-size="16" fill="black">0.014</text>
<rect x="120" y="75" width="1025" height="630" fill="none" stroke="black" stroke-width="2"/>
<text x="632.5" y="785" text-anchor="middle" font-family="Arial" font-size="20" fill="black">x coordinate [m]</text>
<text x="34" y="390.0" transform="rotate(-90 34 390.0)" text-anchor="middle" font-family="Arial" font-size="20" fill="black">epsilon [m2/s3]</text>
<polyline points="190.69,657.30 193.64,658.30 196.58,659.29 199.53,660.28 202.47,661.27 205.42,661.55 208.36,661.54 211.31,661.53 214.25,661.52 217.20,660.54 220.14,658.26 223.09,655.98 226.03,653.70 228.98,651.32 231.93,648.40 234.87,645.47 237.82,642.55 240.76,639.62 243.71,636.24 246.65,632.79 249.60,629.34 252.54,625.89 255.49,622.48 258.43,619.10 261.38,615.72 264.32,612.34 267.27,609.09 270.22,606.16 273.16,603.23 276.11,600.30 279.05,597.38 282.00,590.06 284.94,582.74 287.89,575.43 290.83,568.11 293.78,548.53 296.72,524.04 299.67,499.55 302.62,475.06 305.56,453.42 308.51,435.59 311.45,417.75 314.40,399.92 317.34,384.67 320.29,384.99 323.23,385.31 326.17,385.64 329.13,385.96 332.07,385.66 335.01,385.26 337.96,384.86 340.91,384.47 343.85,384.24 346.80,384.15 349.74,384.05 352.68,383.96 355.64,383.85 358.58,383.70 361.52,383.55 364.47,383.41 367.41,383.26 370.35,382.98 373.31,382.70 376.25,382.42 379.19,382.14 382.15,381.30 385.09,380.23 388.03,379.16 390.98,378.10 393.92,374.74 396.86,368.33 399.82,361.93 402.76,355.53 405.70,345.04 408.65,310.05 411.59,275.05 414.54,240.03 417.49,205.06 420.43,189.85 423.37,177.94 426.33,166.07 429.27,154.15 432.21,163.43 435.16,188.56 438.10,213.64 441.04,238.77 444.00,259.22 446.94,268.08 449.88,276.92 452.83,285.75 455.78,294.60 458.72,294.28 461.67,293.97 464.61,293.66 467.55,293.35 470.51,290.10 473.45,285.67 476.39,281.25 479.34,276.82 482.28,272.33 485.23,267.75 488.18,263.21 491.12,258.67 494.06,254.68 497.02,254.21 499.96,253.80 502.90,253.38 505.85,252.92 508.79,258.15 511.73,264.32 514.69,270.49 517.63,276.64 520.57,285.60 523.52,296.65 526.47,307.71 529.41,318.76 532.36,329.79 535.30,340.76 538.24,351.73 541.20,362.71 544.14,373.68 547.08,378.13 550.03,382.58 552.97,387.04 555.92,391.49 558.87,382.71 561.81,368.63 564.75,354.55 567.71,340.47 570.65,331.93 573.59,330.75 576.54,329.58 579.48,328.40 582.42,329.24 585.38,342.14 588.32,355.04 591.26,367.93 594.21,380.83 597.16,382.96 600.10,383.30 603.05,383.64 605.99,383.98 608.93,384.15 611.89,384.18 614.83,384.22 617.77,384.26 620.72,384.29 623.66,384.29 626.60,384.29 629.56,384.29 632.50,384.29 635.44,384.27 638.40,384.25 641.34,384.23 644.28,384.21 647.23,384.18 650.17,384.15 653.11,384.12 656.07,384.09 659.01,383.89 661.95,383.48 664.90,383.07 667.84,382.65 670.79,379.12 673.74,356.84 676.68,334.56 679.62,312.28 682.58,290.01 685.52,285.92 688.46,284.86 691.41,283.80 694.35,282.74 697.29,294.93 700.25,317.06 703.19,339.18 706.13,361.30 709.08,376.05 712.03,372.38 714.97,368.70 717.92,365.02 720.86,361.35 723.80,351.30 726.76,341.26 729.70,331.23 732.64,321.19 735.59,314.34 738.53,308.78 741.48,303.22 744.43,297.66 747.37,296.50 750.31,301.23 753.27,305.96 756.21,310.68 759.15,316.34 762.10,327.64 765.04,338.94 767.98,350.24 770.94,361.54 773.88,369.79 776.82,377.53 779.77,385.28 782.72,393.02 785.66,395.50 788.61,394.04 791.55,392.58 794.49,391.11 797.45,387.42 800.39,378.17 803.33,368.91 806.28,359.66 809.22,350.40 812.17,333.48 815.12,316.54 818.06,299.61 821.00,282.68 823.96,250.23 826.90,211.56 829.84,172.88 832.79,134.21 835.73,118.45 838.67,133.15 841.63,147.85 844.57,162.59 847.51,181.69 850.46,227.00 853.41,272.34 856.35,317.68 859.30,363.01 862.24,372.07 865.18,375.09 868.14,378.10 871.08,381.11 874.02,382.59 876.97,382.90 879.91,383.22 882.85,383.53 885.81,383.79 888.75,383.89 891.69,383.99 894.65,384.10 897.59,384.20 900.53,384.24 903.48,384.28 906.42,384.32 909.36,384.36 912.32,384.33 915.26,384.28 918.20,384.22 921.15,384.17 924.09,384.24 927.04,384.48 929.99,384.71 932.93,384.95 935.87,385.33 938.83,386.56 941.77,387.78 944.71,389.01 947.66,390.24 950.60,397.97 953.54,406.79 956.50,415.60 959.44,424.42 962.38,437.34 965.33,453.34 968.28,469.33 971.22,485.33 974.17,500.38 977.11,513.06 980.05,525.74 983.01,538.42 985.95,551.10 988.89,558.25 991.84,565.39 994.78,572.53 997.73,579.68 1000.68,584.78 1003.62,589.08 1006.56,593.38 1009.52,597.67 1012.46,601.33 1015.40,604.15 1018.35,606.97 1021.29,609.79 1024.23,612.44 1027.19,614.07 1030.13,615.70 1033.07,617.33 1036.02,618.96 1038.97,619.38 1041.91,619.59 1044.86,619.81 1047.80,620.02 1050.74,618.04 1053.70,614.43 1056.64,610.82 1059.58,607.20 1062.53,603.68 1065.47,600.37 1068.42,597.07 1071.37,593.77 1074.31,590.47" fill="none" stroke="#000000" stroke-width="3"/>
<line x1="142" y1="100" x2="178" y2="100" stroke="#000000" stroke-width="4"/>
<text x="188" y="105" font-family="Arial" font-size="18" fill="black">epsilon</text>
</svg>