<svg xmlns="http://www.w3.org/2000/svg" width="1200" height="820" viewBox="0 0 1200 820">
<rect width="100%" height="100%" fill="white"/>
<text x="600.0" y="36" text-anchor="middle" font-family="Arial" font-size="24" fill="black">profile_diagonal_supply_return: vorticity:0</text>
<line x1="120.00" y1="75" x2="120.00" y2="705" stroke="#dddddd" stroke-width="1"/>
<text x="120.00" y="737" text-anchor="middle" font-family="Arial" font-size="16" fill="black">-0.729</text>
<line x1="376.25" y1="75" x2="376.25" y2="705" stroke="#dddddd" stroke-width="1"/>
<text x="376.25" y="737" text-anchor="middle" font-family="Arial" font-size="16" fill="black">1.913</text>
<line x1="632.50" y1="75" x2="632.50" y2="705" stroke="#dddddd" stroke-width="1"/>
<text x="632.50" y="737" text-anchor="middle" font-family="Arial" font-size="16" fill="black">4.555</text>
<line x1="888.75" y1="75" x2="888.75" y2="705" stroke="#dddddd" stroke-width="1"/>
<text x="888.75" y="737" text-anchor="middle" font-family="Arial" font-size="16" fill="black">7.197</text>
<line x1="1145.00" y1="75" x2="1145.00" y2="705" stroke="#dddddd" stroke-width="1"/>
<text x="1145.00" y="737" text-anchor="middle" font-family="Arial" font-size="16" fill="black">9.839</text>
<line x1="120" y1="705.00" x2="1145" y2="705.00" stroke="#dddddd" stroke-width="1"/>
<text x="104" y="710.00" text-anchor="end" font-family="Arial" font-size="16" fill="black">-1.142</text>
<line x1="120" y1="547.50" x2="1145" y2="547.50" stroke="#dddddd" stroke-width="1"/>
<text x="104" y="552.50" text-anchor="end" font-family="Arial" font-size="16" fill="black">-0.750</text>
<line x1="120" y1="390.00" x2="1145" y2="390.00" stroke="#dddddd" stroke-width="1"/>
<text x="104" y="395.00" text-anchor="end" font-family="Arial" font-size="16" fill="black">-0.359</text>
<line x1="120" y1="232.50" x2="1145" y2="232.50" stroke="#dddddd" stroke-width="1"/>
<text x="104" y="237.50" text-anchor="end" font-family="Arial" font-size="16" fill="black">0.032</text>
<line x1="120" y1="75.00" x2="1145" y2="75.00" stroke="#dddddd" stroke-width="1"/>
<text x="104" y="80.00" text-anchor="end" font-family="Arial" font-size="16" fill="black">0.424</text>
<rect x="120" y="75" width="1025" height="630" fill="none" stroke="black" stroke-width="2"/>
<text x="632.5" y="785" text-anchor="middle" font-family="Arial" font-size="20" fill="black">distance along sample line [m]</text>
<text x="34" y="390.0" transform="rotate(-90 34 390.0)" text-anchor="middle" font-family="Arial" font-size="20" fill="black">vorticity:0 [SI]</text>
<polyline points="190.69,626.64 193.64,608.63 196.58,589.86 199.53,570.59 202.47,551.13 205.42,517.72 208.36,479.82 211.31,452.98 214.25,425.88 217.20,402.55 220.14,384.13 223.09,369.93 226.03,362.00 228.98,337.43 231.93,322.55 234.87,314.48 237.82,314.03 240.76,321.97 243.71,336.93 246.65,349.00 249.60,367.41 252.54,374.42 255.49,382.06 258.43,390.21 261.38,399.25 264.32,404.59 267.27,410.10 270.22,416.44 273.16,423.62 276.11,431.66 279.05,440.57 282.00,450.83 284.94,461.12 287.88,471.55 290.83,482.22 293.78,490.27 296.73,498.58 299.67,506.08 302.62,514.62 305.57,520.22 308.50,522.40 311.45,524.63 314.40,528.85 317.34,530.92 320.29,525.52 323.24,522.41 326.18,521.64 329.12,523.26 332.07,520.01 335.01,516.28 337.96,514.91 340.91,512.95 343.85,509.81 346.80,506.12 349.74,504.49 352.68,506.86 355.63,509.94 358.58,510.64 361.53,513.34 364.47,518.31 367.42,525.85 370.36,524.30 373.30,524.32 376.25,526.07 379.20,529.71 382.14,530.33 385.09,529.60 388.04,525.18 390.97,521.57 393.92,518.80 396.87,515.13 399.81,509.86 402.76,504.78 405.71,495.85 408.65,494.34 411.59,491.20 414.54,486.46 417.48,480.20 420.43,480.12 423.38,476.28 426.32,471.03 429.27,465.64 432.21,461.73 435.16,459.04 438.10,455.56 441.05,450.35 444.00,445.56 446.94,443.01 449.89,441.35 452.84,440.63 455.77,440.90 458.72,442.50 461.67,445.25 464.61,449.10 467.56,454.05 470.51,461.42 473.45,470.56 476.39,480.82 479.34,492.04 482.28,504.40 485.23,517.94 488.18,528.73 491.12,539.87 494.07,550.41 497.01,559.67 499.96,569.11 502.90,578.72 505.85,588.51 508.80,595.99 511.74,602.43 514.69,609.06 517.63,611.49 520.57,612.16 523.52,611.68 526.47,611.37 529.41,610.54 532.36,609.22 535.31,606.52 538.24,604.17 541.19,602.16 544.14,600.49 547.08,595.02 550.03,590.06 552.98,585.56 555.92,581.50 558.86,576.84 561.81,572.18 564.76,566.91 567.70,561.81 570.65,555.91 573.60,548.76 576.54,540.99 579.49,533.21 582.43,524.67 585.37,514.04 588.32,503.58 591.27,493.23 594.21,482.93 597.16,471.71 600.11,461.27 603.04,451.10 605.99,441.07 608.94,431.75 611.88,422.94 614.83,414.32 617.78,407.21 620.72,400.72 623.66,395.23 626.61,389.86 629.55,384.62 632.50,379.54 635.45,376.50 638.40,373.57 641.34,370.77 644.28,368.11 647.23,365.27 650.17,362.29 653.12,359.26 656.07,356.27 659.01,352.62 661.96,348.05 664.90,343.51 667.84,338.88 670.79,332.17 673.74,324.45 676.68,317.18 679.63,310.32 682.58,303.88 685.51,297.70 688.46,289.29 691.41,282.32 694.35,276.51 697.30,272.05 700.25,268.85 703.20,266.93 706.14,261.87 709.08,258.58 712.03,256.85 714.97,256.66 717.92,258.02 720.87,260.95 723.81,258.88 726.76,258.59 729.70,260.08 732.64,263.34 735.59,267.35 738.54,272.44 741.48,273.68 744.43,276.53 747.38,280.17 750.31,284.16 753.26,289.63 756.21,296.56 759.15,300.13 762.10,303.32 765.05,307.85 767.99,313.71 770.93,320.93 773.88,327.89 776.83,332.00 779.77,337.21 782.72,343.81 785.67,350.84 788.61,358.97 791.55,368.98 794.50,376.15 797.44,383.51 800.39,390.94 803.34,400.39 806.28,411.91 809.23,425.57 812.17,431.40 815.11,439.32 818.06,449.38 821.01,461.64 823.95,472.61 826.90,485.36 829.85,493.05 832.79,502.89 835.73,512.30 838.68,521.29 841.63,533.54 844.57,549.04 847.52,557.57 850.47,563.16 853.41,571.85 856.35,583.51 859.30,597.98 862.24,609.80 865.19,614.90 868.14,622.36 871.08,632.38 874.03,641.31 876.97,649.36 879.91,658.61 882.86,660.79 885.81,661.55 888.75,656.88 891.70,651.69 894.65,645.79 897.58,638.96 900.53,615.33 903.48,591.66 906.43,567.91 909.37,544.05 912.32,517.13 915.27,489.58 918.20,462.15 921.15,435.74 924.10,411.56 927.04,390.38 929.99,370.43 932.94,352.05 935.88,334.64 938.82,323.08 941.77,312.74 944.71,303.66 947.66,295.87 950.61,293.59 953.55,288.24 956.50,283.88 959.44,280.59 962.38,280.80 965.33,284.31 968.28,289.49 971.22,287.19 974.17,287.59 977.12,293.78 980.06,303.77 983.00,317.92 985.95,336.61 988.90,348.12 991.84,365.06 994.79,387.27 997.74,414.54 1000.68,437.46 1003.62,459.33 1006.57,483.11 1009.51,507.53 1012.46,528.58 1015.41,545.27 1018.35,519.08 1021.30,485.97 1024.24,458.63 1027.18,437.77 1030.13,418.76 1033.08,401.21 1036.02,384.74 1038.97,372.29 1041.92,336.91 1044.86,305.54 1047.80,270.59 1050.75,244.56 1053.70,228.39 1056.64,218.47 1059.59,198.56 1062.54,181.21 1065.47,161.70 1068.42,145.05 1071.37,130.78 1074.31,118.45" fill="none" stroke="#000000" stroke-width="3"/>
<line x1="142" y1="100" x2="178" y2="100" stroke="#000000" stroke-width="4"/>
<text x="188" y="105" font-family="Arial" font-size="18" fill="black">vorticity:0</text>
</svg>