<svg xmlns="http://www.w3.org/2000/svg" width="1200" height="820" viewBox="0 0 1200 820">
<rect width="100%" height="100%" fill="white"/>
<text x="600.0" y="36" text-anchor="middle" font-family="Arial" font-size="24" fill="black">profile_near_floor_x: Q</text>
<line x1="120.00" y1="75" x2="120.00" y2="705" stroke="#dddddd" stroke-width="1"/>
<text x="120.00" y="737" text-anchor="middle" font-family="Arial" font-size="16" fill="black">-0.560</text>
<line x1="376.25" y1="75" x2="376.25" y2="705" stroke="#dddddd" stroke-width="1"/>
<text x="376.25" y="737" text-anchor="middle" font-family="Arial" font-size="16" fill="black">1.470</text>
<line x1="632.50" y1="75" x2="632.50" y2="705" stroke="#dddddd" stroke-width="1"/>
<text x="632.50" y="737" text-anchor="middle" font-family="Arial" font-size="16" fill="black">3.500</text>
<line x1="888.75" y1="75" x2="888.75" y2="705" stroke="#dddddd" stroke-width="1"/>
<text x="888.75" y="737" text-anchor="middle" font-family="Arial" font-size="16" fill="black">5.530</text>
<line x1="1145.00" y1="75" x2="1145.00" y2="705" stroke="#dddddd" stroke-width="1"/>
<text x="1145.00" y="737" text-anchor="middle" font-family="Arial" font-size="16" fill="black">7.560</text>
<line x1="120" y1="705.00" x2="1145" y2="705.00" stroke="#dddddd" stroke-width="1"/>
<text x="104" y="710.00" text-anchor="end" font-family="Arial" font-size="16" fill="black">-0.858</text>
<line x1="120" y1="547.50" x2="1145" y2="547.50" stroke="#dddddd" stroke-width="1"/>
<text x="104" y="552.50" text-anchor="end" font-family="Arial" font-size="16" fill="black">-0.124</text>
<line x1="120" y1="390.00" x2="1145" y2="390.00" stroke="#dddddd" stroke-width="1"/>
<text x="104" y="395.00" text-anchor="end" font-family="Arial" font-size="16" fill="black">0.610</text>
<line x1="120" y1="232.50" x2="1145" y2="232.50" stroke="#dddddd" stroke-width="1"/>
<text x="104" y="237.50" text-anchor="end" font-family="Arial" font-size="16" fill="black">1.344</text>
<line x1="120" y1="75.00" x2="1145" y2="75.00" stroke="#dddddd" stroke-width="1"/>
<text x="104" y="80.00" text-anchor="end" font-family="Arial" font-size="16" fill="black">2.078</text>
<rect x="120" y="75" width="1025" height="630" fill="none" stroke="black" stroke-width="2"/>
<text x="632.5" y="785" text-anchor="middle" font-family="Arial" font-size="20" fill="black">x coordinate [m]</text>
<text x="34" y="390.0" transform="rotate(-90 34 390.0)" text-anchor="middle" font-family="Arial" font-size="20" fill="black">Q [SI]</text>
<polyline points="190.69,596.49 193.64,587.88 196.58,579.27 199.53,570.65 202.47,562.04 205.42,551.10 208.36,539.23 211.31,527.36 214.25,515.49 217.20,506.78 220.14,502.27 223.09,497.76 226.03,493.25 228.98,489.29 231.93,488.62 234.87,487.94 237.82,487.27 240.76,486.60 243.71,489.90 246.65,493.86 249.60,497.83 252.54,501.79 255.49,507.86 258.43,515.50 261.38,523.15 264.32,530.79 267.27,536.95 270.22,539.38 273.16,541.82 276.11,544.26 279.05,546.70 282.00,523.57 284.94,500.44 287.89,477.31 290.83,454.18 293.78,422.46 296.72,387.31 299.67,352.15 302.62,317.00 305.56,302.62 308.51,315.94 311.45,329.26 314.40,342.59 317.34,359.13 320.29,395.02 323.23,430.92 326.17,466.81 329.13,502.70 332.07,516.12 335.01,525.79 337.96,535.45 340.91,545.13 343.85,550.46 346.80,552.53 349.74,554.61 352.68,556.69 355.64,558.88 358.58,561.35 361.52,563.83 364.47,566.30 367.41,568.77 370.35,571.31 373.31,573.86 376.25,576.40 379.19,578.94 382.15,582.72 385.09,586.99 388.03,591.26 390.98,595.53 393.92,601.59 396.86,610.04 399.82,618.49 402.76,626.95 405.70,634.97 408.65,640.46 411.59,645.94 414.54,651.42 417.49,656.91 420.43,658.55 423.37,659.55 426.33,660.55 429.27,661.55 432.21,660.38 435.16,657.58 438.10,654.78 441.04,651.98 444.00,648.49 446.94,643.25 449.88,638.02 452.83,632.78 455.78,627.55 458.72,626.09 461.67,624.62 464.61,623.16 467.55,621.69 470.51,621.95 473.45,622.89 476.39,623.84 479.34,624.78 482.28,625.75 485.23,626.75 488.18,627.76 491.12,628.76 494.06,629.10 497.02,625.46 499.96,621.83 502.90,618.19 505.85,614.55 508.79,603.74 511.73,591.74 514.69,579.74 517.63,567.74 520.57,552.90 523.52,535.93 526.47,518.96 529.41,501.99 532.36,486.79 535.30,476.03 538.24,465.27 541.20,454.51 544.14,443.75 547.08,451.64 550.03,459.53 552.97,467.42 555.92,475.30 558.87,491.96 561.81,512.13 564.75,532.29 567.71,552.46 570.65,563.25 573.59,561.54 576.54,559.84 579.48,558.13 582.42,555.67 585.38,548.65 588.32,541.64 591.26,534.63 594.21,527.62 597.16,531.57 600.10,537.36 603.05,543.14 605.99,548.92 608.93,552.00 611.89,553.04 614.83,554.08 617.77,555.12 620.72,555.97 623.66,556.30 626.60,556.64 629.56,556.98 632.50,557.32 635.44,557.42 638.40,557.52 641.34,557.62 644.28,557.71 647.23,557.22 650.17,556.49 653.11,555.76 656.07,555.02 659.01,551.25 661.95,543.41 664.90,535.57 667.84,527.73 670.79,520.21 673.74,514.59 676.68,508.96 679.62,503.33 682.58,497.70 685.52,491.44 688.46,485.07 691.41,478.70 694.35,472.32 697.29,464.99 700.25,456.95 703.19,448.90 706.13,440.85 709.08,438.11 712.03,448.66 714.97,459.20 717.92,469.75 720.86,480.29 723.80,501.87 726.76,523.45 729.70,545.03 732.64,566.61 735.59,580.46 738.53,591.22 741.48,601.97 744.43,612.73 747.37,617.49 750.31,614.26 753.27,611.02 756.21,607.79 759.15,604.33 762.10,599.51 765.04,594.69 767.98,589.87 770.94,585.05 773.88,581.77 776.82,578.75 779.77,575.72 782.72,572.70 785.66,570.88 788.61,569.95 791.55,569.02 794.49,568.10 797.45,568.68 800.39,573.04 803.33,577.40 806.28,581.75 809.22,586.11 812.17,594.39 815.12,602.67 818.06,610.95 821.00,619.23 823.96,617.94 826.90,612.82 829.84,607.70 832.79,602.59 835.73,595.25 838.67,584.94 841.63,574.64 844.57,564.33 847.51,555.60 850.46,556.31 853.41,557.03 856.35,557.74 859.30,558.45 862.24,559.27 865.18,560.10 868.14,560.93 871.08,561.76 874.02,561.21 876.97,559.63 879.91,558.05 882.85,556.47 885.81,554.89 888.75,553.32 891.69,551.75 894.65,550.18 897.59,548.61 900.53,547.57 903.48,546.52 906.42,545.48 909.36,544.43 912.32,544.23 915.26,544.37 918.20,544.51 921.15,544.65 924.09,540.59 927.04,530.94 929.99,521.29 932.93,511.63 935.87,494.76 938.83,434.58 941.77,374.40 944.71,314.22 947.66,254.03 950.60,217.22 953.54,184.29 956.50,151.37 959.44,118.45 962.38,132.01 965.33,180.45 968.28,228.89 971.22,277.36 974.17,323.73 977.11,364.94 980.05,406.15 983.01,447.35 985.95,488.56 988.89,499.59 991.84,510.61 994.78,521.63 997.73,532.66 1000.68,534.59 1003.62,532.89 1006.56,531.19 1009.52,529.49 1012.46,525.89 1015.40,519.78 1018.35,513.66 1021.29,507.55 1024.23,501.58 1027.19,496.49 1030.13,491.41 1033.07,486.32 1036.02,481.23 1038.97,482.15 1041.91,484.08 1044.86,486.00 1047.80,487.92 1050.74,499.08 1053.70,517.16 1056.64,535.24 1059.58,553.32 1062.53,570.34 1065.47,584.73 1068.42,599.12 1071.37,613.50 1074.31,627.89" fill="none" stroke="#000000" stroke-width="3"/>
<line x1="142" y1="100" x2="178" y2="100" stroke="#000000" stroke-width="4"/>
<text x="188" y="105" font-family="Arial" font-size="18" fill="black">Q</text>
</svg>