<svg xmlns="http://www.w3.org/2000/svg" width="1200" height="820" viewBox="0 0 1200 820">
<rect width="100%" height="100%" fill="white"/>
<text x="600.0" y="36" text-anchor="middle" font-family="Arial" font-size="24" fill="black">profile_near_floor_x: vorticity:0</text>
<line x1="120.00" y1="75" x2="120.00" y2="705" stroke="#dddddd" stroke-width="1"/>
<text x="120.00" y="737" text-anchor="middle" font-family="Arial" font-size="16" fill="black">-0.560</text>
<line x1="376.25" y1="75" x2="376.25" y2="705" stroke="#dddddd" stroke-width="1"/>
<text x="376.25" y="737" text-anchor="middle" font-family="Arial" font-size="16" fill="black">1.470</text>
<line x1="632.50" y1="75" x2="632.50" y2="705" stroke="#dddddd" stroke-width="1"/>
<text x="632.50" y="737" text-anchor="middle" font-family="Arial" font-size="16" fill="black">3.500</text>
<line x1="888.75" y1="75" x2="888.75" y2="705" stroke="#dddddd" stroke-width="1"/>
<text x="888.75" y="737" text-anchor="middle" font-family="Arial" font-size="16" fill="black">5.530</text>
<line x1="1145.00" y1="75" x2="1145.00" y2="705" stroke="#dddddd" stroke-width="1"/>
<text x="1145.00" y="737" text-anchor="middle" font-family="Arial" font-size="16" fill="black">7.560</text>
<line x1="120" y1="705.00" x2="1145" y2="705.00" stroke="#dddddd" stroke-width="1"/>
<text x="104" y="710.00" text-anchor="end" font-family="Arial" font-size="16" fill="black">-0.520</text>
<line x1="120" y1="547.50" x2="1145" y2="547.50" stroke="#dddddd" stroke-width="1"/>
<text x="104" y="552.50" text-anchor="end" font-family="Arial" font-size="16" fill="black">-0.187</text>
<line x1="120" y1="390.00" x2="1145" y2="390.00" stroke="#dddddd" stroke-width="1"/>
<text x="104" y="395.00" text-anchor="end" font-family="Arial" font-size="16" fill="black">0.145</text>
<line x1="120" y1="232.50" x2="1145" y2="232.50" stroke="#dddddd" stroke-width="1"/>
<text x="104" y="237.50" text-anchor="end" font-family="Arial" font-size="16" fill="black">0.477</text>
<line x1="120" y1="75.00" x2="1145" y2="75.00" stroke="#dddddd" stroke-width="1"/>
<text x="104" y="80.00" text-anchor="end" font-family="Arial" font-size="16" fill="black">0.809</text>
<rect x="120" y="75" width="1025" height="630" fill="none" stroke="black" stroke-width="2"/>
<text x="632.5" y="785" text-anchor="middle" font-family="Arial" font-size="20" fill="black">x coordinate [m]</text>
<text x="34" y="390.0" transform="rotate(-90 34 390.0)" text-anchor="middle" font-family="Arial" font-size="20" fill="black">vorticity:0 [SI]</text>
<polyline points="190.69,235.14 193.64,249.53 196.58,263.91 199.53,278.29 202.47,292.68 205.42,316.64 208.36,344.43 211.31,372.22 214.25,400.01 217.20,426.48 220.14,451.16 223.09,475.84 226.03,500.53 228.98,524.45 231.93,543.84 234.87,563.23 237.82,582.62 240.76,602.01 243.71,614.91 246.65,626.74 249.60,638.56 252.54,650.39 255.49,656.43 258.43,658.14 261.38,659.84 264.32,661.55 267.27,659.75 270.22,649.18 273.16,638.61 276.11,628.04 279.05,617.47 282.00,596.71 284.94,575.96 287.89,555.19 290.83,534.43 293.78,515.24 296.72,496.68 299.67,478.12 302.62,459.55 305.56,449.32 308.51,450.20 311.45,451.08 314.40,451.96 317.34,453.60 320.29,459.81 323.23,466.01 326.17,472.22 329.13,478.43 332.07,478.43 335.01,477.40 337.96,476.36 340.91,475.33 343.85,474.56 346.80,473.98 349.74,473.41 352.68,472.84 355.64,471.76 358.58,469.42 361.52,467.08 364.47,464.73 367.41,462.39 370.35,458.05 373.31,453.71 376.25,449.37 379.19,445.03 382.15,439.97 385.09,434.62 388.03,429.28 390.98,423.93 393.92,417.54 396.86,409.77 399.82,402.00 402.76,394.23 405.70,386.94 408.65,382.57 411.59,378.20 414.54,373.82 417.49,369.45 420.43,367.41 423.37,365.76 426.33,364.11 429.27,362.46 432.21,359.47 435.16,355.46 438.10,351.45 441.04,347.44 444.00,343.83 446.94,341.18 449.88,338.54 452.83,335.89 455.78,333.24 458.72,332.36 461.67,331.49 464.61,330.60 467.55,329.72 470.51,329.96 473.45,330.64 476.39,331.33 479.34,332.01 482.28,333.26 485.23,335.26 488.18,337.27 491.12,339.27 494.06,341.53 497.02,345.33 499.96,349.14 502.90,352.94 505.85,356.75 508.79,362.38 511.73,368.33 514.69,374.27 517.63,380.21 520.57,386.29 523.52,392.48 526.47,398.66 529.41,404.84 532.36,409.89 535.30,412.09 538.24,414.28 541.20,416.47 544.14,418.67 547.08,413.14 550.03,407.61 552.97,402.09 555.92,396.56 558.87,385.68 561.81,372.65 564.75,359.63 567.71,346.61 570.65,337.67 573.59,334.17 576.54,330.67 579.48,327.17 582.42,325.43 585.38,334.25 588.32,343.07 591.26,351.90 594.21,360.72 597.16,367.12 600.10,373.12 603.05,379.11 605.99,385.11 608.93,388.82 611.89,390.81 614.83,392.81 617.77,394.80 620.72,396.10 623.66,395.68 626.60,395.27 629.56,394.85 632.50,394.43 635.44,392.75 638.40,391.05 641.34,389.36 644.28,387.67 647.23,385.81 650.17,383.87 653.11,381.94 656.07,380.01 659.01,377.60 661.95,374.57 664.90,371.54 667.84,368.50 670.79,365.21 673.74,360.33 676.68,355.45 679.62,350.56 682.58,345.68 685.52,345.05 688.46,345.12 691.41,345.20 694.35,345.27 697.29,348.15 700.25,353.12 703.19,358.10 706.13,363.07 709.08,367.01 712.03,368.34 714.97,369.68 717.92,371.02 720.86,372.36 723.80,369.45 726.76,366.54 729.70,363.63 732.64,360.72 735.59,356.76 738.53,352.37 741.48,347.99 744.43,343.61 747.37,339.68 750.31,336.34 753.27,333.01 756.21,329.67 759.15,326.61 762.10,325.18 765.04,323.75 767.98,322.33 770.94,320.90 773.88,320.23 776.82,319.68 779.77,319.13 782.72,318.59 785.66,318.62 788.61,319.07 791.55,319.53 794.49,319.98 797.45,320.63 800.39,321.75 803.33,322.88 806.28,323.99 809.22,325.12 812.17,324.68 815.12,324.24 818.06,323.80 821.00,323.35 823.96,318.49 826.90,311.88 829.84,305.25 832.79,298.63 835.73,294.50 838.67,293.69 841.63,292.88 844.57,292.07 847.51,292.89 850.46,303.51 853.41,314.14 856.35,324.76 859.30,335.39 862.24,341.44 865.18,346.72 868.14,352.01 871.08,357.30 874.02,359.27 876.97,358.76 879.91,358.25 882.85,357.74 885.81,357.41 888.75,357.51 891.69,357.61 894.65,357.72 897.59,357.82 900.53,358.21 903.48,358.60 906.42,358.98 909.36,359.37 912.32,360.33 915.26,361.53 918.20,362.72 921.15,363.92 924.09,368.19 927.04,376.57 929.99,384.95 932.93,393.33 935.87,397.38 938.83,375.49 941.77,353.60 944.71,331.71 947.66,309.82 950.60,293.99 953.54,279.16 956.50,264.34 959.44,249.51 962.38,248.73 965.33,258.49 968.28,268.24 971.22,277.99 974.17,285.10 977.11,285.58 980.05,286.07 983.01,286.55 985.95,287.04 988.89,300.88 991.84,314.73 994.78,328.57 997.73,342.42 1000.68,356.26 1003.62,370.11 1006.56,383.96 1009.52,397.80 1012.46,407.51 1015.40,411.69 1018.35,415.87 1021.29,420.05 1024.23,422.43 1027.19,413.95 1030.13,405.47 1033.07,397.00 1036.02,388.53 1038.97,369.94 1041.91,349.67 1044.86,329.39 1047.80,309.12 1050.74,284.65 1053.70,257.05 1056.64,229.43 1059.58,201.82 1062.53,177.86 1065.47,163.01 1068.42,148.15 1071.37,133.30 1074.31,118.45" fill="none" stroke="#000000" stroke-width="3"/>
<line x1="142" y1="100" x2="178" y2="100" stroke="#000000" stroke-width="4"/>
<text x="188" y="105" font-family="Arial" font-size="18" fill="black">vorticity:0</text>
</svg>