<svg xmlns="http://www.w3.org/2000/svg" width="1200" height="820" viewBox="0 0 1200 820">
<rect width="100%" height="100%" fill="white"/>
<text x="600.0" y="36" text-anchor="middle" font-family="Arial" font-size="24" fill="black">profile_center_y: rho</text>
<line x1="120.00" y1="75" x2="120.00" y2="705" stroke="#dddddd" stroke-width="1"/>
<text x="120.00" y="737" text-anchor="middle" font-family="Arial" font-size="16" fill="black">-0.400</text>
<line x1="376.25" y1="75" x2="376.25" y2="705" stroke="#dddddd" stroke-width="1"/>
<text x="376.25" y="737" text-anchor="middle" font-family="Arial" font-size="16" fill="black">1.050</text>
<line x1="632.50" y1="75" x2="632.50" y2="705" stroke="#dddddd" stroke-width="1"/>
<text x="632.50" y="737" text-anchor="middle" font-family="Arial" font-size="16" fill="black">2.500</text>
<line x1="888.75" y1="75" x2="888.75" y2="705" stroke="#dddddd" stroke-width="1"/>
<text x="888.75" y="737" text-anchor="middle" font-family="Arial" font-size="16" fill="black">3.950</text>
<line x1="1145.00" y1="75" x2="1145.00" y2="705" stroke="#dddddd" stroke-width="1"/>
<text x="1145.00" y="737" text-anchor="middle" font-family="Arial" font-size="16" fill="black">5.400</text>
<line x1="120" y1="705.00" x2="1145" y2="705.00" stroke="#dddddd" stroke-width="1"/>
<text x="104" y="710.00" text-anchor="end" font-family="Arial" font-size="16" fill="black">1.129</text>
<line x1="120" y1="547.50" x2="1145" y2="547.50" stroke="#dddddd" stroke-width="1"/>
<text x="104" y="552.50" text-anchor="end" font-family="Arial" font-size="16" fill="black">1.143</text>
<line x1="120" y1="390.00" x2="1145" y2="390.00" stroke="#dddddd" stroke-width="1"/>
<text x="104" y="395.00" text-anchor="end" font-family="Arial" font-size="16" fill="black">1.156</text>
<line x1="120" y1="232.50" x2="1145" y2="232.50" stroke="#dddddd" stroke-width="1"/>
<text x="104" y="237.50" text-anchor="end" font-family="Arial" font-size="16" fill="black">1.169</text>
<line x1="120" y1="75.00" x2="1145" y2="75.00" stroke="#dddddd" stroke-width="1"/>
<text x="104" y="80.00" text-anchor="end" font-family="Arial" font-size="16" fill="black">1.182</text>
<rect x="120" y="75" width="1025" height="630" fill="none" stroke="black" stroke-width="2"/>
<text x="632.5" y="785" text-anchor="middle" font-family="Arial" font-size="20" fill="black">y coordinate [m]</text>
<text x="34" y="390.0" transform="rotate(-90 34 390.0)" text-anchor="middle" font-family="Arial" font-size="20" fill="black">rho [kg/m3]</text>
<polyline points="190.69,391.80 193.64,394.20 196.58,395.40 199.53,397.79 202.47,400.19 205.42,402.59 208.36,404.99 211.31,408.58 214.25,412.18 217.20,415.78 220.14,419.37 223.09,422.97 226.03,426.57 228.98,428.96 231.92,431.36 234.87,433.76 237.82,437.36 240.76,439.75 243.71,442.15 246.65,444.55 249.60,445.75 252.54,448.15 255.49,450.54 258.43,452.94 261.38,454.14 264.33,456.54 267.27,457.74 270.22,460.14 273.16,461.33 276.11,463.73 279.05,464.93 282.00,467.33 284.94,468.53 287.89,469.73 290.83,470.93 293.78,473.32 296.72,474.52 299.67,475.72 302.61,478.12 305.56,479.32 308.51,480.52 311.45,482.92 314.40,484.11 317.34,486.51 320.29,488.91 323.23,491.31 326.18,493.71 329.12,496.10 332.07,498.50 335.01,502.10 337.96,505.69 340.91,510.49 343.85,514.09 346.80,518.88 349.74,522.48 352.69,530.87 355.63,538.06 358.58,546.46 361.52,554.85 364.47,562.04 367.41,570.44 370.37,576.43 373.30,581.23 376.25,587.22 379.20,593.21 382.13,598.01 385.09,604.00 388.04,604.00 390.97,602.81 393.92,602.81 396.87,601.61 399.81,601.61 402.76,600.41 405.71,598.01 408.64,596.81 411.59,594.41 414.55,592.02 417.48,589.62 420.43,588.42 423.38,586.02 426.32,583.62 429.27,582.42 432.22,580.03 435.15,577.63 438.10,576.43 441.05,574.03 443.99,571.63 446.94,569.24 449.89,568.04 452.82,565.64 455.78,563.24 458.73,559.64 461.66,556.05 464.61,552.45 467.56,548.85 470.50,545.26 473.45,541.66 476.40,534.47 479.33,528.47 482.28,522.48 485.24,515.29 488.17,509.29 491.12,503.30 494.07,493.71 497.01,484.11 499.96,474.52 502.91,464.93 505.84,455.34 508.79,445.75 511.74,432.56 514.68,419.37 517.63,406.19 520.58,393.00 523.51,379.81 526.47,366.62 529.42,351.04 532.35,334.25 535.30,317.47 538.25,300.68 541.19,283.90 544.14,267.11 547.09,253.92 550.02,240.74 552.97,226.35 555.93,213.16 558.86,199.97 561.81,185.59 564.76,179.59 567.70,172.40 570.65,166.40 573.60,159.21 576.53,153.22 579.48,146.02 582.43,142.43 585.37,140.03 588.32,136.43 591.27,132.84 594.20,130.44 597.16,126.84 600.11,125.64 603.04,124.44 605.99,123.24 608.94,120.85 611.88,119.65 614.83,118.45 617.78,118.45 620.71,118.45 623.66,119.65 626.62,119.65 629.55,119.65 632.50,119.65 635.45,120.85 638.38,122.04 641.34,123.24 644.29,124.44 647.22,125.64 650.17,128.04 653.12,130.44 656.06,132.84 659.01,135.23 661.96,136.43 664.89,138.83 667.84,141.23 670.80,144.82 673.73,148.42 676.68,152.02 679.63,155.61 682.57,159.21 685.52,162.81 688.47,167.60 691.40,172.40 694.35,178.39 697.30,183.19 700.24,189.18 703.19,193.98 706.14,205.97 709.07,216.76 712.03,227.55 714.98,238.34 717.91,250.33 720.86,261.12 723.81,275.50 726.75,289.89 729.70,304.28 732.65,318.67 735.58,333.05 738.53,347.44 741.49,359.43 744.42,372.62 747.37,384.60 750.32,397.79 753.26,409.78 756.21,422.97 759.16,434.96 762.09,445.75 765.04,457.74 767.99,469.73 770.93,481.72 773.88,493.71 776.83,504.50 779.76,515.29 782.72,527.27 785.67,538.06 788.60,548.85 791.55,559.64 794.50,568.04 797.44,576.43 800.39,584.82 803.34,593.21 806.27,601.61 809.22,610.00 812.18,614.79 815.11,620.79 818.06,625.58 821.01,631.58 823.95,637.57 826.90,642.37 829.85,645.97 832.78,648.36 835.73,650.76 838.68,654.36 841.62,656.76 844.57,659.15 847.52,660.35 850.45,660.35 853.41,660.35 856.36,660.35 859.29,660.35 862.24,661.55 865.19,656.76 868.13,653.16 871.08,648.36 874.03,644.77 876.96,641.17 879.91,636.37 882.87,625.58 885.80,613.60 888.75,601.61 891.70,589.62 894.63,577.63 897.59,565.64 900.54,551.25 903.47,536.87 906.42,522.48 909.37,509.29 912.31,494.90 915.26,480.52 918.21,472.12 921.14,463.73 924.09,455.34 927.05,446.95 929.98,438.56 932.93,430.16 935.88,426.57 938.82,421.77 941.77,416.98 944.72,413.38 947.65,408.58 950.60,403.79 953.55,402.59 956.49,401.39 959.44,398.99 962.39,397.79 965.32,396.59 968.28,394.20 971.23,394.20 974.16,394.20 977.11,394.20 980.06,394.20 983.00,394.20 985.95,394.20 988.90,395.40 991.83,395.40 994.78,396.59 997.74,396.59 1000.67,397.79 1003.62,397.79 1006.57,398.99 1009.51,398.99 1012.46,400.19 1015.41,400.19 1018.34,401.39 1021.29,401.39 1024.24,401.39 1027.18,401.39 1030.13,401.39 1033.08,401.39 1036.01,401.39 1038.97,401.39 1041.92,400.19 1044.85,398.99 1047.80,398.99 1050.75,397.79 1053.69,396.59 1056.64,395.40 1059.59,394.20 1062.52,393.00 1065.47,391.80 1068.43,391.80 1071.36,390.60 1074.31,389.40" fill="none" stroke="#000000" stroke-width="3"/>
<line x1="142" y1="100" x2="178" y2="100" stroke="#000000" stroke-width="4"/>
<text x="188" y="105" font-family="Arial" font-size="18" fill="black">rho</text>
</svg>