<svg xmlns="http://www.w3.org/2000/svg" width="1200" height="820" viewBox="0 0 1200 820">
<rect width="100%" height="100%" fill="white"/>
<text x="600.0" y="36" text-anchor="middle" font-family="Arial" font-size="24" fill="black">profile_near_ceiling_x: p_rgh</text>
<line x1="120.00" y1="75" x2="120.00" y2="705" stroke="#dddddd" stroke-width="1"/>
<text x="120.00" y="737" text-anchor="middle" font-family="Arial" font-size="16" fill="black">-0.560</text>
<line x1="376.25" y1="75" x2="376.25" y2="705" stroke="#dddddd" stroke-width="1"/>
<text x="376.25" y="737" text-anchor="middle" font-family="Arial" font-size="16" fill="black">1.470</text>
<line x1="632.50" y1="75" x2="632.50" y2="705" stroke="#dddddd" stroke-width="1"/>
<text x="632.50" y="737" text-anchor="middle" font-family="Arial" font-size="16" fill="black">3.500</text>
<line x1="888.75" y1="75" x2="888.75" y2="705" stroke="#dddddd" stroke-width="1"/>
<text x="888.75" y="737" text-anchor="middle" font-family="Arial" font-size="16" fill="black">5.530</text>
<line x1="1145.00" y1="75" x2="1145.00" y2="705" stroke="#dddddd" stroke-width="1"/>
<text x="1145.00" y="737" text-anchor="middle" font-family="Arial" font-size="16" fill="black">7.560</text>
<line x1="120" y1="705.00" x2="1145" y2="705.00" stroke="#dddddd" stroke-width="1"/>
<text x="104" y="710.00" text-anchor="end" font-family="Arial" font-size="16" fill="black">-0.216</text>
<line x1="120" y1="547.50" x2="1145" y2="547.50" stroke="#dddddd" stroke-width="1"/>
<text x="104" y="552.50" text-anchor="end" font-family="Arial" font-size="16" fill="black">-0.105</text>
<line x1="120" y1="390.00" x2="1145" y2="390.00" stroke="#dddddd" stroke-width="1"/>
<text x="104" y="395.00" text-anchor="end" font-family="Arial" font-size="16" fill="black">0.007</text>
<line x1="120" y1="232.50" x2="1145" y2="232.50" stroke="#dddddd" stroke-width="1"/>
<text x="104" y="237.50" text-anchor="end" font-family="Arial" font-size="16" fill="black">0.119</text>
<line x1="120" y1="75.00" x2="1145" y2="75.00" stroke="#dddddd" stroke-width="1"/>
<text x="104" y="80.00" text-anchor="end" font-family="Arial" font-size="16" fill="black">0.231</text>
<rect x="120" y="75" width="1025" height="630" fill="none" stroke="black" stroke-width="2"/>
<text x="632.5" y="785" text-anchor="middle" font-family="Arial" font-size="20" fill="black">x coordinate [m]</text>
<text x="34" y="390.0" transform="rotate(-90 34 390.0)" text-anchor="middle" font-family="Arial" font-size="20" fill="black">p_rgh [Pa]</text>
<polyline points="190.69,541.22 193.64,544.24 196.58,547.26 199.53,550.29 202.47,553.31 205.42,557.96 208.36,563.24 211.31,568.52 214.25,573.81 217.20,578.75 220.14,583.25 223.09,587.74 226.03,592.24 228.98,596.69 231.93,600.96 234.87,605.21 237.82,609.48 240.76,613.73 243.71,617.62 246.65,621.44 249.60,625.26 252.54,629.08 255.49,632.59 258.43,635.85 261.38,639.12 264.32,642.39 267.27,645.45 270.22,647.97 273.16,650.48 276.11,653.00 279.05,655.52 282.00,656.94 284.94,658.35 287.89,659.78 290.83,661.20 293.78,661.55 296.72,661.47 299.67,661.38 302.62,661.31 305.56,660.47 308.51,658.59 311.45,656.72 314.40,654.83 317.34,652.70 320.29,649.04 323.23,645.36 326.17,641.69 329.13,638.01 332.07,633.15 335.01,628.08 337.96,623.01 340.91,617.93 343.85,612.31 346.80,606.27 349.74,600.22 352.68,594.19 355.64,587.85 358.58,580.78 361.52,573.71 364.47,566.62 367.41,559.55 370.35,551.59 373.31,543.63 376.25,535.66 379.19,527.70 382.15,519.35 385.09,510.85 388.03,502.35 390.98,493.85 393.92,484.96 396.86,475.56 399.82,466.15 402.76,456.75 405.70,447.14 408.65,436.32 411.59,425.51 414.54,414.69 417.49,403.88 420.43,392.02 423.37,379.98 426.33,367.94 429.27,355.91 432.21,343.87 435.16,331.84 438.10,319.80 441.04,307.77 444.00,296.18 446.94,285.71 449.88,275.24 452.83,264.77 455.78,254.31 458.72,246.39 461.67,238.47 464.61,230.55 467.55,222.63 470.51,216.66 473.45,211.46 476.39,206.26 479.34,201.08 482.28,196.74 485.23,193.57 488.18,190.40 491.12,187.23 494.06,184.20 497.02,182.06 499.96,179.90 502.90,177.76 505.85,175.62 508.79,173.82 511.73,172.06 514.69,170.31 517.63,168.56 520.57,166.93 523.52,165.38 526.47,163.83 529.41,162.28 532.36,160.81 535.30,159.53 538.24,158.26 541.20,156.99 544.14,155.73 547.08,155.04 550.03,154.35 552.97,153.66 555.92,152.95 558.87,152.97 561.81,153.25 564.75,153.53 567.71,153.81 570.65,154.61 573.59,156.09 576.54,157.59 579.48,159.08 582.42,160.71 585.38,163.31 588.32,165.90 591.26,168.49 594.21,171.07 597.16,174.31 600.10,177.65 603.05,180.99 605.99,184.33 608.93,187.99 611.89,191.88 614.83,195.78 617.77,199.68 620.72,203.53 623.66,207.25 626.60,210.95 629.56,214.67 632.50,218.39 635.44,220.77 638.40,223.16 641.34,225.55 644.28,227.93 647.23,229.19 650.17,229.99 653.11,230.79 656.07,231.61 659.01,231.85 661.95,231.34 664.90,230.85 667.84,230.34 670.79,229.68 673.74,228.04 676.68,226.41 679.62,224.78 682.58,223.14 685.52,219.77 688.46,216.14 691.41,212.49 694.35,208.84 697.29,203.67 700.25,197.36 703.19,191.03 706.13,184.72 709.08,178.00 712.03,170.24 714.97,162.49 717.92,154.73 720.86,146.98 723.80,140.65 726.76,134.31 729.70,127.99 732.64,121.66 735.59,119.58 738.53,119.19 741.48,118.83 744.43,118.45 747.37,121.76 750.31,130.00 753.27,138.23 756.21,146.47 759.15,154.73 762.10,163.10 765.04,171.46 767.98,179.83 770.94,188.20 773.88,191.40 776.82,193.72 779.77,196.06 782.72,198.40 785.66,199.63 788.61,200.02 791.55,200.43 794.49,200.82 797.45,201.30 800.39,201.95 803.33,202.60 806.28,203.25 809.22,203.90 812.17,205.39 815.12,206.88 818.06,208.36 821.00,209.86 823.96,212.14 826.90,214.72 829.84,217.31 832.79,219.89 835.73,222.77 838.67,226.04 841.63,229.33 844.57,232.61 847.51,235.85 850.46,238.84 853.41,241.84 856.35,244.84 859.30,247.84 862.24,250.23 865.18,252.52 868.14,254.81 871.08,257.11 874.02,259.12 876.97,260.92 879.91,262.73 882.85,264.53 885.81,266.16 888.75,267.36 891.69,268.55 894.65,269.74 897.59,270.94 900.53,271.17 903.48,271.39 906.42,271.62 909.36,271.84 912.32,271.32 915.26,270.50 918.20,269.68 921.15,268.85 924.09,267.80 927.04,266.44 929.99,265.08 932.93,263.72 935.87,262.37 938.83,261.08 941.77,259.80 944.71,258.52 947.66,257.22 950.60,256.38 953.54,255.60 956.50,254.84 959.44,254.07 962.38,253.78 965.33,253.90 968.28,254.00 971.22,254.09 974.17,254.46 977.11,255.49 980.05,256.50 983.01,257.53 985.95,258.56 988.89,260.37 991.84,262.19 994.78,264.01 997.73,265.83 1000.68,268.00 1003.62,270.31 1006.56,272.62 1009.52,274.93 1012.46,277.25 1015.40,279.58 1018.35,281.91 1021.29,284.24 1024.23,286.50 1027.19,288.30 1030.13,290.11 1033.07,291.92 1036.02,293.73 1038.97,295.07 1041.91,296.33 1044.86,297.60 1047.80,298.86 1050.74,300.39 1053.70,302.12 1056.64,303.85 1059.58,305.57 1062.53,307.14 1065.47,308.31 1068.42,309.48 1071.37,310.65 1074.31,311.81" fill="none" stroke="#000000" stroke-width="3"/>
<line x1="142" y1="100" x2="178" y2="100" stroke="#000000" stroke-width="4"/>
<text x="188" y="105" font-family="Arial" font-size="18" fill="black">p_rgh</text>
</svg>