<svg xmlns="http://www.w3.org/2000/svg" width="1200" height="820" viewBox="0 0 1200 820">
<rect width="100%" height="100%" fill="white"/>
<text x="600.0" y="36" text-anchor="middle" font-family="Arial" font-size="24" fill="black">profile_diagonal_supply_return: Q</text>
<line x1="120.00" y1="75" x2="120.00" y2="705" stroke="#dddddd" stroke-width="1"/>
<text x="120.00" y="737" text-anchor="middle" font-family="Arial" font-size="16" fill="black">-0.729</text>
<line x1="376.25" y1="75" x2="376.25" y2="705" stroke="#dddddd" stroke-width="1"/>
<text x="376.25" y="737" text-anchor="middle" font-family="Arial" font-size="16" fill="black">1.913</text>
<line x1="632.50" y1="75" x2="632.50" y2="705" stroke="#dddddd" stroke-width="1"/>
<text x="632.50" y="737" text-anchor="middle" font-family="Arial" font-size="16" fill="black">4.555</text>
<line x1="888.75" y1="75" x2="888.75" y2="705" stroke="#dddddd" stroke-width="1"/>
<text x="888.75" y="737" text-anchor="middle" font-family="Arial" font-size="16" fill="black">7.197</text>
<line x1="1145.00" y1="75" x2="1145.00" y2="705" stroke="#dddddd" stroke-width="1"/>
<text x="1145.00" y="737" text-anchor="middle" font-family="Arial" font-size="16" fill="black">9.839</text>
<line x1="120" y1="705.00" x2="1145" y2="705.00" stroke="#dddddd" stroke-width="1"/>
<text x="104" y="710.00" text-anchor="end" font-family="Arial" font-size="16" fill="black">-2.311</text>
<line x1="120" y1="547.50" x2="1145" y2="547.50" stroke="#dddddd" stroke-width="1"/>
<text x="104" y="552.50" text-anchor="end" font-family="Arial" font-size="16" fill="black">-1.485</text>
<line x1="120" y1="390.00" x2="1145" y2="390.00" stroke="#dddddd" stroke-width="1"/>
<text x="104" y="395.00" text-anchor="end" font-family="Arial" font-size="16" fill="black">-0.659</text>
<line x1="120" y1="232.50" x2="1145" y2="232.50" stroke="#dddddd" stroke-width="1"/>
<text x="104" y="237.50" text-anchor="end" font-family="Arial" font-size="16" fill="black">0.167</text>
<line x1="120" y1="75.00" x2="1145" y2="75.00" stroke="#dddddd" stroke-width="1"/>
<text x="104" y="80.00" text-anchor="end" font-family="Arial" font-size="16" fill="black">0.993</text>
<rect x="120" y="75" width="1025" height="630" fill="none" stroke="black" stroke-width="2"/>
<text x="632.5" y="785" text-anchor="middle" font-family="Arial" font-size="20" fill="black">distance along sample line [m]</text>
<text x="34" y="390.0" transform="rotate(-90 34 390.0)" text-anchor="middle" font-family="Arial" font-size="20" fill="black">Q [SI]</text>
<polyline points="190.69,661.55 193.64,630.97 196.58,596.99 199.53,559.30 202.47,517.46 205.42,460.38 208.36,396.97 211.31,325.54 214.25,256.05 217.20,201.65 220.14,168.65 223.09,141.07 226.03,118.45 228.98,119.02 231.93,128.04 234.87,137.21 237.82,146.52 240.76,155.93 243.71,169.52 246.65,187.22 249.60,202.98 252.54,216.74 255.49,226.91 258.43,234.69 261.38,241.93 264.32,249.33 267.27,255.48 270.22,259.16 273.16,262.50 276.11,265.51 279.05,268.18 282.00,268.65 284.94,269.08 287.88,269.43 290.83,269.67 293.78,270.13 296.73,270.10 299.67,268.83 302.62,267.18 305.57,266.20 308.50,266.03 311.45,266.57 314.40,266.51 317.34,265.98 320.29,266.51 323.24,266.44 326.18,265.82 329.12,264.68 332.07,263.53 335.01,261.84 337.96,259.75 340.91,257.94 343.85,255.76 346.80,253.20 349.74,250.25 352.68,246.12 355.63,241.95 358.58,238.22 361.53,234.28 364.47,230.05 367.42,225.49 370.36,223.20 373.30,220.91 376.25,218.58 379.20,216.17 382.14,214.08 385.09,212.44 388.04,212.16 390.97,211.97 393.92,211.35 396.87,210.36 399.81,209.70 402.76,209.49 405.71,210.15 408.65,212.05 411.59,214.53 414.54,217.56 417.48,221.12 420.43,226.81 423.38,232.48 426.32,238.25 429.27,243.83 432.21,248.88 435.16,253.29 438.10,257.59 441.05,261.54 444.00,264.86 446.94,266.52 449.89,267.94 452.84,269.12 455.77,270.04 458.72,269.81 461.67,269.21 464.61,268.23 467.56,266.86 470.51,265.03 473.45,262.74 476.39,260.05 479.34,256.99 482.28,253.67 485.23,250.17 488.18,246.88 491.12,243.40 494.07,240.14 497.01,237.64 499.96,235.10 502.90,232.54 505.85,229.95 508.80,228.59 511.74,227.76 514.69,226.91 517.63,227.22 520.57,228.28 523.52,229.84 526.47,231.31 529.41,232.80 532.36,234.26 535.31,235.80 538.24,237.01 541.19,237.85 544.14,238.30 547.08,239.30 550.03,240.05 552.98,240.55 555.92,240.77 558.86,240.78 561.81,240.61 564.76,240.28 567.70,239.75 570.65,239.41 573.60,239.49 576.54,240.92 579.49,242.43 582.43,244.06 585.37,246.72 588.32,249.36 591.27,251.99 594.21,254.56 597.16,257.13 600.11,259.29 603.04,261.43 605.99,264.35 608.94,266.72 611.88,268.77 614.83,270.90 617.78,272.72 620.72,274.29 623.66,275.18 626.61,276.19 629.55,277.31 632.50,278.53 635.45,278.84 638.40,279.22 641.34,279.65 644.28,280.13 647.23,279.99 650.17,279.57 653.12,278.81 656.07,278.01 659.01,276.87 661.96,275.28 664.90,273.69 667.84,272.05 670.79,269.97 673.74,267.64 676.68,265.28 679.63,262.87 682.58,260.41 685.51,258.23 688.46,256.08 691.41,253.95 694.35,251.89 697.30,250.27 700.25,248.96 703.20,247.62 706.14,246.67 709.08,245.93 712.03,245.65 714.97,245.33 717.92,244.97 720.87,244.57 723.81,245.10 726.76,245.58 729.70,246.02 732.64,246.40 735.59,246.84 738.54,247.22 741.48,248.01 744.43,248.79 747.38,249.63 750.31,250.49 753.26,251.19 756.21,251.76 759.15,252.68 762.10,253.83 765.05,254.92 767.99,255.94 770.93,256.86 773.88,257.92 776.83,259.20 779.77,260.48 782.72,261.48 785.67,262.51 788.61,263.48 791.55,264.28 794.50,265.02 797.44,265.70 800.39,266.24 803.34,266.68 806.28,266.97 809.23,267.08 812.17,266.01 815.11,264.91 818.06,263.71 821.01,262.36 823.95,260.55 826.90,258.28 829.85,256.02 832.79,253.65 835.73,251.33 838.68,249.00 841.63,246.23 844.57,243.08 847.52,240.87 850.47,239.81 853.41,238.51 856.35,236.93 859.30,235.04 862.24,234.15 865.19,234.91 868.14,235.50 871.08,235.88 874.03,236.53 876.97,237.41 879.91,238.12 882.86,240.84 885.81,243.68 888.75,247.04 891.70,250.39 894.65,253.74 897.58,257.09 900.53,262.11 903.48,266.73 906.43,270.94 909.37,274.75 912.32,277.34 915.27,279.15 918.20,280.72 921.15,281.64 924.10,281.70 927.04,280.99 929.99,280.24 932.94,279.13 935.88,277.85 938.82,277.03 941.77,276.24 944.71,275.50 947.66,274.85 950.61,275.30 953.55,276.32 956.50,277.97 959.44,282.08 962.38,287.96 965.33,295.64 968.28,304.82 971.22,313.32 974.17,323.75 977.12,335.75 980.06,350.18 983.00,367.13 985.95,386.70 988.90,402.82 991.84,419.99 994.79,437.63 997.74,455.15 1000.68,461.94 1003.62,461.35 1006.57,451.94 1009.51,438.68 1012.46,422.51 1015.41,404.02 1018.35,370.87 1021.30,337.62 1024.24,304.13 1027.18,292.36 1030.13,283.18 1033.08,276.27 1036.02,271.33 1038.97,273.80 1041.92,281.88 1044.86,289.55 1047.80,297.55 1050.75,305.98 1053.70,312.50 1056.64,315.73 1059.59,317.13 1062.54,315.04 1065.47,309.96 1068.42,302.84 1071.37,293.93 1074.31,283.46" fill="none" stroke="#000000" stroke-width="3"/>
<line x1="142" y1="100" x2="178" y2="100" stroke="#000000" stroke-width="4"/>
<text x="188" y="105" font-family="Arial" font-size="18" fill="black">Q</text>
</svg>