<svg xmlns="http://www.w3.org/2000/svg" width="1200" height="820" viewBox="0 0 1200 820">
<rect width="100%" height="100%" fill="white"/>
<text x="600.0" y="36" text-anchor="middle" font-family="Arial" font-size="24" fill="black">profile_near_ceiling_x: epsilon</text>
<line x1="120.00" y1="75" x2="120.00" y2="705" stroke="#dddddd" stroke-width="1"/>
<text x="120.00" y="737" text-anchor="middle" font-family="Arial" font-size="16" fill="black">-0.560</text>
<line x1="376.25" y1="75" x2="376.25" y2="705" stroke="#dddddd" stroke-width="1"/>
<text x="376.25" y="737" text-anchor="middle" font-family="Arial" font-size="16" fill="black">1.470</text>
<line x1="632.50" y1="75" x2="632.50" y2="705" stroke="#dddddd" stroke-width="1"/>
<text x="632.50" y="737" text-anchor="middle" font-family="Arial" font-size="16" fill="black">3.500</text>
<line x1="888.75" y1="75" x2="888.75" y2="705" stroke="#dddddd" stroke-width="1"/>
<text x="888.75" y="737" text-anchor="middle" font-family="Arial" font-size="16" fill="black">5.530</text>
<line x1="1145.00" y1="75" x2="1145.00" y2="705" stroke="#dddddd" stroke-width="1"/>
<text x="1145.00" y="737" text-anchor="middle" font-family="Arial" font-size="16" fill="black">7.560</text>
<line x1="120" y1="705.00" x2="1145" y2="705.00" stroke="#dddddd" stroke-width="1"/>
<text x="104" y="710.00" text-anchor="end" font-family="Arial" font-size="16" fill="black">8.89e-04</text>
<line x1="120" y1="547.50" x2="1145" y2="547.50" stroke="#dddddd" stroke-width="1"/>
<text x="104" y="552.50" text-anchor="end" font-family="Arial" font-size="16" fill="black">0.003</text>
<line x1="120" y1="390.00" x2="1145" y2="390.00" stroke="#dddddd" stroke-width="1"/>
<text x="104" y="395.00" text-anchor="end" font-family="Arial" font-size="16" fill="black">0.006</text>
<line x1="120" y1="232.50" x2="1145" y2="232.50" stroke="#dddddd" stroke-width="1"/>
<text x="104" y="237.50" text-anchor="end" font-family="Arial" font-size="16" fill="black">0.008</text>
<line x1="120" y1="75.00" x2="1145" y2="75.00" stroke="#dddddd" stroke-width="1"/>
<text x="104" y="80.00" text-anchor="end" font-family="Arial" font-size="16" fill="black">0.010</text>
<rect x="120" y="75" width="1025" height="630" fill="none" stroke="black" stroke-width="2"/>
<text x="632.5" y="785" text-anchor="middle" font-family="Arial" font-size="20" fill="black">x coordinate [m]</text>
<text x="34" y="390.0" transform="rotate(-90 34 390.0)" text-anchor="middle" font-family="Arial" font-size="20" fill="black">epsilon [m2/s3]</text>
<polyline points="190.69,502.64 193.64,503.94 196.58,505.23 199.53,506.53 202.47,507.83 205.42,505.88 208.36,502.64 211.31,499.40 214.25,496.17 217.20,490.64 220.14,482.08 223.09,473.50 226.03,464.94 228.98,456.44 231.93,448.39 234.87,440.33 237.82,432.28 240.76,424.23 243.71,415.87 246.65,407.46 249.60,399.05 252.54,390.63 255.49,382.18 258.43,373.71 261.38,365.22 264.32,356.74 267.27,348.42 270.22,340.50 273.16,332.58 276.11,324.65 279.05,316.73 282.00,309.26 284.94,301.79 287.89,294.32 290.83,286.84 293.78,279.59 296.72,272.42 299.67,265.26 302.62,258.10 305.56,251.03 308.51,244.09 311.45,237.14 314.40,230.20 317.34,223.30 320.29,216.64 323.23,209.98 326.17,203.33 329.13,196.67 332.07,190.41 335.01,184.20 337.96,178.01 340.91,171.81 343.85,165.98 346.80,160.43 349.74,154.88 352.68,149.32 355.64,144.13 358.58,139.85 361.52,135.56 364.47,131.28 367.41,126.99 370.35,124.88 373.31,122.77 376.25,120.65 379.19,118.54 382.15,118.45 385.09,119.18 388.03,119.90 390.98,120.63 393.92,123.04 396.86,127.69 399.82,132.34 402.76,136.98 405.70,142.40 408.65,152.38 411.59,162.37 414.54,172.35 417.49,182.33 420.43,196.35 423.37,211.03 426.33,225.71 429.27,240.40 432.21,255.98 435.16,272.25 438.10,288.52 441.04,304.78 444.00,320.65 446.94,335.56 449.88,350.46 452.83,365.36 455.78,380.27 458.72,391.01 461.67,401.75 464.61,412.49 467.55,423.23 470.51,429.81 473.45,434.71 476.39,439.61 479.34,444.51 482.28,447.71 485.23,448.64 488.18,449.57 491.12,450.50 494.06,451.31 497.02,451.38 499.96,451.45 502.90,451.51 505.85,451.58 508.79,451.99 511.73,452.46 514.69,452.93 517.63,453.40 520.57,453.83 523.52,454.24 526.47,454.65 529.41,455.06 532.36,455.20 535.30,454.69 538.24,454.17 541.20,453.65 544.14,453.14 547.08,451.09 550.03,449.03 552.97,446.97 555.92,444.92 558.87,441.66 561.81,437.89 564.75,434.14 567.71,430.38 570.65,426.08 573.59,421.05 576.54,416.02 579.48,410.99 582.42,405.89 585.38,400.38 588.32,394.88 591.26,389.37 594.21,383.87 597.16,378.56 600.10,373.28 603.05,368.01 605.99,362.74 608.93,357.95 611.89,353.55 614.83,349.13 617.77,344.72 620.72,340.79 623.66,338.03 626.60,335.27 629.56,332.52 632.50,329.76 635.44,329.17 638.40,328.58 641.34,327.99 644.28,327.39 647.23,328.12 650.17,329.37 653.11,330.62 656.07,331.88 659.01,333.48 661.95,335.53 664.90,337.58 667.84,339.64 670.79,341.62 673.74,343.17 676.68,344.73 679.62,346.28 682.58,347.84 685.52,348.34 688.46,348.67 691.41,349.00 694.35,349.33 697.29,349.40 700.25,349.27 703.19,349.14 706.13,349.02 709.08,349.54 712.03,351.70 714.97,353.86 717.92,356.02 720.86,358.18 723.80,366.18 726.76,374.18 729.70,382.17 732.64,390.16 735.59,401.61 738.53,414.43 741.48,427.26 744.43,440.08 747.37,452.31 750.31,463.73 753.27,475.15 756.21,486.58 759.15,497.13 762.10,502.44 765.04,507.75 767.98,513.07 770.94,518.38 773.88,519.44 776.82,519.80 779.77,520.16 782.72,520.52 785.66,520.13 788.61,519.20 791.55,518.27 794.49,517.33 797.45,516.46 800.39,515.75 803.33,515.03 806.28,514.32 809.22,513.60 812.17,513.30 815.12,513.00 818.06,512.69 821.00,512.39 823.96,512.14 826.90,511.91 829.84,511.69 832.79,511.46 835.73,510.85 838.67,509.73 841.63,508.61 844.57,507.49 847.51,506.08 850.46,502.91 853.41,499.73 856.35,496.56 859.30,493.40 862.24,487.92 865.18,482.07 868.14,476.21 871.08,470.36 874.02,463.14 876.97,454.90 879.91,446.66 882.85,438.42 885.81,430.21 888.75,422.11 891.69,414.01 894.65,405.90 897.59,397.80 900.53,392.65 903.48,387.49 906.42,382.34 909.36,377.18 912.32,374.87 915.26,373.69 918.20,372.51 921.15,371.33 924.09,371.79 927.04,374.43 929.99,377.07 932.93,379.72 935.87,382.75 938.83,388.19 941.77,393.62 944.71,399.04 947.66,404.48 950.60,411.46 953.54,418.70 956.50,425.94 959.44,433.19 962.38,441.03 965.33,449.34 968.28,457.65 971.22,465.96 974.17,474.40 977.11,483.18 980.05,491.95 983.01,500.72 985.95,509.48 988.89,518.20 991.84,526.91 994.78,535.63 997.73,544.34 1000.68,552.67 1003.62,560.86 1006.56,569.05 1009.52,577.23 1012.46,585.02 1015.40,592.25 1018.35,599.50 1021.29,606.74 1024.23,613.80 1027.19,619.73 1030.13,625.67 1033.07,631.60 1036.02,637.54 1038.97,642.17 1041.91,646.59 1044.86,651.02 1047.80,655.44 1050.74,657.92 1053.70,658.96 1056.64,660.00 1059.58,661.04 1062.53,661.55 1065.47,660.77 1068.42,660.00 1071.37,659.21 1074.31,658.43" fill="none" stroke="#000000" stroke-width="3"/>
<line x1="142" y1="100" x2="178" y2="100" stroke="#000000" stroke-width="4"/>
<text x="188" y="105" font-family="Arial" font-size="18" fill="black">epsilon</text>
</svg>