<svg xmlns="http://www.w3.org/2000/svg" width="1200" height="820" viewBox="0 0 1200 820">
<rect width="100%" height="100%" fill="white"/>
<text x="600.0" y="36" text-anchor="middle" font-family="Arial" font-size="24" fill="black">profile_center_z: Q</text>
<line x1="120.00" y1="75" x2="120.00" y2="705" stroke="#dddddd" stroke-width="1"/>
<text x="120.00" y="737" text-anchor="middle" font-family="Arial" font-size="16" fill="black">-0.240</text>
<line x1="376.25" y1="75" x2="376.25" y2="705" stroke="#dddddd" stroke-width="1"/>
<text x="376.25" y="737" text-anchor="middle" font-family="Arial" font-size="16" fill="black">0.630</text>
<line x1="632.50" y1="75" x2="632.50" y2="705" stroke="#dddddd" stroke-width="1"/>
<text x="632.50" y="737" text-anchor="middle" font-family="Arial" font-size="16" fill="black">1.500</text>
<line x1="888.75" y1="75" x2="888.75" y2="705" stroke="#dddddd" stroke-width="1"/>
<text x="888.75" y="737" text-anchor="middle" font-family="Arial" font-size="16" fill="black">2.370</text>
<line x1="1145.00" y1="75" x2="1145.00" y2="705" stroke="#dddddd" stroke-width="1"/>
<text x="1145.00" y="737" text-anchor="middle" font-family="Arial" font-size="16" fill="black">3.240</text>
<line x1="120" y1="705.00" x2="1145" y2="705.00" stroke="#dddddd" stroke-width="1"/>
<text x="104" y="710.00" text-anchor="end" font-family="Arial" font-size="16" fill="black">-3.402</text>
<line x1="120" y1="547.50" x2="1145" y2="547.50" stroke="#dddddd" stroke-width="1"/>
<text x="104" y="552.50" text-anchor="end" font-family="Arial" font-size="16" fill="black">-2.455</text>
<line x1="120" y1="390.00" x2="1145" y2="390.00" stroke="#dddddd" stroke-width="1"/>
<text x="104" y="395.00" text-anchor="end" font-family="Arial" font-size="16" fill="black">-1.508</text>
<line x1="120" y1="232.50" x2="1145" y2="232.50" stroke="#dddddd" stroke-width="1"/>
<text x="104" y="237.50" text-anchor="end" font-family="Arial" font-size="16" fill="black">-0.560</text>
<line x1="120" y1="75.00" x2="1145" y2="75.00" stroke="#dddddd" stroke-width="1"/>
<text x="104" y="80.00" text-anchor="end" font-family="Arial" font-size="16" fill="black">0.387</text>
<rect x="120" y="75" width="1025" height="630" fill="none" stroke="black" stroke-width="2"/>
<text x="632.5" y="785" text-anchor="middle" font-family="Arial" font-size="20" fill="black">z coordinate [m]</text>
<text x="34" y="390.0" transform="rotate(-90 34 390.0)" text-anchor="middle" font-family="Arial" font-size="20" fill="black">Q [SI]</text>
<polyline points="190.69,145.06 193.64,146.04 196.58,147.01 199.53,147.98 202.47,148.96 205.42,149.93 208.36,150.90 211.31,151.87 214.25,152.85 217.20,153.82 220.14,154.79 223.09,157.34 226.03,159.88 228.98,162.43 231.93,164.97 234.87,167.52 237.82,170.06 240.76,172.61 243.71,175.16 246.65,177.70 249.60,180.25 252.54,184.27 255.49,188.29 258.43,192.30 261.38,196.33 264.32,200.34 267.27,204.36 270.22,208.38 273.16,212.40 276.11,216.42 279.05,220.44 282.00,226.51 284.94,232.57 287.89,238.64 290.83,244.70 293.78,250.76 296.72,256.83 299.67,262.89 302.61,268.96 305.56,275.02 308.51,281.09 311.45,289.38 314.40,297.68 317.34,305.97 320.29,314.27 323.23,322.57 326.18,330.85 329.12,339.15 332.07,347.44 335.01,355.74 337.96,364.04 340.91,373.45 343.85,382.88 346.80,392.29 349.74,401.72 352.69,411.15 355.63,420.56 358.58,429.99 361.52,439.40 364.47,448.83 367.41,458.24 370.36,469.78 373.30,481.33 376.25,492.87 379.20,504.41 382.14,515.95 385.09,527.49 388.03,539.03 390.98,550.57 393.92,562.11 396.87,573.67 399.81,582.45 402.76,591.25 405.70,600.03 408.65,608.82 411.59,617.60 414.54,626.40 417.49,635.18 420.43,643.98 423.38,652.76 426.32,661.55 429.27,650.34 432.21,639.15 435.16,627.95 438.10,616.76 441.05,605.56 443.99,594.36 446.94,583.17 449.89,571.96 452.83,560.77 455.78,549.58 458.72,528.13 461.67,506.68 464.61,485.24 467.56,463.79 470.50,442.34 473.45,420.91 476.39,399.46 479.34,378.01 482.28,356.57 485.23,335.12 488.18,324.13 491.12,313.14 494.07,302.15 497.01,291.17 499.96,280.18 502.90,269.19 505.85,258.20 508.79,247.21 511.74,236.22 514.68,225.24 517.63,220.75 520.57,216.27 523.52,211.78 526.47,207.30 529.41,202.82 532.36,198.33 535.30,193.85 538.25,189.37 541.19,184.88 544.14,180.40 547.08,178.07 550.03,175.74 552.97,173.41 555.92,171.09 558.86,168.76 561.81,166.43 564.76,164.10 567.70,161.77 570.65,159.44 573.59,157.11 576.54,156.48 579.48,155.84 582.43,155.21 585.37,154.57 588.32,153.94 591.26,153.30 594.21,152.67 597.16,152.03 600.10,151.39 603.05,150.76 605.99,150.86 608.94,150.95 611.88,151.05 614.83,151.15 617.77,151.24 620.72,151.34 623.66,151.43 626.61,151.53 629.55,151.63 632.50,151.72 635.45,152.09 638.39,152.46 641.34,152.83 644.28,153.19 647.23,153.56 650.17,153.93 653.12,154.30 656.06,154.66 659.01,155.03 661.95,155.40 664.90,155.79 667.84,156.19 670.79,156.58 673.74,156.98 676.68,157.37 679.63,157.77 682.57,158.16 685.52,158.56 688.46,158.95 691.41,159.35 694.35,159.65 697.30,159.96 700.24,160.27 703.19,160.58 706.14,160.89 709.08,161.19 712.03,161.50 714.97,161.81 717.92,162.12 720.86,162.43 723.81,162.59 726.75,162.76 729.70,162.92 732.64,163.09 735.59,163.25 738.53,163.42 741.48,163.59 744.43,163.75 747.37,163.92 750.32,164.08 753.26,164.06 756.21,164.04 759.15,164.02 762.10,164.00 765.04,163.98 767.99,163.95 770.93,163.93 773.88,163.91 776.82,163.89 779.77,163.87 782.72,163.62 785.66,163.38 788.61,163.13 791.55,162.89 794.50,162.64 797.44,162.40 800.39,162.15 803.33,161.90 806.28,161.66 809.22,161.41 812.17,160.93 815.11,160.44 818.06,159.95 821.01,159.46 823.95,158.97 826.90,158.49 829.84,158.00 832.79,157.51 835.73,157.02 838.68,156.53 841.62,155.80 844.57,155.07 847.51,154.34 850.46,153.61 853.41,152.88 856.35,152.15 859.30,151.42 862.24,150.69 865.19,149.96 868.13,149.23 871.08,148.30 874.02,147.37 876.97,146.44 879.91,145.51 882.86,144.58 885.80,143.65 888.75,142.72 891.70,141.79 894.64,140.86 897.59,139.93 900.53,138.93 903.48,137.94 906.42,136.94 909.37,135.94 912.31,134.95 915.26,133.95 918.20,132.95 921.15,131.96 924.09,130.96 927.04,129.96 929.99,129.16 932.93,128.36 935.88,127.56 938.82,126.76 941.77,125.96 944.71,125.16 947.66,124.36 950.60,123.57 953.55,122.77 956.49,121.97 959.44,121.61 962.39,121.26 965.33,120.91 968.28,120.56 971.22,120.21 974.17,119.86 977.11,119.50 980.06,119.15 983.00,118.80 985.95,118.45 988.89,118.76 991.84,119.06 994.78,119.37 997.73,119.67 1000.68,119.98 1003.62,120.29 1006.57,120.59 1009.51,120.90 1012.46,121.21 1015.40,121.51 1018.35,123.01 1021.29,124.51 1024.24,126.01 1027.18,127.51 1030.13,129.02 1033.07,130.52 1036.02,132.02 1038.97,133.52 1041.91,135.02 1044.86,136.52 1047.80,137.67 1050.75,138.82 1053.69,139.97 1056.64,141.12 1059.58,142.27 1062.53,143.42 1065.47,144.57 1068.42,145.72 1071.36,146.87 1074.31,148.02" fill="none" stroke="#000000" stroke-width="3"/>
<line x1="142" y1="100" x2="178" y2="100" stroke="#000000" stroke-width="4"/>
<text x="188" y="105" font-family="Arial" font-size="18" fill="black">Q</text>
</svg>