<svg xmlns="http://www.w3.org/2000/svg" width="1200" height="820" viewBox="0 0 1200 820">
<rect width="100%" height="100%" fill="white"/>
<text x="600.0" y="36" text-anchor="middle" font-family="Arial" font-size="24" fill="black">profile_diagonal_supply_return: nut</text>
<line x1="120.00" y1="75" x2="120.00" y2="705" stroke="#dddddd" stroke-width="1"/>
<text x="120.00" y="737" text-anchor="middle" font-family="Arial" font-size="16" fill="black">-0.729</text>
<line x1="376.25" y1="75" x2="376.25" y2="705" stroke="#dddddd" stroke-width="1"/>
<text x="376.25" y="737" text-anchor="middle" font-family="Arial" font-size="16" fill="black">1.913</text>
<line x1="632.50" y1="75" x2="632.50" y2="705" stroke="#dddddd" stroke-width="1"/>
<text x="632.50" y="737" text-anchor="middle" font-family="Arial" font-size="16" fill="black">4.555</text>
<line x1="888.75" y1="75" x2="888.75" y2="705" stroke="#dddddd" stroke-width="1"/>
<text x="888.75" y="737" text-anchor="middle" font-family="Arial" font-size="16" fill="black">7.197</text>
<line x1="1145.00" y1="75" x2="1145.00" y2="705" stroke="#dddddd" stroke-width="1"/>
<text x="1145.00" y="737" text-anchor="middle" font-family="Arial" font-size="16" fill="black">9.839</text>
<line x1="120" y1="705.00" x2="1145" y2="705.00" stroke="#dddddd" stroke-width="1"/>
<text x="104" y="710.00" text-anchor="end" font-family="Arial" font-size="16" fill="black">-7.54e-04</text>
<line x1="120" y1="547.50" x2="1145" y2="547.50" stroke="#dddddd" stroke-width="1"/>
<text x="104" y="552.50" text-anchor="end" font-family="Arial" font-size="16" fill="black">0.003</text>
<line x1="120" y1="390.00" x2="1145" y2="390.00" stroke="#dddddd" stroke-width="1"/>
<text x="104" y="395.00" text-anchor="end" font-family="Arial" font-size="16" fill="black">0.007</text>
<line x1="120" y1="232.50" x2="1145" y2="232.50" stroke="#dddddd" stroke-width="1"/>
<text x="104" y="237.50" text-anchor="end" font-family="Arial" font-size="16" fill="black">0.011</text>
<line x1="120" y1="75.00" x2="1145" y2="75.00" stroke="#dddddd" stroke-width="1"/>
<text x="104" y="80.00" text-anchor="end" font-family="Arial" font-size="16" fill="black">0.015</text>
<rect x="120" y="75" width="1025" height="630" fill="none" stroke="black" stroke-width="2"/>
<text x="632.5" y="785" text-anchor="middle" font-family="Arial" font-size="20" fill="black">distance along sample line [m]</text>
<text x="34" y="390.0" transform="rotate(-90 34 390.0)" text-anchor="middle" font-family="Arial" font-size="20" fill="black">nut [m2/s]</text>
<polyline points="190.69,652.34 193.64,652.24 196.58,652.13 199.53,651.98 202.47,651.78 205.42,651.40 208.36,650.87 211.31,650.41 214.25,649.84 217.20,649.24 220.14,648.69 223.09,647.75 226.03,646.64 228.98,646.25 231.93,645.93 234.87,645.69 237.82,645.54 240.76,645.50 243.71,645.21 246.65,644.45 249.60,643.78 252.54,643.12 255.49,642.21 258.43,641.21 261.38,640.37 264.32,639.14 267.27,637.74 270.22,635.79 273.16,634.03 276.11,632.49 279.05,631.19 282.00,628.02 284.94,625.06 287.88,622.32 290.83,619.81 293.78,616.37 296.73,612.61 299.67,608.46 302.62,604.52 305.57,600.15 308.50,594.99 311.45,590.10 314.40,585.41 317.34,580.36 320.29,574.56 323.24,568.81 326.18,563.14 329.12,557.58 332.07,551.87 335.01,545.71 337.96,539.57 340.91,533.79 343.85,528.48 346.80,523.50 349.74,518.57 352.68,513.47 355.63,508.85 358.58,505.26 361.53,501.91 364.47,498.81 367.42,495.98 370.36,494.49 373.30,493.33 376.25,492.52 379.20,492.08 382.14,491.83 385.09,491.94 388.04,492.84 390.97,494.23 393.92,495.07 396.87,494.90 399.81,494.36 402.76,494.23 405.71,493.78 408.65,489.14 411.59,484.74 414.54,480.60 417.48,476.71 420.43,467.51 423.38,456.82 426.32,445.71 429.27,434.12 432.21,421.50 435.16,407.62 438.10,393.11 441.05,378.11 444.00,363.89 446.94,352.41 449.89,340.17 452.84,327.15 455.77,313.30 458.72,306.69 461.67,299.53 464.61,291.79 467.56,283.44 470.51,278.47 473.45,274.63 476.39,270.60 479.34,266.02 482.28,262.53 485.23,260.77 488.18,259.56 491.12,257.95 494.07,256.54 497.01,256.66 499.96,256.50 502.90,256.11 505.85,255.41 508.80,255.17 511.74,255.05 514.69,254.82 517.63,255.41 520.57,255.64 523.52,255.56 526.47,255.41 529.41,255.09 532.36,254.27 535.31,252.43 538.24,250.43 541.19,248.36 544.14,246.13 547.08,243.23 550.03,240.29 552.98,237.40 555.92,234.50 558.86,230.23 561.81,225.45 564.76,220.33 567.70,215.20 570.65,209.48 573.60,202.90 576.54,199.03 579.49,195.35 582.43,191.35 585.37,186.77 588.32,182.23 591.27,177.84 594.21,173.62 597.16,169.58 600.11,165.35 603.04,161.20 605.99,158.82 608.94,157.33 611.88,156.51 614.83,155.64 617.78,154.94 620.72,154.94 623.66,156.66 626.61,158.50 629.55,160.46 632.50,162.53 635.45,167.62 638.40,172.83 641.34,178.12 644.28,183.52 647.23,189.43 650.17,195.58 653.12,202.35 656.07,209.09 659.01,215.24 661.96,220.52 664.90,225.73 667.84,230.70 670.79,235.52 673.74,237.32 676.68,238.49 679.63,239.00 682.58,238.84 685.51,234.73 688.46,229.76 691.41,224.16 694.35,218.21 697.30,210.54 700.25,201.61 703.20,192.29 706.14,184.03 709.08,175.89 712.03,168.25 714.97,160.69 717.92,153.18 720.87,145.70 723.81,141.47 726.76,137.32 729.70,133.21 732.64,129.22 735.59,126.40 738.54,124.01 741.48,122.09 744.43,120.21 747.38,119.04 750.31,118.72 753.26,118.60 756.21,118.45 759.15,118.49 762.10,119.98 765.05,121.46 767.99,122.91 770.93,124.32 773.88,127.45 776.83,130.66 779.77,133.80 782.72,136.97 785.67,141.20 788.61,146.29 791.55,151.45 794.50,155.88 797.44,160.58 800.39,166.18 803.34,171.81 806.28,177.49 809.23,183.21 812.17,188.06 815.11,192.88 818.06,197.73 821.01,202.59 823.95,206.97 826.90,211.24 829.85,214.49 832.79,217.70 835.73,220.33 838.68,222.28 841.63,224.44 844.57,226.75 847.52,228.35 850.47,229.25 853.41,230.47 856.35,231.99 859.30,233.75 862.24,235.99 865.19,239.08 868.14,242.60 871.08,247.18 874.03,252.98 876.97,259.83 879.91,267.07 882.86,275.45 885.81,284.66 888.75,295.47 891.70,306.45 894.65,317.60 897.58,328.92 900.53,341.23 903.48,353.36 906.43,365.29 909.37,377.01 912.32,387.70 915.27,397.82 918.20,407.39 921.15,416.78 924.10,425.40 927.04,433.10 929.99,440.86 932.94,448.43 935.88,455.12 938.82,461.32 941.77,467.55 944.71,473.82 947.66,480.14 950.61,486.54 953.55,491.56 956.50,496.80 959.44,502.33 962.38,508.30 965.33,514.70 968.28,521.39 971.22,525.90 974.17,530.94 977.12,536.79 980.06,543.25 983.00,550.34 985.95,558.07 988.90,563.61 991.84,569.91 994.79,576.88 997.74,584.45 1000.68,590.79 1003.62,596.61 1006.57,603.01 1009.51,609.24 1012.46,614.48 1015.41,618.38 1018.35,622.17 1021.30,625.80 1024.24,629.73 1027.18,633.59 1030.13,637.10 1033.08,640.28 1036.02,643.15 1038.97,646.14 1041.92,649.34 1044.86,652.06 1047.80,654.19 1050.75,656.10 1053.70,657.71 1056.64,658.99 1059.59,659.82 1062.54,660.43 1065.47,660.81 1068.42,661.11 1071.37,661.35 1074.31,661.55" fill="none" stroke="#000000" stroke-width="3"/>
<line x1="142" y1="100" x2="178" y2="100" stroke="#000000" stroke-width="4"/>
<text x="188" y="105" font-family="Arial" font-size="18" fill="black">nut</text>
</svg>