<svg xmlns="http://www.w3.org/2000/svg" width="1200" height="820" viewBox="0 0 1200 820">
<rect width="100%" height="100%" fill="white"/>
<text x="600.0" y="36" text-anchor="middle" font-family="Arial" font-size="24" fill="black">profile_rack_height_x: vorticity:1</text>
<line x1="120.00" y1="75" x2="120.00" y2="705" stroke="#dddddd" stroke-width="1"/>
<text x="120.00" y="737" text-anchor="middle" font-family="Arial" font-size="16" fill="black">-0.560</text>
<line x1="376.25" y1="75" x2="376.25" y2="705" stroke="#dddddd" stroke-width="1"/>
<text x="376.25" y="737" text-anchor="middle" font-family="Arial" font-size="16" fill="black">1.470</text>
<line x1="632.50" y1="75" x2="632.50" y2="705" stroke="#dddddd" stroke-width="1"/>
<text x="632.50" y="737" text-anchor="middle" font-family="Arial" font-size="16" fill="black">3.500</text>
<line x1="888.75" y1="75" x2="888.75" y2="705" stroke="#dddddd" stroke-width="1"/>
<text x="888.75" y="737" text-anchor="middle" font-family="Arial" font-size="16" fill="black">5.530</text>
<line x1="1145.00" y1="75" x2="1145.00" y2="705" stroke="#dddddd" stroke-width="1"/>
<text x="1145.00" y="737" text-anchor="middle" font-family="Arial" font-size="16" fill="black">7.560</text>
<line x1="120" y1="705.00" x2="1145" y2="705.00" stroke="#dddddd" stroke-width="1"/>
<text x="104" y="710.00" text-anchor="end" font-family="Arial" font-size="16" fill="black">-1.290</text>
<line x1="120" y1="547.50" x2="1145" y2="547.50" stroke="#dddddd" stroke-width="1"/>
<text x="104" y="552.50" text-anchor="end" font-family="Arial" font-size="16" fill="black">0.010</text>
<line x1="120" y1="390.00" x2="1145" y2="390.00" stroke="#dddddd" stroke-width="1"/>
<text x="104" y="395.00" text-anchor="end" font-family="Arial" font-size="16" fill="black">1.310</text>
<line x1="120" y1="232.50" x2="1145" y2="232.50" stroke="#dddddd" stroke-width="1"/>
<text x="104" y="237.50" text-anchor="end" font-family="Arial" font-size="16" fill="black">2.611</text>
<line x1="120" y1="75.00" x2="1145" y2="75.00" stroke="#dddddd" stroke-width="1"/>
<text x="104" y="80.00" text-anchor="end" font-family="Arial" font-size="16" fill="black">3.911</text>
<rect x="120" y="75" width="1025" height="630" fill="none" stroke="black" stroke-width="2"/>
<text x="632.5" y="785" text-anchor="middle" font-family="Arial" font-size="20" fill="black">x coordinate [m]</text>
<text x="34" y="390.0" transform="rotate(-90 34 390.0)" text-anchor="middle" font-family="Arial" font-size="20" fill="black">vorticity:1 [SI]</text>
<polyline points="190.69,498.30 193.64,506.35 196.58,514.41 199.53,522.46 202.47,530.52 205.42,538.76 208.36,547.08 211.31,555.40 214.25,563.72 217.20,568.55 220.14,568.73 223.09,568.91 226.03,569.09 228.98,569.19 231.93,568.79 234.87,568.40 237.82,568.00 240.76,567.61 243.71,566.86 246.65,566.04 249.60,565.23 252.54,564.42 255.49,563.33 258.43,562.02 261.38,560.72 264.32,559.42 267.27,557.90 270.22,555.84 273.16,553.77 276.11,551.71 279.05,549.65 282.00,546.44 284.94,543.24 287.89,540.04 290.83,536.84 293.78,532.73 296.72,528.26 299.67,523.79 302.62,519.32 305.56,514.54 308.51,509.32 311.45,504.11 314.40,498.89 317.34,493.74 320.29,488.96 323.23,484.18 326.17,479.40 329.13,474.62 332.07,471.08 335.01,467.74 337.96,464.40 340.91,461.06 343.85,458.80 346.80,457.35 349.74,455.89 352.68,454.44 355.64,453.55 358.58,454.06 361.52,454.57 364.47,455.09 367.41,455.60 370.35,457.90 373.31,460.20 376.25,462.50 379.19,464.80 382.15,467.97 385.09,471.49 388.03,475.01 390.98,478.52 393.92,482.00 396.86,485.43 399.82,488.86 402.76,492.28 405.70,495.53 408.65,497.69 411.59,499.85 414.54,502.01 417.49,504.17 420.43,504.88 423.37,505.34 426.33,505.81 429.27,506.27 432.21,505.86 435.16,504.77 438.10,503.69 441.04,502.60 444.00,501.28 446.94,499.37 449.88,497.45 452.83,495.54 455.78,493.62 458.72,491.79 461.67,489.96 464.61,488.12 467.55,486.29 470.51,484.99 473.45,483.91 476.39,482.83 479.34,481.75 482.28,481.09 485.23,480.98 488.18,480.88 491.12,480.77 494.06,480.77 497.02,481.41 499.96,482.05 502.90,482.68 505.85,483.32 508.79,484.16 511.73,485.03 514.69,485.89 517.63,486.76 520.57,487.46 523.52,488.03 526.47,488.61 529.41,489.18 532.36,489.60 535.30,489.63 538.24,489.67 541.20,489.70 544.14,489.73 547.08,489.39 550.03,489.05 552.97,488.71 555.92,488.36 558.87,488.14 561.81,487.96 564.75,487.78 567.71,487.60 570.65,487.80 573.59,488.51 576.54,489.22 579.48,489.93 582.42,490.84 585.38,492.91 588.32,494.98 591.26,497.06 594.21,499.13 597.16,502.15 600.10,505.32 603.05,508.50 605.99,511.68 608.93,515.03 611.89,518.51 614.83,522.00 617.77,525.48 620.72,528.81 623.66,531.77 626.60,534.73 629.56,537.69 632.50,540.65 635.44,543.04 638.40,545.44 641.34,547.84 644.28,550.24 647.23,552.70 650.17,555.18 653.11,557.66 656.07,560.14 659.01,562.74 661.95,565.53 664.90,568.31 667.84,571.09 670.79,573.87 673.74,576.64 676.68,579.42 679.62,582.19 682.58,584.97 685.52,587.33 688.46,589.62 691.41,591.91 694.35,594.20 697.29,596.02 700.25,597.49 703.19,598.96 706.13,600.43 709.08,601.66 712.03,602.28 714.97,602.90 717.92,603.52 720.86,604.14 723.80,604.14 726.76,604.14 729.70,604.14 732.64,604.14 735.59,603.89 738.53,603.56 741.48,603.22 744.43,602.87 747.37,602.47 750.31,602.00 753.27,601.52 756.21,601.04 759.15,600.55 762.10,600.03 765.04,599.51 767.98,598.99 770.94,598.47 773.88,597.93 776.82,597.39 779.77,596.85 782.72,596.31 785.66,595.74 788.61,595.14 791.55,594.55 794.49,593.95 797.45,593.33 800.39,592.64 803.33,591.95 806.28,591.25 809.22,590.56 812.17,589.75 815.12,588.95 818.06,588.14 821.00,587.33 823.96,586.43 826.90,585.50 829.84,584.56 832.79,583.63 835.73,582.64 838.67,581.57 841.63,580.51 844.57,579.45 847.51,578.40 850.46,577.49 853.41,576.57 856.35,575.65 859.30,574.73 862.24,574.83 865.18,575.11 868.14,575.38 871.08,575.65 874.02,575.93 876.97,576.22 879.91,576.50 882.85,576.79 885.81,576.41 888.75,574.36 891.69,572.31 894.65,570.26 897.59,568.21 900.53,568.08 903.48,567.94 906.42,567.81 909.36,567.67 912.32,570.83 915.26,575.30 918.20,579.78 921.15,584.25 924.09,589.03 927.04,594.23 929.99,599.42 932.93,604.61 935.87,609.63 938.83,613.65 941.77,617.67 944.71,621.69 947.66,625.71 950.60,628.65 953.54,631.41 956.50,634.17 959.44,636.94 962.38,638.94 965.33,640.38 968.28,641.82 971.22,643.26 974.17,644.45 977.11,645.02 980.05,645.58 983.01,646.15 985.95,646.71 988.89,647.23 991.84,647.75 994.78,648.28 997.73,648.79 1000.68,649.68 1003.62,650.71 1006.56,651.74 1009.52,652.77 1012.46,653.89 1015.40,655.14 1018.35,656.39 1021.29,657.64 1024.23,658.81 1027.19,659.49 1030.13,660.18 1033.07,660.86 1036.02,661.55 1038.97,661.35 1041.91,661.00 1044.86,660.65 1047.80,660.30 1050.74,623.91 1053.70,560.49 1056.64,497.07 1059.58,433.64 1062.53,370.35 1065.47,307.38 1068.42,244.40 1071.37,181.42 1074.31,118.45" fill="none" stroke="#000000" stroke-width="3"/>
<line x1="142" y1="100" x2="178" y2="100" stroke="#000000" stroke-width="4"/>
<text x="188" y="105" font-family="Arial" font-size="18" fill="black">vorticity:1</text>
</svg>