<svg xmlns="http://www.w3.org/2000/svg" width="1200" height="820" viewBox="0 0 1200 820">
<rect width="100%" height="100%" fill="white"/>
<text x="600.0" y="36" text-anchor="middle" font-family="Arial" font-size="24" fill="black">profile_near_ceiling_x: rho</text>
<line x1="120.00" y1="75" x2="120.00" y2="705" stroke="#dddddd" stroke-width="1"/>
<text x="120.00" y="737" text-anchor="middle" font-family="Arial" font-size="16" fill="black">-0.560</text>
<line x1="376.25" y1="75" x2="376.25" y2="705" stroke="#dddddd" stroke-width="1"/>
<text x="376.25" y="737" text-anchor="middle" font-family="Arial" font-size="16" fill="black">1.470</text>
<line x1="632.50" y1="75" x2="632.50" y2="705" stroke="#dddddd" stroke-width="1"/>
<text x="632.50" y="737" text-anchor="middle" font-family="Arial" font-size="16" fill="black">3.500</text>
<line x1="888.75" y1="75" x2="888.75" y2="705" stroke="#dddddd" stroke-width="1"/>
<text x="888.75" y="737" text-anchor="middle" font-family="Arial" font-size="16" fill="black">5.530</text>
<line x1="1145.00" y1="75" x2="1145.00" y2="705" stroke="#dddddd" stroke-width="1"/>
<text x="1145.00" y="737" text-anchor="middle" font-family="Arial" font-size="16" fill="black">7.560</text>
<line x1="120" y1="705.00" x2="1145" y2="705.00" stroke="#dddddd" stroke-width="1"/>
<text x="104" y="710.00" text-anchor="end" font-family="Arial" font-size="16" fill="black">1.128</text>
<line x1="120" y1="547.50" x2="1145" y2="547.50" stroke="#dddddd" stroke-width="1"/>
<text x="104" y="552.50" text-anchor="end" font-family="Arial" font-size="16" fill="black">1.134</text>
<line x1="120" y1="390.00" x2="1145" y2="390.00" stroke="#dddddd" stroke-width="1"/>
<text x="104" y="395.00" text-anchor="end" font-family="Arial" font-size="16" fill="black">1.139</text>
<line x1="120" y1="232.50" x2="1145" y2="232.50" stroke="#dddddd" stroke-width="1"/>
<text x="104" y="237.50" text-anchor="end" font-family="Arial" font-size="16" fill="black">1.144</text>
<line x1="120" y1="75.00" x2="1145" y2="75.00" stroke="#dddddd" stroke-width="1"/>
<text x="104" y="80.00" text-anchor="end" font-family="Arial" font-size="16" fill="black">1.149</text>
<rect x="120" y="75" width="1025" height="630" fill="none" stroke="black" stroke-width="2"/>
<text x="632.5" y="785" text-anchor="middle" font-family="Arial" font-size="20" fill="black">x coordinate [m]</text>
<text x="34" y="390.0" transform="rotate(-90 34 390.0)" text-anchor="middle" font-family="Arial" font-size="20" fill="black">rho [kg/m3]</text>
<polyline points="190.69,603.58 193.64,603.58 196.58,603.58 199.53,606.63 202.47,606.63 205.42,606.63 208.36,606.63 211.31,609.68 214.25,609.68 217.20,612.73 220.14,612.73 223.09,615.78 226.03,615.78 228.98,615.78 231.93,618.84 234.87,618.84 237.82,621.89 240.76,621.89 243.71,624.94 246.65,627.99 249.60,627.99 252.54,631.04 255.49,634.09 258.43,634.09 261.38,637.14 264.32,640.19 267.27,640.19 270.22,643.24 273.16,646.30 276.11,649.35 279.05,649.35 282.00,652.40 284.94,652.40 287.89,655.45 290.83,658.50 293.78,658.50 296.72,658.50 299.67,658.50 302.62,661.55 305.56,661.55 308.51,661.55 311.45,661.55 314.40,658.50 317.34,658.50 320.29,658.50 323.23,655.45 326.17,652.40 329.13,652.40 332.07,649.35 335.01,646.30 337.96,643.24 340.91,637.14 343.85,634.09 346.80,631.04 349.74,624.94 352.68,618.84 355.64,615.78 358.58,609.68 361.52,603.58 364.47,597.48 367.41,591.38 370.35,582.22 373.31,576.12 376.25,570.02 379.19,560.86 382.15,554.76 385.09,545.61 388.03,536.45 390.98,527.30 393.92,518.15 396.86,508.99 399.82,499.84 402.76,487.64 405.70,478.48 408.65,466.28 411.59,457.13 414.54,444.92 417.49,435.77 420.43,423.56 423.37,411.36 426.33,399.15 429.27,386.95 432.21,377.80 435.16,365.59 438.10,353.39 441.04,344.23 444.00,332.03 446.94,322.87 449.88,313.72 452.83,301.52 455.78,292.36 458.72,286.26 461.67,277.11 464.61,267.95 467.55,261.85 470.51,252.70 473.45,246.60 476.39,240.49 479.34,234.39 482.28,228.29 485.23,222.19 488.18,216.08 491.12,209.98 494.06,206.93 497.02,200.83 499.96,194.73 502.90,191.68 505.85,185.57 508.79,182.52 511.73,176.42 514.69,173.37 517.63,167.27 520.57,164.22 523.52,161.16 526.47,155.06 529.41,152.01 532.36,148.96 535.30,142.86 538.24,139.81 541.20,136.76 544.14,133.70 547.08,130.65 550.03,127.60 552.97,127.60 555.92,124.55 558.87,121.50 561.81,121.50 564.75,118.45 567.71,118.45 570.65,118.45 573.59,118.45 576.54,118.45 579.48,118.45 582.42,118.45 585.38,121.50 588.32,121.50 591.26,124.55 594.21,124.55 597.16,127.60 600.10,130.65 603.05,133.70 605.99,136.76 608.93,139.81 611.89,142.86 614.83,145.91 617.77,148.96 620.72,152.01 623.66,155.06 626.60,158.11 629.56,161.16 632.50,167.27 635.44,167.27 638.40,170.32 641.34,173.37 644.28,176.42 647.23,179.47 650.17,179.47 653.11,182.52 656.07,182.52 659.01,185.57 661.95,185.57 664.90,188.62 667.84,188.62 670.79,191.68 673.74,191.68 676.68,191.68 679.62,194.73 682.58,194.73 685.52,194.73 688.46,194.73 691.41,194.73 694.35,197.78 697.29,194.73 700.25,194.73 703.19,194.73 706.13,194.73 709.08,191.68 712.03,191.68 714.97,191.68 717.92,188.62 720.86,188.62 723.80,188.62 726.76,188.62 729.70,188.62 732.64,188.62 735.59,188.62 738.53,194.73 741.48,197.78 744.43,200.83 747.37,206.93 750.31,213.03 753.27,222.19 756.21,231.34 759.15,237.44 762.10,246.60 765.04,252.70 767.98,258.80 770.94,264.90 773.88,267.95 776.82,267.95 779.77,271.01 782.72,271.01 785.66,271.01 788.61,271.01 791.55,271.01 794.49,271.01 797.45,271.01 800.39,271.01 803.33,271.01 806.28,274.06 809.22,274.06 812.17,274.06 815.12,277.11 818.06,277.11 821.00,280.16 823.96,280.16 826.90,283.21 829.84,286.26 832.79,286.26 835.73,289.31 838.67,292.36 841.63,295.41 844.57,298.47 847.51,301.52 850.46,304.57 853.41,304.57 856.35,307.62 859.30,310.67 862.24,310.67 865.18,313.72 868.14,313.72 871.08,316.77 874.02,316.77 876.97,316.77 879.91,316.77 882.85,316.77 885.81,316.77 888.75,316.77 891.69,313.72 894.65,313.72 897.59,313.72 900.53,310.67 903.48,310.67 906.42,307.62 909.36,307.62 912.32,304.57 915.26,301.52 918.20,298.47 921.15,298.47 924.09,295.41 927.04,292.36 929.99,289.31 932.93,289.31 935.87,286.26 938.83,283.21 941.77,283.21 944.71,280.16 947.66,280.16 950.60,277.11 953.54,277.11 956.50,277.11 959.44,274.06 962.38,274.06 965.33,274.06 968.28,274.06 971.22,274.06 974.17,277.11 977.11,277.11 980.05,277.11 983.01,280.16 985.95,280.16 988.89,283.21 991.84,286.26 994.78,286.26 997.73,289.31 1000.68,292.36 1003.62,295.41 1006.56,298.47 1009.52,298.47 1012.46,301.52 1015.40,304.57 1018.35,307.62 1021.29,310.67 1024.23,313.72 1027.19,316.77 1030.13,316.77 1033.07,319.82 1036.02,322.87 1038.97,322.87 1041.91,325.93 1044.86,328.98 1047.80,328.98 1050.74,332.03 1053.70,332.03 1056.64,335.08 1059.58,338.13 1062.53,338.13 1065.47,341.18 1068.42,341.18 1071.37,344.23 1074.31,344.23" fill="none" stroke="#000000" stroke-width="3"/>
<line x1="142" y1="100" x2="178" y2="100" stroke="#000000" stroke-width="4"/>
<text x="188" y="105" font-family="Arial" font-size="18" fill="black">rho</text>
</svg>