<svg xmlns="http://www.w3.org/2000/svg" width="1200" height="820" viewBox="0 0 1200 820">
<rect width="100%" height="100%" fill="white"/>
<text x="600.0" y="36" text-anchor="middle" font-family="Arial" font-size="24" fill="black">profile_center_x: Q</text>
<line x1="120.00" y1="75" x2="120.00" y2="705" stroke="#dddddd" stroke-width="1"/>
<text x="120.00" y="737" text-anchor="middle" font-family="Arial" font-size="16" fill="black">-0.560</text>
<line x1="376.25" y1="75" x2="376.25" y2="705" stroke="#dddddd" stroke-width="1"/>
<text x="376.25" y="737" text-anchor="middle" font-family="Arial" font-size="16" fill="black">1.470</text>
<line x1="632.50" y1="75" x2="632.50" y2="705" stroke="#dddddd" stroke-width="1"/>
<text x="632.50" y="737" text-anchor="middle" font-family="Arial" font-size="16" fill="black">3.500</text>
<line x1="888.75" y1="75" x2="888.75" y2="705" stroke="#dddddd" stroke-width="1"/>
<text x="888.75" y="737" text-anchor="middle" font-family="Arial" font-size="16" fill="black">5.530</text>
<line x1="1145.00" y1="75" x2="1145.00" y2="705" stroke="#dddddd" stroke-width="1"/>
<text x="1145.00" y="737" text-anchor="middle" font-family="Arial" font-size="16" fill="black">7.560</text>
<line x1="120" y1="705.00" x2="1145" y2="705.00" stroke="#dddddd" stroke-width="1"/>
<text x="104" y="710.00" text-anchor="end" font-family="Arial" font-size="16" fill="black">-0.252</text>
<line x1="120" y1="547.50" x2="1145" y2="547.50" stroke="#dddddd" stroke-width="1"/>
<text x="104" y="552.50" text-anchor="end" font-family="Arial" font-size="16" fill="black">-0.128</text>
<line x1="120" y1="390.00" x2="1145" y2="390.00" stroke="#dddddd" stroke-width="1"/>
<text x="104" y="395.00" text-anchor="end" font-family="Arial" font-size="16" fill="black">-0.005</text>
<line x1="120" y1="232.50" x2="1145" y2="232.50" stroke="#dddddd" stroke-width="1"/>
<text x="104" y="237.50" text-anchor="end" font-family="Arial" font-size="16" fill="black">0.119</text>
<line x1="120" y1="75.00" x2="1145" y2="75.00" stroke="#dddddd" stroke-width="1"/>
<text x="104" y="80.00" text-anchor="end" font-family="Arial" font-size="16" fill="black">0.243</text>
<rect x="120" y="75" width="1025" height="630" fill="none" stroke="black" stroke-width="2"/>
<text x="632.5" y="785" text-anchor="middle" font-family="Arial" font-size="20" fill="black">x coordinate [m]</text>
<text x="34" y="390.0" transform="rotate(-90 34 390.0)" text-anchor="middle" font-family="Arial" font-size="20" fill="black">Q [SI]</text>
<polyline points="190.69,661.55 193.64,626.58 196.58,591.60 199.53,556.64 202.47,521.66 205.42,482.13 208.36,440.78 211.31,399.43 214.25,358.08 217.20,330.60 220.14,321.62 223.09,312.63 226.03,303.65 228.98,295.86 231.93,295.26 234.87,294.66 237.82,294.06 240.76,293.46 243.71,299.62 246.65,306.90 249.60,314.19 252.54,321.47 255.49,332.05 258.43,345.10 261.38,358.15 264.32,371.20 267.27,385.28 270.22,401.95 273.16,418.61 276.11,435.27 279.05,451.93 282.00,467.98 284.94,484.02 287.89,500.07 290.83,516.11 293.78,527.07 296.72,536.00 299.67,544.94 302.62,553.86 305.56,557.33 308.51,553.52 311.45,549.71 314.40,545.89 317.34,540.44 320.29,525.15 323.23,509.87 326.17,494.59 329.13,479.30 332.07,462.26 335.01,444.91 337.96,427.57 340.91,410.23 343.85,395.92 346.80,383.88 349.74,371.84 352.68,359.81 355.64,349.46 358.58,343.36 361.52,337.26 364.47,331.16 367.41,325.06 370.35,324.70 373.31,324.35 376.25,323.99 379.19,323.64 382.15,329.86 385.09,338.70 388.03,347.55 390.98,356.39 393.92,368.83 396.86,386.07 399.82,403.31 402.76,420.55 405.70,437.28 408.65,450.91 411.59,464.55 414.54,478.19 417.49,491.83 420.43,494.23 423.37,494.76 426.33,495.29 429.27,495.82 432.21,489.65 435.16,478.44 438.10,467.22 441.04,456.01 444.00,443.31 446.94,426.90 449.88,410.49 452.83,394.08 455.78,377.67 458.72,362.51 461.67,347.35 464.61,332.18 467.55,317.02 470.51,305.39 473.45,295.16 476.39,284.93 479.34,274.71 482.28,266.96 485.23,262.52 488.18,258.08 491.12,253.64 494.06,249.86 497.02,250.01 499.96,250.18 502.90,250.33 505.85,250.48 508.79,252.49 511.73,254.81 514.69,257.14 517.63,259.46 520.57,261.59 523.52,263.59 526.47,265.58 529.41,267.58 532.36,269.12 535.30,269.52 538.24,269.92 541.20,270.32 544.14,270.71 547.08,270.24 550.03,269.77 552.97,269.30 555.92,268.83 558.87,269.47 561.81,270.55 564.75,271.63 567.71,272.71 570.65,275.70 573.59,281.22 576.54,286.74 579.48,292.26 582.42,298.56 585.38,309.57 588.32,320.57 591.26,331.58 594.21,342.59 597.16,356.11 600.10,370.04 603.05,383.98 605.99,397.92 608.93,410.69 611.89,422.57 614.83,434.46 617.77,446.34 620.72,456.45 623.66,462.12 626.60,467.80 629.56,473.47 632.50,479.15 635.44,477.89 638.40,476.63 641.34,475.38 644.28,474.12 647.23,469.06 650.17,462.49 653.11,455.92 656.07,449.34 659.01,441.46 661.95,431.83 664.90,422.19 667.84,412.56 670.79,402.89 673.74,392.99 676.68,383.08 679.62,373.18 682.58,363.28 685.52,355.51 688.46,348.10 691.41,340.69 694.35,333.28 697.29,328.39 700.25,325.39 703.19,322.38 706.13,319.38 709.08,317.65 712.03,319.13 714.97,320.60 717.92,322.08 720.86,323.55 723.80,328.00 726.76,332.44 729.70,336.89 732.64,341.34 735.59,346.68 738.53,352.38 741.48,358.09 744.43,363.79 747.37,369.51 750.31,375.25 753.27,380.99 756.21,386.73 759.15,392.33 762.10,397.12 765.04,401.91 767.98,406.70 770.94,411.48 773.88,414.59 776.82,417.41 779.77,420.24 782.72,423.06 785.66,424.24 788.61,424.19 791.55,424.13 794.49,424.08 797.45,423.13 800.39,419.96 803.33,416.80 806.28,413.63 809.22,410.46 812.17,405.65 815.12,400.83 818.06,396.01 821.00,391.20 823.96,388.09 826.90,385.67 829.84,383.25 832.79,380.82 835.73,381.72 838.67,387.03 841.63,392.35 844.57,397.66 847.51,404.04 850.46,416.83 853.41,429.61 856.35,442.40 859.30,455.18 862.24,469.35 865.18,483.74 868.14,498.14 871.08,512.53 874.02,530.84 876.97,552.07 879.91,573.31 882.85,594.54 885.81,613.11 888.75,625.02 891.69,636.93 894.65,648.85 897.59,660.75 900.53,642.25 903.48,623.76 906.42,605.26 909.36,586.76 912.32,562.29 915.26,535.44 918.20,508.58 921.15,481.73 924.09,457.95 927.04,438.26 929.99,418.58 932.93,398.90 935.87,379.35 938.83,360.62 941.77,341.89 944.71,323.16 947.66,304.43 950.60,286.26 953.54,268.17 956.50,250.09 959.44,231.99 962.38,216.70 965.33,203.50 968.28,190.31 971.22,177.11 974.17,165.67 977.11,158.62 980.05,151.58 983.01,144.54 985.95,137.48 988.89,134.44 991.84,131.38 994.78,128.34 997.73,125.29 1000.68,123.34 1003.62,121.84 1006.56,120.33 1009.52,118.83 1012.46,118.45 1015.40,119.54 1018.35,120.65 1021.29,121.75 1024.23,123.62 1027.19,130.06 1030.13,136.50 1033.07,142.94 1036.02,149.39 1038.97,161.86 1041.91,175.36 1044.86,188.84 1047.80,202.34 1050.74,223.82 1053.70,251.31 1056.64,278.79 1059.58,306.28 1062.53,331.29 1065.47,350.11 1068.42,368.93 1071.37,387.75 1074.31,406.57" fill="none" stroke="#000000" stroke-width="3"/>
<line x1="142" y1="100" x2="178" y2="100" stroke="#000000" stroke-width="4"/>
<text x="188" y="105" font-family="Arial" font-size="18" fill="black">Q</text>
</svg>