<svg xmlns="http://www.w3.org/2000/svg" width="1200" height="820" viewBox="0 0 1200 820">
<rect width="100%" height="100%" fill="white"/>
<text x="600.0" y="36" text-anchor="middle" font-family="Arial" font-size="24" fill="black">profile_center_z: p_rgh</text>
<line x1="120.00" y1="75" x2="120.00" y2="705" stroke="#dddddd" stroke-width="1"/>
<text x="120.00" y="737" text-anchor="middle" font-family="Arial" font-size="16" fill="black">-0.240</text>
<line x1="376.25" y1="75" x2="376.25" y2="705" stroke="#dddddd" stroke-width="1"/>
<text x="376.25" y="737" text-anchor="middle" font-family="Arial" font-size="16" fill="black">0.630</text>
<line x1="632.50" y1="75" x2="632.50" y2="705" stroke="#dddddd" stroke-width="1"/>
<text x="632.50" y="737" text-anchor="middle" font-family="Arial" font-size="16" fill="black">1.500</text>
<line x1="888.75" y1="75" x2="888.75" y2="705" stroke="#dddddd" stroke-width="1"/>
<text x="888.75" y="737" text-anchor="middle" font-family="Arial" font-size="16" fill="black">2.370</text>
<line x1="1145.00" y1="75" x2="1145.00" y2="705" stroke="#dddddd" stroke-width="1"/>
<text x="1145.00" y="737" text-anchor="middle" font-family="Arial" font-size="16" fill="black">3.240</text>
<line x1="120" y1="705.00" x2="1145" y2="705.00" stroke="#dddddd" stroke-width="1"/>
<text x="104" y="710.00" text-anchor="end" font-family="Arial" font-size="16" fill="black">-0.012</text>
<line x1="120" y1="547.50" x2="1145" y2="547.50" stroke="#dddddd" stroke-width="1"/>
<text x="104" y="552.50" text-anchor="end" font-family="Arial" font-size="16" fill="black">0.325</text>
<line x1="120" y1="390.00" x2="1145" y2="390.00" stroke="#dddddd" stroke-width="1"/>
<text x="104" y="395.00" text-anchor="end" font-family="Arial" font-size="16" fill="black">0.663</text>
<line x1="120" y1="232.50" x2="1145" y2="232.50" stroke="#dddddd" stroke-width="1"/>
<text x="104" y="237.50" text-anchor="end" font-family="Arial" font-size="16" fill="black">1.001</text>
<line x1="120" y1="75.00" x2="1145" y2="75.00" stroke="#dddddd" stroke-width="1"/>
<text x="104" y="80.00" text-anchor="end" font-family="Arial" font-size="16" fill="black">1.339</text>
<rect x="120" y="75" width="1025" height="630" fill="none" stroke="black" stroke-width="2"/>
<text x="632.5" y="785" text-anchor="middle" font-family="Arial" font-size="20" fill="black">z coordinate [m]</text>
<text x="34" y="390.0" transform="rotate(-90 34 390.0)" text-anchor="middle" font-family="Arial" font-size="20" fill="black">p_rgh [Pa]</text>
<polyline points="190.69,386.67 193.64,386.14 196.58,385.61 199.53,385.07 202.47,384.54 205.42,384.01 208.36,383.48 211.31,382.95 214.25,382.42 217.20,381.88 220.14,381.35 223.09,379.61 226.03,377.86 228.98,376.11 231.93,374.37 234.87,372.62 237.82,370.88 240.76,369.13 243.71,367.38 246.65,365.64 249.60,363.89 252.54,360.93 255.49,357.97 258.43,355.01 261.38,352.05 264.32,349.09 267.27,346.13 270.22,343.17 273.16,340.21 276.11,337.25 279.05,334.29 282.00,330.33 284.94,326.36 287.89,322.41 290.83,318.45 293.78,314.49 296.72,310.53 299.67,306.56 302.61,302.60 305.56,298.65 308.51,294.69 311.45,289.90 314.40,285.10 317.34,280.31 320.29,275.52 323.23,270.73 326.18,265.94 329.12,261.15 332.07,256.36 335.01,251.57 337.96,246.78 340.91,241.55 343.85,236.31 346.80,231.07 349.74,225.85 352.69,220.58 355.63,215.36 358.58,210.13 361.52,204.91 364.47,199.64 367.41,194.42 370.36,189.52 373.30,184.62 376.25,179.77 379.20,174.88 382.14,169.98 385.09,165.08 388.03,160.23 390.98,155.34 393.92,150.44 396.87,145.54 399.81,142.84 402.76,140.13 405.70,137.43 408.65,134.72 411.59,131.97 414.54,129.27 417.49,126.56 420.43,123.86 423.38,121.15 426.32,118.45 429.27,120.17 432.21,121.95 435.16,123.72 438.10,125.49 441.05,127.22 443.99,128.99 446.94,130.76 449.89,132.53 452.83,134.26 455.78,136.03 458.72,141.63 461.67,147.22 464.61,152.82 467.56,158.41 470.50,164.06 473.45,169.65 476.39,175.25 479.34,180.85 482.28,186.44 485.23,192.04 488.18,198.10 491.12,204.16 494.07,210.18 497.01,216.24 499.96,222.30 502.90,228.32 505.85,234.38 508.79,240.43 511.74,246.47 514.68,252.52 517.63,257.43 520.57,262.35 523.52,267.26 526.47,272.18 529.41,277.09 532.36,282.01 535.30,286.92 538.25,291.83 541.19,296.75 544.14,301.66 547.08,305.62 550.03,309.58 552.97,313.54 555.92,317.50 558.86,321.46 561.81,325.42 564.76,329.38 567.70,333.34 570.65,337.30 573.59,341.26 576.54,344.31 579.48,347.37 582.43,350.42 585.37,353.47 588.32,356.53 591.26,359.58 594.21,362.64 597.16,365.69 600.10,368.74 603.05,371.80 605.99,374.06 608.94,376.32 611.88,378.59 614.83,380.86 617.77,383.12 620.72,385.39 623.66,387.65 626.61,389.91 629.55,392.18 632.50,394.45 635.45,396.08 638.39,397.71 641.34,399.35 644.28,400.98 647.23,402.62 650.17,404.25 653.12,405.88 656.06,407.52 659.01,409.15 661.95,410.79 664.90,412.06 667.84,413.32 670.79,414.59 673.74,415.86 676.68,417.13 679.63,418.40 682.57,419.66 685.52,420.93 688.46,422.20 691.41,423.47 694.35,424.69 697.30,425.91 700.24,427.13 703.19,428.35 706.14,429.57 709.08,430.79 712.03,432.01 714.97,433.23 717.92,434.45 720.86,435.67 723.81,437.18 726.75,438.70 729.70,440.21 732.64,441.73 735.59,443.24 738.53,444.75 741.48,446.27 744.43,447.78 747.37,449.29 750.32,450.81 753.26,452.85 756.21,454.89 759.15,456.93 762.10,458.98 765.04,461.02 767.99,463.06 770.93,465.10 773.88,467.14 776.82,469.18 779.77,471.22 782.72,473.74 785.66,476.24 788.61,478.75 791.55,481.26 794.50,483.77 797.44,486.28 800.39,488.79 803.33,491.30 806.28,493.81 809.22,496.32 812.17,498.99 815.11,501.66 818.06,504.32 821.01,506.99 823.95,509.65 826.90,512.32 829.84,514.99 832.79,517.66 835.73,520.32 838.68,522.99 841.62,525.47 844.57,527.96 847.51,530.44 850.46,532.93 853.41,535.41 856.35,537.90 859.30,540.39 862.24,542.87 865.19,545.36 868.13,547.84 871.08,549.96 874.02,552.06 876.97,554.18 879.91,556.28 882.86,558.40 885.80,560.50 888.75,562.62 891.70,564.72 894.64,566.84 897.59,568.95 900.53,570.65 903.48,572.35 906.42,574.06 909.37,575.76 912.31,577.46 915.26,579.16 918.20,580.87 921.15,582.57 924.09,584.27 927.04,585.97 929.99,587.38 932.93,588.79 935.88,590.20 938.82,591.61 941.77,593.01 944.71,594.42 947.66,595.83 950.60,597.23 953.55,598.64 956.49,600.05 959.44,601.38 962.39,602.70 965.33,604.02 968.28,605.35 971.22,606.67 974.17,608.00 977.11,609.32 980.06,610.65 983.00,611.97 985.95,613.29 988.89,614.84 991.84,616.38 994.78,617.92 997.73,619.46 1000.68,621.00 1003.62,622.54 1006.57,624.08 1009.51,625.63 1012.46,627.16 1015.40,628.71 1018.35,630.78 1021.29,632.86 1024.24,634.94 1027.18,637.01 1030.13,639.09 1033.07,641.17 1036.02,643.24 1038.97,645.32 1041.91,647.40 1044.86,649.48 1047.80,650.69 1050.75,651.89 1053.69,653.10 1056.64,654.31 1059.58,655.51 1062.53,656.72 1065.47,657.93 1068.42,659.14 1071.36,660.34 1074.31,661.55" fill="none" stroke="#000000" stroke-width="3"/>
<line x1="142" y1="100" x2="178" y2="100" stroke="#000000" stroke-width="4"/>
<text x="188" y="105" font-family="Arial" font-size="18" fill="black">p_rgh</text>
</svg>