<svg xmlns="http://www.w3.org/2000/svg" width="1200" height="820" viewBox="0 0 1200 820">
<rect width="100%" height="100%" fill="white"/>
<text x="600.0" y="36" text-anchor="middle" font-family="Arial" font-size="24" fill="black">profile_center_x: U:0</text>
<line x1="120.00" y1="75" x2="120.00" y2="705" stroke="#dddddd" stroke-width="1"/>
<text x="120.00" y="737" text-anchor="middle" font-family="Arial" font-size="16" fill="black">-0.560</text>
<line x1="376.25" y1="75" x2="376.25" y2="705" stroke="#dddddd" stroke-width="1"/>
<text x="376.25" y="737" text-anchor="middle" font-family="Arial" font-size="16" fill="black">1.470</text>
<line x1="632.50" y1="75" x2="632.50" y2="705" stroke="#dddddd" stroke-width="1"/>
<text x="632.50" y="737" text-anchor="middle" font-family="Arial" font-size="16" fill="black">3.500</text>
<line x1="888.75" y1="75" x2="888.75" y2="705" stroke="#dddddd" stroke-width="1"/>
<text x="888.75" y="737" text-anchor="middle" font-family="Arial" font-size="16" fill="black">5.530</text>
<line x1="1145.00" y1="75" x2="1145.00" y2="705" stroke="#dddddd" stroke-width="1"/>
<text x="1145.00" y="737" text-anchor="middle" font-family="Arial" font-size="16" fill="black">7.560</text>
<line x1="120" y1="705.00" x2="1145" y2="705.00" stroke="#dddddd" stroke-width="1"/>
<text x="104" y="710.00" text-anchor="end" font-family="Arial" font-size="16" fill="black">-0.226</text>
<line x1="120" y1="547.50" x2="1145" y2="547.50" stroke="#dddddd" stroke-width="1"/>
<text x="104" y="552.50" text-anchor="end" font-family="Arial" font-size="16" fill="black">-0.084</text>
<line x1="120" y1="390.00" x2="1145" y2="390.00" stroke="#dddddd" stroke-width="1"/>
<text x="104" y="395.00" text-anchor="end" font-family="Arial" font-size="16" fill="black">0.057</text>
<line x1="120" y1="232.50" x2="1145" y2="232.50" stroke="#dddddd" stroke-width="1"/>
<text x="104" y="237.50" text-anchor="end" font-family="Arial" font-size="16" fill="black">0.199</text>
<line x1="120" y1="75.00" x2="1145" y2="75.00" stroke="#dddddd" stroke-width="1"/>
<text x="104" y="80.00" text-anchor="end" font-family="Arial" font-size="16" fill="black">0.340</text>
<rect x="120" y="75" width="1025" height="630" fill="none" stroke="black" stroke-width="2"/>
<text x="632.5" y="785" text-anchor="middle" font-family="Arial" font-size="20" fill="black">x coordinate [m]</text>
<text x="34" y="390.0" transform="rotate(-90 34 390.0)" text-anchor="middle" font-family="Arial" font-size="20" fill="black">U:0 [SI]</text>
<polyline points="190.69,420.41 193.64,416.40 196.58,412.38 199.53,408.36 202.47,404.34 205.42,397.50 208.36,389.55 211.31,381.59 214.25,373.63 217.20,366.11 220.14,359.17 223.09,352.24 226.03,345.30 228.98,338.53 231.93,332.82 234.87,327.11 237.82,321.38 240.76,315.66 243.71,310.17 246.65,304.73 249.60,299.28 252.54,293.82 255.49,288.27 258.43,282.65 261.38,277.03 264.32,271.41 267.27,265.69 270.22,259.75 273.16,253.82 276.11,247.88 279.05,241.93 282.00,235.79 284.94,229.64 287.89,223.51 290.83,217.36 293.78,211.31 296.72,205.30 299.67,199.29 302.62,193.28 305.56,187.54 308.51,182.13 311.45,176.72 314.40,171.32 317.34,166.07 320.29,161.78 323.23,157.48 326.17,153.19 329.13,148.89 332.07,145.86 335.01,143.04 337.96,140.22 340.91,137.40 343.85,135.25 346.80,133.59 349.74,131.94 352.68,130.29 355.64,128.72 358.58,127.36 361.52,125.99 364.47,124.62 367.41,123.26 370.35,122.06 373.31,120.85 376.25,119.65 379.19,118.45 382.15,118.67 385.09,119.45 388.03,120.23 390.98,121.02 393.92,123.45 396.86,128.08 399.82,132.71 402.76,137.34 405.70,142.45 408.65,150.43 411.59,158.42 414.54,166.39 417.49,174.37 420.43,183.53 423.37,192.87 426.33,202.23 429.27,211.58 432.21,220.71 435.16,229.69 438.10,238.67 441.04,247.65 444.00,256.25 446.94,263.92 449.88,271.59 452.83,279.26 455.78,286.94 458.72,293.06 461.67,299.20 464.61,305.33 467.55,311.47 470.51,316.60 473.45,321.35 476.39,326.08 479.34,330.83 482.28,335.05 485.23,338.57 488.18,342.10 491.12,345.62 494.06,348.98 497.02,351.38 499.96,353.77 502.90,356.16 505.85,358.55 508.79,360.06 511.73,361.42 514.69,362.78 517.63,364.14 520.57,365.09 523.52,365.71 526.47,366.33 529.41,366.96 532.36,367.52 535.30,367.92 538.24,368.32 541.20,368.72 544.14,369.13 547.08,369.93 550.03,370.73 552.97,371.53 555.92,372.34 558.87,373.84 561.81,375.63 564.75,377.41 567.71,379.20 570.65,381.60 573.59,384.84 576.54,388.07 579.48,391.31 582.42,394.80 585.38,399.80 588.32,404.79 591.26,409.79 594.21,414.79 597.16,421.45 600.10,428.38 603.05,435.31 605.99,442.24 608.93,450.16 611.89,458.84 614.83,467.52 617.77,476.20 620.72,485.14 623.66,494.74 626.60,504.35 629.56,513.95 632.50,523.56 635.44,533.06 638.40,542.56 641.34,552.07 644.28,561.57 647.23,570.38 650.17,578.93 653.11,587.47 656.07,596.02 659.01,603.85 661.95,610.72 664.90,617.59 667.84,624.46 670.79,631.03 673.74,635.80 676.68,640.55 679.62,645.31 682.58,650.07 685.52,652.84 688.46,655.27 691.41,657.71 694.35,660.15 697.29,661.25 700.25,661.35 703.19,661.45 706.13,661.55 709.08,661.04 712.03,659.02 714.97,657.00 717.92,654.98 720.86,652.95 723.80,649.21 726.76,645.47 729.70,641.72 732.64,637.98 735.59,633.33 738.53,628.31 741.48,623.30 744.43,618.29 747.37,612.89 750.31,607.01 753.27,601.12 756.21,595.24 759.15,589.28 762.10,582.87 765.04,576.47 767.98,570.06 770.94,563.66 773.88,557.15 776.82,550.62 779.77,544.08 782.72,537.55 785.66,531.21 788.61,525.03 791.55,518.84 794.49,512.65 797.45,506.73 800.39,501.51 803.33,496.28 806.28,491.06 809.22,485.83 812.17,482.33 815.12,478.82 818.06,475.32 821.00,471.81 823.96,470.13 826.90,469.17 829.84,468.21 832.79,467.25 835.73,467.65 838.67,469.87 841.63,472.09 844.57,474.31 847.51,476.95 850.46,482.07 853.41,487.20 856.35,492.33 859.30,497.46 862.24,502.91 865.18,508.42 868.14,513.93 871.08,519.45 874.02,522.80 876.97,524.52 879.91,526.25 882.85,527.98 885.81,528.41 888.75,525.56 891.69,522.71 894.65,519.86 897.59,517.01 900.53,514.04 903.48,511.07 906.42,508.10 909.36,505.13 912.32,504.22 915.26,504.12 918.20,504.03 921.15,503.94 924.09,504.67 927.04,506.49 929.99,508.30 932.93,510.12 935.87,512.02 938.83,514.41 941.77,516.79 944.71,519.18 947.66,521.56 950.60,523.70 953.54,525.79 956.50,527.88 959.44,529.97 962.38,531.50 965.33,532.61 968.28,533.72 971.22,534.82 974.17,535.52 977.11,535.21 980.05,534.89 983.01,534.57 985.95,534.25 988.89,532.57 991.84,530.88 994.78,529.19 997.73,527.50 1000.68,525.14 1003.62,522.52 1006.56,519.89 1009.52,517.26 1012.46,514.50 1015.40,511.56 1018.35,508.63 1021.29,505.70 1024.23,502.78 1027.19,499.97 1030.13,497.16 1033.07,494.35 1036.02,491.54 1038.97,489.11 1041.91,486.74 1044.86,484.37 1047.80,481.99 1050.74,479.45 1053.70,476.79 1056.64,474.12 1059.58,471.46 1062.53,469.08 1065.47,467.42 1068.42,465.77 1071.37,464.11 1074.31,462.45" fill="none" stroke="#000000" stroke-width="3"/>
<line x1="142" y1="100" x2="178" y2="100" stroke="#000000" stroke-width="4"/>
<text x="188" y="105" font-family="Arial" font-size="18" fill="black">U:0</text>
</svg>