<svg xmlns="http://www.w3.org/2000/svg" width="1200" height="820" viewBox="0 0 1200 820">
<rect width="100%" height="100%" fill="white"/>
<text x="600.0" y="36" text-anchor="middle" font-family="Arial" font-size="24" fill="black">Umag profile along z-centerline</text>
<line x1="115.00" y1="75" x2="115.00" y2="705" stroke="#dddddd" stroke-width="1"/>
<text x="115.00" y="737" text-anchor="middle" font-family="Arial" font-size="16" fill="black">-0.240</text>
<line x1="372.50" y1="75" x2="372.50" y2="705" stroke="#dddddd" stroke-width="1"/>
<text x="372.50" y="737" text-anchor="middle" font-family="Arial" font-size="16" fill="black">0.630</text>
<line x1="630.00" y1="75" x2="630.00" y2="705" stroke="#dddddd" stroke-width="1"/>
<text x="630.00" y="737" text-anchor="middle" font-family="Arial" font-size="16" fill="black">1.500</text>
<line x1="887.50" y1="75" x2="887.50" y2="705" stroke="#dddddd" stroke-width="1"/>
<text x="887.50" y="737" text-anchor="middle" font-family="Arial" font-size="16" fill="black">2.370</text>
<line x1="1145.00" y1="75" x2="1145.00" y2="705" stroke="#dddddd" stroke-width="1"/>
<text x="1145.00" y="737" text-anchor="middle" font-family="Arial" font-size="16" fill="black">3.240</text>
<line x1="115" y1="705.00" x2="1145" y2="705.00" stroke="#dddddd" stroke-width="1"/>
<text x="99" y="710.00" text-anchor="end" font-family="Arial" font-size="16" fill="black">0.053</text>
<line x1="115" y1="547.50" x2="1145" y2="547.50" stroke="#dddddd" stroke-width="1"/>
<text x="99" y="552.50" text-anchor="end" font-family="Arial" font-size="16" fill="black">0.237</text>
<line x1="115" y1="390.00" x2="1145" y2="390.00" stroke="#dddddd" stroke-width="1"/>
<text x="99" y="395.00" text-anchor="end" font-family="Arial" font-size="16" fill="black">0.422</text>
<line x1="115" y1="232.50" x2="1145" y2="232.50" stroke="#dddddd" stroke-width="1"/>
<text x="99" y="237.50" text-anchor="end" font-family="Arial" font-size="16" fill="black">0.606</text>
<line x1="115" y1="75.00" x2="1145" y2="75.00" stroke="#dddddd" stroke-width="1"/>
<text x="99" y="80.00" text-anchor="end" font-family="Arial" font-size="16" fill="black">0.791</text>
<rect x="115" y="75" width="1030" height="630" fill="none" stroke="black" stroke-width="2"/>
<text x="630.0" y="785" text-anchor="middle" font-family="Arial" font-size="20" fill="black">z coordinate [m]</text>
<text x="34" y="390.0" transform="rotate(-90 34 390.0)" text-anchor="middle" font-family="Arial" font-size="20" fill="black">Umag [m/s]</text>
<polyline points="186.03,118.45 188.99,119.93 191.95,121.39 194.91,122.87 197.87,124.34 200.83,125.82 203.79,127.28 206.75,128.76 209.71,130.24 212.67,131.71 215.63,133.18 218.59,137.15 221.55,141.12 224.51,145.08 227.47,149.05 230.43,153.01 233.39,156.98 236.35,160.95 239.31,164.91 242.27,168.88 245.23,172.84 248.19,178.57 251.15,184.29 254.11,190.02 257.07,195.74 260.03,201.47 262.99,207.19 265.95,212.92 268.91,218.64 271.87,224.37 274.83,230.09 277.79,237.11 280.75,244.15 283.71,251.17 286.67,258.20 289.63,265.23 292.59,272.25 295.55,279.28 298.51,286.31 301.47,293.33 304.43,300.36 307.39,308.34 310.34,316.33 313.30,324.32 316.26,332.31 319.22,340.29 322.18,348.28 325.14,356.26 328.10,364.25 331.06,372.24 334.02,380.22 336.98,388.73 339.94,397.24 342.90,405.75 345.86,414.26 348.82,422.77 351.78,431.28 354.74,439.79 357.70,448.30 360.66,456.80 363.62,465.31 366.58,473.90 369.54,482.48 372.50,491.07 375.46,499.66 378.42,508.24 381.38,516.83 384.34,525.42 387.30,534.00 390.26,542.59 393.22,551.18 396.18,558.61 399.14,566.05 402.10,573.49 405.06,580.92 408.02,588.36 410.98,595.79 413.94,603.23 416.90,610.67 419.86,618.10 422.82,625.54 425.78,629.13 428.74,632.74 431.70,636.34 434.66,639.94 437.61,643.55 440.57,647.14 443.53,650.74 446.49,654.35 449.45,657.95 452.41,661.55 455.37,661.42 458.33,661.29 461.29,661.15 464.25,661.02 467.21,660.89 470.17,660.76 473.13,660.63 476.09,660.49 479.05,660.36 482.01,660.23 484.97,659.05 487.93,657.86 490.89,656.69 493.85,655.51 496.81,654.32 499.77,653.14 502.73,651.96 505.69,650.78 508.65,649.60 511.61,648.41 514.57,647.04 517.53,645.67 520.49,644.30 523.45,642.92 526.41,641.55 529.37,640.17 532.33,638.80 535.29,637.43 538.25,636.06 541.21,634.68 544.17,633.21 547.13,631.72 550.09,630.24 553.05,628.77 556.01,627.29 558.97,625.80 561.93,624.33 564.89,622.85 567.84,621.37 570.80,619.90 573.76,618.36 576.72,616.82 579.68,615.29 582.64,613.76 585.60,612.22 588.56,610.68 591.52,609.16 594.48,607.62 597.44,606.08 600.40,604.55 603.36,603.04 606.32,601.54 609.28,600.04 612.24,598.54 615.20,597.02 618.16,595.52 621.12,594.02 624.08,592.52 627.04,591.01 630.00,589.50 632.96,588.12 635.92,586.74 638.88,585.35 641.84,583.96 644.80,582.58 647.76,581.20 650.72,579.81 653.68,578.43 656.64,577.04 659.60,575.65 662.56,574.47 665.52,573.27 668.48,572.09 671.44,570.89 674.40,569.70 677.36,568.52 680.32,567.32 683.28,566.14 686.24,564.95 689.20,563.75 692.16,562.81 695.11,561.86 698.07,560.91 701.03,559.96 703.99,559.01 706.95,558.07 709.91,557.12 712.87,556.17 715.83,555.22 718.79,554.29 721.75,553.59 724.71,552.90 727.67,552.21 730.63,551.52 733.59,550.83 736.55,550.14 739.51,549.44 742.47,548.75 745.43,548.06 748.39,547.37 751.35,546.90 754.31,546.43 757.27,545.97 760.23,545.50 763.19,545.03 766.15,544.56 769.11,544.10 772.07,543.63 775.03,543.16 777.99,542.69 780.95,542.36 783.91,542.03 786.87,541.68 789.83,541.35 792.79,541.02 795.75,540.68 798.71,540.34 801.67,540.01 804.63,539.68 807.59,539.34 810.55,539.02 813.51,538.70 816.47,538.37 819.43,538.06 822.39,537.73 825.34,537.41 828.30,537.09 831.26,536.77 834.22,536.44 837.18,536.13 840.14,535.75 843.10,535.37 846.06,535.00 849.02,534.61 851.98,534.24 854.94,533.86 857.90,533.49 860.86,533.11 863.82,532.74 866.78,532.36 869.74,531.96 872.70,531.56 875.66,531.16 878.62,530.76 881.58,530.36 884.54,529.96 887.50,529.56 890.46,529.16 893.42,528.76 896.38,528.36 899.34,528.07 902.30,527.78 905.26,527.49 908.22,527.20 911.18,526.90 914.14,526.61 917.10,526.32 920.06,526.03 923.02,525.74 925.98,525.45 928.94,525.49 931.90,525.54 934.86,525.58 937.82,525.63 940.78,525.68 943.74,525.73 946.70,525.77 949.66,525.82 952.61,525.86 955.57,525.91 958.53,526.60 961.49,527.28 964.45,527.96 967.41,528.65 970.37,529.33 973.33,530.00 976.29,530.69 979.25,531.37 982.21,532.05 985.17,532.74 988.13,534.29 991.09,535.84 994.05,537.41 997.01,538.96 999.97,540.51 1002.93,542.07 1005.89,543.62 1008.85,545.18 1011.81,546.73 1014.77,548.28 1017.73,550.82 1020.69,553.35 1023.65,555.87 1026.61,558.40 1029.57,560.93 1032.53,563.45 1035.49,565.98 1038.45,568.52 1041.41,571.04 1044.37,573.57 1047.33,575.01 1050.29,576.46 1053.25,577.90 1056.21,579.33 1059.17,580.78 1062.13,582.22 1065.09,583.66 1068.05,585.11 1071.01,586.55 1073.97,587.99" fill="none" stroke="#111111" stroke-width="3"/>
<line x1="137" y1="100" x2="173" y2="100" stroke="#111111" stroke-width="4"/>
<text x="183" y="105" font-family="Arial" font-size="18" fill="black">Umag</text>
</svg>