<svg xmlns="http://www.w3.org/2000/svg" width="1200" height="820" viewBox="0 0 1200 820">
<rect width="100%" height="100%" fill="white"/>
<text x="600.0" y="36" text-anchor="middle" font-family="Arial" font-size="24" fill="black">Umag profile along z-centerline</text>
<line x1="115.00" y1="75" x2="115.00" y2="705" stroke="#dddddd" stroke-width="1"/>
<text x="115.00" y="737" text-anchor="middle" font-family="Arial" font-size="16" fill="black">-0.240</text>
<line x1="372.50" y1="75" x2="372.50" y2="705" stroke="#dddddd" stroke-width="1"/>
<text x="372.50" y="737" text-anchor="middle" font-family="Arial" font-size="16" fill="black">0.630</text>
<line x1="630.00" y1="75" x2="630.00" y2="705" stroke="#dddddd" stroke-width="1"/>
<text x="630.00" y="737" text-anchor="middle" font-family="Arial" font-size="16" fill="black">1.500</text>
<line x1="887.50" y1="75" x2="887.50" y2="705" stroke="#dddddd" stroke-width="1"/>
<text x="887.50" y="737" text-anchor="middle" font-family="Arial" font-size="16" fill="black">2.370</text>
<line x1="1145.00" y1="75" x2="1145.00" y2="705" stroke="#dddddd" stroke-width="1"/>
<text x="1145.00" y="737" text-anchor="middle" font-family="Arial" font-size="16" fill="black">3.240</text>
<line x1="115" y1="705.00" x2="1145" y2="705.00" stroke="#dddddd" stroke-width="1"/>
<text x="99" y="710.00" text-anchor="end" font-family="Arial" font-size="16" fill="black">-0.022</text>
<line x1="115" y1="547.50" x2="1145" y2="547.50" stroke="#dddddd" stroke-width="1"/>
<text x="99" y="552.50" text-anchor="end" font-family="Arial" font-size="16" fill="black">0.182</text>
<line x1="115" y1="390.00" x2="1145" y2="390.00" stroke="#dddddd" stroke-width="1"/>
<text x="99" y="395.00" text-anchor="end" font-family="Arial" font-size="16" fill="black">0.386</text>
<line x1="115" y1="232.50" x2="1145" y2="232.50" stroke="#dddddd" stroke-width="1"/>
<text x="99" y="237.50" text-anchor="end" font-family="Arial" font-size="16" fill="black">0.590</text>
<line x1="115" y1="75.00" x2="1145" y2="75.00" stroke="#dddddd" stroke-width="1"/>
<text x="99" y="80.00" text-anchor="end" font-family="Arial" font-size="16" fill="black">0.794</text>
<rect x="115" y="75" width="1030" height="630" fill="none" stroke="black" stroke-width="2"/>
<text x="630.0" y="785" text-anchor="middle" font-family="Arial" font-size="20" fill="black">z coordinate [m]</text>
<text x="34" y="390.0" transform="rotate(-90 34 390.0)" text-anchor="middle" font-family="Arial" font-size="20" fill="black">Umag [m/s]</text>
<polyline points="186.03,118.45 188.99,120.14 191.95,121.83 194.91,123.53 197.87,125.22 200.83,126.91 203.79,128.60 206.75,130.29 209.71,131.98 212.67,133.67 215.63,135.37 218.59,139.99 221.55,144.61 224.51,149.23 227.47,153.86 230.43,158.48 233.39,163.10 236.35,167.72 239.31,172.34 242.27,176.97 245.23,181.59 248.19,188.47 251.15,195.36 254.11,202.25 257.07,209.13 260.03,216.02 262.99,222.91 265.95,229.79 268.91,236.69 271.87,243.57 274.83,250.46 277.79,259.24 280.75,268.03 283.71,276.81 286.67,285.59 289.63,294.38 292.59,303.16 295.55,311.95 298.51,320.73 301.47,329.51 304.43,338.29 307.39,348.64 310.34,358.99 313.30,369.34 316.26,379.69 319.22,390.04 322.18,400.39 325.14,410.74 328.10,421.09 331.06,431.44 334.02,441.79 336.98,454.18 339.94,466.58 342.90,478.97 345.86,491.37 348.82,503.77 351.78,516.16 354.74,528.56 357.70,540.95 360.66,553.35 363.62,565.75 366.58,575.32 369.54,584.91 372.50,594.49 375.46,604.07 378.42,613.65 381.38,623.23 384.34,632.81 387.30,642.39 390.26,651.97 393.22,661.55 396.18,654.37 399.14,647.19 402.10,640.02 405.06,632.84 408.02,625.66 410.98,618.48 413.94,611.30 416.90,604.12 419.86,596.94 422.82,589.77 425.78,586.80 428.74,583.84 431.70,580.87 434.66,577.91 437.61,574.94 440.57,571.98 443.53,569.01 446.49,566.05 449.45,563.09 452.41,560.13 455.37,559.30 458.33,558.48 461.29,557.66 464.25,556.83 467.21,556.01 470.17,555.20 473.13,554.38 476.09,553.55 479.05,552.73 482.01,551.91 484.97,553.07 487.93,554.23 490.89,555.39 493.85,556.55 496.81,557.71 499.77,558.86 502.73,560.02 505.69,561.18 508.65,562.34 511.61,563.50 514.57,565.54 517.53,567.58 520.49,569.63 523.45,571.67 526.41,573.71 529.37,575.76 532.33,577.80 535.29,579.84 538.25,581.89 541.21,583.93 544.17,586.01 547.13,588.10 550.09,590.18 553.05,592.26 556.01,594.34 558.97,596.42 561.93,598.50 564.89,600.59 567.84,602.67 570.80,604.75 573.76,606.15 576.72,607.54 579.68,608.94 582.64,610.33 585.60,611.72 588.56,613.12 591.52,614.52 594.48,615.91 597.44,617.31 600.40,618.70 603.36,618.91 606.32,619.13 609.28,619.34 612.24,619.55 615.20,619.77 618.16,619.98 621.12,620.19 624.08,620.40 627.04,620.62 630.00,620.83 632.96,620.05 635.92,619.27 638.88,618.49 641.84,617.71 644.80,616.94 647.76,616.16 650.72,615.38 653.68,614.60 656.64,613.82 659.60,613.04 662.56,611.88 665.52,610.73 668.48,609.57 671.44,608.41 674.40,607.25 677.36,606.09 680.32,604.93 683.28,603.77 686.24,602.61 689.20,601.45 692.16,600.34 695.11,599.24 698.07,598.12 701.03,597.02 703.99,595.90 706.95,594.79 709.91,593.69 712.87,592.57 715.83,591.47 718.79,590.35 721.75,589.50 724.71,588.64 727.67,587.77 730.63,586.92 733.59,586.06 736.55,585.20 739.51,584.33 742.47,583.48 745.43,582.62 748.39,581.76 751.35,581.23 754.31,580.71 757.27,580.19 760.23,579.67 763.19,579.15 766.15,578.62 769.11,578.10 772.07,577.58 775.03,577.05 777.99,576.54 780.95,576.37 783.91,576.20 786.87,576.04 789.83,575.88 792.79,575.72 795.75,575.55 798.71,575.38 801.67,575.22 804.63,575.06 807.59,574.90 810.55,575.05 813.51,575.20 816.47,575.35 819.43,575.51 822.39,575.66 825.34,575.82 828.30,575.97 831.26,576.13 834.22,576.28 837.18,576.43 840.14,576.82 843.10,577.20 846.06,577.58 849.02,577.96 851.98,578.34 854.94,578.72 857.90,579.11 860.86,579.49 863.82,579.87 866.78,580.25 869.74,580.76 872.70,581.26 875.66,581.76 878.62,582.26 881.58,582.76 884.54,583.27 887.50,583.78 890.46,584.28 893.42,584.78 896.38,585.28 899.34,585.85 902.30,586.41 905.26,586.98 908.22,587.54 911.18,588.11 914.14,588.67 917.10,589.23 920.06,589.79 923.02,590.35 925.98,590.92 928.94,591.61 931.90,592.30 934.86,593.00 937.82,593.69 940.78,594.37 943.74,595.07 946.70,595.76 949.66,596.45 952.61,597.14 955.57,597.84 958.53,599.02 961.49,600.20 964.45,601.38 967.41,602.57 970.37,603.75 973.33,604.93 976.29,606.11 979.25,607.30 982.21,608.48 985.17,609.66 988.13,611.68 991.09,613.69 994.05,615.71 997.01,617.73 999.97,619.74 1002.93,621.76 1005.89,623.78 1008.85,625.79 1011.81,627.81 1014.77,629.83 1017.73,626.94 1020.69,624.05 1023.65,621.16 1026.61,618.27 1029.57,615.38 1032.53,612.49 1035.49,609.60 1038.45,606.71 1041.41,603.82 1044.37,600.93 1047.33,595.49 1050.29,590.05 1053.25,584.60 1056.21,579.16 1059.17,573.71 1062.13,568.27 1065.09,562.82 1068.05,557.38 1071.01,551.94 1073.97,546.49" fill="none" stroke="#111111" stroke-width="3"/>
<line x1="137" y1="100" x2="173" y2="100" stroke="#111111" stroke-width="4"/>
<text x="183" y="105" font-family="Arial" font-size="18" fill="black">Umag</text>
</svg>