<svg xmlns="http://www.w3.org/2000/svg" width="1200" height="820" viewBox="0 0 1200 820">
<rect width="100%" height="100%" fill="white"/>
<text x="600.0" y="36" text-anchor="middle" font-family="Arial" font-size="24" fill="black">Ux profile along x-centerline</text>
<line x1="115.00" y1="75" x2="115.00" y2="705" stroke="#dddddd" stroke-width="1"/>
<text x="115.00" y="737" text-anchor="middle" font-family="Arial" font-size="16" fill="black">-0.560</text>
<line x1="372.50" y1="75" x2="372.50" y2="705" stroke="#dddddd" stroke-width="1"/>
<text x="372.50" y="737" text-anchor="middle" font-family="Arial" font-size="16" fill="black">1.470</text>
<line x1="630.00" y1="75" x2="630.00" y2="705" stroke="#dddddd" stroke-width="1"/>
<text x="630.00" y="737" text-anchor="middle" font-family="Arial" font-size="16" fill="black">3.500</text>
<line x1="887.50" y1="75" x2="887.50" y2="705" stroke="#dddddd" stroke-width="1"/>
<text x="887.50" y="737" text-anchor="middle" font-family="Arial" font-size="16" fill="black">5.530</text>
<line x1="1145.00" y1="75" x2="1145.00" y2="705" stroke="#dddddd" stroke-width="1"/>
<text x="1145.00" y="737" text-anchor="middle" font-family="Arial" font-size="16" fill="black">7.560</text>
<line x1="115" y1="705.00" x2="1145" y2="705.00" stroke="#dddddd" stroke-width="1"/>
<text x="99" y="710.00" text-anchor="end" font-family="Arial" font-size="16" fill="black">-0.174</text>
<line x1="115" y1="547.50" x2="1145" y2="547.50" stroke="#dddddd" stroke-width="1"/>
<text x="99" y="552.50" text-anchor="end" font-family="Arial" font-size="16" fill="black">-0.102</text>
<line x1="115" y1="390.00" x2="1145" y2="390.00" stroke="#dddddd" stroke-width="1"/>
<text x="99" y="395.00" text-anchor="end" font-family="Arial" font-size="16" fill="black">-0.029</text>
<line x1="115" y1="232.50" x2="1145" y2="232.50" stroke="#dddddd" stroke-width="1"/>
<text x="99" y="237.50" text-anchor="end" font-family="Arial" font-size="16" fill="black">0.043</text>
<line x1="115" y1="75.00" x2="1145" y2="75.00" stroke="#dddddd" stroke-width="1"/>
<text x="99" y="80.00" text-anchor="end" font-family="Arial" font-size="16" fill="black">0.115</text>
<rect x="115" y="75" width="1030" height="630" fill="none" stroke="black" stroke-width="2"/>
<text x="630.0" y="785" text-anchor="middle" font-family="Arial" font-size="20" fill="black">x coordinate [m]</text>
<text x="34" y="390.0" transform="rotate(-90 34 390.0)" text-anchor="middle" font-family="Arial" font-size="20" fill="black">Ux [m/s]</text>
<polyline points="186.03,314.18 188.99,315.78 191.95,317.37 194.91,318.97 197.87,320.56 200.83,322.67 203.79,324.98 206.75,327.29 209.71,329.60 212.67,331.07 215.63,331.42 218.59,331.77 221.55,332.12 224.51,332.19 227.47,330.58 230.43,328.96 233.39,327.35 236.35,325.73 239.31,322.99 242.27,320.07 245.23,317.14 248.19,314.21 251.15,311.07 254.11,307.77 257.07,304.47 260.03,301.16 262.99,298.00 265.95,295.16 268.91,292.32 271.87,289.48 274.83,286.64 277.79,284.77 280.75,282.90 283.71,281.03 286.67,279.16 289.63,278.04 292.59,277.24 295.55,276.43 298.51,275.62 301.47,275.17 304.42,275.22 307.39,275.26 310.34,275.30 313.30,275.42 316.27,276.02 319.22,276.63 322.18,277.23 325.15,277.83 328.10,278.72 331.06,279.65 334.03,280.59 336.98,281.53 339.94,282.62 342.91,283.83 345.86,285.04 348.82,286.25 351.79,287.54 354.74,289.02 357.70,290.50 360.67,291.98 363.62,293.47 366.58,295.17 369.54,296.89 372.50,298.60 375.46,300.30 378.42,302.10 381.38,303.92 384.33,305.74 387.30,307.56 390.26,309.31 393.21,310.95 396.18,312.59 399.14,314.23 402.09,315.77 405.06,316.73 408.02,317.68 410.97,318.63 413.94,319.58 416.90,319.39 419.85,319.00 422.82,318.62 425.78,318.24 428.73,316.75 431.70,314.44 434.66,312.13 437.61,309.81 440.58,306.87 443.53,302.34 446.49,297.81 449.46,293.28 452.41,288.76 455.37,282.24 458.34,275.72 461.29,269.20 464.25,262.68 467.22,255.26 470.17,247.48 473.13,239.71 476.10,231.93 479.05,224.05 482.01,216.03 484.98,208.00 487.93,199.98 490.89,192.06 493.85,184.79 496.81,177.51 499.77,170.23 502.73,162.96 505.69,157.01 508.65,151.29 511.61,145.57 514.57,139.85 517.52,135.37 520.49,131.84 523.45,128.30 526.40,124.77 529.37,121.99 532.33,121.10 535.28,120.22 538.25,119.33 541.21,118.45 544.16,120.51 547.13,122.57 550.09,124.63 553.04,126.69 556.01,130.95 558.97,136.09 561.92,141.22 564.89,146.36 567.84,152.80 570.80,160.99 573.77,169.17 576.72,177.35 579.68,185.94 582.65,196.96 585.60,207.97 588.56,218.98 591.53,230.00 594.48,243.06 597.44,256.46 600.41,269.86 603.36,283.26 606.32,297.51 609.29,312.40 612.24,327.28 615.20,342.17 618.17,357.04 621.12,371.90 624.08,386.77 627.04,401.63 630.00,416.49 632.96,429.66 635.92,442.83 638.88,456.00 641.83,469.17 644.80,480.29 647.76,490.59 650.71,500.89 653.68,511.18 656.64,520.11 659.59,527.21 662.56,534.31 665.52,541.41 668.47,548.13 671.44,552.53 674.40,556.95 677.35,561.37 680.32,565.79 683.28,568.71 686.23,571.39 689.20,574.07 692.16,576.74 695.11,578.94 698.08,580.77 701.03,582.60 703.99,584.43 706.96,586.15 709.91,587.63 712.87,589.11 715.84,590.61 718.79,592.09 721.75,593.34 724.72,594.60 727.67,595.84 730.63,597.10 733.60,598.10 736.55,599.02 739.51,599.93 742.48,600.83 745.43,601.52 748.39,601.89 751.35,602.28 754.31,602.65 757.27,602.96 760.23,602.70 763.19,602.46 766.15,602.20 769.11,601.96 772.07,601.22 775.02,600.39 777.99,599.58 780.95,598.76 783.90,597.78 786.87,596.69 789.83,595.58 792.78,594.49 795.75,593.44 798.71,592.55 801.66,591.66 804.63,590.77 807.59,589.87 810.54,589.66 813.51,589.44 816.47,589.22 819.42,589.00 822.39,589.42 825.34,590.09 828.30,590.77 831.27,591.44 834.22,592.46 837.18,593.97 840.15,595.45 843.10,596.93 846.06,598.50 849.03,600.48 851.98,602.48 854.94,604.46 857.91,606.46 860.86,608.64 863.82,610.86 866.79,613.11 869.74,615.33 872.70,617.61 875.67,619.96 878.62,622.29 881.58,624.65 884.54,627.02 887.50,629.50 890.46,631.96 893.42,634.42 896.38,636.88 899.33,639.32 902.30,641.76 905.26,644.22 908.21,646.66 911.18,648.86 914.14,650.95 917.09,653.02 920.06,655.11 923.02,656.83 925.97,658.05 928.94,659.29 931.90,660.51 934.85,661.55 937.82,661.42 940.78,661.29 943.73,661.16 946.70,661.05 949.66,659.44 952.61,657.57 955.58,655.72 958.53,653.87 961.49,650.88 964.46,647.07 967.41,643.26 970.37,639.45 973.34,635.03 976.29,629.11 979.25,623.19 982.22,617.26 985.17,611.34 988.13,603.74 991.10,596.14 994.05,588.57 997.01,580.97 999.98,572.78 1002.93,564.38 1005.89,555.97 1008.85,547.55 1011.81,538.91 1014.77,529.95 1017.73,521.00 1020.69,512.04 1023.65,502.98 1026.61,493.30 1029.57,483.62 1032.52,473.94 1035.49,464.26 1038.45,454.16 1041.40,443.99 1044.37,433.81 1047.33,423.64 1050.28,412.94 1053.25,401.85 1056.21,390.75 1059.16,379.66 1062.13,370.02 1065.09,364.05 1068.04,358.08 1071.01,352.10 1073.97,346.13" fill="none" stroke="#1f77b4" stroke-width="3"/>
<line x1="137" y1="100" x2="173" y2="100" stroke="#1f77b4" stroke-width="4"/>
<text x="183" y="105" font-family="Arial" font-size="18" fill="black">Ux</text>
</svg>