<svg xmlns="http://www.w3.org/2000/svg" width="1200" height="820" viewBox="0 0 1200 820">
<rect width="100%" height="100%" fill="white"/>
<text x="600.0" y="36" text-anchor="middle" font-family="Arial" font-size="24" fill="black">Uz profile along z-centerline</text>
<line x1="115.00" y1="75" x2="115.00" y2="705" stroke="#dddddd" stroke-width="1"/>
<text x="115.00" y="737" text-anchor="middle" font-family="Arial" font-size="16" fill="black">-0.240</text>
<line x1="372.50" y1="75" x2="372.50" y2="705" stroke="#dddddd" stroke-width="1"/>
<text x="372.50" y="737" text-anchor="middle" font-family="Arial" font-size="16" fill="black">0.630</text>
<line x1="630.00" y1="75" x2="630.00" y2="705" stroke="#dddddd" stroke-width="1"/>
<text x="630.00" y="737" text-anchor="middle" font-family="Arial" font-size="16" fill="black">1.500</text>
<line x1="887.50" y1="75" x2="887.50" y2="705" stroke="#dddddd" stroke-width="1"/>
<text x="887.50" y="737" text-anchor="middle" font-family="Arial" font-size="16" fill="black">2.370</text>
<line x1="1145.00" y1="75" x2="1145.00" y2="705" stroke="#dddddd" stroke-width="1"/>
<text x="1145.00" y="737" text-anchor="middle" font-family="Arial" font-size="16" fill="black">3.240</text>
<line x1="115" y1="705.00" x2="1145" y2="705.00" stroke="#dddddd" stroke-width="1"/>
<text x="99" y="710.00" text-anchor="end" font-family="Arial" font-size="16" fill="black">-0.247</text>
<line x1="115" y1="547.50" x2="1145" y2="547.50" stroke="#dddddd" stroke-width="1"/>
<text x="99" y="552.50" text-anchor="end" font-family="Arial" font-size="16" fill="black">0.017</text>
<line x1="115" y1="390.00" x2="1145" y2="390.00" stroke="#dddddd" stroke-width="1"/>
<text x="99" y="395.00" text-anchor="end" font-family="Arial" font-size="16" fill="black">0.282</text>
<line x1="115" y1="232.50" x2="1145" y2="232.50" stroke="#dddddd" stroke-width="1"/>
<text x="99" y="237.50" text-anchor="end" font-family="Arial" font-size="16" fill="black">0.546</text>
<line x1="115" y1="75.00" x2="1145" y2="75.00" stroke="#dddddd" stroke-width="1"/>
<text x="99" y="80.00" text-anchor="end" font-family="Arial" font-size="16" fill="black">0.810</text>
<rect x="115" y="75" width="1030" height="630" fill="none" stroke="black" stroke-width="2"/>
<text x="630.0" y="785" text-anchor="middle" font-family="Arial" font-size="20" fill="black">z coordinate [m]</text>
<text x="34" y="390.0" transform="rotate(-90 34 390.0)" text-anchor="middle" font-family="Arial" font-size="20" fill="black">Uz [m/s]</text>
<polyline points="186.03,118.45 188.99,119.75 191.95,121.05 194.91,122.36 197.87,123.66 200.83,124.97 203.79,126.27 206.75,127.58 209.71,128.88 212.67,130.19 215.63,131.49 218.59,135.06 221.55,138.62 224.51,142.19 227.47,145.75 230.43,149.32 233.39,152.88 236.35,156.45 239.31,160.01 242.27,163.58 245.23,167.14 248.19,172.46 251.15,177.77 254.11,183.09 257.07,188.40 260.03,193.71 262.99,199.03 265.95,204.34 268.91,209.65 271.87,214.97 274.83,220.29 277.79,227.07 280.75,233.85 283.71,240.63 286.67,247.42 289.63,254.20 292.59,260.98 295.55,267.76 298.51,274.54 301.47,281.33 304.43,288.11 307.39,296.13 310.34,304.14 313.30,312.16 316.26,320.17 319.22,328.18 322.18,336.20 325.14,344.21 328.10,352.23 331.06,360.24 334.02,368.26 336.98,377.95 339.94,387.64 342.90,397.33 345.86,407.02 348.82,416.71 351.78,426.40 354.74,436.09 357.70,445.78 360.66,455.47 363.62,465.17 366.58,475.48 369.54,485.80 372.50,496.12 375.46,506.43 378.42,516.75 381.38,527.07 384.34,537.39 387.30,547.70 390.26,558.02 393.22,568.34 396.18,574.76 399.14,581.19 402.10,587.61 405.06,594.04 408.02,600.46 410.98,606.89 413.94,613.31 416.90,619.74 419.86,626.17 422.82,632.59 425.78,634.91 428.74,637.23 431.70,639.54 434.66,641.87 437.61,644.19 440.57,646.50 443.53,648.82 446.49,651.15 449.45,653.47 452.41,655.78 455.37,656.36 458.33,656.94 461.29,657.51 464.25,658.09 467.21,658.67 470.17,659.25 473.13,659.82 476.09,660.40 479.05,660.98 482.01,661.55 484.97,660.54 487.93,659.53 490.89,658.52 493.85,657.51 496.81,656.50 499.77,655.49 502.73,654.47 505.69,653.46 508.65,652.45 511.61,651.44 514.57,649.67 517.53,647.90 520.49,646.13 523.45,644.36 526.41,642.59 529.37,640.82 532.33,639.05 535.29,637.29 538.25,635.52 541.21,633.75 544.17,631.78 547.13,629.81 550.09,627.85 553.05,625.88 556.01,623.91 558.97,621.94 561.93,619.97 564.89,618.01 567.84,616.04 570.80,614.07 573.76,612.24 576.72,610.41 579.68,608.57 582.64,606.74 585.60,604.90 588.56,603.07 591.52,601.23 594.48,599.40 597.44,597.56 600.40,595.73 603.36,594.20 606.32,592.66 609.28,591.13 612.24,589.60 615.20,588.07 618.16,586.54 621.12,585.01 624.08,583.47 627.04,581.94 630.00,580.41 632.96,579.25 635.92,578.09 638.88,576.92 641.84,575.76 644.80,574.60 647.76,573.44 650.72,572.27 653.68,571.11 656.64,569.95 659.60,568.79 662.56,567.99 665.52,567.19 668.48,566.39 671.44,565.60 674.40,564.80 677.36,564.00 680.32,563.20 683.28,562.41 686.24,561.61 689.20,560.81 692.16,560.32 695.11,559.83 698.07,559.34 701.03,558.85 703.99,558.35 706.95,557.86 709.91,557.37 712.87,556.88 715.83,556.39 718.79,555.90 721.75,555.64 724.71,555.38 727.67,555.12 730.63,554.86 733.59,554.60 736.55,554.34 739.51,554.08 742.47,553.82 745.43,553.56 748.39,553.30 751.35,553.22 754.31,553.13 757.27,553.04 760.23,552.96 763.19,552.87 766.15,552.79 769.11,552.70 772.07,552.62 775.03,552.53 777.99,552.45 780.95,552.51 783.91,552.57 786.87,552.64 789.83,552.70 792.79,552.76 795.75,552.83 798.71,552.89 801.67,552.95 804.63,553.02 807.59,553.08 810.55,553.30 813.51,553.51 816.47,553.73 819.43,553.94 822.39,554.16 825.34,554.38 828.30,554.59 831.26,554.81 834.22,555.02 837.18,555.24 840.14,555.64 843.10,556.04 846.06,556.44 849.02,556.84 851.98,557.24 854.94,557.64 857.90,558.04 860.86,558.44 863.82,558.84 866.78,559.24 869.74,559.87 872.70,560.50 875.66,561.13 878.62,561.76 881.58,562.39 884.54,563.02 887.50,563.65 890.46,564.28 893.42,564.91 896.38,565.54 899.34,566.41 902.30,567.28 905.26,568.15 908.22,569.02 911.18,569.89 914.14,570.76 917.10,571.63 920.06,572.49 923.02,573.36 925.98,574.23 928.94,575.25 931.90,576.27 934.86,577.29 937.82,578.30 940.78,579.32 943.74,580.34 946.70,581.35 949.66,582.37 952.61,583.39 955.57,584.41 958.53,585.33 961.49,586.25 964.45,587.18 967.41,588.10 970.37,589.02 973.33,589.95 976.29,590.87 979.25,591.79 982.21,592.72 985.17,593.64 988.13,593.95 991.09,594.25 994.05,594.56 997.01,594.87 999.97,595.17 1002.93,595.48 1005.89,595.78 1008.85,596.09 1011.81,596.40 1014.77,596.70 1017.73,595.13 1020.69,593.57 1023.65,592.00 1026.61,590.43 1029.57,588.87 1032.53,587.30 1035.49,585.73 1038.45,584.17 1041.41,582.60 1044.37,581.03 1047.33,579.55 1050.29,578.08 1053.25,576.60 1056.21,575.13 1059.17,573.65 1062.13,572.17 1065.09,570.70 1068.05,569.22 1071.01,567.75 1073.97,566.27" fill="none" stroke="#2ca02c" stroke-width="3"/>
<line x1="137" y1="100" x2="173" y2="100" stroke="#2ca02c" stroke-width="4"/>
<text x="183" y="105" font-family="Arial" font-size="18" fill="black">Uz</text>
</svg>