<svg xmlns="http://www.w3.org/2000/svg" width="1200" height="820" viewBox="0 0 1200 820">
<rect width="100%" height="100%" fill="white"/>
<text x="600.0" y="36" text-anchor="middle" font-family="Arial" font-size="24" fill="black">Velocity components along y-centerline</text>
<line x1="115.00" y1="75" x2="115.00" y2="705" stroke="#dddddd" stroke-width="1"/>
<text x="115.00" y="737" text-anchor="middle" font-family="Arial" font-size="16" fill="black">-0.400</text>
<line x1="372.50" y1="75" x2="372.50" y2="705" stroke="#dddddd" stroke-width="1"/>
<text x="372.50" y="737" text-anchor="middle" font-family="Arial" font-size="16" fill="black">1.050</text>
<line x1="630.00" y1="75" x2="630.00" y2="705" stroke="#dddddd" stroke-width="1"/>
<text x="630.00" y="737" text-anchor="middle" font-family="Arial" font-size="16" fill="black">2.500</text>
<line x1="887.50" y1="75" x2="887.50" y2="705" stroke="#dddddd" stroke-width="1"/>
<text x="887.50" y="737" text-anchor="middle" font-family="Arial" font-size="16" fill="black">3.950</text>
<line x1="1145.00" y1="75" x2="1145.00" y2="705" stroke="#dddddd" stroke-width="1"/>
<text x="1145.00" y="737" text-anchor="middle" font-family="Arial" font-size="16" fill="black">5.400</text>
<line x1="115" y1="705.00" x2="1145" y2="705.00" stroke="#dddddd" stroke-width="1"/>
<text x="99" y="710.00" text-anchor="end" font-family="Arial" font-size="16" fill="black">-0.302</text>
<line x1="115" y1="547.50" x2="1145" y2="547.50" stroke="#dddddd" stroke-width="1"/>
<text x="99" y="552.50" text-anchor="end" font-family="Arial" font-size="16" fill="black">-0.099</text>
<line x1="115" y1="390.00" x2="1145" y2="390.00" stroke="#dddddd" stroke-width="1"/>
<text x="99" y="395.00" text-anchor="end" font-family="Arial" font-size="16" fill="black">0.105</text>
<line x1="115" y1="232.50" x2="1145" y2="232.50" stroke="#dddddd" stroke-width="1"/>
<text x="99" y="237.50" text-anchor="end" font-family="Arial" font-size="16" fill="black">0.308</text>
<line x1="115" y1="75.00" x2="1145" y2="75.00" stroke="#dddddd" stroke-width="1"/>
<text x="99" y="80.00" text-anchor="end" font-family="Arial" font-size="16" fill="black">0.511</text>
<rect x="115" y="75" width="1030" height="630" fill="none" stroke="black" stroke-width="2"/>
<text x="630.0" y="785" text-anchor="middle" font-family="Arial" font-size="20" fill="black">y coordinate [m]</text>
<text x="34" y="390.0" transform="rotate(-90 34 390.0)" text-anchor="middle" font-family="Arial" font-size="20" fill="black">velocity [m/s]</text>
<polyline points="186.03,253.94 188.99,255.73 191.95,257.52 194.91,259.32 197.87,261.12 200.83,262.91 203.79,264.71 206.75,270.05 209.71,275.39 212.67,280.73 215.63,286.07 218.59,291.40 221.55,296.75 224.51,303.94 227.47,311.13 230.43,318.32 233.39,325.52 236.35,332.72 239.31,339.91 242.27,346.77 245.23,353.64 248.19,360.50 251.15,367.36 254.11,374.21 257.07,381.08 260.03,386.98 262.99,392.88 265.95,398.79 268.91,404.69 271.87,410.59 274.83,416.49 277.79,421.42 280.75,426.35 283.71,431.28 286.67,436.21 289.63,441.14 292.59,446.07 295.55,450.19 298.51,454.32 301.47,458.45 304.43,462.57 307.38,466.70 310.34,470.83 313.31,474.41 316.26,477.99 319.22,481.57 322.18,485.15 325.14,488.73 328.10,492.32 331.06,495.62 334.02,498.93 336.98,502.23 339.94,505.54 342.90,508.85 345.86,512.15 348.82,515.34 351.78,518.52 354.74,521.71 357.70,524.90 360.66,528.08 363.62,531.27 366.59,534.23 369.53,537.19 372.50,540.15 375.47,543.11 378.41,546.07 381.38,549.03 384.35,551.54 387.29,554.06 390.26,556.57 393.22,559.09 396.17,561.60 399.14,564.12 402.10,566.05 405.05,567.98 408.02,569.92 410.98,571.85 413.93,573.79 416.90,575.73 419.86,576.96 422.81,578.20 425.78,579.44 428.74,580.67 431.69,581.91 434.66,583.15 437.62,583.56 440.57,583.97 443.53,584.38 446.50,584.80 449.45,585.21 452.41,585.62 455.38,585.11 458.33,584.59 461.29,584.09 464.26,583.58 467.21,583.07 470.17,582.56 473.14,581.16 476.09,579.77 479.05,578.37 482.02,576.98 484.97,575.59 487.93,574.20 490.90,572.22 493.84,570.23 496.81,568.25 499.78,566.27 502.72,564.29 505.69,562.30 508.66,560.21 511.60,558.12 514.57,556.04 517.53,553.95 520.48,551.85 523.45,549.77 526.41,548.04 529.36,546.31 532.33,544.57 535.29,542.84 538.24,541.11 541.21,539.38 544.17,538.26 547.12,537.14 550.09,536.02 553.05,534.90 556.00,533.78 558.97,532.66 561.93,532.00 564.88,531.35 567.84,530.69 570.81,530.03 573.76,529.38 576.72,528.72 579.69,528.08 582.64,527.44 585.60,526.80 588.57,526.16 591.52,525.52 594.48,524.88 597.45,523.67 600.40,522.46 603.36,521.25 606.33,520.05 609.28,518.84 612.24,517.63 615.21,515.23 618.15,512.84 621.12,510.44 624.09,508.04 627.03,505.65 630.00,503.25 632.97,499.27 635.91,495.28 638.88,491.29 641.84,487.31 644.79,483.32 647.76,479.34 650.72,473.91 653.67,468.48 656.64,463.06 659.60,457.63 662.55,452.21 665.52,446.78 668.48,440.65 671.43,434.51 674.40,428.38 677.36,422.24 680.31,416.11 683.28,409.97 686.24,404.12 689.19,398.28 692.16,392.42 695.12,386.58 698.07,380.73 701.03,374.88 704.00,370.23 706.95,365.56 709.91,360.90 712.88,356.24 715.83,351.58 718.79,346.92 721.76,343.93 724.71,340.94 727.67,337.96 730.64,334.97 733.59,331.98 736.55,329.00 739.52,327.61 742.47,326.23 745.43,324.85 748.40,323.48 751.34,322.10 754.31,320.71 757.28,320.52 760.22,320.34 763.19,320.15 766.16,319.97 769.10,319.77 772.07,319.59 775.03,320.17 777.98,320.75 780.95,321.33 783.91,321.91 786.86,322.50 789.83,323.08 792.79,324.14 795.74,325.21 798.71,326.28 801.67,327.35 804.62,328.42 807.59,329.48 810.55,330.90 813.50,332.32 816.47,333.74 819.43,335.16 822.38,336.57 825.34,337.99 828.31,339.72 831.26,341.44 834.22,343.17 837.19,344.90 840.14,346.63 843.10,348.35 846.07,350.39 849.02,352.43 851.98,354.46 854.95,356.50 857.90,358.54 860.86,360.58 863.83,362.94 866.78,365.31 869.74,367.67 872.71,370.03 875.66,372.39 878.62,374.76 881.59,377.47 884.53,380.18 887.50,382.90 890.47,385.61 893.41,388.32 896.38,391.03 899.34,394.06 902.29,397.09 905.26,400.12 908.22,403.16 911.17,406.19 914.14,409.22 917.10,412.53 920.05,415.85 923.02,419.16 925.98,422.47 928.93,425.78 931.90,429.09 934.86,432.68 937.81,436.26 940.78,439.85 943.74,443.43 946.69,447.02 949.66,450.60 952.62,454.46 955.57,458.32 958.53,462.18 961.50,466.04 964.45,469.90 967.41,473.76 970.38,477.87 973.33,481.97 976.29,486.07 979.26,490.18 982.21,494.28 985.17,498.39 988.14,502.70 991.09,507.02 994.05,511.34 997.02,515.66 999.97,519.97 1002.93,524.29 1005.90,528.82 1008.84,533.35 1011.81,537.89 1014.78,542.42 1017.72,546.95 1020.69,551.48 1023.66,556.30 1026.60,561.12 1029.57,565.94 1032.53,570.75 1035.48,575.57 1038.45,580.39 1041.41,585.46 1044.36,590.53 1047.33,595.61 1050.29,600.68 1053.24,605.75 1056.21,610.83 1059.17,613.40 1062.12,615.98 1065.09,618.55 1068.05,621.13 1071.00,623.70 1073.97,626.28" fill="none" stroke="#1f77b4" stroke-width="3"/>
<line x1="137" y1="100" x2="173" y2="100" stroke="#1f77b4" stroke-width="4"/>
<text x="183" y="105" font-family="Arial" font-size="18" fill="black">Ux</text>
<polyline points="186.03,469.27 188.99,467.02 191.95,464.78 194.91,462.53 197.87,460.28 200.83,458.04 203.79,455.79 206.75,451.69 209.71,447.59 212.67,443.48 215.63,439.38 218.59,435.28 221.55,431.18 224.51,428.55 227.47,425.92 230.43,423.29 233.39,420.66 236.35,418.03 239.31,415.40 242.27,414.35 245.23,413.29 248.19,412.24 251.15,411.19 254.11,410.13 257.07,409.08 260.03,408.58 262.99,408.08 265.95,407.59 268.91,407.09 271.87,406.59 274.83,406.09 277.79,405.63 280.75,405.16 283.71,404.69 286.67,404.22 289.63,403.76 292.59,403.29 295.55,402.77 298.51,402.26 301.47,401.74 304.43,401.22 307.38,400.70 310.34,400.19 313.31,399.68 316.26,399.18 319.22,398.68 322.18,398.17 325.14,397.67 328.10,397.17 331.06,396.77 334.02,396.38 336.98,395.98 339.94,395.59 342.90,395.19 345.86,394.80 348.82,394.66 351.78,394.52 354.74,394.39 357.70,394.25 360.66,394.11 363.62,393.97 366.59,394.33 369.53,394.68 372.50,395.03 375.47,395.38 378.41,395.73 381.38,396.08 384.35,397.08 387.29,398.07 390.26,399.07 393.22,400.06 396.17,401.06 399.14,402.05 402.10,403.69 405.05,405.32 408.02,406.96 410.98,408.60 413.93,410.23 416.90,411.87 419.86,414.11 422.81,416.34 425.78,418.58 428.74,420.82 431.69,423.06 434.66,425.29 437.62,428.05 440.57,430.81 443.53,433.57 446.50,436.32 449.45,439.08 452.41,441.84 455.38,444.91 458.33,447.99 461.29,451.07 464.26,454.15 467.21,457.22 470.17,460.30 473.14,463.36 476.09,466.42 479.05,469.48 482.02,472.55 484.97,475.61 487.93,478.67 490.90,481.37 493.84,484.06 496.81,486.76 499.78,489.46 502.72,492.16 505.69,494.85 508.66,497.01 511.60,499.16 514.57,501.31 517.53,503.47 520.48,505.62 523.45,507.77 526.41,509.37 529.36,510.97 532.33,512.57 535.29,514.17 538.24,515.77 541.21,517.36 544.17,518.43 547.12,519.50 550.09,520.57 553.05,521.64 556.00,522.70 558.97,523.77 561.93,524.34 564.88,524.90 567.84,525.46 570.81,526.02 573.76,526.59 576.72,527.15 579.69,527.25 582.64,527.36 585.60,527.46 588.57,527.57 591.52,527.67 594.48,527.78 597.45,527.51 600.40,527.24 603.36,526.97 606.33,526.71 609.28,526.44 612.24,526.17 615.21,525.63 618.15,525.09 621.12,524.56 624.09,524.02 627.03,523.48 630.00,522.94 632.97,522.21 635.91,521.47 638.88,520.73 641.84,520.00 644.79,519.26 647.76,518.52 650.72,517.68 653.67,516.84 656.64,515.99 659.60,515.15 662.55,514.31 665.52,513.46 668.48,512.66 671.43,511.86 674.40,511.06 677.36,510.26 680.31,509.46 683.28,508.66 686.24,508.00 689.19,507.33 692.16,506.67 695.12,506.01 698.07,505.35 701.03,504.68 704.00,504.13 706.95,503.58 709.91,503.03 712.88,502.48 715.83,501.93 718.79,501.38 721.76,500.85 724.71,500.32 727.67,499.79 730.64,499.26 733.59,498.72 736.55,498.19 739.52,497.54 742.47,496.89 745.43,496.24 748.40,495.59 751.34,494.94 754.31,494.29 757.28,493.38 760.22,492.48 763.19,491.57 766.16,490.66 769.10,489.76 772.07,488.85 775.03,487.59 777.98,486.33 780.95,485.07 783.91,483.81 786.86,482.56 789.83,481.30 792.79,479.68 795.74,478.06 798.71,476.44 801.67,474.82 804.62,473.20 807.59,471.58 810.55,469.68 813.50,467.78 816.47,465.88 819.43,463.98 822.38,462.09 825.34,460.19 828.31,458.14 831.26,456.10 834.22,454.05 837.19,452.01 840.14,449.97 843.10,447.92 846.07,445.90 849.02,443.87 851.98,441.84 854.95,439.81 857.90,437.79 860.86,435.76 863.83,433.92 866.78,432.09 869.74,430.25 872.71,428.41 875.66,426.58 878.62,424.74 881.59,423.28 884.53,421.82 887.50,420.36 890.47,418.90 893.41,417.44 896.38,415.98 899.34,415.06 902.29,414.15 905.26,413.23 908.22,412.31 911.17,411.39 914.14,410.48 917.10,410.23 920.05,409.98 923.02,409.73 925.98,409.49 928.93,409.24 931.90,408.99 934.86,409.51 937.81,410.03 940.78,410.55 943.74,411.06 946.69,411.58 949.66,412.10 952.62,413.39 955.57,414.68 958.53,415.97 961.50,417.26 964.45,418.55 967.41,419.84 970.38,421.76 973.33,423.68 976.29,425.60 979.26,427.52 982.21,429.44 985.17,431.36 988.14,433.65 991.09,435.95 994.05,438.24 997.02,440.54 999.97,442.83 1002.93,445.13 1005.90,447.43 1008.84,449.73 1011.81,452.02 1014.78,454.32 1017.72,456.62 1020.69,458.91 1023.66,460.85 1026.60,462.78 1029.57,464.71 1032.53,466.65 1035.48,468.58 1038.45,470.51 1041.41,471.54 1044.36,472.56 1047.33,473.58 1050.29,474.61 1053.24,475.63 1056.21,476.66 1059.17,476.84 1062.12,477.03 1065.09,477.21 1068.05,477.40 1071.00,477.58 1073.97,477.77" fill="none" stroke="#d62728" stroke-width="3"/>
<line x1="137" y1="128" x2="173" y2="128" stroke="#d62728" stroke-width="4"/>
<text x="183" y="133" font-family="Arial" font-size="18" fill="black">Uy</text>
<polyline points="186.03,661.55 188.99,651.50 191.95,641.44 194.91,631.38 197.87,621.31 200.83,611.26 203.79,601.20 206.75,582.15 209.71,563.09 212.67,544.04 215.63,524.99 218.59,505.93 221.55,486.88 224.51,472.31 227.47,457.74 230.43,443.17 233.39,428.60 236.35,414.03 239.31,399.46 242.27,390.81 245.23,382.15 248.19,373.49 251.15,364.84 254.11,356.18 257.07,347.52 260.03,342.49 262.99,337.46 265.95,332.43 268.91,327.40 271.87,322.37 274.83,317.33 277.79,313.81 280.75,310.28 283.71,306.75 286.67,303.22 289.63,299.70 292.59,296.17 295.55,292.91 298.51,289.66 301.47,286.41 304.43,283.15 307.38,279.90 310.34,276.65 313.31,272.93 316.26,269.20 319.22,265.48 322.18,261.76 325.14,258.03 328.10,254.31 331.06,249.43 334.02,244.54 336.98,239.66 339.94,234.78 342.90,229.89 345.86,225.01 348.82,218.47 351.78,211.93 354.74,205.40 357.70,198.86 360.66,192.32 363.62,185.79 366.59,180.04 369.53,174.30 372.50,168.56 375.47,162.81 378.41,157.07 381.38,151.34 384.35,149.11 387.29,146.89 390.26,144.67 393.22,142.45 396.17,140.24 399.14,138.01 402.10,138.91 405.05,139.82 408.02,140.72 410.98,141.62 413.93,142.53 416.90,143.43 419.86,146.27 422.81,149.12 425.78,151.96 428.74,154.80 431.69,157.65 434.66,160.49 437.62,164.41 440.57,168.32 443.53,172.24 446.50,176.15 449.45,180.06 452.41,183.98 455.38,188.84 458.33,193.69 461.29,198.54 464.26,203.39 467.21,208.25 470.17,213.10 473.14,219.41 476.09,225.71 479.05,232.02 482.02,238.32 484.97,244.63 487.93,250.93 490.90,259.19 493.84,267.45 496.81,275.72 499.78,283.98 502.72,292.24 505.69,300.50 508.66,310.55 511.60,320.59 514.57,330.63 517.53,340.68 520.48,350.72 523.45,360.77 526.41,371.29 529.36,381.82 532.33,392.35 535.29,402.87 538.24,413.40 541.21,423.92 544.17,432.37 547.12,440.82 550.09,449.27 553.05,457.72 556.00,466.16 558.97,474.61 561.93,479.49 564.88,484.36 567.84,489.24 570.81,494.11 573.76,498.99 576.72,503.87 579.69,505.69 582.64,507.52 585.60,509.35 588.57,511.18 591.52,513.01 594.48,514.84 597.45,514.45 600.40,514.05 603.36,513.65 606.33,513.26 609.28,512.86 612.24,512.46 615.21,510.47 618.15,508.48 621.12,506.49 624.09,504.49 627.03,502.50 630.00,500.51 632.97,497.33 635.91,494.15 638.88,490.97 641.84,487.78 644.79,484.60 647.76,481.42 650.72,477.27 653.67,473.11 656.64,468.96 659.60,464.80 662.55,460.64 665.52,456.49 668.48,451.49 671.43,446.49 674.40,441.49 677.36,436.49 680.31,431.49 683.28,426.49 686.24,420.80 689.19,415.10 692.16,409.40 695.12,403.71 698.07,398.01 701.03,392.31 704.00,386.24 706.95,380.17 709.91,374.11 712.88,368.03 715.83,361.97 718.79,355.90 721.76,350.32 724.71,344.74 727.67,339.17 730.64,333.60 733.59,328.02 736.55,322.45 739.52,317.98 742.47,313.53 745.43,309.08 748.40,304.62 751.34,300.16 754.31,295.70 757.28,292.29 760.22,288.88 763.19,285.48 766.16,282.08 769.10,278.67 772.07,275.26 775.03,272.84 777.98,270.43 780.95,268.02 783.91,265.60 786.86,263.19 789.83,260.78 792.79,259.48 795.74,258.18 798.71,256.89 801.67,255.60 804.62,254.30 807.59,253.00 810.55,253.09 813.50,253.19 816.47,253.28 819.43,253.36 822.38,253.46 825.34,253.55 828.31,255.33 831.26,257.12 834.22,258.90 837.19,260.68 840.14,262.47 843.10,264.25 846.07,267.96 849.02,271.66 851.98,275.36 854.95,279.06 857.90,282.77 860.86,286.47 863.83,292.10 866.78,297.73 869.74,303.37 872.71,309.00 875.66,314.63 878.62,320.26 881.59,327.37 884.53,334.48 887.50,341.59 890.47,348.70 893.41,355.81 896.38,362.92 899.34,369.93 902.29,376.94 905.26,383.95 908.22,390.96 911.17,397.97 914.14,404.98 917.10,410.45 920.05,415.93 923.02,421.41 925.98,426.88 928.93,432.36 931.90,437.84 934.86,441.63 937.81,445.42 940.78,449.21 943.74,453.01 946.69,456.80 949.66,460.59 952.62,463.03 955.57,465.48 958.53,467.92 961.50,470.37 964.45,472.81 967.41,475.26 970.38,476.80 973.33,478.34 976.29,479.89 979.26,481.43 982.21,482.97 985.17,484.51 988.14,485.50 991.09,486.48 994.05,487.46 997.02,488.44 999.97,489.42 1002.93,490.40 1005.90,490.95 1008.84,491.49 1011.81,492.04 1014.78,492.59 1017.72,493.14 1020.69,493.69 1023.66,493.60 1026.60,493.52 1029.57,493.44 1032.53,493.35 1035.48,493.27 1038.45,493.18 1041.41,491.74 1044.36,490.30 1047.33,488.86 1050.29,487.42 1053.24,485.98 1056.21,484.54 1059.17,483.35 1062.12,482.16 1065.09,480.97 1068.05,479.78 1071.00,478.59 1073.97,477.40" fill="none" stroke="#2ca02c" stroke-width="3"/>
<line x1="137" y1="156" x2="173" y2="156" stroke="#2ca02c" stroke-width="4"/>
<text x="183" y="161" font-family="Arial" font-size="18" fill="black">Uz</text>
<polyline points="186.03,182.29 188.99,189.69 191.95,197.09 194.91,204.48 197.87,211.88 200.83,219.28 203.79,226.68 206.75,237.49 209.71,248.30 212.67,259.10 215.63,269.92 218.59,280.72 221.55,291.53 224.51,294.87 227.47,298.21 230.43,301.54 233.39,304.88 236.35,308.22 239.31,311.56 242.27,310.64 245.23,309.73 248.19,308.81 251.15,307.91 254.11,306.99 257.07,306.08 260.03,304.31 262.99,302.52 265.95,300.75 268.91,298.98 271.87,297.20 274.83,295.43 277.79,293.16 280.75,290.88 283.71,288.61 286.67,286.34 289.63,284.07 292.59,281.80 295.55,278.85 298.51,275.90 301.47,272.95 304.43,270.01 307.38,267.06 310.34,264.11 313.31,260.27 316.26,256.43 319.22,252.59 322.18,248.75 325.14,244.91 328.10,241.06 331.06,235.92 334.02,230.77 336.98,225.63 339.94,220.49 342.90,215.34 345.86,210.19 348.82,203.41 351.78,196.62 354.74,189.84 357.70,183.05 360.66,176.27 363.62,169.48 366.59,163.49 369.53,157.50 372.50,151.51 375.47,145.52 378.41,139.52 381.38,133.54 384.35,131.02 387.29,128.51 390.26,125.99 393.22,123.48 396.17,120.97 399.14,118.45 402.10,119.05 405.05,119.66 408.02,120.26 410.98,120.86 413.93,121.48 416.90,122.08 419.86,124.69 422.81,127.30 425.78,129.91 428.74,132.53 431.69,135.14 434.66,137.75 437.62,141.56 440.57,145.37 443.53,149.18 446.50,153.00 449.45,156.81 452.41,160.62 455.38,165.49 458.33,170.37 461.29,175.24 464.26,180.12 467.21,185.00 470.17,189.87 473.14,196.20 476.09,202.55 479.05,208.88 482.02,215.22 484.97,221.56 487.93,227.90 490.90,235.95 493.84,244.01 496.81,252.06 499.78,260.13 502.72,268.18 505.69,276.24 508.66,285.32 511.60,294.41 514.57,303.50 517.53,312.59 520.48,321.68 523.45,330.76 526.41,338.33 529.36,345.90 532.33,353.47 535.29,361.03 538.24,368.60 541.21,376.17 544.17,378.49 547.12,380.81 550.09,383.15 553.05,385.47 556.00,387.80 558.97,390.12 561.93,389.17 564.88,388.23 567.84,387.27 570.81,386.32 573.76,385.38 576.72,384.42 579.69,383.97 582.64,383.51 585.60,383.05 588.57,382.60 591.52,382.15 594.48,381.69 597.45,382.76 600.40,383.83 603.36,384.90 606.33,385.97 609.28,387.04 612.24,388.11 615.21,390.67 618.15,393.25 621.12,395.81 624.09,398.37 627.03,400.94 630.00,403.51 632.97,406.59 635.91,409.67 638.88,412.74 641.84,415.82 644.79,418.90 647.76,421.98 650.72,421.68 653.67,421.38 656.64,421.08 659.60,420.77 662.55,420.47 665.52,420.17 668.48,414.58 671.43,408.99 674.40,403.40 677.36,397.81 680.31,392.22 683.28,386.62 686.24,379.23 689.19,371.84 692.16,364.46 695.12,357.07 698.07,349.67 701.03,342.28 704.00,335.07 706.95,327.86 709.91,320.65 712.88,313.44 715.83,306.23 718.79,299.02 721.76,293.12 724.71,287.23 727.67,281.34 730.64,275.45 733.59,269.55 736.55,263.66 739.52,259.53 742.47,255.40 745.43,251.27 748.40,247.14 751.34,243.01 754.31,238.88 757.28,236.21 760.22,233.54 763.19,230.86 766.16,228.19 769.10,225.51 772.07,222.84 775.03,221.31 777.98,219.79 780.95,218.26 783.91,216.74 786.86,215.22 789.83,213.69 792.79,213.25 795.74,212.81 798.71,212.36 801.67,211.92 804.62,211.48 807.59,211.04 810.55,211.83 813.50,212.62 816.47,213.42 819.43,214.22 822.38,215.01 825.34,215.81 828.31,218.08 831.26,220.35 834.22,222.62 837.19,224.89 840.14,227.17 843.10,229.44 846.07,233.37 849.02,237.29 851.98,241.23 854.95,245.15 857.90,249.08 860.86,253.01 863.83,258.54 866.78,264.07 869.74,269.60 872.71,275.13 875.66,280.66 878.62,286.19 881.59,292.76 884.53,299.33 887.50,305.91 890.47,312.48 893.41,319.06 896.38,325.63 899.34,331.71 902.29,337.78 905.26,343.86 908.22,349.93 911.17,356.01 914.14,362.09 917.10,366.58 920.05,371.07 923.02,375.56 925.98,380.05 928.93,384.55 931.90,389.04 934.86,392.15 937.81,395.27 940.78,398.39 943.74,401.51 946.69,404.63 949.66,407.74 952.62,409.72 955.57,411.70 958.53,413.67 961.50,415.65 964.45,417.63 967.41,419.60 970.38,419.86 973.33,420.11 976.29,420.36 979.26,420.61 982.21,420.86 985.17,421.11 988.14,419.08 991.09,417.05 994.05,415.02 997.02,412.99 999.97,410.96 1002.93,408.93 1005.90,405.24 1008.84,401.56 1011.81,397.87 1014.78,394.19 1017.72,390.50 1020.69,386.82 1023.66,382.30 1026.60,377.79 1029.57,373.26 1032.53,368.75 1035.48,364.22 1038.45,359.71 1041.41,354.87 1044.36,350.04 1047.33,345.22 1050.29,340.38 1053.24,335.55 1056.21,330.72 1059.17,328.23 1062.12,325.73 1065.09,323.24 1068.05,320.74 1071.00,318.25 1073.97,315.75" fill="none" stroke="#111111" stroke-width="3"/>
<line x1="137" y1="184" x2="173" y2="184" stroke="#111111" stroke-width="4"/>
<text x="183" y="189" font-family="Arial" font-size="18" fill="black">Umag</text>
</svg>