<svg xmlns="http://www.w3.org/2000/svg" width="1200" height="820" viewBox="0 0 1200 820">
<rect width="100%" height="100%" fill="white"/>
<text x="600.0" y="36" text-anchor="middle" font-family="Arial" font-size="24" fill="black">Umag profile along y-centerline</text>
<line x1="115.00" y1="75" x2="115.00" y2="705" stroke="#dddddd" stroke-width="1"/>
<text x="115.00" y="737" text-anchor="middle" font-family="Arial" font-size="16" fill="black">-0.400</text>
<line x1="372.50" y1="75" x2="372.50" y2="705" stroke="#dddddd" stroke-width="1"/>
<text x="372.50" y="737" text-anchor="middle" font-family="Arial" font-size="16" fill="black">1.050</text>
<line x1="630.00" y1="75" x2="630.00" y2="705" stroke="#dddddd" stroke-width="1"/>
<text x="630.00" y="737" text-anchor="middle" font-family="Arial" font-size="16" fill="black">2.500</text>
<line x1="887.50" y1="75" x2="887.50" y2="705" stroke="#dddddd" stroke-width="1"/>
<text x="887.50" y="737" text-anchor="middle" font-family="Arial" font-size="16" fill="black">3.950</text>
<line x1="1145.00" y1="75" x2="1145.00" y2="705" stroke="#dddddd" stroke-width="1"/>
<text x="1145.00" y="737" text-anchor="middle" font-family="Arial" font-size="16" fill="black">5.400</text>
<line x1="115" y1="705.00" x2="1145" y2="705.00" stroke="#dddddd" stroke-width="1"/>
<text x="99" y="710.00" text-anchor="end" font-family="Arial" font-size="16" fill="black">0.028</text>
<line x1="115" y1="547.50" x2="1145" y2="547.50" stroke="#dddddd" stroke-width="1"/>
<text x="99" y="552.50" text-anchor="end" font-family="Arial" font-size="16" fill="black">0.142</text>
<line x1="115" y1="390.00" x2="1145" y2="390.00" stroke="#dddddd" stroke-width="1"/>
<text x="99" y="395.00" text-anchor="end" font-family="Arial" font-size="16" fill="black">0.256</text>
<line x1="115" y1="232.50" x2="1145" y2="232.50" stroke="#dddddd" stroke-width="1"/>
<text x="99" y="237.50" text-anchor="end" font-family="Arial" font-size="16" fill="black">0.370</text>
<line x1="115" y1="75.00" x2="1145" y2="75.00" stroke="#dddddd" stroke-width="1"/>
<text x="99" y="80.00" text-anchor="end" font-family="Arial" font-size="16" fill="black">0.484</text>
<rect x="115" y="75" width="1030" height="630" fill="none" stroke="black" stroke-width="2"/>
<text x="630.0" y="785" text-anchor="middle" font-family="Arial" font-size="20" fill="black">y coordinate [m]</text>
<text x="34" y="390.0" transform="rotate(-90 34 390.0)" text-anchor="middle" font-family="Arial" font-size="20" fill="black">Umag [m/s]</text>
<polyline points="186.03,512.55 188.99,518.59 191.95,524.64 194.91,530.68 197.87,536.74 200.83,542.78 203.79,548.83 206.75,560.25 209.71,571.66 212.67,583.08 215.63,594.49 218.59,605.91 221.55,617.33 224.51,624.70 227.47,632.07 230.43,639.44 233.39,646.81 236.35,654.18 239.31,661.55 242.27,657.56 245.23,653.57 248.19,649.58 251.15,645.58 254.11,641.59 257.07,637.60 260.03,627.08 262.99,616.56 265.95,606.04 268.91,595.52 271.87,584.99 274.83,574.48 277.79,562.81 280.75,551.14 283.71,539.47 286.67,527.81 289.63,516.14 292.59,504.47 295.55,492.61 298.51,480.74 301.47,468.86 304.43,456.99 307.38,445.12 310.34,433.26 313.31,421.24 316.26,409.23 319.22,397.23 322.18,385.21 325.14,373.20 328.10,361.19 331.06,349.11 334.02,337.02 336.98,324.92 339.94,312.83 342.90,300.74 345.86,288.65 348.82,276.99 351.78,265.34 354.74,253.68 357.70,242.02 360.66,230.38 363.62,218.72 366.59,210.09 369.53,201.47 372.50,192.84 375.47,184.22 378.41,175.59 381.38,166.97 384.35,163.53 387.29,160.11 390.26,156.69 393.22,153.26 396.17,149.84 399.14,146.41 402.10,147.66 405.05,148.92 408.02,150.16 410.98,151.42 413.93,152.67 416.90,153.91 419.86,158.81 422.81,163.71 425.78,168.61 428.74,173.51 431.69,178.41 434.66,183.31 437.62,190.84 440.57,198.37 443.53,205.91 446.50,213.44 449.45,220.98 452.41,228.50 455.38,237.79 458.33,247.06 461.29,256.35 464.26,265.62 467.21,274.91 470.17,284.18 473.14,294.57 476.09,304.96 479.05,315.35 482.02,325.74 484.97,336.14 487.93,346.51 490.90,357.66 493.84,368.81 496.81,379.96 499.78,391.11 502.72,402.26 505.69,413.40 508.66,424.98 511.60,436.54 514.57,448.10 517.53,459.67 520.48,471.25 523.45,482.81 526.41,493.33 529.36,503.85 532.33,514.37 535.29,524.88 538.24,535.40 541.21,545.93 544.17,552.12 547.12,558.33 550.09,564.54 553.05,570.74 556.00,576.95 558.97,583.16 561.93,583.82 564.88,584.50 567.84,585.17 570.81,585.84 573.76,586.51 576.72,587.19 579.69,584.82 582.64,582.43 585.60,580.05 588.57,577.68 591.52,575.29 594.48,572.92 597.45,570.64 600.40,568.35 603.36,566.06 606.33,563.79 609.28,561.49 612.24,559.22 615.21,558.73 618.15,558.25 621.12,557.77 624.09,557.30 627.03,556.82 630.00,556.33 632.97,558.46 635.91,560.58 638.88,562.71 641.84,564.83 644.79,566.97 647.76,569.10 650.72,574.11 653.67,579.13 656.64,584.15 659.60,589.18 662.55,594.20 665.52,599.21 668.48,605.88 671.43,612.54 674.40,619.21 677.36,625.87 680.31,632.54 683.28,639.20 686.24,639.89 689.19,640.57 692.16,641.26 695.12,641.95 698.07,642.64 701.03,643.32 704.00,631.43 706.95,619.55 709.91,607.66 712.88,595.77 715.83,583.88 718.79,572.00 721.76,555.48 724.71,538.96 727.67,522.44 730.64,505.91 733.59,489.39 736.55,472.87 739.52,455.89 742.47,438.90 745.43,421.91 748.40,404.93 751.34,387.94 754.31,370.95 757.28,354.76 760.22,338.58 763.19,322.40 766.16,306.22 769.10,290.03 772.07,273.86 775.03,260.21 777.98,246.58 780.95,232.94 783.91,219.31 786.86,205.67 789.83,192.03 792.79,182.97 795.74,173.92 798.71,164.86 801.67,155.80 804.62,146.75 807.59,137.70 810.55,134.48 813.50,131.28 816.47,128.07 819.43,124.87 822.38,121.65 825.34,118.45 828.31,121.00 831.26,123.57 834.22,126.13 837.19,128.70 840.14,131.27 843.10,133.83 846.07,140.98 849.02,148.12 851.98,155.27 854.95,162.41 857.90,169.56 860.86,176.71 863.83,186.60 866.78,196.51 869.74,206.41 872.71,216.31 875.66,226.21 878.62,236.12 881.59,246.62 884.53,257.13 887.50,267.65 890.47,278.15 893.41,288.66 896.38,299.18 899.34,308.12 902.29,317.05 905.26,325.99 908.22,334.93 911.17,343.88 914.14,352.82 917.10,359.41 920.05,366.00 923.02,372.58 925.98,379.18 928.93,385.76 931.90,392.35 934.86,396.98 937.81,401.61 940.78,406.24 943.74,410.87 946.69,415.50 949.66,420.13 952.62,423.02 955.57,425.90 958.53,428.77 961.50,431.66 964.45,434.54 967.41,437.42 970.38,438.62 973.33,439.81 976.29,441.01 979.26,442.21 982.21,443.40 985.17,444.60 988.14,444.24 991.09,443.88 994.05,443.51 997.02,443.15 999.97,442.79 1002.93,442.42 1005.90,440.87 1008.84,439.34 1011.81,437.80 1014.78,436.25 1017.72,434.70 1020.69,433.16 1023.66,431.20 1026.60,429.25 1029.57,427.29 1032.53,425.33 1035.48,423.39 1038.45,421.43 1041.41,420.17 1044.36,418.93 1047.33,417.68 1050.29,416.42 1053.24,415.18 1056.21,413.92 1059.17,413.52 1062.12,413.11 1065.09,412.71 1068.05,412.29 1071.00,411.89 1073.97,411.49" fill="none" stroke="#111111" stroke-width="3"/>
<line x1="137" y1="100" x2="173" y2="100" stroke="#111111" stroke-width="4"/>
<text x="183" y="105" font-family="Arial" font-size="18" fill="black">Umag</text>
</svg>