<svg xmlns="http://www.w3.org/2000/svg" width="1200" height="820" viewBox="0 0 1200 820">
<rect width="100%" height="100%" fill="white"/>
<text x="600.0" y="36" text-anchor="middle" font-family="Arial" font-size="24" fill="black">Uy profile along y-centerline</text>
<line x1="115.00" y1="75" x2="115.00" y2="705" stroke="#dddddd" stroke-width="1"/>
<text x="115.00" y="737" text-anchor="middle" font-family="Arial" font-size="16" fill="black">-0.400</text>
<line x1="372.50" y1="75" x2="372.50" y2="705" stroke="#dddddd" stroke-width="1"/>
<text x="372.50" y="737" text-anchor="middle" font-family="Arial" font-size="16" fill="black">1.050</text>
<line x1="630.00" y1="75" x2="630.00" y2="705" stroke="#dddddd" stroke-width="1"/>
<text x="630.00" y="737" text-anchor="middle" font-family="Arial" font-size="16" fill="black">2.500</text>
<line x1="887.50" y1="75" x2="887.50" y2="705" stroke="#dddddd" stroke-width="1"/>
<text x="887.50" y="737" text-anchor="middle" font-family="Arial" font-size="16" fill="black">3.950</text>
<line x1="1145.00" y1="75" x2="1145.00" y2="705" stroke="#dddddd" stroke-width="1"/>
<text x="1145.00" y="737" text-anchor="middle" font-family="Arial" font-size="16" fill="black">5.400</text>
<line x1="115" y1="705.00" x2="1145" y2="705.00" stroke="#dddddd" stroke-width="1"/>
<text x="99" y="710.00" text-anchor="end" font-family="Arial" font-size="16" fill="black">-0.241</text>
<line x1="115" y1="547.50" x2="1145" y2="547.50" stroke="#dddddd" stroke-width="1"/>
<text x="99" y="552.50" text-anchor="end" font-family="Arial" font-size="16" fill="black">-0.166</text>
<line x1="115" y1="390.00" x2="1145" y2="390.00" stroke="#dddddd" stroke-width="1"/>
<text x="99" y="395.00" text-anchor="end" font-family="Arial" font-size="16" fill="black">-0.091</text>
<line x1="115" y1="232.50" x2="1145" y2="232.50" stroke="#dddddd" stroke-width="1"/>
<text x="99" y="237.50" text-anchor="end" font-family="Arial" font-size="16" fill="black">-0.017</text>
<line x1="115" y1="75.00" x2="1145" y2="75.00" stroke="#dddddd" stroke-width="1"/>
<text x="99" y="80.00" text-anchor="end" font-family="Arial" font-size="16" fill="black">0.058</text>
<rect x="115" y="75" width="1030" height="630" fill="none" stroke="black" stroke-width="2"/>
<text x="630.0" y="785" text-anchor="middle" font-family="Arial" font-size="20" fill="black">y coordinate [m]</text>
<text x="34" y="390.0" transform="rotate(-90 34 390.0)" text-anchor="middle" font-family="Arial" font-size="20" fill="black">Uy [m/s]</text>
<polyline points="186.03,168.21 188.99,168.41 191.95,168.60 194.91,168.79 197.87,168.99 200.83,169.18 203.79,169.38 206.75,171.37 209.71,173.36 212.67,175.36 215.63,177.35 218.59,179.35 221.55,181.34 224.51,185.92 227.47,190.50 230.43,195.08 233.39,199.66 236.35,204.24 239.31,208.82 242.27,214.29 245.23,219.76 248.19,225.24 251.15,230.71 254.11,236.18 257.07,241.65 260.03,246.23 262.99,250.80 265.95,255.37 268.91,259.94 271.87,264.51 274.83,269.08 277.79,271.60 280.75,274.12 283.71,276.64 286.67,279.16 289.63,281.68 292.59,284.20 295.55,284.13 298.51,284.05 301.47,283.98 304.43,283.91 307.38,283.84 310.34,283.77 313.31,281.13 316.26,278.50 319.22,275.87 322.18,273.23 325.14,270.60 328.10,267.96 331.06,263.34 334.02,258.72 336.98,254.09 339.94,249.47 342.90,244.84 345.86,240.22 348.82,234.58 351.78,228.94 354.74,223.30 357.70,217.66 360.66,212.02 363.62,206.38 366.59,200.91 369.53,195.44 372.50,189.97 375.47,184.50 378.41,179.03 381.38,173.55 384.35,169.14 387.29,164.72 390.26,160.30 393.22,155.89 396.17,151.47 399.14,147.05 402.10,144.08 405.05,141.11 408.02,138.14 410.98,135.16 413.93,132.19 416.90,129.22 419.86,127.69 422.81,126.16 425.78,124.63 428.74,123.10 431.69,121.57 434.66,120.04 437.62,119.78 440.57,119.51 443.53,119.25 446.50,118.98 449.45,118.71 452.41,118.45 455.38,119.33 458.33,120.20 461.29,121.08 464.26,121.96 467.21,122.84 470.17,123.71 473.14,125.60 476.09,127.48 479.05,129.37 482.02,131.25 484.97,133.14 487.93,135.02 490.90,137.72 493.84,140.41 496.81,143.11 499.78,145.80 502.72,148.50 505.69,151.19 508.66,154.45 511.60,157.70 514.57,160.96 517.53,164.21 520.48,167.46 523.45,170.72 526.41,174.09 529.36,177.46 532.33,180.83 535.29,184.20 538.24,187.57 541.21,190.94 544.17,193.53 547.12,196.13 550.09,198.73 553.05,201.33 556.00,203.93 558.97,206.53 561.93,207.90 564.88,209.27 567.84,210.65 570.81,212.02 573.76,213.39 576.72,214.77 579.69,215.44 582.64,216.12 585.60,216.79 588.57,217.47 591.52,218.14 594.48,218.82 597.45,219.57 600.40,220.32 603.36,221.08 606.33,221.83 609.28,222.58 612.24,223.33 615.21,224.70 618.15,226.08 621.12,227.45 624.09,228.82 627.03,230.19 630.00,231.56 632.97,233.78 635.91,236.00 638.88,238.23 641.84,240.45 644.79,242.67 647.76,244.89 650.72,248.18 653.67,251.47 656.64,254.76 659.60,258.05 662.55,261.34 665.52,264.63 668.48,269.42 671.43,274.21 674.40,279.00 677.36,283.79 680.31,288.57 683.28,293.36 686.24,299.93 689.19,306.49 692.16,313.06 695.12,319.63 698.07,326.19 701.03,332.76 704.00,340.29 706.95,347.83 709.91,355.37 712.88,362.90 715.83,370.44 718.79,377.98 721.76,385.59 724.71,393.21 727.67,400.83 730.64,408.45 733.59,416.06 736.55,423.68 739.52,431.35 742.47,439.05 745.43,446.73 748.40,454.40 751.34,462.08 754.31,469.78 757.28,477.62 760.22,485.49 763.19,493.34 766.16,501.20 769.10,509.05 772.07,516.92 775.03,524.80 777.98,532.71 780.95,540.60 783.91,548.51 786.86,556.40 789.83,564.30 792.79,571.52 795.74,578.75 798.71,585.99 801.67,593.20 804.62,600.43 807.59,607.65 810.55,613.15 813.50,618.63 816.47,624.14 819.43,629.62 822.38,635.13 825.34,640.61 828.31,643.65 831.26,646.68 834.22,649.70 837.19,652.74 840.14,655.77 843.10,658.81 846.07,659.25 849.02,659.72 851.98,660.18 854.95,660.64 857.90,661.09 860.86,661.55 863.83,659.82 866.78,658.09 869.74,656.34 872.71,654.61 875.66,652.88 878.62,651.15 881.59,647.80 884.53,644.45 887.50,641.09 890.47,637.74 893.41,634.39 896.38,631.03 899.34,626.52 902.29,622.01 905.26,617.49 908.22,612.98 911.17,608.47 914.14,603.95 917.10,598.47 920.05,592.99 923.02,587.50 925.98,582.04 928.93,576.56 931.90,571.07 934.86,564.71 937.81,558.34 940.78,551.95 943.74,545.58 946.69,539.21 949.66,532.84 952.62,525.65 955.57,518.48 958.53,511.28 961.50,504.09 964.45,496.92 967.41,489.73 970.38,481.86 973.33,473.98 976.29,466.09 979.26,458.20 982.21,450.33 985.17,442.45 988.14,434.01 991.09,425.57 994.05,417.14 997.02,408.70 999.97,400.26 1002.93,391.83 1005.90,383.09 1008.84,374.36 1011.81,365.63 1014.78,356.89 1017.72,348.16 1020.69,339.42 1023.66,330.65 1026.60,321.87 1029.57,313.09 1032.53,304.32 1035.48,295.54 1038.45,286.76 1041.41,279.05 1044.36,271.33 1047.33,263.61 1050.29,255.89 1053.24,248.17 1056.21,240.45 1059.17,237.11 1062.12,233.77 1065.09,230.42 1068.05,227.08 1071.00,223.74 1073.97,220.40" fill="none" stroke="#d62728" stroke-width="3"/>
<line x1="137" y1="100" x2="173" y2="100" stroke="#d62728" stroke-width="4"/>
<text x="183" y="105" font-family="Arial" font-size="18" fill="black">Uy</text>
</svg>