<svg xmlns="http://www.w3.org/2000/svg" width="1200" height="820" viewBox="0 0 1200 820">
<rect width="100%" height="100%" fill="white"/>
<text x="600.0" y="36" text-anchor="middle" font-family="Arial" font-size="24" fill="black">Velocity components along z-centerline</text>
<line x1="115.00" y1="75" x2="115.00" y2="705" stroke="#dddddd" stroke-width="1"/>
<text x="115.00" y="737" text-anchor="middle" font-family="Arial" font-size="16" fill="black">-0.240</text>
<line x1="372.50" y1="75" x2="372.50" y2="705" stroke="#dddddd" stroke-width="1"/>
<text x="372.50" y="737" text-anchor="middle" font-family="Arial" font-size="16" fill="black">0.630</text>
<line x1="630.00" y1="75" x2="630.00" y2="705" stroke="#dddddd" stroke-width="1"/>
<text x="630.00" y="737" text-anchor="middle" font-family="Arial" font-size="16" fill="black">1.500</text>
<line x1="887.50" y1="75" x2="887.50" y2="705" stroke="#dddddd" stroke-width="1"/>
<text x="887.50" y="737" text-anchor="middle" font-family="Arial" font-size="16" fill="black">2.370</text>
<line x1="1145.00" y1="75" x2="1145.00" y2="705" stroke="#dddddd" stroke-width="1"/>
<text x="1145.00" y="737" text-anchor="middle" font-family="Arial" font-size="16" fill="black">3.240</text>
<line x1="115" y1="705.00" x2="1145" y2="705.00" stroke="#dddddd" stroke-width="1"/>
<text x="99" y="710.00" text-anchor="end" font-family="Arial" font-size="16" fill="black">-0.388</text>
<line x1="115" y1="547.50" x2="1145" y2="547.50" stroke="#dddddd" stroke-width="1"/>
<text x="99" y="552.50" text-anchor="end" font-family="Arial" font-size="16" fill="black">-0.084</text>
<line x1="115" y1="390.00" x2="1145" y2="390.00" stroke="#dddddd" stroke-width="1"/>
<text x="99" y="395.00" text-anchor="end" font-family="Arial" font-size="16" fill="black">0.219</text>
<line x1="115" y1="232.50" x2="1145" y2="232.50" stroke="#dddddd" stroke-width="1"/>
<text x="99" y="237.50" text-anchor="end" font-family="Arial" font-size="16" fill="black">0.523</text>
<line x1="115" y1="75.00" x2="1145" y2="75.00" stroke="#dddddd" stroke-width="1"/>
<text x="99" y="80.00" text-anchor="end" font-family="Arial" font-size="16" fill="black">0.827</text>
<rect x="115" y="75" width="1030" height="630" fill="none" stroke="black" stroke-width="2"/>
<text x="630.0" y="785" text-anchor="middle" font-family="Arial" font-size="20" fill="black">z coordinate [m]</text>
<text x="34" y="390.0" transform="rotate(-90 34 390.0)" text-anchor="middle" font-family="Arial" font-size="20" fill="black">velocity [m/s]</text>
<polyline points="186.03,503.45 188.99,503.41 191.95,503.38 194.91,503.34 197.87,503.30 200.83,503.27 203.79,503.23 206.75,503.19 209.71,503.16 212.67,503.12 215.63,503.08 218.59,502.98 221.55,502.88 224.51,502.77 227.47,502.67 230.43,502.56 233.39,502.46 236.35,502.35 239.31,502.25 242.27,502.14 245.23,502.04 248.19,501.90 251.15,501.76 254.11,501.61 257.07,501.47 260.03,501.33 262.99,501.19 265.95,501.05 268.91,500.91 271.87,500.76 274.83,500.62 277.79,500.50 280.75,500.38 283.71,500.26 286.67,500.14 289.63,500.02 292.59,499.89 295.55,499.77 298.51,499.65 301.47,499.53 304.43,499.41 307.39,499.36 310.34,499.32 313.30,499.28 316.26,499.23 319.22,499.19 322.18,499.15 325.14,499.10 328.10,499.06 331.06,499.02 334.02,498.97 336.98,499.06 339.94,499.14 342.90,499.23 345.86,499.32 348.82,499.40 351.78,499.49 354.74,499.57 357.70,499.66 360.66,499.74 363.62,499.83 366.58,500.09 369.54,500.35 372.50,500.62 375.46,500.88 378.42,501.14 381.38,501.40 384.34,501.66 387.30,501.93 390.26,502.19 393.22,502.45 396.18,502.82 399.14,503.19 402.10,503.57 405.06,503.94 408.02,504.31 410.98,504.68 413.94,505.06 416.90,505.43 419.86,505.80 422.82,506.17 425.78,505.93 428.74,505.68 431.70,505.44 434.66,505.19 437.61,504.94 440.57,504.70 443.53,504.45 446.49,504.20 449.45,503.96 452.41,503.71 455.37,502.63 458.33,501.55 461.29,500.46 464.25,499.38 467.21,498.30 470.17,497.22 473.13,496.13 476.09,495.05 479.05,493.97 482.01,492.89 484.97,492.07 487.93,491.26 490.89,490.44 493.85,489.63 496.81,488.82 499.77,488.00 502.73,487.19 505.69,486.38 508.65,485.56 511.61,484.75 514.57,484.60 517.53,484.45 520.49,484.31 523.45,484.16 526.41,484.01 529.37,483.87 532.33,483.72 535.29,483.57 538.25,483.43 541.21,483.28 544.17,483.53 547.13,483.79 550.09,484.04 553.05,484.29 556.01,484.54 558.97,484.80 561.93,485.05 564.89,485.30 567.84,485.56 570.80,485.81 573.76,486.46 576.72,487.10 579.68,487.75 582.64,488.39 585.60,489.04 588.56,489.69 591.52,490.33 594.48,490.98 597.44,491.62 600.40,492.27 603.36,493.23 606.32,494.20 609.28,495.16 612.24,496.12 615.20,497.08 618.16,498.05 621.12,499.01 624.08,499.97 627.04,500.94 630.00,501.90 632.96,503.06 635.92,504.21 638.88,505.37 641.84,506.52 644.80,507.68 647.76,508.84 650.72,509.99 653.68,511.15 656.64,512.31 659.60,513.46 662.56,514.69 665.52,515.91 668.48,517.13 671.44,518.35 674.40,519.57 677.36,520.80 680.32,522.02 683.28,523.24 686.24,524.46 689.20,525.68 692.16,526.87 695.11,528.06 698.07,529.25 701.03,530.44 703.99,531.63 706.95,532.82 709.91,534.01 712.87,535.20 715.83,536.39 718.79,537.58 721.75,538.67 724.71,539.76 727.67,540.85 730.63,541.95 733.59,543.04 736.55,544.13 739.51,545.22 742.47,546.32 745.43,547.41 748.39,548.50 751.35,549.46 754.31,550.43 757.27,551.39 760.23,552.35 763.19,553.32 766.15,554.28 769.11,555.24 772.07,556.20 775.03,557.17 777.99,558.13 780.95,558.96 783.91,559.79 786.87,560.63 789.83,561.46 792.79,562.29 795.75,563.12 798.71,563.96 801.67,564.79 804.63,565.62 807.59,566.45 810.55,567.18 813.51,567.91 816.47,568.65 819.43,569.38 822.39,570.11 825.34,570.84 828.30,571.57 831.26,572.30 834.22,573.03 837.18,573.76 840.14,574.44 843.10,575.13 846.06,575.81 849.02,576.49 851.98,577.18 854.94,577.86 857.90,578.55 860.86,579.22 863.82,579.91 866.78,580.59 869.74,581.29 872.70,582.00 875.66,582.70 878.62,583.40 881.58,584.10 884.54,584.81 887.50,585.51 890.46,586.22 893.42,586.92 896.38,587.62 899.34,588.41 902.30,589.20 905.26,590.00 908.22,590.79 911.18,591.58 914.14,592.37 917.10,593.16 920.06,593.96 923.02,594.75 925.98,595.54 928.94,596.49 931.90,597.44 934.86,598.39 937.82,599.34 940.78,600.29 943.74,601.24 946.70,602.19 949.66,603.14 952.61,604.09 955.57,605.04 958.53,606.21 961.49,607.38 964.45,608.55 967.41,609.71 970.37,610.88 973.33,612.05 976.29,613.22 979.25,614.39 982.21,615.55 985.17,616.72 988.13,618.18 991.09,619.64 994.05,621.10 997.01,622.56 999.97,624.02 1002.93,625.48 1005.89,626.94 1008.85,628.40 1011.81,629.86 1014.77,631.32 1017.73,633.24 1020.69,635.16 1023.65,637.07 1026.61,638.99 1029.57,640.91 1032.53,642.83 1035.49,644.75 1038.45,646.67 1041.41,648.59 1044.37,650.51 1047.33,651.61 1050.29,652.71 1053.25,653.82 1056.21,654.92 1059.17,656.03 1062.13,657.13 1065.09,658.24 1068.05,659.34 1071.01,660.45 1073.97,661.55" fill="none" stroke="#1f77b4" stroke-width="3"/>
<line x1="137" y1="100" x2="173" y2="100" stroke="#1f77b4" stroke-width="4"/>
<text x="183" y="105" font-family="Arial" font-size="18" fill="black">Ux</text>
<polyline points="186.03,500.95 188.99,500.84 191.95,500.73 194.91,500.62 197.87,500.51 200.83,500.40 203.79,500.29 206.75,500.18 209.71,500.07 212.67,499.96 215.63,499.85 218.59,499.67 221.55,499.49 224.51,499.31 227.47,499.14 230.43,498.96 233.39,498.78 236.35,498.60 239.31,498.42 242.27,498.24 245.23,498.07 248.19,497.97 251.15,497.87 254.11,497.77 257.07,497.68 260.03,497.58 262.99,497.48 265.95,497.38 268.91,497.29 271.87,497.19 274.83,497.09 277.79,497.07 280.75,497.04 283.71,497.01 286.67,496.98 289.63,496.96 292.59,496.93 295.55,496.90 298.51,496.87 301.47,496.85 304.43,496.82 307.39,496.84 310.34,496.86 313.30,496.88 316.26,496.90 319.22,496.93 322.18,496.95 325.14,496.97 328.10,496.99 331.06,497.01 334.02,497.03 336.98,497.07 339.94,497.11 342.90,497.14 345.86,497.18 348.82,497.22 351.78,497.25 354.74,497.29 357.70,497.33 360.66,497.37 363.62,497.40 366.58,497.42 369.54,497.44 372.50,497.45 375.46,497.47 378.42,497.48 381.38,497.50 384.34,497.52 387.30,497.53 390.26,497.55 393.22,497.57 396.18,497.61 399.14,497.66 402.10,497.71 405.06,497.76 408.02,497.81 410.98,497.86 413.94,497.90 416.90,497.95 419.86,498.00 422.82,498.05 425.78,498.41 428.74,498.77 431.70,499.14 434.66,499.50 437.61,499.86 440.57,500.22 443.53,500.59 446.49,500.95 449.45,501.31 452.41,501.67 455.37,502.17 458.33,502.66 461.29,503.15 464.25,503.65 467.21,504.14 470.17,504.63 473.13,505.12 476.09,505.62 479.05,506.11 482.01,506.60 484.97,506.80 487.93,507.00 490.89,507.20 493.85,507.40 496.81,507.59 499.77,507.79 502.73,507.99 505.69,508.19 508.65,508.38 511.61,508.58 514.57,508.59 517.53,508.61 520.49,508.62 523.45,508.63 526.41,508.64 529.37,508.66 532.33,508.67 535.29,508.68 538.25,508.70 541.21,508.71 544.17,508.73 547.13,508.75 550.09,508.76 553.05,508.78 556.01,508.80 558.97,508.82 561.93,508.84 564.89,508.86 567.84,508.88 570.80,508.89 573.76,509.00 576.72,509.10 579.68,509.21 582.64,509.31 585.60,509.42 588.56,509.52 591.52,509.63 594.48,509.73 597.44,509.83 600.40,509.94 603.36,510.16 606.32,510.38 609.28,510.60 612.24,510.82 615.20,511.04 618.16,511.26 621.12,511.48 624.08,511.70 627.04,511.92 630.00,512.14 632.96,512.46 635.92,512.77 638.88,513.09 641.84,513.40 644.80,513.72 647.76,514.03 650.72,514.35 653.68,514.66 656.64,514.98 659.60,515.29 662.56,515.65 665.52,516.01 668.48,516.37 671.44,516.73 674.40,517.09 677.36,517.45 680.32,517.81 683.28,518.17 686.24,518.52 689.20,518.88 692.16,519.23 695.11,519.58 698.07,519.93 701.03,520.28 703.99,520.62 706.95,520.97 709.91,521.32 712.87,521.67 715.83,522.02 718.79,522.36 721.75,522.65 724.71,522.94 727.67,523.22 730.63,523.51 733.59,523.79 736.55,524.08 739.51,524.37 742.47,524.65 745.43,524.94 748.39,525.22 751.35,525.40 754.31,525.58 757.27,525.75 760.23,525.93 763.19,526.11 766.15,526.28 769.11,526.46 772.07,526.63 775.03,526.81 777.99,526.99 780.95,527.01 783.91,527.02 786.87,527.04 789.83,527.06 792.79,527.08 795.75,527.10 798.71,527.12 801.67,527.14 804.63,527.16 807.59,527.17 810.55,526.97 813.51,526.77 816.47,526.57 819.43,526.37 822.39,526.17 825.34,525.97 828.30,525.77 831.26,525.57 834.22,525.37 837.18,525.17 840.14,524.70 843.10,524.23 846.06,523.76 849.02,523.29 851.98,522.82 854.94,522.35 857.90,521.88 860.86,521.41 863.82,520.94 866.78,520.47 869.74,519.69 872.70,518.91 875.66,518.13 878.62,517.34 881.58,516.56 884.54,515.78 887.50,515.00 890.46,514.22 893.42,513.44 896.38,512.66 899.34,511.52 902.30,510.39 905.26,509.26 908.22,508.13 911.18,507.00 914.14,505.87 917.10,504.74 920.06,503.61 923.02,502.47 925.98,501.34 928.94,499.92 931.90,498.49 934.86,497.06 937.82,495.64 940.78,494.21 943.74,492.78 946.70,491.35 949.66,489.93 952.61,488.50 955.57,487.07 958.53,485.51 961.49,483.94 964.45,482.37 967.41,480.80 970.37,479.23 973.33,477.67 976.29,476.10 979.25,474.53 982.21,472.96 985.17,471.39 988.13,469.85 991.09,468.31 994.05,466.76 997.01,465.22 999.97,463.68 1002.93,462.13 1005.89,460.59 1008.85,459.05 1011.81,457.51 1014.77,455.96 1017.73,454.62 1020.69,453.28 1023.65,451.94 1026.61,450.60 1029.57,449.26 1032.53,447.92 1035.49,446.58 1038.45,445.24 1041.41,443.90 1044.37,442.56 1047.33,441.96 1050.29,441.37 1053.25,440.78 1056.21,440.18 1059.17,439.58 1062.13,438.99 1065.09,438.40 1068.05,437.80 1071.01,437.20 1073.97,436.61" fill="none" stroke="#d62728" stroke-width="3"/>
<line x1="137" y1="128" x2="173" y2="128" stroke="#d62728" stroke-width="4"/>
<text x="183" y="133" font-family="Arial" font-size="18" fill="black">Uy</text>
<polyline points="186.03,118.46 188.99,119.09 191.95,119.71 194.91,120.34 197.87,120.96 200.83,121.59 203.79,122.21 206.75,122.84 209.71,123.46 212.67,124.09 215.63,124.71 218.59,126.39 221.55,128.06 224.51,129.74 227.47,131.42 230.43,133.09 233.39,134.77 236.35,136.45 239.31,138.13 242.27,139.80 245.23,141.48 248.19,143.95 251.15,146.42 254.11,148.88 257.07,151.35 260.03,153.82 262.99,156.29 265.95,158.76 268.91,161.23 271.87,163.70 274.83,166.16 277.79,169.38 280.75,172.61 283.71,175.83 286.67,179.05 289.63,182.27 292.59,185.50 295.55,188.72 298.51,191.94 301.47,195.16 304.43,198.38 307.39,202.43 310.34,206.48 313.30,210.53 316.26,214.58 319.22,218.63 322.18,222.68 325.14,226.73 328.10,230.78 331.06,234.83 334.02,238.88 336.98,243.80 339.94,248.72 342.90,253.64 345.86,258.56 348.82,263.48 351.78,268.41 354.74,273.33 357.70,278.25 360.66,283.17 363.62,288.09 366.58,293.82 369.54,299.54 372.50,305.27 375.46,310.99 378.42,316.71 381.38,322.44 384.34,328.16 387.30,333.89 390.26,339.61 393.22,345.33 396.18,351.86 399.14,358.39 402.10,364.91 405.06,371.43 408.02,377.96 410.98,384.48 413.94,391.01 416.90,397.54 419.86,404.06 422.82,410.58 425.78,418.24 428.74,425.90 431.70,433.56 434.66,441.22 437.61,448.88 440.57,456.54 443.53,464.20 446.49,471.86 449.45,479.52 452.41,487.18 455.37,493.19 458.33,499.20 461.29,505.22 464.25,511.23 467.21,517.24 470.17,523.25 473.13,529.26 476.09,535.28 479.05,541.29 482.01,547.30 484.97,550.15 487.93,552.99 490.89,555.84 493.85,558.68 496.81,561.53 499.77,564.37 502.73,567.22 505.69,570.07 508.65,572.91 511.61,575.76 514.57,577.13 517.53,578.51 520.49,579.88 523.45,581.26 526.41,582.63 529.37,584.01 532.33,585.39 535.29,586.76 538.25,588.13 541.21,589.51 544.17,589.71 547.13,589.91 550.09,590.11 553.05,590.31 556.01,590.51 558.97,590.71 561.93,590.90 564.89,591.11 567.84,591.30 570.80,591.50 573.76,590.85 576.72,590.20 579.68,589.55 582.64,588.90 585.60,588.25 588.56,587.59 591.52,586.95 594.48,586.29 597.44,585.65 600.40,584.99 603.36,583.84 606.32,582.67 609.28,581.51 612.24,580.36 615.20,579.19 618.16,578.03 621.12,576.87 624.08,575.71 627.04,574.55 630.00,573.39 632.96,571.97 635.92,570.56 638.88,569.14 641.84,567.72 644.80,566.31 647.76,564.89 650.72,563.48 653.68,562.05 656.64,560.64 659.60,559.22 662.56,557.76 665.52,556.30 668.48,554.84 671.44,553.37 674.40,551.91 677.36,550.45 680.32,548.99 683.28,547.52 686.24,546.06 689.20,544.60 692.16,543.26 695.11,541.93 698.07,540.59 701.03,539.25 703.99,537.91 706.95,536.58 709.91,535.24 712.87,533.90 715.83,532.57 718.79,531.23 721.75,530.13 724.71,529.03 727.67,527.93 730.63,526.82 733.59,525.72 736.55,524.62 739.51,523.52 742.47,522.42 745.43,521.32 748.39,520.22 751.35,519.40 754.31,518.58 757.27,517.77 760.23,516.95 763.19,516.13 766.15,515.31 769.11,514.50 772.07,513.68 775.03,512.86 777.99,512.04 780.95,511.50 783.91,510.95 786.87,510.41 789.83,509.86 792.79,509.32 795.75,508.77 798.71,508.23 801.67,507.68 804.63,507.14 807.59,506.59 810.55,506.27 813.51,505.95 816.47,505.62 819.43,505.30 822.39,504.98 825.34,504.65 828.30,504.33 831.26,504.01 834.22,503.69 837.18,503.36 840.14,503.19 843.10,503.03 846.06,502.86 849.02,502.69 851.98,502.52 854.94,502.35 857.90,502.19 860.86,502.02 863.82,501.85 866.78,501.68 869.74,501.59 872.70,501.50 875.66,501.41 878.62,501.33 881.58,501.24 884.54,501.15 887.50,501.06 890.46,500.97 893.42,500.88 896.38,500.79 899.34,500.73 902.30,500.67 905.26,500.61 908.22,500.55 911.18,500.50 914.14,500.44 917.10,500.38 920.06,500.32 923.02,500.26 925.98,500.20 928.94,500.17 931.90,500.15 934.86,500.12 937.82,500.10 940.78,500.07 943.74,500.05 946.70,500.02 949.66,500.00 952.61,499.97 955.57,499.95 958.53,499.98 961.49,500.01 964.45,500.05 967.41,500.08 970.37,500.11 973.33,500.14 976.29,500.17 979.25,500.21 982.21,500.24 985.17,500.27 988.13,500.36 991.09,500.46 994.05,500.55 997.01,500.64 999.97,500.74 1002.93,500.83 1005.89,500.92 1008.85,501.02 1011.81,501.11 1014.77,501.20 1017.73,501.32 1020.69,501.44 1023.65,501.55 1026.61,501.67 1029.57,501.78 1032.53,501.90 1035.49,502.01 1038.45,502.13 1041.41,502.24 1044.37,502.36 1047.33,502.41 1050.29,502.47 1053.25,502.52 1056.21,502.57 1059.17,502.63 1062.13,502.68 1065.09,502.73 1068.05,502.79 1071.01,502.84 1073.97,502.89" fill="none" stroke="#2ca02c" stroke-width="3"/>
<line x1="137" y1="156" x2="173" y2="156" stroke="#2ca02c" stroke-width="4"/>
<text x="183" y="161" font-family="Arial" font-size="18" fill="black">Uz</text>
<polyline points="186.03,118.45 188.99,119.08 191.95,119.70 194.91,120.32 197.87,120.95 200.83,121.57 203.79,122.19 206.75,122.81 209.71,123.44 212.67,124.06 215.63,124.69 218.59,126.36 221.55,128.04 224.51,129.71 227.47,131.39 230.43,133.06 233.39,134.74 236.35,136.41 239.31,138.09 242.27,139.76 245.23,141.43 248.19,143.90 251.15,146.36 254.11,148.83 257.07,151.30 260.03,153.76 262.99,156.22 265.95,158.69 268.91,161.15 271.87,163.62 274.83,166.09 277.79,169.30 280.75,172.52 283.71,175.74 286.67,178.96 289.63,182.18 292.59,185.40 295.55,188.62 298.51,191.84 301.47,195.06 304.43,198.28 307.39,202.33 310.34,206.37 313.30,210.42 316.26,214.47 319.22,218.51 322.18,222.56 325.14,226.61 328.10,230.65 331.06,234.70 334.02,238.75 336.98,243.67 339.94,248.59 342.90,253.51 345.86,258.44 348.82,263.36 351.78,268.28 354.74,273.20 357.70,278.12 360.66,283.05 363.62,287.97 366.58,293.69 369.54,299.42 372.50,305.14 375.46,310.86 378.42,316.59 381.38,322.31 384.34,328.04 387.30,333.76 390.26,339.49 393.22,345.21 396.18,351.73 399.14,358.25 402.10,364.76 405.06,371.28 408.02,377.80 410.98,384.31 413.94,390.83 416.90,397.34 419.86,403.86 422.82,410.38 425.78,418.05 428.74,425.72 431.70,433.38 434.66,441.05 437.61,448.72 440.57,456.38 443.53,464.05 446.49,471.72 449.45,479.39 452.41,487.06 455.37,484.22 458.33,481.38 461.29,478.54 464.25,475.71 467.21,472.87 470.17,470.03 473.13,467.19 476.09,464.35 479.05,461.52 482.01,458.68 484.97,455.71 487.93,452.75 490.89,449.78 493.85,446.82 496.81,443.86 499.77,440.89 502.73,437.92 505.69,434.96 508.65,432.00 511.61,429.03 514.57,427.66 517.53,426.29 520.49,424.92 523.45,423.55 526.41,422.18 529.37,420.81 532.33,419.45 535.29,418.08 538.25,416.71 541.21,415.34 544.17,415.20 547.13,415.06 550.09,414.92 553.05,414.78 556.01,414.64 558.97,414.50 561.93,414.36 564.89,414.22 567.84,414.08 570.80,413.94 573.76,414.68 576.72,415.42 579.68,416.16 582.64,416.91 585.60,417.65 588.56,418.39 591.52,419.13 594.48,419.88 597.44,420.62 600.40,421.36 603.36,422.57 606.32,423.79 609.28,424.99 612.24,426.20 615.20,427.42 618.16,428.62 621.12,429.84 624.08,431.05 627.04,432.26 630.00,433.47 632.96,434.73 635.92,436.00 638.88,437.27 641.84,438.54 644.80,439.81 647.76,441.07 650.72,442.34 653.68,443.61 656.64,444.87 659.60,446.14 662.56,447.01 665.52,447.88 668.48,448.75 671.44,449.62 674.40,450.49 677.36,451.36 680.32,452.23 683.28,453.10 686.24,453.97 689.20,454.84 692.16,454.98 695.11,455.11 698.07,455.25 701.03,455.39 703.99,455.53 706.95,455.67 709.91,455.80 712.87,455.94 715.83,456.08 718.79,456.22 721.75,455.73 724.71,455.24 727.67,454.75 730.63,454.26 733.59,453.77 736.55,453.28 739.51,452.79 742.47,452.30 745.43,451.81 748.39,451.31 751.35,450.57 754.31,449.83 757.27,449.09 760.23,448.35 763.19,447.61 766.15,446.87 769.11,446.13 772.07,445.39 775.03,444.64 777.99,443.90 780.95,443.18 783.91,442.45 786.87,441.72 789.83,440.99 792.79,440.27 795.75,439.54 798.71,438.81 801.67,438.08 804.63,437.36 807.59,436.63 810.55,436.01 813.51,435.39 816.47,434.77 819.43,434.14 822.39,433.52 825.34,432.90 828.30,432.28 831.26,431.65 834.22,431.04 837.18,430.41 840.14,429.87 843.10,429.33 846.06,428.78 849.02,428.24 851.98,427.69 854.94,427.15 857.90,426.60 860.86,426.06 863.82,425.51 866.78,424.97 869.74,424.39 872.70,423.82 875.66,423.25 878.62,422.68 881.58,422.11 884.54,421.54 887.50,420.97 890.46,420.39 893.42,419.82 896.38,419.25 899.34,418.50 902.30,417.75 905.26,417.00 908.22,416.25 911.18,415.50 914.14,414.75 917.10,414.00 920.06,413.25 923.02,412.50 925.98,411.76 928.94,410.67 931.90,409.59 934.86,408.51 937.82,407.42 940.78,406.34 943.74,405.26 946.70,404.18 949.66,403.09 952.61,402.01 955.57,400.93 958.53,399.45 961.49,397.97 964.45,396.48 967.41,394.99 970.37,393.51 973.33,392.03 976.29,390.54 979.25,389.06 982.21,387.58 985.17,386.09 988.13,384.23 991.09,382.36 994.05,380.49 997.01,378.63 999.97,376.76 1002.93,374.89 1005.89,373.02 1008.85,371.15 1011.81,369.29 1014.77,367.42 1017.73,365.14 1020.69,362.87 1023.65,360.59 1026.61,358.31 1029.57,356.04 1032.53,353.77 1035.49,351.49 1038.45,349.21 1041.41,346.94 1044.37,344.66 1047.33,343.41 1050.29,342.16 1053.25,340.92 1056.21,339.67 1059.17,338.42 1062.13,337.17 1065.09,335.92 1068.05,334.68 1071.01,333.43 1073.97,332.18" fill="none" stroke="#111111" stroke-width="3"/>
<line x1="137" y1="184" x2="173" y2="184" stroke="#111111" stroke-width="4"/>
<text x="183" y="189" font-family="Arial" font-size="18" fill="black">Umag</text>
</svg>