<svg xmlns="http://www.w3.org/2000/svg" width="1200" height="820" viewBox="0 0 1200 820">
<rect width="100%" height="100%" fill="white"/>
<text x="600.0" y="36" text-anchor="middle" font-family="Arial" font-size="24" fill="black">Velocity components along x-centerline</text>
<line x1="115.00" y1="75" x2="115.00" y2="705" stroke="#dddddd" stroke-width="1"/>
<text x="115.00" y="737" text-anchor="middle" font-family="Arial" font-size="16" fill="black">-0.560</text>
<line x1="372.50" y1="75" x2="372.50" y2="705" stroke="#dddddd" stroke-width="1"/>
<text x="372.50" y="737" text-anchor="middle" font-family="Arial" font-size="16" fill="black">1.470</text>
<line x1="630.00" y1="75" x2="630.00" y2="705" stroke="#dddddd" stroke-width="1"/>
<text x="630.00" y="737" text-anchor="middle" font-family="Arial" font-size="16" fill="black">3.500</text>
<line x1="887.50" y1="75" x2="887.50" y2="705" stroke="#dddddd" stroke-width="1"/>
<text x="887.50" y="737" text-anchor="middle" font-family="Arial" font-size="16" fill="black">5.530</text>
<line x1="1145.00" y1="75" x2="1145.00" y2="705" stroke="#dddddd" stroke-width="1"/>
<text x="1145.00" y="737" text-anchor="middle" font-family="Arial" font-size="16" fill="black">7.560</text>
<line x1="115" y1="705.00" x2="1145" y2="705.00" stroke="#dddddd" stroke-width="1"/>
<text x="99" y="710.00" text-anchor="end" font-family="Arial" font-size="16" fill="black">-0.282</text>
<line x1="115" y1="547.50" x2="1145" y2="547.50" stroke="#dddddd" stroke-width="1"/>
<text x="99" y="552.50" text-anchor="end" font-family="Arial" font-size="16" fill="black">-0.127</text>
<line x1="115" y1="390.00" x2="1145" y2="390.00" stroke="#dddddd" stroke-width="1"/>
<text x="99" y="395.00" text-anchor="end" font-family="Arial" font-size="16" fill="black">0.028</text>
<line x1="115" y1="232.50" x2="1145" y2="232.50" stroke="#dddddd" stroke-width="1"/>
<text x="99" y="237.50" text-anchor="end" font-family="Arial" font-size="16" fill="black">0.182</text>
<line x1="115" y1="75.00" x2="1145" y2="75.00" stroke="#dddddd" stroke-width="1"/>
<text x="99" y="80.00" text-anchor="end" font-family="Arial" font-size="16" fill="black">0.337</text>
<rect x="115" y="75" width="1030" height="630" fill="none" stroke="black" stroke-width="2"/>
<text x="630.0" y="785" text-anchor="middle" font-family="Arial" font-size="20" fill="black">x coordinate [m]</text>
<text x="34" y="390.0" transform="rotate(-90 34 390.0)" text-anchor="middle" font-family="Arial" font-size="20" fill="black">velocity [m/s]</text>
<polyline points="186.03,419.66 188.99,419.41 191.95,419.17 194.91,418.92 197.87,418.67 200.83,417.64 203.79,416.28 206.75,414.93 209.71,413.58 212.67,411.71 215.63,409.14 218.59,406.58 221.55,404.02 224.51,401.39 227.47,398.39 230.43,395.39 233.39,392.38 236.35,389.38 239.31,386.36 242.27,383.34 245.23,380.33 248.19,377.31 251.15,374.38 254.11,371.53 257.07,368.68 260.03,365.83 262.99,363.04 265.95,360.43 268.91,357.82 271.87,355.21 274.83,352.60 277.79,350.43 280.75,348.27 283.71,346.10 286.67,343.93 289.63,342.40 292.59,341.11 295.55,339.82 298.51,338.54 301.47,337.86 304.42,338.00 307.39,338.13 310.34,338.27 313.30,338.66 316.27,340.53 319.22,342.40 322.18,344.27 325.15,346.14 328.10,349.33 331.06,352.74 334.03,356.14 336.98,359.55 339.94,363.48 342.91,367.80 345.86,372.12 348.82,376.44 351.79,380.80 354.74,385.27 357.70,389.75 360.67,394.22 363.62,398.69 366.58,402.59 369.54,406.49 372.50,410.40 375.46,414.30 378.42,417.41 381.38,420.20 384.33,423.00 387.30,425.80 390.26,428.02 393.21,429.49 396.18,430.95 399.14,432.42 402.09,433.70 405.06,433.90 408.02,434.09 410.97,434.28 413.94,434.47 416.90,433.76 419.85,432.90 422.82,432.03 425.78,431.17 428.73,429.87 431.70,428.25 434.66,426.63 437.61,425.01 440.58,423.26 443.53,421.20 446.49,419.14 449.46,417.08 452.41,415.01 455.37,412.76 458.34,410.50 461.29,408.25 464.25,405.99 467.22,403.69 470.17,401.38 473.13,399.06 476.10,396.74 479.05,394.42 482.01,392.08 484.98,389.74 487.93,387.40 490.89,385.07 493.85,382.74 496.81,380.42 499.77,378.10 502.73,375.78 505.69,373.55 508.65,371.32 511.61,369.10 514.57,366.88 517.52,364.80 520.49,362.82 523.45,360.83 526.40,358.85 529.37,356.99 532.33,355.43 535.28,353.88 538.25,352.32 541.21,350.76 544.16,349.85 547.13,348.94 550.09,348.03 553.04,347.11 556.01,346.82 558.97,346.77 561.92,346.72 564.89,346.67 567.84,347.08 570.80,348.09 573.77,349.10 576.72,350.12 579.68,351.30 582.65,353.52 585.60,355.74 588.56,357.95 591.53,360.17 594.48,363.42 597.44,366.84 600.41,370.26 603.36,373.68 606.32,377.64 609.29,382.02 612.24,386.39 615.20,390.76 618.17,395.28 621.12,400.15 624.08,405.02 627.04,409.90 630.00,414.77 632.96,419.59 635.92,424.41 638.88,429.24 641.83,434.06 644.80,438.47 647.76,442.73 650.71,446.98 653.68,451.23 656.64,455.06 659.59,458.35 662.56,461.64 665.52,464.92 668.47,468.03 671.44,470.04 674.40,472.06 677.35,474.08 680.32,476.09 683.28,476.84 686.23,477.37 689.20,477.89 692.16,478.42 695.11,478.07 698.08,477.05 701.03,476.03 703.99,475.02 706.96,473.59 709.91,471.15 712.87,468.70 715.84,466.26 718.79,463.82 721.75,460.20 724.72,456.59 727.67,452.98 730.63,449.37 733.60,445.14 736.55,440.68 739.51,436.21 742.48,431.74 745.43,427.09 748.39,422.20 751.35,417.31 754.31,412.42 757.27,407.53 760.23,402.68 763.19,397.83 766.15,392.98 769.11,388.13 772.07,383.59 775.02,379.11 777.99,374.62 780.95,370.13 783.90,366.15 786.87,362.54 789.83,358.93 792.78,355.32 795.75,352.14 798.71,350.04 801.66,347.94 804.63,345.85 807.59,343.75 810.54,343.40 813.51,343.06 816.47,342.71 819.42,342.36 822.39,343.07 825.34,344.20 828.30,345.33 831.27,346.46 834.22,347.95 837.18,349.93 840.15,351.91 843.10,353.89 846.06,355.87 849.03,357.87 851.98,359.87 854.94,361.87 857.91,363.87 860.86,365.34 863.82,366.71 866.79,368.09 869.74,369.46 872.70,370.24 875.67,370.58 878.62,370.92 881.58,371.25 884.54,371.17 887.50,370.02 890.46,368.86 893.42,367.72 896.38,366.57 899.33,363.64 902.30,360.72 905.26,357.80 908.21,354.88 911.18,351.02 914.14,346.80 917.09,342.57 920.06,338.34 923.02,334.01 925.97,329.53 928.94,325.04 931.90,320.56 934.85,316.17 937.82,312.29 940.78,308.41 943.73,304.53 946.70,300.65 949.66,297.68 952.61,294.86 955.58,292.04 958.53,289.22 961.49,287.19 964.46,285.74 967.41,284.29 970.37,282.85 973.34,281.85 976.29,281.97 979.25,282.09 982.22,282.23 985.17,282.35 988.13,284.06 991.10,285.77 994.05,287.47 997.01,289.18 999.98,291.93 1002.93,295.09 1005.89,298.24 1008.85,301.40 1011.81,305.10 1014.77,309.51 1017.73,313.92 1020.69,318.32 1023.65,322.86 1026.61,328.21 1029.57,333.56 1032.52,338.91 1035.49,344.26 1038.45,350.17 1041.40,356.17 1044.37,362.17 1047.33,368.17 1050.28,373.93 1053.25,379.50 1056.21,385.07 1059.16,390.64 1062.13,395.32 1065.09,397.75 1068.04,400.18 1071.01,402.62 1073.97,405.05" fill="none" stroke="#1f77b4" stroke-width="3"/>
<line x1="137" y1="100" x2="173" y2="100" stroke="#1f77b4" stroke-width="4"/>
<text x="183" y="105" font-family="Arial" font-size="18" fill="black">Ux</text>
<polyline points="186.03,286.84 188.99,287.98 191.95,289.11 194.91,290.25 197.87,291.39 200.83,293.17 203.79,295.23 206.75,297.28 209.71,299.33 212.67,301.08 215.63,302.45 218.59,303.82 221.55,305.19 224.51,306.44 227.47,306.99 230.43,307.55 233.39,308.11 236.35,308.66 239.31,308.86 242.27,309.01 245.23,309.14 248.19,309.28 251.15,309.50 254.11,309.77 257.07,310.05 260.03,310.32 262.99,310.78 265.95,311.70 268.91,312.60 271.87,313.51 274.83,314.42 277.79,316.31 280.75,318.20 283.71,320.09 286.67,321.98 289.63,324.61 292.59,327.54 295.55,330.48 298.51,333.41 301.47,336.65 304.42,340.31 307.39,343.97 310.34,347.62 313.30,351.30 316.27,355.13 319.22,358.96 322.18,362.78 325.15,366.61 328.10,370.10 331.06,373.53 334.03,376.97 336.98,380.40 339.94,383.39 342.91,386.05 345.86,388.71 348.82,391.37 351.79,393.78 354.74,395.59 357.70,397.39 360.67,399.20 363.62,401.01 366.58,402.15 369.54,403.29 372.50,404.43 375.46,405.57 378.42,406.46 381.38,407.26 384.33,408.05 387.30,408.84 390.26,409.60 393.21,410.32 396.18,411.03 399.14,411.75 402.09,412.47 405.06,413.20 408.02,413.93 410.97,414.66 413.94,415.39 416.90,416.04 419.85,416.66 422.82,417.29 425.78,417.92 428.73,418.33 431.70,418.58 434.66,418.82 437.61,419.07 440.58,419.15 443.53,418.78 446.49,418.42 449.46,418.05 452.41,417.69 455.37,416.71 458.34,415.73 461.29,414.76 464.25,413.78 467.22,412.55 470.17,411.21 473.13,409.87 476.10,408.54 479.05,407.19 482.01,405.82 484.98,404.46 487.93,403.09 490.89,401.76 493.85,400.64 496.81,399.51 499.77,398.38 502.73,397.25 505.69,396.47 508.65,395.75 511.61,395.03 514.57,394.31 517.52,393.85 520.49,393.60 523.45,393.35 526.40,393.09 529.37,392.97 532.33,393.17 535.28,393.36 538.25,393.56 541.21,393.76 544.16,394.32 547.13,394.89 550.09,395.45 553.04,396.02 556.01,396.77 558.97,397.61 561.92,398.44 564.89,399.28 567.84,400.19 570.80,401.22 573.77,402.24 576.72,403.27 579.68,404.32 582.65,405.53 585.60,406.74 588.56,407.95 591.53,409.16 594.48,410.61 597.44,412.09 600.41,413.58 603.36,415.06 606.32,416.80 609.29,418.73 612.24,420.65 615.20,422.58 618.17,424.69 621.12,427.24 624.08,429.79 627.04,432.33 630.00,434.88 632.96,438.10 635.92,441.32 638.88,444.53 641.83,447.75 644.80,451.35 647.76,455.11 650.71,458.86 653.68,462.62 656.64,466.53 659.59,470.65 662.56,474.76 665.52,478.88 668.47,483.02 671.44,487.33 674.40,491.64 677.35,495.95 680.32,500.26 683.28,504.58 686.23,508.90 689.20,513.22 692.16,517.54 695.11,521.74 698.08,525.86 701.03,529.97 703.99,534.08 706.96,538.07 709.91,541.73 712.87,545.40 715.84,549.05 718.79,552.72 721.75,555.71 724.72,558.70 727.67,561.69 730.63,564.67 733.60,567.05 736.55,569.17 739.51,571.30 742.48,573.43 745.43,575.06 748.39,576.05 751.35,577.03 754.31,578.00 757.27,578.78 760.23,578.30 763.19,577.82 766.15,577.33 769.11,576.85 772.07,575.10 775.02,573.13 777.99,571.16 780.95,569.18 783.90,566.52 786.87,563.34 789.83,560.15 792.78,556.98 795.75,553.55 798.71,549.55 801.66,545.54 804.63,541.54 807.59,537.54 810.54,533.01 813.51,528.47 816.47,523.94 819.42,519.41 822.39,514.67 825.34,509.84 828.30,505.02 831.27,500.19 834.22,495.40 837.18,490.66 840.15,485.92 843.10,481.18 846.06,476.53 849.03,472.45 851.98,468.37 854.94,464.29 857.91,460.20 860.86,457.12 863.82,454.20 866.79,451.28 869.74,448.36 872.70,446.26 875.67,444.77 878.62,443.29 881.58,441.81 884.54,440.77 887.50,440.87 890.46,440.96 893.42,441.05 896.38,441.15 899.33,442.78 902.30,444.42 905.26,446.06 908.21,447.69 911.18,449.95 914.14,452.47 917.09,454.98 920.06,457.50 923.02,459.79 925.97,461.78 928.94,463.77 931.90,465.76 934.85,467.46 937.82,467.40 940.78,467.34 943.73,467.28 946.70,467.22 949.66,464.63 952.61,461.61 955.58,458.59 958.53,455.57 961.49,450.83 964.46,444.80 967.41,438.78 970.37,432.75 973.34,426.07 976.29,417.74 979.25,409.41 982.22,401.08 985.17,392.75 988.13,383.38 991.10,374.02 994.05,364.65 997.01,355.29 999.98,346.24 1002.93,337.33 1005.89,328.41 1008.85,319.49 1011.81,311.31 1014.77,304.09 1017.73,296.87 1020.69,289.65 1023.65,282.77 1026.61,277.88 1029.57,272.98 1032.52,268.09 1035.49,263.21 1038.45,260.11 1041.40,257.31 1044.37,254.51 1047.33,251.72 1050.28,249.77 1053.25,248.47 1056.21,247.17 1059.16,245.86 1062.13,244.85 1065.09,244.50 1068.04,244.16 1071.01,243.83 1073.97,243.48" fill="none" stroke="#d62728" stroke-width="3"/>
<line x1="137" y1="128" x2="173" y2="128" stroke="#d62728" stroke-width="4"/>
<text x="183" y="133" font-family="Arial" font-size="18" fill="black">Uy</text>
<polyline points="186.03,206.26 188.99,205.35 191.95,204.42 194.91,203.50 197.87,202.59 200.83,201.93 203.79,201.38 206.75,200.82 209.71,200.27 212.67,200.80 215.63,202.78 218.59,204.76 221.55,206.74 224.51,209.03 227.47,213.21 230.43,217.38 233.39,221.56 236.35,225.73 239.31,231.20 242.27,236.88 245.23,242.56 248.19,248.24 251.15,254.43 254.11,260.99 257.07,267.55 260.03,274.12 262.99,280.84 265.95,287.95 268.91,295.07 271.87,302.17 274.83,309.29 277.79,316.71 280.75,324.13 283.71,331.55 286.67,338.97 289.63,346.38 292.59,353.78 295.55,361.17 298.51,368.57 301.47,375.80 304.42,382.81 307.39,389.82 310.34,396.83 313.30,403.73 316.27,410.01 319.22,416.28 322.18,422.55 325.15,428.83 328.10,434.37 331.06,439.80 334.03,445.23 336.98,450.65 339.94,455.73 342.91,460.56 345.86,465.38 348.82,470.20 351.79,474.97 354.74,479.63 357.70,484.29 360.67,488.94 363.62,493.60 366.58,498.49 369.54,503.39 372.50,508.29 375.46,513.18 378.42,518.34 381.38,523.61 384.33,528.87 387.30,534.14 390.26,539.47 393.21,544.90 396.18,550.32 399.14,555.74 402.09,561.11 405.06,566.17 408.02,571.23 410.97,576.30 413.94,581.36 416.90,585.44 419.85,589.36 422.82,593.27 425.78,597.19 428.73,599.97 431.70,601.90 434.66,603.84 437.61,605.77 440.58,606.99 443.53,606.47 446.49,605.94 449.46,605.41 452.41,604.89 455.37,602.10 458.34,599.29 461.29,596.49 464.25,593.69 467.22,589.78 470.17,585.44 473.13,581.08 476.10,576.72 479.05,572.05 482.01,566.94 484.98,561.84 487.93,556.74 490.89,551.63 493.85,546.47 496.81,541.30 499.77,536.14 502.73,530.98 505.69,526.22 508.65,521.55 511.61,516.87 514.57,512.19 517.52,508.02 520.49,504.24 523.45,500.46 526.40,496.68 529.37,493.24 532.33,490.66 535.28,488.08 538.25,485.50 541.21,482.92 544.16,481.74 547.13,480.56 550.09,479.38 553.04,478.20 556.01,478.11 558.97,478.45 561.92,478.78 564.89,479.12 567.84,480.12 570.80,482.00 573.77,483.88 576.72,485.76 579.68,487.84 582.65,491.14 585.60,494.44 588.56,497.73 591.53,501.03 594.48,505.17 597.44,509.46 600.41,513.74 603.36,518.02 606.32,522.43 609.29,526.91 612.24,531.40 615.20,535.89 618.17,540.16 621.12,543.91 624.08,547.66 627.04,551.40 630.00,555.14 632.96,557.23 635.92,559.31 638.88,561.38 641.83,563.47 644.80,563.93 647.76,563.75 650.71,563.55 653.68,563.37 656.64,562.17 659.59,559.60 662.56,557.05 665.52,554.48 668.47,551.63 671.44,547.00 674.40,542.36 677.35,537.73 680.32,533.10 683.28,527.14 686.23,520.96 689.20,514.78 692.16,508.60 695.11,501.86 698.08,494.68 701.03,487.51 703.99,480.33 706.96,473.01 709.91,465.30 712.87,457.59 715.84,449.88 718.79,442.16 721.75,434.29 724.72,426.43 727.67,418.56 730.63,410.69 733.60,402.92 736.55,395.19 739.51,387.46 742.48,379.72 745.43,372.32 748.39,365.34 751.35,358.37 754.31,351.40 757.27,344.67 760.23,339.40 763.19,334.14 766.15,328.88 769.11,323.62 772.07,320.49 775.02,317.73 777.99,314.96 780.95,312.19 783.90,311.16 786.87,311.40 789.83,311.65 792.78,311.91 795.75,312.96 798.71,316.01 801.66,319.07 804.63,322.12 807.59,325.17 810.54,329.93 813.51,334.69 816.47,339.44 819.42,344.20 822.39,349.34 825.34,354.63 828.30,359.93 831.27,365.22 834.22,370.37 837.18,375.32 840.15,380.26 843.10,385.21 846.06,390.02 849.03,393.96 851.98,397.91 854.94,401.85 857.91,405.80 860.86,408.37 863.82,410.71 866.79,413.04 869.74,415.38 872.70,416.50 875.67,416.71 878.62,416.93 881.58,417.14 884.54,416.87 887.50,415.39 890.46,413.92 893.42,412.44 896.38,410.97 899.33,409.85 902.30,408.72 905.26,407.60 908.21,406.48 911.18,407.22 914.14,408.71 917.09,410.20 920.06,411.68 923.02,414.48 925.97,419.03 928.94,423.57 931.90,428.11 934.85,432.93 937.82,439.33 940.78,445.73 943.73,452.13 946.70,458.53 949.66,465.36 952.61,472.26 955.58,479.16 958.53,486.06 961.49,492.67 964.46,499.07 967.41,505.47 970.37,511.87 973.34,517.93 976.29,523.18 979.25,528.43 982.22,533.68 985.17,538.93 988.13,542.80 991.10,546.68 994.05,550.56 997.01,554.43 999.98,557.48 1002.93,560.19 1005.89,562.91 1008.85,565.62 1011.81,568.11 1014.77,570.26 1017.73,572.43 1020.69,574.59 1023.65,576.82 1026.61,579.42 1029.57,582.00 1032.52,584.60 1035.49,587.19 1038.45,591.22 1041.40,595.50 1044.37,599.77 1047.33,604.05 1050.28,610.37 1053.25,618.23 1056.21,626.10 1059.16,633.95 1062.13,641.03 1065.09,646.16 1068.04,651.29 1071.01,656.42 1073.97,661.55" fill="none" stroke="#2ca02c" stroke-width="3"/>
<line x1="137" y1="156" x2="173" y2="156" stroke="#2ca02c" stroke-width="4"/>
<text x="183" y="161" font-family="Arial" font-size="18" fill="black">Uz</text>
<polyline points="186.03,168.81 188.99,168.62 191.95,168.41 194.91,168.21 197.87,168.02 200.83,168.32 203.79,168.83 206.75,169.34 209.71,169.85 212.67,171.11 215.63,173.38 218.59,175.66 221.55,177.94 224.51,180.40 227.47,184.00 230.43,187.61 233.39,191.21 236.35,194.82 239.31,199.05 242.27,203.40 245.23,207.74 248.19,212.09 251.15,216.60 254.11,221.22 257.07,225.86 260.03,230.48 262.99,235.13 265.95,239.86 268.91,244.57 271.87,249.30 274.83,254.01 277.79,258.74 280.75,263.45 283.71,268.16 286.67,272.88 289.63,277.50 292.59,282.09 295.55,286.69 298.51,291.28 301.47,295.77 304.42,300.11 307.39,304.46 310.34,308.80 313.30,313.09 316.27,317.01 319.22,320.94 322.18,324.86 325.15,328.78 328.10,331.89 331.06,334.85 334.03,337.82 336.98,340.79 339.94,342.62 342.91,343.59 345.86,344.57 348.82,345.54 351.79,345.72 354.74,343.94 357.70,342.16 360.67,340.37 363.62,338.59 366.58,334.53 369.54,330.46 372.50,326.40 375.46,322.34 378.42,317.44 381.38,312.21 384.33,306.98 387.30,301.75 390.26,296.41 393.21,290.92 396.18,285.44 399.14,279.96 402.09,274.54 405.06,269.50 408.02,264.47 410.97,259.44 413.94,254.41 416.90,250.42 419.85,246.59 422.82,242.77 425.78,238.94 428.73,236.24 431.70,234.39 434.66,232.54 437.61,230.68 440.58,229.52 443.53,230.06 446.49,230.60 449.46,231.14 452.41,231.68 455.37,234.36 458.34,237.04 461.29,239.71 464.25,242.39 467.22,246.02 470.17,250.03 473.13,254.04 476.10,258.05 479.05,262.24 482.01,266.66 484.98,271.08 487.93,275.50 490.89,279.86 493.85,283.90 496.81,287.93 499.77,291.96 502.73,295.99 505.69,299.21 508.65,302.30 511.61,305.38 514.57,308.46 517.52,310.87 520.49,312.76 523.45,314.66 526.40,316.56 529.37,318.17 532.33,319.04 535.28,319.91 538.25,320.79 541.21,321.66 544.16,321.90 547.13,322.14 550.09,322.38 553.04,322.61 556.01,322.63 558.97,322.56 561.92,322.49 564.89,322.42 567.84,322.22 570.80,321.86 573.77,321.49 576.72,321.13 579.68,320.68 582.65,319.69 585.60,318.70 588.56,317.71 591.53,316.73 594.48,314.85 597.44,312.83 600.41,310.81 603.36,308.78 606.32,306.19 609.29,303.16 612.24,300.13 615.20,297.09 618.17,293.96 621.12,290.58 624.08,287.19 627.04,283.79 630.00,280.40 632.96,277.60 635.92,274.81 638.88,272.01 641.83,269.21 644.80,267.35 647.76,265.85 650.71,264.37 653.68,262.87 656.64,261.99 659.59,261.92 662.56,261.86 665.52,261.80 668.47,261.89 671.44,262.86 674.40,263.84 677.35,264.80 680.32,265.78 683.28,267.03 686.23,268.34 689.20,269.65 692.16,270.95 695.11,272.00 698.08,272.87 701.03,273.73 703.99,274.61 706.96,275.17 709.91,274.98 712.87,274.77 715.84,274.58 718.79,274.39 721.75,272.83 724.72,271.27 727.67,269.71 730.63,268.15 733.60,265.72 736.55,262.94 739.51,260.16 742.48,257.37 745.43,254.38 748.39,251.09 751.35,247.80 754.31,244.51 757.27,241.33 760.23,238.78 763.19,236.22 766.15,233.67 769.11,231.11 772.07,230.02 775.02,229.18 777.99,228.36 780.95,227.53 783.90,227.99 786.87,229.45 789.83,230.91 792.78,232.36 795.75,234.49 798.71,238.28 801.66,242.07 804.63,245.85 807.59,249.63 810.54,255.15 813.51,260.66 816.47,266.17 819.42,271.68 822.39,277.83 825.34,284.22 828.30,290.63 831.27,297.02 834.22,303.37 837.18,309.65 840.15,315.94 843.10,322.22 846.06,328.33 849.03,333.35 851.98,338.38 854.94,343.41 857.91,348.44 860.86,351.74 863.82,354.75 866.79,357.77 869.74,360.78 872.70,362.65 875.67,363.65 878.62,364.66 881.58,365.66 884.54,366.04 887.50,364.85 890.46,363.65 893.42,362.46 896.38,361.27 899.33,357.80 902.30,354.34 905.26,350.87 908.21,347.40 911.18,343.05 914.14,338.35 917.09,333.65 920.06,328.95 923.02,324.10 925.97,319.05 928.94,314.00 931.90,308.95 934.85,303.93 937.82,299.10 940.78,294.27 943.73,289.44 946.70,284.61 949.66,280.28 952.61,276.05 955.58,271.81 958.53,267.57 961.49,263.64 964.46,259.94 967.41,256.23 970.37,252.53 973.34,248.88 976.29,245.34 979.25,241.82 982.22,238.29 985.17,234.75 988.13,231.10 991.10,227.43 994.05,223.77 997.01,220.11 999.98,216.45 1002.93,212.77 1005.89,209.10 1008.85,205.44 1011.81,201.94 1014.77,198.66 1017.73,195.38 1020.69,192.10 1023.65,188.87 1026.61,185.97 1029.57,183.08 1032.52,180.18 1035.49,177.27 1038.45,173.92 1041.40,170.50 1044.37,167.07 1047.33,163.64 1050.28,158.71 1053.25,152.65 1056.21,146.59 1059.16,140.53 1062.13,135.03 1065.09,130.88 1068.04,126.74 1071.01,122.59 1073.97,118.45" fill="none" stroke="#111111" stroke-width="3"/>
<line x1="137" y1="184" x2="173" y2="184" stroke="#111111" stroke-width="4"/>
<text x="183" y="189" font-family="Arial" font-size="18" fill="black">Umag</text>
</svg>