<svg xmlns="http://www.w3.org/2000/svg" width="1200" height="820" viewBox="0 0 1200 820">
<rect width="100%" height="100%" fill="white"/>
<text x="600.0" y="36" text-anchor="middle" font-family="Arial" font-size="24" fill="black">Ux profile along x-centerline</text>
<line x1="115.00" y1="75" x2="115.00" y2="705" stroke="#dddddd" stroke-width="1"/>
<text x="115.00" y="737" text-anchor="middle" font-family="Arial" font-size="16" fill="black">-0.560</text>
<line x1="372.50" y1="75" x2="372.50" y2="705" stroke="#dddddd" stroke-width="1"/>
<text x="372.50" y="737" text-anchor="middle" font-family="Arial" font-size="16" fill="black">1.470</text>
<line x1="630.00" y1="75" x2="630.00" y2="705" stroke="#dddddd" stroke-width="1"/>
<text x="630.00" y="737" text-anchor="middle" font-family="Arial" font-size="16" fill="black">3.500</text>
<line x1="887.50" y1="75" x2="887.50" y2="705" stroke="#dddddd" stroke-width="1"/>
<text x="887.50" y="737" text-anchor="middle" font-family="Arial" font-size="16" fill="black">5.530</text>
<line x1="1145.00" y1="75" x2="1145.00" y2="705" stroke="#dddddd" stroke-width="1"/>
<text x="1145.00" y="737" text-anchor="middle" font-family="Arial" font-size="16" fill="black">7.560</text>
<line x1="115" y1="705.00" x2="1145" y2="705.00" stroke="#dddddd" stroke-width="1"/>
<text x="99" y="710.00" text-anchor="end" font-family="Arial" font-size="16" fill="black">-0.224</text>
<line x1="115" y1="547.50" x2="1145" y2="547.50" stroke="#dddddd" stroke-width="1"/>
<text x="99" y="552.50" text-anchor="end" font-family="Arial" font-size="16" fill="black">-0.115</text>
<line x1="115" y1="390.00" x2="1145" y2="390.00" stroke="#dddddd" stroke-width="1"/>
<text x="99" y="395.00" text-anchor="end" font-family="Arial" font-size="16" fill="black">-0.006</text>
<line x1="115" y1="232.50" x2="1145" y2="232.50" stroke="#dddddd" stroke-width="1"/>
<text x="99" y="237.50" text-anchor="end" font-family="Arial" font-size="16" fill="black">0.102</text>
<line x1="115" y1="75.00" x2="1145" y2="75.00" stroke="#dddddd" stroke-width="1"/>
<text x="99" y="80.00" text-anchor="end" font-family="Arial" font-size="16" fill="black">0.211</text>
<rect x="115" y="75" width="1030" height="630" fill="none" stroke="black" stroke-width="2"/>
<text x="630.0" y="785" text-anchor="middle" font-family="Arial" font-size="20" fill="black">x coordinate [m]</text>
<text x="34" y="390.0" transform="rotate(-90 34 390.0)" text-anchor="middle" font-family="Arial" font-size="20" fill="black">Ux [m/s]</text>
<polyline points="186.03,397.80 188.99,399.97 191.95,402.14 194.91,404.31 197.87,406.48 200.83,410.16 203.79,414.44 206.75,418.71 209.71,422.99 212.67,426.84 215.63,430.12 218.59,433.39 221.55,436.66 224.51,439.75 227.47,441.74 230.43,443.73 233.39,445.71 236.35,447.70 239.31,449.23 242.27,450.69 245.23,452.14 248.19,453.60 251.15,455.00 254.11,456.35 257.07,457.70 260.03,459.06 262.99,460.51 265.95,462.22 268.91,463.93 271.87,465.63 274.83,467.34 277.79,469.72 280.75,472.10 283.71,474.48 286.67,476.86 289.63,479.75 292.59,482.84 295.55,485.92 298.51,489.01 301.47,492.27 304.42,495.73 307.39,499.20 310.34,502.67 313.30,506.12 316.27,509.42 319.22,512.72 322.18,516.02 325.15,519.33 328.10,522.05 331.06,524.68 334.03,527.31 336.98,529.94 339.94,532.01 342.91,533.68 345.86,535.33 348.82,537.00 351.79,538.36 354.74,539.00 357.70,539.63 360.67,540.29 363.62,540.92 366.58,540.60 369.54,540.29 372.50,539.98 375.46,539.66 378.42,538.72 381.38,537.52 384.33,536.31 387.30,535.11 390.26,533.53 393.21,531.44 396.18,529.36 399.14,527.27 402.09,525.05 405.06,522.04 408.02,519.02 410.97,516.01 413.94,513.00 416.90,509.15 419.85,505.17 422.82,501.18 425.78,497.20 428.73,492.66 431.70,487.70 434.66,482.74 437.61,477.78 440.58,472.56 443.53,466.68 446.49,460.80 449.46,454.92 452.41,449.04 455.37,442.31 458.34,435.58 461.29,428.85 464.25,422.12 467.22,414.88 470.17,407.44 473.13,399.99 476.10,392.55 479.05,384.91 482.01,377.03 484.98,369.14 487.93,361.25 490.89,353.35 493.85,345.35 496.81,337.34 499.77,329.34 502.73,321.34 505.69,313.46 508.65,305.59 511.61,297.73 514.57,289.87 517.52,282.23 520.49,274.75 523.45,267.28 526.40,259.80 529.37,252.50 532.33,245.65 535.28,238.79 538.25,231.95 541.21,225.09 544.16,219.04 547.13,212.99 550.09,206.94 553.04,200.90 556.01,195.50 558.97,190.37 561.92,185.24 564.89,180.11 567.84,175.39 570.80,171.20 573.77,167.01 576.72,162.82 579.68,158.76 582.65,155.47 585.60,152.18 588.56,148.89 591.53,145.60 594.48,142.99 597.44,140.51 600.41,138.02 603.36,135.52 606.32,133.44 609.29,131.65 612.24,129.87 615.20,128.09 618.17,126.48 621.12,125.32 624.08,124.14 627.04,122.97 630.00,121.80 632.96,121.17 635.92,120.54 638.88,119.90 641.83,119.26 644.80,118.96 647.76,118.78 650.71,118.62 653.68,118.45 656.64,118.45 659.59,118.68 662.56,118.90 665.52,119.13 668.47,119.42 671.44,120.01 674.40,120.62 677.35,121.23 680.32,121.83 683.28,122.81 686.23,123.85 689.20,124.88 692.16,125.93 695.11,127.28 698.08,128.87 701.03,130.46 703.99,132.04 706.96,133.84 709.91,136.12 712.87,138.39 715.84,140.67 718.79,142.95 721.75,145.97 724.72,148.99 727.67,152.02 730.63,155.05 733.60,158.57 736.55,162.31 739.51,166.05 742.48,169.78 745.43,173.78 748.39,178.11 751.35,182.46 754.31,186.79 757.27,191.20 760.23,195.98 763.19,200.75 766.15,205.54 769.11,210.30 772.07,215.28 775.02,220.29 777.99,225.31 780.95,230.32 783.90,235.37 786.87,240.45 789.83,245.52 792.78,250.60 795.75,255.66 798.71,260.69 801.66,265.71 804.63,270.74 807.59,275.77 810.54,280.80 813.51,285.83 816.47,290.86 819.42,295.89 822.39,301.10 825.34,306.40 828.30,311.69 831.27,316.99 834.22,322.56 837.18,328.50 840.15,334.44 843.10,340.39 846.06,346.47 849.03,353.43 851.98,360.40 854.94,367.36 857.91,374.32 860.86,382.36 863.82,390.58 866.79,398.80 869.74,407.02 872.70,415.89 875.67,425.26 878.62,434.63 881.58,443.99 884.54,453.53 887.50,463.51 890.46,473.48 893.42,483.46 896.38,493.44 899.33,503.29 902.30,513.14 905.26,522.99 908.21,532.83 911.18,542.10 914.14,551.13 917.09,560.17 920.06,569.20 923.02,577.65 925.97,585.37 928.94,593.06 931.90,600.76 934.85,608.22 937.82,614.25 940.78,620.30 943.73,626.33 946.70,632.37 949.66,636.81 952.61,641.00 955.58,645.19 958.53,649.38 961.49,652.43 964.46,654.67 967.41,656.88 970.37,659.12 973.34,660.77 976.29,660.96 979.25,661.16 982.22,661.35 985.17,661.55 988.13,659.64 991.10,657.74 994.05,655.83 997.01,653.93 999.98,650.45 1002.93,646.35 1005.89,642.24 1008.85,638.14 1011.81,633.05 1014.77,626.65 1017.73,620.24 1020.69,613.83 1023.65,607.06 1026.61,598.14 1029.57,589.19 1032.52,580.26 1035.49,571.32 1038.45,559.93 1041.40,548.11 1044.37,536.30 1047.33,524.49 1050.28,511.71 1053.25,498.21 1056.21,484.71 1059.16,471.21 1062.13,459.62 1065.09,452.79 1068.04,445.96 1071.01,439.14 1073.97,432.31" fill="none" stroke="#1f77b4" stroke-width="3"/>
<line x1="137" y1="100" x2="173" y2="100" stroke="#1f77b4" stroke-width="4"/>
<text x="183" y="105" font-family="Arial" font-size="18" fill="black">Ux</text>
</svg>