<svg xmlns="http://www.w3.org/2000/svg" width="1200" height="820" viewBox="0 0 1200 820">
<rect width="100%" height="100%" fill="white"/>
<text x="600.0" y="36" text-anchor="middle" font-family="Arial" font-size="24" fill="black">Umag profile along x-centerline</text>
<line x1="115.00" y1="75" x2="115.00" y2="705" stroke="#dddddd" stroke-width="1"/>
<text x="115.00" y="737" text-anchor="middle" font-family="Arial" font-size="16" fill="black">-0.560</text>
<line x1="372.50" y1="75" x2="372.50" y2="705" stroke="#dddddd" stroke-width="1"/>
<text x="372.50" y="737" text-anchor="middle" font-family="Arial" font-size="16" fill="black">1.470</text>
<line x1="630.00" y1="75" x2="630.00" y2="705" stroke="#dddddd" stroke-width="1"/>
<text x="630.00" y="737" text-anchor="middle" font-family="Arial" font-size="16" fill="black">3.500</text>
<line x1="887.50" y1="75" x2="887.50" y2="705" stroke="#dddddd" stroke-width="1"/>
<text x="887.50" y="737" text-anchor="middle" font-family="Arial" font-size="16" fill="black">5.530</text>
<line x1="1145.00" y1="75" x2="1145.00" y2="705" stroke="#dddddd" stroke-width="1"/>
<text x="1145.00" y="737" text-anchor="middle" font-family="Arial" font-size="16" fill="black">7.560</text>
<line x1="115" y1="705.00" x2="1145" y2="705.00" stroke="#dddddd" stroke-width="1"/>
<text x="99" y="710.00" text-anchor="end" font-family="Arial" font-size="16" fill="black">0.032</text>
<line x1="115" y1="547.50" x2="1145" y2="547.50" stroke="#dddddd" stroke-width="1"/>
<text x="99" y="552.50" text-anchor="end" font-family="Arial" font-size="16" fill="black">0.102</text>
<line x1="115" y1="390.00" x2="1145" y2="390.00" stroke="#dddddd" stroke-width="1"/>
<text x="99" y="395.00" text-anchor="end" font-family="Arial" font-size="16" fill="black">0.173</text>
<line x1="115" y1="232.50" x2="1145" y2="232.50" stroke="#dddddd" stroke-width="1"/>
<text x="99" y="237.50" text-anchor="end" font-family="Arial" font-size="16" fill="black">0.243</text>
<line x1="115" y1="75.00" x2="1145" y2="75.00" stroke="#dddddd" stroke-width="1"/>
<text x="99" y="80.00" text-anchor="end" font-family="Arial" font-size="16" fill="black">0.314</text>
<rect x="115" y="75" width="1030" height="630" fill="none" stroke="black" stroke-width="2"/>
<text x="630.0" y="785" text-anchor="middle" font-family="Arial" font-size="20" fill="black">x coordinate [m]</text>
<text x="34" y="390.0" transform="rotate(-90 34 390.0)" text-anchor="middle" font-family="Arial" font-size="20" fill="black">Umag [m/s]</text>
<polyline points="186.03,228.92 188.99,228.50 191.95,228.05 194.91,227.61 197.87,227.18 200.83,227.85 203.79,228.97 206.75,230.09 209.71,231.20 212.67,233.97 215.63,238.95 218.59,243.96 221.55,248.94 224.51,254.34 227.47,262.25 230.43,270.16 233.39,278.06 236.35,285.97 239.31,295.26 242.27,304.80 245.23,314.32 248.19,323.85 251.15,333.75 254.11,343.89 257.07,354.05 260.03,364.19 262.99,374.40 265.95,384.76 268.91,395.11 271.87,405.47 274.83,415.81 277.79,426.18 280.75,436.52 283.71,446.86 286.67,457.20 289.63,467.34 292.59,477.42 295.55,487.49 298.51,497.56 301.47,507.41 304.42,516.93 307.39,526.47 310.34,536.00 313.30,545.41 316.27,554.02 319.22,562.62 322.18,571.22 325.15,579.82 328.10,586.64 331.06,593.15 334.03,599.66 336.98,606.17 339.94,610.18 342.91,612.32 345.86,614.45 348.82,616.58 351.79,616.99 354.74,613.08 357.70,609.16 360.67,605.25 363.62,601.34 366.58,592.43 369.54,583.52 372.50,574.61 375.46,565.69 378.42,554.95 381.38,543.49 384.33,532.01 387.30,520.52 390.26,508.82 393.21,496.78 396.18,484.76 399.14,472.72 402.09,460.84 405.06,449.79 408.02,438.75 410.97,427.72 413.94,416.68 416.90,407.93 419.85,399.53 422.82,391.15 425.78,382.75 428.73,376.83 431.70,372.77 434.66,368.70 437.61,364.64 440.58,362.09 443.53,363.28 446.49,364.46 449.46,365.64 452.41,366.83 455.37,372.70 458.34,378.58 461.29,384.45 464.25,390.33 467.22,398.28 470.17,407.08 473.13,415.88 476.10,424.68 479.05,433.86 482.01,443.55 484.98,453.25 487.93,462.94 490.89,472.52 493.85,481.37 496.81,490.21 499.77,499.06 502.73,507.90 505.69,514.96 508.65,521.73 511.61,528.50 514.57,535.24 517.52,540.54 520.49,544.69 523.45,548.85 526.40,553.02 529.37,556.54 532.33,558.46 535.28,560.37 538.25,562.29 541.21,564.20 544.16,564.73 547.13,565.25 550.09,565.78 553.04,566.30 556.01,566.34 558.97,566.18 561.92,566.02 564.89,565.86 567.84,565.43 570.80,564.63 573.77,563.84 576.72,563.04 579.68,562.05 582.65,559.88 585.60,557.71 588.56,555.55 591.53,553.38 594.48,549.27 597.44,544.83 600.41,540.40 603.36,535.96 606.32,530.26 609.29,523.63 612.24,516.97 615.20,510.32 618.17,503.44 621.12,496.02 624.08,488.58 627.04,481.15 630.00,473.71 632.96,467.57 635.92,461.44 638.88,455.30 641.83,449.16 644.80,445.07 647.76,441.79 650.71,438.53 653.68,435.24 656.64,433.32 659.59,433.17 662.56,433.03 665.52,432.90 668.47,433.10 671.44,435.22 674.40,437.37 677.35,439.49 680.32,441.63 683.28,444.38 686.23,447.24 689.20,450.12 692.16,452.98 695.11,455.28 698.08,457.18 701.03,459.08 703.99,461.00 706.96,462.23 709.91,461.80 712.87,461.36 715.84,460.93 718.79,460.51 721.75,457.09 724.72,453.67 727.67,450.25 730.63,446.84 733.60,441.50 736.55,435.40 739.51,429.30 742.48,423.18 745.43,416.62 748.39,409.40 751.35,402.19 754.31,394.97 757.27,388.00 760.23,382.40 763.19,376.79 766.15,371.18 769.11,365.58 772.07,363.19 775.02,361.36 777.99,359.55 780.95,357.72 783.90,358.74 786.87,361.94 789.83,365.13 792.78,368.32 795.75,372.99 798.71,381.30 801.66,389.61 804.63,397.92 807.59,406.21 810.54,418.31 813.51,430.40 816.47,442.48 819.42,454.57 822.39,468.06 825.34,482.08 828.30,496.13 831.27,510.16 834.22,524.08 837.18,537.86 840.15,551.66 843.10,565.44 846.06,578.83 849.03,589.85 851.98,600.88 854.94,611.91 857.91,622.94 860.86,630.18 863.82,636.79 866.79,643.41 869.74,650.02 872.70,654.11 875.67,656.32 878.62,658.52 881.58,660.73 884.54,661.55 887.50,658.94 890.46,656.32 893.42,653.71 896.38,651.09 899.33,643.49 902.30,635.88 905.26,628.28 908.21,620.67 911.18,611.13 914.14,600.82 917.09,590.51 920.06,580.20 923.02,569.56 925.97,558.48 928.94,547.40 931.90,536.32 934.85,525.30 937.82,514.72 940.78,504.13 943.73,493.52 946.70,482.93 949.66,473.44 952.61,464.15 955.58,454.86 958.53,445.56 961.49,436.94 964.46,428.81 967.41,420.68 970.37,412.57 973.34,404.55 976.29,396.80 979.25,389.08 982.22,381.32 985.17,373.57 988.13,365.56 991.10,357.51 994.05,349.47 997.01,341.45 999.98,333.41 1002.93,325.35 1005.89,317.31 1008.85,309.27 1011.81,301.58 1014.77,294.39 1017.73,287.20 1020.69,280.01 1023.65,272.93 1026.61,266.56 1029.57,260.22 1032.52,253.85 1035.49,247.49 1038.45,240.14 1041.40,232.63 1044.37,225.10 1047.33,217.58 1050.28,206.77 1053.25,193.48 1056.21,180.19 1059.16,166.90 1062.13,154.81 1065.09,145.72 1068.04,136.63 1071.01,127.54 1073.97,118.45" fill="none" stroke="#111111" stroke-width="3"/>
<line x1="137" y1="100" x2="173" y2="100" stroke="#111111" stroke-width="4"/>
<text x="183" y="105" font-family="Arial" font-size="18" fill="black">Umag</text>
</svg>