<svg xmlns="http://www.w3.org/2000/svg" width="1200" height="820" viewBox="0 0 1200 820">
<rect width="100%" height="100%" fill="white"/>
<text x="600.0" y="36" text-anchor="middle" font-family="Arial" font-size="24" fill="black">Velocity components along y-centerline</text>
<line x1="115.00" y1="75" x2="115.00" y2="705" stroke="#dddddd" stroke-width="1"/>
<text x="115.00" y="737" text-anchor="middle" font-family="Arial" font-size="16" fill="black">-0.400</text>
<line x1="372.50" y1="75" x2="372.50" y2="705" stroke="#dddddd" stroke-width="1"/>
<text x="372.50" y="737" text-anchor="middle" font-family="Arial" font-size="16" fill="black">1.050</text>
<line x1="630.00" y1="75" x2="630.00" y2="705" stroke="#dddddd" stroke-width="1"/>
<text x="630.00" y="737" text-anchor="middle" font-family="Arial" font-size="16" fill="black">2.500</text>
<line x1="887.50" y1="75" x2="887.50" y2="705" stroke="#dddddd" stroke-width="1"/>
<text x="887.50" y="737" text-anchor="middle" font-family="Arial" font-size="16" fill="black">3.950</text>
<line x1="1145.00" y1="75" x2="1145.00" y2="705" stroke="#dddddd" stroke-width="1"/>
<text x="1145.00" y="737" text-anchor="middle" font-family="Arial" font-size="16" fill="black">5.400</text>
<line x1="115" y1="705.00" x2="1145" y2="705.00" stroke="#dddddd" stroke-width="1"/>
<text x="99" y="710.00" text-anchor="end" font-family="Arial" font-size="16" fill="black">-0.274</text>
<line x1="115" y1="547.50" x2="1145" y2="547.50" stroke="#dddddd" stroke-width="1"/>
<text x="99" y="552.50" text-anchor="end" font-family="Arial" font-size="16" fill="black">-0.079</text>
<line x1="115" y1="390.00" x2="1145" y2="390.00" stroke="#dddddd" stroke-width="1"/>
<text x="99" y="395.00" text-anchor="end" font-family="Arial" font-size="16" fill="black">0.116</text>
<line x1="115" y1="232.50" x2="1145" y2="232.50" stroke="#dddddd" stroke-width="1"/>
<text x="99" y="237.50" text-anchor="end" font-family="Arial" font-size="16" fill="black">0.311</text>
<line x1="115" y1="75.00" x2="1145" y2="75.00" stroke="#dddddd" stroke-width="1"/>
<text x="99" y="80.00" text-anchor="end" font-family="Arial" font-size="16" fill="black">0.507</text>
<rect x="115" y="75" width="1030" height="630" fill="none" stroke="black" stroke-width="2"/>
<text x="630.0" y="785" text-anchor="middle" font-family="Arial" font-size="20" fill="black">y coordinate [m]</text>
<text x="34" y="390.0" transform="rotate(-90 34 390.0)" text-anchor="middle" font-family="Arial" font-size="20" fill="black">velocity [m/s]</text>
<polyline points="186.03,616.94 188.99,613.27 191.95,609.60 194.91,605.93 197.87,602.25 200.83,598.58 203.79,594.91 206.75,587.57 209.71,580.22 212.67,572.88 215.63,565.54 218.59,558.20 221.55,550.86 224.51,543.52 227.47,536.19 230.43,528.85 233.39,521.52 236.35,514.18 239.31,506.85 242.27,499.69 245.23,492.54 248.19,485.38 251.15,478.23 254.11,471.07 257.07,463.92 260.03,457.20 262.99,450.48 265.95,443.76 268.91,437.04 271.87,430.32 274.83,423.60 277.79,417.34 280.75,411.09 283.71,404.84 286.67,398.58 289.63,392.33 292.59,386.07 295.55,380.22 298.51,374.37 301.47,368.52 304.43,362.67 307.38,356.82 310.34,350.96 313.31,345.54 316.26,340.11 319.22,334.69 322.18,329.25 325.14,323.83 328.10,318.41 331.06,313.52 334.02,308.65 336.98,303.77 339.94,298.89 342.90,294.01 345.86,289.13 348.82,285.02 351.78,280.89 354.74,276.78 357.70,272.66 360.66,268.54 363.62,264.42 366.59,261.30 369.53,258.17 372.50,255.05 375.47,251.93 378.41,248.80 381.38,245.68 384.35,243.72 387.29,241.76 390.26,239.80 393.22,237.85 396.17,235.89 399.14,233.94 402.10,233.22 405.05,232.51 408.02,231.80 410.98,231.09 413.93,230.38 416.90,229.66 419.86,230.20 422.81,230.75 425.78,231.29 428.74,231.83 431.69,232.37 434.66,232.91 437.62,234.63 440.57,236.35 443.53,238.08 446.50,239.80 449.45,241.51 452.41,243.23 455.38,245.97 458.33,248.71 461.29,251.44 464.26,254.18 467.21,256.91 470.17,259.65 473.14,263.21 476.09,266.78 479.05,270.34 482.02,273.90 484.97,277.47 487.93,281.03 490.90,285.29 493.84,289.55 496.81,293.81 499.78,298.08 502.72,302.34 505.69,306.60 508.66,311.51 511.60,316.41 514.57,321.32 517.53,326.22 520.48,331.13 523.45,336.03 526.41,341.47 529.36,346.92 532.33,352.36 535.29,357.81 538.24,363.26 541.21,368.70 544.17,374.31 547.12,379.92 550.09,385.52 553.05,391.13 556.00,396.74 558.97,402.34 561.93,407.46 564.88,412.58 567.84,417.70 570.81,422.82 573.76,427.94 576.72,433.06 579.69,437.09 582.64,441.12 585.60,445.15 588.57,449.19 591.52,453.22 594.48,457.25 597.45,459.92 600.40,462.58 603.36,465.25 606.33,467.92 609.28,470.58 612.24,473.25 615.21,474.55 618.15,475.85 621.12,477.15 624.09,478.45 627.03,479.75 630.00,481.05 632.97,481.09 635.91,481.12 638.88,481.16 641.84,481.19 644.79,481.22 647.76,481.26 650.72,480.20 653.67,479.14 656.64,478.09 659.60,477.03 662.55,475.97 665.52,474.91 668.48,473.27 671.43,471.64 674.40,470.00 677.36,468.36 680.31,466.72 683.28,465.08 686.24,463.84 689.19,462.59 692.16,461.35 695.12,460.11 698.07,458.87 701.03,457.62 704.00,457.62 706.95,457.62 709.91,457.62 712.88,457.62 715.83,457.62 718.79,457.62 721.76,459.11 724.71,460.60 727.67,462.09 730.64,463.58 733.59,465.07 736.55,466.57 739.52,469.11 742.47,471.66 745.43,474.21 748.40,476.76 751.34,479.31 754.31,481.86 757.28,484.50 760.22,487.14 763.19,489.79 766.16,492.43 769.10,495.07 772.07,497.71 775.03,499.62 777.98,501.53 780.95,503.43 783.91,505.34 786.86,507.25 789.83,509.15 792.79,510.09 795.74,511.03 798.71,511.96 801.67,512.90 804.62,513.84 807.59,514.78 810.55,515.02 813.50,515.26 816.47,515.51 819.43,515.75 822.38,516.00 825.34,516.24 828.31,516.21 831.26,516.18 834.22,516.15 837.19,516.12 840.14,516.09 843.10,516.06 846.07,516.09 849.02,516.13 851.98,516.16 854.95,516.19 857.90,516.22 860.86,516.26 863.83,516.56 866.78,516.86 869.74,517.16 872.71,517.46 875.66,517.77 878.62,518.07 881.59,518.75 884.53,519.43 887.50,520.11 890.47,520.79 893.41,521.47 896.38,522.15 899.34,523.24 902.29,524.33 905.26,525.42 908.22,526.51 911.17,527.60 914.14,528.69 917.10,530.16 920.05,531.62 923.02,533.08 925.98,534.55 928.93,536.01 931.90,537.47 934.86,539.21 937.81,540.95 940.78,542.69 943.74,544.43 946.69,546.17 949.66,547.91 952.62,549.76 955.57,551.61 958.53,553.46 961.50,555.31 964.45,557.16 967.41,559.01 970.38,560.72 973.33,562.43 976.29,564.14 979.26,565.85 982.21,567.57 985.17,569.28 988.14,570.55 991.09,571.82 994.05,573.09 997.02,574.35 999.97,575.62 1002.93,576.89 1005.90,577.40 1008.84,577.90 1011.81,578.41 1014.78,578.92 1017.72,579.43 1020.69,579.94 1023.66,579.37 1026.60,578.81 1029.57,578.24 1032.53,577.68 1035.48,577.11 1038.45,576.54 1041.41,574.52 1044.36,572.50 1047.33,570.49 1050.29,568.47 1053.24,566.45 1056.21,564.43 1059.17,563.01 1062.12,561.58 1065.09,560.15 1068.05,558.72 1071.00,557.30 1073.97,555.87" fill="none" stroke="#1f77b4" stroke-width="3"/>
<line x1="137" y1="100" x2="173" y2="100" stroke="#1f77b4" stroke-width="4"/>
<text x="183" y="105" font-family="Arial" font-size="18" fill="black">Ux</text>
<polyline points="186.03,472.76 188.99,472.83 191.95,472.90 194.91,472.98 197.87,473.05 200.83,473.13 203.79,473.20 206.75,473.96 209.71,474.73 212.67,475.49 215.63,476.25 218.59,477.02 221.55,477.78 224.51,479.53 227.47,481.29 230.43,483.04 233.39,484.79 236.35,486.54 239.31,488.30 242.27,490.39 245.23,492.48 248.19,494.58 251.15,496.67 254.11,498.77 257.07,500.86 260.03,502.61 262.99,504.36 265.95,506.11 268.91,507.86 271.87,509.61 274.83,511.36 277.79,512.32 280.75,513.28 283.71,514.25 286.67,515.21 289.63,516.18 292.59,517.14 295.55,517.12 298.51,517.09 301.47,517.06 304.43,517.03 307.38,517.01 310.34,516.98 313.31,515.97 316.26,514.96 319.22,513.95 322.18,512.95 325.14,511.94 328.10,510.93 331.06,509.16 334.02,507.39 336.98,505.62 339.94,503.85 342.90,502.08 345.86,500.31 348.82,498.15 351.78,496.00 354.74,493.84 357.70,491.68 360.66,489.52 363.62,487.36 366.59,485.27 369.53,483.18 372.50,481.08 375.47,478.99 378.41,476.89 381.38,474.80 384.35,473.11 387.29,471.42 390.26,469.73 393.22,468.04 396.17,466.35 399.14,464.66 402.10,463.52 405.05,462.38 408.02,461.25 410.98,460.11 413.93,458.97 416.90,457.83 419.86,457.25 422.81,456.66 425.78,456.08 428.74,455.49 431.69,454.91 434.66,454.32 437.62,454.22 440.57,454.12 443.53,454.02 446.50,453.92 449.45,453.81 452.41,453.71 455.38,454.05 458.33,454.38 461.29,454.72 464.26,455.06 467.21,455.39 470.17,455.73 473.14,456.45 476.09,457.17 479.05,457.89 482.02,458.61 484.97,459.33 487.93,460.05 490.90,461.09 493.84,462.12 496.81,463.15 499.78,464.18 502.72,465.21 505.69,466.24 508.66,467.49 511.60,468.73 514.57,469.98 517.53,471.22 520.48,472.47 523.45,473.71 526.41,475.00 529.36,476.29 532.33,477.58 535.29,478.87 538.24,480.16 541.21,481.45 544.17,482.45 547.12,483.44 550.09,484.44 553.05,485.43 556.00,486.42 558.97,487.42 561.93,487.94 564.88,488.47 567.84,489.00 570.81,489.52 573.76,490.05 576.72,490.57 579.69,490.83 582.64,491.09 585.60,491.35 588.57,491.61 591.52,491.86 594.48,492.12 597.45,492.41 600.40,492.70 603.36,492.99 606.33,493.27 609.28,493.56 612.24,493.85 615.21,494.38 618.15,494.90 621.12,495.42 624.09,495.95 627.03,496.47 630.00,497.00 632.97,497.85 635.91,498.70 638.88,499.55 641.84,500.40 644.79,501.25 647.76,502.10 650.72,503.36 653.67,504.62 656.64,505.88 659.60,507.14 662.55,508.40 665.52,509.66 668.48,511.49 671.43,513.32 674.40,515.15 677.36,516.99 680.31,518.82 683.28,520.65 686.24,523.16 689.19,525.67 692.16,528.19 695.12,530.70 698.07,533.21 701.03,535.73 704.00,538.61 706.95,541.49 709.91,544.38 712.88,547.26 715.83,550.15 718.79,553.03 721.76,555.95 724.71,558.86 727.67,561.78 730.64,564.69 733.59,567.61 736.55,570.52 739.52,573.46 742.47,576.40 745.43,579.34 748.40,582.28 751.34,585.22 754.31,588.16 757.28,591.16 760.22,594.18 763.19,597.18 766.16,600.19 769.10,603.19 772.07,606.20 775.03,609.22 777.98,612.25 780.95,615.26 783.91,618.29 786.86,621.31 789.83,624.34 792.79,627.10 795.74,629.87 798.71,632.63 801.67,635.39 804.62,638.16 807.59,640.92 810.55,643.03 813.50,645.13 816.47,647.23 819.43,649.33 822.38,651.44 825.34,653.54 828.31,654.70 831.26,655.86 834.22,657.02 837.19,658.18 840.14,659.34 843.10,660.50 846.07,660.67 849.02,660.85 851.98,661.03 854.95,661.20 857.90,661.37 860.86,661.55 863.83,660.89 866.78,660.23 869.74,659.56 872.71,658.90 875.66,658.23 878.62,657.57 881.59,656.29 884.53,655.01 887.50,653.72 890.47,652.44 893.41,651.16 896.38,649.87 899.34,648.15 902.29,646.42 905.26,644.69 908.22,642.96 911.17,641.24 914.14,639.51 917.10,637.41 920.05,635.31 923.02,633.21 925.98,631.12 928.93,629.03 931.90,626.93 934.86,624.49 937.81,622.05 940.78,619.61 943.74,617.17 946.69,614.73 949.66,612.29 952.62,609.54 955.57,606.80 958.53,604.05 961.50,601.29 964.45,598.55 967.41,595.80 970.38,592.79 973.33,589.77 976.29,586.75 979.26,583.73 982.21,580.72 985.17,577.70 988.14,574.47 991.09,571.25 994.05,568.02 997.02,564.79 999.97,561.56 1002.93,558.33 1005.90,554.99 1008.84,551.65 1011.81,548.30 1014.78,544.96 1017.72,541.62 1020.69,538.28 1023.66,534.92 1026.60,531.56 1029.57,528.20 1032.53,524.84 1035.48,521.48 1038.45,518.12 1041.41,515.17 1044.36,512.22 1047.33,509.26 1050.29,506.31 1053.24,503.36 1056.21,500.40 1059.17,499.12 1062.12,497.84 1065.09,496.56 1068.05,495.28 1071.00,494.01 1073.97,492.73" fill="none" stroke="#d62728" stroke-width="3"/>
<line x1="137" y1="128" x2="173" y2="128" stroke="#d62728" stroke-width="4"/>
<text x="183" y="133" font-family="Arial" font-size="18" fill="black">Uy</text>
<polyline points="186.03,464.78 188.99,464.32 191.95,463.85 194.91,463.38 197.87,462.92 200.83,462.45 203.79,461.98 206.75,460.65 209.71,459.31 212.67,457.97 215.63,456.63 218.59,455.30 221.55,453.96 224.51,452.00 227.47,450.05 230.43,448.09 233.39,446.14 236.35,444.19 239.31,442.23 242.27,439.85 245.23,437.46 248.19,435.08 251.15,432.69 254.11,430.31 257.07,427.92 260.03,425.05 262.99,422.18 265.95,419.31 268.91,416.44 271.87,413.57 274.83,410.70 277.79,407.23 280.75,403.77 283.71,400.30 286.67,396.83 289.63,393.37 292.59,389.91 295.55,385.77 298.51,381.63 301.47,377.49 304.43,373.35 307.38,369.21 310.34,365.07 313.31,360.25 316.26,355.44 319.22,350.62 322.18,345.80 325.14,340.98 328.10,336.16 331.06,330.73 334.02,325.30 336.98,319.88 339.94,314.44 342.90,309.02 345.86,303.59 348.82,297.91 351.78,292.23 354.74,286.56 357.70,280.88 360.66,275.20 363.62,269.53 366.59,265.53 369.53,261.54 372.50,257.54 375.47,253.56 378.41,249.56 381.38,245.57 384.35,244.80 387.29,244.02 390.26,243.25 393.22,242.48 396.17,241.71 399.14,240.94 402.10,242.88 405.05,244.81 408.02,246.74 410.98,248.68 413.93,250.62 416.90,252.56 419.86,256.39 422.81,260.21 425.78,264.05 428.74,267.88 431.69,271.72 434.66,275.54 437.62,280.54 440.57,285.53 443.53,290.51 446.50,295.50 449.45,300.50 452.41,305.48 455.38,311.05 458.33,316.61 461.29,322.18 464.26,327.75 467.21,333.31 470.17,338.88 473.14,344.69 476.09,350.50 479.05,356.31 482.02,362.11 484.97,367.92 487.93,373.72 490.90,379.75 493.84,385.76 496.81,391.78 499.78,397.79 502.72,403.81 505.69,409.83 508.66,416.30 511.60,422.76 514.57,429.23 517.53,435.69 520.48,442.16 523.45,448.63 526.41,455.64 529.36,462.66 532.33,469.68 535.29,476.70 538.24,483.71 541.21,490.73 544.17,497.23 547.12,503.74 550.09,510.24 553.05,516.74 556.00,523.24 558.97,529.74 561.93,534.68 564.88,539.62 567.84,544.55 570.81,549.49 573.76,554.42 576.72,559.36 579.69,562.71 582.64,566.06 585.60,569.41 588.57,572.77 591.52,576.12 594.48,579.47 597.45,581.30 600.40,583.14 603.36,584.97 606.33,586.81 609.28,588.64 612.24,590.48 615.21,590.79 618.15,591.09 621.12,591.40 624.09,591.71 627.03,592.01 630.00,592.32 632.97,590.94 635.91,589.55 638.88,588.16 641.84,586.77 644.79,585.39 647.76,584.01 650.72,580.59 653.67,577.18 656.64,573.76 659.60,570.35 662.55,566.94 665.52,563.52 668.48,557.69 671.43,551.85 674.40,546.01 677.36,540.18 680.31,534.34 683.28,528.51 686.24,520.09 689.19,511.68 692.16,503.26 695.12,494.85 698.07,486.43 701.03,478.02 704.00,467.74 706.95,457.47 709.91,447.19 712.88,436.92 715.83,426.65 718.79,416.37 721.76,405.77 724.71,395.16 727.67,384.56 730.64,373.96 733.59,363.35 736.55,352.75 739.52,342.75 742.47,332.75 745.43,322.75 748.40,312.75 751.34,302.75 754.31,292.75 757.28,283.71 760.22,274.67 763.19,265.63 766.16,256.58 769.10,247.54 772.07,238.50 775.03,231.22 777.98,223.94 780.95,216.66 783.91,209.38 786.86,202.10 789.83,194.81 792.79,190.34 795.74,185.86 798.71,181.38 801.67,176.91 804.62,172.43 807.59,167.95 810.55,166.94 813.50,165.92 816.47,164.90 819.43,163.89 822.38,162.87 825.34,161.86 828.31,164.21 831.26,166.57 834.22,168.92 837.19,171.27 840.14,173.63 843.10,175.98 846.07,181.00 849.02,186.02 851.98,191.03 854.95,196.05 857.90,201.07 860.86,206.09 863.83,212.73 866.78,219.36 869.74,226.00 872.71,232.64 875.66,239.28 878.62,245.91 881.59,252.90 884.53,259.89 887.50,266.88 890.47,273.87 893.41,280.86 896.38,287.85 899.34,293.69 902.29,299.54 905.26,305.40 908.22,311.24 911.17,317.09 914.14,322.93 917.10,326.93 920.05,330.92 923.02,334.90 925.98,338.89 928.93,342.88 931.90,346.87 934.86,349.21 937.81,351.56 940.78,353.91 943.74,356.25 946.69,358.60 949.66,360.95 952.62,361.84 955.57,362.75 958.53,363.65 961.50,364.56 964.45,365.46 967.41,366.36 970.38,365.94 973.33,365.53 976.29,365.11 979.26,364.70 982.21,364.28 985.17,363.87 988.14,362.30 991.09,360.73 994.05,359.16 997.02,357.59 999.97,356.02 1002.93,354.45 1005.90,352.05 1008.84,349.64 1011.81,347.24 1014.78,344.82 1017.72,342.42 1020.69,340.01 1023.66,337.29 1026.60,334.57 1029.57,331.85 1032.53,329.13 1035.48,326.40 1038.45,323.68 1041.41,321.36 1044.36,319.03 1047.33,316.70 1050.29,314.37 1053.24,312.05 1056.21,309.71 1059.17,308.75 1062.12,307.79 1065.09,306.82 1068.05,305.85 1071.00,304.89 1073.97,303.92" fill="none" stroke="#2ca02c" stroke-width="3"/>
<line x1="137" y1="156" x2="173" y2="156" stroke="#2ca02c" stroke-width="4"/>
<text x="183" y="161" font-family="Arial" font-size="18" fill="black">Uz</text>
<polyline points="186.03,348.95 188.99,352.48 191.95,356.02 194.91,359.55 197.87,363.10 200.83,366.63 203.79,370.17 206.75,376.85 209.71,383.52 212.67,390.20 215.63,396.87 218.59,403.55 221.55,410.23 224.51,414.54 227.47,418.85 230.43,423.16 233.39,427.47 236.35,431.78 239.31,436.10 242.27,433.76 245.23,431.43 248.19,429.09 251.15,426.76 254.11,424.42 257.07,422.09 260.03,415.93 262.99,409.78 265.95,403.63 268.91,397.48 271.87,391.32 274.83,385.17 277.79,378.34 280.75,371.52 283.71,364.69 286.67,357.87 289.63,351.05 292.59,344.23 295.55,337.28 298.51,330.34 301.47,323.39 304.43,316.45 307.38,309.51 310.34,302.57 313.31,295.54 316.26,288.52 319.22,281.50 322.18,274.47 325.14,267.45 328.10,260.42 331.06,253.35 334.02,246.28 336.98,239.21 339.94,232.14 342.90,225.07 345.86,218.00 348.82,211.18 351.78,204.36 354.74,197.54 357.70,190.72 360.66,183.91 363.62,177.09 366.59,172.05 369.53,167.00 372.50,161.96 375.47,156.91 378.41,151.87 381.38,146.83 384.35,144.82 387.29,142.81 390.26,140.81 393.22,138.81 396.17,136.81 399.14,134.80 402.10,135.53 405.05,136.27 408.02,137.00 410.98,137.73 413.93,138.46 416.90,139.19 419.86,142.06 422.81,144.92 425.78,147.79 428.74,150.65 431.69,153.52 434.66,156.38 437.62,160.79 440.57,165.20 443.53,169.60 446.50,174.01 449.45,178.42 452.41,182.81 455.38,188.25 458.33,193.67 461.29,199.10 464.26,204.53 467.21,209.96 470.17,215.38 473.14,221.46 476.09,227.54 479.05,233.61 482.02,239.69 484.97,245.77 487.93,251.84 490.90,258.36 493.84,264.88 496.81,271.40 499.78,277.92 502.72,284.44 505.69,290.96 508.66,297.73 511.60,304.49 514.57,311.26 517.53,318.02 520.48,324.79 523.45,331.55 526.41,337.70 529.36,343.86 532.33,350.01 535.29,356.16 538.24,362.31 541.21,368.47 544.17,372.09 547.12,375.73 550.09,379.36 553.05,382.98 556.00,386.61 558.97,390.25 561.93,390.63 564.88,391.03 567.84,391.42 570.81,391.81 573.76,392.21 576.72,392.60 579.69,391.21 582.64,389.82 585.60,388.43 588.57,387.04 591.52,385.65 594.48,384.26 597.45,382.93 600.40,381.59 603.36,380.25 606.33,378.91 609.28,377.57 612.24,376.24 615.21,375.96 618.15,375.68 621.12,375.40 624.09,375.12 627.03,374.84 630.00,374.56 632.97,375.80 635.91,377.04 638.88,378.28 641.84,379.53 644.79,380.78 647.76,382.02 650.72,384.95 653.67,387.89 656.64,390.83 659.60,393.77 662.55,396.70 665.52,399.63 668.48,403.53 671.43,407.43 674.40,411.33 677.36,415.23 680.31,419.12 683.28,423.02 686.24,423.43 689.19,423.83 692.16,424.23 695.12,424.63 698.07,425.03 701.03,425.43 704.00,418.48 706.95,411.53 709.91,404.57 712.88,397.62 715.83,390.67 718.79,383.72 721.76,374.06 724.71,364.39 727.67,354.73 730.64,345.06 733.59,335.40 736.55,325.74 739.52,315.81 742.47,305.87 745.43,295.94 748.40,286.00 751.34,276.07 754.31,266.13 757.28,256.66 760.22,247.20 763.19,237.74 766.16,228.27 769.10,218.80 772.07,209.34 775.03,201.36 777.98,193.39 780.95,185.41 783.91,177.44 786.86,169.46 789.83,161.48 792.79,156.19 795.74,150.89 798.71,145.59 801.67,140.30 804.62,135.00 807.59,129.71 810.55,127.83 813.50,125.95 816.47,124.07 819.43,122.20 822.38,120.32 825.34,118.45 828.31,119.94 831.26,121.44 834.22,122.94 837.19,124.45 840.14,125.95 843.10,127.45 846.07,131.63 849.02,135.80 851.98,139.98 854.95,144.16 857.90,148.34 860.86,152.52 863.83,158.31 866.78,164.11 869.74,169.89 872.71,175.69 875.66,181.47 878.62,187.27 881.59,193.41 884.53,199.56 887.50,205.71 890.47,211.85 893.41,218.00 896.38,224.15 899.34,229.38 902.29,234.61 905.26,239.84 908.22,245.07 911.17,250.30 914.14,255.53 917.10,259.38 920.05,263.23 923.02,267.08 925.98,270.94 928.93,274.79 931.90,278.65 934.86,281.35 937.81,284.06 940.78,286.77 943.74,289.48 946.69,292.18 949.66,294.90 952.62,296.58 955.57,298.27 958.53,299.95 961.50,301.64 964.45,303.32 967.41,305.01 970.38,305.71 973.33,306.40 976.29,307.11 979.26,307.81 982.21,308.50 985.17,309.21 988.14,309.00 991.09,308.79 994.05,308.57 997.02,308.36 999.97,308.15 1002.93,307.93 1005.90,307.03 1008.84,306.13 1011.81,305.23 1014.78,304.32 1017.72,303.42 1020.69,302.51 1023.66,301.37 1026.60,300.23 1029.57,299.08 1032.53,297.94 1035.48,296.80 1038.45,295.65 1041.41,294.92 1044.36,294.19 1047.33,293.46 1050.29,292.72 1053.24,292.00 1056.21,291.26 1059.17,291.03 1062.12,290.79 1065.09,290.55 1068.05,290.31 1071.00,290.08 1073.97,289.84" fill="none" stroke="#111111" stroke-width="3"/>
<line x1="137" y1="184" x2="173" y2="184" stroke="#111111" stroke-width="4"/>
<text x="183" y="189" font-family="Arial" font-size="18" fill="black">Umag</text>
</svg>