<svg xmlns="http://www.w3.org/2000/svg" width="1200" height="820" viewBox="0 0 1200 820">
<rect width="100%" height="100%" fill="white"/>
<text x="600.0" y="36" text-anchor="middle" font-family="Arial" font-size="24" fill="black">Umag profile along y-centerline</text>
<line x1="115.00" y1="75" x2="115.00" y2="705" stroke="#dddddd" stroke-width="1"/>
<text x="115.00" y="737" text-anchor="middle" font-family="Arial" font-size="16" fill="black">-0.400</text>
<line x1="372.50" y1="75" x2="372.50" y2="705" stroke="#dddddd" stroke-width="1"/>
<text x="372.50" y="737" text-anchor="middle" font-family="Arial" font-size="16" fill="black">1.050</text>
<line x1="630.00" y1="75" x2="630.00" y2="705" stroke="#dddddd" stroke-width="1"/>
<text x="630.00" y="737" text-anchor="middle" font-family="Arial" font-size="16" fill="black">2.500</text>
<line x1="887.50" y1="75" x2="887.50" y2="705" stroke="#dddddd" stroke-width="1"/>
<text x="887.50" y="737" text-anchor="middle" font-family="Arial" font-size="16" fill="black">3.950</text>
<line x1="1145.00" y1="75" x2="1145.00" y2="705" stroke="#dddddd" stroke-width="1"/>
<text x="1145.00" y="737" text-anchor="middle" font-family="Arial" font-size="16" fill="black">5.400</text>
<line x1="115" y1="705.00" x2="1145" y2="705.00" stroke="#dddddd" stroke-width="1"/>
<text x="99" y="710.00" text-anchor="end" font-family="Arial" font-size="16" fill="black">0.091</text>
<line x1="115" y1="547.50" x2="1145" y2="547.50" stroke="#dddddd" stroke-width="1"/>
<text x="99" y="552.50" text-anchor="end" font-family="Arial" font-size="16" fill="black">0.211</text>
<line x1="115" y1="390.00" x2="1145" y2="390.00" stroke="#dddddd" stroke-width="1"/>
<text x="99" y="395.00" text-anchor="end" font-family="Arial" font-size="16" fill="black">0.331</text>
<line x1="115" y1="232.50" x2="1145" y2="232.50" stroke="#dddddd" stroke-width="1"/>
<text x="99" y="237.50" text-anchor="end" font-family="Arial" font-size="16" fill="black">0.451</text>
<line x1="115" y1="75.00" x2="1145" y2="75.00" stroke="#dddddd" stroke-width="1"/>
<text x="99" y="80.00" text-anchor="end" font-family="Arial" font-size="16" fill="black">0.571</text>
<rect x="115" y="75" width="1030" height="630" fill="none" stroke="black" stroke-width="2"/>
<text x="630.0" y="785" text-anchor="middle" font-family="Arial" font-size="20" fill="black">y coordinate [m]</text>
<text x="34" y="390.0" transform="rotate(-90 34 390.0)" text-anchor="middle" font-family="Arial" font-size="20" fill="black">Umag [m/s]</text>
<polyline points="186.03,399.86 188.99,400.49 191.95,401.13 194.91,401.76 197.87,402.40 200.83,403.04 203.79,403.67 206.75,404.75 209.71,405.82 212.67,406.88 215.63,407.96 218.59,409.03 221.55,410.11 224.51,410.97 227.47,411.84 230.43,412.72 233.39,413.58 236.35,414.46 239.31,415.33 242.27,416.35 245.23,417.37 248.19,418.39 251.15,419.42 254.11,420.44 257.07,421.46 260.03,423.13 262.99,424.80 265.95,426.48 268.91,428.15 271.87,429.82 274.83,431.49 277.79,434.07 280.75,436.65 283.71,439.22 286.67,441.81 289.63,444.39 292.59,446.97 295.55,450.54 298.51,454.10 301.47,457.67 304.43,461.23 307.38,464.80 310.34,468.37 313.31,472.65 316.26,476.94 319.22,481.23 322.18,485.51 325.14,489.80 328.10,494.08 331.06,497.72 334.02,501.35 336.98,504.97 339.94,508.60 342.90,512.23 345.86,515.85 348.82,514.30 351.78,512.75 354.74,511.19 357.70,509.65 360.66,508.10 363.62,506.54 366.59,494.96 369.53,483.40 372.50,471.83 375.47,460.25 378.41,448.68 381.38,437.10 384.35,419.84 387.29,402.56 390.26,385.29 393.22,368.02 396.17,350.75 399.14,333.49 402.10,317.23 405.05,300.98 408.02,284.72 410.98,268.47 413.93,252.21 416.90,235.96 419.86,224.22 422.81,212.50 425.78,200.77 428.74,189.05 431.69,177.32 434.66,165.60 437.62,159.15 440.57,152.70 443.53,146.25 446.50,139.82 449.45,133.37 452.41,126.92 455.38,125.51 458.33,124.10 461.29,122.68 464.26,121.28 467.21,119.86 470.17,118.45 473.14,122.09 476.09,125.72 479.05,129.37 482.02,133.00 484.97,136.63 487.93,140.27 490.90,149.58 493.84,158.88 496.81,168.18 499.78,177.49 502.72,186.79 505.69,196.09 508.66,211.47 511.60,226.85 514.57,242.22 517.53,257.60 520.48,272.98 523.45,288.35 526.41,308.24 529.36,328.13 532.33,348.01 535.29,367.90 538.24,387.78 541.21,407.67 544.17,426.86 547.12,446.05 550.09,465.25 553.05,484.44 556.00,503.63 558.97,522.82 561.93,536.51 564.88,550.19 567.84,563.88 570.81,577.58 573.76,591.26 576.72,604.95 579.69,612.20 582.64,619.43 585.60,626.68 588.57,633.93 591.52,641.18 594.48,648.43 597.45,650.62 600.40,652.79 603.36,654.98 606.33,657.17 609.28,659.36 612.24,661.55 615.21,660.80 618.15,660.07 621.12,659.32 624.09,658.58 627.03,657.84 630.00,657.09 632.97,654.54 635.91,651.98 638.88,649.41 641.84,646.86 644.79,644.29 647.76,641.73 650.72,637.34 653.67,632.95 656.64,628.56 659.60,624.18 662.55,619.79 665.52,615.40 668.48,608.81 671.43,602.23 674.40,595.64 677.36,589.06 680.31,582.48 683.28,575.90 686.24,567.15 689.19,558.41 692.16,549.68 695.12,540.94 698.07,532.19 701.03,523.46 704.00,513.70 706.95,503.93 709.91,494.16 712.88,484.40 715.83,474.63 718.79,464.87 721.76,456.74 724.71,448.61 727.67,440.47 730.64,432.34 733.59,424.21 736.55,416.09 739.52,412.01 742.47,407.95 745.43,403.87 748.40,399.81 751.34,395.73 754.31,391.66 757.28,392.23 760.22,392.81 763.19,393.38 766.16,393.96 769.10,394.54 772.07,395.10 775.03,399.70 777.98,404.29 780.95,408.88 783.91,413.48 786.86,418.07 789.83,422.65 792.79,430.09 795.74,437.52 798.71,444.95 801.67,452.37 804.62,459.81 807.59,467.24 810.55,476.17 813.50,485.11 816.47,494.03 819.43,502.97 822.38,511.90 825.34,520.84 828.31,529.89 831.26,538.94 834.22,548.00 837.19,557.06 840.14,566.11 843.10,575.16 846.07,582.58 849.02,589.99 851.98,597.41 854.95,604.83 857.90,612.24 860.86,619.66 863.83,622.85 866.78,626.07 869.74,629.26 872.71,632.46 875.66,635.67 878.62,638.87 881.59,635.78 884.53,632.69 887.50,629.58 890.47,626.49 893.41,623.39 896.38,620.28 899.34,612.47 902.29,604.65 905.26,596.82 908.22,588.99 911.17,581.17 914.14,573.34 917.10,564.05 920.05,554.74 923.02,545.43 925.98,536.14 928.93,526.83 931.90,517.52 934.86,508.49 937.81,499.45 940.78,490.40 943.74,481.37 946.69,472.32 949.66,463.28 952.62,455.18 955.57,447.06 958.53,438.96 961.50,430.86 964.45,422.75 967.41,414.64 970.38,407.71 973.33,400.79 976.29,393.85 979.26,386.92 982.21,380.00 985.17,373.06 988.14,367.40 991.09,361.74 994.05,356.07 997.02,350.40 999.97,344.73 1002.93,339.07 1005.90,334.68 1008.84,330.29 1011.81,325.90 1014.78,321.51 1017.72,317.11 1020.69,312.71 1023.66,309.66 1026.60,306.59 1029.57,303.52 1032.53,300.47 1035.48,297.40 1038.45,294.33 1041.41,293.51 1044.36,292.67 1047.33,291.83 1050.29,290.99 1053.24,290.16 1056.21,289.32 1059.17,289.62 1062.12,289.91 1065.09,290.21 1068.05,290.52 1071.00,290.82 1073.97,291.11" fill="none" stroke="#111111" stroke-width="3"/>
<line x1="137" y1="100" x2="173" y2="100" stroke="#111111" stroke-width="4"/>
<text x="183" y="105" font-family="Arial" font-size="18" fill="black">Umag</text>
</svg>