<svg xmlns="http://www.w3.org/2000/svg" width="1200" height="820" viewBox="0 0 1200 820">
<rect width="100%" height="100%" fill="white"/>
<text x="600.0" y="36" text-anchor="middle" font-family="Arial" font-size="24" fill="black">Ux profile along x-centerline</text>
<line x1="115.00" y1="75" x2="115.00" y2="705" stroke="#dddddd" stroke-width="1"/>
<text x="115.00" y="737" text-anchor="middle" font-family="Arial" font-size="16" fill="black">-0.560</text>
<line x1="372.50" y1="75" x2="372.50" y2="705" stroke="#dddddd" stroke-width="1"/>
<text x="372.50" y="737" text-anchor="middle" font-family="Arial" font-size="16" fill="black">1.470</text>
<line x1="630.00" y1="75" x2="630.00" y2="705" stroke="#dddddd" stroke-width="1"/>
<text x="630.00" y="737" text-anchor="middle" font-family="Arial" font-size="16" fill="black">3.500</text>
<line x1="887.50" y1="75" x2="887.50" y2="705" stroke="#dddddd" stroke-width="1"/>
<text x="887.50" y="737" text-anchor="middle" font-family="Arial" font-size="16" fill="black">5.530</text>
<line x1="1145.00" y1="75" x2="1145.00" y2="705" stroke="#dddddd" stroke-width="1"/>
<text x="1145.00" y="737" text-anchor="middle" font-family="Arial" font-size="16" fill="black">7.560</text>
<line x1="115" y1="705.00" x2="1145" y2="705.00" stroke="#dddddd" stroke-width="1"/>
<text x="99" y="710.00" text-anchor="end" font-family="Arial" font-size="16" fill="black">-0.134</text>
<line x1="115" y1="547.50" x2="1145" y2="547.50" stroke="#dddddd" stroke-width="1"/>
<text x="99" y="552.50" text-anchor="end" font-family="Arial" font-size="16" fill="black">-0.045</text>
<line x1="115" y1="390.00" x2="1145" y2="390.00" stroke="#dddddd" stroke-width="1"/>
<text x="99" y="395.00" text-anchor="end" font-family="Arial" font-size="16" fill="black">0.043</text>
<line x1="115" y1="232.50" x2="1145" y2="232.50" stroke="#dddddd" stroke-width="1"/>
<text x="99" y="237.50" text-anchor="end" font-family="Arial" font-size="16" fill="black">0.132</text>
<line x1="115" y1="75.00" x2="1145" y2="75.00" stroke="#dddddd" stroke-width="1"/>
<text x="99" y="80.00" text-anchor="end" font-family="Arial" font-size="16" fill="black">0.221</text>
<rect x="115" y="75" width="1030" height="630" fill="none" stroke="black" stroke-width="2"/>
<text x="630.0" y="785" text-anchor="middle" font-family="Arial" font-size="20" fill="black">x coordinate [m]</text>
<text x="34" y="390.0" transform="rotate(-90 34 390.0)" text-anchor="middle" font-family="Arial" font-size="20" fill="black">Ux [m/s]</text>
<polyline points="186.03,473.88 188.99,474.57 191.95,475.26 194.91,475.95 197.87,476.64 200.83,477.79 203.79,479.14 206.75,480.48 209.71,481.82 212.67,482.90 215.63,483.62 218.59,484.35 221.55,485.07 224.51,485.57 227.47,484.68 230.43,483.80 233.39,482.92 236.35,482.04 239.31,478.92 242.27,475.44 245.23,471.95 248.19,468.46 251.15,463.26 254.11,456.79 257.07,450.32 260.03,443.85 262.99,436.79 265.95,428.29 268.91,419.78 271.87,411.28 274.83,402.78 277.79,393.50 280.75,384.23 283.71,374.95 286.67,365.68 289.63,356.31 292.59,346.89 295.55,337.48 298.51,328.06 301.47,318.71 304.42,309.43 307.39,300.16 310.34,290.88 313.30,281.67 316.27,272.81 319.22,263.95 322.18,255.09 325.15,246.23 328.10,237.87 331.06,229.57 334.03,221.28 336.98,212.99 339.94,205.00 342.91,197.25 345.86,189.49 348.82,181.75 351.79,174.31 354.74,167.65 357.70,161.01 360.67,154.35 363.62,147.71 366.58,143.08 369.54,138.43 372.50,133.79 375.46,129.16 378.42,126.26 381.38,124.04 384.33,121.82 387.30,119.62 390.26,118.45 393.21,118.66 396.18,118.87 399.14,119.09 402.09,119.60 405.06,121.96 408.02,124.31 410.97,126.65 413.94,129.00 416.90,132.69 419.85,136.60 422.82,140.50 425.78,144.41 428.73,148.83 431.70,153.61 434.66,158.40 437.61,163.20 440.58,168.06 443.53,173.12 446.49,178.18 449.46,183.26 452.41,188.32 455.37,193.28 458.34,198.23 461.29,203.17 464.25,208.12 467.22,212.86 470.17,217.53 473.13,222.19 476.10,226.84 479.05,231.33 482.01,235.63 484.98,239.93 487.93,244.20 490.89,248.45 493.85,252.30 496.81,256.17 499.77,260.03 502.73,263.90 505.69,267.27 508.65,270.59 511.61,273.89 514.57,277.20 517.52,280.09 520.49,282.65 523.45,285.22 526.40,287.80 529.37,290.11 532.33,291.78 535.28,293.45 538.25,295.12 541.21,296.79 544.16,297.51 547.13,298.23 550.09,298.94 553.04,299.66 556.01,299.80 558.97,299.72 561.92,299.64 564.89,299.56 567.84,299.30 570.80,298.81 573.77,298.32 576.72,297.83 579.68,297.36 582.65,297.01 585.60,296.66 588.56,296.31 591.53,295.96 594.48,296.19 597.44,296.53 600.41,296.86 603.36,297.19 606.32,298.12 609.29,299.49 612.24,300.87 615.20,302.25 618.17,303.96 621.12,306.52 624.08,309.08 627.04,311.63 630.00,314.19 632.96,317.91 635.92,321.62 638.88,325.34 641.83,329.05 644.80,333.52 647.76,338.30 650.71,343.07 653.68,347.85 656.64,353.02 659.59,358.73 662.56,364.43 665.52,370.14 668.47,375.96 671.44,382.42 674.40,388.89 677.35,395.36 680.32,401.82 683.28,408.74 686.23,415.74 689.20,422.74 692.16,429.74 695.11,436.89 698.08,444.15 701.03,451.41 703.99,458.68 706.96,465.93 709.91,473.18 712.87,480.43 715.84,487.69 718.79,494.94 721.75,501.96 724.72,508.98 727.67,516.00 730.63,523.02 733.60,529.75 736.55,536.35 739.51,542.96 742.48,549.57 745.43,555.92 748.39,561.94 751.35,567.95 754.31,573.96 757.27,579.88 760.23,585.18 763.19,590.48 766.15,595.78 769.11,601.09 772.07,605.72 775.02,610.24 777.99,614.77 780.95,619.29 783.90,623.34 786.87,627.04 789.83,630.74 792.78,634.44 795.75,637.89 798.71,640.72 801.66,643.55 804.63,646.37 807.59,649.21 810.54,651.11 813.51,653.01 816.47,654.93 819.42,656.83 822.39,658.05 825.34,658.99 828.30,659.95 831.27,660.89 834.22,661.45 837.18,661.48 840.15,661.52 843.10,661.55 846.06,661.48 849.03,660.77 851.98,660.06 854.94,659.33 857.91,658.62 860.86,657.52 863.82,656.37 866.79,655.21 869.74,654.06 872.70,652.89 875.67,651.70 878.62,650.49 881.58,649.30 884.54,648.15 887.50,647.13 890.46,646.12 893.42,645.11 896.38,644.09 899.33,643.20 902.30,642.31 905.26,641.42 908.21,640.53 911.18,639.61 914.14,638.69 917.09,637.76 920.06,636.84 923.02,635.84 925.97,634.75 928.94,633.65 931.90,632.56 934.85,631.43 937.82,630.10 940.78,628.77 943.73,627.44 946.70,626.11 949.66,624.52 952.61,622.90 955.58,621.27 958.53,619.65 961.49,617.78 964.46,615.72 967.41,613.66 970.37,611.61 973.34,609.37 976.29,606.66 979.25,603.96 982.22,601.25 985.17,598.55 988.13,595.03 991.10,591.51 994.05,587.99 997.01,584.46 999.98,580.38 1002.93,576.08 1005.89,571.77 1008.85,567.47 1011.81,563.00 1014.77,558.30 1017.73,553.60 1020.69,548.90 1023.65,544.24 1026.61,539.82 1029.57,535.39 1032.52,530.97 1035.49,526.55 1038.45,522.75 1041.40,519.05 1044.37,515.35 1047.33,511.66 1050.28,507.99 1053.25,504.34 1056.21,500.69 1059.16,497.04 1062.13,493.86 1065.09,491.86 1068.04,489.85 1071.01,487.85 1073.97,485.85" fill="none" stroke="#1f77b4" stroke-width="3"/>
<line x1="137" y1="100" x2="173" y2="100" stroke="#1f77b4" stroke-width="4"/>
<text x="183" y="105" font-family="Arial" font-size="18" fill="black">Ux</text>
</svg>