<svg xmlns="http://www.w3.org/2000/svg" width="1200" height="820" viewBox="0 0 1200 820">
<rect width="100%" height="100%" fill="white"/>
<text x="600.0" y="36" text-anchor="middle" font-family="Arial" font-size="24" fill="black">Uz profile along z-centerline</text>
<line x1="115.00" y1="75" x2="115.00" y2="705" stroke="#dddddd" stroke-width="1"/>
<text x="115.00" y="737" text-anchor="middle" font-family="Arial" font-size="16" fill="black">-0.240</text>
<line x1="372.50" y1="75" x2="372.50" y2="705" stroke="#dddddd" stroke-width="1"/>
<text x="372.50" y="737" text-anchor="middle" font-family="Arial" font-size="16" fill="black">0.630</text>
<line x1="630.00" y1="75" x2="630.00" y2="705" stroke="#dddddd" stroke-width="1"/>
<text x="630.00" y="737" text-anchor="middle" font-family="Arial" font-size="16" fill="black">1.500</text>
<line x1="887.50" y1="75" x2="887.50" y2="705" stroke="#dddddd" stroke-width="1"/>
<text x="887.50" y="737" text-anchor="middle" font-family="Arial" font-size="16" fill="black">2.370</text>
<line x1="1145.00" y1="75" x2="1145.00" y2="705" stroke="#dddddd" stroke-width="1"/>
<text x="1145.00" y="737" text-anchor="middle" font-family="Arial" font-size="16" fill="black">3.240</text>
<line x1="115" y1="705.00" x2="1145" y2="705.00" stroke="#dddddd" stroke-width="1"/>
<text x="99" y="710.00" text-anchor="end" font-family="Arial" font-size="16" fill="black">-0.106</text>
<line x1="115" y1="547.50" x2="1145" y2="547.50" stroke="#dddddd" stroke-width="1"/>
<text x="99" y="552.50" text-anchor="end" font-family="Arial" font-size="16" fill="black">0.051</text>
<line x1="115" y1="390.00" x2="1145" y2="390.00" stroke="#dddddd" stroke-width="1"/>
<text x="99" y="395.00" text-anchor="end" font-family="Arial" font-size="16" fill="black">0.209</text>
<line x1="115" y1="232.50" x2="1145" y2="232.50" stroke="#dddddd" stroke-width="1"/>
<text x="99" y="237.50" text-anchor="end" font-family="Arial" font-size="16" fill="black">0.367</text>
<line x1="115" y1="75.00" x2="1145" y2="75.00" stroke="#dddddd" stroke-width="1"/>
<text x="99" y="80.00" text-anchor="end" font-family="Arial" font-size="16" fill="black">0.525</text>
<rect x="115" y="75" width="1030" height="630" fill="none" stroke="black" stroke-width="2"/>
<text x="630.0" y="785" text-anchor="middle" font-family="Arial" font-size="20" fill="black">z coordinate [m]</text>
<text x="34" y="390.0" transform="rotate(-90 34 390.0)" text-anchor="middle" font-family="Arial" font-size="20" fill="black">Uz [m/s]</text>
<polyline points="186.03,118.45 188.99,121.57 191.95,124.71 194.91,127.83 197.87,130.96 200.83,134.10 203.79,137.22 206.75,140.36 209.71,143.48 212.67,146.61 215.63,149.74 218.59,157.87 221.55,166.01 224.51,174.14 227.47,182.27 230.43,190.40 233.39,198.53 236.35,206.67 239.31,214.80 242.27,222.94 245.23,231.07 248.19,242.26 251.15,253.46 254.11,264.66 257.07,275.84 260.03,287.04 262.99,298.24 265.95,309.44 268.91,320.63 271.87,331.83 274.83,343.02 277.79,356.77 280.75,370.51 283.71,384.24 286.67,397.99 289.63,411.73 292.59,425.47 295.55,439.22 298.51,452.96 301.47,466.70 304.43,480.44 307.39,492.70 310.34,504.95 313.30,517.20 316.26,529.45 319.22,541.71 322.18,553.96 325.14,566.21 328.10,578.46 331.06,590.72 334.02,602.97 336.98,608.38 339.94,613.79 342.90,619.21 345.86,624.62 348.82,630.03 351.78,635.45 354.74,640.86 357.70,646.27 360.66,651.68 363.62,657.10 366.58,657.54 369.54,657.99 372.50,658.43 375.46,658.88 378.42,659.33 381.38,659.77 384.34,660.22 387.30,660.66 390.26,661.11 393.22,661.55 396.18,660.25 399.14,658.95 402.10,657.64 405.06,656.34 408.02,655.04 410.98,653.74 413.94,652.43 416.90,651.13 419.86,649.83 422.82,648.52 425.78,646.21 428.74,643.90 431.70,641.58 434.66,639.27 437.61,636.96 440.57,634.64 443.53,632.33 446.49,630.02 449.45,627.70 452.41,625.39 455.37,622.83 458.33,620.28 461.29,617.72 464.25,615.17 467.21,612.61 470.17,610.06 473.13,607.50 476.09,604.95 479.05,602.39 482.01,599.84 484.97,597.41 487.93,594.98 490.89,592.55 493.85,590.13 496.81,587.70 499.77,585.27 502.73,582.84 505.69,580.41 508.65,577.99 511.61,575.56 514.57,573.43 517.53,571.30 520.49,569.17 523.45,567.03 526.41,564.90 529.37,562.77 532.33,560.64 535.29,558.51 538.25,556.38 541.21,554.25 544.17,552.45 547.13,550.66 550.09,548.87 553.05,547.07 556.01,545.28 558.97,543.49 561.93,541.69 564.89,539.90 567.84,538.11 570.80,536.31 573.76,534.85 576.72,533.38 579.68,531.92 582.64,530.46 585.60,528.99 588.56,527.53 591.52,526.06 594.48,524.60 597.44,523.13 600.40,521.67 603.36,520.48 606.32,519.30 609.28,518.11 612.24,516.92 615.20,515.74 618.16,514.55 621.12,513.37 624.08,512.18 627.04,511.00 630.00,509.81 632.96,508.83 635.92,507.85 638.88,506.86 641.84,505.88 644.80,504.90 647.76,503.92 650.72,502.94 653.68,501.95 656.64,500.97 659.60,499.99 662.56,499.13 665.52,498.27 668.48,497.43 671.44,496.57 674.40,495.71 677.36,494.85 680.32,494.00 683.28,493.14 686.24,492.29 689.20,491.44 692.16,490.65 695.11,489.86 698.07,489.07 701.03,488.28 703.99,487.50 706.95,486.71 709.91,485.92 712.87,485.13 715.83,484.34 718.79,483.55 721.75,482.80 724.71,482.05 727.67,481.30 730.63,480.55 733.59,479.79 736.55,479.04 739.51,478.29 742.47,477.53 745.43,476.79 748.39,476.04 751.35,475.33 754.31,474.61 757.27,473.90 760.23,473.19 763.19,472.48 766.15,471.78 769.11,471.07 772.07,470.36 775.03,469.65 777.99,468.94 780.95,468.31 783.91,467.68 786.87,467.06 789.83,466.44 792.79,465.81 795.75,465.19 798.71,464.56 801.67,463.93 804.63,463.30 807.59,462.68 810.55,462.21 813.51,461.73 816.47,461.27 819.43,460.80 822.39,460.33 825.34,459.85 828.30,459.38 831.26,458.91 834.22,458.44 837.18,457.97 840.14,457.73 843.10,457.50 846.06,457.27 849.02,457.04 851.98,456.80 854.94,456.57 857.90,456.35 860.86,456.12 863.82,455.88 866.78,455.65 869.74,455.74 872.70,455.83 875.66,455.92 878.62,456.01 881.58,456.09 884.54,456.18 887.50,456.27 890.46,456.36 893.42,456.45 896.38,456.53 899.34,457.00 902.30,457.48 905.26,457.95 908.22,458.43 911.18,458.90 914.14,459.38 917.10,459.85 920.06,460.32 923.02,460.80 925.98,461.27 928.94,462.19 931.90,463.11 934.86,464.03 937.82,464.96 940.78,465.88 943.74,466.80 946.70,467.71 949.66,468.64 952.61,469.56 955.57,470.48 958.53,471.89 961.49,473.28 964.45,474.69 967.41,476.09 970.37,477.49 973.33,478.89 976.29,480.30 979.25,481.70 982.21,483.10 985.17,484.50 988.13,486.89 991.09,489.26 994.05,491.65 997.01,494.02 999.97,496.40 1002.93,498.78 1005.89,501.16 1008.85,503.54 1011.81,505.92 1014.77,508.30 1017.73,510.86 1020.69,513.43 1023.65,515.99 1026.61,518.55 1029.57,521.12 1032.53,523.68 1035.49,526.25 1038.45,528.81 1041.41,531.37 1044.37,533.94 1047.33,534.94 1050.29,535.95 1053.25,536.95 1056.21,537.96 1059.17,538.96 1062.13,539.97 1065.09,540.97 1068.05,541.98 1071.01,542.99 1073.97,543.99" fill="none" stroke="#2ca02c" stroke-width="3"/>
<line x1="137" y1="100" x2="173" y2="100" stroke="#2ca02c" stroke-width="4"/>
<text x="183" y="105" font-family="Arial" font-size="18" fill="black">Uz</text>
</svg>