<svg xmlns="http://www.w3.org/2000/svg" width="1200" height="820" viewBox="0 0 1200 820">
<rect width="100%" height="100%" fill="white"/>
<text x="600.0" y="36" text-anchor="middle" font-family="Arial" font-size="24" fill="black">Velocity components along y-centerline</text>
<line x1="115.00" y1="75" x2="115.00" y2="705" stroke="#dddddd" stroke-width="1"/>
<text x="115.00" y="737" text-anchor="middle" font-family="Arial" font-size="16" fill="black">-0.400</text>
<line x1="372.50" y1="75" x2="372.50" y2="705" stroke="#dddddd" stroke-width="1"/>
<text x="372.50" y="737" text-anchor="middle" font-family="Arial" font-size="16" fill="black">1.050</text>
<line x1="630.00" y1="75" x2="630.00" y2="705" stroke="#dddddd" stroke-width="1"/>
<text x="630.00" y="737" text-anchor="middle" font-family="Arial" font-size="16" fill="black">2.500</text>
<line x1="887.50" y1="75" x2="887.50" y2="705" stroke="#dddddd" stroke-width="1"/>
<text x="887.50" y="737" text-anchor="middle" font-family="Arial" font-size="16" fill="black">3.950</text>
<line x1="1145.00" y1="75" x2="1145.00" y2="705" stroke="#dddddd" stroke-width="1"/>
<text x="1145.00" y="737" text-anchor="middle" font-family="Arial" font-size="16" fill="black">5.400</text>
<line x1="115" y1="705.00" x2="1145" y2="705.00" stroke="#dddddd" stroke-width="1"/>
<text x="99" y="710.00" text-anchor="end" font-family="Arial" font-size="16" fill="black">-0.479</text>
<line x1="115" y1="547.50" x2="1145" y2="547.50" stroke="#dddddd" stroke-width="1"/>
<text x="99" y="552.50" text-anchor="end" font-family="Arial" font-size="16" fill="black">-0.206</text>
<line x1="115" y1="390.00" x2="1145" y2="390.00" stroke="#dddddd" stroke-width="1"/>
<text x="99" y="395.00" text-anchor="end" font-family="Arial" font-size="16" fill="black">0.067</text>
<line x1="115" y1="232.50" x2="1145" y2="232.50" stroke="#dddddd" stroke-width="1"/>
<text x="99" y="237.50" text-anchor="end" font-family="Arial" font-size="16" fill="black">0.340</text>
<line x1="115" y1="75.00" x2="1145" y2="75.00" stroke="#dddddd" stroke-width="1"/>
<text x="99" y="80.00" text-anchor="end" font-family="Arial" font-size="16" fill="black">0.613</text>
<rect x="115" y="75" width="1030" height="630" fill="none" stroke="black" stroke-width="2"/>
<text x="630.0" y="785" text-anchor="middle" font-family="Arial" font-size="20" fill="black">y coordinate [m]</text>
<text x="34" y="390.0" transform="rotate(-90 34 390.0)" text-anchor="middle" font-family="Arial" font-size="20" fill="black">velocity [m/s]</text>
<polyline points="186.03,466.08 188.99,464.98 191.95,463.87 194.91,462.76 197.87,461.65 200.83,460.54 203.79,459.44 206.75,456.72 209.71,454.01 212.67,451.29 215.63,448.57 218.59,445.86 221.55,443.14 224.51,439.78 227.47,436.42 230.43,433.06 233.39,429.69 236.35,426.33 239.31,422.97 242.27,419.61 245.23,416.26 248.19,412.90 251.15,409.54 254.11,406.19 257.07,402.83 260.03,399.90 262.99,396.97 265.95,394.03 268.91,391.10 271.87,388.17 274.83,385.23 277.79,382.89 280.75,380.55 283.71,378.21 286.67,375.87 289.63,373.53 292.59,371.19 295.55,369.50 298.51,367.81 301.47,366.12 304.43,364.44 307.38,362.75 310.34,361.06 313.31,360.05 316.26,359.04 319.22,358.03 322.18,357.01 325.14,356.00 328.10,354.99 331.06,354.77 334.02,354.54 336.98,354.31 339.94,354.09 342.90,353.86 345.86,353.64 348.82,354.57 351.78,355.50 354.74,356.42 357.70,357.35 360.66,358.28 363.62,359.20 366.59,361.74 369.53,364.28 372.50,366.82 375.47,369.35 378.41,371.90 381.38,374.43 384.35,378.58 387.29,382.72 390.26,386.87 393.22,391.01 396.17,395.16 399.14,399.30 402.10,404.38 405.05,409.45 408.02,414.53 410.98,419.60 413.93,424.68 416.90,429.75 419.86,434.74 422.81,439.73 425.78,444.72 428.74,449.71 431.69,454.70 434.66,459.69 437.62,463.72 440.57,467.76 443.53,471.79 446.50,475.82 449.45,479.86 452.41,483.89 455.38,486.40 458.33,488.92 461.29,491.43 464.26,493.95 467.21,496.46 470.17,498.98 473.14,499.57 476.09,500.16 479.05,500.75 482.02,501.34 484.97,501.93 487.93,502.52 490.90,501.02 493.84,499.51 496.81,498.01 499.78,496.50 502.72,495.00 505.69,493.50 508.66,490.23 511.60,486.96 514.57,483.70 517.53,480.43 520.48,477.16 523.45,473.89 526.41,469.74 529.36,465.60 532.33,461.45 535.29,457.30 538.24,453.15 541.21,449.00 544.17,445.01 547.12,441.01 550.09,437.02 553.05,433.02 556.00,429.03 558.97,425.03 561.93,421.85 564.88,418.67 567.84,415.49 570.81,412.31 573.76,409.13 576.72,405.94 579.69,403.72 582.64,401.49 585.60,399.27 588.57,397.04 591.52,394.82 594.48,392.60 597.45,391.17 600.40,389.75 603.36,388.33 606.33,386.90 609.28,385.48 612.24,384.06 615.21,383.23 618.15,382.40 621.12,381.58 624.09,380.75 627.03,379.93 630.00,379.10 632.97,378.72 635.91,378.34 638.88,377.96 641.84,377.58 644.79,377.20 647.76,376.81 650.72,376.78 653.67,376.75 656.64,376.71 659.60,376.68 662.55,376.64 665.52,376.61 668.48,376.83 671.43,377.05 674.40,377.28 677.36,377.50 680.31,377.72 683.28,377.94 686.24,378.28 689.19,378.62 692.16,378.95 695.12,379.29 698.07,379.63 701.03,379.96 704.00,380.21 706.95,380.46 709.91,380.71 712.88,380.96 715.83,381.21 718.79,381.46 721.76,381.43 724.71,381.41 727.67,381.38 730.64,381.36 733.59,381.34 736.55,381.31 739.52,380.96 742.47,380.61 745.43,380.26 748.40,379.90 751.34,379.55 754.31,379.20 757.28,378.61 760.22,378.03 763.19,377.44 766.16,376.85 769.10,376.27 772.07,375.68 775.03,375.00 777.98,374.32 780.95,373.65 783.91,372.97 786.86,372.29 789.83,371.62 792.79,370.98 795.74,370.33 798.71,369.69 801.67,369.04 804.62,368.40 807.59,367.76 810.55,367.24 813.50,366.72 816.47,366.20 819.43,365.67 822.38,365.15 825.34,364.64 828.31,364.32 831.26,363.99 834.22,363.68 837.19,363.36 840.14,363.04 843.10,362.72 846.07,362.67 849.02,362.62 851.98,362.57 854.95,362.52 857.90,362.48 860.86,362.43 863.83,362.71 866.78,363.00 869.74,363.29 872.71,363.57 875.66,363.86 878.62,364.14 881.59,364.81 884.53,365.48 887.50,366.15 890.47,366.81 893.41,367.47 896.38,368.14 899.34,369.19 902.29,370.24 905.26,371.30 908.22,372.35 911.17,373.40 914.14,374.45 917.10,375.84 920.05,377.24 923.02,378.63 925.98,380.02 928.93,381.42 931.90,382.81 934.86,384.47 937.81,386.12 940.78,387.77 943.74,389.43 946.69,391.08 949.66,392.74 952.62,394.55 955.57,396.37 958.53,398.19 961.50,400.01 964.45,401.82 967.41,403.64 970.38,405.53 973.33,407.43 976.29,409.32 979.26,411.21 982.21,413.11 985.17,415.00 988.14,416.91 991.09,418.81 994.05,420.72 997.02,422.63 999.97,424.53 1002.93,426.44 1005.90,428.33 1008.84,430.23 1011.81,432.12 1014.78,434.01 1017.72,435.90 1020.69,437.80 1023.66,439.71 1026.60,441.62 1029.57,443.53 1032.53,445.44 1035.48,447.35 1038.45,449.26 1041.41,451.36 1044.36,453.46 1047.33,455.56 1050.29,457.67 1053.24,459.77 1056.21,461.87 1059.17,463.00 1062.12,464.13 1065.09,465.26 1068.05,466.39 1071.00,467.52 1073.97,468.66" fill="none" stroke="#1f77b4" stroke-width="3"/>
<line x1="137" y1="100" x2="173" y2="100" stroke="#1f77b4" stroke-width="4"/>
<text x="183" y="105" font-family="Arial" font-size="18" fill="black">Ux</text>
<polyline points="186.03,420.88 188.99,419.75 191.95,418.62 194.91,417.50 197.87,416.37 200.83,415.24 203.79,414.12 206.75,411.66 209.71,409.21 212.67,406.76 215.63,404.31 218.59,401.86 221.55,399.41 224.51,396.74 227.47,394.07 230.43,391.40 233.39,388.73 236.35,386.07 239.31,383.40 242.27,380.81 245.23,378.21 248.19,375.62 251.15,373.03 254.11,370.44 257.07,367.85 260.03,365.50 262.99,363.15 265.95,360.80 268.91,358.46 271.87,356.11 274.83,353.76 277.79,351.72 280.75,349.69 283.71,347.66 286.67,345.63 289.63,343.59 292.59,341.56 295.55,339.88 298.51,338.21 301.47,336.53 304.43,334.85 307.38,333.18 310.34,331.50 313.31,330.19 316.26,328.89 319.22,327.58 322.18,326.28 325.14,324.97 328.10,323.67 331.06,322.74 334.02,321.82 336.98,320.89 339.94,319.96 342.90,319.03 345.86,318.11 348.82,317.64 351.78,317.18 354.74,316.71 357.70,316.25 360.66,315.79 363.62,315.32 366.59,315.52 369.53,315.73 372.50,315.93 375.47,316.13 378.41,316.34 381.38,316.54 384.35,317.54 387.29,318.54 390.26,319.54 393.22,320.53 396.17,321.54 399.14,322.54 402.10,324.26 405.05,325.97 408.02,327.69 410.98,329.41 413.93,331.13 416.90,332.85 419.86,335.06 422.81,337.27 425.78,339.48 428.74,341.70 431.69,343.91 434.66,346.12 437.62,348.57 440.57,351.03 443.53,353.48 446.50,355.93 449.45,358.39 452.41,360.84 455.38,363.34 458.33,365.84 461.29,368.34 464.26,370.84 467.21,373.35 470.17,375.85 473.14,378.22 476.09,380.60 479.05,382.98 482.02,385.36 484.97,387.74 487.93,390.11 490.90,392.22 493.84,394.33 496.81,396.44 499.78,398.54 502.72,400.65 505.69,402.76 508.66,404.56 511.60,406.36 514.57,408.17 517.53,409.97 520.48,411.77 523.45,413.58 526.41,415.09 529.36,416.60 532.33,418.11 535.29,419.61 538.24,421.12 541.21,422.63 544.17,423.81 547.12,424.99 550.09,426.17 553.05,427.35 556.00,428.53 558.97,429.71 561.93,430.60 564.88,431.49 567.84,432.38 570.81,433.27 573.76,434.16 576.72,435.05 579.69,435.74 582.64,436.43 585.60,437.11 588.57,437.80 591.52,438.49 594.48,439.18 597.45,439.71 600.40,440.24 603.36,440.77 606.33,441.30 609.28,441.83 612.24,442.36 615.21,442.75 618.15,443.14 621.12,443.53 624.09,443.92 627.03,444.31 630.00,444.70 632.97,444.93 635.91,445.15 638.88,445.38 641.84,445.61 644.79,445.84 647.76,446.07 650.72,446.08 653.67,446.09 656.64,446.11 659.60,446.12 662.55,446.14 665.52,446.15 668.48,445.87 671.43,445.59 674.40,445.31 677.36,445.03 680.31,444.76 683.28,444.48 686.24,443.83 689.19,443.18 692.16,442.53 695.12,441.88 698.07,441.23 701.03,440.59 704.00,439.55 706.95,438.52 709.91,437.48 712.88,436.45 715.83,435.41 718.79,434.38 721.76,433.02 724.71,431.67 727.67,430.32 730.64,428.96 733.59,427.61 736.55,426.25 739.52,424.73 742.47,423.21 745.43,421.69 748.40,420.16 751.34,418.64 754.31,417.12 757.28,415.57 760.22,414.02 763.19,412.48 766.16,410.93 769.10,409.38 772.07,407.84 775.03,406.37 777.98,404.90 780.95,403.43 783.91,401.96 786.86,400.49 789.83,399.02 792.79,397.74 795.74,396.46 798.71,395.17 801.67,393.89 804.62,392.61 807.59,391.33 810.55,390.32 813.50,389.31 816.47,388.30 819.43,387.29 822.38,386.28 825.34,385.27 828.31,384.59 831.26,383.92 834.22,383.25 837.19,382.57 840.14,381.90 843.10,381.22 846.07,380.92 849.02,380.61 851.98,380.30 854.95,379.99 857.90,379.68 860.86,379.37 863.83,379.44 866.78,379.51 869.74,379.59 872.71,379.66 875.66,379.73 878.62,379.80 881.59,380.21 884.53,380.61 887.50,381.02 890.47,381.42 893.41,381.83 896.38,382.23 899.34,382.86 902.29,383.49 905.26,384.11 908.22,384.74 911.17,385.37 914.14,385.99 917.10,386.73 920.05,387.47 923.02,388.21 925.98,388.94 928.93,389.68 931.90,390.42 934.86,391.18 937.81,391.94 940.78,392.71 943.74,393.47 946.69,394.24 949.66,395.00 952.62,395.75 955.57,396.51 958.53,397.26 961.50,398.02 964.45,398.77 967.41,399.53 970.38,400.27 973.33,401.01 976.29,401.75 979.26,402.49 982.21,403.22 985.17,403.96 988.14,404.70 991.09,405.44 994.05,406.17 997.02,406.91 999.97,407.65 1002.93,408.38 1005.90,409.14 1008.84,409.89 1011.81,410.64 1014.78,411.39 1017.72,412.14 1020.69,412.89 1023.66,413.71 1026.60,414.53 1029.57,415.34 1032.53,416.16 1035.48,416.98 1038.45,417.80 1041.41,418.57 1044.36,419.34 1047.33,420.11 1050.29,420.88 1053.24,421.65 1056.21,422.42 1059.17,422.75 1062.12,423.09 1065.09,423.42 1068.05,423.75 1071.00,424.08 1073.97,424.42" fill="none" stroke="#d62728" stroke-width="3"/>
<line x1="137" y1="128" x2="173" y2="128" stroke="#d62728" stroke-width="4"/>
<text x="183" y="133" font-family="Arial" font-size="18" fill="black">Uy</text>
<polyline points="186.03,611.40 188.99,611.25 191.95,611.10 194.91,610.95 197.87,610.80 200.83,610.65 203.79,610.50 206.75,610.06 209.71,609.62 212.67,609.18 215.63,608.74 218.59,608.30 221.55,607.86 224.51,606.98 227.47,606.10 230.43,605.22 233.39,604.34 236.35,603.47 239.31,602.59 242.27,600.98 245.23,599.38 248.19,597.77 251.15,596.16 254.11,594.56 257.07,592.95 260.03,590.46 262.99,587.96 265.95,585.47 268.91,582.98 271.87,580.49 274.83,578.00 277.79,574.57 280.75,571.15 283.71,567.73 286.67,564.30 289.63,560.88 292.59,557.46 295.55,553.01 298.51,548.55 301.47,544.10 304.43,539.65 307.38,535.19 310.34,530.74 313.31,524.97 316.26,519.21 319.22,513.44 322.18,507.67 325.14,501.90 328.10,496.14 331.06,488.43 334.02,480.72 336.98,473.01 339.94,465.30 342.90,457.59 345.86,449.88 348.82,439.39 351.78,428.91 354.74,418.42 357.70,407.93 360.66,397.45 363.62,386.96 366.59,374.66 369.53,362.36 372.50,350.05 375.47,337.74 378.41,325.44 381.38,313.14 384.35,301.52 387.29,289.90 390.26,278.27 393.22,266.66 396.17,255.04 399.14,243.42 402.10,234.28 405.05,225.15 408.02,216.02 410.98,206.89 413.93,197.76 416.90,188.63 419.86,182.68 422.81,176.75 425.78,170.80 428.74,164.86 431.69,158.92 434.66,152.98 437.62,149.97 440.57,146.96 443.53,143.95 446.50,140.94 449.45,137.93 452.41,134.93 455.38,134.30 458.33,133.67 461.29,133.04 464.26,132.42 467.21,131.79 470.17,131.16 473.14,132.60 476.09,134.04 479.05,135.48 482.02,136.92 484.97,138.36 487.93,139.81 490.90,143.43 493.84,147.06 496.81,150.69 499.78,154.32 502.72,157.94 505.69,161.57 508.66,167.65 511.60,173.74 514.57,179.82 517.53,185.91 520.48,192.00 523.45,198.08 526.41,206.23 529.36,214.37 532.33,222.52 535.29,230.67 538.24,238.81 541.21,246.96 544.17,255.21 547.12,263.47 550.09,271.72 553.05,279.97 556.00,288.22 558.97,296.47 561.93,302.98 564.88,309.49 567.84,315.99 570.81,322.50 573.76,329.01 576.72,335.52 579.69,339.86 582.64,344.19 585.60,348.52 588.57,352.85 591.52,357.19 594.48,361.52 597.45,363.75 600.40,365.99 603.36,368.22 606.33,370.46 609.28,372.69 612.24,374.93 615.21,375.33 618.15,375.73 621.12,376.13 624.09,376.54 627.03,376.94 630.00,377.34 632.97,376.19 635.91,375.03 638.88,373.88 641.84,372.73 644.79,371.58 647.76,370.42 650.72,367.94 653.67,365.45 656.64,362.96 659.60,360.47 662.55,357.98 665.52,355.50 668.48,351.86 671.43,348.21 674.40,344.57 677.36,340.93 680.31,337.29 683.28,333.65 686.24,329.14 689.19,324.64 692.16,320.13 695.12,315.63 698.07,311.13 701.03,306.62 704.00,301.90 706.95,297.18 709.91,292.45 712.88,287.72 715.83,283.00 718.79,278.28 721.76,274.54 724.71,270.80 727.67,267.07 730.64,263.33 733.59,259.60 736.55,255.86 739.52,254.16 742.47,252.46 745.43,250.76 748.40,249.05 751.34,247.35 754.31,245.65 757.28,246.22 760.22,246.79 763.19,247.36 766.16,247.93 769.10,248.49 772.07,249.06 775.03,251.64 777.98,254.22 780.95,256.80 783.91,259.38 786.86,261.96 789.83,264.54 792.79,268.66 795.74,272.78 798.71,276.90 801.67,281.02 804.62,285.15 807.59,289.27 810.55,294.46 813.50,299.66 816.47,304.85 819.43,310.04 822.38,315.24 825.34,320.43 828.31,326.33 831.26,332.23 834.22,338.13 837.19,344.03 840.14,349.93 843.10,355.83 846.07,362.19 849.02,368.56 851.98,374.93 854.95,381.30 857.90,387.67 860.86,394.04 863.83,400.74 866.78,407.44 869.74,414.14 872.71,420.84 875.66,427.54 878.62,434.23 881.59,441.08 884.53,447.92 887.50,454.76 890.47,461.60 893.41,468.45 896.38,475.29 899.34,481.83 902.29,488.37 905.26,494.91 908.22,501.45 911.17,507.98 914.14,514.53 917.10,520.35 920.05,526.18 923.02,532.00 925.98,537.83 928.93,543.66 931.90,549.48 934.86,554.49 937.81,559.49 940.78,564.49 943.74,569.50 946.69,574.50 949.66,579.51 952.62,583.70 955.57,587.88 958.53,592.07 961.50,596.26 964.45,600.44 967.41,604.63 970.38,608.04 973.33,611.45 976.29,614.85 979.26,618.26 982.21,621.66 985.17,625.07 988.14,627.74 991.09,630.41 994.05,633.08 997.02,635.75 999.97,638.42 1002.93,641.09 1005.90,643.06 1008.84,645.04 1011.81,647.01 1014.78,648.99 1017.72,650.96 1020.69,652.93 1023.66,654.21 1026.60,655.49 1029.57,656.77 1032.53,658.05 1035.48,659.33 1038.45,660.61 1041.41,660.77 1044.36,660.92 1047.33,661.08 1050.29,661.24 1053.24,661.40 1056.21,661.55 1059.17,661.25 1062.12,660.95 1065.09,660.65 1068.05,660.34 1071.00,660.04 1073.97,659.73" fill="none" stroke="#2ca02c" stroke-width="3"/>
<line x1="137" y1="156" x2="173" y2="156" stroke="#2ca02c" stroke-width="4"/>
<text x="183" y="161" font-family="Arial" font-size="18" fill="black">Uz</text>
<polyline points="186.03,242.30 188.99,242.57 191.95,242.86 194.91,243.13 197.87,243.42 200.83,243.70 203.79,243.98 206.75,244.45 209.71,244.92 212.67,245.39 215.63,245.86 218.59,246.34 221.55,246.81 224.51,247.19 227.47,247.57 230.43,247.96 233.39,248.34 236.35,248.72 239.31,249.11 242.27,249.56 245.23,250.01 248.19,250.46 251.15,250.91 254.11,251.36 257.07,251.81 260.03,252.54 262.99,253.28 265.95,254.02 268.91,254.75 271.87,255.49 274.83,256.22 277.79,257.36 280.75,258.49 283.71,259.62 286.67,260.76 289.63,261.90 292.59,263.03 295.55,264.60 298.51,266.17 301.47,267.74 304.43,269.31 307.38,270.88 310.34,272.45 313.31,274.33 316.26,276.22 319.22,278.11 322.18,279.99 325.14,281.88 328.10,283.77 331.06,285.37 334.02,286.96 336.98,288.56 339.94,290.15 342.90,291.75 345.86,293.34 348.82,292.66 351.78,291.98 354.74,291.30 357.70,290.62 360.66,289.93 363.62,289.25 366.59,284.15 369.53,279.07 372.50,273.97 375.47,268.88 378.41,263.78 381.38,258.69 384.35,251.09 387.29,243.49 390.26,235.89 393.22,228.28 396.17,220.69 399.14,213.09 402.10,205.93 405.05,198.78 408.02,191.63 410.98,184.47 413.93,177.32 416.90,170.16 419.86,165.00 422.81,159.84 425.78,154.68 428.74,149.52 431.69,144.36 434.66,139.20 437.62,136.36 440.57,133.52 443.53,130.68 446.50,127.85 449.45,125.01 452.41,122.18 455.38,121.56 458.33,120.93 461.29,120.31 464.26,119.69 467.21,119.07 470.17,118.45 473.14,120.05 476.09,121.65 479.05,123.25 482.02,124.85 484.97,126.45 487.93,128.05 490.90,132.15 493.84,136.24 496.81,140.34 499.78,144.43 502.72,148.52 505.69,152.62 508.66,159.39 511.60,166.15 514.57,172.92 517.53,179.69 520.48,186.46 523.45,193.22 526.41,201.98 529.36,210.73 532.33,219.48 535.29,228.23 538.24,236.98 541.21,245.74 544.17,254.18 547.12,262.63 550.09,271.07 553.05,279.52 556.00,287.97 558.97,296.41 561.93,302.44 564.88,308.46 567.84,314.48 570.81,320.51 573.76,326.53 576.72,332.56 579.69,335.75 582.64,338.93 585.60,342.12 588.57,345.31 591.52,348.50 594.48,351.69 597.45,352.66 600.40,353.62 603.36,354.58 606.33,355.54 609.28,356.51 612.24,357.47 615.21,357.14 618.15,356.82 621.12,356.49 624.09,356.16 627.03,355.84 630.00,355.51 632.97,354.38 635.91,353.26 638.88,352.13 641.84,351.00 644.79,349.87 647.76,348.75 650.72,346.81 653.67,344.88 656.64,342.95 659.60,341.02 662.55,339.09 665.52,337.16 668.48,334.26 671.43,331.36 674.40,328.46 677.36,325.57 680.31,322.67 683.28,319.77 686.24,315.93 689.19,312.08 692.16,308.23 695.12,304.39 698.07,300.54 701.03,296.70 704.00,292.40 706.95,288.10 709.91,283.80 712.88,279.50 715.83,275.21 718.79,270.91 721.76,267.33 724.71,263.75 727.67,260.17 730.64,256.59 733.59,253.02 736.55,249.44 739.52,247.65 742.47,245.86 745.43,244.06 748.40,242.27 751.34,240.48 754.31,238.69 757.28,238.94 760.22,239.19 763.19,239.45 766.16,239.70 769.10,239.96 772.07,240.20 775.03,242.23 777.98,244.25 780.95,246.27 783.91,248.29 786.86,250.31 789.83,252.33 792.79,255.60 795.74,258.87 798.71,262.14 801.67,265.41 804.62,268.68 807.59,271.95 810.55,275.88 813.50,279.82 816.47,283.74 819.43,287.68 822.38,291.61 825.34,295.54 828.31,299.52 831.26,303.51 834.22,307.50 837.19,311.48 840.14,315.46 843.10,319.45 846.07,322.72 849.02,325.98 851.98,329.24 854.95,332.51 857.90,335.77 860.86,339.03 863.83,340.44 866.78,341.85 869.74,343.26 872.71,344.67 875.66,346.08 878.62,347.49 881.59,346.13 884.53,344.77 887.50,343.40 890.47,342.04 893.41,340.68 896.38,339.31 899.34,335.87 902.29,332.43 905.26,328.98 908.22,325.54 911.17,322.09 914.14,318.65 917.10,314.56 920.05,310.46 923.02,306.37 925.98,302.28 928.93,298.18 931.90,294.08 934.86,290.11 937.81,286.13 940.78,282.15 943.74,278.17 946.69,274.19 949.66,270.21 952.62,266.64 955.57,263.07 958.53,259.51 961.50,255.94 964.45,252.37 967.41,248.81 970.38,245.75 973.33,242.71 976.29,239.66 979.26,236.60 982.21,233.56 985.17,230.51 988.14,228.01 991.09,225.52 994.05,223.03 997.02,220.53 999.97,218.04 1002.93,215.55 1005.90,213.61 1008.84,211.68 1011.81,209.75 1014.78,207.81 1017.72,205.88 1020.69,203.94 1023.66,202.60 1026.60,201.25 1029.57,199.90 1032.53,198.55 1035.48,197.20 1038.45,195.85 1041.41,195.49 1044.36,195.12 1047.33,194.75 1050.29,194.38 1053.24,194.02 1056.21,193.65 1059.17,193.78 1062.12,193.91 1065.09,194.04 1068.05,194.18 1071.00,194.31 1073.97,194.44" fill="none" stroke="#111111" stroke-width="3"/>
<line x1="137" y1="184" x2="173" y2="184" stroke="#111111" stroke-width="4"/>
<text x="183" y="189" font-family="Arial" font-size="18" fill="black">Umag</text>
</svg>