<svg xmlns="http://www.w3.org/2000/svg" width="1200" height="820" viewBox="0 0 1200 820">
<rect width="100%" height="100%" fill="white"/>
<text x="600.0" y="36" text-anchor="middle" font-family="Arial" font-size="24" fill="black">Velocity components along x-centerline</text>
<line x1="115.00" y1="75" x2="115.00" y2="705" stroke="#dddddd" stroke-width="1"/>
<text x="115.00" y="737" text-anchor="middle" font-family="Arial" font-size="16" fill="black">-0.560</text>
<line x1="372.50" y1="75" x2="372.50" y2="705" stroke="#dddddd" stroke-width="1"/>
<text x="372.50" y="737" text-anchor="middle" font-family="Arial" font-size="16" fill="black">1.470</text>
<line x1="630.00" y1="75" x2="630.00" y2="705" stroke="#dddddd" stroke-width="1"/>
<text x="630.00" y="737" text-anchor="middle" font-family="Arial" font-size="16" fill="black">3.500</text>
<line x1="887.50" y1="75" x2="887.50" y2="705" stroke="#dddddd" stroke-width="1"/>
<text x="887.50" y="737" text-anchor="middle" font-family="Arial" font-size="16" fill="black">5.530</text>
<line x1="1145.00" y1="75" x2="1145.00" y2="705" stroke="#dddddd" stroke-width="1"/>
<text x="1145.00" y="737" text-anchor="middle" font-family="Arial" font-size="16" fill="black">7.560</text>
<line x1="115" y1="705.00" x2="1145" y2="705.00" stroke="#dddddd" stroke-width="1"/>
<text x="99" y="710.00" text-anchor="end" font-family="Arial" font-size="16" fill="black">-0.260</text>
<line x1="115" y1="547.50" x2="1145" y2="547.50" stroke="#dddddd" stroke-width="1"/>
<text x="99" y="552.50" text-anchor="end" font-family="Arial" font-size="16" fill="black">-0.097</text>
<line x1="115" y1="390.00" x2="1145" y2="390.00" stroke="#dddddd" stroke-width="1"/>
<text x="99" y="395.00" text-anchor="end" font-family="Arial" font-size="16" fill="black">0.066</text>
<line x1="115" y1="232.50" x2="1145" y2="232.50" stroke="#dddddd" stroke-width="1"/>
<text x="99" y="237.50" text-anchor="end" font-family="Arial" font-size="16" fill="black">0.228</text>
<line x1="115" y1="75.00" x2="1145" y2="75.00" stroke="#dddddd" stroke-width="1"/>
<text x="99" y="80.00" text-anchor="end" font-family="Arial" font-size="16" fill="black">0.391</text>
<rect x="115" y="75" width="1030" height="630" fill="none" stroke="black" stroke-width="2"/>
<text x="630.0" y="785" text-anchor="middle" font-family="Arial" font-size="20" fill="black">x coordinate [m]</text>
<text x="34" y="390.0" transform="rotate(-90 34 390.0)" text-anchor="middle" font-family="Arial" font-size="20" fill="black">velocity [m/s]</text>
<polyline points="186.03,457.16 188.99,457.54 191.95,457.92 194.91,458.29 197.87,458.67 200.83,459.30 203.79,460.03 206.75,460.76 209.71,461.50 212.67,462.08 215.63,462.48 218.59,462.87 221.55,463.27 224.51,463.54 227.47,463.06 230.43,462.58 233.39,462.10 236.35,461.61 239.31,459.91 242.27,458.01 245.23,456.11 248.19,454.20 251.15,451.37 254.11,447.84 257.07,444.31 260.03,440.78 262.99,436.93 265.95,432.29 268.91,427.65 271.87,423.01 274.83,418.37 277.79,413.31 280.75,408.25 283.71,403.19 286.67,398.13 289.63,393.02 292.59,387.88 295.55,382.75 298.51,377.61 301.47,372.51 304.42,367.45 307.39,362.39 310.34,357.32 313.30,352.30 316.27,347.47 319.22,342.63 322.18,337.80 325.15,332.96 328.10,328.40 331.06,323.88 334.03,319.35 336.98,314.83 339.94,310.47 342.91,306.24 345.86,302.01 348.82,297.79 351.79,293.73 354.74,290.10 357.70,286.47 360.67,282.84 363.62,279.22 366.58,276.69 369.54,274.15 372.50,271.62 375.46,269.09 378.42,267.51 381.38,266.30 384.33,265.09 387.30,263.89 390.26,263.25 393.21,263.37 396.18,263.48 399.14,263.60 402.09,263.88 405.06,265.17 408.02,266.45 410.97,267.73 413.94,269.01 416.90,271.02 419.85,273.15 422.82,275.28 425.78,277.41 428.73,279.83 431.70,282.43 434.66,285.05 437.61,287.66 440.58,290.32 443.53,293.08 446.49,295.84 449.46,298.61 452.41,301.37 455.37,304.07 458.34,306.78 461.29,309.47 464.25,312.17 467.22,314.76 470.17,317.31 473.13,319.85 476.10,322.38 479.05,324.84 482.01,327.18 484.98,329.52 487.93,331.86 490.89,334.17 493.85,336.28 496.81,338.39 499.77,340.49 502.73,342.60 505.69,344.44 508.65,346.26 511.61,348.06 514.57,349.86 517.52,351.44 520.49,352.83 523.45,354.24 526.40,355.64 529.37,356.91 532.33,357.82 535.28,358.73 538.25,359.64 541.21,360.55 544.16,360.94 547.13,361.33 550.09,361.72 553.04,362.11 556.01,362.19 558.97,362.15 561.92,362.10 564.89,362.06 567.84,361.92 570.80,361.65 573.77,361.38 576.72,361.11 579.68,360.86 582.65,360.67 585.60,360.48 588.56,360.28 591.53,360.09 594.48,360.22 597.44,360.40 600.41,360.59 603.36,360.77 606.32,361.27 609.29,362.02 612.24,362.77 615.20,363.52 618.17,364.46 621.12,365.85 624.08,367.25 627.04,368.65 630.00,370.04 632.96,372.07 635.92,374.09 638.88,376.12 641.83,378.15 644.80,380.59 647.76,383.19 650.71,385.80 653.68,388.40 656.64,391.23 659.59,394.34 662.56,397.45 665.52,400.57 668.47,403.74 671.44,407.27 674.40,410.79 677.35,414.32 680.32,417.85 683.28,421.63 686.23,425.45 689.20,429.26 692.16,433.08 695.11,436.98 698.08,440.94 701.03,444.91 703.99,448.87 706.96,452.83 709.91,456.78 712.87,460.74 715.84,464.69 718.79,468.65 721.75,472.48 724.72,476.31 727.67,480.14 730.63,483.97 733.60,487.64 736.55,491.25 739.51,494.85 742.48,498.46 745.43,501.92 748.39,505.20 751.35,508.48 754.31,511.76 757.27,514.99 760.23,517.88 763.19,520.78 766.15,523.67 769.11,526.56 772.07,529.09 775.02,531.56 777.99,534.03 780.95,536.49 783.90,538.70 786.87,540.72 789.83,542.74 792.78,544.76 795.75,546.64 798.71,548.18 801.66,549.73 804.63,551.27 807.59,552.82 810.54,553.85 813.51,554.89 816.47,555.94 819.42,556.97 822.39,557.64 825.34,558.15 828.30,558.68 831.27,559.19 834.22,559.49 837.18,559.51 840.15,559.53 843.10,559.55 846.06,559.51 849.03,559.12 851.98,558.74 854.94,558.34 857.91,557.95 860.86,557.35 863.82,556.72 866.79,556.09 869.74,555.46 872.70,554.82 875.67,554.17 878.62,553.51 881.58,552.87 884.54,552.24 887.50,551.68 890.46,551.13 893.42,550.58 896.38,550.02 899.33,549.54 902.30,549.05 905.26,548.56 908.21,548.08 911.18,547.58 914.14,547.08 917.09,546.57 920.06,546.07 923.02,545.52 925.97,544.93 928.94,544.33 931.90,543.73 934.85,543.12 937.82,542.39 940.78,541.67 943.73,540.94 946.70,540.21 949.66,539.35 952.61,538.46 955.58,537.58 958.53,536.69 961.49,535.67 964.46,534.55 967.41,533.42 970.37,532.30 973.34,531.08 976.29,529.60 979.25,528.13 982.22,526.65 985.17,525.18 988.13,523.26 991.10,521.34 994.05,519.41 997.01,517.49 999.98,515.27 1002.93,512.92 1005.89,510.57 1008.85,508.22 1011.81,505.78 1014.77,503.22 1017.73,500.66 1020.69,498.09 1023.65,495.55 1026.61,493.14 1029.57,490.72 1032.52,488.31 1035.49,485.89 1038.45,483.82 1041.40,481.80 1044.37,479.79 1047.33,477.77 1050.28,475.77 1053.25,473.78 1056.21,471.79 1059.16,469.80 1062.13,468.06 1065.09,466.97 1068.04,465.88 1071.01,464.78 1073.97,463.69" fill="none" stroke="#1f77b4" stroke-width="3"/>
<line x1="137" y1="100" x2="173" y2="100" stroke="#1f77b4" stroke-width="4"/>
<text x="183" y="105" font-family="Arial" font-size="18" fill="black">Ux</text>
<polyline points="186.03,317.68 188.99,321.89 191.95,326.10 194.91,330.32 197.87,334.53 200.83,342.34 203.79,351.58 206.75,360.83 209.71,370.08 212.67,380.12 215.63,391.21 218.59,402.31 221.55,413.41 224.51,424.75 227.47,437.53 230.43,450.32 233.39,463.10 236.35,475.89 239.31,488.95 242.27,502.07 245.23,515.18 248.19,528.29 251.15,540.32 254.11,551.53 257.07,562.74 260.03,573.96 262.99,584.09 265.95,591.52 268.91,598.94 271.87,606.37 274.83,613.80 277.79,616.86 280.75,619.91 283.71,622.98 286.67,626.04 289.63,626.21 292.59,625.25 295.55,624.28 298.51,623.31 301.47,620.85 304.42,616.42 307.39,611.98 310.34,607.53 313.30,602.65 316.27,595.13 319.22,587.61 322.18,580.09 325.15,572.56 328.10,562.56 331.06,552.15 334.03,541.74 336.98,531.33 339.94,519.46 342.91,506.51 345.86,493.55 348.82,480.60 351.79,467.35 354.74,453.36 357.70,439.37 360.67,425.38 363.62,411.39 366.58,398.78 369.54,386.17 372.50,373.56 375.46,360.95 378.42,350.53 381.38,340.97 384.33,331.41 387.30,321.86 390.26,313.77 393.21,307.65 396.18,301.53 399.14,295.40 402.09,289.70 405.06,286.51 408.02,283.31 410.97,280.12 413.94,276.93 416.90,275.53 419.85,274.44 422.82,273.35 425.78,272.26 428.73,271.92 431.70,272.14 434.66,272.38 437.61,272.60 440.58,273.04 443.53,274.01 446.49,274.99 449.46,275.97 452.41,276.94 455.37,278.35 458.34,279.76 461.29,281.16 464.25,282.58 467.22,284.21 470.17,285.93 473.13,287.64 476.10,289.37 479.05,291.21 482.01,293.22 484.98,295.24 487.93,297.24 490.89,299.30 493.85,301.60 496.81,303.90 499.77,306.20 502.73,308.50 505.69,311.03 508.65,313.60 511.61,316.17 514.57,318.73 517.52,321.44 520.49,324.25 523.45,327.06 526.40,329.87 529.37,332.76 532.33,335.82 535.28,338.89 538.25,341.95 541.21,345.02 544.16,348.42 547.13,351.82 550.09,355.22 553.04,358.61 556.01,362.34 558.97,366.21 561.92,370.08 564.89,373.94 567.84,378.06 570.80,382.51 573.77,386.96 576.72,391.42 579.68,395.95 582.65,400.95 585.60,405.96 588.56,410.97 591.53,415.98 594.48,421.24 597.44,426.55 600.41,431.86 603.36,437.17 606.32,442.37 609.29,447.50 612.24,452.62 615.20,457.75 618.17,462.66 621.12,467.05 624.08,471.43 627.04,475.81 630.00,480.19 632.96,483.34 635.92,486.48 638.88,489.63 641.83,492.77 644.80,494.80 647.76,496.37 650.71,497.94 653.68,499.51 656.64,500.35 659.59,500.21 662.56,500.08 665.52,499.94 668.47,499.58 671.44,497.84 674.40,496.10 677.35,494.36 680.32,492.62 683.28,489.75 686.23,486.70 689.20,483.64 692.16,480.59 695.11,477.01 698.08,473.04 701.03,469.08 703.99,465.11 706.96,461.02 709.91,456.62 712.87,452.22 715.84,447.81 718.79,443.41 721.75,439.06 724.72,434.72 727.67,430.37 730.63,426.02 733.60,422.02 736.55,418.15 739.51,414.28 742.48,410.41 745.43,406.89 748.39,403.81 751.35,400.74 754.31,397.67 757.27,394.74 760.23,392.66 763.19,390.58 766.15,388.49 769.11,386.41 772.07,385.25 775.02,384.24 777.99,383.24 780.95,382.23 783.90,381.83 786.87,381.88 789.83,381.93 792.78,381.98 795.75,382.32 798.71,383.38 801.66,384.44 804.63,385.50 807.59,386.56 810.54,388.59 813.51,390.62 816.47,392.65 819.42,394.68 822.39,397.40 825.34,400.40 828.30,403.40 831.27,406.41 834.22,409.82 837.18,413.76 840.15,417.71 843.10,421.66 846.06,425.72 849.03,430.44 851.98,435.16 854.94,439.88 857.91,444.60 860.86,449.61 863.82,454.68 866.79,459.75 869.74,464.82 872.70,469.77 875.67,474.63 878.62,479.48 881.58,484.34 884.54,489.00 887.50,493.19 890.46,497.38 893.42,501.56 896.38,505.75 899.33,508.98 902.30,512.21 905.26,515.44 908.21,518.67 911.18,521.11 914.14,523.23 917.09,525.35 920.06,527.47 923.02,529.11 925.97,530.10 928.94,531.09 931.90,532.08 934.85,532.93 937.82,532.88 940.78,532.84 943.73,532.79 946.70,532.75 949.66,531.97 952.61,531.07 955.58,530.16 958.53,529.26 961.49,527.97 964.46,526.40 967.41,524.82 970.37,523.24 973.34,521.50 976.29,519.35 979.25,517.19 982.22,515.03 985.17,512.88 988.13,510.09 991.10,507.30 994.05,504.51 997.01,501.72 999.98,498.35 1002.93,494.75 1005.89,491.14 1008.85,487.54 1011.81,483.48 1014.77,478.82 1017.73,474.15 1020.69,469.49 1023.65,464.64 1026.61,458.72 1029.57,452.81 1032.52,446.89 1035.49,440.97 1038.45,433.86 1041.40,426.55 1044.37,419.25 1047.33,411.94 1050.28,403.19 1053.25,393.35 1056.21,383.51 1059.16,373.67 1062.13,364.98 1065.09,359.16 1068.04,353.34 1071.01,347.51 1073.97,341.69" fill="none" stroke="#d62728" stroke-width="3"/>
<line x1="137" y1="128" x2="173" y2="128" stroke="#d62728" stroke-width="4"/>
<text x="183" y="133" font-family="Arial" font-size="18" fill="black">Uy</text>
<polyline points="186.03,661.55 188.99,655.87 191.95,650.21 194.91,644.53 197.87,638.86 200.83,630.43 203.79,620.91 206.75,611.39 209.71,601.87 212.67,593.34 215.63,586.13 218.59,578.93 221.55,571.72 224.51,564.58 227.47,557.84 230.43,551.11 233.39,544.38 236.35,537.65 239.31,530.87 242.27,524.08 245.23,517.29 248.19,510.49 251.15,503.93 254.11,497.54 257.07,491.14 260.03,484.75 262.99,478.72 265.95,473.61 268.91,468.50 271.87,463.38 274.83,458.27 277.79,454.91 280.75,451.54 283.71,448.18 286.67,444.81 289.63,442.57 292.59,440.78 295.55,438.99 298.51,437.19 301.47,435.82 304.42,435.01 307.39,434.20 310.34,433.39 313.30,432.60 316.27,431.87 319.22,431.15 322.18,430.42 325.15,429.70 328.10,427.94 331.06,426.01 334.03,424.08 336.98,422.15 339.94,418.68 342.91,414.06 345.86,409.43 348.82,404.81 351.79,399.28 354.74,391.49 357.70,383.69 360.67,375.89 363.62,368.10 366.58,358.48 369.54,348.86 372.50,339.25 375.46,329.63 378.42,320.27 381.38,311.01 384.33,301.75 387.30,292.49 390.26,284.12 393.21,276.93 396.18,269.74 399.14,262.55 402.09,255.78 405.06,251.53 408.02,247.28 410.97,243.02 413.94,238.76 416.90,237.13 419.85,235.93 422.82,234.73 425.78,233.53 428.73,233.86 431.70,235.34 434.66,236.82 437.61,238.30 440.58,240.38 443.53,243.92 446.49,247.47 449.46,251.02 452.41,254.57 455.37,259.53 458.34,264.48 461.29,269.44 464.25,274.40 467.22,279.92 470.17,285.68 473.13,291.42 476.10,297.18 479.05,303.02 482.01,308.99 484.98,314.95 487.93,320.92 490.89,326.85 493.85,332.52 496.81,338.18 499.77,343.83 502.73,349.50 505.69,354.50 508.65,359.39 511.61,364.28 514.57,369.17 517.52,373.41 520.49,377.16 523.45,380.92 526.40,384.68 529.37,388.05 532.33,390.45 535.28,392.86 538.25,395.27 541.21,397.67 544.16,398.66 547.13,399.65 550.09,400.64 553.04,401.63 556.01,401.69 558.97,401.38 561.92,401.07 564.89,400.76 567.84,400.02 570.80,398.71 573.77,397.40 576.72,396.09 579.68,394.69 582.65,392.81 585.60,390.93 588.56,389.05 591.53,387.17 594.48,385.19 597.44,383.20 600.41,381.21 603.36,379.22 606.32,377.40 609.29,375.72 612.24,374.04 615.20,372.36 618.17,370.89 621.12,369.94 624.08,368.99 627.04,368.03 630.00,367.08 632.96,367.31 635.92,367.54 638.88,367.77 641.83,368.00 644.80,369.33 647.76,371.10 650.71,372.88 653.68,374.65 656.64,377.11 659.59,380.48 662.56,383.86 665.52,387.23 668.47,390.77 671.44,395.31 674.40,399.85 677.35,404.40 680.32,408.94 683.28,413.69 686.23,418.47 689.20,423.25 692.16,428.03 695.11,432.22 698.08,435.98 701.03,439.73 703.99,443.48 706.96,446.60 709.91,448.14 712.87,449.67 715.84,451.20 718.79,452.74 721.75,451.45 724.72,450.16 727.67,448.87 730.63,447.58 733.60,444.38 736.55,440.42 739.51,436.46 742.48,432.50 745.43,427.65 748.39,421.62 751.35,415.59 754.31,409.56 757.27,403.35 760.23,396.04 763.19,388.73 766.15,381.43 769.11,374.12 772.07,366.42 775.02,358.65 777.99,350.88 780.95,343.12 783.90,335.51 786.87,328.03 789.83,320.55 792.78,313.07 795.75,305.87 798.71,299.31 801.66,292.76 804.63,286.21 807.59,279.65 810.54,274.51 813.51,269.36 816.47,264.22 819.42,259.08 822.39,255.14 825.34,251.68 828.30,248.23 831.27,244.78 834.22,242.06 837.18,240.33 840.15,238.61 843.10,236.88 846.06,235.37 849.03,235.17 851.98,234.96 854.94,234.76 857.91,234.55 860.86,235.32 863.82,236.26 866.79,237.20 869.74,238.14 872.70,239.52 875.67,241.22 878.62,242.94 881.58,244.64 884.54,246.51 887.50,248.78 890.46,251.04 893.42,253.31 896.38,255.58 899.33,258.32 902.30,261.06 905.26,263.80 908.21,266.54 911.18,269.57 914.14,272.72 917.09,275.85 920.06,279.00 923.02,282.27 925.97,285.71 928.94,289.15 931.90,292.59 934.85,296.05 937.82,299.67 940.78,303.28 943.73,306.90 946.70,310.52 949.66,314.22 952.61,317.93 955.58,321.64 958.53,325.36 961.49,329.13 964.46,332.95 967.41,336.77 970.37,340.59 973.34,344.46 976.29,348.44 979.25,352.43 982.22,356.42 985.17,360.40 988.13,364.53 991.10,368.67 994.05,372.80 997.01,376.93 999.98,380.99 1002.93,385.02 1005.89,389.05 1008.85,393.07 1011.81,396.77 1014.77,400.02 1017.73,403.27 1020.69,406.52 1023.65,409.49 1026.61,410.78 1029.57,412.07 1032.52,413.36 1035.49,414.64 1038.45,413.00 1041.40,410.87 1044.37,408.74 1047.33,406.61 1050.28,402.04 1053.25,395.63 1056.21,389.22 1059.16,382.81 1062.13,377.01 1065.09,372.70 1068.04,368.39 1071.01,364.08 1073.97,359.78" fill="none" stroke="#2ca02c" stroke-width="3"/>
<line x1="137" y1="156" x2="173" y2="156" stroke="#2ca02c" stroke-width="4"/>
<text x="183" y="161" font-family="Arial" font-size="18" fill="black">Uz</text>
<polyline points="186.03,205.04 188.99,212.08 191.95,219.12 194.91,226.17 197.87,233.21 200.83,244.42 203.79,257.29 206.75,270.18 209.71,283.05 212.67,295.07 215.63,305.93 218.59,316.79 221.55,327.64 224.51,337.94 227.47,344.84 230.43,351.74 233.39,358.64 236.35,365.54 239.31,364.55 242.27,362.24 245.23,359.93 248.19,357.62 251.15,351.94 254.11,343.74 257.07,335.52 260.03,327.32 262.99,319.31 265.95,311.82 268.91,304.34 271.87,296.85 274.83,289.36 277.79,285.03 280.75,280.70 283.71,276.37 286.67,272.04 289.63,270.00 292.59,268.88 295.55,267.77 298.51,266.64 301.47,266.56 304.42,267.86 307.39,269.16 310.34,270.46 313.30,271.94 316.27,274.54 319.22,277.12 322.18,279.71 325.15,282.30 328.10,284.47 331.06,286.57 334.03,288.67 336.98,290.77 339.94,290.85 342.91,289.42 345.86,287.97 348.82,286.54 351.79,283.47 354.74,276.33 357.70,269.18 360.67,262.03 363.62,254.89 366.58,244.29 369.54,233.69 372.50,223.09 375.46,212.49 378.42,202.21 381.38,192.07 384.33,181.91 387.30,171.77 390.26,162.85 393.21,155.58 396.18,148.31 399.14,141.04 402.09,134.29 405.06,130.67 408.02,127.05 410.97,123.44 413.94,119.81 416.90,119.11 419.85,118.88 422.82,118.67 425.78,118.45 428.73,119.75 431.70,122.19 434.66,124.63 437.61,127.07 440.58,130.03 443.53,134.30 446.49,138.55 449.46,142.81 452.41,147.08 455.37,152.40 458.34,157.74 461.29,163.07 464.25,168.41 467.22,174.09 470.17,179.93 473.13,185.77 476.10,191.60 479.05,197.45 482.01,203.34 484.98,209.23 487.93,215.12 490.89,220.97 493.85,226.57 496.81,232.17 499.77,237.77 502.73,243.37 505.69,248.51 508.65,253.56 511.61,258.62 514.57,263.68 517.52,268.34 520.49,272.70 523.45,277.06 526.40,281.42 529.37,285.57 532.33,289.20 535.28,292.85 538.25,296.48 541.21,300.11 544.16,303.06 547.13,306.00 550.09,308.95 553.04,311.88 556.01,314.36 558.97,316.65 561.92,318.94 564.89,321.22 567.84,323.22 570.80,324.82 573.77,326.42 576.72,328.02 579.68,329.51 582.65,330.35 585.60,331.19 588.56,332.03 591.53,332.87 594.48,333.07 597.44,333.16 600.41,333.24 603.36,333.33 606.32,333.15 609.29,332.75 612.24,332.35 615.20,331.95 618.17,331.59 621.12,331.30 624.08,331.01 627.04,330.72 630.00,330.43 632.96,331.05 635.92,331.66 638.88,332.28 641.83,332.90 644.80,334.65 647.76,336.87 650.71,339.09 653.68,341.30 656.64,344.35 659.59,348.48 662.56,352.61 665.52,356.74 668.47,361.11 671.44,366.91 674.40,372.71 677.35,378.51 680.32,384.31 683.28,390.90 686.23,397.62 689.20,404.34 692.16,411.06 695.11,417.67 698.08,424.21 701.03,430.74 703.99,437.27 706.96,441.50 709.91,439.95 712.87,438.40 715.84,436.85 718.79,435.30 721.75,429.49 724.72,423.67 727.67,417.86 730.63,412.04 733.60,406.02 736.55,399.91 739.51,393.80 742.48,387.69 745.43,381.36 748.39,374.71 751.35,368.07 754.31,361.43 757.27,354.72 760.23,347.65 763.19,340.58 766.15,333.50 769.11,326.42 772.07,319.32 775.02,312.22 777.99,305.11 780.95,298.00 783.90,291.17 786.87,284.54 789.83,277.92 792.78,271.29 795.75,264.95 798.71,259.31 801.66,253.67 804.63,248.03 807.59,242.39 810.54,238.18 813.51,233.95 816.47,229.73 819.42,225.51 822.39,222.48 825.34,219.91 828.30,217.35 831.27,214.79 834.22,212.92 837.18,211.99 840.15,211.05 843.10,210.12 846.06,209.37 849.03,209.71 851.98,210.05 854.94,210.39 857.91,210.73 860.86,211.69 863.82,212.75 866.79,213.81 869.74,214.87 872.70,216.08 875.67,217.40 878.62,218.72 881.58,220.03 884.54,221.39 887.50,222.84 890.46,224.30 893.42,225.75 896.38,227.19 899.33,228.91 902.30,230.62 905.26,232.34 908.21,234.05 911.18,236.09 914.14,238.24 917.09,240.39 920.06,242.54 923.02,244.91 925.97,247.60 928.94,250.27 931.90,252.95 934.85,255.70 937.82,258.89 940.78,262.08 943.73,265.28 946.70,268.46 949.66,272.05 952.61,275.69 955.58,279.33 958.53,282.97 961.49,286.88 964.46,290.98 967.41,295.07 970.37,299.16 973.34,303.41 976.29,308.03 979.25,312.64 982.22,317.26 985.17,321.87 988.13,327.07 991.10,332.29 994.05,337.49 997.01,342.69 999.98,348.20 1002.93,353.85 1005.89,359.50 1008.85,365.14 1011.81,370.65 1014.77,375.95 1017.73,381.26 1020.69,386.57 1023.65,391.47 1026.61,393.90 1029.57,396.33 1032.52,398.76 1035.49,401.19 1038.45,398.03 1041.40,393.94 1044.37,389.85 1047.33,385.75 1050.28,377.82 1053.25,366.99 1056.21,356.17 1059.16,345.34 1062.13,335.59 1065.09,328.50 1068.04,321.42 1071.01,314.33 1073.97,307.24" fill="none" stroke="#111111" stroke-width="3"/>
<line x1="137" y1="184" x2="173" y2="184" stroke="#111111" stroke-width="4"/>
<text x="183" y="189" font-family="Arial" font-size="18" fill="black">Umag</text>
</svg>