<svg xmlns="http://www.w3.org/2000/svg" width="1200" height="820" viewBox="0 0 1200 820">
<rect width="100%" height="100%" fill="white"/>
<text x="600.0" y="36" text-anchor="middle" font-family="Arial" font-size="24" fill="black">profile_center_y: p_rgh</text>
<line x1="120.00" y1="75" x2="120.00" y2="705" stroke="#dddddd" stroke-width="1"/>
<text x="120.00" y="737" text-anchor="middle" font-family="Arial" font-size="16" fill="black">-0.400</text>
<line x1="376.25" y1="75" x2="376.25" y2="705" stroke="#dddddd" stroke-width="1"/>
<text x="376.25" y="737" text-anchor="middle" font-family="Arial" font-size="16" fill="black">1.050</text>
<line x1="632.50" y1="75" x2="632.50" y2="705" stroke="#dddddd" stroke-width="1"/>
<text x="632.50" y="737" text-anchor="middle" font-family="Arial" font-size="16" fill="black">2.500</text>
<line x1="888.75" y1="75" x2="888.75" y2="705" stroke="#dddddd" stroke-width="1"/>
<text x="888.75" y="737" text-anchor="middle" font-family="Arial" font-size="16" fill="black">3.950</text>
<line x1="1145.00" y1="75" x2="1145.00" y2="705" stroke="#dddddd" stroke-width="1"/>
<text x="1145.00" y="737" text-anchor="middle" font-family="Arial" font-size="16" fill="black">5.400</text>
<line x1="120" y1="705.00" x2="1145" y2="705.00" stroke="#dddddd" stroke-width="1"/>
<text x="104" y="710.00" text-anchor="end" font-family="Arial" font-size="16" fill="black">-0.089</text>
<line x1="120" y1="547.50" x2="1145" y2="547.50" stroke="#dddddd" stroke-width="1"/>
<text x="104" y="552.50" text-anchor="end" font-family="Arial" font-size="16" fill="black">0.088</text>
<line x1="120" y1="390.00" x2="1145" y2="390.00" stroke="#dddddd" stroke-width="1"/>
<text x="104" y="395.00" text-anchor="end" font-family="Arial" font-size="16" fill="black">0.265</text>
<line x1="120" y1="232.50" x2="1145" y2="232.50" stroke="#dddddd" stroke-width="1"/>
<text x="104" y="237.50" text-anchor="end" font-family="Arial" font-size="16" fill="black">0.442</text>
<line x1="120" y1="75.00" x2="1145" y2="75.00" stroke="#dddddd" stroke-width="1"/>
<text x="104" y="80.00" text-anchor="end" font-family="Arial" font-size="16" fill="black">0.619</text>
<rect x="120" y="75" width="1025" height="630" fill="none" stroke="black" stroke-width="2"/>
<text x="632.5" y="785" text-anchor="middle" font-family="Arial" font-size="20" fill="black">y coordinate [m]</text>
<text x="34" y="390.0" transform="rotate(-90 34 390.0)" text-anchor="middle" font-family="Arial" font-size="20" fill="black">p_rgh [Pa]</text>
<polyline points="190.69,359.02 193.64,357.50 196.58,355.99 199.53,354.48 202.47,352.97 205.42,351.46 208.36,349.94 211.31,347.87 214.25,345.79 217.20,343.72 220.14,341.64 223.09,339.57 226.03,337.49 228.98,337.41 231.92,337.32 234.87,337.23 237.82,337.14 240.76,337.06 243.71,336.97 246.65,338.78 249.60,340.59 252.54,342.40 255.49,344.21 258.43,346.02 261.38,347.83 264.33,350.86 267.27,353.90 270.22,356.92 273.16,359.96 276.11,362.99 279.05,366.02 282.00,369.35 284.94,372.69 287.89,376.02 290.83,379.36 293.78,382.70 296.72,386.03 299.67,389.12 302.61,392.20 305.56,395.28 308.51,398.37 311.45,401.45 314.40,404.53 317.34,407.54 320.29,410.54 323.23,413.53 326.18,416.53 329.12,419.53 332.07,422.52 335.01,426.74 337.96,430.96 340.91,435.18 343.85,439.40 346.80,443.62 349.74,447.84 352.69,456.94 355.63,466.05 358.58,475.15 361.52,484.25 364.47,493.35 367.41,502.45 370.37,513.45 373.30,524.46 376.25,535.46 379.20,546.47 382.13,557.48 385.09,568.48 388.04,576.01 390.97,583.53 393.92,591.06 396.87,598.58 399.81,606.10 402.76,613.63 405.71,618.17 408.64,622.72 411.59,627.26 414.55,631.80 417.48,636.35 420.43,640.89 423.38,643.03 426.32,645.17 429.27,647.31 432.22,649.45 435.15,651.59 438.10,653.72 441.05,654.14 443.99,654.56 446.94,654.98 449.89,655.40 452.82,655.82 455.78,656.24 458.73,655.63 461.66,655.02 464.61,654.41 467.56,653.81 470.50,653.20 473.45,652.59 476.40,651.48 479.33,650.36 482.28,649.25 485.24,648.14 488.17,647.02 491.12,645.91 494.07,644.34 497.01,642.77 499.96,641.20 502.91,639.64 505.84,638.07 508.79,636.50 511.74,633.50 514.68,630.50 517.63,627.49 520.58,624.49 523.51,621.49 526.47,618.49 529.42,610.78 532.35,603.07 535.30,595.37 538.25,587.66 541.19,579.95 544.14,572.25 547.09,562.64 550.02,553.03 552.97,543.42 555.93,533.81 558.86,524.19 561.81,514.58 564.76,508.00 567.70,501.41 570.65,494.83 573.60,488.25 576.53,481.66 579.48,475.08 582.43,470.87 585.37,466.66 588.32,462.46 591.27,458.25 594.20,454.03 597.16,449.82 600.11,447.29 603.04,444.76 605.99,442.22 608.94,439.69 611.88,437.15 614.83,434.62 617.78,433.20 620.71,431.78 623.66,430.37 626.62,428.95 629.55,427.53 632.50,426.11 635.45,425.50 638.38,424.90 641.34,424.29 644.29,423.69 647.22,423.08 650.17,422.48 653.12,422.68 656.06,422.89 659.01,423.09 661.96,423.31 664.89,423.51 667.84,423.71 670.80,425.13 673.73,426.56 676.68,427.97 679.63,429.40 682.57,430.81 685.52,432.24 688.47,435.90 691.40,439.56 694.35,443.22 697.30,446.87 700.24,450.53 703.19,454.19 706.14,462.18 709.07,470.17 712.03,478.16 714.98,486.15 717.91,494.14 720.86,502.13 723.81,511.32 726.75,520.52 729.70,529.73 732.65,538.93 735.58,548.13 738.53,557.33 741.49,563.82 744.42,570.32 747.37,576.81 750.32,583.31 753.26,589.80 756.21,596.29 759.16,600.99 762.09,605.68 765.04,610.37 767.99,615.07 770.93,619.76 773.88,624.45 776.83,627.79 779.76,631.13 782.72,634.48 785.67,637.82 788.60,641.16 791.55,644.50 794.50,646.61 797.44,648.72 800.39,650.83 803.34,652.94 806.27,655.05 809.22,657.16 812.18,657.89 815.11,658.62 818.06,659.36 821.01,660.09 823.95,660.82 826.90,661.55 829.85,660.45 832.78,659.35 835.73,658.25 838.68,657.14 841.62,656.04 844.57,654.94 847.52,651.17 850.45,647.40 853.41,643.64 856.36,639.87 859.29,636.10 862.24,632.33 865.19,624.70 868.13,617.07 871.08,609.44 874.03,601.80 876.96,594.17 879.91,586.54 882.87,573.59 885.80,560.64 888.75,547.69 891.70,534.74 894.63,521.80 897.59,508.85 900.54,495.50 903.47,482.14 906.42,468.80 909.37,455.45 912.31,442.09 915.26,428.75 918.21,419.41 921.14,410.09 924.09,400.76 927.05,391.43 929.98,382.10 932.93,372.77 935.88,365.48 938.82,358.18 941.77,350.89 944.72,343.59 947.65,336.30 950.60,329.01 953.55,322.61 956.49,316.21 959.44,309.82 962.39,303.42 965.32,297.02 968.28,290.63 971.23,284.53 974.16,278.44 977.11,272.34 980.06,266.24 983.00,260.15 985.95,254.05 988.90,248.02 991.83,242.00 994.78,235.98 997.74,229.95 1000.67,223.93 1003.62,217.90 1006.57,212.07 1009.51,206.24 1012.46,200.41 1015.41,194.59 1018.34,188.76 1021.29,182.93 1024.24,177.72 1027.18,172.49 1030.13,167.27 1033.08,162.05 1036.01,156.83 1038.97,151.62 1041.92,147.65 1044.85,143.69 1047.80,139.73 1050.75,135.77 1053.69,131.80 1056.64,127.85 1059.59,126.28 1062.52,124.72 1065.47,123.15 1068.43,121.58 1071.36,120.02 1074.31,118.45" fill="none" stroke="#000000" stroke-width="3"/>
<line x1="142" y1="100" x2="178" y2="100" stroke="#000000" stroke-width="4"/>
<text x="188" y="105" font-family="Arial" font-size="18" fill="black">p_rgh</text>
</svg>