<svg xmlns="http://www.w3.org/2000/svg" width="1200" height="820" viewBox="0 0 1200 820">
<rect width="100%" height="100%" fill="white"/>
<text x="600.0" y="36" text-anchor="middle" font-family="Arial" font-size="24" fill="black">profile_center_y: T</text>
<line x1="120.00" y1="75" x2="120.00" y2="705" stroke="#dddddd" stroke-width="1"/>
<text x="120.00" y="737" text-anchor="middle" font-family="Arial" font-size="16" fill="black">-0.400</text>
<line x1="376.25" y1="75" x2="376.25" y2="705" stroke="#dddddd" stroke-width="1"/>
<text x="376.25" y="737" text-anchor="middle" font-family="Arial" font-size="16" fill="black">1.050</text>
<line x1="632.50" y1="75" x2="632.50" y2="705" stroke="#dddddd" stroke-width="1"/>
<text x="632.50" y="737" text-anchor="middle" font-family="Arial" font-size="16" fill="black">2.500</text>
<line x1="888.75" y1="75" x2="888.75" y2="705" stroke="#dddddd" stroke-width="1"/>
<text x="888.75" y="737" text-anchor="middle" font-family="Arial" font-size="16" fill="black">3.950</text>
<line x1="1145.00" y1="75" x2="1145.00" y2="705" stroke="#dddddd" stroke-width="1"/>
<text x="1145.00" y="737" text-anchor="middle" font-family="Arial" font-size="16" fill="black">5.400</text>
<line x1="120" y1="705.00" x2="1145" y2="705.00" stroke="#dddddd" stroke-width="1"/>
<text x="104" y="710.00" text-anchor="end" font-family="Arial" font-size="16" fill="black">328.7</text>
<line x1="120" y1="547.50" x2="1145" y2="547.50" stroke="#dddddd" stroke-width="1"/>
<text x="104" y="552.50" text-anchor="end" font-family="Arial" font-size="16" fill="black">332.6</text>
<line x1="120" y1="390.00" x2="1145" y2="390.00" stroke="#dddddd" stroke-width="1"/>
<text x="104" y="395.00" text-anchor="end" font-family="Arial" font-size="16" fill="black">336.5</text>
<line x1="120" y1="232.50" x2="1145" y2="232.50" stroke="#dddddd" stroke-width="1"/>
<text x="104" y="237.50" text-anchor="end" font-family="Arial" font-size="16" fill="black">340.3</text>
<line x1="120" y1="75.00" x2="1145" y2="75.00" stroke="#dddddd" stroke-width="1"/>
<text x="104" y="80.00" text-anchor="end" font-family="Arial" font-size="16" fill="black">344.2</text>
<rect x="120" y="75" width="1025" height="630" fill="none" stroke="black" stroke-width="2"/>
<text x="632.5" y="785" text-anchor="middle" font-family="Arial" font-size="20" fill="black">y coordinate [m]</text>
<text x="34" y="390.0" transform="rotate(-90 34 390.0)" text-anchor="middle" font-family="Arial" font-size="20" fill="black">T [K]</text>
<polyline points="190.69,438.85 193.64,444.96 196.58,451.48 199.53,457.58 202.47,464.10 205.42,470.20 208.36,476.72 211.31,488.12 214.25,499.52 217.20,511.32 220.14,522.72 223.09,534.12 226.03,545.52 228.98,553.26 231.92,560.58 234.87,567.91 237.82,575.24 240.76,582.57 243.71,589.90 246.65,590.71 249.60,591.53 252.54,592.34 255.49,593.15 258.43,593.56 261.38,594.38 264.33,589.49 267.27,584.61 270.22,579.31 273.16,574.43 276.11,569.54 279.05,564.25 282.00,556.51 284.94,548.78 287.89,540.64 290.83,532.90 293.78,525.17 296.72,517.02 299.67,508.88 302.61,500.33 305.56,491.78 308.51,483.23 311.45,474.68 314.40,466.13 317.34,457.99 320.29,449.85 323.23,441.70 326.18,433.16 329.12,425.01 332.07,416.87 335.01,408.73 337.96,400.18 340.91,392.04 343.85,383.89 346.80,375.34 349.74,367.20 352.69,356.62 355.63,346.03 358.58,335.45 361.52,324.86 364.47,314.68 367.41,304.10 370.37,293.51 373.30,282.93 376.25,272.75 379.20,262.16 382.13,251.58 385.09,241.40 388.04,234.48 390.97,227.96 393.92,221.45 396.87,214.94 399.81,208.42 402.76,201.91 405.71,198.65 408.64,195.80 411.59,192.95 414.55,189.69 417.48,186.85 420.43,183.59 423.38,183.59 426.32,183.59 429.27,183.18 432.22,183.18 435.15,182.77 438.10,182.77 441.05,184.40 443.99,186.03 446.94,188.07 449.89,189.69 452.82,191.32 455.78,193.36 458.73,196.21 461.66,198.65 464.61,201.50 467.56,204.35 470.50,207.20 473.45,210.05 476.40,212.90 479.33,216.16 482.28,219.42 485.24,222.26 488.17,225.52 491.12,228.78 494.07,231.63 497.01,234.89 499.96,238.14 502.91,241.40 505.84,244.66 508.79,247.91 511.74,251.98 514.68,256.06 517.63,260.13 520.58,264.20 523.51,268.27 526.47,272.34 529.42,279.67 532.35,287.00 535.30,294.33 538.25,301.65 541.19,308.98 544.14,316.31 547.09,324.45 550.02,332.60 552.97,341.15 555.93,349.29 558.86,357.43 561.81,365.57 564.76,371.27 567.70,376.56 570.65,381.86 573.60,387.15 576.53,392.44 579.48,397.74 582.43,400.99 585.37,403.84 588.32,406.69 591.27,409.54 594.20,412.39 597.16,415.65 600.11,416.46 603.04,417.68 605.99,418.50 608.94,419.31 611.88,420.53 614.83,421.35 617.78,420.94 620.71,420.53 623.66,420.13 626.62,419.31 629.55,418.91 632.50,418.50 635.45,416.87 638.38,415.24 641.34,413.61 644.29,412.39 647.22,410.76 650.17,409.13 653.12,407.10 656.06,404.66 659.01,402.62 661.96,400.18 664.89,398.14 667.84,395.70 670.80,392.85 673.73,390.00 676.68,387.15 679.63,383.89 682.57,381.04 685.52,378.19 688.47,373.72 691.40,369.24 694.35,364.76 697.30,359.87 700.24,355.39 703.19,350.92 706.14,342.77 709.07,335.04 712.03,326.90 714.98,318.75 717.91,310.61 720.86,302.47 723.81,293.10 726.75,283.33 729.70,273.97 732.65,264.20 735.58,254.43 738.53,245.06 741.49,237.33 744.42,229.59 747.37,221.86 750.32,213.72 753.26,205.98 756.21,198.24 759.16,192.14 762.09,186.44 765.04,180.33 767.99,174.22 770.93,168.52 773.88,162.42 776.83,157.94 779.76,153.87 782.72,149.80 785.67,145.32 788.60,141.25 791.55,136.77 794.50,134.33 797.44,131.88 800.39,129.44 803.34,126.59 806.27,124.15 809.22,121.71 812.18,121.30 815.11,120.48 818.06,120.08 821.01,119.26 823.95,118.86 826.90,118.45 829.85,120.08 832.78,122.11 835.73,123.74 838.68,125.78 841.62,127.41 844.57,129.44 847.52,134.33 850.45,139.62 853.41,144.50 856.36,149.80 859.29,154.68 862.24,159.97 865.19,169.75 868.13,179.11 871.08,188.88 874.03,198.65 876.96,208.02 879.91,217.79 882.87,233.66 885.80,249.54 888.75,265.42 891.70,281.30 894.63,297.18 897.59,312.65 900.54,330.97 903.47,348.88 906.42,366.79 909.37,384.71 912.31,402.62 915.26,420.53 918.21,435.60 921.14,450.25 924.09,465.32 927.05,479.97 929.98,495.04 932.93,509.69 935.88,521.09 938.82,532.90 941.77,544.30 944.72,555.70 947.65,567.10 950.60,578.50 953.55,586.23 956.49,593.97 959.44,601.70 962.39,609.44 965.32,617.18 968.28,625.32 971.23,629.39 974.16,633.87 977.11,637.94 980.06,642.42 983.00,646.90 985.95,650.97 988.90,653.00 991.83,654.63 994.78,656.26 997.74,657.89 1000.67,659.52 1003.62,661.55 1006.57,660.74 1009.51,660.33 1012.46,659.92 1015.41,659.11 1018.34,658.70 1021.29,658.29 1024.24,655.04 1027.18,651.78 1030.13,648.52 1033.08,645.27 1036.01,642.01 1038.97,638.75 1041.92,631.42 1044.85,623.69 1047.80,616.36 1050.75,608.63 1053.69,601.30 1056.64,593.56 1059.59,588.68 1062.52,583.38 1065.47,578.09 1068.43,573.21 1071.36,567.91 1074.31,562.62" fill="none" stroke="#000000" stroke-width="3"/>
<line x1="142" y1="100" x2="178" y2="100" stroke="#000000" stroke-width="4"/>
<text x="188" y="105" font-family="Arial" font-size="18" fill="black">T</text>
</svg>