<svg xmlns="http://www.w3.org/2000/svg" width="1200" height="820" viewBox="0 0 1200 820">
<rect width="100%" height="100%" fill="white"/>
<text x="600.0" y="36" text-anchor="middle" font-family="Arial" font-size="24" fill="black">profile_near_floor_x: vorticity:1</text>
<line x1="120.00" y1="75" x2="120.00" y2="705" stroke="#dddddd" stroke-width="1"/>
<text x="120.00" y="737" text-anchor="middle" font-family="Arial" font-size="16" fill="black">-0.560</text>
<line x1="376.25" y1="75" x2="376.25" y2="705" stroke="#dddddd" stroke-width="1"/>
<text x="376.25" y="737" text-anchor="middle" font-family="Arial" font-size="16" fill="black">1.470</text>
<line x1="632.50" y1="75" x2="632.50" y2="705" stroke="#dddddd" stroke-width="1"/>
<text x="632.50" y="737" text-anchor="middle" font-family="Arial" font-size="16" fill="black">3.500</text>
<line x1="888.75" y1="75" x2="888.75" y2="705" stroke="#dddddd" stroke-width="1"/>
<text x="888.75" y="737" text-anchor="middle" font-family="Arial" font-size="16" fill="black">5.530</text>
<line x1="1145.00" y1="75" x2="1145.00" y2="705" stroke="#dddddd" stroke-width="1"/>
<text x="1145.00" y="737" text-anchor="middle" font-family="Arial" font-size="16" fill="black">7.560</text>
<line x1="120" y1="705.00" x2="1145" y2="705.00" stroke="#dddddd" stroke-width="1"/>
<text x="104" y="710.00" text-anchor="end" font-family="Arial" font-size="16" fill="black">-2.773</text>
<line x1="120" y1="547.50" x2="1145" y2="547.50" stroke="#dddddd" stroke-width="1"/>
<text x="104" y="552.50" text-anchor="end" font-family="Arial" font-size="16" fill="black">-1.389</text>
<line x1="120" y1="390.00" x2="1145" y2="390.00" stroke="#dddddd" stroke-width="1"/>
<text x="104" y="395.00" text-anchor="end" font-family="Arial" font-size="16" fill="black">-0.006</text>
<line x1="120" y1="232.50" x2="1145" y2="232.50" stroke="#dddddd" stroke-width="1"/>
<text x="104" y="237.50" text-anchor="end" font-family="Arial" font-size="16" fill="black">1.377</text>
<line x1="120" y1="75.00" x2="1145" y2="75.00" stroke="#dddddd" stroke-width="1"/>
<text x="104" y="80.00" text-anchor="end" font-family="Arial" font-size="16" fill="black">2.760</text>
<rect x="120" y="75" width="1025" height="630" fill="none" stroke="black" stroke-width="2"/>
<text x="632.5" y="785" text-anchor="middle" font-family="Arial" font-size="20" fill="black">x coordinate [m]</text>
<text x="34" y="390.0" transform="rotate(-90 34 390.0)" text-anchor="middle" font-family="Arial" font-size="20" fill="black">vorticity:1 [SI]</text>
<polyline points="190.69,480.28 193.64,462.40 196.58,444.52 199.53,426.64 202.47,408.76 205.42,389.85 208.36,370.54 211.31,351.22 214.25,331.91 217.20,319.26 220.14,315.51 223.09,311.76 226.03,308.02 228.98,304.18 231.93,299.81 234.87,295.44 237.82,291.07 240.76,286.70 243.71,283.57 246.65,280.63 249.60,277.70 252.54,274.77 255.49,273.83 258.43,274.40 261.38,274.96 264.32,275.53 267.27,277.87 270.22,284.66 273.16,291.46 276.11,298.25 279.05,305.04 282.00,322.63 284.94,340.21 287.89,357.79 290.83,375.38 293.78,400.63 296.72,428.95 299.67,457.28 302.62,485.60 305.56,509.33 308.51,526.94 311.45,544.54 314.40,562.15 317.34,575.52 320.29,563.53 323.23,551.54 326.17,539.55 329.13,527.56 332.07,508.75 335.01,488.81 337.96,468.87 340.91,448.93 343.85,434.61 346.80,424.51 349.74,414.41 352.68,404.31 355.64,395.22 358.58,388.68 361.52,382.14 364.47,375.60 367.41,369.06 370.35,363.16 373.31,357.27 376.25,351.38 379.19,345.49 382.15,337.87 385.09,329.57 388.03,321.27 390.98,312.97 393.92,299.94 396.86,280.61 399.82,261.28 402.76,241.95 405.70,222.43 408.65,201.75 411.59,181.06 414.54,160.39 417.49,139.71 420.43,139.71 423.37,143.17 426.33,146.63 429.27,150.08 432.21,165.90 435.16,190.98 438.10,216.08 441.04,241.16 444.00,265.83 446.94,289.44 449.88,313.05 452.83,336.66 455.78,360.27 458.72,372.60 461.67,384.94 464.61,397.27 467.55,409.61 470.51,413.29 473.45,413.52 476.39,413.74 479.34,413.97 482.28,409.68 485.23,399.35 488.18,389.03 491.12,378.71 494.06,368.45 497.02,358.58 499.96,348.71 502.90,338.84 505.85,328.97 508.79,325.46 511.73,323.01 514.69,320.56 517.63,318.11 520.57,319.00 523.52,322.40 526.47,325.79 529.41,329.19 532.36,334.32 535.30,343.79 538.24,353.26 541.20,362.73 544.14,372.20 547.08,393.48 550.03,414.77 552.97,436.06 555.92,457.35 558.87,484.71 561.81,514.50 564.75,544.29 567.71,574.08 570.65,595.31 573.59,605.14 576.54,614.98 579.48,624.81 582.42,630.01 585.38,607.44 588.32,584.86 591.26,562.29 594.21,539.72 597.16,516.17 600.10,492.45 603.05,468.73 605.99,445.00 608.93,428.95 611.89,418.65 614.83,408.36 617.77,398.06 620.72,388.68 623.66,381.63 626.60,374.57 629.56,367.51 632.50,360.45 635.44,353.31 638.40,346.17 641.34,339.03 644.28,331.89 647.23,322.59 650.17,312.41 653.11,302.24 656.07,292.07 659.01,277.47 661.95,256.99 664.90,236.49 667.84,216.01 670.79,195.70 673.74,176.38 676.68,157.08 679.62,137.78 682.58,118.47 685.52,118.45 688.46,121.65 691.41,124.84 694.35,128.04 697.29,139.86 700.25,158.14 703.19,176.44 706.13,194.73 709.08,212.34 712.03,228.25 714.97,244.16 717.92,260.07 720.86,275.97 723.80,285.58 726.76,295.19 729.70,304.81 732.64,314.42 735.59,322.09 738.53,328.97 741.48,335.86 744.43,342.75 747.37,348.55 750.31,352.92 753.27,357.29 756.21,361.65 759.15,364.76 762.10,360.31 765.04,355.87 767.98,351.43 770.94,346.98 773.88,339.28 776.82,331.03 779.77,322.79 782.72,314.54 785.66,314.61 788.61,320.92 791.55,327.23 794.49,333.54 797.45,344.21 800.39,365.80 803.33,387.39 806.28,408.98 809.22,430.57 812.17,459.68 815.12,488.80 818.06,517.91 821.00,547.02 823.96,573.28 826.90,598.39 829.84,623.51 832.79,648.62 835.73,661.55 838.67,658.25 841.63,654.94 844.57,651.63 847.51,644.62 850.46,615.33 853.41,586.06 856.35,556.78 859.30,527.50 862.24,504.80 865.18,483.20 868.14,461.59 871.08,439.99 874.02,426.58 876.97,419.33 879.91,412.07 882.85,404.82 885.81,397.90 888.75,391.83 891.69,385.76 894.65,379.69 897.59,373.62 900.53,366.78 903.48,359.93 906.42,353.08 909.36,346.24 912.32,336.90 915.26,326.58 918.20,316.25 921.15,305.92 924.09,291.14 927.04,270.42 929.99,249.70 932.93,228.98 935.87,209.06 938.83,194.05 941.77,179.01 944.71,163.98 947.66,148.96 950.60,158.31 953.54,171.74 956.50,185.16 959.44,198.58 962.38,219.05 965.33,244.81 968.28,270.56 971.22,296.32 974.17,319.30 977.11,335.34 980.05,351.38 983.01,367.42 985.95,383.46 988.89,388.91 991.84,394.36 994.78,399.81 997.73,405.27 1000.68,407.19 1003.62,407.71 1006.56,408.23 1009.52,408.75 1012.46,408.82 1015.40,408.30 1018.35,407.77 1021.29,407.25 1024.23,406.81 1027.19,406.89 1030.13,406.97 1033.07,407.05 1036.02,407.13 1038.97,408.33 1041.91,409.72 1044.86,411.10 1047.80,412.49 1050.74,401.30 1053.70,380.67 1056.64,360.05 1059.58,339.43 1062.53,318.49 1065.47,296.75 1068.42,275.00 1071.37,253.27 1074.31,231.52" fill="none" stroke="#000000" stroke-width="3"/>
<line x1="142" y1="100" x2="178" y2="100" stroke="#000000" stroke-width="4"/>
<text x="188" y="105" font-family="Arial" font-size="18" fill="black">vorticity:1</text>
</svg>