<svg xmlns="http://www.w3.org/2000/svg" width="1200" height="820" viewBox="0 0 1200 820">
<rect width="100%" height="100%" fill="white"/>
<text x="600.0" y="36" text-anchor="middle" font-family="Arial" font-size="24" fill="black">profile_diagonal_supply_return: U:0</text>
<line x1="120.00" y1="75" x2="120.00" y2="705" stroke="#dddddd" stroke-width="1"/>
<text x="120.00" y="737" text-anchor="middle" font-family="Arial" font-size="16" fill="black">-0.729</text>
<line x1="376.25" y1="75" x2="376.25" y2="705" stroke="#dddddd" stroke-width="1"/>
<text x="376.25" y="737" text-anchor="middle" font-family="Arial" font-size="16" fill="black">1.913</text>
<line x1="632.50" y1="75" x2="632.50" y2="705" stroke="#dddddd" stroke-width="1"/>
<text x="632.50" y="737" text-anchor="middle" font-family="Arial" font-size="16" fill="black">4.555</text>
<line x1="888.75" y1="75" x2="888.75" y2="705" stroke="#dddddd" stroke-width="1"/>
<text x="888.75" y="737" text-anchor="middle" font-family="Arial" font-size="16" fill="black">7.197</text>
<line x1="1145.00" y1="75" x2="1145.00" y2="705" stroke="#dddddd" stroke-width="1"/>
<text x="1145.00" y="737" text-anchor="middle" font-family="Arial" font-size="16" fill="black">9.839</text>
<line x1="120" y1="705.00" x2="1145" y2="705.00" stroke="#dddddd" stroke-width="1"/>
<text x="104" y="710.00" text-anchor="end" font-family="Arial" font-size="16" fill="black">-0.304</text>
<line x1="120" y1="547.50" x2="1145" y2="547.50" stroke="#dddddd" stroke-width="1"/>
<text x="104" y="552.50" text-anchor="end" font-family="Arial" font-size="16" fill="black">-0.154</text>
<line x1="120" y1="390.00" x2="1145" y2="390.00" stroke="#dddddd" stroke-width="1"/>
<text x="104" y="395.00" text-anchor="end" font-family="Arial" font-size="16" fill="black">-0.004</text>
<line x1="120" y1="232.50" x2="1145" y2="232.50" stroke="#dddddd" stroke-width="1"/>
<text x="104" y="237.50" text-anchor="end" font-family="Arial" font-size="16" fill="black">0.146</text>
<line x1="120" y1="75.00" x2="1145" y2="75.00" stroke="#dddddd" stroke-width="1"/>
<text x="104" y="80.00" text-anchor="end" font-family="Arial" font-size="16" fill="black">0.296</text>
<rect x="120" y="75" width="1025" height="630" fill="none" stroke="black" stroke-width="2"/>
<text x="632.5" y="785" text-anchor="middle" font-family="Arial" font-size="20" fill="black">distance along sample line [m]</text>
<text x="34" y="390.0" transform="rotate(-90 34 390.0)" text-anchor="middle" font-family="Arial" font-size="20" fill="black">U:0 [SI]</text>
<polyline points="190.69,369.48 193.64,366.19 196.58,362.63 199.53,358.81 202.47,354.74 205.42,347.67 208.36,339.22 211.31,328.99 214.25,318.15 217.20,306.73 220.14,294.97 223.09,283.70 226.03,272.40 228.98,263.50 231.93,256.44 234.87,249.24 237.82,241.85 240.76,234.28 243.71,228.27 246.65,223.59 249.60,218.73 252.54,213.47 255.49,209.07 258.43,205.31 261.38,201.42 264.32,198.31 267.27,195.47 270.22,193.50 273.16,191.40 276.11,189.15 279.05,186.75 282.00,185.73 284.94,184.59 287.88,183.33 290.83,181.96 293.78,181.13 296.73,180.44 299.67,179.97 302.62,179.35 305.57,178.85 308.50,178.52 311.45,177.85 314.40,177.07 317.34,176.17 320.29,175.40 323.24,174.43 326.18,173.23 329.12,171.80 332.07,170.32 335.01,168.17 337.96,165.66 340.91,163.30 343.85,160.96 346.80,158.58 349.74,155.96 352.68,152.55 355.63,149.08 358.58,145.90 361.53,142.44 364.47,138.68 367.42,134.60 370.36,132.34 373.30,129.96 376.25,127.46 379.20,124.82 382.14,123.52 385.09,122.68 388.04,121.06 390.97,119.31 393.92,118.45 396.87,118.84 399.81,120.50 402.76,122.11 405.71,123.16 408.65,125.99 411.59,128.73 414.54,131.41 417.48,134.03 420.43,137.90 423.38,140.96 426.32,143.95 429.27,148.07 432.21,152.48 435.16,157.11 438.10,161.64 441.05,165.11 444.00,168.46 446.94,171.73 449.89,174.95 452.84,178.13 455.77,181.28 458.72,184.05 461.67,186.72 464.61,189.30 467.56,191.81 470.51,193.66 473.45,195.28 476.39,196.31 479.34,197.28 482.28,197.84 485.23,197.94 488.18,198.97 491.12,199.99 494.07,200.47 497.01,200.29 499.96,200.13 502.90,200.01 505.85,199.91 508.80,199.49 511.74,198.85 514.69,198.26 517.63,198.45 520.57,198.48 523.52,198.47 526.47,198.52 529.41,198.54 532.36,198.54 535.31,198.59 538.24,198.76 541.19,199.04 544.14,199.44 547.08,200.67 550.03,201.95 552.98,203.29 555.92,204.69 558.86,206.39 561.81,208.32 564.76,210.72 567.70,213.23 570.65,216.03 573.60,219.23 576.54,222.96 579.49,226.87 582.43,231.50 585.37,236.61 588.32,241.98 591.27,247.61 594.21,253.49 597.16,259.88 600.11,267.25 603.04,274.92 605.99,283.26 608.94,291.99 611.88,301.10 614.83,310.52 617.78,320.79 620.72,331.35 623.66,342.23 626.61,353.33 629.55,364.63 632.50,376.14 635.45,388.02 638.40,399.82 641.34,411.53 644.28,423.14 647.23,434.20 650.17,444.93 653.12,455.08 656.07,464.98 659.01,474.29 661.96,482.91 664.90,491.08 667.84,498.95 670.79,505.81 673.74,511.69 676.68,517.28 679.63,522.58 682.58,527.60 685.51,531.67 688.46,534.84 691.41,537.77 694.35,539.98 697.30,541.50 700.25,542.47 703.20,543.22 706.14,543.43 709.08,543.26 712.03,542.36 714.97,541.31 717.92,540.12 720.87,538.80 723.81,536.16 726.76,533.51 729.70,530.86 732.64,528.22 735.59,525.06 738.54,521.71 741.48,518.59 744.43,515.55 747.38,512.32 750.31,508.81 753.26,505.31 756.21,501.98 759.15,499.00 762.10,495.76 765.05,492.71 767.99,489.85 770.93,487.18 773.88,484.41 776.83,481.91 779.77,479.60 782.72,477.45 785.67,475.43 788.61,473.54 791.55,471.83 794.50,470.10 797.44,468.53 800.39,467.14 803.34,465.85 806.28,464.68 809.23,463.60 812.17,462.27 815.11,461.00 818.06,459.78 821.01,458.62 823.95,457.61 826.90,456.67 829.85,455.21 832.79,453.81 835.73,452.43 838.68,451.05 841.63,449.72 844.57,448.47 847.52,447.09 850.47,445.70 853.41,444.47 856.35,443.44 859.30,442.60 862.24,441.93 865.19,441.77 868.14,441.94 871.08,442.41 874.03,443.33 876.97,444.68 879.91,446.38 882.86,448.96 885.81,452.03 888.75,455.65 891.70,459.68 894.65,464.15 897.58,469.08 900.53,474.00 903.48,479.21 906.43,484.75 909.37,490.64 912.32,496.77 915.27,503.18 918.20,509.51 921.15,516.17 924.10,523.02 927.04,529.93 929.99,535.56 932.94,541.49 935.88,547.06 938.82,552.53 941.77,558.32 944.71,564.45 947.66,570.97 950.61,577.27 953.55,583.00 956.50,589.02 959.44,593.20 962.38,597.43 965.33,601.81 968.28,606.77 971.22,611.23 974.17,615.83 977.12,620.03 980.06,624.64 983.00,629.66 985.95,635.09 988.90,636.98 991.84,639.86 994.79,643.76 997.74,648.69 1000.68,652.13 1003.62,655.16 1006.57,657.84 1009.51,660.81 1012.46,661.55 1015.41,658.59 1018.35,657.03 1021.30,654.31 1024.24,648.50 1027.18,638.43 1030.13,626.44 1033.08,612.50 1036.02,596.58 1038.97,582.23 1041.92,566.83 1044.86,550.58 1047.80,533.04 1050.75,516.94 1053.70,501.96 1056.64,486.61 1059.59,470.20 1062.54,456.34 1065.47,449.22 1068.42,442.06 1071.37,434.86 1074.31,427.63" fill="none" stroke="#000000" stroke-width="3"/>
<line x1="142" y1="100" x2="178" y2="100" stroke="#000000" stroke-width="4"/>
<text x="188" y="105" font-family="Arial" font-size="18" fill="black">U:0</text>
</svg>