<svg xmlns="http://www.w3.org/2000/svg" width="1200" height="820" viewBox="0 0 1200 820">
<rect width="100%" height="100%" fill="white"/>
<text x="600.0" y="36" text-anchor="middle" font-family="Arial" font-size="24" fill="black">profile_near_floor_x: velocity magnitude</text>
<line x1="120.00" y1="75" x2="120.00" y2="705" stroke="#dddddd" stroke-width="1"/>
<text x="120.00" y="737" text-anchor="middle" font-family="Arial" font-size="16" fill="black">-0.560</text>
<line x1="376.25" y1="75" x2="376.25" y2="705" stroke="#dddddd" stroke-width="1"/>
<text x="376.25" y="737" text-anchor="middle" font-family="Arial" font-size="16" fill="black">1.470</text>
<line x1="632.50" y1="75" x2="632.50" y2="705" stroke="#dddddd" stroke-width="1"/>
<text x="632.50" y="737" text-anchor="middle" font-family="Arial" font-size="16" fill="black">3.500</text>
<line x1="888.75" y1="75" x2="888.75" y2="705" stroke="#dddddd" stroke-width="1"/>
<text x="888.75" y="737" text-anchor="middle" font-family="Arial" font-size="16" fill="black">5.530</text>
<line x1="1145.00" y1="75" x2="1145.00" y2="705" stroke="#dddddd" stroke-width="1"/>
<text x="1145.00" y="737" text-anchor="middle" font-family="Arial" font-size="16" fill="black">7.560</text>
<line x1="120" y1="705.00" x2="1145" y2="705.00" stroke="#dddddd" stroke-width="1"/>
<text x="104" y="710.00" text-anchor="end" font-family="Arial" font-size="16" fill="black">0.022</text>
<line x1="120" y1="547.50" x2="1145" y2="547.50" stroke="#dddddd" stroke-width="1"/>
<text x="104" y="552.50" text-anchor="end" font-family="Arial" font-size="16" fill="black">0.138</text>
<line x1="120" y1="390.00" x2="1145" y2="390.00" stroke="#dddddd" stroke-width="1"/>
<text x="104" y="395.00" text-anchor="end" font-family="Arial" font-size="16" fill="black">0.255</text>
<line x1="120" y1="232.50" x2="1145" y2="232.50" stroke="#dddddd" stroke-width="1"/>
<text x="104" y="237.50" text-anchor="end" font-family="Arial" font-size="16" fill="black">0.371</text>
<line x1="120" y1="75.00" x2="1145" y2="75.00" stroke="#dddddd" stroke-width="1"/>
<text x="104" y="80.00" text-anchor="end" font-family="Arial" font-size="16" fill="black">0.488</text>
<rect x="120" y="75" width="1025" height="630" fill="none" stroke="black" stroke-width="2"/>
<text x="632.5" y="785" text-anchor="middle" font-family="Arial" font-size="20" fill="black">x coordinate [m]</text>
<text x="34" y="390.0" transform="rotate(-90 34 390.0)" text-anchor="middle" font-family="Arial" font-size="20" fill="black">|U| [m/s]</text>
<polyline points="190.69,352.69 193.64,366.68 196.58,380.66 199.53,394.65 202.47,408.64 205.42,425.90 208.36,444.47 211.31,463.04 214.25,481.61 217.20,494.86 220.14,501.00 223.09,507.14 226.03,513.29 228.98,518.88 231.93,521.11 234.87,523.36 237.82,525.59 240.76,527.83 243.71,527.81 246.65,527.39 249.60,526.98 252.54,526.58 255.49,523.67 258.43,518.91 261.38,514.13 264.32,509.36 267.27,503.26 270.22,493.83 273.16,484.41 276.11,474.99 279.05,465.56 282.00,453.32 284.94,441.09 287.89,428.85 290.83,416.60 293.78,405.19 296.72,394.10 299.67,383.00 302.62,371.91 305.56,362.92 308.51,356.74 311.45,350.55 314.40,344.37 317.34,337.24 320.29,324.42 323.23,311.58 326.17,298.75 329.13,285.92 332.07,278.89 335.01,272.83 337.96,266.77 340.91,260.71 343.85,256.18 346.80,252.78 349.74,249.40 352.68,246.02 355.64,242.85 358.58,240.24 361.52,237.63 364.47,235.02 367.41,232.42 370.35,230.71 373.31,228.99 376.25,227.28 379.19,225.57 382.15,224.61 385.09,223.94 388.03,223.28 390.98,222.62 393.92,223.73 396.86,227.18 399.82,230.63 402.76,234.09 405.70,239.81 408.65,259.10 411.59,278.39 414.54,297.68 417.49,316.97 420.43,339.95 423.37,363.55 426.33,387.14 429.27,410.75 432.21,428.47 435.16,441.79 438.10,455.10 441.04,468.41 444.00,480.63 446.94,490.11 449.88,499.58 452.83,509.06 455.78,518.53 458.72,531.31 461.67,544.09 464.61,556.89 467.55,569.67 470.51,583.44 473.45,597.62 476.39,611.80 479.34,625.98 482.28,636.90 485.23,643.50 488.18,650.10 491.12,656.70 494.06,661.55 497.02,655.92 499.96,650.28 502.90,644.64 505.85,639.01 508.79,628.77 511.73,617.76 514.69,606.76 517.63,595.75 520.57,583.59 523.52,570.57 526.47,557.53 529.41,544.50 532.36,532.31 535.30,522.23 538.24,512.16 541.20,502.08 544.14,492.00 547.08,486.32 550.03,480.64 552.97,474.96 555.92,469.28 558.87,466.50 561.81,464.88 564.75,463.26 567.71,461.63 570.65,453.48 573.59,436.58 576.54,419.70 579.48,402.81 582.42,384.25 585.38,355.64 588.32,327.03 591.26,298.42 594.21,269.81 597.16,257.58 600.10,248.09 603.05,238.61 605.99,229.11 608.93,223.25 611.89,220.12 614.83,216.98 617.77,213.84 620.72,211.40 623.66,210.71 626.60,210.01 629.56,209.32 632.50,208.63 635.44,208.47 638.40,208.32 641.34,208.17 644.28,208.01 647.23,207.20 650.17,206.13 653.11,205.05 656.07,203.98 659.01,203.13 661.95,202.58 664.90,202.04 667.84,201.49 670.79,202.06 673.74,209.27 676.68,216.49 679.62,223.70 682.58,230.91 685.52,236.17 688.46,241.12 691.41,246.06 694.35,251.00 697.29,254.47 700.25,256.84 703.19,259.21 706.13,261.57 709.08,263.74 712.03,265.42 714.97,267.08 717.92,268.76 720.86,270.42 723.80,276.60 726.76,282.78 729.70,288.95 732.64,295.13 735.59,304.40 738.53,314.91 741.48,325.42 744.43,335.93 747.37,346.75 750.31,358.01 753.27,369.25 756.21,380.50 759.15,391.58 762.10,401.63 765.04,411.68 767.98,421.73 770.94,431.78 773.88,444.69 776.82,458.05 779.77,471.41 782.72,484.78 785.66,495.28 788.61,503.61 791.55,511.93 794.49,520.26 797.45,524.71 800.39,519.48 803.33,514.24 806.28,509.01 809.22,503.77 812.17,500.58 815.12,497.39 818.06,494.21 821.00,491.01 823.96,487.32 826.90,483.44 829.84,479.56 832.79,475.66 835.73,458.29 838.67,422.93 841.63,387.59 844.57,352.23 847.51,317.72 850.46,288.28 853.41,258.83 856.35,229.37 859.30,199.92 862.24,193.63 865.18,191.18 868.14,188.75 871.08,186.31 874.02,185.42 876.97,185.69 879.91,185.96 882.85,186.23 885.81,186.76 888.75,187.92 891.69,189.08 894.65,190.25 897.59,191.42 900.53,193.37 903.48,195.33 906.42,197.28 909.36,199.24 912.32,201.54 915.26,203.98 918.20,206.43 921.15,208.86 924.09,212.28 927.04,217.02 929.99,221.75 932.93,226.49 935.87,232.14 938.83,243.34 941.77,254.55 944.71,265.75 947.66,276.97 950.60,279.12 953.54,279.77 956.50,280.40 959.44,281.05 962.38,279.46 965.33,276.20 968.28,272.92 971.22,269.66 974.17,265.19 977.11,257.68 980.05,250.17 983.01,242.68 985.95,235.17 988.89,226.49 991.84,217.80 994.78,209.12 997.73,200.43 1000.68,193.24 1003.62,186.62 1006.56,180.02 1009.52,173.41 1012.46,167.92 1015.40,163.88 1018.35,159.87 1021.29,155.85 1024.23,152.04 1027.19,149.53 1030.13,147.03 1033.07,144.54 1036.02,142.04 1038.97,140.06 1041.91,138.20 1044.86,136.32 1047.80,134.44 1050.74,132.42 1053.70,130.28 1056.64,128.16 1059.58,126.02 1062.53,124.10 1065.47,122.68 1068.42,121.28 1071.37,119.86 1074.31,118.45" fill="none" stroke="#000000" stroke-width="3"/>
<line x1="142" y1="100" x2="178" y2="100" stroke="#000000" stroke-width="4"/>
<text x="188" y="105" font-family="Arial" font-size="18" fill="black">|U|</text>
</svg>