<svg xmlns="http://www.w3.org/2000/svg" width="1200" height="820" viewBox="0 0 1200 820">
<rect width="100%" height="100%" fill="white"/>
<text x="600.0" y="36" text-anchor="middle" font-family="Arial" font-size="24" fill="black">profile_diagonal_supply_return: vorticity:1</text>
<line x1="120.00" y1="75" x2="120.00" y2="705" stroke="#dddddd" stroke-width="1"/>
<text x="120.00" y="737" text-anchor="middle" font-family="Arial" font-size="16" fill="black">-0.729</text>
<line x1="376.25" y1="75" x2="376.25" y2="705" stroke="#dddddd" stroke-width="1"/>
<text x="376.25" y="737" text-anchor="middle" font-family="Arial" font-size="16" fill="black">1.913</text>
<line x1="632.50" y1="75" x2="632.50" y2="705" stroke="#dddddd" stroke-width="1"/>
<text x="632.50" y="737" text-anchor="middle" font-family="Arial" font-size="16" fill="black">4.555</text>
<line x1="888.75" y1="75" x2="888.75" y2="705" stroke="#dddddd" stroke-width="1"/>
<text x="888.75" y="737" text-anchor="middle" font-family="Arial" font-size="16" fill="black">7.197</text>
<line x1="1145.00" y1="75" x2="1145.00" y2="705" stroke="#dddddd" stroke-width="1"/>
<text x="1145.00" y="737" text-anchor="middle" font-family="Arial" font-size="16" fill="black">9.839</text>
<line x1="120" y1="705.00" x2="1145" y2="705.00" stroke="#dddddd" stroke-width="1"/>
<text x="104" y="710.00" text-anchor="end" font-family="Arial" font-size="16" fill="black">-0.854</text>
<line x1="120" y1="547.50" x2="1145" y2="547.50" stroke="#dddddd" stroke-width="1"/>
<text x="104" y="552.50" text-anchor="end" font-family="Arial" font-size="16" fill="black">-0.379</text>
<line x1="120" y1="390.00" x2="1145" y2="390.00" stroke="#dddddd" stroke-width="1"/>
<text x="104" y="395.00" text-anchor="end" font-family="Arial" font-size="16" fill="black">0.096</text>
<line x1="120" y1="232.50" x2="1145" y2="232.50" stroke="#dddddd" stroke-width="1"/>
<text x="104" y="237.50" text-anchor="end" font-family="Arial" font-size="16" fill="black">0.570</text>
<line x1="120" y1="75.00" x2="1145" y2="75.00" stroke="#dddddd" stroke-width="1"/>
<text x="104" y="80.00" text-anchor="end" font-family="Arial" font-size="16" fill="black">1.045</text>
<rect x="120" y="75" width="1025" height="630" fill="none" stroke="black" stroke-width="2"/>
<text x="632.5" y="785" text-anchor="middle" font-family="Arial" font-size="20" fill="black">distance along sample line [m]</text>
<text x="34" y="390.0" transform="rotate(-90 34 390.0)" text-anchor="middle" font-family="Arial" font-size="20" fill="black">vorticity:1 [SI]</text>
<polyline points="190.69,597.45 193.64,565.40 196.58,533.96 199.53,503.74 202.47,475.36 205.42,443.41 208.36,413.05 211.31,383.57 214.25,363.04 217.20,355.20 220.14,356.20 223.09,362.15 226.03,372.85 228.98,388.02 231.93,407.93 234.87,430.86 237.82,456.86 240.76,485.98 243.71,518.26 246.65,548.59 249.60,581.08 252.54,580.03 255.49,579.40 258.43,578.86 261.38,578.22 264.32,576.72 267.27,575.15 270.22,573.63 273.16,572.01 276.11,570.35 279.05,568.71 282.00,567.51 284.94,566.18 287.88,564.75 290.83,563.27 293.78,561.71 296.73,560.18 299.67,559.37 302.62,558.66 305.57,557.97 308.50,557.32 311.45,556.25 314.40,555.29 317.34,554.69 320.29,553.49 323.24,552.51 326.18,551.80 329.12,551.43 332.07,549.65 335.01,547.82 337.96,546.31 340.91,543.75 343.85,539.59 346.80,534.32 349.74,529.36 352.68,523.96 355.63,517.91 358.58,509.85 361.53,502.28 364.47,495.18 367.42,488.52 370.36,477.18 373.30,466.50 376.25,456.41 379.20,446.82 382.14,436.46 385.09,425.93 388.04,415.66 390.97,405.69 393.92,394.82 396.87,382.44 399.81,369.15 402.76,355.85 405.71,343.29 408.65,329.23 411.59,315.01 414.54,300.55 417.48,285.80 420.43,272.40 423.38,260.41 426.32,248.10 429.27,235.89 432.21,225.41 435.16,216.06 438.10,206.32 441.05,197.78 444.00,189.78 446.94,183.40 449.89,176.61 452.84,169.41 455.77,161.80 458.72,158.75 461.67,155.35 464.61,151.61 467.56,147.53 470.51,145.39 473.45,143.75 476.39,142.62 479.34,141.21 482.28,141.23 485.23,143.15 488.18,146.14 491.12,148.79 494.07,152.58 497.01,159.72 499.96,166.39 502.90,172.57 505.85,178.26 508.80,186.83 511.74,195.89 514.69,204.16 517.63,213.04 520.57,223.30 523.52,234.26 526.47,244.36 529.41,254.29 532.36,264.32 535.31,275.80 538.24,286.46 541.19,296.33 544.14,305.41 547.08,318.82 550.03,331.47 552.98,343.38 555.92,354.57 558.86,367.56 561.81,380.75 564.76,393.81 567.70,406.13 570.65,418.63 573.60,431.63 576.54,444.85 579.49,457.42 582.43,470.07 585.37,481.65 588.32,492.70 591.27,503.23 594.21,513.21 597.16,519.16 600.11,524.44 603.04,529.17 605.99,533.94 608.94,533.67 611.88,529.55 614.83,524.85 617.78,519.22 620.72,510.61 623.66,496.01 626.61,481.05 629.55,465.69 632.50,449.90 635.45,432.36 638.40,415.23 641.34,398.49 644.28,382.13 647.23,369.95 650.17,359.93 653.12,350.96 656.07,342.47 659.01,337.11 661.96,335.55 664.90,333.83 667.84,332.27 670.79,330.70 673.74,332.22 676.68,333.50 679.63,334.55 682.58,335.41 685.51,337.48 688.46,338.71 691.41,339.88 694.35,340.72 697.30,341.76 700.25,343.08 703.20,344.52 706.14,345.84 709.08,347.39 712.03,348.96 714.97,350.95 717.92,353.39 720.87,356.29 723.81,358.78 726.76,361.82 729.70,365.40 732.64,369.55 735.59,373.52 738.54,377.78 741.48,383.02 744.43,388.87 747.38,394.96 750.31,401.16 753.26,407.65 756.21,414.75 759.15,422.58 762.10,430.48 765.05,438.99 767.99,448.09 770.93,457.80 773.88,467.79 776.83,478.10 779.77,488.91 782.72,499.77 785.67,511.03 788.61,522.68 791.55,534.79 794.50,546.44 797.44,558.32 800.39,570.20 803.34,582.24 806.28,594.44 809.23,606.79 812.17,616.13 815.11,625.33 818.06,634.38 821.01,643.29 823.95,649.89 826.90,655.30 829.85,658.58 832.79,661.55 835.73,661.50 838.68,657.57 841.63,653.00 844.57,648.20 847.52,640.98 850.47,627.24 853.41,613.92 856.35,601.01 859.30,588.52 862.24,572.67 865.19,556.86 868.14,542.17 871.08,527.92 874.03,514.36 876.97,501.73 879.91,490.24 882.86,480.43 885.81,472.30 888.75,466.54 891.70,462.08 894.65,458.92 897.58,457.05 900.53,456.80 903.48,457.27 906.43,458.44 909.37,460.30 912.32,463.46 915.27,467.49 918.20,471.62 921.15,476.25 924.10,481.26 927.04,486.53 929.99,489.15 932.94,491.80 935.88,493.63 938.82,494.38 941.77,495.41 944.71,496.80 947.66,498.60 950.61,498.87 953.55,498.94 956.50,499.88 959.44,497.29 962.38,493.84 965.33,490.20 968.28,487.59 971.22,484.91 974.17,483.24 977.12,482.03 980.06,482.76 983.00,485.56 985.95,490.52 988.90,484.21 991.84,480.60 994.79,479.55 997.74,480.93 1000.68,483.24 1003.62,486.92 1006.57,483.77 1009.51,481.20 1012.46,476.91 1015.41,470.30 1018.35,414.07 1021.30,349.72 1024.24,277.90 1027.18,227.90 1030.13,189.90 1033.08,164.57 1036.02,152.57 1038.97,134.18 1041.92,122.67 1044.86,118.45 1047.80,122.92 1050.75,121.87 1053.70,123.16 1056.64,136.98 1059.59,160.06 1062.54,185.58 1065.47,200.77 1068.42,220.21 1071.37,243.24 1074.31,269.16" fill="none" stroke="#000000" stroke-width="3"/>
<line x1="142" y1="100" x2="178" y2="100" stroke="#000000" stroke-width="4"/>
<text x="188" y="105" font-family="Arial" font-size="18" fill="black">vorticity:1</text>
</svg>