<svg xmlns="http://www.w3.org/2000/svg" width="1200" height="820" viewBox="0 0 1200 820">
<rect width="100%" height="100%" fill="white"/>
<text x="600.0" y="36" text-anchor="middle" font-family="Arial" font-size="24" fill="black">profile_center_y: U:2</text>
<line x1="120.00" y1="75" x2="120.00" y2="705" stroke="#dddddd" stroke-width="1"/>
<text x="120.00" y="737" text-anchor="middle" font-family="Arial" font-size="16" fill="black">-0.400</text>
<line x1="376.25" y1="75" x2="376.25" y2="705" stroke="#dddddd" stroke-width="1"/>
<text x="376.25" y="737" text-anchor="middle" font-family="Arial" font-size="16" fill="black">1.050</text>
<line x1="632.50" y1="75" x2="632.50" y2="705" stroke="#dddddd" stroke-width="1"/>
<text x="632.50" y="737" text-anchor="middle" font-family="Arial" font-size="16" fill="black">2.500</text>
<line x1="888.75" y1="75" x2="888.75" y2="705" stroke="#dddddd" stroke-width="1"/>
<text x="888.75" y="737" text-anchor="middle" font-family="Arial" font-size="16" fill="black">3.950</text>
<line x1="1145.00" y1="75" x2="1145.00" y2="705" stroke="#dddddd" stroke-width="1"/>
<text x="1145.00" y="737" text-anchor="middle" font-family="Arial" font-size="16" fill="black">5.400</text>
<line x1="120" y1="705.00" x2="1145" y2="705.00" stroke="#dddddd" stroke-width="1"/>
<text x="104" y="710.00" text-anchor="end" font-family="Arial" font-size="16" fill="black">-0.573</text>
<line x1="120" y1="547.50" x2="1145" y2="547.50" stroke="#dddddd" stroke-width="1"/>
<text x="104" y="552.50" text-anchor="end" font-family="Arial" font-size="16" fill="black">-0.321</text>
<line x1="120" y1="390.00" x2="1145" y2="390.00" stroke="#dddddd" stroke-width="1"/>
<text x="104" y="395.00" text-anchor="end" font-family="Arial" font-size="16" fill="black">-0.068</text>
<line x1="120" y1="232.50" x2="1145" y2="232.50" stroke="#dddddd" stroke-width="1"/>
<text x="104" y="237.50" text-anchor="end" font-family="Arial" font-size="16" fill="black">0.185</text>
<line x1="120" y1="75.00" x2="1145" y2="75.00" stroke="#dddddd" stroke-width="1"/>
<text x="104" y="80.00" text-anchor="end" font-family="Arial" font-size="16" fill="black">0.438</text>
<rect x="120" y="75" width="1025" height="630" fill="none" stroke="black" stroke-width="2"/>
<text x="632.5" y="785" text-anchor="middle" font-family="Arial" font-size="20" fill="black">y coordinate [m]</text>
<text x="34" y="390.0" transform="rotate(-90 34 390.0)" text-anchor="middle" font-family="Arial" font-size="20" fill="black">U:2 [SI]</text>
<polyline points="190.69,259.76 193.64,261.33 196.58,262.91 199.53,264.48 202.47,266.06 205.42,267.63 208.36,269.20 211.31,273.58 214.25,277.96 217.20,282.33 220.14,286.70 223.09,291.07 226.03,295.45 228.98,301.66 231.92,307.88 234.87,314.09 237.82,320.31 240.76,326.52 243.71,332.73 246.65,339.20 249.60,345.66 252.54,352.12 255.49,358.58 258.43,365.04 261.38,371.50 264.33,376.70 267.27,381.89 270.22,387.08 273.16,392.28 276.11,397.47 279.05,402.66 282.00,406.02 284.94,409.38 287.89,412.74 290.83,416.09 293.78,419.44 296.72,422.80 299.67,424.30 302.61,425.80 305.56,427.29 308.51,428.79 311.45,430.29 314.40,431.78 317.34,431.43 320.29,431.07 323.23,430.71 326.18,430.36 329.12,430.00 332.07,429.64 335.01,427.33 337.96,425.02 340.91,422.71 343.85,420.40 346.80,418.09 349.74,415.78 352.69,411.40 355.63,407.01 358.58,402.63 361.52,398.24 364.47,393.86 367.41,389.48 370.37,383.57 373.30,377.66 376.25,371.75 379.20,365.85 382.13,359.94 385.09,354.03 388.04,347.61 390.97,341.19 393.92,334.77 396.87,328.35 399.81,321.93 402.76,315.51 405.71,309.27 408.64,303.03 411.59,296.79 414.55,290.55 417.48,284.31 420.43,278.07 423.38,272.46 426.32,266.83 429.27,261.21 432.22,255.59 435.15,249.98 438.10,244.36 441.05,239.61 443.99,234.85 446.94,230.10 449.89,225.35 452.82,220.59 455.78,215.84 458.73,212.07 461.66,208.31 464.61,204.54 467.56,200.77 470.50,197.01 473.45,193.24 476.40,190.52 479.33,187.80 482.28,185.08 485.24,182.37 488.17,179.65 491.12,176.94 494.07,175.38 497.01,173.82 499.96,172.27 502.91,170.71 505.84,169.15 508.79,167.59 511.74,167.43 514.68,167.28 517.63,167.12 520.58,166.96 523.51,166.80 526.47,166.65 529.42,168.18 532.35,169.71 535.30,171.24 538.25,172.78 541.19,174.31 544.14,175.85 547.09,178.68 550.02,181.52 552.97,184.36 555.93,187.20 558.86,190.04 561.81,192.88 564.76,196.17 567.70,199.47 570.65,202.77 573.60,206.07 576.53,209.37 579.48,212.67 582.43,215.91 585.37,219.16 588.32,222.41 591.27,225.65 594.20,228.90 597.16,232.14 600.11,235.07 603.04,238.00 605.99,240.93 608.94,243.85 611.88,246.78 614.83,249.71 617.78,252.19 620.71,254.67 623.66,257.16 626.62,259.64 629.55,262.12 632.50,264.61 635.45,266.55 638.38,268.50 641.34,270.45 644.29,272.39 647.22,274.34 650.17,276.29 653.12,277.56 656.06,278.84 659.01,280.12 661.96,281.39 664.89,282.66 667.84,283.94 670.80,284.32 673.73,284.70 676.68,285.08 679.63,285.46 682.57,285.84 685.52,286.22 688.47,285.42 691.40,284.62 694.35,283.82 697.30,283.03 700.24,282.22 703.19,281.43 706.14,279.23 709.07,277.03 712.03,274.83 714.98,272.63 717.91,270.43 720.86,268.23 723.81,264.91 726.75,261.59 729.70,258.27 732.65,254.96 735.58,251.64 738.53,248.32 741.49,244.46 744.42,240.60 747.37,236.74 750.32,232.88 753.26,229.02 756.21,225.15 759.16,221.12 762.09,217.08 765.04,213.05 767.99,209.01 770.93,204.97 773.88,200.93 776.83,196.98 779.76,193.01 782.72,189.06 785.67,185.10 788.60,181.14 791.55,177.19 794.50,173.53 797.44,169.88 800.39,166.23 803.34,162.57 806.27,158.92 809.22,155.27 812.18,152.18 815.11,149.09 818.06,146.00 821.01,142.92 823.95,139.83 826.90,136.74 829.85,134.56 832.78,132.38 835.73,130.19 838.68,128.00 841.62,125.82 844.57,123.64 847.52,122.77 850.45,121.91 853.41,121.04 856.36,120.17 859.29,119.31 862.24,118.45 865.19,119.31 868.13,120.17 871.08,121.03 874.03,121.89 876.96,122.75 879.91,123.61 882.87,126.35 885.80,129.09 888.75,131.83 891.70,134.57 894.63,137.31 897.59,140.05 900.54,144.10 903.47,148.15 906.42,152.21 909.37,156.26 912.31,160.31 915.26,164.37 918.21,169.21 921.14,174.06 924.09,178.90 927.05,183.75 929.98,188.59 932.93,193.44 935.88,199.45 938.82,205.48 941.77,211.49 944.72,217.51 947.65,223.53 950.60,229.55 953.55,237.51 956.49,245.46 959.44,253.42 962.39,261.37 965.32,269.33 968.28,277.29 971.23,287.47 974.16,297.65 977.11,307.84 980.06,318.02 983.00,328.20 985.95,338.39 988.90,350.07 991.83,361.74 994.78,373.42 997.74,385.10 1000.67,396.78 1003.62,408.46 1006.57,420.61 1009.51,432.77 1012.46,444.91 1015.41,457.07 1018.34,469.22 1021.29,481.37 1024.24,493.39 1027.18,505.40 1030.13,517.42 1033.08,529.43 1036.01,541.44 1038.97,553.46 1041.92,565.42 1044.85,577.39 1047.80,589.36 1050.75,601.33 1053.69,613.30 1056.64,625.26 1059.59,631.31 1062.52,637.36 1065.47,643.41 1068.43,649.46 1071.36,655.50 1074.31,661.55" fill="none" stroke="#000000" stroke-width="3"/>
<line x1="142" y1="100" x2="178" y2="100" stroke="#000000" stroke-width="4"/>
<text x="188" y="105" font-family="Arial" font-size="18" fill="black">U:2</text>
</svg>