<svg xmlns="http://www.w3.org/2000/svg" width="1200" height="820" viewBox="0 0 1200 820">
<rect width="100%" height="100%" fill="white"/>
<text x="600.0" y="36" text-anchor="middle" font-family="Arial" font-size="24" fill="black">profile_near_floor_x: Q</text>
<line x1="120.00" y1="75" x2="120.00" y2="705" stroke="#dddddd" stroke-width="1"/>
<text x="120.00" y="737" text-anchor="middle" font-family="Arial" font-size="16" fill="black">-0.560</text>
<line x1="376.25" y1="75" x2="376.25" y2="705" stroke="#dddddd" stroke-width="1"/>
<text x="376.25" y="737" text-anchor="middle" font-family="Arial" font-size="16" fill="black">1.470</text>
<line x1="632.50" y1="75" x2="632.50" y2="705" stroke="#dddddd" stroke-width="1"/>
<text x="632.50" y="737" text-anchor="middle" font-family="Arial" font-size="16" fill="black">3.500</text>
<line x1="888.75" y1="75" x2="888.75" y2="705" stroke="#dddddd" stroke-width="1"/>
<text x="888.75" y="737" text-anchor="middle" font-family="Arial" font-size="16" fill="black">5.530</text>
<line x1="1145.00" y1="75" x2="1145.00" y2="705" stroke="#dddddd" stroke-width="1"/>
<text x="1145.00" y="737" text-anchor="middle" font-family="Arial" font-size="16" fill="black">7.560</text>
<line x1="120" y1="705.00" x2="1145" y2="705.00" stroke="#dddddd" stroke-width="1"/>
<text x="104" y="710.00" text-anchor="end" font-family="Arial" font-size="16" fill="black">-1.838</text>
<line x1="120" y1="547.50" x2="1145" y2="547.50" stroke="#dddddd" stroke-width="1"/>
<text x="104" y="552.50" text-anchor="end" font-family="Arial" font-size="16" fill="black">-1.109</text>
<line x1="120" y1="390.00" x2="1145" y2="390.00" stroke="#dddddd" stroke-width="1"/>
<text x="104" y="395.00" text-anchor="end" font-family="Arial" font-size="16" fill="black">-0.380</text>
<line x1="120" y1="232.50" x2="1145" y2="232.50" stroke="#dddddd" stroke-width="1"/>
<text x="104" y="237.50" text-anchor="end" font-family="Arial" font-size="16" fill="black">0.350</text>
<line x1="120" y1="75.00" x2="1145" y2="75.00" stroke="#dddddd" stroke-width="1"/>
<text x="104" y="80.00" text-anchor="end" font-family="Arial" font-size="16" fill="black">1.079</text>
<rect x="120" y="75" width="1025" height="630" fill="none" stroke="black" stroke-width="2"/>
<text x="632.5" y="785" text-anchor="middle" font-family="Arial" font-size="20" fill="black">x coordinate [m]</text>
<text x="34" y="390.0" transform="rotate(-90 34 390.0)" text-anchor="middle" font-family="Arial" font-size="20" fill="black">Q [SI]</text>
<polyline points="190.69,372.16 193.64,360.24 196.58,348.32 199.53,336.40 202.47,324.47 205.42,312.39 208.36,300.24 211.31,288.09 214.25,275.94 217.20,267.72 220.14,264.75 223.09,261.78 226.03,258.81 228.98,255.46 231.93,249.78 234.87,244.10 237.82,238.42 240.76,232.74 243.71,228.13 246.65,223.70 249.60,219.27 252.54,214.84 255.49,213.84 258.43,215.42 261.38,217.00 264.32,218.58 267.27,222.69 270.22,233.12 273.16,243.54 276.11,253.97 279.05,264.40 282.00,273.29 284.94,282.18 287.89,291.06 290.83,299.95 293.78,314.65 296.72,331.68 299.67,348.71 302.62,365.74 305.56,388.75 308.51,419.76 311.45,450.77 314.40,481.78 317.34,512.48 320.29,541.30 323.23,570.11 326.17,598.95 329.13,627.77 332.07,638.48 335.01,646.17 337.96,653.86 340.91,661.55 343.85,659.18 346.80,649.28 349.74,639.39 352.68,629.47 355.64,620.29 358.58,612.93 361.52,605.54 364.47,598.15 367.41,590.76 370.35,585.49 373.31,580.22 376.25,574.95 379.19,569.68 382.15,564.80 385.09,560.09 388.03,555.38 390.98,550.67 393.92,540.65 396.86,523.57 399.82,506.49 402.76,489.41 405.70,468.70 408.65,426.26 411.59,383.81 414.54,341.37 417.49,298.92 420.43,276.76 423.37,257.98 426.33,239.21 429.27,220.43 432.21,222.91 435.16,241.33 438.10,259.75 441.04,278.18 444.00,294.42 446.94,305.21 449.88,316.00 452.83,326.80 455.78,337.59 458.72,336.87 461.67,336.15 464.61,335.44 467.55,334.72 470.51,336.63 473.45,339.60 476.39,342.57 479.34,345.53 482.28,349.42 485.23,354.55 488.18,359.67 491.12,364.79 494.06,367.88 497.02,358.81 499.96,349.74 502.90,340.68 505.85,331.61 508.79,321.96 511.73,312.21 514.69,302.46 517.63,292.72 520.57,289.45 523.52,291.03 526.47,292.62 529.41,294.21 532.36,297.81 535.30,306.44 538.24,315.07 541.20,323.69 544.14,332.32 547.08,322.87 550.03,313.42 552.97,303.96 555.92,294.51 558.87,287.51 561.81,281.50 564.75,275.48 567.71,269.47 570.65,280.26 573.59,313.45 576.54,346.64 579.48,379.83 582.42,412.07 585.38,438.65 588.32,465.23 591.26,491.81 594.21,518.40 597.16,521.57 600.10,520.84 603.05,520.11 605.99,519.38 608.93,516.53 611.89,512.09 614.83,507.65 617.77,503.21 620.72,500.20 623.66,500.77 626.60,501.33 629.56,501.89 632.50,502.46 635.44,505.95 638.40,509.44 641.34,512.93 644.28,516.42 647.23,519.65 650.17,522.78 653.11,525.91 656.07,529.05 659.01,523.59 661.95,506.67 664.90,489.76 667.84,472.84 670.79,452.18 673.74,409.03 676.68,365.88 679.62,322.74 682.58,279.59 685.52,245.73 688.46,213.43 691.41,181.12 694.35,148.81 697.29,140.76 700.25,150.90 703.19,161.05 706.13,171.19 709.08,185.52 712.03,210.30 714.97,235.08 717.92,259.86 720.86,284.64 723.80,296.09 726.76,307.53 729.70,318.98 732.64,330.42 735.59,338.77 738.53,345.87 741.48,352.98 744.43,360.08 747.37,366.68 750.31,372.60 753.27,378.52 756.21,384.44 759.15,389.14 762.10,386.47 765.04,383.81 767.98,381.14 770.94,378.48 773.88,369.68 776.82,359.87 779.77,350.05 782.72,340.24 785.66,336.10 788.61,336.24 791.55,336.37 794.49,336.50 797.45,335.68 800.39,332.46 803.33,329.23 806.28,326.01 809.22,322.79 812.17,297.56 815.12,272.33 818.06,247.10 821.00,221.87 823.96,197.13 826.90,172.59 829.84,148.06 832.79,123.52 835.73,118.45 838.67,139.33 841.63,160.22 844.57,181.10 847.51,204.76 850.46,245.08 853.41,285.40 856.35,325.71 859.30,366.03 862.24,382.66 865.18,395.35 868.14,408.03 871.08,420.72 874.02,426.93 876.97,428.29 879.91,429.64 882.85,430.99 885.81,432.63 888.75,434.98 891.69,437.33 894.65,439.68 897.59,442.02 900.53,446.33 903.48,450.63 906.42,454.93 909.36,459.24 912.32,464.74 915.26,470.72 918.20,476.70 921.15,482.68 924.09,483.34 927.04,476.90 929.99,470.47 932.93,464.03 935.87,454.75 938.83,428.41 941.77,402.07 944.71,375.73 947.66,349.39 950.60,324.79 953.54,300.48 956.50,276.16 959.44,251.85 962.38,239.53 965.33,236.21 968.28,232.88 971.22,229.56 974.17,228.38 977.11,232.55 980.05,236.71 983.01,240.88 985.95,245.05 988.89,247.45 991.84,249.86 994.78,252.27 997.73,254.68 1000.68,260.01 1003.62,266.51 1006.56,273.01 1009.52,279.51 1012.46,286.01 1015.40,292.51 1018.35,299.00 1021.29,305.50 1024.23,311.84 1027.19,317.22 1030.13,322.60 1033.07,327.98 1036.02,333.36 1038.97,340.32 1041.91,347.54 1044.86,354.76 1047.80,361.99 1050.74,371.93 1053.70,383.91 1056.64,395.90 1059.58,407.89 1062.53,418.61 1065.47,426.18 1068.42,433.74 1071.37,441.31 1074.31,448.87" fill="none" stroke="#000000" stroke-width="3"/>
<line x1="142" y1="100" x2="178" y2="100" stroke="#000000" stroke-width="4"/>
<text x="188" y="105" font-family="Arial" font-size="18" fill="black">Q</text>
</svg>