<svg xmlns="http://www.w3.org/2000/svg" width="1200" height="820" viewBox="0 0 1200 820">
<rect width="100%" height="100%" fill="white"/>
<text x="600.0" y="36" text-anchor="middle" font-family="Arial" font-size="24" fill="black">profile_near_floor_x: rho</text>
<line x1="120.00" y1="75" x2="120.00" y2="705" stroke="#dddddd" stroke-width="1"/>
<text x="120.00" y="737" text-anchor="middle" font-family="Arial" font-size="16" fill="black">-0.560</text>
<line x1="376.25" y1="75" x2="376.25" y2="705" stroke="#dddddd" stroke-width="1"/>
<text x="376.25" y="737" text-anchor="middle" font-family="Arial" font-size="16" fill="black">1.470</text>
<line x1="632.50" y1="75" x2="632.50" y2="705" stroke="#dddddd" stroke-width="1"/>
<text x="632.50" y="737" text-anchor="middle" font-family="Arial" font-size="16" fill="black">3.500</text>
<line x1="888.75" y1="75" x2="888.75" y2="705" stroke="#dddddd" stroke-width="1"/>
<text x="888.75" y="737" text-anchor="middle" font-family="Arial" font-size="16" fill="black">5.530</text>
<line x1="1145.00" y1="75" x2="1145.00" y2="705" stroke="#dddddd" stroke-width="1"/>
<text x="1145.00" y="737" text-anchor="middle" font-family="Arial" font-size="16" fill="black">7.560</text>
<line x1="120" y1="705.00" x2="1145" y2="705.00" stroke="#dddddd" stroke-width="1"/>
<text x="104" y="710.00" text-anchor="end" font-family="Arial" font-size="16" fill="black">1.073</text>
<line x1="120" y1="547.50" x2="1145" y2="547.50" stroke="#dddddd" stroke-width="1"/>
<text x="104" y="552.50" text-anchor="end" font-family="Arial" font-size="16" fill="black">1.116</text>
<line x1="120" y1="390.00" x2="1145" y2="390.00" stroke="#dddddd" stroke-width="1"/>
<text x="104" y="395.00" text-anchor="end" font-family="Arial" font-size="16" fill="black">1.159</text>
<line x1="120" y1="232.50" x2="1145" y2="232.50" stroke="#dddddd" stroke-width="1"/>
<text x="104" y="237.50" text-anchor="end" font-family="Arial" font-size="16" fill="black">1.201</text>
<line x1="120" y1="75.00" x2="1145" y2="75.00" stroke="#dddddd" stroke-width="1"/>
<text x="104" y="80.00" text-anchor="end" font-family="Arial" font-size="16" fill="black">1.244</text>
<rect x="120" y="75" width="1025" height="630" fill="none" stroke="black" stroke-width="2"/>
<text x="632.5" y="785" text-anchor="middle" font-family="Arial" font-size="20" fill="black">x coordinate [m]</text>
<text x="34" y="390.0" transform="rotate(-90 34 390.0)" text-anchor="middle" font-family="Arial" font-size="20" fill="black">rho [kg/m3]</text>
<polyline points="190.69,577.12 193.64,576.38 196.58,576.01 199.53,575.27 202.47,574.91 205.42,573.43 208.36,572.32 211.31,570.85 214.25,569.38 217.20,567.90 220.14,566.06 223.09,564.21 226.03,562.37 228.98,560.16 231.93,557.21 234.87,554.26 237.82,551.31 240.76,548.36 243.71,544.30 246.65,539.51 249.60,535.09 252.54,530.29 255.49,524.39 258.43,517.39 261.38,510.01 264.32,503.01 267.27,494.90 270.22,484.20 273.16,473.51 276.11,462.82 279.05,452.13 282.00,436.64 284.94,421.52 287.89,406.41 290.83,390.92 293.78,371.38 296.72,349.63 299.67,328.24 302.62,306.86 305.56,283.63 308.51,258.93 311.45,234.22 314.40,209.52 317.34,186.29 320.29,172.28 323.23,158.64 326.17,145.00 329.13,131.35 332.07,127.67 335.01,126.19 337.96,124.35 340.91,122.50 343.85,121.77 346.80,121.40 349.74,121.03 352.68,120.66 355.64,120.66 358.58,120.29 361.52,120.29 364.47,120.29 367.41,120.29 370.35,120.29 373.31,120.29 376.25,120.29 379.19,120.29 382.15,120.66 385.09,120.66 388.03,121.03 390.98,121.03 393.92,121.40 396.86,121.77 399.82,122.50 402.76,122.87 405.70,123.98 408.65,126.93 411.59,130.25 414.54,133.57 417.49,136.51 420.43,145.73 423.37,155.69 426.33,165.64 429.27,175.60 432.21,188.50 435.16,203.99 438.10,219.10 441.04,234.22 444.00,248.97 446.94,262.61 449.88,276.25 452.83,289.90 455.78,303.54 458.72,312.76 461.67,321.61 464.61,330.82 467.55,339.67 470.51,346.31 473.45,351.84 476.39,357.37 479.34,362.90 482.28,367.32 485.23,370.27 488.18,373.59 491.12,376.54 494.06,379.49 497.02,379.86 499.96,380.23 502.90,380.60 505.85,380.97 508.79,378.75 511.73,376.17 514.69,373.59 517.63,371.01 520.57,366.59 523.52,360.32 526.47,354.42 529.41,348.15 532.36,341.15 535.30,330.82 538.24,320.50 541.20,310.54 544.14,300.22 547.08,286.21 550.03,272.20 552.97,258.19 555.92,244.18 558.87,229.43 561.81,214.31 564.75,199.19 567.71,184.08 570.65,171.17 573.59,161.22 576.54,151.26 579.48,141.68 582.42,132.83 585.38,129.88 588.32,126.93 591.26,123.98 594.21,121.03 597.16,120.29 600.10,119.92 603.05,119.55 605.99,119.19 608.93,118.82 611.89,118.82 614.83,118.82 617.77,118.82 620.72,118.82 623.66,118.45 626.60,118.45 629.56,118.45 632.50,118.45 635.44,118.45 638.40,118.45 641.34,118.45 644.28,118.45 647.23,118.82 650.17,118.82 653.11,118.82 656.07,118.82 659.01,118.82 661.95,119.19 664.90,119.55 667.84,119.92 670.79,120.29 673.74,122.50 676.68,124.72 679.62,126.56 682.58,128.77 685.52,137.62 688.46,147.58 691.41,157.16 694.35,167.12 697.29,181.87 700.25,200.67 703.19,219.47 706.13,237.91 709.08,256.34 712.03,273.30 714.97,289.90 717.92,306.86 720.86,323.82 723.80,331.93 726.76,339.67 729.70,347.78 732.64,355.89 735.59,359.21 738.53,360.69 741.48,362.53 744.43,364.01 747.37,364.74 750.31,364.01 753.27,363.64 756.21,362.90 759.15,362.16 762.10,359.95 765.04,358.11 767.98,355.89 770.94,354.05 773.88,349.26 776.82,344.46 779.77,339.30 782.72,334.14 785.66,327.50 788.61,319.02 791.55,310.54 794.49,302.43 797.45,293.21 800.39,283.26 803.33,272.94 806.28,262.61 809.22,252.29 812.17,241.60 815.12,230.90 818.06,220.21 821.00,209.15 823.96,198.83 826.90,188.87 829.84,178.55 832.79,168.59 835.73,159.74 838.67,152.74 841.63,145.73 844.57,138.73 847.51,132.46 850.46,129.51 853.41,126.93 856.35,124.35 859.30,121.77 862.24,121.03 865.18,120.66 868.14,120.29 871.08,119.55 874.02,119.55 876.97,119.19 879.91,119.19 882.85,119.19 885.81,119.19 888.75,119.19 891.69,119.19 894.65,119.19 897.59,119.19 900.53,119.19 903.48,119.19 906.42,119.19 909.36,119.55 912.32,119.55 915.26,119.92 918.20,120.29 921.15,120.66 924.09,121.40 927.04,122.50 929.99,123.98 932.93,125.45 935.87,127.67 938.83,135.78 941.77,144.26 944.71,152.74 947.66,160.85 950.60,180.02 953.54,201.04 956.50,222.05 959.44,243.07 962.38,267.41 965.33,294.69 968.28,321.61 971.22,348.89 974.17,375.07 977.11,399.03 980.05,422.63 983.01,446.60 985.95,470.19 988.89,487.52 991.84,505.22 994.78,522.55 997.73,539.88 1000.68,553.15 1003.62,564.58 1006.56,576.01 1009.52,587.81 1012.46,597.40 1015.40,604.40 1018.35,611.78 1021.29,618.78 1024.23,625.42 1027.19,629.84 1030.13,633.90 1033.07,638.32 1036.02,642.38 1038.97,645.33 1041.91,647.54 1044.86,650.12 1047.80,652.33 1050.74,654.18 1053.70,655.65 1056.64,657.13 1059.58,658.23 1062.53,659.71 1065.47,660.08 1068.42,660.45 1071.37,661.18 1074.31,661.55" fill="none" stroke="#000000" stroke-width="3"/>
<line x1="142" y1="100" x2="178" y2="100" stroke="#000000" stroke-width="4"/>
<text x="188" y="105" font-family="Arial" font-size="18" fill="black">rho</text>
</svg>