<svg xmlns="http://www.w3.org/2000/svg" width="1200" height="820" viewBox="0 0 1200 820">
<rect width="100%" height="100%" fill="white"/>
<text x="600.0" y="36" text-anchor="middle" font-family="Arial" font-size="24" fill="black">profile_center_y: rho</text>
<line x1="120.00" y1="75" x2="120.00" y2="705" stroke="#dddddd" stroke-width="1"/>
<text x="120.00" y="737" text-anchor="middle" font-family="Arial" font-size="16" fill="black">-0.400</text>
<line x1="376.25" y1="75" x2="376.25" y2="705" stroke="#dddddd" stroke-width="1"/>
<text x="376.25" y="737" text-anchor="middle" font-family="Arial" font-size="16" fill="black">1.050</text>
<line x1="632.50" y1="75" x2="632.50" y2="705" stroke="#dddddd" stroke-width="1"/>
<text x="632.50" y="737" text-anchor="middle" font-family="Arial" font-size="16" fill="black">2.500</text>
<line x1="888.75" y1="75" x2="888.75" y2="705" stroke="#dddddd" stroke-width="1"/>
<text x="888.75" y="737" text-anchor="middle" font-family="Arial" font-size="16" fill="black">3.950</text>
<line x1="1145.00" y1="75" x2="1145.00" y2="705" stroke="#dddddd" stroke-width="1"/>
<text x="1145.00" y="737" text-anchor="middle" font-family="Arial" font-size="16" fill="black">5.400</text>
<line x1="120" y1="705.00" x2="1145" y2="705.00" stroke="#dddddd" stroke-width="1"/>
<text x="104" y="710.00" text-anchor="end" font-family="Arial" font-size="16" fill="black">1.051</text>
<line x1="120" y1="547.50" x2="1145" y2="547.50" stroke="#dddddd" stroke-width="1"/>
<text x="104" y="552.50" text-anchor="end" font-family="Arial" font-size="16" fill="black">1.064</text>
<line x1="120" y1="390.00" x2="1145" y2="390.00" stroke="#dddddd" stroke-width="1"/>
<text x="104" y="395.00" text-anchor="end" font-family="Arial" font-size="16" fill="black">1.077</text>
<line x1="120" y1="232.50" x2="1145" y2="232.50" stroke="#dddddd" stroke-width="1"/>
<text x="104" y="237.50" text-anchor="end" font-family="Arial" font-size="16" fill="black">1.090</text>
<line x1="120" y1="75.00" x2="1145" y2="75.00" stroke="#dddddd" stroke-width="1"/>
<text x="104" y="80.00" text-anchor="end" font-family="Arial" font-size="16" fill="black">1.103</text>
<rect x="120" y="75" width="1025" height="630" fill="none" stroke="black" stroke-width="2"/>
<text x="632.5" y="785" text-anchor="middle" font-family="Arial" font-size="20" fill="black">y coordinate [m]</text>
<text x="34" y="390.0" transform="rotate(-90 34 390.0)" text-anchor="middle" font-family="Arial" font-size="20" fill="black">rho [kg/m3]</text>
<polyline points="190.69,366.86 193.64,365.65 196.58,364.43 199.53,361.99 202.47,360.77 205.42,359.56 208.36,358.34 211.31,357.12 214.25,354.69 217.20,353.47 220.14,351.03 223.09,349.82 226.03,347.38 228.98,347.38 231.92,347.38 234.87,347.38 237.82,347.38 240.76,347.38 243.71,347.38 246.65,348.60 249.60,349.82 252.54,352.25 255.49,353.47 258.43,354.69 261.38,355.90 264.33,358.34 267.27,360.77 270.22,364.43 273.16,366.86 276.11,369.30 279.05,371.73 282.00,374.17 284.94,376.61 287.89,379.04 290.83,382.69 293.78,385.13 296.72,387.56 299.67,390.00 302.61,392.44 305.56,394.87 308.51,397.31 311.45,399.74 314.40,402.18 317.34,404.61 320.29,407.05 323.23,409.48 326.18,411.92 329.12,414.35 332.07,415.57 335.01,419.23 337.96,422.88 340.91,426.53 343.85,430.18 346.80,432.62 349.74,436.27 352.69,444.80 355.63,452.10 358.58,460.63 361.52,467.93 364.47,476.46 367.41,483.76 370.37,493.51 373.30,503.25 376.25,512.99 379.20,523.95 382.13,533.69 385.09,543.43 388.04,549.52 390.97,556.83 393.92,562.92 396.87,569.00 399.81,576.31 402.76,582.40 405.71,587.27 408.64,590.92 411.59,595.79 414.55,599.45 417.48,603.10 420.43,607.97 423.38,609.19 426.32,611.63 429.27,614.06 432.22,615.28 435.15,617.71 438.10,620.15 441.05,620.15 443.99,621.37 446.94,622.58 449.89,622.58 452.82,623.80 455.78,623.80 458.73,623.80 461.66,623.80 464.61,623.80 467.56,623.80 470.50,623.80 473.45,623.80 476.40,623.80 479.33,623.80 482.28,622.58 485.24,622.58 488.17,622.58 491.12,621.37 494.07,621.37 497.01,620.15 499.96,618.93 502.91,618.93 505.84,617.71 508.79,617.71 511.74,615.28 514.68,612.84 517.63,611.63 520.58,609.19 523.51,606.75 526.47,605.54 529.42,598.23 532.35,592.14 535.30,584.84 538.25,578.75 541.19,572.66 544.14,565.35 547.09,556.83 550.02,548.30 552.97,541.00 555.93,532.47 558.86,523.95 561.81,515.43 564.76,509.34 567.70,503.25 570.65,498.38 573.60,492.29 576.53,486.20 579.48,480.11 582.43,476.46 585.37,472.81 588.32,469.15 591.27,465.50 594.20,461.85 597.16,458.19 600.11,455.76 603.04,453.32 605.99,452.10 608.94,449.67 611.88,447.23 614.83,444.80 617.78,443.58 620.71,442.36 623.66,441.14 626.62,439.93 629.55,438.71 632.50,437.49 635.45,437.49 638.38,436.27 641.34,436.27 644.29,436.27 647.22,435.06 650.17,435.06 653.12,435.06 656.06,435.06 659.01,435.06 661.96,436.27 664.89,436.27 667.84,436.27 670.80,437.49 673.73,438.71 676.68,439.93 679.63,441.14 682.57,443.58 685.52,444.80 688.47,448.45 691.40,450.89 694.35,454.54 697.30,458.19 700.24,461.85 703.19,465.50 706.14,472.81 709.07,480.11 712.03,487.42 714.98,494.72 717.91,503.25 720.86,510.55 723.81,519.08 726.75,527.60 729.70,536.13 732.65,544.65 735.58,553.17 738.53,561.70 741.49,567.79 744.42,575.09 747.37,581.18 750.32,587.27 753.26,593.36 756.21,599.45 759.16,604.32 762.09,607.97 765.04,612.84 767.99,617.71 770.93,621.37 773.88,626.24 776.83,629.89 779.76,632.33 782.72,635.98 785.67,639.63 788.60,642.07 791.55,645.72 794.50,648.16 797.44,649.37 800.39,651.81 803.34,653.03 806.27,655.46 809.22,657.90 812.18,657.90 815.11,659.12 818.06,659.12 821.01,660.33 823.95,660.33 826.90,661.55 829.85,660.33 832.78,659.12 835.73,657.90 838.68,656.68 841.62,655.46 844.57,654.25 847.52,649.37 850.45,645.72 853.41,642.07 856.36,638.42 859.29,634.76 862.24,629.89 865.19,622.58 868.13,615.28 871.08,606.75 874.03,599.45 876.96,592.14 879.91,584.84 882.87,571.44 885.80,559.26 888.75,545.87 891.70,533.69 894.63,520.30 897.59,506.90 900.54,494.72 903.47,481.33 906.42,467.93 909.37,454.54 912.31,441.14 915.26,427.75 918.21,418.01 921.14,408.27 924.09,398.52 927.05,390.00 929.98,380.26 932.93,370.52 935.88,363.21 938.82,354.69 941.77,347.38 944.72,340.07 947.65,331.55 950.60,324.24 953.55,316.94 956.49,310.85 959.44,303.54 962.39,297.45 965.32,290.15 968.28,282.84 971.23,276.75 974.16,270.66 977.11,264.57 980.06,257.27 983.00,251.18 985.95,245.09 988.90,239.00 991.83,232.91 994.78,226.83 997.74,220.74 1000.67,214.65 1003.62,208.56 1006.57,203.69 1009.51,197.60 1012.46,192.73 1015.41,186.64 1018.34,180.55 1021.29,175.68 1024.24,170.81 1027.18,165.94 1030.13,161.07 1033.08,156.20 1036.01,151.33 1038.97,146.46 1041.92,142.80 1044.85,140.37 1047.80,136.71 1050.75,133.06 1053.69,129.41 1056.64,125.75 1059.59,124.54 1062.52,123.32 1065.47,122.10 1068.43,120.88 1071.36,119.67 1074.31,118.45" fill="none" stroke="#000000" stroke-width="3"/>
<line x1="142" y1="100" x2="178" y2="100" stroke="#000000" stroke-width="4"/>
<text x="188" y="105" font-family="Arial" font-size="18" fill="black">rho</text>
</svg>