<svg xmlns="http://www.w3.org/2000/svg" width="1200" height="820" viewBox="0 0 1200 820">
<rect width="100%" height="100%" fill="white"/>
<text x="600.0" y="36" text-anchor="middle" font-family="Arial" font-size="24" fill="black">profile_rack_height_x: U, V, W components</text>
<line x1="120.00" y1="75" x2="120.00" y2="705" stroke="#dddddd" stroke-width="1"/>
<text x="120.00" y="737" text-anchor="middle" font-family="Arial" font-size="16" fill="black">-0.560</text>
<line x1="376.25" y1="75" x2="376.25" y2="705" stroke="#dddddd" stroke-width="1"/>
<text x="376.25" y="737" text-anchor="middle" font-family="Arial" font-size="16" fill="black">1.470</text>
<line x1="632.50" y1="75" x2="632.50" y2="705" stroke="#dddddd" stroke-width="1"/>
<text x="632.50" y="737" text-anchor="middle" font-family="Arial" font-size="16" fill="black">3.500</text>
<line x1="888.75" y1="75" x2="888.75" y2="705" stroke="#dddddd" stroke-width="1"/>
<text x="888.75" y="737" text-anchor="middle" font-family="Arial" font-size="16" fill="black">5.530</text>
<line x1="1145.00" y1="75" x2="1145.00" y2="705" stroke="#dddddd" stroke-width="1"/>
<text x="1145.00" y="737" text-anchor="middle" font-family="Arial" font-size="16" fill="black">7.560</text>
<line x1="120" y1="705.00" x2="1145" y2="705.00" stroke="#dddddd" stroke-width="1"/>
<text x="104" y="710.00" text-anchor="end" font-family="Arial" font-size="16" fill="black">-0.714</text>
<line x1="120" y1="547.50" x2="1145" y2="547.50" stroke="#dddddd" stroke-width="1"/>
<text x="104" y="552.50" text-anchor="end" font-family="Arial" font-size="16" fill="black">-0.451</text>
<line x1="120" y1="390.00" x2="1145" y2="390.00" stroke="#dddddd" stroke-width="1"/>
<text x="104" y="395.00" text-anchor="end" font-family="Arial" font-size="16" fill="black">-0.188</text>
<line x1="120" y1="232.50" x2="1145" y2="232.50" stroke="#dddddd" stroke-width="1"/>
<text x="104" y="237.50" text-anchor="end" font-family="Arial" font-size="16" fill="black">0.075</text>
<line x1="120" y1="75.00" x2="1145" y2="75.00" stroke="#dddddd" stroke-width="1"/>
<text x="104" y="80.00" text-anchor="end" font-family="Arial" font-size="16" fill="black">0.338</text>
<rect x="120" y="75" width="1025" height="630" fill="none" stroke="black" stroke-width="2"/>
<text x="632.5" y="785" text-anchor="middle" font-family="Arial" font-size="20" fill="black">x coordinate [m]</text>
<text x="34" y="390.0" transform="rotate(-90 34 390.0)" text-anchor="middle" font-family="Arial" font-size="20" fill="black">velocity component [m/s]</text>
<polyline points="190.69,289.88 193.64,290.86 196.58,291.83 199.53,292.80 202.47,293.77 205.42,295.65 208.36,297.89 211.31,300.13 214.25,302.37 217.20,304.53 220.14,306.58 223.09,308.63 226.03,310.69 228.98,312.64 231.93,313.95 234.87,315.27 237.82,316.58 240.76,317.90 243.71,318.74 246.65,319.50 249.60,320.26 252.54,321.02 255.49,321.46 258.43,321.64 261.38,321.83 264.32,322.02 267.27,322.06 270.22,321.72 273.16,321.38 276.11,321.05 279.05,320.71 282.00,319.96 284.94,319.21 287.89,318.46 290.83,317.71 293.78,316.76 296.72,315.73 299.67,314.69 302.62,313.66 305.56,312.52 308.51,311.24 311.45,309.96 314.40,308.68 317.34,307.36 320.29,305.85 323.23,304.34 326.17,302.82 329.13,301.31 332.07,299.62 335.01,297.89 337.96,296.17 340.91,294.44 343.85,292.59 346.80,290.66 349.74,288.72 352.68,286.78 355.64,284.78 358.58,282.62 361.52,280.46 364.47,278.30 367.41,276.14 370.35,273.75 373.31,271.37 376.25,268.99 379.19,266.61 382.15,264.09 385.09,261.52 388.03,258.95 390.98,256.38 393.92,253.76 396.86,251.08 399.82,248.39 402.76,245.71 405.70,243.02 408.65,240.32 411.59,237.63 414.54,234.93 417.49,232.23 420.43,229.63 423.37,227.04 426.33,224.45 429.27,221.86 432.21,219.39 435.16,217.01 438.10,214.63 441.04,212.24 444.00,209.93 446.94,207.80 449.88,205.67 452.83,203.54 455.78,201.41 458.72,199.56 461.67,197.70 464.61,195.85 467.55,193.99 470.51,192.36 473.45,190.81 476.39,189.26 479.34,187.71 482.28,186.31 485.23,185.11 488.18,183.90 491.12,182.69 494.06,181.54 497.02,180.74 499.96,179.92 502.90,179.11 505.85,178.30 508.79,177.88 511.73,177.53 514.69,177.17 517.63,176.82 520.57,176.77 523.52,176.95 526.47,177.13 529.41,177.30 532.36,177.65 535.30,178.44 538.24,179.23 541.20,180.02 544.14,180.81 547.08,182.28 550.03,183.74 552.97,185.20 555.92,186.66 558.87,188.63 561.81,190.80 564.75,192.97 567.71,195.14 570.65,197.59 573.59,200.43 576.54,203.25 579.48,206.08 582.42,208.99 585.38,212.35 588.32,215.72 591.26,219.08 594.21,222.44 597.16,226.10 600.10,229.80 603.05,233.50 605.99,237.21 608.93,241.00 611.89,244.87 614.83,248.73 617.77,252.59 620.72,256.47 623.66,260.37 626.60,264.28 629.56,268.19 632.50,272.09 635.44,275.92 638.40,279.75 641.34,283.58 644.28,287.41 647.23,291.04 650.17,294.60 653.11,298.16 656.07,301.71 659.01,305.07 661.95,308.17 664.90,311.27 667.84,314.36 670.79,317.38 673.74,319.92 676.68,322.46 679.62,325.00 682.58,327.55 685.52,329.61 688.46,331.60 691.41,333.58 694.35,335.57 697.29,337.28 700.25,338.79 703.19,340.30 706.13,341.81 709.08,343.21 712.03,344.35 714.97,345.49 717.92,346.64 720.86,347.77 723.80,348.64 726.76,349.51 729.70,350.37 732.64,351.24 735.59,351.95 738.53,352.62 741.48,353.28 744.43,353.93 747.37,354.53 750.31,355.05 753.27,355.57 756.21,356.08 759.15,356.58 762.10,356.98 765.04,357.38 767.98,357.77 770.94,358.17 773.88,358.47 776.82,358.75 779.77,359.04 782.72,359.32 785.66,359.52 788.61,359.66 791.55,359.81 794.49,359.95 797.45,360.04 800.39,360.01 803.33,359.96 806.28,359.93 809.22,359.89 812.17,359.62 815.12,359.36 818.06,359.10 821.00,358.83 823.96,358.38 826.90,357.86 829.84,357.34 832.79,356.81 835.73,356.17 838.67,355.38 841.63,354.59 844.57,353.80 847.51,352.98 850.46,351.93 853.41,350.88 856.35,349.83 859.30,348.79 862.24,347.54 865.18,346.24 868.14,344.96 871.08,343.66 874.02,342.25 876.97,340.74 879.91,339.23 882.85,337.72 885.81,336.17 888.75,334.48 891.69,332.80 894.65,331.11 897.59,329.43 900.53,327.65 903.48,325.86 906.42,324.08 909.36,322.30 912.32,320.52 915.26,318.75 918.20,316.98 921.15,315.21 924.09,313.50 927.04,311.86 929.99,310.21 932.93,308.57 935.87,306.96 938.83,305.55 941.77,304.14 944.71,302.72 947.66,301.31 950.60,300.16 953.54,299.06 956.50,297.96 959.44,296.85 962.38,295.95 965.33,295.20 968.28,294.46 971.22,293.71 974.17,293.06 977.11,292.65 980.05,292.24 983.01,291.83 985.95,291.42 988.89,291.28 991.84,291.14 994.78,291.00 997.73,290.86 1000.68,290.84 1003.62,290.86 1006.56,290.88 1009.52,290.90 1012.46,290.94 1015.40,290.99 1018.35,291.05 1021.29,291.10 1024.23,291.14 1027.19,291.06 1030.13,290.99 1033.07,290.91 1036.02,290.84 1038.97,290.52 1041.91,290.16 1044.86,289.80 1047.80,289.43 1050.74,288.79 1053.70,287.94 1056.64,287.09 1059.58,286.24 1062.53,285.47 1065.47,284.89 1068.42,284.30 1071.37,283.72 1074.31,283.14" fill="none" stroke="#000000" stroke-width="3"/>
<line x1="142" y1="100" x2="178" y2="100" stroke="#000000" stroke-width="4"/>
<text x="188" y="105" font-family="Arial" font-size="18" fill="black">Ux / u</text>
<polyline points="190.69,231.33 193.64,233.93 196.58,236.52 199.53,239.11 202.47,241.70 205.42,246.17 208.36,251.38 211.31,256.60 214.25,261.82 217.20,267.09 220.14,272.44 223.09,277.78 226.03,283.13 228.98,288.51 231.93,294.09 234.87,299.68 237.82,305.27 240.76,310.85 243.71,316.63 246.65,322.44 249.60,328.25 252.54,334.06 255.49,339.86 258.43,345.66 261.38,351.45 264.32,357.25 267.27,362.91 270.22,368.22 273.16,373.54 276.11,378.86 279.05,384.18 282.00,388.39 284.94,392.61 287.89,396.82 290.83,401.04 293.78,404.05 296.72,406.60 299.67,409.14 302.62,411.68 305.56,413.41 308.51,414.07 311.45,414.73 314.40,415.39 317.34,415.80 320.29,414.73 323.23,413.67 326.17,412.60 329.13,411.53 332.07,409.28 335.01,406.84 337.96,404.39 340.91,401.94 343.85,398.92 346.80,395.47 349.74,392.03 352.68,388.58 355.64,384.94 358.58,380.80 361.52,376.66 364.47,372.52 367.41,368.38 370.35,363.76 373.31,359.15 376.25,354.53 379.19,349.92 382.15,345.08 385.09,340.15 388.03,335.22 390.98,330.29 393.92,325.30 396.86,320.22 399.82,315.15 402.76,310.07 405.70,305.00 408.65,299.98 411.59,294.97 414.54,289.95 417.49,284.94 420.43,280.20 423.37,275.52 426.33,270.83 429.27,266.14 432.21,261.77 435.16,257.64 438.10,253.51 441.04,249.38 444.00,245.44 446.94,241.98 449.88,238.52 452.83,235.05 455.78,231.59 458.72,228.81 461.67,226.04 464.61,223.26 467.55,220.49 470.51,218.17 473.45,216.04 476.39,213.91 479.34,211.78 482.28,209.90 485.23,208.35 488.18,206.80 491.12,205.25 494.06,203.78 497.02,202.72 499.96,201.68 502.90,200.63 505.85,199.58 508.79,198.89 511.73,198.25 514.69,197.61 517.63,196.97 520.57,196.50 523.52,196.16 526.47,195.82 529.41,195.48 532.36,195.19 535.30,195.01 538.24,194.84 541.20,194.67 544.14,194.49 547.08,194.34 550.03,194.19 552.97,194.04 555.92,193.89 558.87,193.67 561.81,193.42 564.75,193.16 567.71,192.91 570.65,192.58 573.59,192.13 576.54,191.69 579.48,191.24 582.42,190.76 585.38,190.09 588.32,189.43 591.26,188.76 594.21,188.09 597.16,187.32 600.10,186.52 603.05,185.72 605.99,184.93 608.93,184.17 611.89,183.43 614.83,182.69 617.77,181.96 620.72,181.31 623.66,180.86 626.60,180.40 629.56,179.95 632.50,179.50 635.44,179.48 638.40,179.46 641.34,179.44 644.28,179.41 647.23,179.68 650.17,180.07 653.11,180.46 656.07,180.85 659.01,181.34 661.95,181.97 664.90,182.60 667.84,183.23 670.79,183.86 673.74,184.50 676.68,185.15 679.62,185.79 682.58,186.44 685.52,186.91 688.46,187.37 691.41,187.82 694.35,188.27 697.29,188.53 700.25,188.64 703.19,188.75 706.13,188.86 709.08,188.84 712.03,188.50 714.97,188.15 717.92,187.81 720.86,187.47 723.80,186.63 726.76,185.80 729.70,184.95 732.64,184.11 735.59,182.92 738.53,181.57 741.48,180.24 744.43,178.90 747.37,177.36 750.31,175.56 753.27,173.75 756.21,171.95 759.15,170.09 762.10,167.90 765.04,165.72 767.98,163.53 770.94,161.35 773.88,158.95 776.82,156.52 779.77,154.10 782.72,151.67 785.66,149.21 788.61,146.74 791.55,144.27 794.49,141.80 797.45,139.38 800.39,137.11 803.33,134.85 806.28,132.59 809.22,130.32 812.17,128.55 815.12,126.78 818.06,125.01 821.00,123.24 823.96,122.02 826.90,121.02 829.84,120.02 832.79,119.03 835.73,118.45 838.67,118.45 841.63,118.45 844.57,118.45 847.51,118.60 850.46,119.71 853.41,120.82 856.35,121.93 859.30,123.03 862.24,125.08 865.18,127.28 868.14,129.49 871.08,131.69 874.02,134.46 876.97,137.65 879.91,140.83 882.85,144.02 885.81,147.43 888.75,151.42 891.69,155.40 894.65,159.38 897.59,163.36 900.53,167.90 903.48,172.44 906.42,176.98 909.36,181.51 912.32,186.26 915.26,191.08 918.20,195.89 921.15,200.71 924.09,205.53 927.04,210.34 929.99,215.15 932.93,219.95 935.87,224.72 938.83,229.24 941.77,233.76 944.71,238.28 947.66,242.79 950.60,246.86 953.54,250.84 956.50,254.83 959.44,258.81 962.38,262.40 965.33,265.67 968.28,268.95 971.22,272.23 974.17,275.28 977.11,277.77 980.05,280.26 983.01,282.75 985.95,285.24 988.89,286.95 991.84,288.66 994.78,290.38 997.73,292.09 1000.68,293.32 1003.62,294.35 1006.56,295.39 1009.52,296.42 1012.46,297.22 1015.40,297.70 1018.35,298.18 1021.29,298.66 1024.23,299.08 1027.19,299.12 1030.13,299.16 1033.07,299.21 1036.02,299.25 1038.97,298.97 1041.91,298.63 1044.86,298.29 1047.80,297.96 1050.74,297.34 1053.70,296.52 1056.64,295.69 1059.58,294.87 1062.53,294.12 1065.47,293.56 1068.42,293.00 1071.37,292.44 1074.31,291.88" fill="none" stroke="#555555" stroke-width="3" stroke-dasharray="9 5"/>
<line x1="142" y1="128" x2="178" y2="128" stroke="#555555" stroke-width="4" stroke-dasharray="9 5"/>
<text x="188" y="133" font-family="Arial" font-size="18" fill="black">Uy / v</text>
<polyline points="190.69,661.55 193.64,655.05 196.58,648.55 199.53,642.04 202.47,635.54 205.42,624.67 208.36,612.05 211.31,599.42 214.25,586.81 217.20,574.49 220.14,562.58 223.09,550.68 226.03,538.76 228.98,526.94 231.93,515.58 234.87,504.22 237.82,492.86 240.76,481.50 243.71,470.50 246.65,459.56 249.60,448.62 252.54,437.68 255.49,426.96 258.43,416.40 261.38,405.85 264.32,395.29 267.27,384.87 270.22,374.81 273.16,364.74 276.11,354.67 279.05,344.61 282.00,335.38 284.94,326.15 287.89,316.92 290.83,307.69 293.78,299.46 296.72,291.62 299.67,283.78 302.62,275.95 305.56,268.93 308.51,263.01 311.45,257.09 314.40,251.17 317.34,245.56 320.29,241.79 323.23,238.02 326.17,234.25 329.13,230.49 332.07,228.48 335.01,226.76 337.96,225.04 340.91,223.32 343.85,222.56 346.80,222.53 349.74,222.49 352.68,222.45 355.64,222.75 358.58,223.90 361.52,225.04 364.47,226.18 367.41,227.33 370.35,229.15 373.31,230.97 376.25,232.80 379.19,234.62 382.15,236.63 385.09,238.70 388.03,240.78 390.98,242.86 393.92,244.92 396.86,246.95 399.82,248.97 402.76,251.00 405.70,253.00 408.65,254.82 411.59,256.64 414.54,258.46 417.49,260.28 420.43,261.90 423.37,263.50 426.33,265.09 429.27,266.69 432.21,268.19 435.16,269.62 438.10,271.05 441.04,272.48 444.00,273.88 446.94,275.20 449.88,276.53 452.83,277.85 455.78,279.17 458.72,280.43 461.67,281.68 464.61,282.93 467.55,284.19 470.51,285.39 473.45,286.57 476.39,287.75 479.34,288.93 482.28,290.07 485.23,291.13 488.18,292.20 491.12,293.27 494.06,294.32 497.02,295.20 499.96,296.08 502.90,296.96 505.85,297.85 508.79,298.48 511.73,299.07 514.69,299.66 517.63,300.24 520.57,300.58 523.52,300.74 526.47,300.89 529.41,301.04 532.36,301.02 535.30,300.55 538.24,300.09 541.20,299.63 544.14,299.17 547.08,297.89 550.03,296.62 552.97,295.35 555.92,294.08 558.87,292.08 561.81,289.80 564.75,287.51 567.71,285.23 570.65,282.45 573.59,279.01 576.54,275.58 579.48,272.15 582.42,268.56 585.38,264.05 588.32,259.54 591.26,255.04 594.21,250.53 597.16,245.53 600.10,240.44 603.05,235.36 605.99,230.27 608.93,225.49 611.89,220.93 614.83,216.37 617.77,211.81 620.72,207.82 623.66,205.27 626.60,202.71 629.56,200.16 632.50,197.61 635.44,197.98 638.40,198.34 641.34,198.71 644.28,199.08 647.23,201.24 650.17,204.11 653.11,206.99 656.07,209.87 659.01,213.24 661.95,217.27 664.90,221.30 667.84,225.33 670.79,229.33 673.74,233.15 676.68,236.97 679.62,240.80 682.58,244.62 685.52,247.50 688.46,250.22 691.41,252.95 694.35,255.67 697.29,257.57 700.25,258.84 703.19,260.11 706.13,261.38 709.08,262.24 712.03,262.07 714.97,261.90 717.92,261.74 720.86,261.57 723.80,260.17 726.76,258.78 729.70,257.38 732.64,255.99 735.59,253.91 738.53,251.56 741.48,249.22 744.43,246.87 747.37,244.24 750.31,241.23 753.27,238.22 756.21,235.21 759.15,232.14 762.10,228.75 765.04,225.35 767.98,221.96 770.94,218.56 773.88,215.07 776.82,211.57 779.77,208.06 782.72,204.56 785.66,201.16 788.61,197.83 791.55,194.50 794.49,191.17 797.45,187.97 800.39,185.12 803.33,182.28 806.28,179.43 809.22,176.58 812.17,174.52 815.12,172.46 818.06,170.40 821.00,168.35 823.96,167.06 826.90,166.08 829.84,165.11 832.79,164.12 835.73,163.70 838.67,164.00 841.63,164.31 844.57,164.62 847.51,165.11 850.46,166.76 853.41,168.41 856.35,170.06 859.30,171.71 862.24,174.42 865.18,177.30 868.14,180.18 871.08,183.07 874.02,186.52 876.97,190.40 879.91,194.28 882.85,198.16 885.81,202.25 888.75,206.84 891.69,211.44 894.65,216.04 897.59,220.63 900.53,225.68 903.48,230.72 906.42,235.77 909.36,240.81 912.32,246.01 915.26,251.27 918.20,256.53 921.15,261.79 924.09,267.05 927.04,272.32 929.99,277.59 932.93,282.86 935.87,288.11 938.83,293.22 941.77,298.34 944.71,303.45 947.66,308.56 950.60,313.44 953.54,318.27 956.50,323.10 959.44,327.94 962.38,332.57 965.33,337.04 968.28,341.52 971.22,346.00 974.17,350.37 977.11,354.46 980.05,358.55 983.01,362.64 985.95,366.73 988.89,370.42 991.84,374.10 994.78,377.79 997.73,381.47 1000.68,384.84 1003.62,388.06 1006.56,391.30 1009.52,394.52 1012.46,397.52 1015.40,400.19 1018.35,402.86 1021.29,405.54 1024.23,408.11 1027.19,410.07 1030.13,412.03 1033.07,414.00 1036.02,415.96 1038.97,417.15 1041.91,418.21 1044.86,419.27 1047.80,420.33 1050.74,420.67 1053.70,420.47 1056.64,420.26 1059.58,420.06 1062.53,419.78 1065.47,419.29 1068.42,418.82 1071.37,418.33 1074.31,417.85" fill="none" stroke="#999999" stroke-width="3" stroke-dasharray="3 4"/>
<line x1="142" y1="156" x2="178" y2="156" stroke="#999999" stroke-width="4" stroke-dasharray="3 4"/>
<text x="188" y="161" font-family="Arial" font-size="18" fill="black">Uz / w</text>
</svg>