<svg xmlns="http://www.w3.org/2000/svg" width="1200" height="820" viewBox="0 0 1200 820">
<rect width="100%" height="100%" fill="white"/>
<text x="600.0" y="36" text-anchor="middle" font-family="Arial" font-size="24" fill="black">profile_center_y: vorticity:0</text>
<line x1="120.00" y1="75" x2="120.00" y2="705" stroke="#dddddd" stroke-width="1"/>
<text x="120.00" y="737" text-anchor="middle" font-family="Arial" font-size="16" fill="black">-0.400</text>
<line x1="376.25" y1="75" x2="376.25" y2="705" stroke="#dddddd" stroke-width="1"/>
<text x="376.25" y="737" text-anchor="middle" font-family="Arial" font-size="16" fill="black">1.050</text>
<line x1="632.50" y1="75" x2="632.50" y2="705" stroke="#dddddd" stroke-width="1"/>
<text x="632.50" y="737" text-anchor="middle" font-family="Arial" font-size="16" fill="black">2.500</text>
<line x1="888.75" y1="75" x2="888.75" y2="705" stroke="#dddddd" stroke-width="1"/>
<text x="888.75" y="737" text-anchor="middle" font-family="Arial" font-size="16" fill="black">3.950</text>
<line x1="1145.00" y1="75" x2="1145.00" y2="705" stroke="#dddddd" stroke-width="1"/>
<text x="1145.00" y="737" text-anchor="middle" font-family="Arial" font-size="16" fill="black">5.400</text>
<line x1="120" y1="705.00" x2="1145" y2="705.00" stroke="#dddddd" stroke-width="1"/>
<text x="104" y="710.00" text-anchor="end" font-family="Arial" font-size="16" fill="black">-1.681</text>
<line x1="120" y1="547.50" x2="1145" y2="547.50" stroke="#dddddd" stroke-width="1"/>
<text x="104" y="552.50" text-anchor="end" font-family="Arial" font-size="16" fill="black">-0.038</text>
<line x1="120" y1="390.00" x2="1145" y2="390.00" stroke="#dddddd" stroke-width="1"/>
<text x="104" y="395.00" text-anchor="end" font-family="Arial" font-size="16" fill="black">1.605</text>
<line x1="120" y1="232.50" x2="1145" y2="232.50" stroke="#dddddd" stroke-width="1"/>
<text x="104" y="237.50" text-anchor="end" font-family="Arial" font-size="16" fill="black">3.247</text>
<line x1="120" y1="75.00" x2="1145" y2="75.00" stroke="#dddddd" stroke-width="1"/>
<text x="104" y="80.00" text-anchor="end" font-family="Arial" font-size="16" fill="black">4.890</text>
<rect x="120" y="75" width="1025" height="630" fill="none" stroke="black" stroke-width="2"/>
<text x="632.5" y="785" text-anchor="middle" font-family="Arial" font-size="20" fill="black">y coordinate [m]</text>
<text x="34" y="390.0" transform="rotate(-90 34 390.0)" text-anchor="middle" font-family="Arial" font-size="20" fill="black">vorticity:0 [SI]</text>
<polyline points="190.69,422.52 193.64,436.59 196.58,450.66 199.53,464.73 202.47,478.79 205.42,492.86 208.36,506.92 211.31,523.58 214.25,540.25 217.20,556.91 220.14,573.57 223.09,590.23 226.03,606.89 228.98,610.45 231.92,614.02 234.87,617.59 237.82,621.15 240.76,624.72 243.71,628.29 246.65,628.22 249.60,628.15 252.54,628.09 255.49,628.02 258.43,627.95 261.38,627.88 264.33,624.97 267.27,622.05 270.22,619.13 273.16,616.21 276.11,613.29 279.05,610.37 282.00,606.45 284.94,602.53 287.89,598.61 290.83,594.68 293.78,590.76 296.72,586.84 299.67,582.72 302.61,578.60 305.56,574.49 308.51,570.37 311.45,566.25 314.40,562.14 317.34,557.94 320.29,553.74 323.23,549.54 326.18,545.34 329.12,541.14 332.07,536.94 335.01,532.63 337.96,528.32 340.91,524.01 343.85,519.70 346.80,515.39 349.74,511.08 352.69,507.16 355.63,503.23 358.58,499.31 361.52,495.38 364.47,491.46 367.41,487.53 370.37,484.85 373.30,482.17 376.25,479.48 379.20,476.80 382.13,474.12 385.09,471.44 388.04,470.20 390.97,468.97 393.92,467.74 396.87,466.50 399.81,465.27 402.76,464.04 405.71,463.93 408.64,463.82 411.59,463.71 414.55,463.60 417.48,463.49 420.43,463.38 423.38,464.07 426.32,464.77 429.27,465.46 432.22,466.15 435.15,466.84 438.10,467.54 441.05,468.77 443.99,469.99 446.94,471.22 449.89,472.45 452.82,473.68 455.78,474.91 458.73,476.50 461.66,478.08 464.61,479.67 467.56,481.25 470.50,482.84 473.45,484.42 476.40,486.31 479.33,488.20 482.28,490.09 485.24,491.97 488.17,493.86 491.12,495.75 494.07,498.04 497.01,500.32 499.96,502.61 502.91,504.89 505.84,507.18 508.79,509.46 511.74,512.26 514.68,515.05 517.63,517.85 520.58,520.64 523.51,523.44 526.47,526.23 529.42,529.03 532.35,531.83 535.30,534.62 538.25,537.42 541.19,540.22 544.14,543.02 547.09,544.91 550.02,546.81 552.97,548.71 555.93,550.60 558.86,552.50 561.81,554.40 564.76,555.25 567.70,556.11 570.65,556.96 573.60,557.82 576.53,558.67 579.48,559.53 582.43,559.75 585.37,559.98 588.32,560.21 591.27,560.43 594.20,560.66 597.16,560.89 600.11,560.76 603.04,560.64 605.99,560.52 608.94,560.40 611.88,560.28 614.83,560.16 617.78,559.80 620.71,559.45 623.66,559.10 626.62,558.75 629.55,558.40 632.50,558.05 635.45,557.45 638.38,556.85 641.34,556.25 644.29,555.65 647.22,555.05 650.17,554.45 653.12,553.50 656.06,552.55 659.01,551.61 661.96,550.66 664.89,549.72 667.84,548.77 670.80,547.37 673.73,545.98 676.68,544.58 679.63,543.19 682.57,541.80 685.52,540.40 688.47,538.57 691.40,536.75 694.35,534.92 697.30,533.10 700.24,531.27 703.19,529.44 706.14,527.63 709.07,525.82 712.03,524.01 714.98,522.20 717.91,520.39 720.86,518.58 723.81,517.40 726.75,516.23 729.70,515.06 732.65,513.88 735.58,512.71 738.53,511.53 741.49,511.07 744.42,510.60 747.37,510.14 750.32,509.67 753.26,509.21 756.21,508.75 759.16,508.76 762.09,508.77 765.04,508.78 767.99,508.80 770.93,508.81 773.88,508.82 776.83,509.21 779.76,509.61 782.72,510.00 785.67,510.40 788.60,510.79 791.55,511.18 794.50,511.97 797.44,512.76 800.39,513.55 803.34,514.34 806.27,515.13 809.22,515.92 812.18,517.19 815.11,518.47 818.06,519.74 821.01,521.02 823.95,522.29 826.90,523.57 829.85,525.44 832.78,527.32 835.73,529.20 838.68,531.08 841.62,532.96 844.57,534.84 847.52,537.36 850.45,539.89 853.41,542.41 856.36,544.94 859.29,547.46 862.24,549.99 865.19,552.95 868.13,555.90 871.08,558.86 874.03,561.81 876.96,564.77 879.91,567.73 882.87,570.35 885.80,572.98 888.75,575.61 891.70,578.24 894.63,580.87 897.59,583.50 900.54,585.28 903.47,587.05 906.42,588.83 909.37,590.60 912.31,592.38 915.26,594.15 918.21,595.78 921.14,597.42 924.09,599.05 927.05,600.68 929.98,602.31 932.93,603.94 935.88,606.40 938.82,608.85 941.77,611.30 944.72,613.75 947.65,616.20 950.60,618.65 953.55,621.82 956.49,624.99 959.44,628.16 962.39,631.33 965.32,634.51 968.28,637.68 971.23,640.39 974.16,643.10 977.11,645.81 980.06,648.52 983.00,651.23 985.95,653.95 988.90,655.21 991.83,656.48 994.78,657.75 997.74,659.01 1000.67,660.28 1003.62,661.55 1006.57,661.52 1009.51,661.49 1012.46,661.47 1015.41,661.44 1018.34,661.41 1021.29,661.38 1024.24,660.90 1027.18,660.43 1030.13,659.96 1033.08,659.49 1036.01,659.02 1038.97,658.54 1041.92,613.43 1044.85,568.31 1047.80,523.20 1050.75,478.08 1053.69,432.96 1056.64,387.84 1059.59,342.95 1062.52,298.04 1065.47,253.14 1068.43,208.25 1071.36,163.34 1074.31,118.45" fill="none" stroke="#000000" stroke-width="3"/>
<line x1="142" y1="100" x2="178" y2="100" stroke="#000000" stroke-width="4"/>
<text x="188" y="105" font-family="Arial" font-size="18" fill="black">vorticity:0</text>
</svg>