<svg xmlns="http://www.w3.org/2000/svg" width="1200" height="820" viewBox="0 0 1200 820">
<rect width="100%" height="100%" fill="white"/>
<text x="600.0" y="36" text-anchor="middle" font-family="Arial" font-size="24" fill="black">profile_rack_height_x: T</text>
<line x1="120.00" y1="75" x2="120.00" y2="705" stroke="#dddddd" stroke-width="1"/>
<text x="120.00" y="737" text-anchor="middle" font-family="Arial" font-size="16" fill="black">-0.560</text>
<line x1="376.25" y1="75" x2="376.25" y2="705" stroke="#dddddd" stroke-width="1"/>
<text x="376.25" y="737" text-anchor="middle" font-family="Arial" font-size="16" fill="black">1.470</text>
<line x1="632.50" y1="75" x2="632.50" y2="705" stroke="#dddddd" stroke-width="1"/>
<text x="632.50" y="737" text-anchor="middle" font-family="Arial" font-size="16" fill="black">3.500</text>
<line x1="888.75" y1="75" x2="888.75" y2="705" stroke="#dddddd" stroke-width="1"/>
<text x="888.75" y="737" text-anchor="middle" font-family="Arial" font-size="16" fill="black">5.530</text>
<line x1="1145.00" y1="75" x2="1145.00" y2="705" stroke="#dddddd" stroke-width="1"/>
<text x="1145.00" y="737" text-anchor="middle" font-family="Arial" font-size="16" fill="black">7.560</text>
<line x1="120" y1="705.00" x2="1145" y2="705.00" stroke="#dddddd" stroke-width="1"/>
<text x="104" y="710.00" text-anchor="end" font-family="Arial" font-size="16" fill="black">328.3</text>
<line x1="120" y1="547.50" x2="1145" y2="547.50" stroke="#dddddd" stroke-width="1"/>
<text x="104" y="552.50" text-anchor="end" font-family="Arial" font-size="16" fill="black">332.3</text>
<line x1="120" y1="390.00" x2="1145" y2="390.00" stroke="#dddddd" stroke-width="1"/>
<text x="104" y="395.00" text-anchor="end" font-family="Arial" font-size="16" fill="black">336.4</text>
<line x1="120" y1="232.50" x2="1145" y2="232.50" stroke="#dddddd" stroke-width="1"/>
<text x="104" y="237.50" text-anchor="end" font-family="Arial" font-size="16" fill="black">340.5</text>
<line x1="120" y1="75.00" x2="1145" y2="75.00" stroke="#dddddd" stroke-width="1"/>
<text x="104" y="80.00" text-anchor="end" font-family="Arial" font-size="16" fill="black">344.5</text>
<rect x="120" y="75" width="1025" height="630" fill="none" stroke="black" stroke-width="2"/>
<text x="632.5" y="785" text-anchor="middle" font-family="Arial" font-size="20" fill="black">x coordinate [m]</text>
<text x="34" y="390.0" transform="rotate(-90 34 390.0)" text-anchor="middle" font-family="Arial" font-size="20" fill="black">T [K]</text>
<polyline points="190.69,441.75 193.64,446.02 196.58,449.89 199.53,454.16 202.47,458.03 205.42,464.62 208.36,472.38 211.31,480.13 214.25,487.50 217.20,495.25 220.14,502.23 223.09,509.20 226.03,516.57 228.98,523.55 231.93,530.91 234.87,538.67 237.82,546.03 240.76,553.40 243.71,561.15 246.65,568.51 249.60,576.27 252.54,584.02 255.49,591.39 258.43,598.75 261.38,606.50 264.32,613.87 267.27,620.85 270.22,627.05 273.16,633.25 276.11,639.84 279.05,646.05 282.00,649.92 284.94,653.41 287.89,657.29 290.83,660.78 293.78,661.55 296.72,661.16 299.67,660.78 302.62,660.39 305.56,658.06 308.51,653.41 311.45,648.37 314.40,643.33 317.34,637.90 320.29,629.76 323.23,621.62 326.17,613.48 329.13,604.95 332.07,595.65 335.01,586.35 337.96,577.04 340.91,567.74 343.85,558.44 346.80,549.91 349.74,541.38 352.68,532.46 355.64,524.32 358.58,517.73 361.52,510.75 364.47,503.78 367.41,496.80 370.35,491.76 373.31,486.72 376.25,481.68 379.19,476.64 382.15,472.76 385.09,469.28 388.03,465.79 390.98,462.30 393.92,459.20 396.86,456.87 399.82,454.93 402.76,452.61 405.70,450.28 408.65,449.12 411.59,447.95 414.54,446.79 417.49,445.63 420.43,444.85 423.37,444.47 426.33,444.47 429.27,444.08 432.21,444.08 435.16,444.47 438.10,445.24 441.04,445.63 444.00,446.40 446.94,447.57 449.88,448.73 452.83,449.89 455.78,451.06 458.72,452.99 461.67,454.54 464.61,456.48 467.55,458.03 470.51,460.36 473.45,462.30 476.39,464.62 479.34,466.56 482.28,468.89 485.23,471.21 488.18,473.93 491.12,476.25 494.06,478.58 497.02,480.90 499.96,483.23 502.90,485.94 505.85,488.27 508.79,490.60 511.73,492.92 514.69,495.25 517.63,497.57 520.57,499.90 523.52,502.23 526.47,504.55 529.41,506.49 532.36,508.82 535.30,510.75 538.24,512.69 541.20,514.63 544.14,516.96 547.08,518.51 550.03,520.06 552.97,521.61 555.92,523.16 558.87,524.32 561.81,525.10 564.75,525.87 567.71,527.04 570.65,527.42 573.59,526.65 576.54,526.26 579.48,525.87 582.42,525.10 585.38,522.77 588.32,520.45 591.26,517.73 594.21,515.41 597.16,510.75 600.10,505.33 603.05,500.29 605.99,494.86 608.93,487.88 611.89,479.74 614.83,471.60 617.77,463.46 620.72,454.54 623.66,444.47 626.60,434.39 629.56,424.31 632.50,414.23 635.44,404.15 638.40,394.07 641.34,383.99 644.28,373.91 647.23,365.38 650.17,357.24 653.11,349.10 656.07,340.96 659.01,333.98 661.95,328.94 664.90,323.52 667.84,318.09 670.79,313.05 673.74,309.95 676.68,306.85 679.62,304.13 682.58,301.03 685.52,299.10 688.46,297.54 691.41,295.61 694.35,294.06 697.29,292.89 700.25,291.73 703.19,290.57 706.13,289.40 709.08,288.24 712.03,286.69 714.97,285.53 717.92,284.36 720.86,283.20 723.80,281.26 726.76,279.71 729.70,278.16 732.64,276.61 735.59,274.29 738.53,271.96 741.48,269.63 744.43,267.70 747.37,264.98 750.31,261.88 753.27,258.78 756.21,256.07 759.15,252.96 762.10,249.09 765.04,245.21 767.98,241.72 770.94,237.85 773.88,233.58 776.82,228.93 779.77,224.67 782.72,220.01 785.66,215.36 788.61,210.32 791.55,205.28 794.49,200.24 797.45,195.20 800.39,189.78 803.33,184.74 806.28,179.31 809.22,174.27 812.17,169.23 815.12,164.19 818.06,159.15 821.00,154.11 823.96,149.46 826.90,145.20 829.84,140.93 832.79,137.06 835.73,133.18 838.67,130.47 841.63,127.75 844.57,125.04 847.51,122.32 850.46,121.55 853.41,120.39 856.35,119.22 859.30,118.45 862.24,118.84 865.18,119.61 868.14,120.39 871.08,121.16 874.02,122.71 876.97,124.65 879.91,126.98 882.85,128.91 885.81,131.24 888.75,133.95 891.69,137.06 894.65,139.77 897.59,142.87 900.53,145.97 903.48,149.46 906.42,152.56 909.36,155.66 912.32,159.15 915.26,162.25 918.20,165.35 921.15,168.84 924.09,171.94 927.04,174.66 929.99,177.76 932.93,180.86 935.87,183.57 938.83,186.29 941.77,189.00 944.71,191.33 947.66,194.04 950.60,196.37 953.54,198.31 956.50,200.24 959.44,202.57 962.38,204.12 965.33,205.67 968.28,207.22 971.22,209.16 974.17,210.32 977.11,211.49 980.05,212.26 983.01,213.42 985.95,214.20 988.89,214.59 991.84,214.97 994.78,215.36 997.73,215.75 1000.68,215.75 1003.62,215.36 1006.56,214.97 1009.52,214.97 1012.46,214.59 1015.40,213.81 1018.35,213.04 1021.29,212.26 1024.23,211.49 1027.19,210.71 1030.13,209.55 1033.07,208.77 1036.02,207.61 1038.97,206.83 1041.91,205.67 1044.86,204.90 1047.80,204.12 1050.74,203.34 1053.70,202.57 1056.64,202.18 1059.58,201.79 1062.53,201.41 1065.47,201.41 1068.42,201.02 1071.37,201.02 1074.31,201.02" fill="none" stroke="#000000" stroke-width="3"/>
<line x1="142" y1="100" x2="178" y2="100" stroke="#000000" stroke-width="4"/>
<text x="188" y="105" font-family="Arial" font-size="18" fill="black">T</text>
</svg>