<svg xmlns="http://www.w3.org/2000/svg" width="1200" height="820" viewBox="0 0 1200 820">
<rect width="100%" height="100%" fill="white"/>
<text x="600.0" y="36" text-anchor="middle" font-family="Arial" font-size="24" fill="black">profile_near_floor_x: U:0</text>
<line x1="120.00" y1="75" x2="120.00" y2="705" stroke="#dddddd" stroke-width="1"/>
<text x="120.00" y="737" text-anchor="middle" font-family="Arial" font-size="16" fill="black">-0.560</text>
<line x1="376.25" y1="75" x2="376.25" y2="705" stroke="#dddddd" stroke-width="1"/>
<text x="376.25" y="737" text-anchor="middle" font-family="Arial" font-size="16" fill="black">1.470</text>
<line x1="632.50" y1="75" x2="632.50" y2="705" stroke="#dddddd" stroke-width="1"/>
<text x="632.50" y="737" text-anchor="middle" font-family="Arial" font-size="16" fill="black">3.500</text>
<line x1="888.75" y1="75" x2="888.75" y2="705" stroke="#dddddd" stroke-width="1"/>
<text x="888.75" y="737" text-anchor="middle" font-family="Arial" font-size="16" fill="black">5.530</text>
<line x1="1145.00" y1="75" x2="1145.00" y2="705" stroke="#dddddd" stroke-width="1"/>
<text x="1145.00" y="737" text-anchor="middle" font-family="Arial" font-size="16" fill="black">7.560</text>
<line x1="120" y1="705.00" x2="1145" y2="705.00" stroke="#dddddd" stroke-width="1"/>
<text x="104" y="710.00" text-anchor="end" font-family="Arial" font-size="16" fill="black">-0.299</text>
<line x1="120" y1="547.50" x2="1145" y2="547.50" stroke="#dddddd" stroke-width="1"/>
<text x="104" y="552.50" text-anchor="end" font-family="Arial" font-size="16" fill="black">-0.131</text>
<line x1="120" y1="390.00" x2="1145" y2="390.00" stroke="#dddddd" stroke-width="1"/>
<text x="104" y="395.00" text-anchor="end" font-family="Arial" font-size="16" fill="black">0.037</text>
<line x1="120" y1="232.50" x2="1145" y2="232.50" stroke="#dddddd" stroke-width="1"/>
<text x="104" y="237.50" text-anchor="end" font-family="Arial" font-size="16" fill="black">0.204</text>
<line x1="120" y1="75.00" x2="1145" y2="75.00" stroke="#dddddd" stroke-width="1"/>
<text x="104" y="80.00" text-anchor="end" font-family="Arial" font-size="16" fill="black">0.372</text>
<rect x="120" y="75" width="1025" height="630" fill="none" stroke="black" stroke-width="2"/>
<text x="632.5" y="785" text-anchor="middle" font-family="Arial" font-size="20" fill="black">x coordinate [m]</text>
<text x="34" y="390.0" transform="rotate(-90 34 390.0)" text-anchor="middle" font-family="Arial" font-size="20" fill="black">U:0 [SI]</text>
<polyline points="190.69,460.81 193.64,461.74 196.58,462.67 199.53,463.60 202.47,464.53 205.42,467.82 208.36,472.05 211.31,476.27 214.25,480.50 217.20,485.30 220.14,490.88 223.09,496.45 226.03,502.02 228.98,507.44 231.93,511.92 234.87,516.40 237.82,520.87 240.76,525.35 243.71,529.88 246.65,534.41 249.60,538.94 252.54,543.47 255.49,548.24 258.43,553.19 261.38,558.14 264.32,563.08 267.27,568.27 270.22,574.06 273.16,579.84 276.11,585.61 279.05,591.40 282.00,599.31 284.94,607.22 287.89,615.13 290.83,623.05 293.78,631.68 296.72,640.59 299.67,649.51 302.62,658.42 305.56,661.55 308.51,656.98 311.45,652.42 314.40,647.84 317.34,641.37 320.29,623.43 323.23,605.50 326.17,587.56 329.13,569.64 332.07,553.06 335.01,536.71 337.96,520.35 340.91,504.00 343.85,490.14 346.80,478.14 349.74,466.15 352.68,454.15 355.64,443.08 358.58,434.32 361.52,425.56 364.47,416.80 367.41,408.05 370.35,400.39 373.31,392.73 376.25,385.07 379.19,377.41 382.15,368.78 385.09,359.77 388.03,350.76 390.98,341.75 393.92,331.67 396.86,320.18 399.82,308.68 402.76,297.18 405.70,285.38 408.65,271.78 411.59,258.19 414.54,244.59 417.49,231.00 420.43,227.47 423.37,225.62 426.33,223.77 429.27,221.93 432.21,226.91 435.16,237.01 438.10,247.11 441.04,257.21 444.00,266.89 446.94,275.51 449.88,284.12 452.83,292.74 455.78,301.35 458.72,309.31 461.67,317.26 464.61,325.21 467.55,333.17 470.51,342.38 473.45,352.09 476.39,361.80 479.34,371.51 482.28,382.53 485.23,395.32 488.18,408.10 491.12,420.88 494.06,433.51 497.02,445.22 499.96,456.92 502.90,468.63 505.85,480.33 508.79,489.17 511.73,497.52 514.69,505.88 517.63,514.23 520.57,521.26 523.52,527.29 526.47,533.31 529.41,539.34 532.36,544.81 535.30,548.87 538.24,552.93 541.20,556.99 544.14,561.05 547.08,565.71 550.03,570.37 552.97,575.02 555.92,579.69 558.87,585.39 561.81,591.50 564.75,597.62 567.71,603.74 570.65,605.05 573.59,599.96 576.54,594.88 579.48,589.80 582.42,583.18 585.38,567.43 588.32,551.67 591.26,535.91 594.21,520.15 597.16,506.79 600.10,493.84 603.05,480.88 605.99,467.92 608.93,457.06 611.89,447.77 614.83,438.48 617.77,429.19 620.72,420.30 623.66,412.44 626.60,404.57 629.56,396.71 632.50,388.84 635.44,379.81 638.40,370.78 641.34,361.75 644.28,352.73 647.23,341.28 650.17,328.86 653.11,316.44 656.07,304.03 659.01,290.18 661.95,274.43 664.90,258.68 667.84,242.94 670.79,226.82 673.74,208.54 676.68,190.26 679.62,171.98 682.58,153.71 685.52,144.18 688.46,136.11 691.41,128.04 694.35,119.99 697.29,118.45 700.25,121.81 703.19,125.16 706.13,128.52 709.08,131.96 712.03,135.62 714.97,139.28 717.92,142.94 720.86,146.60 723.80,152.93 726.76,159.26 729.70,165.60 732.64,171.93 735.59,181.14 738.53,191.52 741.48,201.89 744.43,212.26 747.37,224.02 750.31,237.63 753.27,251.23 756.21,264.83 759.15,278.87 762.10,295.56 765.04,312.23 767.98,328.92 770.94,345.60 773.88,361.18 776.82,376.58 779.77,391.98 782.72,407.37 785.66,419.64 788.61,429.57 791.55,439.49 794.49,449.42 797.45,458.59 800.39,465.89 803.33,473.18 806.28,480.48 809.22,487.78 812.17,493.92 815.12,500.07 818.06,506.21 821.00,512.36 823.96,520.57 826.90,529.59 829.84,538.62 832.79,547.65 835.73,553.51 838.67,555.13 841.63,556.75 844.57,558.37 847.51,558.28 850.46,547.96 853.41,537.64 856.35,527.32 859.30,516.99 862.24,506.89 865.18,496.83 868.14,486.76 871.08,476.70 874.02,467.76 876.97,459.66 879.91,451.56 882.85,443.46 885.81,435.57 888.75,428.21 891.69,420.84 894.65,413.47 897.59,406.11 900.53,397.75 903.48,389.39 906.42,381.03 909.36,372.68 912.32,361.91 915.26,350.18 918.20,338.45 921.15,326.72 924.09,313.22 927.04,297.37 929.99,281.52 932.93,265.67 935.87,249.37 938.83,230.30 941.77,211.24 944.71,192.17 947.66,173.11 950.60,162.60 953.54,153.51 956.50,144.41 959.44,135.32 962.38,133.09 965.33,136.00 968.28,138.91 971.22,141.82 974.17,144.66 977.11,147.35 980.05,150.03 983.01,152.70 985.95,155.39 988.89,158.33 991.84,161.27 994.78,164.21 997.73,167.15 1000.68,171.39 1003.62,176.15 1006.56,180.91 1009.52,185.66 1012.46,191.22 1015.40,197.84 1018.35,204.46 1021.29,211.08 1024.23,217.94 1027.19,226.17 1030.13,234.41 1033.07,242.65 1036.02,250.89 1038.97,261.41 1041.91,272.31 1044.86,283.22 1047.80,294.13 1050.74,305.60 1053.70,317.49 1056.64,329.40 1059.58,341.29 1062.53,351.36 1065.47,356.83 1068.42,362.30 1071.37,367.77 1074.31,373.24" fill="none" stroke="#000000" stroke-width="3"/>
<line x1="142" y1="100" x2="178" y2="100" stroke="#000000" stroke-width="4"/>
<text x="188" y="105" font-family="Arial" font-size="18" fill="black">U:0</text>
</svg>