<svg xmlns="http://www.w3.org/2000/svg" width="1200" height="820" viewBox="0 0 1200 820">
<rect width="100%" height="100%" fill="white"/>
<text x="600.0" y="36" text-anchor="middle" font-family="Arial" font-size="24" fill="black">profile_center_y: nut</text>
<line x1="120.00" y1="75" x2="120.00" y2="705" stroke="#dddddd" stroke-width="1"/>
<text x="120.00" y="737" text-anchor="middle" font-family="Arial" font-size="16" fill="black">-0.400</text>
<line x1="376.25" y1="75" x2="376.25" y2="705" stroke="#dddddd" stroke-width="1"/>
<text x="376.25" y="737" text-anchor="middle" font-family="Arial" font-size="16" fill="black">1.050</text>
<line x1="632.50" y1="75" x2="632.50" y2="705" stroke="#dddddd" stroke-width="1"/>
<text x="632.50" y="737" text-anchor="middle" font-family="Arial" font-size="16" fill="black">2.500</text>
<line x1="888.75" y1="75" x2="888.75" y2="705" stroke="#dddddd" stroke-width="1"/>
<text x="888.75" y="737" text-anchor="middle" font-family="Arial" font-size="16" fill="black">3.950</text>
<line x1="1145.00" y1="75" x2="1145.00" y2="705" stroke="#dddddd" stroke-width="1"/>
<text x="1145.00" y="737" text-anchor="middle" font-family="Arial" font-size="16" fill="black">5.400</text>
<line x1="120" y1="705.00" x2="1145" y2="705.00" stroke="#dddddd" stroke-width="1"/>
<text x="104" y="710.00" text-anchor="end" font-family="Arial" font-size="16" fill="black">-8.18e-04</text>
<line x1="120" y1="547.50" x2="1145" y2="547.50" stroke="#dddddd" stroke-width="1"/>
<text x="104" y="552.50" text-anchor="end" font-family="Arial" font-size="16" fill="black">0.005</text>
<line x1="120" y1="390.00" x2="1145" y2="390.00" stroke="#dddddd" stroke-width="1"/>
<text x="104" y="395.00" text-anchor="end" font-family="Arial" font-size="16" fill="black">0.011</text>
<line x1="120" y1="232.50" x2="1145" y2="232.50" stroke="#dddddd" stroke-width="1"/>
<text x="104" y="237.50" text-anchor="end" font-family="Arial" font-size="16" fill="black">0.017</text>
<line x1="120" y1="75.00" x2="1145" y2="75.00" stroke="#dddddd" stroke-width="1"/>
<text x="104" y="80.00" text-anchor="end" font-family="Arial" font-size="16" fill="black">0.023</text>
<rect x="120" y="75" width="1025" height="630" fill="none" stroke="black" stroke-width="2"/>
<text x="632.5" y="785" text-anchor="middle" font-family="Arial" font-size="20" fill="black">y coordinate [m]</text>
<text x="34" y="390.0" transform="rotate(-90 34 390.0)" text-anchor="middle" font-family="Arial" font-size="20" fill="black">nut [m2/s]</text>
<polyline points="190.69,661.55 193.64,654.09 196.58,646.64 199.53,639.18 202.47,631.72 205.42,624.27 208.36,616.81 211.31,605.21 214.25,593.62 217.20,582.03 220.14,570.44 223.09,558.85 226.03,547.25 228.98,540.10 231.92,532.95 234.87,525.80 237.82,518.65 240.76,511.50 243.71,504.34 246.65,498.68 249.60,493.02 252.54,487.35 255.49,481.69 258.43,476.03 261.38,470.36 264.33,465.25 267.27,460.13 270.22,455.02 273.16,449.90 276.11,444.79 279.05,439.67 282.00,434.61 284.94,429.56 287.89,424.50 290.83,419.44 293.78,414.38 296.72,409.33 299.67,403.73 302.61,398.10 305.56,392.50 308.51,386.87 311.45,381.27 314.40,375.67 317.34,369.22 320.29,362.80 323.23,356.35 326.18,349.92 329.12,343.47 332.07,337.05 335.01,330.28 337.96,323.48 340.91,316.71 343.85,309.95 346.80,303.18 349.74,296.41 352.69,290.36 355.63,284.30 358.58,278.25 361.52,272.20 364.47,266.15 367.41,260.09 370.37,255.50 373.30,250.94 376.25,246.34 379.20,241.78 382.13,237.21 385.09,232.62 388.04,229.73 390.97,226.81 393.92,223.89 396.87,220.99 399.81,218.07 402.76,215.18 405.71,213.85 408.64,212.55 411.59,211.22 414.55,209.92 417.48,208.62 420.43,207.30 423.38,207.30 426.32,207.32 429.27,207.32 432.22,207.32 435.15,207.35 438.10,207.35 441.05,208.22 443.99,209.07 446.94,209.95 449.89,210.83 452.82,211.68 455.78,212.55 458.73,213.80 461.66,215.02 464.61,216.24 467.56,217.49 470.50,218.71 473.45,219.96 476.40,221.13 479.33,222.32 482.28,223.49 485.24,224.68 488.17,225.88 491.12,227.05 494.07,227.89 497.01,228.72 499.96,229.54 502.91,230.39 505.84,231.21 508.79,232.04 511.74,232.30 514.68,232.57 517.63,232.83 520.58,233.10 523.51,233.36 526.47,233.63 529.42,233.20 532.35,232.75 535.30,232.33 538.25,231.90 541.19,231.45 544.14,231.03 547.09,229.86 550.02,228.72 552.97,227.55 555.93,226.41 558.86,225.24 561.81,224.07 564.76,222.37 567.70,220.65 570.65,218.92 573.60,217.20 576.53,215.47 579.48,213.75 582.43,211.73 585.37,209.71 588.32,207.72 591.27,205.70 594.20,203.69 597.16,201.67 600.11,199.62 603.04,197.58 605.99,195.54 608.94,193.49 611.88,191.45 614.83,189.40 617.78,187.49 620.71,185.58 623.66,183.64 626.62,181.73 629.55,179.82 632.50,177.88 635.45,176.16 638.38,174.43 641.34,172.71 644.29,170.95 647.22,169.23 650.17,167.50 653.12,165.96 656.06,164.42 659.01,162.91 661.96,161.37 664.89,159.83 667.84,158.32 670.80,156.99 673.73,155.64 676.68,154.31 679.63,152.98 682.57,151.66 685.52,150.33 688.47,149.19 691.40,148.07 694.35,146.93 697.30,145.79 700.24,144.68 703.19,143.53 706.14,142.58 709.07,141.65 712.03,140.69 714.98,139.74 717.91,138.81 720.86,137.85 723.81,137.06 726.75,136.29 729.70,135.49 732.65,134.69 735.58,133.90 738.53,133.13 741.49,132.44 744.42,131.75 747.37,131.06 750.32,130.37 753.26,129.68 756.21,129.01 759.16,128.38 762.09,127.77 765.04,127.16 767.99,126.54 770.93,125.93 773.88,125.32 776.83,124.79 779.76,124.26 782.72,123.76 785.67,123.23 788.60,122.70 791.55,122.16 794.50,121.77 797.44,121.37 800.39,120.97 803.34,120.55 806.27,120.15 809.22,119.75 812.18,119.54 815.11,119.30 818.06,119.09 821.01,118.87 823.95,118.66 826.90,118.45 829.85,118.53 832.78,118.63 835.73,118.74 838.68,118.85 841.62,118.95 844.57,119.06 847.52,119.70 850.45,120.36 853.41,121.00 856.36,121.66 859.29,122.30 862.24,122.96 865.19,124.45 868.13,125.93 871.08,127.42 874.03,128.91 876.96,130.39 879.91,131.88 882.87,134.59 885.80,137.30 888.75,140.00 891.70,142.71 894.63,145.42 897.59,148.13 900.54,152.53 903.47,156.91 906.42,161.29 909.37,165.67 912.31,170.05 915.26,174.43 918.21,180.72 921.14,187.01 924.09,193.28 927.05,199.57 929.98,205.86 932.93,212.13 935.88,219.72 938.82,227.28 941.77,234.85 944.72,242.44 947.65,250.01 950.60,257.57 953.55,264.79 956.49,272.01 959.44,279.23 962.39,286.45 965.32,293.67 968.28,300.87 971.23,306.47 974.16,312.04 977.11,317.64 980.06,323.22 983.00,328.82 985.95,334.39 988.90,339.09 991.83,343.79 994.78,348.49 997.74,353.19 1000.67,357.89 1003.62,362.61 1006.57,368.74 1009.51,374.90 1012.46,381.06 1015.41,387.22 1018.34,393.35 1021.29,399.51 1024.24,410.47 1027.18,421.45 1030.13,432.42 1033.08,443.39 1036.01,454.35 1038.97,465.32 1041.92,484.32 1044.85,503.33 1047.80,522.33 1050.75,541.33 1053.69,560.34 1056.64,579.34 1059.59,591.16 1062.52,602.97 1065.47,614.78 1068.43,626.60 1071.36,638.41 1074.31,650.23" fill="none" stroke="#000000" stroke-width="3"/>
<line x1="142" y1="100" x2="178" y2="100" stroke="#000000" stroke-width="4"/>
<text x="188" y="105" font-family="Arial" font-size="18" fill="black">nut</text>
</svg>