<svg xmlns="http://www.w3.org/2000/svg" width="1200" height="820" viewBox="0 0 1200 820">
<rect width="100%" height="100%" fill="white"/>
<text x="600.0" y="36" text-anchor="middle" font-family="Arial" font-size="24" fill="black">profile_diagonal_supply_return: alphat</text>
<line x1="120.00" y1="75" x2="120.00" y2="705" stroke="#dddddd" stroke-width="1"/>
<text x="120.00" y="737" text-anchor="middle" font-family="Arial" font-size="16" fill="black">-0.729</text>
<line x1="376.25" y1="75" x2="376.25" y2="705" stroke="#dddddd" stroke-width="1"/>
<text x="376.25" y="737" text-anchor="middle" font-family="Arial" font-size="16" fill="black">1.913</text>
<line x1="632.50" y1="75" x2="632.50" y2="705" stroke="#dddddd" stroke-width="1"/>
<text x="632.50" y="737" text-anchor="middle" font-family="Arial" font-size="16" fill="black">4.555</text>
<line x1="888.75" y1="75" x2="888.75" y2="705" stroke="#dddddd" stroke-width="1"/>
<text x="888.75" y="737" text-anchor="middle" font-family="Arial" font-size="16" fill="black">7.197</text>
<line x1="1145.00" y1="75" x2="1145.00" y2="705" stroke="#dddddd" stroke-width="1"/>
<text x="1145.00" y="737" text-anchor="middle" font-family="Arial" font-size="16" fill="black">9.839</text>
<line x1="120" y1="705.00" x2="1145" y2="705.00" stroke="#dddddd" stroke-width="1"/>
<text x="104" y="710.00" text-anchor="end" font-family="Arial" font-size="16" fill="black">-0.002</text>
<line x1="120" y1="547.50" x2="1145" y2="547.50" stroke="#dddddd" stroke-width="1"/>
<text x="104" y="552.50" text-anchor="end" font-family="Arial" font-size="16" fill="black">0.006</text>
<line x1="120" y1="390.00" x2="1145" y2="390.00" stroke="#dddddd" stroke-width="1"/>
<text x="104" y="395.00" text-anchor="end" font-family="Arial" font-size="16" fill="black">0.014</text>
<line x1="120" y1="232.50" x2="1145" y2="232.50" stroke="#dddddd" stroke-width="1"/>
<text x="104" y="237.50" text-anchor="end" font-family="Arial" font-size="16" fill="black">0.021</text>
<line x1="120" y1="75.00" x2="1145" y2="75.00" stroke="#dddddd" stroke-width="1"/>
<text x="104" y="80.00" text-anchor="end" font-family="Arial" font-size="16" fill="black">0.029</text>
<rect x="120" y="75" width="1025" height="630" fill="none" stroke="black" stroke-width="2"/>
<text x="632.5" y="785" text-anchor="middle" font-family="Arial" font-size="20" fill="black">distance along sample line [m]</text>
<text x="34" y="390.0" transform="rotate(-90 34 390.0)" text-anchor="middle" font-family="Arial" font-size="20" fill="black">alphat [SI]</text>
<polyline points="190.69,659.73 193.64,659.56 196.58,659.37 199.53,659.16 202.47,658.90 205.42,658.49 208.36,657.93 211.31,657.00 214.25,655.80 217.20,654.36 220.14,652.74 223.09,650.67 226.03,648.23 228.98,645.68 231.93,643.01 234.87,640.02 237.82,636.67 240.76,632.93 243.71,628.97 246.65,624.95 249.60,620.47 252.54,617.00 255.49,613.40 258.43,609.61 261.38,605.53 264.32,601.39 267.27,596.98 270.22,592.42 273.16,587.49 276.11,582.16 279.05,576.41 282.00,572.25 284.94,567.87 287.88,563.25 290.83,558.40 293.78,553.82 296.73,549.24 299.67,544.69 302.62,539.96 305.57,535.45 308.50,531.32 311.45,528.04 314.40,524.66 317.34,521.67 320.29,519.43 323.24,517.13 326.18,514.77 329.12,512.37 332.07,510.63 335.01,509.35 337.96,508.04 340.91,507.46 343.85,507.15 346.80,507.00 349.74,506.79 352.68,506.73 355.63,506.63 358.58,506.54 361.53,506.35 364.47,506.10 367.42,505.80 370.36,505.37 373.30,504.82 376.25,504.18 379.20,503.46 382.14,501.86 385.09,499.94 388.04,497.63 390.97,495.35 393.92,492.40 396.87,488.63 399.81,485.20 402.76,481.87 405.71,477.95 408.65,472.51 411.59,467.27 414.54,462.23 417.48,457.41 420.43,451.27 423.38,444.80 426.32,438.58 429.27,432.60 432.21,426.26 435.16,419.68 438.10,413.36 441.05,406.97 444.00,400.73 446.94,394.46 449.89,388.41 452.84,382.58 455.77,376.96 458.72,371.37 461.67,365.98 464.61,360.78 467.56,355.74 470.51,351.35 473.45,347.27 476.39,342.90 479.34,338.66 482.28,334.87 485.23,331.60 488.18,328.13 491.12,324.74 494.07,321.18 497.01,318.27 499.96,315.37 502.90,312.56 505.85,309.80 508.80,307.42 511.74,304.91 514.69,302.43 517.63,299.68 520.57,297.06 523.52,294.57 526.47,292.11 529.41,289.61 532.36,287.14 535.31,284.56 538.24,282.00 541.19,279.48 544.14,277.00 547.08,273.90 550.03,270.82 552.98,267.74 555.92,264.69 558.86,261.94 561.81,259.28 564.76,256.63 567.70,253.93 570.65,251.70 573.60,250.10 576.54,248.12 579.49,246.17 582.43,244.48 585.37,243.96 588.32,243.44 591.27,242.92 594.21,242.42 597.16,242.65 600.11,243.19 603.04,243.71 605.99,244.21 608.94,244.83 611.88,245.56 614.83,246.29 617.78,247.25 620.72,248.08 623.66,248.52 626.61,248.87 629.55,249.12 632.50,249.29 635.45,248.43 638.40,247.37 641.34,246.12 644.28,244.69 647.23,241.92 650.17,238.51 653.12,235.14 656.07,231.64 659.01,227.40 661.96,222.30 664.90,217.33 667.84,212.31 670.79,207.69 673.74,202.55 676.68,197.56 679.63,192.67 682.58,187.90 685.51,182.99 688.46,178.48 691.41,174.11 694.35,170.16 697.30,166.14 700.25,162.04 703.20,158.07 706.14,154.28 709.08,150.60 712.03,146.85 714.97,143.23 717.92,139.78 720.87,136.49 723.81,133.78 726.76,131.22 729.70,128.85 732.64,126.65 735.59,124.84 738.54,123.19 741.48,121.82 744.43,120.57 747.38,119.63 750.31,119.03 753.26,118.72 756.21,118.45 759.15,118.55 762.10,119.18 765.05,119.82 767.99,120.51 770.93,121.24 773.88,122.61 776.83,124.46 779.77,126.40 782.72,128.85 785.67,131.91 788.61,135.49 791.55,139.21 794.50,143.44 797.44,148.10 800.39,153.55 803.34,159.15 806.28,164.83 809.23,170.65 812.17,178.02 815.11,185.35 818.06,192.65 821.01,199.95 823.95,207.76 826.90,215.75 829.85,223.51 832.79,231.25 835.73,239.20 838.68,247.44 841.63,255.86 844.57,264.23 847.52,272.28 850.47,280.64 853.41,288.97 856.35,297.27 859.30,305.53 862.24,314.04 865.19,322.05 868.14,330.02 871.08,337.91 874.03,345.65 876.97,353.20 879.91,360.63 882.86,367.04 885.81,373.16 888.75,378.69 891.70,384.12 894.65,389.45 897.58,394.67 900.53,398.65 903.48,402.66 906.43,406.72 909.37,410.80 912.32,414.58 915.27,418.35 918.20,422.68 921.15,427.13 924.10,431.65 927.04,436.20 929.99,441.18 932.94,446.25 935.88,451.93 938.82,457.57 941.77,463.22 944.71,468.89 947.66,474.60 950.61,480.43 953.55,486.54 956.50,492.60 959.44,499.02 962.38,505.45 965.33,511.87 968.28,518.23 971.22,524.42 974.17,530.53 977.12,536.68 980.06,542.67 983.00,548.49 985.95,554.17 988.90,560.41 991.84,566.38 994.79,572.07 997.74,577.48 1000.68,582.72 1003.62,587.73 1006.57,593.05 1009.51,598.13 1012.46,602.96 1015.41,607.52 1018.35,613.10 1021.30,618.40 1024.24,623.93 1027.18,628.88 1030.13,633.31 1033.08,637.26 1036.02,640.74 1038.97,644.03 1041.92,647.62 1044.86,650.63 1047.80,653.00 1050.75,655.09 1053.70,656.86 1056.64,658.26 1059.59,659.31 1062.54,660.08 1065.47,660.57 1068.42,660.96 1071.37,661.28 1074.31,661.55" fill="none" stroke="#000000" stroke-width="3"/>
<line x1="142" y1="100" x2="178" y2="100" stroke="#000000" stroke-width="4"/>
<text x="188" y="105" font-family="Arial" font-size="18" fill="black">alphat</text>
</svg>