<svg xmlns="http://www.w3.org/2000/svg" width="1200" height="820" viewBox="0 0 1200 820">
<rect width="100%" height="100%" fill="white"/>
<text x="600.0" y="36" text-anchor="middle" font-family="Arial" font-size="24" fill="black">profile_center_y: epsilon</text>
<line x1="120.00" y1="75" x2="120.00" y2="705" stroke="#dddddd" stroke-width="1"/>
<text x="120.00" y="737" text-anchor="middle" font-family="Arial" font-size="16" fill="black">-0.400</text>
<line x1="376.25" y1="75" x2="376.25" y2="705" stroke="#dddddd" stroke-width="1"/>
<text x="376.25" y="737" text-anchor="middle" font-family="Arial" font-size="16" fill="black">1.050</text>
<line x1="632.50" y1="75" x2="632.50" y2="705" stroke="#dddddd" stroke-width="1"/>
<text x="632.50" y="737" text-anchor="middle" font-family="Arial" font-size="16" fill="black">2.500</text>
<line x1="888.75" y1="75" x2="888.75" y2="705" stroke="#dddddd" stroke-width="1"/>
<text x="888.75" y="737" text-anchor="middle" font-family="Arial" font-size="16" fill="black">3.950</text>
<line x1="1145.00" y1="75" x2="1145.00" y2="705" stroke="#dddddd" stroke-width="1"/>
<text x="1145.00" y="737" text-anchor="middle" font-family="Arial" font-size="16" fill="black">5.400</text>
<line x1="120" y1="705.00" x2="1145" y2="705.00" stroke="#dddddd" stroke-width="1"/>
<text x="104" y="710.00" text-anchor="end" font-family="Arial" font-size="16" fill="black">0.003</text>
<line x1="120" y1="547.50" x2="1145" y2="547.50" stroke="#dddddd" stroke-width="1"/>
<text x="104" y="552.50" text-anchor="end" font-family="Arial" font-size="16" fill="black">0.005</text>
<line x1="120" y1="390.00" x2="1145" y2="390.00" stroke="#dddddd" stroke-width="1"/>
<text x="104" y="395.00" text-anchor="end" font-family="Arial" font-size="16" fill="black">0.008</text>
<line x1="120" y1="232.50" x2="1145" y2="232.50" stroke="#dddddd" stroke-width="1"/>
<text x="104" y="237.50" text-anchor="end" font-family="Arial" font-size="16" fill="black">0.010</text>
<line x1="120" y1="75.00" x2="1145" y2="75.00" stroke="#dddddd" stroke-width="1"/>
<text x="104" y="80.00" text-anchor="end" font-family="Arial" font-size="16" fill="black">0.013</text>
<rect x="120" y="75" width="1025" height="630" fill="none" stroke="black" stroke-width="2"/>
<text x="632.5" y="785" text-anchor="middle" font-family="Arial" font-size="20" fill="black">y coordinate [m]</text>
<text x="34" y="390.0" transform="rotate(-90 34 390.0)" text-anchor="middle" font-family="Arial" font-size="20" fill="black">epsilon [m2/s3]</text>
<polyline points="190.69,652.10 193.64,649.39 196.58,646.69 199.53,643.97 202.47,641.27 205.42,638.56 208.36,635.85 211.31,628.61 214.25,621.36 217.20,614.12 220.14,606.88 223.09,599.64 226.03,592.39 228.98,584.40 231.92,576.40 234.87,568.41 237.82,560.41 240.76,552.42 243.71,544.43 246.65,540.52 249.60,536.61 252.54,532.70 255.49,528.79 258.43,524.88 261.38,520.97 264.33,521.38 267.27,521.78 270.22,522.19 273.16,522.60 276.11,523.00 279.05,523.41 282.00,525.10 284.94,526.78 287.89,528.47 290.83,530.15 293.78,531.84 296.72,533.53 299.67,534.86 302.61,536.19 305.56,537.52 308.51,538.85 311.45,540.18 314.40,541.52 317.34,542.16 320.29,542.81 323.23,543.46 326.18,544.10 329.12,544.76 332.07,545.40 335.01,545.32 337.96,545.24 340.91,545.15 343.85,545.07 346.80,544.99 349.74,544.91 352.69,544.25 355.63,543.58 358.58,542.92 361.52,542.25 364.47,541.59 367.41,540.93 370.37,540.27 373.30,539.61 376.25,538.95 379.20,538.29 382.13,537.63 385.09,536.97 388.04,536.77 390.97,536.59 393.92,536.40 396.87,536.20 399.81,536.01 402.76,535.83 405.71,535.93 408.64,536.03 411.59,536.12 414.55,536.22 417.48,536.32 420.43,536.42 423.38,536.33 426.32,536.23 429.27,536.13 432.22,536.04 435.15,535.95 438.10,535.85 441.05,535.17 443.99,534.50 446.94,533.82 449.89,533.15 452.82,532.47 455.78,531.79 458.73,530.39 461.66,528.99 464.61,527.58 467.56,526.17 470.50,524.77 473.45,523.36 476.40,521.25 479.33,519.13 482.28,517.02 485.24,514.91 488.17,512.80 491.12,510.69 494.07,507.97 497.01,505.27 499.96,502.55 502.91,499.84 505.84,497.13 508.79,494.42 511.74,491.30 514.68,488.18 517.63,485.06 520.58,481.94 523.51,478.82 526.47,475.70 529.42,472.75 532.35,469.80 535.30,466.85 538.25,463.90 541.19,460.95 544.14,458.01 547.09,456.19 550.02,454.37 552.97,452.56 555.93,450.74 558.86,448.92 561.81,447.10 564.76,446.87 567.70,446.65 570.65,446.41 573.60,446.19 576.53,445.95 579.48,445.72 582.43,446.80 585.37,447.87 588.32,448.94 591.27,450.01 594.20,451.08 597.16,452.15 600.11,454.13 603.04,456.12 605.99,458.10 608.94,460.08 611.88,462.06 614.83,464.04 617.78,466.77 620.71,469.49 623.66,472.21 626.62,474.93 629.55,477.65 632.50,480.37 635.45,483.78 638.38,487.19 641.34,490.60 644.29,494.01 647.22,497.43 650.17,500.84 653.12,504.74 656.06,508.63 659.01,512.53 661.96,516.43 664.89,520.33 667.84,524.23 670.80,528.18 673.73,532.11 676.68,536.06 679.63,540.00 682.57,543.93 685.52,547.88 688.47,551.28 691.40,554.68 694.35,558.08 697.30,561.49 700.24,564.89 703.19,568.29 706.14,570.75 709.07,573.21 712.03,575.68 714.98,578.14 717.91,580.60 720.86,583.07 723.81,584.59 726.75,586.12 729.70,587.64 732.65,589.17 735.58,590.70 738.53,592.22 741.49,593.01 744.42,593.81 747.37,594.60 750.32,595.39 753.26,596.19 756.21,596.98 759.16,597.25 762.09,597.52 765.04,597.78 767.99,598.05 770.93,598.32 773.88,598.59 776.83,598.59 779.76,598.60 782.72,598.61 785.67,598.62 788.60,598.63 791.55,598.64 794.50,598.79 797.44,598.94 800.39,599.08 803.34,599.23 806.27,599.38 809.22,599.53 812.18,600.27 815.11,601.02 818.06,601.76 821.01,602.50 823.95,603.25 826.90,603.99 829.85,605.60 832.78,607.21 835.73,608.83 838.68,610.44 841.62,612.06 844.57,613.66 847.52,616.01 850.45,618.35 853.41,620.69 856.36,623.03 859.29,625.37 862.24,627.71 865.19,630.25 868.13,632.79 871.08,635.32 874.03,637.86 876.96,640.39 879.91,642.93 882.87,645.03 885.80,647.13 888.75,649.24 891.70,651.33 894.63,653.44 897.59,655.54 900.54,656.54 903.47,657.54 906.42,658.55 909.37,659.55 912.31,660.55 915.26,661.55 918.21,660.28 921.14,659.01 924.09,657.75 927.05,656.48 929.98,655.21 932.93,653.94 935.88,648.68 938.82,643.43 941.77,638.16 944.72,632.91 947.65,627.64 950.60,622.39 953.55,612.22 956.49,602.05 959.44,591.88 962.39,581.72 965.32,571.55 968.28,561.39 971.23,548.79 974.16,536.19 977.11,523.59 980.06,511.00 983.00,498.40 985.95,485.80 988.90,476.11 991.83,466.41 994.78,456.71 997.74,447.01 1000.67,437.31 1003.62,427.62 1006.57,423.73 1009.51,419.85 1012.46,415.97 1015.41,412.08 1018.34,408.20 1021.29,404.32 1024.24,402.99 1027.18,401.65 1030.13,400.32 1033.08,398.99 1036.01,397.66 1038.97,396.32 1041.92,372.74 1044.85,349.16 1047.80,325.57 1050.75,301.98 1053.69,278.40 1056.64,254.81 1059.59,232.06 1062.52,209.39 1065.47,186.65 1068.43,163.92 1071.36,141.18 1074.31,118.45" fill="none" stroke="#000000" stroke-width="3"/>
<line x1="142" y1="100" x2="178" y2="100" stroke="#000000" stroke-width="4"/>
<text x="188" y="105" font-family="Arial" font-size="18" fill="black">epsilon</text>
</svg>