<svg xmlns="http://www.w3.org/2000/svg" width="1200" height="820" viewBox="0 0 1200 820">
<rect width="100%" height="100%" fill="white"/>
<text x="600.0" y="36" text-anchor="middle" font-family="Arial" font-size="24" fill="black">profile_center_y: U:1</text>
<line x1="120.00" y1="75" x2="120.00" y2="705" stroke="#dddddd" stroke-width="1"/>
<text x="120.00" y="737" text-anchor="middle" font-family="Arial" font-size="16" fill="black">-0.400</text>
<line x1="376.25" y1="75" x2="376.25" y2="705" stroke="#dddddd" stroke-width="1"/>
<text x="376.25" y="737" text-anchor="middle" font-family="Arial" font-size="16" fill="black">1.050</text>
<line x1="632.50" y1="75" x2="632.50" y2="705" stroke="#dddddd" stroke-width="1"/>
<text x="632.50" y="737" text-anchor="middle" font-family="Arial" font-size="16" fill="black">2.500</text>
<line x1="888.75" y1="75" x2="888.75" y2="705" stroke="#dddddd" stroke-width="1"/>
<text x="888.75" y="737" text-anchor="middle" font-family="Arial" font-size="16" fill="black">3.950</text>
<line x1="1145.00" y1="75" x2="1145.00" y2="705" stroke="#dddddd" stroke-width="1"/>
<text x="1145.00" y="737" text-anchor="middle" font-family="Arial" font-size="16" fill="black">5.400</text>
<line x1="120" y1="705.00" x2="1145" y2="705.00" stroke="#dddddd" stroke-width="1"/>
<text x="104" y="710.00" text-anchor="end" font-family="Arial" font-size="16" fill="black">-0.014</text>
<line x1="120" y1="547.50" x2="1145" y2="547.50" stroke="#dddddd" stroke-width="1"/>
<text x="104" y="552.50" text-anchor="end" font-family="Arial" font-size="16" fill="black">0.039</text>
<line x1="120" y1="390.00" x2="1145" y2="390.00" stroke="#dddddd" stroke-width="1"/>
<text x="104" y="395.00" text-anchor="end" font-family="Arial" font-size="16" fill="black">0.092</text>
<line x1="120" y1="232.50" x2="1145" y2="232.50" stroke="#dddddd" stroke-width="1"/>
<text x="104" y="237.50" text-anchor="end" font-family="Arial" font-size="16" fill="black">0.145</text>
<line x1="120" y1="75.00" x2="1145" y2="75.00" stroke="#dddddd" stroke-width="1"/>
<text x="104" y="80.00" text-anchor="end" font-family="Arial" font-size="16" fill="black">0.198</text>
<rect x="120" y="75" width="1025" height="630" fill="none" stroke="black" stroke-width="2"/>
<text x="632.5" y="785" text-anchor="middle" font-family="Arial" font-size="20" fill="black">y coordinate [m]</text>
<text x="34" y="390.0" transform="rotate(-90 34 390.0)" text-anchor="middle" font-family="Arial" font-size="20" fill="black">U:1 [SI]</text>
<polyline points="190.69,661.55 193.64,659.04 196.58,656.53 199.53,654.02 202.47,651.51 205.42,649.00 208.36,646.49 211.31,637.27 214.25,628.06 217.20,618.84 220.14,609.62 223.09,600.40 226.03,591.19 228.98,573.64 231.92,556.10 234.87,538.56 237.82,521.02 240.76,503.48 243.71,485.93 246.65,464.37 249.60,442.81 252.54,421.24 255.49,399.68 258.43,378.11 261.38,356.54 264.33,337.95 267.27,319.37 270.22,300.75 273.16,282.16 276.11,263.55 279.05,244.96 282.00,232.34 284.94,219.72 287.89,207.08 290.83,194.46 293.78,181.84 296.72,169.19 299.67,162.48 302.61,155.77 305.56,149.03 308.51,142.32 311.45,135.61 314.40,128.87 317.34,127.15 320.29,125.40 323.23,123.67 326.18,121.92 329.12,120.20 332.07,118.45 335.01,120.32 337.96,122.22 340.91,124.09 343.85,125.96 346.80,127.83 349.74,129.70 352.69,133.65 355.63,137.63 358.58,141.58 361.52,145.53 364.47,149.50 367.41,153.45 370.37,158.29 373.30,163.10 376.25,167.94 379.20,172.78 382.13,177.59 385.09,182.43 388.04,187.30 390.97,192.17 393.92,197.04 396.87,201.91 399.81,206.81 402.76,211.68 405.71,215.89 408.64,220.11 411.59,224.33 414.55,228.54 417.48,232.76 420.43,236.97 423.38,240.21 426.32,243.42 429.27,246.62 432.22,249.83 435.15,253.04 438.10,256.27 441.05,258.44 443.99,260.64 446.94,262.83 449.89,265.03 452.82,267.23 455.78,269.40 458.73,270.67 461.66,271.95 464.61,273.23 467.56,274.47 470.50,275.75 473.45,277.03 476.40,277.47 479.33,277.95 482.28,278.39 485.24,278.84 488.17,279.28 491.12,279.76 494.07,279.43 497.01,279.11 499.96,278.78 502.91,278.48 505.84,278.16 508.79,277.83 511.74,276.76 514.68,275.69 517.63,274.62 520.58,273.52 523.51,272.45 526.47,271.39 529.42,269.63 532.35,267.85 535.30,266.10 538.25,264.32 541.19,262.57 544.14,260.79 547.09,258.44 550.02,256.09 552.97,253.75 555.93,251.40 558.86,249.06 561.81,246.68 564.76,243.95 567.70,241.19 570.65,238.46 573.60,235.70 576.53,232.97 579.48,230.20 582.43,227.29 585.37,224.39 588.32,221.48 591.27,218.57 594.20,215.63 597.16,212.72 600.11,209.78 603.04,206.81 605.99,203.87 608.94,200.90 611.88,197.96 614.83,194.99 617.78,192.11 620.71,189.23 623.66,186.35 626.62,183.47 629.55,180.59 632.50,177.71 635.45,175.13 638.38,172.54 641.34,169.93 644.29,167.35 647.22,164.77 650.17,162.18 653.12,160.22 656.06,158.23 659.01,156.27 661.96,154.31 664.89,152.33 667.84,150.37 670.80,149.27 673.73,148.17 676.68,147.07 679.63,146.00 682.57,144.90 685.52,143.80 688.47,143.74 691.40,143.69 694.35,143.66 697.30,143.60 700.24,143.54 703.19,143.48 706.14,144.61 709.07,145.73 712.03,146.86 714.98,147.99 717.91,149.09 720.86,150.22 723.81,152.71 726.75,155.21 729.70,157.70 732.65,160.19 735.58,162.66 738.53,165.15 741.49,169.16 744.42,173.14 747.37,177.12 750.32,181.13 753.26,185.10 756.21,189.08 759.16,194.49 762.09,199.89 765.04,205.29 767.99,210.70 770.93,216.07 773.88,221.48 776.83,228.07 779.76,234.63 782.72,241.19 785.67,247.75 788.60,254.34 791.55,260.90 794.50,268.30 797.44,275.72 800.39,283.11 803.34,290.51 806.27,297.93 809.22,305.32 812.18,313.10 815.11,320.88 818.06,328.66 821.01,336.44 823.95,344.25 826.90,352.03 829.85,359.66 832.78,367.28 835.73,374.91 838.68,382.54 841.62,390.17 844.57,397.80 847.52,404.76 850.45,411.73 853.41,418.69 856.36,425.65 859.29,432.61 862.24,439.58 865.19,445.50 868.13,451.42 871.08,457.34 874.03,463.26 876.96,469.18 879.91,475.10 882.87,479.81 885.80,484.53 888.75,489.25 891.70,493.96 894.63,498.68 897.59,503.40 900.54,506.83 903.47,510.27 906.42,513.71 909.37,517.15 912.31,520.59 915.26,524.02 918.21,526.06 921.14,528.10 924.09,530.14 927.05,532.17 929.98,534.21 932.93,536.24 935.88,536.89 938.82,537.54 941.77,538.19 944.72,538.83 947.65,539.48 950.60,540.13 953.55,539.88 956.49,539.63 959.44,539.37 962.39,539.12 965.32,538.87 968.28,538.62 971.23,538.67 974.16,538.73 977.11,538.78 980.06,538.83 983.00,538.89 985.95,538.94 988.90,540.82 991.83,542.70 994.78,544.57 997.74,546.45 1000.67,548.33 1003.62,550.21 1006.57,554.17 1009.51,558.14 1012.46,562.11 1015.41,566.07 1018.34,570.04 1021.29,574.01 1024.24,579.28 1027.18,584.55 1030.13,589.82 1033.08,595.09 1036.01,600.36 1038.97,605.63 1041.92,610.62 1044.85,615.61 1047.80,620.60 1050.75,625.59 1053.69,630.59 1056.64,635.58 1059.59,637.69 1062.52,639.81 1065.47,641.92 1068.43,644.04 1071.36,646.16 1074.31,648.27" fill="none" stroke="#000000" stroke-width="3"/>
<line x1="142" y1="100" x2="178" y2="100" stroke="#000000" stroke-width="4"/>
<text x="188" y="105" font-family="Arial" font-size="18" fill="black">U:1</text>
</svg>