<svg xmlns="http://www.w3.org/2000/svg" width="1200" height="820" viewBox="0 0 1200 820">
<rect width="100%" height="100%" fill="white"/>
<text x="600.0" y="36" text-anchor="middle" font-family="Arial" font-size="24" fill="black">profile_center_x: alphat</text>
<line x1="120.00" y1="75" x2="120.00" y2="705" stroke="#dddddd" stroke-width="1"/>
<text x="120.00" y="737" text-anchor="middle" font-family="Arial" font-size="16" fill="black">-0.560</text>
<line x1="376.25" y1="75" x2="376.25" y2="705" stroke="#dddddd" stroke-width="1"/>
<text x="376.25" y="737" text-anchor="middle" font-family="Arial" font-size="16" fill="black">1.470</text>
<line x1="632.50" y1="75" x2="632.50" y2="705" stroke="#dddddd" stroke-width="1"/>
<text x="632.50" y="737" text-anchor="middle" font-family="Arial" font-size="16" fill="black">3.500</text>
<line x1="888.75" y1="75" x2="888.75" y2="705" stroke="#dddddd" stroke-width="1"/>
<text x="888.75" y="737" text-anchor="middle" font-family="Arial" font-size="16" fill="black">5.530</text>
<line x1="1145.00" y1="75" x2="1145.00" y2="705" stroke="#dddddd" stroke-width="1"/>
<text x="1145.00" y="737" text-anchor="middle" font-family="Arial" font-size="16" fill="black">7.560</text>
<line x1="120" y1="705.00" x2="1145" y2="705.00" stroke="#dddddd" stroke-width="1"/>
<text x="104" y="710.00" text-anchor="end" font-family="Arial" font-size="16" fill="black">-0.001</text>
<line x1="120" y1="547.50" x2="1145" y2="547.50" stroke="#dddddd" stroke-width="1"/>
<text x="104" y="552.50" text-anchor="end" font-family="Arial" font-size="16" fill="black">0.006</text>
<line x1="120" y1="390.00" x2="1145" y2="390.00" stroke="#dddddd" stroke-width="1"/>
<text x="104" y="395.00" text-anchor="end" font-family="Arial" font-size="16" fill="black">0.014</text>
<line x1="120" y1="232.50" x2="1145" y2="232.50" stroke="#dddddd" stroke-width="1"/>
<text x="104" y="237.50" text-anchor="end" font-family="Arial" font-size="16" fill="black">0.021</text>
<line x1="120" y1="75.00" x2="1145" y2="75.00" stroke="#dddddd" stroke-width="1"/>
<text x="104" y="80.00" text-anchor="end" font-family="Arial" font-size="16" fill="black">0.028</text>
<rect x="120" y="75" width="1025" height="630" fill="none" stroke="black" stroke-width="2"/>
<text x="632.5" y="785" text-anchor="middle" font-family="Arial" font-size="20" fill="black">x coordinate [m]</text>
<text x="34" y="390.0" transform="rotate(-90 34 390.0)" text-anchor="middle" font-family="Arial" font-size="20" fill="black">alphat [SI]</text>
<polyline points="190.69,645.61 193.64,626.41 196.58,607.21 199.53,588.02 202.47,568.82 205.42,539.02 208.36,504.99 211.31,470.95 214.25,436.90 217.20,407.51 220.14,384.30 223.09,361.12 226.03,337.91 228.98,316.24 231.93,303.76 234.87,291.28 237.82,278.83 240.76,266.35 243.71,259.74 246.65,254.11 249.60,248.47 252.54,242.84 255.49,239.46 258.43,237.76 261.38,236.03 264.32,234.33 267.27,233.10 270.22,233.06 273.16,233.02 276.11,232.97 279.05,232.93 282.00,232.80 284.94,232.69 287.89,232.59 290.83,232.46 293.78,231.53 296.72,230.26 299.67,228.99 302.62,227.72 305.56,225.84 308.51,223.15 311.45,220.48 314.40,217.81 317.34,214.96 320.29,211.23 323.23,207.48 326.17,203.76 329.13,200.01 332.07,195.85 335.01,191.60 337.96,187.38 340.91,183.13 343.85,178.93 346.80,174.77 349.74,170.59 352.68,166.41 355.64,162.38 358.58,158.72 361.52,155.04 364.47,151.35 367.41,147.69 370.35,144.74 373.31,141.81 376.25,138.88 379.19,135.95 382.15,133.62 385.09,131.51 388.03,129.42 390.98,127.33 393.92,125.58 396.86,124.29 399.82,123.02 402.76,121.75 405.70,120.58 408.65,120.04 411.59,119.50 414.54,118.99 417.49,118.45 420.43,118.49 423.37,118.60 426.33,118.71 429.27,118.84 432.21,119.25 435.16,119.91 438.10,120.56 441.04,121.23 444.00,122.00 446.94,123.15 449.88,124.27 452.83,125.39 455.78,126.51 458.72,128.06 461.67,129.61 464.61,131.14 467.55,132.69 470.51,134.48 473.45,136.38 476.39,138.27 479.34,140.17 482.28,142.17 485.23,144.31 488.18,146.42 491.12,148.55 494.06,150.71 497.02,152.88 499.96,155.06 502.90,157.26 505.85,159.43 508.79,161.46 511.73,163.46 514.69,165.44 517.63,167.45 520.57,169.17 523.52,170.70 526.47,172.25 529.41,173.78 532.36,175.16 535.30,176.09 538.24,177.02 541.20,177.94 544.14,178.89 547.08,179.39 550.03,179.90 552.97,180.42 555.92,180.92 558.87,181.58 561.81,182.32 564.75,183.03 567.71,183.76 570.65,184.88 573.59,186.54 576.54,188.18 579.48,189.84 582.42,191.65 585.38,194.45 588.32,197.25 591.26,200.03 594.21,202.83 597.16,206.23 600.10,209.72 603.05,213.24 605.99,216.75 608.93,220.30 611.89,223.88 614.83,227.46 617.77,231.06 620.72,234.48 623.66,237.50 626.60,240.54 629.56,243.58 632.50,246.59 635.44,248.45 638.40,250.28 641.34,252.13 644.28,253.98 647.23,254.59 650.17,254.72 653.11,254.85 656.07,254.95 659.01,254.26 661.95,252.50 664.90,250.73 667.84,248.94 670.79,246.96 673.74,243.73 676.68,240.47 679.62,237.22 682.58,233.97 685.52,230.11 688.46,226.17 691.41,222.22 694.35,218.28 697.29,214.34 700.25,210.37 703.19,206.41 706.13,202.44 709.08,198.61 712.03,195.05 714.97,191.50 717.92,187.94 720.86,184.38 723.80,181.56 726.76,178.74 729.70,175.92 732.64,173.09 735.59,170.98 738.53,169.17 741.48,167.36 744.43,165.53 747.37,164.19 750.31,163.48 753.27,162.79 756.21,162.08 759.15,161.52 762.10,161.80 765.04,162.08 767.98,162.36 770.94,162.64 773.88,163.50 776.82,164.47 779.77,165.47 782.72,166.44 785.66,167.60 788.61,168.91 791.55,170.23 794.49,171.54 797.45,172.86 800.39,174.19 803.33,175.51 806.28,176.82 809.22,178.14 812.17,179.17 815.12,180.20 818.06,181.24 821.00,182.25 823.96,182.92 826.90,183.44 829.84,183.93 832.79,184.45 835.73,184.69 838.67,184.58 841.63,184.45 844.57,184.32 847.51,184.10 850.46,183.35 853.41,182.60 856.35,181.82 859.30,181.07 862.24,179.86 865.18,178.57 868.14,177.30 871.08,176.00 874.02,174.54 876.97,172.92 879.91,171.31 882.85,169.69 885.81,168.05 888.75,166.35 891.69,164.63 894.65,162.92 897.59,161.22 900.53,159.67 903.48,158.14 906.42,156.59 909.36,155.04 912.32,153.83 915.26,152.75 918.20,151.67 921.15,150.60 924.09,149.86 927.04,149.61 929.99,149.33 932.93,149.07 935.87,148.96 938.83,149.89 941.77,150.79 944.71,151.70 947.66,152.62 950.60,154.84 953.54,157.28 956.50,159.73 959.44,162.17 962.38,165.66 965.33,169.90 968.28,174.15 971.22,178.42 974.17,183.22 977.11,189.41 980.05,195.59 983.01,201.80 985.95,207.98 988.89,216.21 991.84,224.44 994.78,232.67 997.73,240.88 1000.68,250.77 1003.62,261.33 1006.56,271.89 1009.52,282.45 1012.46,294.26 1015.40,307.77 1018.35,321.26 1021.29,334.77 1024.23,348.79 1027.19,366.08 1030.13,383.36 1033.07,400.64 1036.02,417.92 1038.97,438.93 1041.91,460.56 1044.86,482.18 1047.80,503.81 1050.74,526.38 1053.70,549.67 1056.64,572.96 1059.58,596.24 1062.53,616.12 1065.47,627.48 1068.42,638.84 1071.37,650.19 1074.31,661.55" fill="none" stroke="#000000" stroke-width="3"/>
<line x1="142" y1="100" x2="178" y2="100" stroke="#000000" stroke-width="4"/>
<text x="188" y="105" font-family="Arial" font-size="18" fill="black">alphat</text>
</svg>