<svg xmlns="http://www.w3.org/2000/svg" width="1200" height="820" viewBox="0 0 1200 820">
<rect width="100%" height="100%" fill="white"/>
<text x="600.0" y="36" text-anchor="middle" font-family="Arial" font-size="24" fill="black">profile_center_z: epsilon</text>
<line x1="120.00" y1="75" x2="120.00" y2="705" stroke="#dddddd" stroke-width="1"/>
<text x="120.00" y="737" text-anchor="middle" font-family="Arial" font-size="16" fill="black">-0.240</text>
<line x1="376.25" y1="75" x2="376.25" y2="705" stroke="#dddddd" stroke-width="1"/>
<text x="376.25" y="737" text-anchor="middle" font-family="Arial" font-size="16" fill="black">0.630</text>
<line x1="632.50" y1="75" x2="632.50" y2="705" stroke="#dddddd" stroke-width="1"/>
<text x="632.50" y="737" text-anchor="middle" font-family="Arial" font-size="16" fill="black">1.500</text>
<line x1="888.75" y1="75" x2="888.75" y2="705" stroke="#dddddd" stroke-width="1"/>
<text x="888.75" y="737" text-anchor="middle" font-family="Arial" font-size="16" fill="black">2.370</text>
<line x1="1145.00" y1="75" x2="1145.00" y2="705" stroke="#dddddd" stroke-width="1"/>
<text x="1145.00" y="737" text-anchor="middle" font-family="Arial" font-size="16" fill="black">3.240</text>
<line x1="120" y1="705.00" x2="1145" y2="705.00" stroke="#dddddd" stroke-width="1"/>
<text x="104" y="710.00" text-anchor="end" font-family="Arial" font-size="16" fill="black">0.005</text>
<line x1="120" y1="547.50" x2="1145" y2="547.50" stroke="#dddddd" stroke-width="1"/>
<text x="104" y="552.50" text-anchor="end" font-family="Arial" font-size="16" fill="black">0.008</text>
<line x1="120" y1="390.00" x2="1145" y2="390.00" stroke="#dddddd" stroke-width="1"/>
<text x="104" y="395.00" text-anchor="end" font-family="Arial" font-size="16" fill="black">0.010</text>
<line x1="120" y1="232.50" x2="1145" y2="232.50" stroke="#dddddd" stroke-width="1"/>
<text x="104" y="237.50" text-anchor="end" font-family="Arial" font-size="16" fill="black">0.013</text>
<line x1="120" y1="75.00" x2="1145" y2="75.00" stroke="#dddddd" stroke-width="1"/>
<text x="104" y="80.00" text-anchor="end" font-family="Arial" font-size="16" fill="black">0.015</text>
<rect x="120" y="75" width="1025" height="630" fill="none" stroke="black" stroke-width="2"/>
<text x="632.5" y="785" text-anchor="middle" font-family="Arial" font-size="20" fill="black">z coordinate [m]</text>
<text x="34" y="390.0" transform="rotate(-90 34 390.0)" text-anchor="middle" font-family="Arial" font-size="20" fill="black">epsilon [m2/s3]</text>
<polyline points="190.69,532.11 193.64,536.89 196.58,541.67 199.53,546.45 202.47,551.24 205.42,556.02 208.36,560.79 211.31,565.58 214.25,570.36 217.20,575.14 220.14,579.92 223.09,584.76 226.03,589.59 228.98,594.43 231.93,599.26 234.87,604.09 237.82,608.93 240.76,613.76 243.71,618.60 246.65,623.43 249.60,628.26 252.54,614.07 255.49,599.87 258.43,585.68 261.38,571.48 264.32,557.28 267.27,543.09 270.22,528.89 273.16,514.70 276.11,500.50 279.05,486.31 282.00,475.86 284.94,465.40 287.89,454.96 290.83,444.50 293.78,434.05 296.72,423.60 299.67,413.15 302.61,402.70 305.56,392.26 308.51,381.81 311.45,393.12 314.40,404.50 317.34,415.85 320.29,427.20 323.23,438.55 326.18,449.90 329.12,461.26 332.07,472.61 335.01,483.96 337.96,495.31 340.91,505.90 343.85,516.48 346.80,527.07 349.74,537.65 352.69,548.24 355.63,558.83 358.58,569.42 361.52,580.00 364.47,590.59 367.41,601.18 370.36,605.23 373.30,609.28 376.25,613.33 379.20,617.38 382.14,621.43 385.09,625.48 388.03,629.53 390.98,633.58 393.92,637.63 396.87,641.68 399.81,643.09 402.76,644.50 405.70,645.90 408.65,647.31 411.59,648.72 414.54,650.12 417.49,651.53 420.43,652.93 423.38,654.34 426.32,655.75 429.27,656.27 432.21,656.79 435.16,657.30 438.10,657.82 441.05,658.34 443.99,658.86 446.94,659.38 449.89,659.90 452.83,660.42 455.78,660.94 458.72,661.00 461.67,661.06 464.61,661.13 467.56,661.19 470.50,661.25 473.45,661.31 476.39,661.37 479.34,661.43 482.28,661.49 485.23,661.55 488.18,661.23 491.12,660.91 494.07,660.59 497.01,660.27 499.96,659.95 502.90,659.63 505.85,659.31 508.79,658.99 511.74,658.66 514.68,658.34 517.63,657.70 520.57,657.05 523.52,656.41 526.47,655.77 529.41,655.12 532.36,654.47 535.30,653.83 538.25,653.18 541.19,652.54 544.14,651.90 547.08,651.03 550.03,650.16 552.97,649.30 555.92,648.43 558.86,647.57 561.81,646.71 564.76,645.84 567.70,644.98 570.65,644.11 573.59,643.25 576.54,642.31 579.48,641.37 582.43,640.42 585.37,639.48 588.32,638.54 591.26,637.60 594.21,636.66 597.16,635.72 600.10,634.77 603.05,633.83 605.99,632.98 608.94,632.14 611.88,631.30 614.83,630.45 617.77,629.60 620.72,628.76 623.66,627.91 626.61,627.07 629.55,626.22 632.50,625.37 635.45,624.81 638.39,624.25 641.34,623.69 644.28,623.12 647.23,622.56 650.17,622.00 653.12,621.44 656.06,620.88 659.01,620.32 661.95,619.75 664.90,619.62 667.84,619.49 670.79,619.36 673.74,619.23 676.68,619.10 679.63,618.98 682.57,618.85 685.52,618.72 688.46,618.59 691.41,618.46 694.35,618.80 697.30,619.15 700.24,619.49 703.19,619.83 706.14,620.17 709.08,620.51 712.03,620.86 714.97,621.20 717.92,621.55 720.86,621.89 723.81,622.58 726.75,623.27 729.70,623.96 732.64,624.65 735.59,625.34 738.53,626.04 741.48,626.72 744.43,627.41 747.37,628.11 750.32,628.80 753.26,629.57 756.21,630.35 759.15,631.12 762.10,631.90 765.04,632.67 767.99,633.45 770.93,634.23 773.88,635.00 776.82,635.78 779.77,636.55 782.72,637.08 785.66,637.62 788.61,638.15 791.55,638.68 794.50,639.22 797.44,639.75 800.39,640.29 803.33,640.82 806.28,641.35 809.22,641.89 812.17,641.87 815.11,641.87 818.06,641.86 821.01,641.84 823.95,641.84 826.90,641.82 829.84,641.81 832.79,641.80 835.73,641.79 838.68,641.78 841.62,641.04 844.57,640.30 847.51,639.57 850.46,638.83 853.41,638.09 856.35,637.35 859.30,636.61 862.24,635.87 865.19,635.14 868.13,634.39 871.08,633.00 874.02,631.61 876.97,630.21 879.91,628.81 882.86,627.41 885.80,626.02 888.75,624.62 891.70,623.22 894.64,621.83 897.59,620.43 900.53,618.76 903.48,617.09 906.42,615.42 909.37,613.75 912.31,612.08 915.26,610.41 918.20,608.74 921.15,607.07 924.09,605.40 927.04,603.72 929.99,602.27 932.93,600.82 935.88,599.37 938.82,597.91 941.77,596.45 944.71,595.00 947.66,593.54 950.60,592.09 953.55,590.64 956.49,589.18 959.44,587.83 962.39,586.48 965.33,585.13 968.28,583.79 971.22,582.43 974.17,581.08 977.11,579.74 980.06,578.39 983.00,577.04 985.95,575.69 988.89,572.06 991.84,568.44 994.78,564.81 997.73,561.18 1000.68,557.56 1003.62,553.93 1006.57,550.30 1009.51,546.67 1012.46,543.05 1015.40,539.42 1018.35,516.93 1021.29,494.43 1024.24,471.93 1027.18,449.44 1030.13,426.94 1033.07,404.44 1036.02,381.93 1038.97,359.43 1041.91,336.93 1044.86,314.42 1047.80,294.83 1050.75,275.23 1053.69,255.63 1056.64,236.03 1059.58,216.44 1062.53,196.84 1065.47,177.24 1068.42,157.64 1071.36,138.05 1074.31,118.45" fill="none" stroke="#000000" stroke-width="3"/>
<line x1="142" y1="100" x2="178" y2="100" stroke="#000000" stroke-width="4"/>
<text x="188" y="105" font-family="Arial" font-size="18" fill="black">epsilon</text>
</svg>