<svg xmlns="http://www.w3.org/2000/svg" width="1200" height="820" viewBox="0 0 1200 820">
<rect width="100%" height="100%" fill="white"/>
<text x="600.0" y="36" text-anchor="middle" font-family="Arial" font-size="24" fill="black">profile_near_floor_x: vorticity:2</text>
<line x1="120.00" y1="75" x2="120.00" y2="705" stroke="#dddddd" stroke-width="1"/>
<text x="120.00" y="737" text-anchor="middle" font-family="Arial" font-size="16" fill="black">-0.560</text>
<line x1="376.25" y1="75" x2="376.25" y2="705" stroke="#dddddd" stroke-width="1"/>
<text x="376.25" y="737" text-anchor="middle" font-family="Arial" font-size="16" fill="black">1.470</text>
<line x1="632.50" y1="75" x2="632.50" y2="705" stroke="#dddddd" stroke-width="1"/>
<text x="632.50" y="737" text-anchor="middle" font-family="Arial" font-size="16" fill="black">3.500</text>
<line x1="888.75" y1="75" x2="888.75" y2="705" stroke="#dddddd" stroke-width="1"/>
<text x="888.75" y="737" text-anchor="middle" font-family="Arial" font-size="16" fill="black">5.530</text>
<line x1="1145.00" y1="75" x2="1145.00" y2="705" stroke="#dddddd" stroke-width="1"/>
<text x="1145.00" y="737" text-anchor="middle" font-family="Arial" font-size="16" fill="black">7.560</text>
<line x1="120" y1="705.00" x2="1145" y2="705.00" stroke="#dddddd" stroke-width="1"/>
<text x="104" y="710.00" text-anchor="end" font-family="Arial" font-size="16" fill="black">-4.640</text>
<line x1="120" y1="547.50" x2="1145" y2="547.50" stroke="#dddddd" stroke-width="1"/>
<text x="104" y="552.50" text-anchor="end" font-family="Arial" font-size="16" fill="black">-3.165</text>
<line x1="120" y1="390.00" x2="1145" y2="390.00" stroke="#dddddd" stroke-width="1"/>
<text x="104" y="395.00" text-anchor="end" font-family="Arial" font-size="16" fill="black">-1.691</text>
<line x1="120" y1="232.50" x2="1145" y2="232.50" stroke="#dddddd" stroke-width="1"/>
<text x="104" y="237.50" text-anchor="end" font-family="Arial" font-size="16" fill="black">-0.216</text>
<line x1="120" y1="75.00" x2="1145" y2="75.00" stroke="#dddddd" stroke-width="1"/>
<text x="104" y="80.00" text-anchor="end" font-family="Arial" font-size="16" fill="black">1.258</text>
<rect x="120" y="75" width="1025" height="630" fill="none" stroke="black" stroke-width="2"/>
<text x="632.5" y="785" text-anchor="middle" font-family="Arial" font-size="20" fill="black">x coordinate [m]</text>
<text x="34" y="390.0" transform="rotate(-90 34 390.0)" text-anchor="middle" font-family="Arial" font-size="20" fill="black">vorticity:2 [SI]</text>
<polyline points="190.69,423.08 193.64,386.01 196.58,348.94 199.53,311.88 202.47,274.81 205.42,239.65 208.36,205.25 211.31,170.85 214.25,136.45 217.20,118.45 220.14,122.32 223.09,126.19 226.03,130.06 228.98,133.65 231.93,135.50 234.87,137.35 237.82,139.20 240.76,141.06 243.71,142.61 246.65,144.11 249.60,145.61 252.54,147.12 255.49,148.88 258.43,150.85 261.38,152.82 264.32,154.78 267.27,156.86 270.22,159.23 273.16,161.59 276.11,163.96 279.05,166.32 282.00,168.61 284.94,170.90 287.89,173.19 290.83,175.48 293.78,176.98 296.72,178.17 299.67,179.36 302.62,180.56 305.56,181.80 308.51,183.11 311.45,184.43 314.40,185.75 317.34,187.26 320.29,189.99 323.23,192.71 326.17,195.43 329.13,198.15 332.07,200.10 335.01,201.92 337.96,203.75 340.91,205.57 343.85,206.56 346.80,206.92 349.74,207.28 352.68,207.65 355.64,207.94 358.58,208.05 361.52,208.15 364.47,208.26 367.41,208.37 370.35,208.39 373.31,208.42 376.25,208.44 379.19,208.47 382.15,208.59 385.09,208.74 388.03,208.90 390.98,209.06 393.92,209.70 396.86,210.98 399.82,212.26 402.76,213.54 405.70,215.03 408.65,217.76 411.59,220.50 414.54,223.24 417.49,225.98 420.43,227.26 423.37,228.31 426.33,229.35 429.27,230.39 432.21,229.69 435.16,227.69 438.10,225.68 441.04,223.68 444.00,221.40 446.94,218.44 449.88,215.48 452.83,212.52 455.78,209.55 458.72,206.19 461.67,202.82 464.61,199.46 467.55,196.09 470.51,192.21 473.45,188.13 476.39,184.04 479.34,179.96 482.28,177.41 485.23,176.92 488.18,176.44 491.12,175.95 494.06,175.92 497.02,178.64 499.96,181.36 502.90,184.08 505.85,186.80 508.79,188.06 511.73,189.08 514.69,190.10 517.63,191.11 520.57,191.58 523.52,191.62 526.47,191.67 529.41,191.72 532.36,191.81 535.30,192.03 538.24,192.25 541.20,192.47 544.14,192.69 547.08,193.18 550.03,193.67 552.97,194.16 555.92,194.66 558.87,195.23 561.81,195.84 564.75,196.44 567.71,197.05 570.65,197.84 573.59,198.88 576.54,199.91 579.48,200.95 582.42,202.00 585.38,203.12 588.32,204.25 591.26,205.37 594.21,206.49 597.16,207.05 600.10,207.52 603.05,207.99 605.99,208.46 608.93,208.74 611.89,208.89 614.83,209.04 617.77,209.19 620.72,209.31 623.66,209.39 626.60,209.46 629.56,209.54 632.50,209.61 635.44,209.61 638.40,209.62 641.34,209.62 644.28,209.63 647.23,209.72 650.17,209.85 653.11,209.97 656.07,210.10 659.01,211.11 661.95,213.30 664.90,215.48 667.84,217.67 670.79,220.11 673.74,224.01 676.68,227.92 679.62,231.83 682.58,235.73 685.52,237.61 688.46,239.14 691.41,240.67 694.35,242.21 697.29,241.93 700.25,240.29 703.19,238.64 706.13,237.00 709.08,235.18 712.03,232.91 714.97,230.64 717.92,228.37 720.86,226.10 723.80,224.77 726.76,223.43 729.70,222.09 732.64,220.75 735.59,220.04 738.53,219.58 741.48,219.12 744.43,218.66 747.37,218.06 750.31,217.27 753.27,216.48 756.21,215.69 759.15,214.42 762.10,210.25 765.04,206.08 767.98,201.91 770.94,197.74 773.88,192.26 776.82,186.56 779.77,180.87 782.72,175.17 785.66,173.88 788.61,175.89 791.55,177.91 794.49,179.93 797.45,183.61 800.39,191.44 803.33,199.27 806.28,207.10 809.22,214.93 812.17,216.48 815.12,218.03 818.06,219.58 821.00,221.13 823.96,217.43 826.90,211.63 829.84,205.83 832.79,200.04 835.73,195.06 838.67,191.19 841.63,187.32 844.57,183.45 847.51,180.60 850.46,183.91 853.41,187.21 856.35,190.52 859.30,193.82 862.24,197.25 865.18,200.70 868.14,204.16 871.08,207.61 874.02,209.16 876.97,209.29 879.91,209.42 882.85,209.55 885.81,209.62 888.75,209.56 891.69,209.49 894.65,209.42 897.59,209.36 900.53,209.18 903.48,209.00 906.42,208.82 909.36,208.64 912.32,208.38 915.26,208.07 918.20,207.77 921.15,207.47 924.09,206.42 927.04,204.37 929.99,202.31 932.93,200.25 935.87,197.87 938.83,193.48 941.77,189.09 944.71,184.71 947.66,180.32 950.60,176.72 953.54,173.24 956.50,169.76 959.44,166.28 962.38,164.61 965.33,164.30 968.28,163.99 971.22,163.67 974.17,163.93 977.11,165.60 980.05,167.27 983.01,168.94 985.95,170.61 988.89,172.80 991.84,174.99 994.78,177.18 997.73,179.37 1000.68,181.44 1003.62,183.46 1006.56,185.48 1009.52,187.50 1012.46,189.25 1015.40,190.62 1018.35,191.99 1021.29,193.36 1024.23,194.61 1027.19,195.10 1030.13,195.59 1033.07,196.08 1036.02,196.56 1038.97,197.07 1041.91,197.58 1044.86,198.09 1047.80,198.60 1050.74,229.81 1053.70,284.03 1056.64,338.26 1059.58,392.48 1062.53,446.58 1065.47,500.32 1068.42,554.06 1071.37,607.81 1074.31,661.55" fill="none" stroke="#000000" stroke-width="3"/>
<line x1="142" y1="100" x2="178" y2="100" stroke="#000000" stroke-width="4"/>
<text x="188" y="105" font-family="Arial" font-size="18" fill="black">vorticity:2</text>
</svg>