<svg xmlns="http://www.w3.org/2000/svg" width="1200" height="820" viewBox="0 0 1200 820">
<rect width="100%" height="100%" fill="white"/>
<text x="600.0" y="36" text-anchor="middle" font-family="Arial" font-size="24" fill="black">profile_near_ceiling_x: U:2</text>
<line x1="120.00" y1="75" x2="120.00" y2="705" stroke="#dddddd" stroke-width="1"/>
<text x="120.00" y="737" text-anchor="middle" font-family="Arial" font-size="16" fill="black">-0.560</text>
<line x1="376.25" y1="75" x2="376.25" y2="705" stroke="#dddddd" stroke-width="1"/>
<text x="376.25" y="737" text-anchor="middle" font-family="Arial" font-size="16" fill="black">1.470</text>
<line x1="632.50" y1="75" x2="632.50" y2="705" stroke="#dddddd" stroke-width="1"/>
<text x="632.50" y="737" text-anchor="middle" font-family="Arial" font-size="16" fill="black">3.500</text>
<line x1="888.75" y1="75" x2="888.75" y2="705" stroke="#dddddd" stroke-width="1"/>
<text x="888.75" y="737" text-anchor="middle" font-family="Arial" font-size="16" fill="black">5.530</text>
<line x1="1145.00" y1="75" x2="1145.00" y2="705" stroke="#dddddd" stroke-width="1"/>
<text x="1145.00" y="737" text-anchor="middle" font-family="Arial" font-size="16" fill="black">7.560</text>
<line x1="120" y1="705.00" x2="1145" y2="705.00" stroke="#dddddd" stroke-width="1"/>
<text x="104" y="710.00" text-anchor="end" font-family="Arial" font-size="16" fill="black">-0.170</text>
<line x1="120" y1="547.50" x2="1145" y2="547.50" stroke="#dddddd" stroke-width="1"/>
<text x="104" y="552.50" text-anchor="end" font-family="Arial" font-size="16" fill="black">-0.113</text>
<line x1="120" y1="390.00" x2="1145" y2="390.00" stroke="#dddddd" stroke-width="1"/>
<text x="104" y="395.00" text-anchor="end" font-family="Arial" font-size="16" fill="black">-0.056</text>
<line x1="120" y1="232.50" x2="1145" y2="232.50" stroke="#dddddd" stroke-width="1"/>
<text x="104" y="237.50" text-anchor="end" font-family="Arial" font-size="16" fill="black">2.34e-04</text>
<line x1="120" y1="75.00" x2="1145" y2="75.00" stroke="#dddddd" stroke-width="1"/>
<text x="104" y="80.00" text-anchor="end" font-family="Arial" font-size="16" fill="black">0.057</text>
<rect x="120" y="75" width="1025" height="630" fill="none" stroke="black" stroke-width="2"/>
<text x="632.5" y="785" text-anchor="middle" font-family="Arial" font-size="20" fill="black">x coordinate [m]</text>
<text x="34" y="390.0" transform="rotate(-90 34 390.0)" text-anchor="middle" font-family="Arial" font-size="20" fill="black">U:2 [SI]</text>
<polyline points="190.69,661.55 193.64,661.33 196.58,661.11 199.53,660.89 202.47,660.66 205.42,656.47 208.36,650.69 211.31,644.89 214.25,639.12 217.20,630.73 220.14,618.84 223.09,606.99 226.03,595.13 228.98,583.22 231.93,571.06 234.87,558.89 237.82,546.73 240.76,534.57 243.71,523.38 246.65,512.35 249.60,501.31 252.54,490.27 255.49,479.97 258.43,470.23 261.38,460.48 264.32,450.74 267.27,441.30 270.22,432.63 273.16,423.96 276.11,415.29 279.05,406.62 282.00,398.73 284.94,390.84 287.89,382.95 290.83,375.07 293.78,367.68 296.72,360.50 299.67,353.31 302.62,346.13 305.56,339.26 308.51,332.80 311.45,326.34 314.40,319.88 317.34,313.51 320.29,307.69 323.23,301.87 326.17,296.04 329.13,290.22 332.07,284.91 335.01,279.68 337.96,274.45 340.91,269.22 343.85,264.29 346.80,259.59 349.74,254.88 352.68,250.17 355.64,245.80 358.58,242.26 361.52,238.72 364.47,235.18 367.41,231.64 370.35,231.10 373.31,230.57 376.25,230.03 379.19,229.50 382.15,231.00 385.09,233.32 388.03,235.65 390.98,237.97 393.92,240.75 396.86,244.14 399.82,247.53 402.76,250.93 405.70,254.41 408.65,258.42 411.59,262.43 414.54,266.44 417.49,270.45 420.43,274.94 423.37,279.51 426.33,284.09 429.27,288.66 432.21,293.53 435.16,298.63 438.10,303.73 441.04,308.83 444.00,314.16 446.94,320.08 449.88,326.00 452.83,331.92 455.78,337.84 458.72,344.97 461.67,352.09 464.61,359.21 467.55,366.33 470.51,374.36 473.45,382.75 476.39,391.13 479.34,399.52 482.28,407.60 485.23,415.27 488.18,422.94 491.12,430.61 494.06,437.46 497.02,439.40 499.96,441.34 502.90,443.27 505.85,445.21 508.79,440.96 511.73,435.67 514.69,430.38 517.63,425.09 520.57,418.37 523.52,410.56 526.47,402.76 529.41,394.95 532.36,387.52 535.30,381.05 538.24,374.57 541.20,368.09 544.14,361.61 547.08,357.16 550.03,352.71 552.97,348.26 555.92,343.81 558.87,340.36 561.81,337.31 564.75,334.26 567.71,331.21 570.65,328.17 573.59,325.16 576.54,322.15 579.48,319.13 582.42,315.87 585.38,311.11 588.32,306.35 591.26,301.58 594.21,296.82 597.16,289.38 600.10,281.51 603.05,273.63 605.99,265.75 608.93,256.27 611.89,245.59 614.83,234.91 617.77,224.23 620.72,213.38 623.66,202.11 626.60,190.84 629.56,179.57 632.50,168.30 635.44,160.06 638.40,151.83 641.34,143.60 644.28,135.36 647.23,131.58 650.17,129.57 653.11,127.57 656.07,125.56 659.01,125.94 661.95,129.49 664.90,133.05 667.84,136.60 670.79,140.58 673.74,147.12 676.68,153.67 679.62,160.21 682.58,166.76 685.52,174.69 688.46,182.86 691.41,191.03 694.35,199.20 697.29,207.77 700.25,216.64 703.19,225.51 706.13,234.37 709.08,243.22 712.03,252.04 714.97,260.85 717.92,269.66 720.86,278.47 723.80,286.68 726.76,294.89 729.70,303.09 732.64,311.30 735.59,318.92 738.53,326.31 741.48,333.70 744.43,341.08 747.37,348.11 750.31,354.66 753.27,361.21 756.21,367.76 759.15,374.19 762.10,379.92 765.04,385.64 767.98,391.36 770.94,397.09 773.88,402.24 776.82,407.31 779.77,412.37 782.72,417.43 785.66,422.30 788.61,427.02 791.55,431.75 794.49,436.48 797.45,440.90 800.39,444.55 803.33,448.21 806.28,451.86 809.22,455.52 812.17,455.16 815.12,454.81 818.06,454.45 821.00,454.10 823.96,449.28 826.90,442.69 829.84,436.09 832.79,429.49 835.73,420.82 838.67,409.40 841.63,397.97 844.57,386.55 847.51,374.87 850.46,361.67 853.41,348.47 856.35,335.27 859.30,322.07 862.24,309.16 865.18,296.31 868.14,283.45 871.08,270.60 874.02,258.56 876.97,247.13 879.91,235.71 882.85,224.28 885.81,213.45 888.75,204.13 891.69,194.81 894.65,185.48 897.59,176.16 900.53,169.54 903.48,162.91 906.42,156.29 909.36,149.67 912.32,144.86 915.26,140.78 918.20,136.69 921.15,132.61 924.09,129.33 927.04,127.12 929.99,124.91 932.93,122.70 935.87,120.73 938.83,120.16 941.77,119.59 944.71,119.02 947.66,118.45 950.60,119.24 953.54,120.25 956.50,121.27 959.44,122.28 962.38,124.19 965.33,126.76 968.28,129.33 971.22,131.90 974.17,134.93 977.11,139.10 980.05,143.28 983.01,147.45 985.95,151.62 988.89,157.51 991.84,163.41 994.78,169.31 997.73,175.21 1000.68,182.60 1003.62,190.59 1006.56,198.59 1009.52,206.58 1012.46,215.76 1015.40,226.51 1018.35,237.27 1021.29,248.03 1024.23,259.28 1027.19,273.43 1030.13,287.59 1033.07,301.74 1036.02,315.89 1038.97,332.57 1041.91,349.68 1044.86,366.78 1047.80,383.89 1050.74,402.30 1053.70,421.69 1056.64,441.09 1059.58,460.48 1062.53,477.27 1065.47,487.54 1068.42,497.82 1071.37,508.09 1074.31,518.35" fill="none" stroke="#000000" stroke-width="3"/>
<line x1="142" y1="100" x2="178" y2="100" stroke="#000000" stroke-width="4"/>
<text x="188" y="105" font-family="Arial" font-size="18" fill="black">U:2</text>
</svg>