<svg xmlns="http://www.w3.org/2000/svg" width="1200" height="820" viewBox="0 0 1200 820">
<rect width="100%" height="100%" fill="white"/>
<text x="600.0" y="36" text-anchor="middle" font-family="Arial" font-size="24" fill="black">profile_near_floor_x: U, V, W components</text>
<line x1="120.00" y1="75" x2="120.00" y2="705" stroke="#dddddd" stroke-width="1"/>
<text x="120.00" y="737" text-anchor="middle" font-family="Arial" font-size="16" fill="black">-0.560</text>
<line x1="376.25" y1="75" x2="376.25" y2="705" stroke="#dddddd" stroke-width="1"/>
<text x="376.25" y="737" text-anchor="middle" font-family="Arial" font-size="16" fill="black">1.470</text>
<line x1="632.50" y1="75" x2="632.50" y2="705" stroke="#dddddd" stroke-width="1"/>
<text x="632.50" y="737" text-anchor="middle" font-family="Arial" font-size="16" fill="black">3.500</text>
<line x1="888.75" y1="75" x2="888.75" y2="705" stroke="#dddddd" stroke-width="1"/>
<text x="888.75" y="737" text-anchor="middle" font-family="Arial" font-size="16" fill="black">5.530</text>
<line x1="1145.00" y1="75" x2="1145.00" y2="705" stroke="#dddddd" stroke-width="1"/>
<text x="1145.00" y="737" text-anchor="middle" font-family="Arial" font-size="16" fill="black">7.560</text>
<line x1="120" y1="705.00" x2="1145" y2="705.00" stroke="#dddddd" stroke-width="1"/>
<text x="104" y="710.00" text-anchor="end" font-family="Arial" font-size="16" fill="black">-0.313</text>
<line x1="120" y1="547.50" x2="1145" y2="547.50" stroke="#dddddd" stroke-width="1"/>
<text x="104" y="552.50" text-anchor="end" font-family="Arial" font-size="16" fill="black">-0.115</text>
<line x1="120" y1="390.00" x2="1145" y2="390.00" stroke="#dddddd" stroke-width="1"/>
<text x="104" y="395.00" text-anchor="end" font-family="Arial" font-size="16" fill="black">0.083</text>
<line x1="120" y1="232.50" x2="1145" y2="232.50" stroke="#dddddd" stroke-width="1"/>
<text x="104" y="237.50" text-anchor="end" font-family="Arial" font-size="16" fill="black">0.281</text>
<line x1="120" y1="75.00" x2="1145" y2="75.00" stroke="#dddddd" stroke-width="1"/>
<text x="104" y="80.00" text-anchor="end" font-family="Arial" font-size="16" fill="black">0.479</text>
<rect x="120" y="75" width="1025" height="630" fill="none" stroke="black" stroke-width="2"/>
<text x="632.5" y="785" text-anchor="middle" font-family="Arial" font-size="20" fill="black">x coordinate [m]</text>
<text x="34" y="390.0" transform="rotate(-90 34 390.0)" text-anchor="middle" font-family="Arial" font-size="20" fill="black">velocity component [m/s]</text>
<polyline points="190.69,487.28 193.64,488.07 196.58,488.86 199.53,489.65 202.47,490.44 205.42,493.22 208.36,496.81 211.31,500.39 214.25,503.98 217.20,508.05 220.14,512.78 223.09,517.51 226.03,522.23 228.98,526.83 231.93,530.63 234.87,534.42 237.82,538.22 240.76,542.02 243.71,545.86 246.65,549.70 249.60,553.54 252.54,557.39 255.49,561.43 258.43,565.63 261.38,569.83 264.32,574.02 267.27,578.42 270.22,583.33 273.16,588.23 276.11,593.13 279.05,598.04 282.00,604.74 284.94,611.46 287.89,618.16 290.83,624.88 293.78,632.20 296.72,639.75 299.67,647.32 302.62,654.88 305.56,657.53 308.51,653.66 311.45,649.79 314.40,645.90 317.34,640.41 320.29,625.20 323.23,609.99 326.17,594.78 329.13,579.58 332.07,565.52 335.01,551.65 337.96,537.78 340.91,523.91 343.85,512.15 346.80,501.98 349.74,491.80 352.68,481.63 355.64,472.24 358.58,464.81 361.52,457.38 364.47,449.96 367.41,442.53 370.35,436.03 373.31,429.54 376.25,423.04 379.19,416.54 382.15,409.23 385.09,401.59 388.03,393.94 390.98,386.30 393.92,377.75 396.86,368.00 399.82,358.25 402.76,348.50 405.70,338.49 408.65,326.95 411.59,315.43 414.54,303.89 417.49,292.37 420.43,289.37 423.37,287.81 426.33,286.24 429.27,284.67 432.21,288.90 435.16,297.46 438.10,306.03 441.04,314.60 444.00,322.81 446.94,330.12 449.88,337.42 452.83,344.73 455.78,352.04 458.72,358.78 461.67,365.53 464.61,372.28 467.55,379.02 470.51,386.83 473.45,395.07 476.39,403.30 479.34,411.54 482.28,420.89 485.23,431.73 488.18,442.57 491.12,453.42 494.06,464.13 497.02,474.05 499.96,483.98 502.90,493.91 505.85,503.84 508.79,511.33 511.73,518.42 514.69,525.50 517.63,532.59 520.57,538.55 523.52,543.66 526.47,548.77 529.41,553.89 532.36,558.52 535.30,561.97 538.24,565.41 541.20,568.85 544.14,572.29 547.08,576.25 550.03,580.20 552.97,584.15 555.92,588.10 558.87,592.94 561.81,598.12 564.75,603.31 567.71,608.50 570.65,609.61 573.59,605.30 576.54,600.99 579.48,596.68 582.42,591.07 585.38,577.70 588.32,564.34 591.26,550.97 594.21,537.61 597.16,526.28 600.10,515.29 603.05,504.30 605.99,493.31 608.93,484.10 611.89,476.22 614.83,468.34 617.77,460.46 620.72,452.92 623.66,446.25 626.60,439.58 629.56,432.91 632.50,426.24 635.44,418.58 638.40,410.92 641.34,403.27 644.28,395.61 647.23,385.90 650.17,375.37 653.11,364.84 656.07,354.30 659.01,342.56 661.95,329.21 664.90,315.85 667.84,302.49 670.79,288.83 673.74,273.32 676.68,257.82 679.62,242.31 682.58,226.81 685.52,218.73 688.46,211.89 691.41,205.05 694.35,198.22 697.29,196.91 700.25,199.76 703.19,202.61 706.13,205.45 709.08,208.37 712.03,211.48 714.97,214.58 717.92,217.68 720.86,220.78 723.80,226.15 726.76,231.52 729.70,236.90 732.64,242.27 735.59,250.08 738.53,258.88 741.48,267.68 744.43,276.48 747.37,286.45 750.31,297.99 753.27,309.52 756.21,321.06 759.15,332.97 762.10,347.12 765.04,361.27 767.98,375.42 770.94,389.56 773.88,402.78 776.82,415.84 779.77,428.90 782.72,441.96 785.66,452.36 788.61,460.78 791.55,469.20 794.49,477.61 797.45,485.40 800.39,491.58 803.33,497.77 806.28,503.96 809.22,510.15 812.17,515.36 815.12,520.57 818.06,525.79 821.00,531.00 823.96,537.96 826.90,545.61 829.84,553.27 832.79,560.93 835.73,565.90 838.67,567.27 841.63,568.65 844.57,570.02 847.51,569.95 850.46,561.20 853.41,552.44 856.35,543.69 859.30,534.93 862.24,526.36 865.18,517.83 868.14,509.29 871.08,500.75 874.02,493.17 876.97,486.30 879.91,479.43 882.85,472.57 885.81,465.88 888.75,459.63 891.69,453.38 894.65,447.13 897.59,440.88 900.53,433.80 903.48,426.71 906.42,419.62 909.36,412.53 912.32,403.40 915.26,393.45 918.20,383.50 921.15,373.55 924.09,362.10 927.04,348.66 929.99,335.22 932.93,321.78 935.87,307.95 938.83,291.78 941.77,275.61 944.71,259.44 947.66,243.27 950.60,234.36 953.54,226.65 956.50,218.93 959.44,211.22 962.38,209.33 965.33,211.79 968.28,214.27 971.22,216.74 974.17,219.15 977.11,221.42 980.05,223.70 983.01,225.96 985.95,228.24 988.89,230.74 991.84,233.23 994.78,235.72 997.73,238.21 1000.68,241.81 1003.62,245.85 1006.56,249.88 1009.52,253.92 1012.46,258.63 1015.40,264.24 1018.35,269.86 1021.29,275.48 1024.23,281.29 1027.19,288.28 1030.13,295.26 1033.07,302.25 1036.02,309.24 1038.97,318.16 1041.91,327.41 1044.86,336.66 1047.80,345.91 1050.74,355.64 1053.70,365.73 1056.64,375.82 1059.58,385.91 1062.53,394.45 1065.47,399.09 1068.42,403.73 1071.37,408.37 1074.31,413.01" fill="none" stroke="#000000" stroke-width="3"/>
<line x1="142" y1="100" x2="178" y2="100" stroke="#000000" stroke-width="4"/>
<text x="188" y="105" font-family="Arial" font-size="18" fill="black">Ux / u</text>
<polyline points="190.69,661.55 193.64,652.97 196.58,644.38 199.53,635.81 202.47,627.22 205.42,615.20 208.36,601.79 211.31,588.39 214.25,574.98 217.20,564.07 220.14,556.47 223.09,548.87 226.03,541.28 228.98,534.16 231.93,529.87 234.87,525.59 237.82,521.30 240.76,517.01 243.71,514.70 246.65,512.70 249.60,510.71 252.54,508.72 255.49,507.76 258.43,507.57 261.38,507.39 264.32,507.20 267.27,507.35 270.22,508.34 273.16,509.33 276.11,510.32 279.05,511.31 282.00,512.64 284.94,513.98 287.89,515.32 290.83,516.66 293.78,517.27 296.72,517.60 299.67,517.92 302.62,518.25 305.56,517.53 308.51,515.42 311.45,513.32 314.40,511.21 317.34,509.15 320.29,507.38 323.23,505.60 326.17,503.83 329.13,502.06 332.07,501.71 335.01,501.60 337.96,501.48 340.91,501.37 343.85,501.04 346.80,500.55 349.74,500.06 352.68,499.57 355.64,498.97 358.58,498.09 361.52,497.22 364.47,496.35 367.41,495.48 370.35,494.36 373.31,493.23 376.25,492.11 379.19,490.98 382.15,489.80 385.09,488.59 388.03,487.38 390.98,486.17 393.92,485.03 396.86,483.98 399.82,482.92 402.76,481.87 405.70,481.12 408.65,482.23 411.59,483.33 414.54,484.44 417.49,485.54 420.43,488.40 423.37,491.55 426.33,494.69 429.27,497.84 432.21,500.47 435.16,502.73 438.10,504.98 441.04,507.24 444.00,509.05 446.94,509.76 449.88,510.47 452.83,511.17 455.78,511.88 458.72,511.22 461.67,510.56 464.61,509.89 467.55,509.23 470.51,506.95 473.45,504.02 476.39,501.09 479.34,498.16 482.28,494.74 485.23,490.65 488.18,486.56 491.12,482.47 494.06,478.67 497.02,476.57 499.96,474.48 502.90,472.39 505.85,470.29 508.79,469.76 511.73,469.48 514.69,469.20 517.63,468.92 520.57,468.74 523.52,468.63 526.47,468.52 529.41,468.41 532.36,468.30 535.30,468.21 538.24,468.13 541.20,468.04 544.14,467.95 547.08,468.08 550.03,468.21 552.97,468.34 555.92,468.48 558.87,468.75 561.81,469.08 564.75,469.41 567.71,469.75 570.65,469.98 573.59,470.07 576.54,470.16 579.48,470.25 582.42,470.42 585.38,471.03 588.32,471.64 591.26,472.25 594.21,472.86 597.16,474.11 600.10,475.47 603.05,476.82 605.99,478.18 608.93,479.50 611.89,480.79 614.83,482.08 617.77,483.38 620.72,484.66 623.66,485.92 626.60,487.18 629.56,488.44 632.50,489.70 635.44,490.90 638.40,492.11 641.34,493.32 644.28,494.53 647.23,495.67 650.17,496.80 653.11,497.92 656.07,499.04 659.01,500.17 661.95,501.31 664.90,502.44 667.84,503.58 670.79,505.11 673.74,508.94 676.68,512.78 679.62,516.62 682.58,520.46 685.52,526.55 688.46,533.02 691.41,539.49 694.35,545.95 697.29,551.79 700.25,557.15 703.19,562.51 706.13,567.87 709.08,572.71 712.03,576.23 714.97,579.76 717.92,583.29 720.86,586.81 723.80,589.14 726.76,591.47 729.70,593.79 732.64,596.11 735.59,598.01 738.53,599.75 741.48,601.47 744.43,603.21 747.37,604.97 750.31,606.76 753.27,608.56 756.21,610.36 759.15,612.03 762.10,612.99 765.04,613.94 767.98,614.89 770.94,615.84 773.88,612.37 776.82,608.17 779.77,603.96 782.72,599.76 785.66,593.64 788.61,586.07 791.55,578.51 794.49,570.94 797.45,564.59 800.39,561.29 803.33,557.99 806.28,554.70 809.22,551.40 812.17,552.14 815.12,552.88 818.06,553.63 821.00,554.38 823.96,553.37 826.90,551.66 829.84,549.95 832.79,548.23 835.73,543.74 838.67,535.56 841.63,527.37 844.57,519.19 847.51,511.18 850.46,504.25 853.41,497.31 856.35,490.38 859.30,483.44 862.24,480.78 865.18,478.83 868.14,476.88 871.08,474.93 874.02,473.11 876.97,471.40 879.91,469.68 882.85,467.97 885.81,466.24 888.75,464.46 891.69,462.69 894.65,460.91 897.59,459.14 900.53,457.24 903.48,455.34 906.42,453.44 909.36,451.54 912.32,449.55 915.26,447.52 918.20,445.49 921.15,443.46 924.09,441.29 927.04,438.94 929.99,436.58 932.93,434.22 935.87,431.49 938.83,426.48 941.77,421.48 944.71,416.47 947.66,411.47 950.60,402.81 953.54,393.55 956.50,384.28 959.44,375.02 962.38,364.56 965.33,353.20 968.28,341.84 971.22,330.48 974.17,319.19 977.11,308.09 980.05,296.99 983.01,285.89 985.95,274.78 988.89,264.98 991.84,255.17 994.78,245.37 997.73,235.57 1000.68,227.05 1003.62,219.04 1006.56,211.04 1009.52,203.03 1012.46,195.78 1015.40,189.54 1018.35,183.31 1021.29,177.07 1024.23,171.02 1027.19,166.06 1030.13,161.11 1033.07,156.16 1036.02,151.21 1038.97,146.94 1041.91,142.78 1044.86,138.62 1047.80,134.47 1050.74,131.19 1053.70,128.57 1056.64,125.94 1059.58,123.32 1062.53,121.25 1065.47,120.55 1068.42,119.85 1071.37,119.15 1074.31,118.45" fill="none" stroke="#555555" stroke-width="3" stroke-dasharray="9 5"/>
<line x1="142" y1="128" x2="178" y2="128" stroke="#555555" stroke-width="4" stroke-dasharray="9 5"/>
<text x="188" y="133" font-family="Arial" font-size="18" fill="black">Uy / v</text>
<polyline points="190.69,372.63 193.64,374.83 196.58,377.02 199.53,379.21 202.47,381.40 205.42,384.44 208.36,387.82 211.31,391.20 214.25,394.57 217.20,397.61 220.14,400.18 223.09,402.75 226.03,405.32 228.98,408.04 231.93,411.64 234.87,415.24 237.82,418.84 240.76,422.44 243.71,427.32 246.65,432.41 249.60,437.51 252.54,442.60 255.49,448.16 258.43,454.06 261.38,459.96 264.32,465.86 267.27,471.66 270.22,477.25 273.16,482.83 276.11,488.41 279.05,494.00 282.00,496.23 284.94,498.45 287.89,500.68 290.83,502.91 293.78,496.75 296.72,487.24 299.67,477.73 302.62,468.22 305.56,450.74 308.51,422.65 311.45,394.56 314.40,366.46 317.34,338.64 320.29,312.47 323.23,286.29 326.17,260.11 329.13,233.93 332.07,221.79 335.01,211.99 337.96,202.19 340.91,192.38 343.85,186.01 346.80,182.22 349.74,178.42 352.68,174.63 355.64,171.42 358.58,169.68 361.52,167.94 364.47,166.20 367.41,164.45 370.35,163.99 373.31,163.53 376.25,163.06 379.19,162.60 382.15,163.29 385.09,164.45 388.03,165.61 390.98,166.77 393.92,169.94 396.86,175.81 399.82,181.67 402.76,187.53 405.70,195.75 408.65,218.10 411.59,240.44 414.54,262.79 417.49,285.13 420.43,315.32 423.37,346.83 426.33,378.32 429.27,409.82 432.21,433.11 435.16,450.23 438.10,467.36 441.04,484.49 444.00,497.09 446.94,498.41 449.88,499.73 452.83,501.05 455.78,502.37 458.72,496.36 461.67,490.34 464.61,484.32 467.55,478.30 470.51,470.79 473.45,462.68 476.39,454.58 479.34,446.47 482.28,440.34 485.23,436.85 488.18,433.36 491.12,429.86 494.06,427.47 497.02,431.68 499.96,435.89 502.90,440.09 505.85,444.30 508.79,451.60 511.73,459.40 514.69,467.21 517.63,475.02 520.57,482.79 523.52,490.55 526.47,498.30 529.41,506.05 532.36,513.28 535.30,519.20 538.24,525.12 541.20,531.03 544.14,536.95 547.08,537.11 550.03,537.27 552.97,537.42 555.92,537.58 558.87,526.07 561.81,509.89 564.75,493.71 567.71,477.54 570.65,452.91 573.59,417.03 576.54,381.14 579.48,345.26 582.42,310.49 585.38,282.42 588.32,254.35 591.26,226.27 594.21,198.20 597.16,187.25 600.10,179.15 603.05,171.06 605.99,162.96 608.93,158.25 611.89,156.08 614.83,153.91 617.77,151.75 620.72,150.23 623.66,150.36 626.60,150.48 629.56,150.60 632.50,150.72 635.44,152.12 638.40,153.52 641.34,154.92 644.28,156.32 647.23,158.80 650.17,161.70 653.11,164.60 656.07,167.52 659.01,172.28 661.95,179.53 664.90,186.78 667.84,194.02 670.79,203.42 673.74,225.68 676.68,247.95 679.62,270.21 682.58,292.48 685.52,319.49 688.46,347.30 691.41,375.11 694.35,402.92 697.29,422.65 700.25,436.34 703.19,450.02 706.13,463.71 709.08,474.10 712.03,476.25 714.97,478.40 717.92,480.55 720.86,482.70 723.80,480.29 726.76,477.88 729.70,475.47 732.64,473.07 735.59,469.64 738.53,465.80 741.48,461.96 744.43,458.12 747.37,453.93 750.31,449.27 753.27,444.61 756.21,439.94 759.15,435.52 762.10,432.55 765.04,429.58 767.98,426.61 770.94,423.65 773.88,428.63 776.82,434.94 779.77,441.26 782.72,447.57 785.66,457.47 788.61,470.06 791.55,482.66 794.49,495.25 797.45,506.08 800.39,512.50 803.33,518.92 806.28,525.34 809.22,531.77 812.17,526.63 815.12,521.50 818.06,516.37 821.00,511.24 823.96,493.76 826.90,471.34 829.84,448.92 832.79,426.50 835.73,397.57 838.67,359.96 841.63,322.36 844.57,284.75 847.51,249.14 850.46,225.47 853.41,201.80 856.35,178.13 859.30,154.46 862.24,148.19 865.18,144.82 868.14,141.45 871.08,138.07 874.02,136.32 876.97,135.79 879.91,135.26 882.85,134.72 885.81,134.54 888.75,135.23 891.69,135.91 894.65,136.59 897.59,137.28 900.53,139.20 903.48,141.12 906.42,143.05 909.36,144.96 912.32,148.34 915.26,152.28 918.20,156.23 921.15,160.17 924.09,166.54 927.04,176.12 929.99,185.71 932.93,195.30 935.87,207.16 938.83,232.73 941.77,258.29 944.71,283.87 947.66,309.44 950.60,336.94 953.54,364.77 956.50,392.59 959.44,420.42 962.38,437.58 965.33,446.75 968.28,455.91 971.22,465.08 974.17,470.78 977.11,467.82 980.05,464.86 983.01,461.90 985.95,458.94 988.89,453.05 991.84,447.16 994.78,441.27 997.73,435.38 1000.68,430.05 1003.62,424.94 1006.56,419.83 1009.52,414.72 1012.46,410.19 1015.40,406.41 1018.35,402.63 1021.29,398.85 1024.23,395.16 1027.19,392.02 1030.13,388.87 1033.07,385.72 1036.02,382.58 1038.97,379.17 1041.91,375.71 1044.86,372.26 1047.80,368.81 1050.74,364.65 1053.70,359.98 1056.64,355.32 1059.58,350.65 1062.53,346.52 1065.47,343.76 1068.42,341.01 1071.37,338.25 1074.31,335.50" fill="none" stroke="#999999" stroke-width="3" stroke-dasharray="3 4"/>
<line x1="142" y1="156" x2="178" y2="156" stroke="#999999" stroke-width="4" stroke-dasharray="3 4"/>
<text x="188" y="161" font-family="Arial" font-size="18" fill="black">Uz / w</text>
</svg>