<svg xmlns="http://www.w3.org/2000/svg" width="1200" height="820" viewBox="0 0 1200 820">
<rect width="100%" height="100%" fill="white"/>
<text x="600.0" y="36" text-anchor="middle" font-family="Arial" font-size="24" fill="black">profile_near_ceiling_x: U:1</text>
<line x1="120.00" y1="75" x2="120.00" y2="705" stroke="#dddddd" stroke-width="1"/>
<text x="120.00" y="737" text-anchor="middle" font-family="Arial" font-size="16" fill="black">-0.560</text>
<line x1="376.25" y1="75" x2="376.25" y2="705" stroke="#dddddd" stroke-width="1"/>
<text x="376.25" y="737" text-anchor="middle" font-family="Arial" font-size="16" fill="black">1.470</text>
<line x1="632.50" y1="75" x2="632.50" y2="705" stroke="#dddddd" stroke-width="1"/>
<text x="632.50" y="737" text-anchor="middle" font-family="Arial" font-size="16" fill="black">3.500</text>
<line x1="888.75" y1="75" x2="888.75" y2="705" stroke="#dddddd" stroke-width="1"/>
<text x="888.75" y="737" text-anchor="middle" font-family="Arial" font-size="16" fill="black">5.530</text>
<line x1="1145.00" y1="75" x2="1145.00" y2="705" stroke="#dddddd" stroke-width="1"/>
<text x="1145.00" y="737" text-anchor="middle" font-family="Arial" font-size="16" fill="black">7.560</text>
<line x1="120" y1="705.00" x2="1145" y2="705.00" stroke="#dddddd" stroke-width="1"/>
<text x="104" y="710.00" text-anchor="end" font-family="Arial" font-size="16" fill="black">-0.346</text>
<line x1="120" y1="547.50" x2="1145" y2="547.50" stroke="#dddddd" stroke-width="1"/>
<text x="104" y="552.50" text-anchor="end" font-family="Arial" font-size="16" fill="black">-0.221</text>
<line x1="120" y1="390.00" x2="1145" y2="390.00" stroke="#dddddd" stroke-width="1"/>
<text x="104" y="395.00" text-anchor="end" font-family="Arial" font-size="16" fill="black">-0.095</text>
<line x1="120" y1="232.50" x2="1145" y2="232.50" stroke="#dddddd" stroke-width="1"/>
<text x="104" y="237.50" text-anchor="end" font-family="Arial" font-size="16" fill="black">0.030</text>
<line x1="120" y1="75.00" x2="1145" y2="75.00" stroke="#dddddd" stroke-width="1"/>
<text x="104" y="80.00" text-anchor="end" font-family="Arial" font-size="16" fill="black">0.156</text>
<rect x="120" y="75" width="1025" height="630" fill="none" stroke="black" stroke-width="2"/>
<text x="632.5" y="785" text-anchor="middle" font-family="Arial" font-size="20" fill="black">x coordinate [m]</text>
<text x="34" y="390.0" transform="rotate(-90 34 390.0)" text-anchor="middle" font-family="Arial" font-size="20" fill="black">U:1 [SI]</text>
<polyline points="190.69,118.45 193.64,120.71 196.58,122.97 199.53,125.23 202.47,127.49 205.42,130.81 208.36,134.56 211.31,138.30 214.25,142.04 217.20,145.32 220.14,147.97 223.09,150.62 226.03,153.27 228.98,155.83 231.93,157.92 234.87,160.00 237.82,162.09 240.76,164.18 243.71,165.83 246.65,167.41 249.60,168.99 252.54,170.57 255.49,171.83 258.43,172.86 261.38,173.89 264.32,174.92 267.27,175.78 270.22,176.19 273.16,176.61 276.11,177.02 279.05,177.44 282.00,177.18 284.94,176.92 287.89,176.66 290.83,176.41 293.78,175.66 296.72,174.71 299.67,173.76 302.62,172.81 305.56,171.59 308.51,170.01 311.45,168.43 314.40,166.85 317.34,165.20 320.29,163.18 323.23,161.15 326.17,159.13 329.13,157.10 332.07,154.94 335.01,152.75 337.96,150.57 340.91,148.38 343.85,146.32 346.80,144.36 349.74,142.38 352.68,140.41 355.64,138.61 358.58,137.23 361.52,135.86 364.47,134.48 367.41,133.10 370.35,132.82 373.31,132.56 376.25,132.28 379.19,132.02 382.15,132.91 385.09,134.29 388.03,135.66 390.98,137.03 393.92,139.08 396.86,142.03 399.82,144.99 402.76,147.95 405.70,151.07 408.65,155.23 411.59,159.39 414.54,163.54 417.49,167.70 420.43,172.65 423.37,177.74 426.33,182.83 429.27,187.91 432.21,193.40 435.16,199.20 438.10,205.00 441.04,210.79 444.00,216.73 446.94,223.01 449.88,229.30 452.83,235.59 455.78,241.87 458.72,248.33 461.67,254.79 464.61,261.25 467.55,267.71 470.51,273.85 473.45,279.86 476.39,285.88 479.34,291.89 482.28,297.40 485.23,302.23 488.18,307.06 491.12,311.89 494.06,316.57 497.02,320.32 499.96,324.08 502.90,327.83 505.85,331.59 508.79,335.04 511.73,338.45 514.69,341.86 517.63,345.27 520.57,348.43 523.52,351.41 526.47,354.38 529.41,357.36 532.36,359.97 535.30,361.66 538.24,363.36 541.20,365.05 544.14,366.75 547.08,366.55 550.03,366.35 552.97,366.14 555.92,365.94 558.87,364.26 561.81,361.99 564.75,359.72 567.71,357.44 570.65,354.28 573.59,349.92 576.54,345.57 579.48,341.21 582.42,336.58 585.38,330.31 588.32,324.03 591.26,317.76 594.21,311.48 597.16,303.96 600.10,296.23 603.05,288.50 605.99,280.77 608.93,272.72 611.89,264.41 614.83,256.11 617.77,247.80 620.72,239.64 623.66,231.84 626.60,224.03 629.56,216.23 632.50,208.43 635.44,202.00 638.40,195.58 641.34,189.16 644.28,182.74 647.23,177.79 650.17,173.44 653.11,169.09 656.07,164.74 659.01,161.35 661.95,159.22 664.90,157.10 667.84,154.98 670.79,153.15 673.74,153.11 676.68,153.07 679.62,153.04 682.58,153.00 685.52,154.65 688.46,156.59 691.41,158.52 694.35,160.45 697.29,163.32 700.25,166.90 703.19,170.47 706.13,174.05 709.08,178.00 712.03,182.90 714.97,187.80 717.92,192.70 720.86,197.60 723.80,203.53 726.76,209.45 729.70,215.38 732.64,221.31 735.59,227.78 738.53,234.47 741.48,241.16 744.43,247.86 747.37,254.77 750.31,262.00 753.27,269.22 756.21,276.44 759.15,283.72 762.10,291.32 765.04,298.92 767.98,306.52 770.94,314.12 773.88,321.94 776.82,329.79 779.77,337.65 782.72,345.50 785.66,353.34 788.61,361.18 791.55,369.01 794.49,376.85 797.45,384.59 800.39,392.11 803.33,399.63 806.28,407.16 809.22,414.67 812.17,422.16 815.12,429.65 818.06,437.13 821.00,444.62 823.96,452.54 826.90,460.62 829.84,468.69 832.79,476.77 835.73,485.03 838.67,493.51 841.63,501.99 844.57,510.48 847.51,518.90 850.46,526.95 853.41,535.01 856.35,543.07 859.30,551.13 862.24,558.30 865.18,565.32 868.14,572.35 871.08,579.36 874.02,585.67 876.97,591.42 879.91,597.19 882.85,602.94 885.81,608.34 888.75,612.89 891.69,617.43 894.65,621.96 897.59,626.50 900.53,630.00 903.48,633.51 906.42,637.01 909.36,640.52 912.32,643.36 915.26,645.95 918.20,648.54 921.15,651.12 924.09,653.28 927.04,654.88 929.99,656.48 932.93,658.07 935.87,659.52 938.83,660.03 941.77,660.53 944.71,661.05 947.66,661.55 950.60,661.15 953.54,660.60 956.50,660.04 959.44,659.49 962.38,658.36 965.33,656.82 968.28,655.26 971.22,653.70 974.17,651.89 977.11,649.44 980.05,647.00 983.01,644.55 985.95,642.12 988.89,638.97 991.84,635.83 994.78,632.69 997.73,629.56 1000.68,626.10 1003.62,622.52 1006.56,618.93 1009.52,615.35 1012.46,611.74 1015.40,608.08 1018.35,604.41 1021.29,600.74 1024.23,597.14 1027.19,593.89 1030.13,590.64 1033.07,587.40 1036.02,584.15 1038.97,581.71 1041.91,579.42 1044.86,577.12 1047.80,574.82 1050.74,573.14 1053.70,571.93 1056.64,570.71 1059.58,569.51 1062.53,568.54 1065.47,568.18 1068.42,567.81 1071.37,567.45 1074.31,567.08" fill="none" stroke="#000000" stroke-width="3"/>
<line x1="142" y1="100" x2="178" y2="100" stroke="#000000" stroke-width="4"/>
<text x="188" y="105" font-family="Arial" font-size="18" fill="black">U:1</text>
</svg>