<svg xmlns="http://www.w3.org/2000/svg" width="1200" height="820" viewBox="0 0 1200 820">
<rect width="100%" height="100%" fill="white"/>
<text x="600.0" y="36" text-anchor="middle" font-family="Arial" font-size="24" fill="black">profile_near_floor_x: T</text>
<line x1="120.00" y1="75" x2="120.00" y2="705" stroke="#dddddd" stroke-width="1"/>
<text x="120.00" y="737" text-anchor="middle" font-family="Arial" font-size="16" fill="black">-0.560</text>
<line x1="376.25" y1="75" x2="376.25" y2="705" stroke="#dddddd" stroke-width="1"/>
<text x="376.25" y="737" text-anchor="middle" font-family="Arial" font-size="16" fill="black">1.470</text>
<line x1="632.50" y1="75" x2="632.50" y2="705" stroke="#dddddd" stroke-width="1"/>
<text x="632.50" y="737" text-anchor="middle" font-family="Arial" font-size="16" fill="black">3.500</text>
<line x1="888.75" y1="75" x2="888.75" y2="705" stroke="#dddddd" stroke-width="1"/>
<text x="888.75" y="737" text-anchor="middle" font-family="Arial" font-size="16" fill="black">5.530</text>
<line x1="1145.00" y1="75" x2="1145.00" y2="705" stroke="#dddddd" stroke-width="1"/>
<text x="1145.00" y="737" text-anchor="middle" font-family="Arial" font-size="16" fill="black">7.560</text>
<line x1="120" y1="705.00" x2="1145" y2="705.00" stroke="#dddddd" stroke-width="1"/>
<text x="104" y="710.00" text-anchor="end" font-family="Arial" font-size="16" fill="black">287.2</text>
<line x1="120" y1="547.50" x2="1145" y2="547.50" stroke="#dddddd" stroke-width="1"/>
<text x="104" y="552.50" text-anchor="end" font-family="Arial" font-size="16" fill="black">301.1</text>
<line x1="120" y1="390.00" x2="1145" y2="390.00" stroke="#dddddd" stroke-width="1"/>
<text x="104" y="395.00" text-anchor="end" font-family="Arial" font-size="16" fill="black">314.9</text>
<line x1="120" y1="232.50" x2="1145" y2="232.50" stroke="#dddddd" stroke-width="1"/>
<text x="104" y="237.50" text-anchor="end" font-family="Arial" font-size="16" fill="black">328.8</text>
<line x1="120" y1="75.00" x2="1145" y2="75.00" stroke="#dddddd" stroke-width="1"/>
<text x="104" y="80.00" text-anchor="end" font-family="Arial" font-size="16" fill="black">342.7</text>
<rect x="120" y="75" width="1025" height="630" fill="none" stroke="black" stroke-width="2"/>
<text x="632.5" y="785" text-anchor="middle" font-family="Arial" font-size="20" fill="black">x coordinate [m]</text>
<text x="34" y="390.0" transform="rotate(-90 34 390.0)" text-anchor="middle" font-family="Arial" font-size="20" fill="black">T [K]</text>
<polyline points="190.69,493.31 193.64,496.49 196.58,499.55 199.53,502.73 202.47,505.91 205.42,509.77 208.36,513.97 211.31,518.06 214.25,522.26 217.20,525.09 220.14,526.23 223.09,527.37 226.03,528.50 228.98,529.41 231.93,529.30 234.87,529.18 237.82,529.07 240.76,528.95 243.71,528.84 246.65,528.61 249.60,528.50 252.54,528.39 255.49,528.95 258.43,529.98 261.38,531.11 264.32,532.25 267.27,533.95 270.22,537.36 273.16,540.65 276.11,543.94 279.05,547.23 282.00,553.36 284.94,559.49 287.89,565.62 290.83,571.75 293.78,579.25 296.72,587.31 299.67,595.48 302.62,603.54 305.56,611.15 308.51,618.07 311.45,625.00 314.40,631.92 317.34,638.28 320.29,641.57 323.23,644.98 326.17,648.27 329.13,651.68 332.07,652.81 335.01,653.72 337.96,654.63 340.91,655.42 343.85,655.99 346.80,656.33 349.74,656.67 352.68,657.01 355.64,657.24 358.58,657.46 361.52,657.58 364.47,657.81 367.41,657.92 370.35,657.92 373.31,658.03 376.25,658.03 379.19,658.15 382.15,658.15 385.09,658.03 388.03,657.92 390.98,657.92 393.92,657.69 396.86,657.35 399.82,656.90 402.76,656.56 405.70,655.99 408.65,654.06 411.59,652.02 414.54,650.09 417.49,648.16 420.43,642.37 423.37,635.78 426.33,629.31 429.27,622.84 432.21,613.98 435.16,603.31 438.10,592.53 441.04,581.86 444.00,571.19 446.94,560.63 449.88,550.07 452.83,539.40 455.78,528.84 458.72,520.55 461.67,512.15 464.61,503.75 467.55,495.46 470.51,487.18 473.45,478.89 476.39,470.72 479.34,462.43 482.28,454.14 485.23,445.85 488.18,437.45 491.12,429.05 494.06,421.11 497.02,415.88 499.96,410.66 502.90,405.55 505.85,400.33 508.79,398.63 511.73,397.61 514.69,396.58 517.63,395.56 520.57,396.81 523.52,399.76 526.47,402.71 529.41,405.78 532.36,410.09 535.30,418.04 538.24,425.87 541.20,433.71 544.14,441.65 547.08,455.28 550.03,468.90 552.97,482.52 555.92,496.26 558.87,512.83 561.81,530.66 564.75,548.59 567.71,566.42 570.65,582.54 573.59,596.27 576.54,610.01 579.48,623.75 582.42,636.24 585.38,641.23 588.32,646.11 591.26,651.11 594.21,655.99 597.16,657.46 600.10,658.15 603.05,658.94 605.99,659.74 608.93,660.19 611.89,660.30 614.83,660.42 617.77,660.64 620.72,660.64 623.66,660.76 626.60,660.76 629.56,660.76 632.50,660.76 635.44,660.64 638.40,660.64 641.34,660.53 644.28,660.53 647.23,660.42 650.17,660.30 653.11,660.19 656.07,660.19 659.01,659.96 661.95,659.85 664.90,659.62 667.84,659.39 670.79,659.17 673.74,658.37 676.68,657.58 679.62,656.78 682.58,655.99 685.52,653.83 688.46,651.56 691.41,649.18 694.35,646.91 697.29,643.84 700.25,640.32 703.19,636.92 706.13,633.40 709.08,629.88 712.03,626.59 714.97,623.18 717.92,619.89 720.86,616.48 723.80,613.53 726.76,610.58 729.70,607.74 732.64,604.79 735.59,601.95 738.53,599.11 741.48,596.27 744.43,593.44 747.37,590.37 750.31,587.08 753.27,583.79 756.21,580.49 759.15,576.98 762.10,572.32 765.04,567.78 767.98,563.13 770.94,558.47 773.88,555.41 776.82,552.68 779.77,549.84 782.72,547.12 785.66,548.03 788.61,551.66 791.55,555.29 794.49,559.04 797.45,563.69 800.39,570.96 803.33,578.22 806.28,585.49 809.22,592.64 812.17,598.77 815.12,604.79 818.06,610.92 821.00,617.05 823.96,622.16 826.90,626.93 829.84,631.69 832.79,636.46 835.73,640.78 838.67,644.41 841.63,648.16 844.57,651.90 847.51,655.31 850.46,656.78 853.41,658.26 856.35,659.74 859.30,661.21 862.24,661.44 865.18,661.44 868.14,661.55 871.08,661.55 874.02,661.55 876.97,661.55 879.91,661.55 882.85,661.55 885.81,661.55 888.75,661.55 891.69,661.55 894.65,661.55 897.59,661.55 900.53,661.55 903.48,661.55 906.42,661.55 909.36,661.55 912.32,661.44 915.26,661.44 918.20,661.44 921.15,661.32 924.09,661.21 927.04,660.98 929.99,660.76 932.93,660.53 935.87,660.19 938.83,658.60 941.77,656.90 944.71,655.31 947.66,653.72 950.60,647.47 953.54,640.32 956.50,633.28 959.44,626.25 962.38,614.55 965.33,599.45 968.28,584.35 971.22,569.26 974.17,552.45 977.11,531.68 980.05,510.79 983.01,490.02 985.95,469.24 988.89,446.76 991.84,424.40 994.78,402.03 997.73,379.67 1000.68,358.78 1003.62,338.57 1006.56,318.37 1009.52,298.16 1012.46,279.88 1015.40,263.87 1018.35,247.98 1021.29,232.09 1024.23,216.87 1027.19,205.64 1030.13,194.51 1033.07,183.38 1036.02,172.26 1038.97,164.65 1041.91,157.61 1044.86,150.58 1047.80,143.65 1050.74,138.43 1053.70,134.57 1056.64,130.71 1059.58,126.74 1062.53,123.67 1065.47,122.31 1068.42,121.06 1071.37,119.70 1074.31,118.45" fill="none" stroke="#000000" stroke-width="3"/>
<line x1="142" y1="100" x2="178" y2="100" stroke="#000000" stroke-width="4"/>
<text x="188" y="105" font-family="Arial" font-size="18" fill="black">T</text>
</svg>