<svg xmlns="http://www.w3.org/2000/svg" width="1200" height="820" viewBox="0 0 1200 820">
<rect width="100%" height="100%" fill="white"/>
<text x="600.0" y="36" text-anchor="middle" font-family="Arial" font-size="24" fill="black">profile_rack_height_x: U:2</text>
<line x1="120.00" y1="75" x2="120.00" y2="705" stroke="#dddddd" stroke-width="1"/>
<text x="120.00" y="737" text-anchor="middle" font-family="Arial" font-size="16" fill="black">-0.560</text>
<line x1="376.25" y1="75" x2="376.25" y2="705" stroke="#dddddd" stroke-width="1"/>
<text x="376.25" y="737" text-anchor="middle" font-family="Arial" font-size="16" fill="black">1.470</text>
<line x1="632.50" y1="75" x2="632.50" y2="705" stroke="#dddddd" stroke-width="1"/>
<text x="632.50" y="737" text-anchor="middle" font-family="Arial" font-size="16" fill="black">3.500</text>
<line x1="888.75" y1="75" x2="888.75" y2="705" stroke="#dddddd" stroke-width="1"/>
<text x="888.75" y="737" text-anchor="middle" font-family="Arial" font-size="16" fill="black">5.530</text>
<line x1="1145.00" y1="75" x2="1145.00" y2="705" stroke="#dddddd" stroke-width="1"/>
<text x="1145.00" y="737" text-anchor="middle" font-family="Arial" font-size="16" fill="black">7.560</text>
<line x1="120" y1="705.00" x2="1145" y2="705.00" stroke="#dddddd" stroke-width="1"/>
<text x="104" y="710.00" text-anchor="end" font-family="Arial" font-size="16" fill="black">-0.708</text>
<line x1="120" y1="547.50" x2="1145" y2="547.50" stroke="#dddddd" stroke-width="1"/>
<text x="104" y="552.50" text-anchor="end" font-family="Arial" font-size="16" fill="black">-0.467</text>
<line x1="120" y1="390.00" x2="1145" y2="390.00" stroke="#dddddd" stroke-width="1"/>
<text x="104" y="395.00" text-anchor="end" font-family="Arial" font-size="16" fill="black">-0.226</text>
<line x1="120" y1="232.50" x2="1145" y2="232.50" stroke="#dddddd" stroke-width="1"/>
<text x="104" y="237.50" text-anchor="end" font-family="Arial" font-size="16" fill="black">0.016</text>
<line x1="120" y1="75.00" x2="1145" y2="75.00" stroke="#dddddd" stroke-width="1"/>
<text x="104" y="80.00" text-anchor="end" font-family="Arial" font-size="16" fill="black">0.257</text>
<rect x="120" y="75" width="1025" height="630" fill="none" stroke="black" stroke-width="2"/>
<text x="632.5" y="785" text-anchor="middle" font-family="Arial" font-size="20" fill="black">x coordinate [m]</text>
<text x="34" y="390.0" transform="rotate(-90 34 390.0)" text-anchor="middle" font-family="Arial" font-size="20" fill="black">U:2 [SI]</text>
<polyline points="190.69,661.55 193.64,654.46 196.58,647.37 199.53,640.27 202.47,633.18 205.42,621.32 208.36,607.55 211.31,593.78 214.25,580.01 217.20,566.58 220.14,553.59 223.09,540.60 226.03,527.60 228.98,514.70 231.93,502.31 234.87,489.92 237.82,477.53 240.76,465.14 243.71,453.14 246.65,441.20 249.60,429.27 252.54,417.33 255.49,405.63 258.43,394.12 261.38,382.61 264.32,371.09 267.27,359.72 270.22,348.75 273.16,337.76 276.11,326.78 279.05,315.80 282.00,305.73 284.94,295.66 287.89,285.59 290.83,275.53 293.78,266.54 296.72,258.00 299.67,249.45 302.62,240.90 305.56,233.25 308.51,226.79 311.45,220.33 314.40,213.87 317.34,207.75 320.29,203.64 323.23,199.53 326.17,195.42 329.13,191.31 332.07,189.11 335.01,187.24 337.96,185.36 340.91,183.49 343.85,182.66 346.80,182.62 349.74,182.58 352.68,182.54 355.64,182.87 358.58,184.12 361.52,185.36 364.47,186.61 367.41,187.86 370.35,189.85 373.31,191.84 376.25,193.83 379.19,195.82 382.15,198.00 385.09,200.27 388.03,202.54 390.98,204.80 393.92,207.05 396.86,209.26 399.82,211.47 402.76,213.69 405.70,215.87 408.65,217.85 411.59,219.84 414.54,221.82 417.49,223.81 420.43,225.58 423.37,227.32 426.33,229.06 429.27,230.80 432.21,232.43 435.16,233.99 438.10,235.55 441.04,237.11 444.00,238.64 446.94,240.08 449.88,241.53 452.83,242.97 455.78,244.42 458.72,245.79 461.67,247.15 464.61,248.52 467.55,249.89 470.51,251.20 473.45,252.49 476.39,253.77 479.34,255.06 482.28,256.30 485.23,257.47 488.18,258.63 491.12,259.80 494.06,260.94 497.02,261.90 499.96,262.86 502.90,263.83 505.85,264.79 508.79,265.48 511.73,266.12 514.69,266.76 517.63,267.40 520.57,267.77 523.52,267.94 526.47,268.11 529.41,268.27 532.36,268.25 535.30,267.74 538.24,267.24 541.20,266.73 544.14,266.23 547.08,264.84 550.03,263.45 552.97,262.06 555.92,260.68 558.87,258.50 561.81,256.01 564.75,253.51 567.71,251.02 570.65,247.99 573.59,244.25 576.54,240.50 579.48,236.75 582.42,232.84 585.38,227.92 588.32,223.00 591.26,218.09 594.21,213.17 597.16,207.71 600.10,202.17 603.05,196.62 605.99,191.07 608.93,185.85 611.89,180.88 614.83,175.90 617.77,170.93 620.72,166.58 623.66,163.80 626.60,161.01 629.56,158.22 632.50,155.44 635.44,155.84 638.40,156.24 641.34,156.65 644.28,157.05 647.23,159.40 650.17,162.54 653.11,165.68 656.07,168.81 659.01,172.49 661.95,176.88 664.90,181.28 667.84,185.68 670.79,190.04 673.74,194.21 676.68,198.38 679.62,202.55 682.58,206.72 685.52,209.86 688.46,212.84 691.41,215.81 694.35,218.78 697.29,220.85 700.25,222.23 703.19,223.62 706.13,225.00 709.08,225.94 712.03,225.76 714.97,225.58 717.92,225.40 720.86,225.21 723.80,223.69 726.76,222.17 729.70,220.65 732.64,219.12 735.59,216.86 738.53,214.30 741.48,211.74 744.43,209.18 747.37,206.31 750.31,203.02 753.27,199.74 756.21,196.45 759.15,193.11 762.10,189.41 765.04,185.70 767.98,182.00 770.94,178.30 773.88,174.49 776.82,170.67 779.77,166.85 782.72,163.02 785.66,159.31 788.61,155.68 791.55,152.05 794.49,148.42 797.45,144.93 800.39,141.82 803.33,138.71 806.28,135.60 809.22,132.50 812.17,130.26 815.12,128.01 818.06,125.76 821.00,123.52 823.96,122.12 826.90,121.05 829.84,119.98 832.79,118.91 835.73,118.45 838.67,118.78 841.63,119.11 844.57,119.45 847.51,119.99 850.46,121.79 853.41,123.59 856.35,125.38 859.30,127.19 862.24,130.14 865.18,133.29 868.14,136.43 871.08,139.57 874.02,143.34 876.97,147.57 879.91,151.81 882.85,156.04 885.81,160.50 888.75,165.51 891.69,170.53 894.65,175.54 897.59,180.56 900.53,186.06 903.48,191.56 906.42,197.07 909.36,202.57 912.32,208.24 915.26,213.98 918.20,219.71 921.15,225.45 924.09,231.19 927.04,236.94 929.99,242.69 932.93,248.44 935.87,254.17 938.83,259.75 941.77,265.32 944.71,270.90 947.66,276.48 950.60,281.80 953.54,287.07 956.50,292.34 959.44,297.61 962.38,302.66 965.33,307.55 968.28,312.43 971.22,317.32 974.17,322.08 977.11,326.55 980.05,331.01 983.01,335.47 985.95,339.94 988.89,343.95 991.84,347.98 994.78,352.00 997.73,356.02 1000.68,359.69 1003.62,363.21 1006.56,366.73 1009.52,370.25 1012.46,373.52 1015.40,376.44 1018.35,379.35 1021.29,382.27 1024.23,385.08 1027.19,387.21 1030.13,389.35 1033.07,391.50 1036.02,393.64 1038.97,394.94 1041.91,396.09 1044.86,397.25 1047.80,398.40 1050.74,398.78 1053.70,398.55 1056.64,398.33 1059.58,398.11 1062.53,397.80 1065.47,397.27 1068.42,396.75 1071.37,396.22 1074.31,395.69" fill="none" stroke="#000000" stroke-width="3"/>
<line x1="142" y1="100" x2="178" y2="100" stroke="#000000" stroke-width="4"/>
<text x="188" y="105" font-family="Arial" font-size="18" fill="black">U:2</text>
</svg>