<svg xmlns="http://www.w3.org/2000/svg" width="1200" height="820" viewBox="0 0 1200 820">
<rect width="100%" height="100%" fill="white"/>
<text x="600.0" y="36" text-anchor="middle" font-family="Arial" font-size="24" fill="black">profile_diagonal_supply_return: p</text>
<line x1="120.00" y1="75" x2="120.00" y2="705" stroke="#dddddd" stroke-width="1"/>
<text x="120.00" y="737" text-anchor="middle" font-family="Arial" font-size="16" fill="black">-0.729</text>
<line x1="376.25" y1="75" x2="376.25" y2="705" stroke="#dddddd" stroke-width="1"/>
<text x="376.25" y="737" text-anchor="middle" font-family="Arial" font-size="16" fill="black">1.913</text>
<line x1="632.50" y1="75" x2="632.50" y2="705" stroke="#dddddd" stroke-width="1"/>
<text x="632.50" y="737" text-anchor="middle" font-family="Arial" font-size="16" fill="black">4.555</text>
<line x1="888.75" y1="75" x2="888.75" y2="705" stroke="#dddddd" stroke-width="1"/>
<text x="888.75" y="737" text-anchor="middle" font-family="Arial" font-size="16" fill="black">7.197</text>
<line x1="1145.00" y1="75" x2="1145.00" y2="705" stroke="#dddddd" stroke-width="1"/>
<text x="1145.00" y="737" text-anchor="middle" font-family="Arial" font-size="16" fill="black">9.839</text>
<line x1="120" y1="705.00" x2="1145" y2="705.00" stroke="#dddddd" stroke-width="1"/>
<text x="104" y="710.00" text-anchor="end" font-family="Arial" font-size="16" fill="black">-33.15</text>
<line x1="120" y1="547.50" x2="1145" y2="547.50" stroke="#dddddd" stroke-width="1"/>
<text x="104" y="552.50" text-anchor="end" font-family="Arial" font-size="16" fill="black">-24.28</text>
<line x1="120" y1="390.00" x2="1145" y2="390.00" stroke="#dddddd" stroke-width="1"/>
<text x="104" y="395.00" text-anchor="end" font-family="Arial" font-size="16" fill="black">-15.41</text>
<line x1="120" y1="232.50" x2="1145" y2="232.50" stroke="#dddddd" stroke-width="1"/>
<text x="104" y="237.50" text-anchor="end" font-family="Arial" font-size="16" fill="black">-6.535</text>
<line x1="120" y1="75.00" x2="1145" y2="75.00" stroke="#dddddd" stroke-width="1"/>
<text x="104" y="80.00" text-anchor="end" font-family="Arial" font-size="16" fill="black">2.338</text>
<rect x="120" y="75" width="1025" height="630" fill="none" stroke="black" stroke-width="2"/>
<text x="632.5" y="785" text-anchor="middle" font-family="Arial" font-size="20" fill="black">distance along sample line [m]</text>
<text x="34" y="390.0" transform="rotate(-90 34 390.0)" text-anchor="middle" font-family="Arial" font-size="20" fill="black">p [Pa]</text>
<polyline points="190.69,118.45 193.64,119.41 196.58,120.37 199.53,121.33 202.47,122.29 205.42,123.25 208.36,124.21 211.31,125.17 214.25,126.13 217.20,127.10 220.14,128.07 223.09,129.99 226.03,131.92 228.98,133.82 231.93,135.72 234.87,137.62 237.82,139.53 240.76,141.44 243.71,143.34 246.65,145.23 249.60,147.14 252.54,149.03 255.49,150.93 258.43,152.82 261.38,154.71 264.32,156.61 267.27,158.50 270.22,160.39 273.16,162.28 276.11,164.18 279.05,166.07 282.00,167.95 284.94,169.84 287.88,171.73 290.83,173.62 293.78,175.51 296.73,177.40 299.67,179.29 302.62,181.18 305.57,183.08 308.50,184.97 311.45,186.86 314.40,188.75 317.34,190.65 320.29,192.55 323.24,194.45 326.18,196.35 329.12,198.25 332.07,200.16 335.01,202.07 337.96,203.99 340.91,205.90 343.85,207.81 346.80,209.73 349.74,211.65 352.68,213.58 355.63,215.52 358.58,217.45 361.53,219.39 364.47,221.33 367.42,223.28 370.36,225.23 373.30,227.18 376.25,229.13 379.20,231.07 382.14,233.02 385.09,234.97 388.04,236.93 390.97,238.88 393.92,240.83 396.87,242.78 399.81,244.72 402.76,246.66 405.71,248.60 408.65,250.53 411.59,252.46 414.54,254.39 417.48,256.32 420.43,258.25 423.38,260.17 426.32,262.09 429.27,264.00 432.21,265.91 435.16,267.82 438.10,269.72 441.05,271.62 444.00,273.52 446.94,275.43 449.89,277.33 452.84,279.23 455.77,281.13 458.72,283.02 461.67,284.91 464.61,286.79 467.56,288.67 470.51,290.56 473.45,292.44 476.39,294.32 479.34,296.20 482.28,298.08 485.23,299.96 488.18,301.83 491.12,303.71 494.07,305.57 497.01,307.43 499.96,309.30 502.90,311.16 505.85,313.03 508.80,314.89 511.74,316.75 514.69,318.62 517.63,320.46 520.57,322.33 523.52,324.17 526.47,326.04 529.41,327.88 532.36,329.75 535.31,331.59 538.24,333.46 541.19,335.30 544.14,337.17 547.08,339.01 550.03,340.88 552.98,342.72 555.92,344.57 558.86,346.43 561.81,348.28 564.76,350.12 567.70,351.99 570.65,353.83 573.60,355.68 576.54,357.54 579.49,359.39 582.43,361.24 585.37,363.10 588.32,364.94 591.27,366.79 594.21,368.65 597.16,370.50 600.11,372.36 603.04,374.21 605.99,376.07 608.94,377.92 611.88,379.78 614.83,381.63 617.78,383.49 620.72,385.34 623.66,387.20 626.61,389.05 629.55,390.91 632.50,392.78 635.45,394.64 638.40,396.49 641.34,398.35 644.28,400.21 647.23,402.08 650.17,403.96 653.12,405.82 656.07,407.69 659.01,409.55 661.96,411.43 664.90,413.30 667.84,415.18 670.79,417.04 673.74,418.91 676.68,420.77 679.63,422.65 682.58,424.51 685.51,426.38 688.46,428.24 691.41,430.12 694.35,431.99 697.30,433.83 700.25,435.70 703.20,437.56 706.14,439.43 709.08,441.29 712.03,443.13 714.97,445.00 717.92,446.86 720.87,448.71 723.81,450.57 726.76,452.42 729.70,454.28 732.64,456.13 735.59,457.99 738.54,459.84 741.48,461.68 744.43,463.55 747.38,465.41 750.31,467.26 753.26,469.12 756.21,470.97 759.15,472.83 762.10,474.68 765.05,476.54 767.99,478.39 770.93,480.25 773.88,482.11 776.83,483.96 779.77,485.82 782.72,487.69 785.67,489.53 788.61,491.40 791.55,493.26 794.50,495.11 797.44,496.97 800.39,498.84 803.34,500.68 806.28,502.54 809.23,504.41 812.17,506.27 815.11,508.12 818.06,509.98 821.01,511.85 823.95,513.69 826.90,515.56 829.85,517.42 832.79,519.28 835.73,521.13 838.68,522.99 841.63,524.86 844.57,526.70 847.52,528.57 850.47,530.43 853.41,532.29 856.35,534.16 859.30,536.02 862.24,537.89 865.19,539.75 868.14,541.61 871.08,543.49 874.03,545.36 876.97,547.22 879.91,549.09 882.86,550.95 885.81,552.83 888.75,554.70 891.70,556.58 894.65,558.44 897.58,560.30 900.53,562.19 903.48,564.05 906.43,565.91 909.37,567.79 912.32,569.66 915.27,571.52 918.20,573.39 921.15,575.27 924.10,577.13 927.04,579.00 929.99,580.86 932.94,582.72 935.88,584.59 938.82,586.45 941.77,588.31 944.71,590.16 947.66,592.02 950.61,593.89 953.55,595.75 956.50,597.60 959.44,599.46 962.38,601.33 965.33,603.17 968.28,605.03 971.22,606.90 974.17,608.76 977.12,610.61 980.06,612.47 983.00,614.32 985.95,616.18 988.90,618.05 991.84,619.91 994.79,621.77 997.74,623.64 1000.68,625.48 1003.62,627.31 1006.57,629.14 1009.51,630.95 1012.46,632.76 1015.41,634.55 1018.35,636.33 1021.30,638.10 1024.24,639.84 1027.18,641.62 1030.13,643.41 1033.08,645.19 1036.02,646.96 1038.97,648.75 1041.92,650.56 1044.86,652.37 1047.80,653.26 1050.75,654.17 1053.70,655.09 1056.64,656.01 1059.59,656.92 1062.54,657.84 1065.47,658.76 1068.42,659.71 1071.37,660.63 1074.31,661.55" fill="none" stroke="#000000" stroke-width="3"/>
<line x1="142" y1="100" x2="178" y2="100" stroke="#000000" stroke-width="4"/>
<text x="188" y="105" font-family="Arial" font-size="18" fill="black">p</text>
</svg>