<svg xmlns="http://www.w3.org/2000/svg" width="1200" height="820" viewBox="0 0 1200 820">
<rect width="100%" height="100%" fill="white"/>
<text x="600.0" y="36" text-anchor="middle" font-family="Arial" font-size="24" fill="black">profile_center_y: alphat</text>
<line x1="120.00" y1="75" x2="120.00" y2="705" stroke="#dddddd" stroke-width="1"/>
<text x="120.00" y="737" text-anchor="middle" font-family="Arial" font-size="16" fill="black">-0.400</text>
<line x1="376.25" y1="75" x2="376.25" y2="705" stroke="#dddddd" stroke-width="1"/>
<text x="376.25" y="737" text-anchor="middle" font-family="Arial" font-size="16" fill="black">1.050</text>
<line x1="632.50" y1="75" x2="632.50" y2="705" stroke="#dddddd" stroke-width="1"/>
<text x="632.50" y="737" text-anchor="middle" font-family="Arial" font-size="16" fill="black">2.500</text>
<line x1="888.75" y1="75" x2="888.75" y2="705" stroke="#dddddd" stroke-width="1"/>
<text x="888.75" y="737" text-anchor="middle" font-family="Arial" font-size="16" fill="black">3.950</text>
<line x1="1145.00" y1="75" x2="1145.00" y2="705" stroke="#dddddd" stroke-width="1"/>
<text x="1145.00" y="737" text-anchor="middle" font-family="Arial" font-size="16" fill="black">5.400</text>
<line x1="120" y1="705.00" x2="1145" y2="705.00" stroke="#dddddd" stroke-width="1"/>
<text x="104" y="710.00" text-anchor="end" font-family="Arial" font-size="16" fill="black">-8.50e-04</text>
<line x1="120" y1="547.50" x2="1145" y2="547.50" stroke="#dddddd" stroke-width="1"/>
<text x="104" y="552.50" text-anchor="end" font-family="Arial" font-size="16" fill="black">0.005</text>
<line x1="120" y1="390.00" x2="1145" y2="390.00" stroke="#dddddd" stroke-width="1"/>
<text x="104" y="395.00" text-anchor="end" font-family="Arial" font-size="16" fill="black">0.012</text>
<line x1="120" y1="232.50" x2="1145" y2="232.50" stroke="#dddddd" stroke-width="1"/>
<text x="104" y="237.50" text-anchor="end" font-family="Arial" font-size="16" fill="black">0.018</text>
<line x1="120" y1="75.00" x2="1145" y2="75.00" stroke="#dddddd" stroke-width="1"/>
<text x="104" y="80.00" text-anchor="end" font-family="Arial" font-size="16" fill="black">0.024</text>
<rect x="120" y="75" width="1025" height="630" fill="none" stroke="black" stroke-width="2"/>
<text x="632.5" y="785" text-anchor="middle" font-family="Arial" font-size="20" fill="black">y coordinate [m]</text>
<text x="34" y="390.0" transform="rotate(-90 34 390.0)" text-anchor="middle" font-family="Arial" font-size="20" fill="black">alphat [SI]</text>
<polyline points="190.69,661.55 193.64,653.97 196.58,646.39 199.53,638.80 202.47,631.22 205.42,623.64 208.36,616.06 211.31,604.19 214.25,592.32 217.20,580.44 220.14,568.57 223.09,556.70 226.03,544.83 228.98,537.44 231.92,530.04 234.87,522.65 237.82,515.26 240.76,507.87 243.71,500.47 246.65,494.71 249.60,488.94 252.54,483.17 255.49,477.41 258.43,471.64 261.38,465.87 264.33,460.74 267.27,455.61 270.22,450.47 273.16,445.34 276.11,440.21 279.05,435.08 282.00,430.01 284.94,424.92 287.89,419.85 290.83,414.78 293.78,409.72 296.72,404.63 299.67,398.98 302.61,393.31 305.56,387.67 308.51,382.02 311.45,376.35 314.40,370.71 317.34,364.21 320.29,357.72 323.23,351.22 326.18,344.72 329.12,338.22 332.07,331.75 335.01,324.98 337.96,318.18 340.91,311.41 343.85,304.63 346.80,297.86 349.74,291.09 352.69,285.22 355.63,279.35 358.58,273.48 361.52,267.61 364.47,261.74 367.41,255.87 370.37,251.60 373.30,247.34 376.25,243.05 379.20,238.78 382.13,234.49 385.09,230.23 388.04,227.55 390.97,224.89 393.92,222.20 396.87,219.54 399.81,216.86 402.76,214.20 405.71,213.05 408.64,211.89 411.59,210.74 414.55,209.61 417.48,208.46 420.43,207.30 423.38,207.43 426.32,207.53 429.27,207.65 432.22,207.75 435.15,207.88 438.10,208.00 441.05,208.93 443.99,209.89 446.94,210.81 449.89,211.77 452.82,212.69 455.78,213.65 458.73,214.93 461.66,216.21 464.61,217.49 467.56,218.79 470.50,220.07 473.45,221.35 476.40,222.58 479.33,223.81 482.28,225.04 485.24,226.27 488.17,227.50 491.12,228.72 494.07,229.60 497.01,230.48 499.96,231.33 502.91,232.21 505.84,233.06 508.79,233.94 511.74,234.19 514.68,234.47 517.63,234.72 520.58,234.97 523.51,235.25 526.47,235.50 529.42,234.90 532.35,234.32 535.30,233.72 538.25,233.11 541.19,232.51 544.14,231.94 547.09,230.53 550.02,229.15 552.97,227.75 555.93,226.37 558.86,224.99 561.81,223.58 564.76,221.70 567.70,219.82 570.65,217.96 573.60,216.08 576.53,214.20 579.48,212.32 582.43,210.21 585.37,208.10 588.32,206.00 591.27,203.89 594.20,201.78 597.16,199.65 600.11,197.54 603.04,195.44 605.99,193.33 608.94,191.22 611.88,189.11 614.83,187.01 617.78,185.03 620.71,183.07 623.66,181.11 626.62,179.13 629.55,177.17 632.50,175.19 635.45,173.41 638.38,171.65 641.34,169.87 644.29,168.09 647.22,166.34 650.17,164.56 653.12,163.00 656.06,161.42 659.01,159.86 661.96,158.31 664.89,156.73 667.84,155.17 670.80,153.84 673.73,152.51 676.68,151.19 679.63,149.86 682.57,148.53 685.52,147.20 688.47,146.14 691.40,145.06 694.35,144.01 697.30,142.93 700.24,141.88 703.19,140.80 706.14,140.07 709.07,139.34 712.03,138.62 714.98,137.89 717.91,137.16 720.86,136.43 723.81,135.91 726.75,135.36 729.70,134.80 732.65,134.25 735.58,133.73 738.53,133.17 741.49,132.62 744.42,132.04 747.37,131.49 750.32,130.92 753.26,130.36 756.21,129.79 759.16,129.24 762.09,128.66 765.04,128.11 767.99,127.53 770.93,126.98 773.88,126.40 776.83,125.87 779.76,125.35 782.72,124.82 785.67,124.29 788.60,123.77 791.55,123.24 794.50,122.79 797.44,122.34 800.39,121.89 803.34,121.46 806.27,121.01 809.22,120.56 812.18,120.25 815.11,119.95 818.06,119.63 821.01,119.33 823.95,119.03 826.90,118.72 829.85,118.67 832.78,118.62 835.73,118.57 838.68,118.52 841.62,118.47 844.57,118.45 847.52,118.85 850.45,119.25 853.41,119.65 856.36,120.05 859.29,120.46 862.24,120.86 865.19,121.99 868.13,123.09 871.08,124.19 874.03,125.30 876.96,126.40 879.91,127.50 882.87,129.66 885.80,131.82 888.75,133.98 891.70,136.13 894.63,138.29 897.59,140.45 900.54,144.34 903.47,148.22 906.42,152.14 909.37,156.03 912.31,159.91 915.26,163.80 918.21,169.87 921.14,175.94 924.09,182.04 927.05,188.11 929.98,194.18 932.93,200.25 935.88,207.93 938.82,215.60 941.77,223.26 944.72,230.93 947.65,238.61 950.60,246.26 953.55,253.81 956.49,261.39 959.44,268.94 962.39,276.49 965.32,284.04 968.28,291.59 971.23,297.53 974.16,303.45 977.11,309.40 980.06,315.32 983.00,321.27 985.95,327.19 988.90,332.08 991.83,336.97 994.78,341.84 997.74,346.73 1000.67,351.59 1003.62,356.49 1006.57,362.71 1009.51,368.93 1012.46,375.12 1015.41,381.35 1018.34,387.57 1021.29,393.79 1024.24,404.88 1027.18,415.96 1030.13,427.05 1033.08,438.14 1036.01,449.23 1038.97,460.32 1041.92,479.73 1044.85,499.15 1047.80,518.56 1050.75,537.98 1053.69,557.39 1056.64,576.81 1059.59,588.94 1062.52,601.07 1065.47,613.19 1068.43,625.32 1071.36,637.45 1074.31,649.58" fill="none" stroke="#000000" stroke-width="3"/>
<line x1="142" y1="100" x2="178" y2="100" stroke="#000000" stroke-width="4"/>
<text x="188" y="105" font-family="Arial" font-size="18" fill="black">alphat</text>
</svg>