<svg xmlns="http://www.w3.org/2000/svg" width="1200" height="820" viewBox="0 0 1200 820">
<rect width="100%" height="100%" fill="white"/>
<text x="600.0" y="36" text-anchor="middle" font-family="Arial" font-size="24" fill="black">profile_diagonal_supply_return: U, V, W components</text>
<line x1="120.00" y1="75" x2="120.00" y2="705" stroke="#dddddd" stroke-width="1"/>
<text x="120.00" y="737" text-anchor="middle" font-family="Arial" font-size="16" fill="black">-0.729</text>
<line x1="376.25" y1="75" x2="376.25" y2="705" stroke="#dddddd" stroke-width="1"/>
<text x="376.25" y="737" text-anchor="middle" font-family="Arial" font-size="16" fill="black">1.913</text>
<line x1="632.50" y1="75" x2="632.50" y2="705" stroke="#dddddd" stroke-width="1"/>
<text x="632.50" y="737" text-anchor="middle" font-family="Arial" font-size="16" fill="black">4.555</text>
<line x1="888.75" y1="75" x2="888.75" y2="705" stroke="#dddddd" stroke-width="1"/>
<text x="888.75" y="737" text-anchor="middle" font-family="Arial" font-size="16" fill="black">7.197</text>
<line x1="1145.00" y1="75" x2="1145.00" y2="705" stroke="#dddddd" stroke-width="1"/>
<text x="1145.00" y="737" text-anchor="middle" font-family="Arial" font-size="16" fill="black">9.839</text>
<line x1="120" y1="705.00" x2="1145" y2="705.00" stroke="#dddddd" stroke-width="1"/>
<text x="104" y="710.00" text-anchor="end" font-family="Arial" font-size="16" fill="black">-0.316</text>
<line x1="120" y1="547.50" x2="1145" y2="547.50" stroke="#dddddd" stroke-width="1"/>
<text x="104" y="552.50" text-anchor="end" font-family="Arial" font-size="16" fill="black">-0.123</text>
<line x1="120" y1="390.00" x2="1145" y2="390.00" stroke="#dddddd" stroke-width="1"/>
<text x="104" y="395.00" text-anchor="end" font-family="Arial" font-size="16" fill="black">0.070</text>
<line x1="120" y1="232.50" x2="1145" y2="232.50" stroke="#dddddd" stroke-width="1"/>
<text x="104" y="237.50" text-anchor="end" font-family="Arial" font-size="16" fill="black">0.263</text>
<line x1="120" y1="75.00" x2="1145" y2="75.00" stroke="#dddddd" stroke-width="1"/>
<text x="104" y="80.00" text-anchor="end" font-family="Arial" font-size="16" fill="black">0.456</text>
<rect x="120" y="75" width="1025" height="630" fill="none" stroke="black" stroke-width="2"/>
<text x="632.5" y="785" text-anchor="middle" font-family="Arial" font-size="20" fill="black">distance along sample line [m]</text>
<text x="34" y="390.0" transform="rotate(-90 34 390.0)" text-anchor="middle" font-family="Arial" font-size="20" fill="black">velocity component [m/s]</text>
<polyline points="190.69,434.71 193.64,432.16 196.58,429.39 199.53,426.42 202.47,423.26 205.42,417.77 208.36,411.21 211.31,403.26 214.25,394.84 217.20,385.97 220.14,376.84 223.09,368.08 226.03,359.31 228.98,352.40 231.93,346.91 234.87,341.32 237.82,335.59 240.76,329.71 243.71,325.03 246.65,321.40 249.60,317.63 252.54,313.54 255.49,310.12 258.43,307.20 261.38,304.18 264.32,301.77 267.27,299.56 270.22,298.03 273.16,296.40 276.11,294.65 279.05,292.79 282.00,291.99 284.94,291.11 287.88,290.13 290.83,289.07 293.78,288.43 296.73,287.89 299.67,287.52 302.62,287.04 305.57,286.65 308.50,286.39 311.45,285.88 314.40,285.27 317.34,284.57 320.29,283.98 323.24,283.22 326.18,282.28 329.12,281.17 332.07,280.02 335.01,278.36 337.96,276.41 340.91,274.58 343.85,272.76 346.80,270.91 349.74,268.88 352.68,266.22 355.63,263.53 358.58,261.06 361.53,258.37 364.47,255.45 367.42,252.28 370.36,250.53 373.30,248.68 376.25,246.74 379.20,244.69 382.14,243.68 385.09,243.02 388.04,241.76 390.97,240.41 393.92,239.74 396.87,240.04 399.81,241.33 402.76,242.58 405.71,243.40 408.65,245.59 411.59,247.73 414.54,249.81 417.48,251.84 420.43,254.85 423.38,257.22 426.32,259.54 429.27,262.74 432.21,266.17 435.16,269.77 438.10,273.29 441.05,275.98 444.00,278.59 446.94,281.13 449.89,283.62 452.84,286.09 455.77,288.54 458.72,290.69 461.67,292.76 464.61,294.77 467.56,296.71 470.51,298.15 473.45,299.41 476.39,300.21 479.34,300.97 482.28,301.40 485.23,301.48 488.18,302.28 491.12,303.07 494.07,303.44 497.01,303.30 499.96,303.18 502.90,303.08 505.85,303.01 508.80,302.68 511.74,302.19 514.69,301.73 517.63,301.88 520.57,301.90 523.52,301.89 526.47,301.93 529.41,301.94 532.36,301.94 535.31,301.98 538.24,302.11 541.19,302.33 544.14,302.64 547.08,303.60 550.03,304.59 552.98,305.63 555.92,306.72 558.86,308.04 561.81,309.54 564.76,311.41 567.70,313.36 570.65,315.53 573.60,318.01 576.54,320.91 579.49,323.95 582.43,327.54 585.37,331.51 588.32,335.68 591.27,340.05 594.21,344.63 597.16,349.58 600.11,355.31 603.04,361.27 605.99,367.75 608.94,374.52 611.88,381.60 614.83,388.92 617.78,396.90 620.72,405.10 623.66,413.54 626.61,422.16 629.55,430.94 632.50,439.88 635.45,449.11 638.40,458.27 641.34,467.37 644.28,476.38 647.23,484.98 650.17,493.31 653.12,501.19 656.07,508.88 659.01,516.11 661.96,522.80 664.90,529.15 667.84,535.26 670.79,540.60 673.74,545.16 676.68,549.50 679.63,553.62 682.58,557.52 685.51,560.68 688.46,563.14 691.41,565.41 694.35,567.13 697.30,568.31 700.25,569.06 703.20,569.65 706.14,569.81 709.08,569.67 712.03,568.98 714.97,568.16 717.92,567.24 720.87,566.21 723.81,564.16 726.76,562.10 729.70,560.05 732.64,558.00 735.59,555.54 738.54,552.94 741.48,550.52 744.43,548.16 747.38,545.65 750.31,542.92 753.26,540.20 756.21,537.61 759.15,535.30 762.10,532.79 765.05,530.42 767.99,528.20 770.93,526.12 773.88,523.97 776.83,522.03 779.77,520.23 782.72,518.57 785.67,517.00 788.61,515.53 791.55,514.20 794.50,512.86 797.44,511.64 800.39,510.56 803.34,509.56 806.28,508.64 809.23,507.81 812.17,506.78 815.11,505.79 818.06,504.84 821.01,503.94 823.95,503.16 826.90,502.43 829.85,501.30 832.79,500.20 835.73,499.13 838.68,498.06 841.63,497.03 844.57,496.05 847.52,494.99 850.47,493.90 853.41,492.95 856.35,492.15 859.30,491.50 862.24,490.98 865.19,490.86 868.14,490.98 871.08,491.35 874.03,492.07 876.97,493.11 879.91,494.44 882.86,496.44 885.81,498.82 888.75,501.64 891.70,504.77 894.65,508.24 897.58,512.07 900.53,515.89 903.48,519.94 906.43,524.23 909.37,528.81 912.32,533.57 915.27,538.55 918.20,543.46 921.15,548.64 924.10,553.96 927.04,559.33 929.99,563.70 932.94,568.30 935.88,572.63 938.82,576.88 941.77,581.38 944.71,586.14 947.66,591.20 950.61,596.09 953.55,600.54 956.50,605.22 959.44,608.46 962.38,611.75 965.33,615.15 968.28,619.01 971.22,622.47 974.17,626.04 977.12,629.30 980.06,632.88 983.00,636.78 985.95,641.00 988.90,642.47 991.84,644.71 994.79,647.73 997.74,651.56 1000.68,654.23 1003.62,656.59 1006.57,658.67 1009.51,660.97 1012.46,661.55 1015.41,659.25 1018.35,658.04 1021.30,655.93 1024.24,651.42 1027.18,643.59 1030.13,634.29 1033.08,623.46 1036.02,611.09 1038.97,599.95 1041.92,587.98 1044.86,575.37 1047.80,561.74 1050.75,549.24 1053.70,537.60 1056.64,525.68 1059.59,512.93 1062.54,502.17 1065.47,496.64 1068.42,491.08 1071.37,485.49 1074.31,479.87" fill="none" stroke="#000000" stroke-width="3"/>
<line x1="142" y1="100" x2="178" y2="100" stroke="#000000" stroke-width="4"/>
<text x="188" y="105" font-family="Arial" font-size="18" fill="black">Ux / u</text>
<polyline points="190.69,549.25 193.64,552.67 196.58,555.65 199.53,558.21 202.47,560.32 205.42,562.29 208.36,564.03 211.31,567.98 214.25,571.70 217.20,574.58 220.14,576.62 223.09,576.18 226.03,575.28 228.98,573.16 231.93,570.53 234.87,567.88 237.82,565.23 240.76,562.60 243.71,559.70 246.65,556.30 249.60,553.24 252.54,553.22 255.49,552.84 258.43,552.30 261.38,551.83 264.32,552.31 267.27,552.75 270.22,553.02 273.16,553.48 276.11,554.14 279.05,555.02 282.00,557.05 284.94,559.05 287.88,561.00 290.83,562.92 293.78,564.46 296.73,565.84 299.67,567.54 302.62,569.18 305.57,570.62 308.50,571.77 311.45,573.20 314.40,574.46 317.34,575.70 320.29,576.53 323.24,577.20 326.18,577.68 329.12,577.97 332.07,577.91 335.01,577.82 337.96,577.57 340.91,577.22 343.85,576.45 346.80,575.32 349.74,573.96 352.68,572.67 355.63,571.07 358.58,569.10 361.53,566.96 364.47,564.67 367.42,562.22 370.36,559.93 373.30,557.50 376.25,554.92 379.20,552.19 382.14,549.35 385.09,546.42 388.04,543.94 390.97,541.34 393.92,538.58 396.87,535.67 399.81,532.67 402.76,529.60 405.71,526.80 408.65,523.48 411.59,520.10 414.54,516.67 417.48,513.20 420.43,508.93 423.38,504.84 426.32,500.75 429.27,496.57 432.21,491.74 435.16,486.46 438.10,481.20 441.05,476.15 444.00,470.77 446.94,464.63 449.89,458.59 452.84,452.64 455.77,446.79 458.72,439.91 461.67,433.17 464.61,426.59 467.56,420.14 470.51,413.00 473.45,405.76 476.39,398.96 479.34,392.40 482.28,385.65 485.23,378.66 488.18,372.17 491.12,365.99 494.07,360.24 497.01,354.38 499.96,348.88 502.90,343.75 505.85,338.97 508.80,334.56 511.74,330.58 514.69,326.95 517.63,324.23 520.57,322.02 523.52,320.24 526.47,318.78 529.41,317.48 532.36,316.54 535.31,316.09 538.24,315.86 541.19,315.83 544.14,315.99 547.08,316.98 550.03,318.03 552.98,319.11 555.92,320.23 558.86,321.30 561.81,322.34 564.76,323.15 567.70,323.92 570.65,324.53 573.60,324.87 576.54,325.65 579.49,326.30 582.43,326.68 585.37,326.56 588.32,326.35 591.27,326.05 594.21,325.65 597.16,324.87 600.11,323.96 603.04,322.99 605.99,322.21 608.94,321.33 611.88,320.36 614.83,319.31 617.78,318.23 620.72,317.19 623.66,316.33 626.61,315.43 629.55,314.52 632.50,313.58 635.45,313.45 638.40,313.35 641.34,313.28 644.28,313.28 647.23,313.76 650.17,314.49 653.12,315.46 656.07,316.53 659.01,317.83 661.96,319.40 664.90,321.13 667.84,322.98 670.79,325.01 673.74,327.01 676.68,329.08 679.63,331.23 682.58,333.45 685.51,335.35 688.46,337.37 691.41,339.45 694.35,341.55 697.30,343.33 700.25,344.87 703.20,346.45 706.14,348.37 709.08,350.15 712.03,351.50 714.97,352.92 717.92,354.41 720.87,355.97 723.81,357.22 726.76,358.56 729.70,359.99 732.64,361.51 735.59,362.75 738.54,363.95 741.48,365.58 744.43,367.28 747.38,368.91 750.31,370.44 753.26,371.86 756.21,373.38 759.15,375.12 762.10,376.74 765.05,378.44 767.99,380.19 770.93,382.00 773.88,383.81 776.83,385.60 779.77,387.42 782.72,389.01 785.67,390.66 788.61,392.37 791.55,394.09 794.50,395.57 797.44,397.09 800.39,398.74 803.34,400.38 806.28,401.99 809.23,403.58 812.17,404.78 815.11,405.94 818.06,407.06 821.01,408.14 823.95,409.49 826.90,410.91 829.85,411.72 832.79,412.46 835.73,413.34 838.68,414.39 841.63,415.10 844.57,415.72 847.52,415.78 850.47,416.10 853.41,416.28 856.35,416.34 859.30,416.27 862.24,416.37 865.19,415.95 868.14,415.34 871.08,414.32 874.03,413.31 876.97,412.24 879.91,411.02 882.86,409.68 885.81,408.28 888.75,406.94 891.70,405.48 894.65,403.92 897.58,402.27 900.53,401.15 903.48,400.00 906.43,398.85 909.37,397.69 912.32,396.74 915.27,395.88 918.20,395.66 921.15,395.37 924.10,395.13 927.04,394.92 929.99,393.86 932.94,392.76 935.88,392.05 938.82,391.27 941.77,390.35 944.71,389.30 947.66,388.13 950.61,386.75 953.55,385.76 956.50,384.55 959.44,381.94 962.38,379.12 965.33,376.14 968.28,373.09 971.22,371.27 974.17,369.26 977.12,367.01 980.06,364.65 983.00,362.16 985.95,359.53 988.90,358.28 991.84,357.40 994.79,356.87 997.74,356.66 1000.68,356.88 1003.62,357.51 1006.57,361.18 1009.51,364.84 1012.46,368.07 1015.41,370.63 1018.35,373.32 1021.30,375.70 1024.24,379.27 1027.18,380.87 1030.13,381.64 1033.08,381.52 1036.02,380.43 1038.97,378.24 1041.92,376.95 1044.86,375.48 1047.80,374.13 1050.75,372.54 1053.70,370.96 1056.64,369.47 1059.59,368.99 1062.54,368.61 1065.47,368.13 1068.42,367.73 1071.37,367.40 1074.31,367.14" fill="none" stroke="#555555" stroke-width="3" stroke-dasharray="9 5"/>
<line x1="142" y1="128" x2="178" y2="128" stroke="#555555" stroke-width="4" stroke-dasharray="9 5"/>
<text x="188" y="133" font-family="Arial" font-size="18" fill="black">Uy / v</text>
<polyline points="190.69,398.11 193.64,398.23 196.58,398.54 199.53,399.03 202.47,399.69 205.42,399.75 208.36,399.56 211.31,402.35 214.25,405.21 217.20,408.20 220.14,411.39 223.09,414.97 226.03,418.66 228.98,418.82 231.93,419.29 234.87,419.57 237.82,419.63 240.76,419.40 243.71,419.72 246.65,416.51 249.60,413.17 252.54,411.30 255.49,409.48 258.43,407.62 261.38,405.48 264.32,401.31 267.27,397.06 270.22,392.94 273.16,388.68 276.11,384.31 279.05,379.89 282.00,375.26 284.94,370.42 287.88,365.38 290.83,360.21 293.78,354.96 296.73,349.61 299.67,343.67 302.62,337.61 305.57,331.40 308.50,325.01 311.45,319.14 314.40,313.21 317.34,306.77 320.29,300.06 323.24,293.25 326.18,286.34 329.12,279.34 332.07,272.18 335.01,264.44 337.96,256.54 340.91,249.29 343.85,242.12 346.80,235.02 349.74,227.83 352.68,220.06 355.63,212.42 358.58,205.35 361.53,198.13 364.47,190.72 367.42,183.09 370.36,178.49 373.30,173.64 376.25,168.54 379.20,163.17 382.14,158.85 385.09,154.76 388.04,152.10 390.97,149.12 393.92,146.70 396.87,145.17 399.81,144.34 402.76,143.20 405.71,143.91 408.65,146.75 411.59,149.31 414.54,151.58 417.48,153.60 420.43,157.88 423.38,163.79 426.32,169.45 429.27,175.78 432.21,183.02 435.16,190.89 438.10,198.57 441.05,207.00 444.00,215.57 446.94,224.96 449.89,234.11 452.84,243.05 455.77,251.80 458.72,262.94 461.67,273.74 464.61,284.23 467.56,294.40 470.51,304.86 473.45,315.28 476.39,326.10 479.34,336.58 482.28,346.83 485.23,356.88 488.18,367.06 491.12,376.85 494.07,386.82 497.01,395.91 499.96,404.61 502.90,412.92 505.85,420.84 508.80,427.36 511.74,434.00 514.69,440.34 517.63,446.55 520.57,451.47 523.52,455.44 526.47,459.19 529.41,463.31 532.36,466.66 535.31,468.50 538.24,470.27 541.19,471.98 544.14,473.62 547.08,473.60 550.03,473.61 552.98,473.63 555.92,473.66 558.86,471.77 561.81,469.23 564.76,467.04 567.70,464.94 570.65,461.61 573.60,456.74 576.54,452.33 579.49,448.10 582.43,443.40 585.37,436.45 588.32,429.71 591.27,423.18 594.21,416.83 597.16,409.10 600.11,400.80 603.04,392.74 605.99,385.07 608.94,377.63 611.88,370.52 614.83,363.74 617.78,356.64 620.72,350.61 623.66,346.81 626.61,343.47 629.55,340.62 632.50,338.27 635.45,339.77 638.40,341.64 641.34,343.91 644.28,346.59 647.23,351.65 650.17,357.71 653.12,362.69 656.07,367.77 659.01,373.24 661.96,379.09 664.90,384.96 667.84,390.79 670.79,395.16 673.74,398.90 676.68,402.67 679.63,406.49 682.58,410.34 685.51,413.15 688.46,414.92 691.41,416.90 694.35,419.14 697.30,420.80 700.25,422.07 703.20,423.56 706.14,424.65 709.08,425.66 712.03,425.96 714.97,426.50 717.92,427.27 720.87,428.25 723.81,427.84 726.76,427.61 729.70,427.54 732.64,427.64 735.59,427.12 738.54,426.38 741.48,425.26 744.43,424.20 747.38,422.74 750.31,420.65 753.26,418.66 756.21,416.65 759.15,413.99 762.10,410.25 765.05,406.35 767.99,402.30 770.93,398.08 773.88,392.50 776.83,386.16 779.77,379.54 782.72,372.98 785.67,365.26 788.61,356.51 791.55,347.41 794.50,338.26 797.44,328.33 800.39,316.80 803.34,304.96 806.28,292.81 809.23,280.36 812.17,267.65 815.11,254.85 818.06,241.99 821.01,229.05 823.95,215.14 826.90,200.86 829.85,189.21 832.79,177.82 835.73,166.63 838.68,155.69 841.63,145.57 844.57,135.83 847.52,130.02 850.47,126.31 853.41,123.14 856.35,120.52 859.30,118.45 862.24,119.74 865.19,124.86 868.14,130.38 871.08,136.49 874.03,144.78 876.97,154.62 879.91,164.59 882.86,176.26 885.81,188.55 888.75,202.22 891.70,215.60 894.65,228.72 897.58,241.59 900.53,254.34 903.48,266.42 906.43,277.86 909.37,288.69 912.32,298.94 915.27,308.47 918.20,315.97 921.15,322.84 924.10,328.90 927.04,334.07 929.99,338.37 932.94,342.12 935.88,344.14 938.82,345.29 941.77,346.01 944.71,346.32 947.66,346.25 950.61,345.70 953.55,343.60 956.50,341.09 959.44,338.08 962.38,334.98 965.33,331.76 968.28,328.28 971.22,323.29 974.17,318.09 977.12,313.05 980.06,307.52 983.00,301.51 985.95,294.99 988.90,289.28 991.84,283.30 994.79,277.04 997.74,270.50 1000.68,265.54 1003.62,261.57 1006.57,261.13 1009.51,261.66 1012.46,263.24 1015.41,265.81 1018.35,269.73 1021.30,275.83 1024.24,288.84 1027.18,297.96 1030.13,307.44 1033.08,317.29 1036.02,327.54 1038.97,336.77 1041.92,354.52 1044.86,371.03 1047.80,384.46 1050.75,397.14 1053.70,408.86 1056.64,419.53 1059.59,427.04 1062.54,433.57 1065.47,438.94 1068.42,443.64 1071.37,447.69 1074.31,451.08" fill="none" stroke="#999999" stroke-width="3" stroke-dasharray="3 4"/>
<line x1="142" y1="156" x2="178" y2="156" stroke="#999999" stroke-width="4" stroke-dasharray="3 4"/>
<text x="188" y="161" font-family="Arial" font-size="18" fill="black">Uz / w</text>
</svg>