<svg xmlns="http://www.w3.org/2000/svg" width="1200" height="820" viewBox="0 0 1200 820">
<rect width="100%" height="100%" fill="white"/>
<text x="600.0" y="36" text-anchor="middle" font-family="Arial" font-size="24" fill="black">profile_center_x: U:1</text>
<line x1="120.00" y1="75" x2="120.00" y2="705" stroke="#dddddd" stroke-width="1"/>
<text x="120.00" y="737" text-anchor="middle" font-family="Arial" font-size="16" fill="black">-0.560</text>
<line x1="376.25" y1="75" x2="376.25" y2="705" stroke="#dddddd" stroke-width="1"/>
<text x="376.25" y="737" text-anchor="middle" font-family="Arial" font-size="16" fill="black">1.470</text>
<line x1="632.50" y1="75" x2="632.50" y2="705" stroke="#dddddd" stroke-width="1"/>
<text x="632.50" y="737" text-anchor="middle" font-family="Arial" font-size="16" fill="black">3.500</text>
<line x1="888.75" y1="75" x2="888.75" y2="705" stroke="#dddddd" stroke-width="1"/>
<text x="888.75" y="737" text-anchor="middle" font-family="Arial" font-size="16" fill="black">5.530</text>
<line x1="1145.00" y1="75" x2="1145.00" y2="705" stroke="#dddddd" stroke-width="1"/>
<text x="1145.00" y="737" text-anchor="middle" font-family="Arial" font-size="16" fill="black">7.560</text>
<line x1="120" y1="705.00" x2="1145" y2="705.00" stroke="#dddddd" stroke-width="1"/>
<text x="104" y="710.00" text-anchor="end" font-family="Arial" font-size="16" fill="black">-0.271</text>
<line x1="120" y1="547.50" x2="1145" y2="547.50" stroke="#dddddd" stroke-width="1"/>
<text x="104" y="552.50" text-anchor="end" font-family="Arial" font-size="16" fill="black">-0.127</text>
<line x1="120" y1="390.00" x2="1145" y2="390.00" stroke="#dddddd" stroke-width="1"/>
<text x="104" y="395.00" text-anchor="end" font-family="Arial" font-size="16" fill="black">0.017</text>
<line x1="120" y1="232.50" x2="1145" y2="232.50" stroke="#dddddd" stroke-width="1"/>
<text x="104" y="237.50" text-anchor="end" font-family="Arial" font-size="16" fill="black">0.161</text>
<line x1="120" y1="75.00" x2="1145" y2="75.00" stroke="#dddddd" stroke-width="1"/>
<text x="104" y="80.00" text-anchor="end" font-family="Arial" font-size="16" fill="black">0.306</text>
<rect x="120" y="75" width="1025" height="630" fill="none" stroke="black" stroke-width="2"/>
<text x="632.5" y="785" text-anchor="middle" font-family="Arial" font-size="20" fill="black">x coordinate [m]</text>
<text x="34" y="390.0" transform="rotate(-90 34 390.0)" text-anchor="middle" font-family="Arial" font-size="20" fill="black">U:1 [SI]</text>
<polyline points="190.69,324.63 193.64,329.37 196.58,334.10 199.53,338.83 202.47,343.57 205.42,351.72 208.36,361.25 211.31,370.78 214.25,380.31 217.20,389.94 220.14,399.70 223.09,409.47 226.03,419.23 228.98,429.06 231.93,439.26 234.87,449.46 237.82,459.66 240.76,469.87 243.71,480.42 246.65,491.03 249.60,501.64 252.54,512.26 255.49,522.85 258.43,533.44 261.38,544.02 264.32,554.61 267.27,564.95 270.22,574.66 273.16,584.37 276.11,594.08 279.05,603.80 282.00,611.50 284.94,619.19 287.89,626.89 290.83,634.59 293.78,640.10 296.72,644.75 299.67,649.38 302.62,654.03 305.56,657.19 308.51,658.39 311.45,659.59 314.40,660.80 317.34,661.55 320.29,659.61 323.23,657.66 326.17,655.70 329.13,653.76 332.07,649.64 335.01,645.18 337.96,640.71 340.91,636.24 343.85,630.72 346.80,624.43 349.74,618.13 352.68,611.83 355.64,605.19 358.58,597.62 361.52,590.07 364.47,582.51 367.41,574.94 370.35,566.51 373.31,558.08 376.25,549.65 379.19,541.22 382.15,532.38 385.09,523.38 388.03,514.38 390.98,505.38 393.92,496.26 396.86,486.99 399.82,477.71 402.76,468.44 405.70,459.18 408.65,450.02 411.59,440.86 414.54,431.70 417.49,422.54 420.43,413.89 423.37,405.33 426.33,396.77 429.27,388.21 432.21,380.23 435.16,372.68 438.10,365.14 441.04,357.59 444.00,350.40 446.94,344.07 449.88,337.75 452.83,331.42 455.78,325.10 458.72,320.03 461.67,314.96 464.61,309.89 467.55,304.82 470.51,300.59 473.45,296.71 476.39,292.81 479.34,288.92 482.28,285.49 485.23,282.66 488.18,279.82 491.12,276.99 494.06,274.30 497.02,272.38 499.96,270.46 502.90,268.55 505.85,266.64 508.79,265.37 511.73,264.20 514.69,263.04 517.63,261.87 520.57,261.02 523.52,260.39 526.47,259.77 529.41,259.15 532.36,258.62 535.30,258.29 538.24,257.98 541.20,257.66 544.14,257.34 547.08,257.07 550.03,256.80 552.97,256.52 555.92,256.24 558.87,255.83 561.81,255.37 564.75,254.92 567.71,254.46 570.65,253.84 573.59,253.02 576.54,252.22 579.48,251.39 582.42,250.52 585.38,249.31 588.32,248.09 591.26,246.87 594.21,245.65 597.16,244.23 600.10,242.78 603.05,241.32 605.99,239.87 608.93,238.48 611.89,237.14 614.83,235.79 617.77,234.45 620.72,233.26 623.66,232.44 626.60,231.60 629.56,230.78 632.50,229.96 635.44,229.92 638.40,229.88 641.34,229.84 644.28,229.80 647.23,230.29 650.17,231.00 653.11,231.71 656.07,232.42 659.01,233.32 661.95,234.47 664.90,235.62 667.84,236.78 670.79,237.92 673.74,239.09 676.68,240.28 679.62,241.45 682.58,242.63 685.52,243.50 688.46,244.33 691.41,245.16 694.35,245.98 697.29,246.45 700.25,246.65 703.19,246.85 706.13,247.05 709.08,247.01 712.03,246.39 714.97,245.76 717.92,245.14 720.86,244.52 723.80,242.99 726.76,241.46 729.70,239.91 732.64,238.38 735.59,236.20 738.53,233.75 741.48,231.31 744.43,228.86 747.37,226.05 750.31,222.76 753.27,219.46 756.21,216.17 759.15,212.77 762.10,208.77 765.04,204.78 767.98,200.79 770.94,196.80 773.88,192.43 776.82,187.99 779.77,183.56 782.72,179.12 785.66,174.64 788.61,170.12 791.55,165.61 794.49,161.09 797.45,156.68 800.39,152.54 803.33,148.41 806.28,144.27 809.22,140.13 812.17,136.89 815.12,133.66 818.06,130.43 821.00,127.20 823.96,124.96 826.90,123.15 829.84,121.32 832.79,119.51 835.73,118.46 838.67,118.46 841.63,118.46 844.57,118.45 847.51,118.73 850.46,120.76 853.41,122.78 856.35,124.80 859.30,126.82 862.24,130.56 865.18,134.59 868.14,138.61 871.08,142.63 874.02,147.69 876.97,153.51 879.91,159.33 882.85,165.16 885.81,171.39 888.75,178.66 891.69,185.93 894.65,193.20 897.59,200.48 900.53,208.77 903.48,217.06 906.42,225.35 909.36,233.64 912.32,242.30 915.26,251.10 918.20,259.90 921.15,268.70 924.09,277.51 927.04,286.29 929.99,295.07 932.93,303.85 935.87,312.55 938.83,320.81 941.77,329.06 944.71,337.31 947.66,345.56 950.60,352.98 953.54,360.26 956.50,367.54 959.44,374.82 962.38,381.36 965.33,387.35 968.28,393.34 971.22,399.33 974.17,404.90 977.11,409.45 980.05,413.99 983.01,418.54 985.95,423.08 988.89,426.21 991.84,429.34 994.78,432.47 997.73,435.61 1000.68,437.85 1003.62,439.74 1006.56,441.62 1009.52,443.51 1012.46,444.97 1015.40,445.84 1018.35,446.72 1021.29,447.60 1024.23,448.36 1027.19,448.44 1030.13,448.52 1033.07,448.60 1036.02,448.69 1038.97,448.17 1041.91,447.55 1044.86,446.93 1047.80,446.32 1050.74,445.19 1053.70,443.69 1056.64,442.18 1059.58,440.67 1062.53,439.31 1065.47,438.28 1068.42,437.26 1071.37,436.24 1074.31,435.21" fill="none" stroke="#000000" stroke-width="3"/>
<line x1="142" y1="100" x2="178" y2="100" stroke="#000000" stroke-width="4"/>
<text x="188" y="105" font-family="Arial" font-size="18" fill="black">U:1</text>
</svg>