<svg xmlns="http://www.w3.org/2000/svg" width="1200" height="820" viewBox="0 0 1200 820">
<rect width="100%" height="100%" fill="white"/>
<text x="600.0" y="36" text-anchor="middle" font-family="Arial" font-size="24" fill="black">profile_diagonal_supply_return: nut</text>
<line x1="120.00" y1="75" x2="120.00" y2="705" stroke="#dddddd" stroke-width="1"/>
<text x="120.00" y="737" text-anchor="middle" font-family="Arial" font-size="16" fill="black">-0.729</text>
<line x1="376.25" y1="75" x2="376.25" y2="705" stroke="#dddddd" stroke-width="1"/>
<text x="376.25" y="737" text-anchor="middle" font-family="Arial" font-size="16" fill="black">1.913</text>
<line x1="632.50" y1="75" x2="632.50" y2="705" stroke="#dddddd" stroke-width="1"/>
<text x="632.50" y="737" text-anchor="middle" font-family="Arial" font-size="16" fill="black">4.555</text>
<line x1="888.75" y1="75" x2="888.75" y2="705" stroke="#dddddd" stroke-width="1"/>
<text x="888.75" y="737" text-anchor="middle" font-family="Arial" font-size="16" fill="black">7.197</text>
<line x1="1145.00" y1="75" x2="1145.00" y2="705" stroke="#dddddd" stroke-width="1"/>
<text x="1145.00" y="737" text-anchor="middle" font-family="Arial" font-size="16" fill="black">9.839</text>
<line x1="120" y1="705.00" x2="1145" y2="705.00" stroke="#dddddd" stroke-width="1"/>
<text x="104" y="710.00" text-anchor="end" font-family="Arial" font-size="16" fill="black">-0.002</text>
<line x1="120" y1="547.50" x2="1145" y2="547.50" stroke="#dddddd" stroke-width="1"/>
<text x="104" y="552.50" text-anchor="end" font-family="Arial" font-size="16" fill="black">0.006</text>
<line x1="120" y1="390.00" x2="1145" y2="390.00" stroke="#dddddd" stroke-width="1"/>
<text x="104" y="395.00" text-anchor="end" font-family="Arial" font-size="16" fill="black">0.013</text>
<line x1="120" y1="232.50" x2="1145" y2="232.50" stroke="#dddddd" stroke-width="1"/>
<text x="104" y="237.50" text-anchor="end" font-family="Arial" font-size="16" fill="black">0.020</text>
<line x1="120" y1="75.00" x2="1145" y2="75.00" stroke="#dddddd" stroke-width="1"/>
<text x="104" y="80.00" text-anchor="end" font-family="Arial" font-size="16" fill="black">0.027</text>
<rect x="120" y="75" width="1025" height="630" fill="none" stroke="black" stroke-width="2"/>
<text x="632.5" y="785" text-anchor="middle" font-family="Arial" font-size="20" fill="black">distance along sample line [m]</text>
<text x="34" y="390.0" transform="rotate(-90 34 390.0)" text-anchor="middle" font-family="Arial" font-size="20" fill="black">nut [m2/s]</text>
<polyline points="190.69,659.47 193.64,659.30 196.58,659.11 199.53,658.89 202.47,658.64 205.42,658.23 208.36,657.67 211.31,656.74 214.25,655.55 217.20,654.13 220.14,652.53 223.09,650.48 226.03,648.06 228.98,645.54 231.93,642.90 234.87,639.93 237.82,636.62 240.76,632.92 243.71,629.00 246.65,624.99 249.60,620.54 252.54,617.09 255.49,613.50 258.43,609.74 261.38,605.67 264.32,601.55 267.27,597.17 270.22,592.64 273.16,587.73 276.11,582.43 279.05,576.72 282.00,572.63 284.94,568.32 287.88,563.78 290.83,558.99 293.78,554.49 296.73,549.99 299.67,545.52 302.62,540.88 305.57,536.46 308.50,532.44 311.45,529.26 314.40,525.97 317.34,523.05 320.29,520.89 323.24,518.66 326.18,516.38 329.12,514.03 332.07,512.36 335.01,511.09 337.96,509.79 340.91,509.20 343.85,508.86 346.80,508.67 349.74,508.41 352.68,508.21 355.63,507.95 358.58,507.66 361.53,507.28 364.47,506.82 367.42,506.31 370.36,505.57 373.30,504.72 376.25,503.77 379.20,502.74 382.14,500.80 385.09,498.53 388.04,495.93 390.97,493.37 393.92,490.14 396.87,486.08 399.81,482.40 402.76,478.81 405.71,474.73 408.65,469.22 411.59,463.91 414.54,458.83 417.48,453.94 420.43,447.87 423.38,441.52 426.32,435.44 429.27,429.69 432.21,423.59 435.16,417.26 438.10,411.18 441.05,405.05 444.00,399.08 446.94,393.11 449.89,387.34 452.84,381.79 455.77,376.44 458.72,371.27 461.67,366.25 464.61,361.41 467.56,356.75 470.51,352.76 473.45,349.05 476.39,345.08 479.34,341.21 482.28,337.80 485.23,334.87 488.18,331.80 491.12,328.78 494.07,325.61 497.01,322.97 499.96,320.35 502.90,317.77 505.85,315.24 508.80,312.98 511.74,310.54 514.69,308.12 517.63,305.48 520.57,302.88 523.52,300.35 526.47,297.89 529.41,295.33 532.36,292.76 535.31,290.05 538.24,287.36 541.19,284.70 544.14,282.08 547.08,278.82 550.03,275.58 552.98,272.36 555.92,269.14 558.86,266.19 561.81,263.33 564.76,260.46 567.70,257.58 570.65,255.11 573.60,253.25 576.54,251.03 579.49,248.85 582.43,246.92 585.37,246.10 588.32,245.30 591.27,244.53 594.21,243.75 597.16,243.73 600.11,243.97 603.04,244.24 605.99,244.46 608.94,244.84 611.88,245.35 614.83,245.88 617.78,246.61 620.72,247.26 623.66,247.59 626.61,247.85 629.55,248.05 632.50,248.14 635.45,247.37 638.40,246.39 641.34,245.26 644.28,243.90 647.23,241.31 650.17,238.09 653.12,234.91 656.07,231.58 659.01,227.54 661.96,222.64 664.90,217.84 667.84,213.03 670.79,208.57 673.74,203.57 676.68,198.71 679.63,193.96 682.58,189.32 685.51,184.53 688.46,180.09 691.41,175.80 694.35,171.94 697.30,167.99 700.25,163.95 703.20,160.02 706.14,156.29 709.08,152.63 712.03,148.84 714.97,145.20 717.92,141.71 720.87,138.38 723.81,135.56 726.76,132.90 729.70,130.41 732.64,128.10 735.59,126.15 738.54,124.33 741.48,122.80 744.43,121.38 747.38,120.27 750.31,119.47 753.26,118.98 756.21,118.51 759.15,118.45 762.10,118.87 765.05,119.34 767.99,119.85 770.93,120.38 773.88,121.56 776.83,123.20 779.77,124.97 782.72,127.26 785.67,130.15 788.61,133.54 791.55,137.07 794.50,141.13 797.44,145.59 800.39,150.81 803.34,156.16 806.28,161.62 809.23,167.19 812.17,174.32 815.11,181.40 818.06,188.46 821.01,195.52 823.95,203.04 826.90,210.74 829.85,218.29 832.79,225.79 835.73,233.52 838.68,241.53 841.63,249.76 844.57,257.98 847.52,265.97 850.47,274.38 853.41,282.75 856.35,291.12 859.30,299.48 862.24,308.23 865.19,316.51 868.14,324.77 871.08,332.96 874.03,341.04 876.97,348.94 879.91,356.73 882.86,363.48 885.81,369.91 888.75,375.80 891.70,381.55 894.65,387.16 897.58,392.64 900.53,396.84 903.48,401.06 906.43,405.30 909.37,409.54 912.32,413.46 915.27,417.35 918.20,421.77 921.15,426.29 924.10,430.89 927.04,435.48 929.99,440.54 932.94,445.69 935.88,451.43 938.82,457.15 941.77,462.87 944.71,468.61 947.66,474.36 950.61,480.25 953.55,486.40 956.50,492.48 959.44,498.92 962.38,505.36 965.33,511.80 968.28,518.14 971.22,524.33 974.17,530.43 977.12,536.56 980.06,542.51 983.00,548.28 985.95,553.90 988.90,560.14 991.84,566.09 994.79,571.77 997.74,577.19 1000.68,582.47 1003.62,587.54 1006.57,592.88 1009.51,597.98 1012.46,602.83 1015.41,607.41 1018.35,613.00 1021.30,618.29 1024.24,623.81 1027.18,628.74 1030.13,633.16 1033.08,637.09 1036.02,640.57 1038.97,643.85 1041.92,647.45 1044.86,650.49 1047.80,652.87 1050.75,654.98 1053.70,656.77 1056.64,658.19 1059.59,659.26 1062.54,660.04 1065.47,660.54 1068.42,660.94 1071.37,661.27 1074.31,661.55" fill="none" stroke="#000000" stroke-width="3"/>
<line x1="142" y1="100" x2="178" y2="100" stroke="#000000" stroke-width="4"/>
<text x="188" y="105" font-family="Arial" font-size="18" fill="black">nut</text>
</svg>