<svg xmlns="http://www.w3.org/2000/svg" width="1200" height="820" viewBox="0 0 1200 820">
<rect width="100%" height="100%" fill="white"/>
<text x="600.0" y="36" text-anchor="middle" font-family="Arial" font-size="24" fill="black">profile_center_z: U:2</text>
<line x1="120.00" y1="75" x2="120.00" y2="705" stroke="#dddddd" stroke-width="1"/>
<text x="120.00" y="737" text-anchor="middle" font-family="Arial" font-size="16" fill="black">-0.240</text>
<line x1="376.25" y1="75" x2="376.25" y2="705" stroke="#dddddd" stroke-width="1"/>
<text x="376.25" y="737" text-anchor="middle" font-family="Arial" font-size="16" fill="black">0.630</text>
<line x1="632.50" y1="75" x2="632.50" y2="705" stroke="#dddddd" stroke-width="1"/>
<text x="632.50" y="737" text-anchor="middle" font-family="Arial" font-size="16" fill="black">1.500</text>
<line x1="888.75" y1="75" x2="888.75" y2="705" stroke="#dddddd" stroke-width="1"/>
<text x="888.75" y="737" text-anchor="middle" font-family="Arial" font-size="16" fill="black">2.370</text>
<line x1="1145.00" y1="75" x2="1145.00" y2="705" stroke="#dddddd" stroke-width="1"/>
<text x="1145.00" y="737" text-anchor="middle" font-family="Arial" font-size="16" fill="black">3.240</text>
<line x1="120" y1="705.00" x2="1145" y2="705.00" stroke="#dddddd" stroke-width="1"/>
<text x="104" y="710.00" text-anchor="end" font-family="Arial" font-size="16" fill="black">-0.150</text>
<line x1="120" y1="547.50" x2="1145" y2="547.50" stroke="#dddddd" stroke-width="1"/>
<text x="104" y="552.50" text-anchor="end" font-family="Arial" font-size="16" fill="black">0.018</text>
<line x1="120" y1="390.00" x2="1145" y2="390.00" stroke="#dddddd" stroke-width="1"/>
<text x="104" y="395.00" text-anchor="end" font-family="Arial" font-size="16" fill="black">0.186</text>
<line x1="120" y1="232.50" x2="1145" y2="232.50" stroke="#dddddd" stroke-width="1"/>
<text x="104" y="237.50" text-anchor="end" font-family="Arial" font-size="16" fill="black">0.354</text>
<line x1="120" y1="75.00" x2="1145" y2="75.00" stroke="#dddddd" stroke-width="1"/>
<text x="104" y="80.00" text-anchor="end" font-family="Arial" font-size="16" fill="black">0.523</text>
<rect x="120" y="75" width="1025" height="630" fill="none" stroke="black" stroke-width="2"/>
<text x="632.5" y="785" text-anchor="middle" font-family="Arial" font-size="20" fill="black">z coordinate [m]</text>
<text x="34" y="390.0" transform="rotate(-90 34 390.0)" text-anchor="middle" font-family="Arial" font-size="20" fill="black">U:2 [SI]</text>
<polyline points="190.69,118.45 193.64,122.20 196.58,125.95 199.53,129.70 202.47,133.45 205.42,137.20 208.36,140.96 211.31,144.70 214.25,148.45 217.20,152.20 220.14,155.95 223.09,165.70 226.03,175.44 228.98,185.18 231.93,194.93 234.87,204.67 237.82,214.42 240.76,224.17 243.71,233.91 246.65,243.65 249.60,253.40 252.54,267.31 255.49,281.22 258.43,295.14 261.38,309.06 264.32,322.98 267.27,336.90 270.22,350.82 273.16,364.73 276.11,378.64 279.05,392.56 282.00,408.10 284.94,423.64 287.89,439.18 290.83,454.71 293.78,470.25 296.72,485.78 299.67,501.32 302.61,516.86 305.56,532.40 308.51,547.93 311.45,557.21 314.40,566.49 317.34,575.77 320.29,585.05 323.23,594.33 326.18,603.61 329.12,612.89 332.07,622.17 335.01,631.46 337.96,640.74 340.91,642.82 343.85,644.90 346.80,646.98 349.74,649.06 352.69,651.14 355.63,653.22 358.58,655.31 361.52,657.39 364.47,659.47 367.41,661.55 370.36,660.94 373.30,660.33 376.25,659.73 379.20,659.12 382.14,658.51 385.09,657.90 388.03,657.29 390.98,656.68 393.92,656.07 396.87,655.46 399.81,652.84 402.76,650.21 405.70,647.59 408.65,644.97 411.59,642.35 414.54,639.72 417.49,637.10 420.43,634.48 423.38,631.86 426.32,629.23 429.27,625.96 432.21,622.69 435.16,619.41 438.10,616.14 441.05,612.86 443.99,609.59 446.94,606.32 449.89,603.04 452.83,599.77 455.78,596.49 458.72,593.26 461.67,590.02 464.61,586.78 467.56,583.55 470.50,580.31 473.45,577.07 476.39,573.84 479.34,570.60 482.28,567.36 485.23,564.13 488.18,561.18 491.12,558.23 494.07,555.29 497.01,552.34 499.96,549.40 502.90,546.45 505.85,543.51 508.79,540.56 511.74,537.61 514.68,534.67 517.63,532.02 520.57,529.38 523.52,526.73 526.47,524.08 529.41,521.44 532.36,518.79 535.30,516.15 538.25,513.50 541.19,510.86 544.14,508.21 547.08,505.77 550.03,503.33 552.97,500.89 555.92,498.45 558.86,496.01 561.81,493.57 564.76,491.13 567.70,488.69 570.65,486.25 573.59,483.81 576.54,481.52 579.48,479.23 582.43,476.94 585.37,474.65 588.32,472.36 591.26,470.07 594.21,467.78 597.16,465.49 600.10,463.20 603.05,460.92 605.99,458.75 608.94,456.60 611.88,454.44 614.83,452.29 617.77,450.14 620.72,447.98 623.66,445.82 626.61,443.66 629.55,441.51 632.50,439.36 635.45,437.35 638.39,435.35 641.34,433.33 644.28,431.33 647.23,429.32 650.17,427.32 653.12,425.32 656.06,423.31 659.01,421.31 661.95,419.30 664.90,417.50 667.84,415.71 670.79,413.91 673.74,412.11 676.68,410.31 679.63,408.51 682.57,406.71 685.52,404.91 688.46,403.11 691.41,401.31 694.35,399.81 697.30,398.31 700.24,396.81 703.19,395.31 706.14,393.81 709.08,392.31 712.03,390.80 714.97,389.30 717.92,387.80 720.86,386.31 723.81,385.21 726.75,384.11 729.70,383.03 732.64,381.93 735.59,380.84 738.53,379.75 741.48,378.65 744.43,377.57 747.37,376.47 750.32,375.37 753.26,374.81 756.21,374.24 759.15,373.68 762.10,373.11 765.04,372.55 767.99,371.97 770.93,371.41 773.88,370.84 776.82,370.28 779.77,369.71 782.72,369.76 785.66,369.83 788.61,369.89 791.55,369.94 794.50,370.00 797.44,370.06 800.39,370.12 803.33,370.18 806.28,370.23 809.22,370.29 812.17,371.04 815.11,371.78 818.06,372.53 821.01,373.27 823.95,374.02 826.90,374.76 829.84,375.50 832.79,376.25 835.73,376.99 838.68,377.73 841.62,379.17 844.57,380.61 847.51,382.05 850.46,383.49 853.41,384.93 856.35,386.37 859.30,387.80 862.24,389.25 865.19,390.69 868.13,392.12 871.08,394.21 874.02,396.31 876.97,398.40 879.91,400.49 882.86,402.57 885.80,404.66 888.75,406.75 891.70,408.84 894.64,410.93 897.59,413.02 900.53,415.66 903.48,418.30 906.42,420.93 909.37,423.57 912.31,426.21 915.26,428.86 918.20,431.50 921.15,434.14 924.09,436.78 927.04,439.42 929.99,442.46 932.93,445.49 935.88,448.53 938.82,451.57 941.77,454.61 944.71,457.65 947.66,460.69 950.60,463.73 953.55,466.76 956.49,469.81 959.44,472.99 962.39,476.18 965.33,479.37 968.28,482.56 971.22,485.75 974.17,488.94 977.11,492.13 980.06,495.32 983.00,498.51 985.95,501.70 988.89,504.81 991.84,507.91 994.78,511.01 997.73,514.12 1000.68,517.22 1003.62,520.33 1006.57,523.43 1009.51,526.54 1012.46,529.64 1015.40,532.74 1018.35,534.71 1021.29,536.67 1024.24,538.63 1027.18,540.59 1030.13,542.56 1033.07,544.52 1036.02,546.48 1038.97,548.45 1041.91,550.41 1044.86,552.37 1047.80,552.82 1050.75,553.27 1053.69,553.73 1056.64,554.18 1059.58,554.63 1062.53,555.08 1065.47,555.53 1068.42,555.99 1071.36,556.44 1074.31,556.89" fill="none" stroke="#000000" stroke-width="3"/>
<line x1="142" y1="100" x2="178" y2="100" stroke="#000000" stroke-width="4"/>
<text x="188" y="105" font-family="Arial" font-size="18" fill="black">U:2</text>
</svg>