<svg xmlns="http://www.w3.org/2000/svg" width="1200" height="820" viewBox="0 0 1200 820">
<rect width="100%" height="100%" fill="white"/>
<text x="600.0" y="36" text-anchor="middle" font-family="Arial" font-size="24" fill="black">profile_center_y: vorticity:2</text>
<line x1="120.00" y1="75" x2="120.00" y2="705" stroke="#dddddd" stroke-width="1"/>
<text x="120.00" y="737" text-anchor="middle" font-family="Arial" font-size="16" fill="black">-0.400</text>
<line x1="376.25" y1="75" x2="376.25" y2="705" stroke="#dddddd" stroke-width="1"/>
<text x="376.25" y="737" text-anchor="middle" font-family="Arial" font-size="16" fill="black">1.050</text>
<line x1="632.50" y1="75" x2="632.50" y2="705" stroke="#dddddd" stroke-width="1"/>
<text x="632.50" y="737" text-anchor="middle" font-family="Arial" font-size="16" fill="black">2.500</text>
<line x1="888.75" y1="75" x2="888.75" y2="705" stroke="#dddddd" stroke-width="1"/>
<text x="888.75" y="737" text-anchor="middle" font-family="Arial" font-size="16" fill="black">3.950</text>
<line x1="1145.00" y1="75" x2="1145.00" y2="705" stroke="#dddddd" stroke-width="1"/>
<text x="1145.00" y="737" text-anchor="middle" font-family="Arial" font-size="16" fill="black">5.400</text>
<line x1="120" y1="705.00" x2="1145" y2="705.00" stroke="#dddddd" stroke-width="1"/>
<text x="104" y="710.00" text-anchor="end" font-family="Arial" font-size="16" fill="black">-1.838</text>
<line x1="120" y1="547.50" x2="1145" y2="547.50" stroke="#dddddd" stroke-width="1"/>
<text x="104" y="552.50" text-anchor="end" font-family="Arial" font-size="16" fill="black">-1.265</text>
<line x1="120" y1="390.00" x2="1145" y2="390.00" stroke="#dddddd" stroke-width="1"/>
<text x="104" y="395.00" text-anchor="end" font-family="Arial" font-size="16" fill="black">-0.692</text>
<line x1="120" y1="232.50" x2="1145" y2="232.50" stroke="#dddddd" stroke-width="1"/>
<text x="104" y="237.50" text-anchor="end" font-family="Arial" font-size="16" fill="black">-0.119</text>
<line x1="120" y1="75.00" x2="1145" y2="75.00" stroke="#dddddd" stroke-width="1"/>
<text x="104" y="80.00" text-anchor="end" font-family="Arial" font-size="16" fill="black">0.454</text>
<rect x="120" y="75" width="1025" height="630" fill="none" stroke="black" stroke-width="2"/>
<text x="632.5" y="785" text-anchor="middle" font-family="Arial" font-size="20" fill="black">y coordinate [m]</text>
<text x="34" y="390.0" transform="rotate(-90 34 390.0)" text-anchor="middle" font-family="Arial" font-size="20" fill="black">vorticity:2 [SI]</text>
<polyline points="190.69,436.67 193.64,438.47 196.58,440.28 199.53,442.08 202.47,443.89 205.42,445.69 208.36,447.49 211.31,439.78 214.25,432.07 217.20,424.36 220.14,416.65 223.09,408.94 226.03,401.23 228.98,384.55 231.92,367.87 234.87,351.19 237.82,334.52 240.76,317.84 243.71,301.16 246.65,289.44 249.60,277.72 252.54,266.00 255.49,254.28 258.43,242.56 261.38,230.85 264.33,224.23 267.27,217.63 270.22,211.02 273.16,204.41 276.11,197.80 279.05,191.19 282.00,188.34 284.94,185.49 287.89,182.64 290.83,179.79 293.78,176.95 296.72,174.10 299.67,172.74 302.61,171.38 305.56,170.01 308.51,168.65 311.45,167.29 314.40,165.93 317.34,164.72 320.29,163.51 323.23,162.29 326.18,161.08 329.12,159.87 332.07,158.66 335.01,157.34 337.96,156.02 340.91,154.70 343.85,153.38 346.80,152.07 349.74,150.75 352.69,149.59 355.63,148.43 358.58,147.28 361.52,146.12 364.47,144.97 367.41,143.81 370.37,143.13 373.30,142.45 376.25,141.77 379.20,141.08 382.13,140.40 385.09,139.72 388.04,139.44 390.97,139.16 393.92,138.88 396.87,138.60 399.81,138.32 402.76,138.04 405.71,137.87 408.64,137.71 411.59,137.54 414.55,137.37 417.48,137.21 420.43,137.04 423.38,136.77 426.32,136.49 429.27,136.22 432.22,135.95 435.15,135.68 438.10,135.41 441.05,134.89 443.99,134.38 446.94,133.87 449.89,133.35 452.82,132.84 455.78,132.33 458.73,131.60 461.66,130.88 464.61,130.15 467.56,129.42 470.50,128.70 473.45,127.97 476.40,127.22 479.33,126.47 482.28,125.72 485.24,124.98 488.17,124.23 491.12,123.48 494.07,122.96 497.01,122.44 499.96,121.93 502.91,121.41 505.84,120.89 508.79,120.38 511.74,120.25 514.68,120.13 517.63,120.00 520.58,119.88 523.51,119.75 526.47,119.63 529.42,119.81 532.35,119.99 535.30,120.18 538.25,120.36 541.19,120.55 544.14,120.73 547.09,120.94 550.02,121.16 552.97,121.37 555.93,121.58 558.86,121.79 561.81,122.01 564.76,122.02 567.70,122.02 570.65,122.03 573.60,122.04 576.53,122.05 579.48,122.05 582.43,121.82 585.37,121.59 588.32,121.35 591.27,121.12 594.20,120.89 597.16,120.65 600.11,120.34 603.04,120.03 605.99,119.71 608.94,119.40 611.88,119.09 614.83,118.77 617.78,118.72 620.71,118.67 623.66,118.61 626.62,118.56 629.55,118.50 632.50,118.45 635.45,118.99 638.38,119.53 641.34,120.08 644.29,120.62 647.22,121.16 650.17,121.71 653.12,122.84 656.06,123.98 659.01,125.12 661.96,126.26 664.89,127.40 667.84,128.54 670.80,130.02 673.73,131.49 676.68,132.96 679.63,134.44 682.57,135.92 685.52,137.39 688.47,139.00 691.40,140.61 694.35,142.22 697.30,143.83 700.24,145.44 703.19,147.05 706.14,148.67 709.07,150.29 712.03,151.91 714.98,153.53 717.91,155.16 720.86,156.77 723.81,158.35 726.75,159.92 729.70,161.50 732.65,163.07 735.58,164.65 738.53,166.22 741.49,167.75 744.42,169.28 747.37,170.81 750.32,172.34 753.26,173.87 756.21,175.40 759.16,176.84 762.09,178.29 765.04,179.73 767.99,181.17 770.93,182.61 773.88,184.06 776.83,185.34 779.76,186.62 782.72,187.90 785.67,189.19 788.60,190.47 791.55,191.75 794.50,192.80 797.44,193.85 800.39,194.90 803.34,195.95 806.27,197.01 809.22,198.06 812.18,198.85 815.11,199.63 818.06,200.42 821.01,201.21 823.95,202.00 826.90,202.79 829.85,203.34 832.78,203.89 835.73,204.45 838.68,205.00 841.62,205.55 844.57,206.10 847.52,206.51 850.45,206.91 853.41,207.31 856.36,207.71 859.29,208.11 862.24,208.51 865.19,208.86 868.13,209.22 871.08,209.58 874.03,209.93 876.96,210.29 879.91,210.65 882.87,211.02 885.80,211.39 888.75,211.76 891.70,212.13 894.63,212.51 897.59,212.88 900.54,213.10 903.47,213.33 906.42,213.56 909.37,213.78 912.31,214.01 915.26,214.24 918.21,213.78 921.14,213.33 924.09,212.88 927.05,212.42 929.98,211.97 932.93,211.52 935.88,209.65 938.82,207.79 941.77,205.93 944.72,204.06 947.65,202.20 950.60,200.34 953.55,197.03 956.49,193.73 959.44,190.43 962.39,187.12 965.32,183.82 968.28,180.52 971.23,177.50 974.16,174.48 977.11,171.46 980.06,168.45 983.00,165.43 985.95,162.41 988.90,161.93 991.83,161.44 994.78,160.95 997.74,160.47 1000.67,159.98 1003.62,159.50 1006.57,162.65 1009.51,165.80 1012.46,168.94 1015.41,172.09 1018.34,175.24 1021.29,178.39 1024.24,186.91 1027.18,195.43 1030.13,203.95 1033.08,212.48 1036.01,221.00 1038.97,229.52 1041.92,268.51 1044.85,307.50 1047.80,346.49 1050.75,385.49 1053.69,424.48 1056.64,463.47 1059.59,496.49 1062.52,529.50 1065.47,562.51 1068.43,595.53 1071.36,628.54 1074.31,661.55" fill="none" stroke="#000000" stroke-width="3"/>
<line x1="142" y1="100" x2="178" y2="100" stroke="#000000" stroke-width="4"/>
<text x="188" y="105" font-family="Arial" font-size="18" fill="black">vorticity:2</text>
</svg>