<svg xmlns="http://www.w3.org/2000/svg" width="1200" height="820" viewBox="0 0 1200 820">
<rect width="100%" height="100%" fill="white"/>
<text x="600.0" y="36" text-anchor="middle" font-family="Arial" font-size="24" fill="black">profile_rack_height_x: k</text>
<line x1="120.00" y1="75" x2="120.00" y2="705" stroke="#dddddd" stroke-width="1"/>
<text x="120.00" y="737" text-anchor="middle" font-family="Arial" font-size="16" fill="black">-0.560</text>
<line x1="376.25" y1="75" x2="376.25" y2="705" stroke="#dddddd" stroke-width="1"/>
<text x="376.25" y="737" text-anchor="middle" font-family="Arial" font-size="16" fill="black">1.470</text>
<line x1="632.50" y1="75" x2="632.50" y2="705" stroke="#dddddd" stroke-width="1"/>
<text x="632.50" y="737" text-anchor="middle" font-family="Arial" font-size="16" fill="black">3.500</text>
<line x1="888.75" y1="75" x2="888.75" y2="705" stroke="#dddddd" stroke-width="1"/>
<text x="888.75" y="737" text-anchor="middle" font-family="Arial" font-size="16" fill="black">5.530</text>
<line x1="1145.00" y1="75" x2="1145.00" y2="705" stroke="#dddddd" stroke-width="1"/>
<text x="1145.00" y="737" text-anchor="middle" font-family="Arial" font-size="16" fill="black">7.560</text>
<line x1="120" y1="705.00" x2="1145" y2="705.00" stroke="#dddddd" stroke-width="1"/>
<text x="104" y="710.00" text-anchor="end" font-family="Arial" font-size="16" fill="black">0.005</text>
<line x1="120" y1="547.50" x2="1145" y2="547.50" stroke="#dddddd" stroke-width="1"/>
<text x="104" y="552.50" text-anchor="end" font-family="Arial" font-size="16" fill="black">0.018</text>
<line x1="120" y1="390.00" x2="1145" y2="390.00" stroke="#dddddd" stroke-width="1"/>
<text x="104" y="395.00" text-anchor="end" font-family="Arial" font-size="16" fill="black">0.032</text>
<line x1="120" y1="232.50" x2="1145" y2="232.50" stroke="#dddddd" stroke-width="1"/>
<text x="104" y="237.50" text-anchor="end" font-family="Arial" font-size="16" fill="black">0.045</text>
<line x1="120" y1="75.00" x2="1145" y2="75.00" stroke="#dddddd" stroke-width="1"/>
<text x="104" y="80.00" text-anchor="end" font-family="Arial" font-size="16" fill="black">0.059</text>
<rect x="120" y="75" width="1025" height="630" fill="none" stroke="black" stroke-width="2"/>
<text x="632.5" y="785" text-anchor="middle" font-family="Arial" font-size="20" fill="black">x coordinate [m]</text>
<text x="34" y="390.0" transform="rotate(-90 34 390.0)" text-anchor="middle" font-family="Arial" font-size="20" fill="black">k [m2/s2]</text>
<polyline points="190.69,492.21 193.64,474.18 196.58,456.14 199.53,438.11 202.47,420.08 205.42,397.64 208.36,373.42 211.31,349.22 214.25,325.02 217.20,307.82 220.14,299.95 223.09,292.08 226.03,284.21 228.98,277.22 231.93,275.48 234.87,273.74 237.82,272.00 240.76,270.24 243.71,270.18 246.65,270.42 249.60,270.64 252.54,270.86 255.49,271.03 258.43,271.17 261.38,271.30 264.32,271.44 267.27,271.21 270.22,270.06 273.16,268.90 276.11,267.75 279.05,266.59 282.00,263.41 284.94,260.23 287.89,257.06 290.83,253.88 293.78,249.15 296.72,243.81 299.67,238.48 302.62,233.14 305.56,227.20 308.51,220.45 311.45,213.69 314.40,206.93 317.34,200.16 320.29,193.27 323.23,186.38 326.17,179.48 329.13,172.60 332.07,166.63 335.01,160.82 337.96,155.00 340.91,149.20 343.85,144.40 346.80,140.38 349.74,136.36 352.68,132.33 355.64,128.86 358.58,126.74 361.52,124.62 364.47,122.50 367.41,120.39 370.35,119.90 373.31,119.41 376.25,118.94 379.19,118.45 382.15,118.87 385.09,119.64 388.03,120.43 390.98,121.21 393.92,122.41 396.86,124.16 399.82,125.91 402.76,127.68 405.70,129.53 408.65,132.08 411.59,134.62 414.54,137.17 417.49,139.71 420.43,142.82 423.37,146.04 426.33,149.26 429.27,152.47 432.21,156.00 435.16,159.77 438.10,163.53 441.04,167.29 444.00,171.17 446.94,175.35 449.88,179.53 452.83,183.70 455.78,187.87 458.72,192.32 461.67,196.78 464.61,201.22 467.55,205.67 470.51,210.22 473.45,214.82 476.39,219.40 479.34,224.00 482.28,228.58 485.23,233.18 488.18,237.78 491.12,242.36 494.06,246.93 497.02,251.37 499.96,255.81 502.90,260.25 505.85,264.69 508.79,268.83 511.73,272.92 514.69,277.02 517.63,281.11 520.57,284.86 523.52,288.35 526.47,291.84 529.41,295.34 532.36,298.57 535.30,301.13 538.24,303.71 541.20,306.27 544.14,308.85 547.08,310.20 550.03,311.55 552.97,312.91 555.92,314.26 558.87,314.69 561.81,314.73 564.75,314.79 567.71,314.84 570.65,314.48 573.59,313.57 576.54,312.67 579.48,311.76 582.42,310.83 585.38,309.84 588.32,308.84 591.26,307.84 594.21,306.84 597.16,306.64 600.10,306.59 603.05,306.53 605.99,306.47 608.93,307.20 611.89,308.51 614.83,309.82 617.77,311.12 620.72,312.65 623.66,314.67 626.60,316.70 629.56,318.72 632.50,320.75 635.44,322.56 638.40,324.37 641.34,326.19 644.28,328.00 647.23,329.60 650.17,331.14 653.11,332.66 656.07,334.18 659.01,335.76 661.95,337.40 664.90,339.05 667.84,340.71 670.79,342.38 673.74,344.16 676.68,345.95 679.62,347.74 682.58,349.51 685.52,350.99 688.46,352.40 691.41,353.83 694.35,355.25 697.29,356.16 700.25,356.71 703.19,357.25 706.13,357.80 709.08,358.04 712.03,357.50 714.97,356.96 717.92,356.42 720.86,355.88 723.80,354.36 726.76,352.84 729.70,351.31 732.64,349.79 735.59,347.79 738.53,345.61 741.48,343.42 744.43,341.24 747.37,338.93 750.31,336.46 753.27,334.00 756.21,331.53 759.15,329.09 762.10,326.74 765.04,324.38 767.98,322.04 770.94,319.68 773.88,317.72 776.82,315.83 779.77,313.92 782.72,312.02 785.66,310.52 788.61,309.31 791.55,308.12 794.49,306.91 797.45,305.95 800.39,305.54 803.33,305.15 806.28,304.74 809.22,304.35 812.17,304.67 815.12,305.00 818.06,305.32 821.00,305.65 823.96,306.32 826.90,307.13 829.84,307.93 832.79,308.75 835.73,309.63 838.67,310.60 841.63,311.58 844.57,312.55 847.51,313.52 850.46,314.40 853.41,315.28 856.35,316.16 859.30,317.04 862.24,317.76 865.18,318.46 868.14,319.16 871.08,319.85 874.02,320.49 876.97,321.10 879.91,321.71 882.85,322.31 885.81,322.96 888.75,323.73 891.69,324.49 894.65,325.25 897.59,326.01 900.53,327.19 903.48,328.37 906.42,329.56 909.36,330.74 912.32,332.38 915.26,334.20 918.20,336.04 921.15,337.86 924.09,339.99 927.04,342.55 929.99,345.11 932.93,347.67 935.87,350.32 938.83,353.56 941.77,356.80 944.71,360.05 947.66,363.29 950.60,367.00 953.54,370.79 956.50,374.58 959.44,378.37 962.38,382.38 965.33,386.56 968.28,390.74 971.22,394.92 974.17,399.17 977.11,403.63 980.05,408.07 983.01,412.53 985.95,416.98 988.89,421.70 991.84,426.41 994.78,431.13 997.73,435.85 1000.68,440.86 1003.62,446.01 1006.56,451.14 1009.52,456.28 1012.46,461.75 1015.40,467.67 1018.35,473.58 1021.29,479.48 1024.23,485.59 1027.19,492.88 1030.13,500.17 1033.07,507.45 1036.02,514.74 1038.97,524.17 1041.91,533.98 1044.86,543.78 1047.80,553.58 1050.74,566.33 1053.70,581.31 1056.64,596.27 1059.58,611.24 1062.53,624.57 1065.47,633.82 1068.42,643.06 1071.37,652.31 1074.31,661.55" fill="none" stroke="#000000" stroke-width="3"/>
<line x1="142" y1="100" x2="178" y2="100" stroke="#000000" stroke-width="4"/>
<text x="188" y="105" font-family="Arial" font-size="18" fill="black">k</text>
</svg>