<svg xmlns="http://www.w3.org/2000/svg" width="1200" height="820" viewBox="0 0 1200 820">
<rect width="100%" height="100%" fill="white"/>
<text x="600.0" y="36" text-anchor="middle" font-family="Arial" font-size="24" fill="black">profile_center_z: p_rgh</text>
<line x1="120.00" y1="75" x2="120.00" y2="705" stroke="#dddddd" stroke-width="1"/>
<text x="120.00" y="737" text-anchor="middle" font-family="Arial" font-size="16" fill="black">-0.240</text>
<line x1="376.25" y1="75" x2="376.25" y2="705" stroke="#dddddd" stroke-width="1"/>
<text x="376.25" y="737" text-anchor="middle" font-family="Arial" font-size="16" fill="black">0.630</text>
<line x1="632.50" y1="75" x2="632.50" y2="705" stroke="#dddddd" stroke-width="1"/>
<text x="632.50" y="737" text-anchor="middle" font-family="Arial" font-size="16" fill="black">1.500</text>
<line x1="888.75" y1="75" x2="888.75" y2="705" stroke="#dddddd" stroke-width="1"/>
<text x="888.75" y="737" text-anchor="middle" font-family="Arial" font-size="16" fill="black">2.370</text>
<line x1="1145.00" y1="75" x2="1145.00" y2="705" stroke="#dddddd" stroke-width="1"/>
<text x="1145.00" y="737" text-anchor="middle" font-family="Arial" font-size="16" fill="black">3.240</text>
<line x1="120" y1="705.00" x2="1145" y2="705.00" stroke="#dddddd" stroke-width="1"/>
<text x="104" y="710.00" text-anchor="end" font-family="Arial" font-size="16" fill="black">-0.194</text>
<line x1="120" y1="547.50" x2="1145" y2="547.50" stroke="#dddddd" stroke-width="1"/>
<text x="104" y="552.50" text-anchor="end" font-family="Arial" font-size="16" fill="black">0.124</text>
<line x1="120" y1="390.00" x2="1145" y2="390.00" stroke="#dddddd" stroke-width="1"/>
<text x="104" y="395.00" text-anchor="end" font-family="Arial" font-size="16" fill="black">0.442</text>
<line x1="120" y1="232.50" x2="1145" y2="232.50" stroke="#dddddd" stroke-width="1"/>
<text x="104" y="237.50" text-anchor="end" font-family="Arial" font-size="16" fill="black">0.760</text>
<line x1="120" y1="75.00" x2="1145" y2="75.00" stroke="#dddddd" stroke-width="1"/>
<text x="104" y="80.00" text-anchor="end" font-family="Arial" font-size="16" fill="black">1.078</text>
<rect x="120" y="75" width="1025" height="630" fill="none" stroke="black" stroke-width="2"/>
<text x="632.5" y="785" text-anchor="middle" font-family="Arial" font-size="20" fill="black">z coordinate [m]</text>
<text x="34" y="390.0" transform="rotate(-90 34 390.0)" text-anchor="middle" font-family="Arial" font-size="20" fill="black">p_rgh [Pa]</text>
<polyline points="190.69,162.16 193.64,161.42 196.58,160.68 199.53,159.94 202.47,159.20 205.42,158.46 208.36,157.72 211.31,156.98 214.25,156.24 217.20,155.50 220.14,154.76 223.09,152.71 226.03,150.67 228.98,148.62 231.93,146.58 234.87,144.54 237.82,142.49 240.76,140.45 243.71,138.40 246.65,136.36 249.60,134.32 252.54,132.73 255.49,131.14 258.43,129.56 261.38,127.97 264.32,126.38 267.27,124.80 270.22,123.21 273.16,121.62 276.11,120.04 279.05,118.45 282.00,122.92 284.94,127.38 287.89,131.85 290.83,136.32 293.78,140.78 296.72,145.25 299.67,149.71 302.61,154.18 305.56,158.65 308.51,163.12 311.45,173.72 314.40,184.33 317.34,194.93 320.29,205.54 323.23,216.14 326.18,226.75 329.12,237.35 332.07,247.96 335.01,258.57 337.96,269.17 340.91,277.93 343.85,286.68 346.80,295.44 349.74,304.19 352.69,312.94 355.63,321.70 358.58,330.46 361.52,339.21 364.47,347.97 367.41,356.72 370.36,361.18 373.30,365.63 376.25,370.09 379.20,374.55 382.14,379.01 385.09,383.46 388.03,387.92 390.98,392.38 393.92,396.83 396.87,401.29 399.81,403.82 402.76,406.35 405.70,408.87 408.65,411.40 411.59,413.92 414.54,416.45 417.49,418.98 420.43,421.51 423.38,424.03 426.32,426.56 429.27,428.21 432.21,429.86 435.16,431.50 438.10,433.15 441.05,434.80 443.99,436.45 446.94,438.10 449.89,439.75 452.83,441.39 455.78,443.04 458.72,444.24 461.67,445.44 464.61,446.64 467.56,447.84 470.50,449.04 473.45,450.24 476.39,451.44 479.34,452.64 482.28,453.84 485.23,455.04 488.18,455.99 491.12,456.94 494.07,457.89 497.01,458.84 499.96,459.79 502.90,460.74 505.85,461.69 508.79,462.64 511.74,463.59 514.68,464.54 517.63,465.37 520.57,466.19 523.52,467.02 526.47,467.85 529.41,468.67 532.36,469.50 535.30,470.32 538.25,471.15 541.19,471.97 544.14,472.80 547.08,473.59 550.03,474.39 552.97,475.18 555.92,475.97 558.86,476.76 561.81,477.55 564.76,478.34 567.70,479.13 570.65,479.92 573.59,480.72 576.54,481.53 579.48,482.34 582.43,483.16 585.37,483.97 588.32,484.78 591.26,485.60 594.21,486.41 597.16,487.22 600.10,488.04 603.05,488.85 605.99,489.72 608.94,490.59 611.88,491.47 614.83,492.34 617.77,493.21 620.72,494.08 623.66,494.96 626.61,495.83 629.55,496.70 632.50,497.57 635.45,498.53 638.39,499.48 641.34,500.43 644.28,501.38 647.23,502.33 650.17,503.28 653.12,504.23 656.06,505.18 659.01,506.14 661.95,507.09 664.90,508.12 667.84,509.16 670.79,510.19 673.74,511.23 676.68,512.26 679.63,513.30 682.57,514.33 685.52,515.36 688.46,516.39 691.41,517.43 694.35,518.54 697.30,519.65 700.24,520.76 703.19,521.87 706.14,522.98 709.08,524.09 712.03,525.20 714.97,526.31 717.92,527.42 720.86,528.53 723.81,529.70 726.75,530.87 729.70,532.04 732.64,533.22 735.59,534.39 738.53,535.56 741.48,536.73 744.43,537.90 747.37,539.07 750.32,540.25 753.26,541.46 756.21,542.69 759.15,543.90 762.10,545.12 765.04,546.34 767.99,547.56 770.93,548.78 773.88,550.00 776.82,551.22 779.77,552.44 782.72,553.68 785.66,554.93 788.61,556.19 791.55,557.43 794.50,558.69 797.44,559.94 800.39,561.19 803.33,562.44 806.28,563.69 809.22,564.94 812.17,566.20 815.11,567.46 818.06,568.73 821.01,569.99 823.95,571.26 826.90,572.52 829.84,573.78 832.79,575.05 835.73,576.31 838.68,577.58 841.62,578.83 844.57,580.09 847.51,581.35 850.46,582.60 853.41,583.86 856.35,585.12 859.30,586.38 862.24,587.63 865.19,588.89 868.13,590.15 871.08,591.37 874.02,592.60 876.97,593.82 879.91,595.05 882.86,596.27 885.80,597.50 888.75,598.72 891.70,599.95 894.64,601.17 897.59,602.40 900.53,603.56 903.48,604.73 906.42,605.89 909.37,607.06 912.31,608.22 915.26,609.38 918.20,610.55 921.15,611.71 924.09,612.88 927.04,614.04 929.99,615.13 932.93,616.22 935.88,617.31 938.82,618.40 941.77,619.49 944.71,620.58 947.66,621.67 950.60,622.76 953.55,623.85 956.49,624.94 959.44,625.96 962.39,626.98 965.33,628.00 968.28,629.02 971.22,630.04 974.17,631.06 977.11,632.08 980.06,633.10 983.00,634.13 985.95,635.15 988.89,636.15 991.84,637.16 994.78,638.17 997.73,639.17 1000.68,640.18 1003.62,641.18 1006.57,642.19 1009.51,643.20 1012.46,644.20 1015.40,645.21 1018.35,646.28 1021.29,647.36 1024.24,648.43 1027.18,649.50 1030.13,650.57 1033.07,651.65 1036.02,652.72 1038.97,653.79 1041.91,654.87 1044.86,655.94 1047.80,656.50 1050.75,657.06 1053.69,657.62 1056.64,658.18 1059.58,658.75 1062.53,659.30 1065.47,659.87 1068.42,660.43 1071.36,660.99 1074.31,661.55" fill="none" stroke="#000000" stroke-width="3"/>
<line x1="142" y1="100" x2="178" y2="100" stroke="#000000" stroke-width="4"/>
<text x="188" y="105" font-family="Arial" font-size="18" fill="black">p_rgh</text>
</svg>