<svg xmlns="http://www.w3.org/2000/svg" width="1200" height="820" viewBox="0 0 1200 820">
<rect width="100%" height="100%" fill="white"/>
<text x="600.0" y="36" text-anchor="middle" font-family="Arial" font-size="24" fill="black">profile_near_ceiling_x: vorticity:1</text>
<line x1="120.00" y1="75" x2="120.00" y2="705" stroke="#dddddd" stroke-width="1"/>
<text x="120.00" y="737" text-anchor="middle" font-family="Arial" font-size="16" fill="black">-0.560</text>
<line x1="376.25" y1="75" x2="376.25" y2="705" stroke="#dddddd" stroke-width="1"/>
<text x="376.25" y="737" text-anchor="middle" font-family="Arial" font-size="16" fill="black">1.470</text>
<line x1="632.50" y1="75" x2="632.50" y2="705" stroke="#dddddd" stroke-width="1"/>
<text x="632.50" y="737" text-anchor="middle" font-family="Arial" font-size="16" fill="black">3.500</text>
<line x1="888.75" y1="75" x2="888.75" y2="705" stroke="#dddddd" stroke-width="1"/>
<text x="888.75" y="737" text-anchor="middle" font-family="Arial" font-size="16" fill="black">5.530</text>
<line x1="1145.00" y1="75" x2="1145.00" y2="705" stroke="#dddddd" stroke-width="1"/>
<text x="1145.00" y="737" text-anchor="middle" font-family="Arial" font-size="16" fill="black">7.560</text>
<line x1="120" y1="705.00" x2="1145" y2="705.00" stroke="#dddddd" stroke-width="1"/>
<text x="104" y="710.00" text-anchor="end" font-family="Arial" font-size="16" fill="black">-1.132</text>
<line x1="120" y1="547.50" x2="1145" y2="547.50" stroke="#dddddd" stroke-width="1"/>
<text x="104" y="552.50" text-anchor="end" font-family="Arial" font-size="16" fill="black">-0.367</text>
<line x1="120" y1="390.00" x2="1145" y2="390.00" stroke="#dddddd" stroke-width="1"/>
<text x="104" y="395.00" text-anchor="end" font-family="Arial" font-size="16" fill="black">0.398</text>
<line x1="120" y1="232.50" x2="1145" y2="232.50" stroke="#dddddd" stroke-width="1"/>
<text x="104" y="237.50" text-anchor="end" font-family="Arial" font-size="16" fill="black">1.163</text>
<line x1="120" y1="75.00" x2="1145" y2="75.00" stroke="#dddddd" stroke-width="1"/>
<text x="104" y="80.00" text-anchor="end" font-family="Arial" font-size="16" fill="black">1.928</text>
<rect x="120" y="75" width="1025" height="630" fill="none" stroke="black" stroke-width="2"/>
<text x="632.5" y="785" text-anchor="middle" font-family="Arial" font-size="20" fill="black">x coordinate [m]</text>
<text x="34" y="390.0" transform="rotate(-90 34 390.0)" text-anchor="middle" font-family="Arial" font-size="20" fill="black">vorticity:1 [SI]</text>
<polyline points="190.69,118.45 193.64,153.79 196.58,189.12 199.53,224.46 202.47,259.81 205.42,293.61 208.36,326.81 211.31,360.01 214.25,393.21 217.20,409.80 220.14,404.25 223.09,398.70 226.03,393.14 228.98,387.46 231.93,381.00 234.87,374.53 237.82,368.07 240.76,361.61 243.71,356.22 246.65,351.01 249.60,345.80 252.54,340.59 255.49,336.47 258.43,333.16 261.38,329.85 264.32,326.55 267.27,323.82 270.22,322.52 273.16,321.22 276.11,319.92 279.05,318.62 282.00,319.10 284.94,319.58 287.89,320.06 290.83,320.54 293.78,322.05 296.72,323.98 299.67,325.90 302.62,327.83 305.56,330.27 308.51,333.40 311.45,336.53 314.40,339.66 317.34,342.92 320.29,346.98 323.23,351.04 326.17,355.10 329.13,359.16 332.07,363.73 335.01,368.39 337.96,373.05 340.91,377.70 343.85,382.38 346.80,387.08 349.74,391.78 352.68,396.48 355.64,400.84 358.58,404.35 361.52,407.86 364.47,411.36 367.41,414.87 370.35,417.36 373.31,419.85 376.25,422.34 379.19,424.83 382.15,427.71 385.09,430.75 388.03,433.80 390.98,436.84 393.92,439.97 396.86,443.22 399.82,446.47 402.76,449.72 405.70,452.86 408.65,455.33 411.59,457.81 414.54,460.29 417.49,462.76 420.43,464.54 423.37,466.20 426.33,467.85 429.27,469.51 432.21,470.69 435.16,471.51 438.10,472.32 441.04,473.14 444.00,473.72 446.94,473.69 449.88,473.67 452.83,473.65 455.78,473.63 458.72,473.07 461.67,472.52 464.61,471.97 467.55,471.41 470.51,471.33 473.45,471.42 476.39,471.52 479.34,471.62 482.28,473.00 485.23,476.11 488.18,479.22 491.12,482.33 494.06,485.81 497.02,491.54 499.96,497.28 502.90,503.01 505.85,508.75 508.79,512.43 511.73,515.76 514.69,519.10 517.63,522.44 520.57,523.07 523.52,521.67 526.47,520.27 529.41,518.88 532.36,516.83 535.30,513.16 538.24,509.50 541.20,505.83 544.14,502.16 547.08,498.48 550.03,494.80 552.97,491.12 555.92,487.44 558.87,484.54 561.81,481.96 564.75,479.38 567.71,476.80 570.65,475.04 573.59,474.37 576.54,473.69 579.48,473.01 582.42,472.66 585.38,474.23 588.32,475.80 591.26,477.37 594.21,478.94 597.16,481.88 600.10,485.04 603.05,488.20 605.99,491.37 608.93,494.55 611.89,497.74 614.83,500.93 617.77,504.12 620.72,506.90 623.66,508.64 626.60,510.38 629.56,512.12 632.50,513.86 635.44,513.17 638.40,512.49 641.34,511.80 644.28,511.11 647.23,509.66 650.17,507.90 653.11,506.13 656.07,504.37 659.01,503.14 661.95,502.63 664.90,502.11 667.84,501.59 670.79,501.24 673.74,501.88 676.68,502.52 679.62,503.17 682.58,503.81 685.52,504.72 688.46,505.67 691.41,506.62 694.35,507.58 697.29,508.53 700.25,509.48 703.19,510.43 706.13,511.38 709.08,512.28 712.03,513.05 714.97,513.83 717.92,514.61 720.86,515.38 723.80,515.83 726.76,516.28 729.70,516.73 732.64,517.17 735.59,517.33 738.53,517.37 741.48,517.41 744.43,517.45 747.37,517.37 750.31,517.12 753.27,516.87 756.21,516.62 759.15,516.37 762.10,516.04 765.04,515.70 767.98,515.37 770.94,515.05 773.88,514.78 776.82,514.52 779.77,514.26 782.72,514.00 785.66,514.16 788.61,514.64 791.55,515.12 794.49,515.60 797.45,516.76 800.39,519.63 803.33,522.50 806.28,525.37 809.22,528.24 812.17,534.02 815.12,539.79 818.06,545.57 821.00,551.35 823.96,557.49 826.90,563.77 829.84,570.05 832.79,576.34 835.73,581.72 838.67,585.92 841.63,590.12 844.57,594.31 847.51,598.17 850.46,599.99 853.41,601.80 856.35,603.61 859.30,605.43 862.24,605.92 865.18,606.19 868.14,606.47 871.08,606.74 874.02,606.49 876.97,605.83 879.91,605.17 882.85,604.51 885.81,603.64 888.75,602.22 891.69,600.80 894.65,599.39 897.59,597.97 900.53,596.20 903.48,594.43 906.42,592.66 909.36,590.89 912.32,589.33 915.26,587.85 918.20,586.37 921.15,584.89 924.09,583.51 927.04,582.29 929.99,581.06 932.93,579.83 935.87,578.59 938.83,577.26 941.77,575.93 944.71,574.60 947.66,573.27 950.60,571.69 953.54,570.08 956.50,568.46 959.44,566.85 962.38,564.98 965.33,562.91 968.28,560.85 971.22,558.79 974.17,556.55 977.11,553.88 980.05,551.21 983.01,548.54 985.95,545.87 988.89,542.40 991.84,538.94 994.78,535.48 997.73,532.01 1000.68,527.82 1003.62,523.34 1006.56,518.86 1009.52,514.37 1012.46,509.46 1015.40,503.96 1018.35,498.46 1021.29,492.96 1024.23,487.42 1027.19,481.60 1030.13,475.79 1033.07,469.98 1036.02,464.17 1038.97,458.75 1041.91,453.39 1044.86,448.04 1047.80,442.69 1050.74,454.42 1053.70,478.96 1056.64,503.51 1059.58,528.05 1062.53,553.31 1065.47,580.37 1068.42,607.43 1071.37,634.49 1074.31,661.55" fill="none" stroke="#000000" stroke-width="3"/>
<line x1="142" y1="100" x2="178" y2="100" stroke="#000000" stroke-width="4"/>
<text x="188" y="105" font-family="Arial" font-size="18" fill="black">vorticity:1</text>
</svg>