<svg xmlns="http://www.w3.org/2000/svg" width="1200" height="820" viewBox="0 0 1200 820">
<rect width="100%" height="100%" fill="white"/>
<text x="600.0" y="36" text-anchor="middle" font-family="Arial" font-size="24" fill="black">profile_center_z: U, V, W components</text>
<line x1="120.00" y1="75" x2="120.00" y2="705" stroke="#dddddd" stroke-width="1"/>
<text x="120.00" y="737" text-anchor="middle" font-family="Arial" font-size="16" fill="black">-0.240</text>
<line x1="376.25" y1="75" x2="376.25" y2="705" stroke="#dddddd" stroke-width="1"/>
<text x="376.25" y="737" text-anchor="middle" font-family="Arial" font-size="16" fill="black">0.630</text>
<line x1="632.50" y1="75" x2="632.50" y2="705" stroke="#dddddd" stroke-width="1"/>
<text x="632.50" y="737" text-anchor="middle" font-family="Arial" font-size="16" fill="black">1.500</text>
<line x1="888.75" y1="75" x2="888.75" y2="705" stroke="#dddddd" stroke-width="1"/>
<text x="888.75" y="737" text-anchor="middle" font-family="Arial" font-size="16" fill="black">2.370</text>
<line x1="1145.00" y1="75" x2="1145.00" y2="705" stroke="#dddddd" stroke-width="1"/>
<text x="1145.00" y="737" text-anchor="middle" font-family="Arial" font-size="16" fill="black">3.240</text>
<line x1="120" y1="705.00" x2="1145" y2="705.00" stroke="#dddddd" stroke-width="1"/>
<text x="104" y="710.00" text-anchor="end" font-family="Arial" font-size="16" fill="black">-0.150</text>
<line x1="120" y1="547.50" x2="1145" y2="547.50" stroke="#dddddd" stroke-width="1"/>
<text x="104" y="552.50" text-anchor="end" font-family="Arial" font-size="16" fill="black">0.018</text>
<line x1="120" y1="390.00" x2="1145" y2="390.00" stroke="#dddddd" stroke-width="1"/>
<text x="104" y="395.00" text-anchor="end" font-family="Arial" font-size="16" fill="black">0.186</text>
<line x1="120" y1="232.50" x2="1145" y2="232.50" stroke="#dddddd" stroke-width="1"/>
<text x="104" y="237.50" text-anchor="end" font-family="Arial" font-size="16" fill="black">0.354</text>
<line x1="120" y1="75.00" x2="1145" y2="75.00" stroke="#dddddd" stroke-width="1"/>
<text x="104" y="80.00" text-anchor="end" font-family="Arial" font-size="16" fill="black">0.523</text>
<rect x="120" y="75" width="1025" height="630" fill="none" stroke="black" stroke-width="2"/>
<text x="632.5" y="785" text-anchor="middle" font-family="Arial" font-size="20" fill="black">z coordinate [m]</text>
<text x="34" y="390.0" transform="rotate(-90 34 390.0)" text-anchor="middle" font-family="Arial" font-size="20" fill="black">velocity component [m/s]</text>
<polyline points="190.69,546.78 193.64,545.89 196.58,544.99 199.53,544.09 202.47,543.19 205.42,542.29 208.36,541.39 211.31,540.50 214.25,539.60 217.20,538.70 220.14,537.80 223.09,536.05 226.03,534.30 228.98,532.56 231.93,530.81 234.87,529.06 237.82,527.31 240.76,525.56 243.71,523.82 246.65,522.07 249.60,520.32 252.54,518.53 255.49,516.74 258.43,514.94 261.38,513.15 264.32,511.36 267.27,509.57 270.22,507.78 273.16,505.98 276.11,504.19 279.05,502.40 282.00,501.11 284.94,499.82 287.89,498.53 290.83,497.23 293.78,495.94 296.72,494.65 299.67,493.36 302.61,492.07 305.56,490.77 308.51,489.48 311.45,490.16 314.40,490.83 317.34,491.50 320.29,492.18 323.23,492.85 326.18,493.53 329.12,494.20 332.07,494.88 335.01,495.55 337.96,496.22 340.91,498.87 343.85,501.53 346.80,504.18 349.74,506.83 352.69,509.48 355.63,512.13 358.58,514.79 361.52,517.44 364.47,520.09 367.41,522.74 370.36,525.80 373.30,528.86 376.25,531.91 379.20,534.97 382.14,538.03 385.09,541.08 388.03,544.14 390.98,547.20 393.92,550.25 396.87,553.31 399.81,555.45 402.76,557.59 405.70,559.73 408.65,561.87 411.59,564.01 414.54,566.15 417.49,568.29 420.43,570.43 423.38,572.57 426.32,574.71 429.27,575.47 432.21,576.23 435.16,576.99 438.10,577.76 441.05,578.52 443.99,579.28 446.94,580.04 449.89,580.80 452.83,581.56 455.78,582.33 458.72,582.07 461.67,581.82 464.61,581.56 467.56,581.31 470.50,581.06 473.45,580.80 476.39,580.55 479.34,580.29 482.28,580.04 485.23,579.79 488.18,579.09 491.12,578.39 494.07,577.70 497.01,577.00 499.96,576.31 502.90,575.61 505.85,574.91 508.79,574.22 511.74,573.52 514.68,572.83 517.63,572.09 520.57,571.36 523.52,570.63 526.47,569.89 529.41,569.16 532.36,568.43 535.30,567.69 538.25,566.96 541.19,566.23 544.14,565.49 547.08,564.92 550.03,564.34 552.97,563.77 555.92,563.19 558.86,562.62 561.81,562.04 564.76,561.47 567.70,560.90 570.65,560.32 573.59,559.75 576.54,559.42 579.48,559.09 582.43,558.76 585.37,558.44 588.32,558.11 591.26,557.78 594.21,557.45 597.16,557.13 600.10,556.80 603.05,556.47 605.99,556.41 608.94,556.36 611.88,556.30 614.83,556.24 617.77,556.19 620.72,556.13 623.66,556.07 626.61,556.01 629.55,555.96 632.50,555.90 635.45,556.08 638.39,556.27 641.34,556.46 644.28,556.64 647.23,556.83 650.17,557.01 653.12,557.20 656.06,557.39 659.01,557.57 661.95,557.76 664.90,558.12 667.84,558.49 670.79,558.85 673.74,559.22 676.68,559.58 679.63,559.95 682.57,560.32 685.52,560.68 688.46,561.05 691.41,561.41 694.35,561.87 697.30,562.32 700.24,562.77 703.19,563.23 706.14,563.68 709.08,564.14 712.03,564.59 714.97,565.04 717.92,565.50 720.86,565.95 723.81,566.39 726.75,566.83 729.70,567.27 732.64,567.71 735.59,568.15 738.53,568.60 741.48,569.04 744.43,569.48 747.37,569.92 750.32,570.36 753.26,570.69 756.21,571.03 759.15,571.36 762.10,571.69 765.04,572.03 767.99,572.36 770.93,572.70 773.88,573.03 776.82,573.36 779.77,573.70 782.72,573.86 785.66,574.03 788.61,574.19 791.55,574.35 794.50,574.52 797.44,574.68 800.39,574.85 803.33,575.01 806.28,575.18 809.22,575.34 812.17,575.32 815.11,575.29 818.06,575.27 821.01,575.24 823.95,575.22 826.90,575.20 829.84,575.17 832.79,575.15 835.73,575.12 838.68,575.10 841.62,574.91 844.57,574.72 847.51,574.54 850.46,574.35 853.41,574.16 856.35,573.97 859.30,573.79 862.24,573.60 865.19,573.41 868.13,573.22 871.08,572.94 874.02,572.65 876.97,572.36 879.91,572.07 882.86,571.78 885.80,571.50 888.75,571.21 891.70,570.92 894.64,570.63 897.59,570.35 900.53,570.07 903.48,569.80 906.42,569.52 909.37,569.25 912.31,568.97 915.26,568.69 918.20,568.42 921.15,568.14 924.09,567.87 927.04,567.59 929.99,567.50 932.93,567.40 935.88,567.31 938.82,567.21 941.77,567.11 944.71,567.02 947.66,566.92 950.60,566.82 953.55,566.73 956.49,566.63 959.44,566.94 962.39,567.24 965.33,567.55 968.28,567.85 971.22,568.16 974.17,568.46 977.11,568.77 980.06,569.08 983.00,569.38 985.95,569.69 988.89,570.73 991.84,571.78 994.78,572.83 997.73,573.88 1000.68,574.93 1003.62,575.97 1006.57,577.02 1009.51,578.07 1012.46,579.12 1015.40,580.17 1018.35,582.69 1021.29,585.22 1024.24,587.74 1027.18,590.27 1030.13,592.80 1033.07,595.32 1036.02,597.85 1038.97,600.37 1041.91,602.90 1044.86,605.43 1047.80,607.19 1050.75,608.95 1053.69,610.72 1056.64,612.48 1059.58,614.24 1062.53,616.01 1065.47,617.77 1068.42,619.53 1071.36,621.30 1074.31,623.06" fill="none" stroke="#000000" stroke-width="3"/>
<line x1="142" y1="100" x2="178" y2="100" stroke="#000000" stroke-width="4"/>
<text x="188" y="105" font-family="Arial" font-size="18" fill="black">Ux / u</text>
<polyline points="190.69,585.24 193.64,586.20 196.58,587.17 199.53,588.13 202.47,589.09 205.42,590.06 208.36,591.02 211.31,591.98 214.25,592.95 217.20,593.91 220.14,594.87 223.09,596.65 226.03,598.43 228.98,600.21 231.93,601.99 234.87,603.77 237.82,605.55 240.76,607.33 243.71,609.11 246.65,610.89 249.60,612.67 252.54,613.73 255.49,614.79 258.43,615.85 261.38,616.90 264.32,617.96 267.27,619.02 270.22,620.07 273.16,621.13 276.11,622.19 279.05,623.25 282.00,621.33 284.94,619.42 287.89,617.50 290.83,615.59 293.78,613.67 296.72,611.76 299.67,609.84 302.61,607.93 305.56,606.01 308.51,604.10 311.45,599.49 314.40,594.89 317.34,590.28 320.29,585.68 323.23,581.07 326.18,576.47 329.12,571.86 332.07,567.26 335.01,562.65 337.96,558.05 340.91,553.47 343.85,548.88 346.80,544.30 349.74,539.72 352.69,535.14 355.63,530.56 358.58,525.98 361.52,521.40 364.47,516.82 367.41,512.24 370.36,508.38 373.30,504.52 376.25,500.66 379.20,496.80 382.14,492.95 385.09,489.09 388.03,485.23 390.98,481.37 393.92,477.51 396.87,473.66 399.81,470.71 402.76,467.76 405.70,464.82 408.65,461.87 411.59,458.92 414.54,455.98 417.49,453.03 420.43,450.09 423.38,447.14 426.32,444.20 429.27,442.17 432.21,440.16 435.16,438.15 438.10,436.13 441.05,434.11 443.99,432.10 446.94,430.08 449.89,428.07 452.83,426.05 455.78,424.03 458.72,422.76 461.67,421.48 464.61,420.21 467.56,418.94 470.50,417.66 473.45,416.39 476.39,415.12 479.34,413.84 482.28,412.57 485.23,411.29 488.18,410.60 491.12,409.90 494.07,409.20 497.01,408.50 499.96,407.80 502.90,407.11 505.85,406.41 508.79,405.70 511.74,405.01 514.68,404.31 517.63,404.05 520.57,403.79 523.52,403.54 526.47,403.28 529.41,403.02 532.36,402.77 535.30,402.51 538.25,402.26 541.19,401.99 544.14,401.74 547.08,401.82 550.03,401.88 552.97,401.96 555.92,402.02 558.86,402.10 561.81,402.17 564.76,402.24 567.70,402.31 570.65,402.39 573.59,402.45 576.54,402.78 579.48,403.11 582.43,403.44 585.37,403.75 588.32,404.08 591.26,404.41 594.21,404.74 597.16,405.06 600.10,405.38 603.05,405.71 605.99,406.25 608.94,406.78 611.88,407.30 614.83,407.84 617.77,408.37 620.72,408.91 623.66,409.43 626.61,409.96 629.55,410.50 632.50,411.03 635.45,411.73 638.39,412.42 641.34,413.11 644.28,413.80 647.23,414.50 650.17,415.19 653.12,415.89 656.06,416.59 659.01,417.28 661.95,417.97 664.90,418.80 667.84,419.61 670.79,420.44 673.74,421.25 676.68,422.07 679.63,422.89 682.57,423.71 685.52,424.54 688.46,425.35 691.41,426.18 694.35,427.10 697.30,428.00 700.24,428.92 703.19,429.84 706.14,430.76 709.08,431.68 712.03,432.59 714.97,433.51 717.92,434.42 720.86,435.34 723.81,436.33 726.75,437.32 729.70,438.31 732.64,439.30 735.59,440.29 738.53,441.28 741.48,442.27 744.43,443.26 747.37,444.25 750.32,445.24 753.26,446.29 756.21,447.33 759.15,448.38 762.10,449.41 765.04,450.46 767.99,451.50 770.93,452.55 773.88,453.59 776.82,454.64 779.77,455.68 782.72,456.77 785.66,457.85 788.61,458.93 791.55,460.02 794.50,461.10 797.44,462.19 800.39,463.27 803.33,464.35 806.28,465.44 809.22,466.52 812.17,467.63 815.11,468.75 818.06,469.85 821.01,470.96 823.95,472.08 826.90,473.19 829.84,474.30 832.79,475.41 835.73,476.52 838.68,477.63 841.62,478.77 844.57,479.91 847.51,481.04 850.46,482.18 853.41,483.31 856.35,484.45 859.30,485.59 862.24,486.72 865.19,487.86 868.13,489.00 871.08,490.16 874.02,491.32 876.97,492.49 879.91,493.65 882.86,494.81 885.80,495.98 888.75,497.14 891.70,498.31 894.64,499.47 897.59,500.63 900.53,501.81 903.48,502.99 906.42,504.18 909.37,505.36 912.31,506.54 915.26,507.72 918.20,508.90 921.15,510.08 924.09,511.26 927.04,512.44 929.99,513.57 932.93,514.69 935.88,515.82 938.82,516.94 941.77,518.07 944.71,519.19 947.66,520.32 950.60,521.44 953.55,522.57 956.49,523.69 959.44,524.54 962.39,525.38 965.33,526.22 968.28,527.07 971.22,527.91 974.17,528.76 977.11,529.60 980.06,530.44 983.00,531.29 985.95,532.13 988.89,532.11 991.84,532.09 994.78,532.06 997.73,532.04 1000.68,532.02 1003.62,532.00 1006.57,531.97 1009.51,531.95 1012.46,531.93 1015.40,531.91 1018.35,529.17 1021.29,526.43 1024.24,523.69 1027.18,520.95 1030.13,518.21 1033.07,515.48 1036.02,512.74 1038.97,510.00 1041.91,507.26 1044.86,504.53 1047.80,502.12 1050.75,499.71 1053.69,497.31 1056.64,494.91 1059.58,492.50 1062.53,490.10 1065.47,487.69 1068.42,485.29 1071.36,482.88 1074.31,480.48" fill="none" stroke="#555555" stroke-width="3" stroke-dasharray="9 5"/>
<line x1="142" y1="128" x2="178" y2="128" stroke="#555555" stroke-width="4" stroke-dasharray="9 5"/>
<text x="188" y="133" font-family="Arial" font-size="18" fill="black">Uy / v</text>
<polyline points="190.69,118.45 193.64,122.20 196.58,125.95 199.53,129.70 202.47,133.45 205.42,137.20 208.36,140.96 211.31,144.70 214.25,148.45 217.20,152.20 220.14,155.95 223.09,165.70 226.03,175.44 228.98,185.18 231.93,194.93 234.87,204.67 237.82,214.42 240.76,224.17 243.71,233.91 246.65,243.65 249.60,253.40 252.54,267.31 255.49,281.22 258.43,295.14 261.38,309.06 264.32,322.98 267.27,336.90 270.22,350.82 273.16,364.73 276.11,378.64 279.05,392.56 282.00,408.10 284.94,423.64 287.89,439.18 290.83,454.71 293.78,470.25 296.72,485.78 299.67,501.32 302.61,516.86 305.56,532.40 308.51,547.93 311.45,557.21 314.40,566.49 317.34,575.77 320.29,585.05 323.23,594.33 326.18,603.61 329.12,612.89 332.07,622.17 335.01,631.46 337.96,640.74 340.91,642.82 343.85,644.90 346.80,646.98 349.74,649.06 352.69,651.14 355.63,653.22 358.58,655.31 361.52,657.39 364.47,659.47 367.41,661.55 370.36,660.94 373.30,660.33 376.25,659.73 379.20,659.12 382.14,658.51 385.09,657.90 388.03,657.29 390.98,656.68 393.92,656.07 396.87,655.46 399.81,652.84 402.76,650.21 405.70,647.59 408.65,644.97 411.59,642.35 414.54,639.72 417.49,637.10 420.43,634.48 423.38,631.86 426.32,629.23 429.27,625.96 432.21,622.69 435.16,619.41 438.10,616.14 441.05,612.86 443.99,609.59 446.94,606.32 449.89,603.04 452.83,599.77 455.78,596.49 458.72,593.26 461.67,590.02 464.61,586.78 467.56,583.55 470.50,580.31 473.45,577.07 476.39,573.84 479.34,570.60 482.28,567.36 485.23,564.13 488.18,561.18 491.12,558.23 494.07,555.29 497.01,552.34 499.96,549.40 502.90,546.45 505.85,543.51 508.79,540.56 511.74,537.61 514.68,534.67 517.63,532.02 520.57,529.38 523.52,526.73 526.47,524.08 529.41,521.44 532.36,518.79 535.30,516.15 538.25,513.50 541.19,510.86 544.14,508.21 547.08,505.77 550.03,503.33 552.97,500.89 555.92,498.45 558.86,496.01 561.81,493.57 564.76,491.13 567.70,488.69 570.65,486.25 573.59,483.81 576.54,481.52 579.48,479.23 582.43,476.94 585.37,474.65 588.32,472.36 591.26,470.07 594.21,467.78 597.16,465.49 600.10,463.20 603.05,460.92 605.99,458.75 608.94,456.60 611.88,454.44 614.83,452.29 617.77,450.14 620.72,447.98 623.66,445.82 626.61,443.66 629.55,441.51 632.50,439.36 635.45,437.35 638.39,435.35 641.34,433.33 644.28,431.33 647.23,429.32 650.17,427.32 653.12,425.32 656.06,423.31 659.01,421.31 661.95,419.30 664.90,417.50 667.84,415.71 670.79,413.91 673.74,412.11 676.68,410.31 679.63,408.51 682.57,406.71 685.52,404.91 688.46,403.11 691.41,401.31 694.35,399.81 697.30,398.31 700.24,396.81 703.19,395.31 706.14,393.81 709.08,392.31 712.03,390.80 714.97,389.30 717.92,387.80 720.86,386.31 723.81,385.21 726.75,384.11 729.70,383.03 732.64,381.93 735.59,380.84 738.53,379.75 741.48,378.65 744.43,377.57 747.37,376.47 750.32,375.37 753.26,374.81 756.21,374.24 759.15,373.68 762.10,373.11 765.04,372.55 767.99,371.97 770.93,371.41 773.88,370.84 776.82,370.28 779.77,369.71 782.72,369.76 785.66,369.83 788.61,369.89 791.55,369.94 794.50,370.00 797.44,370.06 800.39,370.12 803.33,370.18 806.28,370.23 809.22,370.29 812.17,371.04 815.11,371.78 818.06,372.53 821.01,373.27 823.95,374.02 826.90,374.76 829.84,375.50 832.79,376.25 835.73,376.99 838.68,377.73 841.62,379.17 844.57,380.61 847.51,382.05 850.46,383.49 853.41,384.93 856.35,386.37 859.30,387.80 862.24,389.25 865.19,390.69 868.13,392.12 871.08,394.21 874.02,396.31 876.97,398.40 879.91,400.49 882.86,402.57 885.80,404.66 888.75,406.75 891.70,408.84 894.64,410.93 897.59,413.02 900.53,415.66 903.48,418.30 906.42,420.93 909.37,423.57 912.31,426.21 915.26,428.86 918.20,431.50 921.15,434.14 924.09,436.78 927.04,439.42 929.99,442.46 932.93,445.49 935.88,448.53 938.82,451.57 941.77,454.61 944.71,457.65 947.66,460.69 950.60,463.73 953.55,466.76 956.49,469.81 959.44,472.99 962.39,476.18 965.33,479.37 968.28,482.56 971.22,485.75 974.17,488.94 977.11,492.13 980.06,495.32 983.00,498.51 985.95,501.70 988.89,504.81 991.84,507.91 994.78,511.01 997.73,514.12 1000.68,517.22 1003.62,520.33 1006.57,523.43 1009.51,526.54 1012.46,529.64 1015.40,532.74 1018.35,534.71 1021.29,536.67 1024.24,538.63 1027.18,540.59 1030.13,542.56 1033.07,544.52 1036.02,546.48 1038.97,548.45 1041.91,550.41 1044.86,552.37 1047.80,552.82 1050.75,553.27 1053.69,553.73 1056.64,554.18 1059.58,554.63 1062.53,555.08 1065.47,555.53 1068.42,555.99 1071.36,556.44 1074.31,556.89" fill="none" stroke="#999999" stroke-width="3" stroke-dasharray="3 4"/>
<line x1="142" y1="156" x2="178" y2="156" stroke="#999999" stroke-width="4" stroke-dasharray="3 4"/>
<text x="188" y="161" font-family="Arial" font-size="18" fill="black">Uz / w</text>
</svg>