<svg xmlns="http://www.w3.org/2000/svg" width="1200" height="820" viewBox="0 0 1200 820">
<rect width="100%" height="100%" fill="white"/>
<text x="600.0" y="36" text-anchor="middle" font-family="Arial" font-size="24" fill="black">profile_near_floor_x: p_rgh</text>
<line x1="120.00" y1="75" x2="120.00" y2="705" stroke="#dddddd" stroke-width="1"/>
<text x="120.00" y="737" text-anchor="middle" font-family="Arial" font-size="16" fill="black">-0.560</text>
<line x1="376.25" y1="75" x2="376.25" y2="705" stroke="#dddddd" stroke-width="1"/>
<text x="376.25" y="737" text-anchor="middle" font-family="Arial" font-size="16" fill="black">1.470</text>
<line x1="632.50" y1="75" x2="632.50" y2="705" stroke="#dddddd" stroke-width="1"/>
<text x="632.50" y="737" text-anchor="middle" font-family="Arial" font-size="16" fill="black">3.500</text>
<line x1="888.75" y1="75" x2="888.75" y2="705" stroke="#dddddd" stroke-width="1"/>
<text x="888.75" y="737" text-anchor="middle" font-family="Arial" font-size="16" fill="black">5.530</text>
<line x1="1145.00" y1="75" x2="1145.00" y2="705" stroke="#dddddd" stroke-width="1"/>
<text x="1145.00" y="737" text-anchor="middle" font-family="Arial" font-size="16" fill="black">7.560</text>
<line x1="120" y1="705.00" x2="1145" y2="705.00" stroke="#dddddd" stroke-width="1"/>
<text x="104" y="710.00" text-anchor="end" font-family="Arial" font-size="16" fill="black">0.341</text>
<line x1="120" y1="547.50" x2="1145" y2="547.50" stroke="#dddddd" stroke-width="1"/>
<text x="104" y="552.50" text-anchor="end" font-family="Arial" font-size="16" fill="black">0.505</text>
<line x1="120" y1="390.00" x2="1145" y2="390.00" stroke="#dddddd" stroke-width="1"/>
<text x="104" y="395.00" text-anchor="end" font-family="Arial" font-size="16" fill="black">0.668</text>
<line x1="120" y1="232.50" x2="1145" y2="232.50" stroke="#dddddd" stroke-width="1"/>
<text x="104" y="237.50" text-anchor="end" font-family="Arial" font-size="16" fill="black">0.831</text>
<line x1="120" y1="75.00" x2="1145" y2="75.00" stroke="#dddddd" stroke-width="1"/>
<text x="104" y="80.00" text-anchor="end" font-family="Arial" font-size="16" fill="black">0.995</text>
<rect x="120" y="75" width="1025" height="630" fill="none" stroke="black" stroke-width="2"/>
<text x="632.5" y="785" text-anchor="middle" font-family="Arial" font-size="20" fill="black">x coordinate [m]</text>
<text x="34" y="390.0" transform="rotate(-90 34 390.0)" text-anchor="middle" font-family="Arial" font-size="20" fill="black">p_rgh [Pa]</text>
<polyline points="190.69,421.23 193.64,422.28 196.58,423.33 199.53,424.37 202.47,425.41 205.42,427.04 208.36,428.89 211.31,430.75 214.25,432.60 217.20,434.34 220.14,435.95 223.09,437.56 226.03,439.16 228.98,440.70 231.93,441.78 234.87,442.87 237.82,443.96 240.76,445.06 243.71,444.91 246.65,444.55 249.60,444.19 252.54,443.83 255.49,442.11 258.43,439.37 261.38,436.62 264.32,433.88 267.27,430.29 270.22,424.57 273.16,418.84 276.11,413.13 279.05,407.41 282.00,399.51 284.94,391.60 287.89,383.68 290.83,375.78 293.78,366.00 296.72,355.50 299.67,344.99 302.62,334.48 305.56,320.20 308.51,300.89 311.45,281.59 314.40,262.28 317.34,243.06 320.29,224.40 323.23,205.73 326.17,187.06 329.13,168.40 332.07,158.98 335.01,151.11 337.96,143.24 340.91,135.37 343.85,130.29 346.80,127.32 349.74,124.34 352.68,121.37 355.64,119.18 358.58,119.00 361.52,118.81 364.47,118.63 367.41,118.45 370.35,120.58 373.31,122.70 376.25,124.83 379.19,126.96 382.15,130.68 385.09,135.04 388.03,139.39 390.98,143.76 393.92,149.48 396.86,157.02 399.82,164.56 402.76,172.10 405.70,180.35 408.65,192.87 411.59,205.38 414.54,217.90 417.49,230.42 420.43,241.82 423.37,253.02 426.33,264.23 429.27,275.43 432.21,283.28 435.16,288.63 438.10,293.97 441.04,299.32 444.00,304.09 446.94,307.43 449.88,310.77 452.83,314.11 455.78,317.45 458.72,319.55 461.67,321.65 464.61,323.75 467.55,325.84 470.51,327.09 473.45,327.99 476.39,328.89 479.34,329.80 482.28,330.84 485.23,332.07 488.18,333.29 491.12,334.51 494.06,335.81 497.02,337.50 499.96,339.20 502.90,340.89 505.85,342.58 508.79,342.92 511.73,343.02 514.69,343.14 517.63,343.25 520.57,341.54 523.52,338.47 526.47,335.40 529.41,332.33 532.36,328.40 535.30,322.36 538.24,316.32 541.20,310.27 544.14,304.23 547.08,296.95 550.03,289.66 552.97,282.39 555.92,275.10 558.87,267.20 561.81,259.03 564.75,250.87 567.71,242.71 570.65,233.07 573.59,221.46 576.54,209.84 579.48,198.23 582.42,186.84 585.38,176.73 588.32,166.61 591.26,156.50 594.21,146.40 597.16,141.61 600.10,137.72 603.05,133.82 605.99,129.93 608.93,127.79 611.89,126.97 614.83,126.15 617.77,125.33 620.72,125.08 623.66,126.26 626.60,127.43 629.56,128.61 632.50,129.78 635.44,133.38 638.40,136.96 641.34,140.56 644.28,144.15 647.23,149.96 650.17,156.67 653.11,163.38 656.07,170.08 659.01,178.85 661.95,190.33 664.90,201.81 667.84,213.29 670.79,225.63 673.74,243.15 676.68,260.67 679.62,278.18 682.58,295.70 685.52,310.96 688.46,325.84 691.41,340.72 694.35,355.60 697.29,366.86 700.25,375.41 703.19,383.95 706.13,392.49 709.08,400.28 712.03,406.15 714.97,412.03 717.92,417.91 720.86,423.78 723.80,425.71 726.76,427.63 729.70,429.54 732.64,431.47 735.59,431.29 738.53,430.27 741.48,429.24 744.43,428.22 747.37,426.71 750.31,424.54 753.27,422.36 756.21,420.19 759.15,418.03 762.10,415.93 765.04,413.83 767.98,411.73 770.94,409.63 773.88,407.42 776.82,405.21 779.77,402.98 782.72,400.76 785.66,398.12 788.61,395.18 791.55,392.23 794.49,389.28 797.45,386.43 800.39,383.79 803.33,381.14 806.28,378.50 809.22,375.85 812.17,374.17 815.12,372.47 818.06,370.78 821.00,369.09 823.96,366.87 826.90,364.43 829.84,361.99 832.79,359.56 835.73,354.83 838.67,347.05 841.63,339.28 844.57,331.52 847.51,323.54 850.46,314.27 853.41,305.02 856.35,295.76 859.30,286.50 862.24,281.08 865.18,276.30 868.14,271.52 871.08,266.74 874.02,263.56 876.97,261.60 879.91,259.62 882.85,257.64 885.81,256.27 888.75,256.40 891.69,256.54 894.65,256.66 897.59,256.79 900.53,259.16 903.48,261.52 906.42,263.88 909.36,266.25 912.32,270.65 915.26,275.85 918.20,281.06 921.15,286.26 924.09,293.52 927.04,303.50 929.99,313.47 932.93,323.46 935.87,334.62 938.83,352.90 941.77,371.18 944.71,389.46 947.66,407.74 950.60,426.13 953.54,444.54 956.50,462.95 959.44,481.37 962.38,496.24 965.33,508.47 968.28,520.69 971.22,532.91 974.17,544.67 977.11,555.26 980.05,565.86 983.01,576.45 985.95,587.05 988.89,595.68 991.84,604.32 994.78,612.94 997.73,621.58 1000.68,627.94 1003.62,633.40 1006.56,638.84 1009.52,644.30 1012.46,648.57 1015.40,651.24 1018.35,653.92 1021.29,656.60 1024.23,658.99 1027.19,659.62 1030.13,660.27 1033.07,660.92 1036.02,661.55 1038.97,661.08 1041.91,660.41 1044.86,659.76 1047.80,659.09 1050.74,657.74 1053.70,655.88 1056.64,654.02 1059.58,652.16 1062.53,650.46 1065.47,649.13 1068.42,647.80 1071.37,646.47 1074.31,645.14" fill="none" stroke="#000000" stroke-width="3"/>
<line x1="142" y1="100" x2="178" y2="100" stroke="#000000" stroke-width="4"/>
<text x="188" y="105" font-family="Arial" font-size="18" fill="black">p_rgh</text>
</svg>