<svg xmlns="http://www.w3.org/2000/svg" width="1200" height="820" viewBox="0 0 1200 820">
<rect width="100%" height="100%" fill="white"/>
<text x="600.0" y="36" text-anchor="middle" font-family="Arial" font-size="24" fill="black">profile_rack_height_x: epsilon</text>
<line x1="120.00" y1="75" x2="120.00" y2="705" stroke="#dddddd" stroke-width="1"/>
<text x="120.00" y="737" text-anchor="middle" font-family="Arial" font-size="16" fill="black">-0.560</text>
<line x1="376.25" y1="75" x2="376.25" y2="705" stroke="#dddddd" stroke-width="1"/>
<text x="376.25" y="737" text-anchor="middle" font-family="Arial" font-size="16" fill="black">1.470</text>
<line x1="632.50" y1="75" x2="632.50" y2="705" stroke="#dddddd" stroke-width="1"/>
<text x="632.50" y="737" text-anchor="middle" font-family="Arial" font-size="16" fill="black">3.500</text>
<line x1="888.75" y1="75" x2="888.75" y2="705" stroke="#dddddd" stroke-width="1"/>
<text x="888.75" y="737" text-anchor="middle" font-family="Arial" font-size="16" fill="black">5.530</text>
<line x1="1145.00" y1="75" x2="1145.00" y2="705" stroke="#dddddd" stroke-width="1"/>
<text x="1145.00" y="737" text-anchor="middle" font-family="Arial" font-size="16" fill="black">7.560</text>
<line x1="120" y1="705.00" x2="1145" y2="705.00" stroke="#dddddd" stroke-width="1"/>
<text x="104" y="710.00" text-anchor="end" font-family="Arial" font-size="16" fill="black">0.001</text>
<line x1="120" y1="547.50" x2="1145" y2="547.50" stroke="#dddddd" stroke-width="1"/>
<text x="104" y="552.50" text-anchor="end" font-family="Arial" font-size="16" fill="black">0.008</text>
<line x1="120" y1="390.00" x2="1145" y2="390.00" stroke="#dddddd" stroke-width="1"/>
<text x="104" y="395.00" text-anchor="end" font-family="Arial" font-size="16" fill="black">0.015</text>
<line x1="120" y1="232.50" x2="1145" y2="232.50" stroke="#dddddd" stroke-width="1"/>
<text x="104" y="237.50" text-anchor="end" font-family="Arial" font-size="16" fill="black">0.022</text>
<line x1="120" y1="75.00" x2="1145" y2="75.00" stroke="#dddddd" stroke-width="1"/>
<text x="104" y="80.00" text-anchor="end" font-family="Arial" font-size="16" fill="black">0.029</text>
<rect x="120" y="75" width="1025" height="630" fill="none" stroke="black" stroke-width="2"/>
<text x="632.5" y="785" text-anchor="middle" font-family="Arial" font-size="20" fill="black">x coordinate [m]</text>
<text x="34" y="390.0" transform="rotate(-90 34 390.0)" text-anchor="middle" font-family="Arial" font-size="20" fill="black">epsilon [m2/s3]</text>
<polyline points="190.69,118.45 193.64,156.83 196.58,195.20 199.53,233.58 202.47,271.96 205.42,315.65 208.36,361.46 211.31,407.26 214.25,453.07 217.20,483.86 220.14,494.59 223.09,505.34 226.03,516.09 228.98,526.04 231.93,531.14 234.87,536.25 237.82,541.36 240.76,546.47 243.71,549.41 246.65,552.00 249.60,554.58 252.54,557.16 255.49,558.70 258.43,559.46 261.38,560.21 264.32,560.96 267.27,561.26 270.22,560.41 273.16,559.55 276.11,558.70 279.05,557.85 282.00,555.51 284.94,553.17 287.89,550.83 290.83,548.49 293.78,545.30 296.72,541.77 299.67,538.23 302.62,534.70 305.56,530.95 308.51,526.91 311.45,522.87 314.40,518.83 317.34,514.85 320.29,511.22 323.23,507.61 326.17,503.97 329.13,500.36 332.07,497.71 335.01,495.26 337.96,492.79 340.91,490.32 343.85,488.69 346.80,487.65 349.74,486.62 352.68,485.61 355.64,484.94 358.58,485.19 361.52,485.41 364.47,485.66 367.41,485.88 370.35,486.98 373.31,488.08 376.25,489.18 379.19,490.28 382.15,491.72 385.09,493.31 388.03,494.90 390.98,496.50 393.92,498.22 396.86,500.09 399.82,501.97 402.76,503.84 405.70,505.72 408.65,507.79 411.59,509.85 414.54,511.90 417.49,513.96 420.43,516.15 423.37,518.37 426.33,520.59 429.27,522.81 432.21,525.10 435.16,527.44 438.10,529.79 441.04,532.13 444.00,534.49 446.94,536.90 449.88,539.32 452.83,541.73 455.78,544.14 458.72,546.55 461.67,548.96 464.61,551.38 467.55,553.79 470.51,556.16 473.45,558.51 476.39,560.87 479.34,563.23 482.28,565.54 485.23,567.79 488.18,570.04 491.12,572.30 494.06,574.53 497.02,576.64 499.96,578.75 502.90,580.87 505.85,582.98 508.79,584.93 511.73,586.86 514.69,588.79 517.63,590.72 520.57,592.51 523.52,594.18 526.47,595.85 529.41,597.52 532.36,599.08 535.30,600.35 538.24,601.62 541.20,602.90 544.14,604.17 547.08,604.84 550.03,605.51 552.97,606.18 555.92,606.85 558.87,606.95 561.81,606.82 564.75,606.69 567.71,606.56 570.65,606.08 573.59,605.16 576.54,604.22 579.48,603.29 582.42,602.31 585.38,600.98 588.32,599.65 591.26,598.33 594.21,597.00 597.16,595.95 600.10,594.94 603.05,593.93 605.99,592.92 608.93,592.35 611.89,592.12 614.83,591.89 617.77,591.66 620.72,591.59 623.66,591.94 626.60,592.28 629.56,592.63 632.50,592.97 635.44,593.51 638.40,594.05 641.34,594.59 644.28,595.13 647.23,595.90 650.17,596.76 653.11,597.62 656.07,598.49 659.01,599.62 661.95,601.11 664.90,602.61 667.84,604.10 670.79,605.66 673.74,607.59 676.68,609.52 679.62,611.46 682.58,613.39 685.52,615.21 688.46,617.01 691.41,618.81 694.35,620.61 697.29,622.08 700.25,623.30 703.19,624.52 706.13,625.74 709.08,626.75 712.03,627.24 714.97,627.73 717.92,628.23 720.86,628.72 723.80,628.53 726.76,628.35 729.70,628.15 732.64,627.97 735.59,627.38 738.53,626.63 741.48,625.88 744.43,625.14 747.37,624.22 750.31,623.09 753.27,621.95 756.21,620.81 759.15,619.65 762.10,618.34 765.04,617.02 767.98,615.70 770.94,614.39 773.88,613.11 776.82,611.85 779.77,610.59 782.72,609.32 785.66,608.21 788.61,607.23 791.55,606.24 794.49,605.25 797.45,604.38 800.39,603.83 803.33,603.28 806.28,602.73 809.22,602.17 812.17,602.11 815.12,602.04 818.06,601.98 821.00,601.91 823.96,602.14 826.90,602.49 829.84,602.84 832.79,603.19 835.73,603.64 838.67,604.25 841.63,604.85 844.57,605.45 847.51,606.06 850.46,606.76 853.41,607.45 856.35,608.14 859.30,608.84 862.24,609.53 865.18,610.23 868.14,610.93 871.08,611.62 874.02,612.32 876.97,613.03 879.91,613.73 882.85,614.43 885.81,615.16 888.75,615.94 891.69,616.72 894.65,617.51 897.59,618.29 900.53,619.23 903.48,620.18 906.42,621.12 909.36,622.07 912.32,623.16 915.26,624.31 918.20,625.46 921.15,626.61 924.09,627.84 927.04,629.16 929.99,630.49 932.93,631.82 935.87,633.15 938.83,634.56 941.77,635.97 944.71,637.38 947.66,638.78 950.60,640.16 953.54,641.53 956.50,642.90 959.44,644.27 962.38,645.56 965.33,646.79 968.28,648.02 971.22,649.25 974.17,650.42 977.11,651.45 980.05,652.47 983.01,653.50 985.95,654.52 988.89,655.32 991.84,656.13 994.78,656.92 997.73,657.73 1000.68,658.36 1003.62,658.92 1006.56,659.49 1009.52,660.05 1012.46,660.49 1015.40,660.78 1018.35,661.06 1021.29,661.34 1024.23,661.55 1027.19,661.35 1030.13,661.16 1033.07,660.96 1036.02,660.76 1038.97,659.51 1041.91,658.08 1044.86,656.65 1047.80,655.21 1050.74,650.29 1053.70,642.74 1056.64,635.19 1059.58,627.65 1062.53,620.44 1065.47,614.07 1068.42,607.69 1071.37,601.32 1074.31,594.95" fill="none" stroke="#000000" stroke-width="3"/>
<line x1="142" y1="100" x2="178" y2="100" stroke="#000000" stroke-width="4"/>
<text x="188" y="105" font-family="Arial" font-size="18" fill="black">epsilon</text>
</svg>