<svg xmlns="http://www.w3.org/2000/svg" width="1200" height="820" viewBox="0 0 1200 820">
<rect width="100%" height="100%" fill="white"/>
<text x="600.0" y="36" text-anchor="middle" font-family="Arial" font-size="24" fill="black">profile_center_x: p_rgh</text>
<line x1="120.00" y1="75" x2="120.00" y2="705" stroke="#dddddd" stroke-width="1"/>
<text x="120.00" y="737" text-anchor="middle" font-family="Arial" font-size="16" fill="black">-0.560</text>
<line x1="376.25" y1="75" x2="376.25" y2="705" stroke="#dddddd" stroke-width="1"/>
<text x="376.25" y="737" text-anchor="middle" font-family="Arial" font-size="16" fill="black">1.470</text>
<line x1="632.50" y1="75" x2="632.50" y2="705" stroke="#dddddd" stroke-width="1"/>
<text x="632.50" y="737" text-anchor="middle" font-family="Arial" font-size="16" fill="black">3.500</text>
<line x1="888.75" y1="75" x2="888.75" y2="705" stroke="#dddddd" stroke-width="1"/>
<text x="888.75" y="737" text-anchor="middle" font-family="Arial" font-size="16" fill="black">5.530</text>
<line x1="1145.00" y1="75" x2="1145.00" y2="705" stroke="#dddddd" stroke-width="1"/>
<text x="1145.00" y="737" text-anchor="middle" font-family="Arial" font-size="16" fill="black">7.560</text>
<line x1="120" y1="705.00" x2="1145" y2="705.00" stroke="#dddddd" stroke-width="1"/>
<text x="104" y="710.00" text-anchor="end" font-family="Arial" font-size="16" fill="black">0.114</text>
<line x1="120" y1="547.50" x2="1145" y2="547.50" stroke="#dddddd" stroke-width="1"/>
<text x="104" y="552.50" text-anchor="end" font-family="Arial" font-size="16" fill="black">0.199</text>
<line x1="120" y1="390.00" x2="1145" y2="390.00" stroke="#dddddd" stroke-width="1"/>
<text x="104" y="395.00" text-anchor="end" font-family="Arial" font-size="16" fill="black">0.284</text>
<line x1="120" y1="232.50" x2="1145" y2="232.50" stroke="#dddddd" stroke-width="1"/>
<text x="104" y="237.50" text-anchor="end" font-family="Arial" font-size="16" fill="black">0.369</text>
<line x1="120" y1="75.00" x2="1145" y2="75.00" stroke="#dddddd" stroke-width="1"/>
<text x="104" y="80.00" text-anchor="end" font-family="Arial" font-size="16" fill="black">0.454</text>
<rect x="120" y="75" width="1025" height="630" fill="none" stroke="black" stroke-width="2"/>
<text x="632.5" y="785" text-anchor="middle" font-family="Arial" font-size="20" fill="black">x coordinate [m]</text>
<text x="34" y="390.0" transform="rotate(-90 34 390.0)" text-anchor="middle" font-family="Arial" font-size="20" fill="black">p_rgh [Pa]</text>
<polyline points="190.69,202.02 193.64,197.34 196.58,192.67 199.53,188.01 202.47,183.34 205.42,176.61 208.36,169.08 211.31,161.53 214.25,153.98 217.20,147.68 220.14,143.02 223.09,138.35 226.03,133.69 228.98,129.30 231.93,126.61 234.87,123.94 237.82,121.25 240.76,118.56 243.71,118.45 246.65,118.78 249.60,119.10 252.54,119.43 255.49,122.64 258.43,128.02 261.38,133.41 264.32,138.79 267.27,145.73 270.22,156.56 273.16,167.41 276.11,178.24 279.05,189.09 282.00,203.69 284.94,218.28 287.89,232.88 290.83,247.47 293.78,263.11 296.72,279.15 299.67,295.19 302.62,311.23 305.56,327.18 308.51,343.02 311.45,358.84 314.40,374.66 317.34,390.33 320.29,404.99 323.23,419.64 326.17,434.31 329.13,448.96 332.07,462.05 335.01,474.90 337.96,487.74 340.91,500.59 343.85,511.96 346.80,522.20 349.74,532.45 352.68,542.71 355.64,552.00 358.58,558.88 361.52,565.78 364.47,572.66 367.41,579.54 370.35,582.75 373.31,585.98 376.25,589.18 379.19,592.41 382.15,593.21 385.09,593.02 388.03,592.86 390.98,592.67 393.92,591.35 396.86,588.50 399.82,585.64 402.76,582.77 405.70,579.67 408.65,575.09 411.59,570.49 414.54,565.91 417.49,561.31 420.43,556.14 423.37,550.85 426.33,545.56 429.27,540.28 432.21,535.09 435.16,529.95 438.10,524.83 441.04,519.69 444.00,514.76 446.94,510.29 449.88,505.84 452.83,501.37 455.78,496.92 458.72,493.28 461.67,489.65 464.61,486.03 467.55,482.40 470.51,479.32 473.45,476.44 476.39,473.57 479.34,470.71 482.28,468.10 485.23,465.80 488.18,463.50 491.12,461.22 494.06,458.97 497.02,457.04 499.96,455.13 502.90,453.21 505.85,451.28 508.79,449.50 511.73,447.75 514.69,445.99 517.63,444.23 520.57,442.49 523.52,440.74 526.47,438.98 529.41,437.24 532.36,435.47 535.30,433.64 538.24,431.82 541.20,429.99 544.14,428.17 547.08,426.35 550.03,424.53 552.97,422.72 555.92,420.90 558.87,419.38 561.81,417.99 564.75,416.60 567.71,415.22 570.65,414.41 573.59,414.35 576.54,414.30 579.48,414.24 582.42,414.57 585.38,417.15 588.32,419.73 591.26,422.31 594.21,424.87 597.16,430.37 600.10,436.37 603.05,442.37 605.99,448.36 608.93,455.13 611.89,462.48 614.83,469.84 617.77,477.19 620.72,483.60 623.66,487.66 626.60,491.73 629.56,495.79 632.50,499.85 635.44,498.85 638.40,497.85 641.34,496.84 644.28,495.84 647.23,492.89 650.17,489.17 653.11,485.44 656.07,481.71 659.01,477.93 661.95,474.09 664.90,470.25 667.84,466.39 670.79,462.74 673.74,460.23 676.68,457.75 679.62,455.25 682.58,452.74 685.52,451.89 688.46,451.31 691.41,450.76 694.35,450.18 697.29,450.72 700.25,452.11 703.19,453.48 706.13,454.86 709.08,456.71 712.03,459.73 714.97,462.76 717.92,465.78 720.86,468.80 723.80,473.03 726.76,477.24 729.70,481.47 732.64,485.70 735.59,490.48 738.53,495.49 741.48,500.50 744.43,505.49 747.37,510.68 750.31,516.11 753.27,521.53 756.21,526.96 759.15,532.42 762.10,538.00 765.04,543.58 767.98,549.14 770.94,554.73 773.88,560.25 776.82,565.76 779.77,571.27 782.72,576.78 785.66,582.16 788.61,587.42 791.55,592.69 794.49,597.94 797.45,603.08 800.39,607.90 803.33,612.70 806.28,617.50 809.22,622.33 812.17,626.43 815.12,630.54 818.06,634.64 821.00,638.74 823.96,642.12 826.90,645.19 829.84,648.29 832.79,651.37 835.73,653.87 838.67,655.64 841.63,657.38 844.57,659.12 847.51,660.64 850.46,660.88 853.41,661.11 856.35,661.33 859.30,661.55 862.24,660.55 865.18,659.34 868.14,658.14 871.08,656.93 874.02,655.10 876.97,652.76 879.91,650.42 882.85,648.09 885.81,645.53 888.75,642.38 891.69,639.24 894.65,636.09 897.59,632.94 900.53,629.19 903.48,625.42 906.42,621.68 909.36,617.93 912.32,613.85 915.26,609.64 918.20,605.43 921.15,601.22 924.09,596.86 927.04,592.32 929.99,587.78 932.93,583.21 935.87,578.65 938.83,573.90 941.77,569.17 944.71,564.44 947.66,559.70 950.60,555.06 953.54,550.44 956.50,545.81 959.44,541.19 962.38,536.92 965.33,532.93 968.28,528.95 971.22,524.96 974.17,521.31 977.11,518.51 980.05,515.71 983.01,512.90 985.95,510.10 988.89,508.90 991.84,507.69 994.78,506.49 997.73,505.26 1000.68,505.32 1003.62,505.89 1006.56,506.45 1009.52,507.01 1012.46,508.36 1015.40,510.77 1018.35,513.18 1021.29,515.58 1024.23,518.26 1027.19,522.68 1030.13,527.07 1033.07,531.49 1036.02,535.88 1038.97,542.23 1041.91,548.90 1044.86,555.56 1047.80,562.24 1050.74,570.51 1053.70,579.99 1056.64,589.46 1059.58,598.94 1062.53,607.29 1065.47,612.81 1068.42,618.36 1071.37,623.88 1074.31,629.43" fill="none" stroke="#000000" stroke-width="3"/>
<line x1="142" y1="100" x2="178" y2="100" stroke="#000000" stroke-width="4"/>
<text x="188" y="105" font-family="Arial" font-size="18" fill="black">p_rgh</text>
</svg>