<svg xmlns="http://www.w3.org/2000/svg" width="1200" height="820" viewBox="0 0 1200 820">
<rect width="100%" height="100%" fill="white"/>
<text x="600.0" y="36" text-anchor="middle" font-family="Arial" font-size="24" fill="black">profile_center_z: alphat</text>
<line x1="120.00" y1="75" x2="120.00" y2="705" stroke="#dddddd" stroke-width="1"/>
<text x="120.00" y="737" text-anchor="middle" font-family="Arial" font-size="16" fill="black">-0.240</text>
<line x1="376.25" y1="75" x2="376.25" y2="705" stroke="#dddddd" stroke-width="1"/>
<text x="376.25" y="737" text-anchor="middle" font-family="Arial" font-size="16" fill="black">0.630</text>
<line x1="632.50" y1="75" x2="632.50" y2="705" stroke="#dddddd" stroke-width="1"/>
<text x="632.50" y="737" text-anchor="middle" font-family="Arial" font-size="16" fill="black">1.500</text>
<line x1="888.75" y1="75" x2="888.75" y2="705" stroke="#dddddd" stroke-width="1"/>
<text x="888.75" y="737" text-anchor="middle" font-family="Arial" font-size="16" fill="black">2.370</text>
<line x1="1145.00" y1="75" x2="1145.00" y2="705" stroke="#dddddd" stroke-width="1"/>
<text x="1145.00" y="737" text-anchor="middle" font-family="Arial" font-size="16" fill="black">3.240</text>
<line x1="120" y1="705.00" x2="1145" y2="705.00" stroke="#dddddd" stroke-width="1"/>
<text x="104" y="710.00" text-anchor="end" font-family="Arial" font-size="16" fill="black">-7.18e-04</text>
<line x1="120" y1="547.50" x2="1145" y2="547.50" stroke="#dddddd" stroke-width="1"/>
<text x="104" y="552.50" text-anchor="end" font-family="Arial" font-size="16" fill="black">0.006</text>
<line x1="120" y1="390.00" x2="1145" y2="390.00" stroke="#dddddd" stroke-width="1"/>
<text x="104" y="395.00" text-anchor="end" font-family="Arial" font-size="16" fill="black">0.012</text>
<line x1="120" y1="232.50" x2="1145" y2="232.50" stroke="#dddddd" stroke-width="1"/>
<text x="104" y="237.50" text-anchor="end" font-family="Arial" font-size="16" fill="black">0.018</text>
<line x1="120" y1="75.00" x2="1145" y2="75.00" stroke="#dddddd" stroke-width="1"/>
<text x="104" y="80.00" text-anchor="end" font-family="Arial" font-size="16" fill="black">0.024</text>
<rect x="120" y="75" width="1025" height="630" fill="none" stroke="black" stroke-width="2"/>
<text x="632.5" y="785" text-anchor="middle" font-family="Arial" font-size="20" fill="black">z coordinate [m]</text>
<text x="34" y="390.0" transform="rotate(-90 34 390.0)" text-anchor="middle" font-family="Arial" font-size="20" fill="black">alphat [SI]</text>
<polyline points="190.69,661.55 193.64,661.46 196.58,661.38 199.53,661.29 202.47,661.20 205.42,661.11 208.36,661.02 211.31,660.94 214.25,660.85 217.20,660.76 220.14,660.67 223.09,660.17 226.03,659.68 228.98,659.18 231.93,658.68 234.87,658.18 237.82,657.68 240.76,657.18 243.71,656.68 246.65,656.18 249.60,655.69 252.54,653.04 255.49,650.40 258.43,647.76 261.38,645.12 264.32,642.48 267.27,639.84 270.22,637.20 273.16,634.56 276.11,631.92 279.05,629.27 282.00,620.00 284.94,610.73 287.89,601.45 290.83,592.18 293.78,582.90 296.72,573.63 299.67,564.36 302.61,555.08 305.56,545.81 308.51,536.54 311.45,525.51 314.40,514.49 317.34,503.47 320.29,492.45 323.23,481.43 326.18,470.41 329.12,459.39 332.07,448.37 335.01,437.35 337.96,426.34 340.91,420.29 343.85,414.23 346.80,408.18 349.74,402.14 352.69,396.10 355.63,390.06 358.58,384.01 361.52,377.97 364.47,371.93 367.41,365.89 370.36,362.49 373.30,359.11 376.25,355.72 379.20,352.34 382.14,348.94 385.09,345.57 388.03,342.17 390.98,338.80 393.92,335.40 396.87,332.02 399.81,329.53 402.76,327.06 405.70,324.57 408.65,322.10 411.59,319.61 414.54,317.14 417.49,314.65 420.43,312.18 423.38,309.72 426.32,307.22 429.27,304.91 432.21,302.62 435.16,300.30 438.10,298.01 441.05,295.69 443.99,293.38 446.94,291.09 449.89,288.77 452.83,286.48 455.78,284.16 458.72,281.92 461.67,279.71 464.61,277.47 467.56,275.22 470.50,273.01 473.45,270.77 476.39,268.53 479.34,266.31 482.28,264.07 485.23,261.86 488.18,259.79 491.12,257.73 494.07,255.69 497.01,253.62 499.96,251.58 502.90,249.52 505.85,247.48 508.79,245.42 511.74,243.38 514.68,241.31 517.63,239.47 520.57,237.64 523.52,235.80 526.47,233.96 529.41,232.12 532.36,230.28 535.30,228.42 538.25,226.58 541.19,224.75 544.14,222.91 547.08,221.25 550.03,219.58 552.97,217.90 555.92,216.24 558.86,214.55 561.81,212.89 564.76,211.23 567.70,209.54 570.65,207.88 573.59,206.21 576.54,204.65 579.48,203.12 582.43,201.58 585.37,200.05 588.32,198.51 591.26,196.98 594.21,195.44 597.16,193.90 600.10,192.37 603.05,190.83 605.99,189.40 608.94,187.99 611.88,186.55 614.83,185.12 617.77,183.71 620.72,182.27 623.66,180.86 626.61,179.43 629.55,178.02 632.50,176.58 635.45,175.27 638.39,173.96 641.34,172.63 644.28,171.32 647.23,170.01 650.17,168.70 653.12,167.39 656.06,166.06 659.01,164.75 661.95,163.44 664.90,162.26 667.84,161.05 670.79,159.86 673.74,158.66 676.68,157.47 679.63,156.26 682.57,155.08 685.52,153.87 688.46,152.69 691.41,151.48 694.35,150.45 697.30,149.42 700.24,148.36 703.19,147.33 706.14,146.27 709.08,145.24 712.03,144.18 714.97,143.15 717.92,142.09 720.86,141.06 723.81,140.20 726.75,139.35 729.70,138.46 732.64,137.61 735.59,136.75 738.53,135.90 741.48,135.04 744.43,134.18 747.37,133.33 750.32,132.47 753.26,131.82 756.21,131.14 759.15,130.48 762.10,129.83 765.04,129.17 767.99,128.49 770.93,127.84 773.88,127.18 776.82,126.53 779.77,125.85 782.72,125.37 785.66,124.89 788.61,124.42 791.55,123.91 794.50,123.43 797.44,122.95 800.39,122.48 803.33,121.97 806.28,121.49 809.22,121.02 812.17,120.76 815.11,120.49 818.06,120.24 821.01,119.98 823.95,119.73 826.90,119.48 829.84,119.20 832.79,118.95 835.73,118.70 838.68,118.45 841.62,118.62 844.57,118.83 847.51,119.03 850.46,119.20 853.41,119.40 856.35,119.61 859.30,119.78 862.24,119.98 865.19,120.19 868.13,120.36 871.08,121.37 874.02,122.40 876.97,123.41 879.91,124.42 882.86,125.42 885.80,126.43 888.75,127.44 891.70,128.44 894.64,129.45 897.59,130.48 900.53,132.75 903.48,135.01 906.42,137.28 909.37,139.55 912.31,141.84 915.26,144.10 918.20,146.37 921.15,148.64 924.09,150.90 927.04,153.19 929.99,157.37 932.93,161.55 935.88,165.76 938.82,169.94 941.77,174.11 944.71,178.32 947.66,182.50 950.60,186.68 953.55,190.88 956.49,195.06 959.44,202.36 962.39,209.66 965.33,216.97 968.28,224.24 971.22,231.54 974.17,238.84 977.11,246.15 980.06,253.45 983.00,260.72 985.95,268.02 988.89,280.31 991.84,292.57 994.78,304.86 997.73,317.12 1000.68,329.41 1003.62,341.67 1006.57,353.95 1009.51,366.21 1012.46,378.50 1015.40,390.76 1018.35,407.66 1021.29,424.55 1024.24,441.45 1027.18,458.35 1030.13,475.24 1033.07,492.14 1036.02,509.03 1038.97,525.93 1041.91,542.83 1044.86,559.72 1047.80,568.96 1050.75,578.21 1053.69,587.45 1056.64,596.69 1059.58,605.93 1062.53,615.17 1065.47,624.41 1068.42,633.66 1071.36,642.90 1074.31,652.14" fill="none" stroke="#000000" stroke-width="3"/>
<line x1="142" y1="100" x2="178" y2="100" stroke="#000000" stroke-width="4"/>
<text x="188" y="105" font-family="Arial" font-size="18" fill="black">alphat</text>
</svg>