<svg xmlns="http://www.w3.org/2000/svg" width="1200" height="820" viewBox="0 0 1200 820">
<rect width="100%" height="100%" fill="white"/>
<text x="600.0" y="36" text-anchor="middle" font-family="Arial" font-size="24" fill="black">profile_near_floor_x: vorticity:0</text>
<line x1="120.00" y1="75" x2="120.00" y2="705" stroke="#dddddd" stroke-width="1"/>
<text x="120.00" y="737" text-anchor="middle" font-family="Arial" font-size="16" fill="black">-0.560</text>
<line x1="376.25" y1="75" x2="376.25" y2="705" stroke="#dddddd" stroke-width="1"/>
<text x="376.25" y="737" text-anchor="middle" font-family="Arial" font-size="16" fill="black">1.470</text>
<line x1="632.50" y1="75" x2="632.50" y2="705" stroke="#dddddd" stroke-width="1"/>
<text x="632.50" y="737" text-anchor="middle" font-family="Arial" font-size="16" fill="black">3.500</text>
<line x1="888.75" y1="75" x2="888.75" y2="705" stroke="#dddddd" stroke-width="1"/>
<text x="888.75" y="737" text-anchor="middle" font-family="Arial" font-size="16" fill="black">5.530</text>
<line x1="1145.00" y1="75" x2="1145.00" y2="705" stroke="#dddddd" stroke-width="1"/>
<text x="1145.00" y="737" text-anchor="middle" font-family="Arial" font-size="16" fill="black">7.560</text>
<line x1="120" y1="705.00" x2="1145" y2="705.00" stroke="#dddddd" stroke-width="1"/>
<text x="104" y="710.00" text-anchor="end" font-family="Arial" font-size="16" fill="black">-1.563</text>
<line x1="120" y1="547.50" x2="1145" y2="547.50" stroke="#dddddd" stroke-width="1"/>
<text x="104" y="552.50" text-anchor="end" font-family="Arial" font-size="16" fill="black">-0.886</text>
<line x1="120" y1="390.00" x2="1145" y2="390.00" stroke="#dddddd" stroke-width="1"/>
<text x="104" y="395.00" text-anchor="end" font-family="Arial" font-size="16" fill="black">-0.208</text>
<line x1="120" y1="232.50" x2="1145" y2="232.50" stroke="#dddddd" stroke-width="1"/>
<text x="104" y="237.50" text-anchor="end" font-family="Arial" font-size="16" fill="black">0.470</text>
<line x1="120" y1="75.00" x2="1145" y2="75.00" stroke="#dddddd" stroke-width="1"/>
<text x="104" y="80.00" text-anchor="end" font-family="Arial" font-size="16" fill="black">1.148</text>
<rect x="120" y="75" width="1025" height="630" fill="none" stroke="black" stroke-width="2"/>
<text x="632.5" y="785" text-anchor="middle" font-family="Arial" font-size="20" fill="black">x coordinate [m]</text>
<text x="34" y="390.0" transform="rotate(-90 34 390.0)" text-anchor="middle" font-family="Arial" font-size="20" fill="black">vorticity:0 [SI]</text>
<polyline points="190.69,118.45 193.64,122.31 196.58,126.17 199.53,130.03 202.47,133.89 205.42,140.28 208.36,147.67 211.31,155.07 214.25,162.46 217.20,169.56 220.14,176.25 223.09,182.94 226.03,189.64 228.98,196.28 231.93,202.59 234.87,208.91 237.82,215.22 240.76,221.54 243.71,227.12 246.65,232.58 249.60,238.04 252.54,243.49 255.49,247.90 258.43,251.52 261.38,255.14 264.32,258.76 267.27,261.72 270.22,263.06 273.16,264.40 276.11,265.74 279.05,267.07 282.00,265.16 284.94,263.24 287.89,261.33 290.83,259.41 293.78,256.56 296.72,253.34 299.67,250.12 302.62,246.90 305.56,244.22 308.51,242.26 311.45,240.30 314.40,238.34 317.34,236.64 320.29,236.45 323.23,236.26 326.17,236.07 329.13,235.87 332.07,236.72 335.01,237.73 337.96,238.74 340.91,239.76 343.85,240.89 346.80,242.12 349.74,243.34 352.68,244.56 355.64,245.84 358.58,247.26 361.52,248.68 364.47,250.11 367.41,251.53 370.35,252.89 373.31,254.25 376.25,255.61 379.19,256.97 382.15,258.08 385.09,259.09 388.03,260.11 390.98,261.11 393.92,261.57 396.86,261.30 399.82,261.03 402.76,260.76 405.70,259.74 408.65,254.28 411.59,248.83 414.54,243.37 417.49,237.91 420.43,230.47 423.37,222.71 426.33,214.94 429.27,207.17 432.21,202.33 435.16,199.70 438.10,197.06 441.04,194.42 444.00,193.05 446.94,194.87 449.88,196.68 452.83,198.49 455.78,200.31 458.72,203.86 461.67,207.40 464.61,210.95 467.55,214.50 470.51,219.05 473.45,224.00 476.39,228.96 479.34,233.91 482.28,239.70 485.23,246.59 488.18,253.48 491.12,260.37 494.06,267.09 497.02,272.77 499.96,278.44 502.90,284.12 505.85,289.79 508.79,293.31 511.73,296.45 514.69,299.60 517.63,302.76 520.57,305.60 523.52,308.22 526.47,310.84 529.41,313.45 532.36,315.73 535.30,317.15 538.24,318.58 541.20,320.00 544.14,321.42 547.08,320.42 550.03,319.42 552.97,318.41 555.92,317.41 558.87,315.27 561.81,312.68 564.75,310.09 567.71,307.49 570.65,305.96 573.59,305.85 576.54,305.74 579.48,305.63 582.42,305.60 585.38,306.09 588.32,306.59 591.26,307.08 594.21,307.57 597.16,306.29 600.10,304.73 603.05,303.15 605.99,301.59 608.93,299.83 611.89,297.93 614.83,296.04 617.77,294.14 620.72,292.25 623.66,290.37 626.60,288.50 629.56,286.63 632.50,284.75 635.44,283.18 638.40,281.61 641.34,280.04 644.28,278.47 647.23,277.08 650.17,275.77 653.11,274.46 656.07,273.15 659.01,271.91 661.95,270.77 664.90,269.63 667.84,268.49 670.79,267.84 673.74,270.11 676.68,272.38 679.62,274.65 682.58,276.93 685.52,283.65 688.46,291.11 691.41,298.57 694.35,306.03 697.29,312.89 700.25,319.29 703.19,325.69 706.13,332.09 709.08,337.05 712.03,338.39 714.97,339.73 717.92,341.08 720.86,342.42 723.80,340.94 726.76,339.47 729.70,338.00 732.64,336.52 735.59,334.31 738.53,331.80 741.48,329.29 744.43,326.78 747.37,324.04 750.31,320.99 753.27,317.94 756.21,314.90 759.15,311.98 762.10,309.81 765.04,307.65 767.98,305.48 770.94,303.32 773.88,306.95 776.82,311.54 779.77,316.13 782.72,320.73 785.66,328.24 788.61,337.94 791.55,347.64 794.49,357.34 797.45,365.85 800.39,371.36 803.33,376.88 806.28,382.39 809.22,387.91 812.17,387.64 815.12,387.38 818.06,387.11 821.00,386.84 823.96,383.45 826.90,378.79 829.84,374.13 832.79,369.48 835.73,362.18 838.67,351.38 841.63,340.57 844.57,329.77 847.51,319.73 850.46,314.29 853.41,308.86 856.35,303.42 859.30,297.98 862.24,300.25 865.18,303.80 868.14,307.35 871.08,310.91 874.02,314.25 876.97,317.44 879.91,320.64 882.85,323.83 885.81,327.06 888.75,330.38 891.69,333.70 894.65,337.02 897.59,340.34 900.53,343.95 903.48,347.56 906.42,351.17 909.36,354.78 912.32,358.91 915.26,363.24 918.20,367.57 921.15,371.91 924.09,377.16 927.04,383.63 929.99,390.10 932.93,396.56 935.87,403.84 938.83,415.99 941.77,428.14 944.71,440.29 947.66,452.44 950.60,470.88 953.54,490.37 956.50,509.87 959.44,529.36 962.38,548.70 965.33,567.91 968.28,587.13 971.22,606.34 974.17,622.84 977.11,632.51 980.05,642.20 983.01,651.86 985.95,661.55 988.89,660.72 991.84,659.88 994.78,659.04 997.73,658.21 1000.68,653.23 1003.62,646.61 1006.56,640.01 1009.52,633.39 1012.46,626.70 1015.40,619.91 1018.35,613.13 1021.29,606.32 1024.23,599.98 1027.19,596.23 1030.13,592.52 1033.07,588.78 1036.02,585.04 1038.97,584.31 1041.91,584.08 1044.86,583.87 1047.80,583.64 1050.74,584.20 1053.70,585.34 1056.64,586.48 1059.58,587.61 1062.53,588.54 1065.47,589.03 1068.42,589.50 1071.37,589.96 1074.31,590.43" fill="none" stroke="#000000" stroke-width="3"/>
<line x1="142" y1="100" x2="178" y2="100" stroke="#000000" stroke-width="4"/>
<text x="188" y="105" font-family="Arial" font-size="18" fill="black">vorticity:0</text>
</svg>