<svg xmlns="http://www.w3.org/2000/svg" width="1200" height="820" viewBox="0 0 1200 820">
<rect width="100%" height="100%" fill="white"/>
<text x="600.0" y="36" text-anchor="middle" font-family="Arial" font-size="24" fill="black">profile_center_y: k</text>
<line x1="120.00" y1="75" x2="120.00" y2="705" stroke="#dddddd" stroke-width="1"/>
<text x="120.00" y="737" text-anchor="middle" font-family="Arial" font-size="16" fill="black">-0.400</text>
<line x1="376.25" y1="75" x2="376.25" y2="705" stroke="#dddddd" stroke-width="1"/>
<text x="376.25" y="737" text-anchor="middle" font-family="Arial" font-size="16" fill="black">1.050</text>
<line x1="632.50" y1="75" x2="632.50" y2="705" stroke="#dddddd" stroke-width="1"/>
<text x="632.50" y="737" text-anchor="middle" font-family="Arial" font-size="16" fill="black">2.500</text>
<line x1="888.75" y1="75" x2="888.75" y2="705" stroke="#dddddd" stroke-width="1"/>
<text x="888.75" y="737" text-anchor="middle" font-family="Arial" font-size="16" fill="black">3.950</text>
<line x1="1145.00" y1="75" x2="1145.00" y2="705" stroke="#dddddd" stroke-width="1"/>
<text x="1145.00" y="737" text-anchor="middle" font-family="Arial" font-size="16" fill="black">5.400</text>
<line x1="120" y1="705.00" x2="1145" y2="705.00" stroke="#dddddd" stroke-width="1"/>
<text x="104" y="710.00" text-anchor="end" font-family="Arial" font-size="16" fill="black">0.003</text>
<line x1="120" y1="547.50" x2="1145" y2="547.50" stroke="#dddddd" stroke-width="1"/>
<text x="104" y="552.50" text-anchor="end" font-family="Arial" font-size="16" fill="black">0.013</text>
<line x1="120" y1="390.00" x2="1145" y2="390.00" stroke="#dddddd" stroke-width="1"/>
<text x="104" y="395.00" text-anchor="end" font-family="Arial" font-size="16" fill="black">0.022</text>
<line x1="120" y1="232.50" x2="1145" y2="232.50" stroke="#dddddd" stroke-width="1"/>
<text x="104" y="237.50" text-anchor="end" font-family="Arial" font-size="16" fill="black">0.031</text>
<line x1="120" y1="75.00" x2="1145" y2="75.00" stroke="#dddddd" stroke-width="1"/>
<text x="104" y="80.00" text-anchor="end" font-family="Arial" font-size="16" fill="black">0.041</text>
<rect x="120" y="75" width="1025" height="630" fill="none" stroke="black" stroke-width="2"/>
<text x="632.5" y="785" text-anchor="middle" font-family="Arial" font-size="20" fill="black">y coordinate [m]</text>
<text x="34" y="390.0" transform="rotate(-90 34 390.0)" text-anchor="middle" font-family="Arial" font-size="20" fill="black">k [m2/s2]</text>
<polyline points="190.69,661.55 193.64,649.82 196.58,638.09 199.53,626.36 202.47,614.62 205.42,602.89 208.36,591.16 211.31,572.95 214.25,554.73 217.20,536.51 220.14,518.31 223.09,500.09 226.03,481.88 228.98,470.66 231.92,459.46 234.87,448.26 237.82,437.04 240.76,425.84 243.71,414.62 246.65,407.21 249.60,399.81 252.54,392.38 255.49,384.98 258.43,377.57 261.38,370.15 264.33,365.86 267.27,361.56 270.22,357.27 273.16,352.99 276.11,348.69 279.05,344.40 282.00,341.26 284.94,338.13 287.89,334.97 290.83,331.83 293.78,328.69 296.72,325.56 299.67,322.12 302.61,318.69 305.56,315.27 308.51,311.82 311.45,308.40 314.40,304.96 317.34,300.79 320.29,296.62 323.23,292.46 326.18,288.29 329.12,284.12 332.07,279.95 335.01,275.30 337.96,270.64 340.91,265.99 343.85,261.35 346.80,256.69 349.74,252.03 352.69,247.60 355.63,243.16 358.58,238.72 361.52,234.28 364.47,229.85 367.41,225.39 370.37,222.00 373.30,218.61 376.25,215.22 379.20,211.81 382.13,208.42 385.09,205.03 388.04,203.09 390.97,201.15 393.92,199.21 396.87,197.29 399.81,195.35 402.76,193.41 405.71,192.70 408.64,191.99 411.59,191.28 414.55,190.59 417.48,189.88 420.43,189.17 423.38,189.09 426.32,189.02 429.27,188.95 432.22,188.88 435.15,188.80 438.10,188.73 441.05,188.70 443.99,188.67 446.94,188.63 449.89,188.60 452.82,188.56 455.78,188.53 458.73,188.13 461.66,187.74 464.61,187.35 467.56,186.94 470.50,186.56 473.45,186.15 476.40,185.21 479.33,184.25 482.28,183.30 485.24,182.34 488.17,181.39 491.12,180.43 494.07,178.85 497.01,177.26 499.96,175.67 502.91,174.09 505.84,172.50 508.79,170.92 511.74,168.71 514.68,166.50 517.63,164.29 520.58,162.09 523.51,159.88 526.47,157.67 529.42,155.18 532.35,152.66 535.30,150.17 538.25,147.67 541.19,145.16 544.14,142.66 547.09,140.52 550.02,138.37 552.97,136.25 555.93,134.10 558.86,131.96 561.81,129.82 564.76,128.49 567.70,127.14 570.65,125.79 573.60,124.44 576.53,123.09 579.48,121.74 582.43,121.18 585.37,120.64 588.32,120.08 591.27,119.54 594.20,118.99 597.16,118.45 600.11,118.63 603.04,118.80 605.99,118.99 608.94,119.16 611.88,119.34 614.83,119.53 617.78,120.46 620.71,121.38 623.66,122.31 626.62,123.24 629.55,124.17 632.50,125.10 635.45,126.82 638.38,128.54 641.34,130.26 644.29,131.98 647.22,133.72 650.17,135.44 653.12,137.85 656.06,140.26 659.01,142.68 661.96,145.07 664.89,147.48 667.84,149.90 670.80,152.63 673.73,155.38 676.68,158.11 679.63,160.85 682.57,163.60 685.52,166.33 688.47,168.84 691.40,171.36 694.35,173.89 697.30,176.40 700.24,178.91 703.19,181.43 706.14,183.28 709.07,185.14 712.03,186.98 714.98,188.83 717.91,190.69 720.86,192.55 723.81,193.63 726.75,194.72 729.70,195.80 732.65,196.90 735.58,197.98 738.53,199.07 741.49,199.51 744.42,199.95 747.37,200.41 750.32,200.85 753.26,201.28 756.21,201.72 759.16,201.69 762.09,201.64 765.04,201.61 767.99,201.55 770.93,201.52 773.88,201.49 776.83,201.22 779.76,200.96 782.72,200.71 785.67,200.46 788.60,200.19 791.55,199.94 794.50,199.88 797.44,199.83 800.39,199.77 803.34,199.72 806.27,199.67 809.22,199.60 812.18,200.26 815.11,200.90 818.06,201.55 821.01,202.20 823.95,202.84 826.90,203.50 829.85,205.20 832.78,206.92 835.73,208.64 838.68,210.36 841.62,212.07 844.57,213.79 847.52,216.57 850.45,219.35 853.41,222.12 856.36,224.90 859.29,227.69 862.24,230.47 865.19,233.90 868.13,237.32 871.08,240.75 874.03,244.17 876.96,247.60 879.91,251.02 882.87,254.58 885.80,258.12 888.75,261.68 891.70,265.23 894.63,268.77 897.59,272.33 900.54,275.45 903.47,278.57 906.42,281.69 909.37,284.81 912.31,287.93 915.26,291.06 918.21,292.74 921.14,294.43 924.09,296.12 927.05,297.82 929.98,299.51 932.93,301.20 935.88,300.13 938.82,299.07 941.77,297.99 944.72,296.93 947.65,295.86 950.60,294.80 953.55,290.57 956.49,286.33 959.44,282.11 962.39,277.88 965.32,273.64 968.28,269.43 971.23,264.10 974.16,258.76 977.11,253.45 980.06,248.12 983.00,242.80 985.95,237.47 988.90,234.94 991.83,232.41 994.78,229.86 997.74,227.33 1000.67,224.80 1003.62,222.27 1006.57,225.41 1009.51,228.57 1012.46,231.70 1015.41,234.86 1018.34,238.00 1021.29,241.15 1024.24,251.56 1027.18,261.97 1030.13,272.38 1033.08,282.79 1036.01,293.18 1038.97,303.59 1041.92,326.55 1044.85,349.50 1047.80,372.46 1050.75,395.40 1053.69,418.36 1056.64,441.31 1059.59,457.07 1062.52,472.81 1065.47,488.55 1068.43,504.31 1071.36,520.05 1074.31,535.79" fill="none" stroke="#000000" stroke-width="3"/>
<line x1="142" y1="100" x2="178" y2="100" stroke="#000000" stroke-width="4"/>
<text x="188" y="105" font-family="Arial" font-size="18" fill="black">k</text>
</svg>