<svg xmlns="http://www.w3.org/2000/svg" width="1200" height="820" viewBox="0 0 1200 820">
<rect width="100%" height="100%" fill="white"/>
<text x="600.0" y="36" text-anchor="middle" font-family="Arial" font-size="24" fill="black">profile_near_floor_x: nut</text>
<line x1="120.00" y1="75" x2="120.00" y2="705" stroke="#dddddd" stroke-width="1"/>
<text x="120.00" y="737" text-anchor="middle" font-family="Arial" font-size="16" fill="black">-0.560</text>
<line x1="376.25" y1="75" x2="376.25" y2="705" stroke="#dddddd" stroke-width="1"/>
<text x="376.25" y="737" text-anchor="middle" font-family="Arial" font-size="16" fill="black">1.470</text>
<line x1="632.50" y1="75" x2="632.50" y2="705" stroke="#dddddd" stroke-width="1"/>
<text x="632.50" y="737" text-anchor="middle" font-family="Arial" font-size="16" fill="black">3.500</text>
<line x1="888.75" y1="75" x2="888.75" y2="705" stroke="#dddddd" stroke-width="1"/>
<text x="888.75" y="737" text-anchor="middle" font-family="Arial" font-size="16" fill="black">5.530</text>
<line x1="1145.00" y1="75" x2="1145.00" y2="705" stroke="#dddddd" stroke-width="1"/>
<text x="1145.00" y="737" text-anchor="middle" font-family="Arial" font-size="16" fill="black">7.560</text>
<line x1="120" y1="705.00" x2="1145" y2="705.00" stroke="#dddddd" stroke-width="1"/>
<text x="104" y="710.00" text-anchor="end" font-family="Arial" font-size="16" fill="black">2.61e-04</text>
<line x1="120" y1="547.50" x2="1145" y2="547.50" stroke="#dddddd" stroke-width="1"/>
<text x="104" y="552.50" text-anchor="end" font-family="Arial" font-size="16" fill="black">0.002</text>
<line x1="120" y1="390.00" x2="1145" y2="390.00" stroke="#dddddd" stroke-width="1"/>
<text x="104" y="395.00" text-anchor="end" font-family="Arial" font-size="16" fill="black">0.003</text>
<line x1="120" y1="232.50" x2="1145" y2="232.50" stroke="#dddddd" stroke-width="1"/>
<text x="104" y="237.50" text-anchor="end" font-family="Arial" font-size="16" fill="black">0.005</text>
<line x1="120" y1="75.00" x2="1145" y2="75.00" stroke="#dddddd" stroke-width="1"/>
<text x="104" y="80.00" text-anchor="end" font-family="Arial" font-size="16" fill="black">0.006</text>
<rect x="120" y="75" width="1025" height="630" fill="none" stroke="black" stroke-width="2"/>
<text x="632.5" y="785" text-anchor="middle" font-family="Arial" font-size="20" fill="black">x coordinate [m]</text>
<text x="34" y="390.0" transform="rotate(-90 34 390.0)" text-anchor="middle" font-family="Arial" font-size="20" fill="black">nut [m2/s]</text>
<polyline points="190.69,661.55 193.64,655.59 196.58,649.63 199.53,643.67 202.47,637.71 205.42,627.88 208.36,616.50 211.31,605.12 214.25,593.74 217.20,582.32 220.14,570.83 223.09,559.35 226.03,547.87 228.98,536.34 231.93,524.56 234.87,512.76 237.82,500.98 240.76,489.19 243.71,479.67 246.65,470.52 249.60,461.37 252.54,452.22 255.49,446.22 258.43,442.58 261.38,438.94 264.32,435.30 267.27,433.17 270.22,434.82 273.16,436.46 276.11,438.11 279.05,439.76 282.00,446.08 284.94,452.40 287.89,458.74 290.83,465.06 293.78,474.40 296.72,484.95 299.67,495.49 302.62,506.04 305.56,517.33 308.51,529.58 311.45,541.84 314.40,554.10 317.34,565.82 320.29,574.34 323.23,582.87 326.17,591.39 329.13,599.92 332.07,603.88 335.01,607.07 337.96,610.27 340.91,613.48 343.85,615.58 346.80,616.86 349.74,618.14 352.68,619.43 355.64,620.51 358.58,621.04 361.52,621.58 364.47,622.12 367.41,622.66 370.35,622.67 373.31,622.67 376.25,622.68 379.19,622.69 382.15,622.24 385.09,621.61 388.03,620.98 390.98,620.34 393.92,619.03 396.86,616.79 399.82,614.55 402.76,612.31 405.70,609.17 408.65,600.68 411.59,592.19 414.54,583.68 417.49,575.19 420.43,555.67 423.37,534.29 426.33,512.93 429.27,491.56 432.21,464.86 435.16,434.15 438.10,403.46 441.04,372.76 444.00,343.45 446.94,317.63 449.88,291.81 452.83,265.99 455.78,240.16 458.72,228.03 461.67,215.88 464.61,203.74 467.55,191.60 470.51,189.15 473.45,190.58 476.39,192.02 479.34,193.45 482.28,195.15 485.23,197.20 488.18,199.26 491.12,201.30 494.06,201.73 497.02,192.41 499.96,183.08 502.90,173.76 505.85,164.43 508.79,154.26 511.73,143.95 514.69,133.64 517.63,123.33 520.57,118.84 523.52,118.70 526.47,118.57 529.41,118.45 532.36,121.87 535.30,134.18 538.24,146.50 541.20,158.82 544.14,171.13 547.08,197.42 550.03,223.71 552.97,249.99 555.92,276.29 558.87,308.96 561.81,344.18 564.75,379.41 567.71,414.63 570.65,447.37 573.59,476.79 576.54,506.23 579.48,535.65 582.42,562.80 585.38,576.28 588.32,589.76 591.26,603.25 594.21,616.73 597.16,621.60 600.10,625.02 603.05,628.44 605.99,631.86 608.93,633.86 611.89,634.78 614.83,635.70 617.77,636.63 620.72,637.28 623.66,637.27 626.60,637.25 629.56,637.24 632.50,637.23 635.44,636.72 638.40,636.21 641.34,635.71 644.28,635.20 647.23,634.37 650.17,633.42 653.11,632.46 656.07,631.50 659.01,630.30 661.95,628.78 664.90,627.24 667.84,625.71 670.79,623.95 673.74,620.81 676.68,617.67 679.62,614.53 682.58,611.38 685.52,606.62 688.46,601.58 691.41,596.53 694.35,591.49 697.29,585.73 700.25,579.43 703.19,573.11 706.13,566.80 709.08,560.33 712.03,553.44 714.97,546.55 717.92,539.67 720.86,532.77 723.80,525.93 726.76,519.10 729.70,512.25 732.64,505.41 735.59,498.96 738.53,492.69 741.48,486.41 744.43,480.13 747.37,474.98 750.31,471.35 753.27,467.71 756.21,464.06 759.15,460.80 762.10,459.72 765.04,458.63 767.98,457.55 770.94,456.47 773.88,454.63 776.82,452.68 779.77,450.72 782.72,448.76 785.66,450.15 788.61,454.06 791.55,457.96 794.49,461.86 797.45,468.50 800.39,482.00 803.33,495.48 806.28,508.96 809.22,522.45 812.17,537.19 815.12,551.95 818.06,566.70 821.00,581.45 823.96,592.22 826.90,601.39 829.84,610.57 832.79,619.73 835.73,626.36 838.67,629.59 841.63,632.82 844.57,636.06 847.51,638.99 850.46,640.18 853.41,641.37 856.35,642.56 859.30,643.75 862.24,644.26 865.18,644.65 868.14,645.05 871.08,645.45 874.02,645.66 876.97,645.73 879.91,645.81 882.85,645.89 885.81,645.88 888.75,645.67 891.69,645.46 894.65,645.25 897.59,645.04 900.53,644.49 903.48,643.94 906.42,643.38 909.36,642.83 912.32,641.91 915.26,640.85 918.20,639.79 921.15,638.73 924.09,637.28 927.04,635.33 929.99,633.37 932.93,631.41 935.87,629.20 938.83,625.49 941.77,621.78 944.71,618.06 947.66,614.35 950.60,608.32 953.54,601.90 956.50,595.50 959.44,589.08 962.38,581.08 965.33,571.87 968.28,562.67 971.22,553.48 974.17,544.09 977.11,534.22 980.05,524.35 983.01,514.49 985.95,504.63 988.89,497.42 991.84,490.21 994.78,483.00 997.73,475.79 1000.68,471.97 1003.62,469.49 1006.56,467.02 1009.52,464.54 1012.46,464.30 1015.40,467.02 1018.35,469.74 1021.29,472.45 1024.23,475.81 1027.19,482.99 1030.13,490.17 1033.07,497.34 1036.02,504.52 1038.97,514.69 1041.91,525.34 1044.86,535.98 1047.80,546.63 1050.74,559.87 1053.70,575.06 1056.64,590.23 1059.58,605.40 1062.53,618.85 1065.47,627.94 1068.42,637.04 1071.37,646.14 1074.31,655.23" fill="none" stroke="#000000" stroke-width="3"/>
<line x1="142" y1="100" x2="178" y2="100" stroke="#000000" stroke-width="4"/>
<text x="188" y="105" font-family="Arial" font-size="18" fill="black">nut</text>
</svg>