<svg xmlns="http://www.w3.org/2000/svg" width="1200" height="820" viewBox="0 0 1200 820">
<rect width="100%" height="100%" fill="white"/>
<text x="600.0" y="36" text-anchor="middle" font-family="Arial" font-size="24" fill="black">profile_diagonal_supply_return: vorticity:0</text>
<line x1="120.00" y1="75" x2="120.00" y2="705" stroke="#dddddd" stroke-width="1"/>
<text x="120.00" y="737" text-anchor="middle" font-family="Arial" font-size="16" fill="black">-0.729</text>
<line x1="376.25" y1="75" x2="376.25" y2="705" stroke="#dddddd" stroke-width="1"/>
<text x="376.25" y="737" text-anchor="middle" font-family="Arial" font-size="16" fill="black">1.913</text>
<line x1="632.50" y1="75" x2="632.50" y2="705" stroke="#dddddd" stroke-width="1"/>
<text x="632.50" y="737" text-anchor="middle" font-family="Arial" font-size="16" fill="black">4.555</text>
<line x1="888.75" y1="75" x2="888.75" y2="705" stroke="#dddddd" stroke-width="1"/>
<text x="888.75" y="737" text-anchor="middle" font-family="Arial" font-size="16" fill="black">7.197</text>
<line x1="1145.00" y1="75" x2="1145.00" y2="705" stroke="#dddddd" stroke-width="1"/>
<text x="1145.00" y="737" text-anchor="middle" font-family="Arial" font-size="16" fill="black">9.839</text>
<line x1="120" y1="705.00" x2="1145" y2="705.00" stroke="#dddddd" stroke-width="1"/>
<text x="104" y="710.00" text-anchor="end" font-family="Arial" font-size="16" fill="black">-1.541</text>
<line x1="120" y1="547.50" x2="1145" y2="547.50" stroke="#dddddd" stroke-width="1"/>
<text x="104" y="552.50" text-anchor="end" font-family="Arial" font-size="16" fill="black">-0.767</text>
<line x1="120" y1="390.00" x2="1145" y2="390.00" stroke="#dddddd" stroke-width="1"/>
<text x="104" y="395.00" text-anchor="end" font-family="Arial" font-size="16" fill="black">0.007</text>
<line x1="120" y1="232.50" x2="1145" y2="232.50" stroke="#dddddd" stroke-width="1"/>
<text x="104" y="237.50" text-anchor="end" font-family="Arial" font-size="16" fill="black">0.781</text>
<line x1="120" y1="75.00" x2="1145" y2="75.00" stroke="#dddddd" stroke-width="1"/>
<text x="104" y="80.00" text-anchor="end" font-family="Arial" font-size="16" fill="black">1.555</text>
<rect x="120" y="75" width="1025" height="630" fill="none" stroke="black" stroke-width="2"/>
<text x="632.5" y="785" text-anchor="middle" font-family="Arial" font-size="20" fill="black">distance along sample line [m]</text>
<text x="34" y="390.0" transform="rotate(-90 34 390.0)" text-anchor="middle" font-family="Arial" font-size="20" fill="black">vorticity:0 [SI]</text>
<polyline points="190.69,118.45 193.64,131.39 196.58,147.71 199.53,167.41 202.47,190.43 205.42,215.19 208.36,242.69 211.31,267.69 214.25,296.93 217.20,331.36 220.14,371.02 223.09,413.25 226.03,460.28 228.98,478.65 231.93,498.14 234.87,519.51 237.82,543.33 240.76,570.16 243.71,598.34 246.65,628.85 249.60,661.55 252.54,653.09 255.49,644.15 258.43,634.93 261.38,626.55 264.32,620.61 267.27,615.09 270.22,608.97 273.16,603.61 276.11,598.98 279.05,594.97 282.00,589.66 284.94,585.02 287.88,580.99 290.83,577.49 293.78,574.09 296.73,570.96 299.67,568.49 302.62,566.44 305.57,564.63 308.50,563.00 311.45,560.83 314.40,558.94 317.34,557.44 320.29,555.97 323.24,554.63 326.18,553.40 329.12,552.27 332.07,551.09 335.01,550.12 337.96,549.22 340.91,547.58 343.85,546.01 346.80,544.48 349.74,542.92 352.68,542.65 355.63,542.58 358.58,542.88 361.53,543.21 364.47,543.54 367.42,543.82 370.36,546.41 373.30,549.04 376.25,551.70 379.20,554.37 382.14,557.11 385.09,559.83 388.04,563.75 390.97,567.68 393.92,571.44 396.87,574.96 399.81,577.65 402.76,580.33 405.71,582.38 408.65,583.86 411.59,585.33 414.54,586.78 417.48,588.20 420.43,589.02 423.38,589.07 426.32,589.06 429.27,588.07 432.21,586.84 435.16,585.42 438.10,583.91 441.05,582.01 444.00,580.02 446.94,577.84 449.89,575.57 452.84,573.20 455.77,570.70 458.72,567.23 461.67,563.73 464.61,560.19 467.56,556.59 470.51,552.92 473.45,549.18 476.39,545.53 479.34,541.76 482.28,537.84 485.23,533.76 488.18,528.47 491.12,523.09 494.07,517.66 497.01,512.17 499.96,506.59 502.90,500.94 505.85,495.23 508.80,489.54 511.74,483.90 514.69,478.32 517.63,471.70 520.57,465.29 523.52,459.13 526.47,453.16 529.41,447.23 532.36,441.67 535.31,436.73 538.24,431.99 541.19,427.43 544.14,423.04 547.08,418.87 550.03,414.94 552.98,411.22 555.92,407.70 558.86,405.39 561.81,403.68 564.76,401.42 567.70,399.21 570.65,397.82 573.60,397.43 576.54,396.89 579.49,396.32 582.43,395.15 585.37,395.32 588.32,395.41 591.27,395.39 594.21,395.27 597.16,396.33 600.11,397.03 603.04,397.69 605.99,398.43 608.94,399.98 611.88,402.19 614.83,404.47 617.78,406.54 620.72,408.94 623.66,412.02 626.61,415.15 629.55,418.33 632.50,421.57 635.45,423.28 638.40,424.68 641.34,425.80 644.28,426.61 647.23,425.19 650.17,422.68 653.12,419.34 656.07,415.84 659.01,411.30 661.96,405.61 664.90,400.04 667.84,394.54 670.79,388.96 673.74,383.14 676.68,377.67 679.63,372.55 682.58,367.78 685.51,363.41 688.46,359.50 691.41,355.97 694.35,352.93 697.30,350.24 700.25,347.79 703.20,345.58 706.14,343.80 709.08,342.16 712.03,340.51 714.97,338.93 717.92,337.43 720.87,336.00 723.81,334.78 726.76,333.54 729.70,332.30 732.64,331.04 735.59,329.61 738.54,328.05 741.48,326.67 744.43,325.25 747.38,323.67 750.31,321.87 753.26,320.37 756.21,318.81 759.15,317.67 762.10,316.26 765.05,314.82 767.99,313.38 770.93,311.92 773.88,310.21 776.83,309.41 779.77,308.71 782.72,308.54 785.67,308.36 788.61,308.24 791.55,308.28 794.50,309.97 797.44,311.94 800.39,314.25 803.34,316.94 806.28,320.02 809.23,323.50 812.17,329.59 815.11,336.17 818.06,343.26 821.01,350.86 823.95,359.43 826.90,368.72 829.85,379.46 832.79,390.67 835.73,402.62 838.68,415.38 841.63,428.43 844.57,441.83 847.52,455.09 850.47,468.71 853.41,482.39 856.35,496.13 859.30,509.93 862.24,523.12 865.19,534.03 868.14,544.66 871.08,554.75 874.03,563.56 876.97,571.23 879.91,578.45 882.86,581.41 885.81,583.16 888.75,582.76 891.70,581.78 894.65,580.19 897.58,577.97 900.53,570.39 903.48,562.74 906.43,555.03 909.37,547.21 912.32,538.33 915.27,529.12 918.20,519.42 921.15,509.91 924.10,500.27 927.04,490.49 929.99,482.73 932.94,475.25 935.88,468.50 938.82,461.70 941.77,454.90 944.71,448.02 947.66,440.99 950.61,433.63 953.55,426.94 956.50,419.95 959.44,415.13 962.38,409.70 965.33,403.54 968.28,396.65 971.22,391.29 974.17,385.19 977.12,378.03 980.06,370.21 983.00,361.62 985.95,352.21 988.90,348.86 991.84,344.71 994.79,339.83 997.74,334.30 1000.68,328.51 1003.62,322.86 1006.57,324.94 1009.51,328.46 1012.46,334.13 1015.41,342.14 1018.35,346.75 1021.30,351.36 1024.24,367.92 1027.18,383.88 1030.13,398.56 1033.08,411.45 1036.02,422.06 1038.97,428.32 1041.92,420.40 1044.86,410.69 1047.80,401.22 1050.75,389.48 1053.70,376.57 1056.64,363.53 1059.59,341.81 1062.54,321.37 1065.47,302.77 1068.42,284.93 1071.37,267.86 1074.31,251.56" fill="none" stroke="#000000" stroke-width="3"/>
<line x1="142" y1="100" x2="178" y2="100" stroke="#000000" stroke-width="4"/>
<text x="188" y="105" font-family="Arial" font-size="18" fill="black">vorticity:0</text>
</svg>