<svg xmlns="http://www.w3.org/2000/svg" width="1200" height="820" viewBox="0 0 1200 820">
<rect width="100%" height="100%" fill="white"/>
<text x="600.0" y="36" text-anchor="middle" font-family="Arial" font-size="24" fill="black">profile_center_y: vorticity:1</text>
<line x1="120.00" y1="75" x2="120.00" y2="705" stroke="#dddddd" stroke-width="1"/>
<text x="120.00" y="737" text-anchor="middle" font-family="Arial" font-size="16" fill="black">-0.400</text>
<line x1="376.25" y1="75" x2="376.25" y2="705" stroke="#dddddd" stroke-width="1"/>
<text x="376.25" y="737" text-anchor="middle" font-family="Arial" font-size="16" fill="black">1.050</text>
<line x1="632.50" y1="75" x2="632.50" y2="705" stroke="#dddddd" stroke-width="1"/>
<text x="632.50" y="737" text-anchor="middle" font-family="Arial" font-size="16" fill="black">2.500</text>
<line x1="888.75" y1="75" x2="888.75" y2="705" stroke="#dddddd" stroke-width="1"/>
<text x="888.75" y="737" text-anchor="middle" font-family="Arial" font-size="16" fill="black">3.950</text>
<line x1="1145.00" y1="75" x2="1145.00" y2="705" stroke="#dddddd" stroke-width="1"/>
<text x="1145.00" y="737" text-anchor="middle" font-family="Arial" font-size="16" fill="black">5.400</text>
<line x1="120" y1="705.00" x2="1145" y2="705.00" stroke="#dddddd" stroke-width="1"/>
<text x="104" y="710.00" text-anchor="end" font-family="Arial" font-size="16" fill="black">-0.532</text>
<line x1="120" y1="547.50" x2="1145" y2="547.50" stroke="#dddddd" stroke-width="1"/>
<text x="104" y="552.50" text-anchor="end" font-family="Arial" font-size="16" fill="black">-0.159</text>
<line x1="120" y1="390.00" x2="1145" y2="390.00" stroke="#dddddd" stroke-width="1"/>
<text x="104" y="395.00" text-anchor="end" font-family="Arial" font-size="16" fill="black">0.213</text>
<line x1="120" y1="232.50" x2="1145" y2="232.50" stroke="#dddddd" stroke-width="1"/>
<text x="104" y="237.50" text-anchor="end" font-family="Arial" font-size="16" fill="black">0.586</text>
<line x1="120" y1="75.00" x2="1145" y2="75.00" stroke="#dddddd" stroke-width="1"/>
<text x="104" y="80.00" text-anchor="end" font-family="Arial" font-size="16" fill="black">0.959</text>
<rect x="120" y="75" width="1025" height="630" fill="none" stroke="black" stroke-width="2"/>
<text x="632.5" y="785" text-anchor="middle" font-family="Arial" font-size="20" fill="black">y coordinate [m]</text>
<text x="34" y="390.0" transform="rotate(-90 34 390.0)" text-anchor="middle" font-family="Arial" font-size="20" fill="black">vorticity:1 [SI]</text>
<polyline points="190.69,143.84 193.64,139.61 196.58,135.38 199.53,131.15 202.47,126.91 205.42,122.68 208.36,118.45 211.31,121.36 214.25,124.26 217.20,127.17 220.14,130.08 223.09,132.99 226.03,135.89 228.98,153.77 231.92,171.65 234.87,189.52 237.82,207.39 240.76,225.27 243.71,243.14 246.65,263.68 249.60,284.22 252.54,304.76 255.49,325.30 258.43,345.84 261.38,366.38 264.33,382.00 267.27,397.63 270.22,413.26 273.16,428.88 276.11,444.50 279.05,460.13 282.00,468.96 284.94,477.80 287.89,486.63 290.83,495.46 293.78,504.29 296.72,513.13 299.67,517.69 302.61,522.25 305.56,526.80 308.51,531.36 311.45,535.92 314.40,540.48 317.34,542.98 320.29,545.48 323.23,547.99 326.18,550.49 329.12,552.99 332.07,555.49 335.01,557.37 337.96,559.26 340.91,561.14 343.85,563.02 346.80,564.91 349.74,566.79 352.69,568.98 355.63,571.17 358.58,573.36 361.52,575.56 364.47,577.75 367.41,579.93 370.37,582.87 373.30,585.81 376.25,588.74 379.20,591.68 382.13,594.62 385.09,597.55 388.04,600.93 390.97,604.32 393.92,607.71 396.87,611.09 399.81,614.48 402.76,617.86 405.71,620.97 408.64,624.09 411.59,627.20 414.55,630.31 417.48,633.42 420.43,636.53 423.38,638.85 426.32,641.16 429.27,643.47 432.22,645.78 435.15,648.10 438.10,650.41 441.05,651.76 443.99,653.10 446.94,654.45 449.89,655.80 452.82,657.14 455.78,658.49 458.73,659.00 461.66,659.51 464.61,660.02 467.56,660.53 470.50,661.04 473.45,661.55 476.40,661.47 479.33,661.40 482.28,661.32 485.24,661.23 488.17,661.15 491.12,661.08 494.07,660.58 497.01,660.09 499.96,659.60 502.91,659.10 505.84,658.61 508.79,658.12 511.74,657.17 514.68,656.21 517.63,655.26 520.58,654.30 523.51,653.35 526.47,652.40 529.42,650.69 532.35,648.98 535.30,647.26 538.25,645.55 541.19,643.84 544.14,642.12 547.09,639.42 550.02,636.71 552.97,634.00 555.93,631.29 558.86,628.59 561.81,625.88 564.76,622.22 567.70,618.57 570.65,614.92 573.60,611.26 576.53,607.61 579.48,603.96 582.43,599.53 585.37,595.10 588.32,590.68 591.27,586.25 594.20,581.83 597.16,577.40 600.11,572.41 603.04,567.43 605.99,562.43 608.94,557.45 611.88,552.46 614.83,547.47 617.78,542.25 620.71,537.02 623.66,531.80 626.62,526.57 629.55,521.34 632.50,516.12 635.45,511.08 638.38,506.05 641.34,501.01 644.29,495.97 647.22,490.94 650.17,485.90 653.12,481.46 656.06,477.01 659.01,472.57 661.96,468.13 664.89,463.68 667.84,459.24 670.80,455.60 673.73,451.95 676.68,448.31 679.63,444.67 682.57,441.02 685.52,437.38 688.47,434.42 691.40,431.45 694.35,428.49 697.30,425.52 700.24,422.55 703.19,419.59 706.14,416.98 709.07,414.38 712.03,411.77 714.98,409.17 717.91,406.56 720.86,403.95 723.81,401.40 726.75,398.85 729.70,396.30 732.65,393.75 735.58,391.20 738.53,388.65 741.49,386.06 744.42,383.47 747.37,380.88 750.32,378.29 753.26,375.71 756.21,373.12 759.16,370.63 762.09,368.15 765.04,365.67 767.99,363.18 770.93,360.70 773.88,358.21 776.83,356.09 779.76,353.96 782.72,351.83 785.67,349.70 788.60,347.57 791.55,345.45 794.50,343.96 797.44,342.47 800.39,340.97 803.34,339.48 806.27,337.99 809.22,336.49 812.18,335.91 815.11,335.32 818.06,334.73 821.01,334.14 823.95,333.56 826.90,332.97 829.85,333.54 832.78,334.11 835.73,334.68 838.68,335.25 841.62,335.82 844.57,336.40 847.52,338.32 850.45,340.25 853.41,342.18 856.36,344.11 859.29,346.03 862.24,347.96 865.19,351.30 868.13,354.64 871.08,357.98 874.03,361.32 876.96,364.66 879.91,368.00 882.87,372.53 885.80,377.05 888.75,381.57 891.70,386.10 894.63,390.62 897.59,395.14 900.54,400.21 903.47,405.27 906.42,410.34 909.37,415.40 912.31,420.47 915.26,425.53 918.21,430.34 921.14,435.15 924.09,439.95 927.05,444.76 929.98,449.57 932.93,454.38 935.88,458.30 938.82,462.22 941.77,466.14 944.72,470.06 947.65,473.98 950.60,477.90 953.55,480.48 956.49,483.05 959.44,485.63 962.39,488.21 965.32,490.79 968.28,493.37 971.23,494.31 974.16,495.26 977.11,496.20 980.06,497.14 983.00,498.08 985.95,499.02 988.90,498.22 991.83,497.42 994.78,496.62 997.74,495.82 1000.67,495.02 1003.62,494.22 1006.57,491.89 1009.51,489.57 1012.46,487.24 1015.41,484.92 1018.34,482.59 1021.29,480.26 1024.24,476.94 1027.18,473.61 1030.13,470.28 1033.08,466.95 1036.01,463.62 1038.97,460.29 1041.92,457.16 1044.85,454.03 1047.80,450.90 1050.75,447.77 1053.69,444.64 1056.64,441.52 1059.59,440.23 1062.52,438.94 1065.47,437.65 1068.43,436.36 1071.36,435.07 1074.31,433.79" fill="none" stroke="#000000" stroke-width="3"/>
<line x1="142" y1="100" x2="178" y2="100" stroke="#000000" stroke-width="4"/>
<text x="188" y="105" font-family="Arial" font-size="18" fill="black">vorticity:1</text>
</svg>