<svg xmlns="http://www.w3.org/2000/svg" width="1200" height="820" viewBox="0 0 1200 820">
<rect width="100%" height="100%" fill="white"/>
<text x="600.0" y="36" text-anchor="middle" font-family="Arial" font-size="24" fill="black">profile_diagonal_supply_return: p_rgh</text>
<line x1="120.00" y1="75" x2="120.00" y2="705" stroke="#dddddd" stroke-width="1"/>
<text x="120.00" y="737" text-anchor="middle" font-family="Arial" font-size="16" fill="black">-0.729</text>
<line x1="376.25" y1="75" x2="376.25" y2="705" stroke="#dddddd" stroke-width="1"/>
<text x="376.25" y="737" text-anchor="middle" font-family="Arial" font-size="16" fill="black">1.913</text>
<line x1="632.50" y1="75" x2="632.50" y2="705" stroke="#dddddd" stroke-width="1"/>
<text x="632.50" y="737" text-anchor="middle" font-family="Arial" font-size="16" fill="black">4.555</text>
<line x1="888.75" y1="75" x2="888.75" y2="705" stroke="#dddddd" stroke-width="1"/>
<text x="888.75" y="737" text-anchor="middle" font-family="Arial" font-size="16" fill="black">7.197</text>
<line x1="1145.00" y1="75" x2="1145.00" y2="705" stroke="#dddddd" stroke-width="1"/>
<text x="1145.00" y="737" text-anchor="middle" font-family="Arial" font-size="16" fill="black">9.839</text>
<line x1="120" y1="705.00" x2="1145" y2="705.00" stroke="#dddddd" stroke-width="1"/>
<text x="104" y="710.00" text-anchor="end" font-family="Arial" font-size="16" fill="black">-0.130</text>
<line x1="120" y1="547.50" x2="1145" y2="547.50" stroke="#dddddd" stroke-width="1"/>
<text x="104" y="552.50" text-anchor="end" font-family="Arial" font-size="16" fill="black">0.021</text>
<line x1="120" y1="390.00" x2="1145" y2="390.00" stroke="#dddddd" stroke-width="1"/>
<text x="104" y="395.00" text-anchor="end" font-family="Arial" font-size="16" fill="black">0.171</text>
<line x1="120" y1="232.50" x2="1145" y2="232.50" stroke="#dddddd" stroke-width="1"/>
<text x="104" y="237.50" text-anchor="end" font-family="Arial" font-size="16" fill="black">0.322</text>
<line x1="120" y1="75.00" x2="1145" y2="75.00" stroke="#dddddd" stroke-width="1"/>
<text x="104" y="80.00" text-anchor="end" font-family="Arial" font-size="16" fill="black">0.473</text>
<rect x="120" y="75" width="1025" height="630" fill="none" stroke="black" stroke-width="2"/>
<text x="632.5" y="785" text-anchor="middle" font-family="Arial" font-size="20" fill="black">distance along sample line [m]</text>
<text x="34" y="390.0" transform="rotate(-90 34 390.0)" text-anchor="middle" font-family="Arial" font-size="20" fill="black">p_rgh [Pa]</text>
<polyline points="190.69,140.44 193.64,141.72 196.58,143.06 199.53,144.46 202.47,145.93 205.42,147.07 208.36,148.22 211.31,149.46 214.25,150.95 217.20,152.65 220.14,154.56 223.09,157.43 226.03,160.48 228.98,161.80 231.93,162.88 234.87,164.18 237.82,165.69 240.76,167.41 243.71,168.73 246.65,169.52 249.60,170.48 252.54,171.65 255.49,172.60 258.43,173.46 261.38,174.51 264.32,175.48 267.27,176.40 270.22,176.95 273.16,177.64 276.11,178.48 279.05,179.43 282.00,179.93 284.94,180.56 287.88,181.33 290.83,182.25 293.78,182.88 296.73,183.48 299.67,184.27 302.62,185.16 305.57,186.01 308.50,186.72 311.45,187.42 314.40,188.25 317.34,189.32 320.29,190.26 323.24,191.36 326.18,192.62 329.12,194.04 332.07,195.44 335.01,197.54 337.96,199.87 340.91,202.16 343.85,204.64 346.80,207.29 349.74,210.16 352.68,215.39 355.63,220.97 358.58,226.80 361.53,232.95 364.47,239.42 367.42,246.20 370.36,253.98 373.30,262.10 376.25,270.58 379.20,279.41 382.14,288.22 385.09,297.13 388.04,304.65 390.97,312.28 393.92,319.54 396.87,326.08 399.81,332.53 402.76,338.84 405.71,342.93 408.65,343.07 411.59,342.68 414.54,341.78 417.48,340.35 420.43,336.29 423.38,330.00 426.32,323.13 429.27,315.06 432.21,307.58 435.16,300.48 438.10,292.90 441.05,284.32 444.00,275.88 446.94,268.39 449.89,260.66 452.84,252.67 455.77,244.44 458.72,236.22 461.67,227.82 464.61,219.23 467.56,210.46 470.51,202.10 473.45,193.84 476.39,185.21 479.34,176.46 482.28,168.21 485.23,160.72 488.18,152.69 491.12,144.73 494.07,137.54 497.01,132.79 499.96,128.26 502.90,123.95 505.85,119.83 508.80,118.48 511.74,118.45 514.69,118.54 517.63,118.63 520.57,120.25 523.52,122.96 526.47,125.62 529.41,129.05 532.36,132.98 535.31,138.08 538.24,142.97 541.19,147.65 544.14,152.11 547.08,158.73 550.03,165.00 552.98,170.93 555.92,176.52 558.86,183.31 561.81,190.15 564.76,196.89 567.70,203.12 570.65,210.03 573.60,217.74 576.54,224.70 579.49,230.73 582.43,237.27 585.37,245.20 588.32,252.37 591.27,258.74 594.21,264.31 597.16,270.84 600.11,278.24 603.04,285.10 605.99,291.65 608.94,298.09 611.88,304.34 614.83,310.11 617.78,316.54 620.72,321.99 623.66,325.64 626.61,328.95 629.55,331.93 632.50,334.56 635.45,335.23 638.40,335.74 641.34,336.11 644.28,336.32 647.23,335.42 650.17,334.05 653.12,333.73 656.07,333.37 659.01,332.96 661.96,332.47 664.90,332.21 667.84,331.90 670.79,333.11 673.74,334.63 676.68,335.89 679.63,336.91 682.58,337.70 685.51,338.95 688.46,341.44 691.41,343.30 694.35,344.85 697.30,346.67 700.25,348.69 703.20,350.27 706.14,351.95 709.08,353.46 712.03,355.93 714.97,358.01 717.92,359.73 720.87,361.07 723.81,364.23 726.76,367.18 729.70,369.91 732.64,372.43 735.59,375.80 738.54,379.50 741.48,383.02 744.43,386.45 747.38,390.34 750.31,394.96 753.26,399.64 756.21,404.31 759.15,408.72 762.10,414.13 765.05,419.60 767.99,425.10 770.93,430.66 773.88,437.41 776.83,443.71 779.77,450.09 782.72,456.29 785.67,463.48 788.61,471.50 791.55,479.61 794.50,486.43 797.44,493.89 800.39,503.03 803.34,512.15 806.28,521.26 809.23,530.35 812.17,540.13 815.11,549.55 818.06,558.63 821.01,567.37 823.95,579.16 826.90,591.76 829.85,601.03 832.79,609.50 835.73,620.03 838.68,633.13 841.63,643.69 844.57,652.63 847.52,657.44 850.47,660.36 853.41,661.55 856.35,661.01 859.30,658.74 862.24,651.06 865.19,640.20 868.14,628.51 871.08,617.24 874.03,603.53 876.97,588.25 879.91,572.78 882.86,557.00 885.81,540.90 888.75,524.19 891.70,507.99 894.65,492.29 897.58,477.08 900.53,464.87 903.48,453.38 906.43,442.59 909.37,432.46 912.32,423.35 915.27,415.21 918.20,409.56 921.15,404.47 924.10,400.20 927.04,396.85 929.99,394.20 932.94,392.09 935.88,391.00 938.82,390.62 941.77,390.57 944.71,390.87 947.66,391.47 950.61,392.52 953.55,393.55 956.50,394.76 959.44,396.04 962.38,397.47 965.33,399.02 968.28,400.70 971.22,401.67 974.17,402.63 977.12,403.37 980.06,404.10 983.00,404.80 985.95,405.48 988.90,404.37 991.84,403.15 994.79,401.81 997.74,400.34 1000.68,397.41 1003.62,393.42 1006.57,387.32 1009.51,380.59 1012.46,372.82 1015.41,363.80 1018.35,353.06 1021.30,340.79 1024.24,326.31 1027.18,313.16 1030.13,299.63 1033.08,285.75 1036.02,271.57 1038.97,258.21 1041.92,244.72 1044.86,231.42 1047.80,217.24 1050.75,204.17 1053.70,192.04 1056.64,180.20 1059.59,173.43 1062.54,167.55 1065.47,163.47 1068.42,159.58 1071.37,155.88 1074.31,152.38" fill="none" stroke="#000000" stroke-width="3"/>
<line x1="142" y1="100" x2="178" y2="100" stroke="#000000" stroke-width="4"/>
<text x="188" y="105" font-family="Arial" font-size="18" fill="black">p_rgh</text>
</svg>