<svg xmlns="http://www.w3.org/2000/svg" width="1200" height="820" viewBox="0 0 1200 820">
<rect width="100%" height="100%" fill="white"/>
<text x="600.0" y="36" text-anchor="middle" font-family="Arial" font-size="24" fill="black">profile_rack_height_x: U:0</text>
<line x1="120.00" y1="75" x2="120.00" y2="705" stroke="#dddddd" stroke-width="1"/>
<text x="120.00" y="737" text-anchor="middle" font-family="Arial" font-size="16" fill="black">-0.560</text>
<line x1="376.25" y1="75" x2="376.25" y2="705" stroke="#dddddd" stroke-width="1"/>
<text x="376.25" y="737" text-anchor="middle" font-family="Arial" font-size="16" fill="black">1.470</text>
<line x1="632.50" y1="75" x2="632.50" y2="705" stroke="#dddddd" stroke-width="1"/>
<text x="632.50" y="737" text-anchor="middle" font-family="Arial" font-size="16" fill="black">3.500</text>
<line x1="888.75" y1="75" x2="888.75" y2="705" stroke="#dddddd" stroke-width="1"/>
<text x="888.75" y="737" text-anchor="middle" font-family="Arial" font-size="16" fill="black">5.530</text>
<line x1="1145.00" y1="75" x2="1145.00" y2="705" stroke="#dddddd" stroke-width="1"/>
<text x="1145.00" y="737" text-anchor="middle" font-family="Arial" font-size="16" fill="black">7.560</text>
<line x1="120" y1="705.00" x2="1145" y2="705.00" stroke="#dddddd" stroke-width="1"/>
<text x="104" y="710.00" text-anchor="end" font-family="Arial" font-size="16" fill="black">-0.162</text>
<line x1="120" y1="547.50" x2="1145" y2="547.50" stroke="#dddddd" stroke-width="1"/>
<text x="104" y="552.50" text-anchor="end" font-family="Arial" font-size="16" fill="black">-0.074</text>
<line x1="120" y1="390.00" x2="1145" y2="390.00" stroke="#dddddd" stroke-width="1"/>
<text x="104" y="395.00" text-anchor="end" font-family="Arial" font-size="16" fill="black">0.015</text>
<line x1="120" y1="232.50" x2="1145" y2="232.50" stroke="#dddddd" stroke-width="1"/>
<text x="104" y="237.50" text-anchor="end" font-family="Arial" font-size="16" fill="black">0.104</text>
<line x1="120" y1="75.00" x2="1145" y2="75.00" stroke="#dddddd" stroke-width="1"/>
<text x="104" y="80.00" text-anchor="end" font-family="Arial" font-size="16" fill="black">0.193</text>
<rect x="120" y="75" width="1025" height="630" fill="none" stroke="black" stroke-width="2"/>
<text x="632.5" y="785" text-anchor="middle" font-family="Arial" font-size="20" fill="black">x coordinate [m]</text>
<text x="34" y="390.0" transform="rotate(-90 34 390.0)" text-anchor="middle" font-family="Arial" font-size="20" fill="black">U:0 [SI]</text>
<polyline points="190.69,453.65 193.64,456.53 196.58,459.41 199.53,462.29 202.47,465.17 205.42,470.74 208.36,477.37 211.31,484.01 214.25,490.65 217.20,497.05 220.14,503.13 223.09,509.22 226.03,515.30 228.98,521.07 231.93,524.97 234.87,528.87 237.82,532.76 240.76,536.66 243.71,539.15 246.65,541.41 249.60,543.67 252.54,545.93 255.49,547.22 258.43,547.77 261.38,548.33 264.32,548.88 267.27,548.99 270.22,548.00 273.16,547.00 276.11,546.00 279.05,545.00 282.00,542.78 284.94,540.56 287.89,538.33 290.83,536.11 293.78,533.29 296.72,530.23 299.67,527.17 302.62,524.10 305.56,520.73 308.51,516.93 311.45,513.14 314.40,509.34 317.34,505.45 320.29,500.97 323.23,496.48 326.17,491.99 329.13,487.51 332.07,482.49 335.01,477.38 337.96,472.27 340.91,467.16 343.85,461.68 346.80,455.94 349.74,450.19 352.68,444.45 355.64,438.51 358.58,432.11 361.52,425.71 364.47,419.31 367.41,412.91 370.35,405.85 373.31,398.80 376.25,391.74 379.19,384.68 382.15,377.23 385.09,369.61 388.03,361.99 390.98,354.38 393.92,346.62 396.86,338.66 399.82,330.70 402.76,322.74 405.70,314.78 408.65,306.79 411.59,298.80 414.54,290.80 417.49,282.81 420.43,275.10 423.37,267.43 426.33,259.75 429.27,252.09 432.21,244.76 435.16,237.70 438.10,230.63 441.04,223.57 444.00,216.73 446.94,210.41 449.88,204.10 452.83,197.78 455.78,191.47 458.72,185.98 461.67,180.48 464.61,174.98 467.55,169.49 470.51,164.64 473.45,160.05 476.39,155.47 479.34,150.88 482.28,146.73 485.23,143.16 488.18,139.58 491.12,136.01 494.06,132.60 497.02,130.21 499.96,127.80 502.90,125.40 505.85,122.99 508.79,121.75 511.73,120.70 514.69,119.65 517.63,118.61 520.57,118.45 523.52,118.98 526.47,119.51 529.41,120.03 532.36,121.07 535.30,123.42 538.24,125.76 541.20,128.08 544.14,130.42 547.08,134.77 550.03,139.10 552.97,143.44 555.92,147.77 558.87,153.61 561.81,160.03 564.75,166.47 567.71,172.89 570.65,180.16 573.59,188.56 576.54,196.93 579.48,205.32 582.42,213.92 585.38,223.89 588.32,233.86 591.26,243.83 594.21,253.79 597.16,264.62 600.10,275.60 603.05,286.58 605.99,297.55 608.93,308.80 611.89,320.25 614.83,331.69 617.77,343.14 620.72,354.62 623.66,366.20 626.60,377.78 629.56,389.35 632.50,400.93 635.44,412.28 638.40,423.63 641.34,434.97 644.28,446.32 647.23,457.09 650.17,467.63 653.11,478.16 656.07,488.70 659.01,498.65 661.95,507.83 664.90,517.01 667.84,526.19 670.79,535.13 673.74,542.67 676.68,550.19 679.62,557.72 682.58,565.25 685.52,571.38 688.46,577.26 691.41,583.15 694.35,589.03 697.29,594.11 700.25,598.58 703.19,603.05 706.13,607.52 709.08,611.69 712.03,615.06 714.97,618.44 717.92,621.83 720.86,625.20 723.80,627.78 726.76,630.33 729.70,632.90 732.64,635.46 735.59,637.59 738.53,639.55 741.48,641.51 744.43,643.46 747.37,645.23 750.31,646.76 753.27,648.30 756.21,649.83 759.15,651.30 762.10,652.49 765.04,653.66 767.98,654.83 770.94,656.02 773.88,656.90 776.82,657.74 779.77,658.57 782.72,659.41 785.66,660.01 788.61,660.43 791.55,660.86 794.49,661.29 797.45,661.55 800.39,661.45 803.33,661.32 806.28,661.21 809.22,661.11 812.17,660.31 815.12,659.53 818.06,658.75 821.00,657.97 823.96,656.64 826.90,655.08 829.84,653.53 832.79,651.97 835.73,650.09 838.67,647.75 841.63,645.41 844.57,643.07 847.51,640.62 850.46,637.51 853.41,634.41 856.35,631.31 859.30,628.20 862.24,624.49 865.18,620.66 868.14,616.85 871.08,613.02 874.02,608.83 876.97,604.36 879.91,599.89 882.85,595.42 885.81,590.80 888.75,585.81 891.69,580.82 894.65,575.83 897.59,570.84 900.53,565.56 903.48,560.27 906.42,554.99 909.36,549.71 912.32,544.45 915.26,539.20 918.20,533.96 921.15,528.71 924.09,523.63 927.04,518.76 929.99,513.90 932.93,509.03 935.87,504.26 938.83,500.07 941.77,495.88 944.71,491.70 947.66,487.51 950.60,484.11 953.54,480.84 956.50,477.57 959.44,474.31 962.38,471.64 965.33,469.42 968.28,467.20 971.22,464.98 974.17,463.05 977.11,461.84 980.05,460.63 983.01,459.42 985.95,458.20 988.89,457.79 991.84,457.38 994.78,456.96 997.73,456.55 1000.68,456.48 1003.62,456.54 1006.56,456.61 1009.52,456.67 1012.46,456.77 1015.40,456.94 1018.35,457.10 1021.29,457.26 1024.23,457.37 1027.19,457.14 1030.13,456.92 1033.07,456.70 1036.02,456.48 1038.97,455.53 1041.91,454.46 1044.86,453.39 1047.80,452.32 1050.74,450.42 1053.70,447.90 1056.64,445.38 1059.58,442.86 1062.53,440.57 1065.47,438.84 1068.42,437.12 1071.37,435.39 1074.31,433.67" fill="none" stroke="#000000" stroke-width="3"/>
<line x1="142" y1="100" x2="178" y2="100" stroke="#000000" stroke-width="4"/>
<text x="188" y="105" font-family="Arial" font-size="18" fill="black">U:0</text>
</svg>