<svg xmlns="http://www.w3.org/2000/svg" width="1200" height="820" viewBox="0 0 1200 820">
<rect width="100%" height="100%" fill="white"/>
<text x="600.0" y="36" text-anchor="middle" font-family="Arial" font-size="24" fill="black">profile_diagonal_supply_return: k</text>
<line x1="120.00" y1="75" x2="120.00" y2="705" stroke="#dddddd" stroke-width="1"/>
<text x="120.00" y="737" text-anchor="middle" font-family="Arial" font-size="16" fill="black">-0.729</text>
<line x1="376.25" y1="75" x2="376.25" y2="705" stroke="#dddddd" stroke-width="1"/>
<text x="376.25" y="737" text-anchor="middle" font-family="Arial" font-size="16" fill="black">1.913</text>
<line x1="632.50" y1="75" x2="632.50" y2="705" stroke="#dddddd" stroke-width="1"/>
<text x="632.50" y="737" text-anchor="middle" font-family="Arial" font-size="16" fill="black">4.555</text>
<line x1="888.75" y1="75" x2="888.75" y2="705" stroke="#dddddd" stroke-width="1"/>
<text x="888.75" y="737" text-anchor="middle" font-family="Arial" font-size="16" fill="black">7.197</text>
<line x1="1145.00" y1="75" x2="1145.00" y2="705" stroke="#dddddd" stroke-width="1"/>
<text x="1145.00" y="737" text-anchor="middle" font-family="Arial" font-size="16" fill="black">9.839</text>
<line x1="120" y1="705.00" x2="1145" y2="705.00" stroke="#dddddd" stroke-width="1"/>
<text x="104" y="710.00" text-anchor="end" font-family="Arial" font-size="16" fill="black">-0.001</text>
<line x1="120" y1="547.50" x2="1145" y2="547.50" stroke="#dddddd" stroke-width="1"/>
<text x="104" y="552.50" text-anchor="end" font-family="Arial" font-size="16" fill="black">0.010</text>
<line x1="120" y1="390.00" x2="1145" y2="390.00" stroke="#dddddd" stroke-width="1"/>
<text x="104" y="395.00" text-anchor="end" font-family="Arial" font-size="16" fill="black">0.021</text>
<line x1="120" y1="232.50" x2="1145" y2="232.50" stroke="#dddddd" stroke-width="1"/>
<text x="104" y="237.50" text-anchor="end" font-family="Arial" font-size="16" fill="black">0.032</text>
<line x1="120" y1="75.00" x2="1145" y2="75.00" stroke="#dddddd" stroke-width="1"/>
<text x="104" y="80.00" text-anchor="end" font-family="Arial" font-size="16" fill="black">0.042</text>
<rect x="120" y="75" width="1025" height="630" fill="none" stroke="black" stroke-width="2"/>
<text x="632.5" y="785" text-anchor="middle" font-family="Arial" font-size="20" fill="black">distance along sample line [m]</text>
<text x="34" y="390.0" transform="rotate(-90 34 390.0)" text-anchor="middle" font-family="Arial" font-size="20" fill="black">k [m2/s2]</text>
<polyline points="190.69,653.88 193.64,652.87 196.58,651.83 199.53,650.78 202.47,649.68 205.42,648.01 208.36,645.99 211.31,642.97 214.25,639.54 217.20,635.78 220.14,631.73 223.09,627.44 226.03,622.78 228.98,617.48 231.93,612.10 234.87,606.34 237.82,600.16 240.76,593.54 243.71,586.71 246.65,579.28 249.60,571.24 252.54,565.39 255.49,559.63 258.43,553.83 261.38,547.74 264.32,541.49 267.27,534.85 270.22,528.03 273.16,520.68 276.11,512.75 279.05,504.20 282.00,498.46 284.94,492.35 287.88,485.84 290.83,478.91 293.78,472.25 296.73,465.47 299.67,459.00 302.62,452.12 305.57,445.28 308.50,438.68 311.45,433.48 314.40,427.97 317.34,423.05 320.29,418.74 323.24,414.07 326.18,409.04 329.12,403.65 332.07,399.06 335.01,395.09 337.96,390.81 340.91,387.65 343.85,384.96 346.80,382.53 349.74,379.72 352.68,377.44 355.63,375.08 358.58,373.07 361.53,370.75 364.47,368.21 367.42,365.46 370.36,363.61 373.30,361.42 376.25,358.97 379.20,356.31 382.14,351.70 385.09,346.41 388.04,341.45 390.97,336.58 393.92,330.24 396.87,322.08 399.81,314.41 402.76,306.94 405.71,299.03 408.65,288.51 411.59,278.33 414.54,268.51 417.48,259.05 420.43,248.48 423.38,237.89 426.32,227.62 429.27,217.77 432.21,208.59 435.16,199.92 438.10,191.54 441.05,183.47 444.00,176.31 446.94,170.88 449.89,165.55 452.84,160.33 455.77,155.22 458.72,153.14 461.67,151.07 464.61,149.03 467.56,147.03 470.51,146.88 473.45,147.36 476.39,148.12 479.34,148.78 482.28,150.13 485.23,152.35 488.18,154.04 491.12,155.70 494.07,157.93 497.01,160.86 499.96,163.65 502.90,166.35 505.85,168.98 508.80,171.77 511.74,174.90 514.69,177.88 517.63,180.34 520.57,182.51 523.52,184.48 526.47,186.48 529.41,188.78 532.36,190.63 535.31,191.54 538.24,192.40 541.19,193.23 544.14,194.04 547.08,192.52 550.03,191.01 552.98,189.51 555.92,188.03 558.86,184.92 561.81,181.24 564.76,178.00 567.70,174.82 570.65,170.94 573.60,166.12 576.54,160.97 579.49,156.09 582.43,151.77 585.37,147.45 588.32,143.33 591.27,139.42 594.21,135.70 597.16,133.51 600.11,131.93 603.04,130.45 605.99,129.13 608.94,129.32 611.88,130.54 614.83,131.70 617.78,133.14 620.72,134.94 623.66,137.53 626.61,139.93 629.55,142.14 632.50,144.17 635.45,146.74 638.40,149.30 641.34,151.83 644.28,154.35 647.23,156.78 650.17,159.28 653.12,162.60 656.07,166.03 659.01,169.69 661.96,173.55 664.90,178.01 667.84,182.58 670.79,186.94 673.74,190.83 676.68,194.60 679.63,198.24 682.58,201.76 685.51,204.05 688.46,205.37 691.41,206.55 694.35,207.97 697.30,208.36 700.25,207.96 703.20,207.44 706.14,206.46 709.08,205.14 712.03,202.91 714.97,200.75 717.92,198.68 720.87,196.70 723.81,194.11 726.76,191.71 729.70,189.48 732.64,187.45 735.59,185.26 738.54,183.08 741.48,180.87 744.43,178.80 747.38,176.79 750.31,174.75 753.26,172.88 756.21,171.02 759.15,168.88 762.10,166.62 765.05,164.24 767.99,161.72 770.93,159.08 773.88,156.29 776.83,153.22 779.77,150.03 782.72,146.44 785.67,142.73 788.61,138.91 791.55,134.92 794.50,131.46 797.44,128.17 800.39,125.42 803.34,122.86 806.28,120.53 809.23,118.45 812.17,118.72 815.11,119.48 818.06,120.72 821.01,122.46 823.95,126.51 826.90,131.89 829.85,138.14 832.79,144.74 835.73,152.95 838.68,163.04 841.63,172.73 844.57,182.58 847.52,191.54 850.47,201.86 853.41,211.75 856.35,221.22 859.30,230.27 862.24,238.97 865.19,246.08 868.14,252.71 871.08,258.79 874.03,264.18 876.97,269.10 879.91,273.77 882.86,279.09 885.81,284.28 888.75,289.30 891.70,294.39 894.65,299.53 897.58,304.74 900.53,311.38 903.48,317.95 906.43,324.42 909.37,330.80 912.32,336.78 915.27,342.46 918.20,348.57 921.15,354.45 924.10,359.90 927.04,364.80 929.99,368.76 932.94,372.38 935.88,376.33 938.82,379.91 941.77,383.42 944.71,386.88 947.66,390.36 950.61,393.90 953.55,398.62 956.50,403.59 959.44,407.64 962.38,412.07 965.33,416.86 968.28,421.95 971.22,428.50 974.17,435.61 977.12,443.30 980.06,451.36 983.00,459.77 985.95,468.51 988.90,477.56 991.84,486.96 994.79,496.65 997.74,506.55 1000.68,516.42 1003.62,526.00 1006.57,534.43 1009.51,542.65 1012.46,550.61 1015.41,558.22 1018.35,567.17 1021.30,575.57 1024.24,583.14 1027.18,590.26 1030.13,596.99 1033.08,603.34 1036.02,609.35 1038.97,614.98 1041.92,621.88 1044.86,628.23 1047.80,633.86 1050.75,639.12 1053.70,643.97 1056.64,648.28 1059.59,651.92 1062.54,654.88 1065.47,656.86 1068.42,658.62 1071.37,660.17 1074.31,661.55" fill="none" stroke="#000000" stroke-width="3"/>
<line x1="142" y1="100" x2="178" y2="100" stroke="#000000" stroke-width="4"/>
<text x="188" y="105" font-family="Arial" font-size="18" fill="black">k</text>
</svg>