<svg xmlns="http://www.w3.org/2000/svg" width="1200" height="820" viewBox="0 0 1200 820">
<rect width="100%" height="100%" fill="white"/>
<text x="600.0" y="36" text-anchor="middle" font-family="Arial" font-size="24" fill="black">profile_center_x: vorticity:2</text>
<line x1="120.00" y1="75" x2="120.00" y2="705" stroke="#dddddd" stroke-width="1"/>
<text x="120.00" y="737" text-anchor="middle" font-family="Arial" font-size="16" fill="black">-0.560</text>
<line x1="376.25" y1="75" x2="376.25" y2="705" stroke="#dddddd" stroke-width="1"/>
<text x="376.25" y="737" text-anchor="middle" font-family="Arial" font-size="16" fill="black">1.470</text>
<line x1="632.50" y1="75" x2="632.50" y2="705" stroke="#dddddd" stroke-width="1"/>
<text x="632.50" y="737" text-anchor="middle" font-family="Arial" font-size="16" fill="black">3.500</text>
<line x1="888.75" y1="75" x2="888.75" y2="705" stroke="#dddddd" stroke-width="1"/>
<text x="888.75" y="737" text-anchor="middle" font-family="Arial" font-size="16" fill="black">5.530</text>
<line x1="1145.00" y1="75" x2="1145.00" y2="705" stroke="#dddddd" stroke-width="1"/>
<text x="1145.00" y="737" text-anchor="middle" font-family="Arial" font-size="16" fill="black">7.560</text>
<line x1="120" y1="705.00" x2="1145" y2="705.00" stroke="#dddddd" stroke-width="1"/>
<text x="104" y="710.00" text-anchor="end" font-family="Arial" font-size="16" fill="black">-0.683</text>
<line x1="120" y1="547.50" x2="1145" y2="547.50" stroke="#dddddd" stroke-width="1"/>
<text x="104" y="552.50" text-anchor="end" font-family="Arial" font-size="16" fill="black">-0.309</text>
<line x1="120" y1="390.00" x2="1145" y2="390.00" stroke="#dddddd" stroke-width="1"/>
<text x="104" y="395.00" text-anchor="end" font-family="Arial" font-size="16" fill="black">0.065</text>
<line x1="120" y1="232.50" x2="1145" y2="232.50" stroke="#dddddd" stroke-width="1"/>
<text x="104" y="237.50" text-anchor="end" font-family="Arial" font-size="16" fill="black">0.438</text>
<line x1="120" y1="75.00" x2="1145" y2="75.00" stroke="#dddddd" stroke-width="1"/>
<text x="104" y="80.00" text-anchor="end" font-family="Arial" font-size="16" fill="black">0.812</text>
<rect x="120" y="75" width="1025" height="630" fill="none" stroke="black" stroke-width="2"/>
<text x="632.5" y="785" text-anchor="middle" font-family="Arial" font-size="20" fill="black">x coordinate [m]</text>
<text x="34" y="390.0" transform="rotate(-90 34 390.0)" text-anchor="middle" font-family="Arial" font-size="20" fill="black">vorticity:2 [SI]</text>
<polyline points="190.69,182.44 193.64,231.95 196.58,281.46 199.53,330.97 202.47,380.48 205.42,431.63 208.36,483.43 211.31,535.24 214.25,587.04 217.20,618.57 220.14,623.08 223.09,627.59 226.03,632.10 228.98,636.53 231.93,640.51 234.87,644.49 237.82,648.48 240.76,652.46 243.71,654.90 246.65,657.08 249.60,659.27 252.54,661.45 255.49,661.55 258.43,660.09 261.38,658.62 264.32,657.16 267.27,654.17 270.22,647.36 273.16,640.56 276.11,633.75 279.05,626.94 282.00,614.00 284.94,601.07 287.89,588.13 290.83,575.18 293.78,558.99 296.72,541.50 299.67,524.01 302.62,506.51 305.56,488.40 308.51,469.45 311.45,450.51 314.40,431.57 317.34,412.78 320.29,394.95 323.23,377.12 326.17,359.29 329.13,341.46 332.07,325.88 335.01,310.69 337.96,295.49 340.91,280.29 343.85,266.77 346.80,254.51 349.74,242.25 352.68,229.99 355.64,218.48 358.58,208.83 361.52,199.18 364.47,189.53 367.41,179.88 370.35,172.61 373.31,165.34 376.25,158.08 379.19,150.81 382.15,145.25 385.09,140.38 388.03,135.52 390.98,130.65 393.92,126.91 396.86,124.69 399.82,122.47 402.76,120.24 405.70,118.45 408.65,119.21 411.59,119.97 414.54,120.72 417.49,121.48 420.43,124.67 423.37,128.25 426.33,131.84 429.27,135.43 432.21,140.10 435.16,145.59 438.10,151.07 441.04,156.55 444.00,162.26 446.94,168.54 449.88,174.82 452.83,181.10 455.78,187.37 458.72,193.72 461.67,200.06 464.61,206.40 467.55,212.74 470.51,218.82 473.45,224.80 476.39,230.78 479.34,236.76 482.28,242.48 485.23,247.85 488.18,253.21 491.12,258.58 494.06,263.83 497.02,268.38 499.96,272.94 502.90,277.49 505.85,282.05 508.79,285.72 511.73,289.24 514.69,292.76 517.63,296.28 520.57,299.09 523.52,301.38 526.47,303.66 529.41,305.94 532.36,307.83 535.30,308.76 538.24,309.70 541.20,310.63 544.14,311.56 547.08,311.20 550.03,310.84 552.97,310.48 555.92,310.12 558.87,309.00 561.81,307.58 564.75,306.16 567.71,304.74 570.65,303.05 573.59,300.99 576.54,298.93 579.48,296.86 582.42,294.81 585.38,292.83 588.32,290.85 591.26,288.87 594.21,286.89 597.16,285.70 600.10,284.64 603.05,283.59 605.99,282.53 608.93,282.32 611.89,282.73 614.83,283.14 617.77,283.56 620.72,284.42 623.66,286.42 626.60,288.41 629.56,290.41 632.50,292.41 635.44,295.54 638.40,298.67 641.34,301.81 644.28,304.94 647.23,308.08 650.17,311.23 653.11,314.38 656.07,317.52 659.01,320.17 661.95,322.15 664.90,324.14 667.84,326.12 670.79,327.87 673.74,328.20 676.68,328.53 679.62,328.87 682.58,329.20 685.52,328.23 688.46,327.03 691.41,325.83 694.35,324.64 697.29,322.81 700.25,320.51 703.19,318.22 706.13,315.91 709.08,313.47 712.03,310.65 714.97,307.83 717.92,305.02 720.86,302.20 723.80,299.45 726.76,296.70 729.70,293.96 732.64,291.21 735.59,288.84 738.53,286.63 741.48,284.41 744.43,282.20 747.37,280.39 750.31,279.11 753.27,277.84 756.21,276.57 759.15,275.49 762.10,275.58 765.04,275.67 767.98,275.75 770.94,275.84 773.88,277.44 776.82,279.29 779.77,281.13 782.72,282.98 785.66,286.02 788.61,289.95 791.55,293.88 794.49,297.81 797.45,302.39 800.39,308.57 803.33,314.75 806.28,320.93 809.22,327.11 812.17,335.43 815.12,343.74 818.06,352.06 821.00,360.38 823.96,369.90 826.90,379.89 829.84,389.89 832.79,399.89 835.73,410.28 838.67,421.20 841.63,432.11 844.57,443.03 847.51,453.94 850.46,464.81 853.41,475.68 856.35,486.56 859.30,497.43 862.24,507.45 865.18,517.32 868.14,527.19 871.08,537.07 874.02,545.91 876.97,553.98 879.91,562.04 882.85,570.11 885.81,577.48 888.75,583.13 891.69,588.77 894.65,594.42 897.59,600.07 900.53,602.85 903.48,605.63 906.42,608.41 909.36,611.19 912.32,611.74 915.26,611.39 918.20,611.05 921.15,610.71 924.09,609.09 927.04,605.77 929.99,602.45 932.93,599.14 935.87,595.46 938.83,589.60 941.77,583.75 944.71,577.89 947.66,572.04 950.60,564.57 953.54,556.85 956.50,549.13 959.44,541.40 962.38,533.18 965.33,524.58 968.28,515.98 971.22,507.38 974.17,498.84 977.11,490.44 980.05,482.04 983.01,473.65 985.95,465.25 988.89,457.96 991.84,450.67 994.78,443.38 997.73,436.09 1000.68,429.96 1003.62,424.29 1006.56,418.63 1009.52,412.96 1012.46,408.04 1015.40,404.13 1018.35,400.21 1021.29,396.30 1024.23,392.60 1027.19,390.19 1030.13,387.79 1033.07,385.38 1036.02,382.98 1038.97,381.20 1041.91,379.52 1044.86,377.84 1047.80,376.17 1050.74,369.48 1053.70,359.05 1056.64,348.61 1059.58,338.17 1062.53,327.97 1065.47,318.33 1068.42,308.69 1071.37,299.05 1074.31,289.41" fill="none" stroke="#000000" stroke-width="3"/>
<line x1="142" y1="100" x2="178" y2="100" stroke="#000000" stroke-width="4"/>
<text x="188" y="105" font-family="Arial" font-size="18" fill="black">vorticity:2</text>
</svg>