<svg xmlns="http://www.w3.org/2000/svg" width="1200" height="820" viewBox="0 0 1200 820">
<rect width="100%" height="100%" fill="white"/>
<text x="600.0" y="36" text-anchor="middle" font-family="Arial" font-size="24" fill="black">profile_center_y: velocity magnitude</text>
<line x1="120.00" y1="75" x2="120.00" y2="705" stroke="#dddddd" stroke-width="1"/>
<text x="120.00" y="737" text-anchor="middle" font-family="Arial" font-size="16" fill="black">-0.400</text>
<line x1="376.25" y1="75" x2="376.25" y2="705" stroke="#dddddd" stroke-width="1"/>
<text x="376.25" y="737" text-anchor="middle" font-family="Arial" font-size="16" fill="black">1.050</text>
<line x1="632.50" y1="75" x2="632.50" y2="705" stroke="#dddddd" stroke-width="1"/>
<text x="632.50" y="737" text-anchor="middle" font-family="Arial" font-size="16" fill="black">2.500</text>
<line x1="888.75" y1="75" x2="888.75" y2="705" stroke="#dddddd" stroke-width="1"/>
<text x="888.75" y="737" text-anchor="middle" font-family="Arial" font-size="16" fill="black">3.950</text>
<line x1="1145.00" y1="75" x2="1145.00" y2="705" stroke="#dddddd" stroke-width="1"/>
<text x="1145.00" y="737" text-anchor="middle" font-family="Arial" font-size="16" fill="black">5.400</text>
<line x1="120" y1="705.00" x2="1145" y2="705.00" stroke="#dddddd" stroke-width="1"/>
<text x="104" y="710.00" text-anchor="end" font-family="Arial" font-size="16" fill="black">0.113</text>
<line x1="120" y1="547.50" x2="1145" y2="547.50" stroke="#dddddd" stroke-width="1"/>
<text x="104" y="552.50" text-anchor="end" font-family="Arial" font-size="16" fill="black">0.224</text>
<line x1="120" y1="390.00" x2="1145" y2="390.00" stroke="#dddddd" stroke-width="1"/>
<text x="104" y="395.00" text-anchor="end" font-family="Arial" font-size="16" fill="black">0.334</text>
<line x1="120" y1="232.50" x2="1145" y2="232.50" stroke="#dddddd" stroke-width="1"/>
<text x="104" y="237.50" text-anchor="end" font-family="Arial" font-size="16" fill="black">0.444</text>
<line x1="120" y1="75.00" x2="1145" y2="75.00" stroke="#dddddd" stroke-width="1"/>
<text x="104" y="80.00" text-anchor="end" font-family="Arial" font-size="16" fill="black">0.555</text>
<rect x="120" y="75" width="1025" height="630" fill="none" stroke="black" stroke-width="2"/>
<text x="632.5" y="785" text-anchor="middle" font-family="Arial" font-size="20" fill="black">y coordinate [m]</text>
<text x="34" y="390.0" transform="rotate(-90 34 390.0)" text-anchor="middle" font-family="Arial" font-size="20" fill="black">|U| [m/s]</text>
<polyline points="190.69,661.55 193.64,659.54 196.58,657.53 199.53,655.53 202.47,653.52 205.42,651.52 208.36,649.51 211.31,638.21 214.25,626.92 217.20,615.62 220.14,604.32 223.09,593.03 226.03,581.73 228.98,571.24 231.92,560.77 234.87,550.28 237.82,539.79 240.76,529.32 243.71,518.83 246.65,509.51 249.60,500.18 252.54,490.86 255.49,481.54 258.43,472.23 261.38,462.91 264.33,455.65 267.27,448.38 270.22,441.12 273.16,433.86 276.11,426.59 279.05,419.33 282.00,414.72 284.94,410.11 287.89,405.50 290.83,400.89 293.78,396.29 296.72,391.68 299.67,389.92 302.61,388.15 305.56,386.38 308.51,384.63 311.45,382.86 314.40,381.09 317.34,382.27 320.29,383.46 323.23,384.64 326.18,385.81 329.12,387.00 332.07,388.18 335.01,392.08 337.96,395.96 340.91,399.85 343.85,403.73 346.80,407.63 349.74,411.51 352.69,417.10 355.63,422.68 358.58,428.28 361.52,433.87 364.47,439.45 367.41,445.04 370.37,449.94 373.30,454.82 376.25,459.71 379.20,464.61 382.13,469.49 385.09,474.38 388.04,476.22 390.97,478.05 393.92,479.88 396.87,481.72 399.81,483.54 402.76,485.37 405.71,483.56 408.64,481.76 411.59,479.95 414.55,478.13 417.48,476.32 420.43,474.52 423.38,470.21 426.32,465.91 429.27,461.60 432.22,457.29 435.15,452.98 438.10,448.67 441.05,443.55 443.99,438.42 446.94,433.30 449.89,428.18 452.82,423.04 455.78,417.92 458.73,413.31 461.66,408.69 464.61,404.06 467.56,399.44 470.50,394.83 473.45,390.21 476.40,386.91 479.33,383.61 482.28,380.32 485.24,377.02 488.17,373.73 491.12,370.44 494.07,369.03 497.01,367.62 499.96,366.21 502.91,364.79 505.84,363.38 508.79,361.97 511.74,363.05 514.68,364.14 517.63,365.22 520.58,366.31 523.51,367.39 526.47,368.47 529.42,372.66 532.35,376.84 535.30,381.02 538.25,385.18 541.19,389.37 544.14,393.55 547.09,400.01 550.02,406.49 552.97,412.95 555.93,419.42 558.86,425.89 561.81,432.36 564.76,439.38 567.70,446.40 570.65,453.41 573.60,460.43 576.53,467.45 579.48,474.47 582.43,480.92 585.37,487.37 588.32,493.82 591.27,500.27 594.20,506.72 597.16,513.17 600.11,518.35 603.04,523.52 605.99,528.70 608.94,533.88 611.88,539.05 614.83,544.23 617.78,547.68 620.71,551.12 623.66,554.57 626.62,558.01 629.55,561.45 632.50,564.91 635.45,566.40 638.38,567.90 641.34,569.40 644.29,570.91 647.22,572.41 650.17,573.91 653.12,573.60 656.06,573.28 659.01,572.97 661.96,572.65 664.89,572.34 667.84,572.03 670.80,570.24 673.73,568.44 676.68,566.66 679.63,564.86 682.57,563.08 685.52,561.30 688.47,558.26 691.40,555.23 694.35,552.21 697.30,549.18 700.24,546.16 703.19,543.13 706.14,538.82 709.07,534.50 712.03,530.19 714.98,525.88 717.91,521.57 720.86,517.25 723.81,511.77 726.75,506.29 729.70,500.81 732.65,495.33 735.58,489.85 738.53,484.37 741.49,478.19 744.42,472.03 747.37,465.86 750.32,459.68 753.26,453.52 756.21,447.34 759.16,440.86 762.09,434.38 765.04,427.92 767.99,421.44 770.93,414.96 773.88,408.49 776.83,402.05 779.76,395.60 782.72,389.17 785.67,382.73 788.60,376.29 791.55,369.84 794.50,363.82 797.44,357.79 800.39,351.75 803.34,345.73 806.27,339.69 809.22,333.66 812.18,328.52 815.11,323.38 818.06,318.26 821.01,313.12 823.95,307.99 826.90,302.85 829.85,299.31 832.78,295.77 835.73,292.23 838.68,288.71 841.62,285.17 844.57,281.63 847.52,280.62 850.45,279.59 853.41,278.58 856.36,277.55 859.29,276.54 862.24,275.52 865.19,277.94 868.13,280.36 871.08,282.79 874.03,285.21 876.96,287.64 879.91,290.07 882.87,296.30 885.80,302.54 888.75,308.77 891.70,315.01 894.63,321.26 897.59,327.49 900.54,336.35 903.47,345.23 906.42,354.09 909.37,362.97 912.31,371.83 915.26,380.70 918.21,390.95 921.14,401.21 924.09,411.47 927.05,421.71 929.98,431.97 932.93,442.23 935.88,453.93 938.82,465.63 941.77,477.34 944.72,489.04 947.65,500.74 950.60,512.44 953.55,524.68 956.49,536.92 959.44,549.17 962.39,561.41 965.32,573.65 968.28,585.88 971.23,592.25 974.16,598.60 977.11,604.95 980.06,611.30 983.00,617.66 985.95,624.01 988.90,615.42 991.83,606.84 994.78,598.27 997.74,589.68 1000.67,581.10 1003.62,572.51 1006.57,553.18 1009.51,533.84 1012.46,514.51 1015.41,495.17 1018.34,475.84 1021.29,456.50 1024.24,434.08 1027.18,411.68 1030.13,389.28 1033.08,366.86 1036.01,344.46 1038.97,322.06 1041.92,299.70 1044.85,277.34 1047.80,254.98 1050.75,232.62 1053.69,210.26 1056.64,187.90 1059.59,176.32 1062.52,164.75 1065.47,153.17 1068.43,141.59 1071.36,130.02 1074.31,118.45" fill="none" stroke="#000000" stroke-width="3"/>
<line x1="142" y1="100" x2="178" y2="100" stroke="#000000" stroke-width="4"/>
<text x="188" y="105" font-family="Arial" font-size="18" fill="black">|U|</text>
</svg>