<svg xmlns="http://www.w3.org/2000/svg" width="1200" height="820" viewBox="0 0 1200 820">
<rect width="100%" height="100%" fill="white"/>
<text x="600.0" y="36" text-anchor="middle" font-family="Arial" font-size="24" fill="black">profile_center_z: vorticity:2</text>
<line x1="120.00" y1="75" x2="120.00" y2="705" stroke="#dddddd" stroke-width="1"/>
<text x="120.00" y="737" text-anchor="middle" font-family="Arial" font-size="16" fill="black">-0.240</text>
<line x1="376.25" y1="75" x2="376.25" y2="705" stroke="#dddddd" stroke-width="1"/>
<text x="376.25" y="737" text-anchor="middle" font-family="Arial" font-size="16" fill="black">0.630</text>
<line x1="632.50" y1="75" x2="632.50" y2="705" stroke="#dddddd" stroke-width="1"/>
<text x="632.50" y="737" text-anchor="middle" font-family="Arial" font-size="16" fill="black">1.500</text>
<line x1="888.75" y1="75" x2="888.75" y2="705" stroke="#dddddd" stroke-width="1"/>
<text x="888.75" y="737" text-anchor="middle" font-family="Arial" font-size="16" fill="black">2.370</text>
<line x1="1145.00" y1="75" x2="1145.00" y2="705" stroke="#dddddd" stroke-width="1"/>
<text x="1145.00" y="737" text-anchor="middle" font-family="Arial" font-size="16" fill="black">3.240</text>
<line x1="120" y1="705.00" x2="1145" y2="705.00" stroke="#dddddd" stroke-width="1"/>
<text x="104" y="710.00" text-anchor="end" font-family="Arial" font-size="16" fill="black">-0.028</text>
<line x1="120" y1="547.50" x2="1145" y2="547.50" stroke="#dddddd" stroke-width="1"/>
<text x="104" y="552.50" text-anchor="end" font-family="Arial" font-size="16" fill="black">0.062</text>
<line x1="120" y1="390.00" x2="1145" y2="390.00" stroke="#dddddd" stroke-width="1"/>
<text x="104" y="395.00" text-anchor="end" font-family="Arial" font-size="16" fill="black">0.152</text>
<line x1="120" y1="232.50" x2="1145" y2="232.50" stroke="#dddddd" stroke-width="1"/>
<text x="104" y="237.50" text-anchor="end" font-family="Arial" font-size="16" fill="black">0.242</text>
<line x1="120" y1="75.00" x2="1145" y2="75.00" stroke="#dddddd" stroke-width="1"/>
<text x="104" y="80.00" text-anchor="end" font-family="Arial" font-size="16" fill="black">0.333</text>
<rect x="120" y="75" width="1025" height="630" fill="none" stroke="black" stroke-width="2"/>
<text x="632.5" y="785" text-anchor="middle" font-family="Arial" font-size="20" fill="black">z coordinate [m]</text>
<text x="34" y="390.0" transform="rotate(-90 34 390.0)" text-anchor="middle" font-family="Arial" font-size="20" fill="black">vorticity:2 [SI]</text>
<polyline points="190.69,656.64 193.64,656.75 196.58,656.85 199.53,656.96 202.47,657.06 205.42,657.17 208.36,657.27 211.31,657.38 214.25,657.48 217.20,657.59 220.14,657.69 223.09,658.08 226.03,658.47 228.98,658.85 231.93,659.24 234.87,659.62 237.82,660.01 240.76,660.39 243.71,660.78 246.65,661.17 249.60,661.55 252.54,659.46 255.49,657.37 258.43,655.28 261.38,653.19 264.32,651.10 267.27,649.01 270.22,646.92 273.16,644.83 276.11,642.74 279.05,640.65 282.00,628.59 284.94,616.54 287.89,604.48 290.83,592.42 293.78,580.37 296.72,568.31 299.67,556.25 302.61,544.19 305.56,532.14 308.51,520.08 311.45,507.60 314.40,495.12 317.34,482.65 320.29,470.17 323.23,457.70 326.18,445.21 329.12,432.74 332.07,420.25 335.01,407.78 337.96,395.31 340.91,390.81 343.85,386.32 346.80,381.83 349.74,377.34 352.69,372.85 355.63,368.37 358.58,363.88 361.52,359.37 364.47,354.88 367.41,350.40 370.36,348.46 373.30,346.52 376.25,344.58 379.20,342.62 382.14,340.69 385.09,338.75 388.03,336.81 390.98,334.87 393.92,332.93 396.87,330.97 399.81,330.68 402.76,330.38 405.70,330.08 408.65,329.79 411.59,329.49 414.54,329.19 417.49,328.90 420.43,328.60 423.38,328.30 426.32,328.01 429.27,327.27 432.21,326.54 435.16,325.81 438.10,325.05 441.05,324.32 443.99,323.59 446.94,322.85 449.89,322.10 452.83,321.37 455.78,320.64 458.72,318.92 461.67,317.20 464.61,315.48 467.56,313.75 470.50,312.04 473.45,310.31 476.39,308.60 479.34,306.89 482.28,305.16 485.23,303.45 488.18,300.92 491.12,298.37 494.07,295.84 497.01,293.30 499.96,290.77 502.90,288.24 505.85,285.71 508.79,283.16 511.74,280.62 514.68,278.09 517.63,274.67 520.57,271.23 523.52,267.81 526.47,264.36 529.41,260.94 532.36,257.50 535.30,254.08 538.25,250.66 541.19,247.21 544.14,243.79 547.08,239.88 550.03,235.98 552.97,232.07 555.92,228.18 558.86,224.27 561.81,220.35 564.76,216.46 567.70,212.55 570.65,208.65 573.59,204.74 576.54,201.07 579.48,197.41 582.43,193.72 585.37,190.05 588.32,186.39 591.26,182.70 594.21,179.03 597.16,175.37 600.10,171.68 603.05,168.01 605.99,165.10 608.94,162.16 611.88,159.25 614.83,156.33 617.77,153.39 620.72,150.48 623.66,147.54 626.61,144.63 629.55,141.71 632.50,138.78 635.45,137.03 638.39,135.27 641.34,133.50 644.28,131.74 647.23,129.97 650.17,128.21 653.12,126.46 656.06,124.70 659.01,122.94 661.95,121.17 664.90,120.89 667.84,120.63 670.79,120.35 673.74,120.09 676.68,119.81 679.63,119.53 682.57,119.27 685.52,118.99 688.46,118.73 691.41,118.45 694.35,119.85 697.30,121.23 700.24,122.62 703.19,124.02 706.14,125.42 709.08,126.80 712.03,128.19 714.97,129.59 717.92,130.99 720.86,132.37 723.81,135.39 726.75,138.43 729.70,141.45 732.64,144.47 735.59,147.49 738.53,150.51 741.48,153.53 744.43,156.57 747.37,159.59 750.32,162.62 753.26,167.00 756.21,171.38 759.15,175.77 762.10,180.17 765.04,184.55 767.99,188.94 770.93,193.32 773.88,197.70 776.82,202.09 779.77,206.47 782.72,211.71 785.66,216.95 788.61,222.17 791.55,227.41 794.50,232.63 797.44,237.87 800.39,243.09 803.33,248.33 806.28,253.55 809.22,258.79 812.17,264.23 815.11,269.66 818.06,275.07 821.01,280.50 823.95,285.93 826.90,291.37 829.84,296.80 832.79,302.21 835.73,307.64 838.68,313.07 841.62,318.12 844.57,323.19 847.51,328.23 850.46,333.28 853.41,338.34 856.35,343.39 859.30,348.44 862.24,353.50 865.19,358.55 868.13,363.60 871.08,367.88 874.02,372.16 876.97,376.44 879.91,380.71 882.86,384.99 885.80,389.27 888.75,393.53 891.70,397.81 894.64,402.09 897.59,406.37 900.53,409.65 903.48,412.94 906.42,416.22 909.37,419.50 912.31,422.79 915.26,426.07 918.20,429.35 921.15,432.64 924.09,435.92 927.04,439.20 929.99,441.42 932.93,443.66 935.88,445.87 938.82,448.11 941.77,450.33 944.71,452.56 947.66,454.78 950.60,457.02 953.55,459.23 956.49,461.45 959.44,462.61 962.39,463.76 965.33,464.89 968.28,466.05 971.22,467.18 974.17,468.33 977.11,469.47 980.06,470.62 983.00,471.76 985.95,472.91 988.89,473.00 991.84,473.08 994.78,473.17 997.73,473.26 1000.68,473.35 1003.62,473.42 1006.57,473.50 1009.51,473.59 1012.46,473.68 1015.40,473.77 1018.35,473.31 1021.29,472.84 1024.24,472.39 1027.18,471.91 1030.13,471.46 1033.07,471.01 1036.02,470.53 1038.97,470.08 1041.91,469.61 1044.86,469.15 1047.80,468.91 1050.75,468.65 1053.69,468.40 1056.64,468.16 1059.58,467.90 1062.53,467.65 1065.47,467.41 1068.42,467.15 1071.36,466.90 1074.31,466.66" fill="none" stroke="#000000" stroke-width="3"/>
<line x1="142" y1="100" x2="178" y2="100" stroke="#000000" stroke-width="4"/>
<text x="188" y="105" font-family="Arial" font-size="18" fill="black">vorticity:2</text>
</svg>