<svg xmlns="http://www.w3.org/2000/svg" width="1200" height="820" viewBox="0 0 1200 820">
<rect width="100%" height="100%" fill="white"/>
<text x="600.0" y="36" text-anchor="middle" font-family="Arial" font-size="24" fill="black">profile_near_ceiling_x: p</text>
<line x1="120.00" y1="75" x2="120.00" y2="705" stroke="#dddddd" stroke-width="1"/>
<text x="120.00" y="737" text-anchor="middle" font-family="Arial" font-size="16" fill="black">-0.560</text>
<line x1="376.25" y1="75" x2="376.25" y2="705" stroke="#dddddd" stroke-width="1"/>
<text x="376.25" y="737" text-anchor="middle" font-family="Arial" font-size="16" fill="black">1.470</text>
<line x1="632.50" y1="75" x2="632.50" y2="705" stroke="#dddddd" stroke-width="1"/>
<text x="632.50" y="737" text-anchor="middle" font-family="Arial" font-size="16" fill="black">3.500</text>
<line x1="888.75" y1="75" x2="888.75" y2="705" stroke="#dddddd" stroke-width="1"/>
<text x="888.75" y="737" text-anchor="middle" font-family="Arial" font-size="16" fill="black">5.530</text>
<line x1="1145.00" y1="75" x2="1145.00" y2="705" stroke="#dddddd" stroke-width="1"/>
<text x="1145.00" y="737" text-anchor="middle" font-family="Arial" font-size="16" fill="black">7.560</text>
<line x1="120" y1="705.00" x2="1145" y2="705.00" stroke="#dddddd" stroke-width="1"/>
<text x="104" y="710.00" text-anchor="end" font-family="Arial" font-size="16" fill="black">-29.72</text>
<line x1="120" y1="547.50" x2="1145" y2="547.50" stroke="#dddddd" stroke-width="1"/>
<text x="104" y="552.50" text-anchor="end" font-family="Arial" font-size="16" fill="black">-29.69</text>
<line x1="120" y1="390.00" x2="1145" y2="390.00" stroke="#dddddd" stroke-width="1"/>
<text x="104" y="395.00" text-anchor="end" font-family="Arial" font-size="16" fill="black">-29.66</text>
<line x1="120" y1="232.50" x2="1145" y2="232.50" stroke="#dddddd" stroke-width="1"/>
<text x="104" y="237.50" text-anchor="end" font-family="Arial" font-size="16" fill="black">-29.63</text>
<line x1="120" y1="75.00" x2="1145" y2="75.00" stroke="#dddddd" stroke-width="1"/>
<text x="104" y="80.00" text-anchor="end" font-family="Arial" font-size="16" fill="black">-29.60</text>
<rect x="120" y="75" width="1025" height="630" fill="none" stroke="black" stroke-width="2"/>
<text x="632.5" y="785" text-anchor="middle" font-family="Arial" font-size="20" fill="black">x coordinate [m]</text>
<text x="34" y="390.0" transform="rotate(-90 34 390.0)" text-anchor="middle" font-family="Arial" font-size="20" fill="black">p [Pa]</text>
<polyline points="190.69,118.45 193.64,135.42 196.58,152.39 199.53,169.36 202.47,180.68 205.42,208.97 208.36,242.91 211.31,276.85 214.25,305.14 217.20,339.08 220.14,367.37 223.09,401.31 226.03,429.60 228.98,463.55 231.93,486.17 234.87,514.46 237.82,537.09 240.76,565.38 243.71,582.35 246.65,599.32 249.60,616.29 252.54,633.27 255.49,638.92 258.43,644.58 261.38,650.24 264.32,655.89 267.27,661.55 270.22,655.89 273.16,650.24 276.11,644.58 279.05,638.92 282.00,627.61 284.94,610.64 287.89,599.32 290.83,588.01 293.78,571.03 296.72,548.41 299.67,531.43 302.62,514.46 305.56,491.83 308.51,474.86 311.45,452.23 314.40,435.26 317.34,412.63 320.29,395.66 323.23,373.03 326.17,356.06 329.13,339.08 332.07,322.11 335.01,305.14 337.96,293.83 340.91,276.85 343.85,265.54 346.80,259.88 349.74,248.57 352.68,242.91 355.64,237.25 358.58,231.59 361.52,231.59 364.47,225.94 367.41,225.94 370.35,225.94 373.31,225.94 376.25,231.59 379.19,231.59 382.15,231.59 385.09,237.25 388.03,242.91 390.98,242.91 393.92,248.57 396.86,254.22 399.82,259.88 402.76,265.54 405.70,271.20 408.65,276.85 411.59,282.51 414.54,288.17 417.49,293.83 420.43,299.48 423.37,299.48 426.33,305.14 429.27,310.80 432.21,316.45 435.16,322.11 438.10,322.11 441.04,327.77 444.00,327.77 446.94,333.43 449.88,333.43 452.83,333.43 455.78,333.43 458.72,333.43 461.67,333.43 464.61,333.43 467.55,333.43 470.51,333.43 473.45,327.77 476.39,327.77 479.34,327.77 482.28,322.11 485.23,322.11 488.18,322.11 491.12,316.45 494.06,316.45 497.02,316.45 499.96,316.45 502.90,316.45 505.85,316.45 508.79,316.45 511.73,322.11 514.69,322.11 517.63,322.11 520.57,327.77 523.52,333.43 526.47,339.08 529.41,339.08 532.36,344.74 535.30,350.40 538.24,350.40 541.20,356.06 544.14,361.71 547.08,361.71 550.03,361.71 552.97,361.71 555.92,367.37 558.87,367.37 561.81,367.37 564.75,367.37 567.71,361.71 570.65,361.71 573.59,361.71 576.54,356.06 579.48,356.06 582.42,350.40 585.38,344.74 588.32,344.74 591.26,339.08 594.21,333.43 597.16,327.77 600.10,322.11 603.05,316.45 605.99,310.80 608.93,305.14 611.89,299.48 614.83,293.83 617.77,288.17 620.72,288.17 623.66,282.51 626.60,276.85 629.56,276.85 632.50,271.20 635.44,271.20 638.40,271.20 641.34,271.20 644.28,265.54 647.23,265.54 650.17,271.20 653.11,271.20 656.07,271.20 659.01,271.20 661.95,276.85 664.90,276.85 667.84,282.51 670.79,282.51 673.74,288.17 676.68,293.83 679.62,299.48 682.58,305.14 685.52,310.80 688.46,322.11 691.41,327.77 694.35,333.43 697.29,339.08 700.25,344.74 703.19,350.40 706.13,356.06 709.08,356.06 712.03,361.71 714.97,361.71 717.92,367.37 720.86,367.37 723.80,373.03 726.76,373.03 729.70,373.03 732.64,373.03 735.59,367.37 738.53,367.37 741.48,367.37 744.43,361.71 747.37,361.71 750.31,356.06 753.27,350.40 756.21,350.40 759.15,344.74 762.10,339.08 765.04,333.43 767.98,327.77 770.94,322.11 773.88,316.45 776.82,310.80 779.77,305.14 782.72,299.48 785.66,293.83 788.61,288.17 791.55,282.51 794.49,276.85 797.45,271.20 800.39,271.20 803.33,265.54 806.28,259.88 809.22,259.88 812.17,254.22 815.12,254.22 818.06,254.22 821.00,254.22 823.96,254.22 826.90,259.88 829.84,259.88 832.79,265.54 835.73,265.54 838.67,271.20 841.63,276.85 844.57,288.17 847.51,293.83 850.46,299.48 853.41,305.14 856.35,310.80 859.30,322.11 862.24,327.77 865.18,333.43 868.14,339.08 871.08,344.74 874.02,350.40 876.97,356.06 879.91,361.71 882.85,367.37 885.81,373.03 888.75,378.69 891.69,378.69 894.65,384.34 897.59,390.00 900.53,390.00 903.48,395.66 906.42,395.66 909.36,395.66 912.32,401.31 915.26,401.31 918.20,401.31 921.15,406.97 924.09,406.97 927.04,406.97 929.99,412.63 932.93,412.63 935.87,418.29 938.83,418.29 941.77,418.29 944.71,423.94 947.66,423.94 950.60,429.60 953.54,429.60 956.50,429.60 959.44,435.26 962.38,435.26 965.33,440.92 968.28,440.92 971.22,440.92 974.17,440.92 977.11,446.57 980.05,446.57 983.01,446.57 985.95,446.57 988.89,446.57 991.84,440.92 994.78,440.92 997.73,440.92 1000.68,440.92 1003.62,435.26 1006.56,429.60 1009.52,429.60 1012.46,423.94 1015.40,412.63 1018.35,406.97 1021.29,401.31 1024.23,395.66 1027.19,384.34 1030.13,373.03 1033.07,361.71 1036.02,356.06 1038.97,339.08 1041.91,327.77 1044.86,316.45 1047.80,305.14 1050.74,288.17 1053.70,271.20 1056.64,254.22 1059.58,237.25 1062.53,225.94 1065.47,214.62 1068.42,203.31 1071.37,197.65 1074.31,186.34" fill="none" stroke="#000000" stroke-width="3"/>
<line x1="142" y1="100" x2="178" y2="100" stroke="#000000" stroke-width="4"/>
<text x="188" y="105" font-family="Arial" font-size="18" fill="black">p</text>
</svg>