<svg xmlns="http://www.w3.org/2000/svg" width="1200" height="820" viewBox="0 0 1200 820">
<rect width="100%" height="100%" fill="white"/>
<text x="600.0" y="36" text-anchor="middle" font-family="Arial" font-size="24" fill="black">profile_center_z: Q</text>
<line x1="120.00" y1="75" x2="120.00" y2="705" stroke="#dddddd" stroke-width="1"/>
<text x="120.00" y="737" text-anchor="middle" font-family="Arial" font-size="16" fill="black">-0.240</text>
<line x1="376.25" y1="75" x2="376.25" y2="705" stroke="#dddddd" stroke-width="1"/>
<text x="376.25" y="737" text-anchor="middle" font-family="Arial" font-size="16" fill="black">0.630</text>
<line x1="632.50" y1="75" x2="632.50" y2="705" stroke="#dddddd" stroke-width="1"/>
<text x="632.50" y="737" text-anchor="middle" font-family="Arial" font-size="16" fill="black">1.500</text>
<line x1="888.75" y1="75" x2="888.75" y2="705" stroke="#dddddd" stroke-width="1"/>
<text x="888.75" y="737" text-anchor="middle" font-family="Arial" font-size="16" fill="black">2.370</text>
<line x1="1145.00" y1="75" x2="1145.00" y2="705" stroke="#dddddd" stroke-width="1"/>
<text x="1145.00" y="737" text-anchor="middle" font-family="Arial" font-size="16" fill="black">3.240</text>
<line x1="120" y1="705.00" x2="1145" y2="705.00" stroke="#dddddd" stroke-width="1"/>
<text x="104" y="710.00" text-anchor="end" font-family="Arial" font-size="16" fill="black">-1.973</text>
<line x1="120" y1="547.50" x2="1145" y2="547.50" stroke="#dddddd" stroke-width="1"/>
<text x="104" y="552.50" text-anchor="end" font-family="Arial" font-size="16" fill="black">-1.418</text>
<line x1="120" y1="390.00" x2="1145" y2="390.00" stroke="#dddddd" stroke-width="1"/>
<text x="104" y="395.00" text-anchor="end" font-family="Arial" font-size="16" fill="black">-0.862</text>
<line x1="120" y1="232.50" x2="1145" y2="232.50" stroke="#dddddd" stroke-width="1"/>
<text x="104" y="237.50" text-anchor="end" font-family="Arial" font-size="16" fill="black">-0.307</text>
<line x1="120" y1="75.00" x2="1145" y2="75.00" stroke="#dddddd" stroke-width="1"/>
<text x="104" y="80.00" text-anchor="end" font-family="Arial" font-size="16" fill="black">0.248</text>
<rect x="120" y="75" width="1025" height="630" fill="none" stroke="black" stroke-width="2"/>
<text x="632.5" y="785" text-anchor="middle" font-family="Arial" font-size="20" fill="black">z coordinate [m]</text>
<text x="34" y="390.0" transform="rotate(-90 34 390.0)" text-anchor="middle" font-family="Arial" font-size="20" fill="black">Q [SI]</text>
<polyline points="190.69,148.91 193.64,149.21 196.58,149.50 199.53,149.80 202.47,150.09 205.42,150.39 208.36,150.68 211.31,150.98 214.25,151.27 217.20,151.57 220.14,151.87 223.09,152.39 226.03,152.92 228.98,153.45 231.93,153.98 234.87,154.51 237.82,155.04 240.76,155.57 243.71,156.10 246.65,156.63 249.60,157.15 252.54,157.58 255.49,158.00 258.43,158.42 261.38,158.85 264.32,159.27 267.27,159.69 270.22,160.12 273.16,160.54 276.11,160.96 279.05,161.38 282.00,161.77 284.94,162.16 287.89,162.55 290.83,162.94 293.78,163.32 296.72,163.71 299.67,164.10 302.61,164.49 305.56,164.88 308.51,165.26 311.45,165.74 314.40,166.23 317.34,166.71 320.29,167.19 323.23,167.67 326.18,168.15 329.12,168.63 332.07,169.11 335.01,169.59 337.96,170.07 340.91,170.88 343.85,171.69 346.80,172.49 349.74,173.30 352.69,174.11 355.63,174.91 358.58,175.72 361.52,176.52 364.47,177.33 367.41,178.14 370.36,179.69 373.30,181.24 376.25,182.79 379.20,184.35 382.14,185.90 385.09,187.45 388.03,189.00 390.98,190.55 393.92,192.10 396.87,193.66 399.81,196.38 402.76,199.11 405.70,201.84 408.65,204.56 411.59,207.29 414.54,210.02 417.49,212.75 420.43,215.47 423.38,218.20 426.32,220.93 429.27,225.10 432.21,229.27 435.16,233.43 438.10,237.60 441.05,241.77 443.99,245.94 446.94,250.11 449.89,254.28 452.83,258.45 455.78,262.62 458.72,268.35 461.67,274.09 464.61,279.82 467.56,285.56 470.50,291.29 473.45,297.03 476.39,302.76 479.34,308.50 482.28,314.24 485.23,319.97 488.18,327.08 491.12,334.19 494.07,341.30 497.01,348.41 499.96,355.52 502.90,362.63 505.85,369.74 508.79,376.85 511.74,383.96 514.68,391.07 517.63,398.84 520.57,406.62 523.52,414.39 526.47,422.17 529.41,429.96 532.36,437.73 535.30,445.50 538.25,453.27 541.19,461.04 544.14,468.82 547.08,476.93 550.03,485.01 552.97,493.10 555.92,501.21 558.86,509.29 561.81,517.40 564.76,525.49 567.70,533.57 570.65,541.68 573.59,549.77 576.54,560.94 579.48,572.12 582.43,583.29 585.37,594.47 588.32,605.65 591.26,616.85 594.21,628.03 597.16,639.20 600.10,650.38 603.05,661.55 605.99,656.70 608.94,651.88 611.88,647.06 614.83,642.24 617.77,637.39 620.72,632.56 623.66,627.74 626.61,622.92 629.55,618.07 632.50,613.25 635.45,590.19 638.39,567.13 641.34,544.07 644.28,521.01 647.23,497.95 650.17,474.89 653.12,451.83 656.06,428.76 659.01,405.70 661.95,382.64 664.90,368.85 667.84,355.05 670.79,341.26 673.74,327.47 676.68,313.68 679.63,299.89 682.57,286.10 685.52,272.31 688.46,258.51 691.41,244.72 694.35,240.20 697.30,235.67 700.24,231.15 703.19,226.62 706.14,222.10 709.08,217.57 712.03,213.05 714.97,208.52 717.92,203.99 720.86,199.47 723.81,196.63 726.75,193.79 729.70,190.95 732.64,188.10 735.59,185.27 738.53,182.42 741.48,179.58 744.43,176.74 747.37,173.90 750.32,171.06 753.26,169.72 756.21,168.39 759.15,167.05 762.10,165.71 765.04,164.38 767.99,163.04 770.93,161.70 773.88,160.36 776.82,159.03 779.77,157.69 782.72,157.03 785.66,156.36 788.61,155.70 791.55,155.03 794.50,154.37 797.44,153.70 800.39,153.03 803.33,152.37 806.28,151.70 809.22,151.04 812.17,150.70 815.11,150.36 818.06,150.02 821.01,149.68 823.95,149.34 826.90,149.00 829.84,148.66 832.79,148.33 835.73,147.99 838.68,147.65 841.62,147.36 844.57,147.07 847.51,146.78 850.46,146.50 853.41,146.21 856.35,145.92 859.30,145.63 862.24,145.35 865.19,145.06 868.13,144.77 871.08,144.30 874.02,143.84 876.97,143.37 879.91,142.90 882.86,142.43 885.80,141.97 888.75,141.50 891.70,141.03 894.64,140.57 897.59,140.10 900.53,139.36 903.48,138.61 906.42,137.87 909.37,137.13 912.31,136.38 915.26,135.64 918.20,134.90 921.15,134.16 924.09,133.41 927.04,132.67 929.99,131.85 932.93,131.04 935.88,130.22 938.82,129.40 941.77,128.59 944.71,127.77 947.66,126.95 950.60,126.14 953.55,125.32 956.49,124.50 959.44,123.90 962.39,123.29 965.33,122.69 968.28,122.08 971.22,121.48 974.17,120.87 977.11,120.26 980.06,119.66 983.00,119.05 985.95,118.45 988.89,119.29 991.84,120.12 994.78,120.96 997.73,121.80 1000.68,122.64 1003.62,123.48 1006.57,124.32 1009.51,125.15 1012.46,125.99 1015.40,126.83 1018.35,130.62 1021.29,134.41 1024.24,138.19 1027.18,141.98 1030.13,145.77 1033.07,149.56 1036.02,153.34 1038.97,157.13 1041.91,160.92 1044.86,164.71 1047.80,167.42 1050.75,170.14 1053.69,172.86 1056.64,175.58 1059.58,178.30 1062.53,181.01 1065.47,183.73 1068.42,186.45 1071.36,189.17 1074.31,191.89" fill="none" stroke="#000000" stroke-width="3"/>
<line x1="142" y1="100" x2="178" y2="100" stroke="#000000" stroke-width="4"/>
<text x="188" y="105" font-family="Arial" font-size="18" fill="black">Q</text>
</svg>