<svg xmlns="http://www.w3.org/2000/svg" width="1200" height="820" viewBox="0 0 1200 820">
<rect width="100%" height="100%" fill="white"/>
<text x="600.0" y="36" text-anchor="middle" font-family="Arial" font-size="24" fill="black">profile_near_ceiling_x: k</text>
<line x1="120.00" y1="75" x2="120.00" y2="705" stroke="#dddddd" stroke-width="1"/>
<text x="120.00" y="737" text-anchor="middle" font-family="Arial" font-size="16" fill="black">-0.560</text>
<line x1="376.25" y1="75" x2="376.25" y2="705" stroke="#dddddd" stroke-width="1"/>
<text x="376.25" y="737" text-anchor="middle" font-family="Arial" font-size="16" fill="black">1.470</text>
<line x1="632.50" y1="75" x2="632.50" y2="705" stroke="#dddddd" stroke-width="1"/>
<text x="632.50" y="737" text-anchor="middle" font-family="Arial" font-size="16" fill="black">3.500</text>
<line x1="888.75" y1="75" x2="888.75" y2="705" stroke="#dddddd" stroke-width="1"/>
<text x="888.75" y="737" text-anchor="middle" font-family="Arial" font-size="16" fill="black">5.530</text>
<line x1="1145.00" y1="75" x2="1145.00" y2="705" stroke="#dddddd" stroke-width="1"/>
<text x="1145.00" y="737" text-anchor="middle" font-family="Arial" font-size="16" fill="black">7.560</text>
<line x1="120" y1="705.00" x2="1145" y2="705.00" stroke="#dddddd" stroke-width="1"/>
<text x="104" y="710.00" text-anchor="end" font-family="Arial" font-size="16" fill="black">0.003</text>
<line x1="120" y1="547.50" x2="1145" y2="547.50" stroke="#dddddd" stroke-width="1"/>
<text x="104" y="552.50" text-anchor="end" font-family="Arial" font-size="16" fill="black">0.006</text>
<line x1="120" y1="390.00" x2="1145" y2="390.00" stroke="#dddddd" stroke-width="1"/>
<text x="104" y="395.00" text-anchor="end" font-family="Arial" font-size="16" fill="black">0.010</text>
<line x1="120" y1="232.50" x2="1145" y2="232.50" stroke="#dddddd" stroke-width="1"/>
<text x="104" y="237.50" text-anchor="end" font-family="Arial" font-size="16" fill="black">0.013</text>
<line x1="120" y1="75.00" x2="1145" y2="75.00" stroke="#dddddd" stroke-width="1"/>
<text x="104" y="80.00" text-anchor="end" font-family="Arial" font-size="16" fill="black">0.017</text>
<rect x="120" y="75" width="1025" height="630" fill="none" stroke="black" stroke-width="2"/>
<text x="632.5" y="785" text-anchor="middle" font-family="Arial" font-size="20" fill="black">x coordinate [m]</text>
<text x="34" y="390.0" transform="rotate(-90 34 390.0)" text-anchor="middle" font-family="Arial" font-size="20" fill="black">k [m2/s2]</text>
<polyline points="190.69,661.55 193.64,661.40 196.58,661.24 199.53,661.07 202.47,660.92 205.42,659.51 208.36,657.60 211.31,655.69 214.25,653.79 217.20,649.93 220.14,643.48 223.09,637.04 226.03,630.59 228.98,623.81 231.93,615.07 234.87,606.32 237.82,597.58 240.76,588.83 243.71,581.24 246.65,573.84 249.60,566.44 252.54,559.05 255.49,552.46 258.43,546.47 261.38,540.49 264.32,534.51 267.27,528.92 270.22,524.31 273.16,519.70 276.11,515.09 279.05,510.48 282.00,507.11 284.94,503.73 287.89,500.36 290.83,496.99 293.78,494.41 296.72,492.16 299.67,489.92 302.62,487.66 305.56,485.88 308.51,484.72 311.45,483.55 314.40,482.39 317.34,481.38 320.29,481.26 323.23,481.14 326.17,481.02 329.13,480.90 332.07,481.44 335.01,482.09 337.96,482.74 340.91,483.39 343.85,484.24 346.80,485.23 349.74,486.21 352.68,487.20 355.64,488.32 358.58,489.77 361.52,491.22 364.47,492.66 367.41,494.11 370.35,496.92 373.31,499.74 376.25,502.55 379.19,505.37 382.15,509.08 385.09,513.14 388.03,517.21 390.98,521.27 393.92,525.39 396.86,529.57 399.82,533.75 402.76,537.93 405.70,542.10 408.65,546.16 411.59,550.23 414.54,554.29 417.49,558.35 420.43,561.67 423.37,564.87 426.33,568.07 429.27,571.26 432.21,572.31 435.16,571.75 438.10,571.19 441.04,570.63 444.00,567.94 446.94,559.94 449.88,551.94 452.83,543.94 455.78,535.95 458.72,519.69 461.67,503.44 464.61,487.19 467.55,470.94 470.51,453.12 473.45,434.67 476.39,416.23 479.34,397.79 482.28,380.88 485.23,366.01 488.18,351.12 491.12,336.23 494.06,321.83 497.02,310.42 499.96,298.96 502.90,287.50 505.85,276.09 508.79,266.68 511.73,257.68 514.69,248.63 517.63,239.62 520.57,231.69 523.52,224.55 526.47,217.47 529.41,210.38 532.36,203.69 535.30,198.07 538.24,192.41 541.20,186.79 544.14,181.18 547.08,176.54 550.03,171.90 552.97,167.27 555.92,162.63 558.87,158.53 561.81,154.60 564.75,150.68 567.71,146.76 570.65,143.15 573.59,139.94 576.54,136.73 579.48,133.56 582.42,130.49 585.38,128.30 588.32,126.07 591.26,123.84 594.21,121.66 597.16,120.68 600.10,119.92 603.05,119.21 605.99,118.45 608.93,118.85 611.89,120.14 614.83,121.44 617.77,122.77 620.72,124.78 623.66,128.70 626.60,132.63 629.56,136.55 632.50,140.47 635.44,147.52 638.40,154.60 641.34,161.65 644.28,168.74 647.23,178.28 650.17,188.84 653.11,199.45 656.07,210.02 659.01,222.01 661.95,235.88 664.90,249.74 667.84,263.61 670.79,277.78 673.74,293.79 676.68,309.79 679.62,325.84 682.58,341.85 685.52,357.81 688.46,373.73 691.41,389.69 694.35,405.63 697.29,419.81 700.25,432.69 703.19,445.56 706.13,458.44 709.08,469.71 712.03,476.99 714.97,484.26 717.92,491.54 720.86,498.81 723.80,500.32 726.76,501.82 729.70,503.33 732.64,504.83 735.59,503.78 738.53,501.71 741.48,499.63 744.43,497.56 747.37,494.84 750.31,491.25 753.27,487.67 756.21,484.09 759.15,480.41 762.10,476.10 765.04,471.79 767.98,467.49 770.94,463.18 773.88,458.59 776.82,453.96 779.77,449.32 782.72,444.69 785.66,440.11 788.61,435.59 791.55,431.06 794.49,426.53 797.45,422.14 800.39,418.09 803.33,414.03 806.28,409.98 809.22,405.93 812.17,402.64 815.12,399.36 818.06,396.07 821.00,392.78 823.96,390.23 826.90,387.96 829.84,385.69 832.79,383.42 835.73,381.67 838.67,380.61 841.63,379.55 844.57,378.50 847.51,377.62 850.46,377.84 853.41,378.07 856.35,378.30 859.30,378.52 862.24,379.85 865.18,381.35 868.14,382.86 871.08,384.37 874.02,386.08 876.97,387.94 879.91,389.80 882.85,391.67 885.81,393.11 888.75,393.49 891.69,393.89 894.65,394.27 897.59,394.67 900.53,392.62 903.48,390.58 906.42,388.53 909.36,386.49 912.32,383.02 915.26,378.99 918.20,374.93 921.15,370.92 924.09,366.64 927.04,361.96 929.99,357.32 932.93,352.68 935.87,348.22 938.83,344.84 941.77,341.45 944.71,338.02 947.66,334.63 950.60,333.56 953.54,332.89 956.50,332.17 959.44,331.51 962.38,332.53 965.33,334.94 968.28,337.30 971.22,339.66 974.17,342.74 977.11,347.56 980.05,352.33 983.01,357.14 985.95,361.91 988.89,368.11 991.84,374.26 994.78,380.43 997.73,386.59 1000.68,393.14 1003.62,399.84 1006.56,406.54 1009.52,413.24 1012.46,420.09 1015.40,427.11 1018.35,434.14 1021.29,441.16 1024.23,448.30 1027.19,456.10 1030.13,463.90 1033.07,471.69 1036.02,479.49 1038.97,489.43 1041.91,499.73 1044.86,510.03 1047.80,520.33 1050.74,534.25 1053.70,550.90 1056.64,567.55 1059.58,584.20 1062.53,599.10 1065.47,609.64 1068.42,620.17 1071.37,630.71 1074.31,641.24" fill="none" stroke="#000000" stroke-width="3"/>
<line x1="142" y1="100" x2="178" y2="100" stroke="#000000" stroke-width="4"/>
<text x="188" y="105" font-family="Arial" font-size="18" fill="black">k</text>
</svg>