<svg xmlns="http://www.w3.org/2000/svg" width="1200" height="820" viewBox="0 0 1200 820">
<rect width="100%" height="100%" fill="white"/>
<text x="600.0" y="36" text-anchor="middle" font-family="Arial" font-size="24" fill="black">profile_near_ceiling_x: U, V, W components</text>
<line x1="120.00" y1="75" x2="120.00" y2="705" stroke="#dddddd" stroke-width="1"/>
<text x="120.00" y="737" text-anchor="middle" font-family="Arial" font-size="16" fill="black">-0.560</text>
<line x1="376.25" y1="75" x2="376.25" y2="705" stroke="#dddddd" stroke-width="1"/>
<text x="376.25" y="737" text-anchor="middle" font-family="Arial" font-size="16" fill="black">1.470</text>
<line x1="632.50" y1="75" x2="632.50" y2="705" stroke="#dddddd" stroke-width="1"/>
<text x="632.50" y="737" text-anchor="middle" font-family="Arial" font-size="16" fill="black">3.500</text>
<line x1="888.75" y1="75" x2="888.75" y2="705" stroke="#dddddd" stroke-width="1"/>
<text x="888.75" y="737" text-anchor="middle" font-family="Arial" font-size="16" fill="black">5.530</text>
<line x1="1145.00" y1="75" x2="1145.00" y2="705" stroke="#dddddd" stroke-width="1"/>
<text x="1145.00" y="737" text-anchor="middle" font-family="Arial" font-size="16" fill="black">7.560</text>
<line x1="120" y1="705.00" x2="1145" y2="705.00" stroke="#dddddd" stroke-width="1"/>
<text x="104" y="710.00" text-anchor="end" font-family="Arial" font-size="16" fill="black">-0.323</text>
<line x1="120" y1="547.50" x2="1145" y2="547.50" stroke="#dddddd" stroke-width="1"/>
<text x="104" y="552.50" text-anchor="end" font-family="Arial" font-size="16" fill="black">-0.174</text>
<line x1="120" y1="390.00" x2="1145" y2="390.00" stroke="#dddddd" stroke-width="1"/>
<text x="104" y="395.00" text-anchor="end" font-family="Arial" font-size="16" fill="black">-0.026</text>
<line x1="120" y1="232.50" x2="1145" y2="232.50" stroke="#dddddd" stroke-width="1"/>
<text x="104" y="237.50" text-anchor="end" font-family="Arial" font-size="16" fill="black">0.122</text>
<line x1="120" y1="75.00" x2="1145" y2="75.00" stroke="#dddddd" stroke-width="1"/>
<text x="104" y="80.00" text-anchor="end" font-family="Arial" font-size="16" fill="black">0.271</text>
<rect x="120" y="75" width="1025" height="630" fill="none" stroke="black" stroke-width="2"/>
<text x="632.5" y="785" text-anchor="middle" font-family="Arial" font-size="20" fill="black">x coordinate [m]</text>
<text x="34" y="390.0" transform="rotate(-90 34 390.0)" text-anchor="middle" font-family="Arial" font-size="20" fill="black">velocity component [m/s]</text>
<polyline points="190.69,395.54 193.64,389.51 196.58,383.49 199.53,377.46 202.47,371.43 205.42,367.29 208.36,363.90 211.31,360.50 214.25,357.11 217.20,358.25 220.14,365.42 223.09,372.60 226.03,379.77 228.98,387.01 231.93,394.63 234.87,402.24 237.82,409.86 240.76,417.48 243.71,423.26 246.65,428.73 249.60,434.20 252.54,439.67 255.49,444.40 258.43,448.56 261.38,452.72 264.32,456.89 267.27,460.71 270.22,463.69 273.16,466.66 276.11,469.64 279.05,472.61 282.00,474.51 284.94,476.40 287.89,478.29 290.83,480.19 293.78,481.36 296.72,482.24 299.67,483.12 302.62,483.99 305.56,484.43 308.51,484.31 311.45,484.17 314.40,484.04 317.34,483.75 320.29,482.52 323.23,481.29 326.17,480.06 329.13,478.83 332.07,476.53 335.01,474.04 337.96,471.56 340.91,469.08 343.85,465.84 346.80,462.02 349.74,458.20 352.68,454.38 355.64,450.35 358.58,445.80 361.52,441.25 364.47,436.69 367.41,432.14 370.35,427.77 373.31,423.39 376.25,419.02 379.19,414.65 382.15,410.44 385.09,406.30 388.03,402.15 390.98,398.01 393.92,394.02 396.86,390.24 399.82,386.47 402.76,382.69 405.70,379.16 408.65,377.16 411.59,375.15 414.54,373.15 417.49,371.14 420.43,371.98 423.37,373.29 426.33,374.60 429.27,375.91 432.21,378.68 435.16,382.53 438.10,386.38 441.04,390.24 444.00,394.07 446.94,397.87 449.88,401.67 452.83,405.48 455.78,409.28 458.72,412.69 461.67,416.11 464.61,419.53 467.55,422.95 470.51,427.53 473.45,432.58 476.39,437.63 479.34,442.68 482.28,448.38 485.23,454.94 488.18,461.51 491.12,468.07 494.06,474.53 497.02,480.35 499.96,486.17 502.90,491.99 505.85,497.80 508.79,502.18 511.73,506.32 514.69,510.44 517.63,514.57 520.57,517.93 523.52,520.67 526.47,523.43 529.41,526.19 532.36,528.64 535.30,530.33 538.24,532.03 541.20,533.72 544.14,535.40 547.08,536.25 550.03,537.09 552.97,537.94 555.92,538.78 558.87,539.13 561.81,539.28 564.75,539.43 567.71,539.57 570.65,539.48 573.59,539.07 576.54,538.64 579.48,538.23 582.42,537.74 585.38,536.89 588.32,536.04 591.26,535.19 594.21,534.34 597.16,533.27 600.10,532.17 603.05,531.06 605.99,529.96 608.93,528.86 611.89,527.74 614.83,526.64 617.77,525.52 620.72,524.48 623.66,523.60 626.60,522.73 629.56,521.86 632.50,520.98 635.44,520.55 638.40,520.10 641.34,519.67 644.28,519.23 647.23,519.23 650.17,519.41 653.11,519.60 656.07,519.78 659.01,520.28 661.95,521.19 664.90,522.12 667.84,523.03 670.79,524.04 673.74,525.58 676.68,527.13 679.62,528.67 682.58,530.20 685.52,531.86 688.46,533.54 691.41,535.20 694.35,536.87 697.29,538.11 700.25,539.04 703.19,539.97 706.13,540.89 709.08,541.39 712.03,540.83 714.97,540.27 717.92,539.71 720.86,539.15 723.80,537.24 726.76,535.34 729.70,533.43 732.64,531.53 735.59,529.35 738.53,527.08 741.48,524.80 744.43,522.53 747.37,520.36 750.31,518.31 753.27,516.27 756.21,514.22 759.15,512.17 762.10,510.06 765.04,507.94 767.98,505.83 770.94,503.71 773.88,501.18 776.82,498.59 779.77,495.99 782.72,493.40 785.66,490.47 788.61,487.29 791.55,484.11 794.49,480.93 797.45,477.59 800.39,473.84 803.33,470.11 806.28,466.36 809.22,462.61 812.17,458.34 815.12,454.07 818.06,449.79 821.00,445.52 823.96,440.87 826.90,436.08 829.84,431.28 832.79,426.48 835.73,421.47 838.67,416.17 841.63,410.87 844.57,405.56 847.51,400.20 850.46,394.42 853.41,388.65 856.35,382.87 859.30,377.10 862.24,371.01 865.18,364.87 868.14,358.72 871.08,352.58 874.02,346.58 876.97,340.70 879.91,334.81 882.85,328.92 885.81,323.30 888.75,318.36 891.69,313.41 894.65,308.46 897.59,303.52 900.53,300.04 903.48,296.57 906.42,293.10 909.36,289.63 912.32,287.37 915.26,285.59 918.20,283.81 921.15,282.03 924.09,280.69 927.04,279.93 929.99,279.17 932.93,278.41 935.87,277.65 938.83,276.90 941.77,276.15 944.71,275.39 947.66,274.64 950.60,273.34 953.54,271.94 956.50,270.55 959.44,269.15 962.38,267.40 965.33,265.39 968.28,263.39 971.22,261.38 974.17,259.33 977.11,257.17 980.05,255.03 983.01,252.87 985.95,250.72 988.89,249.05 991.84,247.38 994.78,245.71 997.73,244.04 1000.68,243.14 1003.62,242.56 1006.56,241.97 1009.52,241.39 1012.46,241.53 1015.40,242.64 1018.35,243.75 1021.29,244.86 1024.23,246.25 1027.19,249.35 1030.13,252.45 1033.07,255.55 1036.02,258.64 1038.97,264.24 1041.91,270.27 1044.86,276.29 1047.80,282.31 1050.74,288.75 1053.70,295.52 1056.64,302.28 1059.58,309.05 1062.53,314.68 1065.47,317.46 1068.42,320.24 1071.37,323.02 1074.31,325.80" fill="none" stroke="#000000" stroke-width="3"/>
<line x1="142" y1="100" x2="178" y2="100" stroke="#000000" stroke-width="4"/>
<text x="188" y="105" font-family="Arial" font-size="18" fill="black">Ux / u</text>
<polyline points="190.69,590.45 193.64,564.97 196.58,539.49 199.53,514.01 202.47,488.54 205.42,452.44 208.36,412.10 211.31,371.76 214.25,331.42 217.20,300.74 220.14,282.94 223.09,265.15 226.03,247.36 228.98,231.48 231.93,227.10 234.87,222.72 237.82,218.34 240.76,213.96 243.71,211.06 246.65,208.40 249.60,205.73 252.54,203.08 255.49,200.77 258.43,198.72 261.38,196.67 264.32,194.62 267.27,192.84 270.22,191.74 273.16,190.63 276.11,189.53 279.05,188.44 282.00,188.62 284.94,188.80 287.89,188.99 290.83,189.17 293.78,190.43 296.72,192.13 299.67,193.83 302.62,195.53 305.56,197.94 308.51,201.31 311.45,204.67 314.40,208.04 317.34,211.67 320.29,216.83 323.23,222.00 326.17,227.18 329.13,232.35 332.07,239.30 335.01,246.55 337.96,253.81 340.91,261.05 343.85,269.97 346.80,280.12 349.74,290.28 352.68,300.44 355.64,311.14 358.58,323.19 361.52,335.25 364.47,347.31 367.41,359.37 370.35,368.81 373.31,378.25 376.25,387.69 379.19,397.13 382.15,400.82 385.09,402.22 388.03,403.62 390.98,405.01 393.92,403.27 396.86,397.36 399.82,391.44 402.76,385.52 405.70,379.43 408.65,372.32 411.59,365.21 414.54,358.10 417.49,350.99 420.43,346.33 423.37,342.08 426.33,337.82 429.27,333.57 432.21,332.03 435.16,332.52 438.10,333.02 441.04,333.52 444.00,335.97 446.94,343.32 449.88,350.68 452.83,358.03 455.78,365.38 458.72,380.04 461.67,394.71 464.61,409.37 467.55,424.04 470.51,438.97 473.45,454.00 476.39,469.03 479.34,484.06 482.28,496.95 485.23,506.96 488.18,516.98 491.12,527.00 494.06,536.58 497.02,543.49 499.96,550.40 502.90,557.31 505.85,564.22 508.79,570.00 511.73,575.59 514.69,581.19 517.63,586.78 520.57,591.97 523.52,596.84 526.47,601.72 529.41,606.59 532.36,611.26 535.30,615.43 538.24,619.60 541.20,623.76 544.14,627.93 547.08,631.27 550.03,634.63 552.97,637.97 555.92,641.31 558.87,644.00 561.81,646.43 564.75,648.85 567.71,651.28 570.65,653.30 573.59,654.79 576.54,656.28 579.48,657.76 582.42,659.13 585.38,659.74 588.32,660.34 591.26,660.95 594.21,661.55 597.16,661.50 600.10,661.33 603.05,661.16 605.99,660.99 608.93,660.46 611.89,659.66 614.83,658.88 617.77,658.08 620.72,657.16 623.66,655.95 626.60,654.73 629.56,653.51 632.50,652.29 635.44,650.68 638.40,649.08 641.34,647.48 644.28,645.88 647.23,643.79 650.17,641.52 653.11,639.24 656.07,636.97 659.01,634.32 661.95,631.16 664.90,628.00 667.84,624.83 670.79,621.53 673.74,617.35 676.68,613.18 679.62,609.01 682.58,604.83 685.52,599.43 688.46,593.81 691.41,588.20 694.35,582.59 697.29,575.76 700.25,568.05 703.19,560.32 706.13,552.60 709.08,544.18 712.03,534.02 714.97,523.87 717.92,513.71 720.86,503.56 723.80,492.10 726.76,480.63 729.70,469.18 732.64,457.72 735.59,447.17 738.53,436.97 741.48,426.78 744.43,416.58 747.37,407.76 750.31,400.76 753.27,393.76 756.21,386.77 759.15,380.20 762.10,376.23 765.04,372.26 767.98,368.29 770.94,364.32 773.88,362.05 776.82,360.07 779.77,358.08 782.72,356.10 785.66,354.89 788.61,354.26 791.55,353.64 794.49,353.01 797.45,352.67 800.39,353.01 803.33,353.36 806.28,353.71 809.22,354.06 812.17,355.01 815.12,355.97 818.06,356.93 821.00,357.89 823.96,358.97 826.90,360.11 829.84,361.24 832.79,362.38 835.73,363.34 838.67,364.05 841.63,364.77 844.57,365.48 847.51,365.99 850.46,365.25 853.41,364.51 856.35,363.76 859.30,363.02 862.24,359.59 865.18,355.70 868.14,351.82 871.08,347.94 874.02,342.30 876.97,335.35 879.91,328.39 882.85,321.44 885.81,314.14 888.75,306.01 891.69,297.87 894.65,289.73 897.59,281.59 900.53,274.20 903.48,266.81 906.42,259.42 909.36,252.02 912.32,245.47 915.26,239.24 918.20,233.00 921.15,226.77 924.09,220.69 927.04,214.83 929.99,208.97 932.93,203.11 935.87,197.30 938.83,191.77 941.77,186.25 944.71,180.72 947.66,175.20 950.60,170.14 953.54,165.15 956.50,160.17 959.44,155.18 962.38,150.68 965.33,146.56 968.28,142.43 971.22,138.31 974.17,134.56 977.11,131.70 980.05,128.85 983.01,125.99 985.95,123.14 988.89,121.96 991.84,120.79 994.78,119.62 997.73,118.45 1000.68,118.64 1003.62,119.36 1006.56,120.09 1009.52,120.83 1012.46,122.35 1015.40,124.95 1018.35,127.54 1021.29,130.13 1024.23,132.97 1027.19,137.20 1030.13,141.42 1033.07,145.66 1036.02,149.89 1038.97,155.39 1041.91,161.10 1044.86,166.81 1047.80,172.52 1050.74,179.08 1053.70,186.29 1056.64,193.51 1059.58,200.71 1062.53,207.01 1065.47,211.01 1068.42,215.00 1071.37,218.99 1074.31,222.98" fill="none" stroke="#555555" stroke-width="3" stroke-dasharray="9 5"/>
<line x1="142" y1="128" x2="178" y2="128" stroke="#555555" stroke-width="4" stroke-dasharray="9 5"/>
<text x="188" y="133" font-family="Arial" font-size="18" fill="black">Uy / v</text>
<polyline points="190.69,474.05 193.64,475.20 196.58,476.34 199.53,477.48 202.47,478.63 205.42,479.17 208.36,479.47 211.31,479.76 214.25,480.07 217.20,479.41 220.14,477.49 223.09,475.57 226.03,473.65 228.98,471.73 231.93,469.85 234.87,467.98 237.82,466.10 240.76,464.22 243.71,462.77 246.65,461.38 249.60,459.99 252.54,458.61 255.49,457.44 258.43,456.43 261.38,455.43 264.32,454.42 267.27,453.52 270.22,452.87 273.16,452.22 276.11,451.56 279.05,450.91 282.00,450.64 284.94,450.36 287.89,450.09 290.83,449.81 293.78,449.90 296.72,450.12 299.67,450.35 302.62,450.58 305.56,451.11 308.51,452.05 311.45,452.98 314.40,453.92 317.34,454.98 320.29,456.76 323.23,458.54 326.17,460.32 329.13,462.10 332.07,464.56 335.01,467.14 337.96,469.71 340.91,472.30 343.85,475.20 346.80,478.35 349.74,481.50 352.68,484.66 355.64,487.78 358.58,490.84 361.52,493.91 364.47,496.98 367.41,500.03 370.35,502.17 373.31,504.30 376.25,506.43 379.19,508.57 382.15,509.44 385.09,509.79 388.03,510.15 390.98,510.51 393.92,510.16 396.86,508.88 399.82,507.60 402.76,506.33 405.70,505.04 408.65,503.78 411.59,502.52 414.54,501.25 417.49,499.99 420.43,500.20 423.37,500.66 426.33,501.13 429.27,501.58 432.21,503.15 435.16,505.54 438.10,507.94 441.04,510.34 444.00,512.68 446.94,514.93 449.88,517.18 452.83,519.42 455.78,521.67 458.72,520.68 461.67,519.71 464.61,518.72 467.55,517.75 470.51,514.33 473.45,509.93 476.39,505.55 479.34,501.16 482.28,496.50 485.23,491.46 488.18,486.43 491.12,481.39 494.06,476.51 497.02,472.47 499.96,468.45 502.90,464.43 505.85,460.40 508.79,457.32 511.73,454.40 514.69,451.48 517.63,448.55 520.57,446.16 523.52,444.17 526.47,442.18 529.41,440.20 532.36,438.43 535.30,437.20 538.24,435.98 541.20,434.76 544.14,433.53 547.08,432.89 550.03,432.24 552.97,431.59 555.92,430.95 558.87,430.59 561.81,430.34 564.75,430.10 567.71,429.85 570.65,429.73 573.59,429.77 576.54,429.82 579.48,429.86 582.42,429.94 585.38,430.22 588.32,430.50 591.26,430.78 594.21,431.06 597.16,431.53 600.10,432.04 603.05,432.55 605.99,433.06 608.93,433.73 611.89,434.53 614.83,435.33 617.77,436.13 620.72,437.05 623.66,438.27 626.60,439.49 629.56,440.71 632.50,441.93 635.44,443.67 638.40,445.41 641.34,447.16 644.28,448.90 647.23,450.97 650.17,453.18 653.11,455.39 656.07,457.59 659.01,459.94 661.95,462.47 664.90,465.00 667.84,467.53 670.79,470.07 673.74,472.74 676.68,475.39 679.62,478.06 682.58,480.71 685.52,483.11 688.46,485.46 691.41,487.82 694.35,490.17 697.29,491.95 700.25,493.29 703.19,494.63 706.13,495.98 709.08,496.84 712.03,496.53 714.97,496.21 717.92,495.89 720.86,495.58 723.80,493.91 726.76,492.23 729.70,490.56 732.64,488.88 735.59,487.16 738.53,485.42 741.48,483.68 744.43,481.94 747.37,480.59 750.31,479.76 753.27,478.95 756.21,478.12 759.15,477.44 762.10,477.61 765.04,477.78 767.98,477.95 770.94,478.13 773.88,478.94 776.82,479.86 779.77,480.77 782.72,481.68 785.66,482.90 788.61,484.35 791.55,485.78 794.49,487.22 797.45,488.74 800.39,490.47 803.33,492.19 806.28,493.91 809.22,495.63 812.17,497.37 815.12,499.11 818.06,500.85 821.00,502.59 823.96,504.21 826.90,505.77 829.84,507.35 832.79,508.92 835.73,510.36 838.67,511.64 841.63,512.93 844.57,514.20 847.51,515.43 850.46,516.29 853.41,517.16 856.35,518.03 859.30,518.90 862.24,519.28 865.18,519.58 868.14,519.88 871.08,520.18 874.02,519.99 876.97,519.44 879.91,518.90 882.85,518.36 885.81,517.44 888.75,515.58 891.69,513.71 894.65,511.84 897.59,509.98 900.53,506.63 903.48,503.29 906.42,499.95 909.36,496.61 912.32,492.46 915.26,488.00 918.20,483.54 921.15,479.07 924.09,474.37 927.04,469.33 929.99,464.30 932.93,459.27 935.87,454.24 938.83,449.26 941.77,444.28 944.71,439.30 947.66,434.32 950.60,429.88 953.54,425.53 956.50,421.18 959.44,416.83 962.38,413.10 965.33,409.83 968.28,406.56 971.22,403.29 974.17,400.42 977.11,398.53 980.05,396.65 983.01,394.76 985.95,392.88 988.89,392.54 991.84,392.21 994.78,391.88 997.73,391.55 1000.68,392.34 1003.62,393.59 1006.56,394.83 1009.52,396.08 1012.46,397.96 1015.40,400.70 1018.35,403.44 1021.29,406.18 1024.23,409.11 1027.19,413.22 1030.13,417.33 1033.07,421.43 1036.02,425.54 1038.97,430.66 1041.91,435.94 1044.86,441.23 1047.80,446.51 1050.74,452.22 1053.70,458.24 1056.64,464.27 1059.58,470.30 1062.53,475.49 1065.47,478.62 1068.42,481.74 1071.37,484.86 1074.31,487.98" fill="none" stroke="#999999" stroke-width="3" stroke-dasharray="3 4"/>
<line x1="142" y1="156" x2="178" y2="156" stroke="#999999" stroke-width="4" stroke-dasharray="3 4"/>
<text x="188" y="161" font-family="Arial" font-size="18" fill="black">Uz / w</text>
</svg>