<svg xmlns="http://www.w3.org/2000/svg" width="1200" height="820" viewBox="0 0 1200 820">
<rect width="100%" height="100%" fill="white"/>
<text x="600.0" y="36" text-anchor="middle" font-family="Arial" font-size="24" fill="black">profile_rack_height_x: k</text>
<line x1="120.00" y1="75" x2="120.00" y2="705" stroke="#dddddd" stroke-width="1"/>
<text x="120.00" y="737" text-anchor="middle" font-family="Arial" font-size="16" fill="black">-0.560</text>
<line x1="376.25" y1="75" x2="376.25" y2="705" stroke="#dddddd" stroke-width="1"/>
<text x="376.25" y="737" text-anchor="middle" font-family="Arial" font-size="16" fill="black">1.470</text>
<line x1="632.50" y1="75" x2="632.50" y2="705" stroke="#dddddd" stroke-width="1"/>
<text x="632.50" y="737" text-anchor="middle" font-family="Arial" font-size="16" fill="black">3.500</text>
<line x1="888.75" y1="75" x2="888.75" y2="705" stroke="#dddddd" stroke-width="1"/>
<text x="888.75" y="737" text-anchor="middle" font-family="Arial" font-size="16" fill="black">5.530</text>
<line x1="1145.00" y1="75" x2="1145.00" y2="705" stroke="#dddddd" stroke-width="1"/>
<text x="1145.00" y="737" text-anchor="middle" font-family="Arial" font-size="16" fill="black">7.560</text>
<line x1="120" y1="705.00" x2="1145" y2="705.00" stroke="#dddddd" stroke-width="1"/>
<text x="104" y="710.00" text-anchor="end" font-family="Arial" font-size="16" fill="black">2.24e-04</text>
<line x1="120" y1="547.50" x2="1145" y2="547.50" stroke="#dddddd" stroke-width="1"/>
<text x="104" y="552.50" text-anchor="end" font-family="Arial" font-size="16" fill="black">0.007</text>
<line x1="120" y1="390.00" x2="1145" y2="390.00" stroke="#dddddd" stroke-width="1"/>
<text x="104" y="395.00" text-anchor="end" font-family="Arial" font-size="16" fill="black">0.015</text>
<line x1="120" y1="232.50" x2="1145" y2="232.50" stroke="#dddddd" stroke-width="1"/>
<text x="104" y="237.50" text-anchor="end" font-family="Arial" font-size="16" fill="black">0.022</text>
<line x1="120" y1="75.00" x2="1145" y2="75.00" stroke="#dddddd" stroke-width="1"/>
<text x="104" y="80.00" text-anchor="end" font-family="Arial" font-size="16" fill="black">0.029</text>
<rect x="120" y="75" width="1025" height="630" fill="none" stroke="black" stroke-width="2"/>
<text x="632.5" y="785" text-anchor="middle" font-family="Arial" font-size="20" fill="black">x coordinate [m]</text>
<text x="34" y="390.0" transform="rotate(-90 34 390.0)" text-anchor="middle" font-family="Arial" font-size="20" fill="black">k [m2/s2]</text>
<polyline points="190.69,661.55 193.64,661.30 196.58,661.04 199.53,660.79 202.47,660.53 205.42,659.73 208.36,658.72 211.31,657.71 214.25,656.70 217.20,654.74 220.14,651.52 223.09,648.30 226.03,645.07 228.98,641.32 231.93,634.37 234.87,627.42 237.82,620.46 240.76,613.51 243.71,604.48 246.65,595.11 249.60,585.73 252.54,576.36 255.49,567.10 258.43,557.93 261.38,548.76 264.32,539.60 267.27,530.98 270.22,523.75 273.16,516.52 276.11,509.29 279.05,502.06 282.00,498.50 284.94,494.94 287.89,491.37 290.83,487.82 293.78,488.32 296.72,490.45 299.67,492.58 302.62,494.71 305.56,499.30 308.51,507.16 311.45,515.03 314.40,522.90 317.34,531.06 320.29,540.94 323.23,550.82 326.17,560.71 329.13,570.59 332.07,577.27 335.01,583.43 337.96,589.58 340.91,595.74 343.85,599.35 346.80,601.06 349.74,602.77 352.68,604.47 355.64,605.61 358.58,605.31 361.52,605.02 364.47,604.72 367.41,604.42 370.35,600.28 373.31,596.14 376.25,592.00 379.19,587.85 382.15,576.52 385.09,562.32 388.03,548.11 390.98,533.91 393.92,517.13 396.86,496.92 399.82,476.70 402.76,456.50 405.70,437.00 408.65,421.70 411.59,406.42 414.54,391.13 417.49,375.83 420.43,363.45 423.37,351.57 426.33,339.68 429.27,327.80 432.21,316.47 435.16,305.55 438.10,294.63 441.04,283.69 444.00,274.89 446.94,271.34 449.88,267.76 452.83,264.21 455.78,260.64 458.72,270.71 461.67,280.77 464.61,290.84 467.55,300.91 470.51,317.69 473.45,337.15 476.39,356.61 479.34,376.07 482.28,394.09 485.23,410.22 488.18,426.34 491.12,442.47 494.06,457.18 497.02,463.26 499.96,469.36 502.90,475.44 505.85,481.52 508.79,480.91 511.73,479.16 514.69,477.42 517.63,475.68 520.57,471.45 523.52,465.35 526.47,459.25 529.41,453.17 532.36,446.39 535.30,437.91 538.24,429.46 541.20,420.98 544.14,412.53 547.08,402.74 550.03,392.94 552.97,383.15 555.92,373.37 558.87,363.36 561.81,353.27 564.75,343.19 567.71,333.10 570.65,323.49 573.59,314.51 576.54,305.55 579.48,296.57 582.42,288.16 585.38,283.13 588.32,278.09 591.26,273.06 594.21,268.03 597.16,268.55 600.10,269.99 603.05,271.43 605.99,272.86 608.93,275.65 611.89,279.44 614.83,283.24 617.77,287.03 620.72,289.99 623.66,290.89 626.60,291.78 629.56,292.67 632.50,293.59 635.44,290.95 638.40,288.34 641.34,285.72 644.28,283.08 647.23,277.55 650.17,270.86 653.11,264.17 656.07,257.46 659.01,249.61 661.95,240.22 664.90,230.83 667.84,221.46 670.79,212.87 673.74,209.12 676.68,205.37 679.62,201.63 682.58,197.88 685.52,201.78 688.46,206.94 691.41,212.11 694.35,217.29 697.29,224.33 700.25,232.77 703.19,241.22 706.13,249.68 709.08,257.78 712.03,265.08 714.97,272.36 717.92,279.66 720.86,286.94 723.80,290.65 726.76,294.33 729.70,298.03 732.64,301.72 735.59,302.54 738.53,302.22 741.48,301.89 744.43,301.54 747.37,299.73 750.31,295.92 753.27,292.13 756.21,288.31 759.15,284.15 762.10,277.77 765.04,271.36 767.98,264.98 770.94,258.59 773.88,250.66 776.82,242.44 779.77,234.25 782.72,226.03 785.66,217.38 788.61,208.40 791.55,199.40 794.49,190.43 797.45,181.67 800.39,173.47 803.33,165.30 806.28,157.11 809.22,148.93 812.17,143.38 815.12,137.82 818.06,132.26 821.00,126.71 823.96,123.85 826.90,122.09 829.84,120.32 832.79,118.56 835.73,118.45 838.67,120.56 841.63,122.65 844.57,124.77 847.51,127.38 850.46,132.98 853.41,138.61 856.35,144.23 859.30,149.83 862.24,156.65 865.18,163.67 868.14,170.70 871.08,177.72 874.02,184.19 876.97,190.27 879.91,196.38 882.85,202.45 885.81,208.21 888.75,213.09 891.69,217.99 894.65,222.90 897.59,227.78 900.53,231.68 903.48,235.56 906.42,239.44 909.36,243.31 912.32,246.84 915.26,250.20 918.20,253.58 921.15,256.96 924.09,261.42 927.04,267.37 929.99,273.32 932.93,279.25 935.87,285.87 938.83,296.62 941.77,307.36 944.71,318.10 947.66,328.85 950.60,341.46 953.54,354.41 956.50,367.33 959.44,380.27 962.38,392.41 965.33,403.94 968.28,415.49 971.22,427.04 974.17,437.74 977.11,446.32 980.05,454.93 983.01,463.52 985.95,472.13 988.89,478.01 991.84,483.89 994.78,489.78 997.73,495.67 1000.68,500.43 1003.62,504.73 1006.56,509.03 1009.52,513.34 1012.46,517.47 1015.40,521.38 1018.35,525.29 1021.29,529.21 1024.23,533.20 1027.19,537.66 1030.13,542.13 1033.07,546.60 1036.02,551.06 1038.97,556.77 1041.91,562.68 1044.86,568.59 1047.80,574.50 1050.74,581.61 1053.70,589.63 1056.64,597.65 1059.58,605.67 1062.53,612.71 1065.47,617.29 1068.42,621.88 1071.37,626.46 1074.31,631.04" fill="none" stroke="#000000" stroke-width="3"/>
<line x1="142" y1="100" x2="178" y2="100" stroke="#000000" stroke-width="4"/>
<text x="188" y="105" font-family="Arial" font-size="18" fill="black">k</text>
</svg>