<svg xmlns="http://www.w3.org/2000/svg" width="1200" height="820" viewBox="0 0 1200 820">
<rect width="100%" height="100%" fill="white"/>
<text x="600.0" y="36" text-anchor="middle" font-family="Arial" font-size="24" fill="black">profile_center_y: alphat</text>
<line x1="120.00" y1="75" x2="120.00" y2="705" stroke="#dddddd" stroke-width="1"/>
<text x="120.00" y="737" text-anchor="middle" font-family="Arial" font-size="16" fill="black">-0.400</text>
<line x1="376.25" y1="75" x2="376.25" y2="705" stroke="#dddddd" stroke-width="1"/>
<text x="376.25" y="737" text-anchor="middle" font-family="Arial" font-size="16" fill="black">1.050</text>
<line x1="632.50" y1="75" x2="632.50" y2="705" stroke="#dddddd" stroke-width="1"/>
<text x="632.50" y="737" text-anchor="middle" font-family="Arial" font-size="16" fill="black">2.500</text>
<line x1="888.75" y1="75" x2="888.75" y2="705" stroke="#dddddd" stroke-width="1"/>
<text x="888.75" y="737" text-anchor="middle" font-family="Arial" font-size="16" fill="black">3.950</text>
<line x1="1145.00" y1="75" x2="1145.00" y2="705" stroke="#dddddd" stroke-width="1"/>
<text x="1145.00" y="737" text-anchor="middle" font-family="Arial" font-size="16" fill="black">5.400</text>
<line x1="120" y1="705.00" x2="1145" y2="705.00" stroke="#dddddd" stroke-width="1"/>
<text x="104" y="710.00" text-anchor="end" font-family="Arial" font-size="16" fill="black">-2.49e-04</text>
<line x1="120" y1="547.50" x2="1145" y2="547.50" stroke="#dddddd" stroke-width="1"/>
<text x="104" y="552.50" text-anchor="end" font-family="Arial" font-size="16" fill="black">0.003</text>
<line x1="120" y1="390.00" x2="1145" y2="390.00" stroke="#dddddd" stroke-width="1"/>
<text x="104" y="395.00" text-anchor="end" font-family="Arial" font-size="16" fill="black">0.006</text>
<line x1="120" y1="232.50" x2="1145" y2="232.50" stroke="#dddddd" stroke-width="1"/>
<text x="104" y="237.50" text-anchor="end" font-family="Arial" font-size="16" fill="black">0.009</text>
<line x1="120" y1="75.00" x2="1145" y2="75.00" stroke="#dddddd" stroke-width="1"/>
<text x="104" y="80.00" text-anchor="end" font-family="Arial" font-size="16" fill="black">0.012</text>
<rect x="120" y="75" width="1025" height="630" fill="none" stroke="black" stroke-width="2"/>
<text x="632.5" y="785" text-anchor="middle" font-family="Arial" font-size="20" fill="black">y coordinate [m]</text>
<text x="34" y="390.0" transform="rotate(-90 34 390.0)" text-anchor="middle" font-family="Arial" font-size="20" fill="black">alphat [SI]</text>
<polyline points="190.69,654.19 193.64,639.59 196.58,625.00 199.53,610.40 202.47,595.80 205.42,581.21 208.36,566.61 211.31,543.05 214.25,519.50 217.20,495.94 220.14,472.38 223.09,448.83 226.03,425.27 228.98,410.43 231.92,395.59 234.87,380.76 237.82,365.92 240.76,351.08 243.71,336.25 246.65,326.61 249.60,316.97 252.54,307.33 255.49,297.69 258.43,288.06 261.38,278.42 264.33,272.81 267.27,267.19 270.22,261.58 273.16,255.97 276.11,250.36 279.05,244.74 282.00,242.94 284.94,241.13 287.89,239.33 290.83,237.52 293.78,235.71 296.72,233.91 299.67,235.60 302.61,237.29 305.56,238.99 308.51,240.68 311.45,242.37 314.40,244.06 317.34,248.18 320.29,252.29 323.23,256.41 326.18,260.52 329.12,264.63 332.07,268.75 335.01,272.84 337.96,276.93 340.91,281.02 343.85,285.11 346.80,289.21 349.74,293.30 352.69,293.91 355.63,294.52 358.58,295.13 361.52,295.74 364.47,296.35 367.41,296.96 370.37,293.04 373.30,289.12 376.25,285.20 379.20,281.28 382.13,277.36 385.09,273.44 388.04,266.47 390.97,259.50 393.92,252.52 396.87,245.55 399.81,238.58 402.76,231.61 405.71,223.02 408.64,214.43 411.59,205.84 414.55,197.25 417.48,188.65 420.43,180.06 423.38,172.79 426.32,165.51 429.27,158.22 432.22,150.95 435.15,143.68 438.10,136.41 441.05,133.41 443.99,130.41 446.94,127.40 449.89,124.45 452.82,121.45 455.78,118.45 458.73,119.50 461.66,120.56 464.61,121.61 467.56,122.66 470.50,123.72 473.45,124.77 476.40,128.88 479.33,132.93 482.28,137.04 485.24,141.10 488.17,145.21 491.12,149.32 494.07,156.27 497.01,163.22 499.96,170.19 502.91,177.16 505.84,184.12 508.79,191.09 511.74,200.30 514.68,209.50 517.63,218.71 520.58,227.91 523.51,237.12 526.47,246.32 529.42,256.30 532.35,266.28 535.30,276.25 538.25,286.23 541.19,296.21 544.14,306.18 547.09,315.58 550.02,324.97 552.97,334.36 555.93,343.76 558.86,353.15 561.81,362.55 564.76,370.97 567.70,379.40 570.65,387.82 573.60,396.25 576.53,404.67 579.48,413.09 582.43,419.93 585.37,426.76 588.32,433.59 591.27,440.42 594.20,447.25 597.16,454.09 600.11,458.07 603.04,462.04 605.99,466.02 608.94,470.00 611.88,473.98 614.83,477.96 617.78,478.76 620.71,479.56 623.66,480.37 626.62,481.17 629.55,481.97 632.50,482.78 635.45,482.00 638.38,481.22 641.34,480.44 644.29,479.67 647.22,478.89 650.17,478.12 653.12,477.24 656.06,476.35 659.01,475.47 661.96,474.59 664.89,473.71 667.84,472.83 670.80,471.80 673.73,470.77 676.68,469.75 679.63,468.72 682.57,467.69 685.52,466.66 688.47,465.49 691.40,464.33 694.35,463.16 697.30,461.99 700.24,460.82 703.19,459.65 706.14,458.97 709.07,458.28 712.03,457.60 714.98,456.91 717.91,456.23 720.86,455.54 723.81,455.81 726.75,456.07 729.70,456.33 732.65,456.59 735.58,456.86 738.53,457.12 741.49,458.19 744.42,459.27 747.37,460.34 750.32,461.42 753.26,462.50 756.21,463.57 759.16,464.93 762.09,466.27 765.04,467.63 767.99,468.98 770.93,470.33 773.88,471.68 776.83,472.57 779.76,473.47 782.72,474.37 785.67,475.26 788.60,476.16 791.55,477.05 794.50,476.58 797.44,476.11 800.39,475.63 803.34,475.16 806.27,474.69 809.22,474.22 812.18,470.63 815.11,467.05 818.06,463.46 821.01,459.88 823.95,456.29 826.90,452.71 829.85,444.49 832.78,436.28 835.73,428.07 838.68,419.86 841.62,411.64 844.57,403.43 847.52,392.00 850.45,380.57 853.41,369.14 856.36,357.71 859.29,346.27 862.24,334.84 865.19,324.68 868.13,314.52 871.08,304.35 874.03,294.19 876.96,284.02 879.91,273.86 882.87,269.50 885.80,265.13 888.75,260.77 891.70,256.40 894.63,252.04 897.59,247.67 900.54,250.43 903.47,253.19 906.42,255.96 909.37,258.72 912.31,261.48 915.26,264.24 918.21,271.34 921.14,278.45 924.09,285.56 927.05,292.67 929.98,299.77 932.93,306.88 935.88,314.65 938.82,322.42 941.77,330.19 944.72,337.96 947.65,345.73 950.60,353.50 953.55,360.22 956.49,366.94 959.44,373.67 962.39,380.39 965.32,387.11 968.28,393.83 971.23,399.48 974.16,405.13 977.11,410.79 980.06,416.44 983.00,422.09 985.95,427.74 988.90,433.50 991.83,439.26 994.78,445.03 997.74,450.79 1000.67,456.55 1003.62,462.31 1006.57,469.79 1009.51,477.27 1012.46,484.75 1015.41,492.23 1018.34,499.70 1021.29,507.18 1024.24,517.10 1027.18,527.01 1030.13,536.92 1033.08,546.84 1036.01,556.75 1038.97,566.66 1041.92,577.35 1044.85,588.04 1047.80,598.73 1050.75,609.41 1053.69,620.10 1056.64,630.79 1059.59,635.92 1062.52,641.05 1065.47,646.17 1068.43,651.30 1071.36,656.43 1074.31,661.55" fill="none" stroke="#000000" stroke-width="3"/>
<line x1="142" y1="100" x2="178" y2="100" stroke="#000000" stroke-width="4"/>
<text x="188" y="105" font-family="Arial" font-size="18" fill="black">alphat</text>
</svg>