<svg xmlns="http://www.w3.org/2000/svg" width="1200" height="820" viewBox="0 0 1200 820">
<rect width="100%" height="100%" fill="white"/>
<text x="600.0" y="36" text-anchor="middle" font-family="Arial" font-size="24" fill="black">profile_diagonal_supply_return: velocity magnitude</text>
<line x1="120.00" y1="75" x2="120.00" y2="705" stroke="#dddddd" stroke-width="1"/>
<text x="120.00" y="737" text-anchor="middle" font-family="Arial" font-size="16" fill="black">-0.729</text>
<line x1="376.25" y1="75" x2="376.25" y2="705" stroke="#dddddd" stroke-width="1"/>
<text x="376.25" y="737" text-anchor="middle" font-family="Arial" font-size="16" fill="black">1.913</text>
<line x1="632.50" y1="75" x2="632.50" y2="705" stroke="#dddddd" stroke-width="1"/>
<text x="632.50" y="737" text-anchor="middle" font-family="Arial" font-size="16" fill="black">4.555</text>
<line x1="888.75" y1="75" x2="888.75" y2="705" stroke="#dddddd" stroke-width="1"/>
<text x="888.75" y="737" text-anchor="middle" font-family="Arial" font-size="16" fill="black">7.197</text>
<line x1="1145.00" y1="75" x2="1145.00" y2="705" stroke="#dddddd" stroke-width="1"/>
<text x="1145.00" y="737" text-anchor="middle" font-family="Arial" font-size="16" fill="black">9.839</text>
<line x1="120" y1="705.00" x2="1145" y2="705.00" stroke="#dddddd" stroke-width="1"/>
<text x="104" y="710.00" text-anchor="end" font-family="Arial" font-size="16" fill="black">0.041</text>
<line x1="120" y1="547.50" x2="1145" y2="547.50" stroke="#dddddd" stroke-width="1"/>
<text x="104" y="552.50" text-anchor="end" font-family="Arial" font-size="16" fill="black">0.158</text>
<line x1="120" y1="390.00" x2="1145" y2="390.00" stroke="#dddddd" stroke-width="1"/>
<text x="104" y="395.00" text-anchor="end" font-family="Arial" font-size="16" fill="black">0.274</text>
<line x1="120" y1="232.50" x2="1145" y2="232.50" stroke="#dddddd" stroke-width="1"/>
<text x="104" y="237.50" text-anchor="end" font-family="Arial" font-size="16" fill="black">0.391</text>
<line x1="120" y1="75.00" x2="1145" y2="75.00" stroke="#dddddd" stroke-width="1"/>
<text x="104" y="80.00" text-anchor="end" font-family="Arial" font-size="16" fill="black">0.507</text>
<rect x="120" y="75" width="1025" height="630" fill="none" stroke="black" stroke-width="2"/>
<text x="632.5" y="785" text-anchor="middle" font-family="Arial" font-size="20" fill="black">distance along sample line [m]</text>
<text x="34" y="390.0" transform="rotate(-90 34 390.0)" text-anchor="middle" font-family="Arial" font-size="20" fill="black">|U| [m/s]</text>
<polyline points="190.69,661.55 193.64,653.06 196.58,645.05 199.53,637.49 202.47,630.37 205.42,618.16 208.36,604.10 211.31,590.06 214.25,577.44 217.20,566.01 220.14,554.88 223.09,543.00 226.03,531.31 228.98,523.04 231.93,516.67 234.87,509.76 237.82,502.36 240.76,494.56 243.71,487.92 246.65,483.40 249.60,478.41 252.54,472.57 255.49,467.20 258.43,461.91 261.38,455.88 264.32,451.89 267.27,447.86 270.22,444.52 273.16,440.18 276.11,434.80 279.05,428.36 282.00,427.51 284.94,425.18 287.88,421.36 290.83,416.00 293.78,412.61 296.73,409.44 299.67,407.74 302.62,403.98 305.57,400.91 308.50,399.99 311.45,397.39 314.40,393.31 317.34,390.17 320.29,391.39 323.24,391.33 326.18,389.91 329.12,387.07 332.07,388.70 335.01,391.52 337.96,393.59 340.91,393.97 343.85,395.57 346.80,398.85 349.74,402.41 352.68,406.09 355.63,409.69 358.58,414.35 361.53,419.50 364.47,425.14 367.42,431.27 370.36,437.19 373.30,443.48 376.25,450.12 379.20,457.07 382.14,464.33 385.09,472.70 388.04,482.68 390.97,493.34 393.92,504.71 396.87,517.75 399.81,529.83 402.76,543.12 405.71,555.86 408.65,568.48 411.59,583.04 414.54,599.40 417.48,617.39 420.43,623.56 423.38,628.70 426.32,636.24 429.27,641.22 432.21,631.61 435.16,611.64 438.10,593.20 441.05,576.54 444.00,559.66 446.94,539.71 449.89,519.82 452.84,499.99 455.77,480.29 458.72,469.23 461.67,458.37 464.61,447.71 467.56,437.23 470.51,432.38 473.45,429.74 476.39,427.05 479.34,424.14 482.28,421.50 485.23,419.14 488.18,416.42 491.12,412.98 494.07,407.39 497.01,398.49 499.96,388.60 502.90,377.76 505.85,366.01 508.80,351.90 511.74,335.77 514.69,319.21 517.63,301.62 520.57,283.38 523.52,264.95 526.47,246.72 529.41,229.26 532.36,212.50 535.31,196.95 538.24,182.56 541.19,169.28 544.14,157.08 547.08,151.85 550.03,148.86 552.98,147.98 555.92,149.09 558.86,155.38 561.81,164.64 564.76,179.95 567.70,196.32 570.65,215.67 573.60,238.13 576.54,264.07 579.49,290.87 582.43,320.95 585.37,352.71 588.32,382.73 591.27,412.21 594.21,442.38 597.16,463.01 600.11,477.96 603.04,500.07 605.99,512.99 608.94,519.99 611.88,527.03 614.83,540.54 617.78,550.45 620.72,564.27 623.66,579.83 626.61,598.59 629.55,620.20 632.50,644.31 635.45,627.46 638.40,610.90 641.34,595.05 644.28,580.35 647.23,564.09 650.17,550.21 653.12,538.35 656.07,529.01 659.01,520.02 661.96,511.23 664.90,499.83 667.84,490.12 670.79,480.49 673.74,468.81 676.68,459.32 679.63,451.78 682.58,445.94 685.51,440.03 688.46,436.30 691.41,434.08 694.35,432.89 697.30,432.89 700.25,433.99 703.20,436.01 706.14,439.68 709.08,444.45 712.03,450.74 714.97,457.71 717.92,465.32 720.87,473.51 723.81,483.39 726.76,493.49 729.70,503.82 732.64,514.38 735.59,525.77 738.54,537.59 741.48,547.70 744.43,557.68 747.38,567.18 750.31,575.90 753.26,583.89 756.21,591.44 759.15,595.75 762.10,596.37 765.05,596.33 767.99,595.62 770.93,594.24 773.88,588.02 776.83,580.44 779.77,572.57 782.72,564.39 785.67,554.06 788.61,541.98 791.55,529.60 794.50,518.44 797.44,506.86 800.39,494.02 803.34,480.99 806.28,467.81 809.23,454.45 812.17,442.34 815.11,430.11 818.06,417.73 821.01,405.24 823.95,391.96 826.90,377.86 829.85,365.04 832.79,351.95 835.73,338.28 838.68,323.51 841.63,308.50 844.57,292.80 847.52,278.58 850.47,264.89 853.41,250.26 856.35,234.76 859.30,218.41 862.24,204.65 865.19,193.19 868.14,180.86 871.08,168.46 874.03,158.53 876.97,149.84 879.91,139.84 882.86,133.65 885.81,128.69 888.75,127.51 891.70,125.40 894.65,122.38 897.58,118.45 900.53,126.21 903.48,133.38 906.43,139.94 909.37,145.90 912.32,156.14 915.27,167.50 918.20,180.32 921.15,192.53 924.10,206.84 927.04,223.92 929.99,241.16 932.94,257.29 935.88,273.15 938.82,291.84 941.77,309.15 944.71,325.07 947.66,339.57 950.61,354.65 953.55,367.63 956.50,378.93 959.44,388.28 962.38,395.31 965.33,400.04 968.28,402.50 971.22,404.26 974.17,403.56 977.12,399.92 980.06,394.69 983.00,387.82 985.95,379.34 988.90,372.73 991.84,365.75 994.79,358.42 997.74,350.80 1000.68,348.55 1003.62,350.05 1006.57,358.53 1009.51,368.67 1012.46,381.69 1015.41,398.37 1018.35,412.97 1021.30,431.51 1024.24,456.08 1027.18,475.18 1030.13,496.32 1033.08,519.40 1036.02,544.31 1038.97,561.93 1041.92,581.74 1044.86,600.89 1047.80,617.89 1050.75,630.58 1053.70,639.88 1056.64,648.52 1059.59,654.20 1062.54,658.12 1065.47,657.83 1068.42,657.74 1071.37,657.87 1074.31,658.26" fill="none" stroke="#000000" stroke-width="3"/>
<line x1="142" y1="100" x2="178" y2="100" stroke="#000000" stroke-width="4"/>
<text x="188" y="105" font-family="Arial" font-size="18" fill="black">|U|</text>
</svg>