<svg xmlns="http://www.w3.org/2000/svg" width="1200" height="820" viewBox="0 0 1200 820">
<rect width="100%" height="100%" fill="white"/>
<text x="600.0" y="36" text-anchor="middle" font-family="Arial" font-size="24" fill="black">profile_near_ceiling_x: U:1</text>
<line x1="120.00" y1="75" x2="120.00" y2="705" stroke="#dddddd" stroke-width="1"/>
<text x="120.00" y="737" text-anchor="middle" font-family="Arial" font-size="16" fill="black">-0.560</text>
<line x1="376.25" y1="75" x2="376.25" y2="705" stroke="#dddddd" stroke-width="1"/>
<text x="376.25" y="737" text-anchor="middle" font-family="Arial" font-size="16" fill="black">1.470</text>
<line x1="632.50" y1="75" x2="632.50" y2="705" stroke="#dddddd" stroke-width="1"/>
<text x="632.50" y="737" text-anchor="middle" font-family="Arial" font-size="16" fill="black">3.500</text>
<line x1="888.75" y1="75" x2="888.75" y2="705" stroke="#dddddd" stroke-width="1"/>
<text x="888.75" y="737" text-anchor="middle" font-family="Arial" font-size="16" fill="black">5.530</text>
<line x1="1145.00" y1="75" x2="1145.00" y2="705" stroke="#dddddd" stroke-width="1"/>
<text x="1145.00" y="737" text-anchor="middle" font-family="Arial" font-size="16" fill="black">7.560</text>
<line x1="120" y1="705.00" x2="1145" y2="705.00" stroke="#dddddd" stroke-width="1"/>
<text x="104" y="710.00" text-anchor="end" font-family="Arial" font-size="16" fill="black">-0.323</text>
<line x1="120" y1="547.50" x2="1145" y2="547.50" stroke="#dddddd" stroke-width="1"/>
<text x="104" y="552.50" text-anchor="end" font-family="Arial" font-size="16" fill="black">-0.174</text>
<line x1="120" y1="390.00" x2="1145" y2="390.00" stroke="#dddddd" stroke-width="1"/>
<text x="104" y="395.00" text-anchor="end" font-family="Arial" font-size="16" fill="black">-0.026</text>
<line x1="120" y1="232.50" x2="1145" y2="232.50" stroke="#dddddd" stroke-width="1"/>
<text x="104" y="237.50" text-anchor="end" font-family="Arial" font-size="16" fill="black">0.122</text>
<line x1="120" y1="75.00" x2="1145" y2="75.00" stroke="#dddddd" stroke-width="1"/>
<text x="104" y="80.00" text-anchor="end" font-family="Arial" font-size="16" fill="black">0.271</text>
<rect x="120" y="75" width="1025" height="630" fill="none" stroke="black" stroke-width="2"/>
<text x="632.5" y="785" text-anchor="middle" font-family="Arial" font-size="20" fill="black">x coordinate [m]</text>
<text x="34" y="390.0" transform="rotate(-90 34 390.0)" text-anchor="middle" font-family="Arial" font-size="20" fill="black">U:1 [SI]</text>
<polyline points="190.69,590.45 193.64,564.97 196.58,539.49 199.53,514.01 202.47,488.54 205.42,452.44 208.36,412.10 211.31,371.76 214.25,331.42 217.20,300.74 220.14,282.94 223.09,265.15 226.03,247.36 228.98,231.48 231.93,227.10 234.87,222.72 237.82,218.34 240.76,213.96 243.71,211.06 246.65,208.40 249.60,205.73 252.54,203.08 255.49,200.77 258.43,198.72 261.38,196.67 264.32,194.62 267.27,192.84 270.22,191.74 273.16,190.63 276.11,189.53 279.05,188.44 282.00,188.62 284.94,188.80 287.89,188.99 290.83,189.17 293.78,190.43 296.72,192.13 299.67,193.83 302.62,195.53 305.56,197.94 308.51,201.31 311.45,204.67 314.40,208.04 317.34,211.67 320.29,216.83 323.23,222.00 326.17,227.18 329.13,232.35 332.07,239.30 335.01,246.55 337.96,253.81 340.91,261.05 343.85,269.97 346.80,280.12 349.74,290.28 352.68,300.44 355.64,311.14 358.58,323.19 361.52,335.25 364.47,347.31 367.41,359.37 370.35,368.81 373.31,378.25 376.25,387.69 379.19,397.13 382.15,400.82 385.09,402.22 388.03,403.62 390.98,405.01 393.92,403.27 396.86,397.36 399.82,391.44 402.76,385.52 405.70,379.43 408.65,372.32 411.59,365.21 414.54,358.10 417.49,350.99 420.43,346.33 423.37,342.08 426.33,337.82 429.27,333.57 432.21,332.03 435.16,332.52 438.10,333.02 441.04,333.52 444.00,335.97 446.94,343.32 449.88,350.68 452.83,358.03 455.78,365.38 458.72,380.04 461.67,394.71 464.61,409.37 467.55,424.04 470.51,438.97 473.45,454.00 476.39,469.03 479.34,484.06 482.28,496.95 485.23,506.96 488.18,516.98 491.12,527.00 494.06,536.58 497.02,543.49 499.96,550.40 502.90,557.31 505.85,564.22 508.79,570.00 511.73,575.59 514.69,581.19 517.63,586.78 520.57,591.97 523.52,596.84 526.47,601.72 529.41,606.59 532.36,611.26 535.30,615.43 538.24,619.60 541.20,623.76 544.14,627.93 547.08,631.27 550.03,634.63 552.97,637.97 555.92,641.31 558.87,644.00 561.81,646.43 564.75,648.85 567.71,651.28 570.65,653.30 573.59,654.79 576.54,656.28 579.48,657.76 582.42,659.13 585.38,659.74 588.32,660.34 591.26,660.95 594.21,661.55 597.16,661.50 600.10,661.33 603.05,661.16 605.99,660.99 608.93,660.46 611.89,659.66 614.83,658.88 617.77,658.08 620.72,657.16 623.66,655.95 626.60,654.73 629.56,653.51 632.50,652.29 635.44,650.68 638.40,649.08 641.34,647.48 644.28,645.88 647.23,643.79 650.17,641.52 653.11,639.24 656.07,636.97 659.01,634.32 661.95,631.16 664.90,628.00 667.84,624.83 670.79,621.53 673.74,617.35 676.68,613.18 679.62,609.01 682.58,604.83 685.52,599.43 688.46,593.81 691.41,588.20 694.35,582.59 697.29,575.76 700.25,568.05 703.19,560.32 706.13,552.60 709.08,544.18 712.03,534.02 714.97,523.87 717.92,513.71 720.86,503.56 723.80,492.10 726.76,480.63 729.70,469.18 732.64,457.72 735.59,447.17 738.53,436.97 741.48,426.78 744.43,416.58 747.37,407.76 750.31,400.76 753.27,393.76 756.21,386.77 759.15,380.20 762.10,376.23 765.04,372.26 767.98,368.29 770.94,364.32 773.88,362.05 776.82,360.07 779.77,358.08 782.72,356.10 785.66,354.89 788.61,354.26 791.55,353.64 794.49,353.01 797.45,352.67 800.39,353.01 803.33,353.36 806.28,353.71 809.22,354.06 812.17,355.01 815.12,355.97 818.06,356.93 821.00,357.89 823.96,358.97 826.90,360.11 829.84,361.24 832.79,362.38 835.73,363.34 838.67,364.05 841.63,364.77 844.57,365.48 847.51,365.99 850.46,365.25 853.41,364.51 856.35,363.76 859.30,363.02 862.24,359.59 865.18,355.70 868.14,351.82 871.08,347.94 874.02,342.30 876.97,335.35 879.91,328.39 882.85,321.44 885.81,314.14 888.75,306.01 891.69,297.87 894.65,289.73 897.59,281.59 900.53,274.20 903.48,266.81 906.42,259.42 909.36,252.02 912.32,245.47 915.26,239.24 918.20,233.00 921.15,226.77 924.09,220.69 927.04,214.83 929.99,208.97 932.93,203.11 935.87,197.30 938.83,191.77 941.77,186.25 944.71,180.72 947.66,175.20 950.60,170.14 953.54,165.15 956.50,160.17 959.44,155.18 962.38,150.68 965.33,146.56 968.28,142.43 971.22,138.31 974.17,134.56 977.11,131.70 980.05,128.85 983.01,125.99 985.95,123.14 988.89,121.96 991.84,120.79 994.78,119.62 997.73,118.45 1000.68,118.64 1003.62,119.36 1006.56,120.09 1009.52,120.83 1012.46,122.35 1015.40,124.95 1018.35,127.54 1021.29,130.13 1024.23,132.97 1027.19,137.20 1030.13,141.42 1033.07,145.66 1036.02,149.89 1038.97,155.39 1041.91,161.10 1044.86,166.81 1047.80,172.52 1050.74,179.08 1053.70,186.29 1056.64,193.51 1059.58,200.71 1062.53,207.01 1065.47,211.01 1068.42,215.00 1071.37,218.99 1074.31,222.98" fill="none" stroke="#000000" stroke-width="3"/>
<line x1="142" y1="100" x2="178" y2="100" stroke="#000000" stroke-width="4"/>
<text x="188" y="105" font-family="Arial" font-size="18" fill="black">U:1</text>
</svg>