<svg xmlns="http://www.w3.org/2000/svg" width="1200" height="820" viewBox="0 0 1200 820">
<rect width="100%" height="100%" fill="white"/>
<text x="600.0" y="36" text-anchor="middle" font-family="Arial" font-size="24" fill="black">profile_diagonal_supply_return: rho</text>
<line x1="120.00" y1="75" x2="120.00" y2="705" stroke="#dddddd" stroke-width="1"/>
<text x="120.00" y="737" text-anchor="middle" font-family="Arial" font-size="16" fill="black">-0.729</text>
<line x1="376.25" y1="75" x2="376.25" y2="705" stroke="#dddddd" stroke-width="1"/>
<text x="376.25" y="737" text-anchor="middle" font-family="Arial" font-size="16" fill="black">1.913</text>
<line x1="632.50" y1="75" x2="632.50" y2="705" stroke="#dddddd" stroke-width="1"/>
<text x="632.50" y="737" text-anchor="middle" font-family="Arial" font-size="16" fill="black">4.555</text>
<line x1="888.75" y1="75" x2="888.75" y2="705" stroke="#dddddd" stroke-width="1"/>
<text x="888.75" y="737" text-anchor="middle" font-family="Arial" font-size="16" fill="black">7.197</text>
<line x1="1145.00" y1="75" x2="1145.00" y2="705" stroke="#dddddd" stroke-width="1"/>
<text x="1145.00" y="737" text-anchor="middle" font-family="Arial" font-size="16" fill="black">9.839</text>
<line x1="120" y1="705.00" x2="1145" y2="705.00" stroke="#dddddd" stroke-width="1"/>
<text x="104" y="710.00" text-anchor="end" font-family="Arial" font-size="16" fill="black">1.157</text>
<line x1="120" y1="547.50" x2="1145" y2="547.50" stroke="#dddddd" stroke-width="1"/>
<text x="104" y="552.50" text-anchor="end" font-family="Arial" font-size="16" fill="black">1.174</text>
<line x1="120" y1="390.00" x2="1145" y2="390.00" stroke="#dddddd" stroke-width="1"/>
<text x="104" y="395.00" text-anchor="end" font-family="Arial" font-size="16" fill="black">1.192</text>
<line x1="120" y1="232.50" x2="1145" y2="232.50" stroke="#dddddd" stroke-width="1"/>
<text x="104" y="237.50" text-anchor="end" font-family="Arial" font-size="16" fill="black">1.209</text>
<line x1="120" y1="75.00" x2="1145" y2="75.00" stroke="#dddddd" stroke-width="1"/>
<text x="104" y="80.00" text-anchor="end" font-family="Arial" font-size="16" fill="black">1.226</text>
<rect x="120" y="75" width="1025" height="630" fill="none" stroke="black" stroke-width="2"/>
<text x="632.5" y="785" text-anchor="middle" font-family="Arial" font-size="20" fill="black">distance along sample line [m]</text>
<text x="34" y="390.0" transform="rotate(-90 34 390.0)" text-anchor="middle" font-family="Arial" font-size="20" fill="black">rho [kg/m3]</text>
<polyline points="190.69,332.73 193.64,332.73 196.58,332.73 199.53,332.73 202.47,333.66 205.42,333.66 208.36,333.66 211.31,334.58 214.25,334.58 217.20,335.50 220.14,336.43 223.09,337.35 226.03,339.20 228.98,340.12 231.93,341.05 234.87,341.97 237.82,342.89 240.76,344.74 243.71,345.67 246.65,346.59 249.60,347.51 252.54,349.36 255.49,350.28 258.43,351.21 261.38,353.05 264.32,353.98 267.27,354.90 270.22,356.75 273.16,357.67 276.11,359.52 279.05,361.37 282.00,362.29 284.94,364.14 287.88,365.06 290.83,367.83 293.78,369.68 296.73,371.53 299.67,373.37 302.62,375.22 305.57,377.99 308.50,380.76 311.45,383.53 314.40,387.23 317.34,390.92 320.29,393.69 323.24,397.39 326.18,402.01 329.12,406.63 332.07,410.32 335.01,414.01 337.96,418.63 340.91,422.33 343.85,426.02 346.80,428.79 349.74,431.56 352.68,435.26 355.63,438.03 358.58,439.88 361.53,442.65 364.47,444.50 367.42,446.34 370.36,445.42 373.30,445.42 376.25,444.50 379.20,444.50 382.14,444.50 385.09,443.57 388.04,439.88 390.97,437.11 393.92,432.49 396.87,428.79 399.81,424.17 402.76,420.48 405.71,414.94 408.65,405.70 411.59,397.39 414.54,388.15 417.48,379.84 420.43,370.60 423.38,361.37 426.32,351.21 429.27,341.05 432.21,333.66 435.16,327.19 438.10,320.73 441.05,313.34 444.00,307.80 446.94,304.10 449.89,300.41 452.84,296.71 455.77,293.02 458.72,293.02 461.67,293.94 464.61,294.86 467.56,295.79 470.51,297.64 473.45,300.41 476.39,303.18 479.34,306.87 482.28,309.64 485.23,311.49 488.18,313.34 491.12,315.18 494.07,317.03 497.01,317.03 499.96,317.03 502.90,317.03 505.85,316.11 508.80,315.18 511.74,313.34 514.69,310.57 517.63,308.72 520.57,305.02 523.52,301.33 526.47,297.64 529.41,293.94 532.36,289.32 535.31,283.78 538.24,278.24 541.19,271.77 544.14,265.31 547.08,258.84 550.03,252.38 552.98,244.99 555.92,238.52 558.86,231.13 561.81,222.82 564.76,215.43 567.70,208.04 570.65,199.73 573.60,189.57 576.54,181.26 579.49,172.02 582.43,164.63 585.37,157.24 588.32,148.93 591.27,141.54 594.21,134.15 597.16,128.61 600.11,123.99 603.04,119.37 605.99,118.45 608.94,121.22 611.88,124.91 614.83,129.53 617.78,137.84 620.72,146.16 623.66,156.32 626.61,165.55 629.55,175.71 632.50,185.87 635.45,198.81 638.40,210.81 641.34,223.74 644.28,236.67 647.23,250.53 650.17,264.38 653.12,281.01 656.07,296.71 659.01,312.41 661.96,329.04 664.90,339.20 667.84,349.36 670.79,361.37 673.74,372.45 676.68,383.53 679.63,393.69 682.58,402.93 685.51,412.17 688.46,421.40 691.41,428.79 694.35,435.26 697.30,441.72 700.25,448.19 703.20,453.73 706.14,458.35 709.08,462.97 712.03,468.51 714.97,473.13 717.92,476.82 720.87,480.52 723.81,485.14 726.76,488.83 729.70,491.60 732.64,495.30 735.59,498.99 738.54,502.68 741.48,506.38 744.43,509.15 747.38,512.84 750.31,516.54 753.26,520.23 756.21,523.93 759.15,526.70 762.10,531.32 765.05,535.01 767.99,538.71 770.93,542.40 773.88,547.94 776.83,551.64 779.77,556.26 782.72,559.95 785.67,564.57 788.61,569.19 791.55,573.81 794.50,577.50 797.44,582.12 800.39,585.81 803.34,590.43 806.28,594.13 809.23,597.82 812.17,601.51 815.11,604.29 818.06,607.98 821.01,610.75 823.95,614.45 826.90,618.14 829.85,621.83 832.79,624.61 835.73,629.22 838.68,633.84 841.63,638.46 844.57,643.08 847.52,646.77 850.47,650.47 853.41,654.16 856.35,656.93 859.30,659.70 862.24,661.55 865.19,661.55 868.14,661.55 871.08,661.55 874.03,660.63 876.97,659.70 879.91,657.86 882.86,655.09 885.81,651.39 888.75,646.77 891.70,642.16 894.65,638.46 897.58,633.84 900.53,628.30 903.48,622.76 906.43,617.22 909.37,611.67 912.32,606.13 915.27,600.59 918.20,595.05 921.15,590.43 924.10,585.81 927.04,580.27 929.99,574.73 932.94,570.11 935.88,565.49 938.82,560.87 941.77,556.26 944.71,551.64 947.66,547.94 950.61,543.33 953.55,540.55 956.50,536.86 959.44,534.09 962.38,531.32 965.33,529.47 968.28,528.55 971.22,526.70 974.17,525.78 977.12,524.85 980.06,524.85 983.00,523.93 985.95,523.93 988.90,523.93 991.84,523.00 994.79,523.00 997.74,522.08 1000.68,521.16 1003.62,520.23 1006.57,519.31 1009.51,518.39 1012.46,517.46 1015.41,516.54 1018.35,516.54 1021.30,515.62 1024.24,515.62 1027.18,514.69 1030.13,514.69 1033.08,514.69 1036.02,514.69 1038.97,514.69 1041.92,513.77 1044.86,513.77 1047.80,513.77 1050.75,513.77 1053.70,513.77 1056.64,513.77 1059.59,514.69 1062.54,514.69 1065.47,514.69 1068.42,514.69 1071.37,515.62 1074.31,515.62" fill="none" stroke="#000000" stroke-width="3"/>
<line x1="142" y1="100" x2="178" y2="100" stroke="#000000" stroke-width="4"/>
<text x="188" y="105" font-family="Arial" font-size="18" fill="black">rho</text>
</svg>