<svg xmlns="http://www.w3.org/2000/svg" width="1200" height="820" viewBox="0 0 1200 820">
<rect width="100%" height="100%" fill="white"/>
<text x="600.0" y="36" text-anchor="middle" font-family="Arial" font-size="24" fill="black">profile_center_y: U:0</text>
<line x1="120.00" y1="75" x2="120.00" y2="705" stroke="#dddddd" stroke-width="1"/>
<text x="120.00" y="737" text-anchor="middle" font-family="Arial" font-size="16" fill="black">-0.400</text>
<line x1="376.25" y1="75" x2="376.25" y2="705" stroke="#dddddd" stroke-width="1"/>
<text x="376.25" y="737" text-anchor="middle" font-family="Arial" font-size="16" fill="black">1.050</text>
<line x1="632.50" y1="75" x2="632.50" y2="705" stroke="#dddddd" stroke-width="1"/>
<text x="632.50" y="737" text-anchor="middle" font-family="Arial" font-size="16" fill="black">2.500</text>
<line x1="888.75" y1="75" x2="888.75" y2="705" stroke="#dddddd" stroke-width="1"/>
<text x="888.75" y="737" text-anchor="middle" font-family="Arial" font-size="16" fill="black">3.950</text>
<line x1="1145.00" y1="75" x2="1145.00" y2="705" stroke="#dddddd" stroke-width="1"/>
<text x="1145.00" y="737" text-anchor="middle" font-family="Arial" font-size="16" fill="black">5.400</text>
<line x1="120" y1="705.00" x2="1145" y2="705.00" stroke="#dddddd" stroke-width="1"/>
<text x="104" y="710.00" text-anchor="end" font-family="Arial" font-size="16" fill="black">-0.116</text>
<line x1="120" y1="547.50" x2="1145" y2="547.50" stroke="#dddddd" stroke-width="1"/>
<text x="104" y="552.50" text-anchor="end" font-family="Arial" font-size="16" fill="black">-0.043</text>
<line x1="120" y1="390.00" x2="1145" y2="390.00" stroke="#dddddd" stroke-width="1"/>
<text x="104" y="395.00" text-anchor="end" font-family="Arial" font-size="16" fill="black">0.029</text>
<line x1="120" y1="232.50" x2="1145" y2="232.50" stroke="#dddddd" stroke-width="1"/>
<text x="104" y="237.50" text-anchor="end" font-family="Arial" font-size="16" fill="black">0.102</text>
<line x1="120" y1="75.00" x2="1145" y2="75.00" stroke="#dddddd" stroke-width="1"/>
<text x="104" y="80.00" text-anchor="end" font-family="Arial" font-size="16" fill="black">0.175</text>
<rect x="120" y="75" width="1025" height="630" fill="none" stroke="black" stroke-width="2"/>
<text x="632.5" y="785" text-anchor="middle" font-family="Arial" font-size="20" fill="black">y coordinate [m]</text>
<text x="34" y="390.0" transform="rotate(-90 34 390.0)" text-anchor="middle" font-family="Arial" font-size="20" fill="black">U:0 [SI]</text>
<polyline points="190.69,552.15 193.64,545.75 196.58,539.35 199.53,532.96 202.47,526.56 205.42,520.17 208.36,513.77 211.31,504.55 214.25,495.33 217.20,486.11 220.14,476.89 223.09,467.68 226.03,458.46 228.98,454.16 231.92,449.87 234.87,445.57 237.82,441.28 240.76,436.98 243.71,432.69 246.65,430.46 249.60,428.23 252.54,426.00 255.49,423.78 258.43,421.55 261.38,419.32 264.33,418.32 267.27,417.32 270.22,416.32 273.16,415.32 276.11,414.32 279.05,413.32 282.00,413.28 284.94,413.24 287.89,413.20 290.83,413.16 293.78,413.12 296.72,413.08 299.67,413.93 302.61,414.77 305.56,415.61 308.51,416.46 311.45,417.30 314.40,418.15 317.34,419.82 320.29,421.49 323.23,423.16 326.18,424.83 329.12,426.50 332.07,428.17 335.01,430.39 337.96,432.61 340.91,434.83 343.85,437.05 346.80,439.27 349.74,441.49 352.69,443.32 355.63,445.14 358.58,446.97 361.52,448.79 364.47,450.62 367.41,452.44 370.37,452.32 373.30,452.20 376.25,452.08 379.20,451.96 382.13,451.84 385.09,451.71 388.04,448.56 390.97,445.41 393.92,442.26 396.87,439.11 399.81,435.95 402.76,432.80 405.71,426.85 408.64,420.90 411.59,414.96 414.55,409.01 417.48,403.06 420.43,397.11 423.38,389.90 426.32,382.68 429.27,375.46 432.22,368.24 435.15,361.03 438.10,353.81 441.05,347.75 443.99,341.69 446.94,335.63 449.89,329.56 452.82,323.50 455.78,317.44 458.73,314.66 461.66,311.88 464.61,309.10 467.56,306.32 470.50,303.54 473.45,300.76 476.40,302.22 479.33,303.69 482.28,305.15 485.24,306.62 488.17,308.08 491.12,309.55 494.07,315.14 497.01,320.72 499.96,326.31 502.91,331.90 505.84,337.49 508.79,343.08 511.74,351.63 514.68,360.17 517.63,368.71 520.58,377.25 523.51,385.80 526.47,394.34 529.42,403.87 532.35,413.41 535.30,422.95 538.25,432.48 541.19,442.02 544.14,451.56 547.09,459.94 550.02,468.32 552.97,476.70 555.93,485.08 558.86,493.47 561.81,501.85 564.76,507.41 567.70,512.97 570.65,518.52 573.60,524.08 576.53,529.64 579.48,535.20 582.43,538.38 585.37,541.56 588.32,544.74 591.27,547.92 594.20,551.10 597.16,554.28 600.11,557.37 603.04,560.46 605.99,563.55 608.94,566.64 611.88,569.72 614.83,572.82 617.78,576.67 620.71,580.52 623.66,584.38 626.62,588.23 629.55,592.09 632.50,595.94 635.45,600.02 638.38,604.09 641.34,608.17 644.29,612.24 647.22,616.31 650.17,620.39 653.12,624.00 656.06,627.61 659.01,631.23 661.96,634.84 664.89,638.45 667.84,642.07 670.80,644.51 673.73,646.95 676.68,649.39 679.63,651.83 682.57,654.27 685.52,656.71 688.47,657.52 691.40,658.33 694.35,659.13 697.30,659.94 700.24,660.74 703.19,661.55 706.14,660.27 709.07,658.99 712.03,657.70 714.98,656.42 717.91,655.13 720.86,653.85 723.81,650.66 726.75,647.48 729.70,644.30 732.65,641.11 735.58,637.93 738.53,634.74 741.49,630.14 744.42,625.54 747.37,620.95 750.32,616.35 753.26,611.75 756.21,607.15 759.16,601.41 762.09,595.67 765.04,589.93 767.99,584.19 770.93,578.45 773.88,572.71 776.83,566.25 779.76,559.79 782.72,553.34 785.67,546.88 788.60,540.42 791.55,533.96 794.50,527.09 797.44,520.22 800.39,513.35 803.34,506.48 806.27,499.60 809.22,492.73 812.18,485.39 815.11,478.04 818.06,470.69 821.01,463.34 823.95,456.00 826.90,448.65 829.85,440.79 832.78,432.93 835.73,425.07 838.68,417.20 841.62,409.34 844.57,401.48 847.52,394.08 850.45,386.68 853.41,379.29 856.36,371.88 859.29,364.49 862.24,357.09 865.19,352.25 868.13,347.41 871.08,342.57 874.03,337.74 876.96,332.90 879.91,328.06 882.87,327.70 885.80,327.33 888.75,326.97 891.70,326.61 894.63,326.24 897.59,325.88 900.54,329.49 903.47,333.09 906.42,336.70 909.37,340.31 912.31,343.91 915.26,347.52 918.21,351.78 921.14,356.03 924.09,360.29 927.05,364.54 929.98,368.79 932.93,373.05 935.88,374.70 938.82,376.34 941.77,377.98 944.72,379.63 947.65,381.27 950.60,382.92 953.55,380.70 956.49,378.49 959.44,376.27 962.39,374.05 965.32,371.84 968.28,369.62 971.23,363.97 974.16,358.32 977.11,352.66 980.06,347.01 983.00,341.36 985.95,335.71 988.90,327.90 991.83,320.09 994.78,312.28 997.74,304.47 1000.67,296.67 1003.62,288.86 1006.57,280.12 1009.51,271.39 1012.46,262.65 1015.41,253.92 1018.34,245.18 1021.29,236.45 1024.24,227.68 1027.18,218.92 1030.13,210.16 1033.08,201.41 1036.01,192.65 1038.97,183.89 1041.92,176.29 1044.85,168.69 1047.80,161.10 1050.75,153.48 1053.69,145.89 1056.64,138.29 1059.59,134.98 1062.52,131.67 1065.47,128.36 1068.43,125.05 1071.36,121.76 1074.31,118.45" fill="none" stroke="#000000" stroke-width="3"/>
<line x1="142" y1="100" x2="178" y2="100" stroke="#000000" stroke-width="4"/>
<text x="188" y="105" font-family="Arial" font-size="18" fill="black">U:0</text>
</svg>