<svg xmlns="http://www.w3.org/2000/svg" width="1200" height="820" viewBox="0 0 1200 820">
<rect width="100%" height="100%" fill="white"/>
<text x="600.0" y="36" text-anchor="middle" font-family="Arial" font-size="24" fill="black">profile_center_z: p_rgh</text>
<line x1="120.00" y1="75" x2="120.00" y2="705" stroke="#dddddd" stroke-width="1"/>
<text x="120.00" y="737" text-anchor="middle" font-family="Arial" font-size="16" fill="black">-0.240</text>
<line x1="376.25" y1="75" x2="376.25" y2="705" stroke="#dddddd" stroke-width="1"/>
<text x="376.25" y="737" text-anchor="middle" font-family="Arial" font-size="16" fill="black">0.630</text>
<line x1="632.50" y1="75" x2="632.50" y2="705" stroke="#dddddd" stroke-width="1"/>
<text x="632.50" y="737" text-anchor="middle" font-family="Arial" font-size="16" fill="black">1.500</text>
<line x1="888.75" y1="75" x2="888.75" y2="705" stroke="#dddddd" stroke-width="1"/>
<text x="888.75" y="737" text-anchor="middle" font-family="Arial" font-size="16" fill="black">2.370</text>
<line x1="1145.00" y1="75" x2="1145.00" y2="705" stroke="#dddddd" stroke-width="1"/>
<text x="1145.00" y="737" text-anchor="middle" font-family="Arial" font-size="16" fill="black">3.240</text>
<line x1="120" y1="705.00" x2="1145" y2="705.00" stroke="#dddddd" stroke-width="1"/>
<text x="104" y="710.00" text-anchor="end" font-family="Arial" font-size="16" fill="black">0.181</text>
<line x1="120" y1="547.50" x2="1145" y2="547.50" stroke="#dddddd" stroke-width="1"/>
<text x="104" y="552.50" text-anchor="end" font-family="Arial" font-size="16" fill="black">0.422</text>
<line x1="120" y1="390.00" x2="1145" y2="390.00" stroke="#dddddd" stroke-width="1"/>
<text x="104" y="395.00" text-anchor="end" font-family="Arial" font-size="16" fill="black">0.664</text>
<line x1="120" y1="232.50" x2="1145" y2="232.50" stroke="#dddddd" stroke-width="1"/>
<text x="104" y="237.50" text-anchor="end" font-family="Arial" font-size="16" fill="black">0.906</text>
<line x1="120" y1="75.00" x2="1145" y2="75.00" stroke="#dddddd" stroke-width="1"/>
<text x="104" y="80.00" text-anchor="end" font-family="Arial" font-size="16" fill="black">1.147</text>
<rect x="120" y="75" width="1025" height="630" fill="none" stroke="black" stroke-width="2"/>
<text x="632.5" y="785" text-anchor="middle" font-family="Arial" font-size="20" fill="black">z coordinate [m]</text>
<text x="34" y="390.0" transform="rotate(-90 34 390.0)" text-anchor="middle" font-family="Arial" font-size="20" fill="black">p_rgh [Pa]</text>
<polyline points="190.69,443.70 193.64,443.40 196.58,443.10 199.53,442.80 202.47,442.51 205.42,442.21 208.36,441.91 211.31,441.61 214.25,441.31 217.20,441.01 220.14,440.71 223.09,439.85 226.03,438.98 228.98,438.11 231.93,437.25 234.87,436.39 237.82,435.52 240.76,434.65 243.71,433.79 246.65,432.92 249.60,432.05 252.54,430.83 255.49,429.61 258.43,428.40 261.38,427.18 264.32,425.96 267.27,424.75 270.22,423.53 273.16,422.31 276.11,421.10 279.05,419.88 282.00,418.52 284.94,417.15 287.89,415.79 290.83,414.43 293.78,413.07 296.72,411.70 299.67,410.34 302.61,408.98 305.56,407.62 308.51,406.26 311.45,404.68 314.40,403.11 317.34,401.55 320.29,399.98 323.23,398.41 326.18,396.84 329.12,395.27 332.07,393.71 335.01,392.14 337.96,390.57 340.91,388.64 343.85,386.72 346.80,384.80 349.74,382.88 352.69,380.95 355.63,379.03 358.58,377.11 361.52,375.18 364.47,373.26 367.41,371.33 370.36,368.92 373.30,366.51 376.25,364.10 379.20,361.68 382.14,359.27 385.09,356.86 388.03,354.45 390.98,352.03 393.92,349.62 396.87,347.21 399.81,344.21 402.76,341.22 405.70,338.23 408.65,335.24 411.59,332.25 414.54,329.26 417.49,326.27 420.43,323.28 423.38,320.29 426.32,317.30 429.27,313.70 432.21,310.11 435.16,306.53 438.10,302.94 441.05,299.35 443.99,295.76 446.94,292.17 449.89,288.59 452.83,284.99 455.78,281.41 458.72,277.30 461.67,273.18 464.61,269.07 467.56,264.96 470.50,260.85 473.45,256.74 476.39,252.63 479.34,248.51 482.28,244.40 485.23,240.30 488.18,235.89 491.12,231.48 494.07,227.07 497.01,222.67 499.96,218.26 502.90,213.85 505.85,209.45 508.79,205.04 511.74,200.64 514.68,196.23 517.63,191.94 520.57,187.66 523.52,183.37 526.47,179.09 529.41,174.81 532.36,170.52 535.30,166.22 538.25,161.92 541.19,157.68 544.14,153.38 547.08,149.86 550.03,146.41 552.97,142.89 555.92,139.44 558.86,135.92 561.81,132.46 564.76,128.94 567.70,125.42 570.65,121.97 573.59,118.45 576.54,119.82 579.48,121.12 582.43,122.42 585.37,123.79 588.32,125.10 591.26,126.40 594.21,127.70 597.16,129.07 600.10,130.38 603.05,131.68 605.99,142.37 608.94,152.99 611.88,163.68 614.83,174.34 617.77,185.01 620.72,195.67 623.66,206.33 626.61,216.99 629.55,227.65 632.50,238.31 635.45,250.33 638.39,262.35 641.34,274.37 644.28,286.39 647.23,298.40 650.17,310.42 653.12,322.44 656.06,334.46 659.01,346.48 661.95,358.49 664.90,364.57 667.84,370.66 670.79,376.74 673.74,382.82 676.68,388.90 679.63,394.98 682.57,401.06 685.52,407.15 688.46,413.23 691.41,419.31 694.35,422.57 697.30,425.83 700.24,429.09 703.19,432.35 706.14,435.60 709.08,438.86 712.03,442.12 714.97,445.38 717.92,448.64 720.86,451.90 723.81,454.15 726.75,456.40 729.70,458.66 732.64,460.91 735.59,463.15 738.53,465.41 741.48,467.66 744.43,469.91 747.37,472.16 750.32,474.42 753.26,476.05 756.21,477.69 759.15,479.32 762.10,480.96 765.04,482.60 767.99,484.23 770.93,485.87 773.88,487.50 776.82,489.14 779.77,490.78 782.72,491.96 785.66,493.15 788.61,494.34 791.55,495.53 794.50,496.71 797.44,497.91 800.39,499.09 803.33,500.28 806.28,501.47 809.22,502.66 812.17,503.70 815.11,504.74 818.06,505.78 821.01,506.82 823.95,507.87 826.90,508.91 829.84,509.94 832.79,510.99 835.73,512.03 838.68,513.07 841.62,514.26 844.57,515.45 847.51,516.63 850.46,517.82 853.41,519.00 856.35,520.20 859.30,521.38 862.24,522.57 865.19,523.76 868.13,524.94 871.08,526.34 874.02,527.74 876.97,529.14 879.91,530.54 882.86,531.94 885.80,533.34 888.75,534.74 891.70,536.14 894.64,537.53 897.59,538.94 900.53,540.54 903.48,542.14 906.42,543.75 909.37,545.34 912.31,546.95 915.26,548.55 918.20,550.15 921.15,551.76 924.09,553.36 927.04,554.96 929.99,556.82 932.93,558.68 935.88,560.53 938.82,562.39 941.77,564.25 944.71,566.11 947.66,567.96 950.60,569.82 953.55,571.68 956.49,573.54 959.44,575.69 962.39,577.85 965.33,580.00 968.28,582.15 971.22,584.30 974.17,586.45 977.11,588.60 980.06,590.75 983.00,592.91 985.95,595.06 988.89,597.52 991.84,599.99 994.78,602.46 997.73,604.93 1000.68,607.39 1003.62,609.86 1006.57,612.32 1009.51,614.79 1012.46,617.26 1015.40,619.73 1018.35,622.48 1021.29,625.23 1024.24,627.98 1027.18,630.73 1030.13,633.48 1033.07,636.23 1036.02,638.98 1038.97,641.73 1041.91,644.48 1044.86,647.23 1047.80,648.67 1050.75,650.10 1053.69,651.53 1056.64,652.96 1059.58,654.40 1062.53,655.82 1065.47,657.26 1068.42,658.69 1071.36,660.12 1074.31,661.55" fill="none" stroke="#000000" stroke-width="3"/>
<line x1="142" y1="100" x2="178" y2="100" stroke="#000000" stroke-width="4"/>
<text x="188" y="105" font-family="Arial" font-size="18" fill="black">p_rgh</text>
</svg>