<svg xmlns="http://www.w3.org/2000/svg" width="1200" height="820" viewBox="0 0 1200 820">
<rect width="100%" height="100%" fill="white"/>
<text x="600.0" y="36" text-anchor="middle" font-family="Arial" font-size="24" fill="black">profile_near_floor_x: U:1</text>
<line x1="120.00" y1="75" x2="120.00" y2="705" stroke="#dddddd" stroke-width="1"/>
<text x="120.00" y="737" text-anchor="middle" font-family="Arial" font-size="16" fill="black">-0.560</text>
<line x1="376.25" y1="75" x2="376.25" y2="705" stroke="#dddddd" stroke-width="1"/>
<text x="376.25" y="737" text-anchor="middle" font-family="Arial" font-size="16" fill="black">1.470</text>
<line x1="632.50" y1="75" x2="632.50" y2="705" stroke="#dddddd" stroke-width="1"/>
<text x="632.50" y="737" text-anchor="middle" font-family="Arial" font-size="16" fill="black">3.500</text>
<line x1="888.75" y1="75" x2="888.75" y2="705" stroke="#dddddd" stroke-width="1"/>
<text x="888.75" y="737" text-anchor="middle" font-family="Arial" font-size="16" fill="black">5.530</text>
<line x1="1145.00" y1="75" x2="1145.00" y2="705" stroke="#dddddd" stroke-width="1"/>
<text x="1145.00" y="737" text-anchor="middle" font-family="Arial" font-size="16" fill="black">7.560</text>
<line x1="120" y1="705.00" x2="1145" y2="705.00" stroke="#dddddd" stroke-width="1"/>
<text x="104" y="710.00" text-anchor="end" font-family="Arial" font-size="16" fill="black">0.010</text>
<line x1="120" y1="547.50" x2="1145" y2="547.50" stroke="#dddddd" stroke-width="1"/>
<text x="104" y="552.50" text-anchor="end" font-family="Arial" font-size="16" fill="black">0.057</text>
<line x1="120" y1="390.00" x2="1145" y2="390.00" stroke="#dddddd" stroke-width="1"/>
<text x="104" y="395.00" text-anchor="end" font-family="Arial" font-size="16" fill="black">0.105</text>
<line x1="120" y1="232.50" x2="1145" y2="232.50" stroke="#dddddd" stroke-width="1"/>
<text x="104" y="237.50" text-anchor="end" font-family="Arial" font-size="16" fill="black">0.153</text>
<line x1="120" y1="75.00" x2="1145" y2="75.00" stroke="#dddddd" stroke-width="1"/>
<text x="104" y="80.00" text-anchor="end" font-family="Arial" font-size="16" fill="black">0.200</text>
<rect x="120" y="75" width="1025" height="630" fill="none" stroke="black" stroke-width="2"/>
<text x="632.5" y="785" text-anchor="middle" font-family="Arial" font-size="20" fill="black">x coordinate [m]</text>
<text x="34" y="390.0" transform="rotate(-90 34 390.0)" text-anchor="middle" font-family="Arial" font-size="20" fill="black">U:1 [SI]</text>
<polyline points="190.69,133.79 193.64,145.17 196.58,156.54 199.53,167.92 202.47,179.29 205.42,193.25 208.36,208.23 211.31,223.24 214.25,238.25 217.20,248.60 220.14,252.80 223.09,256.97 226.03,261.17 228.98,264.64 231.93,263.74 234.87,262.85 237.82,261.99 240.76,261.10 243.71,257.23 246.65,252.83 249.60,248.47 252.54,244.10 255.49,238.45 258.43,231.87 261.38,225.32 264.32,218.74 267.27,211.93 270.22,204.52 273.16,197.15 276.11,189.74 279.05,182.33 282.00,174.73 284.94,167.09 287.89,159.45 290.83,151.81 293.78,143.65 296.72,135.25 299.67,126.85 302.62,118.45 305.56,138.12 308.51,195.23 311.45,252.37 314.40,309.51 317.34,367.51 320.29,430.72 323.23,493.94 326.17,557.17 329.13,620.39 332.07,630.89 335.01,632.59 337.96,634.29 340.91,635.99 343.85,636.27 346.80,635.46 349.74,634.66 352.68,633.85 355.64,632.79 358.58,631.06 361.52,629.34 364.47,627.61 367.41,625.89 370.35,625.47 373.31,625.05 376.25,624.62 379.19,624.20 382.15,626.31 385.09,629.42 388.03,632.54 390.98,635.66 393.92,640.02 396.86,646.03 399.82,652.05 402.76,658.06 405.70,661.55 408.65,649.89 411.59,638.23 414.54,626.57 417.49,614.91 420.43,604.03 423.37,593.29 426.33,582.55 429.27,571.80 432.21,570.10 435.16,575.18 438.10,580.26 441.04,585.35 444.00,588.65 446.94,587.50 449.88,586.35 452.83,585.21 455.78,584.06 458.72,578.34 461.67,572.62 464.61,566.90 467.55,561.19 470.51,553.92 473.45,546.02 476.39,538.13 479.34,530.24 482.28,522.06 485.23,513.52 488.18,504.97 491.12,496.42 494.06,487.88 497.02,479.36 499.96,470.84 502.90,462.33 505.85,453.81 508.79,446.40 511.73,439.17 514.69,431.94 517.63,424.71 520.57,418.45 523.52,412.91 526.47,407.38 529.41,401.83 532.36,396.71 535.30,392.54 538.24,388.37 541.20,384.24 544.14,380.07 547.08,376.97 550.03,373.89 552.97,370.82 555.92,367.71 558.87,364.43 561.81,361.06 564.75,357.69 567.71,354.28 570.65,365.72 573.59,396.94 576.54,428.13 579.48,459.32 582.42,490.92 585.38,524.92 588.32,558.93 591.26,592.93 594.21,626.94 597.16,631.58 600.10,631.33 603.05,631.08 605.99,630.82 608.93,630.03 611.89,628.83 614.83,627.63 617.77,626.43 620.72,625.80 623.66,626.60 626.60,627.40 629.56,628.20 632.50,628.99 635.44,630.41 638.40,631.82 641.34,633.23 644.28,634.65 647.23,635.06 650.17,635.07 653.11,635.07 656.07,635.08 659.01,634.10 661.95,631.80 664.90,629.49 667.84,627.19 670.79,617.16 673.74,560.72 676.68,504.28 679.62,447.85 682.58,391.42 685.52,341.42 688.46,292.51 691.41,243.61 694.35,194.70 697.29,181.28 700.25,194.47 703.19,207.66 706.13,220.86 709.08,234.55 712.03,249.53 714.97,264.51 717.92,279.48 720.86,294.46 723.80,308.09 726.76,321.71 729.70,335.34 732.64,348.96 735.59,359.44 738.53,368.67 741.48,377.93 744.43,387.15 747.37,393.73 750.31,396.71 753.27,399.72 756.21,402.73 759.15,405.11 762.10,403.92 765.04,402.69 767.98,401.47 770.94,400.25 773.88,397.80 776.82,395.15 779.77,392.51 782.72,389.86 785.66,386.52 788.61,382.72 791.55,378.92 794.49,375.08 797.45,370.88 800.39,365.62 803.33,360.37 806.28,355.11 809.22,349.85 812.17,342.61 815.12,335.37 818.06,328.13 821.00,320.92 823.96,311.96 826.90,302.30 829.84,292.65 832.79,282.99 835.73,293.31 838.67,330.21 841.63,367.11 844.57,404.02 847.51,442.02 850.46,486.69 853.41,531.36 856.35,576.04 859.30,620.71 862.24,629.25 865.18,631.76 868.14,634.27 871.08,636.78 874.02,638.09 876.97,638.48 879.91,638.87 882.85,639.27 885.81,639.77 888.75,640.52 891.69,641.28 894.65,642.04 897.59,642.79 900.53,643.74 903.48,644.68 906.42,645.62 909.36,646.57 912.32,646.92 915.26,647.03 918.20,647.14 921.15,647.26 924.09,646.42 927.04,644.31 929.99,642.20 932.93,640.09 935.87,631.87 938.83,587.01 941.77,542.15 944.71,497.28 947.66,452.42 950.60,414.92 953.54,378.65 956.50,342.38 959.44,306.10 962.38,299.76 965.33,315.83 968.28,331.90 971.22,347.97 974.17,365.39 977.11,386.23 980.05,407.05 983.01,427.88 985.95,448.71 988.89,469.98 991.84,491.25 994.78,512.52 997.73,533.79 1000.68,551.07 1003.62,566.77 1006.56,582.46 1009.52,598.16 1012.46,609.79 1015.40,616.00 1018.35,622.22 1021.29,628.43 1024.23,633.19 1027.19,629.27 1030.13,625.35 1033.07,621.42 1036.02,617.50 1038.97,605.91 1041.91,593.05 1044.86,580.19 1047.80,567.32 1050.74,550.92 1053.70,531.86 1056.64,512.80 1059.58,493.74 1062.53,477.15 1065.47,466.74 1068.42,456.33 1071.37,445.92 1074.31,435.52" fill="none" stroke="#000000" stroke-width="3"/>
<line x1="142" y1="100" x2="178" y2="100" stroke="#000000" stroke-width="4"/>
<text x="188" y="105" font-family="Arial" font-size="18" fill="black">U:1</text>
</svg>