<svg xmlns="http://www.w3.org/2000/svg" width="1200" height="820" viewBox="0 0 1200 820">
<rect width="100%" height="100%" fill="white"/>
<text x="600.0" y="36" text-anchor="middle" font-family="Arial" font-size="24" fill="black">profile_near_ceiling_x: p_rgh</text>
<line x1="120.00" y1="75" x2="120.00" y2="705" stroke="#dddddd" stroke-width="1"/>
<text x="120.00" y="737" text-anchor="middle" font-family="Arial" font-size="16" fill="black">-0.560</text>
<line x1="376.25" y1="75" x2="376.25" y2="705" stroke="#dddddd" stroke-width="1"/>
<text x="376.25" y="737" text-anchor="middle" font-family="Arial" font-size="16" fill="black">1.470</text>
<line x1="632.50" y1="75" x2="632.50" y2="705" stroke="#dddddd" stroke-width="1"/>
<text x="632.50" y="737" text-anchor="middle" font-family="Arial" font-size="16" fill="black">3.500</text>
<line x1="888.75" y1="75" x2="888.75" y2="705" stroke="#dddddd" stroke-width="1"/>
<text x="888.75" y="737" text-anchor="middle" font-family="Arial" font-size="16" fill="black">5.530</text>
<line x1="1145.00" y1="75" x2="1145.00" y2="705" stroke="#dddddd" stroke-width="1"/>
<text x="1145.00" y="737" text-anchor="middle" font-family="Arial" font-size="16" fill="black">7.560</text>
<line x1="120" y1="705.00" x2="1145" y2="705.00" stroke="#dddddd" stroke-width="1"/>
<text x="104" y="710.00" text-anchor="end" font-family="Arial" font-size="16" fill="black">0.217</text>
<line x1="120" y1="547.50" x2="1145" y2="547.50" stroke="#dddddd" stroke-width="1"/>
<text x="104" y="552.50" text-anchor="end" font-family="Arial" font-size="16" fill="black">0.283</text>
<line x1="120" y1="390.00" x2="1145" y2="390.00" stroke="#dddddd" stroke-width="1"/>
<text x="104" y="395.00" text-anchor="end" font-family="Arial" font-size="16" fill="black">0.349</text>
<line x1="120" y1="232.50" x2="1145" y2="232.50" stroke="#dddddd" stroke-width="1"/>
<text x="104" y="237.50" text-anchor="end" font-family="Arial" font-size="16" fill="black">0.415</text>
<line x1="120" y1="75.00" x2="1145" y2="75.00" stroke="#dddddd" stroke-width="1"/>
<text x="104" y="80.00" text-anchor="end" font-family="Arial" font-size="16" fill="black">0.481</text>
<rect x="120" y="75" width="1025" height="630" fill="none" stroke="black" stroke-width="2"/>
<text x="632.5" y="785" text-anchor="middle" font-family="Arial" font-size="20" fill="black">x coordinate [m]</text>
<text x="34" y="390.0" transform="rotate(-90 34 390.0)" text-anchor="middle" font-family="Arial" font-size="20" fill="black">p_rgh [Pa]</text>
<polyline points="190.69,427.03 193.64,414.79 196.58,402.55 199.53,390.31 202.47,378.07 205.42,359.38 208.36,338.10 211.31,316.81 214.25,295.55 217.20,277.01 220.14,262.15 223.09,247.26 226.03,232.37 228.98,218.22 231.93,208.53 234.87,198.84 237.82,189.15 240.76,179.46 243.71,172.42 246.65,165.84 249.60,159.25 252.54,152.67 255.49,147.25 258.43,142.72 261.38,138.21 264.32,133.70 267.27,129.74 270.22,127.23 273.16,124.70 276.11,122.19 279.05,119.67 282.00,119.38 284.94,119.07 287.89,118.76 290.83,118.45 293.78,119.98 296.72,122.24 299.67,124.51 302.62,126.78 305.56,130.24 308.51,135.29 311.45,140.38 314.40,145.46 317.34,150.90 320.29,158.66 323.23,166.41 326.17,174.17 329.13,181.92 332.07,191.39 335.01,201.15 337.96,210.91 340.91,220.67 343.85,230.89 346.80,241.41 349.74,251.93 352.68,262.46 355.64,272.91 358.58,283.10 361.52,293.31 364.47,303.50 367.41,313.71 370.35,322.99 373.31,332.28 376.25,341.56 379.19,350.87 382.15,358.65 385.09,365.83 388.03,373.01 390.98,380.19 393.92,386.02 396.86,389.95 399.82,393.91 402.76,397.87 405.70,401.41 408.65,402.41 411.59,403.43 414.54,404.44 417.49,405.46 420.43,405.30 423.37,404.91 426.33,404.56 429.27,404.17 432.21,403.86 435.16,403.55 438.10,403.27 441.04,402.96 444.00,402.98 446.94,403.77 449.88,404.56 452.83,405.34 455.78,406.13 458.72,409.95 461.67,413.79 464.61,417.63 467.55,421.47 470.51,427.61 473.45,434.67 476.39,441.73 479.34,448.80 482.28,455.93 485.23,463.16 488.18,470.37 491.12,477.60 494.06,484.47 497.02,489.22 499.96,493.97 502.90,498.74 505.85,503.49 508.79,507.23 511.73,510.84 514.69,514.44 517.63,518.02 520.57,521.86 523.52,525.85 526.47,529.86 529.41,533.87 532.36,537.61 535.30,540.74 538.24,543.86 541.20,546.99 544.14,550.12 547.08,551.88 550.03,553.62 552.97,555.39 555.92,557.13 558.87,558.35 561.81,559.33 564.75,560.28 567.71,561.26 570.65,562.02 573.59,562.48 576.54,562.93 579.48,563.38 582.42,563.72 585.38,563.26 588.32,562.83 591.26,562.40 594.21,561.95 597.16,560.61 600.10,559.14 603.05,557.63 605.99,556.15 608.93,554.15 611.89,551.79 614.83,549.42 617.77,547.04 620.72,544.39 623.66,541.05 626.60,537.68 629.56,534.32 632.50,530.98 635.44,526.66 638.40,522.32 641.34,518.00 644.28,513.65 647.23,508.91 650.17,503.99 653.11,499.07 656.07,494.16 659.01,489.31 661.95,484.52 664.90,479.72 667.84,474.93 670.79,470.27 673.74,466.43 676.68,462.56 679.62,458.72 682.58,454.88 685.52,452.21 688.46,449.73 691.41,447.25 694.35,444.76 697.29,442.90 700.25,441.49 703.19,440.09 706.13,438.68 709.08,437.61 712.03,437.37 714.97,437.13 717.92,436.87 720.86,436.63 723.80,438.44 726.76,440.28 729.70,442.09 732.64,443.90 735.59,447.05 738.53,450.73 741.48,454.40 744.43,458.05 747.37,461.97 750.31,466.17 753.27,470.39 756.21,474.59 759.15,478.67 762.10,481.99 765.04,485.31 767.98,488.60 770.94,491.92 773.88,493.82 776.82,495.52 779.77,497.19 782.72,498.88 785.66,499.89 788.61,500.36 791.55,500.86 794.49,501.34 797.45,501.75 800.39,501.96 803.33,502.18 806.28,502.39 809.22,502.63 812.17,504.42 815.12,506.21 818.06,508.00 821.00,509.81 823.96,513.73 826.90,518.47 829.84,523.25 832.79,528.02 835.73,533.79 838.67,540.95 841.63,548.11 844.57,555.25 847.51,562.48 850.46,570.21 853.41,577.91 856.35,585.62 859.30,593.35 862.24,600.23 865.18,606.98 868.14,613.71 871.08,620.46 874.02,626.26 876.97,631.39 879.91,636.50 882.85,641.63 885.81,646.11 888.75,649.10 891.69,652.08 894.65,655.06 897.59,658.04 900.53,658.93 903.48,659.79 906.42,660.67 909.36,661.55 912.32,661.46 915.26,660.98 918.20,660.48 921.15,660.00 924.09,659.02 927.04,657.35 929.99,655.68 932.93,654.01 935.87,652.13 938.83,648.95 941.77,645.78 944.71,642.61 947.66,639.43 950.60,635.14 953.54,630.63 956.50,626.14 959.44,621.63 962.38,616.67 965.33,611.32 968.28,606.00 971.22,600.68 974.17,595.19 977.11,589.32 980.05,583.43 983.01,577.56 985.95,571.69 988.89,565.22 991.84,558.75 994.78,552.29 997.73,545.82 1000.68,538.80 1003.62,531.60 1006.56,524.37 1009.52,517.16 1012.46,509.69 1015.40,501.89 1018.35,494.09 1021.29,486.28 1024.23,478.43 1027.19,470.27 1030.13,462.09 1033.07,453.90 1036.02,445.72 1038.97,437.32 1041.91,428.87 1044.86,420.40 1047.80,411.95 1050.74,402.46 1053.70,392.17 1056.64,381.91 1059.58,371.63 1062.53,362.58 1065.47,356.59 1068.42,350.58 1071.37,344.59 1074.31,338.58" fill="none" stroke="#000000" stroke-width="3"/>
<line x1="142" y1="100" x2="178" y2="100" stroke="#000000" stroke-width="4"/>
<text x="188" y="105" font-family="Arial" font-size="18" fill="black">p_rgh</text>
</svg>