<svg xmlns="http://www.w3.org/2000/svg" width="1200" height="820" viewBox="0 0 1200 820">
<rect width="100%" height="100%" fill="white"/>
<text x="600.0" y="36" text-anchor="middle" font-family="Arial" font-size="24" fill="black">profile_near_ceiling_x: rho</text>
<line x1="120.00" y1="75" x2="120.00" y2="705" stroke="#dddddd" stroke-width="1"/>
<text x="120.00" y="737" text-anchor="middle" font-family="Arial" font-size="16" fill="black">-0.560</text>
<line x1="376.25" y1="75" x2="376.25" y2="705" stroke="#dddddd" stroke-width="1"/>
<text x="376.25" y="737" text-anchor="middle" font-family="Arial" font-size="16" fill="black">1.470</text>
<line x1="632.50" y1="75" x2="632.50" y2="705" stroke="#dddddd" stroke-width="1"/>
<text x="632.50" y="737" text-anchor="middle" font-family="Arial" font-size="16" fill="black">3.500</text>
<line x1="888.75" y1="75" x2="888.75" y2="705" stroke="#dddddd" stroke-width="1"/>
<text x="888.75" y="737" text-anchor="middle" font-family="Arial" font-size="16" fill="black">5.530</text>
<line x1="1145.00" y1="75" x2="1145.00" y2="705" stroke="#dddddd" stroke-width="1"/>
<text x="1145.00" y="737" text-anchor="middle" font-family="Arial" font-size="16" fill="black">7.560</text>
<line x1="120" y1="705.00" x2="1145" y2="705.00" stroke="#dddddd" stroke-width="1"/>
<text x="104" y="710.00" text-anchor="end" font-family="Arial" font-size="16" fill="black">1.176</text>
<line x1="120" y1="547.50" x2="1145" y2="547.50" stroke="#dddddd" stroke-width="1"/>
<text x="104" y="552.50" text-anchor="end" font-family="Arial" font-size="16" fill="black">1.179</text>
<line x1="120" y1="390.00" x2="1145" y2="390.00" stroke="#dddddd" stroke-width="1"/>
<text x="104" y="395.00" text-anchor="end" font-family="Arial" font-size="16" fill="black">1.182</text>
<line x1="120" y1="232.50" x2="1145" y2="232.50" stroke="#dddddd" stroke-width="1"/>
<text x="104" y="237.50" text-anchor="end" font-family="Arial" font-size="16" fill="black">1.185</text>
<line x1="120" y1="75.00" x2="1145" y2="75.00" stroke="#dddddd" stroke-width="1"/>
<text x="104" y="80.00" text-anchor="end" font-family="Arial" font-size="16" fill="black">1.188</text>
<rect x="120" y="75" width="1025" height="630" fill="none" stroke="black" stroke-width="2"/>
<text x="632.5" y="785" text-anchor="middle" font-family="Arial" font-size="20" fill="black">x coordinate [m]</text>
<text x="34" y="390.0" transform="rotate(-90 34 390.0)" text-anchor="middle" font-family="Arial" font-size="20" fill="black">rho [kg/m3]</text>
<polyline points="190.69,382.53 193.64,372.56 196.58,362.60 199.53,352.63 202.47,342.67 205.42,327.72 208.36,307.79 211.31,292.84 214.25,272.91 217.20,257.96 220.14,248.00 223.09,233.05 226.03,223.08 228.98,213.12 231.93,203.15 234.87,193.19 237.82,188.20 240.76,178.24 243.71,173.26 246.65,163.29 249.60,158.31 252.54,153.33 255.49,148.34 258.43,143.36 261.38,138.38 264.32,133.40 267.27,128.41 270.22,128.41 273.16,123.43 276.11,123.43 279.05,118.45 282.00,118.45 284.94,118.45 287.89,118.45 290.83,118.45 293.78,118.45 296.72,118.45 299.67,123.43 302.62,123.43 305.56,128.41 308.51,133.40 311.45,138.38 314.40,143.36 317.34,148.34 320.29,153.33 323.23,163.29 326.17,168.27 329.13,178.24 332.07,188.20 335.01,198.17 337.96,203.15 340.91,213.12 343.85,223.08 346.80,233.05 349.74,243.01 352.68,252.98 355.64,262.94 358.58,272.91 361.52,282.87 364.47,292.84 367.41,302.80 370.35,307.79 373.31,317.75 376.25,322.73 379.19,332.70 382.15,337.68 385.09,342.67 388.03,347.65 390.98,352.63 393.92,357.61 396.86,362.60 399.82,362.60 402.76,367.58 405.70,367.58 408.65,367.58 411.59,372.56 414.54,372.56 417.49,372.56 420.43,372.56 423.37,377.54 426.33,377.54 429.27,377.54 432.21,377.54 435.16,377.54 438.10,382.53 441.04,382.53 444.00,382.53 446.94,387.51 449.88,387.51 452.83,387.51 455.78,392.49 458.72,392.49 461.67,392.49 464.61,392.49 467.55,397.47 470.51,397.47 473.45,397.47 476.39,402.46 479.34,402.46 482.28,402.46 485.23,407.44 488.18,407.44 491.12,407.44 494.06,407.44 497.02,407.44 499.96,407.44 502.90,407.44 505.85,407.44 508.79,407.44 511.73,407.44 514.69,407.44 517.63,407.44 520.57,407.44 523.52,407.44 526.47,407.44 529.41,407.44 532.36,407.44 535.30,407.44 538.24,407.44 541.20,407.44 544.14,407.44 547.08,407.44 550.03,412.42 552.97,412.42 555.92,412.42 558.87,412.42 561.81,412.42 564.75,412.42 567.71,412.42 570.65,412.42 573.59,412.42 576.54,412.42 579.48,412.42 582.42,412.42 585.38,412.42 588.32,417.40 591.26,417.40 594.21,417.40 597.16,417.40 600.10,417.40 603.05,417.40 605.99,417.40 608.93,417.40 611.89,422.39 614.83,422.39 617.77,422.39 620.72,422.39 623.66,422.39 626.60,422.39 629.56,422.39 632.50,422.39 635.44,422.39 638.40,427.37 641.34,427.37 644.28,427.37 647.23,427.37 650.17,427.37 653.11,427.37 656.07,432.35 659.01,432.35 661.95,432.35 664.90,437.33 667.84,437.33 670.79,437.33 673.74,442.32 676.68,442.32 679.62,447.30 682.58,447.30 685.52,452.28 688.46,457.27 691.41,462.25 694.35,462.25 697.29,467.23 700.25,472.21 703.19,472.21 706.13,477.20 709.08,482.18 712.03,487.16 714.97,487.16 717.92,492.14 720.86,492.14 723.80,497.13 726.76,502.11 729.70,502.11 732.64,507.09 735.59,512.07 738.53,512.07 741.48,517.06 744.43,522.04 747.37,527.02 750.31,527.02 753.27,532.00 756.21,536.99 759.15,541.97 762.10,541.97 765.04,546.95 767.98,546.95 770.94,551.93 773.88,551.93 776.82,556.92 779.77,556.92 782.72,561.90 785.66,561.90 788.61,561.90 791.55,561.90 794.49,561.90 797.45,566.88 800.39,566.88 803.33,566.88 806.28,566.88 809.22,566.88 812.17,566.88 815.12,571.86 818.06,571.86 821.00,571.86 823.96,576.85 826.90,581.83 829.84,586.81 832.79,586.81 835.73,591.80 838.67,596.78 841.63,601.76 844.57,606.74 847.51,611.73 850.46,616.71 853.41,621.69 856.35,626.67 859.30,631.66 862.24,636.64 865.18,641.62 868.14,646.60 871.08,651.59 874.02,651.59 876.97,656.57 879.91,656.57 882.85,661.55 885.81,661.55 888.75,661.55 891.69,661.55 894.65,661.55 897.59,661.55 900.53,661.55 903.48,661.55 906.42,656.57 909.36,656.57 912.32,651.59 915.26,651.59 918.20,646.60 921.15,646.60 924.09,641.62 927.04,636.64 929.99,631.66 932.93,631.66 935.87,626.67 938.83,621.69 941.77,616.71 944.71,611.73 947.66,606.74 950.60,601.76 953.54,596.78 956.50,591.80 959.44,586.81 962.38,581.83 965.33,576.85 968.28,571.86 971.22,566.88 974.17,561.90 977.11,556.92 980.05,551.93 983.01,546.95 985.95,541.97 988.89,536.99 991.84,527.02 994.78,522.04 997.73,517.06 1000.68,512.07 1003.62,507.09 1006.56,502.11 1009.52,497.13 1012.46,497.13 1015.40,492.14 1018.35,487.16 1021.29,482.18 1024.23,477.20 1027.19,472.21 1030.13,472.21 1033.07,467.23 1036.02,462.25 1038.97,457.27 1041.91,457.27 1044.86,452.28 1047.80,447.30 1050.74,447.30 1053.70,442.32 1056.64,437.33 1059.58,432.35 1062.53,427.37 1065.47,427.37 1068.42,422.39 1071.37,422.39 1074.31,417.40" fill="none" stroke="#000000" stroke-width="3"/>
<line x1="142" y1="100" x2="178" y2="100" stroke="#000000" stroke-width="4"/>
<text x="188" y="105" font-family="Arial" font-size="18" fill="black">rho</text>
</svg>