<svg xmlns="http://www.w3.org/2000/svg" width="1200" height="820" viewBox="0 0 1200 820">
<rect width="100%" height="100%" fill="white"/>
<text x="600.0" y="36" text-anchor="middle" font-family="Arial" font-size="24" fill="black">profile_rack_height_x: vorticity:1</text>
<line x1="120.00" y1="75" x2="120.00" y2="705" stroke="#dddddd" stroke-width="1"/>
<text x="120.00" y="737" text-anchor="middle" font-family="Arial" font-size="16" fill="black">-0.560</text>
<line x1="376.25" y1="75" x2="376.25" y2="705" stroke="#dddddd" stroke-width="1"/>
<text x="376.25" y="737" text-anchor="middle" font-family="Arial" font-size="16" fill="black">1.470</text>
<line x1="632.50" y1="75" x2="632.50" y2="705" stroke="#dddddd" stroke-width="1"/>
<text x="632.50" y="737" text-anchor="middle" font-family="Arial" font-size="16" fill="black">3.500</text>
<line x1="888.75" y1="75" x2="888.75" y2="705" stroke="#dddddd" stroke-width="1"/>
<text x="888.75" y="737" text-anchor="middle" font-family="Arial" font-size="16" fill="black">5.530</text>
<line x1="1145.00" y1="75" x2="1145.00" y2="705" stroke="#dddddd" stroke-width="1"/>
<text x="1145.00" y="737" text-anchor="middle" font-family="Arial" font-size="16" fill="black">7.560</text>
<line x1="120" y1="705.00" x2="1145" y2="705.00" stroke="#dddddd" stroke-width="1"/>
<text x="104" y="710.00" text-anchor="end" font-family="Arial" font-size="16" fill="black">-3.743</text>
<line x1="120" y1="547.50" x2="1145" y2="547.50" stroke="#dddddd" stroke-width="1"/>
<text x="104" y="552.50" text-anchor="end" font-family="Arial" font-size="16" fill="black">-2.075</text>
<line x1="120" y1="390.00" x2="1145" y2="390.00" stroke="#dddddd" stroke-width="1"/>
<text x="104" y="395.00" text-anchor="end" font-family="Arial" font-size="16" fill="black">-0.407</text>
<line x1="120" y1="232.50" x2="1145" y2="232.50" stroke="#dddddd" stroke-width="1"/>
<text x="104" y="237.50" text-anchor="end" font-family="Arial" font-size="16" fill="black">1.260</text>
<line x1="120" y1="75.00" x2="1145" y2="75.00" stroke="#dddddd" stroke-width="1"/>
<text x="104" y="80.00" text-anchor="end" font-family="Arial" font-size="16" fill="black">2.928</text>
<rect x="120" y="75" width="1025" height="630" fill="none" stroke="black" stroke-width="2"/>
<text x="632.5" y="785" text-anchor="middle" font-family="Arial" font-size="20" fill="black">x coordinate [m]</text>
<text x="34" y="390.0" transform="rotate(-90 34 390.0)" text-anchor="middle" font-family="Arial" font-size="20" fill="black">vorticity:1 [SI]</text>
<polyline points="190.69,118.45 193.64,145.48 196.58,172.52 199.53,199.55 202.47,226.59 205.42,252.39 208.36,277.70 211.31,303.01 214.25,328.32 217.20,340.61 220.14,335.53 223.09,330.46 226.03,325.38 228.98,320.26 231.93,314.90 234.87,309.53 237.82,304.16 240.76,298.79 243.71,297.37 246.65,296.60 249.60,295.83 252.54,295.06 255.49,297.92 258.43,303.50 261.38,309.09 264.32,314.67 267.27,321.82 270.22,332.90 273.16,343.98 276.11,355.06 279.05,366.14 282.00,380.95 284.94,395.75 287.89,410.55 290.83,425.35 293.78,438.58 296.72,451.19 299.67,463.80 302.62,476.42 305.56,483.72 308.51,483.96 311.45,484.21 314.40,484.44 317.34,482.86 320.29,470.28 323.23,457.70 326.17,445.12 329.13,432.54 332.07,419.93 335.01,407.30 337.96,394.68 340.91,382.06 343.85,373.78 346.80,368.75 349.74,363.73 352.68,358.70 355.64,354.54 358.58,352.52 361.52,350.51 364.47,348.49 367.41,346.48 370.35,338.74 373.31,331.00 376.25,323.26 379.19,315.52 382.15,302.04 385.09,286.27 388.03,270.50 390.98,254.74 393.92,240.02 396.86,226.71 399.82,213.41 402.76,200.10 405.70,188.60 408.65,187.91 411.59,187.23 414.54,186.54 417.49,185.85 420.43,193.41 423.37,202.34 426.33,211.26 429.27,220.19 432.21,229.62 435.16,239.42 438.10,249.22 441.04,259.02 444.00,267.61 446.94,273.16 449.88,278.72 452.83,284.27 455.78,289.82 458.72,291.59 461.67,293.36 464.61,295.13 467.55,296.90 470.51,298.82 473.45,300.79 476.39,302.75 479.34,304.72 482.28,307.91 485.23,312.71 488.18,317.52 491.12,322.32 494.06,327.31 497.02,333.43 499.96,339.54 502.90,345.65 505.85,351.76 508.79,356.73 511.73,361.51 514.69,366.28 517.63,371.06 520.57,374.60 523.52,377.23 526.47,379.85 529.41,382.47 532.36,384.67 535.30,385.80 538.24,386.93 541.20,388.07 544.14,389.20 547.08,389.91 550.03,390.62 552.97,391.33 555.92,392.03 558.87,393.14 561.81,394.42 564.75,395.69 567.71,396.96 570.65,398.89 573.59,401.70 576.54,404.51 579.48,407.31 582.42,410.21 585.38,413.60 588.32,417.00 591.26,420.39 594.21,423.79 597.16,424.43 600.10,424.61 603.05,424.80 605.99,424.99 608.93,423.31 611.89,420.24 614.83,417.18 617.77,414.11 620.72,411.39 623.66,409.56 626.60,407.72 629.56,405.88 632.50,404.05 635.44,403.61 638.40,403.18 641.34,402.75 644.28,402.31 647.23,400.54 650.17,398.22 653.11,395.91 656.07,393.59 659.01,391.32 661.95,389.08 664.90,386.85 667.84,384.62 670.79,382.90 673.74,384.27 676.68,385.63 679.62,386.98 682.58,388.35 685.52,390.88 688.46,393.61 691.41,396.35 694.35,399.08 697.29,400.94 700.25,402.15 703.19,403.35 706.13,404.56 709.08,405.16 712.03,404.22 714.97,403.29 717.92,402.36 720.86,401.43 723.80,398.34 726.76,395.26 729.70,392.18 732.64,389.09 735.59,385.16 738.53,380.88 741.48,376.60 744.43,372.33 747.37,368.09 750.31,363.92 753.27,359.74 756.21,355.56 759.15,351.47 762.10,347.88 765.04,344.28 767.98,340.69 770.94,337.10 773.88,334.03 776.82,331.05 779.77,328.07 782.72,325.09 785.66,322.57 788.61,320.40 791.55,318.23 794.49,316.06 797.45,314.17 800.39,312.99 803.33,311.81 806.28,310.64 809.22,309.46 812.17,309.31 815.12,309.17 818.06,309.03 821.00,308.88 823.96,309.46 826.90,310.33 829.84,311.21 832.79,312.08 835.73,313.41 838.67,315.37 841.63,317.32 844.57,319.28 847.51,321.31 850.46,323.83 853.41,326.34 856.35,328.85 859.30,331.37 862.24,333.76 865.18,336.13 868.14,338.50 871.08,340.87 874.02,343.34 876.97,345.86 879.91,348.39 882.85,350.92 885.81,353.48 888.75,356.14 891.69,358.79 894.65,361.44 897.59,364.09 900.53,366.33 903.48,368.57 906.42,370.81 909.36,373.04 912.32,374.51 915.26,375.66 918.20,376.81 921.15,377.96 924.09,378.75 927.04,379.04 929.99,379.33 932.93,379.62 935.87,379.88 938.83,379.93 941.77,379.99 944.71,380.04 947.66,380.10 950.60,379.73 953.54,379.30 956.50,378.86 959.44,378.43 962.38,377.71 965.33,376.78 968.28,375.84 971.22,374.91 974.17,373.91 977.11,372.76 980.05,371.61 983.01,370.46 985.95,369.31 988.89,368.25 991.84,367.19 994.78,366.13 997.73,365.07 1000.68,363.99 1003.62,362.91 1006.56,361.82 1009.52,360.74 1012.46,359.54 1015.40,358.20 1018.35,356.85 1021.29,355.51 1024.23,354.14 1027.19,352.62 1030.13,351.10 1033.07,349.58 1036.02,348.06 1038.97,346.65 1041.91,345.26 1044.86,343.87 1047.80,342.48 1050.74,363.02 1053.70,400.01 1056.64,437.00 1059.58,473.99 1062.53,511.16 1065.47,548.76 1068.42,586.36 1071.37,623.95 1074.31,661.55" fill="none" stroke="#000000" stroke-width="3"/>
<line x1="142" y1="100" x2="178" y2="100" stroke="#000000" stroke-width="4"/>
<text x="188" y="105" font-family="Arial" font-size="18" fill="black">vorticity:1</text>
</svg>