<svg xmlns="http://www.w3.org/2000/svg" width="1200" height="820" viewBox="0 0 1200 820">
<rect width="100%" height="100%" fill="white"/>
<text x="600.0" y="36" text-anchor="middle" font-family="Arial" font-size="24" fill="black">profile_center_z: vorticity:2</text>
<line x1="120.00" y1="75" x2="120.00" y2="705" stroke="#dddddd" stroke-width="1"/>
<text x="120.00" y="737" text-anchor="middle" font-family="Arial" font-size="16" fill="black">-0.240</text>
<line x1="376.25" y1="75" x2="376.25" y2="705" stroke="#dddddd" stroke-width="1"/>
<text x="376.25" y="737" text-anchor="middle" font-family="Arial" font-size="16" fill="black">0.630</text>
<line x1="632.50" y1="75" x2="632.50" y2="705" stroke="#dddddd" stroke-width="1"/>
<text x="632.50" y="737" text-anchor="middle" font-family="Arial" font-size="16" fill="black">1.500</text>
<line x1="888.75" y1="75" x2="888.75" y2="705" stroke="#dddddd" stroke-width="1"/>
<text x="888.75" y="737" text-anchor="middle" font-family="Arial" font-size="16" fill="black">2.370</text>
<line x1="1145.00" y1="75" x2="1145.00" y2="705" stroke="#dddddd" stroke-width="1"/>
<text x="1145.00" y="737" text-anchor="middle" font-family="Arial" font-size="16" fill="black">3.240</text>
<line x1="120" y1="705.00" x2="1145" y2="705.00" stroke="#dddddd" stroke-width="1"/>
<text x="104" y="710.00" text-anchor="end" font-family="Arial" font-size="16" fill="black">-0.142</text>
<line x1="120" y1="547.50" x2="1145" y2="547.50" stroke="#dddddd" stroke-width="1"/>
<text x="104" y="552.50" text-anchor="end" font-family="Arial" font-size="16" fill="black">-0.052</text>
<line x1="120" y1="390.00" x2="1145" y2="390.00" stroke="#dddddd" stroke-width="1"/>
<text x="104" y="395.00" text-anchor="end" font-family="Arial" font-size="16" fill="black">0.037</text>
<line x1="120" y1="232.50" x2="1145" y2="232.50" stroke="#dddddd" stroke-width="1"/>
<text x="104" y="237.50" text-anchor="end" font-family="Arial" font-size="16" fill="black">0.126</text>
<line x1="120" y1="75.00" x2="1145" y2="75.00" stroke="#dddddd" stroke-width="1"/>
<text x="104" y="80.00" text-anchor="end" font-family="Arial" font-size="16" fill="black">0.216</text>
<rect x="120" y="75" width="1025" height="630" fill="none" stroke="black" stroke-width="2"/>
<text x="632.5" y="785" text-anchor="middle" font-family="Arial" font-size="20" fill="black">z coordinate [m]</text>
<text x="34" y="390.0" transform="rotate(-90 34 390.0)" text-anchor="middle" font-family="Arial" font-size="20" fill="black">vorticity:2 [SI]</text>
<polyline points="190.69,455.34 193.64,455.36 196.58,455.38 199.53,455.41 202.47,455.43 205.42,455.46 208.36,455.48 211.31,455.50 214.25,455.53 217.20,455.55 220.14,455.58 223.09,455.63 226.03,455.68 228.98,455.74 231.93,455.79 234.87,455.84 237.82,455.90 240.76,455.95 243.71,456.00 246.65,456.06 249.60,456.11 252.54,456.17 255.49,456.23 258.43,456.29 261.38,456.35 264.32,456.41 267.27,456.47 270.22,456.53 273.16,456.59 276.11,456.65 279.05,456.70 282.00,456.75 284.94,456.79 287.89,456.83 290.83,456.87 293.78,456.91 296.72,456.95 299.67,456.99 302.61,457.04 305.56,457.08 308.51,457.12 311.45,457.11 314.40,457.10 317.34,457.09 320.29,457.09 323.23,457.08 326.18,457.07 329.12,457.06 332.07,457.06 335.01,457.05 337.96,457.04 340.91,456.98 343.85,456.91 346.80,456.85 349.74,456.79 352.69,456.72 355.63,456.66 358.58,456.60 361.52,456.53 364.47,456.47 367.41,456.41 370.36,456.31 373.30,456.22 376.25,456.13 379.20,456.04 382.14,455.94 385.09,455.85 388.03,455.76 390.98,455.66 393.92,455.57 396.87,455.48 399.81,455.38 402.76,455.28 405.70,455.19 408.65,455.09 411.59,454.99 414.54,454.90 417.49,454.80 420.43,454.70 423.38,454.61 426.32,454.51 429.27,454.40 432.21,454.30 435.16,454.19 438.10,454.08 441.05,453.97 443.99,453.87 446.94,453.76 449.89,453.65 452.83,453.55 455.78,453.44 458.72,453.26 461.67,453.08 464.61,452.91 467.56,452.73 470.50,452.55 473.45,452.37 476.39,452.20 479.34,452.02 482.28,451.84 485.23,451.66 488.18,451.57 491.12,451.48 494.07,451.39 497.01,451.30 499.96,451.21 502.90,451.11 505.85,451.02 508.79,450.93 511.74,450.84 514.68,450.75 517.63,451.07 520.57,451.38 523.52,451.70 526.47,452.02 529.41,452.34 532.36,452.66 535.30,452.98 538.25,453.29 541.19,453.61 544.14,453.93 547.08,454.82 550.03,455.72 552.97,456.61 555.92,457.51 558.86,458.40 561.81,459.30 564.76,460.19 567.70,461.08 570.65,461.98 573.59,462.87 576.54,464.52 579.48,466.18 582.43,467.83 585.37,469.48 588.32,471.13 591.26,472.78 594.21,474.44 597.16,476.09 600.10,477.74 603.05,479.39 605.99,477.30 608.94,475.21 611.88,473.12 614.83,471.03 617.77,468.94 620.72,466.85 623.66,464.76 626.61,462.67 629.55,460.58 632.50,458.49 635.45,451.09 638.39,443.70 641.34,436.30 644.28,428.91 647.23,421.51 650.17,414.12 653.12,406.72 656.06,399.33 659.01,391.93 661.95,384.54 664.90,376.63 667.84,368.72 670.79,360.81 673.74,352.90 676.68,344.99 679.63,337.08 682.57,329.17 685.52,321.26 688.46,313.35 691.41,305.44 694.35,298.80 697.30,292.16 700.24,285.52 703.19,278.89 706.14,272.26 709.08,265.61 712.03,258.98 714.97,252.33 717.92,245.70 720.86,239.06 723.81,233.57 726.75,228.09 729.70,222.59 732.64,217.10 735.59,211.60 738.53,206.12 741.48,200.62 744.43,195.13 747.37,189.63 750.32,184.15 753.26,179.95 756.21,175.75 759.15,171.58 762.10,167.38 765.04,163.18 767.99,158.99 770.93,154.79 773.88,150.59 776.82,146.41 779.77,142.22 782.72,139.87 785.66,137.51 788.61,135.16 791.55,132.82 794.50,130.47 797.44,128.11 800.39,125.77 803.33,123.42 806.28,121.08 809.22,118.71 812.17,118.70 815.11,118.66 818.06,118.64 821.01,118.61 823.95,118.59 826.90,118.55 829.84,118.54 832.79,118.50 835.73,118.47 838.68,118.45 841.62,121.32 844.57,124.21 847.51,127.09 850.46,129.98 853.41,132.85 856.35,135.75 859.30,138.62 862.24,141.49 865.19,144.39 868.13,147.26 871.08,153.59 874.02,159.92 876.97,166.25 879.91,172.56 882.86,178.89 885.80,185.22 888.75,191.55 891.70,197.88 894.64,204.20 897.59,210.53 900.53,220.70 903.48,230.87 906.42,241.05 909.37,251.22 912.31,261.41 915.26,271.59 918.20,281.76 921.15,291.93 924.09,302.11 927.04,312.28 929.99,325.27 932.93,338.26 935.88,351.25 938.82,364.25 941.77,377.24 944.71,390.23 947.66,403.22 950.60,416.21 953.55,429.20 956.49,442.19 959.44,454.46 962.39,466.73 965.33,478.99 968.28,491.26 971.22,503.53 974.17,515.80 977.11,528.06 980.06,540.33 983.00,552.60 985.95,564.87 988.89,572.85 991.84,580.84 994.78,588.82 997.73,596.81 1000.68,604.79 1003.62,612.78 1006.57,620.76 1009.51,628.75 1012.46,636.74 1015.40,644.71 1018.35,646.41 1021.29,648.08 1024.24,649.77 1027.18,651.45 1030.13,653.14 1033.07,654.82 1036.02,656.51 1038.97,658.18 1041.91,659.88 1044.86,661.55 1047.80,660.62 1050.75,659.70 1053.69,658.77 1056.64,657.83 1059.58,656.90 1062.53,655.98 1065.47,655.05 1068.42,654.11 1071.36,653.18 1074.31,652.26" fill="none" stroke="#000000" stroke-width="3"/>
<line x1="142" y1="100" x2="178" y2="100" stroke="#000000" stroke-width="4"/>
<text x="188" y="105" font-family="Arial" font-size="18" fill="black">vorticity:2</text>
</svg>