<svg xmlns="http://www.w3.org/2000/svg" width="1200" height="820" viewBox="0 0 1200 820">
<rect width="100%" height="100%" fill="white"/>
<text x="600.0" y="36" text-anchor="middle" font-family="Arial" font-size="24" fill="black">profile_near_floor_x: Q</text>
<line x1="120.00" y1="75" x2="120.00" y2="705" stroke="#dddddd" stroke-width="1"/>
<text x="120.00" y="737" text-anchor="middle" font-family="Arial" font-size="16" fill="black">-0.560</text>
<line x1="376.25" y1="75" x2="376.25" y2="705" stroke="#dddddd" stroke-width="1"/>
<text x="376.25" y="737" text-anchor="middle" font-family="Arial" font-size="16" fill="black">1.470</text>
<line x1="632.50" y1="75" x2="632.50" y2="705" stroke="#dddddd" stroke-width="1"/>
<text x="632.50" y="737" text-anchor="middle" font-family="Arial" font-size="16" fill="black">3.500</text>
<line x1="888.75" y1="75" x2="888.75" y2="705" stroke="#dddddd" stroke-width="1"/>
<text x="888.75" y="737" text-anchor="middle" font-family="Arial" font-size="16" fill="black">5.530</text>
<line x1="1145.00" y1="75" x2="1145.00" y2="705" stroke="#dddddd" stroke-width="1"/>
<text x="1145.00" y="737" text-anchor="middle" font-family="Arial" font-size="16" fill="black">7.560</text>
<line x1="120" y1="705.00" x2="1145" y2="705.00" stroke="#dddddd" stroke-width="1"/>
<text x="104" y="710.00" text-anchor="end" font-family="Arial" font-size="16" fill="black">-0.979</text>
<line x1="120" y1="547.50" x2="1145" y2="547.50" stroke="#dddddd" stroke-width="1"/>
<text x="104" y="552.50" text-anchor="end" font-family="Arial" font-size="16" fill="black">-0.598</text>
<line x1="120" y1="390.00" x2="1145" y2="390.00" stroke="#dddddd" stroke-width="1"/>
<text x="104" y="395.00" text-anchor="end" font-family="Arial" font-size="16" fill="black">-0.216</text>
<line x1="120" y1="232.50" x2="1145" y2="232.50" stroke="#dddddd" stroke-width="1"/>
<text x="104" y="237.50" text-anchor="end" font-family="Arial" font-size="16" fill="black">0.165</text>
<line x1="120" y1="75.00" x2="1145" y2="75.00" stroke="#dddddd" stroke-width="1"/>
<text x="104" y="80.00" text-anchor="end" font-family="Arial" font-size="16" fill="black">0.547</text>
<rect x="120" y="75" width="1025" height="630" fill="none" stroke="black" stroke-width="2"/>
<text x="632.5" y="785" text-anchor="middle" font-family="Arial" font-size="20" fill="black">x coordinate [m]</text>
<text x="34" y="390.0" transform="rotate(-90 34 390.0)" text-anchor="middle" font-family="Arial" font-size="20" fill="black">Q [SI]</text>
<polyline points="190.69,312.11 193.64,310.10 196.58,308.08 199.53,306.06 202.47,304.05 205.42,304.63 208.36,306.26 211.31,307.89 214.25,309.51 217.20,313.32 220.14,320.05 223.09,326.78 226.03,333.51 228.98,339.95 231.93,344.70 234.87,349.45 237.82,354.20 240.76,358.95 243.71,361.50 246.65,363.69 249.60,365.88 252.54,368.07 255.49,368.67 258.43,368.07 261.38,367.47 264.32,366.87 267.27,366.02 270.22,364.56 273.16,363.09 276.11,361.62 279.05,360.15 282.00,358.49 284.94,356.82 287.89,355.16 290.83,353.50 293.78,361.54 296.72,373.48 299.67,385.42 302.62,397.35 305.56,402.09 308.51,397.24 311.45,392.38 314.40,387.53 317.34,380.95 320.29,363.97 323.23,346.99 326.17,330.01 329.13,313.02 332.07,311.50 335.01,312.56 337.96,313.61 340.91,314.67 343.85,315.31 346.80,315.65 349.74,315.99 352.68,316.32 355.64,316.93 358.58,318.21 361.52,319.50 364.47,320.79 367.41,322.07 370.35,324.95 373.31,327.83 376.25,330.70 379.19,333.58 382.15,336.70 385.09,339.91 388.03,343.12 390.98,346.34 393.92,351.39 396.86,358.89 399.82,366.40 402.76,373.90 405.70,386.17 408.65,427.05 411.59,467.93 414.54,508.81 417.49,549.69 420.43,552.48 423.37,548.93 426.33,545.38 429.27,541.82 432.21,521.04 435.16,487.33 438.10,453.62 441.04,419.90 444.00,398.77 446.94,409.09 449.88,419.41 452.83,429.72 455.78,440.04 458.72,450.78 461.67,461.53 464.61,472.27 467.55,483.02 470.51,493.78 473.45,504.54 476.39,515.31 479.34,526.07 482.28,537.61 485.23,550.18 488.18,562.75 491.12,575.31 494.06,587.95 497.02,601.02 499.96,614.09 502.90,627.15 505.85,640.22 508.79,646.41 511.73,651.46 514.69,656.51 517.63,661.55 520.57,652.87 523.52,633.90 526.47,614.93 529.41,595.96 532.36,570.73 535.30,529.85 538.24,488.97 541.20,448.09 544.14,407.20 547.08,378.10 550.03,349.01 552.97,319.91 555.92,290.81 558.87,325.56 561.81,385.84 564.75,446.12 567.71,506.40 570.65,549.93 573.59,571.12 576.54,592.32 579.48,613.52 582.42,623.28 585.38,564.44 588.32,505.61 591.26,446.78 594.21,387.95 597.16,369.63 600.10,358.06 603.05,346.50 605.99,334.94 608.93,329.83 611.89,329.56 614.83,329.29 617.77,329.03 620.72,327.84 623.66,324.36 626.60,320.87 629.56,317.39 632.50,313.90 635.44,313.26 638.40,312.61 641.34,311.96 644.28,311.32 647.23,311.08 650.17,311.00 653.11,310.92 656.07,310.84 659.01,310.58 661.95,310.06 664.90,309.55 667.84,309.03 670.79,312.49 673.74,339.78 676.68,367.07 679.62,394.35 682.58,421.64 685.52,420.04 688.46,413.63 691.41,407.22 694.35,400.81 697.29,380.99 700.25,351.13 703.19,321.26 706.13,291.40 709.08,276.22 712.03,297.75 714.97,319.28 717.92,340.80 720.86,362.33 723.80,394.43 726.76,426.52 729.70,458.62 732.64,490.72 735.59,511.39 738.53,527.49 741.48,543.60 744.43,559.71 747.37,566.62 750.31,561.30 753.27,555.96 756.21,550.63 759.15,543.73 762.10,527.40 765.04,511.07 767.98,494.73 770.94,478.40 773.88,459.67 776.82,440.52 779.77,421.39 782.72,402.25 785.66,383.56 788.61,365.21 791.55,346.86 794.49,328.52 797.45,311.97 800.39,299.92 803.33,287.87 806.28,275.82 809.22,263.77 812.17,271.47 815.12,279.16 818.06,286.86 821.00,294.56 823.96,336.11 826.90,391.18 829.84,446.26 832.79,501.34 835.73,532.25 838.67,530.93 841.63,529.61 844.57,528.28 847.51,520.40 850.46,473.12 853.41,425.84 856.35,378.55 859.30,331.27 862.24,324.09 865.18,323.59 868.14,323.09 871.08,322.59 874.02,322.30 876.97,322.17 879.91,322.03 882.85,321.90 885.81,321.19 888.75,319.06 891.69,316.93 894.65,314.80 897.59,312.67 900.53,312.34 903.48,312.01 906.42,311.68 909.36,311.35 912.32,311.16 915.26,311.03 918.20,310.90 921.15,310.77 924.09,311.54 927.04,313.51 929.99,315.47 932.93,317.44 935.87,324.12 938.83,359.07 941.77,394.02 944.71,428.96 947.66,463.91 950.60,462.35 953.54,454.72 956.50,447.08 959.44,439.44 962.38,417.08 965.33,383.68 968.28,350.27 971.22,316.86 974.17,303.37 977.11,339.68 980.05,375.98 983.01,412.28 985.95,448.59 988.89,493.26 991.84,537.94 994.78,582.62 997.73,627.30 1000.68,641.23 1003.62,642.85 1006.56,644.48 1009.52,646.11 1012.46,626.85 1015.40,579.74 1018.35,532.64 1021.29,485.53 1024.23,437.19 1027.19,381.44 1030.13,325.69 1033.07,269.95 1036.02,214.20 1038.97,186.73 1041.91,163.97 1044.86,141.21 1047.80,118.45 1050.74,139.54 1053.70,193.53 1056.64,247.52 1059.58,301.50 1062.53,355.65 1065.47,410.19 1068.42,464.73 1071.37,519.27 1074.31,573.81" fill="none" stroke="#000000" stroke-width="3"/>
<line x1="142" y1="100" x2="178" y2="100" stroke="#000000" stroke-width="4"/>
<text x="188" y="105" font-family="Arial" font-size="18" fill="black">Q</text>
</svg>