<svg xmlns="http://www.w3.org/2000/svg" width="1200" height="820" viewBox="0 0 1200 820">
<rect width="100%" height="100%" fill="white"/>
<text x="600.0" y="36" text-anchor="middle" font-family="Arial" font-size="24" fill="black">profile_near_ceiling_x: nut</text>
<line x1="120.00" y1="75" x2="120.00" y2="705" stroke="#dddddd" stroke-width="1"/>
<text x="120.00" y="737" text-anchor="middle" font-family="Arial" font-size="16" fill="black">-0.560</text>
<line x1="376.25" y1="75" x2="376.25" y2="705" stroke="#dddddd" stroke-width="1"/>
<text x="376.25" y="737" text-anchor="middle" font-family="Arial" font-size="16" fill="black">1.470</text>
<line x1="632.50" y1="75" x2="632.50" y2="705" stroke="#dddddd" stroke-width="1"/>
<text x="632.50" y="737" text-anchor="middle" font-family="Arial" font-size="16" fill="black">3.500</text>
<line x1="888.75" y1="75" x2="888.75" y2="705" stroke="#dddddd" stroke-width="1"/>
<text x="888.75" y="737" text-anchor="middle" font-family="Arial" font-size="16" fill="black">5.530</text>
<line x1="1145.00" y1="75" x2="1145.00" y2="705" stroke="#dddddd" stroke-width="1"/>
<text x="1145.00" y="737" text-anchor="middle" font-family="Arial" font-size="16" fill="black">7.560</text>
<line x1="120" y1="705.00" x2="1145" y2="705.00" stroke="#dddddd" stroke-width="1"/>
<text x="104" y="710.00" text-anchor="end" font-family="Arial" font-size="16" fill="black">4.32e-04</text>
<line x1="120" y1="547.50" x2="1145" y2="547.50" stroke="#dddddd" stroke-width="1"/>
<text x="104" y="552.50" text-anchor="end" font-family="Arial" font-size="16" fill="black">0.001</text>
<line x1="120" y1="390.00" x2="1145" y2="390.00" stroke="#dddddd" stroke-width="1"/>
<text x="104" y="395.00" text-anchor="end" font-family="Arial" font-size="16" fill="black">0.002</text>
<line x1="120" y1="232.50" x2="1145" y2="232.50" stroke="#dddddd" stroke-width="1"/>
<text x="104" y="237.50" text-anchor="end" font-family="Arial" font-size="16" fill="black">0.003</text>
<line x1="120" y1="75.00" x2="1145" y2="75.00" stroke="#dddddd" stroke-width="1"/>
<text x="104" y="80.00" text-anchor="end" font-family="Arial" font-size="16" fill="black">0.004</text>
<rect x="120" y="75" width="1025" height="630" fill="none" stroke="black" stroke-width="2"/>
<text x="632.5" y="785" text-anchor="middle" font-family="Arial" font-size="20" fill="black">x coordinate [m]</text>
<text x="34" y="390.0" transform="rotate(-90 34 390.0)" text-anchor="middle" font-family="Arial" font-size="20" fill="black">nut [m2/s]</text>
<polyline points="190.69,661.55 193.64,658.18 196.58,654.81 199.53,651.44 202.47,648.07 205.42,641.87 208.36,634.53 211.31,627.19 214.25,619.86 217.20,611.29 220.14,601.07 223.09,590.85 226.03,580.64 228.98,570.22 231.93,558.56 234.87,546.92 237.82,535.27 240.76,523.61 243.71,513.39 246.65,503.41 249.60,493.42 252.54,483.44 255.49,474.37 258.43,466.02 261.38,457.66 264.32,449.30 267.27,441.41 270.22,434.71 273.16,428.01 276.11,421.31 279.05,414.64 282.00,409.72 284.94,404.82 287.89,399.92 290.83,395.03 293.78,391.61 296.72,388.79 299.67,385.96 302.62,383.15 305.56,381.41 308.51,381.08 311.45,380.76 314.40,380.46 317.34,380.52 320.29,382.98 323.23,385.43 326.17,387.88 329.13,390.35 332.07,394.92 335.01,399.84 337.96,404.76 340.91,409.70 343.85,415.51 346.80,421.98 349.74,428.46 352.68,434.93 355.64,441.47 358.58,448.19 361.52,454.91 364.47,461.63 367.41,468.34 370.35,474.11 373.31,479.88 376.25,485.67 379.19,491.43 382.15,495.66 385.09,499.31 388.03,502.93 390.98,506.57 393.92,509.24 396.86,510.62 399.82,512.02 402.76,513.41 405.70,514.77 408.65,515.82 411.59,516.87 414.54,517.92 417.49,518.98 420.43,520.76 423.37,522.66 426.33,524.54 429.27,526.44 432.21,527.96 435.16,529.20 438.10,530.43 441.04,531.67 444.00,531.60 446.94,528.33 449.88,525.03 452.83,521.75 455.78,518.47 458.72,507.26 461.67,496.07 464.61,484.88 467.55,473.69 470.51,458.41 473.45,441.47 476.39,424.53 479.34,407.61 482.28,390.61 485.23,373.57 488.18,356.52 491.12,339.46 494.06,322.76 497.02,308.27 499.96,293.80 502.90,279.31 505.85,264.82 508.79,252.76 511.73,241.10 514.69,229.47 517.63,217.81 520.57,207.81 523.52,199.03 526.47,190.27 529.41,181.49 532.36,173.47 535.30,167.32 538.24,161.17 541.20,155.04 544.14,148.88 547.08,144.88 550.03,140.87 552.97,136.88 555.92,132.88 558.87,130.10 561.81,127.80 564.75,125.49 567.71,123.20 570.65,121.54 573.59,120.71 576.54,119.89 579.48,119.06 582.42,118.45 585.38,119.10 588.32,119.74 591.26,120.39 594.21,121.04 597.16,123.14 600.10,125.47 603.05,127.82 605.99,130.15 608.93,133.67 611.89,138.08 614.83,142.47 617.77,146.88 620.72,151.98 623.66,158.88 626.60,165.76 629.56,172.66 632.50,179.54 635.44,189.16 638.40,198.77 641.34,208.40 644.28,218.01 647.23,229.43 650.17,241.55 653.11,253.67 656.07,265.81 659.01,278.68 661.95,292.55 664.90,306.41 667.84,320.27 670.79,334.15 673.74,348.20 676.68,362.24 679.62,376.31 682.58,390.35 685.52,402.53 688.46,414.41 691.41,426.27 694.35,438.15 697.29,447.34 700.25,454.52 703.19,461.69 706.13,468.87 709.08,474.27 712.03,475.29 714.97,476.30 717.92,477.31 720.86,478.30 723.80,473.95 726.76,469.60 729.70,465.25 732.64,460.90 735.59,454.95 738.53,448.35 741.48,441.73 744.43,435.14 747.37,428.84 750.31,422.95 753.27,417.08 756.21,411.20 759.15,405.55 762.10,401.28 765.04,396.99 767.98,392.72 770.94,388.45 773.88,385.35 776.82,382.44 779.77,379.54 782.72,376.63 785.66,374.40 788.61,372.64 791.55,370.90 794.49,369.16 797.45,367.69 800.39,366.90 803.33,366.13 806.28,365.34 809.22,364.55 812.17,364.55 815.12,364.53 818.06,364.53 821.00,364.51 823.96,364.97 826.90,365.64 829.84,366.31 832.79,366.98 835.73,367.89 838.67,369.14 841.63,370.42 844.57,371.67 847.51,372.99 850.46,374.57 853.41,376.14 856.35,377.72 859.30,379.30 862.24,380.60 865.18,381.83 868.14,383.07 871.08,384.32 874.02,384.75 876.97,384.56 879.91,384.40 882.85,384.22 885.81,383.17 888.75,379.93 891.69,376.69 894.65,373.45 897.59,370.22 900.53,362.77 903.48,355.34 906.42,347.89 909.36,340.45 912.32,330.35 915.26,319.20 918.20,308.05 921.15,296.90 924.09,284.90 927.04,271.78 929.99,258.65 932.93,245.54 935.87,232.48 938.83,219.96 941.77,207.43 944.71,194.90 947.66,182.38 950.60,172.62 953.54,163.33 956.50,154.07 959.44,144.78 962.38,138.40 965.33,134.19 968.28,129.98 971.22,125.79 974.17,123.24 977.11,124.82 980.05,126.42 983.01,128.00 985.95,129.60 988.89,136.56 991.84,143.52 994.78,150.50 997.73,157.46 1000.68,167.46 1003.62,178.67 1006.56,189.88 1009.52,201.12 1012.46,213.74 1015.40,228.25 1018.35,242.78 1021.29,257.29 1024.23,272.25 1027.19,289.69 1030.13,307.16 1033.07,324.62 1036.02,342.07 1038.97,362.93 1041.91,384.34 1044.86,405.75 1047.80,427.18 1050.74,454.70 1053.70,486.82 1056.64,518.96 1059.58,551.07 1062.53,579.77 1065.47,599.91 1068.42,620.06 1071.37,640.21 1074.31,660.35" fill="none" stroke="#000000" stroke-width="3"/>
<line x1="142" y1="100" x2="178" y2="100" stroke="#000000" stroke-width="4"/>
<text x="188" y="105" font-family="Arial" font-size="18" fill="black">nut</text>
</svg>