<svg xmlns="http://www.w3.org/2000/svg" width="1200" height="820" viewBox="0 0 1200 820">
<rect width="100%" height="100%" fill="white"/>
<text x="600.0" y="36" text-anchor="middle" font-family="Arial" font-size="24" fill="black">profile_center_x: epsilon</text>
<line x1="120.00" y1="75" x2="120.00" y2="705" stroke="#dddddd" stroke-width="1"/>
<text x="120.00" y="737" text-anchor="middle" font-family="Arial" font-size="16" fill="black">-0.560</text>
<line x1="376.25" y1="75" x2="376.25" y2="705" stroke="#dddddd" stroke-width="1"/>
<text x="376.25" y="737" text-anchor="middle" font-family="Arial" font-size="16" fill="black">1.470</text>
<line x1="632.50" y1="75" x2="632.50" y2="705" stroke="#dddddd" stroke-width="1"/>
<text x="632.50" y="737" text-anchor="middle" font-family="Arial" font-size="16" fill="black">3.500</text>
<line x1="888.75" y1="75" x2="888.75" y2="705" stroke="#dddddd" stroke-width="1"/>
<text x="888.75" y="737" text-anchor="middle" font-family="Arial" font-size="16" fill="black">5.530</text>
<line x1="1145.00" y1="75" x2="1145.00" y2="705" stroke="#dddddd" stroke-width="1"/>
<text x="1145.00" y="737" text-anchor="middle" font-family="Arial" font-size="16" fill="black">7.560</text>
<line x1="120" y1="705.00" x2="1145" y2="705.00" stroke="#dddddd" stroke-width="1"/>
<text x="104" y="710.00" text-anchor="end" font-family="Arial" font-size="16" fill="black">-3.17e-04</text>
<line x1="120" y1="547.50" x2="1145" y2="547.50" stroke="#dddddd" stroke-width="1"/>
<text x="104" y="552.50" text-anchor="end" font-family="Arial" font-size="16" fill="black">0.003</text>
<line x1="120" y1="390.00" x2="1145" y2="390.00" stroke="#dddddd" stroke-width="1"/>
<text x="104" y="395.00" text-anchor="end" font-family="Arial" font-size="16" fill="black">0.006</text>
<line x1="120" y1="232.50" x2="1145" y2="232.50" stroke="#dddddd" stroke-width="1"/>
<text x="104" y="237.50" text-anchor="end" font-family="Arial" font-size="16" fill="black">0.009</text>
<line x1="120" y1="75.00" x2="1145" y2="75.00" stroke="#dddddd" stroke-width="1"/>
<text x="104" y="80.00" text-anchor="end" font-family="Arial" font-size="16" fill="black">0.012</text>
<rect x="120" y="75" width="1025" height="630" fill="none" stroke="black" stroke-width="2"/>
<text x="632.5" y="785" text-anchor="middle" font-family="Arial" font-size="20" fill="black">x coordinate [m]</text>
<text x="34" y="390.0" transform="rotate(-90 34 390.0)" text-anchor="middle" font-family="Arial" font-size="20" fill="black">epsilon [m2/s3]</text>
<polyline points="190.69,649.74 193.64,651.06 196.58,652.39 199.53,653.71 202.47,655.04 205.42,656.51 208.36,658.06 211.31,659.60 214.25,661.14 217.20,661.55 220.14,660.46 223.09,659.38 226.03,658.29 228.98,656.65 231.93,651.70 234.87,646.75 237.82,641.79 240.76,636.84 243.71,628.71 246.65,620.04 249.60,611.38 252.54,602.72 255.49,592.85 258.43,582.10 261.38,571.34 264.32,560.59 267.27,549.56 270.22,537.88 273.16,526.20 276.11,514.53 279.05,502.84 282.00,492.21 284.94,481.58 287.89,470.94 290.83,460.31 293.78,454.02 296.72,449.46 299.67,444.90 302.62,440.35 305.56,440.64 308.51,447.41 311.45,454.18 314.40,460.94 317.34,468.75 320.29,482.78 323.23,496.82 326.17,510.86 329.13,524.89 332.07,535.21 335.01,544.90 337.96,554.59 340.91,564.28 343.85,570.10 346.80,573.02 349.74,575.93 352.68,578.84 355.64,580.95 358.58,581.01 361.52,581.07 364.47,581.13 367.41,581.19 370.35,576.40 373.31,571.60 376.25,566.81 379.19,562.02 382.15,547.97 385.09,530.22 388.03,512.46 390.98,494.71 393.92,474.56 396.86,451.23 399.82,427.90 402.76,404.57 405.70,383.19 408.65,373.53 411.59,363.86 414.54,354.20 417.49,344.53 420.43,344.09 423.37,345.18 426.33,346.27 429.27,347.37 432.21,349.09 435.16,351.28 438.10,353.48 441.04,355.68 444.00,359.17 446.94,365.94 449.88,372.70 452.83,379.46 455.78,386.22 458.72,401.86 461.67,417.50 464.61,433.15 467.55,448.78 470.51,466.49 473.45,485.03 476.39,503.57 479.34,522.10 482.28,537.74 485.23,549.51 488.18,561.27 491.12,573.04 494.06,583.65 497.02,587.33 499.96,591.00 502.90,594.68 505.85,598.35 508.79,597.97 511.73,596.92 514.69,595.86 517.63,594.81 520.57,591.85 523.52,587.46 526.47,583.07 529.41,578.68 532.36,573.22 535.30,565.08 538.24,556.94 541.20,548.80 544.14,540.67 547.08,527.88 550.03,515.08 552.97,502.29 555.92,489.51 558.87,473.06 561.81,455.14 564.75,437.23 567.71,419.32 570.65,399.50 573.59,377.15 576.54,354.81 579.48,332.46 582.42,310.15 585.38,288.07 588.32,266.00 591.26,243.93 594.21,221.86 597.16,210.32 600.10,200.53 603.05,190.75 605.99,180.94 608.93,177.97 611.89,180.13 614.83,182.29 617.77,184.41 620.72,186.50 623.66,188.45 626.60,190.40 629.56,192.36 632.50,194.31 635.44,191.11 638.40,187.90 641.34,184.71 644.28,181.49 647.23,174.39 650.17,165.69 653.11,157.04 656.07,148.38 659.01,140.74 661.95,134.55 664.90,128.36 667.84,122.17 670.79,118.45 673.74,129.82 676.68,141.14 679.62,152.51 682.58,163.83 685.52,188.01 688.46,214.33 691.41,240.65 694.35,266.97 697.29,293.30 700.25,319.62 703.19,345.94 706.13,372.26 709.08,396.64 712.03,416.18 714.97,435.71 717.92,455.24 720.86,474.77 723.80,485.79 726.76,496.81 729.70,507.82 732.64,518.84 735.59,524.91 738.53,529.00 741.48,533.10 744.43,537.19 747.37,539.14 750.31,538.23 753.27,537.33 756.21,536.42 759.15,534.98 762.10,530.33 765.04,525.68 767.98,521.04 770.94,516.39 773.88,508.61 776.82,500.31 779.77,492.02 782.72,483.71 785.66,473.26 788.61,461.20 791.55,449.13 794.49,437.07 797.45,424.19 800.39,409.27 803.33,394.36 806.28,379.44 809.22,364.53 812.17,349.23 815.12,333.93 818.06,318.62 821.00,303.32 823.96,289.79 826.90,276.97 829.84,264.16 832.79,251.34 835.73,240.37 838.67,231.89 841.63,223.40 844.57,214.92 847.51,207.34 850.46,205.18 853.41,203.02 856.35,200.87 859.30,198.71 862.24,201.57 865.18,205.27 868.14,208.97 871.08,212.67 874.02,217.37 876.97,222.81 879.91,228.26 882.85,233.71 885.81,238.85 888.75,243.26 891.69,247.66 894.65,252.06 897.59,256.46 900.53,259.18 903.48,261.90 906.42,264.62 909.36,267.34 912.32,270.57 915.26,274.00 918.20,277.42 921.15,280.84 924.09,287.71 927.04,299.18 929.99,310.64 932.93,322.11 935.87,334.73 938.83,354.25 941.77,373.77 944.71,393.29 947.66,412.81 950.60,432.20 953.54,451.56 956.50,470.92 959.44,490.28 962.38,506.81 965.33,521.21 968.28,535.61 971.22,550.01 974.17,562.67 977.11,570.97 980.05,579.29 983.01,587.59 985.95,595.90 988.89,599.59 991.84,603.27 994.78,606.96 997.73,610.65 1000.68,612.54 1003.62,613.71 1006.56,614.88 1009.52,616.05 1012.46,616.78 1015.40,616.93 1018.35,617.07 1021.29,617.22 1024.23,617.32 1027.19,617.15 1030.13,616.98 1033.07,616.81 1036.02,616.64 1038.97,616.40 1041.91,616.14 1044.86,615.89 1047.80,615.63 1050.74,614.51 1053.70,612.74 1056.64,610.97 1059.58,609.20 1062.53,607.47 1065.47,605.85 1068.42,604.22 1071.37,602.59 1074.31,600.97" fill="none" stroke="#000000" stroke-width="3"/>
<line x1="142" y1="100" x2="178" y2="100" stroke="#000000" stroke-width="4"/>
<text x="188" y="105" font-family="Arial" font-size="18" fill="black">epsilon</text>
</svg>