<svg xmlns="http://www.w3.org/2000/svg" width="1200" height="820" viewBox="0 0 1200 820">
<rect width="100%" height="100%" fill="white"/>
<text x="600.0" y="36" text-anchor="middle" font-family="Arial" font-size="24" fill="black">profile_diagonal_supply_return: U:0</text>
<line x1="120.00" y1="75" x2="120.00" y2="705" stroke="#dddddd" stroke-width="1"/>
<text x="120.00" y="737" text-anchor="middle" font-family="Arial" font-size="16" fill="black">-0.729</text>
<line x1="376.25" y1="75" x2="376.25" y2="705" stroke="#dddddd" stroke-width="1"/>
<text x="376.25" y="737" text-anchor="middle" font-family="Arial" font-size="16" fill="black">1.913</text>
<line x1="632.50" y1="75" x2="632.50" y2="705" stroke="#dddddd" stroke-width="1"/>
<text x="632.50" y="737" text-anchor="middle" font-family="Arial" font-size="16" fill="black">4.555</text>
<line x1="888.75" y1="75" x2="888.75" y2="705" stroke="#dddddd" stroke-width="1"/>
<text x="888.75" y="737" text-anchor="middle" font-family="Arial" font-size="16" fill="black">7.197</text>
<line x1="1145.00" y1="75" x2="1145.00" y2="705" stroke="#dddddd" stroke-width="1"/>
<text x="1145.00" y="737" text-anchor="middle" font-family="Arial" font-size="16" fill="black">9.839</text>
<line x1="120" y1="705.00" x2="1145" y2="705.00" stroke="#dddddd" stroke-width="1"/>
<text x="104" y="710.00" text-anchor="end" font-family="Arial" font-size="16" fill="black">-0.199</text>
<line x1="120" y1="547.50" x2="1145" y2="547.50" stroke="#dddddd" stroke-width="1"/>
<text x="104" y="552.50" text-anchor="end" font-family="Arial" font-size="16" fill="black">-0.128</text>
<line x1="120" y1="390.00" x2="1145" y2="390.00" stroke="#dddddd" stroke-width="1"/>
<text x="104" y="395.00" text-anchor="end" font-family="Arial" font-size="16" fill="black">-0.057</text>
<line x1="120" y1="232.50" x2="1145" y2="232.50" stroke="#dddddd" stroke-width="1"/>
<text x="104" y="237.50" text-anchor="end" font-family="Arial" font-size="16" fill="black">0.014</text>
<line x1="120" y1="75.00" x2="1145" y2="75.00" stroke="#dddddd" stroke-width="1"/>
<text x="104" y="80.00" text-anchor="end" font-family="Arial" font-size="16" fill="black">0.085</text>
<rect x="120" y="75" width="1025" height="630" fill="none" stroke="black" stroke-width="2"/>
<text x="632.5" y="785" text-anchor="middle" font-family="Arial" font-size="20" fill="black">distance along sample line [m]</text>
<text x="34" y="390.0" transform="rotate(-90 34 390.0)" text-anchor="middle" font-family="Arial" font-size="20" fill="black">U:0 [SI]</text>
<polyline points="190.69,406.48 193.64,418.26 196.58,430.15 199.53,442.14 202.47,454.21 205.42,475.02 208.36,499.40 211.31,522.71 214.25,545.87 217.20,566.52 220.14,583.69 223.09,600.11 226.03,616.30 228.98,625.62 231.93,628.68 234.87,631.96 237.82,635.44 240.76,639.10 243.71,641.74 246.65,638.79 249.60,636.75 252.54,634.67 255.49,633.03 258.43,632.16 261.38,632.47 264.32,628.28 267.27,624.84 270.22,621.71 273.16,620.03 276.11,619.76 279.05,620.82 282.00,614.99 284.94,610.84 287.88,608.38 290.83,607.56 293.78,605.74 296.73,604.21 299.67,599.46 302.62,596.49 305.57,593.47 308.50,589.50 311.45,587.15 314.40,586.13 317.34,582.29 320.29,576.46 323.24,572.00 326.18,568.85 329.12,566.99 332.07,562.93 335.01,556.38 337.96,551.10 340.91,547.87 343.85,543.78 346.80,538.86 349.74,534.58 352.68,528.94 355.63,523.35 358.58,515.81 361.53,508.78 364.47,502.24 367.42,496.16 370.36,486.20 373.30,476.59 376.25,467.25 379.20,458.15 382.14,447.91 385.09,436.79 388.04,423.70 390.97,410.48 393.92,397.40 396.87,384.31 399.81,371.82 402.76,358.63 405.71,344.32 408.65,331.91 411.59,318.88 414.54,305.17 417.48,290.71 420.43,277.83 423.38,264.91 426.32,251.70 429.27,239.67 432.21,227.52 435.16,215.54 438.10,203.55 441.05,192.62 444.00,181.61 446.94,170.44 449.89,159.94 452.84,150.14 455.77,141.05 458.72,135.58 461.67,130.95 464.61,127.18 467.56,124.25 470.51,121.19 473.45,118.45 476.39,119.40 479.34,121.24 482.28,123.38 485.23,125.34 488.18,129.68 491.12,134.44 494.07,142.49 497.01,149.52 499.96,156.50 502.90,163.39 505.85,170.21 508.80,175.82 511.74,182.98 514.69,189.65 517.63,196.96 520.57,204.21 523.52,211.21 526.47,217.54 529.41,225.20 532.36,233.78 535.31,245.19 538.24,256.91 541.19,269.03 544.14,281.64 547.08,303.08 550.03,325.72 552.98,349.63 555.92,374.85 558.86,402.50 561.81,432.06 564.76,465.19 567.70,499.80 570.65,533.03 573.60,563.55 576.54,592.23 579.49,621.16 582.43,642.98 585.37,647.89 588.32,652.48 591.27,656.96 594.21,661.55 597.16,649.20 600.11,628.39 603.04,607.45 605.99,584.58 608.94,560.33 611.88,535.64 614.83,512.44 617.78,489.93 620.72,470.01 623.66,453.63 626.61,438.06 629.55,423.31 632.50,409.38 635.45,402.12 638.40,396.79 641.34,393.39 644.28,391.90 647.23,392.59 650.17,395.21 653.12,399.55 656.07,405.83 659.01,415.26 661.96,427.86 664.90,434.36 667.84,442.08 670.79,451.72 673.74,466.66 676.68,481.74 679.63,496.91 682.58,512.11 685.51,530.12 688.46,546.67 691.41,562.11 694.35,572.56 697.30,583.11 700.25,593.30 703.20,602.55 706.14,608.89 709.08,614.30 712.03,618.76 714.97,622.11 717.92,624.35 720.87,625.55 723.81,622.24 726.76,618.01 729.70,612.88 732.64,606.87 735.59,600.04 738.54,592.30 741.48,581.65 744.43,570.14 747.38,558.11 750.31,545.67 753.26,532.69 756.21,519.12 759.15,503.72 762.10,489.19 765.05,474.14 767.99,458.58 770.93,442.50 773.88,427.80 776.83,412.26 779.77,396.34 782.72,381.08 785.67,366.97 788.61,353.54 791.55,339.77 794.50,326.20 797.44,313.21 800.39,301.68 803.34,289.84 806.28,277.74 809.23,265.41 812.17,258.18 815.11,250.76 818.06,243.20 821.01,235.55 823.95,229.20 826.90,222.98 829.85,218.84 832.79,214.59 835.73,211.05 838.68,208.13 841.63,206.32 844.57,204.04 847.52,204.45 850.47,206.02 853.41,206.92 856.35,207.20 859.30,206.93 862.24,208.06 865.19,211.31 868.14,213.87 871.08,217.00 874.03,221.09 876.97,225.28 879.91,228.28 882.86,233.03 885.81,237.89 888.75,243.87 891.70,248.79 894.65,252.69 897.58,255.61 900.53,262.61 903.48,268.63 906.43,273.72 909.37,277.91 912.32,282.06 915.27,285.78 918.20,291.23 921.15,296.15 924.10,300.71 927.04,305.08 929.99,307.49 932.94,309.53 935.88,312.84 938.82,315.87 941.77,318.88 944.71,321.88 947.66,324.87 950.61,327.23 953.55,330.36 956.50,333.61 959.44,335.18 962.38,336.78 965.33,338.84 968.28,341.84 971.22,346.19 974.17,351.78 977.12,359.32 980.06,368.55 983.00,379.52 985.95,392.29 988.90,410.86 991.84,432.30 994.79,456.67 997.74,484.00 1000.68,508.91 1003.62,532.96 1006.57,554.52 1009.51,576.59 1012.46,591.39 1015.41,594.65 1018.35,603.54 1021.30,608.54 1024.24,605.90 1027.18,592.19 1030.13,574.09 1033.08,551.68 1036.02,525.15 1038.97,505.76 1041.92,486.47 1044.86,465.93 1047.80,442.31 1050.75,422.00 1053.70,404.14 1056.64,385.95 1059.59,366.92 1062.54,351.04 1065.47,343.67 1068.42,336.17 1071.37,328.55 1074.31,320.81" fill="none" stroke="#000000" stroke-width="3"/>
<line x1="142" y1="100" x2="178" y2="100" stroke="#000000" stroke-width="4"/>
<text x="188" y="105" font-family="Arial" font-size="18" fill="black">U:0</text>
</svg>