<svg xmlns="http://www.w3.org/2000/svg" width="1200" height="820" viewBox="0 0 1200 820">
<rect width="100%" height="100%" fill="white"/>
<text x="600.0" y="36" text-anchor="middle" font-family="Arial" font-size="24" fill="black">profile_near_floor_x: alphat</text>
<line x1="120.00" y1="75" x2="120.00" y2="705" stroke="#dddddd" stroke-width="1"/>
<text x="120.00" y="737" text-anchor="middle" font-family="Arial" font-size="16" fill="black">-0.560</text>
<line x1="376.25" y1="75" x2="376.25" y2="705" stroke="#dddddd" stroke-width="1"/>
<text x="376.25" y="737" text-anchor="middle" font-family="Arial" font-size="16" fill="black">1.470</text>
<line x1="632.50" y1="75" x2="632.50" y2="705" stroke="#dddddd" stroke-width="1"/>
<text x="632.50" y="737" text-anchor="middle" font-family="Arial" font-size="16" fill="black">3.500</text>
<line x1="888.75" y1="75" x2="888.75" y2="705" stroke="#dddddd" stroke-width="1"/>
<text x="888.75" y="737" text-anchor="middle" font-family="Arial" font-size="16" fill="black">5.530</text>
<line x1="1145.00" y1="75" x2="1145.00" y2="705" stroke="#dddddd" stroke-width="1"/>
<text x="1145.00" y="737" text-anchor="middle" font-family="Arial" font-size="16" fill="black">7.560</text>
<line x1="120" y1="705.00" x2="1145" y2="705.00" stroke="#dddddd" stroke-width="1"/>
<text x="104" y="710.00" text-anchor="end" font-family="Arial" font-size="16" fill="black">2.49e-04</text>
<line x1="120" y1="547.50" x2="1145" y2="547.50" stroke="#dddddd" stroke-width="1"/>
<text x="104" y="552.50" text-anchor="end" font-family="Arial" font-size="16" fill="black">0.002</text>
<line x1="120" y1="390.00" x2="1145" y2="390.00" stroke="#dddddd" stroke-width="1"/>
<text x="104" y="395.00" text-anchor="end" font-family="Arial" font-size="16" fill="black">0.003</text>
<line x1="120" y1="232.50" x2="1145" y2="232.50" stroke="#dddddd" stroke-width="1"/>
<text x="104" y="237.50" text-anchor="end" font-family="Arial" font-size="16" fill="black">0.005</text>
<line x1="120" y1="75.00" x2="1145" y2="75.00" stroke="#dddddd" stroke-width="1"/>
<text x="104" y="80.00" text-anchor="end" font-family="Arial" font-size="16" fill="black">0.006</text>
<rect x="120" y="75" width="1025" height="630" fill="none" stroke="black" stroke-width="2"/>
<text x="632.5" y="785" text-anchor="middle" font-family="Arial" font-size="20" fill="black">x coordinate [m]</text>
<text x="34" y="390.0" transform="rotate(-90 34 390.0)" text-anchor="middle" font-family="Arial" font-size="20" fill="black">alphat [SI]</text>
<polyline points="190.69,661.55 193.64,643.08 196.58,624.60 199.53,606.13 202.47,587.66 205.42,563.02 208.36,535.93 211.31,508.82 214.25,481.72 217.20,460.99 220.14,448.75 223.09,436.53 226.03,424.30 228.98,413.15 231.93,408.46 234.87,403.78 237.82,399.09 240.76,394.40 243.71,392.84 246.65,391.79 249.60,390.74 252.54,389.70 255.49,389.70 258.43,390.47 261.38,391.25 264.32,392.03 267.27,393.50 270.22,396.70 273.16,399.89 276.11,403.08 279.05,406.28 282.00,415.29 284.94,424.30 287.89,433.30 290.83,442.32 293.78,456.51 296.72,472.77 299.67,489.03 302.62,505.30 305.56,522.38 308.51,540.56 311.45,558.74 314.40,576.92 317.34,593.73 320.29,602.37 323.23,610.99 326.17,619.63 329.13,628.26 332.07,629.64 335.01,629.81 337.96,629.97 340.91,630.14 343.85,630.21 346.80,630.21 349.74,630.20 352.68,630.20 355.64,630.19 358.58,630.15 361.52,630.12 364.47,630.08 367.41,630.05 370.35,629.96 373.31,629.87 376.25,629.78 379.19,629.70 382.15,629.44 385.09,629.11 388.03,628.78 390.98,628.45 393.92,627.15 396.86,624.54 399.82,621.94 402.76,619.34 405.70,613.42 408.65,587.57 411.59,561.73 414.54,535.88 417.49,510.04 420.43,473.10 423.37,434.34 426.33,395.56 429.27,356.78 432.21,327.15 435.16,304.37 438.10,281.59 441.04,258.80 444.00,239.65 446.94,229.55 449.88,219.46 452.83,209.38 455.78,199.28 458.72,196.75 461.67,194.22 464.61,191.69 467.55,189.16 470.51,189.33 473.45,190.60 476.39,191.87 479.34,193.14 482.28,195.16 485.23,198.22 488.18,201.29 491.12,204.35 494.06,207.51 497.02,211.29 499.96,215.07 502.90,218.86 505.85,222.65 508.79,225.44 511.73,228.07 514.69,230.70 517.63,233.33 520.57,234.50 523.52,234.59 526.47,234.68 529.41,234.77 532.36,234.92 535.30,235.23 538.24,235.54 541.20,235.86 544.14,236.16 547.08,242.82 550.03,249.47 552.97,256.13 555.92,262.78 558.87,280.55 561.81,302.75 564.75,324.95 567.71,347.15 570.65,375.51 573.59,412.05 576.54,448.61 579.48,485.16 582.42,519.76 585.38,542.70 588.32,565.64 591.26,588.57 594.21,611.51 597.16,617.46 600.10,620.60 603.05,623.73 605.99,626.86 608.93,628.41 611.89,628.78 614.83,629.15 617.77,629.52 620.72,629.81 623.66,629.91 626.60,630.01 629.56,630.10 632.50,630.20 635.44,630.22 638.40,630.23 641.34,630.25 644.28,630.26 647.23,630.22 650.17,630.14 653.11,630.08 656.07,630.00 659.01,629.42 661.95,628.15 664.90,626.88 667.84,625.63 670.79,621.25 673.74,598.24 676.68,575.24 679.62,552.22 682.58,529.21 685.52,492.10 688.46,452.64 691.41,413.19 694.35,373.74 697.29,341.49 700.25,314.66 703.19,287.82 706.13,260.99 709.08,237.76 712.03,223.51 714.97,209.26 717.92,195.01 720.86,180.77 723.80,173.37 726.76,165.98 729.70,158.60 732.64,151.21 735.59,145.96 738.53,141.55 741.48,137.15 744.43,132.74 747.37,129.05 750.31,126.30 753.27,123.54 756.21,120.79 759.15,118.45 762.10,118.58 765.04,118.71 767.98,118.84 770.94,118.97 773.88,121.51 776.82,124.45 779.77,127.40 782.72,130.34 785.66,135.05 788.61,141.10 791.55,147.14 794.49,153.18 797.45,160.17 800.39,169.53 803.33,178.90 806.28,188.26 809.22,197.62 812.17,212.51 815.12,227.38 818.06,242.27 821.00,257.15 823.96,280.01 826.90,306.07 829.84,332.13 832.79,358.19 835.73,388.79 838.67,425.41 841.63,462.05 844.57,498.69 847.51,533.16 850.46,554.70 853.41,576.24 856.35,597.78 859.30,619.31 862.24,623.80 865.18,625.45 868.14,627.10 871.08,628.75 874.02,629.53 876.97,629.67 879.91,629.81 882.85,629.95 885.81,630.06 888.75,630.11 891.69,630.16 894.65,630.20 897.59,630.25 900.53,630.26 903.48,630.26 906.42,630.27 909.36,630.27 912.32,630.22 915.26,630.15 918.20,630.07 921.15,630.00 924.09,629.53 927.04,628.52 929.99,627.51 932.93,626.50 935.87,623.57 938.83,609.18 941.77,594.79 944.71,580.40 947.66,566.01 950.60,542.37 953.54,517.20 956.50,492.02 959.44,466.84 962.38,447.16 965.33,431.57 968.28,415.99 971.22,400.41 974.17,388.14 977.11,384.17 980.05,380.20 983.01,376.23 985.95,372.26 988.89,372.53 991.84,372.79 994.78,373.05 997.73,373.32 1000.68,373.21 1003.62,372.95 1006.56,372.69 1009.52,372.44 1012.46,372.34 1015.40,372.48 1018.35,372.60 1021.29,372.73 1024.23,373.45 1027.19,377.74 1030.13,382.02 1033.07,386.31 1036.02,390.59 1038.97,401.18 1041.91,412.81 1044.86,424.45 1047.80,436.09 1050.74,456.39 1053.70,483.17 1056.64,509.97 1059.58,536.76 1062.53,561.23 1065.47,579.90 1068.42,598.57 1071.37,617.25 1074.31,635.92" fill="none" stroke="#000000" stroke-width="3"/>
<line x1="142" y1="100" x2="178" y2="100" stroke="#000000" stroke-width="4"/>
<text x="188" y="105" font-family="Arial" font-size="18" fill="black">alphat</text>
</svg>