<svg xmlns="http://www.w3.org/2000/svg" width="1200" height="820" viewBox="0 0 1200 820">
<rect width="100%" height="100%" fill="white"/>
<text x="600.0" y="36" text-anchor="middle" font-family="Arial" font-size="24" fill="black">profile_rack_height_x: T</text>
<line x1="120.00" y1="75" x2="120.00" y2="705" stroke="#dddddd" stroke-width="1"/>
<text x="120.00" y="737" text-anchor="middle" font-family="Arial" font-size="16" fill="black">-0.560</text>
<line x1="376.25" y1="75" x2="376.25" y2="705" stroke="#dddddd" stroke-width="1"/>
<text x="376.25" y="737" text-anchor="middle" font-family="Arial" font-size="16" fill="black">1.470</text>
<line x1="632.50" y1="75" x2="632.50" y2="705" stroke="#dddddd" stroke-width="1"/>
<text x="632.50" y="737" text-anchor="middle" font-family="Arial" font-size="16" fill="black">3.500</text>
<line x1="888.75" y1="75" x2="888.75" y2="705" stroke="#dddddd" stroke-width="1"/>
<text x="888.75" y="737" text-anchor="middle" font-family="Arial" font-size="16" fill="black">5.530</text>
<line x1="1145.00" y1="75" x2="1145.00" y2="705" stroke="#dddddd" stroke-width="1"/>
<text x="1145.00" y="737" text-anchor="middle" font-family="Arial" font-size="16" fill="black">7.560</text>
<line x1="120" y1="705.00" x2="1145" y2="705.00" stroke="#dddddd" stroke-width="1"/>
<text x="104" y="710.00" text-anchor="end" font-family="Arial" font-size="16" fill="black">289.6</text>
<line x1="120" y1="547.50" x2="1145" y2="547.50" stroke="#dddddd" stroke-width="1"/>
<text x="104" y="552.50" text-anchor="end" font-family="Arial" font-size="16" fill="black">294.6</text>
<line x1="120" y1="390.00" x2="1145" y2="390.00" stroke="#dddddd" stroke-width="1"/>
<text x="104" y="395.00" text-anchor="end" font-family="Arial" font-size="16" fill="black">299.5</text>
<line x1="120" y1="232.50" x2="1145" y2="232.50" stroke="#dddddd" stroke-width="1"/>
<text x="104" y="237.50" text-anchor="end" font-family="Arial" font-size="16" fill="black">304.4</text>
<line x1="120" y1="75.00" x2="1145" y2="75.00" stroke="#dddddd" stroke-width="1"/>
<text x="104" y="80.00" text-anchor="end" font-family="Arial" font-size="16" fill="black">309.4</text>
<rect x="120" y="75" width="1025" height="630" fill="none" stroke="black" stroke-width="2"/>
<text x="632.5" y="785" text-anchor="middle" font-family="Arial" font-size="20" fill="black">x coordinate [m]</text>
<text x="34" y="390.0" transform="rotate(-90 34 390.0)" text-anchor="middle" font-family="Arial" font-size="20" fill="black">T [K]</text>
<polyline points="190.69,118.45 193.64,122.28 196.58,126.11 199.53,129.94 202.47,133.45 205.42,140.48 208.36,148.78 211.31,157.40 214.25,165.70 217.20,174.96 220.14,185.82 223.09,196.35 226.03,207.21 228.98,218.38 231.93,232.11 234.87,245.84 237.82,259.89 240.76,273.62 243.71,288.63 246.65,303.95 249.60,319.28 252.54,334.60 255.49,350.25 258.43,365.89 261.38,381.54 264.32,397.50 267.27,413.47 270.22,430.07 273.16,446.99 276.11,463.60 279.05,480.52 282.00,497.44 284.94,514.36 287.89,531.28 290.83,548.52 293.78,563.21 296.72,576.94 299.67,590.67 302.62,604.72 305.56,615.57 308.51,622.92 311.45,630.26 314.40,637.61 317.34,644.31 320.29,647.18 323.23,649.74 326.17,652.61 329.13,655.49 332.07,656.76 335.01,657.72 337.96,659.00 340.91,660.27 343.85,660.59 346.80,660.91 349.74,661.23 352.68,661.23 355.64,661.55 358.58,661.23 361.52,661.23 364.47,660.91 367.41,660.91 370.35,660.27 373.31,659.32 376.25,658.68 379.19,657.72 382.15,656.12 385.09,653.89 388.03,651.33 390.98,649.10 393.92,646.23 396.86,642.71 399.82,638.88 402.76,635.37 405.70,630.90 408.65,621.64 411.59,612.70 414.54,603.76 417.49,594.50 420.43,577.26 423.37,558.74 426.33,539.90 429.27,521.39 432.21,499.67 435.16,475.73 438.10,452.10 441.04,428.15 444.00,405.17 446.94,384.09 449.88,363.34 452.83,342.27 455.78,321.19 458.72,307.15 461.67,293.10 464.61,279.37 467.55,265.32 470.51,255.74 473.45,248.08 476.39,240.73 479.34,233.07 482.28,227.32 485.23,223.81 488.18,220.62 491.12,217.11 494.06,214.23 497.02,213.60 499.96,213.28 502.90,212.64 505.85,212.32 508.79,213.28 511.73,214.55 514.69,216.15 517.63,217.43 520.57,219.34 523.52,221.58 526.47,223.49 529.41,225.73 532.36,227.96 535.30,230.52 538.24,233.07 541.20,235.63 544.14,237.86 547.08,241.37 550.03,244.89 552.97,248.08 555.92,251.59 558.87,256.38 561.81,261.49 564.75,266.92 567.71,272.02 570.65,278.73 573.59,286.71 576.54,294.69 579.48,302.99 582.42,311.62 585.38,323.11 588.32,334.60 591.26,346.10 594.21,357.91 597.16,369.73 600.10,381.86 603.05,393.67 605.99,405.80 608.93,415.06 611.89,422.73 614.83,430.07 617.77,437.41 620.72,443.48 623.66,445.72 626.60,448.27 629.56,450.50 632.50,453.06 635.44,452.42 638.40,451.78 641.34,451.46 644.28,450.82 647.23,447.63 650.17,443.48 653.11,439.65 656.07,435.50 659.01,428.79 661.95,418.58 664.90,408.36 667.84,398.14 670.79,387.61 673.74,375.15 676.68,362.38 679.62,349.61 682.58,336.84 685.52,326.62 688.46,317.04 691.41,307.46 694.35,297.57 697.29,289.58 700.25,282.88 703.19,276.17 706.13,269.47 709.08,263.08 712.03,258.30 714.97,253.51 717.92,248.72 720.86,243.61 723.80,240.10 726.76,236.58 729.70,232.75 732.64,229.24 735.59,226.37 738.53,223.81 741.48,221.26 744.43,218.38 747.37,216.47 750.31,214.55 753.27,212.96 756.21,211.36 759.15,209.76 762.10,208.81 765.04,207.85 767.98,206.89 770.94,205.93 773.88,205.61 776.82,205.29 779.77,204.97 782.72,204.97 785.66,205.29 788.61,205.93 791.55,206.89 794.49,207.53 797.45,208.49 800.39,210.40 803.33,212.64 806.28,214.55 809.22,216.47 812.17,219.66 815.12,222.85 818.06,226.37 821.00,229.56 823.96,233.71 826.90,238.18 829.84,242.97 832.79,247.44 835.73,252.55 838.67,258.30 841.63,263.72 844.57,269.47 847.51,275.22 850.46,281.92 853.41,288.31 856.35,294.69 859.30,301.40 862.24,307.15 865.18,312.57 868.14,318.32 871.08,324.07 874.02,328.54 876.97,332.05 879.91,335.88 882.85,339.71 885.81,342.91 888.75,345.46 891.69,348.01 894.65,350.57 897.59,352.80 900.53,354.40 903.48,355.68 906.42,356.95 909.36,358.55 912.32,358.23 915.26,357.27 918.20,356.63 921.15,355.68 924.09,353.76 927.04,350.57 929.99,347.38 932.93,344.18 935.87,340.99 938.83,338.75 941.77,336.52 944.71,333.97 947.66,331.73 950.60,331.41 953.54,331.09 956.50,331.09 959.44,331.09 962.38,331.41 965.33,331.73 968.28,332.37 971.22,333.01 974.17,333.33 977.11,333.97 980.05,334.60 983.01,334.92 985.95,335.56 988.89,335.88 991.84,336.20 994.78,336.52 997.73,336.84 1000.68,337.16 1003.62,337.16 1006.56,337.16 1009.52,337.16 1012.46,337.16 1015.40,337.16 1018.35,336.84 1021.29,336.84 1024.23,336.52 1027.19,335.88 1030.13,335.56 1033.07,334.92 1036.02,334.60 1038.97,333.65 1041.91,333.01 1044.86,332.05 1047.80,331.09 1050.74,330.13 1053.70,328.54 1056.64,327.26 1059.58,325.66 1062.53,324.39 1065.47,323.43 1068.42,322.79 1071.37,321.83 1074.31,320.87" fill="none" stroke="#000000" stroke-width="3"/>
<line x1="142" y1="100" x2="178" y2="100" stroke="#000000" stroke-width="4"/>
<text x="188" y="105" font-family="Arial" font-size="18" fill="black">T</text>
</svg>