<svg xmlns="http://www.w3.org/2000/svg" width="1200" height="820" viewBox="0 0 1200 820">
<rect width="100%" height="100%" fill="white"/>
<text x="600.0" y="36" text-anchor="middle" font-family="Arial" font-size="24" fill="black">profile_near_floor_x: T</text>
<line x1="120.00" y1="75" x2="120.00" y2="705" stroke="#dddddd" stroke-width="1"/>
<text x="120.00" y="737" text-anchor="middle" font-family="Arial" font-size="16" fill="black">-0.560</text>
<line x1="376.25" y1="75" x2="376.25" y2="705" stroke="#dddddd" stroke-width="1"/>
<text x="376.25" y="737" text-anchor="middle" font-family="Arial" font-size="16" fill="black">1.470</text>
<line x1="632.50" y1="75" x2="632.50" y2="705" stroke="#dddddd" stroke-width="1"/>
<text x="632.50" y="737" text-anchor="middle" font-family="Arial" font-size="16" fill="black">3.500</text>
<line x1="888.75" y1="75" x2="888.75" y2="705" stroke="#dddddd" stroke-width="1"/>
<text x="888.75" y="737" text-anchor="middle" font-family="Arial" font-size="16" fill="black">5.530</text>
<line x1="1145.00" y1="75" x2="1145.00" y2="705" stroke="#dddddd" stroke-width="1"/>
<text x="1145.00" y="737" text-anchor="middle" font-family="Arial" font-size="16" fill="black">7.560</text>
<line x1="120" y1="705.00" x2="1145" y2="705.00" stroke="#dddddd" stroke-width="1"/>
<text x="104" y="710.00" text-anchor="end" font-family="Arial" font-size="16" fill="black">290.2</text>
<line x1="120" y1="547.50" x2="1145" y2="547.50" stroke="#dddddd" stroke-width="1"/>
<text x="104" y="552.50" text-anchor="end" font-family="Arial" font-size="16" fill="black">293.2</text>
<line x1="120" y1="390.00" x2="1145" y2="390.00" stroke="#dddddd" stroke-width="1"/>
<text x="104" y="395.00" text-anchor="end" font-family="Arial" font-size="16" fill="black">296.3</text>
<line x1="120" y1="232.50" x2="1145" y2="232.50" stroke="#dddddd" stroke-width="1"/>
<text x="104" y="237.50" text-anchor="end" font-family="Arial" font-size="16" fill="black">299.4</text>
<line x1="120" y1="75.00" x2="1145" y2="75.00" stroke="#dddddd" stroke-width="1"/>
<text x="104" y="80.00" text-anchor="end" font-family="Arial" font-size="16" fill="black">302.4</text>
<rect x="120" y="75" width="1025" height="630" fill="none" stroke="black" stroke-width="2"/>
<text x="632.5" y="785" text-anchor="middle" font-family="Arial" font-size="20" fill="black">x coordinate [m]</text>
<text x="34" y="390.0" transform="rotate(-90 34 390.0)" text-anchor="middle" font-family="Arial" font-size="20" fill="black">T [K]</text>
<polyline points="190.69,301.53 193.64,302.05 196.58,302.05 199.53,302.05 202.47,302.56 205.42,304.61 208.36,307.69 211.31,310.77 214.25,313.84 217.20,317.95 220.14,324.10 223.09,330.25 226.03,336.41 228.98,342.56 231.93,348.72 234.87,355.38 237.82,361.54 240.76,367.69 243.71,373.33 246.65,378.97 249.60,384.62 252.54,390.26 255.49,394.87 258.43,398.97 261.38,403.08 264.32,407.18 267.27,410.77 270.22,413.33 273.16,415.39 276.11,417.95 279.05,420.00 282.00,421.03 284.94,422.57 287.89,423.59 290.83,424.62 293.78,428.21 296.72,432.82 299.67,437.44 302.62,441.54 305.56,455.90 308.51,482.57 311.45,509.75 314.40,536.42 317.34,562.57 320.29,586.16 323.23,609.24 326.17,632.83 329.13,656.42 332.07,660.01 335.01,660.53 337.96,661.04 340.91,661.55 343.85,661.55 346.80,661.55 349.74,661.55 352.68,661.55 355.64,661.55 358.58,661.55 361.52,661.55 364.47,661.55 367.41,661.55 370.35,661.55 373.31,661.55 376.25,661.55 379.19,661.55 382.15,661.04 385.09,661.04 388.03,660.53 390.98,660.01 393.92,658.47 396.86,654.37 399.82,650.78 402.76,646.68 405.70,635.91 408.65,584.62 411.59,533.34 414.54,481.54 417.49,430.26 420.43,377.95 423.37,325.13 426.33,272.81 429.27,219.99 432.21,193.32 435.16,186.66 438.10,179.48 441.04,172.81 444.00,166.66 446.94,161.53 449.88,156.91 452.83,152.30 455.78,147.68 458.72,143.58 461.67,139.47 464.61,135.37 467.55,131.27 470.51,128.19 473.45,125.63 476.39,123.58 479.34,121.01 482.28,119.47 485.23,119.47 488.18,118.96 491.12,118.45 494.06,118.96 497.02,121.53 499.96,124.60 502.90,127.17 505.85,130.24 508.79,135.89 511.73,142.55 514.69,148.71 517.63,154.86 520.57,162.55 523.52,170.76 526.47,178.96 529.41,187.17 532.36,194.86 535.30,203.07 538.24,210.76 541.20,218.45 544.14,226.15 547.08,231.27 550.03,236.40 552.97,241.53 555.92,246.66 558.87,251.28 561.81,255.38 564.75,259.48 567.71,264.10 570.65,284.61 573.59,327.18 576.54,369.74 579.48,412.31 582.42,455.39 585.38,499.49 588.32,543.60 591.26,588.21 594.21,632.32 597.16,642.58 600.10,647.70 603.05,652.32 605.99,656.94 608.93,659.50 611.89,660.01 614.83,660.53 617.77,661.04 620.72,661.55 623.66,661.55 626.60,661.55 629.56,661.55 632.50,661.55 635.44,661.55 638.40,661.55 641.34,661.55 644.28,661.55 647.23,661.55 650.17,661.55 653.11,661.55 656.07,661.04 659.01,660.53 661.95,658.99 664.90,657.45 667.84,655.91 670.79,649.76 673.74,615.40 676.68,581.03 679.62,546.67 682.58,512.31 685.52,476.93 688.46,441.54 691.41,406.15 694.35,370.77 697.29,353.33 700.25,349.23 703.19,345.64 706.13,342.05 709.08,337.95 712.03,334.36 714.97,330.25 717.92,326.66 720.86,322.56 723.80,315.38 726.76,308.20 729.70,301.53 732.64,294.35 735.59,285.64 738.53,275.89 741.48,266.66 744.43,256.92 747.37,248.71 750.31,242.56 753.27,236.40 756.21,230.25 759.15,224.61 762.10,224.61 765.04,224.61 767.98,224.61 770.94,224.61 773.88,226.66 776.82,229.74 779.77,232.81 782.72,235.38 785.66,238.45 788.61,242.04 791.55,245.63 794.49,248.71 797.45,251.79 800.39,254.35 803.33,256.92 806.28,258.97 809.22,261.53 812.17,262.56 815.12,263.58 818.06,264.61 821.00,265.63 823.96,267.69 826.90,270.25 829.84,272.81 832.79,275.38 835.73,295.38 838.67,338.46 841.63,381.54 844.57,424.62 847.51,467.70 850.46,511.29 853.41,554.88 856.35,597.96 859.30,641.55 862.24,650.27 865.18,653.35 868.14,656.42 871.08,659.50 874.02,660.53 876.97,661.04 879.91,661.04 882.85,661.55 885.81,661.55 888.75,661.55 891.69,661.55 894.65,661.55 897.59,661.55 900.53,661.55 903.48,661.55 906.42,661.55 909.36,661.55 912.32,661.55 915.26,661.55 918.20,661.04 921.15,661.04 924.09,660.01 927.04,657.96 929.99,655.91 932.93,653.86 935.87,647.70 938.83,616.42 941.77,584.62 944.71,553.34 947.66,521.54 950.60,490.26 953.54,458.98 956.50,427.69 959.44,396.41 962.38,381.54 965.33,378.97 968.28,376.41 971.22,373.85 974.17,370.77 977.11,366.15 980.05,362.05 983.01,357.43 985.95,352.82 988.89,342.56 991.84,332.82 994.78,322.56 997.73,312.30 1000.68,297.94 1003.62,282.56 1006.56,267.17 1009.52,251.79 1012.46,236.92 1015.40,224.09 1018.35,211.27 1021.29,198.45 1024.23,186.66 1027.19,181.02 1030.13,175.89 1033.07,170.76 1036.02,165.63 1038.97,164.60 1041.91,164.60 1044.86,164.60 1047.80,164.09 1050.74,165.63 1053.70,168.71 1056.64,171.78 1059.58,174.35 1062.53,176.91 1065.47,178.96 1068.42,180.50 1071.37,182.55 1074.31,184.09" fill="none" stroke="#000000" stroke-width="3"/>
<line x1="142" y1="100" x2="178" y2="100" stroke="#000000" stroke-width="4"/>
<text x="188" y="105" font-family="Arial" font-size="18" fill="black">T</text>
</svg>