<svg xmlns="http://www.w3.org/2000/svg" width="1200" height="820" viewBox="0 0 1200 820">
<rect width="100%" height="100%" fill="white"/>
<text x="600.0" y="36" text-anchor="middle" font-family="Arial" font-size="24" fill="black">profile_near_floor_x: U:0</text>
<line x1="120.00" y1="75" x2="120.00" y2="705" stroke="#dddddd" stroke-width="1"/>
<text x="120.00" y="737" text-anchor="middle" font-family="Arial" font-size="16" fill="black">-0.560</text>
<line x1="376.25" y1="75" x2="376.25" y2="705" stroke="#dddddd" stroke-width="1"/>
<text x="376.25" y="737" text-anchor="middle" font-family="Arial" font-size="16" fill="black">1.470</text>
<line x1="632.50" y1="75" x2="632.50" y2="705" stroke="#dddddd" stroke-width="1"/>
<text x="632.50" y="737" text-anchor="middle" font-family="Arial" font-size="16" fill="black">3.500</text>
<line x1="888.75" y1="75" x2="888.75" y2="705" stroke="#dddddd" stroke-width="1"/>
<text x="888.75" y="737" text-anchor="middle" font-family="Arial" font-size="16" fill="black">5.530</text>
<line x1="1145.00" y1="75" x2="1145.00" y2="705" stroke="#dddddd" stroke-width="1"/>
<text x="1145.00" y="737" text-anchor="middle" font-family="Arial" font-size="16" fill="black">7.560</text>
<line x1="120" y1="705.00" x2="1145" y2="705.00" stroke="#dddddd" stroke-width="1"/>
<text x="104" y="710.00" text-anchor="end" font-family="Arial" font-size="16" fill="black">-0.200</text>
<line x1="120" y1="547.50" x2="1145" y2="547.50" stroke="#dddddd" stroke-width="1"/>
<text x="104" y="552.50" text-anchor="end" font-family="Arial" font-size="16" fill="black">-0.085</text>
<line x1="120" y1="390.00" x2="1145" y2="390.00" stroke="#dddddd" stroke-width="1"/>
<text x="104" y="395.00" text-anchor="end" font-family="Arial" font-size="16" fill="black">0.030</text>
<line x1="120" y1="232.50" x2="1145" y2="232.50" stroke="#dddddd" stroke-width="1"/>
<text x="104" y="237.50" text-anchor="end" font-family="Arial" font-size="16" fill="black">0.146</text>
<line x1="120" y1="75.00" x2="1145" y2="75.00" stroke="#dddddd" stroke-width="1"/>
<text x="104" y="80.00" text-anchor="end" font-family="Arial" font-size="16" fill="black">0.261</text>
<rect x="120" y="75" width="1025" height="630" fill="none" stroke="black" stroke-width="2"/>
<text x="632.5" y="785" text-anchor="middle" font-family="Arial" font-size="20" fill="black">x coordinate [m]</text>
<text x="34" y="390.0" transform="rotate(-90 34 390.0)" text-anchor="middle" font-family="Arial" font-size="20" fill="black">U:0 [SI]</text>
<polyline points="190.69,459.96 193.64,459.40 196.58,458.85 199.53,458.29 202.47,457.73 205.42,456.39 208.36,454.74 211.31,453.08 214.25,451.43 217.20,448.84 220.14,445.02 223.09,441.20 226.03,437.37 228.98,433.20 231.93,426.91 234.87,420.62 237.82,414.33 240.76,408.04 243.71,400.94 246.65,393.71 249.60,386.48 252.54,379.25 255.49,372.30 258.43,365.56 261.38,358.83 264.32,352.09 267.27,345.99 270.22,341.50 273.16,337.01 276.11,332.52 279.05,328.03 282.00,326.73 284.94,325.43 287.89,324.13 290.83,322.82 293.78,329.04 296.72,338.25 299.67,347.47 302.62,356.68 305.56,367.89 308.51,381.76 311.45,395.63 314.40,409.50 317.34,421.66 320.29,423.53 323.23,425.40 326.17,427.28 329.13,429.15 332.07,428.07 335.01,426.49 337.96,424.92 340.91,423.35 343.85,423.74 346.80,425.61 349.74,427.48 352.68,429.36 355.64,431.26 358.58,433.25 361.52,435.24 364.47,437.23 367.41,439.21 370.35,442.79 373.31,446.37 376.25,449.94 379.19,453.52 382.15,459.65 385.09,466.81 388.03,473.97 390.98,481.13 393.92,485.07 396.86,484.70 399.82,484.34 402.76,483.97 405.70,484.51 408.65,490.51 411.59,496.51 414.54,502.51 417.49,508.50 420.43,529.10 423.37,552.13 426.33,575.15 429.27,598.17 432.21,615.26 435.16,627.87 438.10,640.49 441.04,653.10 444.00,661.55 446.94,659.63 449.88,657.69 452.83,655.75 455.78,653.82 458.72,645.76 461.67,637.70 464.61,629.64 467.55,621.59 470.51,610.82 473.45,598.98 476.39,587.14 479.34,575.30 482.28,562.33 485.23,547.85 488.18,533.37 491.12,518.89 494.06,503.82 497.02,485.13 499.96,466.45 502.90,447.77 505.85,429.09 508.79,407.83 511.73,386.14 514.69,364.44 517.63,342.75 520.57,321.31 523.52,300.05 526.47,278.80 529.41,257.55 532.36,237.46 535.30,220.28 538.24,203.09 541.20,185.92 544.14,168.74 547.08,161.86 550.03,154.97 552.97,148.09 555.92,141.20 558.87,148.62 561.81,161.77 564.75,174.93 567.71,188.08 570.65,208.12 573.59,237.31 576.54,266.51 579.48,295.71 582.42,322.19 585.38,332.37 588.32,342.56 591.26,352.74 594.21,362.93 597.16,365.08 600.10,365.89 603.05,366.70 605.99,367.51 608.93,372.98 611.89,381.96 614.83,390.93 617.77,399.91 620.72,407.39 623.66,411.16 626.60,414.92 629.56,418.68 632.50,422.45 635.44,424.30 638.40,426.16 641.34,428.01 644.28,429.86 647.23,433.36 650.17,437.51 653.11,441.66 656.07,445.81 659.01,447.84 661.95,447.05 664.90,446.25 667.84,445.45 670.79,445.78 673.74,452.88 676.68,459.97 679.62,467.07 682.58,474.17 685.52,495.58 688.46,519.39 691.41,543.20 694.35,567.00 697.29,583.91 700.25,595.65 703.19,607.38 706.13,619.11 709.08,625.62 712.03,619.05 714.97,612.46 717.92,605.89 720.86,599.31 723.80,583.89 726.76,568.47 729.70,553.05 732.64,537.63 735.59,517.73 738.53,496.04 741.48,474.35 744.43,452.65 747.37,430.72 750.31,408.46 753.27,386.19 756.21,363.93 759.15,342.11 762.10,322.96 765.04,303.80 767.98,284.65 770.94,265.49 773.88,248.59 776.82,232.06 779.77,215.55 782.72,199.02 785.66,185.06 788.61,173.03 791.55,161.00 794.49,148.96 797.45,138.91 800.39,133.79 803.33,128.68 806.28,123.56 809.22,118.45 812.17,122.64 815.12,126.85 818.06,131.04 821.00,135.25 823.96,152.25 826.90,174.37 829.84,196.48 832.79,218.61 835.73,244.71 838.67,276.13 841.63,307.54 844.57,338.95 847.51,367.10 850.46,375.66 853.41,384.22 856.35,392.77 859.30,401.33 862.24,402.38 865.18,402.17 868.14,401.97 871.08,401.76 874.02,405.43 876.97,412.00 879.91,418.58 882.85,425.15 885.81,430.48 888.75,432.71 891.69,434.94 894.65,437.17 897.59,439.39 900.53,440.70 903.48,442.00 906.42,443.30 909.36,444.60 912.32,448.11 915.26,452.50 918.20,456.88 921.15,461.27 924.09,463.65 927.04,463.36 929.99,463.07 932.93,462.79 935.87,463.70 938.83,471.82 941.77,479.95 944.71,488.08 947.66,496.21 950.60,517.85 953.54,541.74 956.50,565.64 959.44,589.53 962.38,605.56 965.33,615.70 968.28,625.85 971.22,635.98 974.17,640.63 977.11,631.53 980.05,622.45 983.01,613.35 985.95,604.25 988.89,585.29 991.84,566.32 994.78,547.34 997.73,528.37 1000.68,505.79 1003.62,481.75 1006.56,457.72 1009.52,433.69 1012.46,410.99 1015.40,390.06 1018.35,369.13 1021.29,348.21 1024.23,328.49 1027.19,316.06 1030.13,303.63 1033.07,291.21 1036.02,278.76 1038.97,274.81 1041.91,272.27 1044.86,269.72 1047.80,267.18 1050.74,268.96 1053.70,273.97 1056.64,278.98 1059.58,283.98 1062.53,288.50 1065.47,291.81 1068.42,295.11 1071.37,298.42 1074.31,301.72" fill="none" stroke="#000000" stroke-width="3"/>
<line x1="142" y1="100" x2="178" y2="100" stroke="#000000" stroke-width="4"/>
<text x="188" y="105" font-family="Arial" font-size="18" fill="black">U:0</text>
</svg>