<svg xmlns="http://www.w3.org/2000/svg" width="1200" height="820" viewBox="0 0 1200 820">
<rect width="100%" height="100%" fill="white"/>
<text x="600.0" y="36" text-anchor="middle" font-family="Arial" font-size="24" fill="black">profile_diagonal_supply_return: U:1</text>
<line x1="120.00" y1="75" x2="120.00" y2="705" stroke="#dddddd" stroke-width="1"/>
<text x="120.00" y="737" text-anchor="middle" font-family="Arial" font-size="16" fill="black">-0.729</text>
<line x1="376.25" y1="75" x2="376.25" y2="705" stroke="#dddddd" stroke-width="1"/>
<text x="376.25" y="737" text-anchor="middle" font-family="Arial" font-size="16" fill="black">1.913</text>
<line x1="632.50" y1="75" x2="632.50" y2="705" stroke="#dddddd" stroke-width="1"/>
<text x="632.50" y="737" text-anchor="middle" font-family="Arial" font-size="16" fill="black">4.555</text>
<line x1="888.75" y1="75" x2="888.75" y2="705" stroke="#dddddd" stroke-width="1"/>
<text x="888.75" y="737" text-anchor="middle" font-family="Arial" font-size="16" fill="black">7.197</text>
<line x1="1145.00" y1="75" x2="1145.00" y2="705" stroke="#dddddd" stroke-width="1"/>
<text x="1145.00" y="737" text-anchor="middle" font-family="Arial" font-size="16" fill="black">9.839</text>
<line x1="120" y1="705.00" x2="1145" y2="705.00" stroke="#dddddd" stroke-width="1"/>
<text x="104" y="710.00" text-anchor="end" font-family="Arial" font-size="16" fill="black">-0.153</text>
<line x1="120" y1="547.50" x2="1145" y2="547.50" stroke="#dddddd" stroke-width="1"/>
<text x="104" y="552.50" text-anchor="end" font-family="Arial" font-size="16" fill="black">-0.080</text>
<line x1="120" y1="390.00" x2="1145" y2="390.00" stroke="#dddddd" stroke-width="1"/>
<text x="104" y="395.00" text-anchor="end" font-family="Arial" font-size="16" fill="black">-0.008</text>
<line x1="120" y1="232.50" x2="1145" y2="232.50" stroke="#dddddd" stroke-width="1"/>
<text x="104" y="237.50" text-anchor="end" font-family="Arial" font-size="16" fill="black">0.065</text>
<line x1="120" y1="75.00" x2="1145" y2="75.00" stroke="#dddddd" stroke-width="1"/>
<text x="104" y="80.00" text-anchor="end" font-family="Arial" font-size="16" fill="black">0.138</text>
<rect x="120" y="75" width="1025" height="630" fill="none" stroke="black" stroke-width="2"/>
<text x="632.5" y="785" text-anchor="middle" font-family="Arial" font-size="20" fill="black">distance along sample line [m]</text>
<text x="34" y="390.0" transform="rotate(-90 34 390.0)" text-anchor="middle" font-family="Arial" font-size="20" fill="black">U:1 [SI]</text>
<polyline points="190.69,310.61 193.64,307.86 196.58,305.85 199.53,304.56 202.47,303.98 205.42,308.01 208.36,314.96 211.31,320.98 214.25,330.61 217.20,343.08 220.14,357.81 223.09,374.90 226.03,394.57 228.98,418.17 231.93,437.28 234.87,457.45 237.82,478.73 240.76,501.18 243.71,517.67 246.65,532.87 249.60,548.21 252.54,563.68 255.49,576.53 258.43,587.57 261.38,599.04 264.32,608.72 267.27,617.58 270.22,624.15 273.16,631.39 276.11,639.27 279.05,647.83 282.00,649.17 284.94,651.53 287.88,654.87 290.83,659.20 293.78,660.73 296.73,661.55 299.67,660.13 302.62,660.15 305.57,658.83 308.50,654.96 311.45,651.96 314.40,649.97 317.34,645.60 320.29,636.79 323.24,629.07 326.18,622.50 329.12,617.12 332.07,607.96 335.01,596.79 337.96,586.76 340.91,578.01 343.85,568.87 346.80,558.95 349.74,549.35 352.68,539.95 355.63,531.76 358.58,523.97 361.53,516.68 364.47,509.94 367.42,503.83 370.36,499.92 373.30,496.73 376.25,494.32 379.20,492.79 382.14,492.43 385.09,492.11 388.04,492.59 390.97,493.61 393.92,495.74 396.87,498.14 399.81,501.33 402.76,503.97 405.71,507.11 408.65,513.31 411.59,518.26 414.54,522.00 417.48,524.55 420.43,532.66 423.38,539.77 426.32,545.42 429.27,551.42 432.21,559.95 435.16,570.04 438.10,578.75 441.05,584.20 444.00,588.63 446.94,592.75 449.89,595.97 452.84,598.34 455.77,599.86 458.72,593.33 461.67,586.32 464.61,578.86 467.56,570.97 470.51,556.83 473.45,539.59 476.39,520.15 479.34,500.07 482.28,478.30 485.23,454.37 488.18,429.24 491.12,403.37 494.07,376.41 497.01,354.68 499.96,332.82 502.90,310.91 505.85,289.01 508.80,277.96 511.74,268.57 514.69,259.82 517.63,251.95 520.57,252.46 523.52,259.18 526.47,266.50 529.41,274.25 532.36,285.57 535.31,304.55 538.24,323.68 541.19,343.06 544.14,362.77 547.08,386.90 550.03,410.12 552.98,432.52 555.92,454.17 558.86,478.14 561.81,502.95 564.76,521.58 567.70,539.59 570.65,557.94 573.60,577.41 576.54,591.99 579.49,605.39 582.43,606.64 585.37,603.08 588.32,598.71 591.27,593.70 594.21,588.29 597.16,577.37 600.11,555.87 603.04,533.47 605.99,504.42 608.94,474.96 611.88,445.67 614.83,417.00 617.78,389.65 620.72,362.29 623.66,335.03 626.61,307.79 629.55,280.58 632.50,253.42 635.45,232.24 638.40,212.44 641.34,194.12 644.28,177.38 647.23,163.12 650.17,151.16 653.12,143.86 656.07,138.61 659.01,136.23 661.96,137.08 664.90,136.47 667.84,137.66 670.79,142.15 673.74,148.90 676.68,156.93 679.63,166.17 682.58,176.53 685.51,187.04 688.46,200.08 691.41,213.69 694.35,225.43 697.30,236.77 700.25,247.92 703.20,259.74 706.14,273.95 709.08,287.95 712.03,300.67 714.97,313.76 717.92,327.19 720.87,340.92 723.81,353.30 726.76,365.87 729.70,378.60 732.64,391.46 735.59,403.01 738.54,414.03 741.48,425.65 744.43,437.26 747.38,448.12 750.31,457.95 753.26,466.84 756.21,475.51 759.15,483.76 762.10,490.66 765.05,497.37 767.99,503.88 770.93,510.14 773.88,515.18 776.83,519.53 779.77,523.76 782.72,526.84 785.67,529.13 788.61,530.83 791.55,532.38 794.50,533.21 797.44,533.70 800.39,533.41 803.34,533.18 806.28,532.99 809.23,532.83 812.17,529.44 815.11,526.22 818.06,523.17 821.01,520.27 823.95,516.26 826.90,511.74 829.85,506.70 832.79,501.91 835.73,496.72 838.68,490.70 841.63,483.41 844.57,475.99 847.52,468.00 850.47,459.78 853.41,451.29 856.35,442.51 859.30,433.43 862.24,425.59 865.19,417.12 868.14,408.10 871.08,397.57 874.03,388.76 876.97,380.73 879.91,371.60 882.86,361.98 885.81,353.10 888.75,347.07 891.70,339.81 894.65,331.32 897.58,321.56 900.53,316.80 903.48,310.87 906.43,303.74 909.37,295.42 912.32,288.43 915.27,281.27 918.20,275.25 921.15,268.16 924.10,260.79 927.04,253.50 929.99,244.62 932.94,234.73 935.88,226.76 938.82,218.55 941.77,209.48 944.71,199.51 947.66,188.64 950.61,177.33 953.55,169.82 956.50,161.73 959.44,151.62 962.38,141.59 965.33,131.65 968.28,121.30 971.22,119.10 974.17,118.45 977.12,121.32 980.06,125.15 983.00,129.99 985.95,135.91 988.90,154.15 991.84,174.02 994.79,195.30 997.74,217.76 1000.68,240.08 1003.62,261.63 1006.57,285.22 1009.51,306.99 1012.46,324.70 1015.41,337.55 1018.35,346.02 1021.30,350.75 1024.24,352.79 1027.18,351.21 1030.13,347.05 1033.08,340.18 1036.02,330.47 1038.97,319.38 1041.92,307.23 1044.86,294.01 1047.80,282.54 1050.75,271.62 1053.70,261.50 1056.64,251.67 1059.59,243.77 1062.54,237.00 1065.47,231.91 1068.42,227.31 1071.37,223.20 1074.31,219.59" fill="none" stroke="#000000" stroke-width="3"/>
<line x1="142" y1="100" x2="178" y2="100" stroke="#000000" stroke-width="4"/>
<text x="188" y="105" font-family="Arial" font-size="18" fill="black">U:1</text>
</svg>