<svg xmlns="http://www.w3.org/2000/svg" width="1200" height="820" viewBox="0 0 1200 820">
<rect width="100%" height="100%" fill="white"/>
<text x="600.0" y="36" text-anchor="middle" font-family="Arial" font-size="24" fill="black">profile_near_ceiling_x: velocity magnitude</text>
<line x1="120.00" y1="75" x2="120.00" y2="705" stroke="#dddddd" stroke-width="1"/>
<text x="120.00" y="737" text-anchor="middle" font-family="Arial" font-size="16" fill="black">-0.560</text>
<line x1="376.25" y1="75" x2="376.25" y2="705" stroke="#dddddd" stroke-width="1"/>
<text x="376.25" y="737" text-anchor="middle" font-family="Arial" font-size="16" fill="black">1.470</text>
<line x1="632.50" y1="75" x2="632.50" y2="705" stroke="#dddddd" stroke-width="1"/>
<text x="632.50" y="737" text-anchor="middle" font-family="Arial" font-size="16" fill="black">3.500</text>
<line x1="888.75" y1="75" x2="888.75" y2="705" stroke="#dddddd" stroke-width="1"/>
<text x="888.75" y="737" text-anchor="middle" font-family="Arial" font-size="16" fill="black">5.530</text>
<line x1="1145.00" y1="75" x2="1145.00" y2="705" stroke="#dddddd" stroke-width="1"/>
<text x="1145.00" y="737" text-anchor="middle" font-family="Arial" font-size="16" fill="black">7.560</text>
<line x1="120" y1="705.00" x2="1145" y2="705.00" stroke="#dddddd" stroke-width="1"/>
<text x="104" y="710.00" text-anchor="end" font-family="Arial" font-size="16" fill="black">0.113</text>
<line x1="120" y1="547.50" x2="1145" y2="547.50" stroke="#dddddd" stroke-width="1"/>
<text x="104" y="552.50" text-anchor="end" font-family="Arial" font-size="16" fill="black">0.173</text>
<line x1="120" y1="390.00" x2="1145" y2="390.00" stroke="#dddddd" stroke-width="1"/>
<text x="104" y="395.00" text-anchor="end" font-family="Arial" font-size="16" fill="black">0.233</text>
<line x1="120" y1="232.50" x2="1145" y2="232.50" stroke="#dddddd" stroke-width="1"/>
<text x="104" y="237.50" text-anchor="end" font-family="Arial" font-size="16" fill="black">0.293</text>
<line x1="120" y1="75.00" x2="1145" y2="75.00" stroke="#dddddd" stroke-width="1"/>
<text x="104" y="80.00" text-anchor="end" font-family="Arial" font-size="16" fill="black">0.352</text>
<rect x="120" y="75" width="1025" height="630" fill="none" stroke="black" stroke-width="2"/>
<text x="632.5" y="785" text-anchor="middle" font-family="Arial" font-size="20" fill="black">x coordinate [m]</text>
<text x="34" y="390.0" transform="rotate(-90 34 390.0)" text-anchor="middle" font-family="Arial" font-size="20" fill="black">|U| [m/s]</text>
<polyline points="190.69,365.00 193.64,417.05 196.58,469.08 199.53,521.14 202.47,573.19 205.42,602.07 208.36,621.71 211.31,641.33 214.25,660.97 217.20,661.55 220.14,636.75 223.09,611.92 226.03,587.09 228.98,564.45 231.93,554.81 234.87,545.17 237.82,535.54 240.76,525.87 243.71,517.66 246.65,509.68 249.60,501.70 252.54,493.73 255.49,486.27 258.43,479.22 261.38,472.19 264.32,465.13 267.27,458.76 270.22,453.99 273.16,449.26 276.11,444.49 279.05,439.75 282.00,438.14 284.94,436.56 287.89,434.96 290.83,433.38 293.78,434.27 296.72,436.14 299.67,438.04 302.62,439.93 305.56,443.28 308.51,448.54 311.45,453.84 314.40,459.10 317.34,464.82 320.29,473.08 323.23,481.35 326.17,489.62 329.13,497.89 332.07,508.13 335.01,518.71 337.96,529.32 340.91,539.91 343.85,550.94 346.80,562.34 349.74,573.77 352.68,585.17 355.64,594.91 358.58,600.57 361.52,606.23 364.47,611.87 367.41,617.53 370.35,614.79 373.31,612.05 376.25,609.34 379.19,606.60 382.15,606.63 385.09,607.76 388.03,608.89 390.98,610.02 393.92,613.84 396.86,621.29 399.82,628.74 402.76,636.20 405.70,643.07 408.65,646.49 411.59,649.94 414.54,653.36 417.49,656.81 420.43,654.78 423.37,651.84 426.33,648.91 429.27,645.99 432.21,640.99 435.16,634.46 438.10,627.93 441.04,621.43 444.00,614.82 446.94,608.05 449.88,601.26 452.83,594.49 455.78,587.70 458.72,577.88 461.67,568.08 464.61,558.26 467.55,548.44 470.51,534.06 473.45,517.84 476.39,501.65 479.34,485.46 482.28,469.11 485.23,452.60 488.18,436.06 491.12,419.56 494.06,403.20 497.02,388.01 499.96,372.79 502.90,357.60 505.85,342.38 508.79,328.69 511.73,315.24 514.69,301.81 517.63,288.35 520.57,275.85 523.52,264.05 526.47,252.26 529.41,240.43 532.36,229.19 535.30,219.29 538.24,209.36 541.20,199.46 544.14,189.56 547.08,181.88 550.03,174.16 552.97,166.47 555.92,158.76 558.87,152.78 561.81,147.49 564.75,142.20 567.71,136.91 570.65,132.64 573.59,129.74 576.54,126.87 579.48,123.98 582.42,121.40 585.38,120.66 588.32,119.92 591.26,119.19 594.21,118.45 597.16,119.19 600.10,120.19 603.05,121.19 605.99,122.19 608.93,123.82 611.89,125.95 614.83,128.08 617.77,130.19 620.72,132.43 623.66,134.90 626.60,137.41 629.56,139.88 632.50,142.36 635.44,144.86 638.40,147.33 641.34,149.83 644.28,152.31 647.23,155.07 650.17,157.94 653.11,160.81 656.07,163.68 659.01,166.84 661.95,170.34 664.90,173.85 667.84,177.37 670.79,181.01 673.74,185.35 676.68,189.70 679.62,194.04 682.58,198.39 685.52,204.52 688.46,210.97 691.41,217.40 694.35,223.82 697.29,232.77 700.25,243.62 703.19,254.47 706.13,265.32 709.08,277.80 712.03,294.41 714.97,311.02 717.92,327.64 720.86,344.25 723.80,363.37 726.76,382.48 729.70,401.60 732.64,420.71 735.59,436.77 738.53,451.62 741.48,466.47 744.43,481.35 747.37,493.28 750.31,501.36 753.27,509.44 756.21,517.53 759.15,525.08 762.10,529.38 765.04,533.69 767.98,538.01 770.94,542.30 773.88,545.67 776.82,548.89 779.77,552.10 782.72,555.31 785.66,558.34 788.61,561.26 791.55,564.16 794.49,567.08 797.45,569.92 800.39,572.64 803.33,575.37 806.28,578.09 809.22,580.80 812.17,583.30 815.12,585.77 818.06,588.28 821.00,590.78 823.96,593.04 826.90,595.20 829.84,597.36 832.79,599.52 835.73,601.41 838.67,602.99 841.63,604.57 844.57,606.15 847.51,607.63 850.46,608.42 853.41,609.21 856.35,610.02 859.30,610.81 862.24,610.26 865.18,609.45 868.14,608.66 871.08,607.84 874.02,604.86 876.97,600.26 879.91,595.65 882.85,591.04 885.81,585.54 888.75,577.82 891.69,570.13 894.65,562.45 897.59,554.73 900.53,547.68 903.48,540.62 906.42,533.56 909.36,526.51 912.32,521.06 915.26,516.26 918.20,511.45 921.15,506.63 924.09,501.81 927.04,496.91 929.99,492.01 932.93,487.12 935.87,481.96 938.83,475.19 941.77,468.45 944.71,461.68 947.66,454.92 950.60,446.41 953.54,437.62 956.50,428.82 959.44,420.03 962.38,410.87 965.33,401.47 968.28,392.04 971.22,382.64 974.17,373.66 977.11,365.76 980.05,357.86 983.01,349.97 985.95,342.04 988.89,337.72 991.84,333.38 994.78,329.06 997.73,324.72 1000.68,323.85 1003.62,324.35 1006.56,324.85 1009.52,325.35 1012.46,328.06 1015.40,333.77 1018.35,339.46 1021.29,345.15 1024.23,351.44 1027.19,361.47 1030.13,371.50 1033.07,381.53 1036.02,391.57 1038.97,404.55 1041.91,418.00 1044.86,431.48 1047.80,444.96 1050.74,457.94 1053.70,470.56 1056.64,483.17 1059.58,495.75 1062.53,506.02 1065.47,510.45 1068.42,514.87 1071.37,519.27 1074.31,523.69" fill="none" stroke="#000000" stroke-width="3"/>
<line x1="142" y1="100" x2="178" y2="100" stroke="#000000" stroke-width="4"/>
<text x="188" y="105" font-family="Arial" font-size="18" fill="black">|U|</text>
</svg>