<svg xmlns="http://www.w3.org/2000/svg" width="1200" height="820" viewBox="0 0 1200 820">
<rect width="100%" height="100%" fill="white"/>
<text x="600.0" y="36" text-anchor="middle" font-family="Arial" font-size="24" fill="black">profile_near_floor_x: p</text>
<line x1="120.00" y1="75" x2="120.00" y2="705" stroke="#dddddd" stroke-width="1"/>
<text x="120.00" y="737" text-anchor="middle" font-family="Arial" font-size="16" fill="black">-0.560</text>
<line x1="376.25" y1="75" x2="376.25" y2="705" stroke="#dddddd" stroke-width="1"/>
<text x="376.25" y="737" text-anchor="middle" font-family="Arial" font-size="16" fill="black">1.470</text>
<line x1="632.50" y1="75" x2="632.50" y2="705" stroke="#dddddd" stroke-width="1"/>
<text x="632.50" y="737" text-anchor="middle" font-family="Arial" font-size="16" fill="black">3.500</text>
<line x1="888.75" y1="75" x2="888.75" y2="705" stroke="#dddddd" stroke-width="1"/>
<text x="888.75" y="737" text-anchor="middle" font-family="Arial" font-size="16" fill="black">5.530</text>
<line x1="1145.00" y1="75" x2="1145.00" y2="705" stroke="#dddddd" stroke-width="1"/>
<text x="1145.00" y="737" text-anchor="middle" font-family="Arial" font-size="16" fill="black">7.560</text>
<line x1="120" y1="705.00" x2="1145" y2="705.00" stroke="#dddddd" stroke-width="1"/>
<text x="104" y="710.00" text-anchor="end" font-family="Arial" font-size="16" fill="black">-1.284</text>
<line x1="120" y1="547.50" x2="1145" y2="547.50" stroke="#dddddd" stroke-width="1"/>
<text x="104" y="552.50" text-anchor="end" font-family="Arial" font-size="16" fill="black">-1.240</text>
<line x1="120" y1="390.00" x2="1145" y2="390.00" stroke="#dddddd" stroke-width="1"/>
<text x="104" y="395.00" text-anchor="end" font-family="Arial" font-size="16" fill="black">-1.196</text>
<line x1="120" y1="232.50" x2="1145" y2="232.50" stroke="#dddddd" stroke-width="1"/>
<text x="104" y="237.50" text-anchor="end" font-family="Arial" font-size="16" fill="black">-1.152</text>
<line x1="120" y1="75.00" x2="1145" y2="75.00" stroke="#dddddd" stroke-width="1"/>
<text x="104" y="80.00" text-anchor="end" font-family="Arial" font-size="16" fill="black">-1.108</text>
<rect x="120" y="75" width="1025" height="630" fill="none" stroke="black" stroke-width="2"/>
<text x="632.5" y="785" text-anchor="middle" font-family="Arial" font-size="20" fill="black">x coordinate [m]</text>
<text x="34" y="390.0" transform="rotate(-90 34 390.0)" text-anchor="middle" font-family="Arial" font-size="20" fill="black">p [Pa]</text>
<polyline points="190.69,433.10 193.64,433.10 196.58,432.74 199.53,432.39 202.47,432.03 205.42,430.95 208.36,429.51 211.31,428.07 214.25,427.00 217.20,425.20 220.14,423.05 223.09,420.89 226.03,418.38 228.98,416.22 231.93,414.43 234.87,412.27 237.82,410.11 240.76,407.96 243.71,406.16 246.65,404.73 249.60,402.93 252.54,401.49 255.49,400.06 258.43,399.34 261.38,398.26 264.32,397.54 267.27,396.82 270.22,396.47 273.16,396.47 276.11,396.47 279.05,396.11 282.00,396.47 284.94,396.47 287.89,396.47 290.83,396.47 293.78,397.18 296.72,398.26 299.67,399.34 302.62,400.42 305.56,398.26 308.51,391.80 311.45,385.69 314.40,379.22 317.34,373.48 320.29,371.68 323.23,369.53 326.17,367.37 329.13,365.57 332.07,369.89 335.01,375.63 337.96,381.38 340.91,386.77 343.85,389.64 346.80,390.00 349.74,390.72 352.68,391.08 355.64,391.08 358.58,390.00 361.52,389.28 364.47,388.20 367.41,387.13 370.35,381.74 373.31,376.35 376.25,370.60 379.19,365.22 382.15,356.24 385.09,345.82 388.03,335.76 390.98,325.34 393.92,307.03 396.86,277.93 399.82,248.84 402.76,219.38 405.70,193.52 408.65,185.62 411.59,178.07 414.54,170.17 417.49,162.27 420.43,176.28 423.37,193.52 426.33,210.76 429.27,228.00 432.21,235.19 435.16,235.19 438.10,235.19 441.04,234.83 444.00,232.67 446.94,226.21 449.88,219.38 452.83,212.56 455.78,206.09 458.72,197.47 461.67,188.49 464.61,179.87 467.55,171.25 470.51,163.35 473.45,155.80 476.39,148.26 479.34,141.08 482.28,134.97 485.23,130.66 488.18,126.35 491.12,122.40 494.06,118.45 497.02,118.45 499.96,118.45 502.90,118.45 505.85,118.45 508.79,122.76 511.73,127.43 514.69,132.46 517.63,137.13 520.57,146.47 523.52,158.68 526.47,170.89 529.41,183.10 532.36,196.75 535.30,215.07 538.24,233.03 541.20,250.99 544.14,269.31 547.08,283.68 550.03,298.05 552.97,312.41 555.92,327.14 558.87,331.81 561.81,333.25 564.75,334.32 567.71,335.40 570.65,326.78 573.59,305.23 576.54,283.32 579.48,261.77 582.42,244.17 585.38,252.79 588.32,261.05 591.26,269.31 594.21,277.57 597.16,306.67 600.10,338.99 603.05,371.68 605.99,404.01 608.93,423.41 611.89,432.74 614.83,442.44 617.77,452.14 620.72,460.40 623.66,465.43 626.60,470.46 629.56,475.49 632.50,480.52 635.44,481.59 638.40,483.03 641.34,484.47 644.28,485.91 647.23,486.62 650.17,487.34 653.11,488.06 656.07,488.42 659.01,483.75 661.95,471.90 664.90,459.68 667.84,447.83 670.79,437.77 673.74,440.65 676.68,443.52 679.62,446.03 682.58,448.91 685.52,463.99 688.46,480.88 691.41,498.12 694.35,515.36 697.29,522.18 700.25,521.82 703.19,521.11 706.13,520.75 709.08,518.23 712.03,510.69 714.97,503.15 717.92,495.60 720.86,488.06 723.80,479.80 726.76,471.54 729.70,463.28 732.64,455.01 735.59,450.34 738.53,447.11 741.48,443.88 744.43,440.65 747.37,439.93 750.31,442.44 753.27,444.96 756.21,447.47 759.15,451.06 762.10,459.68 765.04,468.30 767.98,477.28 770.94,485.91 773.88,498.84 776.82,512.49 779.77,526.49 782.72,540.14 785.66,554.51 788.61,569.24 791.55,583.97 794.49,599.05 797.45,612.70 800.39,623.48 803.33,634.25 806.28,645.39 809.22,656.16 812.17,657.60 815.12,659.04 818.06,660.47 821.00,661.55 823.96,655.45 826.90,646.11 829.84,637.13 832.79,627.79 835.73,611.62 838.67,585.76 841.63,560.26 844.57,534.40 847.51,512.49 850.46,511.77 853.41,511.41 856.35,510.69 859.30,509.97 862.24,526.49 865.18,545.17 868.14,564.21 871.08,583.25 874.02,592.23 876.97,592.95 879.91,594.02 882.85,595.10 885.81,595.46 888.75,594.02 891.69,592.95 894.65,591.51 897.59,590.43 900.53,586.48 903.48,582.89 906.42,578.94 909.36,574.99 912.32,571.39 915.26,567.80 918.20,564.21 921.15,560.62 924.09,551.64 927.04,535.11 929.99,518.59 932.93,502.07 935.87,487.34 938.83,485.55 941.77,483.75 944.71,481.59 947.66,479.80 950.60,492.01 953.54,506.74 956.50,521.47 959.44,536.19 962.38,541.58 965.33,539.43 968.28,537.27 971.22,535.47 974.17,531.16 977.11,521.11 980.05,511.05 983.01,501.35 985.95,491.29 988.89,481.59 991.84,472.26 994.78,462.56 997.73,453.22 1000.68,449.99 1003.62,449.63 1006.56,449.27 1009.52,448.91 1012.46,452.50 1015.40,462.20 1018.35,471.54 1021.29,481.24 1024.23,491.29 1027.19,506.38 1030.13,521.11 1033.07,536.19 1036.02,550.92 1038.97,562.77 1041.91,573.91 1044.86,585.04 1047.80,595.82 1050.74,599.05 1053.70,596.54 1056.64,594.02 1059.58,591.15 1062.53,587.92 1065.47,582.17 1068.42,576.42 1071.37,570.68 1074.31,564.93" fill="none" stroke="#000000" stroke-width="3"/>
<line x1="142" y1="100" x2="178" y2="100" stroke="#000000" stroke-width="4"/>
<text x="188" y="105" font-family="Arial" font-size="18" fill="black">p</text>
</svg>