<svg xmlns="http://www.w3.org/2000/svg" width="1200" height="820" viewBox="0 0 1200 820">
<rect width="100%" height="100%" fill="white"/>
<text x="600.0" y="36" text-anchor="middle" font-family="Arial" font-size="24" fill="black">profile_diagonal_supply_return: T</text>
<line x1="120.00" y1="75" x2="120.00" y2="705" stroke="#dddddd" stroke-width="1"/>
<text x="120.00" y="737" text-anchor="middle" font-family="Arial" font-size="16" fill="black">-0.729</text>
<line x1="376.25" y1="75" x2="376.25" y2="705" stroke="#dddddd" stroke-width="1"/>
<text x="376.25" y="737" text-anchor="middle" font-family="Arial" font-size="16" fill="black">1.913</text>
<line x1="632.50" y1="75" x2="632.50" y2="705" stroke="#dddddd" stroke-width="1"/>
<text x="632.50" y="737" text-anchor="middle" font-family="Arial" font-size="16" fill="black">4.555</text>
<line x1="888.75" y1="75" x2="888.75" y2="705" stroke="#dddddd" stroke-width="1"/>
<text x="888.75" y="737" text-anchor="middle" font-family="Arial" font-size="16" fill="black">7.197</text>
<line x1="1145.00" y1="75" x2="1145.00" y2="705" stroke="#dddddd" stroke-width="1"/>
<text x="1145.00" y="737" text-anchor="middle" font-family="Arial" font-size="16" fill="black">9.839</text>
<line x1="120" y1="705.00" x2="1145" y2="705.00" stroke="#dddddd" stroke-width="1"/>
<text x="104" y="710.00" text-anchor="end" font-family="Arial" font-size="16" fill="black">294.4</text>
<line x1="120" y1="547.50" x2="1145" y2="547.50" stroke="#dddddd" stroke-width="1"/>
<text x="104" y="552.50" text-anchor="end" font-family="Arial" font-size="16" fill="black">298.4</text>
<line x1="120" y1="390.00" x2="1145" y2="390.00" stroke="#dddddd" stroke-width="1"/>
<text x="104" y="395.00" text-anchor="end" font-family="Arial" font-size="16" fill="black">302.4</text>
<line x1="120" y1="232.50" x2="1145" y2="232.50" stroke="#dddddd" stroke-width="1"/>
<text x="104" y="237.50" text-anchor="end" font-family="Arial" font-size="16" fill="black">306.4</text>
<line x1="120" y1="75.00" x2="1145" y2="75.00" stroke="#dddddd" stroke-width="1"/>
<text x="104" y="80.00" text-anchor="end" font-family="Arial" font-size="16" fill="black">310.4</text>
<rect x="120" y="75" width="1025" height="630" fill="none" stroke="black" stroke-width="2"/>
<text x="632.5" y="785" text-anchor="middle" font-family="Arial" font-size="20" fill="black">distance along sample line [m]</text>
<text x="34" y="390.0" transform="rotate(-90 34 390.0)" text-anchor="middle" font-family="Arial" font-size="20" fill="black">T [K]</text>
<polyline points="190.69,512.93 193.64,512.93 196.58,512.93 199.53,512.54 202.47,512.54 205.42,512.54 208.36,512.15 211.31,512.54 214.25,513.33 217.20,514.11 220.14,514.50 223.09,514.89 226.03,515.68 228.98,518.03 231.93,519.60 234.87,520.78 237.82,521.17 240.76,521.56 243.71,520.38 246.65,520.38 249.60,520.38 252.54,519.21 255.49,518.03 258.43,515.68 261.38,512.93 264.32,510.97 267.27,509.01 270.22,506.66 273.16,503.13 276.11,498.82 279.05,494.11 282.00,491.76 284.94,488.62 287.88,484.31 290.83,478.82 293.78,474.50 296.73,469.80 299.67,465.88 302.62,460.39 305.57,455.29 308.50,451.37 311.45,446.27 314.40,440.39 317.34,434.51 320.29,432.15 323.24,428.63 326.18,423.92 329.12,418.43 332.07,416.08 335.01,413.72 337.96,410.59 340.91,407.45 343.85,404.70 346.80,402.74 349.74,400.78 352.68,397.25 355.63,393.73 358.58,390.59 361.53,387.06 364.47,383.14 367.42,379.22 370.36,378.04 373.30,376.47 376.25,374.90 379.20,372.94 382.14,370.98 385.09,368.63 388.04,371.77 390.97,374.90 393.92,378.04 396.87,381.96 399.81,385.49 402.76,388.63 405.71,394.90 408.65,403.53 411.59,412.16 414.54,420.78 417.48,429.41 420.43,437.25 423.38,446.27 426.32,454.90 429.27,463.52 432.21,469.41 435.16,472.94 438.10,476.86 441.05,481.56 444.00,485.48 446.94,488.23 449.89,491.37 452.84,494.11 455.77,497.25 458.72,498.03 461.67,498.82 464.61,498.82 467.56,498.82 470.51,496.86 473.45,494.50 476.39,490.97 479.34,486.66 482.28,481.96 485.23,477.64 488.18,472.54 491.12,467.45 494.07,461.17 497.01,456.07 499.96,450.98 502.90,445.88 505.85,441.17 508.80,436.86 511.74,432.55 514.69,428.23 517.63,423.92 520.57,420.00 523.52,416.08 526.47,412.16 529.41,407.84 532.36,403.53 535.31,399.22 538.24,394.90 541.19,390.59 544.14,386.27 547.08,384.31 550.03,382.35 552.98,381.18 555.92,380.39 558.86,383.14 561.81,387.84 564.76,395.69 567.70,403.92 570.65,416.08 573.60,432.94 576.54,451.37 579.49,469.41 582.43,490.19 585.37,514.50 588.32,538.03 591.27,560.38 594.21,582.34 597.16,603.12 600.11,621.95 603.04,641.95 605.99,654.89 608.94,660.77 611.88,661.55 614.83,660.77 617.78,653.71 620.72,643.91 623.66,628.61 626.61,613.32 629.55,597.63 632.50,581.16 635.45,558.42 638.40,535.68 641.34,512.15 644.28,488.62 647.23,462.35 650.17,435.29 653.12,407.84 656.07,380.39 659.01,352.55 661.96,324.32 664.90,310.59 667.84,296.08 670.79,281.58 673.74,266.67 676.68,251.77 679.63,236.87 682.58,222.36 685.51,208.25 688.46,196.09 691.41,184.72 694.35,174.92 697.30,165.90 700.25,157.27 703.20,148.64 706.14,143.15 709.08,138.45 712.03,134.13 714.97,130.21 717.92,126.29 720.87,122.76 723.81,122.37 726.76,122.37 729.70,122.76 732.64,122.76 735.59,123.15 738.54,123.55 741.48,125.90 744.43,128.25 747.38,130.60 750.31,132.96 753.26,135.31 756.21,137.27 759.15,140.41 762.10,143.54 765.05,146.29 767.99,149.03 770.93,151.39 773.88,153.74 776.83,156.49 779.77,158.84 782.72,161.19 785.67,163.15 788.61,164.72 791.55,166.68 794.50,168.25 797.44,169.82 800.39,170.99 803.34,171.78 806.28,172.95 809.23,174.13 812.17,173.35 815.11,172.95 818.06,172.95 821.01,172.56 823.95,170.99 826.90,169.43 829.85,166.68 832.79,164.33 835.73,160.80 838.68,154.92 841.63,150.21 844.57,145.90 847.52,141.19 850.47,136.09 853.41,131.39 856.35,127.47 859.30,123.94 862.24,122.37 865.19,120.80 868.14,119.62 871.08,118.45 874.03,118.45 876.97,118.84 879.91,119.62 882.86,120.80 885.81,121.98 888.75,124.33 891.70,126.68 894.65,128.25 897.58,130.21 900.53,132.96 903.48,136.09 906.43,138.84 909.37,141.19 912.32,145.11 915.27,149.03 918.20,151.78 921.15,154.52 924.10,158.05 927.04,161.97 929.99,165.50 932.94,169.03 935.88,171.78 938.82,175.31 941.77,178.84 944.71,181.58 947.66,184.72 950.61,187.07 953.55,189.82 956.50,192.17 959.44,194.52 962.38,196.87 965.33,198.84 968.28,200.80 971.22,202.76 974.17,204.72 977.12,206.68 980.06,208.64 983.00,210.60 985.95,212.56 988.90,214.91 991.84,217.66 994.79,220.40 997.74,223.15 1000.68,226.28 1003.62,229.81 1006.57,234.13 1009.51,239.23 1012.46,244.32 1015.41,250.20 1018.35,256.09 1021.30,262.36 1024.24,270.60 1027.18,278.44 1030.13,285.89 1033.08,293.34 1036.02,300.40 1038.97,307.06 1041.92,312.55 1044.86,317.26 1047.80,321.18 1050.75,324.71 1053.70,327.45 1056.64,330.20 1059.59,330.98 1062.54,331.77 1065.47,331.77 1068.42,331.38 1071.37,331.38 1074.31,331.38" fill="none" stroke="#000000" stroke-width="3"/>
<line x1="142" y1="100" x2="178" y2="100" stroke="#000000" stroke-width="4"/>
<text x="188" y="105" font-family="Arial" font-size="18" fill="black">T</text>
</svg>