<svg xmlns="http://www.w3.org/2000/svg" width="1200" height="820" viewBox="0 0 1200 820">
<rect width="100%" height="100%" fill="white"/>
<text x="600.0" y="36" text-anchor="middle" font-family="Arial" font-size="24" fill="black">profile_near_ceiling_x: p</text>
<line x1="120.00" y1="75" x2="120.00" y2="705" stroke="#dddddd" stroke-width="1"/>
<text x="120.00" y="737" text-anchor="middle" font-family="Arial" font-size="16" fill="black">-0.560</text>
<line x1="376.25" y1="75" x2="376.25" y2="705" stroke="#dddddd" stroke-width="1"/>
<text x="376.25" y="737" text-anchor="middle" font-family="Arial" font-size="16" fill="black">1.470</text>
<line x1="632.50" y1="75" x2="632.50" y2="705" stroke="#dddddd" stroke-width="1"/>
<text x="632.50" y="737" text-anchor="middle" font-family="Arial" font-size="16" fill="black">3.500</text>
<line x1="888.75" y1="75" x2="888.75" y2="705" stroke="#dddddd" stroke-width="1"/>
<text x="888.75" y="737" text-anchor="middle" font-family="Arial" font-size="16" fill="black">5.530</text>
<line x1="1145.00" y1="75" x2="1145.00" y2="705" stroke="#dddddd" stroke-width="1"/>
<text x="1145.00" y="737" text-anchor="middle" font-family="Arial" font-size="16" fill="black">7.560</text>
<line x1="120" y1="705.00" x2="1145" y2="705.00" stroke="#dddddd" stroke-width="1"/>
<text x="104" y="710.00" text-anchor="end" font-family="Arial" font-size="16" fill="black">-32.76</text>
<line x1="120" y1="547.50" x2="1145" y2="547.50" stroke="#dddddd" stroke-width="1"/>
<text x="104" y="552.50" text-anchor="end" font-family="Arial" font-size="16" fill="black">-32.73</text>
<line x1="120" y1="390.00" x2="1145" y2="390.00" stroke="#dddddd" stroke-width="1"/>
<text x="104" y="395.00" text-anchor="end" font-family="Arial" font-size="16" fill="black">-32.70</text>
<line x1="120" y1="232.50" x2="1145" y2="232.50" stroke="#dddddd" stroke-width="1"/>
<text x="104" y="237.50" text-anchor="end" font-family="Arial" font-size="16" fill="black">-32.67</text>
<line x1="120" y1="75.00" x2="1145" y2="75.00" stroke="#dddddd" stroke-width="1"/>
<text x="104" y="80.00" text-anchor="end" font-family="Arial" font-size="16" fill="black">-32.64</text>
<rect x="120" y="75" width="1025" height="630" fill="none" stroke="black" stroke-width="2"/>
<text x="632.5" y="785" text-anchor="middle" font-family="Arial" font-size="20" fill="black">x coordinate [m]</text>
<text x="34" y="390.0" transform="rotate(-90 34 390.0)" text-anchor="middle" font-family="Arial" font-size="20" fill="black">p [Pa]</text>
<polyline points="190.69,477.10 193.64,482.23 196.58,487.35 199.53,487.35 202.47,492.47 205.42,497.60 208.36,502.72 211.31,507.84 214.25,518.09 217.20,523.21 220.14,528.34 223.09,528.34 226.03,533.46 228.98,538.58 231.93,543.71 234.87,548.83 237.82,553.96 240.76,559.08 243.71,564.20 246.65,569.33 249.60,574.45 252.54,579.57 255.49,584.70 258.43,589.82 261.38,589.82 264.32,594.94 267.27,600.07 270.22,600.07 273.16,605.19 276.11,605.19 279.05,610.32 282.00,610.32 284.94,610.32 287.89,615.44 290.83,615.44 293.78,615.44 296.72,610.32 299.67,610.32 302.62,610.32 305.56,610.32 308.51,605.19 311.45,605.19 314.40,600.07 317.34,594.94 320.29,594.94 323.23,589.82 326.17,584.70 329.13,579.57 332.07,574.45 335.01,569.33 337.96,559.08 340.91,553.96 343.85,548.83 346.80,543.71 349.74,533.46 352.68,528.34 355.64,523.21 358.58,518.09 361.52,512.97 364.47,507.84 367.41,497.60 370.35,497.60 373.31,492.47 376.25,487.35 379.19,487.35 382.15,487.35 385.09,482.23 388.03,482.23 390.98,482.23 393.92,482.23 396.86,482.23 399.82,482.23 402.76,487.35 405.70,487.35 408.65,482.23 411.59,482.23 414.54,482.23 417.49,482.23 420.43,477.10 423.37,471.98 426.33,471.98 429.27,466.85 432.21,461.73 435.16,456.61 438.10,451.48 441.04,446.36 444.00,436.11 446.94,430.99 449.88,425.87 452.83,420.74 455.78,415.62 458.72,415.62 461.67,415.62 464.61,415.62 467.55,415.62 470.51,420.74 473.45,425.87 476.39,430.99 479.34,441.24 482.28,446.36 485.23,456.61 488.18,466.85 491.12,477.10 494.06,492.47 497.02,502.72 499.96,512.97 502.90,523.21 505.85,533.46 508.79,543.71 511.73,553.96 514.69,564.20 517.63,574.45 520.57,584.70 523.52,589.82 526.47,600.07 529.41,605.19 532.36,615.44 535.30,620.56 538.24,625.69 541.20,630.81 544.14,635.93 547.08,641.06 550.03,646.18 552.97,651.30 555.92,651.30 558.87,656.43 561.81,656.43 564.75,656.43 567.71,661.55 570.65,661.55 573.59,661.55 576.54,656.43 579.48,656.43 582.42,656.43 585.38,656.43 588.32,651.30 591.26,646.18 594.21,646.18 597.16,641.06 600.10,635.93 603.05,630.81 605.99,625.69 608.93,620.56 611.89,610.32 614.83,605.19 617.77,600.07 620.72,589.82 623.66,579.57 626.60,574.45 629.56,564.20 632.50,553.96 635.44,543.71 638.40,533.46 641.34,518.09 644.28,507.84 647.23,497.60 650.17,482.23 653.11,471.98 656.07,456.61 659.01,441.24 661.95,425.87 664.90,415.62 667.84,400.25 670.79,384.88 673.74,369.51 676.68,354.13 679.62,338.76 682.58,323.39 685.52,308.02 688.46,292.65 691.41,277.28 694.35,261.91 697.29,251.66 700.25,236.29 703.19,226.04 706.13,210.67 709.08,200.43 712.03,190.18 714.97,185.06 717.92,174.81 720.86,164.56 723.80,164.56 726.76,159.44 729.70,154.31 732.64,149.19 735.59,149.19 738.53,144.07 741.48,144.07 744.43,144.07 747.37,144.07 750.31,144.07 753.27,144.07 756.21,138.94 759.15,138.94 762.10,138.94 765.04,138.94 767.98,138.94 770.94,138.94 773.88,133.82 776.82,133.82 779.77,133.82 782.72,133.82 785.66,133.82 788.61,128.70 791.55,128.70 794.49,128.70 797.45,128.70 800.39,123.57 803.33,123.57 806.28,123.57 809.22,123.57 812.17,123.57 815.12,123.57 818.06,118.45 821.00,118.45 823.96,118.45 826.90,118.45 829.84,118.45 832.79,118.45 835.73,123.57 838.67,123.57 841.63,123.57 844.57,123.57 847.51,128.70 850.46,128.70 853.41,133.82 856.35,133.82 859.30,138.94 862.24,138.94 865.18,144.07 868.14,149.19 871.08,154.31 874.02,159.44 876.97,164.56 879.91,169.68 882.85,174.81 885.81,179.93 888.75,185.06 891.69,195.30 894.65,200.43 897.59,205.55 900.53,210.67 903.48,220.92 906.42,226.04 909.36,236.29 912.32,241.42 915.26,246.54 918.20,256.79 921.15,261.91 924.09,267.03 927.04,277.28 929.99,282.40 932.93,287.53 935.87,292.65 938.83,297.77 941.77,302.90 944.71,308.02 947.66,313.15 950.60,318.27 953.54,323.39 956.50,328.52 959.44,328.52 962.38,333.64 965.33,338.76 968.28,338.76 971.22,343.89 974.17,343.89 977.11,349.01 980.05,349.01 983.01,349.01 985.95,354.13 988.89,354.13 991.84,354.13 994.78,354.13 997.73,354.13 1000.68,349.01 1003.62,349.01 1006.56,349.01 1009.52,343.89 1012.46,343.89 1015.40,338.76 1018.35,333.64 1021.29,328.52 1024.23,323.39 1027.19,313.15 1030.13,308.02 1033.07,302.90 1036.02,292.65 1038.97,287.53 1041.91,277.28 1044.86,267.03 1047.80,256.79 1050.74,251.66 1053.70,241.42 1056.64,231.17 1059.58,220.92 1062.53,210.67 1065.47,205.55 1068.42,200.43 1071.37,195.30 1074.31,190.18" fill="none" stroke="#000000" stroke-width="3"/>
<line x1="142" y1="100" x2="178" y2="100" stroke="#000000" stroke-width="4"/>
<text x="188" y="105" font-family="Arial" font-size="18" fill="black">p</text>
</svg>