<svg xmlns="http://www.w3.org/2000/svg" width="1200" height="820" viewBox="0 0 1200 820">
<rect width="100%" height="100%" fill="white"/>
<text x="600.0" y="36" text-anchor="middle" font-family="Arial" font-size="24" fill="black">profile_near_ceiling_x: T</text>
<line x1="120.00" y1="75" x2="120.00" y2="705" stroke="#dddddd" stroke-width="1"/>
<text x="120.00" y="737" text-anchor="middle" font-family="Arial" font-size="16" fill="black">-0.560</text>
<line x1="376.25" y1="75" x2="376.25" y2="705" stroke="#dddddd" stroke-width="1"/>
<text x="376.25" y="737" text-anchor="middle" font-family="Arial" font-size="16" fill="black">1.470</text>
<line x1="632.50" y1="75" x2="632.50" y2="705" stroke="#dddddd" stroke-width="1"/>
<text x="632.50" y="737" text-anchor="middle" font-family="Arial" font-size="16" fill="black">3.500</text>
<line x1="888.75" y1="75" x2="888.75" y2="705" stroke="#dddddd" stroke-width="1"/>
<text x="888.75" y="737" text-anchor="middle" font-family="Arial" font-size="16" fill="black">5.530</text>
<line x1="1145.00" y1="75" x2="1145.00" y2="705" stroke="#dddddd" stroke-width="1"/>
<text x="1145.00" y="737" text-anchor="middle" font-family="Arial" font-size="16" fill="black">7.560</text>
<line x1="120" y1="705.00" x2="1145" y2="705.00" stroke="#dddddd" stroke-width="1"/>
<text x="104" y="710.00" text-anchor="end" font-family="Arial" font-size="16" fill="black">301.9</text>
<line x1="120" y1="547.50" x2="1145" y2="547.50" stroke="#dddddd" stroke-width="1"/>
<text x="104" y="552.50" text-anchor="end" font-family="Arial" font-size="16" fill="black">303.8</text>
<line x1="120" y1="390.00" x2="1145" y2="390.00" stroke="#dddddd" stroke-width="1"/>
<text x="104" y="395.00" text-anchor="end" font-family="Arial" font-size="16" fill="black">305.6</text>
<line x1="120" y1="232.50" x2="1145" y2="232.50" stroke="#dddddd" stroke-width="1"/>
<text x="104" y="237.50" text-anchor="end" font-family="Arial" font-size="16" fill="black">307.5</text>
<line x1="120" y1="75.00" x2="1145" y2="75.00" stroke="#dddddd" stroke-width="1"/>
<text x="104" y="80.00" text-anchor="end" font-family="Arial" font-size="16" fill="black">309.4</text>
<rect x="120" y="75" width="1025" height="630" fill="none" stroke="black" stroke-width="2"/>
<text x="632.5" y="785" text-anchor="middle" font-family="Arial" font-size="20" fill="black">x coordinate [m]</text>
<text x="34" y="390.0" transform="rotate(-90 34 390.0)" text-anchor="middle" font-family="Arial" font-size="20" fill="black">T [K]</text>
<polyline points="190.69,170.90 193.64,202.20 196.58,232.65 199.53,263.95 202.47,295.25 205.42,340.93 208.36,393.38 211.31,445.83 214.25,497.44 217.20,538.89 220.14,564.27 223.09,590.49 226.03,615.87 228.98,638.71 231.93,644.63 234.87,649.71 237.82,654.78 240.76,659.86 243.71,660.71 246.65,661.55 249.60,661.55 252.54,661.55 255.49,660.71 258.43,659.01 261.38,658.17 264.32,656.48 267.27,654.78 270.22,652.25 273.16,650.55 276.11,648.02 279.05,645.48 282.00,642.09 284.94,639.56 287.89,636.17 290.83,632.79 293.78,629.41 296.72,625.18 299.67,620.95 302.62,616.72 305.56,612.49 308.51,607.41 311.45,602.33 314.40,597.26 317.34,592.18 320.29,586.26 323.23,579.49 326.17,573.57 329.13,566.80 332.07,558.35 335.01,549.89 337.96,540.58 340.91,532.12 343.85,520.28 346.80,506.74 349.74,493.21 352.68,479.67 355.64,465.29 358.58,448.37 361.52,431.45 364.47,414.53 367.41,397.61 370.35,385.77 373.31,373.93 376.25,362.08 379.19,350.24 382.15,346.01 385.09,346.01 388.03,345.16 390.98,345.16 393.92,348.55 396.86,357.01 399.82,366.31 402.76,374.77 405.70,383.23 408.65,391.69 411.59,401.00 414.54,409.46 417.49,417.92 420.43,421.30 423.37,422.99 426.33,425.53 429.27,427.22 432.21,423.84 435.16,415.38 438.10,407.77 441.04,399.31 444.00,388.31 446.94,371.39 449.88,353.62 452.83,335.86 455.78,318.94 458.72,298.64 461.67,278.33 464.61,258.03 467.55,237.73 470.51,223.35 473.45,210.66 476.39,198.81 479.34,186.12 482.28,177.67 485.23,173.44 488.18,169.21 491.12,165.82 494.06,162.44 497.02,160.75 499.96,159.05 502.90,157.36 505.85,154.82 508.79,153.98 511.73,152.29 514.69,150.59 517.63,149.75 520.57,148.06 523.52,147.21 526.47,145.52 529.41,144.67 532.36,142.98 535.30,142.14 538.24,140.44 541.20,139.60 544.14,138.75 547.08,137.91 550.03,137.06 552.97,136.21 555.92,135.37 558.87,134.52 561.81,133.68 564.75,133.68 567.71,132.83 570.65,132.83 573.59,132.83 576.54,132.83 579.48,132.83 582.42,132.83 585.38,133.68 588.32,134.52 591.26,134.52 594.21,135.37 597.16,136.21 600.10,137.06 603.05,137.91 605.99,138.75 608.93,140.44 611.89,141.29 614.83,142.98 617.77,143.83 620.72,145.52 623.66,147.21 626.60,148.90 629.56,149.75 632.50,151.44 635.44,153.13 638.40,153.98 641.34,155.67 644.28,157.36 647.23,158.21 650.17,159.05 653.11,159.90 656.07,160.75 659.01,161.59 661.95,161.59 664.90,161.59 667.84,161.59 670.79,160.75 673.74,159.90 676.68,158.21 679.62,157.36 682.58,155.67 685.52,153.13 688.46,149.75 691.41,146.36 694.35,143.83 697.29,139.60 700.25,136.21 703.19,131.98 706.13,127.75 709.08,124.37 712.03,122.68 714.97,121.83 717.92,120.14 720.86,118.45 723.80,124.37 726.76,130.29 729.70,136.21 732.64,142.14 735.59,152.29 738.53,163.28 741.48,175.13 744.43,186.12 747.37,197.12 750.31,207.27 753.27,216.58 756.21,225.88 759.15,235.19 762.10,239.42 765.04,242.80 767.98,247.03 770.94,251.26 773.88,251.26 776.82,251.26 779.77,250.42 782.72,250.42 785.66,247.88 788.61,245.34 791.55,242.80 794.49,239.42 797.45,236.04 800.39,232.65 803.33,228.42 806.28,224.19 809.22,219.96 812.17,215.73 815.12,211.50 818.06,207.27 821.00,203.89 823.96,199.66 826.90,196.28 829.84,192.89 832.79,189.51 835.73,186.97 838.67,184.43 841.63,182.74 844.57,181.05 847.51,179.36 850.46,180.20 853.41,181.05 856.35,181.89 859.30,182.74 862.24,186.97 865.18,192.05 868.14,197.12 871.08,202.20 874.02,208.97 876.97,217.43 879.91,225.88 882.85,234.34 885.81,242.80 888.75,252.11 891.69,260.57 894.65,269.87 897.59,278.33 900.53,285.95 903.48,292.72 906.42,300.33 909.36,307.10 912.32,313.02 915.26,318.94 918.20,324.02 921.15,329.94 924.09,335.01 927.04,340.93 929.99,346.01 932.93,351.09 935.87,357.01 938.83,363.78 941.77,369.70 944.71,375.62 947.66,382.39 950.60,389.15 953.54,396.77 956.50,403.54 959.44,411.15 962.38,418.76 965.33,426.38 968.28,433.99 971.22,442.45 974.17,450.06 977.11,457.68 980.05,465.29 983.01,472.90 985.95,481.36 988.89,488.13 991.84,495.74 994.78,502.51 997.73,510.13 1000.68,516.05 1003.62,521.97 1006.56,527.89 1009.52,534.66 1012.46,539.73 1015.40,544.81 1018.35,549.04 1021.29,554.12 1024.23,558.35 1027.19,561.73 1030.13,565.11 1033.07,568.50 1036.02,571.03 1038.97,573.57 1041.91,575.26 1044.86,577.80 1047.80,579.49 1050.74,581.19 1053.70,582.88 1056.64,583.72 1059.58,585.42 1062.53,586.26 1065.47,587.11 1068.42,587.95 1071.37,588.80 1074.31,589.65" fill="none" stroke="#000000" stroke-width="3"/>
<line x1="142" y1="100" x2="178" y2="100" stroke="#000000" stroke-width="4"/>
<text x="188" y="105" font-family="Arial" font-size="18" fill="black">T</text>
</svg>