<svg xmlns="http://www.w3.org/2000/svg" width="1200" height="820" viewBox="0 0 1200 820">
<rect width="100%" height="100%" fill="white"/>
<text x="600.0" y="36" text-anchor="middle" font-family="Arial" font-size="24" fill="black">profile_center_y: k</text>
<line x1="120.00" y1="75" x2="120.00" y2="705" stroke="#dddddd" stroke-width="1"/>
<text x="120.00" y="737" text-anchor="middle" font-family="Arial" font-size="16" fill="black">-0.400</text>
<line x1="376.25" y1="75" x2="376.25" y2="705" stroke="#dddddd" stroke-width="1"/>
<text x="376.25" y="737" text-anchor="middle" font-family="Arial" font-size="16" fill="black">1.050</text>
<line x1="632.50" y1="75" x2="632.50" y2="705" stroke="#dddddd" stroke-width="1"/>
<text x="632.50" y="737" text-anchor="middle" font-family="Arial" font-size="16" fill="black">2.500</text>
<line x1="888.75" y1="75" x2="888.75" y2="705" stroke="#dddddd" stroke-width="1"/>
<text x="888.75" y="737" text-anchor="middle" font-family="Arial" font-size="16" fill="black">3.950</text>
<line x1="1145.00" y1="75" x2="1145.00" y2="705" stroke="#dddddd" stroke-width="1"/>
<text x="1145.00" y="737" text-anchor="middle" font-family="Arial" font-size="16" fill="black">5.400</text>
<line x1="120" y1="705.00" x2="1145" y2="705.00" stroke="#dddddd" stroke-width="1"/>
<text x="104" y="710.00" text-anchor="end" font-family="Arial" font-size="16" fill="black">6.57e-04</text>
<line x1="120" y1="547.50" x2="1145" y2="547.50" stroke="#dddddd" stroke-width="1"/>
<text x="104" y="552.50" text-anchor="end" font-family="Arial" font-size="16" fill="black">0.006</text>
<line x1="120" y1="390.00" x2="1145" y2="390.00" stroke="#dddddd" stroke-width="1"/>
<text x="104" y="395.00" text-anchor="end" font-family="Arial" font-size="16" fill="black">0.012</text>
<line x1="120" y1="232.50" x2="1145" y2="232.50" stroke="#dddddd" stroke-width="1"/>
<text x="104" y="237.50" text-anchor="end" font-family="Arial" font-size="16" fill="black">0.017</text>
<line x1="120" y1="75.00" x2="1145" y2="75.00" stroke="#dddddd" stroke-width="1"/>
<text x="104" y="80.00" text-anchor="end" font-family="Arial" font-size="16" fill="black">0.023</text>
<rect x="120" y="75" width="1025" height="630" fill="none" stroke="black" stroke-width="2"/>
<text x="632.5" y="785" text-anchor="middle" font-family="Arial" font-size="20" fill="black">y coordinate [m]</text>
<text x="34" y="390.0" transform="rotate(-90 34 390.0)" text-anchor="middle" font-family="Arial" font-size="20" fill="black">k [m2/s2]</text>
<polyline points="190.69,633.04 193.64,624.25 196.58,615.47 199.53,606.68 202.47,597.90 205.42,589.11 208.36,580.32 211.31,567.46 214.25,554.59 217.20,541.73 220.14,528.87 223.09,516.00 226.03,503.14 228.98,495.49 231.92,487.84 234.87,480.19 237.82,472.54 240.76,464.89 243.71,457.24 246.65,449.93 249.60,442.61 252.54,435.30 255.49,427.98 258.43,420.66 261.38,413.34 264.33,405.62 267.27,397.90 270.22,390.18 273.16,382.43 276.11,374.70 279.05,366.98 282.00,359.34 284.94,351.71 287.89,344.07 290.83,336.44 293.78,328.80 296.72,321.14 299.67,315.29 302.61,309.41 305.56,303.53 308.51,297.65 311.45,291.80 314.40,285.92 317.34,282.93 320.29,279.93 323.23,276.93 326.18,273.94 329.12,270.94 332.07,267.94 335.01,265.32 337.96,262.70 340.91,260.05 343.85,257.42 346.80,254.80 349.74,252.15 352.69,245.75 355.63,239.33 358.58,232.90 361.52,226.51 364.47,220.08 367.41,213.65 370.37,204.92 373.30,196.16 376.25,187.43 379.20,178.67 382.13,169.94 385.09,161.18 388.04,156.46 390.97,151.73 393.92,147.00 396.87,142.28 399.81,137.55 402.76,132.80 405.71,133.66 408.64,134.50 411.59,135.33 414.55,136.20 417.48,137.03 420.43,137.87 423.38,140.18 426.32,142.51 429.27,144.81 432.22,147.12 435.15,149.42 438.10,151.76 441.05,152.77 443.99,153.80 446.94,154.81 449.89,155.85 452.82,156.89 455.78,157.90 458.73,157.87 461.66,157.84 464.61,157.78 467.56,157.75 470.50,157.72 473.45,157.69 476.40,157.64 479.33,157.61 482.28,157.58 485.24,157.55 488.17,157.52 491.12,157.49 494.07,157.93 497.01,158.36 499.96,158.82 502.91,159.25 505.84,159.68 508.79,160.12 511.74,160.37 514.68,160.61 517.63,160.86 520.58,161.10 523.51,161.33 526.47,161.58 529.42,160.20 532.35,158.85 535.30,157.46 538.25,156.08 541.19,154.73 544.14,153.34 547.09,150.03 550.02,146.72 552.97,143.40 555.93,140.09 558.86,136.75 561.81,133.43 564.76,130.95 567.70,128.45 570.65,125.94 573.60,123.46 576.53,120.96 579.48,118.45 582.43,120.00 585.37,121.53 588.32,123.09 591.27,124.61 594.20,126.17 597.16,127.70 600.11,131.91 603.04,136.08 605.99,140.26 608.94,144.44 611.88,148.65 614.83,152.83 617.78,156.25 620.71,159.71 623.66,163.14 626.62,166.60 629.55,170.03 632.50,173.49 635.45,175.73 638.38,177.98 641.34,180.23 644.29,182.48 647.22,184.72 650.17,186.97 653.12,189.05 656.06,191.15 659.01,193.22 661.96,195.33 664.89,197.40 667.84,199.51 670.80,202.13 673.73,204.72 676.68,207.34 679.63,209.97 682.57,212.59 685.52,215.21 688.47,218.84 691.40,222.50 694.35,226.16 697.30,229.82 700.24,233.48 703.19,237.14 706.14,242.12 709.07,247.14 712.03,252.15 714.98,257.17 717.91,262.15 720.86,267.16 723.81,273.27 726.75,279.38 729.70,285.49 732.65,291.60 735.58,297.71 738.53,303.82 741.49,310.24 744.42,316.67 747.37,323.10 750.32,329.52 753.26,335.92 756.21,342.34 759.16,348.16 762.09,354.01 765.04,359.83 767.99,365.66 770.93,371.48 773.88,377.30 776.83,381.39 779.76,385.48 782.72,389.60 785.67,393.69 788.60,397.78 791.55,401.88 794.50,402.63 797.44,403.37 800.39,404.12 803.34,404.87 806.27,405.59 809.22,406.34 812.18,401.73 815.11,397.12 818.06,392.51 821.01,387.90 823.95,383.26 826.90,378.65 829.85,368.48 832.78,358.31 835.73,348.11 838.68,337.93 841.62,327.76 844.57,317.59 847.52,306.30 850.45,295.03 853.41,283.73 856.36,272.47 859.29,261.17 862.24,249.88 865.19,243.77 868.13,237.66 871.08,231.55 874.03,225.41 876.96,219.30 879.91,213.19 882.87,214.06 885.80,214.92 888.75,215.79 891.70,216.68 894.63,217.54 897.59,218.41 900.54,224.78 903.47,231.12 906.42,237.46 909.37,243.82 912.31,250.16 915.26,256.53 918.21,266.99 921.14,277.45 924.09,287.91 927.05,298.40 929.98,308.86 932.93,319.32 935.88,331.85 938.82,344.42 941.77,356.95 944.72,369.49 947.65,382.02 950.60,394.56 953.55,406.46 956.49,418.36 959.44,430.26 962.39,442.17 965.32,454.08 968.28,465.98 971.23,475.39 974.16,484.80 977.11,494.22 980.06,503.63 983.00,513.04 985.95,522.45 988.90,529.15 991.83,535.85 994.78,542.56 997.74,549.26 1000.67,555.96 1003.62,562.66 1006.57,567.63 1009.51,572.58 1012.46,577.55 1015.41,582.51 1018.34,587.47 1021.29,592.43 1024.24,596.94 1027.18,601.45 1030.13,605.96 1033.08,610.47 1036.01,614.98 1038.97,619.49 1041.92,624.15 1044.85,628.80 1047.80,633.46 1050.75,638.11 1053.69,642.77 1056.64,647.42 1059.59,649.77 1062.52,652.13 1065.47,654.49 1068.43,656.84 1071.36,659.20 1074.31,661.55" fill="none" stroke="#000000" stroke-width="3"/>
<line x1="142" y1="100" x2="178" y2="100" stroke="#000000" stroke-width="4"/>
<text x="188" y="105" font-family="Arial" font-size="18" fill="black">k</text>
</svg>