<svg xmlns="http://www.w3.org/2000/svg" width="1200" height="820" viewBox="0 0 1200 820">
<rect width="100%" height="100%" fill="white"/>
<text x="600.0" y="36" text-anchor="middle" font-family="Arial" font-size="24" fill="black">profile_diagonal_supply_return: epsilon</text>
<line x1="120.00" y1="75" x2="120.00" y2="705" stroke="#dddddd" stroke-width="1"/>
<text x="120.00" y="737" text-anchor="middle" font-family="Arial" font-size="16" fill="black">-0.729</text>
<line x1="376.25" y1="75" x2="376.25" y2="705" stroke="#dddddd" stroke-width="1"/>
<text x="376.25" y="737" text-anchor="middle" font-family="Arial" font-size="16" fill="black">1.913</text>
<line x1="632.50" y1="75" x2="632.50" y2="705" stroke="#dddddd" stroke-width="1"/>
<text x="632.50" y="737" text-anchor="middle" font-family="Arial" font-size="16" fill="black">4.555</text>
<line x1="888.75" y1="75" x2="888.75" y2="705" stroke="#dddddd" stroke-width="1"/>
<text x="888.75" y="737" text-anchor="middle" font-family="Arial" font-size="16" fill="black">7.197</text>
<line x1="1145.00" y1="75" x2="1145.00" y2="705" stroke="#dddddd" stroke-width="1"/>
<text x="1145.00" y="737" text-anchor="middle" font-family="Arial" font-size="16" fill="black">9.839</text>
<line x1="120" y1="705.00" x2="1145" y2="705.00" stroke="#dddddd" stroke-width="1"/>
<text x="104" y="710.00" text-anchor="end" font-family="Arial" font-size="16" fill="black">-8.27e-04</text>
<line x1="120" y1="547.50" x2="1145" y2="547.50" stroke="#dddddd" stroke-width="1"/>
<text x="104" y="552.50" text-anchor="end" font-family="Arial" font-size="16" fill="black">0.003</text>
<line x1="120" y1="390.00" x2="1145" y2="390.00" stroke="#dddddd" stroke-width="1"/>
<text x="104" y="395.00" text-anchor="end" font-family="Arial" font-size="16" fill="black">0.007</text>
<line x1="120" y1="232.50" x2="1145" y2="232.50" stroke="#dddddd" stroke-width="1"/>
<text x="104" y="237.50" text-anchor="end" font-family="Arial" font-size="16" fill="black">0.010</text>
<line x1="120" y1="75.00" x2="1145" y2="75.00" stroke="#dddddd" stroke-width="1"/>
<text x="104" y="80.00" text-anchor="end" font-family="Arial" font-size="16" fill="black">0.014</text>
<rect x="120" y="75" width="1025" height="630" fill="none" stroke="black" stroke-width="2"/>
<text x="632.5" y="785" text-anchor="middle" font-family="Arial" font-size="20" fill="black">distance along sample line [m]</text>
<text x="34" y="390.0" transform="rotate(-90 34 390.0)" text-anchor="middle" font-family="Arial" font-size="20" fill="black">epsilon [m2/s3]</text>
<polyline points="190.69,652.52 193.64,651.32 196.58,650.06 199.53,648.75 202.47,647.43 205.42,645.57 208.36,643.51 211.31,641.47 214.25,639.56 217.20,637.86 220.14,636.34 223.09,634.87 226.03,633.62 228.98,632.90 231.93,631.96 234.87,630.97 237.82,629.94 240.76,628.87 243.71,627.46 246.65,626.46 249.60,625.38 252.54,623.90 255.49,622.23 258.43,620.34 261.38,618.27 264.32,616.47 267.27,614.51 270.22,612.36 273.16,609.98 276.11,607.38 279.05,604.53 282.00,601.99 284.94,599.18 287.88,596.10 290.83,592.75 293.78,589.43 296.73,585.90 299.67,582.33 302.62,578.53 305.57,574.81 308.50,571.21 311.45,567.29 314.40,563.04 317.34,559.00 320.29,555.65 323.24,552.07 326.18,548.24 329.12,544.17 332.07,540.89 335.01,538.16 337.96,535.25 340.91,532.16 343.85,529.72 346.80,527.50 349.74,524.75 352.68,522.92 355.63,521.34 358.58,520.57 361.53,519.31 364.47,517.47 367.42,514.96 370.36,515.57 373.30,515.70 376.25,515.28 379.20,514.20 382.14,513.85 385.09,513.43 388.04,513.74 390.97,513.43 393.92,513.44 396.87,514.23 399.81,514.86 402.76,514.83 405.71,515.20 408.65,516.89 411.59,518.23 414.54,519.14 417.48,519.54 420.43,520.58 423.38,521.84 426.32,522.98 429.27,524.24 432.21,525.08 435.16,525.84 438.10,526.55 441.05,526.61 444.00,526.24 446.94,525.12 449.89,524.21 452.84,523.47 455.77,522.91 458.72,520.45 461.67,518.35 464.61,516.62 467.56,515.28 470.51,514.00 473.45,513.07 476.39,512.13 479.34,511.76 482.28,512.08 485.23,513.09 488.18,514.62 491.12,516.71 494.07,518.94 497.01,520.77 499.96,522.98 502.90,525.58 505.85,528.56 508.80,529.27 511.74,529.64 514.69,530.11 517.63,530.58 520.57,528.60 523.52,524.71 526.47,520.76 529.41,516.96 532.36,511.69 535.31,502.59 538.24,493.14 541.19,483.34 544.14,473.25 547.08,456.04 550.03,437.86 552.98,418.84 555.92,399.12 558.86,375.76 561.81,350.45 564.76,322.45 567.70,294.29 570.65,266.47 573.60,239.00 576.54,211.14 579.49,183.28 582.43,161.37 585.37,151.49 588.32,142.16 591.27,131.72 594.21,118.45 597.16,124.70 600.11,143.40 603.04,155.68 605.99,179.13 608.94,204.00 611.88,226.81 614.83,243.04 617.78,255.73 620.72,262.03 623.66,262.21 626.61,259.93 629.55,255.40 632.50,248.80 635.45,259.51 638.40,269.53 641.34,278.90 644.28,287.68 647.23,295.11 650.17,302.87 653.12,311.68 656.07,321.50 659.01,334.70 661.96,352.47 664.90,372.19 667.84,390.78 670.79,409.50 673.74,431.10 676.68,451.14 679.63,469.66 682.58,486.73 685.51,503.26 688.46,518.39 691.41,531.79 694.35,539.42 697.30,545.61 700.25,550.66 703.20,555.06 706.14,558.68 709.08,561.35 712.03,562.62 714.97,563.54 717.92,564.13 720.87,564.38 723.81,562.89 726.76,561.39 729.70,559.89 732.64,558.41 735.59,556.50 738.54,554.48 741.48,552.54 744.43,550.73 747.38,548.87 750.31,546.93 753.26,545.03 756.21,543.33 759.15,541.77 762.10,539.98 765.05,538.38 767.99,537.02 770.93,535.92 773.88,534.49 776.83,533.30 779.77,532.34 782.72,531.45 785.67,530.25 788.61,528.81 791.55,527.56 794.50,526.79 797.44,525.94 800.39,524.51 803.34,523.19 806.28,522.00 809.23,520.97 812.17,519.32 815.11,517.68 818.06,516.05 821.01,514.47 823.95,512.89 826.90,511.32 829.85,509.70 832.79,507.98 835.73,506.63 838.68,505.84 841.63,504.88 844.57,503.93 847.52,502.68 850.47,503.00 853.41,503.34 856.35,503.71 859.30,504.09 862.24,505.89 865.19,507.26 868.14,508.71 871.08,510.12 874.03,511.78 876.97,514.07 879.91,516.97 882.86,519.04 885.81,520.91 888.75,522.47 891.70,524.57 894.65,527.19 897.58,530.33 900.53,530.23 903.48,530.48 906.43,531.08 909.37,532.02 912.32,531.87 915.27,531.77 918.20,531.09 921.15,530.69 924.10,529.82 927.04,528.41 929.99,526.34 932.94,524.85 935.88,522.86 938.82,520.62 941.77,518.78 944.71,517.32 947.66,516.20 950.61,515.77 953.55,514.92 956.50,514.31 959.44,511.53 962.38,509.86 965.33,508.80 968.28,507.46 971.22,505.79 974.17,505.16 977.12,507.04 980.06,508.95 983.00,510.86 985.95,512.73 988.90,510.63 991.84,509.64 994.79,509.65 997.74,510.55 1000.68,513.80 1003.62,518.54 1006.57,524.98 1009.51,532.47 1012.46,541.50 1015.41,552.27 1018.35,563.44 1021.30,575.10 1024.24,587.39 1027.18,596.96 1030.13,606.60 1033.08,616.15 1036.02,625.42 1038.97,631.01 1041.92,635.85 1044.86,640.47 1047.80,645.02 1050.75,648.69 1053.70,651.79 1056.64,654.64 1059.59,656.59 1062.54,658.19 1065.47,659.15 1068.42,660.04 1071.37,660.85 1074.31,661.55" fill="none" stroke="#000000" stroke-width="3"/>
<line x1="142" y1="100" x2="178" y2="100" stroke="#000000" stroke-width="4"/>
<text x="188" y="105" font-family="Arial" font-size="18" fill="black">epsilon</text>
</svg>