<svg xmlns="http://www.w3.org/2000/svg" width="1200" height="820" viewBox="0 0 1200 820">
<rect width="100%" height="100%" fill="white"/>
<text x="600.0" y="36" text-anchor="middle" font-family="Arial" font-size="24" fill="black">profile_near_floor_x: vorticity:0</text>
<line x1="120.00" y1="75" x2="120.00" y2="705" stroke="#dddddd" stroke-width="1"/>
<text x="120.00" y="737" text-anchor="middle" font-family="Arial" font-size="16" fill="black">-0.560</text>
<line x1="376.25" y1="75" x2="376.25" y2="705" stroke="#dddddd" stroke-width="1"/>
<text x="376.25" y="737" text-anchor="middle" font-family="Arial" font-size="16" fill="black">1.470</text>
<line x1="632.50" y1="75" x2="632.50" y2="705" stroke="#dddddd" stroke-width="1"/>
<text x="632.50" y="737" text-anchor="middle" font-family="Arial" font-size="16" fill="black">3.500</text>
<line x1="888.75" y1="75" x2="888.75" y2="705" stroke="#dddddd" stroke-width="1"/>
<text x="888.75" y="737" text-anchor="middle" font-family="Arial" font-size="16" fill="black">5.530</text>
<line x1="1145.00" y1="75" x2="1145.00" y2="705" stroke="#dddddd" stroke-width="1"/>
<text x="1145.00" y="737" text-anchor="middle" font-family="Arial" font-size="16" fill="black">7.560</text>
<line x1="120" y1="705.00" x2="1145" y2="705.00" stroke="#dddddd" stroke-width="1"/>
<text x="104" y="710.00" text-anchor="end" font-family="Arial" font-size="16" fill="black">-0.411</text>
<line x1="120" y1="547.50" x2="1145" y2="547.50" stroke="#dddddd" stroke-width="1"/>
<text x="104" y="552.50" text-anchor="end" font-family="Arial" font-size="16" fill="black">-0.277</text>
<line x1="120" y1="390.00" x2="1145" y2="390.00" stroke="#dddddd" stroke-width="1"/>
<text x="104" y="395.00" text-anchor="end" font-family="Arial" font-size="16" fill="black">-0.143</text>
<line x1="120" y1="232.50" x2="1145" y2="232.50" stroke="#dddddd" stroke-width="1"/>
<text x="104" y="237.50" text-anchor="end" font-family="Arial" font-size="16" fill="black">-0.009</text>
<line x1="120" y1="75.00" x2="1145" y2="75.00" stroke="#dddddd" stroke-width="1"/>
<text x="104" y="80.00" text-anchor="end" font-family="Arial" font-size="16" fill="black">0.125</text>
<rect x="120" y="75" width="1025" height="630" fill="none" stroke="black" stroke-width="2"/>
<text x="632.5" y="785" text-anchor="middle" font-family="Arial" font-size="20" fill="black">x coordinate [m]</text>
<text x="34" y="390.0" transform="rotate(-90 34 390.0)" text-anchor="middle" font-family="Arial" font-size="20" fill="black">vorticity:0 [SI]</text>
<polyline points="190.69,540.94 193.64,521.59 196.58,502.22 199.53,482.86 202.47,463.50 205.42,438.24 208.36,410.62 211.31,382.99 214.25,355.37 217.20,334.68 220.14,323.22 223.09,311.76 226.03,300.30 228.98,290.15 231.93,287.80 234.87,285.46 237.82,283.11 240.76,280.77 243.71,285.88 246.65,292.23 249.60,298.58 252.54,304.94 255.49,316.34 258.43,331.52 261.38,346.71 264.32,361.89 267.27,379.13 270.22,401.48 273.16,423.83 276.11,446.18 279.05,468.54 282.00,493.23 284.94,517.91 287.89,542.60 290.83,567.29 293.78,589.87 296.72,611.59 299.67,633.32 302.62,655.05 305.56,661.55 308.51,647.73 311.45,633.91 314.40,620.10 317.34,603.81 320.29,572.63 323.23,541.46 326.17,510.29 329.13,479.11 332.07,467.55 335.01,459.25 337.96,450.95 340.91,442.65 343.85,440.30 346.80,442.41 349.74,444.51 352.68,446.62 355.64,449.69 358.58,455.21 361.52,460.73 364.47,466.26 367.41,471.77 370.35,473.56 373.31,475.33 376.25,477.11 379.19,478.90 382.15,475.59 385.09,470.26 388.03,464.91 390.98,459.58 393.92,458.06 396.86,461.67 399.82,465.26 402.76,468.85 405.70,471.53 408.65,468.73 411.59,465.93 414.54,463.14 417.49,460.33 420.43,445.94 423.37,429.61 426.33,413.28 429.27,396.94 432.21,384.94 435.16,376.20 438.10,367.45 441.04,358.71 444.00,351.59 446.94,348.54 449.88,345.50 452.83,342.46 455.78,339.42 458.72,342.64 461.67,345.88 464.61,349.11 467.55,352.33 470.51,358.20 473.45,365.11 476.39,372.03 479.34,378.94 482.28,385.85 485.23,392.76 488.18,399.68 491.12,406.59 494.06,412.96 497.02,416.08 499.96,419.19 502.90,422.30 505.85,425.42 508.79,426.19 511.73,426.58 514.69,426.97 517.63,427.36 520.57,428.70 523.52,430.76 526.47,432.81 529.41,434.87 532.36,437.52 535.30,441.66 538.24,445.81 541.20,449.94 544.14,454.08 547.08,459.29 550.03,464.49 552.97,469.69 555.92,474.90 558.87,481.50 561.81,488.67 564.75,495.84 567.71,503.01 570.65,511.16 573.59,520.59 576.54,530.03 579.48,539.46 582.42,546.51 585.38,539.25 588.32,531.98 591.26,524.72 594.21,517.46 597.16,506.54 600.10,495.00 603.05,483.48 605.99,471.95 608.93,467.32 611.89,467.82 614.83,468.34 617.77,468.85 620.72,468.43 623.66,465.70 626.60,462.98 629.56,460.25 632.50,457.52 635.44,453.90 638.40,450.28 641.34,446.67 644.28,443.04 647.23,442.85 650.17,444.04 653.11,445.22 656.07,446.41 659.01,453.46 661.95,468.34 664.90,483.22 667.84,498.10 670.79,513.59 673.74,532.81 676.68,552.03 679.62,571.24 682.58,590.46 685.52,587.78 688.46,581.46 691.41,575.14 694.35,568.82 697.29,552.68 700.25,529.19 703.19,505.69 706.13,482.21 709.08,459.62 712.03,439.27 714.97,418.93 717.92,398.58 720.86,378.23 723.80,361.00 726.76,343.77 729.70,326.54 732.64,309.31 735.59,296.35 738.53,285.11 741.48,273.87 744.43,262.63 747.37,253.84 750.31,248.32 753.27,242.80 756.21,237.28 759.15,232.37 762.10,231.10 765.04,229.82 767.98,228.55 770.94,227.28 773.88,229.65 776.82,232.63 779.77,235.61 782.72,238.59 785.66,244.08 788.61,251.44 791.55,258.80 794.49,266.16 797.45,274.74 800.39,286.41 803.33,298.07 806.28,309.73 809.22,321.39 812.17,337.54 815.12,353.69 818.06,369.84 821.00,385.99 823.96,406.29 826.90,428.24 829.84,450.19 832.79,472.14 835.73,490.64 838.67,504.53 841.63,518.41 844.57,532.30 847.51,542.78 850.46,532.79 853.41,522.81 856.35,512.83 859.30,502.85 862.24,490.81 865.18,478.43 868.14,466.06 871.08,453.67 874.02,447.16 876.97,445.07 879.91,442.97 882.85,440.87 885.81,438.64 888.75,436.09 891.69,433.55 894.65,431.01 897.59,428.47 900.53,426.10 903.48,423.72 906.42,421.36 909.36,418.98 912.32,418.88 915.26,419.71 918.20,420.52 921.15,421.33 924.09,427.77 927.04,441.70 929.99,455.63 932.93,469.55 935.87,484.06 938.83,502.06 941.77,520.05 944.71,538.05 947.66,556.03 950.60,550.31 953.54,540.65 956.50,530.97 959.44,521.30 962.38,499.89 965.33,469.68 968.28,439.46 971.22,409.25 974.17,379.05 977.11,348.85 980.05,318.66 983.01,288.47 985.95,258.28 988.89,233.86 991.84,209.44 994.78,185.02 997.73,160.60 1000.68,147.45 1003.62,138.81 1006.56,130.17 1009.52,121.54 1012.46,118.45 1015.40,122.76 1018.35,127.07 1021.29,131.38 1024.23,137.35 1027.19,153.26 1030.13,169.17 1033.07,185.08 1036.02,200.99 1038.97,227.39 1041.91,255.55 1044.86,283.71 1047.80,311.86 1050.74,341.18 1053.70,371.37 1056.64,401.57 1059.58,431.75 1062.53,457.36 1065.47,471.48 1068.42,485.61 1071.37,499.74 1074.31,513.88" fill="none" stroke="#000000" stroke-width="3"/>
<line x1="142" y1="100" x2="178" y2="100" stroke="#000000" stroke-width="4"/>
<text x="188" y="105" font-family="Arial" font-size="18" fill="black">vorticity:0</text>
</svg>