<svg xmlns="http://www.w3.org/2000/svg" width="1200" height="820" viewBox="0 0 1200 820">
<rect width="100%" height="100%" fill="white"/>
<text x="600.0" y="36" text-anchor="middle" font-family="Arial" font-size="24" fill="black">profile_diagonal_supply_return: p</text>
<line x1="120.00" y1="75" x2="120.00" y2="705" stroke="#dddddd" stroke-width="1"/>
<text x="120.00" y="737" text-anchor="middle" font-family="Arial" font-size="16" fill="black">-0.729</text>
<line x1="376.25" y1="75" x2="376.25" y2="705" stroke="#dddddd" stroke-width="1"/>
<text x="376.25" y="737" text-anchor="middle" font-family="Arial" font-size="16" fill="black">1.913</text>
<line x1="632.50" y1="75" x2="632.50" y2="705" stroke="#dddddd" stroke-width="1"/>
<text x="632.50" y="737" text-anchor="middle" font-family="Arial" font-size="16" fill="black">4.555</text>
<line x1="888.75" y1="75" x2="888.75" y2="705" stroke="#dddddd" stroke-width="1"/>
<text x="888.75" y="737" text-anchor="middle" font-family="Arial" font-size="16" fill="black">7.197</text>
<line x1="1145.00" y1="75" x2="1145.00" y2="705" stroke="#dddddd" stroke-width="1"/>
<text x="1145.00" y="737" text-anchor="middle" font-family="Arial" font-size="16" fill="black">9.839</text>
<line x1="120" y1="705.00" x2="1145" y2="705.00" stroke="#dddddd" stroke-width="1"/>
<text x="104" y="710.00" text-anchor="end" font-family="Arial" font-size="16" fill="black">-36.47</text>
<line x1="120" y1="547.50" x2="1145" y2="547.50" stroke="#dddddd" stroke-width="1"/>
<text x="104" y="552.50" text-anchor="end" font-family="Arial" font-size="16" fill="black">-26.67</text>
<line x1="120" y1="390.00" x2="1145" y2="390.00" stroke="#dddddd" stroke-width="1"/>
<text x="104" y="395.00" text-anchor="end" font-family="Arial" font-size="16" fill="black">-16.87</text>
<line x1="120" y1="232.50" x2="1145" y2="232.50" stroke="#dddddd" stroke-width="1"/>
<text x="104" y="237.50" text-anchor="end" font-family="Arial" font-size="16" fill="black">-7.073</text>
<line x1="120" y1="75.00" x2="1145" y2="75.00" stroke="#dddddd" stroke-width="1"/>
<text x="104" y="80.00" text-anchor="end" font-family="Arial" font-size="16" fill="black">2.725</text>
<rect x="120" y="75" width="1025" height="630" fill="none" stroke="black" stroke-width="2"/>
<text x="632.5" y="785" text-anchor="middle" font-family="Arial" font-size="20" fill="black">distance along sample line [m]</text>
<text x="34" y="390.0" transform="rotate(-90 34 390.0)" text-anchor="middle" font-family="Arial" font-size="20" fill="black">p [Pa]</text>
<polyline points="190.69,118.45 193.64,119.41 196.58,120.37 199.53,121.33 202.47,122.30 205.42,123.27 208.36,124.24 211.31,125.23 214.25,126.22 217.20,127.20 220.14,128.18 223.09,130.10 226.03,132.02 228.98,133.95 231.93,135.87 234.87,137.78 237.82,139.70 240.76,141.61 243.71,143.52 246.65,145.43 249.60,147.34 252.54,149.24 255.49,151.15 258.43,153.06 261.38,154.96 264.32,156.86 267.27,158.76 270.22,160.67 273.16,162.56 276.11,164.46 279.05,166.36 282.00,168.25 284.94,170.15 287.88,172.04 290.83,173.94 293.78,175.83 296.73,177.73 299.67,179.62 302.62,181.51 305.57,183.40 308.50,185.30 311.45,187.20 314.40,189.09 317.34,190.99 320.29,192.89 323.24,194.79 326.18,196.69 329.12,198.60 332.07,200.50 335.01,202.41 337.96,204.32 340.91,206.23 343.85,208.15 346.80,210.06 349.74,211.98 352.68,213.90 355.63,215.82 358.58,217.74 361.53,219.66 364.47,221.58 367.42,223.50 370.36,225.42 373.30,227.35 376.25,229.27 379.20,231.20 382.14,233.12 385.09,235.05 388.04,236.98 390.97,238.90 393.92,240.83 396.87,242.76 399.81,244.68 402.76,246.61 405.71,248.53 408.65,250.45 411.59,252.37 414.54,254.29 417.48,256.20 420.43,258.11 423.38,260.01 426.32,261.91 429.27,263.81 432.21,265.69 435.16,267.57 438.10,269.45 441.05,271.32 444.00,273.20 446.94,275.06 449.89,276.93 452.84,278.79 455.77,280.66 458.72,282.52 461.67,284.39 464.61,286.25 467.56,288.13 470.51,290.00 473.45,291.90 476.39,293.78 479.34,295.66 482.28,297.54 485.23,299.43 488.18,301.33 491.12,303.23 494.07,305.12 497.01,307.01 499.96,308.90 502.90,310.80 505.85,312.68 508.80,314.58 511.74,316.46 514.69,318.34 517.63,320.20 520.57,322.08 523.52,323.95 526.47,325.80 529.41,327.66 532.36,329.51 535.31,331.34 538.24,333.19 541.19,335.02 544.14,336.86 547.08,338.69 550.03,340.51 552.98,342.34 555.92,344.15 558.86,345.97 561.81,347.79 564.76,349.60 567.70,351.42 570.65,353.22 573.60,355.02 576.54,356.82 579.49,358.61 582.43,360.39 585.37,362.17 588.32,363.94 591.27,365.69 594.21,367.45 597.16,369.20 600.11,370.97 603.04,372.75 605.99,374.55 608.94,376.38 611.88,378.23 614.83,380.08 617.78,381.96 620.72,383.83 623.66,385.72 626.61,387.60 629.55,389.50 632.50,391.38 635.45,393.34 638.40,395.29 641.34,397.23 644.28,399.18 647.23,401.12 650.17,403.08 653.12,405.06 656.07,407.02 659.01,409.00 661.96,410.99 664.90,412.95 667.84,414.92 670.79,416.89 673.74,418.87 676.68,420.85 679.63,422.81 682.58,424.77 685.51,426.71 688.46,428.68 691.41,430.62 694.35,432.55 697.30,434.48 700.25,436.39 703.20,438.30 706.14,440.22 709.08,442.13 712.03,444.03 714.97,445.91 717.92,447.80 720.87,449.69 723.81,451.57 726.76,453.43 729.70,455.30 732.64,457.16 735.59,459.03 738.54,460.89 741.48,462.74 744.43,464.59 747.38,466.44 750.31,468.28 753.26,470.13 756.21,471.97 759.15,473.80 762.10,475.65 765.05,477.48 767.99,479.33 770.93,481.16 773.88,482.99 776.83,484.84 779.77,486.67 782.72,488.51 785.67,490.34 788.61,492.19 791.55,494.02 794.50,495.87 797.44,497.70 800.39,499.53 803.34,501.38 806.28,503.21 809.23,505.06 812.17,506.90 815.11,508.74 818.06,510.58 821.01,512.43 823.95,514.26 826.90,516.11 829.85,517.94 832.79,519.79 835.73,521.62 838.68,523.47 841.63,525.30 844.57,527.13 847.52,528.97 850.47,530.80 853.41,532.63 856.35,534.46 859.30,536.30 862.24,538.13 865.19,539.96 868.14,541.79 871.08,543.61 874.03,545.44 876.97,547.26 879.91,549.09 882.86,550.91 885.81,552.74 888.75,554.57 891.70,556.39 894.65,558.22 897.58,560.04 900.53,561.87 903.48,563.70 906.43,565.54 909.37,567.37 912.32,569.20 915.27,571.05 918.20,572.88 921.15,574.73 924.10,576.58 927.04,578.43 929.99,580.28 932.94,582.13 935.88,583.99 938.82,585.84 941.77,587.70 944.71,589.57 947.66,591.43 950.61,593.28 953.55,595.16 956.50,597.03 959.44,598.91 962.38,600.77 965.33,602.65 968.28,604.53 971.22,606.42 974.17,608.31 977.12,610.19 980.06,612.09 983.00,613.99 985.95,615.87 988.90,617.76 991.84,619.64 994.79,621.53 997.74,623.41 1000.68,625.25 1003.62,627.10 1006.57,628.90 1009.51,630.70 1012.46,632.50 1015.41,634.29 1018.35,636.07 1021.30,637.84 1024.24,639.59 1027.18,641.41 1030.13,643.21 1033.08,645.01 1036.02,646.83 1038.97,648.66 1041.92,650.49 1044.86,652.32 1047.80,653.22 1050.75,654.14 1053.70,655.07 1056.64,656.01 1059.59,656.92 1062.54,657.84 1065.47,658.77 1068.42,659.69 1071.37,660.62 1074.31,661.55" fill="none" stroke="#000000" stroke-width="3"/>
<line x1="142" y1="100" x2="178" y2="100" stroke="#000000" stroke-width="4"/>
<text x="188" y="105" font-family="Arial" font-size="18" fill="black">p</text>
</svg>