<svg xmlns="http://www.w3.org/2000/svg" width="1200" height="820" viewBox="0 0 1200 820">
<rect width="100%" height="100%" fill="white"/>
<text x="600.0" y="36" text-anchor="middle" font-family="Arial" font-size="24" fill="black">profile_near_ceiling_x: epsilon</text>
<line x1="120.00" y1="75" x2="120.00" y2="705" stroke="#dddddd" stroke-width="1"/>
<text x="120.00" y="737" text-anchor="middle" font-family="Arial" font-size="16" fill="black">-0.560</text>
<line x1="376.25" y1="75" x2="376.25" y2="705" stroke="#dddddd" stroke-width="1"/>
<text x="376.25" y="737" text-anchor="middle" font-family="Arial" font-size="16" fill="black">1.470</text>
<line x1="632.50" y1="75" x2="632.50" y2="705" stroke="#dddddd" stroke-width="1"/>
<text x="632.50" y="737" text-anchor="middle" font-family="Arial" font-size="16" fill="black">3.500</text>
<line x1="888.75" y1="75" x2="888.75" y2="705" stroke="#dddddd" stroke-width="1"/>
<text x="888.75" y="737" text-anchor="middle" font-family="Arial" font-size="16" fill="black">5.530</text>
<line x1="1145.00" y1="75" x2="1145.00" y2="705" stroke="#dddddd" stroke-width="1"/>
<text x="1145.00" y="737" text-anchor="middle" font-family="Arial" font-size="16" fill="black">7.560</text>
<line x1="120" y1="705.00" x2="1145" y2="705.00" stroke="#dddddd" stroke-width="1"/>
<text x="104" y="710.00" text-anchor="end" font-family="Arial" font-size="16" fill="black">9.60e-04</text>
<line x1="120" y1="547.50" x2="1145" y2="547.50" stroke="#dddddd" stroke-width="1"/>
<text x="104" y="552.50" text-anchor="end" font-family="Arial" font-size="16" fill="black">0.003</text>
<line x1="120" y1="390.00" x2="1145" y2="390.00" stroke="#dddddd" stroke-width="1"/>
<text x="104" y="395.00" text-anchor="end" font-family="Arial" font-size="16" fill="black">0.004</text>
<line x1="120" y1="232.50" x2="1145" y2="232.50" stroke="#dddddd" stroke-width="1"/>
<text x="104" y="237.50" text-anchor="end" font-family="Arial" font-size="16" fill="black">0.006</text>
<line x1="120" y1="75.00" x2="1145" y2="75.00" stroke="#dddddd" stroke-width="1"/>
<text x="104" y="80.00" text-anchor="end" font-family="Arial" font-size="16" fill="black">0.008</text>
<rect x="120" y="75" width="1025" height="630" fill="none" stroke="black" stroke-width="2"/>
<text x="632.5" y="785" text-anchor="middle" font-family="Arial" font-size="20" fill="black">x coordinate [m]</text>
<text x="34" y="390.0" transform="rotate(-90 34 390.0)" text-anchor="middle" font-family="Arial" font-size="20" fill="black">epsilon [m2/s3]</text>
<polyline points="190.69,637.04 193.64,640.12 196.58,643.21 199.53,646.29 202.47,649.37 205.42,652.37 208.36,655.34 211.31,658.32 214.25,661.29 217.20,661.55 220.14,658.21 223.09,654.86 226.03,651.52 228.98,647.77 231.93,641.65 234.87,635.52 237.82,629.39 240.76,623.26 243.71,617.87 246.65,612.59 249.60,607.31 252.54,602.03 255.49,597.36 258.43,593.15 261.38,588.94 264.32,584.72 267.27,580.81 270.22,577.64 273.16,574.47 276.11,571.29 279.05,568.12 282.00,565.80 284.94,563.47 287.89,561.16 290.83,558.83 293.78,556.95 296.72,555.25 299.67,553.55 302.62,551.84 305.56,550.30 308.51,548.98 311.45,547.65 314.40,546.33 317.34,545.03 320.29,543.84 323.23,542.65 326.17,541.47 329.13,540.28 332.07,538.89 335.01,537.46 337.96,536.04 340.91,534.61 343.85,532.79 346.80,530.67 349.74,528.55 352.68,526.43 355.64,524.35 358.58,522.34 361.52,520.34 364.47,518.34 367.41,516.33 370.35,516.80 373.31,517.27 376.25,517.73 379.19,518.19 382.15,521.09 385.09,524.95 388.03,528.81 390.98,532.68 393.92,537.28 396.86,542.88 399.82,548.47 402.76,554.08 405.70,559.66 408.65,565.22 411.59,570.77 414.54,576.33 417.49,581.88 420.43,585.88 423.37,589.63 426.33,593.37 429.27,597.12 432.21,597.89 435.16,596.42 438.10,594.96 441.04,593.50 444.00,589.52 446.94,579.27 449.88,569.02 452.83,558.77 455.78,548.52 458.72,529.97 461.67,511.43 464.61,492.88 467.55,474.33 470.51,455.80 473.45,437.29 476.39,418.77 479.34,400.26 482.28,384.16 485.23,371.31 488.18,358.46 491.12,345.60 494.06,333.26 497.02,324.04 499.96,314.81 502.90,305.58 505.85,296.35 508.79,288.75 511.73,281.42 514.69,274.09 517.63,266.77 520.57,260.14 523.52,254.02 526.47,247.90 529.41,241.79 532.36,235.89 535.30,230.52 538.24,225.16 541.20,219.79 544.14,214.41 547.08,209.38 550.03,204.35 552.97,199.30 555.92,194.27 558.87,189.34 561.81,184.47 564.75,179.59 567.71,174.72 570.65,169.95 573.59,165.34 576.54,160.72 579.48,156.12 582.42,151.59 585.38,147.59 588.32,143.58 591.26,139.58 594.21,135.57 597.16,132.54 600.10,129.68 603.05,126.82 605.99,123.95 608.93,122.11 611.89,121.03 614.83,119.93 617.77,118.85 620.72,118.45 623.66,119.73 626.60,121.00 629.56,122.28 632.50,123.56 635.44,127.98 638.40,132.39 641.34,136.81 644.28,141.23 647.23,148.57 650.17,157.08 653.11,165.60 656.07,174.11 659.01,184.56 661.95,197.59 664.90,210.62 667.84,223.65 670.79,237.24 673.74,254.21 676.68,271.19 679.62,288.15 682.58,305.12 685.52,323.85 688.46,342.88 691.41,361.90 694.35,380.93 697.29,399.15 700.25,416.77 703.19,434.40 706.13,452.01 709.08,468.16 712.03,480.61 714.97,493.07 717.92,505.53 720.86,517.99 723.80,523.99 726.76,529.99 729.70,535.99 732.64,541.98 735.59,544.49 738.53,545.58 741.48,546.68 744.43,547.77 747.37,547.59 750.31,545.66 753.27,543.75 756.21,541.83 759.15,539.63 762.10,535.73 765.04,531.84 767.98,527.94 770.94,524.05 773.88,519.07 776.82,513.92 779.77,508.77 782.72,503.62 785.66,498.12 788.61,492.35 791.55,486.59 794.49,480.84 797.45,475.07 800.39,469.27 803.33,463.47 806.28,457.68 809.22,451.89 812.17,446.60 815.12,441.33 818.06,436.04 821.00,430.75 823.96,426.20 826.90,421.91 829.84,417.63 832.79,413.35 835.73,409.68 838.67,406.81 841.63,403.95 844.57,401.09 847.51,398.48 850.46,397.43 853.41,396.36 856.35,395.31 859.30,394.24 862.24,395.18 865.18,396.45 868.14,397.72 871.08,399.00 874.02,401.18 876.97,404.04 879.91,406.90 882.85,409.75 885.81,412.54 888.75,415.17 891.69,417.81 894.65,420.43 897.59,423.07 900.53,424.57 903.48,426.08 906.42,427.59 909.36,429.10 912.32,429.86 915.26,430.31 918.20,430.77 921.15,431.24 924.09,431.59 927.04,431.82 929.99,432.04 932.93,432.27 935.87,432.61 938.83,433.76 941.77,434.90 944.71,436.04 947.66,437.19 950.60,439.72 953.54,442.49 956.50,445.25 959.44,448.01 962.38,451.59 965.33,455.78 968.28,459.96 971.22,464.15 974.17,468.51 977.11,473.35 980.05,478.19 983.01,483.01 985.95,487.85 988.89,492.58 991.84,497.30 994.78,502.02 997.73,506.74 1000.68,511.10 1003.62,515.31 1006.56,519.53 1009.52,523.74 1012.46,527.74 1015.40,531.44 1018.35,535.14 1021.29,538.84 1024.23,542.52 1027.19,546.07 1030.13,549.63 1033.07,553.18 1036.02,556.74 1038.97,561.18 1041.91,565.76 1044.86,570.35 1047.80,574.94 1050.74,579.01 1053.70,582.70 1056.64,586.39 1059.58,590.08 1062.53,592.97 1065.47,593.88 1068.42,594.79 1071.37,595.71 1074.31,596.62" fill="none" stroke="#000000" stroke-width="3"/>
<line x1="142" y1="100" x2="178" y2="100" stroke="#000000" stroke-width="4"/>
<text x="188" y="105" font-family="Arial" font-size="18" fill="black">epsilon</text>
</svg>