<svg xmlns="http://www.w3.org/2000/svg" width="1200" height="820" viewBox="0 0 1200 820">
<rect width="100%" height="100%" fill="white"/>
<text x="600.0" y="36" text-anchor="middle" font-family="Arial" font-size="24" fill="black">profile_center_z: U:0</text>
<line x1="120.00" y1="75" x2="120.00" y2="705" stroke="#dddddd" stroke-width="1"/>
<text x="120.00" y="737" text-anchor="middle" font-family="Arial" font-size="16" fill="black">-0.240</text>
<line x1="376.25" y1="75" x2="376.25" y2="705" stroke="#dddddd" stroke-width="1"/>
<text x="376.25" y="737" text-anchor="middle" font-family="Arial" font-size="16" fill="black">0.630</text>
<line x1="632.50" y1="75" x2="632.50" y2="705" stroke="#dddddd" stroke-width="1"/>
<text x="632.50" y="737" text-anchor="middle" font-family="Arial" font-size="16" fill="black">1.500</text>
<line x1="888.75" y1="75" x2="888.75" y2="705" stroke="#dddddd" stroke-width="1"/>
<text x="888.75" y="737" text-anchor="middle" font-family="Arial" font-size="16" fill="black">2.370</text>
<line x1="1145.00" y1="75" x2="1145.00" y2="705" stroke="#dddddd" stroke-width="1"/>
<text x="1145.00" y="737" text-anchor="middle" font-family="Arial" font-size="16" fill="black">3.240</text>
<line x1="120" y1="705.00" x2="1145" y2="705.00" stroke="#dddddd" stroke-width="1"/>
<text x="104" y="710.00" text-anchor="end" font-family="Arial" font-size="16" fill="black">-0.289</text>
<line x1="120" y1="547.50" x2="1145" y2="547.50" stroke="#dddddd" stroke-width="1"/>
<text x="104" y="552.50" text-anchor="end" font-family="Arial" font-size="16" fill="black">-0.208</text>
<line x1="120" y1="390.00" x2="1145" y2="390.00" stroke="#dddddd" stroke-width="1"/>
<text x="104" y="395.00" text-anchor="end" font-family="Arial" font-size="16" fill="black">-0.126</text>
<line x1="120" y1="232.50" x2="1145" y2="232.50" stroke="#dddddd" stroke-width="1"/>
<text x="104" y="237.50" text-anchor="end" font-family="Arial" font-size="16" fill="black">-0.045</text>
<line x1="120" y1="75.00" x2="1145" y2="75.00" stroke="#dddddd" stroke-width="1"/>
<text x="104" y="80.00" text-anchor="end" font-family="Arial" font-size="16" fill="black">0.037</text>
<rect x="120" y="75" width="1025" height="630" fill="none" stroke="black" stroke-width="2"/>
<text x="632.5" y="785" text-anchor="middle" font-family="Arial" font-size="20" fill="black">z coordinate [m]</text>
<text x="34" y="390.0" transform="rotate(-90 34 390.0)" text-anchor="middle" font-family="Arial" font-size="20" fill="black">U:0 [SI]</text>
<polyline points="190.69,139.61 193.64,139.28 196.58,138.95 199.53,138.62 202.47,138.30 205.42,137.97 208.36,137.64 211.31,137.31 214.25,136.99 217.20,136.66 220.14,136.33 223.09,135.66 226.03,134.98 228.98,134.31 231.93,133.64 234.87,132.97 237.82,132.29 240.76,131.62 243.71,130.95 246.65,130.27 249.60,129.60 252.54,128.99 255.49,128.37 258.43,127.76 261.38,127.14 264.32,126.53 267.27,125.92 270.22,125.30 273.16,124.69 276.11,124.07 279.05,123.46 282.00,123.06 284.94,122.66 287.89,122.27 290.83,121.87 293.78,121.47 296.72,121.07 299.67,120.68 302.61,120.28 305.56,119.88 308.51,119.48 311.45,119.38 314.40,119.28 317.34,119.17 320.29,119.07 323.23,118.97 326.18,118.86 329.12,118.76 332.07,118.66 335.01,118.55 337.96,118.45 340.91,118.61 343.85,118.78 346.80,118.94 349.74,119.10 352.69,119.27 355.63,119.43 358.58,119.59 361.52,119.76 364.47,119.92 367.41,120.08 370.36,120.41 373.30,120.74 376.25,121.07 379.20,121.39 382.14,121.72 385.09,122.05 388.03,122.37 390.98,122.70 393.92,123.03 396.87,123.36 399.81,123.75 402.76,124.14 405.70,124.54 408.65,124.93 411.59,125.33 414.54,125.72 417.49,126.12 420.43,126.51 423.38,126.91 426.32,127.30 429.27,127.73 432.21,128.15 435.16,128.58 438.10,129.00 441.05,129.43 443.99,129.85 446.94,130.28 449.89,130.71 452.83,131.13 455.78,131.56 458.72,132.02 461.67,132.49 464.61,132.96 467.56,133.42 470.50,133.89 473.45,134.35 476.39,134.82 479.34,135.29 482.28,135.75 485.23,136.22 488.18,136.77 491.12,137.32 494.07,137.87 497.01,138.42 499.96,138.97 502.90,139.52 505.85,140.07 508.79,140.62 511.74,141.17 514.68,141.72 517.63,142.39 520.57,143.06 523.52,143.73 526.47,144.41 529.41,145.08 532.36,145.75 535.30,146.42 538.25,147.09 541.19,147.76 544.14,148.43 547.08,149.25 550.03,150.08 552.97,150.90 555.92,151.73 558.86,152.55 561.81,153.38 564.76,154.20 567.70,155.03 570.65,155.85 573.59,156.68 576.54,158.91 579.48,161.13 582.43,163.36 585.37,165.58 588.32,167.81 591.26,170.04 594.21,172.26 597.16,174.49 600.10,176.72 603.05,178.94 605.99,188.34 608.94,197.74 611.88,207.14 614.83,216.54 617.77,225.93 620.72,235.33 623.66,244.73 626.61,254.13 629.55,263.53 632.50,272.93 635.45,284.21 638.39,295.49 641.34,306.77 644.28,318.06 647.23,329.34 650.17,340.62 653.12,351.91 656.06,363.20 659.01,374.47 661.95,385.76 664.90,391.83 667.84,397.90 670.79,403.99 673.74,410.06 676.68,416.15 679.63,422.22 682.57,428.29 685.52,434.38 688.46,440.45 691.41,446.54 694.35,451.03 697.30,455.53 700.24,460.02 703.19,464.50 706.14,469.01 709.08,473.49 712.03,478.00 714.97,482.48 717.92,486.99 720.86,491.47 723.81,495.42 726.75,499.36 729.70,503.31 732.64,507.27 735.59,511.21 738.53,515.16 741.48,519.10 744.43,523.05 747.37,526.99 750.32,530.93 753.26,534.55 756.21,538.15 759.15,541.76 762.10,545.36 765.04,548.97 767.99,552.57 770.93,556.18 773.88,559.78 776.82,563.38 779.77,566.99 782.72,570.28 785.66,573.55 788.61,576.83 791.55,580.12 794.50,583.41 797.44,586.69 800.39,589.96 803.33,593.25 806.28,596.53 809.22,599.82 812.17,602.66 815.11,605.52 818.06,608.38 821.01,611.23 823.95,614.09 826.90,616.95 829.84,619.81 832.79,622.65 835.73,625.51 838.68,628.38 841.62,630.56 844.57,632.74 847.51,634.95 850.46,637.13 853.41,639.32 856.35,641.52 859.30,643.71 862.24,645.89 865.19,648.10 868.13,650.28 871.08,651.40 874.02,652.54 876.97,653.66 879.91,654.78 882.86,655.91 885.80,657.05 888.75,658.17 891.70,659.29 894.64,660.41 897.59,661.55 900.53,661.03 903.48,660.51 906.42,659.99 909.37,659.46 912.31,658.94 915.26,658.42 918.20,657.92 921.15,657.40 924.09,656.87 927.04,656.35 929.99,653.47 932.93,650.59 935.88,647.71 938.82,644.83 941.77,641.95 944.71,639.07 947.66,636.19 950.60,633.32 953.55,630.44 956.49,627.56 959.44,621.86 962.39,616.18 965.33,610.49 968.28,604.81 971.22,599.10 974.17,593.42 977.11,587.74 980.06,582.03 983.00,576.35 985.95,570.66 988.89,562.37 991.84,554.06 994.78,545.76 997.73,537.47 1000.68,529.18 1003.62,520.86 1006.57,512.57 1009.51,504.27 1012.46,495.96 1015.40,487.67 1018.35,477.03 1021.29,466.42 1024.24,455.79 1027.18,445.15 1030.13,434.52 1033.07,423.88 1036.02,413.27 1038.97,402.64 1041.91,392.00 1044.86,381.37 1047.80,375.47 1050.75,369.58 1053.69,363.70 1056.64,357.80 1059.58,351.91 1062.53,346.01 1065.47,340.11 1068.42,334.22 1071.36,328.33 1074.31,322.43" fill="none" stroke="#000000" stroke-width="3"/>
<line x1="142" y1="100" x2="178" y2="100" stroke="#000000" stroke-width="4"/>
<text x="188" y="105" font-family="Arial" font-size="18" fill="black">U:0</text>
</svg>