<svg xmlns="http://www.w3.org/2000/svg" width="1200" height="820" viewBox="0 0 1200 820">
<rect width="100%" height="100%" fill="white"/>
<text x="600.0" y="36" text-anchor="middle" font-family="Arial" font-size="24" fill="black">profile_diagonal_supply_return: nut</text>
<line x1="120.00" y1="75" x2="120.00" y2="705" stroke="#dddddd" stroke-width="1"/>
<text x="120.00" y="737" text-anchor="middle" font-family="Arial" font-size="16" fill="black">-0.729</text>
<line x1="376.25" y1="75" x2="376.25" y2="705" stroke="#dddddd" stroke-width="1"/>
<text x="376.25" y="737" text-anchor="middle" font-family="Arial" font-size="16" fill="black">1.913</text>
<line x1="632.50" y1="75" x2="632.50" y2="705" stroke="#dddddd" stroke-width="1"/>
<text x="632.50" y="737" text-anchor="middle" font-family="Arial" font-size="16" fill="black">4.555</text>
<line x1="888.75" y1="75" x2="888.75" y2="705" stroke="#dddddd" stroke-width="1"/>
<text x="888.75" y="737" text-anchor="middle" font-family="Arial" font-size="16" fill="black">7.197</text>
<line x1="1145.00" y1="75" x2="1145.00" y2="705" stroke="#dddddd" stroke-width="1"/>
<text x="1145.00" y="737" text-anchor="middle" font-family="Arial" font-size="16" fill="black">9.839</text>
<line x1="120" y1="705.00" x2="1145" y2="705.00" stroke="#dddddd" stroke-width="1"/>
<text x="104" y="710.00" text-anchor="end" font-family="Arial" font-size="16" fill="black">-7.85e-04</text>
<line x1="120" y1="547.50" x2="1145" y2="547.50" stroke="#dddddd" stroke-width="1"/>
<text x="104" y="552.50" text-anchor="end" font-family="Arial" font-size="16" fill="black">0.003</text>
<line x1="120" y1="390.00" x2="1145" y2="390.00" stroke="#dddddd" stroke-width="1"/>
<text x="104" y="395.00" text-anchor="end" font-family="Arial" font-size="16" fill="black">0.007</text>
<line x1="120" y1="232.50" x2="1145" y2="232.50" stroke="#dddddd" stroke-width="1"/>
<text x="104" y="237.50" text-anchor="end" font-family="Arial" font-size="16" fill="black">0.011</text>
<line x1="120" y1="75.00" x2="1145" y2="75.00" stroke="#dddddd" stroke-width="1"/>
<text x="104" y="80.00" text-anchor="end" font-family="Arial" font-size="16" fill="black">0.015</text>
<rect x="120" y="75" width="1025" height="630" fill="none" stroke="black" stroke-width="2"/>
<text x="632.5" y="785" text-anchor="middle" font-family="Arial" font-size="20" fill="black">distance along sample line [m]</text>
<text x="34" y="390.0" transform="rotate(-90 34 390.0)" text-anchor="middle" font-family="Arial" font-size="20" fill="black">nut [m2/s]</text>
<polyline points="190.69,658.17 193.64,657.85 196.58,657.48 199.53,657.03 202.47,656.45 205.42,655.57 208.36,654.41 211.31,652.88 214.25,650.99 217.20,648.93 220.14,646.89 223.09,643.83 226.03,640.27 228.98,637.43 231.93,634.35 234.87,631.02 237.82,627.42 240.76,623.54 243.71,619.18 246.65,615.17 249.60,610.96 252.54,606.83 255.49,602.42 258.43,597.76 261.38,592.89 264.32,588.09 267.27,583.17 270.22,578.01 273.16,572.87 276.11,567.75 279.05,562.64 282.00,557.21 284.94,552.10 287.88,547.30 290.83,542.78 293.78,537.41 296.73,531.68 299.67,526.19 302.62,521.17 305.57,515.73 308.50,509.37 311.45,503.87 314.40,498.53 317.34,493.40 320.29,487.00 323.24,480.76 326.18,474.65 329.12,468.63 332.07,461.68 335.01,454.88 337.96,448.16 340.91,442.22 343.85,436.29 346.80,430.30 349.74,424.22 352.68,418.48 355.63,413.00 358.58,408.06 361.53,403.19 364.47,398.38 367.42,393.64 370.36,390.44 373.30,387.46 376.25,384.70 379.20,382.18 382.14,380.20 385.09,378.58 388.04,377.30 390.97,376.31 393.92,375.67 396.87,375.31 399.81,375.34 402.76,375.63 405.71,375.90 408.65,376.56 411.59,377.29 414.54,378.09 417.48,378.97 420.43,380.41 423.38,381.23 426.32,381.91 429.27,382.78 432.21,383.48 435.16,383.88 438.10,383.99 441.05,382.98 444.00,381.10 446.94,377.56 449.89,373.72 452.84,369.57 455.77,365.13 458.72,357.25 461.67,349.26 464.61,341.18 467.56,333.01 470.51,324.93 473.45,316.93 476.39,308.53 479.34,300.35 482.28,293.76 485.23,289.19 488.18,284.92 491.12,281.06 494.07,277.70 497.01,277.19 499.96,276.90 502.90,276.82 505.85,276.95 508.80,277.91 511.74,279.25 514.69,280.77 517.63,282.78 520.57,286.10 523.52,290.51 526.47,295.20 529.41,301.43 532.36,308.69 535.31,318.04 538.24,327.51 541.19,337.08 544.14,346.77 547.08,359.48 550.03,371.93 552.98,384.12 555.92,396.08 558.86,408.62 561.81,421.27 564.76,433.30 567.70,445.07 570.65,457.11 573.60,469.73 576.54,481.36 579.49,492.64 582.43,502.50 585.37,512.78 588.32,522.82 591.27,532.63 594.21,542.29 597.16,551.40 600.11,558.52 603.04,565.62 605.99,569.89 608.94,571.98 611.88,572.43 614.83,572.45 617.78,569.91 620.72,566.44 623.66,561.20 626.61,555.80 629.55,550.22 632.50,544.46 635.45,535.85 638.40,527.21 641.34,518.56 644.28,509.91 647.23,500.58 650.17,491.15 653.12,481.67 656.07,472.37 659.01,462.60 661.96,452.32 664.90,444.40 667.84,436.52 670.79,427.55 673.74,416.66 676.68,405.62 679.63,394.43 682.58,383.10 685.51,369.89 688.46,355.03 691.41,339.98 694.35,327.19 697.30,314.04 700.25,300.72 703.20,287.53 706.14,274.36 709.08,261.57 712.03,249.34 714.97,237.26 717.92,225.31 720.87,213.48 723.81,205.09 726.76,196.67 729.70,188.17 732.64,179.54 735.59,171.32 738.54,163.09 741.48,156.92 744.43,150.62 747.38,144.64 750.31,139.19 753.26,134.69 756.21,130.04 759.15,127.43 762.10,125.83 765.05,123.94 767.99,121.86 770.93,119.57 773.88,118.45 776.83,118.69 779.77,118.69 782.72,119.09 785.67,120.17 788.61,121.70 791.55,122.94 794.50,124.63 797.44,126.47 800.39,129.20 803.34,131.65 806.28,133.73 809.23,135.58 812.17,139.47 815.11,143.04 818.06,146.29 821.01,149.18 823.95,152.71 826.90,156.32 829.85,159.89 832.79,163.17 835.73,166.87 838.68,171.12 841.63,175.65 844.57,179.90 847.52,184.27 850.47,190.01 853.41,195.55 856.35,200.84 859.30,205.86 862.24,212.39 865.19,218.77 868.14,224.91 871.08,231.17 874.03,237.83 876.97,245.05 879.91,252.27 882.86,258.12 885.81,263.66 888.75,268.99 891.70,274.34 894.65,279.67 897.58,284.96 900.53,288.26 903.48,291.46 906.43,294.56 909.37,297.57 912.32,299.40 915.27,301.01 918.20,302.46 921.15,303.90 924.10,304.87 927.04,305.41 929.99,307.05 932.94,308.89 935.88,311.19 938.82,313.19 941.77,315.45 944.71,317.96 947.66,320.74 950.61,323.77 953.55,327.75 956.50,332.02 959.44,338.17 962.38,344.61 965.33,351.49 968.28,358.85 971.22,367.19 974.17,375.74 977.12,384.34 980.06,393.39 983.00,402.85 985.95,412.72 988.90,425.44 991.84,438.36 994.79,451.49 997.74,464.84 1000.68,477.99 1003.62,491.10 1006.57,505.67 1009.51,519.98 1012.46,533.24 1015.41,544.92 1018.35,557.29 1021.30,569.27 1024.24,581.73 1027.18,592.90 1030.13,602.97 1033.08,611.98 1036.02,619.97 1038.97,627.85 1041.92,635.28 1044.86,641.41 1047.80,646.19 1050.75,650.45 1053.70,654.01 1056.64,656.72 1059.59,658.42 1062.54,659.62 1065.47,660.32 1068.42,660.85 1071.37,661.24 1074.31,661.55" fill="none" stroke="#000000" stroke-width="3"/>
<line x1="142" y1="100" x2="178" y2="100" stroke="#000000" stroke-width="4"/>
<text x="188" y="105" font-family="Arial" font-size="18" fill="black">nut</text>
</svg>