<svg xmlns="http://www.w3.org/2000/svg" width="1200" height="820" viewBox="0 0 1200 820">
<rect width="100%" height="100%" fill="white"/>
<text x="600.0" y="36" text-anchor="middle" font-family="Arial" font-size="24" fill="black">profile_center_x: U:1</text>
<line x1="120.00" y1="75" x2="120.00" y2="705" stroke="#dddddd" stroke-width="1"/>
<text x="120.00" y="737" text-anchor="middle" font-family="Arial" font-size="16" fill="black">-0.560</text>
<line x1="376.25" y1="75" x2="376.25" y2="705" stroke="#dddddd" stroke-width="1"/>
<text x="376.25" y="737" text-anchor="middle" font-family="Arial" font-size="16" fill="black">1.470</text>
<line x1="632.50" y1="75" x2="632.50" y2="705" stroke="#dddddd" stroke-width="1"/>
<text x="632.50" y="737" text-anchor="middle" font-family="Arial" font-size="16" fill="black">3.500</text>
<line x1="888.75" y1="75" x2="888.75" y2="705" stroke="#dddddd" stroke-width="1"/>
<text x="888.75" y="737" text-anchor="middle" font-family="Arial" font-size="16" fill="black">5.530</text>
<line x1="1145.00" y1="75" x2="1145.00" y2="705" stroke="#dddddd" stroke-width="1"/>
<text x="1145.00" y="737" text-anchor="middle" font-family="Arial" font-size="16" fill="black">7.560</text>
<line x1="120" y1="705.00" x2="1145" y2="705.00" stroke="#dddddd" stroke-width="1"/>
<text x="104" y="710.00" text-anchor="end" font-family="Arial" font-size="16" fill="black">-0.079</text>
<line x1="120" y1="547.50" x2="1145" y2="547.50" stroke="#dddddd" stroke-width="1"/>
<text x="104" y="552.50" text-anchor="end" font-family="Arial" font-size="16" fill="black">-0.029</text>
<line x1="120" y1="390.00" x2="1145" y2="390.00" stroke="#dddddd" stroke-width="1"/>
<text x="104" y="395.00" text-anchor="end" font-family="Arial" font-size="16" fill="black">0.020</text>
<line x1="120" y1="232.50" x2="1145" y2="232.50" stroke="#dddddd" stroke-width="1"/>
<text x="104" y="237.50" text-anchor="end" font-family="Arial" font-size="16" fill="black">0.069</text>
<line x1="120" y1="75.00" x2="1145" y2="75.00" stroke="#dddddd" stroke-width="1"/>
<text x="104" y="80.00" text-anchor="end" font-family="Arial" font-size="16" fill="black">0.118</text>
<rect x="120" y="75" width="1025" height="630" fill="none" stroke="black" stroke-width="2"/>
<text x="632.5" y="785" text-anchor="middle" font-family="Arial" font-size="20" fill="black">x coordinate [m]</text>
<text x="34" y="390.0" transform="rotate(-90 34 390.0)" text-anchor="middle" font-family="Arial" font-size="20" fill="black">U:1 [SI]</text>
<polyline points="190.69,626.72 193.64,621.35 196.58,615.99 199.53,610.63 202.47,605.27 205.42,599.25 208.36,592.98 211.31,586.70 214.25,580.43 217.20,577.21 220.14,578.07 223.09,578.94 226.03,579.80 228.98,581.19 231.93,585.76 234.87,590.33 237.82,594.89 240.76,599.46 243.71,604.60 246.65,609.85 249.60,615.09 252.54,620.33 255.49,625.17 258.43,629.71 261.38,634.26 264.32,638.80 267.27,643.12 270.22,646.88 273.16,650.64 276.11,654.40 279.05,658.16 282.00,659.01 284.94,659.86 287.89,660.70 290.83,661.55 293.78,656.36 296.72,648.75 299.67,641.14 302.62,633.53 305.56,623.07 308.51,608.81 311.45,594.54 314.40,580.29 317.34,566.43 320.29,554.97 323.23,543.51 326.17,532.06 329.13,520.60 332.07,513.22 335.01,506.53 337.96,499.83 340.91,493.13 343.85,487.33 346.80,482.20 349.74,477.07 352.68,471.94 355.64,466.99 358.58,462.51 361.52,458.02 364.47,453.53 367.41,449.05 370.35,445.11 373.31,441.18 376.25,437.24 379.19,433.31 382.15,431.52 385.09,430.58 388.03,429.65 390.98,428.71 393.92,431.13 396.86,438.01 399.82,444.90 402.76,451.78 405.70,459.74 408.65,474.11 411.59,488.49 414.54,502.87 417.49,517.24 420.43,526.66 423.37,535.24 426.33,543.83 429.27,552.41 432.21,549.99 435.16,539.30 438.10,528.61 441.04,517.93 444.00,501.98 446.94,472.87 449.88,443.76 452.83,414.65 455.78,385.54 458.72,350.82 461.67,316.11 464.61,281.39 467.55,246.67 470.51,220.53 473.45,197.81 476.39,175.10 479.34,152.39 482.28,137.27 485.23,132.28 488.18,127.29 491.12,122.29 494.06,118.45 497.02,121.49 499.96,124.57 502.90,127.64 505.85,130.68 508.79,132.64 511.73,134.37 514.69,136.12 517.63,137.87 520.57,138.15 523.52,137.33 526.47,136.51 529.41,135.69 532.36,134.82 535.30,133.84 538.24,132.86 541.20,131.87 544.14,130.91 547.08,131.74 550.03,132.57 552.97,133.40 555.92,134.23 558.87,136.78 561.81,140.01 564.75,143.24 567.71,146.48 570.65,150.38 573.59,155.18 576.54,159.97 579.48,164.77 582.42,169.60 585.38,174.64 588.32,179.68 591.26,184.72 594.21,189.76 597.16,195.02 600.10,200.32 603.05,205.61 605.99,210.91 608.93,216.91 611.89,223.45 614.83,229.98 617.77,236.52 620.72,243.45 623.66,251.38 626.60,259.31 629.56,267.24 632.50,275.16 635.44,283.94 638.40,292.73 641.34,301.51 644.28,310.29 647.23,319.63 650.17,329.20 653.11,338.77 656.07,348.33 659.01,358.53 661.95,369.55 664.90,380.58 667.84,391.60 670.79,402.73 673.74,414.50 676.68,426.26 679.62,438.03 682.58,449.79 685.52,460.48 688.46,471.00 691.41,481.51 694.35,492.02 697.29,501.15 700.25,509.25 703.19,517.34 706.13,525.44 709.08,532.79 712.03,538.27 714.97,543.76 717.92,549.25 720.86,554.73 723.80,558.25 726.76,561.76 729.70,565.28 732.64,568.79 735.59,571.48 738.53,573.84 741.48,576.21 744.43,578.57 747.37,580.64 750.31,582.32 753.27,584.00 756.21,585.68 759.15,587.27 762.10,588.32 765.04,589.37 767.98,590.42 770.94,591.46 773.88,591.78 776.82,591.97 779.77,592.17 782.72,592.36 785.66,592.03 788.61,591.30 791.55,590.57 794.49,589.84 797.45,588.92 800.39,587.55 803.33,586.17 806.28,584.80 809.22,583.42 812.17,581.95 815.12,580.47 818.06,579.00 821.00,577.52 823.96,576.32 826.90,575.24 829.84,574.15 832.79,573.06 835.73,572.24 838.67,571.80 841.63,571.34 844.57,570.90 847.51,570.56 850.46,570.89 853.41,571.21 856.35,571.54 859.30,571.87 862.24,573.06 865.18,574.39 868.14,575.72 871.08,577.05 874.02,578.67 876.97,580.50 879.91,582.34 882.85,584.17 885.81,585.87 888.75,587.22 891.69,588.57 894.65,589.92 897.59,591.27 900.53,591.60 903.48,591.92 906.42,592.25 909.36,592.57 912.32,591.48 915.26,589.82 918.20,588.17 921.15,586.51 924.09,583.54 927.04,578.83 929.99,574.12 932.93,569.42 935.87,564.25 938.83,556.30 941.77,548.36 944.71,540.42 947.66,532.47 950.60,521.52 953.54,510.08 956.50,498.63 959.44,487.18 962.38,474.08 965.33,459.72 968.28,445.37 971.22,431.02 974.17,416.30 977.11,400.64 980.05,384.98 983.01,369.32 985.95,353.65 988.89,337.65 991.84,321.64 994.78,305.63 997.73,289.63 1000.68,274.20 1003.62,259.00 1006.56,243.80 1009.52,228.60 1012.46,214.58 1015.40,202.15 1018.35,189.72 1021.29,177.29 1024.23,165.60 1027.19,158.35 1030.13,151.11 1033.07,143.86 1036.02,136.61 1038.97,136.05 1041.91,136.60 1044.86,137.15 1047.80,137.70 1050.74,145.24 1053.70,158.00 1056.64,170.77 1059.58,183.54 1062.53,195.57 1065.47,205.76 1068.42,215.96 1071.37,226.15 1074.31,236.35" fill="none" stroke="#000000" stroke-width="3"/>
<line x1="142" y1="100" x2="178" y2="100" stroke="#000000" stroke-width="4"/>
<text x="188" y="105" font-family="Arial" font-size="18" fill="black">U:1</text>
</svg>