<svg xmlns="http://www.w3.org/2000/svg" width="1200" height="820" viewBox="0 0 1200 820">
<rect width="100%" height="100%" fill="white"/>
<text x="600.0" y="36" text-anchor="middle" font-family="Arial" font-size="24" fill="black">profile_near_floor_x: nut</text>
<line x1="120.00" y1="75" x2="120.00" y2="705" stroke="#dddddd" stroke-width="1"/>
<text x="120.00" y="737" text-anchor="middle" font-family="Arial" font-size="16" fill="black">-0.560</text>
<line x1="376.25" y1="75" x2="376.25" y2="705" stroke="#dddddd" stroke-width="1"/>
<text x="376.25" y="737" text-anchor="middle" font-family="Arial" font-size="16" fill="black">1.470</text>
<line x1="632.50" y1="75" x2="632.50" y2="705" stroke="#dddddd" stroke-width="1"/>
<text x="632.50" y="737" text-anchor="middle" font-family="Arial" font-size="16" fill="black">3.500</text>
<line x1="888.75" y1="75" x2="888.75" y2="705" stroke="#dddddd" stroke-width="1"/>
<text x="888.75" y="737" text-anchor="middle" font-family="Arial" font-size="16" fill="black">5.530</text>
<line x1="1145.00" y1="75" x2="1145.00" y2="705" stroke="#dddddd" stroke-width="1"/>
<text x="1145.00" y="737" text-anchor="middle" font-family="Arial" font-size="16" fill="black">7.560</text>
<line x1="120" y1="705.00" x2="1145" y2="705.00" stroke="#dddddd" stroke-width="1"/>
<text x="104" y="710.00" text-anchor="end" font-family="Arial" font-size="16" fill="black">2.38e-04</text>
<line x1="120" y1="547.50" x2="1145" y2="547.50" stroke="#dddddd" stroke-width="1"/>
<text x="104" y="552.50" text-anchor="end" font-family="Arial" font-size="16" fill="black">0.002</text>
<line x1="120" y1="390.00" x2="1145" y2="390.00" stroke="#dddddd" stroke-width="1"/>
<text x="104" y="395.00" text-anchor="end" font-family="Arial" font-size="16" fill="black">0.003</text>
<line x1="120" y1="232.50" x2="1145" y2="232.50" stroke="#dddddd" stroke-width="1"/>
<text x="104" y="237.50" text-anchor="end" font-family="Arial" font-size="16" fill="black">0.004</text>
<line x1="120" y1="75.00" x2="1145" y2="75.00" stroke="#dddddd" stroke-width="1"/>
<text x="104" y="80.00" text-anchor="end" font-family="Arial" font-size="16" fill="black">0.005</text>
<rect x="120" y="75" width="1025" height="630" fill="none" stroke="black" stroke-width="2"/>
<text x="632.5" y="785" text-anchor="middle" font-family="Arial" font-size="20" fill="black">x coordinate [m]</text>
<text x="34" y="390.0" transform="rotate(-90 34 390.0)" text-anchor="middle" font-family="Arial" font-size="20" fill="black">nut [m2/s]</text>
<polyline points="190.69,661.55 193.64,642.63 196.58,623.71 199.53,604.78 202.47,585.87 205.42,560.83 208.36,533.34 211.31,505.85 214.25,478.37 217.20,457.52 220.14,445.52 223.09,433.52 226.03,421.52 228.98,410.62 231.93,406.36 234.87,402.09 237.82,397.81 240.76,393.54 243.71,392.36 246.65,391.70 249.60,391.04 252.54,390.38 255.49,390.61 258.43,391.54 261.38,392.46 264.32,393.38 267.27,394.93 270.22,398.04 273.16,401.15 276.11,404.25 279.05,407.37 282.00,416.06 284.94,424.77 287.89,433.46 290.83,442.17 293.78,456.19 296.72,472.34 299.67,488.50 302.62,504.65 305.56,522.04 308.51,541.05 311.45,560.06 314.40,579.07 317.34,596.70 320.29,606.09 323.23,615.46 326.17,624.84 329.13,634.22 332.07,635.72 335.01,635.91 337.96,636.09 340.91,636.28 343.85,636.36 346.80,636.36 349.74,636.36 352.68,636.36 355.64,636.35 358.58,636.31 361.52,636.28 364.47,636.25 367.41,636.22 370.35,636.13 373.31,636.05 376.25,635.96 379.19,635.88 382.15,635.63 385.09,635.31 388.03,634.99 390.98,634.68 393.92,633.41 396.86,630.86 399.82,628.32 402.76,625.78 405.70,619.87 408.65,593.70 411.59,567.55 414.54,541.38 417.49,515.22 420.43,477.68 423.37,438.23 426.33,398.79 429.27,359.34 432.21,329.12 435.16,305.81 438.10,282.50 441.04,259.21 444.00,239.57 446.94,229.13 449.88,218.68 452.83,208.22 455.78,197.77 458.72,195.06 461.67,192.34 464.61,189.63 467.55,186.91 470.51,187.01 473.45,188.24 476.39,189.47 479.34,190.70 482.28,192.74 485.23,195.86 488.18,198.97 491.12,202.09 494.06,205.32 497.02,209.22 499.96,213.11 502.90,217.00 505.85,220.89 508.79,223.85 511.73,226.64 514.69,229.44 517.63,232.23 520.57,233.59 523.52,233.87 526.47,234.14 529.41,234.42 532.36,234.76 535.30,235.21 538.24,235.68 541.20,236.13 544.14,236.60 547.08,243.41 550.03,250.22 552.97,257.02 555.92,263.83 558.87,281.83 561.81,304.31 564.75,326.78 567.71,349.27 570.65,378.00 573.59,415.09 576.54,452.18 579.48,489.26 582.42,524.38 585.38,547.67 588.32,570.97 591.26,594.27 594.21,617.56 597.16,623.58 600.10,626.72 603.05,629.86 605.99,632.99 608.93,634.55 611.89,634.93 614.83,635.30 617.77,635.67 620.72,635.96 623.66,636.06 626.60,636.16 629.56,636.26 632.50,636.36 635.44,636.37 638.40,636.39 641.34,636.41 644.28,636.42 647.23,636.38 650.17,636.31 653.11,636.24 656.07,636.17 659.01,635.61 661.95,634.37 664.90,633.13 667.84,631.90 670.79,627.53 673.74,604.36 676.68,581.20 679.62,558.04 682.58,534.88 685.52,497.50 688.46,457.73 691.41,417.97 694.35,378.21 697.29,345.68 700.25,318.58 703.19,291.47 706.13,264.37 709.08,240.85 712.03,226.33 714.97,211.80 717.92,197.29 720.86,182.76 723.80,175.14 726.76,167.53 729.70,159.91 732.64,152.30 735.59,146.84 738.53,142.27 741.48,137.69 744.43,133.13 747.37,129.30 750.31,126.48 753.27,123.66 756.21,120.84 759.15,118.45 762.10,118.63 765.04,118.82 767.98,119.00 770.94,119.19 773.88,121.86 776.82,124.95 779.77,128.04 782.72,131.13 785.66,136.01 788.61,142.22 791.55,148.44 794.49,154.65 797.45,161.80 800.39,171.27 803.33,180.74 806.28,190.21 809.22,199.68 812.17,214.62 815.12,229.57 818.06,244.52 821.00,259.47 823.96,282.50 826.90,308.78 829.84,335.06 832.79,361.33 835.73,392.25 838.67,429.36 841.63,466.46 844.57,503.56 847.51,538.48 850.46,560.27 853.41,582.05 856.35,603.85 859.30,625.64 862.24,630.13 865.18,631.74 868.14,633.34 871.08,634.95 874.02,635.72 876.97,635.85 879.91,635.99 882.85,636.12 885.81,636.23 888.75,636.28 891.69,636.32 894.65,636.37 897.59,636.41 900.53,636.42 903.48,636.42 906.42,636.42 909.36,636.43 912.32,636.37 915.26,636.29 918.20,636.21 921.15,636.14 924.09,635.64 927.04,634.59 929.99,633.53 932.93,632.48 935.87,629.47 938.83,614.72 941.77,599.98 944.71,585.23 947.66,570.49 950.60,546.44 953.54,520.86 956.50,495.28 959.44,469.70 962.38,449.74 965.33,434.00 968.28,418.28 971.22,402.54 974.17,390.19 977.11,386.29 980.05,382.39 983.01,378.48 985.95,374.58 988.89,375.06 991.84,375.55 994.78,376.05 997.73,376.54 1000.68,376.77 1003.62,376.93 1006.56,377.08 1009.52,377.23 1012.46,377.63 1015.40,378.40 1018.35,379.16 1021.29,379.92 1024.23,381.25 1027.19,386.01 1030.13,390.76 1033.07,395.51 1036.02,400.27 1038.97,410.95 1041.91,422.63 1044.86,434.30 1047.80,445.98 1050.74,465.88 1053.70,491.93 1056.64,518.00 1059.58,544.05 1062.53,567.83 1065.47,585.87 1068.42,603.92 1071.37,621.96 1074.31,640.00" fill="none" stroke="#000000" stroke-width="3"/>
<line x1="142" y1="100" x2="178" y2="100" stroke="#000000" stroke-width="4"/>
<text x="188" y="105" font-family="Arial" font-size="18" fill="black">nut</text>
</svg>