<svg xmlns="http://www.w3.org/2000/svg" width="1200" height="820" viewBox="0 0 1200 820">
<rect width="100%" height="100%" fill="white"/>
<text x="600.0" y="36" text-anchor="middle" font-family="Arial" font-size="24" fill="black">profile_near_ceiling_x: alphat</text>
<line x1="120.00" y1="75" x2="120.00" y2="705" stroke="#dddddd" stroke-width="1"/>
<text x="120.00" y="737" text-anchor="middle" font-family="Arial" font-size="16" fill="black">-0.560</text>
<line x1="376.25" y1="75" x2="376.25" y2="705" stroke="#dddddd" stroke-width="1"/>
<text x="376.25" y="737" text-anchor="middle" font-family="Arial" font-size="16" fill="black">1.470</text>
<line x1="632.50" y1="75" x2="632.50" y2="705" stroke="#dddddd" stroke-width="1"/>
<text x="632.50" y="737" text-anchor="middle" font-family="Arial" font-size="16" fill="black">3.500</text>
<line x1="888.75" y1="75" x2="888.75" y2="705" stroke="#dddddd" stroke-width="1"/>
<text x="888.75" y="737" text-anchor="middle" font-family="Arial" font-size="16" fill="black">5.530</text>
<line x1="1145.00" y1="75" x2="1145.00" y2="705" stroke="#dddddd" stroke-width="1"/>
<text x="1145.00" y="737" text-anchor="middle" font-family="Arial" font-size="16" fill="black">7.560</text>
<line x1="120" y1="705.00" x2="1145" y2="705.00" stroke="#dddddd" stroke-width="1"/>
<text x="104" y="710.00" text-anchor="end" font-family="Arial" font-size="16" fill="black">5.08e-04</text>
<line x1="120" y1="547.50" x2="1145" y2="547.50" stroke="#dddddd" stroke-width="1"/>
<text x="104" y="552.50" text-anchor="end" font-family="Arial" font-size="16" fill="black">0.001</text>
<line x1="120" y1="390.00" x2="1145" y2="390.00" stroke="#dddddd" stroke-width="1"/>
<text x="104" y="395.00" text-anchor="end" font-family="Arial" font-size="16" fill="black">0.002</text>
<line x1="120" y1="232.50" x2="1145" y2="232.50" stroke="#dddddd" stroke-width="1"/>
<text x="104" y="237.50" text-anchor="end" font-family="Arial" font-size="16" fill="black">0.003</text>
<line x1="120" y1="75.00" x2="1145" y2="75.00" stroke="#dddddd" stroke-width="1"/>
<text x="104" y="80.00" text-anchor="end" font-family="Arial" font-size="16" fill="black">0.004</text>
<rect x="120" y="75" width="1025" height="630" fill="none" stroke="black" stroke-width="2"/>
<text x="632.5" y="785" text-anchor="middle" font-family="Arial" font-size="20" fill="black">x coordinate [m]</text>
<text x="34" y="390.0" transform="rotate(-90 34 390.0)" text-anchor="middle" font-family="Arial" font-size="20" fill="black">alphat [SI]</text>
<polyline points="190.69,661.55 193.64,658.51 196.58,655.47 199.53,652.43 202.47,649.39 205.42,643.37 208.36,636.16 211.31,628.94 214.25,621.73 217.20,613.11 220.14,602.62 223.09,592.15 226.03,581.66 228.98,570.98 231.93,559.13 234.87,547.28 237.82,535.43 240.76,523.58 243.71,513.03 246.65,502.73 249.60,492.42 252.54,482.12 255.49,472.71 258.43,463.97 261.38,455.24 264.32,446.52 267.27,438.27 270.22,431.15 273.16,424.06 276.11,416.96 279.05,409.86 282.00,404.45 284.94,399.05 287.89,393.63 290.83,388.22 293.78,384.18 296.72,380.68 299.67,377.16 302.62,373.67 305.56,371.15 308.51,369.97 311.45,368.78 314.40,367.59 317.34,366.79 320.29,368.34 323.23,369.88 326.17,371.43 329.13,372.97 332.07,376.89 335.01,381.20 337.96,385.52 340.91,389.83 343.85,395.28 346.80,401.56 349.74,407.84 352.68,414.14 355.64,420.61 358.58,427.55 361.52,434.50 364.47,441.44 367.41,448.38 370.35,454.56 373.31,460.76 376.25,466.94 379.19,473.14 382.15,477.57 385.09,481.29 388.03,485.02 390.98,488.76 393.92,491.46 396.86,492.76 399.82,494.07 402.76,495.38 405.70,496.68 408.65,498.03 411.59,499.37 414.54,500.71 417.49,502.05 420.43,504.60 423.37,507.35 426.33,510.11 429.27,512.86 432.21,515.70 435.16,518.60 438.10,521.50 441.04,524.41 444.00,526.41 446.94,526.12 449.88,525.85 452.83,525.56 455.78,525.27 458.72,517.06 461.67,508.82 464.61,500.59 467.55,492.37 470.51,478.57 473.45,462.56 476.39,446.55 479.34,430.54 482.28,413.95 485.23,396.59 488.18,379.22 491.12,361.87 494.06,344.86 497.02,330.05 499.96,315.23 502.90,300.41 505.85,285.61 508.79,273.26 511.73,261.35 514.69,249.41 517.63,237.49 520.57,227.24 523.52,218.26 526.47,209.26 529.41,200.28 532.36,192.04 535.30,185.73 538.24,179.43 541.20,173.11 544.14,166.80 547.08,162.71 550.03,158.60 552.97,154.49 555.92,150.40 558.87,147.56 561.81,145.22 564.75,142.90 567.71,140.57 570.65,138.89 573.59,138.09 576.54,137.29 579.48,136.50 582.42,135.92 585.38,136.61 588.32,137.31 591.26,138.01 594.21,138.72 597.16,140.84 600.10,143.20 603.05,145.58 605.99,147.94 608.93,151.44 611.89,155.80 614.83,160.14 617.77,164.51 620.72,169.53 623.66,176.24 626.60,182.96 629.56,189.67 632.50,196.37 635.44,205.64 638.40,214.90 641.34,224.17 644.28,233.42 647.23,244.33 650.17,255.93 653.11,267.53 656.07,279.12 659.01,291.38 661.95,304.57 664.90,317.76 667.84,330.94 670.79,344.14 673.74,357.47 676.68,370.80 679.62,384.11 682.58,397.44 685.52,408.96 688.46,420.20 691.41,431.44 694.35,442.66 697.29,451.30 700.25,458.01 703.19,464.72 706.13,471.40 709.08,476.38 712.03,476.99 714.97,477.62 717.92,478.25 720.86,478.87 723.80,474.05 726.76,469.25 729.70,464.43 732.64,459.62 735.59,453.15 738.53,446.04 741.48,438.93 744.43,431.81 747.37,425.06 750.31,418.78 753.27,412.51 756.21,406.25 759.15,400.22 762.10,395.74 765.04,391.26 767.98,386.76 770.94,382.27 773.88,379.10 776.82,376.16 779.77,373.21 782.72,370.25 785.66,368.05 788.61,366.40 791.55,364.74 794.49,363.09 797.45,361.73 800.39,361.14 803.33,360.53 806.28,359.93 809.22,359.32 812.17,359.53 815.12,359.73 818.06,359.93 821.00,360.12 823.96,360.76 826.90,361.60 829.84,362.43 832.79,363.26 835.73,364.28 838.67,365.59 841.63,366.88 844.57,368.17 847.51,369.49 850.46,370.87 853.41,372.26 856.35,373.65 859.30,375.04 862.24,375.89 865.18,376.66 868.14,377.42 871.08,378.18 874.02,377.96 876.97,377.01 879.91,376.04 882.85,375.08 885.81,373.21 888.75,369.05 891.69,364.91 894.65,360.75 897.59,356.59 900.53,348.52 903.48,340.46 906.42,332.38 909.36,324.31 912.32,313.94 915.26,302.67 918.20,291.38 921.15,280.09 924.09,268.15 927.04,255.34 929.99,242.53 932.93,229.72 935.87,217.05 938.83,205.20 941.77,193.35 944.71,181.50 947.66,169.63 950.60,160.74 953.54,152.33 956.50,143.93 959.44,135.53 962.38,130.04 965.33,126.73 968.28,123.44 971.22,120.15 974.17,118.45 977.11,120.77 980.05,123.10 983.01,125.41 985.95,127.73 988.89,135.09 991.84,142.44 994.78,149.79 997.73,157.14 1000.68,167.33 1003.62,178.63 1006.56,189.94 1009.52,201.25 1012.46,213.93 1015.40,228.43 1018.35,242.93 1021.29,257.41 1024.23,272.33 1027.19,289.75 1030.13,307.18 1033.07,324.60 1036.02,342.04 1038.97,362.87 1041.91,384.26 1044.86,405.65 1047.80,427.06 1050.74,454.50 1053.70,486.45 1056.64,518.41 1059.58,550.38 1062.53,578.94 1065.47,598.94 1068.42,618.95 1071.37,638.96 1074.31,658.97" fill="none" stroke="#000000" stroke-width="3"/>
<line x1="142" y1="100" x2="178" y2="100" stroke="#000000" stroke-width="4"/>
<text x="188" y="105" font-family="Arial" font-size="18" fill="black">alphat</text>
</svg>