<svg xmlns="http://www.w3.org/2000/svg" width="1200" height="820" viewBox="0 0 1200 820">
<rect width="100%" height="100%" fill="white"/>
<text x="600.0" y="36" text-anchor="middle" font-family="Arial" font-size="24" fill="black">profile_center_z: epsilon</text>
<line x1="120.00" y1="75" x2="120.00" y2="705" stroke="#dddddd" stroke-width="1"/>
<text x="120.00" y="737" text-anchor="middle" font-family="Arial" font-size="16" fill="black">-0.240</text>
<line x1="376.25" y1="75" x2="376.25" y2="705" stroke="#dddddd" stroke-width="1"/>
<text x="376.25" y="737" text-anchor="middle" font-family="Arial" font-size="16" fill="black">0.630</text>
<line x1="632.50" y1="75" x2="632.50" y2="705" stroke="#dddddd" stroke-width="1"/>
<text x="632.50" y="737" text-anchor="middle" font-family="Arial" font-size="16" fill="black">1.500</text>
<line x1="888.75" y1="75" x2="888.75" y2="705" stroke="#dddddd" stroke-width="1"/>
<text x="888.75" y="737" text-anchor="middle" font-family="Arial" font-size="16" fill="black">2.370</text>
<line x1="1145.00" y1="75" x2="1145.00" y2="705" stroke="#dddddd" stroke-width="1"/>
<text x="1145.00" y="737" text-anchor="middle" font-family="Arial" font-size="16" fill="black">3.240</text>
<line x1="120" y1="705.00" x2="1145" y2="705.00" stroke="#dddddd" stroke-width="1"/>
<text x="104" y="710.00" text-anchor="end" font-family="Arial" font-size="16" fill="black">0.001</text>
<line x1="120" y1="547.50" x2="1145" y2="547.50" stroke="#dddddd" stroke-width="1"/>
<text x="104" y="552.50" text-anchor="end" font-family="Arial" font-size="16" fill="black">0.004</text>
<line x1="120" y1="390.00" x2="1145" y2="390.00" stroke="#dddddd" stroke-width="1"/>
<text x="104" y="395.00" text-anchor="end" font-family="Arial" font-size="16" fill="black">0.006</text>
<line x1="120" y1="232.50" x2="1145" y2="232.50" stroke="#dddddd" stroke-width="1"/>
<text x="104" y="237.50" text-anchor="end" font-family="Arial" font-size="16" fill="black">0.008</text>
<line x1="120" y1="75.00" x2="1145" y2="75.00" stroke="#dddddd" stroke-width="1"/>
<text x="104" y="80.00" text-anchor="end" font-family="Arial" font-size="16" fill="black">0.010</text>
<rect x="120" y="75" width="1025" height="630" fill="none" stroke="black" stroke-width="2"/>
<text x="632.5" y="785" text-anchor="middle" font-family="Arial" font-size="20" fill="black">z coordinate [m]</text>
<text x="34" y="390.0" transform="rotate(-90 34 390.0)" text-anchor="middle" font-family="Arial" font-size="20" fill="black">epsilon [m2/s3]</text>
<polyline points="190.69,200.44 193.64,204.37 196.58,208.30 199.53,212.22 202.47,216.14 205.42,220.07 208.36,224.00 211.31,227.92 214.25,231.85 217.20,235.78 220.14,239.70 223.09,246.91 226.03,254.12 228.98,261.33 231.93,268.55 234.87,275.76 237.82,282.97 240.76,290.18 243.71,297.40 246.65,304.61 249.60,311.82 252.54,317.88 255.49,323.94 258.43,330.00 261.38,336.05 264.32,342.11 267.27,348.17 270.22,354.23 273.16,360.29 276.11,366.35 279.05,372.41 282.00,377.54 284.94,382.67 287.89,387.80 290.83,392.93 293.78,398.06 296.72,403.19 299.67,408.33 302.61,413.46 305.56,418.58 308.51,423.72 311.45,428.10 314.40,432.48 317.34,436.86 320.29,441.24 323.23,445.62 326.18,450.00 329.12,454.38 332.07,458.76 335.01,463.14 337.96,467.52 340.91,471.30 343.85,475.07 346.80,478.85 349.74,482.62 352.69,486.40 355.63,490.17 358.58,493.95 361.52,497.73 364.47,501.50 367.41,505.28 370.36,508.56 373.30,511.84 376.25,515.12 379.20,518.40 382.14,521.69 385.09,524.97 388.03,528.25 390.98,531.54 393.92,534.82 396.87,538.10 399.81,540.96 402.76,543.81 405.70,546.68 408.65,549.53 411.59,552.39 414.54,555.25 417.49,558.10 420.43,560.97 423.38,563.82 426.32,566.68 429.27,569.11 432.21,571.54 435.16,573.97 438.10,576.41 441.05,578.84 443.99,581.27 446.94,583.70 449.89,586.14 452.83,588.57 455.78,591.00 458.72,592.84 461.67,594.68 464.61,596.52 467.56,598.35 470.50,600.19 473.45,602.03 476.39,603.87 479.34,605.71 482.28,607.54 485.23,609.38 488.18,610.21 491.12,611.04 494.07,611.87 497.01,612.70 499.96,613.53 502.90,614.36 505.85,615.19 508.79,616.02 511.74,616.84 514.68,617.68 517.63,616.83 520.57,615.99 523.52,615.14 526.47,614.30 529.41,613.45 532.36,612.60 535.30,611.76 538.25,610.92 541.19,610.07 544.14,609.23 547.08,604.38 550.03,599.52 552.97,594.68 555.92,589.83 558.86,584.98 561.81,580.13 564.76,575.28 567.70,570.44 570.65,565.59 573.59,560.74 576.54,538.77 579.48,516.79 582.43,494.81 585.37,472.83 588.32,450.85 591.26,428.88 594.21,406.90 597.16,384.93 600.10,362.95 603.05,340.97 605.99,318.72 608.94,296.47 611.88,274.22 614.83,251.97 617.77,229.71 620.72,207.46 623.66,185.20 626.61,162.95 629.55,140.70 632.50,118.45 635.45,132.33 638.39,146.21 641.34,160.08 644.28,173.96 647.23,187.84 650.17,201.71 653.12,215.59 656.06,229.47 659.01,243.35 661.95,257.23 664.90,282.54 667.84,307.86 670.79,333.18 673.74,358.49 676.68,383.81 679.63,409.13 682.57,434.45 685.52,459.76 688.46,485.08 691.41,510.39 694.35,520.71 697.30,531.04 700.24,541.36 703.19,551.68 706.14,562.00 709.08,572.33 712.03,582.65 714.97,592.97 717.92,603.30 720.86,613.62 723.81,617.59 726.75,621.57 729.70,625.53 732.64,629.50 735.59,633.48 738.53,637.45 741.48,641.42 744.43,645.40 747.37,649.36 750.32,653.33 753.26,654.16 756.21,654.98 759.15,655.80 762.10,656.62 765.04,657.44 767.99,658.26 770.93,659.09 773.88,659.91 776.82,660.73 779.77,661.55 782.72,660.90 785.66,660.24 788.61,659.58 791.55,658.92 794.50,658.26 797.44,657.60 800.39,656.95 803.33,656.29 806.28,655.63 809.22,654.97 812.17,653.47 815.11,651.98 818.06,650.48 821.01,648.99 823.95,647.49 826.90,645.99 829.84,644.50 832.79,643.00 835.73,641.50 838.68,640.01 841.62,637.80 844.57,635.58 847.51,633.38 850.46,631.16 853.41,628.95 856.35,626.74 859.30,624.53 862.24,622.32 865.19,620.11 868.13,617.90 871.08,614.84 874.02,611.78 876.97,608.72 879.91,605.65 882.86,602.60 885.80,599.53 888.75,596.47 891.70,593.41 894.64,590.35 897.59,587.29 900.53,583.22 903.48,579.14 906.42,575.06 909.37,570.99 912.31,566.91 915.26,562.84 918.20,558.76 921.15,554.68 924.09,550.61 927.04,546.54 929.99,541.52 932.93,536.49 935.88,531.47 938.82,526.45 941.77,521.43 944.71,516.41 947.66,511.39 950.60,506.37 953.55,501.36 956.49,496.33 959.44,490.51 962.39,484.70 965.33,478.88 968.28,473.06 971.22,467.25 974.17,461.43 977.11,455.61 980.06,449.80 983.00,443.98 985.95,438.16 988.89,430.78 991.84,423.40 994.78,416.01 997.73,408.63 1000.68,401.25 1003.62,393.87 1006.57,386.49 1009.51,379.11 1012.46,371.72 1015.40,364.35 1018.35,352.05 1021.29,339.75 1024.24,327.45 1027.18,315.16 1030.13,302.86 1033.07,290.56 1036.02,278.27 1038.97,265.97 1041.91,253.67 1044.86,241.37 1047.80,233.36 1050.75,225.34 1053.69,217.32 1056.64,209.31 1059.58,201.28 1062.53,193.27 1065.47,185.25 1068.42,177.23 1071.36,169.21 1074.31,161.20" fill="none" stroke="#000000" stroke-width="3"/>
<line x1="142" y1="100" x2="178" y2="100" stroke="#000000" stroke-width="4"/>
<text x="188" y="105" font-family="Arial" font-size="18" fill="black">epsilon</text>
</svg>