<svg xmlns="http://www.w3.org/2000/svg" width="1200" height="820" viewBox="0 0 1200 820">
<rect width="100%" height="100%" fill="white"/>
<text x="600.0" y="36" text-anchor="middle" font-family="Arial" font-size="24" fill="black">profile_rack_height_x: U:0</text>
<line x1="120.00" y1="75" x2="120.00" y2="705" stroke="#dddddd" stroke-width="1"/>
<text x="120.00" y="737" text-anchor="middle" font-family="Arial" font-size="16" fill="black">-0.560</text>
<line x1="376.25" y1="75" x2="376.25" y2="705" stroke="#dddddd" stroke-width="1"/>
<text x="376.25" y="737" text-anchor="middle" font-family="Arial" font-size="16" fill="black">1.470</text>
<line x1="632.50" y1="75" x2="632.50" y2="705" stroke="#dddddd" stroke-width="1"/>
<text x="632.50" y="737" text-anchor="middle" font-family="Arial" font-size="16" fill="black">3.500</text>
<line x1="888.75" y1="75" x2="888.75" y2="705" stroke="#dddddd" stroke-width="1"/>
<text x="888.75" y="737" text-anchor="middle" font-family="Arial" font-size="16" fill="black">5.530</text>
<line x1="1145.00" y1="75" x2="1145.00" y2="705" stroke="#dddddd" stroke-width="1"/>
<text x="1145.00" y="737" text-anchor="middle" font-family="Arial" font-size="16" fill="black">7.560</text>
<line x1="120" y1="705.00" x2="1145" y2="705.00" stroke="#dddddd" stroke-width="1"/>
<text x="104" y="710.00" text-anchor="end" font-family="Arial" font-size="16" fill="black">-0.280</text>
<line x1="120" y1="547.50" x2="1145" y2="547.50" stroke="#dddddd" stroke-width="1"/>
<text x="104" y="552.50" text-anchor="end" font-family="Arial" font-size="16" fill="black">-0.149</text>
<line x1="120" y1="390.00" x2="1145" y2="390.00" stroke="#dddddd" stroke-width="1"/>
<text x="104" y="395.00" text-anchor="end" font-family="Arial" font-size="16" fill="black">-0.019</text>
<line x1="120" y1="232.50" x2="1145" y2="232.50" stroke="#dddddd" stroke-width="1"/>
<text x="104" y="237.50" text-anchor="end" font-family="Arial" font-size="16" fill="black">0.112</text>
<line x1="120" y1="75.00" x2="1145" y2="75.00" stroke="#dddddd" stroke-width="1"/>
<text x="104" y="80.00" text-anchor="end" font-family="Arial" font-size="16" fill="black">0.242</text>
<rect x="120" y="75" width="1025" height="630" fill="none" stroke="black" stroke-width="2"/>
<text x="632.5" y="785" text-anchor="middle" font-family="Arial" font-size="20" fill="black">x coordinate [m]</text>
<text x="34" y="390.0" transform="rotate(-90 34 390.0)" text-anchor="middle" font-family="Arial" font-size="20" fill="black">U:0 [SI]</text>
<polyline points="190.69,345.31 193.64,343.57 196.58,341.84 199.53,340.10 202.47,338.37 205.42,335.90 208.36,333.14 211.31,330.38 214.25,327.62 217.20,326.97 220.14,329.14 223.09,331.31 226.03,333.48 228.98,336.86 231.93,347.53 234.87,358.21 237.82,368.88 240.76,379.55 243.71,395.50 246.65,412.34 249.60,429.17 252.54,446.00 255.49,463.72 258.43,482.11 261.38,500.50 264.32,518.88 267.27,536.60 270.22,552.67 273.16,568.74 276.11,584.81 279.05,600.89 282.00,610.76 284.94,620.65 287.89,630.54 290.83,640.43 293.78,643.06 296.72,642.78 299.67,642.50 302.62,642.22 305.56,637.27 308.51,626.08 311.45,614.90 314.40,603.71 317.34,591.57 320.29,573.70 323.23,555.84 326.17,537.97 329.13,520.09 332.07,502.69 335.01,485.38 337.96,468.07 340.91,450.75 343.85,434.77 346.80,419.79 349.74,404.81 352.68,389.83 355.64,375.28 358.58,361.79 361.52,348.31 364.47,334.83 367.41,321.34 370.35,307.92 373.31,294.50 376.25,281.08 379.19,267.67 382.15,253.30 385.09,238.54 388.03,223.79 390.98,209.04 393.92,195.06 396.86,182.10 399.82,169.15 402.76,156.20 405.70,144.17 408.65,137.74 411.59,131.31 414.54,124.88 417.49,118.45 420.43,121.02 423.37,125.10 426.33,129.18 429.27,133.25 432.21,142.47 435.16,155.53 438.10,168.61 441.04,181.67 444.00,195.73 446.94,212.27 449.88,228.81 452.83,245.35 455.78,261.89 458.72,276.93 461.67,291.96 464.61,306.99 467.55,322.03 470.51,334.59 473.45,346.16 476.39,357.73 479.34,369.30 482.28,379.77 485.23,388.79 488.18,397.81 491.12,406.83 494.06,415.76 497.02,424.22 499.96,432.67 502.90,441.13 505.85,449.58 508.79,458.54 511.73,467.57 514.69,476.61 517.63,485.64 520.57,494.97 523.52,504.52 526.47,514.07 529.41,523.61 532.36,533.24 535.30,543.03 538.24,552.83 541.20,562.63 544.14,572.42 547.08,581.98 550.03,591.53 552.97,601.09 555.92,610.64 558.87,619.05 561.81,626.98 564.75,634.91 567.71,642.84 570.65,648.86 573.59,652.32 576.54,655.78 579.48,659.25 582.42,661.55 585.38,656.87 588.32,652.18 591.26,647.51 594.21,642.83 597.16,630.67 600.10,617.27 603.05,603.87 605.99,590.47 608.93,575.13 611.89,558.32 614.83,541.52 617.77,524.73 620.72,508.33 623.66,492.95 626.60,477.58 629.56,462.20 632.50,446.82 635.44,433.03 638.40,419.24 641.34,405.45 644.28,391.65 647.23,378.06 650.17,364.56 653.11,351.05 656.07,337.55 659.01,325.05 661.95,313.90 664.90,302.75 667.84,291.60 670.79,281.36 673.74,276.59 676.68,271.83 679.62,267.06 682.58,262.29 685.52,263.76 688.46,266.26 691.41,268.77 694.35,271.27 697.29,276.92 700.25,284.93 703.19,292.94 706.13,300.94 709.08,309.59 712.03,319.82 714.97,330.05 717.92,340.28 720.86,350.51 723.80,360.06 726.76,369.61 729.70,379.16 732.64,388.70 735.59,396.73 738.53,404.14 741.48,411.56 744.43,418.97 747.37,425.70 750.31,431.51 753.27,437.32 756.21,443.13 759.15,448.95 762.10,454.87 765.04,460.80 767.98,466.72 770.94,472.64 773.88,479.63 776.82,486.81 779.77,493.98 782.72,501.15 785.66,509.20 788.61,517.89 791.55,526.58 794.49,535.29 797.45,544.23 800.39,553.83 803.33,563.43 806.28,573.04 809.22,582.64 812.17,591.64 815.12,600.65 818.06,609.64 821.00,618.65 823.96,625.70 826.90,631.95 829.84,638.20 832.79,644.47 835.73,648.65 838.67,650.06 841.63,651.47 844.57,652.88 847.51,653.51 850.46,649.50 853.41,645.50 856.35,641.49 859.30,637.48 862.24,630.26 865.18,622.51 868.14,614.75 871.08,607.00 874.02,598.46 876.97,589.36 879.91,580.26 882.85,571.16 885.81,561.97 888.75,552.60 891.69,543.23 894.65,533.86 897.59,524.50 900.53,514.50 903.48,504.50 906.42,494.52 909.36,484.52 912.32,474.30 915.26,463.99 918.20,453.68 921.15,443.37 924.09,434.25 927.04,426.72 929.99,419.18 932.93,411.64 935.87,404.96 938.83,403.35 941.77,401.75 944.71,400.15 947.66,398.54 950.60,401.71 953.54,405.67 956.50,409.63 959.44,413.60 962.38,419.06 965.33,425.65 968.28,432.25 971.22,438.84 974.17,445.38 977.11,451.80 980.05,458.23 983.01,464.65 985.95,471.07 988.89,475.80 991.84,480.53 994.78,485.26 997.73,489.99 1000.68,492.95 1003.62,495.22 1006.56,497.48 1009.52,499.75 1012.46,500.82 1015.40,500.30 1018.35,499.77 1021.29,499.25 1024.23,498.35 1027.19,495.05 1030.13,491.76 1033.07,488.47 1036.02,485.18 1038.97,479.28 1041.91,472.95 1044.86,466.61 1047.80,460.28 1050.74,452.86 1053.70,444.61 1056.64,436.37 1059.58,428.13 1062.53,421.03 1065.47,416.80 1068.42,412.57 1071.37,408.34 1074.31,404.11" fill="none" stroke="#000000" stroke-width="3"/>
<line x1="142" y1="100" x2="178" y2="100" stroke="#000000" stroke-width="4"/>
<text x="188" y="105" font-family="Arial" font-size="18" fill="black">U:0</text>
</svg>