<svg xmlns="http://www.w3.org/2000/svg" width="1200" height="820" viewBox="0 0 1200 820">
<rect width="100%" height="100%" fill="white"/>
<text x="600.0" y="36" text-anchor="middle" font-family="Arial" font-size="24" fill="black">profile_center_x: U:2</text>
<line x1="120.00" y1="75" x2="120.00" y2="705" stroke="#dddddd" stroke-width="1"/>
<text x="120.00" y="737" text-anchor="middle" font-family="Arial" font-size="16" fill="black">-0.560</text>
<line x1="376.25" y1="75" x2="376.25" y2="705" stroke="#dddddd" stroke-width="1"/>
<text x="376.25" y="737" text-anchor="middle" font-family="Arial" font-size="16" fill="black">1.470</text>
<line x1="632.50" y1="75" x2="632.50" y2="705" stroke="#dddddd" stroke-width="1"/>
<text x="632.50" y="737" text-anchor="middle" font-family="Arial" font-size="16" fill="black">3.500</text>
<line x1="888.75" y1="75" x2="888.75" y2="705" stroke="#dddddd" stroke-width="1"/>
<text x="888.75" y="737" text-anchor="middle" font-family="Arial" font-size="16" fill="black">5.530</text>
<line x1="1145.00" y1="75" x2="1145.00" y2="705" stroke="#dddddd" stroke-width="1"/>
<text x="1145.00" y="737" text-anchor="middle" font-family="Arial" font-size="16" fill="black">7.560</text>
<line x1="120" y1="705.00" x2="1145" y2="705.00" stroke="#dddddd" stroke-width="1"/>
<text x="104" y="710.00" text-anchor="end" font-family="Arial" font-size="16" fill="black">-0.568</text>
<line x1="120" y1="547.50" x2="1145" y2="547.50" stroke="#dddddd" stroke-width="1"/>
<text x="104" y="552.50" text-anchor="end" font-family="Arial" font-size="16" fill="black">-0.313</text>
<line x1="120" y1="390.00" x2="1145" y2="390.00" stroke="#dddddd" stroke-width="1"/>
<text x="104" y="395.00" text-anchor="end" font-family="Arial" font-size="16" fill="black">-0.058</text>
<line x1="120" y1="232.50" x2="1145" y2="232.50" stroke="#dddddd" stroke-width="1"/>
<text x="104" y="237.50" text-anchor="end" font-family="Arial" font-size="16" fill="black">0.197</text>
<line x1="120" y1="75.00" x2="1145" y2="75.00" stroke="#dddddd" stroke-width="1"/>
<text x="104" y="80.00" text-anchor="end" font-family="Arial" font-size="16" fill="black">0.452</text>
<rect x="120" y="75" width="1025" height="630" fill="none" stroke="black" stroke-width="2"/>
<text x="632.5" y="785" text-anchor="middle" font-family="Arial" font-size="20" fill="black">x coordinate [m]</text>
<text x="34" y="390.0" transform="rotate(-90 34 390.0)" text-anchor="middle" font-family="Arial" font-size="20" fill="black">U:2 [SI]</text>
<polyline points="190.69,507.09 193.64,506.91 196.58,506.73 199.53,506.56 202.47,506.38 205.42,505.97 208.36,505.47 211.31,504.97 214.25,504.47 217.20,504.24 220.14,504.38 223.09,504.52 226.03,504.66 228.98,505.03 231.93,506.76 234.87,508.47 237.82,510.20 240.76,511.92 243.71,513.90 246.65,515.92 249.60,517.94 252.54,519.95 255.49,520.58 258.43,520.16 261.38,519.75 264.32,519.34 267.27,517.45 270.22,511.91 273.16,506.36 276.11,500.82 279.05,495.27 282.00,482.56 284.94,469.86 287.89,457.14 290.83,444.43 293.78,426.01 296.72,405.29 299.67,384.58 302.62,363.87 305.56,341.52 308.51,316.98 311.45,292.45 314.40,267.91 317.34,244.27 320.29,225.98 323.23,207.68 326.17,189.40 329.13,171.10 332.07,161.89 335.01,154.19 337.96,146.50 340.91,138.80 343.85,134.15 346.80,131.80 349.74,129.44 352.68,127.08 355.64,124.94 358.58,123.33 361.52,121.72 364.47,120.12 367.41,118.52 370.35,118.50 373.31,118.49 376.25,118.47 379.19,118.45 382.15,124.21 385.09,132.29 388.03,140.36 390.98,148.44 393.92,161.58 396.86,181.48 399.82,201.39 402.76,221.29 405.70,241.95 408.65,267.15 411.59,292.33 414.54,317.52 417.49,342.71 420.43,365.17 423.37,387.18 426.33,409.18 429.27,431.19 432.21,449.63 435.16,465.40 438.10,481.16 441.04,496.93 444.00,511.31 446.94,522.25 449.88,533.18 452.83,544.11 455.78,555.04 458.72,564.00 461.67,572.95 464.61,581.91 467.55,590.86 470.51,599.27 473.45,607.47 476.39,615.67 479.34,623.87 482.28,631.08 485.23,636.95 488.18,642.83 491.12,648.70 494.06,654.01 497.02,655.89 499.96,657.78 502.90,659.66 505.85,661.55 508.79,660.23 511.73,658.37 514.69,656.52 517.63,654.66 520.57,651.30 523.52,646.82 526.47,642.34 529.41,637.87 532.36,632.87 535.30,626.58 538.24,620.28 541.20,613.99 544.14,607.69 547.08,599.73 550.03,591.77 552.97,583.81 555.92,575.85 558.87,566.58 561.81,556.80 564.75,547.02 567.71,537.24 570.65,526.70 573.59,515.15 576.54,503.61 579.48,492.06 582.42,480.35 585.38,467.69 588.32,455.03 591.26,442.37 594.21,429.71 597.16,418.54 600.10,407.61 603.05,396.69 605.99,385.76 608.93,377.83 611.89,372.15 614.83,366.46 617.77,360.77 620.72,356.37 623.66,355.17 626.60,353.98 629.56,352.78 632.50,351.59 635.44,352.17 638.40,352.75 641.34,353.33 644.28,353.91 647.23,355.92 650.17,358.51 653.11,361.11 656.07,363.70 659.01,368.13 661.95,375.02 664.90,381.90 667.84,388.79 670.79,396.03 673.74,405.45 676.68,414.86 679.62,424.27 682.58,433.68 685.52,441.94 688.46,450.01 691.41,458.09 694.35,466.16 697.29,472.69 700.25,478.07 703.19,483.45 706.13,488.83 709.08,493.34 712.03,495.70 714.97,498.06 717.92,500.42 720.86,502.78 723.80,502.96 726.76,503.14 729.70,503.31 732.64,503.49 735.59,503.12 738.53,502.54 741.48,501.96 744.43,501.38 747.37,500.90 750.31,500.56 753.27,500.23 756.21,499.89 759.15,499.60 762.10,499.59 765.04,499.58 767.98,499.58 770.94,499.57 773.88,499.44 776.82,499.29 779.77,499.15 782.72,499.00 785.66,498.42 788.61,497.53 791.55,496.64 794.49,495.75 797.45,494.48 800.39,492.25 803.33,490.03 806.28,487.80 809.22,485.58 812.17,481.75 815.12,477.92 818.06,474.09 821.00,470.26 823.96,465.51 826.90,460.38 829.84,455.26 832.79,450.13 835.73,444.85 838.67,439.36 841.63,433.86 844.57,428.37 847.51,422.97 850.46,418.20 853.41,413.42 856.35,408.64 859.30,403.87 862.24,400.62 865.18,397.63 868.14,394.64 871.08,391.65 874.02,389.69 876.97,388.49 879.91,387.29 882.85,386.10 885.81,385.17 888.75,384.91 891.69,384.64 894.65,384.38 897.59,384.12 900.53,384.55 903.48,384.98 906.42,385.41 909.36,385.83 912.32,387.33 915.26,389.25 918.20,391.17 921.15,393.09 924.09,396.15 927.04,400.73 929.99,405.31 932.93,409.88 935.87,414.72 938.83,421.14 941.77,427.55 944.71,433.96 947.66,440.37 950.60,446.70 953.54,453.00 956.50,459.31 959.44,465.62 962.38,471.23 965.33,476.32 968.28,481.41 971.22,486.49 974.17,491.16 977.11,494.76 980.05,498.36 983.01,501.96 985.95,505.56 988.89,508.02 991.84,510.47 994.78,512.92 997.73,515.37 1000.68,517.32 1003.62,519.06 1006.56,520.81 1009.52,522.55 1012.46,524.20 1015.40,525.73 1018.35,527.26 1021.29,528.78 1024.23,530.34 1027.19,532.07 1030.13,533.80 1033.07,535.52 1036.02,537.25 1038.97,539.32 1041.91,541.45 1044.86,543.57 1047.80,545.69 1050.74,547.98 1053.70,550.40 1056.64,552.81 1059.58,555.22 1062.53,557.31 1065.47,558.55 1068.42,559.79 1071.37,561.04 1074.31,562.28" fill="none" stroke="#000000" stroke-width="3"/>
<line x1="142" y1="100" x2="178" y2="100" stroke="#000000" stroke-width="4"/>
<text x="188" y="105" font-family="Arial" font-size="18" fill="black">U:2</text>
</svg>