<svg xmlns="http://www.w3.org/2000/svg" width="1200" height="820" viewBox="0 0 1200 820">
<rect width="100%" height="100%" fill="white"/>
<text x="600.0" y="36" text-anchor="middle" font-family="Arial" font-size="24" fill="black">profile_near_ceiling_x: vorticity:2</text>
<line x1="120.00" y1="75" x2="120.00" y2="705" stroke="#dddddd" stroke-width="1"/>
<text x="120.00" y="737" text-anchor="middle" font-family="Arial" font-size="16" fill="black">-0.560</text>
<line x1="376.25" y1="75" x2="376.25" y2="705" stroke="#dddddd" stroke-width="1"/>
<text x="376.25" y="737" text-anchor="middle" font-family="Arial" font-size="16" fill="black">1.470</text>
<line x1="632.50" y1="75" x2="632.50" y2="705" stroke="#dddddd" stroke-width="1"/>
<text x="632.50" y="737" text-anchor="middle" font-family="Arial" font-size="16" fill="black">3.500</text>
<line x1="888.75" y1="75" x2="888.75" y2="705" stroke="#dddddd" stroke-width="1"/>
<text x="888.75" y="737" text-anchor="middle" font-family="Arial" font-size="16" fill="black">5.530</text>
<line x1="1145.00" y1="75" x2="1145.00" y2="705" stroke="#dddddd" stroke-width="1"/>
<text x="1145.00" y="737" text-anchor="middle" font-family="Arial" font-size="16" fill="black">7.560</text>
<line x1="120" y1="705.00" x2="1145" y2="705.00" stroke="#dddddd" stroke-width="1"/>
<text x="104" y="710.00" text-anchor="end" font-family="Arial" font-size="16" fill="black">-1.618</text>
<line x1="120" y1="547.50" x2="1145" y2="547.50" stroke="#dddddd" stroke-width="1"/>
<text x="104" y="552.50" text-anchor="end" font-family="Arial" font-size="16" fill="black">-0.809</text>
<line x1="120" y1="390.00" x2="1145" y2="390.00" stroke="#dddddd" stroke-width="1"/>
<text x="104" y="395.00" text-anchor="end" font-family="Arial" font-size="16" fill="black">-4.00e-04</text>
<line x1="120" y1="232.50" x2="1145" y2="232.50" stroke="#dddddd" stroke-width="1"/>
<text x="104" y="237.50" text-anchor="end" font-family="Arial" font-size="16" fill="black">0.808</text>
<line x1="120" y1="75.00" x2="1145" y2="75.00" stroke="#dddddd" stroke-width="1"/>
<text x="104" y="80.00" text-anchor="end" font-family="Arial" font-size="16" fill="black">1.617</text>
<rect x="120" y="75" width="1025" height="630" fill="none" stroke="black" stroke-width="2"/>
<text x="632.5" y="785" text-anchor="middle" font-family="Arial" font-size="20" fill="black">x coordinate [m]</text>
<text x="34" y="390.0" transform="rotate(-90 34 390.0)" text-anchor="middle" font-family="Arial" font-size="20" fill="black">vorticity:2 [SI]</text>
<polyline points="190.69,560.94 193.64,493.55 196.58,426.16 199.53,358.77 202.47,291.38 205.42,243.56 208.36,203.56 211.31,163.55 214.25,123.55 217.20,118.45 220.14,159.89 223.09,201.31 226.03,242.74 228.98,280.59 231.93,296.98 234.87,313.37 237.82,329.75 240.76,346.14 243.71,350.94 246.65,353.81 249.60,356.68 252.54,359.55 255.49,361.41 258.43,362.51 261.38,363.61 264.32,364.71 267.27,365.90 270.22,367.30 273.16,368.70 276.11,370.10 279.05,371.50 282.00,373.41 284.94,375.32 287.89,377.23 290.83,379.14 293.78,381.45 296.72,383.92 299.67,386.39 302.62,388.86 305.56,391.61 308.51,394.72 311.45,397.84 314.40,400.95 317.34,404.18 320.29,408.10 323.23,412.02 326.17,415.94 329.13,419.86 332.07,424.75 335.01,429.81 337.96,434.87 340.91,439.92 343.85,444.24 346.80,448.00 349.74,451.77 352.68,455.53 355.64,457.02 358.58,452.82 361.52,448.62 364.47,444.42 367.41,440.21 370.35,423.43 373.31,406.65 376.25,389.86 379.19,373.08 382.15,352.76 385.09,331.03 388.03,309.30 390.98,287.57 393.92,270.23 396.86,258.74 399.82,247.25 402.76,235.76 405.70,226.33 408.65,229.26 411.59,232.19 414.54,235.12 417.49,238.05 420.43,247.74 423.37,258.57 426.33,269.39 429.27,280.21 432.21,293.37 435.16,308.27 438.10,323.18 441.04,338.09 444.00,353.57 446.94,370.49 449.88,387.42 452.83,404.34 455.78,421.27 458.72,430.18 461.67,439.09 464.61,448.00 467.55,456.91 470.51,456.07 473.45,451.32 476.39,446.58 479.34,441.84 482.28,436.08 485.23,428.95 488.18,421.83 491.12,414.71 494.06,408.33 497.02,406.47 499.96,404.61 502.90,402.75 505.85,400.89 508.79,401.14 511.73,401.74 514.69,402.34 517.63,402.93 520.57,403.72 523.52,404.65 526.47,405.59 529.41,406.52 532.36,407.36 535.30,407.97 538.24,408.59 541.20,409.20 544.14,409.82 547.08,410.00 550.03,410.19 552.97,410.38 555.92,410.57 558.87,410.53 561.81,410.40 564.75,410.27 567.71,410.14 570.65,409.95 573.59,409.69 576.54,409.42 579.48,409.16 582.42,408.90 585.38,408.67 588.32,408.45 591.26,408.23 594.21,408.00 597.16,407.96 600.10,407.95 603.05,407.94 605.99,407.93 608.93,408.12 611.89,408.45 614.83,408.78 617.77,409.12 620.72,409.52 623.66,410.08 626.60,410.65 629.56,411.22 632.50,411.78 635.44,412.03 638.40,412.28 641.34,412.52 644.28,412.77 647.23,412.45 650.17,411.91 653.11,411.36 656.07,410.82 659.01,409.84 661.95,408.30 664.90,406.75 667.84,405.20 670.79,403.41 673.74,400.20 676.68,396.98 679.62,393.77 682.58,390.55 685.52,385.14 688.46,379.36 691.41,373.58 694.35,367.80 697.29,360.74 700.25,352.71 703.19,344.68 706.13,336.66 709.08,328.80 712.03,321.37 714.97,313.94 717.92,306.52 720.86,299.09 723.80,296.50 726.76,293.91 729.70,291.32 732.64,288.73 735.59,290.44 738.53,293.88 741.48,297.31 744.43,300.75 747.37,305.25 750.31,311.18 753.27,317.11 756.21,323.04 759.15,328.81 762.10,333.62 765.04,338.43 767.98,343.23 770.94,348.04 773.88,351.42 776.82,354.57 779.77,357.71 782.72,360.85 785.66,363.44 788.61,365.60 791.55,367.77 794.49,369.93 797.45,371.89 800.39,373.37 803.33,374.84 806.28,376.31 809.22,377.78 812.17,378.51 815.12,379.23 818.06,379.95 821.00,380.67 823.96,380.63 826.90,380.28 829.84,379.93 832.79,379.58 835.73,378.48 838.67,376.38 841.63,374.27 844.57,372.17 847.51,369.66 850.46,364.66 853.41,359.67 856.35,354.68 859.30,349.68 862.24,343.71 865.18,337.58 868.14,331.45 871.08,325.32 874.02,321.15 876.97,318.45 879.91,315.75 882.85,313.05 885.81,311.89 888.75,314.56 891.69,317.22 894.65,319.89 897.59,322.56 900.53,328.39 903.48,334.23 906.42,340.07 909.36,345.91 912.32,351.23 915.26,356.34 918.20,361.45 921.15,366.57 924.09,370.52 927.04,372.95 929.99,375.37 932.93,377.79 935.87,379.90 938.83,380.10 941.77,380.31 944.71,380.51 947.66,380.71 950.60,380.06 953.54,379.25 956.50,378.45 959.44,377.65 962.38,376.94 965.33,376.29 968.28,375.65 971.22,375.00 974.17,374.57 977.11,374.69 980.05,374.80 983.01,374.91 985.95,375.02 988.89,375.94 991.84,376.85 994.78,377.76 997.73,378.68 1000.68,380.00 1003.62,381.49 1006.56,382.97 1009.52,384.46 1012.46,386.09 1015.40,387.91 1018.35,389.74 1021.29,391.57 1024.23,393.45 1027.19,395.64 1030.13,397.83 1033.07,400.03 1036.02,402.22 1038.97,405.23 1041.91,408.36 1044.86,411.49 1047.80,414.63 1050.74,432.89 1053.70,462.50 1056.64,492.11 1059.58,521.72 1062.53,550.78 1065.47,578.47 1068.42,606.17 1071.37,633.86 1074.31,661.55" fill="none" stroke="#000000" stroke-width="3"/>
<line x1="142" y1="100" x2="178" y2="100" stroke="#000000" stroke-width="4"/>
<text x="188" y="105" font-family="Arial" font-size="18" fill="black">vorticity:2</text>
</svg>