<svg xmlns="http://www.w3.org/2000/svg" width="1200" height="820" viewBox="0 0 1200 820">
<rect width="100%" height="100%" fill="white"/>
<text x="600.0" y="36" text-anchor="middle" font-family="Arial" font-size="24" fill="black">profile_near_floor_x: velocity magnitude</text>
<line x1="120.00" y1="75" x2="120.00" y2="705" stroke="#dddddd" stroke-width="1"/>
<text x="120.00" y="737" text-anchor="middle" font-family="Arial" font-size="16" fill="black">-0.560</text>
<line x1="376.25" y1="75" x2="376.25" y2="705" stroke="#dddddd" stroke-width="1"/>
<text x="376.25" y="737" text-anchor="middle" font-family="Arial" font-size="16" fill="black">1.470</text>
<line x1="632.50" y1="75" x2="632.50" y2="705" stroke="#dddddd" stroke-width="1"/>
<text x="632.50" y="737" text-anchor="middle" font-family="Arial" font-size="16" fill="black">3.500</text>
<line x1="888.75" y1="75" x2="888.75" y2="705" stroke="#dddddd" stroke-width="1"/>
<text x="888.75" y="737" text-anchor="middle" font-family="Arial" font-size="16" fill="black">5.530</text>
<line x1="1145.00" y1="75" x2="1145.00" y2="705" stroke="#dddddd" stroke-width="1"/>
<text x="1145.00" y="737" text-anchor="middle" font-family="Arial" font-size="16" fill="black">7.560</text>
<line x1="120" y1="705.00" x2="1145" y2="705.00" stroke="#dddddd" stroke-width="1"/>
<text x="104" y="710.00" text-anchor="end" font-family="Arial" font-size="16" fill="black">0.069</text>
<line x1="120" y1="547.50" x2="1145" y2="547.50" stroke="#dddddd" stroke-width="1"/>
<text x="104" y="552.50" text-anchor="end" font-family="Arial" font-size="16" fill="black">0.316</text>
<line x1="120" y1="390.00" x2="1145" y2="390.00" stroke="#dddddd" stroke-width="1"/>
<text x="104" y="395.00" text-anchor="end" font-family="Arial" font-size="16" fill="black">0.564</text>
<line x1="120" y1="232.50" x2="1145" y2="232.50" stroke="#dddddd" stroke-width="1"/>
<text x="104" y="237.50" text-anchor="end" font-family="Arial" font-size="16" fill="black">0.811</text>
<line x1="120" y1="75.00" x2="1145" y2="75.00" stroke="#dddddd" stroke-width="1"/>
<text x="104" y="80.00" text-anchor="end" font-family="Arial" font-size="16" fill="black">1.059</text>
<rect x="120" y="75" width="1025" height="630" fill="none" stroke="black" stroke-width="2"/>
<text x="632.5" y="785" text-anchor="middle" font-family="Arial" font-size="20" fill="black">x coordinate [m]</text>
<text x="34" y="390.0" transform="rotate(-90 34 390.0)" text-anchor="middle" font-family="Arial" font-size="20" fill="black">|U| [m/s]</text>
<polyline points="190.69,631.22 193.64,633.29 196.58,635.36 199.53,637.42 202.47,639.49 205.42,640.97 208.36,642.23 211.31,643.47 214.25,644.73 217.20,645.25 220.14,644.83 223.09,644.41 226.03,643.98 228.98,643.47 231.93,642.37 234.87,641.28 237.82,640.19 240.76,639.09 243.71,637.58 246.65,636.01 249.60,634.43 252.54,632.85 255.49,631.18 258.43,629.44 261.38,627.70 264.32,625.96 267.27,624.30 270.22,622.86 273.16,621.41 276.11,619.97 279.05,618.53 282.00,617.93 284.94,617.34 287.89,616.74 290.83,616.15 293.78,617.33 296.72,619.23 299.67,621.12 302.62,623.02 305.56,603.42 308.51,555.17 311.45,506.92 314.40,458.66 317.34,407.80 320.29,341.32 323.23,274.83 326.17,208.35 329.13,141.86 332.07,130.93 335.01,129.27 337.96,127.60 340.91,125.93 343.85,125.27 346.80,125.38 349.74,125.47 352.68,125.57 355.64,125.67 358.58,125.79 361.52,125.90 364.47,126.01 367.41,126.12 370.35,126.18 373.31,126.25 376.25,126.32 379.19,126.39 382.15,126.18 385.09,125.88 388.03,125.57 390.98,125.27 393.92,126.77 396.86,130.69 399.82,134.62 402.76,138.54 405.70,151.50 408.65,218.66 411.59,285.81 414.54,352.97 417.49,420.13 420.43,475.77 423.37,529.48 426.33,583.20 429.27,636.92 432.21,655.26 435.16,647.06 438.10,638.86 441.04,630.66 444.00,624.13 446.94,621.79 449.88,619.45 452.83,617.11 455.78,614.77 458.72,615.45 461.67,616.11 464.61,616.79 467.55,617.46 470.51,618.68 473.45,620.12 476.39,621.56 479.34,623.00 482.28,623.94 485.23,624.22 488.18,624.49 491.12,624.77 494.06,624.73 497.02,622.82 499.96,620.90 502.90,618.99 505.85,617.08 508.79,613.83 511.73,610.35 514.69,606.86 517.63,603.38 520.57,600.09 523.52,596.95 526.47,593.80 529.41,590.66 532.36,587.97 535.30,586.45 538.24,584.92 541.20,583.39 544.14,581.87 547.08,583.57 550.03,585.27 552.97,586.98 555.92,588.67 558.87,593.08 561.81,598.55 564.75,604.03 567.71,609.51 570.65,592.38 573.59,545.11 576.54,497.83 579.48,450.56 582.42,400.94 585.38,337.25 588.32,273.56 591.26,209.87 594.21,146.18 597.16,133.26 600.10,128.80 603.05,124.34 605.99,119.89 608.93,118.45 611.89,119.28 614.83,120.11 617.77,120.94 620.72,121.57 623.66,121.72 626.60,121.86 629.56,122.01 632.50,122.16 635.44,122.08 638.40,122.00 641.34,121.93 644.28,121.85 647.23,121.49 650.17,121.01 653.11,120.53 656.07,120.06 659.01,120.66 661.95,122.70 664.90,124.75 667.84,126.79 670.79,137.63 673.74,201.29 676.68,264.96 679.62,328.62 682.58,392.28 685.52,444.36 688.46,494.52 691.41,544.67 694.35,594.82 697.29,615.71 700.25,614.65 703.19,613.60 706.13,612.54 709.08,611.92 712.03,612.38 714.97,612.85 717.92,613.31 720.86,613.77 723.80,614.84 726.76,615.91 729.70,616.97 732.64,618.04 735.59,619.04 738.53,620.03 741.48,621.01 744.43,622.00 747.37,622.43 750.31,622.10 753.27,621.78 756.21,621.46 759.15,620.86 762.10,618.65 765.04,616.43 767.98,614.22 770.94,612.01 773.88,608.74 776.82,605.29 779.77,601.84 782.72,598.39 785.66,595.31 788.61,592.50 791.55,589.69 794.49,586.88 797.45,584.66 800.39,583.90 803.33,583.15 806.28,582.39 809.22,581.63 812.17,583.44 815.12,585.26 818.06,587.07 821.00,588.88 823.96,592.59 826.90,597.06 829.84,601.53 832.79,606.00 835.73,587.55 838.67,538.56 841.63,489.56 844.57,440.56 847.51,389.70 850.46,327.64 853.41,265.57 856.35,203.50 859.30,141.43 862.24,130.29 865.18,127.65 868.14,124.99 871.08,122.35 874.02,121.56 876.97,122.17 879.91,122.77 882.85,123.38 885.81,123.78 888.75,123.64 891.69,123.50 894.65,123.36 897.59,123.22 900.53,122.93 903.48,122.63 906.42,122.33 909.36,122.04 912.32,121.41 915.26,120.66 918.20,119.90 921.15,119.15 924.09,119.85 927.04,122.50 929.99,125.15 932.93,127.79 935.87,139.43 938.83,205.01 941.77,270.58 944.71,336.16 947.66,401.74 950.60,455.00 953.54,506.21 956.50,557.42 959.44,608.63 962.38,628.78 965.33,625.65 968.28,622.52 971.22,619.39 974.17,616.78 977.11,615.49 980.05,614.19 983.01,612.89 985.95,611.59 988.89,610.17 991.84,608.75 994.78,607.33 997.73,605.91 1000.68,605.70 1003.62,605.98 1006.56,606.24 1009.52,606.52 1012.46,608.16 1015.40,611.62 1018.35,615.08 1021.29,618.54 1024.23,622.24 1027.19,627.30 1030.13,632.36 1033.07,637.42 1036.02,642.48 1038.97,647.21 1041.91,651.89 1044.86,656.56 1047.80,661.24 1050.74,661.55 1053.70,658.59 1056.64,655.64 1059.58,652.68 1062.53,649.33 1065.47,644.96 1068.42,640.59 1071.37,636.22 1074.31,631.86" fill="none" stroke="#000000" stroke-width="3"/>
<line x1="142" y1="100" x2="178" y2="100" stroke="#000000" stroke-width="4"/>
<text x="188" y="105" font-family="Arial" font-size="18" fill="black">|U|</text>
</svg>