<svg xmlns="http://www.w3.org/2000/svg" width="1200" height="820" viewBox="0 0 1200 820">
<rect width="100%" height="100%" fill="white"/>
<text x="600.0" y="36" text-anchor="middle" font-family="Arial" font-size="24" fill="black">profile_center_x: U, V, W components</text>
<line x1="120.00" y1="75" x2="120.00" y2="705" stroke="#dddddd" stroke-width="1"/>
<text x="120.00" y="737" text-anchor="middle" font-family="Arial" font-size="16" fill="black">-0.560</text>
<line x1="376.25" y1="75" x2="376.25" y2="705" stroke="#dddddd" stroke-width="1"/>
<text x="376.25" y="737" text-anchor="middle" font-family="Arial" font-size="16" fill="black">1.470</text>
<line x1="632.50" y1="75" x2="632.50" y2="705" stroke="#dddddd" stroke-width="1"/>
<text x="632.50" y="737" text-anchor="middle" font-family="Arial" font-size="16" fill="black">3.500</text>
<line x1="888.75" y1="75" x2="888.75" y2="705" stroke="#dddddd" stroke-width="1"/>
<text x="888.75" y="737" text-anchor="middle" font-family="Arial" font-size="16" fill="black">5.530</text>
<line x1="1145.00" y1="75" x2="1145.00" y2="705" stroke="#dddddd" stroke-width="1"/>
<text x="1145.00" y="737" text-anchor="middle" font-family="Arial" font-size="16" fill="black">7.560</text>
<line x1="120" y1="705.00" x2="1145" y2="705.00" stroke="#dddddd" stroke-width="1"/>
<text x="104" y="710.00" text-anchor="end" font-family="Arial" font-size="16" fill="black">-0.568</text>
<line x1="120" y1="547.50" x2="1145" y2="547.50" stroke="#dddddd" stroke-width="1"/>
<text x="104" y="552.50" text-anchor="end" font-family="Arial" font-size="16" fill="black">-0.313</text>
<line x1="120" y1="390.00" x2="1145" y2="390.00" stroke="#dddddd" stroke-width="1"/>
<text x="104" y="395.00" text-anchor="end" font-family="Arial" font-size="16" fill="black">-0.058</text>
<line x1="120" y1="232.50" x2="1145" y2="232.50" stroke="#dddddd" stroke-width="1"/>
<text x="104" y="237.50" text-anchor="end" font-family="Arial" font-size="16" fill="black">0.197</text>
<line x1="120" y1="75.00" x2="1145" y2="75.00" stroke="#dddddd" stroke-width="1"/>
<text x="104" y="80.00" text-anchor="end" font-family="Arial" font-size="16" fill="black">0.452</text>
<rect x="120" y="75" width="1025" height="630" fill="none" stroke="black" stroke-width="2"/>
<text x="632.5" y="785" text-anchor="middle" font-family="Arial" font-size="20" fill="black">x coordinate [m]</text>
<text x="34" y="390.0" transform="rotate(-90 34 390.0)" text-anchor="middle" font-family="Arial" font-size="20" fill="black">velocity component [m/s]</text>
<polyline points="190.69,342.96 193.64,342.07 196.58,341.19 199.53,340.30 202.47,339.41 205.42,338.15 208.36,336.73 211.31,335.32 214.25,333.91 217.20,333.58 220.14,334.69 223.09,335.80 226.03,336.91 228.98,338.64 231.93,344.10 234.87,349.56 237.82,355.02 240.76,360.48 243.71,368.65 246.65,377.26 249.60,385.88 252.54,394.49 255.49,403.56 258.43,412.97 261.38,422.38 264.32,431.79 267.27,440.86 270.22,449.08 273.16,457.30 276.11,465.53 279.05,473.75 282.00,478.81 284.94,483.87 287.89,488.93 290.83,493.99 293.78,495.33 296.72,495.19 299.67,495.05 302.62,494.91 305.56,492.37 308.51,486.65 311.45,480.93 314.40,475.20 317.34,468.99 320.29,459.84 323.23,450.70 326.17,441.55 329.13,432.41 332.07,423.50 335.01,414.64 337.96,405.78 340.91,396.92 343.85,388.74 346.80,381.08 349.74,373.41 352.68,365.74 355.64,358.30 358.58,351.40 361.52,344.50 364.47,337.60 367.41,330.70 370.35,323.83 373.31,316.96 376.25,310.09 379.19,303.23 382.15,295.87 385.09,288.32 388.03,280.77 390.98,273.22 393.92,266.07 396.86,259.44 399.82,252.81 402.76,246.18 405.70,240.03 408.65,236.74 411.59,233.44 414.54,230.16 417.49,226.87 420.43,228.18 423.37,230.27 426.33,232.36 429.27,234.44 432.21,239.16 435.16,245.84 438.10,252.53 441.04,259.22 444.00,266.42 446.94,274.88 449.88,283.34 452.83,291.81 455.78,300.27 458.72,307.97 461.67,315.66 464.61,323.35 467.55,331.05 470.51,337.47 473.45,343.40 476.39,349.32 479.34,355.24 482.28,360.60 485.23,365.21 488.18,369.83 491.12,374.44 494.06,379.02 497.02,383.34 499.96,387.67 502.90,392.00 505.85,396.32 508.79,400.91 511.73,405.53 514.69,410.15 517.63,414.78 520.57,419.55 523.52,424.44 526.47,429.32 529.41,434.21 532.36,439.13 535.30,444.14 538.24,449.16 541.20,454.18 544.14,459.19 547.08,464.08 550.03,468.97 552.97,473.86 555.92,478.75 558.87,483.05 561.81,487.10 564.75,491.16 567.71,495.22 570.65,498.31 573.59,500.07 576.54,501.85 579.48,503.62 582.42,504.80 585.38,502.40 588.32,500.00 591.26,497.61 594.21,495.22 597.16,489.00 600.10,482.14 603.05,475.28 605.99,468.42 608.93,460.57 611.89,451.97 614.83,443.37 617.77,434.78 620.72,426.39 623.66,418.52 626.60,410.65 629.56,402.78 632.50,394.91 635.44,387.85 638.40,380.79 641.34,373.74 644.28,366.68 647.23,359.72 650.17,352.81 653.11,345.90 656.07,338.99 659.01,332.59 661.95,326.89 664.90,321.18 667.84,315.48 670.79,310.24 673.74,307.80 676.68,305.36 679.62,302.92 682.58,300.48 685.52,301.23 688.46,302.51 691.41,303.79 694.35,305.07 697.29,307.96 700.25,312.06 703.19,316.16 706.13,320.26 709.08,324.68 712.03,329.92 714.97,335.15 717.92,340.39 720.86,345.62 723.80,350.51 726.76,355.40 729.70,360.28 732.64,365.17 735.59,369.27 738.53,373.07 741.48,376.86 744.43,380.66 747.37,384.10 750.31,387.07 753.27,390.05 756.21,393.02 759.15,396.00 762.10,399.03 765.04,402.06 767.98,405.09 770.94,408.12 773.88,411.70 776.82,415.37 779.77,419.04 782.72,422.71 785.66,426.83 788.61,431.28 791.55,435.73 794.49,440.18 797.45,444.76 800.39,449.67 803.33,454.58 806.28,459.50 809.22,464.41 812.17,469.02 815.12,473.63 818.06,478.23 821.00,482.84 823.96,486.45 826.90,489.65 829.84,492.85 832.79,496.06 835.73,498.19 838.67,498.92 841.63,499.64 844.57,500.36 847.51,500.68 850.46,498.63 853.41,496.58 856.35,494.53 859.30,492.48 862.24,488.79 865.18,484.82 868.14,480.85 871.08,476.88 874.02,472.51 876.97,467.85 879.91,463.20 882.85,458.54 885.81,453.84 888.75,449.04 891.69,444.25 894.65,439.45 897.59,434.66 900.53,429.55 903.48,424.43 906.42,419.32 909.36,414.20 912.32,408.97 915.26,403.70 918.20,398.42 921.15,393.15 924.09,388.48 927.04,384.62 929.99,380.76 932.93,376.91 935.87,373.49 938.83,372.66 941.77,371.84 944.71,371.02 947.66,370.20 950.60,371.82 953.54,373.85 956.50,375.88 959.44,377.91 962.38,380.70 965.33,384.08 968.28,387.45 971.22,390.82 974.17,394.17 977.11,397.46 980.05,400.75 983.01,404.03 985.95,407.32 988.89,409.74 991.84,412.16 994.78,414.58 997.73,417.00 1000.68,418.52 1003.62,419.68 1006.56,420.83 1009.52,422.00 1012.46,422.55 1015.40,422.28 1018.35,422.01 1021.29,421.74 1024.23,421.28 1027.19,419.59 1030.13,417.91 1033.07,416.23 1036.02,414.54 1038.97,411.52 1041.91,408.28 1044.86,405.04 1047.80,401.80 1050.74,398.00 1053.70,393.78 1056.64,389.56 1059.58,385.34 1062.53,381.71 1065.47,379.55 1068.42,377.38 1071.37,375.22 1074.31,373.05" fill="none" stroke="#000000" stroke-width="3"/>
<line x1="142" y1="100" x2="178" y2="100" stroke="#000000" stroke-width="4"/>
<text x="188" y="105" font-family="Arial" font-size="18" fill="black">Ux / u</text>
<polyline points="190.69,387.66 193.64,386.63 196.58,385.60 199.53,384.56 202.47,383.53 205.42,382.37 208.36,381.16 211.31,379.95 214.25,378.74 217.20,378.12 220.14,378.28 223.09,378.45 226.03,378.62 228.98,378.88 231.93,379.76 234.87,380.65 237.82,381.53 240.76,382.41 243.71,383.40 246.65,384.41 249.60,385.42 252.54,386.43 255.49,387.37 258.43,388.24 261.38,389.12 264.32,390.00 267.27,390.83 270.22,391.55 273.16,392.28 276.11,393.01 279.05,393.73 282.00,393.89 284.94,394.06 287.89,394.22 290.83,394.38 293.78,393.38 296.72,391.91 299.67,390.45 302.62,388.98 305.56,386.96 308.51,384.21 311.45,381.46 314.40,378.71 317.34,376.03 320.29,373.82 323.23,371.62 326.17,369.41 329.13,367.20 332.07,365.77 335.01,364.48 337.96,363.19 340.91,361.90 343.85,360.78 346.80,359.79 349.74,358.80 352.68,357.81 355.64,356.85 358.58,355.99 361.52,355.12 364.47,354.26 367.41,353.39 370.35,352.63 373.31,351.87 376.25,351.12 379.19,350.36 382.15,350.01 385.09,349.83 388.03,349.65 390.98,349.47 393.92,349.94 396.86,351.26 399.82,352.59 402.76,353.92 405.70,355.45 408.65,358.23 411.59,361.00 414.54,363.77 417.49,366.55 420.43,368.36 423.37,370.02 426.33,371.68 429.27,373.33 432.21,372.86 435.16,370.80 438.10,368.74 441.04,366.68 444.00,363.60 446.94,357.99 449.88,352.37 452.83,346.76 455.78,341.14 458.72,334.45 461.67,327.75 464.61,321.05 467.55,314.35 470.51,309.31 473.45,304.93 476.39,300.55 479.34,296.17 482.28,293.25 485.23,292.29 488.18,291.33 491.12,290.36 494.06,289.62 497.02,290.21 499.96,290.80 502.90,291.39 505.85,291.98 508.79,292.36 511.73,292.69 514.69,293.03 517.63,293.37 520.57,293.42 523.52,293.26 526.47,293.10 529.41,292.95 532.36,292.78 535.30,292.59 538.24,292.40 541.20,292.21 544.14,292.02 547.08,292.18 550.03,292.35 552.97,292.50 555.92,292.67 558.87,293.16 561.81,293.78 564.75,294.40 567.71,295.03 570.65,295.78 573.59,296.71 576.54,297.63 579.48,298.56 582.42,299.49 585.38,300.46 588.32,301.43 591.26,302.40 594.21,303.38 597.16,304.39 600.10,305.41 603.05,306.43 605.99,307.46 608.93,308.61 611.89,309.88 614.83,311.14 617.77,312.40 620.72,313.73 623.66,315.26 626.60,316.79 629.56,318.32 632.50,319.85 635.44,321.54 638.40,323.24 641.34,324.93 644.28,326.63 647.23,328.43 650.17,330.27 653.11,332.12 656.07,333.97 659.01,335.93 661.95,338.06 664.90,340.18 667.84,342.31 670.79,344.46 673.74,346.73 676.68,349.00 679.62,351.27 682.58,353.54 685.52,355.60 688.46,357.63 691.41,359.65 694.35,361.68 697.29,363.44 700.25,365.01 703.19,366.57 706.13,368.13 709.08,369.55 712.03,370.60 714.97,371.66 717.92,372.72 720.86,373.78 723.80,374.46 726.76,375.14 729.70,375.81 732.64,376.49 735.59,377.01 738.53,377.47 741.48,377.92 744.43,378.38 747.37,378.78 750.31,379.10 753.27,379.43 756.21,379.75 759.15,380.06 762.10,380.26 765.04,380.46 767.98,380.66 770.94,380.86 773.88,380.93 776.82,380.96 779.77,381.00 782.72,381.04 785.66,380.97 788.61,380.83 791.55,380.69 794.49,380.55 797.45,380.37 800.39,380.11 803.33,379.84 806.28,379.58 809.22,379.31 812.17,379.03 815.12,378.74 818.06,378.46 821.00,378.18 823.96,377.94 826.90,377.73 829.84,377.52 832.79,377.31 835.73,377.16 838.67,377.07 841.63,376.98 844.57,376.90 847.51,376.83 850.46,376.90 853.41,376.96 856.35,377.02 859.30,377.08 862.24,377.31 865.18,377.57 868.14,377.83 871.08,378.08 874.02,378.40 876.97,378.75 879.91,379.10 882.85,379.46 885.81,379.79 888.75,380.05 891.69,380.31 894.65,380.57 897.59,380.83 900.53,380.89 903.48,380.95 906.42,381.02 909.36,381.08 912.32,380.87 915.26,380.55 918.20,380.23 921.15,379.91 924.09,379.34 927.04,378.43 929.99,377.52 932.93,376.61 935.87,375.61 938.83,374.08 941.77,372.55 944.71,371.02 947.66,369.49 950.60,367.37 953.54,365.17 956.50,362.96 959.44,360.75 962.38,358.22 965.33,355.45 968.28,352.68 971.22,349.92 974.17,347.08 977.11,344.05 980.05,341.03 983.01,338.01 985.95,334.99 988.89,331.90 991.84,328.82 994.78,325.73 997.73,322.64 1000.68,319.66 1003.62,316.73 1006.56,313.80 1009.52,310.87 1012.46,308.17 1015.40,305.77 1018.35,303.37 1021.29,300.97 1024.23,298.72 1027.19,297.32 1030.13,295.92 1033.07,294.52 1036.02,293.12 1038.97,293.02 1041.91,293.12 1044.86,293.23 1047.80,293.33 1050.74,294.79 1053.70,297.25 1056.64,299.71 1059.58,302.18 1062.53,304.50 1065.47,306.46 1068.42,308.43 1071.37,310.40 1074.31,312.36" fill="none" stroke="#555555" stroke-width="3" stroke-dasharray="9 5"/>
<line x1="142" y1="128" x2="178" y2="128" stroke="#555555" stroke-width="4" stroke-dasharray="9 5"/>
<text x="188" y="133" font-family="Arial" font-size="18" fill="black">Uy / v</text>
<polyline points="190.69,507.09 193.64,506.91 196.58,506.73 199.53,506.56 202.47,506.38 205.42,505.97 208.36,505.47 211.31,504.97 214.25,504.47 217.20,504.24 220.14,504.38 223.09,504.52 226.03,504.66 228.98,505.03 231.93,506.76 234.87,508.47 237.82,510.20 240.76,511.92 243.71,513.90 246.65,515.92 249.60,517.94 252.54,519.95 255.49,520.58 258.43,520.16 261.38,519.75 264.32,519.34 267.27,517.45 270.22,511.91 273.16,506.36 276.11,500.82 279.05,495.27 282.00,482.56 284.94,469.86 287.89,457.14 290.83,444.43 293.78,426.01 296.72,405.29 299.67,384.58 302.62,363.87 305.56,341.52 308.51,316.98 311.45,292.45 314.40,267.91 317.34,244.27 320.29,225.98 323.23,207.68 326.17,189.40 329.13,171.10 332.07,161.89 335.01,154.19 337.96,146.50 340.91,138.80 343.85,134.15 346.80,131.80 349.74,129.44 352.68,127.08 355.64,124.94 358.58,123.33 361.52,121.72 364.47,120.12 367.41,118.52 370.35,118.50 373.31,118.49 376.25,118.47 379.19,118.45 382.15,124.21 385.09,132.29 388.03,140.36 390.98,148.44 393.92,161.58 396.86,181.48 399.82,201.39 402.76,221.29 405.70,241.95 408.65,267.15 411.59,292.33 414.54,317.52 417.49,342.71 420.43,365.17 423.37,387.18 426.33,409.18 429.27,431.19 432.21,449.63 435.16,465.40 438.10,481.16 441.04,496.93 444.00,511.31 446.94,522.25 449.88,533.18 452.83,544.11 455.78,555.04 458.72,564.00 461.67,572.95 464.61,581.91 467.55,590.86 470.51,599.27 473.45,607.47 476.39,615.67 479.34,623.87 482.28,631.08 485.23,636.95 488.18,642.83 491.12,648.70 494.06,654.01 497.02,655.89 499.96,657.78 502.90,659.66 505.85,661.55 508.79,660.23 511.73,658.37 514.69,656.52 517.63,654.66 520.57,651.30 523.52,646.82 526.47,642.34 529.41,637.87 532.36,632.87 535.30,626.58 538.24,620.28 541.20,613.99 544.14,607.69 547.08,599.73 550.03,591.77 552.97,583.81 555.92,575.85 558.87,566.58 561.81,556.80 564.75,547.02 567.71,537.24 570.65,526.70 573.59,515.15 576.54,503.61 579.48,492.06 582.42,480.35 585.38,467.69 588.32,455.03 591.26,442.37 594.21,429.71 597.16,418.54 600.10,407.61 603.05,396.69 605.99,385.76 608.93,377.83 611.89,372.15 614.83,366.46 617.77,360.77 620.72,356.37 623.66,355.17 626.60,353.98 629.56,352.78 632.50,351.59 635.44,352.17 638.40,352.75 641.34,353.33 644.28,353.91 647.23,355.92 650.17,358.51 653.11,361.11 656.07,363.70 659.01,368.13 661.95,375.02 664.90,381.90 667.84,388.79 670.79,396.03 673.74,405.45 676.68,414.86 679.62,424.27 682.58,433.68 685.52,441.94 688.46,450.01 691.41,458.09 694.35,466.16 697.29,472.69 700.25,478.07 703.19,483.45 706.13,488.83 709.08,493.34 712.03,495.70 714.97,498.06 717.92,500.42 720.86,502.78 723.80,502.96 726.76,503.14 729.70,503.31 732.64,503.49 735.59,503.12 738.53,502.54 741.48,501.96 744.43,501.38 747.37,500.90 750.31,500.56 753.27,500.23 756.21,499.89 759.15,499.60 762.10,499.59 765.04,499.58 767.98,499.58 770.94,499.57 773.88,499.44 776.82,499.29 779.77,499.15 782.72,499.00 785.66,498.42 788.61,497.53 791.55,496.64 794.49,495.75 797.45,494.48 800.39,492.25 803.33,490.03 806.28,487.80 809.22,485.58 812.17,481.75 815.12,477.92 818.06,474.09 821.00,470.26 823.96,465.51 826.90,460.38 829.84,455.26 832.79,450.13 835.73,444.85 838.67,439.36 841.63,433.86 844.57,428.37 847.51,422.97 850.46,418.20 853.41,413.42 856.35,408.64 859.30,403.87 862.24,400.62 865.18,397.63 868.14,394.64 871.08,391.65 874.02,389.69 876.97,388.49 879.91,387.29 882.85,386.10 885.81,385.17 888.75,384.91 891.69,384.64 894.65,384.38 897.59,384.12 900.53,384.55 903.48,384.98 906.42,385.41 909.36,385.83 912.32,387.33 915.26,389.25 918.20,391.17 921.15,393.09 924.09,396.15 927.04,400.73 929.99,405.31 932.93,409.88 935.87,414.72 938.83,421.14 941.77,427.55 944.71,433.96 947.66,440.37 950.60,446.70 953.54,453.00 956.50,459.31 959.44,465.62 962.38,471.23 965.33,476.32 968.28,481.41 971.22,486.49 974.17,491.16 977.11,494.76 980.05,498.36 983.01,501.96 985.95,505.56 988.89,508.02 991.84,510.47 994.78,512.92 997.73,515.37 1000.68,517.32 1003.62,519.06 1006.56,520.81 1009.52,522.55 1012.46,524.20 1015.40,525.73 1018.35,527.26 1021.29,528.78 1024.23,530.34 1027.19,532.07 1030.13,533.80 1033.07,535.52 1036.02,537.25 1038.97,539.32 1041.91,541.45 1044.86,543.57 1047.80,545.69 1050.74,547.98 1053.70,550.40 1056.64,552.81 1059.58,555.22 1062.53,557.31 1065.47,558.55 1068.42,559.79 1071.37,561.04 1074.31,562.28" fill="none" stroke="#999999" stroke-width="3" stroke-dasharray="3 4"/>
<line x1="142" y1="156" x2="178" y2="156" stroke="#999999" stroke-width="4" stroke-dasharray="3 4"/>
<text x="188" y="161" font-family="Arial" font-size="18" fill="black">Uz / w</text>
</svg>