<svg xmlns="http://www.w3.org/2000/svg" width="1200" height="820" viewBox="0 0 1200 820">
<rect width="100%" height="100%" fill="white"/>
<text x="600.0" y="36" text-anchor="middle" font-family="Arial" font-size="24" fill="black">profile_center_z: alphat</text>
<line x1="120.00" y1="75" x2="120.00" y2="705" stroke="#dddddd" stroke-width="1"/>
<text x="120.00" y="737" text-anchor="middle" font-family="Arial" font-size="16" fill="black">-0.240</text>
<line x1="376.25" y1="75" x2="376.25" y2="705" stroke="#dddddd" stroke-width="1"/>
<text x="376.25" y="737" text-anchor="middle" font-family="Arial" font-size="16" fill="black">0.630</text>
<line x1="632.50" y1="75" x2="632.50" y2="705" stroke="#dddddd" stroke-width="1"/>
<text x="632.50" y="737" text-anchor="middle" font-family="Arial" font-size="16" fill="black">1.500</text>
<line x1="888.75" y1="75" x2="888.75" y2="705" stroke="#dddddd" stroke-width="1"/>
<text x="888.75" y="737" text-anchor="middle" font-family="Arial" font-size="16" fill="black">2.370</text>
<line x1="1145.00" y1="75" x2="1145.00" y2="705" stroke="#dddddd" stroke-width="1"/>
<text x="1145.00" y="737" text-anchor="middle" font-family="Arial" font-size="16" fill="black">3.240</text>
<line x1="120" y1="705.00" x2="1145" y2="705.00" stroke="#dddddd" stroke-width="1"/>
<text x="104" y="710.00" text-anchor="end" font-family="Arial" font-size="16" fill="black">2.80e-04</text>
<line x1="120" y1="547.50" x2="1145" y2="547.50" stroke="#dddddd" stroke-width="1"/>
<text x="104" y="552.50" text-anchor="end" font-family="Arial" font-size="16" fill="black">0.002</text>
<line x1="120" y1="390.00" x2="1145" y2="390.00" stroke="#dddddd" stroke-width="1"/>
<text x="104" y="395.00" text-anchor="end" font-family="Arial" font-size="16" fill="black">0.005</text>
<line x1="120" y1="232.50" x2="1145" y2="232.50" stroke="#dddddd" stroke-width="1"/>
<text x="104" y="237.50" text-anchor="end" font-family="Arial" font-size="16" fill="black">0.007</text>
<line x1="120" y1="75.00" x2="1145" y2="75.00" stroke="#dddddd" stroke-width="1"/>
<text x="104" y="80.00" text-anchor="end" font-family="Arial" font-size="16" fill="black">0.009</text>
<rect x="120" y="75" width="1025" height="630" fill="none" stroke="black" stroke-width="2"/>
<text x="632.5" y="785" text-anchor="middle" font-family="Arial" font-size="20" fill="black">z coordinate [m]</text>
<text x="34" y="390.0" transform="rotate(-90 34 390.0)" text-anchor="middle" font-family="Arial" font-size="20" fill="black">alphat [SI]</text>
<polyline points="190.69,651.59 193.64,651.70 196.58,651.81 199.53,651.92 202.47,652.03 205.42,652.14 208.36,652.25 211.31,652.36 214.25,652.47 217.20,652.58 220.14,652.68 223.09,652.89 226.03,653.10 228.98,653.31 231.93,653.51 234.87,653.72 237.82,653.93 240.76,654.14 243.71,654.34 246.65,654.55 249.60,654.76 252.54,654.94 255.49,655.13 258.43,655.31 261.38,655.50 264.32,655.68 267.27,655.87 270.22,656.05 273.16,656.24 276.11,656.43 279.05,656.61 282.00,656.77 284.94,656.94 287.89,657.10 290.83,657.27 293.78,657.43 296.72,657.59 299.67,657.76 302.61,657.92 305.56,658.09 308.51,658.25 311.45,658.39 314.40,658.53 317.34,658.68 320.29,658.82 323.23,658.96 326.18,659.10 329.12,659.25 332.07,659.39 335.01,659.53 337.96,659.67 340.91,659.79 343.85,659.90 346.80,660.02 349.74,660.14 352.69,660.25 355.63,660.37 358.58,660.48 361.52,660.60 364.47,660.72 367.41,660.83 370.36,660.90 373.30,660.98 376.25,661.05 379.20,661.12 382.14,661.19 385.09,661.26 388.03,661.34 390.98,661.41 393.92,661.48 396.87,661.55 399.81,661.54 402.76,661.53 405.70,661.52 408.65,661.52 411.59,661.51 414.54,661.50 417.49,661.49 420.43,661.48 423.38,661.47 426.32,661.46 429.27,661.32 432.21,661.18 435.16,661.03 438.10,660.89 441.05,660.75 443.99,660.60 446.94,660.46 449.89,660.32 452.83,660.18 455.78,660.03 458.72,659.72 461.67,659.40 464.61,659.08 467.56,658.76 470.50,658.45 473.45,658.13 476.39,657.81 479.34,657.50 482.28,657.18 485.23,656.86 488.18,656.38 491.12,655.90 494.07,655.42 497.01,654.94 499.96,654.46 502.90,653.97 505.85,653.49 508.79,653.01 511.74,652.53 514.68,652.05 517.63,651.43 520.57,650.80 523.52,650.17 526.47,649.55 529.41,648.93 532.36,648.30 535.30,647.67 538.25,647.05 541.19,646.42 544.14,645.80 547.08,644.55 550.03,643.30 552.97,642.06 555.92,640.81 558.86,639.56 561.81,638.31 564.76,637.07 567.70,635.82 570.65,634.57 573.59,633.32 576.54,628.05 579.48,622.77 582.43,617.50 585.37,612.23 588.32,606.95 591.26,601.68 594.21,596.40 597.16,591.13 600.10,585.85 603.05,580.57 605.99,565.98 608.94,551.38 611.88,536.78 614.83,522.18 617.77,507.57 620.72,492.97 623.66,478.37 626.61,463.77 629.55,449.17 632.50,434.57 635.45,418.91 638.39,403.24 641.34,387.59 644.28,371.92 647.23,356.26 650.17,340.60 653.12,324.94 656.06,309.27 659.01,293.62 661.95,277.95 664.90,268.44 667.84,258.94 670.79,249.44 673.74,239.93 676.68,230.43 679.63,220.92 682.57,211.42 685.52,201.91 688.46,192.41 691.41,182.90 694.35,177.09 697.30,171.28 700.24,165.46 703.19,159.65 706.14,153.84 709.08,148.03 712.03,142.21 714.97,136.39 717.92,130.58 720.86,124.77 723.81,124.14 726.75,123.51 729.70,122.88 732.64,122.24 735.59,121.61 738.53,120.98 741.48,120.35 744.43,119.71 747.37,119.08 750.32,118.45 753.26,122.11 756.21,125.78 759.15,129.44 762.10,133.11 765.04,136.77 767.99,140.44 770.93,144.10 773.88,147.76 776.82,151.43 779.77,155.09 782.72,160.33 785.66,165.56 788.61,170.79 791.55,176.03 794.50,181.25 797.44,186.49 800.39,191.72 803.33,196.95 806.28,202.19 809.22,207.41 812.17,212.41 815.11,217.39 818.06,222.38 821.01,227.37 823.95,232.36 826.90,237.34 829.84,242.33 832.79,247.32 835.73,252.30 838.68,257.29 841.62,261.34 844.57,265.39 847.51,269.45 850.46,273.50 853.41,277.55 856.35,281.60 859.30,285.66 862.24,289.71 865.19,293.75 868.13,297.81 871.08,300.61 874.02,303.41 876.97,306.20 879.91,309.00 882.86,311.80 885.80,314.60 888.75,317.40 891.70,320.20 894.64,322.99 897.59,325.79 900.53,327.16 903.48,328.52 906.42,329.88 909.37,331.26 912.31,332.62 915.26,333.98 918.20,335.35 921.15,336.71 924.09,338.07 927.04,339.44 929.99,339.80 932.93,340.15 935.88,340.51 938.82,340.87 941.77,341.23 944.71,341.59 947.66,341.95 950.60,342.31 953.55,342.66 956.49,343.02 959.44,344.11 962.39,345.19 965.33,346.27 968.28,347.36 971.22,348.44 974.17,349.53 977.11,350.61 980.06,351.69 983.00,352.78 985.95,353.86 988.89,358.72 991.84,363.57 994.78,368.43 997.73,373.29 1000.68,378.15 1003.62,383.00 1006.57,387.86 1009.51,392.71 1012.46,397.57 1015.40,402.42 1018.35,415.68 1021.29,428.93 1024.24,442.17 1027.18,455.43 1030.13,468.67 1033.07,481.93 1036.02,495.18 1038.97,508.42 1041.91,521.68 1044.86,534.92 1047.80,544.36 1050.75,553.79 1053.69,563.22 1056.64,572.65 1059.58,582.08 1062.53,591.51 1065.47,600.94 1068.42,610.38 1071.36,619.80 1074.31,629.24" fill="none" stroke="#000000" stroke-width="3"/>
<line x1="142" y1="100" x2="178" y2="100" stroke="#000000" stroke-width="4"/>
<text x="188" y="105" font-family="Arial" font-size="18" fill="black">alphat</text>
</svg>