<svg xmlns="http://www.w3.org/2000/svg" width="1200" height="820" viewBox="0 0 1200 820">
<rect width="100%" height="100%" fill="white"/>
<text x="600.0" y="36" text-anchor="middle" font-family="Arial" font-size="24" fill="black">profile_center_y: vorticity:2</text>
<line x1="120.00" y1="75" x2="120.00" y2="705" stroke="#dddddd" stroke-width="1"/>
<text x="120.00" y="737" text-anchor="middle" font-family="Arial" font-size="16" fill="black">-0.400</text>
<line x1="376.25" y1="75" x2="376.25" y2="705" stroke="#dddddd" stroke-width="1"/>
<text x="376.25" y="737" text-anchor="middle" font-family="Arial" font-size="16" fill="black">1.050</text>
<line x1="632.50" y1="75" x2="632.50" y2="705" stroke="#dddddd" stroke-width="1"/>
<text x="632.50" y="737" text-anchor="middle" font-family="Arial" font-size="16" fill="black">2.500</text>
<line x1="888.75" y1="75" x2="888.75" y2="705" stroke="#dddddd" stroke-width="1"/>
<text x="888.75" y="737" text-anchor="middle" font-family="Arial" font-size="16" fill="black">3.950</text>
<line x1="1145.00" y1="75" x2="1145.00" y2="705" stroke="#dddddd" stroke-width="1"/>
<text x="1145.00" y="737" text-anchor="middle" font-family="Arial" font-size="16" fill="black">5.400</text>
<line x1="120" y1="705.00" x2="1145" y2="705.00" stroke="#dddddd" stroke-width="1"/>
<text x="104" y="710.00" text-anchor="end" font-family="Arial" font-size="16" fill="black">-0.466</text>
<line x1="120" y1="547.50" x2="1145" y2="547.50" stroke="#dddddd" stroke-width="1"/>
<text x="104" y="552.50" text-anchor="end" font-family="Arial" font-size="16" fill="black">0.051</text>
<line x1="120" y1="390.00" x2="1145" y2="390.00" stroke="#dddddd" stroke-width="1"/>
<text x="104" y="395.00" text-anchor="end" font-family="Arial" font-size="16" fill="black">0.568</text>
<line x1="120" y1="232.50" x2="1145" y2="232.50" stroke="#dddddd" stroke-width="1"/>
<text x="104" y="237.50" text-anchor="end" font-family="Arial" font-size="16" fill="black">1.086</text>
<line x1="120" y1="75.00" x2="1145" y2="75.00" stroke="#dddddd" stroke-width="1"/>
<text x="104" y="80.00" text-anchor="end" font-family="Arial" font-size="16" fill="black">1.603</text>
<rect x="120" y="75" width="1025" height="630" fill="none" stroke="black" stroke-width="2"/>
<text x="632.5" y="785" text-anchor="middle" font-family="Arial" font-size="20" fill="black">y coordinate [m]</text>
<text x="34" y="390.0" transform="rotate(-90 34 390.0)" text-anchor="middle" font-family="Arial" font-size="20" fill="black">vorticity:2 [SI]</text>
<polyline points="190.69,474.78 193.64,488.17 196.58,501.57 199.53,514.97 202.47,528.37 205.42,541.77 208.36,555.16 211.31,565.00 214.25,574.83 217.20,584.66 220.14,594.49 223.09,604.33 226.03,614.16 228.98,609.49 231.92,604.82 234.87,600.14 237.82,595.47 240.76,590.80 243.71,586.13 246.65,584.74 249.60,583.35 252.54,581.96 255.49,580.57 258.43,579.19 261.38,577.80 264.33,577.42 267.27,577.04 270.22,576.66 273.16,576.29 276.11,575.91 279.05,575.53 282.00,575.24 284.94,574.96 287.89,574.67 290.83,574.38 293.78,574.10 296.72,573.81 299.67,573.22 302.61,572.64 305.56,572.05 308.51,571.47 311.45,570.88 314.40,570.30 317.34,569.53 320.29,568.76 323.23,567.99 326.18,567.21 329.12,566.44 332.07,565.67 335.01,565.50 337.96,565.32 340.91,565.14 343.85,564.96 346.80,564.78 349.74,564.61 352.69,566.26 355.63,567.91 358.58,569.57 361.52,571.22 364.47,572.88 367.41,574.53 370.37,578.37 373.30,582.21 376.25,586.05 379.20,589.90 382.13,593.74 385.09,597.58 388.04,602.46 390.97,607.34 393.92,612.22 396.87,617.10 399.81,621.99 402.76,626.87 405.71,631.00 408.64,635.12 411.59,639.25 414.55,643.38 417.48,647.51 420.43,651.63 423.38,653.28 426.32,654.94 429.27,656.59 432.22,658.24 435.15,659.90 438.10,661.55 441.05,659.79 443.99,658.02 446.94,656.25 449.89,654.49 452.82,652.72 455.78,650.96 458.73,646.51 461.66,642.06 464.61,637.61 467.56,633.16 470.50,628.71 473.45,624.26 476.40,618.87 479.33,613.48 482.28,608.09 485.24,602.70 488.17,597.31 491.12,591.92 494.07,587.27 497.01,582.62 499.96,577.98 502.91,573.33 505.84,568.68 508.79,564.03 511.74,561.50 514.68,558.97 517.63,556.44 520.58,553.91 523.51,551.39 526.47,548.86 529.42,548.90 532.35,548.95 535.30,548.99 538.25,549.04 541.19,549.08 544.14,549.13 547.09,551.11 550.02,553.10 552.97,555.08 555.93,557.07 558.86,559.05 561.81,561.04 564.76,563.06 567.70,565.09 570.65,567.12 573.60,569.15 576.53,571.17 579.48,573.20 582.43,573.09 585.37,572.98 588.32,572.87 591.27,572.76 594.20,572.65 597.16,572.54 600.11,571.76 603.04,570.98 605.99,570.21 608.94,569.43 611.88,568.65 614.83,567.87 617.78,567.17 620.71,566.46 623.66,565.76 626.62,565.05 629.55,564.35 632.50,563.64 635.45,563.27 638.38,562.90 641.34,562.52 644.29,562.15 647.22,561.78 650.17,561.41 653.12,562.25 656.06,563.09 659.01,563.93 661.96,564.78 664.89,565.62 667.84,566.46 670.80,567.64 673.73,568.82 676.68,570.00 679.63,571.19 682.57,572.37 685.52,573.55 688.47,575.26 691.40,576.98 694.35,578.69 697.30,580.40 700.24,582.11 703.19,583.83 706.14,585.69 709.07,587.55 712.03,589.40 714.98,591.26 717.91,593.12 720.86,594.98 723.81,596.33 726.75,597.67 729.70,599.02 732.65,600.36 735.58,601.71 738.53,603.05 741.49,603.87 744.42,604.69 747.37,605.52 750.32,606.33 753.26,607.16 756.21,607.98 759.16,608.32 762.09,608.67 765.04,609.02 767.99,609.36 770.93,609.71 773.88,610.06 776.83,609.94 779.76,609.82 782.72,609.71 785.67,609.59 788.60,609.47 791.55,609.35 794.50,609.05 797.44,608.75 800.39,608.44 803.34,608.14 806.27,607.84 809.22,607.53 812.18,606.88 815.11,606.23 818.06,605.58 821.01,604.93 823.95,604.28 826.90,603.62 829.85,601.34 832.78,599.05 835.73,596.76 838.68,594.47 841.62,592.17 844.57,589.88 847.52,584.43 850.45,578.98 853.41,573.53 856.36,568.07 859.29,562.62 862.24,557.17 865.19,548.54 868.13,539.91 871.08,531.27 874.03,522.64 876.96,514.01 879.91,505.38 882.87,496.20 885.80,487.03 888.75,477.84 891.70,468.67 894.63,459.49 897.59,450.31 900.54,445.66 903.47,441.01 906.42,436.36 909.37,431.71 912.31,427.06 915.26,422.42 918.21,425.04 921.14,427.66 924.09,430.29 927.05,432.91 929.98,435.53 932.93,438.15 935.88,445.82 938.82,453.49 941.77,461.16 944.72,468.83 947.65,476.49 950.60,484.16 953.55,493.08 956.49,502.00 959.44,510.91 962.39,519.83 965.32,528.75 968.28,537.66 971.23,544.96 974.16,552.26 977.11,559.56 980.06,566.86 983.00,574.16 985.95,581.46 988.90,586.07 991.83,590.68 994.78,595.30 997.74,599.91 1000.67,604.52 1003.62,609.13 1006.57,611.40 1009.51,613.66 1012.46,615.93 1015.41,618.19 1018.34,620.46 1021.29,622.72 1024.24,622.95 1027.18,623.17 1030.13,623.40 1033.08,623.63 1036.01,623.86 1038.97,624.08 1041.92,581.74 1044.85,539.40 1047.80,497.06 1050.75,454.71 1053.69,412.37 1056.64,370.03 1059.59,328.10 1062.52,286.17 1065.47,244.23 1068.43,202.31 1071.36,160.38 1074.31,118.45" fill="none" stroke="#000000" stroke-width="3"/>
<line x1="142" y1="100" x2="178" y2="100" stroke="#000000" stroke-width="4"/>
<text x="188" y="105" font-family="Arial" font-size="18" fill="black">vorticity:2</text>
</svg>