<svg xmlns="http://www.w3.org/2000/svg" width="1200" height="820" viewBox="0 0 1200 820">
<rect width="100%" height="100%" fill="white"/>
<text x="600.0" y="36" text-anchor="middle" font-family="Arial" font-size="24" fill="black">profile_center_x: alphat</text>
<line x1="120.00" y1="75" x2="120.00" y2="705" stroke="#dddddd" stroke-width="1"/>
<text x="120.00" y="737" text-anchor="middle" font-family="Arial" font-size="16" fill="black">-0.560</text>
<line x1="376.25" y1="75" x2="376.25" y2="705" stroke="#dddddd" stroke-width="1"/>
<text x="376.25" y="737" text-anchor="middle" font-family="Arial" font-size="16" fill="black">1.470</text>
<line x1="632.50" y1="75" x2="632.50" y2="705" stroke="#dddddd" stroke-width="1"/>
<text x="632.50" y="737" text-anchor="middle" font-family="Arial" font-size="16" fill="black">3.500</text>
<line x1="888.75" y1="75" x2="888.75" y2="705" stroke="#dddddd" stroke-width="1"/>
<text x="888.75" y="737" text-anchor="middle" font-family="Arial" font-size="16" fill="black">5.530</text>
<line x1="1145.00" y1="75" x2="1145.00" y2="705" stroke="#dddddd" stroke-width="1"/>
<text x="1145.00" y="737" text-anchor="middle" font-family="Arial" font-size="16" fill="black">7.560</text>
<line x1="120" y1="705.00" x2="1145" y2="705.00" stroke="#dddddd" stroke-width="1"/>
<text x="104" y="710.00" text-anchor="end" font-family="Arial" font-size="16" fill="black">-3.47e-04</text>
<line x1="120" y1="547.50" x2="1145" y2="547.50" stroke="#dddddd" stroke-width="1"/>
<text x="104" y="552.50" text-anchor="end" font-family="Arial" font-size="16" fill="black">0.003</text>
<line x1="120" y1="390.00" x2="1145" y2="390.00" stroke="#dddddd" stroke-width="1"/>
<text x="104" y="395.00" text-anchor="end" font-family="Arial" font-size="16" fill="black">0.007</text>
<line x1="120" y1="232.50" x2="1145" y2="232.50" stroke="#dddddd" stroke-width="1"/>
<text x="104" y="237.50" text-anchor="end" font-family="Arial" font-size="16" fill="black">0.010</text>
<line x1="120" y1="75.00" x2="1145" y2="75.00" stroke="#dddddd" stroke-width="1"/>
<text x="104" y="80.00" text-anchor="end" font-family="Arial" font-size="16" fill="black">0.014</text>
<rect x="120" y="75" width="1025" height="630" fill="none" stroke="black" stroke-width="2"/>
<text x="632.5" y="785" text-anchor="middle" font-family="Arial" font-size="20" fill="black">x coordinate [m]</text>
<text x="34" y="390.0" transform="rotate(-90 34 390.0)" text-anchor="middle" font-family="Arial" font-size="20" fill="black">alphat [SI]</text>
<polyline points="190.69,661.55 193.64,659.60 196.58,657.65 199.53,655.71 202.47,653.76 205.42,650.08 208.36,645.71 211.31,641.33 214.25,636.97 217.20,632.33 220.14,627.34 223.09,622.35 226.03,617.37 228.98,612.44 231.93,607.86 234.87,603.27 237.82,598.70 240.76,594.11 243.71,590.59 246.65,587.24 249.60,583.89 252.54,580.54 255.49,578.15 258.43,576.46 261.38,574.77 264.32,573.08 267.27,571.97 270.22,572.31 273.16,572.65 276.11,572.98 279.05,573.32 282.00,575.74 284.94,578.15 287.89,580.57 290.83,582.99 293.78,586.57 296.72,590.61 299.67,594.66 302.62,598.70 305.56,602.81 308.51,607.01 311.45,611.20 314.40,615.41 317.34,619.45 320.29,622.55 323.23,625.65 326.17,628.75 329.13,631.85 332.07,633.57 335.01,635.06 337.96,636.55 340.91,638.04 343.85,638.83 346.80,639.11 349.74,639.38 352.68,639.65 355.64,639.76 358.58,639.46 361.52,639.15 364.47,638.85 367.41,638.55 370.35,636.90 373.31,635.26 376.25,633.63 379.19,631.98 382.15,627.81 385.09,622.64 388.03,617.46 390.98,612.28 393.92,605.74 396.86,597.36 399.82,589.00 402.76,580.63 405.70,571.98 408.65,561.67 411.59,551.35 414.54,541.03 417.49,530.71 420.43,517.84 423.37,504.54 426.33,491.24 429.27,477.94 432.21,463.94 435.16,449.41 438.10,434.88 441.04,420.35 444.00,406.79 446.94,395.68 449.88,384.56 452.83,373.44 455.78,362.33 458.72,358.35 461.67,354.36 464.61,350.38 467.55,346.39 470.51,348.01 473.45,351.87 476.39,355.74 479.34,359.60 482.28,365.05 485.23,372.63 488.18,380.20 491.12,387.78 494.06,394.91 497.02,399.35 499.96,403.80 502.90,408.25 505.85,412.70 508.79,412.58 511.73,411.70 514.69,410.82 517.63,409.95 520.57,408.15 523.52,405.66 526.47,403.17 529.41,400.68 532.36,398.78 535.30,398.37 538.24,397.95 541.20,397.53 544.14,397.12 547.08,399.50 550.03,401.88 552.97,404.26 555.92,406.65 558.87,410.39 561.81,414.67 564.75,418.97 567.71,423.25 570.65,427.95 573.59,433.21 576.54,438.46 579.48,443.72 582.42,449.06 585.38,454.97 588.32,460.87 591.26,466.78 594.21,472.68 597.16,478.14 600.10,483.53 603.05,488.92 605.99,494.30 608.93,498.27 611.89,501.18 614.83,504.09 617.77,507.00 620.72,509.20 623.66,509.61 626.60,510.03 629.56,510.44 632.50,510.85 635.44,509.86 638.40,508.87 641.34,507.88 644.28,506.88 647.23,504.64 650.17,501.90 653.11,499.16 656.07,496.42 659.01,492.23 661.95,486.12 664.90,480.01 667.84,473.89 670.79,467.42 673.74,458.77 676.68,450.11 679.62,441.45 682.58,432.80 685.52,423.09 688.46,413.21 691.41,403.33 694.35,393.45 697.29,382.12 700.25,369.69 703.19,357.26 706.13,344.83 709.08,331.63 712.03,316.50 714.97,301.37 717.92,286.24 720.86,271.11 723.80,255.54 726.76,239.98 729.70,224.42 732.64,208.85 735.59,195.63 738.53,183.35 741.48,171.07 744.43,158.75 747.37,148.90 750.31,142.24 753.27,135.63 756.21,128.97 759.15,123.13 762.10,121.96 765.04,120.79 767.98,119.62 770.94,118.45 773.88,121.33 776.82,124.93 779.77,128.48 782.72,132.03 785.66,137.79 788.61,145.16 791.55,152.54 794.49,159.92 797.45,167.97 800.39,177.64 803.33,187.35 806.28,197.02 809.22,206.74 812.17,217.04 815.12,227.34 818.06,237.64 821.00,247.97 823.96,257.88 826.90,267.65 829.84,277.42 832.79,287.18 835.73,296.49 838.67,305.19 841.63,313.88 844.57,322.57 847.51,331.08 850.46,338.43 853.41,345.78 856.35,353.13 859.30,360.49 862.24,366.07 865.18,371.37 868.14,376.66 871.08,381.96 874.02,386.17 876.97,389.56 879.91,392.96 882.85,396.36 885.81,399.55 888.75,402.23 891.69,404.90 894.65,407.58 897.59,410.25 900.53,412.67 903.48,415.09 906.42,417.50 909.36,419.92 912.32,421.68 915.26,423.17 918.20,424.65 921.15,426.14 924.09,426.77 927.04,426.27 929.99,425.76 932.93,425.25 935.87,424.56 938.83,422.78 941.77,420.99 944.71,419.21 947.66,417.43 950.60,415.19 953.54,412.87 956.50,410.55 959.44,408.24 962.38,405.81 965.33,403.29 968.28,400.77 971.22,398.25 974.17,396.30 977.11,395.78 980.05,395.26 983.01,394.74 985.95,394.22 988.89,397.75 991.84,401.27 994.78,404.80 997.73,408.32 1000.68,414.42 1003.62,421.55 1006.56,428.68 1009.52,435.81 1012.46,443.78 1015.40,452.87 1018.35,461.95 1021.29,471.04 1024.23,480.30 1027.19,490.62 1030.13,500.93 1033.07,511.24 1036.02,521.56 1038.97,533.01 1041.91,544.66 1044.86,556.31 1047.80,567.96 1050.74,580.23 1053.70,592.97 1056.64,605.72 1059.58,618.45 1062.53,629.43 1065.47,635.97 1068.42,642.51 1071.37,649.06 1074.31,655.60" fill="none" stroke="#000000" stroke-width="3"/>
<line x1="142" y1="100" x2="178" y2="100" stroke="#000000" stroke-width="4"/>
<text x="188" y="105" font-family="Arial" font-size="18" fill="black">alphat</text>
</svg>