<svg xmlns="http://www.w3.org/2000/svg" width="1200" height="820" viewBox="0 0 1200 820">
<rect width="100%" height="100%" fill="white"/>
<text x="600.0" y="36" text-anchor="middle" font-family="Arial" font-size="24" fill="black">profile_diagonal_supply_return: p</text>
<line x1="120.00" y1="75" x2="120.00" y2="705" stroke="#dddddd" stroke-width="1"/>
<text x="120.00" y="737" text-anchor="middle" font-family="Arial" font-size="16" fill="black">-0.729</text>
<line x1="376.25" y1="75" x2="376.25" y2="705" stroke="#dddddd" stroke-width="1"/>
<text x="376.25" y="737" text-anchor="middle" font-family="Arial" font-size="16" fill="black">1.913</text>
<line x1="632.50" y1="75" x2="632.50" y2="705" stroke="#dddddd" stroke-width="1"/>
<text x="632.50" y="737" text-anchor="middle" font-family="Arial" font-size="16" fill="black">4.555</text>
<line x1="888.75" y1="75" x2="888.75" y2="705" stroke="#dddddd" stroke-width="1"/>
<text x="888.75" y="737" text-anchor="middle" font-family="Arial" font-size="16" fill="black">7.197</text>
<line x1="1145.00" y1="75" x2="1145.00" y2="705" stroke="#dddddd" stroke-width="1"/>
<text x="1145.00" y="737" text-anchor="middle" font-family="Arial" font-size="16" fill="black">9.839</text>
<line x1="120" y1="705.00" x2="1145" y2="705.00" stroke="#dddddd" stroke-width="1"/>
<text x="104" y="710.00" text-anchor="end" font-family="Arial" font-size="16" fill="black">-34.66</text>
<line x1="120" y1="547.50" x2="1145" y2="547.50" stroke="#dddddd" stroke-width="1"/>
<text x="104" y="552.50" text-anchor="end" font-family="Arial" font-size="16" fill="black">-25.30</text>
<line x1="120" y1="390.00" x2="1145" y2="390.00" stroke="#dddddd" stroke-width="1"/>
<text x="104" y="395.00" text-anchor="end" font-family="Arial" font-size="16" fill="black">-15.94</text>
<line x1="120" y1="232.50" x2="1145" y2="232.50" stroke="#dddddd" stroke-width="1"/>
<text x="104" y="237.50" text-anchor="end" font-family="Arial" font-size="16" fill="black">-6.575</text>
<line x1="120" y1="75.00" x2="1145" y2="75.00" stroke="#dddddd" stroke-width="1"/>
<text x="104" y="80.00" text-anchor="end" font-family="Arial" font-size="16" fill="black">2.785</text>
<rect x="120" y="75" width="1025" height="630" fill="none" stroke="black" stroke-width="2"/>
<text x="632.5" y="785" text-anchor="middle" font-family="Arial" font-size="20" fill="black">distance along sample line [m]</text>
<text x="34" y="390.0" transform="rotate(-90 34 390.0)" text-anchor="middle" font-family="Arial" font-size="20" fill="black">p [Pa]</text>
<polyline points="190.69,118.45 193.64,119.41 196.58,120.37 199.53,121.33 202.47,122.29 205.42,123.25 208.36,124.21 211.31,125.19 214.25,126.18 217.20,127.16 220.14,128.15 223.09,130.09 226.03,132.04 228.98,133.98 231.93,135.93 234.87,137.88 237.82,139.83 240.76,141.78 243.71,143.73 246.65,145.68 249.60,147.62 252.54,149.57 255.49,151.51 258.43,153.45 261.38,155.39 264.32,157.32 267.27,159.25 270.22,161.18 273.16,163.10 276.11,165.03 279.05,166.95 282.00,168.86 284.94,170.78 287.88,172.69 290.83,174.60 293.78,176.52 296.73,178.43 299.67,180.35 302.62,182.26 305.57,184.18 308.50,186.09 311.45,188.01 314.40,189.92 317.34,191.84 320.29,193.76 323.24,195.69 326.18,197.61 329.12,199.54 332.07,201.47 335.01,203.40 337.96,205.33 340.91,207.27 343.85,209.20 346.80,211.14 349.74,213.07 352.68,215.02 355.63,216.96 358.58,218.90 361.53,220.84 364.47,222.78 367.42,224.73 370.36,226.66 373.30,228.60 376.25,230.53 379.20,232.47 382.14,234.40 385.09,236.34 388.04,238.27 390.97,240.20 393.92,242.14 396.87,244.07 399.81,245.99 402.76,247.91 405.71,249.84 408.65,251.75 411.59,253.67 414.54,255.59 417.48,257.51 420.43,259.42 423.38,261.33 426.32,263.25 429.27,265.15 432.21,267.06 435.16,268.96 438.10,270.86 441.05,272.77 444.00,274.67 446.94,276.57 449.89,278.47 452.84,280.37 455.77,282.27 458.72,284.17 461.67,286.06 464.61,287.96 467.56,289.85 470.51,291.74 473.45,293.65 476.39,295.55 479.34,297.45 482.28,299.33 485.23,301.24 488.18,303.14 491.12,305.04 494.07,306.92 497.01,308.82 499.96,310.73 502.90,312.63 505.85,314.53 508.80,316.43 511.74,318.31 514.69,320.22 517.63,322.12 520.57,324.00 523.52,325.90 526.47,327.80 529.41,329.69 532.36,331.59 535.31,333.48 538.24,335.38 541.19,337.26 544.14,339.16 547.08,341.05 550.03,342.93 552.98,344.82 555.92,346.70 558.86,348.59 561.81,350.45 564.76,352.34 567.70,354.21 570.65,356.07 573.60,357.96 576.54,359.81 579.49,361.68 582.43,363.55 585.37,365.40 588.32,367.25 591.27,369.12 594.21,370.97 597.16,372.82 600.11,374.67 603.04,376.52 605.99,378.35 608.94,380.20 611.88,382.04 614.83,383.89 617.78,385.72 620.72,387.57 623.66,389.43 626.61,391.26 629.55,393.11 632.50,394.94 635.45,396.80 638.40,398.65 641.34,400.50 644.28,402.33 647.23,404.18 650.17,406.03 653.12,407.90 656.07,409.75 659.01,411.62 661.96,413.49 664.90,415.34 667.84,417.21 670.79,419.07 673.74,420.94 676.68,422.81 679.63,424.69 682.58,426.56 685.51,428.45 688.46,430.33 691.41,432.22 694.35,434.10 697.30,435.99 700.25,437.87 703.20,439.76 706.14,441.64 709.08,443.52 712.03,445.41 714.97,447.29 717.92,449.19 720.87,451.08 723.81,452.96 726.76,454.83 729.70,456.72 732.64,458.60 735.59,460.49 738.54,462.37 741.48,464.24 744.43,466.12 747.38,467.99 750.31,469.88 753.26,471.74 756.21,473.61 759.15,475.48 762.10,477.35 765.05,479.21 767.99,481.07 770.93,482.93 773.88,484.80 776.83,486.65 779.77,488.52 782.72,490.37 785.67,492.22 788.61,494.07 791.55,495.92 794.50,497.79 797.44,499.64 800.39,501.49 803.34,503.33 806.28,505.18 809.23,507.03 812.17,508.88 815.11,510.71 818.06,512.57 821.01,514.42 823.95,516.25 826.90,518.10 829.85,519.95 832.79,521.79 835.73,523.64 838.68,525.49 841.63,527.34 844.57,529.17 847.52,531.02 850.47,532.89 853.41,534.74 856.35,536.61 859.30,538.46 862.24,540.33 865.19,542.20 868.14,544.07 871.08,545.93 874.03,547.80 876.97,549.69 879.91,551.55 882.86,553.44 885.81,555.31 888.75,557.19 891.70,559.08 894.65,560.94 897.58,562.83 900.53,564.70 903.48,566.58 906.43,568.46 909.37,570.33 912.32,572.20 915.27,574.08 918.20,575.95 921.15,577.80 924.10,579.67 927.04,581.54 929.99,583.39 932.94,585.26 935.88,587.11 938.82,588.96 941.77,590.81 944.71,592.65 947.66,594.50 950.61,596.35 953.55,598.18 956.50,600.02 959.44,601.85 962.38,603.68 965.33,605.53 968.28,607.37 971.22,609.20 974.17,611.04 977.12,612.85 980.06,614.69 983.00,616.51 985.95,618.34 988.90,620.16 991.84,621.97 994.79,623.79 997.74,625.59 1000.68,627.38 1003.62,629.13 1006.57,630.84 1009.51,632.54 1012.46,634.24 1015.41,635.94 1018.35,637.66 1021.30,639.34 1024.24,640.99 1027.18,642.72 1030.13,644.44 1033.08,646.16 1036.02,647.87 1038.97,649.60 1041.92,651.34 1044.86,653.05 1047.80,653.84 1050.75,654.67 1053.70,655.49 1056.64,656.30 1059.59,657.16 1062.54,658.02 1065.47,658.89 1068.42,659.78 1071.37,660.66 1074.31,661.55" fill="none" stroke="#000000" stroke-width="3"/>
<line x1="142" y1="100" x2="178" y2="100" stroke="#000000" stroke-width="4"/>
<text x="188" y="105" font-family="Arial" font-size="18" fill="black">p</text>
</svg>