<svg xmlns="http://www.w3.org/2000/svg" width="1200" height="820" viewBox="0 0 1200 820">
<rect width="100%" height="100%" fill="white"/>
<text x="600.0" y="36" text-anchor="middle" font-family="Arial" font-size="24" fill="black">profile_near_floor_x: U:2</text>
<line x1="120.00" y1="75" x2="120.00" y2="705" stroke="#dddddd" stroke-width="1"/>
<text x="120.00" y="737" text-anchor="middle" font-family="Arial" font-size="16" fill="black">-0.560</text>
<line x1="376.25" y1="75" x2="376.25" y2="705" stroke="#dddddd" stroke-width="1"/>
<text x="376.25" y="737" text-anchor="middle" font-family="Arial" font-size="16" fill="black">1.470</text>
<line x1="632.50" y1="75" x2="632.50" y2="705" stroke="#dddddd" stroke-width="1"/>
<text x="632.50" y="737" text-anchor="middle" font-family="Arial" font-size="16" fill="black">3.500</text>
<line x1="888.75" y1="75" x2="888.75" y2="705" stroke="#dddddd" stroke-width="1"/>
<text x="888.75" y="737" text-anchor="middle" font-family="Arial" font-size="16" fill="black">5.530</text>
<line x1="1145.00" y1="75" x2="1145.00" y2="705" stroke="#dddddd" stroke-width="1"/>
<text x="1145.00" y="737" text-anchor="middle" font-family="Arial" font-size="16" fill="black">7.560</text>
<line x1="120" y1="705.00" x2="1145" y2="705.00" stroke="#dddddd" stroke-width="1"/>
<text x="104" y="710.00" text-anchor="end" font-family="Arial" font-size="16" fill="black">-0.258</text>
<line x1="120" y1="547.50" x2="1145" y2="547.50" stroke="#dddddd" stroke-width="1"/>
<text x="104" y="552.50" text-anchor="end" font-family="Arial" font-size="16" fill="black">-7.97e-04</text>
<line x1="120" y1="390.00" x2="1145" y2="390.00" stroke="#dddddd" stroke-width="1"/>
<text x="104" y="395.00" text-anchor="end" font-family="Arial" font-size="16" fill="black">0.256</text>
<line x1="120" y1="232.50" x2="1145" y2="232.50" stroke="#dddddd" stroke-width="1"/>
<text x="104" y="237.50" text-anchor="end" font-family="Arial" font-size="16" fill="black">0.513</text>
<line x1="120" y1="75.00" x2="1145" y2="75.00" stroke="#dddddd" stroke-width="1"/>
<text x="104" y="80.00" text-anchor="end" font-family="Arial" font-size="16" fill="black">0.770</text>
<rect x="120" y="75" width="1025" height="630" fill="none" stroke="black" stroke-width="2"/>
<text x="632.5" y="785" text-anchor="middle" font-family="Arial" font-size="20" fill="black">x coordinate [m]</text>
<text x="34" y="390.0" transform="rotate(-90 34 390.0)" text-anchor="middle" font-family="Arial" font-size="20" fill="black">U:2 [SI]</text>
<polyline points="190.69,632.44 193.64,633.83 196.58,635.22 199.53,636.61 202.47,638.00 205.42,638.63 208.36,638.93 211.31,639.25 214.25,639.56 217.20,638.65 220.14,636.13 223.09,633.60 226.03,631.08 228.98,628.55 231.93,625.95 234.87,623.36 237.82,620.76 240.76,618.16 243.71,616.25 246.65,614.45 249.60,612.65 252.54,610.85 255.49,609.77 258.43,609.23 261.38,608.69 264.32,608.16 267.27,608.13 270.22,609.40 273.16,610.67 276.11,611.93 279.05,613.20 282.00,615.72 284.94,618.23 287.89,620.75 290.83,623.27 293.78,620.06 296.72,614.56 299.67,609.06 302.62,603.55 305.56,577.54 308.51,524.19 311.45,470.83 314.40,417.48 317.34,364.56 320.29,314.25 323.23,263.93 326.17,213.62 329.13,163.31 332.07,152.38 335.01,148.03 337.96,143.67 340.91,139.31 343.85,136.98 346.80,136.17 349.74,135.36 352.68,134.55 355.64,133.83 358.58,133.31 361.52,132.81 364.47,132.29 367.41,131.78 370.35,131.45 373.31,131.12 376.25,130.79 379.19,130.46 382.15,130.42 385.09,130.49 388.03,130.56 390.98,130.64 393.92,131.40 396.86,133.08 399.82,134.75 402.76,136.41 405.70,141.90 408.65,170.22 411.59,198.54 414.54,226.86 417.49,255.18 420.43,297.49 423.37,342.13 426.33,386.77 429.27,431.41 432.21,465.73 435.16,492.29 438.10,518.85 441.04,545.41 444.00,567.42 446.94,578.06 449.88,588.70 452.83,599.34 455.78,609.98 458.72,609.09 461.67,608.19 464.61,607.30 467.55,606.40 470.51,601.15 473.45,594.15 476.39,587.15 479.34,580.15 482.28,573.32 485.23,566.70 488.18,560.08 491.12,553.45 494.06,547.71 497.02,547.20 499.96,546.69 502.90,546.18 505.85,545.67 508.79,550.81 511.73,556.89 514.69,562.97 517.63,569.04 520.57,576.21 523.52,584.18 526.47,592.15 529.41,600.13 532.36,606.96 535.30,610.93 538.24,614.90 541.20,618.87 544.14,622.84 547.08,615.05 550.03,607.26 552.97,599.47 555.92,591.67 558.87,570.37 561.81,543.65 564.75,516.94 567.71,490.23 570.65,454.02 573.59,405.18 576.54,356.33 579.48,307.48 582.42,261.07 585.38,229.34 588.32,197.61 591.26,165.87 594.21,134.14 597.16,127.92 600.10,125.94 603.05,123.97 605.99,122.00 608.93,120.87 611.89,120.40 614.83,119.93 617.77,119.46 620.72,119.08 623.66,118.92 626.60,118.77 629.56,118.61 632.50,118.45 635.44,118.56 638.40,118.68 641.34,118.80 644.28,118.92 647.23,119.21 650.17,119.58 653.11,119.94 656.07,120.30 659.01,121.37 661.95,123.35 664.90,125.33 667.84,127.32 670.79,134.24 673.74,170.82 676.68,207.39 679.62,243.97 682.58,280.55 685.52,330.28 688.46,382.22 691.41,434.14 694.35,486.08 697.29,517.76 700.25,534.27 703.19,550.77 706.13,567.27 709.08,578.27 712.03,575.52 714.97,572.76 717.92,570.00 720.86,567.24 723.80,565.61 726.76,563.97 729.70,562.34 732.64,560.71 735.59,562.23 738.53,565.01 741.48,567.79 744.43,570.57 747.37,574.41 750.31,579.66 753.27,584.91 756.21,590.16 759.15,595.54 762.10,601.69 765.04,607.85 767.98,614.00 770.94,620.15 773.88,626.19 776.82,632.20 779.77,638.20 782.72,644.22 785.66,648.89 788.61,652.54 791.55,656.20 794.49,659.85 797.45,661.55 800.39,658.35 803.33,655.15 806.28,651.95 809.22,648.75 812.17,635.71 815.12,622.67 818.06,609.63 821.00,596.59 823.96,574.41 826.90,548.59 829.84,522.76 832.79,496.94 835.73,460.84 838.67,411.05 841.63,361.26 844.57,311.47 847.51,264.05 850.46,230.85 853.41,197.65 856.35,164.45 859.30,131.25 862.24,126.56 865.18,126.63 868.14,126.70 871.08,126.77 874.02,126.98 876.97,127.30 879.91,127.62 882.85,127.94 885.81,128.23 888.75,128.44 891.69,128.66 894.65,128.88 897.59,129.09 900.53,129.72 903.48,130.35 906.42,130.99 909.36,131.62 912.32,133.01 915.26,134.72 918.20,136.42 921.15,138.12 924.09,141.40 927.04,146.77 929.99,152.14 932.93,157.51 935.87,165.96 938.83,192.89 941.77,219.81 944.71,246.74 947.66,273.66 950.60,312.93 953.54,354.26 956.50,395.58 959.44,436.90 962.38,468.55 965.33,492.94 968.28,517.33 971.22,541.72 974.17,560.75 977.11,566.37 980.05,571.99 983.01,577.62 985.95,583.24 988.89,580.32 991.84,577.40 994.78,574.49 997.73,571.57 1000.68,566.53 1003.62,560.65 1006.56,554.76 1009.52,548.88 1012.46,542.98 1015.40,537.05 1018.35,531.12 1021.29,525.19 1024.23,519.46 1027.19,514.88 1030.13,510.29 1033.07,505.71 1036.02,501.13 1038.97,497.95 1041.91,495.00 1044.86,492.04 1047.80,489.09 1050.74,486.62 1053.70,484.51 1056.64,482.40 1059.58,480.29 1062.53,478.48 1065.47,477.47 1068.42,476.44 1071.37,475.42 1074.31,474.40" fill="none" stroke="#000000" stroke-width="3"/>
<line x1="142" y1="100" x2="178" y2="100" stroke="#000000" stroke-width="4"/>
<text x="188" y="105" font-family="Arial" font-size="18" fill="black">U:2</text>
</svg>