<svg xmlns="http://www.w3.org/2000/svg" width="1200" height="820" viewBox="0 0 1200 820">
<rect width="100%" height="100%" fill="white"/>
<text x="600.0" y="36" text-anchor="middle" font-family="Arial" font-size="24" fill="black">profile_near_floor_x: vorticity:1</text>
<line x1="120.00" y1="75" x2="120.00" y2="705" stroke="#dddddd" stroke-width="1"/>
<text x="120.00" y="737" text-anchor="middle" font-family="Arial" font-size="16" fill="black">-0.560</text>
<line x1="376.25" y1="75" x2="376.25" y2="705" stroke="#dddddd" stroke-width="1"/>
<text x="376.25" y="737" text-anchor="middle" font-family="Arial" font-size="16" fill="black">1.470</text>
<line x1="632.50" y1="75" x2="632.50" y2="705" stroke="#dddddd" stroke-width="1"/>
<text x="632.50" y="737" text-anchor="middle" font-family="Arial" font-size="16" fill="black">3.500</text>
<line x1="888.75" y1="75" x2="888.75" y2="705" stroke="#dddddd" stroke-width="1"/>
<text x="888.75" y="737" text-anchor="middle" font-family="Arial" font-size="16" fill="black">5.530</text>
<line x1="1145.00" y1="75" x2="1145.00" y2="705" stroke="#dddddd" stroke-width="1"/>
<text x="1145.00" y="737" text-anchor="middle" font-family="Arial" font-size="16" fill="black">7.560</text>
<line x1="120" y1="705.00" x2="1145" y2="705.00" stroke="#dddddd" stroke-width="1"/>
<text x="104" y="710.00" text-anchor="end" font-family="Arial" font-size="16" fill="black">-4.050</text>
<line x1="120" y1="547.50" x2="1145" y2="547.50" stroke="#dddddd" stroke-width="1"/>
<text x="104" y="552.50" text-anchor="end" font-family="Arial" font-size="16" fill="black">-2.060</text>
<line x1="120" y1="390.00" x2="1145" y2="390.00" stroke="#dddddd" stroke-width="1"/>
<text x="104" y="395.00" text-anchor="end" font-family="Arial" font-size="16" fill="black">-0.071</text>
<line x1="120" y1="232.50" x2="1145" y2="232.50" stroke="#dddddd" stroke-width="1"/>
<text x="104" y="237.50" text-anchor="end" font-family="Arial" font-size="16" fill="black">1.919</text>
<line x1="120" y1="75.00" x2="1145" y2="75.00" stroke="#dddddd" stroke-width="1"/>
<text x="104" y="80.00" text-anchor="end" font-family="Arial" font-size="16" fill="black">3.908</text>
<rect x="120" y="75" width="1025" height="630" fill="none" stroke="black" stroke-width="2"/>
<text x="632.5" y="785" text-anchor="middle" font-family="Arial" font-size="20" fill="black">x coordinate [m]</text>
<text x="34" y="390.0" transform="rotate(-90 34 390.0)" text-anchor="middle" font-family="Arial" font-size="20" fill="black">vorticity:1 [SI]</text>
<polyline points="190.69,265.19 193.64,277.96 196.58,290.73 199.53,303.50 202.47,316.28 205.42,329.74 208.36,343.48 211.31,357.23 214.25,370.97 217.20,378.90 220.14,379.09 223.09,379.28 226.03,379.47 228.98,379.34 231.93,377.30 234.87,375.25 237.82,373.21 240.76,371.18 243.71,368.60 246.65,365.94 249.60,363.27 252.54,360.61 255.49,357.82 258.43,354.93 261.38,352.03 264.32,349.14 267.27,346.50 270.22,344.49 273.16,342.48 276.11,340.47 279.05,338.46 282.00,344.57 284.94,350.69 287.89,356.80 290.83,362.92 293.78,392.77 296.72,432.12 299.67,471.46 302.62,510.82 305.56,546.60 308.51,577.65 311.45,608.69 314.40,639.73 317.34,661.55 320.29,628.02 323.23,594.50 326.17,560.97 329.13,527.44 332.07,493.22 335.01,458.89 337.96,424.56 340.91,390.23 343.85,373.95 346.80,371.21 349.74,368.48 352.68,365.74 355.64,363.64 358.58,363.10 361.52,362.56 364.47,362.03 367.41,361.49 370.35,360.57 373.31,359.66 376.25,358.74 379.19,357.82 382.15,355.84 385.09,353.44 388.03,351.03 390.98,348.62 393.92,338.50 396.86,318.07 399.82,297.64 402.76,277.21 405.70,255.28 408.65,224.38 411.59,193.48 414.54,162.58 417.49,131.69 420.43,125.31 423.37,123.02 426.33,120.74 429.27,118.45 432.21,130.22 435.16,152.54 438.10,174.86 441.04,197.17 444.00,219.40 446.94,241.36 449.88,263.33 452.83,285.29 455.78,307.26 458.72,322.53 461.67,337.80 464.61,353.07 467.55,368.34 470.51,377.30 473.45,383.72 476.39,390.15 479.34,396.57 482.28,398.84 485.23,395.56 488.18,392.28 491.12,389.00 494.06,385.06 497.02,377.12 499.96,369.19 502.90,361.25 505.85,353.32 508.79,348.97 511.73,345.22 514.69,341.46 517.63,337.71 520.57,338.75 523.52,343.38 526.47,348.01 529.41,352.64 532.36,360.14 535.30,374.79 538.24,389.45 541.20,404.10 544.14,418.76 547.08,443.84 550.03,468.92 552.97,494.00 555.92,519.08 558.87,546.08 561.81,573.86 564.75,601.63 567.71,629.40 570.65,645.36 573.59,645.58 576.54,645.80 579.48,646.02 582.42,641.44 585.38,607.99 588.32,574.55 591.26,541.10 594.21,507.66 597.16,483.48 600.10,460.84 603.05,438.20 605.99,415.56 608.93,404.26 611.89,401.45 614.83,398.64 617.77,395.84 620.72,393.34 623.66,391.62 626.60,389.90 629.56,388.17 632.50,386.45 635.44,384.86 638.40,383.28 641.34,381.69 644.28,380.11 647.23,377.96 650.17,375.58 653.11,373.21 656.07,370.83 659.01,358.70 661.95,333.55 664.90,308.40 667.84,283.26 670.79,256.78 673.74,222.33 676.68,187.89 679.62,153.43 682.58,118.99 685.52,124.81 688.46,137.35 691.41,149.89 694.35,162.43 697.29,189.44 700.25,227.30 703.19,265.16 706.13,303.02 709.08,334.15 712.03,348.47 714.97,362.79 717.92,377.11 720.86,391.43 723.80,388.97 726.76,386.51 729.70,384.06 732.64,381.60 735.59,378.54 738.53,375.24 741.48,371.94 744.43,368.64 747.37,366.39 750.31,365.54 753.27,364.70 756.21,363.85 759.15,363.28 762.10,364.33 765.04,365.38 767.98,366.44 770.94,367.49 773.88,370.55 776.82,373.94 779.77,377.33 782.72,380.72 785.66,387.02 788.61,395.50 791.55,403.98 794.49,412.46 797.45,422.46 800.39,436.27 803.33,450.07 806.28,463.88 809.22,477.68 812.17,494.99 815.12,512.30 818.06,529.61 821.00,546.92 823.96,568.92 826.90,592.81 829.84,616.69 832.79,640.57 835.73,654.91 838.67,656.54 841.63,658.16 844.57,659.79 847.51,656.03 850.46,619.93 853.41,583.84 856.35,547.74 859.30,511.65 862.24,485.42 865.18,460.84 868.14,436.26 871.08,411.68 874.02,399.87 876.97,397.66 879.91,395.44 882.85,393.22 885.81,390.98 888.75,388.66 891.69,386.34 894.65,384.02 897.59,381.70 900.53,378.50 903.48,375.30 906.42,372.09 909.36,368.89 912.32,363.83 915.26,358.01 918.20,352.19 921.15,346.38 924.09,334.45 927.04,314.37 929.99,294.30 932.93,274.22 935.87,253.14 938.83,226.01 941.77,198.89 944.71,171.77 947.66,144.65 950.60,138.09 953.54,134.96 956.50,131.84 959.44,128.71 962.38,139.72 965.33,161.33 968.28,182.94 971.22,204.54 974.17,225.87 977.11,246.50 980.05,267.13 983.01,287.76 985.95,308.39 988.89,318.39 991.84,328.39 994.78,338.39 997.73,348.39 1000.68,354.29 1003.62,358.55 1006.56,362.81 1009.52,367.07 1012.46,370.11 1015.40,371.53 1018.35,372.94 1021.29,374.36 1024.23,375.65 1027.19,376.13 1030.13,376.61 1033.07,377.09 1036.02,377.57 1038.97,378.48 1041.91,379.47 1044.86,380.45 1047.80,381.43 1050.74,376.21 1053.70,366.32 1056.64,356.43 1059.58,346.55 1062.53,336.44 1065.47,325.77 1068.42,315.10 1071.37,304.43 1074.31,293.76" fill="none" stroke="#000000" stroke-width="3"/>
<line x1="142" y1="100" x2="178" y2="100" stroke="#000000" stroke-width="4"/>
<text x="188" y="105" font-family="Arial" font-size="18" fill="black">vorticity:1</text>
</svg>