<svg xmlns="http://www.w3.org/2000/svg" width="1200" height="820" viewBox="0 0 1200 820">
<rect width="100%" height="100%" fill="white"/>
<text x="600.0" y="36" text-anchor="middle" font-family="Arial" font-size="24" fill="black">profile_center_z: U:0</text>
<line x1="120.00" y1="75" x2="120.00" y2="705" stroke="#dddddd" stroke-width="1"/>
<text x="120.00" y="737" text-anchor="middle" font-family="Arial" font-size="16" fill="black">-0.240</text>
<line x1="376.25" y1="75" x2="376.25" y2="705" stroke="#dddddd" stroke-width="1"/>
<text x="376.25" y="737" text-anchor="middle" font-family="Arial" font-size="16" fill="black">0.630</text>
<line x1="632.50" y1="75" x2="632.50" y2="705" stroke="#dddddd" stroke-width="1"/>
<text x="632.50" y="737" text-anchor="middle" font-family="Arial" font-size="16" fill="black">1.500</text>
<line x1="888.75" y1="75" x2="888.75" y2="705" stroke="#dddddd" stroke-width="1"/>
<text x="888.75" y="737" text-anchor="middle" font-family="Arial" font-size="16" fill="black">2.370</text>
<line x1="1145.00" y1="75" x2="1145.00" y2="705" stroke="#dddddd" stroke-width="1"/>
<text x="1145.00" y="737" text-anchor="middle" font-family="Arial" font-size="16" fill="black">3.240</text>
<line x1="120" y1="705.00" x2="1145" y2="705.00" stroke="#dddddd" stroke-width="1"/>
<text x="104" y="710.00" text-anchor="end" font-family="Arial" font-size="16" fill="black">-0.028</text>
<line x1="120" y1="547.50" x2="1145" y2="547.50" stroke="#dddddd" stroke-width="1"/>
<text x="104" y="552.50" text-anchor="end" font-family="Arial" font-size="16" fill="black">0.044</text>
<line x1="120" y1="390.00" x2="1145" y2="390.00" stroke="#dddddd" stroke-width="1"/>
<text x="104" y="395.00" text-anchor="end" font-family="Arial" font-size="16" fill="black">0.116</text>
<line x1="120" y1="232.50" x2="1145" y2="232.50" stroke="#dddddd" stroke-width="1"/>
<text x="104" y="237.50" text-anchor="end" font-family="Arial" font-size="16" fill="black">0.188</text>
<line x1="120" y1="75.00" x2="1145" y2="75.00" stroke="#dddddd" stroke-width="1"/>
<text x="104" y="80.00" text-anchor="end" font-family="Arial" font-size="16" fill="black">0.260</text>
<rect x="120" y="75" width="1025" height="630" fill="none" stroke="black" stroke-width="2"/>
<text x="632.5" y="785" text-anchor="middle" font-family="Arial" font-size="20" fill="black">z coordinate [m]</text>
<text x="34" y="390.0" transform="rotate(-90 34 390.0)" text-anchor="middle" font-family="Arial" font-size="20" fill="black">U:0 [SI]</text>
<polyline points="190.69,648.91 193.64,649.17 196.58,649.42 199.53,649.68 202.47,649.94 205.42,650.19 208.36,650.45 211.31,650.71 214.25,650.96 217.20,651.22 220.14,651.48 223.09,651.99 226.03,652.51 228.98,653.02 231.93,653.54 234.87,654.05 237.82,654.57 240.76,655.08 243.71,655.60 246.65,656.12 249.60,656.63 252.54,657.04 255.49,657.44 258.43,657.85 261.38,658.26 264.32,658.67 267.27,659.07 270.22,659.48 273.16,659.89 276.11,660.29 279.05,660.70 282.00,660.78 284.94,660.87 287.89,660.96 290.83,661.04 293.78,661.13 296.72,661.21 299.67,661.30 302.61,661.38 305.56,661.47 308.51,661.55 311.45,661.14 314.40,660.72 317.34,660.31 320.29,659.90 323.23,659.48 326.18,659.07 329.12,658.66 332.07,658.24 335.01,657.83 337.96,657.42 340.91,656.28 343.85,655.15 346.80,654.01 349.74,652.87 352.69,651.74 355.63,650.60 358.58,649.47 361.52,648.33 364.47,647.20 367.41,646.06 370.36,643.69 373.30,641.32 376.25,638.95 379.20,636.58 382.14,634.21 385.09,631.84 388.03,629.47 390.98,627.10 393.92,624.73 396.87,622.36 399.81,617.93 402.76,613.50 405.70,609.07 408.65,604.64 411.59,600.21 414.54,595.78 417.49,591.34 420.43,586.91 423.38,582.48 426.32,578.05 429.27,572.12 432.21,566.18 435.16,560.25 438.10,554.31 441.05,548.38 443.99,542.44 446.94,536.51 449.89,530.57 452.83,524.64 455.78,518.70 458.72,513.20 461.67,507.71 464.61,502.21 467.56,496.71 470.50,491.21 473.45,485.71 476.39,480.21 479.34,474.71 482.28,469.22 485.23,463.72 488.18,459.26 491.12,454.80 494.07,450.34 497.01,445.88 499.96,441.42 502.90,436.97 505.85,432.51 508.79,428.05 511.74,423.59 514.68,419.13 517.63,415.04 520.57,410.93 523.52,406.83 526.47,402.74 529.41,398.65 532.36,394.54 535.30,390.45 538.25,386.35 541.19,382.26 544.14,378.15 547.08,373.99 550.03,369.81 552.97,365.66 555.92,361.48 558.86,357.32 561.81,353.14 564.76,348.96 567.70,344.80 570.65,340.62 573.59,336.47 576.54,332.22 579.48,328.00 582.43,323.78 585.37,319.53 588.32,315.31 591.26,311.06 594.21,306.84 597.16,302.62 600.10,298.37 603.05,294.15 605.99,290.06 608.94,285.94 611.88,281.85 614.83,277.76 617.77,273.67 620.72,269.56 623.66,265.46 626.61,261.37 629.55,257.28 632.50,253.17 635.45,249.43 638.39,245.68 641.34,241.94 644.28,238.20 647.23,234.46 650.17,230.70 653.12,226.95 656.06,223.21 659.01,219.47 661.95,215.73 664.90,212.51 667.84,209.30 670.79,206.08 673.74,202.86 676.68,199.67 679.63,196.45 682.57,193.24 685.52,190.02 688.46,186.80 691.41,183.59 694.35,181.03 697.30,178.44 700.24,175.88 703.19,173.30 706.14,170.74 709.08,168.16 712.03,165.60 714.97,163.02 717.92,160.46 720.86,157.88 723.81,156.00 726.75,154.09 729.70,152.21 732.64,150.33 735.59,148.45 738.53,146.54 741.48,144.66 744.43,142.78 747.37,140.88 750.32,138.99 753.26,137.77 756.21,136.54 759.15,135.32 762.10,134.11 765.04,132.89 767.99,131.66 770.93,130.44 773.88,129.21 776.82,127.99 779.77,126.76 782.72,126.13 785.66,125.47 788.61,124.82 791.55,124.18 794.50,123.52 797.44,122.87 800.39,122.23 803.33,121.58 806.28,120.92 809.22,120.29 812.17,120.09 815.11,119.91 818.06,119.74 821.01,119.54 823.95,119.37 826.90,119.17 829.84,119.00 832.79,118.82 835.73,118.62 838.68,118.45 841.62,118.67 844.57,118.91 847.51,119.13 850.46,119.35 853.41,119.56 856.35,119.80 859.30,120.02 862.24,120.24 865.19,120.46 868.13,120.70 871.08,121.34 874.02,121.99 876.97,122.63 879.91,123.28 882.86,123.94 885.80,124.57 888.75,125.23 891.70,125.87 894.64,126.52 897.59,127.18 900.53,128.36 903.48,129.54 906.42,130.75 909.37,131.93 912.31,133.11 915.26,134.31 918.20,135.49 921.15,136.67 924.09,137.88 927.04,139.06 929.99,141.03 932.93,143.02 935.88,144.99 938.82,146.98 941.77,148.95 944.71,150.92 947.66,152.91 950.60,154.88 953.55,156.87 956.49,158.84 959.44,161.99 962.39,165.12 965.33,168.25 968.28,171.40 971.22,174.53 974.17,177.68 977.11,180.81 980.06,183.96 983.00,187.09 985.95,190.24 988.89,194.81 991.84,199.41 994.78,204.00 997.73,208.60 1000.68,213.19 1003.62,217.76 1006.57,222.36 1009.51,226.95 1012.46,231.55 1015.40,236.14 1018.35,242.86 1021.29,249.58 1024.24,256.27 1027.18,262.99 1030.13,269.71 1033.07,276.43 1036.02,283.14 1038.97,289.86 1041.91,296.58 1044.86,303.30 1047.80,307.32 1050.75,311.37 1053.69,315.40 1056.64,319.44 1059.58,323.47 1062.53,327.52 1065.47,331.54 1068.42,335.57 1071.36,339.62 1074.31,343.64" fill="none" stroke="#000000" stroke-width="3"/>
<line x1="142" y1="100" x2="178" y2="100" stroke="#000000" stroke-width="4"/>
<text x="188" y="105" font-family="Arial" font-size="18" fill="black">U:0</text>
</svg>