<svg xmlns="http://www.w3.org/2000/svg" width="1200" height="820" viewBox="0 0 1200 820">
<rect width="100%" height="100%" fill="white"/>
<text x="600.0" y="36" text-anchor="middle" font-family="Arial" font-size="24" fill="black">profile_center_z: U:1</text>
<line x1="120.00" y1="75" x2="120.00" y2="705" stroke="#dddddd" stroke-width="1"/>
<text x="120.00" y="737" text-anchor="middle" font-family="Arial" font-size="16" fill="black">-0.240</text>
<line x1="376.25" y1="75" x2="376.25" y2="705" stroke="#dddddd" stroke-width="1"/>
<text x="376.25" y="737" text-anchor="middle" font-family="Arial" font-size="16" fill="black">0.630</text>
<line x1="632.50" y1="75" x2="632.50" y2="705" stroke="#dddddd" stroke-width="1"/>
<text x="632.50" y="737" text-anchor="middle" font-family="Arial" font-size="16" fill="black">1.500</text>
<line x1="888.75" y1="75" x2="888.75" y2="705" stroke="#dddddd" stroke-width="1"/>
<text x="888.75" y="737" text-anchor="middle" font-family="Arial" font-size="16" fill="black">2.370</text>
<line x1="1145.00" y1="75" x2="1145.00" y2="705" stroke="#dddddd" stroke-width="1"/>
<text x="1145.00" y="737" text-anchor="middle" font-family="Arial" font-size="16" fill="black">3.240</text>
<line x1="120" y1="705.00" x2="1145" y2="705.00" stroke="#dddddd" stroke-width="1"/>
<text x="104" y="710.00" text-anchor="end" font-family="Arial" font-size="16" fill="black">-0.075</text>
<line x1="120" y1="547.50" x2="1145" y2="547.50" stroke="#dddddd" stroke-width="1"/>
<text x="104" y="552.50" text-anchor="end" font-family="Arial" font-size="16" fill="black">-0.018</text>
<line x1="120" y1="390.00" x2="1145" y2="390.00" stroke="#dddddd" stroke-width="1"/>
<text x="104" y="395.00" text-anchor="end" font-family="Arial" font-size="16" fill="black">0.038</text>
<line x1="120" y1="232.50" x2="1145" y2="232.50" stroke="#dddddd" stroke-width="1"/>
<text x="104" y="237.50" text-anchor="end" font-family="Arial" font-size="16" fill="black">0.095</text>
<line x1="120" y1="75.00" x2="1145" y2="75.00" stroke="#dddddd" stroke-width="1"/>
<text x="104" y="80.00" text-anchor="end" font-family="Arial" font-size="16" fill="black">0.151</text>
<rect x="120" y="75" width="1025" height="630" fill="none" stroke="black" stroke-width="2"/>
<text x="632.5" y="785" text-anchor="middle" font-family="Arial" font-size="20" fill="black">z coordinate [m]</text>
<text x="34" y="390.0" transform="rotate(-90 34 390.0)" text-anchor="middle" font-family="Arial" font-size="20" fill="black">U:1 [SI]</text>
<polyline points="190.69,505.76 193.64,506.39 196.58,507.01 199.53,507.63 202.47,508.25 205.42,508.87 208.36,509.49 211.31,510.12 214.25,510.74 217.20,511.36 220.14,511.98 223.09,513.43 226.03,514.88 228.98,516.33 231.93,517.78 234.87,519.23 237.82,520.68 240.76,522.12 243.71,523.57 246.65,525.02 249.60,526.47 252.54,528.27 255.49,530.07 258.43,531.87 261.38,533.68 264.32,535.48 267.27,537.28 270.22,539.08 273.16,540.88 276.11,542.68 279.05,544.48 282.00,546.52 284.94,548.57 287.89,550.62 290.83,552.66 293.78,554.71 296.72,556.75 299.67,558.80 302.61,560.84 305.56,562.89 308.51,564.93 311.45,567.12 314.40,569.31 317.34,571.50 320.29,573.68 323.23,575.87 326.18,578.06 329.12,580.24 332.07,582.43 335.01,584.62 337.96,586.81 340.91,588.95 343.85,591.10 346.80,593.24 349.74,595.39 352.69,597.54 355.63,599.68 358.58,601.83 361.52,603.97 364.47,606.12 367.41,608.26 370.36,610.08 373.30,611.89 376.25,613.70 379.20,615.51 382.14,617.32 385.09,619.13 388.03,620.94 390.98,622.75 393.92,624.56 396.87,626.37 399.81,627.80 402.76,629.23 405.70,630.66 408.65,632.09 411.59,633.52 414.54,634.94 417.49,636.37 420.43,637.80 423.38,639.23 426.32,640.66 429.27,641.78 432.21,642.90 435.16,644.02 438.10,645.15 441.05,646.27 443.99,647.39 446.94,648.51 449.89,649.63 452.83,650.75 455.78,651.87 458.72,652.57 461.67,653.28 464.61,653.98 467.56,654.69 470.50,655.39 473.45,656.10 476.39,656.80 479.34,657.51 482.28,658.21 485.23,658.91 488.18,659.18 491.12,659.44 494.07,659.70 497.01,659.97 499.96,660.23 502.90,660.50 505.85,660.76 508.79,661.03 511.74,661.29 514.68,661.55 517.63,661.50 520.57,661.44 523.52,661.38 526.47,661.32 529.41,661.26 532.36,661.21 535.30,661.15 538.25,661.09 541.19,661.03 544.14,660.98 547.08,660.69 550.03,660.41 552.97,660.12 555.92,659.84 558.86,659.55 561.81,659.26 564.76,658.98 567.70,658.69 570.65,658.41 573.59,658.12 576.54,657.58 579.48,657.04 582.43,656.49 585.37,655.95 588.32,655.41 591.26,654.87 594.21,654.32 597.16,653.78 600.10,653.24 603.05,652.69 605.99,651.78 608.94,650.88 611.88,649.97 614.83,649.07 617.77,648.16 620.72,647.25 623.66,646.35 626.61,645.44 629.55,644.54 632.50,643.63 635.45,642.22 638.39,640.81 641.34,639.40 644.28,637.98 647.23,636.57 650.17,635.16 653.12,633.75 656.06,632.34 659.01,630.93 661.95,629.52 664.90,627.44 667.84,625.36 670.79,623.28 673.74,621.20 676.68,619.12 679.63,617.04 682.57,614.96 685.52,612.88 688.46,610.81 691.41,608.73 694.35,605.80 697.30,602.88 700.24,599.95 703.19,597.03 706.14,594.10 709.08,591.18 712.03,588.25 714.97,585.33 717.92,582.41 720.86,579.48 723.81,575.54 726.75,571.61 729.70,567.67 732.64,563.73 735.59,559.79 738.53,555.85 741.48,551.92 744.43,547.98 747.37,544.04 750.32,540.10 753.26,535.10 756.21,530.09 759.15,525.08 762.10,520.08 765.04,515.07 767.99,510.07 770.93,505.06 773.88,500.06 776.82,495.05 779.77,490.04 782.72,484.05 785.66,478.06 788.61,472.07 791.55,466.08 794.50,460.08 797.44,454.09 800.39,448.10 803.33,442.10 806.28,436.11 809.22,430.12 812.17,423.37 815.11,416.63 818.06,409.88 821.01,403.14 823.95,396.39 826.90,389.64 829.84,382.90 832.79,376.15 835.73,369.41 838.68,362.66 841.62,355.67 844.57,348.68 847.51,341.69 850.46,334.70 853.41,327.71 856.35,320.72 859.30,313.74 862.24,306.75 865.19,299.76 868.13,292.77 871.08,286.15 874.02,279.54 876.97,272.93 879.91,266.32 882.86,259.71 885.80,253.10 888.75,246.48 891.70,239.87 894.64,233.26 897.59,226.65 900.53,221.04 903.48,215.45 906.42,209.85 909.37,204.22 912.31,198.62 915.26,193.02 918.20,187.43 921.15,181.83 924.09,176.23 927.04,170.60 929.99,166.78 932.93,162.94 935.88,159.09 938.82,155.25 941.77,151.40 944.71,147.56 947.66,143.72 950.60,139.87 953.55,136.03 956.49,132.18 959.44,130.82 962.39,129.45 965.33,128.06 968.28,126.69 971.22,125.33 974.17,123.96 977.11,122.57 980.06,121.21 983.00,119.84 985.95,118.45 988.89,119.73 991.84,121.01 994.78,122.29 997.73,123.57 1000.68,124.86 1003.62,126.11 1006.57,127.39 1009.51,128.67 1012.46,129.95 1015.40,131.24 1018.35,132.74 1021.29,134.27 1024.24,135.80 1027.18,137.31 1030.13,138.84 1033.07,140.37 1036.02,141.88 1038.97,143.41 1041.91,144.94 1044.86,146.45 1047.80,146.70 1050.75,146.95 1053.69,147.20 1056.64,147.45 1059.58,147.70 1062.53,147.95 1065.47,148.20 1068.42,148.45 1071.36,148.70 1074.31,148.95" fill="none" stroke="#000000" stroke-width="3"/>
<line x1="142" y1="100" x2="178" y2="100" stroke="#000000" stroke-width="4"/>
<text x="188" y="105" font-family="Arial" font-size="18" fill="black">U:1</text>
</svg>