<svg xmlns="http://www.w3.org/2000/svg" width="1200" height="820" viewBox="0 0 1200 820">
<rect width="100%" height="100%" fill="white"/>
<text x="600.0" y="36" text-anchor="middle" font-family="Arial" font-size="24" fill="black">profile_near_floor_x: velocity magnitude</text>
<line x1="120.00" y1="75" x2="120.00" y2="705" stroke="#dddddd" stroke-width="1"/>
<text x="120.00" y="737" text-anchor="middle" font-family="Arial" font-size="16" fill="black">-0.560</text>
<line x1="376.25" y1="75" x2="376.25" y2="705" stroke="#dddddd" stroke-width="1"/>
<text x="376.25" y="737" text-anchor="middle" font-family="Arial" font-size="16" fill="black">1.470</text>
<line x1="632.50" y1="75" x2="632.50" y2="705" stroke="#dddddd" stroke-width="1"/>
<text x="632.50" y="737" text-anchor="middle" font-family="Arial" font-size="16" fill="black">3.500</text>
<line x1="888.75" y1="75" x2="888.75" y2="705" stroke="#dddddd" stroke-width="1"/>
<text x="888.75" y="737" text-anchor="middle" font-family="Arial" font-size="16" fill="black">5.530</text>
<line x1="1145.00" y1="75" x2="1145.00" y2="705" stroke="#dddddd" stroke-width="1"/>
<text x="1145.00" y="737" text-anchor="middle" font-family="Arial" font-size="16" fill="black">7.560</text>
<line x1="120" y1="705.00" x2="1145" y2="705.00" stroke="#dddddd" stroke-width="1"/>
<text x="104" y="710.00" text-anchor="end" font-family="Arial" font-size="16" fill="black">-0.024</text>
<line x1="120" y1="547.50" x2="1145" y2="547.50" stroke="#dddddd" stroke-width="1"/>
<text x="104" y="552.50" text-anchor="end" font-family="Arial" font-size="16" fill="black">0.170</text>
<line x1="120" y1="390.00" x2="1145" y2="390.00" stroke="#dddddd" stroke-width="1"/>
<text x="104" y="395.00" text-anchor="end" font-family="Arial" font-size="16" fill="black">0.365</text>
<line x1="120" y1="232.50" x2="1145" y2="232.50" stroke="#dddddd" stroke-width="1"/>
<text x="104" y="237.50" text-anchor="end" font-family="Arial" font-size="16" fill="black">0.559</text>
<line x1="120" y1="75.00" x2="1145" y2="75.00" stroke="#dddddd" stroke-width="1"/>
<text x="104" y="80.00" text-anchor="end" font-family="Arial" font-size="16" fill="black">0.753</text>
<rect x="120" y="75" width="1025" height="630" fill="none" stroke="black" stroke-width="2"/>
<text x="632.5" y="785" text-anchor="middle" font-family="Arial" font-size="20" fill="black">x coordinate [m]</text>
<text x="34" y="390.0" transform="rotate(-90 34 390.0)" text-anchor="middle" font-family="Arial" font-size="20" fill="black">|U| [m/s]</text>
<polyline points="190.69,510.64 193.64,507.82 196.58,505.02 199.53,502.21 202.47,499.40 205.42,496.79 208.36,494.27 211.31,491.74 214.25,489.22 217.20,488.43 220.14,489.96 223.09,491.49 226.03,493.01 228.98,494.71 231.93,497.44 234.87,500.17 237.82,502.89 240.76,505.63 243.71,508.68 246.65,511.78 249.60,514.89 252.54,517.99 255.49,521.10 258.43,524.22 261.38,527.33 264.32,530.44 267.27,533.38 270.22,535.87 273.16,538.35 276.11,540.84 279.05,543.32 282.00,544.77 284.94,546.21 287.89,547.66 290.83,549.11 293.78,557.35 296.72,568.32 299.67,579.28 302.62,590.24 305.56,582.07 308.51,548.41 311.45,514.75 314.40,481.09 317.34,442.75 320.29,376.39 323.23,310.04 326.17,243.68 329.13,177.33 332.07,162.68 335.01,156.66 337.96,150.64 340.91,144.62 343.85,141.42 346.80,140.34 349.74,139.25 352.68,138.17 355.64,137.19 358.58,136.47 361.52,135.76 364.47,135.04 367.41,134.33 370.35,133.78 373.31,133.22 376.25,132.67 379.19,132.11 382.15,131.82 385.09,131.62 388.03,131.42 390.98,131.23 393.92,131.74 396.86,133.20 399.82,134.66 402.76,136.11 405.70,142.46 408.65,178.10 411.59,213.75 414.54,249.39 417.49,285.04 420.43,338.88 423.37,395.76 426.33,452.64 429.27,509.51 432.21,543.77 435.16,561.09 438.10,578.40 441.04,595.72 444.00,606.57 446.94,601.27 449.88,595.98 452.83,590.68 455.78,585.39 458.72,587.70 461.67,590.02 464.61,592.33 467.55,594.64 470.51,601.05 473.45,609.10 476.39,617.15 479.34,625.19 482.28,632.86 485.23,640.02 488.18,647.18 491.12,654.33 494.06,660.51 497.02,660.77 499.96,661.03 502.90,661.29 505.85,661.55 508.79,656.49 511.73,650.54 514.69,644.59 517.63,638.64 520.57,630.71 523.52,621.29 526.47,611.87 529.41,602.45 532.36,594.24 535.30,589.09 538.24,583.93 541.20,578.77 544.14,573.61 547.08,579.74 550.03,585.87 552.97,591.99 555.92,598.12 558.87,594.43 561.81,586.82 564.75,579.20 567.71,571.59 570.65,541.03 573.59,479.89 576.54,418.75 579.48,357.61 582.42,299.39 585.38,258.60 588.32,217.81 591.26,177.02 594.21,136.24 597.16,128.56 600.10,126.40 603.05,124.25 605.99,122.09 608.93,120.89 611.89,120.42 614.83,119.95 617.77,119.48 620.72,119.09 623.66,118.93 626.60,118.77 629.56,118.61 632.50,118.45 635.44,118.59 638.40,118.74 641.34,118.88 644.28,119.02 647.23,119.36 650.17,119.78 653.11,120.19 656.07,120.60 659.01,121.86 661.95,124.25 664.90,126.62 667.84,129.00 670.79,137.82 673.74,185.25 676.68,232.68 679.62,280.11 682.58,327.55 685.52,386.05 688.46,446.39 691.41,506.73 694.35,567.07 697.29,591.94 700.25,590.19 703.19,588.45 706.13,586.70 709.08,585.32 712.03,584.86 714.97,584.40 717.92,583.95 720.86,583.48 723.80,580.35 726.76,577.22 729.70,574.08 732.64,570.94 735.59,566.73 738.53,562.10 741.48,557.47 744.43,552.83 747.37,548.34 750.31,544.03 753.27,539.73 756.21,535.42 759.15,531.23 762.10,527.73 765.04,524.22 767.98,520.71 770.94,517.20 773.88,513.81 776.82,510.43 779.77,507.06 782.72,503.70 785.66,500.56 788.61,497.61 791.55,494.66 794.49,491.70 797.45,489.59 800.39,489.61 803.33,489.61 806.28,489.62 809.22,489.63 812.17,492.35 815.12,495.06 818.06,497.78 821.00,500.49 823.96,500.90 826.90,500.38 829.84,499.87 832.79,499.35 835.73,479.44 838.67,433.66 841.63,387.89 844.57,342.12 847.51,296.96 850.46,255.51 853.41,214.05 856.35,172.60 859.30,131.15 862.24,125.65 865.18,126.13 868.14,126.63 871.08,127.12 874.02,127.64 876.97,128.20 879.91,128.75 882.85,129.31 885.81,129.81 888.75,130.14 891.69,130.48 894.65,130.81 897.59,131.15 900.53,131.89 903.48,132.62 906.42,133.36 909.36,134.10 912.32,135.54 915.26,137.27 918.20,139.00 921.15,140.73 924.09,144.08 927.04,149.61 929.99,155.13 932.93,160.65 935.87,169.55 938.83,198.79 941.77,228.01 944.71,257.24 947.66,286.47 950.60,319.43 953.54,353.00 956.50,386.58 959.44,420.16 962.38,434.40 965.33,434.15 968.28,433.89 971.22,433.64 974.17,432.25 977.11,428.00 980.05,423.76 983.01,419.52 985.95,415.28 988.89,412.66 991.84,410.04 994.78,407.42 997.73,404.80 1000.68,401.88 1003.62,398.86 1006.56,395.83 1009.52,392.80 1012.46,389.79 1015.40,386.82 1018.35,383.84 1021.29,380.87 1024.23,377.92 1027.19,375.12 1030.13,372.31 1033.07,369.52 1036.02,366.72 1038.97,363.07 1041.91,359.29 1044.86,355.51 1047.80,351.73 1050.74,346.02 1053.70,338.87 1056.64,331.71 1059.58,324.56 1062.53,318.09 1065.47,313.31 1068.42,308.54 1071.37,303.77 1074.31,299.00" fill="none" stroke="#000000" stroke-width="3"/>
<line x1="142" y1="100" x2="178" y2="100" stroke="#000000" stroke-width="4"/>
<text x="188" y="105" font-family="Arial" font-size="18" fill="black">|U|</text>
</svg>