<svg xmlns="http://www.w3.org/2000/svg" width="1200" height="820" viewBox="0 0 1200 820">
<rect width="100%" height="100%" fill="white"/>
<text x="600.0" y="36" text-anchor="middle" font-family="Arial" font-size="24" fill="black">profile_center_y: epsilon</text>
<line x1="120.00" y1="75" x2="120.00" y2="705" stroke="#dddddd" stroke-width="1"/>
<text x="120.00" y="737" text-anchor="middle" font-family="Arial" font-size="16" fill="black">-0.400</text>
<line x1="376.25" y1="75" x2="376.25" y2="705" stroke="#dddddd" stroke-width="1"/>
<text x="376.25" y="737" text-anchor="middle" font-family="Arial" font-size="16" fill="black">1.050</text>
<line x1="632.50" y1="75" x2="632.50" y2="705" stroke="#dddddd" stroke-width="1"/>
<text x="632.50" y="737" text-anchor="middle" font-family="Arial" font-size="16" fill="black">2.500</text>
<line x1="888.75" y1="75" x2="888.75" y2="705" stroke="#dddddd" stroke-width="1"/>
<text x="888.75" y="737" text-anchor="middle" font-family="Arial" font-size="16" fill="black">3.950</text>
<line x1="1145.00" y1="75" x2="1145.00" y2="705" stroke="#dddddd" stroke-width="1"/>
<text x="1145.00" y="737" text-anchor="middle" font-family="Arial" font-size="16" fill="black">5.400</text>
<line x1="120" y1="705.00" x2="1145" y2="705.00" stroke="#dddddd" stroke-width="1"/>
<text x="104" y="710.00" text-anchor="end" font-family="Arial" font-size="16" fill="black">4.57e-04</text>
<line x1="120" y1="547.50" x2="1145" y2="547.50" stroke="#dddddd" stroke-width="1"/>
<text x="104" y="552.50" text-anchor="end" font-family="Arial" font-size="16" fill="black">0.002</text>
<line x1="120" y1="390.00" x2="1145" y2="390.00" stroke="#dddddd" stroke-width="1"/>
<text x="104" y="395.00" text-anchor="end" font-family="Arial" font-size="16" fill="black">0.004</text>
<line x1="120" y1="232.50" x2="1145" y2="232.50" stroke="#dddddd" stroke-width="1"/>
<text x="104" y="237.50" text-anchor="end" font-family="Arial" font-size="16" fill="black">0.006</text>
<line x1="120" y1="75.00" x2="1145" y2="75.00" stroke="#dddddd" stroke-width="1"/>
<text x="104" y="80.00" text-anchor="end" font-family="Arial" font-size="16" fill="black">0.007</text>
<rect x="120" y="75" width="1025" height="630" fill="none" stroke="black" stroke-width="2"/>
<text x="632.5" y="785" text-anchor="middle" font-family="Arial" font-size="20" fill="black">y coordinate [m]</text>
<text x="34" y="390.0" transform="rotate(-90 34 390.0)" text-anchor="middle" font-family="Arial" font-size="20" fill="black">epsilon [m2/s3]</text>
<polyline points="190.69,527.41 193.64,527.11 196.58,526.81 199.53,526.50 202.47,526.20 205.42,525.89 208.36,525.58 211.31,527.84 214.25,530.11 217.20,532.37 220.14,534.63 223.09,536.89 226.03,539.15 228.98,543.97 231.92,548.80 234.87,553.63 237.82,558.45 240.76,563.28 243.71,568.11 246.65,570.80 249.60,573.50 252.54,576.18 255.49,578.88 258.43,581.57 261.38,584.26 264.33,583.93 267.27,583.60 270.22,583.28 273.16,582.95 276.11,582.62 279.05,582.30 282.00,580.56 284.94,578.83 287.89,577.10 290.83,575.36 293.78,573.62 296.72,571.89 299.67,570.18 302.61,568.45 305.56,566.74 308.51,565.02 311.45,563.30 314.40,561.58 317.34,560.13 320.29,558.68 323.23,557.23 326.18,555.78 329.12,554.32 332.07,552.87 335.01,551.26 337.96,549.64 340.91,548.03 343.85,546.40 346.80,544.79 349.74,543.17 352.69,541.24 355.63,539.32 358.58,537.39 361.52,535.46 364.47,533.53 367.41,531.61 370.37,529.53 373.30,527.46 376.25,525.38 379.20,523.31 382.13,521.23 385.09,519.17 388.04,516.77 390.97,514.38 393.92,512.00 396.87,509.60 399.81,507.22 402.76,504.83 405.71,501.75 408.64,498.67 411.59,495.58 414.55,492.51 417.48,489.43 420.43,486.35 423.38,482.46 426.32,478.56 429.27,474.66 432.22,470.77 435.15,466.88 438.10,462.98 441.05,458.40 443.99,453.83 446.94,449.25 449.89,444.67 452.82,440.09 455.78,435.51 458.73,430.59 461.66,425.67 464.61,420.74 467.56,415.82 470.50,410.90 473.45,405.97 476.40,401.12 479.33,396.28 482.28,391.43 485.24,386.59 488.17,381.74 491.12,376.90 494.07,372.43 497.01,367.97 499.96,363.50 502.91,359.03 505.84,354.57 508.79,350.11 511.74,346.20 514.68,342.31 517.63,338.41 520.58,334.52 523.51,330.62 526.47,326.72 529.42,323.90 532.35,321.09 535.30,318.27 538.25,315.45 541.19,312.63 544.14,309.82 547.09,308.64 550.02,307.46 552.97,306.28 555.93,305.10 558.86,303.92 561.81,302.74 564.76,302.84 567.70,302.95 570.65,303.06 573.60,303.17 576.53,303.27 579.48,303.38 582.43,303.78 585.37,304.18 588.32,304.58 591.27,304.98 594.20,305.37 597.16,305.76 600.11,305.56 603.04,305.37 605.99,305.17 608.94,304.97 611.88,304.77 614.83,304.57 617.78,303.07 620.71,301.56 623.66,300.07 626.62,298.56 629.55,297.06 632.50,295.56 635.45,292.23 638.38,288.90 641.34,285.57 644.29,282.24 647.22,278.91 650.17,275.58 653.12,270.23 656.06,264.89 659.01,259.55 661.96,254.20 664.89,248.86 667.84,243.51 670.80,236.69 673.73,229.87 676.68,223.04 679.63,216.21 682.57,209.39 685.52,202.56 688.47,195.66 691.40,188.76 694.35,181.86 697.30,174.96 700.24,168.06 703.19,161.16 706.14,156.15 709.07,151.13 712.03,146.11 714.98,141.09 717.91,136.08 720.86,131.06 723.81,128.96 726.75,126.86 729.70,124.75 732.65,122.65 735.58,120.55 738.53,118.45 741.49,118.53 744.42,118.62 747.37,118.70 750.32,118.78 753.26,118.87 756.21,118.96 759.16,120.56 762.09,122.17 765.04,123.77 767.99,125.37 770.93,126.98 773.88,128.58 776.83,132.43 779.76,136.27 782.72,140.11 785.67,143.95 788.60,147.79 791.55,151.64 794.50,158.96 797.44,166.28 800.39,173.61 803.34,180.94 806.27,188.26 809.22,195.59 812.18,206.62 815.11,217.65 818.06,228.69 821.01,239.73 823.95,250.76 826.90,261.80 829.85,274.91 832.78,288.01 835.73,301.12 838.68,314.22 841.62,327.33 844.57,340.43 847.52,353.16 850.45,365.88 853.41,378.61 856.36,391.34 859.29,404.06 862.24,416.79 865.19,427.19 868.13,437.59 871.08,447.99 874.03,458.38 876.96,468.78 879.91,479.18 882.87,486.87 885.80,494.57 888.75,502.26 891.70,509.95 894.63,517.64 897.59,525.34 900.54,531.37 903.47,537.40 906.42,543.43 909.37,549.46 912.31,555.50 915.26,561.53 918.21,566.56 921.14,571.59 924.09,576.63 927.05,581.65 929.98,586.69 932.93,591.72 935.88,595.77 938.82,599.82 941.77,603.86 944.72,607.91 947.65,611.95 950.60,616.00 953.55,619.08 956.49,622.16 959.44,625.25 962.39,628.33 965.32,631.41 968.28,634.50 971.23,636.70 974.16,638.91 977.11,641.10 980.06,643.31 983.00,645.51 985.95,647.72 988.90,649.13 991.83,650.56 994.78,651.97 997.74,653.39 1000.67,654.82 1003.62,656.23 1006.57,657.02 1009.51,657.80 1012.46,658.59 1015.41,659.37 1018.34,660.16 1021.29,660.94 1024.24,661.04 1027.18,661.14 1030.13,661.25 1033.08,661.35 1036.01,661.45 1038.97,661.55 1041.92,656.57 1044.85,651.60 1047.80,646.62 1050.75,641.64 1053.69,636.66 1056.64,631.68 1059.59,626.86 1062.52,622.04 1065.47,617.21 1068.43,612.38 1071.36,607.57 1074.31,602.74" fill="none" stroke="#000000" stroke-width="3"/>
<line x1="142" y1="100" x2="178" y2="100" stroke="#000000" stroke-width="4"/>
<text x="188" y="105" font-family="Arial" font-size="18" fill="black">epsilon</text>
</svg>