<svg xmlns="http://www.w3.org/2000/svg" width="1200" height="820" viewBox="0 0 1200 820">
<rect width="100%" height="100%" fill="white"/>
<text x="600.0" y="36" text-anchor="middle" font-family="Arial" font-size="24" fill="black">profile_near_floor_x: alphat</text>
<line x1="120.00" y1="75" x2="120.00" y2="705" stroke="#dddddd" stroke-width="1"/>
<text x="120.00" y="737" text-anchor="middle" font-family="Arial" font-size="16" fill="black">-0.560</text>
<line x1="376.25" y1="75" x2="376.25" y2="705" stroke="#dddddd" stroke-width="1"/>
<text x="376.25" y="737" text-anchor="middle" font-family="Arial" font-size="16" fill="black">1.470</text>
<line x1="632.50" y1="75" x2="632.50" y2="705" stroke="#dddddd" stroke-width="1"/>
<text x="632.50" y="737" text-anchor="middle" font-family="Arial" font-size="16" fill="black">3.500</text>
<line x1="888.75" y1="75" x2="888.75" y2="705" stroke="#dddddd" stroke-width="1"/>
<text x="888.75" y="737" text-anchor="middle" font-family="Arial" font-size="16" fill="black">5.530</text>
<line x1="1145.00" y1="75" x2="1145.00" y2="705" stroke="#dddddd" stroke-width="1"/>
<text x="1145.00" y="737" text-anchor="middle" font-family="Arial" font-size="16" fill="black">7.560</text>
<line x1="120" y1="705.00" x2="1145" y2="705.00" stroke="#dddddd" stroke-width="1"/>
<text x="104" y="710.00" text-anchor="end" font-family="Arial" font-size="16" fill="black">3.85e-04</text>
<line x1="120" y1="547.50" x2="1145" y2="547.50" stroke="#dddddd" stroke-width="1"/>
<text x="104" y="552.50" text-anchor="end" font-family="Arial" font-size="16" fill="black">0.002</text>
<line x1="120" y1="390.00" x2="1145" y2="390.00" stroke="#dddddd" stroke-width="1"/>
<text x="104" y="395.00" text-anchor="end" font-family="Arial" font-size="16" fill="black">0.004</text>
<line x1="120" y1="232.50" x2="1145" y2="232.50" stroke="#dddddd" stroke-width="1"/>
<text x="104" y="237.50" text-anchor="end" font-family="Arial" font-size="16" fill="black">0.006</text>
<line x1="120" y1="75.00" x2="1145" y2="75.00" stroke="#dddddd" stroke-width="1"/>
<text x="104" y="80.00" text-anchor="end" font-family="Arial" font-size="16" fill="black">0.008</text>
<rect x="120" y="75" width="1025" height="630" fill="none" stroke="black" stroke-width="2"/>
<text x="632.5" y="785" text-anchor="middle" font-family="Arial" font-size="20" fill="black">x coordinate [m]</text>
<text x="34" y="390.0" transform="rotate(-90 34 390.0)" text-anchor="middle" font-family="Arial" font-size="20" fill="black">alphat [SI]</text>
<polyline points="190.69,657.56 193.64,642.73 196.58,627.90 199.53,613.07 202.47,598.23 205.42,577.19 208.36,553.65 211.31,530.12 214.25,506.58 217.20,486.41 220.14,470.73 223.09,455.04 226.03,439.35 228.98,423.94 231.93,410.16 234.87,396.39 237.82,382.62 240.76,368.84 243.71,355.15 246.65,341.47 249.60,327.79 252.54,314.11 255.49,300.53 258.43,287.04 261.38,273.54 264.32,260.05 267.27,247.08 270.22,235.43 273.16,223.77 276.11,212.13 279.05,200.48 282.00,194.72 284.94,188.94 287.89,183.17 290.83,177.41 293.78,182.66 296.72,192.32 299.67,201.97 302.62,211.63 305.56,239.13 308.51,290.44 311.45,341.74 314.40,393.04 317.34,443.40 320.29,488.10 323.23,532.81 326.17,577.51 329.13,622.22 332.07,632.36 335.01,636.73 337.96,641.10 340.91,645.47 343.85,647.77 346.80,648.50 349.74,649.23 352.68,649.96 355.64,650.55 358.58,650.79 361.52,651.02 364.47,651.25 367.41,651.49 370.35,651.63 373.31,651.76 376.25,651.90 379.19,652.04 382.15,652.11 385.09,652.17 388.03,652.21 390.98,652.26 393.92,652.31 396.86,652.35 399.82,652.39 402.76,652.43 405.70,652.32 408.65,651.30 411.59,650.28 414.54,649.27 417.49,648.26 420.43,644.50 423.37,640.27 426.33,636.05 429.27,631.83 432.21,621.34 435.16,606.15 438.10,590.96 441.04,575.76 444.00,556.21 446.94,525.73 449.88,495.26 452.83,464.79 455.78,434.32 458.72,403.03 461.67,371.74 464.61,340.46 467.55,309.17 470.51,287.21 473.45,268.98 476.39,250.75 479.34,232.51 482.28,220.15 485.23,215.61 488.18,211.08 491.12,206.53 494.06,202.29 497.02,199.81 499.96,197.33 502.90,194.84 505.85,192.35 508.79,189.74 511.73,187.12 514.69,184.48 517.63,181.85 520.57,186.30 523.52,196.04 526.47,205.79 529.41,215.53 532.36,230.37 535.30,257.93 538.24,285.48 541.20,313.03 544.14,340.58 547.08,377.69 550.03,414.79 552.97,451.89 555.92,488.99 558.87,517.82 561.81,543.35 564.75,568.87 567.71,594.40 570.65,612.70 573.59,621.39 576.54,630.06 579.48,638.74 582.42,646.44 585.38,648.23 588.32,650.03 591.26,651.81 594.21,653.61 597.16,653.94 600.10,654.02 603.05,654.11 605.99,654.19 608.93,654.26 611.89,654.32 614.83,654.37 617.77,654.43 620.72,654.47 623.66,654.49 626.60,654.50 629.56,654.52 632.50,654.53 635.44,654.53 638.40,654.53 641.34,654.53 644.28,654.53 647.23,654.50 650.17,654.47 653.11,654.44 656.07,654.41 659.01,654.27 661.95,653.99 664.90,653.71 667.84,653.42 670.79,652.19 673.74,645.23 676.68,638.26 679.62,631.30 682.58,624.34 685.52,598.30 688.46,569.10 691.41,539.88 694.35,510.67 697.29,474.64 700.25,433.49 703.19,392.33 706.13,351.18 709.08,314.19 712.03,287.61 714.97,261.03 717.92,234.45 720.86,207.88 723.80,196.16 726.76,184.45 729.70,172.72 732.64,161.01 735.59,153.27 738.53,147.11 741.48,140.94 744.43,134.78 747.37,129.96 750.31,126.89 753.27,123.82 756.21,120.76 759.15,118.45 762.10,120.60 765.04,122.74 767.98,124.90 770.94,127.05 773.88,136.20 776.82,146.51 779.77,156.83 782.72,167.15 785.66,182.60 788.61,201.90 791.55,221.21 794.49,240.51 797.45,262.01 800.39,288.98 803.33,315.95 806.28,342.92 809.22,369.89 812.17,397.81 815.12,425.73 818.06,453.65 821.00,481.56 823.96,505.70 826.90,528.32 829.84,550.95 832.79,573.57 835.73,591.91 838.67,604.54 841.63,617.17 844.57,629.79 847.51,641.02 850.46,643.81 853.41,646.60 856.35,649.39 859.30,652.18 862.24,652.62 865.18,652.67 868.14,652.72 871.08,652.76 874.02,652.81 876.97,652.85 879.91,652.89 882.85,652.94 885.81,652.97 888.75,652.97 891.69,652.97 894.65,652.97 897.59,652.98 900.53,652.89 903.48,652.81 906.42,652.73 909.36,652.65 912.32,652.41 915.26,652.11 918.20,651.82 921.15,651.52 924.09,650.97 927.04,650.06 929.99,649.16 932.93,648.26 935.87,647.10 938.83,644.43 941.77,641.76 944.71,639.09 947.66,636.42 950.60,632.22 953.54,627.75 956.50,623.29 959.44,618.83 962.38,612.59 965.33,605.02 968.28,597.45 971.22,589.89 974.17,581.38 977.11,570.52 980.05,559.66 983.01,548.80 985.95,537.93 988.89,528.54 991.84,519.13 994.78,509.73 997.73,500.32 1000.68,494.83 1003.62,490.90 1006.56,486.98 1009.52,483.05 1012.46,481.60 1015.40,483.48 1018.35,485.36 1021.29,487.24 1024.23,489.66 1027.19,495.38 1030.13,501.10 1033.07,506.82 1036.02,512.53 1038.97,520.78 1041.91,529.43 1044.86,538.09 1047.80,546.75 1050.74,559.32 1053.70,574.85 1056.64,590.37 1059.58,605.88 1062.53,619.94 1065.47,630.35 1068.42,640.74 1071.37,651.15 1074.31,661.55" fill="none" stroke="#000000" stroke-width="3"/>
<line x1="142" y1="100" x2="178" y2="100" stroke="#000000" stroke-width="4"/>
<text x="188" y="105" font-family="Arial" font-size="18" fill="black">alphat</text>
</svg>