<svg xmlns="http://www.w3.org/2000/svg" width="1200" height="820" viewBox="0 0 1200 820">
<rect width="100%" height="100%" fill="white"/>
<text x="600.0" y="36" text-anchor="middle" font-family="Arial" font-size="24" fill="black">profile_near_ceiling_x: alphat</text>
<line x1="120.00" y1="75" x2="120.00" y2="705" stroke="#dddddd" stroke-width="1"/>
<text x="120.00" y="737" text-anchor="middle" font-family="Arial" font-size="16" fill="black">-0.560</text>
<line x1="376.25" y1="75" x2="376.25" y2="705" stroke="#dddddd" stroke-width="1"/>
<text x="376.25" y="737" text-anchor="middle" font-family="Arial" font-size="16" fill="black">1.470</text>
<line x1="632.50" y1="75" x2="632.50" y2="705" stroke="#dddddd" stroke-width="1"/>
<text x="632.50" y="737" text-anchor="middle" font-family="Arial" font-size="16" fill="black">3.500</text>
<line x1="888.75" y1="75" x2="888.75" y2="705" stroke="#dddddd" stroke-width="1"/>
<text x="888.75" y="737" text-anchor="middle" font-family="Arial" font-size="16" fill="black">5.530</text>
<line x1="1145.00" y1="75" x2="1145.00" y2="705" stroke="#dddddd" stroke-width="1"/>
<text x="1145.00" y="737" text-anchor="middle" font-family="Arial" font-size="16" fill="black">7.560</text>
<line x1="120" y1="705.00" x2="1145" y2="705.00" stroke="#dddddd" stroke-width="1"/>
<text x="104" y="710.00" text-anchor="end" font-family="Arial" font-size="16" fill="black">4.19e-04</text>
<line x1="120" y1="547.50" x2="1145" y2="547.50" stroke="#dddddd" stroke-width="1"/>
<text x="104" y="552.50" text-anchor="end" font-family="Arial" font-size="16" fill="black">0.002</text>
<line x1="120" y1="390.00" x2="1145" y2="390.00" stroke="#dddddd" stroke-width="1"/>
<text x="104" y="395.00" text-anchor="end" font-family="Arial" font-size="16" fill="black">0.004</text>
<line x1="120" y1="232.50" x2="1145" y2="232.50" stroke="#dddddd" stroke-width="1"/>
<text x="104" y="237.50" text-anchor="end" font-family="Arial" font-size="16" fill="black">0.006</text>
<line x1="120" y1="75.00" x2="1145" y2="75.00" stroke="#dddddd" stroke-width="1"/>
<text x="104" y="80.00" text-anchor="end" font-family="Arial" font-size="16" fill="black">0.008</text>
<rect x="120" y="75" width="1025" height="630" fill="none" stroke="black" stroke-width="2"/>
<text x="632.5" y="785" text-anchor="middle" font-family="Arial" font-size="20" fill="black">x coordinate [m]</text>
<text x="34" y="390.0" transform="rotate(-90 34 390.0)" text-anchor="middle" font-family="Arial" font-size="20" fill="black">alphat [SI]</text>
<polyline points="190.69,644.32 193.64,627.90 196.58,611.46 199.53,595.03 202.47,578.59 205.42,557.98 208.36,535.70 211.31,513.43 214.25,491.16 217.20,474.46 220.14,465.18 223.09,455.90 226.03,446.63 228.98,437.77 231.93,431.41 234.87,425.04 237.82,418.68 240.76,412.31 243.71,406.31 246.65,400.37 249.60,394.43 252.54,388.49 255.49,382.36 258.43,376.07 261.38,369.77 264.32,363.49 267.27,357.04 270.22,350.19 273.16,343.35 276.11,336.51 279.05,329.66 282.00,322.38 284.94,315.10 287.89,307.83 290.83,300.54 293.78,293.18 296.72,285.76 299.67,278.35 302.62,270.93 305.56,263.61 308.51,256.41 311.45,249.20 314.40,242.00 317.34,234.86 320.29,228.10 323.23,221.34 326.17,214.58 329.13,207.82 332.07,201.56 335.01,195.39 337.96,189.21 340.91,183.03 343.85,177.33 346.80,171.99 349.74,166.65 352.68,161.31 355.64,156.29 358.58,152.05 361.52,147.81 364.47,143.56 367.41,139.32 370.35,136.19 373.31,133.06 376.25,129.92 379.19,126.79 382.15,124.62 385.09,122.83 388.03,121.05 390.98,119.26 393.92,118.45 396.86,118.94 399.82,119.43 402.76,119.92 405.70,120.79 408.65,123.85 411.59,126.92 414.54,129.99 417.49,133.05 420.43,137.66 423.37,142.51 426.33,147.36 429.27,152.22 432.21,157.77 435.16,163.84 438.10,169.91 441.04,175.99 444.00,182.34 446.94,189.40 449.88,196.47 452.83,203.54 455.78,210.60 458.72,218.46 461.67,226.31 464.61,234.15 467.55,242.01 470.51,250.15 473.45,258.39 476.39,266.64 479.34,274.89 482.28,283.15 485.23,291.40 488.18,299.65 491.12,307.90 494.06,316.12 497.02,324.14 499.96,332.16 502.90,340.19 505.85,348.22 508.79,355.86 511.73,363.44 514.69,371.03 517.63,378.61 520.57,385.81 523.52,392.73 526.47,399.65 529.41,406.56 532.36,413.22 535.30,419.22 538.24,425.22 541.20,431.22 544.14,437.22 547.08,441.92 550.03,446.62 552.97,451.32 555.92,456.02 558.87,459.34 561.81,462.10 564.75,464.87 567.71,467.63 570.65,469.20 573.59,469.17 576.54,469.14 579.48,469.11 582.42,468.56 585.38,464.91 588.32,461.26 591.26,457.61 594.21,453.95 597.16,447.04 600.10,439.56 603.05,432.10 605.99,424.63 608.93,415.56 611.89,405.28 614.83,395.00 617.77,384.73 620.72,374.23 623.66,363.23 626.60,352.23 629.56,341.22 632.50,330.21 635.44,320.41 638.40,310.61 641.34,300.81 644.28,291.00 647.23,282.76 650.17,275.15 653.11,267.52 656.07,259.91 659.01,253.36 661.95,248.24 664.90,243.12 667.84,238.00 670.79,233.20 673.74,230.28 676.68,227.35 679.62,224.42 682.58,221.50 685.52,219.98 688.46,218.70 691.41,217.43 694.35,216.15 697.29,215.59 700.25,215.59 703.19,215.58 706.13,215.57 709.08,215.84 712.03,216.81 714.97,217.77 717.92,218.73 720.86,219.69 723.80,221.38 726.76,223.06 729.70,224.74 732.64,226.43 735.59,228.48 738.53,230.69 741.48,232.89 744.43,235.10 747.37,237.46 750.31,240.03 753.27,242.59 756.21,245.16 759.15,247.76 762.10,250.57 765.04,253.36 767.98,256.17 770.94,258.97 773.88,261.92 776.82,264.90 779.77,267.88 782.72,270.86 785.66,273.91 788.61,277.01 791.55,280.12 794.49,283.21 797.45,286.31 800.39,289.40 803.33,292.49 806.28,295.57 809.22,298.65 812.17,301.56 815.12,304.46 818.06,307.37 821.00,310.27 823.96,312.95 826.90,315.56 829.84,318.16 832.79,320.77 835.73,323.19 838.67,325.37 841.63,327.56 844.57,329.75 847.51,331.85 850.46,333.49 853.41,335.11 856.35,336.74 859.30,338.38 862.24,339.41 865.18,340.36 868.14,341.29 871.08,342.24 874.02,342.73 876.97,342.89 879.91,343.04 882.85,343.19 885.81,343.12 888.75,342.46 891.69,341.80 894.65,341.13 897.59,340.48 900.53,339.12 903.48,337.77 906.42,336.41 909.36,335.06 912.32,333.41 915.26,331.64 918.20,329.87 921.15,328.10 924.09,326.29 927.04,324.43 929.99,322.57 932.93,320.71 935.87,318.89 938.83,317.30 941.77,315.70 944.71,314.11 947.66,312.52 950.60,311.35 953.54,310.25 956.50,309.16 959.44,308.07 962.38,307.26 965.33,306.66 968.28,306.08 971.22,305.48 974.17,305.04 977.11,304.96 980.05,304.88 983.01,304.80 985.95,304.72 988.89,305.53 991.84,306.34 994.78,307.14 997.73,307.95 1000.68,309.95 1003.62,312.43 1006.56,314.91 1009.52,317.39 1012.46,320.99 1015.40,326.09 1018.35,331.19 1021.29,336.28 1024.23,341.92 1027.19,350.72 1030.13,359.53 1033.07,368.33 1036.02,377.14 1038.97,391.31 1041.91,406.39 1044.86,421.47 1047.80,436.55 1050.74,460.33 1053.70,490.63 1056.64,520.92 1059.58,551.22 1062.53,578.77 1065.47,599.47 1068.42,620.16 1071.37,640.85 1074.31,661.55" fill="none" stroke="#000000" stroke-width="3"/>
<line x1="142" y1="100" x2="178" y2="100" stroke="#000000" stroke-width="4"/>
<text x="188" y="105" font-family="Arial" font-size="18" fill="black">alphat</text>
</svg>