<svg xmlns="http://www.w3.org/2000/svg" width="1200" height="820" viewBox="0 0 1200 820">
<rect width="100%" height="100%" fill="white"/>
<text x="600.0" y="36" text-anchor="middle" font-family="Arial" font-size="24" fill="black">profile_center_y: U, V, W components</text>
<line x1="120.00" y1="75" x2="120.00" y2="705" stroke="#dddddd" stroke-width="1"/>
<text x="120.00" y="737" text-anchor="middle" font-family="Arial" font-size="16" fill="black">-0.400</text>
<line x1="376.25" y1="75" x2="376.25" y2="705" stroke="#dddddd" stroke-width="1"/>
<text x="376.25" y="737" text-anchor="middle" font-family="Arial" font-size="16" fill="black">1.050</text>
<line x1="632.50" y1="75" x2="632.50" y2="705" stroke="#dddddd" stroke-width="1"/>
<text x="632.50" y="737" text-anchor="middle" font-family="Arial" font-size="16" fill="black">2.500</text>
<line x1="888.75" y1="75" x2="888.75" y2="705" stroke="#dddddd" stroke-width="1"/>
<text x="888.75" y="737" text-anchor="middle" font-family="Arial" font-size="16" fill="black">3.950</text>
<line x1="1145.00" y1="75" x2="1145.00" y2="705" stroke="#dddddd" stroke-width="1"/>
<text x="1145.00" y="737" text-anchor="middle" font-family="Arial" font-size="16" fill="black">5.400</text>
<line x1="120" y1="705.00" x2="1145" y2="705.00" stroke="#dddddd" stroke-width="1"/>
<text x="104" y="710.00" text-anchor="end" font-family="Arial" font-size="16" fill="black">-0.209</text>
<line x1="120" y1="547.50" x2="1145" y2="547.50" stroke="#dddddd" stroke-width="1"/>
<text x="104" y="552.50" text-anchor="end" font-family="Arial" font-size="16" fill="black">-0.047</text>
<line x1="120" y1="390.00" x2="1145" y2="390.00" stroke="#dddddd" stroke-width="1"/>
<text x="104" y="395.00" text-anchor="end" font-family="Arial" font-size="16" fill="black">0.116</text>
<line x1="120" y1="232.50" x2="1145" y2="232.50" stroke="#dddddd" stroke-width="1"/>
<text x="104" y="237.50" text-anchor="end" font-family="Arial" font-size="16" fill="black">0.279</text>
<line x1="120" y1="75.00" x2="1145" y2="75.00" stroke="#dddddd" stroke-width="1"/>
<text x="104" y="80.00" text-anchor="end" font-family="Arial" font-size="16" fill="black">0.441</text>
<rect x="120" y="75" width="1025" height="630" fill="none" stroke="black" stroke-width="2"/>
<text x="632.5" y="785" text-anchor="middle" font-family="Arial" font-size="20" fill="black">y coordinate [m]</text>
<text x="34" y="390.0" transform="rotate(-90 34 390.0)" text-anchor="middle" font-family="Arial" font-size="20" fill="black">velocity component [m/s]</text>
<polyline points="190.69,383.64 193.64,381.50 196.58,379.36 199.53,377.22 202.47,375.08 205.42,372.94 208.36,370.78 211.31,370.28 214.25,369.78 217.20,369.27 220.14,368.77 223.09,368.26 226.03,367.76 228.98,372.17 231.92,376.58 234.87,380.99 237.82,385.39 240.76,389.80 243.71,394.21 246.65,400.02 249.60,405.83 252.54,411.63 255.49,417.44 258.43,423.25 261.38,429.06 264.33,435.30 267.27,441.54 270.22,447.77 273.16,454.01 276.11,460.24 279.05,466.48 282.00,472.80 284.94,479.12 287.89,485.44 290.83,491.76 293.78,498.08 296.72,504.40 299.67,510.11 302.61,515.82 305.56,521.53 308.51,527.24 311.45,532.96 314.40,538.67 317.34,543.10 320.29,547.52 323.23,551.95 326.18,556.38 329.12,560.81 332.07,565.24 335.01,568.23 337.96,571.22 340.91,574.22 343.85,577.21 346.80,580.21 349.74,583.20 352.69,585.01 355.63,586.83 358.58,588.64 361.52,590.45 364.47,592.27 367.41,594.08 370.37,595.08 373.30,596.09 376.25,597.09 379.20,598.09 382.13,599.10 385.09,600.11 388.04,600.56 390.97,601.03 393.92,601.49 396.87,601.96 399.81,602.42 402.76,602.88 405.71,602.92 408.64,602.94 411.59,602.98 414.55,603.01 417.48,603.05 420.43,603.08 423.38,602.67 426.32,602.26 429.27,601.84 432.22,601.43 435.15,601.02 438.10,600.60 441.05,599.61 443.99,598.63 446.94,597.64 449.89,596.66 452.82,595.67 455.78,594.69 458.73,592.92 461.66,591.15 464.61,589.39 467.56,587.62 470.50,585.86 473.45,584.09 476.40,581.31 479.33,578.54 482.28,575.76 485.24,572.98 488.17,570.21 491.12,567.43 494.07,563.48 497.01,559.53 499.96,555.59 502.91,551.64 505.84,547.69 508.79,543.74 511.74,538.67 514.68,533.60 517.63,528.53 520.58,523.45 523.51,518.38 526.47,513.31 529.42,507.44 532.35,501.57 535.30,495.70 538.25,489.83 541.19,483.96 544.14,478.09 547.09,471.93 550.02,465.78 552.97,459.63 555.93,453.48 558.86,447.33 561.81,441.17 564.76,435.26 567.70,429.35 570.65,423.45 573.60,417.54 576.53,411.62 579.48,405.72 582.43,400.47 585.37,395.22 588.32,389.98 591.27,384.73 594.20,379.49 597.16,374.24 600.11,369.93 603.04,365.63 605.99,361.32 608.94,357.01 611.88,352.70 614.83,348.40 617.78,345.18 620.71,341.97 623.66,338.75 626.62,335.53 629.55,332.31 632.50,329.10 635.45,327.04 638.38,324.99 641.34,322.92 644.29,320.87 647.22,318.81 650.17,316.75 653.12,315.85 656.06,314.95 659.01,314.04 661.96,313.14 664.89,312.24 667.84,311.33 670.80,311.54 673.73,311.75 676.68,311.96 679.63,312.17 682.57,312.38 685.52,312.58 688.47,313.84 691.40,315.09 694.35,316.34 697.30,317.60 700.24,318.85 703.19,320.10 706.14,322.33 709.07,324.56 712.03,326.78 714.98,329.01 717.91,331.24 720.86,333.46 723.81,336.57 726.75,339.67 729.70,342.77 732.65,345.87 735.58,348.97 738.53,352.07 741.49,355.96 744.42,359.84 747.37,363.73 750.32,367.62 753.26,371.50 756.21,375.39 759.16,379.97 762.09,384.56 765.04,389.16 767.99,393.75 770.93,398.33 773.88,402.93 776.83,408.10 779.76,413.26 782.72,418.43 785.67,423.60 788.60,428.77 791.55,433.93 794.50,439.44 797.44,444.94 800.39,450.44 803.34,455.94 806.27,461.45 809.22,466.95 812.18,472.39 815.11,477.83 818.06,483.27 821.01,488.71 823.95,494.15 826.90,499.59 829.85,504.48 832.78,509.37 835.73,514.26 838.68,519.15 841.62,524.04 844.57,528.93 847.52,532.84 850.45,536.74 853.41,540.65 856.36,544.55 859.29,548.46 862.24,552.36 865.19,554.97 868.13,557.58 871.08,560.19 874.03,562.80 876.96,565.41 879.91,568.02 882.87,569.23 885.80,570.44 888.75,571.65 891.70,572.86 894.63,574.08 897.59,575.29 900.54,575.31 903.47,575.32 906.42,575.34 909.37,575.36 912.31,575.38 915.26,575.40 918.21,574.63 921.14,573.87 924.09,573.11 927.05,572.35 929.98,571.59 932.93,570.83 935.88,569.63 938.82,568.44 941.77,567.24 944.72,566.05 947.65,564.85 950.60,563.66 953.55,562.28 956.49,560.90 959.44,559.52 962.39,558.14 965.32,556.77 968.28,555.39 971.23,554.02 974.16,552.65 977.11,551.28 980.06,549.91 983.00,548.54 985.95,547.17 988.90,545.98 991.83,544.79 994.78,543.59 997.74,542.40 1000.67,541.21 1003.62,540.02 1006.57,539.15 1009.51,538.27 1012.46,537.40 1015.41,536.53 1018.34,535.66 1021.29,534.78 1024.24,534.30 1027.18,533.82 1030.13,533.34 1033.08,532.86 1036.01,532.38 1038.97,531.90 1041.92,531.59 1044.85,531.28 1047.80,530.97 1050.75,530.66 1053.69,530.35 1056.64,530.04 1059.59,529.87 1062.52,529.70 1065.47,529.53 1068.43,529.37 1071.36,529.20 1074.31,529.03" fill="none" stroke="#000000" stroke-width="3"/>
<line x1="142" y1="100" x2="178" y2="100" stroke="#000000" stroke-width="4"/>
<text x="188" y="105" font-family="Arial" font-size="18" fill="black">Ux / u</text>
<polyline points="190.69,505.08 193.64,504.40 196.58,503.73 199.53,503.06 202.47,502.38 205.42,501.71 208.36,501.04 211.31,499.74 214.25,498.44 217.20,497.13 220.14,495.83 223.09,494.53 226.03,493.23 228.98,492.14 231.92,491.04 234.87,489.95 237.82,488.86 240.76,487.77 243.71,486.67 246.65,485.99 249.60,485.30 252.54,484.61 255.49,483.93 258.43,483.24 261.38,482.55 264.33,482.09 267.27,481.63 270.22,481.17 273.16,480.71 276.11,480.24 279.05,479.78 282.00,479.13 284.94,478.48 287.89,477.82 290.83,477.17 293.78,476.52 296.72,475.86 299.67,474.83 302.61,473.79 305.56,472.75 308.51,471.71 311.45,470.67 314.40,469.63 317.34,468.24 320.29,466.86 323.23,465.48 326.18,464.09 329.12,462.71 332.07,461.32 335.01,459.75 337.96,458.18 340.91,456.61 343.85,455.04 346.80,453.47 349.74,451.90 352.69,450.32 355.63,448.75 358.58,447.17 361.52,445.60 364.47,444.02 367.41,442.45 370.37,441.10 373.30,439.75 376.25,438.40 379.20,437.05 382.13,435.70 385.09,434.36 388.04,433.49 390.97,432.63 393.92,431.77 396.87,430.91 399.81,430.05 402.76,429.19 405.71,428.99 408.64,428.79 411.59,428.59 414.55,428.40 417.48,428.20 420.43,428.00 423.38,428.53 426.32,429.05 429.27,429.58 432.22,430.11 435.15,430.63 438.10,431.16 441.05,432.38 443.99,433.61 446.94,434.84 449.89,436.07 452.82,437.29 455.78,438.52 458.73,440.39 461.66,442.27 464.61,444.14 467.56,446.01 470.50,447.88 473.45,449.75 476.40,452.20 479.33,454.65 482.28,457.10 485.24,459.55 488.17,462.00 491.12,464.45 494.07,467.41 497.01,470.36 499.96,473.32 502.91,476.27 505.84,479.23 508.79,482.18 511.74,485.48 514.68,488.77 517.63,492.06 520.58,495.36 523.51,498.65 526.47,501.94 529.42,505.20 532.35,508.46 535.30,511.72 538.25,514.99 541.19,518.25 544.14,521.51 547.09,524.29 550.02,527.08 552.97,529.86 555.93,532.64 558.86,535.43 561.81,538.21 564.76,540.19 567.70,542.16 570.65,544.14 573.60,546.12 576.53,548.10 579.48,550.07 582.43,551.11 585.37,552.14 588.32,553.17 591.27,554.21 594.20,555.24 597.16,556.27 600.11,556.40 603.04,556.53 605.99,556.66 608.94,556.79 611.88,556.92 614.83,557.05 617.78,556.46 620.71,555.87 623.66,555.29 626.62,554.70 629.55,554.11 632.50,553.52 635.45,552.49 638.38,551.46 641.34,550.42 644.29,549.39 647.22,548.35 650.17,547.32 653.12,546.13 656.06,544.95 659.01,543.76 661.96,542.58 664.89,541.39 667.84,540.21 670.80,539.13 673.73,538.05 676.68,536.98 679.63,535.90 682.57,534.83 685.52,533.75 688.47,532.94 691.40,532.13 694.35,531.32 697.30,530.51 700.24,529.70 703.19,528.88 706.14,528.31 709.07,527.74 712.03,527.17 714.98,526.60 717.91,526.03 720.86,525.46 723.81,524.94 726.75,524.43 729.70,523.91 732.65,523.39 735.58,522.88 738.53,522.36 741.49,521.65 744.42,520.95 747.37,520.24 750.32,519.53 753.26,518.83 756.21,518.12 759.16,517.03 762.09,515.94 765.04,514.84 767.99,513.75 770.93,512.66 773.88,511.57 776.83,510.03 779.76,508.49 782.72,506.94 785.67,505.40 788.60,503.86 791.55,502.32 794.50,500.43 797.44,498.54 800.39,496.66 803.34,494.77 806.27,492.88 809.22,491.00 812.18,489.04 815.11,487.09 818.06,485.14 821.01,483.19 823.95,481.23 826.90,479.28 829.85,477.54 832.78,475.80 835.73,474.05 838.68,472.31 841.62,470.57 844.57,468.82 847.52,467.42 850.45,466.01 853.41,464.60 856.36,463.19 859.29,461.78 862.24,460.37 865.19,459.29 868.13,458.20 871.08,457.12 874.03,456.03 876.96,454.94 879.91,453.86 882.87,453.08 885.80,452.30 888.75,451.52 891.70,450.74 894.63,449.96 897.59,449.18 900.54,448.79 903.47,448.40 906.42,448.02 909.37,447.63 912.31,447.24 915.26,446.85 918.21,446.92 921.14,446.99 924.09,447.05 927.05,447.12 929.98,447.19 932.93,447.25 935.88,447.79 938.82,448.32 941.77,448.85 944.72,449.38 947.65,449.92 950.60,450.45 953.55,451.40 956.49,452.36 959.44,453.32 962.39,454.28 965.32,455.23 968.28,456.19 971.23,457.45 974.16,458.71 977.11,459.96 980.06,461.22 983.00,462.48 985.95,463.74 988.90,465.13 991.83,466.51 994.78,467.90 997.74,469.29 1000.67,470.68 1003.62,472.07 1006.57,473.39 1009.51,474.70 1012.46,476.02 1015.41,477.34 1018.34,478.66 1021.29,479.98 1024.24,481.22 1027.18,482.47 1030.13,483.71 1033.08,484.96 1036.01,486.20 1038.97,487.45 1041.92,488.48 1044.85,489.52 1047.80,490.55 1050.75,491.59 1053.69,492.62 1056.64,493.66 1059.59,494.06 1062.52,494.47 1065.47,494.87 1068.43,495.27 1071.36,495.68 1074.31,496.08" fill="none" stroke="#555555" stroke-width="3" stroke-dasharray="9 5"/>
<line x1="142" y1="128" x2="178" y2="128" stroke="#555555" stroke-width="4" stroke-dasharray="9 5"/>
<text x="188" y="133" font-family="Arial" font-size="18" fill="black">Uy / v</text>
<polyline points="190.69,661.55 193.64,651.02 196.58,640.49 199.53,629.96 202.47,619.44 205.42,608.90 208.36,598.38 211.31,579.26 214.25,560.15 217.20,541.04 220.14,521.93 223.09,502.82 226.03,483.70 228.98,469.63 231.92,455.56 234.87,441.48 237.82,427.41 240.76,413.34 243.71,399.26 246.65,390.71 249.60,382.14 252.54,373.58 255.49,365.02 258.43,356.46 261.38,347.90 264.33,343.02 267.27,338.15 270.22,333.26 273.16,328.39 276.11,323.51 279.05,318.63 282.00,315.65 284.94,312.66 287.89,309.67 290.83,306.68 293.78,303.70 296.72,300.71 299.67,298.67 302.61,296.62 305.56,294.58 308.51,292.53 311.45,290.49 314.40,288.45 317.34,286.64 320.29,284.84 323.23,283.04 326.18,281.24 329.12,279.43 332.07,277.63 335.01,275.24 337.96,272.84 340.91,270.45 343.85,268.06 346.80,265.66 349.74,263.27 352.69,259.65 355.63,256.01 358.58,252.39 361.52,248.76 364.47,245.13 367.41,241.51 370.37,237.54 373.30,233.57 376.25,229.61 379.20,225.63 382.13,221.67 385.09,217.70 388.04,214.74 390.97,211.79 393.92,208.83 396.87,205.87 399.81,202.92 402.76,199.96 405.71,198.20 408.64,196.45 411.59,194.69 414.55,192.93 417.48,191.17 420.43,189.41 423.38,188.63 426.32,187.84 429.27,187.06 432.22,186.27 435.15,185.49 438.10,184.70 441.05,184.65 443.99,184.59 446.94,184.55 449.89,184.50 452.82,184.44 455.78,184.39 458.73,185.06 461.66,185.73 464.61,186.40 467.56,187.07 470.50,187.73 473.45,188.40 476.40,190.14 479.33,191.87 482.28,193.61 485.24,195.34 488.17,197.08 491.12,198.81 494.07,202.31 497.01,205.82 499.96,209.31 502.91,212.81 505.84,216.32 508.79,219.82 511.74,225.84 514.68,231.85 517.63,237.87 520.58,243.89 523.51,249.92 526.47,255.93 529.42,264.58 532.35,273.22 535.30,281.87 538.25,290.51 541.19,299.15 544.14,307.80 547.09,317.67 550.02,327.54 552.97,337.41 555.93,347.29 558.86,357.15 561.81,367.02 564.76,376.40 567.70,385.78 570.65,395.16 573.60,404.54 576.53,413.92 579.48,423.30 582.43,431.30 585.37,439.30 588.32,447.30 591.27,455.30 594.20,463.30 597.16,471.30 600.11,477.26 603.04,483.21 605.99,489.17 608.94,495.12 611.88,501.08 614.83,507.03 617.78,510.37 620.71,513.71 623.66,517.05 626.62,520.39 629.55,523.73 632.50,527.07 635.45,527.40 638.38,527.72 641.34,528.05 644.29,528.38 647.22,528.71 650.17,529.04 653.12,526.26 656.06,523.49 659.01,520.71 661.96,517.93 664.89,515.15 667.84,512.38 670.80,506.72 673.73,501.07 676.68,495.42 679.63,489.77 682.57,484.12 685.52,478.47 688.47,470.44 691.40,462.41 694.35,454.38 697.30,446.35 700.24,438.32 703.19,430.29 706.14,420.69 709.07,411.09 712.03,401.48 714.98,391.88 717.91,382.28 720.86,372.67 723.81,363.02 726.75,353.37 729.70,343.72 732.65,334.07 735.58,324.42 738.53,314.76 741.49,306.32 744.42,297.88 747.37,289.44 750.32,281.00 753.26,272.55 756.21,264.11 759.16,257.02 762.09,249.92 765.04,242.82 767.99,235.73 770.93,228.63 773.88,221.53 776.83,215.56 779.76,209.60 782.72,203.63 785.67,197.66 788.60,191.69 791.55,185.73 794.50,180.76 797.44,175.80 800.39,170.83 803.34,165.86 806.27,160.90 809.22,155.94 812.18,152.14 815.11,148.33 818.06,144.53 821.01,140.74 823.95,136.93 826.90,133.13 829.85,130.88 832.78,128.62 835.73,126.37 838.68,124.12 841.62,121.86 844.57,119.61 847.52,119.42 850.45,119.22 853.41,119.03 856.36,118.84 859.29,118.64 862.24,118.45 865.19,120.97 868.13,123.50 871.08,126.02 874.03,128.54 876.96,131.07 879.91,133.58 882.87,139.27 885.80,144.95 888.75,150.64 891.70,156.32 894.63,162.01 897.59,167.68 900.54,175.11 903.47,182.52 906.42,189.94 909.37,197.36 912.31,204.77 915.26,212.19 918.21,219.27 921.14,226.34 924.09,233.41 927.05,240.48 929.98,247.55 932.93,254.63 935.88,260.60 938.82,266.56 941.77,272.52 944.72,278.48 947.65,284.45 950.60,290.41 953.55,294.99 956.49,299.56 959.44,304.13 962.39,308.71 965.32,313.28 968.28,317.86 971.23,320.84 974.16,323.82 977.11,326.81 980.06,329.79 983.00,332.78 985.95,335.76 988.90,336.95 991.83,338.14 994.78,339.33 997.74,340.51 1000.67,341.70 1003.62,342.90 1006.57,342.17 1009.51,341.45 1012.46,340.73 1015.41,340.02 1018.34,339.30 1021.29,338.57 1024.24,336.19 1027.18,333.81 1030.13,331.41 1033.08,329.03 1036.01,326.64 1038.97,324.25 1041.92,321.02 1044.85,317.80 1047.80,314.58 1050.75,311.35 1053.69,308.13 1056.64,304.90 1059.59,303.22 1062.52,301.55 1065.47,299.87 1068.43,298.19 1071.36,296.52 1074.31,294.84" fill="none" stroke="#999999" stroke-width="3" stroke-dasharray="3 4"/>
<line x1="142" y1="156" x2="178" y2="156" stroke="#999999" stroke-width="4" stroke-dasharray="3 4"/>
<text x="188" y="161" font-family="Arial" font-size="18" fill="black">Uz / w</text>
</svg>