<svg xmlns="http://www.w3.org/2000/svg" width="1200" height="820" viewBox="0 0 1200 820">
<rect width="100%" height="100%" fill="white"/>
<text x="600.0" y="36" text-anchor="middle" font-family="Arial" font-size="24" fill="black">profile_center_y: nut</text>
<line x1="120.00" y1="75" x2="120.00" y2="705" stroke="#dddddd" stroke-width="1"/>
<text x="120.00" y="737" text-anchor="middle" font-family="Arial" font-size="16" fill="black">-0.400</text>
<line x1="376.25" y1="75" x2="376.25" y2="705" stroke="#dddddd" stroke-width="1"/>
<text x="376.25" y="737" text-anchor="middle" font-family="Arial" font-size="16" fill="black">1.050</text>
<line x1="632.50" y1="75" x2="632.50" y2="705" stroke="#dddddd" stroke-width="1"/>
<text x="632.50" y="737" text-anchor="middle" font-family="Arial" font-size="16" fill="black">2.500</text>
<line x1="888.75" y1="75" x2="888.75" y2="705" stroke="#dddddd" stroke-width="1"/>
<text x="888.75" y="737" text-anchor="middle" font-family="Arial" font-size="16" fill="black">3.950</text>
<line x1="1145.00" y1="75" x2="1145.00" y2="705" stroke="#dddddd" stroke-width="1"/>
<text x="1145.00" y="737" text-anchor="middle" font-family="Arial" font-size="16" fill="black">5.400</text>
<line x1="120" y1="705.00" x2="1145" y2="705.00" stroke="#dddddd" stroke-width="1"/>
<text x="104" y="710.00" text-anchor="end" font-family="Arial" font-size="16" fill="black">-0.001</text>
<line x1="120" y1="547.50" x2="1145" y2="547.50" stroke="#dddddd" stroke-width="1"/>
<text x="104" y="552.50" text-anchor="end" font-family="Arial" font-size="16" fill="black">0.006</text>
<line x1="120" y1="390.00" x2="1145" y2="390.00" stroke="#dddddd" stroke-width="1"/>
<text x="104" y="395.00" text-anchor="end" font-family="Arial" font-size="16" fill="black">0.012</text>
<line x1="120" y1="232.50" x2="1145" y2="232.50" stroke="#dddddd" stroke-width="1"/>
<text x="104" y="237.50" text-anchor="end" font-family="Arial" font-size="16" fill="black">0.019</text>
<line x1="120" y1="75.00" x2="1145" y2="75.00" stroke="#dddddd" stroke-width="1"/>
<text x="104" y="80.00" text-anchor="end" font-family="Arial" font-size="16" fill="black">0.026</text>
<rect x="120" y="75" width="1025" height="630" fill="none" stroke="black" stroke-width="2"/>
<text x="632.5" y="785" text-anchor="middle" font-family="Arial" font-size="20" fill="black">y coordinate [m]</text>
<text x="34" y="390.0" transform="rotate(-90 34 390.0)" text-anchor="middle" font-family="Arial" font-size="20" fill="black">nut [m2/s]</text>
<polyline points="190.69,658.55 193.64,653.48 196.58,648.41 199.53,643.34 202.47,638.27 205.42,633.20 208.36,628.14 211.31,619.78 214.25,611.43 217.20,603.08 220.14,594.73 223.09,586.37 226.03,578.02 228.98,571.24 231.92,564.45 234.87,557.67 237.82,550.88 240.76,544.10 243.71,537.32 246.65,530.43 249.60,523.54 252.54,516.65 255.49,509.76 258.43,502.87 261.38,495.98 264.33,489.86 267.27,483.75 270.22,477.63 273.16,471.51 276.11,465.39 279.05,459.27 282.00,454.50 284.94,449.73 287.89,444.96 290.83,440.19 293.78,435.41 296.72,430.65 299.67,427.06 302.61,423.46 305.56,419.89 308.51,416.30 311.45,412.71 314.40,409.12 317.34,406.32 320.29,403.50 323.23,400.70 326.18,397.88 329.12,395.08 332.07,392.26 335.01,389.83 337.96,387.38 340.91,384.95 343.85,382.51 346.80,380.08 349.74,377.63 352.69,375.30 355.63,372.94 358.58,370.59 361.52,368.23 364.47,365.88 367.41,363.52 370.37,361.09 373.30,358.69 376.25,356.27 379.20,353.84 382.13,351.44 385.09,349.01 388.04,346.42 390.97,343.83 393.92,341.27 396.87,338.68 399.81,336.09 402.76,333.50 405.71,330.61 408.64,327.69 411.59,324.80 414.55,321.88 417.48,318.99 420.43,316.10 423.38,312.79 426.32,309.48 429.27,306.16 432.22,302.85 435.15,299.54 438.10,296.23 441.05,292.59 443.99,288.93 446.94,285.29 449.89,281.63 452.82,277.99 455.78,274.33 458.73,270.50 461.66,266.65 464.61,262.80 467.56,258.96 470.50,255.11 473.45,251.26 476.40,247.36 479.33,243.44 482.28,239.55 485.24,235.63 488.17,231.74 491.12,227.82 494.07,223.99 497.01,220.17 499.96,216.34 502.91,212.49 505.84,208.67 508.79,204.84 511.74,201.25 514.68,197.68 517.63,194.09 520.58,190.52 523.51,186.93 526.47,183.34 529.42,180.12 532.35,176.88 535.30,173.66 538.25,170.42 541.19,167.17 544.14,163.95 547.09,161.09 550.02,158.24 552.97,155.37 555.93,152.53 558.86,149.66 561.81,146.79 564.76,144.48 567.70,142.17 570.65,139.86 573.60,137.53 576.53,135.22 579.48,132.91 582.43,131.35 585.37,129.81 588.32,128.24 591.27,126.71 594.20,125.14 597.16,123.58 600.11,122.83 603.04,122.09 605.99,121.34 608.94,120.59 611.88,119.85 614.83,119.10 617.78,119.01 620.71,118.89 623.66,118.77 626.62,118.66 629.55,118.56 632.50,118.45 635.45,118.82 638.38,119.19 641.34,119.57 644.29,119.92 647.22,120.29 650.17,120.66 653.12,121.64 656.06,122.60 659.01,123.56 661.96,124.54 664.89,125.49 667.84,126.47 670.80,128.22 673.73,129.99 676.68,131.74 679.63,133.49 682.57,135.27 685.52,137.01 688.47,139.53 691.40,142.05 694.35,144.57 697.30,147.09 700.24,149.61 703.19,152.13 706.14,155.09 709.07,158.08 712.03,161.06 714.98,164.05 717.91,167.03 720.86,170.02 723.81,173.24 726.75,176.46 729.70,179.68 732.65,182.92 735.58,186.14 738.53,189.35 741.49,192.85 744.42,196.35 747.37,199.83 750.32,203.33 753.26,206.82 756.21,210.30 759.16,214.08 762.09,217.88 765.04,221.66 767.99,225.44 770.93,229.22 773.88,233.02 776.83,236.98 779.76,240.95 782.72,244.91 785.67,248.88 788.60,252.82 791.55,256.79 794.50,260.82 797.44,264.86 800.39,268.89 803.34,272.93 806.27,276.96 809.22,281.00 812.18,285.06 815.11,289.11 818.06,293.15 821.01,297.21 823.95,301.27 826.90,305.30 829.85,309.36 832.78,313.42 835.73,317.45 838.68,321.51 841.62,325.55 844.57,329.61 847.52,333.57 850.45,337.54 853.41,341.50 856.36,345.47 859.29,349.43 862.24,353.40 865.19,357.06 868.13,360.70 871.08,364.36 874.03,368.00 876.96,371.66 879.91,375.30 882.87,378.52 885.80,381.74 888.75,384.95 891.70,388.17 894.63,391.39 897.59,394.63 900.54,397.57 903.47,400.51 906.42,403.45 909.37,406.39 912.31,409.33 915.26,412.27 918.21,415.21 921.14,418.15 924.09,421.08 927.05,424.02 929.98,426.96 932.93,429.90 935.88,433.07 938.82,436.22 941.77,439.39 944.72,442.57 947.65,445.72 950.60,448.88 953.55,452.33 956.49,455.79 959.44,459.24 962.39,462.70 965.32,466.15 968.28,469.61 971.23,473.41 974.16,477.22 977.11,481.02 980.06,484.83 983.00,488.63 985.95,492.44 988.90,496.74 991.83,501.04 994.78,505.35 997.74,509.65 1000.67,513.95 1003.62,518.26 1006.57,523.29 1009.51,528.32 1012.46,533.35 1015.41,538.38 1018.34,543.41 1021.29,548.44 1024.24,554.74 1027.18,561.04 1030.13,567.34 1033.08,573.64 1036.01,579.93 1038.97,586.23 1041.92,594.29 1044.85,602.35 1047.80,610.41 1050.75,618.47 1053.69,626.53 1056.64,634.59 1059.59,639.09 1062.52,643.58 1065.47,648.07 1068.43,652.57 1071.36,657.06 1074.31,661.55" fill="none" stroke="#000000" stroke-width="3"/>
<line x1="142" y1="100" x2="178" y2="100" stroke="#000000" stroke-width="4"/>
<text x="188" y="105" font-family="Arial" font-size="18" fill="black">nut</text>
</svg>