<svg xmlns="http://www.w3.org/2000/svg" width="1200" height="820" viewBox="0 0 1200 820">
<rect width="100%" height="100%" fill="white"/>
<text x="600.0" y="36" text-anchor="middle" font-family="Arial" font-size="24" fill="black">profile_near_floor_x: nut</text>
<line x1="120.00" y1="75" x2="120.00" y2="705" stroke="#dddddd" stroke-width="1"/>
<text x="120.00" y="737" text-anchor="middle" font-family="Arial" font-size="16" fill="black">-0.560</text>
<line x1="376.25" y1="75" x2="376.25" y2="705" stroke="#dddddd" stroke-width="1"/>
<text x="376.25" y="737" text-anchor="middle" font-family="Arial" font-size="16" fill="black">1.470</text>
<line x1="632.50" y1="75" x2="632.50" y2="705" stroke="#dddddd" stroke-width="1"/>
<text x="632.50" y="737" text-anchor="middle" font-family="Arial" font-size="16" fill="black">3.500</text>
<line x1="888.75" y1="75" x2="888.75" y2="705" stroke="#dddddd" stroke-width="1"/>
<text x="888.75" y="737" text-anchor="middle" font-family="Arial" font-size="16" fill="black">5.530</text>
<line x1="1145.00" y1="75" x2="1145.00" y2="705" stroke="#dddddd" stroke-width="1"/>
<text x="1145.00" y="737" text-anchor="middle" font-family="Arial" font-size="16" fill="black">7.560</text>
<line x1="120" y1="705.00" x2="1145" y2="705.00" stroke="#dddddd" stroke-width="1"/>
<text x="104" y="710.00" text-anchor="end" font-family="Arial" font-size="16" fill="black">3.55e-04</text>
<line x1="120" y1="547.50" x2="1145" y2="547.50" stroke="#dddddd" stroke-width="1"/>
<text x="104" y="552.50" text-anchor="end" font-family="Arial" font-size="16" fill="black">0.002</text>
<line x1="120" y1="390.00" x2="1145" y2="390.00" stroke="#dddddd" stroke-width="1"/>
<text x="104" y="395.00" text-anchor="end" font-family="Arial" font-size="16" fill="black">0.003</text>
<line x1="120" y1="232.50" x2="1145" y2="232.50" stroke="#dddddd" stroke-width="1"/>
<text x="104" y="237.50" text-anchor="end" font-family="Arial" font-size="16" fill="black">0.005</text>
<line x1="120" y1="75.00" x2="1145" y2="75.00" stroke="#dddddd" stroke-width="1"/>
<text x="104" y="80.00" text-anchor="end" font-family="Arial" font-size="16" fill="black">0.007</text>
<rect x="120" y="75" width="1025" height="630" fill="none" stroke="black" stroke-width="2"/>
<text x="632.5" y="785" text-anchor="middle" font-family="Arial" font-size="20" fill="black">x coordinate [m]</text>
<text x="34" y="390.0" transform="rotate(-90 34 390.0)" text-anchor="middle" font-family="Arial" font-size="20" fill="black">nut [m2/s]</text>
<polyline points="190.69,657.69 193.64,641.61 196.58,625.54 199.53,609.47 202.47,593.38 205.42,570.97 208.36,546.02 211.31,521.06 214.25,496.10 217.20,475.13 220.14,459.46 223.09,443.79 226.03,428.12 228.98,412.80 231.93,399.51 234.87,386.23 237.82,372.95 240.76,359.66 243.71,346.55 246.65,333.47 249.60,320.38 252.54,307.29 255.49,294.34 258.43,281.48 261.38,268.61 264.32,255.75 267.27,243.47 270.22,232.65 273.16,221.83 276.11,211.01 279.05,200.20 282.00,195.67 284.94,191.15 287.89,186.62 290.83,182.10 293.78,189.01 296.72,200.51 299.67,212.02 302.62,223.51 305.56,252.09 308.51,303.43 311.45,354.77 314.40,406.12 317.34,456.33 320.29,499.78 323.23,543.24 326.17,586.70 329.13,630.16 332.07,639.91 335.01,644.05 337.96,648.18 340.91,652.31 343.85,654.47 346.80,655.15 349.74,655.82 352.68,656.50 355.64,657.04 358.58,657.26 361.52,657.48 364.47,657.69 367.41,657.91 370.35,658.04 373.31,658.17 376.25,658.30 379.19,658.43 382.15,658.51 385.09,658.56 388.03,658.60 390.98,658.65 393.92,658.70 396.86,658.74 399.82,658.78 402.76,658.83 405.70,658.71 408.65,657.66 411.59,656.61 414.54,655.55 417.49,654.50 420.43,650.88 423.37,646.83 426.33,642.78 429.27,638.72 432.21,628.78 435.16,614.38 438.10,600.00 441.04,585.61 444.00,566.81 446.94,536.97 449.88,507.12 452.83,477.28 455.78,447.44 458.72,415.75 461.67,384.06 464.61,352.38 467.55,320.69 470.51,298.04 473.45,279.01 476.39,259.97 479.34,240.93 482.28,227.93 485.23,222.94 488.18,217.96 491.12,212.98 494.06,208.36 497.02,205.91 499.96,203.46 502.90,201.01 505.85,198.57 508.79,196.20 511.73,193.83 514.69,191.47 517.63,189.10 520.57,193.93 523.52,204.13 526.47,214.34 529.41,224.56 532.36,239.82 535.30,267.73 538.24,295.65 541.20,323.55 544.14,351.46 547.08,388.24 550.03,425.02 552.97,461.80 555.92,498.58 558.87,526.90 561.81,551.83 564.75,576.75 567.71,601.67 570.65,619.57 573.59,628.07 576.54,636.58 579.48,645.09 582.42,652.64 585.38,654.47 588.32,656.31 591.26,658.14 594.21,659.97 597.16,660.31 600.10,660.39 603.05,660.47 605.99,660.55 608.93,660.62 611.89,660.67 614.83,660.72 617.77,660.78 620.72,660.82 623.66,660.83 626.60,660.85 629.56,660.86 632.50,660.88 635.44,660.87 638.40,660.87 641.34,660.87 644.28,660.87 647.23,660.85 650.17,660.81 653.11,660.78 656.07,660.75 659.01,660.62 661.95,660.36 664.90,660.09 667.84,659.83 670.79,658.64 673.74,651.99 676.68,645.33 679.62,638.66 682.58,632.00 685.52,606.63 688.46,578.14 691.41,549.65 694.35,521.16 697.29,485.46 700.25,444.36 703.19,403.26 706.13,362.16 709.08,324.92 712.03,297.32 714.97,269.71 717.92,242.11 720.86,214.50 723.80,201.77 726.76,189.05 729.70,176.33 732.64,163.61 735.59,155.24 738.53,148.61 741.48,141.98 744.43,135.35 747.37,130.22 750.31,127.08 753.27,123.94 756.21,120.81 759.15,118.45 762.10,120.80 765.04,123.14 767.98,125.49 770.94,127.84 773.88,137.40 776.82,148.15 779.77,158.91 782.72,169.67 785.66,185.61 788.61,205.45 791.55,225.27 794.49,245.11 797.45,267.08 800.39,294.40 803.33,321.72 806.28,349.03 809.22,376.35 812.17,404.43 815.12,432.51 818.06,460.59 821.00,488.66 823.96,512.79 826.90,535.32 829.84,557.86 832.79,580.39 835.73,598.63 838.67,611.14 841.63,623.63 844.57,636.14 847.51,647.26 850.46,650.09 853.41,652.91 856.35,655.74 859.30,658.57 862.24,659.01 865.18,659.06 868.14,659.11 871.08,659.16 874.02,659.20 876.97,659.24 879.91,659.28 882.85,659.33 885.81,659.36 888.75,659.36 891.69,659.36 894.65,659.36 897.59,659.37 900.53,659.29 903.48,659.21 906.42,659.13 909.36,659.05 912.32,658.83 915.26,658.54 918.20,658.26 921.15,657.97 924.09,657.44 927.04,656.57 929.99,655.70 932.93,654.84 935.87,653.71 938.83,651.05 941.77,648.38 944.71,645.71 947.66,643.05 950.60,638.74 953.54,634.15 956.50,629.57 959.44,624.97 962.38,618.56 965.33,610.78 968.28,603.00 971.22,595.22 974.17,586.45 977.11,575.24 980.05,564.01 983.01,552.80 985.95,541.57 988.89,531.57 991.84,521.58 994.78,511.58 997.73,501.58 1000.68,495.44 1003.62,490.86 1006.56,486.27 1009.52,481.68 1012.46,479.66 1015.40,481.07 1018.35,482.48 1021.29,483.87 1024.23,485.88 1027.19,491.40 1030.13,496.93 1033.07,502.46 1036.02,507.98 1038.97,516.29 1041.91,525.07 1044.86,533.84 1047.80,542.62 1050.74,555.56 1053.70,571.62 1056.64,587.69 1059.58,603.75 1062.53,618.31 1065.47,629.12 1068.42,639.93 1071.37,650.74 1074.31,661.55" fill="none" stroke="#000000" stroke-width="3"/>
<line x1="142" y1="100" x2="178" y2="100" stroke="#000000" stroke-width="4"/>
<text x="188" y="105" font-family="Arial" font-size="18" fill="black">nut</text>
</svg>