<svg xmlns="http://www.w3.org/2000/svg" width="1200" height="820" viewBox="0 0 1200 820">
<rect width="100%" height="100%" fill="white"/>
<text x="600.0" y="36" text-anchor="middle" font-family="Arial" font-size="24" fill="black">profile_rack_height_x: alphat</text>
<line x1="120.00" y1="75" x2="120.00" y2="705" stroke="#dddddd" stroke-width="1"/>
<text x="120.00" y="737" text-anchor="middle" font-family="Arial" font-size="16" fill="black">-0.560</text>
<line x1="376.25" y1="75" x2="376.25" y2="705" stroke="#dddddd" stroke-width="1"/>
<text x="376.25" y="737" text-anchor="middle" font-family="Arial" font-size="16" fill="black">1.470</text>
<line x1="632.50" y1="75" x2="632.50" y2="705" stroke="#dddddd" stroke-width="1"/>
<text x="632.50" y="737" text-anchor="middle" font-family="Arial" font-size="16" fill="black">3.500</text>
<line x1="888.75" y1="75" x2="888.75" y2="705" stroke="#dddddd" stroke-width="1"/>
<text x="888.75" y="737" text-anchor="middle" font-family="Arial" font-size="16" fill="black">5.530</text>
<line x1="1145.00" y1="75" x2="1145.00" y2="705" stroke="#dddddd" stroke-width="1"/>
<text x="1145.00" y="737" text-anchor="middle" font-family="Arial" font-size="16" fill="black">7.560</text>
<line x1="120" y1="705.00" x2="1145" y2="705.00" stroke="#dddddd" stroke-width="1"/>
<text x="104" y="710.00" text-anchor="end" font-family="Arial" font-size="16" fill="black">-0.001</text>
<line x1="120" y1="547.50" x2="1145" y2="547.50" stroke="#dddddd" stroke-width="1"/>
<text x="104" y="552.50" text-anchor="end" font-family="Arial" font-size="16" fill="black">0.006</text>
<line x1="120" y1="390.00" x2="1145" y2="390.00" stroke="#dddddd" stroke-width="1"/>
<text x="104" y="395.00" text-anchor="end" font-family="Arial" font-size="16" fill="black">0.014</text>
<line x1="120" y1="232.50" x2="1145" y2="232.50" stroke="#dddddd" stroke-width="1"/>
<text x="104" y="237.50" text-anchor="end" font-family="Arial" font-size="16" fill="black">0.022</text>
<line x1="120" y1="75.00" x2="1145" y2="75.00" stroke="#dddddd" stroke-width="1"/>
<text x="104" y="80.00" text-anchor="end" font-family="Arial" font-size="16" fill="black">0.029</text>
<rect x="120" y="75" width="1025" height="630" fill="none" stroke="black" stroke-width="2"/>
<text x="632.5" y="785" text-anchor="middle" font-family="Arial" font-size="20" fill="black">x coordinate [m]</text>
<text x="34" y="390.0" transform="rotate(-90 34 390.0)" text-anchor="middle" font-family="Arial" font-size="20" fill="black">alphat [SI]</text>
<polyline points="190.69,651.16 193.64,637.42 196.58,623.68 199.53,609.94 202.47,596.20 205.42,575.01 208.36,550.84 211.31,526.67 214.25,502.50 217.20,481.46 220.14,464.58 223.09,447.72 226.03,430.85 228.98,414.80 231.93,403.66 234.87,392.55 237.82,381.42 240.76,370.28 243.71,361.27 246.65,352.62 249.60,343.96 252.54,335.32 255.49,327.27 258.43,319.70 261.38,312.12 264.32,304.55 267.27,297.18 270.22,290.29 273.16,283.37 276.11,276.48 279.05,269.59 282.00,263.60 284.94,257.63 287.89,251.64 290.83,245.67 293.78,240.79 296.72,236.37 299.67,231.92 302.62,227.50 305.56,223.92 308.51,221.51 311.45,219.08 314.40,216.65 317.34,214.49 320.29,213.81 323.23,213.14 326.17,212.46 329.13,211.78 332.07,211.74 335.01,211.80 337.96,211.88 340.91,211.96 343.85,211.94 346.80,211.88 349.74,211.82 352.68,211.76 355.64,211.63 358.58,211.30 361.52,211.00 364.47,210.69 367.41,210.36 370.35,210.23 373.31,210.09 376.25,209.95 379.19,209.82 382.15,210.05 385.09,210.42 388.03,210.81 390.98,211.18 393.92,211.78 396.86,212.64 399.82,213.53 402.76,214.41 405.70,215.32 408.65,216.47 411.59,217.60 414.54,218.75 417.49,219.91 420.43,221.04 423.37,222.17 426.33,223.30 429.27,224.43 432.21,225.42 435.16,226.29 438.10,227.15 441.04,228.01 444.00,228.73 446.94,229.13 449.88,229.54 452.83,229.93 455.78,230.32 458.72,230.15 461.67,229.97 464.61,229.80 467.55,229.64 470.51,229.06 473.45,228.32 476.39,227.60 479.34,226.86 482.28,225.92 485.23,224.66 488.18,223.43 491.12,222.17 494.06,220.87 497.02,219.19 499.96,217.52 502.90,215.83 505.85,214.16 508.79,212.23 511.73,210.25 514.69,208.26 517.63,206.28 520.57,204.20 523.52,202.06 526.47,199.90 529.41,197.76 532.36,195.60 535.30,193.38 538.24,191.18 541.20,188.95 544.14,186.75 547.08,184.55 550.03,182.35 552.97,180.17 555.92,177.96 558.87,175.82 561.81,173.68 564.75,171.54 567.71,169.40 570.65,167.30 573.59,165.27 576.54,163.21 579.48,161.15 582.42,159.09 585.38,157.14 588.32,155.18 591.26,153.23 594.21,151.27 597.16,149.44 600.10,147.63 603.05,145.82 605.99,144.01 608.93,142.34 611.89,140.74 614.83,139.15 617.77,137.57 620.72,136.06 623.66,134.77 626.60,133.47 629.56,132.15 632.50,130.86 635.44,129.89 638.40,128.90 641.34,127.91 644.28,126.93 647.23,126.15 650.17,125.42 653.11,124.73 656.07,124.00 659.01,123.37 661.95,122.83 664.90,122.30 667.84,121.76 670.79,121.25 673.74,120.84 676.68,120.42 679.62,120.01 682.58,119.60 685.52,119.33 688.46,119.07 691.41,118.82 694.35,118.55 697.29,118.45 700.25,118.49 703.19,118.51 706.13,118.53 709.08,118.67 712.03,119.17 714.97,119.64 717.92,120.14 720.86,120.61 723.80,121.72 726.76,122.83 729.70,123.96 732.64,125.07 735.59,126.74 738.53,128.61 741.48,130.51 744.43,132.38 747.37,134.60 750.31,137.32 753.27,140.02 756.21,142.71 759.15,145.51 762.10,148.97 765.04,152.40 767.98,155.86 770.94,159.32 773.88,163.25 776.82,167.28 779.77,171.30 782.72,175.33 785.66,179.55 788.61,183.93 791.55,188.32 794.49,192.70 797.45,197.12 800.39,201.65 803.33,206.20 806.28,210.73 809.22,215.26 812.17,219.78 815.12,224.31 818.06,228.84 821.00,233.37 823.96,237.77 826.90,242.15 829.84,246.54 832.79,250.90 835.73,255.16 838.67,259.25 841.63,263.35 844.57,267.45 847.51,271.48 850.46,275.16 853.41,278.83 856.35,282.51 859.30,286.19 862.24,289.40 865.18,292.55 868.14,295.70 871.08,298.85 874.02,301.65 876.97,304.20 879.91,306.73 882.85,309.28 885.81,311.65 888.75,313.54 891.69,315.46 894.65,317.37 897.59,319.26 900.53,320.64 903.48,322.02 906.42,323.42 909.36,324.80 912.32,325.97 915.26,327.09 918.20,328.20 921.15,329.31 924.09,330.44 927.04,331.63 929.99,332.81 932.93,334.00 935.87,335.26 938.83,336.90 941.77,338.53 944.71,340.17 947.66,341.82 950.60,344.17 953.54,346.64 956.50,349.11 959.44,351.60 962.38,354.72 965.33,358.35 968.28,361.97 971.22,365.59 974.17,369.60 977.11,374.58 980.05,379.58 983.01,384.58 985.95,389.59 988.89,396.03 991.84,402.49 994.78,408.95 997.73,415.39 1000.68,422.88 1003.62,430.77 1006.56,438.65 1009.52,446.53 1012.46,454.99 1015.40,464.21 1018.35,473.43 1021.29,482.66 1024.23,492.06 1027.19,502.52 1030.13,512.98 1033.07,523.44 1036.02,533.90 1038.97,545.32 1041.91,556.91 1044.86,568.49 1047.80,580.07 1050.74,591.87 1053.70,603.82 1056.64,615.78 1059.58,627.73 1062.53,637.95 1065.47,643.85 1068.42,649.75 1071.37,655.65 1074.31,661.55" fill="none" stroke="#000000" stroke-width="3"/>
<line x1="142" y1="100" x2="178" y2="100" stroke="#000000" stroke-width="4"/>
<text x="188" y="105" font-family="Arial" font-size="18" fill="black">alphat</text>
</svg>