<svg xmlns="http://www.w3.org/2000/svg" width="1200" height="820" viewBox="0 0 1200 820">
<rect width="100%" height="100%" fill="white"/>
<text x="600.0" y="36" text-anchor="middle" font-family="Arial" font-size="24" fill="black">profile_center_y: velocity magnitude</text>
<line x1="120.00" y1="75" x2="120.00" y2="705" stroke="#dddddd" stroke-width="1"/>
<text x="120.00" y="737" text-anchor="middle" font-family="Arial" font-size="16" fill="black">-0.400</text>
<line x1="376.25" y1="75" x2="376.25" y2="705" stroke="#dddddd" stroke-width="1"/>
<text x="376.25" y="737" text-anchor="middle" font-family="Arial" font-size="16" fill="black">1.050</text>
<line x1="632.50" y1="75" x2="632.50" y2="705" stroke="#dddddd" stroke-width="1"/>
<text x="632.50" y="737" text-anchor="middle" font-family="Arial" font-size="16" fill="black">2.500</text>
<line x1="888.75" y1="75" x2="888.75" y2="705" stroke="#dddddd" stroke-width="1"/>
<text x="888.75" y="737" text-anchor="middle" font-family="Arial" font-size="16" fill="black">3.950</text>
<line x1="1145.00" y1="75" x2="1145.00" y2="705" stroke="#dddddd" stroke-width="1"/>
<text x="1145.00" y="737" text-anchor="middle" font-family="Arial" font-size="16" fill="black">5.400</text>
<line x1="120" y1="705.00" x2="1145" y2="705.00" stroke="#dddddd" stroke-width="1"/>
<text x="104" y="710.00" text-anchor="end" font-family="Arial" font-size="16" fill="black">0.117</text>
<line x1="120" y1="547.50" x2="1145" y2="547.50" stroke="#dddddd" stroke-width="1"/>
<text x="104" y="552.50" text-anchor="end" font-family="Arial" font-size="16" fill="black">0.193</text>
<line x1="120" y1="390.00" x2="1145" y2="390.00" stroke="#dddddd" stroke-width="1"/>
<text x="104" y="395.00" text-anchor="end" font-family="Arial" font-size="16" fill="black">0.270</text>
<line x1="120" y1="232.50" x2="1145" y2="232.50" stroke="#dddddd" stroke-width="1"/>
<text x="104" y="237.50" text-anchor="end" font-family="Arial" font-size="16" fill="black">0.346</text>
<line x1="120" y1="75.00" x2="1145" y2="75.00" stroke="#dddddd" stroke-width="1"/>
<text x="104" y="80.00" text-anchor="end" font-family="Arial" font-size="16" fill="black">0.423</text>
<rect x="120" y="75" width="1025" height="630" fill="none" stroke="black" stroke-width="2"/>
<text x="632.5" y="785" text-anchor="middle" font-family="Arial" font-size="20" fill="black">y coordinate [m]</text>
<text x="34" y="390.0" transform="rotate(-90 34 390.0)" text-anchor="middle" font-family="Arial" font-size="20" fill="black">|U| [m/s]</text>
<polyline points="190.69,523.76 193.64,536.40 196.58,549.03 199.53,561.67 202.47,574.30 205.42,586.94 208.36,599.57 211.31,609.00 214.25,618.44 217.20,627.87 220.14,637.31 223.09,646.74 226.03,656.18 228.98,651.20 231.92,646.22 234.87,641.26 237.82,636.28 240.76,631.30 243.71,626.32 246.65,618.59 249.60,610.85 252.54,603.09 255.49,595.35 258.43,587.62 261.38,579.88 264.33,574.06 267.27,568.25 270.22,562.43 273.16,556.61 276.11,550.80 279.05,544.98 282.00,539.73 284.94,534.49 287.89,529.24 290.83,523.99 293.78,518.72 296.72,513.48 299.67,507.80 302.61,502.14 305.56,496.46 308.51,490.78 311.45,485.10 314.40,479.44 317.34,473.25 320.29,467.05 323.23,460.86 326.18,454.66 329.12,448.47 332.07,442.26 335.01,435.03 337.96,427.79 340.91,420.57 343.85,413.32 346.80,406.10 349.74,398.86 352.69,389.83 355.63,380.77 358.58,371.74 361.52,362.70 364.47,353.65 367.41,344.62 370.37,335.54 373.30,326.47 376.25,317.39 379.20,308.32 382.13,299.24 385.09,290.17 388.04,283.67 390.97,277.16 393.92,270.64 396.87,264.14 399.81,257.61 402.76,251.11 405.71,247.53 408.64,243.95 411.59,240.39 414.55,236.81 417.48,233.23 420.43,229.67 423.38,228.60 426.32,227.55 429.27,226.50 432.22,225.43 435.15,224.38 438.10,223.33 441.05,224.34 443.99,225.33 446.94,226.34 449.89,227.34 452.82,228.35 455.78,229.36 458.73,232.39 461.66,235.41 464.61,238.44 467.56,241.46 470.50,244.47 473.45,247.49 476.40,253.13 479.33,258.75 482.28,264.38 485.24,270.02 488.17,275.64 491.12,281.28 494.07,290.64 497.01,300.02 499.96,309.39 502.91,318.77 505.84,328.13 508.79,337.52 511.74,351.53 514.68,365.54 517.63,379.56 520.58,393.57 523.51,407.58 526.47,421.60 529.42,439.17 532.35,456.74 535.30,474.34 538.25,491.91 541.19,509.48 544.14,527.06 547.09,542.72 550.02,558.36 552.97,573.99 555.93,589.65 558.86,605.29 561.81,620.93 564.76,627.70 567.70,634.47 570.65,641.24 573.60,648.01 576.53,654.78 579.48,661.55 582.43,658.47 585.37,655.36 588.32,652.27 591.27,649.16 594.20,646.08 597.16,642.97 600.11,635.52 603.04,628.09 605.99,620.64 608.94,613.22 611.88,605.77 614.83,598.34 617.78,591.65 620.71,584.96 623.66,578.29 626.62,571.61 629.55,564.92 632.50,558.23 635.45,554.53 638.38,550.80 641.34,547.10 644.29,543.37 647.22,539.67 650.17,535.95 653.12,535.18 656.06,534.42 659.01,533.64 661.96,532.88 664.89,532.12 667.84,531.34 670.80,531.75 673.73,532.16 676.68,532.57 679.63,532.98 682.57,533.39 685.52,533.81 688.47,532.41 691.40,531.01 694.35,529.61 697.30,528.21 700.24,526.81 703.19,525.41 706.14,519.61 709.07,513.78 712.03,507.98 714.98,502.16 717.91,496.36 720.86,490.53 723.81,480.98 726.75,471.42 729.70,461.87 732.65,452.30 735.58,442.75 738.53,433.18 741.49,422.83 744.42,412.50 747.37,402.15 750.32,391.80 753.26,381.47 756.21,371.12 759.16,361.35 762.09,351.57 765.04,341.78 767.99,332.00 770.93,322.23 773.88,312.45 776.83,303.30 779.76,294.14 782.72,284.96 785.67,275.80 788.60,266.65 791.55,257.47 794.50,248.83 797.44,240.16 800.39,231.50 803.34,222.86 806.27,214.20 809.22,205.53 812.18,197.90 815.11,190.28 818.06,182.65 821.01,175.04 823.95,167.40 826.90,159.77 829.85,154.40 832.78,149.03 835.73,143.68 838.68,138.31 841.62,132.93 844.57,127.56 847.52,126.04 850.45,124.52 853.41,123.02 856.36,121.49 859.29,119.97 862.24,118.45 865.19,122.60 868.13,126.76 871.08,130.90 874.03,135.05 876.96,139.21 879.91,143.35 882.87,154.36 885.80,165.34 888.75,176.35 891.70,187.34 894.63,198.33 897.59,209.34 900.54,224.30 903.47,239.28 906.42,254.26 909.37,269.22 912.31,284.20 915.26,299.18 918.21,313.85 921.14,328.52 924.09,343.20 927.05,357.87 929.98,372.54 932.93,387.21 935.88,400.03 938.82,412.85 941.77,425.67 944.72,438.47 947.65,451.29 950.60,464.11 953.55,474.44 956.49,484.77 959.44,495.12 962.39,505.45 965.32,515.78 968.28,526.13 971.23,533.44 974.16,540.74 977.11,548.05 980.06,555.37 983.00,562.68 985.95,569.98 988.90,573.58 991.83,577.18 994.78,580.78 997.74,584.37 1000.67,587.97 1003.62,591.57 1006.57,590.91 1009.51,590.27 1012.46,589.63 1015.41,588.97 1018.34,588.34 1021.29,587.70 1024.24,583.19 1027.18,578.71 1030.13,574.20 1033.08,569.71 1036.01,565.23 1038.97,560.72 1041.92,554.20 1044.85,547.68 1047.80,541.15 1050.75,534.63 1053.69,528.11 1056.64,521.60 1059.59,518.15 1062.52,514.69 1065.47,511.25 1068.43,507.80 1071.36,504.36 1074.31,500.90" fill="none" stroke="#000000" stroke-width="3"/>
<line x1="142" y1="100" x2="178" y2="100" stroke="#000000" stroke-width="4"/>
<text x="188" y="105" font-family="Arial" font-size="18" fill="black">|U|</text>
</svg>