<svg xmlns="http://www.w3.org/2000/svg" width="1200" height="820" viewBox="0 0 1200 820">
<rect width="100%" height="100%" fill="white"/>
<text x="600.0" y="36" text-anchor="middle" font-family="Arial" font-size="24" fill="black">profile_center_z: rho</text>
<line x1="120.00" y1="75" x2="120.00" y2="705" stroke="#dddddd" stroke-width="1"/>
<text x="120.00" y="737" text-anchor="middle" font-family="Arial" font-size="16" fill="black">-0.240</text>
<line x1="376.25" y1="75" x2="376.25" y2="705" stroke="#dddddd" stroke-width="1"/>
<text x="376.25" y="737" text-anchor="middle" font-family="Arial" font-size="16" fill="black">0.630</text>
<line x1="632.50" y1="75" x2="632.50" y2="705" stroke="#dddddd" stroke-width="1"/>
<text x="632.50" y="737" text-anchor="middle" font-family="Arial" font-size="16" fill="black">1.500</text>
<line x1="888.75" y1="75" x2="888.75" y2="705" stroke="#dddddd" stroke-width="1"/>
<text x="888.75" y="737" text-anchor="middle" font-family="Arial" font-size="16" fill="black">2.370</text>
<line x1="1145.00" y1="75" x2="1145.00" y2="705" stroke="#dddddd" stroke-width="1"/>
<text x="1145.00" y="737" text-anchor="middle" font-family="Arial" font-size="16" fill="black">3.240</text>
<line x1="120" y1="705.00" x2="1145" y2="705.00" stroke="#dddddd" stroke-width="1"/>
<text x="104" y="710.00" text-anchor="end" font-family="Arial" font-size="16" fill="black">1.103</text>
<line x1="120" y1="547.50" x2="1145" y2="547.50" stroke="#dddddd" stroke-width="1"/>
<text x="104" y="552.50" text-anchor="end" font-family="Arial" font-size="16" fill="black">1.138</text>
<line x1="120" y1="390.00" x2="1145" y2="390.00" stroke="#dddddd" stroke-width="1"/>
<text x="104" y="395.00" text-anchor="end" font-family="Arial" font-size="16" fill="black">1.172</text>
<line x1="120" y1="232.50" x2="1145" y2="232.50" stroke="#dddddd" stroke-width="1"/>
<text x="104" y="237.50" text-anchor="end" font-family="Arial" font-size="16" fill="black">1.207</text>
<line x1="120" y1="75.00" x2="1145" y2="75.00" stroke="#dddddd" stroke-width="1"/>
<text x="104" y="80.00" text-anchor="end" font-family="Arial" font-size="16" fill="black">1.242</text>
<rect x="120" y="75" width="1025" height="630" fill="none" stroke="black" stroke-width="2"/>
<text x="632.5" y="785" text-anchor="middle" font-family="Arial" font-size="20" fill="black">z coordinate [m]</text>
<text x="34" y="390.0" transform="rotate(-90 34 390.0)" text-anchor="middle" font-family="Arial" font-size="20" fill="black">rho [kg/m3]</text>
<polyline points="190.69,118.45 193.64,118.45 196.58,118.45 199.53,118.45 202.47,118.45 205.42,118.45 208.36,118.45 211.31,118.45 214.25,118.45 217.20,118.45 220.14,118.45 223.09,118.45 226.03,118.45 228.98,118.45 231.93,118.45 234.87,118.45 237.82,118.45 240.76,118.45 243.71,118.45 246.65,118.45 249.60,118.45 252.54,118.45 255.49,118.45 258.43,118.45 261.38,118.45 264.32,118.45 267.27,118.45 270.22,118.45 273.16,118.45 276.11,118.45 279.05,118.45 282.00,118.45 284.94,118.45 287.89,118.45 290.83,118.45 293.78,118.45 296.72,118.45 299.67,118.45 302.61,118.45 305.56,118.45 308.51,118.45 311.45,118.90 314.40,119.35 317.34,119.80 320.29,119.80 323.23,120.26 326.18,120.71 329.12,121.16 332.07,121.16 335.01,121.61 337.96,122.07 340.91,125.23 343.85,128.40 346.80,131.11 349.74,134.28 352.69,137.44 355.63,140.61 358.58,143.77 361.52,146.49 364.47,149.65 367.41,152.82 370.36,162.31 373.30,172.26 376.25,181.76 379.20,191.25 382.14,201.20 385.09,210.70 388.03,220.65 390.98,230.14 393.92,239.64 396.87,249.59 399.81,262.70 402.76,275.82 405.70,288.93 408.65,302.05 411.59,315.16 414.54,328.27 417.49,341.39 420.43,354.50 423.38,368.07 426.32,381.18 429.27,391.58 432.21,401.98 435.16,412.38 438.10,423.24 441.05,433.64 443.99,444.04 446.94,454.89 449.89,465.29 452.83,475.69 455.78,486.09 458.72,493.33 461.67,500.11 464.61,506.90 467.56,513.68 470.50,520.46 473.45,527.25 476.39,534.03 479.34,540.81 482.28,547.59 485.23,554.38 488.18,558.45 491.12,562.52 494.07,566.59 497.01,570.66 499.96,574.73 502.90,578.80 505.85,582.42 508.79,586.48 511.74,590.55 514.68,594.62 517.63,596.89 520.57,599.15 523.52,601.86 526.47,604.12 529.41,606.38 532.36,608.64 535.30,611.36 538.25,613.62 541.19,615.88 544.14,618.14 547.08,619.95 550.03,621.31 552.97,622.66 555.92,624.02 558.86,625.83 561.81,627.18 564.76,628.54 567.70,630.35 570.65,631.71 573.59,633.06 576.54,634.42 579.48,635.32 582.43,636.23 585.37,637.13 588.32,638.04 591.26,639.39 594.21,640.30 597.16,641.20 600.10,642.11 603.05,643.46 605.99,643.92 608.94,644.82 611.88,645.27 614.83,646.18 617.77,646.63 620.72,647.53 623.66,647.99 626.61,648.89 629.55,649.34 632.50,650.25 635.45,650.70 638.39,651.15 641.34,651.60 644.28,652.06 647.23,652.51 650.17,652.96 653.12,653.41 656.06,653.86 659.01,654.32 661.95,654.77 664.90,655.22 667.84,655.67 670.79,656.13 673.74,656.13 676.68,656.58 679.63,657.03 682.57,657.48 685.52,657.48 688.46,657.93 691.41,658.39 694.35,658.39 697.30,658.84 700.24,658.84 703.19,658.84 706.14,659.29 709.08,659.29 712.03,659.74 714.97,659.74 717.92,660.20 720.86,660.20 723.81,660.20 726.75,660.65 729.70,660.65 732.64,660.65 735.59,660.65 738.53,661.10 741.48,661.10 744.43,661.10 747.37,661.10 750.32,661.10 753.26,661.10 756.21,661.55 759.15,661.55 762.10,661.55 765.04,661.55 767.99,661.55 770.93,661.55 773.88,661.55 776.82,661.55 779.77,661.55 782.72,661.55 785.66,661.55 788.61,661.55 791.55,661.10 794.50,661.10 797.44,661.10 800.39,661.10 803.33,661.10 806.28,661.10 809.22,661.10 812.17,661.10 815.11,660.65 818.06,660.65 821.01,660.65 823.95,660.65 826.90,660.20 829.84,660.20 832.79,660.20 835.73,660.20 838.68,659.74 841.62,659.74 844.57,659.74 847.51,659.29 850.46,659.29 853.41,658.84 856.35,658.84 859.30,658.84 862.24,658.39 865.19,658.39 868.13,657.93 871.08,657.93 874.02,657.48 876.97,657.48 879.91,657.03 882.86,657.03 885.80,656.58 888.75,656.58 891.70,656.13 894.64,656.13 897.59,655.67 900.53,655.67 903.48,655.22 906.42,654.77 909.37,654.32 912.31,654.32 915.26,653.86 918.20,653.41 921.15,653.41 924.09,652.96 927.04,652.51 929.99,652.06 932.93,652.06 935.88,651.60 938.82,651.15 941.77,650.70 944.71,650.25 947.66,649.79 950.60,649.79 953.55,649.34 956.49,648.89 959.44,648.44 962.39,647.99 965.33,647.53 968.28,647.08 971.22,646.63 974.17,646.18 977.11,645.72 980.06,645.27 983.00,644.82 985.95,644.37 988.89,643.92 991.84,643.01 994.78,642.56 997.73,642.11 1000.68,641.65 1003.62,641.20 1006.57,640.75 1009.51,640.30 1012.46,639.85 1015.40,638.94 1018.35,638.49 1021.29,638.04 1024.24,637.58 1027.18,637.13 1030.13,636.23 1033.07,635.78 1036.02,635.32 1038.97,634.87 1041.91,634.42 1044.86,633.51 1047.80,633.51 1050.75,633.06 1053.69,633.06 1056.64,632.61 1059.58,632.16 1062.53,632.16 1065.47,631.71 1068.42,631.71 1071.36,631.25 1074.31,630.80" fill="none" stroke="#000000" stroke-width="3"/>
<line x1="142" y1="100" x2="178" y2="100" stroke="#000000" stroke-width="4"/>
<text x="188" y="105" font-family="Arial" font-size="18" fill="black">rho</text>
</svg>