<svg xmlns="http://www.w3.org/2000/svg" width="1200" height="820" viewBox="0 0 1200 820">
<rect width="100%" height="100%" fill="white"/>
<text x="600.0" y="36" text-anchor="middle" font-family="Arial" font-size="24" fill="black">profile_near_ceiling_x: vorticity:1</text>
<line x1="120.00" y1="75" x2="120.00" y2="705" stroke="#dddddd" stroke-width="1"/>
<text x="120.00" y="737" text-anchor="middle" font-family="Arial" font-size="16" fill="black">-0.560</text>
<line x1="376.25" y1="75" x2="376.25" y2="705" stroke="#dddddd" stroke-width="1"/>
<text x="376.25" y="737" text-anchor="middle" font-family="Arial" font-size="16" fill="black">1.470</text>
<line x1="632.50" y1="75" x2="632.50" y2="705" stroke="#dddddd" stroke-width="1"/>
<text x="632.50" y="737" text-anchor="middle" font-family="Arial" font-size="16" fill="black">3.500</text>
<line x1="888.75" y1="75" x2="888.75" y2="705" stroke="#dddddd" stroke-width="1"/>
<text x="888.75" y="737" text-anchor="middle" font-family="Arial" font-size="16" fill="black">5.530</text>
<line x1="1145.00" y1="75" x2="1145.00" y2="705" stroke="#dddddd" stroke-width="1"/>
<text x="1145.00" y="737" text-anchor="middle" font-family="Arial" font-size="16" fill="black">7.560</text>
<line x1="120" y1="705.00" x2="1145" y2="705.00" stroke="#dddddd" stroke-width="1"/>
<text x="104" y="710.00" text-anchor="end" font-family="Arial" font-size="16" fill="black">-1.224</text>
<line x1="120" y1="547.50" x2="1145" y2="547.50" stroke="#dddddd" stroke-width="1"/>
<text x="104" y="552.50" text-anchor="end" font-family="Arial" font-size="16" fill="black">-0.541</text>
<line x1="120" y1="390.00" x2="1145" y2="390.00" stroke="#dddddd" stroke-width="1"/>
<text x="104" y="395.00" text-anchor="end" font-family="Arial" font-size="16" fill="black">0.142</text>
<line x1="120" y1="232.50" x2="1145" y2="232.50" stroke="#dddddd" stroke-width="1"/>
<text x="104" y="237.50" text-anchor="end" font-family="Arial" font-size="16" fill="black">0.825</text>
<line x1="120" y1="75.00" x2="1145" y2="75.00" stroke="#dddddd" stroke-width="1"/>
<text x="104" y="80.00" text-anchor="end" font-family="Arial" font-size="16" fill="black">1.508</text>
<rect x="120" y="75" width="1025" height="630" fill="none" stroke="black" stroke-width="2"/>
<text x="632.5" y="785" text-anchor="middle" font-family="Arial" font-size="20" fill="black">x coordinate [m]</text>
<text x="34" y="390.0" transform="rotate(-90 34 390.0)" text-anchor="middle" font-family="Arial" font-size="20" fill="black">vorticity:1 [SI]</text>
<polyline points="190.69,118.45 193.64,148.93 196.58,179.41 199.53,209.87 202.47,240.34 205.42,268.30 208.36,295.27 211.31,322.23 214.25,349.19 217.20,361.31 220.14,353.64 223.09,345.97 226.03,338.30 228.98,330.62 231.93,322.90 234.87,315.17 237.82,307.44 240.76,299.72 243.71,293.48 246.65,287.50 249.60,281.52 252.54,275.53 255.49,270.82 258.43,267.06 261.38,263.30 264.32,259.54 267.27,256.36 270.22,254.64 273.16,252.92 276.11,251.20 279.05,249.48 282.00,249.56 284.94,249.64 287.89,249.72 290.83,249.80 293.78,251.00 296.72,252.64 299.67,254.29 302.62,255.94 305.56,258.17 308.51,261.18 311.45,264.18 314.40,267.19 317.34,270.36 320.29,274.50 323.23,278.64 326.17,282.78 329.13,286.92 332.07,291.78 335.01,296.76 337.96,301.75 340.91,306.73 343.85,312.00 346.80,317.48 349.74,322.96 352.68,328.44 355.64,333.97 358.58,339.63 361.52,345.29 364.47,350.95 367.41,356.60 370.35,361.94 373.31,367.28 376.25,372.62 379.19,377.95 382.15,382.11 385.09,385.80 388.03,389.49 390.98,393.18 393.92,396.33 396.86,398.77 399.82,401.20 402.76,403.63 405.70,406.18 408.65,409.42 411.59,412.67 414.54,415.91 417.49,419.15 420.43,422.94 423.37,426.82 426.33,430.71 429.27,434.59 432.21,438.20 435.16,441.60 438.10,445.00 441.04,448.40 444.00,451.63 446.94,454.41 449.88,457.19 452.83,459.97 455.78,462.76 458.72,464.97 461.67,467.19 464.61,469.40 467.55,471.62 470.51,473.39 473.45,475.00 476.39,476.60 479.34,478.21 482.28,479.54 485.23,480.52 488.18,481.50 491.12,482.47 494.06,483.36 497.02,483.70 499.96,484.04 502.90,484.38 505.85,484.72 508.79,484.51 511.73,484.22 514.69,483.93 517.63,483.63 520.57,483.01 523.52,482.15 526.47,481.28 529.41,480.42 532.36,479.43 535.30,478.13 538.24,476.83 541.20,475.53 544.14,474.23 547.08,472.80 550.03,471.37 552.97,469.93 555.92,468.50 558.87,467.40 561.81,466.43 564.75,465.46 567.71,464.49 570.65,464.19 573.59,464.76 576.54,465.34 579.48,465.92 582.42,466.99 585.38,471.01 588.32,475.03 591.26,479.04 594.21,483.06 597.16,491.13 600.10,499.87 603.05,508.61 605.99,517.35 608.93,527.16 611.89,537.78 614.83,548.40 617.77,559.02 620.72,568.82 623.66,576.57 626.60,584.32 629.56,592.07 632.50,599.81 635.44,603.50 638.40,607.18 641.34,610.87 644.28,614.55 647.23,616.51 650.17,617.77 653.11,619.04 656.07,620.30 659.01,621.20 661.95,621.59 664.90,622.00 667.84,622.39 670.79,622.78 673.74,623.08 676.68,623.39 679.62,623.69 682.58,623.99 685.52,624.44 688.46,624.91 691.41,625.39 694.35,625.86 697.29,626.45 700.25,627.13 703.19,627.81 706.13,628.48 709.08,629.20 712.03,630.01 714.97,630.82 717.92,631.63 720.86,632.44 723.80,633.30 726.76,634.16 729.70,635.02 732.64,635.88 735.59,636.72 738.53,637.54 741.48,638.36 744.43,639.18 747.37,639.96 750.31,640.68 753.27,641.39 756.21,642.11 759.15,642.80 762.10,643.37 765.04,643.94 767.98,644.50 770.94,645.07 773.88,645.49 776.82,645.90 779.77,646.30 782.72,646.70 785.66,647.00 788.61,647.23 791.55,647.46 794.49,647.70 797.45,647.89 800.39,647.98 803.33,648.06 806.28,648.15 809.22,648.24 812.17,648.24 815.12,648.24 818.06,648.24 821.00,648.23 823.96,648.21 826.90,648.19 829.84,648.16 832.79,648.13 835.73,648.12 838.67,648.14 841.63,648.15 844.57,648.16 847.51,648.20 850.46,648.35 853.41,648.50 856.35,648.65 859.30,648.80 862.24,649.17 865.18,649.58 868.14,649.98 871.08,650.39 874.02,650.97 876.97,651.68 879.91,652.39 882.85,653.09 885.81,653.85 888.75,654.75 891.69,655.65 894.65,656.55 897.59,657.45 900.53,658.23 903.48,659.02 906.42,659.80 909.36,660.58 912.32,660.95 915.26,661.16 918.20,661.34 921.15,661.55 924.09,661.32 927.04,660.54 929.99,659.73 932.93,658.92 935.87,657.95 938.83,655.93 941.77,653.87 944.71,651.85 947.66,649.82 950.60,646.72 953.54,643.44 956.50,640.17 959.44,636.89 962.38,632.98 965.33,628.59 968.28,624.20 971.22,619.81 974.17,615.14 977.11,609.77 980.05,604.40 983.01,599.03 985.95,593.66 988.89,587.45 991.84,581.24 994.78,575.04 997.73,568.83 1000.68,562.18 1003.62,555.35 1006.56,548.52 1009.52,541.70 1012.46,534.77 1015.40,527.72 1018.35,520.66 1021.29,513.61 1024.23,506.65 1027.19,500.29 1030.13,493.92 1033.07,487.56 1036.02,481.20 1038.97,477.00 1041.91,473.15 1044.86,469.31 1047.80,465.46 1050.74,471.48 1053.70,484.89 1056.64,498.31 1059.58,511.72 1062.53,525.42 1065.47,539.83 1068.42,554.25 1071.37,568.67 1074.31,583.08" fill="none" stroke="#000000" stroke-width="3"/>
<line x1="142" y1="100" x2="178" y2="100" stroke="#000000" stroke-width="4"/>
<text x="188" y="105" font-family="Arial" font-size="18" fill="black">vorticity:1</text>
</svg>