<svg xmlns="http://www.w3.org/2000/svg" width="1200" height="820" viewBox="0 0 1200 820">
<rect width="100%" height="100%" fill="white"/>
<text x="600.0" y="36" text-anchor="middle" font-family="Arial" font-size="24" fill="black">profile_near_ceiling_x: U:0</text>
<line x1="120.00" y1="75" x2="120.00" y2="705" stroke="#dddddd" stroke-width="1"/>
<text x="120.00" y="737" text-anchor="middle" font-family="Arial" font-size="16" fill="black">-0.560</text>
<line x1="376.25" y1="75" x2="376.25" y2="705" stroke="#dddddd" stroke-width="1"/>
<text x="376.25" y="737" text-anchor="middle" font-family="Arial" font-size="16" fill="black">1.470</text>
<line x1="632.50" y1="75" x2="632.50" y2="705" stroke="#dddddd" stroke-width="1"/>
<text x="632.50" y="737" text-anchor="middle" font-family="Arial" font-size="16" fill="black">3.500</text>
<line x1="888.75" y1="75" x2="888.75" y2="705" stroke="#dddddd" stroke-width="1"/>
<text x="888.75" y="737" text-anchor="middle" font-family="Arial" font-size="16" fill="black">5.530</text>
<line x1="1145.00" y1="75" x2="1145.00" y2="705" stroke="#dddddd" stroke-width="1"/>
<text x="1145.00" y="737" text-anchor="middle" font-family="Arial" font-size="16" fill="black">7.560</text>
<line x1="120" y1="705.00" x2="1145" y2="705.00" stroke="#dddddd" stroke-width="1"/>
<text x="104" y="710.00" text-anchor="end" font-family="Arial" font-size="16" fill="black">-0.426</text>
<line x1="120" y1="547.50" x2="1145" y2="547.50" stroke="#dddddd" stroke-width="1"/>
<text x="104" y="552.50" text-anchor="end" font-family="Arial" font-size="16" fill="black">-0.207</text>
<line x1="120" y1="390.00" x2="1145" y2="390.00" stroke="#dddddd" stroke-width="1"/>
<text x="104" y="395.00" text-anchor="end" font-family="Arial" font-size="16" fill="black">0.011</text>
<line x1="120" y1="232.50" x2="1145" y2="232.50" stroke="#dddddd" stroke-width="1"/>
<text x="104" y="237.50" text-anchor="end" font-family="Arial" font-size="16" fill="black">0.230</text>
<line x1="120" y1="75.00" x2="1145" y2="75.00" stroke="#dddddd" stroke-width="1"/>
<text x="104" y="80.00" text-anchor="end" font-family="Arial" font-size="16" fill="black">0.449</text>
<rect x="120" y="75" width="1025" height="630" fill="none" stroke="black" stroke-width="2"/>
<text x="632.5" y="785" text-anchor="middle" font-family="Arial" font-size="20" fill="black">x coordinate [m]</text>
<text x="34" y="390.0" transform="rotate(-90 34 390.0)" text-anchor="middle" font-family="Arial" font-size="20" fill="black">U:0 [SI]</text>
<polyline points="190.69,439.98 193.64,445.41 196.58,450.83 199.53,456.26 202.47,461.68 205.42,471.84 208.36,483.90 211.31,495.95 214.25,508.00 217.20,519.92 220.14,531.64 223.09,543.35 226.03,555.08 228.98,566.43 231.93,575.52 234.87,584.63 237.82,593.73 240.76,602.83 243.71,609.97 246.65,616.78 249.60,623.59 252.54,630.40 255.49,635.85 258.43,640.29 261.38,644.72 264.32,649.16 267.27,652.94 270.22,655.09 273.16,657.24 276.11,659.40 279.05,661.55 282.00,661.53 284.94,661.52 287.89,661.49 290.83,661.48 293.78,660.01 296.72,657.97 299.67,655.93 302.62,653.89 305.56,651.05 308.51,647.16 311.45,643.27 314.40,639.37 317.34,635.24 320.29,629.70 323.23,624.15 326.17,618.61 329.13,613.06 332.07,606.30 335.01,599.34 337.96,592.38 340.91,585.43 343.85,577.82 346.80,569.72 349.74,561.62 352.68,553.53 355.64,545.20 358.58,536.26 361.52,527.32 364.47,518.39 367.41,509.46 370.35,500.07 373.31,490.68 376.25,481.30 379.19,471.91 382.15,462.45 385.09,452.96 388.03,443.48 390.98,433.99 393.92,424.53 396.86,415.12 399.82,405.70 402.76,396.29 405.70,386.99 408.65,378.38 411.59,369.78 414.54,361.17 417.49,352.56 420.43,345.00 423.37,337.62 426.33,330.24 429.27,322.85 432.21,316.10 435.16,309.83 438.10,303.55 441.04,297.28 444.00,291.37 446.94,286.36 449.88,281.35 452.83,276.33 455.78,271.32 458.72,267.53 461.67,263.73 464.61,259.93 467.55,256.14 470.51,253.17 473.45,250.52 476.39,247.88 479.34,245.23 482.28,243.05 485.23,241.48 488.18,239.92 491.12,238.35 494.06,236.93 497.02,236.35 499.96,235.77 502.90,235.19 505.85,234.61 508.79,234.79 511.73,235.09 514.69,235.39 517.63,235.70 520.57,236.44 523.52,237.52 526.47,238.59 529.41,239.66 532.36,240.93 535.30,242.66 538.24,244.38 541.20,246.10 544.14,247.83 547.08,250.06 550.03,252.29 552.97,254.53 555.92,256.77 558.87,259.21 561.81,261.73 564.75,264.26 567.71,266.79 570.65,269.30 573.59,271.81 576.54,274.31 579.48,276.83 582.42,279.25 585.38,281.20 588.32,283.15 591.26,285.10 594.21,287.05 597.16,288.01 600.10,288.81 603.05,289.61 605.99,290.41 608.93,290.22 611.89,289.27 614.83,288.32 617.77,287.38 620.72,285.92 623.66,283.17 626.60,280.42 629.56,277.67 632.50,274.91 635.44,271.10 638.40,267.29 641.34,263.48 644.28,259.67 647.23,255.58 650.17,251.37 653.11,247.16 656.07,242.95 659.01,238.71 661.95,234.43 664.90,230.15 667.84,225.87 670.79,221.60 673.74,217.43 676.68,213.26 679.62,209.09 682.58,204.92 685.52,200.95 688.46,197.01 691.41,193.08 694.35,189.14 697.29,185.40 700.25,181.79 703.19,178.19 706.13,174.58 709.08,171.09 712.03,167.88 714.97,164.67 717.92,161.47 720.86,158.26 723.80,155.50 726.76,152.73 729.70,149.97 732.64,147.21 735.59,144.79 738.53,142.51 741.48,140.22 744.43,137.94 747.37,135.87 750.31,134.08 753.27,132.28 756.21,130.49 759.15,128.77 762.10,127.48 765.04,126.18 767.98,124.88 770.94,123.59 773.88,122.71 776.82,121.90 779.77,121.09 782.72,120.28 785.66,119.73 788.61,119.38 791.55,119.02 794.49,118.68 797.45,118.45 800.39,118.52 803.33,118.59 806.28,118.66 809.22,118.74 812.17,119.18 815.12,119.62 818.06,120.07 821.00,120.51 823.96,121.18 826.90,121.94 829.84,122.70 832.79,123.45 835.73,124.31 838.67,125.31 841.63,126.30 844.57,127.30 847.51,128.32 850.46,129.48 853.41,130.64 856.35,131.80 859.30,132.96 862.24,134.18 865.18,135.43 868.14,136.67 871.08,137.91 874.02,139.16 876.97,140.41 879.91,141.66 882.85,142.91 885.81,144.15 888.75,145.36 891.69,146.57 894.65,147.77 897.59,148.98 900.53,150.12 903.48,151.27 906.42,152.40 909.36,153.55 912.32,154.67 915.26,155.78 918.20,156.89 921.15,158.00 924.09,159.12 927.04,160.28 929.99,161.43 932.93,162.59 935.87,163.77 938.83,165.10 941.77,166.43 944.71,167.76 947.66,169.10 950.60,170.73 953.54,172.41 956.50,174.10 959.44,175.78 962.38,177.77 965.33,179.99 968.28,182.22 971.22,184.44 974.17,186.88 977.11,189.83 980.05,192.79 983.01,195.74 985.95,198.70 988.89,202.55 991.84,206.42 994.78,210.29 997.73,214.14 1000.68,218.76 1003.62,223.68 1006.56,228.60 1009.52,233.51 1012.46,238.93 1015.40,244.99 1018.35,251.06 1021.29,257.13 1024.23,263.34 1027.19,270.51 1030.13,277.66 1033.07,284.82 1036.02,291.99 1038.97,300.04 1041.91,308.26 1044.86,316.47 1047.80,324.68 1050.74,332.62 1053.70,340.36 1056.64,348.09 1059.58,355.83 1062.53,362.32 1065.47,365.67 1068.42,369.03 1071.37,372.39 1074.31,375.74" fill="none" stroke="#000000" stroke-width="3"/>
<line x1="142" y1="100" x2="178" y2="100" stroke="#000000" stroke-width="4"/>
<text x="188" y="105" font-family="Arial" font-size="18" fill="black">U:0</text>
</svg>