<svg xmlns="http://www.w3.org/2000/svg" width="1200" height="820" viewBox="0 0 1200 820">
<rect width="100%" height="100%" fill="white"/>
<text x="600.0" y="36" text-anchor="middle" font-family="Arial" font-size="24" fill="black">profile_near_floor_x: epsilon</text>
<line x1="120.00" y1="75" x2="120.00" y2="705" stroke="#dddddd" stroke-width="1"/>
<text x="120.00" y="737" text-anchor="middle" font-family="Arial" font-size="16" fill="black">-0.560</text>
<line x1="376.25" y1="75" x2="376.25" y2="705" stroke="#dddddd" stroke-width="1"/>
<text x="376.25" y="737" text-anchor="middle" font-family="Arial" font-size="16" fill="black">1.470</text>
<line x1="632.50" y1="75" x2="632.50" y2="705" stroke="#dddddd" stroke-width="1"/>
<text x="632.50" y="737" text-anchor="middle" font-family="Arial" font-size="16" fill="black">3.500</text>
<line x1="888.75" y1="75" x2="888.75" y2="705" stroke="#dddddd" stroke-width="1"/>
<text x="888.75" y="737" text-anchor="middle" font-family="Arial" font-size="16" fill="black">5.530</text>
<line x1="1145.00" y1="75" x2="1145.00" y2="705" stroke="#dddddd" stroke-width="1"/>
<text x="1145.00" y="737" text-anchor="middle" font-family="Arial" font-size="16" fill="black">7.560</text>
<line x1="120" y1="705.00" x2="1145" y2="705.00" stroke="#dddddd" stroke-width="1"/>
<text x="104" y="710.00" text-anchor="end" font-family="Arial" font-size="16" fill="black">0.002</text>
<line x1="120" y1="547.50" x2="1145" y2="547.50" stroke="#dddddd" stroke-width="1"/>
<text x="104" y="552.50" text-anchor="end" font-family="Arial" font-size="16" fill="black">0.005</text>
<line x1="120" y1="390.00" x2="1145" y2="390.00" stroke="#dddddd" stroke-width="1"/>
<text x="104" y="395.00" text-anchor="end" font-family="Arial" font-size="16" fill="black">0.009</text>
<line x1="120" y1="232.50" x2="1145" y2="232.50" stroke="#dddddd" stroke-width="1"/>
<text x="104" y="237.50" text-anchor="end" font-family="Arial" font-size="16" fill="black">0.012</text>
<line x1="120" y1="75.00" x2="1145" y2="75.00" stroke="#dddddd" stroke-width="1"/>
<text x="104" y="80.00" text-anchor="end" font-family="Arial" font-size="16" fill="black">0.015</text>
<rect x="120" y="75" width="1025" height="630" fill="none" stroke="black" stroke-width="2"/>
<text x="632.5" y="785" text-anchor="middle" font-family="Arial" font-size="20" fill="black">x coordinate [m]</text>
<text x="34" y="390.0" transform="rotate(-90 34 390.0)" text-anchor="middle" font-family="Arial" font-size="20" fill="black">epsilon [m2/s3]</text>
<polyline points="190.69,640.02 193.64,636.05 196.58,632.08 199.53,628.11 202.47,624.14 205.42,617.41 208.36,609.58 211.31,601.75 214.25,593.92 217.20,586.33 220.14,579.05 223.09,571.77 226.03,564.50 228.98,557.20 231.93,549.80 234.87,542.41 237.82,535.01 240.76,527.62 243.71,518.52 246.65,509.15 249.60,499.78 252.54,490.41 255.49,478.73 258.43,465.33 261.38,451.93 264.32,438.53 267.27,422.95 270.22,401.92 273.16,380.89 276.11,359.86 279.05,338.83 282.00,306.17 284.94,273.52 287.89,240.87 290.83,208.21 293.78,183.45 296.72,161.80 299.67,140.15 302.62,118.45 305.56,119.70 308.51,151.40 311.45,183.10 314.40,214.80 317.34,247.90 320.29,289.34 323.23,330.76 326.17,372.20 329.13,413.65 332.07,427.07 335.01,435.84 337.96,444.60 340.91,453.36 343.85,457.81 346.80,459.05 349.74,460.28 352.68,461.51 355.64,462.47 358.58,462.75 361.52,463.03 364.47,463.30 367.41,463.57 370.35,463.70 373.31,463.83 376.25,463.96 379.19,464.09 382.15,464.17 385.09,464.23 388.03,464.29 390.98,464.35 393.92,464.63 396.86,465.21 399.82,465.79 402.76,466.37 405.70,469.05 408.65,484.32 411.59,499.59 414.54,514.86 417.49,530.13 420.43,550.31 423.37,571.31 426.33,592.31 429.27,613.31 432.21,623.74 435.16,626.23 438.10,628.73 441.04,631.24 444.00,628.89 446.94,614.42 449.88,599.96 452.83,585.49 455.78,571.03 458.72,555.38 461.67,539.73 464.61,524.07 467.55,508.43 470.51,503.92 473.45,503.86 476.39,503.81 479.34,503.75 482.28,507.36 485.23,515.84 488.18,524.32 491.12,532.80 494.06,540.28 497.02,541.81 499.96,543.33 502.90,544.85 505.85,546.37 508.79,540.60 511.73,533.60 514.69,526.61 517.63,519.62 520.57,513.93 523.52,509.21 526.47,504.49 529.41,499.78 532.36,498.79 535.30,507.14 538.24,515.47 541.20,523.82 544.14,532.16 547.08,547.19 550.03,562.22 552.97,577.25 555.92,592.28 558.87,596.90 561.81,597.37 564.75,597.84 567.71,598.30 570.65,590.77 573.59,572.55 576.54,554.34 579.48,536.14 582.42,518.77 585.38,506.52 588.32,494.27 591.26,482.01 594.21,469.76 597.16,467.60 600.10,467.12 603.05,466.64 605.99,466.16 608.93,465.97 611.89,466.00 614.83,466.04 617.77,466.07 620.72,466.09 623.66,466.10 626.60,466.11 629.56,466.12 632.50,466.13 635.44,466.14 638.40,466.14 641.34,466.14 644.28,466.14 647.23,466.13 650.17,466.12 653.11,466.11 656.07,466.10 659.01,466.10 661.95,466.11 664.90,466.12 667.84,466.14 670.79,465.16 673.74,458.27 676.68,451.39 679.62,444.50 682.58,437.61 685.52,439.07 688.46,441.91 691.41,444.75 694.35,447.60 697.29,455.25 700.25,466.51 703.19,477.76 706.13,489.02 709.08,497.64 712.03,499.69 714.97,501.74 717.92,503.79 720.86,505.83 723.80,504.29 726.76,502.75 729.70,501.21 732.64,499.67 735.59,494.90 738.53,488.84 741.48,482.78 744.43,476.72 747.37,469.57 750.31,460.98 753.27,452.39 756.21,443.79 759.15,435.17 762.10,426.35 765.04,417.54 767.98,408.72 770.94,399.91 773.88,393.70 776.82,387.94 779.77,382.17 782.72,376.40 785.66,375.90 788.61,379.33 791.55,382.77 794.49,386.20 797.45,393.09 800.39,408.59 803.33,424.10 806.28,439.60 809.22,455.10 812.17,474.47 815.12,493.84 818.06,513.21 821.00,532.58 823.96,540.89 826.90,544.78 829.84,548.66 832.79,552.55 835.73,549.27 838.67,536.44 841.63,523.61 844.57,510.78 847.51,498.64 850.46,490.58 853.41,482.53 856.35,474.47 859.30,466.41 862.24,465.13 865.18,464.98 868.14,464.82 871.08,464.67 874.02,464.66 876.97,464.74 879.91,464.83 882.85,464.92 885.81,464.99 888.75,465.02 891.69,465.04 894.65,465.07 897.59,465.10 900.53,465.05 903.48,465.01 906.42,464.96 909.36,464.92 912.32,464.77 915.26,464.57 918.20,464.38 921.15,464.19 924.09,463.69 927.04,462.81 929.99,461.92 932.93,461.03 935.87,461.21 938.83,467.80 941.77,474.38 944.71,480.97 947.66,487.55 950.60,500.41 953.54,514.31 956.50,528.22 959.44,542.12 962.38,552.69 965.33,560.76 968.28,568.83 971.22,576.89 974.17,583.18 977.11,585.03 980.05,586.89 983.01,588.73 985.95,590.58 988.89,591.68 991.84,592.78 994.78,593.88 997.73,594.98 1000.68,596.80 1003.62,598.90 1006.56,601.00 1009.52,603.10 1012.46,605.55 1015.40,608.46 1018.35,611.37 1021.29,614.28 1024.23,617.25 1027.19,620.62 1030.13,623.98 1033.07,627.34 1036.02,630.71 1038.97,635.05 1041.91,639.56 1044.86,644.08 1047.80,648.59 1050.74,652.00 1053.70,654.58 1056.64,657.16 1059.58,659.74 1062.53,661.55 1065.47,661.43 1068.42,661.31 1071.37,661.19 1074.31,661.07" fill="none" stroke="#000000" stroke-width="3"/>
<line x1="142" y1="100" x2="178" y2="100" stroke="#000000" stroke-width="4"/>
<text x="188" y="105" font-family="Arial" font-size="18" fill="black">epsilon</text>
</svg>