<svg xmlns="http://www.w3.org/2000/svg" width="1200" height="820" viewBox="0 0 1200 820">
<rect width="100%" height="100%" fill="white"/>
<text x="600.0" y="36" text-anchor="middle" font-family="Arial" font-size="24" fill="black">profile_center_y: Q</text>
<line x1="120.00" y1="75" x2="120.00" y2="705" stroke="#dddddd" stroke-width="1"/>
<text x="120.00" y="737" text-anchor="middle" font-family="Arial" font-size="16" fill="black">-0.400</text>
<line x1="376.25" y1="75" x2="376.25" y2="705" stroke="#dddddd" stroke-width="1"/>
<text x="376.25" y="737" text-anchor="middle" font-family="Arial" font-size="16" fill="black">1.050</text>
<line x1="632.50" y1="75" x2="632.50" y2="705" stroke="#dddddd" stroke-width="1"/>
<text x="632.50" y="737" text-anchor="middle" font-family="Arial" font-size="16" fill="black">2.500</text>
<line x1="888.75" y1="75" x2="888.75" y2="705" stroke="#dddddd" stroke-width="1"/>
<text x="888.75" y="737" text-anchor="middle" font-family="Arial" font-size="16" fill="black">3.950</text>
<line x1="1145.00" y1="75" x2="1145.00" y2="705" stroke="#dddddd" stroke-width="1"/>
<text x="1145.00" y="737" text-anchor="middle" font-family="Arial" font-size="16" fill="black">5.400</text>
<line x1="120" y1="705.00" x2="1145" y2="705.00" stroke="#dddddd" stroke-width="1"/>
<text x="104" y="710.00" text-anchor="end" font-family="Arial" font-size="16" fill="black">-0.082</text>
<line x1="120" y1="547.50" x2="1145" y2="547.50" stroke="#dddddd" stroke-width="1"/>
<text x="104" y="552.50" text-anchor="end" font-family="Arial" font-size="16" fill="black">-0.024</text>
<line x1="120" y1="390.00" x2="1145" y2="390.00" stroke="#dddddd" stroke-width="1"/>
<text x="104" y="395.00" text-anchor="end" font-family="Arial" font-size="16" fill="black">0.035</text>
<line x1="120" y1="232.50" x2="1145" y2="232.50" stroke="#dddddd" stroke-width="1"/>
<text x="104" y="237.50" text-anchor="end" font-family="Arial" font-size="16" fill="black">0.093</text>
<line x1="120" y1="75.00" x2="1145" y2="75.00" stroke="#dddddd" stroke-width="1"/>
<text x="104" y="80.00" text-anchor="end" font-family="Arial" font-size="16" fill="black">0.151</text>
<rect x="120" y="75" width="1025" height="630" fill="none" stroke="black" stroke-width="2"/>
<text x="632.5" y="785" text-anchor="middle" font-family="Arial" font-size="20" fill="black">y coordinate [m]</text>
<text x="34" y="390.0" transform="rotate(-90 34 390.0)" text-anchor="middle" font-family="Arial" font-size="20" fill="black">Q [SI]</text>
<polyline points="190.69,495.93 193.64,468.97 196.58,442.00 199.53,415.04 202.47,388.07 205.42,361.11 208.36,334.15 211.31,308.69 214.25,283.24 217.20,257.79 220.14,232.34 223.09,206.89 226.03,181.45 228.98,192.16 231.92,202.87 234.87,213.57 237.82,224.28 240.76,234.99 243.71,245.70 246.65,262.64 249.60,279.58 252.54,296.52 255.49,313.46 258.43,330.41 261.38,347.35 264.33,360.70 267.27,374.06 270.22,387.42 273.16,400.78 276.11,414.13 279.05,427.49 282.00,437.54 284.94,447.59 287.89,457.64 290.83,467.69 293.78,477.74 296.72,487.79 299.67,495.28 302.61,502.77 305.56,510.26 308.51,517.75 311.45,525.24 314.40,532.73 317.34,537.56 320.29,542.39 323.23,547.22 326.18,552.05 329.12,556.87 332.07,561.70 335.01,564.51 337.96,567.32 340.91,570.12 343.85,572.93 346.80,575.74 349.74,578.55 352.69,579.18 355.63,579.82 358.58,580.46 361.52,581.09 364.47,581.73 367.41,582.36 370.37,579.45 373.30,576.55 376.25,573.64 379.20,570.73 382.13,567.82 385.09,564.91 388.04,559.21 390.97,553.49 393.92,547.79 396.87,542.07 399.81,536.36 402.76,530.65 405.71,524.76 408.64,518.88 411.59,512.99 414.55,507.10 417.48,501.21 420.43,495.32 423.38,490.96 426.32,486.60 429.27,482.24 432.22,477.88 435.15,473.52 438.10,469.17 441.05,466.44 443.99,463.71 446.94,460.99 449.89,458.26 452.82,455.54 455.78,452.81 458.73,450.02 461.66,447.24 464.61,444.45 467.56,441.67 470.50,438.88 473.45,436.09 476.40,430.02 479.33,423.94 482.28,417.87 485.24,411.80 488.17,405.72 491.12,399.65 494.07,386.90 497.01,374.16 499.96,361.42 502.91,348.68 505.84,335.94 508.79,323.19 511.74,304.36 514.68,285.54 517.63,266.71 520.58,247.88 523.51,229.05 526.47,210.21 529.42,195.26 532.35,180.31 535.30,165.34 538.25,150.39 541.19,135.45 544.14,120.47 547.09,120.15 550.02,119.80 552.97,119.45 555.93,119.12 558.86,118.77 561.81,118.45 564.76,131.99 567.70,145.51 570.65,159.05 573.60,172.60 576.53,186.14 579.48,199.66 582.43,220.49 585.37,241.31 588.32,262.12 591.27,282.94 594.20,303.76 597.16,324.58 600.11,346.34 603.04,368.10 605.99,389.87 608.94,411.63 611.88,433.39 614.83,455.15 617.78,472.06 620.71,488.97 623.66,505.88 626.62,522.80 629.55,539.71 632.50,556.62 635.45,565.54 638.38,574.46 641.34,583.37 644.29,592.29 647.22,601.21 650.17,610.13 653.12,611.67 656.06,613.22 659.01,614.77 661.96,616.31 664.89,617.86 667.84,619.41 670.80,616.93 673.73,614.45 676.68,611.97 679.63,609.49 682.57,607.01 685.52,604.53 688.47,601.87 691.40,599.20 694.35,596.54 697.30,593.88 700.24,591.21 703.19,588.55 706.14,588.33 709.07,588.12 712.03,587.91 714.98,587.70 717.91,587.49 720.86,587.28 723.81,589.84 726.75,592.41 729.70,594.97 732.65,597.54 735.58,600.10 738.53,602.67 741.49,606.41 744.42,610.14 747.37,613.88 750.32,617.62 753.26,621.36 756.21,625.10 759.16,628.52 762.09,631.93 765.04,635.35 767.99,638.76 770.93,642.18 773.88,645.60 776.83,647.87 779.76,650.15 782.72,652.43 785.67,654.71 788.60,656.98 791.55,659.26 794.50,659.64 797.44,660.03 800.39,660.41 803.34,660.79 806.27,661.17 809.22,661.55 812.18,658.28 815.11,655.01 818.06,651.73 821.01,648.46 823.95,645.19 826.90,641.91 829.85,635.76 832.78,629.61 835.73,623.45 838.68,617.30 841.62,611.15 844.57,605.00 847.52,594.07 850.45,583.15 853.41,572.22 856.36,561.29 859.29,550.36 862.24,539.44 865.19,525.22 868.13,511.01 871.08,496.80 874.03,482.58 876.96,468.37 879.91,454.16 882.87,440.33 885.80,426.50 888.75,412.67 891.70,398.84 894.63,385.02 897.59,371.19 900.54,359.68 903.47,348.19 906.42,336.68 909.37,325.18 912.31,313.68 915.26,302.18 918.21,296.69 921.14,291.20 924.09,285.70 927.05,280.21 929.98,274.72 932.93,269.23 935.88,268.98 938.82,268.74 941.77,268.50 944.72,268.25 947.65,268.01 950.60,267.77 953.55,271.14 956.49,274.52 959.44,277.89 962.39,281.27 965.32,284.64 968.28,288.02 971.23,292.82 974.16,297.62 977.11,302.42 980.06,307.22 983.00,312.02 985.95,316.83 988.90,320.89 991.83,324.95 994.78,329.02 997.74,333.08 1000.67,337.14 1003.62,341.21 1006.57,343.64 1009.51,346.09 1012.46,348.53 1015.41,350.96 1018.34,353.40 1021.29,355.84 1024.24,357.36 1027.18,358.87 1030.13,360.39 1033.08,361.90 1036.01,363.42 1038.97,364.93 1041.92,382.24 1044.85,399.55 1047.80,416.86 1050.75,434.17 1053.69,451.48 1056.64,468.79 1059.59,485.42 1062.52,502.05 1065.47,518.68 1068.43,535.30 1071.36,551.93 1074.31,568.56" fill="none" stroke="#000000" stroke-width="3"/>
<line x1="142" y1="100" x2="178" y2="100" stroke="#000000" stroke-width="4"/>
<text x="188" y="105" font-family="Arial" font-size="18" fill="black">Q</text>
</svg>