<svg xmlns="http://www.w3.org/2000/svg" width="1200" height="820" viewBox="0 0 1200 820">
<rect width="100%" height="100%" fill="white"/>
<text x="600.0" y="36" text-anchor="middle" font-family="Arial" font-size="24" fill="black">profile_rack_height_x: nut</text>
<line x1="120.00" y1="75" x2="120.00" y2="705" stroke="#dddddd" stroke-width="1"/>
<text x="120.00" y="737" text-anchor="middle" font-family="Arial" font-size="16" fill="black">-0.560</text>
<line x1="376.25" y1="75" x2="376.25" y2="705" stroke="#dddddd" stroke-width="1"/>
<text x="376.25" y="737" text-anchor="middle" font-family="Arial" font-size="16" fill="black">1.470</text>
<line x1="632.50" y1="75" x2="632.50" y2="705" stroke="#dddddd" stroke-width="1"/>
<text x="632.50" y="737" text-anchor="middle" font-family="Arial" font-size="16" fill="black">3.500</text>
<line x1="888.75" y1="75" x2="888.75" y2="705" stroke="#dddddd" stroke-width="1"/>
<text x="888.75" y="737" text-anchor="middle" font-family="Arial" font-size="16" fill="black">5.530</text>
<line x1="1145.00" y1="75" x2="1145.00" y2="705" stroke="#dddddd" stroke-width="1"/>
<text x="1145.00" y="737" text-anchor="middle" font-family="Arial" font-size="16" fill="black">7.560</text>
<line x1="120" y1="705.00" x2="1145" y2="705.00" stroke="#dddddd" stroke-width="1"/>
<text x="104" y="710.00" text-anchor="end" font-family="Arial" font-size="16" fill="black">-0.001</text>
<line x1="120" y1="547.50" x2="1145" y2="547.50" stroke="#dddddd" stroke-width="1"/>
<text x="104" y="552.50" text-anchor="end" font-family="Arial" font-size="16" fill="black">0.006</text>
<line x1="120" y1="390.00" x2="1145" y2="390.00" stroke="#dddddd" stroke-width="1"/>
<text x="104" y="395.00" text-anchor="end" font-family="Arial" font-size="16" fill="black">0.013</text>
<line x1="120" y1="232.50" x2="1145" y2="232.50" stroke="#dddddd" stroke-width="1"/>
<text x="104" y="237.50" text-anchor="end" font-family="Arial" font-size="16" fill="black">0.019</text>
<line x1="120" y1="75.00" x2="1145" y2="75.00" stroke="#dddddd" stroke-width="1"/>
<text x="104" y="80.00" text-anchor="end" font-family="Arial" font-size="16" fill="black">0.026</text>
<rect x="120" y="75" width="1025" height="630" fill="none" stroke="black" stroke-width="2"/>
<text x="632.5" y="785" text-anchor="middle" font-family="Arial" font-size="20" fill="black">x coordinate [m]</text>
<text x="34" y="390.0" transform="rotate(-90 34 390.0)" text-anchor="middle" font-family="Arial" font-size="20" fill="black">nut [m2/s]</text>
<polyline points="190.69,651.21 193.64,637.50 196.58,623.78 199.53,610.07 202.47,596.36 205.42,575.18 208.36,551.03 211.31,526.87 214.25,502.71 217.20,481.69 220.14,464.88 223.09,448.06 226.03,431.25 228.98,415.26 231.93,404.33 234.87,393.40 237.82,382.47 240.76,371.54 243.71,362.81 246.65,354.45 249.60,346.07 252.54,337.71 255.49,329.94 258.43,322.66 261.38,315.36 264.32,308.08 267.27,300.96 270.22,294.28 273.16,287.57 276.11,280.89 279.05,274.21 282.00,268.35 284.94,262.49 287.89,256.61 290.83,250.76 293.78,245.91 296.72,241.46 299.67,237.02 302.62,232.57 305.56,228.94 308.51,226.39 311.45,223.84 314.40,221.31 317.34,218.99 320.29,218.12 323.23,217.23 326.17,216.35 329.13,215.46 332.07,215.23 335.01,215.11 337.96,214.98 340.91,214.86 343.85,214.70 346.80,214.54 349.74,214.36 352.68,214.19 355.64,213.99 358.58,213.67 361.52,213.37 364.47,213.07 367.41,212.77 370.35,212.72 373.31,212.68 376.25,212.66 379.19,212.61 382.15,212.98 385.09,213.48 388.03,213.99 390.98,214.52 393.92,215.23 396.86,216.24 399.82,217.25 402.76,218.26 405.70,219.32 408.65,220.56 411.59,221.82 414.54,223.08 417.49,224.35 420.43,225.56 423.37,226.78 426.33,228.00 429.27,229.21 432.21,230.27 435.16,231.17 438.10,232.09 441.04,232.98 444.00,233.74 446.94,234.13 449.88,234.54 452.83,234.93 455.78,235.32 458.72,235.12 461.67,234.91 464.61,234.70 467.55,234.50 470.51,233.88 473.45,233.10 476.39,232.29 479.34,231.51 482.28,230.48 485.23,229.15 488.18,227.81 491.12,226.50 494.06,225.10 497.02,223.34 499.96,221.54 502.90,219.78 505.85,218.01 508.79,215.96 511.73,213.87 514.69,211.78 517.63,209.69 520.57,207.49 523.52,205.24 526.47,202.96 529.41,200.69 532.36,198.42 535.30,196.07 538.24,193.75 541.20,191.41 544.14,189.07 547.08,186.77 550.03,184.45 552.97,182.13 555.92,179.84 558.87,177.56 561.81,175.34 564.75,173.09 567.71,170.86 570.65,168.65 573.59,166.52 576.54,164.36 579.48,162.22 582.42,160.09 585.38,158.04 588.32,156.02 591.26,153.98 594.21,151.96 597.16,150.05 600.10,148.17 603.05,146.31 605.99,144.42 608.93,142.68 611.89,141.05 614.83,139.39 617.77,137.74 620.72,136.20 623.66,134.85 626.60,133.51 629.56,132.18 632.50,130.85 635.44,129.84 638.40,128.85 641.34,127.84 644.28,126.85 647.23,126.05 650.17,125.34 653.11,124.63 656.07,123.91 659.01,123.29 661.95,122.77 664.90,122.24 667.84,121.71 670.79,121.20 673.74,120.81 676.68,120.40 679.62,120.01 682.58,119.60 685.52,119.32 688.46,119.07 691.41,118.82 694.35,118.56 697.29,118.45 700.25,118.47 703.19,118.47 706.13,118.49 709.08,118.61 712.03,119.07 714.97,119.53 717.92,119.96 720.86,120.42 723.80,121.48 726.76,122.56 729.70,123.62 732.64,124.70 735.59,126.28 738.53,128.09 741.48,129.91 744.43,131.72 747.37,133.86 750.31,136.48 753.27,139.07 756.21,141.69 759.15,144.40 762.10,147.73 765.04,151.06 767.98,154.41 770.94,157.74 773.88,161.58 776.82,165.48 779.77,169.41 782.72,173.31 785.66,177.45 788.61,181.72 791.55,185.99 794.49,190.29 797.45,194.63 800.39,199.08 803.33,203.54 806.28,207.99 809.22,212.47 812.17,216.95 815.12,221.43 818.06,225.91 821.00,230.39 823.96,234.77 826.90,239.14 829.84,243.48 832.79,247.84 835.73,252.09 838.67,256.18 841.63,260.27 844.57,264.35 847.51,268.40 850.46,272.09 853.41,275.79 856.35,279.49 859.30,283.16 862.24,286.45 865.18,289.66 868.14,292.88 871.08,296.09 874.02,298.96 876.97,301.63 879.91,304.27 882.85,306.93 885.81,309.41 888.75,311.48 891.69,313.52 894.65,315.59 897.59,317.66 900.53,319.20 903.48,320.76 906.42,322.32 909.36,323.86 912.32,325.21 915.26,326.45 918.20,327.72 921.15,328.98 924.09,330.27 927.04,331.55 929.99,332.84 932.93,334.15 935.87,335.50 938.83,337.20 941.77,338.90 944.71,340.60 947.66,342.30 950.60,344.67 953.54,347.12 956.50,349.60 959.44,352.08 962.38,355.21 965.33,358.79 968.28,362.37 971.22,365.96 974.17,369.93 977.11,374.87 980.05,379.83 983.01,384.77 985.95,389.70 988.89,396.11 991.84,402.52 994.78,408.90 997.73,415.31 1000.68,422.75 1003.62,430.61 1006.56,438.46 1009.52,446.32 1012.46,454.74 1015.40,463.96 1018.35,473.17 1021.29,482.38 1024.23,491.77 1027.19,502.24 1030.13,512.70 1033.07,523.17 1036.02,533.63 1038.97,545.06 1041.91,556.65 1044.86,568.24 1047.80,579.83 1050.74,591.64 1053.70,603.63 1056.64,615.61 1059.58,627.59 1062.53,637.84 1065.47,643.77 1068.42,649.70 1071.37,655.63 1074.31,661.55" fill="none" stroke="#000000" stroke-width="3"/>
<line x1="142" y1="100" x2="178" y2="100" stroke="#000000" stroke-width="4"/>
<text x="188" y="105" font-family="Arial" font-size="18" fill="black">nut</text>
</svg>