<svg xmlns="http://www.w3.org/2000/svg" width="1200" height="820" viewBox="0 0 1200 820">
<rect width="100%" height="100%" fill="white"/>
<text x="600.0" y="36" text-anchor="middle" font-family="Arial" font-size="24" fill="black">profile_diagonal_supply_return: U:0</text>
<line x1="120.00" y1="75" x2="120.00" y2="705" stroke="#dddddd" stroke-width="1"/>
<text x="120.00" y="737" text-anchor="middle" font-family="Arial" font-size="16" fill="black">-0.729</text>
<line x1="376.25" y1="75" x2="376.25" y2="705" stroke="#dddddd" stroke-width="1"/>
<text x="376.25" y="737" text-anchor="middle" font-family="Arial" font-size="16" fill="black">1.913</text>
<line x1="632.50" y1="75" x2="632.50" y2="705" stroke="#dddddd" stroke-width="1"/>
<text x="632.50" y="737" text-anchor="middle" font-family="Arial" font-size="16" fill="black">4.555</text>
<line x1="888.75" y1="75" x2="888.75" y2="705" stroke="#dddddd" stroke-width="1"/>
<text x="888.75" y="737" text-anchor="middle" font-family="Arial" font-size="16" fill="black">7.197</text>
<line x1="1145.00" y1="75" x2="1145.00" y2="705" stroke="#dddddd" stroke-width="1"/>
<text x="1145.00" y="737" text-anchor="middle" font-family="Arial" font-size="16" fill="black">9.839</text>
<line x1="120" y1="705.00" x2="1145" y2="705.00" stroke="#dddddd" stroke-width="1"/>
<text x="104" y="710.00" text-anchor="end" font-family="Arial" font-size="16" fill="black">-0.157</text>
<line x1="120" y1="547.50" x2="1145" y2="547.50" stroke="#dddddd" stroke-width="1"/>
<text x="104" y="552.50" text-anchor="end" font-family="Arial" font-size="16" fill="black">-0.052</text>
<line x1="120" y1="390.00" x2="1145" y2="390.00" stroke="#dddddd" stroke-width="1"/>
<text x="104" y="395.00" text-anchor="end" font-family="Arial" font-size="16" fill="black">0.054</text>
<line x1="120" y1="232.50" x2="1145" y2="232.50" stroke="#dddddd" stroke-width="1"/>
<text x="104" y="237.50" text-anchor="end" font-family="Arial" font-size="16" fill="black">0.159</text>
<line x1="120" y1="75.00" x2="1145" y2="75.00" stroke="#dddddd" stroke-width="1"/>
<text x="104" y="80.00" text-anchor="end" font-family="Arial" font-size="16" fill="black">0.264</text>
<rect x="120" y="75" width="1025" height="630" fill="none" stroke="black" stroke-width="2"/>
<text x="632.5" y="785" text-anchor="middle" font-family="Arial" font-size="20" fill="black">distance along sample line [m]</text>
<text x="34" y="390.0" transform="rotate(-90 34 390.0)" text-anchor="middle" font-family="Arial" font-size="20" fill="black">U:0 [SI]</text>
<polyline points="190.69,510.20 193.64,510.77 196.58,511.24 199.53,511.60 202.47,511.86 205.42,512.72 208.36,513.84 211.31,514.92 214.25,516.02 217.20,515.96 220.14,514.59 223.09,512.68 226.03,511.03 228.98,510.85 231.93,508.62 234.87,506.53 237.82,504.57 240.76,502.70 243.71,499.35 246.65,496.07 249.60,492.81 252.54,489.82 255.49,486.04 258.43,481.66 261.38,477.25 264.32,472.47 267.27,467.42 270.22,461.76 273.16,456.06 276.11,450.30 279.05,444.48 282.00,437.39 284.94,430.22 287.88,422.99 290.83,415.69 293.78,408.36 296.73,401.03 299.67,393.03 302.62,385.07 305.57,377.23 308.50,369.58 311.45,361.61 314.40,353.74 317.34,345.42 320.29,337.53 323.24,329.79 326.18,322.22 329.12,314.79 332.07,308.14 335.01,301.38 337.96,294.89 340.91,288.89 343.85,284.04 346.80,280.26 349.74,276.96 352.68,274.01 355.63,272.10 358.58,271.92 361.53,272.40 364.47,273.57 367.42,275.43 370.36,279.42 373.30,284.07 376.25,289.44 379.20,295.54 382.14,303.13 385.09,311.71 388.04,321.13 390.97,331.30 393.92,342.41 396.87,354.41 399.81,366.29 402.76,378.71 405.71,391.47 408.65,404.11 411.59,417.01 414.54,430.17 417.48,443.57 420.43,455.59 423.38,466.85 426.32,478.01 429.27,488.09 432.21,496.64 435.16,503.92 438.10,510.91 441.05,517.11 444.00,522.38 446.94,525.75 449.89,528.80 452.84,531.51 455.77,533.88 458.72,533.38 461.67,532.70 464.61,531.83 467.56,530.76 470.51,528.72 473.45,526.21 476.39,523.30 479.34,520.23 482.28,516.84 485.23,513.10 488.18,509.15 491.12,505.06 494.07,500.67 497.01,496.40 499.96,491.92 502.90,487.21 505.85,482.26 508.80,477.81 511.74,472.99 514.69,467.83 517.63,462.30 520.57,457.21 523.52,452.29 526.47,446.95 529.41,441.12 532.36,435.35 535.31,430.31 538.24,424.79 541.19,418.76 544.14,412.22 547.08,407.21 550.03,401.69 552.98,395.65 555.92,389.09 558.86,383.32 561.81,377.50 564.76,371.57 567.70,365.08 570.65,358.77 573.60,352.82 576.54,346.30 579.49,339.18 582.43,332.41 585.37,326.28 588.32,319.57 591.27,312.29 594.21,304.45 597.16,296.94 600.11,290.08 603.04,282.71 605.99,274.93 608.94,267.09 611.88,259.13 614.83,250.67 617.78,243.19 620.72,235.51 623.66,227.89 626.61,219.88 629.55,211.49 632.50,202.72 635.45,196.22 638.40,189.46 641.34,182.47 644.28,175.19 647.23,168.09 650.17,160.93 653.12,155.64 656.07,150.20 659.01,144.90 661.96,139.87 664.90,135.17 667.84,130.35 670.79,127.72 673.74,125.74 676.68,123.77 679.63,121.77 682.58,119.75 685.51,118.45 688.46,119.46 691.41,120.54 694.35,122.10 697.30,124.10 700.25,126.46 703.20,128.87 706.14,133.04 709.08,137.42 712.03,142.23 714.97,147.12 717.92,152.09 720.87,157.16 723.81,163.75 726.76,170.36 729.70,176.98 732.64,183.63 735.59,190.31 738.54,197.01 741.48,204.08 744.43,211.21 747.38,218.28 750.31,225.27 753.26,232.28 756.21,239.32 759.15,245.96 762.10,252.24 765.05,258.59 767.99,265.03 770.93,271.59 773.88,277.74 776.83,282.92 779.77,288.29 782.72,293.49 785.67,298.35 788.61,303.03 791.55,307.90 794.50,311.46 797.44,314.94 800.39,317.96 803.34,321.28 806.28,324.92 809.23,328.92 812.17,329.24 815.11,329.87 818.06,330.84 821.01,332.17 823.95,332.57 826.90,332.84 829.85,331.52 832.79,330.64 835.73,329.17 838.68,326.74 841.63,323.59 844.57,320.90 847.52,316.42 850.47,310.24 853.41,304.58 856.35,299.39 859.30,294.68 862.24,288.84 865.19,281.58 868.14,274.73 871.08,267.24 874.03,259.80 876.97,252.42 879.91,245.50 882.86,237.90 885.81,230.74 888.75,223.82 891.70,217.28 894.65,211.09 897.58,205.26 900.53,198.44 903.48,192.08 906.43,186.13 909.37,180.61 912.32,175.92 915.27,171.76 918.20,167.59 921.15,163.80 924.10,160.73 927.04,158.51 929.99,155.68 932.94,153.24 935.88,151.24 938.82,150.61 941.77,150.34 944.71,150.40 947.66,150.82 950.61,152.81 953.55,155.55 956.50,158.64 959.44,161.06 962.38,164.96 965.33,170.19 968.28,175.98 971.22,183.08 974.17,191.55 977.12,202.66 980.06,214.85 983.00,228.23 985.95,242.83 988.90,263.33 991.84,286.87 994.79,313.71 997.74,344.17 1000.68,377.11 1003.62,412.97 1006.57,455.90 1009.51,501.56 1012.46,540.76 1015.41,567.52 1018.35,597.76 1021.30,624.93 1024.24,647.52 1027.18,656.72 1030.13,661.42 1033.08,661.55 1036.02,657.10 1038.97,658.91 1041.92,659.61 1044.86,658.31 1047.80,654.36 1050.75,648.29 1053.70,640.13 1056.64,630.13 1059.59,614.08 1062.54,600.36 1065.47,593.99 1068.42,587.24 1071.37,580.12 1074.31,572.60" fill="none" stroke="#000000" stroke-width="3"/>
<line x1="142" y1="100" x2="178" y2="100" stroke="#000000" stroke-width="4"/>
<text x="188" y="105" font-family="Arial" font-size="18" fill="black">U:0</text>
</svg>