<svg xmlns="http://www.w3.org/2000/svg" width="1200" height="820" viewBox="0 0 1200 820">
<rect width="100%" height="100%" fill="white"/>
<text x="600.0" y="36" text-anchor="middle" font-family="Arial" font-size="24" fill="black">profile_center_z: p</text>
<line x1="120.00" y1="75" x2="120.00" y2="705" stroke="#dddddd" stroke-width="1"/>
<text x="120.00" y="737" text-anchor="middle" font-family="Arial" font-size="16" fill="black">-0.240</text>
<line x1="376.25" y1="75" x2="376.25" y2="705" stroke="#dddddd" stroke-width="1"/>
<text x="376.25" y="737" text-anchor="middle" font-family="Arial" font-size="16" fill="black">0.630</text>
<line x1="632.50" y1="75" x2="632.50" y2="705" stroke="#dddddd" stroke-width="1"/>
<text x="632.50" y="737" text-anchor="middle" font-family="Arial" font-size="16" fill="black">1.500</text>
<line x1="888.75" y1="75" x2="888.75" y2="705" stroke="#dddddd" stroke-width="1"/>
<text x="888.75" y="737" text-anchor="middle" font-family="Arial" font-size="16" fill="black">2.370</text>
<line x1="1145.00" y1="75" x2="1145.00" y2="705" stroke="#dddddd" stroke-width="1"/>
<text x="1145.00" y="737" text-anchor="middle" font-family="Arial" font-size="16" fill="black">3.240</text>
<line x1="120" y1="705.00" x2="1145" y2="705.00" stroke="#dddddd" stroke-width="1"/>
<text x="104" y="710.00" text-anchor="end" font-family="Arial" font-size="16" fill="black">-34.59</text>
<line x1="120" y1="547.50" x2="1145" y2="547.50" stroke="#dddddd" stroke-width="1"/>
<text x="104" y="552.50" text-anchor="end" font-family="Arial" font-size="16" fill="black">-25.24</text>
<line x1="120" y1="390.00" x2="1145" y2="390.00" stroke="#dddddd" stroke-width="1"/>
<text x="104" y="395.00" text-anchor="end" font-family="Arial" font-size="16" fill="black">-15.89</text>
<line x1="120" y1="232.50" x2="1145" y2="232.50" stroke="#dddddd" stroke-width="1"/>
<text x="104" y="237.50" text-anchor="end" font-family="Arial" font-size="16" fill="black">-6.539</text>
<line x1="120" y1="75.00" x2="1145" y2="75.00" stroke="#dddddd" stroke-width="1"/>
<text x="104" y="80.00" text-anchor="end" font-family="Arial" font-size="16" fill="black">2.811</text>
<rect x="120" y="75" width="1025" height="630" fill="none" stroke="black" stroke-width="2"/>
<text x="632.5" y="785" text-anchor="middle" font-family="Arial" font-size="20" fill="black">z coordinate [m]</text>
<text x="34" y="390.0" transform="rotate(-90 34 390.0)" text-anchor="middle" font-family="Arial" font-size="20" fill="black">p [Pa]</text>
<polyline points="190.69,118.45 193.64,119.45 196.58,120.45 199.53,121.46 202.47,122.46 205.42,123.46 208.36,124.46 211.31,125.46 214.25,126.47 217.20,127.47 220.14,128.47 223.09,130.46 226.03,132.44 228.98,134.43 231.93,136.41 234.87,138.40 237.82,140.38 240.76,142.37 243.71,144.35 246.65,146.33 249.60,148.32 252.54,150.28 255.49,152.23 258.43,154.18 261.38,156.14 264.32,158.10 267.27,160.05 270.22,162.01 273.16,163.96 276.11,165.92 279.05,167.87 282.00,169.81 284.94,171.75 287.89,173.69 290.83,175.64 293.78,177.58 296.72,179.52 299.67,181.46 302.61,183.40 305.56,185.34 308.51,187.29 311.45,189.22 314.40,191.17 317.34,193.10 320.29,195.04 323.23,196.98 326.18,198.92 329.12,200.86 332.07,202.80 335.01,204.74 337.96,206.68 340.91,208.63 343.85,210.57 346.80,212.51 349.74,214.45 352.69,216.40 355.63,218.34 358.58,220.28 361.52,222.23 364.47,224.17 367.41,226.11 370.36,228.05 373.30,230.00 376.25,231.94 379.20,233.88 382.14,235.82 385.09,237.76 388.03,239.70 390.98,241.64 393.92,243.58 396.87,245.52 399.81,247.45 402.76,249.38 405.70,251.31 408.65,253.23 411.59,255.16 414.54,257.09 417.49,259.02 420.43,260.94 423.38,262.87 426.32,264.80 429.27,266.71 432.21,268.62 435.16,270.53 438.10,272.44 441.05,274.35 443.99,276.26 446.94,278.17 449.89,280.08 452.83,281.99 455.78,283.90 458.72,285.79 461.67,287.68 464.61,289.57 467.56,291.46 470.50,293.37 473.45,295.25 476.39,297.14 479.34,299.03 482.28,300.93 485.23,302.82 488.18,304.69 491.12,306.56 494.07,308.44 497.01,310.31 499.96,312.18 502.90,314.05 505.85,315.94 508.79,317.81 511.74,319.68 514.68,321.55 517.63,323.42 520.57,325.27 523.52,327.14 526.47,328.99 529.41,330.86 532.36,332.73 535.30,334.59 538.25,336.46 541.19,338.31 544.14,340.18 547.08,342.03 550.03,343.88 552.97,345.74 555.92,347.61 558.86,349.46 561.81,351.31 564.76,353.17 567.70,355.02 570.65,356.87 573.59,358.74 576.54,360.59 579.48,362.43 582.43,364.28 585.37,366.14 588.32,367.99 591.26,369.84 594.21,371.70 597.16,373.55 600.10,375.40 603.05,377.25 605.99,379.11 608.94,380.94 611.88,382.80 614.83,384.65 617.77,386.50 620.72,388.34 623.66,390.19 626.61,392.04 629.55,393.90 632.50,395.73 635.45,397.59 638.39,399.44 641.34,401.28 644.28,403.13 647.23,404.96 650.17,406.82 653.12,408.65 656.06,410.51 659.01,412.36 661.95,414.20 664.90,416.05 667.84,417.89 670.79,419.72 673.74,421.57 676.68,423.41 679.63,425.26 682.57,427.10 685.52,428.94 688.46,430.79 691.41,432.62 694.35,434.48 697.30,436.31 700.24,438.15 703.19,439.99 706.14,441.84 709.08,443.68 712.03,445.51 714.97,447.35 717.92,449.20 720.86,451.04 723.81,452.87 726.75,454.71 729.70,456.55 732.64,458.38 735.59,460.23 738.53,462.07 741.48,463.91 744.43,465.74 747.37,467.58 750.32,469.41 753.26,471.25 756.21,473.09 759.15,474.92 762.10,476.76 765.04,478.60 767.99,480.43 770.93,482.27 773.88,484.10 776.82,485.94 779.77,487.78 782.72,489.61 785.66,491.43 788.61,493.27 791.55,495.10 794.50,496.94 797.44,498.78 800.39,500.61 803.33,502.43 806.28,504.27 809.22,506.10 812.17,507.94 815.11,509.76 818.06,511.60 821.01,513.43 823.95,515.27 826.90,517.09 829.84,518.92 832.79,520.76 835.73,522.58 838.68,524.41 841.62,526.25 844.57,528.07 847.51,529.91 850.46,531.73 853.41,533.56 856.35,535.40 859.30,537.22 862.24,539.05 865.19,540.87 868.13,542.71 871.08,544.53 874.02,546.36 876.97,548.18 879.91,550.02 882.86,551.84 885.80,553.67 888.75,555.49 891.70,557.33 894.64,559.15 897.59,560.99 900.53,562.80 903.48,564.64 906.42,566.46 909.37,568.30 912.31,570.12 915.26,571.94 918.20,573.77 921.15,575.59 924.09,577.43 927.04,579.25 929.99,581.08 932.93,582.90 935.88,584.72 938.82,586.56 941.77,588.38 944.71,590.21 947.66,592.03 950.60,593.85 953.55,595.69 956.49,597.51 959.44,599.34 962.39,601.16 965.33,602.98 968.28,604.82 971.22,606.64 974.17,608.46 977.11,610.29 980.06,612.11 983.00,613.95 985.95,615.77 988.89,617.60 991.84,619.42 994.78,621.26 997.73,623.08 1000.68,624.90 1003.62,626.73 1006.57,628.55 1009.51,630.39 1012.46,632.21 1015.40,634.04 1018.35,635.88 1021.29,637.72 1024.24,639.53 1027.18,641.37 1030.13,643.21 1033.07,645.04 1036.02,646.88 1038.97,648.70 1041.91,650.53 1044.86,652.37 1047.80,653.30 1050.75,654.21 1053.69,655.13 1056.64,656.04 1059.58,656.97 1062.53,657.88 1065.47,658.81 1068.42,659.72 1071.36,660.64 1074.31,661.55" fill="none" stroke="#000000" stroke-width="3"/>
<line x1="142" y1="100" x2="178" y2="100" stroke="#000000" stroke-width="4"/>
<text x="188" y="105" font-family="Arial" font-size="18" fill="black">p</text>
</svg>