<svg xmlns="http://www.w3.org/2000/svg" width="1200" height="820" viewBox="0 0 1200 820">
<rect width="100%" height="100%" fill="white"/>
<text x="600.0" y="36" text-anchor="middle" font-family="Arial" font-size="24" fill="black">profile_center_z: U:2</text>
<line x1="120.00" y1="75" x2="120.00" y2="705" stroke="#dddddd" stroke-width="1"/>
<text x="120.00" y="737" text-anchor="middle" font-family="Arial" font-size="16" fill="black">-0.240</text>
<line x1="376.25" y1="75" x2="376.25" y2="705" stroke="#dddddd" stroke-width="1"/>
<text x="376.25" y="737" text-anchor="middle" font-family="Arial" font-size="16" fill="black">0.630</text>
<line x1="632.50" y1="75" x2="632.50" y2="705" stroke="#dddddd" stroke-width="1"/>
<text x="632.50" y="737" text-anchor="middle" font-family="Arial" font-size="16" fill="black">1.500</text>
<line x1="888.75" y1="75" x2="888.75" y2="705" stroke="#dddddd" stroke-width="1"/>
<text x="888.75" y="737" text-anchor="middle" font-family="Arial" font-size="16" fill="black">2.370</text>
<line x1="1145.00" y1="75" x2="1145.00" y2="705" stroke="#dddddd" stroke-width="1"/>
<text x="1145.00" y="737" text-anchor="middle" font-family="Arial" font-size="16" fill="black">3.240</text>
<line x1="120" y1="705.00" x2="1145" y2="705.00" stroke="#dddddd" stroke-width="1"/>
<text x="104" y="710.00" text-anchor="end" font-family="Arial" font-size="16" fill="black">-0.126</text>
<line x1="120" y1="547.50" x2="1145" y2="547.50" stroke="#dddddd" stroke-width="1"/>
<text x="104" y="552.50" text-anchor="end" font-family="Arial" font-size="16" fill="black">0.106</text>
<line x1="120" y1="390.00" x2="1145" y2="390.00" stroke="#dddddd" stroke-width="1"/>
<text x="104" y="395.00" text-anchor="end" font-family="Arial" font-size="16" fill="black">0.339</text>
<line x1="120" y1="232.50" x2="1145" y2="232.50" stroke="#dddddd" stroke-width="1"/>
<text x="104" y="237.50" text-anchor="end" font-family="Arial" font-size="16" fill="black">0.571</text>
<line x1="120" y1="75.00" x2="1145" y2="75.00" stroke="#dddddd" stroke-width="1"/>
<text x="104" y="80.00" text-anchor="end" font-family="Arial" font-size="16" fill="black">0.804</text>
<rect x="120" y="75" width="1025" height="630" fill="none" stroke="black" stroke-width="2"/>
<text x="632.5" y="785" text-anchor="middle" font-family="Arial" font-size="20" fill="black">z coordinate [m]</text>
<text x="34" y="390.0" transform="rotate(-90 34 390.0)" text-anchor="middle" font-family="Arial" font-size="20" fill="black">U:2 [SI]</text>
<polyline points="190.69,118.45 193.64,119.62 196.58,120.78 199.53,121.96 202.47,123.13 205.42,124.30 208.36,125.47 211.31,126.63 214.25,127.80 217.20,128.98 220.14,130.15 223.09,133.29 226.03,136.44 228.98,139.60 231.93,142.75 234.87,145.89 237.82,149.05 240.76,152.20 243.71,155.34 246.65,158.50 249.60,161.65 252.54,166.20 255.49,170.75 258.43,175.30 261.38,179.85 264.32,184.41 267.27,188.96 270.22,193.51 273.16,198.06 276.11,202.61 279.05,207.16 282.00,212.76 284.94,218.35 287.89,223.95 290.83,229.54 293.78,235.14 296.72,240.73 299.67,246.33 302.61,251.93 305.56,257.52 308.51,263.12 311.45,269.49 314.40,275.86 317.34,282.24 320.29,288.61 323.23,294.99 326.18,301.37 329.12,307.74 332.07,314.11 335.01,320.49 337.96,326.86 340.91,333.69 343.85,340.52 346.80,347.34 349.74,354.17 352.69,361.00 355.63,367.82 358.58,374.64 361.52,381.48 364.47,388.30 367.41,395.12 370.36,402.10 373.30,409.08 376.25,416.06 379.20,423.04 382.14,430.02 385.09,437.00 388.03,443.98 390.98,450.96 393.92,457.93 396.87,464.91 399.81,471.35 402.76,477.78 405.70,484.22 408.65,490.65 411.59,497.09 414.54,503.52 417.49,509.96 420.43,516.39 423.38,522.83 426.32,529.26 429.27,533.80 432.21,538.34 435.16,542.87 438.10,547.41 441.05,551.95 443.99,556.49 446.94,561.02 449.89,565.56 452.83,570.10 455.78,574.64 458.72,577.10 461.67,579.57 464.61,582.03 467.56,584.50 470.50,586.96 473.45,589.42 476.39,591.89 479.34,594.35 482.28,596.82 485.23,599.28 488.18,600.63 491.12,601.98 494.07,603.33 497.01,604.68 499.96,606.03 502.90,607.38 505.85,608.73 508.79,610.08 511.74,611.43 514.68,612.78 517.63,613.58 520.57,614.38 523.52,615.18 526.47,615.98 529.41,616.78 532.36,617.58 535.30,618.39 538.25,619.19 541.19,619.99 544.14,620.79 547.08,621.35 550.03,621.92 552.97,622.48 555.92,623.05 558.86,623.61 561.81,624.17 564.76,624.74 567.70,625.30 570.65,625.87 573.59,626.43 576.54,626.94 579.48,627.44 582.43,627.94 585.37,628.45 588.32,628.95 591.26,629.46 594.21,629.96 597.16,630.46 600.10,630.97 603.05,631.47 605.99,631.98 608.94,632.50 611.88,633.01 614.83,633.53 617.77,634.04 620.72,634.55 623.66,635.07 626.61,635.58 629.55,636.09 632.50,636.61 635.45,637.14 638.39,637.68 641.34,638.21 644.28,638.74 647.23,639.28 650.17,639.81 653.12,640.34 656.06,640.88 659.01,641.41 661.95,641.95 664.90,642.47 667.84,643.00 670.79,643.52 673.74,644.05 676.68,644.58 679.63,645.10 682.57,645.63 685.52,646.15 688.46,646.68 691.41,647.20 694.35,647.67 697.30,648.14 700.24,648.60 703.19,649.07 706.14,649.54 709.08,650.00 712.03,650.47 714.97,650.93 717.92,651.40 720.86,651.87 723.81,652.21 726.75,652.55 729.70,652.89 732.64,653.23 735.59,653.57 738.53,653.92 741.48,654.26 744.43,654.60 747.37,654.94 750.32,655.28 753.26,655.44 756.21,655.60 759.15,655.76 762.10,655.92 765.04,656.08 767.99,656.24 770.93,656.40 773.88,656.56 776.82,656.72 779.77,656.88 782.72,656.84 785.66,656.81 788.61,656.78 791.55,656.75 794.50,656.71 797.44,656.68 800.39,656.65 803.33,656.62 806.28,656.59 809.22,656.55 812.17,656.38 815.11,656.21 818.06,656.04 821.01,655.87 823.95,655.70 826.90,655.54 829.84,655.37 832.79,655.20 835.73,655.03 838.68,654.86 841.62,654.64 844.57,654.43 847.51,654.21 850.46,654.00 853.41,653.78 856.35,653.57 859.30,653.36 862.24,653.14 865.19,652.93 868.13,652.71 871.08,652.56 874.02,652.41 876.97,652.26 879.91,652.10 882.86,651.95 885.80,651.80 888.75,651.64 891.70,651.49 894.64,651.34 897.59,651.19 900.53,651.20 903.48,651.22 906.42,651.24 909.37,651.26 912.31,651.27 915.26,651.29 918.20,651.31 921.15,651.33 924.09,651.34 927.04,651.36 929.99,651.63 932.93,651.89 935.88,652.16 938.82,652.43 941.77,652.69 944.71,652.96 947.66,653.22 950.60,653.49 953.55,653.75 956.49,654.02 959.44,654.46 962.39,654.91 965.33,655.35 968.28,655.79 971.22,656.24 974.17,656.68 977.11,657.12 980.06,657.57 983.00,658.01 985.95,658.45 988.89,658.76 991.84,659.07 994.78,659.38 997.73,659.69 1000.68,660.00 1003.62,660.31 1006.57,660.62 1009.51,660.93 1012.46,661.24 1015.40,661.55 1018.35,660.83 1021.29,660.11 1024.24,659.39 1027.18,658.67 1030.13,657.95 1033.07,657.24 1036.02,656.52 1038.97,655.80 1041.91,655.08 1044.86,654.36 1047.80,653.57 1050.75,652.79 1053.69,652.00 1056.64,651.21 1059.58,650.43 1062.53,649.64 1065.47,648.86 1068.42,648.07 1071.36,647.28 1074.31,646.50" fill="none" stroke="#000000" stroke-width="3"/>
<line x1="142" y1="100" x2="178" y2="100" stroke="#000000" stroke-width="4"/>
<text x="188" y="105" font-family="Arial" font-size="18" fill="black">U:2</text>
</svg>