<svg xmlns="http://www.w3.org/2000/svg" width="1200" height="820" viewBox="0 0 1200 820">
<rect width="100%" height="100%" fill="white"/>
<text x="600.0" y="36" text-anchor="middle" font-family="Arial" font-size="24" fill="black">profile_center_z: p_rgh</text>
<line x1="120.00" y1="75" x2="120.00" y2="705" stroke="#dddddd" stroke-width="1"/>
<text x="120.00" y="737" text-anchor="middle" font-family="Arial" font-size="16" fill="black">-0.240</text>
<line x1="376.25" y1="75" x2="376.25" y2="705" stroke="#dddddd" stroke-width="1"/>
<text x="376.25" y="737" text-anchor="middle" font-family="Arial" font-size="16" fill="black">0.630</text>
<line x1="632.50" y1="75" x2="632.50" y2="705" stroke="#dddddd" stroke-width="1"/>
<text x="632.50" y="737" text-anchor="middle" font-family="Arial" font-size="16" fill="black">1.500</text>
<line x1="888.75" y1="75" x2="888.75" y2="705" stroke="#dddddd" stroke-width="1"/>
<text x="888.75" y="737" text-anchor="middle" font-family="Arial" font-size="16" fill="black">2.370</text>
<line x1="1145.00" y1="75" x2="1145.00" y2="705" stroke="#dddddd" stroke-width="1"/>
<text x="1145.00" y="737" text-anchor="middle" font-family="Arial" font-size="16" fill="black">3.240</text>
<line x1="120" y1="705.00" x2="1145" y2="705.00" stroke="#dddddd" stroke-width="1"/>
<text x="104" y="710.00" text-anchor="end" font-family="Arial" font-size="16" fill="black">0.058</text>
<line x1="120" y1="547.50" x2="1145" y2="547.50" stroke="#dddddd" stroke-width="1"/>
<text x="104" y="552.50" text-anchor="end" font-family="Arial" font-size="16" fill="black">0.324</text>
<line x1="120" y1="390.00" x2="1145" y2="390.00" stroke="#dddddd" stroke-width="1"/>
<text x="104" y="395.00" text-anchor="end" font-family="Arial" font-size="16" fill="black">0.590</text>
<line x1="120" y1="232.50" x2="1145" y2="232.50" stroke="#dddddd" stroke-width="1"/>
<text x="104" y="237.50" text-anchor="end" font-family="Arial" font-size="16" fill="black">0.855</text>
<line x1="120" y1="75.00" x2="1145" y2="75.00" stroke="#dddddd" stroke-width="1"/>
<text x="104" y="80.00" text-anchor="end" font-family="Arial" font-size="16" fill="black">1.121</text>
<rect x="120" y="75" width="1025" height="630" fill="none" stroke="black" stroke-width="2"/>
<text x="632.5" y="785" text-anchor="middle" font-family="Arial" font-size="20" fill="black">z coordinate [m]</text>
<text x="34" y="390.0" transform="rotate(-90 34 390.0)" text-anchor="middle" font-family="Arial" font-size="20" fill="black">p_rgh [Pa]</text>
<polyline points="190.69,242.65 193.64,242.09 196.58,241.53 199.53,240.97 202.47,240.41 205.42,239.85 208.36,239.29 211.31,238.73 214.25,238.17 217.20,237.62 220.14,237.05 223.09,235.25 226.03,233.44 228.98,231.64 231.93,229.84 234.87,228.03 237.82,226.23 240.76,224.42 243.71,222.62 246.65,220.81 249.60,219.01 252.54,216.15 255.49,213.30 258.43,210.44 261.38,207.58 264.32,204.73 267.27,201.87 270.22,199.01 273.16,196.16 276.11,193.30 279.05,190.45 282.00,187.12 284.94,183.79 287.89,180.47 290.83,177.14 293.78,173.81 296.72,170.48 299.67,167.16 302.61,163.83 305.56,160.51 308.51,157.18 311.45,154.02 314.40,150.86 317.34,147.70 320.29,144.53 323.23,141.39 326.18,138.25 329.12,135.05 332.07,131.91 335.01,128.76 337.96,125.56 340.91,124.85 343.85,124.14 346.80,123.43 349.74,122.72 352.69,122.01 355.63,121.29 358.58,120.58 361.52,119.87 364.47,119.16 367.41,118.45 370.36,124.50 373.30,130.54 376.25,136.59 379.20,142.64 382.14,148.67 385.09,154.71 388.03,160.76 390.98,166.81 393.92,172.86 396.87,178.90 399.81,190.26 402.76,201.61 405.70,212.96 408.65,224.32 411.59,235.67 414.54,247.03 417.49,258.38 420.43,269.73 423.38,281.09 426.32,292.44 429.27,303.45 432.21,314.45 435.16,325.46 438.10,336.47 441.05,347.47 443.99,358.47 446.94,369.48 449.89,380.49 452.83,391.49 455.78,402.50 458.72,410.80 461.67,419.11 464.61,427.41 467.56,435.72 470.50,444.02 473.45,452.33 476.39,460.63 479.34,468.94 482.28,477.24 485.23,485.54 488.18,491.01 491.12,496.48 494.07,501.94 497.01,507.41 499.96,512.88 502.90,518.34 505.85,523.81 508.79,529.28 511.74,534.74 514.68,540.21 517.63,543.81 520.57,547.41 523.52,551.01 526.47,554.61 529.41,558.21 532.36,561.81 535.30,565.41 538.25,569.01 541.19,572.61 544.14,576.21 547.08,578.75 550.03,581.29 552.97,583.84 555.92,586.38 558.86,588.92 561.81,591.47 564.76,594.01 567.70,596.55 570.65,599.09 573.59,601.64 576.54,603.54 579.48,605.44 582.43,607.33 585.37,609.23 588.32,611.13 591.26,613.03 594.21,614.93 597.16,616.83 600.10,618.73 603.05,620.63 605.99,622.08 608.94,623.53 611.88,624.98 614.83,626.43 617.77,627.88 620.72,629.33 623.66,630.79 626.61,632.24 629.55,633.69 632.50,635.15 635.45,636.25 638.39,637.34 641.34,638.45 644.28,639.55 647.23,640.65 650.17,641.75 653.12,642.85 656.06,643.95 659.01,645.05 661.95,646.15 664.90,646.95 667.84,647.74 670.79,648.54 673.74,649.33 676.68,650.13 679.63,650.92 682.57,651.72 685.52,652.52 688.46,653.31 691.41,654.11 694.35,654.62 697.30,655.12 700.24,655.63 703.19,656.15 706.14,656.66 709.08,657.17 712.03,657.68 714.97,658.19 717.92,658.70 720.86,659.22 723.81,659.45 726.75,659.68 729.70,659.92 732.64,660.15 735.59,660.38 738.53,660.61 741.48,660.85 744.43,661.08 747.37,661.31 750.32,661.55 753.26,661.50 756.21,661.46 759.15,661.42 762.10,661.37 765.04,661.33 767.99,661.29 770.93,661.24 773.88,661.20 776.82,661.15 779.77,661.11 782.72,660.79 785.66,660.47 788.61,660.15 791.55,659.84 794.50,659.52 797.44,659.20 800.39,658.88 803.33,658.56 806.28,658.24 809.22,657.92 812.17,657.33 815.11,656.74 818.06,656.15 821.01,655.56 823.95,654.97 826.90,654.38 829.84,653.79 832.79,653.20 835.73,652.61 838.68,652.02 841.62,651.15 844.57,650.28 847.51,649.40 850.46,648.53 853.41,647.66 856.35,646.79 859.30,645.92 862.24,645.05 865.19,644.17 868.13,643.30 871.08,642.12 874.02,640.94 876.97,639.76 879.91,638.58 882.86,637.40 885.80,636.22 888.75,635.04 891.70,633.86 894.64,632.68 897.59,631.50 900.53,629.99 903.48,628.47 906.42,626.95 909.37,625.43 912.31,623.92 915.26,622.40 918.20,620.89 921.15,619.37 924.09,617.85 927.04,616.33 929.99,614.46 932.93,612.59 935.88,610.71 938.82,608.84 941.77,606.97 944.71,605.09 947.66,603.21 950.60,601.34 953.55,599.47 956.49,597.59 959.44,595.37 962.39,593.15 965.33,590.92 968.28,588.69 971.22,586.47 974.17,584.25 977.11,582.02 980.06,579.80 983.00,577.58 985.95,575.35 988.89,572.88 991.84,570.40 994.78,567.92 997.73,565.44 1000.68,562.97 1003.62,560.49 1006.57,558.01 1009.51,555.53 1012.46,553.06 1015.40,550.58 1018.35,548.05 1021.29,545.51 1024.24,542.97 1027.18,540.44 1030.13,537.90 1033.07,535.37 1036.02,532.83 1038.97,530.30 1041.91,527.76 1044.86,525.23 1047.80,523.98 1050.75,522.72 1053.69,521.47 1056.64,520.22 1059.58,518.97 1062.53,517.71 1065.47,516.46 1068.42,515.21 1071.36,513.96 1074.31,512.71" fill="none" stroke="#000000" stroke-width="3"/>
<line x1="142" y1="100" x2="178" y2="100" stroke="#000000" stroke-width="4"/>
<text x="188" y="105" font-family="Arial" font-size="18" fill="black">p_rgh</text>
</svg>