<svg xmlns="http://www.w3.org/2000/svg" width="1200" height="820" viewBox="0 0 1200 820">
<rect width="100%" height="100%" fill="white"/>
<text x="600.0" y="36" text-anchor="middle" font-family="Arial" font-size="24" fill="black">profile_diagonal_supply_return: rho</text>
<line x1="120.00" y1="75" x2="120.00" y2="705" stroke="#dddddd" stroke-width="1"/>
<text x="120.00" y="737" text-anchor="middle" font-family="Arial" font-size="16" fill="black">-0.729</text>
<line x1="376.25" y1="75" x2="376.25" y2="705" stroke="#dddddd" stroke-width="1"/>
<text x="376.25" y="737" text-anchor="middle" font-family="Arial" font-size="16" fill="black">1.913</text>
<line x1="632.50" y1="75" x2="632.50" y2="705" stroke="#dddddd" stroke-width="1"/>
<text x="632.50" y="737" text-anchor="middle" font-family="Arial" font-size="16" fill="black">4.555</text>
<line x1="888.75" y1="75" x2="888.75" y2="705" stroke="#dddddd" stroke-width="1"/>
<text x="888.75" y="737" text-anchor="middle" font-family="Arial" font-size="16" fill="black">7.197</text>
<line x1="1145.00" y1="75" x2="1145.00" y2="705" stroke="#dddddd" stroke-width="1"/>
<text x="1145.00" y="737" text-anchor="middle" font-family="Arial" font-size="16" fill="black">9.839</text>
<line x1="120" y1="705.00" x2="1145" y2="705.00" stroke="#dddddd" stroke-width="1"/>
<text x="104" y="710.00" text-anchor="end" font-family="Arial" font-size="16" fill="black">1.110</text>
<line x1="120" y1="547.50" x2="1145" y2="547.50" stroke="#dddddd" stroke-width="1"/>
<text x="104" y="552.50" text-anchor="end" font-family="Arial" font-size="16" fill="black">1.121</text>
<line x1="120" y1="390.00" x2="1145" y2="390.00" stroke="#dddddd" stroke-width="1"/>
<text x="104" y="395.00" text-anchor="end" font-family="Arial" font-size="16" fill="black">1.132</text>
<line x1="120" y1="232.50" x2="1145" y2="232.50" stroke="#dddddd" stroke-width="1"/>
<text x="104" y="237.50" text-anchor="end" font-family="Arial" font-size="16" fill="black">1.144</text>
<line x1="120" y1="75.00" x2="1145" y2="75.00" stroke="#dddddd" stroke-width="1"/>
<text x="104" y="80.00" text-anchor="end" font-family="Arial" font-size="16" fill="black">1.155</text>
<rect x="120" y="75" width="1025" height="630" fill="none" stroke="black" stroke-width="2"/>
<text x="632.5" y="785" text-anchor="middle" font-family="Arial" font-size="20" fill="black">distance along sample line [m]</text>
<text x="34" y="390.0" transform="rotate(-90 34 390.0)" text-anchor="middle" font-family="Arial" font-size="20" fill="black">rho [kg/m3]</text>
<polyline points="190.69,181.76 193.64,180.36 196.58,178.95 199.53,177.54 202.47,176.14 205.42,173.32 208.36,169.10 211.31,166.29 214.25,162.07 217.20,159.25 220.14,156.44 223.09,153.62 226.03,150.81 228.98,148.00 231.93,146.59 234.87,145.18 237.82,142.37 240.76,140.96 243.71,139.55 246.65,138.15 249.60,135.33 252.54,133.93 255.49,131.11 258.43,129.70 261.38,128.30 264.32,126.89 267.27,124.08 270.22,124.08 273.16,122.67 276.11,121.26 279.05,121.26 282.00,119.86 284.94,119.86 287.88,119.86 290.83,118.45 293.78,118.45 296.73,118.45 299.67,118.45 302.62,118.45 305.57,119.86 308.50,119.86 311.45,121.26 314.40,122.67 317.34,125.48 320.29,125.48 323.24,126.89 326.18,128.30 329.12,129.70 332.07,128.30 335.01,128.30 337.96,128.30 340.91,129.70 343.85,132.52 346.80,135.33 349.74,139.55 352.68,146.59 355.63,155.03 358.58,166.29 361.53,178.95 364.47,193.02 367.42,207.09 370.36,222.57 373.30,238.04 376.25,254.93 379.20,271.81 382.14,288.70 385.09,305.58 388.04,318.24 390.97,330.91 393.92,342.16 396.87,352.01 399.81,359.05 402.76,367.49 405.71,373.12 408.65,371.71 411.59,370.30 414.54,368.89 417.48,367.49 420.43,366.08 423.38,363.27 426.32,360.45 429.27,357.64 432.21,357.64 435.16,359.05 438.10,360.45 441.05,361.86 444.00,364.67 446.94,368.89 449.89,373.12 452.84,375.93 455.77,380.15 458.72,384.37 461.67,388.59 464.61,392.81 467.56,398.44 470.51,402.66 473.45,408.29 476.39,413.92 479.34,419.55 482.28,425.18 485.23,432.21 488.18,439.25 491.12,444.87 494.07,450.50 497.01,457.54 499.96,464.57 502.90,471.61 505.85,478.64 508.80,487.08 511.74,492.71 514.69,499.75 517.63,506.78 520.57,513.82 523.52,520.85 526.47,527.89 529.41,534.92 532.36,541.96 535.31,548.99 538.24,554.62 541.19,561.65 544.14,568.69 547.08,575.72 550.03,581.35 552.98,586.98 555.92,592.61 558.86,596.83 561.81,602.46 564.76,606.68 567.70,610.90 570.65,615.12 573.60,617.93 576.54,620.75 579.49,622.16 582.43,624.97 585.37,626.38 588.32,627.78 591.27,629.19 594.21,630.60 597.16,630.60 600.11,632.00 603.04,633.41 605.99,634.82 608.94,634.82 611.88,634.82 614.83,633.41 617.78,634.82 620.72,636.23 623.66,636.23 626.61,637.63 629.55,637.63 632.50,639.04 635.45,639.04 638.40,640.45 641.34,641.85 644.28,641.85 647.23,643.26 650.17,643.26 653.12,646.07 656.07,647.48 659.01,650.30 661.96,651.70 664.90,651.70 667.84,653.11 670.79,655.92 673.74,657.33 676.68,658.74 679.63,658.74 682.58,660.14 685.51,660.14 688.46,661.55 691.41,661.55 694.35,660.14 697.30,660.14 700.25,658.74 703.20,655.92 706.14,654.52 709.08,651.70 712.03,648.89 714.97,646.07 717.92,643.26 720.87,639.04 723.81,636.23 726.76,632.00 729.70,629.19 732.64,624.97 735.59,620.75 738.54,617.93 741.48,613.71 744.43,610.90 747.38,606.68 750.31,603.86 753.26,601.05 756.21,598.24 759.15,594.02 762.10,592.61 765.05,589.79 767.99,586.98 770.93,584.17 773.88,582.76 776.83,581.35 779.77,579.95 782.72,578.54 785.67,577.13 788.61,577.13 791.55,577.13 794.50,577.13 797.44,577.13 800.39,578.54 803.34,578.54 806.28,579.95 809.23,581.35 812.17,584.17 815.11,586.98 818.06,589.79 821.01,592.61 823.95,598.24 826.90,603.86 829.85,609.49 832.79,613.71 835.73,619.34 838.68,629.19 841.63,637.63 844.57,644.67 847.52,648.89 850.47,654.52 853.41,657.33 856.35,660.14 859.30,661.55 862.24,658.74 865.19,654.52 868.14,650.30 871.08,644.67 874.03,639.04 876.97,630.60 879.91,623.56 882.86,615.12 885.81,605.27 888.75,594.02 891.70,584.17 894.65,574.32 897.58,564.47 900.53,554.62 903.48,546.18 906.43,537.74 909.37,529.29 912.32,520.85 915.27,512.41 918.20,503.97 921.15,498.34 924.10,491.30 927.04,484.27 929.99,478.64 932.94,473.01 935.88,467.39 938.82,461.76 941.77,457.54 944.71,453.32 947.66,447.69 950.61,443.47 953.55,439.25 956.50,435.02 959.44,430.80 962.38,427.99 965.33,425.18 968.28,420.95 971.22,418.14 974.17,413.92 977.12,411.11 980.06,408.29 983.00,405.48 985.95,402.66 988.90,401.26 991.84,399.85 994.79,397.04 997.74,395.63 1000.68,395.63 1003.62,397.04 1006.57,398.44 1009.51,402.66 1012.46,406.88 1015.41,412.51 1018.35,420.95 1021.30,429.40 1024.24,440.65 1027.18,451.91 1030.13,461.76 1033.08,471.61 1036.02,481.46 1038.97,489.90 1041.92,499.75 1044.86,509.60 1047.80,516.63 1050.75,523.67 1053.70,529.29 1056.64,534.92 1059.59,541.96 1062.54,546.18 1065.47,548.99 1068.42,551.81 1071.37,554.62 1074.31,557.43" fill="none" stroke="#000000" stroke-width="3"/>
<line x1="142" y1="100" x2="178" y2="100" stroke="#000000" stroke-width="4"/>
<text x="188" y="105" font-family="Arial" font-size="18" fill="black">rho</text>
</svg>