<svg xmlns="http://www.w3.org/2000/svg" width="1200" height="820" viewBox="0 0 1200 820">
<rect width="100%" height="100%" fill="white"/>
<text x="600.0" y="36" text-anchor="middle" font-family="Arial" font-size="24" fill="black">profile_diagonal_supply_return: velocity magnitude</text>
<line x1="120.00" y1="75" x2="120.00" y2="705" stroke="#dddddd" stroke-width="1"/>
<text x="120.00" y="737" text-anchor="middle" font-family="Arial" font-size="16" fill="black">-0.729</text>
<line x1="376.25" y1="75" x2="376.25" y2="705" stroke="#dddddd" stroke-width="1"/>
<text x="376.25" y="737" text-anchor="middle" font-family="Arial" font-size="16" fill="black">1.913</text>
<line x1="632.50" y1="75" x2="632.50" y2="705" stroke="#dddddd" stroke-width="1"/>
<text x="632.50" y="737" text-anchor="middle" font-family="Arial" font-size="16" fill="black">4.555</text>
<line x1="888.75" y1="75" x2="888.75" y2="705" stroke="#dddddd" stroke-width="1"/>
<text x="888.75" y="737" text-anchor="middle" font-family="Arial" font-size="16" fill="black">7.197</text>
<line x1="1145.00" y1="75" x2="1145.00" y2="705" stroke="#dddddd" stroke-width="1"/>
<text x="1145.00" y="737" text-anchor="middle" font-family="Arial" font-size="16" fill="black">9.839</text>
<line x1="120" y1="705.00" x2="1145" y2="705.00" stroke="#dddddd" stroke-width="1"/>
<text x="104" y="710.00" text-anchor="end" font-family="Arial" font-size="16" fill="black">0.047</text>
<line x1="120" y1="547.50" x2="1145" y2="547.50" stroke="#dddddd" stroke-width="1"/>
<text x="104" y="552.50" text-anchor="end" font-family="Arial" font-size="16" fill="black">0.141</text>
<line x1="120" y1="390.00" x2="1145" y2="390.00" stroke="#dddddd" stroke-width="1"/>
<text x="104" y="395.00" text-anchor="end" font-family="Arial" font-size="16" fill="black">0.236</text>
<line x1="120" y1="232.50" x2="1145" y2="232.50" stroke="#dddddd" stroke-width="1"/>
<text x="104" y="237.50" text-anchor="end" font-family="Arial" font-size="16" fill="black">0.330</text>
<line x1="120" y1="75.00" x2="1145" y2="75.00" stroke="#dddddd" stroke-width="1"/>
<text x="104" y="80.00" text-anchor="end" font-family="Arial" font-size="16" fill="black">0.425</text>
<rect x="120" y="75" width="1025" height="630" fill="none" stroke="black" stroke-width="2"/>
<text x="632.5" y="785" text-anchor="middle" font-family="Arial" font-size="20" fill="black">distance along sample line [m]</text>
<text x="34" y="390.0" transform="rotate(-90 34 390.0)" text-anchor="middle" font-family="Arial" font-size="20" fill="black">|U| [m/s]</text>
<polyline points="190.69,630.66 193.64,622.08 196.58,613.82 199.53,605.93 202.47,598.36 205.42,589.88 208.36,581.32 211.31,565.66 214.25,550.70 217.20,537.43 220.14,526.25 223.09,514.04 226.03,504.00 228.98,493.12 231.93,485.32 234.87,479.84 237.82,476.71 240.76,476.01 243.71,478.83 246.65,483.97 249.60,490.97 252.54,496.43 255.49,504.16 258.43,513.82 261.38,525.23 264.32,537.20 267.27,549.41 270.22,560.35 273.16,571.56 276.11,582.97 279.05,594.48 282.00,598.18 284.94,601.21 287.88,603.63 290.83,605.49 293.78,605.44 296.73,604.81 299.67,604.18 302.62,603.64 305.57,602.43 308.50,600.28 311.45,593.18 314.40,587.30 317.34,582.34 320.29,576.01 323.24,570.49 326.18,565.81 329.12,561.97 332.07,557.15 335.01,551.80 337.96,546.74 340.91,538.81 343.85,531.98 346.80,525.82 349.74,520.15 352.68,514.12 355.63,508.89 358.58,504.81 361.53,500.95 364.47,497.28 367.42,493.85 370.36,489.04 373.30,484.37 376.25,479.84 379.20,475.51 382.14,473.03 385.09,471.40 388.04,470.91 390.97,471.05 393.92,472.68 396.87,476.08 399.81,475.66 402.76,475.61 405.71,477.23 408.65,480.72 411.59,484.49 414.54,488.39 417.48,492.32 420.43,495.03 423.38,498.28 426.32,501.30 429.27,502.71 432.21,502.75 435.16,501.86 438.10,501.08 441.05,501.28 444.00,501.46 446.94,501.53 449.89,501.78 452.84,502.25 455.77,502.88 458.72,504.30 461.67,505.70 464.61,507.08 467.56,508.43 470.51,509.89 473.45,511.38 476.39,513.87 479.34,516.42 482.28,518.97 485.23,521.54 488.18,524.00 491.12,526.63 494.07,530.43 497.01,534.33 499.96,538.56 502.90,543.18 505.85,548.17 508.80,553.17 511.74,559.12 514.69,565.71 517.63,573.34 520.57,580.92 523.52,588.52 526.47,596.65 529.41,604.29 532.36,612.19 535.31,619.26 538.24,627.21 541.19,636.20 544.14,646.40 547.08,647.35 550.03,649.26 552.98,652.31 555.92,656.65 558.86,659.06 561.81,661.55 564.76,655.21 567.70,650.34 570.65,645.48 573.60,640.17 576.54,635.09 579.49,631.65 582.43,621.42 585.37,610.76 588.32,600.98 591.27,592.07 594.21,584.00 597.16,576.31 600.11,566.35 603.04,556.60 605.99,546.86 608.94,537.41 611.88,528.17 614.83,519.09 617.78,510.93 620.72,502.75 623.66,494.57 626.61,486.27 629.55,477.84 632.50,469.30 635.45,463.35 638.40,457.17 641.34,450.76 644.28,444.13 647.23,437.45 650.17,430.57 653.12,425.49 656.07,420.09 659.01,414.64 661.96,409.26 664.90,404.05 667.84,398.62 670.79,393.15 673.74,388.47 676.68,383.74 679.63,378.98 682.58,374.18 685.51,370.80 688.46,365.99 691.41,361.59 694.35,357.97 697.30,355.69 700.25,354.62 703.20,354.07 706.14,352.04 709.08,351.08 712.03,351.61 714.97,352.98 717.92,355.17 720.87,358.24 723.81,360.50 726.76,363.49 729.70,367.25 732.64,371.82 735.59,376.40 738.54,381.48 741.48,385.62 744.43,390.56 747.38,395.49 750.31,400.17 753.26,405.01 756.21,410.56 759.15,414.19 762.10,416.34 765.05,419.16 767.99,422.71 770.93,427.07 773.88,430.00 776.83,430.67 779.77,432.07 782.72,432.55 785.67,432.10 788.61,431.12 791.55,430.82 794.50,428.64 797.44,426.27 800.39,422.52 803.34,419.36 806.28,416.78 809.23,414.81 812.17,406.35 815.11,398.35 818.06,390.84 821.01,383.83 823.95,374.68 826.90,364.89 829.85,355.02 832.79,345.55 835.73,334.63 838.68,321.71 841.63,307.58 844.57,294.02 847.52,281.71 850.47,267.75 853.41,254.36 856.35,241.48 859.30,229.07 862.24,216.83 865.19,206.77 868.14,196.94 871.08,186.58 874.03,177.53 876.97,169.34 879.91,161.33 882.86,155.36 885.81,150.11 888.75,146.28 891.70,142.22 894.65,137.87 897.58,133.27 900.53,131.82 903.48,130.06 906.43,127.98 909.37,125.58 912.32,124.41 915.27,123.35 918.20,122.81 921.15,121.81 924.10,121.16 927.04,121.10 929.99,120.16 932.94,118.76 935.88,118.56 938.82,119.21 941.77,119.41 944.71,119.16 947.66,118.51 950.61,118.45 953.55,120.65 956.50,122.60 959.44,122.80 962.38,123.03 965.33,123.30 968.28,123.20 971.22,126.96 974.17,130.71 977.12,135.06 980.06,139.54 983.00,144.17 985.95,148.98 988.90,156.16 991.84,163.71 994.79,171.77 997.74,180.50 1000.68,190.59 1003.62,203.25 1006.57,221.34 1009.51,241.20 1012.46,257.64 1015.41,268.82 1018.35,274.78 1021.30,285.96 1024.24,299.14 1027.18,309.06 1030.13,324.46 1033.08,345.68 1036.02,373.05 1038.97,393.32 1041.92,406.56 1044.86,423.79 1047.80,444.19 1050.75,462.15 1053.70,479.79 1056.64,501.63 1059.59,515.74 1062.54,529.37 1065.47,536.83 1068.42,545.84 1071.37,556.45 1074.31,568.71" fill="none" stroke="#000000" stroke-width="3"/>
<line x1="142" y1="100" x2="178" y2="100" stroke="#000000" stroke-width="4"/>
<text x="188" y="105" font-family="Arial" font-size="18" fill="black">|U|</text>
</svg>