<svg xmlns="http://www.w3.org/2000/svg" width="1200" height="820" viewBox="0 0 1200 820">
<rect width="100%" height="100%" fill="white"/>
<text x="600.0" y="36" text-anchor="middle" font-family="Arial" font-size="24" fill="black">profile_center_y: T</text>
<line x1="120.00" y1="75" x2="120.00" y2="705" stroke="#dddddd" stroke-width="1"/>
<text x="120.00" y="737" text-anchor="middle" font-family="Arial" font-size="16" fill="black">-0.400</text>
<line x1="376.25" y1="75" x2="376.25" y2="705" stroke="#dddddd" stroke-width="1"/>
<text x="376.25" y="737" text-anchor="middle" font-family="Arial" font-size="16" fill="black">1.050</text>
<line x1="632.50" y1="75" x2="632.50" y2="705" stroke="#dddddd" stroke-width="1"/>
<text x="632.50" y="737" text-anchor="middle" font-family="Arial" font-size="16" fill="black">2.500</text>
<line x1="888.75" y1="75" x2="888.75" y2="705" stroke="#dddddd" stroke-width="1"/>
<text x="888.75" y="737" text-anchor="middle" font-family="Arial" font-size="16" fill="black">3.950</text>
<line x1="1145.00" y1="75" x2="1145.00" y2="705" stroke="#dddddd" stroke-width="1"/>
<text x="1145.00" y="737" text-anchor="middle" font-family="Arial" font-size="16" fill="black">5.400</text>
<line x1="120" y1="705.00" x2="1145" y2="705.00" stroke="#dddddd" stroke-width="1"/>
<text x="104" y="710.00" text-anchor="end" font-family="Arial" font-size="16" fill="black">309.4</text>
<line x1="120" y1="547.50" x2="1145" y2="547.50" stroke="#dddddd" stroke-width="1"/>
<text x="104" y="552.50" text-anchor="end" font-family="Arial" font-size="16" fill="black">315.3</text>
<line x1="120" y1="390.00" x2="1145" y2="390.00" stroke="#dddddd" stroke-width="1"/>
<text x="104" y="395.00" text-anchor="end" font-family="Arial" font-size="16" fill="black">321.1</text>
<line x1="120" y1="232.50" x2="1145" y2="232.50" stroke="#dddddd" stroke-width="1"/>
<text x="104" y="237.50" text-anchor="end" font-family="Arial" font-size="16" fill="black">327.0</text>
<line x1="120" y1="75.00" x2="1145" y2="75.00" stroke="#dddddd" stroke-width="1"/>
<text x="104" y="80.00" text-anchor="end" font-family="Arial" font-size="16" fill="black">332.8</text>
<rect x="120" y="75" width="1025" height="630" fill="none" stroke="black" stroke-width="2"/>
<text x="632.5" y="785" text-anchor="middle" font-family="Arial" font-size="20" fill="black">y coordinate [m]</text>
<text x="34" y="390.0" transform="rotate(-90 34 390.0)" text-anchor="middle" font-family="Arial" font-size="20" fill="black">T [K]</text>
<polyline points="190.69,661.55 193.64,661.28 196.58,661.28 199.53,661.28 202.47,661.28 205.42,661.28 208.36,661.01 211.31,660.75 214.25,660.48 217.20,660.21 220.14,659.94 223.09,659.67 226.03,659.40 228.98,658.06 231.92,656.98 234.87,655.64 237.82,654.56 240.76,653.22 243.71,652.15 246.65,649.19 249.60,646.50 252.54,643.82 255.49,640.86 258.43,638.17 261.38,635.22 264.33,631.19 267.27,626.89 270.22,622.59 273.16,618.55 276.11,614.26 279.05,609.96 282.00,604.58 284.94,599.21 287.89,593.83 290.83,588.46 293.78,583.08 296.72,577.71 299.67,571.26 302.61,564.81 305.56,558.36 308.51,551.91 311.45,545.46 314.40,539.01 317.34,531.22 320.29,523.16 323.23,515.36 326.18,507.57 329.12,499.78 332.07,491.98 335.01,482.04 337.96,472.10 340.91,462.15 343.85,452.48 346.80,442.54 349.74,432.59 352.69,419.43 355.63,405.99 358.58,392.82 361.52,379.39 364.47,366.22 367.41,352.78 370.37,339.34 373.30,325.91 376.25,312.47 379.20,299.03 382.13,285.33 385.09,271.89 388.04,261.95 390.97,252.01 393.92,242.06 396.87,232.12 399.81,222.18 402.76,212.24 405.71,205.25 408.64,197.99 411.59,191.01 414.55,183.75 417.48,176.76 420.43,169.51 423.38,164.67 426.32,159.83 429.27,155.00 432.22,150.16 435.15,145.32 438.10,140.48 441.05,137.80 443.99,135.11 446.94,132.15 449.89,129.47 452.82,126.51 455.78,123.82 458.73,123.02 461.66,121.94 464.61,121.14 467.56,120.33 470.50,119.25 473.45,118.45 476.40,119.25 479.33,120.33 482.28,121.14 485.24,122.21 488.17,123.02 491.12,123.82 494.07,126.51 497.01,129.20 499.96,131.88 502.91,134.57 505.84,137.26 508.79,140.22 511.74,144.52 514.68,149.08 517.63,153.38 520.58,157.95 523.51,162.52 526.47,166.82 529.42,173.27 532.35,179.99 535.30,186.44 538.25,192.89 541.19,199.34 544.14,205.79 547.09,211.97 550.02,217.88 552.97,224.06 555.93,229.97 558.86,235.88 561.81,242.06 564.76,245.83 567.70,249.32 570.65,253.08 573.60,256.84 576.53,260.61 579.48,264.10 582.43,266.79 585.37,269.47 588.32,272.16 591.27,274.85 594.20,277.54 597.16,280.22 600.11,282.64 603.04,284.79 605.99,287.21 608.94,289.36 611.88,291.51 614.83,293.93 617.78,295.81 620.71,297.69 623.66,299.57 626.62,301.45 629.55,303.33 632.50,305.22 635.45,306.83 638.38,308.17 641.34,309.78 644.29,311.13 647.22,312.47 650.17,314.08 653.12,314.62 656.06,315.43 659.01,316.23 661.96,317.04 664.89,317.85 667.84,318.65 670.80,318.38 673.73,318.38 676.68,318.11 679.63,317.85 682.57,317.85 685.52,317.58 688.47,316.23 691.40,314.62 694.35,313.01 697.30,311.40 700.24,309.78 703.19,308.44 706.14,304.41 709.07,300.65 712.03,296.62 714.98,292.85 717.91,289.09 720.86,285.06 723.81,281.03 726.75,277.00 729.70,272.97 732.65,268.94 735.58,265.17 738.53,261.14 741.49,258.99 744.42,257.11 747.37,254.96 750.32,253.08 753.26,250.93 756.21,249.05 759.16,247.98 762.09,246.90 765.04,245.83 767.99,244.75 770.93,243.68 773.88,242.60 776.83,242.06 779.76,241.53 782.72,240.99 785.67,240.45 788.60,239.65 791.55,239.11 794.50,238.84 797.44,238.57 800.39,238.30 803.34,238.03 806.27,237.76 809.22,237.50 812.18,237.50 815.11,237.76 818.06,238.03 821.01,238.03 823.95,238.30 826.90,238.57 829.85,239.38 832.78,240.45 835.73,241.26 838.68,242.06 841.62,243.14 844.57,243.95 847.52,246.10 850.45,248.51 853.41,250.66 856.36,252.81 859.29,254.96 862.24,257.11 865.19,261.41 868.13,265.71 871.08,270.28 874.03,274.58 876.96,278.88 879.91,283.18 882.87,291.78 885.80,300.38 888.75,308.98 891.70,317.85 894.63,326.45 897.59,335.04 900.54,344.72 903.47,354.66 906.42,364.61 909.37,374.55 912.31,384.22 915.26,394.17 918.21,401.15 921.14,408.41 924.09,415.39 927.05,422.38 929.98,429.64 932.93,436.62 935.88,441.73 938.82,446.57 941.77,451.40 944.72,456.51 947.65,461.35 950.60,466.18 953.55,469.68 956.49,472.90 959.44,476.40 962.39,479.62 965.32,482.85 968.28,486.34 971.23,488.22 974.16,490.37 977.11,492.52 980.06,494.67 983.00,496.55 985.95,498.70 988.90,499.78 991.83,500.85 994.78,501.93 997.74,503.00 1000.67,504.08 1003.62,505.15 1006.57,505.42 1009.51,505.96 1012.46,506.23 1015.41,506.49 1018.34,506.76 1021.29,507.03 1024.24,506.76 1027.18,506.76 1030.13,506.49 1033.08,506.23 1036.01,506.23 1038.97,505.96 1041.92,505.69 1044.85,505.15 1047.80,504.88 1050.75,504.34 1053.69,504.08 1056.64,503.81 1059.59,503.54 1062.52,503.27 1065.47,503.00 1068.43,502.73 1071.36,502.73 1074.31,502.46" fill="none" stroke="#000000" stroke-width="3"/>
<line x1="142" y1="100" x2="178" y2="100" stroke="#000000" stroke-width="4"/>
<text x="188" y="105" font-family="Arial" font-size="18" fill="black">T</text>
</svg>