<svg xmlns="http://www.w3.org/2000/svg" width="1200" height="820" viewBox="0 0 1200 820">
<rect width="100%" height="100%" fill="white"/>
<text x="600.0" y="36" text-anchor="middle" font-family="Arial" font-size="24" fill="black">profile_near_ceiling_x: rho</text>
<line x1="120.00" y1="75" x2="120.00" y2="705" stroke="#dddddd" stroke-width="1"/>
<text x="120.00" y="737" text-anchor="middle" font-family="Arial" font-size="16" fill="black">-0.560</text>
<line x1="376.25" y1="75" x2="376.25" y2="705" stroke="#dddddd" stroke-width="1"/>
<text x="376.25" y="737" text-anchor="middle" font-family="Arial" font-size="16" fill="black">1.470</text>
<line x1="632.50" y1="75" x2="632.50" y2="705" stroke="#dddddd" stroke-width="1"/>
<text x="632.50" y="737" text-anchor="middle" font-family="Arial" font-size="16" fill="black">3.500</text>
<line x1="888.75" y1="75" x2="888.75" y2="705" stroke="#dddddd" stroke-width="1"/>
<text x="888.75" y="737" text-anchor="middle" font-family="Arial" font-size="16" fill="black">5.530</text>
<line x1="1145.00" y1="75" x2="1145.00" y2="705" stroke="#dddddd" stroke-width="1"/>
<text x="1145.00" y="737" text-anchor="middle" font-family="Arial" font-size="16" fill="black">7.560</text>
<line x1="120" y1="705.00" x2="1145" y2="705.00" stroke="#dddddd" stroke-width="1"/>
<text x="104" y="710.00" text-anchor="end" font-family="Arial" font-size="16" fill="black">1.108</text>
<line x1="120" y1="547.50" x2="1145" y2="547.50" stroke="#dddddd" stroke-width="1"/>
<text x="104" y="552.50" text-anchor="end" font-family="Arial" font-size="16" fill="black">1.111</text>
<line x1="120" y1="390.00" x2="1145" y2="390.00" stroke="#dddddd" stroke-width="1"/>
<text x="104" y="395.00" text-anchor="end" font-family="Arial" font-size="16" fill="black">1.114</text>
<line x1="120" y1="232.50" x2="1145" y2="232.50" stroke="#dddddd" stroke-width="1"/>
<text x="104" y="237.50" text-anchor="end" font-family="Arial" font-size="16" fill="black">1.117</text>
<line x1="120" y1="75.00" x2="1145" y2="75.00" stroke="#dddddd" stroke-width="1"/>
<text x="104" y="80.00" text-anchor="end" font-family="Arial" font-size="16" fill="black">1.121</text>
<rect x="120" y="75" width="1025" height="630" fill="none" stroke="black" stroke-width="2"/>
<text x="632.5" y="785" text-anchor="middle" font-family="Arial" font-size="20" fill="black">x coordinate [m]</text>
<text x="34" y="390.0" transform="rotate(-90 34 390.0)" text-anchor="middle" font-family="Arial" font-size="20" fill="black">rho [kg/m3]</text>
<polyline points="190.69,226.09 193.64,216.30 196.58,206.52 199.53,191.84 202.47,182.05 205.42,167.38 208.36,157.59 211.31,142.91 214.25,128.23 217.20,118.45 220.14,118.45 223.09,118.45 226.03,118.45 228.98,123.34 231.93,128.23 234.87,133.13 237.82,138.02 240.76,142.91 243.71,152.70 246.65,157.59 249.60,167.38 252.54,172.27 255.49,182.05 258.43,186.95 261.38,191.84 264.32,201.63 267.27,206.52 270.22,216.30 273.16,221.20 276.11,226.09 279.05,230.98 282.00,240.77 284.94,245.66 287.89,250.55 290.83,255.45 293.78,265.23 296.72,270.13 299.67,275.02 302.62,279.91 305.56,284.80 308.51,289.70 311.45,299.48 314.40,304.38 317.34,309.27 320.29,314.16 323.23,319.05 326.17,323.95 329.13,328.84 332.07,333.73 335.01,343.52 337.96,348.41 340.91,353.30 343.85,358.20 346.80,363.09 349.74,367.98 352.68,372.88 355.64,382.66 358.58,387.55 361.52,387.55 364.47,392.45 367.41,397.34 370.35,402.23 373.31,407.12 376.25,407.12 379.19,412.02 382.15,412.02 385.09,412.02 388.03,416.91 390.98,416.91 393.92,416.91 396.86,412.02 399.82,412.02 402.76,407.12 405.70,407.12 408.65,402.23 411.59,397.34 414.54,392.45 417.49,387.55 420.43,377.77 423.37,372.88 426.33,367.98 429.27,363.09 432.21,358.20 435.16,353.30 438.10,343.52 441.04,338.63 444.00,333.73 446.94,328.84 449.88,323.95 452.83,314.16 455.78,309.27 458.72,304.38 461.67,299.48 464.61,294.59 467.55,289.70 470.51,284.80 473.45,279.91 476.39,275.02 479.34,270.13 482.28,265.23 485.23,260.34 488.18,255.45 491.12,250.55 494.06,250.55 497.02,245.66 499.96,240.77 502.90,235.88 505.85,230.98 508.79,230.98 511.73,226.09 514.69,221.20 517.63,221.20 520.57,216.30 523.52,211.41 526.47,211.41 529.41,206.52 532.36,201.63 535.30,201.63 538.24,196.73 541.20,191.84 544.14,191.84 547.08,186.95 550.03,186.95 552.97,182.05 555.92,177.16 558.87,177.16 561.81,172.27 564.75,172.27 567.71,167.38 570.65,167.38 573.59,167.38 576.54,162.48 579.48,162.48 582.42,157.59 585.38,157.59 588.32,157.59 591.26,157.59 594.21,157.59 597.16,157.59 600.10,157.59 603.05,157.59 605.99,157.59 608.93,162.48 611.89,167.38 614.83,172.27 617.77,177.16 620.72,182.05 623.66,186.95 626.60,196.73 629.56,206.52 632.50,211.41 635.44,226.09 638.40,235.88 641.34,245.66 644.28,255.45 647.23,265.23 650.17,279.91 653.11,289.70 656.07,299.48 659.01,314.16 661.95,323.95 664.90,333.73 667.84,343.52 670.79,353.30 673.74,363.09 676.68,372.88 679.62,382.66 682.58,392.45 685.52,402.23 688.46,407.12 691.41,416.91 694.35,421.80 697.29,431.59 700.25,436.48 703.19,441.37 706.13,451.16 709.08,456.05 712.03,460.95 714.97,465.84 717.92,470.73 720.86,470.73 723.80,475.62 726.76,480.52 729.70,480.52 732.64,485.41 735.59,485.41 738.53,490.30 741.48,490.30 744.43,490.30 747.37,495.20 750.31,495.20 753.27,495.20 756.21,495.20 759.15,495.20 762.10,495.20 765.04,495.20 767.98,495.20 770.94,495.20 773.88,495.20 776.82,495.20 779.77,495.20 782.72,495.20 785.66,495.20 788.61,495.20 791.55,495.20 794.49,495.20 797.45,495.20 800.39,495.20 803.33,495.20 806.28,495.20 809.22,495.20 812.17,495.20 815.12,495.20 818.06,495.20 821.00,495.20 823.96,495.20 826.90,500.09 829.84,500.09 832.79,500.09 835.73,504.98 838.67,504.98 841.63,509.87 844.57,514.77 847.51,514.77 850.46,519.66 853.41,524.55 856.35,524.55 859.30,529.45 862.24,534.34 865.18,539.23 868.14,544.12 871.08,549.02 874.02,553.91 876.97,558.80 879.91,563.70 882.85,568.59 885.81,568.59 888.75,573.48 891.69,578.37 894.65,583.27 897.59,588.16 900.53,593.05 903.48,597.95 906.42,602.84 909.36,602.84 912.32,607.73 915.26,612.62 918.20,617.52 921.15,622.41 924.09,622.41 927.04,627.30 929.99,632.19 932.93,632.19 935.87,637.09 938.83,637.09 941.77,641.98 944.71,641.98 947.66,646.87 950.60,646.87 953.54,651.77 956.50,651.77 959.44,651.77 962.38,656.66 965.33,656.66 968.28,656.66 971.22,656.66 974.17,656.66 977.11,656.66 980.05,656.66 983.01,656.66 985.95,661.55 988.89,656.66 991.84,656.66 994.78,656.66 997.73,656.66 1000.68,656.66 1003.62,656.66 1006.56,656.66 1009.52,656.66 1012.46,656.66 1015.40,656.66 1018.35,651.77 1021.29,651.77 1024.23,651.77 1027.19,651.77 1030.13,651.77 1033.07,651.77 1036.02,651.77 1038.97,651.77 1041.91,651.77 1044.86,651.77 1047.80,651.77 1050.74,651.77 1053.70,651.77 1056.64,651.77 1059.58,656.66 1062.53,656.66 1065.47,656.66 1068.42,656.66 1071.37,661.55 1074.31,661.55" fill="none" stroke="#000000" stroke-width="3"/>
<line x1="142" y1="100" x2="178" y2="100" stroke="#000000" stroke-width="4"/>
<text x="188" y="105" font-family="Arial" font-size="18" fill="black">rho</text>
</svg>