<svg xmlns="http://www.w3.org/2000/svg" width="1200" height="820" viewBox="0 0 1200 820">
<rect width="100%" height="100%" fill="white"/>
<text x="600.0" y="36" text-anchor="middle" font-family="Arial" font-size="24" fill="black">profile_center_y: vorticity:0</text>
<line x1="120.00" y1="75" x2="120.00" y2="705" stroke="#dddddd" stroke-width="1"/>
<text x="120.00" y="737" text-anchor="middle" font-family="Arial" font-size="16" fill="black">-0.400</text>
<line x1="376.25" y1="75" x2="376.25" y2="705" stroke="#dddddd" stroke-width="1"/>
<text x="376.25" y="737" text-anchor="middle" font-family="Arial" font-size="16" fill="black">1.050</text>
<line x1="632.50" y1="75" x2="632.50" y2="705" stroke="#dddddd" stroke-width="1"/>
<text x="632.50" y="737" text-anchor="middle" font-family="Arial" font-size="16" fill="black">2.500</text>
<line x1="888.75" y1="75" x2="888.75" y2="705" stroke="#dddddd" stroke-width="1"/>
<text x="888.75" y="737" text-anchor="middle" font-family="Arial" font-size="16" fill="black">3.950</text>
<line x1="1145.00" y1="75" x2="1145.00" y2="705" stroke="#dddddd" stroke-width="1"/>
<text x="1145.00" y="737" text-anchor="middle" font-family="Arial" font-size="16" fill="black">5.400</text>
<line x1="120" y1="705.00" x2="1145" y2="705.00" stroke="#dddddd" stroke-width="1"/>
<text x="104" y="710.00" text-anchor="end" font-family="Arial" font-size="16" fill="black">-2.261</text>
<line x1="120" y1="547.50" x2="1145" y2="547.50" stroke="#dddddd" stroke-width="1"/>
<text x="104" y="552.50" text-anchor="end" font-family="Arial" font-size="16" fill="black">-1.357</text>
<line x1="120" y1="390.00" x2="1145" y2="390.00" stroke="#dddddd" stroke-width="1"/>
<text x="104" y="395.00" text-anchor="end" font-family="Arial" font-size="16" fill="black">-0.454</text>
<line x1="120" y1="232.50" x2="1145" y2="232.50" stroke="#dddddd" stroke-width="1"/>
<text x="104" y="237.50" text-anchor="end" font-family="Arial" font-size="16" fill="black">0.450</text>
<line x1="120" y1="75.00" x2="1145" y2="75.00" stroke="#dddddd" stroke-width="1"/>
<text x="104" y="80.00" text-anchor="end" font-family="Arial" font-size="16" fill="black">1.353</text>
<rect x="120" y="75" width="1025" height="630" fill="none" stroke="black" stroke-width="2"/>
<text x="632.5" y="785" text-anchor="middle" font-family="Arial" font-size="20" fill="black">y coordinate [m]</text>
<text x="34" y="390.0" transform="rotate(-90 34 390.0)" text-anchor="middle" font-family="Arial" font-size="20" fill="black">vorticity:0 [SI]</text>
<polyline points="190.69,479.67 193.64,447.44 196.58,415.21 199.53,382.99 202.47,350.76 205.42,318.53 208.36,286.30 211.31,258.33 214.25,230.35 217.20,202.37 220.14,174.40 223.09,146.42 226.03,118.45 228.98,127.72 231.92,136.99 234.87,146.27 237.82,155.54 240.76,164.82 243.71,174.09 246.65,182.65 249.60,191.21 252.54,199.78 255.49,208.34 258.43,216.90 261.38,225.46 264.33,231.00 267.27,236.55 270.22,242.09 273.16,247.64 276.11,253.18 279.05,258.73 282.00,261.94 284.94,265.16 287.89,268.38 290.83,271.60 293.78,274.81 296.72,278.03 299.67,279.81 302.61,281.60 305.56,283.38 308.51,285.17 311.45,286.95 314.40,288.73 317.34,289.09 320.29,289.46 323.23,289.82 326.18,290.18 329.12,290.54 332.07,290.90 335.01,289.87 337.96,288.83 340.91,287.79 343.85,286.75 346.80,285.72 349.74,284.68 352.69,283.81 355.63,282.94 358.58,282.07 361.52,281.19 364.47,280.32 367.41,279.45 370.37,280.58 373.30,281.70 376.25,282.83 379.20,283.96 382.13,285.08 385.09,286.21 388.04,288.75 390.97,291.29 393.92,293.82 396.87,296.36 399.81,298.90 402.76,301.44 405.71,303.99 408.64,306.54 411.59,309.09 414.55,311.64 417.48,314.19 420.43,316.74 423.38,318.92 426.32,321.09 429.27,323.26 432.22,325.43 435.15,327.60 438.10,329.78 441.05,331.74 443.99,333.70 446.94,335.67 449.89,337.63 452.82,339.60 455.78,341.56 458.73,343.82 461.66,346.09 464.61,348.35 467.56,350.61 470.50,352.88 473.45,355.14 476.40,358.33 479.33,361.52 482.28,364.71 485.24,367.90 488.17,371.09 491.12,374.28 494.07,378.69 497.01,383.11 499.96,387.52 502.91,391.93 505.84,396.35 508.79,400.76 511.74,405.71 514.68,410.65 517.63,415.59 520.58,420.53 523.51,425.48 526.47,430.42 529.42,433.74 532.35,437.06 535.30,440.38 538.25,443.70 541.19,447.02 544.14,450.34 547.09,450.34 550.02,450.33 552.97,450.32 555.93,450.32 558.86,450.31 561.81,450.30 564.76,447.57 567.70,444.84 570.65,442.10 573.60,439.37 576.53,436.64 579.48,433.91 582.43,429.58 585.37,425.25 588.32,420.92 591.27,416.60 594.20,412.27 597.16,407.94 600.11,402.48 603.04,397.02 605.99,391.56 608.94,386.10 611.88,380.63 614.83,375.17 617.78,368.97 620.71,362.76 623.66,356.56 626.62,350.35 629.55,344.14 632.50,337.94 635.45,331.52 638.38,325.10 641.34,318.69 644.29,312.27 647.22,305.85 650.17,299.44 653.12,293.42 656.06,287.41 659.01,281.39 661.96,275.38 664.89,269.37 667.84,263.35 670.80,258.25 673.73,253.16 676.68,248.06 679.63,242.96 682.57,237.86 685.52,232.77 688.47,229.04 691.40,225.31 694.35,221.58 697.30,217.84 700.24,214.12 703.19,210.39 706.14,208.87 709.07,207.35 712.03,205.84 714.98,204.32 717.91,202.81 720.86,201.29 723.81,202.32 726.75,203.35 729.70,204.38 732.65,205.41 735.58,206.44 738.53,207.47 741.49,209.75 744.42,212.02 747.37,214.30 750.32,216.57 753.26,218.85 756.21,221.13 759.16,223.31 762.09,225.50 765.04,227.69 767.99,229.88 770.93,232.07 773.88,234.25 776.83,236.17 779.76,238.10 782.72,240.02 785.67,241.94 788.60,243.86 791.55,245.78 794.50,247.89 797.44,250.00 800.39,252.11 803.34,254.22 806.27,256.33 809.22,258.44 812.18,261.31 815.11,264.17 818.06,267.04 821.01,269.90 823.95,272.77 826.90,275.63 829.85,279.49 832.78,283.36 835.73,287.22 838.68,291.08 841.62,294.94 844.57,298.81 847.52,303.71 850.45,308.62 853.41,313.52 856.36,318.43 859.29,323.33 862.24,328.24 865.19,334.01 868.13,339.78 871.08,345.56 874.03,351.33 876.96,357.11 879.91,362.88 882.87,367.57 885.80,372.27 888.75,376.96 891.70,381.66 894.63,386.35 897.59,391.05 900.54,392.34 903.47,393.64 906.42,394.93 909.37,396.22 912.31,397.52 915.26,398.81 918.21,397.31 921.14,395.80 924.09,394.30 927.05,392.80 929.98,391.30 932.93,389.79 935.88,387.12 938.82,384.45 941.77,381.77 944.72,379.09 947.65,376.42 950.60,373.74 953.55,370.45 956.49,367.15 959.44,363.86 962.39,360.56 965.32,357.26 968.28,353.97 971.23,350.20 974.16,346.44 977.11,342.67 980.06,338.90 983.00,335.14 985.95,331.37 988.90,327.35 991.83,323.33 994.78,319.32 997.74,315.30 1000.67,311.28 1003.62,307.26 1006.57,303.59 1009.51,299.91 1012.46,296.24 1015.41,292.56 1018.34,288.89 1021.29,285.21 1024.24,282.93 1027.18,280.65 1030.13,278.37 1033.08,276.09 1036.01,273.81 1038.97,271.53 1041.92,303.72 1044.85,335.90 1047.80,368.09 1050.75,400.27 1053.69,432.45 1056.64,464.64 1059.59,497.47 1062.52,530.27 1065.47,563.09 1068.43,595.91 1071.36,628.73 1074.31,661.55" fill="none" stroke="#000000" stroke-width="3"/>
<line x1="142" y1="100" x2="178" y2="100" stroke="#000000" stroke-width="4"/>
<text x="188" y="105" font-family="Arial" font-size="18" fill="black">vorticity:0</text>
</svg>