<svg xmlns="http://www.w3.org/2000/svg" width="1200" height="820" viewBox="0 0 1200 820">
<rect width="100%" height="100%" fill="white"/>
<text x="600.0" y="36" text-anchor="middle" font-family="Arial" font-size="24" fill="black">profile_center_x: p</text>
<line x1="120.00" y1="75" x2="120.00" y2="705" stroke="#dddddd" stroke-width="1"/>
<text x="120.00" y="737" text-anchor="middle" font-family="Arial" font-size="16" fill="black">-0.560</text>
<line x1="376.25" y1="75" x2="376.25" y2="705" stroke="#dddddd" stroke-width="1"/>
<text x="376.25" y="737" text-anchor="middle" font-family="Arial" font-size="16" fill="black">1.470</text>
<line x1="632.50" y1="75" x2="632.50" y2="705" stroke="#dddddd" stroke-width="1"/>
<text x="632.50" y="737" text-anchor="middle" font-family="Arial" font-size="16" fill="black">3.500</text>
<line x1="888.75" y1="75" x2="888.75" y2="705" stroke="#dddddd" stroke-width="1"/>
<text x="888.75" y="737" text-anchor="middle" font-family="Arial" font-size="16" fill="black">5.530</text>
<line x1="1145.00" y1="75" x2="1145.00" y2="705" stroke="#dddddd" stroke-width="1"/>
<text x="1145.00" y="737" text-anchor="middle" font-family="Arial" font-size="16" fill="black">7.560</text>
<line x1="120" y1="705.00" x2="1145" y2="705.00" stroke="#dddddd" stroke-width="1"/>
<text x="104" y="710.00" text-anchor="end" font-family="Arial" font-size="16" fill="black">-16.28</text>
<line x1="120" y1="547.50" x2="1145" y2="547.50" stroke="#dddddd" stroke-width="1"/>
<text x="104" y="552.50" text-anchor="end" font-family="Arial" font-size="16" fill="black">-16.26</text>
<line x1="120" y1="390.00" x2="1145" y2="390.00" stroke="#dddddd" stroke-width="1"/>
<text x="104" y="395.00" text-anchor="end" font-family="Arial" font-size="16" fill="black">-16.24</text>
<line x1="120" y1="232.50" x2="1145" y2="232.50" stroke="#dddddd" stroke-width="1"/>
<text x="104" y="237.50" text-anchor="end" font-family="Arial" font-size="16" fill="black">-16.21</text>
<line x1="120" y1="75.00" x2="1145" y2="75.00" stroke="#dddddd" stroke-width="1"/>
<text x="104" y="80.00" text-anchor="end" font-family="Arial" font-size="16" fill="black">-16.19</text>
<rect x="120" y="75" width="1025" height="630" fill="none" stroke="black" stroke-width="2"/>
<text x="632.5" y="785" text-anchor="middle" font-family="Arial" font-size="20" fill="black">x coordinate [m]</text>
<text x="34" y="390.0" transform="rotate(-90 34 390.0)" text-anchor="middle" font-family="Arial" font-size="20" fill="black">p [Pa]</text>
<polyline points="190.69,187.20 193.64,187.20 196.58,194.07 199.53,200.95 202.47,200.95 205.42,207.82 208.36,214.69 211.31,228.44 214.25,235.32 217.20,242.19 220.14,249.07 223.09,255.94 226.03,269.69 228.98,276.57 231.93,283.44 234.87,297.19 237.82,304.07 240.76,310.94 243.71,317.82 246.65,324.69 249.60,338.44 252.54,345.31 255.49,352.19 258.43,352.19 261.38,359.06 264.32,365.94 267.27,372.81 270.22,379.69 273.16,379.69 276.11,386.56 279.05,393.44 282.00,393.44 284.94,393.44 287.89,400.31 290.83,400.31 293.78,400.31 296.72,407.19 299.67,407.19 302.62,407.19 305.56,407.19 308.51,407.19 311.45,407.19 314.40,407.19 317.34,407.19 320.29,407.19 323.23,407.19 326.17,407.19 329.13,407.19 332.07,400.31 335.01,400.31 337.96,400.31 340.91,400.31 343.85,393.44 346.80,393.44 349.74,393.44 352.68,386.56 355.64,386.56 358.58,379.69 361.52,379.69 364.47,372.81 367.41,372.81 370.35,372.81 373.31,365.94 376.25,359.06 379.19,359.06 382.15,352.19 385.09,352.19 388.03,345.31 390.98,345.31 393.92,338.44 396.86,331.56 399.82,331.56 402.76,324.69 405.70,317.82 408.65,310.94 411.59,310.94 414.54,304.07 417.49,297.19 420.43,290.32 423.37,283.44 426.33,276.57 429.27,276.57 432.21,269.69 435.16,262.82 438.10,255.94 441.04,249.07 444.00,242.19 446.94,235.32 449.88,228.44 452.83,221.57 455.78,221.57 458.72,214.69 461.67,207.82 464.61,200.95 467.55,194.07 470.51,194.07 473.45,187.20 476.39,180.32 479.34,180.32 482.28,173.45 485.23,173.45 488.18,166.57 491.12,166.57 494.06,166.57 497.02,159.70 499.96,159.70 502.90,159.70 505.85,159.70 508.79,159.70 511.73,159.70 514.69,159.70 517.63,166.57 520.57,166.57 523.52,166.57 526.47,173.45 529.41,173.45 532.36,180.32 535.30,180.32 538.24,187.20 541.20,194.07 544.14,194.07 547.08,200.95 550.03,207.82 552.97,214.69 555.92,221.57 558.87,228.44 561.81,228.44 564.75,235.32 567.71,242.19 570.65,249.07 573.59,255.94 576.54,262.82 579.48,269.69 582.42,269.69 585.38,276.57 588.32,283.44 591.26,290.32 594.21,290.32 597.16,297.19 600.10,304.07 603.05,310.94 605.99,310.94 608.93,317.82 611.89,317.82 614.83,324.69 617.77,331.56 620.72,331.56 623.66,338.44 626.60,338.44 629.56,345.31 632.50,345.31 635.44,352.19 638.40,352.19 641.34,359.06 644.28,359.06 647.23,365.94 650.17,365.94 653.11,372.81 656.07,372.81 659.01,379.69 661.95,386.56 664.90,386.56 667.84,393.44 670.79,393.44 673.74,400.31 676.68,407.19 679.62,407.19 682.58,414.06 685.52,420.94 688.46,420.94 691.41,427.81 694.35,434.69 697.29,434.69 700.25,441.56 703.19,448.44 706.13,448.44 709.08,455.31 712.03,455.31 714.97,462.18 717.92,462.18 720.86,469.06 723.80,469.06 726.76,475.93 729.70,475.93 732.64,475.93 735.59,482.81 738.53,482.81 741.48,482.81 744.43,482.81 747.37,482.81 750.31,482.81 753.27,482.81 756.21,482.81 759.15,489.68 762.10,482.81 765.04,482.81 767.98,482.81 770.94,482.81 773.88,482.81 776.82,482.81 779.77,482.81 782.72,475.93 785.66,475.93 788.61,475.93 791.55,475.93 794.49,475.93 797.45,475.93 800.39,469.06 803.33,469.06 806.28,469.06 809.22,469.06 812.17,469.06 815.12,469.06 818.06,475.93 821.00,475.93 823.96,475.93 826.90,475.93 829.84,482.81 832.79,482.81 835.73,482.81 838.67,489.68 841.63,496.56 844.57,496.56 847.51,503.43 850.46,510.31 853.41,517.18 856.35,524.06 859.30,524.06 862.24,530.93 865.18,544.68 868.14,551.56 871.08,558.43 874.02,565.31 876.97,572.18 879.91,579.05 882.85,585.93 885.81,599.68 888.75,606.55 891.69,613.43 894.65,620.30 897.59,627.18 900.53,634.05 903.48,640.93 906.42,640.93 909.36,647.80 912.32,654.68 915.26,654.68 918.20,654.68 921.15,661.55 924.09,661.55 927.04,661.55 929.99,661.55 932.93,661.55 935.87,654.68 938.83,654.68 941.77,647.80 944.71,640.93 947.66,634.05 950.60,627.18 953.54,620.30 956.50,613.43 959.44,606.55 962.38,592.80 965.33,579.05 968.28,572.18 971.22,558.43 974.17,544.68 977.11,530.93 980.05,517.18 983.01,503.43 985.95,489.68 988.89,469.06 991.84,455.31 994.78,434.69 997.73,420.94 1000.68,407.19 1003.62,386.56 1006.56,365.94 1009.52,352.19 1012.46,331.56 1015.40,317.82 1018.35,297.19 1021.29,283.44 1024.23,262.82 1027.19,249.07 1030.13,235.32 1033.07,214.69 1036.02,200.95 1038.97,187.20 1041.91,173.45 1044.86,159.70 1047.80,145.95 1050.74,139.07 1053.70,132.20 1056.64,132.20 1059.58,125.32 1062.53,118.45 1065.47,118.45 1068.42,118.45 1071.37,118.45 1074.31,118.45" fill="none" stroke="#000000" stroke-width="3"/>
<line x1="142" y1="100" x2="178" y2="100" stroke="#000000" stroke-width="4"/>
<text x="188" y="105" font-family="Arial" font-size="18" fill="black">p</text>
</svg>