<svg xmlns="http://www.w3.org/2000/svg" width="1200" height="820" viewBox="0 0 1200 820">
<rect width="100%" height="100%" fill="white"/>
<text x="600.0" y="36" text-anchor="middle" font-family="Arial" font-size="24" fill="black">profile_diagonal_supply_return: U, V, W components</text>
<line x1="120.00" y1="75" x2="120.00" y2="705" stroke="#dddddd" stroke-width="1"/>
<text x="120.00" y="737" text-anchor="middle" font-family="Arial" font-size="16" fill="black">-0.729</text>
<line x1="376.25" y1="75" x2="376.25" y2="705" stroke="#dddddd" stroke-width="1"/>
<text x="376.25" y="737" text-anchor="middle" font-family="Arial" font-size="16" fill="black">1.913</text>
<line x1="632.50" y1="75" x2="632.50" y2="705" stroke="#dddddd" stroke-width="1"/>
<text x="632.50" y="737" text-anchor="middle" font-family="Arial" font-size="16" fill="black">4.555</text>
<line x1="888.75" y1="75" x2="888.75" y2="705" stroke="#dddddd" stroke-width="1"/>
<text x="888.75" y="737" text-anchor="middle" font-family="Arial" font-size="16" fill="black">7.197</text>
<line x1="1145.00" y1="75" x2="1145.00" y2="705" stroke="#dddddd" stroke-width="1"/>
<text x="1145.00" y="737" text-anchor="middle" font-family="Arial" font-size="16" fill="black">9.839</text>
<line x1="120" y1="705.00" x2="1145" y2="705.00" stroke="#dddddd" stroke-width="1"/>
<text x="104" y="710.00" text-anchor="end" font-family="Arial" font-size="16" fill="black">-0.204</text>
<line x1="120" y1="547.50" x2="1145" y2="547.50" stroke="#dddddd" stroke-width="1"/>
<text x="104" y="552.50" text-anchor="end" font-family="Arial" font-size="16" fill="black">-0.059</text>
<line x1="120" y1="390.00" x2="1145" y2="390.00" stroke="#dddddd" stroke-width="1"/>
<text x="104" y="395.00" text-anchor="end" font-family="Arial" font-size="16" fill="black">0.087</text>
<line x1="120" y1="232.50" x2="1145" y2="232.50" stroke="#dddddd" stroke-width="1"/>
<text x="104" y="237.50" text-anchor="end" font-family="Arial" font-size="16" fill="black">0.232</text>
<line x1="120" y1="75.00" x2="1145" y2="75.00" stroke="#dddddd" stroke-width="1"/>
<text x="104" y="80.00" text-anchor="end" font-family="Arial" font-size="16" fill="black">0.377</text>
<rect x="120" y="75" width="1025" height="630" fill="none" stroke="black" stroke-width="2"/>
<text x="632.5" y="785" text-anchor="middle" font-family="Arial" font-size="20" fill="black">distance along sample line [m]</text>
<text x="34" y="390.0" transform="rotate(-90 34 390.0)" text-anchor="middle" font-family="Arial" font-size="20" fill="black">velocity component [m/s]</text>
<polyline points="190.69,513.10 193.64,513.51 196.58,513.86 199.53,514.12 202.47,514.30 205.42,514.93 208.36,515.74 211.31,516.53 214.25,517.32 217.20,517.28 220.14,516.29 223.09,514.90 226.03,513.70 228.98,513.57 231.93,511.96 234.87,510.44 237.82,509.02 240.76,507.66 243.71,505.24 246.65,502.86 249.60,500.49 252.54,498.32 255.49,495.59 258.43,492.41 261.38,489.21 264.32,485.74 267.27,482.08 270.22,477.98 273.16,473.85 276.11,469.67 279.05,465.45 282.00,460.30 284.94,455.11 287.88,449.86 290.83,444.57 293.78,439.26 296.73,433.94 299.67,428.14 302.62,422.37 305.57,416.69 308.50,411.13 311.45,405.36 314.40,399.65 317.34,393.62 320.29,387.90 323.24,382.29 326.18,376.79 329.12,371.41 332.07,366.58 335.01,361.69 337.96,356.98 340.91,352.63 343.85,349.11 346.80,346.37 349.74,343.98 352.68,341.84 355.63,340.45 358.58,340.32 361.53,340.67 364.47,341.52 367.42,342.87 370.36,345.76 373.30,349.14 376.25,353.03 379.20,357.45 382.14,362.95 385.09,369.17 388.04,376.01 390.97,383.38 393.92,391.43 396.87,400.14 399.81,408.75 402.76,417.76 405.71,427.01 408.65,436.17 411.59,445.53 414.54,455.07 417.48,464.79 420.43,473.50 423.38,481.67 426.32,489.76 429.27,497.07 432.21,503.27 435.16,508.55 438.10,513.61 441.05,518.12 444.00,521.94 446.94,524.38 449.89,526.59 452.84,528.56 455.77,530.27 458.72,529.91 461.67,529.42 464.61,528.79 467.56,528.01 470.51,526.53 473.45,524.71 476.39,522.60 479.34,520.37 482.28,517.91 485.23,515.20 488.18,512.34 491.12,509.37 494.07,506.19 497.01,503.10 499.96,499.85 502.90,496.43 505.85,492.84 508.80,489.62 511.74,486.12 514.69,482.38 517.63,478.37 520.57,474.68 523.52,471.11 526.47,467.24 529.41,463.01 532.36,458.82 535.31,455.17 538.24,451.17 541.19,446.80 544.14,442.06 547.08,438.43 550.03,434.42 552.98,430.04 555.92,425.29 558.86,421.10 561.81,416.88 564.76,412.58 567.70,407.88 570.65,403.30 573.60,398.99 576.54,394.26 579.49,389.09 582.43,384.18 585.37,379.74 588.32,374.88 591.27,369.60 594.21,363.91 597.16,358.47 600.11,353.49 603.04,348.15 605.99,342.50 608.94,336.82 611.88,331.05 614.83,324.91 617.78,319.49 620.72,313.92 623.66,308.40 626.61,302.59 629.55,296.51 632.50,290.14 635.45,285.43 638.40,280.53 641.34,275.46 644.28,270.18 647.23,265.03 650.17,259.84 653.12,256.00 656.07,252.06 659.01,248.22 661.96,244.57 664.90,241.17 667.84,237.67 670.79,235.76 673.74,234.33 676.68,232.90 679.63,231.45 682.58,229.98 685.51,229.04 688.46,229.78 691.41,230.56 694.35,231.68 697.30,233.14 700.25,234.85 703.20,236.59 706.14,239.62 709.08,242.79 712.03,246.28 714.97,249.83 717.92,253.44 720.87,257.11 723.81,261.89 726.76,266.68 729.70,271.48 732.64,276.30 735.59,281.15 738.54,286.00 741.48,291.13 744.43,296.30 747.38,301.43 750.31,306.50 753.26,311.58 756.21,316.69 759.15,321.50 762.10,326.05 765.05,330.66 767.99,335.33 770.93,340.09 773.88,344.54 776.83,348.30 779.77,352.19 782.72,355.96 785.67,359.49 788.61,362.88 791.55,366.41 794.50,368.99 797.44,371.52 800.39,373.71 803.34,376.11 806.28,378.76 809.23,381.65 812.17,381.89 815.11,382.34 818.06,383.05 821.01,384.01 823.95,384.30 826.90,384.50 829.85,383.54 832.79,382.90 835.73,381.83 838.68,380.07 841.63,377.79 844.57,375.84 847.52,372.59 850.47,368.11 853.41,364.01 856.35,360.24 859.30,356.83 862.24,352.59 865.19,347.33 868.14,342.36 871.08,336.93 874.03,331.53 876.97,326.18 879.91,321.16 882.86,315.66 885.81,310.47 888.75,305.45 891.70,300.70 894.65,296.21 897.58,291.99 900.53,287.04 903.48,282.43 906.43,278.11 909.37,274.11 912.32,270.71 915.27,267.70 918.20,264.67 921.15,261.92 924.10,259.70 927.04,258.09 929.99,256.04 932.94,254.27 935.88,252.82 938.82,252.36 941.77,252.17 944.71,252.21 947.66,252.51 950.61,253.96 953.55,255.94 956.50,258.18 959.44,259.94 962.38,262.77 965.33,266.56 968.28,270.75 971.22,275.90 974.17,282.05 977.12,290.10 980.06,298.94 983.00,308.64 985.95,319.23 988.90,334.09 991.84,351.16 994.79,370.63 997.74,392.71 1000.68,416.59 1003.62,442.60 1006.57,473.73 1009.51,506.84 1012.46,535.26 1015.41,554.67 1018.35,576.59 1021.30,596.30 1024.24,612.67 1027.18,619.35 1030.13,622.75 1033.08,622.85 1036.02,619.62 1038.97,620.93 1041.92,621.44 1044.86,620.50 1047.80,617.64 1050.75,613.24 1053.70,607.32 1056.64,600.07 1059.59,588.43 1062.54,578.48 1065.47,573.86 1068.42,568.97 1071.37,563.80 1074.31,558.35" fill="none" stroke="#000000" stroke-width="3"/>
<line x1="142" y1="100" x2="178" y2="100" stroke="#000000" stroke-width="4"/>
<text x="188" y="105" font-family="Arial" font-size="18" fill="black">Ux / u</text>
<polyline points="190.69,532.81 193.64,539.33 196.58,545.73 199.53,552.02 202.47,558.19 205.42,565.30 208.36,572.71 211.31,585.54 214.25,598.16 217.20,609.87 220.14,620.39 223.09,628.73 226.03,636.41 228.98,643.28 231.93,648.77 234.87,653.48 237.82,657.36 240.76,660.38 243.71,661.55 246.65,659.85 249.60,657.34 252.54,655.53 255.49,652.51 258.43,648.54 261.38,643.99 264.32,637.88 267.27,631.45 270.22,625.17 273.16,618.67 276.11,611.97 279.05,605.06 282.00,600.60 284.94,596.06 287.88,591.45 290.83,586.77 293.78,583.17 296.73,579.99 299.67,576.58 302.62,573.18 305.57,570.40 308.50,568.47 311.45,567.63 314.40,566.74 317.34,566.03 320.29,566.02 323.24,566.08 326.18,566.22 329.12,566.44 332.07,566.72 335.01,567.58 337.96,568.69 340.91,571.01 343.85,573.01 346.80,574.89 349.74,577.06 352.68,580.19 355.63,583.16 358.58,585.17 361.53,587.47 364.47,590.05 367.42,592.91 370.36,594.55 373.30,596.16 376.25,597.69 379.20,599.14 382.14,597.67 385.09,594.77 388.04,591.85 390.97,588.49 393.92,583.16 396.87,575.27 399.81,567.45 402.76,559.03 405.71,549.91 408.65,538.96 411.59,527.56 414.54,515.70 417.48,503.41 420.43,491.86 423.38,480.49 426.32,468.99 429.27,458.13 432.21,448.63 435.16,440.13 438.10,431.53 441.05,423.04 444.00,415.04 446.94,408.41 449.89,401.69 452.84,394.88 455.77,387.99 458.72,383.08 461.67,378.16 464.61,373.23 467.56,368.30 470.51,363.99 473.45,360.02 476.39,356.53 479.34,353.16 482.28,350.23 485.23,347.93 488.18,346.55 491.12,345.33 494.07,344.96 497.01,345.58 499.96,346.43 502.90,347.49 505.85,348.75 508.80,351.08 511.74,354.29 514.69,357.73 517.63,361.91 520.57,366.79 523.52,372.19 526.47,377.67 529.41,383.57 532.36,389.79 535.31,396.65 538.24,403.53 541.19,410.40 544.14,417.28 547.08,425.01 550.03,432.63 552.98,440.16 555.92,447.58 558.86,455.11 561.81,462.62 564.76,469.48 567.70,476.23 570.65,482.79 573.60,489.11 576.54,495.40 579.49,501.60 582.43,506.76 585.37,511.22 588.32,515.64 591.27,520.03 594.21,524.41 597.16,527.90 600.11,530.41 603.04,532.94 605.99,535.38 608.94,537.21 611.88,538.64 614.83,540.12 617.78,540.95 620.72,541.49 623.66,541.34 626.61,541.24 629.55,541.18 632.50,541.15 635.45,539.50 638.40,537.86 641.34,536.22 644.28,534.57 647.23,532.33 650.17,529.85 653.12,527.02 656.07,524.12 659.01,520.86 661.96,517.16 664.90,513.26 667.84,509.29 670.79,505.08 673.74,500.41 676.68,495.62 679.63,490.71 682.58,485.67 685.51,480.38 688.46,475.12 691.41,469.75 694.35,464.34 697.30,458.91 700.25,453.46 703.20,447.94 706.14,442.80 709.08,437.66 712.03,432.62 714.97,427.51 717.92,422.35 720.87,417.11 723.81,412.76 726.76,408.38 729.70,403.97 732.64,399.53 735.59,395.17 738.54,390.83 741.48,386.83 744.43,382.80 747.38,378.77 750.31,374.77 753.26,370.98 756.21,367.20 759.15,363.54 762.10,359.90 765.05,356.23 767.99,352.57 770.93,348.91 773.88,345.23 776.83,341.46 779.77,337.67 782.72,334.04 785.67,330.39 788.61,326.72 791.55,323.07 794.50,319.15 797.44,315.19 800.39,311.17 803.34,307.12 806.28,303.03 809.23,298.91 812.17,294.53 815.11,290.11 818.06,285.64 821.01,281.09 823.95,276.48 826.90,271.80 829.85,266.93 832.79,261.93 835.73,256.86 838.68,251.71 841.63,246.56 844.57,241.31 847.52,236.19 850.47,231.26 853.41,226.18 856.35,220.94 859.30,215.51 862.24,210.43 865.19,205.77 868.14,200.89 871.08,196.08 874.03,191.52 876.97,187.10 879.91,182.53 882.86,178.65 885.81,174.76 888.75,171.19 891.70,167.41 894.65,163.46 897.58,159.30 900.53,157.04 903.48,154.61 906.43,151.99 909.37,149.16 912.32,146.53 915.27,143.89 918.20,142.37 921.15,140.63 924.10,138.87 927.04,137.14 929.99,135.26 932.94,133.16 935.88,132.34 938.82,131.48 941.77,130.37 944.71,129.02 947.66,127.40 950.61,125.56 953.55,125.54 956.50,125.30 959.44,124.17 962.38,122.63 965.33,120.71 968.28,118.45 971.22,119.29 974.17,119.92 977.12,120.29 980.06,120.51 983.00,120.57 985.95,120.50 988.90,123.23 991.84,126.10 994.79,129.13 997.74,132.34 1000.68,136.29 1003.62,140.64 1006.57,148.89 1009.51,156.92 1012.46,164.92 1015.41,173.42 1018.35,180.92 1021.30,188.80 1024.24,201.22 1027.18,215.17 1030.13,230.13 1033.08,245.97 1036.02,262.51 1038.97,276.52 1041.92,291.33 1044.86,306.24 1047.80,321.27 1050.75,332.57 1053.70,341.48 1056.64,350.59 1059.59,351.81 1062.54,353.63 1065.47,356.78 1068.42,360.15 1071.37,363.76 1074.31,367.59" fill="none" stroke="#555555" stroke-width="3" stroke-dasharray="9 5"/>
<line x1="142" y1="128" x2="178" y2="128" stroke="#555555" stroke-width="4" stroke-dasharray="9 5"/>
<text x="188" y="133" font-family="Arial" font-size="18" fill="black">Uy / v</text>
<polyline points="190.69,402.96 193.64,401.44 196.58,399.90 199.53,398.35 202.47,396.79 205.42,395.61 208.36,394.64 211.31,394.71 214.25,394.93 217.20,395.44 220.14,396.44 223.09,395.26 226.03,394.72 228.98,394.32 231.93,394.50 234.87,395.44 237.82,397.19 240.76,399.80 243.71,403.05 246.65,406.33 249.60,410.47 252.54,416.54 255.49,423.06 258.43,430.10 261.38,437.94 264.32,445.51 267.27,453.30 270.22,460.49 273.16,468.19 276.11,476.39 279.05,485.08 282.00,490.89 284.94,496.80 287.88,502.79 290.83,508.84 293.78,513.49 296.73,517.47 299.67,519.60 302.62,521.54 305.57,522.61 308.50,522.53 311.45,522.61 314.40,522.34 317.34,520.19 320.29,517.41 323.24,514.24 326.18,510.66 329.12,506.64 332.07,503.08 335.01,498.32 337.96,493.22 340.91,487.76 343.85,482.35 346.80,476.87 349.74,470.94 352.68,464.28 355.63,457.17 358.58,449.59 361.53,441.59 364.47,433.17 367.42,424.31 370.36,415.20 373.30,405.78 376.25,396.06 379.20,386.06 382.14,375.49 385.09,364.66 388.04,355.35 390.97,345.98 393.92,337.04 396.87,328.84 399.81,321.23 402.76,313.88 405.71,308.41 408.65,305.59 411.59,303.17 414.54,301.20 417.48,299.69 420.43,299.51 423.38,300.70 426.32,302.29 429.27,304.99 432.21,307.44 435.16,309.78 438.10,312.52 441.05,316.38 444.00,320.34 446.94,323.85 449.89,327.69 452.84,331.84 455.77,336.30 458.72,341.40 461.67,346.59 464.61,351.86 467.56,357.19 470.51,362.18 473.45,366.94 476.39,372.58 479.34,378.08 482.28,383.24 485.23,387.86 488.18,392.16 491.12,396.17 494.07,401.02 497.01,405.13 499.96,408.87 502.90,412.23 505.85,415.24 508.80,417.56 511.74,420.75 514.69,423.57 517.63,426.13 520.57,428.27 523.52,430.05 526.47,431.55 529.41,433.95 532.36,436.12 535.31,438.06 538.24,439.86 541.19,441.54 544.14,443.12 547.08,445.48 550.03,447.80 552.98,450.13 555.92,452.48 558.86,455.02 561.81,457.73 564.76,460.34 567.70,463.11 570.65,466.20 573.60,469.70 576.54,473.28 579.49,477.05 582.43,479.77 585.37,483.03 588.32,486.43 591.27,489.99 594.21,493.72 597.16,497.99 600.11,500.22 603.04,502.51 605.99,504.64 608.94,507.08 611.88,509.70 614.83,512.33 617.78,512.10 620.72,511.96 623.66,512.05 626.61,512.02 629.55,511.86 632.50,511.56 635.45,508.40 638.40,505.06 641.34,501.56 644.28,497.86 647.23,494.63 650.17,491.43 653.12,484.45 656.07,477.23 659.01,470.33 661.96,463.97 664.90,457.73 667.84,451.30 670.79,441.76 673.74,433.62 676.68,425.40 679.63,417.07 682.58,408.65 685.51,401.92 688.46,393.58 691.41,385.41 694.35,377.85 697.30,371.58 700.25,366.35 703.20,361.27 706.14,356.27 709.08,351.95 712.03,348.89 714.97,346.08 717.92,343.54 720.87,341.29 723.81,341.21 726.76,341.29 729.70,341.52 732.64,341.93 735.59,342.47 738.54,343.14 741.48,345.15 744.43,347.25 747.38,349.23 750.31,350.99 753.26,352.90 756.21,354.86 759.15,357.79 762.10,359.92 765.05,362.04 767.99,364.20 770.93,366.40 773.88,367.55 776.83,369.48 779.77,371.44 782.72,373.18 785.67,373.98 788.61,374.05 791.55,374.14 794.50,375.16 797.44,375.61 800.39,374.55 803.34,373.53 806.28,372.59 809.23,371.73 812.17,368.60 815.11,365.53 818.06,362.56 821.01,359.69 823.95,354.34 826.90,348.03 829.85,343.46 832.79,339.09 835.73,333.38 838.68,325.77 841.63,317.92 844.57,310.34 847.52,305.07 850.47,298.60 853.41,292.46 856.35,286.64 859.30,281.15 862.24,276.18 865.19,274.07 868.14,272.12 871.08,270.43 874.03,269.91 876.97,270.12 879.91,270.33 882.86,273.02 885.81,276.34 888.75,280.99 891.70,285.39 894.65,289.54 897.58,293.44 900.53,301.22 903.48,308.59 906.43,315.55 909.37,322.11 912.32,329.78 915.27,337.45 918.20,344.93 921.15,351.78 924.10,358.88 927.04,366.36 929.99,373.72 932.94,380.33 935.88,386.17 938.82,392.68 941.77,398.25 944.71,402.89 947.66,406.62 950.61,410.78 953.55,413.27 956.50,414.65 959.44,415.63 962.38,416.31 965.33,416.44 968.28,415.29 971.22,411.61 974.17,406.99 977.12,402.42 980.06,396.42 983.00,388.98 985.95,380.11 988.90,373.62 991.84,366.10 994.79,357.66 997.74,348.45 1000.68,347.34 1003.62,351.74 1006.57,362.98 1009.51,377.26 1012.46,394.14 1015.41,412.70 1018.35,432.85 1021.30,458.68 1024.24,488.46 1027.18,498.32 1030.13,507.71 1033.08,516.65 1036.02,525.19 1038.97,526.96 1041.92,526.13 1044.86,524.71 1047.80,525.17 1050.75,523.42 1053.70,520.35 1056.64,517.32 1059.59,514.59 1062.54,511.92 1065.47,509.24 1068.42,506.68 1071.37,504.25 1074.31,501.93" fill="none" stroke="#999999" stroke-width="3" stroke-dasharray="3 4"/>
<line x1="142" y1="156" x2="178" y2="156" stroke="#999999" stroke-width="4" stroke-dasharray="3 4"/>
<text x="188" y="161" font-family="Arial" font-size="18" fill="black">Uz / w</text>
</svg>