<svg xmlns="http://www.w3.org/2000/svg" width="1200" height="820" viewBox="0 0 1200 820">
<rect width="100%" height="100%" fill="white"/>
<text x="600.0" y="36" text-anchor="middle" font-family="Arial" font-size="24" fill="black">profile_center_z: vorticity:0</text>
<line x1="120.00" y1="75" x2="120.00" y2="705" stroke="#dddddd" stroke-width="1"/>
<text x="120.00" y="737" text-anchor="middle" font-family="Arial" font-size="16" fill="black">-0.240</text>
<line x1="376.25" y1="75" x2="376.25" y2="705" stroke="#dddddd" stroke-width="1"/>
<text x="376.25" y="737" text-anchor="middle" font-family="Arial" font-size="16" fill="black">0.630</text>
<line x1="632.50" y1="75" x2="632.50" y2="705" stroke="#dddddd" stroke-width="1"/>
<text x="632.50" y="737" text-anchor="middle" font-family="Arial" font-size="16" fill="black">1.500</text>
<line x1="888.75" y1="75" x2="888.75" y2="705" stroke="#dddddd" stroke-width="1"/>
<text x="888.75" y="737" text-anchor="middle" font-family="Arial" font-size="16" fill="black">2.370</text>
<line x1="1145.00" y1="75" x2="1145.00" y2="705" stroke="#dddddd" stroke-width="1"/>
<text x="1145.00" y="737" text-anchor="middle" font-family="Arial" font-size="16" fill="black">3.240</text>
<line x1="120" y1="705.00" x2="1145" y2="705.00" stroke="#dddddd" stroke-width="1"/>
<text x="104" y="710.00" text-anchor="end" font-family="Arial" font-size="16" fill="black">-0.920</text>
<line x1="120" y1="547.50" x2="1145" y2="547.50" stroke="#dddddd" stroke-width="1"/>
<text x="104" y="552.50" text-anchor="end" font-family="Arial" font-size="16" fill="black">-0.402</text>
<line x1="120" y1="390.00" x2="1145" y2="390.00" stroke="#dddddd" stroke-width="1"/>
<text x="104" y="395.00" text-anchor="end" font-family="Arial" font-size="16" fill="black">0.115</text>
<line x1="120" y1="232.50" x2="1145" y2="232.50" stroke="#dddddd" stroke-width="1"/>
<text x="104" y="237.50" text-anchor="end" font-family="Arial" font-size="16" fill="black">0.633</text>
<line x1="120" y1="75.00" x2="1145" y2="75.00" stroke="#dddddd" stroke-width="1"/>
<text x="104" y="80.00" text-anchor="end" font-family="Arial" font-size="16" fill="black">1.150</text>
<rect x="120" y="75" width="1025" height="630" fill="none" stroke="black" stroke-width="2"/>
<text x="632.5" y="785" text-anchor="middle" font-family="Arial" font-size="20" fill="black">z coordinate [m]</text>
<text x="34" y="390.0" transform="rotate(-90 34 390.0)" text-anchor="middle" font-family="Arial" font-size="20" fill="black">vorticity:0 [SI]</text>
<polyline points="190.69,409.69 193.64,409.89 196.58,410.09 199.53,410.29 202.47,410.50 205.42,410.70 208.36,410.90 211.31,411.10 214.25,411.30 217.20,411.50 220.14,411.70 223.09,411.85 226.03,412.01 228.98,412.16 231.93,412.32 234.87,412.47 237.82,412.62 240.76,412.78 243.71,412.93 246.65,413.09 249.60,413.24 252.54,413.15 255.49,413.07 258.43,412.99 261.38,412.90 264.32,412.82 267.27,412.73 270.22,412.65 273.16,412.56 276.11,412.48 279.05,412.40 282.00,412.34 284.94,412.28 287.89,412.22 290.83,412.16 293.78,412.10 296.72,412.04 299.67,411.99 302.61,411.93 305.56,411.87 308.51,411.81 311.45,411.87 314.40,411.93 317.34,411.99 320.29,412.05 323.23,412.11 326.18,412.17 329.12,412.23 332.07,412.29 335.01,412.35 337.96,412.41 340.91,412.86 343.85,413.31 346.80,413.76 349.74,414.22 352.69,414.67 355.63,415.12 358.58,415.57 361.52,416.02 364.47,416.47 367.41,416.93 370.36,417.97 373.30,419.02 376.25,420.07 379.20,421.11 382.14,422.16 385.09,423.21 388.03,424.25 390.98,425.30 393.92,426.35 396.87,427.40 399.81,428.36 402.76,429.32 405.70,430.28 408.65,431.24 411.59,432.20 414.54,433.16 417.49,434.13 420.43,435.09 423.38,436.05 426.32,437.01 429.27,437.29 432.21,437.56 435.16,437.84 438.10,438.11 441.05,438.39 443.99,438.66 446.94,438.94 449.89,439.21 452.83,439.49 455.78,439.76 458.72,439.87 461.67,439.98 464.61,440.09 467.56,440.21 470.50,440.32 473.45,440.43 476.39,440.54 479.34,440.65 482.28,440.76 485.23,440.87 488.18,441.14 491.12,441.41 494.07,441.68 497.01,441.95 499.96,442.22 502.90,442.49 505.85,442.76 508.79,443.03 511.74,443.30 514.68,443.57 517.63,443.91 520.57,444.26 523.52,444.60 526.47,444.95 529.41,445.29 532.36,445.64 535.30,445.98 538.25,446.33 541.19,446.67 544.14,447.01 547.08,447.53 550.03,448.05 552.97,448.57 555.92,449.08 558.86,449.60 561.81,450.12 564.76,450.63 567.70,451.15 570.65,451.67 573.59,452.19 576.54,453.00 579.48,453.81 582.43,454.62 585.37,455.44 588.32,456.25 591.26,457.06 594.21,457.88 597.16,458.69 600.10,459.50 603.05,460.31 605.99,461.51 608.94,462.71 611.88,463.90 614.83,465.10 617.77,466.30 620.72,467.49 623.66,468.69 626.61,469.88 629.55,471.08 632.50,472.27 635.45,473.92 638.39,475.56 641.34,477.21 644.28,478.85 647.23,480.49 650.17,482.14 653.12,483.78 656.06,485.43 659.01,487.07 661.95,488.71 664.90,490.85 667.84,492.99 670.79,495.13 673.74,497.27 676.68,499.41 679.63,501.55 682.57,503.69 685.52,505.83 688.46,507.97 691.41,510.11 694.35,512.77 697.30,515.42 700.24,518.07 703.19,520.73 706.14,523.38 709.08,526.03 712.03,528.69 714.97,531.34 717.92,533.99 720.86,536.65 723.81,539.71 726.75,542.78 729.70,545.84 732.64,548.90 735.59,551.96 738.53,555.02 741.48,558.09 744.43,561.15 747.37,564.21 750.32,567.28 753.26,570.46 756.21,573.64 759.15,576.82 762.10,580.00 765.04,583.19 767.99,586.37 770.93,589.55 773.88,592.73 776.82,595.92 779.77,599.10 782.72,602.01 785.66,604.92 788.61,607.83 791.55,610.74 794.50,613.66 797.44,616.57 800.39,619.48 803.33,622.39 806.28,625.30 809.22,628.21 812.17,630.42 815.11,632.62 818.06,634.82 821.01,637.02 823.95,639.22 826.90,641.42 829.84,643.63 832.79,645.83 835.73,648.03 838.68,650.23 841.62,651.36 844.57,652.50 847.51,653.63 850.46,654.76 853.41,655.89 856.35,657.02 859.30,658.15 862.24,659.29 865.19,660.42 868.13,661.55 871.08,661.46 874.02,661.37 876.97,661.28 879.91,661.19 882.86,661.10 885.80,661.00 888.75,660.91 891.70,660.82 894.64,660.73 897.59,660.64 900.53,659.22 903.48,657.80 906.42,656.38 909.37,654.96 912.31,653.55 915.26,652.13 918.20,650.71 921.15,649.29 924.09,647.87 927.04,646.45 929.99,643.66 932.93,640.86 935.88,638.07 938.82,635.27 941.77,632.47 944.71,629.68 947.66,626.88 950.60,624.09 953.55,621.29 956.49,618.50 959.44,614.53 962.39,610.56 965.33,606.60 968.28,602.63 971.22,598.66 974.17,594.70 977.11,590.73 980.06,586.77 983.00,582.80 985.95,578.83 988.89,574.70 991.84,570.57 994.78,566.44 997.73,562.30 1000.68,558.17 1003.62,554.04 1006.57,549.90 1009.51,545.77 1012.46,541.64 1015.40,537.51 1018.35,515.60 1021.29,493.70 1024.24,471.80 1027.18,449.89 1030.13,427.99 1033.07,406.08 1036.02,384.18 1038.97,362.27 1041.91,340.37 1044.86,318.46 1047.80,298.47 1050.75,278.46 1053.69,258.46 1056.64,238.46 1059.58,218.46 1062.53,198.46 1065.47,178.46 1068.42,158.46 1071.36,138.46 1074.31,118.45" fill="none" stroke="#000000" stroke-width="3"/>
<line x1="142" y1="100" x2="178" y2="100" stroke="#000000" stroke-width="4"/>
<text x="188" y="105" font-family="Arial" font-size="18" fill="black">vorticity:0</text>
</svg>