<svg xmlns="http://www.w3.org/2000/svg" width="1200" height="820" viewBox="0 0 1200 820">
<rect width="100%" height="100%" fill="white"/>
<text x="600.0" y="36" text-anchor="middle" font-family="Arial" font-size="24" fill="black">profile_diagonal_supply_return: Q</text>
<line x1="120.00" y1="75" x2="120.00" y2="705" stroke="#dddddd" stroke-width="1"/>
<text x="120.00" y="737" text-anchor="middle" font-family="Arial" font-size="16" fill="black">-0.729</text>
<line x1="376.25" y1="75" x2="376.25" y2="705" stroke="#dddddd" stroke-width="1"/>
<text x="376.25" y="737" text-anchor="middle" font-family="Arial" font-size="16" fill="black">1.913</text>
<line x1="632.50" y1="75" x2="632.50" y2="705" stroke="#dddddd" stroke-width="1"/>
<text x="632.50" y="737" text-anchor="middle" font-family="Arial" font-size="16" fill="black">4.555</text>
<line x1="888.75" y1="75" x2="888.75" y2="705" stroke="#dddddd" stroke-width="1"/>
<text x="888.75" y="737" text-anchor="middle" font-family="Arial" font-size="16" fill="black">7.197</text>
<line x1="1145.00" y1="75" x2="1145.00" y2="705" stroke="#dddddd" stroke-width="1"/>
<text x="1145.00" y="737" text-anchor="middle" font-family="Arial" font-size="16" fill="black">9.839</text>
<line x1="120" y1="705.00" x2="1145" y2="705.00" stroke="#dddddd" stroke-width="1"/>
<text x="104" y="710.00" text-anchor="end" font-family="Arial" font-size="16" fill="black">-1.959</text>
<line x1="120" y1="547.50" x2="1145" y2="547.50" stroke="#dddddd" stroke-width="1"/>
<text x="104" y="552.50" text-anchor="end" font-family="Arial" font-size="16" fill="black">-1.383</text>
<line x1="120" y1="390.00" x2="1145" y2="390.00" stroke="#dddddd" stroke-width="1"/>
<text x="104" y="395.00" text-anchor="end" font-family="Arial" font-size="16" fill="black">-0.807</text>
<line x1="120" y1="232.50" x2="1145" y2="232.50" stroke="#dddddd" stroke-width="1"/>
<text x="104" y="237.50" text-anchor="end" font-family="Arial" font-size="16" fill="black">-0.230</text>
<line x1="120" y1="75.00" x2="1145" y2="75.00" stroke="#dddddd" stroke-width="1"/>
<text x="104" y="80.00" text-anchor="end" font-family="Arial" font-size="16" fill="black">0.346</text>
<rect x="120" y="75" width="1025" height="630" fill="none" stroke="black" stroke-width="2"/>
<text x="632.5" y="785" text-anchor="middle" font-family="Arial" font-size="20" fill="black">distance along sample line [m]</text>
<text x="34" y="390.0" transform="rotate(-90 34 390.0)" text-anchor="middle" font-family="Arial" font-size="20" fill="black">Q [SI]</text>
<polyline points="190.69,302.42 193.64,305.09 196.58,307.36 199.53,309.10 202.47,310.18 205.42,311.05 208.36,310.96 211.31,306.03 214.25,299.38 217.20,290.09 220.14,277.69 223.09,261.50 226.03,244.12 228.98,229.78 231.93,216.22 234.87,203.06 237.82,190.38 240.76,178.26 243.71,167.04 246.65,157.70 249.60,148.85 252.54,142.46 255.49,137.02 258.43,132.41 261.38,128.22 264.32,126.12 267.27,124.76 270.22,124.35 273.16,124.18 276.11,124.25 279.05,124.55 282.00,127.17 284.94,129.69 287.88,132.10 290.83,134.45 293.78,136.61 296.73,138.61 299.67,140.82 302.62,142.87 305.57,144.95 308.50,147.14 311.45,149.74 314.40,152.19 317.34,154.18 320.29,156.33 323.24,158.35 326.18,160.25 329.12,162.04 332.07,163.60 335.01,164.52 337.96,165.41 340.91,166.40 343.85,167.41 346.80,168.51 349.74,169.72 352.68,170.28 355.63,171.14 358.58,172.33 361.53,173.77 364.47,175.47 367.42,177.42 370.36,178.20 373.30,178.97 376.25,179.73 379.20,180.46 382.14,180.43 385.09,179.92 388.04,178.93 390.97,177.63 393.92,175.89 396.87,173.70 399.81,171.07 402.76,168.23 405.71,165.49 408.65,163.19 411.59,160.88 414.54,158.57 417.48,156.29 420.43,154.66 423.38,153.28 426.32,152.01 429.27,150.77 432.21,149.90 435.16,149.31 438.10,148.82 441.05,148.27 444.00,147.97 446.94,148.14 449.89,148.37 452.84,148.66 455.77,149.03 458.72,149.30 461.67,149.59 464.61,149.91 467.56,150.26 470.51,150.51 473.45,150.72 476.39,150.70 479.34,150.67 482.28,150.51 485.23,150.17 488.18,149.81 491.12,149.43 494.07,148.94 497.01,148.20 499.96,147.44 502.90,146.64 505.85,145.79 508.80,144.75 511.74,143.75 514.69,142.64 517.63,141.52 520.57,140.31 523.52,138.97 526.47,137.52 529.41,136.31 532.36,134.98 535.31,133.56 538.24,131.99 541.19,130.28 544.14,128.41 547.08,127.63 550.03,126.76 552.98,125.80 555.92,124.75 558.86,123.90 561.81,123.09 564.76,123.29 567.70,123.46 570.65,123.92 573.60,124.80 576.54,125.88 579.49,126.92 582.43,128.87 585.37,131.48 588.32,134.06 591.27,136.62 594.21,139.17 597.16,142.25 600.11,145.50 603.04,148.71 605.99,151.82 608.94,155.05 611.88,158.36 614.83,161.61 617.78,164.29 620.72,166.92 623.66,169.52 626.61,172.06 629.55,174.54 632.50,176.98 635.45,178.21 638.40,179.41 641.34,180.59 644.28,181.72 647.23,182.47 650.17,183.04 653.12,182.81 656.07,182.52 659.01,181.90 661.96,180.90 664.90,179.86 667.84,178.77 670.79,177.00 673.74,174.74 676.68,172.38 679.63,169.91 682.58,167.30 685.51,164.42 688.46,161.08 691.41,157.64 694.35,154.27 697.30,150.94 700.25,147.69 703.20,144.39 706.14,141.08 709.08,137.90 712.03,135.12 714.97,132.37 717.92,129.64 720.87,126.93 723.81,125.41 726.76,123.94 729.70,122.52 732.64,121.14 735.59,120.14 738.54,119.32 741.48,118.93 744.43,118.59 747.38,118.45 750.31,118.57 753.26,118.99 756.21,119.44 759.15,120.29 762.10,121.46 765.05,122.65 767.99,123.85 770.93,125.07 773.88,126.62 776.83,128.45 779.77,130.29 782.72,132.42 785.67,134.79 788.61,137.34 791.55,139.93 794.50,142.67 797.44,145.53 800.39,148.72 803.34,151.96 806.28,155.25 809.23,158.60 812.17,162.48 815.11,166.41 818.06,170.40 821.01,174.47 823.95,178.56 826.90,182.75 829.85,186.52 832.79,190.39 835.73,193.96 838.68,197.14 841.63,200.48 844.57,204.01 847.52,206.30 850.47,207.15 853.41,208.17 856.35,209.39 859.30,210.81 862.24,210.88 865.19,209.42 868.14,208.15 871.08,206.72 874.03,204.69 876.97,202.27 879.91,200.05 882.86,196.86 885.81,193.59 888.75,189.88 891.70,186.36 894.65,183.04 897.58,179.90 900.53,176.00 903.48,172.32 906.43,168.84 909.37,165.55 912.32,162.43 915.27,159.49 918.20,157.36 921.15,155.38 924.10,153.67 927.04,152.27 929.99,151.20 932.94,150.34 935.88,151.05 938.82,152.39 941.77,153.95 944.71,155.73 947.66,157.75 950.61,160.52 953.55,166.30 956.50,172.57 959.44,180.84 962.38,190.33 965.33,201.05 968.28,212.88 971.22,230.43 974.17,249.68 977.12,270.63 980.06,293.49 983.00,318.44 985.95,345.63 988.90,389.04 991.84,439.03 994.79,496.07 997.74,560.66 1000.68,604.42 1003.62,633.29 1006.57,652.42 1009.51,661.55 1012.46,650.89 1015.41,616.09 1018.35,532.72 1021.30,434.35 1024.24,335.28 1027.18,312.72 1030.13,297.65 1033.08,288.65 1036.02,284.31 1038.97,283.08 1041.92,283.29 1044.86,286.30 1047.80,291.85 1050.75,310.15 1053.70,337.70 1056.64,367.08 1059.59,390.46 1062.54,410.63 1065.47,421.85 1068.42,429.80 1071.37,434.56 1074.31,436.17" fill="none" stroke="#000000" stroke-width="3"/>
<line x1="142" y1="100" x2="178" y2="100" stroke="#000000" stroke-width="4"/>
<text x="188" y="105" font-family="Arial" font-size="18" fill="black">Q</text>
</svg>