<svg xmlns="http://www.w3.org/2000/svg" width="1200" height="820" viewBox="0 0 1200 820">
<rect width="100%" height="100%" fill="white"/>
<text x="600.0" y="36" text-anchor="middle" font-family="Arial" font-size="24" fill="black">profile_near_ceiling_x: T</text>
<line x1="120.00" y1="75" x2="120.00" y2="705" stroke="#dddddd" stroke-width="1"/>
<text x="120.00" y="737" text-anchor="middle" font-family="Arial" font-size="16" fill="black">-0.560</text>
<line x1="376.25" y1="75" x2="376.25" y2="705" stroke="#dddddd" stroke-width="1"/>
<text x="376.25" y="737" text-anchor="middle" font-family="Arial" font-size="16" fill="black">1.470</text>
<line x1="632.50" y1="75" x2="632.50" y2="705" stroke="#dddddd" stroke-width="1"/>
<text x="632.50" y="737" text-anchor="middle" font-family="Arial" font-size="16" fill="black">3.500</text>
<line x1="888.75" y1="75" x2="888.75" y2="705" stroke="#dddddd" stroke-width="1"/>
<text x="888.75" y="737" text-anchor="middle" font-family="Arial" font-size="16" fill="black">5.530</text>
<line x1="1145.00" y1="75" x2="1145.00" y2="705" stroke="#dddddd" stroke-width="1"/>
<text x="1145.00" y="737" text-anchor="middle" font-family="Arial" font-size="16" fill="black">7.560</text>
<line x1="120" y1="705.00" x2="1145" y2="705.00" stroke="#dddddd" stroke-width="1"/>
<text x="104" y="710.00" text-anchor="end" font-family="Arial" font-size="16" fill="black">322.9</text>
<line x1="120" y1="547.50" x2="1145" y2="547.50" stroke="#dddddd" stroke-width="1"/>
<text x="104" y="552.50" text-anchor="end" font-family="Arial" font-size="16" fill="black">325.0</text>
<line x1="120" y1="390.00" x2="1145" y2="390.00" stroke="#dddddd" stroke-width="1"/>
<text x="104" y="395.00" text-anchor="end" font-family="Arial" font-size="16" fill="black">327.1</text>
<line x1="120" y1="232.50" x2="1145" y2="232.50" stroke="#dddddd" stroke-width="1"/>
<text x="104" y="237.50" text-anchor="end" font-family="Arial" font-size="16" fill="black">329.2</text>
<line x1="120" y1="75.00" x2="1145" y2="75.00" stroke="#dddddd" stroke-width="1"/>
<text x="104" y="80.00" text-anchor="end" font-family="Arial" font-size="16" fill="black">331.3</text>
<rect x="120" y="75" width="1025" height="630" fill="none" stroke="black" stroke-width="2"/>
<text x="632.5" y="785" text-anchor="middle" font-family="Arial" font-size="20" fill="black">x coordinate [m]</text>
<text x="34" y="390.0" transform="rotate(-90 34 390.0)" text-anchor="middle" font-family="Arial" font-size="20" fill="black">T [K]</text>
<polyline points="190.69,142.29 193.64,143.78 196.58,145.27 199.53,146.01 202.47,147.50 205.42,149.74 208.36,152.72 211.31,155.70 214.25,157.93 217.20,160.91 220.14,163.89 223.09,166.13 226.03,169.11 228.98,171.34 231.93,174.32 234.87,176.56 237.82,178.79 240.76,181.77 243.71,184.01 246.65,186.24 249.60,188.48 252.54,190.71 255.49,192.95 258.43,195.18 261.38,196.67 264.32,198.91 267.27,201.14 270.22,202.63 273.16,204.87 276.11,206.36 279.05,208.59 282.00,210.08 284.94,211.57 287.89,213.81 290.83,215.30 293.78,216.79 296.72,218.28 299.67,219.77 302.62,220.51 305.56,222.00 308.51,223.49 311.45,224.24 314.40,225.73 317.34,227.22 320.29,227.96 323.23,228.71 326.17,230.20 329.13,230.94 332.07,231.69 335.01,232.43 337.96,233.92 340.91,234.67 343.85,235.41 346.80,236.16 349.74,236.90 352.68,237.65 355.64,238.39 358.58,239.14 361.52,239.88 364.47,240.63 367.41,241.37 370.35,242.86 373.31,243.61 376.25,244.35 379.19,245.84 382.15,246.59 385.09,248.08 388.03,249.57 390.98,251.06 393.92,252.55 396.86,254.78 399.82,256.27 402.76,258.51 405.70,260.00 408.65,262.23 411.59,264.47 414.54,266.70 417.49,268.94 420.43,271.92 423.37,274.15 426.33,276.39 429.27,278.62 432.21,281.60 435.16,283.84 438.10,286.07 441.04,289.05 444.00,291.29 446.94,294.27 449.88,296.50 452.83,299.48 455.78,301.72 458.72,304.70 461.67,306.93 464.61,309.91 467.55,312.15 470.51,315.13 473.45,317.36 476.39,320.34 479.34,322.58 482.28,325.56 485.23,327.79 488.18,330.77 491.12,333.01 494.06,335.99 497.02,338.22 499.96,341.20 502.90,343.44 505.85,346.42 508.79,349.40 511.73,351.63 514.69,354.61 517.63,357.59 520.57,360.57 523.52,363.55 526.47,366.53 529.41,370.26 532.36,373.24 535.30,376.96 538.24,380.69 541.20,384.41 544.14,388.14 547.08,392.61 550.03,397.08 552.97,401.55 555.92,406.02 558.87,411.23 561.81,417.19 564.75,423.15 567.71,429.11 570.65,435.82 573.59,444.01 576.54,452.21 579.48,459.66 582.42,468.60 585.38,479.03 588.32,490.20 591.26,501.38 594.21,511.81 597.16,525.96 600.10,540.12 603.05,554.27 605.99,568.43 608.93,582.58 611.89,595.99 614.83,609.40 617.77,622.81 620.72,633.99 623.66,641.44 626.60,648.14 629.56,654.85 632.50,661.55 635.44,661.55 638.40,660.81 641.34,660.81 644.28,660.06 647.23,656.34 650.17,651.87 653.11,646.65 656.07,642.18 659.01,636.97 661.95,630.26 664.90,624.30 667.84,618.34 670.79,611.64 673.74,605.68 676.68,599.72 679.62,593.76 682.58,587.80 685.52,582.58 688.46,577.37 691.41,572.15 694.35,566.94 697.29,563.21 700.25,558.74 703.19,555.02 706.13,551.29 709.08,547.57 712.03,544.59 714.97,542.35 717.92,539.37 720.86,536.39 723.80,534.90 726.76,533.41 729.70,531.18 732.64,529.69 735.59,528.20 738.53,527.45 741.48,526.71 744.43,525.96 747.37,525.22 750.31,525.22 753.27,524.47 756.21,524.47 759.15,524.47 762.10,525.22 765.04,525.22 767.98,525.96 770.94,525.96 773.88,526.71 776.82,527.45 779.77,528.94 782.72,529.69 785.66,530.43 788.61,531.92 791.55,532.67 794.49,534.16 797.45,534.90 800.39,536.39 803.33,537.88 806.28,539.37 809.22,540.86 812.17,542.35 815.12,543.84 818.06,545.33 821.00,546.82 823.96,548.31 826.90,549.80 829.84,550.55 832.79,552.04 835.73,553.53 838.67,554.27 841.63,555.76 844.57,556.51 847.51,557.25 850.46,558.00 853.41,558.00 856.35,558.74 859.30,558.74 862.24,558.00 865.18,557.25 868.14,556.51 871.08,555.76 874.02,554.27 876.97,551.29 879.91,549.06 882.85,546.08 885.81,543.10 888.75,538.63 891.69,534.16 894.65,528.94 897.59,524.47 900.53,517.77 903.48,510.32 906.42,503.61 909.36,496.91 912.32,487.97 915.26,479.03 918.20,470.09 921.15,461.15 924.09,452.21 927.04,441.78 929.99,432.09 932.93,421.66 935.87,411.23 938.83,400.80 941.77,390.37 944.71,379.94 947.66,369.51 950.60,359.08 953.54,349.40 956.50,338.97 959.44,329.28 962.38,319.60 965.33,310.66 968.28,300.97 971.22,292.03 974.17,283.09 977.11,274.90 980.05,267.45 983.01,259.25 985.95,251.06 988.89,244.35 991.84,237.65 994.78,230.20 997.73,223.49 1000.68,217.53 1003.62,211.57 1006.56,206.36 1009.52,200.40 1012.46,195.18 1015.40,189.97 1018.35,185.50 1021.29,180.28 1024.23,175.81 1027.19,172.09 1030.13,167.62 1033.07,163.89 1036.02,159.42 1038.97,155.70 1041.91,151.97 1044.86,148.25 1047.80,144.52 1050.74,140.80 1053.70,137.07 1056.64,133.35 1059.58,129.62 1062.53,126.64 1065.47,124.41 1068.42,122.17 1071.37,120.68 1074.31,118.45" fill="none" stroke="#000000" stroke-width="3"/>
<line x1="142" y1="100" x2="178" y2="100" stroke="#000000" stroke-width="4"/>
<text x="188" y="105" font-family="Arial" font-size="18" fill="black">T</text>
</svg>