<svg xmlns="http://www.w3.org/2000/svg" width="1200" height="820" viewBox="0 0 1200 820">
<rect width="100%" height="100%" fill="white"/>
<text x="600.0" y="36" text-anchor="middle" font-family="Arial" font-size="24" fill="black">profile_center_z: T</text>
<line x1="120.00" y1="75" x2="120.00" y2="705" stroke="#dddddd" stroke-width="1"/>
<text x="120.00" y="737" text-anchor="middle" font-family="Arial" font-size="16" fill="black">-0.240</text>
<line x1="376.25" y1="75" x2="376.25" y2="705" stroke="#dddddd" stroke-width="1"/>
<text x="376.25" y="737" text-anchor="middle" font-family="Arial" font-size="16" fill="black">0.630</text>
<line x1="632.50" y1="75" x2="632.50" y2="705" stroke="#dddddd" stroke-width="1"/>
<text x="632.50" y="737" text-anchor="middle" font-family="Arial" font-size="16" fill="black">1.500</text>
<line x1="888.75" y1="75" x2="888.75" y2="705" stroke="#dddddd" stroke-width="1"/>
<text x="888.75" y="737" text-anchor="middle" font-family="Arial" font-size="16" fill="black">2.370</text>
<line x1="1145.00" y1="75" x2="1145.00" y2="705" stroke="#dddddd" stroke-width="1"/>
<text x="1145.00" y="737" text-anchor="middle" font-family="Arial" font-size="16" fill="black">3.240</text>
<line x1="120" y1="705.00" x2="1145" y2="705.00" stroke="#dddddd" stroke-width="1"/>
<text x="104" y="710.00" text-anchor="end" font-family="Arial" font-size="16" fill="black">288.3</text>
<line x1="120" y1="547.50" x2="1145" y2="547.50" stroke="#dddddd" stroke-width="1"/>
<text x="104" y="552.50" text-anchor="end" font-family="Arial" font-size="16" fill="black">298.1</text>
<line x1="120" y1="390.00" x2="1145" y2="390.00" stroke="#dddddd" stroke-width="1"/>
<text x="104" y="395.00" text-anchor="end" font-family="Arial" font-size="16" fill="black">308.0</text>
<line x1="120" y1="232.50" x2="1145" y2="232.50" stroke="#dddddd" stroke-width="1"/>
<text x="104" y="237.50" text-anchor="end" font-family="Arial" font-size="16" fill="black">317.9</text>
<line x1="120" y1="75.00" x2="1145" y2="75.00" stroke="#dddddd" stroke-width="1"/>
<text x="104" y="80.00" text-anchor="end" font-family="Arial" font-size="16" fill="black">327.7</text>
<rect x="120" y="75" width="1025" height="630" fill="none" stroke="black" stroke-width="2"/>
<text x="632.5" y="785" text-anchor="middle" font-family="Arial" font-size="20" fill="black">z coordinate [m]</text>
<text x="34" y="390.0" transform="rotate(-90 34 390.0)" text-anchor="middle" font-family="Arial" font-size="20" fill="black">T [K]</text>
<polyline points="190.69,661.55 193.64,661.55 196.58,661.55 199.53,661.55 202.47,661.55 205.42,661.55 208.36,661.55 211.31,661.55 214.25,661.55 217.20,661.55 220.14,661.55 223.09,661.55 226.03,661.55 228.98,661.55 231.93,661.55 234.87,661.55 237.82,661.55 240.76,661.55 243.71,661.55 246.65,661.55 249.60,661.55 252.54,661.55 255.49,661.55 258.43,661.55 261.38,661.55 264.32,661.55 267.27,661.55 270.22,661.55 273.16,661.55 276.11,661.55 279.05,661.55 282.00,661.55 284.94,661.55 287.89,661.55 290.83,661.55 293.78,661.55 296.72,661.55 299.67,661.55 302.61,661.55 305.56,661.55 308.51,661.55 311.45,661.55 314.40,661.55 317.34,661.55 320.29,661.55 323.23,661.55 326.18,661.55 329.12,661.55 332.07,661.55 335.01,661.55 337.96,661.55 340.91,661.55 343.85,661.39 346.80,661.39 349.74,661.39 352.69,661.23 355.63,661.23 358.58,661.07 361.52,661.07 364.47,661.07 367.41,660.91 370.36,659.95 373.30,659.00 376.25,657.88 379.20,656.92 382.14,655.80 385.09,654.84 388.03,653.88 390.98,652.77 393.92,651.81 396.87,650.69 399.81,644.94 402.76,639.03 405.70,633.12 408.65,627.37 411.59,621.46 414.54,615.55 417.49,609.80 420.43,603.89 423.38,597.98 426.32,592.07 429.27,579.93 432.21,567.79 435.16,555.65 438.10,543.51 441.05,531.37 443.99,519.23 446.94,507.09 449.89,494.95 452.83,482.81 455.78,470.67 458.72,457.73 461.67,444.95 464.61,432.17 467.56,419.23 470.50,406.45 473.45,393.67 476.39,380.90 479.34,367.96 482.28,355.18 485.23,342.40 488.18,333.29 491.12,324.35 494.07,315.24 497.01,306.30 499.96,297.19 502.90,288.25 505.85,279.14 508.79,270.04 511.74,261.09 514.68,251.99 517.63,246.56 520.57,240.97 523.52,235.38 526.47,229.78 529.41,224.19 532.36,218.60 535.30,213.01 538.25,207.42 541.19,201.99 544.14,196.40 547.08,193.05 550.03,189.53 552.97,186.18 555.92,182.82 558.86,179.47 561.81,176.11 564.76,172.76 567.70,169.40 570.65,166.05 573.59,162.70 576.54,160.62 579.48,158.54 582.43,156.47 585.37,154.39 588.32,152.47 591.26,150.40 594.21,148.32 597.16,146.24 600.10,144.17 603.05,142.25 605.99,140.97 608.94,139.69 611.88,138.58 614.83,137.30 617.77,136.18 620.72,134.90 623.66,133.62 626.61,132.51 629.55,131.23 632.50,129.95 635.45,129.31 638.39,128.67 641.34,128.03 644.28,127.23 647.23,126.59 650.17,125.96 653.12,125.16 656.06,124.52 659.01,123.88 661.95,123.08 664.90,122.76 667.84,122.44 670.79,122.12 673.74,121.80 676.68,121.48 679.63,121.16 682.57,120.68 685.52,120.37 688.46,120.05 691.41,119.73 694.35,119.57 697.30,119.41 700.24,119.41 703.19,119.25 706.14,119.09 709.08,118.93 712.03,118.93 714.97,118.77 717.92,118.61 720.86,118.45 723.81,118.61 726.75,118.61 729.70,118.61 732.64,118.61 735.59,118.61 738.53,118.77 741.48,118.77 744.43,118.77 747.37,118.77 750.32,118.77 753.26,118.93 756.21,119.09 759.15,119.25 762.10,119.41 765.04,119.41 767.99,119.57 770.93,119.73 773.88,119.89 776.82,120.05 779.77,120.05 782.72,120.37 785.66,120.52 788.61,120.84 791.55,121.00 794.50,121.16 797.44,121.48 800.39,121.64 803.33,121.96 806.28,122.12 809.22,122.44 812.17,122.76 815.11,123.08 818.06,123.40 821.01,123.72 823.95,124.04 826.90,124.36 829.84,124.84 832.79,125.16 835.73,125.48 838.68,125.80 841.62,126.28 844.57,126.75 847.51,127.23 850.46,127.71 853.41,128.19 856.35,128.67 859.30,129.15 862.24,129.63 865.19,130.11 868.13,130.59 871.08,131.23 874.02,131.87 876.97,132.51 879.91,132.98 882.86,133.62 885.80,134.26 888.75,134.90 891.70,135.54 894.64,136.18 897.59,136.82 900.53,137.46 903.48,138.10 906.42,138.73 909.37,139.53 912.31,140.17 915.26,140.81 918.20,141.61 921.15,142.25 924.09,142.89 927.04,143.69 929.99,144.17 932.93,144.80 935.88,145.44 938.82,146.08 941.77,146.72 944.71,147.20 947.66,147.84 950.60,148.48 953.55,149.12 956.49,149.76 959.44,149.92 962.39,150.24 965.33,150.40 968.28,150.72 971.22,151.03 974.17,151.19 977.11,151.51 980.06,151.67 983.00,151.99 985.95,152.15 988.89,151.83 991.84,151.51 994.78,151.03 997.73,150.72 1000.68,150.24 1003.62,149.92 1006.57,149.60 1009.51,149.12 1012.46,148.80 1015.40,148.32 1018.35,147.36 1021.29,146.24 1024.24,145.12 1027.18,144.01 1030.13,142.89 1033.07,141.93 1036.02,140.81 1038.97,139.69 1041.91,138.58 1044.86,137.46 1047.80,136.82 1050.75,136.18 1053.69,135.38 1056.64,134.74 1059.58,133.94 1062.53,133.30 1065.47,132.66 1068.42,131.87 1071.36,131.23 1074.31,130.43" fill="none" stroke="#000000" stroke-width="3"/>
<line x1="142" y1="100" x2="178" y2="100" stroke="#000000" stroke-width="4"/>
<text x="188" y="105" font-family="Arial" font-size="18" fill="black">T</text>
</svg>