<svg xmlns="http://www.w3.org/2000/svg" width="1200" height="820" viewBox="0 0 1200 820">
<rect width="100%" height="100%" fill="white"/>
<text x="600.0" y="36" text-anchor="middle" font-family="Arial" font-size="24" fill="black">profile_near_floor_x: U, V, W components</text>
<line x1="120.00" y1="75" x2="120.00" y2="705" stroke="#dddddd" stroke-width="1"/>
<text x="120.00" y="737" text-anchor="middle" font-family="Arial" font-size="16" fill="black">-0.560</text>
<line x1="376.25" y1="75" x2="376.25" y2="705" stroke="#dddddd" stroke-width="1"/>
<text x="376.25" y="737" text-anchor="middle" font-family="Arial" font-size="16" fill="black">1.470</text>
<line x1="632.50" y1="75" x2="632.50" y2="705" stroke="#dddddd" stroke-width="1"/>
<text x="632.50" y="737" text-anchor="middle" font-family="Arial" font-size="16" fill="black">3.500</text>
<line x1="888.75" y1="75" x2="888.75" y2="705" stroke="#dddddd" stroke-width="1"/>
<text x="888.75" y="737" text-anchor="middle" font-family="Arial" font-size="16" fill="black">5.530</text>
<line x1="1145.00" y1="75" x2="1145.00" y2="705" stroke="#dddddd" stroke-width="1"/>
<text x="1145.00" y="737" text-anchor="middle" font-family="Arial" font-size="16" fill="black">7.560</text>
<line x1="120" y1="705.00" x2="1145" y2="705.00" stroke="#dddddd" stroke-width="1"/>
<text x="104" y="710.00" text-anchor="end" font-family="Arial" font-size="16" fill="black">-0.552</text>
<line x1="120" y1="547.50" x2="1145" y2="547.50" stroke="#dddddd" stroke-width="1"/>
<text x="104" y="552.50" text-anchor="end" font-family="Arial" font-size="16" fill="black">-0.216</text>
<line x1="120" y1="390.00" x2="1145" y2="390.00" stroke="#dddddd" stroke-width="1"/>
<text x="104" y="395.00" text-anchor="end" font-family="Arial" font-size="16" fill="black">0.120</text>
<line x1="120" y1="232.50" x2="1145" y2="232.50" stroke="#dddddd" stroke-width="1"/>
<text x="104" y="237.50" text-anchor="end" font-family="Arial" font-size="16" fill="black">0.456</text>
<line x1="120" y1="75.00" x2="1145" y2="75.00" stroke="#dddddd" stroke-width="1"/>
<text x="104" y="80.00" text-anchor="end" font-family="Arial" font-size="16" fill="black">0.792</text>
<rect x="120" y="75" width="1025" height="630" fill="none" stroke="black" stroke-width="2"/>
<text x="632.5" y="785" text-anchor="middle" font-family="Arial" font-size="20" fill="black">x coordinate [m]</text>
<text x="34" y="390.0" transform="rotate(-90 34 390.0)" text-anchor="middle" font-family="Arial" font-size="20" fill="black">velocity component [m/s]</text>
<polyline points="190.69,438.91 193.64,437.02 196.58,435.14 199.53,433.25 202.47,431.37 205.42,427.95 208.36,423.92 211.31,419.89 214.25,415.86 217.20,412.01 220.14,408.40 223.09,404.78 226.03,401.16 228.98,397.75 231.93,395.53 234.87,393.33 237.82,391.11 240.76,388.90 243.71,387.88 246.65,387.05 249.60,386.23 252.54,385.41 255.49,385.31 258.43,385.76 261.38,386.21 264.32,386.66 267.27,387.44 270.22,389.09 273.16,390.73 276.11,392.37 279.05,394.01 282.00,396.78 284.94,399.55 287.89,402.32 290.83,405.09 293.78,410.01 296.72,415.78 299.67,421.56 302.62,427.33 305.56,432.27 308.51,436.09 311.45,439.91 314.40,443.74 317.34,446.61 320.29,443.83 323.23,441.05 326.17,438.26 329.13,435.48 332.07,432.90 335.01,430.35 337.96,427.80 340.91,425.25 343.85,424.10 346.80,423.98 349.74,423.87 352.68,423.76 355.64,423.59 358.58,423.31 361.52,423.02 364.47,422.73 367.41,422.44 370.35,421.63 373.31,420.83 376.25,420.02 379.19,419.22 382.15,417.80 385.09,416.13 388.03,414.46 390.98,412.79 393.92,410.50 396.86,407.39 399.82,404.28 402.76,401.17 405.70,398.15 408.65,395.66 411.59,393.16 414.54,390.66 417.49,388.16 420.43,392.21 423.37,397.35 426.33,402.48 429.27,407.62 432.21,412.88 435.16,418.23 438.10,423.58 441.04,428.93 444.00,432.56 446.94,431.90 449.88,431.24 452.83,430.57 455.78,429.91 458.72,428.96 461.67,428.01 464.61,427.06 467.55,426.11 470.51,425.53 473.45,425.09 476.39,424.65 479.34,424.22 482.28,424.81 485.23,426.78 488.18,428.75 491.12,430.72 494.06,432.92 497.02,436.53 499.96,440.13 502.90,443.74 505.85,447.35 508.79,450.24 511.73,453.02 514.69,455.80 517.63,458.58 520.57,460.29 523.52,461.20 526.47,462.11 529.41,463.02 532.36,463.55 535.30,463.12 538.24,462.69 541.20,462.26 544.14,461.83 547.08,460.33 550.03,458.83 552.97,457.33 555.92,455.83 558.87,457.75 561.81,461.02 564.75,464.30 567.71,467.58 570.65,471.26 573.59,475.48 576.54,479.69 579.48,483.91 582.42,487.19 585.38,484.90 588.32,482.61 591.26,480.32 594.21,478.04 597.16,474.95 600.10,471.72 603.05,468.50 605.99,465.28 608.93,462.72 611.89,460.67 614.83,458.62 617.77,456.58 620.72,454.66 623.66,453.07 626.60,451.49 629.56,449.90 632.50,448.32 635.44,446.86 638.40,445.40 641.34,443.93 644.28,442.47 647.23,441.01 650.17,439.54 653.11,438.07 656.07,436.60 659.01,434.67 661.95,432.12 664.90,429.56 667.84,427.01 670.79,424.67 673.74,423.60 676.68,422.53 679.62,421.46 682.58,420.39 685.52,424.96 688.46,430.46 691.41,435.97 694.35,441.47 697.29,447.15 700.25,452.95 703.19,458.75 706.13,464.55 709.08,469.43 712.03,472.01 714.97,474.59 717.92,477.16 720.86,479.74 723.80,482.98 726.76,486.21 729.70,489.45 732.64,492.69 735.59,495.63 738.53,498.44 741.48,501.26 744.43,504.07 747.37,506.15 750.31,507.26 753.27,508.37 756.21,509.48 759.15,510.26 762.10,509.09 765.04,507.92 767.98,506.74 770.94,505.57 773.88,502.55 776.82,499.23 779.77,495.90 782.72,492.57 785.66,488.15 788.61,482.91 791.55,477.67 794.49,472.43 797.45,467.14 800.39,461.74 803.33,456.34 806.28,450.94 809.22,445.53 812.17,440.89 815.12,436.24 818.06,431.60 821.00,426.96 823.96,428.42 826.90,432.33 829.84,436.23 832.79,440.14 835.73,445.98 838.67,454.39 841.63,462.80 844.57,471.22 847.51,478.39 850.46,478.12 853.41,477.84 856.35,477.57 859.30,477.30 862.24,474.40 865.18,471.06 868.14,467.72 871.08,464.38 874.02,461.80 876.97,459.80 879.91,457.80 882.85,455.79 885.81,453.70 888.75,451.40 891.69,449.09 894.65,446.79 897.59,444.48 900.53,441.72 903.48,438.96 906.42,436.19 909.36,433.43 912.32,429.67 915.26,425.52 918.20,421.37 921.15,417.22 924.09,412.38 927.04,406.60 929.99,400.82 932.93,395.04 935.87,389.04 938.83,381.64 941.77,374.25 944.71,366.86 947.66,359.46 950.60,357.88 953.54,357.26 956.50,356.64 959.44,356.01 962.38,357.47 965.33,360.49 968.28,363.50 971.22,366.51 974.17,368.22 977.11,366.67 980.05,365.13 983.01,363.58 985.95,362.03 988.89,360.19 991.84,358.34 994.78,356.50 997.73,354.66 1000.68,353.59 1003.62,352.85 1006.56,352.10 1009.52,351.35 1012.46,351.56 1015.40,353.07 1018.35,354.57 1021.29,356.08 1024.23,357.89 1027.19,361.58 1030.13,365.27 1033.07,368.96 1036.02,372.65 1038.97,377.80 1041.91,383.21 1044.86,388.61 1047.80,394.01 1050.74,399.48 1053.70,405.00 1056.64,410.52 1059.58,416.04 1062.53,420.67 1065.47,423.09 1068.42,425.52 1071.37,427.94 1074.31,430.36" fill="none" stroke="#000000" stroke-width="3"/>
<line x1="142" y1="100" x2="178" y2="100" stroke="#000000" stroke-width="4"/>
<text x="188" y="105" font-family="Arial" font-size="18" fill="black">Ux / u</text>
<polyline points="190.69,371.07 193.64,370.03 196.58,369.00 199.53,367.96 202.47,366.93 205.42,366.15 208.36,365.48 211.31,364.80 214.25,364.13 217.20,364.36 220.14,365.79 223.09,367.22 226.03,368.65 228.98,370.21 231.93,372.57 234.87,374.91 237.82,377.27 240.76,379.62 243.71,382.13 246.65,384.68 249.60,387.22 252.54,389.76 255.49,392.15 258.43,394.44 261.38,396.72 264.32,399.00 267.27,401.14 270.22,402.89 273.16,404.65 276.11,406.40 279.05,408.16 282.00,409.38 284.94,410.61 287.89,411.84 290.83,413.06 293.78,414.42 296.72,415.83 299.67,417.23 302.62,418.64 305.56,420.81 308.51,423.99 311.45,427.17 314.40,430.36 317.34,433.38 320.29,435.46 323.23,437.55 326.17,439.63 329.13,441.71 332.07,441.78 335.01,441.51 337.96,441.25 340.91,440.98 343.85,440.82 346.80,440.75 349.74,440.67 352.68,440.60 355.64,440.55 358.58,440.55 361.52,440.56 364.47,440.56 367.41,440.57 370.35,440.54 373.31,440.51 376.25,440.48 379.19,440.46 382.15,440.42 385.09,440.38 388.03,440.34 390.98,440.30 393.92,440.31 396.86,440.40 399.82,440.48 402.76,440.57 405.70,440.48 408.65,439.31 411.59,438.14 414.54,436.98 417.49,435.81 420.43,433.75 423.37,431.54 426.33,429.34 429.27,427.13 432.21,425.72 435.16,424.92 438.10,424.11 441.04,423.30 444.00,422.94 446.94,423.69 449.88,424.43 452.83,425.17 455.78,425.92 458.72,427.36 461.67,428.80 464.61,430.24 467.55,431.67 470.51,433.35 473.45,435.11 476.39,436.88 479.34,438.64 482.28,440.47 485.23,442.37 488.18,444.28 491.12,446.18 494.06,448.06 497.02,449.73 499.96,451.41 502.90,453.09 505.85,454.76 508.79,456.11 511.73,457.40 514.69,458.69 517.63,459.98 520.57,461.13 523.52,462.17 526.47,463.22 529.41,464.27 532.36,465.30 535.30,466.31 538.24,467.32 541.20,468.33 544.14,469.34 547.08,470.47 550.03,471.59 552.97,472.72 555.92,473.85 558.87,473.94 561.81,473.62 564.75,473.30 567.71,472.98 570.65,471.47 573.59,468.36 576.54,465.25 579.48,462.14 582.42,459.17 585.38,456.97 588.32,454.78 591.26,452.59 594.21,450.39 597.16,450.07 600.10,450.06 603.05,450.05 605.99,450.04 608.93,450.02 611.89,449.99 614.83,449.96 617.77,449.93 620.72,449.92 623.66,449.96 626.60,449.99 629.56,450.03 632.50,450.07 635.44,450.20 638.40,450.33 641.34,450.46 644.28,450.60 647.23,450.82 650.17,451.09 653.11,451.36 656.07,451.63 659.01,451.94 661.95,452.33 664.90,452.72 667.84,453.11 670.79,453.99 673.74,457.81 676.68,461.62 679.62,465.44 682.58,469.26 685.52,473.56 688.46,477.95 691.41,482.34 694.35,486.72 697.29,489.01 700.25,489.72 703.19,490.44 706.13,491.15 709.08,491.62 712.03,491.50 714.97,491.38 717.92,491.26 720.86,491.14 723.80,491.17 726.76,491.20 729.70,491.23 732.64,491.26 735.59,491.46 738.53,491.73 741.48,492.01 744.43,492.28 747.37,492.65 750.31,493.17 753.27,493.69 756.21,494.20 759.15,494.76 762.10,495.61 765.04,496.45 767.98,497.29 770.94,498.13 773.88,499.39 776.82,500.72 779.77,502.04 782.72,503.36 785.66,505.06 788.61,507.03 791.55,509.01 794.49,510.98 797.45,513.18 800.39,515.98 803.33,518.77 806.28,521.57 809.22,524.36 812.17,527.75 815.12,531.15 818.06,534.55 821.00,537.95 823.96,538.44 826.90,537.76 829.84,537.08 832.79,536.40 835.73,531.88 838.67,522.22 841.63,512.56 844.57,502.90 847.51,493.65 850.46,486.91 853.41,480.16 856.35,473.42 859.30,466.68 862.24,466.22 865.18,466.80 868.14,467.39 871.08,467.97 874.02,468.30 876.97,468.44 879.91,468.57 882.85,468.70 885.81,468.78 888.75,468.71 891.69,468.63 894.65,468.56 897.59,468.48 900.53,468.30 903.48,468.11 906.42,467.92 909.36,467.73 912.32,467.55 915.26,467.37 918.20,467.19 921.15,467.01 924.09,466.90 927.04,466.88 929.99,466.85 932.93,466.83 935.87,467.46 938.83,472.03 941.77,476.59 944.71,481.16 947.66,485.72 950.60,495.47 953.54,506.07 956.50,516.68 959.44,527.28 962.38,536.17 965.33,543.76 968.28,551.36 971.22,558.96 974.17,564.96 977.11,566.94 980.05,568.92 983.01,570.91 985.95,572.89 988.89,574.18 991.84,575.46 994.78,576.74 997.73,578.03 1000.68,579.83 1003.62,581.85 1006.56,583.86 1009.52,585.88 1012.46,588.16 1015.40,590.81 1018.35,593.46 1021.29,596.12 1024.23,598.83 1027.19,601.88 1030.13,604.93 1033.07,607.99 1036.02,611.04 1038.97,614.67 1041.91,618.41 1044.86,622.14 1047.80,625.87 1050.74,630.34 1053.70,635.38 1056.64,640.42 1059.58,645.46 1062.53,649.89 1065.47,652.81 1068.42,655.72 1071.37,658.64 1074.31,661.55" fill="none" stroke="#555555" stroke-width="3" stroke-dasharray="9 5"/>
<line x1="142" y1="128" x2="178" y2="128" stroke="#555555" stroke-width="4" stroke-dasharray="9 5"/>
<text x="188" y="133" font-family="Arial" font-size="18" fill="black">Uy / v</text>
<polyline points="190.69,511.61 193.64,512.68 196.58,513.74 199.53,514.81 202.47,515.87 205.42,516.35 208.36,516.58 211.31,516.82 214.25,517.06 217.20,516.37 220.14,514.44 223.09,512.50 226.03,510.58 228.98,508.64 231.93,506.65 234.87,504.67 237.82,502.68 240.76,500.69 243.71,499.23 246.65,497.85 249.60,496.48 252.54,495.10 255.49,494.28 258.43,493.86 261.38,493.45 264.32,493.04 267.27,493.02 270.22,493.99 273.16,494.96 276.11,495.93 279.05,496.90 282.00,498.82 284.94,500.75 287.89,502.68 290.83,504.60 293.78,502.15 296.72,497.94 299.67,493.73 302.62,489.52 305.56,469.62 308.51,428.81 311.45,388.00 314.40,347.19 317.34,306.71 320.29,268.22 323.23,229.73 326.17,191.25 329.13,152.76 332.07,144.41 335.01,141.07 337.96,137.74 340.91,134.41 343.85,132.62 346.80,132.00 349.74,131.39 352.68,130.77 355.64,130.21 358.58,129.82 361.52,129.43 364.47,129.04 367.41,128.64 370.35,128.39 373.31,128.14 376.25,127.89 379.19,127.64 382.15,127.60 385.09,127.66 388.03,127.72 390.98,127.78 393.92,128.36 396.86,129.64 399.82,130.92 402.76,132.19 405.70,136.39 408.65,158.05 411.59,179.71 414.54,201.38 417.49,223.04 420.43,255.40 423.37,289.55 426.33,323.70 429.27,357.84 432.21,384.09 435.16,404.41 438.10,424.73 441.04,445.04 444.00,461.88 446.94,470.02 449.88,478.16 452.83,486.30 455.78,494.44 458.72,493.75 461.67,493.07 464.61,492.38 467.55,491.70 470.51,487.68 473.45,482.32 476.39,476.97 479.34,471.62 482.28,466.39 485.23,461.33 488.18,456.26 491.12,451.20 494.06,446.80 497.02,446.41 499.96,446.02 502.90,445.63 505.85,445.24 508.79,449.17 511.73,453.82 514.69,458.47 517.63,463.12 520.57,468.60 523.52,474.70 526.47,480.80 529.41,486.90 532.36,492.12 535.30,495.16 538.24,498.20 541.20,501.24 544.14,504.27 547.08,498.31 550.03,492.35 552.97,486.39 555.92,480.43 558.87,464.13 561.81,443.70 564.75,423.27 567.71,402.83 570.65,375.14 573.59,337.78 576.54,300.41 579.48,263.04 582.42,227.55 585.38,203.27 588.32,179.00 591.26,154.72 594.21,130.45 597.16,125.69 600.10,124.18 603.05,122.67 605.99,121.16 608.93,120.30 611.89,119.94 614.83,119.58 617.77,119.22 620.72,118.93 623.66,118.81 626.60,118.69 629.56,118.57 632.50,118.45 635.44,118.54 638.40,118.63 641.34,118.72 644.28,118.81 647.23,119.03 650.17,119.31 653.11,119.59 656.07,119.87 659.01,120.68 661.95,122.20 664.90,123.71 667.84,125.23 670.79,130.53 673.74,158.51 676.68,186.48 679.62,214.46 682.58,242.44 685.52,280.49 688.46,320.21 691.41,359.93 694.35,399.66 697.29,423.90 700.25,436.52 703.19,449.14 706.13,461.77 709.08,470.18 712.03,468.07 714.97,465.96 717.92,463.85 720.86,461.74 723.80,460.49 726.76,459.24 729.70,457.99 732.64,456.74 735.59,457.91 738.53,460.04 741.48,462.16 744.43,464.29 747.37,467.23 750.31,471.24 753.27,475.26 756.21,479.27 759.15,483.39 762.10,488.10 765.04,492.80 767.98,497.51 770.94,502.22 773.88,506.83 776.82,511.43 779.77,516.03 782.72,520.62 785.66,524.20 788.61,526.99 791.55,529.79 794.49,532.59 797.45,533.88 800.39,531.44 803.33,528.99 806.28,526.54 809.22,524.09 812.17,514.12 815.12,504.14 818.06,494.16 821.00,484.19 823.96,467.23 826.90,447.48 829.84,427.72 832.79,407.97 835.73,380.36 838.67,342.27 841.63,304.18 844.57,266.10 847.51,229.82 850.46,204.43 853.41,179.03 856.35,153.64 859.30,128.24 862.24,124.65 865.18,124.71 868.14,124.76 871.08,124.81 874.02,124.97 876.97,125.22 879.91,125.47 882.85,125.71 885.81,125.93 888.75,126.09 891.69,126.26 894.65,126.43 897.59,126.59 900.53,127.07 903.48,127.56 906.42,128.04 909.36,128.52 912.32,129.59 915.26,130.89 918.20,132.20 921.15,133.49 924.09,136.00 927.04,140.11 929.99,144.22 932.93,148.33 935.87,154.79 938.83,175.39 941.77,195.99 944.71,216.58 947.66,237.18 950.60,267.21 953.54,298.82 956.50,330.43 959.44,362.04 962.38,386.25 965.33,404.91 968.28,423.56 971.22,442.22 974.17,456.78 977.11,461.08 980.05,465.38 983.01,469.68 985.95,473.98 988.89,471.75 991.84,469.52 994.78,467.29 997.73,465.05 1000.68,461.20 1003.62,456.70 1006.56,452.20 1009.52,447.70 1012.46,443.18 1015.40,438.65 1018.35,434.11 1021.29,429.58 1024.23,425.19 1027.19,421.69 1030.13,418.18 1033.07,414.68 1036.02,411.17 1038.97,408.74 1041.91,406.48 1044.86,404.22 1047.80,401.97 1050.74,400.08 1053.70,398.46 1056.64,396.85 1059.58,395.23 1062.53,393.85 1065.47,393.07 1068.42,392.29 1071.37,391.51 1074.31,390.73" fill="none" stroke="#999999" stroke-width="3" stroke-dasharray="3 4"/>
<line x1="142" y1="156" x2="178" y2="156" stroke="#999999" stroke-width="4" stroke-dasharray="3 4"/>
<text x="188" y="161" font-family="Arial" font-size="18" fill="black">Uz / w</text>
</svg>