<svg xmlns="http://www.w3.org/2000/svg" width="1200" height="820" viewBox="0 0 1200 820">
<rect width="100%" height="100%" fill="white"/>
<text x="600.0" y="36" text-anchor="middle" font-family="Arial" font-size="24" fill="black">profile_diagonal_supply_return: epsilon</text>
<line x1="120.00" y1="75" x2="120.00" y2="705" stroke="#dddddd" stroke-width="1"/>
<text x="120.00" y="737" text-anchor="middle" font-family="Arial" font-size="16" fill="black">-0.729</text>
<line x1="376.25" y1="75" x2="376.25" y2="705" stroke="#dddddd" stroke-width="1"/>
<text x="376.25" y="737" text-anchor="middle" font-family="Arial" font-size="16" fill="black">1.913</text>
<line x1="632.50" y1="75" x2="632.50" y2="705" stroke="#dddddd" stroke-width="1"/>
<text x="632.50" y="737" text-anchor="middle" font-family="Arial" font-size="16" fill="black">4.555</text>
<line x1="888.75" y1="75" x2="888.75" y2="705" stroke="#dddddd" stroke-width="1"/>
<text x="888.75" y="737" text-anchor="middle" font-family="Arial" font-size="16" fill="black">7.197</text>
<line x1="1145.00" y1="75" x2="1145.00" y2="705" stroke="#dddddd" stroke-width="1"/>
<text x="1145.00" y="737" text-anchor="middle" font-family="Arial" font-size="16" fill="black">9.839</text>
<line x1="120" y1="705.00" x2="1145" y2="705.00" stroke="#dddddd" stroke-width="1"/>
<text x="104" y="710.00" text-anchor="end" font-family="Arial" font-size="16" fill="black">-7.68e-04</text>
<line x1="120" y1="547.50" x2="1145" y2="547.50" stroke="#dddddd" stroke-width="1"/>
<text x="104" y="552.50" text-anchor="end" font-family="Arial" font-size="16" fill="black">0.005</text>
<line x1="120" y1="390.00" x2="1145" y2="390.00" stroke="#dddddd" stroke-width="1"/>
<text x="104" y="395.00" text-anchor="end" font-family="Arial" font-size="16" fill="black">0.010</text>
<line x1="120" y1="232.50" x2="1145" y2="232.50" stroke="#dddddd" stroke-width="1"/>
<text x="104" y="237.50" text-anchor="end" font-family="Arial" font-size="16" fill="black">0.016</text>
<line x1="120" y1="75.00" x2="1145" y2="75.00" stroke="#dddddd" stroke-width="1"/>
<text x="104" y="80.00" text-anchor="end" font-family="Arial" font-size="16" fill="black">0.021</text>
<rect x="120" y="75" width="1025" height="630" fill="none" stroke="black" stroke-width="2"/>
<text x="632.5" y="785" text-anchor="middle" font-family="Arial" font-size="20" fill="black">distance along sample line [m]</text>
<text x="34" y="390.0" transform="rotate(-90 34 390.0)" text-anchor="middle" font-family="Arial" font-size="20" fill="black">epsilon [m2/s3]</text>
<polyline points="190.69,661.55 193.64,659.58 196.58,657.47 199.53,655.24 202.47,652.92 205.42,649.62 208.36,645.87 211.31,641.14 214.25,636.30 217.20,631.59 220.14,627.10 223.09,622.97 226.03,619.11 228.98,615.42 231.93,612.24 234.87,609.29 237.82,606.58 240.76,604.16 243.71,602.47 246.65,601.28 249.60,600.36 252.54,598.80 255.49,597.75 258.43,597.15 261.38,596.73 264.32,596.17 267.27,595.95 270.22,596.32 273.16,596.84 276.11,597.50 279.05,598.31 282.00,598.36 284.94,598.50 287.88,598.69 290.83,598.92 293.78,599.11 296.73,599.24 299.67,598.83 302.62,598.32 305.57,597.67 308.50,596.85 311.45,595.81 314.40,594.69 317.34,593.38 320.29,592.24 323.24,590.98 326.18,589.55 329.12,587.93 332.07,586.69 335.01,585.58 337.96,584.24 340.91,582.86 343.85,581.54 346.80,580.19 349.74,578.58 352.68,577.02 355.63,575.19 358.58,573.23 361.53,570.93 364.47,568.29 367.42,565.31 370.36,563.07 373.30,560.68 376.25,558.15 379.20,555.48 382.14,553.52 385.09,551.92 388.04,550.28 390.97,548.70 393.92,547.82 396.87,547.99 399.81,549.06 402.76,550.39 405.71,551.98 408.65,554.85 411.59,558.07 414.54,561.64 417.48,565.56 420.43,569.69 423.38,573.91 426.32,578.37 429.27,583.01 432.21,586.97 435.16,590.40 438.10,593.87 441.05,597.32 444.00,600.37 446.94,602.39 449.89,604.42 452.84,606.45 455.77,608.47 458.72,609.42 461.67,610.42 464.61,611.43 467.56,612.46 470.51,613.07 473.45,613.51 476.39,613.92 479.34,614.32 482.28,614.55 485.23,614.55 488.18,614.50 491.12,614.42 494.07,614.13 497.01,613.48 499.96,612.80 502.90,612.07 505.85,611.30 508.80,610.11 511.74,608.65 514.69,607.17 517.63,605.63 520.57,603.79 523.52,601.77 526.47,599.78 529.41,597.64 532.36,595.43 535.31,592.98 538.24,590.63 541.19,588.38 544.14,586.24 547.08,583.64 550.03,581.16 552.98,578.80 555.92,576.55 558.86,574.34 561.81,572.23 564.76,570.20 567.70,568.32 570.65,566.61 573.60,565.05 576.54,563.35 579.49,561.78 582.43,560.28 585.37,558.93 588.32,557.69 591.27,556.56 594.21,555.56 597.16,554.68 600.11,553.75 603.04,552.89 605.99,551.89 608.94,550.94 611.88,550.04 614.83,549.18 617.78,548.04 620.72,546.91 623.66,545.79 626.61,544.63 629.55,543.43 632.50,542.18 635.45,540.43 638.40,538.60 641.34,536.68 644.28,534.67 647.23,532.82 650.17,530.99 653.12,528.38 656.07,525.68 659.01,523.13 661.96,520.85 664.90,518.59 667.84,516.29 670.79,513.82 673.74,511.92 676.68,510.11 679.63,508.39 682.58,506.77 685.51,505.62 688.46,505.46 691.41,505.51 694.35,505.71 697.30,506.06 700.25,506.56 703.20,507.22 706.14,509.22 709.08,511.24 712.03,513.08 714.97,515.01 717.92,517.06 720.87,519.20 723.81,521.52 726.76,523.87 729.70,526.26 732.64,528.69 735.59,530.79 738.54,532.79 741.48,535.17 744.43,537.57 747.38,539.79 750.31,541.77 753.26,543.58 756.21,545.39 759.15,547.24 762.10,548.70 765.05,550.16 767.99,551.63 770.93,553.09 773.88,554.11 776.83,555.06 779.77,556.04 782.72,556.72 785.67,556.99 788.61,556.95 791.55,556.89 794.50,556.83 797.44,556.52 800.39,555.58 803.34,554.64 806.28,553.71 809.23,552.77 812.17,550.49 815.11,548.23 818.06,545.98 821.01,543.74 823.95,540.92 826.90,537.85 829.85,535.24 832.79,532.64 835.73,530.14 838.68,527.70 841.63,524.91 844.57,522.08 847.52,520.17 850.47,519.59 853.41,518.86 856.35,517.98 859.30,516.92 862.24,517.46 865.19,518.69 868.14,519.68 871.08,520.36 874.03,521.75 876.97,523.61 879.91,525.24 882.86,527.05 885.81,528.92 888.75,531.30 891.70,533.52 894.65,535.58 897.58,537.49 900.53,539.40 903.48,541.17 906.43,542.81 909.37,544.30 912.32,545.75 915.27,547.16 918.20,548.23 921.15,549.22 924.10,550.09 927.04,550.86 929.99,550.85 932.94,550.76 935.88,549.69 938.82,548.33 941.77,546.82 944.71,545.18 947.66,543.39 950.61,541.15 953.55,535.95 956.50,530.30 959.44,522.63 962.38,514.11 965.33,504.74 968.28,494.63 971.22,477.25 974.17,458.47 977.12,438.33 980.06,416.52 983.00,392.90 985.95,367.27 988.90,327.32 991.84,284.01 994.79,237.07 997.74,186.19 1000.68,153.72 1003.62,134.62 1006.57,120.43 1009.51,118.45 1012.46,134.96 1015.41,170.86 1018.35,225.46 1021.30,293.32 1024.24,374.48 1027.18,413.10 1030.13,452.93 1033.08,493.68 1036.02,535.04 1038.97,554.84 1041.92,571.79 1044.86,587.96 1047.80,602.36 1050.75,612.54 1053.70,620.00 1056.64,627.03 1059.59,632.22 1062.54,636.46 1065.47,639.14 1068.42,641.65 1071.37,643.93 1074.31,645.94" fill="none" stroke="#000000" stroke-width="3"/>
<line x1="142" y1="100" x2="178" y2="100" stroke="#000000" stroke-width="4"/>
<text x="188" y="105" font-family="Arial" font-size="18" fill="black">epsilon</text>
</svg>