<svg xmlns="http://www.w3.org/2000/svg" width="1200" height="820" viewBox="0 0 1200 820">
<rect width="100%" height="100%" fill="white"/>
<text x="600.0" y="36" text-anchor="middle" font-family="Arial" font-size="24" fill="black">profile_center_x: T</text>
<line x1="120.00" y1="75" x2="120.00" y2="705" stroke="#dddddd" stroke-width="1"/>
<text x="120.00" y="737" text-anchor="middle" font-family="Arial" font-size="16" fill="black">-0.560</text>
<line x1="376.25" y1="75" x2="376.25" y2="705" stroke="#dddddd" stroke-width="1"/>
<text x="376.25" y="737" text-anchor="middle" font-family="Arial" font-size="16" fill="black">1.470</text>
<line x1="632.50" y1="75" x2="632.50" y2="705" stroke="#dddddd" stroke-width="1"/>
<text x="632.50" y="737" text-anchor="middle" font-family="Arial" font-size="16" fill="black">3.500</text>
<line x1="888.75" y1="75" x2="888.75" y2="705" stroke="#dddddd" stroke-width="1"/>
<text x="888.75" y="737" text-anchor="middle" font-family="Arial" font-size="16" fill="black">5.530</text>
<line x1="1145.00" y1="75" x2="1145.00" y2="705" stroke="#dddddd" stroke-width="1"/>
<text x="1145.00" y="737" text-anchor="middle" font-family="Arial" font-size="16" fill="black">7.560</text>
<line x1="120" y1="705.00" x2="1145" y2="705.00" stroke="#dddddd" stroke-width="1"/>
<text x="104" y="710.00" text-anchor="end" font-family="Arial" font-size="16" fill="black">319.4</text>
<line x1="120" y1="547.50" x2="1145" y2="547.50" stroke="#dddddd" stroke-width="1"/>
<text x="104" y="552.50" text-anchor="end" font-family="Arial" font-size="16" fill="black">322.4</text>
<line x1="120" y1="390.00" x2="1145" y2="390.00" stroke="#dddddd" stroke-width="1"/>
<text x="104" y="395.00" text-anchor="end" font-family="Arial" font-size="16" fill="black">325.4</text>
<line x1="120" y1="232.50" x2="1145" y2="232.50" stroke="#dddddd" stroke-width="1"/>
<text x="104" y="237.50" text-anchor="end" font-family="Arial" font-size="16" fill="black">328.4</text>
<line x1="120" y1="75.00" x2="1145" y2="75.00" stroke="#dddddd" stroke-width="1"/>
<text x="104" y="80.00" text-anchor="end" font-family="Arial" font-size="16" fill="black">331.4</text>
<rect x="120" y="75" width="1025" height="630" fill="none" stroke="black" stroke-width="2"/>
<text x="632.5" y="785" text-anchor="middle" font-family="Arial" font-size="20" fill="black">x coordinate [m]</text>
<text x="34" y="390.0" transform="rotate(-90 34 390.0)" text-anchor="middle" font-family="Arial" font-size="20" fill="black">T [K]</text>
<polyline points="190.69,318.32 193.64,331.40 196.58,345.00 199.53,358.61 202.47,372.21 205.42,393.66 208.36,417.73 211.31,442.32 214.25,466.91 217.20,489.41 220.14,509.29 223.09,528.65 226.03,548.54 228.98,567.37 231.93,582.02 234.87,596.15 237.82,610.28 240.76,624.40 243.71,632.77 246.65,640.62 249.60,647.95 252.54,655.27 255.49,659.46 258.43,659.98 261.38,661.03 264.32,661.55 267.27,661.03 270.22,656.32 273.16,651.61 276.11,646.90 279.05,642.19 282.00,634.87 284.94,627.02 287.89,619.17 290.83,611.32 293.78,603.47 296.72,595.63 299.67,587.25 302.62,579.41 305.56,572.60 308.51,566.33 311.45,560.57 314.40,554.29 317.34,548.54 320.29,545.92 323.23,542.78 326.17,539.64 329.13,536.50 332.07,535.98 335.01,535.46 337.96,535.46 340.91,534.93 343.85,535.98 346.80,537.55 349.74,539.12 352.68,540.69 355.64,542.78 358.58,545.40 361.52,548.01 364.47,550.63 367.41,553.24 370.35,556.38 373.31,559.52 376.25,562.66 379.19,565.80 382.15,568.94 385.09,572.08 388.03,575.22 390.98,578.36 393.92,580.98 396.86,584.12 399.82,587.25 402.76,589.87 405.70,593.01 408.65,595.10 411.59,597.72 414.54,600.33 417.49,602.43 420.43,604.52 423.37,606.61 426.33,608.18 429.27,610.28 432.21,611.32 435.16,612.37 438.10,613.42 441.04,614.46 444.00,614.99 446.94,615.51 449.88,615.51 452.83,615.51 455.78,615.51 458.72,614.46 461.67,613.94 464.61,612.89 467.55,611.85 470.51,610.28 473.45,608.71 476.39,606.61 479.34,604.52 482.28,602.43 485.23,599.29 488.18,596.67 491.12,594.06 494.06,590.92 497.02,587.25 499.96,583.59 502.90,579.93 505.85,576.79 508.79,572.60 511.73,568.42 514.69,564.76 517.63,560.57 520.57,556.38 523.52,552.20 526.47,548.01 529.41,543.83 532.36,539.12 535.30,534.93 538.24,530.75 541.20,526.56 544.14,522.37 547.08,518.71 550.03,515.05 552.97,510.86 555.92,507.20 558.87,503.54 561.81,499.88 564.75,496.21 567.71,493.07 570.65,489.41 573.59,486.80 576.54,483.66 579.48,480.52 582.42,477.38 585.38,475.29 588.32,472.67 591.26,470.05 594.21,467.44 597.16,465.34 600.10,463.77 603.05,461.68 605.99,459.59 608.93,458.02 611.89,456.97 614.83,455.40 617.77,454.36 620.72,452.79 623.66,452.26 626.60,451.22 629.56,450.69 632.50,449.65 635.44,449.65 638.40,449.12 641.34,448.60 644.28,448.08 647.23,447.55 650.17,447.03 653.11,447.03 656.07,446.51 659.01,445.46 661.95,444.41 664.90,443.37 667.84,442.32 670.79,441.28 673.74,439.18 676.68,437.09 679.62,435.00 682.58,432.90 685.52,429.76 688.46,426.63 691.41,423.49 694.35,420.35 697.29,416.68 700.25,413.02 703.19,408.84 706.13,405.17 709.08,400.99 712.03,396.80 714.97,393.14 717.92,388.95 720.86,384.77 723.80,381.11 726.76,376.92 729.70,373.26 732.64,369.07 735.59,365.41 738.53,362.27 741.48,358.61 744.43,354.94 747.37,351.80 750.31,348.67 753.27,345.53 756.21,342.39 759.15,339.25 762.10,336.63 765.04,333.49 767.98,330.88 770.94,328.26 773.88,325.64 776.82,322.50 779.77,319.89 782.72,317.27 785.66,314.66 788.61,311.52 791.55,308.90 794.49,306.28 797.45,303.15 800.39,300.53 803.33,297.39 806.28,294.25 809.22,291.11 812.17,287.97 815.12,284.83 818.06,281.69 821.00,278.03 823.96,274.89 826.90,271.23 829.84,267.57 832.79,264.43 835.73,260.76 838.67,257.10 841.63,253.44 844.57,249.78 847.51,246.11 850.46,241.93 853.41,238.27 856.35,234.60 859.30,230.94 862.24,226.76 865.18,223.09 868.14,219.43 871.08,215.77 874.02,212.10 876.97,208.44 879.91,204.78 882.85,201.12 885.81,197.45 888.75,194.32 891.69,191.18 894.65,188.04 897.59,184.37 900.53,181.76 903.48,179.14 906.42,176.00 909.36,173.39 912.32,171.29 915.26,169.20 918.20,167.11 921.15,164.49 924.09,162.92 927.04,161.35 929.99,159.78 932.93,158.21 935.87,156.64 938.83,155.60 941.77,154.55 944.71,153.50 947.66,152.46 950.60,151.41 953.54,150.89 956.50,149.84 959.44,149.32 962.38,148.27 965.33,147.75 968.28,147.23 971.22,146.70 974.17,146.18 977.11,145.66 980.05,145.13 983.01,144.61 985.95,144.09 988.89,143.56 991.84,142.52 994.78,141.99 997.73,141.47 1000.68,140.95 1003.62,140.42 1006.56,139.38 1009.52,138.85 1012.46,137.81 1015.40,137.28 1018.35,136.24 1021.29,135.71 1024.23,134.67 1027.19,133.62 1030.13,132.58 1033.07,132.05 1036.02,131.01 1038.97,129.96 1041.91,128.91 1044.86,127.34 1047.80,126.30 1050.74,125.25 1053.70,124.20 1056.64,123.16 1059.58,122.11 1062.53,121.06 1065.47,120.02 1068.42,119.49 1071.37,118.97 1074.31,118.45" fill="none" stroke="#000000" stroke-width="3"/>
<line x1="142" y1="100" x2="178" y2="100" stroke="#000000" stroke-width="4"/>
<text x="188" y="105" font-family="Arial" font-size="18" fill="black">T</text>
</svg>