<svg xmlns="http://www.w3.org/2000/svg" width="1200" height="820" viewBox="0 0 1200 820">
<rect width="100%" height="100%" fill="white"/>
<text x="600.0" y="36" text-anchor="middle" font-family="Arial" font-size="24" fill="black">profile_center_z: alphat</text>
<line x1="120.00" y1="75" x2="120.00" y2="705" stroke="#dddddd" stroke-width="1"/>
<text x="120.00" y="737" text-anchor="middle" font-family="Arial" font-size="16" fill="black">-0.240</text>
<line x1="376.25" y1="75" x2="376.25" y2="705" stroke="#dddddd" stroke-width="1"/>
<text x="376.25" y="737" text-anchor="middle" font-family="Arial" font-size="16" fill="black">0.630</text>
<line x1="632.50" y1="75" x2="632.50" y2="705" stroke="#dddddd" stroke-width="1"/>
<text x="632.50" y="737" text-anchor="middle" font-family="Arial" font-size="16" fill="black">1.500</text>
<line x1="888.75" y1="75" x2="888.75" y2="705" stroke="#dddddd" stroke-width="1"/>
<text x="888.75" y="737" text-anchor="middle" font-family="Arial" font-size="16" fill="black">2.370</text>
<line x1="1145.00" y1="75" x2="1145.00" y2="705" stroke="#dddddd" stroke-width="1"/>
<text x="1145.00" y="737" text-anchor="middle" font-family="Arial" font-size="16" fill="black">3.240</text>
<line x1="120" y1="705.00" x2="1145" y2="705.00" stroke="#dddddd" stroke-width="1"/>
<text x="104" y="710.00" text-anchor="end" font-family="Arial" font-size="16" fill="black">-0.001</text>
<line x1="120" y1="547.50" x2="1145" y2="547.50" stroke="#dddddd" stroke-width="1"/>
<text x="104" y="552.50" text-anchor="end" font-family="Arial" font-size="16" fill="black">0.006</text>
<line x1="120" y1="390.00" x2="1145" y2="390.00" stroke="#dddddd" stroke-width="1"/>
<text x="104" y="395.00" text-anchor="end" font-family="Arial" font-size="16" fill="black">0.014</text>
<line x1="120" y1="232.50" x2="1145" y2="232.50" stroke="#dddddd" stroke-width="1"/>
<text x="104" y="237.50" text-anchor="end" font-family="Arial" font-size="16" fill="black">0.021</text>
<line x1="120" y1="75.00" x2="1145" y2="75.00" stroke="#dddddd" stroke-width="1"/>
<text x="104" y="80.00" text-anchor="end" font-family="Arial" font-size="16" fill="black">0.029</text>
<rect x="120" y="75" width="1025" height="630" fill="none" stroke="black" stroke-width="2"/>
<text x="632.5" y="785" text-anchor="middle" font-family="Arial" font-size="20" fill="black">z coordinate [m]</text>
<text x="34" y="390.0" transform="rotate(-90 34 390.0)" text-anchor="middle" font-family="Arial" font-size="20" fill="black">alphat [SI]</text>
<polyline points="190.69,660.83 193.64,660.86 196.58,660.89 199.53,660.92 202.47,660.95 205.42,660.99 208.36,661.02 211.31,661.05 214.25,661.08 217.20,661.11 220.14,661.14 223.09,661.18 226.03,661.22 228.98,661.27 231.93,661.31 234.87,661.35 237.82,661.39 240.76,661.43 243.71,661.47 246.65,661.51 249.60,661.55 252.54,661.54 255.49,661.53 258.43,661.52 261.38,661.51 264.32,661.50 267.27,661.49 270.22,661.48 273.16,661.47 276.11,661.46 279.05,661.45 282.00,661.37 284.94,661.29 287.89,661.21 290.83,661.13 293.78,661.05 296.72,660.98 299.67,660.90 302.61,660.82 305.56,660.74 308.51,660.66 311.45,660.50 314.40,660.34 317.34,660.18 320.29,660.02 323.23,659.86 326.18,659.70 329.12,659.53 332.07,659.37 335.01,659.21 337.96,659.05 340.91,658.72 343.85,658.38 346.80,658.04 349.74,657.71 352.69,657.38 355.63,657.04 358.58,656.70 361.52,656.37 364.47,656.04 367.41,655.70 370.36,654.13 373.30,652.56 376.25,650.98 379.20,649.41 382.14,647.84 385.09,646.27 388.03,644.69 390.98,643.12 393.92,641.55 396.87,639.98 399.81,633.92 402.76,627.86 405.70,621.80 408.65,615.74 411.59,609.68 414.54,603.62 417.49,597.56 420.43,591.50 423.38,585.44 426.32,579.38 429.27,568.13 432.21,556.87 435.16,545.61 438.10,534.35 441.05,523.09 443.99,511.83 446.94,500.57 449.89,489.32 452.83,478.06 455.78,466.81 458.72,454.68 461.67,442.55 464.61,430.42 467.56,418.29 470.50,406.16 473.45,394.05 476.39,381.92 479.34,369.79 482.28,357.66 485.23,345.53 488.18,335.97 491.12,326.41 494.07,316.86 497.01,307.30 499.96,297.72 502.90,288.17 505.85,278.61 508.79,269.05 511.74,259.50 514.68,249.92 517.63,243.42 520.57,236.92 523.52,230.41 526.47,223.91 529.41,217.41 532.36,210.89 535.30,204.39 538.25,197.88 541.19,191.38 544.14,184.88 547.08,180.91 550.03,176.95 552.97,173.00 555.92,169.04 558.86,165.09 561.81,161.13 564.76,157.16 567.70,153.21 570.65,149.25 573.59,145.28 576.54,143.26 579.48,141.21 582.43,139.16 585.37,137.12 588.32,135.09 591.26,133.05 594.21,131.00 597.16,128.95 600.10,126.93 603.05,124.88 605.99,124.23 608.94,123.60 611.88,122.94 614.83,122.31 617.77,121.68 620.72,121.02 623.66,120.39 626.61,119.74 629.55,119.10 632.50,118.45 635.45,118.81 638.39,119.17 641.34,119.52 644.28,119.88 647.23,120.24 650.17,120.60 653.12,120.96 656.06,121.32 659.01,121.68 661.95,122.03 664.90,123.09 667.84,124.12 670.79,125.18 673.74,126.23 676.68,127.29 679.63,128.34 682.57,129.40 685.52,130.45 688.46,131.51 691.41,132.54 694.35,134.06 697.30,135.58 700.24,137.10 703.19,138.60 706.14,140.11 709.08,141.63 712.03,143.13 714.97,144.65 717.92,146.17 720.86,147.69 723.81,149.48 726.75,151.30 729.70,153.11 732.64,154.92 735.59,156.72 738.53,158.53 741.48,160.35 744.43,162.16 747.37,163.95 750.32,165.77 753.26,167.79 756.21,169.82 759.15,171.84 762.10,173.87 765.04,175.89 767.99,177.90 770.93,179.92 773.88,181.95 776.82,183.97 779.77,186.00 782.72,188.23 785.66,190.45 788.61,192.69 791.55,194.92 794.50,197.16 797.44,199.37 800.39,201.61 803.33,203.85 806.28,206.08 809.22,208.30 812.17,210.81 815.11,213.30 818.06,215.79 821.01,218.30 823.95,220.79 826.90,223.28 829.84,225.79 832.79,228.27 835.73,230.76 838.68,233.25 841.62,236.12 844.57,238.97 847.51,241.82 850.46,244.67 853.41,247.51 856.35,250.36 859.30,253.23 862.24,256.08 865.19,258.93 868.13,261.78 871.08,265.11 874.02,268.46 876.97,271.80 879.91,275.13 882.86,278.48 885.80,281.82 888.75,285.15 891.70,288.50 894.64,291.84 897.59,295.17 900.53,299.22 903.48,303.25 906.42,307.30 909.37,311.33 912.31,315.38 915.26,319.41 918.20,323.44 921.15,327.49 924.09,331.52 927.04,335.57 929.99,340.59 932.93,345.63 935.88,350.65 938.82,355.67 941.77,360.72 944.71,365.74 947.66,370.78 950.60,375.80 953.55,380.82 956.49,385.86 959.44,392.26 962.39,398.65 965.33,405.02 968.28,411.41 971.22,417.80 974.17,424.20 977.11,430.59 980.06,436.98 983.00,443.35 985.95,449.74 988.89,457.78 991.84,465.80 994.78,473.82 997.73,481.85 1000.68,489.87 1003.62,497.90 1006.57,505.92 1009.51,513.95 1012.46,521.97 1015.40,530.00 1018.35,538.66 1021.29,547.32 1024.24,555.97 1027.18,564.63 1030.13,573.29 1033.07,581.95 1036.02,590.61 1038.97,599.27 1041.91,607.93 1044.86,616.59 1047.80,620.81 1050.75,625.03 1053.69,629.25 1056.64,633.47 1059.58,637.69 1062.53,641.91 1065.47,646.13 1068.42,650.35 1071.36,654.57 1074.31,658.78" fill="none" stroke="#000000" stroke-width="3"/>
<line x1="142" y1="100" x2="178" y2="100" stroke="#000000" stroke-width="4"/>
<text x="188" y="105" font-family="Arial" font-size="18" fill="black">alphat</text>
</svg>