<svg xmlns="http://www.w3.org/2000/svg" width="1200" height="820" viewBox="0 0 1200 820">
<rect width="100%" height="100%" fill="white"/>
<text x="600.0" y="36" text-anchor="middle" font-family="Arial" font-size="24" fill="black">profile_center_z: velocity magnitude</text>
<line x1="120.00" y1="75" x2="120.00" y2="705" stroke="#dddddd" stroke-width="1"/>
<text x="120.00" y="737" text-anchor="middle" font-family="Arial" font-size="16" fill="black">-0.240</text>
<line x1="376.25" y1="75" x2="376.25" y2="705" stroke="#dddddd" stroke-width="1"/>
<text x="376.25" y="737" text-anchor="middle" font-family="Arial" font-size="16" fill="black">0.630</text>
<line x1="632.50" y1="75" x2="632.50" y2="705" stroke="#dddddd" stroke-width="1"/>
<text x="632.50" y="737" text-anchor="middle" font-family="Arial" font-size="16" fill="black">1.500</text>
<line x1="888.75" y1="75" x2="888.75" y2="705" stroke="#dddddd" stroke-width="1"/>
<text x="888.75" y="737" text-anchor="middle" font-family="Arial" font-size="16" fill="black">2.370</text>
<line x1="1145.00" y1="75" x2="1145.00" y2="705" stroke="#dddddd" stroke-width="1"/>
<text x="1145.00" y="737" text-anchor="middle" font-family="Arial" font-size="16" fill="black">3.240</text>
<line x1="120" y1="705.00" x2="1145" y2="705.00" stroke="#dddddd" stroke-width="1"/>
<text x="104" y="710.00" text-anchor="end" font-family="Arial" font-size="16" fill="black">0.053</text>
<line x1="120" y1="547.50" x2="1145" y2="547.50" stroke="#dddddd" stroke-width="1"/>
<text x="104" y="552.50" text-anchor="end" font-family="Arial" font-size="16" fill="black">0.237</text>
<line x1="120" y1="390.00" x2="1145" y2="390.00" stroke="#dddddd" stroke-width="1"/>
<text x="104" y="395.00" text-anchor="end" font-family="Arial" font-size="16" fill="black">0.422</text>
<line x1="120" y1="232.50" x2="1145" y2="232.50" stroke="#dddddd" stroke-width="1"/>
<text x="104" y="237.50" text-anchor="end" font-family="Arial" font-size="16" fill="black">0.606</text>
<line x1="120" y1="75.00" x2="1145" y2="75.00" stroke="#dddddd" stroke-width="1"/>
<text x="104" y="80.00" text-anchor="end" font-family="Arial" font-size="16" fill="black">0.791</text>
<rect x="120" y="75" width="1025" height="630" fill="none" stroke="black" stroke-width="2"/>
<text x="632.5" y="785" text-anchor="middle" font-family="Arial" font-size="20" fill="black">z coordinate [m]</text>
<text x="34" y="390.0" transform="rotate(-90 34 390.0)" text-anchor="middle" font-family="Arial" font-size="20" fill="black">|U| [m/s]</text>
<polyline points="190.69,118.45 193.64,119.93 196.58,121.39 199.53,122.87 202.47,124.34 205.42,125.82 208.36,127.28 211.31,128.76 214.25,130.24 217.20,131.71 220.14,133.18 223.09,137.15 226.03,141.12 228.98,145.08 231.93,149.05 234.87,153.01 237.82,156.98 240.76,160.95 243.71,164.91 246.65,168.88 249.60,172.84 252.54,178.57 255.49,184.29 258.43,190.02 261.38,195.74 264.32,201.47 267.27,207.19 270.22,212.92 273.16,218.64 276.11,224.37 279.05,230.09 282.00,237.11 284.94,244.15 287.89,251.17 290.83,258.20 293.78,265.23 296.72,272.25 299.67,279.28 302.61,286.31 305.56,293.33 308.51,300.36 311.45,308.34 314.40,316.33 317.34,324.32 320.29,332.31 323.23,340.29 326.18,348.28 329.12,356.26 332.07,364.25 335.01,372.24 337.96,380.22 340.91,388.73 343.85,397.24 346.80,405.75 349.74,414.26 352.69,422.77 355.63,431.28 358.58,439.79 361.52,448.30 364.47,456.80 367.41,465.31 370.36,473.90 373.30,482.48 376.25,491.07 379.20,499.66 382.14,508.24 385.09,516.83 388.03,525.42 390.98,534.00 393.92,542.59 396.87,551.18 399.81,558.61 402.76,566.05 405.70,573.49 408.65,580.92 411.59,588.36 414.54,595.79 417.49,603.23 420.43,610.67 423.38,618.10 426.32,625.54 429.27,629.13 432.21,632.74 435.16,636.34 438.10,639.94 441.05,643.55 443.99,647.14 446.94,650.74 449.89,654.35 452.83,657.95 455.78,661.55 458.72,661.42 461.67,661.29 464.61,661.15 467.56,661.02 470.50,660.89 473.45,660.76 476.39,660.63 479.34,660.49 482.28,660.36 485.23,660.23 488.18,659.05 491.12,657.86 494.07,656.69 497.01,655.51 499.96,654.32 502.90,653.14 505.85,651.96 508.79,650.78 511.74,649.60 514.68,648.41 517.63,647.04 520.57,645.67 523.52,644.30 526.47,642.92 529.41,641.55 532.36,640.17 535.30,638.80 538.25,637.43 541.19,636.06 544.14,634.68 547.08,633.21 550.03,631.72 552.97,630.24 555.92,628.77 558.86,627.29 561.81,625.80 564.76,624.33 567.70,622.85 570.65,621.37 573.59,619.90 576.54,618.36 579.48,616.82 582.43,615.29 585.37,613.76 588.32,612.22 591.26,610.68 594.21,609.16 597.16,607.62 600.10,606.08 603.05,604.55 605.99,603.04 608.94,601.54 611.88,600.04 614.83,598.54 617.77,597.02 620.72,595.52 623.66,594.02 626.61,592.52 629.55,591.01 632.50,589.50 635.45,588.12 638.39,586.74 641.34,585.35 644.28,583.96 647.23,582.58 650.17,581.20 653.12,579.81 656.06,578.43 659.01,577.04 661.95,575.65 664.90,574.47 667.84,573.27 670.79,572.09 673.74,570.89 676.68,569.70 679.63,568.52 682.57,567.32 685.52,566.14 688.46,564.95 691.41,563.75 694.35,562.81 697.30,561.86 700.24,560.91 703.19,559.96 706.14,559.01 709.08,558.07 712.03,557.12 714.97,556.17 717.92,555.22 720.86,554.29 723.81,553.59 726.75,552.90 729.70,552.21 732.64,551.52 735.59,550.83 738.53,550.14 741.48,549.44 744.43,548.75 747.37,548.06 750.32,547.37 753.26,546.90 756.21,546.43 759.15,545.97 762.10,545.50 765.04,545.03 767.99,544.56 770.93,544.10 773.88,543.63 776.82,543.16 779.77,542.69 782.72,542.36 785.66,542.03 788.61,541.68 791.55,541.35 794.50,541.02 797.44,540.68 800.39,540.34 803.33,540.01 806.28,539.68 809.22,539.34 812.17,539.02 815.11,538.70 818.06,538.37 821.01,538.06 823.95,537.73 826.90,537.41 829.84,537.09 832.79,536.77 835.73,536.44 838.68,536.13 841.62,535.75 844.57,535.37 847.51,535.00 850.46,534.61 853.41,534.24 856.35,533.86 859.30,533.49 862.24,533.11 865.19,532.74 868.13,532.36 871.08,531.96 874.02,531.56 876.97,531.16 879.91,530.76 882.86,530.36 885.80,529.96 888.75,529.56 891.70,529.16 894.64,528.76 897.59,528.36 900.53,528.07 903.48,527.78 906.42,527.49 909.37,527.20 912.31,526.90 915.26,526.61 918.20,526.32 921.15,526.03 924.09,525.74 927.04,525.45 929.99,525.49 932.93,525.54 935.88,525.58 938.82,525.63 941.77,525.68 944.71,525.73 947.66,525.77 950.60,525.82 953.55,525.86 956.49,525.91 959.44,526.60 962.39,527.28 965.33,527.96 968.28,528.65 971.22,529.33 974.17,530.00 977.11,530.69 980.06,531.37 983.00,532.05 985.95,532.74 988.89,534.29 991.84,535.84 994.78,537.41 997.73,538.96 1000.68,540.51 1003.62,542.07 1006.57,543.62 1009.51,545.18 1012.46,546.73 1015.40,548.28 1018.35,550.82 1021.29,553.35 1024.24,555.87 1027.18,558.40 1030.13,560.93 1033.07,563.45 1036.02,565.98 1038.97,568.52 1041.91,571.04 1044.86,573.57 1047.80,575.01 1050.75,576.46 1053.69,577.90 1056.64,579.33 1059.58,580.78 1062.53,582.22 1065.47,583.66 1068.42,585.11 1071.36,586.55 1074.31,587.99" fill="none" stroke="#000000" stroke-width="3"/>
<line x1="142" y1="100" x2="178" y2="100" stroke="#000000" stroke-width="4"/>
<text x="188" y="105" font-family="Arial" font-size="18" fill="black">|U|</text>
</svg>