<svg xmlns="http://www.w3.org/2000/svg" width="1200" height="820" viewBox="0 0 1200 820">
<rect width="100%" height="100%" fill="white"/>
<text x="600.0" y="36" text-anchor="middle" font-family="Arial" font-size="24" fill="black">profile_near_ceiling_x: vorticity:2</text>
<line x1="120.00" y1="75" x2="120.00" y2="705" stroke="#dddddd" stroke-width="1"/>
<text x="120.00" y="737" text-anchor="middle" font-family="Arial" font-size="16" fill="black">-0.560</text>
<line x1="376.25" y1="75" x2="376.25" y2="705" stroke="#dddddd" stroke-width="1"/>
<text x="376.25" y="737" text-anchor="middle" font-family="Arial" font-size="16" fill="black">1.470</text>
<line x1="632.50" y1="75" x2="632.50" y2="705" stroke="#dddddd" stroke-width="1"/>
<text x="632.50" y="737" text-anchor="middle" font-family="Arial" font-size="16" fill="black">3.500</text>
<line x1="888.75" y1="75" x2="888.75" y2="705" stroke="#dddddd" stroke-width="1"/>
<text x="888.75" y="737" text-anchor="middle" font-family="Arial" font-size="16" fill="black">5.530</text>
<line x1="1145.00" y1="75" x2="1145.00" y2="705" stroke="#dddddd" stroke-width="1"/>
<text x="1145.00" y="737" text-anchor="middle" font-family="Arial" font-size="16" fill="black">7.560</text>
<line x1="120" y1="705.00" x2="1145" y2="705.00" stroke="#dddddd" stroke-width="1"/>
<text x="104" y="710.00" text-anchor="end" font-family="Arial" font-size="16" fill="black">-3.026</text>
<line x1="120" y1="547.50" x2="1145" y2="547.50" stroke="#dddddd" stroke-width="1"/>
<text x="104" y="552.50" text-anchor="end" font-family="Arial" font-size="16" fill="black">-2.183</text>
<line x1="120" y1="390.00" x2="1145" y2="390.00" stroke="#dddddd" stroke-width="1"/>
<text x="104" y="395.00" text-anchor="end" font-family="Arial" font-size="16" fill="black">-1.340</text>
<line x1="120" y1="232.50" x2="1145" y2="232.50" stroke="#dddddd" stroke-width="1"/>
<text x="104" y="237.50" text-anchor="end" font-family="Arial" font-size="16" fill="black">-0.497</text>
<line x1="120" y1="75.00" x2="1145" y2="75.00" stroke="#dddddd" stroke-width="1"/>
<text x="104" y="80.00" text-anchor="end" font-family="Arial" font-size="16" fill="black">0.347</text>
<rect x="120" y="75" width="1025" height="630" fill="none" stroke="black" stroke-width="2"/>
<text x="632.5" y="785" text-anchor="middle" font-family="Arial" font-size="20" fill="black">x coordinate [m]</text>
<text x="34" y="390.0" transform="rotate(-90 34 390.0)" text-anchor="middle" font-family="Arial" font-size="20" fill="black">vorticity:2 [SI]</text>
<polyline points="190.69,661.55 193.64,598.40 196.58,535.26 199.53,472.12 202.47,408.97 205.42,346.28 208.36,283.78 211.31,221.29 214.25,158.79 217.20,123.58 220.14,124.78 223.09,125.97 226.03,127.17 228.98,128.31 231.93,129.14 234.87,129.98 237.82,130.81 240.76,131.65 243.71,132.13 246.65,132.56 249.60,132.99 252.54,133.42 255.49,133.74 258.43,133.98 261.38,134.23 264.32,134.47 267.27,134.71 270.22,134.92 273.16,135.13 276.11,135.34 279.05,135.55 282.00,135.78 284.94,136.02 287.89,136.25 290.83,136.49 293.78,136.73 296.72,136.98 299.67,137.23 302.62,137.47 305.56,137.71 308.51,137.93 311.45,138.15 314.40,138.36 317.34,138.58 320.29,138.75 323.23,138.92 326.17,139.09 329.13,139.27 332.07,139.41 335.01,139.55 337.96,139.68 340.91,139.82 343.85,139.93 346.80,140.01 349.74,140.10 352.68,140.18 355.64,140.23 358.58,140.19 361.52,140.15 364.47,140.11 367.41,140.08 370.35,139.95 373.31,139.83 376.25,139.70 379.19,139.57 382.15,139.30 385.09,138.96 388.03,138.63 390.98,138.29 393.92,137.89 396.86,137.42 399.82,136.94 402.76,136.46 405.70,135.95 408.65,135.24 411.59,134.52 414.54,133.81 417.49,133.09 420.43,132.33 423.37,131.55 426.33,130.78 429.27,130.01 432.21,129.49 435.16,129.16 438.10,128.83 441.04,128.50 444.00,128.27 446.94,128.27 449.88,128.27 452.83,128.27 455.78,128.26 458.72,128.48 461.67,128.69 464.61,128.90 467.55,129.11 470.51,129.42 473.45,129.77 476.39,130.12 479.34,130.46 482.28,130.87 485.23,131.34 488.18,131.81 491.12,132.28 494.06,132.77 497.02,133.38 499.96,133.99 502.90,134.61 505.85,135.22 508.79,135.94 511.73,136.69 514.69,137.43 517.63,138.17 520.57,138.98 523.52,139.84 526.47,140.70 529.41,141.55 532.36,142.43 535.30,143.37 538.24,144.31 541.20,145.25 544.14,146.19 547.08,147.13 550.03,148.08 552.97,149.03 555.92,149.97 558.87,150.80 561.81,151.57 564.75,152.34 567.71,153.12 570.65,153.66 573.59,153.88 576.54,154.10 579.48,154.33 582.42,154.40 585.38,153.54 588.32,152.68 591.26,151.82 594.21,150.96 597.16,148.62 600.10,146.03 603.05,143.43 605.99,140.84 608.93,137.84 611.89,134.55 614.83,131.25 617.77,127.95 620.72,125.11 623.66,123.45 626.60,121.78 629.56,120.11 632.50,118.45 635.44,118.84 638.40,119.23 641.34,119.63 644.28,120.02 647.23,121.10 650.17,122.45 653.11,123.80 656.07,125.15 659.01,126.54 661.95,128.01 664.90,129.47 667.84,130.93 670.79,132.37 673.74,133.63 676.68,134.89 679.62,136.15 682.58,137.42 685.52,138.47 688.46,139.49 691.41,140.52 694.35,141.54 697.29,142.45 700.25,143.28 703.19,144.10 706.13,144.93 709.08,145.72 712.03,146.41 714.97,147.11 717.92,147.80 720.86,148.49 723.80,149.10 726.76,149.71 729.70,150.32 732.64,150.92 735.59,151.50 738.53,152.05 741.48,152.61 744.43,153.17 747.37,153.72 750.31,154.26 753.27,154.79 756.21,155.33 759.15,155.87 762.10,156.39 765.04,156.92 767.98,157.44 770.94,157.97 773.88,158.49 776.82,159.02 779.77,159.55 782.72,160.08 785.66,160.62 788.61,161.17 791.55,161.72 794.49,162.27 797.45,162.83 800.39,163.41 803.33,163.99 806.28,164.58 809.22,165.16 812.17,165.78 815.12,166.40 818.06,167.01 821.00,167.63 823.96,168.28 826.90,168.93 829.84,169.59 832.79,170.25 835.73,170.92 838.67,171.62 841.63,172.31 844.57,173.01 847.51,173.71 850.46,174.45 853.41,175.19 856.35,175.93 859.30,176.67 862.24,177.42 865.18,178.18 868.14,178.93 871.08,179.69 874.02,180.43 876.97,181.15 879.91,181.87 882.85,182.58 885.81,183.26 888.75,183.84 891.69,184.42 894.65,185.00 897.59,185.58 900.53,185.89 903.48,186.20 906.42,186.51 909.36,186.82 912.32,186.86 915.26,186.81 918.20,186.75 921.15,186.69 924.09,186.48 927.04,186.04 929.99,185.61 932.93,185.18 935.87,184.71 938.83,183.99 941.77,183.26 944.71,182.53 947.66,181.81 950.60,180.93 953.54,180.03 956.50,179.12 959.44,178.22 962.38,177.28 965.33,176.30 968.28,175.33 971.22,174.36 974.17,173.38 977.11,172.41 980.05,171.43 983.01,170.46 985.95,169.48 988.89,168.52 991.84,167.54 994.78,166.57 997.73,165.60 1000.68,164.60 1003.62,163.59 1006.56,162.58 1009.52,161.56 1012.46,160.48 1015.40,159.30 1018.35,158.12 1021.29,156.94 1024.23,155.71 1027.19,154.14 1030.13,152.56 1033.07,150.99 1036.02,149.41 1038.97,147.12 1041.91,144.71 1044.86,142.30 1047.80,139.89 1050.74,158.18 1053.70,191.98 1056.64,225.79 1059.58,259.60 1062.53,293.83 1065.47,329.13 1068.42,364.41 1071.37,399.70 1074.31,435.00" fill="none" stroke="#000000" stroke-width="3"/>
<line x1="142" y1="100" x2="178" y2="100" stroke="#000000" stroke-width="4"/>
<text x="188" y="105" font-family="Arial" font-size="18" fill="black">vorticity:2</text>
</svg>