<svg xmlns="http://www.w3.org/2000/svg" width="1200" height="820" viewBox="0 0 1200 820">
<rect width="100%" height="100%" fill="white"/>
<text x="600.0" y="36" text-anchor="middle" font-family="Arial" font-size="24" fill="black">profile_center_x: k</text>
<line x1="120.00" y1="75" x2="120.00" y2="705" stroke="#dddddd" stroke-width="1"/>
<text x="120.00" y="737" text-anchor="middle" font-family="Arial" font-size="16" fill="black">-0.560</text>
<line x1="376.25" y1="75" x2="376.25" y2="705" stroke="#dddddd" stroke-width="1"/>
<text x="376.25" y="737" text-anchor="middle" font-family="Arial" font-size="16" fill="black">1.470</text>
<line x1="632.50" y1="75" x2="632.50" y2="705" stroke="#dddddd" stroke-width="1"/>
<text x="632.50" y="737" text-anchor="middle" font-family="Arial" font-size="16" fill="black">3.500</text>
<line x1="888.75" y1="75" x2="888.75" y2="705" stroke="#dddddd" stroke-width="1"/>
<text x="888.75" y="737" text-anchor="middle" font-family="Arial" font-size="16" fill="black">5.530</text>
<line x1="1145.00" y1="75" x2="1145.00" y2="705" stroke="#dddddd" stroke-width="1"/>
<text x="1145.00" y="737" text-anchor="middle" font-family="Arial" font-size="16" fill="black">7.560</text>
<line x1="120" y1="705.00" x2="1145" y2="705.00" stroke="#dddddd" stroke-width="1"/>
<text x="104" y="710.00" text-anchor="end" font-family="Arial" font-size="16" fill="black">0.003</text>
<line x1="120" y1="547.50" x2="1145" y2="547.50" stroke="#dddddd" stroke-width="1"/>
<text x="104" y="552.50" text-anchor="end" font-family="Arial" font-size="16" fill="black">0.014</text>
<line x1="120" y1="390.00" x2="1145" y2="390.00" stroke="#dddddd" stroke-width="1"/>
<text x="104" y="395.00" text-anchor="end" font-family="Arial" font-size="16" fill="black">0.025</text>
<line x1="120" y1="232.50" x2="1145" y2="232.50" stroke="#dddddd" stroke-width="1"/>
<text x="104" y="237.50" text-anchor="end" font-family="Arial" font-size="16" fill="black">0.036</text>
<line x1="120" y1="75.00" x2="1145" y2="75.00" stroke="#dddddd" stroke-width="1"/>
<text x="104" y="80.00" text-anchor="end" font-family="Arial" font-size="16" fill="black">0.047</text>
<rect x="120" y="75" width="1025" height="630" fill="none" stroke="black" stroke-width="2"/>
<text x="632.5" y="785" text-anchor="middle" font-family="Arial" font-size="20" fill="black">x coordinate [m]</text>
<text x="34" y="390.0" transform="rotate(-90 34 390.0)" text-anchor="middle" font-family="Arial" font-size="20" fill="black">k [m2/s2]</text>
<polyline points="190.69,555.15 193.64,541.64 196.58,528.14 199.53,514.64 202.47,501.13 205.42,482.74 208.36,462.37 211.31,442.01 214.25,421.65 217.20,405.25 220.14,394.10 223.09,382.96 226.03,371.81 228.98,361.16 231.93,353.49 234.87,345.82 237.82,338.15 240.76,330.48 243.71,323.55 246.65,316.74 249.60,309.93 252.54,303.13 255.49,296.05 258.43,288.75 261.38,281.47 264.32,274.18 267.27,266.75 270.22,258.97 273.16,251.18 276.11,243.39 279.05,235.59 282.00,228.53 284.94,221.47 287.89,214.39 290.83,207.33 293.78,201.83 296.72,196.95 299.67,192.07 302.62,187.20 305.56,183.46 308.51,181.23 311.45,179.00 314.40,176.77 317.34,174.79 320.29,174.31 323.23,173.84 326.17,173.37 329.13,172.90 332.07,172.72 335.01,172.61 337.96,172.49 340.91,172.38 343.85,171.94 346.80,171.29 349.74,170.62 352.68,169.97 355.64,169.16 358.58,167.98 361.52,166.79 364.47,165.60 367.41,164.41 370.35,163.31 373.31,162.23 376.25,161.14 379.19,160.04 382.15,159.51 385.09,159.19 388.03,158.87 390.98,158.55 393.92,158.71 396.86,159.52 399.82,160.33 402.76,161.14 405.70,162.10 408.65,163.97 411.59,165.85 414.54,167.73 417.49,169.60 420.43,172.11 423.37,174.72 426.33,177.32 429.27,179.93 432.21,182.72 435.16,185.65 438.10,188.56 441.04,191.48 444.00,194.39 446.94,197.25 449.88,200.12 452.83,202.99 455.78,205.85 458.72,208.46 461.67,211.05 464.61,213.65 467.55,216.24 470.51,218.60 473.45,220.86 476.39,223.13 479.34,225.39 482.28,227.49 485.23,229.36 488.18,231.22 491.12,233.10 494.06,234.91 497.02,236.35 499.96,237.78 502.90,239.21 505.85,240.64 508.79,241.76 511.73,242.82 514.69,243.87 517.63,244.93 520.57,245.81 523.52,246.55 526.47,247.29 529.41,248.03 532.36,248.66 535.30,249.04 538.24,249.40 541.20,249.78 544.14,250.15 547.08,250.08 550.03,250.01 552.97,249.94 555.92,249.88 558.87,249.44 561.81,248.87 564.75,248.29 567.71,247.72 570.65,246.91 573.59,245.78 576.54,244.65 579.48,243.52 582.42,242.32 585.38,240.66 588.32,239.01 591.26,237.34 594.21,235.68 597.16,233.67 600.10,231.58 603.05,229.51 605.99,227.43 608.93,225.25 611.89,222.99 614.83,220.72 617.77,218.46 620.72,216.23 623.66,214.10 626.60,211.97 629.56,209.85 632.50,207.73 635.44,206.10 638.40,204.46 641.34,202.83 644.28,201.19 647.23,200.09 650.17,199.22 653.11,198.35 656.07,197.47 659.01,196.95 661.95,196.89 664.90,196.83 667.84,196.79 670.79,196.82 673.74,197.40 676.68,197.98 679.62,198.57 682.58,199.15 685.52,199.98 688.46,200.86 691.41,201.73 694.35,202.61 697.29,203.43 700.25,204.23 703.19,205.04 706.13,205.84 709.08,206.53 712.03,206.97 714.97,207.41 717.92,207.85 720.86,208.28 723.80,208.18 726.76,208.07 729.70,207.96 732.64,207.85 735.59,207.27 738.53,206.50 741.48,205.74 744.43,204.97 747.37,203.90 750.31,202.42 753.27,200.93 756.21,199.45 759.15,197.88 762.10,195.66 765.04,193.46 767.98,191.26 770.94,189.05 773.88,186.24 776.82,183.33 779.77,180.42 782.72,177.51 785.66,174.24 788.61,170.73 791.55,167.21 794.49,163.69 797.45,160.09 800.39,156.24 803.33,152.39 806.28,148.54 809.22,144.70 812.17,141.11 815.12,137.54 818.06,133.96 821.00,130.39 823.96,127.67 826.90,125.29 829.84,122.92 832.79,120.55 835.73,119.10 838.67,118.88 841.63,118.67 844.57,118.45 847.51,118.61 850.46,121.01 853.41,123.41 856.35,125.80 859.30,128.20 862.24,132.60 865.18,137.34 868.14,142.07 871.08,146.80 874.02,152.40 876.97,158.68 879.91,164.96 882.85,171.25 885.81,177.74 888.75,184.76 891.69,191.80 894.65,198.83 897.59,205.87 900.53,213.16 903.48,220.45 906.42,227.75 909.36,235.04 912.32,242.38 915.26,249.75 918.20,257.10 921.15,264.45 924.09,271.82 927.04,279.16 929.99,286.51 932.93,293.86 935.87,301.20 938.83,308.48 941.77,315.76 944.71,323.04 947.66,330.32 950.60,337.46 953.54,344.58 956.50,351.68 959.44,358.79 962.38,365.75 965.33,372.60 968.28,379.44 971.22,386.29 974.17,393.05 977.11,399.56 980.05,406.09 983.01,412.61 985.95,419.13 988.89,425.35 991.84,431.59 994.78,437.81 997.73,444.04 1000.68,450.16 1003.62,456.25 1006.56,462.33 1009.52,468.42 1012.46,474.60 1015.40,480.90 1018.35,487.21 1021.29,493.50 1024.23,499.93 1027.19,507.12 1030.13,514.32 1033.07,521.50 1036.02,528.69 1038.97,537.72 1041.91,547.07 1044.86,556.40 1047.80,565.74 1050.74,577.42 1053.70,590.84 1056.64,604.25 1059.58,617.67 1062.53,629.54 1065.47,637.54 1068.42,645.54 1071.37,653.55 1074.31,661.55" fill="none" stroke="#000000" stroke-width="3"/>
<line x1="142" y1="100" x2="178" y2="100" stroke="#000000" stroke-width="4"/>
<text x="188" y="105" font-family="Arial" font-size="18" fill="black">k</text>
</svg>