<svg xmlns="http://www.w3.org/2000/svg" width="1200" height="820" viewBox="0 0 1200 820">
<rect width="100%" height="100%" fill="white"/>
<text x="600.0" y="36" text-anchor="middle" font-family="Arial" font-size="24" fill="black">profile_near_ceiling_x: velocity magnitude</text>
<line x1="120.00" y1="75" x2="120.00" y2="705" stroke="#dddddd" stroke-width="1"/>
<text x="120.00" y="737" text-anchor="middle" font-family="Arial" font-size="16" fill="black">-0.560</text>
<line x1="376.25" y1="75" x2="376.25" y2="705" stroke="#dddddd" stroke-width="1"/>
<text x="376.25" y="737" text-anchor="middle" font-family="Arial" font-size="16" fill="black">1.470</text>
<line x1="632.50" y1="75" x2="632.50" y2="705" stroke="#dddddd" stroke-width="1"/>
<text x="632.50" y="737" text-anchor="middle" font-family="Arial" font-size="16" fill="black">3.500</text>
<line x1="888.75" y1="75" x2="888.75" y2="705" stroke="#dddddd" stroke-width="1"/>
<text x="888.75" y="737" text-anchor="middle" font-family="Arial" font-size="16" fill="black">5.530</text>
<line x1="1145.00" y1="75" x2="1145.00" y2="705" stroke="#dddddd" stroke-width="1"/>
<text x="1145.00" y="737" text-anchor="middle" font-family="Arial" font-size="16" fill="black">7.560</text>
<line x1="120" y1="705.00" x2="1145" y2="705.00" stroke="#dddddd" stroke-width="1"/>
<text x="104" y="710.00" text-anchor="end" font-family="Arial" font-size="16" fill="black">0.154</text>
<line x1="120" y1="547.50" x2="1145" y2="547.50" stroke="#dddddd" stroke-width="1"/>
<text x="104" y="552.50" text-anchor="end" font-family="Arial" font-size="16" fill="black">0.238</text>
<line x1="120" y1="390.00" x2="1145" y2="390.00" stroke="#dddddd" stroke-width="1"/>
<text x="104" y="395.00" text-anchor="end" font-family="Arial" font-size="16" fill="black">0.323</text>
<line x1="120" y1="232.50" x2="1145" y2="232.50" stroke="#dddddd" stroke-width="1"/>
<text x="104" y="237.50" text-anchor="end" font-family="Arial" font-size="16" fill="black">0.407</text>
<line x1="120" y1="75.00" x2="1145" y2="75.00" stroke="#dddddd" stroke-width="1"/>
<text x="104" y="80.00" text-anchor="end" font-family="Arial" font-size="16" fill="black">0.491</text>
<rect x="120" y="75" width="1025" height="630" fill="none" stroke="black" stroke-width="2"/>
<text x="632.5" y="785" text-anchor="middle" font-family="Arial" font-size="20" fill="black">x coordinate [m]</text>
<text x="34" y="390.0" transform="rotate(-90 34 390.0)" text-anchor="middle" font-family="Arial" font-size="20" fill="black">|U| [m/s]</text>
<polyline points="190.69,397.03 193.64,396.43 196.58,395.84 199.53,395.24 202.47,394.66 205.42,389.95 208.36,383.60 211.31,377.27 214.25,370.93 217.20,362.32 220.14,350.67 223.09,339.03 226.03,327.38 228.98,315.73 231.93,303.96 234.87,292.20 237.82,280.45 240.76,268.69 243.71,258.61 246.65,248.82 249.60,239.02 252.54,229.24 255.49,221.49 258.43,215.27 261.38,209.05 264.32,202.85 267.27,197.81 270.22,195.68 273.16,193.57 276.11,191.46 279.05,189.35 282.00,191.38 284.94,193.42 287.89,195.47 290.83,197.51 293.78,202.31 296.72,208.25 299.67,214.17 302.62,220.09 305.56,227.46 308.51,236.76 311.45,246.06 314.40,255.36 317.34,265.05 320.29,276.98 323.23,288.93 326.17,300.86 329.13,312.82 332.07,326.09 335.01,339.59 337.96,353.09 340.91,366.57 343.85,380.13 346.80,393.73 349.74,407.30 352.68,420.89 355.64,433.98 358.58,445.84 361.52,457.68 364.47,469.54 367.41,481.39 370.35,489.46 373.31,497.55 376.25,505.61 379.19,513.68 382.15,517.98 385.09,520.74 388.03,523.52 390.98,526.28 393.92,526.84 396.86,524.42 399.82,522.01 402.76,519.58 405.70,516.71 408.65,511.14 411.59,505.56 414.54,499.99 417.49,494.41 420.43,488.32 423.37,482.14 426.33,475.96 429.27,469.76 432.21,463.86 435.16,458.18 438.10,452.49 441.04,446.79 444.00,441.49 446.94,437.16 449.88,432.83 452.83,428.49 455.78,424.16 458.72,421.60 461.67,419.06 464.61,416.52 467.55,413.99 470.51,412.88 473.45,412.36 476.39,411.84 479.34,411.32 482.28,411.69 485.23,413.26 488.18,414.84 491.12,416.41 494.06,418.30 497.02,421.92 499.96,425.56 502.90,429.20 505.85,432.83 508.79,438.11 511.73,443.68 514.69,449.22 517.63,454.79 520.57,461.32 523.52,468.59 526.47,475.87 529.41,483.15 532.36,490.82 535.30,499.49 538.24,508.17 541.20,516.84 544.14,525.52 547.08,535.08 550.03,544.64 552.97,554.20 555.92,563.76 558.87,573.30 561.81,582.85 564.75,592.39 567.71,601.93 570.65,610.85 573.59,618.94 576.54,627.03 579.48,635.11 582.42,642.71 585.38,647.32 588.32,651.95 591.26,656.57 594.21,661.18 597.16,661.55 600.10,661.22 603.05,660.90 605.99,660.56 608.93,656.64 611.89,650.05 614.83,643.44 617.77,636.83 620.72,628.58 623.66,616.14 626.60,603.72 629.56,591.29 632.50,578.87 635.44,563.89 638.40,548.92 641.34,533.94 644.28,518.96 647.23,504.10 650.17,489.27 653.11,474.47 656.07,459.64 659.01,445.37 661.95,431.87 664.90,418.37 667.84,404.87 670.79,391.60 673.74,379.70 676.68,367.79 679.62,355.89 682.58,344.00 685.52,333.43 688.46,323.09 691.41,312.72 694.35,302.38 697.29,292.82 700.25,283.87 703.19,274.91 706.13,265.96 709.08,257.36 712.03,249.66 714.97,241.97 717.92,234.28 720.86,226.60 723.80,220.07 726.76,213.53 729.70,207.00 732.64,200.46 735.59,194.69 738.53,189.24 741.48,183.79 744.43,178.33 747.37,173.33 750.31,168.92 753.27,164.50 756.21,160.07 759.15,155.79 762.10,152.36 765.04,148.92 767.98,145.49 770.94,142.05 773.88,139.40 776.82,136.88 779.77,134.36 782.72,131.86 785.66,129.82 788.61,128.14 791.55,126.48 794.49,124.80 797.45,123.34 800.39,122.41 803.33,121.49 806.28,120.56 809.22,119.64 812.17,119.34 815.12,119.05 818.06,118.75 821.00,118.45 823.96,118.50 826.90,118.71 829.84,118.90 832.79,119.08 835.73,119.44 838.67,120.00 841.63,120.56 844.57,121.10 847.51,121.70 850.46,122.50 853.41,123.30 856.35,124.12 859.30,124.93 862.24,125.90 865.18,126.91 868.14,127.92 871.08,128.92 874.02,130.06 876.97,131.30 879.91,132.55 882.85,133.78 885.81,135.10 888.75,136.67 891.69,138.26 894.65,139.83 897.59,141.40 900.53,143.49 903.48,145.56 906.42,147.65 909.36,149.73 912.32,152.30 915.26,155.08 918.20,157.87 921.15,160.63 924.09,163.79 927.04,167.46 929.99,171.14 932.93,174.80 935.87,178.65 938.83,183.45 941.77,188.27 944.71,193.07 947.66,197.88 950.60,203.91 953.54,210.13 956.50,216.37 959.44,222.59 962.38,229.80 965.33,237.71 968.28,245.65 971.22,253.58 974.17,262.08 977.11,271.98 980.05,281.86 983.01,291.75 985.95,301.65 988.89,313.64 991.84,325.64 994.78,337.65 997.73,349.66 1000.68,363.14 1003.62,377.20 1006.56,391.26 1009.52,405.32 1012.46,420.09 1015.40,435.80 1018.35,451.48 1021.29,467.18 1024.23,482.94 1027.19,499.06 1030.13,515.19 1033.07,531.31 1036.02,547.42 1038.97,562.25 1041.91,576.83 1044.86,591.42 1047.80,606.02 1050.74,617.33 1053.70,626.19 1056.64,635.05 1059.58,643.91 1062.53,650.81 1065.47,652.85 1068.42,654.90 1071.37,656.94 1074.31,658.99" fill="none" stroke="#000000" stroke-width="3"/>
<line x1="142" y1="100" x2="178" y2="100" stroke="#000000" stroke-width="4"/>
<text x="188" y="105" font-family="Arial" font-size="18" fill="black">|U|</text>
</svg>