<svg xmlns="http://www.w3.org/2000/svg" width="1200" height="820" viewBox="0 0 1200 820">
<rect width="100%" height="100%" fill="white"/>
<text x="600.0" y="36" text-anchor="middle" font-family="Arial" font-size="24" fill="black">profile_center_y: rho</text>
<line x1="120.00" y1="75" x2="120.00" y2="705" stroke="#dddddd" stroke-width="1"/>
<text x="120.00" y="737" text-anchor="middle" font-family="Arial" font-size="16" fill="black">-0.400</text>
<line x1="376.25" y1="75" x2="376.25" y2="705" stroke="#dddddd" stroke-width="1"/>
<text x="376.25" y="737" text-anchor="middle" font-family="Arial" font-size="16" fill="black">1.050</text>
<line x1="632.50" y1="75" x2="632.50" y2="705" stroke="#dddddd" stroke-width="1"/>
<text x="632.50" y="737" text-anchor="middle" font-family="Arial" font-size="16" fill="black">2.500</text>
<line x1="888.75" y1="75" x2="888.75" y2="705" stroke="#dddddd" stroke-width="1"/>
<text x="888.75" y="737" text-anchor="middle" font-family="Arial" font-size="16" fill="black">3.950</text>
<line x1="1145.00" y1="75" x2="1145.00" y2="705" stroke="#dddddd" stroke-width="1"/>
<text x="1145.00" y="737" text-anchor="middle" font-family="Arial" font-size="16" fill="black">5.400</text>
<line x1="120" y1="705.00" x2="1145" y2="705.00" stroke="#dddddd" stroke-width="1"/>
<text x="104" y="710.00" text-anchor="end" font-family="Arial" font-size="16" fill="black">1.094</text>
<line x1="120" y1="547.50" x2="1145" y2="547.50" stroke="#dddddd" stroke-width="1"/>
<text x="104" y="552.50" text-anchor="end" font-family="Arial" font-size="16" fill="black">1.106</text>
<line x1="120" y1="390.00" x2="1145" y2="390.00" stroke="#dddddd" stroke-width="1"/>
<text x="104" y="395.00" text-anchor="end" font-family="Arial" font-size="16" fill="black">1.118</text>
<line x1="120" y1="232.50" x2="1145" y2="232.50" stroke="#dddddd" stroke-width="1"/>
<text x="104" y="237.50" text-anchor="end" font-family="Arial" font-size="16" fill="black">1.130</text>
<line x1="120" y1="75.00" x2="1145" y2="75.00" stroke="#dddddd" stroke-width="1"/>
<text x="104" y="80.00" text-anchor="end" font-family="Arial" font-size="16" fill="black">1.142</text>
<rect x="120" y="75" width="1025" height="630" fill="none" stroke="black" stroke-width="2"/>
<text x="632.5" y="785" text-anchor="middle" font-family="Arial" font-size="20" fill="black">y coordinate [m]</text>
<text x="34" y="390.0" transform="rotate(-90 34 390.0)" text-anchor="middle" font-family="Arial" font-size="20" fill="black">rho [kg/m3]</text>
<polyline points="190.69,141.72 193.64,143.02 196.58,144.31 199.53,145.60 202.47,146.90 205.42,149.48 208.36,150.78 211.31,153.36 214.25,155.95 217.20,158.53 220.14,161.12 223.09,165.00 226.03,167.59 228.98,170.17 231.92,174.05 234.87,176.64 237.82,180.52 240.76,183.10 243.71,185.69 246.65,189.57 249.60,193.45 252.54,197.33 255.49,199.91 258.43,203.79 261.38,207.67 264.33,211.55 267.27,215.43 270.22,219.31 273.16,223.19 276.11,227.07 279.05,230.95 282.00,234.83 284.94,240.00 287.89,243.88 290.83,247.76 293.78,251.64 296.72,255.52 299.67,260.69 302.61,264.57 305.56,268.45 308.51,273.62 311.45,277.50 314.40,281.38 317.34,286.55 320.29,291.72 323.23,296.90 326.18,300.78 329.12,305.95 332.07,311.12 335.01,317.59 337.96,324.05 340.91,330.52 343.85,336.98 346.80,343.45 349.74,349.91 352.69,360.26 355.63,371.90 358.58,383.53 361.52,393.88 364.47,405.52 367.41,415.86 370.37,428.79 373.30,440.43 376.25,453.36 379.20,466.29 382.13,477.93 385.09,490.86 388.04,498.62 390.97,507.67 393.92,516.72 396.87,525.78 399.81,533.53 402.76,542.59 405.71,549.05 408.64,555.52 411.59,561.98 414.55,568.45 417.48,574.91 420.43,581.38 423.38,586.55 426.32,591.72 429.27,596.90 432.22,602.07 435.15,607.24 438.10,612.41 441.05,616.29 443.99,620.17 446.94,624.05 449.89,627.93 452.82,631.81 455.78,635.69 458.73,638.28 461.66,640.86 464.61,643.45 467.56,646.03 470.50,649.91 473.45,652.50 476.40,653.79 479.33,655.09 482.28,656.38 485.24,658.97 488.17,660.26 491.12,661.55 494.07,661.55 497.01,660.26 499.96,660.26 502.91,660.26 505.84,658.97 508.79,658.97 511.74,655.09 514.68,651.21 517.63,647.33 520.58,643.45 523.51,639.57 526.47,635.69 529.42,625.34 532.35,616.29 535.30,607.24 538.25,596.90 541.19,587.84 544.14,578.79 547.09,568.45 550.02,558.10 552.97,547.76 555.93,537.41 558.86,527.07 561.81,516.72 564.76,510.26 567.70,503.79 570.65,497.33 573.60,490.86 576.53,484.40 579.48,477.93 582.43,474.05 585.37,470.17 588.32,466.29 591.27,462.41 594.20,457.24 597.16,453.36 600.11,450.78 603.04,448.19 605.99,445.60 608.94,443.02 611.88,440.43 614.83,437.84 617.78,436.55 620.71,435.26 623.66,433.97 626.62,432.67 629.55,431.38 632.50,430.09 635.45,430.09 638.38,428.79 641.34,428.79 644.29,428.79 647.22,427.50 650.17,427.50 653.12,428.79 656.06,428.79 659.01,430.09 661.96,430.09 664.89,431.38 667.84,431.38 670.80,433.97 673.73,436.55 676.68,437.84 679.63,440.43 682.57,443.02 685.52,444.31 688.47,449.48 691.40,453.36 694.35,457.24 697.30,462.41 700.24,466.29 703.19,470.17 706.14,477.93 709.07,485.69 712.03,494.74 714.98,502.50 717.91,510.26 720.86,518.02 723.81,524.48 726.75,532.24 729.70,540.00 732.65,546.47 735.58,554.22 738.53,560.69 741.49,563.28 744.42,565.86 747.37,568.45 750.32,571.03 753.26,573.62 756.21,576.21 759.16,576.21 762.09,576.21 765.04,574.91 767.99,574.91 770.93,574.91 773.88,574.91 776.83,572.33 779.76,571.03 782.72,568.45 785.67,567.16 788.60,564.57 791.55,563.28 794.50,560.69 797.44,556.81 800.39,554.22 803.34,551.64 806.27,549.05 809.22,546.47 812.18,542.59 815.11,538.71 818.06,534.83 821.01,532.24 823.95,528.36 826.90,524.48 829.85,520.60 832.78,516.72 835.73,511.55 838.68,507.67 841.62,503.79 844.57,498.62 847.52,493.45 850.45,486.98 853.41,481.81 856.36,475.34 859.29,470.17 862.24,463.71 865.19,455.95 868.13,446.90 871.08,437.84 874.03,430.09 876.96,421.03 879.91,411.98 882.87,397.76 885.80,384.83 888.75,370.60 891.70,357.67 894.63,343.45 897.59,329.22 900.54,316.29 903.47,302.07 906.42,287.84 909.37,274.91 912.31,260.69 915.26,247.76 918.21,238.71 921.14,230.95 924.09,221.90 927.05,214.14 929.98,206.38 932.93,197.33 935.88,192.16 938.82,186.98 941.77,181.81 944.72,176.64 947.65,171.47 950.60,166.29 953.55,163.71 956.49,161.12 959.44,157.24 962.39,154.66 965.32,150.78 968.28,148.19 971.23,146.90 974.16,144.31 977.11,143.02 980.06,140.43 983.00,139.14 985.95,137.84 988.90,136.55 991.83,135.26 994.78,135.26 997.74,133.97 1000.67,132.67 1003.62,132.67 1006.57,131.38 1009.51,131.38 1012.46,130.09 1015.41,130.09 1018.34,130.09 1021.29,128.79 1024.24,128.79 1027.18,127.50 1030.13,127.50 1033.08,126.21 1036.01,126.21 1038.97,126.21 1041.92,124.91 1044.85,123.62 1047.80,123.62 1050.75,122.33 1053.69,122.33 1056.64,121.03 1059.59,121.03 1062.52,119.74 1065.47,119.74 1068.43,119.74 1071.36,118.45 1074.31,118.45" fill="none" stroke="#000000" stroke-width="3"/>
<line x1="142" y1="100" x2="178" y2="100" stroke="#000000" stroke-width="4"/>
<text x="188" y="105" font-family="Arial" font-size="18" fill="black">rho</text>
</svg>