<svg xmlns="http://www.w3.org/2000/svg" width="1200" height="820" viewBox="0 0 1200 820">
<rect width="100%" height="100%" fill="white"/>
<text x="600.0" y="36" text-anchor="middle" font-family="Arial" font-size="24" fill="black">profile_near_floor_x: k</text>
<line x1="120.00" y1="75" x2="120.00" y2="705" stroke="#dddddd" stroke-width="1"/>
<text x="120.00" y="737" text-anchor="middle" font-family="Arial" font-size="16" fill="black">-0.560</text>
<line x1="376.25" y1="75" x2="376.25" y2="705" stroke="#dddddd" stroke-width="1"/>
<text x="376.25" y="737" text-anchor="middle" font-family="Arial" font-size="16" fill="black">1.470</text>
<line x1="632.50" y1="75" x2="632.50" y2="705" stroke="#dddddd" stroke-width="1"/>
<text x="632.50" y="737" text-anchor="middle" font-family="Arial" font-size="16" fill="black">3.500</text>
<line x1="888.75" y1="75" x2="888.75" y2="705" stroke="#dddddd" stroke-width="1"/>
<text x="888.75" y="737" text-anchor="middle" font-family="Arial" font-size="16" fill="black">5.530</text>
<line x1="1145.00" y1="75" x2="1145.00" y2="705" stroke="#dddddd" stroke-width="1"/>
<text x="1145.00" y="737" text-anchor="middle" font-family="Arial" font-size="16" fill="black">7.560</text>
<line x1="120" y1="705.00" x2="1145" y2="705.00" stroke="#dddddd" stroke-width="1"/>
<text x="104" y="710.00" text-anchor="end" font-family="Arial" font-size="16" fill="black">0.004</text>
<line x1="120" y1="547.50" x2="1145" y2="547.50" stroke="#dddddd" stroke-width="1"/>
<text x="104" y="552.50" text-anchor="end" font-family="Arial" font-size="16" fill="black">0.010</text>
<line x1="120" y1="390.00" x2="1145" y2="390.00" stroke="#dddddd" stroke-width="1"/>
<text x="104" y="395.00" text-anchor="end" font-family="Arial" font-size="16" fill="black">0.016</text>
<line x1="120" y1="232.50" x2="1145" y2="232.50" stroke="#dddddd" stroke-width="1"/>
<text x="104" y="237.50" text-anchor="end" font-family="Arial" font-size="16" fill="black">0.023</text>
<line x1="120" y1="75.00" x2="1145" y2="75.00" stroke="#dddddd" stroke-width="1"/>
<text x="104" y="80.00" text-anchor="end" font-family="Arial" font-size="16" fill="black">0.029</text>
<rect x="120" y="75" width="1025" height="630" fill="none" stroke="black" stroke-width="2"/>
<text x="632.5" y="785" text-anchor="middle" font-family="Arial" font-size="20" fill="black">x coordinate [m]</text>
<text x="34" y="390.0" transform="rotate(-90 34 390.0)" text-anchor="middle" font-family="Arial" font-size="20" fill="black">k [m2/s2]</text>
<polyline points="190.69,649.79 193.64,637.16 196.58,624.53 199.53,611.90 202.47,599.27 205.42,581.94 208.36,562.72 211.31,543.52 214.25,524.29 217.20,508.33 220.14,496.67 223.09,485.01 226.03,473.34 228.98,461.85 231.93,451.56 234.87,441.23 237.82,430.93 240.76,420.64 243.71,409.40 246.65,398.03 249.60,386.64 252.54,375.25 255.49,362.52 258.43,348.80 261.38,335.08 264.32,321.33 267.27,306.62 270.22,289.42 273.16,272.20 276.11,255.00 279.05,237.78 282.00,217.09 284.94,196.39 287.89,175.69 290.83,155.00 293.78,143.21 296.72,134.95 299.67,126.69 302.62,118.45 305.56,134.85 308.51,184.13 311.45,233.41 314.40,282.72 317.34,332.52 320.29,385.50 323.23,438.48 326.17,491.46 329.13,544.44 332.07,558.39 335.01,565.85 337.96,573.31 340.91,580.77 343.85,584.63 346.80,585.79 349.74,586.96 352.68,588.12 355.64,589.05 358.58,589.39 361.52,589.73 364.47,590.07 367.41,590.41 370.35,590.61 373.31,590.80 376.25,590.99 379.19,591.19 382.15,591.30 385.09,591.37 388.03,591.45 390.98,591.53 393.92,591.67 396.86,591.89 399.82,592.12 402.76,592.34 405.70,593.08 408.65,596.93 411.59,600.78 414.54,604.63 417.49,608.47 420.43,612.53 423.37,616.62 426.33,620.71 429.27,624.80 432.21,622.03 435.16,614.12 438.10,606.21 441.04,598.30 444.00,585.94 446.94,562.48 449.88,539.03 452.83,515.55 455.78,492.10 458.72,467.66 461.67,443.22 464.61,418.78 467.55,394.33 470.51,380.88 473.45,371.85 476.39,362.82 479.34,353.79 482.28,350.11 485.23,353.56 488.18,357.04 491.12,360.51 494.06,363.64 497.02,364.88 499.96,366.10 502.90,367.31 505.85,368.53 508.79,364.76 511.73,360.14 514.69,355.52 517.63,350.93 520.57,349.72 523.52,351.06 526.47,352.40 529.41,353.74 532.36,359.47 535.30,376.10 538.24,392.75 541.20,409.37 544.14,426.02 547.08,451.75 550.03,477.49 552.97,503.22 555.92,528.95 558.87,547.21 561.81,562.45 564.75,577.69 567.71,592.93 570.65,601.76 573.59,602.03 576.54,602.30 579.48,602.58 582.42,602.53 585.38,600.60 588.32,598.66 591.26,596.73 594.21,594.79 597.16,594.48 600.10,594.43 603.05,594.39 605.99,594.34 608.93,594.36 611.89,594.43 614.83,594.51 617.77,594.58 620.72,594.64 623.66,594.66 626.60,594.68 629.56,594.70 632.50,594.72 635.44,594.72 638.40,594.71 641.34,594.71 644.28,594.71 647.23,594.68 650.17,594.64 653.11,594.60 656.07,594.56 659.01,594.40 661.95,594.09 664.90,593.77 667.84,593.46 670.79,591.80 673.74,582.05 676.68,572.31 679.62,562.57 682.58,552.83 685.52,534.26 688.46,514.21 691.41,494.16 694.35,474.11 697.29,455.48 700.25,437.86 703.19,420.24 706.13,402.62 709.08,387.31 712.03,377.86 714.97,368.40 717.92,358.95 720.86,349.47 723.80,344.93 726.76,340.36 729.70,335.80 732.64,331.23 735.59,326.17 738.53,320.93 741.48,315.67 744.43,310.41 747.37,304.65 750.31,298.28 753.27,291.88 756.21,285.47 759.15,279.27 762.10,274.21 765.04,269.12 767.98,264.06 770.94,258.97 773.88,258.40 776.82,258.55 779.77,258.72 782.72,258.87 785.66,264.58 788.61,274.43 791.55,284.28 794.49,294.13 797.45,307.14 800.39,328.08 803.33,349.00 806.28,369.92 809.22,390.84 812.17,415.57 815.12,440.31 818.06,465.08 821.00,489.82 823.96,508.60 826.90,524.98 829.84,541.38 832.79,557.78 835.73,569.42 838.67,574.71 841.63,580.00 844.57,585.29 847.51,589.90 850.46,590.45 853.41,591.00 856.35,591.56 859.30,592.11 862.24,592.19 865.18,592.21 868.14,592.22 871.08,592.23 874.02,592.28 876.97,592.35 879.91,592.43 882.85,592.50 885.81,592.56 888.75,592.57 891.69,592.58 894.65,592.59 897.59,592.60 900.53,592.50 903.48,592.39 906.42,592.29 909.36,592.18 912.32,591.86 915.26,591.46 918.20,591.06 921.15,590.66 924.09,589.88 927.04,588.58 929.99,587.28 932.93,585.98 935.87,584.75 938.83,583.88 941.77,583.01 944.71,582.14 947.66,581.27 950.60,581.54 953.54,582.01 956.50,582.47 959.44,582.94 962.38,581.76 965.33,579.35 968.28,576.94 971.22,574.52 974.17,571.10 977.11,565.15 980.05,559.21 983.01,553.26 985.95,547.31 988.89,542.48 991.84,537.64 994.78,532.82 997.73,527.98 1000.68,525.85 1003.62,524.78 1006.56,523.74 1009.52,522.67 1012.46,523.19 1015.40,525.78 1018.35,528.36 1021.29,530.96 1024.23,533.89 1027.19,538.80 1030.13,543.72 1033.07,548.62 1036.02,553.54 1038.97,560.45 1041.91,567.69 1044.86,574.93 1047.80,582.17 1050.74,591.60 1053.70,602.67 1056.64,613.74 1059.58,624.81 1062.53,634.64 1065.47,641.37 1068.42,648.10 1071.37,654.82 1074.31,661.55" fill="none" stroke="#000000" stroke-width="3"/>
<line x1="142" y1="100" x2="178" y2="100" stroke="#000000" stroke-width="4"/>
<text x="188" y="105" font-family="Arial" font-size="18" fill="black">k</text>
</svg>