<svg xmlns="http://www.w3.org/2000/svg" width="1200" height="820" viewBox="0 0 1200 820">
<rect width="100%" height="100%" fill="white"/>
<text x="600.0" y="36" text-anchor="middle" font-family="Arial" font-size="24" fill="black">profile_diagonal_supply_return: nut</text>
<line x1="120.00" y1="75" x2="120.00" y2="705" stroke="#dddddd" stroke-width="1"/>
<text x="120.00" y="737" text-anchor="middle" font-family="Arial" font-size="16" fill="black">-0.729</text>
<line x1="376.25" y1="75" x2="376.25" y2="705" stroke="#dddddd" stroke-width="1"/>
<text x="376.25" y="737" text-anchor="middle" font-family="Arial" font-size="16" fill="black">1.913</text>
<line x1="632.50" y1="75" x2="632.50" y2="705" stroke="#dddddd" stroke-width="1"/>
<text x="632.50" y="737" text-anchor="middle" font-family="Arial" font-size="16" fill="black">4.555</text>
<line x1="888.75" y1="75" x2="888.75" y2="705" stroke="#dddddd" stroke-width="1"/>
<text x="888.75" y="737" text-anchor="middle" font-family="Arial" font-size="16" fill="black">7.197</text>
<line x1="1145.00" y1="75" x2="1145.00" y2="705" stroke="#dddddd" stroke-width="1"/>
<text x="1145.00" y="737" text-anchor="middle" font-family="Arial" font-size="16" fill="black">9.839</text>
<line x1="120" y1="705.00" x2="1145" y2="705.00" stroke="#dddddd" stroke-width="1"/>
<text x="104" y="710.00" text-anchor="end" font-family="Arial" font-size="16" fill="black">-0.001</text>
<line x1="120" y1="547.50" x2="1145" y2="547.50" stroke="#dddddd" stroke-width="1"/>
<text x="104" y="552.50" text-anchor="end" font-family="Arial" font-size="16" fill="black">0.005</text>
<line x1="120" y1="390.00" x2="1145" y2="390.00" stroke="#dddddd" stroke-width="1"/>
<text x="104" y="395.00" text-anchor="end" font-family="Arial" font-size="16" fill="black">0.012</text>
<line x1="120" y1="232.50" x2="1145" y2="232.50" stroke="#dddddd" stroke-width="1"/>
<text x="104" y="237.50" text-anchor="end" font-family="Arial" font-size="16" fill="black">0.019</text>
<line x1="120" y1="75.00" x2="1145" y2="75.00" stroke="#dddddd" stroke-width="1"/>
<text x="104" y="80.00" text-anchor="end" font-family="Arial" font-size="16" fill="black">0.026</text>
<rect x="120" y="75" width="1025" height="630" fill="none" stroke="black" stroke-width="2"/>
<text x="632.5" y="785" text-anchor="middle" font-family="Arial" font-size="20" fill="black">distance along sample line [m]</text>
<text x="34" y="390.0" transform="rotate(-90 34 390.0)" text-anchor="middle" font-family="Arial" font-size="20" fill="black">nut [m2/s]</text>
<polyline points="190.69,661.55 193.64,661.25 196.58,660.90 199.53,660.47 202.47,659.93 205.42,659.10 208.36,657.99 211.31,656.39 214.25,654.37 217.20,652.06 220.14,649.55 223.09,646.06 226.03,641.88 228.98,637.65 231.93,632.99 234.87,627.72 237.82,621.77 240.76,615.12 243.71,607.95 246.65,600.36 249.60,592.07 252.54,584.99 255.49,577.75 258.43,570.33 261.38,562.52 264.32,554.84 267.27,547.06 270.22,539.49 273.16,531.63 276.11,523.48 279.05,515.04 282.00,509.95 284.94,504.65 287.88,499.11 290.83,493.36 293.78,487.67 296.73,481.86 299.67,476.83 302.62,471.54 305.57,466.30 308.50,461.20 311.45,457.28 314.40,453.15 317.34,449.59 320.29,446.54 323.24,443.26 326.18,439.76 329.12,436.00 332.07,432.90 335.01,430.13 337.96,427.16 340.91,424.95 343.85,423.27 346.80,421.96 349.74,420.49 352.68,419.27 355.63,418.26 358.58,418.07 361.53,417.82 364.47,417.47 367.42,417.04 370.36,418.35 373.30,419.52 376.25,420.58 379.20,421.55 382.14,422.45 385.09,423.25 388.04,424.17 390.97,424.91 393.92,425.23 396.87,425.05 399.81,425.14 402.76,425.07 405.71,424.86 408.65,423.64 411.59,422.22 414.54,420.58 417.48,418.76 420.43,416.12 423.38,413.31 426.32,410.31 429.27,407.37 432.21,403.98 435.16,400.21 438.10,396.20 441.05,392.15 444.00,387.76 446.94,382.78 449.89,377.60 452.84,372.22 455.77,366.62 458.72,361.37 461.67,356.08 464.61,350.79 467.56,345.47 470.51,340.31 473.45,335.22 476.39,330.16 479.34,325.12 482.28,320.31 485.23,315.75 488.18,312.04 491.12,308.34 494.07,304.47 497.01,300.86 499.96,297.15 502.90,293.35 505.85,289.44 508.80,285.48 511.74,281.29 514.69,276.87 517.63,272.68 520.57,268.33 523.52,263.82 526.47,259.10 529.41,254.36 532.36,249.45 535.31,244.57 538.24,239.44 541.19,234.03 544.14,228.34 547.08,224.09 550.03,219.62 552.98,214.97 555.92,210.09 558.86,205.44 561.81,200.72 564.76,196.25 567.70,191.54 570.65,186.77 573.60,182.03 576.54,178.12 579.49,173.99 582.43,170.36 585.37,166.88 588.32,163.18 591.27,159.29 594.21,155.16 597.16,151.14 600.11,147.68 603.04,144.09 605.99,141.51 608.94,139.00 611.88,136.52 614.83,133.92 617.78,131.87 620.72,129.84 623.66,127.93 626.61,125.98 629.55,123.90 632.50,121.76 635.45,121.35 638.40,120.91 641.34,120.38 644.28,119.81 647.23,119.35 650.17,118.89 653.12,118.89 656.07,118.77 659.01,118.63 661.96,118.45 664.90,118.98 667.84,119.37 670.79,120.22 673.74,120.96 676.68,121.51 679.63,121.86 682.58,121.99 685.51,122.04 688.46,122.29 691.41,122.32 694.35,122.78 697.30,123.14 700.25,123.42 703.20,123.47 706.14,123.67 709.08,123.81 712.03,124.07 714.97,124.16 717.92,124.07 720.87,123.79 723.81,125.03 726.76,126.09 729.70,126.99 732.64,127.70 735.59,128.67 738.54,129.64 741.48,131.18 744.43,132.51 747.38,133.96 750.31,135.57 753.26,137.53 756.21,139.30 759.15,141.74 762.10,144.58 765.05,147.18 767.99,149.55 770.93,151.67 773.88,154.20 776.83,157.26 779.77,160.04 782.72,163.22 785.67,166.63 788.61,170.13 791.55,173.37 794.50,176.76 797.44,180.12 800.39,183.89 803.34,187.42 806.28,190.71 809.23,193.79 812.17,198.33 815.11,202.61 818.06,206.68 821.01,210.55 823.95,214.60 826.90,218.61 829.85,222.34 832.79,225.90 835.73,229.26 838.68,232.40 841.63,236.12 844.57,239.69 847.52,242.73 850.47,245.03 853.41,247.27 856.35,249.41 859.30,251.48 862.24,252.84 865.19,253.76 868.14,254.66 871.08,256.34 874.03,257.74 876.97,258.94 879.91,260.09 882.86,260.99 885.81,261.84 888.75,262.60 891.70,263.38 894.65,264.19 897.58,264.99 900.53,267.20 903.48,269.46 906.43,271.76 909.37,274.11 912.32,276.66 915.27,279.36 918.20,282.26 921.15,285.25 924.10,288.38 927.04,291.69 929.99,296.28 932.94,300.88 935.88,305.62 938.82,310.48 941.77,315.40 944.71,320.40 947.66,325.49 950.61,330.85 953.55,337.76 956.50,344.82 959.44,353.71 962.38,362.89 965.33,372.35 968.28,381.82 971.22,392.66 974.17,403.50 977.12,414.55 980.06,425.39 983.00,436.10 985.95,446.62 988.90,458.29 991.84,469.51 994.79,480.33 997.74,490.79 1000.68,500.70 1003.62,510.25 1006.57,519.75 1009.51,529.22 1012.46,538.62 1015.41,547.79 1018.35,558.09 1021.30,568.47 1024.24,579.94 1027.18,591.30 1030.13,601.72 1033.08,611.23 1036.02,619.87 1038.97,627.76 1041.92,635.83 1044.86,642.42 1047.80,646.96 1050.75,650.52 1053.70,653.24 1056.64,655.33 1059.59,656.71 1062.54,657.65 1065.47,658.18 1068.42,658.56 1071.37,658.85 1074.31,659.07" fill="none" stroke="#000000" stroke-width="3"/>
<line x1="142" y1="100" x2="178" y2="100" stroke="#000000" stroke-width="4"/>
<text x="188" y="105" font-family="Arial" font-size="18" fill="black">nut</text>
</svg>