<svg xmlns="http://www.w3.org/2000/svg" width="1200" height="820" viewBox="0 0 1200 820">
<rect width="100%" height="100%" fill="white"/>
<text x="600.0" y="36" text-anchor="middle" font-family="Arial" font-size="24" fill="black">profile_diagonal_supply_return: alphat</text>
<line x1="120.00" y1="75" x2="120.00" y2="705" stroke="#dddddd" stroke-width="1"/>
<text x="120.00" y="737" text-anchor="middle" font-family="Arial" font-size="16" fill="black">-0.729</text>
<line x1="376.25" y1="75" x2="376.25" y2="705" stroke="#dddddd" stroke-width="1"/>
<text x="376.25" y="737" text-anchor="middle" font-family="Arial" font-size="16" fill="black">1.913</text>
<line x1="632.50" y1="75" x2="632.50" y2="705" stroke="#dddddd" stroke-width="1"/>
<text x="632.50" y="737" text-anchor="middle" font-family="Arial" font-size="16" fill="black">4.555</text>
<line x1="888.75" y1="75" x2="888.75" y2="705" stroke="#dddddd" stroke-width="1"/>
<text x="888.75" y="737" text-anchor="middle" font-family="Arial" font-size="16" fill="black">7.197</text>
<line x1="1145.00" y1="75" x2="1145.00" y2="705" stroke="#dddddd" stroke-width="1"/>
<text x="1145.00" y="737" text-anchor="middle" font-family="Arial" font-size="16" fill="black">9.839</text>
<line x1="120" y1="705.00" x2="1145" y2="705.00" stroke="#dddddd" stroke-width="1"/>
<text x="104" y="710.00" text-anchor="end" font-family="Arial" font-size="16" fill="black">-0.002</text>
<line x1="120" y1="547.50" x2="1145" y2="547.50" stroke="#dddddd" stroke-width="1"/>
<text x="104" y="552.50" text-anchor="end" font-family="Arial" font-size="16" fill="black">0.006</text>
<line x1="120" y1="390.00" x2="1145" y2="390.00" stroke="#dddddd" stroke-width="1"/>
<text x="104" y="395.00" text-anchor="end" font-family="Arial" font-size="16" fill="black">0.014</text>
<line x1="120" y1="232.50" x2="1145" y2="232.50" stroke="#dddddd" stroke-width="1"/>
<text x="104" y="237.50" text-anchor="end" font-family="Arial" font-size="16" fill="black">0.021</text>
<line x1="120" y1="75.00" x2="1145" y2="75.00" stroke="#dddddd" stroke-width="1"/>
<text x="104" y="80.00" text-anchor="end" font-family="Arial" font-size="16" fill="black">0.029</text>
<rect x="120" y="75" width="1025" height="630" fill="none" stroke="black" stroke-width="2"/>
<text x="632.5" y="785" text-anchor="middle" font-family="Arial" font-size="20" fill="black">distance along sample line [m]</text>
<text x="34" y="390.0" transform="rotate(-90 34 390.0)" text-anchor="middle" font-family="Arial" font-size="20" fill="black">alphat [SI]</text>
<polyline points="190.69,661.55 193.64,661.24 196.58,660.88 199.53,660.44 202.47,659.89 205.42,659.05 208.36,657.93 211.31,656.30 214.25,654.25 217.20,651.89 220.14,649.33 223.09,645.75 226.03,641.46 228.98,637.14 231.93,632.35 234.87,626.93 237.82,620.81 240.76,613.97 243.71,606.57 246.65,598.73 249.60,590.16 252.54,582.75 255.49,575.17 258.43,567.38 261.38,559.17 264.32,551.07 267.27,542.84 270.22,534.86 273.16,526.58 276.11,517.98 279.05,509.07 282.00,503.68 284.94,498.06 287.88,492.22 290.83,486.15 293.78,480.21 296.73,474.18 299.67,468.94 302.62,463.43 305.57,458.04 308.50,452.84 311.45,448.87 314.40,444.70 317.34,441.12 320.29,438.17 323.24,434.99 326.18,431.58 329.12,427.94 332.07,425.01 335.01,422.47 337.96,419.74 340.91,417.82 343.85,416.46 346.80,415.53 349.74,414.45 352.68,413.69 355.63,413.17 358.58,413.46 361.53,413.69 364.47,413.86 367.42,413.94 370.36,415.61 373.30,417.14 376.25,418.57 379.20,419.87 382.14,420.92 385.09,421.77 388.04,422.66 390.97,423.36 393.92,423.48 396.87,422.92 399.81,422.61 402.76,422.10 405.71,421.40 408.65,419.49 411.59,417.35 414.54,414.99 417.48,412.43 420.43,409.08 423.38,405.61 426.32,401.96 429.27,398.38 432.21,394.50 435.16,390.35 438.10,385.99 441.05,381.65 444.00,377.02 446.94,371.94 449.89,366.69 452.84,361.28 455.77,355.70 458.72,350.68 461.67,345.66 464.61,340.64 467.56,335.62 470.51,330.83 473.45,326.16 476.39,321.49 479.34,316.87 482.28,312.45 485.23,308.34 488.18,305.03 491.12,301.75 494.07,298.25 497.01,294.95 499.96,291.56 502.90,288.07 505.85,284.43 508.80,280.74 511.74,276.73 514.69,272.51 517.63,268.51 520.57,264.29 523.52,259.93 526.47,255.35 529.41,250.72 532.36,245.95 535.31,241.18 538.24,236.16 541.19,230.89 544.14,225.33 547.08,221.18 550.03,216.84 552.98,212.30 555.92,207.55 558.86,203.02 561.81,198.41 564.76,194.06 567.70,189.45 570.65,184.78 573.60,180.11 576.54,176.27 579.49,172.20 582.43,168.65 585.37,165.24 588.32,161.58 591.27,157.74 594.21,153.69 597.16,149.68 600.11,146.34 603.04,142.80 605.99,140.28 608.94,137.83 611.88,135.39 614.83,132.85 617.78,130.88 620.72,128.92 623.66,127.10 626.61,125.20 629.55,123.22 632.50,121.13 635.45,120.80 638.40,120.41 641.34,119.96 644.28,119.44 647.23,119.03 650.17,118.61 653.12,118.68 656.07,118.65 659.01,118.57 661.96,118.45 664.90,119.01 667.84,119.42 670.79,120.33 673.74,121.13 676.68,121.73 679.63,122.13 682.58,122.29 685.51,122.35 688.46,122.66 691.41,122.72 694.35,123.18 697.30,123.55 700.25,123.82 703.20,123.84 706.14,124.03 709.08,124.13 712.03,124.38 714.97,124.44 717.92,124.29 720.87,123.96 723.81,125.14 726.76,126.15 729.70,126.98 732.64,127.62 735.59,128.55 738.54,129.48 741.48,130.95 744.43,132.23 747.38,133.61 750.31,135.20 753.26,137.10 756.21,138.82 759.15,141.21 762.10,144.02 765.05,146.60 767.99,148.96 770.93,151.05 773.88,153.59 776.83,156.64 779.77,159.43 782.72,162.59 785.67,166.00 788.61,169.54 791.55,172.78 794.50,176.17 797.44,179.55 800.39,183.36 803.34,186.91 806.28,190.23 809.23,193.35 812.17,197.96 815.11,202.32 818.06,206.47 821.01,210.40 823.95,214.59 826.90,218.76 829.85,222.63 832.79,226.32 835.73,229.86 838.68,233.24 841.63,237.21 844.57,240.97 847.52,244.15 850.47,246.61 853.41,248.94 856.35,251.17 859.30,253.28 862.24,254.60 865.19,255.43 868.14,256.19 871.08,257.79 874.03,259.05 876.97,260.06 879.91,261.03 882.86,261.71 885.81,262.31 888.75,262.81 891.70,263.32 894.65,263.84 897.58,264.38 900.53,266.36 903.48,268.38 906.43,270.45 909.37,272.60 912.32,274.91 915.27,277.39 918.20,280.12 921.15,282.97 924.10,285.94 927.04,289.08 929.99,293.56 932.94,298.05 935.88,302.70 938.82,307.43 941.77,312.28 944.71,317.20 947.66,322.20 950.61,327.48 953.55,334.34 956.50,341.37 959.44,350.23 962.38,359.42 965.33,368.90 968.28,378.39 971.22,389.31 974.17,400.24 977.12,411.38 980.06,422.35 983.00,433.15 985.95,443.79 988.90,455.60 991.84,466.95 994.79,477.89 997.74,488.45 1000.68,498.47 1003.62,508.12 1006.57,517.73 1009.51,527.29 1012.46,536.81 1015.41,546.11 1018.35,556.56 1021.30,567.11 1024.24,578.79 1027.18,590.34 1030.13,600.95 1033.08,610.64 1036.02,619.45 1038.97,627.49 1041.92,635.72 1044.86,642.45 1047.80,647.08 1050.75,650.70 1053.70,653.49 1056.64,655.61 1059.59,657.02 1062.54,657.98 1065.47,658.52 1068.42,658.91 1071.37,659.20 1074.31,659.43" fill="none" stroke="#000000" stroke-width="3"/>
<line x1="142" y1="100" x2="178" y2="100" stroke="#000000" stroke-width="4"/>
<text x="188" y="105" font-family="Arial" font-size="18" fill="black">alphat</text>
</svg>