<svg xmlns="http://www.w3.org/2000/svg" width="1200" height="820" viewBox="0 0 1200 820">
<rect width="100%" height="100%" fill="white"/>
<text x="600.0" y="36" text-anchor="middle" font-family="Arial" font-size="24" fill="black">profile_center_y: U:0</text>
<line x1="120.00" y1="75" x2="120.00" y2="705" stroke="#dddddd" stroke-width="1"/>
<text x="120.00" y="737" text-anchor="middle" font-family="Arial" font-size="16" fill="black">-0.400</text>
<line x1="376.25" y1="75" x2="376.25" y2="705" stroke="#dddddd" stroke-width="1"/>
<text x="376.25" y="737" text-anchor="middle" font-family="Arial" font-size="16" fill="black">1.050</text>
<line x1="632.50" y1="75" x2="632.50" y2="705" stroke="#dddddd" stroke-width="1"/>
<text x="632.50" y="737" text-anchor="middle" font-family="Arial" font-size="16" fill="black">2.500</text>
<line x1="888.75" y1="75" x2="888.75" y2="705" stroke="#dddddd" stroke-width="1"/>
<text x="888.75" y="737" text-anchor="middle" font-family="Arial" font-size="16" fill="black">3.950</text>
<line x1="1145.00" y1="75" x2="1145.00" y2="705" stroke="#dddddd" stroke-width="1"/>
<text x="1145.00" y="737" text-anchor="middle" font-family="Arial" font-size="16" fill="black">5.400</text>
<line x1="120" y1="705.00" x2="1145" y2="705.00" stroke="#dddddd" stroke-width="1"/>
<text x="104" y="710.00" text-anchor="end" font-family="Arial" font-size="16" fill="black">-0.128</text>
<line x1="120" y1="547.50" x2="1145" y2="547.50" stroke="#dddddd" stroke-width="1"/>
<text x="104" y="552.50" text-anchor="end" font-family="Arial" font-size="16" fill="black">-0.041</text>
<line x1="120" y1="390.00" x2="1145" y2="390.00" stroke="#dddddd" stroke-width="1"/>
<text x="104" y="395.00" text-anchor="end" font-family="Arial" font-size="16" fill="black">0.047</text>
<line x1="120" y1="232.50" x2="1145" y2="232.50" stroke="#dddddd" stroke-width="1"/>
<text x="104" y="237.50" text-anchor="end" font-family="Arial" font-size="16" fill="black">0.134</text>
<line x1="120" y1="75.00" x2="1145" y2="75.00" stroke="#dddddd" stroke-width="1"/>
<text x="104" y="80.00" text-anchor="end" font-family="Arial" font-size="16" fill="black">0.221</text>
<rect x="120" y="75" width="1025" height="630" fill="none" stroke="black" stroke-width="2"/>
<text x="632.5" y="785" text-anchor="middle" font-family="Arial" font-size="20" fill="black">y coordinate [m]</text>
<text x="34" y="390.0" transform="rotate(-90 34 390.0)" text-anchor="middle" font-family="Arial" font-size="20" fill="black">U:0 [SI]</text>
<polyline points="190.69,253.06 193.64,249.07 196.58,245.08 199.53,241.10 202.47,237.11 205.42,233.12 208.36,229.12 211.31,228.18 214.25,227.24 217.20,226.30 220.14,225.37 223.09,224.43 226.03,223.49 228.98,231.70 231.92,239.91 234.87,248.11 237.82,256.30 240.76,264.51 243.71,272.72 246.65,283.54 249.60,294.35 252.54,305.16 255.49,315.98 258.43,326.79 261.38,337.61 264.33,349.22 267.27,360.83 270.22,372.43 273.16,384.04 276.11,395.65 279.05,407.26 282.00,419.02 284.94,430.79 287.89,442.55 290.83,454.32 293.78,466.08 296.72,477.85 299.67,488.48 302.61,499.11 305.56,509.75 308.51,520.38 311.45,531.01 314.40,541.64 317.34,549.89 320.29,558.13 323.23,566.38 326.18,574.62 329.12,582.86 332.07,591.11 335.01,596.68 337.96,602.25 340.91,607.82 343.85,613.40 346.80,618.97 349.74,624.54 352.69,627.92 355.63,631.29 358.58,634.67 361.52,638.04 364.47,641.42 367.41,644.80 370.37,646.67 373.30,648.53 376.25,650.40 379.20,652.27 382.13,654.14 385.09,656.01 388.04,656.86 390.97,657.73 393.92,658.59 396.87,659.46 399.81,660.33 402.76,661.17 405.71,661.25 408.64,661.30 411.59,661.37 414.55,661.43 417.48,661.50 420.43,661.55 423.38,660.79 426.32,660.02 429.27,659.24 432.22,658.49 435.15,657.71 438.10,656.93 441.05,655.09 443.99,653.27 446.94,651.43 449.89,649.60 452.82,647.76 455.78,645.92 458.73,642.64 461.66,639.35 464.61,636.06 467.56,632.78 470.50,629.49 473.45,626.20 476.40,621.03 479.33,615.86 482.28,610.69 485.24,605.53 488.17,600.36 491.12,595.19 494.07,587.84 497.01,580.49 499.96,573.14 502.91,565.79 505.84,558.44 508.79,551.09 511.74,541.65 514.68,532.21 517.63,522.76 520.58,513.32 523.51,503.88 526.47,494.44 529.42,483.51 532.35,472.58 535.30,461.65 538.25,450.73 541.19,439.80 544.14,428.87 547.09,417.42 550.02,405.96 552.97,394.51 555.93,383.06 558.86,371.61 561.81,360.15 564.76,349.15 567.70,338.15 570.65,327.15 573.60,316.15 576.53,305.15 579.48,294.15 582.43,284.37 585.37,274.61 588.32,264.85 591.27,255.08 594.20,245.32 597.16,235.56 600.11,227.53 603.04,219.52 605.99,211.49 608.94,203.48 611.88,195.46 614.83,187.45 617.78,181.46 620.71,175.47 623.66,169.48 626.62,163.49 629.55,157.50 632.50,151.51 635.45,147.69 638.38,143.87 641.34,140.02 644.29,136.20 647.22,132.36 650.17,128.53 653.12,126.85 656.06,125.18 659.01,123.48 661.96,121.80 664.89,120.13 667.84,118.45 670.80,118.83 673.73,119.22 676.68,119.62 679.63,120.00 682.57,120.40 685.52,120.78 688.47,123.12 691.40,125.45 694.35,127.77 697.30,130.12 700.24,132.45 703.19,134.77 706.14,138.92 709.07,143.07 712.03,147.20 714.98,151.35 717.91,155.50 720.86,159.63 723.81,165.42 726.75,171.19 729.70,176.97 732.65,182.74 735.58,188.51 738.53,194.28 741.49,201.52 744.42,208.75 747.37,215.99 750.32,223.22 753.26,230.45 756.21,237.69 759.16,246.22 762.09,254.77 765.04,263.32 767.99,271.87 770.93,280.40 773.88,288.95 776.83,298.58 779.76,308.20 782.72,317.81 785.67,327.43 788.60,337.05 791.55,346.67 794.50,356.92 797.44,367.16 800.39,377.40 803.34,387.65 806.27,397.89 809.22,408.13 812.18,418.26 815.11,428.39 818.06,438.51 821.01,448.64 823.95,458.77 826.90,468.89 829.85,478.00 832.78,487.10 835.73,496.21 838.68,505.32 841.62,514.42 844.57,523.53 847.52,530.79 850.45,538.06 853.41,545.33 856.36,552.60 859.29,559.86 862.24,567.13 865.19,571.99 868.13,576.85 871.08,581.71 874.03,586.57 876.96,591.43 879.91,596.29 882.87,598.54 885.80,600.79 888.75,603.05 891.70,605.30 894.63,607.56 897.59,609.81 900.54,609.85 903.47,609.88 906.42,609.91 909.37,609.95 912.31,609.98 915.26,610.02 918.21,608.60 921.14,607.18 924.09,605.76 927.05,604.34 929.98,602.93 932.93,601.51 935.88,599.28 938.82,597.06 941.77,594.84 944.72,592.61 947.65,590.39 950.60,588.17 953.55,585.60 956.49,583.03 959.44,580.47 962.39,577.90 965.32,575.34 968.28,572.77 971.23,570.22 974.16,567.67 977.11,565.12 980.06,562.57 983.00,560.02 985.95,557.47 988.90,555.25 991.83,553.03 994.78,550.82 997.74,548.60 1000.67,546.38 1003.62,544.16 1006.57,542.54 1009.51,540.91 1012.46,539.29 1015.41,537.66 1018.34,536.04 1021.29,534.41 1024.24,533.51 1027.18,532.62 1030.13,531.72 1033.08,530.83 1036.01,529.93 1038.97,529.04 1041.92,528.46 1044.85,527.89 1047.80,527.31 1050.75,526.74 1053.69,526.16 1056.64,525.59 1059.59,525.27 1062.52,524.96 1065.47,524.64 1068.43,524.33 1071.36,524.01 1074.31,523.70" fill="none" stroke="#000000" stroke-width="3"/>
<line x1="142" y1="100" x2="178" y2="100" stroke="#000000" stroke-width="4"/>
<text x="188" y="105" font-family="Arial" font-size="18" fill="black">U:0</text>
</svg>