<svg xmlns="http://www.w3.org/2000/svg" width="1200" height="820" viewBox="0 0 1200 820">
<rect width="100%" height="100%" fill="white"/>
<text x="600.0" y="36" text-anchor="middle" font-family="Arial" font-size="24" fill="black">profile_near_ceiling_x: k</text>
<line x1="120.00" y1="75" x2="120.00" y2="705" stroke="#dddddd" stroke-width="1"/>
<text x="120.00" y="737" text-anchor="middle" font-family="Arial" font-size="16" fill="black">-0.560</text>
<line x1="376.25" y1="75" x2="376.25" y2="705" stroke="#dddddd" stroke-width="1"/>
<text x="376.25" y="737" text-anchor="middle" font-family="Arial" font-size="16" fill="black">1.470</text>
<line x1="632.50" y1="75" x2="632.50" y2="705" stroke="#dddddd" stroke-width="1"/>
<text x="632.50" y="737" text-anchor="middle" font-family="Arial" font-size="16" fill="black">3.500</text>
<line x1="888.75" y1="75" x2="888.75" y2="705" stroke="#dddddd" stroke-width="1"/>
<text x="888.75" y="737" text-anchor="middle" font-family="Arial" font-size="16" fill="black">5.530</text>
<line x1="1145.00" y1="75" x2="1145.00" y2="705" stroke="#dddddd" stroke-width="1"/>
<text x="1145.00" y="737" text-anchor="middle" font-family="Arial" font-size="16" fill="black">7.560</text>
<line x1="120" y1="705.00" x2="1145" y2="705.00" stroke="#dddddd" stroke-width="1"/>
<text x="104" y="710.00" text-anchor="end" font-family="Arial" font-size="16" fill="black">0.004</text>
<line x1="120" y1="547.50" x2="1145" y2="547.50" stroke="#dddddd" stroke-width="1"/>
<text x="104" y="552.50" text-anchor="end" font-family="Arial" font-size="16" fill="black">0.013</text>
<line x1="120" y1="390.00" x2="1145" y2="390.00" stroke="#dddddd" stroke-width="1"/>
<text x="104" y="395.00" text-anchor="end" font-family="Arial" font-size="16" fill="black">0.022</text>
<line x1="120" y1="232.50" x2="1145" y2="232.50" stroke="#dddddd" stroke-width="1"/>
<text x="104" y="237.50" text-anchor="end" font-family="Arial" font-size="16" fill="black">0.031</text>
<line x1="120" y1="75.00" x2="1145" y2="75.00" stroke="#dddddd" stroke-width="1"/>
<text x="104" y="80.00" text-anchor="end" font-family="Arial" font-size="16" fill="black">0.039</text>
<rect x="120" y="75" width="1025" height="630" fill="none" stroke="black" stroke-width="2"/>
<text x="632.5" y="785" text-anchor="middle" font-family="Arial" font-size="20" fill="black">x coordinate [m]</text>
<text x="34" y="390.0" transform="rotate(-90 34 390.0)" text-anchor="middle" font-family="Arial" font-size="20" fill="black">k [m2/s2]</text>
<polyline points="190.69,605.89 193.64,594.42 196.58,582.96 199.53,571.51 202.47,560.04 205.42,544.62 208.36,527.62 211.31,510.60 214.25,493.61 217.20,480.03 220.14,471.06 223.09,462.07 226.03,453.10 228.98,444.47 231.93,437.98 234.87,431.49 237.82,425.00 240.76,418.51 243.71,412.25 246.65,406.05 249.60,399.83 252.54,393.62 255.49,387.20 258.43,380.64 261.38,374.07 264.32,367.51 267.27,360.80 270.22,353.73 273.16,346.68 276.11,339.61 279.05,332.56 282.00,325.07 284.94,317.60 287.89,310.13 290.83,302.65 293.78,295.01 296.72,287.31 299.67,279.61 302.62,271.90 305.56,264.22 308.51,256.51 311.45,248.81 314.40,241.13 317.34,233.46 320.29,226.04 323.23,218.63 326.17,211.22 329.13,203.78 332.07,196.89 335.01,190.09 337.96,183.30 340.91,176.50 343.85,170.26 346.80,164.47 349.74,158.68 352.68,152.90 355.64,147.51 358.58,143.15 361.52,138.79 364.47,134.43 367.41,130.09 370.35,127.56 373.31,125.05 376.25,122.52 379.19,120.00 382.15,119.12 385.09,118.90 388.03,118.67 390.98,118.45 393.92,119.62 396.86,122.66 399.82,125.72 402.76,128.76 405.70,132.21 408.65,138.20 411.59,144.18 414.54,150.17 417.49,156.15 420.43,163.30 423.37,170.64 426.33,177.98 429.27,185.32 432.21,193.04 435.16,201.07 438.10,209.08 441.04,217.09 444.00,225.23 446.94,233.66 449.88,242.07 452.83,250.49 455.78,258.90 458.72,267.49 461.67,276.10 464.61,284.69 467.55,293.28 470.51,301.89 473.45,310.49 476.39,319.10 479.34,327.73 482.28,336.28 485.23,344.80 488.18,353.30 491.12,361.80 494.06,370.28 497.02,378.56 499.96,386.84 502.90,395.12 505.85,403.42 508.79,411.45 511.73,419.43 514.69,427.40 517.63,435.40 520.57,443.14 523.52,450.71 526.47,458.29 529.41,465.87 532.36,473.30 535.30,480.33 538.24,487.37 541.20,494.40 544.14,501.44 547.08,507.73 550.03,514.04 552.97,520.33 555.92,526.64 558.87,532.18 561.81,537.40 564.75,542.63 567.71,547.86 570.65,552.38 573.59,555.98 576.54,559.57 579.48,563.17 582.42,566.43 585.38,567.62 588.32,568.81 591.26,570.03 594.21,571.22 597.16,569.50 600.10,567.30 603.05,565.09 605.99,562.90 608.93,558.78 611.89,553.23 614.83,547.68 617.77,542.12 620.72,536.16 623.66,529.12 626.60,522.09 629.56,515.05 632.50,508.02 635.44,501.58 638.40,495.12 641.34,488.69 644.28,482.23 647.23,476.90 650.17,472.00 653.11,467.10 656.07,462.20 659.01,457.98 661.95,454.64 664.90,451.31 667.84,447.98 670.79,444.84 673.74,442.81 676.68,440.78 679.62,438.78 682.58,436.75 685.52,435.61 688.46,434.62 691.41,433.62 694.35,432.65 697.29,432.10 700.25,431.92 703.19,431.72 706.13,431.54 709.08,431.53 712.03,431.98 714.97,432.41 717.92,432.85 720.86,433.30 723.80,434.22 726.76,435.16 729.70,436.10 732.64,437.02 735.59,438.23 738.53,439.55 741.48,440.87 744.43,442.19 747.37,443.64 750.31,445.25 753.27,446.88 756.21,448.49 759.15,450.13 762.10,451.96 765.04,453.80 767.98,455.63 770.94,457.48 773.88,459.45 776.82,461.44 779.77,463.42 782.72,465.41 785.66,467.46 788.61,469.56 791.55,471.63 794.49,473.73 797.45,475.83 800.39,477.95 803.33,480.08 806.28,482.20 809.22,484.33 812.17,486.41 815.12,488.47 818.06,490.55 821.00,492.63 823.96,494.58 826.90,496.52 829.84,498.43 832.79,500.35 835.73,502.16 838.67,503.81 841.63,505.45 844.57,507.10 847.51,508.69 850.46,509.90 853.41,511.11 856.35,512.34 859.30,513.55 862.24,514.24 865.18,514.84 868.14,515.45 871.08,516.05 874.02,516.21 876.97,516.03 879.91,515.85 882.85,515.67 885.81,515.25 888.75,514.20 891.69,513.17 894.65,512.14 897.59,511.09 900.53,509.30 903.48,507.51 906.42,505.72 909.36,503.95 912.32,501.85 915.26,499.63 918.20,497.40 921.15,495.20 924.09,492.97 927.04,490.77 929.99,488.54 932.93,486.34 935.87,484.17 938.83,482.36 941.77,480.55 944.71,478.72 947.66,476.92 950.60,475.67 953.54,474.49 956.50,473.33 959.44,472.18 962.38,471.44 965.33,471.02 968.28,470.59 971.22,470.17 974.17,469.93 977.11,470.21 980.05,470.46 983.01,470.71 985.95,470.98 988.89,471.87 991.84,472.74 994.78,473.62 997.73,474.51 1000.68,475.90 1003.62,477.49 1006.56,479.09 1009.52,480.68 1012.46,482.72 1015.40,485.41 1018.35,488.09 1021.29,490.78 1024.23,493.75 1027.19,498.42 1030.13,503.06 1033.07,507.73 1036.02,512.39 1038.97,520.24 1041.91,528.63 1044.86,537.01 1047.80,545.40 1050.74,558.04 1053.70,573.88 1056.64,589.72 1059.58,605.56 1062.53,619.86 1065.47,630.28 1068.42,640.70 1071.37,651.13 1074.31,661.55" fill="none" stroke="#000000" stroke-width="3"/>
<line x1="142" y1="100" x2="178" y2="100" stroke="#000000" stroke-width="4"/>
<text x="188" y="105" font-family="Arial" font-size="18" fill="black">k</text>
</svg>